<?xml version="1.0" encoding="utf-8" standalone="no"?>
<!DOCTYPE svg PUBLIC "-//W3C//DTD SVG 1.1//EN"
  "http://www.w3.org/Graphics/SVG/1.1/DTD/svg11.dtd">
<svg xmlns:xlink="http://www.w3.org/1999/xlink" width="1440pt" height="720pt" viewBox="0 0 1440 720" xmlns="http://www.w3.org/2000/svg" version="1.1">
 <metadata>
  <rdf:RDF xmlns:dc="http://purl.org/dc/elements/1.1/" xmlns:cc="http://creativecommons.org/ns#" xmlns:rdf="http://www.w3.org/1999/02/22-rdf-syntax-ns#">
   <cc:Work>
    <dc:type rdf:resource="http://purl.org/dc/dcmitype/StillImage"/>
    <dc:date>2024-07-27T14:09:18.722437</dc:date>
    <dc:format>image/svg+xml</dc:format>
    <dc:creator>
     <cc:Agent>
      <dc:title>Matplotlib v3.8.0, https://matplotlib.org/</dc:title>
     </cc:Agent>
    </dc:creator>
   </cc:Work>
  </rdf:RDF>
 </metadata>
 <defs>
  <style type="text/css">*{stroke-linejoin: round; stroke-linecap: butt}</style>
 </defs>
 <g id="figure_1">
  <g id="patch_1">
   <path d="M 0 720 
L 1440 720 
L 1440 0 
L 0 0 
z
" style="fill: #ffffff"/>
  </g>
  <g id="axes_1">
   <g id="patch_2">
    <path d="M 180 640.8 
L 1296 640.8 
L 1296 86.4 
L 180 86.4 
z
" style="fill: #ffffff"/>
   </g>
   <g id="PolyCollection_1">
    <defs>
     <path id="mcbdcd1d9fc" d="M 319.504852 -104.4 
L 319.495148 -104.4 
L 319.48503 -109.206495 
L 319.469986 -114.012989 
L 319.458274 -118.819484 
L 319.450531 -123.625979 
L 319.431454 -128.432474 
L 319.387433 -133.238968 
L 319.310207 -138.045463 
L 319.168107 -142.851958 
L 318.892098 -147.658452 
L 318.417998 -152.464947 
L 317.731795 -157.271442 
L 316.802054 -162.077937 
L 315.478016 -166.884431 
L 313.582274 -171.690926 
L 311.129885 -176.497421 
L 308.340392 -181.303916 
L 305.383027 -186.11041 
L 302.122634 -190.916905 
L 298.093623 -195.7234 
L 292.908374 -200.529894 
L 286.832161 -205.336389 
L 280.676324 -210.142884 
L 274.977755 -214.949379 
L 269.56084 -219.755873 
L 264.167806 -224.562368 
L 259.138122 -229.368863 
L 254.767353 -234.175357 
L 250.62137 -238.981852 
L 246.364912 -243.788347 
L 242.476341 -248.594842 
L 239.473199 -253.401336 
L 237.14143 -258.207831 
L 235.297402 -263.014326 
L 234.513813 -267.82082 
L 234.901921 -272.627315 
L 235.209176 -277.43381 
L 234.212071 -282.240305 
L 232.211298 -287.046799 
L 230.718184 -291.853294 
L 230.863106 -296.659789 
L 232.096859 -301.466283 
L 232.894698 -306.272778 
L 232.484794 -311.079273 
L 231.251841 -315.885768 
L 230.228306 -320.692262 
L 230.30423 -325.498757 
L 231.525857 -330.305252 
L 233.567218 -335.111747 
L 236.148896 -339.918241 
L 238.874779 -344.724736 
L 241.512885 -349.531231 
L 244.013267 -354.337725 
L 246.432245 -359.14422 
L 249.152384 -363.950715 
L 252.58366 -368.75721 
L 256.832071 -373.563704 
L 261.887893 -378.370199 
L 267.548123 -383.176694 
L 273.051067 -387.983188 
L 277.621647 -392.789683 
L 281.469123 -397.596178 
L 285.355854 -402.402673 
L 289.508798 -407.209167 
L 293.697423 -412.015662 
L 297.680665 -416.822157 
L 301.139194 -421.628651 
L 303.800945 -426.435146 
L 305.716362 -431.241641 
L 307.167803 -436.048136 
L 308.45944 -440.85463 
L 309.777691 -445.661125 
L 311.080541 -450.46762 
L 312.224522 -455.274115 
L 313.226632 -460.080609 
L 314.242364 -464.887104 
L 315.332857 -469.693599 
L 316.39512 -474.500093 
L 317.272564 -479.306588 
L 317.886216 -484.113083 
L 318.254701 -488.919578 
L 318.44913 -493.726072 
L 318.610582 -498.532567 
L 318.851531 -503.339062 
L 319.108024 -508.145556 
L 319.255887 -512.952051 
L 319.281029 -517.758546 
L 319.249026 -522.565041 
L 319.218151 -527.371535 
L 319.224463 -532.17803 
L 319.283993 -536.984525 
L 319.373809 -541.791019 
L 319.44761 -546.597514 
L 319.483204 -551.404009 
L 319.490238 -556.210504 
L 319.485591 -561.016998 
L 319.482094 -565.823493 
L 319.48556 -570.629988 
L 319.492586 -575.436483 
L 319.49758 -580.242977 
L 319.50242 -580.242977 
L 319.50242 -580.242977 
L 319.507414 -575.436483 
L 319.51444 -570.629988 
L 319.517906 -565.823493 
L 319.514409 -561.016998 
L 319.509762 -556.210504 
L 319.516796 -551.404009 
L 319.55239 -546.597514 
L 319.626191 -541.791019 
L 319.716007 -536.984525 
L 319.775537 -532.17803 
L 319.781849 -527.371535 
L 319.750974 -522.565041 
L 319.718971 -517.758546 
L 319.744113 -512.952051 
L 319.891976 -508.145556 
L 320.148469 -503.339062 
L 320.389418 -498.532567 
L 320.55087 -493.726072 
L 320.745299 -488.919578 
L 321.113784 -484.113083 
L 321.727436 -479.306588 
L 322.60488 -474.500093 
L 323.667143 -469.693599 
L 324.757636 -464.887104 
L 325.773368 -460.080609 
L 326.775478 -455.274115 
L 327.919459 -450.46762 
L 329.222309 -445.661125 
L 330.54056 -440.85463 
L 331.832197 -436.048136 
L 333.283638 -431.241641 
L 335.199055 -426.435146 
L 337.860806 -421.628651 
L 341.319335 -416.822157 
L 345.302577 -412.015662 
L 349.491202 -407.209167 
L 353.644146 -402.402673 
L 357.530877 -397.596178 
L 361.378353 -392.789683 
L 365.948933 -387.983188 
L 371.451877 -383.176694 
L 377.112107 -378.370199 
L 382.167929 -373.563704 
L 386.41634 -368.75721 
L 389.847616 -363.950715 
L 392.567755 -359.14422 
L 394.986733 -354.337725 
L 397.487115 -349.531231 
L 400.125221 -344.724736 
L 402.851104 -339.918241 
L 405.432782 -335.111747 
L 407.474143 -330.305252 
L 408.69577 -325.498757 
L 408.771694 -320.692262 
L 407.748159 -315.885768 
L 406.515206 -311.079273 
L 406.105302 -306.272778 
L 406.903141 -301.466283 
L 408.136894 -296.659789 
L 408.281816 -291.853294 
L 406.788702 -287.046799 
L 404.787929 -282.240305 
L 403.790824 -277.43381 
L 404.098079 -272.627315 
L 404.486187 -267.82082 
L 403.702598 -263.014326 
L 401.85857 -258.207831 
L 399.526801 -253.401336 
L 396.523659 -248.594842 
L 392.635088 -243.788347 
L 388.37863 -238.981852 
L 384.232647 -234.175357 
L 379.861878 -229.368863 
L 374.832194 -224.562368 
L 369.43916 -219.755873 
L 364.022245 -214.949379 
L 358.323676 -210.142884 
L 352.167839 -205.336389 
L 346.091626 -200.529894 
L 340.906377 -195.7234 
L 336.877366 -190.916905 
L 333.616973 -186.11041 
L 330.659608 -181.303916 
L 327.870115 -176.497421 
L 325.417726 -171.690926 
L 323.521984 -166.884431 
L 322.197946 -162.077937 
L 321.268205 -157.271442 
L 320.582002 -152.464947 
L 320.107902 -147.658452 
L 319.831893 -142.851958 
L 319.689793 -138.045463 
L 319.612567 -133.238968 
L 319.568546 -128.432474 
L 319.549469 -123.625979 
L 319.541726 -118.819484 
L 319.530014 -114.012989 
L 319.51497 -109.206495 
L 319.504852 -104.4 
z
" style="stroke: #3f3f3f; stroke-width: 1.25"/>
    </defs>
    <g clip-path="url(#pe2ffaff62f)">
     <use xlink:href="#mcbdcd1d9fc" x="0" y="720" style="fill: #3274a1; stroke: #3f3f3f; stroke-width: 1.25"/>
    </g>
   </g>
   <g id="PolyCollection_2">
    <defs>
     <path id="m9b28411dae" d="M 598.502464 -113.401856 
L 598.497536 -113.401856 
L 598.492076 -118.255975 
L 598.482358 -123.110093 
L 598.466022 -127.964211 
L 598.42805 -132.81833 
L 598.350398 -137.672448 
L 598.243346 -142.526566 
L 598.126231 -147.380685 
L 597.981733 -152.234803 
L 597.777957 -157.088921 
L 597.484505 -161.943039 
L 597.028883 -166.797158 
L 596.283662 -171.651276 
L 595.109157 -176.505394 
L 593.444912 -181.359513 
L 591.342362 -186.213631 
L 588.81317 -191.067749 
L 585.725788 -195.921868 
L 581.864368 -200.775986 
L 577.073637 -205.630104 
L 571.579087 -210.484222 
L 565.957727 -215.338341 
L 560.44554 -220.192459 
L 554.735616 -225.046577 
L 548.719437 -229.900696 
L 542.912633 -234.754814 
L 537.797947 -239.608932 
L 533.216684 -244.463051 
L 528.87804 -249.317169 
L 524.907506 -254.171287 
L 521.453218 -259.025405 
L 518.139425 -263.879524 
L 514.580614 -268.733642 
L 511.06081 -273.58776 
L 508.06487 -278.441879 
L 505.789491 -283.295997 
L 504.155918 -288.150115 
L 502.73607 -293.004234 
L 501.072835 -297.858352 
L 499.543657 -302.71247 
L 499.181078 -307.566588 
L 500.348916 -312.420707 
L 502.303706 -317.274825 
L 504.426244 -322.128943 
L 507.148128 -326.983062 
L 510.691283 -331.83718 
L 514.269647 -336.691298 
L 517.431805 -341.545417 
L 520.328996 -346.399535 
L 522.914111 -351.253653 
L 525.196203 -356.107771 
L 527.606586 -360.96189 
L 530.643073 -365.816008 
L 534.087569 -370.670126 
L 537.209229 -375.524245 
L 540.128039 -380.378363 
L 543.611189 -385.232481 
L 547.680097 -390.0866 
L 551.909133 -394.940718 
L 556.248212 -399.794836 
L 560.617204 -404.648954 
L 564.634837 -409.503073 
L 568.165734 -414.357191 
L 571.441392 -419.211309 
L 574.685631 -424.065428 
L 577.918133 -428.919546 
L 580.893018 -433.773664 
L 583.331373 -438.627783 
L 585.206854 -443.481901 
L 586.726874 -448.336019 
L 588.257513 -453.190137 
L 590.039145 -458.044256 
L 591.825687 -462.898374 
L 593.209943 -467.752492 
L 594.172515 -472.606611 
L 594.934888 -477.460729 
L 595.547367 -482.314847 
L 595.906558 -487.168966 
L 596.028934 -492.023084 
L 596.117484 -496.877202 
L 596.347724 -501.73132 
L 596.717766 -506.585439 
L 597.128149 -511.439557 
L 597.497285 -516.293675 
L 597.772702 -521.147794 
L 597.926704 -526.001912 
L 597.989829 -530.85603 
L 598.033777 -535.710149 
L 598.105055 -540.564267 
L 598.195239 -545.418385 
L 598.282967 -550.272503 
L 598.35631 -555.126622 
L 598.402994 -559.98074 
L 598.420966 -564.834858 
L 598.412022 -569.688977 
L 598.384748 -574.543095 
L 598.374348 -579.397213 
L 598.405737 -584.251332 
L 598.45419 -589.10545 
L 598.485841 -593.959568 
L 598.514159 -593.959568 
L 598.514159 -593.959568 
L 598.54581 -589.10545 
L 598.594263 -584.251332 
L 598.625652 -579.397213 
L 598.615252 -574.543095 
L 598.587978 -569.688977 
L 598.579034 -564.834858 
L 598.597006 -559.98074 
L 598.64369 -555.126622 
L 598.717033 -550.272503 
L 598.804761 -545.418385 
L 598.894945 -540.564267 
L 598.966223 -535.710149 
L 599.010171 -530.85603 
L 599.073296 -526.001912 
L 599.227298 -521.147794 
L 599.502715 -516.293675 
L 599.871851 -511.439557 
L 600.282234 -506.585439 
L 600.652276 -501.73132 
L 600.882516 -496.877202 
L 600.971066 -492.023084 
L 601.093442 -487.168966 
L 601.452633 -482.314847 
L 602.065112 -477.460729 
L 602.827485 -472.606611 
L 603.790057 -467.752492 
L 605.174313 -462.898374 
L 606.960855 -458.044256 
L 608.742487 -453.190137 
L 610.273126 -448.336019 
L 611.793146 -443.481901 
L 613.668627 -438.627783 
L 616.106982 -433.773664 
L 619.081867 -428.919546 
L 622.314369 -424.065428 
L 625.558608 -419.211309 
L 628.834266 -414.357191 
L 632.365163 -409.503073 
L 636.382796 -404.648954 
L 640.751788 -399.794836 
L 645.090867 -394.940718 
L 649.319903 -390.0866 
L 653.388811 -385.232481 
L 656.871961 -380.378363 
L 659.790771 -375.524245 
L 662.912431 -370.670126 
L 666.356927 -365.816008 
L 669.393414 -360.96189 
L 671.803797 -356.107771 
L 674.085889 -351.253653 
L 676.671004 -346.399535 
L 679.568195 -341.545417 
L 682.730353 -336.691298 
L 686.308717 -331.83718 
L 689.851872 -326.983062 
L 692.573756 -322.128943 
L 694.696294 -317.274825 
L 696.651084 -312.420707 
L 697.818922 -307.566588 
L 697.456343 -302.71247 
L 695.927165 -297.858352 
L 694.26393 -293.004234 
L 692.844082 -288.150115 
L 691.210509 -283.295997 
L 688.93513 -278.441879 
L 685.93919 -273.58776 
L 682.419386 -268.733642 
L 678.860575 -263.879524 
L 675.546782 -259.025405 
L 672.092494 -254.171287 
L 668.12196 -249.317169 
L 663.783316 -244.463051 
L 659.202053 -239.608932 
L 654.087367 -234.754814 
L 648.280563 -229.900696 
L 642.264384 -225.046577 
L 636.55446 -220.192459 
L 631.042273 -215.338341 
L 625.420913 -210.484222 
L 619.926363 -205.630104 
L 615.135632 -200.775986 
L 611.274212 -195.921868 
L 608.18683 -191.067749 
L 605.657638 -186.213631 
L 603.555088 -181.359513 
L 601.890843 -176.505394 
L 600.716338 -171.651276 
L 599.971117 -166.797158 
L 599.515495 -161.943039 
L 599.222043 -157.088921 
L 599.018267 -152.234803 
L 598.873769 -147.380685 
L 598.756654 -142.526566 
L 598.649602 -137.672448 
L 598.57195 -132.81833 
L 598.533978 -127.964211 
L 598.517642 -123.110093 
L 598.507924 -118.255975 
L 598.502464 -113.401856 
z
" style="stroke: #3f3f3f; stroke-width: 1.25"/>
    </defs>
    <g clip-path="url(#pe2ffaff62f)">
     <use xlink:href="#m9b28411dae" x="0" y="720" style="fill: #3274a1; stroke: #3f3f3f; stroke-width: 1.25"/>
    </g>
   </g>
   <g id="PolyCollection_3">
    <defs>
     <path id="mae03139a57" d="M 877.502778 -123.884231 
L 877.497222 -123.884231 
L 877.489998 -128.540338 
L 877.473622 -133.196444 
L 877.43978 -137.85255 
L 877.38124 -142.508657 
L 877.319676 -147.164763 
L 877.272203 -151.820869 
L 877.168533 -156.476975 
L 876.914191 -161.133082 
L 876.5039 -165.789188 
L 875.959439 -170.445294 
L 875.196253 -175.101401 
L 874.099917 -179.757507 
L 872.665879 -184.413613 
L 870.841195 -189.06972 
L 868.415856 -193.725826 
L 865.245843 -198.381932 
L 861.381891 -203.038038 
L 857.018226 -207.694145 
L 852.333588 -212.350251 
L 847.033104 -217.006357 
L 840.885373 -221.662464 
L 834.84543 -226.31857 
L 829.716723 -230.974676 
L 824.476775 -235.630783 
L 818.080724 -240.286889 
L 811.231183 -244.942995 
L 804.488938 -249.599101 
L 796.838268 -254.255208 
L 788.241323 -258.911314 
L 781.007034 -263.56742 
L 776.816398 -268.223527 
L 774.892545 -272.879633 
L 773.644073 -277.535739 
L 772.061983 -282.191846 
L 770.141911 -286.847952 
L 768.924967 -291.504058 
L 768.50117 -296.160165 
L 767.595625 -300.816271 
L 766.321326 -305.472377 
L 765.9 -310.128483 
L 766.911338 -314.78459 
L 770.005369 -319.440696 
L 775.416301 -324.096802 
L 781.527624 -328.752909 
L 786.153229 -333.409015 
L 789.192298 -338.065121 
L 792.252977 -342.721228 
L 796.147229 -347.377334 
L 800.528124 -352.03344 
L 805.335274 -356.689546 
L 810.970814 -361.345653 
L 817.232676 -366.001759 
L 823.346167 -370.657865 
L 828.579527 -375.313972 
L 832.704319 -379.970078 
L 836.373639 -384.626184 
L 840.162481 -389.282291 
L 843.713407 -393.938397 
L 846.86532 -398.594503 
L 849.948807 -403.250609 
L 852.766646 -407.906716 
L 855.018966 -412.562822 
L 857.184363 -417.218928 
L 859.717598 -421.875035 
L 862.194544 -426.531141 
L 864.09092 -431.187247 
L 865.565383 -435.843354 
L 866.941856 -440.49946 
L 868.255483 -445.155566 
L 869.501648 -449.811672 
L 870.740032 -454.467779 
L 871.924066 -459.123885 
L 872.892792 -463.779991 
L 873.619149 -468.436098 
L 874.184394 -473.092204 
L 874.590022 -477.74831 
L 874.853914 -482.404417 
L 875.05558 -487.060523 
L 875.232762 -491.716629 
L 875.418623 -496.372735 
L 875.709668 -501.028842 
L 876.157409 -505.684948 
L 876.629488 -510.341054 
L 876.94265 -514.997161 
L 877.074966 -519.653267 
L 877.143278 -524.309373 
L 877.252104 -528.96548 
L 877.382367 -533.621586 
L 877.464831 -538.277692 
L 877.49356 -542.933799 
L 877.49916 -547.589905 
L 877.498513 -552.246011 
L 877.49029 -556.902117 
L 877.460844 -561.558224 
L 877.40558 -566.21433 
L 877.363871 -570.870436 
L 877.382656 -575.526543 
L 877.439522 -580.182649 
L 877.481364 -584.838755 
L 877.518636 -584.838755 
L 877.518636 -584.838755 
L 877.560478 -580.182649 
L 877.617344 -575.526543 
L 877.636129 -570.870436 
L 877.59442 -566.21433 
L 877.539156 -561.558224 
L 877.50971 -556.902117 
L 877.501487 -552.246011 
L 877.50084 -547.589905 
L 877.50644 -542.933799 
L 877.535169 -538.277692 
L 877.617633 -533.621586 
L 877.747896 -528.96548 
L 877.856722 -524.309373 
L 877.925034 -519.653267 
L 878.05735 -514.997161 
L 878.370512 -510.341054 
L 878.842591 -505.684948 
L 879.290332 -501.028842 
L 879.581377 -496.372735 
L 879.767238 -491.716629 
L 879.94442 -487.060523 
L 880.146086 -482.404417 
L 880.409978 -477.74831 
L 880.815606 -473.092204 
L 881.380851 -468.436098 
L 882.107208 -463.779991 
L 883.075934 -459.123885 
L 884.259968 -454.467779 
L 885.498352 -449.811672 
L 886.744517 -445.155566 
L 888.058144 -440.49946 
L 889.434617 -435.843354 
L 890.90908 -431.187247 
L 892.805456 -426.531141 
L 895.282402 -421.875035 
L 897.815637 -417.218928 
L 899.981034 -412.562822 
L 902.233354 -407.906716 
L 905.051193 -403.250609 
L 908.13468 -398.594503 
L 911.286593 -393.938397 
L 914.837519 -389.282291 
L 918.626361 -384.626184 
L 922.295681 -379.970078 
L 926.420473 -375.313972 
L 931.653833 -370.657865 
L 937.767324 -366.001759 
L 944.029186 -361.345653 
L 949.664726 -356.689546 
L 954.471876 -352.03344 
L 958.852771 -347.377334 
L 962.747023 -342.721228 
L 965.807702 -338.065121 
L 968.846771 -333.409015 
L 973.472376 -328.752909 
L 979.583699 -324.096802 
L 984.994631 -319.440696 
L 988.088662 -314.78459 
L 989.1 -310.128483 
L 988.678674 -305.472377 
L 987.404375 -300.816271 
L 986.49883 -296.160165 
L 986.075033 -291.504058 
L 984.858089 -286.847952 
L 982.938017 -282.191846 
L 981.355927 -277.535739 
L 980.107455 -272.879633 
L 978.183602 -268.223527 
L 973.992966 -263.56742 
L 966.758677 -258.911314 
L 958.161732 -254.255208 
L 950.511062 -249.599101 
L 943.768817 -244.942995 
L 936.919276 -240.286889 
L 930.523225 -235.630783 
L 925.283277 -230.974676 
L 920.15457 -226.31857 
L 914.114627 -221.662464 
L 907.966896 -217.006357 
L 902.666412 -212.350251 
L 897.981774 -207.694145 
L 893.618109 -203.038038 
L 889.754157 -198.381932 
L 886.584144 -193.725826 
L 884.158805 -189.06972 
L 882.334121 -184.413613 
L 880.900083 -179.757507 
L 879.803747 -175.101401 
L 879.040561 -170.445294 
L 878.4961 -165.789188 
L 878.085809 -161.133082 
L 877.831467 -156.476975 
L 877.727797 -151.820869 
L 877.680324 -147.164763 
L 877.61876 -142.508657 
L 877.56022 -137.85255 
L 877.526378 -133.196444 
L 877.510002 -128.540338 
L 877.502778 -123.884231 
z
" style="stroke: #3f3f3f; stroke-width: 1.25"/>
    </defs>
    <g clip-path="url(#pe2ffaff62f)">
     <use xlink:href="#mae03139a57" x="0" y="720" style="fill: #3274a1; stroke: #3f3f3f; stroke-width: 1.25"/>
    </g>
   </g>
   <g id="PolyCollection_4">
    <defs>
     <path id="m88875191fb" d="M 1156.504717 -124.721233 
L 1156.495283 -124.721233 
L 1156.479637 -129.606877 
L 1156.433295 -134.492521 
L 1156.328274 -139.378165 
L 1156.135892 -144.263809 
L 1155.829111 -149.149453 
L 1155.372145 -154.035097 
L 1154.703358 -158.920741 
L 1153.74512 -163.806386 
L 1152.472149 -168.69203 
L 1150.908763 -173.577674 
L 1149.004152 -178.463318 
L 1146.646729 -183.348962 
L 1143.759916 -188.234606 
L 1140.186785 -193.12025 
L 1135.743656 -198.005894 
L 1130.614776 -202.891538 
L 1125.246533 -207.777183 
L 1119.802709 -212.662827 
L 1114.213286 -217.548471 
L 1108.548884 -222.434115 
L 1102.977151 -227.319759 
L 1097.467317 -232.205403 
L 1091.883386 -237.091047 
L 1086.540548 -241.976691 
L 1082.106333 -246.862335 
L 1078.740973 -251.74798 
L 1076.051777 -256.633624 
L 1073.817733 -261.519268 
L 1071.923553 -266.404912 
L 1070.033034 -271.290556 
L 1068.113813 -276.1762 
L 1066.588032 -281.061844 
L 1065.680633 -285.947488 
L 1065.397026 -290.833133 
L 1065.904765 -295.718777 
L 1067.206804 -300.604421 
L 1068.751186 -305.490065 
L 1069.764134 -310.375709 
L 1070.006431 -315.261353 
L 1070.185198 -320.146997 
L 1071.420338 -325.032641 
L 1074.252304 -329.918285 
L 1078.27064 -334.80393 
L 1082.631853 -339.689574 
L 1086.701608 -344.575218 
L 1090.0207 -349.460862 
L 1092.185238 -354.346506 
L 1093.40263 -359.23215 
L 1094.559696 -364.117794 
L 1096.289355 -369.003438 
L 1098.523265 -373.889082 
L 1100.959133 -378.774727 
L 1103.404231 -383.660371 
L 1105.79588 -388.546015 
L 1108.277553 -393.431659 
L 1111.173022 -398.317303 
L 1114.705572 -403.202947 
L 1118.65412 -408.088591 
L 1122.486098 -412.974235 
L 1125.963641 -417.85988 
L 1129.316043 -422.745524 
L 1132.709028 -427.631168 
L 1135.858881 -432.516812 
L 1138.378065 -437.402456 
L 1140.348485 -442.2881 
L 1142.289538 -447.173744 
L 1144.476784 -452.059388 
L 1146.577379 -456.945032 
L 1148.194969 -461.830677 
L 1149.346829 -466.716321 
L 1150.191295 -471.601965 
L 1150.808077 -476.487609 
L 1151.399119 -481.373253 
L 1152.201076 -486.258897 
L 1153.123429 -491.144541 
L 1153.891428 -496.030185 
L 1154.420159 -500.915829 
L 1154.78397 -505.801474 
L 1155.064076 -510.687118 
L 1155.336446 -515.572762 
L 1155.637941 -520.458406 
L 1155.920287 -525.34405 
L 1156.119893 -530.229694 
L 1156.239178 -535.115338 
L 1156.311742 -540.000982 
L 1156.355053 -544.886627 
L 1156.383118 -549.772271 
L 1156.413379 -554.657915 
L 1156.448088 -559.543559 
L 1156.472209 -564.429203 
L 1156.472141 -569.314847 
L 1156.448296 -574.200491 
L 1156.417886 -579.086135 
L 1156.40443 -583.971779 
L 1156.415267 -588.857424 
L 1156.439504 -593.743068 
L 1156.465088 -598.628712 
L 1156.484619 -603.514356 
L 1156.495162 -608.4 
L 1156.504838 -608.4 
L 1156.504838 -608.4 
L 1156.515381 -603.514356 
L 1156.534912 -598.628712 
L 1156.560496 -593.743068 
L 1156.584733 -588.857424 
L 1156.59557 -583.971779 
L 1156.582114 -579.086135 
L 1156.551704 -574.200491 
L 1156.527859 -569.314847 
L 1156.527791 -564.429203 
L 1156.551912 -559.543559 
L 1156.586621 -554.657915 
L 1156.616882 -549.772271 
L 1156.644947 -544.886627 
L 1156.688258 -540.000982 
L 1156.760822 -535.115338 
L 1156.880107 -530.229694 
L 1157.079713 -525.34405 
L 1157.362059 -520.458406 
L 1157.663554 -515.572762 
L 1157.935924 -510.687118 
L 1158.21603 -505.801474 
L 1158.579841 -500.915829 
L 1159.108572 -496.030185 
L 1159.876571 -491.144541 
L 1160.798924 -486.258897 
L 1161.600881 -481.373253 
L 1162.191923 -476.487609 
L 1162.808705 -471.601965 
L 1163.653171 -466.716321 
L 1164.805031 -461.830677 
L 1166.422621 -456.945032 
L 1168.523216 -452.059388 
L 1170.710462 -447.173744 
L 1172.651515 -442.2881 
L 1174.621935 -437.402456 
L 1177.141119 -432.516812 
L 1180.290972 -427.631168 
L 1183.683957 -422.745524 
L 1187.036359 -417.85988 
L 1190.513902 -412.974235 
L 1194.34588 -408.088591 
L 1198.294428 -403.202947 
L 1201.826978 -398.317303 
L 1204.722447 -393.431659 
L 1207.20412 -388.546015 
L 1209.595769 -383.660371 
L 1212.040867 -378.774727 
L 1214.476735 -373.889082 
L 1216.710645 -369.003438 
L 1218.440304 -364.117794 
L 1219.59737 -359.23215 
L 1220.814762 -354.346506 
L 1222.9793 -349.460862 
L 1226.298392 -344.575218 
L 1230.368147 -339.689574 
L 1234.72936 -334.80393 
L 1238.747696 -329.918285 
L 1241.579662 -325.032641 
L 1242.814802 -320.146997 
L 1242.993569 -315.261353 
L 1243.235866 -310.375709 
L 1244.248814 -305.490065 
L 1245.793196 -300.604421 
L 1247.095235 -295.718777 
L 1247.602974 -290.833133 
L 1247.319367 -285.947488 
L 1246.411968 -281.061844 
L 1244.886187 -276.1762 
L 1242.966966 -271.290556 
L 1241.076447 -266.404912 
L 1239.182267 -261.519268 
L 1236.948223 -256.633624 
L 1234.259027 -251.74798 
L 1230.893667 -246.862335 
L 1226.459452 -241.976691 
L 1221.116614 -237.091047 
L 1215.532683 -232.205403 
L 1210.022849 -227.319759 
L 1204.451116 -222.434115 
L 1198.786714 -217.548471 
L 1193.197291 -212.662827 
L 1187.753467 -207.777183 
L 1182.385224 -202.891538 
L 1177.256344 -198.005894 
L 1172.813215 -193.12025 
L 1169.240084 -188.234606 
L 1166.353271 -183.348962 
L 1163.995848 -178.463318 
L 1162.091237 -173.577674 
L 1160.527851 -168.69203 
L 1159.25488 -163.806386 
L 1158.296642 -158.920741 
L 1157.627855 -154.035097 
L 1157.170889 -149.149453 
L 1156.864108 -144.263809 
L 1156.671726 -139.378165 
L 1156.566705 -134.492521 
L 1156.520363 -129.606877 
L 1156.504717 -124.721233 
z
" style="stroke: #3f3f3f; stroke-width: 1.25"/>
    </defs>
    <g clip-path="url(#pe2ffaff62f)">
     <use xlink:href="#m88875191fb" x="0" y="720" style="fill: #3274a1; stroke: #3f3f3f; stroke-width: 1.25"/>
    </g>
   </g>
   <g id="matplotlib.axis_1">
    <g id="xtick_1">
     <g id="line2d_1">
      <defs>
       <path id="mb23a9a5285" d="M 0 0 
L 0 3.5 
" style="stroke: #000000; stroke-width: 0.8"/>
      </defs>
      <g>
       <use xlink:href="#mb23a9a5285" x="319.5" y="640.8" style="stroke: #000000; stroke-width: 0.8"/>
      </g>
     </g>
     <g id="text_1">
      <!-- max -->
      <g transform="translate(308.60625 655.398438) scale(0.1 -0.1)">
       <defs>
        <path id="DejaVuSans-6d" d="M 3328 2828 
Q 3544 3216 3844 3400 
Q 4144 3584 4550 3584 
Q 5097 3584 5394 3201 
Q 5691 2819 5691 2113 
L 5691 0 
L 5113 0 
L 5113 2094 
Q 5113 2597 4934 2840 
Q 4756 3084 4391 3084 
Q 3944 3084 3684 2787 
Q 3425 2491 3425 1978 
L 3425 0 
L 2847 0 
L 2847 2094 
Q 2847 2600 2669 2842 
Q 2491 3084 2119 3084 
Q 1678 3084 1418 2786 
Q 1159 2488 1159 1978 
L 1159 0 
L 581 0 
L 581 3500 
L 1159 3500 
L 1159 2956 
Q 1356 3278 1631 3431 
Q 1906 3584 2284 3584 
Q 2666 3584 2933 3390 
Q 3200 3197 3328 2828 
z
" transform="scale(0.015625)"/>
        <path id="DejaVuSans-61" d="M 2194 1759 
Q 1497 1759 1228 1600 
Q 959 1441 959 1056 
Q 959 750 1161 570 
Q 1363 391 1709 391 
Q 2188 391 2477 730 
Q 2766 1069 2766 1631 
L 2766 1759 
L 2194 1759 
z
M 3341 1997 
L 3341 0 
L 2766 0 
L 2766 531 
Q 2569 213 2275 61 
Q 1981 -91 1556 -91 
Q 1019 -91 701 211 
Q 384 513 384 1019 
Q 384 1609 779 1909 
Q 1175 2209 1959 2209 
L 2766 2209 
L 2766 2266 
Q 2766 2663 2505 2880 
Q 2244 3097 1772 3097 
Q 1472 3097 1187 3025 
Q 903 2953 641 2809 
L 641 3341 
Q 956 3463 1253 3523 
Q 1550 3584 1831 3584 
Q 2591 3584 2966 3190 
Q 3341 2797 3341 1997 
z
" transform="scale(0.015625)"/>
        <path id="DejaVuSans-78" d="M 3513 3500 
L 2247 1797 
L 3578 0 
L 2900 0 
L 1881 1375 
L 863 0 
L 184 0 
L 1544 1831 
L 300 3500 
L 978 3500 
L 1906 2253 
L 2834 3500 
L 3513 3500 
z
" transform="scale(0.015625)"/>
       </defs>
       <use xlink:href="#DejaVuSans-6d"/>
       <use xlink:href="#DejaVuSans-61" x="97.412109"/>
       <use xlink:href="#DejaVuSans-78" x="158.691406"/>
      </g>
     </g>
    </g>
    <g id="xtick_2">
     <g id="line2d_2">
      <g>
       <use xlink:href="#mb23a9a5285" x="598.5" y="640.8" style="stroke: #000000; stroke-width: 0.8"/>
      </g>
     </g>
     <g id="text_2">
      <!-- max_fs -->
      <g transform="translate(580.741406 655.398438) scale(0.1 -0.1)">
       <defs>
        <path id="DejaVuSans-5f" d="M 3263 -1063 
L 3263 -1509 
L -63 -1509 
L -63 -1063 
L 3263 -1063 
z
" transform="scale(0.015625)"/>
        <path id="DejaVuSans-66" d="M 2375 4863 
L 2375 4384 
L 1825 4384 
Q 1516 4384 1395 4259 
Q 1275 4134 1275 3809 
L 1275 3500 
L 2222 3500 
L 2222 3053 
L 1275 3053 
L 1275 0 
L 697 0 
L 697 3053 
L 147 3053 
L 147 3500 
L 697 3500 
L 697 3744 
Q 697 4328 969 4595 
Q 1241 4863 1831 4863 
L 2375 4863 
z
" transform="scale(0.015625)"/>
        <path id="DejaVuSans-73" d="M 2834 3397 
L 2834 2853 
Q 2591 2978 2328 3040 
Q 2066 3103 1784 3103 
Q 1356 3103 1142 2972 
Q 928 2841 928 2578 
Q 928 2378 1081 2264 
Q 1234 2150 1697 2047 
L 1894 2003 
Q 2506 1872 2764 1633 
Q 3022 1394 3022 966 
Q 3022 478 2636 193 
Q 2250 -91 1575 -91 
Q 1294 -91 989 -36 
Q 684 19 347 128 
L 347 722 
Q 666 556 975 473 
Q 1284 391 1588 391 
Q 1994 391 2212 530 
Q 2431 669 2431 922 
Q 2431 1156 2273 1281 
Q 2116 1406 1581 1522 
L 1381 1569 
Q 847 1681 609 1914 
Q 372 2147 372 2553 
Q 372 3047 722 3315 
Q 1072 3584 1716 3584 
Q 2034 3584 2315 3537 
Q 2597 3491 2834 3397 
z
" transform="scale(0.015625)"/>
       </defs>
       <use xlink:href="#DejaVuSans-6d"/>
       <use xlink:href="#DejaVuSans-61" x="97.412109"/>
       <use xlink:href="#DejaVuSans-78" x="158.691406"/>
       <use xlink:href="#DejaVuSans-5f" x="217.871094"/>
       <use xlink:href="#DejaVuSans-66" x="267.871094"/>
       <use xlink:href="#DejaVuSans-73" x="303.076172"/>
      </g>
     </g>
    </g>
    <g id="xtick_3">
     <g id="line2d_3">
      <g>
       <use xlink:href="#mb23a9a5285" x="877.5" y="640.8" style="stroke: #000000; stroke-width: 0.8"/>
      </g>
     </g>
     <g id="text_3">
      <!-- max_mem_5_fs_glit -->
      <g transform="translate(828.330469 655.398438) scale(0.1 -0.1)">
       <defs>
        <path id="DejaVuSans-65" d="M 3597 1894 
L 3597 1613 
L 953 1613 
Q 991 1019 1311 708 
Q 1631 397 2203 397 
Q 2534 397 2845 478 
Q 3156 559 3463 722 
L 3463 178 
Q 3153 47 2828 -22 
Q 2503 -91 2169 -91 
Q 1331 -91 842 396 
Q 353 884 353 1716 
Q 353 2575 817 3079 
Q 1281 3584 2069 3584 
Q 2775 3584 3186 3129 
Q 3597 2675 3597 1894 
z
M 3022 2063 
Q 3016 2534 2758 2815 
Q 2500 3097 2075 3097 
Q 1594 3097 1305 2825 
Q 1016 2553 972 2059 
L 3022 2063 
z
" transform="scale(0.015625)"/>
        <path id="DejaVuSans-35" d="M 691 4666 
L 3169 4666 
L 3169 4134 
L 1269 4134 
L 1269 2991 
Q 1406 3038 1543 3061 
Q 1681 3084 1819 3084 
Q 2600 3084 3056 2656 
Q 3513 2228 3513 1497 
Q 3513 744 3044 326 
Q 2575 -91 1722 -91 
Q 1428 -91 1123 -41 
Q 819 9 494 109 
L 494 744 
Q 775 591 1075 516 
Q 1375 441 1709 441 
Q 2250 441 2565 725 
Q 2881 1009 2881 1497 
Q 2881 1984 2565 2268 
Q 2250 2553 1709 2553 
Q 1456 2553 1204 2497 
Q 953 2441 691 2322 
L 691 4666 
z
" transform="scale(0.015625)"/>
        <path id="DejaVuSans-67" d="M 2906 1791 
Q 2906 2416 2648 2759 
Q 2391 3103 1925 3103 
Q 1463 3103 1205 2759 
Q 947 2416 947 1791 
Q 947 1169 1205 825 
Q 1463 481 1925 481 
Q 2391 481 2648 825 
Q 2906 1169 2906 1791 
z
M 3481 434 
Q 3481 -459 3084 -895 
Q 2688 -1331 1869 -1331 
Q 1566 -1331 1297 -1286 
Q 1028 -1241 775 -1147 
L 775 -588 
Q 1028 -725 1275 -790 
Q 1522 -856 1778 -856 
Q 2344 -856 2625 -561 
Q 2906 -266 2906 331 
L 2906 616 
Q 2728 306 2450 153 
Q 2172 0 1784 0 
Q 1141 0 747 490 
Q 353 981 353 1791 
Q 353 2603 747 3093 
Q 1141 3584 1784 3584 
Q 2172 3584 2450 3431 
Q 2728 3278 2906 2969 
L 2906 3500 
L 3481 3500 
L 3481 434 
z
" transform="scale(0.015625)"/>
        <path id="DejaVuSans-6c" d="M 603 4863 
L 1178 4863 
L 1178 0 
L 603 0 
L 603 4863 
z
" transform="scale(0.015625)"/>
        <path id="DejaVuSans-69" d="M 603 3500 
L 1178 3500 
L 1178 0 
L 603 0 
L 603 3500 
z
M 603 4863 
L 1178 4863 
L 1178 4134 
L 603 4134 
L 603 4863 
z
" transform="scale(0.015625)"/>
        <path id="DejaVuSans-74" d="M 1172 4494 
L 1172 3500 
L 2356 3500 
L 2356 3053 
L 1172 3053 
L 1172 1153 
Q 1172 725 1289 603 
Q 1406 481 1766 481 
L 2356 481 
L 2356 0 
L 1766 0 
Q 1100 0 847 248 
Q 594 497 594 1153 
L 594 3053 
L 172 3053 
L 172 3500 
L 594 3500 
L 594 4494 
L 1172 4494 
z
" transform="scale(0.015625)"/>
       </defs>
       <use xlink:href="#DejaVuSans-6d"/>
       <use xlink:href="#DejaVuSans-61" x="97.412109"/>
       <use xlink:href="#DejaVuSans-78" x="158.691406"/>
       <use xlink:href="#DejaVuSans-5f" x="217.871094"/>
       <use xlink:href="#DejaVuSans-6d" x="267.871094"/>
       <use xlink:href="#DejaVuSans-65" x="365.283203"/>
       <use xlink:href="#DejaVuSans-6d" x="426.806641"/>
       <use xlink:href="#DejaVuSans-5f" x="524.21875"/>
       <use xlink:href="#DejaVuSans-35" x="574.21875"/>
       <use xlink:href="#DejaVuSans-5f" x="637.841797"/>
       <use xlink:href="#DejaVuSans-66" x="687.841797"/>
       <use xlink:href="#DejaVuSans-73" x="723.046875"/>
       <use xlink:href="#DejaVuSans-5f" x="775.146484"/>
       <use xlink:href="#DejaVuSans-67" x="825.146484"/>
       <use xlink:href="#DejaVuSans-6c" x="888.623047"/>
       <use xlink:href="#DejaVuSans-69" x="916.40625"/>
       <use xlink:href="#DejaVuSans-74" x="944.189453"/>
      </g>
     </g>
    </g>
    <g id="xtick_4">
     <g id="line2d_4">
      <g>
       <use xlink:href="#mb23a9a5285" x="1156.5" y="640.8" style="stroke: #000000; stroke-width: 0.8"/>
      </g>
     </g>
     <g id="text_4">
      <!-- max_fs_glit -->
      <g transform="translate(1128.328906 655.398438) scale(0.1 -0.1)">
       <use xlink:href="#DejaVuSans-6d"/>
       <use xlink:href="#DejaVuSans-61" x="97.412109"/>
       <use xlink:href="#DejaVuSans-78" x="158.691406"/>
       <use xlink:href="#DejaVuSans-5f" x="217.871094"/>
       <use xlink:href="#DejaVuSans-66" x="267.871094"/>
       <use xlink:href="#DejaVuSans-73" x="303.076172"/>
       <use xlink:href="#DejaVuSans-5f" x="355.175781"/>
       <use xlink:href="#DejaVuSans-67" x="405.175781"/>
       <use xlink:href="#DejaVuSans-6c" x="468.652344"/>
       <use xlink:href="#DejaVuSans-69" x="496.435547"/>
       <use xlink:href="#DejaVuSans-74" x="524.21875"/>
      </g>
     </g>
    </g>
    <g id="text_5">
     <!-- file name -->
     <g transform="translate(714.616406 669.354687) scale(0.1 -0.1)">
      <defs>
       <path id="DejaVuSans-20" transform="scale(0.015625)"/>
       <path id="DejaVuSans-6e" d="M 3513 2113 
L 3513 0 
L 2938 0 
L 2938 2094 
Q 2938 2591 2744 2837 
Q 2550 3084 2163 3084 
Q 1697 3084 1428 2787 
Q 1159 2491 1159 1978 
L 1159 0 
L 581 0 
L 581 3500 
L 1159 3500 
L 1159 2956 
Q 1366 3272 1645 3428 
Q 1925 3584 2291 3584 
Q 2894 3584 3203 3211 
Q 3513 2838 3513 2113 
z
" transform="scale(0.015625)"/>
      </defs>
      <use xlink:href="#DejaVuSans-66"/>
      <use xlink:href="#DejaVuSans-69" x="35.205078"/>
      <use xlink:href="#DejaVuSans-6c" x="62.988281"/>
      <use xlink:href="#DejaVuSans-65" x="90.771484"/>
      <use xlink:href="#DejaVuSans-20" x="152.294922"/>
      <use xlink:href="#DejaVuSans-6e" x="184.082031"/>
      <use xlink:href="#DejaVuSans-61" x="247.460938"/>
      <use xlink:href="#DejaVuSans-6d" x="308.740234"/>
      <use xlink:href="#DejaVuSans-65" x="406.152344"/>
     </g>
    </g>
   </g>
   <g id="matplotlib.axis_2">
    <g id="ytick_1">
     <g id="line2d_5">
      <defs>
       <path id="m18f9b33909" d="M 0 0 
L -3.5 0 
" style="stroke: #000000; stroke-width: 0.8"/>
      </defs>
      <g>
       <use xlink:href="#m18f9b33909" x="180" y="620.237629" style="stroke: #000000; stroke-width: 0.8"/>
      </g>
     </g>
     <g id="text_6">
      <!-- −0.2 -->
      <g transform="translate(148.717187 624.036848) scale(0.1 -0.1)">
       <defs>
        <path id="DejaVuSans-2212" d="M 678 2272 
L 4684 2272 
L 4684 1741 
L 678 1741 
L 678 2272 
z
" transform="scale(0.015625)"/>
        <path id="DejaVuSans-30" d="M 2034 4250 
Q 1547 4250 1301 3770 
Q 1056 3291 1056 2328 
Q 1056 1369 1301 889 
Q 1547 409 2034 409 
Q 2525 409 2770 889 
Q 3016 1369 3016 2328 
Q 3016 3291 2770 3770 
Q 2525 4250 2034 4250 
z
M 2034 4750 
Q 2819 4750 3233 4129 
Q 3647 3509 3647 2328 
Q 3647 1150 3233 529 
Q 2819 -91 2034 -91 
Q 1250 -91 836 529 
Q 422 1150 422 2328 
Q 422 3509 836 4129 
Q 1250 4750 2034 4750 
z
" transform="scale(0.015625)"/>
        <path id="DejaVuSans-2e" d="M 684 794 
L 1344 794 
L 1344 0 
L 684 0 
L 684 794 
z
" transform="scale(0.015625)"/>
        <path id="DejaVuSans-32" d="M 1228 531 
L 3431 531 
L 3431 0 
L 469 0 
L 469 531 
Q 828 903 1448 1529 
Q 2069 2156 2228 2338 
Q 2531 2678 2651 2914 
Q 2772 3150 2772 3378 
Q 2772 3750 2511 3984 
Q 2250 4219 1831 4219 
Q 1534 4219 1204 4116 
Q 875 4013 500 3803 
L 500 4441 
Q 881 4594 1212 4672 
Q 1544 4750 1819 4750 
Q 2544 4750 2975 4387 
Q 3406 4025 3406 3419 
Q 3406 3131 3298 2873 
Q 3191 2616 2906 2266 
Q 2828 2175 2409 1742 
Q 1991 1309 1228 531 
z
" transform="scale(0.015625)"/>
       </defs>
       <use xlink:href="#DejaVuSans-2212"/>
       <use xlink:href="#DejaVuSans-30" x="83.789062"/>
       <use xlink:href="#DejaVuSans-2e" x="147.412109"/>
       <use xlink:href="#DejaVuSans-32" x="179.199219"/>
      </g>
     </g>
    </g>
    <g id="ytick_2">
     <g id="line2d_6">
      <g>
       <use xlink:href="#m18f9b33909" x="180" y="536.455418" style="stroke: #000000; stroke-width: 0.8"/>
      </g>
     </g>
     <g id="text_7">
      <!-- 0.0 -->
      <g transform="translate(157.096875 540.254637) scale(0.1 -0.1)">
       <use xlink:href="#DejaVuSans-30"/>
       <use xlink:href="#DejaVuSans-2e" x="63.623047"/>
       <use xlink:href="#DejaVuSans-30" x="95.410156"/>
      </g>
     </g>
    </g>
    <g id="ytick_3">
     <g id="line2d_7">
      <g>
       <use xlink:href="#m18f9b33909" x="180" y="452.673207" style="stroke: #000000; stroke-width: 0.8"/>
      </g>
     </g>
     <g id="text_8">
      <!-- 0.2 -->
      <g transform="translate(157.096875 456.472426) scale(0.1 -0.1)">
       <use xlink:href="#DejaVuSans-30"/>
       <use xlink:href="#DejaVuSans-2e" x="63.623047"/>
       <use xlink:href="#DejaVuSans-32" x="95.410156"/>
      </g>
     </g>
    </g>
    <g id="ytick_4">
     <g id="line2d_8">
      <g>
       <use xlink:href="#m18f9b33909" x="180" y="368.890996" style="stroke: #000000; stroke-width: 0.8"/>
      </g>
     </g>
     <g id="text_9">
      <!-- 0.4 -->
      <g transform="translate(157.096875 372.690214) scale(0.1 -0.1)">
       <defs>
        <path id="DejaVuSans-34" d="M 2419 4116 
L 825 1625 
L 2419 1625 
L 2419 4116 
z
M 2253 4666 
L 3047 4666 
L 3047 1625 
L 3713 1625 
L 3713 1100 
L 3047 1100 
L 3047 0 
L 2419 0 
L 2419 1100 
L 313 1100 
L 313 1709 
L 2253 4666 
z
" transform="scale(0.015625)"/>
       </defs>
       <use xlink:href="#DejaVuSans-30"/>
       <use xlink:href="#DejaVuSans-2e" x="63.623047"/>
       <use xlink:href="#DejaVuSans-34" x="95.410156"/>
      </g>
     </g>
    </g>
    <g id="ytick_5">
     <g id="line2d_9">
      <g>
       <use xlink:href="#m18f9b33909" x="180" y="285.108785" style="stroke: #000000; stroke-width: 0.8"/>
      </g>
     </g>
     <g id="text_10">
      <!-- 0.6 -->
      <g transform="translate(157.096875 288.908003) scale(0.1 -0.1)">
       <defs>
        <path id="DejaVuSans-36" d="M 2113 2584 
Q 1688 2584 1439 2293 
Q 1191 2003 1191 1497 
Q 1191 994 1439 701 
Q 1688 409 2113 409 
Q 2538 409 2786 701 
Q 3034 994 3034 1497 
Q 3034 2003 2786 2293 
Q 2538 2584 2113 2584 
z
M 3366 4563 
L 3366 3988 
Q 3128 4100 2886 4159 
Q 2644 4219 2406 4219 
Q 1781 4219 1451 3797 
Q 1122 3375 1075 2522 
Q 1259 2794 1537 2939 
Q 1816 3084 2150 3084 
Q 2853 3084 3261 2657 
Q 3669 2231 3669 1497 
Q 3669 778 3244 343 
Q 2819 -91 2113 -91 
Q 1303 -91 875 529 
Q 447 1150 447 2328 
Q 447 3434 972 4092 
Q 1497 4750 2381 4750 
Q 2619 4750 2861 4703 
Q 3103 4656 3366 4563 
z
" transform="scale(0.015625)"/>
       </defs>
       <use xlink:href="#DejaVuSans-30"/>
       <use xlink:href="#DejaVuSans-2e" x="63.623047"/>
       <use xlink:href="#DejaVuSans-36" x="95.410156"/>
      </g>
     </g>
    </g>
    <g id="ytick_6">
     <g id="line2d_10">
      <g>
       <use xlink:href="#m18f9b33909" x="180" y="201.326574" style="stroke: #000000; stroke-width: 0.8"/>
      </g>
     </g>
     <g id="text_11">
      <!-- 0.8 -->
      <g transform="translate(157.096875 205.125792) scale(0.1 -0.1)">
       <defs>
        <path id="DejaVuSans-38" d="M 2034 2216 
Q 1584 2216 1326 1975 
Q 1069 1734 1069 1313 
Q 1069 891 1326 650 
Q 1584 409 2034 409 
Q 2484 409 2743 651 
Q 3003 894 3003 1313 
Q 3003 1734 2745 1975 
Q 2488 2216 2034 2216 
z
M 1403 2484 
Q 997 2584 770 2862 
Q 544 3141 544 3541 
Q 544 4100 942 4425 
Q 1341 4750 2034 4750 
Q 2731 4750 3128 4425 
Q 3525 4100 3525 3541 
Q 3525 3141 3298 2862 
Q 3072 2584 2669 2484 
Q 3125 2378 3379 2068 
Q 3634 1759 3634 1313 
Q 3634 634 3220 271 
Q 2806 -91 2034 -91 
Q 1263 -91 848 271 
Q 434 634 434 1313 
Q 434 1759 690 2068 
Q 947 2378 1403 2484 
z
M 1172 3481 
Q 1172 3119 1398 2916 
Q 1625 2713 2034 2713 
Q 2441 2713 2670 2916 
Q 2900 3119 2900 3481 
Q 2900 3844 2670 4047 
Q 2441 4250 2034 4250 
Q 1625 4250 1398 4047 
Q 1172 3844 1172 3481 
z
" transform="scale(0.015625)"/>
       </defs>
       <use xlink:href="#DejaVuSans-30"/>
       <use xlink:href="#DejaVuSans-2e" x="63.623047"/>
       <use xlink:href="#DejaVuSans-38" x="95.410156"/>
      </g>
     </g>
    </g>
    <g id="ytick_7">
     <g id="line2d_11">
      <g>
       <use xlink:href="#m18f9b33909" x="180" y="117.544362" style="stroke: #000000; stroke-width: 0.8"/>
      </g>
     </g>
     <g id="text_12">
      <!-- 1.0 -->
      <g transform="translate(157.096875 121.343581) scale(0.1 -0.1)">
       <defs>
        <path id="DejaVuSans-31" d="M 794 531 
L 1825 531 
L 1825 4091 
L 703 3866 
L 703 4441 
L 1819 4666 
L 2450 4666 
L 2450 531 
L 3481 531 
L 3481 0 
L 794 0 
L 794 531 
z
" transform="scale(0.015625)"/>
       </defs>
       <use xlink:href="#DejaVuSans-31"/>
       <use xlink:href="#DejaVuSans-2e" x="63.623047"/>
       <use xlink:href="#DejaVuSans-30" x="95.410156"/>
      </g>
     </g>
    </g>
    <g id="text_13">
     <!-- final cosine similarity -->
     <g transform="translate(142.6375 416.667187) rotate(-90) scale(0.1 -0.1)">
      <defs>
       <path id="DejaVuSans-63" d="M 3122 3366 
L 3122 2828 
Q 2878 2963 2633 3030 
Q 2388 3097 2138 3097 
Q 1578 3097 1268 2742 
Q 959 2388 959 1747 
Q 959 1106 1268 751 
Q 1578 397 2138 397 
Q 2388 397 2633 464 
Q 2878 531 3122 666 
L 3122 134 
Q 2881 22 2623 -34 
Q 2366 -91 2075 -91 
Q 1284 -91 818 406 
Q 353 903 353 1747 
Q 353 2603 823 3093 
Q 1294 3584 2113 3584 
Q 2378 3584 2631 3529 
Q 2884 3475 3122 3366 
z
" transform="scale(0.015625)"/>
       <path id="DejaVuSans-6f" d="M 1959 3097 
Q 1497 3097 1228 2736 
Q 959 2375 959 1747 
Q 959 1119 1226 758 
Q 1494 397 1959 397 
Q 2419 397 2687 759 
Q 2956 1122 2956 1747 
Q 2956 2369 2687 2733 
Q 2419 3097 1959 3097 
z
M 1959 3584 
Q 2709 3584 3137 3096 
Q 3566 2609 3566 1747 
Q 3566 888 3137 398 
Q 2709 -91 1959 -91 
Q 1206 -91 779 398 
Q 353 888 353 1747 
Q 353 2609 779 3096 
Q 1206 3584 1959 3584 
z
" transform="scale(0.015625)"/>
       <path id="DejaVuSans-72" d="M 2631 2963 
Q 2534 3019 2420 3045 
Q 2306 3072 2169 3072 
Q 1681 3072 1420 2755 
Q 1159 2438 1159 1844 
L 1159 0 
L 581 0 
L 581 3500 
L 1159 3500 
L 1159 2956 
Q 1341 3275 1631 3429 
Q 1922 3584 2338 3584 
Q 2397 3584 2469 3576 
Q 2541 3569 2628 3553 
L 2631 2963 
z
" transform="scale(0.015625)"/>
       <path id="DejaVuSans-79" d="M 2059 -325 
Q 1816 -950 1584 -1140 
Q 1353 -1331 966 -1331 
L 506 -1331 
L 506 -850 
L 844 -850 
Q 1081 -850 1212 -737 
Q 1344 -625 1503 -206 
L 1606 56 
L 191 3500 
L 800 3500 
L 1894 763 
L 2988 3500 
L 3597 3500 
L 2059 -325 
z
" transform="scale(0.015625)"/>
      </defs>
      <use xlink:href="#DejaVuSans-66"/>
      <use xlink:href="#DejaVuSans-69" x="35.205078"/>
      <use xlink:href="#DejaVuSans-6e" x="62.988281"/>
      <use xlink:href="#DejaVuSans-61" x="126.367188"/>
      <use xlink:href="#DejaVuSans-6c" x="187.646484"/>
      <use xlink:href="#DejaVuSans-20" x="215.429688"/>
      <use xlink:href="#DejaVuSans-63" x="247.216797"/>
      <use xlink:href="#DejaVuSans-6f" x="302.197266"/>
      <use xlink:href="#DejaVuSans-73" x="363.378906"/>
      <use xlink:href="#DejaVuSans-69" x="415.478516"/>
      <use xlink:href="#DejaVuSans-6e" x="443.261719"/>
      <use xlink:href="#DejaVuSans-65" x="506.640625"/>
      <use xlink:href="#DejaVuSans-20" x="568.164062"/>
      <use xlink:href="#DejaVuSans-73" x="599.951172"/>
      <use xlink:href="#DejaVuSans-69" x="652.050781"/>
      <use xlink:href="#DejaVuSans-6d" x="679.833984"/>
      <use xlink:href="#DejaVuSans-69" x="777.246094"/>
      <use xlink:href="#DejaVuSans-6c" x="805.029297"/>
      <use xlink:href="#DejaVuSans-61" x="832.8125"/>
      <use xlink:href="#DejaVuSans-72" x="894.091797"/>
      <use xlink:href="#DejaVuSans-69" x="935.205078"/>
      <use xlink:href="#DejaVuSans-74" x="962.988281"/>
      <use xlink:href="#DejaVuSans-79" x="1002.197266"/>
     </g>
    </g>
   </g>
   <g id="line2d_12">
    <path d="M 319.5 586.915972 
L 319.5 230.736258 
" clip-path="url(#pe2ffaff62f)" style="fill: none; stroke: #3f3f3f; stroke-width: 1.875; stroke-linecap: square"/>
   </g>
   <g id="line2d_13">
    <path d="M 319.5 460.397962 
L 319.5 368.368716 
" clip-path="url(#pe2ffaff62f)" style="fill: none; stroke: #3f3f3f; stroke-width: 5.625; stroke-linecap: square"/>
   </g>
   <g id="line2d_14">
    <path d="M 319.5 414.422433 
" clip-path="url(#pe2ffaff62f)" style="fill: none; stroke: #3f3f3f; stroke-width: 1.5; stroke-linecap: square"/>
    <defs>
     <path id="m831423181c" d="M 2.34375 0 
L -2.34375 -0 
" style="stroke: #ffffff; stroke-width: 1.125"/>
    </defs>
    <g clip-path="url(#pe2ffaff62f)">
     <use xlink:href="#m831423181c" x="319.5" y="414.422433" style="fill: #ffffff; stroke: #ffffff; stroke-width: 1.125"/>
    </g>
   </g>
   <g id="line2d_15">
    <path d="M 598.5 577.293295 
L 598.5 230.818381 
" clip-path="url(#pe2ffaff62f)" style="fill: none; stroke: #3f3f3f; stroke-width: 1.875; stroke-linecap: square"/>
   </g>
   <g id="line2d_16">
    <path d="M 598.5 450.033609 
L 598.5 362.044275 
" clip-path="url(#pe2ffaff62f)" style="fill: none; stroke: #3f3f3f; stroke-width: 5.625; stroke-linecap: square"/>
   </g>
   <g id="line2d_17">
    <path d="M 598.5 408.412035 
" clip-path="url(#pe2ffaff62f)" style="fill: none; stroke: #3f3f3f; stroke-width: 1.5; stroke-linecap: square"/>
    <g clip-path="url(#pe2ffaff62f)">
     <use xlink:href="#m831423181c" x="598.5" y="408.412035" style="fill: #ffffff; stroke: #ffffff; stroke-width: 1.125"/>
    </g>
   </g>
   <g id="line2d_18">
    <path d="M 877.5 561.217585 
L 877.5 258.674347 
" clip-path="url(#pe2ffaff62f)" style="fill: none; stroke: #3f3f3f; stroke-width: 1.875; stroke-linecap: square"/>
   </g>
   <g id="line2d_19">
    <path d="M 877.5 450.903626 
L 877.5 374.000072 
" clip-path="url(#pe2ffaff62f)" style="fill: none; stroke: #3f3f3f; stroke-width: 5.625; stroke-linecap: square"/>
   </g>
   <g id="line2d_20">
    <path d="M 877.5 413.78747 
" clip-path="url(#pe2ffaff62f)" style="fill: none; stroke: #3f3f3f; stroke-width: 1.5; stroke-linecap: square"/>
    <g clip-path="url(#pe2ffaff62f)">
     <use xlink:href="#m831423181c" x="877.5" y="413.78747" style="fill: #ffffff; stroke: #ffffff; stroke-width: 1.125"/>
    </g>
   </g>
   <g id="line2d_21">
    <path d="M 1156.5 580.208868 
L 1156.5 218.101572 
" clip-path="url(#pe2ffaff62f)" style="fill: none; stroke: #3f3f3f; stroke-width: 1.875; stroke-linecap: square"/>
   </g>
   <g id="line2d_22">
    <path d="M 1156.5 457.11317 
L 1156.5 361.439331 
" clip-path="url(#pe2ffaff62f)" style="fill: none; stroke: #3f3f3f; stroke-width: 5.625; stroke-linecap: square"/>
   </g>
   <g id="line2d_23">
    <path d="M 1156.5 412.577358 
" clip-path="url(#pe2ffaff62f)" style="fill: none; stroke: #3f3f3f; stroke-width: 1.5; stroke-linecap: square"/>
    <g clip-path="url(#pe2ffaff62f)">
     <use xlink:href="#m831423181c" x="1156.5" y="412.577358" style="fill: #ffffff; stroke: #ffffff; stroke-width: 1.125"/>
    </g>
   </g>
   <g id="patch_3">
    <path d="M 180 640.8 
L 180 86.4 
" style="fill: none; stroke: #000000; stroke-width: 0.8; stroke-linejoin: miter; stroke-linecap: square"/>
   </g>
   <g id="patch_4">
    <path d="M 1296 640.8 
L 1296 86.4 
" style="fill: none; stroke: #000000; stroke-width: 0.8; stroke-linejoin: miter; stroke-linecap: square"/>
   </g>
   <g id="patch_5">
    <path d="M 180 640.8 
L 1296 640.8 
" style="fill: none; stroke: #000000; stroke-width: 0.8; stroke-linejoin: miter; stroke-linecap: square"/>
   </g>
   <g id="patch_6">
    <path d="M 180 86.4 
L 1296 86.4 
" style="fill: none; stroke: #000000; stroke-width: 0.8; stroke-linejoin: miter; stroke-linecap: square"/>
   </g>
   <g id="text_14">
    <!-- final cosine similarity of general Between Finals Variety (betweenFinalsVariety), by file name -->
    <g transform="translate(460.266563 80.4) scale(0.12 -0.12)">
     <defs>
      <path id="DejaVuSans-42" d="M 1259 2228 
L 1259 519 
L 2272 519 
Q 2781 519 3026 730 
Q 3272 941 3272 1375 
Q 3272 1813 3026 2020 
Q 2781 2228 2272 2228 
L 1259 2228 
z
M 1259 4147 
L 1259 2741 
L 2194 2741 
Q 2656 2741 2882 2914 
Q 3109 3088 3109 3444 
Q 3109 3797 2882 3972 
Q 2656 4147 2194 4147 
L 1259 4147 
z
M 628 4666 
L 2241 4666 
Q 2963 4666 3353 4366 
Q 3744 4066 3744 3513 
Q 3744 3084 3544 2831 
Q 3344 2578 2956 2516 
Q 3422 2416 3680 2098 
Q 3938 1781 3938 1306 
Q 3938 681 3513 340 
Q 3088 0 2303 0 
L 628 0 
L 628 4666 
z
" transform="scale(0.015625)"/>
      <path id="DejaVuSans-77" d="M 269 3500 
L 844 3500 
L 1563 769 
L 2278 3500 
L 2956 3500 
L 3675 769 
L 4391 3500 
L 4966 3500 
L 4050 0 
L 3372 0 
L 2619 2869 
L 1863 0 
L 1184 0 
L 269 3500 
z
" transform="scale(0.015625)"/>
      <path id="DejaVuSans-46" d="M 628 4666 
L 3309 4666 
L 3309 4134 
L 1259 4134 
L 1259 2759 
L 3109 2759 
L 3109 2228 
L 1259 2228 
L 1259 0 
L 628 0 
L 628 4666 
z
" transform="scale(0.015625)"/>
      <path id="DejaVuSans-56" d="M 1831 0 
L 50 4666 
L 709 4666 
L 2188 738 
L 3669 4666 
L 4325 4666 
L 2547 0 
L 1831 0 
z
" transform="scale(0.015625)"/>
      <path id="DejaVuSans-28" d="M 1984 4856 
Q 1566 4138 1362 3434 
Q 1159 2731 1159 2009 
Q 1159 1288 1364 580 
Q 1569 -128 1984 -844 
L 1484 -844 
Q 1016 -109 783 600 
Q 550 1309 550 2009 
Q 550 2706 781 3412 
Q 1013 4119 1484 4856 
L 1984 4856 
z
" transform="scale(0.015625)"/>
      <path id="DejaVuSans-62" d="M 3116 1747 
Q 3116 2381 2855 2742 
Q 2594 3103 2138 3103 
Q 1681 3103 1420 2742 
Q 1159 2381 1159 1747 
Q 1159 1113 1420 752 
Q 1681 391 2138 391 
Q 2594 391 2855 752 
Q 3116 1113 3116 1747 
z
M 1159 2969 
Q 1341 3281 1617 3432 
Q 1894 3584 2278 3584 
Q 2916 3584 3314 3078 
Q 3713 2572 3713 1747 
Q 3713 922 3314 415 
Q 2916 -91 2278 -91 
Q 1894 -91 1617 61 
Q 1341 213 1159 525 
L 1159 0 
L 581 0 
L 581 4863 
L 1159 4863 
L 1159 2969 
z
" transform="scale(0.015625)"/>
      <path id="DejaVuSans-29" d="M 513 4856 
L 1013 4856 
Q 1481 4119 1714 3412 
Q 1947 2706 1947 2009 
Q 1947 1309 1714 600 
Q 1481 -109 1013 -844 
L 513 -844 
Q 928 -128 1133 580 
Q 1338 1288 1338 2009 
Q 1338 2731 1133 3434 
Q 928 4138 513 4856 
z
" transform="scale(0.015625)"/>
      <path id="DejaVuSans-2c" d="M 750 794 
L 1409 794 
L 1409 256 
L 897 -744 
L 494 -744 
L 750 256 
L 750 794 
z
" transform="scale(0.015625)"/>
     </defs>
     <use xlink:href="#DejaVuSans-66"/>
     <use xlink:href="#DejaVuSans-69" x="35.205078"/>
     <use xlink:href="#DejaVuSans-6e" x="62.988281"/>
     <use xlink:href="#DejaVuSans-61" x="126.367188"/>
     <use xlink:href="#DejaVuSans-6c" x="187.646484"/>
     <use xlink:href="#DejaVuSans-20" x="215.429688"/>
     <use xlink:href="#DejaVuSans-63" x="247.216797"/>
     <use xlink:href="#DejaVuSans-6f" x="302.197266"/>
     <use xlink:href="#DejaVuSans-73" x="363.378906"/>
     <use xlink:href="#DejaVuSans-69" x="415.478516"/>
     <use xlink:href="#DejaVuSans-6e" x="443.261719"/>
     <use xlink:href="#DejaVuSans-65" x="506.640625"/>
     <use xlink:href="#DejaVuSans-20" x="568.164062"/>
     <use xlink:href="#DejaVuSans-73" x="599.951172"/>
     <use xlink:href="#DejaVuSans-69" x="652.050781"/>
     <use xlink:href="#DejaVuSans-6d" x="679.833984"/>
     <use xlink:href="#DejaVuSans-69" x="777.246094"/>
     <use xlink:href="#DejaVuSans-6c" x="805.029297"/>
     <use xlink:href="#DejaVuSans-61" x="832.8125"/>
     <use xlink:href="#DejaVuSans-72" x="894.091797"/>
     <use xlink:href="#DejaVuSans-69" x="935.205078"/>
     <use xlink:href="#DejaVuSans-74" x="962.988281"/>
     <use xlink:href="#DejaVuSans-79" x="1002.197266"/>
     <use xlink:href="#DejaVuSans-20" x="1061.376953"/>
     <use xlink:href="#DejaVuSans-6f" x="1093.164062"/>
     <use xlink:href="#DejaVuSans-66" x="1154.345703"/>
     <use xlink:href="#DejaVuSans-20" x="1189.550781"/>
     <use xlink:href="#DejaVuSans-67" x="1221.337891"/>
     <use xlink:href="#DejaVuSans-65" x="1284.814453"/>
     <use xlink:href="#DejaVuSans-6e" x="1346.337891"/>
     <use xlink:href="#DejaVuSans-65" x="1409.716797"/>
     <use xlink:href="#DejaVuSans-72" x="1471.240234"/>
     <use xlink:href="#DejaVuSans-61" x="1512.353516"/>
     <use xlink:href="#DejaVuSans-6c" x="1573.632812"/>
     <use xlink:href="#DejaVuSans-20" x="1601.416016"/>
     <use xlink:href="#DejaVuSans-42" x="1633.203125"/>
     <use xlink:href="#DejaVuSans-65" x="1701.806641"/>
     <use xlink:href="#DejaVuSans-74" x="1763.330078"/>
     <use xlink:href="#DejaVuSans-77" x="1802.539062"/>
     <use xlink:href="#DejaVuSans-65" x="1884.326172"/>
     <use xlink:href="#DejaVuSans-65" x="1945.849609"/>
     <use xlink:href="#DejaVuSans-6e" x="2007.373047"/>
     <use xlink:href="#DejaVuSans-20" x="2070.751953"/>
     <use xlink:href="#DejaVuSans-46" x="2102.539062"/>
     <use xlink:href="#DejaVuSans-69" x="2152.808594"/>
     <use xlink:href="#DejaVuSans-6e" x="2180.591797"/>
     <use xlink:href="#DejaVuSans-61" x="2243.970703"/>
     <use xlink:href="#DejaVuSans-6c" x="2305.25"/>
     <use xlink:href="#DejaVuSans-73" x="2333.033203"/>
     <use xlink:href="#DejaVuSans-20" x="2385.132812"/>
     <use xlink:href="#DejaVuSans-56" x="2416.919922"/>
     <use xlink:href="#DejaVuSans-61" x="2477.578125"/>
     <use xlink:href="#DejaVuSans-72" x="2538.857422"/>
     <use xlink:href="#DejaVuSans-69" x="2579.970703"/>
     <use xlink:href="#DejaVuSans-65" x="2607.753906"/>
     <use xlink:href="#DejaVuSans-74" x="2669.277344"/>
     <use xlink:href="#DejaVuSans-79" x="2708.486328"/>
     <use xlink:href="#DejaVuSans-20" x="2767.666016"/>
     <use xlink:href="#DejaVuSans-28" x="2799.453125"/>
     <use xlink:href="#DejaVuSans-62" x="2838.466797"/>
     <use xlink:href="#DejaVuSans-65" x="2901.943359"/>
     <use xlink:href="#DejaVuSans-74" x="2963.466797"/>
     <use xlink:href="#DejaVuSans-77" x="3002.675781"/>
     <use xlink:href="#DejaVuSans-65" x="3084.462891"/>
     <use xlink:href="#DejaVuSans-65" x="3145.986328"/>
     <use xlink:href="#DejaVuSans-6e" x="3207.509766"/>
     <use xlink:href="#DejaVuSans-46" x="3270.888672"/>
     <use xlink:href="#DejaVuSans-69" x="3321.158203"/>
     <use xlink:href="#DejaVuSans-6e" x="3348.941406"/>
     <use xlink:href="#DejaVuSans-61" x="3412.320312"/>
     <use xlink:href="#DejaVuSans-6c" x="3473.599609"/>
     <use xlink:href="#DejaVuSans-73" x="3501.382812"/>
     <use xlink:href="#DejaVuSans-56" x="3553.482422"/>
     <use xlink:href="#DejaVuSans-61" x="3614.140625"/>
     <use xlink:href="#DejaVuSans-72" x="3675.419922"/>
     <use xlink:href="#DejaVuSans-69" x="3716.533203"/>
     <use xlink:href="#DejaVuSans-65" x="3744.316406"/>
     <use xlink:href="#DejaVuSans-74" x="3805.839844"/>
     <use xlink:href="#DejaVuSans-79" x="3845.048828"/>
     <use xlink:href="#DejaVuSans-29" x="3904.228516"/>
     <use xlink:href="#DejaVuSans-2c" x="3943.242188"/>
     <use xlink:href="#DejaVuSans-20" x="3975.029297"/>
     <use xlink:href="#DejaVuSans-62" x="4006.816406"/>
     <use xlink:href="#DejaVuSans-79" x="4070.292969"/>
     <use xlink:href="#DejaVuSans-20" x="4129.472656"/>
     <use xlink:href="#DejaVuSans-66" x="4161.259766"/>
     <use xlink:href="#DejaVuSans-69" x="4196.464844"/>
     <use xlink:href="#DejaVuSans-6c" x="4224.248047"/>
     <use xlink:href="#DejaVuSans-65" x="4252.03125"/>
     <use xlink:href="#DejaVuSans-20" x="4313.554688"/>
     <use xlink:href="#DejaVuSans-6e" x="4345.341797"/>
     <use xlink:href="#DejaVuSans-61" x="4408.720703"/>
     <use xlink:href="#DejaVuSans-6d" x="4470"/>
     <use xlink:href="#DejaVuSans-65" x="4567.412109"/>
    </g>
   </g>
  </g>
 </g>
 <defs>
  <clipPath id="pe2ffaff62f">
   <rect x="180" y="86.4" width="1116" height="554.4"/>
  </clipPath>
 </defs>
</svg>
