<?xml version="1.0" encoding="utf-8" standalone="no"?>
<!DOCTYPE svg PUBLIC "-//W3C//DTD SVG 1.1//EN"
  "http://www.w3.org/Graphics/SVG/1.1/DTD/svg11.dtd">
<svg xmlns:xlink="http://www.w3.org/1999/xlink" width="1440pt" height="720pt" viewBox="0 0 1440 720" xmlns="http://www.w3.org/2000/svg" version="1.1">
 <metadata>
  <rdf:RDF xmlns:dc="http://purl.org/dc/elements/1.1/" xmlns:cc="http://creativecommons.org/ns#" xmlns:rdf="http://www.w3.org/1999/02/22-rdf-syntax-ns#">
   <cc:Work>
    <dc:type rdf:resource="http://purl.org/dc/dcmitype/StillImage"/>
    <dc:date>2024-07-06T18:40:21.496708</dc:date>
    <dc:format>image/svg+xml</dc:format>
    <dc:creator>
     <cc:Agent>
      <dc:title>Matplotlib v3.8.0, https://matplotlib.org/</dc:title>
     </cc:Agent>
    </dc:creator>
   </cc:Work>
  </rdf:RDF>
 </metadata>
 <defs>
  <style type="text/css">*{stroke-linejoin: round; stroke-linecap: butt}</style>
 </defs>
 <g id="figure_1">
  <g id="patch_1">
   <path d="M 0 720 
L 1440 720 
L 1440 0 
L 0 0 
z
" style="fill: #ffffff"/>
  </g>
  <g id="axes_1">
   <g id="patch_2">
    <path d="M 180 640.8 
L 1296 640.8 
L 1296 86.4 
L 180 86.4 
z
" style="fill: #ffffff"/>
   </g>
   <g id="PolyCollection_1">
    <defs>
     <path id="m9d09165683" d="M 235.803933 -113.716133 
L 235.796067 -113.716133 
L 235.790095 -118.568462 
L 235.779542 -123.420792 
L 235.76394 -128.273121 
L 235.742357 -133.125451 
L 235.710466 -137.97778 
L 235.658645 -142.83011 
L 235.57187 -147.682439 
L 235.428745 -152.534769 
L 235.199684 -157.387098 
L 234.849168 -162.239427 
L 234.341059 -167.091757 
L 233.633959 -171.944086 
L 232.665097 -176.796416 
L 231.352996 -181.648745 
L 229.641232 -186.501075 
L 227.546143 -191.353404 
L 225.147943 -196.205734 
L 222.523943 -201.058063 
L 219.693733 -205.910393 
L 216.649291 -210.762722 
L 213.448425 -215.615052 
L 210.237958 -220.467381 
L 207.149726 -225.319711 
L 204.224458 -230.17204 
L 201.477572 -235.02437 
L 198.968978 -239.876699 
L 196.754704 -244.729029 
L 194.83325 -249.581358 
L 193.207883 -254.433688 
L 191.975784 -259.286017 
L 191.281692 -264.138347 
L 191.16 -268.990676 
L 191.471978 -273.843006 
L 192.032752 -278.695335 
L 192.765646 -283.547665 
L 193.697156 -288.399994 
L 194.827785 -293.252324 
L 196.069213 -298.104653 
L 197.333617 -302.956983 
L 198.638792 -307.809312 
L 200.070475 -312.661642 
L 201.65883 -317.513971 
L 203.346625 -322.366301 
L 205.077427 -327.21863 
L 206.853569 -332.07096 
L 208.668189 -336.923289 
L 210.420913 -341.775619 
L 211.971862 -346.627948 
L 213.27934 -351.480278 
L 214.423127 -356.332607 
L 215.491539 -361.184937 
L 216.522251 -366.037266 
L 217.56569 -370.889595 
L 218.70694 -375.741925 
L 219.963656 -380.594254 
L 221.216291 -385.446584 
L 222.302136 -390.298913 
L 223.184011 -395.151243 
L 224.008864 -400.003572 
L 224.975995 -404.855902 
L 226.134564 -409.708231 
L 227.327329 -414.560561 
L 228.340925 -419.41289 
L 229.091866 -424.26522 
L 229.666937 -429.117549 
L 230.220773 -433.969879 
L 230.858123 -438.822208 
L 231.587584 -443.674538 
L 232.342529 -448.526867 
L 233.031086 -453.379197 
L 233.583154 -458.231526 
L 233.975504 -463.083856 
L 234.231286 -467.936185 
L 234.400178 -472.788515 
L 234.531963 -477.640844 
L 234.659279 -482.493174 
L 234.795411 -487.345503 
L 234.940514 -492.197833 
L 235.088581 -497.050162 
L 235.231188 -501.902492 
L 235.357472 -506.754821 
L 235.454648 -511.607151 
L 235.513151 -516.45948 
L 235.533936 -521.31181 
L 235.530739 -526.164139 
L 235.523502 -531.016469 
L 235.528227 -535.868798 
L 235.551662 -540.721128 
L 235.591374 -545.573457 
L 235.637229 -550.425787 
L 235.675394 -555.278116 
L 235.696451 -560.130446 
L 235.702101 -564.982775 
L 235.703769 -569.835104 
L 235.713409 -574.687434 
L 235.734103 -579.539763 
L 235.759149 -584.392093 
L 235.779724 -589.244422 
L 235.792011 -594.096752 
L 235.807989 -594.096752 
L 235.807989 -594.096752 
L 235.820276 -589.244422 
L 235.840851 -584.392093 
L 235.865897 -579.539763 
L 235.886591 -574.687434 
L 235.896231 -569.835104 
L 235.897899 -564.982775 
L 235.903549 -560.130446 
L 235.924606 -555.278116 
L 235.962771 -550.425787 
L 236.008626 -545.573457 
L 236.048338 -540.721128 
L 236.071773 -535.868798 
L 236.076498 -531.016469 
L 236.069261 -526.164139 
L 236.066064 -521.31181 
L 236.086849 -516.45948 
L 236.145352 -511.607151 
L 236.242528 -506.754821 
L 236.368812 -501.902492 
L 236.511419 -497.050162 
L 236.659486 -492.197833 
L 236.804589 -487.345503 
L 236.940721 -482.493174 
L 237.068037 -477.640844 
L 237.199822 -472.788515 
L 237.368714 -467.936185 
L 237.624496 -463.083856 
L 238.016846 -458.231526 
L 238.568914 -453.379197 
L 239.257471 -448.526867 
L 240.012416 -443.674538 
L 240.741877 -438.822208 
L 241.379227 -433.969879 
L 241.933063 -429.117549 
L 242.508134 -424.26522 
L 243.259075 -419.41289 
L 244.272671 -414.560561 
L 245.465436 -409.708231 
L 246.624005 -404.855902 
L 247.591136 -400.003572 
L 248.415989 -395.151243 
L 249.297864 -390.298913 
L 250.383709 -385.446584 
L 251.636344 -380.594254 
L 252.89306 -375.741925 
L 254.03431 -370.889595 
L 255.077749 -366.037266 
L 256.108461 -361.184937 
L 257.176873 -356.332607 
L 258.32066 -351.480278 
L 259.628138 -346.627948 
L 261.179087 -341.775619 
L 262.931811 -336.923289 
L 264.746431 -332.07096 
L 266.522573 -327.21863 
L 268.253375 -322.366301 
L 269.94117 -317.513971 
L 271.529525 -312.661642 
L 272.961208 -307.809312 
L 274.266383 -302.956983 
L 275.530787 -298.104653 
L 276.772215 -293.252324 
L 277.902844 -288.399994 
L 278.834354 -283.547665 
L 279.567248 -278.695335 
L 280.128022 -273.843006 
L 280.44 -268.990676 
L 280.318308 -264.138347 
L 279.624216 -259.286017 
L 278.392117 -254.433688 
L 276.76675 -249.581358 
L 274.845296 -244.729029 
L 272.631022 -239.876699 
L 270.122428 -235.02437 
L 267.375542 -230.17204 
L 264.450274 -225.319711 
L 261.362042 -220.467381 
L 258.151575 -215.615052 
L 254.950709 -210.762722 
L 251.906267 -205.910393 
L 249.076057 -201.058063 
L 246.452057 -196.205734 
L 244.053857 -191.353404 
L 241.958768 -186.501075 
L 240.247004 -181.648745 
L 238.934903 -176.796416 
L 237.966041 -171.944086 
L 237.258941 -167.091757 
L 236.750832 -162.239427 
L 236.400316 -157.387098 
L 236.171255 -152.534769 
L 236.02813 -147.682439 
L 235.941355 -142.83011 
L 235.889534 -137.97778 
L 235.857643 -133.125451 
L 235.83606 -128.273121 
L 235.820458 -123.420792 
L 235.809905 -118.568462 
L 235.803933 -113.716133 
z
" style="stroke: #3f3f3f; stroke-width: 1.25"/>
    </defs>
    <g clip-path="url(#p97707f1522)">
     <use xlink:href="#m9d09165683" x="0" y="720" style="fill: #3274a1; stroke: #3f3f3f; stroke-width: 1.25"/>
    </g>
   </g>
   <g id="PolyCollection_2">
    <defs>
     <path id="md344e62fec" d="M 347.405302 -125.10909 
L 347.394698 -125.10909 
L 347.384916 -129.931333 
L 347.36391 -134.753576 
L 347.325113 -139.575819 
L 347.260039 -144.398062 
L 347.155 -149.220305 
L 346.98638 -154.042548 
L 346.718893 -158.864791 
L 346.31009 -163.687034 
L 345.720325 -168.509277 
L 344.925915 -173.33152 
L 343.933435 -178.153763 
L 342.783902 -182.976006 
L 341.521312 -187.798249 
L 340.129756 -192.620492 
L 338.5148 -197.442735 
L 336.584137 -202.264978 
L 334.3439 -207.087221 
L 331.888346 -211.909465 
L 329.301578 -216.731708 
L 326.595323 -221.553951 
L 323.75817 -226.376194 
L 320.869917 -231.198437 
L 318.136127 -236.02068 
L 315.762727 -240.842923 
L 313.812769 -245.665166 
L 312.22482 -250.487409 
L 310.926875 -255.309652 
L 309.880869 -260.131895 
L 309.071805 -264.954138 
L 308.515239 -269.776381 
L 308.232129 -274.598624 
L 308.166762 -279.420867 
L 308.168696 -284.24311 
L 308.107221 -289.065353 
L 308.002815 -293.887596 
L 308.027444 -298.709839 
L 308.352458 -303.532082 
L 308.982014 -308.354325 
L 309.760147 -313.176568 
L 310.549291 -317.998811 
L 311.362281 -322.821054 
L 312.309603 -327.643297 
L 313.456612 -332.46554 
L 314.755192 -337.287783 
L 316.092443 -342.110026 
L 317.357249 -346.932269 
L 318.444623 -351.754512 
L 319.274777 -356.576755 
L 319.904293 -361.398999 
L 320.589664 -366.221242 
L 321.64011 -371.043485 
L 323.187331 -375.865728 
L 325.125886 -380.687971 
L 327.241616 -385.510214 
L 329.347005 -390.332457 
L 331.326157 -395.1547 
L 333.137511 -399.976943 
L 334.811212 -404.799186 
L 336.407335 -409.621429 
L 337.94073 -414.443672 
L 339.351022 -419.265915 
L 340.553639 -424.088158 
L 341.517045 -428.910401 
L 342.290268 -433.732644 
L 342.953255 -438.554887 
L 343.546988 -443.37713 
L 344.068548 -448.199373 
L 344.519686 -453.021616 
L 344.92502 -457.843859 
L 345.307172 -462.666102 
L 345.670829 -467.488345 
L 346.007813 -472.310588 
L 346.304066 -477.132831 
L 346.547279 -481.955074 
L 346.73468 -486.777317 
L 346.872091 -491.59956 
L 346.967531 -496.421803 
L 347.030293 -501.244046 
L 347.075093 -506.066289 
L 347.120152 -510.888533 
L 347.175602 -515.710776 
L 347.235237 -520.533019 
L 347.283495 -525.355262 
L 347.310505 -530.177505 
L 347.319666 -534.999748 
L 347.323116 -539.821991 
L 347.331854 -544.644234 
L 347.348633 -549.466477 
L 347.368181 -554.28872 
L 347.383316 -559.110963 
L 347.390266 -563.933206 
L 347.389223 -568.755449 
L 347.382826 -573.577692 
L 347.375529 -578.399935 
L 347.372317 -583.222178 
L 347.375561 -588.044421 
L 347.3832 -592.866664 
L 347.39101 -597.688907 
L 347.396255 -602.51115 
L 347.403745 -602.51115 
L 347.403745 -602.51115 
L 347.40899 -597.688907 
L 347.4168 -592.866664 
L 347.424439 -588.044421 
L 347.427683 -583.222178 
L 347.424471 -578.399935 
L 347.417174 -573.577692 
L 347.410777 -568.755449 
L 347.409734 -563.933206 
L 347.416684 -559.110963 
L 347.431819 -554.28872 
L 347.451367 -549.466477 
L 347.468146 -544.644234 
L 347.476884 -539.821991 
L 347.480334 -534.999748 
L 347.489495 -530.177505 
L 347.516505 -525.355262 
L 347.564763 -520.533019 
L 347.624398 -515.710776 
L 347.679848 -510.888533 
L 347.724907 -506.066289 
L 347.769707 -501.244046 
L 347.832469 -496.421803 
L 347.927909 -491.59956 
L 348.06532 -486.777317 
L 348.252721 -481.955074 
L 348.495934 -477.132831 
L 348.792187 -472.310588 
L 349.129171 -467.488345 
L 349.492828 -462.666102 
L 349.87498 -457.843859 
L 350.280314 -453.021616 
L 350.731452 -448.199373 
L 351.253012 -443.37713 
L 351.846745 -438.554887 
L 352.509732 -433.732644 
L 353.282955 -428.910401 
L 354.246361 -424.088158 
L 355.448978 -419.265915 
L 356.85927 -414.443672 
L 358.392665 -409.621429 
L 359.988788 -404.799186 
L 361.662489 -399.976943 
L 363.473843 -395.1547 
L 365.452995 -390.332457 
L 367.558384 -385.510214 
L 369.674114 -380.687971 
L 371.612669 -375.865728 
L 373.15989 -371.043485 
L 374.210336 -366.221242 
L 374.895707 -361.398999 
L 375.525223 -356.576755 
L 376.355377 -351.754512 
L 377.442751 -346.932269 
L 378.707557 -342.110026 
L 380.044808 -337.287783 
L 381.343388 -332.46554 
L 382.490397 -327.643297 
L 383.437719 -322.821054 
L 384.250709 -317.998811 
L 385.039853 -313.176568 
L 385.817986 -308.354325 
L 386.447542 -303.532082 
L 386.772556 -298.709839 
L 386.797185 -293.887596 
L 386.692779 -289.065353 
L 386.631304 -284.24311 
L 386.633238 -279.420867 
L 386.567871 -274.598624 
L 386.284761 -269.776381 
L 385.728195 -264.954138 
L 384.919131 -260.131895 
L 383.873125 -255.309652 
L 382.57518 -250.487409 
L 380.987231 -245.665166 
L 379.037273 -240.842923 
L 376.663873 -236.02068 
L 373.930083 -231.198437 
L 371.04183 -226.376194 
L 368.204677 -221.553951 
L 365.498422 -216.731708 
L 362.911654 -211.909465 
L 360.4561 -207.087221 
L 358.215863 -202.264978 
L 356.2852 -197.442735 
L 354.670244 -192.620492 
L 353.278688 -187.798249 
L 352.016098 -182.976006 
L 350.866565 -178.153763 
L 349.874085 -173.33152 
L 349.079675 -168.509277 
L 348.48991 -163.687034 
L 348.081107 -158.864791 
L 347.81362 -154.042548 
L 347.645 -149.220305 
L 347.539961 -144.398062 
L 347.474887 -139.575819 
L 347.43609 -134.753576 
L 347.415084 -129.931333 
L 347.405302 -125.10909 
z
" style="stroke: #3f3f3f; stroke-width: 1.25"/>
    </defs>
    <g clip-path="url(#p97707f1522)">
     <use xlink:href="#md344e62fec" x="0" y="720" style="fill: #3274a1; stroke: #3f3f3f; stroke-width: 1.25"/>
    </g>
   </g>
   <g id="PolyCollection_3">
    <defs>
     <path id="mdd264b521c" d="M 459.003624 -104.419268 
L 458.996376 -104.419268 
L 458.991171 -109.49362 
L 458.983346 -114.567973 
L 458.975418 -119.642325 
L 458.970446 -124.716678 
L 458.96699 -129.79103 
L 458.955872 -134.865382 
L 458.922659 -139.939735 
L 458.852533 -145.014087 
L 458.73122 -150.08844 
L 458.541882 -155.162792 
L 458.26385 -160.237144 
L 457.87394 -165.311497 
L 457.344741 -170.385849 
L 456.645016 -175.460202 
L 455.756298 -180.534554 
L 454.690364 -185.608906 
L 453.462776 -190.683259 
L 452.030213 -195.757611 
L 450.281299 -200.831964 
L 448.127639 -205.906316 
L 445.606923 -210.980668 
L 442.886718 -216.055021 
L 440.171036 -221.129373 
L 437.593527 -226.203726 
L 435.174402 -231.278078 
L 432.87639 -236.35243 
L 430.7093 -241.426783 
L 428.760259 -246.501135 
L 427.112305 -251.575488 
L 425.769136 -256.64984 
L 424.68195 -261.724192 
L 423.818182 -266.798545 
L 423.166136 -271.872897 
L 422.676619 -276.94725 
L 422.243458 -282.021602 
L 421.773788 -287.095954 
L 421.257285 -292.170307 
L 420.75273 -297.244659 
L 420.360785 -302.319012 
L 420.234485 -307.393364 
L 420.528047 -312.467716 
L 421.264273 -317.542069 
L 422.292997 -322.616421 
L 423.406817 -327.690773 
L 424.469876 -332.765126 
L 425.464558 -337.839478 
L 426.461159 -342.913831 
L 427.515689 -347.988183 
L 428.57996 -353.062535 
L 429.546654 -358.136888 
L 430.395271 -363.21124 
L 431.276667 -368.285593 
L 432.426269 -373.359945 
L 433.965506 -378.434297 
L 435.794975 -383.50865 
L 437.694433 -388.583002 
L 439.50379 -393.657355 
L 441.204764 -398.731707 
L 442.874298 -403.806059 
L 444.587874 -408.880412 
L 446.351712 -413.954764 
L 448.10603 -419.029117 
L 449.771264 -424.103469 
L 451.270831 -429.177821 
L 452.530885 -434.252174 
L 453.503189 -439.326526 
L 454.19913 -444.400879 
L 454.696704 -449.475231 
L 455.117588 -454.549583 
L 455.573213 -459.623936 
L 456.094403 -464.698288 
L 456.617706 -469.772641 
L 457.063809 -474.846993 
L 457.418262 -479.921345 
L 457.720991 -484.995698 
L 458.001212 -490.07005 
L 458.250616 -495.144403 
L 458.449657 -500.218755 
L 458.593257 -505.293107 
L 458.688323 -510.36746 
L 458.743568 -515.441812 
L 458.768153 -520.516165 
L 458.772225 -525.590517 
L 458.765988 -530.664869 
L 458.761583 -535.739222 
L 458.772755 -540.813574 
L 458.807014 -545.887927 
L 458.858665 -550.962279 
L 458.912419 -556.036631 
L 458.954104 -561.110984 
L 458.977874 -566.185336 
L 458.985598 -571.259689 
L 458.982867 -576.334041 
L 458.976553 -581.408393 
L 458.973183 -586.482746 
L 458.976042 -591.557098 
L 458.983458 -596.631451 
L 458.991187 -601.705803 
L 458.996378 -606.780155 
L 459.003622 -606.780155 
L 459.003622 -606.780155 
L 459.008813 -601.705803 
L 459.016542 -596.631451 
L 459.023958 -591.557098 
L 459.026817 -586.482746 
L 459.023447 -581.408393 
L 459.017133 -576.334041 
L 459.014402 -571.259689 
L 459.022126 -566.185336 
L 459.045896 -561.110984 
L 459.087581 -556.036631 
L 459.141335 -550.962279 
L 459.192986 -545.887927 
L 459.227245 -540.813574 
L 459.238417 -535.739222 
L 459.234012 -530.664869 
L 459.227775 -525.590517 
L 459.231847 -520.516165 
L 459.256432 -515.441812 
L 459.311677 -510.36746 
L 459.406743 -505.293107 
L 459.550343 -500.218755 
L 459.749384 -495.144403 
L 459.998788 -490.07005 
L 460.279009 -484.995698 
L 460.581738 -479.921345 
L 460.936191 -474.846993 
L 461.382294 -469.772641 
L 461.905597 -464.698288 
L 462.426787 -459.623936 
L 462.882412 -454.549583 
L 463.303296 -449.475231 
L 463.80087 -444.400879 
L 464.496811 -439.326526 
L 465.469115 -434.252174 
L 466.729169 -429.177821 
L 468.228736 -424.103469 
L 469.89397 -419.029117 
L 471.648288 -413.954764 
L 473.412126 -408.880412 
L 475.125702 -403.806059 
L 476.795236 -398.731707 
L 478.49621 -393.657355 
L 480.305567 -388.583002 
L 482.205025 -383.50865 
L 484.034494 -378.434297 
L 485.573731 -373.359945 
L 486.723333 -368.285593 
L 487.604729 -363.21124 
L 488.453346 -358.136888 
L 489.42004 -353.062535 
L 490.484311 -347.988183 
L 491.538841 -342.913831 
L 492.535442 -337.839478 
L 493.530124 -332.765126 
L 494.593183 -327.690773 
L 495.707003 -322.616421 
L 496.735727 -317.542069 
L 497.471953 -312.467716 
L 497.765515 -307.393364 
L 497.639215 -302.319012 
L 497.24727 -297.244659 
L 496.742715 -292.170307 
L 496.226212 -287.095954 
L 495.756542 -282.021602 
L 495.323381 -276.94725 
L 494.833864 -271.872897 
L 494.181818 -266.798545 
L 493.31805 -261.724192 
L 492.230864 -256.64984 
L 490.887695 -251.575488 
L 489.239741 -246.501135 
L 487.2907 -241.426783 
L 485.12361 -236.35243 
L 482.825598 -231.278078 
L 480.406473 -226.203726 
L 477.828964 -221.129373 
L 475.113282 -216.055021 
L 472.393077 -210.980668 
L 469.872361 -205.906316 
L 467.718701 -200.831964 
L 465.969787 -195.757611 
L 464.537224 -190.683259 
L 463.309636 -185.608906 
L 462.243702 -180.534554 
L 461.354984 -175.460202 
L 460.655259 -170.385849 
L 460.12606 -165.311497 
L 459.73615 -160.237144 
L 459.458118 -155.162792 
L 459.26878 -150.08844 
L 459.147467 -145.014087 
L 459.077341 -139.939735 
L 459.044128 -134.865382 
L 459.03301 -129.79103 
L 459.029554 -124.716678 
L 459.024582 -119.642325 
L 459.016654 -114.567973 
L 459.008829 -109.49362 
L 459.003624 -104.419268 
z
" style="stroke: #3f3f3f; stroke-width: 1.25"/>
    </defs>
    <g clip-path="url(#p97707f1522)">
     <use xlink:href="#mdd264b521c" x="0" y="720" style="fill: #3274a1; stroke: #3f3f3f; stroke-width: 1.25"/>
    </g>
   </g>
   <g id="PolyCollection_4">
    <defs>
     <path id="m011b7e56c9" d="M 570.603623 -104.4 
L 570.596377 -104.4 
L 570.591146 -109.490909 
L 570.583216 -114.581818 
L 570.574907 -119.672727 
L 570.568728 -124.763636 
L 570.562258 -129.854545 
L 570.545299 -134.945455 
L 570.502724 -140.036364 
L 570.418713 -145.127273 
L 570.278125 -150.218182 
L 570.069279 -155.309091 
L 569.79048 -160.4 
L 569.447873 -165.490909 
L 569.036208 -170.581818 
L 568.524628 -175.672727 
L 567.87449 -180.763636 
L 567.071574 -185.854545 
L 566.124645 -190.945455 
L 565.019556 -196.036364 
L 563.68312 -201.127273 
L 562.019042 -206.218182 
L 559.999093 -211.309091 
L 557.719089 -216.4 
L 555.364585 -221.490909 
L 553.122506 -226.581818 
L 551.111842 -231.672727 
L 549.36864 -236.763636 
L 547.853568 -241.854545 
L 546.450273 -246.945455 
L 544.999598 -252.036364 
L 543.398937 -257.127273 
L 541.680686 -262.218182 
L 539.987551 -267.309091 
L 538.475576 -272.4 
L 537.217387 -277.490909 
L 536.163055 -282.581818 
L 535.197833 -287.672727 
L 534.253705 -292.763636 
L 533.352906 -297.854545 
L 532.546738 -302.945455 
L 531.854653 -308.036364 
L 531.2781 -313.127273 
L 530.849533 -318.218182 
L 530.665192 -323.309091 
L 530.863215 -328.4 
L 531.521513 -333.490909 
L 532.562958 -338.581818 
L 533.788719 -343.672727 
L 535.000012 -348.763636 
L 536.103698 -353.854545 
L 537.164471 -358.945455 
L 538.356924 -364.036364 
L 539.820551 -369.127273 
L 541.557775 -374.218182 
L 543.465946 -379.309091 
L 545.428611 -384.4 
L 547.369877 -389.490909 
L 549.253985 -394.581818 
L 551.060463 -399.672727 
L 552.778685 -404.763636 
L 554.433994 -409.854545 
L 556.098204 -414.945455 
L 557.838939 -420.036364 
L 559.637 -425.127273 
L 561.362227 -430.218182 
L 562.855801 -435.309091 
L 564.038924 -440.4 
L 564.931706 -445.490909 
L 565.597858 -450.581818 
L 566.118648 -455.672727 
L 566.597436 -460.763636 
L 567.115051 -465.854545 
L 567.667274 -470.945455 
L 568.188816 -476.036364 
L 568.63592 -481.127273 
L 569.011191 -486.218182 
L 569.324003 -491.309091 
L 569.569502 -496.4 
L 569.747886 -501.490909 
L 569.878037 -506.581818 
L 569.985302 -511.672727 
L 570.085841 -516.763636 
L 570.183432 -521.854545 
L 570.273364 -526.945455 
L 570.347677 -532.036364 
L 570.401118 -537.127273 
L 570.435354 -542.218182 
L 570.458712 -547.309091 
L 570.481595 -552.4 
L 570.509777 -557.490909 
L 570.540462 -562.581818 
L 570.565477 -567.672727 
L 570.578627 -572.763636 
L 570.58012 -577.854545 
L 570.575778 -582.945455 
L 570.573012 -588.036364 
L 570.57599 -593.127273 
L 570.583431 -598.218182 
L 570.591179 -603.309091 
L 570.596381 -608.4 
L 570.603619 -608.4 
L 570.603619 -608.4 
L 570.608821 -603.309091 
L 570.616569 -598.218182 
L 570.62401 -593.127273 
L 570.626988 -588.036364 
L 570.624222 -582.945455 
L 570.61988 -577.854545 
L 570.621373 -572.763636 
L 570.634523 -567.672727 
L 570.659538 -562.581818 
L 570.690223 -557.490909 
L 570.718405 -552.4 
L 570.741288 -547.309091 
L 570.764646 -542.218182 
L 570.798882 -537.127273 
L 570.852323 -532.036364 
L 570.926636 -526.945455 
L 571.016568 -521.854545 
L 571.114159 -516.763636 
L 571.214698 -511.672727 
L 571.321963 -506.581818 
L 571.452114 -501.490909 
L 571.630498 -496.4 
L 571.875997 -491.309091 
L 572.188809 -486.218182 
L 572.56408 -481.127273 
L 573.011184 -476.036364 
L 573.532726 -470.945455 
L 574.084949 -465.854545 
L 574.602564 -460.763636 
L 575.081352 -455.672727 
L 575.602142 -450.581818 
L 576.268294 -445.490909 
L 577.161076 -440.4 
L 578.344199 -435.309091 
L 579.837773 -430.218182 
L 581.563 -425.127273 
L 583.361061 -420.036364 
L 585.101796 -414.945455 
L 586.766006 -409.854545 
L 588.421315 -404.763636 
L 590.139537 -399.672727 
L 591.946015 -394.581818 
L 593.830123 -389.490909 
L 595.771389 -384.4 
L 597.734054 -379.309091 
L 599.642225 -374.218182 
L 601.379449 -369.127273 
L 602.843076 -364.036364 
L 604.035529 -358.945455 
L 605.096302 -353.854545 
L 606.199988 -348.763636 
L 607.411281 -343.672727 
L 608.637042 -338.581818 
L 609.678487 -333.490909 
L 610.336785 -328.4 
L 610.534808 -323.309091 
L 610.350467 -318.218182 
L 609.9219 -313.127273 
L 609.345347 -308.036364 
L 608.653262 -302.945455 
L 607.847094 -297.854545 
L 606.946295 -292.763636 
L 606.002167 -287.672727 
L 605.036945 -282.581818 
L 603.982613 -277.490909 
L 602.724424 -272.4 
L 601.212449 -267.309091 
L 599.519314 -262.218182 
L 597.801063 -257.127273 
L 596.200402 -252.036364 
L 594.749727 -246.945455 
L 593.346432 -241.854545 
L 591.83136 -236.763636 
L 590.088158 -231.672727 
L 588.077494 -226.581818 
L 585.835415 -221.490909 
L 583.480911 -216.4 
L 581.200907 -211.309091 
L 579.180958 -206.218182 
L 577.51688 -201.127273 
L 576.180444 -196.036364 
L 575.075355 -190.945455 
L 574.128426 -185.854545 
L 573.32551 -180.763636 
L 572.675372 -175.672727 
L 572.163792 -170.581818 
L 571.752127 -165.490909 
L 571.40952 -160.4 
L 571.130721 -155.309091 
L 570.921875 -150.218182 
L 570.781287 -145.127273 
L 570.697276 -140.036364 
L 570.654701 -134.945455 
L 570.637742 -129.854545 
L 570.631272 -124.763636 
L 570.625093 -119.672727 
L 570.616784 -114.581818 
L 570.608854 -109.490909 
L 570.603623 -104.4 
z
" style="stroke: #3f3f3f; stroke-width: 1.25"/>
    </defs>
    <g clip-path="url(#p97707f1522)">
     <use xlink:href="#m011b7e56c9" x="0" y="720" style="fill: #3274a1; stroke: #3f3f3f; stroke-width: 1.25"/>
    </g>
   </g>
   <g id="PolyCollection_5">
    <defs>
     <path id="mbb49f0fb71" d="M 682.204266 -129.022112 
L 682.195734 -129.022112 
L 682.188723 -133.861908 
L 682.174792 -138.701705 
L 682.150589 -143.541501 
L 682.11185 -148.381297 
L 682.052474 -153.221094 
L 681.96321 -158.06089 
L 681.828956 -162.900686 
L 681.626964 -167.740482 
L 681.332231 -172.580279 
L 680.927742 -177.420075 
L 680.405699 -182.259871 
L 679.754477 -187.099668 
L 678.940932 -191.939464 
L 677.89752 -196.77926 
L 676.532351 -201.619056 
L 674.787523 -206.458853 
L 672.716386 -211.298649 
L 670.487565 -216.138445 
L 668.284952 -220.978242 
L 666.200596 -225.818038 
L 664.220639 -230.657834 
L 662.284849 -235.497631 
L 660.33768 -240.337427 
L 658.342135 -245.177223 
L 656.286764 -250.017019 
L 654.205408 -254.856816 
L 652.191758 -259.696612 
L 650.386217 -264.536408 
L 648.929252 -269.376205 
L 647.88001 -274.216001 
L 647.137114 -279.055797 
L 646.469217 -283.895593 
L 645.690253 -288.73539 
L 644.806252 -293.575186 
L 643.959123 -298.414982 
L 643.260478 -303.254779 
L 642.736489 -308.094575 
L 642.405275 -312.934371 
L 642.319124 -317.774168 
L 642.512464 -322.613964 
L 642.970345 -327.45376 
L 643.661926 -332.293556 
L 644.554008 -337.133353 
L 645.58952 -341.973149 
L 646.701752 -346.812945 
L 647.858985 -351.652742 
L 649.070295 -356.492538 
L 650.345831 -361.332334 
L 651.666657 -366.172131 
L 652.997702 -371.011927 
L 654.329037 -375.851723 
L 655.705509 -380.691519 
L 657.203609 -385.531316 
L 658.856883 -390.371112 
L 660.607294 -395.210908 
L 662.353735 -400.050705 
L 664.044336 -404.890501 
L 665.701142 -409.730297 
L 667.368799 -414.570093 
L 669.057957 -419.40989 
L 670.714826 -424.249686 
L 672.227442 -429.089482 
L 673.488864 -433.929279 
L 674.477504 -438.769075 
L 675.267706 -443.608871 
L 675.958875 -448.448668 
L 676.608878 -453.288464 
L 677.236926 -458.12826 
L 677.858841 -462.968056 
L 678.487098 -467.807853 
L 679.106328 -472.647649 
L 679.678297 -477.487445 
L 680.171374 -482.327242 
L 680.570811 -487.167038 
L 680.870083 -492.006834 
L 681.073839 -496.84663 
L 681.209748 -501.686427 
L 681.320562 -506.526223 
L 681.43668 -511.366019 
L 681.561978 -516.205816 
L 681.687214 -521.045612 
L 681.807499 -525.885408 
L 681.921907 -530.725205 
L 682.024395 -535.565001 
L 682.104433 -540.404797 
L 682.156237 -545.244593 
L 682.18339 -550.08439 
L 682.19476 -554.924186 
L 682.198307 -559.763982 
L 682.198292 -564.603779 
L 682.195756 -569.443575 
L 682.190385 -574.283371 
L 682.182728 -579.123168 
L 682.175615 -583.962964 
L 682.172953 -588.80276 
L 682.176435 -593.642556 
L 682.183871 -598.482353 
L 682.191328 -603.322149 
L 682.196337 -608.161945 
L 682.203663 -608.161945 
L 682.203663 -608.161945 
L 682.208672 -603.322149 
L 682.216129 -598.482353 
L 682.223565 -593.642556 
L 682.227047 -588.80276 
L 682.224385 -583.962964 
L 682.217272 -579.123168 
L 682.209615 -574.283371 
L 682.204244 -569.443575 
L 682.201708 -564.603779 
L 682.201693 -559.763982 
L 682.20524 -554.924186 
L 682.21661 -550.08439 
L 682.243763 -545.244593 
L 682.295567 -540.404797 
L 682.375605 -535.565001 
L 682.478093 -530.725205 
L 682.592501 -525.885408 
L 682.712786 -521.045612 
L 682.838022 -516.205816 
L 682.96332 -511.366019 
L 683.079438 -506.526223 
L 683.190252 -501.686427 
L 683.326161 -496.84663 
L 683.529917 -492.006834 
L 683.829189 -487.167038 
L 684.228626 -482.327242 
L 684.721703 -477.487445 
L 685.293672 -472.647649 
L 685.912902 -467.807853 
L 686.541159 -462.968056 
L 687.163074 -458.12826 
L 687.791122 -453.288464 
L 688.441125 -448.448668 
L 689.132294 -443.608871 
L 689.922496 -438.769075 
L 690.911136 -433.929279 
L 692.172558 -429.089482 
L 693.685174 -424.249686 
L 695.342043 -419.40989 
L 697.031201 -414.570093 
L 698.698858 -409.730297 
L 700.355664 -404.890501 
L 702.046265 -400.050705 
L 703.792706 -395.210908 
L 705.543117 -390.371112 
L 707.196391 -385.531316 
L 708.694491 -380.691519 
L 710.070963 -375.851723 
L 711.402298 -371.011927 
L 712.733343 -366.172131 
L 714.054169 -361.332334 
L 715.329705 -356.492538 
L 716.541015 -351.652742 
L 717.698248 -346.812945 
L 718.81048 -341.973149 
L 719.845992 -337.133353 
L 720.738074 -332.293556 
L 721.429655 -327.45376 
L 721.887536 -322.613964 
L 722.080876 -317.774168 
L 721.994725 -312.934371 
L 721.663511 -308.094575 
L 721.139522 -303.254779 
L 720.440877 -298.414982 
L 719.593748 -293.575186 
L 718.709747 -288.73539 
L 717.930783 -283.895593 
L 717.262886 -279.055797 
L 716.51999 -274.216001 
L 715.470748 -269.376205 
L 714.013783 -264.536408 
L 712.208242 -259.696612 
L 710.194592 -254.856816 
L 708.113236 -250.017019 
L 706.057865 -245.177223 
L 704.06232 -240.337427 
L 702.115151 -235.497631 
L 700.179361 -230.657834 
L 698.199404 -225.818038 
L 696.115048 -220.978242 
L 693.912435 -216.138445 
L 691.683614 -211.298649 
L 689.612477 -206.458853 
L 687.867649 -201.619056 
L 686.50248 -196.77926 
L 685.459068 -191.939464 
L 684.645523 -187.099668 
L 683.994301 -182.259871 
L 683.472258 -177.420075 
L 683.067769 -172.580279 
L 682.773036 -167.740482 
L 682.571044 -162.900686 
L 682.43679 -158.06089 
L 682.347526 -153.221094 
L 682.28815 -148.381297 
L 682.249411 -143.541501 
L 682.225208 -138.701705 
L 682.211277 -133.861908 
L 682.204266 -129.022112 
z
" style="stroke: #3f3f3f; stroke-width: 1.25"/>
    </defs>
    <g clip-path="url(#p97707f1522)">
     <use xlink:href="#mbb49f0fb71" x="0" y="720" style="fill: #3274a1; stroke: #3f3f3f; stroke-width: 1.25"/>
    </g>
   </g>
   <g id="PolyCollection_6">
    <defs>
     <path id="m836ba46b10" d="M 793.803903 -129.000014 
L 793.796097 -129.000014 
L 793.790198 -133.840257 
L 793.779521 -138.6805 
L 793.762651 -143.520742 
L 793.736427 -148.360985 
L 793.692832 -153.201228 
L 793.617698 -158.041471 
L 793.492111 -162.881713 
L 793.294013 -167.721956 
L 792.999136 -172.562199 
L 792.583396 -177.402441 
L 792.028121 -182.242684 
L 791.324615 -187.082927 
L 790.465309 -191.92317 
L 789.415962 -196.763412 
L 788.103414 -201.603655 
L 786.466226 -206.443898 
L 784.539768 -211.28414 
L 782.471752 -216.124383 
L 780.423761 -220.964626 
L 778.452905 -225.804869 
L 776.496874 -230.645111 
L 774.465024 -235.485354 
L 772.332845 -240.325597 
L 770.168049 -245.165839 
L 768.096492 -250.006082 
L 766.237001 -254.846325 
L 764.641881 -259.686568 
L 763.297851 -264.52681 
L 762.182192 -269.367053 
L 761.281449 -274.207296 
L 760.538564 -279.047538 
L 759.83059 -283.887781 
L 759.047759 -288.728024 
L 758.179712 -293.568267 
L 757.295539 -298.408509 
L 756.45725 -303.248752 
L 755.67953 -308.088995 
L 754.965035 -312.929237 
L 754.363023 -317.76948 
L 753.995601 -322.609723 
L 754.018248 -327.449966 
L 754.519455 -332.290208 
L 755.43633 -337.130451 
L 756.586054 -341.970694 
L 757.794185 -346.810936 
L 758.973205 -351.651179 
L 760.084353 -356.491422 
L 761.092853 -361.331665 
L 762.002803 -366.171907 
L 762.895301 -371.01215 
L 763.900065 -375.852393 
L 765.151351 -380.692635 
L 766.748974 -385.532878 
L 768.682385 -390.373121 
L 770.787392 -395.213364 
L 772.853623 -400.053606 
L 774.790396 -404.893849 
L 776.642196 -409.734092 
L 778.461114 -414.574334 
L 780.222014 -419.414577 
L 781.849261 -424.25482 
L 783.280855 -429.095063 
L 784.508359 -433.935305 
L 785.571238 -438.775548 
L 786.51142 -443.615791 
L 787.339769 -448.456033 
L 788.056039 -453.296276 
L 788.689712 -458.136519 
L 789.302812 -462.976762 
L 789.948767 -467.817004 
L 790.631656 -472.657247 
L 791.302452 -477.49749 
L 791.889324 -482.337732 
L 792.336691 -487.177975 
L 792.631697 -492.018218 
L 792.807965 -496.858461 
L 792.926974 -501.698703 
L 793.045933 -506.538946 
L 793.188202 -511.379189 
L 793.337303 -516.219431 
L 793.461376 -521.059674 
L 793.544713 -525.899917 
L 793.596837 -530.74016 
L 793.637074 -535.580402 
L 793.67591 -540.420645 
L 793.710657 -545.260888 
L 793.734491 -550.10113 
L 793.745952 -554.941373 
L 793.74991 -559.781616 
L 793.752457 -564.621859 
L 793.756575 -569.462101 
L 793.761445 -574.302344 
L 793.76485 -579.142587 
L 793.766604 -583.982829 
L 793.769326 -588.823072 
L 793.775296 -593.663315 
L 793.783602 -598.503558 
L 793.791283 -603.3438 
L 793.796332 -608.184043 
L 793.803668 -608.184043 
L 793.803668 -608.184043 
L 793.808717 -603.3438 
L 793.816398 -598.503558 
L 793.824704 -593.663315 
L 793.830674 -588.823072 
L 793.833396 -583.982829 
L 793.83515 -579.142587 
L 793.838555 -574.302344 
L 793.843425 -569.462101 
L 793.847543 -564.621859 
L 793.85009 -559.781616 
L 793.854048 -554.941373 
L 793.865509 -550.10113 
L 793.889343 -545.260888 
L 793.92409 -540.420645 
L 793.962926 -535.580402 
L 794.003163 -530.74016 
L 794.055287 -525.899917 
L 794.138624 -521.059674 
L 794.262697 -516.219431 
L 794.411798 -511.379189 
L 794.554067 -506.538946 
L 794.673026 -501.698703 
L 794.792035 -496.858461 
L 794.968303 -492.018218 
L 795.263309 -487.177975 
L 795.710676 -482.337732 
L 796.297548 -477.49749 
L 796.968344 -472.657247 
L 797.651233 -467.817004 
L 798.297188 -462.976762 
L 798.910288 -458.136519 
L 799.543961 -453.296276 
L 800.260231 -448.456033 
L 801.08858 -443.615791 
L 802.028762 -438.775548 
L 803.091641 -433.935305 
L 804.319145 -429.095063 
L 805.750739 -424.25482 
L 807.377986 -419.414577 
L 809.138886 -414.574334 
L 810.957804 -409.734092 
L 812.809604 -404.893849 
L 814.746377 -400.053606 
L 816.812608 -395.213364 
L 818.917615 -390.373121 
L 820.851026 -385.532878 
L 822.448649 -380.692635 
L 823.699935 -375.852393 
L 824.704699 -371.01215 
L 825.597197 -366.171907 
L 826.507147 -361.331665 
L 827.515647 -356.491422 
L 828.626795 -351.651179 
L 829.805815 -346.810936 
L 831.013946 -341.970694 
L 832.16367 -337.130451 
L 833.080545 -332.290208 
L 833.581752 -327.449966 
L 833.604399 -322.609723 
L 833.236977 -317.76948 
L 832.634965 -312.929237 
L 831.92047 -308.088995 
L 831.14275 -303.248752 
L 830.304461 -298.408509 
L 829.420288 -293.568267 
L 828.552241 -288.728024 
L 827.76941 -283.887781 
L 827.061436 -279.047538 
L 826.318551 -274.207296 
L 825.417808 -269.367053 
L 824.302149 -264.52681 
L 822.958119 -259.686568 
L 821.362999 -254.846325 
L 819.503508 -250.006082 
L 817.431951 -245.165839 
L 815.267155 -240.325597 
L 813.134976 -235.485354 
L 811.103126 -230.645111 
L 809.147095 -225.804869 
L 807.176239 -220.964626 
L 805.128248 -216.124383 
L 803.060232 -211.28414 
L 801.133774 -206.443898 
L 799.496586 -201.603655 
L 798.184038 -196.763412 
L 797.134691 -191.92317 
L 796.275385 -187.082927 
L 795.571879 -182.242684 
L 795.016604 -177.402441 
L 794.600864 -172.562199 
L 794.305987 -167.721956 
L 794.107889 -162.881713 
L 793.982302 -158.041471 
L 793.907168 -153.201228 
L 793.863573 -148.360985 
L 793.837349 -143.520742 
L 793.820479 -138.6805 
L 793.809802 -133.840257 
L 793.803903 -129.000014 
z
" style="stroke: #3f3f3f; stroke-width: 1.25"/>
    </defs>
    <g clip-path="url(#p97707f1522)">
     <use xlink:href="#m836ba46b10" x="0" y="720" style="fill: #3274a1; stroke: #3f3f3f; stroke-width: 1.25"/>
    </g>
   </g>
   <g id="PolyCollection_7">
    <defs>
     <path id="m8bae5f9848" d="M 905.404062 -119.376628 
L 905.395938 -119.376628 
L 905.389485 -124.311383 
L 905.377881 -129.246138 
L 905.36073 -134.180892 
L 905.337682 -139.115647 
L 905.305818 -144.050402 
L 905.259547 -148.985156 
L 905.194581 -153.919911 
L 905.108891 -158.854666 
L 904.992106 -163.78942 
L 904.811454 -168.724175 
L 904.519141 -173.65893 
L 904.086304 -178.593684 
L 903.523694 -183.528439 
L 902.848926 -188.463194 
L 902.024653 -193.397948 
L 900.943392 -198.332703 
L 899.501598 -203.267458 
L 897.70536 -208.202212 
L 895.686989 -213.136967 
L 893.597226 -218.071722 
L 891.495458 -223.006476 
L 889.358313 -227.941231 
L 887.162913 -232.875985 
L 884.929816 -237.81074 
L 882.706992 -242.745495 
L 880.553713 -247.680249 
L 878.534832 -252.615004 
L 876.688396 -257.549759 
L 874.996253 -262.484513 
L 873.426927 -267.419268 
L 872.007205 -272.354023 
L 870.807338 -277.288777 
L 869.849901 -282.223532 
L 869.072286 -287.158287 
L 868.394214 -292.093041 
L 867.790948 -297.027796 
L 867.273585 -301.962551 
L 866.827698 -306.897305 
L 866.411822 -311.83206 
L 865.996502 -316.766815 
L 865.59451 -321.701569 
L 865.310021 -326.636324 
L 865.360405 -331.571079 
L 865.953393 -336.505833 
L 867.099332 -341.440588 
L 868.584799 -346.375343 
L 870.133827 -351.310097 
L 871.567277 -356.244852 
L 872.845359 -361.179607 
L 874.034266 -366.114361 
L 875.24112 -371.049116 
L 876.537417 -375.983871 
L 877.941262 -380.918625 
L 879.477153 -385.85338 
L 881.198739 -390.788135 
L 883.12318 -395.722889 
L 885.189352 -400.657644 
L 887.295804 -405.592399 
L 889.33949 -410.527153 
L 891.227773 -415.461908 
L 892.905313 -420.396663 
L 894.376554 -425.331417 
L 895.683785 -430.266172 
L 896.864038 -435.200927 
L 897.927246 -440.135681 
L 898.865958 -445.070436 
L 899.679907 -450.005191 
L 900.391396 -454.939945 
L 901.040331 -459.8747 
L 901.665943 -464.809455 
L 902.288955 -469.744209 
L 902.901911 -474.678964 
L 903.468703 -479.613719 
L 903.937317 -484.548473 
L 904.267403 -489.483228 
L 904.457618 -494.417983 
L 904.551604 -499.352737 
L 904.616508 -504.287492 
L 904.706133 -509.222247 
L 904.833071 -514.157001 
L 904.971554 -519.091756 
L 905.086284 -524.026511 
L 905.159522 -528.961265 
L 905.197648 -533.89602 
L 905.220142 -538.830775 
L 905.243763 -543.765529 
L 905.273941 -548.700284 
L 905.307249 -553.635039 
L 905.338212 -558.569793 
L 905.362785 -563.504548 
L 905.378394 -568.439302 
L 905.384047 -573.374057 
L 905.381459 -578.308812 
L 905.375545 -583.243566 
L 905.372454 -588.178321 
L 905.375533 -593.113076 
L 905.383135 -598.04783 
L 905.391006 -602.982585 
L 905.396291 -607.91734 
L 905.403709 -607.91734 
L 905.403709 -607.91734 
L 905.408994 -602.982585 
L 905.416865 -598.04783 
L 905.424467 -593.113076 
L 905.427546 -588.178321 
L 905.424455 -583.243566 
L 905.418541 -578.308812 
L 905.415953 -573.374057 
L 905.421606 -568.439302 
L 905.437215 -563.504548 
L 905.461788 -558.569793 
L 905.492751 -553.635039 
L 905.526059 -548.700284 
L 905.556237 -543.765529 
L 905.579858 -538.830775 
L 905.602352 -533.89602 
L 905.640478 -528.961265 
L 905.713716 -524.026511 
L 905.828446 -519.091756 
L 905.966929 -514.157001 
L 906.093867 -509.222247 
L 906.183492 -504.287492 
L 906.248396 -499.352737 
L 906.342382 -494.417983 
L 906.532597 -489.483228 
L 906.862683 -484.548473 
L 907.331297 -479.613719 
L 907.898089 -474.678964 
L 908.511045 -469.744209 
L 909.134057 -464.809455 
L 909.759669 -459.8747 
L 910.408604 -454.939945 
L 911.120093 -450.005191 
L 911.934042 -445.070436 
L 912.872754 -440.135681 
L 913.935962 -435.200927 
L 915.116215 -430.266172 
L 916.423446 -425.331417 
L 917.894687 -420.396663 
L 919.572227 -415.461908 
L 921.46051 -410.527153 
L 923.504196 -405.592399 
L 925.610648 -400.657644 
L 927.67682 -395.722889 
L 929.601261 -390.788135 
L 931.322847 -385.85338 
L 932.858738 -380.918625 
L 934.262583 -375.983871 
L 935.55888 -371.049116 
L 936.765734 -366.114361 
L 937.954641 -361.179607 
L 939.232723 -356.244852 
L 940.666173 -351.310097 
L 942.215201 -346.375343 
L 943.700668 -341.440588 
L 944.846607 -336.505833 
L 945.439595 -331.571079 
L 945.489979 -326.636324 
L 945.20549 -321.701569 
L 944.803498 -316.766815 
L 944.388178 -311.83206 
L 943.972302 -306.897305 
L 943.526415 -301.962551 
L 943.009052 -297.027796 
L 942.405786 -292.093041 
L 941.727714 -287.158287 
L 940.950099 -282.223532 
L 939.992662 -277.288777 
L 938.792795 -272.354023 
L 937.373073 -267.419268 
L 935.803747 -262.484513 
L 934.111604 -257.549759 
L 932.265168 -252.615004 
L 930.246287 -247.680249 
L 928.093008 -242.745495 
L 925.870184 -237.81074 
L 923.637087 -232.875985 
L 921.441687 -227.941231 
L 919.304542 -223.006476 
L 917.202774 -218.071722 
L 915.113011 -213.136967 
L 913.09464 -208.202212 
L 911.298402 -203.267458 
L 909.856608 -198.332703 
L 908.775347 -193.397948 
L 907.951074 -188.463194 
L 907.276306 -183.528439 
L 906.713696 -178.593684 
L 906.280859 -173.65893 
L 905.988546 -168.724175 
L 905.807894 -163.78942 
L 905.691109 -158.854666 
L 905.605419 -153.919911 
L 905.540453 -148.985156 
L 905.494182 -144.050402 
L 905.462318 -139.115647 
L 905.43927 -134.180892 
L 905.422119 -129.246138 
L 905.410515 -124.311383 
L 905.404062 -119.376628 
z
" style="stroke: #3f3f3f; stroke-width: 1.25"/>
    </defs>
    <g clip-path="url(#p97707f1522)">
     <use xlink:href="#m8bae5f9848" x="0" y="720" style="fill: #3274a1; stroke: #3f3f3f; stroke-width: 1.25"/>
    </g>
   </g>
   <g id="PolyCollection_8">
    <defs>
     <path id="m1049896d06" d="M 1017.004049 -119.384165 
L 1016.995951 -119.384165 
L 1016.989571 -124.318768 
L 1016.978333 -129.25337 
L 1016.962553 -134.187972 
L 1016.943424 -139.122575 
L 1016.920147 -144.057177 
L 1016.888342 -148.99178 
L 1016.842135 -153.926382 
L 1016.775259 -158.860984 
L 1016.673682 -163.795587 
L 1016.505048 -168.730189 
L 1016.224892 -173.664792 
L 1015.803466 -178.599394 
L 1015.241475 -183.533996 
L 1014.548591 -188.468599 
L 1013.708063 -193.403201 
L 1012.669484 -198.337804 
L 1011.376649 -203.272406 
L 1009.805489 -208.207008 
L 1007.983355 -213.141611 
L 1005.973005 -218.076213 
L 1003.839207 -223.010816 
L 1001.638252 -227.945418 
L 999.426673 -232.88002 
L 997.246815 -237.814623 
L 995.106855 -242.749225 
L 993.017519 -247.683828 
L 991.046062 -252.61843 
L 989.276082 -257.553032 
L 987.703365 -262.487635 
L 986.226502 -267.422237 
L 984.76182 -272.35684 
L 983.329104 -277.291442 
L 982.005492 -282.226044 
L 980.839043 -287.160647 
L 979.85227 -292.095249 
L 979.099447 -297.029852 
L 978.643817 -301.964454 
L 978.448595 -306.899056 
L 978.324609 -311.833659 
L 978.042265 -316.768261 
L 977.54839 -321.702864 
L 977.081694 -326.637466 
L 977.02056 -331.572068 
L 977.575562 -336.506671 
L 978.647957 -341.441273 
L 979.981259 -346.375876 
L 981.379244 -351.310478 
L 982.751866 -356.24508 
L 984.041277 -361.179683 
L 985.206853 -366.114285 
L 986.28393 -371.048888 
L 987.397574 -375.98349 
L 988.692398 -380.918092 
L 990.248558 -385.852695 
L 992.041657 -390.787297 
L 993.963054 -395.7219 
L 995.894455 -400.656502 
L 997.773637 -405.591104 
L 999.590043 -410.525707 
L 1001.350471 -415.460309 
L 1003.072035 -420.394912 
L 1004.77438 -425.329514 
L 1006.441413 -430.264116 
L 1007.996746 -435.198719 
L 1009.340164 -440.133321 
L 1010.419374 -445.067924 
L 1011.267195 -450.002526 
L 1011.973767 -454.937128 
L 1012.629504 -459.871731 
L 1013.285369 -464.806333 
L 1013.943436 -469.740936 
L 1014.570165 -474.675538 
L 1015.121247 -479.61014 
L 1015.562939 -484.544743 
L 1015.878942 -489.479345 
L 1016.068655 -494.413948 
L 1016.152747 -499.34855 
L 1016.182773 -504.283152 
L 1016.227241 -509.217755 
L 1016.329841 -514.152357 
L 1016.480927 -519.08696 
L 1016.633589 -524.021562 
L 1016.74505 -528.956164 
L 1016.80498 -533.890767 
L 1016.833112 -538.825369 
L 1016.855605 -543.759972 
L 1016.884485 -548.694574 
L 1016.916671 -553.629176 
L 1016.94535 -558.563779 
L 1016.966956 -563.498381 
L 1016.980233 -568.432984 
L 1016.984665 -573.367586 
L 1016.981623 -578.302188 
L 1016.975577 -583.236791 
L 1016.972448 -588.171393 
L 1016.975517 -593.105996 
L 1016.983123 -598.040598 
L 1016.991 -602.9752 
L 1016.99629 -607.909803 
L 1017.00371 -607.909803 
L 1017.00371 -607.909803 
L 1017.009 -602.9752 
L 1017.016877 -598.040598 
L 1017.024483 -593.105996 
L 1017.027552 -588.171393 
L 1017.024423 -583.236791 
L 1017.018377 -578.302188 
L 1017.015335 -573.367586 
L 1017.019767 -568.432984 
L 1017.033044 -563.498381 
L 1017.05465 -558.563779 
L 1017.083329 -553.629176 
L 1017.115515 -548.694574 
L 1017.144395 -543.759972 
L 1017.166888 -538.825369 
L 1017.19502 -533.890767 
L 1017.25495 -528.956164 
L 1017.366411 -524.021562 
L 1017.519073 -519.08696 
L 1017.670159 -514.152357 
L 1017.772759 -509.217755 
L 1017.817227 -504.283152 
L 1017.847253 -499.34855 
L 1017.931345 -494.413948 
L 1018.121058 -489.479345 
L 1018.437061 -484.544743 
L 1018.878753 -479.61014 
L 1019.429835 -474.675538 
L 1020.056564 -469.740936 
L 1020.714631 -464.806333 
L 1021.370496 -459.871731 
L 1022.026233 -454.937128 
L 1022.732805 -450.002526 
L 1023.580626 -445.067924 
L 1024.659836 -440.133321 
L 1026.003254 -435.198719 
L 1027.558587 -430.264116 
L 1029.22562 -425.329514 
L 1030.927965 -420.394912 
L 1032.649529 -415.460309 
L 1034.409957 -410.525707 
L 1036.226363 -405.591104 
L 1038.105545 -400.656502 
L 1040.036946 -395.7219 
L 1041.958343 -390.787297 
L 1043.751442 -385.852695 
L 1045.307602 -380.918092 
L 1046.602426 -375.98349 
L 1047.71607 -371.048888 
L 1048.793147 -366.114285 
L 1049.958723 -361.179683 
L 1051.248134 -356.24508 
L 1052.620756 -351.310478 
L 1054.018741 -346.375876 
L 1055.352043 -341.441273 
L 1056.424438 -336.506671 
L 1056.97944 -331.572068 
L 1056.918306 -326.637466 
L 1056.45161 -321.702864 
L 1055.957735 -316.768261 
L 1055.675391 -311.833659 
L 1055.551405 -306.899056 
L 1055.356183 -301.964454 
L 1054.900553 -297.029852 
L 1054.14773 -292.095249 
L 1053.160957 -287.160647 
L 1051.994508 -282.226044 
L 1050.670896 -277.291442 
L 1049.23818 -272.35684 
L 1047.773498 -267.422237 
L 1046.296635 -262.487635 
L 1044.723918 -257.553032 
L 1042.953938 -252.61843 
L 1040.982481 -247.683828 
L 1038.893145 -242.749225 
L 1036.753185 -237.814623 
L 1034.573327 -232.88002 
L 1032.361748 -227.945418 
L 1030.160793 -223.010816 
L 1028.026995 -218.076213 
L 1026.016645 -213.141611 
L 1024.194511 -208.207008 
L 1022.623351 -203.272406 
L 1021.330516 -198.337804 
L 1020.291937 -193.403201 
L 1019.451409 -188.468599 
L 1018.758525 -183.533996 
L 1018.196534 -178.599394 
L 1017.775108 -173.664792 
L 1017.494952 -168.730189 
L 1017.326318 -163.795587 
L 1017.224741 -158.860984 
L 1017.157865 -153.926382 
L 1017.111658 -148.99178 
L 1017.079853 -144.057177 
L 1017.056576 -139.122575 
L 1017.037447 -134.187972 
L 1017.021667 -129.25337 
L 1017.010429 -124.318768 
L 1017.004049 -119.384165 
z
" style="stroke: #3f3f3f; stroke-width: 1.25"/>
    </defs>
    <g clip-path="url(#p97707f1522)">
     <use xlink:href="#m1049896d06" x="0" y="720" style="fill: #3274a1; stroke: #3f3f3f; stroke-width: 1.25"/>
    </g>
   </g>
   <g id="PolyCollection_9">
    <defs>
     <path id="mabf753d8b6" d="M 1128.604698 -129.109626 
L 1128.595302 -129.109626 
L 1128.587931 -133.637811 
L 1128.573483 -138.165995 
L 1128.548955 -142.69418 
L 1128.511832 -147.222365 
L 1128.46072 -151.750549 
L 1128.39523 -156.278734 
L 1128.312012 -160.806918 
L 1128.195504 -165.335103 
L 1128.011124 -169.863287 
L 1127.713289 -174.391472 
L 1127.267344 -178.919657 
L 1126.666361 -183.447841 
L 1125.926188 -187.976026 
L 1125.063652 -192.50421 
L 1124.076915 -197.032395 
L 1122.942047 -201.560579 
L 1121.627953 -206.088764 
L 1120.118674 -210.616948 
L 1118.421095 -215.145133 
L 1116.551332 -219.673318 
L 1114.529937 -224.201502 
L 1112.407984 -228.729687 
L 1110.283694 -233.257871 
L 1108.26168 -237.786056 
L 1106.392545 -242.31424 
L 1104.673085 -246.842425 
L 1103.102691 -251.37061 
L 1101.70616 -255.898794 
L 1100.483127 -260.426979 
L 1099.358427 -264.955163 
L 1098.213993 -269.483348 
L 1096.969798 -274.011532 
L 1095.620403 -278.539717 
L 1094.212351 -283.067901 
L 1092.831155 -287.596086 
L 1091.618848 -292.124271 
L 1090.747921 -296.652455 
L 1090.31065 -301.18064 
L 1090.222251 -305.708824 
L 1090.264203 -310.237009 
L 1090.239324 -314.765193 
L 1090.084441 -319.293378 
L 1089.85719 -323.821563 
L 1089.657582 -328.349747 
L 1089.573172 -332.877932 
L 1089.666553 -337.406116 
L 1089.979149 -341.934301 
L 1090.530793 -346.462485 
L 1091.31251 -350.99067 
L 1092.288128 -355.518854 
L 1093.418582 -360.047039 
L 1094.685851 -364.575224 
L 1096.077461 -369.103408 
L 1097.551704 -373.631593 
L 1099.056627 -378.159777 
L 1100.603132 -382.687962 
L 1102.281339 -387.216146 
L 1104.162565 -391.744331 
L 1106.196762 -396.272515 
L 1108.2324 -400.8007 
L 1110.12593 -405.328885 
L 1111.820579 -409.857069 
L 1113.3468 -414.385254 
L 1114.775917 -418.913438 
L 1116.168179 -423.441623 
L 1117.542456 -427.969807 
L 1118.873295 -432.497992 
L 1120.105355 -437.026177 
L 1121.185065 -441.554361 
L 1122.103088 -446.082546 
L 1122.907501 -450.61073 
L 1123.662765 -455.138915 
L 1124.396692 -459.667099 
L 1125.092338 -464.195284 
L 1125.7207 -468.723468 
L 1126.267308 -473.251653 
L 1126.729703 -477.779838 
L 1127.103582 -482.308022 
L 1127.381477 -486.836207 
L 1127.565223 -491.364391 
L 1127.676517 -495.892576 
L 1127.75373 -500.42076 
L 1127.835955 -504.948945 
L 1127.944663 -509.47713 
L 1128.07608 -514.005314 
L 1128.209531 -518.533499 
L 1128.322675 -523.061683 
L 1128.401319 -527.589868 
L 1128.442256 -532.118052 
L 1128.453713 -536.646237 
L 1128.452778 -541.174421 
L 1128.457021 -545.702606 
L 1128.474814 -550.230791 
L 1128.503052 -554.758975 
L 1128.533371 -559.28716 
L 1128.559174 -563.815344 
L 1128.57784 -568.343529 
L 1128.589537 -572.871713 
L 1128.595798 -577.399898 
L 1128.604202 -577.399898 
L 1128.604202 -577.399898 
L 1128.610463 -572.871713 
L 1128.62216 -568.343529 
L 1128.640826 -563.815344 
L 1128.666629 -559.28716 
L 1128.696948 -554.758975 
L 1128.725186 -550.230791 
L 1128.742979 -545.702606 
L 1128.747222 -541.174421 
L 1128.746287 -536.646237 
L 1128.757744 -532.118052 
L 1128.798681 -527.589868 
L 1128.877325 -523.061683 
L 1128.990469 -518.533499 
L 1129.12392 -514.005314 
L 1129.255337 -509.47713 
L 1129.364045 -504.948945 
L 1129.44627 -500.42076 
L 1129.523483 -495.892576 
L 1129.634777 -491.364391 
L 1129.818523 -486.836207 
L 1130.096418 -482.308022 
L 1130.470297 -477.779838 
L 1130.932692 -473.251653 
L 1131.4793 -468.723468 
L 1132.107662 -464.195284 
L 1132.803308 -459.667099 
L 1133.537235 -455.138915 
L 1134.292499 -450.61073 
L 1135.096912 -446.082546 
L 1136.014935 -441.554361 
L 1137.094645 -437.026177 
L 1138.326705 -432.497992 
L 1139.657544 -427.969807 
L 1141.031821 -423.441623 
L 1142.424083 -418.913438 
L 1143.8532 -414.385254 
L 1145.379421 -409.857069 
L 1147.07407 -405.328885 
L 1148.9676 -400.8007 
L 1151.003238 -396.272515 
L 1153.037435 -391.744331 
L 1154.918661 -387.216146 
L 1156.596868 -382.687962 
L 1158.143373 -378.159777 
L 1159.648296 -373.631593 
L 1161.122539 -369.103408 
L 1162.514149 -364.575224 
L 1163.781418 -360.047039 
L 1164.911872 -355.518854 
L 1165.88749 -350.99067 
L 1166.669207 -346.462485 
L 1167.220851 -341.934301 
L 1167.533447 -337.406116 
L 1167.626828 -332.877932 
L 1167.542418 -328.349747 
L 1167.34281 -323.821563 
L 1167.115559 -319.293378 
L 1166.960676 -314.765193 
L 1166.935797 -310.237009 
L 1166.977749 -305.708824 
L 1166.88935 -301.18064 
L 1166.452079 -296.652455 
L 1165.581152 -292.124271 
L 1164.368845 -287.596086 
L 1162.987649 -283.067901 
L 1161.579597 -278.539717 
L 1160.230202 -274.011532 
L 1158.986007 -269.483348 
L 1157.841573 -264.955163 
L 1156.716873 -260.426979 
L 1155.49384 -255.898794 
L 1154.097309 -251.37061 
L 1152.526915 -246.842425 
L 1150.807455 -242.31424 
L 1148.93832 -237.786056 
L 1146.916306 -233.257871 
L 1144.792016 -228.729687 
L 1142.670063 -224.201502 
L 1140.648668 -219.673318 
L 1138.778905 -215.145133 
L 1137.081326 -210.616948 
L 1135.572047 -206.088764 
L 1134.257953 -201.560579 
L 1133.123085 -197.032395 
L 1132.136348 -192.50421 
L 1131.273812 -187.976026 
L 1130.533639 -183.447841 
L 1129.932656 -178.919657 
L 1129.486711 -174.391472 
L 1129.188876 -169.863287 
L 1129.004496 -165.335103 
L 1128.887988 -160.806918 
L 1128.80477 -156.278734 
L 1128.73928 -151.750549 
L 1128.688168 -147.222365 
L 1128.651045 -142.69418 
L 1128.626517 -138.165995 
L 1128.612069 -133.637811 
L 1128.604698 -129.109626 
z
" style="stroke: #3f3f3f; stroke-width: 1.25"/>
    </defs>
    <g clip-path="url(#p97707f1522)">
     <use xlink:href="#mabf753d8b6" x="0" y="720" style="fill: #3274a1; stroke: #3f3f3f; stroke-width: 1.25"/>
    </g>
   </g>
   <g id="PolyCollection_10">
    <defs>
     <path id="m9e95077bcc" d="M 1240.2038 -127.56314 
L 1240.1962 -127.56314 
L 1240.191101 -132.105435 
L 1240.182894 -136.647731 
L 1240.172196 -141.190026 
L 1240.159636 -145.732322 
L 1240.143588 -150.274617 
L 1240.119306 -154.816913 
L 1240.079386 -159.359208 
L 1240.011513 -163.901503 
L 1239.894163 -168.443799 
L 1239.698363 -172.986094 
L 1239.395966 -177.52839 
L 1238.961586 -182.070685 
L 1238.365589 -186.612981 
L 1237.576575 -191.155276 
L 1236.579981 -195.697571 
L 1235.388844 -200.239867 
L 1234.032244 -204.782162 
L 1232.54211 -209.324458 
L 1230.951231 -213.866753 
L 1229.283504 -218.409049 
L 1227.537649 -222.951344 
L 1225.701533 -227.49364 
L 1223.794936 -232.035935 
L 1221.880908 -236.57823 
L 1220.025904 -241.120526 
L 1218.268922 -245.662821 
L 1216.6426 -250.205117 
L 1215.199664 -254.747412 
L 1213.97979 -259.289708 
L 1212.946171 -263.832003 
L 1211.987668 -268.374298 
L 1210.997944 -272.916594 
L 1209.92921 -277.458889 
L 1208.766441 -282.001185 
L 1207.495564 -286.54348 
L 1206.131621 -291.085776 
L 1204.757694 -295.628071 
L 1203.497185 -300.170367 
L 1202.438315 -304.712662 
L 1201.601141 -309.254957 
L 1200.976648 -313.797253 
L 1200.561382 -318.339548 
L 1200.331275 -322.881844 
L 1200.220609 -327.424139 
L 1200.177714 -331.966435 
L 1200.232785 -336.50873 
L 1200.47377 -341.051025 
L 1200.953626 -345.593321 
L 1201.642808 -350.135616 
L 1202.476631 -354.677912 
L 1203.430928 -359.220207 
L 1204.534795 -363.762503 
L 1205.812753 -368.304798 
L 1207.230746 -372.847093 
L 1208.714988 -377.389389 
L 1210.232844 -381.931684 
L 1211.8387 -386.47398 
L 1213.606027 -391.016275 
L 1215.517876 -395.558571 
L 1217.467395 -400.100866 
L 1219.371393 -404.643162 
L 1221.237956 -409.185457 
L 1223.105738 -413.727752 
L 1224.95595 -418.270048 
L 1226.715723 -422.812343 
L 1228.327847 -427.354639 
L 1229.779811 -431.896934 
L 1231.069697 -436.43923 
L 1232.18953 -440.981525 
L 1233.160999 -445.52382 
L 1234.051096 -450.066116 
L 1234.919348 -454.608411 
L 1235.762123 -459.150707 
L 1236.527951 -463.693002 
L 1237.177192 -468.235298 
L 1237.713902 -472.777593 
L 1238.169477 -477.319889 
L 1238.56834 -481.862184 
L 1238.908435 -486.404479 
L 1239.169993 -490.946775 
L 1239.342675 -495.48907 
L 1239.445064 -500.031366 
L 1239.518348 -504.573661 
L 1239.600829 -509.115957 
L 1239.706173 -513.658252 
L 1239.822469 -518.200547 
L 1239.928168 -522.742843 
L 1240.00705 -527.285138 
L 1240.052853 -531.827434 
L 1240.069253 -536.369729 
L 1240.069412 -540.912025 
L 1240.0705 -545.45432 
L 1240.083396 -549.996616 
L 1240.107443 -554.538911 
L 1240.135148 -559.081206 
L 1240.159689 -563.623502 
L 1240.177915 -568.165797 
L 1240.189535 -572.708093 
L 1240.195808 -577.250388 
L 1240.204192 -577.250388 
L 1240.204192 -577.250388 
L 1240.210465 -572.708093 
L 1240.222085 -568.165797 
L 1240.240311 -563.623502 
L 1240.264852 -559.081206 
L 1240.292557 -554.538911 
L 1240.316604 -549.996616 
L 1240.3295 -545.45432 
L 1240.330588 -540.912025 
L 1240.330747 -536.369729 
L 1240.347147 -531.827434 
L 1240.39295 -527.285138 
L 1240.471832 -522.742843 
L 1240.577531 -518.200547 
L 1240.693827 -513.658252 
L 1240.799171 -509.115957 
L 1240.881652 -504.573661 
L 1240.954936 -500.031366 
L 1241.057325 -495.48907 
L 1241.230007 -490.946775 
L 1241.491565 -486.404479 
L 1241.83166 -481.862184 
L 1242.230523 -477.319889 
L 1242.686098 -472.777593 
L 1243.222808 -468.235298 
L 1243.872049 -463.693002 
L 1244.637877 -459.150707 
L 1245.480652 -454.608411 
L 1246.348904 -450.066116 
L 1247.239001 -445.52382 
L 1248.21047 -440.981525 
L 1249.330303 -436.43923 
L 1250.620189 -431.896934 
L 1252.072153 -427.354639 
L 1253.684277 -422.812343 
L 1255.44405 -418.270048 
L 1257.294262 -413.727752 
L 1259.162044 -409.185457 
L 1261.028607 -404.643162 
L 1262.932605 -400.100866 
L 1264.882124 -395.558571 
L 1266.793973 -391.016275 
L 1268.5613 -386.47398 
L 1270.167156 -381.931684 
L 1271.685012 -377.389389 
L 1273.169254 -372.847093 
L 1274.587247 -368.304798 
L 1275.865205 -363.762503 
L 1276.969072 -359.220207 
L 1277.923369 -354.677912 
L 1278.757192 -350.135616 
L 1279.446374 -345.593321 
L 1279.92623 -341.051025 
L 1280.167215 -336.50873 
L 1280.222286 -331.966435 
L 1280.179391 -327.424139 
L 1280.068725 -322.881844 
L 1279.838618 -318.339548 
L 1279.423352 -313.797253 
L 1278.798859 -309.254957 
L 1277.961685 -304.712662 
L 1276.902815 -300.170367 
L 1275.642306 -295.628071 
L 1274.268379 -291.085776 
L 1272.904436 -286.54348 
L 1271.633559 -282.001185 
L 1270.47079 -277.458889 
L 1269.402056 -272.916594 
L 1268.412332 -268.374298 
L 1267.453829 -263.832003 
L 1266.42021 -259.289708 
L 1265.200336 -254.747412 
L 1263.7574 -250.205117 
L 1262.131078 -245.662821 
L 1260.374096 -241.120526 
L 1258.519092 -236.57823 
L 1256.605064 -232.035935 
L 1254.698467 -227.49364 
L 1252.862351 -222.951344 
L 1251.116496 -218.409049 
L 1249.448769 -213.866753 
L 1247.85789 -209.324458 
L 1246.367756 -204.782162 
L 1245.011156 -200.239867 
L 1243.820019 -195.697571 
L 1242.823425 -191.155276 
L 1242.034411 -186.612981 
L 1241.438414 -182.070685 
L 1241.004034 -177.52839 
L 1240.701637 -172.986094 
L 1240.505837 -168.443799 
L 1240.388487 -163.901503 
L 1240.320614 -159.359208 
L 1240.280694 -154.816913 
L 1240.256412 -150.274617 
L 1240.240364 -145.732322 
L 1240.227804 -141.190026 
L 1240.217106 -136.647731 
L 1240.208899 -132.105435 
L 1240.2038 -127.56314 
z
" style="stroke: #3f3f3f; stroke-width: 1.25"/>
    </defs>
    <g clip-path="url(#p97707f1522)">
     <use xlink:href="#m9e95077bcc" x="0" y="720" style="fill: #3274a1; stroke: #3f3f3f; stroke-width: 1.25"/>
    </g>
   </g>
   <g id="matplotlib.axis_1">
    <g id="xtick_1">
     <g id="line2d_1">
      <defs>
       <path id="mc94754db4f" d="M 0 0 
L 0 3.5 
" style="stroke: #000000; stroke-width: 0.8"/>
      </defs>
      <g>
       <use xlink:href="#mc94754db4f" x="235.8" y="640.8" style="stroke: #000000; stroke-width: 0.8"/>
      </g>
     </g>
     <g id="text_1">
      <!-- 0 -->
      <g transform="translate(232.61875 655.398438) scale(0.1 -0.1)">
       <defs>
        <path id="DejaVuSans-30" d="M 2034 4250 
Q 1547 4250 1301 3770 
Q 1056 3291 1056 2328 
Q 1056 1369 1301 889 
Q 1547 409 2034 409 
Q 2525 409 2770 889 
Q 3016 1369 3016 2328 
Q 3016 3291 2770 3770 
Q 2525 4250 2034 4250 
z
M 2034 4750 
Q 2819 4750 3233 4129 
Q 3647 3509 3647 2328 
Q 3647 1150 3233 529 
Q 2819 -91 2034 -91 
Q 1250 -91 836 529 
Q 422 1150 422 2328 
Q 422 3509 836 4129 
Q 1250 4750 2034 4750 
z
" transform="scale(0.015625)"/>
       </defs>
       <use xlink:href="#DejaVuSans-30"/>
      </g>
     </g>
    </g>
    <g id="xtick_2">
     <g id="line2d_2">
      <g>
       <use xlink:href="#mc94754db4f" x="347.4" y="640.8" style="stroke: #000000; stroke-width: 0.8"/>
      </g>
     </g>
     <g id="text_2">
      <!-- 1 -->
      <g transform="translate(344.21875 655.398438) scale(0.1 -0.1)">
       <defs>
        <path id="DejaVuSans-31" d="M 794 531 
L 1825 531 
L 1825 4091 
L 703 3866 
L 703 4441 
L 1819 4666 
L 2450 4666 
L 2450 531 
L 3481 531 
L 3481 0 
L 794 0 
L 794 531 
z
" transform="scale(0.015625)"/>
       </defs>
       <use xlink:href="#DejaVuSans-31"/>
      </g>
     </g>
    </g>
    <g id="xtick_3">
     <g id="line2d_3">
      <g>
       <use xlink:href="#mc94754db4f" x="459" y="640.8" style="stroke: #000000; stroke-width: 0.8"/>
      </g>
     </g>
     <g id="text_3">
      <!-- 2 -->
      <g transform="translate(455.81875 655.398438) scale(0.1 -0.1)">
       <defs>
        <path id="DejaVuSans-32" d="M 1228 531 
L 3431 531 
L 3431 0 
L 469 0 
L 469 531 
Q 828 903 1448 1529 
Q 2069 2156 2228 2338 
Q 2531 2678 2651 2914 
Q 2772 3150 2772 3378 
Q 2772 3750 2511 3984 
Q 2250 4219 1831 4219 
Q 1534 4219 1204 4116 
Q 875 4013 500 3803 
L 500 4441 
Q 881 4594 1212 4672 
Q 1544 4750 1819 4750 
Q 2544 4750 2975 4387 
Q 3406 4025 3406 3419 
Q 3406 3131 3298 2873 
Q 3191 2616 2906 2266 
Q 2828 2175 2409 1742 
Q 1991 1309 1228 531 
z
" transform="scale(0.015625)"/>
       </defs>
       <use xlink:href="#DejaVuSans-32"/>
      </g>
     </g>
    </g>
    <g id="xtick_4">
     <g id="line2d_4">
      <g>
       <use xlink:href="#mc94754db4f" x="570.6" y="640.8" style="stroke: #000000; stroke-width: 0.8"/>
      </g>
     </g>
     <g id="text_4">
      <!-- 3 -->
      <g transform="translate(567.41875 655.398438) scale(0.1 -0.1)">
       <defs>
        <path id="DejaVuSans-33" d="M 2597 2516 
Q 3050 2419 3304 2112 
Q 3559 1806 3559 1356 
Q 3559 666 3084 287 
Q 2609 -91 1734 -91 
Q 1441 -91 1130 -33 
Q 819 25 488 141 
L 488 750 
Q 750 597 1062 519 
Q 1375 441 1716 441 
Q 2309 441 2620 675 
Q 2931 909 2931 1356 
Q 2931 1769 2642 2001 
Q 2353 2234 1838 2234 
L 1294 2234 
L 1294 2753 
L 1863 2753 
Q 2328 2753 2575 2939 
Q 2822 3125 2822 3475 
Q 2822 3834 2567 4026 
Q 2313 4219 1838 4219 
Q 1578 4219 1281 4162 
Q 984 4106 628 3988 
L 628 4550 
Q 988 4650 1302 4700 
Q 1616 4750 1894 4750 
Q 2613 4750 3031 4423 
Q 3450 4097 3450 3541 
Q 3450 3153 3228 2886 
Q 3006 2619 2597 2516 
z
" transform="scale(0.015625)"/>
       </defs>
       <use xlink:href="#DejaVuSans-33"/>
      </g>
     </g>
    </g>
    <g id="xtick_5">
     <g id="line2d_5">
      <g>
       <use xlink:href="#mc94754db4f" x="682.2" y="640.8" style="stroke: #000000; stroke-width: 0.8"/>
      </g>
     </g>
     <g id="text_5">
      <!-- 4 -->
      <g transform="translate(679.01875 655.398438) scale(0.1 -0.1)">
       <defs>
        <path id="DejaVuSans-34" d="M 2419 4116 
L 825 1625 
L 2419 1625 
L 2419 4116 
z
M 2253 4666 
L 3047 4666 
L 3047 1625 
L 3713 1625 
L 3713 1100 
L 3047 1100 
L 3047 0 
L 2419 0 
L 2419 1100 
L 313 1100 
L 313 1709 
L 2253 4666 
z
" transform="scale(0.015625)"/>
       </defs>
       <use xlink:href="#DejaVuSans-34"/>
      </g>
     </g>
    </g>
    <g id="xtick_6">
     <g id="line2d_6">
      <g>
       <use xlink:href="#mc94754db4f" x="793.8" y="640.8" style="stroke: #000000; stroke-width: 0.8"/>
      </g>
     </g>
     <g id="text_6">
      <!-- 5 -->
      <g transform="translate(790.61875 655.398438) scale(0.1 -0.1)">
       <defs>
        <path id="DejaVuSans-35" d="M 691 4666 
L 3169 4666 
L 3169 4134 
L 1269 4134 
L 1269 2991 
Q 1406 3038 1543 3061 
Q 1681 3084 1819 3084 
Q 2600 3084 3056 2656 
Q 3513 2228 3513 1497 
Q 3513 744 3044 326 
Q 2575 -91 1722 -91 
Q 1428 -91 1123 -41 
Q 819 9 494 109 
L 494 744 
Q 775 591 1075 516 
Q 1375 441 1709 441 
Q 2250 441 2565 725 
Q 2881 1009 2881 1497 
Q 2881 1984 2565 2268 
Q 2250 2553 1709 2553 
Q 1456 2553 1204 2497 
Q 953 2441 691 2322 
L 691 4666 
z
" transform="scale(0.015625)"/>
       </defs>
       <use xlink:href="#DejaVuSans-35"/>
      </g>
     </g>
    </g>
    <g id="xtick_7">
     <g id="line2d_7">
      <g>
       <use xlink:href="#mc94754db4f" x="905.4" y="640.8" style="stroke: #000000; stroke-width: 0.8"/>
      </g>
     </g>
     <g id="text_7">
      <!-- 6 -->
      <g transform="translate(902.21875 655.398438) scale(0.1 -0.1)">
       <defs>
        <path id="DejaVuSans-36" d="M 2113 2584 
Q 1688 2584 1439 2293 
Q 1191 2003 1191 1497 
Q 1191 994 1439 701 
Q 1688 409 2113 409 
Q 2538 409 2786 701 
Q 3034 994 3034 1497 
Q 3034 2003 2786 2293 
Q 2538 2584 2113 2584 
z
M 3366 4563 
L 3366 3988 
Q 3128 4100 2886 4159 
Q 2644 4219 2406 4219 
Q 1781 4219 1451 3797 
Q 1122 3375 1075 2522 
Q 1259 2794 1537 2939 
Q 1816 3084 2150 3084 
Q 2853 3084 3261 2657 
Q 3669 2231 3669 1497 
Q 3669 778 3244 343 
Q 2819 -91 2113 -91 
Q 1303 -91 875 529 
Q 447 1150 447 2328 
Q 447 3434 972 4092 
Q 1497 4750 2381 4750 
Q 2619 4750 2861 4703 
Q 3103 4656 3366 4563 
z
" transform="scale(0.015625)"/>
       </defs>
       <use xlink:href="#DejaVuSans-36"/>
      </g>
     </g>
    </g>
    <g id="xtick_8">
     <g id="line2d_8">
      <g>
       <use xlink:href="#mc94754db4f" x="1017" y="640.8" style="stroke: #000000; stroke-width: 0.8"/>
      </g>
     </g>
     <g id="text_8">
      <!-- 7 -->
      <g transform="translate(1013.81875 655.398438) scale(0.1 -0.1)">
       <defs>
        <path id="DejaVuSans-37" d="M 525 4666 
L 3525 4666 
L 3525 4397 
L 1831 0 
L 1172 0 
L 2766 4134 
L 525 4134 
L 525 4666 
z
" transform="scale(0.015625)"/>
       </defs>
       <use xlink:href="#DejaVuSans-37"/>
      </g>
     </g>
    </g>
    <g id="xtick_9">
     <g id="line2d_9">
      <g>
       <use xlink:href="#mc94754db4f" x="1128.6" y="640.8" style="stroke: #000000; stroke-width: 0.8"/>
      </g>
     </g>
     <g id="text_9">
      <!-- 8 -->
      <g transform="translate(1125.41875 655.398438) scale(0.1 -0.1)">
       <defs>
        <path id="DejaVuSans-38" d="M 2034 2216 
Q 1584 2216 1326 1975 
Q 1069 1734 1069 1313 
Q 1069 891 1326 650 
Q 1584 409 2034 409 
Q 2484 409 2743 651 
Q 3003 894 3003 1313 
Q 3003 1734 2745 1975 
Q 2488 2216 2034 2216 
z
M 1403 2484 
Q 997 2584 770 2862 
Q 544 3141 544 3541 
Q 544 4100 942 4425 
Q 1341 4750 2034 4750 
Q 2731 4750 3128 4425 
Q 3525 4100 3525 3541 
Q 3525 3141 3298 2862 
Q 3072 2584 2669 2484 
Q 3125 2378 3379 2068 
Q 3634 1759 3634 1313 
Q 3634 634 3220 271 
Q 2806 -91 2034 -91 
Q 1263 -91 848 271 
Q 434 634 434 1313 
Q 434 1759 690 2068 
Q 947 2378 1403 2484 
z
M 1172 3481 
Q 1172 3119 1398 2916 
Q 1625 2713 2034 2713 
Q 2441 2713 2670 2916 
Q 2900 3119 2900 3481 
Q 2900 3844 2670 4047 
Q 2441 4250 2034 4250 
Q 1625 4250 1398 4047 
Q 1172 3844 1172 3481 
z
" transform="scale(0.015625)"/>
       </defs>
       <use xlink:href="#DejaVuSans-38"/>
      </g>
     </g>
    </g>
    <g id="xtick_10">
     <g id="line2d_10">
      <g>
       <use xlink:href="#mc94754db4f" x="1240.2" y="640.8" style="stroke: #000000; stroke-width: 0.8"/>
      </g>
     </g>
     <g id="text_10">
      <!-- 9 -->
      <g transform="translate(1237.01875 655.398438) scale(0.1 -0.1)">
       <defs>
        <path id="DejaVuSans-39" d="M 703 97 
L 703 672 
Q 941 559 1184 500 
Q 1428 441 1663 441 
Q 2288 441 2617 861 
Q 2947 1281 2994 2138 
Q 2813 1869 2534 1725 
Q 2256 1581 1919 1581 
Q 1219 1581 811 2004 
Q 403 2428 403 3163 
Q 403 3881 828 4315 
Q 1253 4750 1959 4750 
Q 2769 4750 3195 4129 
Q 3622 3509 3622 2328 
Q 3622 1225 3098 567 
Q 2575 -91 1691 -91 
Q 1453 -91 1209 -44 
Q 966 3 703 97 
z
M 1959 2075 
Q 2384 2075 2632 2365 
Q 2881 2656 2881 3163 
Q 2881 3666 2632 3958 
Q 2384 4250 1959 4250 
Q 1534 4250 1286 3958 
Q 1038 3666 1038 3163 
Q 1038 2656 1286 2365 
Q 1534 2075 1959 2075 
z
" transform="scale(0.015625)"/>
       </defs>
       <use xlink:href="#DejaVuSans-39"/>
      </g>
     </g>
    </g>
    <g id="text_11">
     <!-- iteration -->
     <g transform="translate(716.877344 669.076563) scale(0.1 -0.1)">
      <defs>
       <path id="DejaVuSans-69" d="M 603 3500 
L 1178 3500 
L 1178 0 
L 603 0 
L 603 3500 
z
M 603 4863 
L 1178 4863 
L 1178 4134 
L 603 4134 
L 603 4863 
z
" transform="scale(0.015625)"/>
       <path id="DejaVuSans-74" d="M 1172 4494 
L 1172 3500 
L 2356 3500 
L 2356 3053 
L 1172 3053 
L 1172 1153 
Q 1172 725 1289 603 
Q 1406 481 1766 481 
L 2356 481 
L 2356 0 
L 1766 0 
Q 1100 0 847 248 
Q 594 497 594 1153 
L 594 3053 
L 172 3053 
L 172 3500 
L 594 3500 
L 594 4494 
L 1172 4494 
z
" transform="scale(0.015625)"/>
       <path id="DejaVuSans-65" d="M 3597 1894 
L 3597 1613 
L 953 1613 
Q 991 1019 1311 708 
Q 1631 397 2203 397 
Q 2534 397 2845 478 
Q 3156 559 3463 722 
L 3463 178 
Q 3153 47 2828 -22 
Q 2503 -91 2169 -91 
Q 1331 -91 842 396 
Q 353 884 353 1716 
Q 353 2575 817 3079 
Q 1281 3584 2069 3584 
Q 2775 3584 3186 3129 
Q 3597 2675 3597 1894 
z
M 3022 2063 
Q 3016 2534 2758 2815 
Q 2500 3097 2075 3097 
Q 1594 3097 1305 2825 
Q 1016 2553 972 2059 
L 3022 2063 
z
" transform="scale(0.015625)"/>
       <path id="DejaVuSans-72" d="M 2631 2963 
Q 2534 3019 2420 3045 
Q 2306 3072 2169 3072 
Q 1681 3072 1420 2755 
Q 1159 2438 1159 1844 
L 1159 0 
L 581 0 
L 581 3500 
L 1159 3500 
L 1159 2956 
Q 1341 3275 1631 3429 
Q 1922 3584 2338 3584 
Q 2397 3584 2469 3576 
Q 2541 3569 2628 3553 
L 2631 2963 
z
" transform="scale(0.015625)"/>
       <path id="DejaVuSans-61" d="M 2194 1759 
Q 1497 1759 1228 1600 
Q 959 1441 959 1056 
Q 959 750 1161 570 
Q 1363 391 1709 391 
Q 2188 391 2477 730 
Q 2766 1069 2766 1631 
L 2766 1759 
L 2194 1759 
z
M 3341 1997 
L 3341 0 
L 2766 0 
L 2766 531 
Q 2569 213 2275 61 
Q 1981 -91 1556 -91 
Q 1019 -91 701 211 
Q 384 513 384 1019 
Q 384 1609 779 1909 
Q 1175 2209 1959 2209 
L 2766 2209 
L 2766 2266 
Q 2766 2663 2505 2880 
Q 2244 3097 1772 3097 
Q 1472 3097 1187 3025 
Q 903 2953 641 2809 
L 641 3341 
Q 956 3463 1253 3523 
Q 1550 3584 1831 3584 
Q 2591 3584 2966 3190 
Q 3341 2797 3341 1997 
z
" transform="scale(0.015625)"/>
       <path id="DejaVuSans-6f" d="M 1959 3097 
Q 1497 3097 1228 2736 
Q 959 2375 959 1747 
Q 959 1119 1226 758 
Q 1494 397 1959 397 
Q 2419 397 2687 759 
Q 2956 1122 2956 1747 
Q 2956 2369 2687 2733 
Q 2419 3097 1959 3097 
z
M 1959 3584 
Q 2709 3584 3137 3096 
Q 3566 2609 3566 1747 
Q 3566 888 3137 398 
Q 2709 -91 1959 -91 
Q 1206 -91 779 398 
Q 353 888 353 1747 
Q 353 2609 779 3096 
Q 1206 3584 1959 3584 
z
" transform="scale(0.015625)"/>
       <path id="DejaVuSans-6e" d="M 3513 2113 
L 3513 0 
L 2938 0 
L 2938 2094 
Q 2938 2591 2744 2837 
Q 2550 3084 2163 3084 
Q 1697 3084 1428 2787 
Q 1159 2491 1159 1978 
L 1159 0 
L 581 0 
L 581 3500 
L 1159 3500 
L 1159 2956 
Q 1366 3272 1645 3428 
Q 1925 3584 2291 3584 
Q 2894 3584 3203 3211 
Q 3513 2838 3513 2113 
z
" transform="scale(0.015625)"/>
      </defs>
      <use xlink:href="#DejaVuSans-69"/>
      <use xlink:href="#DejaVuSans-74" x="27.783203"/>
      <use xlink:href="#DejaVuSans-65" x="66.992188"/>
      <use xlink:href="#DejaVuSans-72" x="128.515625"/>
      <use xlink:href="#DejaVuSans-61" x="169.628906"/>
      <use xlink:href="#DejaVuSans-74" x="230.908203"/>
      <use xlink:href="#DejaVuSans-69" x="270.117188"/>
      <use xlink:href="#DejaVuSans-6f" x="297.900391"/>
      <use xlink:href="#DejaVuSans-6e" x="359.082031"/>
     </g>
    </g>
   </g>
   <g id="matplotlib.axis_2">
    <g id="ytick_1">
     <g id="line2d_11">
      <defs>
       <path id="mf8419a8f37" d="M 0 0 
L -3.5 0 
" style="stroke: #000000; stroke-width: 0.8"/>
      </defs>
      <g>
       <use xlink:href="#mf8419a8f37" x="180" y="614.704796" style="stroke: #000000; stroke-width: 0.8"/>
      </g>
     </g>
     <g id="text_12">
      <!-- 0.2 -->
      <g transform="translate(148.717187 618.504015) scale(0.1 -0.1)">
       <defs>
        <path id="DejaVuSans-2212" d="M 678 2272 
L 4684 2272 
L 4684 1741 
L 678 1741 
L 678 2272 
z
" transform="scale(0.015625)"/>
        <path id="DejaVuSans-2e" d="M 684 794 
L 1344 794 
L 1344 0 
L 684 0 
L 684 794 
z
" transform="scale(0.015625)"/>
       </defs>
       <use xlink:href="#DejaVuSans-2212"/>
       <use xlink:href="#DejaVuSans-30" x="83.789062"/>
       <use xlink:href="#DejaVuSans-2e" x="147.412109"/>
       <use xlink:href="#DejaVuSans-32" x="179.199219"/>
      </g>
     </g>
    </g>
    <g id="ytick_2">
     <g id="line2d_12">
      <g>
       <use xlink:href="#mf8419a8f37" x="180" y="530.376065" style="stroke: #000000; stroke-width: 0.8"/>
      </g>
     </g>
     <g id="text_13">
      <!-- 0.0 -->
      <g transform="translate(157.096875 534.175284) scale(0.1 -0.1)">
       <use xlink:href="#DejaVuSans-30"/>
       <use xlink:href="#DejaVuSans-2e" x="63.623047"/>
       <use xlink:href="#DejaVuSans-30" x="95.410156"/>
      </g>
     </g>
    </g>
    <g id="ytick_3">
     <g id="line2d_13">
      <g>
       <use xlink:href="#mf8419a8f37" x="180" y="446.047333" style="stroke: #000000; stroke-width: 0.8"/>
      </g>
     </g>
     <g id="text_14">
      <!-- 0.2 -->
      <g transform="translate(157.096875 449.846552) scale(0.1 -0.1)">
       <use xlink:href="#DejaVuSans-30"/>
       <use xlink:href="#DejaVuSans-2e" x="63.623047"/>
       <use xlink:href="#DejaVuSans-32" x="95.410156"/>
      </g>
     </g>
    </g>
    <g id="ytick_4">
     <g id="line2d_14">
      <g>
       <use xlink:href="#mf8419a8f37" x="180" y="361.718602" style="stroke: #000000; stroke-width: 0.8"/>
      </g>
     </g>
     <g id="text_15">
      <!-- 0.4 -->
      <g transform="translate(157.096875 365.517821) scale(0.1 -0.1)">
       <use xlink:href="#DejaVuSans-30"/>
       <use xlink:href="#DejaVuSans-2e" x="63.623047"/>
       <use xlink:href="#DejaVuSans-34" x="95.410156"/>
      </g>
     </g>
    </g>
    <g id="ytick_5">
     <g id="line2d_15">
      <g>
       <use xlink:href="#mf8419a8f37" x="180" y="277.38987" style="stroke: #000000; stroke-width: 0.8"/>
      </g>
     </g>
     <g id="text_16">
      <!-- 0.6 -->
      <g transform="translate(157.096875 281.189089) scale(0.1 -0.1)">
       <use xlink:href="#DejaVuSans-30"/>
       <use xlink:href="#DejaVuSans-2e" x="63.623047"/>
       <use xlink:href="#DejaVuSans-36" x="95.410156"/>
      </g>
     </g>
    </g>
    <g id="ytick_6">
     <g id="line2d_16">
      <g>
       <use xlink:href="#mf8419a8f37" x="180" y="193.061139" style="stroke: #000000; stroke-width: 0.8"/>
      </g>
     </g>
     <g id="text_17">
      <!-- 0.8 -->
      <g transform="translate(157.096875 196.860358) scale(0.1 -0.1)">
       <use xlink:href="#DejaVuSans-30"/>
       <use xlink:href="#DejaVuSans-2e" x="63.623047"/>
       <use xlink:href="#DejaVuSans-38" x="95.410156"/>
      </g>
     </g>
    </g>
    <g id="ytick_7">
     <g id="line2d_17">
      <g>
       <use xlink:href="#mf8419a8f37" x="180" y="108.732407" style="stroke: #000000; stroke-width: 0.8"/>
      </g>
     </g>
     <g id="text_18">
      <!-- 1.0 -->
      <g transform="translate(157.096875 112.531626) scale(0.1 -0.1)">
       <use xlink:href="#DejaVuSans-31"/>
       <use xlink:href="#DejaVuSans-2e" x="63.623047"/>
       <use xlink:href="#DejaVuSans-30" x="95.410156"/>
      </g>
     </g>
    </g>
    <g id="text_19">
     <!-- final cosine similarity -->
     <g transform="translate(142.6375 416.667187) rotate(-90) scale(0.1 -0.1)">
      <defs>
       <path id="DejaVuSans-66" d="M 2375 4863 
L 2375 4384 
L 1825 4384 
Q 1516 4384 1395 4259 
Q 1275 4134 1275 3809 
L 1275 3500 
L 2222 3500 
L 2222 3053 
L 1275 3053 
L 1275 0 
L 697 0 
L 697 3053 
L 147 3053 
L 147 3500 
L 697 3500 
L 697 3744 
Q 697 4328 969 4595 
Q 1241 4863 1831 4863 
L 2375 4863 
z
" transform="scale(0.015625)"/>
       <path id="DejaVuSans-6c" d="M 603 4863 
L 1178 4863 
L 1178 0 
L 603 0 
L 603 4863 
z
" transform="scale(0.015625)"/>
       <path id="DejaVuSans-20" transform="scale(0.015625)"/>
       <path id="DejaVuSans-63" d="M 3122 3366 
L 3122 2828 
Q 2878 2963 2633 3030 
Q 2388 3097 2138 3097 
Q 1578 3097 1268 2742 
Q 959 2388 959 1747 
Q 959 1106 1268 751 
Q 1578 397 2138 397 
Q 2388 397 2633 464 
Q 2878 531 3122 666 
L 3122 134 
Q 2881 22 2623 -34 
Q 2366 -91 2075 -91 
Q 1284 -91 818 406 
Q 353 903 353 1747 
Q 353 2603 823 3093 
Q 1294 3584 2113 3584 
Q 2378 3584 2631 3529 
Q 2884 3475 3122 3366 
z
" transform="scale(0.015625)"/>
       <path id="DejaVuSans-73" d="M 2834 3397 
L 2834 2853 
Q 2591 2978 2328 3040 
Q 2066 3103 1784 3103 
Q 1356 3103 1142 2972 
Q 928 2841 928 2578 
Q 928 2378 1081 2264 
Q 1234 2150 1697 2047 
L 1894 2003 
Q 2506 1872 2764 1633 
Q 3022 1394 3022 966 
Q 3022 478 2636 193 
Q 2250 -91 1575 -91 
Q 1294 -91 989 -36 
Q 684 19 347 128 
L 347 722 
Q 666 556 975 473 
Q 1284 391 1588 391 
Q 1994 391 2212 530 
Q 2431 669 2431 922 
Q 2431 1156 2273 1281 
Q 2116 1406 1581 1522 
L 1381 1569 
Q 847 1681 609 1914 
Q 372 2147 372 2553 
Q 372 3047 722 3315 
Q 1072 3584 1716 3584 
Q 2034 3584 2315 3537 
Q 2597 3491 2834 3397 
z
" transform="scale(0.015625)"/>
       <path id="DejaVuSans-6d" d="M 3328 2828 
Q 3544 3216 3844 3400 
Q 4144 3584 4550 3584 
Q 5097 3584 5394 3201 
Q 5691 2819 5691 2113 
L 5691 0 
L 5113 0 
L 5113 2094 
Q 5113 2597 4934 2840 
Q 4756 3084 4391 3084 
Q 3944 3084 3684 2787 
Q 3425 2491 3425 1978 
L 3425 0 
L 2847 0 
L 2847 2094 
Q 2847 2600 2669 2842 
Q 2491 3084 2119 3084 
Q 1678 3084 1418 2786 
Q 1159 2488 1159 1978 
L 1159 0 
L 581 0 
L 581 3500 
L 1159 3500 
L 1159 2956 
Q 1356 3278 1631 3431 
Q 1906 3584 2284 3584 
Q 2666 3584 2933 3390 
Q 3200 3197 3328 2828 
z
" transform="scale(0.015625)"/>
       <path id="DejaVuSans-79" d="M 2059 -325 
Q 1816 -950 1584 -1140 
Q 1353 -1331 966 -1331 
L 506 -1331 
L 506 -850 
L 844 -850 
Q 1081 -850 1212 -737 
Q 1344 -625 1503 -206 
L 1606 56 
L 191 3500 
L 800 3500 
L 1894 763 
L 2988 3500 
L 3597 3500 
L 2059 -325 
z
" transform="scale(0.015625)"/>
      </defs>
      <use xlink:href="#DejaVuSans-66"/>
      <use xlink:href="#DejaVuSans-69" x="35.205078"/>
      <use xlink:href="#DejaVuSans-6e" x="62.988281"/>
      <use xlink:href="#DejaVuSans-61" x="126.367188"/>
      <use xlink:href="#DejaVuSans-6c" x="187.646484"/>
      <use xlink:href="#DejaVuSans-20" x="215.429688"/>
      <use xlink:href="#DejaVuSans-63" x="247.216797"/>
      <use xlink:href="#DejaVuSans-6f" x="302.197266"/>
      <use xlink:href="#DejaVuSans-73" x="363.378906"/>
      <use xlink:href="#DejaVuSans-69" x="415.478516"/>
      <use xlink:href="#DejaVuSans-6e" x="443.261719"/>
      <use xlink:href="#DejaVuSans-65" x="506.640625"/>
      <use xlink:href="#DejaVuSans-20" x="568.164062"/>
      <use xlink:href="#DejaVuSans-73" x="599.951172"/>
      <use xlink:href="#DejaVuSans-69" x="652.050781"/>
      <use xlink:href="#DejaVuSans-6d" x="679.833984"/>
      <use xlink:href="#DejaVuSans-69" x="777.246094"/>
      <use xlink:href="#DejaVuSans-6c" x="805.029297"/>
      <use xlink:href="#DejaVuSans-61" x="832.8125"/>
      <use xlink:href="#DejaVuSans-72" x="894.091797"/>
      <use xlink:href="#DejaVuSans-69" x="935.205078"/>
      <use xlink:href="#DejaVuSans-74" x="962.988281"/>
      <use xlink:href="#DejaVuSans-79" x="1002.197266"/>
     </g>
    </g>
   </g>
   <g id="line2d_18">
    <path d="M 235.8 586.719983 
L 235.8 259.415837 
" clip-path="url(#p97707f1522)" style="fill: none; stroke: #3f3f3f; stroke-width: 1.875; stroke-linecap: square"/>
   </g>
   <g id="line2d_19">
    <path d="M 235.8 468.426613 
L 235.8 384.753478 
" clip-path="url(#p97707f1522)" style="fill: none; stroke: #3f3f3f; stroke-width: 5.625; stroke-linecap: square"/>
   </g>
   <g id="line2d_20">
    <path d="M 235.8 430.891606 
" clip-path="url(#p97707f1522)" style="fill: none; stroke: #3f3f3f; stroke-width: 1.5; stroke-linecap: square"/>
    <defs>
     <path id="md9df6d6f1a" d="M 2.34375 0 
L -2.34375 -0 
" style="stroke: #ffffff; stroke-width: 1.125"/>
    </defs>
    <g clip-path="url(#p97707f1522)">
     <use xlink:href="#md9df6d6f1a" x="235.8" y="430.891606" style="fill: #ffffff; stroke: #ffffff; stroke-width: 1.125"/>
    </g>
   </g>
   <g id="line2d_21">
    <path d="M 347.4 575.621542 
L 347.4 238.405778 
" clip-path="url(#p97707f1522)" style="fill: none; stroke: #3f3f3f; stroke-width: 1.875; stroke-linecap: square"/>
   </g>
   <g id="line2d_22">
    <path d="M 347.4 460.597183 
L 347.4 371.709474 
" clip-path="url(#p97707f1522)" style="fill: none; stroke: #3f3f3f; stroke-width: 5.625; stroke-linecap: square"/>
   </g>
   <g id="line2d_23">
    <path d="M 347.4 418.513881 
" clip-path="url(#p97707f1522)" style="fill: none; stroke: #3f3f3f; stroke-width: 1.5; stroke-linecap: square"/>
    <g clip-path="url(#p97707f1522)">
     <use xlink:href="#md9df6d6f1a" x="347.4" y="418.513881" style="fill: #ffffff; stroke: #ffffff; stroke-width: 1.125"/>
    </g>
   </g>
   <g id="line2d_24">
    <path d="M 459 571.275689 
L 459 225.634742 
" clip-path="url(#p97707f1522)" style="fill: none; stroke: #3f3f3f; stroke-width: 1.875; stroke-linecap: square"/>
   </g>
   <g id="line2d_25">
    <path d="M 459 455.348467 
L 459 363.455086 
" clip-path="url(#p97707f1522)" style="fill: none; stroke: #3f3f3f; stroke-width: 5.625; stroke-linecap: square"/>
   </g>
   <g id="line2d_26">
    <path d="M 459 410.846151 
" clip-path="url(#p97707f1522)" style="fill: none; stroke: #3f3f3f; stroke-width: 1.5; stroke-linecap: square"/>
    <g clip-path="url(#p97707f1522)">
     <use xlink:href="#md9df6d6f1a" x="459" y="410.846151" style="fill: #ffffff; stroke: #ffffff; stroke-width: 1.125"/>
    </g>
   </g>
   <g id="line2d_27">
    <path d="M 570.6 572.64433 
L 570.6 223.655201 
" clip-path="url(#p97707f1522)" style="fill: none; stroke: #3f3f3f; stroke-width: 1.875; stroke-linecap: square"/>
   </g>
   <g id="line2d_28">
    <path d="M 570.6 445.120093 
L 570.6 356.260527 
" clip-path="url(#p97707f1522)" style="fill: none; stroke: #3f3f3f; stroke-width: 5.625; stroke-linecap: square"/>
   </g>
   <g id="line2d_29">
    <path d="M 570.6 400.362603 
" clip-path="url(#p97707f1522)" style="fill: none; stroke: #3f3f3f; stroke-width: 1.5; stroke-linecap: square"/>
    <g clip-path="url(#p97707f1522)">
     <use xlink:href="#md9df6d6f1a" x="570.6" y="400.362603" style="fill: #ffffff; stroke: #ffffff; stroke-width: 1.125"/>
    </g>
   </g>
   <g id="line2d_30">
    <path d="M 682.2 571.275689 
L 682.2 221.373825 
" clip-path="url(#p97707f1522)" style="fill: none; stroke: #3f3f3f; stroke-width: 1.875; stroke-linecap: square"/>
   </g>
   <g id="line2d_31">
    <path d="M 682.2 444.072263 
L 682.2 354.907736 
" clip-path="url(#p97707f1522)" style="fill: none; stroke: #3f3f3f; stroke-width: 5.625; stroke-linecap: square"/>
   </g>
   <g id="line2d_32">
    <path d="M 682.2 400.418678 
" clip-path="url(#p97707f1522)" style="fill: none; stroke: #3f3f3f; stroke-width: 1.5; stroke-linecap: square"/>
    <g clip-path="url(#p97707f1522)">
     <use xlink:href="#md9df6d6f1a" x="682.2" y="400.418678" style="fill: #ffffff; stroke: #ffffff; stroke-width: 1.125"/>
    </g>
   </g>
   <g id="line2d_33">
    <path d="M 793.8 571.275689 
L 793.8 216.815071 
" clip-path="url(#p97707f1522)" style="fill: none; stroke: #3f3f3f; stroke-width: 1.875; stroke-linecap: square"/>
   </g>
   <g id="line2d_34">
    <path d="M 793.8 442.361331 
L 793.8 351.92808 
" clip-path="url(#p97707f1522)" style="fill: none; stroke: #3f3f3f; stroke-width: 5.625; stroke-linecap: square"/>
   </g>
   <g id="line2d_35">
    <path d="M 793.8 397.58381 
" clip-path="url(#p97707f1522)" style="fill: none; stroke: #3f3f3f; stroke-width: 1.5; stroke-linecap: square"/>
    <g clip-path="url(#p97707f1522)">
     <use xlink:href="#md9df6d6f1a" x="793.8" y="397.58381" style="fill: #ffffff; stroke: #ffffff; stroke-width: 1.125"/>
    </g>
   </g>
   <g id="line2d_36">
    <path d="M 905.4 571.480332 
L 905.4 223.28458 
" clip-path="url(#p97707f1522)" style="fill: none; stroke: #3f3f3f; stroke-width: 1.875; stroke-linecap: square"/>
   </g>
   <g id="line2d_37">
    <path d="M 905.4 442.631712 
L 905.4 354.248438 
" clip-path="url(#p97707f1522)" style="fill: none; stroke: #3f3f3f; stroke-width: 5.625; stroke-linecap: square"/>
   </g>
   <g id="line2d_38">
    <path d="M 905.4 398.955246 
" clip-path="url(#p97707f1522)" style="fill: none; stroke: #3f3f3f; stroke-width: 1.5; stroke-linecap: square"/>
    <g clip-path="url(#p97707f1522)">
     <use xlink:href="#md9df6d6f1a" x="905.4" y="398.955246" style="fill: #ffffff; stroke: #ffffff; stroke-width: 1.125"/>
    </g>
   </g>
   <g id="line2d_39">
    <path d="M 1017 571.480332 
L 1017 219.988856 
" clip-path="url(#p97707f1522)" style="fill: none; stroke: #3f3f3f; stroke-width: 1.875; stroke-linecap: square"/>
   </g>
   <g id="line2d_40">
    <path d="M 1017 440.493473 
L 1017 352.268828 
" clip-path="url(#p97707f1522)" style="fill: none; stroke: #3f3f3f; stroke-width: 5.625; stroke-linecap: square"/>
   </g>
   <g id="line2d_41">
    <path d="M 1017 396.713705 
" clip-path="url(#p97707f1522)" style="fill: none; stroke: #3f3f3f; stroke-width: 1.5; stroke-linecap: square"/>
    <g clip-path="url(#p97707f1522)">
     <use xlink:href="#md9df6d6f1a" x="1017" y="396.713705" style="fill: #ffffff; stroke: #ffffff; stroke-width: 1.125"/>
    </g>
   </g>
   <g id="line2d_42">
    <path d="M 1128.6 571.480332 
L 1128.6 221.851257 
" clip-path="url(#p97707f1522)" style="fill: none; stroke: #3f3f3f; stroke-width: 1.875; stroke-linecap: square"/>
   </g>
   <g id="line2d_43">
    <path d="M 1128.6 440.672924 
L 1128.6 353.00344 
" clip-path="url(#p97707f1522)" style="fill: none; stroke: #3f3f3f; stroke-width: 5.625; stroke-linecap: square"/>
   </g>
   <g id="line2d_44">
    <path d="M 1128.6 396.896 
" clip-path="url(#p97707f1522)" style="fill: none; stroke: #3f3f3f; stroke-width: 1.5; stroke-linecap: square"/>
    <g clip-path="url(#p97707f1522)">
     <use xlink:href="#md9df6d6f1a" x="1128.6" y="396.896" style="fill: #ffffff; stroke: #ffffff; stroke-width: 1.125"/>
    </g>
   </g>
   <g id="line2d_45">
    <path d="M 1240.2 556.515436 
L 1240.2 219.860582 
" clip-path="url(#p97707f1522)" style="fill: none; stroke: #3f3f3f; stroke-width: 1.875; stroke-linecap: square"/>
   </g>
   <g id="line2d_46">
    <path d="M 1240.2 436.760762 
L 1240.2 349.838932 
" clip-path="url(#p97707f1522)" style="fill: none; stroke: #3f3f3f; stroke-width: 5.625; stroke-linecap: square"/>
   </g>
   <g id="line2d_47">
    <path d="M 1240.2 392.723033 
" clip-path="url(#p97707f1522)" style="fill: none; stroke: #3f3f3f; stroke-width: 1.5; stroke-linecap: square"/>
    <g clip-path="url(#p97707f1522)">
     <use xlink:href="#md9df6d6f1a" x="1240.2" y="392.723033" style="fill: #ffffff; stroke: #ffffff; stroke-width: 1.125"/>
    </g>
   </g>
   <g id="patch_3">
    <path d="M 180 640.8 
L 180 86.4 
" style="fill: none; stroke: #000000; stroke-width: 0.8; stroke-linejoin: miter; stroke-linecap: square"/>
   </g>
   <g id="patch_4">
    <path d="M 1296 640.8 
L 1296 86.4 
" style="fill: none; stroke: #000000; stroke-width: 0.8; stroke-linejoin: miter; stroke-linecap: square"/>
   </g>
   <g id="patch_5">
    <path d="M 180 640.8 
L 1296 640.8 
" style="fill: none; stroke: #000000; stroke-width: 0.8; stroke-linejoin: miter; stroke-linecap: square"/>
   </g>
   <g id="patch_6">
    <path d="M 180 86.4 
L 1296 86.4 
" style="fill: none; stroke: #000000; stroke-width: 0.8; stroke-linejoin: miter; stroke-linecap: square"/>
   </g>
   <g id="text_20">
    <!-- final cosine similarity of max_fs (betweenFinalsVariety), by iteration -->
    <g transform="translate(534.449062 80.4) scale(0.12 -0.12)">
     <defs>
      <path id="DejaVuSans-78" d="M 3513 3500 
L 2247 1797 
L 3578 0 
L 2900 0 
L 1881 1375 
L 863 0 
L 184 0 
L 1544 1831 
L 300 3500 
L 978 3500 
L 1906 2253 
L 2834 3500 
L 3513 3500 
z
" transform="scale(0.015625)"/>
      <path id="DejaVuSans-5f" d="M 3263 -1063 
L 3263 -1509 
L -63 -1509 
L -63 -1063 
L 3263 -1063 
z
" transform="scale(0.015625)"/>
      <path id="DejaVuSans-28" d="M 1984 4856 
Q 1566 4138 1362 3434 
Q 1159 2731 1159 2009 
Q 1159 1288 1364 580 
Q 1569 -128 1984 -844 
L 1484 -844 
Q 1016 -109 783 600 
Q 550 1309 550 2009 
Q 550 2706 781 3412 
Q 1013 4119 1484 4856 
L 1984 4856 
z
" transform="scale(0.015625)"/>
      <path id="DejaVuSans-62" d="M 3116 1747 
Q 3116 2381 2855 2742 
Q 2594 3103 2138 3103 
Q 1681 3103 1420 2742 
Q 1159 2381 1159 1747 
Q 1159 1113 1420 752 
Q 1681 391 2138 391 
Q 2594 391 2855 752 
Q 3116 1113 3116 1747 
z
M 1159 2969 
Q 1341 3281 1617 3432 
Q 1894 3584 2278 3584 
Q 2916 3584 3314 3078 
Q 3713 2572 3713 1747 
Q 3713 922 3314 415 
Q 2916 -91 2278 -91 
Q 1894 -91 1617 61 
Q 1341 213 1159 525 
L 1159 0 
L 581 0 
L 581 4863 
L 1159 4863 
L 1159 2969 
z
" transform="scale(0.015625)"/>
      <path id="DejaVuSans-77" d="M 269 3500 
L 844 3500 
L 1563 769 
L 2278 3500 
L 2956 3500 
L 3675 769 
L 4391 3500 
L 4966 3500 
L 4050 0 
L 3372 0 
L 2619 2869 
L 1863 0 
L 1184 0 
L 269 3500 
z
" transform="scale(0.015625)"/>
      <path id="DejaVuSans-46" d="M 628 4666 
L 3309 4666 
L 3309 4134 
L 1259 4134 
L 1259 2759 
L 3109 2759 
L 3109 2228 
L 1259 2228 
L 1259 0 
L 628 0 
L 628 4666 
z
" transform="scale(0.015625)"/>
      <path id="DejaVuSans-56" d="M 1831 0 
L 50 4666 
L 709 4666 
L 2188 738 
L 3669 4666 
L 4325 4666 
L 2547 0 
L 1831 0 
z
" transform="scale(0.015625)"/>
      <path id="DejaVuSans-29" d="M 513 4856 
L 1013 4856 
Q 1481 4119 1714 3412 
Q 1947 2706 1947 2009 
Q 1947 1309 1714 600 
Q 1481 -109 1013 -844 
L 513 -844 
Q 928 -128 1133 580 
Q 1338 1288 1338 2009 
Q 1338 2731 1133 3434 
Q 928 4138 513 4856 
z
" transform="scale(0.015625)"/>
      <path id="DejaVuSans-2c" d="M 750 794 
L 1409 794 
L 1409 256 
L 897 -744 
L 494 -744 
L 750 256 
L 750 794 
z
" transform="scale(0.015625)"/>
     </defs>
     <use xlink:href="#DejaVuSans-66"/>
     <use xlink:href="#DejaVuSans-69" x="35.205078"/>
     <use xlink:href="#DejaVuSans-6e" x="62.988281"/>
     <use xlink:href="#DejaVuSans-61" x="126.367188"/>
     <use xlink:href="#DejaVuSans-6c" x="187.646484"/>
     <use xlink:href="#DejaVuSans-20" x="215.429688"/>
     <use xlink:href="#DejaVuSans-63" x="247.216797"/>
     <use xlink:href="#DejaVuSans-6f" x="302.197266"/>
     <use xlink:href="#DejaVuSans-73" x="363.378906"/>
     <use xlink:href="#DejaVuSans-69" x="415.478516"/>
     <use xlink:href="#DejaVuSans-6e" x="443.261719"/>
     <use xlink:href="#DejaVuSans-65" x="506.640625"/>
     <use xlink:href="#DejaVuSans-20" x="568.164062"/>
     <use xlink:href="#DejaVuSans-73" x="599.951172"/>
     <use xlink:href="#DejaVuSans-69" x="652.050781"/>
     <use xlink:href="#DejaVuSans-6d" x="679.833984"/>
     <use xlink:href="#DejaVuSans-69" x="777.246094"/>
     <use xlink:href="#DejaVuSans-6c" x="805.029297"/>
     <use xlink:href="#DejaVuSans-61" x="832.8125"/>
     <use xlink:href="#DejaVuSans-72" x="894.091797"/>
     <use xlink:href="#DejaVuSans-69" x="935.205078"/>
     <use xlink:href="#DejaVuSans-74" x="962.988281"/>
     <use xlink:href="#DejaVuSans-79" x="1002.197266"/>
     <use xlink:href="#DejaVuSans-20" x="1061.376953"/>
     <use xlink:href="#DejaVuSans-6f" x="1093.164062"/>
     <use xlink:href="#DejaVuSans-66" x="1154.345703"/>
     <use xlink:href="#DejaVuSans-20" x="1189.550781"/>
     <use xlink:href="#DejaVuSans-6d" x="1221.337891"/>
     <use xlink:href="#DejaVuSans-61" x="1318.75"/>
     <use xlink:href="#DejaVuSans-78" x="1380.029297"/>
     <use xlink:href="#DejaVuSans-5f" x="1439.208984"/>
     <use xlink:href="#DejaVuSans-66" x="1489.208984"/>
     <use xlink:href="#DejaVuSans-73" x="1524.414062"/>
     <use xlink:href="#DejaVuSans-20" x="1576.513672"/>
     <use xlink:href="#DejaVuSans-28" x="1608.300781"/>
     <use xlink:href="#DejaVuSans-62" x="1647.314453"/>
     <use xlink:href="#DejaVuSans-65" x="1710.791016"/>
     <use xlink:href="#DejaVuSans-74" x="1772.314453"/>
     <use xlink:href="#DejaVuSans-77" x="1811.523438"/>
     <use xlink:href="#DejaVuSans-65" x="1893.310547"/>
     <use xlink:href="#DejaVuSans-65" x="1954.833984"/>
     <use xlink:href="#DejaVuSans-6e" x="2016.357422"/>
     <use xlink:href="#DejaVuSans-46" x="2079.736328"/>
     <use xlink:href="#DejaVuSans-69" x="2130.005859"/>
     <use xlink:href="#DejaVuSans-6e" x="2157.789062"/>
     <use xlink:href="#DejaVuSans-61" x="2221.167969"/>
     <use xlink:href="#DejaVuSans-6c" x="2282.447266"/>
     <use xlink:href="#DejaVuSans-73" x="2310.230469"/>
     <use xlink:href="#DejaVuSans-56" x="2362.330078"/>
     <use xlink:href="#DejaVuSans-61" x="2422.988281"/>
     <use xlink:href="#DejaVuSans-72" x="2484.267578"/>
     <use xlink:href="#DejaVuSans-69" x="2525.380859"/>
     <use xlink:href="#DejaVuSans-65" x="2553.164062"/>
     <use xlink:href="#DejaVuSans-74" x="2614.6875"/>
     <use xlink:href="#DejaVuSans-79" x="2653.896484"/>
     <use xlink:href="#DejaVuSans-29" x="2713.076172"/>
     <use xlink:href="#DejaVuSans-2c" x="2752.089844"/>
     <use xlink:href="#DejaVuSans-20" x="2783.876953"/>
     <use xlink:href="#DejaVuSans-62" x="2815.664062"/>
     <use xlink:href="#DejaVuSans-79" x="2879.140625"/>
     <use xlink:href="#DejaVuSans-20" x="2938.320312"/>
     <use xlink:href="#DejaVuSans-69" x="2970.107422"/>
     <use xlink:href="#DejaVuSans-74" x="2997.890625"/>
     <use xlink:href="#DejaVuSans-65" x="3037.099609"/>
     <use xlink:href="#DejaVuSans-72" x="3098.623047"/>
     <use xlink:href="#DejaVuSans-61" x="3139.736328"/>
     <use xlink:href="#DejaVuSans-74" x="3201.015625"/>
     <use xlink:href="#DejaVuSans-69" x="3240.224609"/>
     <use xlink:href="#DejaVuSans-6f" x="3268.007812"/>
     <use xlink:href="#DejaVuSans-6e" x="3329.189453"/>
    </g>
   </g>
  </g>
 </g>
 <defs>
  <clipPath id="p97707f1522">
   <rect x="180" y="86.4" width="1116" height="554.4"/>
  </clipPath>
 </defs>
</svg>
