<?xml version="1.0" encoding="utf-8" standalone="no"?>
<!DOCTYPE svg PUBLIC "-//W3C//DTD SVG 1.1//EN"
  "http://www.w3.org/Graphics/SVG/1.1/DTD/svg11.dtd">
<svg xmlns:xlink="http://www.w3.org/1999/xlink" width="1440pt" height="720pt" viewBox="0 0 1440 720" xmlns="http://www.w3.org/2000/svg" version="1.1">
 <metadata>
  <rdf:RDF xmlns:dc="http://purl.org/dc/elements/1.1/" xmlns:cc="http://creativecommons.org/ns#" xmlns:rdf="http://www.w3.org/1999/02/22-rdf-syntax-ns#">
   <cc:Work>
    <dc:type rdf:resource="http://purl.org/dc/dcmitype/StillImage"/>
    <dc:date>2024-07-06T19:58:36.643170</dc:date>
    <dc:format>image/svg+xml</dc:format>
    <dc:creator>
     <cc:Agent>
      <dc:title>Matplotlib v3.8.0, https://matplotlib.org/</dc:title>
     </cc:Agent>
    </dc:creator>
   </cc:Work>
  </rdf:RDF>
 </metadata>
 <defs>
  <style type="text/css">*{stroke-linejoin: round; stroke-linecap: butt}</style>
 </defs>
 <g id="figure_1">
  <g id="patch_1">
   <path d="M 0 720 
L 1440 720 
L 1440 0 
L 0 0 
z
" style="fill: #ffffff"/>
  </g>
  <g id="axes_1">
   <g id="patch_2">
    <path d="M 180 640.8 
L 1296 640.8 
L 1296 86.4 
L 180 86.4 
z
" style="fill: #ffffff"/>
   </g>
   <g id="PolyCollection_1">
    <defs>
     <path id="m4214e5d778" d="M 235.849286 -123.046887 
L 235.750714 -123.046887 
L 235.724296 -127.899123 
L 235.689434 -132.751359 
L 235.646364 -137.603594 
L 235.596682 -142.45583 
L 235.543326 -147.308066 
L 235.490053 -152.160301 
L 235.440424 -157.012537 
L 235.396461 -161.864772 
L 235.357338 -166.717008 
L 235.31852 -171.569244 
L 235.271704 -176.421479 
L 235.205668 -181.273715 
L 235.107877 -186.125951 
L 234.96648 -190.978186 
L 234.772232 -195.830422 
L 234.519939 -200.682657 
L 234.209188 -205.534893 
L 233.844254 -210.387129 
L 233.433227 -215.239364 
L 232.986409 -220.0916 
L 232.514096 -224.943836 
L 232.02395 -229.796071 
L 231.518353 -234.648307 
L 230.992376 -239.500542 
L 230.433105 -244.352778 
L 229.821003 -249.205014 
L 229.133503 -254.057249 
L 228.350333 -258.909485 
L 227.459322 -263.76172 
L 226.460978 -268.613956 
L 225.370214 -273.466192 
L 224.214425 -278.318427 
L 223.028248 -283.170663 
L 221.846516 -288.022899 
L 220.697562 -292.875134 
L 219.598844 -297.72737 
L 218.555987 -302.579605 
L 217.565167 -307.431841 
L 216.617684 -312.284077 
L 215.705107 -317.136312 
L 214.823389 -321.988548 
L 213.974827 -326.840784 
L 213.167339 -331.693019 
L 212.411151 -336.545255 
L 211.713532 -341.39749 
L 211.072773 -346.249726 
L 210.47298 -351.101962 
L 209.881366 -355.954197 
L 209.249341 -360.806433 
L 208.517804 -365.658669 
L 207.625996 -370.510904 
L 206.522276 -375.36314 
L 205.174824 -380.215375 
L 203.580386 -385.067611 
L 201.769695 -389.919847 
L 199.808709 -394.772082 
L 197.795164 -399.624318 
L 195.850141 -404.476553 
L 194.104906 -409.328789 
L 192.684155 -414.181025 
L 191.688078 -419.03326 
L 191.176677 -423.885496 
L 191.16 -428.737732 
L 191.596993 -433.589967 
L 192.403735 -438.442203 
L 193.469562 -443.294438 
L 194.677766 -448.146674 
L 195.926718 -452.99891 
L 197.147465 -457.851145 
L 198.314757 -462.703381 
L 199.449722 -467.555617 
L 200.613712 -472.407852 
L 201.894218 -477.260088 
L 203.385127 -482.112323 
L 205.164897 -486.964559 
L 207.277066 -491.816795 
L 209.717355 -496.66903 
L 212.430423 -501.521266 
L 215.317053 -506.373501 
L 218.249964 -511.225737 
L 221.094389 -516.077973 
L 223.728635 -520.930208 
L 226.060371 -525.782444 
L 228.035942 -530.63468 
L 229.642035 -535.486915 
L 230.90069 -540.339151 
L 231.859765 -545.191386 
L 232.581247 -550.043622 
L 233.129723 -554.895858 
L 233.562836 -559.748093 
L 233.924999 -564.600329 
L 234.244883 -569.452565 
L 234.536456 -574.3048 
L 234.802602 -579.157036 
L 235.039942 -584.009271 
L 235.243416 -588.861507 
L 235.409599 -593.713743 
L 235.538301 -598.565978 
L 235.632614 -603.418214 
L 235.967386 -603.418214 
L 235.967386 -603.418214 
L 236.061699 -598.565978 
L 236.190401 -593.713743 
L 236.356584 -588.861507 
L 236.560058 -584.009271 
L 236.797398 -579.157036 
L 237.063544 -574.3048 
L 237.355117 -569.452565 
L 237.675001 -564.600329 
L 238.037164 -559.748093 
L 238.470277 -554.895858 
L 239.018753 -550.043622 
L 239.740235 -545.191386 
L 240.69931 -540.339151 
L 241.957965 -535.486915 
L 243.564058 -530.63468 
L 245.539629 -525.782444 
L 247.871365 -520.930208 
L 250.505611 -516.077973 
L 253.350036 -511.225737 
L 256.282947 -506.373501 
L 259.169577 -501.521266 
L 261.882645 -496.66903 
L 264.322934 -491.816795 
L 266.435103 -486.964559 
L 268.214873 -482.112323 
L 269.705782 -477.260088 
L 270.986288 -472.407852 
L 272.150278 -467.555617 
L 273.285243 -462.703381 
L 274.452535 -457.851145 
L 275.673282 -452.99891 
L 276.922234 -448.146674 
L 278.130438 -443.294438 
L 279.196265 -438.442203 
L 280.003007 -433.589967 
L 280.44 -428.737732 
L 280.423323 -423.885496 
L 279.911922 -419.03326 
L 278.915845 -414.181025 
L 277.495094 -409.328789 
L 275.749859 -404.476553 
L 273.804836 -399.624318 
L 271.791291 -394.772082 
L 269.830305 -389.919847 
L 268.019614 -385.067611 
L 266.425176 -380.215375 
L 265.077724 -375.36314 
L 263.974004 -370.510904 
L 263.082196 -365.658669 
L 262.350659 -360.806433 
L 261.718634 -355.954197 
L 261.12702 -351.101962 
L 260.527227 -346.249726 
L 259.886468 -341.39749 
L 259.188849 -336.545255 
L 258.432661 -331.693019 
L 257.625173 -326.840784 
L 256.776611 -321.988548 
L 255.894893 -317.136312 
L 254.982316 -312.284077 
L 254.034833 -307.431841 
L 253.044013 -302.579605 
L 252.001156 -297.72737 
L 250.902438 -292.875134 
L 249.753484 -288.022899 
L 248.571752 -283.170663 
L 247.385575 -278.318427 
L 246.229786 -273.466192 
L 245.139022 -268.613956 
L 244.140678 -263.76172 
L 243.249667 -258.909485 
L 242.466497 -254.057249 
L 241.778997 -249.205014 
L 241.166895 -244.352778 
L 240.607624 -239.500542 
L 240.081647 -234.648307 
L 239.57605 -229.796071 
L 239.085904 -224.943836 
L 238.613591 -220.0916 
L 238.166773 -215.239364 
L 237.755746 -210.387129 
L 237.390812 -205.534893 
L 237.080061 -200.682657 
L 236.827768 -195.830422 
L 236.63352 -190.978186 
L 236.492123 -186.125951 
L 236.394332 -181.273715 
L 236.328296 -176.421479 
L 236.28148 -171.569244 
L 236.242662 -166.717008 
L 236.203539 -161.864772 
L 236.159576 -157.012537 
L 236.109947 -152.160301 
L 236.056674 -147.308066 
L 236.003318 -142.45583 
L 235.953636 -137.603594 
L 235.910566 -132.751359 
L 235.875704 -127.899123 
L 235.849286 -123.046887 
z
" style="stroke: #3f3f3f; stroke-width: 1.25"/>
    </defs>
    <g clip-path="url(#pbb202f4795)">
     <use xlink:href="#m4214e5d778" x="0" y="720" style="fill: #3274a1; stroke: #3f3f3f; stroke-width: 1.25"/>
    </g>
   </g>
   <g id="PolyCollection_2">
    <defs>
     <path id="m8d7529340a" d="M 347.457218 -128.074631 
L 347.342782 -128.074631 
L 347.311551 -132.915523 
L 347.267913 -137.756415 
L 347.209086 -142.597307 
L 347.132328 -147.438199 
L 347.034986 -152.279091 
L 346.914362 -157.119983 
L 346.767398 -161.960875 
L 346.590172 -166.801767 
L 346.377323 -171.642659 
L 346.121567 -176.483551 
L 345.81347 -181.324443 
L 345.441645 -186.165335 
L 344.993409 -191.006227 
L 344.455849 -195.847119 
L 343.817132 -200.688011 
L 343.067822 -205.528903 
L 342.202016 -210.369795 
L 341.218146 -215.210687 
L 340.119395 -220.051578 
L 338.913765 -224.89247 
L 337.613805 -229.733362 
L 336.236003 -234.574254 
L 334.799783 -239.415146 
L 333.326087 -244.256038 
L 331.835622 -249.09693 
L 330.347099 -253.937822 
L 328.875969 -258.778714 
L 327.434198 -263.619606 
L 326.031393 -268.460498 
L 324.677108 -273.30139 
L 323.383526 -278.142282 
L 322.167286 -282.983174 
L 321.049215 -287.824066 
L 320.051316 -292.664958 
L 319.191376 -297.50585 
L 318.47672 -302.346742 
L 317.899384 -307.187634 
L 317.434928 -312.028526 
L 317.046193 -316.869417 
L 316.69162 -321.710309 
L 316.336066 -326.551201 
L 315.960839 -331.392093 
L 315.569584 -336.232985 
L 315.187742 -341.073877 
L 314.855293 -345.914769 
L 314.614687 -350.755661 
L 314.497475 -355.596553 
L 314.513677 -360.437445 
L 314.647117 -365.278337 
L 314.858143 -370.119229 
L 315.09297 -374.960121 
L 315.297003 -379.801013 
L 315.428512 -384.641905 
L 315.469085 -389.482797 
L 315.428377 -394.323689 
L 315.342254 -399.164581 
L 315.265177 -404.005473 
L 315.258974 -408.846364 
L 315.380805 -413.687256 
L 315.673005 -418.528148 
L 316.156726 -423.36904 
L 316.830174 -428.209932 
L 317.671118 -433.050824 
L 318.642505 -437.891716 
L 319.69968 -442.732608 
L 320.797743 -447.5735 
L 321.897964 -452.414392 
L 322.972603 -457.255284 
L 324.007806 -462.096176 
L 325.004507 -466.937068 
L 325.977313 -471.77796 
L 326.951507 -476.618852 
L 327.958428 -481.459744 
L 329.029742 -486.300636 
L 330.191369 -491.141528 
L 331.458035 -495.98242 
L 332.829449 -500.823311 
L 334.28891 -505.664203 
L 335.804708 -510.505095 
L 337.334129 -515.345987 
L 338.82928 -520.186879 
L 340.243576 -525.027771 
L 341.537616 -529.868663 
L 342.683404 -534.709555 
L 343.666338 -539.550447 
L 344.484929 -544.391339 
L 345.148668 -549.232231 
L 345.674776 -554.073123 
L 346.084594 -558.914015 
L 346.400314 -563.754907 
L 346.642485 -568.595799 
L 346.828504 -573.436691 
L 346.972055 -578.277583 
L 347.083285 -583.118475 
L 347.169451 -587.959367 
L 347.235716 -592.800259 
L 347.285905 -597.64115 
L 347.32306 -602.482042 
L 347.349775 -607.322934 
L 347.450225 -607.322934 
L 347.450225 -607.322934 
L 347.47694 -602.482042 
L 347.514095 -597.64115 
L 347.564284 -592.800259 
L 347.630549 -587.959367 
L 347.716715 -583.118475 
L 347.827945 -578.277583 
L 347.971496 -573.436691 
L 348.157515 -568.595799 
L 348.399686 -563.754907 
L 348.715406 -558.914015 
L 349.125224 -554.073123 
L 349.651332 -549.232231 
L 350.315071 -544.391339 
L 351.133662 -539.550447 
L 352.116596 -534.709555 
L 353.262384 -529.868663 
L 354.556424 -525.027771 
L 355.97072 -520.186879 
L 357.465871 -515.345987 
L 358.995292 -510.505095 
L 360.51109 -505.664203 
L 361.970551 -500.823311 
L 363.341965 -495.98242 
L 364.608631 -491.141528 
L 365.770258 -486.300636 
L 366.841572 -481.459744 
L 367.848493 -476.618852 
L 368.822687 -471.77796 
L 369.795493 -466.937068 
L 370.792194 -462.096176 
L 371.827397 -457.255284 
L 372.902036 -452.414392 
L 374.002257 -447.5735 
L 375.10032 -442.732608 
L 376.157495 -437.891716 
L 377.128882 -433.050824 
L 377.969826 -428.209932 
L 378.643274 -423.36904 
L 379.126995 -418.528148 
L 379.419195 -413.687256 
L 379.541026 -408.846364 
L 379.534823 -404.005473 
L 379.457746 -399.164581 
L 379.371623 -394.323689 
L 379.330915 -389.482797 
L 379.371488 -384.641905 
L 379.502997 -379.801013 
L 379.70703 -374.960121 
L 379.941857 -370.119229 
L 380.152883 -365.278337 
L 380.286323 -360.437445 
L 380.302525 -355.596553 
L 380.185313 -350.755661 
L 379.944707 -345.914769 
L 379.612258 -341.073877 
L 379.230416 -336.232985 
L 378.839161 -331.392093 
L 378.463934 -326.551201 
L 378.10838 -321.710309 
L 377.753807 -316.869417 
L 377.365072 -312.028526 
L 376.900616 -307.187634 
L 376.32328 -302.346742 
L 375.608624 -297.50585 
L 374.748684 -292.664958 
L 373.750785 -287.824066 
L 372.632714 -282.983174 
L 371.416474 -278.142282 
L 370.122892 -273.30139 
L 368.768607 -268.460498 
L 367.365802 -263.619606 
L 365.924031 -258.778714 
L 364.452901 -253.937822 
L 362.964378 -249.09693 
L 361.473913 -244.256038 
L 360.000217 -239.415146 
L 358.563997 -234.574254 
L 357.186195 -229.733362 
L 355.886235 -224.89247 
L 354.680605 -220.051578 
L 353.581854 -215.210687 
L 352.597984 -210.369795 
L 351.732178 -205.528903 
L 350.982868 -200.688011 
L 350.344151 -195.847119 
L 349.806591 -191.006227 
L 349.358355 -186.165335 
L 348.98653 -181.324443 
L 348.678433 -176.483551 
L 348.422677 -171.642659 
L 348.209828 -166.801767 
L 348.032602 -161.960875 
L 347.885638 -157.119983 
L 347.765014 -152.279091 
L 347.667672 -147.438199 
L 347.590914 -142.597307 
L 347.532087 -137.756415 
L 347.488449 -132.915523 
L 347.457218 -128.074631 
z
" style="stroke: #3f3f3f; stroke-width: 1.25"/>
    </defs>
    <g clip-path="url(#pbb202f4795)">
     <use xlink:href="#m8d7529340a" x="0" y="720" style="fill: #3274a1; stroke: #3f3f3f; stroke-width: 1.25"/>
    </g>
   </g>
   <g id="PolyCollection_3">
    <defs>
     <path id="meed080f66f" d="M 459.084479 -126.997566 
L 458.915521 -126.997566 
L 458.866946 -131.860217 
L 458.797189 -136.722868 
L 458.700356 -141.585518 
L 458.570101 -146.448169 
L 458.39977 -151.31082 
L 458.182403 -156.173471 
L 457.910483 -161.036122 
L 457.575464 -165.898773 
L 457.167178 -170.761423 
L 456.673364 -175.624074 
L 456.079647 -180.486725 
L 455.370236 -185.349376 
L 454.529495 -190.212027 
L 453.544261 -195.074678 
L 452.406556 -199.937329 
L 451.116114 -204.799979 
L 449.682146 -209.66263 
L 448.123861 -214.525281 
L 446.469573 -219.387932 
L 444.754505 -224.250583 
L 443.01767 -229.113234 
L 441.298306 -233.975885 
L 439.632366 -238.838535 
L 438.049451 -243.701186 
L 436.570489 -248.563837 
L 435.206455 -253.426488 
L 433.958375 -258.289139 
L 432.818813 -263.15179 
L 431.774875 -268.01444 
L 430.812351 -272.877091 
L 429.920203 -277.739742 
L 429.094235 -282.602393 
L 428.338737 -287.465044 
L 427.66532 -292.327695 
L 427.088997 -297.190346 
L 426.622569 -302.052996 
L 426.271153 -306.915647 
L 426.028845 -311.778298 
L 425.878944 -316.640949 
L 425.797948 -321.5036 
L 425.762192 -326.366251 
L 425.754967 -331.228902 
L 425.7717 -336.091552 
L 425.821395 -340.954203 
L 425.923798 -345.816854 
L 426.10316 -350.679505 
L 426.380597 -355.542156 
L 426.767382 -360.404807 
L 427.261151 -365.267457 
L 427.845918 -370.130108 
L 428.495625 -374.992759 
L 429.179857 -379.85541 
L 429.869884 -384.718061 
L 430.543279 -389.580712 
L 431.186036 -394.443363 
L 431.792071 -399.306013 
L 432.360862 -404.168664 
L 432.894582 -409.031315 
L 433.396082 -413.893966 
L 433.868583 -418.756617 
L 434.317139 -423.619268 
L 434.751062 -428.481919 
L 435.186 -433.344569 
L 435.6444 -438.20722 
L 436.153659 -443.069871 
L 436.742159 -447.932522 
L 437.434232 -452.795173 
L 438.245531 -457.657824 
L 439.18016 -462.520474 
L 440.23034 -467.383125 
L 441.378512 -472.245776 
L 442.601073 -477.108427 
L 443.872562 -481.971078 
L 445.169102 -486.833729 
L 446.470359 -491.69638 
L 447.759796 -496.55903 
L 449.023603 -501.421681 
L 450.249017 -506.284332 
L 451.422843 -511.146983 
L 452.530833 -516.009634 
L 453.558174 -520.872285 
L 454.490944 -525.734936 
L 455.318064 -530.597586 
L 456.033107 -535.460237 
L 456.63544 -540.322888 
L 457.130355 -545.185539 
L 457.528188 -550.04819 
L 457.842686 -554.910841 
L 458.089017 -559.773491 
L 458.281905 -564.636142 
L 458.434198 -569.498793 
L 458.556089 -574.361444 
L 458.654979 -579.224095 
L 458.735829 -584.086746 
L 458.80181 -588.949397 
L 458.854991 -593.812047 
L 458.896928 -598.674698 
L 458.929044 -603.537349 
L 458.952803 -608.4 
L 459.047197 -608.4 
L 459.047197 -608.4 
L 459.070956 -603.537349 
L 459.103072 -598.674698 
L 459.145009 -593.812047 
L 459.19819 -588.949397 
L 459.264171 -584.086746 
L 459.345021 -579.224095 
L 459.443911 -574.361444 
L 459.565802 -569.498793 
L 459.718095 -564.636142 
L 459.910983 -559.773491 
L 460.157314 -554.910841 
L 460.471812 -550.04819 
L 460.869645 -545.185539 
L 461.36456 -540.322888 
L 461.966893 -535.460237 
L 462.681936 -530.597586 
L 463.509056 -525.734936 
L 464.441826 -520.872285 
L 465.469167 -516.009634 
L 466.577157 -511.146983 
L 467.750983 -506.284332 
L 468.976397 -501.421681 
L 470.240204 -496.55903 
L 471.529641 -491.69638 
L 472.830898 -486.833729 
L 474.127438 -481.971078 
L 475.398927 -477.108427 
L 476.621488 -472.245776 
L 477.76966 -467.383125 
L 478.81984 -462.520474 
L 479.754469 -457.657824 
L 480.565768 -452.795173 
L 481.257841 -447.932522 
L 481.846341 -443.069871 
L 482.3556 -438.20722 
L 482.814 -433.344569 
L 483.248938 -428.481919 
L 483.682861 -423.619268 
L 484.131417 -418.756617 
L 484.603918 -413.893966 
L 485.105418 -409.031315 
L 485.639138 -404.168664 
L 486.207929 -399.306013 
L 486.813964 -394.443363 
L 487.456721 -389.580712 
L 488.130116 -384.718061 
L 488.820143 -379.85541 
L 489.504375 -374.992759 
L 490.154082 -370.130108 
L 490.738849 -365.267457 
L 491.232618 -360.404807 
L 491.619403 -355.542156 
L 491.89684 -350.679505 
L 492.076202 -345.816854 
L 492.178605 -340.954203 
L 492.2283 -336.091552 
L 492.245033 -331.228902 
L 492.237808 -326.366251 
L 492.202052 -321.5036 
L 492.121056 -316.640949 
L 491.971155 -311.778298 
L 491.728847 -306.915647 
L 491.377431 -302.052996 
L 490.911003 -297.190346 
L 490.33468 -292.327695 
L 489.661263 -287.465044 
L 488.905765 -282.602393 
L 488.079797 -277.739742 
L 487.187649 -272.877091 
L 486.225125 -268.01444 
L 485.181187 -263.15179 
L 484.041625 -258.289139 
L 482.793545 -253.426488 
L 481.429511 -248.563837 
L 479.950549 -243.701186 
L 478.367634 -238.838535 
L 476.701694 -233.975885 
L 474.98233 -229.113234 
L 473.245495 -224.250583 
L 471.530427 -219.387932 
L 469.876139 -214.525281 
L 468.317854 -209.66263 
L 466.883886 -204.799979 
L 465.593444 -199.937329 
L 464.455739 -195.074678 
L 463.470505 -190.212027 
L 462.629764 -185.349376 
L 461.920353 -180.486725 
L 461.326636 -175.624074 
L 460.832822 -170.761423 
L 460.424536 -165.898773 
L 460.089517 -161.036122 
L 459.817597 -156.173471 
L 459.60023 -151.31082 
L 459.429899 -146.448169 
L 459.299644 -141.585518 
L 459.202811 -136.722868 
L 459.133054 -131.860217 
L 459.084479 -126.997566 
z
" style="stroke: #3f3f3f; stroke-width: 1.25"/>
    </defs>
    <g clip-path="url(#pbb202f4795)">
     <use xlink:href="#meed080f66f" x="0" y="720" style="fill: #3274a1; stroke: #3f3f3f; stroke-width: 1.25"/>
    </g>
   </g>
   <g id="PolyCollection_4">
    <defs>
     <path id="m9fc3bc1f1d" d="M 570.65655 -114.841479 
L 570.54345 -114.841479 
L 570.513015 -119.549686 
L 570.469775 -124.257894 
L 570.409875 -128.966101 
L 570.328728 -133.674309 
L 570.220907 -138.382516 
L 570.079978 -143.090724 
L 569.898303 -147.798931 
L 569.666831 -152.507139 
L 569.374945 -157.215346 
L 569.010443 -161.923554 
L 568.559757 -166.631761 
L 568.008496 -171.339969 
L 567.342397 -176.048176 
L 566.548642 -180.756384 
L 565.617463 -185.464591 
L 564.543766 -190.172799 
L 563.328451 -194.881006 
L 561.979069 -199.589214 
L 560.509551 -204.297421 
L 558.938998 -209.005629 
L 557.289766 -213.713836 
L 555.585354 -218.422044 
L 553.848659 -223.130251 
L 552.101039 -227.838459 
L 550.362306 -232.546666 
L 548.651399 -237.254874 
L 546.987222 -241.963081 
L 545.389084 -246.671288 
L 543.876423 -251.379496 
L 542.467819 -256.087703 
L 541.1797 -260.795911 
L 540.025279 -265.504118 
L 539.014171 -270.212326 
L 538.152763 -274.920533 
L 537.445011 -279.628741 
L 536.893037 -284.336948 
L 536.496904 -289.045156 
L 536.253284 -293.753363 
L 536.153327 -298.461571 
L 536.180572 -303.169778 
L 536.310064 -307.877986 
L 536.509666 -312.586193 
L 536.743962 -317.294401 
L 536.980254 -322.002608 
L 537.195321 -326.710816 
L 537.381074 -331.419023 
L 537.547353 -336.127231 
L 537.720714 -340.835438 
L 537.939123 -345.543646 
L 538.243594 -350.251853 
L 538.668671 -354.960061 
L 539.234022 -359.668268 
L 539.939123 -364.376476 
L 540.762277 -369.084683 
L 541.6641 -373.79289 
L 542.594613 -378.501098 
L 543.502237 -383.209305 
L 544.342739 -387.917513 
L 545.086256 -392.62572 
L 545.721157 -397.333928 
L 546.254255 -402.042135 
L 546.707712 -406.750343 
L 547.113644 -411.45855 
L 547.507784 -416.166758 
L 547.923538 -420.874965 
L 548.387517 -425.583173 
L 548.917061 -430.29138 
L 549.51981 -434.999588 
L 550.194904 -439.707795 
L 550.935214 -444.416003 
L 551.729954 -449.12421 
L 552.567169 -453.832418 
L 553.435739 -458.540625 
L 554.326733 -463.248833 
L 555.234058 -467.95704 
L 556.15443 -472.665248 
L 557.086781 -477.373455 
L 558.031242 -482.081663 
L 558.987907 -486.78987 
L 559.955603 -491.498078 
L 560.930869 -496.206285 
L 561.907342 -500.914493 
L 562.875654 -505.6227 
L 563.823883 -510.330907 
L 564.738487 -515.039115 
L 565.605554 -519.747322 
L 566.412161 -524.45553 
L 567.147582 -529.163737 
L 567.804191 -533.871945 
L 568.377915 -538.580152 
L 568.868257 -543.28836 
L 569.277958 -547.996567 
L 569.612407 -552.704775 
L 569.878933 -557.412982 
L 570.086073 -562.12119 
L 570.242893 -566.829397 
L 570.358395 -571.537605 
L 570.441046 -576.245812 
L 570.49843 -580.95402 
L 570.70157 -580.95402 
L 570.70157 -580.95402 
L 570.758954 -576.245812 
L 570.841605 -571.537605 
L 570.957107 -566.829397 
L 571.113927 -562.12119 
L 571.321067 -557.412982 
L 571.587593 -552.704775 
L 571.922042 -547.996567 
L 572.331743 -543.28836 
L 572.822085 -538.580152 
L 573.395809 -533.871945 
L 574.052418 -529.163737 
L 574.787839 -524.45553 
L 575.594446 -519.747322 
L 576.461513 -515.039115 
L 577.376117 -510.330907 
L 578.324346 -505.6227 
L 579.292658 -500.914493 
L 580.269131 -496.206285 
L 581.244397 -491.498078 
L 582.212093 -486.78987 
L 583.168758 -482.081663 
L 584.113219 -477.373455 
L 585.04557 -472.665248 
L 585.965942 -467.95704 
L 586.873267 -463.248833 
L 587.764261 -458.540625 
L 588.632831 -453.832418 
L 589.470046 -449.12421 
L 590.264786 -444.416003 
L 591.005096 -439.707795 
L 591.68019 -434.999588 
L 592.282939 -430.29138 
L 592.812483 -425.583173 
L 593.276462 -420.874965 
L 593.692216 -416.166758 
L 594.086356 -411.45855 
L 594.492288 -406.750343 
L 594.945745 -402.042135 
L 595.478843 -397.333928 
L 596.113744 -392.62572 
L 596.857261 -387.917513 
L 597.697763 -383.209305 
L 598.605387 -378.501098 
L 599.5359 -373.79289 
L 600.437723 -369.084683 
L 601.260877 -364.376476 
L 601.965978 -359.668268 
L 602.531329 -354.960061 
L 602.956406 -350.251853 
L 603.260877 -345.543646 
L 603.479286 -340.835438 
L 603.652647 -336.127231 
L 603.818926 -331.419023 
L 604.004679 -326.710816 
L 604.219746 -322.002608 
L 604.456038 -317.294401 
L 604.690334 -312.586193 
L 604.889936 -307.877986 
L 605.019428 -303.169778 
L 605.046673 -298.461571 
L 604.946716 -293.753363 
L 604.703096 -289.045156 
L 604.306963 -284.336948 
L 603.754989 -279.628741 
L 603.047237 -274.920533 
L 602.185829 -270.212326 
L 601.174721 -265.504118 
L 600.0203 -260.795911 
L 598.732181 -256.087703 
L 597.323577 -251.379496 
L 595.810916 -246.671288 
L 594.212778 -241.963081 
L 592.548601 -237.254874 
L 590.837694 -232.546666 
L 589.098961 -227.838459 
L 587.351341 -223.130251 
L 585.614646 -218.422044 
L 583.910234 -213.713836 
L 582.261002 -209.005629 
L 580.690449 -204.297421 
L 579.220931 -199.589214 
L 577.871549 -194.881006 
L 576.656234 -190.172799 
L 575.582537 -185.464591 
L 574.651358 -180.756384 
L 573.857603 -176.048176 
L 573.191504 -171.339969 
L 572.640243 -166.631761 
L 572.189557 -161.923554 
L 571.825055 -157.215346 
L 571.533169 -152.507139 
L 571.301697 -147.798931 
L 571.120022 -143.090724 
L 570.979093 -138.382516 
L 570.871272 -133.674309 
L 570.790125 -128.966101 
L 570.730225 -124.257894 
L 570.686985 -119.549686 
L 570.65655 -114.841479 
z
" style="stroke: #3f3f3f; stroke-width: 1.25"/>
    </defs>
    <g clip-path="url(#pbb202f4795)">
     <use xlink:href="#m9fc3bc1f1d" x="0" y="720" style="fill: #3274a1; stroke: #3f3f3f; stroke-width: 1.25"/>
    </g>
   </g>
   <g id="PolyCollection_5">
    <defs>
     <path id="mc755126e36" d="M 682.275257 -115.726349 
L 682.124743 -115.726349 
L 682.083826 -120.41668 
L 682.026149 -125.107012 
L 681.947346 -129.797343 
L 681.842663 -134.487674 
L 681.706963 -139.178006 
L 681.534576 -143.868337 
L 681.318996 -148.558668 
L 681.052411 -153.249 
L 680.725181 -157.939331 
L 680.325395 -162.629662 
L 679.838672 -167.319994 
L 679.24838 -172.010325 
L 678.536374 -176.700656 
L 677.684289 -181.390987 
L 676.675316 -186.081319 
L 675.496306 -190.77165 
L 674.13993 -195.461981 
L 672.60662 -200.152313 
L 670.905941 -204.842644 
L 669.057185 -209.532975 
L 667.08902 -214.223307 
L 665.038235 -218.913638 
L 662.947689 -223.603969 
L 660.863696 -228.294301 
L 658.833027 -232.984632 
L 656.899762 -237.674963 
L 655.102212 -242.365295 
L 653.470238 -247.055626 
L 652.023403 -251.745957 
L 650.770408 -256.436289 
L 649.710141 -261.12662 
L 648.834276 -265.816951 
L 648.130891 -270.507283 
L 647.58812 -275.197614 
L 647.196678 -279.887945 
L 646.950365 -284.578277 
L 646.844247 -289.268608 
L 646.871074 -293.958939 
L 647.017226 -298.64927 
L 647.259832 -303.339602 
L 647.566524 -308.029933 
L 647.898547 -312.720264 
L 648.216921 -317.410596 
L 648.490285 -322.100927 
L 648.702379 -326.791258 
L 648.856986 -331.48159 
L 648.978722 -336.171921 
L 649.109117 -340.862252 
L 649.29866 -345.552584 
L 649.596576 -350.242915 
L 650.040683 -354.933246 
L 650.64961 -359.623578 
L 651.419022 -364.313909 
L 652.322499 -369.00424 
L 653.316613 -373.694572 
L 654.348912 -378.384903 
L 655.367012 -383.075234 
L 656.326971 -387.765566 
L 657.199432 -392.455897 
L 657.972611 -397.146228 
L 658.651963 -401.83656 
L 659.256974 -406.526891 
L 659.816102 -411.217222 
L 660.361112 -415.907553 
L 660.921956 -420.597885 
L 661.523043 -425.288216 
L 662.181207 -429.978547 
L 662.90522 -434.668879 
L 663.696407 -439.35921 
L 664.549829 -444.049541 
L 665.455681 -448.739873 
L 666.400736 -453.430204 
L 667.369838 -458.120535 
L 668.347466 -462.810867 
L 669.319291 -467.501198 
L 670.273527 -472.191529 
L 671.201799 -476.881861 
L 672.099354 -481.572192 
L 672.964565 -486.262523 
L 673.797908 -490.952855 
L 674.60071 -495.643186 
L 675.374001 -500.333517 
L 676.117723 -505.023849 
L 676.830394 -509.71418 
L 677.509203 -514.404511 
L 678.150379 -519.094843 
L 678.749694 -523.785174 
L 679.302962 -528.475505 
L 679.806459 -533.165836 
L 680.257278 -537.856168 
L 680.65361 -542.546499 
L 680.994972 -547.23683 
L 681.282366 -551.927162 
L 681.518332 -556.617493 
L 681.706855 -561.307824 
L 681.853115 -565.998156 
L 681.963095 -570.688487 
L 682.043121 -575.378818 
L 682.099388 -580.06915 
L 682.300612 -580.06915 
L 682.300612 -580.06915 
L 682.356879 -575.378818 
L 682.436905 -570.688487 
L 682.546885 -565.998156 
L 682.693145 -561.307824 
L 682.881668 -556.617493 
L 683.117634 -551.927162 
L 683.405028 -547.23683 
L 683.74639 -542.546499 
L 684.142722 -537.856168 
L 684.593541 -533.165836 
L 685.097038 -528.475505 
L 685.650306 -523.785174 
L 686.249621 -519.094843 
L 686.890797 -514.404511 
L 687.569606 -509.71418 
L 688.282277 -505.023849 
L 689.025999 -500.333517 
L 689.79929 -495.643186 
L 690.602092 -490.952855 
L 691.435435 -486.262523 
L 692.300646 -481.572192 
L 693.198201 -476.881861 
L 694.126473 -472.191529 
L 695.080709 -467.501198 
L 696.052534 -462.810867 
L 697.030162 -458.120535 
L 697.999264 -453.430204 
L 698.944319 -448.739873 
L 699.850171 -444.049541 
L 700.703593 -439.35921 
L 701.49478 -434.668879 
L 702.218793 -429.978547 
L 702.876957 -425.288216 
L 703.478044 -420.597885 
L 704.038888 -415.907553 
L 704.583898 -411.217222 
L 705.143026 -406.526891 
L 705.748037 -401.83656 
L 706.427389 -397.146228 
L 707.200568 -392.455897 
L 708.073029 -387.765566 
L 709.032988 -383.075234 
L 710.051088 -378.384903 
L 711.083387 -373.694572 
L 712.077501 -369.00424 
L 712.980978 -364.313909 
L 713.75039 -359.623578 
L 714.359317 -354.933246 
L 714.803424 -350.242915 
L 715.10134 -345.552584 
L 715.290883 -340.862252 
L 715.421278 -336.171921 
L 715.543014 -331.48159 
L 715.697621 -326.791258 
L 715.909715 -322.100927 
L 716.183079 -317.410596 
L 716.501453 -312.720264 
L 716.833476 -308.029933 
L 717.140168 -303.339602 
L 717.382774 -298.64927 
L 717.528926 -293.958939 
L 717.555753 -289.268608 
L 717.449635 -284.578277 
L 717.203322 -279.887945 
L 716.81188 -275.197614 
L 716.269109 -270.507283 
L 715.565724 -265.816951 
L 714.689859 -261.12662 
L 713.629592 -256.436289 
L 712.376597 -251.745957 
L 710.929762 -247.055626 
L 709.297788 -242.365295 
L 707.500238 -237.674963 
L 705.566973 -232.984632 
L 703.536304 -228.294301 
L 701.452311 -223.603969 
L 699.361765 -218.913638 
L 697.31098 -214.223307 
L 695.342815 -209.532975 
L 693.494059 -204.842644 
L 691.79338 -200.152313 
L 690.26007 -195.461981 
L 688.903694 -190.77165 
L 687.724684 -186.081319 
L 686.715711 -181.390987 
L 685.863626 -176.700656 
L 685.15162 -172.010325 
L 684.561328 -167.319994 
L 684.074605 -162.629662 
L 683.674819 -157.939331 
L 683.347589 -153.249 
L 683.081004 -148.558668 
L 682.865424 -143.868337 
L 682.693037 -139.178006 
L 682.557337 -134.487674 
L 682.452654 -129.797343 
L 682.373851 -125.107012 
L 682.316174 -120.41668 
L 682.275257 -115.726349 
z
" style="stroke: #3f3f3f; stroke-width: 1.25"/>
    </defs>
    <g clip-path="url(#pbb202f4795)">
     <use xlink:href="#mc755126e36" x="0" y="720" style="fill: #3274a1; stroke: #3f3f3f; stroke-width: 1.25"/>
    </g>
   </g>
   <g id="PolyCollection_6">
    <defs>
     <path id="m3fd52f5462" d="M 793.883108 -116.536894 
L 793.716892 -116.536894 
L 793.670532 -121.210851 
L 793.604904 -125.884808 
L 793.515187 -130.558764 
L 793.396445 -135.232721 
L 793.243767 -139.906678 
L 793.052211 -144.580634 
L 792.816411 -149.254591 
L 792.529862 -153.928548 
L 792.183914 -158.602504 
L 791.766719 -163.276461 
L 791.262421 -167.950418 
L 790.650926 -172.624374 
L 789.908543 -177.298331 
L 789.009619 -181.972288 
L 787.929097 -186.646244 
L 786.645705 -191.320201 
L 785.145361 -195.994158 
L 783.424274 -200.668114 
L 781.491319 -205.342071 
L 779.369354 -210.016028 
L 777.095319 -214.689984 
L 774.719086 -219.363941 
L 772.301098 -224.037898 
L 769.908865 -228.711854 
L 767.612418 -233.385811 
L 765.478949 -238.059768 
L 763.567062 -242.733724 
L 761.921373 -247.407681 
L 760.568374 -252.081638 
L 759.514509 -256.755594 
L 758.747088 -261.429551 
L 758.238004 -266.103508 
L 757.949511 -270.777464 
L 757.84064 -275.451421 
L 757.87267 -280.125378 
L 758.012319 -284.799334 
L 758.232179 -289.473291 
L 758.508841 -294.147248 
L 758.82003 -298.821204 
L 759.142432 -303.495161 
L 759.451603 -308.169118 
L 759.72455 -312.843074 
L 759.944476 -317.517031 
L 760.106206 -322.190988 
L 760.220318 -326.864944 
L 760.314203 -331.538901 
L 760.429124 -336.212858 
L 760.61356 -340.886814 
L 760.914263 -345.560771 
L 761.367176 -350.234728 
L 761.990385 -354.908684 
L 762.780666 -359.582641 
L 763.714161 -364.256598 
L 764.750714 -368.930554 
L 765.84064 -373.604511 
L 766.932394 -378.278468 
L 767.979718 -382.952424 
L 768.947196 -387.626381 
L 769.813608 -392.300338 
L 770.572901 -396.974294 
L 771.232972 -401.648251 
L 771.812752 -406.322208 
L 772.338312 -410.996164 
L 772.838762 -415.670121 
L 773.342649 -420.344078 
L 773.87528 -425.018034 
L 774.457075 -429.691991 
L 775.102757 -434.365948 
L 775.82106 -439.039904 
L 776.614736 -443.713861 
L 777.480776 -448.387818 
L 778.41096 -453.061774 
L 779.392865 -457.735731 
L 780.411311 -462.409688 
L 781.450055 -467.083644 
L 782.493367 -471.757601 
L 783.527138 -476.431558 
L 784.539342 -481.105514 
L 785.519908 -485.779471 
L 786.460258 -490.453428 
L 787.352832 -495.127384 
L 788.190864 -499.801341 
L 788.968472 -504.475298 
L 789.681004 -509.149254 
L 790.325444 -513.823211 
L 790.900709 -518.497168 
L 791.407689 -523.171124 
L 791.849043 -527.845081 
L 792.228776 -532.519038 
L 792.551746 -537.192994 
L 792.823195 -541.866951 
L 793.048412 -546.540908 
L 793.232534 -551.214864 
L 793.380491 -555.888821 
L 793.497019 -560.562778 
L 793.58669 -565.236734 
L 793.653908 -569.910691 
L 793.702851 -574.584648 
L 793.737382 -579.258604 
L 793.862618 -579.258604 
L 793.862618 -579.258604 
L 793.897149 -574.584648 
L 793.946092 -569.910691 
L 794.01331 -565.236734 
L 794.102981 -560.562778 
L 794.219509 -555.888821 
L 794.367466 -551.214864 
L 794.551588 -546.540908 
L 794.776805 -541.866951 
L 795.048254 -537.192994 
L 795.371224 -532.519038 
L 795.750957 -527.845081 
L 796.192311 -523.171124 
L 796.699291 -518.497168 
L 797.274556 -513.823211 
L 797.918996 -509.149254 
L 798.631528 -504.475298 
L 799.409136 -499.801341 
L 800.247168 -495.127384 
L 801.139742 -490.453428 
L 802.080092 -485.779471 
L 803.060658 -481.105514 
L 804.072862 -476.431558 
L 805.106633 -471.757601 
L 806.149945 -467.083644 
L 807.188689 -462.409688 
L 808.207135 -457.735731 
L 809.18904 -453.061774 
L 810.119224 -448.387818 
L 810.985264 -443.713861 
L 811.77894 -439.039904 
L 812.497243 -434.365948 
L 813.142925 -429.691991 
L 813.72472 -425.018034 
L 814.257351 -420.344078 
L 814.761238 -415.670121 
L 815.261688 -410.996164 
L 815.787248 -406.322208 
L 816.367028 -401.648251 
L 817.027099 -396.974294 
L 817.786392 -392.300338 
L 818.652804 -387.626381 
L 819.620282 -382.952424 
L 820.667606 -378.278468 
L 821.75936 -373.604511 
L 822.849286 -368.930554 
L 823.885839 -364.256598 
L 824.819334 -359.582641 
L 825.609615 -354.908684 
L 826.232824 -350.234728 
L 826.685737 -345.560771 
L 826.98644 -340.886814 
L 827.170876 -336.212858 
L 827.285797 -331.538901 
L 827.379682 -326.864944 
L 827.493794 -322.190988 
L 827.655524 -317.517031 
L 827.87545 -312.843074 
L 828.148397 -308.169118 
L 828.457568 -303.495161 
L 828.77997 -298.821204 
L 829.091159 -294.147248 
L 829.367821 -289.473291 
L 829.587681 -284.799334 
L 829.72733 -280.125378 
L 829.75936 -275.451421 
L 829.650489 -270.777464 
L 829.361996 -266.103508 
L 828.852912 -261.429551 
L 828.085491 -256.755594 
L 827.031626 -252.081638 
L 825.678627 -247.407681 
L 824.032938 -242.733724 
L 822.121051 -238.059768 
L 819.987582 -233.385811 
L 817.691135 -228.711854 
L 815.298902 -224.037898 
L 812.880914 -219.363941 
L 810.504681 -214.689984 
L 808.230646 -210.016028 
L 806.108681 -205.342071 
L 804.175726 -200.668114 
L 802.454639 -195.994158 
L 800.954295 -191.320201 
L 799.670903 -186.646244 
L 798.590381 -181.972288 
L 797.691457 -177.298331 
L 796.949074 -172.624374 
L 796.337579 -167.950418 
L 795.833281 -163.276461 
L 795.416086 -158.602504 
L 795.070138 -153.928548 
L 794.783589 -149.254591 
L 794.547789 -144.580634 
L 794.356233 -139.906678 
L 794.203555 -135.232721 
L 794.084813 -130.558764 
L 793.995096 -125.884808 
L 793.929468 -121.210851 
L 793.883108 -116.536894 
z
" style="stroke: #3f3f3f; stroke-width: 1.25"/>
    </defs>
    <g clip-path="url(#pbb202f4795)">
     <use xlink:href="#m3fd52f5462" x="0" y="720" style="fill: #3274a1; stroke: #3f3f3f; stroke-width: 1.25"/>
    </g>
   </g>
   <g id="PolyCollection_7">
    <defs>
     <path id="m74b6724eb3" d="M 905.48235 -116.189691 
L 905.31765 -116.189691 
L 905.27204 -120.870662 
L 905.207504 -125.551633 
L 905.119152 -130.232604 
L 905.001738 -134.913575 
L 904.849615 -139.594546 
L 904.656424 -144.275517 
L 904.414433 -148.956487 
L 904.113545 -153.637458 
L 903.740151 -158.318429 
L 903.276147 -162.9994 
L 902.698536 -167.680371 
L 901.980059 -172.361342 
L 901.0911 -177.042313 
L 900.002854 -181.723284 
L 898.691392 -186.404254 
L 897.141929 -191.085225 
L 895.352459 -195.766196 
L 893.336029 -200.447167 
L 891.121183 -205.128138 
L 888.750615 -209.809109 
L 886.278455 -214.49008 
L 883.766854 -219.17105 
L 881.282492 -223.852021 
L 878.893345 -228.532992 
L 876.66564 -233.213963 
L 874.660656 -237.894934 
L 872.931033 -242.575905 
L 871.516539 -247.256876 
L 870.439794 -251.937847 
L 869.70289 -256.618817 
L 869.286042 -261.299788 
L 869.149139 -265.980759 
L 869.23642 -270.66173 
L 869.483635 -275.342701 
L 869.826349 -280.023672 
L 870.207668 -284.704643 
L 870.583863 -289.385613 
L 870.926959 -294.066584 
L 871.224238 -298.747555 
L 871.475379 -303.428526 
L 871.688493 -308.109497 
L 871.876332 -312.790468 
L 872.053613 -317.471439 
L 872.235764 -322.15241 
L 872.438795 -326.83338 
L 872.679582 -331.514351 
L 872.975766 -336.195322 
L 873.344775 -340.876293 
L 873.8019 -345.557264 
L 874.357816 -350.238235 
L 875.016209 -354.919206 
L 875.77218 -359.600177 
L 876.611885 -364.281147 
L 877.513573 -368.962118 
L 878.449858 -373.643089 
L 879.390872 -378.32406 
L 880.307794 -383.005031 
L 881.176244 -387.686002 
L 881.97905 -392.366973 
L 882.707998 -397.047943 
L 883.364355 -401.728914 
L 883.958198 -406.409885 
L 884.506782 -411.090856 
L 885.032324 -415.771827 
L 885.559565 -420.452798 
L 886.113331 -425.133769 
L 886.716189 -429.81474 
L 887.386213 -434.49571 
L 888.134946 -439.176681 
L 888.965859 -443.857652 
L 889.873688 -448.538623 
L 890.845051 -453.219594 
L 891.860411 -457.900565 
L 892.897111 -462.581536 
L 893.932784 -467.262506 
L 894.948303 -471.943477 
L 895.929592 -476.624448 
L 896.867988 -481.305419 
L 897.759336 -485.98639 
L 898.602326 -490.667361 
L 899.396748 -495.348332 
L 900.14217 -500.029303 
L 900.83734 -504.710273 
L 901.480258 -509.391244 
L 902.068709 -514.072215 
L 902.60094 -518.753186 
L 903.076208 -523.434157 
L 903.495066 -528.115128 
L 903.859358 -532.796099 
L 904.17199 -537.477069 
L 904.436618 -542.15804 
L 904.657338 -546.839011 
L 904.838459 -551.519982 
L 904.984375 -556.200953 
L 905.09949 -560.881924 
L 905.188181 -565.562895 
L 905.254731 -570.243866 
L 905.30324 -574.924836 
L 905.337509 -579.605807 
L 905.462491 -579.605807 
L 905.462491 -579.605807 
L 905.49676 -574.924836 
L 905.545269 -570.243866 
L 905.611819 -565.562895 
L 905.70051 -560.881924 
L 905.815625 -556.200953 
L 905.961541 -551.519982 
L 906.142662 -546.839011 
L 906.363382 -542.15804 
L 906.62801 -537.477069 
L 906.940642 -532.796099 
L 907.304934 -528.115128 
L 907.723792 -523.434157 
L 908.19906 -518.753186 
L 908.731291 -514.072215 
L 909.319742 -509.391244 
L 909.96266 -504.710273 
L 910.65783 -500.029303 
L 911.403252 -495.348332 
L 912.197674 -490.667361 
L 913.040664 -485.98639 
L 913.932012 -481.305419 
L 914.870408 -476.624448 
L 915.851697 -471.943477 
L 916.867216 -467.262506 
L 917.902889 -462.581536 
L 918.939589 -457.900565 
L 919.954949 -453.219594 
L 920.926312 -448.538623 
L 921.834141 -443.857652 
L 922.665054 -439.176681 
L 923.413787 -434.49571 
L 924.083811 -429.81474 
L 924.686669 -425.133769 
L 925.240435 -420.452798 
L 925.767676 -415.771827 
L 926.293218 -411.090856 
L 926.841802 -406.409885 
L 927.435645 -401.728914 
L 928.092002 -397.047943 
L 928.82095 -392.366973 
L 929.623756 -387.686002 
L 930.492206 -383.005031 
L 931.409128 -378.32406 
L 932.350142 -373.643089 
L 933.286427 -368.962118 
L 934.188115 -364.281147 
L 935.02782 -359.600177 
L 935.783791 -354.919206 
L 936.442184 -350.238235 
L 936.9981 -345.557264 
L 937.455225 -340.876293 
L 937.824234 -336.195322 
L 938.120418 -331.514351 
L 938.361205 -326.83338 
L 938.564236 -322.15241 
L 938.746387 -317.471439 
L 938.923668 -312.790468 
L 939.111507 -308.109497 
L 939.324621 -303.428526 
L 939.575762 -298.747555 
L 939.873041 -294.066584 
L 940.216137 -289.385613 
L 940.592332 -284.704643 
L 940.973651 -280.023672 
L 941.316365 -275.342701 
L 941.56358 -270.66173 
L 941.650861 -265.980759 
L 941.513958 -261.299788 
L 941.09711 -256.618817 
L 940.360206 -251.937847 
L 939.283461 -247.256876 
L 937.868967 -242.575905 
L 936.139344 -237.894934 
L 934.13436 -233.213963 
L 931.906655 -228.532992 
L 929.517508 -223.852021 
L 927.033146 -219.17105 
L 924.521545 -214.49008 
L 922.049385 -209.809109 
L 919.678817 -205.128138 
L 917.463971 -200.447167 
L 915.447541 -195.766196 
L 913.658071 -191.085225 
L 912.108608 -186.404254 
L 910.797146 -181.723284 
L 909.7089 -177.042313 
L 908.819941 -172.361342 
L 908.101464 -167.680371 
L 907.523853 -162.9994 
L 907.059849 -158.318429 
L 906.686455 -153.637458 
L 906.385567 -148.956487 
L 906.143576 -144.275517 
L 905.950385 -139.594546 
L 905.798262 -134.913575 
L 905.680848 -130.232604 
L 905.592496 -125.551633 
L 905.52796 -120.870662 
L 905.48235 -116.189691 
z
" style="stroke: #3f3f3f; stroke-width: 1.25"/>
    </defs>
    <g clip-path="url(#pbb202f4795)">
     <use xlink:href="#m74b6724eb3" x="0" y="720" style="fill: #3274a1; stroke: #3f3f3f; stroke-width: 1.25"/>
    </g>
   </g>
   <g id="PolyCollection_8">
    <defs>
     <path id="mcac6d31235" d="M 1017.055273 -104.4 
L 1016.944727 -104.4 
L 1016.914657 -109.203162 
L 1016.872397 -114.006323 
L 1016.81483 -118.809485 
L 1016.7385 -123.612647 
L 1016.639475 -128.415808 
L 1016.513001 -133.21897 
L 1016.35292 -138.022132 
L 1016.150859 -142.825293 
L 1015.895303 -147.628455 
L 1015.570742 -152.431617 
L 1015.15716 -157.234778 
L 1014.630181 -162.03794 
L 1013.962121 -166.841102 
L 1013.124073 -171.644264 
L 1012.088898 -176.447425 
L 1010.834762 -181.250587 
L 1009.348579 -186.053749 
L 1007.628679 -190.85691 
L 1005.686114 -195.660072 
L 1003.544389 -200.463234 
L 1001.237842 -205.266395 
L 998.809328 -210.069557 
L 996.308009 -214.872719 
L 993.787817 -219.67588 
L 991.306699 -224.479042 
L 988.926086 -229.282204 
L 986.709648 -234.085365 
L 984.720387 -238.888527 
L 983.015657 -243.691689 
L 981.640571 -248.49485 
L 980.621152 -253.298012 
L 979.959092 -258.101174 
L 979.629939 -262.904335 
L 979.585767 -267.707497 
L 979.762222 -272.510659 
L 980.088626 -277.31382 
L 980.498899 -282.116982 
L 980.940833 -286.920144 
L 981.38168 -291.723306 
L 981.80906 -296.526467 
L 982.227444 -301.329629 
L 982.651636 -306.132791 
L 983.099311 -310.935952 
L 983.584695 -315.739114 
L 984.114841 -320.542276 
L 984.68899 -325.345437 
L 985.300476 -330.148599 
L 985.939976 -334.951761 
L 986.598721 -339.754922 
L 987.270601 -344.558084 
L 987.952719 -349.361246 
L 988.644567 -354.164407 
L 989.346409 -358.967569 
L 990.05757 -363.770731 
L 990.775194 -368.573892 
L 991.493783 -373.377054 
L 992.205606 -378.180216 
L 992.90184 -382.983377 
L 993.574227 -387.786539 
L 994.216884 -392.589701 
L 994.827913 -397.392862 
L 995.410422 -402.196024 
L 995.972742 -406.999186 
L 996.527789 -411.802347 
L 997.091727 -416.605509 
L 997.682229 -421.408671 
L 998.316581 -426.211833 
L 999.009835 -431.014994 
L 999.773086 -435.818156 
L 1000.611958 -440.621318 
L 1001.525451 -445.424479 
L 1002.505395 -450.227641 
L 1003.536774 -455.030803 
L 1004.599065 -459.833964 
L 1005.668499 -464.637126 
L 1006.720879 -469.440288 
L 1007.734428 -474.243449 
L 1008.692123 -479.046611 
L 1009.583102 -483.849773 
L 1010.402944 -488.652934 
L 1011.152897 -493.456096 
L 1011.838303 -498.259258 
L 1012.466597 -503.062419 
L 1013.045332 -507.865581 
L 1013.580597 -512.668743 
L 1014.076107 -517.471904 
L 1014.533053 -522.275066 
L 1014.950608 -527.078228 
L 1015.326847 -531.881389 
L 1015.659782 -536.684551 
L 1015.948235 -541.487713 
L 1016.192392 -546.290875 
L 1016.393979 -551.094036 
L 1016.556141 -555.897198 
L 1016.6831 -560.70036 
L 1016.779738 -565.503521 
L 1016.851168 -570.306683 
L 1016.902372 -575.109845 
L 1016.937917 -579.913006 
L 1017.062083 -579.913006 
L 1017.062083 -579.913006 
L 1017.097628 -575.109845 
L 1017.148832 -570.306683 
L 1017.220262 -565.503521 
L 1017.3169 -560.70036 
L 1017.443859 -555.897198 
L 1017.606021 -551.094036 
L 1017.807608 -546.290875 
L 1018.051765 -541.487713 
L 1018.340218 -536.684551 
L 1018.673153 -531.881389 
L 1019.049392 -527.078228 
L 1019.466947 -522.275066 
L 1019.923893 -517.471904 
L 1020.419403 -512.668743 
L 1020.954668 -507.865581 
L 1021.533403 -503.062419 
L 1022.161697 -498.259258 
L 1022.847103 -493.456096 
L 1023.597056 -488.652934 
L 1024.416898 -483.849773 
L 1025.307877 -479.046611 
L 1026.265572 -474.243449 
L 1027.279121 -469.440288 
L 1028.331501 -464.637126 
L 1029.400935 -459.833964 
L 1030.463226 -455.030803 
L 1031.494605 -450.227641 
L 1032.474549 -445.424479 
L 1033.388042 -440.621318 
L 1034.226914 -435.818156 
L 1034.990165 -431.014994 
L 1035.683419 -426.211833 
L 1036.317771 -421.408671 
L 1036.908273 -416.605509 
L 1037.472211 -411.802347 
L 1038.027258 -406.999186 
L 1038.589578 -402.196024 
L 1039.172087 -397.392862 
L 1039.783116 -392.589701 
L 1040.425773 -387.786539 
L 1041.09816 -382.983377 
L 1041.794394 -378.180216 
L 1042.506217 -373.377054 
L 1043.224806 -368.573892 
L 1043.94243 -363.770731 
L 1044.653591 -358.967569 
L 1045.355433 -354.164407 
L 1046.047281 -349.361246 
L 1046.729399 -344.558084 
L 1047.401279 -339.754922 
L 1048.060024 -334.951761 
L 1048.699524 -330.148599 
L 1049.31101 -325.345437 
L 1049.885159 -320.542276 
L 1050.415305 -315.739114 
L 1050.900689 -310.935952 
L 1051.348364 -306.132791 
L 1051.772556 -301.329629 
L 1052.19094 -296.526467 
L 1052.61832 -291.723306 
L 1053.059167 -286.920144 
L 1053.501101 -282.116982 
L 1053.911374 -277.31382 
L 1054.237778 -272.510659 
L 1054.414233 -267.707497 
L 1054.370061 -262.904335 
L 1054.040908 -258.101174 
L 1053.378848 -253.298012 
L 1052.359429 -248.49485 
L 1050.984343 -243.691689 
L 1049.279613 -238.888527 
L 1047.290352 -234.085365 
L 1045.073914 -229.282204 
L 1042.693301 -224.479042 
L 1040.212183 -219.67588 
L 1037.691991 -214.872719 
L 1035.190672 -210.069557 
L 1032.762158 -205.266395 
L 1030.455611 -200.463234 
L 1028.313886 -195.660072 
L 1026.371321 -190.85691 
L 1024.651421 -186.053749 
L 1023.165238 -181.250587 
L 1021.911102 -176.447425 
L 1020.875927 -171.644264 
L 1020.037879 -166.841102 
L 1019.369819 -162.03794 
L 1018.84284 -157.234778 
L 1018.429258 -152.431617 
L 1018.104697 -147.628455 
L 1017.849141 -142.825293 
L 1017.64708 -138.022132 
L 1017.486999 -133.21897 
L 1017.360525 -128.415808 
L 1017.2615 -123.612647 
L 1017.18517 -118.809485 
L 1017.127603 -114.006323 
L 1017.085343 -109.203162 
L 1017.055273 -104.4 
z
" style="stroke: #3f3f3f; stroke-width: 1.25"/>
    </defs>
    <g clip-path="url(#pbb202f4795)">
     <use xlink:href="#mcac6d31235" x="0" y="720" style="fill: #3274a1; stroke: #3f3f3f; stroke-width: 1.25"/>
    </g>
   </g>
   <g id="PolyCollection_9">
    <defs>
     <path id="m2cf80f1c88" d="M 1128.655638 -105.0712 
L 1128.544362 -105.0712 
L 1128.513659 -109.87487 
L 1128.470389 -114.67854 
L 1128.411341 -119.482209 
L 1128.332985 -124.285879 
L 1128.231318 -129.089548 
L 1128.101516 -133.893218 
L 1127.937311 -138.696887 
L 1127.730151 -143.500557 
L 1127.468235 -148.304227 
L 1127.135639 -153.107896 
L 1126.711814 -157.911566 
L 1126.17177 -162.715235 
L 1125.487207 -167.518905 
L 1124.628702 -172.322574 
L 1123.568822 -177.126244 
L 1122.285721 -181.929914 
L 1120.76653 -186.733583 
L 1119.009754 -191.537253 
L 1117.026036 -196.340922 
L 1114.837122 -201.144592 
L 1112.473439 -205.948261 
L 1109.971298 -210.751931 
L 1107.370931 -215.555601 
L 1104.716305 -220.35927 
L 1102.056853 -225.16294 
L 1099.450198 -229.966609 
L 1096.964118 -234.770279 
L 1094.675726 -239.573948 
L 1092.666458 -244.377618 
L 1091.012777 -249.181287 
L 1089.774152 -253.984957 
L 1088.981206 -258.788627 
L 1088.627471 -263.592296 
L 1088.667605 -268.395966 
L 1089.023395 -273.199635 
L 1089.596773 -278.003305 
L 1090.28705 -282.806974 
L 1091.008268 -287.610644 
L 1091.702443 -292.414314 
L 1092.345547 -297.217983 
L 1092.94512 -302.021653 
L 1093.530728 -306.825322 
L 1094.140388 -311.628992 
L 1094.80697 -316.432661 
L 1095.548173 -321.236331 
L 1096.362285 -326.040001 
L 1097.229982 -330.84367 
L 1098.120763 -335.64734 
L 1099.001537 -340.451009 
L 1099.844787 -345.254679 
L 1100.634315 -350.058348 
L 1101.367514 -354.862018 
L 1102.054143 -359.665688 
L 1102.712318 -364.469357 
L 1103.362917 -369.273027 
L 1104.023785 -374.076696 
L 1104.705087 -378.880366 
L 1105.406849 -383.684035 
L 1106.119249 -388.487705 
L 1106.825555 -393.291375 
L 1107.50697 -398.095044 
L 1108.148156 -402.898714 
L 1108.742055 -407.702383 
L 1109.292876 -412.506053 
L 1109.81655 -417.309722 
L 1110.338602 -422.113392 
L 1110.889916 -426.917062 
L 1111.501247 -431.720731 
L 1112.197566 -436.524401 
L 1112.993351 -441.32807 
L 1113.889767 -446.13174 
L 1114.874334 -450.935409 
L 1115.923137 -455.739079 
L 1117.00504 -460.542748 
L 1118.0869 -465.346418 
L 1119.138549 -470.150088 
L 1120.136499 -474.953757 
L 1121.065769 -479.757427 
L 1121.919791 -484.561096 
L 1122.698853 -489.364766 
L 1123.407758 -494.168435 
L 1124.053393 -498.972105 
L 1124.642724 -503.775775 
L 1125.181489 -508.579444 
L 1125.673637 -513.383114 
L 1126.121393 -518.186783 
L 1126.525741 -522.990453 
L 1126.887092 -527.794122 
L 1127.205899 -532.597792 
L 1127.483104 -537.401462 
L 1127.720344 -542.205131 
L 1127.919954 -547.008801 
L 1128.084851 -551.81247 
L 1128.218365 -556.61614 
L 1128.324094 -561.419809 
L 1128.40577 -566.223479 
L 1128.46715 -571.027149 
L 1128.511897 -575.830818 
L 1128.54346 -580.634488 
L 1128.65654 -580.634488 
L 1128.65654 -580.634488 
L 1128.688103 -575.830818 
L 1128.73285 -571.027149 
L 1128.79423 -566.223479 
L 1128.875906 -561.419809 
L 1128.981635 -556.61614 
L 1129.115149 -551.81247 
L 1129.280046 -547.008801 
L 1129.479656 -542.205131 
L 1129.716896 -537.401462 
L 1129.994101 -532.597792 
L 1130.312908 -527.794122 
L 1130.674259 -522.990453 
L 1131.078607 -518.186783 
L 1131.526363 -513.383114 
L 1132.018511 -508.579444 
L 1132.557276 -503.775775 
L 1133.146607 -498.972105 
L 1133.792242 -494.168435 
L 1134.501147 -489.364766 
L 1135.280209 -484.561096 
L 1136.134231 -479.757427 
L 1137.063501 -474.953757 
L 1138.061451 -470.150088 
L 1139.1131 -465.346418 
L 1140.19496 -460.542748 
L 1141.276863 -455.739079 
L 1142.325666 -450.935409 
L 1143.310233 -446.13174 
L 1144.206649 -441.32807 
L 1145.002434 -436.524401 
L 1145.698753 -431.720731 
L 1146.310084 -426.917062 
L 1146.861398 -422.113392 
L 1147.38345 -417.309722 
L 1147.907124 -412.506053 
L 1148.457945 -407.702383 
L 1149.051844 -402.898714 
L 1149.69303 -398.095044 
L 1150.374445 -393.291375 
L 1151.080751 -388.487705 
L 1151.793151 -383.684035 
L 1152.494913 -378.880366 
L 1153.176215 -374.076696 
L 1153.837083 -369.273027 
L 1154.487682 -364.469357 
L 1155.145857 -359.665688 
L 1155.832486 -354.862018 
L 1156.565685 -350.058348 
L 1157.355213 -345.254679 
L 1158.198463 -340.451009 
L 1159.079237 -335.64734 
L 1159.970018 -330.84367 
L 1160.837715 -326.040001 
L 1161.651827 -321.236331 
L 1162.39303 -316.432661 
L 1163.059612 -311.628992 
L 1163.669272 -306.825322 
L 1164.25488 -302.021653 
L 1164.854453 -297.217983 
L 1165.497557 -292.414314 
L 1166.191732 -287.610644 
L 1166.91295 -282.806974 
L 1167.603227 -278.003305 
L 1168.176605 -273.199635 
L 1168.532395 -268.395966 
L 1168.572529 -263.592296 
L 1168.218794 -258.788627 
L 1167.425848 -253.984957 
L 1166.187223 -249.181287 
L 1164.533542 -244.377618 
L 1162.524274 -239.573948 
L 1160.235882 -234.770279 
L 1157.749802 -229.966609 
L 1155.143147 -225.16294 
L 1152.483695 -220.35927 
L 1149.829069 -215.555601 
L 1147.228702 -210.751931 
L 1144.726561 -205.948261 
L 1142.362878 -201.144592 
L 1140.173964 -196.340922 
L 1138.190246 -191.537253 
L 1136.43347 -186.733583 
L 1134.914279 -181.929914 
L 1133.631178 -177.126244 
L 1132.571298 -172.322574 
L 1131.712793 -167.518905 
L 1131.02823 -162.715235 
L 1130.488186 -157.911566 
L 1130.064361 -153.107896 
L 1129.731765 -148.304227 
L 1129.469849 -143.500557 
L 1129.262689 -138.696887 
L 1129.098484 -133.893218 
L 1128.968682 -129.089548 
L 1128.867015 -124.285879 
L 1128.788659 -119.482209 
L 1128.729611 -114.67854 
L 1128.686341 -109.87487 
L 1128.655638 -105.0712 
z
" style="stroke: #3f3f3f; stroke-width: 1.25"/>
    </defs>
    <g clip-path="url(#pbb202f4795)">
     <use xlink:href="#m2cf80f1c88" x="0" y="720" style="fill: #3274a1; stroke: #3f3f3f; stroke-width: 1.25"/>
    </g>
   </g>
   <g id="PolyCollection_10">
    <defs>
     <path id="m0473b69ade" d="M 1240.261413 -104.610362 
L 1240.138587 -104.610362 
L 1240.10364 -109.423341 
L 1240.053546 -114.236321 
L 1239.983982 -119.0493 
L 1239.890107 -123.86228 
L 1239.766551 -128.675259 
L 1239.60725 -133.488238 
L 1239.405077 -138.301218 
L 1239.151232 -143.114197 
L 1238.83443 -147.927177 
L 1238.440055 -152.740156 
L 1237.949523 -157.553136 
L 1237.340202 -162.366115 
L 1236.586222 -167.179094 
L 1235.660378 -171.992074 
L 1234.537074 -176.805053 
L 1233.195866 -181.618033 
L 1231.624888 -186.431012 
L 1229.823257 -191.243992 
L 1227.801749 -196.056971 
L 1225.581535 -200.869951 
L 1223.19148 -205.68293 
L 1220.665147 -210.495909 
L 1218.038929 -215.308889 
L 1215.352378 -220.121868 
L 1212.65089 -224.934848 
L 1209.989676 -229.747827 
L 1207.436932 -234.560807 
L 1205.073789 -239.373786 
L 1202.98929 -244.186766 
L 1201.270186 -248.999745 
L 1199.987259 -253.812724 
L 1199.181531 -258.625704 
L 1198.854334 -263.438683 
L 1198.964579 -268.251663 
L 1199.434683 -273.064642 
L 1200.164167 -277.877622 
L 1201.047706 -282.690601 
L 1201.99312 -287.503581 
L 1202.934911 -292.31656 
L 1203.840375 -297.129539 
L 1204.707533 -301.942519 
L 1205.556391 -306.755498 
L 1206.416598 -311.568478 
L 1207.315112 -316.381457 
L 1208.266848 -321.194437 
L 1209.270036 -326.007416 
L 1210.306514 -330.820395 
L 1211.346013 -335.633375 
L 1212.352823 -340.446354 
L 1213.293111 -345.259334 
L 1214.141372 -350.072313 
L 1214.884883 -354.885293 
L 1215.525474 -359.698272 
L 1216.078416 -364.511252 
L 1216.568732 -369.324231 
L 1217.025777 -374.13721 
L 1217.477307 -378.95019 
L 1217.944415 -383.763169 
L 1218.438486 -388.576149 
L 1218.960815 -393.389128 
L 1219.504792 -398.202108 
L 1220.059943 -403.015087 
L 1220.616678 -407.828067 
L 1221.170478 -412.641046 
L 1221.724498 -417.454025 
L 1222.289976 -422.267005 
L 1222.884388 -427.079984 
L 1223.527794 -431.892964 
L 1224.238252 -436.705943 
L 1225.027409 -441.518923 
L 1225.89733 -446.331902 
L 1226.83934 -451.144881 
L 1227.835136 -455.957861 
L 1228.859813 -460.77084 
L 1229.885988 -465.58382 
L 1230.88796 -470.396799 
L 1231.84497 -475.209779 
L 1232.742989 -480.022758 
L 1233.574927 -484.835738 
L 1234.339569 -489.648717 
L 1235.03977 -494.461696 
L 1235.680479 -499.274676 
L 1236.267031 -504.087655 
L 1236.803979 -508.900635 
L 1237.294535 -513.713614 
L 1237.740565 -518.526594 
L 1238.142958 -523.339573 
L 1238.502178 -528.152553 
L 1238.818788 -532.965532 
L 1239.09384 -537.778511 
L 1239.329053 -542.591491 
L 1239.526814 -547.40447 
L 1239.690068 -552.21745 
L 1239.822167 -557.030429 
L 1239.926718 -561.843409 
L 1240.007458 -566.656388 
L 1240.068136 -571.469368 
L 1240.112392 -576.282347 
L 1240.143642 -581.095326 
L 1240.256358 -581.095326 
L 1240.256358 -581.095326 
L 1240.287608 -576.282347 
L 1240.331864 -571.469368 
L 1240.392542 -566.656388 
L 1240.473282 -561.843409 
L 1240.577833 -557.030429 
L 1240.709932 -552.21745 
L 1240.873186 -547.40447 
L 1241.070947 -542.591491 
L 1241.30616 -537.778511 
L 1241.581212 -532.965532 
L 1241.897822 -528.152553 
L 1242.257042 -523.339573 
L 1242.659435 -518.526594 
L 1243.105465 -513.713614 
L 1243.596021 -508.900635 
L 1244.132969 -504.087655 
L 1244.719521 -499.274676 
L 1245.36023 -494.461696 
L 1246.060431 -489.648717 
L 1246.825073 -484.835738 
L 1247.657011 -480.022758 
L 1248.55503 -475.209779 
L 1249.51204 -470.396799 
L 1250.514012 -465.58382 
L 1251.540187 -460.77084 
L 1252.564864 -455.957861 
L 1253.56066 -451.144881 
L 1254.50267 -446.331902 
L 1255.372591 -441.518923 
L 1256.161748 -436.705943 
L 1256.872206 -431.892964 
L 1257.515612 -427.079984 
L 1258.110024 -422.267005 
L 1258.675502 -417.454025 
L 1259.229522 -412.641046 
L 1259.783322 -407.828067 
L 1260.340057 -403.015087 
L 1260.895208 -398.202108 
L 1261.439185 -393.389128 
L 1261.961514 -388.576149 
L 1262.455585 -383.763169 
L 1262.922693 -378.95019 
L 1263.374223 -374.13721 
L 1263.831268 -369.324231 
L 1264.321584 -364.511252 
L 1264.874526 -359.698272 
L 1265.515117 -354.885293 
L 1266.258628 -350.072313 
L 1267.106889 -345.259334 
L 1268.047177 -340.446354 
L 1269.053987 -335.633375 
L 1270.093486 -330.820395 
L 1271.129964 -326.007416 
L 1272.133152 -321.194437 
L 1273.084888 -316.381457 
L 1273.983402 -311.568478 
L 1274.843609 -306.755498 
L 1275.692467 -301.942519 
L 1276.559625 -297.129539 
L 1277.465089 -292.31656 
L 1278.40688 -287.503581 
L 1279.352294 -282.690601 
L 1280.235833 -277.877622 
L 1280.965317 -273.064642 
L 1281.435421 -268.251663 
L 1281.545666 -263.438683 
L 1281.218469 -258.625704 
L 1280.412741 -253.812724 
L 1279.129814 -248.999745 
L 1277.41071 -244.186766 
L 1275.326211 -239.373786 
L 1272.963068 -234.560807 
L 1270.410324 -229.747827 
L 1267.74911 -224.934848 
L 1265.047622 -220.121868 
L 1262.361071 -215.308889 
L 1259.734853 -210.495909 
L 1257.20852 -205.68293 
L 1254.818465 -200.869951 
L 1252.598251 -196.056971 
L 1250.576743 -191.243992 
L 1248.775112 -186.431012 
L 1247.204134 -181.618033 
L 1245.862926 -176.805053 
L 1244.739622 -171.992074 
L 1243.813778 -167.179094 
L 1243.059798 -162.366115 
L 1242.450477 -157.553136 
L 1241.959945 -152.740156 
L 1241.56557 -147.927177 
L 1241.248768 -143.114197 
L 1240.994923 -138.301218 
L 1240.79275 -133.488238 
L 1240.633449 -128.675259 
L 1240.509893 -123.86228 
L 1240.416018 -119.0493 
L 1240.346454 -114.236321 
L 1240.29636 -109.423341 
L 1240.261413 -104.610362 
z
" style="stroke: #3f3f3f; stroke-width: 1.25"/>
    </defs>
    <g clip-path="url(#pbb202f4795)">
     <use xlink:href="#m0473b69ade" x="0" y="720" style="fill: #3274a1; stroke: #3f3f3f; stroke-width: 1.25"/>
    </g>
   </g>
   <g id="matplotlib.axis_1">
    <g id="xtick_1">
     <g id="line2d_1">
      <defs>
       <path id="m1d01ff85a0" d="M 0 0 
L 0 3.5 
" style="stroke: #000000; stroke-width: 0.8"/>
      </defs>
      <g>
       <use xlink:href="#m1d01ff85a0" x="235.8" y="640.8" style="stroke: #000000; stroke-width: 0.8"/>
      </g>
     </g>
     <g id="text_1">
      <!-- 0 -->
      <g transform="translate(232.61875 655.398438) scale(0.1 -0.1)">
       <defs>
        <path id="DejaVuSans-30" d="M 2034 4250 
Q 1547 4250 1301 3770 
Q 1056 3291 1056 2328 
Q 1056 1369 1301 889 
Q 1547 409 2034 409 
Q 2525 409 2770 889 
Q 3016 1369 3016 2328 
Q 3016 3291 2770 3770 
Q 2525 4250 2034 4250 
z
M 2034 4750 
Q 2819 4750 3233 4129 
Q 3647 3509 3647 2328 
Q 3647 1150 3233 529 
Q 2819 -91 2034 -91 
Q 1250 -91 836 529 
Q 422 1150 422 2328 
Q 422 3509 836 4129 
Q 1250 4750 2034 4750 
z
" transform="scale(0.015625)"/>
       </defs>
       <use xlink:href="#DejaVuSans-30"/>
      </g>
     </g>
    </g>
    <g id="xtick_2">
     <g id="line2d_2">
      <g>
       <use xlink:href="#m1d01ff85a0" x="347.4" y="640.8" style="stroke: #000000; stroke-width: 0.8"/>
      </g>
     </g>
     <g id="text_2">
      <!-- 1 -->
      <g transform="translate(344.21875 655.398438) scale(0.1 -0.1)">
       <defs>
        <path id="DejaVuSans-31" d="M 794 531 
L 1825 531 
L 1825 4091 
L 703 3866 
L 703 4441 
L 1819 4666 
L 2450 4666 
L 2450 531 
L 3481 531 
L 3481 0 
L 794 0 
L 794 531 
z
" transform="scale(0.015625)"/>
       </defs>
       <use xlink:href="#DejaVuSans-31"/>
      </g>
     </g>
    </g>
    <g id="xtick_3">
     <g id="line2d_3">
      <g>
       <use xlink:href="#m1d01ff85a0" x="459" y="640.8" style="stroke: #000000; stroke-width: 0.8"/>
      </g>
     </g>
     <g id="text_3">
      <!-- 2 -->
      <g transform="translate(455.81875 655.398438) scale(0.1 -0.1)">
       <defs>
        <path id="DejaVuSans-32" d="M 1228 531 
L 3431 531 
L 3431 0 
L 469 0 
L 469 531 
Q 828 903 1448 1529 
Q 2069 2156 2228 2338 
Q 2531 2678 2651 2914 
Q 2772 3150 2772 3378 
Q 2772 3750 2511 3984 
Q 2250 4219 1831 4219 
Q 1534 4219 1204 4116 
Q 875 4013 500 3803 
L 500 4441 
Q 881 4594 1212 4672 
Q 1544 4750 1819 4750 
Q 2544 4750 2975 4387 
Q 3406 4025 3406 3419 
Q 3406 3131 3298 2873 
Q 3191 2616 2906 2266 
Q 2828 2175 2409 1742 
Q 1991 1309 1228 531 
z
" transform="scale(0.015625)"/>
       </defs>
       <use xlink:href="#DejaVuSans-32"/>
      </g>
     </g>
    </g>
    <g id="xtick_4">
     <g id="line2d_4">
      <g>
       <use xlink:href="#m1d01ff85a0" x="570.6" y="640.8" style="stroke: #000000; stroke-width: 0.8"/>
      </g>
     </g>
     <g id="text_4">
      <!-- 3 -->
      <g transform="translate(567.41875 655.398438) scale(0.1 -0.1)">
       <defs>
        <path id="DejaVuSans-33" d="M 2597 2516 
Q 3050 2419 3304 2112 
Q 3559 1806 3559 1356 
Q 3559 666 3084 287 
Q 2609 -91 1734 -91 
Q 1441 -91 1130 -33 
Q 819 25 488 141 
L 488 750 
Q 750 597 1062 519 
Q 1375 441 1716 441 
Q 2309 441 2620 675 
Q 2931 909 2931 1356 
Q 2931 1769 2642 2001 
Q 2353 2234 1838 2234 
L 1294 2234 
L 1294 2753 
L 1863 2753 
Q 2328 2753 2575 2939 
Q 2822 3125 2822 3475 
Q 2822 3834 2567 4026 
Q 2313 4219 1838 4219 
Q 1578 4219 1281 4162 
Q 984 4106 628 3988 
L 628 4550 
Q 988 4650 1302 4700 
Q 1616 4750 1894 4750 
Q 2613 4750 3031 4423 
Q 3450 4097 3450 3541 
Q 3450 3153 3228 2886 
Q 3006 2619 2597 2516 
z
" transform="scale(0.015625)"/>
       </defs>
       <use xlink:href="#DejaVuSans-33"/>
      </g>
     </g>
    </g>
    <g id="xtick_5">
     <g id="line2d_5">
      <g>
       <use xlink:href="#m1d01ff85a0" x="682.2" y="640.8" style="stroke: #000000; stroke-width: 0.8"/>
      </g>
     </g>
     <g id="text_5">
      <!-- 4 -->
      <g transform="translate(679.01875 655.398438) scale(0.1 -0.1)">
       <defs>
        <path id="DejaVuSans-34" d="M 2419 4116 
L 825 1625 
L 2419 1625 
L 2419 4116 
z
M 2253 4666 
L 3047 4666 
L 3047 1625 
L 3713 1625 
L 3713 1100 
L 3047 1100 
L 3047 0 
L 2419 0 
L 2419 1100 
L 313 1100 
L 313 1709 
L 2253 4666 
z
" transform="scale(0.015625)"/>
       </defs>
       <use xlink:href="#DejaVuSans-34"/>
      </g>
     </g>
    </g>
    <g id="xtick_6">
     <g id="line2d_6">
      <g>
       <use xlink:href="#m1d01ff85a0" x="793.8" y="640.8" style="stroke: #000000; stroke-width: 0.8"/>
      </g>
     </g>
     <g id="text_6">
      <!-- 5 -->
      <g transform="translate(790.61875 655.398438) scale(0.1 -0.1)">
       <defs>
        <path id="DejaVuSans-35" d="M 691 4666 
L 3169 4666 
L 3169 4134 
L 1269 4134 
L 1269 2991 
Q 1406 3038 1543 3061 
Q 1681 3084 1819 3084 
Q 2600 3084 3056 2656 
Q 3513 2228 3513 1497 
Q 3513 744 3044 326 
Q 2575 -91 1722 -91 
Q 1428 -91 1123 -41 
Q 819 9 494 109 
L 494 744 
Q 775 591 1075 516 
Q 1375 441 1709 441 
Q 2250 441 2565 725 
Q 2881 1009 2881 1497 
Q 2881 1984 2565 2268 
Q 2250 2553 1709 2553 
Q 1456 2553 1204 2497 
Q 953 2441 691 2322 
L 691 4666 
z
" transform="scale(0.015625)"/>
       </defs>
       <use xlink:href="#DejaVuSans-35"/>
      </g>
     </g>
    </g>
    <g id="xtick_7">
     <g id="line2d_7">
      <g>
       <use xlink:href="#m1d01ff85a0" x="905.4" y="640.8" style="stroke: #000000; stroke-width: 0.8"/>
      </g>
     </g>
     <g id="text_7">
      <!-- 6 -->
      <g transform="translate(902.21875 655.398438) scale(0.1 -0.1)">
       <defs>
        <path id="DejaVuSans-36" d="M 2113 2584 
Q 1688 2584 1439 2293 
Q 1191 2003 1191 1497 
Q 1191 994 1439 701 
Q 1688 409 2113 409 
Q 2538 409 2786 701 
Q 3034 994 3034 1497 
Q 3034 2003 2786 2293 
Q 2538 2584 2113 2584 
z
M 3366 4563 
L 3366 3988 
Q 3128 4100 2886 4159 
Q 2644 4219 2406 4219 
Q 1781 4219 1451 3797 
Q 1122 3375 1075 2522 
Q 1259 2794 1537 2939 
Q 1816 3084 2150 3084 
Q 2853 3084 3261 2657 
Q 3669 2231 3669 1497 
Q 3669 778 3244 343 
Q 2819 -91 2113 -91 
Q 1303 -91 875 529 
Q 447 1150 447 2328 
Q 447 3434 972 4092 
Q 1497 4750 2381 4750 
Q 2619 4750 2861 4703 
Q 3103 4656 3366 4563 
z
" transform="scale(0.015625)"/>
       </defs>
       <use xlink:href="#DejaVuSans-36"/>
      </g>
     </g>
    </g>
    <g id="xtick_8">
     <g id="line2d_8">
      <g>
       <use xlink:href="#m1d01ff85a0" x="1017" y="640.8" style="stroke: #000000; stroke-width: 0.8"/>
      </g>
     </g>
     <g id="text_8">
      <!-- 7 -->
      <g transform="translate(1013.81875 655.398438) scale(0.1 -0.1)">
       <defs>
        <path id="DejaVuSans-37" d="M 525 4666 
L 3525 4666 
L 3525 4397 
L 1831 0 
L 1172 0 
L 2766 4134 
L 525 4134 
L 525 4666 
z
" transform="scale(0.015625)"/>
       </defs>
       <use xlink:href="#DejaVuSans-37"/>
      </g>
     </g>
    </g>
    <g id="xtick_9">
     <g id="line2d_9">
      <g>
       <use xlink:href="#m1d01ff85a0" x="1128.6" y="640.8" style="stroke: #000000; stroke-width: 0.8"/>
      </g>
     </g>
     <g id="text_9">
      <!-- 8 -->
      <g transform="translate(1125.41875 655.398438) scale(0.1 -0.1)">
       <defs>
        <path id="DejaVuSans-38" d="M 2034 2216 
Q 1584 2216 1326 1975 
Q 1069 1734 1069 1313 
Q 1069 891 1326 650 
Q 1584 409 2034 409 
Q 2484 409 2743 651 
Q 3003 894 3003 1313 
Q 3003 1734 2745 1975 
Q 2488 2216 2034 2216 
z
M 1403 2484 
Q 997 2584 770 2862 
Q 544 3141 544 3541 
Q 544 4100 942 4425 
Q 1341 4750 2034 4750 
Q 2731 4750 3128 4425 
Q 3525 4100 3525 3541 
Q 3525 3141 3298 2862 
Q 3072 2584 2669 2484 
Q 3125 2378 3379 2068 
Q 3634 1759 3634 1313 
Q 3634 634 3220 271 
Q 2806 -91 2034 -91 
Q 1263 -91 848 271 
Q 434 634 434 1313 
Q 434 1759 690 2068 
Q 947 2378 1403 2484 
z
M 1172 3481 
Q 1172 3119 1398 2916 
Q 1625 2713 2034 2713 
Q 2441 2713 2670 2916 
Q 2900 3119 2900 3481 
Q 2900 3844 2670 4047 
Q 2441 4250 2034 4250 
Q 1625 4250 1398 4047 
Q 1172 3844 1172 3481 
z
" transform="scale(0.015625)"/>
       </defs>
       <use xlink:href="#DejaVuSans-38"/>
      </g>
     </g>
    </g>
    <g id="xtick_10">
     <g id="line2d_10">
      <g>
       <use xlink:href="#m1d01ff85a0" x="1240.2" y="640.8" style="stroke: #000000; stroke-width: 0.8"/>
      </g>
     </g>
     <g id="text_10">
      <!-- 9 -->
      <g transform="translate(1237.01875 655.398438) scale(0.1 -0.1)">
       <defs>
        <path id="DejaVuSans-39" d="M 703 97 
L 703 672 
Q 941 559 1184 500 
Q 1428 441 1663 441 
Q 2288 441 2617 861 
Q 2947 1281 2994 2138 
Q 2813 1869 2534 1725 
Q 2256 1581 1919 1581 
Q 1219 1581 811 2004 
Q 403 2428 403 3163 
Q 403 3881 828 4315 
Q 1253 4750 1959 4750 
Q 2769 4750 3195 4129 
Q 3622 3509 3622 2328 
Q 3622 1225 3098 567 
Q 2575 -91 1691 -91 
Q 1453 -91 1209 -44 
Q 966 3 703 97 
z
M 1959 2075 
Q 2384 2075 2632 2365 
Q 2881 2656 2881 3163 
Q 2881 3666 2632 3958 
Q 2384 4250 1959 4250 
Q 1534 4250 1286 3958 
Q 1038 3666 1038 3163 
Q 1038 2656 1286 2365 
Q 1534 2075 1959 2075 
z
" transform="scale(0.015625)"/>
       </defs>
       <use xlink:href="#DejaVuSans-39"/>
      </g>
     </g>
    </g>
    <g id="text_11">
     <!-- iteration -->
     <g transform="translate(716.877344 669.076563) scale(0.1 -0.1)">
      <defs>
       <path id="DejaVuSans-69" d="M 603 3500 
L 1178 3500 
L 1178 0 
L 603 0 
L 603 3500 
z
M 603 4863 
L 1178 4863 
L 1178 4134 
L 603 4134 
L 603 4863 
z
" transform="scale(0.015625)"/>
       <path id="DejaVuSans-74" d="M 1172 4494 
L 1172 3500 
L 2356 3500 
L 2356 3053 
L 1172 3053 
L 1172 1153 
Q 1172 725 1289 603 
Q 1406 481 1766 481 
L 2356 481 
L 2356 0 
L 1766 0 
Q 1100 0 847 248 
Q 594 497 594 1153 
L 594 3053 
L 172 3053 
L 172 3500 
L 594 3500 
L 594 4494 
L 1172 4494 
z
" transform="scale(0.015625)"/>
       <path id="DejaVuSans-65" d="M 3597 1894 
L 3597 1613 
L 953 1613 
Q 991 1019 1311 708 
Q 1631 397 2203 397 
Q 2534 397 2845 478 
Q 3156 559 3463 722 
L 3463 178 
Q 3153 47 2828 -22 
Q 2503 -91 2169 -91 
Q 1331 -91 842 396 
Q 353 884 353 1716 
Q 353 2575 817 3079 
Q 1281 3584 2069 3584 
Q 2775 3584 3186 3129 
Q 3597 2675 3597 1894 
z
M 3022 2063 
Q 3016 2534 2758 2815 
Q 2500 3097 2075 3097 
Q 1594 3097 1305 2825 
Q 1016 2553 972 2059 
L 3022 2063 
z
" transform="scale(0.015625)"/>
       <path id="DejaVuSans-72" d="M 2631 2963 
Q 2534 3019 2420 3045 
Q 2306 3072 2169 3072 
Q 1681 3072 1420 2755 
Q 1159 2438 1159 1844 
L 1159 0 
L 581 0 
L 581 3500 
L 1159 3500 
L 1159 2956 
Q 1341 3275 1631 3429 
Q 1922 3584 2338 3584 
Q 2397 3584 2469 3576 
Q 2541 3569 2628 3553 
L 2631 2963 
z
" transform="scale(0.015625)"/>
       <path id="DejaVuSans-61" d="M 2194 1759 
Q 1497 1759 1228 1600 
Q 959 1441 959 1056 
Q 959 750 1161 570 
Q 1363 391 1709 391 
Q 2188 391 2477 730 
Q 2766 1069 2766 1631 
L 2766 1759 
L 2194 1759 
z
M 3341 1997 
L 3341 0 
L 2766 0 
L 2766 531 
Q 2569 213 2275 61 
Q 1981 -91 1556 -91 
Q 1019 -91 701 211 
Q 384 513 384 1019 
Q 384 1609 779 1909 
Q 1175 2209 1959 2209 
L 2766 2209 
L 2766 2266 
Q 2766 2663 2505 2880 
Q 2244 3097 1772 3097 
Q 1472 3097 1187 3025 
Q 903 2953 641 2809 
L 641 3341 
Q 956 3463 1253 3523 
Q 1550 3584 1831 3584 
Q 2591 3584 2966 3190 
Q 3341 2797 3341 1997 
z
" transform="scale(0.015625)"/>
       <path id="DejaVuSans-6f" d="M 1959 3097 
Q 1497 3097 1228 2736 
Q 959 2375 959 1747 
Q 959 1119 1226 758 
Q 1494 397 1959 397 
Q 2419 397 2687 759 
Q 2956 1122 2956 1747 
Q 2956 2369 2687 2733 
Q 2419 3097 1959 3097 
z
M 1959 3584 
Q 2709 3584 3137 3096 
Q 3566 2609 3566 1747 
Q 3566 888 3137 398 
Q 2709 -91 1959 -91 
Q 1206 -91 779 398 
Q 353 888 353 1747 
Q 353 2609 779 3096 
Q 1206 3584 1959 3584 
z
" transform="scale(0.015625)"/>
       <path id="DejaVuSans-6e" d="M 3513 2113 
L 3513 0 
L 2938 0 
L 2938 2094 
Q 2938 2591 2744 2837 
Q 2550 3084 2163 3084 
Q 1697 3084 1428 2787 
Q 1159 2491 1159 1978 
L 1159 0 
L 581 0 
L 581 3500 
L 1159 3500 
L 1159 2956 
Q 1366 3272 1645 3428 
Q 1925 3584 2291 3584 
Q 2894 3584 3203 3211 
Q 3513 2838 3513 2113 
z
" transform="scale(0.015625)"/>
      </defs>
      <use xlink:href="#DejaVuSans-69"/>
      <use xlink:href="#DejaVuSans-74" x="27.783203"/>
      <use xlink:href="#DejaVuSans-65" x="66.992188"/>
      <use xlink:href="#DejaVuSans-72" x="128.515625"/>
      <use xlink:href="#DejaVuSans-61" x="169.628906"/>
      <use xlink:href="#DejaVuSans-74" x="230.908203"/>
      <use xlink:href="#DejaVuSans-69" x="270.117188"/>
      <use xlink:href="#DejaVuSans-6f" x="297.900391"/>
      <use xlink:href="#DejaVuSans-6e" x="359.082031"/>
     </g>
    </g>
   </g>
   <g id="matplotlib.axis_2">
    <g id="ytick_1">
     <g id="line2d_11">
      <defs>
       <path id="m1428ba200d" d="M 0 0 
L -3.5 0 
" style="stroke: #000000; stroke-width: 0.8"/>
      </defs>
      <g>
       <use xlink:href="#m1428ba200d" x="180" y="586.642763" style="stroke: #000000; stroke-width: 0.8"/>
      </g>
     </g>
     <g id="text_12">
      <!-- 0.2 -->
      <g transform="translate(148.717187 590.441982) scale(0.1 -0.1)">
       <defs>
        <path id="DejaVuSans-2212" d="M 678 2272 
L 4684 2272 
L 4684 1741 
L 678 1741 
L 678 2272 
z
" transform="scale(0.015625)"/>
        <path id="DejaVuSans-2e" d="M 684 794 
L 1344 794 
L 1344 0 
L 684 0 
L 684 794 
z
" transform="scale(0.015625)"/>
       </defs>
       <use xlink:href="#DejaVuSans-2212"/>
       <use xlink:href="#DejaVuSans-30" x="83.789062"/>
       <use xlink:href="#DejaVuSans-2e" x="147.412109"/>
       <use xlink:href="#DejaVuSans-32" x="179.199219"/>
      </g>
     </g>
    </g>
    <g id="ytick_2">
     <g id="line2d_12">
      <g>
       <use xlink:href="#m1428ba200d" x="180" y="515.435239" style="stroke: #000000; stroke-width: 0.8"/>
      </g>
     </g>
     <g id="text_13">
      <!-- 0.0 -->
      <g transform="translate(157.096875 519.234458) scale(0.1 -0.1)">
       <use xlink:href="#DejaVuSans-30"/>
       <use xlink:href="#DejaVuSans-2e" x="63.623047"/>
       <use xlink:href="#DejaVuSans-30" x="95.410156"/>
      </g>
     </g>
    </g>
    <g id="ytick_3">
     <g id="line2d_13">
      <g>
       <use xlink:href="#m1428ba200d" x="180" y="444.227716" style="stroke: #000000; stroke-width: 0.8"/>
      </g>
     </g>
     <g id="text_14">
      <!-- 0.2 -->
      <g transform="translate(157.096875 448.026935) scale(0.1 -0.1)">
       <use xlink:href="#DejaVuSans-30"/>
       <use xlink:href="#DejaVuSans-2e" x="63.623047"/>
       <use xlink:href="#DejaVuSans-32" x="95.410156"/>
      </g>
     </g>
    </g>
    <g id="ytick_4">
     <g id="line2d_14">
      <g>
       <use xlink:href="#m1428ba200d" x="180" y="373.020193" style="stroke: #000000; stroke-width: 0.8"/>
      </g>
     </g>
     <g id="text_15">
      <!-- 0.4 -->
      <g transform="translate(157.096875 376.819411) scale(0.1 -0.1)">
       <use xlink:href="#DejaVuSans-30"/>
       <use xlink:href="#DejaVuSans-2e" x="63.623047"/>
       <use xlink:href="#DejaVuSans-34" x="95.410156"/>
      </g>
     </g>
    </g>
    <g id="ytick_5">
     <g id="line2d_15">
      <g>
       <use xlink:href="#m1428ba200d" x="180" y="301.812669" style="stroke: #000000; stroke-width: 0.8"/>
      </g>
     </g>
     <g id="text_16">
      <!-- 0.6 -->
      <g transform="translate(157.096875 305.611888) scale(0.1 -0.1)">
       <use xlink:href="#DejaVuSans-30"/>
       <use xlink:href="#DejaVuSans-2e" x="63.623047"/>
       <use xlink:href="#DejaVuSans-36" x="95.410156"/>
      </g>
     </g>
    </g>
    <g id="ytick_6">
     <g id="line2d_16">
      <g>
       <use xlink:href="#m1428ba200d" x="180" y="230.605146" style="stroke: #000000; stroke-width: 0.8"/>
      </g>
     </g>
     <g id="text_17">
      <!-- 0.8 -->
      <g transform="translate(157.096875 234.404364) scale(0.1 -0.1)">
       <use xlink:href="#DejaVuSans-30"/>
       <use xlink:href="#DejaVuSans-2e" x="63.623047"/>
       <use xlink:href="#DejaVuSans-38" x="95.410156"/>
      </g>
     </g>
    </g>
    <g id="ytick_7">
     <g id="line2d_17">
      <g>
       <use xlink:href="#m1428ba200d" x="180" y="159.397622" style="stroke: #000000; stroke-width: 0.8"/>
      </g>
     </g>
     <g id="text_18">
      <!-- 1.0 -->
      <g transform="translate(157.096875 163.196841) scale(0.1 -0.1)">
       <use xlink:href="#DejaVuSans-31"/>
       <use xlink:href="#DejaVuSans-2e" x="63.623047"/>
       <use xlink:href="#DejaVuSans-30" x="95.410156"/>
      </g>
     </g>
    </g>
    <g id="ytick_8">
     <g id="line2d_18">
      <g>
       <use xlink:href="#m1428ba200d" x="180" y="88.190099" style="stroke: #000000; stroke-width: 0.8"/>
      </g>
     </g>
     <g id="text_19">
      <!-- 1.2 -->
      <g transform="translate(157.096875 91.989317) scale(0.1 -0.1)">
       <use xlink:href="#DejaVuSans-31"/>
       <use xlink:href="#DejaVuSans-2e" x="63.623047"/>
       <use xlink:href="#DejaVuSans-32" x="95.410156"/>
      </g>
     </g>
    </g>
    <g id="text_20">
     <!-- cosine similarity -->
     <g transform="translate(142.6375 404.307031) rotate(-90) scale(0.1 -0.1)">
      <defs>
       <path id="DejaVuSans-63" d="M 3122 3366 
L 3122 2828 
Q 2878 2963 2633 3030 
Q 2388 3097 2138 3097 
Q 1578 3097 1268 2742 
Q 959 2388 959 1747 
Q 959 1106 1268 751 
Q 1578 397 2138 397 
Q 2388 397 2633 464 
Q 2878 531 3122 666 
L 3122 134 
Q 2881 22 2623 -34 
Q 2366 -91 2075 -91 
Q 1284 -91 818 406 
Q 353 903 353 1747 
Q 353 2603 823 3093 
Q 1294 3584 2113 3584 
Q 2378 3584 2631 3529 
Q 2884 3475 3122 3366 
z
" transform="scale(0.015625)"/>
       <path id="DejaVuSans-73" d="M 2834 3397 
L 2834 2853 
Q 2591 2978 2328 3040 
Q 2066 3103 1784 3103 
Q 1356 3103 1142 2972 
Q 928 2841 928 2578 
Q 928 2378 1081 2264 
Q 1234 2150 1697 2047 
L 1894 2003 
Q 2506 1872 2764 1633 
Q 3022 1394 3022 966 
Q 3022 478 2636 193 
Q 2250 -91 1575 -91 
Q 1294 -91 989 -36 
Q 684 19 347 128 
L 347 722 
Q 666 556 975 473 
Q 1284 391 1588 391 
Q 1994 391 2212 530 
Q 2431 669 2431 922 
Q 2431 1156 2273 1281 
Q 2116 1406 1581 1522 
L 1381 1569 
Q 847 1681 609 1914 
Q 372 2147 372 2553 
Q 372 3047 722 3315 
Q 1072 3584 1716 3584 
Q 2034 3584 2315 3537 
Q 2597 3491 2834 3397 
z
" transform="scale(0.015625)"/>
       <path id="DejaVuSans-20" transform="scale(0.015625)"/>
       <path id="DejaVuSans-6d" d="M 3328 2828 
Q 3544 3216 3844 3400 
Q 4144 3584 4550 3584 
Q 5097 3584 5394 3201 
Q 5691 2819 5691 2113 
L 5691 0 
L 5113 0 
L 5113 2094 
Q 5113 2597 4934 2840 
Q 4756 3084 4391 3084 
Q 3944 3084 3684 2787 
Q 3425 2491 3425 1978 
L 3425 0 
L 2847 0 
L 2847 2094 
Q 2847 2600 2669 2842 
Q 2491 3084 2119 3084 
Q 1678 3084 1418 2786 
Q 1159 2488 1159 1978 
L 1159 0 
L 581 0 
L 581 3500 
L 1159 3500 
L 1159 2956 
Q 1356 3278 1631 3431 
Q 1906 3584 2284 3584 
Q 2666 3584 2933 3390 
Q 3200 3197 3328 2828 
z
" transform="scale(0.015625)"/>
       <path id="DejaVuSans-6c" d="M 603 4863 
L 1178 4863 
L 1178 0 
L 603 0 
L 603 4863 
z
" transform="scale(0.015625)"/>
       <path id="DejaVuSans-79" d="M 2059 -325 
Q 1816 -950 1584 -1140 
Q 1353 -1331 966 -1331 
L 506 -1331 
L 506 -850 
L 844 -850 
Q 1081 -850 1212 -737 
Q 1344 -625 1503 -206 
L 1606 56 
L 191 3500 
L 800 3500 
L 1894 763 
L 2988 3500 
L 3597 3500 
L 2059 -325 
z
" transform="scale(0.015625)"/>
      </defs>
      <use xlink:href="#DejaVuSans-63"/>
      <use xlink:href="#DejaVuSans-6f" x="54.980469"/>
      <use xlink:href="#DejaVuSans-73" x="116.162109"/>
      <use xlink:href="#DejaVuSans-69" x="168.261719"/>
      <use xlink:href="#DejaVuSans-6e" x="196.044922"/>
      <use xlink:href="#DejaVuSans-65" x="259.423828"/>
      <use xlink:href="#DejaVuSans-20" x="320.947266"/>
      <use xlink:href="#DejaVuSans-73" x="352.734375"/>
      <use xlink:href="#DejaVuSans-69" x="404.833984"/>
      <use xlink:href="#DejaVuSans-6d" x="432.617188"/>
      <use xlink:href="#DejaVuSans-69" x="530.029297"/>
      <use xlink:href="#DejaVuSans-6c" x="557.8125"/>
      <use xlink:href="#DejaVuSans-61" x="585.595703"/>
      <use xlink:href="#DejaVuSans-72" x="646.875"/>
      <use xlink:href="#DejaVuSans-69" x="687.988281"/>
      <use xlink:href="#DejaVuSans-74" x="715.771484"/>
      <use xlink:href="#DejaVuSans-79" x="754.980469"/>
     </g>
    </g>
   </g>
   <g id="line2d_19">
    <path d="M 235.8 510.932618 
L 235.8 159.39758 
" clip-path="url(#pbb202f4795)" style="fill: none; stroke: #3f3f3f; stroke-width: 1.875; stroke-linecap: square"/>
   </g>
   <g id="line2d_20">
    <path d="M 235.8 363.386292 
L 235.8 261.864049 
" clip-path="url(#pbb202f4795)" style="fill: none; stroke: #3f3f3f; stroke-width: 5.625; stroke-linecap: square"/>
   </g>
   <g id="line2d_21">
    <path d="M 235.8 304.098003 
" clip-path="url(#pbb202f4795)" style="fill: none; stroke: #3f3f3f; stroke-width: 1.5; stroke-linecap: square"/>
    <defs>
     <path id="m236fbf2e31" d="M 2.34375 0 
L -2.34375 -0 
" style="stroke: #ffffff; stroke-width: 1.125"/>
    </defs>
    <g clip-path="url(#pbb202f4795)">
     <use xlink:href="#m236fbf2e31" x="235.8" y="304.098003" style="fill: #ffffff; stroke: #ffffff; stroke-width: 1.125"/>
    </g>
   </g>
   <g id="line2d_22">
    <path d="M 347.4 545.204812 
L 347.4 159.397622 
" clip-path="url(#pbb202f4795)" style="fill: none; stroke: #3f3f3f; stroke-width: 1.875; stroke-linecap: square"/>
   </g>
   <g id="line2d_23">
    <path d="M 347.4 411.437207 
L 347.4 288.947028 
" clip-path="url(#pbb202f4795)" style="fill: none; stroke: #3f3f3f; stroke-width: 5.625; stroke-linecap: square"/>
   </g>
   <g id="line2d_24">
    <path d="M 347.4 350.866816 
" clip-path="url(#pbb202f4795)" style="fill: none; stroke: #3f3f3f; stroke-width: 1.5; stroke-linecap: square"/>
    <g clip-path="url(#pbb202f4795)">
     <use xlink:href="#m236fbf2e31" x="347.4" y="350.866816" style="fill: #ffffff; stroke: #ffffff; stroke-width: 1.125"/>
    </g>
   </g>
   <g id="line2d_25">
    <path d="M 459 545.204812 
L 459 159.397622 
" clip-path="url(#pbb202f4795)" style="fill: none; stroke: #3f3f3f; stroke-width: 1.875; stroke-linecap: square"/>
   </g>
   <g id="line2d_26">
    <path d="M 459 428.081664 
L 459 305.942157 
" clip-path="url(#pbb202f4795)" style="fill: none; stroke: #3f3f3f; stroke-width: 5.625; stroke-linecap: square"/>
   </g>
   <g id="line2d_27">
    <path d="M 459 370.336005 
" clip-path="url(#pbb202f4795)" style="fill: none; stroke: #3f3f3f; stroke-width: 1.5; stroke-linecap: square"/>
    <g clip-path="url(#pbb202f4795)">
     <use xlink:href="#m236fbf2e31" x="459" y="370.336005" style="fill: #ffffff; stroke: #ffffff; stroke-width: 1.125"/>
    </g>
   </g>
   <g id="line2d_28">
    <path d="M 570.6 557.337478 
L 570.6 186.867023 
" clip-path="url(#pbb202f4795)" style="fill: none; stroke: #3f3f3f; stroke-width: 1.875; stroke-linecap: square"/>
   </g>
   <g id="line2d_29">
    <path d="M 570.6 439.531975 
L 570.6 315.090553 
" clip-path="url(#pbb202f4795)" style="fill: none; stroke: #3f3f3f; stroke-width: 5.625; stroke-linecap: square"/>
   </g>
   <g id="line2d_30">
    <path d="M 570.6 382.394866 
" clip-path="url(#pbb202f4795)" style="fill: none; stroke: #3f3f3f; stroke-width: 1.5; stroke-linecap: square"/>
    <g clip-path="url(#pbb202f4795)">
     <use xlink:href="#m236fbf2e31" x="570.6" y="382.394866" style="fill: #ffffff; stroke: #ffffff; stroke-width: 1.125"/>
    </g>
   </g>
   <g id="line2d_31">
    <path d="M 682.2 557.337478 
L 682.2 186.867023 
" clip-path="url(#pbb202f4795)" style="fill: none; stroke: #3f3f3f; stroke-width: 1.875; stroke-linecap: square"/>
   </g>
   <g id="line2d_32">
    <path d="M 682.2 447.15856 
L 682.2 330.113775 
" clip-path="url(#pbb202f4795)" style="fill: none; stroke: #3f3f3f; stroke-width: 5.625; stroke-linecap: square"/>
   </g>
   <g id="line2d_33">
    <path d="M 682.2 390.444885 
" clip-path="url(#pbb202f4795)" style="fill: none; stroke: #3f3f3f; stroke-width: 1.5; stroke-linecap: square"/>
    <g clip-path="url(#pbb202f4795)">
     <use xlink:href="#m236fbf2e31" x="682.2" y="390.444885" style="fill: #ffffff; stroke: #ffffff; stroke-width: 1.125"/>
    </g>
   </g>
   <g id="line2d_34">
    <path d="M 793.8 557.337478 
L 793.8 186.867023 
" clip-path="url(#pbb202f4795)" style="fill: none; stroke: #3f3f3f; stroke-width: 1.875; stroke-linecap: square"/>
   </g>
   <g id="line2d_35">
    <path d="M 793.8 453.83421 
L 793.8 334.081908 
" clip-path="url(#pbb202f4795)" style="fill: none; stroke: #3f3f3f; stroke-width: 5.625; stroke-linecap: square"/>
   </g>
   <g id="line2d_36">
    <path d="M 793.8 397.229736 
" clip-path="url(#pbb202f4795)" style="fill: none; stroke: #3f3f3f; stroke-width: 1.5; stroke-linecap: square"/>
    <g clip-path="url(#pbb202f4795)">
     <use xlink:href="#m236fbf2e31" x="793.8" y="397.229736" style="fill: #ffffff; stroke: #ffffff; stroke-width: 1.125"/>
    </g>
   </g>
   <g id="line2d_37">
    <path d="M 905.4 557.337478 
L 905.4 186.867023 
" clip-path="url(#pbb202f4795)" style="fill: none; stroke: #3f3f3f; stroke-width: 1.875; stroke-linecap: square"/>
   </g>
   <g id="line2d_38">
    <path d="M 905.4 458.350155 
L 905.4 337.717543 
" clip-path="url(#pbb202f4795)" style="fill: none; stroke: #3f3f3f; stroke-width: 5.625; stroke-linecap: square"/>
   </g>
   <g id="line2d_39">
    <path d="M 905.4 401.675571 
" clip-path="url(#pbb202f4795)" style="fill: none; stroke: #3f3f3f; stroke-width: 1.5; stroke-linecap: square"/>
    <g clip-path="url(#pbb202f4795)">
     <use xlink:href="#m236fbf2e31" x="905.4" y="401.675571" style="fill: #ffffff; stroke: #ffffff; stroke-width: 1.125"/>
    </g>
   </g>
   <g id="line2d_40">
    <path d="M 1017 568.81997 
L 1017 186.867023 
" clip-path="url(#pbb202f4795)" style="fill: none; stroke: #3f3f3f; stroke-width: 1.875; stroke-linecap: square"/>
   </g>
   <g id="line2d_41">
    <path d="M 1017 458.799198 
L 1017 340.205561 
" clip-path="url(#pbb202f4795)" style="fill: none; stroke: #3f3f3f; stroke-width: 5.625; stroke-linecap: square"/>
   </g>
   <g id="line2d_42">
    <path d="M 1017 405.82354 
" clip-path="url(#pbb202f4795)" style="fill: none; stroke: #3f3f3f; stroke-width: 1.5; stroke-linecap: square"/>
    <g clip-path="url(#pbb202f4795)">
     <use xlink:href="#m236fbf2e31" x="1017" y="405.82354" style="fill: #ffffff; stroke: #ffffff; stroke-width: 1.125"/>
    </g>
   </g>
   <g id="line2d_43">
    <path d="M 1128.6 568.81997 
L 1128.6 185.474341 
" clip-path="url(#pbb202f4795)" style="fill: none; stroke: #3f3f3f; stroke-width: 1.875; stroke-linecap: square"/>
   </g>
   <g id="line2d_44">
    <path d="M 1128.6 459.455759 
L 1128.6 345.081335 
" clip-path="url(#pbb202f4795)" style="fill: none; stroke: #3f3f3f; stroke-width: 5.625; stroke-linecap: square"/>
   </g>
   <g id="line2d_45">
    <path d="M 1128.6 410.63648 
" clip-path="url(#pbb202f4795)" style="fill: none; stroke: #3f3f3f; stroke-width: 1.5; stroke-linecap: square"/>
    <g clip-path="url(#pbb202f4795)">
     <use xlink:href="#m236fbf2e31" x="1128.6" y="410.63648" style="fill: #ffffff; stroke: #ffffff; stroke-width: 1.125"/>
    </g>
   </g>
   <g id="line2d_46">
    <path d="M 1240.2 568.81997 
L 1240.2 185.474341 
" clip-path="url(#pbb202f4795)" style="fill: none; stroke: #3f3f3f; stroke-width: 1.875; stroke-linecap: square"/>
   </g>
   <g id="line2d_47">
    <path d="M 1240.2 461.969067 
L 1240.2 345.787327 
" clip-path="url(#pbb202f4795)" style="fill: none; stroke: #3f3f3f; stroke-width: 5.625; stroke-linecap: square"/>
   </g>
   <g id="line2d_48">
    <path d="M 1240.2 413.683807 
" clip-path="url(#pbb202f4795)" style="fill: none; stroke: #3f3f3f; stroke-width: 1.5; stroke-linecap: square"/>
    <g clip-path="url(#pbb202f4795)">
     <use xlink:href="#m236fbf2e31" x="1240.2" y="413.683807" style="fill: #ffffff; stroke: #ffffff; stroke-width: 1.125"/>
    </g>
   </g>
   <g id="patch_3">
    <path d="M 180 640.8 
L 180 86.4 
" style="fill: none; stroke: #000000; stroke-width: 0.8; stroke-linejoin: miter; stroke-linecap: square"/>
   </g>
   <g id="patch_4">
    <path d="M 1296 640.8 
L 1296 86.4 
" style="fill: none; stroke: #000000; stroke-width: 0.8; stroke-linejoin: miter; stroke-linecap: square"/>
   </g>
   <g id="patch_5">
    <path d="M 180 640.8 
L 1296 640.8 
" style="fill: none; stroke: #000000; stroke-width: 0.8; stroke-linejoin: miter; stroke-linecap: square"/>
   </g>
   <g id="patch_6">
    <path d="M 180 86.4 
L 1296 86.4 
" style="fill: none; stroke: #000000; stroke-width: 0.8; stroke-linejoin: miter; stroke-linecap: square"/>
   </g>
   <g id="text_21">
    <!-- cosine similarity of max_fs_glit (distanceFromInitialPrompt), by iteration -->
    <g transform="translate(522.321563 80.4) scale(0.12 -0.12)">
     <defs>
      <path id="DejaVuSans-66" d="M 2375 4863 
L 2375 4384 
L 1825 4384 
Q 1516 4384 1395 4259 
Q 1275 4134 1275 3809 
L 1275 3500 
L 2222 3500 
L 2222 3053 
L 1275 3053 
L 1275 0 
L 697 0 
L 697 3053 
L 147 3053 
L 147 3500 
L 697 3500 
L 697 3744 
Q 697 4328 969 4595 
Q 1241 4863 1831 4863 
L 2375 4863 
z
" transform="scale(0.015625)"/>
      <path id="DejaVuSans-78" d="M 3513 3500 
L 2247 1797 
L 3578 0 
L 2900 0 
L 1881 1375 
L 863 0 
L 184 0 
L 1544 1831 
L 300 3500 
L 978 3500 
L 1906 2253 
L 2834 3500 
L 3513 3500 
z
" transform="scale(0.015625)"/>
      <path id="DejaVuSans-5f" d="M 3263 -1063 
L 3263 -1509 
L -63 -1509 
L -63 -1063 
L 3263 -1063 
z
" transform="scale(0.015625)"/>
      <path id="DejaVuSans-67" d="M 2906 1791 
Q 2906 2416 2648 2759 
Q 2391 3103 1925 3103 
Q 1463 3103 1205 2759 
Q 947 2416 947 1791 
Q 947 1169 1205 825 
Q 1463 481 1925 481 
Q 2391 481 2648 825 
Q 2906 1169 2906 1791 
z
M 3481 434 
Q 3481 -459 3084 -895 
Q 2688 -1331 1869 -1331 
Q 1566 -1331 1297 -1286 
Q 1028 -1241 775 -1147 
L 775 -588 
Q 1028 -725 1275 -790 
Q 1522 -856 1778 -856 
Q 2344 -856 2625 -561 
Q 2906 -266 2906 331 
L 2906 616 
Q 2728 306 2450 153 
Q 2172 0 1784 0 
Q 1141 0 747 490 
Q 353 981 353 1791 
Q 353 2603 747 3093 
Q 1141 3584 1784 3584 
Q 2172 3584 2450 3431 
Q 2728 3278 2906 2969 
L 2906 3500 
L 3481 3500 
L 3481 434 
z
" transform="scale(0.015625)"/>
      <path id="DejaVuSans-28" d="M 1984 4856 
Q 1566 4138 1362 3434 
Q 1159 2731 1159 2009 
Q 1159 1288 1364 580 
Q 1569 -128 1984 -844 
L 1484 -844 
Q 1016 -109 783 600 
Q 550 1309 550 2009 
Q 550 2706 781 3412 
Q 1013 4119 1484 4856 
L 1984 4856 
z
" transform="scale(0.015625)"/>
      <path id="DejaVuSans-64" d="M 2906 2969 
L 2906 4863 
L 3481 4863 
L 3481 0 
L 2906 0 
L 2906 525 
Q 2725 213 2448 61 
Q 2172 -91 1784 -91 
Q 1150 -91 751 415 
Q 353 922 353 1747 
Q 353 2572 751 3078 
Q 1150 3584 1784 3584 
Q 2172 3584 2448 3432 
Q 2725 3281 2906 2969 
z
M 947 1747 
Q 947 1113 1208 752 
Q 1469 391 1925 391 
Q 2381 391 2643 752 
Q 2906 1113 2906 1747 
Q 2906 2381 2643 2742 
Q 2381 3103 1925 3103 
Q 1469 3103 1208 2742 
Q 947 2381 947 1747 
z
" transform="scale(0.015625)"/>
      <path id="DejaVuSans-46" d="M 628 4666 
L 3309 4666 
L 3309 4134 
L 1259 4134 
L 1259 2759 
L 3109 2759 
L 3109 2228 
L 1259 2228 
L 1259 0 
L 628 0 
L 628 4666 
z
" transform="scale(0.015625)"/>
      <path id="DejaVuSans-49" d="M 628 4666 
L 1259 4666 
L 1259 0 
L 628 0 
L 628 4666 
z
" transform="scale(0.015625)"/>
      <path id="DejaVuSans-50" d="M 1259 4147 
L 1259 2394 
L 2053 2394 
Q 2494 2394 2734 2622 
Q 2975 2850 2975 3272 
Q 2975 3691 2734 3919 
Q 2494 4147 2053 4147 
L 1259 4147 
z
M 628 4666 
L 2053 4666 
Q 2838 4666 3239 4311 
Q 3641 3956 3641 3272 
Q 3641 2581 3239 2228 
Q 2838 1875 2053 1875 
L 1259 1875 
L 1259 0 
L 628 0 
L 628 4666 
z
" transform="scale(0.015625)"/>
      <path id="DejaVuSans-70" d="M 1159 525 
L 1159 -1331 
L 581 -1331 
L 581 3500 
L 1159 3500 
L 1159 2969 
Q 1341 3281 1617 3432 
Q 1894 3584 2278 3584 
Q 2916 3584 3314 3078 
Q 3713 2572 3713 1747 
Q 3713 922 3314 415 
Q 2916 -91 2278 -91 
Q 1894 -91 1617 61 
Q 1341 213 1159 525 
z
M 3116 1747 
Q 3116 2381 2855 2742 
Q 2594 3103 2138 3103 
Q 1681 3103 1420 2742 
Q 1159 2381 1159 1747 
Q 1159 1113 1420 752 
Q 1681 391 2138 391 
Q 2594 391 2855 752 
Q 3116 1113 3116 1747 
z
" transform="scale(0.015625)"/>
      <path id="DejaVuSans-29" d="M 513 4856 
L 1013 4856 
Q 1481 4119 1714 3412 
Q 1947 2706 1947 2009 
Q 1947 1309 1714 600 
Q 1481 -109 1013 -844 
L 513 -844 
Q 928 -128 1133 580 
Q 1338 1288 1338 2009 
Q 1338 2731 1133 3434 
Q 928 4138 513 4856 
z
" transform="scale(0.015625)"/>
      <path id="DejaVuSans-2c" d="M 750 794 
L 1409 794 
L 1409 256 
L 897 -744 
L 494 -744 
L 750 256 
L 750 794 
z
" transform="scale(0.015625)"/>
      <path id="DejaVuSans-62" d="M 3116 1747 
Q 3116 2381 2855 2742 
Q 2594 3103 2138 3103 
Q 1681 3103 1420 2742 
Q 1159 2381 1159 1747 
Q 1159 1113 1420 752 
Q 1681 391 2138 391 
Q 2594 391 2855 752 
Q 3116 1113 3116 1747 
z
M 1159 2969 
Q 1341 3281 1617 3432 
Q 1894 3584 2278 3584 
Q 2916 3584 3314 3078 
Q 3713 2572 3713 1747 
Q 3713 922 3314 415 
Q 2916 -91 2278 -91 
Q 1894 -91 1617 61 
Q 1341 213 1159 525 
L 1159 0 
L 581 0 
L 581 4863 
L 1159 4863 
L 1159 2969 
z
" transform="scale(0.015625)"/>
     </defs>
     <use xlink:href="#DejaVuSans-63"/>
     <use xlink:href="#DejaVuSans-6f" x="54.980469"/>
     <use xlink:href="#DejaVuSans-73" x="116.162109"/>
     <use xlink:href="#DejaVuSans-69" x="168.261719"/>
     <use xlink:href="#DejaVuSans-6e" x="196.044922"/>
     <use xlink:href="#DejaVuSans-65" x="259.423828"/>
     <use xlink:href="#DejaVuSans-20" x="320.947266"/>
     <use xlink:href="#DejaVuSans-73" x="352.734375"/>
     <use xlink:href="#DejaVuSans-69" x="404.833984"/>
     <use xlink:href="#DejaVuSans-6d" x="432.617188"/>
     <use xlink:href="#DejaVuSans-69" x="530.029297"/>
     <use xlink:href="#DejaVuSans-6c" x="557.8125"/>
     <use xlink:href="#DejaVuSans-61" x="585.595703"/>
     <use xlink:href="#DejaVuSans-72" x="646.875"/>
     <use xlink:href="#DejaVuSans-69" x="687.988281"/>
     <use xlink:href="#DejaVuSans-74" x="715.771484"/>
     <use xlink:href="#DejaVuSans-79" x="754.980469"/>
     <use xlink:href="#DejaVuSans-20" x="814.160156"/>
     <use xlink:href="#DejaVuSans-6f" x="845.947266"/>
     <use xlink:href="#DejaVuSans-66" x="907.128906"/>
     <use xlink:href="#DejaVuSans-20" x="942.333984"/>
     <use xlink:href="#DejaVuSans-6d" x="974.121094"/>
     <use xlink:href="#DejaVuSans-61" x="1071.533203"/>
     <use xlink:href="#DejaVuSans-78" x="1132.8125"/>
     <use xlink:href="#DejaVuSans-5f" x="1191.992188"/>
     <use xlink:href="#DejaVuSans-66" x="1241.992188"/>
     <use xlink:href="#DejaVuSans-73" x="1277.197266"/>
     <use xlink:href="#DejaVuSans-5f" x="1329.296875"/>
     <use xlink:href="#DejaVuSans-67" x="1379.296875"/>
     <use xlink:href="#DejaVuSans-6c" x="1442.773438"/>
     <use xlink:href="#DejaVuSans-69" x="1470.556641"/>
     <use xlink:href="#DejaVuSans-74" x="1498.339844"/>
     <use xlink:href="#DejaVuSans-20" x="1537.548828"/>
     <use xlink:href="#DejaVuSans-28" x="1569.335938"/>
     <use xlink:href="#DejaVuSans-64" x="1608.349609"/>
     <use xlink:href="#DejaVuSans-69" x="1671.826172"/>
     <use xlink:href="#DejaVuSans-73" x="1699.609375"/>
     <use xlink:href="#DejaVuSans-74" x="1751.708984"/>
     <use xlink:href="#DejaVuSans-61" x="1790.917969"/>
     <use xlink:href="#DejaVuSans-6e" x="1852.197266"/>
     <use xlink:href="#DejaVuSans-63" x="1915.576172"/>
     <use xlink:href="#DejaVuSans-65" x="1970.556641"/>
     <use xlink:href="#DejaVuSans-46" x="2032.080078"/>
     <use xlink:href="#DejaVuSans-72" x="2082.349609"/>
     <use xlink:href="#DejaVuSans-6f" x="2121.212891"/>
     <use xlink:href="#DejaVuSans-6d" x="2182.394531"/>
     <use xlink:href="#DejaVuSans-49" x="2279.806641"/>
     <use xlink:href="#DejaVuSans-6e" x="2309.298828"/>
     <use xlink:href="#DejaVuSans-69" x="2372.677734"/>
     <use xlink:href="#DejaVuSans-74" x="2400.460938"/>
     <use xlink:href="#DejaVuSans-69" x="2439.669922"/>
     <use xlink:href="#DejaVuSans-61" x="2467.453125"/>
     <use xlink:href="#DejaVuSans-6c" x="2528.732422"/>
     <use xlink:href="#DejaVuSans-50" x="2556.515625"/>
     <use xlink:href="#DejaVuSans-72" x="2615.068359"/>
     <use xlink:href="#DejaVuSans-6f" x="2653.931641"/>
     <use xlink:href="#DejaVuSans-6d" x="2715.113281"/>
     <use xlink:href="#DejaVuSans-70" x="2812.525391"/>
     <use xlink:href="#DejaVuSans-74" x="2876.001953"/>
     <use xlink:href="#DejaVuSans-29" x="2915.210938"/>
     <use xlink:href="#DejaVuSans-2c" x="2954.224609"/>
     <use xlink:href="#DejaVuSans-20" x="2986.011719"/>
     <use xlink:href="#DejaVuSans-62" x="3017.798828"/>
     <use xlink:href="#DejaVuSans-79" x="3081.275391"/>
     <use xlink:href="#DejaVuSans-20" x="3140.455078"/>
     <use xlink:href="#DejaVuSans-69" x="3172.242188"/>
     <use xlink:href="#DejaVuSans-74" x="3200.025391"/>
     <use xlink:href="#DejaVuSans-65" x="3239.234375"/>
     <use xlink:href="#DejaVuSans-72" x="3300.757812"/>
     <use xlink:href="#DejaVuSans-61" x="3341.871094"/>
     <use xlink:href="#DejaVuSans-74" x="3403.150391"/>
     <use xlink:href="#DejaVuSans-69" x="3442.359375"/>
     <use xlink:href="#DejaVuSans-6f" x="3470.142578"/>
     <use xlink:href="#DejaVuSans-6e" x="3531.324219"/>
    </g>
   </g>
  </g>
 </g>
 <defs>
  <clipPath id="pbb202f4795">
   <rect x="180" y="86.4" width="1116" height="554.4"/>
  </clipPath>
 </defs>
</svg>
