<?xml version="1.0" encoding="utf-8" standalone="no"?>
<!DOCTYPE svg PUBLIC "-//W3C//DTD SVG 1.1//EN"
  "http://www.w3.org/Graphics/SVG/1.1/DTD/svg11.dtd">
<svg xmlns:xlink="http://www.w3.org/1999/xlink" width="1440pt" height="720pt" viewBox="0 0 1440 720" xmlns="http://www.w3.org/2000/svg" version="1.1">
 <metadata>
  <rdf:RDF xmlns:dc="http://purl.org/dc/elements/1.1/" xmlns:cc="http://creativecommons.org/ns#" xmlns:rdf="http://www.w3.org/1999/02/22-rdf-syntax-ns#">
   <cc:Work>
    <dc:type rdf:resource="http://purl.org/dc/dcmitype/StillImage"/>
    <dc:date>2024-07-25T19:43:55.410746</dc:date>
    <dc:format>image/svg+xml</dc:format>
    <dc:creator>
     <cc:Agent>
      <dc:title>Matplotlib v3.8.0, https://matplotlib.org/</dc:title>
     </cc:Agent>
    </dc:creator>
   </cc:Work>
  </rdf:RDF>
 </metadata>
 <defs>
  <style type="text/css">*{stroke-linejoin: round; stroke-linecap: butt}</style>
 </defs>
 <g id="figure_1">
  <g id="patch_1">
   <path d="M 0 720 
L 1440 720 
L 1440 0 
L 0 0 
z
" style="fill: #ffffff"/>
  </g>
  <g id="axes_1">
   <g id="patch_2">
    <path d="M 180 640.8 
L 1296 640.8 
L 1296 86.4 
L 180 86.4 
z
" style="fill: #ffffff"/>
   </g>
   <g id="PolyCollection_1">
    <defs>
     <path id="m36397cdfa7" d="M 319.747754 -142.500952 
L 319.252246 -142.500952 
L 319.122551 -147.207003 
L 318.947921 -151.913054 
L 318.723582 -156.619105 
L 318.448026 -161.325156 
L 318.123191 -166.031207 
L 317.753444 -170.737258 
L 317.343297 -175.443309 
L 316.894316 -180.14936 
L 316.402114 -184.855411 
L 315.854556 -189.561462 
L 315.232112 -194.267513 
L 314.510735 -198.973564 
L 313.66682 -203.679615 
L 312.68308 -208.385666 
L 311.553776 -213.091717 
L 310.287775 -217.797768 
L 308.908469 -222.503819 
L 307.45032 -227.20987 
L 305.952631 -231.915921 
L 304.451768 -236.621972 
L 302.973435 -241.328023 
L 301.526625 -246.034074 
L 300.100621 -250.740125 
L 298.665792 -255.446176 
L 297.178182 -260.152227 
L 295.586951 -264.858278 
L 293.843008 -269.564329 
L 291.906701 -274.27038 
L 289.752629 -278.976431 
L 287.37031 -283.682482 
L 284.760647 -288.388533 
L 281.929456 -293.094584 
L 278.880361 -297.800635 
L 275.609866 -302.506686 
L 272.107055 -307.212737 
L 268.359227 -311.918788 
L 264.363056 -316.624839 
L 260.13884 -321.33089 
L 255.743783 -326.036941 
L 251.279388 -330.742992 
L 246.888701 -335.449043 
L 242.741254 -340.155094 
L 239.007067 -344.861145 
L 235.8249 -349.567196 
L 233.272874 -354.273247 
L 231.350254 -358.979298 
L 229.977048 -363.685349 
L 229.013337 -368.3914 
L 228.294421 -373.097451 
L 227.672913 -377.803502 
L 227.056564 -382.509553 
L 226.431734 -387.215604 
L 225.866748 -391.921655 
L 225.495131 -396.627705 
L 225.484231 -401.333756 
L 225.998034 -406.039807 
L 227.163428 -410.745858 
L 229.046945 -415.451909 
L 231.645248 -420.15796 
L 234.888851 -424.864011 
L 238.655797 -429.570062 
L 242.790974 -434.276113 
L 247.127044 -438.982164 
L 251.504023 -443.688215 
L 255.785641 -448.394266 
L 259.871202 -453.100317 
L 263.702 -457.806368 
L 267.261545 -462.512419 
L 270.569468 -467.21847 
L 273.670042 -471.924521 
L 276.617563 -476.630572 
L 279.46181 -481.336623 
L 282.236943 -486.042674 
L 284.95631 -490.748725 
L 287.613829 -495.454776 
L 290.190661 -500.160827 
L 292.664385 -504.866878 
L 295.017433 -509.572929 
L 297.242272 -514.27898 
L 299.342237 -518.985031 
L 301.328596 -523.691082 
L 303.215538 -528.397133 
L 305.015108 -533.103184 
L 306.7337 -537.809235 
L 308.370777 -542.515286 
L 309.91967 -547.221337 
L 311.369673 -551.927388 
L 312.70858 -556.633439 
L 313.924974 -561.33949 
L 315.009951 -566.045541 
L 315.958222 -570.751592 
L 316.7687 -575.457643 
L 317.444673 -580.163694 
L 317.993633 -584.869745 
L 318.426745 -589.575796 
L 318.757992 -594.281847 
L 319.003063 -598.987898 
L 319.178125 -603.693949 
L 319.298658 -608.4 
L 319.701342 -608.4 
L 319.701342 -608.4 
L 319.821875 -603.693949 
L 319.996937 -598.987898 
L 320.242008 -594.281847 
L 320.573255 -589.575796 
L 321.006367 -584.869745 
L 321.555327 -580.163694 
L 322.2313 -575.457643 
L 323.041778 -570.751592 
L 323.990049 -566.045541 
L 325.075026 -561.33949 
L 326.29142 -556.633439 
L 327.630327 -551.927388 
L 329.08033 -547.221337 
L 330.629223 -542.515286 
L 332.2663 -537.809235 
L 333.984892 -533.103184 
L 335.784462 -528.397133 
L 337.671404 -523.691082 
L 339.657763 -518.985031 
L 341.757728 -514.27898 
L 343.982567 -509.572929 
L 346.335615 -504.866878 
L 348.809339 -500.160827 
L 351.386171 -495.454776 
L 354.04369 -490.748725 
L 356.763057 -486.042674 
L 359.53819 -481.336623 
L 362.382437 -476.630572 
L 365.329958 -471.924521 
L 368.430532 -467.21847 
L 371.738455 -462.512419 
L 375.298 -457.806368 
L 379.128798 -453.100317 
L 383.214359 -448.394266 
L 387.495977 -443.688215 
L 391.872956 -438.982164 
L 396.209026 -434.276113 
L 400.344203 -429.570062 
L 404.111149 -424.864011 
L 407.354752 -420.15796 
L 409.953055 -415.451909 
L 411.836572 -410.745858 
L 413.001966 -406.039807 
L 413.515769 -401.333756 
L 413.504869 -396.627705 
L 413.133252 -391.921655 
L 412.568266 -387.215604 
L 411.943436 -382.509553 
L 411.327087 -377.803502 
L 410.705579 -373.097451 
L 409.986663 -368.3914 
L 409.022952 -363.685349 
L 407.649746 -358.979298 
L 405.727126 -354.273247 
L 403.1751 -349.567196 
L 399.992933 -344.861145 
L 396.258746 -340.155094 
L 392.111299 -335.449043 
L 387.720612 -330.742992 
L 383.256217 -326.036941 
L 378.86116 -321.33089 
L 374.636944 -316.624839 
L 370.640773 -311.918788 
L 366.892945 -307.212737 
L 363.390134 -302.506686 
L 360.119639 -297.800635 
L 357.070544 -293.094584 
L 354.239353 -288.388533 
L 351.62969 -283.682482 
L 349.247371 -278.976431 
L 347.093299 -274.27038 
L 345.156992 -269.564329 
L 343.413049 -264.858278 
L 341.821818 -260.152227 
L 340.334208 -255.446176 
L 338.899379 -250.740125 
L 337.473375 -246.034074 
L 336.026565 -241.328023 
L 334.548232 -236.621972 
L 333.047369 -231.915921 
L 331.54968 -227.20987 
L 330.091531 -222.503819 
L 328.712225 -217.797768 
L 327.446224 -213.091717 
L 326.31692 -208.385666 
L 325.33318 -203.679615 
L 324.489265 -198.973564 
L 323.767888 -194.267513 
L 323.145444 -189.561462 
L 322.597886 -184.855411 
L 322.105684 -180.14936 
L 321.656703 -175.443309 
L 321.246556 -170.737258 
L 320.876809 -166.031207 
L 320.551974 -161.325156 
L 320.276418 -156.619105 
L 320.052079 -151.913054 
L 319.877449 -147.207003 
L 319.747754 -142.500952 
z
" style="stroke: #3f3f3f; stroke-width: 1.25"/>
    </defs>
    <g clip-path="url(#pfd8c3bbeb4)">
     <use xlink:href="#m36397cdfa7" x="0" y="720" style="fill: #3274a1; stroke: #3f3f3f; stroke-width: 1.25"/>
    </g>
   </g>
   <g id="PolyCollection_2">
    <defs>
     <path id="ma9d2db795e" d="M 598.753491 -107.090865 
L 598.246509 -107.090865 
L 598.110058 -111.852202 
L 597.91846 -116.613539 
L 597.658684 -121.374876 
L 597.318465 -126.136213 
L 596.887819 -130.89755 
L 596.360505 -135.658887 
L 595.735071 -140.420224 
L 595.015126 -145.181561 
L 594.208603 -149.942898 
L 593.326013 -154.704235 
L 592.37798 -159.465572 
L 591.372625 -164.226909 
L 590.313514 -168.988246 
L 589.198822 -173.749583 
L 588.022112 -178.51092 
L 586.774657 -183.272257 
L 585.448783 -188.033594 
L 584.041315 -192.794931 
L 582.556108 -197.556268 
L 581.004853 -202.317605 
L 579.405802 -207.078942 
L 577.780703 -211.840279 
L 576.150796 -216.601616 
L 574.533019 -221.362953 
L 572.937547 -226.12429 
L 571.367373 -230.885627 
L 569.819994 -235.646964 
L 568.290568 -240.408301 
L 566.775469 -245.169638 
L 565.274997 -249.930975 
L 563.794298 -254.692312 
L 562.342104 -259.453649 
L 560.927562 -264.214986 
L 559.556016 -268.976323 
L 558.224917 -273.73766 
L 556.921019 -278.498997 
L 555.619757 -283.260334 
L 554.287206 -288.021671 
L 552.884462 -292.783008 
L 551.37376 -297.544345 
L 549.725188 -302.305682 
L 547.922647 -307.067019 
L 545.967725 -311.828356 
L 543.880509 -316.589693 
L 541.697054 -321.35103 
L 539.464016 -326.112367 
L 537.23175 -330.873704 
L 535.047576 -335.635041 
L 532.95082 -340.396378 
L 530.970605 -345.157715 
L 529.126427 -349.919052 
L 527.430628 -354.680389 
L 525.891349 -359.441726 
L 524.514574 -364.203063 
L 523.304467 -368.9644 
L 522.262034 -373.725737 
L 521.382958 -378.487074 
L 520.655858 -383.248411 
L 520.062233 -388.009748 
L 519.578843 -392.771085 
L 519.182631 -397.532422 
L 518.857487 -402.293759 
L 518.601613 -407.055096 
L 518.433848 -411.816433 
L 518.39735 -416.57777 
L 518.559332 -421.339107 
L 519.00627 -426.100444 
L 519.834849 -430.861781 
L 521.139835 -435.623118 
L 523.000793 -440.384455 
L 525.469845 -445.145792 
L 528.562538 -449.907129 
L 532.253274 -454.668466 
L 536.475918 -459.429803 
L 541.129271 -464.19114 
L 546.08639 -468.952477 
L 551.206242 -473.713814 
L 556.346012 -478.475151 
L 561.372511 -483.236488 
L 566.171403 -487.997825 
L 570.65342 -492.759162 
L 574.757214 -497.520499 
L 578.448982 -502.281836 
L 581.719421 -507.043172 
L 584.578872 -511.804509 
L 587.051629 -516.565846 
L 589.17033 -521.327183 
L 590.971156 -526.08852 
L 592.490269 -530.849857 
L 593.761606 -535.611194 
L 594.815892 -540.372531 
L 595.680561 -545.133868 
L 596.380214 -549.895205 
L 596.937252 -554.656542 
L 597.372419 -559.417879 
L 597.70511 -564.179216 
L 597.953408 -568.940553 
L 598.13392 -573.70189 
L 598.261509 -578.463227 
L 598.738491 -578.463227 
L 598.738491 -578.463227 
L 598.86608 -573.70189 
L 599.046592 -568.940553 
L 599.29489 -564.179216 
L 599.627581 -559.417879 
L 600.062748 -554.656542 
L 600.619786 -549.895205 
L 601.319439 -545.133868 
L 602.184108 -540.372531 
L 603.238394 -535.611194 
L 604.509731 -530.849857 
L 606.028844 -526.08852 
L 607.82967 -521.327183 
L 609.948371 -516.565846 
L 612.421128 -511.804509 
L 615.280579 -507.043172 
L 618.551018 -502.281836 
L 622.242786 -497.520499 
L 626.34658 -492.759162 
L 630.828597 -487.997825 
L 635.627489 -483.236488 
L 640.653988 -478.475151 
L 645.793758 -473.713814 
L 650.91361 -468.952477 
L 655.870729 -464.19114 
L 660.524082 -459.429803 
L 664.746726 -454.668466 
L 668.437462 -449.907129 
L 671.530155 -445.145792 
L 673.999207 -440.384455 
L 675.860165 -435.623118 
L 677.165151 -430.861781 
L 677.99373 -426.100444 
L 678.440668 -421.339107 
L 678.60265 -416.57777 
L 678.566152 -411.816433 
L 678.398387 -407.055096 
L 678.142513 -402.293759 
L 677.817369 -397.532422 
L 677.421157 -392.771085 
L 676.937767 -388.009748 
L 676.344142 -383.248411 
L 675.617042 -378.487074 
L 674.737966 -373.725737 
L 673.695533 -368.9644 
L 672.485426 -364.203063 
L 671.108651 -359.441726 
L 669.569372 -354.680389 
L 667.873573 -349.919052 
L 666.029395 -345.157715 
L 664.04918 -340.396378 
L 661.952424 -335.635041 
L 659.76825 -330.873704 
L 657.535984 -326.112367 
L 655.302946 -321.35103 
L 653.119491 -316.589693 
L 651.032275 -311.828356 
L 649.077353 -307.067019 
L 647.274812 -302.305682 
L 645.62624 -297.544345 
L 644.115538 -292.783008 
L 642.712794 -288.021671 
L 641.380243 -283.260334 
L 640.078981 -278.498997 
L 638.775083 -273.73766 
L 637.443984 -268.976323 
L 636.072438 -264.214986 
L 634.657896 -259.453649 
L 633.205702 -254.692312 
L 631.725003 -249.930975 
L 630.224531 -245.169638 
L 628.709432 -240.408301 
L 627.180006 -235.646964 
L 625.632627 -230.885627 
L 624.062453 -226.12429 
L 622.466981 -221.362953 
L 620.849204 -216.601616 
L 619.219297 -211.840279 
L 617.594198 -207.078942 
L 615.995147 -202.317605 
L 614.443892 -197.556268 
L 612.958685 -192.794931 
L 611.551217 -188.033594 
L 610.225343 -183.272257 
L 608.977888 -178.51092 
L 607.801178 -173.749583 
L 606.686486 -168.988246 
L 605.627375 -164.226909 
L 604.62202 -159.465572 
L 603.673987 -154.704235 
L 602.791397 -149.942898 
L 601.984874 -145.181561 
L 601.264929 -140.420224 
L 600.639495 -135.658887 
L 600.112181 -130.89755 
L 599.681535 -126.136213 
L 599.341316 -121.374876 
L 599.08154 -116.613539 
L 598.889942 -111.852202 
L 598.753491 -107.090865 
z
" style="stroke: #3f3f3f; stroke-width: 1.25"/>
    </defs>
    <g clip-path="url(#pfd8c3bbeb4)">
     <use xlink:href="#ma9d2db795e" x="0" y="720" style="fill: #3274a1; stroke: #3f3f3f; stroke-width: 1.25"/>
    </g>
   </g>
   <g id="PolyCollection_3">
    <defs>
     <path id="m463cab497c" d="M 877.67025 -120.783216 
L 877.32975 -120.783216 
L 877.233027 -125.177164 
L 877.104642 -129.571112 
L 876.947089 -133.96506 
L 876.769759 -138.359008 
L 876.589182 -142.752956 
L 876.427074 -147.146903 
L 876.306213 -151.540851 
L 876.245073 -155.934799 
L 876.252821 -160.328747 
L 876.326276 -164.722695 
L 876.449775 -169.116643 
L 876.597707 -173.510591 
L 876.738496 -177.904538 
L 876.838431 -182.298486 
L 876.86416 -186.692434 
L 876.783638 -191.086382 
L 876.56627 -195.48033 
L 876.183453 -199.874278 
L 875.610514 -204.268226 
L 874.830274 -208.662173 
L 873.837527 -213.056121 
L 872.643048 -217.450069 
L 871.275541 -221.844017 
L 869.780236 -226.237965 
L 868.21349 -230.631913 
L 866.633576 -235.025861 
L 865.088773 -239.419808 
L 863.604854 -243.813756 
L 862.174973 -248.207704 
L 860.7554 -252.601652 
L 859.270007 -256.9956 
L 857.624562 -261.389548 
L 855.728882 -265.783496 
L 853.52165 -270.177443 
L 850.990438 -274.571391 
L 848.179415 -278.965339 
L 845.179833 -283.359287 
L 842.103261 -287.753235 
L 839.043492 -292.147183 
L 836.038117 -296.541131 
L 833.043069 -300.935078 
L 829.931354 -305.329026 
L 826.520549 -309.722974 
L 822.62404 -314.116922 
L 818.111756 -318.51087 
L 812.961124 -322.904818 
L 807.280796 -327.298766 
L 801.298173 -331.692713 
L 795.31397 -336.086661 
L 789.638205 -340.480609 
L 784.527718 -344.874557 
L 780.143487 -349.268505 
L 776.537619 -353.662453 
L 773.668745 -358.056401 
L 771.435414 -362.450348 
L 769.713662 -366.844296 
L 768.387877 -371.238244 
L 767.370666 -375.632192 
L 766.613358 -380.02614 
L 766.110596 -384.420088 
L 765.9 -388.814036 
L 766.054315 -393.207983 
L 766.662692 -397.601931 
L 767.801966 -401.995879 
L 769.505851 -406.389827 
L 771.745291 -410.783775 
L 774.432072 -415.177723 
L 777.449197 -419.571671 
L 780.698872 -423.965618 
L 784.14881 -428.359566 
L 787.855671 -432.753514 
L 791.952682 -437.147462 
L 796.603327 -441.54141 
L 801.937453 -445.935358 
L 807.993459 -450.329306 
L 814.68734 -454.723253 
L 821.818193 -459.117201 
L 829.106007 -463.511149 
L 836.24696 -467.905097 
L 842.967934 -472.299045 
L 849.065345 -476.692993 
L 854.421289 -481.086941 
L 858.99844 -485.480888 
L 862.821177 -489.874836 
L 865.952362 -494.268784 
L 868.473444 -498.662732 
L 870.471511 -503.05668 
L 872.032878 -507.450628 
L 873.240337 -511.844576 
L 874.171035 -516.238523 
L 874.893474 -520.632471 
L 875.464058 -525.026419 
L 875.924702 -529.420367 
L 876.302842 -533.814315 
L 876.614075 -538.208263 
L 876.866454 -542.602211 
L 877.064902 -546.996158 
L 877.214407 -551.390106 
L 877.321463 -555.784054 
L 877.678537 -555.784054 
L 877.678537 -555.784054 
L 877.785593 -551.390106 
L 877.935098 -546.996158 
L 878.133546 -542.602211 
L 878.385925 -538.208263 
L 878.697158 -533.814315 
L 879.075298 -529.420367 
L 879.535942 -525.026419 
L 880.106526 -520.632471 
L 880.828965 -516.238523 
L 881.759663 -511.844576 
L 882.967122 -507.450628 
L 884.528489 -503.05668 
L 886.526556 -498.662732 
L 889.047638 -494.268784 
L 892.178823 -489.874836 
L 896.00156 -485.480888 
L 900.578711 -481.086941 
L 905.934655 -476.692993 
L 912.032066 -472.299045 
L 918.75304 -467.905097 
L 925.893993 -463.511149 
L 933.181807 -459.117201 
L 940.31266 -454.723253 
L 947.006541 -450.329306 
L 953.062547 -445.935358 
L 958.396673 -441.54141 
L 963.047318 -437.147462 
L 967.144329 -432.753514 
L 970.85119 -428.359566 
L 974.301128 -423.965618 
L 977.550803 -419.571671 
L 980.567928 -415.177723 
L 983.254709 -410.783775 
L 985.494149 -406.389827 
L 987.198034 -401.995879 
L 988.337308 -397.601931 
L 988.945685 -393.207983 
L 989.1 -388.814036 
L 988.889404 -384.420088 
L 988.386642 -380.02614 
L 987.629334 -375.632192 
L 986.612123 -371.238244 
L 985.286338 -366.844296 
L 983.564586 -362.450348 
L 981.331255 -358.056401 
L 978.462381 -353.662453 
L 974.856513 -349.268505 
L 970.472282 -344.874557 
L 965.361795 -340.480609 
L 959.68603 -336.086661 
L 953.701827 -331.692713 
L 947.719204 -327.298766 
L 942.038876 -322.904818 
L 936.888244 -318.51087 
L 932.37596 -314.116922 
L 928.479451 -309.722974 
L 925.068646 -305.329026 
L 921.956931 -300.935078 
L 918.961883 -296.541131 
L 915.956508 -292.147183 
L 912.896739 -287.753235 
L 909.820167 -283.359287 
L 906.820585 -278.965339 
L 904.009562 -274.571391 
L 901.47835 -270.177443 
L 899.271118 -265.783496 
L 897.375438 -261.389548 
L 895.729993 -256.9956 
L 894.2446 -252.601652 
L 892.825027 -248.207704 
L 891.395146 -243.813756 
L 889.911227 -239.419808 
L 888.366424 -235.025861 
L 886.78651 -230.631913 
L 885.219764 -226.237965 
L 883.724459 -221.844017 
L 882.356952 -217.450069 
L 881.162473 -213.056121 
L 880.169726 -208.662173 
L 879.389486 -204.268226 
L 878.816547 -199.874278 
L 878.43373 -195.48033 
L 878.216362 -191.086382 
L 878.13584 -186.692434 
L 878.161569 -182.298486 
L 878.261504 -177.904538 
L 878.402293 -173.510591 
L 878.550225 -169.116643 
L 878.673724 -164.722695 
L 878.747179 -160.328747 
L 878.754927 -155.934799 
L 878.693787 -151.540851 
L 878.572926 -147.146903 
L 878.410818 -142.752956 
L 878.230241 -138.359008 
L 878.052911 -133.96506 
L 877.895358 -129.571112 
L 877.766973 -125.177164 
L 877.67025 -120.783216 
z
" style="stroke: #3f3f3f; stroke-width: 1.25"/>
    </defs>
    <g clip-path="url(#pfd8c3bbeb4)">
     <use xlink:href="#m463cab497c" x="0" y="720" style="fill: #3274a1; stroke: #3f3f3f; stroke-width: 1.25"/>
    </g>
   </g>
   <g id="PolyCollection_4">
    <defs>
     <path id="mc870af0287" d="M 1156.697667 -104.4 
L 1156.302333 -104.4 
L 1156.195648 -109.399231 
L 1156.052147 -114.398463 
L 1155.8698 -119.397694 
L 1155.6512 -124.396925 
L 1155.404244 -129.396156 
L 1155.141398 -134.395388 
L 1154.877245 -139.394619 
L 1154.624596 -144.39385 
L 1154.390006 -149.393082 
L 1154.170014 -154.392313 
L 1153.949408 -159.391544 
L 1153.702357 -164.390776 
L 1153.396398 -169.390007 
L 1152.998368 -174.389238 
L 1152.480679 -179.388469 
L 1151.82617 -184.387701 
L 1151.030053 -189.386932 
L 1150.098232 -194.386163 
L 1149.042203 -199.385395 
L 1147.87174 -204.384626 
L 1146.587335 -209.383857 
L 1145.174797 -214.383089 
L 1143.60415 -219.38232 
L 1141.834003 -224.381551 
L 1139.820976 -229.380782 
L 1137.531973 -234.380014 
L 1134.955809 -239.379245 
L 1132.110458 -244.378476 
L 1129.043349 -249.377708 
L 1125.824245 -254.376939 
L 1122.532672 -259.37617 
L 1119.243506 -264.375402 
L 1116.014615 -269.374633 
L 1112.879248 -274.373864 
L 1109.843903 -279.373095 
L 1106.890512 -284.372327 
L 1103.981015 -289.371558 
L 1101.062904 -294.370789 
L 1098.075647 -299.370021 
L 1094.959043 -304.369252 
L 1091.664596 -309.368483 
L 1088.169587 -314.367715 
L 1084.491323 -319.366946 
L 1080.697309 -324.366177 
L 1076.906939 -329.365408 
L 1073.282193 -334.36464 
L 1070.008102 -339.363871 
L 1067.266887 -344.363102 
L 1065.2115 -349.362334 
L 1063.944035 -354.361565 
L 1063.502758 -359.360796 
L 1063.859187 -364.360028 
L 1064.92487 -369.359259 
L 1066.566372 -374.35849 
L 1068.626191 -379.357721 
L 1070.946524 -384.356953 
L 1073.391817 -389.356184 
L 1075.865577 -394.355415 
L 1078.317702 -399.354647 
L 1080.740877 -404.353878 
L 1083.157834 -409.353109 
L 1085.604178 -414.352341 
L 1088.112714 -419.351572 
L 1090.704133 -424.350803 
L 1093.385911 -429.350034 
L 1096.157729 -434.349266 
L 1099.019082 -439.348497 
L 1101.974295 -444.347728 
L 1105.031797 -449.34696 
L 1108.197554 -454.346191 
L 1111.465524 -459.345422 
L 1114.809512 -464.344654 
L 1118.180352 -469.343885 
L 1121.510174 -474.343116 
L 1124.722682 -479.342347 
L 1127.746195 -484.341579 
L 1130.525457 -489.34081 
L 1133.029047 -494.340041 
L 1135.251131 -499.339273 
L 1137.208226 -504.338504 
L 1138.932973 -509.337735 
L 1140.467194 -514.336967 
L 1141.855852 -519.336198 
L 1143.142506 -524.335429 
L 1144.365989 -529.33466 
L 1145.557665 -534.333892 
L 1146.738883 -539.333123 
L 1147.918852 -544.332354 
L 1149.093603 -549.331586 
L 1150.246848 -554.330817 
L 1151.353094 -559.330048 
L 1152.382626 -564.32928 
L 1153.307317 -569.328511 
L 1154.105853 -574.327742 
L 1154.767166 -579.326973 
L 1155.291456 -584.326205 
L 1155.688904 -589.325436 
L 1155.976772 -594.324667 
L 1156.175881 -599.323899 
L 1156.824119 -599.323899 
L 1156.824119 -599.323899 
L 1157.023228 -594.324667 
L 1157.311096 -589.325436 
L 1157.708544 -584.326205 
L 1158.232834 -579.326973 
L 1158.894147 -574.327742 
L 1159.692683 -569.328511 
L 1160.617374 -564.32928 
L 1161.646906 -559.330048 
L 1162.753152 -554.330817 
L 1163.906397 -549.331586 
L 1165.081148 -544.332354 
L 1166.261117 -539.333123 
L 1167.442335 -534.333892 
L 1168.634011 -529.33466 
L 1169.857494 -524.335429 
L 1171.144148 -519.336198 
L 1172.532806 -514.336967 
L 1174.067027 -509.337735 
L 1175.791774 -504.338504 
L 1177.748869 -499.339273 
L 1179.970953 -494.340041 
L 1182.474543 -489.34081 
L 1185.253805 -484.341579 
L 1188.277318 -479.342347 
L 1191.489826 -474.343116 
L 1194.819648 -469.343885 
L 1198.190488 -464.344654 
L 1201.534476 -459.345422 
L 1204.802446 -454.346191 
L 1207.968203 -449.34696 
L 1211.025705 -444.347728 
L 1213.980918 -439.348497 
L 1216.842271 -434.349266 
L 1219.614089 -429.350034 
L 1222.295867 -424.350803 
L 1224.887286 -419.351572 
L 1227.395822 -414.352341 
L 1229.842166 -409.353109 
L 1232.259123 -404.353878 
L 1234.682298 -399.354647 
L 1237.134423 -394.355415 
L 1239.608183 -389.356184 
L 1242.053476 -384.356953 
L 1244.373809 -379.357721 
L 1246.433628 -374.35849 
L 1248.07513 -369.359259 
L 1249.140813 -364.360028 
L 1249.497242 -359.360796 
L 1249.055965 -354.361565 
L 1247.7885 -349.362334 
L 1245.733113 -344.363102 
L 1242.991898 -339.363871 
L 1239.717807 -334.36464 
L 1236.093061 -329.365408 
L 1232.302691 -324.366177 
L 1228.508677 -319.366946 
L 1224.830413 -314.367715 
L 1221.335404 -309.368483 
L 1218.040957 -304.369252 
L 1214.924353 -299.370021 
L 1211.937096 -294.370789 
L 1209.018985 -289.371558 
L 1206.109488 -284.372327 
L 1203.156097 -279.373095 
L 1200.120752 -274.373864 
L 1196.985385 -269.374633 
L 1193.756494 -264.375402 
L 1190.467328 -259.37617 
L 1187.175755 -254.376939 
L 1183.956651 -249.377708 
L 1180.889542 -244.378476 
L 1178.044191 -239.379245 
L 1175.468027 -234.380014 
L 1173.179024 -229.380782 
L 1171.165997 -224.381551 
L 1169.39585 -219.38232 
L 1167.825203 -214.383089 
L 1166.412665 -209.383857 
L 1165.12826 -204.384626 
L 1163.957797 -199.385395 
L 1162.901768 -194.386163 
L 1161.969947 -189.386932 
L 1161.17383 -184.387701 
L 1160.519321 -179.388469 
L 1160.001632 -174.389238 
L 1159.603602 -169.390007 
L 1159.297643 -164.390776 
L 1159.050592 -159.391544 
L 1158.829986 -154.392313 
L 1158.609994 -149.393082 
L 1158.375404 -144.39385 
L 1158.122755 -139.394619 
L 1157.858602 -134.395388 
L 1157.595756 -129.396156 
L 1157.3488 -124.396925 
L 1157.1302 -119.397694 
L 1156.947853 -114.398463 
L 1156.804352 -109.399231 
L 1156.697667 -104.4 
z
" style="stroke: #3f3f3f; stroke-width: 1.25"/>
    </defs>
    <g clip-path="url(#pfd8c3bbeb4)">
     <use xlink:href="#mc870af0287" x="0" y="720" style="fill: #3274a1; stroke: #3f3f3f; stroke-width: 1.25"/>
    </g>
   </g>
   <g id="matplotlib.axis_1">
    <g id="xtick_1">
     <g id="line2d_1">
      <defs>
       <path id="m0cfe8dd726" d="M 0 0 
L 0 3.5 
" style="stroke: #000000; stroke-width: 0.8"/>
      </defs>
      <g>
       <use xlink:href="#m0cfe8dd726" x="319.5" y="640.8" style="stroke: #000000; stroke-width: 0.8"/>
      </g>
     </g>
     <g id="text_1">
      <!-- max -->
      <g transform="translate(308.60625 655.398438) scale(0.1 -0.1)">
       <defs>
        <path id="DejaVuSans-6d" d="M 3328 2828 
Q 3544 3216 3844 3400 
Q 4144 3584 4550 3584 
Q 5097 3584 5394 3201 
Q 5691 2819 5691 2113 
L 5691 0 
L 5113 0 
L 5113 2094 
Q 5113 2597 4934 2840 
Q 4756 3084 4391 3084 
Q 3944 3084 3684 2787 
Q 3425 2491 3425 1978 
L 3425 0 
L 2847 0 
L 2847 2094 
Q 2847 2600 2669 2842 
Q 2491 3084 2119 3084 
Q 1678 3084 1418 2786 
Q 1159 2488 1159 1978 
L 1159 0 
L 581 0 
L 581 3500 
L 1159 3500 
L 1159 2956 
Q 1356 3278 1631 3431 
Q 1906 3584 2284 3584 
Q 2666 3584 2933 3390 
Q 3200 3197 3328 2828 
z
" transform="scale(0.015625)"/>
        <path id="DejaVuSans-61" d="M 2194 1759 
Q 1497 1759 1228 1600 
Q 959 1441 959 1056 
Q 959 750 1161 570 
Q 1363 391 1709 391 
Q 2188 391 2477 730 
Q 2766 1069 2766 1631 
L 2766 1759 
L 2194 1759 
z
M 3341 1997 
L 3341 0 
L 2766 0 
L 2766 531 
Q 2569 213 2275 61 
Q 1981 -91 1556 -91 
Q 1019 -91 701 211 
Q 384 513 384 1019 
Q 384 1609 779 1909 
Q 1175 2209 1959 2209 
L 2766 2209 
L 2766 2266 
Q 2766 2663 2505 2880 
Q 2244 3097 1772 3097 
Q 1472 3097 1187 3025 
Q 903 2953 641 2809 
L 641 3341 
Q 956 3463 1253 3523 
Q 1550 3584 1831 3584 
Q 2591 3584 2966 3190 
Q 3341 2797 3341 1997 
z
" transform="scale(0.015625)"/>
        <path id="DejaVuSans-78" d="M 3513 3500 
L 2247 1797 
L 3578 0 
L 2900 0 
L 1881 1375 
L 863 0 
L 184 0 
L 1544 1831 
L 300 3500 
L 978 3500 
L 1906 2253 
L 2834 3500 
L 3513 3500 
z
" transform="scale(0.015625)"/>
       </defs>
       <use xlink:href="#DejaVuSans-6d"/>
       <use xlink:href="#DejaVuSans-61" x="97.412109"/>
       <use xlink:href="#DejaVuSans-78" x="158.691406"/>
      </g>
     </g>
    </g>
    <g id="xtick_2">
     <g id="line2d_2">
      <g>
       <use xlink:href="#m0cfe8dd726" x="598.5" y="640.8" style="stroke: #000000; stroke-width: 0.8"/>
      </g>
     </g>
     <g id="text_2">
      <!-- max_fs -->
      <g transform="translate(580.741406 655.398438) scale(0.1 -0.1)">
       <defs>
        <path id="DejaVuSans-5f" d="M 3263 -1063 
L 3263 -1509 
L -63 -1509 
L -63 -1063 
L 3263 -1063 
z
" transform="scale(0.015625)"/>
        <path id="DejaVuSans-66" d="M 2375 4863 
L 2375 4384 
L 1825 4384 
Q 1516 4384 1395 4259 
Q 1275 4134 1275 3809 
L 1275 3500 
L 2222 3500 
L 2222 3053 
L 1275 3053 
L 1275 0 
L 697 0 
L 697 3053 
L 147 3053 
L 147 3500 
L 697 3500 
L 697 3744 
Q 697 4328 969 4595 
Q 1241 4863 1831 4863 
L 2375 4863 
z
" transform="scale(0.015625)"/>
        <path id="DejaVuSans-73" d="M 2834 3397 
L 2834 2853 
Q 2591 2978 2328 3040 
Q 2066 3103 1784 3103 
Q 1356 3103 1142 2972 
Q 928 2841 928 2578 
Q 928 2378 1081 2264 
Q 1234 2150 1697 2047 
L 1894 2003 
Q 2506 1872 2764 1633 
Q 3022 1394 3022 966 
Q 3022 478 2636 193 
Q 2250 -91 1575 -91 
Q 1294 -91 989 -36 
Q 684 19 347 128 
L 347 722 
Q 666 556 975 473 
Q 1284 391 1588 391 
Q 1994 391 2212 530 
Q 2431 669 2431 922 
Q 2431 1156 2273 1281 
Q 2116 1406 1581 1522 
L 1381 1569 
Q 847 1681 609 1914 
Q 372 2147 372 2553 
Q 372 3047 722 3315 
Q 1072 3584 1716 3584 
Q 2034 3584 2315 3537 
Q 2597 3491 2834 3397 
z
" transform="scale(0.015625)"/>
       </defs>
       <use xlink:href="#DejaVuSans-6d"/>
       <use xlink:href="#DejaVuSans-61" x="97.412109"/>
       <use xlink:href="#DejaVuSans-78" x="158.691406"/>
       <use xlink:href="#DejaVuSans-5f" x="217.871094"/>
       <use xlink:href="#DejaVuSans-66" x="267.871094"/>
       <use xlink:href="#DejaVuSans-73" x="303.076172"/>
      </g>
     </g>
    </g>
    <g id="xtick_3">
     <g id="line2d_3">
      <g>
       <use xlink:href="#m0cfe8dd726" x="877.5" y="640.8" style="stroke: #000000; stroke-width: 0.8"/>
      </g>
     </g>
     <g id="text_3">
      <!-- max_mem_5_fs_glit -->
      <g transform="translate(828.330469 655.398438) scale(0.1 -0.1)">
       <defs>
        <path id="DejaVuSans-65" d="M 3597 1894 
L 3597 1613 
L 953 1613 
Q 991 1019 1311 708 
Q 1631 397 2203 397 
Q 2534 397 2845 478 
Q 3156 559 3463 722 
L 3463 178 
Q 3153 47 2828 -22 
Q 2503 -91 2169 -91 
Q 1331 -91 842 396 
Q 353 884 353 1716 
Q 353 2575 817 3079 
Q 1281 3584 2069 3584 
Q 2775 3584 3186 3129 
Q 3597 2675 3597 1894 
z
M 3022 2063 
Q 3016 2534 2758 2815 
Q 2500 3097 2075 3097 
Q 1594 3097 1305 2825 
Q 1016 2553 972 2059 
L 3022 2063 
z
" transform="scale(0.015625)"/>
        <path id="DejaVuSans-35" d="M 691 4666 
L 3169 4666 
L 3169 4134 
L 1269 4134 
L 1269 2991 
Q 1406 3038 1543 3061 
Q 1681 3084 1819 3084 
Q 2600 3084 3056 2656 
Q 3513 2228 3513 1497 
Q 3513 744 3044 326 
Q 2575 -91 1722 -91 
Q 1428 -91 1123 -41 
Q 819 9 494 109 
L 494 744 
Q 775 591 1075 516 
Q 1375 441 1709 441 
Q 2250 441 2565 725 
Q 2881 1009 2881 1497 
Q 2881 1984 2565 2268 
Q 2250 2553 1709 2553 
Q 1456 2553 1204 2497 
Q 953 2441 691 2322 
L 691 4666 
z
" transform="scale(0.015625)"/>
        <path id="DejaVuSans-67" d="M 2906 1791 
Q 2906 2416 2648 2759 
Q 2391 3103 1925 3103 
Q 1463 3103 1205 2759 
Q 947 2416 947 1791 
Q 947 1169 1205 825 
Q 1463 481 1925 481 
Q 2391 481 2648 825 
Q 2906 1169 2906 1791 
z
M 3481 434 
Q 3481 -459 3084 -895 
Q 2688 -1331 1869 -1331 
Q 1566 -1331 1297 -1286 
Q 1028 -1241 775 -1147 
L 775 -588 
Q 1028 -725 1275 -790 
Q 1522 -856 1778 -856 
Q 2344 -856 2625 -561 
Q 2906 -266 2906 331 
L 2906 616 
Q 2728 306 2450 153 
Q 2172 0 1784 0 
Q 1141 0 747 490 
Q 353 981 353 1791 
Q 353 2603 747 3093 
Q 1141 3584 1784 3584 
Q 2172 3584 2450 3431 
Q 2728 3278 2906 2969 
L 2906 3500 
L 3481 3500 
L 3481 434 
z
" transform="scale(0.015625)"/>
        <path id="DejaVuSans-6c" d="M 603 4863 
L 1178 4863 
L 1178 0 
L 603 0 
L 603 4863 
z
" transform="scale(0.015625)"/>
        <path id="DejaVuSans-69" d="M 603 3500 
L 1178 3500 
L 1178 0 
L 603 0 
L 603 3500 
z
M 603 4863 
L 1178 4863 
L 1178 4134 
L 603 4134 
L 603 4863 
z
" transform="scale(0.015625)"/>
        <path id="DejaVuSans-74" d="M 1172 4494 
L 1172 3500 
L 2356 3500 
L 2356 3053 
L 1172 3053 
L 1172 1153 
Q 1172 725 1289 603 
Q 1406 481 1766 481 
L 2356 481 
L 2356 0 
L 1766 0 
Q 1100 0 847 248 
Q 594 497 594 1153 
L 594 3053 
L 172 3053 
L 172 3500 
L 594 3500 
L 594 4494 
L 1172 4494 
z
" transform="scale(0.015625)"/>
       </defs>
       <use xlink:href="#DejaVuSans-6d"/>
       <use xlink:href="#DejaVuSans-61" x="97.412109"/>
       <use xlink:href="#DejaVuSans-78" x="158.691406"/>
       <use xlink:href="#DejaVuSans-5f" x="217.871094"/>
       <use xlink:href="#DejaVuSans-6d" x="267.871094"/>
       <use xlink:href="#DejaVuSans-65" x="365.283203"/>
       <use xlink:href="#DejaVuSans-6d" x="426.806641"/>
       <use xlink:href="#DejaVuSans-5f" x="524.21875"/>
       <use xlink:href="#DejaVuSans-35" x="574.21875"/>
       <use xlink:href="#DejaVuSans-5f" x="637.841797"/>
       <use xlink:href="#DejaVuSans-66" x="687.841797"/>
       <use xlink:href="#DejaVuSans-73" x="723.046875"/>
       <use xlink:href="#DejaVuSans-5f" x="775.146484"/>
       <use xlink:href="#DejaVuSans-67" x="825.146484"/>
       <use xlink:href="#DejaVuSans-6c" x="888.623047"/>
       <use xlink:href="#DejaVuSans-69" x="916.40625"/>
       <use xlink:href="#DejaVuSans-74" x="944.189453"/>
      </g>
     </g>
    </g>
    <g id="xtick_4">
     <g id="line2d_4">
      <g>
       <use xlink:href="#m0cfe8dd726" x="1156.5" y="640.8" style="stroke: #000000; stroke-width: 0.8"/>
      </g>
     </g>
     <g id="text_4">
      <!-- max_fs_glit -->
      <g transform="translate(1128.328906 655.398438) scale(0.1 -0.1)">
       <use xlink:href="#DejaVuSans-6d"/>
       <use xlink:href="#DejaVuSans-61" x="97.412109"/>
       <use xlink:href="#DejaVuSans-78" x="158.691406"/>
       <use xlink:href="#DejaVuSans-5f" x="217.871094"/>
       <use xlink:href="#DejaVuSans-66" x="267.871094"/>
       <use xlink:href="#DejaVuSans-73" x="303.076172"/>
       <use xlink:href="#DejaVuSans-5f" x="355.175781"/>
       <use xlink:href="#DejaVuSans-67" x="405.175781"/>
       <use xlink:href="#DejaVuSans-6c" x="468.652344"/>
       <use xlink:href="#DejaVuSans-69" x="496.435547"/>
       <use xlink:href="#DejaVuSans-74" x="524.21875"/>
      </g>
     </g>
    </g>
    <g id="text_5">
     <!-- file name -->
     <g transform="translate(714.616406 669.354687) scale(0.1 -0.1)">
      <defs>
       <path id="DejaVuSans-20" transform="scale(0.015625)"/>
       <path id="DejaVuSans-6e" d="M 3513 2113 
L 3513 0 
L 2938 0 
L 2938 2094 
Q 2938 2591 2744 2837 
Q 2550 3084 2163 3084 
Q 1697 3084 1428 2787 
Q 1159 2491 1159 1978 
L 1159 0 
L 581 0 
L 581 3500 
L 1159 3500 
L 1159 2956 
Q 1366 3272 1645 3428 
Q 1925 3584 2291 3584 
Q 2894 3584 3203 3211 
Q 3513 2838 3513 2113 
z
" transform="scale(0.015625)"/>
      </defs>
      <use xlink:href="#DejaVuSans-66"/>
      <use xlink:href="#DejaVuSans-69" x="35.205078"/>
      <use xlink:href="#DejaVuSans-6c" x="62.988281"/>
      <use xlink:href="#DejaVuSans-65" x="90.771484"/>
      <use xlink:href="#DejaVuSans-20" x="152.294922"/>
      <use xlink:href="#DejaVuSans-6e" x="184.082031"/>
      <use xlink:href="#DejaVuSans-61" x="247.460938"/>
      <use xlink:href="#DejaVuSans-6d" x="308.740234"/>
      <use xlink:href="#DejaVuSans-65" x="406.152344"/>
     </g>
    </g>
   </g>
   <g id="matplotlib.axis_2">
    <g id="ytick_1">
     <g id="line2d_5">
      <defs>
       <path id="mc799f8faa7" d="M 0 0 
L -3.5 0 
" style="stroke: #000000; stroke-width: 0.8"/>
      </defs>
      <g>
       <use xlink:href="#mc799f8faa7" x="180" y="570.104626" style="stroke: #000000; stroke-width: 0.8"/>
      </g>
     </g>
     <g id="text_6">
      <!-- 0.0 -->
      <g transform="translate(157.096875 573.903845) scale(0.1 -0.1)">
       <defs>
        <path id="DejaVuSans-30" d="M 2034 4250 
Q 1547 4250 1301 3770 
Q 1056 3291 1056 2328 
Q 1056 1369 1301 889 
Q 1547 409 2034 409 
Q 2525 409 2770 889 
Q 3016 1369 3016 2328 
Q 3016 3291 2770 3770 
Q 2525 4250 2034 4250 
z
M 2034 4750 
Q 2819 4750 3233 4129 
Q 3647 3509 3647 2328 
Q 3647 1150 3233 529 
Q 2819 -91 2034 -91 
Q 1250 -91 836 529 
Q 422 1150 422 2328 
Q 422 3509 836 4129 
Q 1250 4750 2034 4750 
z
" transform="scale(0.015625)"/>
        <path id="DejaVuSans-2e" d="M 684 794 
L 1344 794 
L 1344 0 
L 684 0 
L 684 794 
z
" transform="scale(0.015625)"/>
       </defs>
       <use xlink:href="#DejaVuSans-30"/>
       <use xlink:href="#DejaVuSans-2e" x="63.623047"/>
       <use xlink:href="#DejaVuSans-30" x="95.410156"/>
      </g>
     </g>
    </g>
    <g id="ytick_2">
     <g id="line2d_6">
      <g>
       <use xlink:href="#mc799f8faa7" x="180" y="483.025283" style="stroke: #000000; stroke-width: 0.8"/>
      </g>
     </g>
     <g id="text_7">
      <!-- 0.2 -->
      <g transform="translate(157.096875 486.824502) scale(0.1 -0.1)">
       <defs>
        <path id="DejaVuSans-32" d="M 1228 531 
L 3431 531 
L 3431 0 
L 469 0 
L 469 531 
Q 828 903 1448 1529 
Q 2069 2156 2228 2338 
Q 2531 2678 2651 2914 
Q 2772 3150 2772 3378 
Q 2772 3750 2511 3984 
Q 2250 4219 1831 4219 
Q 1534 4219 1204 4116 
Q 875 4013 500 3803 
L 500 4441 
Q 881 4594 1212 4672 
Q 1544 4750 1819 4750 
Q 2544 4750 2975 4387 
Q 3406 4025 3406 3419 
Q 3406 3131 3298 2873 
Q 3191 2616 2906 2266 
Q 2828 2175 2409 1742 
Q 1991 1309 1228 531 
z
" transform="scale(0.015625)"/>
       </defs>
       <use xlink:href="#DejaVuSans-30"/>
       <use xlink:href="#DejaVuSans-2e" x="63.623047"/>
       <use xlink:href="#DejaVuSans-32" x="95.410156"/>
      </g>
     </g>
    </g>
    <g id="ytick_3">
     <g id="line2d_7">
      <g>
       <use xlink:href="#mc799f8faa7" x="180" y="395.945939" style="stroke: #000000; stroke-width: 0.8"/>
      </g>
     </g>
     <g id="text_8">
      <!-- 0.4 -->
      <g transform="translate(157.096875 399.745158) scale(0.1 -0.1)">
       <defs>
        <path id="DejaVuSans-34" d="M 2419 4116 
L 825 1625 
L 2419 1625 
L 2419 4116 
z
M 2253 4666 
L 3047 4666 
L 3047 1625 
L 3713 1625 
L 3713 1100 
L 3047 1100 
L 3047 0 
L 2419 0 
L 2419 1100 
L 313 1100 
L 313 1709 
L 2253 4666 
z
" transform="scale(0.015625)"/>
       </defs>
       <use xlink:href="#DejaVuSans-30"/>
       <use xlink:href="#DejaVuSans-2e" x="63.623047"/>
       <use xlink:href="#DejaVuSans-34" x="95.410156"/>
      </g>
     </g>
    </g>
    <g id="ytick_4">
     <g id="line2d_8">
      <g>
       <use xlink:href="#mc799f8faa7" x="180" y="308.866596" style="stroke: #000000; stroke-width: 0.8"/>
      </g>
     </g>
     <g id="text_9">
      <!-- 0.6 -->
      <g transform="translate(157.096875 312.665815) scale(0.1 -0.1)">
       <defs>
        <path id="DejaVuSans-36" d="M 2113 2584 
Q 1688 2584 1439 2293 
Q 1191 2003 1191 1497 
Q 1191 994 1439 701 
Q 1688 409 2113 409 
Q 2538 409 2786 701 
Q 3034 994 3034 1497 
Q 3034 2003 2786 2293 
Q 2538 2584 2113 2584 
z
M 3366 4563 
L 3366 3988 
Q 3128 4100 2886 4159 
Q 2644 4219 2406 4219 
Q 1781 4219 1451 3797 
Q 1122 3375 1075 2522 
Q 1259 2794 1537 2939 
Q 1816 3084 2150 3084 
Q 2853 3084 3261 2657 
Q 3669 2231 3669 1497 
Q 3669 778 3244 343 
Q 2819 -91 2113 -91 
Q 1303 -91 875 529 
Q 447 1150 447 2328 
Q 447 3434 972 4092 
Q 1497 4750 2381 4750 
Q 2619 4750 2861 4703 
Q 3103 4656 3366 4563 
z
" transform="scale(0.015625)"/>
       </defs>
       <use xlink:href="#DejaVuSans-30"/>
       <use xlink:href="#DejaVuSans-2e" x="63.623047"/>
       <use xlink:href="#DejaVuSans-36" x="95.410156"/>
      </g>
     </g>
    </g>
    <g id="ytick_5">
     <g id="line2d_9">
      <g>
       <use xlink:href="#mc799f8faa7" x="180" y="221.787253" style="stroke: #000000; stroke-width: 0.8"/>
      </g>
     </g>
     <g id="text_10">
      <!-- 0.8 -->
      <g transform="translate(157.096875 225.586471) scale(0.1 -0.1)">
       <defs>
        <path id="DejaVuSans-38" d="M 2034 2216 
Q 1584 2216 1326 1975 
Q 1069 1734 1069 1313 
Q 1069 891 1326 650 
Q 1584 409 2034 409 
Q 2484 409 2743 651 
Q 3003 894 3003 1313 
Q 3003 1734 2745 1975 
Q 2488 2216 2034 2216 
z
M 1403 2484 
Q 997 2584 770 2862 
Q 544 3141 544 3541 
Q 544 4100 942 4425 
Q 1341 4750 2034 4750 
Q 2731 4750 3128 4425 
Q 3525 4100 3525 3541 
Q 3525 3141 3298 2862 
Q 3072 2584 2669 2484 
Q 3125 2378 3379 2068 
Q 3634 1759 3634 1313 
Q 3634 634 3220 271 
Q 2806 -91 2034 -91 
Q 1263 -91 848 271 
Q 434 634 434 1313 
Q 434 1759 690 2068 
Q 947 2378 1403 2484 
z
M 1172 3481 
Q 1172 3119 1398 2916 
Q 1625 2713 2034 2713 
Q 2441 2713 2670 2916 
Q 2900 3119 2900 3481 
Q 2900 3844 2670 4047 
Q 2441 4250 2034 4250 
Q 1625 4250 1398 4047 
Q 1172 3844 1172 3481 
z
" transform="scale(0.015625)"/>
       </defs>
       <use xlink:href="#DejaVuSans-30"/>
       <use xlink:href="#DejaVuSans-2e" x="63.623047"/>
       <use xlink:href="#DejaVuSans-38" x="95.410156"/>
      </g>
     </g>
    </g>
    <g id="ytick_6">
     <g id="line2d_10">
      <g>
       <use xlink:href="#mc799f8faa7" x="180" y="134.707909" style="stroke: #000000; stroke-width: 0.8"/>
      </g>
     </g>
     <g id="text_11">
      <!-- 1.0 -->
      <g transform="translate(157.096875 138.507128) scale(0.1 -0.1)">
       <defs>
        <path id="DejaVuSans-31" d="M 794 531 
L 1825 531 
L 1825 4091 
L 703 3866 
L 703 4441 
L 1819 4666 
L 2450 4666 
L 2450 531 
L 3481 531 
L 3481 0 
L 794 0 
L 794 531 
z
" transform="scale(0.015625)"/>
       </defs>
       <use xlink:href="#DejaVuSans-31"/>
       <use xlink:href="#DejaVuSans-2e" x="63.623047"/>
       <use xlink:href="#DejaVuSans-30" x="95.410156"/>
      </g>
     </g>
    </g>
    <g id="text_12">
     <!-- cosine similarity -->
     <g transform="translate(151.017188 404.307031) rotate(-90) scale(0.1 -0.1)">
      <defs>
       <path id="DejaVuSans-63" d="M 3122 3366 
L 3122 2828 
Q 2878 2963 2633 3030 
Q 2388 3097 2138 3097 
Q 1578 3097 1268 2742 
Q 959 2388 959 1747 
Q 959 1106 1268 751 
Q 1578 397 2138 397 
Q 2388 397 2633 464 
Q 2878 531 3122 666 
L 3122 134 
Q 2881 22 2623 -34 
Q 2366 -91 2075 -91 
Q 1284 -91 818 406 
Q 353 903 353 1747 
Q 353 2603 823 3093 
Q 1294 3584 2113 3584 
Q 2378 3584 2631 3529 
Q 2884 3475 3122 3366 
z
" transform="scale(0.015625)"/>
       <path id="DejaVuSans-6f" d="M 1959 3097 
Q 1497 3097 1228 2736 
Q 959 2375 959 1747 
Q 959 1119 1226 758 
Q 1494 397 1959 397 
Q 2419 397 2687 759 
Q 2956 1122 2956 1747 
Q 2956 2369 2687 2733 
Q 2419 3097 1959 3097 
z
M 1959 3584 
Q 2709 3584 3137 3096 
Q 3566 2609 3566 1747 
Q 3566 888 3137 398 
Q 2709 -91 1959 -91 
Q 1206 -91 779 398 
Q 353 888 353 1747 
Q 353 2609 779 3096 
Q 1206 3584 1959 3584 
z
" transform="scale(0.015625)"/>
       <path id="DejaVuSans-72" d="M 2631 2963 
Q 2534 3019 2420 3045 
Q 2306 3072 2169 3072 
Q 1681 3072 1420 2755 
Q 1159 2438 1159 1844 
L 1159 0 
L 581 0 
L 581 3500 
L 1159 3500 
L 1159 2956 
Q 1341 3275 1631 3429 
Q 1922 3584 2338 3584 
Q 2397 3584 2469 3576 
Q 2541 3569 2628 3553 
L 2631 2963 
z
" transform="scale(0.015625)"/>
       <path id="DejaVuSans-79" d="M 2059 -325 
Q 1816 -950 1584 -1140 
Q 1353 -1331 966 -1331 
L 506 -1331 
L 506 -850 
L 844 -850 
Q 1081 -850 1212 -737 
Q 1344 -625 1503 -206 
L 1606 56 
L 191 3500 
L 800 3500 
L 1894 763 
L 2988 3500 
L 3597 3500 
L 2059 -325 
z
" transform="scale(0.015625)"/>
      </defs>
      <use xlink:href="#DejaVuSans-63"/>
      <use xlink:href="#DejaVuSans-6f" x="54.980469"/>
      <use xlink:href="#DejaVuSans-73" x="116.162109"/>
      <use xlink:href="#DejaVuSans-69" x="168.261719"/>
      <use xlink:href="#DejaVuSans-6e" x="196.044922"/>
      <use xlink:href="#DejaVuSans-65" x="259.423828"/>
      <use xlink:href="#DejaVuSans-20" x="320.947266"/>
      <use xlink:href="#DejaVuSans-73" x="352.734375"/>
      <use xlink:href="#DejaVuSans-69" x="404.833984"/>
      <use xlink:href="#DejaVuSans-6d" x="432.617188"/>
      <use xlink:href="#DejaVuSans-69" x="530.029297"/>
      <use xlink:href="#DejaVuSans-6c" x="557.8125"/>
      <use xlink:href="#DejaVuSans-61" x="585.595703"/>
      <use xlink:href="#DejaVuSans-72" x="646.875"/>
      <use xlink:href="#DejaVuSans-69" x="687.988281"/>
      <use xlink:href="#DejaVuSans-74" x="715.771484"/>
      <use xlink:href="#DejaVuSans-79" x="754.980469"/>
     </g>
    </g>
   </g>
   <g id="line2d_11">
    <path d="M 319.5 507.816597 
L 319.5 155.943795 
" clip-path="url(#pfd8c3bbeb4)" style="fill: none; stroke: #3f3f3f; stroke-width: 1.875; stroke-linecap: square"/>
   </g>
   <g id="line2d_12">
    <path d="M 319.5 377.261535 
L 319.5 287.843854 
" clip-path="url(#pfd8c3bbeb4)" style="fill: none; stroke: #3f3f3f; stroke-width: 5.625; stroke-linecap: square"/>
   </g>
   <g id="line2d_13">
    <path d="M 319.5 330.400863 
" clip-path="url(#pfd8c3bbeb4)" style="fill: none; stroke: #3f3f3f; stroke-width: 1.5; stroke-linecap: square"/>
    <defs>
     <path id="m3040f4d1b6" d="M 2.34375 0 
L -2.34375 -0 
" style="stroke: #ffffff; stroke-width: 1.125"/>
    </defs>
    <g clip-path="url(#pfd8c3bbeb4)">
     <use xlink:href="#m3040f4d1b6" x="319.5" y="330.400863" style="fill: #ffffff; stroke: #ffffff; stroke-width: 1.125"/>
    </g>
   </g>
   <g id="line2d_14">
    <path d="M 598.5 563.044869 
L 598.5 191.401038 
" clip-path="url(#pfd8c3bbeb4)" style="fill: none; stroke: #3f3f3f; stroke-width: 1.875; stroke-linecap: square"/>
   </g>
   <g id="line2d_15">
    <path d="M 598.5 405.786167 
L 598.5 288.163125 
" clip-path="url(#pfd8c3bbeb4)" style="fill: none; stroke: #3f3f3f; stroke-width: 5.625; stroke-linecap: square"/>
   </g>
   <g id="line2d_16">
    <path d="M 598.5 346.812957 
" clip-path="url(#pfd8c3bbeb4)" style="fill: none; stroke: #3f3f3f; stroke-width: 1.5; stroke-linecap: square"/>
    <g clip-path="url(#pfd8c3bbeb4)">
     <use xlink:href="#m3040f4d1b6" x="598.5" y="346.812957" style="fill: #ffffff; stroke: #ffffff; stroke-width: 1.125"/>
    </g>
   </g>
   <g id="line2d_17">
    <path d="M 877.5 488.576979 
L 877.5 200.947151 
" clip-path="url(#pfd8c3bbeb4)" style="fill: none; stroke: #3f3f3f; stroke-width: 1.875; stroke-linecap: square"/>
   </g>
   <g id="line2d_18">
    <path d="M 877.5 376.8609 
L 877.5 301.943713 
" clip-path="url(#pfd8c3bbeb4)" style="fill: none; stroke: #3f3f3f; stroke-width: 5.625; stroke-linecap: square"/>
   </g>
   <g id="line2d_19">
    <path d="M 877.5 338.320884 
" clip-path="url(#pfd8c3bbeb4)" style="fill: none; stroke: #3f3f3f; stroke-width: 1.5; stroke-linecap: square"/>
    <g clip-path="url(#pfd8c3bbeb4)">
     <use xlink:href="#m3040f4d1b6" x="877.5" y="338.320884" style="fill: #ffffff; stroke: #ffffff; stroke-width: 1.125"/>
    </g>
   </g>
   <g id="line2d_20">
    <path d="M 1156.5 528.924732 
L 1156.5 166.746617 
" clip-path="url(#pfd8c3bbeb4)" style="fill: none; stroke: #3f3f3f; stroke-width: 1.875; stroke-linecap: square"/>
   </g>
   <g id="line2d_21">
    <path d="M 1156.5 400.959831 
L 1156.5 302.103452 
" clip-path="url(#pfd8c3bbeb4)" style="fill: none; stroke: #3f3f3f; stroke-width: 5.625; stroke-linecap: square"/>
   </g>
   <g id="line2d_22">
    <path d="M 1156.5 352.34994 
" clip-path="url(#pfd8c3bbeb4)" style="fill: none; stroke: #3f3f3f; stroke-width: 1.5; stroke-linecap: square"/>
    <g clip-path="url(#pfd8c3bbeb4)">
     <use xlink:href="#m3040f4d1b6" x="1156.5" y="352.34994" style="fill: #ffffff; stroke: #ffffff; stroke-width: 1.125"/>
    </g>
   </g>
   <g id="patch_3">
    <path d="M 180 640.8 
L 180 86.4 
" style="fill: none; stroke: #000000; stroke-width: 0.8; stroke-linejoin: miter; stroke-linecap: square"/>
   </g>
   <g id="patch_4">
    <path d="M 1296 640.8 
L 1296 86.4 
" style="fill: none; stroke: #000000; stroke-width: 0.8; stroke-linejoin: miter; stroke-linecap: square"/>
   </g>
   <g id="patch_5">
    <path d="M 180 640.8 
L 1296 640.8 
" style="fill: none; stroke: #000000; stroke-width: 0.8; stroke-linejoin: miter; stroke-linecap: square"/>
   </g>
   <g id="patch_6">
    <path d="M 180 86.4 
L 1296 86.4 
" style="fill: none; stroke: #000000; stroke-width: 0.8; stroke-linejoin: miter; stroke-linecap: square"/>
   </g>
   <g id="text_13">
    <!-- cosine similarity of General Progressive Similarity (progressive), by file name -->
    <g transform="translate(506.682187 80.4) scale(0.12 -0.12)">
     <defs>
      <path id="DejaVuSans-47" d="M 3809 666 
L 3809 1919 
L 2778 1919 
L 2778 2438 
L 4434 2438 
L 4434 434 
Q 4069 175 3628 42 
Q 3188 -91 2688 -91 
Q 1594 -91 976 548 
Q 359 1188 359 2328 
Q 359 3472 976 4111 
Q 1594 4750 2688 4750 
Q 3144 4750 3555 4637 
Q 3966 4525 4313 4306 
L 4313 3634 
Q 3963 3931 3569 4081 
Q 3175 4231 2741 4231 
Q 1884 4231 1454 3753 
Q 1025 3275 1025 2328 
Q 1025 1384 1454 906 
Q 1884 428 2741 428 
Q 3075 428 3337 486 
Q 3600 544 3809 666 
z
" transform="scale(0.015625)"/>
      <path id="DejaVuSans-50" d="M 1259 4147 
L 1259 2394 
L 2053 2394 
Q 2494 2394 2734 2622 
Q 2975 2850 2975 3272 
Q 2975 3691 2734 3919 
Q 2494 4147 2053 4147 
L 1259 4147 
z
M 628 4666 
L 2053 4666 
Q 2838 4666 3239 4311 
Q 3641 3956 3641 3272 
Q 3641 2581 3239 2228 
Q 2838 1875 2053 1875 
L 1259 1875 
L 1259 0 
L 628 0 
L 628 4666 
z
" transform="scale(0.015625)"/>
      <path id="DejaVuSans-76" d="M 191 3500 
L 800 3500 
L 1894 563 
L 2988 3500 
L 3597 3500 
L 2284 0 
L 1503 0 
L 191 3500 
z
" transform="scale(0.015625)"/>
      <path id="DejaVuSans-53" d="M 3425 4513 
L 3425 3897 
Q 3066 4069 2747 4153 
Q 2428 4238 2131 4238 
Q 1616 4238 1336 4038 
Q 1056 3838 1056 3469 
Q 1056 3159 1242 3001 
Q 1428 2844 1947 2747 
L 2328 2669 
Q 3034 2534 3370 2195 
Q 3706 1856 3706 1288 
Q 3706 609 3251 259 
Q 2797 -91 1919 -91 
Q 1588 -91 1214 -16 
Q 841 59 441 206 
L 441 856 
Q 825 641 1194 531 
Q 1563 422 1919 422 
Q 2459 422 2753 634 
Q 3047 847 3047 1241 
Q 3047 1584 2836 1778 
Q 2625 1972 2144 2069 
L 1759 2144 
Q 1053 2284 737 2584 
Q 422 2884 422 3419 
Q 422 4038 858 4394 
Q 1294 4750 2059 4750 
Q 2388 4750 2728 4690 
Q 3069 4631 3425 4513 
z
" transform="scale(0.015625)"/>
      <path id="DejaVuSans-28" d="M 1984 4856 
Q 1566 4138 1362 3434 
Q 1159 2731 1159 2009 
Q 1159 1288 1364 580 
Q 1569 -128 1984 -844 
L 1484 -844 
Q 1016 -109 783 600 
Q 550 1309 550 2009 
Q 550 2706 781 3412 
Q 1013 4119 1484 4856 
L 1984 4856 
z
" transform="scale(0.015625)"/>
      <path id="DejaVuSans-70" d="M 1159 525 
L 1159 -1331 
L 581 -1331 
L 581 3500 
L 1159 3500 
L 1159 2969 
Q 1341 3281 1617 3432 
Q 1894 3584 2278 3584 
Q 2916 3584 3314 3078 
Q 3713 2572 3713 1747 
Q 3713 922 3314 415 
Q 2916 -91 2278 -91 
Q 1894 -91 1617 61 
Q 1341 213 1159 525 
z
M 3116 1747 
Q 3116 2381 2855 2742 
Q 2594 3103 2138 3103 
Q 1681 3103 1420 2742 
Q 1159 2381 1159 1747 
Q 1159 1113 1420 752 
Q 1681 391 2138 391 
Q 2594 391 2855 752 
Q 3116 1113 3116 1747 
z
" transform="scale(0.015625)"/>
      <path id="DejaVuSans-29" d="M 513 4856 
L 1013 4856 
Q 1481 4119 1714 3412 
Q 1947 2706 1947 2009 
Q 1947 1309 1714 600 
Q 1481 -109 1013 -844 
L 513 -844 
Q 928 -128 1133 580 
Q 1338 1288 1338 2009 
Q 1338 2731 1133 3434 
Q 928 4138 513 4856 
z
" transform="scale(0.015625)"/>
      <path id="DejaVuSans-2c" d="M 750 794 
L 1409 794 
L 1409 256 
L 897 -744 
L 494 -744 
L 750 256 
L 750 794 
z
" transform="scale(0.015625)"/>
      <path id="DejaVuSans-62" d="M 3116 1747 
Q 3116 2381 2855 2742 
Q 2594 3103 2138 3103 
Q 1681 3103 1420 2742 
Q 1159 2381 1159 1747 
Q 1159 1113 1420 752 
Q 1681 391 2138 391 
Q 2594 391 2855 752 
Q 3116 1113 3116 1747 
z
M 1159 2969 
Q 1341 3281 1617 3432 
Q 1894 3584 2278 3584 
Q 2916 3584 3314 3078 
Q 3713 2572 3713 1747 
Q 3713 922 3314 415 
Q 2916 -91 2278 -91 
Q 1894 -91 1617 61 
Q 1341 213 1159 525 
L 1159 0 
L 581 0 
L 581 4863 
L 1159 4863 
L 1159 2969 
z
" transform="scale(0.015625)"/>
     </defs>
     <use xlink:href="#DejaVuSans-63"/>
     <use xlink:href="#DejaVuSans-6f" x="54.980469"/>
     <use xlink:href="#DejaVuSans-73" x="116.162109"/>
     <use xlink:href="#DejaVuSans-69" x="168.261719"/>
     <use xlink:href="#DejaVuSans-6e" x="196.044922"/>
     <use xlink:href="#DejaVuSans-65" x="259.423828"/>
     <use xlink:href="#DejaVuSans-20" x="320.947266"/>
     <use xlink:href="#DejaVuSans-73" x="352.734375"/>
     <use xlink:href="#DejaVuSans-69" x="404.833984"/>
     <use xlink:href="#DejaVuSans-6d" x="432.617188"/>
     <use xlink:href="#DejaVuSans-69" x="530.029297"/>
     <use xlink:href="#DejaVuSans-6c" x="557.8125"/>
     <use xlink:href="#DejaVuSans-61" x="585.595703"/>
     <use xlink:href="#DejaVuSans-72" x="646.875"/>
     <use xlink:href="#DejaVuSans-69" x="687.988281"/>
     <use xlink:href="#DejaVuSans-74" x="715.771484"/>
     <use xlink:href="#DejaVuSans-79" x="754.980469"/>
     <use xlink:href="#DejaVuSans-20" x="814.160156"/>
     <use xlink:href="#DejaVuSans-6f" x="845.947266"/>
     <use xlink:href="#DejaVuSans-66" x="907.128906"/>
     <use xlink:href="#DejaVuSans-20" x="942.333984"/>
     <use xlink:href="#DejaVuSans-47" x="974.121094"/>
     <use xlink:href="#DejaVuSans-65" x="1051.611328"/>
     <use xlink:href="#DejaVuSans-6e" x="1113.134766"/>
     <use xlink:href="#DejaVuSans-65" x="1176.513672"/>
     <use xlink:href="#DejaVuSans-72" x="1238.037109"/>
     <use xlink:href="#DejaVuSans-61" x="1279.150391"/>
     <use xlink:href="#DejaVuSans-6c" x="1340.429688"/>
     <use xlink:href="#DejaVuSans-20" x="1368.212891"/>
     <use xlink:href="#DejaVuSans-50" x="1400"/>
     <use xlink:href="#DejaVuSans-72" x="1458.552734"/>
     <use xlink:href="#DejaVuSans-6f" x="1497.416016"/>
     <use xlink:href="#DejaVuSans-67" x="1558.597656"/>
     <use xlink:href="#DejaVuSans-72" x="1622.074219"/>
     <use xlink:href="#DejaVuSans-65" x="1660.9375"/>
     <use xlink:href="#DejaVuSans-73" x="1722.460938"/>
     <use xlink:href="#DejaVuSans-73" x="1774.560547"/>
     <use xlink:href="#DejaVuSans-69" x="1826.660156"/>
     <use xlink:href="#DejaVuSans-76" x="1854.443359"/>
     <use xlink:href="#DejaVuSans-65" x="1913.623047"/>
     <use xlink:href="#DejaVuSans-20" x="1975.146484"/>
     <use xlink:href="#DejaVuSans-53" x="2006.933594"/>
     <use xlink:href="#DejaVuSans-69" x="2070.410156"/>
     <use xlink:href="#DejaVuSans-6d" x="2098.193359"/>
     <use xlink:href="#DejaVuSans-69" x="2195.605469"/>
     <use xlink:href="#DejaVuSans-6c" x="2223.388672"/>
     <use xlink:href="#DejaVuSans-61" x="2251.171875"/>
     <use xlink:href="#DejaVuSans-72" x="2312.451172"/>
     <use xlink:href="#DejaVuSans-69" x="2353.564453"/>
     <use xlink:href="#DejaVuSans-74" x="2381.347656"/>
     <use xlink:href="#DejaVuSans-79" x="2420.556641"/>
     <use xlink:href="#DejaVuSans-20" x="2479.736328"/>
     <use xlink:href="#DejaVuSans-28" x="2511.523438"/>
     <use xlink:href="#DejaVuSans-70" x="2550.537109"/>
     <use xlink:href="#DejaVuSans-72" x="2614.013672"/>
     <use xlink:href="#DejaVuSans-6f" x="2652.876953"/>
     <use xlink:href="#DejaVuSans-67" x="2714.058594"/>
     <use xlink:href="#DejaVuSans-72" x="2777.535156"/>
     <use xlink:href="#DejaVuSans-65" x="2816.398438"/>
     <use xlink:href="#DejaVuSans-73" x="2877.921875"/>
     <use xlink:href="#DejaVuSans-73" x="2930.021484"/>
     <use xlink:href="#DejaVuSans-69" x="2982.121094"/>
     <use xlink:href="#DejaVuSans-76" x="3009.904297"/>
     <use xlink:href="#DejaVuSans-65" x="3069.083984"/>
     <use xlink:href="#DejaVuSans-29" x="3130.607422"/>
     <use xlink:href="#DejaVuSans-2c" x="3169.621094"/>
     <use xlink:href="#DejaVuSans-20" x="3201.408203"/>
     <use xlink:href="#DejaVuSans-62" x="3233.195312"/>
     <use xlink:href="#DejaVuSans-79" x="3296.671875"/>
     <use xlink:href="#DejaVuSans-20" x="3355.851562"/>
     <use xlink:href="#DejaVuSans-66" x="3387.638672"/>
     <use xlink:href="#DejaVuSans-69" x="3422.84375"/>
     <use xlink:href="#DejaVuSans-6c" x="3450.626953"/>
     <use xlink:href="#DejaVuSans-65" x="3478.410156"/>
     <use xlink:href="#DejaVuSans-20" x="3539.933594"/>
     <use xlink:href="#DejaVuSans-6e" x="3571.720703"/>
     <use xlink:href="#DejaVuSans-61" x="3635.099609"/>
     <use xlink:href="#DejaVuSans-6d" x="3696.378906"/>
     <use xlink:href="#DejaVuSans-65" x="3793.791016"/>
    </g>
   </g>
  </g>
 </g>
 <defs>
  <clipPath id="pfd8c3bbeb4">
   <rect x="180" y="86.4" width="1116" height="554.4"/>
  </clipPath>
 </defs>
</svg>
