<?xml version="1.0" encoding="utf-8" standalone="no"?>
<!DOCTYPE svg PUBLIC "-//W3C//DTD SVG 1.1//EN"
  "http://www.w3.org/Graphics/SVG/1.1/DTD/svg11.dtd">
<svg xmlns:xlink="http://www.w3.org/1999/xlink" width="1440pt" height="720pt" viewBox="0 0 1440 720" xmlns="http://www.w3.org/2000/svg" version="1.1">
 <metadata>
  <rdf:RDF xmlns:dc="http://purl.org/dc/elements/1.1/" xmlns:cc="http://creativecommons.org/ns#" xmlns:rdf="http://www.w3.org/1999/02/22-rdf-syntax-ns#">
   <cc:Work>
    <dc:type rdf:resource="http://purl.org/dc/dcmitype/StillImage"/>
    <dc:date>2024-07-07T14:31:11.573784</dc:date>
    <dc:format>image/svg+xml</dc:format>
    <dc:creator>
     <cc:Agent>
      <dc:title>Matplotlib v3.8.0, https://matplotlib.org/</dc:title>
     </cc:Agent>
    </dc:creator>
   </cc:Work>
  </rdf:RDF>
 </metadata>
 <defs>
  <style type="text/css">*{stroke-linejoin: round; stroke-linecap: butt}</style>
 </defs>
 <g id="figure_1">
  <g id="patch_1">
   <path d="M 0 720 
L 1440 720 
L 1440 0 
L 0 0 
z
" style="fill: #ffffff"/>
  </g>
  <g id="axes_1">
   <g id="patch_2">
    <path d="M 180 640.8 
L 1296 640.8 
L 1296 86.4 
L 180 86.4 
z
" style="fill: #ffffff"/>
   </g>
   <g id="PolyCollection_1">
    <defs>
     <path id="m81f13f4487" d="M 319.794093 -144.796048 
L 319.205907 -144.796048 
L 319.051955 -149.478916 
L 318.844663 -154.161785 
L 318.578365 -158.844653 
L 318.25127 -163.527521 
L 317.86568 -168.210389 
L 317.426777 -172.893257 
L 316.939919 -177.576126 
L 316.406963 -182.258994 
L 315.822702 -186.941862 
L 315.17273 -191.62473 
L 314.433868 -196.307598 
L 313.577568 -200.990467 
L 312.575811 -205.673335 
L 311.408078 -210.356203 
L 310.067555 -215.039071 
L 308.564768 -219.721939 
L 306.927483 -224.404808 
L 305.196609 -229.087676 
L 303.4188 -233.770544 
L 301.637224 -238.453412 
L 299.88239 -243.13628 
L 298.164976 -247.819149 
L 296.47226 -252.502017 
L 294.769068 -257.184885 
L 293.003222 -261.867753 
L 291.114376 -266.550621 
L 289.044255 -271.23349 
L 286.74579 -275.916358 
L 284.188832 -280.599226 
L 281.360936 -285.282094 
L 278.263175 -289.964962 
L 274.902453 -294.647831 
L 271.28307 -299.330699 
L 267.400879 -304.013567 
L 263.242919 -308.696435 
L 258.794117 -313.379303 
L 254.050522 -318.062172 
L 249.036231 -322.74504 
L 243.819144 -327.427908 
L 238.519752 -332.110776 
L 233.307853 -336.793644 
L 228.384689 -341.476513 
L 223.952078 -346.159381 
L 220.174736 -350.842249 
L 217.145391 -355.525117 
L 214.863174 -360.207985 
L 213.233131 -364.890854 
L 212.089172 -369.573722 
L 211.235793 -374.25659 
L 210.498043 -378.939458 
L 209.766414 -383.622326 
L 209.024719 -388.305195 
L 208.354061 -392.988063 
L 207.912939 -397.670931 
L 207.9 -402.353799 
L 208.509902 -407.036667 
L 209.893266 -411.719536 
L 212.129066 -416.402404 
L 215.213342 -421.085272 
L 219.063612 -425.76814 
L 223.535108 -430.451008 
L 228.443709 -435.133877 
L 233.590774 -439.816745 
L 238.786402 -444.499613 
L 243.868832 -449.182481 
L 248.718535 -453.865349 
L 253.265826 -458.548218 
L 257.49113 -463.231086 
L 261.41775 -467.913954 
L 265.098239 -472.596822 
L 268.597051 -477.27969 
L 271.973271 -481.962559 
L 275.267451 -486.645427 
L 278.495434 -491.328295 
L 281.650001 -496.011163 
L 284.708792 -500.694031 
L 287.645188 -505.3769 
L 290.438339 -510.059768 
L 293.0793 -514.742636 
L 295.572031 -519.425504 
L 297.929909 -524.108372 
L 300.169775 -528.791241 
L 302.305928 -533.474109 
L 304.345956 -538.156977 
L 306.289224 -542.839845 
L 308.127814 -547.522713 
L 309.849018 -552.205582 
L 311.438347 -556.88845 
L 312.882249 -561.571318 
L 314.170155 -566.254186 
L 315.295786 -570.937054 
L 316.257851 -575.619923 
L 317.060255 -580.302791 
L 317.71189 -584.985659 
L 318.226009 -589.668527 
L 318.619211 -594.351395 
L 318.910119 -599.034264 
L 319.117923 -603.717132 
L 319.261 -608.4 
L 319.739 -608.4 
L 319.739 -608.4 
L 319.882077 -603.717132 
L 320.089881 -599.034264 
L 320.380789 -594.351395 
L 320.773991 -589.668527 
L 321.28811 -584.985659 
L 321.939745 -580.302791 
L 322.742149 -575.619923 
L 323.704214 -570.937054 
L 324.829845 -566.254186 
L 326.117751 -561.571318 
L 327.561653 -556.88845 
L 329.150982 -552.205582 
L 330.872186 -547.522713 
L 332.710776 -542.839845 
L 334.654044 -538.156977 
L 336.694072 -533.474109 
L 338.830225 -528.791241 
L 341.070091 -524.108372 
L 343.427969 -519.425504 
L 345.9207 -514.742636 
L 348.561661 -510.059768 
L 351.354812 -505.3769 
L 354.291208 -500.694031 
L 357.349999 -496.011163 
L 360.504566 -491.328295 
L 363.732549 -486.645427 
L 367.026729 -481.962559 
L 370.402949 -477.27969 
L 373.901761 -472.596822 
L 377.58225 -467.913954 
L 381.50887 -463.231086 
L 385.734174 -458.548218 
L 390.281465 -453.865349 
L 395.131168 -449.182481 
L 400.213598 -444.499613 
L 405.409226 -439.816745 
L 410.556291 -435.133877 
L 415.464892 -430.451008 
L 419.936388 -425.76814 
L 423.786658 -421.085272 
L 426.870934 -416.402404 
L 429.106734 -411.719536 
L 430.490098 -407.036667 
L 431.1 -402.353799 
L 431.087061 -397.670931 
L 430.645939 -392.988063 
L 429.975281 -388.305195 
L 429.233586 -383.622326 
L 428.501957 -378.939458 
L 427.764207 -374.25659 
L 426.910828 -369.573722 
L 425.766869 -364.890854 
L 424.136826 -360.207985 
L 421.854609 -355.525117 
L 418.825264 -350.842249 
L 415.047922 -346.159381 
L 410.615311 -341.476513 
L 405.692147 -336.793644 
L 400.480248 -332.110776 
L 395.180856 -327.427908 
L 389.963769 -322.74504 
L 384.949478 -318.062172 
L 380.205883 -313.379303 
L 375.757081 -308.696435 
L 371.599121 -304.013567 
L 367.71693 -299.330699 
L 364.097547 -294.647831 
L 360.736825 -289.964962 
L 357.639064 -285.282094 
L 354.811168 -280.599226 
L 352.25421 -275.916358 
L 349.955745 -271.23349 
L 347.885624 -266.550621 
L 345.996778 -261.867753 
L 344.230932 -257.184885 
L 342.52774 -252.502017 
L 340.835024 -247.819149 
L 339.11761 -243.13628 
L 337.362776 -238.453412 
L 335.5812 -233.770544 
L 333.803391 -229.087676 
L 332.072517 -224.404808 
L 330.435232 -219.721939 
L 328.932445 -215.039071 
L 327.591922 -210.356203 
L 326.424189 -205.673335 
L 325.422432 -200.990467 
L 324.566132 -196.307598 
L 323.82727 -191.62473 
L 323.177298 -186.941862 
L 322.593037 -182.258994 
L 322.060081 -177.576126 
L 321.573223 -172.893257 
L 321.13432 -168.210389 
L 320.74873 -163.527521 
L 320.421635 -158.844653 
L 320.155337 -154.161785 
L 319.948045 -149.478916 
L 319.794093 -144.796048 
z
" style="stroke: #3f3f3f; stroke-width: 1.25"/>
    </defs>
    <g clip-path="url(#p0439f6627b)">
     <use xlink:href="#m81f13f4487" x="0" y="720" style="fill: #3274a1; stroke: #3f3f3f; stroke-width: 1.25"/>
    </g>
   </g>
   <g id="PolyCollection_2">
    <defs>
     <path id="mec9eb7898d" d="M 598.800903 -109.560397 
L 598.199097 -109.560397 
L 598.037126 -114.298279 
L 597.809692 -119.036161 
L 597.501329 -123.774043 
L 597.097477 -128.511925 
L 596.586285 -133.249807 
L 595.960345 -137.987689 
L 595.217933 -142.72557 
L 594.363333 -147.463452 
L 593.405962 -152.201334 
L 592.358297 -156.939216 
L 591.232949 -161.677098 
L 590.039557 -166.41498 
L 588.782355 -171.152862 
L 587.459177 -175.890743 
L 586.062381 -180.628625 
L 584.581608 -185.366507 
L 583.00775 -190.104389 
L 581.337036 -194.842271 
L 579.574044 -199.580153 
L 577.73265 -204.318035 
L 575.83452 -209.055916 
L 573.905471 -213.793798 
L 571.970715 -218.53168 
L 570.050357 -223.269562 
L 568.156475 -228.007444 
L 566.292625 -232.745326 
L 564.455831 -237.483207 
L 562.64035 -242.221089 
L 560.841874 -246.958971 
L 559.060761 -251.696853 
L 557.30312 -256.434735 
L 555.579315 -261.172617 
L 553.900204 -265.910499 
L 552.272132 -270.64838 
L 550.692071 -275.386262 
L 549.144298 -280.124144 
L 547.599654 -284.862026 
L 546.01787 -289.599908 
L 544.352764 -294.33779 
L 542.559508 -299.075672 
L 540.602595 -303.813553 
L 538.462917 -308.551435 
L 536.142355 -313.289317 
L 533.664758 -318.027199 
L 531.07292 -322.765081 
L 528.422226 -327.502963 
L 525.772448 -332.240845 
L 523.179757 -336.978726 
L 520.690835 -341.716608 
L 518.340251 -346.45449 
L 516.151147 -351.192372 
L 514.138175 -355.930254 
L 512.310997 -360.668136 
L 510.676717 -365.406018 
L 509.240277 -370.143899 
L 508.002873 -374.881781 
L 506.959379 -379.619663 
L 506.096286 -384.357545 
L 505.391632 -389.095427 
L 504.817832 -393.833309 
L 504.347514 -398.57119 
L 503.961557 -403.309072 
L 503.657825 -408.046954 
L 503.458683 -412.784836 
L 503.415358 -417.522718 
L 503.607636 -422.2606 
L 504.138168 -426.998482 
L 505.121719 -431.736363 
L 506.670783 -436.474245 
L 508.879806 -441.212127 
L 511.810656 -445.950009 
L 515.481791 -450.687891 
L 519.862824 -455.425773 
L 524.87525 -460.163655 
L 530.398942 -464.901536 
L 536.283216 -469.639418 
L 542.360658 -474.3773 
L 548.461745 -479.115182 
L 554.428374 -483.853064 
L 560.124826 -488.590946 
L 565.445137 -493.328828 
L 570.316484 -498.066709 
L 574.698742 -502.804591 
L 578.580867 -507.542473 
L 581.975135 -512.280355 
L 584.910384 -517.018237 
L 587.425356 -521.756119 
L 589.562999 -526.494 
L 591.366239 -531.231882 
L 592.875361 -535.969764 
L 594.126836 -540.707646 
L 595.153228 -545.445528 
L 595.98374 -550.18341 
L 596.644964 -554.921292 
L 597.161523 -559.659173 
L 597.556438 -564.397055 
L 597.851176 -569.134937 
L 598.06545 -573.872819 
L 598.216903 -578.610701 
L 598.783097 -578.610701 
L 598.783097 -578.610701 
L 598.93455 -573.872819 
L 599.148824 -569.134937 
L 599.443562 -564.397055 
L 599.838477 -559.659173 
L 600.355036 -554.921292 
L 601.01626 -550.18341 
L 601.846772 -545.445528 
L 602.873164 -540.707646 
L 604.124639 -535.969764 
L 605.633761 -531.231882 
L 607.437001 -526.494 
L 609.574644 -521.756119 
L 612.089616 -517.018237 
L 615.024865 -512.280355 
L 618.419133 -507.542473 
L 622.301258 -502.804591 
L 626.683516 -498.066709 
L 631.554863 -493.328828 
L 636.875174 -488.590946 
L 642.571626 -483.853064 
L 648.538255 -479.115182 
L 654.639342 -474.3773 
L 660.716784 -469.639418 
L 666.601058 -464.901536 
L 672.12475 -460.163655 
L 677.137176 -455.425773 
L 681.518209 -450.687891 
L 685.189344 -445.950009 
L 688.120194 -441.212127 
L 690.329217 -436.474245 
L 691.878281 -431.736363 
L 692.861832 -426.998482 
L 693.392364 -422.2606 
L 693.584642 -417.522718 
L 693.541317 -412.784836 
L 693.342175 -408.046954 
L 693.038443 -403.309072 
L 692.652486 -398.57119 
L 692.182168 -393.833309 
L 691.608368 -389.095427 
L 690.903714 -384.357545 
L 690.040621 -379.619663 
L 688.997127 -374.881781 
L 687.759723 -370.143899 
L 686.323283 -365.406018 
L 684.689003 -360.668136 
L 682.861825 -355.930254 
L 680.848853 -351.192372 
L 678.659749 -346.45449 
L 676.309165 -341.716608 
L 673.820243 -336.978726 
L 671.227552 -332.240845 
L 668.577774 -327.502963 
L 665.92708 -322.765081 
L 663.335242 -318.027199 
L 660.857645 -313.289317 
L 658.537083 -308.551435 
L 656.397405 -303.813553 
L 654.440492 -299.075672 
L 652.647236 -294.33779 
L 650.98213 -289.599908 
L 649.400346 -284.862026 
L 647.855702 -280.124144 
L 646.307929 -275.386262 
L 644.727868 -270.64838 
L 643.099796 -265.910499 
L 641.420685 -261.172617 
L 639.69688 -256.434735 
L 637.939239 -251.696853 
L 636.158126 -246.958971 
L 634.35965 -242.221089 
L 632.544169 -237.483207 
L 630.707375 -232.745326 
L 628.843525 -228.007444 
L 626.949643 -223.269562 
L 625.029285 -218.53168 
L 623.094529 -213.793798 
L 621.16548 -209.055916 
L 619.26735 -204.318035 
L 617.425956 -199.580153 
L 615.662964 -194.842271 
L 613.99225 -190.104389 
L 612.418392 -185.366507 
L 610.937619 -180.628625 
L 609.540823 -175.890743 
L 608.217645 -171.152862 
L 606.960443 -166.41498 
L 605.767051 -161.677098 
L 604.641703 -156.939216 
L 603.594038 -152.201334 
L 602.636667 -147.463452 
L 601.782067 -142.72557 
L 601.039655 -137.987689 
L 600.413715 -133.249807 
L 599.902523 -128.511925 
L 599.498671 -123.774043 
L 599.190308 -119.036161 
L 598.962874 -114.298279 
L 598.800903 -109.560397 
z
" style="stroke: #3f3f3f; stroke-width: 1.25"/>
    </defs>
    <g clip-path="url(#p0439f6627b)">
     <use xlink:href="#mec9eb7898d" x="0" y="720" style="fill: #3274a1; stroke: #3f3f3f; stroke-width: 1.25"/>
    </g>
   </g>
   <g id="PolyCollection_3">
    <defs>
     <path id="mcbfe021e2b" d="M 877.684998 -104.4 
L 877.315002 -104.4 
L 877.215249 -109.423931 
L 877.072535 -114.447862 
L 876.873451 -119.471793 
L 876.602465 -124.495723 
L 876.24243 -129.519654 
L 875.775579 -134.543585 
L 875.185116 -139.567516 
L 874.457441 -144.591447 
L 873.584872 -149.615378 
L 872.568523 -154.639308 
L 871.420776 -159.663239 
L 870.166626 -164.68717 
L 868.843217 -169.711101 
L 867.497104 -174.735032 
L 866.179207 -179.758963 
L 864.937959 -184.782894 
L 863.811673 -189.806824 
L 862.821414 -194.830755 
L 861.96577 -199.854686 
L 861.218561 -204.878617 
L 860.530087 -209.902548 
L 859.831839 -214.926479 
L 859.044033 -219.95041 
L 858.084845 -224.97434 
L 856.879958 -229.998271 
L 855.371003 -235.022202 
L 853.52161 -240.046133 
L 851.320197 -245.070064 
L 848.779091 -250.093995 
L 845.930227 -255.117925 
L 842.818294 -260.141856 
L 839.492705 -265.165787 
L 836.000125 -270.189718 
L 832.379216 -275.213649 
L 828.658839 -280.23758 
L 824.860178 -285.261511 
L 821.002208 -290.285441 
L 817.108997 -295.309372 
L 813.216691 -300.333303 
L 809.377994 -305.357234 
L 805.662513 -310.381165 
L 802.152418 -315.405096 
L 798.934142 -320.429026 
L 796.087888 -325.452957 
L 793.677276 -330.476888 
L 791.74137 -335.500819 
L 790.290629 -340.52475 
L 789.307381 -345.548681 
L 788.75037 -350.572612 
L 788.56219 -355.596542 
L 788.678027 -360.620473 
L 789.034088 -365.644404 
L 789.574416 -370.668335 
L 790.255264 -375.692266 
L 791.046722 -380.716197 
L 791.93187 -385.740128 
L 792.904106 -390.764058 
L 793.963517 -395.787989 
L 795.11319 -400.81192 
L 796.356124 -405.835851 
L 797.693146 -410.859782 
L 799.121893 -415.883713 
L 800.636768 -420.907643 
L 802.229682 -425.931574 
L 803.891405 -430.955505 
L 805.613368 -435.979436 
L 807.38971 -441.003367 
L 809.219244 -446.027298 
L 811.106913 -451.051229 
L 813.064259 -456.075159 
L 815.108528 -461.09909 
L 817.260312 -466.123021 
L 819.53997 -471.146952 
L 821.963455 -476.170883 
L 824.538378 -481.194814 
L 827.261202 -486.218744 
L 830.116255 -491.242675 
L 833.076868 -496.266606 
L 836.108465 -501.290537 
L 839.172958 -506.314468 
L 842.233456 -511.338399 
L 845.258236 -516.36233 
L 848.223074 -521.38626 
L 851.111476 -526.410191 
L 853.912889 -531.434122 
L 856.619515 -536.458053 
L 859.222717 -541.481984 
L 861.710083 -546.505915 
L 864.064021 -551.529846 
L 866.262298 -556.553776 
L 868.280396 -561.577707 
L 870.095077 -566.601638 
L 871.68823 -571.625569 
L 873.050082 -576.6495 
L 874.181041 -581.673431 
L 875.091858 -586.697361 
L 875.802198 -591.721292 
L 876.338085 -596.745223 
L 876.728812 -601.769154 
L 878.271188 -601.769154 
L 878.271188 -601.769154 
L 878.661915 -596.745223 
L 879.197802 -591.721292 
L 879.908142 -586.697361 
L 880.818959 -581.673431 
L 881.949918 -576.6495 
L 883.31177 -571.625569 
L 884.904923 -566.601638 
L 886.719604 -561.577707 
L 888.737702 -556.553776 
L 890.935979 -551.529846 
L 893.289917 -546.505915 
L 895.777283 -541.481984 
L 898.380485 -536.458053 
L 901.087111 -531.434122 
L 903.888524 -526.410191 
L 906.776926 -521.38626 
L 909.741764 -516.36233 
L 912.766544 -511.338399 
L 915.827042 -506.314468 
L 918.891535 -501.290537 
L 921.923132 -496.266606 
L 924.883745 -491.242675 
L 927.738798 -486.218744 
L 930.461622 -481.194814 
L 933.036545 -476.170883 
L 935.46003 -471.146952 
L 937.739688 -466.123021 
L 939.891472 -461.09909 
L 941.935741 -456.075159 
L 943.893087 -451.051229 
L 945.780756 -446.027298 
L 947.61029 -441.003367 
L 949.386632 -435.979436 
L 951.108595 -430.955505 
L 952.770318 -425.931574 
L 954.363232 -420.907643 
L 955.878107 -415.883713 
L 957.306854 -410.859782 
L 958.643876 -405.835851 
L 959.88681 -400.81192 
L 961.036483 -395.787989 
L 962.095894 -390.764058 
L 963.06813 -385.740128 
L 963.953278 -380.716197 
L 964.744736 -375.692266 
L 965.425584 -370.668335 
L 965.965912 -365.644404 
L 966.321973 -360.620473 
L 966.43781 -355.596542 
L 966.24963 -350.572612 
L 965.692619 -345.548681 
L 964.709371 -340.52475 
L 963.25863 -335.500819 
L 961.322724 -330.476888 
L 958.912112 -325.452957 
L 956.065858 -320.429026 
L 952.847582 -315.405096 
L 949.337487 -310.381165 
L 945.622006 -305.357234 
L 941.783309 -300.333303 
L 937.891003 -295.309372 
L 933.997792 -290.285441 
L 930.139822 -285.261511 
L 926.341161 -280.23758 
L 922.620784 -275.213649 
L 918.999875 -270.189718 
L 915.507295 -265.165787 
L 912.181706 -260.141856 
L 909.069773 -255.117925 
L 906.220909 -250.093995 
L 903.679803 -245.070064 
L 901.47839 -240.046133 
L 899.628997 -235.022202 
L 898.120042 -229.998271 
L 896.915155 -224.97434 
L 895.955967 -219.95041 
L 895.168161 -214.926479 
L 894.469913 -209.902548 
L 893.781439 -204.878617 
L 893.03423 -199.854686 
L 892.178586 -194.830755 
L 891.188327 -189.806824 
L 890.062041 -184.782894 
L 888.820793 -179.758963 
L 887.502896 -174.735032 
L 886.156783 -169.711101 
L 884.833374 -164.68717 
L 883.579224 -159.663239 
L 882.431477 -154.639308 
L 881.415128 -149.615378 
L 880.542559 -144.591447 
L 879.814884 -139.567516 
L 879.224421 -134.543585 
L 878.75757 -129.519654 
L 878.397535 -124.495723 
L 878.126549 -119.471793 
L 877.927465 -114.447862 
L 877.784751 -109.423931 
L 877.684998 -104.4 
z
" style="stroke: #3f3f3f; stroke-width: 1.25"/>
    </defs>
    <g clip-path="url(#p0439f6627b)">
     <use xlink:href="#mcbfe021e2b" x="0" y="720" style="fill: #3274a1; stroke: #3f3f3f; stroke-width: 1.25"/>
    </g>
   </g>
   <g id="PolyCollection_4">
    <defs>
     <path id="med9001fbf2" d="M 1156.734638 -106.882788 
L 1156.265362 -106.882788 
L 1156.138723 -111.857392 
L 1155.968383 -116.831996 
L 1155.751931 -121.806601 
L 1155.492445 -126.781205 
L 1155.1993 -131.755809 
L 1154.887292 -136.730413 
L 1154.573733 -141.705018 
L 1154.27383 -146.679622 
L 1153.995363 -151.654226 
L 1153.734225 -156.62883 
L 1153.472358 -161.603435 
L 1153.1791 -166.578039 
L 1152.815916 -171.552643 
L 1152.34344 -176.527247 
L 1151.728926 -181.501852 
L 1150.952001 -186.476456 
L 1150.006982 -191.45106 
L 1148.900877 -196.425664 
L 1147.647335 -201.400269 
L 1146.257954 -206.374873 
L 1144.733321 -211.349477 
L 1143.056589 -216.324081 
L 1141.192176 -221.298686 
L 1139.09095 -226.27329 
L 1136.701416 -231.247894 
L 1133.98429 -236.222498 
L 1130.926293 -241.197103 
L 1127.548762 -246.171707 
L 1123.907997 -251.146311 
L 1120.086808 -256.120915 
L 1116.179595 -261.09552 
L 1112.275242 -266.070124 
L 1108.442435 -271.044728 
L 1104.720645 -276.019332 
L 1101.117585 -280.993937 
L 1097.611806 -285.968541 
L 1094.158131 -290.943145 
L 1090.694232 -295.917749 
L 1087.148254 -300.892354 
L 1083.448736 -305.866958 
L 1079.538113 -310.841562 
L 1075.389414 -315.816167 
L 1071.023186 -320.790771 
L 1066.51956 -325.765375 
L 1062.020258 -330.739979 
L 1057.717558 -335.714584 
L 1053.831097 -340.689188 
L 1050.57718 -345.663792 
L 1048.137363 -350.638396 
L 1046.632839 -355.613001 
L 1046.109028 -360.587605 
L 1046.53212 -365.562209 
L 1047.797124 -370.536813 
L 1049.745644 -375.511418 
L 1052.190721 -380.486022 
L 1054.945037 -385.460626 
L 1057.847686 -390.43523 
L 1060.784125 -395.409835 
L 1063.694883 -400.384439 
L 1066.571276 -405.359043 
L 1069.440289 -410.333647 
L 1072.344185 -415.308252 
L 1075.321905 -420.282856 
L 1078.398008 -425.25746 
L 1081.581374 -430.232064 
L 1084.871618 -435.206669 
L 1088.268144 -440.181273 
L 1091.776085 -445.155877 
L 1095.405446 -450.130481 
L 1099.16331 -455.105086 
L 1103.042505 -460.07969 
L 1107.011935 -465.054294 
L 1111.01324 -470.028898 
L 1114.965855 -475.003503 
L 1118.779214 -479.978107 
L 1122.36823 -484.952711 
L 1125.667311 -489.927315 
L 1128.63916 -494.90192 
L 1131.276851 -499.876524 
L 1133.599991 -504.851128 
L 1135.647325 -509.825732 
L 1137.4685 -514.800337 
L 1139.116885 -519.774941 
L 1140.644188 -524.749545 
L 1142.096506 -529.724149 
L 1143.511066 -534.698754 
L 1144.913214 -539.673358 
L 1146.313878 -544.647962 
L 1147.708348 -549.622566 
L 1149.077291 -554.597171 
L 1150.390443 -559.571775 
L 1151.612533 -564.546379 
L 1152.710174 -569.520983 
L 1153.658064 -574.495588 
L 1154.443065 -579.470192 
L 1155.065416 -584.444796 
L 1155.5372 -589.4194 
L 1155.87891 -594.394005 
L 1156.115259 -599.368609 
L 1156.884741 -599.368609 
L 1156.884741 -599.368609 
L 1157.12109 -594.394005 
L 1157.4628 -589.4194 
L 1157.934584 -584.444796 
L 1158.556935 -579.470192 
L 1159.341936 -574.495588 
L 1160.289826 -569.520983 
L 1161.387467 -564.546379 
L 1162.609557 -559.571775 
L 1163.922709 -554.597171 
L 1165.291652 -549.622566 
L 1166.686122 -544.647962 
L 1168.086786 -539.673358 
L 1169.488934 -534.698754 
L 1170.903494 -529.724149 
L 1172.355812 -524.749545 
L 1173.883115 -519.774941 
L 1175.5315 -514.800337 
L 1177.352675 -509.825732 
L 1179.400009 -504.851128 
L 1181.723149 -499.876524 
L 1184.36084 -494.90192 
L 1187.332689 -489.927315 
L 1190.63177 -484.952711 
L 1194.220786 -479.978107 
L 1198.034145 -475.003503 
L 1201.98676 -470.028898 
L 1205.988065 -465.054294 
L 1209.957495 -460.07969 
L 1213.83669 -455.105086 
L 1217.594554 -450.130481 
L 1221.223915 -445.155877 
L 1224.731856 -440.181273 
L 1228.128382 -435.206669 
L 1231.418626 -430.232064 
L 1234.601992 -425.25746 
L 1237.678095 -420.282856 
L 1240.655815 -415.308252 
L 1243.559711 -410.333647 
L 1246.428724 -405.359043 
L 1249.305117 -400.384439 
L 1252.215875 -395.409835 
L 1255.152314 -390.43523 
L 1258.054963 -385.460626 
L 1260.809279 -380.486022 
L 1263.254356 -375.511418 
L 1265.202876 -370.536813 
L 1266.46788 -365.562209 
L 1266.890972 -360.587605 
L 1266.367161 -355.613001 
L 1264.862637 -350.638396 
L 1262.42282 -345.663792 
L 1259.168903 -340.689188 
L 1255.282442 -335.714584 
L 1250.979742 -330.739979 
L 1246.48044 -325.765375 
L 1241.976814 -320.790771 
L 1237.610586 -315.816167 
L 1233.461887 -310.841562 
L 1229.551264 -305.866958 
L 1225.851746 -300.892354 
L 1222.305768 -295.917749 
L 1218.841869 -290.943145 
L 1215.388194 -285.968541 
L 1211.882415 -280.993937 
L 1208.279355 -276.019332 
L 1204.557565 -271.044728 
L 1200.724758 -266.070124 
L 1196.820405 -261.09552 
L 1192.913192 -256.120915 
L 1189.092003 -251.146311 
L 1185.451238 -246.171707 
L 1182.073707 -241.197103 
L 1179.01571 -236.222498 
L 1176.298584 -231.247894 
L 1173.90905 -226.27329 
L 1171.807824 -221.298686 
L 1169.943411 -216.324081 
L 1168.266679 -211.349477 
L 1166.742046 -206.374873 
L 1165.352665 -201.400269 
L 1164.099123 -196.425664 
L 1162.993018 -191.45106 
L 1162.047999 -186.476456 
L 1161.271074 -181.501852 
L 1160.65656 -176.527247 
L 1160.184084 -171.552643 
L 1159.8209 -166.578039 
L 1159.527642 -161.603435 
L 1159.265775 -156.62883 
L 1159.004637 -151.654226 
L 1158.72617 -146.679622 
L 1158.426267 -141.705018 
L 1158.112708 -136.730413 
L 1157.8007 -131.755809 
L 1157.507555 -126.781205 
L 1157.248069 -121.806601 
L 1157.031617 -116.831996 
L 1156.861277 -111.857392 
L 1156.734638 -106.882788 
z
" style="stroke: #3f3f3f; stroke-width: 1.25"/>
    </defs>
    <g clip-path="url(#p0439f6627b)">
     <use xlink:href="#med9001fbf2" x="0" y="720" style="fill: #3274a1; stroke: #3f3f3f; stroke-width: 1.25"/>
    </g>
   </g>
   <g id="matplotlib.axis_1">
    <g id="xtick_1">
     <g id="line2d_1">
      <defs>
       <path id="m183d0837f0" d="M 0 0 
L 0 3.5 
" style="stroke: #000000; stroke-width: 0.8"/>
      </defs>
      <g>
       <use xlink:href="#m183d0837f0" x="319.5" y="640.8" style="stroke: #000000; stroke-width: 0.8"/>
      </g>
     </g>
     <g id="text_1">
      <!-- max -->
      <g transform="translate(308.60625 655.398438) scale(0.1 -0.1)">
       <defs>
        <path id="DejaVuSans-6d" d="M 3328 2828 
Q 3544 3216 3844 3400 
Q 4144 3584 4550 3584 
Q 5097 3584 5394 3201 
Q 5691 2819 5691 2113 
L 5691 0 
L 5113 0 
L 5113 2094 
Q 5113 2597 4934 2840 
Q 4756 3084 4391 3084 
Q 3944 3084 3684 2787 
Q 3425 2491 3425 1978 
L 3425 0 
L 2847 0 
L 2847 2094 
Q 2847 2600 2669 2842 
Q 2491 3084 2119 3084 
Q 1678 3084 1418 2786 
Q 1159 2488 1159 1978 
L 1159 0 
L 581 0 
L 581 3500 
L 1159 3500 
L 1159 2956 
Q 1356 3278 1631 3431 
Q 1906 3584 2284 3584 
Q 2666 3584 2933 3390 
Q 3200 3197 3328 2828 
z
" transform="scale(0.015625)"/>
        <path id="DejaVuSans-61" d="M 2194 1759 
Q 1497 1759 1228 1600 
Q 959 1441 959 1056 
Q 959 750 1161 570 
Q 1363 391 1709 391 
Q 2188 391 2477 730 
Q 2766 1069 2766 1631 
L 2766 1759 
L 2194 1759 
z
M 3341 1997 
L 3341 0 
L 2766 0 
L 2766 531 
Q 2569 213 2275 61 
Q 1981 -91 1556 -91 
Q 1019 -91 701 211 
Q 384 513 384 1019 
Q 384 1609 779 1909 
Q 1175 2209 1959 2209 
L 2766 2209 
L 2766 2266 
Q 2766 2663 2505 2880 
Q 2244 3097 1772 3097 
Q 1472 3097 1187 3025 
Q 903 2953 641 2809 
L 641 3341 
Q 956 3463 1253 3523 
Q 1550 3584 1831 3584 
Q 2591 3584 2966 3190 
Q 3341 2797 3341 1997 
z
" transform="scale(0.015625)"/>
        <path id="DejaVuSans-78" d="M 3513 3500 
L 2247 1797 
L 3578 0 
L 2900 0 
L 1881 1375 
L 863 0 
L 184 0 
L 1544 1831 
L 300 3500 
L 978 3500 
L 1906 2253 
L 2834 3500 
L 3513 3500 
z
" transform="scale(0.015625)"/>
       </defs>
       <use xlink:href="#DejaVuSans-6d"/>
       <use xlink:href="#DejaVuSans-61" x="97.412109"/>
       <use xlink:href="#DejaVuSans-78" x="158.691406"/>
      </g>
     </g>
    </g>
    <g id="xtick_2">
     <g id="line2d_2">
      <g>
       <use xlink:href="#m183d0837f0" x="598.5" y="640.8" style="stroke: #000000; stroke-width: 0.8"/>
      </g>
     </g>
     <g id="text_2">
      <!-- max_fs -->
      <g transform="translate(580.741406 655.398438) scale(0.1 -0.1)">
       <defs>
        <path id="DejaVuSans-5f" d="M 3263 -1063 
L 3263 -1509 
L -63 -1509 
L -63 -1063 
L 3263 -1063 
z
" transform="scale(0.015625)"/>
        <path id="DejaVuSans-66" d="M 2375 4863 
L 2375 4384 
L 1825 4384 
Q 1516 4384 1395 4259 
Q 1275 4134 1275 3809 
L 1275 3500 
L 2222 3500 
L 2222 3053 
L 1275 3053 
L 1275 0 
L 697 0 
L 697 3053 
L 147 3053 
L 147 3500 
L 697 3500 
L 697 3744 
Q 697 4328 969 4595 
Q 1241 4863 1831 4863 
L 2375 4863 
z
" transform="scale(0.015625)"/>
        <path id="DejaVuSans-73" d="M 2834 3397 
L 2834 2853 
Q 2591 2978 2328 3040 
Q 2066 3103 1784 3103 
Q 1356 3103 1142 2972 
Q 928 2841 928 2578 
Q 928 2378 1081 2264 
Q 1234 2150 1697 2047 
L 1894 2003 
Q 2506 1872 2764 1633 
Q 3022 1394 3022 966 
Q 3022 478 2636 193 
Q 2250 -91 1575 -91 
Q 1294 -91 989 -36 
Q 684 19 347 128 
L 347 722 
Q 666 556 975 473 
Q 1284 391 1588 391 
Q 1994 391 2212 530 
Q 2431 669 2431 922 
Q 2431 1156 2273 1281 
Q 2116 1406 1581 1522 
L 1381 1569 
Q 847 1681 609 1914 
Q 372 2147 372 2553 
Q 372 3047 722 3315 
Q 1072 3584 1716 3584 
Q 2034 3584 2315 3537 
Q 2597 3491 2834 3397 
z
" transform="scale(0.015625)"/>
       </defs>
       <use xlink:href="#DejaVuSans-6d"/>
       <use xlink:href="#DejaVuSans-61" x="97.412109"/>
       <use xlink:href="#DejaVuSans-78" x="158.691406"/>
       <use xlink:href="#DejaVuSans-5f" x="217.871094"/>
       <use xlink:href="#DejaVuSans-66" x="267.871094"/>
       <use xlink:href="#DejaVuSans-73" x="303.076172"/>
      </g>
     </g>
    </g>
    <g id="xtick_3">
     <g id="line2d_3">
      <g>
       <use xlink:href="#m183d0837f0" x="877.5" y="640.8" style="stroke: #000000; stroke-width: 0.8"/>
      </g>
     </g>
     <g id="text_3">
      <!-- max_mem_5_fs_glit -->
      <g transform="translate(828.330469 655.398438) scale(0.1 -0.1)">
       <defs>
        <path id="DejaVuSans-65" d="M 3597 1894 
L 3597 1613 
L 953 1613 
Q 991 1019 1311 708 
Q 1631 397 2203 397 
Q 2534 397 2845 478 
Q 3156 559 3463 722 
L 3463 178 
Q 3153 47 2828 -22 
Q 2503 -91 2169 -91 
Q 1331 -91 842 396 
Q 353 884 353 1716 
Q 353 2575 817 3079 
Q 1281 3584 2069 3584 
Q 2775 3584 3186 3129 
Q 3597 2675 3597 1894 
z
M 3022 2063 
Q 3016 2534 2758 2815 
Q 2500 3097 2075 3097 
Q 1594 3097 1305 2825 
Q 1016 2553 972 2059 
L 3022 2063 
z
" transform="scale(0.015625)"/>
        <path id="DejaVuSans-35" d="M 691 4666 
L 3169 4666 
L 3169 4134 
L 1269 4134 
L 1269 2991 
Q 1406 3038 1543 3061 
Q 1681 3084 1819 3084 
Q 2600 3084 3056 2656 
Q 3513 2228 3513 1497 
Q 3513 744 3044 326 
Q 2575 -91 1722 -91 
Q 1428 -91 1123 -41 
Q 819 9 494 109 
L 494 744 
Q 775 591 1075 516 
Q 1375 441 1709 441 
Q 2250 441 2565 725 
Q 2881 1009 2881 1497 
Q 2881 1984 2565 2268 
Q 2250 2553 1709 2553 
Q 1456 2553 1204 2497 
Q 953 2441 691 2322 
L 691 4666 
z
" transform="scale(0.015625)"/>
        <path id="DejaVuSans-67" d="M 2906 1791 
Q 2906 2416 2648 2759 
Q 2391 3103 1925 3103 
Q 1463 3103 1205 2759 
Q 947 2416 947 1791 
Q 947 1169 1205 825 
Q 1463 481 1925 481 
Q 2391 481 2648 825 
Q 2906 1169 2906 1791 
z
M 3481 434 
Q 3481 -459 3084 -895 
Q 2688 -1331 1869 -1331 
Q 1566 -1331 1297 -1286 
Q 1028 -1241 775 -1147 
L 775 -588 
Q 1028 -725 1275 -790 
Q 1522 -856 1778 -856 
Q 2344 -856 2625 -561 
Q 2906 -266 2906 331 
L 2906 616 
Q 2728 306 2450 153 
Q 2172 0 1784 0 
Q 1141 0 747 490 
Q 353 981 353 1791 
Q 353 2603 747 3093 
Q 1141 3584 1784 3584 
Q 2172 3584 2450 3431 
Q 2728 3278 2906 2969 
L 2906 3500 
L 3481 3500 
L 3481 434 
z
" transform="scale(0.015625)"/>
        <path id="DejaVuSans-6c" d="M 603 4863 
L 1178 4863 
L 1178 0 
L 603 0 
L 603 4863 
z
" transform="scale(0.015625)"/>
        <path id="DejaVuSans-69" d="M 603 3500 
L 1178 3500 
L 1178 0 
L 603 0 
L 603 3500 
z
M 603 4863 
L 1178 4863 
L 1178 4134 
L 603 4134 
L 603 4863 
z
" transform="scale(0.015625)"/>
        <path id="DejaVuSans-74" d="M 1172 4494 
L 1172 3500 
L 2356 3500 
L 2356 3053 
L 1172 3053 
L 1172 1153 
Q 1172 725 1289 603 
Q 1406 481 1766 481 
L 2356 481 
L 2356 0 
L 1766 0 
Q 1100 0 847 248 
Q 594 497 594 1153 
L 594 3053 
L 172 3053 
L 172 3500 
L 594 3500 
L 594 4494 
L 1172 4494 
z
" transform="scale(0.015625)"/>
       </defs>
       <use xlink:href="#DejaVuSans-6d"/>
       <use xlink:href="#DejaVuSans-61" x="97.412109"/>
       <use xlink:href="#DejaVuSans-78" x="158.691406"/>
       <use xlink:href="#DejaVuSans-5f" x="217.871094"/>
       <use xlink:href="#DejaVuSans-6d" x="267.871094"/>
       <use xlink:href="#DejaVuSans-65" x="365.283203"/>
       <use xlink:href="#DejaVuSans-6d" x="426.806641"/>
       <use xlink:href="#DejaVuSans-5f" x="524.21875"/>
       <use xlink:href="#DejaVuSans-35" x="574.21875"/>
       <use xlink:href="#DejaVuSans-5f" x="637.841797"/>
       <use xlink:href="#DejaVuSans-66" x="687.841797"/>
       <use xlink:href="#DejaVuSans-73" x="723.046875"/>
       <use xlink:href="#DejaVuSans-5f" x="775.146484"/>
       <use xlink:href="#DejaVuSans-67" x="825.146484"/>
       <use xlink:href="#DejaVuSans-6c" x="888.623047"/>
       <use xlink:href="#DejaVuSans-69" x="916.40625"/>
       <use xlink:href="#DejaVuSans-74" x="944.189453"/>
      </g>
     </g>
    </g>
    <g id="xtick_4">
     <g id="line2d_4">
      <g>
       <use xlink:href="#m183d0837f0" x="1156.5" y="640.8" style="stroke: #000000; stroke-width: 0.8"/>
      </g>
     </g>
     <g id="text_4">
      <!-- max_fs_glit -->
      <g transform="translate(1128.328906 655.398438) scale(0.1 -0.1)">
       <use xlink:href="#DejaVuSans-6d"/>
       <use xlink:href="#DejaVuSans-61" x="97.412109"/>
       <use xlink:href="#DejaVuSans-78" x="158.691406"/>
       <use xlink:href="#DejaVuSans-5f" x="217.871094"/>
       <use xlink:href="#DejaVuSans-66" x="267.871094"/>
       <use xlink:href="#DejaVuSans-73" x="303.076172"/>
       <use xlink:href="#DejaVuSans-5f" x="355.175781"/>
       <use xlink:href="#DejaVuSans-67" x="405.175781"/>
       <use xlink:href="#DejaVuSans-6c" x="468.652344"/>
       <use xlink:href="#DejaVuSans-69" x="496.435547"/>
       <use xlink:href="#DejaVuSans-74" x="524.21875"/>
      </g>
     </g>
    </g>
    <g id="text_5">
     <!-- file name -->
     <g transform="translate(714.616406 669.354687) scale(0.1 -0.1)">
      <defs>
       <path id="DejaVuSans-20" transform="scale(0.015625)"/>
       <path id="DejaVuSans-6e" d="M 3513 2113 
L 3513 0 
L 2938 0 
L 2938 2094 
Q 2938 2591 2744 2837 
Q 2550 3084 2163 3084 
Q 1697 3084 1428 2787 
Q 1159 2491 1159 1978 
L 1159 0 
L 581 0 
L 581 3500 
L 1159 3500 
L 1159 2956 
Q 1366 3272 1645 3428 
Q 1925 3584 2291 3584 
Q 2894 3584 3203 3211 
Q 3513 2838 3513 2113 
z
" transform="scale(0.015625)"/>
      </defs>
      <use xlink:href="#DejaVuSans-66"/>
      <use xlink:href="#DejaVuSans-69" x="35.205078"/>
      <use xlink:href="#DejaVuSans-6c" x="62.988281"/>
      <use xlink:href="#DejaVuSans-65" x="90.771484"/>
      <use xlink:href="#DejaVuSans-20" x="152.294922"/>
      <use xlink:href="#DejaVuSans-6e" x="184.082031"/>
      <use xlink:href="#DejaVuSans-61" x="247.460938"/>
      <use xlink:href="#DejaVuSans-6d" x="308.740234"/>
      <use xlink:href="#DejaVuSans-65" x="406.152344"/>
     </g>
    </g>
   </g>
   <g id="matplotlib.axis_2">
    <g id="ytick_1">
     <g id="line2d_5">
      <defs>
       <path id="m5dcf8f5623" d="M 0 0 
L -3.5 0 
" style="stroke: #000000; stroke-width: 0.8"/>
      </defs>
      <g>
       <use xlink:href="#m5dcf8f5623" x="180" y="567.845956" style="stroke: #000000; stroke-width: 0.8"/>
      </g>
     </g>
     <g id="text_6">
      <!-- 0.0 -->
      <g transform="translate(157.096875 571.645175) scale(0.1 -0.1)">
       <defs>
        <path id="DejaVuSans-30" d="M 2034 4250 
Q 1547 4250 1301 3770 
Q 1056 3291 1056 2328 
Q 1056 1369 1301 889 
Q 1547 409 2034 409 
Q 2525 409 2770 889 
Q 3016 1369 3016 2328 
Q 3016 3291 2770 3770 
Q 2525 4250 2034 4250 
z
M 2034 4750 
Q 2819 4750 3233 4129 
Q 3647 3509 3647 2328 
Q 3647 1150 3233 529 
Q 2819 -91 2034 -91 
Q 1250 -91 836 529 
Q 422 1150 422 2328 
Q 422 3509 836 4129 
Q 1250 4750 2034 4750 
z
" transform="scale(0.015625)"/>
        <path id="DejaVuSans-2e" d="M 684 794 
L 1344 794 
L 1344 0 
L 684 0 
L 684 794 
z
" transform="scale(0.015625)"/>
       </defs>
       <use xlink:href="#DejaVuSans-30"/>
       <use xlink:href="#DejaVuSans-2e" x="63.623047"/>
       <use xlink:href="#DejaVuSans-30" x="95.410156"/>
      </g>
     </g>
    </g>
    <g id="ytick_2">
     <g id="line2d_6">
      <g>
       <use xlink:href="#m5dcf8f5623" x="180" y="481.19558" style="stroke: #000000; stroke-width: 0.8"/>
      </g>
     </g>
     <g id="text_7">
      <!-- 0.2 -->
      <g transform="translate(157.096875 484.994799) scale(0.1 -0.1)">
       <defs>
        <path id="DejaVuSans-32" d="M 1228 531 
L 3431 531 
L 3431 0 
L 469 0 
L 469 531 
Q 828 903 1448 1529 
Q 2069 2156 2228 2338 
Q 2531 2678 2651 2914 
Q 2772 3150 2772 3378 
Q 2772 3750 2511 3984 
Q 2250 4219 1831 4219 
Q 1534 4219 1204 4116 
Q 875 4013 500 3803 
L 500 4441 
Q 881 4594 1212 4672 
Q 1544 4750 1819 4750 
Q 2544 4750 2975 4387 
Q 3406 4025 3406 3419 
Q 3406 3131 3298 2873 
Q 3191 2616 2906 2266 
Q 2828 2175 2409 1742 
Q 1991 1309 1228 531 
z
" transform="scale(0.015625)"/>
       </defs>
       <use xlink:href="#DejaVuSans-30"/>
       <use xlink:href="#DejaVuSans-2e" x="63.623047"/>
       <use xlink:href="#DejaVuSans-32" x="95.410156"/>
      </g>
     </g>
    </g>
    <g id="ytick_3">
     <g id="line2d_7">
      <g>
       <use xlink:href="#m5dcf8f5623" x="180" y="394.545204" style="stroke: #000000; stroke-width: 0.8"/>
      </g>
     </g>
     <g id="text_8">
      <!-- 0.4 -->
      <g transform="translate(157.096875 398.344423) scale(0.1 -0.1)">
       <defs>
        <path id="DejaVuSans-34" d="M 2419 4116 
L 825 1625 
L 2419 1625 
L 2419 4116 
z
M 2253 4666 
L 3047 4666 
L 3047 1625 
L 3713 1625 
L 3713 1100 
L 3047 1100 
L 3047 0 
L 2419 0 
L 2419 1100 
L 313 1100 
L 313 1709 
L 2253 4666 
z
" transform="scale(0.015625)"/>
       </defs>
       <use xlink:href="#DejaVuSans-30"/>
       <use xlink:href="#DejaVuSans-2e" x="63.623047"/>
       <use xlink:href="#DejaVuSans-34" x="95.410156"/>
      </g>
     </g>
    </g>
    <g id="ytick_4">
     <g id="line2d_8">
      <g>
       <use xlink:href="#m5dcf8f5623" x="180" y="307.894828" style="stroke: #000000; stroke-width: 0.8"/>
      </g>
     </g>
     <g id="text_9">
      <!-- 0.6 -->
      <g transform="translate(157.096875 311.694047) scale(0.1 -0.1)">
       <defs>
        <path id="DejaVuSans-36" d="M 2113 2584 
Q 1688 2584 1439 2293 
Q 1191 2003 1191 1497 
Q 1191 994 1439 701 
Q 1688 409 2113 409 
Q 2538 409 2786 701 
Q 3034 994 3034 1497 
Q 3034 2003 2786 2293 
Q 2538 2584 2113 2584 
z
M 3366 4563 
L 3366 3988 
Q 3128 4100 2886 4159 
Q 2644 4219 2406 4219 
Q 1781 4219 1451 3797 
Q 1122 3375 1075 2522 
Q 1259 2794 1537 2939 
Q 1816 3084 2150 3084 
Q 2853 3084 3261 2657 
Q 3669 2231 3669 1497 
Q 3669 778 3244 343 
Q 2819 -91 2113 -91 
Q 1303 -91 875 529 
Q 447 1150 447 2328 
Q 447 3434 972 4092 
Q 1497 4750 2381 4750 
Q 2619 4750 2861 4703 
Q 3103 4656 3366 4563 
z
" transform="scale(0.015625)"/>
       </defs>
       <use xlink:href="#DejaVuSans-30"/>
       <use xlink:href="#DejaVuSans-2e" x="63.623047"/>
       <use xlink:href="#DejaVuSans-36" x="95.410156"/>
      </g>
     </g>
    </g>
    <g id="ytick_5">
     <g id="line2d_9">
      <g>
       <use xlink:href="#m5dcf8f5623" x="180" y="221.244452" style="stroke: #000000; stroke-width: 0.8"/>
      </g>
     </g>
     <g id="text_10">
      <!-- 0.8 -->
      <g transform="translate(157.096875 225.043671) scale(0.1 -0.1)">
       <defs>
        <path id="DejaVuSans-38" d="M 2034 2216 
Q 1584 2216 1326 1975 
Q 1069 1734 1069 1313 
Q 1069 891 1326 650 
Q 1584 409 2034 409 
Q 2484 409 2743 651 
Q 3003 894 3003 1313 
Q 3003 1734 2745 1975 
Q 2488 2216 2034 2216 
z
M 1403 2484 
Q 997 2584 770 2862 
Q 544 3141 544 3541 
Q 544 4100 942 4425 
Q 1341 4750 2034 4750 
Q 2731 4750 3128 4425 
Q 3525 4100 3525 3541 
Q 3525 3141 3298 2862 
Q 3072 2584 2669 2484 
Q 3125 2378 3379 2068 
Q 3634 1759 3634 1313 
Q 3634 634 3220 271 
Q 2806 -91 2034 -91 
Q 1263 -91 848 271 
Q 434 634 434 1313 
Q 434 1759 690 2068 
Q 947 2378 1403 2484 
z
M 1172 3481 
Q 1172 3119 1398 2916 
Q 1625 2713 2034 2713 
Q 2441 2713 2670 2916 
Q 2900 3119 2900 3481 
Q 2900 3844 2670 4047 
Q 2441 4250 2034 4250 
Q 1625 4250 1398 4047 
Q 1172 3844 1172 3481 
z
" transform="scale(0.015625)"/>
       </defs>
       <use xlink:href="#DejaVuSans-30"/>
       <use xlink:href="#DejaVuSans-2e" x="63.623047"/>
       <use xlink:href="#DejaVuSans-38" x="95.410156"/>
      </g>
     </g>
    </g>
    <g id="ytick_6">
     <g id="line2d_10">
      <g>
       <use xlink:href="#m5dcf8f5623" x="180" y="134.594076" style="stroke: #000000; stroke-width: 0.8"/>
      </g>
     </g>
     <g id="text_11">
      <!-- 1.0 -->
      <g transform="translate(157.096875 138.393295) scale(0.1 -0.1)">
       <defs>
        <path id="DejaVuSans-31" d="M 794 531 
L 1825 531 
L 1825 4091 
L 703 3866 
L 703 4441 
L 1819 4666 
L 2450 4666 
L 2450 531 
L 3481 531 
L 3481 0 
L 794 0 
L 794 531 
z
" transform="scale(0.015625)"/>
       </defs>
       <use xlink:href="#DejaVuSans-31"/>
       <use xlink:href="#DejaVuSans-2e" x="63.623047"/>
       <use xlink:href="#DejaVuSans-30" x="95.410156"/>
      </g>
     </g>
    </g>
    <g id="text_12">
     <!-- cosine similarity -->
     <g transform="translate(151.017188 404.307031) rotate(-90) scale(0.1 -0.1)">
      <defs>
       <path id="DejaVuSans-63" d="M 3122 3366 
L 3122 2828 
Q 2878 2963 2633 3030 
Q 2388 3097 2138 3097 
Q 1578 3097 1268 2742 
Q 959 2388 959 1747 
Q 959 1106 1268 751 
Q 1578 397 2138 397 
Q 2388 397 2633 464 
Q 2878 531 3122 666 
L 3122 134 
Q 2881 22 2623 -34 
Q 2366 -91 2075 -91 
Q 1284 -91 818 406 
Q 353 903 353 1747 
Q 353 2603 823 3093 
Q 1294 3584 2113 3584 
Q 2378 3584 2631 3529 
Q 2884 3475 3122 3366 
z
" transform="scale(0.015625)"/>
       <path id="DejaVuSans-6f" d="M 1959 3097 
Q 1497 3097 1228 2736 
Q 959 2375 959 1747 
Q 959 1119 1226 758 
Q 1494 397 1959 397 
Q 2419 397 2687 759 
Q 2956 1122 2956 1747 
Q 2956 2369 2687 2733 
Q 2419 3097 1959 3097 
z
M 1959 3584 
Q 2709 3584 3137 3096 
Q 3566 2609 3566 1747 
Q 3566 888 3137 398 
Q 2709 -91 1959 -91 
Q 1206 -91 779 398 
Q 353 888 353 1747 
Q 353 2609 779 3096 
Q 1206 3584 1959 3584 
z
" transform="scale(0.015625)"/>
       <path id="DejaVuSans-72" d="M 2631 2963 
Q 2534 3019 2420 3045 
Q 2306 3072 2169 3072 
Q 1681 3072 1420 2755 
Q 1159 2438 1159 1844 
L 1159 0 
L 581 0 
L 581 3500 
L 1159 3500 
L 1159 2956 
Q 1341 3275 1631 3429 
Q 1922 3584 2338 3584 
Q 2397 3584 2469 3576 
Q 2541 3569 2628 3553 
L 2631 2963 
z
" transform="scale(0.015625)"/>
       <path id="DejaVuSans-79" d="M 2059 -325 
Q 1816 -950 1584 -1140 
Q 1353 -1331 966 -1331 
L 506 -1331 
L 506 -850 
L 844 -850 
Q 1081 -850 1212 -737 
Q 1344 -625 1503 -206 
L 1606 56 
L 191 3500 
L 800 3500 
L 1894 763 
L 2988 3500 
L 3597 3500 
L 2059 -325 
z
" transform="scale(0.015625)"/>
      </defs>
      <use xlink:href="#DejaVuSans-63"/>
      <use xlink:href="#DejaVuSans-6f" x="54.980469"/>
      <use xlink:href="#DejaVuSans-73" x="116.162109"/>
      <use xlink:href="#DejaVuSans-69" x="168.261719"/>
      <use xlink:href="#DejaVuSans-6e" x="196.044922"/>
      <use xlink:href="#DejaVuSans-65" x="259.423828"/>
      <use xlink:href="#DejaVuSans-20" x="320.947266"/>
      <use xlink:href="#DejaVuSans-73" x="352.734375"/>
      <use xlink:href="#DejaVuSans-69" x="404.833984"/>
      <use xlink:href="#DejaVuSans-6d" x="432.617188"/>
      <use xlink:href="#DejaVuSans-69" x="530.029297"/>
      <use xlink:href="#DejaVuSans-6c" x="557.8125"/>
      <use xlink:href="#DejaVuSans-61" x="585.595703"/>
      <use xlink:href="#DejaVuSans-72" x="646.875"/>
      <use xlink:href="#DejaVuSans-69" x="687.988281"/>
      <use xlink:href="#DejaVuSans-74" x="715.771484"/>
      <use xlink:href="#DejaVuSans-79" x="754.980469"/>
     </g>
    </g>
   </g>
   <g id="line2d_11">
    <path d="M 319.5 505.864768 
L 319.5 155.72535 
" clip-path="url(#p0439f6627b)" style="fill: none; stroke: #3f3f3f; stroke-width: 1.875; stroke-linecap: square"/>
   </g>
   <g id="line2d_12">
    <path d="M 319.5 375.952842 
L 319.5 286.975648 
" clip-path="url(#p0439f6627b)" style="fill: none; stroke: #3f3f3f; stroke-width: 5.625; stroke-linecap: square"/>
   </g>
   <g id="line2d_13">
    <path d="M 319.5 329.323014 
" clip-path="url(#p0439f6627b)" style="fill: none; stroke: #3f3f3f; stroke-width: 1.5; stroke-linecap: square"/>
    <defs>
     <path id="m92e24af606" d="M 2.34375 0 
L -2.34375 -0 
" style="stroke: #ffffff; stroke-width: 1.125"/>
    </defs>
    <g clip-path="url(#p0439f6627b)">
     <use xlink:href="#m92e24af606" x="319.5" y="329.323014" style="fill: #ffffff; stroke: #ffffff; stroke-width: 1.125"/>
    </g>
   </g>
   <g id="line2d_14">
    <path d="M 598.5 560.820977 
L 598.5 191.007925 
" clip-path="url(#p0439f6627b)" style="fill: none; stroke: #3f3f3f; stroke-width: 1.875; stroke-linecap: square"/>
   </g>
   <g id="line2d_15">
    <path d="M 598.5 404.336957 
L 598.5 287.293345 
" clip-path="url(#p0439f6627b)" style="fill: none; stroke: #3f3f3f; stroke-width: 5.625; stroke-linecap: square"/>
   </g>
   <g id="line2d_16">
    <path d="M 598.5 345.654259 
" clip-path="url(#p0439f6627b)" style="fill: none; stroke: #3f3f3f; stroke-width: 1.5; stroke-linecap: square"/>
    <g clip-path="url(#p0439f6627b)">
     <use xlink:href="#m92e24af606" x="598.5" y="345.654259" style="fill: #ffffff; stroke: #ffffff; stroke-width: 1.125"/>
    </g>
   </g>
   <g id="line2d_17">
    <path d="M 877.5 562.914838 
L 877.5 170.916008 
" clip-path="url(#p0439f6627b)" style="fill: none; stroke: #3f3f3f; stroke-width: 1.875; stroke-linecap: square"/>
   </g>
   <g id="line2d_18">
    <path d="M 877.5 397.761262 
L 877.5 281.809256 
" clip-path="url(#p0439f6627b)" style="fill: none; stroke: #3f3f3f; stroke-width: 5.625; stroke-linecap: square"/>
   </g>
   <g id="line2d_19">
    <path d="M 877.5 344.93052 
" clip-path="url(#p0439f6627b)" style="fill: none; stroke: #3f3f3f; stroke-width: 1.5; stroke-linecap: square"/>
    <g clip-path="url(#p0439f6627b)">
     <use xlink:href="#m92e24af606" x="877.5" y="344.93052" style="fill: #ffffff; stroke: #ffffff; stroke-width: 1.125"/>
    </g>
   </g>
   <g id="line2d_20">
    <path d="M 1156.5 526.868921 
L 1156.5 166.474956 
" clip-path="url(#p0439f6627b)" style="fill: none; stroke: #3f3f3f; stroke-width: 1.875; stroke-linecap: square"/>
   </g>
   <g id="line2d_21">
    <path d="M 1156.5 399.534397 
L 1156.5 301.165 
" clip-path="url(#p0439f6627b)" style="fill: none; stroke: #3f3f3f; stroke-width: 5.625; stroke-linecap: square"/>
   </g>
   <g id="line2d_22">
    <path d="M 1156.5 351.163965 
" clip-path="url(#p0439f6627b)" style="fill: none; stroke: #3f3f3f; stroke-width: 1.5; stroke-linecap: square"/>
    <g clip-path="url(#p0439f6627b)">
     <use xlink:href="#m92e24af606" x="1156.5" y="351.163965" style="fill: #ffffff; stroke: #ffffff; stroke-width: 1.125"/>
    </g>
   </g>
   <g id="patch_3">
    <path d="M 180 640.8 
L 180 86.4 
" style="fill: none; stroke: #000000; stroke-width: 0.8; stroke-linejoin: miter; stroke-linecap: square"/>
   </g>
   <g id="patch_4">
    <path d="M 1296 640.8 
L 1296 86.4 
" style="fill: none; stroke: #000000; stroke-width: 0.8; stroke-linejoin: miter; stroke-linecap: square"/>
   </g>
   <g id="patch_5">
    <path d="M 180 640.8 
L 1296 640.8 
" style="fill: none; stroke: #000000; stroke-width: 0.8; stroke-linejoin: miter; stroke-linecap: square"/>
   </g>
   <g id="patch_6">
    <path d="M 180 86.4 
L 1296 86.4 
" style="fill: none; stroke: #000000; stroke-width: 0.8; stroke-linejoin: miter; stroke-linecap: square"/>
   </g>
   <g id="text_13">
    <!-- cosine similarity of General Progressive Similarity (progressive), by file name -->
    <g transform="translate(506.682187 80.4) scale(0.12 -0.12)">
     <defs>
      <path id="DejaVuSans-47" d="M 3809 666 
L 3809 1919 
L 2778 1919 
L 2778 2438 
L 4434 2438 
L 4434 434 
Q 4069 175 3628 42 
Q 3188 -91 2688 -91 
Q 1594 -91 976 548 
Q 359 1188 359 2328 
Q 359 3472 976 4111 
Q 1594 4750 2688 4750 
Q 3144 4750 3555 4637 
Q 3966 4525 4313 4306 
L 4313 3634 
Q 3963 3931 3569 4081 
Q 3175 4231 2741 4231 
Q 1884 4231 1454 3753 
Q 1025 3275 1025 2328 
Q 1025 1384 1454 906 
Q 1884 428 2741 428 
Q 3075 428 3337 486 
Q 3600 544 3809 666 
z
" transform="scale(0.015625)"/>
      <path id="DejaVuSans-50" d="M 1259 4147 
L 1259 2394 
L 2053 2394 
Q 2494 2394 2734 2622 
Q 2975 2850 2975 3272 
Q 2975 3691 2734 3919 
Q 2494 4147 2053 4147 
L 1259 4147 
z
M 628 4666 
L 2053 4666 
Q 2838 4666 3239 4311 
Q 3641 3956 3641 3272 
Q 3641 2581 3239 2228 
Q 2838 1875 2053 1875 
L 1259 1875 
L 1259 0 
L 628 0 
L 628 4666 
z
" transform="scale(0.015625)"/>
      <path id="DejaVuSans-76" d="M 191 3500 
L 800 3500 
L 1894 563 
L 2988 3500 
L 3597 3500 
L 2284 0 
L 1503 0 
L 191 3500 
z
" transform="scale(0.015625)"/>
      <path id="DejaVuSans-53" d="M 3425 4513 
L 3425 3897 
Q 3066 4069 2747 4153 
Q 2428 4238 2131 4238 
Q 1616 4238 1336 4038 
Q 1056 3838 1056 3469 
Q 1056 3159 1242 3001 
Q 1428 2844 1947 2747 
L 2328 2669 
Q 3034 2534 3370 2195 
Q 3706 1856 3706 1288 
Q 3706 609 3251 259 
Q 2797 -91 1919 -91 
Q 1588 -91 1214 -16 
Q 841 59 441 206 
L 441 856 
Q 825 641 1194 531 
Q 1563 422 1919 422 
Q 2459 422 2753 634 
Q 3047 847 3047 1241 
Q 3047 1584 2836 1778 
Q 2625 1972 2144 2069 
L 1759 2144 
Q 1053 2284 737 2584 
Q 422 2884 422 3419 
Q 422 4038 858 4394 
Q 1294 4750 2059 4750 
Q 2388 4750 2728 4690 
Q 3069 4631 3425 4513 
z
" transform="scale(0.015625)"/>
      <path id="DejaVuSans-28" d="M 1984 4856 
Q 1566 4138 1362 3434 
Q 1159 2731 1159 2009 
Q 1159 1288 1364 580 
Q 1569 -128 1984 -844 
L 1484 -844 
Q 1016 -109 783 600 
Q 550 1309 550 2009 
Q 550 2706 781 3412 
Q 1013 4119 1484 4856 
L 1984 4856 
z
" transform="scale(0.015625)"/>
      <path id="DejaVuSans-70" d="M 1159 525 
L 1159 -1331 
L 581 -1331 
L 581 3500 
L 1159 3500 
L 1159 2969 
Q 1341 3281 1617 3432 
Q 1894 3584 2278 3584 
Q 2916 3584 3314 3078 
Q 3713 2572 3713 1747 
Q 3713 922 3314 415 
Q 2916 -91 2278 -91 
Q 1894 -91 1617 61 
Q 1341 213 1159 525 
z
M 3116 1747 
Q 3116 2381 2855 2742 
Q 2594 3103 2138 3103 
Q 1681 3103 1420 2742 
Q 1159 2381 1159 1747 
Q 1159 1113 1420 752 
Q 1681 391 2138 391 
Q 2594 391 2855 752 
Q 3116 1113 3116 1747 
z
" transform="scale(0.015625)"/>
      <path id="DejaVuSans-29" d="M 513 4856 
L 1013 4856 
Q 1481 4119 1714 3412 
Q 1947 2706 1947 2009 
Q 1947 1309 1714 600 
Q 1481 -109 1013 -844 
L 513 -844 
Q 928 -128 1133 580 
Q 1338 1288 1338 2009 
Q 1338 2731 1133 3434 
Q 928 4138 513 4856 
z
" transform="scale(0.015625)"/>
      <path id="DejaVuSans-2c" d="M 750 794 
L 1409 794 
L 1409 256 
L 897 -744 
L 494 -744 
L 750 256 
L 750 794 
z
" transform="scale(0.015625)"/>
      <path id="DejaVuSans-62" d="M 3116 1747 
Q 3116 2381 2855 2742 
Q 2594 3103 2138 3103 
Q 1681 3103 1420 2742 
Q 1159 2381 1159 1747 
Q 1159 1113 1420 752 
Q 1681 391 2138 391 
Q 2594 391 2855 752 
Q 3116 1113 3116 1747 
z
M 1159 2969 
Q 1341 3281 1617 3432 
Q 1894 3584 2278 3584 
Q 2916 3584 3314 3078 
Q 3713 2572 3713 1747 
Q 3713 922 3314 415 
Q 2916 -91 2278 -91 
Q 1894 -91 1617 61 
Q 1341 213 1159 525 
L 1159 0 
L 581 0 
L 581 4863 
L 1159 4863 
L 1159 2969 
z
" transform="scale(0.015625)"/>
     </defs>
     <use xlink:href="#DejaVuSans-63"/>
     <use xlink:href="#DejaVuSans-6f" x="54.980469"/>
     <use xlink:href="#DejaVuSans-73" x="116.162109"/>
     <use xlink:href="#DejaVuSans-69" x="168.261719"/>
     <use xlink:href="#DejaVuSans-6e" x="196.044922"/>
     <use xlink:href="#DejaVuSans-65" x="259.423828"/>
     <use xlink:href="#DejaVuSans-20" x="320.947266"/>
     <use xlink:href="#DejaVuSans-73" x="352.734375"/>
     <use xlink:href="#DejaVuSans-69" x="404.833984"/>
     <use xlink:href="#DejaVuSans-6d" x="432.617188"/>
     <use xlink:href="#DejaVuSans-69" x="530.029297"/>
     <use xlink:href="#DejaVuSans-6c" x="557.8125"/>
     <use xlink:href="#DejaVuSans-61" x="585.595703"/>
     <use xlink:href="#DejaVuSans-72" x="646.875"/>
     <use xlink:href="#DejaVuSans-69" x="687.988281"/>
     <use xlink:href="#DejaVuSans-74" x="715.771484"/>
     <use xlink:href="#DejaVuSans-79" x="754.980469"/>
     <use xlink:href="#DejaVuSans-20" x="814.160156"/>
     <use xlink:href="#DejaVuSans-6f" x="845.947266"/>
     <use xlink:href="#DejaVuSans-66" x="907.128906"/>
     <use xlink:href="#DejaVuSans-20" x="942.333984"/>
     <use xlink:href="#DejaVuSans-47" x="974.121094"/>
     <use xlink:href="#DejaVuSans-65" x="1051.611328"/>
     <use xlink:href="#DejaVuSans-6e" x="1113.134766"/>
     <use xlink:href="#DejaVuSans-65" x="1176.513672"/>
     <use xlink:href="#DejaVuSans-72" x="1238.037109"/>
     <use xlink:href="#DejaVuSans-61" x="1279.150391"/>
     <use xlink:href="#DejaVuSans-6c" x="1340.429688"/>
     <use xlink:href="#DejaVuSans-20" x="1368.212891"/>
     <use xlink:href="#DejaVuSans-50" x="1400"/>
     <use xlink:href="#DejaVuSans-72" x="1458.552734"/>
     <use xlink:href="#DejaVuSans-6f" x="1497.416016"/>
     <use xlink:href="#DejaVuSans-67" x="1558.597656"/>
     <use xlink:href="#DejaVuSans-72" x="1622.074219"/>
     <use xlink:href="#DejaVuSans-65" x="1660.9375"/>
     <use xlink:href="#DejaVuSans-73" x="1722.460938"/>
     <use xlink:href="#DejaVuSans-73" x="1774.560547"/>
     <use xlink:href="#DejaVuSans-69" x="1826.660156"/>
     <use xlink:href="#DejaVuSans-76" x="1854.443359"/>
     <use xlink:href="#DejaVuSans-65" x="1913.623047"/>
     <use xlink:href="#DejaVuSans-20" x="1975.146484"/>
     <use xlink:href="#DejaVuSans-53" x="2006.933594"/>
     <use xlink:href="#DejaVuSans-69" x="2070.410156"/>
     <use xlink:href="#DejaVuSans-6d" x="2098.193359"/>
     <use xlink:href="#DejaVuSans-69" x="2195.605469"/>
     <use xlink:href="#DejaVuSans-6c" x="2223.388672"/>
     <use xlink:href="#DejaVuSans-61" x="2251.171875"/>
     <use xlink:href="#DejaVuSans-72" x="2312.451172"/>
     <use xlink:href="#DejaVuSans-69" x="2353.564453"/>
     <use xlink:href="#DejaVuSans-74" x="2381.347656"/>
     <use xlink:href="#DejaVuSans-79" x="2420.556641"/>
     <use xlink:href="#DejaVuSans-20" x="2479.736328"/>
     <use xlink:href="#DejaVuSans-28" x="2511.523438"/>
     <use xlink:href="#DejaVuSans-70" x="2550.537109"/>
     <use xlink:href="#DejaVuSans-72" x="2614.013672"/>
     <use xlink:href="#DejaVuSans-6f" x="2652.876953"/>
     <use xlink:href="#DejaVuSans-67" x="2714.058594"/>
     <use xlink:href="#DejaVuSans-72" x="2777.535156"/>
     <use xlink:href="#DejaVuSans-65" x="2816.398438"/>
     <use xlink:href="#DejaVuSans-73" x="2877.921875"/>
     <use xlink:href="#DejaVuSans-73" x="2930.021484"/>
     <use xlink:href="#DejaVuSans-69" x="2982.121094"/>
     <use xlink:href="#DejaVuSans-76" x="3009.904297"/>
     <use xlink:href="#DejaVuSans-65" x="3069.083984"/>
     <use xlink:href="#DejaVuSans-29" x="3130.607422"/>
     <use xlink:href="#DejaVuSans-2c" x="3169.621094"/>
     <use xlink:href="#DejaVuSans-20" x="3201.408203"/>
     <use xlink:href="#DejaVuSans-62" x="3233.195312"/>
     <use xlink:href="#DejaVuSans-79" x="3296.671875"/>
     <use xlink:href="#DejaVuSans-20" x="3355.851562"/>
     <use xlink:href="#DejaVuSans-66" x="3387.638672"/>
     <use xlink:href="#DejaVuSans-69" x="3422.84375"/>
     <use xlink:href="#DejaVuSans-6c" x="3450.626953"/>
     <use xlink:href="#DejaVuSans-65" x="3478.410156"/>
     <use xlink:href="#DejaVuSans-20" x="3539.933594"/>
     <use xlink:href="#DejaVuSans-6e" x="3571.720703"/>
     <use xlink:href="#DejaVuSans-61" x="3635.099609"/>
     <use xlink:href="#DejaVuSans-6d" x="3696.378906"/>
     <use xlink:href="#DejaVuSans-65" x="3793.791016"/>
    </g>
   </g>
  </g>
 </g>
 <defs>
  <clipPath id="p0439f6627b">
   <rect x="180" y="86.4" width="1116" height="554.4"/>
  </clipPath>
 </defs>
</svg>
