<?xml version="1.0" encoding="utf-8" standalone="no"?>
<!DOCTYPE svg PUBLIC "-//W3C//DTD SVG 1.1//EN"
  "http://www.w3.org/Graphics/SVG/1.1/DTD/svg11.dtd">
<svg xmlns:xlink="http://www.w3.org/1999/xlink" width="1440pt" height="720pt" viewBox="0 0 1440 720" xmlns="http://www.w3.org/2000/svg" version="1.1">
 <metadata>
  <rdf:RDF xmlns:dc="http://purl.org/dc/elements/1.1/" xmlns:cc="http://creativecommons.org/ns#" xmlns:rdf="http://www.w3.org/1999/02/22-rdf-syntax-ns#">
   <cc:Work>
    <dc:type rdf:resource="http://purl.org/dc/dcmitype/StillImage"/>
    <dc:date>2024-07-07T16:59:36.279580</dc:date>
    <dc:format>image/svg+xml</dc:format>
    <dc:creator>
     <cc:Agent>
      <dc:title>Matplotlib v3.8.0, https://matplotlib.org/</dc:title>
     </cc:Agent>
    </dc:creator>
   </cc:Work>
  </rdf:RDF>
 </metadata>
 <defs>
  <style type="text/css">*{stroke-linejoin: round; stroke-linecap: butt}</style>
 </defs>
 <g id="figure_1">
  <g id="patch_1">
   <path d="M 0 720 
L 1440 720 
L 1440 0 
L 0 0 
z
" style="fill: #ffffff"/>
  </g>
  <g id="axes_1">
   <g id="patch_2">
    <path d="M 180 640.8 
L 1296 640.8 
L 1296 86.4 
L 180 86.4 
z
" style="fill: #ffffff"/>
   </g>
   <g id="PolyCollection_1">
    <defs>
     <path id="mf966f2f152" d="M 319.502679 -104.4 
L 319.497321 -104.4 
L 319.491958 -109.469549 
L 319.484323 -114.539098 
L 319.48 -119.608647 
L 319.481926 -124.678196 
L 319.480038 -129.747745 
L 319.447332 -134.817294 
L 319.338138 -139.886843 
L 319.092793 -144.956392 
L 318.647517 -150.025941 
L 317.95313 -155.09549 
L 317.027585 -160.165039 
L 315.912143 -165.234588 
L 314.489841 -170.304137 
L 312.549633 -175.373686 
L 310.042065 -180.443234 
L 307.019205 -185.512783 
L 303.493842 -190.582332 
L 299.500482 -195.651881 
L 294.923529 -200.72143 
L 289.446283 -205.790979 
L 283.166315 -210.860528 
L 276.819322 -215.930077 
L 271.08376 -220.999626 
L 265.849603 -226.069175 
L 260.338381 -231.138724 
L 254.139571 -236.208273 
L 247.577093 -241.277822 
L 240.893124 -246.347371 
L 234.174098 -251.41692 
L 227.908545 -256.486469 
L 222.443777 -261.556018 
L 217.546889 -266.625567 
L 213.228828 -271.695116 
L 210.050147 -276.764665 
L 208.341079 -281.834214 
L 207.9 -286.903763 
L 208.242226 -291.973312 
L 208.917781 -297.042861 
L 209.919851 -302.11241 
L 211.299796 -307.181959 
L 212.705244 -312.251508 
L 214.231726 -317.321057 
L 216.512393 -322.390606 
L 219.483683 -327.460155 
L 222.611102 -332.529703 
L 225.777421 -337.599252 
L 228.859706 -342.668801 
L 231.632427 -347.73835 
L 234.465145 -352.807899 
L 237.97179 -357.877448 
L 241.956172 -362.946997 
L 245.606254 -368.016546 
L 248.863688 -373.086095 
L 252.671806 -378.155644 
L 257.493144 -383.225193 
L 262.606098 -388.294742 
L 267.25029 -393.364291 
L 271.426778 -398.43384 
L 275.407025 -403.503389 
L 279.210222 -408.572938 
L 282.648683 -413.642487 
L 285.621815 -418.712036 
L 288.305999 -423.781585 
L 291.02235 -428.851134 
L 293.795833 -433.920683 
L 296.212763 -438.990232 
L 298.017452 -444.059781 
L 299.616342 -449.12933 
L 301.54718 -454.198879 
L 303.729183 -459.268428 
L 305.728228 -464.337977 
L 307.434478 -469.407526 
L 309.032041 -474.477075 
L 310.56057 -479.546624 
L 311.836346 -484.616172 
L 312.715039 -489.685721 
L 313.351001 -494.75527 
L 314.109648 -499.824819 
L 315.131523 -504.894368 
L 316.1769 -509.963917 
L 316.936749 -515.033466 
L 317.336981 -520.103015 
L 317.547765 -525.172564 
L 317.792674 -530.242113 
L 318.143954 -535.311662 
L 318.488958 -540.381211 
L 318.728924 -545.45076 
L 318.898248 -550.520309 
L 319.054064 -555.589858 
L 319.202694 -560.659407 
L 319.324553 -565.728956 
L 319.393273 -570.798505 
L 319.39633 -575.868054 
L 319.357453 -580.937603 
L 319.331702 -586.007152 
L 319.356459 -591.076701 
L 319.414094 -596.14625 
L 319.46416 -601.215799 
L 319.489673 -606.285348 
L 319.510327 -606.285348 
L 319.510327 -606.285348 
L 319.53584 -601.215799 
L 319.585906 -596.14625 
L 319.643541 -591.076701 
L 319.668298 -586.007152 
L 319.642547 -580.937603 
L 319.60367 -575.868054 
L 319.606727 -570.798505 
L 319.675447 -565.728956 
L 319.797306 -560.659407 
L 319.945936 -555.589858 
L 320.101752 -550.520309 
L 320.271076 -545.45076 
L 320.511042 -540.381211 
L 320.856046 -535.311662 
L 321.207326 -530.242113 
L 321.452235 -525.172564 
L 321.663019 -520.103015 
L 322.063251 -515.033466 
L 322.8231 -509.963917 
L 323.868477 -504.894368 
L 324.890352 -499.824819 
L 325.648999 -494.75527 
L 326.284961 -489.685721 
L 327.163654 -484.616172 
L 328.43943 -479.546624 
L 329.967959 -474.477075 
L 331.565522 -469.407526 
L 333.271772 -464.337977 
L 335.270817 -459.268428 
L 337.45282 -454.198879 
L 339.383658 -449.12933 
L 340.982548 -444.059781 
L 342.787237 -438.990232 
L 345.204167 -433.920683 
L 347.97765 -428.851134 
L 350.694001 -423.781585 
L 353.378185 -418.712036 
L 356.351317 -413.642487 
L 359.789778 -408.572938 
L 363.592975 -403.503389 
L 367.573222 -398.43384 
L 371.74971 -393.364291 
L 376.393902 -388.294742 
L 381.506856 -383.225193 
L 386.328194 -378.155644 
L 390.136312 -373.086095 
L 393.393746 -368.016546 
L 397.043828 -362.946997 
L 401.02821 -357.877448 
L 404.534855 -352.807899 
L 407.367573 -347.73835 
L 410.140294 -342.668801 
L 413.222579 -337.599252 
L 416.388898 -332.529703 
L 419.516317 -327.460155 
L 422.487607 -322.390606 
L 424.768274 -317.321057 
L 426.294756 -312.251508 
L 427.700204 -307.181959 
L 429.080149 -302.11241 
L 430.082219 -297.042861 
L 430.757774 -291.973312 
L 431.1 -286.903763 
L 430.658921 -281.834214 
L 428.949853 -276.764665 
L 425.771172 -271.695116 
L 421.453111 -266.625567 
L 416.556223 -261.556018 
L 411.091455 -256.486469 
L 404.825902 -251.41692 
L 398.106876 -246.347371 
L 391.422907 -241.277822 
L 384.860429 -236.208273 
L 378.661619 -231.138724 
L 373.150397 -226.069175 
L 367.91624 -220.999626 
L 362.180678 -215.930077 
L 355.833685 -210.860528 
L 349.553717 -205.790979 
L 344.076471 -200.72143 
L 339.499518 -195.651881 
L 335.506158 -190.582332 
L 331.980795 -185.512783 
L 328.957935 -180.443234 
L 326.450367 -175.373686 
L 324.510159 -170.304137 
L 323.087857 -165.234588 
L 321.972415 -160.165039 
L 321.04687 -155.09549 
L 320.352483 -150.025941 
L 319.907207 -144.956392 
L 319.661862 -139.886843 
L 319.552668 -134.817294 
L 319.519962 -129.747745 
L 319.518074 -124.678196 
L 319.52 -119.608647 
L 319.515677 -114.539098 
L 319.508042 -109.469549 
L 319.502679 -104.4 
z
" style="stroke: #3f3f3f; stroke-width: 1.25"/>
    </defs>
    <g clip-path="url(#p5e1889fe89)">
     <use xlink:href="#mf966f2f152" x="0" y="720" style="fill: #3274a1; stroke: #3f3f3f; stroke-width: 1.25"/>
    </g>
   </g>
   <g id="PolyCollection_2">
    <defs>
     <path id="md458764e26" d="M 598.506045 -123.571642 
L 598.493955 -123.571642 
L 598.480078 -128.204047 
L 598.45026 -132.836452 
L 598.397574 -137.468856 
L 598.301805 -142.101261 
L 598.110305 -146.733665 
L 597.755415 -151.36607 
L 597.205195 -155.998474 
L 596.472392 -160.630879 
L 595.562274 -165.263284 
L 594.429923 -169.895688 
L 592.9673 -174.528093 
L 590.982099 -179.160497 
L 588.227089 -183.792902 
L 584.565786 -188.425307 
L 580.162349 -193.057711 
L 575.445713 -197.690116 
L 570.776086 -202.32252 
L 566.178222 -206.954925 
L 561.530302 -211.587329 
L 556.81486 -216.219734 
L 551.929728 -220.852139 
L 546.554873 -225.484543 
L 540.494057 -230.116948 
L 533.988964 -234.749352 
L 527.599423 -239.381757 
L 521.816917 -244.014161 
L 516.857089 -248.646566 
L 512.686292 -253.278971 
L 508.8839 -257.911375 
L 504.828288 -262.54378 
L 500.585483 -267.176184 
L 497.072292 -271.808589 
L 494.964315 -276.440994 
L 494.100818 -281.073398 
L 494.020536 -285.705803 
L 494.420248 -290.338207 
L 495.10431 -294.970612 
L 495.900684 -299.603016 
L 496.783963 -304.235421 
L 497.983054 -308.867826 
L 499.637468 -313.50023 
L 501.4678 -318.132635 
L 503.184455 -322.765039 
L 504.884138 -327.397444 
L 506.730588 -332.029849 
L 508.678052 -336.662253 
L 510.669127 -341.294658 
L 512.644676 -345.927062 
L 514.333742 -350.559467 
L 515.551091 -355.191871 
L 516.673407 -359.824276 
L 518.326053 -364.456681 
L 520.578813 -369.089085 
L 522.922127 -373.72149 
L 525.193736 -378.353894 
L 527.94891 -382.986299 
L 531.556832 -387.618704 
L 535.534813 -392.251108 
L 539.149774 -396.883513 
L 542.236979 -401.515917 
L 545.217026 -406.148322 
L 548.540302 -410.780726 
L 552.26851 -415.413131 
L 556.144855 -420.045536 
L 559.928513 -424.67794 
L 563.594168 -429.310345 
L 567.196009 -433.942749 
L 570.649288 -438.575154 
L 573.839965 -443.207558 
L 576.813906 -447.839963 
L 579.604218 -452.472368 
L 582.059554 -457.104772 
L 584.081346 -461.737177 
L 585.828423 -466.369581 
L 587.495379 -471.001986 
L 589.058602 -475.634391 
L 590.374492 -480.266795 
L 591.434221 -484.8992 
L 592.413404 -489.531604 
L 593.449159 -494.164009 
L 594.449489 -498.796413 
L 595.208677 -503.428818 
L 595.679547 -508.061223 
L 596.031289 -512.693627 
L 596.423194 -517.326032 
L 596.843859 -521.958436 
L 597.211361 -526.590841 
L 597.496616 -531.223246 
L 597.71098 -535.85565 
L 597.869114 -540.488055 
L 597.987988 -545.120459 
L 598.084427 -549.752864 
L 598.166176 -554.385268 
L 598.236413 -559.017673 
L 598.302294 -563.650078 
L 598.368439 -568.282482 
L 598.427805 -572.914887 
L 598.469113 -577.547291 
L 598.490076 -582.179696 
L 598.509924 -582.179696 
L 598.509924 -582.179696 
L 598.530887 -577.547291 
L 598.572195 -572.914887 
L 598.631561 -568.282482 
L 598.697706 -563.650078 
L 598.763587 -559.017673 
L 598.833824 -554.385268 
L 598.915573 -549.752864 
L 599.012012 -545.120459 
L 599.130886 -540.488055 
L 599.28902 -535.85565 
L 599.503384 -531.223246 
L 599.788639 -526.590841 
L 600.156141 -521.958436 
L 600.576806 -517.326032 
L 600.968711 -512.693627 
L 601.320453 -508.061223 
L 601.791323 -503.428818 
L 602.550511 -498.796413 
L 603.550841 -494.164009 
L 604.586596 -489.531604 
L 605.565779 -484.8992 
L 606.625508 -480.266795 
L 607.941398 -475.634391 
L 609.504621 -471.001986 
L 611.171577 -466.369581 
L 612.918654 -461.737177 
L 614.940446 -457.104772 
L 617.395782 -452.472368 
L 620.186094 -447.839963 
L 623.160035 -443.207558 
L 626.350712 -438.575154 
L 629.803991 -433.942749 
L 633.405832 -429.310345 
L 637.071487 -424.67794 
L 640.855145 -420.045536 
L 644.73149 -415.413131 
L 648.459698 -410.780726 
L 651.782974 -406.148322 
L 654.763021 -401.515917 
L 657.850226 -396.883513 
L 661.465187 -392.251108 
L 665.443168 -387.618704 
L 669.05109 -382.986299 
L 671.806264 -378.353894 
L 674.077873 -373.72149 
L 676.421187 -369.089085 
L 678.673947 -364.456681 
L 680.326593 -359.824276 
L 681.448909 -355.191871 
L 682.666258 -350.559467 
L 684.355324 -345.927062 
L 686.330873 -341.294658 
L 688.321948 -336.662253 
L 690.269412 -332.029849 
L 692.115862 -327.397444 
L 693.815545 -322.765039 
L 695.5322 -318.132635 
L 697.362532 -313.50023 
L 699.016946 -308.867826 
L 700.216037 -304.235421 
L 701.099316 -299.603016 
L 701.89569 -294.970612 
L 702.579752 -290.338207 
L 702.979464 -285.705803 
L 702.899182 -281.073398 
L 702.035685 -276.440994 
L 699.927708 -271.808589 
L 696.414517 -267.176184 
L 692.171712 -262.54378 
L 688.1161 -257.911375 
L 684.313708 -253.278971 
L 680.142911 -248.646566 
L 675.183083 -244.014161 
L 669.400577 -239.381757 
L 663.011036 -234.749352 
L 656.505943 -230.116948 
L 650.445127 -225.484543 
L 645.070272 -220.852139 
L 640.18514 -216.219734 
L 635.469698 -211.587329 
L 630.821778 -206.954925 
L 626.223914 -202.32252 
L 621.554287 -197.690116 
L 616.837651 -193.057711 
L 612.434214 -188.425307 
L 608.772911 -183.792902 
L 606.017901 -179.160497 
L 604.0327 -174.528093 
L 602.570077 -169.895688 
L 601.437726 -165.263284 
L 600.527608 -160.630879 
L 599.794805 -155.998474 
L 599.244585 -151.36607 
L 598.889695 -146.733665 
L 598.698195 -142.101261 
L 598.602426 -137.468856 
L 598.54974 -132.836452 
L 598.519922 -128.204047 
L 598.506045 -123.571642 
z
" style="stroke: #3f3f3f; stroke-width: 1.25"/>
    </defs>
    <g clip-path="url(#p5e1889fe89)">
     <use xlink:href="#md458764e26" x="0" y="720" style="fill: #3274a1; stroke: #3f3f3f; stroke-width: 1.25"/>
    </g>
   </g>
   <g id="PolyCollection_3">
    <defs>
     <path id="m51fbb0d243" d="M 877.518085 -132.649922 
L 877.481915 -132.649922 
L 877.438216 -137.263363 
L 877.339484 -141.876803 
L 877.174556 -146.490244 
L 876.963346 -151.103685 
L 876.730671 -155.717126 
L 876.450787 -160.330567 
L 876.021592 -164.944008 
L 875.276795 -169.557448 
L 874.016704 -174.170889 
L 872.070094 -178.78433 
L 869.364459 -183.397771 
L 865.942356 -188.011212 
L 861.921163 -192.624652 
L 857.44773 -197.238093 
L 852.633356 -201.851534 
L 847.493705 -206.464975 
L 842.041336 -211.078416 
L 836.433734 -215.691857 
L 830.905757 -220.305297 
L 825.569644 -224.918738 
L 820.35905 -229.532179 
L 815.14584 -234.14562 
L 809.906951 -238.759061 
L 804.875957 -243.372501 
L 800.472122 -247.985942 
L 796.811704 -252.599383 
L 793.36573 -257.212824 
L 789.448339 -261.826265 
L 784.892373 -266.439706 
L 780.027162 -271.053146 
L 775.393269 -275.666587 
L 771.632519 -280.280028 
L 769.267171 -284.893469 
L 768.428691 -289.50691 
L 768.675898 -294.120351 
L 769.018555 -298.733791 
L 768.605915 -303.347232 
L 767.584177 -307.960673 
L 766.835904 -312.574114 
L 766.938689 -317.187555 
L 767.91648 -321.800995 
L 769.803965 -326.414436 
L 772.674483 -331.027877 
L 776.098979 -335.641318 
L 779.37522 -340.254759 
L 782.406997 -344.8682 
L 785.765344 -349.48164 
L 790.025404 -354.095081 
L 795.345525 -358.708522 
L 801.242843 -363.321963 
L 806.773965 -367.935404 
L 811.427866 -372.548845 
L 815.46706 -377.162285 
L 819.146717 -381.775726 
L 822.379854 -386.389167 
L 825.243867 -391.002608 
L 828.012396 -395.616049 
L 830.676779 -400.229489 
L 832.982749 -404.84293 
L 834.945264 -409.456371 
L 836.963651 -414.069812 
L 839.330671 -418.683253 
L 841.893415 -423.296694 
L 844.318085 -427.910134 
L 846.444332 -432.523575 
L 848.337464 -437.137016 
L 850.219061 -441.750457 
L 852.295778 -446.363898 
L 854.554615 -450.977339 
L 856.86366 -455.590779 
L 859.206145 -460.20422 
L 861.586161 -464.817661 
L 863.817601 -469.431102 
L 865.653161 -474.044543 
L 867.051101 -478.657983 
L 868.148075 -483.271424 
L 869.048643 -487.884865 
L 869.78519 -492.498306 
L 870.42503 -497.111747 
L 871.090285 -501.725188 
L 871.896828 -506.338628 
L 872.888941 -510.952069 
L 873.969084 -515.56551 
L 874.945794 -520.178951 
L 875.690999 -524.792392 
L 876.181728 -529.405832 
L 876.448392 -534.019273 
L 876.568855 -538.632714 
L 876.643736 -543.246155 
L 876.734655 -547.859596 
L 876.853121 -552.473037 
L 876.987848 -557.086477 
L 877.120148 -561.699918 
L 877.233669 -566.313359 
L 877.323147 -570.9268 
L 877.392152 -575.540241 
L 877.443443 -580.153682 
L 877.476264 -584.767122 
L 877.492443 -589.380563 
L 877.507557 -589.380563 
L 877.507557 -589.380563 
L 877.523736 -584.767122 
L 877.556557 -580.153682 
L 877.607848 -575.540241 
L 877.676853 -570.9268 
L 877.766331 -566.313359 
L 877.879852 -561.699918 
L 878.012152 -557.086477 
L 878.146879 -552.473037 
L 878.265345 -547.859596 
L 878.356264 -543.246155 
L 878.431145 -538.632714 
L 878.551608 -534.019273 
L 878.818272 -529.405832 
L 879.309001 -524.792392 
L 880.054206 -520.178951 
L 881.030916 -515.56551 
L 882.111059 -510.952069 
L 883.103172 -506.338628 
L 883.909715 -501.725188 
L 884.57497 -497.111747 
L 885.21481 -492.498306 
L 885.951357 -487.884865 
L 886.851925 -483.271424 
L 887.948899 -478.657983 
L 889.346839 -474.044543 
L 891.182399 -469.431102 
L 893.413839 -464.817661 
L 895.793855 -460.20422 
L 898.13634 -455.590779 
L 900.445385 -450.977339 
L 902.704222 -446.363898 
L 904.780939 -441.750457 
L 906.662536 -437.137016 
L 908.555668 -432.523575 
L 910.681915 -427.910134 
L 913.106585 -423.296694 
L 915.669329 -418.683253 
L 918.036349 -414.069812 
L 920.054736 -409.456371 
L 922.017251 -404.84293 
L 924.323221 -400.229489 
L 926.987604 -395.616049 
L 929.756133 -391.002608 
L 932.620146 -386.389167 
L 935.853283 -381.775726 
L 939.53294 -377.162285 
L 943.572134 -372.548845 
L 948.226035 -367.935404 
L 953.757157 -363.321963 
L 959.654475 -358.708522 
L 964.974596 -354.095081 
L 969.234656 -349.48164 
L 972.593003 -344.8682 
L 975.62478 -340.254759 
L 978.901021 -335.641318 
L 982.325517 -331.027877 
L 985.196035 -326.414436 
L 987.08352 -321.800995 
L 988.061311 -317.187555 
L 988.164096 -312.574114 
L 987.415823 -307.960673 
L 986.394085 -303.347232 
L 985.981445 -298.733791 
L 986.324102 -294.120351 
L 986.571309 -289.50691 
L 985.732829 -284.893469 
L 983.367481 -280.280028 
L 979.606731 -275.666587 
L 974.972838 -271.053146 
L 970.107627 -266.439706 
L 965.551661 -261.826265 
L 961.63427 -257.212824 
L 958.188296 -252.599383 
L 954.527878 -247.985942 
L 950.124043 -243.372501 
L 945.093049 -238.759061 
L 939.85416 -234.14562 
L 934.64095 -229.532179 
L 929.430356 -224.918738 
L 924.094243 -220.305297 
L 918.566266 -215.691857 
L 912.958664 -211.078416 
L 907.506295 -206.464975 
L 902.366644 -201.851534 
L 897.55227 -197.238093 
L 893.078837 -192.624652 
L 889.057644 -188.011212 
L 885.635541 -183.397771 
L 882.929906 -178.78433 
L 880.983296 -174.170889 
L 879.723205 -169.557448 
L 878.978408 -164.944008 
L 878.549213 -160.330567 
L 878.269329 -155.717126 
L 878.036654 -151.103685 
L 877.825444 -146.490244 
L 877.660516 -141.876803 
L 877.561784 -137.263363 
L 877.518085 -132.649922 
z
" style="stroke: #3f3f3f; stroke-width: 1.25"/>
    </defs>
    <g clip-path="url(#p5e1889fe89)">
     <use xlink:href="#m51fbb0d243" x="0" y="720" style="fill: #3274a1; stroke: #3f3f3f; stroke-width: 1.25"/>
    </g>
   </g>
   <g id="PolyCollection_4">
    <defs>
     <path id="m0c5ccc3e7e" d="M 1156.509416 -131.519601 
L 1156.490584 -131.519601 
L 1156.468694 -136.336575 
L 1156.4239 -141.153549 
L 1156.351032 -145.970522 
L 1156.23423 -150.787496 
L 1156.023093 -155.60447 
L 1155.607485 -160.421443 
L 1154.811728 -165.238417 
L 1153.497923 -170.055391 
L 1151.724589 -174.872365 
L 1149.699963 -179.689338 
L 1147.556622 -184.506312 
L 1145.190695 -189.323286 
L 1142.262473 -194.14026 
L 1138.472452 -198.957233 
L 1133.975812 -203.774207 
L 1129.401098 -208.591181 
L 1125.130489 -213.408154 
L 1120.627811 -218.225128 
L 1114.889289 -223.042102 
L 1107.5697 -227.859076 
L 1099.39811 -232.676049 
L 1091.487191 -237.493023 
L 1084.763643 -242.309997 
L 1079.818497 -247.126971 
L 1076.425547 -251.943944 
L 1073.616697 -256.760918 
L 1070.747373 -261.577892 
L 1067.859867 -266.394865 
L 1064.940197 -271.211839 
L 1061.786461 -276.028813 
L 1058.72625 -280.845787 
L 1056.463078 -285.66276 
L 1054.979716 -290.479734 
L 1053.5763 -295.296708 
L 1051.98922 -300.113682 
L 1050.443005 -304.930655 
L 1049.120832 -309.747629 
L 1048.333256 -314.564603 
L 1048.40182 -319.381576 
L 1049.065382 -324.19855 
L 1049.806728 -329.015524 
L 1050.745145 -333.832498 
L 1052.387216 -338.649471 
L 1054.858791 -343.466445 
L 1057.992296 -348.283419 
L 1061.550448 -353.100393 
L 1065.115006 -357.917366 
L 1068.215544 -362.73434 
L 1070.758546 -367.551314 
L 1073.511663 -372.368287 
L 1077.556719 -377.185261 
L 1082.60491 -382.002235 
L 1087.251529 -386.819209 
L 1091.218199 -391.636182 
L 1095.361247 -396.453156 
L 1099.847064 -401.27013 
L 1104.102066 -406.087103 
L 1107.920922 -410.904077 
L 1111.54068 -415.721051 
L 1115.230956 -420.538025 
L 1119.227456 -425.354998 
L 1123.612678 -430.171972 
L 1128.081928 -434.988946 
L 1132.038722 -439.80592 
L 1135.2028 -444.622893 
L 1137.912967 -449.439867 
L 1140.498007 -454.256841 
L 1142.848912 -459.073814 
L 1144.783386 -463.890788 
L 1146.316232 -468.707762 
L 1147.628962 -473.524736 
L 1148.942598 -478.341709 
L 1150.324244 -483.158683 
L 1151.635243 -487.975657 
L 1152.698771 -492.792631 
L 1153.469887 -497.609604 
L 1154.006113 -502.426578 
L 1154.366516 -507.243552 
L 1154.614796 -512.060525 
L 1154.843704 -516.877499 
L 1155.146465 -521.694473 
L 1155.530144 -526.511447 
L 1155.877622 -531.32842 
L 1156.078106 -536.145394 
L 1156.155624 -540.962368 
L 1156.209729 -545.779342 
L 1156.286679 -550.596315 
L 1156.364496 -555.413289 
L 1156.420343 -560.230263 
L 1156.456792 -565.047236 
L 1156.479335 -569.86421 
L 1156.487092 -574.681184 
L 1156.481597 -579.498158 
L 1156.470437 -584.315131 
L 1156.463798 -589.132105 
L 1156.467579 -593.949079 
L 1156.47902 -598.766053 
L 1156.490414 -603.583026 
L 1156.496986 -608.4 
L 1156.503014 -608.4 
L 1156.503014 -608.4 
L 1156.509586 -603.583026 
L 1156.52098 -598.766053 
L 1156.532421 -593.949079 
L 1156.536202 -589.132105 
L 1156.529563 -584.315131 
L 1156.518403 -579.498158 
L 1156.512908 -574.681184 
L 1156.520665 -569.86421 
L 1156.543208 -565.047236 
L 1156.579657 -560.230263 
L 1156.635504 -555.413289 
L 1156.713321 -550.596315 
L 1156.790271 -545.779342 
L 1156.844376 -540.962368 
L 1156.921894 -536.145394 
L 1157.122378 -531.32842 
L 1157.469856 -526.511447 
L 1157.853535 -521.694473 
L 1158.156296 -516.877499 
L 1158.385204 -512.060525 
L 1158.633484 -507.243552 
L 1158.993887 -502.426578 
L 1159.530113 -497.609604 
L 1160.301229 -492.792631 
L 1161.364757 -487.975657 
L 1162.675756 -483.158683 
L 1164.057402 -478.341709 
L 1165.371038 -473.524736 
L 1166.683768 -468.707762 
L 1168.216614 -463.890788 
L 1170.151088 -459.073814 
L 1172.501993 -454.256841 
L 1175.087033 -449.439867 
L 1177.7972 -444.622893 
L 1180.961278 -439.80592 
L 1184.918072 -434.988946 
L 1189.387322 -430.171972 
L 1193.772544 -425.354998 
L 1197.769044 -420.538025 
L 1201.45932 -415.721051 
L 1205.079078 -410.904077 
L 1208.897934 -406.087103 
L 1213.152936 -401.27013 
L 1217.638753 -396.453156 
L 1221.781801 -391.636182 
L 1225.748471 -386.819209 
L 1230.39509 -382.002235 
L 1235.443281 -377.185261 
L 1239.488337 -372.368287 
L 1242.241454 -367.551314 
L 1244.784456 -362.73434 
L 1247.884994 -357.917366 
L 1251.449552 -353.100393 
L 1255.007704 -348.283419 
L 1258.141209 -343.466445 
L 1260.612784 -338.649471 
L 1262.254855 -333.832498 
L 1263.193272 -329.015524 
L 1263.934618 -324.19855 
L 1264.59818 -319.381576 
L 1264.666744 -314.564603 
L 1263.879168 -309.747629 
L 1262.556995 -304.930655 
L 1261.01078 -300.113682 
L 1259.4237 -295.296708 
L 1258.020284 -290.479734 
L 1256.536922 -285.66276 
L 1254.27375 -280.845787 
L 1251.213539 -276.028813 
L 1248.059803 -271.211839 
L 1245.140133 -266.394865 
L 1242.252627 -261.577892 
L 1239.383303 -256.760918 
L 1236.574453 -251.943944 
L 1233.181503 -247.126971 
L 1228.236357 -242.309997 
L 1221.512809 -237.493023 
L 1213.60189 -232.676049 
L 1205.4303 -227.859076 
L 1198.110711 -223.042102 
L 1192.372189 -218.225128 
L 1187.869511 -213.408154 
L 1183.598902 -208.591181 
L 1179.024188 -203.774207 
L 1174.527548 -198.957233 
L 1170.737527 -194.14026 
L 1167.809305 -189.323286 
L 1165.443378 -184.506312 
L 1163.300037 -179.689338 
L 1161.275411 -174.872365 
L 1159.502077 -170.055391 
L 1158.188272 -165.238417 
L 1157.392515 -160.421443 
L 1156.976907 -155.60447 
L 1156.76577 -150.787496 
L 1156.648968 -145.970522 
L 1156.5761 -141.153549 
L 1156.531306 -136.336575 
L 1156.509416 -131.519601 
z
" style="stroke: #3f3f3f; stroke-width: 1.25"/>
    </defs>
    <g clip-path="url(#p5e1889fe89)">
     <use xlink:href="#m0c5ccc3e7e" x="0" y="720" style="fill: #3274a1; stroke: #3f3f3f; stroke-width: 1.25"/>
    </g>
   </g>
   <g id="matplotlib.axis_1">
    <g id="xtick_1">
     <g id="line2d_1">
      <defs>
       <path id="ma101d4b54a" d="M 0 0 
L 0 3.5 
" style="stroke: #000000; stroke-width: 0.8"/>
      </defs>
      <g>
       <use xlink:href="#ma101d4b54a" x="319.5" y="640.8" style="stroke: #000000; stroke-width: 0.8"/>
      </g>
     </g>
     <g id="text_1">
      <!-- max -->
      <g transform="translate(308.60625 655.398438) scale(0.1 -0.1)">
       <defs>
        <path id="DejaVuSans-6d" d="M 3328 2828 
Q 3544 3216 3844 3400 
Q 4144 3584 4550 3584 
Q 5097 3584 5394 3201 
Q 5691 2819 5691 2113 
L 5691 0 
L 5113 0 
L 5113 2094 
Q 5113 2597 4934 2840 
Q 4756 3084 4391 3084 
Q 3944 3084 3684 2787 
Q 3425 2491 3425 1978 
L 3425 0 
L 2847 0 
L 2847 2094 
Q 2847 2600 2669 2842 
Q 2491 3084 2119 3084 
Q 1678 3084 1418 2786 
Q 1159 2488 1159 1978 
L 1159 0 
L 581 0 
L 581 3500 
L 1159 3500 
L 1159 2956 
Q 1356 3278 1631 3431 
Q 1906 3584 2284 3584 
Q 2666 3584 2933 3390 
Q 3200 3197 3328 2828 
z
" transform="scale(0.015625)"/>
        <path id="DejaVuSans-61" d="M 2194 1759 
Q 1497 1759 1228 1600 
Q 959 1441 959 1056 
Q 959 750 1161 570 
Q 1363 391 1709 391 
Q 2188 391 2477 730 
Q 2766 1069 2766 1631 
L 2766 1759 
L 2194 1759 
z
M 3341 1997 
L 3341 0 
L 2766 0 
L 2766 531 
Q 2569 213 2275 61 
Q 1981 -91 1556 -91 
Q 1019 -91 701 211 
Q 384 513 384 1019 
Q 384 1609 779 1909 
Q 1175 2209 1959 2209 
L 2766 2209 
L 2766 2266 
Q 2766 2663 2505 2880 
Q 2244 3097 1772 3097 
Q 1472 3097 1187 3025 
Q 903 2953 641 2809 
L 641 3341 
Q 956 3463 1253 3523 
Q 1550 3584 1831 3584 
Q 2591 3584 2966 3190 
Q 3341 2797 3341 1997 
z
" transform="scale(0.015625)"/>
        <path id="DejaVuSans-78" d="M 3513 3500 
L 2247 1797 
L 3578 0 
L 2900 0 
L 1881 1375 
L 863 0 
L 184 0 
L 1544 1831 
L 300 3500 
L 978 3500 
L 1906 2253 
L 2834 3500 
L 3513 3500 
z
" transform="scale(0.015625)"/>
       </defs>
       <use xlink:href="#DejaVuSans-6d"/>
       <use xlink:href="#DejaVuSans-61" x="97.412109"/>
       <use xlink:href="#DejaVuSans-78" x="158.691406"/>
      </g>
     </g>
    </g>
    <g id="xtick_2">
     <g id="line2d_2">
      <g>
       <use xlink:href="#ma101d4b54a" x="598.5" y="640.8" style="stroke: #000000; stroke-width: 0.8"/>
      </g>
     </g>
     <g id="text_2">
      <!-- max_fs -->
      <g transform="translate(580.741406 655.398438) scale(0.1 -0.1)">
       <defs>
        <path id="DejaVuSans-5f" d="M 3263 -1063 
L 3263 -1509 
L -63 -1509 
L -63 -1063 
L 3263 -1063 
z
" transform="scale(0.015625)"/>
        <path id="DejaVuSans-66" d="M 2375 4863 
L 2375 4384 
L 1825 4384 
Q 1516 4384 1395 4259 
Q 1275 4134 1275 3809 
L 1275 3500 
L 2222 3500 
L 2222 3053 
L 1275 3053 
L 1275 0 
L 697 0 
L 697 3053 
L 147 3053 
L 147 3500 
L 697 3500 
L 697 3744 
Q 697 4328 969 4595 
Q 1241 4863 1831 4863 
L 2375 4863 
z
" transform="scale(0.015625)"/>
        <path id="DejaVuSans-73" d="M 2834 3397 
L 2834 2853 
Q 2591 2978 2328 3040 
Q 2066 3103 1784 3103 
Q 1356 3103 1142 2972 
Q 928 2841 928 2578 
Q 928 2378 1081 2264 
Q 1234 2150 1697 2047 
L 1894 2003 
Q 2506 1872 2764 1633 
Q 3022 1394 3022 966 
Q 3022 478 2636 193 
Q 2250 -91 1575 -91 
Q 1294 -91 989 -36 
Q 684 19 347 128 
L 347 722 
Q 666 556 975 473 
Q 1284 391 1588 391 
Q 1994 391 2212 530 
Q 2431 669 2431 922 
Q 2431 1156 2273 1281 
Q 2116 1406 1581 1522 
L 1381 1569 
Q 847 1681 609 1914 
Q 372 2147 372 2553 
Q 372 3047 722 3315 
Q 1072 3584 1716 3584 
Q 2034 3584 2315 3537 
Q 2597 3491 2834 3397 
z
" transform="scale(0.015625)"/>
       </defs>
       <use xlink:href="#DejaVuSans-6d"/>
       <use xlink:href="#DejaVuSans-61" x="97.412109"/>
       <use xlink:href="#DejaVuSans-78" x="158.691406"/>
       <use xlink:href="#DejaVuSans-5f" x="217.871094"/>
       <use xlink:href="#DejaVuSans-66" x="267.871094"/>
       <use xlink:href="#DejaVuSans-73" x="303.076172"/>
      </g>
     </g>
    </g>
    <g id="xtick_3">
     <g id="line2d_3">
      <g>
       <use xlink:href="#ma101d4b54a" x="877.5" y="640.8" style="stroke: #000000; stroke-width: 0.8"/>
      </g>
     </g>
     <g id="text_3">
      <!-- max_mem_5_fs_glit -->
      <g transform="translate(828.330469 655.398438) scale(0.1 -0.1)">
       <defs>
        <path id="DejaVuSans-65" d="M 3597 1894 
L 3597 1613 
L 953 1613 
Q 991 1019 1311 708 
Q 1631 397 2203 397 
Q 2534 397 2845 478 
Q 3156 559 3463 722 
L 3463 178 
Q 3153 47 2828 -22 
Q 2503 -91 2169 -91 
Q 1331 -91 842 396 
Q 353 884 353 1716 
Q 353 2575 817 3079 
Q 1281 3584 2069 3584 
Q 2775 3584 3186 3129 
Q 3597 2675 3597 1894 
z
M 3022 2063 
Q 3016 2534 2758 2815 
Q 2500 3097 2075 3097 
Q 1594 3097 1305 2825 
Q 1016 2553 972 2059 
L 3022 2063 
z
" transform="scale(0.015625)"/>
        <path id="DejaVuSans-35" d="M 691 4666 
L 3169 4666 
L 3169 4134 
L 1269 4134 
L 1269 2991 
Q 1406 3038 1543 3061 
Q 1681 3084 1819 3084 
Q 2600 3084 3056 2656 
Q 3513 2228 3513 1497 
Q 3513 744 3044 326 
Q 2575 -91 1722 -91 
Q 1428 -91 1123 -41 
Q 819 9 494 109 
L 494 744 
Q 775 591 1075 516 
Q 1375 441 1709 441 
Q 2250 441 2565 725 
Q 2881 1009 2881 1497 
Q 2881 1984 2565 2268 
Q 2250 2553 1709 2553 
Q 1456 2553 1204 2497 
Q 953 2441 691 2322 
L 691 4666 
z
" transform="scale(0.015625)"/>
        <path id="DejaVuSans-67" d="M 2906 1791 
Q 2906 2416 2648 2759 
Q 2391 3103 1925 3103 
Q 1463 3103 1205 2759 
Q 947 2416 947 1791 
Q 947 1169 1205 825 
Q 1463 481 1925 481 
Q 2391 481 2648 825 
Q 2906 1169 2906 1791 
z
M 3481 434 
Q 3481 -459 3084 -895 
Q 2688 -1331 1869 -1331 
Q 1566 -1331 1297 -1286 
Q 1028 -1241 775 -1147 
L 775 -588 
Q 1028 -725 1275 -790 
Q 1522 -856 1778 -856 
Q 2344 -856 2625 -561 
Q 2906 -266 2906 331 
L 2906 616 
Q 2728 306 2450 153 
Q 2172 0 1784 0 
Q 1141 0 747 490 
Q 353 981 353 1791 
Q 353 2603 747 3093 
Q 1141 3584 1784 3584 
Q 2172 3584 2450 3431 
Q 2728 3278 2906 2969 
L 2906 3500 
L 3481 3500 
L 3481 434 
z
" transform="scale(0.015625)"/>
        <path id="DejaVuSans-6c" d="M 603 4863 
L 1178 4863 
L 1178 0 
L 603 0 
L 603 4863 
z
" transform="scale(0.015625)"/>
        <path id="DejaVuSans-69" d="M 603 3500 
L 1178 3500 
L 1178 0 
L 603 0 
L 603 3500 
z
M 603 4863 
L 1178 4863 
L 1178 4134 
L 603 4134 
L 603 4863 
z
" transform="scale(0.015625)"/>
        <path id="DejaVuSans-74" d="M 1172 4494 
L 1172 3500 
L 2356 3500 
L 2356 3053 
L 1172 3053 
L 1172 1153 
Q 1172 725 1289 603 
Q 1406 481 1766 481 
L 2356 481 
L 2356 0 
L 1766 0 
Q 1100 0 847 248 
Q 594 497 594 1153 
L 594 3053 
L 172 3053 
L 172 3500 
L 594 3500 
L 594 4494 
L 1172 4494 
z
" transform="scale(0.015625)"/>
       </defs>
       <use xlink:href="#DejaVuSans-6d"/>
       <use xlink:href="#DejaVuSans-61" x="97.412109"/>
       <use xlink:href="#DejaVuSans-78" x="158.691406"/>
       <use xlink:href="#DejaVuSans-5f" x="217.871094"/>
       <use xlink:href="#DejaVuSans-6d" x="267.871094"/>
       <use xlink:href="#DejaVuSans-65" x="365.283203"/>
       <use xlink:href="#DejaVuSans-6d" x="426.806641"/>
       <use xlink:href="#DejaVuSans-5f" x="524.21875"/>
       <use xlink:href="#DejaVuSans-35" x="574.21875"/>
       <use xlink:href="#DejaVuSans-5f" x="637.841797"/>
       <use xlink:href="#DejaVuSans-66" x="687.841797"/>
       <use xlink:href="#DejaVuSans-73" x="723.046875"/>
       <use xlink:href="#DejaVuSans-5f" x="775.146484"/>
       <use xlink:href="#DejaVuSans-67" x="825.146484"/>
       <use xlink:href="#DejaVuSans-6c" x="888.623047"/>
       <use xlink:href="#DejaVuSans-69" x="916.40625"/>
       <use xlink:href="#DejaVuSans-74" x="944.189453"/>
      </g>
     </g>
    </g>
    <g id="xtick_4">
     <g id="line2d_4">
      <g>
       <use xlink:href="#ma101d4b54a" x="1156.5" y="640.8" style="stroke: #000000; stroke-width: 0.8"/>
      </g>
     </g>
     <g id="text_4">
      <!-- max_fs_glit -->
      <g transform="translate(1128.328906 655.398438) scale(0.1 -0.1)">
       <use xlink:href="#DejaVuSans-6d"/>
       <use xlink:href="#DejaVuSans-61" x="97.412109"/>
       <use xlink:href="#DejaVuSans-78" x="158.691406"/>
       <use xlink:href="#DejaVuSans-5f" x="217.871094"/>
       <use xlink:href="#DejaVuSans-66" x="267.871094"/>
       <use xlink:href="#DejaVuSans-73" x="303.076172"/>
       <use xlink:href="#DejaVuSans-5f" x="355.175781"/>
       <use xlink:href="#DejaVuSans-67" x="405.175781"/>
       <use xlink:href="#DejaVuSans-6c" x="468.652344"/>
       <use xlink:href="#DejaVuSans-69" x="496.435547"/>
       <use xlink:href="#DejaVuSans-74" x="524.21875"/>
      </g>
     </g>
    </g>
    <g id="text_5">
     <!-- file name -->
     <g transform="translate(714.616406 669.354687) scale(0.1 -0.1)">
      <defs>
       <path id="DejaVuSans-20" transform="scale(0.015625)"/>
       <path id="DejaVuSans-6e" d="M 3513 2113 
L 3513 0 
L 2938 0 
L 2938 2094 
Q 2938 2591 2744 2837 
Q 2550 3084 2163 3084 
Q 1697 3084 1428 2787 
Q 1159 2491 1159 1978 
L 1159 0 
L 581 0 
L 581 3500 
L 1159 3500 
L 1159 2956 
Q 1366 3272 1645 3428 
Q 1925 3584 2291 3584 
Q 2894 3584 3203 3211 
Q 3513 2838 3513 2113 
z
" transform="scale(0.015625)"/>
      </defs>
      <use xlink:href="#DejaVuSans-66"/>
      <use xlink:href="#DejaVuSans-69" x="35.205078"/>
      <use xlink:href="#DejaVuSans-6c" x="62.988281"/>
      <use xlink:href="#DejaVuSans-65" x="90.771484"/>
      <use xlink:href="#DejaVuSans-20" x="152.294922"/>
      <use xlink:href="#DejaVuSans-6e" x="184.082031"/>
      <use xlink:href="#DejaVuSans-61" x="247.460938"/>
      <use xlink:href="#DejaVuSans-6d" x="308.740234"/>
      <use xlink:href="#DejaVuSans-65" x="406.152344"/>
     </g>
    </g>
   </g>
   <g id="matplotlib.axis_2">
    <g id="ytick_1">
     <g id="line2d_5">
      <defs>
       <path id="m9e56ad5a7b" d="M 0 0 
L -3.5 0 
" style="stroke: #000000; stroke-width: 0.8"/>
      </defs>
      <g>
       <use xlink:href="#m9e56ad5a7b" x="180" y="596.993213" style="stroke: #000000; stroke-width: 0.8"/>
      </g>
     </g>
     <g id="text_6">
      <!-- −0.2 -->
      <g transform="translate(148.717187 600.792432) scale(0.1 -0.1)">
       <defs>
        <path id="DejaVuSans-2212" d="M 678 2272 
L 4684 2272 
L 4684 1741 
L 678 1741 
L 678 2272 
z
" transform="scale(0.015625)"/>
        <path id="DejaVuSans-30" d="M 2034 4250 
Q 1547 4250 1301 3770 
Q 1056 3291 1056 2328 
Q 1056 1369 1301 889 
Q 1547 409 2034 409 
Q 2525 409 2770 889 
Q 3016 1369 3016 2328 
Q 3016 3291 2770 3770 
Q 2525 4250 2034 4250 
z
M 2034 4750 
Q 2819 4750 3233 4129 
Q 3647 3509 3647 2328 
Q 3647 1150 3233 529 
Q 2819 -91 2034 -91 
Q 1250 -91 836 529 
Q 422 1150 422 2328 
Q 422 3509 836 4129 
Q 1250 4750 2034 4750 
z
" transform="scale(0.015625)"/>
        <path id="DejaVuSans-2e" d="M 684 794 
L 1344 794 
L 1344 0 
L 684 0 
L 684 794 
z
" transform="scale(0.015625)"/>
        <path id="DejaVuSans-32" d="M 1228 531 
L 3431 531 
L 3431 0 
L 469 0 
L 469 531 
Q 828 903 1448 1529 
Q 2069 2156 2228 2338 
Q 2531 2678 2651 2914 
Q 2772 3150 2772 3378 
Q 2772 3750 2511 3984 
Q 2250 4219 1831 4219 
Q 1534 4219 1204 4116 
Q 875 4013 500 3803 
L 500 4441 
Q 881 4594 1212 4672 
Q 1544 4750 1819 4750 
Q 2544 4750 2975 4387 
Q 3406 4025 3406 3419 
Q 3406 3131 3298 2873 
Q 3191 2616 2906 2266 
Q 2828 2175 2409 1742 
Q 1991 1309 1228 531 
z
" transform="scale(0.015625)"/>
       </defs>
       <use xlink:href="#DejaVuSans-2212"/>
       <use xlink:href="#DejaVuSans-30" x="83.789062"/>
       <use xlink:href="#DejaVuSans-2e" x="147.412109"/>
       <use xlink:href="#DejaVuSans-32" x="179.199219"/>
      </g>
     </g>
    </g>
    <g id="ytick_2">
     <g id="line2d_6">
      <g>
       <use xlink:href="#m9e56ad5a7b" x="180" y="511.08986" style="stroke: #000000; stroke-width: 0.8"/>
      </g>
     </g>
     <g id="text_7">
      <!-- 0.0 -->
      <g transform="translate(157.096875 514.889079) scale(0.1 -0.1)">
       <use xlink:href="#DejaVuSans-30"/>
       <use xlink:href="#DejaVuSans-2e" x="63.623047"/>
       <use xlink:href="#DejaVuSans-30" x="95.410156"/>
      </g>
     </g>
    </g>
    <g id="ytick_3">
     <g id="line2d_7">
      <g>
       <use xlink:href="#m9e56ad5a7b" x="180" y="425.186506" style="stroke: #000000; stroke-width: 0.8"/>
      </g>
     </g>
     <g id="text_8">
      <!-- 0.2 -->
      <g transform="translate(157.096875 428.985725) scale(0.1 -0.1)">
       <use xlink:href="#DejaVuSans-30"/>
       <use xlink:href="#DejaVuSans-2e" x="63.623047"/>
       <use xlink:href="#DejaVuSans-32" x="95.410156"/>
      </g>
     </g>
    </g>
    <g id="ytick_4">
     <g id="line2d_8">
      <g>
       <use xlink:href="#m9e56ad5a7b" x="180" y="339.283153" style="stroke: #000000; stroke-width: 0.8"/>
      </g>
     </g>
     <g id="text_9">
      <!-- 0.4 -->
      <g transform="translate(157.096875 343.082372) scale(0.1 -0.1)">
       <defs>
        <path id="DejaVuSans-34" d="M 2419 4116 
L 825 1625 
L 2419 1625 
L 2419 4116 
z
M 2253 4666 
L 3047 4666 
L 3047 1625 
L 3713 1625 
L 3713 1100 
L 3047 1100 
L 3047 0 
L 2419 0 
L 2419 1100 
L 313 1100 
L 313 1709 
L 2253 4666 
z
" transform="scale(0.015625)"/>
       </defs>
       <use xlink:href="#DejaVuSans-30"/>
       <use xlink:href="#DejaVuSans-2e" x="63.623047"/>
       <use xlink:href="#DejaVuSans-34" x="95.410156"/>
      </g>
     </g>
    </g>
    <g id="ytick_5">
     <g id="line2d_9">
      <g>
       <use xlink:href="#m9e56ad5a7b" x="180" y="253.3798" style="stroke: #000000; stroke-width: 0.8"/>
      </g>
     </g>
     <g id="text_10">
      <!-- 0.6 -->
      <g transform="translate(157.096875 257.179018) scale(0.1 -0.1)">
       <defs>
        <path id="DejaVuSans-36" d="M 2113 2584 
Q 1688 2584 1439 2293 
Q 1191 2003 1191 1497 
Q 1191 994 1439 701 
Q 1688 409 2113 409 
Q 2538 409 2786 701 
Q 3034 994 3034 1497 
Q 3034 2003 2786 2293 
Q 2538 2584 2113 2584 
z
M 3366 4563 
L 3366 3988 
Q 3128 4100 2886 4159 
Q 2644 4219 2406 4219 
Q 1781 4219 1451 3797 
Q 1122 3375 1075 2522 
Q 1259 2794 1537 2939 
Q 1816 3084 2150 3084 
Q 2853 3084 3261 2657 
Q 3669 2231 3669 1497 
Q 3669 778 3244 343 
Q 2819 -91 2113 -91 
Q 1303 -91 875 529 
Q 447 1150 447 2328 
Q 447 3434 972 4092 
Q 1497 4750 2381 4750 
Q 2619 4750 2861 4703 
Q 3103 4656 3366 4563 
z
" transform="scale(0.015625)"/>
       </defs>
       <use xlink:href="#DejaVuSans-30"/>
       <use xlink:href="#DejaVuSans-2e" x="63.623047"/>
       <use xlink:href="#DejaVuSans-36" x="95.410156"/>
      </g>
     </g>
    </g>
    <g id="ytick_6">
     <g id="line2d_10">
      <g>
       <use xlink:href="#m9e56ad5a7b" x="180" y="167.476446" style="stroke: #000000; stroke-width: 0.8"/>
      </g>
     </g>
     <g id="text_11">
      <!-- 0.8 -->
      <g transform="translate(157.096875 171.275665) scale(0.1 -0.1)">
       <defs>
        <path id="DejaVuSans-38" d="M 2034 2216 
Q 1584 2216 1326 1975 
Q 1069 1734 1069 1313 
Q 1069 891 1326 650 
Q 1584 409 2034 409 
Q 2484 409 2743 651 
Q 3003 894 3003 1313 
Q 3003 1734 2745 1975 
Q 2488 2216 2034 2216 
z
M 1403 2484 
Q 997 2584 770 2862 
Q 544 3141 544 3541 
Q 544 4100 942 4425 
Q 1341 4750 2034 4750 
Q 2731 4750 3128 4425 
Q 3525 4100 3525 3541 
Q 3525 3141 3298 2862 
Q 3072 2584 2669 2484 
Q 3125 2378 3379 2068 
Q 3634 1759 3634 1313 
Q 3634 634 3220 271 
Q 2806 -91 2034 -91 
Q 1263 -91 848 271 
Q 434 634 434 1313 
Q 434 1759 690 2068 
Q 947 2378 1403 2484 
z
M 1172 3481 
Q 1172 3119 1398 2916 
Q 1625 2713 2034 2713 
Q 2441 2713 2670 2916 
Q 2900 3119 2900 3481 
Q 2900 3844 2670 4047 
Q 2441 4250 2034 4250 
Q 1625 4250 1398 4047 
Q 1172 3844 1172 3481 
z
" transform="scale(0.015625)"/>
       </defs>
       <use xlink:href="#DejaVuSans-30"/>
       <use xlink:href="#DejaVuSans-2e" x="63.623047"/>
       <use xlink:href="#DejaVuSans-38" x="95.410156"/>
      </g>
     </g>
    </g>
    <g id="text_12">
     <!-- final cosine similarity -->
     <g transform="translate(142.6375 416.667187) rotate(-90) scale(0.1 -0.1)">
      <defs>
       <path id="DejaVuSans-63" d="M 3122 3366 
L 3122 2828 
Q 2878 2963 2633 3030 
Q 2388 3097 2138 3097 
Q 1578 3097 1268 2742 
Q 959 2388 959 1747 
Q 959 1106 1268 751 
Q 1578 397 2138 397 
Q 2388 397 2633 464 
Q 2878 531 3122 666 
L 3122 134 
Q 2881 22 2623 -34 
Q 2366 -91 2075 -91 
Q 1284 -91 818 406 
Q 353 903 353 1747 
Q 353 2603 823 3093 
Q 1294 3584 2113 3584 
Q 2378 3584 2631 3529 
Q 2884 3475 3122 3366 
z
" transform="scale(0.015625)"/>
       <path id="DejaVuSans-6f" d="M 1959 3097 
Q 1497 3097 1228 2736 
Q 959 2375 959 1747 
Q 959 1119 1226 758 
Q 1494 397 1959 397 
Q 2419 397 2687 759 
Q 2956 1122 2956 1747 
Q 2956 2369 2687 2733 
Q 2419 3097 1959 3097 
z
M 1959 3584 
Q 2709 3584 3137 3096 
Q 3566 2609 3566 1747 
Q 3566 888 3137 398 
Q 2709 -91 1959 -91 
Q 1206 -91 779 398 
Q 353 888 353 1747 
Q 353 2609 779 3096 
Q 1206 3584 1959 3584 
z
" transform="scale(0.015625)"/>
       <path id="DejaVuSans-72" d="M 2631 2963 
Q 2534 3019 2420 3045 
Q 2306 3072 2169 3072 
Q 1681 3072 1420 2755 
Q 1159 2438 1159 1844 
L 1159 0 
L 581 0 
L 581 3500 
L 1159 3500 
L 1159 2956 
Q 1341 3275 1631 3429 
Q 1922 3584 2338 3584 
Q 2397 3584 2469 3576 
Q 2541 3569 2628 3553 
L 2631 2963 
z
" transform="scale(0.015625)"/>
       <path id="DejaVuSans-79" d="M 2059 -325 
Q 1816 -950 1584 -1140 
Q 1353 -1331 966 -1331 
L 506 -1331 
L 506 -850 
L 844 -850 
Q 1081 -850 1212 -737 
Q 1344 -625 1503 -206 
L 1606 56 
L 191 3500 
L 800 3500 
L 1894 763 
L 2988 3500 
L 3597 3500 
L 2059 -325 
z
" transform="scale(0.015625)"/>
      </defs>
      <use xlink:href="#DejaVuSans-66"/>
      <use xlink:href="#DejaVuSans-69" x="35.205078"/>
      <use xlink:href="#DejaVuSans-6e" x="62.988281"/>
      <use xlink:href="#DejaVuSans-61" x="126.367188"/>
      <use xlink:href="#DejaVuSans-6c" x="187.646484"/>
      <use xlink:href="#DejaVuSans-20" x="215.429688"/>
      <use xlink:href="#DejaVuSans-63" x="247.216797"/>
      <use xlink:href="#DejaVuSans-6f" x="302.197266"/>
      <use xlink:href="#DejaVuSans-73" x="363.378906"/>
      <use xlink:href="#DejaVuSans-69" x="415.478516"/>
      <use xlink:href="#DejaVuSans-6e" x="443.261719"/>
      <use xlink:href="#DejaVuSans-65" x="506.640625"/>
      <use xlink:href="#DejaVuSans-20" x="568.164062"/>
      <use xlink:href="#DejaVuSans-73" x="599.951172"/>
      <use xlink:href="#DejaVuSans-69" x="652.050781"/>
      <use xlink:href="#DejaVuSans-6d" x="679.833984"/>
      <use xlink:href="#DejaVuSans-69" x="777.246094"/>
      <use xlink:href="#DejaVuSans-6c" x="805.029297"/>
      <use xlink:href="#DejaVuSans-61" x="832.8125"/>
      <use xlink:href="#DejaVuSans-72" x="894.091797"/>
      <use xlink:href="#DejaVuSans-69" x="935.205078"/>
      <use xlink:href="#DejaVuSans-74" x="962.988281"/>
      <use xlink:href="#DejaVuSans-79" x="1002.197266"/>
     </g>
    </g>
   </g>
   <g id="line2d_11">
    <path d="M 319.5 574.604522 
L 319.5 220.697919 
" clip-path="url(#p5e1889fe89)" style="fill: none; stroke: #3f3f3f; stroke-width: 1.875; stroke-linecap: square"/>
   </g>
   <g id="line2d_12">
    <path d="M 319.5 452.076342 
L 319.5 359.488483 
" clip-path="url(#p5e1889fe89)" style="fill: none; stroke: #3f3f3f; stroke-width: 5.625; stroke-linecap: square"/>
   </g>
   <g id="line2d_13">
    <path d="M 319.5 409.315448 
" clip-path="url(#p5e1889fe89)" style="fill: none; stroke: #3f3f3f; stroke-width: 1.5; stroke-linecap: square"/>
    <defs>
     <path id="m657d50bad3" d="M 2.34375 0 
L -2.34375 -0 
" style="stroke: #ffffff; stroke-width: 1.125"/>
    </defs>
    <g clip-path="url(#p5e1889fe89)">
     <use xlink:href="#m657d50bad3" x="319.5" y="409.315448" style="fill: #ffffff; stroke: #ffffff; stroke-width: 1.125"/>
    </g>
   </g>
   <g id="line2d_14">
    <path d="M 598.5 580.857255 
L 598.5 203.706918 
" clip-path="url(#p5e1889fe89)" style="fill: none; stroke: #3f3f3f; stroke-width: 1.875; stroke-linecap: square"/>
   </g>
   <g id="line2d_15">
    <path d="M 598.5 451.419364 
L 598.5 352.267116 
" clip-path="url(#p5e1889fe89)" style="fill: none; stroke: #3f3f3f; stroke-width: 5.625; stroke-linecap: square"/>
   </g>
   <g id="line2d_16">
    <path d="M 598.5 405.729655 
" clip-path="url(#p5e1889fe89)" style="fill: none; stroke: #3f3f3f; stroke-width: 1.5; stroke-linecap: square"/>
    <g clip-path="url(#p5e1889fe89)">
     <use xlink:href="#m657d50bad3" x="598.5" y="405.729655" style="fill: #ffffff; stroke: #ffffff; stroke-width: 1.125"/>
    </g>
   </g>
   <g id="line2d_17">
    <path d="M 877.5 571.799745 
L 877.5 220.583405 
" clip-path="url(#p5e1889fe89)" style="fill: none; stroke: #3f3f3f; stroke-width: 1.875; stroke-linecap: square"/>
   </g>
   <g id="line2d_18">
    <path d="M 877.5 448.87983 
L 877.5 357.524705 
" clip-path="url(#p5e1889fe89)" style="fill: none; stroke: #3f3f3f; stroke-width: 5.625; stroke-linecap: square"/>
   </g>
   <g id="line2d_19">
    <path d="M 877.5 405.200248 
" clip-path="url(#p5e1889fe89)" style="fill: none; stroke: #3f3f3f; stroke-width: 1.5; stroke-linecap: square"/>
    <g clip-path="url(#p5e1889fe89)">
     <use xlink:href="#m657d50bad3" x="877.5" y="405.200248" style="fill: #ffffff; stroke: #ffffff; stroke-width: 1.125"/>
    </g>
   </g>
   <g id="line2d_20">
    <path d="M 1156.5 573.689497 
L 1156.5 213.051303 
" clip-path="url(#p5e1889fe89)" style="fill: none; stroke: #3f3f3f; stroke-width: 1.875; stroke-linecap: square"/>
   </g>
   <g id="line2d_21">
    <path d="M 1156.5 445.893801 
L 1156.5 352.634292 
" clip-path="url(#p5e1889fe89)" style="fill: none; stroke: #3f3f3f; stroke-width: 5.625; stroke-linecap: square"/>
   </g>
   <g id="line2d_22">
    <path d="M 1156.5 400.33798 
" clip-path="url(#p5e1889fe89)" style="fill: none; stroke: #3f3f3f; stroke-width: 1.5; stroke-linecap: square"/>
    <g clip-path="url(#p5e1889fe89)">
     <use xlink:href="#m657d50bad3" x="1156.5" y="400.33798" style="fill: #ffffff; stroke: #ffffff; stroke-width: 1.125"/>
    </g>
   </g>
   <g id="patch_3">
    <path d="M 180 640.8 
L 180 86.4 
" style="fill: none; stroke: #000000; stroke-width: 0.8; stroke-linejoin: miter; stroke-linecap: square"/>
   </g>
   <g id="patch_4">
    <path d="M 1296 640.8 
L 1296 86.4 
" style="fill: none; stroke: #000000; stroke-width: 0.8; stroke-linejoin: miter; stroke-linecap: square"/>
   </g>
   <g id="patch_5">
    <path d="M 180 640.8 
L 1296 640.8 
" style="fill: none; stroke: #000000; stroke-width: 0.8; stroke-linejoin: miter; stroke-linecap: square"/>
   </g>
   <g id="patch_6">
    <path d="M 180 86.4 
L 1296 86.4 
" style="fill: none; stroke: #000000; stroke-width: 0.8; stroke-linejoin: miter; stroke-linecap: square"/>
   </g>
   <g id="text_13">
    <!-- final cosine similarity of general Between Finals Variety (betweenFinalsVariety), by file name -->
    <g transform="translate(460.266563 80.4) scale(0.12 -0.12)">
     <defs>
      <path id="DejaVuSans-42" d="M 1259 2228 
L 1259 519 
L 2272 519 
Q 2781 519 3026 730 
Q 3272 941 3272 1375 
Q 3272 1813 3026 2020 
Q 2781 2228 2272 2228 
L 1259 2228 
z
M 1259 4147 
L 1259 2741 
L 2194 2741 
Q 2656 2741 2882 2914 
Q 3109 3088 3109 3444 
Q 3109 3797 2882 3972 
Q 2656 4147 2194 4147 
L 1259 4147 
z
M 628 4666 
L 2241 4666 
Q 2963 4666 3353 4366 
Q 3744 4066 3744 3513 
Q 3744 3084 3544 2831 
Q 3344 2578 2956 2516 
Q 3422 2416 3680 2098 
Q 3938 1781 3938 1306 
Q 3938 681 3513 340 
Q 3088 0 2303 0 
L 628 0 
L 628 4666 
z
" transform="scale(0.015625)"/>
      <path id="DejaVuSans-77" d="M 269 3500 
L 844 3500 
L 1563 769 
L 2278 3500 
L 2956 3500 
L 3675 769 
L 4391 3500 
L 4966 3500 
L 4050 0 
L 3372 0 
L 2619 2869 
L 1863 0 
L 1184 0 
L 269 3500 
z
" transform="scale(0.015625)"/>
      <path id="DejaVuSans-46" d="M 628 4666 
L 3309 4666 
L 3309 4134 
L 1259 4134 
L 1259 2759 
L 3109 2759 
L 3109 2228 
L 1259 2228 
L 1259 0 
L 628 0 
L 628 4666 
z
" transform="scale(0.015625)"/>
      <path id="DejaVuSans-56" d="M 1831 0 
L 50 4666 
L 709 4666 
L 2188 738 
L 3669 4666 
L 4325 4666 
L 2547 0 
L 1831 0 
z
" transform="scale(0.015625)"/>
      <path id="DejaVuSans-28" d="M 1984 4856 
Q 1566 4138 1362 3434 
Q 1159 2731 1159 2009 
Q 1159 1288 1364 580 
Q 1569 -128 1984 -844 
L 1484 -844 
Q 1016 -109 783 600 
Q 550 1309 550 2009 
Q 550 2706 781 3412 
Q 1013 4119 1484 4856 
L 1984 4856 
z
" transform="scale(0.015625)"/>
      <path id="DejaVuSans-62" d="M 3116 1747 
Q 3116 2381 2855 2742 
Q 2594 3103 2138 3103 
Q 1681 3103 1420 2742 
Q 1159 2381 1159 1747 
Q 1159 1113 1420 752 
Q 1681 391 2138 391 
Q 2594 391 2855 752 
Q 3116 1113 3116 1747 
z
M 1159 2969 
Q 1341 3281 1617 3432 
Q 1894 3584 2278 3584 
Q 2916 3584 3314 3078 
Q 3713 2572 3713 1747 
Q 3713 922 3314 415 
Q 2916 -91 2278 -91 
Q 1894 -91 1617 61 
Q 1341 213 1159 525 
L 1159 0 
L 581 0 
L 581 4863 
L 1159 4863 
L 1159 2969 
z
" transform="scale(0.015625)"/>
      <path id="DejaVuSans-29" d="M 513 4856 
L 1013 4856 
Q 1481 4119 1714 3412 
Q 1947 2706 1947 2009 
Q 1947 1309 1714 600 
Q 1481 -109 1013 -844 
L 513 -844 
Q 928 -128 1133 580 
Q 1338 1288 1338 2009 
Q 1338 2731 1133 3434 
Q 928 4138 513 4856 
z
" transform="scale(0.015625)"/>
      <path id="DejaVuSans-2c" d="M 750 794 
L 1409 794 
L 1409 256 
L 897 -744 
L 494 -744 
L 750 256 
L 750 794 
z
" transform="scale(0.015625)"/>
     </defs>
     <use xlink:href="#DejaVuSans-66"/>
     <use xlink:href="#DejaVuSans-69" x="35.205078"/>
     <use xlink:href="#DejaVuSans-6e" x="62.988281"/>
     <use xlink:href="#DejaVuSans-61" x="126.367188"/>
     <use xlink:href="#DejaVuSans-6c" x="187.646484"/>
     <use xlink:href="#DejaVuSans-20" x="215.429688"/>
     <use xlink:href="#DejaVuSans-63" x="247.216797"/>
     <use xlink:href="#DejaVuSans-6f" x="302.197266"/>
     <use xlink:href="#DejaVuSans-73" x="363.378906"/>
     <use xlink:href="#DejaVuSans-69" x="415.478516"/>
     <use xlink:href="#DejaVuSans-6e" x="443.261719"/>
     <use xlink:href="#DejaVuSans-65" x="506.640625"/>
     <use xlink:href="#DejaVuSans-20" x="568.164062"/>
     <use xlink:href="#DejaVuSans-73" x="599.951172"/>
     <use xlink:href="#DejaVuSans-69" x="652.050781"/>
     <use xlink:href="#DejaVuSans-6d" x="679.833984"/>
     <use xlink:href="#DejaVuSans-69" x="777.246094"/>
     <use xlink:href="#DejaVuSans-6c" x="805.029297"/>
     <use xlink:href="#DejaVuSans-61" x="832.8125"/>
     <use xlink:href="#DejaVuSans-72" x="894.091797"/>
     <use xlink:href="#DejaVuSans-69" x="935.205078"/>
     <use xlink:href="#DejaVuSans-74" x="962.988281"/>
     <use xlink:href="#DejaVuSans-79" x="1002.197266"/>
     <use xlink:href="#DejaVuSans-20" x="1061.376953"/>
     <use xlink:href="#DejaVuSans-6f" x="1093.164062"/>
     <use xlink:href="#DejaVuSans-66" x="1154.345703"/>
     <use xlink:href="#DejaVuSans-20" x="1189.550781"/>
     <use xlink:href="#DejaVuSans-67" x="1221.337891"/>
     <use xlink:href="#DejaVuSans-65" x="1284.814453"/>
     <use xlink:href="#DejaVuSans-6e" x="1346.337891"/>
     <use xlink:href="#DejaVuSans-65" x="1409.716797"/>
     <use xlink:href="#DejaVuSans-72" x="1471.240234"/>
     <use xlink:href="#DejaVuSans-61" x="1512.353516"/>
     <use xlink:href="#DejaVuSans-6c" x="1573.632812"/>
     <use xlink:href="#DejaVuSans-20" x="1601.416016"/>
     <use xlink:href="#DejaVuSans-42" x="1633.203125"/>
     <use xlink:href="#DejaVuSans-65" x="1701.806641"/>
     <use xlink:href="#DejaVuSans-74" x="1763.330078"/>
     <use xlink:href="#DejaVuSans-77" x="1802.539062"/>
     <use xlink:href="#DejaVuSans-65" x="1884.326172"/>
     <use xlink:href="#DejaVuSans-65" x="1945.849609"/>
     <use xlink:href="#DejaVuSans-6e" x="2007.373047"/>
     <use xlink:href="#DejaVuSans-20" x="2070.751953"/>
     <use xlink:href="#DejaVuSans-46" x="2102.539062"/>
     <use xlink:href="#DejaVuSans-69" x="2152.808594"/>
     <use xlink:href="#DejaVuSans-6e" x="2180.591797"/>
     <use xlink:href="#DejaVuSans-61" x="2243.970703"/>
     <use xlink:href="#DejaVuSans-6c" x="2305.25"/>
     <use xlink:href="#DejaVuSans-73" x="2333.033203"/>
     <use xlink:href="#DejaVuSans-20" x="2385.132812"/>
     <use xlink:href="#DejaVuSans-56" x="2416.919922"/>
     <use xlink:href="#DejaVuSans-61" x="2477.578125"/>
     <use xlink:href="#DejaVuSans-72" x="2538.857422"/>
     <use xlink:href="#DejaVuSans-69" x="2579.970703"/>
     <use xlink:href="#DejaVuSans-65" x="2607.753906"/>
     <use xlink:href="#DejaVuSans-74" x="2669.277344"/>
     <use xlink:href="#DejaVuSans-79" x="2708.486328"/>
     <use xlink:href="#DejaVuSans-20" x="2767.666016"/>
     <use xlink:href="#DejaVuSans-28" x="2799.453125"/>
     <use xlink:href="#DejaVuSans-62" x="2838.466797"/>
     <use xlink:href="#DejaVuSans-65" x="2901.943359"/>
     <use xlink:href="#DejaVuSans-74" x="2963.466797"/>
     <use xlink:href="#DejaVuSans-77" x="3002.675781"/>
     <use xlink:href="#DejaVuSans-65" x="3084.462891"/>
     <use xlink:href="#DejaVuSans-65" x="3145.986328"/>
     <use xlink:href="#DejaVuSans-6e" x="3207.509766"/>
     <use xlink:href="#DejaVuSans-46" x="3270.888672"/>
     <use xlink:href="#DejaVuSans-69" x="3321.158203"/>
     <use xlink:href="#DejaVuSans-6e" x="3348.941406"/>
     <use xlink:href="#DejaVuSans-61" x="3412.320312"/>
     <use xlink:href="#DejaVuSans-6c" x="3473.599609"/>
     <use xlink:href="#DejaVuSans-73" x="3501.382812"/>
     <use xlink:href="#DejaVuSans-56" x="3553.482422"/>
     <use xlink:href="#DejaVuSans-61" x="3614.140625"/>
     <use xlink:href="#DejaVuSans-72" x="3675.419922"/>
     <use xlink:href="#DejaVuSans-69" x="3716.533203"/>
     <use xlink:href="#DejaVuSans-65" x="3744.316406"/>
     <use xlink:href="#DejaVuSans-74" x="3805.839844"/>
     <use xlink:href="#DejaVuSans-79" x="3845.048828"/>
     <use xlink:href="#DejaVuSans-29" x="3904.228516"/>
     <use xlink:href="#DejaVuSans-2c" x="3943.242188"/>
     <use xlink:href="#DejaVuSans-20" x="3975.029297"/>
     <use xlink:href="#DejaVuSans-62" x="4006.816406"/>
     <use xlink:href="#DejaVuSans-79" x="4070.292969"/>
     <use xlink:href="#DejaVuSans-20" x="4129.472656"/>
     <use xlink:href="#DejaVuSans-66" x="4161.259766"/>
     <use xlink:href="#DejaVuSans-69" x="4196.464844"/>
     <use xlink:href="#DejaVuSans-6c" x="4224.248047"/>
     <use xlink:href="#DejaVuSans-65" x="4252.03125"/>
     <use xlink:href="#DejaVuSans-20" x="4313.554688"/>
     <use xlink:href="#DejaVuSans-6e" x="4345.341797"/>
     <use xlink:href="#DejaVuSans-61" x="4408.720703"/>
     <use xlink:href="#DejaVuSans-6d" x="4470"/>
     <use xlink:href="#DejaVuSans-65" x="4567.412109"/>
    </g>
   </g>
  </g>
 </g>
 <defs>
  <clipPath id="p5e1889fe89">
   <rect x="180" y="86.4" width="1116" height="554.4"/>
  </clipPath>
 </defs>
</svg>
