<?xml version="1.0" encoding="utf-8" standalone="no"?>
<!DOCTYPE svg PUBLIC "-//W3C//DTD SVG 1.1//EN"
  "http://www.w3.org/Graphics/SVG/1.1/DTD/svg11.dtd">
<svg xmlns:xlink="http://www.w3.org/1999/xlink" width="1440pt" height="720pt" viewBox="0 0 1440 720" xmlns="http://www.w3.org/2000/svg" version="1.1">
 <metadata>
  <rdf:RDF xmlns:dc="http://purl.org/dc/elements/1.1/" xmlns:cc="http://creativecommons.org/ns#" xmlns:rdf="http://www.w3.org/1999/02/22-rdf-syntax-ns#">
   <cc:Work>
    <dc:type rdf:resource="http://purl.org/dc/dcmitype/StillImage"/>
    <dc:date>2024-07-24T19:28:38.837306</dc:date>
    <dc:format>image/svg+xml</dc:format>
    <dc:creator>
     <cc:Agent>
      <dc:title>Matplotlib v3.8.0, https://matplotlib.org/</dc:title>
     </cc:Agent>
    </dc:creator>
   </cc:Work>
  </rdf:RDF>
 </metadata>
 <defs>
  <style type="text/css">*{stroke-linejoin: round; stroke-linecap: butt}</style>
 </defs>
 <g id="figure_1">
  <g id="patch_1">
   <path d="M 0 720 
L 1440 720 
L 1440 0 
L 0 0 
z
" style="fill: #ffffff"/>
  </g>
  <g id="axes_1">
   <g id="patch_2">
    <path d="M 180 640.8 
L 1296 640.8 
L 1296 86.4 
L 180 86.4 
z
" style="fill: #ffffff"/>
   </g>
   <g id="PolyCollection_1">
    <defs>
     <path id="m8600b964c9" d="M 235.803155 -104.4 
L 235.796845 -104.4 
L 235.792358 -108.981566 
L 235.785545 -113.563132 
L 235.778395 -118.144698 
L 235.773688 -122.726265 
L 235.771977 -127.307831 
L 235.770524 -131.889397 
L 235.765455 -136.470963 
L 235.752327 -141.052529 
L 235.721682 -145.634095 
L 235.653705 -150.215661 
L 235.518004 -154.797227 
L 235.279587 -159.378794 
L 234.907004 -163.96036 
L 234.374311 -168.541926 
L 233.650113 -173.123492 
L 232.683495 -177.705058 
L 231.416109 -182.286624 
L 229.829629 -186.86819 
L 227.973324 -191.449756 
L 225.914565 -196.031323 
L 223.671901 -200.612889 
L 221.244129 -205.194455 
L 218.702813 -209.776021 
L 216.192887 -214.357587 
L 213.813646 -218.939153 
L 211.538678 -223.520719 
L 209.278745 -228.102286 
L 206.987633 -232.683852 
L 204.674135 -237.265418 
L 202.349412 -241.846984 
L 200.033109 -246.42855 
L 197.814844 -251.010116 
L 195.842227 -255.591682 
L 194.220051 -260.173248 
L 192.960916 -264.754815 
L 192.039215 -269.336381 
L 191.442802 -273.917947 
L 191.16 -278.499513 
L 191.161146 -283.081079 
L 191.428826 -287.662645 
L 191.992596 -292.244211 
L 192.883955 -296.825778 
L 194.036067 -301.407344 
L 195.280475 -305.98891 
L 196.502073 -310.570476 
L 197.773894 -315.152042 
L 199.26494 -319.733608 
L 200.990214 -324.315174 
L 202.702447 -328.89674 
L 204.091446 -333.478307 
L 205.077929 -338.059873 
L 205.850948 -342.641439 
L 206.644506 -347.223005 
L 207.574925 -351.804571 
L 208.680444 -356.386137 
L 209.998333 -360.967703 
L 211.557607 -365.549269 
L 213.341352 -370.130836 
L 215.264596 -374.712402 
L 217.159891 -379.293968 
L 218.826091 -383.875534 
L 220.172369 -388.4571 
L 221.30529 -393.038666 
L 222.414942 -397.620232 
L 223.595025 -402.201799 
L 224.818359 -406.783365 
L 226.035358 -411.364931 
L 227.217419 -415.946497 
L 228.32288 -420.528063 
L 229.289496 -425.109629 
L 230.080879 -429.691195 
L 230.720988 -434.272761 
L 231.27052 -438.854328 
L 231.773996 -443.435894 
L 232.238404 -448.01746 
L 232.65553 -452.599026 
L 233.025271 -457.180592 
L 233.356907 -461.762158 
L 233.664994 -466.343724 
L 233.966458 -470.92529 
L 234.270108 -475.506857 
L 234.566347 -480.088423 
L 234.831189 -484.669989 
L 235.041274 -489.251555 
L 235.18841 -493.833121 
L 235.285513 -498.414687 
L 235.358481 -502.996253 
L 235.428886 -507.57782 
L 235.503671 -512.159386 
L 235.578744 -516.740952 
L 235.646145 -521.322518 
L 235.697365 -525.904084 
L 235.727424 -530.48565 
L 235.740321 -535.067216 
L 235.747476 -539.648782 
L 235.758086 -544.230349 
L 235.772535 -548.811915 
L 235.785772 -553.393481 
L 235.794246 -557.975047 
L 235.805754 -557.975047 
L 235.805754 -557.975047 
L 235.814228 -553.393481 
L 235.827465 -548.811915 
L 235.841914 -544.230349 
L 235.852524 -539.648782 
L 235.859679 -535.067216 
L 235.872576 -530.48565 
L 235.902635 -525.904084 
L 235.953855 -521.322518 
L 236.021256 -516.740952 
L 236.096329 -512.159386 
L 236.171114 -507.57782 
L 236.241519 -502.996253 
L 236.314487 -498.414687 
L 236.41159 -493.833121 
L 236.558726 -489.251555 
L 236.768811 -484.669989 
L 237.033653 -480.088423 
L 237.329892 -475.506857 
L 237.633542 -470.92529 
L 237.935006 -466.343724 
L 238.243093 -461.762158 
L 238.574729 -457.180592 
L 238.94447 -452.599026 
L 239.361596 -448.01746 
L 239.826004 -443.435894 
L 240.32948 -438.854328 
L 240.879012 -434.272761 
L 241.519121 -429.691195 
L 242.310504 -425.109629 
L 243.27712 -420.528063 
L 244.382581 -415.946497 
L 245.564642 -411.364931 
L 246.781641 -406.783365 
L 248.004975 -402.201799 
L 249.185058 -397.620232 
L 250.29471 -393.038666 
L 251.427631 -388.4571 
L 252.773909 -383.875534 
L 254.440109 -379.293968 
L 256.335404 -374.712402 
L 258.258648 -370.130836 
L 260.042393 -365.549269 
L 261.601667 -360.967703 
L 262.919556 -356.386137 
L 264.025075 -351.804571 
L 264.955494 -347.223005 
L 265.749052 -342.641439 
L 266.522071 -338.059873 
L 267.508554 -333.478307 
L 268.897553 -328.89674 
L 270.609786 -324.315174 
L 272.33506 -319.733608 
L 273.826106 -315.152042 
L 275.097927 -310.570476 
L 276.319525 -305.98891 
L 277.563933 -301.407344 
L 278.716045 -296.825778 
L 279.607404 -292.244211 
L 280.171174 -287.662645 
L 280.438854 -283.081079 
L 280.44 -278.499513 
L 280.157198 -273.917947 
L 279.560785 -269.336381 
L 278.639084 -264.754815 
L 277.379949 -260.173248 
L 275.757773 -255.591682 
L 273.785156 -251.010116 
L 271.566891 -246.42855 
L 269.250588 -241.846984 
L 266.925865 -237.265418 
L 264.612367 -232.683852 
L 262.321255 -228.102286 
L 260.061322 -223.520719 
L 257.786354 -218.939153 
L 255.407113 -214.357587 
L 252.897187 -209.776021 
L 250.355871 -205.194455 
L 247.928099 -200.612889 
L 245.685435 -196.031323 
L 243.626676 -191.449756 
L 241.770371 -186.86819 
L 240.183891 -182.286624 
L 238.916505 -177.705058 
L 237.949887 -173.123492 
L 237.225689 -168.541926 
L 236.692996 -163.96036 
L 236.320413 -159.378794 
L 236.081996 -154.797227 
L 235.946295 -150.215661 
L 235.878318 -145.634095 
L 235.847673 -141.052529 
L 235.834545 -136.470963 
L 235.829476 -131.889397 
L 235.828023 -127.307831 
L 235.826312 -122.726265 
L 235.821605 -118.144698 
L 235.814455 -113.563132 
L 235.807642 -108.981566 
L 235.803155 -104.4 
z
" style="stroke: #3f3f3f; stroke-width: 1.25"/>
    </defs>
    <g clip-path="url(#p0d883592cc)">
     <use xlink:href="#m8600b964c9" x="0" y="720" style="fill: #3274a1; stroke: #3f3f3f; stroke-width: 1.25"/>
    </g>
   </g>
   <g id="PolyCollection_2">
    <defs>
     <path id="m9c8d2343e9" d="M 347.418707 -138.612156 
L 347.381293 -138.612156 
L 347.345693 -143.243285 
L 347.268943 -147.874414 
L 347.132553 -152.505542 
L 346.927384 -157.136671 
L 346.653559 -161.7678 
L 346.305984 -166.398929 
L 345.856928 -171.030058 
L 345.253657 -175.661187 
L 344.435958 -180.292316 
L 343.362322 -184.923444 
L 342.029026 -189.554573 
L 340.470884 -194.185702 
L 338.743113 -198.816831 
L 336.896301 -203.44796 
L 334.959075 -208.079089 
L 332.936544 -212.710218 
L 330.822899 -217.341347 
L 328.614352 -221.972475 
L 326.315831 -226.603604 
L 323.955674 -231.234733 
L 321.602458 -235.865862 
L 319.349377 -240.496991 
L 317.272297 -245.12812 
L 315.403972 -249.759249 
L 313.726582 -254.390377 
L 312.174038 -259.021506 
L 310.676684 -263.652635 
L 309.239136 -268.283764 
L 307.95969 -272.914893 
L 306.955487 -277.546022 
L 306.288263 -282.177151 
L 305.972169 -286.80828 
L 306.011011 -291.439408 
L 306.380982 -296.070537 
L 306.988351 -300.701666 
L 307.695021 -305.332795 
L 308.411642 -309.963924 
L 309.153152 -314.595053 
L 309.992558 -319.226182 
L 310.963465 -323.85731 
L 312.002113 -328.488439 
L 312.974631 -333.119568 
L 313.766912 -337.750697 
L 314.369426 -342.381826 
L 314.897901 -347.012955 
L 315.537072 -351.644084 
L 316.442056 -356.275213 
L 317.664454 -360.906341 
L 319.156078 -365.53747 
L 320.828127 -370.168599 
L 322.590967 -374.799728 
L 324.34959 -379.430857 
L 326.006441 -384.061986 
L 327.503127 -388.693115 
L 328.856242 -393.324243 
L 330.139662 -397.955372 
L 331.432542 -402.586501 
L 332.779616 -407.21763 
L 334.175607 -411.848759 
L 335.565804 -416.479888 
L 336.869398 -421.111017 
L 338.023301 -425.742146 
L 339.015621 -430.373274 
L 339.882809 -435.004403 
L 340.677164 -439.635532 
L 341.435231 -444.266661 
L 342.171152 -448.89779 
L 342.884421 -453.528919 
L 343.558623 -458.160048 
L 344.159543 -462.791176 
L 344.653043 -467.422305 
L 345.029852 -472.053434 
L 345.312307 -476.684563 
L 345.542386 -481.315692 
L 345.761503 -485.946821 
L 345.990215 -490.57795 
L 346.220869 -495.209079 
L 346.430334 -499.840207 
L 346.60038 -504.471336 
L 346.728914 -509.102465 
L 346.828475 -513.733594 
L 346.916694 -518.364723 
L 347.004387 -522.995852 
L 347.089434 -527.626981 
L 347.161974 -532.258109 
L 347.215431 -536.889238 
L 347.251946 -541.520367 
L 347.278266 -546.151496 
L 347.298995 -550.782625 
L 347.314969 -555.413754 
L 347.326396 -560.044883 
L 347.335042 -564.676012 
L 347.343246 -569.30714 
L 347.352443 -573.938269 
L 347.362974 -578.569398 
L 347.374193 -583.200527 
L 347.384507 -587.831656 
L 347.392242 -592.462785 
L 347.396832 -597.093914 
L 347.403168 -597.093914 
L 347.403168 -597.093914 
L 347.407758 -592.462785 
L 347.415493 -587.831656 
L 347.425807 -583.200527 
L 347.437026 -578.569398 
L 347.447557 -573.938269 
L 347.456754 -569.30714 
L 347.464958 -564.676012 
L 347.473604 -560.044883 
L 347.485031 -555.413754 
L 347.501005 -550.782625 
L 347.521734 -546.151496 
L 347.548054 -541.520367 
L 347.584569 -536.889238 
L 347.638026 -532.258109 
L 347.710566 -527.626981 
L 347.795613 -522.995852 
L 347.883306 -518.364723 
L 347.971525 -513.733594 
L 348.071086 -509.102465 
L 348.19962 -504.471336 
L 348.369666 -499.840207 
L 348.579131 -495.209079 
L 348.809785 -490.57795 
L 349.038497 -485.946821 
L 349.257614 -481.315692 
L 349.487693 -476.684563 
L 349.770148 -472.053434 
L 350.146957 -467.422305 
L 350.640457 -462.791176 
L 351.241377 -458.160048 
L 351.915579 -453.528919 
L 352.628848 -448.89779 
L 353.364769 -444.266661 
L 354.122836 -439.635532 
L 354.917191 -435.004403 
L 355.784379 -430.373274 
L 356.776699 -425.742146 
L 357.930602 -421.111017 
L 359.234196 -416.479888 
L 360.624393 -411.848759 
L 362.020384 -407.21763 
L 363.367458 -402.586501 
L 364.660338 -397.955372 
L 365.943758 -393.324243 
L 367.296873 -388.693115 
L 368.793559 -384.061986 
L 370.45041 -379.430857 
L 372.209033 -374.799728 
L 373.971873 -370.168599 
L 375.643922 -365.53747 
L 377.135546 -360.906341 
L 378.357944 -356.275213 
L 379.262928 -351.644084 
L 379.902099 -347.012955 
L 380.430574 -342.381826 
L 381.033088 -337.750697 
L 381.825369 -333.119568 
L 382.797887 -328.488439 
L 383.836535 -323.85731 
L 384.807442 -319.226182 
L 385.646848 -314.595053 
L 386.388358 -309.963924 
L 387.104979 -305.332795 
L 387.811649 -300.701666 
L 388.419018 -296.070537 
L 388.788989 -291.439408 
L 388.827831 -286.80828 
L 388.511737 -282.177151 
L 387.844513 -277.546022 
L 386.84031 -272.914893 
L 385.560864 -268.283764 
L 384.123316 -263.652635 
L 382.625962 -259.021506 
L 381.073418 -254.390377 
L 379.396028 -249.759249 
L 377.527703 -245.12812 
L 375.450623 -240.496991 
L 373.197542 -235.865862 
L 370.844326 -231.234733 
L 368.484169 -226.603604 
L 366.185648 -221.972475 
L 363.977101 -217.341347 
L 361.863456 -212.710218 
L 359.840925 -208.079089 
L 357.903699 -203.44796 
L 356.056887 -198.816831 
L 354.329116 -194.185702 
L 352.770974 -189.554573 
L 351.437678 -184.923444 
L 350.364042 -180.292316 
L 349.546343 -175.661187 
L 348.943072 -171.030058 
L 348.494016 -166.398929 
L 348.146441 -161.7678 
L 347.872616 -157.136671 
L 347.667447 -152.505542 
L 347.531057 -147.874414 
L 347.454307 -143.243285 
L 347.418707 -138.612156 
z
" style="stroke: #3f3f3f; stroke-width: 1.25"/>
    </defs>
    <g clip-path="url(#p0d883592cc)">
     <use xlink:href="#m9c8d2343e9" x="0" y="720" style="fill: #3274a1; stroke: #3f3f3f; stroke-width: 1.25"/>
    </g>
   </g>
   <g id="PolyCollection_3">
    <defs>
     <path id="m2bfc49c310" d="M 459.004989 -132.761539 
L 458.995011 -132.761539 
L 458.985347 -137.192811 
L 458.961642 -141.624084 
L 458.910077 -146.055356 
L 458.811321 -150.486628 
L 458.64547 -154.917901 
L 458.399196 -159.349173 
L 458.06744 -163.780445 
L 457.645442 -168.211718 
L 457.118146 -172.64299 
L 456.458421 -177.074262 
L 455.637712 -181.505535 
L 454.642497 -185.936807 
L 453.483277 -190.368079 
L 452.184148 -194.799352 
L 450.759854 -199.230624 
L 449.209359 -203.661896 
L 447.540475 -208.093169 
L 445.794504 -212.524441 
L 444.030065 -216.955713 
L 442.273842 -221.386986 
L 440.488671 -225.818258 
L 438.597399 -230.24953 
L 436.550434 -234.680803 
L 434.37788 -239.112075 
L 432.175039 -243.543347 
L 430.041046 -247.97462 
L 428.039211 -252.405892 
L 426.209279 -256.837165 
L 424.595745 -261.268437 
L 423.244997 -265.699709 
L 422.166524 -270.130982 
L 421.302781 -274.562254 
L 420.560269 -278.993526 
L 419.895623 -283.424799 
L 419.376224 -287.856071 
L 419.14306 -292.287343 
L 419.299021 -296.718616 
L 419.820558 -301.149888 
L 420.566229 -305.58116 
L 421.36433 -310.012433 
L 422.099713 -314.443705 
L 422.743979 -318.874977 
L 423.334245 -323.30625 
L 423.926269 -327.737522 
L 424.539936 -332.168794 
L 425.128344 -336.600067 
L 425.610286 -341.031339 
L 425.954838 -345.462611 
L 426.237146 -349.893884 
L 426.602946 -354.325156 
L 427.183558 -358.756428 
L 428.050568 -363.187701 
L 429.224237 -367.618973 
L 430.678607 -372.050245 
L 432.326393 -376.481518 
L 434.027645 -380.91279 
L 435.638959 -385.344062 
L 437.067127 -389.775335 
L 438.300299 -394.206607 
L 439.415743 -398.637879 
L 440.553145 -403.069152 
L 441.84352 -407.500424 
L 443.328932 -411.931696 
L 444.93504 -416.362969 
L 446.516094 -420.794241 
L 447.932481 -425.225513 
L 449.113451 -429.656786 
L 450.081505 -434.088058 
L 450.926988 -438.51933 
L 451.743707 -442.950603 
L 452.57365 -447.381875 
L 453.401374 -451.813147 
L 454.184088 -456.24442 
L 454.879903 -460.675692 
L 455.462191 -465.106964 
L 455.926215 -469.538237 
L 456.289043 -473.969509 
L 456.582644 -478.400781 
L 456.843709 -482.832054 
L 457.101741 -487.263326 
L 457.368524 -491.694598 
L 457.63651 -496.125871 
L 457.887587 -500.557143 
L 458.103991 -504.988415 
L 458.27516 -509.419688 
L 458.401446 -513.85096 
L 458.494957 -518.282232 
L 458.574364 -522.713505 
L 458.654326 -527.144777 
L 458.737144 -531.576049 
L 458.814034 -536.007322 
L 458.874599 -540.438594 
L 458.91548 -544.869866 
L 458.941223 -549.301139 
L 458.958882 -553.732411 
L 458.972886 -558.163683 
L 458.98412 -562.594956 
L 458.992044 -567.026228 
L 458.996661 -571.4575 
L 459.003339 -571.4575 
L 459.003339 -571.4575 
L 459.007956 -567.026228 
L 459.01588 -562.594956 
L 459.027114 -558.163683 
L 459.041118 -553.732411 
L 459.058777 -549.301139 
L 459.08452 -544.869866 
L 459.125401 -540.438594 
L 459.185966 -536.007322 
L 459.262856 -531.576049 
L 459.345674 -527.144777 
L 459.425636 -522.713505 
L 459.505043 -518.282232 
L 459.598554 -513.85096 
L 459.72484 -509.419688 
L 459.896009 -504.988415 
L 460.112413 -500.557143 
L 460.36349 -496.125871 
L 460.631476 -491.694598 
L 460.898259 -487.263326 
L 461.156291 -482.832054 
L 461.417356 -478.400781 
L 461.710957 -473.969509 
L 462.073785 -469.538237 
L 462.537809 -465.106964 
L 463.120097 -460.675692 
L 463.815912 -456.24442 
L 464.598626 -451.813147 
L 465.42635 -447.381875 
L 466.256293 -442.950603 
L 467.073012 -438.51933 
L 467.918495 -434.088058 
L 468.886549 -429.656786 
L 470.067519 -425.225513 
L 471.483906 -420.794241 
L 473.06496 -416.362969 
L 474.671068 -411.931696 
L 476.15648 -407.500424 
L 477.446855 -403.069152 
L 478.584257 -398.637879 
L 479.699701 -394.206607 
L 480.932873 -389.775335 
L 482.361041 -385.344062 
L 483.972355 -380.91279 
L 485.673607 -376.481518 
L 487.321393 -372.050245 
L 488.775763 -367.618973 
L 489.949432 -363.187701 
L 490.816442 -358.756428 
L 491.397054 -354.325156 
L 491.762854 -349.893884 
L 492.045162 -345.462611 
L 492.389714 -341.031339 
L 492.871656 -336.600067 
L 493.460064 -332.168794 
L 494.073731 -327.737522 
L 494.665755 -323.30625 
L 495.256021 -318.874977 
L 495.900287 -314.443705 
L 496.63567 -310.012433 
L 497.433771 -305.58116 
L 498.179442 -301.149888 
L 498.700979 -296.718616 
L 498.85694 -292.287343 
L 498.623776 -287.856071 
L 498.104377 -283.424799 
L 497.439731 -278.993526 
L 496.697219 -274.562254 
L 495.833476 -270.130982 
L 494.755003 -265.699709 
L 493.404255 -261.268437 
L 491.790721 -256.837165 
L 489.960789 -252.405892 
L 487.958954 -247.97462 
L 485.824961 -243.543347 
L 483.62212 -239.112075 
L 481.449566 -234.680803 
L 479.402601 -230.24953 
L 477.511329 -225.818258 
L 475.726158 -221.386986 
L 473.969935 -216.955713 
L 472.205496 -212.524441 
L 470.459525 -208.093169 
L 468.790641 -203.661896 
L 467.240146 -199.230624 
L 465.815852 -194.799352 
L 464.516723 -190.368079 
L 463.357503 -185.936807 
L 462.362288 -181.505535 
L 461.541579 -177.074262 
L 460.881854 -172.64299 
L 460.354558 -168.211718 
L 459.93256 -163.780445 
L 459.600804 -159.349173 
L 459.35453 -154.917901 
L 459.188679 -150.486628 
L 459.089923 -146.055356 
L 459.038358 -141.624084 
L 459.014653 -137.192811 
L 459.004989 -132.761539 
z
" style="stroke: #3f3f3f; stroke-width: 1.25"/>
    </defs>
    <g clip-path="url(#p0d883592cc)">
     <use xlink:href="#m2bfc49c310" x="0" y="720" style="fill: #3274a1; stroke: #3f3f3f; stroke-width: 1.25"/>
    </g>
   </g>
   <g id="PolyCollection_4">
    <defs>
     <path id="m9ee311154a" d="M 570.605375 -127.148788 
L 570.594625 -127.148788 
L 570.584175 -131.90678 
L 570.559319 -136.664771 
L 570.507136 -141.422763 
L 570.410125 -146.180755 
L 570.25166 -150.938747 
L 570.025248 -155.696738 
L 569.737149 -160.45473 
L 569.392511 -165.212722 
L 568.975509 -169.970713 
L 568.44772 -174.728705 
L 567.769394 -179.486697 
L 566.922107 -184.244688 
L 565.914846 -189.00268 
L 564.773352 -193.760672 
L 563.520842 -198.518663 
L 562.16391 -203.276655 
L 560.69461 -208.034647 
L 559.101925 -212.792638 
L 557.383055 -217.55063 
L 555.554865 -222.308622 
L 553.653694 -227.066614 
L 551.712065 -231.824605 
L 549.738405 -236.582597 
L 547.729805 -241.340589 
L 545.700693 -246.09858 
L 543.690471 -250.856572 
L 541.745264 -255.614564 
L 539.903603 -260.372555 
L 538.207456 -265.130547 
L 536.716891 -269.888539 
L 535.493856 -274.64653 
L 534.563782 -279.404522 
L 533.898992 -284.162514 
L 533.444288 -288.920505 
L 533.160747 -293.678497 
L 533.055492 -298.436489 
L 533.177733 -303.194481 
L 533.564579 -307.952472 
L 534.156854 -312.710464 
L 534.77883 -317.468456 
L 535.251569 -322.226447 
L 535.539952 -326.984439 
L 535.751192 -331.742431 
L 535.98943 -336.500422 
L 536.271558 -341.258414 
L 536.592173 -346.016406 
L 536.979325 -350.774397 
L 537.432099 -355.532389 
L 537.885368 -360.290381 
L 538.33191 -365.048372 
L 538.935919 -369.806364 
L 539.919723 -374.564356 
L 541.340912 -379.322348 
L 543.054464 -384.080339 
L 544.880456 -388.838331 
L 546.735915 -393.596323 
L 548.613198 -398.354314 
L 550.50767 -403.112306 
L 552.390026 -407.870298 
L 554.211606 -412.628289 
L 555.915883 -417.386281 
L 557.45253 -422.144273 
L 558.788379 -426.902264 
L 559.917578 -431.660256 
L 560.874506 -436.418248 
L 561.727121 -441.176239 
L 562.537439 -445.934231 
L 563.324544 -450.692223 
L 564.070895 -455.450215 
L 564.761029 -460.208206 
L 565.405906 -464.966198 
L 566.027927 -469.72419 
L 566.631374 -474.482181 
L 567.199408 -479.240173 
L 567.718029 -483.998165 
L 568.186215 -488.756156 
L 568.597454 -493.514148 
L 568.930163 -498.27214 
L 569.17016 -503.030131 
L 569.332859 -507.788123 
L 569.455451 -512.546115 
L 569.575598 -517.304107 
L 569.718707 -522.062098 
L 569.891116 -526.82009 
L 570.076938 -531.578082 
L 570.246969 -536.336073 
L 570.377339 -541.094065 
L 570.462367 -545.852057 
L 570.512483 -550.610048 
L 570.542517 -555.36804 
L 570.561807 -560.126032 
L 570.573009 -564.884023 
L 570.577108 -569.642015 
L 570.577308 -574.400007 
L 570.578082 -579.157998 
L 570.58187 -583.91599 
L 570.587777 -588.673982 
L 570.593386 -593.431974 
L 570.59714 -598.189965 
L 570.60286 -598.189965 
L 570.60286 -598.189965 
L 570.606614 -593.431974 
L 570.612223 -588.673982 
L 570.61813 -583.91599 
L 570.621918 -579.157998 
L 570.622692 -574.400007 
L 570.622892 -569.642015 
L 570.626991 -564.884023 
L 570.638193 -560.126032 
L 570.657483 -555.36804 
L 570.687517 -550.610048 
L 570.737633 -545.852057 
L 570.822661 -541.094065 
L 570.953031 -536.336073 
L 571.123062 -531.578082 
L 571.308884 -526.82009 
L 571.481293 -522.062098 
L 571.624402 -517.304107 
L 571.744549 -512.546115 
L 571.867141 -507.788123 
L 572.02984 -503.030131 
L 572.269837 -498.27214 
L 572.602546 -493.514148 
L 573.013785 -488.756156 
L 573.481971 -483.998165 
L 574.000592 -479.240173 
L 574.568626 -474.482181 
L 575.172073 -469.72419 
L 575.794094 -464.966198 
L 576.438971 -460.208206 
L 577.129105 -455.450215 
L 577.875456 -450.692223 
L 578.662561 -445.934231 
L 579.472879 -441.176239 
L 580.325494 -436.418248 
L 581.282422 -431.660256 
L 582.411621 -426.902264 
L 583.74747 -422.144273 
L 585.284117 -417.386281 
L 586.988394 -412.628289 
L 588.809974 -407.870298 
L 590.69233 -403.112306 
L 592.586802 -398.354314 
L 594.464085 -393.596323 
L 596.319544 -388.838331 
L 598.145536 -384.080339 
L 599.859088 -379.322348 
L 601.280277 -374.564356 
L 602.264081 -369.806364 
L 602.86809 -365.048372 
L 603.314632 -360.290381 
L 603.767901 -355.532389 
L 604.220675 -350.774397 
L 604.607827 -346.016406 
L 604.928442 -341.258414 
L 605.21057 -336.500422 
L 605.448808 -331.742431 
L 605.660048 -326.984439 
L 605.948431 -322.226447 
L 606.42117 -317.468456 
L 607.043146 -312.710464 
L 607.635421 -307.952472 
L 608.022267 -303.194481 
L 608.144508 -298.436489 
L 608.039253 -293.678497 
L 607.755712 -288.920505 
L 607.301008 -284.162514 
L 606.636218 -279.404522 
L 605.706144 -274.64653 
L 604.483109 -269.888539 
L 602.992544 -265.130547 
L 601.296397 -260.372555 
L 599.454736 -255.614564 
L 597.509529 -250.856572 
L 595.499307 -246.09858 
L 593.470195 -241.340589 
L 591.461595 -236.582597 
L 589.487935 -231.824605 
L 587.546306 -227.066614 
L 585.645135 -222.308622 
L 583.816945 -217.55063 
L 582.098075 -212.792638 
L 580.50539 -208.034647 
L 579.03609 -203.276655 
L 577.679158 -198.518663 
L 576.426648 -193.760672 
L 575.285154 -189.00268 
L 574.277893 -184.244688 
L 573.430606 -179.486697 
L 572.75228 -174.728705 
L 572.224491 -169.970713 
L 571.807489 -165.212722 
L 571.462851 -160.45473 
L 571.174752 -155.696738 
L 570.94834 -150.938747 
L 570.789875 -146.180755 
L 570.692864 -141.422763 
L 570.640681 -136.664771 
L 570.615825 -131.90678 
L 570.605375 -127.148788 
z
" style="stroke: #3f3f3f; stroke-width: 1.25"/>
    </defs>
    <g clip-path="url(#p0d883592cc)">
     <use xlink:href="#m9ee311154a" x="0" y="720" style="fill: #3274a1; stroke: #3f3f3f; stroke-width: 1.25"/>
    </g>
   </g>
   <g id="PolyCollection_5">
    <defs>
     <path id="m1c21492576" d="M 682.20825 -124.038741 
L 682.19175 -124.038741 
L 682.177907 -128.827288 
L 682.149815 -133.615834 
L 682.100017 -138.40438 
L 682.018765 -143.192927 
L 681.892911 -147.981473 
L 681.709019 -152.770019 
L 681.459362 -157.558565 
L 681.140217 -162.347112 
L 680.7399 -167.135658 
L 680.233159 -171.924204 
L 679.593928 -176.712751 
L 678.81161 -181.501297 
L 677.891376 -186.289843 
L 676.843893 -191.078389 
L 675.682253 -195.866936 
L 674.428691 -200.655482 
L 673.116878 -205.444028 
L 671.773027 -210.232575 
L 670.377404 -215.021121 
L 668.84696 -219.809667 
L 667.085478 -224.598214 
L 665.073428 -229.38676 
L 662.899846 -234.175306 
L 660.690323 -238.963852 
L 658.509817 -243.752399 
L 656.347837 -248.540945 
L 654.184417 -253.329491 
L 652.048704 -258.118038 
L 650.025877 -262.906584 
L 648.234221 -267.69513 
L 646.788569 -272.483676 
L 645.752496 -277.272223 
L 645.104597 -282.060769 
L 644.751997 -286.849315 
L 644.584874 -291.637862 
L 644.526529 -296.426408 
L 644.546474 -301.214954 
L 644.644794 -306.0035 
L 644.827292 -310.792047 
L 645.078881 -315.580593 
L 645.350044 -320.369139 
L 645.581109 -325.157686 
L 645.754747 -329.946232 
L 645.926869 -334.734778 
L 646.20998 -339.523325 
L 646.725373 -344.311871 
L 647.534762 -349.100417 
L 648.571409 -353.888963 
L 649.651225 -358.67751 
L 650.619641 -363.466056 
L 651.515507 -368.254602 
L 652.542928 -373.043149 
L 653.856607 -377.831695 
L 655.42556 -382.620241 
L 657.124953 -387.408787 
L 658.88422 -392.197334 
L 660.694845 -396.98588 
L 662.529546 -401.774426 
L 664.321207 -406.562973 
L 666.014058 -411.351519 
L 667.596446 -416.140065 
L 669.072276 -420.928611 
L 670.417792 -425.717158 
L 671.587557 -430.505704 
L 672.566431 -435.29425 
L 673.40006 -440.082797 
L 674.162702 -444.871343 
L 674.900088 -449.659889 
L 675.610591 -454.448435 
L 676.276784 -459.236982 
L 676.900682 -464.025528 
L 677.500068 -468.814074 
L 678.081871 -473.602621 
L 678.637505 -478.391167 
L 679.161868 -483.179713 
L 679.655374 -487.96826 
L 680.101391 -492.756806 
L 680.463834 -497.545352 
L 680.723444 -502.333898 
L 680.904986 -507.122445 
L 681.056347 -511.910991 
L 681.209814 -516.699537 
L 681.371403 -521.488084 
L 681.534725 -526.27663 
L 681.690934 -531.065176 
L 681.829341 -535.853722 
L 681.939898 -540.642269 
L 682.019206 -545.430815 
L 682.072393 -550.219361 
L 682.107916 -555.007908 
L 682.131358 -559.796454 
L 682.145053 -564.585 
L 682.151937 -569.373546 
L 682.15693 -574.162093 
L 682.164118 -578.950639 
L 682.174027 -583.739185 
L 682.184235 -588.527732 
L 682.192123 -593.316278 
L 682.196796 -598.104824 
L 682.203204 -598.104824 
L 682.203204 -598.104824 
L 682.207877 -593.316278 
L 682.215765 -588.527732 
L 682.225973 -583.739185 
L 682.235882 -578.950639 
L 682.24307 -574.162093 
L 682.248063 -569.373546 
L 682.254947 -564.585 
L 682.268642 -559.796454 
L 682.292084 -555.007908 
L 682.327607 -550.219361 
L 682.380794 -545.430815 
L 682.460102 -540.642269 
L 682.570659 -535.853722 
L 682.709066 -531.065176 
L 682.865275 -526.27663 
L 683.028597 -521.488084 
L 683.190186 -516.699537 
L 683.343653 -511.910991 
L 683.495014 -507.122445 
L 683.676556 -502.333898 
L 683.936166 -497.545352 
L 684.298609 -492.756806 
L 684.744626 -487.96826 
L 685.238132 -483.179713 
L 685.762495 -478.391167 
L 686.318129 -473.602621 
L 686.899932 -468.814074 
L 687.499318 -464.025528 
L 688.123216 -459.236982 
L 688.789409 -454.448435 
L 689.499912 -449.659889 
L 690.237298 -444.871343 
L 690.99994 -440.082797 
L 691.833569 -435.29425 
L 692.812443 -430.505704 
L 693.982208 -425.717158 
L 695.327724 -420.928611 
L 696.803554 -416.140065 
L 698.385942 -411.351519 
L 700.078793 -406.562973 
L 701.870454 -401.774426 
L 703.705155 -396.98588 
L 705.51578 -392.197334 
L 707.275047 -387.408787 
L 708.97444 -382.620241 
L 710.543393 -377.831695 
L 711.857072 -373.043149 
L 712.884493 -368.254602 
L 713.780359 -363.466056 
L 714.748775 -358.67751 
L 715.828591 -353.888963 
L 716.865238 -349.100417 
L 717.674627 -344.311871 
L 718.19002 -339.523325 
L 718.473131 -334.734778 
L 718.645253 -329.946232 
L 718.818891 -325.157686 
L 719.049956 -320.369139 
L 719.321119 -315.580593 
L 719.572708 -310.792047 
L 719.755206 -306.0035 
L 719.853526 -301.214954 
L 719.873471 -296.426408 
L 719.815126 -291.637862 
L 719.648003 -286.849315 
L 719.295403 -282.060769 
L 718.647504 -277.272223 
L 717.611431 -272.483676 
L 716.165779 -267.69513 
L 714.374123 -262.906584 
L 712.351296 -258.118038 
L 710.215583 -253.329491 
L 708.052163 -248.540945 
L 705.890183 -243.752399 
L 703.709677 -238.963852 
L 701.500154 -234.175306 
L 699.326572 -229.38676 
L 697.314522 -224.598214 
L 695.55304 -219.809667 
L 694.022596 -215.021121 
L 692.626973 -210.232575 
L 691.283122 -205.444028 
L 689.971309 -200.655482 
L 688.717747 -195.866936 
L 687.556107 -191.078389 
L 686.508624 -186.289843 
L 685.58839 -181.501297 
L 684.806072 -176.712751 
L 684.166841 -171.924204 
L 683.6601 -167.135658 
L 683.259783 -162.347112 
L 682.940638 -157.558565 
L 682.690981 -152.770019 
L 682.507089 -147.981473 
L 682.381235 -143.192927 
L 682.299983 -138.40438 
L 682.250185 -133.615834 
L 682.222093 -128.827288 
L 682.20825 -124.038741 
z
" style="stroke: #3f3f3f; stroke-width: 1.25"/>
    </defs>
    <g clip-path="url(#p0d883592cc)">
     <use xlink:href="#m1c21492576" x="0" y="720" style="fill: #3274a1; stroke: #3f3f3f; stroke-width: 1.25"/>
    </g>
   </g>
   <g id="PolyCollection_6">
    <defs>
     <path id="mb49c8df93d" d="M 793.804068 -124.20625 
L 793.795932 -124.20625 
L 793.788564 -129.094153 
L 793.772355 -133.982056 
L 793.740798 -138.869959 
L 793.684463 -143.757862 
L 793.590601 -148.645766 
L 793.44512 -153.533669 
L 793.237247 -158.421572 
L 792.962601 -163.309475 
L 792.620039 -168.197378 
L 792.202741 -173.085281 
L 791.687152 -177.973185 
L 791.027323 -182.861088 
L 790.170008 -187.748991 
L 789.093254 -192.636894 
L 787.832357 -197.524797 
L 786.455064 -202.412701 
L 785.010736 -207.300604 
L 783.511755 -212.188507 
L 781.949664 -217.07641 
L 780.301045 -221.964313 
L 778.520951 -226.852216 
L 776.566831 -231.74012 
L 774.447756 -236.628023 
L 772.232564 -241.515926 
L 769.993578 -246.403829 
L 767.753995 -251.291732 
L 765.513919 -256.179636 
L 763.330955 -261.067539 
L 761.34215 -265.955442 
L 759.67994 -270.843345 
L 758.390057 -275.731248 
L 757.449339 -280.619152 
L 756.820809 -285.507055 
L 756.456548 -290.394958 
L 756.275317 -295.282861 
L 756.175693 -300.170764 
L 756.088126 -305.058667 
L 756.027766 -309.946571 
L 756.08166 -314.834474 
L 756.304337 -319.722377 
L 756.637879 -324.61028 
L 756.982653 -329.498183 
L 757.32895 -334.386087 
L 757.767275 -339.27399 
L 758.386116 -344.161893 
L 759.203144 -349.049796 
L 760.176737 -353.937699 
L 761.239138 -358.825602 
L 762.325236 -363.713506 
L 763.409496 -368.601409 
L 764.526091 -373.489312 
L 765.740095 -378.377215 
L 767.09965 -383.265118 
L 768.615988 -388.153022 
L 770.267156 -393.040925 
L 772.003784 -397.928828 
L 773.761639 -402.816731 
L 775.485181 -407.704634 
L 777.142529 -412.592537 
L 778.719605 -417.480441 
L 780.205816 -422.368344 
L 781.579214 -427.256247 
L 782.795754 -432.14415 
L 783.806218 -437.032053 
L 784.6026 -441.919957 
L 785.243626 -446.80786 
L 785.825488 -451.695763 
L 786.430826 -456.583666 
L 787.09996 -461.471569 
L 787.827166 -466.359472 
L 788.571556 -471.247376 
L 789.28377 -476.135279 
L 789.936476 -481.023182 
L 790.530156 -485.911085 
L 791.068913 -490.798988 
L 791.53775 -495.686892 
L 791.911454 -500.574795 
L 792.185377 -505.462698 
L 792.389215 -510.350601 
L 792.565452 -515.238504 
L 792.738632 -520.126407 
L 792.90897 -525.014311 
L 793.068414 -529.902214 
L 793.213322 -534.790117 
L 793.342673 -539.67802 
L 793.453144 -544.565923 
L 793.541345 -549.453827 
L 793.608361 -554.34173 
L 793.658573 -559.229633 
L 793.695287 -564.117536 
L 793.719999 -569.005439 
L 793.735009 -573.893342 
L 793.744498 -578.781246 
L 793.752881 -583.669149 
L 793.762723 -588.557052 
L 793.773909 -593.444955 
L 793.78444 -598.332858 
L 793.792297 -603.220762 
L 793.796891 -608.108665 
L 793.803109 -608.108665 
L 793.803109 -608.108665 
L 793.807703 -603.220762 
L 793.81556 -598.332858 
L 793.826091 -593.444955 
L 793.837277 -588.557052 
L 793.847119 -583.669149 
L 793.855502 -578.781246 
L 793.864991 -573.893342 
L 793.880001 -569.005439 
L 793.904713 -564.117536 
L 793.941427 -559.229633 
L 793.991639 -554.34173 
L 794.058655 -549.453827 
L 794.146856 -544.565923 
L 794.257327 -539.67802 
L 794.386678 -534.790117 
L 794.531586 -529.902214 
L 794.69103 -525.014311 
L 794.861368 -520.126407 
L 795.034548 -515.238504 
L 795.210785 -510.350601 
L 795.414623 -505.462698 
L 795.688546 -500.574795 
L 796.06225 -495.686892 
L 796.531087 -490.798988 
L 797.069844 -485.911085 
L 797.663524 -481.023182 
L 798.31623 -476.135279 
L 799.028444 -471.247376 
L 799.772834 -466.359472 
L 800.50004 -461.471569 
L 801.169174 -456.583666 
L 801.774512 -451.695763 
L 802.356374 -446.80786 
L 802.9974 -441.919957 
L 803.793782 -437.032053 
L 804.804246 -432.14415 
L 806.020786 -427.256247 
L 807.394184 -422.368344 
L 808.880395 -417.480441 
L 810.457471 -412.592537 
L 812.114819 -407.704634 
L 813.838361 -402.816731 
L 815.596216 -397.928828 
L 817.332844 -393.040925 
L 818.984012 -388.153022 
L 820.50035 -383.265118 
L 821.859905 -378.377215 
L 823.073909 -373.489312 
L 824.190504 -368.601409 
L 825.274764 -363.713506 
L 826.360862 -358.825602 
L 827.423263 -353.937699 
L 828.396856 -349.049796 
L 829.213884 -344.161893 
L 829.832725 -339.27399 
L 830.27105 -334.386087 
L 830.617347 -329.498183 
L 830.962121 -324.61028 
L 831.295663 -319.722377 
L 831.51834 -314.834474 
L 831.572234 -309.946571 
L 831.511874 -305.058667 
L 831.424307 -300.170764 
L 831.324683 -295.282861 
L 831.143452 -290.394958 
L 830.779191 -285.507055 
L 830.150661 -280.619152 
L 829.209943 -275.731248 
L 827.92006 -270.843345 
L 826.25785 -265.955442 
L 824.269045 -261.067539 
L 822.086081 -256.179636 
L 819.846005 -251.291732 
L 817.606422 -246.403829 
L 815.367436 -241.515926 
L 813.152244 -236.628023 
L 811.033169 -231.74012 
L 809.079049 -226.852216 
L 807.298955 -221.964313 
L 805.650336 -217.07641 
L 804.088245 -212.188507 
L 802.589264 -207.300604 
L 801.144936 -202.412701 
L 799.767643 -197.524797 
L 798.506746 -192.636894 
L 797.429992 -187.748991 
L 796.572677 -182.861088 
L 795.912848 -177.973185 
L 795.397259 -173.085281 
L 794.979961 -168.197378 
L 794.637399 -163.309475 
L 794.362753 -158.421572 
L 794.15488 -153.533669 
L 794.009399 -148.645766 
L 793.915537 -143.757862 
L 793.859202 -138.869959 
L 793.827645 -133.982056 
L 793.811436 -129.094153 
L 793.804068 -124.20625 
z
" style="stroke: #3f3f3f; stroke-width: 1.25"/>
    </defs>
    <g clip-path="url(#p0d883592cc)">
     <use xlink:href="#mb49c8df93d" x="0" y="720" style="fill: #3274a1; stroke: #3f3f3f; stroke-width: 1.25"/>
    </g>
   </g>
   <g id="PolyCollection_7">
    <defs>
     <path id="m40c666da75" d="M 905.408089 -132.067437 
L 905.391911 -132.067437 
L 905.37682 -136.875071 
L 905.343789 -141.682704 
L 905.282418 -146.490338 
L 905.182831 -151.297972 
L 905.036272 -156.105605 
L 904.832638 -160.913239 
L 904.558435 -165.720873 
L 904.199074 -170.528506 
L 903.741325 -175.33614 
L 903.169802 -180.143774 
L 902.465962 -184.951407 
L 901.621072 -189.759041 
L 900.647726 -194.566675 
L 899.566664 -199.374308 
L 898.385908 -204.181942 
L 897.107939 -208.989576 
L 895.752375 -213.797209 
L 894.345697 -218.604843 
L 892.877075 -223.412477 
L 891.281692 -228.22011 
L 889.487816 -233.027744 
L 887.484072 -237.835378 
L 885.339962 -242.643011 
L 883.161212 -247.450645 
L 881.021422 -252.258279 
L 878.939724 -257.065912 
L 876.928183 -261.873546 
L 875.040508 -266.68118 
L 873.356107 -271.488813 
L 871.937277 -276.296447 
L 870.814093 -281.104081 
L 869.971168 -285.911714 
L 869.324074 -290.719348 
L 868.746524 -295.526982 
L 868.158264 -300.334616 
L 867.586579 -305.142249 
L 867.140928 -309.949883 
L 866.923585 -314.757517 
L 866.941545 -319.56515 
L 867.103008 -324.372784 
L 867.322485 -329.180418 
L 867.61878 -333.988051 
L 868.081371 -338.795685 
L 868.758466 -343.603319 
L 869.612472 -348.410952 
L 870.569462 -353.218586 
L 871.570676 -358.02622 
L 872.578966 -362.833853 
L 873.585054 -367.641487 
L 874.633217 -372.449121 
L 875.810848 -377.256754 
L 877.18195 -382.064388 
L 878.732416 -386.872022 
L 880.379614 -391.679655 
L 882.023767 -396.487289 
L 883.600729 -401.294923 
L 885.113042 -406.102556 
L 886.618187 -410.91019 
L 888.172147 -415.717824 
L 889.769218 -420.525457 
L 891.327606 -425.333091 
L 892.734365 -430.140725 
L 893.919723 -434.948358 
L 894.899852 -439.755992 
L 895.746028 -444.563626 
L 896.518443 -449.371259 
L 897.242508 -454.178893 
L 897.936529 -458.986527 
L 898.62995 -463.79416 
L 899.345258 -468.601794 
L 900.079215 -473.409428 
L 900.807571 -478.217061 
L 901.498165 -483.024695 
L 902.121964 -487.832329 
L 902.663635 -492.639963 
L 903.123132 -497.447596 
L 903.506086 -502.25523 
L 903.81823 -507.062864 
L 904.068506 -511.870497 
L 904.269636 -516.678131 
L 904.434571 -521.485765 
L 904.576183 -526.293398 
L 904.707577 -531.101032 
L 904.836752 -535.908666 
L 904.961247 -540.716299 
L 905.071819 -545.523933 
L 905.161462 -550.331567 
L 905.229281 -555.1392 
L 905.27773 -559.946834 
L 905.309717 -564.754468 
L 905.328682 -569.562101 
L 905.339225 -574.369735 
L 905.346304 -579.177369 
L 905.353755 -583.985002 
L 905.363291 -588.792636 
L 905.374294 -593.60027 
L 905.384637 -598.407903 
L 905.392352 -603.215537 
L 905.396881 -608.023171 
L 905.403119 -608.023171 
L 905.403119 -608.023171 
L 905.407648 -603.215537 
L 905.415363 -598.407903 
L 905.425706 -593.60027 
L 905.436709 -588.792636 
L 905.446245 -583.985002 
L 905.453696 -579.177369 
L 905.460775 -574.369735 
L 905.471318 -569.562101 
L 905.490283 -564.754468 
L 905.52227 -559.946834 
L 905.570719 -555.1392 
L 905.638538 -550.331567 
L 905.728181 -545.523933 
L 905.838753 -540.716299 
L 905.963248 -535.908666 
L 906.092423 -531.101032 
L 906.223817 -526.293398 
L 906.365429 -521.485765 
L 906.530364 -516.678131 
L 906.731494 -511.870497 
L 906.98177 -507.062864 
L 907.293914 -502.25523 
L 907.676868 -497.447596 
L 908.136365 -492.639963 
L 908.678036 -487.832329 
L 909.301835 -483.024695 
L 909.992429 -478.217061 
L 910.720785 -473.409428 
L 911.454742 -468.601794 
L 912.17005 -463.79416 
L 912.863471 -458.986527 
L 913.557492 -454.178893 
L 914.281557 -449.371259 
L 915.053972 -444.563626 
L 915.900148 -439.755992 
L 916.880277 -434.948358 
L 918.065635 -430.140725 
L 919.472394 -425.333091 
L 921.030782 -420.525457 
L 922.627853 -415.717824 
L 924.181813 -410.91019 
L 925.686958 -406.102556 
L 927.199271 -401.294923 
L 928.776233 -396.487289 
L 930.420386 -391.679655 
L 932.067584 -386.872022 
L 933.61805 -382.064388 
L 934.989152 -377.256754 
L 936.166783 -372.449121 
L 937.214946 -367.641487 
L 938.221034 -362.833853 
L 939.229324 -358.02622 
L 940.230538 -353.218586 
L 941.187528 -348.410952 
L 942.041534 -343.603319 
L 942.718629 -338.795685 
L 943.18122 -333.988051 
L 943.477515 -329.180418 
L 943.696992 -324.372784 
L 943.858455 -319.56515 
L 943.876415 -314.757517 
L 943.659072 -309.949883 
L 943.213421 -305.142249 
L 942.641736 -300.334616 
L 942.053476 -295.526982 
L 941.475926 -290.719348 
L 940.828832 -285.911714 
L 939.985907 -281.104081 
L 938.862723 -276.296447 
L 937.443893 -271.488813 
L 935.759492 -266.68118 
L 933.871817 -261.873546 
L 931.860276 -257.065912 
L 929.778578 -252.258279 
L 927.638788 -247.450645 
L 925.460038 -242.643011 
L 923.315928 -237.835378 
L 921.312184 -233.027744 
L 919.518308 -228.22011 
L 917.922925 -223.412477 
L 916.454303 -218.604843 
L 915.047625 -213.797209 
L 913.692061 -208.989576 
L 912.414092 -204.181942 
L 911.233336 -199.374308 
L 910.152274 -194.566675 
L 909.178928 -189.759041 
L 908.334038 -184.951407 
L 907.630198 -180.143774 
L 907.058675 -175.33614 
L 906.600926 -170.528506 
L 906.241565 -165.720873 
L 905.967362 -160.913239 
L 905.763728 -156.105605 
L 905.617169 -151.297972 
L 905.517582 -146.490338 
L 905.456211 -141.682704 
L 905.42318 -136.875071 
L 905.408089 -132.067437 
z
" style="stroke: #3f3f3f; stroke-width: 1.25"/>
    </defs>
    <g clip-path="url(#p0d883592cc)">
     <use xlink:href="#m40c666da75" x="0" y="720" style="fill: #3274a1; stroke: #3f3f3f; stroke-width: 1.25"/>
    </g>
   </g>
   <g id="PolyCollection_8">
    <defs>
     <path id="mec3120b1c6" d="M 1017.008022 -131.809106 
L 1016.991978 -131.809106 
L 1016.977325 -136.621958 
L 1016.945651 -141.434811 
L 1016.887549 -146.247663 
L 1016.794838 -151.060516 
L 1016.661606 -155.873368 
L 1016.481502 -160.686221 
L 1016.243016 -165.499073 
L 1015.928179 -170.311926 
L 1015.516974 -175.124778 
L 1014.99273 -179.937631 
L 1014.343945 -184.750483 
L 1013.564258 -189.563336 
L 1012.650347 -194.376188 
L 1011.594931 -199.189041 
L 1010.38579 -204.001893 
L 1009.02441 -208.814746 
L 1007.543308 -213.627598 
L 1005.985944 -218.440451 
L 1004.366625 -223.253303 
L 1002.668107 -228.066155 
L 1000.881913 -232.879008 
L 999.036491 -237.69186 
L 997.187049 -242.504713 
L 995.386116 -247.317565 
L 993.648156 -252.130418 
L 991.933273 -256.94327 
L 990.195302 -261.756123 
L 988.46396 -266.568975 
L 986.851507 -271.381828 
L 985.463956 -276.19468 
L 984.325169 -281.007533 
L 983.377501 -285.820385 
L 982.518732 -290.633238 
L 981.64706 -295.44609 
L 980.72233 -300.258943 
L 979.810637 -305.071795 
L 979.053003 -309.884648 
L 978.561924 -314.6975 
L 978.334978 -319.510353 
L 978.27859 -324.323205 
L 978.325919 -329.136058 
L 978.516916 -333.94891 
L 978.946532 -338.761763 
L 979.651438 -343.574615 
L 980.574723 -348.387468 
L 981.630688 -353.20032 
L 982.767617 -358.013173 
L 983.966219 -362.826025 
L 985.219238 -367.638878 
L 986.532173 -372.45173 
L 987.914019 -377.264583 
L 989.345958 -382.077435 
L 990.775629 -386.890287 
L 992.156248 -391.70314 
L 993.484223 -396.515992 
L 994.794302 -401.328845 
L 996.126604 -406.141697 
L 997.502988 -410.95455 
L 998.921816 -415.767402 
L 1000.35481 -420.580255 
L 1001.746233 -425.393107 
L 1003.035346 -430.20596 
L 1004.197522 -435.018812 
L 1005.257599 -439.831665 
L 1006.250609 -444.644517 
L 1007.179206 -449.45737 
L 1008.028456 -454.270222 
L 1008.815622 -459.083075 
L 1009.599031 -463.895927 
L 1010.427058 -468.70878 
L 1011.288799 -473.521632 
L 1012.122392 -478.334485 
L 1012.86594 -483.147337 
L 1013.496325 -487.96019 
L 1014.026486 -492.773042 
L 1014.477315 -497.585895 
L 1014.859217 -502.398747 
L 1015.178216 -507.2116 
L 1015.447646 -512.024452 
L 1015.683568 -516.837305 
L 1015.892532 -521.650157 
L 1016.072854 -526.46301 
L 1016.226465 -531.275862 
L 1016.361862 -536.088715 
L 1016.485356 -540.901567 
L 1016.595646 -545.71442 
L 1016.688434 -550.527272 
L 1016.762113 -555.340124 
L 1016.817294 -560.152977 
L 1016.854611 -564.965829 
L 1016.87651 -569.778682 
L 1016.889834 -574.591534 
L 1016.903297 -579.404387 
L 1016.921693 -584.217239 
L 1016.943653 -589.030092 
L 1016.964605 -593.842944 
L 1016.980813 -598.655797 
L 1016.991135 -603.468649 
L 1016.996558 -608.281502 
L 1017.003442 -608.281502 
L 1017.003442 -608.281502 
L 1017.008865 -603.468649 
L 1017.019187 -598.655797 
L 1017.035395 -593.842944 
L 1017.056347 -589.030092 
L 1017.078307 -584.217239 
L 1017.096703 -579.404387 
L 1017.110166 -574.591534 
L 1017.12349 -569.778682 
L 1017.145389 -564.965829 
L 1017.182706 -560.152977 
L 1017.237887 -555.340124 
L 1017.311566 -550.527272 
L 1017.404354 -545.71442 
L 1017.514644 -540.901567 
L 1017.638138 -536.088715 
L 1017.773535 -531.275862 
L 1017.927146 -526.46301 
L 1018.107468 -521.650157 
L 1018.316432 -516.837305 
L 1018.552354 -512.024452 
L 1018.821784 -507.2116 
L 1019.140783 -502.398747 
L 1019.522685 -497.585895 
L 1019.973514 -492.773042 
L 1020.503675 -487.96019 
L 1021.13406 -483.147337 
L 1021.877608 -478.334485 
L 1022.711201 -473.521632 
L 1023.572942 -468.70878 
L 1024.400969 -463.895927 
L 1025.184378 -459.083075 
L 1025.971544 -454.270222 
L 1026.820794 -449.45737 
L 1027.749391 -444.644517 
L 1028.742401 -439.831665 
L 1029.802478 -435.018812 
L 1030.964654 -430.20596 
L 1032.253767 -425.393107 
L 1033.64519 -420.580255 
L 1035.078184 -415.767402 
L 1036.497012 -410.95455 
L 1037.873396 -406.141697 
L 1039.205698 -401.328845 
L 1040.515777 -396.515992 
L 1041.843752 -391.70314 
L 1043.224371 -386.890287 
L 1044.654042 -382.077435 
L 1046.085981 -377.264583 
L 1047.467827 -372.45173 
L 1048.780762 -367.638878 
L 1050.033781 -362.826025 
L 1051.232383 -358.013173 
L 1052.369312 -353.20032 
L 1053.425277 -348.387468 
L 1054.348562 -343.574615 
L 1055.053468 -338.761763 
L 1055.483084 -333.94891 
L 1055.674081 -329.136058 
L 1055.72141 -324.323205 
L 1055.665022 -319.510353 
L 1055.438076 -314.6975 
L 1054.946997 -309.884648 
L 1054.189363 -305.071795 
L 1053.27767 -300.258943 
L 1052.35294 -295.44609 
L 1051.481268 -290.633238 
L 1050.622499 -285.820385 
L 1049.674831 -281.007533 
L 1048.536044 -276.19468 
L 1047.148493 -271.381828 
L 1045.53604 -266.568975 
L 1043.804698 -261.756123 
L 1042.066727 -256.94327 
L 1040.351844 -252.130418 
L 1038.613884 -247.317565 
L 1036.812951 -242.504713 
L 1034.963509 -237.69186 
L 1033.118087 -232.879008 
L 1031.331893 -228.066155 
L 1029.633375 -223.253303 
L 1028.014056 -218.440451 
L 1026.456692 -213.627598 
L 1024.97559 -208.814746 
L 1023.61421 -204.001893 
L 1022.405069 -199.189041 
L 1021.349653 -194.376188 
L 1020.435742 -189.563336 
L 1019.656055 -184.750483 
L 1019.00727 -179.937631 
L 1018.483026 -175.124778 
L 1018.071821 -170.311926 
L 1017.756984 -165.499073 
L 1017.518498 -160.686221 
L 1017.338394 -155.873368 
L 1017.205162 -151.060516 
L 1017.112451 -146.247663 
L 1017.054349 -141.434811 
L 1017.022675 -136.621958 
L 1017.008022 -131.809106 
z
" style="stroke: #3f3f3f; stroke-width: 1.25"/>
    </defs>
    <g clip-path="url(#p0d883592cc)">
     <use xlink:href="#mec3120b1c6" x="0" y="720" style="fill: #3274a1; stroke: #3f3f3f; stroke-width: 1.25"/>
    </g>
   </g>
   <g id="PolyCollection_9">
    <defs>
     <path id="m67ac41af6a" d="M 1128.611909 -131.690608 
L 1128.588091 -131.690608 
L 1128.567161 -136.505854 
L 1128.524613 -141.3211 
L 1128.453649 -146.136347 
L 1128.354159 -150.951593 
L 1128.231024 -155.76684 
L 1128.084563 -160.582086 
L 1127.899776 -165.397332 
L 1127.643068 -170.212579 
L 1127.269762 -175.027825 
L 1126.739698 -179.843071 
L 1126.033232 -184.658318 
L 1125.157136 -189.473564 
L 1124.134729 -194.288811 
L 1122.98846 -199.104057 
L 1121.734409 -203.919303 
L 1120.395461 -208.73455 
L 1119.006995 -213.549796 
L 1117.58866 -218.365043 
L 1116.111972 -223.180289 
L 1114.521763 -227.995535 
L 1112.799046 -232.810782 
L 1110.984794 -237.626028 
L 1109.136182 -242.441275 
L 1107.271675 -247.256521 
L 1105.357876 -252.071767 
L 1103.351904 -256.887014 
L 1101.283284 -261.70226 
L 1099.297498 -266.517506 
L 1097.577237 -271.332753 
L 1096.199719 -276.147999 
L 1095.090439 -280.963246 
L 1094.113639 -285.778492 
L 1093.179925 -290.593738 
L 1092.274047 -295.408985 
L 1091.42144 -300.224231 
L 1090.65283 -305.039478 
L 1089.99441 -309.854724 
L 1089.476581 -314.66997 
L 1089.143431 -319.485217 
L 1089.055783 -324.300463 
L 1089.286386 -329.11571 
L 1089.890969 -333.930956 
L 1090.852141 -338.746202 
L 1092.053524 -343.561449 
L 1093.342429 -348.376695 
L 1094.628197 -353.191941 
L 1095.898462 -358.007188 
L 1097.145779 -362.822434 
L 1098.32552 -367.637681 
L 1099.407692 -372.452927 
L 1100.438422 -377.268173 
L 1101.519019 -382.08342 
L 1102.726934 -386.898666 
L 1104.063503 -391.713913 
L 1105.466527 -396.529159 
L 1106.860862 -401.344405 
L 1108.20606 -406.159652 
L 1109.515863 -410.974898 
L 1110.834528 -415.790144 
L 1112.180307 -420.605391 
L 1113.509755 -425.420637 
L 1114.749083 -430.235884 
L 1115.862024 -435.05113 
L 1116.874453 -439.866376 
L 1117.829128 -444.681623 
L 1118.734088 -449.496869 
L 1119.572976 -454.312116 
L 1120.356337 -459.127362 
L 1121.135362 -463.942608 
L 1121.954228 -468.757855 
L 1122.801516 -473.573101 
L 1123.617982 -478.388348 
L 1124.345439 -483.203594 
L 1124.963295 -488.01884 
L 1125.485717 -492.834087 
L 1125.934101 -497.649333 
L 1126.317766 -502.464579 
L 1126.63961 -507.279826 
L 1126.909209 -512.095072 
L 1127.140066 -516.910319 
L 1127.338975 -521.725565 
L 1127.508722 -526.540811 
L 1127.659223 -531.356058 
L 1127.805708 -536.171304 
L 1127.954277 -540.986551 
L 1128.096256 -545.801797 
L 1128.218783 -550.617043 
L 1128.315946 -555.43229 
L 1128.388365 -560.247536 
L 1128.438014 -565.062783 
L 1128.468256 -569.878029 
L 1128.48659 -574.693275 
L 1128.50256 -579.508522 
L 1128.521907 -584.323768 
L 1128.544047 -589.139014 
L 1128.564899 -593.954261 
L 1128.580965 -598.769507 
L 1128.591188 -603.584754 
L 1128.596566 -608.4 
L 1128.603434 -608.4 
L 1128.603434 -608.4 
L 1128.608812 -603.584754 
L 1128.619035 -598.769507 
L 1128.635101 -593.954261 
L 1128.655953 -589.139014 
L 1128.678093 -584.323768 
L 1128.69744 -579.508522 
L 1128.71341 -574.693275 
L 1128.731744 -569.878029 
L 1128.761986 -565.062783 
L 1128.811635 -560.247536 
L 1128.884054 -555.43229 
L 1128.981217 -550.617043 
L 1129.103744 -545.801797 
L 1129.245723 -540.986551 
L 1129.394292 -536.171304 
L 1129.540777 -531.356058 
L 1129.691278 -526.540811 
L 1129.861025 -521.725565 
L 1130.059934 -516.910319 
L 1130.290791 -512.095072 
L 1130.56039 -507.279826 
L 1130.882234 -502.464579 
L 1131.265899 -497.649333 
L 1131.714283 -492.834087 
L 1132.236705 -488.01884 
L 1132.854561 -483.203594 
L 1133.582018 -478.388348 
L 1134.398484 -473.573101 
L 1135.245772 -468.757855 
L 1136.064638 -463.942608 
L 1136.843663 -459.127362 
L 1137.627024 -454.312116 
L 1138.465912 -449.496869 
L 1139.370872 -444.681623 
L 1140.325547 -439.866376 
L 1141.337976 -435.05113 
L 1142.450917 -430.235884 
L 1143.690245 -425.420637 
L 1145.019693 -420.605391 
L 1146.365472 -415.790144 
L 1147.684137 -410.974898 
L 1148.99394 -406.159652 
L 1150.339138 -401.344405 
L 1151.733473 -396.529159 
L 1153.136497 -391.713913 
L 1154.473066 -386.898666 
L 1155.680981 -382.08342 
L 1156.761578 -377.268173 
L 1157.792308 -372.452927 
L 1158.87448 -367.637681 
L 1160.054221 -362.822434 
L 1161.301538 -358.007188 
L 1162.571803 -353.191941 
L 1163.857571 -348.376695 
L 1165.146476 -343.561449 
L 1166.347859 -338.746202 
L 1167.309031 -333.930956 
L 1167.913614 -329.11571 
L 1168.144217 -324.300463 
L 1168.056569 -319.485217 
L 1167.723419 -314.66997 
L 1167.20559 -309.854724 
L 1166.54717 -305.039478 
L 1165.77856 -300.224231 
L 1164.925953 -295.408985 
L 1164.020075 -290.593738 
L 1163.086361 -285.778492 
L 1162.109561 -280.963246 
L 1161.000281 -276.147999 
L 1159.622763 -271.332753 
L 1157.902502 -266.517506 
L 1155.916716 -261.70226 
L 1153.848096 -256.887014 
L 1151.842124 -252.071767 
L 1149.928325 -247.256521 
L 1148.063818 -242.441275 
L 1146.215206 -237.626028 
L 1144.400954 -232.810782 
L 1142.678237 -227.995535 
L 1141.088028 -223.180289 
L 1139.61134 -218.365043 
L 1138.193005 -213.549796 
L 1136.804539 -208.73455 
L 1135.465591 -203.919303 
L 1134.21154 -199.104057 
L 1133.065271 -194.288811 
L 1132.042864 -189.473564 
L 1131.166768 -184.658318 
L 1130.460302 -179.843071 
L 1129.930238 -175.027825 
L 1129.556932 -170.212579 
L 1129.300224 -165.397332 
L 1129.115437 -160.582086 
L 1128.968976 -155.76684 
L 1128.845841 -150.951593 
L 1128.746351 -146.136347 
L 1128.675387 -141.3211 
L 1128.632839 -136.505854 
L 1128.611909 -131.690608 
z
" style="stroke: #3f3f3f; stroke-width: 1.25"/>
    </defs>
    <g clip-path="url(#p0d883592cc)">
     <use xlink:href="#m67ac41af6a" x="0" y="720" style="fill: #3274a1; stroke: #3f3f3f; stroke-width: 1.25"/>
    </g>
   </g>
   <g id="PolyCollection_10">
    <defs>
     <path id="me2dc013bba" d="M 1240.209849 -131.936125 
L 1240.190151 -131.936125 
L 1240.172005 -136.746411 
L 1240.133823 -141.556697 
L 1240.067864 -146.366984 
L 1239.972125 -151.17727 
L 1239.850085 -155.987557 
L 1239.703052 -160.797843 
L 1239.520443 -165.60813 
L 1239.276052 -170.418416 
L 1238.933391 -175.228703 
L 1238.457556 -180.038989 
L 1237.82773 -184.849276 
L 1237.042847 -189.659562 
L 1236.116506 -194.469848 
L 1235.067467 -199.280135 
L 1233.91759 -204.090421 
L 1232.696525 -208.900708 
L 1231.432889 -213.710994 
L 1230.122277 -218.521281 
L 1228.71024 -223.331567 
L 1227.13946 -228.141854 
L 1225.42664 -232.95214 
L 1223.663666 -237.762426 
L 1221.918698 -242.572713 
L 1220.147221 -247.382999 
L 1218.216585 -252.193286 
L 1216.031534 -257.003572 
L 1213.664907 -261.813859 
L 1211.375572 -266.624145 
L 1209.457028 -271.434432 
L 1208.022983 -276.244718 
L 1206.930659 -281.055004 
L 1205.912049 -285.865291 
L 1204.782535 -290.675577 
L 1203.55144 -295.485864 
L 1202.366556 -300.29615 
L 1201.366467 -305.106437 
L 1200.587929 -309.916723 
L 1200.004505 -314.72701 
L 1199.621761 -319.537296 
L 1199.512453 -324.347583 
L 1199.777163 -329.157869 
L 1200.484648 -333.968155 
L 1201.616051 -338.778442 
L 1203.036096 -343.588728 
L 1204.542011 -348.399015 
L 1205.969997 -353.209301 
L 1207.251716 -358.019588 
L 1208.381839 -362.829874 
L 1209.378459 -367.640161 
L 1210.290263 -372.450447 
L 1211.204101 -377.260733 
L 1212.215101 -382.07102 
L 1213.39037 -386.881306 
L 1214.754173 -391.691593 
L 1216.280933 -396.501879 
L 1217.891855 -401.312166 
L 1219.483701 -406.122452 
L 1220.989552 -410.932739 
L 1222.408827 -415.743025 
L 1223.76984 -420.553312 
L 1225.081979 -425.363598 
L 1226.336984 -430.173884 
L 1227.530325 -434.984171 
L 1228.65401 -439.794457 
L 1229.681142 -444.604744 
L 1230.585216 -449.41503 
L 1231.377819 -454.225317 
L 1232.113407 -459.035603 
L 1232.851934 -463.84589 
L 1233.619434 -468.656176 
L 1234.399412 -473.466462 
L 1235.149436 -478.276749 
L 1235.824642 -483.087035 
L 1236.402061 -487.897322 
L 1236.894865 -492.707608 
L 1237.337198 -497.517895 
L 1237.750728 -502.328181 
L 1238.132698 -507.138468 
L 1238.472728 -511.948754 
L 1238.76494 -516.75904 
L 1239.003613 -521.569327 
L 1239.185298 -526.379613 
L 1239.322117 -531.1899 
L 1239.441309 -536.000186 
L 1239.564349 -540.810473 
L 1239.69169 -545.620759 
L 1239.810268 -550.431046 
L 1239.909164 -555.241332 
L 1239.984605 -560.051619 
L 1240.036487 -564.861905 
L 1240.067671 -569.672191 
L 1240.085958 -574.482478 
L 1240.101561 -579.292764 
L 1240.120753 -584.103051 
L 1240.143066 -588.913337 
L 1240.164257 -593.723624 
L 1240.180644 -598.53391 
L 1240.191076 -603.344197 
L 1240.196548 -608.154483 
L 1240.203452 -608.154483 
L 1240.203452 -608.154483 
L 1240.208924 -603.344197 
L 1240.219356 -598.53391 
L 1240.235743 -593.723624 
L 1240.256934 -588.913337 
L 1240.279247 -584.103051 
L 1240.298439 -579.292764 
L 1240.314042 -574.482478 
L 1240.332329 -569.672191 
L 1240.363513 -564.861905 
L 1240.415395 -560.051619 
L 1240.490836 -555.241332 
L 1240.589732 -550.431046 
L 1240.70831 -545.620759 
L 1240.835651 -540.810473 
L 1240.958691 -536.000186 
L 1241.077883 -531.1899 
L 1241.214702 -526.379613 
L 1241.396387 -521.569327 
L 1241.63506 -516.75904 
L 1241.927272 -511.948754 
L 1242.267302 -507.138468 
L 1242.649272 -502.328181 
L 1243.062802 -497.517895 
L 1243.505135 -492.707608 
L 1243.997939 -487.897322 
L 1244.575358 -483.087035 
L 1245.250564 -478.276749 
L 1246.000588 -473.466462 
L 1246.780566 -468.656176 
L 1247.548066 -463.84589 
L 1248.286593 -459.035603 
L 1249.022181 -454.225317 
L 1249.814784 -449.41503 
L 1250.718858 -444.604744 
L 1251.74599 -439.794457 
L 1252.869675 -434.984171 
L 1254.063016 -430.173884 
L 1255.318021 -425.363598 
L 1256.63016 -420.553312 
L 1257.991173 -415.743025 
L 1259.410448 -410.932739 
L 1260.916299 -406.122452 
L 1262.508145 -401.312166 
L 1264.119067 -396.501879 
L 1265.645827 -391.691593 
L 1267.00963 -386.881306 
L 1268.184899 -382.07102 
L 1269.195899 -377.260733 
L 1270.109737 -372.450447 
L 1271.021541 -367.640161 
L 1272.018161 -362.829874 
L 1273.148284 -358.019588 
L 1274.430003 -353.209301 
L 1275.857989 -348.399015 
L 1277.363904 -343.588728 
L 1278.783949 -338.778442 
L 1279.915352 -333.968155 
L 1280.622837 -329.157869 
L 1280.887547 -324.347583 
L 1280.778239 -319.537296 
L 1280.395495 -314.72701 
L 1279.812071 -309.916723 
L 1279.033533 -305.106437 
L 1278.033444 -300.29615 
L 1276.84856 -295.485864 
L 1275.617465 -290.675577 
L 1274.487951 -285.865291 
L 1273.469341 -281.055004 
L 1272.377017 -276.244718 
L 1270.942972 -271.434432 
L 1269.024428 -266.624145 
L 1266.735093 -261.813859 
L 1264.368466 -257.003572 
L 1262.183415 -252.193286 
L 1260.252779 -247.382999 
L 1258.481302 -242.572713 
L 1256.736334 -237.762426 
L 1254.97336 -232.95214 
L 1253.26054 -228.141854 
L 1251.68976 -223.331567 
L 1250.277723 -218.521281 
L 1248.967111 -213.710994 
L 1247.703475 -208.900708 
L 1246.48241 -204.090421 
L 1245.332533 -199.280135 
L 1244.283494 -194.469848 
L 1243.357153 -189.659562 
L 1242.57227 -184.849276 
L 1241.942444 -180.038989 
L 1241.466609 -175.228703 
L 1241.123948 -170.418416 
L 1240.879557 -165.60813 
L 1240.696948 -160.797843 
L 1240.549915 -155.987557 
L 1240.427875 -151.17727 
L 1240.332136 -146.366984 
L 1240.266177 -141.556697 
L 1240.227995 -136.746411 
L 1240.209849 -131.936125 
z
" style="stroke: #3f3f3f; stroke-width: 1.25"/>
    </defs>
    <g clip-path="url(#p0d883592cc)">
     <use xlink:href="#me2dc013bba" x="0" y="720" style="fill: #3274a1; stroke: #3f3f3f; stroke-width: 1.25"/>
    </g>
   </g>
   <g id="matplotlib.axis_1">
    <g id="xtick_1">
     <g id="line2d_1">
      <defs>
       <path id="m7d983b5e53" d="M 0 0 
L 0 3.5 
" style="stroke: #000000; stroke-width: 0.8"/>
      </defs>
      <g>
       <use xlink:href="#m7d983b5e53" x="235.8" y="640.8" style="stroke: #000000; stroke-width: 0.8"/>
      </g>
     </g>
     <g id="text_1">
      <!-- 0 -->
      <g transform="translate(232.61875 655.398438) scale(0.1 -0.1)">
       <defs>
        <path id="DejaVuSans-30" d="M 2034 4250 
Q 1547 4250 1301 3770 
Q 1056 3291 1056 2328 
Q 1056 1369 1301 889 
Q 1547 409 2034 409 
Q 2525 409 2770 889 
Q 3016 1369 3016 2328 
Q 3016 3291 2770 3770 
Q 2525 4250 2034 4250 
z
M 2034 4750 
Q 2819 4750 3233 4129 
Q 3647 3509 3647 2328 
Q 3647 1150 3233 529 
Q 2819 -91 2034 -91 
Q 1250 -91 836 529 
Q 422 1150 422 2328 
Q 422 3509 836 4129 
Q 1250 4750 2034 4750 
z
" transform="scale(0.015625)"/>
       </defs>
       <use xlink:href="#DejaVuSans-30"/>
      </g>
     </g>
    </g>
    <g id="xtick_2">
     <g id="line2d_2">
      <g>
       <use xlink:href="#m7d983b5e53" x="347.4" y="640.8" style="stroke: #000000; stroke-width: 0.8"/>
      </g>
     </g>
     <g id="text_2">
      <!-- 1 -->
      <g transform="translate(344.21875 655.398438) scale(0.1 -0.1)">
       <defs>
        <path id="DejaVuSans-31" d="M 794 531 
L 1825 531 
L 1825 4091 
L 703 3866 
L 703 4441 
L 1819 4666 
L 2450 4666 
L 2450 531 
L 3481 531 
L 3481 0 
L 794 0 
L 794 531 
z
" transform="scale(0.015625)"/>
       </defs>
       <use xlink:href="#DejaVuSans-31"/>
      </g>
     </g>
    </g>
    <g id="xtick_3">
     <g id="line2d_3">
      <g>
       <use xlink:href="#m7d983b5e53" x="459" y="640.8" style="stroke: #000000; stroke-width: 0.8"/>
      </g>
     </g>
     <g id="text_3">
      <!-- 2 -->
      <g transform="translate(455.81875 655.398438) scale(0.1 -0.1)">
       <defs>
        <path id="DejaVuSans-32" d="M 1228 531 
L 3431 531 
L 3431 0 
L 469 0 
L 469 531 
Q 828 903 1448 1529 
Q 2069 2156 2228 2338 
Q 2531 2678 2651 2914 
Q 2772 3150 2772 3378 
Q 2772 3750 2511 3984 
Q 2250 4219 1831 4219 
Q 1534 4219 1204 4116 
Q 875 4013 500 3803 
L 500 4441 
Q 881 4594 1212 4672 
Q 1544 4750 1819 4750 
Q 2544 4750 2975 4387 
Q 3406 4025 3406 3419 
Q 3406 3131 3298 2873 
Q 3191 2616 2906 2266 
Q 2828 2175 2409 1742 
Q 1991 1309 1228 531 
z
" transform="scale(0.015625)"/>
       </defs>
       <use xlink:href="#DejaVuSans-32"/>
      </g>
     </g>
    </g>
    <g id="xtick_4">
     <g id="line2d_4">
      <g>
       <use xlink:href="#m7d983b5e53" x="570.6" y="640.8" style="stroke: #000000; stroke-width: 0.8"/>
      </g>
     </g>
     <g id="text_4">
      <!-- 3 -->
      <g transform="translate(567.41875 655.398438) scale(0.1 -0.1)">
       <defs>
        <path id="DejaVuSans-33" d="M 2597 2516 
Q 3050 2419 3304 2112 
Q 3559 1806 3559 1356 
Q 3559 666 3084 287 
Q 2609 -91 1734 -91 
Q 1441 -91 1130 -33 
Q 819 25 488 141 
L 488 750 
Q 750 597 1062 519 
Q 1375 441 1716 441 
Q 2309 441 2620 675 
Q 2931 909 2931 1356 
Q 2931 1769 2642 2001 
Q 2353 2234 1838 2234 
L 1294 2234 
L 1294 2753 
L 1863 2753 
Q 2328 2753 2575 2939 
Q 2822 3125 2822 3475 
Q 2822 3834 2567 4026 
Q 2313 4219 1838 4219 
Q 1578 4219 1281 4162 
Q 984 4106 628 3988 
L 628 4550 
Q 988 4650 1302 4700 
Q 1616 4750 1894 4750 
Q 2613 4750 3031 4423 
Q 3450 4097 3450 3541 
Q 3450 3153 3228 2886 
Q 3006 2619 2597 2516 
z
" transform="scale(0.015625)"/>
       </defs>
       <use xlink:href="#DejaVuSans-33"/>
      </g>
     </g>
    </g>
    <g id="xtick_5">
     <g id="line2d_5">
      <g>
       <use xlink:href="#m7d983b5e53" x="682.2" y="640.8" style="stroke: #000000; stroke-width: 0.8"/>
      </g>
     </g>
     <g id="text_5">
      <!-- 4 -->
      <g transform="translate(679.01875 655.398438) scale(0.1 -0.1)">
       <defs>
        <path id="DejaVuSans-34" d="M 2419 4116 
L 825 1625 
L 2419 1625 
L 2419 4116 
z
M 2253 4666 
L 3047 4666 
L 3047 1625 
L 3713 1625 
L 3713 1100 
L 3047 1100 
L 3047 0 
L 2419 0 
L 2419 1100 
L 313 1100 
L 313 1709 
L 2253 4666 
z
" transform="scale(0.015625)"/>
       </defs>
       <use xlink:href="#DejaVuSans-34"/>
      </g>
     </g>
    </g>
    <g id="xtick_6">
     <g id="line2d_6">
      <g>
       <use xlink:href="#m7d983b5e53" x="793.8" y="640.8" style="stroke: #000000; stroke-width: 0.8"/>
      </g>
     </g>
     <g id="text_6">
      <!-- 5 -->
      <g transform="translate(790.61875 655.398438) scale(0.1 -0.1)">
       <defs>
        <path id="DejaVuSans-35" d="M 691 4666 
L 3169 4666 
L 3169 4134 
L 1269 4134 
L 1269 2991 
Q 1406 3038 1543 3061 
Q 1681 3084 1819 3084 
Q 2600 3084 3056 2656 
Q 3513 2228 3513 1497 
Q 3513 744 3044 326 
Q 2575 -91 1722 -91 
Q 1428 -91 1123 -41 
Q 819 9 494 109 
L 494 744 
Q 775 591 1075 516 
Q 1375 441 1709 441 
Q 2250 441 2565 725 
Q 2881 1009 2881 1497 
Q 2881 1984 2565 2268 
Q 2250 2553 1709 2553 
Q 1456 2553 1204 2497 
Q 953 2441 691 2322 
L 691 4666 
z
" transform="scale(0.015625)"/>
       </defs>
       <use xlink:href="#DejaVuSans-35"/>
      </g>
     </g>
    </g>
    <g id="xtick_7">
     <g id="line2d_7">
      <g>
       <use xlink:href="#m7d983b5e53" x="905.4" y="640.8" style="stroke: #000000; stroke-width: 0.8"/>
      </g>
     </g>
     <g id="text_7">
      <!-- 6 -->
      <g transform="translate(902.21875 655.398438) scale(0.1 -0.1)">
       <defs>
        <path id="DejaVuSans-36" d="M 2113 2584 
Q 1688 2584 1439 2293 
Q 1191 2003 1191 1497 
Q 1191 994 1439 701 
Q 1688 409 2113 409 
Q 2538 409 2786 701 
Q 3034 994 3034 1497 
Q 3034 2003 2786 2293 
Q 2538 2584 2113 2584 
z
M 3366 4563 
L 3366 3988 
Q 3128 4100 2886 4159 
Q 2644 4219 2406 4219 
Q 1781 4219 1451 3797 
Q 1122 3375 1075 2522 
Q 1259 2794 1537 2939 
Q 1816 3084 2150 3084 
Q 2853 3084 3261 2657 
Q 3669 2231 3669 1497 
Q 3669 778 3244 343 
Q 2819 -91 2113 -91 
Q 1303 -91 875 529 
Q 447 1150 447 2328 
Q 447 3434 972 4092 
Q 1497 4750 2381 4750 
Q 2619 4750 2861 4703 
Q 3103 4656 3366 4563 
z
" transform="scale(0.015625)"/>
       </defs>
       <use xlink:href="#DejaVuSans-36"/>
      </g>
     </g>
    </g>
    <g id="xtick_8">
     <g id="line2d_8">
      <g>
       <use xlink:href="#m7d983b5e53" x="1017" y="640.8" style="stroke: #000000; stroke-width: 0.8"/>
      </g>
     </g>
     <g id="text_8">
      <!-- 7 -->
      <g transform="translate(1013.81875 655.398438) scale(0.1 -0.1)">
       <defs>
        <path id="DejaVuSans-37" d="M 525 4666 
L 3525 4666 
L 3525 4397 
L 1831 0 
L 1172 0 
L 2766 4134 
L 525 4134 
L 525 4666 
z
" transform="scale(0.015625)"/>
       </defs>
       <use xlink:href="#DejaVuSans-37"/>
      </g>
     </g>
    </g>
    <g id="xtick_9">
     <g id="line2d_9">
      <g>
       <use xlink:href="#m7d983b5e53" x="1128.6" y="640.8" style="stroke: #000000; stroke-width: 0.8"/>
      </g>
     </g>
     <g id="text_9">
      <!-- 8 -->
      <g transform="translate(1125.41875 655.398438) scale(0.1 -0.1)">
       <defs>
        <path id="DejaVuSans-38" d="M 2034 2216 
Q 1584 2216 1326 1975 
Q 1069 1734 1069 1313 
Q 1069 891 1326 650 
Q 1584 409 2034 409 
Q 2484 409 2743 651 
Q 3003 894 3003 1313 
Q 3003 1734 2745 1975 
Q 2488 2216 2034 2216 
z
M 1403 2484 
Q 997 2584 770 2862 
Q 544 3141 544 3541 
Q 544 4100 942 4425 
Q 1341 4750 2034 4750 
Q 2731 4750 3128 4425 
Q 3525 4100 3525 3541 
Q 3525 3141 3298 2862 
Q 3072 2584 2669 2484 
Q 3125 2378 3379 2068 
Q 3634 1759 3634 1313 
Q 3634 634 3220 271 
Q 2806 -91 2034 -91 
Q 1263 -91 848 271 
Q 434 634 434 1313 
Q 434 1759 690 2068 
Q 947 2378 1403 2484 
z
M 1172 3481 
Q 1172 3119 1398 2916 
Q 1625 2713 2034 2713 
Q 2441 2713 2670 2916 
Q 2900 3119 2900 3481 
Q 2900 3844 2670 4047 
Q 2441 4250 2034 4250 
Q 1625 4250 1398 4047 
Q 1172 3844 1172 3481 
z
" transform="scale(0.015625)"/>
       </defs>
       <use xlink:href="#DejaVuSans-38"/>
      </g>
     </g>
    </g>
    <g id="xtick_10">
     <g id="line2d_10">
      <g>
       <use xlink:href="#m7d983b5e53" x="1240.2" y="640.8" style="stroke: #000000; stroke-width: 0.8"/>
      </g>
     </g>
     <g id="text_10">
      <!-- 9 -->
      <g transform="translate(1237.01875 655.398438) scale(0.1 -0.1)">
       <defs>
        <path id="DejaVuSans-39" d="M 703 97 
L 703 672 
Q 941 559 1184 500 
Q 1428 441 1663 441 
Q 2288 441 2617 861 
Q 2947 1281 2994 2138 
Q 2813 1869 2534 1725 
Q 2256 1581 1919 1581 
Q 1219 1581 811 2004 
Q 403 2428 403 3163 
Q 403 3881 828 4315 
Q 1253 4750 1959 4750 
Q 2769 4750 3195 4129 
Q 3622 3509 3622 2328 
Q 3622 1225 3098 567 
Q 2575 -91 1691 -91 
Q 1453 -91 1209 -44 
Q 966 3 703 97 
z
M 1959 2075 
Q 2384 2075 2632 2365 
Q 2881 2656 2881 3163 
Q 2881 3666 2632 3958 
Q 2384 4250 1959 4250 
Q 1534 4250 1286 3958 
Q 1038 3666 1038 3163 
Q 1038 2656 1286 2365 
Q 1534 2075 1959 2075 
z
" transform="scale(0.015625)"/>
       </defs>
       <use xlink:href="#DejaVuSans-39"/>
      </g>
     </g>
    </g>
    <g id="text_11">
     <!-- iteration -->
     <g transform="translate(716.877344 669.076563) scale(0.1 -0.1)">
      <defs>
       <path id="DejaVuSans-69" d="M 603 3500 
L 1178 3500 
L 1178 0 
L 603 0 
L 603 3500 
z
M 603 4863 
L 1178 4863 
L 1178 4134 
L 603 4134 
L 603 4863 
z
" transform="scale(0.015625)"/>
       <path id="DejaVuSans-74" d="M 1172 4494 
L 1172 3500 
L 2356 3500 
L 2356 3053 
L 1172 3053 
L 1172 1153 
Q 1172 725 1289 603 
Q 1406 481 1766 481 
L 2356 481 
L 2356 0 
L 1766 0 
Q 1100 0 847 248 
Q 594 497 594 1153 
L 594 3053 
L 172 3053 
L 172 3500 
L 594 3500 
L 594 4494 
L 1172 4494 
z
" transform="scale(0.015625)"/>
       <path id="DejaVuSans-65" d="M 3597 1894 
L 3597 1613 
L 953 1613 
Q 991 1019 1311 708 
Q 1631 397 2203 397 
Q 2534 397 2845 478 
Q 3156 559 3463 722 
L 3463 178 
Q 3153 47 2828 -22 
Q 2503 -91 2169 -91 
Q 1331 -91 842 396 
Q 353 884 353 1716 
Q 353 2575 817 3079 
Q 1281 3584 2069 3584 
Q 2775 3584 3186 3129 
Q 3597 2675 3597 1894 
z
M 3022 2063 
Q 3016 2534 2758 2815 
Q 2500 3097 2075 3097 
Q 1594 3097 1305 2825 
Q 1016 2553 972 2059 
L 3022 2063 
z
" transform="scale(0.015625)"/>
       <path id="DejaVuSans-72" d="M 2631 2963 
Q 2534 3019 2420 3045 
Q 2306 3072 2169 3072 
Q 1681 3072 1420 2755 
Q 1159 2438 1159 1844 
L 1159 0 
L 581 0 
L 581 3500 
L 1159 3500 
L 1159 2956 
Q 1341 3275 1631 3429 
Q 1922 3584 2338 3584 
Q 2397 3584 2469 3576 
Q 2541 3569 2628 3553 
L 2631 2963 
z
" transform="scale(0.015625)"/>
       <path id="DejaVuSans-61" d="M 2194 1759 
Q 1497 1759 1228 1600 
Q 959 1441 959 1056 
Q 959 750 1161 570 
Q 1363 391 1709 391 
Q 2188 391 2477 730 
Q 2766 1069 2766 1631 
L 2766 1759 
L 2194 1759 
z
M 3341 1997 
L 3341 0 
L 2766 0 
L 2766 531 
Q 2569 213 2275 61 
Q 1981 -91 1556 -91 
Q 1019 -91 701 211 
Q 384 513 384 1019 
Q 384 1609 779 1909 
Q 1175 2209 1959 2209 
L 2766 2209 
L 2766 2266 
Q 2766 2663 2505 2880 
Q 2244 3097 1772 3097 
Q 1472 3097 1187 3025 
Q 903 2953 641 2809 
L 641 3341 
Q 956 3463 1253 3523 
Q 1550 3584 1831 3584 
Q 2591 3584 2966 3190 
Q 3341 2797 3341 1997 
z
" transform="scale(0.015625)"/>
       <path id="DejaVuSans-6f" d="M 1959 3097 
Q 1497 3097 1228 2736 
Q 959 2375 959 1747 
Q 959 1119 1226 758 
Q 1494 397 1959 397 
Q 2419 397 2687 759 
Q 2956 1122 2956 1747 
Q 2956 2369 2687 2733 
Q 2419 3097 1959 3097 
z
M 1959 3584 
Q 2709 3584 3137 3096 
Q 3566 2609 3566 1747 
Q 3566 888 3137 398 
Q 2709 -91 1959 -91 
Q 1206 -91 779 398 
Q 353 888 353 1747 
Q 353 2609 779 3096 
Q 1206 3584 1959 3584 
z
" transform="scale(0.015625)"/>
       <path id="DejaVuSans-6e" d="M 3513 2113 
L 3513 0 
L 2938 0 
L 2938 2094 
Q 2938 2591 2744 2837 
Q 2550 3084 2163 3084 
Q 1697 3084 1428 2787 
Q 1159 2491 1159 1978 
L 1159 0 
L 581 0 
L 581 3500 
L 1159 3500 
L 1159 2956 
Q 1366 3272 1645 3428 
Q 1925 3584 2291 3584 
Q 2894 3584 3203 3211 
Q 3513 2838 3513 2113 
z
" transform="scale(0.015625)"/>
      </defs>
      <use xlink:href="#DejaVuSans-69"/>
      <use xlink:href="#DejaVuSans-74" x="27.783203"/>
      <use xlink:href="#DejaVuSans-65" x="66.992188"/>
      <use xlink:href="#DejaVuSans-72" x="128.515625"/>
      <use xlink:href="#DejaVuSans-61" x="169.628906"/>
      <use xlink:href="#DejaVuSans-74" x="230.908203"/>
      <use xlink:href="#DejaVuSans-69" x="270.117188"/>
      <use xlink:href="#DejaVuSans-6f" x="297.900391"/>
      <use xlink:href="#DejaVuSans-6e" x="359.082031"/>
     </g>
    </g>
   </g>
   <g id="matplotlib.axis_2">
    <g id="ytick_1">
     <g id="line2d_11">
      <defs>
       <path id="m87ddebe1b5" d="M 0 0 
L -3.5 0 
" style="stroke: #000000; stroke-width: 0.8"/>
      </defs>
      <g>
       <use xlink:href="#m87ddebe1b5" x="180" y="594.348104" style="stroke: #000000; stroke-width: 0.8"/>
      </g>
     </g>
     <g id="text_12">
      <!-- 0.2 -->
      <g transform="translate(148.717187 598.147323) scale(0.1 -0.1)">
       <defs>
        <path id="DejaVuSans-2212" d="M 678 2272 
L 4684 2272 
L 4684 1741 
L 678 1741 
L 678 2272 
z
" transform="scale(0.015625)"/>
        <path id="DejaVuSans-2e" d="M 684 794 
L 1344 794 
L 1344 0 
L 684 0 
L 684 794 
z
" transform="scale(0.015625)"/>
       </defs>
       <use xlink:href="#DejaVuSans-2212"/>
       <use xlink:href="#DejaVuSans-30" x="83.789062"/>
       <use xlink:href="#DejaVuSans-2e" x="147.412109"/>
       <use xlink:href="#DejaVuSans-32" x="179.199219"/>
      </g>
     </g>
    </g>
    <g id="ytick_2">
     <g id="line2d_12">
      <g>
       <use xlink:href="#m87ddebe1b5" x="180" y="511.779296" style="stroke: #000000; stroke-width: 0.8"/>
      </g>
     </g>
     <g id="text_13">
      <!-- 0.0 -->
      <g transform="translate(157.096875 515.578515) scale(0.1 -0.1)">
       <use xlink:href="#DejaVuSans-30"/>
       <use xlink:href="#DejaVuSans-2e" x="63.623047"/>
       <use xlink:href="#DejaVuSans-30" x="95.410156"/>
      </g>
     </g>
    </g>
    <g id="ytick_3">
     <g id="line2d_13">
      <g>
       <use xlink:href="#m87ddebe1b5" x="180" y="429.210489" style="stroke: #000000; stroke-width: 0.8"/>
      </g>
     </g>
     <g id="text_14">
      <!-- 0.2 -->
      <g transform="translate(157.096875 433.009708) scale(0.1 -0.1)">
       <use xlink:href="#DejaVuSans-30"/>
       <use xlink:href="#DejaVuSans-2e" x="63.623047"/>
       <use xlink:href="#DejaVuSans-32" x="95.410156"/>
      </g>
     </g>
    </g>
    <g id="ytick_4">
     <g id="line2d_14">
      <g>
       <use xlink:href="#m87ddebe1b5" x="180" y="346.641681" style="stroke: #000000; stroke-width: 0.8"/>
      </g>
     </g>
     <g id="text_15">
      <!-- 0.4 -->
      <g transform="translate(157.096875 350.4409) scale(0.1 -0.1)">
       <use xlink:href="#DejaVuSans-30"/>
       <use xlink:href="#DejaVuSans-2e" x="63.623047"/>
       <use xlink:href="#DejaVuSans-34" x="95.410156"/>
      </g>
     </g>
    </g>
    <g id="ytick_5">
     <g id="line2d_15">
      <g>
       <use xlink:href="#m87ddebe1b5" x="180" y="264.072874" style="stroke: #000000; stroke-width: 0.8"/>
      </g>
     </g>
     <g id="text_16">
      <!-- 0.6 -->
      <g transform="translate(157.096875 267.872093) scale(0.1 -0.1)">
       <use xlink:href="#DejaVuSans-30"/>
       <use xlink:href="#DejaVuSans-2e" x="63.623047"/>
       <use xlink:href="#DejaVuSans-36" x="95.410156"/>
      </g>
     </g>
    </g>
    <g id="ytick_6">
     <g id="line2d_16">
      <g>
       <use xlink:href="#m87ddebe1b5" x="180" y="181.504067" style="stroke: #000000; stroke-width: 0.8"/>
      </g>
     </g>
     <g id="text_17">
      <!-- 0.8 -->
      <g transform="translate(157.096875 185.303285) scale(0.1 -0.1)">
       <use xlink:href="#DejaVuSans-30"/>
       <use xlink:href="#DejaVuSans-2e" x="63.623047"/>
       <use xlink:href="#DejaVuSans-38" x="95.410156"/>
      </g>
     </g>
    </g>
    <g id="ytick_7">
     <g id="line2d_17">
      <g>
       <use xlink:href="#m87ddebe1b5" x="180" y="98.935259" style="stroke: #000000; stroke-width: 0.8"/>
      </g>
     </g>
     <g id="text_18">
      <!-- 1.0 -->
      <g transform="translate(157.096875 102.734478) scale(0.1 -0.1)">
       <use xlink:href="#DejaVuSans-31"/>
       <use xlink:href="#DejaVuSans-2e" x="63.623047"/>
       <use xlink:href="#DejaVuSans-30" x="95.410156"/>
      </g>
     </g>
    </g>
    <g id="text_19">
     <!-- final cosine similarity -->
     <g transform="translate(142.6375 416.667187) rotate(-90) scale(0.1 -0.1)">
      <defs>
       <path id="DejaVuSans-66" d="M 2375 4863 
L 2375 4384 
L 1825 4384 
Q 1516 4384 1395 4259 
Q 1275 4134 1275 3809 
L 1275 3500 
L 2222 3500 
L 2222 3053 
L 1275 3053 
L 1275 0 
L 697 0 
L 697 3053 
L 147 3053 
L 147 3500 
L 697 3500 
L 697 3744 
Q 697 4328 969 4595 
Q 1241 4863 1831 4863 
L 2375 4863 
z
" transform="scale(0.015625)"/>
       <path id="DejaVuSans-6c" d="M 603 4863 
L 1178 4863 
L 1178 0 
L 603 0 
L 603 4863 
z
" transform="scale(0.015625)"/>
       <path id="DejaVuSans-20" transform="scale(0.015625)"/>
       <path id="DejaVuSans-63" d="M 3122 3366 
L 3122 2828 
Q 2878 2963 2633 3030 
Q 2388 3097 2138 3097 
Q 1578 3097 1268 2742 
Q 959 2388 959 1747 
Q 959 1106 1268 751 
Q 1578 397 2138 397 
Q 2388 397 2633 464 
Q 2878 531 3122 666 
L 3122 134 
Q 2881 22 2623 -34 
Q 2366 -91 2075 -91 
Q 1284 -91 818 406 
Q 353 903 353 1747 
Q 353 2603 823 3093 
Q 1294 3584 2113 3584 
Q 2378 3584 2631 3529 
Q 2884 3475 3122 3366 
z
" transform="scale(0.015625)"/>
       <path id="DejaVuSans-73" d="M 2834 3397 
L 2834 2853 
Q 2591 2978 2328 3040 
Q 2066 3103 1784 3103 
Q 1356 3103 1142 2972 
Q 928 2841 928 2578 
Q 928 2378 1081 2264 
Q 1234 2150 1697 2047 
L 1894 2003 
Q 2506 1872 2764 1633 
Q 3022 1394 3022 966 
Q 3022 478 2636 193 
Q 2250 -91 1575 -91 
Q 1294 -91 989 -36 
Q 684 19 347 128 
L 347 722 
Q 666 556 975 473 
Q 1284 391 1588 391 
Q 1994 391 2212 530 
Q 2431 669 2431 922 
Q 2431 1156 2273 1281 
Q 2116 1406 1581 1522 
L 1381 1569 
Q 847 1681 609 1914 
Q 372 2147 372 2553 
Q 372 3047 722 3315 
Q 1072 3584 1716 3584 
Q 2034 3584 2315 3537 
Q 2597 3491 2834 3397 
z
" transform="scale(0.015625)"/>
       <path id="DejaVuSans-6d" d="M 3328 2828 
Q 3544 3216 3844 3400 
Q 4144 3584 4550 3584 
Q 5097 3584 5394 3201 
Q 5691 2819 5691 2113 
L 5691 0 
L 5113 0 
L 5113 2094 
Q 5113 2597 4934 2840 
Q 4756 3084 4391 3084 
Q 3944 3084 3684 2787 
Q 3425 2491 3425 1978 
L 3425 0 
L 2847 0 
L 2847 2094 
Q 2847 2600 2669 2842 
Q 2491 3084 2119 3084 
Q 1678 3084 1418 2786 
Q 1159 2488 1159 1978 
L 1159 0 
L 581 0 
L 581 3500 
L 1159 3500 
L 1159 2956 
Q 1356 3278 1631 3431 
Q 1906 3584 2284 3584 
Q 2666 3584 2933 3390 
Q 3200 3197 3328 2828 
z
" transform="scale(0.015625)"/>
       <path id="DejaVuSans-79" d="M 2059 -325 
Q 1816 -950 1584 -1140 
Q 1353 -1331 966 -1331 
L 506 -1331 
L 506 -850 
L 844 -850 
Q 1081 -850 1212 -737 
Q 1344 -625 1503 -206 
L 1606 56 
L 191 3500 
L 800 3500 
L 1894 763 
L 2988 3500 
L 3597 3500 
L 2059 -325 
z
" transform="scale(0.015625)"/>
      </defs>
      <use xlink:href="#DejaVuSans-66"/>
      <use xlink:href="#DejaVuSans-69" x="35.205078"/>
      <use xlink:href="#DejaVuSans-6e" x="62.988281"/>
      <use xlink:href="#DejaVuSans-61" x="126.367188"/>
      <use xlink:href="#DejaVuSans-6c" x="187.646484"/>
      <use xlink:href="#DejaVuSans-20" x="215.429688"/>
      <use xlink:href="#DejaVuSans-63" x="247.216797"/>
      <use xlink:href="#DejaVuSans-6f" x="302.197266"/>
      <use xlink:href="#DejaVuSans-73" x="363.378906"/>
      <use xlink:href="#DejaVuSans-69" x="415.478516"/>
      <use xlink:href="#DejaVuSans-6e" x="443.261719"/>
      <use xlink:href="#DejaVuSans-65" x="506.640625"/>
      <use xlink:href="#DejaVuSans-20" x="568.164062"/>
      <use xlink:href="#DejaVuSans-73" x="599.951172"/>
      <use xlink:href="#DejaVuSans-69" x="652.050781"/>
      <use xlink:href="#DejaVuSans-6d" x="679.833984"/>
      <use xlink:href="#DejaVuSans-69" x="777.246094"/>
      <use xlink:href="#DejaVuSans-6c" x="805.029297"/>
      <use xlink:href="#DejaVuSans-61" x="832.8125"/>
      <use xlink:href="#DejaVuSans-72" x="894.091797"/>
      <use xlink:href="#DejaVuSans-69" x="935.205078"/>
      <use xlink:href="#DejaVuSans-74" x="962.988281"/>
      <use xlink:href="#DejaVuSans-79" x="1002.197266"/>
     </g>
    </g>
   </g>
   <g id="line2d_18">
    <path d="M 235.8 578.838502 
L 235.8 251.411583 
" clip-path="url(#p0d883592cc)" style="fill: none; stroke: #3f3f3f; stroke-width: 1.875; stroke-linecap: square"/>
   </g>
   <g id="line2d_19">
    <path d="M 235.8 462.775248 
L 235.8 378.042435 
" clip-path="url(#p0d883592cc)" style="fill: none; stroke: #3f3f3f; stroke-width: 5.625; stroke-linecap: square"/>
   </g>
   <g id="line2d_20">
    <path d="M 235.8 424.383293 
" clip-path="url(#p0d883592cc)" style="fill: none; stroke: #3f3f3f; stroke-width: 1.5; stroke-linecap: square"/>
    <defs>
     <path id="m78fe34ffc7" d="M 2.34375 0 
L -2.34375 -0 
" style="stroke: #ffffff; stroke-width: 1.125"/>
    </defs>
    <g clip-path="url(#p0d883592cc)">
     <use xlink:href="#m78fe34ffc7" x="235.8" y="424.383293" style="fill: #ffffff; stroke: #ffffff; stroke-width: 1.125"/>
    </g>
   </g>
   <g id="line2d_21">
    <path d="M 347.4 562.327475 
L 347.4 230.271691 
" clip-path="url(#p0d883592cc)" style="fill: none; stroke: #3f3f3f; stroke-width: 1.875; stroke-linecap: square"/>
   </g>
   <g id="line2d_22">
    <path d="M 347.4 454.368655 
L 347.4 364.488415 
" clip-path="url(#p0d883592cc)" style="fill: none; stroke: #3f3f3f; stroke-width: 5.625; stroke-linecap: square"/>
   </g>
   <g id="line2d_23">
    <path d="M 347.4 412.669661 
" clip-path="url(#p0d883592cc)" style="fill: none; stroke: #3f3f3f; stroke-width: 1.5; stroke-linecap: square"/>
    <g clip-path="url(#p0d883592cc)">
     <use xlink:href="#m78fe34ffc7" x="347.4" y="412.669661" style="fill: #ffffff; stroke: #ffffff; stroke-width: 1.125"/>
    </g>
   </g>
   <g id="line2d_24">
    <path d="M 459 567.815189 
L 459 218.802467 
" clip-path="url(#p0d883592cc)" style="fill: none; stroke: #3f3f3f; stroke-width: 1.875; stroke-linecap: square"/>
   </g>
   <g id="line2d_25">
    <path d="M 459 451.086872 
L 459 358.003486 
" clip-path="url(#p0d883592cc)" style="fill: none; stroke: #3f3f3f; stroke-width: 5.625; stroke-linecap: square"/>
   </g>
   <g id="line2d_26">
    <path d="M 459 407.710977 
" clip-path="url(#p0d883592cc)" style="fill: none; stroke: #3f3f3f; stroke-width: 1.5; stroke-linecap: square"/>
    <g clip-path="url(#p0d883592cc)">
     <use xlink:href="#m78fe34ffc7" x="459" y="407.710977" style="fill: #ffffff; stroke: #ffffff; stroke-width: 1.125"/>
    </g>
   </g>
   <g id="line2d_27">
    <path d="M 570.6 572.828484 
L 570.6 205.596131 
" clip-path="url(#p0d883592cc)" style="fill: none; stroke: #3f3f3f; stroke-width: 1.875; stroke-linecap: square"/>
   </g>
   <g id="line2d_28">
    <path d="M 570.6 446.073347 
L 570.6 349.744896 
" clip-path="url(#p0d883592cc)" style="fill: none; stroke: #3f3f3f; stroke-width: 5.625; stroke-linecap: square"/>
   </g>
   <g id="line2d_29">
    <path d="M 570.6 400.231329 
" clip-path="url(#p0d883592cc)" style="fill: none; stroke: #3f3f3f; stroke-width: 1.5; stroke-linecap: square"/>
    <g clip-path="url(#p0d883592cc)">
     <use xlink:href="#m78fe34ffc7" x="570.6" y="400.231329" style="fill: #ffffff; stroke: #ffffff; stroke-width: 1.125"/>
    </g>
   </g>
   <g id="line2d_30">
    <path d="M 682.2 576.023671 
L 682.2 209.618411 
" clip-path="url(#p0d883592cc)" style="fill: none; stroke: #3f3f3f; stroke-width: 1.875; stroke-linecap: square"/>
   </g>
   <g id="line2d_31">
    <path d="M 682.2 446.101356 
L 682.2 351.478265 
" clip-path="url(#p0d883592cc)" style="fill: none; stroke: #3f3f3f; stroke-width: 5.625; stroke-linecap: square"/>
   </g>
   <g id="line2d_32">
    <path d="M 682.2 400.947245 
" clip-path="url(#p0d883592cc)" style="fill: none; stroke: #3f3f3f; stroke-width: 1.5; stroke-linecap: square"/>
    <g clip-path="url(#p0d883592cc)">
     <use xlink:href="#m78fe34ffc7" x="682.2" y="400.947245" style="fill: #ffffff; stroke: #ffffff; stroke-width: 1.125"/>
    </g>
   </g>
   <g id="line2d_33">
    <path d="M 793.8 575.669478 
L 793.8 207.607541 
" clip-path="url(#p0d883592cc)" style="fill: none; stroke: #3f3f3f; stroke-width: 1.875; stroke-linecap: square"/>
   </g>
   <g id="line2d_34">
    <path d="M 793.8 442.982482 
L 793.8 348.800885 
" clip-path="url(#p0d883592cc)" style="fill: none; stroke: #3f3f3f; stroke-width: 5.625; stroke-linecap: square"/>
   </g>
   <g id="line2d_35">
    <path d="M 793.8 398.380667 
" clip-path="url(#p0d883592cc)" style="fill: none; stroke: #3f3f3f; stroke-width: 1.5; stroke-linecap: square"/>
    <g clip-path="url(#p0d883592cc)">
     <use xlink:href="#m78fe34ffc7" x="793.8" y="398.380667" style="fill: #ffffff; stroke: #ffffff; stroke-width: 1.125"/>
    </g>
   </g>
   <g id="line2d_36">
    <path d="M 905.4 567.893785 
L 905.4 205.169905 
" clip-path="url(#p0d883592cc)" style="fill: none; stroke: #3f3f3f; stroke-width: 1.875; stroke-linecap: square"/>
   </g>
   <g id="line2d_37">
    <path d="M 905.4 438.814494 
L 905.4 345.30114 
" clip-path="url(#p0d883592cc)" style="fill: none; stroke: #3f3f3f; stroke-width: 5.625; stroke-linecap: square"/>
   </g>
   <g id="line2d_38">
    <path d="M 905.4 393.457091 
" clip-path="url(#p0d883592cc)" style="fill: none; stroke: #3f3f3f; stroke-width: 1.5; stroke-linecap: square"/>
    <g clip-path="url(#p0d883592cc)">
     <use xlink:href="#m78fe34ffc7" x="905.4" y="393.457091" style="fill: #ffffff; stroke: #ffffff; stroke-width: 1.125"/>
    </g>
   </g>
   <g id="line2d_39">
    <path d="M 1017 567.893785 
L 1017 202.72469 
" clip-path="url(#p0d883592cc)" style="fill: none; stroke: #3f3f3f; stroke-width: 1.875; stroke-linecap: square"/>
   </g>
   <g id="line2d_40">
    <path d="M 1017 437.021125 
L 1017 343.120981 
" clip-path="url(#p0d883592cc)" style="fill: none; stroke: #3f3f3f; stroke-width: 5.625; stroke-linecap: square"/>
   </g>
   <g id="line2d_41">
    <path d="M 1017 390.858553 
" clip-path="url(#p0d883592cc)" style="fill: none; stroke: #3f3f3f; stroke-width: 1.5; stroke-linecap: square"/>
    <g clip-path="url(#p0d883592cc)">
     <use xlink:href="#m78fe34ffc7" x="1017" y="390.858553" style="fill: #ffffff; stroke: #ffffff; stroke-width: 1.125"/>
    </g>
   </g>
   <g id="line2d_42">
    <path d="M 1128.6 567.893785 
L 1128.6 201.403518 
" clip-path="url(#p0d883592cc)" style="fill: none; stroke: #3f3f3f; stroke-width: 1.875; stroke-linecap: square"/>
   </g>
   <g id="line2d_43">
    <path d="M 1128.6 437.50353 
L 1128.6 342.958489 
" clip-path="url(#p0d883592cc)" style="fill: none; stroke: #3f3f3f; stroke-width: 5.625; stroke-linecap: square"/>
   </g>
   <g id="line2d_44">
    <path d="M 1128.6 392.38652 
" clip-path="url(#p0d883592cc)" style="fill: none; stroke: #3f3f3f; stroke-width: 1.5; stroke-linecap: square"/>
    <g clip-path="url(#p0d883592cc)">
     <use xlink:href="#m78fe34ffc7" x="1128.6" y="392.38652" style="fill: #ffffff; stroke: #ffffff; stroke-width: 1.125"/>
    </g>
   </g>
   <g id="line2d_45">
    <path d="M 1240.2 567.893785 
L 1240.2 202.962004 
" clip-path="url(#p0d883592cc)" style="fill: none; stroke: #3f3f3f; stroke-width: 1.875; stroke-linecap: square"/>
   </g>
   <g id="line2d_46">
    <path d="M 1240.2 435.150089 
L 1240.2 342.271099 
" clip-path="url(#p0d883592cc)" style="fill: none; stroke: #3f3f3f; stroke-width: 5.625; stroke-linecap: square"/>
   </g>
   <g id="line2d_47">
    <path d="M 1240.2 391.31945 
" clip-path="url(#p0d883592cc)" style="fill: none; stroke: #3f3f3f; stroke-width: 1.5; stroke-linecap: square"/>
    <g clip-path="url(#p0d883592cc)">
     <use xlink:href="#m78fe34ffc7" x="1240.2" y="391.31945" style="fill: #ffffff; stroke: #ffffff; stroke-width: 1.125"/>
    </g>
   </g>
   <g id="patch_3">
    <path d="M 180 640.8 
L 180 86.4 
" style="fill: none; stroke: #000000; stroke-width: 0.8; stroke-linejoin: miter; stroke-linecap: square"/>
   </g>
   <g id="patch_4">
    <path d="M 1296 640.8 
L 1296 86.4 
" style="fill: none; stroke: #000000; stroke-width: 0.8; stroke-linejoin: miter; stroke-linecap: square"/>
   </g>
   <g id="patch_5">
    <path d="M 180 640.8 
L 1296 640.8 
" style="fill: none; stroke: #000000; stroke-width: 0.8; stroke-linejoin: miter; stroke-linecap: square"/>
   </g>
   <g id="patch_6">
    <path d="M 180 86.4 
L 1296 86.4 
" style="fill: none; stroke: #000000; stroke-width: 0.8; stroke-linejoin: miter; stroke-linecap: square"/>
   </g>
   <g id="text_20">
    <!-- final cosine similarity of max_mem_5_fs_glit (betweenFinalsVariety), by iteration -->
    <g transform="translate(496.755938 80.4) scale(0.12 -0.12)">
     <defs>
      <path id="DejaVuSans-78" d="M 3513 3500 
L 2247 1797 
L 3578 0 
L 2900 0 
L 1881 1375 
L 863 0 
L 184 0 
L 1544 1831 
L 300 3500 
L 978 3500 
L 1906 2253 
L 2834 3500 
L 3513 3500 
z
" transform="scale(0.015625)"/>
      <path id="DejaVuSans-5f" d="M 3263 -1063 
L 3263 -1509 
L -63 -1509 
L -63 -1063 
L 3263 -1063 
z
" transform="scale(0.015625)"/>
      <path id="DejaVuSans-67" d="M 2906 1791 
Q 2906 2416 2648 2759 
Q 2391 3103 1925 3103 
Q 1463 3103 1205 2759 
Q 947 2416 947 1791 
Q 947 1169 1205 825 
Q 1463 481 1925 481 
Q 2391 481 2648 825 
Q 2906 1169 2906 1791 
z
M 3481 434 
Q 3481 -459 3084 -895 
Q 2688 -1331 1869 -1331 
Q 1566 -1331 1297 -1286 
Q 1028 -1241 775 -1147 
L 775 -588 
Q 1028 -725 1275 -790 
Q 1522 -856 1778 -856 
Q 2344 -856 2625 -561 
Q 2906 -266 2906 331 
L 2906 616 
Q 2728 306 2450 153 
Q 2172 0 1784 0 
Q 1141 0 747 490 
Q 353 981 353 1791 
Q 353 2603 747 3093 
Q 1141 3584 1784 3584 
Q 2172 3584 2450 3431 
Q 2728 3278 2906 2969 
L 2906 3500 
L 3481 3500 
L 3481 434 
z
" transform="scale(0.015625)"/>
      <path id="DejaVuSans-28" d="M 1984 4856 
Q 1566 4138 1362 3434 
Q 1159 2731 1159 2009 
Q 1159 1288 1364 580 
Q 1569 -128 1984 -844 
L 1484 -844 
Q 1016 -109 783 600 
Q 550 1309 550 2009 
Q 550 2706 781 3412 
Q 1013 4119 1484 4856 
L 1984 4856 
z
" transform="scale(0.015625)"/>
      <path id="DejaVuSans-62" d="M 3116 1747 
Q 3116 2381 2855 2742 
Q 2594 3103 2138 3103 
Q 1681 3103 1420 2742 
Q 1159 2381 1159 1747 
Q 1159 1113 1420 752 
Q 1681 391 2138 391 
Q 2594 391 2855 752 
Q 3116 1113 3116 1747 
z
M 1159 2969 
Q 1341 3281 1617 3432 
Q 1894 3584 2278 3584 
Q 2916 3584 3314 3078 
Q 3713 2572 3713 1747 
Q 3713 922 3314 415 
Q 2916 -91 2278 -91 
Q 1894 -91 1617 61 
Q 1341 213 1159 525 
L 1159 0 
L 581 0 
L 581 4863 
L 1159 4863 
L 1159 2969 
z
" transform="scale(0.015625)"/>
      <path id="DejaVuSans-77" d="M 269 3500 
L 844 3500 
L 1563 769 
L 2278 3500 
L 2956 3500 
L 3675 769 
L 4391 3500 
L 4966 3500 
L 4050 0 
L 3372 0 
L 2619 2869 
L 1863 0 
L 1184 0 
L 269 3500 
z
" transform="scale(0.015625)"/>
      <path id="DejaVuSans-46" d="M 628 4666 
L 3309 4666 
L 3309 4134 
L 1259 4134 
L 1259 2759 
L 3109 2759 
L 3109 2228 
L 1259 2228 
L 1259 0 
L 628 0 
L 628 4666 
z
" transform="scale(0.015625)"/>
      <path id="DejaVuSans-56" d="M 1831 0 
L 50 4666 
L 709 4666 
L 2188 738 
L 3669 4666 
L 4325 4666 
L 2547 0 
L 1831 0 
z
" transform="scale(0.015625)"/>
      <path id="DejaVuSans-29" d="M 513 4856 
L 1013 4856 
Q 1481 4119 1714 3412 
Q 1947 2706 1947 2009 
Q 1947 1309 1714 600 
Q 1481 -109 1013 -844 
L 513 -844 
Q 928 -128 1133 580 
Q 1338 1288 1338 2009 
Q 1338 2731 1133 3434 
Q 928 4138 513 4856 
z
" transform="scale(0.015625)"/>
      <path id="DejaVuSans-2c" d="M 750 794 
L 1409 794 
L 1409 256 
L 897 -744 
L 494 -744 
L 750 256 
L 750 794 
z
" transform="scale(0.015625)"/>
     </defs>
     <use xlink:href="#DejaVuSans-66"/>
     <use xlink:href="#DejaVuSans-69" x="35.205078"/>
     <use xlink:href="#DejaVuSans-6e" x="62.988281"/>
     <use xlink:href="#DejaVuSans-61" x="126.367188"/>
     <use xlink:href="#DejaVuSans-6c" x="187.646484"/>
     <use xlink:href="#DejaVuSans-20" x="215.429688"/>
     <use xlink:href="#DejaVuSans-63" x="247.216797"/>
     <use xlink:href="#DejaVuSans-6f" x="302.197266"/>
     <use xlink:href="#DejaVuSans-73" x="363.378906"/>
     <use xlink:href="#DejaVuSans-69" x="415.478516"/>
     <use xlink:href="#DejaVuSans-6e" x="443.261719"/>
     <use xlink:href="#DejaVuSans-65" x="506.640625"/>
     <use xlink:href="#DejaVuSans-20" x="568.164062"/>
     <use xlink:href="#DejaVuSans-73" x="599.951172"/>
     <use xlink:href="#DejaVuSans-69" x="652.050781"/>
     <use xlink:href="#DejaVuSans-6d" x="679.833984"/>
     <use xlink:href="#DejaVuSans-69" x="777.246094"/>
     <use xlink:href="#DejaVuSans-6c" x="805.029297"/>
     <use xlink:href="#DejaVuSans-61" x="832.8125"/>
     <use xlink:href="#DejaVuSans-72" x="894.091797"/>
     <use xlink:href="#DejaVuSans-69" x="935.205078"/>
     <use xlink:href="#DejaVuSans-74" x="962.988281"/>
     <use xlink:href="#DejaVuSans-79" x="1002.197266"/>
     <use xlink:href="#DejaVuSans-20" x="1061.376953"/>
     <use xlink:href="#DejaVuSans-6f" x="1093.164062"/>
     <use xlink:href="#DejaVuSans-66" x="1154.345703"/>
     <use xlink:href="#DejaVuSans-20" x="1189.550781"/>
     <use xlink:href="#DejaVuSans-6d" x="1221.337891"/>
     <use xlink:href="#DejaVuSans-61" x="1318.75"/>
     <use xlink:href="#DejaVuSans-78" x="1380.029297"/>
     <use xlink:href="#DejaVuSans-5f" x="1439.208984"/>
     <use xlink:href="#DejaVuSans-6d" x="1489.208984"/>
     <use xlink:href="#DejaVuSans-65" x="1586.621094"/>
     <use xlink:href="#DejaVuSans-6d" x="1648.144531"/>
     <use xlink:href="#DejaVuSans-5f" x="1745.556641"/>
     <use xlink:href="#DejaVuSans-35" x="1795.556641"/>
     <use xlink:href="#DejaVuSans-5f" x="1859.179688"/>
     <use xlink:href="#DejaVuSans-66" x="1909.179688"/>
     <use xlink:href="#DejaVuSans-73" x="1944.384766"/>
     <use xlink:href="#DejaVuSans-5f" x="1996.484375"/>
     <use xlink:href="#DejaVuSans-67" x="2046.484375"/>
     <use xlink:href="#DejaVuSans-6c" x="2109.960938"/>
     <use xlink:href="#DejaVuSans-69" x="2137.744141"/>
     <use xlink:href="#DejaVuSans-74" x="2165.527344"/>
     <use xlink:href="#DejaVuSans-20" x="2204.736328"/>
     <use xlink:href="#DejaVuSans-28" x="2236.523438"/>
     <use xlink:href="#DejaVuSans-62" x="2275.537109"/>
     <use xlink:href="#DejaVuSans-65" x="2339.013672"/>
     <use xlink:href="#DejaVuSans-74" x="2400.537109"/>
     <use xlink:href="#DejaVuSans-77" x="2439.746094"/>
     <use xlink:href="#DejaVuSans-65" x="2521.533203"/>
     <use xlink:href="#DejaVuSans-65" x="2583.056641"/>
     <use xlink:href="#DejaVuSans-6e" x="2644.580078"/>
     <use xlink:href="#DejaVuSans-46" x="2707.958984"/>
     <use xlink:href="#DejaVuSans-69" x="2758.228516"/>
     <use xlink:href="#DejaVuSans-6e" x="2786.011719"/>
     <use xlink:href="#DejaVuSans-61" x="2849.390625"/>
     <use xlink:href="#DejaVuSans-6c" x="2910.669922"/>
     <use xlink:href="#DejaVuSans-73" x="2938.453125"/>
     <use xlink:href="#DejaVuSans-56" x="2990.552734"/>
     <use xlink:href="#DejaVuSans-61" x="3051.210938"/>
     <use xlink:href="#DejaVuSans-72" x="3112.490234"/>
     <use xlink:href="#DejaVuSans-69" x="3153.603516"/>
     <use xlink:href="#DejaVuSans-65" x="3181.386719"/>
     <use xlink:href="#DejaVuSans-74" x="3242.910156"/>
     <use xlink:href="#DejaVuSans-79" x="3282.119141"/>
     <use xlink:href="#DejaVuSans-29" x="3341.298828"/>
     <use xlink:href="#DejaVuSans-2c" x="3380.3125"/>
     <use xlink:href="#DejaVuSans-20" x="3412.099609"/>
     <use xlink:href="#DejaVuSans-62" x="3443.886719"/>
     <use xlink:href="#DejaVuSans-79" x="3507.363281"/>
     <use xlink:href="#DejaVuSans-20" x="3566.542969"/>
     <use xlink:href="#DejaVuSans-69" x="3598.330078"/>
     <use xlink:href="#DejaVuSans-74" x="3626.113281"/>
     <use xlink:href="#DejaVuSans-65" x="3665.322266"/>
     <use xlink:href="#DejaVuSans-72" x="3726.845703"/>
     <use xlink:href="#DejaVuSans-61" x="3767.958984"/>
     <use xlink:href="#DejaVuSans-74" x="3829.238281"/>
     <use xlink:href="#DejaVuSans-69" x="3868.447266"/>
     <use xlink:href="#DejaVuSans-6f" x="3896.230469"/>
     <use xlink:href="#DejaVuSans-6e" x="3957.412109"/>
    </g>
   </g>
  </g>
 </g>
 <defs>
  <clipPath id="p0d883592cc">
   <rect x="180" y="86.4" width="1116" height="554.4"/>
  </clipPath>
 </defs>
</svg>
