<?xml version="1.0" encoding="utf-8" standalone="no"?>
<!DOCTYPE svg PUBLIC "-//W3C//DTD SVG 1.1//EN"
  "http://www.w3.org/Graphics/SVG/1.1/DTD/svg11.dtd">
<svg xmlns:xlink="http://www.w3.org/1999/xlink" width="1440pt" height="720pt" viewBox="0 0 1440 720" xmlns="http://www.w3.org/2000/svg" version="1.1">
 <metadata>
  <rdf:RDF xmlns:dc="http://purl.org/dc/elements/1.1/" xmlns:cc="http://creativecommons.org/ns#" xmlns:rdf="http://www.w3.org/1999/02/22-rdf-syntax-ns#">
   <cc:Work>
    <dc:type rdf:resource="http://purl.org/dc/dcmitype/StillImage"/>
    <dc:date>2024-07-07T16:20:02.681200</dc:date>
    <dc:format>image/svg+xml</dc:format>
    <dc:creator>
     <cc:Agent>
      <dc:title>Matplotlib v3.8.0, https://matplotlib.org/</dc:title>
     </cc:Agent>
    </dc:creator>
   </cc:Work>
  </rdf:RDF>
 </metadata>
 <defs>
  <style type="text/css">*{stroke-linejoin: round; stroke-linecap: butt}</style>
 </defs>
 <g id="figure_1">
  <g id="patch_1">
   <path d="M 0 720 
L 1440 720 
L 1440 0 
L 0 0 
z
" style="fill: #ffffff"/>
  </g>
  <g id="axes_1">
   <g id="patch_2">
    <path d="M 180 640.8 
L 1296 640.8 
L 1296 86.4 
L 180 86.4 
z
" style="fill: #ffffff"/>
   </g>
   <g id="PolyCollection_1">
    <defs>
     <path id="m2ac2310f93" d="M 235.802715 -104.4 
L 235.797285 -104.4 
L 235.793254 -109.101783 
L 235.787151 -113.803567 
L 235.781013 -118.50535 
L 235.777491 -123.207133 
L 235.776819 -127.908917 
L 235.77636 -132.6107 
L 235.773428 -137.312483 
L 235.765317 -142.014267 
L 235.743162 -146.71605 
L 235.685794 -151.417833 
L 235.561512 -156.119617 
L 235.337453 -160.8214 
L 234.986582 -165.523183 
L 234.480242 -170.224967 
L 233.767026 -174.92675 
L 232.763266 -179.628533 
L 231.388994 -184.330317 
L 229.635569 -189.0321 
L 227.579642 -193.733883 
L 225.298522 -198.435667 
L 222.793341 -203.13745 
L 220.041657 -207.839233 
L 217.107745 -212.541017 
L 214.139801 -217.2428 
L 211.253057 -221.944583 
L 208.470483 -226.646367 
L 205.795057 -231.34815 
L 203.280061 -236.049933 
L 200.979978 -240.751717 
L 198.877998 -245.4535 
L 196.943358 -250.155283 
L 195.242428 -254.857067 
L 193.891694 -259.55885 
L 192.897241 -264.260633 
L 192.142483 -268.962417 
L 191.548668 -273.6642 
L 191.17548 -278.365983 
L 191.16 -283.067767 
L 191.594412 -287.76955 
L 192.443748 -292.471333 
L 193.545038 -297.173116 
L 194.698549 -301.8749 
L 195.808663 -306.576683 
L 196.960155 -311.278466 
L 198.335285 -315.98025 
L 200.043346 -320.682033 
L 202.035061 -325.383816 
L 204.13645 -330.0856 
L 206.115309 -334.787383 
L 207.77815 -339.489166 
L 209.096914 -344.19095 
L 210.215611 -348.892733 
L 211.288312 -353.594516 
L 212.364124 -358.2963 
L 213.451378 -362.998083 
L 214.609448 -367.699866 
L 215.92601 -372.40165 
L 217.442276 -377.103433 
L 219.113932 -381.805216 
L 220.799272 -386.507 
L 222.29242 -391.208783 
L 223.44592 -395.910566 
L 224.289114 -400.61235 
L 224.993072 -405.314133 
L 225.71982 -410.015916 
L 226.525848 -414.7177 
L 227.379844 -419.419483 
L 228.223873 -424.121266 
L 229.016207 -428.82305 
L 229.745421 -433.524833 
L 230.421935 -438.226616 
L 231.055416 -442.9284 
L 231.634419 -447.630183 
L 232.133694 -452.331966 
L 232.551053 -457.03375 
L 232.924452 -461.735533 
L 233.292207 -466.437316 
L 233.647387 -471.1391 
L 233.956453 -475.840883 
L 234.213422 -480.542666 
L 234.447694 -485.24445 
L 234.681157 -489.946233 
L 234.901245 -494.648016 
L 235.080429 -499.3498 
L 235.207981 -504.051583 
L 235.297309 -508.753366 
L 235.369887 -513.45515 
L 235.437807 -518.156933 
L 235.501021 -522.858716 
L 235.556155 -527.5605 
L 235.601273 -532.262283 
L 235.633731 -536.964066 
L 235.653133 -541.66585 
L 235.667681 -546.367633 
L 235.689365 -551.069416 
L 235.721177 -555.7712 
L 235.75446 -560.472983 
L 235.779184 -565.174766 
L 235.792566 -569.87655 
L 235.807434 -569.87655 
L 235.807434 -569.87655 
L 235.820816 -565.174766 
L 235.84554 -560.472983 
L 235.878823 -555.7712 
L 235.910635 -551.069416 
L 235.932319 -546.367633 
L 235.946867 -541.66585 
L 235.966269 -536.964066 
L 235.998727 -532.262283 
L 236.043845 -527.5605 
L 236.098979 -522.858716 
L 236.162193 -518.156933 
L 236.230113 -513.45515 
L 236.302691 -508.753366 
L 236.392019 -504.051583 
L 236.519571 -499.3498 
L 236.698755 -494.648016 
L 236.918843 -489.946233 
L 237.152306 -485.24445 
L 237.386578 -480.542666 
L 237.643547 -475.840883 
L 237.952613 -471.1391 
L 238.307793 -466.437316 
L 238.675548 -461.735533 
L 239.048947 -457.03375 
L 239.466306 -452.331966 
L 239.965581 -447.630183 
L 240.544584 -442.9284 
L 241.178065 -438.226616 
L 241.854579 -433.524833 
L 242.583793 -428.82305 
L 243.376127 -424.121266 
L 244.220156 -419.419483 
L 245.074152 -414.7177 
L 245.88018 -410.015916 
L 246.606928 -405.314133 
L 247.310886 -400.61235 
L 248.15408 -395.910566 
L 249.30758 -391.208783 
L 250.800728 -386.507 
L 252.486068 -381.805216 
L 254.157724 -377.103433 
L 255.67399 -372.40165 
L 256.990552 -367.699866 
L 258.148622 -362.998083 
L 259.235876 -358.2963 
L 260.311688 -353.594516 
L 261.384389 -348.892733 
L 262.503086 -344.19095 
L 263.82185 -339.489166 
L 265.484691 -334.787383 
L 267.46355 -330.0856 
L 269.564939 -325.383816 
L 271.556654 -320.682033 
L 273.264715 -315.98025 
L 274.639845 -311.278466 
L 275.791337 -306.576683 
L 276.901451 -301.8749 
L 278.054962 -297.173116 
L 279.156252 -292.471333 
L 280.005588 -287.76955 
L 280.44 -283.067767 
L 280.42452 -278.365983 
L 280.051332 -273.6642 
L 279.457517 -268.962417 
L 278.702759 -264.260633 
L 277.708306 -259.55885 
L 276.357572 -254.857067 
L 274.656642 -250.155283 
L 272.722002 -245.4535 
L 270.620022 -240.751717 
L 268.319939 -236.049933 
L 265.804943 -231.34815 
L 263.129517 -226.646367 
L 260.346943 -221.944583 
L 257.460199 -217.2428 
L 254.492255 -212.541017 
L 251.558343 -207.839233 
L 248.806659 -203.13745 
L 246.301478 -198.435667 
L 244.020358 -193.733883 
L 241.964431 -189.0321 
L 240.211006 -184.330317 
L 238.836734 -179.628533 
L 237.832974 -174.92675 
L 237.119758 -170.224967 
L 236.613418 -165.523183 
L 236.262547 -160.8214 
L 236.038488 -156.119617 
L 235.914206 -151.417833 
L 235.856838 -146.71605 
L 235.834683 -142.014267 
L 235.826572 -137.312483 
L 235.82364 -132.6107 
L 235.823181 -127.908917 
L 235.822509 -123.207133 
L 235.818987 -118.50535 
L 235.812849 -113.803567 
L 235.806746 -109.101783 
L 235.802715 -104.4 
z
" style="stroke: #3f3f3f; stroke-width: 1.25"/>
    </defs>
    <g clip-path="url(#pabf594c681)">
     <use xlink:href="#m2ac2310f93" x="0" y="720" style="fill: #3274a1; stroke: #3f3f3f; stroke-width: 1.25"/>
    </g>
   </g>
   <g id="PolyCollection_2">
    <defs>
     <path id="mb8f357c0d8" d="M 347.416668 -139.621891 
L 347.383332 -139.621891 
L 347.351709 -144.14074 
L 347.282816 -148.659589 
L 347.158368 -153.178438 
L 346.968044 -157.697287 
L 346.711649 -162.216136 
L 346.38607 -166.734985 
L 345.963734 -171.253834 
L 345.383409 -175.772683 
L 344.567494 -180.291532 
L 343.45706 -184.81038 
L 342.0414 -189.329229 
L 340.364162 -193.848078 
L 338.502557 -198.366927 
L 336.530427 -202.885776 
L 334.487931 -207.404625 
L 332.380726 -211.923474 
L 330.207802 -216.442323 
L 327.983731 -220.961172 
L 325.726862 -225.480021 
L 323.439723 -229.99887 
L 321.128831 -234.517719 
L 318.849612 -239.036568 
L 316.715341 -243.555417 
L 314.851065 -248.074265 
L 313.32248 -252.593114 
L 312.077806 -257.111963 
L 310.959502 -261.630812 
L 309.820531 -266.149661 
L 308.65842 -270.66851 
L 307.621513 -275.187359 
L 306.875137 -279.706208 
L 306.474837 -284.225057 
L 306.369542 -288.743906 
L 306.491387 -293.262755 
L 306.804733 -297.781604 
L 307.285984 -302.300453 
L 307.913187 -306.819302 
L 308.689971 -311.33815 
L 309.640036 -315.856999 
L 310.762254 -320.375848 
L 312.014944 -324.894697 
L 313.339467 -329.413546 
L 314.668898 -333.932395 
L 315.924613 -338.451244 
L 317.04193 -342.970093 
L 318.01074 -347.488942 
L 318.890274 -352.007791 
L 319.783664 -356.52664 
L 320.779799 -361.045489 
L 321.905646 -365.564338 
L 323.144554 -370.083186 
L 324.492396 -374.602035 
L 325.957842 -379.120884 
L 327.500649 -383.639733 
L 329.010842 -388.158582 
L 330.378202 -392.677431 
L 331.570176 -397.19628 
L 332.626459 -401.715129 
L 333.594194 -406.233978 
L 334.494247 -410.752827 
L 335.34267 -415.271676 
L 336.171148 -419.790525 
L 337.012266 -424.309374 
L 337.877329 -428.828223 
L 338.753265 -433.347071 
L 339.608731 -437.86592 
L 340.400632 -442.384769 
L 341.092313 -446.903618 
L 341.683166 -451.422467 
L 342.222317 -455.941316 
L 342.781396 -460.460165 
L 343.398684 -464.979014 
L 344.043099 -469.497863 
L 344.635859 -474.016712 
L 345.11018 -478.535561 
L 345.451842 -483.05441 
L 345.693401 -487.573259 
L 345.884785 -492.092108 
L 346.068667 -496.610956 
L 346.266209 -501.129805 
L 346.472577 -505.648654 
L 346.665788 -510.167503 
L 346.824676 -514.686352 
L 346.942584 -519.205201 
L 347.028056 -523.72405 
L 347.095325 -528.242899 
L 347.153771 -532.761748 
L 347.204157 -537.280597 
L 347.242724 -541.799446 
L 347.267446 -546.318295 
L 347.280823 -550.837144 
L 347.288809 -555.355993 
L 347.298123 -559.874841 
L 347.313245 -564.39369 
L 347.334188 -568.912539 
L 347.356837 -573.431388 
L 347.376034 -577.950237 
L 347.388904 -582.469086 
L 347.395764 -586.987935 
L 347.404236 -586.987935 
L 347.404236 -586.987935 
L 347.411096 -582.469086 
L 347.423966 -577.950237 
L 347.443163 -573.431388 
L 347.465812 -568.912539 
L 347.486755 -564.39369 
L 347.501877 -559.874841 
L 347.511191 -555.355993 
L 347.519177 -550.837144 
L 347.532554 -546.318295 
L 347.557276 -541.799446 
L 347.595843 -537.280597 
L 347.646229 -532.761748 
L 347.704675 -528.242899 
L 347.771944 -523.72405 
L 347.857416 -519.205201 
L 347.975324 -514.686352 
L 348.134212 -510.167503 
L 348.327423 -505.648654 
L 348.533791 -501.129805 
L 348.731333 -496.610956 
L 348.915215 -492.092108 
L 349.106599 -487.573259 
L 349.348158 -483.05441 
L 349.68982 -478.535561 
L 350.164141 -474.016712 
L 350.756901 -469.497863 
L 351.401316 -464.979014 
L 352.018604 -460.460165 
L 352.577683 -455.941316 
L 353.116834 -451.422467 
L 353.707687 -446.903618 
L 354.399368 -442.384769 
L 355.191269 -437.86592 
L 356.046735 -433.347071 
L 356.922671 -428.828223 
L 357.787734 -424.309374 
L 358.628852 -419.790525 
L 359.45733 -415.271676 
L 360.305753 -410.752827 
L 361.205806 -406.233978 
L 362.173541 -401.715129 
L 363.229824 -397.19628 
L 364.421798 -392.677431 
L 365.789158 -388.158582 
L 367.299351 -383.639733 
L 368.842158 -379.120884 
L 370.307604 -374.602035 
L 371.655446 -370.083186 
L 372.894354 -365.564338 
L 374.020201 -361.045489 
L 375.016336 -356.52664 
L 375.909726 -352.007791 
L 376.78926 -347.488942 
L 377.75807 -342.970093 
L 378.875387 -338.451244 
L 380.131102 -333.932395 
L 381.460533 -329.413546 
L 382.785056 -324.894697 
L 384.037746 -320.375848 
L 385.159964 -315.856999 
L 386.110029 -311.33815 
L 386.886813 -306.819302 
L 387.514016 -302.300453 
L 387.995267 -297.781604 
L 388.308613 -293.262755 
L 388.430458 -288.743906 
L 388.325163 -284.225057 
L 387.924863 -279.706208 
L 387.178487 -275.187359 
L 386.14158 -270.66851 
L 384.979469 -266.149661 
L 383.840498 -261.630812 
L 382.722194 -257.111963 
L 381.47752 -252.593114 
L 379.948935 -248.074265 
L 378.084659 -243.555417 
L 375.950388 -239.036568 
L 373.671169 -234.517719 
L 371.360277 -229.99887 
L 369.073138 -225.480021 
L 366.816269 -220.961172 
L 364.592198 -216.442323 
L 362.419274 -211.923474 
L 360.312069 -207.404625 
L 358.269573 -202.885776 
L 356.297443 -198.366927 
L 354.435838 -193.848078 
L 352.7586 -189.329229 
L 351.34294 -184.81038 
L 350.232506 -180.291532 
L 349.416591 -175.772683 
L 348.836266 -171.253834 
L 348.41393 -166.734985 
L 348.088351 -162.216136 
L 347.831956 -157.697287 
L 347.641632 -153.178438 
L 347.517184 -148.659589 
L 347.448291 -144.14074 
L 347.416668 -139.621891 
z
" style="stroke: #3f3f3f; stroke-width: 1.25"/>
    </defs>
    <g clip-path="url(#pabf594c681)">
     <use xlink:href="#mb8f357c0d8" x="0" y="720" style="fill: #3274a1; stroke: #3f3f3f; stroke-width: 1.25"/>
    </g>
   </g>
   <g id="PolyCollection_3">
    <defs>
     <path id="mcc019a1cc5" d="M 459.005438 -133.672941 
L 458.994562 -133.672941 
L 458.983793 -138.254918 
L 458.957952 -142.836894 
L 458.903737 -147.418871 
L 458.80388 -152.000847 
L 458.641839 -156.582824 
L 458.406415 -161.1648 
L 458.088327 -165.746776 
L 457.667581 -170.328753 
L 457.104055 -174.910729 
L 456.344631 -179.492706 
L 455.345851 -184.074682 
L 454.098456 -188.656658 
L 452.635762 -193.238635 
L 451.013246 -197.820611 
L 449.273258 -202.402588 
L 447.436693 -206.984564 
L 445.536908 -211.566541 
L 443.643622 -216.148517 
L 441.821949 -220.730493 
L 440.057733 -225.31247 
L 438.23783 -229.894446 
L 436.227523 -234.476423 
L 433.989787 -239.058399 
L 431.636083 -243.640376 
L 429.353045 -248.222352 
L 427.277093 -252.804328 
L 425.439482 -257.386305 
L 423.810321 -261.968281 
L 422.361468 -266.550258 
L 421.083 -271.132234 
L 419.974894 -275.714211 
L 419.05542 -280.296187 
L 418.377087 -284.878163 
L 418.015421 -289.46014 
L 418.022062 -294.042116 
L 418.378027 -298.624093 
L 418.998725 -303.206069 
L 419.792393 -307.788046 
L 420.706038 -312.370022 
L 421.708001 -316.951998 
L 422.751137 -321.533975 
L 423.791566 -326.115951 
L 424.836494 -330.697928 
L 425.927729 -335.279904 
L 427.063417 -339.861881 
L 428.16457 -344.443857 
L 429.140765 -349.025833 
L 429.9823 -353.60781 
L 430.772544 -358.189786 
L 431.61423 -362.771763 
L 432.568832 -367.353739 
L 433.670274 -371.935716 
L 434.953617 -376.517692 
L 436.430917 -381.099668 
L 438.046988 -385.681645 
L 439.680076 -390.263621 
L 441.189563 -394.845598 
L 442.475028 -399.427574 
L 443.522873 -404.00955 
L 444.417915 -408.591527 
L 445.295415 -413.173503 
L 446.250946 -417.75548 
L 447.279042 -422.337456 
L 448.294777 -426.919433 
L 449.211118 -431.501409 
L 450.001013 -436.083385 
L 450.70721 -440.665362 
L 451.40736 -445.247338 
L 452.159959 -449.829315 
L 452.968416 -454.411291 
L 453.788785 -458.993268 
L 454.562773 -463.575244 
L 455.240114 -468.15722 
L 455.785033 -472.739197 
L 456.183515 -477.321173 
L 456.452557 -481.90315 
L 456.637331 -486.485126 
L 456.793644 -491.067103 
L 456.967793 -495.649079 
L 457.183757 -500.231055 
L 457.440581 -504.813032 
L 457.718739 -509.395008 
L 457.990914 -513.976985 
L 458.232557 -518.558961 
L 458.42965 -523.140938 
L 458.581223 -527.722914 
L 458.695299 -532.30489 
L 458.781359 -536.886867 
L 458.845538 -541.468843 
L 458.891162 -546.05082 
L 458.921083 -550.632796 
L 458.938534 -555.214773 
L 458.947493 -559.796749 
L 458.95315 -564.378725 
L 458.960374 -568.960702 
L 458.970733 -573.542678 
L 458.981981 -578.124655 
L 458.990952 -582.706631 
L 458.99633 -587.288608 
L 459.00367 -587.288608 
L 459.00367 -587.288608 
L 459.009048 -582.706631 
L 459.018019 -578.124655 
L 459.029267 -573.542678 
L 459.039626 -568.960702 
L 459.04685 -564.378725 
L 459.052507 -559.796749 
L 459.061466 -555.214773 
L 459.078917 -550.632796 
L 459.108838 -546.05082 
L 459.154462 -541.468843 
L 459.218641 -536.886867 
L 459.304701 -532.30489 
L 459.418777 -527.722914 
L 459.57035 -523.140938 
L 459.767443 -518.558961 
L 460.009086 -513.976985 
L 460.281261 -509.395008 
L 460.559419 -504.813032 
L 460.816243 -500.231055 
L 461.032207 -495.649079 
L 461.206356 -491.067103 
L 461.362669 -486.485126 
L 461.547443 -481.90315 
L 461.816485 -477.321173 
L 462.214967 -472.739197 
L 462.759886 -468.15722 
L 463.437227 -463.575244 
L 464.211215 -458.993268 
L 465.031584 -454.411291 
L 465.840041 -449.829315 
L 466.59264 -445.247338 
L 467.29279 -440.665362 
L 467.998987 -436.083385 
L 468.788882 -431.501409 
L 469.705223 -426.919433 
L 470.720958 -422.337456 
L 471.749054 -417.75548 
L 472.704585 -413.173503 
L 473.582085 -408.591527 
L 474.477127 -404.00955 
L 475.524972 -399.427574 
L 476.810437 -394.845598 
L 478.319924 -390.263621 
L 479.953012 -385.681645 
L 481.569083 -381.099668 
L 483.046383 -376.517692 
L 484.329726 -371.935716 
L 485.431168 -367.353739 
L 486.38577 -362.771763 
L 487.227456 -358.189786 
L 488.0177 -353.60781 
L 488.859235 -349.025833 
L 489.83543 -344.443857 
L 490.936583 -339.861881 
L 492.072271 -335.279904 
L 493.163506 -330.697928 
L 494.208434 -326.115951 
L 495.248863 -321.533975 
L 496.291999 -316.951998 
L 497.293962 -312.370022 
L 498.207607 -307.788046 
L 499.001275 -303.206069 
L 499.621973 -298.624093 
L 499.977938 -294.042116 
L 499.984579 -289.46014 
L 499.622913 -284.878163 
L 498.94458 -280.296187 
L 498.025106 -275.714211 
L 496.917 -271.132234 
L 495.638532 -266.550258 
L 494.189679 -261.968281 
L 492.560518 -257.386305 
L 490.722907 -252.804328 
L 488.646955 -248.222352 
L 486.363917 -243.640376 
L 484.010213 -239.058399 
L 481.772477 -234.476423 
L 479.76217 -229.894446 
L 477.942267 -225.31247 
L 476.178051 -220.730493 
L 474.356378 -216.148517 
L 472.463092 -211.566541 
L 470.563307 -206.984564 
L 468.726742 -202.402588 
L 466.986754 -197.820611 
L 465.364238 -193.238635 
L 463.901544 -188.656658 
L 462.654149 -184.074682 
L 461.655369 -179.492706 
L 460.895945 -174.910729 
L 460.332419 -170.328753 
L 459.911673 -165.746776 
L 459.593585 -161.1648 
L 459.358161 -156.582824 
L 459.19612 -152.000847 
L 459.096263 -147.418871 
L 459.042048 -142.836894 
L 459.016207 -138.254918 
L 459.005438 -133.672941 
z
" style="stroke: #3f3f3f; stroke-width: 1.25"/>
    </defs>
    <g clip-path="url(#pabf594c681)">
     <use xlink:href="#mcc019a1cc5" x="0" y="720" style="fill: #3274a1; stroke: #3f3f3f; stroke-width: 1.25"/>
    </g>
   </g>
   <g id="PolyCollection_4">
    <defs>
     <path id="m3d25a283c4" d="M 570.604413 -127.993178 
L 570.595587 -127.993178 
L 570.587376 -132.601244 
L 570.568271 -137.20931 
L 570.528551 -141.817375 
L 570.454299 -146.425441 
L 570.330572 -151.033507 
L 570.148674 -155.641573 
L 569.910717 -160.249638 
L 569.621163 -164.857704 
L 569.268218 -169.46577 
L 568.814916 -174.073836 
L 568.212049 -178.681902 
L 567.420336 -183.289967 
L 566.424686 -187.898033 
L 565.238725 -192.506099 
L 563.899476 -197.114165 
L 562.446356 -201.722231 
L 560.896686 -206.330296 
L 559.245741 -210.938362 
L 557.491501 -215.546428 
L 555.651225 -220.154494 
L 553.750142 -224.762559 
L 551.797593 -229.370625 
L 549.78153 -233.978691 
L 547.694574 -238.586757 
L 545.564692 -243.194823 
L 543.453691 -247.802888 
L 541.42789 -252.410954 
L 539.532733 -257.01902 
L 537.786899 -261.627086 
L 536.193949 -266.235151 
L 534.764307 -270.843217 
L 533.533487 -275.451283 
L 532.560904 -280.059349 
L 531.905072 -284.667415 
L 531.58885 -289.27548 
L 531.578745 -293.883546 
L 531.798 -298.491612 
L 532.173767 -303.099678 
L 532.682819 -307.707744 
L 533.341313 -312.315809 
L 534.138051 -316.923875 
L 534.994863 -321.531941 
L 535.817247 -326.140007 
L 536.572702 -330.748072 
L 537.29112 -335.356138 
L 537.999797 -339.964204 
L 538.700014 -344.57227 
L 539.414381 -349.180336 
L 540.213721 -353.788401 
L 541.153444 -358.396467 
L 542.185584 -363.004533 
L 543.180266 -367.612599 
L 544.069197 -372.220664 
L 544.942707 -376.82873 
L 545.96274 -381.436796 
L 547.193281 -386.044862 
L 548.553663 -390.652928 
L 549.92374 -395.260993 
L 551.251578 -399.869059 
L 552.560947 -404.477125 
L 553.895073 -409.085191 
L 555.26804 -413.693257 
L 556.645865 -418.301322 
L 557.954496 -422.909388 
L 559.113454 -427.517454 
L 560.078753 -432.12552 
L 560.868082 -436.733585 
L 561.555069 -441.341651 
L 562.233759 -445.949717 
L 562.967763 -450.557783 
L 563.757355 -455.165849 
L 564.551391 -459.773914 
L 565.290999 -464.38198 
L 565.944185 -468.990046 
L 566.507202 -473.598112 
L 566.985839 -478.206177 
L 567.383731 -482.814243 
L 567.706955 -487.422309 
L 567.973847 -492.030375 
L 568.215155 -496.638441 
L 568.459543 -501.246506 
L 568.71671 -505.854572 
L 568.976208 -510.462638 
L 569.221772 -515.070704 
L 569.44366 -519.67877 
L 569.640155 -524.286835 
L 569.81438 -528.894901 
L 569.971027 -533.502967 
L 570.112341 -538.111033 
L 570.236223 -542.719098 
L 570.339343 -547.327164 
L 570.420879 -551.93523 
L 570.482376 -556.543296 
L 570.526207 -561.151362 
L 570.555566 -565.759427 
L 570.574427 -570.367493 
L 570.586309 -574.975559 
L 570.593468 -579.583625 
L 570.597333 -584.191691 
L 570.602667 -584.191691 
L 570.602667 -584.191691 
L 570.606532 -579.583625 
L 570.613691 -574.975559 
L 570.625573 -570.367493 
L 570.644434 -565.759427 
L 570.673793 -561.151362 
L 570.717624 -556.543296 
L 570.779121 -551.93523 
L 570.860657 -547.327164 
L 570.963777 -542.719098 
L 571.087659 -538.111033 
L 571.228973 -533.502967 
L 571.38562 -528.894901 
L 571.559845 -524.286835 
L 571.75634 -519.67877 
L 571.978228 -515.070704 
L 572.223792 -510.462638 
L 572.48329 -505.854572 
L 572.740457 -501.246506 
L 572.984845 -496.638441 
L 573.226153 -492.030375 
L 573.493045 -487.422309 
L 573.816269 -482.814243 
L 574.214161 -478.206177 
L 574.692798 -473.598112 
L 575.255815 -468.990046 
L 575.909001 -464.38198 
L 576.648609 -459.773914 
L 577.442645 -455.165849 
L 578.232237 -450.557783 
L 578.966241 -445.949717 
L 579.644931 -441.341651 
L 580.331918 -436.733585 
L 581.121247 -432.12552 
L 582.086546 -427.517454 
L 583.245504 -422.909388 
L 584.554135 -418.301322 
L 585.93196 -413.693257 
L 587.304927 -409.085191 
L 588.639053 -404.477125 
L 589.948422 -399.869059 
L 591.27626 -395.260993 
L 592.646337 -390.652928 
L 594.006719 -386.044862 
L 595.23726 -381.436796 
L 596.257293 -376.82873 
L 597.130803 -372.220664 
L 598.019734 -367.612599 
L 599.014416 -363.004533 
L 600.046556 -358.396467 
L 600.986279 -353.788401 
L 601.785619 -349.180336 
L 602.499986 -344.57227 
L 603.200203 -339.964204 
L 603.90888 -335.356138 
L 604.627298 -330.748072 
L 605.382753 -326.140007 
L 606.205137 -321.531941 
L 607.061949 -316.923875 
L 607.858687 -312.315809 
L 608.517181 -307.707744 
L 609.026233 -303.099678 
L 609.402 -298.491612 
L 609.621255 -293.883546 
L 609.61115 -289.27548 
L 609.294928 -284.667415 
L 608.639096 -280.059349 
L 607.666513 -275.451283 
L 606.435693 -270.843217 
L 605.006051 -266.235151 
L 603.413101 -261.627086 
L 601.667267 -257.01902 
L 599.77211 -252.410954 
L 597.746309 -247.802888 
L 595.635308 -243.194823 
L 593.505426 -238.586757 
L 591.41847 -233.978691 
L 589.402407 -229.370625 
L 587.449858 -224.762559 
L 585.548775 -220.154494 
L 583.708499 -215.546428 
L 581.954259 -210.938362 
L 580.303314 -206.330296 
L 578.753644 -201.722231 
L 577.300524 -197.114165 
L 575.961275 -192.506099 
L 574.775314 -187.898033 
L 573.779664 -183.289967 
L 572.987951 -178.681902 
L 572.385084 -174.073836 
L 571.931782 -169.46577 
L 571.578837 -164.857704 
L 571.289283 -160.249638 
L 571.051326 -155.641573 
L 570.869428 -151.033507 
L 570.745701 -146.425441 
L 570.671449 -141.817375 
L 570.631729 -137.20931 
L 570.612624 -132.601244 
L 570.604413 -127.993178 
z
" style="stroke: #3f3f3f; stroke-width: 1.25"/>
    </defs>
    <g clip-path="url(#pabf594c681)">
     <use xlink:href="#m3d25a283c4" x="0" y="720" style="fill: #3274a1; stroke: #3f3f3f; stroke-width: 1.25"/>
    </g>
   </g>
   <g id="PolyCollection_5">
    <defs>
     <path id="m85131f5456" d="M 682.207174 -124.939818 
L 682.192826 -124.939818 
L 682.180174 -129.756383 
L 682.153863 -134.572948 
L 682.106448 -139.389513 
L 682.028542 -144.206078 
L 681.908064 -149.022643 
L 681.732432 -153.839208 
L 681.491617 -158.655773 
L 681.174118 -163.472338 
L 680.757925 -168.288903 
L 680.212261 -173.105468 
L 679.513376 -177.922033 
L 678.653929 -182.738598 
L 677.633421 -187.555163 
L 676.446158 -192.371728 
L 675.085204 -197.188293 
L 673.558421 -202.004858 
L 671.902484 -206.821423 
L 670.179104 -211.637988 
L 668.439508 -216.454553 
L 666.677958 -221.271118 
L 664.831082 -226.087683 
L 662.837791 -230.904248 
L 660.69717 -235.720813 
L 658.463878 -240.537378 
L 656.198954 -245.353943 
L 653.943566 -250.170508 
L 651.739267 -254.987073 
L 649.648063 -259.803638 
L 647.739672 -264.620203 
L 646.072663 -269.436768 
L 644.698101 -274.253333 
L 643.674688 -279.069898 
L 643.060965 -283.886463 
L 642.865962 -288.703028 
L 642.995842 -293.519593 
L 643.272992 -298.336158 
L 643.546647 -303.152723 
L 643.797456 -307.969288 
L 644.124325 -312.785853 
L 644.63523 -317.602418 
L 645.358178 -322.418983 
L 646.231836 -327.235548 
L 647.154143 -332.052112 
L 648.048283 -336.868677 
L 648.908569 -341.685242 
L 649.806498 -346.501807 
L 650.857711 -351.318372 
L 652.145402 -356.134937 
L 653.624148 -360.951502 
L 655.109059 -365.768067 
L 656.421212 -370.584632 
L 657.553927 -375.401197 
L 658.648018 -380.217762 
L 659.812096 -385.034327 
L 661.038589 -389.850892 
L 662.295662 -394.667457 
L 663.609663 -399.484022 
L 665.011804 -404.300587 
L 666.454428 -409.117152 
L 667.829145 -413.933717 
L 669.057995 -418.750282 
L 670.144902 -423.566847 
L 671.141664 -428.383412 
L 672.080744 -433.199977 
L 672.954513 -438.016542 
L 673.755121 -442.833107 
L 674.509961 -447.649672 
L 675.263594 -452.466237 
L 676.034224 -457.282802 
L 676.797021 -462.099367 
L 677.506236 -466.915932 
L 678.127301 -471.732497 
L 678.648832 -476.549062 
L 679.07554 -481.365627 
L 679.423125 -486.182192 
L 679.721155 -490.998757 
L 680.007947 -495.815322 
L 680.309073 -500.631887 
L 680.619217 -505.448452 
L 680.910501 -510.265017 
L 681.158498 -515.081582 
L 681.357973 -519.898147 
L 681.51895 -524.714712 
L 681.655513 -529.531277 
L 681.777651 -534.347842 
L 681.887216 -539.164407 
L 681.979241 -543.980972 
L 682.048931 -548.797537 
L 682.097507 -553.614102 
L 682.130755 -558.430667 
L 682.153723 -563.247232 
L 682.168387 -568.063797 
L 682.175633 -572.880362 
L 682.178003 -577.696927 
L 682.179597 -582.513492 
L 682.183279 -587.330057 
L 682.188788 -592.146622 
L 682.194023 -596.963187 
L 682.197491 -601.779752 
L 682.202509 -601.779752 
L 682.202509 -601.779752 
L 682.205977 -596.963187 
L 682.211212 -592.146622 
L 682.216721 -587.330057 
L 682.220403 -582.513492 
L 682.221997 -577.696927 
L 682.224367 -572.880362 
L 682.231613 -568.063797 
L 682.246277 -563.247232 
L 682.269245 -558.430667 
L 682.302493 -553.614102 
L 682.351069 -548.797537 
L 682.420759 -543.980972 
L 682.512784 -539.164407 
L 682.622349 -534.347842 
L 682.744487 -529.531277 
L 682.88105 -524.714712 
L 683.042027 -519.898147 
L 683.241502 -515.081582 
L 683.489499 -510.265017 
L 683.780783 -505.448452 
L 684.090927 -500.631887 
L 684.392053 -495.815322 
L 684.678845 -490.998757 
L 684.976875 -486.182192 
L 685.32446 -481.365627 
L 685.751168 -476.549062 
L 686.272699 -471.732497 
L 686.893764 -466.915932 
L 687.602979 -462.099367 
L 688.365776 -457.282802 
L 689.136406 -452.466237 
L 689.890039 -447.649672 
L 690.644879 -442.833107 
L 691.445487 -438.016542 
L 692.319256 -433.199977 
L 693.258336 -428.383412 
L 694.255098 -423.566847 
L 695.342005 -418.750282 
L 696.570855 -413.933717 
L 697.945572 -409.117152 
L 699.388196 -404.300587 
L 700.790337 -399.484022 
L 702.104338 -394.667457 
L 703.361411 -389.850892 
L 704.587904 -385.034327 
L 705.751982 -380.217762 
L 706.846073 -375.401197 
L 707.978788 -370.584632 
L 709.290941 -365.768067 
L 710.775852 -360.951502 
L 712.254598 -356.134937 
L 713.542289 -351.318372 
L 714.593502 -346.501807 
L 715.491431 -341.685242 
L 716.351717 -336.868677 
L 717.245857 -332.052112 
L 718.168164 -327.235548 
L 719.041822 -322.418983 
L 719.76477 -317.602418 
L 720.275675 -312.785853 
L 720.602544 -307.969288 
L 720.853353 -303.152723 
L 721.127008 -298.336158 
L 721.404158 -293.519593 
L 721.534038 -288.703028 
L 721.339035 -283.886463 
L 720.725312 -279.069898 
L 719.701899 -274.253333 
L 718.327337 -269.436768 
L 716.660328 -264.620203 
L 714.751937 -259.803638 
L 712.660733 -254.987073 
L 710.456434 -250.170508 
L 708.201046 -245.353943 
L 705.936122 -240.537378 
L 703.70283 -235.720813 
L 701.562209 -230.904248 
L 699.568918 -226.087683 
L 697.722042 -221.271118 
L 695.960492 -216.454553 
L 694.220896 -211.637988 
L 692.497516 -206.821423 
L 690.841579 -202.004858 
L 689.314796 -197.188293 
L 687.953842 -192.371728 
L 686.766579 -187.555163 
L 685.746071 -182.738598 
L 684.886624 -177.922033 
L 684.187739 -173.105468 
L 683.642075 -168.288903 
L 683.225882 -163.472338 
L 682.908383 -158.655773 
L 682.667568 -153.839208 
L 682.491936 -149.022643 
L 682.371458 -144.206078 
L 682.293552 -139.389513 
L 682.246137 -134.572948 
L 682.219826 -129.756383 
L 682.207174 -124.939818 
z
" style="stroke: #3f3f3f; stroke-width: 1.25"/>
    </defs>
    <g clip-path="url(#pabf594c681)">
     <use xlink:href="#m85131f5456" x="0" y="720" style="fill: #3274a1; stroke: #3f3f3f; stroke-width: 1.25"/>
    </g>
   </g>
   <g id="PolyCollection_6">
    <defs>
     <path id="ma90dd5d90d" d="M 793.803738 -125.148886 
L 793.796262 -125.148886 
L 793.789062 -129.96491 
L 793.772401 -134.780934 
L 793.738671 -139.596958 
L 793.677847 -144.412981 
L 793.578751 -149.229005 
L 793.430701 -154.045029 
L 793.224088 -158.861053 
L 792.949097 -163.677077 
L 792.593106 -168.4931 
L 792.13716 -173.309124 
L 791.550845 -178.125148 
L 790.787961 -182.941172 
L 789.794246 -187.757195 
L 788.536303 -192.573219 
L 787.033358 -197.389243 
L 785.355215 -202.205267 
L 783.585173 -207.021291 
L 781.789356 -211.837314 
L 780.010866 -216.653338 
L 778.26285 -221.469362 
L 776.510479 -226.285386 
L 774.677014 -231.101409 
L 772.701254 -235.917433 
L 770.60729 -240.733457 
L 768.506345 -245.549481 
L 766.507978 -250.365504 
L 764.628602 -255.181528 
L 762.810189 -259.997552 
L 761.032887 -264.813576 
L 759.37536 -269.6296 
L 757.957492 -274.445623 
L 756.873388 -279.261647 
L 756.188006 -284.077671 
L 755.920322 -288.893695 
L 755.980384 -293.709718 
L 756.170059 -298.525742 
L 756.301018 -303.341766 
L 756.316344 -308.15779 
L 756.305015 -312.973813 
L 756.428471 -317.789837 
L 756.819873 -322.605861 
L 757.501075 -327.421885 
L 758.3756 -332.237909 
L 759.305033 -337.053932 
L 760.194081 -341.869956 
L 761.038505 -346.68598 
L 761.935833 -351.502004 
L 763.024619 -356.318027 
L 764.354503 -361.134051 
L 765.813964 -365.950075 
L 767.216262 -370.766099 
L 768.450472 -375.582123 
L 769.538266 -380.398146 
L 770.577937 -385.21417 
L 771.663068 -390.030194 
L 772.835534 -394.846218 
L 774.090315 -399.662241 
L 775.415994 -404.478265 
L 776.808473 -409.294289 
L 778.229972 -414.110313 
L 779.588862 -418.926336 
L 780.801047 -423.74236 
L 781.860816 -428.558384 
L 782.827383 -433.374408 
L 783.755355 -438.190432 
L 784.656529 -443.006455 
L 785.515595 -447.822479 
L 786.321635 -452.638503 
L 787.080681 -457.454527 
L 787.804468 -462.27055 
L 788.49532 -467.086574 
L 789.145476 -471.902598 
L 789.744403 -476.718622 
L 790.280984 -481.534646 
L 790.746212 -486.350669 
L 791.143627 -491.166693 
L 791.494649 -495.982717 
L 791.826703 -500.798741 
L 792.155124 -505.614764 
L 792.475528 -510.430788 
L 792.769079 -515.246812 
L 793.015859 -520.062836 
L 793.208406 -524.878859 
L 793.353519 -529.694883 
L 793.461822 -534.510907 
L 793.540194 -539.326931 
L 793.594484 -544.142955 
L 793.633184 -548.958978 
L 793.664819 -553.775002 
L 793.693677 -558.591026 
L 793.719572 -563.40705 
L 793.740619 -568.223073 
L 793.755765 -573.039097 
L 793.765951 -577.855121 
L 793.773666 -582.671145 
L 793.781013 -587.487168 
L 793.788148 -592.303192 
L 793.793893 -597.119216 
L 793.797467 -601.93524 
L 793.802533 -601.93524 
L 793.802533 -601.93524 
L 793.806107 -597.119216 
L 793.811852 -592.303192 
L 793.818987 -587.487168 
L 793.826334 -582.671145 
L 793.834049 -577.855121 
L 793.844235 -573.039097 
L 793.859381 -568.223073 
L 793.880428 -563.40705 
L 793.906323 -558.591026 
L 793.935181 -553.775002 
L 793.966816 -548.958978 
L 794.005516 -544.142955 
L 794.059806 -539.326931 
L 794.138178 -534.510907 
L 794.246481 -529.694883 
L 794.391594 -524.878859 
L 794.584141 -520.062836 
L 794.830921 -515.246812 
L 795.124472 -510.430788 
L 795.444876 -505.614764 
L 795.773297 -500.798741 
L 796.105351 -495.982717 
L 796.456373 -491.166693 
L 796.853788 -486.350669 
L 797.319016 -481.534646 
L 797.855597 -476.718622 
L 798.454524 -471.902598 
L 799.10468 -467.086574 
L 799.795532 -462.27055 
L 800.519319 -457.454527 
L 801.278365 -452.638503 
L 802.084405 -447.822479 
L 802.943471 -443.006455 
L 803.844645 -438.190432 
L 804.772617 -433.374408 
L 805.739184 -428.558384 
L 806.798953 -423.74236 
L 808.011138 -418.926336 
L 809.370028 -414.110313 
L 810.791527 -409.294289 
L 812.184006 -404.478265 
L 813.509685 -399.662241 
L 814.764466 -394.846218 
L 815.936932 -390.030194 
L 817.022063 -385.21417 
L 818.061734 -380.398146 
L 819.149528 -375.582123 
L 820.383738 -370.766099 
L 821.786036 -365.950075 
L 823.245497 -361.134051 
L 824.575381 -356.318027 
L 825.664167 -351.502004 
L 826.561495 -346.68598 
L 827.405919 -341.869956 
L 828.294967 -337.053932 
L 829.2244 -332.237909 
L 830.098925 -327.421885 
L 830.780127 -322.605861 
L 831.171529 -317.789837 
L 831.294985 -312.973813 
L 831.283656 -308.15779 
L 831.298982 -303.341766 
L 831.429941 -298.525742 
L 831.619616 -293.709718 
L 831.679678 -288.893695 
L 831.411994 -284.077671 
L 830.726612 -279.261647 
L 829.642508 -274.445623 
L 828.22464 -269.6296 
L 826.567113 -264.813576 
L 824.789811 -259.997552 
L 822.971398 -255.181528 
L 821.092022 -250.365504 
L 819.093655 -245.549481 
L 816.99271 -240.733457 
L 814.898746 -235.917433 
L 812.922986 -231.101409 
L 811.089521 -226.285386 
L 809.33715 -221.469362 
L 807.589134 -216.653338 
L 805.810644 -211.837314 
L 804.014827 -207.021291 
L 802.244785 -202.205267 
L 800.566642 -197.389243 
L 799.063697 -192.573219 
L 797.805754 -187.757195 
L 796.812039 -182.941172 
L 796.049155 -178.125148 
L 795.46284 -173.309124 
L 795.006894 -168.4931 
L 794.650903 -163.677077 
L 794.375912 -158.861053 
L 794.169299 -154.045029 
L 794.021249 -149.229005 
L 793.922153 -144.412981 
L 793.861329 -139.596958 
L 793.827599 -134.780934 
L 793.810938 -129.96491 
L 793.803738 -125.148886 
z
" style="stroke: #3f3f3f; stroke-width: 1.25"/>
    </defs>
    <g clip-path="url(#pabf594c681)">
     <use xlink:href="#ma90dd5d90d" x="0" y="720" style="fill: #3274a1; stroke: #3f3f3f; stroke-width: 1.25"/>
    </g>
   </g>
   <g id="PolyCollection_7">
    <defs>
     <path id="m39e240629b" d="M 905.408136 -130.970873 
L 905.391864 -130.970873 
L 905.376129 -135.726846 
L 905.34158 -140.482819 
L 905.278416 -145.238791 
L 905.179097 -149.994764 
L 905.037803 -154.750736 
L 904.844363 -159.506709 
L 904.578413 -164.262681 
L 904.211939 -169.018654 
L 903.718388 -173.774626 
L 903.076129 -178.530599 
L 902.263741 -183.286571 
L 901.263134 -188.042544 
L 900.075736 -192.798516 
L 898.728696 -197.554489 
L 897.258323 -202.310461 
L 895.695403 -207.066434 
L 894.07104 -211.822406 
L 892.420071 -216.578379 
L 890.759427 -221.334351 
L 889.063866 -226.090324 
L 887.276212 -230.846296 
L 885.35197 -235.602269 
L 883.306958 -240.358241 
L 881.235887 -245.114214 
L 879.271741 -249.870187 
L 877.49128 -254.626159 
L 875.85347 -259.382132 
L 874.252885 -264.138104 
L 872.635626 -268.894077 
L 871.059587 -273.650049 
L 869.673143 -278.406022 
L 868.651482 -283.161994 
L 868.096705 -287.917967 
L 867.939322 -292.673939 
L 867.956068 -297.429912 
L 867.92844 -302.185884 
L 867.787232 -306.941857 
L 867.615284 -311.697829 
L 867.562153 -316.453802 
L 867.763497 -321.209774 
L 868.273486 -325.965747 
L 869.025621 -330.721719 
L 869.875512 -335.477692 
L 870.705244 -340.233664 
L 871.496734 -344.989637 
L 872.326091 -349.74561 
L 873.300284 -354.501582 
L 874.476382 -359.257555 
L 875.809674 -364.013527 
L 877.175073 -368.7695 
L 878.459401 -373.525472 
L 879.653273 -378.281445 
L 880.855772 -383.037417 
L 882.175778 -387.79339 
L 883.616105 -392.549362 
L 885.057207 -397.305335 
L 886.361836 -402.061307 
L 887.490409 -406.81728 
L 888.511699 -411.573252 
L 889.524394 -416.329225 
L 890.591727 -421.085197 
L 891.732896 -425.84117 
L 892.931217 -430.597142 
L 894.133986 -435.353115 
L 895.271443 -440.109087 
L 896.301053 -444.86506 
L 897.229238 -449.621032 
L 898.084238 -454.377005 
L 898.881184 -459.132978 
L 899.621566 -463.88895 
L 900.310684 -468.644923 
L 900.957642 -473.400895 
L 901.561061 -478.156868 
L 902.107699 -482.91284 
L 902.588503 -487.668813 
L 903.009914 -492.424785 
L 903.386818 -497.180758 
L 903.730276 -501.93673 
L 904.045629 -506.692703 
L 904.334814 -511.448675 
L 904.592908 -516.204648 
L 904.807118 -520.96062 
L 904.966072 -525.716593 
L 905.069635 -530.472565 
L 905.129521 -535.228538 
L 905.163433 -539.98451 
L 905.188088 -544.740483 
L 905.214189 -549.496455 
L 905.245609 -554.252428 
L 905.281391 -559.0084 
L 905.317098 -563.764373 
L 905.346373 -568.520346 
L 905.364906 -573.276318 
L 905.373865 -578.032291 
L 905.378477 -582.788263 
L 905.383208 -587.544236 
L 905.388912 -592.300208 
L 905.394088 -597.056181 
L 905.397494 -601.812153 
L 905.402506 -601.812153 
L 905.402506 -601.812153 
L 905.405912 -597.056181 
L 905.411088 -592.300208 
L 905.416792 -587.544236 
L 905.421523 -582.788263 
L 905.426135 -578.032291 
L 905.435094 -573.276318 
L 905.453627 -568.520346 
L 905.482902 -563.764373 
L 905.518609 -559.0084 
L 905.554391 -554.252428 
L 905.585811 -549.496455 
L 905.611912 -544.740483 
L 905.636567 -539.98451 
L 905.670479 -535.228538 
L 905.730365 -530.472565 
L 905.833928 -525.716593 
L 905.992882 -520.96062 
L 906.207092 -516.204648 
L 906.465186 -511.448675 
L 906.754371 -506.692703 
L 907.069724 -501.93673 
L 907.413182 -497.180758 
L 907.790086 -492.424785 
L 908.211497 -487.668813 
L 908.692301 -482.91284 
L 909.238939 -478.156868 
L 909.842358 -473.400895 
L 910.489316 -468.644923 
L 911.178434 -463.88895 
L 911.918816 -459.132978 
L 912.715762 -454.377005 
L 913.570762 -449.621032 
L 914.498947 -444.86506 
L 915.528557 -440.109087 
L 916.666014 -435.353115 
L 917.868783 -430.597142 
L 919.067104 -425.84117 
L 920.208273 -421.085197 
L 921.275606 -416.329225 
L 922.288301 -411.573252 
L 923.309591 -406.81728 
L 924.438164 -402.061307 
L 925.742793 -397.305335 
L 927.183895 -392.549362 
L 928.624222 -387.79339 
L 929.944228 -383.037417 
L 931.146727 -378.281445 
L 932.340599 -373.525472 
L 933.624927 -368.7695 
L 934.990326 -364.013527 
L 936.323618 -359.257555 
L 937.499716 -354.501582 
L 938.473909 -349.74561 
L 939.303266 -344.989637 
L 940.094756 -340.233664 
L 940.924488 -335.477692 
L 941.774379 -330.721719 
L 942.526514 -325.965747 
L 943.036503 -321.209774 
L 943.237847 -316.453802 
L 943.184716 -311.697829 
L 943.012768 -306.941857 
L 942.87156 -302.185884 
L 942.843932 -297.429912 
L 942.860678 -292.673939 
L 942.703295 -287.917967 
L 942.148518 -283.161994 
L 941.126857 -278.406022 
L 939.740413 -273.650049 
L 938.164374 -268.894077 
L 936.547115 -264.138104 
L 934.94653 -259.382132 
L 933.30872 -254.626159 
L 931.528259 -249.870187 
L 929.564113 -245.114214 
L 927.493042 -240.358241 
L 925.44803 -235.602269 
L 923.523788 -230.846296 
L 921.736134 -226.090324 
L 920.040573 -221.334351 
L 918.379929 -216.578379 
L 916.72896 -211.822406 
L 915.104597 -207.066434 
L 913.541677 -202.310461 
L 912.071304 -197.554489 
L 910.724264 -192.798516 
L 909.536866 -188.042544 
L 908.536259 -183.286571 
L 907.723871 -178.530599 
L 907.081612 -173.774626 
L 906.588061 -169.018654 
L 906.221587 -164.262681 
L 905.955637 -159.506709 
L 905.762197 -154.750736 
L 905.620903 -149.994764 
L 905.521584 -145.238791 
L 905.45842 -140.482819 
L 905.423871 -135.726846 
L 905.408136 -130.970873 
z
" style="stroke: #3f3f3f; stroke-width: 1.25"/>
    </defs>
    <g clip-path="url(#pabf594c681)">
     <use xlink:href="#m39e240629b" x="0" y="720" style="fill: #3274a1; stroke: #3f3f3f; stroke-width: 1.25"/>
    </g>
   </g>
   <g id="PolyCollection_8">
    <defs>
     <path id="m9b26e0e6f1" d="M 1017.008024 -130.561394 
L 1016.991976 -130.561394 
L 1016.976587 -135.388046 
L 1016.942914 -140.214699 
L 1016.881656 -145.041352 
L 1016.786553 -149.868004 
L 1016.65489 -154.694657 
L 1016.481224 -159.521309 
L 1016.247508 -164.347962 
L 1015.919716 -169.174615 
L 1015.458494 -174.001267 
L 1014.83667 -178.82792 
L 1014.046177 -183.654572 
L 1013.089433 -188.481225 
L 1011.968124 -193.307878 
L 1010.677272 -198.13453 
L 1009.203362 -202.961183 
L 1007.536164 -207.787835 
L 1005.697922 -212.614488 
L 1003.756237 -217.44114 
L 1001.791336 -222.267793 
L 999.853347 -227.094446 
L 997.963679 -231.921098 
L 996.147103 -236.747751 
L 994.442401 -241.574403 
L 992.881952 -246.401056 
L 991.461342 -251.227709 
L 990.114704 -256.054361 
L 988.731682 -260.881014 
L 987.244569 -265.707666 
L 985.718256 -270.534319 
L 984.330417 -275.360972 
L 983.249134 -280.187624 
L 982.532666 -285.014277 
L 982.121535 -289.840929 
L 981.886313 -294.667582 
L 981.68567 -299.494234 
L 981.418986 -304.320887 
L 981.059671 -309.14754 
L 980.662945 -313.974192 
L 980.346654 -318.800845 
L 980.234244 -323.627497 
L 980.38093 -328.45415 
L 980.748803 -333.280803 
L 981.259498 -338.107455 
L 981.871272 -342.934108 
L 982.607531 -347.76076 
L 983.518965 -352.587413 
L 984.625527 -357.414065 
L 985.894247 -362.240718 
L 987.264478 -367.067371 
L 988.686468 -371.894023 
L 990.133348 -376.720676 
L 991.582204 -381.547328 
L 992.996342 -386.373981 
L 994.330825 -391.200634 
L 995.548541 -396.027286 
L 996.634539 -400.853939 
L 997.61343 -405.680591 
L 998.554712 -410.507244 
L 999.540121 -415.333897 
L 1000.61609 -420.160549 
L 1001.780663 -424.987202 
L 1003.001507 -429.813854 
L 1004.230216 -434.640507 
L 1005.418454 -439.467159 
L 1006.547467 -444.293812 
L 1007.633041 -449.120465 
L 1008.685716 -453.947117 
L 1009.681381 -458.77377 
L 1010.58472 -463.600422 
L 1011.3846 -468.427075 
L 1012.092824 -473.253728 
L 1012.721703 -478.08038 
L 1013.276984 -482.907033 
L 1013.767379 -487.733685 
L 1014.208603 -492.560338 
L 1014.614828 -497.386991 
L 1014.991863 -502.213643 
L 1015.340011 -507.040296 
L 1015.656896 -511.866948 
L 1015.936303 -516.693601 
L 1016.170776 -521.520253 
L 1016.356705 -526.346906 
L 1016.495017 -531.173559 
L 1016.590994 -536.000211 
L 1016.65623 -540.826864 
L 1016.706481 -545.653516 
L 1016.754463 -550.480169 
L 1016.805361 -555.306822 
L 1016.857471 -560.133474 
L 1016.904409 -564.960127 
L 1016.938551 -569.786779 
L 1016.956379 -574.613432 
L 1016.961691 -579.440084 
L 1016.962908 -584.266737 
L 1016.966908 -589.09339 
L 1016.975127 -593.920042 
L 1016.984722 -598.746695 
L 1016.992409 -603.573347 
L 1016.996963 -608.4 
L 1017.003037 -608.4 
L 1017.003037 -608.4 
L 1017.007591 -603.573347 
L 1017.015278 -598.746695 
L 1017.024873 -593.920042 
L 1017.033092 -589.09339 
L 1017.037092 -584.266737 
L 1017.038309 -579.440084 
L 1017.043621 -574.613432 
L 1017.061449 -569.786779 
L 1017.095591 -564.960127 
L 1017.142529 -560.133474 
L 1017.194639 -555.306822 
L 1017.245537 -550.480169 
L 1017.293519 -545.653516 
L 1017.34377 -540.826864 
L 1017.409006 -536.000211 
L 1017.504983 -531.173559 
L 1017.643295 -526.346906 
L 1017.829224 -521.520253 
L 1018.063697 -516.693601 
L 1018.343104 -511.866948 
L 1018.659989 -507.040296 
L 1019.008137 -502.213643 
L 1019.385172 -497.386991 
L 1019.791397 -492.560338 
L 1020.232621 -487.733685 
L 1020.723016 -482.907033 
L 1021.278297 -478.08038 
L 1021.907176 -473.253728 
L 1022.6154 -468.427075 
L 1023.41528 -463.600422 
L 1024.318619 -458.77377 
L 1025.314284 -453.947117 
L 1026.366959 -449.120465 
L 1027.452533 -444.293812 
L 1028.581546 -439.467159 
L 1029.769784 -434.640507 
L 1030.998493 -429.813854 
L 1032.219337 -424.987202 
L 1033.38391 -420.160549 
L 1034.459879 -415.333897 
L 1035.445288 -410.507244 
L 1036.38657 -405.680591 
L 1037.365461 -400.853939 
L 1038.451459 -396.027286 
L 1039.669175 -391.200634 
L 1041.003658 -386.373981 
L 1042.417796 -381.547328 
L 1043.866652 -376.720676 
L 1045.313532 -371.894023 
L 1046.735522 -367.067371 
L 1048.105753 -362.240718 
L 1049.374473 -357.414065 
L 1050.481035 -352.587413 
L 1051.392469 -347.76076 
L 1052.128728 -342.934108 
L 1052.740502 -338.107455 
L 1053.251197 -333.280803 
L 1053.61907 -328.45415 
L 1053.765756 -323.627497 
L 1053.653346 -318.800845 
L 1053.337055 -313.974192 
L 1052.940329 -309.14754 
L 1052.581014 -304.320887 
L 1052.31433 -299.494234 
L 1052.113687 -294.667582 
L 1051.878465 -289.840929 
L 1051.467334 -285.014277 
L 1050.750866 -280.187624 
L 1049.669583 -275.360972 
L 1048.281744 -270.534319 
L 1046.755431 -265.707666 
L 1045.268318 -260.881014 
L 1043.885296 -256.054361 
L 1042.538658 -251.227709 
L 1041.118048 -246.401056 
L 1039.557599 -241.574403 
L 1037.852897 -236.747751 
L 1036.036321 -231.921098 
L 1034.146653 -227.094446 
L 1032.208664 -222.267793 
L 1030.243763 -217.44114 
L 1028.302078 -212.614488 
L 1026.463836 -207.787835 
L 1024.796638 -202.961183 
L 1023.322728 -198.13453 
L 1022.031876 -193.307878 
L 1020.910567 -188.481225 
L 1019.953823 -183.654572 
L 1019.16333 -178.82792 
L 1018.541506 -174.001267 
L 1018.080284 -169.174615 
L 1017.752492 -164.347962 
L 1017.518776 -159.521309 
L 1017.34511 -154.694657 
L 1017.213447 -149.868004 
L 1017.118344 -145.041352 
L 1017.057086 -140.214699 
L 1017.023413 -135.388046 
L 1017.008024 -130.561394 
z
" style="stroke: #3f3f3f; stroke-width: 1.25"/>
    </defs>
    <g clip-path="url(#pabf594c681)">
     <use xlink:href="#m9b26e0e6f1" x="0" y="720" style="fill: #3274a1; stroke: #3f3f3f; stroke-width: 1.25"/>
    </g>
   </g>
   <g id="PolyCollection_9">
    <defs>
     <path id="m6ca31eb9a8" d="M 1128.609862 -130.71797 
L 1128.590138 -130.71797 
L 1128.570776 -135.54146 
L 1128.528758 -140.364949 
L 1128.455279 -145.188439 
L 1128.350037 -150.011928 
L 1128.221236 -154.835418 
L 1128.073009 -159.658907 
L 1127.888201 -164.482396 
L 1127.622124 -169.305886 
L 1127.214367 -174.129375 
L 1126.61141 -178.952865 
L 1125.786225 -183.776354 
L 1124.744946 -188.599844 
L 1123.518267 -193.423333 
L 1122.140291 -198.246822 
L 1120.628031 -203.070312 
L 1118.986561 -207.893801 
L 1117.240896 -212.717291 
L 1115.446275 -217.54078 
L 1113.645747 -222.36427 
L 1111.831801 -227.187759 
L 1109.978708 -232.011248 
L 1108.102974 -236.834738 
L 1106.26253 -241.658227 
L 1104.500767 -246.481717 
L 1102.805213 -251.305206 
L 1101.108043 -256.128695 
L 1099.334715 -260.952185 
L 1097.502076 -265.775674 
L 1095.782636 -270.599164 
L 1094.41903 -275.422653 
L 1093.534352 -280.246143 
L 1093.036379 -285.069632 
L 1092.712228 -289.893121 
L 1092.396531 -294.716611 
L 1092.05032 -299.5401 
L 1091.714253 -304.36359 
L 1091.42153 -309.187079 
L 1091.169531 -314.010569 
L 1090.966914 -318.834058 
L 1090.881045 -323.657547 
L 1091.014927 -328.481037 
L 1091.439503 -333.304526 
L 1092.161024 -338.128016 
L 1093.143282 -342.951505 
L 1094.336018 -347.774995 
L 1095.682674 -352.598484 
L 1097.125045 -357.421973 
L 1098.61126 -362.245463 
L 1100.097809 -367.068952 
L 1101.547856 -371.892442 
L 1102.928597 -376.715931 
L 1104.214422 -381.539421 
L 1105.409073 -386.36291 
L 1106.559412 -391.186399 
L 1107.714641 -396.009889 
L 1108.86816 -400.833378 
L 1109.968587 -405.656868 
L 1110.990512 -410.480357 
L 1111.972436 -415.303846 
L 1112.985889 -420.127336 
L 1114.078507 -424.950825 
L 1115.237182 -429.774315 
L 1116.397118 -434.597804 
L 1117.497808 -439.421294 
L 1118.534978 -444.244783 
L 1119.546665 -449.068272 
L 1120.551807 -453.891762 
L 1121.52218 -458.715251 
L 1122.414391 -463.538741 
L 1123.207815 -468.36223 
L 1123.90542 -473.18572 
L 1124.514151 -478.009209 
L 1125.038262 -482.832698 
L 1125.490465 -487.656188 
L 1125.897474 -492.479677 
L 1126.284912 -497.303167 
L 1126.659977 -502.126656 
L 1127.012531 -506.950146 
L 1127.326251 -511.773635 
L 1127.586939 -516.597124 
L 1127.788806 -521.420614 
L 1127.936533 -526.244103 
L 1128.040247 -531.067593 
L 1128.111853 -535.891082 
L 1128.166572 -540.714572 
L 1128.22075 -545.538061 
L 1128.283686 -550.36155 
L 1128.353454 -555.18504 
L 1128.421077 -560.008529 
L 1128.477076 -564.832019 
L 1128.515818 -569.655508 
L 1128.537574 -574.478997 
L 1128.547935 -579.302487 
L 1128.554486 -584.125976 
L 1128.56263 -588.949466 
L 1128.573303 -593.772955 
L 1128.584067 -598.596445 
L 1128.59222 -603.419934 
L 1128.596928 -608.243423 
L 1128.603072 -608.243423 
L 1128.603072 -608.243423 
L 1128.60778 -603.419934 
L 1128.615933 -598.596445 
L 1128.626697 -593.772955 
L 1128.63737 -588.949466 
L 1128.645514 -584.125976 
L 1128.652065 -579.302487 
L 1128.662426 -574.478997 
L 1128.684182 -569.655508 
L 1128.722924 -564.832019 
L 1128.778923 -560.008529 
L 1128.846546 -555.18504 
L 1128.916314 -550.36155 
L 1128.97925 -545.538061 
L 1129.033428 -540.714572 
L 1129.088147 -535.891082 
L 1129.159753 -531.067593 
L 1129.263467 -526.244103 
L 1129.411194 -521.420614 
L 1129.613061 -516.597124 
L 1129.873749 -511.773635 
L 1130.187469 -506.950146 
L 1130.540023 -502.126656 
L 1130.915088 -497.303167 
L 1131.302526 -492.479677 
L 1131.709535 -487.656188 
L 1132.161738 -482.832698 
L 1132.685849 -478.009209 
L 1133.29458 -473.18572 
L 1133.992185 -468.36223 
L 1134.785609 -463.538741 
L 1135.67782 -458.715251 
L 1136.648193 -453.891762 
L 1137.653335 -449.068272 
L 1138.665022 -444.244783 
L 1139.702192 -439.421294 
L 1140.802882 -434.597804 
L 1141.962818 -429.774315 
L 1143.121493 -424.950825 
L 1144.214111 -420.127336 
L 1145.227564 -415.303846 
L 1146.209488 -410.480357 
L 1147.231413 -405.656868 
L 1148.33184 -400.833378 
L 1149.485359 -396.009889 
L 1150.640588 -391.186399 
L 1151.790927 -386.36291 
L 1152.985578 -381.539421 
L 1154.271403 -376.715931 
L 1155.652144 -371.892442 
L 1157.102191 -367.068952 
L 1158.58874 -362.245463 
L 1160.074955 -357.421973 
L 1161.517326 -352.598484 
L 1162.863982 -347.774995 
L 1164.056718 -342.951505 
L 1165.038976 -338.128016 
L 1165.760497 -333.304526 
L 1166.185073 -328.481037 
L 1166.318955 -323.657547 
L 1166.233086 -318.834058 
L 1166.030469 -314.010569 
L 1165.77847 -309.187079 
L 1165.485747 -304.36359 
L 1165.14968 -299.5401 
L 1164.803469 -294.716611 
L 1164.487772 -289.893121 
L 1164.163621 -285.069632 
L 1163.665648 -280.246143 
L 1162.78097 -275.422653 
L 1161.417364 -270.599164 
L 1159.697924 -265.775674 
L 1157.865285 -260.952185 
L 1156.091957 -256.128695 
L 1154.394787 -251.305206 
L 1152.699233 -246.481717 
L 1150.93747 -241.658227 
L 1149.097026 -236.834738 
L 1147.221292 -232.011248 
L 1145.368199 -227.187759 
L 1143.554253 -222.36427 
L 1141.753725 -217.54078 
L 1139.959104 -212.717291 
L 1138.213439 -207.893801 
L 1136.571969 -203.070312 
L 1135.059709 -198.246822 
L 1133.681733 -193.423333 
L 1132.455054 -188.599844 
L 1131.413775 -183.776354 
L 1130.58859 -178.952865 
L 1129.985633 -174.129375 
L 1129.577876 -169.305886 
L 1129.311799 -164.482396 
L 1129.126991 -159.658907 
L 1128.978764 -154.835418 
L 1128.849963 -150.011928 
L 1128.744721 -145.188439 
L 1128.671242 -140.364949 
L 1128.629224 -135.54146 
L 1128.609862 -130.71797 
z
" style="stroke: #3f3f3f; stroke-width: 1.25"/>
    </defs>
    <g clip-path="url(#pabf594c681)">
     <use xlink:href="#m6ca31eb9a8" x="0" y="720" style="fill: #3274a1; stroke: #3f3f3f; stroke-width: 1.25"/>
    </g>
   </g>
   <g id="PolyCollection_10">
    <defs>
     <path id="ma562fe4a75" d="M 1240.208819 -130.929358 
L 1240.191181 -130.929358 
L 1240.173467 -135.748577 
L 1240.134209 -140.567796 
L 1240.063683 -145.387015 
L 1239.95912 -150.206234 
L 1239.825965 -155.025453 
L 1239.668129 -159.844672 
L 1239.472606 -164.663891 
L 1239.201888 -169.48311 
L 1238.802501 -174.302329 
L 1238.224561 -179.121548 
L 1237.438704 -183.940767 
L 1236.4421 -188.759986 
L 1235.255503 -193.579205 
L 1233.913867 -198.398424 
L 1232.452469 -203.217643 
L 1230.897337 -208.036862 
L 1229.266113 -212.856081 
L 1227.567887 -217.6753 
L 1225.792594 -222.494518 
L 1223.916205 -227.313737 
L 1221.95041 -232.132956 
L 1219.989769 -236.952175 
L 1218.168729 -241.771394 
L 1216.542163 -246.590613 
L 1215.012693 -251.409832 
L 1213.384557 -256.229051 
L 1211.510634 -261.04827 
L 1209.438084 -265.867489 
L 1207.434571 -270.686708 
L 1205.828531 -275.505927 
L 1204.770819 -280.325146 
L 1204.137093 -285.144365 
L 1203.654142 -289.963584 
L 1203.116213 -294.782803 
L 1202.510277 -299.602022 
L 1201.968006 -304.421241 
L 1201.597538 -309.24046 
L 1201.369565 -314.059679 
L 1201.196447 -318.878898 
L 1201.10099 -323.698117 
L 1201.238875 -328.517336 
L 1201.753554 -333.336555 
L 1202.67359 -338.155774 
L 1203.945335 -342.974993 
L 1205.482369 -347.794212 
L 1207.166041 -352.613431 
L 1208.864196 -357.43265 
L 1210.483867 -362.251869 
L 1211.992119 -367.071087 
L 1213.391724 -371.890306 
L 1214.697895 -376.709525 
L 1215.932511 -381.528744 
L 1217.119871 -386.347963 
L 1218.280335 -391.167182 
L 1219.429623 -395.986401 
L 1220.58455 -400.80562 
L 1221.76255 -405.624839 
L 1222.964291 -410.444058 
L 1224.161374 -415.263277 
L 1225.316575 -420.082496 
L 1226.412129 -424.901715 
L 1227.448995 -429.720934 
L 1228.437842 -434.540153 
L 1229.410659 -439.359372 
L 1230.418921 -444.178591 
L 1231.485369 -448.99781 
L 1232.561469 -453.817029 
L 1233.557888 -458.636248 
L 1234.417488 -463.455467 
L 1235.144393 -468.274686 
L 1235.770599 -473.093905 
L 1236.317289 -477.913124 
L 1236.792141 -482.732343 
L 1237.205858 -487.551562 
L 1237.574992 -492.370781 
L 1237.911803 -497.19 
L 1238.22367 -502.009219 
L 1238.51945 -506.828437 
L 1238.80256 -511.647656 
L 1239.060594 -516.466875 
L 1239.275509 -521.286094 
L 1239.441796 -526.105313 
L 1239.566583 -530.924532 
L 1239.659613 -535.743751 
L 1239.731863 -540.56297 
L 1239.797152 -545.382189 
L 1239.866259 -550.201408 
L 1239.940328 -555.020627 
L 1240.012086 -559.839846 
L 1240.071943 -564.659065 
L 1240.113528 -569.478284 
L 1240.13679 -574.297503 
L 1240.147598 -579.116722 
L 1240.154077 -583.935941 
L 1240.162101 -588.75516 
L 1240.172828 -593.574379 
L 1240.183777 -598.393598 
L 1240.192106 -603.212817 
L 1240.196906 -608.032036 
L 1240.203094 -608.032036 
L 1240.203094 -608.032036 
L 1240.207894 -603.212817 
L 1240.216223 -598.393598 
L 1240.227172 -593.574379 
L 1240.237899 -588.75516 
L 1240.245923 -583.935941 
L 1240.252402 -579.116722 
L 1240.26321 -574.297503 
L 1240.286472 -569.478284 
L 1240.328057 -564.659065 
L 1240.387914 -559.839846 
L 1240.459672 -555.020627 
L 1240.533741 -550.201408 
L 1240.602848 -545.382189 
L 1240.668137 -540.56297 
L 1240.740387 -535.743751 
L 1240.833417 -530.924532 
L 1240.958204 -526.105313 
L 1241.124491 -521.286094 
L 1241.339406 -516.466875 
L 1241.59744 -511.647656 
L 1241.88055 -506.828437 
L 1242.17633 -502.009219 
L 1242.488197 -497.19 
L 1242.825008 -492.370781 
L 1243.194142 -487.551562 
L 1243.607859 -482.732343 
L 1244.082711 -477.913124 
L 1244.629401 -473.093905 
L 1245.255607 -468.274686 
L 1245.982512 -463.455467 
L 1246.842112 -458.636248 
L 1247.838531 -453.817029 
L 1248.914631 -448.99781 
L 1249.981079 -444.178591 
L 1250.989341 -439.359372 
L 1251.962158 -434.540153 
L 1252.951005 -429.720934 
L 1253.987871 -424.901715 
L 1255.083425 -420.082496 
L 1256.238626 -415.263277 
L 1257.435709 -410.444058 
L 1258.63745 -405.624839 
L 1259.81545 -400.80562 
L 1260.970377 -395.986401 
L 1262.119665 -391.167182 
L 1263.280129 -386.347963 
L 1264.467489 -381.528744 
L 1265.702105 -376.709525 
L 1267.008276 -371.890306 
L 1268.407881 -367.071087 
L 1269.916133 -362.251869 
L 1271.535804 -357.43265 
L 1273.233959 -352.613431 
L 1274.917631 -347.794212 
L 1276.454665 -342.974993 
L 1277.72641 -338.155774 
L 1278.646446 -333.336555 
L 1279.161125 -328.517336 
L 1279.29901 -323.698117 
L 1279.203553 -318.878898 
L 1279.030435 -314.059679 
L 1278.802462 -309.24046 
L 1278.431994 -304.421241 
L 1277.889723 -299.602022 
L 1277.283787 -294.782803 
L 1276.745858 -289.963584 
L 1276.262907 -285.144365 
L 1275.629181 -280.325146 
L 1274.571469 -275.505927 
L 1272.965429 -270.686708 
L 1270.961916 -265.867489 
L 1268.889366 -261.04827 
L 1267.015443 -256.229051 
L 1265.387307 -251.409832 
L 1263.857837 -246.590613 
L 1262.231271 -241.771394 
L 1260.410231 -236.952175 
L 1258.44959 -232.132956 
L 1256.483795 -227.313737 
L 1254.607406 -222.494518 
L 1252.832113 -217.6753 
L 1251.133887 -212.856081 
L 1249.502663 -208.036862 
L 1247.947531 -203.217643 
L 1246.486133 -198.398424 
L 1245.144497 -193.579205 
L 1243.9579 -188.759986 
L 1242.961296 -183.940767 
L 1242.175439 -179.121548 
L 1241.597499 -174.302329 
L 1241.198112 -169.48311 
L 1240.927394 -164.663891 
L 1240.731871 -159.844672 
L 1240.574035 -155.025453 
L 1240.44088 -150.206234 
L 1240.336317 -145.387015 
L 1240.265791 -140.567796 
L 1240.226533 -135.748577 
L 1240.208819 -130.929358 
z
" style="stroke: #3f3f3f; stroke-width: 1.25"/>
    </defs>
    <g clip-path="url(#pabf594c681)">
     <use xlink:href="#ma562fe4a75" x="0" y="720" style="fill: #3274a1; stroke: #3f3f3f; stroke-width: 1.25"/>
    </g>
   </g>
   <g id="matplotlib.axis_1">
    <g id="xtick_1">
     <g id="line2d_1">
      <defs>
       <path id="m33ebb2b965" d="M 0 0 
L 0 3.5 
" style="stroke: #000000; stroke-width: 0.8"/>
      </defs>
      <g>
       <use xlink:href="#m33ebb2b965" x="235.8" y="640.8" style="stroke: #000000; stroke-width: 0.8"/>
      </g>
     </g>
     <g id="text_1">
      <!-- 0 -->
      <g transform="translate(232.61875 655.398438) scale(0.1 -0.1)">
       <defs>
        <path id="DejaVuSans-30" d="M 2034 4250 
Q 1547 4250 1301 3770 
Q 1056 3291 1056 2328 
Q 1056 1369 1301 889 
Q 1547 409 2034 409 
Q 2525 409 2770 889 
Q 3016 1369 3016 2328 
Q 3016 3291 2770 3770 
Q 2525 4250 2034 4250 
z
M 2034 4750 
Q 2819 4750 3233 4129 
Q 3647 3509 3647 2328 
Q 3647 1150 3233 529 
Q 2819 -91 2034 -91 
Q 1250 -91 836 529 
Q 422 1150 422 2328 
Q 422 3509 836 4129 
Q 1250 4750 2034 4750 
z
" transform="scale(0.015625)"/>
       </defs>
       <use xlink:href="#DejaVuSans-30"/>
      </g>
     </g>
    </g>
    <g id="xtick_2">
     <g id="line2d_2">
      <g>
       <use xlink:href="#m33ebb2b965" x="347.4" y="640.8" style="stroke: #000000; stroke-width: 0.8"/>
      </g>
     </g>
     <g id="text_2">
      <!-- 1 -->
      <g transform="translate(344.21875 655.398438) scale(0.1 -0.1)">
       <defs>
        <path id="DejaVuSans-31" d="M 794 531 
L 1825 531 
L 1825 4091 
L 703 3866 
L 703 4441 
L 1819 4666 
L 2450 4666 
L 2450 531 
L 3481 531 
L 3481 0 
L 794 0 
L 794 531 
z
" transform="scale(0.015625)"/>
       </defs>
       <use xlink:href="#DejaVuSans-31"/>
      </g>
     </g>
    </g>
    <g id="xtick_3">
     <g id="line2d_3">
      <g>
       <use xlink:href="#m33ebb2b965" x="459" y="640.8" style="stroke: #000000; stroke-width: 0.8"/>
      </g>
     </g>
     <g id="text_3">
      <!-- 2 -->
      <g transform="translate(455.81875 655.398438) scale(0.1 -0.1)">
       <defs>
        <path id="DejaVuSans-32" d="M 1228 531 
L 3431 531 
L 3431 0 
L 469 0 
L 469 531 
Q 828 903 1448 1529 
Q 2069 2156 2228 2338 
Q 2531 2678 2651 2914 
Q 2772 3150 2772 3378 
Q 2772 3750 2511 3984 
Q 2250 4219 1831 4219 
Q 1534 4219 1204 4116 
Q 875 4013 500 3803 
L 500 4441 
Q 881 4594 1212 4672 
Q 1544 4750 1819 4750 
Q 2544 4750 2975 4387 
Q 3406 4025 3406 3419 
Q 3406 3131 3298 2873 
Q 3191 2616 2906 2266 
Q 2828 2175 2409 1742 
Q 1991 1309 1228 531 
z
" transform="scale(0.015625)"/>
       </defs>
       <use xlink:href="#DejaVuSans-32"/>
      </g>
     </g>
    </g>
    <g id="xtick_4">
     <g id="line2d_4">
      <g>
       <use xlink:href="#m33ebb2b965" x="570.6" y="640.8" style="stroke: #000000; stroke-width: 0.8"/>
      </g>
     </g>
     <g id="text_4">
      <!-- 3 -->
      <g transform="translate(567.41875 655.398438) scale(0.1 -0.1)">
       <defs>
        <path id="DejaVuSans-33" d="M 2597 2516 
Q 3050 2419 3304 2112 
Q 3559 1806 3559 1356 
Q 3559 666 3084 287 
Q 2609 -91 1734 -91 
Q 1441 -91 1130 -33 
Q 819 25 488 141 
L 488 750 
Q 750 597 1062 519 
Q 1375 441 1716 441 
Q 2309 441 2620 675 
Q 2931 909 2931 1356 
Q 2931 1769 2642 2001 
Q 2353 2234 1838 2234 
L 1294 2234 
L 1294 2753 
L 1863 2753 
Q 2328 2753 2575 2939 
Q 2822 3125 2822 3475 
Q 2822 3834 2567 4026 
Q 2313 4219 1838 4219 
Q 1578 4219 1281 4162 
Q 984 4106 628 3988 
L 628 4550 
Q 988 4650 1302 4700 
Q 1616 4750 1894 4750 
Q 2613 4750 3031 4423 
Q 3450 4097 3450 3541 
Q 3450 3153 3228 2886 
Q 3006 2619 2597 2516 
z
" transform="scale(0.015625)"/>
       </defs>
       <use xlink:href="#DejaVuSans-33"/>
      </g>
     </g>
    </g>
    <g id="xtick_5">
     <g id="line2d_5">
      <g>
       <use xlink:href="#m33ebb2b965" x="682.2" y="640.8" style="stroke: #000000; stroke-width: 0.8"/>
      </g>
     </g>
     <g id="text_5">
      <!-- 4 -->
      <g transform="translate(679.01875 655.398438) scale(0.1 -0.1)">
       <defs>
        <path id="DejaVuSans-34" d="M 2419 4116 
L 825 1625 
L 2419 1625 
L 2419 4116 
z
M 2253 4666 
L 3047 4666 
L 3047 1625 
L 3713 1625 
L 3713 1100 
L 3047 1100 
L 3047 0 
L 2419 0 
L 2419 1100 
L 313 1100 
L 313 1709 
L 2253 4666 
z
" transform="scale(0.015625)"/>
       </defs>
       <use xlink:href="#DejaVuSans-34"/>
      </g>
     </g>
    </g>
    <g id="xtick_6">
     <g id="line2d_6">
      <g>
       <use xlink:href="#m33ebb2b965" x="793.8" y="640.8" style="stroke: #000000; stroke-width: 0.8"/>
      </g>
     </g>
     <g id="text_6">
      <!-- 5 -->
      <g transform="translate(790.61875 655.398438) scale(0.1 -0.1)">
       <defs>
        <path id="DejaVuSans-35" d="M 691 4666 
L 3169 4666 
L 3169 4134 
L 1269 4134 
L 1269 2991 
Q 1406 3038 1543 3061 
Q 1681 3084 1819 3084 
Q 2600 3084 3056 2656 
Q 3513 2228 3513 1497 
Q 3513 744 3044 326 
Q 2575 -91 1722 -91 
Q 1428 -91 1123 -41 
Q 819 9 494 109 
L 494 744 
Q 775 591 1075 516 
Q 1375 441 1709 441 
Q 2250 441 2565 725 
Q 2881 1009 2881 1497 
Q 2881 1984 2565 2268 
Q 2250 2553 1709 2553 
Q 1456 2553 1204 2497 
Q 953 2441 691 2322 
L 691 4666 
z
" transform="scale(0.015625)"/>
       </defs>
       <use xlink:href="#DejaVuSans-35"/>
      </g>
     </g>
    </g>
    <g id="xtick_7">
     <g id="line2d_7">
      <g>
       <use xlink:href="#m33ebb2b965" x="905.4" y="640.8" style="stroke: #000000; stroke-width: 0.8"/>
      </g>
     </g>
     <g id="text_7">
      <!-- 6 -->
      <g transform="translate(902.21875 655.398438) scale(0.1 -0.1)">
       <defs>
        <path id="DejaVuSans-36" d="M 2113 2584 
Q 1688 2584 1439 2293 
Q 1191 2003 1191 1497 
Q 1191 994 1439 701 
Q 1688 409 2113 409 
Q 2538 409 2786 701 
Q 3034 994 3034 1497 
Q 3034 2003 2786 2293 
Q 2538 2584 2113 2584 
z
M 3366 4563 
L 3366 3988 
Q 3128 4100 2886 4159 
Q 2644 4219 2406 4219 
Q 1781 4219 1451 3797 
Q 1122 3375 1075 2522 
Q 1259 2794 1537 2939 
Q 1816 3084 2150 3084 
Q 2853 3084 3261 2657 
Q 3669 2231 3669 1497 
Q 3669 778 3244 343 
Q 2819 -91 2113 -91 
Q 1303 -91 875 529 
Q 447 1150 447 2328 
Q 447 3434 972 4092 
Q 1497 4750 2381 4750 
Q 2619 4750 2861 4703 
Q 3103 4656 3366 4563 
z
" transform="scale(0.015625)"/>
       </defs>
       <use xlink:href="#DejaVuSans-36"/>
      </g>
     </g>
    </g>
    <g id="xtick_8">
     <g id="line2d_8">
      <g>
       <use xlink:href="#m33ebb2b965" x="1017" y="640.8" style="stroke: #000000; stroke-width: 0.8"/>
      </g>
     </g>
     <g id="text_8">
      <!-- 7 -->
      <g transform="translate(1013.81875 655.398438) scale(0.1 -0.1)">
       <defs>
        <path id="DejaVuSans-37" d="M 525 4666 
L 3525 4666 
L 3525 4397 
L 1831 0 
L 1172 0 
L 2766 4134 
L 525 4134 
L 525 4666 
z
" transform="scale(0.015625)"/>
       </defs>
       <use xlink:href="#DejaVuSans-37"/>
      </g>
     </g>
    </g>
    <g id="xtick_9">
     <g id="line2d_9">
      <g>
       <use xlink:href="#m33ebb2b965" x="1128.6" y="640.8" style="stroke: #000000; stroke-width: 0.8"/>
      </g>
     </g>
     <g id="text_9">
      <!-- 8 -->
      <g transform="translate(1125.41875 655.398438) scale(0.1 -0.1)">
       <defs>
        <path id="DejaVuSans-38" d="M 2034 2216 
Q 1584 2216 1326 1975 
Q 1069 1734 1069 1313 
Q 1069 891 1326 650 
Q 1584 409 2034 409 
Q 2484 409 2743 651 
Q 3003 894 3003 1313 
Q 3003 1734 2745 1975 
Q 2488 2216 2034 2216 
z
M 1403 2484 
Q 997 2584 770 2862 
Q 544 3141 544 3541 
Q 544 4100 942 4425 
Q 1341 4750 2034 4750 
Q 2731 4750 3128 4425 
Q 3525 4100 3525 3541 
Q 3525 3141 3298 2862 
Q 3072 2584 2669 2484 
Q 3125 2378 3379 2068 
Q 3634 1759 3634 1313 
Q 3634 634 3220 271 
Q 2806 -91 2034 -91 
Q 1263 -91 848 271 
Q 434 634 434 1313 
Q 434 1759 690 2068 
Q 947 2378 1403 2484 
z
M 1172 3481 
Q 1172 3119 1398 2916 
Q 1625 2713 2034 2713 
Q 2441 2713 2670 2916 
Q 2900 3119 2900 3481 
Q 2900 3844 2670 4047 
Q 2441 4250 2034 4250 
Q 1625 4250 1398 4047 
Q 1172 3844 1172 3481 
z
" transform="scale(0.015625)"/>
       </defs>
       <use xlink:href="#DejaVuSans-38"/>
      </g>
     </g>
    </g>
    <g id="xtick_10">
     <g id="line2d_10">
      <g>
       <use xlink:href="#m33ebb2b965" x="1240.2" y="640.8" style="stroke: #000000; stroke-width: 0.8"/>
      </g>
     </g>
     <g id="text_10">
      <!-- 9 -->
      <g transform="translate(1237.01875 655.398438) scale(0.1 -0.1)">
       <defs>
        <path id="DejaVuSans-39" d="M 703 97 
L 703 672 
Q 941 559 1184 500 
Q 1428 441 1663 441 
Q 2288 441 2617 861 
Q 2947 1281 2994 2138 
Q 2813 1869 2534 1725 
Q 2256 1581 1919 1581 
Q 1219 1581 811 2004 
Q 403 2428 403 3163 
Q 403 3881 828 4315 
Q 1253 4750 1959 4750 
Q 2769 4750 3195 4129 
Q 3622 3509 3622 2328 
Q 3622 1225 3098 567 
Q 2575 -91 1691 -91 
Q 1453 -91 1209 -44 
Q 966 3 703 97 
z
M 1959 2075 
Q 2384 2075 2632 2365 
Q 2881 2656 2881 3163 
Q 2881 3666 2632 3958 
Q 2384 4250 1959 4250 
Q 1534 4250 1286 3958 
Q 1038 3666 1038 3163 
Q 1038 2656 1286 2365 
Q 1534 2075 1959 2075 
z
" transform="scale(0.015625)"/>
       </defs>
       <use xlink:href="#DejaVuSans-39"/>
      </g>
     </g>
    </g>
    <g id="text_11">
     <!-- iteration -->
     <g transform="translate(716.877344 669.076563) scale(0.1 -0.1)">
      <defs>
       <path id="DejaVuSans-69" d="M 603 3500 
L 1178 3500 
L 1178 0 
L 603 0 
L 603 3500 
z
M 603 4863 
L 1178 4863 
L 1178 4134 
L 603 4134 
L 603 4863 
z
" transform="scale(0.015625)"/>
       <path id="DejaVuSans-74" d="M 1172 4494 
L 1172 3500 
L 2356 3500 
L 2356 3053 
L 1172 3053 
L 1172 1153 
Q 1172 725 1289 603 
Q 1406 481 1766 481 
L 2356 481 
L 2356 0 
L 1766 0 
Q 1100 0 847 248 
Q 594 497 594 1153 
L 594 3053 
L 172 3053 
L 172 3500 
L 594 3500 
L 594 4494 
L 1172 4494 
z
" transform="scale(0.015625)"/>
       <path id="DejaVuSans-65" d="M 3597 1894 
L 3597 1613 
L 953 1613 
Q 991 1019 1311 708 
Q 1631 397 2203 397 
Q 2534 397 2845 478 
Q 3156 559 3463 722 
L 3463 178 
Q 3153 47 2828 -22 
Q 2503 -91 2169 -91 
Q 1331 -91 842 396 
Q 353 884 353 1716 
Q 353 2575 817 3079 
Q 1281 3584 2069 3584 
Q 2775 3584 3186 3129 
Q 3597 2675 3597 1894 
z
M 3022 2063 
Q 3016 2534 2758 2815 
Q 2500 3097 2075 3097 
Q 1594 3097 1305 2825 
Q 1016 2553 972 2059 
L 3022 2063 
z
" transform="scale(0.015625)"/>
       <path id="DejaVuSans-72" d="M 2631 2963 
Q 2534 3019 2420 3045 
Q 2306 3072 2169 3072 
Q 1681 3072 1420 2755 
Q 1159 2438 1159 1844 
L 1159 0 
L 581 0 
L 581 3500 
L 1159 3500 
L 1159 2956 
Q 1341 3275 1631 3429 
Q 1922 3584 2338 3584 
Q 2397 3584 2469 3576 
Q 2541 3569 2628 3553 
L 2631 2963 
z
" transform="scale(0.015625)"/>
       <path id="DejaVuSans-61" d="M 2194 1759 
Q 1497 1759 1228 1600 
Q 959 1441 959 1056 
Q 959 750 1161 570 
Q 1363 391 1709 391 
Q 2188 391 2477 730 
Q 2766 1069 2766 1631 
L 2766 1759 
L 2194 1759 
z
M 3341 1997 
L 3341 0 
L 2766 0 
L 2766 531 
Q 2569 213 2275 61 
Q 1981 -91 1556 -91 
Q 1019 -91 701 211 
Q 384 513 384 1019 
Q 384 1609 779 1909 
Q 1175 2209 1959 2209 
L 2766 2209 
L 2766 2266 
Q 2766 2663 2505 2880 
Q 2244 3097 1772 3097 
Q 1472 3097 1187 3025 
Q 903 2953 641 2809 
L 641 3341 
Q 956 3463 1253 3523 
Q 1550 3584 1831 3584 
Q 2591 3584 2966 3190 
Q 3341 2797 3341 1997 
z
" transform="scale(0.015625)"/>
       <path id="DejaVuSans-6f" d="M 1959 3097 
Q 1497 3097 1228 2736 
Q 959 2375 959 1747 
Q 959 1119 1226 758 
Q 1494 397 1959 397 
Q 2419 397 2687 759 
Q 2956 1122 2956 1747 
Q 2956 2369 2687 2733 
Q 2419 3097 1959 3097 
z
M 1959 3584 
Q 2709 3584 3137 3096 
Q 3566 2609 3566 1747 
Q 3566 888 3137 398 
Q 2709 -91 1959 -91 
Q 1206 -91 779 398 
Q 353 888 353 1747 
Q 353 2609 779 3096 
Q 1206 3584 1959 3584 
z
" transform="scale(0.015625)"/>
       <path id="DejaVuSans-6e" d="M 3513 2113 
L 3513 0 
L 2938 0 
L 2938 2094 
Q 2938 2591 2744 2837 
Q 2550 3084 2163 3084 
Q 1697 3084 1428 2787 
Q 1159 2491 1159 1978 
L 1159 0 
L 581 0 
L 581 3500 
L 1159 3500 
L 1159 2956 
Q 1366 3272 1645 3428 
Q 1925 3584 2291 3584 
Q 2894 3584 3203 3211 
Q 3513 2838 3513 2113 
z
" transform="scale(0.015625)"/>
      </defs>
      <use xlink:href="#DejaVuSans-69"/>
      <use xlink:href="#DejaVuSans-74" x="27.783203"/>
      <use xlink:href="#DejaVuSans-65" x="66.992188"/>
      <use xlink:href="#DejaVuSans-72" x="128.515625"/>
      <use xlink:href="#DejaVuSans-61" x="169.628906"/>
      <use xlink:href="#DejaVuSans-74" x="230.908203"/>
      <use xlink:href="#DejaVuSans-69" x="270.117188"/>
      <use xlink:href="#DejaVuSans-6f" x="297.900391"/>
      <use xlink:href="#DejaVuSans-6e" x="359.082031"/>
     </g>
    </g>
   </g>
   <g id="matplotlib.axis_2">
    <g id="ytick_1">
     <g id="line2d_11">
      <defs>
       <path id="mdef92d2901" d="M 0 0 
L -3.5 0 
" style="stroke: #000000; stroke-width: 0.8"/>
      </defs>
      <g>
       <use xlink:href="#mdef92d2901" x="180" y="594.411073" style="stroke: #000000; stroke-width: 0.8"/>
      </g>
     </g>
     <g id="text_12">
      <!-- 0.2 -->
      <g transform="translate(148.717187 598.210292) scale(0.1 -0.1)">
       <defs>
        <path id="DejaVuSans-2212" d="M 678 2272 
L 4684 2272 
L 4684 1741 
L 678 1741 
L 678 2272 
z
" transform="scale(0.015625)"/>
        <path id="DejaVuSans-2e" d="M 684 794 
L 1344 794 
L 1344 0 
L 684 0 
L 684 794 
z
" transform="scale(0.015625)"/>
       </defs>
       <use xlink:href="#DejaVuSans-2212"/>
       <use xlink:href="#DejaVuSans-30" x="83.789062"/>
       <use xlink:href="#DejaVuSans-2e" x="147.412109"/>
       <use xlink:href="#DejaVuSans-32" x="179.199219"/>
      </g>
     </g>
    </g>
    <g id="ytick_2">
     <g id="line2d_12">
      <g>
       <use xlink:href="#mdef92d2901" x="180" y="509.426404" style="stroke: #000000; stroke-width: 0.8"/>
      </g>
     </g>
     <g id="text_13">
      <!-- 0.0 -->
      <g transform="translate(157.096875 513.225622) scale(0.1 -0.1)">
       <use xlink:href="#DejaVuSans-30"/>
       <use xlink:href="#DejaVuSans-2e" x="63.623047"/>
       <use xlink:href="#DejaVuSans-30" x="95.410156"/>
      </g>
     </g>
    </g>
    <g id="ytick_3">
     <g id="line2d_13">
      <g>
       <use xlink:href="#mdef92d2901" x="180" y="424.441734" style="stroke: #000000; stroke-width: 0.8"/>
      </g>
     </g>
     <g id="text_14">
      <!-- 0.2 -->
      <g transform="translate(157.096875 428.240953) scale(0.1 -0.1)">
       <use xlink:href="#DejaVuSans-30"/>
       <use xlink:href="#DejaVuSans-2e" x="63.623047"/>
       <use xlink:href="#DejaVuSans-32" x="95.410156"/>
      </g>
     </g>
    </g>
    <g id="ytick_4">
     <g id="line2d_14">
      <g>
       <use xlink:href="#mdef92d2901" x="180" y="339.457064" style="stroke: #000000; stroke-width: 0.8"/>
      </g>
     </g>
     <g id="text_15">
      <!-- 0.4 -->
      <g transform="translate(157.096875 343.256283) scale(0.1 -0.1)">
       <use xlink:href="#DejaVuSans-30"/>
       <use xlink:href="#DejaVuSans-2e" x="63.623047"/>
       <use xlink:href="#DejaVuSans-34" x="95.410156"/>
      </g>
     </g>
    </g>
    <g id="ytick_5">
     <g id="line2d_15">
      <g>
       <use xlink:href="#mdef92d2901" x="180" y="254.472395" style="stroke: #000000; stroke-width: 0.8"/>
      </g>
     </g>
     <g id="text_16">
      <!-- 0.6 -->
      <g transform="translate(157.096875 258.271613) scale(0.1 -0.1)">
       <use xlink:href="#DejaVuSans-30"/>
       <use xlink:href="#DejaVuSans-2e" x="63.623047"/>
       <use xlink:href="#DejaVuSans-36" x="95.410156"/>
      </g>
     </g>
    </g>
    <g id="ytick_6">
     <g id="line2d_16">
      <g>
       <use xlink:href="#mdef92d2901" x="180" y="169.487725" style="stroke: #000000; stroke-width: 0.8"/>
      </g>
     </g>
     <g id="text_17">
      <!-- 0.8 -->
      <g transform="translate(157.096875 173.286944) scale(0.1 -0.1)">
       <use xlink:href="#DejaVuSans-30"/>
       <use xlink:href="#DejaVuSans-2e" x="63.623047"/>
       <use xlink:href="#DejaVuSans-38" x="95.410156"/>
      </g>
     </g>
    </g>
    <g id="text_18">
     <!-- final cosine similarity -->
     <g transform="translate(142.6375 416.667187) rotate(-90) scale(0.1 -0.1)">
      <defs>
       <path id="DejaVuSans-66" d="M 2375 4863 
L 2375 4384 
L 1825 4384 
Q 1516 4384 1395 4259 
Q 1275 4134 1275 3809 
L 1275 3500 
L 2222 3500 
L 2222 3053 
L 1275 3053 
L 1275 0 
L 697 0 
L 697 3053 
L 147 3053 
L 147 3500 
L 697 3500 
L 697 3744 
Q 697 4328 969 4595 
Q 1241 4863 1831 4863 
L 2375 4863 
z
" transform="scale(0.015625)"/>
       <path id="DejaVuSans-6c" d="M 603 4863 
L 1178 4863 
L 1178 0 
L 603 0 
L 603 4863 
z
" transform="scale(0.015625)"/>
       <path id="DejaVuSans-20" transform="scale(0.015625)"/>
       <path id="DejaVuSans-63" d="M 3122 3366 
L 3122 2828 
Q 2878 2963 2633 3030 
Q 2388 3097 2138 3097 
Q 1578 3097 1268 2742 
Q 959 2388 959 1747 
Q 959 1106 1268 751 
Q 1578 397 2138 397 
Q 2388 397 2633 464 
Q 2878 531 3122 666 
L 3122 134 
Q 2881 22 2623 -34 
Q 2366 -91 2075 -91 
Q 1284 -91 818 406 
Q 353 903 353 1747 
Q 353 2603 823 3093 
Q 1294 3584 2113 3584 
Q 2378 3584 2631 3529 
Q 2884 3475 3122 3366 
z
" transform="scale(0.015625)"/>
       <path id="DejaVuSans-73" d="M 2834 3397 
L 2834 2853 
Q 2591 2978 2328 3040 
Q 2066 3103 1784 3103 
Q 1356 3103 1142 2972 
Q 928 2841 928 2578 
Q 928 2378 1081 2264 
Q 1234 2150 1697 2047 
L 1894 2003 
Q 2506 1872 2764 1633 
Q 3022 1394 3022 966 
Q 3022 478 2636 193 
Q 2250 -91 1575 -91 
Q 1294 -91 989 -36 
Q 684 19 347 128 
L 347 722 
Q 666 556 975 473 
Q 1284 391 1588 391 
Q 1994 391 2212 530 
Q 2431 669 2431 922 
Q 2431 1156 2273 1281 
Q 2116 1406 1581 1522 
L 1381 1569 
Q 847 1681 609 1914 
Q 372 2147 372 2553 
Q 372 3047 722 3315 
Q 1072 3584 1716 3584 
Q 2034 3584 2315 3537 
Q 2597 3491 2834 3397 
z
" transform="scale(0.015625)"/>
       <path id="DejaVuSans-6d" d="M 3328 2828 
Q 3544 3216 3844 3400 
Q 4144 3584 4550 3584 
Q 5097 3584 5394 3201 
Q 5691 2819 5691 2113 
L 5691 0 
L 5113 0 
L 5113 2094 
Q 5113 2597 4934 2840 
Q 4756 3084 4391 3084 
Q 3944 3084 3684 2787 
Q 3425 2491 3425 1978 
L 3425 0 
L 2847 0 
L 2847 2094 
Q 2847 2600 2669 2842 
Q 2491 3084 2119 3084 
Q 1678 3084 1418 2786 
Q 1159 2488 1159 1978 
L 1159 0 
L 581 0 
L 581 3500 
L 1159 3500 
L 1159 2956 
Q 1356 3278 1631 3431 
Q 1906 3584 2284 3584 
Q 2666 3584 2933 3390 
Q 3200 3197 3328 2828 
z
" transform="scale(0.015625)"/>
       <path id="DejaVuSans-79" d="M 2059 -325 
Q 1816 -950 1584 -1140 
Q 1353 -1331 966 -1331 
L 506 -1331 
L 506 -850 
L 844 -850 
Q 1081 -850 1212 -737 
Q 1344 -625 1503 -206 
L 1606 56 
L 191 3500 
L 800 3500 
L 1894 763 
L 2988 3500 
L 3597 3500 
L 2059 -325 
z
" transform="scale(0.015625)"/>
      </defs>
      <use xlink:href="#DejaVuSans-66"/>
      <use xlink:href="#DejaVuSans-69" x="35.205078"/>
      <use xlink:href="#DejaVuSans-6e" x="62.988281"/>
      <use xlink:href="#DejaVuSans-61" x="126.367188"/>
      <use xlink:href="#DejaVuSans-6c" x="187.646484"/>
      <use xlink:href="#DejaVuSans-20" x="215.429688"/>
      <use xlink:href="#DejaVuSans-63" x="247.216797"/>
      <use xlink:href="#DejaVuSans-6f" x="302.197266"/>
      <use xlink:href="#DejaVuSans-73" x="363.378906"/>
      <use xlink:href="#DejaVuSans-69" x="415.478516"/>
      <use xlink:href="#DejaVuSans-6e" x="443.261719"/>
      <use xlink:href="#DejaVuSans-65" x="506.640625"/>
      <use xlink:href="#DejaVuSans-20" x="568.164062"/>
      <use xlink:href="#DejaVuSans-73" x="599.951172"/>
      <use xlink:href="#DejaVuSans-69" x="652.050781"/>
      <use xlink:href="#DejaVuSans-6d" x="679.833984"/>
      <use xlink:href="#DejaVuSans-69" x="777.246094"/>
      <use xlink:href="#DejaVuSans-6c" x="805.029297"/>
      <use xlink:href="#DejaVuSans-61" x="832.8125"/>
      <use xlink:href="#DejaVuSans-72" x="894.091797"/>
      <use xlink:href="#DejaVuSans-69" x="935.205078"/>
      <use xlink:href="#DejaVuSans-74" x="962.988281"/>
      <use xlink:href="#DejaVuSans-79" x="1002.197266"/>
     </g>
    </g>
   </g>
   <g id="line2d_17">
    <path d="M 235.8 578.44768 
L 235.8 253.227061 
" clip-path="url(#pabf594c681)" style="fill: none; stroke: #3f3f3f; stroke-width: 1.875; stroke-linecap: square"/>
   </g>
   <g id="line2d_18">
    <path d="M 235.8 464.251123 
L 235.8 379.798724 
" clip-path="url(#pabf594c681)" style="fill: none; stroke: #3f3f3f; stroke-width: 5.625; stroke-linecap: square"/>
   </g>
   <g id="line2d_19">
    <path d="M 235.8 426.213404 
" clip-path="url(#pabf594c681)" style="fill: none; stroke: #3f3f3f; stroke-width: 1.5; stroke-linecap: square"/>
    <defs>
     <path id="medee31af86" d="M 2.34375 0 
L -2.34375 -0 
" style="stroke: #ffffff; stroke-width: 1.125"/>
    </defs>
    <g clip-path="url(#pabf594c681)">
     <use xlink:href="#medee31af86" x="235.8" y="426.213404" style="fill: #ffffff; stroke: #ffffff; stroke-width: 1.125"/>
    </g>
   </g>
   <g id="line2d_20">
    <path d="M 347.4 561.453561 
L 347.4 229.438372 
" clip-path="url(#pabf594c681)" style="fill: none; stroke: #3f3f3f; stroke-width: 1.875; stroke-linecap: square"/>
   </g>
   <g id="line2d_21">
    <path d="M 347.4 456.613534 
L 347.4 365.484406 
" clip-path="url(#pabf594c681)" style="fill: none; stroke: #3f3f3f; stroke-width: 5.625; stroke-linecap: square"/>
   </g>
   <g id="line2d_22">
    <path d="M 347.4 415.222529 
" clip-path="url(#pabf594c681)" style="fill: none; stroke: #3f3f3f; stroke-width: 1.5; stroke-linecap: square"/>
    <g clip-path="url(#pabf594c681)">
     <use xlink:href="#medee31af86" x="347.4" y="415.222529" style="fill: #ffffff; stroke: #ffffff; stroke-width: 1.125"/>
    </g>
   </g>
   <g id="line2d_23">
    <path d="M 459 567.101838 
L 459 222.379345 
" clip-path="url(#pabf594c681)" style="fill: none; stroke: #3f3f3f; stroke-width: 1.875; stroke-linecap: square"/>
   </g>
   <g id="line2d_24">
    <path d="M 459 452.509513 
L 459 360.432177 
" clip-path="url(#pabf594c681)" style="fill: none; stroke: #3f3f3f; stroke-width: 5.625; stroke-linecap: square"/>
   </g>
   <g id="line2d_25">
    <path d="M 459 410.752701 
" clip-path="url(#pabf594c681)" style="fill: none; stroke: #3f3f3f; stroke-width: 1.5; stroke-linecap: square"/>
    <g clip-path="url(#pabf594c681)">
     <use xlink:href="#medee31af86" x="459" y="410.752701" style="fill: #ffffff; stroke: #ffffff; stroke-width: 1.125"/>
    </g>
   </g>
   <g id="line2d_26">
    <path d="M 570.6 572.261816 
L 570.6 210.842687 
" clip-path="url(#pabf594c681)" style="fill: none; stroke: #3f3f3f; stroke-width: 1.875; stroke-linecap: square"/>
   </g>
   <g id="line2d_27">
    <path d="M 570.6 448.318349 
L 570.6 353.195777 
" clip-path="url(#pabf594c681)" style="fill: none; stroke: #3f3f3f; stroke-width: 5.625; stroke-linecap: square"/>
   </g>
   <g id="line2d_28">
    <path d="M 570.6 404.917941 
" clip-path="url(#pabf594c681)" style="fill: none; stroke: #3f3f3f; stroke-width: 1.5; stroke-linecap: square"/>
    <g clip-path="url(#pabf594c681)">
     <use xlink:href="#medee31af86" x="570.6" y="404.917941" style="fill: #ffffff; stroke: #ffffff; stroke-width: 1.125"/>
    </g>
   </g>
   <g id="line2d_29">
    <path d="M 682.2 575.550491 
L 682.2 218.779865 
" clip-path="url(#pabf594c681)" style="fill: none; stroke: #3f3f3f; stroke-width: 1.875; stroke-linecap: square"/>
   </g>
   <g id="line2d_30">
    <path d="M 682.2 449.296011 
L 682.2 356.870042 
" clip-path="url(#pabf594c681)" style="fill: none; stroke: #3f3f3f; stroke-width: 5.625; stroke-linecap: square"/>
   </g>
   <g id="line2d_31">
    <path d="M 682.2 406.397134 
" clip-path="url(#pabf594c681)" style="fill: none; stroke: #3f3f3f; stroke-width: 1.5; stroke-linecap: square"/>
    <g clip-path="url(#pabf594c681)">
     <use xlink:href="#medee31af86" x="682.2" y="406.397134" style="fill: #ffffff; stroke: #ffffff; stroke-width: 1.125"/>
    </g>
   </g>
   <g id="line2d_32">
    <path d="M 793.8 575.185934 
L 793.8 210.732411 
" clip-path="url(#pabf594c681)" style="fill: none; stroke: #3f3f3f; stroke-width: 1.875; stroke-linecap: square"/>
   </g>
   <g id="line2d_33">
    <path d="M 793.8 447.445168 
L 793.8 352.585984 
" clip-path="url(#pabf594c681)" style="fill: none; stroke: #3f3f3f; stroke-width: 5.625; stroke-linecap: square"/>
   </g>
   <g id="line2d_34">
    <path d="M 793.8 402.514861 
" clip-path="url(#pabf594c681)" style="fill: none; stroke: #3f3f3f; stroke-width: 1.5; stroke-linecap: square"/>
    <g clip-path="url(#pabf594c681)">
     <use xlink:href="#medee31af86" x="793.8" y="402.514861" style="fill: #ffffff; stroke: #ffffff; stroke-width: 1.125"/>
    </g>
   </g>
   <g id="line2d_35">
    <path d="M 905.4 569.487034 
L 905.4 210.007085 
" clip-path="url(#pabf594c681)" style="fill: none; stroke: #3f3f3f; stroke-width: 1.875; stroke-linecap: square"/>
   </g>
   <g id="line2d_36">
    <path d="M 905.4 445.370482 
L 905.4 351.093295 
" clip-path="url(#pabf594c681)" style="fill: none; stroke: #3f3f3f; stroke-width: 5.625; stroke-linecap: square"/>
   </g>
   <g id="line2d_37">
    <path d="M 905.4 400.437513 
" clip-path="url(#pabf594c681)" style="fill: none; stroke: #3f3f3f; stroke-width: 1.5; stroke-linecap: square"/>
    <g clip-path="url(#pabf594c681)">
     <use xlink:href="#medee31af86" x="905.4" y="400.437513" style="fill: #ffffff; stroke: #ffffff; stroke-width: 1.125"/>
    </g>
   </g>
   <g id="line2d_38">
    <path d="M 1017 569.487034 
L 1017 204.532415 
" clip-path="url(#pabf594c681)" style="fill: none; stroke: #3f3f3f; stroke-width: 1.875; stroke-linecap: square"/>
   </g>
   <g id="line2d_39">
    <path d="M 1017 443.656022 
L 1017 346.999303 
" clip-path="url(#pabf594c681)" style="fill: none; stroke: #3f3f3f; stroke-width: 5.625; stroke-linecap: square"/>
   </g>
   <g id="line2d_40">
    <path d="M 1017 396.627493 
" clip-path="url(#pabf594c681)" style="fill: none; stroke: #3f3f3f; stroke-width: 1.5; stroke-linecap: square"/>
    <g clip-path="url(#pabf594c681)">
     <use xlink:href="#medee31af86" x="1017" y="396.627493" style="fill: #ffffff; stroke: #ffffff; stroke-width: 1.125"/>
    </g>
   </g>
   <g id="line2d_41">
    <path d="M 1128.6 569.487034 
L 1128.6 206.839539 
" clip-path="url(#pabf594c681)" style="fill: none; stroke: #3f3f3f; stroke-width: 1.875; stroke-linecap: square"/>
   </g>
   <g id="line2d_42">
    <path d="M 1128.6 444.126248 
L 1128.6 349.150164 
" clip-path="url(#pabf594c681)" style="fill: none; stroke: #3f3f3f; stroke-width: 5.625; stroke-linecap: square"/>
   </g>
   <g id="line2d_43">
    <path d="M 1128.6 398.246566 
" clip-path="url(#pabf594c681)" style="fill: none; stroke: #3f3f3f; stroke-width: 1.5; stroke-linecap: square"/>
    <g clip-path="url(#pabf594c681)">
     <use xlink:href="#medee31af86" x="1128.6" y="398.246566" style="fill: #ffffff; stroke: #ffffff; stroke-width: 1.125"/>
    </g>
   </g>
   <g id="line2d_44">
    <path d="M 1240.2 569.487034 
L 1240.2 211.431574 
" clip-path="url(#pabf594c681)" style="fill: none; stroke: #3f3f3f; stroke-width: 1.875; stroke-linecap: square"/>
   </g>
   <g id="line2d_45">
    <path d="M 1240.2 443.181092 
L 1240.2 350.42947 
" clip-path="url(#pabf594c681)" style="fill: none; stroke: #3f3f3f; stroke-width: 5.625; stroke-linecap: square"/>
   </g>
   <g id="line2d_46">
    <path d="M 1240.2 398.341056 
" clip-path="url(#pabf594c681)" style="fill: none; stroke: #3f3f3f; stroke-width: 1.5; stroke-linecap: square"/>
    <g clip-path="url(#pabf594c681)">
     <use xlink:href="#medee31af86" x="1240.2" y="398.341056" style="fill: #ffffff; stroke: #ffffff; stroke-width: 1.125"/>
    </g>
   </g>
   <g id="patch_3">
    <path d="M 180 640.8 
L 180 86.4 
" style="fill: none; stroke: #000000; stroke-width: 0.8; stroke-linejoin: miter; stroke-linecap: square"/>
   </g>
   <g id="patch_4">
    <path d="M 1296 640.8 
L 1296 86.4 
" style="fill: none; stroke: #000000; stroke-width: 0.8; stroke-linejoin: miter; stroke-linecap: square"/>
   </g>
   <g id="patch_5">
    <path d="M 180 640.8 
L 1296 640.8 
" style="fill: none; stroke: #000000; stroke-width: 0.8; stroke-linejoin: miter; stroke-linecap: square"/>
   </g>
   <g id="patch_6">
    <path d="M 180 86.4 
L 1296 86.4 
" style="fill: none; stroke: #000000; stroke-width: 0.8; stroke-linejoin: miter; stroke-linecap: square"/>
   </g>
   <g id="text_19">
    <!-- final cosine similarity of max_mem_5_fs_glit (betweenFinalsVariety), by iteration -->
    <g transform="translate(496.755938 80.4) scale(0.12 -0.12)">
     <defs>
      <path id="DejaVuSans-78" d="M 3513 3500 
L 2247 1797 
L 3578 0 
L 2900 0 
L 1881 1375 
L 863 0 
L 184 0 
L 1544 1831 
L 300 3500 
L 978 3500 
L 1906 2253 
L 2834 3500 
L 3513 3500 
z
" transform="scale(0.015625)"/>
      <path id="DejaVuSans-5f" d="M 3263 -1063 
L 3263 -1509 
L -63 -1509 
L -63 -1063 
L 3263 -1063 
z
" transform="scale(0.015625)"/>
      <path id="DejaVuSans-67" d="M 2906 1791 
Q 2906 2416 2648 2759 
Q 2391 3103 1925 3103 
Q 1463 3103 1205 2759 
Q 947 2416 947 1791 
Q 947 1169 1205 825 
Q 1463 481 1925 481 
Q 2391 481 2648 825 
Q 2906 1169 2906 1791 
z
M 3481 434 
Q 3481 -459 3084 -895 
Q 2688 -1331 1869 -1331 
Q 1566 -1331 1297 -1286 
Q 1028 -1241 775 -1147 
L 775 -588 
Q 1028 -725 1275 -790 
Q 1522 -856 1778 -856 
Q 2344 -856 2625 -561 
Q 2906 -266 2906 331 
L 2906 616 
Q 2728 306 2450 153 
Q 2172 0 1784 0 
Q 1141 0 747 490 
Q 353 981 353 1791 
Q 353 2603 747 3093 
Q 1141 3584 1784 3584 
Q 2172 3584 2450 3431 
Q 2728 3278 2906 2969 
L 2906 3500 
L 3481 3500 
L 3481 434 
z
" transform="scale(0.015625)"/>
      <path id="DejaVuSans-28" d="M 1984 4856 
Q 1566 4138 1362 3434 
Q 1159 2731 1159 2009 
Q 1159 1288 1364 580 
Q 1569 -128 1984 -844 
L 1484 -844 
Q 1016 -109 783 600 
Q 550 1309 550 2009 
Q 550 2706 781 3412 
Q 1013 4119 1484 4856 
L 1984 4856 
z
" transform="scale(0.015625)"/>
      <path id="DejaVuSans-62" d="M 3116 1747 
Q 3116 2381 2855 2742 
Q 2594 3103 2138 3103 
Q 1681 3103 1420 2742 
Q 1159 2381 1159 1747 
Q 1159 1113 1420 752 
Q 1681 391 2138 391 
Q 2594 391 2855 752 
Q 3116 1113 3116 1747 
z
M 1159 2969 
Q 1341 3281 1617 3432 
Q 1894 3584 2278 3584 
Q 2916 3584 3314 3078 
Q 3713 2572 3713 1747 
Q 3713 922 3314 415 
Q 2916 -91 2278 -91 
Q 1894 -91 1617 61 
Q 1341 213 1159 525 
L 1159 0 
L 581 0 
L 581 4863 
L 1159 4863 
L 1159 2969 
z
" transform="scale(0.015625)"/>
      <path id="DejaVuSans-77" d="M 269 3500 
L 844 3500 
L 1563 769 
L 2278 3500 
L 2956 3500 
L 3675 769 
L 4391 3500 
L 4966 3500 
L 4050 0 
L 3372 0 
L 2619 2869 
L 1863 0 
L 1184 0 
L 269 3500 
z
" transform="scale(0.015625)"/>
      <path id="DejaVuSans-46" d="M 628 4666 
L 3309 4666 
L 3309 4134 
L 1259 4134 
L 1259 2759 
L 3109 2759 
L 3109 2228 
L 1259 2228 
L 1259 0 
L 628 0 
L 628 4666 
z
" transform="scale(0.015625)"/>
      <path id="DejaVuSans-56" d="M 1831 0 
L 50 4666 
L 709 4666 
L 2188 738 
L 3669 4666 
L 4325 4666 
L 2547 0 
L 1831 0 
z
" transform="scale(0.015625)"/>
      <path id="DejaVuSans-29" d="M 513 4856 
L 1013 4856 
Q 1481 4119 1714 3412 
Q 1947 2706 1947 2009 
Q 1947 1309 1714 600 
Q 1481 -109 1013 -844 
L 513 -844 
Q 928 -128 1133 580 
Q 1338 1288 1338 2009 
Q 1338 2731 1133 3434 
Q 928 4138 513 4856 
z
" transform="scale(0.015625)"/>
      <path id="DejaVuSans-2c" d="M 750 794 
L 1409 794 
L 1409 256 
L 897 -744 
L 494 -744 
L 750 256 
L 750 794 
z
" transform="scale(0.015625)"/>
     </defs>
     <use xlink:href="#DejaVuSans-66"/>
     <use xlink:href="#DejaVuSans-69" x="35.205078"/>
     <use xlink:href="#DejaVuSans-6e" x="62.988281"/>
     <use xlink:href="#DejaVuSans-61" x="126.367188"/>
     <use xlink:href="#DejaVuSans-6c" x="187.646484"/>
     <use xlink:href="#DejaVuSans-20" x="215.429688"/>
     <use xlink:href="#DejaVuSans-63" x="247.216797"/>
     <use xlink:href="#DejaVuSans-6f" x="302.197266"/>
     <use xlink:href="#DejaVuSans-73" x="363.378906"/>
     <use xlink:href="#DejaVuSans-69" x="415.478516"/>
     <use xlink:href="#DejaVuSans-6e" x="443.261719"/>
     <use xlink:href="#DejaVuSans-65" x="506.640625"/>
     <use xlink:href="#DejaVuSans-20" x="568.164062"/>
     <use xlink:href="#DejaVuSans-73" x="599.951172"/>
     <use xlink:href="#DejaVuSans-69" x="652.050781"/>
     <use xlink:href="#DejaVuSans-6d" x="679.833984"/>
     <use xlink:href="#DejaVuSans-69" x="777.246094"/>
     <use xlink:href="#DejaVuSans-6c" x="805.029297"/>
     <use xlink:href="#DejaVuSans-61" x="832.8125"/>
     <use xlink:href="#DejaVuSans-72" x="894.091797"/>
     <use xlink:href="#DejaVuSans-69" x="935.205078"/>
     <use xlink:href="#DejaVuSans-74" x="962.988281"/>
     <use xlink:href="#DejaVuSans-79" x="1002.197266"/>
     <use xlink:href="#DejaVuSans-20" x="1061.376953"/>
     <use xlink:href="#DejaVuSans-6f" x="1093.164062"/>
     <use xlink:href="#DejaVuSans-66" x="1154.345703"/>
     <use xlink:href="#DejaVuSans-20" x="1189.550781"/>
     <use xlink:href="#DejaVuSans-6d" x="1221.337891"/>
     <use xlink:href="#DejaVuSans-61" x="1318.75"/>
     <use xlink:href="#DejaVuSans-78" x="1380.029297"/>
     <use xlink:href="#DejaVuSans-5f" x="1439.208984"/>
     <use xlink:href="#DejaVuSans-6d" x="1489.208984"/>
     <use xlink:href="#DejaVuSans-65" x="1586.621094"/>
     <use xlink:href="#DejaVuSans-6d" x="1648.144531"/>
     <use xlink:href="#DejaVuSans-5f" x="1745.556641"/>
     <use xlink:href="#DejaVuSans-35" x="1795.556641"/>
     <use xlink:href="#DejaVuSans-5f" x="1859.179688"/>
     <use xlink:href="#DejaVuSans-66" x="1909.179688"/>
     <use xlink:href="#DejaVuSans-73" x="1944.384766"/>
     <use xlink:href="#DejaVuSans-5f" x="1996.484375"/>
     <use xlink:href="#DejaVuSans-67" x="2046.484375"/>
     <use xlink:href="#DejaVuSans-6c" x="2109.960938"/>
     <use xlink:href="#DejaVuSans-69" x="2137.744141"/>
     <use xlink:href="#DejaVuSans-74" x="2165.527344"/>
     <use xlink:href="#DejaVuSans-20" x="2204.736328"/>
     <use xlink:href="#DejaVuSans-28" x="2236.523438"/>
     <use xlink:href="#DejaVuSans-62" x="2275.537109"/>
     <use xlink:href="#DejaVuSans-65" x="2339.013672"/>
     <use xlink:href="#DejaVuSans-74" x="2400.537109"/>
     <use xlink:href="#DejaVuSans-77" x="2439.746094"/>
     <use xlink:href="#DejaVuSans-65" x="2521.533203"/>
     <use xlink:href="#DejaVuSans-65" x="2583.056641"/>
     <use xlink:href="#DejaVuSans-6e" x="2644.580078"/>
     <use xlink:href="#DejaVuSans-46" x="2707.958984"/>
     <use xlink:href="#DejaVuSans-69" x="2758.228516"/>
     <use xlink:href="#DejaVuSans-6e" x="2786.011719"/>
     <use xlink:href="#DejaVuSans-61" x="2849.390625"/>
     <use xlink:href="#DejaVuSans-6c" x="2910.669922"/>
     <use xlink:href="#DejaVuSans-73" x="2938.453125"/>
     <use xlink:href="#DejaVuSans-56" x="2990.552734"/>
     <use xlink:href="#DejaVuSans-61" x="3051.210938"/>
     <use xlink:href="#DejaVuSans-72" x="3112.490234"/>
     <use xlink:href="#DejaVuSans-69" x="3153.603516"/>
     <use xlink:href="#DejaVuSans-65" x="3181.386719"/>
     <use xlink:href="#DejaVuSans-74" x="3242.910156"/>
     <use xlink:href="#DejaVuSans-79" x="3282.119141"/>
     <use xlink:href="#DejaVuSans-29" x="3341.298828"/>
     <use xlink:href="#DejaVuSans-2c" x="3380.3125"/>
     <use xlink:href="#DejaVuSans-20" x="3412.099609"/>
     <use xlink:href="#DejaVuSans-62" x="3443.886719"/>
     <use xlink:href="#DejaVuSans-79" x="3507.363281"/>
     <use xlink:href="#DejaVuSans-20" x="3566.542969"/>
     <use xlink:href="#DejaVuSans-69" x="3598.330078"/>
     <use xlink:href="#DejaVuSans-74" x="3626.113281"/>
     <use xlink:href="#DejaVuSans-65" x="3665.322266"/>
     <use xlink:href="#DejaVuSans-72" x="3726.845703"/>
     <use xlink:href="#DejaVuSans-61" x="3767.958984"/>
     <use xlink:href="#DejaVuSans-74" x="3829.238281"/>
     <use xlink:href="#DejaVuSans-69" x="3868.447266"/>
     <use xlink:href="#DejaVuSans-6f" x="3896.230469"/>
     <use xlink:href="#DejaVuSans-6e" x="3957.412109"/>
    </g>
   </g>
  </g>
 </g>
 <defs>
  <clipPath id="pabf594c681">
   <rect x="180" y="86.4" width="1116" height="554.4"/>
  </clipPath>
 </defs>
</svg>
