<?xml version="1.0" encoding="utf-8" standalone="no"?>
<!DOCTYPE svg PUBLIC "-//W3C//DTD SVG 1.1//EN"
  "http://www.w3.org/Graphics/SVG/1.1/DTD/svg11.dtd">
<svg xmlns:xlink="http://www.w3.org/1999/xlink" width="1440pt" height="720pt" viewBox="0 0 1440 720" xmlns="http://www.w3.org/2000/svg" version="1.1">
 <metadata>
  <rdf:RDF xmlns:dc="http://purl.org/dc/elements/1.1/" xmlns:cc="http://creativecommons.org/ns#" xmlns:rdf="http://www.w3.org/1999/02/22-rdf-syntax-ns#">
   <cc:Work>
    <dc:type rdf:resource="http://purl.org/dc/dcmitype/StillImage"/>
    <dc:date>2024-07-07T16:59:35.237183</dc:date>
    <dc:format>image/svg+xml</dc:format>
    <dc:creator>
     <cc:Agent>
      <dc:title>Matplotlib v3.8.0, https://matplotlib.org/</dc:title>
     </cc:Agent>
    </dc:creator>
   </cc:Work>
  </rdf:RDF>
 </metadata>
 <defs>
  <style type="text/css">*{stroke-linejoin: round; stroke-linecap: butt}</style>
 </defs>
 <g id="figure_1">
  <g id="patch_1">
   <path d="M 0 720 
L 1440 720 
L 1440 0 
L 0 0 
z
" style="fill: #ffffff"/>
  </g>
  <g id="axes_1">
   <g id="patch_2">
    <path d="M 180 640.8 
L 1296 640.8 
L 1296 86.4 
L 180 86.4 
z
" style="fill: #ffffff"/>
   </g>
   <g id="PolyCollection_1">
    <defs>
     <path id="m3aff2f0967" d="M 235.802142 -104.4 
L 235.797858 -104.4 
L 235.794055 -109.490909 
L 235.78839 -114.581818 
L 235.783736 -119.672727 
L 235.78251 -124.763636 
L 235.782753 -129.854545 
L 235.780431 -134.945455 
L 235.773175 -140.036364 
L 235.755523 -145.127273 
L 235.709923 -150.218182 
L 235.603889 -155.309091 
L 235.396622 -160.4 
L 235.04948 -165.490909 
L 234.520055 -170.581818 
L 233.732997 -175.672727 
L 232.571666 -180.763636 
L 230.942605 -185.854545 
L 228.87022 -190.945455 
L 226.483234 -196.036364 
L 223.874947 -201.127273 
L 221.046616 -206.218182 
L 218.023072 -211.309091 
L 214.900094 -216.4 
L 211.728951 -221.490909 
L 208.509399 -226.581818 
L 205.341579 -231.672727 
L 202.429059 -236.763636 
L 199.878186 -241.854545 
L 197.630134 -246.945455 
L 195.673978 -252.036364 
L 194.148486 -257.127273 
L 193.102666 -262.218182 
L 192.363544 -267.309091 
L 191.745187 -272.4 
L 191.266641 -277.490909 
L 191.16 -282.581818 
L 191.667095 -287.672727 
L 192.777704 -292.763636 
L 194.19265 -297.854545 
L 195.562337 -302.945455 
L 196.781402 -308.036364 
L 198.070318 -313.127273 
L 199.721916 -318.218182 
L 201.799244 -323.309091 
L 204.112543 -328.4 
L 206.352071 -333.490909 
L 208.239015 -338.581818 
L 209.732182 -343.672727 
L 211.037685 -348.763636 
L 212.295798 -353.854545 
L 213.442335 -358.945455 
L 214.463862 -364.036364 
L 215.549899 -369.127273 
L 216.894313 -374.218182 
L 218.49753 -379.309091 
L 220.181515 -384.4 
L 221.694082 -389.490909 
L 222.864926 -394.581818 
L 223.747088 -399.672727 
L 224.546935 -404.763636 
L 225.41947 -409.854545 
L 226.386633 -414.945455 
L 227.389291 -420.036364 
L 228.353916 -425.127273 
L 229.238324 -430.218182 
L 230.043672 -435.309091 
L 230.793099 -440.4 
L 231.496386 -445.490909 
L 232.127347 -450.581818 
L 232.656802 -455.672727 
L 233.106538 -460.763636 
L 233.524984 -465.854545 
L 233.910006 -470.945455 
L 234.21397 -476.036364 
L 234.431442 -481.127273 
L 234.620929 -486.218182 
L 234.825913 -491.309091 
L 235.02585 -496.4 
L 235.181541 -501.490909 
L 235.287777 -506.581818 
L 235.364506 -511.672727 
L 235.426512 -516.763636 
L 235.480237 -521.854545 
L 235.534791 -526.945455 
L 235.594984 -532.036364 
L 235.648385 -537.127273 
L 235.680677 -542.218182 
L 235.698862 -547.309091 
L 235.72088 -552.4 
L 235.750349 -557.490909 
L 235.776101 -562.581818 
L 235.789282 -567.672727 
L 235.790032 -572.763636 
L 235.783036 -577.854545 
L 235.774624 -582.945455 
L 235.771259 -588.036364 
L 235.775641 -593.127273 
L 235.784645 -598.218182 
L 235.792881 -603.309091 
L 235.797604 -608.4 
L 235.802396 -608.4 
L 235.802396 -608.4 
L 235.807119 -603.309091 
L 235.815355 -598.218182 
L 235.824359 -593.127273 
L 235.828741 -588.036364 
L 235.825376 -582.945455 
L 235.816964 -577.854545 
L 235.809968 -572.763636 
L 235.810718 -567.672727 
L 235.823899 -562.581818 
L 235.849651 -557.490909 
L 235.87912 -552.4 
L 235.901138 -547.309091 
L 235.919323 -542.218182 
L 235.951615 -537.127273 
L 236.005016 -532.036364 
L 236.065209 -526.945455 
L 236.119763 -521.854545 
L 236.173488 -516.763636 
L 236.235494 -511.672727 
L 236.312223 -506.581818 
L 236.418459 -501.490909 
L 236.57415 -496.4 
L 236.774087 -491.309091 
L 236.979071 -486.218182 
L 237.168558 -481.127273 
L 237.38603 -476.036364 
L 237.689994 -470.945455 
L 238.075016 -465.854545 
L 238.493462 -460.763636 
L 238.943198 -455.672727 
L 239.472653 -450.581818 
L 240.103614 -445.490909 
L 240.806901 -440.4 
L 241.556328 -435.309091 
L 242.361676 -430.218182 
L 243.246084 -425.127273 
L 244.210709 -420.036364 
L 245.213367 -414.945455 
L 246.18053 -409.854545 
L 247.053065 -404.763636 
L 247.852912 -399.672727 
L 248.735074 -394.581818 
L 249.905918 -389.490909 
L 251.418485 -384.4 
L 253.10247 -379.309091 
L 254.705687 -374.218182 
L 256.050101 -369.127273 
L 257.136138 -364.036364 
L 258.157665 -358.945455 
L 259.304202 -353.854545 
L 260.562315 -348.763636 
L 261.867818 -343.672727 
L 263.360985 -338.581818 
L 265.247929 -333.490909 
L 267.487457 -328.4 
L 269.800756 -323.309091 
L 271.878084 -318.218182 
L 273.529682 -313.127273 
L 274.818598 -308.036364 
L 276.037663 -302.945455 
L 277.40735 -297.854545 
L 278.822296 -292.763636 
L 279.932905 -287.672727 
L 280.44 -282.581818 
L 280.333359 -277.490909 
L 279.854813 -272.4 
L 279.236456 -267.309091 
L 278.497334 -262.218182 
L 277.451514 -257.127273 
L 275.926022 -252.036364 
L 273.969866 -246.945455 
L 271.721814 -241.854545 
L 269.170941 -236.763636 
L 266.258421 -231.672727 
L 263.090601 -226.581818 
L 259.871049 -221.490909 
L 256.699906 -216.4 
L 253.576928 -211.309091 
L 250.553384 -206.218182 
L 247.725053 -201.127273 
L 245.116766 -196.036364 
L 242.72978 -190.945455 
L 240.657395 -185.854545 
L 239.028334 -180.763636 
L 237.867003 -175.672727 
L 237.079945 -170.581818 
L 236.55052 -165.490909 
L 236.203378 -160.4 
L 235.996111 -155.309091 
L 235.890077 -150.218182 
L 235.844477 -145.127273 
L 235.826825 -140.036364 
L 235.819569 -134.945455 
L 235.817247 -129.854545 
L 235.81749 -124.763636 
L 235.816264 -119.672727 
L 235.81161 -114.581818 
L 235.805945 -109.490909 
L 235.802142 -104.4 
z
" style="stroke: #3f3f3f; stroke-width: 1.25"/>
    </defs>
    <g clip-path="url(#p277876d62b)">
     <use xlink:href="#m3aff2f0967" x="0" y="720" style="fill: #3274a1; stroke: #3f3f3f; stroke-width: 1.25"/>
    </g>
   </g>
   <g id="PolyCollection_2">
    <defs>
     <path id="m9ccf6c3c06" d="M 347.406239 -136.312789 
L 347.393761 -136.312789 
L 347.379448 -140.853817 
L 347.344122 -145.394845 
L 347.272644 -149.935874 
L 347.151998 -154.476902 
L 346.97701 -159.01793 
L 346.746641 -163.558958 
L 346.447243 -168.099987 
L 346.035046 -172.641015 
L 345.439049 -177.182043 
L 344.589885 -181.723071 
L 343.453264 -186.2641 
L 342.043087 -190.805128 
L 340.410442 -195.346156 
L 338.616579 -199.887185 
L 336.697188 -204.428213 
L 334.641389 -208.969241 
L 332.423664 -213.510269 
L 330.072238 -218.051298 
L 327.677564 -222.592326 
L 325.307453 -227.133354 
L 322.952558 -231.674383 
L 320.594006 -236.215411 
L 318.293611 -240.756439 
L 316.187131 -245.297467 
L 314.401067 -249.838496 
L 312.960115 -254.379524 
L 311.74917 -258.920552 
L 310.607625 -263.461581 
L 309.498385 -268.002609 
L 308.542693 -272.543637 
L 307.864951 -277.084665 
L 307.450779 -281.625694 
L 307.192817 -286.166722 
L 307.040124 -290.70775 
L 307.039258 -295.248778 
L 307.235469 -299.789807 
L 307.616625 -304.330835 
L 308.183789 -308.871863 
L 308.992705 -313.412892 
L 310.061821 -317.95392 
L 311.301091 -322.494948 
L 312.584411 -327.035976 
L 313.82815 -331.577005 
L 314.971369 -336.118033 
L 315.966117 -340.659061 
L 316.829972 -345.20009 
L 317.668694 -349.741118 
L 318.623682 -354.282146 
L 319.773168 -358.823174 
L 321.057826 -363.364203 
L 322.340188 -367.905231 
L 323.569024 -372.446259 
L 324.832187 -376.987288 
L 326.220301 -381.528316 
L 327.700224 -386.069344 
L 329.153134 -390.610372 
L 330.493982 -395.151401 
L 331.724446 -399.692429 
L 332.8844 -404.233457 
L 333.985907 -408.774485 
L 335.015718 -413.315514 
L 335.980645 -417.856542 
L 336.91757 -422.39757 
L 337.861886 -426.938599 
L 338.818251 -431.479627 
L 339.752724 -436.020655 
L 340.607294 -440.561683 
L 341.334343 -445.102712 
L 341.931732 -449.64374 
L 342.45212 -454.184768 
L 342.974107 -458.725797 
L 343.546361 -463.266825 
L 344.146297 -467.807853 
L 344.698347 -472.348881 
L 345.139596 -476.88991 
L 345.464746 -481.430938 
L 345.711584 -485.971966 
L 345.921116 -490.512994 
L 346.118685 -495.054023 
L 346.31532 -499.595051 
L 346.508945 -504.136079 
L 346.686351 -508.677108 
L 346.833781 -513.218136 
L 346.948341 -517.759164 
L 347.03837 -522.300192 
L 347.114286 -526.841221 
L 347.180619 -531.382249 
L 347.235408 -535.923277 
L 347.275044 -540.464306 
L 347.298985 -545.005334 
L 347.310671 -549.546362 
L 347.315804 -554.08739 
L 347.320592 -558.628419 
L 347.329951 -563.169447 
L 347.345251 -567.710475 
L 347.363537 -572.251504 
L 347.379873 -576.792532 
L 347.390977 -581.33356 
L 347.396764 -585.874588 
L 347.403236 -585.874588 
L 347.403236 -585.874588 
L 347.409023 -581.33356 
L 347.420127 -576.792532 
L 347.436463 -572.251504 
L 347.454749 -567.710475 
L 347.470049 -563.169447 
L 347.479408 -558.628419 
L 347.484196 -554.08739 
L 347.489329 -549.546362 
L 347.501015 -545.005334 
L 347.524956 -540.464306 
L 347.564592 -535.923277 
L 347.619381 -531.382249 
L 347.685714 -526.841221 
L 347.76163 -522.300192 
L 347.851659 -517.759164 
L 347.966219 -513.218136 
L 348.113649 -508.677108 
L 348.291055 -504.136079 
L 348.48468 -499.595051 
L 348.681315 -495.054023 
L 348.878884 -490.512994 
L 349.088416 -485.971966 
L 349.335254 -481.430938 
L 349.660404 -476.88991 
L 350.101653 -472.348881 
L 350.653703 -467.807853 
L 351.253639 -463.266825 
L 351.825893 -458.725797 
L 352.34788 -454.184768 
L 352.868268 -449.64374 
L 353.465657 -445.102712 
L 354.192706 -440.561683 
L 355.047276 -436.020655 
L 355.981749 -431.479627 
L 356.938114 -426.938599 
L 357.88243 -422.39757 
L 358.819355 -417.856542 
L 359.784282 -413.315514 
L 360.814093 -408.774485 
L 361.9156 -404.233457 
L 363.075554 -399.692429 
L 364.306018 -395.151401 
L 365.646866 -390.610372 
L 367.099776 -386.069344 
L 368.579699 -381.528316 
L 369.967813 -376.987288 
L 371.230976 -372.446259 
L 372.459812 -367.905231 
L 373.742174 -363.364203 
L 375.026832 -358.823174 
L 376.176318 -354.282146 
L 377.131306 -349.741118 
L 377.970028 -345.20009 
L 378.833883 -340.659061 
L 379.828631 -336.118033 
L 380.97185 -331.577005 
L 382.215589 -327.035976 
L 383.498909 -322.494948 
L 384.738179 -317.95392 
L 385.807295 -313.412892 
L 386.616211 -308.871863 
L 387.183375 -304.330835 
L 387.564531 -299.789807 
L 387.760742 -295.248778 
L 387.759876 -290.70775 
L 387.607183 -286.166722 
L 387.349221 -281.625694 
L 386.935049 -277.084665 
L 386.257307 -272.543637 
L 385.301615 -268.002609 
L 384.192375 -263.461581 
L 383.05083 -258.920552 
L 381.839885 -254.379524 
L 380.398933 -249.838496 
L 378.612869 -245.297467 
L 376.506389 -240.756439 
L 374.205994 -236.215411 
L 371.847442 -231.674383 
L 369.492547 -227.133354 
L 367.122436 -222.592326 
L 364.727762 -218.051298 
L 362.376336 -213.510269 
L 360.158611 -208.969241 
L 358.102812 -204.428213 
L 356.183421 -199.887185 
L 354.389558 -195.346156 
L 352.756913 -190.805128 
L 351.346736 -186.2641 
L 350.210115 -181.723071 
L 349.360951 -177.182043 
L 348.764954 -172.641015 
L 348.352757 -168.099987 
L 348.053359 -163.558958 
L 347.82299 -159.01793 
L 347.648002 -154.476902 
L 347.527356 -149.935874 
L 347.455878 -145.394845 
L 347.420552 -140.853817 
L 347.406239 -136.312789 
z
" style="stroke: #3f3f3f; stroke-width: 1.25"/>
    </defs>
    <g clip-path="url(#p277876d62b)">
     <use xlink:href="#m9ccf6c3c06" x="0" y="720" style="fill: #3274a1; stroke: #3f3f3f; stroke-width: 1.25"/>
    </g>
   </g>
   <g id="PolyCollection_3">
    <defs>
     <path id="m8efaa180d6" d="M 459.004015 -134.031258 
L 458.995985 -134.031258 
L 458.987301 -138.598216 
L 458.965445 -143.165173 
L 458.917606 -147.732131 
L 458.826469 -152.299088 
L 458.675751 -156.866046 
L 458.455583 -161.433003 
L 458.156718 -165.999961 
L 457.754636 -170.566918 
L 457.204008 -175.133876 
L 456.457774 -179.700833 
L 455.497242 -184.267791 
L 454.344843 -188.834748 
L 453.043741 -193.401705 
L 451.617404 -197.968663 
L 450.048411 -202.53562 
L 448.311005 -207.102578 
L 446.433962 -211.669535 
L 444.513069 -216.236493 
L 442.634661 -220.80345 
L 440.780587 -225.370408 
L 438.820285 -229.937365 
L 436.620499 -234.504323 
L 434.190297 -239.07128 
L 431.719922 -243.638238 
L 429.457966 -248.205195 
L 427.545773 -252.772153 
L 425.970452 -257.33911 
L 424.646775 -261.906068 
L 423.498536 -266.473025 
L 422.463031 -271.039983 
L 421.482659 -275.60694 
L 420.547153 -280.173898 
L 419.740768 -284.740855 
L 419.214857 -289.307813 
L 419.080716 -293.87477 
L 419.319483 -298.441728 
L 419.806103 -303.008685 
L 420.415141 -307.575643 
L 421.089239 -312.1426 
L 421.814283 -316.709558 
L 422.568564 -321.276515 
L 423.332857 -325.843473 
L 424.12773 -330.41043 
L 424.990911 -334.977388 
L 425.91808 -339.544345 
L 426.854554 -344.111303 
L 427.752881 -348.67826 
L 428.631143 -353.245218 
L 429.556207 -357.812175 
L 430.562945 -362.379133 
L 431.627519 -366.94609 
L 432.745963 -371.513048 
L 433.991023 -376.080005 
L 435.441864 -380.646963 
L 437.079764 -385.21392 
L 438.778574 -389.780878 
L 440.375281 -394.347835 
L 441.749132 -398.914793 
L 442.881057 -403.48175 
L 443.865962 -408.048708 
L 444.848977 -412.615665 
L 445.922532 -417.182623 
L 447.072079 -421.74958 
L 448.211041 -426.316538 
L 449.253516 -430.883495 
L 450.156528 -435.450453 
L 450.930706 -440.01741 
L 451.639447 -444.584368 
L 452.365882 -449.151325 
L 453.152081 -453.718283 
L 453.971485 -458.28524 
L 454.75722 -462.852197 
L 455.442871 -467.419155 
L 455.984684 -471.986112 
L 456.373148 -476.55307 
L 456.638212 -481.120027 
L 456.835235 -485.686985 
L 457.016085 -490.253942 
L 457.211384 -494.8209 
L 457.431352 -499.387857 
L 457.670918 -503.954815 
L 457.914151 -508.521772 
L 458.142155 -513.08873 
L 458.341446 -517.655687 
L 458.506758 -522.222645 
L 458.638809 -526.789602 
L 458.741393 -531.35656 
L 458.819122 -535.923517 
L 458.875804 -540.490475 
L 458.914711 -545.057432 
L 458.939591 -549.62439 
L 458.953996 -554.191347 
L 458.960815 -558.758305 
L 458.963861 -563.325262 
L 458.967924 -567.89222 
L 458.97547 -572.459177 
L 458.98478 -577.026135 
L 458.992533 -581.593092 
L 458.997133 -586.16005 
L 459.002867 -586.16005 
L 459.002867 -586.16005 
L 459.007467 -581.593092 
L 459.01522 -577.026135 
L 459.02453 -572.459177 
L 459.032076 -567.89222 
L 459.036139 -563.325262 
L 459.039185 -558.758305 
L 459.046004 -554.191347 
L 459.060409 -549.62439 
L 459.085289 -545.057432 
L 459.124196 -540.490475 
L 459.180878 -535.923517 
L 459.258607 -531.35656 
L 459.361191 -526.789602 
L 459.493242 -522.222645 
L 459.658554 -517.655687 
L 459.857845 -513.08873 
L 460.085849 -508.521772 
L 460.329082 -503.954815 
L 460.568648 -499.387857 
L 460.788616 -494.8209 
L 460.983915 -490.253942 
L 461.164765 -485.686985 
L 461.361788 -481.120027 
L 461.626852 -476.55307 
L 462.015316 -471.986112 
L 462.557129 -467.419155 
L 463.24278 -462.852197 
L 464.028515 -458.28524 
L 464.847919 -453.718283 
L 465.634118 -449.151325 
L 466.360553 -444.584368 
L 467.069294 -440.01741 
L 467.843472 -435.450453 
L 468.746484 -430.883495 
L 469.788959 -426.316538 
L 470.927921 -421.74958 
L 472.077468 -417.182623 
L 473.151023 -412.615665 
L 474.134038 -408.048708 
L 475.118943 -403.48175 
L 476.250868 -398.914793 
L 477.624719 -394.347835 
L 479.221426 -389.780878 
L 480.920236 -385.21392 
L 482.558136 -380.646963 
L 484.008977 -376.080005 
L 485.254037 -371.513048 
L 486.372481 -366.94609 
L 487.437055 -362.379133 
L 488.443793 -357.812175 
L 489.368857 -353.245218 
L 490.247119 -348.67826 
L 491.145446 -344.111303 
L 492.08192 -339.544345 
L 493.009089 -334.977388 
L 493.87227 -330.41043 
L 494.667143 -325.843473 
L 495.431436 -321.276515 
L 496.185717 -316.709558 
L 496.910761 -312.1426 
L 497.584859 -307.575643 
L 498.193897 -303.008685 
L 498.680517 -298.441728 
L 498.919284 -293.87477 
L 498.785143 -289.307813 
L 498.259232 -284.740855 
L 497.452847 -280.173898 
L 496.517341 -275.60694 
L 495.536969 -271.039983 
L 494.501464 -266.473025 
L 493.353225 -261.906068 
L 492.029548 -257.33911 
L 490.454227 -252.772153 
L 488.542034 -248.205195 
L 486.280078 -243.638238 
L 483.809703 -239.07128 
L 481.379501 -234.504323 
L 479.179715 -229.937365 
L 477.219413 -225.370408 
L 475.365339 -220.80345 
L 473.486931 -216.236493 
L 471.566038 -211.669535 
L 469.688995 -207.102578 
L 467.951589 -202.53562 
L 466.382596 -197.968663 
L 464.956259 -193.401705 
L 463.655157 -188.834748 
L 462.502758 -184.267791 
L 461.542226 -179.700833 
L 460.795992 -175.133876 
L 460.245364 -170.566918 
L 459.843282 -165.999961 
L 459.544417 -161.433003 
L 459.324249 -156.866046 
L 459.173531 -152.299088 
L 459.082394 -147.732131 
L 459.034555 -143.165173 
L 459.012699 -138.598216 
L 459.004015 -134.031258 
z
" style="stroke: #3f3f3f; stroke-width: 1.25"/>
    </defs>
    <g clip-path="url(#p277876d62b)">
     <use xlink:href="#m8efaa180d6" x="0" y="720" style="fill: #3274a1; stroke: #3f3f3f; stroke-width: 1.25"/>
    </g>
   </g>
   <g id="PolyCollection_4">
    <defs>
     <path id="mab5bb89efa" d="M 570.603231 -128.46909 
L 570.596769 -128.46909 
L 570.590307 -133.05952 
L 570.57488 -137.649951 
L 570.54194 -142.240381 
L 570.478003 -146.830812 
L 570.366688 -151.421242 
L 570.196429 -156.011673 
L 569.966866 -160.602103 
L 569.681306 -165.192534 
L 569.328712 -169.782964 
L 568.877307 -174.373395 
L 568.288766 -178.963825 
L 567.535508 -183.554256 
L 566.606034 -188.144686 
L 565.503287 -192.735117 
L 564.241101 -197.325547 
L 562.83631 -201.915978 
L 561.304312 -206.506408 
L 559.662977 -211.096839 
L 557.92727 -215.687269 
L 556.0935 -220.2777 
L 554.142662 -224.86813 
L 552.064651 -229.458561 
L 549.879736 -234.048991 
L 547.656606 -238.639422 
L 545.513621 -243.229852 
L 543.567962 -247.820283 
L 541.860999 -252.410713 
L 540.340147 -257.001143 
L 538.914697 -261.591574 
L 537.523568 -266.182004 
L 536.163676 -270.772435 
L 534.886736 -275.362865 
L 533.784801 -279.953296 
L 532.958024 -284.543726 
L 532.465577 -289.134157 
L 532.291193 -293.724587 
L 532.352735 -298.315018 
L 532.554751 -302.905448 
L 532.844221 -307.495879 
L 533.213417 -312.086309 
L 533.650709 -316.67674 
L 534.117351 -321.26717 
L 534.593278 -325.857601 
L 535.117207 -330.448031 
L 535.741945 -335.038462 
L 536.465548 -339.628892 
L 537.249997 -344.219323 
L 538.105472 -348.809753 
L 539.110154 -353.400184 
L 540.305625 -357.990614 
L 541.576977 -362.581045 
L 542.705536 -367.171475 
L 543.60001 -371.761906 
L 544.428066 -376.352336 
L 545.447052 -380.942767 
L 546.742789 -385.533197 
L 548.195074 -390.123628 
L 549.64792 -394.714058 
L 551.038553 -399.304489 
L 552.386462 -403.894919 
L 553.730845 -408.48535 
L 555.094674 -413.07578 
L 556.469276 -417.666211 
L 557.810862 -422.256641 
L 559.06309 -426.847072 
L 560.185144 -431.437502 
L 561.158438 -436.027933 
L 561.991776 -440.618363 
L 562.732425 -445.208794 
L 563.448839 -449.799224 
L 564.185888 -454.389655 
L 564.938471 -458.980085 
L 565.66393 -463.570516 
L 566.314382 -468.160946 
L 566.863275 -472.751377 
L 567.312839 -477.341807 
L 567.685164 -481.932238 
L 568.005712 -486.522668 
L 568.290965 -491.113099 
L 568.55052 -495.703529 
L 568.793659 -500.29396 
L 569.025071 -504.88439 
L 569.240174 -509.474821 
L 569.433272 -514.065251 
L 569.605952 -518.655682 
L 569.763428 -523.246112 
L 569.908861 -527.836543 
L 570.043897 -532.426973 
L 570.168558 -537.017404 
L 570.278718 -541.607834 
L 570.368697 -546.198265 
L 570.437203 -550.788695 
L 570.4879 -555.379126 
L 570.525324 -559.969556 
L 570.552691 -564.559987 
L 570.572213 -569.150417 
L 570.585418 -573.740848 
L 570.593437 -578.331278 
L 570.597552 -582.921709 
L 570.602448 -582.921709 
L 570.602448 -582.921709 
L 570.606563 -578.331278 
L 570.614582 -573.740848 
L 570.627787 -569.150417 
L 570.647309 -564.559987 
L 570.674676 -559.969556 
L 570.7121 -555.379126 
L 570.762797 -550.788695 
L 570.831303 -546.198265 
L 570.921282 -541.607834 
L 571.031442 -537.017404 
L 571.156103 -532.426973 
L 571.291139 -527.836543 
L 571.436572 -523.246112 
L 571.594048 -518.655682 
L 571.766728 -514.065251 
L 571.959826 -509.474821 
L 572.174929 -504.88439 
L 572.406341 -500.29396 
L 572.64948 -495.703529 
L 572.909035 -491.113099 
L 573.194288 -486.522668 
L 573.514836 -481.932238 
L 573.887161 -477.341807 
L 574.336725 -472.751377 
L 574.885618 -468.160946 
L 575.53607 -463.570516 
L 576.261529 -458.980085 
L 577.014112 -454.389655 
L 577.751161 -449.799224 
L 578.467575 -445.208794 
L 579.208224 -440.618363 
L 580.041562 -436.027933 
L 581.014856 -431.437502 
L 582.13691 -426.847072 
L 583.389138 -422.256641 
L 584.730724 -417.666211 
L 586.105326 -413.07578 
L 587.469155 -408.48535 
L 588.813538 -403.894919 
L 590.161447 -399.304489 
L 591.55208 -394.714058 
L 593.004926 -390.123628 
L 594.457211 -385.533197 
L 595.752948 -380.942767 
L 596.771934 -376.352336 
L 597.59999 -371.761906 
L 598.494464 -367.171475 
L 599.623023 -362.581045 
L 600.894375 -357.990614 
L 602.089846 -353.400184 
L 603.094528 -348.809753 
L 603.950003 -344.219323 
L 604.734452 -339.628892 
L 605.458055 -335.038462 
L 606.082793 -330.448031 
L 606.606722 -325.857601 
L 607.082649 -321.26717 
L 607.549291 -316.67674 
L 607.986583 -312.086309 
L 608.355779 -307.495879 
L 608.645249 -302.905448 
L 608.847265 -298.315018 
L 608.908807 -293.724587 
L 608.734423 -289.134157 
L 608.241976 -284.543726 
L 607.415199 -279.953296 
L 606.313264 -275.362865 
L 605.036324 -270.772435 
L 603.676432 -266.182004 
L 602.285303 -261.591574 
L 600.859853 -257.001143 
L 599.339001 -252.410713 
L 597.632038 -247.820283 
L 595.686379 -243.229852 
L 593.543394 -238.639422 
L 591.320264 -234.048991 
L 589.135349 -229.458561 
L 587.057338 -224.86813 
L 585.1065 -220.2777 
L 583.27273 -215.687269 
L 581.537023 -211.096839 
L 579.895688 -206.506408 
L 578.36369 -201.915978 
L 576.958899 -197.325547 
L 575.696713 -192.735117 
L 574.593966 -188.144686 
L 573.664492 -183.554256 
L 572.911234 -178.963825 
L 572.322693 -174.373395 
L 571.871288 -169.782964 
L 571.518694 -165.192534 
L 571.233134 -160.602103 
L 571.003571 -156.011673 
L 570.833312 -151.421242 
L 570.721997 -146.830812 
L 570.65806 -142.240381 
L 570.62512 -137.649951 
L 570.609693 -133.05952 
L 570.603231 -128.46909 
z
" style="stroke: #3f3f3f; stroke-width: 1.25"/>
    </defs>
    <g clip-path="url(#p277876d62b)">
     <use xlink:href="#mab5bb89efa" x="0" y="720" style="fill: #3274a1; stroke: #3f3f3f; stroke-width: 1.25"/>
    </g>
   </g>
   <g id="PolyCollection_5">
    <defs>
     <path id="me2ae88fb14" d="M 682.20543 -125.212505 
L 682.19457 -125.212505 
L 682.184318 -130.015939 
L 682.16286 -134.819373 
L 682.124575 -139.622807 
L 682.061753 -144.426241 
L 681.962233 -149.229674 
L 681.810667 -154.033108 
L 681.59183 -158.836542 
L 681.288329 -163.639976 
L 680.876755 -168.44341 
L 680.335704 -173.246844 
L 679.660264 -178.050278 
L 678.859956 -182.853711 
L 677.935702 -187.657145 
L 676.860567 -192.460579 
L 675.590546 -197.264013 
L 674.108223 -202.067447 
L 672.468243 -206.870881 
L 670.784793 -211.674315 
L 669.136386 -216.477748 
L 667.475998 -221.281182 
L 665.666825 -226.084616 
L 663.619454 -230.88805 
L 661.383622 -235.691484 
L 659.113721 -240.494918 
L 656.959491 -245.298352 
L 654.987126 -250.101785 
L 653.183495 -254.905219 
L 651.501024 -259.708653 
L 649.889454 -264.512087 
L 648.322224 -269.315521 
L 646.841337 -274.118955 
L 645.587348 -278.922389 
L 644.73729 -283.725822 
L 644.360761 -288.529256 
L 644.334907 -293.33269 
L 644.418612 -298.136124 
L 644.424101 -302.939558 
L 644.338107 -307.742992 
L 644.296564 -312.546426 
L 644.454792 -317.349859 
L 644.874627 -322.153293 
L 645.500063 -326.956727 
L 646.221481 -331.760161 
L 646.973704 -336.563595 
L 647.779707 -341.367029 
L 648.713964 -346.170463 
L 649.839372 -350.973896 
L 651.153207 -355.77733 
L 652.552631 -360.580764 
L 653.87389 -365.384198 
L 655.030359 -370.187632 
L 656.108717 -374.991066 
L 657.263912 -379.7945 
L 658.540115 -384.597933 
L 659.875239 -389.401367 
L 661.24039 -394.204801 
L 662.670002 -399.008235 
L 664.165108 -403.811669 
L 665.640858 -408.615103 
L 666.98959 -413.418537 
L 668.181411 -418.22197 
L 669.291743 -423.025404 
L 670.419915 -427.828838 
L 671.581714 -432.632272 
L 672.699037 -437.435706 
L 673.696312 -442.23914 
L 674.579044 -447.042574 
L 675.406864 -451.846007 
L 676.21687 -456.649441 
L 676.991004 -461.452875 
L 677.6848 -466.256309 
L 678.27381 -471.059743 
L 678.770446 -475.863177 
L 679.201339 -480.666611 
L 679.580062 -485.470044 
L 679.909947 -490.273478 
L 680.204328 -495.076912 
L 680.48437 -499.880346 
L 680.755038 -504.68378 
L 681.00131 -509.487214 
L 681.212178 -514.290648 
L 681.39349 -519.094081 
L 681.55431 -523.897515 
L 681.694958 -528.700949 
L 681.81358 -533.504383 
L 681.91289 -538.307817 
L 681.994735 -543.111251 
L 682.056783 -547.914685 
L 682.099053 -552.718118 
L 682.127752 -557.521552 
L 682.149774 -562.324986 
L 682.166968 -567.12842 
L 682.177663 -571.931854 
L 682.181948 -576.735288 
L 682.183454 -581.538722 
L 682.186064 -586.342155 
L 682.19052 -591.145589 
L 682.195021 -595.949023 
L 682.198007 -600.752457 
L 682.201993 -600.752457 
L 682.201993 -600.752457 
L 682.204979 -595.949023 
L 682.20948 -591.145589 
L 682.213936 -586.342155 
L 682.216546 -581.538722 
L 682.218052 -576.735288 
L 682.222337 -571.931854 
L 682.233032 -567.12842 
L 682.250226 -562.324986 
L 682.272248 -557.521552 
L 682.300947 -552.718118 
L 682.343217 -547.914685 
L 682.405265 -543.111251 
L 682.48711 -538.307817 
L 682.58642 -533.504383 
L 682.705042 -528.700949 
L 682.84569 -523.897515 
L 683.00651 -519.094081 
L 683.187822 -514.290648 
L 683.39869 -509.487214 
L 683.644962 -504.68378 
L 683.91563 -499.880346 
L 684.195672 -495.076912 
L 684.490053 -490.273478 
L 684.819938 -485.470044 
L 685.198661 -480.666611 
L 685.629554 -475.863177 
L 686.12619 -471.059743 
L 686.7152 -466.256309 
L 687.408996 -461.452875 
L 688.18313 -456.649441 
L 688.993136 -451.846007 
L 689.820956 -447.042574 
L 690.703688 -442.23914 
L 691.700963 -437.435706 
L 692.818286 -432.632272 
L 693.980085 -427.828838 
L 695.108257 -423.025404 
L 696.218589 -418.22197 
L 697.41041 -413.418537 
L 698.759142 -408.615103 
L 700.234892 -403.811669 
L 701.729998 -399.008235 
L 703.15961 -394.204801 
L 704.524761 -389.401367 
L 705.859885 -384.597933 
L 707.136088 -379.7945 
L 708.291283 -374.991066 
L 709.369641 -370.187632 
L 710.52611 -365.384198 
L 711.847369 -360.580764 
L 713.246793 -355.77733 
L 714.560628 -350.973896 
L 715.686036 -346.170463 
L 716.620293 -341.367029 
L 717.426296 -336.563595 
L 718.178519 -331.760161 
L 718.899937 -326.956727 
L 719.525373 -322.153293 
L 719.945208 -317.349859 
L 720.103436 -312.546426 
L 720.061893 -307.742992 
L 719.975899 -302.939558 
L 719.981388 -298.136124 
L 720.065093 -293.33269 
L 720.039239 -288.529256 
L 719.66271 -283.725822 
L 718.812652 -278.922389 
L 717.558663 -274.118955 
L 716.077776 -269.315521 
L 714.510546 -264.512087 
L 712.898976 -259.708653 
L 711.216505 -254.905219 
L 709.412874 -250.101785 
L 707.440509 -245.298352 
L 705.286279 -240.494918 
L 703.016378 -235.691484 
L 700.780546 -230.88805 
L 698.733175 -226.084616 
L 696.924002 -221.281182 
L 695.263614 -216.477748 
L 693.615207 -211.674315 
L 691.931757 -206.870881 
L 690.291777 -202.067447 
L 688.809454 -197.264013 
L 687.539433 -192.460579 
L 686.464298 -187.657145 
L 685.540044 -182.853711 
L 684.739736 -178.050278 
L 684.064296 -173.246844 
L 683.523245 -168.44341 
L 683.111671 -163.639976 
L 682.80817 -158.836542 
L 682.589333 -154.033108 
L 682.437767 -149.229674 
L 682.338247 -144.426241 
L 682.275425 -139.622807 
L 682.23714 -134.819373 
L 682.215682 -130.015939 
L 682.20543 -125.212505 
z
" style="stroke: #3f3f3f; stroke-width: 1.25"/>
    </defs>
    <g clip-path="url(#p277876d62b)">
     <use xlink:href="#me2ae88fb14" x="0" y="720" style="fill: #3274a1; stroke: #3f3f3f; stroke-width: 1.25"/>
    </g>
   </g>
   <g id="PolyCollection_6">
    <defs>
     <path id="m7ef2984523" d="M 793.802799 -125.381027 
L 793.797201 -125.381027 
L 793.791373 -130.184749 
L 793.777312 -134.988471 
L 793.747615 -139.792192 
L 793.691561 -144.595914 
L 793.595729 -149.399636 
L 793.445021 -154.203358 
L 793.223047 -159.007079 
L 792.913546 -163.810801 
L 792.505119 -168.614523 
L 791.994173 -173.418245 
L 791.375301 -178.221966 
L 790.621347 -183.025688 
L 789.678797 -187.82941 
L 788.499869 -192.633132 
L 787.088956 -197.436854 
L 785.513445 -202.240575 
L 783.867533 -207.044297 
L 782.22457 -211.848019 
L 780.603498 -216.651741 
L 778.958083 -221.455462 
L 777.203417 -226.259184 
L 775.275765 -231.062906 
L 773.192311 -235.866628 
L 771.073844 -240.670349 
L 769.095736 -245.474071 
L 767.36344 -250.277793 
L 765.811711 -255.081515 
L 764.269252 -259.885236 
L 762.648701 -264.688958 
L 761.033868 -269.49268 
L 759.585451 -274.296402 
L 758.437329 -279.100123 
L 757.671054 -283.903845 
L 757.277854 -288.707567 
L 757.117368 -293.511289 
L 756.987108 -298.31501 
L 756.772209 -303.118732 
L 756.517268 -307.922454 
L 756.360414 -312.726176 
L 756.420889 -317.529897 
L 756.732846 -322.333619 
L 757.248977 -327.137341 
L 757.901586 -331.941063 
L 758.652685 -336.744785 
L 759.478286 -341.548506 
L 760.35521 -346.352228 
L 761.301435 -351.15595 
L 762.376709 -355.959672 
L 763.595202 -360.763393 
L 764.877615 -365.567115 
L 766.132315 -370.370837 
L 767.341684 -375.174559 
L 768.529455 -379.97828 
L 769.704725 -384.782002 
L 770.88846 -389.585724 
L 772.131755 -394.389446 
L 773.46207 -399.193167 
L 774.860678 -403.996889 
L 776.301216 -408.800611 
L 777.749596 -413.604333 
L 779.135253 -418.408054 
L 780.391028 -423.211776 
L 781.520249 -428.015498 
L 782.581632 -432.81922 
L 783.620146 -437.622941 
L 784.639531 -442.426663 
L 785.6199 -447.230385 
L 786.534768 -452.034107 
L 787.36138 -456.837828 
L 788.09142 -461.64155 
L 788.736267 -466.445272 
L 789.325154 -471.248994 
L 789.891095 -476.052715 
L 790.441651 -480.856437 
L 790.945732 -485.660159 
L 791.366191 -490.463881 
L 791.702956 -495.267603 
L 791.99064 -500.071324 
L 792.26192 -504.875046 
L 792.527545 -509.678768 
L 792.782336 -514.48249 
L 793.014667 -519.286211 
L 793.212424 -524.089933 
L 793.368295 -528.893655 
L 793.482292 -533.697377 
L 793.560993 -538.501098 
L 793.61492 -543.30482 
L 793.654478 -548.108542 
L 793.686487 -552.912264 
L 793.713646 -557.715985 
L 793.736227 -562.519707 
L 793.75378 -567.323429 
L 793.766052 -572.127151 
L 793.773802 -576.930872 
L 793.779196 -581.734594 
L 793.784497 -586.538316 
L 793.790155 -591.342038 
L 793.794981 -596.145759 
L 793.798004 -600.949481 
L 793.801996 -600.949481 
L 793.801996 -600.949481 
L 793.805019 -596.145759 
L 793.809845 -591.342038 
L 793.815503 -586.538316 
L 793.820804 -581.734594 
L 793.826198 -576.930872 
L 793.833948 -572.127151 
L 793.84622 -567.323429 
L 793.863773 -562.519707 
L 793.886354 -557.715985 
L 793.913513 -552.912264 
L 793.945522 -548.108542 
L 793.98508 -543.30482 
L 794.039007 -538.501098 
L 794.117708 -533.697377 
L 794.231705 -528.893655 
L 794.387576 -524.089933 
L 794.585333 -519.286211 
L 794.817664 -514.48249 
L 795.072455 -509.678768 
L 795.33808 -504.875046 
L 795.60936 -500.071324 
L 795.897044 -495.267603 
L 796.233809 -490.463881 
L 796.654268 -485.660159 
L 797.158349 -480.856437 
L 797.708905 -476.052715 
L 798.274846 -471.248994 
L 798.863733 -466.445272 
L 799.50858 -461.64155 
L 800.23862 -456.837828 
L 801.065232 -452.034107 
L 801.9801 -447.230385 
L 802.960469 -442.426663 
L 803.979854 -437.622941 
L 805.018368 -432.81922 
L 806.079751 -428.015498 
L 807.208972 -423.211776 
L 808.464747 -418.408054 
L 809.850404 -413.604333 
L 811.298784 -408.800611 
L 812.739322 -403.996889 
L 814.13793 -399.193167 
L 815.468245 -394.389446 
L 816.71154 -389.585724 
L 817.895275 -384.782002 
L 819.070545 -379.97828 
L 820.258316 -375.174559 
L 821.467685 -370.370837 
L 822.722385 -365.567115 
L 824.004798 -360.763393 
L 825.223291 -355.959672 
L 826.298565 -351.15595 
L 827.24479 -346.352228 
L 828.121714 -341.548506 
L 828.947315 -336.744785 
L 829.698414 -331.941063 
L 830.351023 -327.137341 
L 830.867154 -322.333619 
L 831.179111 -317.529897 
L 831.239586 -312.726176 
L 831.082732 -307.922454 
L 830.827791 -303.118732 
L 830.612892 -298.31501 
L 830.482632 -293.511289 
L 830.322146 -288.707567 
L 829.928946 -283.903845 
L 829.162671 -279.100123 
L 828.014549 -274.296402 
L 826.566132 -269.49268 
L 824.951299 -264.688958 
L 823.330748 -259.885236 
L 821.788289 -255.081515 
L 820.23656 -250.277793 
L 818.504264 -245.474071 
L 816.526156 -240.670349 
L 814.407689 -235.866628 
L 812.324235 -231.062906 
L 810.396583 -226.259184 
L 808.641917 -221.455462 
L 806.996502 -216.651741 
L 805.37543 -211.848019 
L 803.732467 -207.044297 
L 802.086555 -202.240575 
L 800.511044 -197.436854 
L 799.100131 -192.633132 
L 797.921203 -187.82941 
L 796.978653 -183.025688 
L 796.224699 -178.221966 
L 795.605827 -173.418245 
L 795.094881 -168.614523 
L 794.686454 -163.810801 
L 794.376953 -159.007079 
L 794.154979 -154.203358 
L 794.004271 -149.399636 
L 793.908439 -144.595914 
L 793.852385 -139.792192 
L 793.822688 -134.988471 
L 793.808627 -130.184749 
L 793.802799 -125.381027 
z
" style="stroke: #3f3f3f; stroke-width: 1.25"/>
    </defs>
    <g clip-path="url(#p277876d62b)">
     <use xlink:href="#m7ef2984523" x="0" y="720" style="fill: #3274a1; stroke: #3f3f3f; stroke-width: 1.25"/>
    </g>
   </g>
   <g id="PolyCollection_7">
    <defs>
     <path id="m1cd382e5c7" d="M 905.406264 -131.302272 
L 905.393736 -131.302272 
L 905.380199 -136.044093 
L 905.348946 -140.785915 
L 905.29013 -145.527736 
L 905.196206 -150.269558 
L 905.059982 -155.01138 
L 904.864977 -159.753201 
L 904.578688 -164.495023 
L 904.164866 -169.236844 
L 903.60854 -173.978666 
L 902.919121 -178.720488 
L 902.100332 -183.462309 
L 901.130493 -188.204131 
L 899.985518 -192.945952 
L 898.672644 -197.687774 
L 897.236231 -202.429596 
L 895.739947 -207.171417 
L 894.235062 -211.913239 
L 892.718328 -216.65506 
L 891.115646 -221.396882 
L 889.331316 -226.138704 
L 887.333102 -230.880525 
L 885.19259 -235.622347 
L 883.050844 -240.364168 
L 881.053132 -245.10599 
L 879.286179 -249.847812 
L 877.732192 -254.589633 
L 876.286254 -259.331455 
L 874.844849 -264.073276 
L 873.378912 -268.815098 
L 871.940609 -273.55692 
L 870.653951 -278.298741 
L 869.68736 -283.040563 
L 869.133264 -287.782384 
L 868.876971 -292.524206 
L 868.664839 -297.266028 
L 868.340544 -302.007849 
L 867.961062 -306.749671 
L 867.681147 -311.491492 
L 867.605397 -316.233314 
L 867.763162 -320.975136 
L 868.140394 -325.716957 
L 868.697385 -330.458779 
L 869.388905 -335.2006 
L 870.176774 -339.942422 
L 871.02016 -344.684244 
L 871.881503 -349.426065 
L 872.763414 -354.167887 
L 873.728444 -358.909708 
L 874.856291 -363.65153 
L 876.166639 -368.393352 
L 877.590345 -373.135173 
L 879.025557 -377.876995 
L 880.428337 -382.618816 
L 881.847313 -387.360638 
L 883.344072 -392.10246 
L 884.874613 -396.844281 
L 886.301339 -401.586103 
L 887.542484 -406.327924 
L 888.654081 -411.069746 
L 889.747651 -415.811568 
L 890.887195 -420.553389 
L 892.081022 -425.295211 
L 893.308285 -430.037032 
L 894.5186 -434.778854 
L 895.646963 -439.520676 
L 896.665426 -444.262497 
L 897.601113 -449.004319 
L 898.485102 -453.74614 
L 899.307718 -458.487962 
L 900.042842 -463.229784 
L 900.694924 -467.971605 
L 901.299023 -472.713427 
L 901.879574 -477.455248 
L 902.423835 -482.19707 
L 902.899793 -486.938892 
L 903.29306 -491.680713 
L 903.618777 -496.422535 
L 903.902847 -501.164356 
L 904.164364 -505.906178 
L 904.412675 -510.648 
L 904.645529 -515.389821 
L 904.848649 -520.131643 
L 905.005792 -524.873464 
L 905.110666 -529.615286 
L 905.170441 -534.357108 
L 905.202096 -539.098929 
L 905.224005 -543.840751 
L 905.247204 -548.582572 
L 905.27412 -553.324394 
L 905.303553 -558.066216 
L 905.333012 -562.808037 
L 905.357892 -567.549859 
L 905.373741 -572.29168 
L 905.380608 -577.033502 
L 905.38317 -581.775324 
L 905.386132 -586.517145 
L 905.390627 -591.258967 
L 905.395065 -596.000788 
L 905.398006 -600.74261 
L 905.401994 -600.74261 
L 905.401994 -600.74261 
L 905.404935 -596.000788 
L 905.409373 -591.258967 
L 905.413868 -586.517145 
L 905.41683 -581.775324 
L 905.419392 -577.033502 
L 905.426259 -572.29168 
L 905.442108 -567.549859 
L 905.466988 -562.808037 
L 905.496447 -558.066216 
L 905.52588 -553.324394 
L 905.552796 -548.582572 
L 905.575995 -543.840751 
L 905.597904 -539.098929 
L 905.629559 -534.357108 
L 905.689334 -529.615286 
L 905.794208 -524.873464 
L 905.951351 -520.131643 
L 906.154471 -515.389821 
L 906.387325 -510.648 
L 906.635636 -505.906178 
L 906.897153 -501.164356 
L 907.181223 -496.422535 
L 907.50694 -491.680713 
L 907.900207 -486.938892 
L 908.376165 -482.19707 
L 908.920426 -477.455248 
L 909.500977 -472.713427 
L 910.105076 -467.971605 
L 910.757158 -463.229784 
L 911.492282 -458.487962 
L 912.314898 -453.74614 
L 913.198887 -449.004319 
L 914.134574 -444.262497 
L 915.153037 -439.520676 
L 916.2814 -434.778854 
L 917.491715 -430.037032 
L 918.718978 -425.295211 
L 919.912805 -420.553389 
L 921.052349 -415.811568 
L 922.145919 -411.069746 
L 923.257516 -406.327924 
L 924.498661 -401.586103 
L 925.925387 -396.844281 
L 927.455928 -392.10246 
L 928.952687 -387.360638 
L 930.371663 -382.618816 
L 931.774443 -377.876995 
L 933.209655 -373.135173 
L 934.633361 -368.393352 
L 935.943709 -363.65153 
L 937.071556 -358.909708 
L 938.036586 -354.167887 
L 938.918497 -349.426065 
L 939.77984 -344.684244 
L 940.623226 -339.942422 
L 941.411095 -335.2006 
L 942.102615 -330.458779 
L 942.659606 -325.716957 
L 943.036838 -320.975136 
L 943.194603 -316.233314 
L 943.118853 -311.491492 
L 942.838938 -306.749671 
L 942.459456 -302.007849 
L 942.135161 -297.266028 
L 941.923029 -292.524206 
L 941.666736 -287.782384 
L 941.11264 -283.040563 
L 940.146049 -278.298741 
L 938.859391 -273.55692 
L 937.421088 -268.815098 
L 935.955151 -264.073276 
L 934.513746 -259.331455 
L 933.067808 -254.589633 
L 931.513821 -249.847812 
L 929.746868 -245.10599 
L 927.749156 -240.364168 
L 925.60741 -235.622347 
L 923.466898 -230.880525 
L 921.468684 -226.138704 
L 919.684354 -221.396882 
L 918.081672 -216.65506 
L 916.564938 -211.913239 
L 915.060053 -207.171417 
L 913.563769 -202.429596 
L 912.127356 -197.687774 
L 910.814482 -192.945952 
L 909.669507 -188.204131 
L 908.699668 -183.462309 
L 907.880879 -178.720488 
L 907.19146 -173.978666 
L 906.635134 -169.236844 
L 906.221312 -164.495023 
L 905.935023 -159.753201 
L 905.740018 -155.01138 
L 905.603794 -150.269558 
L 905.50987 -145.527736 
L 905.451054 -140.785915 
L 905.419801 -136.044093 
L 905.406264 -131.302272 
z
" style="stroke: #3f3f3f; stroke-width: 1.25"/>
    </defs>
    <g clip-path="url(#p277876d62b)">
     <use xlink:href="#m1cd382e5c7" x="0" y="720" style="fill: #3274a1; stroke: #3f3f3f; stroke-width: 1.25"/>
    </g>
   </g>
   <g id="PolyCollection_8">
    <defs>
     <path id="mf8610f75df" d="M 1017.005647 -129.010961 
L 1016.994353 -129.010961 
L 1016.982534 -133.842713 
L 1016.955663 -138.674466 
L 1016.905394 -143.506218 
L 1016.825366 -148.33797 
L 1016.711665 -153.169723 
L 1016.557499 -158.001475 
L 1016.342968 -162.833227 
L 1016.029937 -167.66498 
L 1015.575831 -172.496732 
L 1014.959317 -177.328485 
L 1014.186014 -182.160237 
L 1013.264052 -186.991989 
L 1012.184748 -191.823742 
L 1010.935596 -196.655494 
L 1009.52439 -201.487246 
L 1007.984366 -206.318999 
L 1006.357241 -211.150751 
L 1004.664081 -215.982503 
L 1002.887436 -220.814256 
L 1000.999279 -225.646008 
L 999.024321 -230.47776 
L 997.0665 -235.309513 
L 995.25572 -240.141265 
L 993.664732 -244.973018 
L 992.267856 -249.80477 
L 990.959123 -254.636522 
L 989.613459 -259.468275 
L 988.167782 -264.300027 
L 986.679983 -269.131779 
L 985.312691 -273.963532 
L 984.236056 -278.795284 
L 983.519555 -283.627036 
L 983.089261 -288.458789 
L 982.775442 -293.290541 
L 982.420167 -298.122293 
L 981.957757 -302.954046 
L 981.410238 -307.785798 
L 980.853157 -312.617551 
L 980.402527 -317.449303 
L 980.175848 -322.281055 
L 980.22242 -327.112808 
L 980.507249 -331.94456 
L 980.960829 -336.776312 
L 981.529289 -341.608065 
L 982.200089 -346.439817 
L 983.000517 -351.271569 
L 983.961085 -356.103322 
L 985.076895 -360.935074 
L 986.318377 -365.766826 
L 987.67405 -370.598579 
L 989.144643 -375.430331 
L 990.683815 -380.262083 
L 992.19111 -385.093836 
L 993.587322 -389.925588 
L 994.858961 -394.757341 
L 996.021225 -399.589093 
L 997.09493 -404.420845 
L 998.136078 -409.252598 
L 999.229969 -414.08435 
L 1000.42814 -418.916102 
L 1001.716312 -423.747855 
L 1003.040323 -428.579607 
L 1004.335367 -433.411359 
L 1005.550025 -438.243112 
L 1006.681938 -443.074864 
L 1007.774111 -447.906616 
L 1008.844887 -452.738369 
L 1009.847866 -457.570121 
L 1010.72993 -462.401874 
L 1011.498395 -467.233626 
L 1012.202969 -472.065378 
L 1012.873406 -476.897131 
L 1013.496585 -481.728883 
L 1014.044282 -486.560635 
L 1014.50592 -491.392388 
L 1014.891685 -496.22414 
L 1015.218145 -501.055892 
L 1015.502852 -505.887645 
L 1015.762361 -510.719397 
L 1016.002599 -515.551149 
L 1016.217039 -520.382902 
L 1016.39698 -525.214654 
L 1016.53661 -530.046407 
L 1016.633887 -534.878159 
L 1016.696429 -539.709911 
L 1016.741618 -544.541664 
L 1016.784855 -549.373416 
L 1016.83119 -554.205168 
L 1016.878177 -559.036921 
L 1016.920486 -563.868673 
L 1016.951802 -568.700425 
L 1016.968289 -573.532178 
L 1016.97237 -578.36393 
L 1016.971609 -583.195682 
L 1016.973138 -588.027435 
L 1016.979134 -592.859187 
L 1016.98713 -597.690939 
L 1016.993762 -602.522692 
L 1016.997637 -607.354444 
L 1017.002363 -607.354444 
L 1017.002363 -607.354444 
L 1017.006238 -602.522692 
L 1017.01287 -597.690939 
L 1017.020866 -592.859187 
L 1017.026862 -588.027435 
L 1017.028391 -583.195682 
L 1017.02763 -578.36393 
L 1017.031711 -573.532178 
L 1017.048198 -568.700425 
L 1017.079514 -563.868673 
L 1017.121823 -559.036921 
L 1017.16881 -554.205168 
L 1017.215145 -549.373416 
L 1017.258382 -544.541664 
L 1017.303571 -539.709911 
L 1017.366113 -534.878159 
L 1017.46339 -530.046407 
L 1017.60302 -525.214654 
L 1017.782961 -520.382902 
L 1017.997401 -515.551149 
L 1018.237639 -510.719397 
L 1018.497148 -505.887645 
L 1018.781855 -501.055892 
L 1019.108315 -496.22414 
L 1019.49408 -491.392388 
L 1019.955718 -486.560635 
L 1020.503415 -481.728883 
L 1021.126594 -476.897131 
L 1021.797031 -472.065378 
L 1022.501605 -467.233626 
L 1023.27007 -462.401874 
L 1024.152134 -457.570121 
L 1025.155113 -452.738369 
L 1026.225889 -447.906616 
L 1027.318062 -443.074864 
L 1028.449975 -438.243112 
L 1029.664633 -433.411359 
L 1030.959677 -428.579607 
L 1032.283688 -423.747855 
L 1033.57186 -418.916102 
L 1034.770031 -414.08435 
L 1035.863922 -409.252598 
L 1036.90507 -404.420845 
L 1037.978775 -399.589093 
L 1039.141039 -394.757341 
L 1040.412678 -389.925588 
L 1041.80889 -385.093836 
L 1043.316185 -380.262083 
L 1044.855357 -375.430331 
L 1046.32595 -370.598579 
L 1047.681623 -365.766826 
L 1048.923105 -360.935074 
L 1050.038915 -356.103322 
L 1050.999483 -351.271569 
L 1051.799911 -346.439817 
L 1052.470711 -341.608065 
L 1053.039171 -336.776312 
L 1053.492751 -331.94456 
L 1053.77758 -327.112808 
L 1053.824152 -322.281055 
L 1053.597473 -317.449303 
L 1053.146843 -312.617551 
L 1052.589762 -307.785798 
L 1052.042243 -302.954046 
L 1051.579833 -298.122293 
L 1051.224558 -293.290541 
L 1050.910739 -288.458789 
L 1050.480445 -283.627036 
L 1049.763944 -278.795284 
L 1048.687309 -273.963532 
L 1047.320017 -269.131779 
L 1045.832218 -264.300027 
L 1044.386541 -259.468275 
L 1043.040877 -254.636522 
L 1041.732144 -249.80477 
L 1040.335268 -244.973018 
L 1038.74428 -240.141265 
L 1036.9335 -235.309513 
L 1034.975679 -230.47776 
L 1033.000721 -225.646008 
L 1031.112564 -220.814256 
L 1029.335919 -215.982503 
L 1027.642759 -211.150751 
L 1026.015634 -206.318999 
L 1024.47561 -201.487246 
L 1023.064404 -196.655494 
L 1021.815252 -191.823742 
L 1020.735948 -186.991989 
L 1019.813986 -182.160237 
L 1019.040683 -177.328485 
L 1018.424169 -172.496732 
L 1017.970063 -167.66498 
L 1017.657032 -162.833227 
L 1017.442501 -158.001475 
L 1017.288335 -153.169723 
L 1017.174634 -148.33797 
L 1017.094606 -143.506218 
L 1017.044337 -138.674466 
L 1017.017466 -133.842713 
L 1017.005647 -129.010961 
z
" style="stroke: #3f3f3f; stroke-width: 1.25"/>
    </defs>
    <g clip-path="url(#p277876d62b)">
     <use xlink:href="#mf8610f75df" x="0" y="720" style="fill: #3274a1; stroke: #3f3f3f; stroke-width: 1.25"/>
    </g>
   </g>
   <g id="PolyCollection_9">
    <defs>
     <path id="m9fbacd822b" d="M 1128.60648 -129.129576 
L 1128.59352 -129.129576 
L 1128.579255 -133.958932 
L 1128.546074 -138.788288 
L 1128.484497 -143.617644 
L 1128.391898 -148.447 
L 1128.27423 -153.276356 
L 1128.134253 -158.105712 
L 1127.952683 -162.935068 
L 1127.683312 -167.764425 
L 1127.27314 -172.593781 
L 1126.689441 -177.423137 
L 1125.926083 -182.252493 
L 1124.988971 -187.081849 
L 1123.88613 -191.911205 
L 1122.631328 -196.740561 
L 1121.244299 -201.569917 
L 1119.746184 -206.399273 
L 1118.164772 -211.228629 
L 1116.530324 -216.057986 
L 1114.839522 -220.887342 
L 1113.040158 -225.716698 
L 1111.096997 -230.546054 
L 1109.070517 -235.37541 
L 1107.090994 -240.204766 
L 1105.256052 -245.034122 
L 1103.569589 -249.863478 
L 1101.952064 -254.692834 
L 1100.298112 -259.52219 
L 1098.578444 -264.351547 
L 1096.924239 -269.180903 
L 1095.572023 -274.010259 
L 1094.672269 -278.839615 
L 1094.150104 -283.668971 
L 1093.770887 -288.498327 
L 1093.340824 -293.327683 
L 1092.835314 -298.157039 
L 1092.33871 -302.986395 
L 1091.903337 -307.815751 
L 1091.516126 -312.645107 
L 1091.181753 -317.474464 
L 1090.9742 -322.30382 
L 1090.993518 -327.133176 
L 1091.301657 -331.962532 
L 1091.903012 -336.791888 
L 1092.763951 -341.621244 
L 1093.835197 -346.4506 
L 1095.057444 -351.279956 
L 1096.368288 -356.109312 
L 1097.721164 -360.938668 
L 1099.096464 -365.768025 
L 1100.495419 -370.597381 
L 1101.911671 -375.426737 
L 1103.298261 -380.256093 
L 1104.599039 -385.085449 
L 1105.827655 -389.914805 
L 1107.052653 -394.744161 
L 1108.283641 -399.573517 
L 1109.44388 -404.402873 
L 1110.480966 -409.232229 
L 1111.45026 -414.061586 
L 1112.471021 -418.890942 
L 1113.627513 -423.720298 
L 1114.906856 -428.549654 
L 1116.209172 -433.37901 
L 1117.428683 -438.208366 
L 1118.540947 -443.037722 
L 1119.597534 -447.867078 
L 1120.634164 -452.696434 
L 1121.619057 -457.52579 
L 1122.502864 -462.355146 
L 1123.281576 -467.184503 
L 1123.987327 -472.013859 
L 1124.636606 -476.843215 
L 1125.209755 -481.672571 
L 1125.685848 -486.501927 
L 1126.082386 -491.331283 
L 1126.440825 -496.160639 
L 1126.783601 -500.989995 
L 1127.106303 -505.819351 
L 1127.397685 -510.648707 
L 1127.647984 -515.478064 
L 1127.849955 -520.30742 
L 1128.002802 -525.136776 
L 1128.110099 -529.966132 
L 1128.177839 -534.795488 
L 1128.220669 -539.624844 
L 1128.261238 -544.4542 
L 1128.315151 -549.283556 
L 1128.380644 -554.112912 
L 1128.445383 -558.942268 
L 1128.498182 -563.771625 
L 1128.533811 -568.600981 
L 1128.552963 -573.430337 
L 1128.560872 -578.259693 
L 1128.56462 -583.089049 
L 1128.569739 -587.918405 
L 1128.577781 -592.747761 
L 1128.58668 -597.577117 
L 1128.593642 -602.406473 
L 1128.597617 -607.235829 
L 1128.602383 -607.235829 
L 1128.602383 -607.235829 
L 1128.606358 -602.406473 
L 1128.61332 -597.577117 
L 1128.622219 -592.747761 
L 1128.630261 -587.918405 
L 1128.63538 -583.089049 
L 1128.639128 -578.259693 
L 1128.647037 -573.430337 
L 1128.666189 -568.600981 
L 1128.701818 -563.771625 
L 1128.754617 -558.942268 
L 1128.819356 -554.112912 
L 1128.884849 -549.283556 
L 1128.938762 -544.4542 
L 1128.979331 -539.624844 
L 1129.022161 -534.795488 
L 1129.089901 -529.966132 
L 1129.197198 -525.136776 
L 1129.350045 -520.30742 
L 1129.552016 -515.478064 
L 1129.802315 -510.648707 
L 1130.093697 -505.819351 
L 1130.416399 -500.989995 
L 1130.759175 -496.160639 
L 1131.117614 -491.331283 
L 1131.514152 -486.501927 
L 1131.990245 -481.672571 
L 1132.563394 -476.843215 
L 1133.212673 -472.013859 
L 1133.918424 -467.184503 
L 1134.697136 -462.355146 
L 1135.580943 -457.52579 
L 1136.565836 -452.696434 
L 1137.602466 -447.867078 
L 1138.659053 -443.037722 
L 1139.771317 -438.208366 
L 1140.990828 -433.37901 
L 1142.293144 -428.549654 
L 1143.572487 -423.720298 
L 1144.728979 -418.890942 
L 1145.74974 -414.061586 
L 1146.719034 -409.232229 
L 1147.75612 -404.402873 
L 1148.916359 -399.573517 
L 1150.147347 -394.744161 
L 1151.372345 -389.914805 
L 1152.600961 -385.085449 
L 1153.901739 -380.256093 
L 1155.288329 -375.426737 
L 1156.704581 -370.597381 
L 1158.103536 -365.768025 
L 1159.478836 -360.938668 
L 1160.831712 -356.109312 
L 1162.142556 -351.279956 
L 1163.364803 -346.4506 
L 1164.436049 -341.621244 
L 1165.296988 -336.791888 
L 1165.898343 -331.962532 
L 1166.206482 -327.133176 
L 1166.2258 -322.30382 
L 1166.018247 -317.474464 
L 1165.683874 -312.645107 
L 1165.296663 -307.815751 
L 1164.86129 -302.986395 
L 1164.364686 -298.157039 
L 1163.859176 -293.327683 
L 1163.429113 -288.498327 
L 1163.049896 -283.668971 
L 1162.527731 -278.839615 
L 1161.627977 -274.010259 
L 1160.275761 -269.180903 
L 1158.621556 -264.351547 
L 1156.901888 -259.52219 
L 1155.247936 -254.692834 
L 1153.630411 -249.863478 
L 1151.943948 -245.034122 
L 1150.109006 -240.204766 
L 1148.129483 -235.37541 
L 1146.103003 -230.546054 
L 1144.159842 -225.716698 
L 1142.360478 -220.887342 
L 1140.669676 -216.057986 
L 1139.035228 -211.228629 
L 1137.453816 -206.399273 
L 1135.955701 -201.569917 
L 1134.568672 -196.740561 
L 1133.31387 -191.911205 
L 1132.211029 -187.081849 
L 1131.273917 -182.252493 
L 1130.510559 -177.423137 
L 1129.92686 -172.593781 
L 1129.516688 -167.764425 
L 1129.247317 -162.935068 
L 1129.065747 -158.105712 
L 1128.92577 -153.276356 
L 1128.808102 -148.447 
L 1128.715503 -143.617644 
L 1128.653926 -138.788288 
L 1128.620745 -133.958932 
L 1128.60648 -129.129576 
z
" style="stroke: #3f3f3f; stroke-width: 1.25"/>
    </defs>
    <g clip-path="url(#p277876d62b)">
     <use xlink:href="#m9fbacd822b" x="0" y="720" style="fill: #3274a1; stroke: #3f3f3f; stroke-width: 1.25"/>
    </g>
   </g>
   <g id="PolyCollection_10">
    <defs>
     <path id="mb44ef25b3f" d="M 1240.205921 -129.240351 
L 1240.194079 -129.240351 
L 1240.181198 -134.067469 
L 1240.151472 -138.894587 
L 1240.096371 -143.721705 
L 1240.012385 -148.548823 
L 1239.901552 -153.375942 
L 1239.761496 -158.20306 
L 1239.571244 -163.030178 
L 1239.28957 -167.857296 
L 1238.873368 -172.684415 
L 1238.29892 -177.511533 
L 1237.561551 -182.338651 
L 1236.658151 -187.165769 
L 1235.582491 -191.992887 
L 1234.341387 -196.820006 
L 1232.967148 -201.647124 
L 1231.508002 -206.474242 
L 1230.001494 -211.30136 
L 1228.444485 -216.128479 
L 1226.781621 -220.955597 
L 1224.943789 -225.782715 
L 1222.934324 -230.609833 
L 1220.881983 -235.436951 
L 1218.972241 -240.26407 
L 1217.299988 -245.091188 
L 1215.790172 -249.918306 
L 1214.255274 -254.745424 
L 1212.532233 -259.572543 
L 1210.615221 -264.399661 
L 1208.704768 -269.226779 
L 1207.100075 -274.053897 
L 1205.983798 -278.881015 
L 1205.293977 -283.708134 
L 1204.795167 -288.535252 
L 1204.259029 -293.36237 
L 1203.61301 -298.189488 
L 1202.958336 -303.016607 
L 1202.434636 -307.843725 
L 1202.071623 -312.670843 
L 1201.809486 -317.497961 
L 1201.641632 -322.325079 
L 1201.668852 -327.152198 
L 1202.012422 -331.979316 
L 1202.728796 -336.806434 
L 1203.804414 -341.633552 
L 1205.168038 -346.460671 
L 1206.691912 -351.287789 
L 1208.231227 -356.114907 
L 1209.691055 -360.942025 
L 1211.053915 -365.769143 
L 1212.362482 -370.596262 
L 1213.680827 -375.42338 
L 1215.033404 -380.250498 
L 1216.370341 -385.077616 
L 1217.621582 -389.904735 
L 1218.777122 -394.731853 
L 1219.888746 -399.558971 
L 1221.011583 -404.386089 
L 1222.161695 -409.213208 
L 1223.32109 -414.040326 
L 1224.480026 -418.867444 
L 1225.660571 -423.694562 
L 1226.877792 -428.52168 
L 1228.097646 -433.348799 
L 1229.269059 -438.175917 
L 1230.385755 -443.003035 
L 1231.47497 -447.830153 
L 1232.526472 -452.657272 
L 1233.479985 -457.48439 
L 1234.296559 -462.311508 
L 1235.003907 -467.138626 
L 1235.655137 -471.965744 
L 1236.268631 -476.792863 
L 1236.82297 -481.619981 
L 1237.297443 -486.447099 
L 1237.699187 -491.274217 
L 1238.048873 -496.101336 
L 1238.35974 -500.928454 
L 1238.641735 -505.755572 
L 1238.905787 -510.58269 
L 1239.150349 -515.409808 
L 1239.360562 -520.236927 
L 1239.52654 -525.064045 
L 1239.648925 -529.891163 
L 1239.731791 -534.718281 
L 1239.785588 -539.5454 
L 1239.831223 -544.372518 
L 1239.887851 -549.199636 
L 1239.958089 -554.026754 
L 1240.030062 -558.853872 
L 1240.089968 -563.680991 
L 1240.130419 -568.508109 
L 1240.151916 -573.335227 
L 1240.160602 -578.162345 
L 1240.164453 -582.989464 
L 1240.169517 -587.816582 
L 1240.177565 -592.6437 
L 1240.186542 -597.470818 
L 1240.193588 -602.297936 
L 1240.197607 -607.125055 
L 1240.202393 -607.125055 
L 1240.202393 -607.125055 
L 1240.206412 -602.297936 
L 1240.213458 -597.470818 
L 1240.222435 -592.6437 
L 1240.230483 -587.816582 
L 1240.235547 -582.989464 
L 1240.239398 -578.162345 
L 1240.248084 -573.335227 
L 1240.269581 -568.508109 
L 1240.310032 -563.680991 
L 1240.369938 -558.853872 
L 1240.441911 -554.026754 
L 1240.512149 -549.199636 
L 1240.568777 -544.372518 
L 1240.614412 -539.5454 
L 1240.668209 -534.718281 
L 1240.751075 -529.891163 
L 1240.87346 -525.064045 
L 1241.039438 -520.236927 
L 1241.249651 -515.409808 
L 1241.494213 -510.58269 
L 1241.758265 -505.755572 
L 1242.04026 -500.928454 
L 1242.351127 -496.101336 
L 1242.700813 -491.274217 
L 1243.102557 -486.447099 
L 1243.57703 -481.619981 
L 1244.131369 -476.792863 
L 1244.744863 -471.965744 
L 1245.396093 -467.138626 
L 1246.103441 -462.311508 
L 1246.920015 -457.48439 
L 1247.873528 -452.657272 
L 1248.92503 -447.830153 
L 1250.014245 -443.003035 
L 1251.130941 -438.175917 
L 1252.302354 -433.348799 
L 1253.522208 -428.52168 
L 1254.739429 -423.694562 
L 1255.919974 -418.867444 
L 1257.07891 -414.040326 
L 1258.238305 -409.213208 
L 1259.388417 -404.386089 
L 1260.511254 -399.558971 
L 1261.622878 -394.731853 
L 1262.778418 -389.904735 
L 1264.029659 -385.077616 
L 1265.366596 -380.250498 
L 1266.719173 -375.42338 
L 1268.037518 -370.596262 
L 1269.346085 -365.769143 
L 1270.708945 -360.942025 
L 1272.168773 -356.114907 
L 1273.708088 -351.287789 
L 1275.231962 -346.460671 
L 1276.595586 -341.633552 
L 1277.671204 -336.806434 
L 1278.387578 -331.979316 
L 1278.731148 -327.152198 
L 1278.758368 -322.325079 
L 1278.590514 -317.497961 
L 1278.328377 -312.670843 
L 1277.965364 -307.843725 
L 1277.441664 -303.016607 
L 1276.78699 -298.189488 
L 1276.140971 -293.36237 
L 1275.604833 -288.535252 
L 1275.106023 -283.708134 
L 1274.416202 -278.881015 
L 1273.299925 -274.053897 
L 1271.695232 -269.226779 
L 1269.784779 -264.399661 
L 1267.867767 -259.572543 
L 1266.144726 -254.745424 
L 1264.609828 -249.918306 
L 1263.100012 -245.091188 
L 1261.427759 -240.26407 
L 1259.518017 -235.436951 
L 1257.465676 -230.609833 
L 1255.456211 -225.782715 
L 1253.618379 -220.955597 
L 1251.955515 -216.128479 
L 1250.398506 -211.30136 
L 1248.891998 -206.474242 
L 1247.432852 -201.647124 
L 1246.058613 -196.820006 
L 1244.817509 -191.992887 
L 1243.741849 -187.165769 
L 1242.838449 -182.338651 
L 1242.10108 -177.511533 
L 1241.526632 -172.684415 
L 1241.11043 -167.857296 
L 1240.828756 -163.030178 
L 1240.638504 -158.20306 
L 1240.498448 -153.375942 
L 1240.387615 -148.548823 
L 1240.303629 -143.721705 
L 1240.248528 -138.894587 
L 1240.218802 -134.067469 
L 1240.205921 -129.240351 
z
" style="stroke: #3f3f3f; stroke-width: 1.25"/>
    </defs>
    <g clip-path="url(#p277876d62b)">
     <use xlink:href="#mb44ef25b3f" x="0" y="720" style="fill: #3274a1; stroke: #3f3f3f; stroke-width: 1.25"/>
    </g>
   </g>
   <g id="matplotlib.axis_1">
    <g id="xtick_1">
     <g id="line2d_1">
      <defs>
       <path id="m01568b4676" d="M 0 0 
L 0 3.5 
" style="stroke: #000000; stroke-width: 0.8"/>
      </defs>
      <g>
       <use xlink:href="#m01568b4676" x="235.8" y="640.8" style="stroke: #000000; stroke-width: 0.8"/>
      </g>
     </g>
     <g id="text_1">
      <!-- 0 -->
      <g transform="translate(232.61875 655.398438) scale(0.1 -0.1)">
       <defs>
        <path id="DejaVuSans-30" d="M 2034 4250 
Q 1547 4250 1301 3770 
Q 1056 3291 1056 2328 
Q 1056 1369 1301 889 
Q 1547 409 2034 409 
Q 2525 409 2770 889 
Q 3016 1369 3016 2328 
Q 3016 3291 2770 3770 
Q 2525 4250 2034 4250 
z
M 2034 4750 
Q 2819 4750 3233 4129 
Q 3647 3509 3647 2328 
Q 3647 1150 3233 529 
Q 2819 -91 2034 -91 
Q 1250 -91 836 529 
Q 422 1150 422 2328 
Q 422 3509 836 4129 
Q 1250 4750 2034 4750 
z
" transform="scale(0.015625)"/>
       </defs>
       <use xlink:href="#DejaVuSans-30"/>
      </g>
     </g>
    </g>
    <g id="xtick_2">
     <g id="line2d_2">
      <g>
       <use xlink:href="#m01568b4676" x="347.4" y="640.8" style="stroke: #000000; stroke-width: 0.8"/>
      </g>
     </g>
     <g id="text_2">
      <!-- 1 -->
      <g transform="translate(344.21875 655.398438) scale(0.1 -0.1)">
       <defs>
        <path id="DejaVuSans-31" d="M 794 531 
L 1825 531 
L 1825 4091 
L 703 3866 
L 703 4441 
L 1819 4666 
L 2450 4666 
L 2450 531 
L 3481 531 
L 3481 0 
L 794 0 
L 794 531 
z
" transform="scale(0.015625)"/>
       </defs>
       <use xlink:href="#DejaVuSans-31"/>
      </g>
     </g>
    </g>
    <g id="xtick_3">
     <g id="line2d_3">
      <g>
       <use xlink:href="#m01568b4676" x="459" y="640.8" style="stroke: #000000; stroke-width: 0.8"/>
      </g>
     </g>
     <g id="text_3">
      <!-- 2 -->
      <g transform="translate(455.81875 655.398438) scale(0.1 -0.1)">
       <defs>
        <path id="DejaVuSans-32" d="M 1228 531 
L 3431 531 
L 3431 0 
L 469 0 
L 469 531 
Q 828 903 1448 1529 
Q 2069 2156 2228 2338 
Q 2531 2678 2651 2914 
Q 2772 3150 2772 3378 
Q 2772 3750 2511 3984 
Q 2250 4219 1831 4219 
Q 1534 4219 1204 4116 
Q 875 4013 500 3803 
L 500 4441 
Q 881 4594 1212 4672 
Q 1544 4750 1819 4750 
Q 2544 4750 2975 4387 
Q 3406 4025 3406 3419 
Q 3406 3131 3298 2873 
Q 3191 2616 2906 2266 
Q 2828 2175 2409 1742 
Q 1991 1309 1228 531 
z
" transform="scale(0.015625)"/>
       </defs>
       <use xlink:href="#DejaVuSans-32"/>
      </g>
     </g>
    </g>
    <g id="xtick_4">
     <g id="line2d_4">
      <g>
       <use xlink:href="#m01568b4676" x="570.6" y="640.8" style="stroke: #000000; stroke-width: 0.8"/>
      </g>
     </g>
     <g id="text_4">
      <!-- 3 -->
      <g transform="translate(567.41875 655.398438) scale(0.1 -0.1)">
       <defs>
        <path id="DejaVuSans-33" d="M 2597 2516 
Q 3050 2419 3304 2112 
Q 3559 1806 3559 1356 
Q 3559 666 3084 287 
Q 2609 -91 1734 -91 
Q 1441 -91 1130 -33 
Q 819 25 488 141 
L 488 750 
Q 750 597 1062 519 
Q 1375 441 1716 441 
Q 2309 441 2620 675 
Q 2931 909 2931 1356 
Q 2931 1769 2642 2001 
Q 2353 2234 1838 2234 
L 1294 2234 
L 1294 2753 
L 1863 2753 
Q 2328 2753 2575 2939 
Q 2822 3125 2822 3475 
Q 2822 3834 2567 4026 
Q 2313 4219 1838 4219 
Q 1578 4219 1281 4162 
Q 984 4106 628 3988 
L 628 4550 
Q 988 4650 1302 4700 
Q 1616 4750 1894 4750 
Q 2613 4750 3031 4423 
Q 3450 4097 3450 3541 
Q 3450 3153 3228 2886 
Q 3006 2619 2597 2516 
z
" transform="scale(0.015625)"/>
       </defs>
       <use xlink:href="#DejaVuSans-33"/>
      </g>
     </g>
    </g>
    <g id="xtick_5">
     <g id="line2d_5">
      <g>
       <use xlink:href="#m01568b4676" x="682.2" y="640.8" style="stroke: #000000; stroke-width: 0.8"/>
      </g>
     </g>
     <g id="text_5">
      <!-- 4 -->
      <g transform="translate(679.01875 655.398438) scale(0.1 -0.1)">
       <defs>
        <path id="DejaVuSans-34" d="M 2419 4116 
L 825 1625 
L 2419 1625 
L 2419 4116 
z
M 2253 4666 
L 3047 4666 
L 3047 1625 
L 3713 1625 
L 3713 1100 
L 3047 1100 
L 3047 0 
L 2419 0 
L 2419 1100 
L 313 1100 
L 313 1709 
L 2253 4666 
z
" transform="scale(0.015625)"/>
       </defs>
       <use xlink:href="#DejaVuSans-34"/>
      </g>
     </g>
    </g>
    <g id="xtick_6">
     <g id="line2d_6">
      <g>
       <use xlink:href="#m01568b4676" x="793.8" y="640.8" style="stroke: #000000; stroke-width: 0.8"/>
      </g>
     </g>
     <g id="text_6">
      <!-- 5 -->
      <g transform="translate(790.61875 655.398438) scale(0.1 -0.1)">
       <defs>
        <path id="DejaVuSans-35" d="M 691 4666 
L 3169 4666 
L 3169 4134 
L 1269 4134 
L 1269 2991 
Q 1406 3038 1543 3061 
Q 1681 3084 1819 3084 
Q 2600 3084 3056 2656 
Q 3513 2228 3513 1497 
Q 3513 744 3044 326 
Q 2575 -91 1722 -91 
Q 1428 -91 1123 -41 
Q 819 9 494 109 
L 494 744 
Q 775 591 1075 516 
Q 1375 441 1709 441 
Q 2250 441 2565 725 
Q 2881 1009 2881 1497 
Q 2881 1984 2565 2268 
Q 2250 2553 1709 2553 
Q 1456 2553 1204 2497 
Q 953 2441 691 2322 
L 691 4666 
z
" transform="scale(0.015625)"/>
       </defs>
       <use xlink:href="#DejaVuSans-35"/>
      </g>
     </g>
    </g>
    <g id="xtick_7">
     <g id="line2d_7">
      <g>
       <use xlink:href="#m01568b4676" x="905.4" y="640.8" style="stroke: #000000; stroke-width: 0.8"/>
      </g>
     </g>
     <g id="text_7">
      <!-- 6 -->
      <g transform="translate(902.21875 655.398438) scale(0.1 -0.1)">
       <defs>
        <path id="DejaVuSans-36" d="M 2113 2584 
Q 1688 2584 1439 2293 
Q 1191 2003 1191 1497 
Q 1191 994 1439 701 
Q 1688 409 2113 409 
Q 2538 409 2786 701 
Q 3034 994 3034 1497 
Q 3034 2003 2786 2293 
Q 2538 2584 2113 2584 
z
M 3366 4563 
L 3366 3988 
Q 3128 4100 2886 4159 
Q 2644 4219 2406 4219 
Q 1781 4219 1451 3797 
Q 1122 3375 1075 2522 
Q 1259 2794 1537 2939 
Q 1816 3084 2150 3084 
Q 2853 3084 3261 2657 
Q 3669 2231 3669 1497 
Q 3669 778 3244 343 
Q 2819 -91 2113 -91 
Q 1303 -91 875 529 
Q 447 1150 447 2328 
Q 447 3434 972 4092 
Q 1497 4750 2381 4750 
Q 2619 4750 2861 4703 
Q 3103 4656 3366 4563 
z
" transform="scale(0.015625)"/>
       </defs>
       <use xlink:href="#DejaVuSans-36"/>
      </g>
     </g>
    </g>
    <g id="xtick_8">
     <g id="line2d_8">
      <g>
       <use xlink:href="#m01568b4676" x="1017" y="640.8" style="stroke: #000000; stroke-width: 0.8"/>
      </g>
     </g>
     <g id="text_8">
      <!-- 7 -->
      <g transform="translate(1013.81875 655.398438) scale(0.1 -0.1)">
       <defs>
        <path id="DejaVuSans-37" d="M 525 4666 
L 3525 4666 
L 3525 4397 
L 1831 0 
L 1172 0 
L 2766 4134 
L 525 4134 
L 525 4666 
z
" transform="scale(0.015625)"/>
       </defs>
       <use xlink:href="#DejaVuSans-37"/>
      </g>
     </g>
    </g>
    <g id="xtick_9">
     <g id="line2d_9">
      <g>
       <use xlink:href="#m01568b4676" x="1128.6" y="640.8" style="stroke: #000000; stroke-width: 0.8"/>
      </g>
     </g>
     <g id="text_9">
      <!-- 8 -->
      <g transform="translate(1125.41875 655.398438) scale(0.1 -0.1)">
       <defs>
        <path id="DejaVuSans-38" d="M 2034 2216 
Q 1584 2216 1326 1975 
Q 1069 1734 1069 1313 
Q 1069 891 1326 650 
Q 1584 409 2034 409 
Q 2484 409 2743 651 
Q 3003 894 3003 1313 
Q 3003 1734 2745 1975 
Q 2488 2216 2034 2216 
z
M 1403 2484 
Q 997 2584 770 2862 
Q 544 3141 544 3541 
Q 544 4100 942 4425 
Q 1341 4750 2034 4750 
Q 2731 4750 3128 4425 
Q 3525 4100 3525 3541 
Q 3525 3141 3298 2862 
Q 3072 2584 2669 2484 
Q 3125 2378 3379 2068 
Q 3634 1759 3634 1313 
Q 3634 634 3220 271 
Q 2806 -91 2034 -91 
Q 1263 -91 848 271 
Q 434 634 434 1313 
Q 434 1759 690 2068 
Q 947 2378 1403 2484 
z
M 1172 3481 
Q 1172 3119 1398 2916 
Q 1625 2713 2034 2713 
Q 2441 2713 2670 2916 
Q 2900 3119 2900 3481 
Q 2900 3844 2670 4047 
Q 2441 4250 2034 4250 
Q 1625 4250 1398 4047 
Q 1172 3844 1172 3481 
z
" transform="scale(0.015625)"/>
       </defs>
       <use xlink:href="#DejaVuSans-38"/>
      </g>
     </g>
    </g>
    <g id="xtick_10">
     <g id="line2d_10">
      <g>
       <use xlink:href="#m01568b4676" x="1240.2" y="640.8" style="stroke: #000000; stroke-width: 0.8"/>
      </g>
     </g>
     <g id="text_10">
      <!-- 9 -->
      <g transform="translate(1237.01875 655.398438) scale(0.1 -0.1)">
       <defs>
        <path id="DejaVuSans-39" d="M 703 97 
L 703 672 
Q 941 559 1184 500 
Q 1428 441 1663 441 
Q 2288 441 2617 861 
Q 2947 1281 2994 2138 
Q 2813 1869 2534 1725 
Q 2256 1581 1919 1581 
Q 1219 1581 811 2004 
Q 403 2428 403 3163 
Q 403 3881 828 4315 
Q 1253 4750 1959 4750 
Q 2769 4750 3195 4129 
Q 3622 3509 3622 2328 
Q 3622 1225 3098 567 
Q 2575 -91 1691 -91 
Q 1453 -91 1209 -44 
Q 966 3 703 97 
z
M 1959 2075 
Q 2384 2075 2632 2365 
Q 2881 2656 2881 3163 
Q 2881 3666 2632 3958 
Q 2384 4250 1959 4250 
Q 1534 4250 1286 3958 
Q 1038 3666 1038 3163 
Q 1038 2656 1286 2365 
Q 1534 2075 1959 2075 
z
" transform="scale(0.015625)"/>
       </defs>
       <use xlink:href="#DejaVuSans-39"/>
      </g>
     </g>
    </g>
    <g id="text_11">
     <!-- iteration -->
     <g transform="translate(716.877344 669.076563) scale(0.1 -0.1)">
      <defs>
       <path id="DejaVuSans-69" d="M 603 3500 
L 1178 3500 
L 1178 0 
L 603 0 
L 603 3500 
z
M 603 4863 
L 1178 4863 
L 1178 4134 
L 603 4134 
L 603 4863 
z
" transform="scale(0.015625)"/>
       <path id="DejaVuSans-74" d="M 1172 4494 
L 1172 3500 
L 2356 3500 
L 2356 3053 
L 1172 3053 
L 1172 1153 
Q 1172 725 1289 603 
Q 1406 481 1766 481 
L 2356 481 
L 2356 0 
L 1766 0 
Q 1100 0 847 248 
Q 594 497 594 1153 
L 594 3053 
L 172 3053 
L 172 3500 
L 594 3500 
L 594 4494 
L 1172 4494 
z
" transform="scale(0.015625)"/>
       <path id="DejaVuSans-65" d="M 3597 1894 
L 3597 1613 
L 953 1613 
Q 991 1019 1311 708 
Q 1631 397 2203 397 
Q 2534 397 2845 478 
Q 3156 559 3463 722 
L 3463 178 
Q 3153 47 2828 -22 
Q 2503 -91 2169 -91 
Q 1331 -91 842 396 
Q 353 884 353 1716 
Q 353 2575 817 3079 
Q 1281 3584 2069 3584 
Q 2775 3584 3186 3129 
Q 3597 2675 3597 1894 
z
M 3022 2063 
Q 3016 2534 2758 2815 
Q 2500 3097 2075 3097 
Q 1594 3097 1305 2825 
Q 1016 2553 972 2059 
L 3022 2063 
z
" transform="scale(0.015625)"/>
       <path id="DejaVuSans-72" d="M 2631 2963 
Q 2534 3019 2420 3045 
Q 2306 3072 2169 3072 
Q 1681 3072 1420 2755 
Q 1159 2438 1159 1844 
L 1159 0 
L 581 0 
L 581 3500 
L 1159 3500 
L 1159 2956 
Q 1341 3275 1631 3429 
Q 1922 3584 2338 3584 
Q 2397 3584 2469 3576 
Q 2541 3569 2628 3553 
L 2631 2963 
z
" transform="scale(0.015625)"/>
       <path id="DejaVuSans-61" d="M 2194 1759 
Q 1497 1759 1228 1600 
Q 959 1441 959 1056 
Q 959 750 1161 570 
Q 1363 391 1709 391 
Q 2188 391 2477 730 
Q 2766 1069 2766 1631 
L 2766 1759 
L 2194 1759 
z
M 3341 1997 
L 3341 0 
L 2766 0 
L 2766 531 
Q 2569 213 2275 61 
Q 1981 -91 1556 -91 
Q 1019 -91 701 211 
Q 384 513 384 1019 
Q 384 1609 779 1909 
Q 1175 2209 1959 2209 
L 2766 2209 
L 2766 2266 
Q 2766 2663 2505 2880 
Q 2244 3097 1772 3097 
Q 1472 3097 1187 3025 
Q 903 2953 641 2809 
L 641 3341 
Q 956 3463 1253 3523 
Q 1550 3584 1831 3584 
Q 2591 3584 2966 3190 
Q 3341 2797 3341 1997 
z
" transform="scale(0.015625)"/>
       <path id="DejaVuSans-6f" d="M 1959 3097 
Q 1497 3097 1228 2736 
Q 959 2375 959 1747 
Q 959 1119 1226 758 
Q 1494 397 1959 397 
Q 2419 397 2687 759 
Q 2956 1122 2956 1747 
Q 2956 2369 2687 2733 
Q 2419 3097 1959 3097 
z
M 1959 3584 
Q 2709 3584 3137 3096 
Q 3566 2609 3566 1747 
Q 3566 888 3137 398 
Q 2709 -91 1959 -91 
Q 1206 -91 779 398 
Q 353 888 353 1747 
Q 353 2609 779 3096 
Q 1206 3584 1959 3584 
z
" transform="scale(0.015625)"/>
       <path id="DejaVuSans-6e" d="M 3513 2113 
L 3513 0 
L 2938 0 
L 2938 2094 
Q 2938 2591 2744 2837 
Q 2550 3084 2163 3084 
Q 1697 3084 1428 2787 
Q 1159 2491 1159 1978 
L 1159 0 
L 581 0 
L 581 3500 
L 1159 3500 
L 1159 2956 
Q 1366 3272 1645 3428 
Q 1925 3584 2291 3584 
Q 2894 3584 3203 3211 
Q 3513 2838 3513 2113 
z
" transform="scale(0.015625)"/>
      </defs>
      <use xlink:href="#DejaVuSans-69"/>
      <use xlink:href="#DejaVuSans-74" x="27.783203"/>
      <use xlink:href="#DejaVuSans-65" x="66.992188"/>
      <use xlink:href="#DejaVuSans-72" x="128.515625"/>
      <use xlink:href="#DejaVuSans-61" x="169.628906"/>
      <use xlink:href="#DejaVuSans-74" x="230.908203"/>
      <use xlink:href="#DejaVuSans-69" x="270.117188"/>
      <use xlink:href="#DejaVuSans-6f" x="297.900391"/>
      <use xlink:href="#DejaVuSans-6e" x="359.082031"/>
     </g>
    </g>
   </g>
   <g id="matplotlib.axis_2">
    <g id="ytick_1">
     <g id="line2d_11">
      <defs>
       <path id="m4a28120cb6" d="M 0 0 
L -3.5 0 
" style="stroke: #000000; stroke-width: 0.8"/>
      </defs>
      <g>
       <use xlink:href="#m4a28120cb6" x="180" y="595.43394" style="stroke: #000000; stroke-width: 0.8"/>
      </g>
     </g>
     <g id="text_12">
      <!-- 0.2 -->
      <g transform="translate(148.717187 599.233159) scale(0.1 -0.1)">
       <defs>
        <path id="DejaVuSans-2212" d="M 678 2272 
L 4684 2272 
L 4684 1741 
L 678 1741 
L 678 2272 
z
" transform="scale(0.015625)"/>
        <path id="DejaVuSans-2e" d="M 684 794 
L 1344 794 
L 1344 0 
L 684 0 
L 684 794 
z
" transform="scale(0.015625)"/>
       </defs>
       <use xlink:href="#DejaVuSans-2212"/>
       <use xlink:href="#DejaVuSans-30" x="83.789062"/>
       <use xlink:href="#DejaVuSans-2e" x="147.412109"/>
       <use xlink:href="#DejaVuSans-32" x="179.199219"/>
      </g>
     </g>
    </g>
    <g id="ytick_2">
     <g id="line2d_12">
      <g>
       <use xlink:href="#m4a28120cb6" x="180" y="510.218531" style="stroke: #000000; stroke-width: 0.8"/>
      </g>
     </g>
     <g id="text_13">
      <!-- 0.0 -->
      <g transform="translate(157.096875 514.01775) scale(0.1 -0.1)">
       <use xlink:href="#DejaVuSans-30"/>
       <use xlink:href="#DejaVuSans-2e" x="63.623047"/>
       <use xlink:href="#DejaVuSans-30" x="95.410156"/>
      </g>
     </g>
    </g>
    <g id="ytick_3">
     <g id="line2d_13">
      <g>
       <use xlink:href="#m4a28120cb6" x="180" y="425.003123" style="stroke: #000000; stroke-width: 0.8"/>
      </g>
     </g>
     <g id="text_14">
      <!-- 0.2 -->
      <g transform="translate(157.096875 428.802342) scale(0.1 -0.1)">
       <use xlink:href="#DejaVuSans-30"/>
       <use xlink:href="#DejaVuSans-2e" x="63.623047"/>
       <use xlink:href="#DejaVuSans-32" x="95.410156"/>
      </g>
     </g>
    </g>
    <g id="ytick_4">
     <g id="line2d_14">
      <g>
       <use xlink:href="#m4a28120cb6" x="180" y="339.787715" style="stroke: #000000; stroke-width: 0.8"/>
      </g>
     </g>
     <g id="text_15">
      <!-- 0.4 -->
      <g transform="translate(157.096875 343.586934) scale(0.1 -0.1)">
       <use xlink:href="#DejaVuSans-30"/>
       <use xlink:href="#DejaVuSans-2e" x="63.623047"/>
       <use xlink:href="#DejaVuSans-34" x="95.410156"/>
      </g>
     </g>
    </g>
    <g id="ytick_5">
     <g id="line2d_15">
      <g>
       <use xlink:href="#m4a28120cb6" x="180" y="254.572306" style="stroke: #000000; stroke-width: 0.8"/>
      </g>
     </g>
     <g id="text_16">
      <!-- 0.6 -->
      <g transform="translate(157.096875 258.371525) scale(0.1 -0.1)">
       <use xlink:href="#DejaVuSans-30"/>
       <use xlink:href="#DejaVuSans-2e" x="63.623047"/>
       <use xlink:href="#DejaVuSans-36" x="95.410156"/>
      </g>
     </g>
    </g>
    <g id="ytick_6">
     <g id="line2d_16">
      <g>
       <use xlink:href="#m4a28120cb6" x="180" y="169.356898" style="stroke: #000000; stroke-width: 0.8"/>
      </g>
     </g>
     <g id="text_17">
      <!-- 0.8 -->
      <g transform="translate(157.096875 173.156117) scale(0.1 -0.1)">
       <use xlink:href="#DejaVuSans-30"/>
       <use xlink:href="#DejaVuSans-2e" x="63.623047"/>
       <use xlink:href="#DejaVuSans-38" x="95.410156"/>
      </g>
     </g>
    </g>
    <g id="text_18">
     <!-- final cosine similarity -->
     <g transform="translate(142.6375 416.667187) rotate(-90) scale(0.1 -0.1)">
      <defs>
       <path id="DejaVuSans-66" d="M 2375 4863 
L 2375 4384 
L 1825 4384 
Q 1516 4384 1395 4259 
Q 1275 4134 1275 3809 
L 1275 3500 
L 2222 3500 
L 2222 3053 
L 1275 3053 
L 1275 0 
L 697 0 
L 697 3053 
L 147 3053 
L 147 3500 
L 697 3500 
L 697 3744 
Q 697 4328 969 4595 
Q 1241 4863 1831 4863 
L 2375 4863 
z
" transform="scale(0.015625)"/>
       <path id="DejaVuSans-6c" d="M 603 4863 
L 1178 4863 
L 1178 0 
L 603 0 
L 603 4863 
z
" transform="scale(0.015625)"/>
       <path id="DejaVuSans-20" transform="scale(0.015625)"/>
       <path id="DejaVuSans-63" d="M 3122 3366 
L 3122 2828 
Q 2878 2963 2633 3030 
Q 2388 3097 2138 3097 
Q 1578 3097 1268 2742 
Q 959 2388 959 1747 
Q 959 1106 1268 751 
Q 1578 397 2138 397 
Q 2388 397 2633 464 
Q 2878 531 3122 666 
L 3122 134 
Q 2881 22 2623 -34 
Q 2366 -91 2075 -91 
Q 1284 -91 818 406 
Q 353 903 353 1747 
Q 353 2603 823 3093 
Q 1294 3584 2113 3584 
Q 2378 3584 2631 3529 
Q 2884 3475 3122 3366 
z
" transform="scale(0.015625)"/>
       <path id="DejaVuSans-73" d="M 2834 3397 
L 2834 2853 
Q 2591 2978 2328 3040 
Q 2066 3103 1784 3103 
Q 1356 3103 1142 2972 
Q 928 2841 928 2578 
Q 928 2378 1081 2264 
Q 1234 2150 1697 2047 
L 1894 2003 
Q 2506 1872 2764 1633 
Q 3022 1394 3022 966 
Q 3022 478 2636 193 
Q 2250 -91 1575 -91 
Q 1294 -91 989 -36 
Q 684 19 347 128 
L 347 722 
Q 666 556 975 473 
Q 1284 391 1588 391 
Q 1994 391 2212 530 
Q 2431 669 2431 922 
Q 2431 1156 2273 1281 
Q 2116 1406 1581 1522 
L 1381 1569 
Q 847 1681 609 1914 
Q 372 2147 372 2553 
Q 372 3047 722 3315 
Q 1072 3584 1716 3584 
Q 2034 3584 2315 3537 
Q 2597 3491 2834 3397 
z
" transform="scale(0.015625)"/>
       <path id="DejaVuSans-6d" d="M 3328 2828 
Q 3544 3216 3844 3400 
Q 4144 3584 4550 3584 
Q 5097 3584 5394 3201 
Q 5691 2819 5691 2113 
L 5691 0 
L 5113 0 
L 5113 2094 
Q 5113 2597 4934 2840 
Q 4756 3084 4391 3084 
Q 3944 3084 3684 2787 
Q 3425 2491 3425 1978 
L 3425 0 
L 2847 0 
L 2847 2094 
Q 2847 2600 2669 2842 
Q 2491 3084 2119 3084 
Q 1678 3084 1418 2786 
Q 1159 2488 1159 1978 
L 1159 0 
L 581 0 
L 581 3500 
L 1159 3500 
L 1159 2956 
Q 1356 3278 1631 3431 
Q 1906 3584 2284 3584 
Q 2666 3584 2933 3390 
Q 3200 3197 3328 2828 
z
" transform="scale(0.015625)"/>
       <path id="DejaVuSans-79" d="M 2059 -325 
Q 1816 -950 1584 -1140 
Q 1353 -1331 966 -1331 
L 506 -1331 
L 506 -850 
L 844 -850 
Q 1081 -850 1212 -737 
Q 1344 -625 1503 -206 
L 1606 56 
L 191 3500 
L 800 3500 
L 1894 763 
L 2988 3500 
L 3597 3500 
L 2059 -325 
z
" transform="scale(0.015625)"/>
      </defs>
      <use xlink:href="#DejaVuSans-66"/>
      <use xlink:href="#DejaVuSans-69" x="35.205078"/>
      <use xlink:href="#DejaVuSans-6e" x="62.988281"/>
      <use xlink:href="#DejaVuSans-61" x="126.367188"/>
      <use xlink:href="#DejaVuSans-6c" x="187.646484"/>
      <use xlink:href="#DejaVuSans-20" x="215.429688"/>
      <use xlink:href="#DejaVuSans-63" x="247.216797"/>
      <use xlink:href="#DejaVuSans-6f" x="302.197266"/>
      <use xlink:href="#DejaVuSans-73" x="363.378906"/>
      <use xlink:href="#DejaVuSans-69" x="415.478516"/>
      <use xlink:href="#DejaVuSans-6e" x="443.261719"/>
      <use xlink:href="#DejaVuSans-65" x="506.640625"/>
      <use xlink:href="#DejaVuSans-20" x="568.164062"/>
      <use xlink:href="#DejaVuSans-73" x="599.951172"/>
      <use xlink:href="#DejaVuSans-69" x="652.050781"/>
      <use xlink:href="#DejaVuSans-6d" x="679.833984"/>
      <use xlink:href="#DejaVuSans-69" x="777.246094"/>
      <use xlink:href="#DejaVuSans-6c" x="805.029297"/>
      <use xlink:href="#DejaVuSans-61" x="832.8125"/>
      <use xlink:href="#DejaVuSans-72" x="894.091797"/>
      <use xlink:href="#DejaVuSans-69" x="935.205078"/>
      <use xlink:href="#DejaVuSans-74" x="962.988281"/>
      <use xlink:href="#DejaVuSans-79" x="1002.197266"/>
     </g>
    </g>
   </g>
   <g id="line2d_17">
    <path d="M 235.8 579.427204 
L 235.8 253.946738 
" clip-path="url(#p277876d62b)" style="fill: none; stroke: #3f3f3f; stroke-width: 1.875; stroke-linecap: square"/>
   </g>
   <g id="line2d_18">
    <path d="M 235.8 464.782264 
L 235.8 380.437363 
" clip-path="url(#p277876d62b)" style="fill: none; stroke: #3f3f3f; stroke-width: 5.625; stroke-linecap: square"/>
   </g>
   <g id="line2d_19">
    <path d="M 235.8 427.074722 
" clip-path="url(#p277876d62b)" style="fill: none; stroke: #3f3f3f; stroke-width: 1.5; stroke-linecap: square"/>
    <defs>
     <path id="ma0035b0aab" d="M 2.34375 0 
L -2.34375 -0 
" style="stroke: #ffffff; stroke-width: 1.125"/>
    </defs>
    <g clip-path="url(#p277876d62b)">
     <use xlink:href="#ma0035b0aab" x="235.8" y="427.074722" style="fill: #ffffff; stroke: #ffffff; stroke-width: 1.125"/>
    </g>
   </g>
   <g id="line2d_20">
    <path d="M 347.4 566.054489 
L 347.4 229.701928 
" clip-path="url(#p277876d62b)" style="fill: none; stroke: #3f3f3f; stroke-width: 1.875; stroke-linecap: square"/>
   </g>
   <g id="line2d_21">
    <path d="M 347.4 455.756704 
L 347.4 365.298055 
" clip-path="url(#p277876d62b)" style="fill: none; stroke: #3f3f3f; stroke-width: 5.625; stroke-linecap: square"/>
   </g>
   <g id="line2d_22">
    <path d="M 347.4 414.120644 
" clip-path="url(#p277876d62b)" style="fill: none; stroke: #3f3f3f; stroke-width: 1.5; stroke-linecap: square"/>
    <g clip-path="url(#p277876d62b)">
     <use xlink:href="#ma0035b0aab" x="347.4" y="414.120644" style="fill: #ffffff; stroke: #ffffff; stroke-width: 1.125"/>
    </g>
   </g>
   <g id="line2d_23">
    <path d="M 459 568.050558 
L 459 221.650047 
" clip-path="url(#p277876d62b)" style="fill: none; stroke: #3f3f3f; stroke-width: 1.875; stroke-linecap: square"/>
   </g>
   <g id="line2d_24">
    <path d="M 459 451.665177 
L 459 359.611274 
" clip-path="url(#p277876d62b)" style="fill: none; stroke: #3f3f3f; stroke-width: 5.625; stroke-linecap: square"/>
   </g>
   <g id="line2d_25">
    <path d="M 459 408.694428 
" clip-path="url(#p277876d62b)" style="fill: none; stroke: #3f3f3f; stroke-width: 1.5; stroke-linecap: square"/>
    <g clip-path="url(#p277876d62b)">
     <use xlink:href="#ma0035b0aab" x="459" y="408.694428" style="fill: #ffffff; stroke: #ffffff; stroke-width: 1.125"/>
    </g>
   </g>
   <g id="line2d_26">
    <path d="M 570.6 573.224545 
L 570.6 213.989012 
" clip-path="url(#p277876d62b)" style="fill: none; stroke: #3f3f3f; stroke-width: 1.875; stroke-linecap: square"/>
   </g>
   <g id="line2d_27">
    <path d="M 570.6 447.616417 
L 570.6 353.941605 
" clip-path="url(#p277876d62b)" style="fill: none; stroke: #3f3f3f; stroke-width: 5.625; stroke-linecap: square"/>
   </g>
   <g id="line2d_28">
    <path d="M 570.6 403.42804 
" clip-path="url(#p277876d62b)" style="fill: none; stroke: #3f3f3f; stroke-width: 1.5; stroke-linecap: square"/>
    <g clip-path="url(#p277876d62b)">
     <use xlink:href="#ma0035b0aab" x="570.6" y="403.42804" style="fill: #ffffff; stroke: #ffffff; stroke-width: 1.125"/>
    </g>
   </g>
   <g id="line2d_29">
    <path d="M 682.2 576.522149 
L 682.2 214.893345 
" clip-path="url(#p277876d62b)" style="fill: none; stroke: #3f3f3f; stroke-width: 1.875; stroke-linecap: square"/>
   </g>
   <g id="line2d_30">
    <path d="M 682.2 447.222171 
L 682.2 354.265469 
" clip-path="url(#p277876d62b)" style="fill: none; stroke: #3f3f3f; stroke-width: 5.625; stroke-linecap: square"/>
   </g>
   <g id="line2d_31">
    <path d="M 682.2 402.88959 
" clip-path="url(#p277876d62b)" style="fill: none; stroke: #3f3f3f; stroke-width: 1.5; stroke-linecap: square"/>
    <g clip-path="url(#p277876d62b)">
     <use xlink:href="#ma0035b0aab" x="682.2" y="402.88959" style="fill: #ffffff; stroke: #ffffff; stroke-width: 1.125"/>
    </g>
   </g>
   <g id="line2d_32">
    <path d="M 793.8 576.156603 
L 793.8 209.655334 
" clip-path="url(#p277876d62b)" style="fill: none; stroke: #3f3f3f; stroke-width: 1.875; stroke-linecap: square"/>
   </g>
   <g id="line2d_33">
    <path d="M 793.8 446.208786 
L 793.8 351.392765 
" clip-path="url(#p277876d62b)" style="fill: none; stroke: #3f3f3f; stroke-width: 5.625; stroke-linecap: square"/>
   </g>
   <g id="line2d_34">
    <path d="M 793.8 400.974757 
" clip-path="url(#p277876d62b)" style="fill: none; stroke: #3f3f3f; stroke-width: 1.5; stroke-linecap: square"/>
    <g clip-path="url(#p277876d62b)">
     <use xlink:href="#ma0035b0aab" x="793.8" y="400.974757" style="fill: #ffffff; stroke: #ffffff; stroke-width: 1.125"/>
    </g>
   </g>
   <g id="line2d_35">
    <path d="M 905.4 570.44223 
L 905.4 211.414628 
" clip-path="url(#p277876d62b)" style="fill: none; stroke: #3f3f3f; stroke-width: 1.875; stroke-linecap: square"/>
   </g>
   <g id="line2d_36">
    <path d="M 905.4 445.249698 
L 905.4 351.705824 
" clip-path="url(#p277876d62b)" style="fill: none; stroke: #3f3f3f; stroke-width: 5.625; stroke-linecap: square"/>
   </g>
   <g id="line2d_37">
    <path d="M 905.4 400.139566 
" clip-path="url(#p277876d62b)" style="fill: none; stroke: #3f3f3f; stroke-width: 1.5; stroke-linecap: square"/>
    <g clip-path="url(#p277876d62b)">
     <use xlink:href="#ma0035b0aab" x="905.4" y="400.139566" style="fill: #ffffff; stroke: #ffffff; stroke-width: 1.125"/>
    </g>
   </g>
   <g id="line2d_38">
    <path d="M 1017 572.316848 
L 1017 204.496736 
" clip-path="url(#p277876d62b)" style="fill: none; stroke: #3f3f3f; stroke-width: 1.875; stroke-linecap: square"/>
   </g>
   <g id="line2d_39">
    <path d="M 1017 443.43485 
L 1017 346.969213 
" clip-path="url(#p277876d62b)" style="fill: none; stroke: #3f3f3f; stroke-width: 5.625; stroke-linecap: square"/>
   </g>
   <g id="line2d_40">
    <path d="M 1017 395.917319 
" clip-path="url(#p277876d62b)" style="fill: none; stroke: #3f3f3f; stroke-width: 1.5; stroke-linecap: square"/>
    <g clip-path="url(#p277876d62b)">
     <use xlink:href="#ma0035b0aab" x="1017" y="395.917319" style="fill: #ffffff; stroke: #ffffff; stroke-width: 1.125"/>
    </g>
   </g>
   <g id="line2d_41">
    <path d="M 1128.6 572.316848 
L 1128.6 206.735282 
" clip-path="url(#p277876d62b)" style="fill: none; stroke: #3f3f3f; stroke-width: 1.875; stroke-linecap: square"/>
   </g>
   <g id="line2d_42">
    <path d="M 1128.6 443.80228 
L 1128.6 348.763592 
" clip-path="url(#p277876d62b)" style="fill: none; stroke: #3f3f3f; stroke-width: 5.625; stroke-linecap: square"/>
   </g>
   <g id="line2d_43">
    <path d="M 1128.6 397.350463 
" clip-path="url(#p277876d62b)" style="fill: none; stroke: #3f3f3f; stroke-width: 1.5; stroke-linecap: square"/>
    <g clip-path="url(#p277876d62b)">
     <use xlink:href="#ma0035b0aab" x="1128.6" y="397.350463" style="fill: #ffffff; stroke: #ffffff; stroke-width: 1.125"/>
    </g>
   </g>
   <g id="line2d_44">
    <path d="M 1240.2 572.316848 
L 1240.2 209.986271 
" clip-path="url(#p277876d62b)" style="fill: none; stroke: #3f3f3f; stroke-width: 1.875; stroke-linecap: square"/>
   </g>
   <g id="line2d_45">
    <path d="M 1240.2 442.986568 
L 1240.2 349.503335 
" clip-path="url(#p277876d62b)" style="fill: none; stroke: #3f3f3f; stroke-width: 5.625; stroke-linecap: square"/>
   </g>
   <g id="line2d_46">
    <path d="M 1240.2 397.439966 
" clip-path="url(#p277876d62b)" style="fill: none; stroke: #3f3f3f; stroke-width: 1.5; stroke-linecap: square"/>
    <g clip-path="url(#p277876d62b)">
     <use xlink:href="#ma0035b0aab" x="1240.2" y="397.439966" style="fill: #ffffff; stroke: #ffffff; stroke-width: 1.125"/>
    </g>
   </g>
   <g id="patch_3">
    <path d="M 180 640.8 
L 180 86.4 
" style="fill: none; stroke: #000000; stroke-width: 0.8; stroke-linejoin: miter; stroke-linecap: square"/>
   </g>
   <g id="patch_4">
    <path d="M 1296 640.8 
L 1296 86.4 
" style="fill: none; stroke: #000000; stroke-width: 0.8; stroke-linejoin: miter; stroke-linecap: square"/>
   </g>
   <g id="patch_5">
    <path d="M 180 640.8 
L 1296 640.8 
" style="fill: none; stroke: #000000; stroke-width: 0.8; stroke-linejoin: miter; stroke-linecap: square"/>
   </g>
   <g id="patch_6">
    <path d="M 180 86.4 
L 1296 86.4 
" style="fill: none; stroke: #000000; stroke-width: 0.8; stroke-linejoin: miter; stroke-linecap: square"/>
   </g>
   <g id="text_19">
    <!-- final cosine similarity of max_fs_glit (betweenFinalsVariety), by iteration -->
    <g transform="translate(521.954062 80.4) scale(0.12 -0.12)">
     <defs>
      <path id="DejaVuSans-78" d="M 3513 3500 
L 2247 1797 
L 3578 0 
L 2900 0 
L 1881 1375 
L 863 0 
L 184 0 
L 1544 1831 
L 300 3500 
L 978 3500 
L 1906 2253 
L 2834 3500 
L 3513 3500 
z
" transform="scale(0.015625)"/>
      <path id="DejaVuSans-5f" d="M 3263 -1063 
L 3263 -1509 
L -63 -1509 
L -63 -1063 
L 3263 -1063 
z
" transform="scale(0.015625)"/>
      <path id="DejaVuSans-67" d="M 2906 1791 
Q 2906 2416 2648 2759 
Q 2391 3103 1925 3103 
Q 1463 3103 1205 2759 
Q 947 2416 947 1791 
Q 947 1169 1205 825 
Q 1463 481 1925 481 
Q 2391 481 2648 825 
Q 2906 1169 2906 1791 
z
M 3481 434 
Q 3481 -459 3084 -895 
Q 2688 -1331 1869 -1331 
Q 1566 -1331 1297 -1286 
Q 1028 -1241 775 -1147 
L 775 -588 
Q 1028 -725 1275 -790 
Q 1522 -856 1778 -856 
Q 2344 -856 2625 -561 
Q 2906 -266 2906 331 
L 2906 616 
Q 2728 306 2450 153 
Q 2172 0 1784 0 
Q 1141 0 747 490 
Q 353 981 353 1791 
Q 353 2603 747 3093 
Q 1141 3584 1784 3584 
Q 2172 3584 2450 3431 
Q 2728 3278 2906 2969 
L 2906 3500 
L 3481 3500 
L 3481 434 
z
" transform="scale(0.015625)"/>
      <path id="DejaVuSans-28" d="M 1984 4856 
Q 1566 4138 1362 3434 
Q 1159 2731 1159 2009 
Q 1159 1288 1364 580 
Q 1569 -128 1984 -844 
L 1484 -844 
Q 1016 -109 783 600 
Q 550 1309 550 2009 
Q 550 2706 781 3412 
Q 1013 4119 1484 4856 
L 1984 4856 
z
" transform="scale(0.015625)"/>
      <path id="DejaVuSans-62" d="M 3116 1747 
Q 3116 2381 2855 2742 
Q 2594 3103 2138 3103 
Q 1681 3103 1420 2742 
Q 1159 2381 1159 1747 
Q 1159 1113 1420 752 
Q 1681 391 2138 391 
Q 2594 391 2855 752 
Q 3116 1113 3116 1747 
z
M 1159 2969 
Q 1341 3281 1617 3432 
Q 1894 3584 2278 3584 
Q 2916 3584 3314 3078 
Q 3713 2572 3713 1747 
Q 3713 922 3314 415 
Q 2916 -91 2278 -91 
Q 1894 -91 1617 61 
Q 1341 213 1159 525 
L 1159 0 
L 581 0 
L 581 4863 
L 1159 4863 
L 1159 2969 
z
" transform="scale(0.015625)"/>
      <path id="DejaVuSans-77" d="M 269 3500 
L 844 3500 
L 1563 769 
L 2278 3500 
L 2956 3500 
L 3675 769 
L 4391 3500 
L 4966 3500 
L 4050 0 
L 3372 0 
L 2619 2869 
L 1863 0 
L 1184 0 
L 269 3500 
z
" transform="scale(0.015625)"/>
      <path id="DejaVuSans-46" d="M 628 4666 
L 3309 4666 
L 3309 4134 
L 1259 4134 
L 1259 2759 
L 3109 2759 
L 3109 2228 
L 1259 2228 
L 1259 0 
L 628 0 
L 628 4666 
z
" transform="scale(0.015625)"/>
      <path id="DejaVuSans-56" d="M 1831 0 
L 50 4666 
L 709 4666 
L 2188 738 
L 3669 4666 
L 4325 4666 
L 2547 0 
L 1831 0 
z
" transform="scale(0.015625)"/>
      <path id="DejaVuSans-29" d="M 513 4856 
L 1013 4856 
Q 1481 4119 1714 3412 
Q 1947 2706 1947 2009 
Q 1947 1309 1714 600 
Q 1481 -109 1013 -844 
L 513 -844 
Q 928 -128 1133 580 
Q 1338 1288 1338 2009 
Q 1338 2731 1133 3434 
Q 928 4138 513 4856 
z
" transform="scale(0.015625)"/>
      <path id="DejaVuSans-2c" d="M 750 794 
L 1409 794 
L 1409 256 
L 897 -744 
L 494 -744 
L 750 256 
L 750 794 
z
" transform="scale(0.015625)"/>
     </defs>
     <use xlink:href="#DejaVuSans-66"/>
     <use xlink:href="#DejaVuSans-69" x="35.205078"/>
     <use xlink:href="#DejaVuSans-6e" x="62.988281"/>
     <use xlink:href="#DejaVuSans-61" x="126.367188"/>
     <use xlink:href="#DejaVuSans-6c" x="187.646484"/>
     <use xlink:href="#DejaVuSans-20" x="215.429688"/>
     <use xlink:href="#DejaVuSans-63" x="247.216797"/>
     <use xlink:href="#DejaVuSans-6f" x="302.197266"/>
     <use xlink:href="#DejaVuSans-73" x="363.378906"/>
     <use xlink:href="#DejaVuSans-69" x="415.478516"/>
     <use xlink:href="#DejaVuSans-6e" x="443.261719"/>
     <use xlink:href="#DejaVuSans-65" x="506.640625"/>
     <use xlink:href="#DejaVuSans-20" x="568.164062"/>
     <use xlink:href="#DejaVuSans-73" x="599.951172"/>
     <use xlink:href="#DejaVuSans-69" x="652.050781"/>
     <use xlink:href="#DejaVuSans-6d" x="679.833984"/>
     <use xlink:href="#DejaVuSans-69" x="777.246094"/>
     <use xlink:href="#DejaVuSans-6c" x="805.029297"/>
     <use xlink:href="#DejaVuSans-61" x="832.8125"/>
     <use xlink:href="#DejaVuSans-72" x="894.091797"/>
     <use xlink:href="#DejaVuSans-69" x="935.205078"/>
     <use xlink:href="#DejaVuSans-74" x="962.988281"/>
     <use xlink:href="#DejaVuSans-79" x="1002.197266"/>
     <use xlink:href="#DejaVuSans-20" x="1061.376953"/>
     <use xlink:href="#DejaVuSans-6f" x="1093.164062"/>
     <use xlink:href="#DejaVuSans-66" x="1154.345703"/>
     <use xlink:href="#DejaVuSans-20" x="1189.550781"/>
     <use xlink:href="#DejaVuSans-6d" x="1221.337891"/>
     <use xlink:href="#DejaVuSans-61" x="1318.75"/>
     <use xlink:href="#DejaVuSans-78" x="1380.029297"/>
     <use xlink:href="#DejaVuSans-5f" x="1439.208984"/>
     <use xlink:href="#DejaVuSans-66" x="1489.208984"/>
     <use xlink:href="#DejaVuSans-73" x="1524.414062"/>
     <use xlink:href="#DejaVuSans-5f" x="1576.513672"/>
     <use xlink:href="#DejaVuSans-67" x="1626.513672"/>
     <use xlink:href="#DejaVuSans-6c" x="1689.990234"/>
     <use xlink:href="#DejaVuSans-69" x="1717.773438"/>
     <use xlink:href="#DejaVuSans-74" x="1745.556641"/>
     <use xlink:href="#DejaVuSans-20" x="1784.765625"/>
     <use xlink:href="#DejaVuSans-28" x="1816.552734"/>
     <use xlink:href="#DejaVuSans-62" x="1855.566406"/>
     <use xlink:href="#DejaVuSans-65" x="1919.042969"/>
     <use xlink:href="#DejaVuSans-74" x="1980.566406"/>
     <use xlink:href="#DejaVuSans-77" x="2019.775391"/>
     <use xlink:href="#DejaVuSans-65" x="2101.5625"/>
     <use xlink:href="#DejaVuSans-65" x="2163.085938"/>
     <use xlink:href="#DejaVuSans-6e" x="2224.609375"/>
     <use xlink:href="#DejaVuSans-46" x="2287.988281"/>
     <use xlink:href="#DejaVuSans-69" x="2338.257812"/>
     <use xlink:href="#DejaVuSans-6e" x="2366.041016"/>
     <use xlink:href="#DejaVuSans-61" x="2429.419922"/>
     <use xlink:href="#DejaVuSans-6c" x="2490.699219"/>
     <use xlink:href="#DejaVuSans-73" x="2518.482422"/>
     <use xlink:href="#DejaVuSans-56" x="2570.582031"/>
     <use xlink:href="#DejaVuSans-61" x="2631.240234"/>
     <use xlink:href="#DejaVuSans-72" x="2692.519531"/>
     <use xlink:href="#DejaVuSans-69" x="2733.632812"/>
     <use xlink:href="#DejaVuSans-65" x="2761.416016"/>
     <use xlink:href="#DejaVuSans-74" x="2822.939453"/>
     <use xlink:href="#DejaVuSans-79" x="2862.148438"/>
     <use xlink:href="#DejaVuSans-29" x="2921.328125"/>
     <use xlink:href="#DejaVuSans-2c" x="2960.341797"/>
     <use xlink:href="#DejaVuSans-20" x="2992.128906"/>
     <use xlink:href="#DejaVuSans-62" x="3023.916016"/>
     <use xlink:href="#DejaVuSans-79" x="3087.392578"/>
     <use xlink:href="#DejaVuSans-20" x="3146.572266"/>
     <use xlink:href="#DejaVuSans-69" x="3178.359375"/>
     <use xlink:href="#DejaVuSans-74" x="3206.142578"/>
     <use xlink:href="#DejaVuSans-65" x="3245.351562"/>
     <use xlink:href="#DejaVuSans-72" x="3306.875"/>
     <use xlink:href="#DejaVuSans-61" x="3347.988281"/>
     <use xlink:href="#DejaVuSans-74" x="3409.267578"/>
     <use xlink:href="#DejaVuSans-69" x="3448.476562"/>
     <use xlink:href="#DejaVuSans-6f" x="3476.259766"/>
     <use xlink:href="#DejaVuSans-6e" x="3537.441406"/>
    </g>
   </g>
  </g>
 </g>
 <defs>
  <clipPath id="p277876d62b">
   <rect x="180" y="86.4" width="1116" height="554.4"/>
  </clipPath>
 </defs>
</svg>
