<?xml version="1.0" encoding="utf-8" standalone="no"?>
<!DOCTYPE svg PUBLIC "-//W3C//DTD SVG 1.1//EN"
  "http://www.w3.org/Graphics/SVG/1.1/DTD/svg11.dtd">
<svg xmlns:xlink="http://www.w3.org/1999/xlink" width="1440pt" height="720pt" viewBox="0 0 1440 720" xmlns="http://www.w3.org/2000/svg" version="1.1">
 <metadata>
  <rdf:RDF xmlns:dc="http://purl.org/dc/elements/1.1/" xmlns:cc="http://creativecommons.org/ns#" xmlns:rdf="http://www.w3.org/1999/02/22-rdf-syntax-ns#">
   <cc:Work>
    <dc:type rdf:resource="http://purl.org/dc/dcmitype/StillImage"/>
    <dc:date>2024-07-26T12:13:16.993132</dc:date>
    <dc:format>image/svg+xml</dc:format>
    <dc:creator>
     <cc:Agent>
      <dc:title>Matplotlib v3.8.0, https://matplotlib.org/</dc:title>
     </cc:Agent>
    </dc:creator>
   </cc:Work>
  </rdf:RDF>
 </metadata>
 <defs>
  <style type="text/css">*{stroke-linejoin: round; stroke-linecap: butt}</style>
 </defs>
 <g id="figure_1">
  <g id="patch_1">
   <path d="M 0 720 
L 1440 720 
L 1440 0 
L 0 0 
z
" style="fill: #ffffff"/>
  </g>
  <g id="axes_1">
   <g id="patch_2">
    <path d="M 180 640.8 
L 1296 640.8 
L 1296 86.4 
L 180 86.4 
z
" style="fill: #ffffff"/>
   </g>
   <g id="PolyCollection_1">
    <defs>
     <path id="ma8c6a11998" d="M 236.099859 -149.817573 
L 235.500141 -149.817573 
L 235.386999 -153.899405 
L 235.241883 -157.981237 
L 235.059837 -162.063068 
L 234.836469 -166.1449 
L 234.568411 -170.226732 
L 234.253763 -174.308563 
L 233.892463 -178.390395 
L 233.486523 -182.472227 
L 233.040069 -186.554058 
L 232.559142 -190.63589 
L 232.051253 -194.717722 
L 231.52474 -198.799553 
L 230.987973 -202.881385 
L 230.448538 -206.963217 
L 229.912509 -211.045048 
L 229.38393 -215.12688 
L 228.864602 -219.208712 
L 228.354222 -223.290543 
L 227.850863 -227.372375 
L 227.351734 -231.454207 
L 226.854075 -235.536039 
L 226.356068 -239.61787 
L 225.857578 -243.699702 
L 225.360605 -247.781534 
L 224.869354 -251.863365 
L 224.389882 -255.945197 
L 223.92937 -260.027029 
L 223.495088 -264.10886 
L 223.093204 -268.190692 
L 222.727572 -272.272524 
L 222.398655 -276.354355 
L 222.102734 -280.436187 
L 221.831495 -284.518019 
L 221.572067 -288.59985 
L 221.307541 -292.681682 
L 221.017946 -296.763514 
L 220.681615 -300.845345 
L 220.276841 -304.927177 
L 219.783679 -309.009009 
L 219.185745 -313.09084 
L 218.471831 -317.172672 
L 217.637166 -321.254504 
L 216.684209 -325.336335 
L 215.622846 -329.418167 
L 214.469984 -333.499999 
L 213.248553 -337.581831 
L 211.986018 -341.663662 
L 210.712578 -345.745494 
L 209.45922 -349.827326 
L 208.255875 -353.909157 
L 207.129852 -357.990989 
L 206.104726 -362.072821 
L 205.199741 -366.154652 
L 204.429745 -370.236484 
L 203.805567 -374.318316 
L 203.334679 -378.400147 
L 203.021952 -382.481979 
L 202.870315 -386.563811 
L 202.881162 -390.645642 
L 203.054426 -394.727474 
L 203.388338 -398.809306 
L 203.878962 -402.891137 
L 204.519667 -406.972969 
L 205.300738 -411.054801 
L 206.209273 -415.136632 
L 207.229483 -419.218464 
L 208.343405 -423.300296 
L 209.531935 -427.382128 
L 210.776043 -431.463959 
L 212.057946 -435.545791 
L 213.362061 -439.627623 
L 214.675581 -443.709454 
L 215.988612 -447.791286 
L 217.293876 -451.873118 
L 218.586103 -455.954949 
L 219.861235 -460.036781 
L 221.115631 -464.118613 
L 222.345406 -468.200444 
L 223.546006 -472.282276 
L 224.71206 -476.364108 
L 225.837494 -480.445939 
L 226.915825 -484.527771 
L 227.940583 -488.609603 
L 228.905739 -492.691434 
L 229.806093 -496.773266 
L 230.637568 -500.855098 
L 231.397393 -504.936929 
L 232.08418 -509.018761 
L 232.697919 -513.100593 
L 233.239898 -517.182424 
L 233.712593 -521.264256 
L 234.119512 -525.346088 
L 234.465034 -529.42792 
L 234.754222 -533.509751 
L 234.992623 -537.591583 
L 235.186064 -541.673415 
L 235.34045 -545.755246 
L 235.461567 -549.837078 
L 235.554909 -553.91891 
L 236.045091 -553.91891 
L 236.045091 -553.91891 
L 236.138433 -549.837078 
L 236.25955 -545.755246 
L 236.413936 -541.673415 
L 236.607377 -537.591583 
L 236.845778 -533.509751 
L 237.134966 -529.42792 
L 237.480488 -525.346088 
L 237.887407 -521.264256 
L 238.360102 -517.182424 
L 238.902081 -513.100593 
L 239.51582 -509.018761 
L 240.202607 -504.936929 
L 240.962432 -500.855098 
L 241.793907 -496.773266 
L 242.694261 -492.691434 
L 243.659417 -488.609603 
L 244.684175 -484.527771 
L 245.762506 -480.445939 
L 246.88794 -476.364108 
L 248.053994 -472.282276 
L 249.254594 -468.200444 
L 250.484369 -464.118613 
L 251.738765 -460.036781 
L 253.013897 -455.954949 
L 254.306124 -451.873118 
L 255.611388 -447.791286 
L 256.924419 -443.709454 
L 258.237939 -439.627623 
L 259.542054 -435.545791 
L 260.823957 -431.463959 
L 262.068065 -427.382128 
L 263.256595 -423.300296 
L 264.370517 -419.218464 
L 265.390727 -415.136632 
L 266.299262 -411.054801 
L 267.080333 -406.972969 
L 267.721038 -402.891137 
L 268.211662 -398.809306 
L 268.545574 -394.727474 
L 268.718838 -390.645642 
L 268.729685 -386.563811 
L 268.578048 -382.481979 
L 268.265321 -378.400147 
L 267.794433 -374.318316 
L 267.170255 -370.236484 
L 266.400259 -366.154652 
L 265.495274 -362.072821 
L 264.470148 -357.990989 
L 263.344125 -353.909157 
L 262.14078 -349.827326 
L 260.887422 -345.745494 
L 259.613982 -341.663662 
L 258.351447 -337.581831 
L 257.130016 -333.499999 
L 255.977154 -329.418167 
L 254.915791 -325.336335 
L 253.962834 -321.254504 
L 253.128169 -317.172672 
L 252.414255 -313.09084 
L 251.816321 -309.009009 
L 251.323159 -304.927177 
L 250.918385 -300.845345 
L 250.582054 -296.763514 
L 250.292459 -292.681682 
L 250.027933 -288.59985 
L 249.768505 -284.518019 
L 249.497266 -280.436187 
L 249.201345 -276.354355 
L 248.872428 -272.272524 
L 248.506796 -268.190692 
L 248.104912 -264.10886 
L 247.67063 -260.027029 
L 247.210118 -255.945197 
L 246.730646 -251.863365 
L 246.239395 -247.781534 
L 245.742422 -243.699702 
L 245.243932 -239.61787 
L 244.745925 -235.536039 
L 244.248266 -231.454207 
L 243.749137 -227.372375 
L 243.245778 -223.290543 
L 242.735398 -219.208712 
L 242.21607 -215.12688 
L 241.687491 -211.045048 
L 241.151462 -206.963217 
L 240.612027 -202.881385 
L 240.07526 -198.799553 
L 239.548747 -194.717722 
L 239.040858 -190.63589 
L 238.559931 -186.554058 
L 238.113477 -182.472227 
L 237.707537 -178.390395 
L 237.346237 -174.308563 
L 237.031589 -170.226732 
L 236.763531 -166.1449 
L 236.540163 -162.063068 
L 236.358117 -157.981237 
L 236.213001 -153.899405 
L 236.099859 -149.817573 
z
" style="stroke: #3f3f3f; stroke-width: 1.25"/>
    </defs>
    <g clip-path="url(#p653ea96c70)">
     <use xlink:href="#ma8c6a11998" x="0" y="720" style="fill: #3274a1; stroke: #3f3f3f; stroke-width: 1.25"/>
    </g>
   </g>
   <g id="PolyCollection_2">
    <defs>
     <path id="mcf5ff3b543" d="M 347.781285 -216.355215 
L 347.018715 -216.355215 
L 346.869848 -220.157113 
L 346.679192 -223.959011 
L 346.441388 -227.76091 
L 346.152518 -231.562808 
L 345.810751 -235.364706 
L 345.416865 -239.166604 
L 344.97452 -242.968502 
L 344.490196 -246.7704 
L 343.972751 -250.572298 
L 343.432602 -254.374197 
L 342.88062 -258.176095 
L 342.326876 -261.977993 
L 341.77942 -265.779891 
L 341.243264 -269.581789 
L 340.719727 -273.383687 
L 340.206211 -277.185585 
L 339.696443 -280.987484 
L 339.181103 -284.789382 
L 338.648749 -288.59128 
L 338.086911 -292.393178 
L 337.483223 -296.195076 
L 336.826504 -299.996974 
L 336.107691 -303.798873 
L 335.320552 -307.600771 
L 334.462135 -311.402669 
L 333.532862 -315.204567 
L 332.536247 -319.006465 
L 331.478196 -322.808363 
L 330.36594 -326.610261 
L 329.206706 -330.41216 
L 328.006312 -334.214058 
L 326.767941 -338.015956 
L 325.491349 -341.817854 
L 324.172741 -345.619752 
L 322.805472 -349.42165 
L 321.381592 -353.223548 
L 319.894112 -357.025447 
L 318.339759 -360.827345 
L 316.721853 -364.629243 
L 315.052898 -368.431141 
L 313.356478 -372.233039 
L 311.668084 -376.034937 
L 310.034626 -379.836836 
L 308.512495 -383.638734 
L 307.164245 -387.440632 
L 306.054143 -391.24253 
L 305.24298 -395.044428 
L 304.782718 -398.846326 
L 304.711574 -402.648224 
L 305.05014 -406.450123 
L 305.799031 -410.252021 
L 306.938364 -414.053919 
L 308.429126 -417.855817 
L 310.216249 -421.657715 
L 312.233001 -425.459613 
L 314.406147 -429.261511 
L 316.661295 -433.06341 
L 318.927863 -436.865308 
L 321.143219 -440.667206 
L 323.255705 -444.469104 
L 325.226412 -448.271002 
L 327.029722 -452.0729 
L 328.652783 -455.874798 
L 330.094119 -459.676697 
L 331.361667 -463.478595 
L 332.470494 -467.280493 
L 333.44047 -471.082391 
L 334.294069 -474.884289 
L 335.054473 -478.686187 
L 335.744033 -482.488086 
L 336.38311 -486.289984 
L 336.989271 -490.091882 
L 337.57678 -493.89378 
L 338.156322 -497.695678 
L 338.734934 -501.497576 
L 339.316114 -505.299474 
L 339.900118 -509.101373 
L 340.484435 -512.903271 
L 341.064453 -516.705169 
L 341.634248 -520.507067 
L 342.187435 -524.308965 
L 342.717983 -528.110863 
L 343.220868 -531.912761 
L 343.692501 -535.71466 
L 344.130872 -539.516558 
L 344.53543 -543.318456 
L 344.906759 -547.120354 
L 345.246143 -550.922252 
L 345.555139 -554.72415 
L 345.835235 -558.526049 
L 346.087652 -562.327947 
L 346.313308 -566.129845 
L 346.512915 -569.931743 
L 346.687149 -573.733641 
L 346.836845 -577.535539 
L 346.963149 -581.337437 
L 347.067599 -585.139336 
L 347.15213 -588.941234 
L 347.218997 -592.743132 
L 347.581003 -592.743132 
L 347.581003 -592.743132 
L 347.64787 -588.941234 
L 347.732401 -585.139336 
L 347.836851 -581.337437 
L 347.963155 -577.535539 
L 348.112851 -573.733641 
L 348.287085 -569.931743 
L 348.486692 -566.129845 
L 348.712348 -562.327947 
L 348.964765 -558.526049 
L 349.244861 -554.72415 
L 349.553857 -550.922252 
L 349.893241 -547.120354 
L 350.26457 -543.318456 
L 350.669128 -539.516558 
L 351.107499 -535.71466 
L 351.579132 -531.912761 
L 352.082017 -528.110863 
L 352.612565 -524.308965 
L 353.165752 -520.507067 
L 353.735547 -516.705169 
L 354.315565 -512.903271 
L 354.899882 -509.101373 
L 355.483886 -505.299474 
L 356.065066 -501.497576 
L 356.643678 -497.695678 
L 357.22322 -493.89378 
L 357.810729 -490.091882 
L 358.41689 -486.289984 
L 359.055967 -482.488086 
L 359.745527 -478.686187 
L 360.505931 -474.884289 
L 361.35953 -471.082391 
L 362.329506 -467.280493 
L 363.438333 -463.478595 
L 364.705881 -459.676697 
L 366.147217 -455.874798 
L 367.770278 -452.0729 
L 369.573588 -448.271002 
L 371.544295 -444.469104 
L 373.656781 -440.667206 
L 375.872137 -436.865308 
L 378.138705 -433.06341 
L 380.393853 -429.261511 
L 382.566999 -425.459613 
L 384.583751 -421.657715 
L 386.370874 -417.855817 
L 387.861636 -414.053919 
L 389.000969 -410.252021 
L 389.74986 -406.450123 
L 390.088426 -402.648224 
L 390.017282 -398.846326 
L 389.55702 -395.044428 
L 388.745857 -391.24253 
L 387.635755 -387.440632 
L 386.287505 -383.638734 
L 384.765374 -379.836836 
L 383.131916 -376.034937 
L 381.443522 -372.233039 
L 379.747102 -368.431141 
L 378.078147 -364.629243 
L 376.460241 -360.827345 
L 374.905888 -357.025447 
L 373.418408 -353.223548 
L 371.994528 -349.42165 
L 370.627259 -345.619752 
L 369.308651 -341.817854 
L 368.032059 -338.015956 
L 366.793688 -334.214058 
L 365.593294 -330.41216 
L 364.43406 -326.610261 
L 363.321804 -322.808363 
L 362.263753 -319.006465 
L 361.267138 -315.204567 
L 360.337865 -311.402669 
L 359.479448 -307.600771 
L 358.692309 -303.798873 
L 357.973496 -299.996974 
L 357.316777 -296.195076 
L 356.713089 -292.393178 
L 356.151251 -288.59128 
L 355.618897 -284.789382 
L 355.103557 -280.987484 
L 354.593789 -277.185585 
L 354.080273 -273.383687 
L 353.556736 -269.581789 
L 353.02058 -265.779891 
L 352.473124 -261.977993 
L 351.91938 -258.176095 
L 351.367398 -254.374197 
L 350.827249 -250.572298 
L 350.309804 -246.7704 
L 349.82548 -242.968502 
L 349.383135 -239.166604 
L 348.989249 -235.364706 
L 348.647482 -231.562808 
L 348.358612 -227.76091 
L 348.120808 -223.959011 
L 347.930152 -220.157113 
L 347.781285 -216.355215 
z
" style="stroke: #3f3f3f; stroke-width: 1.25"/>
    </defs>
    <g clip-path="url(#p653ea96c70)">
     <use xlink:href="#mcf5ff3b543" x="0" y="720" style="fill: #3274a1; stroke: #3f3f3f; stroke-width: 1.25"/>
    </g>
   </g>
   <g id="PolyCollection_3">
    <defs>
     <path id="mc54b6546c6" d="M 459.449168 -257.03135 
L 458.550832 -257.03135 
L 458.389552 -260.310367 
L 458.185356 -263.589383 
L 457.932108 -266.8684 
L 457.624344 -270.147416 
L 457.257695 -273.426433 
L 456.829262 -276.70545 
L 456.337889 -279.984466 
L 455.78427 -283.263483 
L 455.170871 -286.5425 
L 454.501635 -289.821516 
L 453.781507 -293.100533 
L 453.015812 -296.379549 
L 452.209539 -299.658566 
L 451.36664 -302.937583 
L 450.489389 -306.216599 
L 449.577901 -309.495616 
L 448.629861 -312.774632 
L 447.640508 -316.053649 
L 446.602892 -319.332666 
L 445.50842 -322.611682 
L 444.347668 -325.890699 
L 443.111415 -329.169715 
L 441.791854 -332.448732 
L 440.38386 -335.727749 
L 438.886219 -339.006765 
L 437.302657 -342.285782 
L 435.642527 -345.564799 
L 433.921026 -348.843815 
L 432.158834 -352.122832 
L 430.381172 -355.401848 
L 428.61632 -358.680865 
L 426.893752 -361.959882 
L 425.242121 -365.238898 
L 423.687342 -368.517915 
L 422.25108 -371.796931 
L 420.949842 -375.075948 
L 419.794803 -378.354965 
L 418.792388 -381.633981 
L 417.945433 -384.912998 
L 417.254691 -388.192015 
L 416.72033 -391.471031 
L 416.343091 -394.750048 
L 416.124829 -398.029064 
L 416.068306 -401.308081 
L 416.17627 -404.587098 
L 416.450042 -407.866114 
L 416.88796 -411.145131 
L 417.484087 -414.424147 
L 418.227567 -417.703164 
L 419.10287 -420.982181 
L 420.090989 -424.261197 
L 421.171433 -427.540214 
L 422.324651 -430.81923 
L 423.534434 -434.098247 
L 424.789793 -437.377264 
L 426.08592 -440.65628 
L 427.423999 -443.935297 
L 428.809863 -447.214314 
L 430.25173 -450.49333 
L 431.757393 -453.772347 
L 433.331376 -457.051363 
L 434.972523 -460.33038 
L 436.67243 -463.609397 
L 438.414938 -466.888413 
L 440.176751 -470.16743 
L 441.929042 -473.446446 
L 443.63978 -476.725463 
L 445.276435 -480.00448 
L 446.808695 -483.283496 
L 448.210887 -486.562513 
L 449.463833 -489.841529 
L 450.556029 -493.120546 
L 451.484072 -496.399563 
L 452.25239 -499.678579 
L 452.872379 -502.957596 
L 453.361081 -506.236613 
L 453.739577 -509.515629 
L 454.031253 -512.794646 
L 454.26008 -516.073662 
L 454.449044 -519.352679 
L 454.618811 -522.631696 
L 454.786711 -525.910712 
L 454.966056 -529.189729 
L 455.165822 -532.468745 
L 455.390677 -535.747762 
L 455.641302 -539.026779 
L 455.914974 -542.305795 
L 456.206321 -545.584812 
L 456.508179 -548.863828 
L 456.812479 -552.142845 
L 457.111072 -555.421862 
L 457.396446 -558.700878 
L 457.66227 -561.979895 
L 457.903754 -565.258912 
L 458.117814 -568.537928 
L 458.303054 -571.816945 
L 458.459602 -575.095961 
L 458.588846 -578.374978 
L 458.693113 -581.653995 
L 459.306887 -581.653995 
L 459.306887 -581.653995 
L 459.411154 -578.374978 
L 459.540398 -575.095961 
L 459.696946 -571.816945 
L 459.882186 -568.537928 
L 460.096246 -565.258912 
L 460.33773 -561.979895 
L 460.603554 -558.700878 
L 460.888928 -555.421862 
L 461.187521 -552.142845 
L 461.491821 -548.863828 
L 461.793679 -545.584812 
L 462.085026 -542.305795 
L 462.358698 -539.026779 
L 462.609323 -535.747762 
L 462.834178 -532.468745 
L 463.033944 -529.189729 
L 463.213289 -525.910712 
L 463.381189 -522.631696 
L 463.550956 -519.352679 
L 463.73992 -516.073662 
L 463.968747 -512.794646 
L 464.260423 -509.515629 
L 464.638919 -506.236613 
L 465.127621 -502.957596 
L 465.74761 -499.678579 
L 466.515928 -496.399563 
L 467.443971 -493.120546 
L 468.536167 -489.841529 
L 469.789113 -486.562513 
L 471.191305 -483.283496 
L 472.723565 -480.00448 
L 474.36022 -476.725463 
L 476.070958 -473.446446 
L 477.823249 -470.16743 
L 479.585062 -466.888413 
L 481.32757 -463.609397 
L 483.027477 -460.33038 
L 484.668624 -457.051363 
L 486.242607 -453.772347 
L 487.74827 -450.49333 
L 489.190137 -447.214314 
L 490.576001 -443.935297 
L 491.91408 -440.65628 
L 493.210207 -437.377264 
L 494.465566 -434.098247 
L 495.675349 -430.81923 
L 496.828567 -427.540214 
L 497.909011 -424.261197 
L 498.89713 -420.982181 
L 499.772433 -417.703164 
L 500.515913 -414.424147 
L 501.11204 -411.145131 
L 501.549958 -407.866114 
L 501.82373 -404.587098 
L 501.931694 -401.308081 
L 501.875171 -398.029064 
L 501.656909 -394.750048 
L 501.27967 -391.471031 
L 500.745309 -388.192015 
L 500.054567 -384.912998 
L 499.207612 -381.633981 
L 498.205197 -378.354965 
L 497.050158 -375.075948 
L 495.74892 -371.796931 
L 494.312658 -368.517915 
L 492.757879 -365.238898 
L 491.106248 -361.959882 
L 489.38368 -358.680865 
L 487.618828 -355.401848 
L 485.841166 -352.122832 
L 484.078974 -348.843815 
L 482.357473 -345.564799 
L 480.697343 -342.285782 
L 479.113781 -339.006765 
L 477.61614 -335.727749 
L 476.208146 -332.448732 
L 474.888585 -329.169715 
L 473.652332 -325.890699 
L 472.49158 -322.611682 
L 471.397108 -319.332666 
L 470.359492 -316.053649 
L 469.370139 -312.774632 
L 468.422099 -309.495616 
L 467.510611 -306.216599 
L 466.63336 -302.937583 
L 465.790461 -299.658566 
L 464.984188 -296.379549 
L 464.218493 -293.100533 
L 463.498365 -289.821516 
L 462.829129 -286.5425 
L 462.21573 -283.263483 
L 461.662111 -279.984466 
L 461.170738 -276.70545 
L 460.742305 -273.426433 
L 460.375656 -270.147416 
L 460.067892 -266.8684 
L 459.814644 -263.589383 
L 459.610448 -260.310367 
L 459.449168 -257.03135 
z
" style="stroke: #3f3f3f; stroke-width: 1.25"/>
    </defs>
    <g clip-path="url(#p653ea96c70)">
     <use xlink:href="#mc54b6546c6" x="0" y="720" style="fill: #3274a1; stroke: #3f3f3f; stroke-width: 1.25"/>
    </g>
   </g>
   <g id="PolyCollection_4">
    <defs>
     <path id="mbaff052eba" d="M 571.055842 -283.689885 
L 570.144158 -283.689885 
L 569.99066 -286.420544 
L 569.797946 -289.151203 
L 569.5603 -291.881861 
L 569.272493 -294.61252 
L 568.930227 -297.343178 
L 568.530615 -300.073837 
L 568.072656 -302.804495 
L 567.557645 -305.535154 
L 566.989464 -308.265813 
L 566.374703 -310.996471 
L 565.722542 -313.72713 
L 565.044371 -316.457788 
L 564.353121 -319.188447 
L 563.662315 -321.919105 
L 562.984903 -324.649764 
L 562.331942 -327.380423 
L 561.711247 -330.111081 
L 561.126148 -332.84174 
L 560.574501 -335.572398 
L 560.048098 -338.303057 
L 559.532584 -341.033716 
L 559.00798 -343.764374 
L 558.4498 -346.495033 
L 557.830744 -349.225691 
L 557.122833 -351.95635 
L 556.299832 -354.687008 
L 555.33972 -357.417667 
L 554.227 -360.148326 
L 552.9546 -362.878984 
L 551.525162 -365.609643 
L 549.951582 -368.340301 
L 548.256718 -371.07096 
L 546.472264 -373.801618 
L 544.636872 -376.532277 
L 542.793667 -379.262936 
L 540.987367 -381.993594 
L 539.261232 -384.724253 
L 537.654109 -387.454911 
L 536.197809 -390.18557 
L 534.915028 -392.916229 
L 533.817982 -395.646887 
L 532.907866 -398.377546 
L 532.175156 -401.108204 
L 531.600751 -403.838863 
L 531.157818 -406.569521 
L 530.814218 -409.30018 
L 530.535275 -412.030839 
L 530.286684 -414.761497 
L 530.037319 -417.492156 
L 529.76171 -420.222814 
L 529.442022 -422.953473 
L 529.069393 -425.684131 
L 528.644558 -428.41479 
L 528.177746 -431.145449 
L 527.687898 -433.876107 
L 527.20129 -436.606766 
L 526.749712 -439.337424 
L 526.368329 -442.068083 
L 526.093398 -444.798742 
L 525.96 -447.5294 
L 525.9999 -450.260059 
L 526.239683 -452.990717 
L 526.699241 -455.721376 
L 527.390697 -458.452034 
L 528.317794 -461.182693 
L 529.475795 -463.913352 
L 530.851862 -466.64401 
L 532.425892 -469.374669 
L 534.17174 -472.105327 
L 536.058729 -474.835986 
L 538.053346 -477.566644 
L 540.120982 -480.297303 
L 542.227592 -483.027962 
L 544.341156 -485.75862 
L 546.432853 -488.489279 
L 548.477871 -491.219937 
L 550.455859 -493.950596 
L 552.351002 -496.681255 
L 554.151801 -499.411913 
L 555.850605 -502.142572 
L 557.443005 -504.87323 
L 558.927151 -507.603889 
L 560.303099 -510.334547 
L 561.57222 -513.065206 
L 562.736743 -515.795865 
L 563.799417 -518.526523 
L 564.763324 -521.257182 
L 565.631795 -523.98784 
L 566.408417 -526.718499 
L 567.097098 -529.449157 
L 567.702133 -532.179816 
L 568.228275 -534.910475 
L 568.680758 -537.641133 
L 569.065273 -540.371792 
L 569.387903 -543.10245 
L 569.654998 -545.833109 
L 569.873032 -548.563768 
L 570.048431 -551.294426 
L 570.187414 -554.025085 
L 571.012586 -554.025085 
L 571.012586 -554.025085 
L 571.151569 -551.294426 
L 571.326968 -548.563768 
L 571.545002 -545.833109 
L 571.812097 -543.10245 
L 572.134727 -540.371792 
L 572.519242 -537.641133 
L 572.971725 -534.910475 
L 573.497867 -532.179816 
L 574.102902 -529.449157 
L 574.791583 -526.718499 
L 575.568205 -523.98784 
L 576.436676 -521.257182 
L 577.400583 -518.526523 
L 578.463257 -515.795865 
L 579.62778 -513.065206 
L 580.896901 -510.334547 
L 582.272849 -507.603889 
L 583.756995 -504.87323 
L 585.349395 -502.142572 
L 587.048199 -499.411913 
L 588.848998 -496.681255 
L 590.744141 -493.950596 
L 592.722129 -491.219937 
L 594.767147 -488.489279 
L 596.858844 -485.75862 
L 598.972408 -483.027962 
L 601.079018 -480.297303 
L 603.146654 -477.566644 
L 605.141271 -474.835986 
L 607.02826 -472.105327 
L 608.774108 -469.374669 
L 610.348138 -466.64401 
L 611.724205 -463.913352 
L 612.882206 -461.182693 
L 613.809303 -458.452034 
L 614.500759 -455.721376 
L 614.960317 -452.990717 
L 615.2001 -450.260059 
L 615.24 -447.5294 
L 615.106602 -444.798742 
L 614.831671 -442.068083 
L 614.450288 -439.337424 
L 613.99871 -436.606766 
L 613.512102 -433.876107 
L 613.022254 -431.145449 
L 612.555442 -428.41479 
L 612.130607 -425.684131 
L 611.757978 -422.953473 
L 611.43829 -420.222814 
L 611.162681 -417.492156 
L 610.913316 -414.761497 
L 610.664725 -412.030839 
L 610.385782 -409.30018 
L 610.042182 -406.569521 
L 609.599249 -403.838863 
L 609.024844 -401.108204 
L 608.292134 -398.377546 
L 607.382018 -395.646887 
L 606.284972 -392.916229 
L 605.002191 -390.18557 
L 603.545891 -387.454911 
L 601.938768 -384.724253 
L 600.212633 -381.993594 
L 598.406333 -379.262936 
L 596.563128 -376.532277 
L 594.727736 -373.801618 
L 592.943282 -371.07096 
L 591.248418 -368.340301 
L 589.674838 -365.609643 
L 588.2454 -362.878984 
L 586.973 -360.148326 
L 585.86028 -357.417667 
L 584.900168 -354.687008 
L 584.077167 -351.95635 
L 583.369256 -349.225691 
L 582.7502 -346.495033 
L 582.19202 -343.764374 
L 581.667416 -341.033716 
L 581.151902 -338.303057 
L 580.625499 -335.572398 
L 580.073852 -332.84174 
L 579.488753 -330.111081 
L 578.868058 -327.380423 
L 578.215097 -324.649764 
L 577.537685 -321.919105 
L 576.846879 -319.188447 
L 576.155629 -316.457788 
L 575.477458 -313.72713 
L 574.825297 -310.996471 
L 574.210536 -308.265813 
L 573.642355 -305.535154 
L 573.127344 -302.804495 
L 572.669385 -300.073837 
L 572.269773 -297.343178 
L 571.927507 -294.61252 
L 571.6397 -291.881861 
L 571.402054 -289.151203 
L 571.20934 -286.420544 
L 571.055842 -283.689885 
z
" style="stroke: #3f3f3f; stroke-width: 1.25"/>
    </defs>
    <g clip-path="url(#p653ea96c70)">
     <use xlink:href="#mbaff052eba" x="0" y="720" style="fill: #3274a1; stroke: #3f3f3f; stroke-width: 1.25"/>
    </g>
   </g>
   <g id="PolyCollection_5">
    <defs>
     <path id="ma19d9a1004" d="M 683.165751 -273.025584 
L 681.234249 -273.025584 
L 680.946496 -276.001908 
L 680.592538 -278.978231 
L 680.163179 -281.954555 
L 679.649592 -284.930878 
L 679.043811 -287.907201 
L 678.339267 -290.883525 
L 677.531328 -293.859848 
L 676.617825 -296.836171 
L 675.599489 -299.812495 
L 674.48028 -302.788818 
L 673.267542 -305.765142 
L 671.971977 -308.741465 
L 670.607384 -311.717788 
L 669.1902 -314.694112 
L 667.738822 -317.670435 
L 666.27278 -320.646759 
L 664.811788 -323.623082 
L 663.374748 -326.599405 
L 661.978792 -329.575729 
L 660.638403 -332.552052 
L 659.364706 -335.528376 
L 658.164968 -338.504699 
L 657.042333 -341.481022 
L 655.99581 -344.457346 
L 655.020505 -347.433669 
L 654.108071 -350.409993 
L 653.247344 -353.386316 
L 652.42511 -356.362639 
L 651.626968 -359.338963 
L 650.838247 -362.315286 
L 650.044923 -365.291609 
L 649.234518 -368.267933 
L 648.396948 -371.244256 
L 647.525293 -374.22058 
L 646.61646 -377.196903 
L 645.671728 -380.173226 
L 644.697134 -383.14955 
L 643.703669 -386.125873 
L 642.707277 -389.102197 
L 641.728599 -392.07852 
L 640.792472 -395.054843 
L 639.927163 -398.031167 
L 639.163345 -401.00749 
L 638.532852 -403.983814 
L 638.067258 -406.960137 
L 637.796337 -409.93646 
L 637.746497 -412.912784 
L 637.939282 -415.889107 
L 638.390025 -418.86543 
L 639.106762 -421.841754 
L 640.089475 -424.818077 
L 641.329738 -427.794401 
L 642.810791 -430.770724 
L 644.508053 -433.747047 
L 646.390052 -436.723371 
L 648.419708 -439.699694 
L 650.555901 -442.676018 
L 652.755209 -445.652341 
L 654.973729 -448.628664 
L 657.168852 -451.604988 
L 659.300906 -454.581311 
L 661.334577 -457.557635 
L 663.240047 -460.533958 
L 664.993811 -463.510281 
L 666.579152 -466.486605 
L 667.986281 -469.462928 
L 669.212177 -472.439251 
L 670.260138 -475.415575 
L 671.13912 -478.391898 
L 671.862882 -481.368222 
L 672.449014 -484.344545 
L 672.917879 -487.320868 
L 673.29153 -490.297192 
L 673.592635 -493.273515 
L 673.843471 -496.249839 
L 674.064997 -499.226162 
L 674.276063 -502.202485 
L 674.49278 -505.178809 
L 674.728054 -508.155132 
L 674.991316 -511.131456 
L 675.288447 -514.107779 
L 675.621879 -517.084102 
L 675.990873 -520.060426 
L 676.391935 -523.036749 
L 676.819339 -526.013072 
L 677.26572 -528.989396 
L 677.722698 -531.965719 
L 678.181488 -534.942043 
L 678.633459 -537.918366 
L 679.07062 -540.894689 
L 679.485999 -543.871013 
L 679.873914 -546.847336 
L 680.230124 -549.82366 
L 680.551876 -552.799983 
L 680.837848 -555.776306 
L 681.088017 -558.75263 
L 681.303473 -561.728953 
L 681.486193 -564.705277 
L 681.638805 -567.6816 
L 682.761195 -567.6816 
L 682.761195 -567.6816 
L 682.913807 -564.705277 
L 683.096527 -561.728953 
L 683.311983 -558.75263 
L 683.562152 -555.776306 
L 683.848124 -552.799983 
L 684.169876 -549.82366 
L 684.526086 -546.847336 
L 684.914001 -543.871013 
L 685.32938 -540.894689 
L 685.766541 -537.918366 
L 686.218512 -534.942043 
L 686.677302 -531.965719 
L 687.13428 -528.989396 
L 687.580661 -526.013072 
L 688.008065 -523.036749 
L 688.409127 -520.060426 
L 688.778121 -517.084102 
L 689.111553 -514.107779 
L 689.408684 -511.131456 
L 689.671946 -508.155132 
L 689.90722 -505.178809 
L 690.123937 -502.202485 
L 690.335003 -499.226162 
L 690.556529 -496.249839 
L 690.807365 -493.273515 
L 691.10847 -490.297192 
L 691.482121 -487.320868 
L 691.950986 -484.344545 
L 692.537118 -481.368222 
L 693.26088 -478.391898 
L 694.139862 -475.415575 
L 695.187823 -472.439251 
L 696.413719 -469.462928 
L 697.820848 -466.486605 
L 699.406189 -463.510281 
L 701.159953 -460.533958 
L 703.065423 -457.557635 
L 705.099094 -454.581311 
L 707.231148 -451.604988 
L 709.426271 -448.628664 
L 711.644791 -445.652341 
L 713.844099 -442.676018 
L 715.980292 -439.699694 
L 718.009948 -436.723371 
L 719.891947 -433.747047 
L 721.589209 -430.770724 
L 723.070262 -427.794401 
L 724.310525 -424.818077 
L 725.293238 -421.841754 
L 726.009975 -418.86543 
L 726.460718 -415.889107 
L 726.653503 -412.912784 
L 726.603663 -409.93646 
L 726.332742 -406.960137 
L 725.867148 -403.983814 
L 725.236655 -401.00749 
L 724.472837 -398.031167 
L 723.607528 -395.054843 
L 722.671401 -392.07852 
L 721.692723 -389.102197 
L 720.696331 -386.125873 
L 719.702866 -383.14955 
L 718.728272 -380.173226 
L 717.78354 -377.196903 
L 716.874707 -374.22058 
L 716.003052 -371.244256 
L 715.165482 -368.267933 
L 714.355077 -365.291609 
L 713.561753 -362.315286 
L 712.773032 -359.338963 
L 711.97489 -356.362639 
L 711.152656 -353.386316 
L 710.291929 -350.409993 
L 709.379495 -347.433669 
L 708.40419 -344.457346 
L 707.357667 -341.481022 
L 706.235032 -338.504699 
L 705.035294 -335.528376 
L 703.761597 -332.552052 
L 702.421208 -329.575729 
L 701.025252 -326.599405 
L 699.588212 -323.623082 
L 698.12722 -320.646759 
L 696.661178 -317.670435 
L 695.2098 -314.694112 
L 693.792616 -311.717788 
L 692.428023 -308.741465 
L 691.132458 -305.765142 
L 689.91972 -302.788818 
L 688.800511 -299.812495 
L 687.782175 -296.836171 
L 686.868672 -293.859848 
L 686.060733 -290.883525 
L 685.356189 -287.907201 
L 684.750408 -284.930878 
L 684.236821 -281.954555 
L 683.807462 -278.978231 
L 683.453504 -276.001908 
L 683.165751 -273.025584 
z
" style="stroke: #3f3f3f; stroke-width: 1.25"/>
    </defs>
    <g clip-path="url(#p653ea96c70)">
     <use xlink:href="#ma19d9a1004" x="0" y="720" style="fill: #3274a1; stroke: #3f3f3f; stroke-width: 1.25"/>
    </g>
   </g>
   <g id="PolyCollection_6">
    <defs>
     <path id="m547e59f203" d="M 794.285875 -173.008059 
L 793.314125 -173.008059 
L 793.187573 -177.220243 
L 793.036473 -181.432427 
L 792.858389 -185.644611 
L 792.651231 -189.856794 
L 792.413406 -194.068978 
L 792.143988 -198.281162 
L 791.842866 -202.493346 
L 791.510884 -206.70553 
L 791.149943 -210.917714 
L 790.763066 -215.129898 
L 790.354407 -219.342081 
L 789.929206 -223.554265 
L 789.493681 -227.766449 
L 789.054856 -231.978633 
L 788.62033 -236.190817 
L 788.197995 -240.403001 
L 787.795717 -244.615185 
L 787.420981 -248.827368 
L 787.080533 -253.039552 
L 786.780024 -257.251736 
L 786.523668 -261.46392 
L 786.313945 -265.676104 
L 786.151353 -269.888288 
L 786.034216 -274.100472 
L 785.958575 -278.312656 
L 785.918154 -282.524839 
L 785.904417 -286.737023 
L 785.906708 -290.949207 
L 785.912483 -295.161391 
L 785.907628 -299.373575 
L 785.87685 -303.585759 
L 785.804137 -307.797943 
L 785.673273 -312.010126 
L 785.468392 -316.22231 
L 785.174557 -320.434494 
L 784.77834 -324.646678 
L 784.268383 -328.858862 
L 783.635937 -333.071046 
L 782.875331 -337.28323 
L 781.984379 -341.495414 
L 780.964692 -345.707597 
L 779.82188 -349.919781 
L 778.565634 -354.131965 
L 777.20966 -358.344149 
L 775.771477 -362.556333 
L 774.272047 -366.768517 
L 772.735255 -370.980701 
L 771.187239 -375.192884 
L 769.655588 -379.405068 
L 768.168439 -383.617252 
L 766.7535 -387.829436 
L 765.437067 -392.04162 
L 764.243065 -396.253804 
L 763.192194 -400.465988 
L 762.30121 -404.678171 
L 761.582415 -408.890355 
L 761.043373 -413.102539 
L 760.686878 -417.314723 
L 760.511178 -421.526907 
L 760.510423 -425.739091 
L 760.675304 -429.951275 
L 760.99384 -434.163459 
L 761.452216 -438.375642 
L 762.035648 -442.587826 
L 762.729167 -446.80001 
L 763.518302 -451.012194 
L 764.389604 -455.224378 
L 765.330984 -459.436562 
L 766.331883 -463.648746 
L 767.383263 -467.860929 
L 768.477456 -472.073113 
L 769.607913 -476.285297 
L 770.768889 -480.497481 
L 771.955098 -484.709665 
L 773.161393 -488.921849 
L 774.382488 -493.134033 
L 775.612749 -497.346217 
L 776.846062 -501.5584 
L 778.075794 -505.770584 
L 779.294826 -509.982768 
L 780.495659 -514.194952 
L 781.670581 -518.407136 
L 782.811871 -522.61932 
L 783.912027 -526.831504 
L 784.964006 -531.043687 
L 785.961449 -535.255871 
L 786.898885 -539.468055 
L 787.771907 -543.680239 
L 788.577287 -547.892423 
L 789.313063 -552.104607 
L 789.978551 -556.316791 
L 790.574315 -560.528975 
L 791.102089 -564.741158 
L 791.564644 -568.953342 
L 791.965635 -573.165526 
L 792.309416 -577.37771 
L 792.600842 -581.589894 
L 792.845078 -585.802078 
L 793.04741 -590.014262 
L 794.55259 -590.014262 
L 794.55259 -590.014262 
L 794.754922 -585.802078 
L 794.999158 -581.589894 
L 795.290584 -577.37771 
L 795.634365 -573.165526 
L 796.035356 -568.953342 
L 796.497911 -564.741158 
L 797.025685 -560.528975 
L 797.621449 -556.316791 
L 798.286937 -552.104607 
L 799.022713 -547.892423 
L 799.828093 -543.680239 
L 800.701115 -539.468055 
L 801.638551 -535.255871 
L 802.635994 -531.043687 
L 803.687973 -526.831504 
L 804.788129 -522.61932 
L 805.929419 -518.407136 
L 807.104341 -514.194952 
L 808.305174 -509.982768 
L 809.524206 -505.770584 
L 810.753938 -501.5584 
L 811.987251 -497.346217 
L 813.217512 -493.134033 
L 814.438607 -488.921849 
L 815.644902 -484.709665 
L 816.831111 -480.497481 
L 817.992087 -476.285297 
L 819.122544 -472.073113 
L 820.216737 -467.860929 
L 821.268117 -463.648746 
L 822.269016 -459.436562 
L 823.210396 -455.224378 
L 824.081698 -451.012194 
L 824.870833 -446.80001 
L 825.564352 -442.587826 
L 826.147784 -438.375642 
L 826.60616 -434.163459 
L 826.924696 -429.951275 
L 827.089577 -425.739091 
L 827.088822 -421.526907 
L 826.913122 -417.314723 
L 826.556627 -413.102539 
L 826.017585 -408.890355 
L 825.29879 -404.678171 
L 824.407806 -400.465988 
L 823.356935 -396.253804 
L 822.162933 -392.04162 
L 820.8465 -387.829436 
L 819.431561 -383.617252 
L 817.944412 -379.405068 
L 816.412761 -375.192884 
L 814.864745 -370.980701 
L 813.327953 -366.768517 
L 811.828523 -362.556333 
L 810.39034 -358.344149 
L 809.034366 -354.131965 
L 807.77812 -349.919781 
L 806.635308 -345.707597 
L 805.615621 -341.495414 
L 804.724669 -337.28323 
L 803.964063 -333.071046 
L 803.331617 -328.858862 
L 802.82166 -324.646678 
L 802.425443 -320.434494 
L 802.131608 -316.22231 
L 801.926727 -312.010126 
L 801.795863 -307.797943 
L 801.72315 -303.585759 
L 801.692372 -299.373575 
L 801.687517 -295.161391 
L 801.693292 -290.949207 
L 801.695583 -286.737023 
L 801.681846 -282.524839 
L 801.641425 -278.312656 
L 801.565784 -274.100472 
L 801.448647 -269.888288 
L 801.286055 -265.676104 
L 801.076332 -261.46392 
L 800.819976 -257.251736 
L 800.519467 -253.039552 
L 800.179019 -248.827368 
L 799.804283 -244.615185 
L 799.402005 -240.403001 
L 798.97967 -236.190817 
L 798.545144 -231.978633 
L 798.106319 -227.766449 
L 797.670794 -223.554265 
L 797.245593 -219.342081 
L 796.836934 -215.129898 
L 796.450057 -210.917714 
L 796.089116 -206.70553 
L 795.757134 -202.493346 
L 795.456012 -198.281162 
L 795.186594 -194.068978 
L 794.948769 -189.856794 
L 794.741611 -185.644611 
L 794.563527 -181.432427 
L 794.412427 -177.220243 
L 794.285875 -173.008059 
z
" style="stroke: #3f3f3f; stroke-width: 1.25"/>
    </defs>
    <g clip-path="url(#p653ea96c70)">
     <use xlink:href="#m547e59f203" x="0" y="720" style="fill: #3274a1; stroke: #3f3f3f; stroke-width: 1.25"/>
    </g>
   </g>
   <g id="PolyCollection_7">
    <defs>
     <path id="m3f312da3ee" d="M 905.838449 -208.785986 
L 904.961551 -208.785986 
L 904.841422 -212.822491 
L 904.698015 -216.858996 
L 904.529579 -220.895502 
L 904.334925 -224.932007 
L 904.113563 -228.968512 
L 903.865805 -233.005017 
L 903.592811 -237.041522 
L 903.296555 -241.078028 
L 902.979717 -245.114533 
L 902.645484 -249.151038 
L 902.297265 -253.187543 
L 901.938345 -257.224048 
L 901.571486 -261.260554 
L 901.198521 -265.297059 
L 900.819959 -269.333564 
L 900.434661 -273.370069 
L 900.039597 -277.406574 
L 899.62974 -281.44308 
L 899.198107 -285.479585 
L 898.735973 -289.51609 
L 898.233251 -293.552595 
L 897.679048 -297.5891 
L 897.062356 -301.625606 
L 896.372862 -305.662111 
L 895.60182 -309.698616 
L 894.74292 -313.735121 
L 893.793099 -317.771626 
L 892.753213 -321.808131 
L 891.628489 -325.844637 
L 890.428708 -329.881142 
L 889.168061 -333.917647 
L 887.864659 -337.954152 
L 886.539705 -341.990657 
L 885.216375 -346.027163 
L 883.918479 -350.063668 
L 882.669017 -354.100173 
L 881.48874 -358.136678 
L 880.394869 -362.173183 
L 879.400069 -366.209689 
L 878.511799 -370.246194 
L 877.732085 -374.282699 
L 877.057754 -378.319204 
L 876.481094 -382.355709 
L 875.990878 -386.392215 
L 875.573658 -390.42872 
L 875.215207 -394.465225 
L 874.901972 -398.50173 
L 874.622431 -402.538235 
L 874.368221 -406.57474 
L 874.134977 -410.611246 
L 873.922821 -414.647751 
L 873.736464 -418.684256 
L 873.584956 -422.720761 
L 873.481093 -426.757266 
L 873.440548 -430.793772 
L 873.48078 -434.830277 
L 873.61981 -438.866782 
L 873.874937 -442.903287 
L 874.261464 -446.939792 
L 874.79153 -450.976298 
L 875.473095 -455.012803 
L 876.309157 -459.049308 
L 877.297239 -463.085813 
L 878.429197 -467.122318 
L 879.691351 -471.158824 
L 881.064963 -475.195329 
L 882.527016 -479.231834 
L 884.051282 -483.268339 
L 885.609587 -487.304844 
L 887.173211 -491.341349 
L 888.714319 -495.377855 
L 890.207324 -499.41436 
L 891.63008 -503.450865 
L 892.964825 -507.48737 
L 894.198797 -511.523875 
L 895.324496 -515.560381 
L 896.339574 -519.596886 
L 897.246388 -523.633391 
L 898.051258 -527.669896 
L 898.763529 -531.706401 
L 899.394509 -535.742907 
L 899.956401 -539.779412 
L 900.461303 -543.815917 
L 900.920371 -547.852422 
L 901.343187 -551.888927 
L 901.737367 -555.925433 
L 902.10841 -559.961938 
L 902.459761 -563.998443 
L 902.793055 -568.034948 
L 903.108486 -572.071453 
L 903.405236 -576.107958 
L 903.681921 -580.144464 
L 903.936997 -584.180969 
L 904.169103 -588.217474 
L 904.377307 -592.253979 
L 904.56125 -596.290484 
L 904.721215 -600.32699 
L 904.858094 -604.363495 
L 904.973311 -608.4 
L 905.826689 -608.4 
L 905.826689 -608.4 
L 905.941906 -604.363495 
L 906.078785 -600.32699 
L 906.23875 -596.290484 
L 906.422693 -592.253979 
L 906.630897 -588.217474 
L 906.863003 -584.180969 
L 907.118079 -580.144464 
L 907.394764 -576.107958 
L 907.691514 -572.071453 
L 908.006945 -568.034948 
L 908.340239 -563.998443 
L 908.69159 -559.961938 
L 909.062633 -555.925433 
L 909.456813 -551.888927 
L 909.879629 -547.852422 
L 910.338697 -543.815917 
L 910.843599 -539.779412 
L 911.405491 -535.742907 
L 912.036471 -531.706401 
L 912.748742 -527.669896 
L 913.553612 -523.633391 
L 914.460426 -519.596886 
L 915.475504 -515.560381 
L 916.601203 -511.523875 
L 917.835175 -507.48737 
L 919.16992 -503.450865 
L 920.592676 -499.41436 
L 922.085681 -495.377855 
L 923.626789 -491.341349 
L 925.190413 -487.304844 
L 926.748718 -483.268339 
L 928.272984 -479.231834 
L 929.735037 -475.195329 
L 931.108649 -471.158824 
L 932.370803 -467.122318 
L 933.502761 -463.085813 
L 934.490843 -459.049308 
L 935.326905 -455.012803 
L 936.00847 -450.976298 
L 936.538536 -446.939792 
L 936.925063 -442.903287 
L 937.18019 -438.866782 
L 937.31922 -434.830277 
L 937.359452 -430.793772 
L 937.318907 -426.757266 
L 937.215044 -422.720761 
L 937.063536 -418.684256 
L 936.877179 -414.647751 
L 936.665023 -410.611246 
L 936.431779 -406.57474 
L 936.177569 -402.538235 
L 935.898028 -398.50173 
L 935.584793 -394.465225 
L 935.226342 -390.42872 
L 934.809122 -386.392215 
L 934.318906 -382.355709 
L 933.742246 -378.319204 
L 933.067915 -374.282699 
L 932.288201 -370.246194 
L 931.399931 -366.209689 
L 930.405131 -362.173183 
L 929.31126 -358.136678 
L 928.130983 -354.100173 
L 926.881521 -350.063668 
L 925.583625 -346.027163 
L 924.260295 -341.990657 
L 922.935341 -337.954152 
L 921.631939 -333.917647 
L 920.371292 -329.881142 
L 919.171511 -325.844637 
L 918.046787 -321.808131 
L 917.006901 -317.771626 
L 916.05708 -313.735121 
L 915.19818 -309.698616 
L 914.427138 -305.662111 
L 913.737644 -301.625606 
L 913.120952 -297.5891 
L 912.566749 -293.552595 
L 912.064027 -289.51609 
L 911.601893 -285.479585 
L 911.17026 -281.44308 
L 910.760403 -277.406574 
L 910.365339 -273.370069 
L 909.980041 -269.333564 
L 909.601479 -265.297059 
L 909.228514 -261.260554 
L 908.861655 -257.224048 
L 908.502735 -253.187543 
L 908.154516 -249.151038 
L 907.820283 -245.114533 
L 907.503445 -241.078028 
L 907.207189 -237.041522 
L 906.934195 -233.005017 
L 906.686437 -228.968512 
L 906.465075 -224.932007 
L 906.270421 -220.895502 
L 906.101985 -216.858996 
L 905.958578 -212.822491 
L 905.838449 -208.785986 
z
" style="stroke: #3f3f3f; stroke-width: 1.25"/>
    </defs>
    <g clip-path="url(#p653ea96c70)">
     <use xlink:href="#m3f312da3ee" x="0" y="720" style="fill: #3274a1; stroke: #3f3f3f; stroke-width: 1.25"/>
    </g>
   </g>
   <g id="PolyCollection_8">
    <defs>
     <path id="m88af6dd51a" d="M 1017.525557 -220.939284 
L 1016.474443 -220.939284 
L 1016.34333 -224.19085 
L 1016.187426 -227.442417 
L 1016.004045 -230.693984 
L 1015.79064 -233.94555 
L 1015.54489 -237.197117 
L 1015.264791 -240.448683 
L 1014.948738 -243.70025 
L 1014.595586 -246.951816 
L 1014.204702 -250.203383 
L 1013.775987 -253.45495 
L 1013.309876 -256.706516 
L 1012.807307 -259.958083 
L 1012.269665 -263.209649 
L 1011.698706 -266.461216 
L 1011.096458 -269.712782 
L 1010.465114 -272.964349 
L 1009.806917 -276.215916 
L 1009.124051 -279.467482 
L 1008.418543 -282.719049 
L 1007.692188 -285.970615 
L 1006.946498 -289.222182 
L 1006.182682 -292.473748 
L 1005.401671 -295.725315 
L 1004.604179 -298.976882 
L 1003.790797 -302.228448 
L 1002.962136 -305.480015 
L 1002.118983 -308.731581 
L 1001.262491 -311.983148 
L 1000.394366 -315.234714 
L 999.517044 -318.486281 
L 998.633844 -321.737847 
L 997.749069 -324.989414 
L 996.868049 -328.240981 
L 995.997097 -331.492547 
L 995.143383 -334.744114 
L 994.314703 -337.99568 
L 993.51917 -341.247247 
L 992.764814 -344.498813 
L 992.059133 -347.75038 
L 991.408607 -351.001947 
L 990.818223 -354.253513 
L 990.291037 -357.50508 
L 989.827822 -360.756646 
L 989.426837 -364.008213 
L 989.08374 -367.259779 
L 988.791681 -370.511346 
L 988.541567 -373.762913 
L 988.322519 -377.014479 
L 988.122474 -380.266046 
L 987.928928 -383.517612 
L 987.729755 -386.769179 
L 987.514059 -390.020745 
L 987.272999 -393.272312 
L 987.00052 -396.523879 
L 986.693946 -399.775445 
L 986.354378 -403.027012 
L 985.98686 -406.278578 
L 985.600313 -409.530145 
L 985.207216 -412.781711 
L 984.823065 -416.033278 
L 984.465645 -419.284845 
L 984.154162 -422.536411 
L 983.908288 -425.787978 
L 983.747199 -429.039544 
L 983.688652 -432.291111 
L 983.748164 -435.542677 
L 983.938336 -438.794244 
L 984.26836 -442.045811 
L 984.743708 -445.297377 
L 985.366029 -448.548944 
L 986.133215 -451.80051 
L 987.039621 -455.052077 
L 988.076422 -458.303643 
L 989.232038 -461.55521 
L 990.492629 -464.806776 
L 991.842604 -468.058343 
L 993.265123 -471.30991 
L 994.742584 -474.561476 
L 996.257071 -477.813043 
L 997.790763 -481.064609 
L 999.3263 -484.316176 
L 1000.847113 -487.567742 
L 1002.337716 -490.819309 
L 1003.783955 -494.070876 
L 1005.173232 -497.322442 
L 1006.494684 -500.574009 
L 1007.73932 -503.825575 
L 1008.900113 -507.077142 
L 1009.972041 -510.328708 
L 1010.952074 -513.580275 
L 1011.8391 -516.831842 
L 1012.633804 -520.083408 
L 1013.338492 -523.334975 
L 1013.95688 -526.586541 
L 1014.493846 -529.838108 
L 1014.955172 -533.089674 
L 1015.347273 -536.341241 
L 1015.676939 -539.592808 
L 1015.951096 -542.844374 
L 1018.048904 -542.844374 
L 1018.048904 -542.844374 
L 1018.323061 -539.592808 
L 1018.652727 -536.341241 
L 1019.044828 -533.089674 
L 1019.506154 -529.838108 
L 1020.04312 -526.586541 
L 1020.661508 -523.334975 
L 1021.366196 -520.083408 
L 1022.1609 -516.831842 
L 1023.047926 -513.580275 
L 1024.027959 -510.328708 
L 1025.099887 -507.077142 
L 1026.26068 -503.825575 
L 1027.505316 -500.574009 
L 1028.826768 -497.322442 
L 1030.216045 -494.070876 
L 1031.662284 -490.819309 
L 1033.152887 -487.567742 
L 1034.6737 -484.316176 
L 1036.209237 -481.064609 
L 1037.742929 -477.813043 
L 1039.257416 -474.561476 
L 1040.734877 -471.30991 
L 1042.157396 -468.058343 
L 1043.507371 -464.806776 
L 1044.767962 -461.55521 
L 1045.923578 -458.303643 
L 1046.960379 -455.052077 
L 1047.866785 -451.80051 
L 1048.633971 -448.548944 
L 1049.256292 -445.297377 
L 1049.73164 -442.045811 
L 1050.061664 -438.794244 
L 1050.251836 -435.542677 
L 1050.311348 -432.291111 
L 1050.252801 -429.039544 
L 1050.091712 -425.787978 
L 1049.845838 -422.536411 
L 1049.534355 -419.284845 
L 1049.176935 -416.033278 
L 1048.792784 -412.781711 
L 1048.399687 -409.530145 
L 1048.01314 -406.278578 
L 1047.645622 -403.027012 
L 1047.306054 -399.775445 
L 1046.99948 -396.523879 
L 1046.727001 -393.272312 
L 1046.485941 -390.020745 
L 1046.270245 -386.769179 
L 1046.071072 -383.517612 
L 1045.877526 -380.266046 
L 1045.677481 -377.014479 
L 1045.458433 -373.762913 
L 1045.208319 -370.511346 
L 1044.91626 -367.259779 
L 1044.573163 -364.008213 
L 1044.172178 -360.756646 
L 1043.708963 -357.50508 
L 1043.181777 -354.253513 
L 1042.591393 -351.001947 
L 1041.940867 -347.75038 
L 1041.235186 -344.498813 
L 1040.48083 -341.247247 
L 1039.685297 -337.99568 
L 1038.856617 -334.744114 
L 1038.002903 -331.492547 
L 1037.131951 -328.240981 
L 1036.250931 -324.989414 
L 1035.366156 -321.737847 
L 1034.482956 -318.486281 
L 1033.605634 -315.234714 
L 1032.737509 -311.983148 
L 1031.881017 -308.731581 
L 1031.037864 -305.480015 
L 1030.209203 -302.228448 
L 1029.395821 -298.976882 
L 1028.598329 -295.725315 
L 1027.817318 -292.473748 
L 1027.053502 -289.222182 
L 1026.307812 -285.970615 
L 1025.581457 -282.719049 
L 1024.875949 -279.467482 
L 1024.193083 -276.215916 
L 1023.534886 -272.964349 
L 1022.903542 -269.712782 
L 1022.301294 -266.461216 
L 1021.730335 -263.209649 
L 1021.192693 -259.958083 
L 1020.690124 -256.706516 
L 1020.224013 -253.45495 
L 1019.795298 -250.203383 
L 1019.404414 -246.951816 
L 1019.051262 -243.70025 
L 1018.735209 -240.448683 
L 1018.45511 -237.197117 
L 1018.20936 -233.94555 
L 1017.995955 -230.693984 
L 1017.812574 -227.442417 
L 1017.65667 -224.19085 
L 1017.525557 -220.939284 
z
" style="stroke: #3f3f3f; stroke-width: 1.25"/>
    </defs>
    <g clip-path="url(#p653ea96c70)">
     <use xlink:href="#m88af6dd51a" x="0" y="720" style="fill: #3274a1; stroke: #3f3f3f; stroke-width: 1.25"/>
    </g>
   </g>
   <g id="PolyCollection_9">
    <defs>
     <path id="m3695160da1" d="M 1129.079514 -104.4 
L 1128.120486 -104.4 
L 1128.013301 -109.148174 
L 1127.88897 -113.896348 
L 1127.746347 -118.644523 
L 1127.584529 -123.392697 
L 1127.402899 -128.140871 
L 1127.201151 -132.889045 
L 1126.979298 -137.637219 
L 1126.737643 -142.385393 
L 1126.476733 -147.133568 
L 1126.197261 -151.881742 
L 1125.899963 -156.629916 
L 1125.585469 -161.37809 
L 1125.254152 -166.126264 
L 1124.905973 -170.874438 
L 1124.540335 -175.622613 
L 1124.155969 -180.370787 
L 1123.75086 -185.118961 
L 1123.32224 -189.867135 
L 1122.866639 -194.615309 
L 1122.380031 -199.363483 
L 1121.858035 -204.111658 
L 1121.296204 -208.859832 
L 1120.690361 -213.608006 
L 1120.036972 -218.35618 
L 1119.333532 -223.104354 
L 1118.578923 -227.852529 
L 1117.773736 -232.600703 
L 1116.9205 -237.348877 
L 1116.023815 -242.097051 
L 1115.090369 -246.845225 
L 1114.128815 -251.593399 
L 1113.149536 -256.341574 
L 1112.164281 -261.089748 
L 1111.185727 -265.837922 
L 1110.22696 -270.586096 
L 1109.300948 -275.33427 
L 1108.420017 -280.082444 
L 1107.595379 -284.830619 
L 1106.836748 -289.578793 
L 1106.152052 -294.326967 
L 1105.547283 -299.075141 
L 1105.026458 -303.823315 
L 1104.59171 -308.571489 
L 1104.24347 -313.319664 
L 1103.980732 -318.067838 
L 1103.801352 -322.816012 
L 1103.70236 -327.564186 
L 1103.68025 -332.31236 
L 1103.731214 -337.060535 
L 1103.851317 -341.808709 
L 1104.036584 -346.556883 
L 1104.283023 -351.305057 
L 1104.58657 -356.053231 
L 1104.943001 -360.801405 
L 1105.34781 -365.54958 
L 1105.796105 -370.297754 
L 1106.282532 -375.045928 
L 1106.801244 -379.794102 
L 1107.345957 -384.542276 
L 1107.910061 -389.29045 
L 1108.486823 -394.038625 
L 1109.069634 -398.786799 
L 1109.652301 -403.534973 
L 1110.229358 -408.283147 
L 1110.79635 -413.031321 
L 1111.350083 -417.779495 
L 1111.888796 -422.52767 
L 1112.412244 -427.275844 
L 1112.921687 -432.024018 
L 1113.419759 -436.772192 
L 1113.910248 -441.520366 
L 1114.397789 -446.268541 
L 1114.887494 -451.016715 
L 1115.384548 -455.764889 
L 1115.893803 -460.513063 
L 1116.419388 -465.261237 
L 1116.964386 -470.009411 
L 1117.530578 -474.757586 
L 1118.118281 -479.50576 
L 1118.726286 -484.253934 
L 1119.3519 -489.002108 
L 1119.99108 -493.750282 
L 1120.63865 -498.498456 
L 1121.288576 -503.246631 
L 1121.934289 -507.994805 
L 1122.569012 -512.742979 
L 1123.186092 -517.491153 
L 1123.7793 -522.239327 
L 1124.343088 -526.987501 
L 1124.87279 -531.735676 
L 1125.36476 -536.48385 
L 1125.816445 -541.232024 
L 1126.226395 -545.980198 
L 1126.59422 -550.728372 
L 1126.920496 -555.476547 
L 1127.20664 -560.224721 
L 1127.454762 -564.972895 
L 1127.667503 -569.721069 
L 1127.847873 -574.469243 
L 1129.352127 -574.469243 
L 1129.352127 -574.469243 
L 1129.532497 -569.721069 
L 1129.745238 -564.972895 
L 1129.99336 -560.224721 
L 1130.279504 -555.476547 
L 1130.60578 -550.728372 
L 1130.973605 -545.980198 
L 1131.383555 -541.232024 
L 1131.83524 -536.48385 
L 1132.32721 -531.735676 
L 1132.856912 -526.987501 
L 1133.4207 -522.239327 
L 1134.013908 -517.491153 
L 1134.630988 -512.742979 
L 1135.265711 -507.994805 
L 1135.911424 -503.246631 
L 1136.56135 -498.498456 
L 1137.20892 -493.750282 
L 1137.8481 -489.002108 
L 1138.473714 -484.253934 
L 1139.081719 -479.50576 
L 1139.669422 -474.757586 
L 1140.235614 -470.009411 
L 1140.780612 -465.261237 
L 1141.306197 -460.513063 
L 1141.815452 -455.764889 
L 1142.312506 -451.016715 
L 1142.802211 -446.268541 
L 1143.289752 -441.520366 
L 1143.780241 -436.772192 
L 1144.278313 -432.024018 
L 1144.787756 -427.275844 
L 1145.311204 -422.52767 
L 1145.849917 -417.779495 
L 1146.40365 -413.031321 
L 1146.970642 -408.283147 
L 1147.547699 -403.534973 
L 1148.130366 -398.786799 
L 1148.713177 -394.038625 
L 1149.289939 -389.29045 
L 1149.854043 -384.542276 
L 1150.398756 -379.794102 
L 1150.917468 -375.045928 
L 1151.403895 -370.297754 
L 1151.85219 -365.54958 
L 1152.256999 -360.801405 
L 1152.61343 -356.053231 
L 1152.916977 -351.305057 
L 1153.163416 -346.556883 
L 1153.348683 -341.808709 
L 1153.468786 -337.060535 
L 1153.51975 -332.31236 
L 1153.49764 -327.564186 
L 1153.398648 -322.816012 
L 1153.219268 -318.067838 
L 1152.95653 -313.319664 
L 1152.60829 -308.571489 
L 1152.173542 -303.823315 
L 1151.652717 -299.075141 
L 1151.047948 -294.326967 
L 1150.363252 -289.578793 
L 1149.604621 -284.830619 
L 1148.779983 -280.082444 
L 1147.899052 -275.33427 
L 1146.97304 -270.586096 
L 1146.014273 -265.837922 
L 1145.035719 -261.089748 
L 1144.050464 -256.341574 
L 1143.071185 -251.593399 
L 1142.109631 -246.845225 
L 1141.176185 -242.097051 
L 1140.2795 -237.348877 
L 1139.426264 -232.600703 
L 1138.621077 -227.852529 
L 1137.866468 -223.104354 
L 1137.163028 -218.35618 
L 1136.509639 -213.608006 
L 1135.903796 -208.859832 
L 1135.341965 -204.111658 
L 1134.819969 -199.363483 
L 1134.333361 -194.615309 
L 1133.87776 -189.867135 
L 1133.44914 -185.118961 
L 1133.044031 -180.370787 
L 1132.659665 -175.622613 
L 1132.294027 -170.874438 
L 1131.945848 -166.126264 
L 1131.614531 -161.37809 
L 1131.300037 -156.629916 
L 1131.002739 -151.881742 
L 1130.723267 -147.133568 
L 1130.462357 -142.385393 
L 1130.220702 -137.637219 
L 1129.998849 -132.889045 
L 1129.797101 -128.140871 
L 1129.615471 -123.392697 
L 1129.453653 -118.644523 
L 1129.31103 -113.896348 
L 1129.186699 -109.148174 
L 1129.079514 -104.4 
z
" style="stroke: #3f3f3f; stroke-width: 1.25"/>
    </defs>
    <g clip-path="url(#p653ea96c70)">
     <use xlink:href="#m3695160da1" x="0" y="720" style="fill: #3274a1; stroke: #3f3f3f; stroke-width: 1.25"/>
    </g>
   </g>
   <g id="PolyCollection_10">
    <defs>
     <path id="m6fa4931f4e" d="M 1241.344117 -245.964455 
L 1239.055883 -245.964455 
L 1238.793697 -249.156792 
L 1238.485136 -252.349128 
L 1238.125361 -255.541465 
L 1237.709772 -258.733801 
L 1237.234199 -261.926137 
L 1236.695098 -265.118474 
L 1236.089758 -268.31081 
L 1235.416506 -271.503147 
L 1234.674898 -274.695483 
L 1233.865879 -277.88782 
L 1232.991912 -281.080156 
L 1232.057059 -284.272492 
L 1231.066999 -287.464829 
L 1230.028989 -290.657165 
L 1228.951747 -293.849502 
L 1227.845276 -297.041838 
L 1226.720616 -300.234175 
L 1225.589545 -303.426511 
L 1224.464227 -306.618847 
L 1223.35684 -309.811184 
L 1222.279187 -313.00352 
L 1221.242315 -316.195857 
L 1220.256163 -319.388193 
L 1219.329255 -322.580529 
L 1218.46846 -325.772866 
L 1217.678814 -328.965202 
L 1216.963436 -332.157539 
L 1216.323523 -335.349875 
L 1215.758423 -338.542212 
L 1215.265785 -341.734548 
L 1214.841766 -344.926884 
L 1214.481285 -348.119221 
L 1214.178302 -351.311557 
L 1213.926108 -354.503894 
L 1213.717606 -357.69623 
L 1213.545569 -360.888567 
L 1213.402871 -364.080903 
L 1213.282675 -367.273239 
L 1213.178582 -370.465576 
L 1213.084745 -373.657912 
L 1212.995946 -376.850249 
L 1212.907655 -380.042585 
L 1212.816071 -383.234922 
L 1212.718156 -386.427258 
L 1212.61167 -389.619594 
L 1212.495214 -392.811931 
L 1212.36827 -396.004267 
L 1212.231254 -399.196604 
L 1212.085552 -402.38894 
L 1211.933556 -405.581277 
L 1211.77867 -408.773613 
L 1211.625284 -411.965949 
L 1211.478715 -415.158286 
L 1211.345097 -418.350622 
L 1211.231228 -421.542959 
L 1211.144371 -424.735295 
L 1211.092027 -427.927632 
L 1211.081675 -431.119968 
L 1211.120504 -434.312304 
L 1211.215159 -437.504641 
L 1211.371493 -440.696977 
L 1211.594367 -443.889314 
L 1211.887493 -447.08165 
L 1212.253328 -450.273987 
L 1212.693029 -453.466323 
L 1213.206466 -456.658659 
L 1213.792277 -459.850996 
L 1214.447973 -463.043332 
L 1215.170064 -466.235669 
L 1215.954207 -469.428005 
L 1216.795354 -472.620342 
L 1217.687897 -475.812678 
L 1218.625792 -479.005014 
L 1219.602673 -482.197351 
L 1220.611933 -485.389687 
L 1221.646792 -488.582024 
L 1222.700352 -491.77436 
L 1223.765634 -494.966697 
L 1224.835622 -498.159033 
L 1225.903303 -501.351369 
L 1226.961726 -504.543706 
L 1228.004062 -507.736042 
L 1229.023692 -510.928379 
L 1230.014298 -514.120715 
L 1230.969969 -517.313052 
L 1231.885314 -520.505388 
L 1232.755563 -523.697724 
L 1233.576671 -526.890061 
L 1234.345397 -530.082397 
L 1235.059361 -533.274734 
L 1235.717081 -536.46707 
L 1236.317972 -539.659406 
L 1236.862323 -542.851743 
L 1237.351238 -546.044079 
L 1237.786557 -549.236416 
L 1238.17076 -552.428752 
L 1238.506847 -555.621089 
L 1238.798219 -558.813425 
L 1239.048554 -562.005761 
L 1241.351446 -562.005761 
L 1241.351446 -562.005761 
L 1241.601781 -558.813425 
L 1241.893153 -555.621089 
L 1242.22924 -552.428752 
L 1242.613443 -549.236416 
L 1243.048762 -546.044079 
L 1243.537677 -542.851743 
L 1244.082028 -539.659406 
L 1244.682919 -536.46707 
L 1245.340639 -533.274734 
L 1246.054603 -530.082397 
L 1246.823329 -526.890061 
L 1247.644437 -523.697724 
L 1248.514686 -520.505388 
L 1249.430031 -517.313052 
L 1250.385702 -514.120715 
L 1251.376308 -510.928379 
L 1252.395938 -507.736042 
L 1253.438274 -504.543706 
L 1254.496697 -501.351369 
L 1255.564378 -498.159033 
L 1256.634366 -494.966697 
L 1257.699648 -491.77436 
L 1258.753208 -488.582024 
L 1259.788067 -485.389687 
L 1260.797327 -482.197351 
L 1261.774208 -479.005014 
L 1262.712103 -475.812678 
L 1263.604646 -472.620342 
L 1264.445793 -469.428005 
L 1265.229936 -466.235669 
L 1265.952027 -463.043332 
L 1266.607723 -459.850996 
L 1267.193534 -456.658659 
L 1267.706971 -453.466323 
L 1268.146672 -450.273987 
L 1268.512507 -447.08165 
L 1268.805633 -443.889314 
L 1269.028507 -440.696977 
L 1269.184841 -437.504641 
L 1269.279496 -434.312304 
L 1269.318325 -431.119968 
L 1269.307973 -427.927632 
L 1269.255629 -424.735295 
L 1269.168772 -421.542959 
L 1269.054903 -418.350622 
L 1268.921285 -415.158286 
L 1268.774716 -411.965949 
L 1268.62133 -408.773613 
L 1268.466444 -405.581277 
L 1268.314448 -402.38894 
L 1268.168746 -399.196604 
L 1268.03173 -396.004267 
L 1267.904786 -392.811931 
L 1267.78833 -389.619594 
L 1267.681844 -386.427258 
L 1267.583929 -383.234922 
L 1267.492345 -380.042585 
L 1267.404054 -376.850249 
L 1267.315255 -373.657912 
L 1267.221418 -370.465576 
L 1267.117325 -367.273239 
L 1266.997129 -364.080903 
L 1266.854431 -360.888567 
L 1266.682394 -357.69623 
L 1266.473892 -354.503894 
L 1266.221698 -351.311557 
L 1265.918715 -348.119221 
L 1265.558234 -344.926884 
L 1265.134215 -341.734548 
L 1264.641577 -338.542212 
L 1264.076477 -335.349875 
L 1263.436564 -332.157539 
L 1262.721186 -328.965202 
L 1261.93154 -325.772866 
L 1261.070745 -322.580529 
L 1260.143837 -319.388193 
L 1259.157685 -316.195857 
L 1258.120813 -313.00352 
L 1257.04316 -309.811184 
L 1255.935773 -306.618847 
L 1254.810455 -303.426511 
L 1253.679384 -300.234175 
L 1252.554724 -297.041838 
L 1251.448253 -293.849502 
L 1250.371011 -290.657165 
L 1249.333001 -287.464829 
L 1248.342941 -284.272492 
L 1247.408088 -281.080156 
L 1246.534121 -277.88782 
L 1245.725102 -274.695483 
L 1244.983494 -271.503147 
L 1244.310242 -268.31081 
L 1243.704902 -265.118474 
L 1243.165801 -261.926137 
L 1242.690228 -258.733801 
L 1242.274639 -255.541465 
L 1241.914864 -252.349128 
L 1241.606303 -249.156792 
L 1241.344117 -245.964455 
z
" style="stroke: #3f3f3f; stroke-width: 1.25"/>
    </defs>
    <g clip-path="url(#p653ea96c70)">
     <use xlink:href="#m6fa4931f4e" x="0" y="720" style="fill: #3274a1; stroke: #3f3f3f; stroke-width: 1.25"/>
    </g>
   </g>
   <g id="matplotlib.axis_1">
    <g id="xtick_1">
     <g id="line2d_1">
      <defs>
       <path id="ma5f52eecb2" d="M 0 0 
L 0 3.5 
" style="stroke: #000000; stroke-width: 0.8"/>
      </defs>
      <g>
       <use xlink:href="#ma5f52eecb2" x="235.8" y="640.8" style="stroke: #000000; stroke-width: 0.8"/>
      </g>
     </g>
     <g id="text_1">
      <!-- 0 -->
      <g transform="translate(232.61875 655.398438) scale(0.1 -0.1)">
       <defs>
        <path id="DejaVuSans-30" d="M 2034 4250 
Q 1547 4250 1301 3770 
Q 1056 3291 1056 2328 
Q 1056 1369 1301 889 
Q 1547 409 2034 409 
Q 2525 409 2770 889 
Q 3016 1369 3016 2328 
Q 3016 3291 2770 3770 
Q 2525 4250 2034 4250 
z
M 2034 4750 
Q 2819 4750 3233 4129 
Q 3647 3509 3647 2328 
Q 3647 1150 3233 529 
Q 2819 -91 2034 -91 
Q 1250 -91 836 529 
Q 422 1150 422 2328 
Q 422 3509 836 4129 
Q 1250 4750 2034 4750 
z
" transform="scale(0.015625)"/>
       </defs>
       <use xlink:href="#DejaVuSans-30"/>
      </g>
     </g>
    </g>
    <g id="xtick_2">
     <g id="line2d_2">
      <g>
       <use xlink:href="#ma5f52eecb2" x="347.4" y="640.8" style="stroke: #000000; stroke-width: 0.8"/>
      </g>
     </g>
     <g id="text_2">
      <!-- 1 -->
      <g transform="translate(344.21875 655.398438) scale(0.1 -0.1)">
       <defs>
        <path id="DejaVuSans-31" d="M 794 531 
L 1825 531 
L 1825 4091 
L 703 3866 
L 703 4441 
L 1819 4666 
L 2450 4666 
L 2450 531 
L 3481 531 
L 3481 0 
L 794 0 
L 794 531 
z
" transform="scale(0.015625)"/>
       </defs>
       <use xlink:href="#DejaVuSans-31"/>
      </g>
     </g>
    </g>
    <g id="xtick_3">
     <g id="line2d_3">
      <g>
       <use xlink:href="#ma5f52eecb2" x="459" y="640.8" style="stroke: #000000; stroke-width: 0.8"/>
      </g>
     </g>
     <g id="text_3">
      <!-- 2 -->
      <g transform="translate(455.81875 655.398438) scale(0.1 -0.1)">
       <defs>
        <path id="DejaVuSans-32" d="M 1228 531 
L 3431 531 
L 3431 0 
L 469 0 
L 469 531 
Q 828 903 1448 1529 
Q 2069 2156 2228 2338 
Q 2531 2678 2651 2914 
Q 2772 3150 2772 3378 
Q 2772 3750 2511 3984 
Q 2250 4219 1831 4219 
Q 1534 4219 1204 4116 
Q 875 4013 500 3803 
L 500 4441 
Q 881 4594 1212 4672 
Q 1544 4750 1819 4750 
Q 2544 4750 2975 4387 
Q 3406 4025 3406 3419 
Q 3406 3131 3298 2873 
Q 3191 2616 2906 2266 
Q 2828 2175 2409 1742 
Q 1991 1309 1228 531 
z
" transform="scale(0.015625)"/>
       </defs>
       <use xlink:href="#DejaVuSans-32"/>
      </g>
     </g>
    </g>
    <g id="xtick_4">
     <g id="line2d_4">
      <g>
       <use xlink:href="#ma5f52eecb2" x="570.6" y="640.8" style="stroke: #000000; stroke-width: 0.8"/>
      </g>
     </g>
     <g id="text_4">
      <!-- 3 -->
      <g transform="translate(567.41875 655.398438) scale(0.1 -0.1)">
       <defs>
        <path id="DejaVuSans-33" d="M 2597 2516 
Q 3050 2419 3304 2112 
Q 3559 1806 3559 1356 
Q 3559 666 3084 287 
Q 2609 -91 1734 -91 
Q 1441 -91 1130 -33 
Q 819 25 488 141 
L 488 750 
Q 750 597 1062 519 
Q 1375 441 1716 441 
Q 2309 441 2620 675 
Q 2931 909 2931 1356 
Q 2931 1769 2642 2001 
Q 2353 2234 1838 2234 
L 1294 2234 
L 1294 2753 
L 1863 2753 
Q 2328 2753 2575 2939 
Q 2822 3125 2822 3475 
Q 2822 3834 2567 4026 
Q 2313 4219 1838 4219 
Q 1578 4219 1281 4162 
Q 984 4106 628 3988 
L 628 4550 
Q 988 4650 1302 4700 
Q 1616 4750 1894 4750 
Q 2613 4750 3031 4423 
Q 3450 4097 3450 3541 
Q 3450 3153 3228 2886 
Q 3006 2619 2597 2516 
z
" transform="scale(0.015625)"/>
       </defs>
       <use xlink:href="#DejaVuSans-33"/>
      </g>
     </g>
    </g>
    <g id="xtick_5">
     <g id="line2d_5">
      <g>
       <use xlink:href="#ma5f52eecb2" x="682.2" y="640.8" style="stroke: #000000; stroke-width: 0.8"/>
      </g>
     </g>
     <g id="text_5">
      <!-- 4 -->
      <g transform="translate(679.01875 655.398438) scale(0.1 -0.1)">
       <defs>
        <path id="DejaVuSans-34" d="M 2419 4116 
L 825 1625 
L 2419 1625 
L 2419 4116 
z
M 2253 4666 
L 3047 4666 
L 3047 1625 
L 3713 1625 
L 3713 1100 
L 3047 1100 
L 3047 0 
L 2419 0 
L 2419 1100 
L 313 1100 
L 313 1709 
L 2253 4666 
z
" transform="scale(0.015625)"/>
       </defs>
       <use xlink:href="#DejaVuSans-34"/>
      </g>
     </g>
    </g>
    <g id="xtick_6">
     <g id="line2d_6">
      <g>
       <use xlink:href="#ma5f52eecb2" x="793.8" y="640.8" style="stroke: #000000; stroke-width: 0.8"/>
      </g>
     </g>
     <g id="text_6">
      <!-- 5 -->
      <g transform="translate(790.61875 655.398438) scale(0.1 -0.1)">
       <defs>
        <path id="DejaVuSans-35" d="M 691 4666 
L 3169 4666 
L 3169 4134 
L 1269 4134 
L 1269 2991 
Q 1406 3038 1543 3061 
Q 1681 3084 1819 3084 
Q 2600 3084 3056 2656 
Q 3513 2228 3513 1497 
Q 3513 744 3044 326 
Q 2575 -91 1722 -91 
Q 1428 -91 1123 -41 
Q 819 9 494 109 
L 494 744 
Q 775 591 1075 516 
Q 1375 441 1709 441 
Q 2250 441 2565 725 
Q 2881 1009 2881 1497 
Q 2881 1984 2565 2268 
Q 2250 2553 1709 2553 
Q 1456 2553 1204 2497 
Q 953 2441 691 2322 
L 691 4666 
z
" transform="scale(0.015625)"/>
       </defs>
       <use xlink:href="#DejaVuSans-35"/>
      </g>
     </g>
    </g>
    <g id="xtick_7">
     <g id="line2d_7">
      <g>
       <use xlink:href="#ma5f52eecb2" x="905.4" y="640.8" style="stroke: #000000; stroke-width: 0.8"/>
      </g>
     </g>
     <g id="text_7">
      <!-- 6 -->
      <g transform="translate(902.21875 655.398438) scale(0.1 -0.1)">
       <defs>
        <path id="DejaVuSans-36" d="M 2113 2584 
Q 1688 2584 1439 2293 
Q 1191 2003 1191 1497 
Q 1191 994 1439 701 
Q 1688 409 2113 409 
Q 2538 409 2786 701 
Q 3034 994 3034 1497 
Q 3034 2003 2786 2293 
Q 2538 2584 2113 2584 
z
M 3366 4563 
L 3366 3988 
Q 3128 4100 2886 4159 
Q 2644 4219 2406 4219 
Q 1781 4219 1451 3797 
Q 1122 3375 1075 2522 
Q 1259 2794 1537 2939 
Q 1816 3084 2150 3084 
Q 2853 3084 3261 2657 
Q 3669 2231 3669 1497 
Q 3669 778 3244 343 
Q 2819 -91 2113 -91 
Q 1303 -91 875 529 
Q 447 1150 447 2328 
Q 447 3434 972 4092 
Q 1497 4750 2381 4750 
Q 2619 4750 2861 4703 
Q 3103 4656 3366 4563 
z
" transform="scale(0.015625)"/>
       </defs>
       <use xlink:href="#DejaVuSans-36"/>
      </g>
     </g>
    </g>
    <g id="xtick_8">
     <g id="line2d_8">
      <g>
       <use xlink:href="#ma5f52eecb2" x="1017" y="640.8" style="stroke: #000000; stroke-width: 0.8"/>
      </g>
     </g>
     <g id="text_8">
      <!-- 7 -->
      <g transform="translate(1013.81875 655.398438) scale(0.1 -0.1)">
       <defs>
        <path id="DejaVuSans-37" d="M 525 4666 
L 3525 4666 
L 3525 4397 
L 1831 0 
L 1172 0 
L 2766 4134 
L 525 4134 
L 525 4666 
z
" transform="scale(0.015625)"/>
       </defs>
       <use xlink:href="#DejaVuSans-37"/>
      </g>
     </g>
    </g>
    <g id="xtick_9">
     <g id="line2d_9">
      <g>
       <use xlink:href="#ma5f52eecb2" x="1128.6" y="640.8" style="stroke: #000000; stroke-width: 0.8"/>
      </g>
     </g>
     <g id="text_9">
      <!-- 8 -->
      <g transform="translate(1125.41875 655.398438) scale(0.1 -0.1)">
       <defs>
        <path id="DejaVuSans-38" d="M 2034 2216 
Q 1584 2216 1326 1975 
Q 1069 1734 1069 1313 
Q 1069 891 1326 650 
Q 1584 409 2034 409 
Q 2484 409 2743 651 
Q 3003 894 3003 1313 
Q 3003 1734 2745 1975 
Q 2488 2216 2034 2216 
z
M 1403 2484 
Q 997 2584 770 2862 
Q 544 3141 544 3541 
Q 544 4100 942 4425 
Q 1341 4750 2034 4750 
Q 2731 4750 3128 4425 
Q 3525 4100 3525 3541 
Q 3525 3141 3298 2862 
Q 3072 2584 2669 2484 
Q 3125 2378 3379 2068 
Q 3634 1759 3634 1313 
Q 3634 634 3220 271 
Q 2806 -91 2034 -91 
Q 1263 -91 848 271 
Q 434 634 434 1313 
Q 434 1759 690 2068 
Q 947 2378 1403 2484 
z
M 1172 3481 
Q 1172 3119 1398 2916 
Q 1625 2713 2034 2713 
Q 2441 2713 2670 2916 
Q 2900 3119 2900 3481 
Q 2900 3844 2670 4047 
Q 2441 4250 2034 4250 
Q 1625 4250 1398 4047 
Q 1172 3844 1172 3481 
z
" transform="scale(0.015625)"/>
       </defs>
       <use xlink:href="#DejaVuSans-38"/>
      </g>
     </g>
    </g>
    <g id="xtick_10">
     <g id="line2d_10">
      <g>
       <use xlink:href="#ma5f52eecb2" x="1240.2" y="640.8" style="stroke: #000000; stroke-width: 0.8"/>
      </g>
     </g>
     <g id="text_10">
      <!-- 9 -->
      <g transform="translate(1237.01875 655.398438) scale(0.1 -0.1)">
       <defs>
        <path id="DejaVuSans-39" d="M 703 97 
L 703 672 
Q 941 559 1184 500 
Q 1428 441 1663 441 
Q 2288 441 2617 861 
Q 2947 1281 2994 2138 
Q 2813 1869 2534 1725 
Q 2256 1581 1919 1581 
Q 1219 1581 811 2004 
Q 403 2428 403 3163 
Q 403 3881 828 4315 
Q 1253 4750 1959 4750 
Q 2769 4750 3195 4129 
Q 3622 3509 3622 2328 
Q 3622 1225 3098 567 
Q 2575 -91 1691 -91 
Q 1453 -91 1209 -44 
Q 966 3 703 97 
z
M 1959 2075 
Q 2384 2075 2632 2365 
Q 2881 2656 2881 3163 
Q 2881 3666 2632 3958 
Q 2384 4250 1959 4250 
Q 1534 4250 1286 3958 
Q 1038 3666 1038 3163 
Q 1038 2656 1286 2365 
Q 1534 2075 1959 2075 
z
" transform="scale(0.015625)"/>
       </defs>
       <use xlink:href="#DejaVuSans-39"/>
      </g>
     </g>
    </g>
    <g id="text_11">
     <!-- iteration -->
     <g transform="translate(716.877344 669.076563) scale(0.1 -0.1)">
      <defs>
       <path id="DejaVuSans-69" d="M 603 3500 
L 1178 3500 
L 1178 0 
L 603 0 
L 603 3500 
z
M 603 4863 
L 1178 4863 
L 1178 4134 
L 603 4134 
L 603 4863 
z
" transform="scale(0.015625)"/>
       <path id="DejaVuSans-74" d="M 1172 4494 
L 1172 3500 
L 2356 3500 
L 2356 3053 
L 1172 3053 
L 1172 1153 
Q 1172 725 1289 603 
Q 1406 481 1766 481 
L 2356 481 
L 2356 0 
L 1766 0 
Q 1100 0 847 248 
Q 594 497 594 1153 
L 594 3053 
L 172 3053 
L 172 3500 
L 594 3500 
L 594 4494 
L 1172 4494 
z
" transform="scale(0.015625)"/>
       <path id="DejaVuSans-65" d="M 3597 1894 
L 3597 1613 
L 953 1613 
Q 991 1019 1311 708 
Q 1631 397 2203 397 
Q 2534 397 2845 478 
Q 3156 559 3463 722 
L 3463 178 
Q 3153 47 2828 -22 
Q 2503 -91 2169 -91 
Q 1331 -91 842 396 
Q 353 884 353 1716 
Q 353 2575 817 3079 
Q 1281 3584 2069 3584 
Q 2775 3584 3186 3129 
Q 3597 2675 3597 1894 
z
M 3022 2063 
Q 3016 2534 2758 2815 
Q 2500 3097 2075 3097 
Q 1594 3097 1305 2825 
Q 1016 2553 972 2059 
L 3022 2063 
z
" transform="scale(0.015625)"/>
       <path id="DejaVuSans-72" d="M 2631 2963 
Q 2534 3019 2420 3045 
Q 2306 3072 2169 3072 
Q 1681 3072 1420 2755 
Q 1159 2438 1159 1844 
L 1159 0 
L 581 0 
L 581 3500 
L 1159 3500 
L 1159 2956 
Q 1341 3275 1631 3429 
Q 1922 3584 2338 3584 
Q 2397 3584 2469 3576 
Q 2541 3569 2628 3553 
L 2631 2963 
z
" transform="scale(0.015625)"/>
       <path id="DejaVuSans-61" d="M 2194 1759 
Q 1497 1759 1228 1600 
Q 959 1441 959 1056 
Q 959 750 1161 570 
Q 1363 391 1709 391 
Q 2188 391 2477 730 
Q 2766 1069 2766 1631 
L 2766 1759 
L 2194 1759 
z
M 3341 1997 
L 3341 0 
L 2766 0 
L 2766 531 
Q 2569 213 2275 61 
Q 1981 -91 1556 -91 
Q 1019 -91 701 211 
Q 384 513 384 1019 
Q 384 1609 779 1909 
Q 1175 2209 1959 2209 
L 2766 2209 
L 2766 2266 
Q 2766 2663 2505 2880 
Q 2244 3097 1772 3097 
Q 1472 3097 1187 3025 
Q 903 2953 641 2809 
L 641 3341 
Q 956 3463 1253 3523 
Q 1550 3584 1831 3584 
Q 2591 3584 2966 3190 
Q 3341 2797 3341 1997 
z
" transform="scale(0.015625)"/>
       <path id="DejaVuSans-6f" d="M 1959 3097 
Q 1497 3097 1228 2736 
Q 959 2375 959 1747 
Q 959 1119 1226 758 
Q 1494 397 1959 397 
Q 2419 397 2687 759 
Q 2956 1122 2956 1747 
Q 2956 2369 2687 2733 
Q 2419 3097 1959 3097 
z
M 1959 3584 
Q 2709 3584 3137 3096 
Q 3566 2609 3566 1747 
Q 3566 888 3137 398 
Q 2709 -91 1959 -91 
Q 1206 -91 779 398 
Q 353 888 353 1747 
Q 353 2609 779 3096 
Q 1206 3584 1959 3584 
z
" transform="scale(0.015625)"/>
       <path id="DejaVuSans-6e" d="M 3513 2113 
L 3513 0 
L 2938 0 
L 2938 2094 
Q 2938 2591 2744 2837 
Q 2550 3084 2163 3084 
Q 1697 3084 1428 2787 
Q 1159 2491 1159 1978 
L 1159 0 
L 581 0 
L 581 3500 
L 1159 3500 
L 1159 2956 
Q 1366 3272 1645 3428 
Q 1925 3584 2291 3584 
Q 2894 3584 3203 3211 
Q 3513 2838 3513 2113 
z
" transform="scale(0.015625)"/>
      </defs>
      <use xlink:href="#DejaVuSans-69"/>
      <use xlink:href="#DejaVuSans-74" x="27.783203"/>
      <use xlink:href="#DejaVuSans-65" x="66.992188"/>
      <use xlink:href="#DejaVuSans-72" x="128.515625"/>
      <use xlink:href="#DejaVuSans-61" x="169.628906"/>
      <use xlink:href="#DejaVuSans-74" x="230.908203"/>
      <use xlink:href="#DejaVuSans-69" x="270.117188"/>
      <use xlink:href="#DejaVuSans-6f" x="297.900391"/>
      <use xlink:href="#DejaVuSans-6e" x="359.082031"/>
     </g>
    </g>
   </g>
   <g id="matplotlib.axis_2">
    <g id="ytick_1">
     <g id="line2d_11">
      <defs>
       <path id="mfdbcb00aa7" d="M 0 0 
L -3.5 0 
" style="stroke: #000000; stroke-width: 0.8"/>
      </defs>
      <g>
       <use xlink:href="#mfdbcb00aa7" x="180" y="620.050684" style="stroke: #000000; stroke-width: 0.8"/>
      </g>
     </g>
     <g id="text_12">
      <!-- 0.0 -->
      <g transform="translate(157.096875 623.849903) scale(0.1 -0.1)">
       <defs>
        <path id="DejaVuSans-2e" d="M 684 794 
L 1344 794 
L 1344 0 
L 684 0 
L 684 794 
z
" transform="scale(0.015625)"/>
       </defs>
       <use xlink:href="#DejaVuSans-30"/>
       <use xlink:href="#DejaVuSans-2e" x="63.623047"/>
       <use xlink:href="#DejaVuSans-30" x="95.410156"/>
      </g>
     </g>
    </g>
    <g id="ytick_2">
     <g id="line2d_12">
      <g>
       <use xlink:href="#mfdbcb00aa7" x="180" y="515.479376" style="stroke: #000000; stroke-width: 0.8"/>
      </g>
     </g>
     <g id="text_13">
      <!-- 0.2 -->
      <g transform="translate(157.096875 519.278595) scale(0.1 -0.1)">
       <use xlink:href="#DejaVuSans-30"/>
       <use xlink:href="#DejaVuSans-2e" x="63.623047"/>
       <use xlink:href="#DejaVuSans-32" x="95.410156"/>
      </g>
     </g>
    </g>
    <g id="ytick_3">
     <g id="line2d_13">
      <g>
       <use xlink:href="#mfdbcb00aa7" x="180" y="410.908068" style="stroke: #000000; stroke-width: 0.8"/>
      </g>
     </g>
     <g id="text_14">
      <!-- 0.4 -->
      <g transform="translate(157.096875 414.707287) scale(0.1 -0.1)">
       <use xlink:href="#DejaVuSans-30"/>
       <use xlink:href="#DejaVuSans-2e" x="63.623047"/>
       <use xlink:href="#DejaVuSans-34" x="95.410156"/>
      </g>
     </g>
    </g>
    <g id="ytick_4">
     <g id="line2d_14">
      <g>
       <use xlink:href="#mfdbcb00aa7" x="180" y="306.33676" style="stroke: #000000; stroke-width: 0.8"/>
      </g>
     </g>
     <g id="text_15">
      <!-- 0.6 -->
      <g transform="translate(157.096875 310.135979) scale(0.1 -0.1)">
       <use xlink:href="#DejaVuSans-30"/>
       <use xlink:href="#DejaVuSans-2e" x="63.623047"/>
       <use xlink:href="#DejaVuSans-36" x="95.410156"/>
      </g>
     </g>
    </g>
    <g id="ytick_5">
     <g id="line2d_15">
      <g>
       <use xlink:href="#mfdbcb00aa7" x="180" y="201.765452" style="stroke: #000000; stroke-width: 0.8"/>
      </g>
     </g>
     <g id="text_16">
      <!-- 0.8 -->
      <g transform="translate(157.096875 205.564671) scale(0.1 -0.1)">
       <use xlink:href="#DejaVuSans-30"/>
       <use xlink:href="#DejaVuSans-2e" x="63.623047"/>
       <use xlink:href="#DejaVuSans-38" x="95.410156"/>
      </g>
     </g>
    </g>
    <g id="ytick_6">
     <g id="line2d_16">
      <g>
       <use xlink:href="#mfdbcb00aa7" x="180" y="97.194144" style="stroke: #000000; stroke-width: 0.8"/>
      </g>
     </g>
     <g id="text_17">
      <!-- 1.0 -->
      <g transform="translate(157.096875 100.993362) scale(0.1 -0.1)">
       <use xlink:href="#DejaVuSans-31"/>
       <use xlink:href="#DejaVuSans-2e" x="63.623047"/>
       <use xlink:href="#DejaVuSans-30" x="95.410156"/>
      </g>
     </g>
    </g>
    <g id="text_18">
     <!-- cosine similarity -->
     <g transform="translate(151.017188 404.307031) rotate(-90) scale(0.1 -0.1)">
      <defs>
       <path id="DejaVuSans-63" d="M 3122 3366 
L 3122 2828 
Q 2878 2963 2633 3030 
Q 2388 3097 2138 3097 
Q 1578 3097 1268 2742 
Q 959 2388 959 1747 
Q 959 1106 1268 751 
Q 1578 397 2138 397 
Q 2388 397 2633 464 
Q 2878 531 3122 666 
L 3122 134 
Q 2881 22 2623 -34 
Q 2366 -91 2075 -91 
Q 1284 -91 818 406 
Q 353 903 353 1747 
Q 353 2603 823 3093 
Q 1294 3584 2113 3584 
Q 2378 3584 2631 3529 
Q 2884 3475 3122 3366 
z
" transform="scale(0.015625)"/>
       <path id="DejaVuSans-73" d="M 2834 3397 
L 2834 2853 
Q 2591 2978 2328 3040 
Q 2066 3103 1784 3103 
Q 1356 3103 1142 2972 
Q 928 2841 928 2578 
Q 928 2378 1081 2264 
Q 1234 2150 1697 2047 
L 1894 2003 
Q 2506 1872 2764 1633 
Q 3022 1394 3022 966 
Q 3022 478 2636 193 
Q 2250 -91 1575 -91 
Q 1294 -91 989 -36 
Q 684 19 347 128 
L 347 722 
Q 666 556 975 473 
Q 1284 391 1588 391 
Q 1994 391 2212 530 
Q 2431 669 2431 922 
Q 2431 1156 2273 1281 
Q 2116 1406 1581 1522 
L 1381 1569 
Q 847 1681 609 1914 
Q 372 2147 372 2553 
Q 372 3047 722 3315 
Q 1072 3584 1716 3584 
Q 2034 3584 2315 3537 
Q 2597 3491 2834 3397 
z
" transform="scale(0.015625)"/>
       <path id="DejaVuSans-20" transform="scale(0.015625)"/>
       <path id="DejaVuSans-6d" d="M 3328 2828 
Q 3544 3216 3844 3400 
Q 4144 3584 4550 3584 
Q 5097 3584 5394 3201 
Q 5691 2819 5691 2113 
L 5691 0 
L 5113 0 
L 5113 2094 
Q 5113 2597 4934 2840 
Q 4756 3084 4391 3084 
Q 3944 3084 3684 2787 
Q 3425 2491 3425 1978 
L 3425 0 
L 2847 0 
L 2847 2094 
Q 2847 2600 2669 2842 
Q 2491 3084 2119 3084 
Q 1678 3084 1418 2786 
Q 1159 2488 1159 1978 
L 1159 0 
L 581 0 
L 581 3500 
L 1159 3500 
L 1159 2956 
Q 1356 3278 1631 3431 
Q 1906 3584 2284 3584 
Q 2666 3584 2933 3390 
Q 3200 3197 3328 2828 
z
" transform="scale(0.015625)"/>
       <path id="DejaVuSans-6c" d="M 603 4863 
L 1178 4863 
L 1178 0 
L 603 0 
L 603 4863 
z
" transform="scale(0.015625)"/>
       <path id="DejaVuSans-79" d="M 2059 -325 
Q 1816 -950 1584 -1140 
Q 1353 -1331 966 -1331 
L 506 -1331 
L 506 -850 
L 844 -850 
Q 1081 -850 1212 -737 
Q 1344 -625 1503 -206 
L 1606 56 
L 191 3500 
L 800 3500 
L 1894 763 
L 2988 3500 
L 3597 3500 
L 2059 -325 
z
" transform="scale(0.015625)"/>
      </defs>
      <use xlink:href="#DejaVuSans-63"/>
      <use xlink:href="#DejaVuSans-6f" x="54.980469"/>
      <use xlink:href="#DejaVuSans-73" x="116.162109"/>
      <use xlink:href="#DejaVuSans-69" x="168.261719"/>
      <use xlink:href="#DejaVuSans-6e" x="196.044922"/>
      <use xlink:href="#DejaVuSans-65" x="259.423828"/>
      <use xlink:href="#DejaVuSans-20" x="320.947266"/>
      <use xlink:href="#DejaVuSans-73" x="352.734375"/>
      <use xlink:href="#DejaVuSans-69" x="404.833984"/>
      <use xlink:href="#DejaVuSans-6d" x="432.617188"/>
      <use xlink:href="#DejaVuSans-69" x="530.029297"/>
      <use xlink:href="#DejaVuSans-6c" x="557.8125"/>
      <use xlink:href="#DejaVuSans-61" x="585.595703"/>
      <use xlink:href="#DejaVuSans-72" x="646.875"/>
      <use xlink:href="#DejaVuSans-69" x="687.988281"/>
      <use xlink:href="#DejaVuSans-74" x="715.771484"/>
      <use xlink:href="#DejaVuSans-79" x="754.980469"/>
     </g>
    </g>
   </g>
   <g id="line2d_17">
    <path d="M 235.8 514.019294 
L 235.8 222.244223 
" clip-path="url(#p653ea96c70)" style="fill: none; stroke: #3f3f3f; stroke-width: 1.875; stroke-linecap: square"/>
   </g>
   <g id="line2d_18">
    <path d="M 235.8 393.973681 
L 235.8 307.040991 
" clip-path="url(#p653ea96c70)" style="fill: none; stroke: #3f3f3f; stroke-width: 5.625; stroke-linecap: square"/>
   </g>
   <g id="line2d_19">
    <path d="M 235.8 344.990656 
" clip-path="url(#p653ea96c70)" style="fill: none; stroke: #3f3f3f; stroke-width: 1.5; stroke-linecap: square"/>
    <defs>
     <path id="mc2ebc1dd8f" d="M 2.34375 0 
L -2.34375 -0 
" style="stroke: #ffffff; stroke-width: 1.125"/>
    </defs>
    <g clip-path="url(#p653ea96c70)">
     <use xlink:href="#mc2ebc1dd8f" x="235.8" y="344.990656" style="fill: #ffffff; stroke: #ffffff; stroke-width: 1.125"/>
    </g>
   </g>
   <g id="line2d_20">
    <path d="M 347.4 449.105131 
L 347.4 208.439704 
" clip-path="url(#p653ea96c70)" style="fill: none; stroke: #3f3f3f; stroke-width: 1.875; stroke-linecap: square"/>
   </g>
   <g id="line2d_21">
    <path d="M 347.4 357.897492 
L 347.4 295.751337 
" clip-path="url(#p653ea96c70)" style="fill: none; stroke: #3f3f3f; stroke-width: 5.625; stroke-linecap: square"/>
   </g>
   <g id="line2d_22">
    <path d="M 347.4 320.243097 
" clip-path="url(#p653ea96c70)" style="fill: none; stroke: #3f3f3f; stroke-width: 1.5; stroke-linecap: square"/>
    <g clip-path="url(#p653ea96c70)">
     <use xlink:href="#mc2ebc1dd8f" x="347.4" y="320.243097" style="fill: #ffffff; stroke: #ffffff; stroke-width: 1.125"/>
    </g>
   </g>
   <g id="line2d_23">
    <path d="M 459 417.607551 
L 459 183.707104 
" clip-path="url(#p653ea96c70)" style="fill: none; stroke: #3f3f3f; stroke-width: 1.875; stroke-linecap: square"/>
   </g>
   <g id="line2d_24">
    <path d="M 459 346.780117 
L 459 277.462673 
" clip-path="url(#p653ea96c70)" style="fill: none; stroke: #3f3f3f; stroke-width: 5.625; stroke-linecap: square"/>
   </g>
   <g id="line2d_25">
    <path d="M 459 315.444313 
" clip-path="url(#p653ea96c70)" style="fill: none; stroke: #3f3f3f; stroke-width: 1.5; stroke-linecap: square"/>
    <g clip-path="url(#p653ea96c70)">
     <use xlink:href="#mc2ebc1dd8f" x="459" y="315.444313" style="fill: #ffffff; stroke: #ffffff; stroke-width: 1.125"/>
    </g>
   </g>
   <g id="line2d_26">
    <path d="M 570.6 395.458222 
L 570.6 206.826808 
" clip-path="url(#p653ea96c70)" style="fill: none; stroke: #3f3f3f; stroke-width: 1.875; stroke-linecap: square"/>
   </g>
   <g id="line2d_27">
    <path d="M 570.6 323.335023 
L 570.6 260.729617 
" clip-path="url(#p653ea96c70)" style="fill: none; stroke: #3f3f3f; stroke-width: 5.625; stroke-linecap: square"/>
   </g>
   <g id="line2d_28">
    <path d="M 570.6 287.410049 
" clip-path="url(#p653ea96c70)" style="fill: none; stroke: #3f3f3f; stroke-width: 1.5; stroke-linecap: square"/>
    <g clip-path="url(#p653ea96c70)">
     <use xlink:href="#mc2ebc1dd8f" x="570.6" y="287.410049" style="fill: #ffffff; stroke: #ffffff; stroke-width: 1.125"/>
    </g>
   </g>
   <g id="line2d_29">
    <path d="M 682.2 396.167188 
L 682.2 203.125628 
" clip-path="url(#p653ea96c70)" style="fill: none; stroke: #3f3f3f; stroke-width: 1.875; stroke-linecap: square"/>
   </g>
   <g id="line2d_30">
    <path d="M 682.2 350.646625 
L 682.2 289.404417 
" clip-path="url(#p653ea96c70)" style="fill: none; stroke: #3f3f3f; stroke-width: 5.625; stroke-linecap: square"/>
   </g>
   <g id="line2d_31">
    <path d="M 682.2 312.544596 
" clip-path="url(#p653ea96c70)" style="fill: none; stroke: #3f3f3f; stroke-width: 1.5; stroke-linecap: square"/>
    <g clip-path="url(#p653ea96c70)">
     <use xlink:href="#mc2ebc1dd8f" x="682.2" y="312.544596" style="fill: #ffffff; stroke: #ffffff; stroke-width: 1.125"/>
    </g>
   </g>
   <g id="line2d_32">
    <path d="M 793.8 420.638815 
L 793.8 206.358527 
" clip-path="url(#p653ea96c70)" style="fill: none; stroke: #3f3f3f; stroke-width: 1.875; stroke-linecap: square"/>
   </g>
   <g id="line2d_33">
    <path d="M 793.8 327.556403 
L 793.8 250.895377 
" clip-path="url(#p653ea96c70)" style="fill: none; stroke: #3f3f3f; stroke-width: 5.625; stroke-linecap: square"/>
   </g>
   <g id="line2d_34">
    <path d="M 793.8 307.097134 
" clip-path="url(#p653ea96c70)" style="fill: none; stroke: #3f3f3f; stroke-width: 1.5; stroke-linecap: square"/>
    <g clip-path="url(#p653ea96c70)">
     <use xlink:href="#mc2ebc1dd8f" x="793.8" y="307.097134" style="fill: #ffffff; stroke: #ffffff; stroke-width: 1.125"/>
    </g>
   </g>
   <g id="line2d_35">
    <path d="M 905.4 444.697386 
L 905.4 178.116628 
" clip-path="url(#p653ea96c70)" style="fill: none; stroke: #3f3f3f; stroke-width: 1.875; stroke-linecap: square"/>
   </g>
   <g id="line2d_36">
    <path d="M 905.4 350.253412 
L 905.4 266.923542 
" clip-path="url(#p653ea96c70)" style="fill: none; stroke: #3f3f3f; stroke-width: 5.625; stroke-linecap: square"/>
   </g>
   <g id="line2d_37">
    <path d="M 905.4 304.763227 
" clip-path="url(#p653ea96c70)" style="fill: none; stroke: #3f3f3f; stroke-width: 1.5; stroke-linecap: square"/>
    <g clip-path="url(#p653ea96c70)">
     <use xlink:href="#mc2ebc1dd8f" x="905.4" y="304.763227" style="fill: #ffffff; stroke: #ffffff; stroke-width: 1.125"/>
    </g>
   </g>
   <g id="line2d_38">
    <path d="M 1017 438.024966 
L 1017 238.191376 
" clip-path="url(#p653ea96c70)" style="fill: none; stroke: #3f3f3f; stroke-width: 1.875; stroke-linecap: square"/>
   </g>
   <g id="line2d_39">
    <path d="M 1017 362.850366 
L 1017 279.591065 
" clip-path="url(#p653ea96c70)" style="fill: none; stroke: #3f3f3f; stroke-width: 5.625; stroke-linecap: square"/>
   </g>
   <g id="line2d_40">
    <path d="M 1017 314.217936 
" clip-path="url(#p653ea96c70)" style="fill: none; stroke: #3f3f3f; stroke-width: 1.5; stroke-linecap: square"/>
    <g clip-path="url(#p653ea96c70)">
     <use xlink:href="#mc2ebc1dd8f" x="1017" y="314.217936" style="fill: #ffffff; stroke: #ffffff; stroke-width: 1.125"/>
    </g>
   </g>
   <g id="line2d_41">
    <path d="M 1128.6 521.972528 
L 1128.6 239.158229 
" clip-path="url(#p653ea96c70)" style="fill: none; stroke: #3f3f3f; stroke-width: 1.875; stroke-linecap: square"/>
   </g>
   <g id="line2d_42">
    <path d="M 1128.6 421.265015 
L 1128.6 329.358633 
" clip-path="url(#p653ea96c70)" style="fill: none; stroke: #3f3f3f; stroke-width: 5.625; stroke-linecap: square"/>
   </g>
   <g id="line2d_43">
    <path d="M 1128.6 370.026146 
" clip-path="url(#p653ea96c70)" style="fill: none; stroke: #3f3f3f; stroke-width: 1.5; stroke-linecap: square"/>
    <g clip-path="url(#p653ea96c70)">
     <use xlink:href="#mc2ebc1dd8f" x="1128.6" y="370.026146" style="fill: #ffffff; stroke: #ffffff; stroke-width: 1.125"/>
    </g>
   </g>
   <g id="line2d_44">
    <path d="M 1240.2 406.182705 
L 1240.2 225.847078 
" clip-path="url(#p653ea96c70)" style="fill: none; stroke: #3f3f3f; stroke-width: 1.875; stroke-linecap: square"/>
   </g>
   <g id="line2d_45">
    <path d="M 1240.2 369.154237 
L 1240.2 277.262658 
" clip-path="url(#p653ea96c70)" style="fill: none; stroke: #3f3f3f; stroke-width: 5.625; stroke-linecap: square"/>
   </g>
   <g id="line2d_46">
    <path d="M 1240.2 319.567431 
" clip-path="url(#p653ea96c70)" style="fill: none; stroke: #3f3f3f; stroke-width: 1.5; stroke-linecap: square"/>
    <g clip-path="url(#p653ea96c70)">
     <use xlink:href="#mc2ebc1dd8f" x="1240.2" y="319.567431" style="fill: #ffffff; stroke: #ffffff; stroke-width: 1.125"/>
    </g>
   </g>
   <g id="patch_3">
    <path d="M 180 640.8 
L 180 86.4 
" style="fill: none; stroke: #000000; stroke-width: 0.8; stroke-linejoin: miter; stroke-linecap: square"/>
   </g>
   <g id="patch_4">
    <path d="M 1296 640.8 
L 1296 86.4 
" style="fill: none; stroke: #000000; stroke-width: 0.8; stroke-linejoin: miter; stroke-linecap: square"/>
   </g>
   <g id="patch_5">
    <path d="M 180 640.8 
L 1296 640.8 
" style="fill: none; stroke: #000000; stroke-width: 0.8; stroke-linejoin: miter; stroke-linecap: square"/>
   </g>
   <g id="patch_6">
    <path d="M 180 86.4 
L 1296 86.4 
" style="fill: none; stroke: #000000; stroke-width: 0.8; stroke-linejoin: miter; stroke-linecap: square"/>
   </g>
   <g id="text_19">
    <!-- cosine similarity of max_mem_5_fs_glit (progressive), by iteration -->
    <g transform="translate(540.728438 80.4) scale(0.12 -0.12)">
     <defs>
      <path id="DejaVuSans-66" d="M 2375 4863 
L 2375 4384 
L 1825 4384 
Q 1516 4384 1395 4259 
Q 1275 4134 1275 3809 
L 1275 3500 
L 2222 3500 
L 2222 3053 
L 1275 3053 
L 1275 0 
L 697 0 
L 697 3053 
L 147 3053 
L 147 3500 
L 697 3500 
L 697 3744 
Q 697 4328 969 4595 
Q 1241 4863 1831 4863 
L 2375 4863 
z
" transform="scale(0.015625)"/>
      <path id="DejaVuSans-78" d="M 3513 3500 
L 2247 1797 
L 3578 0 
L 2900 0 
L 1881 1375 
L 863 0 
L 184 0 
L 1544 1831 
L 300 3500 
L 978 3500 
L 1906 2253 
L 2834 3500 
L 3513 3500 
z
" transform="scale(0.015625)"/>
      <path id="DejaVuSans-5f" d="M 3263 -1063 
L 3263 -1509 
L -63 -1509 
L -63 -1063 
L 3263 -1063 
z
" transform="scale(0.015625)"/>
      <path id="DejaVuSans-67" d="M 2906 1791 
Q 2906 2416 2648 2759 
Q 2391 3103 1925 3103 
Q 1463 3103 1205 2759 
Q 947 2416 947 1791 
Q 947 1169 1205 825 
Q 1463 481 1925 481 
Q 2391 481 2648 825 
Q 2906 1169 2906 1791 
z
M 3481 434 
Q 3481 -459 3084 -895 
Q 2688 -1331 1869 -1331 
Q 1566 -1331 1297 -1286 
Q 1028 -1241 775 -1147 
L 775 -588 
Q 1028 -725 1275 -790 
Q 1522 -856 1778 -856 
Q 2344 -856 2625 -561 
Q 2906 -266 2906 331 
L 2906 616 
Q 2728 306 2450 153 
Q 2172 0 1784 0 
Q 1141 0 747 490 
Q 353 981 353 1791 
Q 353 2603 747 3093 
Q 1141 3584 1784 3584 
Q 2172 3584 2450 3431 
Q 2728 3278 2906 2969 
L 2906 3500 
L 3481 3500 
L 3481 434 
z
" transform="scale(0.015625)"/>
      <path id="DejaVuSans-28" d="M 1984 4856 
Q 1566 4138 1362 3434 
Q 1159 2731 1159 2009 
Q 1159 1288 1364 580 
Q 1569 -128 1984 -844 
L 1484 -844 
Q 1016 -109 783 600 
Q 550 1309 550 2009 
Q 550 2706 781 3412 
Q 1013 4119 1484 4856 
L 1984 4856 
z
" transform="scale(0.015625)"/>
      <path id="DejaVuSans-70" d="M 1159 525 
L 1159 -1331 
L 581 -1331 
L 581 3500 
L 1159 3500 
L 1159 2969 
Q 1341 3281 1617 3432 
Q 1894 3584 2278 3584 
Q 2916 3584 3314 3078 
Q 3713 2572 3713 1747 
Q 3713 922 3314 415 
Q 2916 -91 2278 -91 
Q 1894 -91 1617 61 
Q 1341 213 1159 525 
z
M 3116 1747 
Q 3116 2381 2855 2742 
Q 2594 3103 2138 3103 
Q 1681 3103 1420 2742 
Q 1159 2381 1159 1747 
Q 1159 1113 1420 752 
Q 1681 391 2138 391 
Q 2594 391 2855 752 
Q 3116 1113 3116 1747 
z
" transform="scale(0.015625)"/>
      <path id="DejaVuSans-76" d="M 191 3500 
L 800 3500 
L 1894 563 
L 2988 3500 
L 3597 3500 
L 2284 0 
L 1503 0 
L 191 3500 
z
" transform="scale(0.015625)"/>
      <path id="DejaVuSans-29" d="M 513 4856 
L 1013 4856 
Q 1481 4119 1714 3412 
Q 1947 2706 1947 2009 
Q 1947 1309 1714 600 
Q 1481 -109 1013 -844 
L 513 -844 
Q 928 -128 1133 580 
Q 1338 1288 1338 2009 
Q 1338 2731 1133 3434 
Q 928 4138 513 4856 
z
" transform="scale(0.015625)"/>
      <path id="DejaVuSans-2c" d="M 750 794 
L 1409 794 
L 1409 256 
L 897 -744 
L 494 -744 
L 750 256 
L 750 794 
z
" transform="scale(0.015625)"/>
      <path id="DejaVuSans-62" d="M 3116 1747 
Q 3116 2381 2855 2742 
Q 2594 3103 2138 3103 
Q 1681 3103 1420 2742 
Q 1159 2381 1159 1747 
Q 1159 1113 1420 752 
Q 1681 391 2138 391 
Q 2594 391 2855 752 
Q 3116 1113 3116 1747 
z
M 1159 2969 
Q 1341 3281 1617 3432 
Q 1894 3584 2278 3584 
Q 2916 3584 3314 3078 
Q 3713 2572 3713 1747 
Q 3713 922 3314 415 
Q 2916 -91 2278 -91 
Q 1894 -91 1617 61 
Q 1341 213 1159 525 
L 1159 0 
L 581 0 
L 581 4863 
L 1159 4863 
L 1159 2969 
z
" transform="scale(0.015625)"/>
     </defs>
     <use xlink:href="#DejaVuSans-63"/>
     <use xlink:href="#DejaVuSans-6f" x="54.980469"/>
     <use xlink:href="#DejaVuSans-73" x="116.162109"/>
     <use xlink:href="#DejaVuSans-69" x="168.261719"/>
     <use xlink:href="#DejaVuSans-6e" x="196.044922"/>
     <use xlink:href="#DejaVuSans-65" x="259.423828"/>
     <use xlink:href="#DejaVuSans-20" x="320.947266"/>
     <use xlink:href="#DejaVuSans-73" x="352.734375"/>
     <use xlink:href="#DejaVuSans-69" x="404.833984"/>
     <use xlink:href="#DejaVuSans-6d" x="432.617188"/>
     <use xlink:href="#DejaVuSans-69" x="530.029297"/>
     <use xlink:href="#DejaVuSans-6c" x="557.8125"/>
     <use xlink:href="#DejaVuSans-61" x="585.595703"/>
     <use xlink:href="#DejaVuSans-72" x="646.875"/>
     <use xlink:href="#DejaVuSans-69" x="687.988281"/>
     <use xlink:href="#DejaVuSans-74" x="715.771484"/>
     <use xlink:href="#DejaVuSans-79" x="754.980469"/>
     <use xlink:href="#DejaVuSans-20" x="814.160156"/>
     <use xlink:href="#DejaVuSans-6f" x="845.947266"/>
     <use xlink:href="#DejaVuSans-66" x="907.128906"/>
     <use xlink:href="#DejaVuSans-20" x="942.333984"/>
     <use xlink:href="#DejaVuSans-6d" x="974.121094"/>
     <use xlink:href="#DejaVuSans-61" x="1071.533203"/>
     <use xlink:href="#DejaVuSans-78" x="1132.8125"/>
     <use xlink:href="#DejaVuSans-5f" x="1191.992188"/>
     <use xlink:href="#DejaVuSans-6d" x="1241.992188"/>
     <use xlink:href="#DejaVuSans-65" x="1339.404297"/>
     <use xlink:href="#DejaVuSans-6d" x="1400.927734"/>
     <use xlink:href="#DejaVuSans-5f" x="1498.339844"/>
     <use xlink:href="#DejaVuSans-35" x="1548.339844"/>
     <use xlink:href="#DejaVuSans-5f" x="1611.962891"/>
     <use xlink:href="#DejaVuSans-66" x="1661.962891"/>
     <use xlink:href="#DejaVuSans-73" x="1697.167969"/>
     <use xlink:href="#DejaVuSans-5f" x="1749.267578"/>
     <use xlink:href="#DejaVuSans-67" x="1799.267578"/>
     <use xlink:href="#DejaVuSans-6c" x="1862.744141"/>
     <use xlink:href="#DejaVuSans-69" x="1890.527344"/>
     <use xlink:href="#DejaVuSans-74" x="1918.310547"/>
     <use xlink:href="#DejaVuSans-20" x="1957.519531"/>
     <use xlink:href="#DejaVuSans-28" x="1989.306641"/>
     <use xlink:href="#DejaVuSans-70" x="2028.320312"/>
     <use xlink:href="#DejaVuSans-72" x="2091.796875"/>
     <use xlink:href="#DejaVuSans-6f" x="2130.660156"/>
     <use xlink:href="#DejaVuSans-67" x="2191.841797"/>
     <use xlink:href="#DejaVuSans-72" x="2255.318359"/>
     <use xlink:href="#DejaVuSans-65" x="2294.181641"/>
     <use xlink:href="#DejaVuSans-73" x="2355.705078"/>
     <use xlink:href="#DejaVuSans-73" x="2407.804688"/>
     <use xlink:href="#DejaVuSans-69" x="2459.904297"/>
     <use xlink:href="#DejaVuSans-76" x="2487.6875"/>
     <use xlink:href="#DejaVuSans-65" x="2546.867188"/>
     <use xlink:href="#DejaVuSans-29" x="2608.390625"/>
     <use xlink:href="#DejaVuSans-2c" x="2647.404297"/>
     <use xlink:href="#DejaVuSans-20" x="2679.191406"/>
     <use xlink:href="#DejaVuSans-62" x="2710.978516"/>
     <use xlink:href="#DejaVuSans-79" x="2774.455078"/>
     <use xlink:href="#DejaVuSans-20" x="2833.634766"/>
     <use xlink:href="#DejaVuSans-69" x="2865.421875"/>
     <use xlink:href="#DejaVuSans-74" x="2893.205078"/>
     <use xlink:href="#DejaVuSans-65" x="2932.414062"/>
     <use xlink:href="#DejaVuSans-72" x="2993.9375"/>
     <use xlink:href="#DejaVuSans-61" x="3035.050781"/>
     <use xlink:href="#DejaVuSans-74" x="3096.330078"/>
     <use xlink:href="#DejaVuSans-69" x="3135.539062"/>
     <use xlink:href="#DejaVuSans-6f" x="3163.322266"/>
     <use xlink:href="#DejaVuSans-6e" x="3224.503906"/>
    </g>
   </g>
  </g>
 </g>
 <defs>
  <clipPath id="p653ea96c70">
   <rect x="180" y="86.4" width="1116" height="554.4"/>
  </clipPath>
 </defs>
</svg>
