<?xml version="1.0" encoding="utf-8" standalone="no"?>
<!DOCTYPE svg PUBLIC "-//W3C//DTD SVG 1.1//EN"
  "http://www.w3.org/Graphics/SVG/1.1/DTD/svg11.dtd">
<svg xmlns:xlink="http://www.w3.org/1999/xlink" width="1440pt" height="720pt" viewBox="0 0 1440 720" xmlns="http://www.w3.org/2000/svg" version="1.1">
 <metadata>
  <rdf:RDF xmlns:dc="http://purl.org/dc/elements/1.1/" xmlns:cc="http://creativecommons.org/ns#" xmlns:rdf="http://www.w3.org/1999/02/22-rdf-syntax-ns#">
   <cc:Work>
    <dc:type rdf:resource="http://purl.org/dc/dcmitype/StillImage"/>
    <dc:date>2024-06-07T04:50:26.979023</dc:date>
    <dc:format>image/svg+xml</dc:format>
    <dc:creator>
     <cc:Agent>
      <dc:title>Matplotlib v3.8.0, https://matplotlib.org/</dc:title>
     </cc:Agent>
    </dc:creator>
   </cc:Work>
  </rdf:RDF>
 </metadata>
 <defs>
  <style type="text/css">*{stroke-linejoin: round; stroke-linecap: butt}</style>
 </defs>
 <g id="figure_1">
  <g id="patch_1">
   <path d="M 0 720 
L 1440 720 
L 1440 0 
L 0 0 
z
" style="fill: #ffffff"/>
  </g>
  <g id="axes_1">
   <g id="patch_2">
    <path d="M 180 640.8 
L 1296 640.8 
L 1296 86.4 
L 180 86.4 
z
" style="fill: #ffffff"/>
   </g>
   <g id="PolyCollection_1">
    <defs>
     <path id="m27ea493931" d="M 235.884513 -136.782487 
L 235.715487 -136.782487 
L 235.636071 -141.440751 
L 235.50218 -146.099016 
L 235.291355 -150.75728 
L 234.979986 -155.415544 
L 234.546529 -160.073809 
L 233.974529 -164.732073 
L 233.254341 -169.390337 
L 232.382699 -174.048602 
L 231.359947 -178.706866 
L 230.185524 -183.36513 
L 228.852984 -188.023395 
L 227.34624 -192.681659 
L 225.638645 -197.339923 
L 223.696202 -201.998188 
L 221.4856 -206.656452 
L 218.9868 -211.314716 
L 216.208146 -215.972981 
L 213.199562 -220.631245 
L 210.057765 -225.289509 
L 206.918396 -229.947774 
L 203.934377 -234.606038 
L 201.24585 -239.264302 
L 198.951313 -243.922567 
L 197.089474 -248.580831 
L 195.637263 -253.239095 
L 194.523809 -257.89736 
L 193.655813 -262.555624 
L 192.947347 -267.213888 
L 192.346185 -271.872153 
L 191.848733 -276.530417 
L 191.497576 -281.188681 
L 191.360549 -285.846946 
L 191.497759 -290.50521 
L 191.929561 -295.163474 
L 192.619816 -299.821739 
L 193.482966 -304.480003 
L 194.412963 -309.138267 
L 195.322298 -313.796532 
L 196.175116 -318.454796 
L 197.000981 -323.11306 
L 197.883616 -327.771325 
L 198.928333 -332.429589 
L 200.219726 -337.087853 
L 201.785235 -341.746118 
L 203.578772 -346.404382 
L 205.491636 -351.062646 
L 207.387333 -355.720911 
L 209.1469 -360.379175 
L 210.706789 -365.037439 
L 212.074688 -369.695704 
L 213.318575 -374.353968 
L 214.535556 -379.012232 
L 215.814379 -383.670497 
L 217.20597 -388.328761 
L 218.710954 -392.987025 
L 220.28544 -397.64529 
L 221.859897 -402.303554 
L 223.362717 -406.961818 
L 224.740171 -411.620083 
L 225.966973 -416.278347 
L 227.045564 -420.936611 
L 227.996303 -425.594876 
L 228.843945 -430.25314 
L 229.606756 -434.911404 
L 230.292632 -439.569669 
L 230.902385 -444.227933 
L 231.43637 -448.886197 
L 231.899365 -453.544462 
L 232.300876 -458.202726 
L 232.651759 -462.86099 
L 232.960428 -467.519255 
L 233.231443 -472.177519 
L 233.466948 -476.835783 
L 233.669377 -481.494048 
L 233.843374 -486.152312 
L 233.995929 -490.810576 
L 234.135095 -495.468841 
L 234.268374 -500.127105 
L 234.401557 -504.785369 
L 234.538098 -509.443634 
L 234.678628 -514.101898 
L 234.820434 -518.760162 
L 234.957251 -523.418427 
L 235.079998 -528.076691 
L 235.178787 -532.734955 
L 235.245939 -537.39322 
L 235.279115 -542.051484 
L 235.28336 -546.709748 
L 235.270953 -551.368013 
L 235.258539 -556.026277 
L 235.262201 -560.684541 
L 235.292302 -565.342805 
L 235.350328 -570.00107 
L 235.42916 -574.659334 
L 235.516494 -579.317598 
L 235.599599 -583.975863 
L 235.66923 -588.634127 
L 235.721304 -593.292391 
L 235.756357 -597.950656 
L 235.843643 -597.950656 
L 235.843643 -597.950656 
L 235.878696 -593.292391 
L 235.93077 -588.634127 
L 236.000401 -583.975863 
L 236.083506 -579.317598 
L 236.17084 -574.659334 
L 236.249672 -570.00107 
L 236.307698 -565.342805 
L 236.337799 -560.684541 
L 236.341461 -556.026277 
L 236.329047 -551.368013 
L 236.31664 -546.709748 
L 236.320885 -542.051484 
L 236.354061 -537.39322 
L 236.421213 -532.734955 
L 236.520002 -528.076691 
L 236.642749 -523.418427 
L 236.779566 -518.760162 
L 236.921372 -514.101898 
L 237.061902 -509.443634 
L 237.198443 -504.785369 
L 237.331626 -500.127105 
L 237.464905 -495.468841 
L 237.604071 -490.810576 
L 237.756626 -486.152312 
L 237.930623 -481.494048 
L 238.133052 -476.835783 
L 238.368557 -472.177519 
L 238.639572 -467.519255 
L 238.948241 -462.86099 
L 239.299124 -458.202726 
L 239.700635 -453.544462 
L 240.16363 -448.886197 
L 240.697615 -444.227933 
L 241.307368 -439.569669 
L 241.993244 -434.911404 
L 242.756055 -430.25314 
L 243.603697 -425.594876 
L 244.554436 -420.936611 
L 245.633027 -416.278347 
L 246.859829 -411.620083 
L 248.237283 -406.961818 
L 249.740103 -402.303554 
L 251.31456 -397.64529 
L 252.889046 -392.987025 
L 254.39403 -388.328761 
L 255.785621 -383.670497 
L 257.064444 -379.012232 
L 258.281425 -374.353968 
L 259.525312 -369.695704 
L 260.893211 -365.037439 
L 262.4531 -360.379175 
L 264.212667 -355.720911 
L 266.108364 -351.062646 
L 268.021228 -346.404382 
L 269.814765 -341.746118 
L 271.380274 -337.087853 
L 272.671667 -332.429589 
L 273.716384 -327.771325 
L 274.599019 -323.11306 
L 275.424884 -318.454796 
L 276.277702 -313.796532 
L 277.187037 -309.138267 
L 278.117034 -304.480003 
L 278.980184 -299.821739 
L 279.670439 -295.163474 
L 280.102241 -290.50521 
L 280.239451 -285.846946 
L 280.102424 -281.188681 
L 279.751267 -276.530417 
L 279.253815 -271.872153 
L 278.652653 -267.213888 
L 277.944187 -262.555624 
L 277.076191 -257.89736 
L 275.962737 -253.239095 
L 274.510526 -248.580831 
L 272.648687 -243.922567 
L 270.35415 -239.264302 
L 267.665623 -234.606038 
L 264.681604 -229.947774 
L 261.542235 -225.289509 
L 258.400438 -220.631245 
L 255.391854 -215.972981 
L 252.6132 -211.314716 
L 250.1144 -206.656452 
L 247.903798 -201.998188 
L 245.961355 -197.339923 
L 244.25376 -192.681659 
L 242.747016 -188.023395 
L 241.414476 -183.36513 
L 240.240053 -178.706866 
L 239.217301 -174.048602 
L 238.345659 -169.390337 
L 237.625471 -164.732073 
L 237.053471 -160.073809 
L 236.620014 -155.415544 
L 236.308645 -150.75728 
L 236.09782 -146.099016 
L 235.963929 -141.440751 
L 235.884513 -136.782487 
z
" style="stroke: #3f3f3f; stroke-width: 1.25"/>
    </defs>
    <g clip-path="url(#p49f847fdf9)">
     <use xlink:href="#m27ea493931" x="0" y="720" style="fill: #3274a1; stroke: #3f3f3f; stroke-width: 1.25"/>
    </g>
   </g>
   <g id="PolyCollection_2">
    <defs>
     <path id="maabcb8bba5" d="M 347.423127 -105.030353 
L 347.376873 -105.030353 
L 347.358523 -110.01254 
L 347.331793 -114.994727 
L 347.296309 -119.976914 
L 347.252196 -124.959102 
L 347.19799 -129.941289 
L 347.127313 -134.923476 
L 347.025944 -139.905663 
L 346.871641 -144.887851 
L 346.638096 -149.870038 
L 346.30187 -154.852225 
L 345.84853 -159.834413 
L 345.273564 -164.8166 
L 344.576117 -169.798787 
L 343.748001 -174.780974 
L 342.764096 -179.763162 
L 341.580778 -184.745349 
L 340.145572 -189.727536 
L 338.415478 -194.709723 
L 336.376256 -199.691911 
L 334.053446 -204.674098 
L 331.509385 -209.656285 
L 328.827534 -214.638473 
L 326.091906 -219.62066 
L 323.371594 -224.602847 
L 320.717358 -229.585034 
L 318.170716 -234.567222 
L 315.778675 -239.549409 
L 313.602157 -244.531596 
L 311.707288 -249.513783 
L 310.138614 -254.495971 
L 308.888208 -259.478158 
L 307.883304 -264.460345 
L 307.007654 -269.442533 
L 306.150625 -274.42472 
L 305.258617 -279.406907 
L 304.360996 -284.389094 
L 303.558806 -289.371282 
L 302.985464 -294.353469 
L 302.76 -299.335656 
L 302.951104 -304.317843 
L 303.561371 -309.300031 
L 304.533303 -314.282218 
L 305.77369 -319.264405 
L 307.188212 -324.246593 
L 308.712673 -329.22878 
L 310.325639 -334.210967 
L 312.034638 -339.193154 
L 313.843416 -344.175342 
L 315.721107 -349.157529 
L 317.594415 -354.139716 
L 319.369316 -359.121903 
L 320.970077 -364.104091 
L 322.373827 -369.086278 
L 323.623327 -374.068465 
L 324.81323 -379.050653 
L 326.057364 -384.03284 
L 327.450989 -389.015027 
L 329.041788 -393.997214 
L 330.818083 -398.979402 
L 332.715314 -403.961589 
L 334.635621 -408.943776 
L 336.472502 -413.925963 
L 338.133093 -418.908151 
L 339.553171 -423.890338 
L 340.703196 -428.872525 
L 341.586801 -433.854713 
L 342.234881 -438.8369 
L 342.698057 -443.819087 
L 343.038209 -448.801274 
L 343.318281 -453.783462 
L 343.59039 -458.765649 
L 343.884946 -463.747836 
L 344.20547 -468.730023 
L 344.532683 -473.712211 
L 344.837295 -478.694398 
L 345.095982 -483.676585 
L 345.302826 -488.658773 
L 345.47075 -493.64096 
L 345.623298 -498.623147 
L 345.782389 -503.605334 
L 345.959053 -508.587522 
L 346.150939 -513.569709 
L 346.345776 -518.551896 
L 346.527195 -523.534083 
L 346.679805 -528.516271 
L 346.792483 -533.498458 
L 346.860463 -538.480645 
L 346.886869 -543.462833 
L 346.883263 -548.44502 
L 346.867973 -553.427207 
L 346.861497 -558.409394 
L 346.880069 -563.391582 
L 346.93022 -568.373769 
L 347.007169 -573.355956 
L 347.0979 -578.338144 
L 347.187099 -583.320331 
L 347.262794 -588.302518 
L 347.319245 -593.284705 
L 347.35663 -598.266893 
L 347.44337 -598.266893 
L 347.44337 -598.266893 
L 347.480755 -593.284705 
L 347.537206 -588.302518 
L 347.612901 -583.320331 
L 347.7021 -578.338144 
L 347.792831 -573.355956 
L 347.86978 -568.373769 
L 347.919931 -563.391582 
L 347.938503 -558.409394 
L 347.932027 -553.427207 
L 347.916737 -548.44502 
L 347.913131 -543.462833 
L 347.939537 -538.480645 
L 348.007517 -533.498458 
L 348.120195 -528.516271 
L 348.272805 -523.534083 
L 348.454224 -518.551896 
L 348.649061 -513.569709 
L 348.840947 -508.587522 
L 349.017611 -503.605334 
L 349.176702 -498.623147 
L 349.32925 -493.64096 
L 349.497174 -488.658773 
L 349.704018 -483.676585 
L 349.962705 -478.694398 
L 350.267317 -473.712211 
L 350.59453 -468.730023 
L 350.915054 -463.747836 
L 351.20961 -458.765649 
L 351.481719 -453.783462 
L 351.761791 -448.801274 
L 352.101943 -443.819087 
L 352.565119 -438.8369 
L 353.213199 -433.854713 
L 354.096804 -428.872525 
L 355.246829 -423.890338 
L 356.666907 -418.908151 
L 358.327498 -413.925963 
L 360.164379 -408.943776 
L 362.084686 -403.961589 
L 363.981917 -398.979402 
L 365.758212 -393.997214 
L 367.349011 -389.015027 
L 368.742636 -384.03284 
L 369.98677 -379.050653 
L 371.176673 -374.068465 
L 372.426173 -369.086278 
L 373.829923 -364.104091 
L 375.430684 -359.121903 
L 377.205585 -354.139716 
L 379.078893 -349.157529 
L 380.956584 -344.175342 
L 382.765362 -339.193154 
L 384.474361 -334.210967 
L 386.087327 -329.22878 
L 387.611788 -324.246593 
L 389.02631 -319.264405 
L 390.266697 -314.282218 
L 391.238629 -309.300031 
L 391.848896 -304.317843 
L 392.04 -299.335656 
L 391.814536 -294.353469 
L 391.241194 -289.371282 
L 390.439004 -284.389094 
L 389.541383 -279.406907 
L 388.649375 -274.42472 
L 387.792346 -269.442533 
L 386.916696 -264.460345 
L 385.911792 -259.478158 
L 384.661386 -254.495971 
L 383.092712 -249.513783 
L 381.197843 -244.531596 
L 379.021325 -239.549409 
L 376.629284 -234.567222 
L 374.082642 -229.585034 
L 371.428406 -224.602847 
L 368.708094 -219.62066 
L 365.972466 -214.638473 
L 363.290615 -209.656285 
L 360.746554 -204.674098 
L 358.423744 -199.691911 
L 356.384522 -194.709723 
L 354.654428 -189.727536 
L 353.219222 -184.745349 
L 352.035904 -179.763162 
L 351.051999 -174.780974 
L 350.223883 -169.798787 
L 349.526436 -164.8166 
L 348.95147 -159.834413 
L 348.49813 -154.852225 
L 348.161904 -149.870038 
L 347.928359 -144.887851 
L 347.774056 -139.905663 
L 347.672687 -134.923476 
L 347.60201 -129.941289 
L 347.547804 -124.959102 
L 347.503691 -119.976914 
L 347.468207 -114.994727 
L 347.441477 -110.01254 
L 347.423127 -105.030353 
z
" style="stroke: #3f3f3f; stroke-width: 1.25"/>
    </defs>
    <g clip-path="url(#p49f847fdf9)">
     <use xlink:href="#maabcb8bba5" x="0" y="720" style="fill: #3274a1; stroke: #3f3f3f; stroke-width: 1.25"/>
    </g>
   </g>
   <g id="PolyCollection_3">
    <defs>
     <path id="m6aa1f0ee3a" d="M 459.024307 -104.958654 
L 458.975693 -104.958654 
L 458.955773 -109.909567 
L 458.925729 -114.860481 
L 458.88406 -119.811395 
L 458.830018 -124.762309 
L 458.762659 -129.713223 
L 458.678935 -134.664137 
L 458.571494 -139.615051 
L 458.427084 -144.565965 
L 458.226042 -149.516878 
L 457.942619 -154.467792 
L 457.545608 -159.418706 
L 456.999195 -164.36962 
L 456.264829 -169.320534 
L 455.305157 -174.271448 
L 454.090515 -179.222362 
L 452.607143 -184.173276 
L 450.864869 -189.124189 
L 448.900774 -194.075103 
L 446.775052 -199.026017 
L 444.557353 -203.976931 
L 442.306767 -208.927845 
L 440.054133 -213.878759 
L 437.797109 -218.829673 
L 435.513443 -223.780587 
L 433.188213 -228.7315 
L 430.842351 -233.682414 
L 428.547233 -238.633328 
L 426.414883 -243.584242 
L 424.56339 -248.535156 
L 423.069716 -253.48607 
L 421.931856 -258.436984 
L 421.062227 -263.387898 
L 420.320229 -268.338811 
L 419.570154 -273.289725 
L 418.735409 -278.240639 
L 417.822679 -283.191553 
L 416.908187 -288.142467 
L 416.098899 -293.093381 
L 415.49161 -298.044295 
L 415.149134 -302.995209 
L 415.100738 -307.946122 
L 415.360309 -312.897036 
L 415.94647 -317.84795 
L 416.888334 -322.798864 
L 418.210189 -327.749778 
L 419.902962 -332.700692 
L 421.900391 -337.651606 
L 424.076617 -342.60252 
L 426.270829 -347.553433 
L 428.330695 -352.504347 
L 430.156997 -357.455261 
L 431.730786 -362.406175 
L 433.111798 -367.357089 
L 434.4096 -372.308003 
L 435.740896 -377.258917 
L 437.191248 -382.209831 
L 438.794735 -387.160744 
L 440.534541 -392.111658 
L 442.357848 -397.062572 
L 444.194875 -402.013486 
L 445.974412 -406.9644 
L 447.633403 -411.915314 
L 449.122141 -416.866228 
L 450.407616 -421.817142 
L 451.476176 -426.768055 
L 452.334741 -431.718969 
L 453.009163 -436.669883 
L 453.539116 -441.620797 
L 453.970482 -446.571711 
L 454.347115 -451.522625 
L 454.703894 -456.473539 
L 455.06233 -461.424452 
L 455.429409 -466.375366 
L 455.799864 -471.32628 
L 456.161309 -476.277194 
L 456.500634 -481.228108 
L 456.809262 -486.179022 
L 457.085187 -491.129936 
L 457.331354 -496.08085 
L 457.551946 -501.031763 
L 457.749144 -505.982677 
L 457.922178 -510.933591 
L 458.068749 -515.884505 
L 458.187372 -520.835419 
L 458.278965 -525.786333 
L 458.346919 -530.737247 
L 458.396148 -535.688161 
L 458.432205 -540.639074 
L 458.461127 -545.589988 
L 458.489619 -550.540902 
L 458.524558 -555.491816 
L 458.571285 -560.44273 
L 458.631403 -565.393644 
L 458.701639 -570.344558 
L 458.77483 -575.295472 
L 458.842672 -580.246385 
L 458.898724 -585.197299 
L 458.940135 -590.148213 
L 458.96758 -595.099127 
L 459.03242 -595.099127 
L 459.03242 -595.099127 
L 459.059865 -590.148213 
L 459.101276 -585.197299 
L 459.157328 -580.246385 
L 459.22517 -575.295472 
L 459.298361 -570.344558 
L 459.368597 -565.393644 
L 459.428715 -560.44273 
L 459.475442 -555.491816 
L 459.510381 -550.540902 
L 459.538873 -545.589988 
L 459.567795 -540.639074 
L 459.603852 -535.688161 
L 459.653081 -530.737247 
L 459.721035 -525.786333 
L 459.812628 -520.835419 
L 459.931251 -515.884505 
L 460.077822 -510.933591 
L 460.250856 -505.982677 
L 460.448054 -501.031763 
L 460.668646 -496.08085 
L 460.914813 -491.129936 
L 461.190738 -486.179022 
L 461.499366 -481.228108 
L 461.838691 -476.277194 
L 462.200136 -471.32628 
L 462.570591 -466.375366 
L 462.93767 -461.424452 
L 463.296106 -456.473539 
L 463.652885 -451.522625 
L 464.029518 -446.571711 
L 464.460884 -441.620797 
L 464.990837 -436.669883 
L 465.665259 -431.718969 
L 466.523824 -426.768055 
L 467.592384 -421.817142 
L 468.877859 -416.866228 
L 470.366597 -411.915314 
L 472.025588 -406.9644 
L 473.805125 -402.013486 
L 475.642152 -397.062572 
L 477.465459 -392.111658 
L 479.205265 -387.160744 
L 480.808752 -382.209831 
L 482.259104 -377.258917 
L 483.5904 -372.308003 
L 484.888202 -367.357089 
L 486.269214 -362.406175 
L 487.843003 -357.455261 
L 489.669305 -352.504347 
L 491.729171 -347.553433 
L 493.923383 -342.60252 
L 496.099609 -337.651606 
L 498.097038 -332.700692 
L 499.789811 -327.749778 
L 501.111666 -322.798864 
L 502.05353 -317.84795 
L 502.639691 -312.897036 
L 502.899262 -307.946122 
L 502.850866 -302.995209 
L 502.50839 -298.044295 
L 501.901101 -293.093381 
L 501.091813 -288.142467 
L 500.177321 -283.191553 
L 499.264591 -278.240639 
L 498.429846 -273.289725 
L 497.679771 -268.338811 
L 496.937773 -263.387898 
L 496.068144 -258.436984 
L 494.930284 -253.48607 
L 493.43661 -248.535156 
L 491.585117 -243.584242 
L 489.452767 -238.633328 
L 487.157649 -233.682414 
L 484.811787 -228.7315 
L 482.486557 -223.780587 
L 480.202891 -218.829673 
L 477.945867 -213.878759 
L 475.693233 -208.927845 
L 473.442647 -203.976931 
L 471.224948 -199.026017 
L 469.099226 -194.075103 
L 467.135131 -189.124189 
L 465.392857 -184.173276 
L 463.909485 -179.222362 
L 462.694843 -174.271448 
L 461.735171 -169.320534 
L 461.000805 -164.36962 
L 460.454392 -159.418706 
L 460.057381 -154.467792 
L 459.773958 -149.516878 
L 459.572916 -144.565965 
L 459.428506 -139.615051 
L 459.321065 -134.664137 
L 459.237341 -129.713223 
L 459.169982 -124.762309 
L 459.11594 -119.811395 
L 459.074271 -114.860481 
L 459.044227 -109.909567 
L 459.024307 -104.958654 
z
" style="stroke: #3f3f3f; stroke-width: 1.25"/>
    </defs>
    <g clip-path="url(#p49f847fdf9)">
     <use xlink:href="#m6aa1f0ee3a" x="0" y="720" style="fill: #3274a1; stroke: #3f3f3f; stroke-width: 1.25"/>
    </g>
   </g>
   <g id="PolyCollection_4">
    <defs>
     <path id="mbf8cc29b46" d="M 570.636157 -123.436476 
L 570.563843 -123.436476 
L 570.529768 -128.197254 
L 570.472057 -132.958031 
L 570.380263 -137.718808 
L 570.242099 -142.479586 
L 570.043567 -147.240363 
L 569.768716 -152.001141 
L 569.399118 -156.761918 
L 568.913679 -161.522695 
L 568.289639 -166.283473 
L 567.505031 -171.04425 
L 566.541804 -175.805027 
L 565.387905 -180.565805 
L 564.037187 -185.326582 
L 562.48773 -190.08736 
L 560.740722 -194.848137 
L 558.801544 -199.608914 
L 556.682472 -204.369692 
L 554.404647 -209.130469 
L 551.997824 -213.891247 
L 549.499028 -218.652024 
L 546.952696 -223.412801 
L 544.413206 -228.173579 
L 541.947359 -232.934356 
L 539.632439 -237.695133 
L 537.546741 -242.455911 
L 535.753007 -247.216688 
L 534.279452 -251.977466 
L 533.106348 -256.738243 
L 532.166669 -261.49902 
L 531.365138 -266.259798 
L 530.611315 -271.020575 
L 529.853614 -275.781352 
L 529.098602 -280.54213 
L 528.406552 -285.302907 
L 527.866009 -290.063685 
L 527.559735 -294.824462 
L 527.536603 -299.585239 
L 527.799232 -304.346017 
L 528.309471 -309.106794 
L 529.007003 -313.867572 
L 529.83262 -318.628349 
L 530.747394 -323.389126 
L 531.741338 -328.149904 
L 532.829147 -332.910681 
L 534.03514 -337.671458 
L 535.373815 -342.432236 
L 536.835192 -347.193013 
L 538.382944 -351.953791 
L 539.967192 -356.714568 
L 541.545201 -361.475345 
L 543.097936 -366.236123 
L 544.633162 -370.9969 
L 546.174944 -375.757678 
L 547.748005 -380.518455 
L 549.366885 -385.279232 
L 551.033993 -390.04001 
L 552.743117 -394.800787 
L 554.482043 -399.561564 
L 556.230906 -404.322342 
L 557.958119 -409.083119 
L 559.618639 -413.843897 
L 561.15816 -418.604674 
L 562.523121 -423.365451 
L 563.672991 -428.126229 
L 564.590124 -432.887006 
L 565.283705 -437.647783 
L 565.786892 -442.408561 
L 566.148604 -447.169338 
L 566.42265 -451.930116 
L 566.657117 -456.690893 
L 566.88656 -461.45167 
L 567.128909 -466.212448 
L 567.387715 -470.973225 
L 567.658392 -475.734003 
L 567.935274 -480.49478 
L 568.215915 -485.255557 
L 568.500831 -490.016335 
L 568.7898 -494.777112 
L 569.077923 -499.537889 
L 569.354423 -504.298667 
L 569.605026 -509.059444 
L 569.816374 -513.820222 
L 569.979961 -518.580999 
L 570.093891 -523.341776 
L 570.162319 -528.102554 
L 570.193587 -532.863331 
L 570.19828 -537.624109 
L 570.187877 -542.384886 
L 570.173907 -547.145663 
L 570.167082 -551.906441 
L 570.175925 -556.667218 
L 570.205028 -561.427995 
L 570.253764 -566.188773 
L 570.31644 -570.94955 
L 570.384205 -575.710328 
L 570.447992 -580.471105 
L 570.501168 -585.231882 
L 570.540808 -589.99266 
L 570.567392 -594.753437 
L 570.632608 -594.753437 
L 570.632608 -594.753437 
L 570.659192 -589.99266 
L 570.698832 -585.231882 
L 570.752008 -580.471105 
L 570.815795 -575.710328 
L 570.88356 -570.94955 
L 570.946236 -566.188773 
L 570.994972 -561.427995 
L 571.024075 -556.667218 
L 571.032918 -551.906441 
L 571.026093 -547.145663 
L 571.012123 -542.384886 
L 571.00172 -537.624109 
L 571.006413 -532.863331 
L 571.037681 -528.102554 
L 571.106109 -523.341776 
L 571.220039 -518.580999 
L 571.383626 -513.820222 
L 571.594974 -509.059444 
L 571.845577 -504.298667 
L 572.122077 -499.537889 
L 572.4102 -494.777112 
L 572.699169 -490.016335 
L 572.984085 -485.255557 
L 573.264726 -480.49478 
L 573.541608 -475.734003 
L 573.812285 -470.973225 
L 574.071091 -466.212448 
L 574.31344 -461.45167 
L 574.542883 -456.690893 
L 574.77735 -451.930116 
L 575.051396 -447.169338 
L 575.413108 -442.408561 
L 575.916295 -437.647783 
L 576.609876 -432.887006 
L 577.527009 -428.126229 
L 578.676879 -423.365451 
L 580.04184 -418.604674 
L 581.581361 -413.843897 
L 583.241881 -409.083119 
L 584.969094 -404.322342 
L 586.717957 -399.561564 
L 588.456883 -394.800787 
L 590.166007 -390.04001 
L 591.833115 -385.279232 
L 593.451995 -380.518455 
L 595.025056 -375.757678 
L 596.566838 -370.9969 
L 598.102064 -366.236123 
L 599.654799 -361.475345 
L 601.232808 -356.714568 
L 602.817056 -351.953791 
L 604.364808 -347.193013 
L 605.826185 -342.432236 
L 607.16486 -337.671458 
L 608.370853 -332.910681 
L 609.458662 -328.149904 
L 610.452606 -323.389126 
L 611.36738 -318.628349 
L 612.192997 -313.867572 
L 612.890529 -309.106794 
L 613.400768 -304.346017 
L 613.663397 -299.585239 
L 613.640265 -294.824462 
L 613.333991 -290.063685 
L 612.793448 -285.302907 
L 612.101398 -280.54213 
L 611.346386 -275.781352 
L 610.588685 -271.020575 
L 609.834862 -266.259798 
L 609.033331 -261.49902 
L 608.093652 -256.738243 
L 606.920548 -251.977466 
L 605.446993 -247.216688 
L 603.653259 -242.455911 
L 601.567561 -237.695133 
L 599.252641 -232.934356 
L 596.786794 -228.173579 
L 594.247304 -223.412801 
L 591.700972 -218.652024 
L 589.202176 -213.891247 
L 586.795353 -209.130469 
L 584.517528 -204.369692 
L 582.398456 -199.608914 
L 580.459278 -194.848137 
L 578.71227 -190.08736 
L 577.162813 -185.326582 
L 575.812095 -180.565805 
L 574.658196 -175.805027 
L 573.694969 -171.04425 
L 572.910361 -166.283473 
L 572.286321 -161.522695 
L 571.800882 -156.761918 
L 571.431284 -152.001141 
L 571.156433 -147.240363 
L 570.957901 -142.479586 
L 570.819737 -137.718808 
L 570.727943 -132.958031 
L 570.670232 -128.197254 
L 570.636157 -123.436476 
z
" style="stroke: #3f3f3f; stroke-width: 1.25"/>
    </defs>
    <g clip-path="url(#p49f847fdf9)">
     <use xlink:href="#mbf8cc29b46" x="0" y="720" style="fill: #3274a1; stroke: #3f3f3f; stroke-width: 1.25"/>
    </g>
   </g>
   <g id="PolyCollection_5">
    <defs>
     <path id="m296df41863" d="M 682.236208 -123.018852 
L 682.163792 -123.018852 
L 682.129994 -127.788067 
L 682.072824 -132.557281 
L 681.981802 -137.326495 
L 681.84436 -142.095709 
L 681.645805 -146.864923 
L 681.368875 -151.634138 
L 680.992972 -156.403352 
L 680.493701 -161.172566 
L 679.843652 -165.94178 
L 679.015163 -170.710995 
L 677.984868 -175.480209 
L 676.738841 -180.249423 
L 675.27662 -185.018637 
L 673.612711 -189.787852 
L 671.774751 -194.557066 
L 669.798008 -199.32628 
L 667.716742 -204.095494 
L 665.554778 -208.864708 
L 663.319848 -213.633923 
L 661.006613 -218.403137 
L 658.609709 -223.172351 
L 656.142061 -227.941565 
L 653.649272 -232.71078 
L 651.211709 -237.479994 
L 648.931602 -242.249208 
L 646.909224 -247.018422 
L 645.21673 -251.787636 
L 643.879338 -256.556851 
L 642.871527 -261.326065 
L 642.130735 -266.095279 
L 641.583681 -270.864493 
L 641.174066 -275.633708 
L 640.879204 -280.402922 
L 640.708612 -285.172136 
L 640.686713 -289.94135 
L 640.82953 -294.710565 
L 641.127803 -299.479779 
L 641.545613 -304.248993 
L 642.035559 -309.018207 
L 642.562339 -313.787421 
L 643.121083 -318.556636 
L 643.739287 -323.32585 
L 644.461053 -328.095064 
L 645.323261 -332.864278 
L 646.337389 -337.633493 
L 647.485768 -342.402707 
L 648.731685 -347.171921 
L 650.03592 -351.941135 
L 651.371315 -356.71035 
L 652.730004 -361.479564 
L 654.121833 -366.248778 
L 655.565749 -371.017992 
L 657.078543 -375.787206 
L 658.666494 -380.556421 
L 660.324005 -385.325635 
L 662.038864 -390.094849 
L 663.799095 -394.864063 
L 665.595089 -399.633278 
L 667.41429 -404.402492 
L 669.231645 -409.171706 
L 671.002958 -413.94092 
L 672.667096 -418.710135 
L 674.157737 -423.479349 
L 675.419765 -428.248563 
L 676.423218 -433.017777 
L 677.169745 -437.786991 
L 677.690551 -442.556206 
L 678.037868 -447.32542 
L 678.272844 -452.094634 
L 678.45254 -456.863848 
L 678.618943 -461.633063 
L 678.793362 -466.402277 
L 678.978562 -471.171491 
L 679.167743 -475.940705 
L 679.35556 -480.70992 
L 679.545021 -485.479134 
L 679.746696 -490.248348 
L 679.971694 -495.017562 
L 680.223633 -499.786776 
L 680.49486 -504.555991 
L 680.768807 -509.325205 
L 681.026378 -514.094419 
L 681.252386 -518.863633 
L 681.439001 -523.632848 
L 681.585599 -528.402062 
L 681.69638 -533.171276 
L 681.777667 -537.94049 
L 681.836109 -542.709705 
L 681.878064 -547.478919 
L 681.909643 -552.248133 
L 681.936689 -557.017347 
L 681.9642 -561.786561 
L 681.995323 -566.555776 
L 682.03058 -571.32499 
L 682.06796 -576.094204 
L 682.103991 -580.863418 
L 682.135279 -585.632633 
L 682.159721 -590.401847 
L 682.17692 -595.171061 
L 682.22308 -595.171061 
L 682.22308 -595.171061 
L 682.240279 -590.401847 
L 682.264721 -585.632633 
L 682.296009 -580.863418 
L 682.33204 -576.094204 
L 682.36942 -571.32499 
L 682.404677 -566.555776 
L 682.4358 -561.786561 
L 682.463311 -557.017347 
L 682.490357 -552.248133 
L 682.521936 -547.478919 
L 682.563891 -542.709705 
L 682.622333 -537.94049 
L 682.70362 -533.171276 
L 682.814401 -528.402062 
L 682.960999 -523.632848 
L 683.147614 -518.863633 
L 683.373622 -514.094419 
L 683.631193 -509.325205 
L 683.90514 -504.555991 
L 684.176367 -499.786776 
L 684.428306 -495.017562 
L 684.653304 -490.248348 
L 684.854979 -485.479134 
L 685.04444 -480.70992 
L 685.232257 -475.940705 
L 685.421438 -471.171491 
L 685.606638 -466.402277 
L 685.781057 -461.633063 
L 685.94746 -456.863848 
L 686.127156 -452.094634 
L 686.362132 -447.32542 
L 686.709449 -442.556206 
L 687.230255 -437.786991 
L 687.976782 -433.017777 
L 688.980235 -428.248563 
L 690.242263 -423.479349 
L 691.732904 -418.710135 
L 693.397042 -413.94092 
L 695.168355 -409.171706 
L 696.98571 -404.402492 
L 698.804911 -399.633278 
L 700.600905 -394.864063 
L 702.361136 -390.094849 
L 704.075995 -385.325635 
L 705.733506 -380.556421 
L 707.321457 -375.787206 
L 708.834251 -371.017992 
L 710.278167 -366.248778 
L 711.669996 -361.479564 
L 713.028685 -356.71035 
L 714.36408 -351.941135 
L 715.668315 -347.171921 
L 716.914232 -342.402707 
L 718.062611 -337.633493 
L 719.076739 -332.864278 
L 719.938947 -328.095064 
L 720.660713 -323.32585 
L 721.278917 -318.556636 
L 721.837661 -313.787421 
L 722.364441 -309.018207 
L 722.854387 -304.248993 
L 723.272197 -299.479779 
L 723.57047 -294.710565 
L 723.713287 -289.94135 
L 723.691388 -285.172136 
L 723.520796 -280.402922 
L 723.225934 -275.633708 
L 722.816319 -270.864493 
L 722.269265 -266.095279 
L 721.528473 -261.326065 
L 720.520662 -256.556851 
L 719.18327 -251.787636 
L 717.490776 -247.018422 
L 715.468398 -242.249208 
L 713.188291 -237.479994 
L 710.750728 -232.71078 
L 708.257939 -227.941565 
L 705.790291 -223.172351 
L 703.393387 -218.403137 
L 701.080152 -213.633923 
L 698.845222 -208.864708 
L 696.683258 -204.095494 
L 694.601992 -199.32628 
L 692.625249 -194.557066 
L 690.787289 -189.787852 
L 689.12338 -185.018637 
L 687.661159 -180.249423 
L 686.415132 -175.480209 
L 685.384837 -170.710995 
L 684.556348 -165.94178 
L 683.906299 -161.172566 
L 683.407028 -156.403352 
L 683.031125 -151.634138 
L 682.754195 -146.864923 
L 682.55564 -142.095709 
L 682.418198 -137.326495 
L 682.327176 -132.557281 
L 682.270006 -127.788067 
L 682.236208 -123.018852 
z
" style="stroke: #3f3f3f; stroke-width: 1.25"/>
    </defs>
    <g clip-path="url(#p49f847fdf9)">
     <use xlink:href="#m296df41863" x="0" y="720" style="fill: #3274a1; stroke: #3f3f3f; stroke-width: 1.25"/>
    </g>
   </g>
   <g id="PolyCollection_6">
    <defs>
     <path id="m77ae122234" d="M 793.824098 -104.4 
L 793.775902 -104.4 
L 793.756288 -109.360177 
L 793.726592 -114.320354 
L 793.684943 -119.280531 
L 793.629726 -124.240708 
L 793.558389 -129.200885 
L 793.465362 -134.161062 
L 793.339919 -139.121239 
L 793.165139 -144.081416 
L 792.918622 -149.041593 
L 792.574597 -154.00177 
L 792.106213 -158.961947 
L 791.487068 -163.922124 
L 790.69221 -168.882301 
L 789.699984 -173.842478 
L 788.495955 -178.802655 
L 787.078409 -183.762832 
L 785.462502 -188.723009 
L 783.678972 -193.683186 
L 781.764952 -198.643363 
L 779.748947 -203.603539 
L 777.637367 -208.563716 
L 775.412164 -213.523893 
L 773.045075 -218.48407 
L 770.524363 -223.444247 
L 767.880563 -228.404424 
L 765.195802 -233.364601 
L 762.589457 -238.324778 
L 760.185983 -243.284955 
L 758.080134 -248.245132 
L 756.314976 -253.205309 
L 754.880779 -258.165486 
L 753.733192 -263.125663 
L 752.821582 -268.08584 
L 752.114994 -273.046017 
L 751.614655 -278.006194 
L 751.347824 -282.966371 
L 751.34612 -287.926548 
L 751.618685 -292.886725 
L 752.133696 -297.846902 
L 752.819103 -302.807079 
L 753.5849 -307.767256 
L 754.35757 -312.727433 
L 755.10883 -317.68761 
L 755.8623 -322.647787 
L 756.67421 -327.607964 
L 757.600096 -332.568141 
L 758.667251 -337.528318 
L 759.867119 -342.488495 
L 761.167852 -347.448672 
L 762.535325 -352.408849 
L 763.948567 -357.369026 
L 765.402259 -362.329203 
L 766.898643 -367.28938 
L 768.437404 -372.249557 
L 770.011487 -377.209734 
L 771.610907 -382.169911 
L 773.229911 -387.130088 
L 774.870323 -392.090265 
L 776.5372 -397.050442 
L 778.229028 -402.010618 
L 779.928667 -406.970795 
L 781.600485 -411.930972 
L 783.194991 -416.891149 
L 784.658371 -421.851326 
L 785.943184 -426.811503 
L 787.017483 -431.77168 
L 787.871169 -436.731857 
L 788.518736 -441.692034 
L 788.997254 -446.652211 
L 789.358623 -451.612388 
L 789.657054 -456.572565 
L 789.93563 -461.532742 
L 790.217469 -466.492919 
L 790.505551 -471.453096 
L 790.790746 -476.413273 
L 791.06299 -481.37345 
L 791.319118 -486.333627 
L 791.563701 -491.293804 
L 791.804093 -496.253981 
L 792.044294 -501.214158 
L 792.281932 -506.174335 
L 792.509616 -511.134512 
L 792.718772 -516.094689 
L 792.903077 -521.054866 
L 793.059779 -526.015043 
L 793.189089 -530.97522 
L 793.292877 -535.935397 
L 793.373809 -540.895574 
L 793.435284 -545.855751 
L 793.481786 -550.815928 
L 793.518895 -555.776105 
L 793.552453 -560.736282 
L 793.587017 -565.696459 
L 793.624459 -570.656636 
L 793.663614 -575.616813 
L 793.701276 -580.57699 
L 793.733953 -585.537167 
L 793.759374 -590.497344 
L 793.777101 -595.457521 
L 793.822899 -595.457521 
L 793.822899 -595.457521 
L 793.840626 -590.497344 
L 793.866047 -585.537167 
L 793.898724 -580.57699 
L 793.936386 -575.616813 
L 793.975541 -570.656636 
L 794.012983 -565.696459 
L 794.047547 -560.736282 
L 794.081105 -555.776105 
L 794.118214 -550.815928 
L 794.164716 -545.855751 
L 794.226191 -540.895574 
L 794.307123 -535.935397 
L 794.410911 -530.97522 
L 794.540221 -526.015043 
L 794.696923 -521.054866 
L 794.881228 -516.094689 
L 795.090384 -511.134512 
L 795.318068 -506.174335 
L 795.555706 -501.214158 
L 795.795907 -496.253981 
L 796.036299 -491.293804 
L 796.280882 -486.333627 
L 796.53701 -481.37345 
L 796.809254 -476.413273 
L 797.094449 -471.453096 
L 797.382531 -466.492919 
L 797.66437 -461.532742 
L 797.942946 -456.572565 
L 798.241377 -451.612388 
L 798.602746 -446.652211 
L 799.081264 -441.692034 
L 799.728831 -436.731857 
L 800.582517 -431.77168 
L 801.656816 -426.811503 
L 802.941629 -421.851326 
L 804.405009 -416.891149 
L 805.999515 -411.930972 
L 807.671333 -406.970795 
L 809.370972 -402.010618 
L 811.0628 -397.050442 
L 812.729677 -392.090265 
L 814.370089 -387.130088 
L 815.989093 -382.169911 
L 817.588513 -377.209734 
L 819.162596 -372.249557 
L 820.701357 -367.28938 
L 822.197741 -362.329203 
L 823.651433 -357.369026 
L 825.064675 -352.408849 
L 826.432148 -347.448672 
L 827.732881 -342.488495 
L 828.932749 -337.528318 
L 829.999904 -332.568141 
L 830.92579 -327.607964 
L 831.7377 -322.647787 
L 832.49117 -317.68761 
L 833.24243 -312.727433 
L 834.0151 -307.767256 
L 834.780897 -302.807079 
L 835.466304 -297.846902 
L 835.981315 -292.886725 
L 836.25388 -287.926548 
L 836.252176 -282.966371 
L 835.985345 -278.006194 
L 835.485006 -273.046017 
L 834.778418 -268.08584 
L 833.866808 -263.125663 
L 832.719221 -258.165486 
L 831.285024 -253.205309 
L 829.519866 -248.245132 
L 827.414017 -243.284955 
L 825.010543 -238.324778 
L 822.404198 -233.364601 
L 819.719437 -228.404424 
L 817.075637 -223.444247 
L 814.554925 -218.48407 
L 812.187836 -213.523893 
L 809.962633 -208.563716 
L 807.851053 -203.603539 
L 805.835048 -198.643363 
L 803.921028 -193.683186 
L 802.137498 -188.723009 
L 800.521591 -183.762832 
L 799.104045 -178.802655 
L 797.900016 -173.842478 
L 796.90779 -168.882301 
L 796.112932 -163.922124 
L 795.493787 -158.961947 
L 795.025403 -154.00177 
L 794.681378 -149.041593 
L 794.434861 -144.081416 
L 794.260081 -139.121239 
L 794.134638 -134.161062 
L 794.041611 -129.200885 
L 793.970274 -124.240708 
L 793.915057 -119.280531 
L 793.873408 -114.320354 
L 793.843712 -109.360177 
L 793.824098 -104.4 
z
" style="stroke: #3f3f3f; stroke-width: 1.25"/>
    </defs>
    <g clip-path="url(#p49f847fdf9)">
     <use xlink:href="#m77ae122234" x="0" y="720" style="fill: #3274a1; stroke: #3f3f3f; stroke-width: 1.25"/>
    </g>
   </g>
   <g id="PolyCollection_7">
    <defs>
     <path id="me9d62c6a4e" d="M 905.424041 -104.409701 
L 905.375959 -104.409701 
L 905.355835 -109.500512 
L 905.325305 -114.591323 
L 905.282765 -119.682135 
L 905.227228 -124.772946 
L 905.156998 -129.863757 
L 905.067132 -134.954568 
L 904.94647 -140.045379 
L 904.775488 -145.13619 
L 904.525989 -150.227001 
L 904.163015 -155.317812 
L 903.648775 -160.408623 
L 902.948146 -165.499434 
L 902.034956 -170.590246 
L 900.897668 -175.681057 
L 899.542561 -180.771868 
L 897.992651 -185.862679 
L 896.281659 -190.95349 
L 894.443806 -196.044301 
L 892.501722 -201.135112 
L 890.456568 -206.225923 
L 888.286012 -211.316734 
L 885.955211 -216.407545 
L 883.440844 -221.498357 
L 880.759512 -226.589168 
L 877.985036 -231.679979 
L 875.24143 -236.77079 
L 872.670642 -241.861601 
L 870.389063 -246.952412 
L 868.454216 -252.043223 
L 866.858019 -257.134034 
L 865.549028 -262.224845 
L 864.471105 -267.315656 
L 863.597891 -272.406468 
L 862.945258 -277.497279 
L 862.556159 -282.58809 
L 862.467185 -287.678901 
L 862.675694 -292.769712 
L 863.126422 -297.860523 
L 863.727195 -302.951334 
L 864.388326 -308.042145 
L 865.065615 -313.132956 
L 865.781585 -318.223767 
L 866.610033 -323.314579 
L 867.631398 -328.40539 
L 868.885509 -333.496201 
L 870.349373 -338.587012 
L 871.949848 -343.677823 
L 873.598733 -348.768634 
L 875.227303 -353.859445 
L 876.803427 -358.950256 
L 878.328768 -364.041067 
L 879.824727 -369.131878 
L 881.317896 -374.222689 
L 882.831122 -379.313501 
L 884.380185 -384.404312 
L 885.972857 -389.495123 
L 887.607751 -394.585934 
L 889.272852 -399.676745 
L 890.945206 -404.767556 
L 892.592668 -409.858367 
L 894.177023 -414.949178 
L 895.657246 -420.039989 
L 896.992771 -425.1308 
L 898.147908 -430.221612 
L 899.098302 -435.312423 
L 899.838356 -440.403234 
L 900.38634 -445.494045 
L 900.783439 -450.584856 
L 901.085038 -455.675667 
L 901.346573 -460.766478 
L 901.609764 -465.857289 
L 901.895436 -470.9481 
L 902.205483 -476.038911 
L 902.531183 -481.129723 
L 902.861961 -486.220534 
L 903.189911 -491.311345 
L 903.509464 -496.402156 
L 903.81491 -501.492967 
L 904.098853 -506.583778 
L 904.352811 -511.674589 
L 904.569224 -516.7654 
L 904.743509 -521.856211 
L 904.87515 -526.947022 
L 904.967473 -532.037834 
L 905.026324 -537.128645 
L 905.05841 -542.219456 
L 905.070283 -547.310267 
L 905.068506 -552.401078 
L 905.060451 -557.491889 
L 905.054515 -562.5827 
L 905.058874 -567.673511 
L 905.079144 -572.764322 
L 905.116319 -577.855133 
L 905.166378 -582.945945 
L 905.221896 -588.036756 
L 905.27485 -593.127567 
L 905.319202 -598.218378 
L 905.35219 -603.309189 
L 905.374122 -608.4 
L 905.425878 -608.4 
L 905.425878 -608.4 
L 905.44781 -603.309189 
L 905.480798 -598.218378 
L 905.52515 -593.127567 
L 905.578104 -588.036756 
L 905.633622 -582.945945 
L 905.683681 -577.855133 
L 905.720856 -572.764322 
L 905.741126 -567.673511 
L 905.745485 -562.5827 
L 905.739549 -557.491889 
L 905.731494 -552.401078 
L 905.729717 -547.310267 
L 905.74159 -542.219456 
L 905.773676 -537.128645 
L 905.832527 -532.037834 
L 905.92485 -526.947022 
L 906.056491 -521.856211 
L 906.230776 -516.7654 
L 906.447189 -511.674589 
L 906.701147 -506.583778 
L 906.98509 -501.492967 
L 907.290536 -496.402156 
L 907.610089 -491.311345 
L 907.938039 -486.220534 
L 908.268817 -481.129723 
L 908.594517 -476.038911 
L 908.904564 -470.9481 
L 909.190236 -465.857289 
L 909.453427 -460.766478 
L 909.714962 -455.675667 
L 910.016561 -450.584856 
L 910.41366 -445.494045 
L 910.961644 -440.403234 
L 911.701698 -435.312423 
L 912.652092 -430.221612 
L 913.807229 -425.1308 
L 915.142754 -420.039989 
L 916.622977 -414.949178 
L 918.207332 -409.858367 
L 919.854794 -404.767556 
L 921.527148 -399.676745 
L 923.192249 -394.585934 
L 924.827143 -389.495123 
L 926.419815 -384.404312 
L 927.968878 -379.313501 
L 929.482104 -374.222689 
L 930.975273 -369.131878 
L 932.471232 -364.041067 
L 933.996573 -358.950256 
L 935.572697 -353.859445 
L 937.201267 -348.768634 
L 938.850152 -343.677823 
L 940.450627 -338.587012 
L 941.914491 -333.496201 
L 943.168602 -328.40539 
L 944.189967 -323.314579 
L 945.018415 -318.223767 
L 945.734385 -313.132956 
L 946.411674 -308.042145 
L 947.072805 -302.951334 
L 947.673578 -297.860523 
L 948.124306 -292.769712 
L 948.332815 -287.678901 
L 948.243841 -282.58809 
L 947.854742 -277.497279 
L 947.202109 -272.406468 
L 946.328895 -267.315656 
L 945.250972 -262.224845 
L 943.941981 -257.134034 
L 942.345784 -252.043223 
L 940.410937 -246.952412 
L 938.129358 -241.861601 
L 935.55857 -236.77079 
L 932.814964 -231.679979 
L 930.040488 -226.589168 
L 927.359156 -221.498357 
L 924.844789 -216.407545 
L 922.513988 -211.316734 
L 920.343432 -206.225923 
L 918.298278 -201.135112 
L 916.356194 -196.044301 
L 914.518341 -190.95349 
L 912.807349 -185.862679 
L 911.257439 -180.771868 
L 909.902332 -175.681057 
L 908.765044 -170.590246 
L 907.851854 -165.499434 
L 907.151225 -160.408623 
L 906.636985 -155.317812 
L 906.274011 -150.227001 
L 906.024512 -145.13619 
L 905.85353 -140.045379 
L 905.732868 -134.954568 
L 905.643002 -129.863757 
L 905.572772 -124.772946 
L 905.517235 -119.682135 
L 905.474695 -114.591323 
L 905.444165 -109.500512 
L 905.424041 -104.409701 
z
" style="stroke: #3f3f3f; stroke-width: 1.25"/>
    </defs>
    <g clip-path="url(#p49f847fdf9)">
     <use xlink:href="#me9d62c6a4e" x="0" y="720" style="fill: #3274a1; stroke: #3f3f3f; stroke-width: 1.25"/>
    </g>
   </g>
   <g id="PolyCollection_8">
    <defs>
     <path id="m67a09cd2af" d="M 1017.041276 -123.07203 
L 1016.958724 -123.07203 
L 1016.919187 -127.84017 
L 1016.851475 -132.60831 
L 1016.742591 -137.376449 
L 1016.577166 -142.144589 
L 1016.338059 -146.912729 
L 1016.006875 -151.680869 
L 1015.564377 -156.449009 
L 1014.99106 -161.217149 
L 1014.268331 -165.985289 
L 1013.380499 -170.753429 
L 1012.317359 -175.521569 
L 1011.076771 -180.289709 
L 1009.666504 -185.057849 
L 1008.104427 -189.825989 
L 1006.415739 -194.594129 
L 1004.625989 -199.362269 
L 1002.750261 -204.130409 
L 1000.782388 -208.898549 
L 998.691301 -213.666689 
L 996.431195 -218.434828 
L 993.965963 -223.202968 
L 991.299077 -227.971108 
L 988.493779 -232.739248 
L 985.670752 -237.507388 
L 982.98088 -242.275528 
L 980.563535 -247.043668 
L 978.508404 -251.811808 
L 976.837487 -256.579948 
L 975.51447 -261.348088 
L 974.476066 -266.116228 
L 973.66979 -270.884368 
L 973.080105 -275.652508 
L 972.731105 -280.420648 
L 972.665913 -285.188788 
L 972.914445 -289.956928 
L 973.466408 -294.725067 
L 974.26339 -299.493207 
L 975.214331 -304.261347 
L 976.226993 -309.029487 
L 977.239778 -313.797627 
L 978.237984 -318.565767 
L 979.247319 -323.333907 
L 980.310291 -328.102047 
L 981.460045 -332.870187 
L 982.70542 -337.638327 
L 984.031877 -342.406467 
L 985.412797 -347.174607 
L 986.821713 -351.942747 
L 988.239486 -356.710887 
L 989.656518 -361.479027 
L 991.073066 -366.247167 
L 992.499141 -371.015307 
L 993.952448 -375.783446 
L 995.452261 -380.551586 
L 997.00985 -385.319726 
L 998.619682 -390.087866 
L 1000.256657 -394.856006 
L 1001.88183 -399.624146 
L 1003.453966 -404.392286 
L 1004.940596 -409.160426 
L 1006.32258 -413.928566 
L 1007.590633 -418.696706 
L 1008.737497 -423.464846 
L 1009.752032 -428.232986 
L 1010.619795 -433.001126 
L 1011.330175 -437.769266 
L 1011.885835 -442.537406 
L 1012.308585 -447.305546 
L 1012.637501 -452.073685 
L 1012.919183 -456.841825 
L 1013.194286 -461.609965 
L 1013.486649 -466.378105 
L 1013.799988 -471.146245 
L 1014.122985 -475.914385 
L 1014.43906 -480.682525 
L 1014.735057 -485.450665 
L 1015.004709 -490.218805 
L 1015.246704 -494.986945 
L 1015.46064 -499.755085 
L 1015.64476 -504.523225 
L 1015.797128 -509.291365 
L 1015.918894 -514.059505 
L 1016.016621 -518.827645 
L 1016.101445 -523.595785 
L 1016.185123 -528.363925 
L 1016.275173 -533.132064 
L 1016.371992 -537.900204 
L 1016.469629 -542.668344 
L 1016.559673 -547.436484 
L 1016.635905 -552.204624 
L 1016.697064 -556.972764 
L 1016.746484 -561.740904 
L 1016.789363 -566.509044 
L 1016.82969 -571.277184 
L 1016.868606 -576.045324 
L 1016.90474 -580.813464 
L 1016.935765 -585.581604 
L 1016.95997 -590.349744 
L 1016.977034 -595.117884 
L 1017.022966 -595.117884 
L 1017.022966 -595.117884 
L 1017.04003 -590.349744 
L 1017.064235 -585.581604 
L 1017.09526 -580.813464 
L 1017.131394 -576.045324 
L 1017.17031 -571.277184 
L 1017.210637 -566.509044 
L 1017.253516 -561.740904 
L 1017.302936 -556.972764 
L 1017.364095 -552.204624 
L 1017.440327 -547.436484 
L 1017.530371 -542.668344 
L 1017.628008 -537.900204 
L 1017.724827 -533.132064 
L 1017.814877 -528.363925 
L 1017.898555 -523.595785 
L 1017.983379 -518.827645 
L 1018.081106 -514.059505 
L 1018.202872 -509.291365 
L 1018.35524 -504.523225 
L 1018.53936 -499.755085 
L 1018.753296 -494.986945 
L 1018.995291 -490.218805 
L 1019.264943 -485.450665 
L 1019.56094 -480.682525 
L 1019.877015 -475.914385 
L 1020.200012 -471.146245 
L 1020.513351 -466.378105 
L 1020.805714 -461.609965 
L 1021.080817 -456.841825 
L 1021.362499 -452.073685 
L 1021.691415 -447.305546 
L 1022.114165 -442.537406 
L 1022.669825 -437.769266 
L 1023.380205 -433.001126 
L 1024.247968 -428.232986 
L 1025.262503 -423.464846 
L 1026.409367 -418.696706 
L 1027.67742 -413.928566 
L 1029.059404 -409.160426 
L 1030.546034 -404.392286 
L 1032.11817 -399.624146 
L 1033.743343 -394.856006 
L 1035.380318 -390.087866 
L 1036.99015 -385.319726 
L 1038.547739 -380.551586 
L 1040.047552 -375.783446 
L 1041.500859 -371.015307 
L 1042.926934 -366.247167 
L 1044.343482 -361.479027 
L 1045.760514 -356.710887 
L 1047.178287 -351.942747 
L 1048.587203 -347.174607 
L 1049.968123 -342.406467 
L 1051.29458 -337.638327 
L 1052.539955 -332.870187 
L 1053.689709 -328.102047 
L 1054.752681 -323.333907 
L 1055.762016 -318.565767 
L 1056.760222 -313.797627 
L 1057.773007 -309.029487 
L 1058.785669 -304.261347 
L 1059.73661 -299.493207 
L 1060.533592 -294.725067 
L 1061.085555 -289.956928 
L 1061.334087 -285.188788 
L 1061.268895 -280.420648 
L 1060.919895 -275.652508 
L 1060.33021 -270.884368 
L 1059.523934 -266.116228 
L 1058.48553 -261.348088 
L 1057.162513 -256.579948 
L 1055.491596 -251.811808 
L 1053.436465 -247.043668 
L 1051.01912 -242.275528 
L 1048.329248 -237.507388 
L 1045.506221 -232.739248 
L 1042.700923 -227.971108 
L 1040.034037 -223.202968 
L 1037.568805 -218.434828 
L 1035.308699 -213.666689 
L 1033.217612 -208.898549 
L 1031.249739 -204.130409 
L 1029.374011 -199.362269 
L 1027.584261 -194.594129 
L 1025.895573 -189.825989 
L 1024.333496 -185.057849 
L 1022.923229 -180.289709 
L 1021.682641 -175.521569 
L 1020.619501 -170.753429 
L 1019.731669 -165.985289 
L 1019.00894 -161.217149 
L 1018.435623 -156.449009 
L 1017.993125 -151.680869 
L 1017.661941 -146.912729 
L 1017.422834 -142.144589 
L 1017.257409 -137.376449 
L 1017.148525 -132.60831 
L 1017.080813 -127.84017 
L 1017.041276 -123.07203 
z
" style="stroke: #3f3f3f; stroke-width: 1.25"/>
    </defs>
    <g clip-path="url(#p49f847fdf9)">
     <use xlink:href="#m67a09cd2af" x="0" y="720" style="fill: #3274a1; stroke: #3f3f3f; stroke-width: 1.25"/>
    </g>
   </g>
   <g id="PolyCollection_9">
    <defs>
     <path id="m1b7446cb56" d="M 1128.638917 -115.090981 
L 1128.561083 -115.090981 
L 1128.52479 -119.934995 
L 1128.465181 -124.77901 
L 1128.374825 -129.623024 
L 1128.247457 -134.467039 
L 1128.078455 -139.311053 
L 1127.863558 -144.155068 
L 1127.595734 -148.999082 
L 1127.261445 -153.843097 
L 1126.838478 -158.687111 
L 1126.297021 -163.531126 
L 1125.603806 -168.375141 
L 1124.727461 -173.219155 
L 1123.643241 -178.06317 
L 1122.336985 -182.907184 
L 1120.809371 -187.751199 
L 1119.080062 -192.595213 
L 1117.187932 -197.439228 
L 1115.182311 -202.283242 
L 1113.104566 -207.127257 
L 1110.967982 -211.971271 
L 1108.749834 -216.815286 
L 1106.405813 -221.659301 
L 1103.903825 -226.503315 
L 1101.259961 -231.34733 
L 1098.555242 -236.191344 
L 1095.921243 -241.035359 
L 1093.50018 -245.879373 
L 1091.399017 -250.723388 
L 1089.660052 -255.567402 
L 1088.26138 -260.411417 
L 1087.145167 -265.255431 
L 1086.257489 -270.099446 
L 1085.577819 -274.943461 
L 1085.122571 -279.787475 
L 1084.922501 -284.63149 
L 1084.989301 -289.475504 
L 1085.29306 -294.319519 
L 1085.765445 -299.163533 
L 1086.327791 -304.007548 
L 1086.92808 -308.851562 
L 1087.565052 -313.695577 
L 1088.285124 -318.539591 
L 1089.154194 -323.383606 
L 1090.221345 -328.227621 
L 1091.495201 -333.071635 
L 1092.943858 -337.91565 
L 1094.513688 -342.759664 
L 1096.152138 -347.603679 
L 1097.821211 -352.447693 
L 1099.498063 -357.291708 
L 1101.168413 -362.135722 
L 1102.820619 -366.979737 
L 1104.444147 -371.823751 
L 1106.030899 -376.667766 
L 1107.576051 -381.511781 
L 1109.077167 -386.355795 
L 1110.533422 -391.19981 
L 1111.947273 -396.043824 
L 1113.328023 -400.887839 
L 1114.693024 -405.731853 
L 1116.061927 -410.575868 
L 1117.44416 -415.419882 
L 1118.826242 -420.263897 
L 1120.167882 -425.107912 
L 1121.411325 -429.951926 
L 1122.500246 -434.795941 
L 1123.398866 -439.639955 
L 1124.102424 -444.48397 
L 1124.635417 -449.327984 
L 1125.040155 -454.171999 
L 1125.361899 -459.016013 
L 1125.63714 -463.860028 
L 1125.888954 -468.704042 
L 1126.129314 -473.548057 
L 1126.364661 -478.392072 
L 1126.599861 -483.236086 
L 1126.837796 -488.080101 
L 1127.075781 -492.924115 
L 1127.302955 -497.76813 
L 1127.502356 -502.612144 
L 1127.657875 -507.456159 
L 1127.762464 -512.300173 
L 1127.822686 -517.144188 
L 1127.856755 -521.988202 
L 1127.88701 -526.832217 
L 1127.930799 -531.676232 
L 1127.994395 -536.520246 
L 1128.072712 -541.364261 
L 1128.15429 -546.208275 
L 1128.228284 -551.05229 
L 1128.289493 -555.896304 
L 1128.339173 -560.740319 
L 1128.382161 -565.584333 
L 1128.422885 -570.428348 
L 1128.462837 -575.272362 
L 1128.500536 -580.116377 
L 1128.533229 -584.960392 
L 1128.558793 -589.804406 
L 1128.576716 -594.648421 
L 1128.623284 -594.648421 
L 1128.623284 -594.648421 
L 1128.641207 -589.804406 
L 1128.666771 -584.960392 
L 1128.699464 -580.116377 
L 1128.737163 -575.272362 
L 1128.777115 -570.428348 
L 1128.817839 -565.584333 
L 1128.860827 -560.740319 
L 1128.910507 -555.896304 
L 1128.971716 -551.05229 
L 1129.04571 -546.208275 
L 1129.127288 -541.364261 
L 1129.205605 -536.520246 
L 1129.269201 -531.676232 
L 1129.31299 -526.832217 
L 1129.343245 -521.988202 
L 1129.377314 -517.144188 
L 1129.437536 -512.300173 
L 1129.542125 -507.456159 
L 1129.697644 -502.612144 
L 1129.897045 -497.76813 
L 1130.124219 -492.924115 
L 1130.362204 -488.080101 
L 1130.600139 -483.236086 
L 1130.835339 -478.392072 
L 1131.070686 -473.548057 
L 1131.311046 -468.704042 
L 1131.56286 -463.860028 
L 1131.838101 -459.016013 
L 1132.159845 -454.171999 
L 1132.564583 -449.327984 
L 1133.097576 -444.48397 
L 1133.801134 -439.639955 
L 1134.699754 -434.795941 
L 1135.788675 -429.951926 
L 1137.032118 -425.107912 
L 1138.373758 -420.263897 
L 1139.75584 -415.419882 
L 1141.138073 -410.575868 
L 1142.506976 -405.731853 
L 1143.871977 -400.887839 
L 1145.252727 -396.043824 
L 1146.666578 -391.19981 
L 1148.122833 -386.355795 
L 1149.623949 -381.511781 
L 1151.169101 -376.667766 
L 1152.755853 -371.823751 
L 1154.379381 -366.979737 
L 1156.031587 -362.135722 
L 1157.701937 -357.291708 
L 1159.378789 -352.447693 
L 1161.047862 -347.603679 
L 1162.686312 -342.759664 
L 1164.256142 -337.91565 
L 1165.704799 -333.071635 
L 1166.978655 -328.227621 
L 1168.045806 -323.383606 
L 1168.914876 -318.539591 
L 1169.634948 -313.695577 
L 1170.27192 -308.851562 
L 1170.872209 -304.007548 
L 1171.434555 -299.163533 
L 1171.90694 -294.319519 
L 1172.210699 -289.475504 
L 1172.277499 -284.63149 
L 1172.077429 -279.787475 
L 1171.622181 -274.943461 
L 1170.942511 -270.099446 
L 1170.054833 -265.255431 
L 1168.93862 -260.411417 
L 1167.539948 -255.567402 
L 1165.800983 -250.723388 
L 1163.69982 -245.879373 
L 1161.278757 -241.035359 
L 1158.644758 -236.191344 
L 1155.940039 -231.34733 
L 1153.296175 -226.503315 
L 1150.794187 -221.659301 
L 1148.450166 -216.815286 
L 1146.232018 -211.971271 
L 1144.095434 -207.127257 
L 1142.017689 -202.283242 
L 1140.012068 -197.439228 
L 1138.119938 -192.595213 
L 1136.390629 -187.751199 
L 1134.863015 -182.907184 
L 1133.556759 -178.06317 
L 1132.472539 -173.219155 
L 1131.596194 -168.375141 
L 1130.902979 -163.531126 
L 1130.361522 -158.687111 
L 1129.938555 -153.843097 
L 1129.604266 -148.999082 
L 1129.336442 -144.155068 
L 1129.121545 -139.311053 
L 1128.952543 -134.467039 
L 1128.825175 -129.623024 
L 1128.734819 -124.77901 
L 1128.67521 -119.934995 
L 1128.638917 -115.090981 
z
" style="stroke: #3f3f3f; stroke-width: 1.25"/>
    </defs>
    <g clip-path="url(#p49f847fdf9)">
     <use xlink:href="#m1b7446cb56" x="0" y="720" style="fill: #3274a1; stroke: #3f3f3f; stroke-width: 1.25"/>
    </g>
   </g>
   <g id="PolyCollection_10">
    <defs>
     <path id="mb498e8d960" d="M 1240.232032 -115.213814 
L 1240.167968 -115.213814 
L 1240.138977 -120.055347 
L 1240.091909 -124.89688 
L 1240.020842 -129.738413 
L 1239.919828 -134.579946 
L 1239.782365 -139.421479 
L 1239.599561 -144.263012 
L 1239.357319 -149.104545 
L 1239.033726 -153.946078 
L 1238.598292 -158.787612 
L 1238.014238 -163.629145 
L 1237.243934 -168.470678 
L 1236.256484 -173.312211 
L 1235.035974 -178.153744 
L 1233.588745 -182.995277 
L 1231.947483 -187.83681 
L 1230.168804 -192.678343 
L 1228.320983 -197.519876 
L 1226.461664 -202.361409 
L 1224.611805 -207.202942 
L 1222.738179 -212.044475 
L 1220.757216 -216.886008 
L 1218.564992 -221.727541 
L 1216.084871 -226.569074 
L 1213.313086 -231.410607 
L 1210.340673 -236.252141 
L 1207.339647 -241.093674 
L 1204.517345 -245.935207 
L 1202.057283 -250.77674 
L 1200.07071 -255.618273 
L 1198.57787 -260.459806 
L 1197.524284 -265.301339 
L 1196.821356 -270.142872 
L 1196.390055 -274.984405 
L 1196.186797 -279.825938 
L 1196.201785 -284.667471 
L 1196.435722 -289.509004 
L 1196.872205 -294.350537 
L 1197.464507 -299.19207 
L 1198.146239 -304.033603 
L 1198.86049 -308.875136 
L 1199.589668 -313.71667 
L 1200.366492 -318.558203 
L 1201.257627 -323.399736 
L 1202.328557 -328.241269 
L 1203.609547 -333.082802 
L 1205.080424 -337.924335 
L 1206.679254 -342.765868 
L 1208.326856 -347.607401 
L 1209.953679 -352.448934 
L 1211.51822 -357.290467 
L 1213.012404 -362.132 
L 1214.454973 -366.973533 
L 1215.877614 -371.815066 
L 1217.310297 -376.656599 
L 1218.771404 -381.498132 
L 1220.265117 -386.339665 
L 1221.784876 -391.181199 
L 1223.319556 -396.022732 
L 1224.85872 -400.864265 
L 1226.394041 -405.705798 
L 1227.915683 -410.547331 
L 1229.405311 -415.388864 
L 1230.830612 -420.230397 
L 1232.146796 -425.07193 
L 1233.30695 -429.913463 
L 1234.277159 -434.754996 
L 1235.048759 -439.596529 
L 1235.641636 -444.438062 
L 1236.097577 -449.279595 
L 1236.467337 -454.121128 
L 1236.796844 -458.962661 
L 1237.117133 -463.804195 
L 1237.440668 -468.645728 
L 1237.764444 -473.487261 
L 1238.077668 -478.328794 
L 1238.369747 -483.170327 
L 1238.634399 -488.01186 
L 1238.86862 -492.853393 
L 1239.069056 -497.694926 
L 1239.230141 -502.536459 
L 1239.346469 -507.377992 
L 1239.41799 -512.219525 
L 1239.453964 -517.061058 
L 1239.472174 -521.902591 
L 1239.493091 -526.744124 
L 1239.532012 -531.585657 
L 1239.593542 -536.42719 
L 1239.671367 -541.268724 
L 1239.753151 -546.110257 
L 1239.82747 -550.95179 
L 1239.888833 -555.793323 
L 1239.938464 -560.634856 
L 1239.981323 -565.476389 
L 1240.021982 -570.317922 
L 1240.062007 -575.159455 
L 1240.099893 -580.000988 
L 1240.132814 -584.842521 
L 1240.158576 -589.684054 
L 1240.176631 -594.525587 
L 1240.223369 -594.525587 
L 1240.223369 -594.525587 
L 1240.241424 -589.684054 
L 1240.267186 -584.842521 
L 1240.300107 -580.000988 
L 1240.337993 -575.159455 
L 1240.378018 -570.317922 
L 1240.418677 -565.476389 
L 1240.461536 -560.634856 
L 1240.511167 -555.793323 
L 1240.57253 -550.95179 
L 1240.646849 -546.110257 
L 1240.728633 -541.268724 
L 1240.806458 -536.42719 
L 1240.867988 -531.585657 
L 1240.906909 -526.744124 
L 1240.927826 -521.902591 
L 1240.946036 -517.061058 
L 1240.98201 -512.219525 
L 1241.053531 -507.377992 
L 1241.169859 -502.536459 
L 1241.330944 -497.694926 
L 1241.53138 -492.853393 
L 1241.765601 -488.01186 
L 1242.030253 -483.170327 
L 1242.322332 -478.328794 
L 1242.635556 -473.487261 
L 1242.959332 -468.645728 
L 1243.282867 -463.804195 
L 1243.603156 -458.962661 
L 1243.932663 -454.121128 
L 1244.302423 -449.279595 
L 1244.758364 -444.438062 
L 1245.351241 -439.596529 
L 1246.122841 -434.754996 
L 1247.09305 -429.913463 
L 1248.253204 -425.07193 
L 1249.569388 -420.230397 
L 1250.994689 -415.388864 
L 1252.484317 -410.547331 
L 1254.005959 -405.705798 
L 1255.54128 -400.864265 
L 1257.080444 -396.022732 
L 1258.615124 -391.181199 
L 1260.134883 -386.339665 
L 1261.628596 -381.498132 
L 1263.089703 -376.656599 
L 1264.522386 -371.815066 
L 1265.945027 -366.973533 
L 1267.387596 -362.132 
L 1268.88178 -357.290467 
L 1270.446321 -352.448934 
L 1272.073144 -347.607401 
L 1273.720746 -342.765868 
L 1275.319576 -337.924335 
L 1276.790453 -333.082802 
L 1278.071443 -328.241269 
L 1279.142373 -323.399736 
L 1280.033508 -318.558203 
L 1280.810332 -313.71667 
L 1281.53951 -308.875136 
L 1282.253761 -304.033603 
L 1282.935493 -299.19207 
L 1283.527795 -294.350537 
L 1283.964278 -289.509004 
L 1284.198215 -284.667471 
L 1284.213203 -279.825938 
L 1284.009945 -274.984405 
L 1283.578644 -270.142872 
L 1282.875716 -265.301339 
L 1281.82213 -260.459806 
L 1280.32929 -255.618273 
L 1278.342717 -250.77674 
L 1275.882655 -245.935207 
L 1273.060353 -241.093674 
L 1270.059327 -236.252141 
L 1267.086914 -231.410607 
L 1264.315129 -226.569074 
L 1261.835008 -221.727541 
L 1259.642784 -216.886008 
L 1257.661821 -212.044475 
L 1255.788195 -207.202942 
L 1253.938336 -202.361409 
L 1252.079017 -197.519876 
L 1250.231196 -192.678343 
L 1248.452517 -187.83681 
L 1246.811255 -182.995277 
L 1245.364026 -178.153744 
L 1244.143516 -173.312211 
L 1243.156066 -168.470678 
L 1242.385762 -163.629145 
L 1241.801708 -158.787612 
L 1241.366274 -153.946078 
L 1241.042681 -149.104545 
L 1240.800439 -144.263012 
L 1240.617635 -139.421479 
L 1240.480172 -134.579946 
L 1240.379158 -129.738413 
L 1240.308091 -124.89688 
L 1240.261023 -120.055347 
L 1240.232032 -115.213814 
z
" style="stroke: #3f3f3f; stroke-width: 1.25"/>
    </defs>
    <g clip-path="url(#p49f847fdf9)">
     <use xlink:href="#mb498e8d960" x="0" y="720" style="fill: #3274a1; stroke: #3f3f3f; stroke-width: 1.25"/>
    </g>
   </g>
   <g id="matplotlib.axis_1">
    <g id="xtick_1">
     <g id="line2d_1">
      <defs>
       <path id="m321d2ab6c3" d="M 0 0 
L 0 3.5 
" style="stroke: #000000; stroke-width: 0.8"/>
      </defs>
      <g>
       <use xlink:href="#m321d2ab6c3" x="235.8" y="640.8" style="stroke: #000000; stroke-width: 0.8"/>
      </g>
     </g>
     <g id="text_1">
      <!-- 0 -->
      <g transform="translate(232.61875 655.398438) scale(0.1 -0.1)">
       <defs>
        <path id="DejaVuSans-30" d="M 2034 4250 
Q 1547 4250 1301 3770 
Q 1056 3291 1056 2328 
Q 1056 1369 1301 889 
Q 1547 409 2034 409 
Q 2525 409 2770 889 
Q 3016 1369 3016 2328 
Q 3016 3291 2770 3770 
Q 2525 4250 2034 4250 
z
M 2034 4750 
Q 2819 4750 3233 4129 
Q 3647 3509 3647 2328 
Q 3647 1150 3233 529 
Q 2819 -91 2034 -91 
Q 1250 -91 836 529 
Q 422 1150 422 2328 
Q 422 3509 836 4129 
Q 1250 4750 2034 4750 
z
" transform="scale(0.015625)"/>
       </defs>
       <use xlink:href="#DejaVuSans-30"/>
      </g>
     </g>
    </g>
    <g id="xtick_2">
     <g id="line2d_2">
      <g>
       <use xlink:href="#m321d2ab6c3" x="347.4" y="640.8" style="stroke: #000000; stroke-width: 0.8"/>
      </g>
     </g>
     <g id="text_2">
      <!-- 1 -->
      <g transform="translate(344.21875 655.398438) scale(0.1 -0.1)">
       <defs>
        <path id="DejaVuSans-31" d="M 794 531 
L 1825 531 
L 1825 4091 
L 703 3866 
L 703 4441 
L 1819 4666 
L 2450 4666 
L 2450 531 
L 3481 531 
L 3481 0 
L 794 0 
L 794 531 
z
" transform="scale(0.015625)"/>
       </defs>
       <use xlink:href="#DejaVuSans-31"/>
      </g>
     </g>
    </g>
    <g id="xtick_3">
     <g id="line2d_3">
      <g>
       <use xlink:href="#m321d2ab6c3" x="459" y="640.8" style="stroke: #000000; stroke-width: 0.8"/>
      </g>
     </g>
     <g id="text_3">
      <!-- 2 -->
      <g transform="translate(455.81875 655.398438) scale(0.1 -0.1)">
       <defs>
        <path id="DejaVuSans-32" d="M 1228 531 
L 3431 531 
L 3431 0 
L 469 0 
L 469 531 
Q 828 903 1448 1529 
Q 2069 2156 2228 2338 
Q 2531 2678 2651 2914 
Q 2772 3150 2772 3378 
Q 2772 3750 2511 3984 
Q 2250 4219 1831 4219 
Q 1534 4219 1204 4116 
Q 875 4013 500 3803 
L 500 4441 
Q 881 4594 1212 4672 
Q 1544 4750 1819 4750 
Q 2544 4750 2975 4387 
Q 3406 4025 3406 3419 
Q 3406 3131 3298 2873 
Q 3191 2616 2906 2266 
Q 2828 2175 2409 1742 
Q 1991 1309 1228 531 
z
" transform="scale(0.015625)"/>
       </defs>
       <use xlink:href="#DejaVuSans-32"/>
      </g>
     </g>
    </g>
    <g id="xtick_4">
     <g id="line2d_4">
      <g>
       <use xlink:href="#m321d2ab6c3" x="570.6" y="640.8" style="stroke: #000000; stroke-width: 0.8"/>
      </g>
     </g>
     <g id="text_4">
      <!-- 3 -->
      <g transform="translate(567.41875 655.398438) scale(0.1 -0.1)">
       <defs>
        <path id="DejaVuSans-33" d="M 2597 2516 
Q 3050 2419 3304 2112 
Q 3559 1806 3559 1356 
Q 3559 666 3084 287 
Q 2609 -91 1734 -91 
Q 1441 -91 1130 -33 
Q 819 25 488 141 
L 488 750 
Q 750 597 1062 519 
Q 1375 441 1716 441 
Q 2309 441 2620 675 
Q 2931 909 2931 1356 
Q 2931 1769 2642 2001 
Q 2353 2234 1838 2234 
L 1294 2234 
L 1294 2753 
L 1863 2753 
Q 2328 2753 2575 2939 
Q 2822 3125 2822 3475 
Q 2822 3834 2567 4026 
Q 2313 4219 1838 4219 
Q 1578 4219 1281 4162 
Q 984 4106 628 3988 
L 628 4550 
Q 988 4650 1302 4700 
Q 1616 4750 1894 4750 
Q 2613 4750 3031 4423 
Q 3450 4097 3450 3541 
Q 3450 3153 3228 2886 
Q 3006 2619 2597 2516 
z
" transform="scale(0.015625)"/>
       </defs>
       <use xlink:href="#DejaVuSans-33"/>
      </g>
     </g>
    </g>
    <g id="xtick_5">
     <g id="line2d_5">
      <g>
       <use xlink:href="#m321d2ab6c3" x="682.2" y="640.8" style="stroke: #000000; stroke-width: 0.8"/>
      </g>
     </g>
     <g id="text_5">
      <!-- 4 -->
      <g transform="translate(679.01875 655.398438) scale(0.1 -0.1)">
       <defs>
        <path id="DejaVuSans-34" d="M 2419 4116 
L 825 1625 
L 2419 1625 
L 2419 4116 
z
M 2253 4666 
L 3047 4666 
L 3047 1625 
L 3713 1625 
L 3713 1100 
L 3047 1100 
L 3047 0 
L 2419 0 
L 2419 1100 
L 313 1100 
L 313 1709 
L 2253 4666 
z
" transform="scale(0.015625)"/>
       </defs>
       <use xlink:href="#DejaVuSans-34"/>
      </g>
     </g>
    </g>
    <g id="xtick_6">
     <g id="line2d_6">
      <g>
       <use xlink:href="#m321d2ab6c3" x="793.8" y="640.8" style="stroke: #000000; stroke-width: 0.8"/>
      </g>
     </g>
     <g id="text_6">
      <!-- 5 -->
      <g transform="translate(790.61875 655.398438) scale(0.1 -0.1)">
       <defs>
        <path id="DejaVuSans-35" d="M 691 4666 
L 3169 4666 
L 3169 4134 
L 1269 4134 
L 1269 2991 
Q 1406 3038 1543 3061 
Q 1681 3084 1819 3084 
Q 2600 3084 3056 2656 
Q 3513 2228 3513 1497 
Q 3513 744 3044 326 
Q 2575 -91 1722 -91 
Q 1428 -91 1123 -41 
Q 819 9 494 109 
L 494 744 
Q 775 591 1075 516 
Q 1375 441 1709 441 
Q 2250 441 2565 725 
Q 2881 1009 2881 1497 
Q 2881 1984 2565 2268 
Q 2250 2553 1709 2553 
Q 1456 2553 1204 2497 
Q 953 2441 691 2322 
L 691 4666 
z
" transform="scale(0.015625)"/>
       </defs>
       <use xlink:href="#DejaVuSans-35"/>
      </g>
     </g>
    </g>
    <g id="xtick_7">
     <g id="line2d_7">
      <g>
       <use xlink:href="#m321d2ab6c3" x="905.4" y="640.8" style="stroke: #000000; stroke-width: 0.8"/>
      </g>
     </g>
     <g id="text_7">
      <!-- 6 -->
      <g transform="translate(902.21875 655.398438) scale(0.1 -0.1)">
       <defs>
        <path id="DejaVuSans-36" d="M 2113 2584 
Q 1688 2584 1439 2293 
Q 1191 2003 1191 1497 
Q 1191 994 1439 701 
Q 1688 409 2113 409 
Q 2538 409 2786 701 
Q 3034 994 3034 1497 
Q 3034 2003 2786 2293 
Q 2538 2584 2113 2584 
z
M 3366 4563 
L 3366 3988 
Q 3128 4100 2886 4159 
Q 2644 4219 2406 4219 
Q 1781 4219 1451 3797 
Q 1122 3375 1075 2522 
Q 1259 2794 1537 2939 
Q 1816 3084 2150 3084 
Q 2853 3084 3261 2657 
Q 3669 2231 3669 1497 
Q 3669 778 3244 343 
Q 2819 -91 2113 -91 
Q 1303 -91 875 529 
Q 447 1150 447 2328 
Q 447 3434 972 4092 
Q 1497 4750 2381 4750 
Q 2619 4750 2861 4703 
Q 3103 4656 3366 4563 
z
" transform="scale(0.015625)"/>
       </defs>
       <use xlink:href="#DejaVuSans-36"/>
      </g>
     </g>
    </g>
    <g id="xtick_8">
     <g id="line2d_8">
      <g>
       <use xlink:href="#m321d2ab6c3" x="1017" y="640.8" style="stroke: #000000; stroke-width: 0.8"/>
      </g>
     </g>
     <g id="text_8">
      <!-- 7 -->
      <g transform="translate(1013.81875 655.398438) scale(0.1 -0.1)">
       <defs>
        <path id="DejaVuSans-37" d="M 525 4666 
L 3525 4666 
L 3525 4397 
L 1831 0 
L 1172 0 
L 2766 4134 
L 525 4134 
L 525 4666 
z
" transform="scale(0.015625)"/>
       </defs>
       <use xlink:href="#DejaVuSans-37"/>
      </g>
     </g>
    </g>
    <g id="xtick_9">
     <g id="line2d_9">
      <g>
       <use xlink:href="#m321d2ab6c3" x="1128.6" y="640.8" style="stroke: #000000; stroke-width: 0.8"/>
      </g>
     </g>
     <g id="text_9">
      <!-- 8 -->
      <g transform="translate(1125.41875 655.398438) scale(0.1 -0.1)">
       <defs>
        <path id="DejaVuSans-38" d="M 2034 2216 
Q 1584 2216 1326 1975 
Q 1069 1734 1069 1313 
Q 1069 891 1326 650 
Q 1584 409 2034 409 
Q 2484 409 2743 651 
Q 3003 894 3003 1313 
Q 3003 1734 2745 1975 
Q 2488 2216 2034 2216 
z
M 1403 2484 
Q 997 2584 770 2862 
Q 544 3141 544 3541 
Q 544 4100 942 4425 
Q 1341 4750 2034 4750 
Q 2731 4750 3128 4425 
Q 3525 4100 3525 3541 
Q 3525 3141 3298 2862 
Q 3072 2584 2669 2484 
Q 3125 2378 3379 2068 
Q 3634 1759 3634 1313 
Q 3634 634 3220 271 
Q 2806 -91 2034 -91 
Q 1263 -91 848 271 
Q 434 634 434 1313 
Q 434 1759 690 2068 
Q 947 2378 1403 2484 
z
M 1172 3481 
Q 1172 3119 1398 2916 
Q 1625 2713 2034 2713 
Q 2441 2713 2670 2916 
Q 2900 3119 2900 3481 
Q 2900 3844 2670 4047 
Q 2441 4250 2034 4250 
Q 1625 4250 1398 4047 
Q 1172 3844 1172 3481 
z
" transform="scale(0.015625)"/>
       </defs>
       <use xlink:href="#DejaVuSans-38"/>
      </g>
     </g>
    </g>
    <g id="xtick_10">
     <g id="line2d_10">
      <g>
       <use xlink:href="#m321d2ab6c3" x="1240.2" y="640.8" style="stroke: #000000; stroke-width: 0.8"/>
      </g>
     </g>
     <g id="text_10">
      <!-- 9 -->
      <g transform="translate(1237.01875 655.398438) scale(0.1 -0.1)">
       <defs>
        <path id="DejaVuSans-39" d="M 703 97 
L 703 672 
Q 941 559 1184 500 
Q 1428 441 1663 441 
Q 2288 441 2617 861 
Q 2947 1281 2994 2138 
Q 2813 1869 2534 1725 
Q 2256 1581 1919 1581 
Q 1219 1581 811 2004 
Q 403 2428 403 3163 
Q 403 3881 828 4315 
Q 1253 4750 1959 4750 
Q 2769 4750 3195 4129 
Q 3622 3509 3622 2328 
Q 3622 1225 3098 567 
Q 2575 -91 1691 -91 
Q 1453 -91 1209 -44 
Q 966 3 703 97 
z
M 1959 2075 
Q 2384 2075 2632 2365 
Q 2881 2656 2881 3163 
Q 2881 3666 2632 3958 
Q 2384 4250 1959 4250 
Q 1534 4250 1286 3958 
Q 1038 3666 1038 3163 
Q 1038 2656 1286 2365 
Q 1534 2075 1959 2075 
z
" transform="scale(0.015625)"/>
       </defs>
       <use xlink:href="#DejaVuSans-39"/>
      </g>
     </g>
    </g>
    <g id="text_11">
     <!-- iteration -->
     <g transform="translate(716.877344 669.076563) scale(0.1 -0.1)">
      <defs>
       <path id="DejaVuSans-69" d="M 603 3500 
L 1178 3500 
L 1178 0 
L 603 0 
L 603 3500 
z
M 603 4863 
L 1178 4863 
L 1178 4134 
L 603 4134 
L 603 4863 
z
" transform="scale(0.015625)"/>
       <path id="DejaVuSans-74" d="M 1172 4494 
L 1172 3500 
L 2356 3500 
L 2356 3053 
L 1172 3053 
L 1172 1153 
Q 1172 725 1289 603 
Q 1406 481 1766 481 
L 2356 481 
L 2356 0 
L 1766 0 
Q 1100 0 847 248 
Q 594 497 594 1153 
L 594 3053 
L 172 3053 
L 172 3500 
L 594 3500 
L 594 4494 
L 1172 4494 
z
" transform="scale(0.015625)"/>
       <path id="DejaVuSans-65" d="M 3597 1894 
L 3597 1613 
L 953 1613 
Q 991 1019 1311 708 
Q 1631 397 2203 397 
Q 2534 397 2845 478 
Q 3156 559 3463 722 
L 3463 178 
Q 3153 47 2828 -22 
Q 2503 -91 2169 -91 
Q 1331 -91 842 396 
Q 353 884 353 1716 
Q 353 2575 817 3079 
Q 1281 3584 2069 3584 
Q 2775 3584 3186 3129 
Q 3597 2675 3597 1894 
z
M 3022 2063 
Q 3016 2534 2758 2815 
Q 2500 3097 2075 3097 
Q 1594 3097 1305 2825 
Q 1016 2553 972 2059 
L 3022 2063 
z
" transform="scale(0.015625)"/>
       <path id="DejaVuSans-72" d="M 2631 2963 
Q 2534 3019 2420 3045 
Q 2306 3072 2169 3072 
Q 1681 3072 1420 2755 
Q 1159 2438 1159 1844 
L 1159 0 
L 581 0 
L 581 3500 
L 1159 3500 
L 1159 2956 
Q 1341 3275 1631 3429 
Q 1922 3584 2338 3584 
Q 2397 3584 2469 3576 
Q 2541 3569 2628 3553 
L 2631 2963 
z
" transform="scale(0.015625)"/>
       <path id="DejaVuSans-61" d="M 2194 1759 
Q 1497 1759 1228 1600 
Q 959 1441 959 1056 
Q 959 750 1161 570 
Q 1363 391 1709 391 
Q 2188 391 2477 730 
Q 2766 1069 2766 1631 
L 2766 1759 
L 2194 1759 
z
M 3341 1997 
L 3341 0 
L 2766 0 
L 2766 531 
Q 2569 213 2275 61 
Q 1981 -91 1556 -91 
Q 1019 -91 701 211 
Q 384 513 384 1019 
Q 384 1609 779 1909 
Q 1175 2209 1959 2209 
L 2766 2209 
L 2766 2266 
Q 2766 2663 2505 2880 
Q 2244 3097 1772 3097 
Q 1472 3097 1187 3025 
Q 903 2953 641 2809 
L 641 3341 
Q 956 3463 1253 3523 
Q 1550 3584 1831 3584 
Q 2591 3584 2966 3190 
Q 3341 2797 3341 1997 
z
" transform="scale(0.015625)"/>
       <path id="DejaVuSans-6f" d="M 1959 3097 
Q 1497 3097 1228 2736 
Q 959 2375 959 1747 
Q 959 1119 1226 758 
Q 1494 397 1959 397 
Q 2419 397 2687 759 
Q 2956 1122 2956 1747 
Q 2956 2369 2687 2733 
Q 2419 3097 1959 3097 
z
M 1959 3584 
Q 2709 3584 3137 3096 
Q 3566 2609 3566 1747 
Q 3566 888 3137 398 
Q 2709 -91 1959 -91 
Q 1206 -91 779 398 
Q 353 888 353 1747 
Q 353 2609 779 3096 
Q 1206 3584 1959 3584 
z
" transform="scale(0.015625)"/>
       <path id="DejaVuSans-6e" d="M 3513 2113 
L 3513 0 
L 2938 0 
L 2938 2094 
Q 2938 2591 2744 2837 
Q 2550 3084 2163 3084 
Q 1697 3084 1428 2787 
Q 1159 2491 1159 1978 
L 1159 0 
L 581 0 
L 581 3500 
L 1159 3500 
L 1159 2956 
Q 1366 3272 1645 3428 
Q 1925 3584 2291 3584 
Q 2894 3584 3203 3211 
Q 3513 2838 3513 2113 
z
" transform="scale(0.015625)"/>
      </defs>
      <use xlink:href="#DejaVuSans-69"/>
      <use xlink:href="#DejaVuSans-74" x="27.783203"/>
      <use xlink:href="#DejaVuSans-65" x="66.992188"/>
      <use xlink:href="#DejaVuSans-72" x="128.515625"/>
      <use xlink:href="#DejaVuSans-61" x="169.628906"/>
      <use xlink:href="#DejaVuSans-74" x="230.908203"/>
      <use xlink:href="#DejaVuSans-69" x="270.117188"/>
      <use xlink:href="#DejaVuSans-6f" x="297.900391"/>
      <use xlink:href="#DejaVuSans-6e" x="359.082031"/>
     </g>
    </g>
   </g>
   <g id="matplotlib.axis_2">
    <g id="ytick_1">
     <g id="line2d_11">
      <defs>
       <path id="mb576d6ed62" d="M 0 0 
L -3.5 0 
" style="stroke: #000000; stroke-width: 0.8"/>
      </defs>
      <g>
       <use xlink:href="#mb576d6ed62" x="180" y="592.864385" style="stroke: #000000; stroke-width: 0.8"/>
      </g>
     </g>
     <g id="text_12">
      <!-- 0.2 -->
      <g transform="translate(148.717187 596.663604) scale(0.1 -0.1)">
       <defs>
        <path id="DejaVuSans-2212" d="M 678 2272 
L 4684 2272 
L 4684 1741 
L 678 1741 
L 678 2272 
z
" transform="scale(0.015625)"/>
        <path id="DejaVuSans-2e" d="M 684 794 
L 1344 794 
L 1344 0 
L 684 0 
L 684 794 
z
" transform="scale(0.015625)"/>
       </defs>
       <use xlink:href="#DejaVuSans-2212"/>
       <use xlink:href="#DejaVuSans-30" x="83.789062"/>
       <use xlink:href="#DejaVuSans-2e" x="147.412109"/>
       <use xlink:href="#DejaVuSans-32" x="179.199219"/>
      </g>
     </g>
    </g>
    <g id="ytick_2">
     <g id="line2d_12">
      <g>
       <use xlink:href="#mb576d6ed62" x="180" y="477.412031" style="stroke: #000000; stroke-width: 0.8"/>
      </g>
     </g>
     <g id="text_13">
      <!-- 0.0 -->
      <g transform="translate(157.096875 481.21125) scale(0.1 -0.1)">
       <use xlink:href="#DejaVuSans-30"/>
       <use xlink:href="#DejaVuSans-2e" x="63.623047"/>
       <use xlink:href="#DejaVuSans-30" x="95.410156"/>
      </g>
     </g>
    </g>
    <g id="ytick_3">
     <g id="line2d_13">
      <g>
       <use xlink:href="#mb576d6ed62" x="180" y="361.959677" style="stroke: #000000; stroke-width: 0.8"/>
      </g>
     </g>
     <g id="text_14">
      <!-- 0.2 -->
      <g transform="translate(157.096875 365.758896) scale(0.1 -0.1)">
       <use xlink:href="#DejaVuSans-30"/>
       <use xlink:href="#DejaVuSans-2e" x="63.623047"/>
       <use xlink:href="#DejaVuSans-32" x="95.410156"/>
      </g>
     </g>
    </g>
    <g id="ytick_4">
     <g id="line2d_14">
      <g>
       <use xlink:href="#mb576d6ed62" x="180" y="246.507323" style="stroke: #000000; stroke-width: 0.8"/>
      </g>
     </g>
     <g id="text_15">
      <!-- 0.4 -->
      <g transform="translate(157.096875 250.306542) scale(0.1 -0.1)">
       <use xlink:href="#DejaVuSans-30"/>
       <use xlink:href="#DejaVuSans-2e" x="63.623047"/>
       <use xlink:href="#DejaVuSans-34" x="95.410156"/>
      </g>
     </g>
    </g>
    <g id="ytick_5">
     <g id="line2d_15">
      <g>
       <use xlink:href="#mb576d6ed62" x="180" y="131.054969" style="stroke: #000000; stroke-width: 0.8"/>
      </g>
     </g>
     <g id="text_16">
      <!-- 0.6 -->
      <g transform="translate(157.096875 134.854188) scale(0.1 -0.1)">
       <use xlink:href="#DejaVuSans-30"/>
       <use xlink:href="#DejaVuSans-2e" x="63.623047"/>
       <use xlink:href="#DejaVuSans-36" x="95.410156"/>
      </g>
     </g>
    </g>
    <g id="text_17">
     <!-- cosine similarity -->
     <g transform="translate(142.6375 404.307031) rotate(-90) scale(0.1 -0.1)">
      <defs>
       <path id="DejaVuSans-63" d="M 3122 3366 
L 3122 2828 
Q 2878 2963 2633 3030 
Q 2388 3097 2138 3097 
Q 1578 3097 1268 2742 
Q 959 2388 959 1747 
Q 959 1106 1268 751 
Q 1578 397 2138 397 
Q 2388 397 2633 464 
Q 2878 531 3122 666 
L 3122 134 
Q 2881 22 2623 -34 
Q 2366 -91 2075 -91 
Q 1284 -91 818 406 
Q 353 903 353 1747 
Q 353 2603 823 3093 
Q 1294 3584 2113 3584 
Q 2378 3584 2631 3529 
Q 2884 3475 3122 3366 
z
" transform="scale(0.015625)"/>
       <path id="DejaVuSans-73" d="M 2834 3397 
L 2834 2853 
Q 2591 2978 2328 3040 
Q 2066 3103 1784 3103 
Q 1356 3103 1142 2972 
Q 928 2841 928 2578 
Q 928 2378 1081 2264 
Q 1234 2150 1697 2047 
L 1894 2003 
Q 2506 1872 2764 1633 
Q 3022 1394 3022 966 
Q 3022 478 2636 193 
Q 2250 -91 1575 -91 
Q 1294 -91 989 -36 
Q 684 19 347 128 
L 347 722 
Q 666 556 975 473 
Q 1284 391 1588 391 
Q 1994 391 2212 530 
Q 2431 669 2431 922 
Q 2431 1156 2273 1281 
Q 2116 1406 1581 1522 
L 1381 1569 
Q 847 1681 609 1914 
Q 372 2147 372 2553 
Q 372 3047 722 3315 
Q 1072 3584 1716 3584 
Q 2034 3584 2315 3537 
Q 2597 3491 2834 3397 
z
" transform="scale(0.015625)"/>
       <path id="DejaVuSans-20" transform="scale(0.015625)"/>
       <path id="DejaVuSans-6d" d="M 3328 2828 
Q 3544 3216 3844 3400 
Q 4144 3584 4550 3584 
Q 5097 3584 5394 3201 
Q 5691 2819 5691 2113 
L 5691 0 
L 5113 0 
L 5113 2094 
Q 5113 2597 4934 2840 
Q 4756 3084 4391 3084 
Q 3944 3084 3684 2787 
Q 3425 2491 3425 1978 
L 3425 0 
L 2847 0 
L 2847 2094 
Q 2847 2600 2669 2842 
Q 2491 3084 2119 3084 
Q 1678 3084 1418 2786 
Q 1159 2488 1159 1978 
L 1159 0 
L 581 0 
L 581 3500 
L 1159 3500 
L 1159 2956 
Q 1356 3278 1631 3431 
Q 1906 3584 2284 3584 
Q 2666 3584 2933 3390 
Q 3200 3197 3328 2828 
z
" transform="scale(0.015625)"/>
       <path id="DejaVuSans-6c" d="M 603 4863 
L 1178 4863 
L 1178 0 
L 603 0 
L 603 4863 
z
" transform="scale(0.015625)"/>
       <path id="DejaVuSans-79" d="M 2059 -325 
Q 1816 -950 1584 -1140 
Q 1353 -1331 966 -1331 
L 506 -1331 
L 506 -850 
L 844 -850 
Q 1081 -850 1212 -737 
Q 1344 -625 1503 -206 
L 1606 56 
L 191 3500 
L 800 3500 
L 1894 763 
L 2988 3500 
L 3597 3500 
L 2059 -325 
z
" transform="scale(0.015625)"/>
      </defs>
      <use xlink:href="#DejaVuSans-63"/>
      <use xlink:href="#DejaVuSans-6f" x="54.980469"/>
      <use xlink:href="#DejaVuSans-73" x="116.162109"/>
      <use xlink:href="#DejaVuSans-69" x="168.261719"/>
      <use xlink:href="#DejaVuSans-6e" x="196.044922"/>
      <use xlink:href="#DejaVuSans-65" x="259.423828"/>
      <use xlink:href="#DejaVuSans-20" x="320.947266"/>
      <use xlink:href="#DejaVuSans-73" x="352.734375"/>
      <use xlink:href="#DejaVuSans-69" x="404.833984"/>
      <use xlink:href="#DejaVuSans-6d" x="432.617188"/>
      <use xlink:href="#DejaVuSans-69" x="530.029297"/>
      <use xlink:href="#DejaVuSans-6c" x="557.8125"/>
      <use xlink:href="#DejaVuSans-61" x="585.595703"/>
      <use xlink:href="#DejaVuSans-72" x="646.875"/>
      <use xlink:href="#DejaVuSans-69" x="687.988281"/>
      <use xlink:href="#DejaVuSans-74" x="715.771484"/>
      <use xlink:href="#DejaVuSans-79" x="754.980469"/>
     </g>
    </g>
   </g>
   <g id="line2d_16">
    <path d="M 235.8 551.446431 
L 235.8 245.611263 
" clip-path="url(#p49f847fdf9)" style="fill: none; stroke: #3f3f3f; stroke-width: 1.875; stroke-linecap: square"/>
   </g>
   <g id="line2d_17">
    <path d="M 235.8 462.492053 
L 235.8 375.685887 
" clip-path="url(#p49f847fdf9)" style="fill: none; stroke: #3f3f3f; stroke-width: 5.625; stroke-linecap: square"/>
   </g>
   <g id="line2d_18">
    <path d="M 235.8 420.855016 
" clip-path="url(#p49f847fdf9)" style="fill: none; stroke: #3f3f3f; stroke-width: 1.5; stroke-linecap: square"/>
    <defs>
     <path id="mf1aedd0918" d="M 2.34375 0 
L -2.34375 -0 
" style="stroke: #ffffff; stroke-width: 1.125"/>
    </defs>
    <g clip-path="url(#p49f847fdf9)">
     <use xlink:href="#mf1aedd0918" x="235.8" y="420.855016" style="fill: #ffffff; stroke: #ffffff; stroke-width: 1.125"/>
    </g>
   </g>
   <g id="line2d_19">
    <path d="M 347.4 582.882329 
L 347.4 243.586589 
" clip-path="url(#p49f847fdf9)" style="fill: none; stroke: #3f3f3f; stroke-width: 1.875; stroke-linecap: square"/>
   </g>
   <g id="line2d_20">
    <path d="M 347.4 458.898453 
L 347.4 372.192375 
" clip-path="url(#p49f847fdf9)" style="fill: none; stroke: #3f3f3f; stroke-width: 5.625; stroke-linecap: square"/>
   </g>
   <g id="line2d_21">
    <path d="M 347.4 416.610225 
" clip-path="url(#p49f847fdf9)" style="fill: none; stroke: #3f3f3f; stroke-width: 1.5; stroke-linecap: square"/>
    <g clip-path="url(#p49f847fdf9)">
     <use xlink:href="#mf1aedd0918" x="347.4" y="416.610225" style="fill: #ffffff; stroke: #ffffff; stroke-width: 1.125"/>
    </g>
   </g>
   <g id="line2d_22">
    <path d="M 459 582.882329 
L 459 243.586589 
" clip-path="url(#p49f847fdf9)" style="fill: none; stroke: #3f3f3f; stroke-width: 1.875; stroke-linecap: square"/>
   </g>
   <g id="line2d_23">
    <path d="M 459 459.775265 
L 459 372.033593 
" clip-path="url(#p49f847fdf9)" style="fill: none; stroke: #3f3f3f; stroke-width: 5.625; stroke-linecap: square"/>
   </g>
   <g id="line2d_24">
    <path d="M 459 415.685111 
" clip-path="url(#p49f847fdf9)" style="fill: none; stroke: #3f3f3f; stroke-width: 1.5; stroke-linecap: square"/>
    <g clip-path="url(#p49f847fdf9)">
     <use xlink:href="#mf1aedd0918" x="459" y="415.685111" style="fill: #ffffff; stroke: #ffffff; stroke-width: 1.125"/>
    </g>
   </g>
   <g id="line2d_25">
    <path d="M 570.6 564.750196 
L 570.6 240.204987 
" clip-path="url(#p49f847fdf9)" style="fill: none; stroke: #3f3f3f; stroke-width: 1.875; stroke-linecap: square"/>
   </g>
   <g id="line2d_26">
    <path d="M 570.6 459.796086 
L 570.6 371.29729 
" clip-path="url(#p49f847fdf9)" style="fill: none; stroke: #3f3f3f; stroke-width: 5.625; stroke-linecap: square"/>
   </g>
   <g id="line2d_27">
    <path d="M 570.6 416.415956 
" clip-path="url(#p49f847fdf9)" style="fill: none; stroke: #3f3f3f; stroke-width: 1.5; stroke-linecap: square"/>
    <g clip-path="url(#p49f847fdf9)">
     <use xlink:href="#mf1aedd0918" x="570.6" y="416.415956" style="fill: #ffffff; stroke: #ffffff; stroke-width: 1.125"/>
    </g>
   </g>
   <g id="line2d_28">
    <path d="M 682.2 564.750196 
L 682.2 234.490317 
" clip-path="url(#p49f847fdf9)" style="fill: none; stroke: #3f3f3f; stroke-width: 1.875; stroke-linecap: square"/>
   </g>
   <g id="line2d_29">
    <path d="M 682.2 461.048084 
L 682.2 369.423338 
" clip-path="url(#p49f847fdf9)" style="fill: none; stroke: #3f3f3f; stroke-width: 5.625; stroke-linecap: square"/>
   </g>
   <g id="line2d_30">
    <path d="M 682.2 417.301088 
" clip-path="url(#p49f847fdf9)" style="fill: none; stroke: #3f3f3f; stroke-width: 1.5; stroke-linecap: square"/>
    <g clip-path="url(#p49f847fdf9)">
     <use xlink:href="#mf1aedd0918" x="682.2" y="417.301088" style="fill: #ffffff; stroke: #ffffff; stroke-width: 1.125"/>
    </g>
   </g>
   <g id="line2d_31">
    <path d="M 793.8 583.082589 
L 793.8 232.482813 
" clip-path="url(#p49f847fdf9)" style="fill: none; stroke: #3f3f3f; stroke-width: 1.875; stroke-linecap: square"/>
   </g>
   <g id="line2d_32">
    <path d="M 793.8 461.233636 
L 793.8 369.423338 
" clip-path="url(#p49f847fdf9)" style="fill: none; stroke: #3f3f3f; stroke-width: 5.625; stroke-linecap: square"/>
   </g>
   <g id="line2d_33">
    <path d="M 793.8 418.480022 
" clip-path="url(#p49f847fdf9)" style="fill: none; stroke: #3f3f3f; stroke-width: 1.5; stroke-linecap: square"/>
    <g clip-path="url(#p49f847fdf9)">
     <use xlink:href="#mf1aedd0918" x="793.8" y="418.480022" style="fill: #ffffff; stroke: #ffffff; stroke-width: 1.125"/>
    </g>
   </g>
   <g id="line2d_34">
    <path d="M 905.4 583.082589 
L 905.4 235.358332 
" clip-path="url(#p49f847fdf9)" style="fill: none; stroke: #3f3f3f; stroke-width: 1.875; stroke-linecap: square"/>
   </g>
   <g id="line2d_35">
    <path d="M 905.4 460.949315 
L 905.4 370.452741 
" clip-path="url(#p49f847fdf9)" style="fill: none; stroke: #3f3f3f; stroke-width: 5.625; stroke-linecap: square"/>
   </g>
   <g id="line2d_36">
    <path d="M 905.4 418.480022 
" clip-path="url(#p49f847fdf9)" style="fill: none; stroke: #3f3f3f; stroke-width: 1.5; stroke-linecap: square"/>
    <g clip-path="url(#p49f847fdf9)">
     <use xlink:href="#mf1aedd0918" x="905.4" y="418.480022" style="fill: #ffffff; stroke: #ffffff; stroke-width: 1.125"/>
    </g>
   </g>
   <g id="line2d_37">
    <path d="M 1017 564.750196 
L 1017 240.204987 
" clip-path="url(#p49f847fdf9)" style="fill: none; stroke: #3f3f3f; stroke-width: 1.875; stroke-linecap: square"/>
   </g>
   <g id="line2d_38">
    <path d="M 1017 461.927808 
L 1017 372.155447 
" clip-path="url(#p49f847fdf9)" style="fill: none; stroke: #3f3f3f; stroke-width: 5.625; stroke-linecap: square"/>
   </g>
   <g id="line2d_39">
    <path d="M 1017 421.329882 
" clip-path="url(#p49f847fdf9)" style="fill: none; stroke: #3f3f3f; stroke-width: 1.5; stroke-linecap: square"/>
    <g clip-path="url(#p49f847fdf9)">
     <use xlink:href="#mf1aedd0918" x="1017" y="421.329882" style="fill: #ffffff; stroke: #ffffff; stroke-width: 1.125"/>
    </g>
   </g>
   <g id="line2d_40">
    <path d="M 1128.6 573.200709 
L 1128.6 240.506466 
" clip-path="url(#p49f847fdf9)" style="fill: none; stroke: #3f3f3f; stroke-width: 1.875; stroke-linecap: square"/>
   </g>
   <g id="line2d_41">
    <path d="M 1128.6 461.335762 
L 1128.6 372.36726 
" clip-path="url(#p49f847fdf9)" style="fill: none; stroke: #3f3f3f; stroke-width: 5.625; stroke-linecap: square"/>
   </g>
   <g id="line2d_42">
    <path d="M 1128.6 419.523485 
" clip-path="url(#p49f847fdf9)" style="fill: none; stroke: #3f3f3f; stroke-width: 1.5; stroke-linecap: square"/>
    <g clip-path="url(#p49f847fdf9)">
     <use xlink:href="#mf1aedd0918" x="1128.6" y="419.523485" style="fill: #ffffff; stroke: #ffffff; stroke-width: 1.125"/>
    </g>
   </g>
   <g id="line2d_43">
    <path d="M 1240.2 573.200709 
L 1240.2 248.56241 
" clip-path="url(#p49f847fdf9)" style="fill: none; stroke: #3f3f3f; stroke-width: 1.875; stroke-linecap: square"/>
   </g>
   <g id="line2d_44">
    <path d="M 1240.2 461.583631 
L 1240.2 373.010284 
" clip-path="url(#p49f847fdf9)" style="fill: none; stroke: #3f3f3f; stroke-width: 5.625; stroke-linecap: square"/>
   </g>
   <g id="line2d_45">
    <path d="M 1240.2 420.811413 
" clip-path="url(#p49f847fdf9)" style="fill: none; stroke: #3f3f3f; stroke-width: 1.5; stroke-linecap: square"/>
    <g clip-path="url(#p49f847fdf9)">
     <use xlink:href="#mf1aedd0918" x="1240.2" y="420.811413" style="fill: #ffffff; stroke: #ffffff; stroke-width: 1.125"/>
    </g>
   </g>
   <g id="patch_3">
    <path d="M 180 640.8 
L 180 86.4 
" style="fill: none; stroke: #000000; stroke-width: 0.8; stroke-linejoin: miter; stroke-linecap: square"/>
   </g>
   <g id="patch_4">
    <path d="M 1296 640.8 
L 1296 86.4 
" style="fill: none; stroke: #000000; stroke-width: 0.8; stroke-linejoin: miter; stroke-linecap: square"/>
   </g>
   <g id="patch_5">
    <path d="M 180 640.8 
L 1296 640.8 
" style="fill: none; stroke: #000000; stroke-width: 0.8; stroke-linejoin: miter; stroke-linecap: square"/>
   </g>
   <g id="patch_6">
    <path d="M 180 86.4 
L 1296 86.4 
" style="fill: none; stroke: #000000; stroke-width: 0.8; stroke-linejoin: miter; stroke-linecap: square"/>
   </g>
   <g id="text_18">
    <!-- cosine similarity of mem_no-fs (distanceFromInitialPrompt), by iteration -->
    <g transform="translate(522.7575 80.4) scale(0.12 -0.12)">
     <defs>
      <path id="DejaVuSans-66" d="M 2375 4863 
L 2375 4384 
L 1825 4384 
Q 1516 4384 1395 4259 
Q 1275 4134 1275 3809 
L 1275 3500 
L 2222 3500 
L 2222 3053 
L 1275 3053 
L 1275 0 
L 697 0 
L 697 3053 
L 147 3053 
L 147 3500 
L 697 3500 
L 697 3744 
Q 697 4328 969 4595 
Q 1241 4863 1831 4863 
L 2375 4863 
z
" transform="scale(0.015625)"/>
      <path id="DejaVuSans-5f" d="M 3263 -1063 
L 3263 -1509 
L -63 -1509 
L -63 -1063 
L 3263 -1063 
z
" transform="scale(0.015625)"/>
      <path id="DejaVuSans-2d" d="M 313 2009 
L 1997 2009 
L 1997 1497 
L 313 1497 
L 313 2009 
z
" transform="scale(0.015625)"/>
      <path id="DejaVuSans-28" d="M 1984 4856 
Q 1566 4138 1362 3434 
Q 1159 2731 1159 2009 
Q 1159 1288 1364 580 
Q 1569 -128 1984 -844 
L 1484 -844 
Q 1016 -109 783 600 
Q 550 1309 550 2009 
Q 550 2706 781 3412 
Q 1013 4119 1484 4856 
L 1984 4856 
z
" transform="scale(0.015625)"/>
      <path id="DejaVuSans-64" d="M 2906 2969 
L 2906 4863 
L 3481 4863 
L 3481 0 
L 2906 0 
L 2906 525 
Q 2725 213 2448 61 
Q 2172 -91 1784 -91 
Q 1150 -91 751 415 
Q 353 922 353 1747 
Q 353 2572 751 3078 
Q 1150 3584 1784 3584 
Q 2172 3584 2448 3432 
Q 2725 3281 2906 2969 
z
M 947 1747 
Q 947 1113 1208 752 
Q 1469 391 1925 391 
Q 2381 391 2643 752 
Q 2906 1113 2906 1747 
Q 2906 2381 2643 2742 
Q 2381 3103 1925 3103 
Q 1469 3103 1208 2742 
Q 947 2381 947 1747 
z
" transform="scale(0.015625)"/>
      <path id="DejaVuSans-46" d="M 628 4666 
L 3309 4666 
L 3309 4134 
L 1259 4134 
L 1259 2759 
L 3109 2759 
L 3109 2228 
L 1259 2228 
L 1259 0 
L 628 0 
L 628 4666 
z
" transform="scale(0.015625)"/>
      <path id="DejaVuSans-49" d="M 628 4666 
L 1259 4666 
L 1259 0 
L 628 0 
L 628 4666 
z
" transform="scale(0.015625)"/>
      <path id="DejaVuSans-50" d="M 1259 4147 
L 1259 2394 
L 2053 2394 
Q 2494 2394 2734 2622 
Q 2975 2850 2975 3272 
Q 2975 3691 2734 3919 
Q 2494 4147 2053 4147 
L 1259 4147 
z
M 628 4666 
L 2053 4666 
Q 2838 4666 3239 4311 
Q 3641 3956 3641 3272 
Q 3641 2581 3239 2228 
Q 2838 1875 2053 1875 
L 1259 1875 
L 1259 0 
L 628 0 
L 628 4666 
z
" transform="scale(0.015625)"/>
      <path id="DejaVuSans-70" d="M 1159 525 
L 1159 -1331 
L 581 -1331 
L 581 3500 
L 1159 3500 
L 1159 2969 
Q 1341 3281 1617 3432 
Q 1894 3584 2278 3584 
Q 2916 3584 3314 3078 
Q 3713 2572 3713 1747 
Q 3713 922 3314 415 
Q 2916 -91 2278 -91 
Q 1894 -91 1617 61 
Q 1341 213 1159 525 
z
M 3116 1747 
Q 3116 2381 2855 2742 
Q 2594 3103 2138 3103 
Q 1681 3103 1420 2742 
Q 1159 2381 1159 1747 
Q 1159 1113 1420 752 
Q 1681 391 2138 391 
Q 2594 391 2855 752 
Q 3116 1113 3116 1747 
z
" transform="scale(0.015625)"/>
      <path id="DejaVuSans-29" d="M 513 4856 
L 1013 4856 
Q 1481 4119 1714 3412 
Q 1947 2706 1947 2009 
Q 1947 1309 1714 600 
Q 1481 -109 1013 -844 
L 513 -844 
Q 928 -128 1133 580 
Q 1338 1288 1338 2009 
Q 1338 2731 1133 3434 
Q 928 4138 513 4856 
z
" transform="scale(0.015625)"/>
      <path id="DejaVuSans-2c" d="M 750 794 
L 1409 794 
L 1409 256 
L 897 -744 
L 494 -744 
L 750 256 
L 750 794 
z
" transform="scale(0.015625)"/>
      <path id="DejaVuSans-62" d="M 3116 1747 
Q 3116 2381 2855 2742 
Q 2594 3103 2138 3103 
Q 1681 3103 1420 2742 
Q 1159 2381 1159 1747 
Q 1159 1113 1420 752 
Q 1681 391 2138 391 
Q 2594 391 2855 752 
Q 3116 1113 3116 1747 
z
M 1159 2969 
Q 1341 3281 1617 3432 
Q 1894 3584 2278 3584 
Q 2916 3584 3314 3078 
Q 3713 2572 3713 1747 
Q 3713 922 3314 415 
Q 2916 -91 2278 -91 
Q 1894 -91 1617 61 
Q 1341 213 1159 525 
L 1159 0 
L 581 0 
L 581 4863 
L 1159 4863 
L 1159 2969 
z
" transform="scale(0.015625)"/>
     </defs>
     <use xlink:href="#DejaVuSans-63"/>
     <use xlink:href="#DejaVuSans-6f" x="54.980469"/>
     <use xlink:href="#DejaVuSans-73" x="116.162109"/>
     <use xlink:href="#DejaVuSans-69" x="168.261719"/>
     <use xlink:href="#DejaVuSans-6e" x="196.044922"/>
     <use xlink:href="#DejaVuSans-65" x="259.423828"/>
     <use xlink:href="#DejaVuSans-20" x="320.947266"/>
     <use xlink:href="#DejaVuSans-73" x="352.734375"/>
     <use xlink:href="#DejaVuSans-69" x="404.833984"/>
     <use xlink:href="#DejaVuSans-6d" x="432.617188"/>
     <use xlink:href="#DejaVuSans-69" x="530.029297"/>
     <use xlink:href="#DejaVuSans-6c" x="557.8125"/>
     <use xlink:href="#DejaVuSans-61" x="585.595703"/>
     <use xlink:href="#DejaVuSans-72" x="646.875"/>
     <use xlink:href="#DejaVuSans-69" x="687.988281"/>
     <use xlink:href="#DejaVuSans-74" x="715.771484"/>
     <use xlink:href="#DejaVuSans-79" x="754.980469"/>
     <use xlink:href="#DejaVuSans-20" x="814.160156"/>
     <use xlink:href="#DejaVuSans-6f" x="845.947266"/>
     <use xlink:href="#DejaVuSans-66" x="907.128906"/>
     <use xlink:href="#DejaVuSans-20" x="942.333984"/>
     <use xlink:href="#DejaVuSans-6d" x="974.121094"/>
     <use xlink:href="#DejaVuSans-65" x="1071.533203"/>
     <use xlink:href="#DejaVuSans-6d" x="1133.056641"/>
     <use xlink:href="#DejaVuSans-5f" x="1230.46875"/>
     <use xlink:href="#DejaVuSans-6e" x="1280.46875"/>
     <use xlink:href="#DejaVuSans-6f" x="1343.847656"/>
     <use xlink:href="#DejaVuSans-2d" x="1406.904297"/>
     <use xlink:href="#DejaVuSans-66" x="1442.988281"/>
     <use xlink:href="#DejaVuSans-73" x="1478.193359"/>
     <use xlink:href="#DejaVuSans-20" x="1530.292969"/>
     <use xlink:href="#DejaVuSans-28" x="1562.080078"/>
     <use xlink:href="#DejaVuSans-64" x="1601.09375"/>
     <use xlink:href="#DejaVuSans-69" x="1664.570312"/>
     <use xlink:href="#DejaVuSans-73" x="1692.353516"/>
     <use xlink:href="#DejaVuSans-74" x="1744.453125"/>
     <use xlink:href="#DejaVuSans-61" x="1783.662109"/>
     <use xlink:href="#DejaVuSans-6e" x="1844.941406"/>
     <use xlink:href="#DejaVuSans-63" x="1908.320312"/>
     <use xlink:href="#DejaVuSans-65" x="1963.300781"/>
     <use xlink:href="#DejaVuSans-46" x="2024.824219"/>
     <use xlink:href="#DejaVuSans-72" x="2075.09375"/>
     <use xlink:href="#DejaVuSans-6f" x="2113.957031"/>
     <use xlink:href="#DejaVuSans-6d" x="2175.138672"/>
     <use xlink:href="#DejaVuSans-49" x="2272.550781"/>
     <use xlink:href="#DejaVuSans-6e" x="2302.042969"/>
     <use xlink:href="#DejaVuSans-69" x="2365.421875"/>
     <use xlink:href="#DejaVuSans-74" x="2393.205078"/>
     <use xlink:href="#DejaVuSans-69" x="2432.414062"/>
     <use xlink:href="#DejaVuSans-61" x="2460.197266"/>
     <use xlink:href="#DejaVuSans-6c" x="2521.476562"/>
     <use xlink:href="#DejaVuSans-50" x="2549.259766"/>
     <use xlink:href="#DejaVuSans-72" x="2607.8125"/>
     <use xlink:href="#DejaVuSans-6f" x="2646.675781"/>
     <use xlink:href="#DejaVuSans-6d" x="2707.857422"/>
     <use xlink:href="#DejaVuSans-70" x="2805.269531"/>
     <use xlink:href="#DejaVuSans-74" x="2868.746094"/>
     <use xlink:href="#DejaVuSans-29" x="2907.955078"/>
     <use xlink:href="#DejaVuSans-2c" x="2946.96875"/>
     <use xlink:href="#DejaVuSans-20" x="2978.755859"/>
     <use xlink:href="#DejaVuSans-62" x="3010.542969"/>
     <use xlink:href="#DejaVuSans-79" x="3074.019531"/>
     <use xlink:href="#DejaVuSans-20" x="3133.199219"/>
     <use xlink:href="#DejaVuSans-69" x="3164.986328"/>
     <use xlink:href="#DejaVuSans-74" x="3192.769531"/>
     <use xlink:href="#DejaVuSans-65" x="3231.978516"/>
     <use xlink:href="#DejaVuSans-72" x="3293.501953"/>
     <use xlink:href="#DejaVuSans-61" x="3334.615234"/>
     <use xlink:href="#DejaVuSans-74" x="3395.894531"/>
     <use xlink:href="#DejaVuSans-69" x="3435.103516"/>
     <use xlink:href="#DejaVuSans-6f" x="3462.886719"/>
     <use xlink:href="#DejaVuSans-6e" x="3524.068359"/>
    </g>
   </g>
  </g>
 </g>
 <defs>
  <clipPath id="p49f847fdf9">
   <rect x="180" y="86.4" width="1116" height="554.4"/>
  </clipPath>
 </defs>
</svg>
