<?xml version="1.0" encoding="utf-8" standalone="no"?>
<!DOCTYPE svg PUBLIC "-//W3C//DTD SVG 1.1//EN"
  "http://www.w3.org/Graphics/SVG/1.1/DTD/svg11.dtd">
<svg xmlns:xlink="http://www.w3.org/1999/xlink" width="1440pt" height="720pt" viewBox="0 0 1440 720" xmlns="http://www.w3.org/2000/svg" version="1.1">
 <metadata>
  <rdf:RDF xmlns:dc="http://purl.org/dc/elements/1.1/" xmlns:cc="http://creativecommons.org/ns#" xmlns:rdf="http://www.w3.org/1999/02/22-rdf-syntax-ns#">
   <cc:Work>
    <dc:type rdf:resource="http://purl.org/dc/dcmitype/StillImage"/>
    <dc:date>2024-06-07T04:50:41.602051</dc:date>
    <dc:format>image/svg+xml</dc:format>
    <dc:creator>
     <cc:Agent>
      <dc:title>Matplotlib v3.8.0, https://matplotlib.org/</dc:title>
     </cc:Agent>
    </dc:creator>
   </cc:Work>
  </rdf:RDF>
 </metadata>
 <defs>
  <style type="text/css">*{stroke-linejoin: round; stroke-linecap: butt}</style>
 </defs>
 <g id="figure_1">
  <g id="patch_1">
   <path d="M 0 720 
L 1440 720 
L 1440 0 
L 0 0 
z
" style="fill: #ffffff"/>
  </g>
  <g id="axes_1">
   <g id="patch_2">
    <path d="M 180 640.8 
L 1296 640.8 
L 1296 86.4 
L 180 86.4 
z
" style="fill: #ffffff"/>
   </g>
   <g id="PolyCollection_1">
    <defs>
     <path id="m811dee2acf" d="M 235.88398 -136.806674 
L 235.71602 -136.806674 
L 235.633266 -141.509436 
L 235.491327 -146.212197 
L 235.265396 -150.914959 
L 234.930494 -155.617721 
L 234.466069 -160.320482 
L 233.859874 -165.023244 
L 233.109021 -169.726006 
L 232.217015 -174.428767 
L 231.187405 -179.131529 
L 230.016639 -183.834291 
L 228.689456 -188.537052 
L 227.17917 -193.239814 
L 225.452843 -197.942576 
L 223.479438 -202.645337 
L 221.238693 -207.348099 
L 218.72966 -212.050861 
L 215.978765 -216.753622 
L 213.04632 -221.456384 
L 210.028209 -226.159146 
L 207.048757 -230.861907 
L 204.243205 -235.564669 
L 201.733111 -240.26743 
L 199.601749 -244.970192 
L 197.877207 -249.672954 
L 196.528518 -254.375715 
L 195.476929 -259.078477 
L 194.62117 -263.781239 
L 193.871607 -268.484 
L 193.183271 -273.186762 
L 192.574548 -277.889524 
L 192.120678 -282.592285 
L 191.921035 -287.295047 
L 192.05261 -291.997809 
L 192.53101 -296.70057 
L 193.298015 -301.403332 
L 194.241845 -306.106094 
L 195.240219 -310.808855 
L 196.206234 -315.511617 
L 197.117523 -320.214379 
L 198.018139 -324.91714 
L 198.994678 -329.619902 
L 200.137841 -334.322664 
L 201.50481 -339.025425 
L 203.096104 -343.728187 
L 204.85418 -348.430949 
L 206.682656 -353.13371 
L 208.477699 -357.836472 
L 210.159577 -362.539233 
L 211.693596 -367.241995 
L 213.094546 -371.944757 
L 214.415056 -376.647518 
L 215.723318 -381.35028 
L 217.078192 -386.053042 
L 218.509493 -390.755803 
L 220.009024 -395.458565 
L 221.534424 -400.161327 
L 223.023878 -404.864088 
L 224.416126 -409.56685 
L 225.668307 -414.269612 
L 226.765164 -418.972373 
L 227.716999 -423.675135 
L 228.54901 -428.377897 
L 229.288427 -433.080658 
L 229.955897 -437.78342 
L 230.563849 -442.486182 
L 231.119666 -447.188943 
L 231.629088 -451.891705 
L 232.096799 -456.594467 
L 232.524693 -461.297228 
L 232.910636 -465.99999 
L 233.249792 -470.702752 
L 233.538133 -475.405513 
L 233.775898 -480.108275 
L 233.968955 -484.811036 
L 234.127553 -489.513798 
L 234.263559 -494.21656 
L 234.387792 -498.919321 
L 234.508484 -503.622083 
L 234.630837 -508.324845 
L 234.756961 -513.027606 
L 234.885586 -517.730368 
L 235.011718 -522.43313 
L 235.126884 -527.135891 
L 235.220609 -531.838653 
L 235.283128 -536.541415 
L 235.308784 -541.244176 
L 235.299068 -545.946938 
L 235.264048 -550.6497 
L 235.221066 -555.352461 
L 235.190445 -560.055223 
L 235.18936 -564.757985 
L 235.226287 -569.460746 
L 235.298557 -574.163508 
L 235.394129 -578.86627 
L 235.496581 -583.569031 
L 235.590843 -588.271793 
L 235.667204 -592.974554 
L 235.722407 -597.677316 
L 235.758305 -602.380078 
L 235.841695 -602.380078 
L 235.841695 -602.380078 
L 235.877593 -597.677316 
L 235.932796 -592.974554 
L 236.009157 -588.271793 
L 236.103419 -583.569031 
L 236.205871 -578.86627 
L 236.301443 -574.163508 
L 236.373713 -569.460746 
L 236.41064 -564.757985 
L 236.409555 -560.055223 
L 236.378934 -555.352461 
L 236.335952 -550.6497 
L 236.300932 -545.946938 
L 236.291216 -541.244176 
L 236.316872 -536.541415 
L 236.379391 -531.838653 
L 236.473116 -527.135891 
L 236.588282 -522.43313 
L 236.714414 -517.730368 
L 236.843039 -513.027606 
L 236.969163 -508.324845 
L 237.091516 -503.622083 
L 237.212208 -498.919321 
L 237.336441 -494.21656 
L 237.472447 -489.513798 
L 237.631045 -484.811036 
L 237.824102 -480.108275 
L 238.061867 -475.405513 
L 238.350208 -470.702752 
L 238.689364 -465.99999 
L 239.075307 -461.297228 
L 239.503201 -456.594467 
L 239.970912 -451.891705 
L 240.480334 -447.188943 
L 241.036151 -442.486182 
L 241.644103 -437.78342 
L 242.311573 -433.080658 
L 243.05099 -428.377897 
L 243.883001 -423.675135 
L 244.834836 -418.972373 
L 245.931693 -414.269612 
L 247.183874 -409.56685 
L 248.576122 -404.864088 
L 250.065576 -400.161327 
L 251.590976 -395.458565 
L 253.090507 -390.755803 
L 254.521808 -386.053042 
L 255.876682 -381.35028 
L 257.184944 -376.647518 
L 258.505454 -371.944757 
L 259.906404 -367.241995 
L 261.440423 -362.539233 
L 263.122301 -357.836472 
L 264.917344 -353.13371 
L 266.74582 -348.430949 
L 268.503896 -343.728187 
L 270.09519 -339.025425 
L 271.462159 -334.322664 
L 272.605322 -329.619902 
L 273.581861 -324.91714 
L 274.482477 -320.214379 
L 275.393766 -315.511617 
L 276.359781 -310.808855 
L 277.358155 -306.106094 
L 278.301985 -301.403332 
L 279.06899 -296.70057 
L 279.54739 -291.997809 
L 279.678965 -287.295047 
L 279.479322 -282.592285 
L 279.025452 -277.889524 
L 278.416729 -273.186762 
L 277.728393 -268.484 
L 276.97883 -263.781239 
L 276.123071 -259.078477 
L 275.071482 -254.375715 
L 273.722793 -249.672954 
L 271.998251 -244.970192 
L 269.866889 -240.26743 
L 267.356795 -235.564669 
L 264.551243 -230.861907 
L 261.571791 -226.159146 
L 258.55368 -221.456384 
L 255.621235 -216.753622 
L 252.87034 -212.050861 
L 250.361307 -207.348099 
L 248.120562 -202.645337 
L 246.147157 -197.942576 
L 244.42083 -193.239814 
L 242.910544 -188.537052 
L 241.583361 -183.834291 
L 240.412595 -179.131529 
L 239.382985 -174.428767 
L 238.490979 -169.726006 
L 237.740126 -165.023244 
L 237.133931 -160.320482 
L 236.669506 -155.617721 
L 236.334604 -150.914959 
L 236.108673 -146.212197 
L 235.966734 -141.509436 
L 235.88398 -136.806674 
z
" style="stroke: #3f3f3f; stroke-width: 1.25"/>
    </defs>
    <g clip-path="url(#p06136b525a)">
     <use xlink:href="#m811dee2acf" x="0" y="720" style="fill: #3274a1; stroke: #3f3f3f; stroke-width: 1.25"/>
    </g>
   </g>
   <g id="PolyCollection_2">
    <defs>
     <path id="ma90262e2e6" d="M 347.420884 -104.771982 
L 347.379116 -104.771982 
L 347.362208 -109.803682 
L 347.33746 -114.835381 
L 347.304485 -119.86708 
L 347.26315 -124.89878 
L 347.211168 -129.930479 
L 347.14029 -134.962178 
L 347.032899 -139.993878 
L 346.86174 -145.025577 
L 346.594714 -150.057276 
L 346.203936 -155.088976 
L 345.674979 -160.120675 
L 345.010515 -165.152375 
L 344.224291 -170.184074 
L 343.326344 -175.215773 
L 342.306313 -180.247473 
L 341.124919 -185.279172 
L 339.721288 -190.310871 
L 338.035858 -195.342571 
L 336.039063 -200.37427 
L 333.751114 -205.405969 
L 331.241901 -210.437669 
L 328.610765 -215.469368 
L 325.956935 -220.501067 
L 323.355909 -225.532767 
L 320.852802 -230.564466 
L 318.473714 -235.596166 
L 316.245507 -240.627865 
L 314.208625 -245.659564 
L 312.410839 -250.691264 
L 310.882506 -255.722963 
L 309.609248 -260.754662 
L 308.524046 -265.786362 
L 307.530602 -270.818061 
L 306.549104 -275.84976 
L 305.559723 -280.88146 
L 304.619963 -285.913159 
L 303.84754 -290.944858 
L 303.378472 -295.976558 
L 303.319612 -301.008257 
L 303.713926 -306.039956 
L 304.529964 -311.071656 
L 305.678145 -316.103355 
L 307.047128 -321.135055 
L 308.544973 -326.166754 
L 310.126008 -331.198453 
L 311.789751 -336.230153 
L 313.552926 -341.261852 
L 315.411827 -346.293551 
L 317.318798 -351.325251 
L 319.18775 -356.35695 
L 320.925397 -361.388649 
L 322.470322 -366.420349 
L 323.819829 -371.452048 
L 325.033241 -376.483747 
L 326.212205 -381.515447 
L 327.467086 -386.547146 
L 328.881894 -391.578846 
L 330.488887 -396.610545 
L 332.259785 -401.642244 
L 334.114862 -406.673944 
L 335.945735 -411.705643 
L 337.643693 -416.737342 
L 339.124186 -421.769042 
L 340.340491 -426.800741 
L 341.285118 -431.83244 
L 341.982926 -436.86414 
L 342.481708 -441.895839 
L 342.843218 -446.927538 
L 343.133774 -451.959238 
L 343.412675 -456.990937 
L 343.719656 -462.022637 
L 344.066152 -467.054336 
L 344.435624 -472.086035 
L 344.79443 -477.117735 
L 345.109007 -482.149434 
L 345.361191 -487.181133 
L 345.554258 -492.212833 
L 345.707694 -497.244532 
L 345.845303 -502.276231 
L 345.984334 -507.307931 
L 346.130994 -512.33963 
L 346.282311 -517.371329 
L 346.43052 -522.403029 
L 346.56626 -527.434728 
L 346.679791 -532.466427 
L 346.761998 -537.498127 
L 346.807029 -542.529826 
L 346.816232 -547.561526 
L 346.800856 -552.593225 
L 346.780636 -557.624924 
L 346.777632 -562.656624 
L 346.807898 -567.688323 
L 346.875344 -572.720022 
L 346.971053 -577.751722 
L 347.078118 -582.783421 
L 347.178973 -587.81512 
L 347.261372 -592.84682 
L 347.32068 -597.878519 
L 347.358633 -602.910218 
L 347.441367 -602.910218 
L 347.441367 -602.910218 
L 347.47932 -597.878519 
L 347.538628 -592.84682 
L 347.621027 -587.81512 
L 347.721882 -582.783421 
L 347.828947 -577.751722 
L 347.924656 -572.720022 
L 347.992102 -567.688323 
L 348.022368 -562.656624 
L 348.019364 -557.624924 
L 347.999144 -552.593225 
L 347.983768 -547.561526 
L 347.992971 -542.529826 
L 348.038002 -537.498127 
L 348.120209 -532.466427 
L 348.23374 -527.434728 
L 348.36948 -522.403029 
L 348.517689 -517.371329 
L 348.669006 -512.33963 
L 348.815666 -507.307931 
L 348.954697 -502.276231 
L 349.092306 -497.244532 
L 349.245742 -492.212833 
L 349.438809 -487.181133 
L 349.690993 -482.149434 
L 350.00557 -477.117735 
L 350.364376 -472.086035 
L 350.733848 -467.054336 
L 351.080344 -462.022637 
L 351.387325 -456.990937 
L 351.666226 -451.959238 
L 351.956782 -446.927538 
L 352.318292 -441.895839 
L 352.817074 -436.86414 
L 353.514882 -431.83244 
L 354.459509 -426.800741 
L 355.675814 -421.769042 
L 357.156307 -416.737342 
L 358.854265 -411.705643 
L 360.685138 -406.673944 
L 362.540215 -401.642244 
L 364.311113 -396.610545 
L 365.918106 -391.578846 
L 367.332914 -386.547146 
L 368.587795 -381.515447 
L 369.766759 -376.483747 
L 370.980171 -371.452048 
L 372.329678 -366.420349 
L 373.874603 -361.388649 
L 375.61225 -356.35695 
L 377.481202 -351.325251 
L 379.388173 -346.293551 
L 381.247074 -341.261852 
L 383.010249 -336.230153 
L 384.673992 -331.198453 
L 386.255027 -326.166754 
L 387.752872 -321.135055 
L 389.121855 -316.103355 
L 390.270036 -311.071656 
L 391.086074 -306.039956 
L 391.480388 -301.008257 
L 391.421528 -295.976558 
L 390.95246 -290.944858 
L 390.180037 -285.913159 
L 389.240277 -280.88146 
L 388.250896 -275.84976 
L 387.269398 -270.818061 
L 386.275954 -265.786362 
L 385.190752 -260.754662 
L 383.917494 -255.722963 
L 382.389161 -250.691264 
L 380.591375 -245.659564 
L 378.554493 -240.627865 
L 376.326286 -235.596166 
L 373.947198 -230.564466 
L 371.444091 -225.532767 
L 368.843065 -220.501067 
L 366.189235 -215.469368 
L 363.558099 -210.437669 
L 361.048886 -205.405969 
L 358.760937 -200.37427 
L 356.764142 -195.342571 
L 355.078712 -190.310871 
L 353.675081 -185.279172 
L 352.493687 -180.247473 
L 351.473656 -175.215773 
L 350.575709 -170.184074 
L 349.789485 -165.152375 
L 349.125021 -160.120675 
L 348.596064 -155.088976 
L 348.205286 -150.057276 
L 347.93826 -145.025577 
L 347.767101 -139.993878 
L 347.65971 -134.962178 
L 347.588832 -129.930479 
L 347.53685 -124.89878 
L 347.495515 -119.86708 
L 347.46254 -114.835381 
L 347.437792 -109.803682 
L 347.420884 -104.771982 
z
" style="stroke: #3f3f3f; stroke-width: 1.25"/>
    </defs>
    <g clip-path="url(#p06136b525a)">
     <use xlink:href="#ma90262e2e6" x="0" y="720" style="fill: #3274a1; stroke: #3f3f3f; stroke-width: 1.25"/>
    </g>
   </g>
   <g id="PolyCollection_3">
    <defs>
     <path id="mf0121bdd65" d="M 459.021983 -104.837798 
L 458.978017 -104.837798 
L 458.959424 -109.868168 
L 458.931185 -114.898537 
L 458.891887 -119.928907 
L 458.840743 -124.959277 
L 458.776326 -129.989647 
L 458.694185 -135.020016 
L 458.584188 -140.050386 
L 458.428783 -145.080756 
L 458.203035 -150.111126 
L 457.876466 -155.141495 
L 457.416045 -160.171865 
L 456.789489 -165.202235 
L 455.968069 -170.232605 
L 454.928565 -175.262974 
L 453.654818 -180.293344 
L 452.140267 -185.323714 
L 450.392466 -190.354084 
L 448.438099 -195.384453 
L 446.323886 -200.414823 
L 444.10894 -205.445193 
L 441.849285 -210.475563 
L 439.582191 -215.505932 
L 437.32041 -220.536302 
L 435.061418 -225.566672 
L 432.80778 -230.597042 
L 430.58788 -235.627411 
L 428.464726 -240.657781 
L 426.524421 -245.688151 
L 424.844809 -250.718521 
L 423.457084 -255.74889 
L 422.322304 -260.77926 
L 421.341328 -265.80963 
L 420.398258 -270.84 
L 419.415437 -275.870369 
L 418.389455 -280.900739 
L 417.389685 -285.931109 
L 416.523842 -290.961479 
L 415.892487 -295.991848 
L 415.556861 -301.022218 
L 415.533967 -306.052588 
L 415.816794 -311.082958 
L 416.403601 -316.113327 
L 417.314947 -321.143697 
L 418.584707 -326.174067 
L 420.228309 -331.204437 
L 422.207213 -336.234806 
L 424.412597 -341.265176 
L 426.681122 -346.295546 
L 428.838654 -351.325915 
L 430.753549 -356.356285 
L 432.376456 -361.386655 
L 433.749895 -366.417025 
L 434.98494 -371.447394 
L 436.216929 -376.477764 
L 437.559685 -381.508134 
L 439.07491 -386.538504 
L 440.763467 -391.568873 
L 442.575247 -396.599243 
L 444.429061 -401.629613 
L 446.234272 -406.659983 
L 447.908839 -411.690352 
L 449.391543 -416.720722 
L 450.648139 -421.751092 
L 451.672211 -426.781462 
L 452.481939 -431.811831 
L 453.114119 -436.842201 
L 453.616606 -441.872571 
L 454.039939 -446.902941 
L 454.428922 -451.93331 
L 454.815396 -456.96368 
L 455.213991 -461.99405 
L 455.62238 -467.02442 
L 456.026212 -472.054789 
L 456.40695 -477.085159 
L 456.749566 -482.115529 
L 457.047106 -487.145899 
L 457.300684 -492.176268 
L 457.515877 -497.206638 
L 457.698278 -502.237008 
L 457.851105 -507.267378 
L 457.975929 -512.297747 
L 458.075174 -517.328117 
L 458.153799 -522.358487 
L 458.218468 -527.388857 
L 458.274741 -532.419226 
L 458.32464 -537.449596 
L 458.366859 -542.479966 
L 458.399812 -547.510336 
L 458.425374 -552.540705 
L 458.450334 -557.571075 
L 458.48417 -562.601445 
L 458.53439 -567.631815 
L 458.602461 -572.662184 
L 458.682846 -577.692554 
L 458.765519 -582.722924 
L 458.840216 -587.753294 
L 458.900008 -592.783663 
L 458.942681 -597.814033 
L 458.969959 -602.844403 
L 459.030041 -602.844403 
L 459.030041 -602.844403 
L 459.057319 -597.814033 
L 459.099992 -592.783663 
L 459.159784 -587.753294 
L 459.234481 -582.722924 
L 459.317154 -577.692554 
L 459.397539 -572.662184 
L 459.46561 -567.631815 
L 459.51583 -562.601445 
L 459.549666 -557.571075 
L 459.574626 -552.540705 
L 459.600188 -547.510336 
L 459.633141 -542.479966 
L 459.67536 -537.449596 
L 459.725259 -532.419226 
L 459.781532 -527.388857 
L 459.846201 -522.358487 
L 459.924826 -517.328117 
L 460.024071 -512.297747 
L 460.148895 -507.267378 
L 460.301722 -502.237008 
L 460.484123 -497.206638 
L 460.699316 -492.176268 
L 460.952894 -487.145899 
L 461.250434 -482.115529 
L 461.59305 -477.085159 
L 461.973788 -472.054789 
L 462.37762 -467.02442 
L 462.786009 -461.99405 
L 463.184604 -456.96368 
L 463.571078 -451.93331 
L 463.960061 -446.902941 
L 464.383394 -441.872571 
L 464.885881 -436.842201 
L 465.518061 -431.811831 
L 466.327789 -426.781462 
L 467.351861 -421.751092 
L 468.608457 -416.720722 
L 470.091161 -411.690352 
L 471.765728 -406.659983 
L 473.570939 -401.629613 
L 475.424753 -396.599243 
L 477.236533 -391.568873 
L 478.92509 -386.538504 
L 480.440315 -381.508134 
L 481.783071 -376.477764 
L 483.01506 -371.447394 
L 484.250105 -366.417025 
L 485.623544 -361.386655 
L 487.246451 -356.356285 
L 489.161346 -351.325915 
L 491.318878 -346.295546 
L 493.587403 -341.265176 
L 495.792787 -336.234806 
L 497.771691 -331.204437 
L 499.415293 -326.174067 
L 500.685053 -321.143697 
L 501.596399 -316.113327 
L 502.183206 -311.082958 
L 502.466033 -306.052588 
L 502.443139 -301.022218 
L 502.107513 -295.991848 
L 501.476158 -290.961479 
L 500.610315 -285.931109 
L 499.610545 -280.900739 
L 498.584563 -275.870369 
L 497.601742 -270.84 
L 496.658672 -265.80963 
L 495.677696 -260.77926 
L 494.542916 -255.74889 
L 493.155191 -250.718521 
L 491.475579 -245.688151 
L 489.535274 -240.657781 
L 487.41212 -235.627411 
L 485.19222 -230.597042 
L 482.938582 -225.566672 
L 480.67959 -220.536302 
L 478.417809 -215.505932 
L 476.150715 -210.475563 
L 473.89106 -205.445193 
L 471.676114 -200.414823 
L 469.561901 -195.384453 
L 467.607534 -190.354084 
L 465.859733 -185.323714 
L 464.345182 -180.293344 
L 463.071435 -175.262974 
L 462.031931 -170.232605 
L 461.210511 -165.202235 
L 460.583955 -160.171865 
L 460.123534 -155.141495 
L 459.796965 -150.111126 
L 459.571217 -145.080756 
L 459.415812 -140.050386 
L 459.305815 -135.020016 
L 459.223674 -129.989647 
L 459.159257 -124.959277 
L 459.108113 -119.928907 
L 459.068815 -114.898537 
L 459.040576 -109.868168 
L 459.021983 -104.837798 
z
" style="stroke: #3f3f3f; stroke-width: 1.25"/>
    </defs>
    <g clip-path="url(#p06136b525a)">
     <use xlink:href="#mf0121bdd65" x="0" y="720" style="fill: #3274a1; stroke: #3f3f3f; stroke-width: 1.25"/>
    </g>
   </g>
   <g id="PolyCollection_4">
    <defs>
     <path id="m5e7ae4da72" d="M 570.632672 -123.456691 
L 570.567328 -123.456691 
L 570.535171 -128.294474 
L 570.479697 -133.132258 
L 570.390003 -137.970041 
L 570.252981 -142.807824 
L 570.053475 -147.645608 
L 569.774265 -152.483391 
L 569.396031 -157.321174 
L 568.897807 -162.158958 
L 568.258367 -166.996741 
L 567.458339 -171.834524 
L 566.481908 -176.672308 
L 565.316834 -181.510091 
L 563.952834 -186.347874 
L 562.380357 -191.185658 
L 560.592425 -196.023441 
L 558.590174 -200.861224 
L 556.389338 -205.699008 
L 554.023533 -210.536791 
L 551.542331 -215.374574 
L 549.005815 -220.212358 
L 546.47887 -225.050141 
L 544.026882 -229.887924 
L 541.711993 -234.725708 
L 539.58812 -239.563491 
L 537.693838 -244.401274 
L 536.043917 -249.239058 
L 534.622477 -254.076841 
L 533.383002 -258.914624 
L 532.260393 -263.752408 
L 531.195206 -268.590191 
L 530.161641 -273.427975 
L 529.18516 -278.265758 
L 528.33871 -283.103541 
L 527.717494 -287.941325 
L 527.403767 -292.779108 
L 527.437746 -297.616891 
L 527.806437 -302.454675 
L 528.452708 -307.292458 
L 529.298024 -312.130241 
L 530.268074 -316.968025 
L 531.31194 -321.805808 
L 532.410154 -326.643591 
L 533.571252 -331.481375 
L 534.818941 -336.319158 
L 536.173754 -341.156941 
L 537.635862 -345.994725 
L 539.177508 -350.832508 
L 540.750627 -355.670291 
L 542.306724 -360.508075 
L 543.817666 -365.345858 
L 545.285183 -370.183641 
L 546.735065 -375.021425 
L 548.202417 -379.859208 
L 549.718098 -384.696991 
L 551.30168 -389.534775 
L 552.959101 -394.372558 
L 554.680622 -399.210341 
L 556.437909 -404.048125 
L 558.183255 -408.885908 
L 559.854502 -413.723691 
L 561.385962 -418.561475 
L 562.721882 -423.399258 
L 563.827721 -428.237041 
L 564.695997 -433.074825 
L 565.345998 -437.912608 
L 565.818304 -442.750391 
L 566.165668 -447.588175 
L 566.442002 -452.425958 
L 566.691825 -457.263741 
L 566.943177 -462.101525 
L 567.206543 -466.939308 
L 567.480035 -471.777091 
L 567.757874 -476.614875 
L 568.037385 -481.452658 
L 568.320782 -486.290441 
L 568.611581 -491.128225 
L 568.908972 -495.966008 
L 569.204466 -500.803791 
L 569.483085 -505.641575 
L 569.728169 -510.479358 
L 569.92679 -515.317141 
L 570.073006 -520.154925 
L 570.168016 -524.992708 
L 570.218116 -529.830491 
L 570.23213 -534.668275 
L 570.21963 -539.506058 
L 570.190439 -544.343841 
L 570.15497 -549.181625 
L 570.12441 -554.019408 
L 570.10973 -558.857191 
L 570.119353 -563.694975 
L 570.156473 -568.532758 
L 570.217629 -573.370541 
L 570.293661 -578.208325 
L 570.372809 -583.046108 
L 570.444473 -587.883891 
L 570.50194 -592.721675 
L 570.543156 -597.559458 
L 570.569749 -602.397241 
L 570.630251 -602.397241 
L 570.630251 -602.397241 
L 570.656844 -597.559458 
L 570.69806 -592.721675 
L 570.755527 -587.883891 
L 570.827191 -583.046108 
L 570.906339 -578.208325 
L 570.982371 -573.370541 
L 571.043527 -568.532758 
L 571.080647 -563.694975 
L 571.09027 -558.857191 
L 571.07559 -554.019408 
L 571.04503 -549.181625 
L 571.009561 -544.343841 
L 570.98037 -539.506058 
L 570.96787 -534.668275 
L 570.981884 -529.830491 
L 571.031984 -524.992708 
L 571.126994 -520.154925 
L 571.27321 -515.317141 
L 571.471831 -510.479358 
L 571.716915 -505.641575 
L 571.995534 -500.803791 
L 572.291028 -495.966008 
L 572.588419 -491.128225 
L 572.879218 -486.290441 
L 573.162615 -481.452658 
L 573.442126 -476.614875 
L 573.719965 -471.777091 
L 573.993457 -466.939308 
L 574.256823 -462.101525 
L 574.508175 -457.263741 
L 574.757998 -452.425958 
L 575.034332 -447.588175 
L 575.381696 -442.750391 
L 575.854002 -437.912608 
L 576.504003 -433.074825 
L 577.372279 -428.237041 
L 578.478118 -423.399258 
L 579.814038 -418.561475 
L 581.345498 -413.723691 
L 583.016745 -408.885908 
L 584.762091 -404.048125 
L 586.519378 -399.210341 
L 588.240899 -394.372558 
L 589.89832 -389.534775 
L 591.481902 -384.696991 
L 592.997583 -379.859208 
L 594.464935 -375.021425 
L 595.914817 -370.183641 
L 597.382334 -365.345858 
L 598.893276 -360.508075 
L 600.449373 -355.670291 
L 602.022492 -350.832508 
L 603.564138 -345.994725 
L 605.026246 -341.156941 
L 606.381059 -336.319158 
L 607.628748 -331.481375 
L 608.789846 -326.643591 
L 609.88806 -321.805808 
L 610.931926 -316.968025 
L 611.901976 -312.130241 
L 612.747292 -307.292458 
L 613.393563 -302.454675 
L 613.762254 -297.616891 
L 613.796233 -292.779108 
L 613.482506 -287.941325 
L 612.86129 -283.103541 
L 612.01484 -278.265758 
L 611.038359 -273.427975 
L 610.004794 -268.590191 
L 608.939607 -263.752408 
L 607.816998 -258.914624 
L 606.577523 -254.076841 
L 605.156083 -249.239058 
L 603.506162 -244.401274 
L 601.61188 -239.563491 
L 599.488007 -234.725708 
L 597.173118 -229.887924 
L 594.72113 -225.050141 
L 592.194185 -220.212358 
L 589.657669 -215.374574 
L 587.176467 -210.536791 
L 584.810662 -205.699008 
L 582.609826 -200.861224 
L 580.607575 -196.023441 
L 578.819643 -191.185658 
L 577.247166 -186.347874 
L 575.883166 -181.510091 
L 574.718092 -176.672308 
L 573.741661 -171.834524 
L 572.941633 -166.996741 
L 572.302193 -162.158958 
L 571.803969 -157.321174 
L 571.425735 -152.483391 
L 571.146525 -147.645608 
L 570.947019 -142.807824 
L 570.809997 -137.970041 
L 570.720303 -133.132258 
L 570.664829 -128.294474 
L 570.632672 -123.456691 
z
" style="stroke: #3f3f3f; stroke-width: 1.25"/>
    </defs>
    <g clip-path="url(#p06136b525a)">
     <use xlink:href="#m5e7ae4da72" x="0" y="720" style="fill: #3274a1; stroke: #3f3f3f; stroke-width: 1.25"/>
    </g>
   </g>
   <g id="PolyCollection_5">
    <defs>
     <path id="mab2b3ef66d" d="M 682.232728 -123.07678 
L 682.167272 -123.07678 
L 682.135455 -127.907382 
L 682.08068 -132.737984 
L 681.992042 -137.568586 
L 681.856123 -142.399187 
L 681.656881 -147.229789 
L 681.375294 -152.060391 
L 680.988957 -156.890993 
L 680.472255 -161.721595 
L 679.797896 -166.552197 
L 678.940155 -171.382799 
L 677.879275 -176.213401 
L 676.605703 -181.044002 
L 675.122841 -185.874604 
L 673.447543 -190.705206 
L 671.608079 -195.535808 
L 669.639162 -200.36641 
L 667.574111 -205.197012 
L 665.436174 -210.027614 
L 663.233679 -214.858216 
L 660.96387 -219.688817 
L 658.625931 -224.519419 
L 656.237314 -229.350021 
L 653.844082 -234.180623 
L 651.518805 -239.011225 
L 649.346096 -243.841827 
L 647.401589 -248.672429 
L 645.732443 -253.50303 
L 644.346879 -258.333632 
L 643.217599 -263.164234 
L 642.299007 -267.994836 
L 641.551642 -272.825438 
L 640.962636 -277.65604 
L 640.551598 -282.486642 
L 640.357829 -287.317244 
L 640.414155 -292.147845 
L 640.720554 -296.978447 
L 641.232908 -301.809049 
L 641.875712 -306.639651 
L 642.574118 -311.470253 
L 643.287531 -316.300855 
L 644.024366 -321.131457 
L 644.829141 -325.962059 
L 645.751109 -330.79266 
L 646.814592 -335.623262 
L 648.007282 -340.453864 
L 649.289053 -345.284466 
L 650.611855 -350.115068 
L 651.938657 -354.94567 
L 653.254191 -359.776272 
L 654.566158 -364.606873 
L 655.898807 -369.437475 
L 657.282217 -374.268077 
L 658.741655 -379.098679 
L 660.291301 -383.929281 
L 661.93388 -388.759883 
L 663.663469 -393.590485 
L 665.466465 -398.421087 
L 667.318055 -403.251688 
L 669.176731 -408.08229 
L 670.982798 -412.912892 
L 672.665199 -417.743494 
L 674.155576 -422.574096 
L 675.40375 -427.404698 
L 676.388236 -432.2353 
L 677.11876 -437.065902 
L 677.631712 -441.896503 
L 677.981218 -446.727105 
L 678.227878 -451.557707 
L 678.426636 -456.388309 
L 678.616222 -461.218911 
L 678.813994 -466.049513 
L 679.01911 -470.880115 
L 679.222887 -475.710716 
L 679.420596 -480.541318 
L 679.617718 -485.37192 
L 679.827376 -490.202522 
L 680.061566 -495.033124 
L 680.322596 -499.863726 
L 680.600203 -504.694328 
L 680.875509 -509.52493 
L 681.128589 -514.355531 
L 681.345045 -519.186133 
L 681.518647 -524.016735 
L 681.650083 -528.847337 
L 681.743829 -533.677939 
L 681.805384 -538.508541 
L 681.840131 -543.339143 
L 681.853845 -548.169745 
L 681.853878 -553.000346 
L 681.849637 -557.830948 
L 681.851349 -562.66155 
L 681.86729 -567.492152 
L 681.900917 -572.322754 
L 681.949679 -577.153356 
L 682.006342 -581.983958 
L 682.062125 -586.814559 
L 682.109906 -591.645161 
L 682.146054 -596.475763 
L 682.170431 -601.306365 
L 682.229569 -601.306365 
L 682.229569 -601.306365 
L 682.253946 -596.475763 
L 682.290094 -591.645161 
L 682.337875 -586.814559 
L 682.393658 -581.983958 
L 682.450321 -577.153356 
L 682.499083 -572.322754 
L 682.53271 -567.492152 
L 682.548651 -562.66155 
L 682.550363 -557.830948 
L 682.546122 -553.000346 
L 682.546155 -548.169745 
L 682.559869 -543.339143 
L 682.594616 -538.508541 
L 682.656171 -533.677939 
L 682.749917 -528.847337 
L 682.881353 -524.016735 
L 683.054955 -519.186133 
L 683.271411 -514.355531 
L 683.524491 -509.52493 
L 683.799797 -504.694328 
L 684.077404 -499.863726 
L 684.338434 -495.033124 
L 684.572624 -490.202522 
L 684.782282 -485.37192 
L 684.979404 -480.541318 
L 685.177113 -475.710716 
L 685.38089 -470.880115 
L 685.586006 -466.049513 
L 685.783778 -461.218911 
L 685.973364 -456.388309 
L 686.172122 -451.557707 
L 686.418782 -446.727105 
L 686.768288 -441.896503 
L 687.28124 -437.065902 
L 688.011764 -432.2353 
L 688.99625 -427.404698 
L 690.244424 -422.574096 
L 691.734801 -417.743494 
L 693.417202 -412.912892 
L 695.223269 -408.08229 
L 697.081945 -403.251688 
L 698.933535 -398.421087 
L 700.736531 -393.590485 
L 702.46612 -388.759883 
L 704.108699 -383.929281 
L 705.658345 -379.098679 
L 707.117783 -374.268077 
L 708.501193 -369.437475 
L 709.833842 -364.606873 
L 711.145809 -359.776272 
L 712.461343 -354.94567 
L 713.788145 -350.115068 
L 715.110947 -345.284466 
L 716.392718 -340.453864 
L 717.585408 -335.623262 
L 718.648891 -330.79266 
L 719.570859 -325.962059 
L 720.375634 -321.131457 
L 721.112469 -316.300855 
L 721.825882 -311.470253 
L 722.524288 -306.639651 
L 723.167092 -301.809049 
L 723.679446 -296.978447 
L 723.985845 -292.147845 
L 724.042171 -287.317244 
L 723.848402 -282.486642 
L 723.437364 -277.65604 
L 722.848358 -272.825438 
L 722.100993 -267.994836 
L 721.182401 -263.164234 
L 720.053121 -258.333632 
L 718.667557 -253.50303 
L 716.998411 -248.672429 
L 715.053904 -243.841827 
L 712.881195 -239.011225 
L 710.555918 -234.180623 
L 708.162686 -229.350021 
L 705.774069 -224.519419 
L 703.43613 -219.688817 
L 701.166321 -214.858216 
L 698.963826 -210.027614 
L 696.825889 -205.197012 
L 694.760838 -200.36641 
L 692.791921 -195.535808 
L 690.952457 -190.705206 
L 689.277159 -185.874604 
L 687.794297 -181.044002 
L 686.520725 -176.213401 
L 685.459845 -171.382799 
L 684.602104 -166.552197 
L 683.927745 -161.721595 
L 683.411043 -156.890993 
L 683.024706 -152.060391 
L 682.743119 -147.229789 
L 682.543877 -142.399187 
L 682.407958 -137.568586 
L 682.31932 -132.737984 
L 682.264545 -127.907382 
L 682.232728 -123.07678 
z
" style="stroke: #3f3f3f; stroke-width: 1.25"/>
    </defs>
    <g clip-path="url(#p06136b525a)">
     <use xlink:href="#mab2b3ef66d" x="0" y="720" style="fill: #3274a1; stroke: #3f3f3f; stroke-width: 1.25"/>
    </g>
   </g>
   <g id="PolyCollection_6">
    <defs>
     <path id="mf89098ddc4" d="M 793.821847 -104.406226 
L 793.778153 -104.406226 
L 793.759821 -109.42843 
L 793.731919 -114.450635 
L 793.692759 -119.47284 
L 793.640909 -124.495044 
L 793.573787 -129.517249 
L 793.485294 -134.539454 
L 793.363456 -139.561659 
L 793.189424 -144.583863 
L 792.938568 -149.606068 
L 792.583186 -154.628273 
L 792.095408 -159.650477 
L 791.449152 -164.672682 
L 790.621264 -169.694887 
L 789.593235 -174.717091 
L 788.354731 -179.739296 
L 786.908423 -184.761501 
L 785.273188 -189.783705 
L 783.481776 -194.80591 
L 781.571015 -199.828115 
L 779.56739 -204.85032 
L 777.475846 -209.872524 
L 775.280701 -214.894729 
L 772.961893 -219.916934 
L 770.519613 -224.939138 
L 767.992771 -229.961343 
L 765.458809 -234.983548 
L 763.013743 -240.005752 
L 760.743618 -245.027957 
L 758.70279 -250.050162 
L 756.908755 -255.072366 
L 755.35335 -260.094571 
L 754.022723 -265.116776 
L 752.916131 -270.13898 
L 752.055393 -275.161185 
L 751.480994 -280.18339 
L 751.235618 -285.205595 
L 751.340553 -290.227799 
L 751.774428 -295.250004 
L 752.466049 -300.272209 
L 753.310045 -305.294413 
L 754.203092 -310.316618 
L 755.083824 -315.338823 
L 755.952921 -320.361027 
L 756.859879 -325.383232 
L 757.864747 -330.405437 
L 758.999888 -335.427641 
L 760.254834 -340.449846 
L 761.58904 -345.472051 
L 762.958273 -350.494256 
L 764.334995 -355.51646 
L 765.71244 -360.538665 
L 767.096188 -365.56087 
L 768.49449 -370.583074 
L 769.91575 -375.605279 
L 771.372784 -380.627484 
L 772.886422 -385.649688 
L 774.481122 -390.671893 
L 776.171812 -395.694098 
L 777.948897 -400.716302 
L 779.770954 -405.738507 
L 781.57018 -410.760712 
L 783.267935 -415.782917 
L 784.792591 -420.805121 
L 786.092676 -425.827326 
L 787.143091 -430.849531 
L 787.94637 -435.871735 
L 788.531337 -440.89394 
L 788.948924 -445.916145 
L 789.263042 -450.938349 
L 789.536135 -455.960554 
L 789.813644 -460.982759 
L 790.114604 -466.004963 
L 790.433615 -471.027168 
L 790.752828 -476.049373 
L 791.056501 -481.071578 
L 791.339682 -486.093782 
L 791.607444 -491.115987 
L 791.867652 -496.138192 
L 792.123626 -501.160396 
L 792.371536 -506.182601 
L 792.602943 -511.204806 
L 792.80943 -516.22701 
L 792.985892 -521.249215 
L 793.131 -526.27142 
L 793.245701 -531.293624 
L 793.331516 -536.315829 
L 793.390028 -541.338034 
L 793.42384 -546.360238 
L 793.438221 -551.382443 
L 793.442004 -556.404648 
L 793.446446 -561.426853 
L 793.461991 -566.449057 
L 793.494463 -571.471262 
L 793.542931 -576.493467 
L 793.600616 -581.515671 
L 793.658259 -586.537876 
L 793.707955 -591.560081 
L 793.745507 -596.582285 
L 793.770624 -601.60449 
L 793.829376 -601.60449 
L 793.829376 -601.60449 
L 793.854493 -596.582285 
L 793.892045 -591.560081 
L 793.941741 -586.537876 
L 793.999384 -581.515671 
L 794.057069 -576.493467 
L 794.105537 -571.471262 
L 794.138009 -566.449057 
L 794.153554 -561.426853 
L 794.157996 -556.404648 
L 794.161779 -551.382443 
L 794.17616 -546.360238 
L 794.209972 -541.338034 
L 794.268484 -536.315829 
L 794.354299 -531.293624 
L 794.469 -526.27142 
L 794.614108 -521.249215 
L 794.79057 -516.22701 
L 794.997057 -511.204806 
L 795.228464 -506.182601 
L 795.476374 -501.160396 
L 795.732348 -496.138192 
L 795.992556 -491.115987 
L 796.260318 -486.093782 
L 796.543499 -481.071578 
L 796.847172 -476.049373 
L 797.166385 -471.027168 
L 797.485396 -466.004963 
L 797.786356 -460.982759 
L 798.063865 -455.960554 
L 798.336958 -450.938349 
L 798.651076 -445.916145 
L 799.068663 -440.89394 
L 799.65363 -435.871735 
L 800.456909 -430.849531 
L 801.507324 -425.827326 
L 802.807409 -420.805121 
L 804.332065 -415.782917 
L 806.02982 -410.760712 
L 807.829046 -405.738507 
L 809.651103 -400.716302 
L 811.428188 -395.694098 
L 813.118878 -390.671893 
L 814.713578 -385.649688 
L 816.227216 -380.627484 
L 817.68425 -375.605279 
L 819.10551 -370.583074 
L 820.503812 -365.56087 
L 821.88756 -360.538665 
L 823.265005 -355.51646 
L 824.641727 -350.494256 
L 826.01096 -345.472051 
L 827.345166 -340.449846 
L 828.600112 -335.427641 
L 829.735253 -330.405437 
L 830.740121 -325.383232 
L 831.647079 -320.361027 
L 832.516176 -315.338823 
L 833.396908 -310.316618 
L 834.289955 -305.294413 
L 835.133951 -300.272209 
L 835.825572 -295.250004 
L 836.259447 -290.227799 
L 836.364382 -285.205595 
L 836.119006 -280.18339 
L 835.544607 -275.161185 
L 834.683869 -270.13898 
L 833.577277 -265.116776 
L 832.24665 -260.094571 
L 830.691245 -255.072366 
L 828.89721 -250.050162 
L 826.856382 -245.027957 
L 824.586257 -240.005752 
L 822.141191 -234.983548 
L 819.607229 -229.961343 
L 817.080387 -224.939138 
L 814.638107 -219.916934 
L 812.319299 -214.894729 
L 810.124154 -209.872524 
L 808.03261 -204.85032 
L 806.028985 -199.828115 
L 804.118224 -194.80591 
L 802.326812 -189.783705 
L 800.691577 -184.761501 
L 799.245269 -179.739296 
L 798.006765 -174.717091 
L 796.978736 -169.694887 
L 796.150848 -164.672682 
L 795.504592 -159.650477 
L 795.016814 -154.628273 
L 794.661432 -149.606068 
L 794.410576 -144.583863 
L 794.236544 -139.561659 
L 794.114706 -134.539454 
L 794.026213 -129.517249 
L 793.959091 -124.495044 
L 793.907241 -119.47284 
L 793.868081 -114.450635 
L 793.840179 -109.42843 
L 793.821847 -104.406226 
z
" style="stroke: #3f3f3f; stroke-width: 1.25"/>
    </defs>
    <g clip-path="url(#p06136b525a)">
     <use xlink:href="#mf89098ddc4" x="0" y="720" style="fill: #3274a1; stroke: #3f3f3f; stroke-width: 1.25"/>
    </g>
   </g>
   <g id="PolyCollection_7">
    <defs>
     <path id="m21d0c25ec0" d="M 905.421795 -104.4 
L 905.378205 -104.4 
L 905.359686 -109.490909 
L 905.331547 -114.581818 
L 905.292397 -119.672727 
L 905.241439 -124.763636 
L 905.177052 -129.854545 
L 905.094138 -134.945455 
L 904.981075 -140.036364 
L 904.817598 -145.127273 
L 904.574712 -150.218182 
L 904.217007 -155.309091 
L 903.707115 -160.4 
L 903.011601 -165.490909 
L 902.107147 -170.581818 
L 900.985449 -175.672727 
L 899.655077 -180.763636 
L 898.139207 -185.854545 
L 896.46938 -190.945455 
L 894.6765 -196.036364 
L 892.781079 -201.127273 
L 890.785686 -206.218182 
L 888.673891 -211.309091 
L 886.419871 -216.4 
L 884.008664 -221.490909 
L 881.459183 -226.581818 
L 878.836352 -231.672727 
L 876.241735 -236.763636 
L 873.784452 -241.854545 
L 871.547195 -246.945455 
L 869.565975 -252.036364 
L 867.833905 -257.127273 
L 866.325262 -262.218182 
L 865.025291 -267.309091 
L 863.949406 -272.4 
L 863.142425 -277.490909 
L 862.659182 -282.581818 
L 862.536025 -287.672727 
L 862.765636 -292.763636 
L 863.286987 -297.854545 
L 863.998822 -302.945455 
L 864.796297 -308.036364 
L 865.615883 -313.127273 
L 866.46266 -318.218182 
L 867.399679 -323.309091 
L 868.502736 -328.4 
L 869.808621 -333.490909 
L 871.289785 -338.581818 
L 872.868613 -343.672727 
L 874.456952 -348.763636 
L 875.993044 -353.854545 
L 877.456303 -358.945455 
L 878.85959 -364.036364 
L 880.232307 -369.127273 
L 881.607633 -374.218182 
L 883.01787 -379.309091 
L 884.493043 -384.4 
L 886.056279 -389.490909 
L 887.7147 -394.581818 
L 889.450768 -399.672727 
L 891.220739 -404.763636 
L 892.962658 -409.854545 
L 894.610077 -414.945455 
L 896.104709 -420.036364 
L 897.403545 -425.127273 
L 898.481077 -430.218182 
L 899.330284 -435.309091 
L 899.964709 -440.4 
L 900.419853 -445.490909 
L 900.749656 -450.581818 
L 901.01563 -455.672727 
L 901.271513 -460.763636 
L 901.55061 -465.854545 
L 901.86237 -470.945455 
L 902.199048 -476.036364 
L 902.546976 -481.127273 
L 902.895081 -486.218182 
L 903.236872 -491.309091 
L 903.567608 -496.4 
L 903.881021 -501.490909 
L 904.168611 -506.581818 
L 904.421451 -511.672727 
L 904.632657 -516.763636 
L 904.798945 -521.854545 
L 904.920823 -526.945455 
L 905.001707 -532.036364 
L 905.046492 -537.127273 
L 905.060398 -542.218182 
L 905.048977 -547.309091 
L 905.019485 -552.4 
L 904.982469 -557.490909 
L 904.951618 -562.581818 
L 904.940764 -567.672727 
L 904.959137 -572.763636 
L 905.007592 -577.854545 
L 905.078269 -582.945455 
L 905.157984 -588.036364 
L 905.233385 -593.127273 
L 905.295197 -598.218182 
L 905.339844 -603.309091 
L 905.368524 -608.4 
L 905.431476 -608.4 
L 905.431476 -608.4 
L 905.460156 -603.309091 
L 905.504803 -598.218182 
L 905.566615 -593.127273 
L 905.642016 -588.036364 
L 905.721731 -582.945455 
L 905.792408 -577.854545 
L 905.840863 -572.763636 
L 905.859236 -567.672727 
L 905.848382 -562.581818 
L 905.817531 -557.490909 
L 905.780515 -552.4 
L 905.751023 -547.309091 
L 905.739602 -542.218182 
L 905.753508 -537.127273 
L 905.798293 -532.036364 
L 905.879177 -526.945455 
L 906.001055 -521.854545 
L 906.167343 -516.763636 
L 906.378549 -511.672727 
L 906.631389 -506.581818 
L 906.918979 -501.490909 
L 907.232392 -496.4 
L 907.563128 -491.309091 
L 907.904919 -486.218182 
L 908.253024 -481.127273 
L 908.600952 -476.036364 
L 908.93763 -470.945455 
L 909.24939 -465.854545 
L 909.528487 -460.763636 
L 909.78437 -455.672727 
L 910.050344 -450.581818 
L 910.380147 -445.490909 
L 910.835291 -440.4 
L 911.469716 -435.309091 
L 912.318923 -430.218182 
L 913.396455 -425.127273 
L 914.695291 -420.036364 
L 916.189923 -414.945455 
L 917.837342 -409.854545 
L 919.579261 -404.763636 
L 921.349232 -399.672727 
L 923.0853 -394.581818 
L 924.743721 -389.490909 
L 926.306957 -384.4 
L 927.78213 -379.309091 
L 929.192367 -374.218182 
L 930.567693 -369.127273 
L 931.94041 -364.036364 
L 933.343697 -358.945455 
L 934.806956 -353.854545 
L 936.343048 -348.763636 
L 937.931387 -343.672727 
L 939.510215 -338.581818 
L 940.991379 -333.490909 
L 942.297264 -328.4 
L 943.400321 -323.309091 
L 944.33734 -318.218182 
L 945.184117 -313.127273 
L 946.003703 -308.036364 
L 946.801178 -302.945455 
L 947.513013 -297.854545 
L 948.034364 -292.763636 
L 948.263975 -287.672727 
L 948.140818 -282.581818 
L 947.657575 -277.490909 
L 946.850594 -272.4 
L 945.774709 -267.309091 
L 944.474738 -262.218182 
L 942.966095 -257.127273 
L 941.234025 -252.036364 
L 939.252805 -246.945455 
L 937.015548 -241.854545 
L 934.558265 -236.763636 
L 931.963648 -231.672727 
L 929.340817 -226.581818 
L 926.791336 -221.490909 
L 924.380129 -216.4 
L 922.126109 -211.309091 
L 920.014314 -206.218182 
L 918.018921 -201.127273 
L 916.1235 -196.036364 
L 914.33062 -190.945455 
L 912.660793 -185.854545 
L 911.144923 -180.763636 
L 909.814551 -175.672727 
L 908.692853 -170.581818 
L 907.788399 -165.490909 
L 907.092885 -160.4 
L 906.582993 -155.309091 
L 906.225288 -150.218182 
L 905.982402 -145.127273 
L 905.818925 -140.036364 
L 905.705862 -134.945455 
L 905.622948 -129.854545 
L 905.558561 -124.763636 
L 905.507603 -119.672727 
L 905.468453 -114.581818 
L 905.440314 -109.490909 
L 905.421795 -104.4 
z
" style="stroke: #3f3f3f; stroke-width: 1.25"/>
    </defs>
    <g clip-path="url(#p06136b525a)">
     <use xlink:href="#m21d0c25ec0" x="0" y="720" style="fill: #3274a1; stroke: #3f3f3f; stroke-width: 1.25"/>
    </g>
   </g>
   <g id="PolyCollection_8">
    <defs>
     <path id="m8f12d1184b" d="M 1017.037271 -123.171757 
L 1016.962729 -123.171757 
L 1016.925482 -128.00044 
L 1016.860527 -132.829124 
L 1016.754395 -137.657807 
L 1016.590845 -142.48649 
L 1016.351482 -147.315173 
L 1016.016496 -152.143856 
L 1015.565557 -156.972539 
L 1014.979084 -161.801222 
L 1014.240059 -166.629906 
L 1013.336242 -171.458589 
L 1012.262275 -176.287272 
L 1011.021106 -181.115955 
L 1009.624301 -185.944638 
L 1008.090712 -190.773321 
L 1006.44261 -195.602004 
L 1004.698492 -200.430687 
L 1002.863546 -205.259371 
L 1000.922035 -210.088054 
L 998.838116 -214.916737 
L 996.569779 -219.74542 
L 994.093566 -224.574103 
L 991.429534 -229.402786 
L 988.652604 -234.231469 
L 985.881809 -239.060153 
L 983.250223 -243.888836 
L 980.868638 -248.717519 
L 978.799299 -253.546202 
L 977.050848 -258.374885 
L 975.595369 -263.203568 
L 974.398131 -268.032251 
L 973.445305 -272.860935 
L 972.756775 -277.689618 
L 972.378746 -282.518301 
L 972.36 -287.346984 
L 972.722569 -292.175667 
L 973.440409 -297.00435 
L 974.437516 -301.833033 
L 975.608889 -306.661716 
L 976.855741 -311.4904 
L 978.116862 -316.319083 
L 979.378967 -321.147766 
L 980.661572 -325.976449 
L 981.988205 -330.805132 
L 983.363292 -335.633815 
L 984.767519 -340.462498 
L 986.169893 -345.291182 
L 987.54418 -350.119865 
L 988.878288 -354.948548 
L 990.174156 -359.777231 
L 991.443674 -364.605914 
L 992.706545 -369.434597 
L 993.990516 -374.26328 
L 995.329482 -379.091964 
L 996.755409 -383.920647 
L 998.285263 -388.74933 
L 999.90939 -393.578013 
L 1001.588709 -398.406696 
L 1003.263519 -403.235379 
L 1004.869827 -408.064062 
L 1006.354823 -412.892745 
L 1007.684477 -417.721429 
L 1008.841972 -422.550112 
L 1009.821543 -427.378795 
L 1010.624113 -432.207478 
L 1011.258233 -437.036161 
L 1011.744749 -441.864844 
L 1012.119943 -446.693527 
L 1012.432192 -451.522211 
L 1012.731127 -456.350894 
L 1013.053528 -461.179577 
L 1013.413101 -466.00826 
L 1013.799769 -470.836943 
L 1014.188759 -475.665626 
L 1014.554182 -480.494309 
L 1014.879649 -485.322993 
L 1015.161122 -490.151676 
L 1015.402544 -494.980359 
L 1015.60902 -499.809042 
L 1015.782753 -504.637725 
L 1015.923839 -509.466408 
L 1016.034107 -514.295091 
L 1016.120214 -519.123774 
L 1016.193166 -523.952458 
L 1016.26422 -528.781141 
L 1016.339722 -533.609824 
L 1016.418214 -538.438507 
L 1016.491863 -543.26719 
L 1016.551556 -548.095873 
L 1016.592735 -552.924556 
L 1016.618515 -557.75324 
L 1016.638341 -562.581923 
L 1016.66316 -567.410606 
L 1016.700098 -572.239289 
L 1016.749611 -577.067972 
L 1016.806239 -581.896655 
L 1016.861935 -586.725338 
L 1016.909736 -591.554022 
L 1016.945959 -596.382705 
L 1016.970403 -601.211388 
L 1017.029597 -601.211388 
L 1017.029597 -601.211388 
L 1017.054041 -596.382705 
L 1017.090264 -591.554022 
L 1017.138065 -586.725338 
L 1017.193761 -581.896655 
L 1017.250389 -577.067972 
L 1017.299902 -572.239289 
L 1017.33684 -567.410606 
L 1017.361659 -562.581923 
L 1017.381485 -557.75324 
L 1017.407265 -552.924556 
L 1017.448444 -548.095873 
L 1017.508137 -543.26719 
L 1017.581786 -538.438507 
L 1017.660278 -533.609824 
L 1017.73578 -528.781141 
L 1017.806834 -523.952458 
L 1017.879786 -519.123774 
L 1017.965893 -514.295091 
L 1018.076161 -509.466408 
L 1018.217247 -504.637725 
L 1018.39098 -499.809042 
L 1018.597456 -494.980359 
L 1018.838878 -490.151676 
L 1019.120351 -485.322993 
L 1019.445818 -480.494309 
L 1019.811241 -475.665626 
L 1020.200231 -470.836943 
L 1020.586899 -466.00826 
L 1020.946472 -461.179577 
L 1021.268873 -456.350894 
L 1021.567808 -451.522211 
L 1021.880057 -446.693527 
L 1022.255251 -441.864844 
L 1022.741767 -437.036161 
L 1023.375887 -432.207478 
L 1024.178457 -427.378795 
L 1025.158028 -422.550112 
L 1026.315523 -417.721429 
L 1027.645177 -412.892745 
L 1029.130173 -408.064062 
L 1030.736481 -403.235379 
L 1032.411291 -398.406696 
L 1034.09061 -393.578013 
L 1035.714737 -388.74933 
L 1037.244591 -383.920647 
L 1038.670518 -379.091964 
L 1040.009484 -374.26328 
L 1041.293455 -369.434597 
L 1042.556326 -364.605914 
L 1043.825844 -359.777231 
L 1045.121712 -354.948548 
L 1046.45582 -350.119865 
L 1047.830107 -345.291182 
L 1049.232481 -340.462498 
L 1050.636708 -335.633815 
L 1052.011795 -330.805132 
L 1053.338428 -325.976449 
L 1054.621033 -321.147766 
L 1055.883138 -316.319083 
L 1057.144259 -311.4904 
L 1058.391111 -306.661716 
L 1059.562484 -301.833033 
L 1060.559591 -297.00435 
L 1061.277431 -292.175667 
L 1061.64 -287.346984 
L 1061.621254 -282.518301 
L 1061.243225 -277.689618 
L 1060.554695 -272.860935 
L 1059.601869 -268.032251 
L 1058.404631 -263.203568 
L 1056.949152 -258.374885 
L 1055.200701 -253.546202 
L 1053.131362 -248.717519 
L 1050.749777 -243.888836 
L 1048.118191 -239.060153 
L 1045.347396 -234.231469 
L 1042.570466 -229.402786 
L 1039.906434 -224.574103 
L 1037.430221 -219.74542 
L 1035.161884 -214.916737 
L 1033.077965 -210.088054 
L 1031.136454 -205.259371 
L 1029.301508 -200.430687 
L 1027.55739 -195.602004 
L 1025.909288 -190.773321 
L 1024.375699 -185.944638 
L 1022.978894 -181.115955 
L 1021.737725 -176.287272 
L 1020.663758 -171.458589 
L 1019.759941 -166.629906 
L 1019.020916 -161.801222 
L 1018.434443 -156.972539 
L 1017.983504 -152.143856 
L 1017.648518 -147.315173 
L 1017.409155 -142.48649 
L 1017.245605 -137.657807 
L 1017.139473 -132.829124 
L 1017.074518 -128.00044 
L 1017.037271 -123.171757 
z
" style="stroke: #3f3f3f; stroke-width: 1.25"/>
    </defs>
    <g clip-path="url(#p06136b525a)">
     <use xlink:href="#m8f12d1184b" x="0" y="720" style="fill: #3274a1; stroke: #3f3f3f; stroke-width: 1.25"/>
    </g>
   </g>
   <g id="PolyCollection_9">
    <defs>
     <path id="mde2a5b75bb" d="M 1128.635029 -115.186026 
L 1128.564971 -115.186026 
L 1128.5316 -120.027955 
L 1128.476381 -124.869884 
L 1128.392192 -129.711812 
L 1128.272883 -134.553741 
L 1128.113557 -139.39567 
L 1127.909091 -144.237599 
L 1127.65101 -149.079527 
L 1127.324162 -153.921456 
L 1126.905465 -158.763385 
L 1126.366072 -163.605313 
L 1125.676197 -168.447242 
L 1124.810116 -173.289171 
L 1123.74941 -178.1311 
L 1122.484818 -182.973028 
L 1121.018584 -187.814957 
L 1119.367537 -192.656886 
L 1117.563516 -197.498814 
L 1115.646269 -202.340743 
L 1113.648136 -207.182672 
L 1111.577692 -212.0246 
L 1109.414459 -216.866529 
L 1107.122764 -221.708458 
L 1104.680779 -226.550387 
L 1102.109156 -231.392315 
L 1099.481747 -236.234244 
L 1096.91071 -241.076173 
L 1094.513116 -245.918101 
L 1092.376062 -250.76003 
L 1090.537042 -255.601959 
L 1088.987382 -260.443888 
L 1087.694591 -265.285816 
L 1086.630448 -270.127745 
L 1085.78989 -274.969674 
L 1085.191965 -279.811602 
L 1084.864451 -284.653531 
L 1084.822244 -289.49546 
L 1085.051946 -294.337388 
L 1085.511397 -299.179317 
L 1086.145099 -304.021246 
L 1086.907661 -308.863175 
L 1087.781504 -313.705103 
L 1088.777045 -318.547032 
L 1089.914347 -323.388961 
L 1091.198476 -328.230889 
L 1092.605789 -333.072818 
L 1094.090337 -337.914747 
L 1095.604476 -342.756676 
L 1097.118249 -347.598604 
L 1098.625217 -352.440533 
L 1100.13425 -357.282462 
L 1101.656407 -362.12439 
L 1103.196428 -366.966319 
L 1104.751692 -371.808248 
L 1106.315078 -376.650176 
L 1107.877119 -381.492105 
L 1109.426228 -386.334034 
L 1110.949209 -391.175963 
L 1112.434462 -396.017891 
L 1113.876999 -400.85982 
L 1115.280895 -405.701749 
L 1116.654818 -410.543677 
L 1118.001112 -415.385606 
L 1119.304858 -420.227535 
L 1120.531199 -425.069464 
L 1121.634585 -429.911392 
L 1122.575968 -434.753321 
L 1123.33896 -439.59525 
L 1123.936782 -444.437178 
L 1124.407031 -449.279107 
L 1124.797383 -454.121036 
L 1125.149286 -458.962964 
L 1125.487008 -463.804893 
L 1125.816285 -468.646822 
L 1126.131561 -473.488751 
L 1126.426259 -478.330679 
L 1126.699363 -483.172608 
L 1126.954734 -488.014537 
L 1127.195005 -492.856465 
L 1127.415675 -497.698394 
L 1127.604571 -502.540323 
L 1127.74758 -507.382252 
L 1127.837031 -512.22418 
L 1127.877398 -517.066109 
L 1127.885023 -521.908038 
L 1127.882254 -526.749966 
L 1127.889359 -531.591895 
L 1127.918206 -536.433824 
L 1127.970306 -541.275752 
L 1128.039302 -546.117681 
L 1128.115891 -550.95961 
L 1128.192324 -555.801539 
L 1128.264459 -560.643467 
L 1128.331147 -565.485396 
L 1128.392253 -570.327325 
L 1128.447062 -575.169253 
L 1128.494024 -580.011182 
L 1128.531582 -584.853111 
L 1128.559168 -589.69504 
L 1128.5776 -594.536968 
L 1128.6224 -594.536968 
L 1128.6224 -594.536968 
L 1128.640832 -589.69504 
L 1128.668418 -584.853111 
L 1128.705976 -580.011182 
L 1128.752938 -575.169253 
L 1128.807747 -570.327325 
L 1128.868853 -565.485396 
L 1128.935541 -560.643467 
L 1129.007676 -555.801539 
L 1129.084109 -550.95961 
L 1129.160698 -546.117681 
L 1129.229694 -541.275752 
L 1129.281794 -536.433824 
L 1129.310641 -531.591895 
L 1129.317746 -526.749966 
L 1129.314977 -521.908038 
L 1129.322602 -517.066109 
L 1129.362969 -512.22418 
L 1129.45242 -507.382252 
L 1129.595429 -502.540323 
L 1129.784325 -497.698394 
L 1130.004995 -492.856465 
L 1130.245266 -488.014537 
L 1130.500637 -483.172608 
L 1130.773741 -478.330679 
L 1131.068439 -473.488751 
L 1131.383715 -468.646822 
L 1131.712992 -463.804893 
L 1132.050714 -458.962964 
L 1132.402617 -454.121036 
L 1132.792969 -449.279107 
L 1133.263218 -444.437178 
L 1133.86104 -439.59525 
L 1134.624032 -434.753321 
L 1135.565415 -429.911392 
L 1136.668801 -425.069464 
L 1137.895142 -420.227535 
L 1139.198888 -415.385606 
L 1140.545182 -410.543677 
L 1141.919105 -405.701749 
L 1143.323001 -400.85982 
L 1144.765538 -396.017891 
L 1146.250791 -391.175963 
L 1147.773772 -386.334034 
L 1149.322881 -381.492105 
L 1150.884922 -376.650176 
L 1152.448308 -371.808248 
L 1154.003572 -366.966319 
L 1155.543593 -362.12439 
L 1157.06575 -357.282462 
L 1158.574783 -352.440533 
L 1160.081751 -347.598604 
L 1161.595524 -342.756676 
L 1163.109663 -337.914747 
L 1164.594211 -333.072818 
L 1166.001524 -328.230889 
L 1167.285653 -323.388961 
L 1168.422955 -318.547032 
L 1169.418496 -313.705103 
L 1170.292339 -308.863175 
L 1171.054901 -304.021246 
L 1171.688603 -299.179317 
L 1172.148054 -294.337388 
L 1172.377756 -289.49546 
L 1172.335549 -284.653531 
L 1172.008035 -279.811602 
L 1171.41011 -274.969674 
L 1170.569552 -270.127745 
L 1169.505409 -265.285816 
L 1168.212618 -260.443888 
L 1166.662958 -255.601959 
L 1164.823938 -250.76003 
L 1162.686884 -245.918101 
L 1160.28929 -241.076173 
L 1157.718253 -236.234244 
L 1155.090844 -231.392315 
L 1152.519221 -226.550387 
L 1150.077236 -221.708458 
L 1147.785541 -216.866529 
L 1145.622308 -212.0246 
L 1143.551864 -207.182672 
L 1141.553731 -202.340743 
L 1139.636484 -197.498814 
L 1137.832463 -192.656886 
L 1136.181416 -187.814957 
L 1134.715182 -182.973028 
L 1133.45059 -178.1311 
L 1132.389884 -173.289171 
L 1131.523803 -168.447242 
L 1130.833928 -163.605313 
L 1130.294535 -158.763385 
L 1129.875838 -153.921456 
L 1129.54899 -149.079527 
L 1129.290909 -144.237599 
L 1129.086443 -139.39567 
L 1128.927117 -134.553741 
L 1128.807808 -129.711812 
L 1128.723619 -124.869884 
L 1128.6684 -120.027955 
L 1128.635029 -115.186026 
z
" style="stroke: #3f3f3f; stroke-width: 1.25"/>
    </defs>
    <g clip-path="url(#p06136b525a)">
     <use xlink:href="#mde2a5b75bb" x="0" y="720" style="fill: #3274a1; stroke: #3f3f3f; stroke-width: 1.25"/>
    </g>
   </g>
   <g id="PolyCollection_10">
    <defs>
     <path id="m2de419e9d2" d="M 1240.228914 -115.426528 
L 1240.171086 -115.426528 
L 1240.144348 -120.263598 
L 1240.100728 -125.100668 
L 1240.034745 -129.937738 
L 1239.940925 -134.774808 
L 1239.813091 -139.611878 
L 1239.642223 -144.448949 
L 1239.413333 -149.286019 
L 1239.102789 -154.123089 
L 1238.67804 -158.960159 
L 1238.101021 -163.797229 
L 1237.335028 -168.634299 
L 1236.35328 -173.471369 
L 1235.146801 -178.308439 
L 1233.729531 -183.145509 
L 1232.138911 -187.982579 
L 1230.430091 -192.819649 
L 1228.662324 -197.656719 
L 1226.878903 -202.49379 
L 1225.086909 -207.33086 
L 1223.247045 -212.16793 
L 1221.282584 -217.005 
L 1219.108627 -221.84207 
L 1216.671969 -226.67914 
L 1213.984564 -231.51621 
L 1211.134868 -236.35328 
L 1208.270969 -241.19035 
L 1205.562034 -246.02742 
L 1203.153579 -250.86449 
L 1201.133745 -255.701561 
L 1199.522197 -260.538631 
L 1198.283571 -265.375701 
L 1197.357527 -270.212771 
L 1196.691382 -275.049841 
L 1196.261412 -279.886911 
L 1196.074685 -284.723981 
L 1196.152141 -289.561051 
L 1196.502393 -294.398121 
L 1197.101348 -299.235191 
L 1197.891159 -304.072261 
L 1198.801446 -308.909331 
L 1199.780582 -313.746402 
L 1200.81635 -318.583472 
L 1201.931717 -323.420542 
L 1203.15911 -328.257612 
L 1204.511327 -333.094682 
L 1205.967501 -337.931752 
L 1207.480024 -342.768822 
L 1208.994688 -347.605892 
L 1210.471328 -352.442962 
L 1211.896002 -357.280032 
L 1213.281971 -362.117102 
L 1214.661033 -366.954173 
L 1216.069147 -371.791243 
L 1217.532083 -376.628313 
L 1219.056908 -381.465383 
L 1220.632234 -386.302453 
L 1222.235484 -391.139523 
L 1223.842223 -395.976593 
L 1225.432608 -400.813663 
L 1226.9923 -405.650733 
L 1228.508024 -410.487803 
L 1229.960715 -415.324873 
L 1231.321067 -420.161943 
L 1232.551844 -424.999014 
L 1233.617598 -429.836084 
L 1234.497458 -434.673154 
L 1235.194203 -439.510224 
L 1235.734963 -444.347294 
L 1236.163537 -449.184364 
L 1236.528044 -454.021434 
L 1236.868636 -458.858504 
L 1237.209056 -463.695574 
L 1237.554392 -468.532644 
L 1237.895439 -473.369714 
L 1238.217498 -478.206785 
L 1238.509039 -483.043855 
L 1238.765643 -487.880925 
L 1238.987798 -492.717995 
L 1239.17554 -497.555065 
L 1239.32506 -502.392135 
L 1239.430396 -507.229205 
L 1239.489015 -512.066275 
L 1239.506958 -516.903345 
L 1239.499669 -521.740415 
L 1239.487666 -526.577485 
L 1239.48948 -531.414555 
L 1239.515683 -536.251626 
L 1239.566839 -541.088696 
L 1239.635844 -545.925766 
L 1239.7128 -550.762836 
L 1239.789583 -555.599906 
L 1239.861936 -560.436976 
L 1239.928787 -565.274046 
L 1239.990136 -570.111116 
L 1240.045334 -574.948186 
L 1240.092787 -579.785256 
L 1240.130828 -584.622326 
L 1240.158795 -589.459397 
L 1240.177466 -594.296467 
L 1240.222534 -594.296467 
L 1240.222534 -594.296467 
L 1240.241205 -589.459397 
L 1240.269172 -584.622326 
L 1240.307213 -579.785256 
L 1240.354666 -574.948186 
L 1240.409864 -570.111116 
L 1240.471213 -565.274046 
L 1240.538064 -560.436976 
L 1240.610417 -555.599906 
L 1240.6872 -550.762836 
L 1240.764156 -545.925766 
L 1240.833161 -541.088696 
L 1240.884317 -536.251626 
L 1240.91052 -531.414555 
L 1240.912334 -526.577485 
L 1240.900331 -521.740415 
L 1240.893042 -516.903345 
L 1240.910985 -512.066275 
L 1240.969604 -507.229205 
L 1241.07494 -502.392135 
L 1241.22446 -497.555065 
L 1241.412202 -492.717995 
L 1241.634357 -487.880925 
L 1241.890961 -483.043855 
L 1242.182502 -478.206785 
L 1242.504561 -473.369714 
L 1242.845608 -468.532644 
L 1243.190944 -463.695574 
L 1243.531364 -458.858504 
L 1243.871956 -454.021434 
L 1244.236463 -449.184364 
L 1244.665037 -444.347294 
L 1245.205797 -439.510224 
L 1245.902542 -434.673154 
L 1246.782402 -429.836084 
L 1247.848156 -424.999014 
L 1249.078933 -420.161943 
L 1250.439285 -415.324873 
L 1251.891976 -410.487803 
L 1253.4077 -405.650733 
L 1254.967392 -400.813663 
L 1256.557777 -395.976593 
L 1258.164516 -391.139523 
L 1259.767766 -386.302453 
L 1261.343092 -381.465383 
L 1262.867917 -376.628313 
L 1264.330853 -371.791243 
L 1265.738967 -366.954173 
L 1267.118029 -362.117102 
L 1268.503998 -357.280032 
L 1269.928672 -352.442962 
L 1271.405312 -347.605892 
L 1272.919976 -342.768822 
L 1274.432499 -337.931752 
L 1275.888673 -333.094682 
L 1277.24089 -328.257612 
L 1278.468283 -323.420542 
L 1279.58365 -318.583472 
L 1280.619418 -313.746402 
L 1281.598554 -308.909331 
L 1282.508841 -304.072261 
L 1283.298652 -299.235191 
L 1283.897607 -294.398121 
L 1284.247859 -289.561051 
L 1284.325315 -284.723981 
L 1284.138588 -279.886911 
L 1283.708618 -275.049841 
L 1283.042473 -270.212771 
L 1282.116429 -265.375701 
L 1280.877803 -260.538631 
L 1279.266255 -255.701561 
L 1277.246421 -250.86449 
L 1274.837966 -246.02742 
L 1272.129031 -241.19035 
L 1269.265132 -236.35328 
L 1266.415436 -231.51621 
L 1263.728031 -226.67914 
L 1261.291373 -221.84207 
L 1259.117416 -217.005 
L 1257.152955 -212.16793 
L 1255.313091 -207.33086 
L 1253.521097 -202.49379 
L 1251.737676 -197.656719 
L 1249.969909 -192.819649 
L 1248.261089 -187.982579 
L 1246.670469 -183.145509 
L 1245.253199 -178.308439 
L 1244.04672 -173.471369 
L 1243.064972 -168.634299 
L 1242.298979 -163.797229 
L 1241.72196 -158.960159 
L 1241.297211 -154.123089 
L 1240.986667 -149.286019 
L 1240.757777 -144.448949 
L 1240.586909 -139.611878 
L 1240.459075 -134.774808 
L 1240.365255 -129.937738 
L 1240.299272 -125.100668 
L 1240.255652 -120.263598 
L 1240.228914 -115.426528 
z
" style="stroke: #3f3f3f; stroke-width: 1.25"/>
    </defs>
    <g clip-path="url(#p06136b525a)">
     <use xlink:href="#m2de419e9d2" x="0" y="720" style="fill: #3274a1; stroke: #3f3f3f; stroke-width: 1.25"/>
    </g>
   </g>
   <g id="matplotlib.axis_1">
    <g id="xtick_1">
     <g id="line2d_1">
      <defs>
       <path id="mddd5d70e15" d="M 0 0 
L 0 3.5 
" style="stroke: #000000; stroke-width: 0.8"/>
      </defs>
      <g>
       <use xlink:href="#mddd5d70e15" x="235.8" y="640.8" style="stroke: #000000; stroke-width: 0.8"/>
      </g>
     </g>
     <g id="text_1">
      <!-- 0 -->
      <g transform="translate(232.61875 655.398438) scale(0.1 -0.1)">
       <defs>
        <path id="DejaVuSans-30" d="M 2034 4250 
Q 1547 4250 1301 3770 
Q 1056 3291 1056 2328 
Q 1056 1369 1301 889 
Q 1547 409 2034 409 
Q 2525 409 2770 889 
Q 3016 1369 3016 2328 
Q 3016 3291 2770 3770 
Q 2525 4250 2034 4250 
z
M 2034 4750 
Q 2819 4750 3233 4129 
Q 3647 3509 3647 2328 
Q 3647 1150 3233 529 
Q 2819 -91 2034 -91 
Q 1250 -91 836 529 
Q 422 1150 422 2328 
Q 422 3509 836 4129 
Q 1250 4750 2034 4750 
z
" transform="scale(0.015625)"/>
       </defs>
       <use xlink:href="#DejaVuSans-30"/>
      </g>
     </g>
    </g>
    <g id="xtick_2">
     <g id="line2d_2">
      <g>
       <use xlink:href="#mddd5d70e15" x="347.4" y="640.8" style="stroke: #000000; stroke-width: 0.8"/>
      </g>
     </g>
     <g id="text_2">
      <!-- 1 -->
      <g transform="translate(344.21875 655.398438) scale(0.1 -0.1)">
       <defs>
        <path id="DejaVuSans-31" d="M 794 531 
L 1825 531 
L 1825 4091 
L 703 3866 
L 703 4441 
L 1819 4666 
L 2450 4666 
L 2450 531 
L 3481 531 
L 3481 0 
L 794 0 
L 794 531 
z
" transform="scale(0.015625)"/>
       </defs>
       <use xlink:href="#DejaVuSans-31"/>
      </g>
     </g>
    </g>
    <g id="xtick_3">
     <g id="line2d_3">
      <g>
       <use xlink:href="#mddd5d70e15" x="459" y="640.8" style="stroke: #000000; stroke-width: 0.8"/>
      </g>
     </g>
     <g id="text_3">
      <!-- 2 -->
      <g transform="translate(455.81875 655.398438) scale(0.1 -0.1)">
       <defs>
        <path id="DejaVuSans-32" d="M 1228 531 
L 3431 531 
L 3431 0 
L 469 0 
L 469 531 
Q 828 903 1448 1529 
Q 2069 2156 2228 2338 
Q 2531 2678 2651 2914 
Q 2772 3150 2772 3378 
Q 2772 3750 2511 3984 
Q 2250 4219 1831 4219 
Q 1534 4219 1204 4116 
Q 875 4013 500 3803 
L 500 4441 
Q 881 4594 1212 4672 
Q 1544 4750 1819 4750 
Q 2544 4750 2975 4387 
Q 3406 4025 3406 3419 
Q 3406 3131 3298 2873 
Q 3191 2616 2906 2266 
Q 2828 2175 2409 1742 
Q 1991 1309 1228 531 
z
" transform="scale(0.015625)"/>
       </defs>
       <use xlink:href="#DejaVuSans-32"/>
      </g>
     </g>
    </g>
    <g id="xtick_4">
     <g id="line2d_4">
      <g>
       <use xlink:href="#mddd5d70e15" x="570.6" y="640.8" style="stroke: #000000; stroke-width: 0.8"/>
      </g>
     </g>
     <g id="text_4">
      <!-- 3 -->
      <g transform="translate(567.41875 655.398438) scale(0.1 -0.1)">
       <defs>
        <path id="DejaVuSans-33" d="M 2597 2516 
Q 3050 2419 3304 2112 
Q 3559 1806 3559 1356 
Q 3559 666 3084 287 
Q 2609 -91 1734 -91 
Q 1441 -91 1130 -33 
Q 819 25 488 141 
L 488 750 
Q 750 597 1062 519 
Q 1375 441 1716 441 
Q 2309 441 2620 675 
Q 2931 909 2931 1356 
Q 2931 1769 2642 2001 
Q 2353 2234 1838 2234 
L 1294 2234 
L 1294 2753 
L 1863 2753 
Q 2328 2753 2575 2939 
Q 2822 3125 2822 3475 
Q 2822 3834 2567 4026 
Q 2313 4219 1838 4219 
Q 1578 4219 1281 4162 
Q 984 4106 628 3988 
L 628 4550 
Q 988 4650 1302 4700 
Q 1616 4750 1894 4750 
Q 2613 4750 3031 4423 
Q 3450 4097 3450 3541 
Q 3450 3153 3228 2886 
Q 3006 2619 2597 2516 
z
" transform="scale(0.015625)"/>
       </defs>
       <use xlink:href="#DejaVuSans-33"/>
      </g>
     </g>
    </g>
    <g id="xtick_5">
     <g id="line2d_5">
      <g>
       <use xlink:href="#mddd5d70e15" x="682.2" y="640.8" style="stroke: #000000; stroke-width: 0.8"/>
      </g>
     </g>
     <g id="text_5">
      <!-- 4 -->
      <g transform="translate(679.01875 655.398438) scale(0.1 -0.1)">
       <defs>
        <path id="DejaVuSans-34" d="M 2419 4116 
L 825 1625 
L 2419 1625 
L 2419 4116 
z
M 2253 4666 
L 3047 4666 
L 3047 1625 
L 3713 1625 
L 3713 1100 
L 3047 1100 
L 3047 0 
L 2419 0 
L 2419 1100 
L 313 1100 
L 313 1709 
L 2253 4666 
z
" transform="scale(0.015625)"/>
       </defs>
       <use xlink:href="#DejaVuSans-34"/>
      </g>
     </g>
    </g>
    <g id="xtick_6">
     <g id="line2d_6">
      <g>
       <use xlink:href="#mddd5d70e15" x="793.8" y="640.8" style="stroke: #000000; stroke-width: 0.8"/>
      </g>
     </g>
     <g id="text_6">
      <!-- 5 -->
      <g transform="translate(790.61875 655.398438) scale(0.1 -0.1)">
       <defs>
        <path id="DejaVuSans-35" d="M 691 4666 
L 3169 4666 
L 3169 4134 
L 1269 4134 
L 1269 2991 
Q 1406 3038 1543 3061 
Q 1681 3084 1819 3084 
Q 2600 3084 3056 2656 
Q 3513 2228 3513 1497 
Q 3513 744 3044 326 
Q 2575 -91 1722 -91 
Q 1428 -91 1123 -41 
Q 819 9 494 109 
L 494 744 
Q 775 591 1075 516 
Q 1375 441 1709 441 
Q 2250 441 2565 725 
Q 2881 1009 2881 1497 
Q 2881 1984 2565 2268 
Q 2250 2553 1709 2553 
Q 1456 2553 1204 2497 
Q 953 2441 691 2322 
L 691 4666 
z
" transform="scale(0.015625)"/>
       </defs>
       <use xlink:href="#DejaVuSans-35"/>
      </g>
     </g>
    </g>
    <g id="xtick_7">
     <g id="line2d_7">
      <g>
       <use xlink:href="#mddd5d70e15" x="905.4" y="640.8" style="stroke: #000000; stroke-width: 0.8"/>
      </g>
     </g>
     <g id="text_7">
      <!-- 6 -->
      <g transform="translate(902.21875 655.398438) scale(0.1 -0.1)">
       <defs>
        <path id="DejaVuSans-36" d="M 2113 2584 
Q 1688 2584 1439 2293 
Q 1191 2003 1191 1497 
Q 1191 994 1439 701 
Q 1688 409 2113 409 
Q 2538 409 2786 701 
Q 3034 994 3034 1497 
Q 3034 2003 2786 2293 
Q 2538 2584 2113 2584 
z
M 3366 4563 
L 3366 3988 
Q 3128 4100 2886 4159 
Q 2644 4219 2406 4219 
Q 1781 4219 1451 3797 
Q 1122 3375 1075 2522 
Q 1259 2794 1537 2939 
Q 1816 3084 2150 3084 
Q 2853 3084 3261 2657 
Q 3669 2231 3669 1497 
Q 3669 778 3244 343 
Q 2819 -91 2113 -91 
Q 1303 -91 875 529 
Q 447 1150 447 2328 
Q 447 3434 972 4092 
Q 1497 4750 2381 4750 
Q 2619 4750 2861 4703 
Q 3103 4656 3366 4563 
z
" transform="scale(0.015625)"/>
       </defs>
       <use xlink:href="#DejaVuSans-36"/>
      </g>
     </g>
    </g>
    <g id="xtick_8">
     <g id="line2d_8">
      <g>
       <use xlink:href="#mddd5d70e15" x="1017" y="640.8" style="stroke: #000000; stroke-width: 0.8"/>
      </g>
     </g>
     <g id="text_8">
      <!-- 7 -->
      <g transform="translate(1013.81875 655.398438) scale(0.1 -0.1)">
       <defs>
        <path id="DejaVuSans-37" d="M 525 4666 
L 3525 4666 
L 3525 4397 
L 1831 0 
L 1172 0 
L 2766 4134 
L 525 4134 
L 525 4666 
z
" transform="scale(0.015625)"/>
       </defs>
       <use xlink:href="#DejaVuSans-37"/>
      </g>
     </g>
    </g>
    <g id="xtick_9">
     <g id="line2d_9">
      <g>
       <use xlink:href="#mddd5d70e15" x="1128.6" y="640.8" style="stroke: #000000; stroke-width: 0.8"/>
      </g>
     </g>
     <g id="text_9">
      <!-- 8 -->
      <g transform="translate(1125.41875 655.398438) scale(0.1 -0.1)">
       <defs>
        <path id="DejaVuSans-38" d="M 2034 2216 
Q 1584 2216 1326 1975 
Q 1069 1734 1069 1313 
Q 1069 891 1326 650 
Q 1584 409 2034 409 
Q 2484 409 2743 651 
Q 3003 894 3003 1313 
Q 3003 1734 2745 1975 
Q 2488 2216 2034 2216 
z
M 1403 2484 
Q 997 2584 770 2862 
Q 544 3141 544 3541 
Q 544 4100 942 4425 
Q 1341 4750 2034 4750 
Q 2731 4750 3128 4425 
Q 3525 4100 3525 3541 
Q 3525 3141 3298 2862 
Q 3072 2584 2669 2484 
Q 3125 2378 3379 2068 
Q 3634 1759 3634 1313 
Q 3634 634 3220 271 
Q 2806 -91 2034 -91 
Q 1263 -91 848 271 
Q 434 634 434 1313 
Q 434 1759 690 2068 
Q 947 2378 1403 2484 
z
M 1172 3481 
Q 1172 3119 1398 2916 
Q 1625 2713 2034 2713 
Q 2441 2713 2670 2916 
Q 2900 3119 2900 3481 
Q 2900 3844 2670 4047 
Q 2441 4250 2034 4250 
Q 1625 4250 1398 4047 
Q 1172 3844 1172 3481 
z
" transform="scale(0.015625)"/>
       </defs>
       <use xlink:href="#DejaVuSans-38"/>
      </g>
     </g>
    </g>
    <g id="xtick_10">
     <g id="line2d_10">
      <g>
       <use xlink:href="#mddd5d70e15" x="1240.2" y="640.8" style="stroke: #000000; stroke-width: 0.8"/>
      </g>
     </g>
     <g id="text_10">
      <!-- 9 -->
      <g transform="translate(1237.01875 655.398438) scale(0.1 -0.1)">
       <defs>
        <path id="DejaVuSans-39" d="M 703 97 
L 703 672 
Q 941 559 1184 500 
Q 1428 441 1663 441 
Q 2288 441 2617 861 
Q 2947 1281 2994 2138 
Q 2813 1869 2534 1725 
Q 2256 1581 1919 1581 
Q 1219 1581 811 2004 
Q 403 2428 403 3163 
Q 403 3881 828 4315 
Q 1253 4750 1959 4750 
Q 2769 4750 3195 4129 
Q 3622 3509 3622 2328 
Q 3622 1225 3098 567 
Q 2575 -91 1691 -91 
Q 1453 -91 1209 -44 
Q 966 3 703 97 
z
M 1959 2075 
Q 2384 2075 2632 2365 
Q 2881 2656 2881 3163 
Q 2881 3666 2632 3958 
Q 2384 4250 1959 4250 
Q 1534 4250 1286 3958 
Q 1038 3666 1038 3163 
Q 1038 2656 1286 2365 
Q 1534 2075 1959 2075 
z
" transform="scale(0.015625)"/>
       </defs>
       <use xlink:href="#DejaVuSans-39"/>
      </g>
     </g>
    </g>
    <g id="text_11">
     <!-- iteration -->
     <g transform="translate(716.877344 669.076563) scale(0.1 -0.1)">
      <defs>
       <path id="DejaVuSans-69" d="M 603 3500 
L 1178 3500 
L 1178 0 
L 603 0 
L 603 3500 
z
M 603 4863 
L 1178 4863 
L 1178 4134 
L 603 4134 
L 603 4863 
z
" transform="scale(0.015625)"/>
       <path id="DejaVuSans-74" d="M 1172 4494 
L 1172 3500 
L 2356 3500 
L 2356 3053 
L 1172 3053 
L 1172 1153 
Q 1172 725 1289 603 
Q 1406 481 1766 481 
L 2356 481 
L 2356 0 
L 1766 0 
Q 1100 0 847 248 
Q 594 497 594 1153 
L 594 3053 
L 172 3053 
L 172 3500 
L 594 3500 
L 594 4494 
L 1172 4494 
z
" transform="scale(0.015625)"/>
       <path id="DejaVuSans-65" d="M 3597 1894 
L 3597 1613 
L 953 1613 
Q 991 1019 1311 708 
Q 1631 397 2203 397 
Q 2534 397 2845 478 
Q 3156 559 3463 722 
L 3463 178 
Q 3153 47 2828 -22 
Q 2503 -91 2169 -91 
Q 1331 -91 842 396 
Q 353 884 353 1716 
Q 353 2575 817 3079 
Q 1281 3584 2069 3584 
Q 2775 3584 3186 3129 
Q 3597 2675 3597 1894 
z
M 3022 2063 
Q 3016 2534 2758 2815 
Q 2500 3097 2075 3097 
Q 1594 3097 1305 2825 
Q 1016 2553 972 2059 
L 3022 2063 
z
" transform="scale(0.015625)"/>
       <path id="DejaVuSans-72" d="M 2631 2963 
Q 2534 3019 2420 3045 
Q 2306 3072 2169 3072 
Q 1681 3072 1420 2755 
Q 1159 2438 1159 1844 
L 1159 0 
L 581 0 
L 581 3500 
L 1159 3500 
L 1159 2956 
Q 1341 3275 1631 3429 
Q 1922 3584 2338 3584 
Q 2397 3584 2469 3576 
Q 2541 3569 2628 3553 
L 2631 2963 
z
" transform="scale(0.015625)"/>
       <path id="DejaVuSans-61" d="M 2194 1759 
Q 1497 1759 1228 1600 
Q 959 1441 959 1056 
Q 959 750 1161 570 
Q 1363 391 1709 391 
Q 2188 391 2477 730 
Q 2766 1069 2766 1631 
L 2766 1759 
L 2194 1759 
z
M 3341 1997 
L 3341 0 
L 2766 0 
L 2766 531 
Q 2569 213 2275 61 
Q 1981 -91 1556 -91 
Q 1019 -91 701 211 
Q 384 513 384 1019 
Q 384 1609 779 1909 
Q 1175 2209 1959 2209 
L 2766 2209 
L 2766 2266 
Q 2766 2663 2505 2880 
Q 2244 3097 1772 3097 
Q 1472 3097 1187 3025 
Q 903 2953 641 2809 
L 641 3341 
Q 956 3463 1253 3523 
Q 1550 3584 1831 3584 
Q 2591 3584 2966 3190 
Q 3341 2797 3341 1997 
z
" transform="scale(0.015625)"/>
       <path id="DejaVuSans-6f" d="M 1959 3097 
Q 1497 3097 1228 2736 
Q 959 2375 959 1747 
Q 959 1119 1226 758 
Q 1494 397 1959 397 
Q 2419 397 2687 759 
Q 2956 1122 2956 1747 
Q 2956 2369 2687 2733 
Q 2419 3097 1959 3097 
z
M 1959 3584 
Q 2709 3584 3137 3096 
Q 3566 2609 3566 1747 
Q 3566 888 3137 398 
Q 2709 -91 1959 -91 
Q 1206 -91 779 398 
Q 353 888 353 1747 
Q 353 2609 779 3096 
Q 1206 3584 1959 3584 
z
" transform="scale(0.015625)"/>
       <path id="DejaVuSans-6e" d="M 3513 2113 
L 3513 0 
L 2938 0 
L 2938 2094 
Q 2938 2591 2744 2837 
Q 2550 3084 2163 3084 
Q 1697 3084 1428 2787 
Q 1159 2491 1159 1978 
L 1159 0 
L 581 0 
L 581 3500 
L 1159 3500 
L 1159 2956 
Q 1366 3272 1645 3428 
Q 1925 3584 2291 3584 
Q 2894 3584 3203 3211 
Q 3513 2838 3513 2113 
z
" transform="scale(0.015625)"/>
      </defs>
      <use xlink:href="#DejaVuSans-69"/>
      <use xlink:href="#DejaVuSans-74" x="27.783203"/>
      <use xlink:href="#DejaVuSans-65" x="66.992188"/>
      <use xlink:href="#DejaVuSans-72" x="128.515625"/>
      <use xlink:href="#DejaVuSans-61" x="169.628906"/>
      <use xlink:href="#DejaVuSans-74" x="230.908203"/>
      <use xlink:href="#DejaVuSans-69" x="270.117188"/>
      <use xlink:href="#DejaVuSans-6f" x="297.900391"/>
      <use xlink:href="#DejaVuSans-6e" x="359.082031"/>
     </g>
    </g>
   </g>
   <g id="matplotlib.axis_2">
    <g id="ytick_1">
     <g id="line2d_11">
      <defs>
       <path id="m0d9443253b" d="M 0 0 
L -3.5 0 
" style="stroke: #000000; stroke-width: 0.8"/>
      </defs>
      <g>
       <use xlink:href="#m0d9443253b" x="180" y="593.369942" style="stroke: #000000; stroke-width: 0.8"/>
      </g>
     </g>
     <g id="text_12">
      <!-- 0.2 -->
      <g transform="translate(148.717187 597.16916) scale(0.1 -0.1)">
       <defs>
        <path id="DejaVuSans-2212" d="M 678 2272 
L 4684 2272 
L 4684 1741 
L 678 1741 
L 678 2272 
z
" transform="scale(0.015625)"/>
        <path id="DejaVuSans-2e" d="M 684 794 
L 1344 794 
L 1344 0 
L 684 0 
L 684 794 
z
" transform="scale(0.015625)"/>
       </defs>
       <use xlink:href="#DejaVuSans-2212"/>
       <use xlink:href="#DejaVuSans-30" x="83.789062"/>
       <use xlink:href="#DejaVuSans-2e" x="147.412109"/>
       <use xlink:href="#DejaVuSans-32" x="179.199219"/>
      </g>
     </g>
    </g>
    <g id="ytick_2">
     <g id="line2d_12">
      <g>
       <use xlink:href="#m0d9443253b" x="180" y="477.665449" style="stroke: #000000; stroke-width: 0.8"/>
      </g>
     </g>
     <g id="text_13">
      <!-- 0.0 -->
      <g transform="translate(157.096875 481.464668) scale(0.1 -0.1)">
       <use xlink:href="#DejaVuSans-30"/>
       <use xlink:href="#DejaVuSans-2e" x="63.623047"/>
       <use xlink:href="#DejaVuSans-30" x="95.410156"/>
      </g>
     </g>
    </g>
    <g id="ytick_3">
     <g id="line2d_13">
      <g>
       <use xlink:href="#m0d9443253b" x="180" y="361.960956" style="stroke: #000000; stroke-width: 0.8"/>
      </g>
     </g>
     <g id="text_14">
      <!-- 0.2 -->
      <g transform="translate(157.096875 365.760175) scale(0.1 -0.1)">
       <use xlink:href="#DejaVuSans-30"/>
       <use xlink:href="#DejaVuSans-2e" x="63.623047"/>
       <use xlink:href="#DejaVuSans-32" x="95.410156"/>
      </g>
     </g>
    </g>
    <g id="ytick_4">
     <g id="line2d_14">
      <g>
       <use xlink:href="#m0d9443253b" x="180" y="246.256464" style="stroke: #000000; stroke-width: 0.8"/>
      </g>
     </g>
     <g id="text_15">
      <!-- 0.4 -->
      <g transform="translate(157.096875 250.055682) scale(0.1 -0.1)">
       <use xlink:href="#DejaVuSans-30"/>
       <use xlink:href="#DejaVuSans-2e" x="63.623047"/>
       <use xlink:href="#DejaVuSans-34" x="95.410156"/>
      </g>
     </g>
    </g>
    <g id="ytick_5">
     <g id="line2d_15">
      <g>
       <use xlink:href="#m0d9443253b" x="180" y="130.551971" style="stroke: #000000; stroke-width: 0.8"/>
      </g>
     </g>
     <g id="text_16">
      <!-- 0.6 -->
      <g transform="translate(157.096875 134.35119) scale(0.1 -0.1)">
       <use xlink:href="#DejaVuSans-30"/>
       <use xlink:href="#DejaVuSans-2e" x="63.623047"/>
       <use xlink:href="#DejaVuSans-36" x="95.410156"/>
      </g>
     </g>
    </g>
    <g id="text_17">
     <!-- cosine similarity -->
     <g transform="translate(142.6375 404.307031) rotate(-90) scale(0.1 -0.1)">
      <defs>
       <path id="DejaVuSans-63" d="M 3122 3366 
L 3122 2828 
Q 2878 2963 2633 3030 
Q 2388 3097 2138 3097 
Q 1578 3097 1268 2742 
Q 959 2388 959 1747 
Q 959 1106 1268 751 
Q 1578 397 2138 397 
Q 2388 397 2633 464 
Q 2878 531 3122 666 
L 3122 134 
Q 2881 22 2623 -34 
Q 2366 -91 2075 -91 
Q 1284 -91 818 406 
Q 353 903 353 1747 
Q 353 2603 823 3093 
Q 1294 3584 2113 3584 
Q 2378 3584 2631 3529 
Q 2884 3475 3122 3366 
z
" transform="scale(0.015625)"/>
       <path id="DejaVuSans-73" d="M 2834 3397 
L 2834 2853 
Q 2591 2978 2328 3040 
Q 2066 3103 1784 3103 
Q 1356 3103 1142 2972 
Q 928 2841 928 2578 
Q 928 2378 1081 2264 
Q 1234 2150 1697 2047 
L 1894 2003 
Q 2506 1872 2764 1633 
Q 3022 1394 3022 966 
Q 3022 478 2636 193 
Q 2250 -91 1575 -91 
Q 1294 -91 989 -36 
Q 684 19 347 128 
L 347 722 
Q 666 556 975 473 
Q 1284 391 1588 391 
Q 1994 391 2212 530 
Q 2431 669 2431 922 
Q 2431 1156 2273 1281 
Q 2116 1406 1581 1522 
L 1381 1569 
Q 847 1681 609 1914 
Q 372 2147 372 2553 
Q 372 3047 722 3315 
Q 1072 3584 1716 3584 
Q 2034 3584 2315 3537 
Q 2597 3491 2834 3397 
z
" transform="scale(0.015625)"/>
       <path id="DejaVuSans-20" transform="scale(0.015625)"/>
       <path id="DejaVuSans-6d" d="M 3328 2828 
Q 3544 3216 3844 3400 
Q 4144 3584 4550 3584 
Q 5097 3584 5394 3201 
Q 5691 2819 5691 2113 
L 5691 0 
L 5113 0 
L 5113 2094 
Q 5113 2597 4934 2840 
Q 4756 3084 4391 3084 
Q 3944 3084 3684 2787 
Q 3425 2491 3425 1978 
L 3425 0 
L 2847 0 
L 2847 2094 
Q 2847 2600 2669 2842 
Q 2491 3084 2119 3084 
Q 1678 3084 1418 2786 
Q 1159 2488 1159 1978 
L 1159 0 
L 581 0 
L 581 3500 
L 1159 3500 
L 1159 2956 
Q 1356 3278 1631 3431 
Q 1906 3584 2284 3584 
Q 2666 3584 2933 3390 
Q 3200 3197 3328 2828 
z
" transform="scale(0.015625)"/>
       <path id="DejaVuSans-6c" d="M 603 4863 
L 1178 4863 
L 1178 0 
L 603 0 
L 603 4863 
z
" transform="scale(0.015625)"/>
       <path id="DejaVuSans-79" d="M 2059 -325 
Q 1816 -950 1584 -1140 
Q 1353 -1331 966 -1331 
L 506 -1331 
L 506 -850 
L 844 -850 
Q 1081 -850 1212 -737 
Q 1344 -625 1503 -206 
L 1606 56 
L 191 3500 
L 800 3500 
L 1894 763 
L 2988 3500 
L 3597 3500 
L 2059 -325 
z
" transform="scale(0.015625)"/>
      </defs>
      <use xlink:href="#DejaVuSans-63"/>
      <use xlink:href="#DejaVuSans-6f" x="54.980469"/>
      <use xlink:href="#DejaVuSans-73" x="116.162109"/>
      <use xlink:href="#DejaVuSans-69" x="168.261719"/>
      <use xlink:href="#DejaVuSans-6e" x="196.044922"/>
      <use xlink:href="#DejaVuSans-65" x="259.423828"/>
      <use xlink:href="#DejaVuSans-20" x="320.947266"/>
      <use xlink:href="#DejaVuSans-73" x="352.734375"/>
      <use xlink:href="#DejaVuSans-69" x="404.833984"/>
      <use xlink:href="#DejaVuSans-6d" x="432.617188"/>
      <use xlink:href="#DejaVuSans-69" x="530.029297"/>
      <use xlink:href="#DejaVuSans-6c" x="557.8125"/>
      <use xlink:href="#DejaVuSans-61" x="585.595703"/>
      <use xlink:href="#DejaVuSans-72" x="646.875"/>
      <use xlink:href="#DejaVuSans-69" x="687.988281"/>
      <use xlink:href="#DejaVuSans-74" x="715.771484"/>
      <use xlink:href="#DejaVuSans-79" x="754.980469"/>
     </g>
    </g>
   </g>
   <g id="line2d_16">
    <path d="M 235.8 551.861534 
L 235.8 245.358446 
" clip-path="url(#p06136b525a)" style="fill: none; stroke: #3f3f3f; stroke-width: 1.875; stroke-linecap: square"/>
   </g>
   <g id="line2d_17">
    <path d="M 235.8 462.705856 
L 235.8 375.21433 
" clip-path="url(#p06136b525a)" style="fill: none; stroke: #3f3f3f; stroke-width: 5.625; stroke-linecap: square"/>
   </g>
   <g id="line2d_18">
    <path d="M 235.8 420.736366 
" clip-path="url(#p06136b525a)" style="fill: none; stroke: #3f3f3f; stroke-width: 1.5; stroke-linecap: square"/>
    <defs>
     <path id="me79a794f4d" d="M 2.34375 0 
L -2.34375 -0 
" style="stroke: #ffffff; stroke-width: 1.125"/>
    </defs>
    <g clip-path="url(#p06136b525a)">
     <use xlink:href="#me79a794f4d" x="235.8" y="420.736366" style="fill: #ffffff; stroke: #ffffff; stroke-width: 1.125"/>
    </g>
   </g>
   <g id="line2d_19">
    <path d="M 347.4 583.366085 
L 347.4 243.329351 
" clip-path="url(#p06136b525a)" style="fill: none; stroke: #3f3f3f; stroke-width: 1.875; stroke-linecap: square"/>
   </g>
   <g id="line2d_20">
    <path d="M 347.4 458.786184 
L 347.4 372.429617 
" clip-path="url(#p06136b525a)" style="fill: none; stroke: #3f3f3f; stroke-width: 5.625; stroke-linecap: square"/>
   </g>
   <g id="line2d_21">
    <path d="M 347.4 416.730856 
" clip-path="url(#p06136b525a)" style="fill: none; stroke: #3f3f3f; stroke-width: 1.5; stroke-linecap: square"/>
    <g clip-path="url(#p06136b525a)">
     <use xlink:href="#me79a794f4d" x="347.4" y="416.730856" style="fill: #ffffff; stroke: #ffffff; stroke-width: 1.125"/>
    </g>
   </g>
   <g id="line2d_22">
    <path d="M 459 583.366085 
L 459 243.329351 
" clip-path="url(#p06136b525a)" style="fill: none; stroke: #3f3f3f; stroke-width: 1.875; stroke-linecap: square"/>
   </g>
   <g id="line2d_23">
    <path d="M 459 459.632042 
L 459 372.197497 
" clip-path="url(#p06136b525a)" style="fill: none; stroke: #3f3f3f; stroke-width: 5.625; stroke-linecap: square"/>
   </g>
   <g id="line2d_24">
    <path d="M 459 415.930764 
" clip-path="url(#p06136b525a)" style="fill: none; stroke: #3f3f3f; stroke-width: 1.5; stroke-linecap: square"/>
    <g clip-path="url(#p06136b525a)">
     <use xlink:href="#me79a794f4d" x="459" y="415.930764" style="fill: #ffffff; stroke: #ffffff; stroke-width: 1.125"/>
    </g>
   </g>
   <g id="line2d_25">
    <path d="M 570.6 565.194353 
L 570.6 239.940364 
" clip-path="url(#p06136b525a)" style="fill: none; stroke: #3f3f3f; stroke-width: 1.875; stroke-linecap: square"/>
   </g>
   <g id="line2d_26">
    <path d="M 570.6 459.505805 
L 570.6 371.42972 
" clip-path="url(#p06136b525a)" style="fill: none; stroke: #3f3f3f; stroke-width: 5.625; stroke-linecap: square"/>
   </g>
   <g id="line2d_27">
    <path d="M 570.6 416.945346 
" clip-path="url(#p06136b525a)" style="fill: none; stroke: #3f3f3f; stroke-width: 1.5; stroke-linecap: square"/>
    <g clip-path="url(#p06136b525a)">
     <use xlink:href="#me79a794f4d" x="570.6" y="416.945346" style="fill: #ffffff; stroke: #ffffff; stroke-width: 1.125"/>
    </g>
   </g>
   <g id="line2d_28">
    <path d="M 682.2 565.194353 
L 682.2 234.213213 
" clip-path="url(#p06136b525a)" style="fill: none; stroke: #3f3f3f; stroke-width: 1.875; stroke-linecap: square"/>
   </g>
   <g id="line2d_29">
    <path d="M 682.2 460.000599 
L 682.2 369.48327 
" clip-path="url(#p06136b525a)" style="fill: none; stroke: #3f3f3f; stroke-width: 5.625; stroke-linecap: square"/>
   </g>
   <g id="line2d_30">
    <path d="M 682.2 417.743128 
" clip-path="url(#p06136b525a)" style="fill: none; stroke: #3f3f3f; stroke-width: 1.5; stroke-linecap: square"/>
    <g clip-path="url(#p06136b525a)">
     <use xlink:href="#me79a794f4d" x="682.2" y="417.743128" style="fill: #ffffff; stroke: #ffffff; stroke-width: 1.125"/>
    </g>
   </g>
   <g id="line2d_31">
    <path d="M 793.8 583.566783 
L 793.8 235.083124 
" clip-path="url(#p06136b525a)" style="fill: none; stroke: #3f3f3f; stroke-width: 1.875; stroke-linecap: square"/>
   </g>
   <g id="line2d_32">
    <path d="M 793.8 459.92543 
L 793.8 369.376542 
" clip-path="url(#p06136b525a)" style="fill: none; stroke: #3f3f3f; stroke-width: 5.625; stroke-linecap: square"/>
   </g>
   <g id="line2d_33">
    <path d="M 793.8 418.604737 
" clip-path="url(#p06136b525a)" style="fill: none; stroke: #3f3f3f; stroke-width: 1.5; stroke-linecap: square"/>
    <g clip-path="url(#p06136b525a)">
     <use xlink:href="#me79a794f4d" x="793.8" y="418.604737" style="fill: #ffffff; stroke: #ffffff; stroke-width: 1.125"/>
    </g>
   </g>
   <g id="line2d_34">
    <path d="M 905.4 583.566783 
L 905.4 235.083124 
" clip-path="url(#p06136b525a)" style="fill: none; stroke: #3f3f3f; stroke-width: 1.875; stroke-linecap: square"/>
   </g>
   <g id="line2d_35">
    <path d="M 905.4 459.92543 
L 905.4 369.980036 
" clip-path="url(#p06136b525a)" style="fill: none; stroke: #3f3f3f; stroke-width: 5.625; stroke-linecap: square"/>
   </g>
   <g id="line2d_36">
    <path d="M 905.4 418.604737 
" clip-path="url(#p06136b525a)" style="fill: none; stroke: #3f3f3f; stroke-width: 1.5; stroke-linecap: square"/>
    <g clip-path="url(#p06136b525a)">
     <use xlink:href="#me79a794f4d" x="905.4" y="418.604737" style="fill: #ffffff; stroke: #ffffff; stroke-width: 1.125"/>
    </g>
   </g>
   <g id="line2d_37">
    <path d="M 1017 565.194353 
L 1017 239.940364 
" clip-path="url(#p06136b525a)" style="fill: none; stroke: #3f3f3f; stroke-width: 1.875; stroke-linecap: square"/>
   </g>
   <g id="line2d_38">
    <path d="M 1017 461.065178 
L 1017 372.28513 
" clip-path="url(#p06136b525a)" style="fill: none; stroke: #3f3f3f; stroke-width: 5.625; stroke-linecap: square"/>
   </g>
   <g id="line2d_39">
    <path d="M 1017 421.460846 
" clip-path="url(#p06136b525a)" style="fill: none; stroke: #3f3f3f; stroke-width: 1.5; stroke-linecap: square"/>
    <g clip-path="url(#p06136b525a)">
     <use xlink:href="#me79a794f4d" x="1017" y="421.460846" style="fill: #ffffff; stroke: #ffffff; stroke-width: 1.125"/>
    </g>
   </g>
   <g id="line2d_40">
    <path d="M 1128.6 573.663321 
L 1128.6 249.630085 
" clip-path="url(#p06136b525a)" style="fill: none; stroke: #3f3f3f; stroke-width: 1.875; stroke-linecap: square"/>
   </g>
   <g id="line2d_41">
    <path d="M 1128.6 460.228146 
L 1128.6 372.28513 
" clip-path="url(#p06136b525a)" style="fill: none; stroke: #3f3f3f; stroke-width: 5.625; stroke-linecap: square"/>
   </g>
   <g id="line2d_42">
    <path d="M 1128.6 419.469406 
" clip-path="url(#p06136b525a)" style="fill: none; stroke: #3f3f3f; stroke-width: 1.5; stroke-linecap: square"/>
    <g clip-path="url(#p06136b525a)">
     <use xlink:href="#me79a794f4d" x="1128.6" y="419.469406" style="fill: #ffffff; stroke: #ffffff; stroke-width: 1.125"/>
    </g>
   </g>
   <g id="line2d_43">
    <path d="M 1240.2 573.663321 
L 1240.2 248.316038 
" clip-path="url(#p06136b525a)" style="fill: none; stroke: #3f3f3f; stroke-width: 1.875; stroke-linecap: square"/>
   </g>
   <g id="line2d_44">
    <path d="M 1240.2 460.697589 
L 1240.2 373.18348 
" clip-path="url(#p06136b525a)" style="fill: none; stroke: #3f3f3f; stroke-width: 5.625; stroke-linecap: square"/>
   </g>
   <g id="line2d_45">
    <path d="M 1240.2 420.554496 
" clip-path="url(#p06136b525a)" style="fill: none; stroke: #3f3f3f; stroke-width: 1.5; stroke-linecap: square"/>
    <g clip-path="url(#p06136b525a)">
     <use xlink:href="#me79a794f4d" x="1240.2" y="420.554496" style="fill: #ffffff; stroke: #ffffff; stroke-width: 1.125"/>
    </g>
   </g>
   <g id="patch_3">
    <path d="M 180 640.8 
L 180 86.4 
" style="fill: none; stroke: #000000; stroke-width: 0.8; stroke-linejoin: miter; stroke-linecap: square"/>
   </g>
   <g id="patch_4">
    <path d="M 1296 640.8 
L 1296 86.4 
" style="fill: none; stroke: #000000; stroke-width: 0.8; stroke-linejoin: miter; stroke-linecap: square"/>
   </g>
   <g id="patch_5">
    <path d="M 180 640.8 
L 1296 640.8 
" style="fill: none; stroke: #000000; stroke-width: 0.8; stroke-linejoin: miter; stroke-linecap: square"/>
   </g>
   <g id="patch_6">
    <path d="M 180 86.4 
L 1296 86.4 
" style="fill: none; stroke: #000000; stroke-width: 0.8; stroke-linejoin: miter; stroke-linecap: square"/>
   </g>
   <g id="text_18">
    <!-- cosine similarity of no-mem_fs (distanceFromInitialPrompt), by iteration -->
    <g transform="translate(522.7575 80.4) scale(0.12 -0.12)">
     <defs>
      <path id="DejaVuSans-66" d="M 2375 4863 
L 2375 4384 
L 1825 4384 
Q 1516 4384 1395 4259 
Q 1275 4134 1275 3809 
L 1275 3500 
L 2222 3500 
L 2222 3053 
L 1275 3053 
L 1275 0 
L 697 0 
L 697 3053 
L 147 3053 
L 147 3500 
L 697 3500 
L 697 3744 
Q 697 4328 969 4595 
Q 1241 4863 1831 4863 
L 2375 4863 
z
" transform="scale(0.015625)"/>
      <path id="DejaVuSans-2d" d="M 313 2009 
L 1997 2009 
L 1997 1497 
L 313 1497 
L 313 2009 
z
" transform="scale(0.015625)"/>
      <path id="DejaVuSans-5f" d="M 3263 -1063 
L 3263 -1509 
L -63 -1509 
L -63 -1063 
L 3263 -1063 
z
" transform="scale(0.015625)"/>
      <path id="DejaVuSans-28" d="M 1984 4856 
Q 1566 4138 1362 3434 
Q 1159 2731 1159 2009 
Q 1159 1288 1364 580 
Q 1569 -128 1984 -844 
L 1484 -844 
Q 1016 -109 783 600 
Q 550 1309 550 2009 
Q 550 2706 781 3412 
Q 1013 4119 1484 4856 
L 1984 4856 
z
" transform="scale(0.015625)"/>
      <path id="DejaVuSans-64" d="M 2906 2969 
L 2906 4863 
L 3481 4863 
L 3481 0 
L 2906 0 
L 2906 525 
Q 2725 213 2448 61 
Q 2172 -91 1784 -91 
Q 1150 -91 751 415 
Q 353 922 353 1747 
Q 353 2572 751 3078 
Q 1150 3584 1784 3584 
Q 2172 3584 2448 3432 
Q 2725 3281 2906 2969 
z
M 947 1747 
Q 947 1113 1208 752 
Q 1469 391 1925 391 
Q 2381 391 2643 752 
Q 2906 1113 2906 1747 
Q 2906 2381 2643 2742 
Q 2381 3103 1925 3103 
Q 1469 3103 1208 2742 
Q 947 2381 947 1747 
z
" transform="scale(0.015625)"/>
      <path id="DejaVuSans-46" d="M 628 4666 
L 3309 4666 
L 3309 4134 
L 1259 4134 
L 1259 2759 
L 3109 2759 
L 3109 2228 
L 1259 2228 
L 1259 0 
L 628 0 
L 628 4666 
z
" transform="scale(0.015625)"/>
      <path id="DejaVuSans-49" d="M 628 4666 
L 1259 4666 
L 1259 0 
L 628 0 
L 628 4666 
z
" transform="scale(0.015625)"/>
      <path id="DejaVuSans-50" d="M 1259 4147 
L 1259 2394 
L 2053 2394 
Q 2494 2394 2734 2622 
Q 2975 2850 2975 3272 
Q 2975 3691 2734 3919 
Q 2494 4147 2053 4147 
L 1259 4147 
z
M 628 4666 
L 2053 4666 
Q 2838 4666 3239 4311 
Q 3641 3956 3641 3272 
Q 3641 2581 3239 2228 
Q 2838 1875 2053 1875 
L 1259 1875 
L 1259 0 
L 628 0 
L 628 4666 
z
" transform="scale(0.015625)"/>
      <path id="DejaVuSans-70" d="M 1159 525 
L 1159 -1331 
L 581 -1331 
L 581 3500 
L 1159 3500 
L 1159 2969 
Q 1341 3281 1617 3432 
Q 1894 3584 2278 3584 
Q 2916 3584 3314 3078 
Q 3713 2572 3713 1747 
Q 3713 922 3314 415 
Q 2916 -91 2278 -91 
Q 1894 -91 1617 61 
Q 1341 213 1159 525 
z
M 3116 1747 
Q 3116 2381 2855 2742 
Q 2594 3103 2138 3103 
Q 1681 3103 1420 2742 
Q 1159 2381 1159 1747 
Q 1159 1113 1420 752 
Q 1681 391 2138 391 
Q 2594 391 2855 752 
Q 3116 1113 3116 1747 
z
" transform="scale(0.015625)"/>
      <path id="DejaVuSans-29" d="M 513 4856 
L 1013 4856 
Q 1481 4119 1714 3412 
Q 1947 2706 1947 2009 
Q 1947 1309 1714 600 
Q 1481 -109 1013 -844 
L 513 -844 
Q 928 -128 1133 580 
Q 1338 1288 1338 2009 
Q 1338 2731 1133 3434 
Q 928 4138 513 4856 
z
" transform="scale(0.015625)"/>
      <path id="DejaVuSans-2c" d="M 750 794 
L 1409 794 
L 1409 256 
L 897 -744 
L 494 -744 
L 750 256 
L 750 794 
z
" transform="scale(0.015625)"/>
      <path id="DejaVuSans-62" d="M 3116 1747 
Q 3116 2381 2855 2742 
Q 2594 3103 2138 3103 
Q 1681 3103 1420 2742 
Q 1159 2381 1159 1747 
Q 1159 1113 1420 752 
Q 1681 391 2138 391 
Q 2594 391 2855 752 
Q 3116 1113 3116 1747 
z
M 1159 2969 
Q 1341 3281 1617 3432 
Q 1894 3584 2278 3584 
Q 2916 3584 3314 3078 
Q 3713 2572 3713 1747 
Q 3713 922 3314 415 
Q 2916 -91 2278 -91 
Q 1894 -91 1617 61 
Q 1341 213 1159 525 
L 1159 0 
L 581 0 
L 581 4863 
L 1159 4863 
L 1159 2969 
z
" transform="scale(0.015625)"/>
     </defs>
     <use xlink:href="#DejaVuSans-63"/>
     <use xlink:href="#DejaVuSans-6f" x="54.980469"/>
     <use xlink:href="#DejaVuSans-73" x="116.162109"/>
     <use xlink:href="#DejaVuSans-69" x="168.261719"/>
     <use xlink:href="#DejaVuSans-6e" x="196.044922"/>
     <use xlink:href="#DejaVuSans-65" x="259.423828"/>
     <use xlink:href="#DejaVuSans-20" x="320.947266"/>
     <use xlink:href="#DejaVuSans-73" x="352.734375"/>
     <use xlink:href="#DejaVuSans-69" x="404.833984"/>
     <use xlink:href="#DejaVuSans-6d" x="432.617188"/>
     <use xlink:href="#DejaVuSans-69" x="530.029297"/>
     <use xlink:href="#DejaVuSans-6c" x="557.8125"/>
     <use xlink:href="#DejaVuSans-61" x="585.595703"/>
     <use xlink:href="#DejaVuSans-72" x="646.875"/>
     <use xlink:href="#DejaVuSans-69" x="687.988281"/>
     <use xlink:href="#DejaVuSans-74" x="715.771484"/>
     <use xlink:href="#DejaVuSans-79" x="754.980469"/>
     <use xlink:href="#DejaVuSans-20" x="814.160156"/>
     <use xlink:href="#DejaVuSans-6f" x="845.947266"/>
     <use xlink:href="#DejaVuSans-66" x="907.128906"/>
     <use xlink:href="#DejaVuSans-20" x="942.333984"/>
     <use xlink:href="#DejaVuSans-6e" x="974.121094"/>
     <use xlink:href="#DejaVuSans-6f" x="1037.5"/>
     <use xlink:href="#DejaVuSans-2d" x="1100.556641"/>
     <use xlink:href="#DejaVuSans-6d" x="1136.640625"/>
     <use xlink:href="#DejaVuSans-65" x="1234.052734"/>
     <use xlink:href="#DejaVuSans-6d" x="1295.576172"/>
     <use xlink:href="#DejaVuSans-5f" x="1392.988281"/>
     <use xlink:href="#DejaVuSans-66" x="1442.988281"/>
     <use xlink:href="#DejaVuSans-73" x="1478.193359"/>
     <use xlink:href="#DejaVuSans-20" x="1530.292969"/>
     <use xlink:href="#DejaVuSans-28" x="1562.080078"/>
     <use xlink:href="#DejaVuSans-64" x="1601.09375"/>
     <use xlink:href="#DejaVuSans-69" x="1664.570312"/>
     <use xlink:href="#DejaVuSans-73" x="1692.353516"/>
     <use xlink:href="#DejaVuSans-74" x="1744.453125"/>
     <use xlink:href="#DejaVuSans-61" x="1783.662109"/>
     <use xlink:href="#DejaVuSans-6e" x="1844.941406"/>
     <use xlink:href="#DejaVuSans-63" x="1908.320312"/>
     <use xlink:href="#DejaVuSans-65" x="1963.300781"/>
     <use xlink:href="#DejaVuSans-46" x="2024.824219"/>
     <use xlink:href="#DejaVuSans-72" x="2075.09375"/>
     <use xlink:href="#DejaVuSans-6f" x="2113.957031"/>
     <use xlink:href="#DejaVuSans-6d" x="2175.138672"/>
     <use xlink:href="#DejaVuSans-49" x="2272.550781"/>
     <use xlink:href="#DejaVuSans-6e" x="2302.042969"/>
     <use xlink:href="#DejaVuSans-69" x="2365.421875"/>
     <use xlink:href="#DejaVuSans-74" x="2393.205078"/>
     <use xlink:href="#DejaVuSans-69" x="2432.414062"/>
     <use xlink:href="#DejaVuSans-61" x="2460.197266"/>
     <use xlink:href="#DejaVuSans-6c" x="2521.476562"/>
     <use xlink:href="#DejaVuSans-50" x="2549.259766"/>
     <use xlink:href="#DejaVuSans-72" x="2607.8125"/>
     <use xlink:href="#DejaVuSans-6f" x="2646.675781"/>
     <use xlink:href="#DejaVuSans-6d" x="2707.857422"/>
     <use xlink:href="#DejaVuSans-70" x="2805.269531"/>
     <use xlink:href="#DejaVuSans-74" x="2868.746094"/>
     <use xlink:href="#DejaVuSans-29" x="2907.955078"/>
     <use xlink:href="#DejaVuSans-2c" x="2946.96875"/>
     <use xlink:href="#DejaVuSans-20" x="2978.755859"/>
     <use xlink:href="#DejaVuSans-62" x="3010.542969"/>
     <use xlink:href="#DejaVuSans-79" x="3074.019531"/>
     <use xlink:href="#DejaVuSans-20" x="3133.199219"/>
     <use xlink:href="#DejaVuSans-69" x="3164.986328"/>
     <use xlink:href="#DejaVuSans-74" x="3192.769531"/>
     <use xlink:href="#DejaVuSans-65" x="3231.978516"/>
     <use xlink:href="#DejaVuSans-72" x="3293.501953"/>
     <use xlink:href="#DejaVuSans-61" x="3334.615234"/>
     <use xlink:href="#DejaVuSans-74" x="3395.894531"/>
     <use xlink:href="#DejaVuSans-69" x="3435.103516"/>
     <use xlink:href="#DejaVuSans-6f" x="3462.886719"/>
     <use xlink:href="#DejaVuSans-6e" x="3524.068359"/>
    </g>
   </g>
  </g>
 </g>
 <defs>
  <clipPath id="p06136b525a">
   <rect x="180" y="86.4" width="1116" height="554.4"/>
  </clipPath>
 </defs>
</svg>
