<?xml version="1.0" encoding="utf-8" standalone="no"?>
<!DOCTYPE svg PUBLIC "-//W3C//DTD SVG 1.1//EN"
  "http://www.w3.org/Graphics/SVG/1.1/DTD/svg11.dtd">
<svg xmlns:xlink="http://www.w3.org/1999/xlink" width="1440pt" height="720pt" viewBox="0 0 1440 720" xmlns="http://www.w3.org/2000/svg" version="1.1">
 <metadata>
  <rdf:RDF xmlns:dc="http://purl.org/dc/elements/1.1/" xmlns:cc="http://creativecommons.org/ns#" xmlns:rdf="http://www.w3.org/1999/02/22-rdf-syntax-ns#">
   <cc:Work>
    <dc:type rdf:resource="http://purl.org/dc/dcmitype/StillImage"/>
    <dc:date>2024-07-27T11:33:28.541817</dc:date>
    <dc:format>image/svg+xml</dc:format>
    <dc:creator>
     <cc:Agent>
      <dc:title>Matplotlib v3.8.0, https://matplotlib.org/</dc:title>
     </cc:Agent>
    </dc:creator>
   </cc:Work>
  </rdf:RDF>
 </metadata>
 <defs>
  <style type="text/css">*{stroke-linejoin: round; stroke-linecap: butt}</style>
 </defs>
 <g id="figure_1">
  <g id="patch_1">
   <path d="M 0 720 
L 1440 720 
L 1440 0 
L 0 0 
z
" style="fill: #ffffff"/>
  </g>
  <g id="axes_1">
   <g id="patch_2">
    <path d="M 180 640.8 
L 1296 640.8 
L 1296 86.4 
L 180 86.4 
z
" style="fill: #ffffff"/>
   </g>
   <g id="PolyCollection_1">
    <defs>
     <path id="m31a556862b" d="M 235.95571 -105.619437 
L 235.64429 -105.619437 
L 235.58322 -110.345467 
L 235.50437 -115.071498 
L 235.404843 -119.797528 
L 235.28194 -124.523559 
L 235.133338 -129.24959 
L 234.957232 -133.97562 
L 234.752435 -138.701651 
L 234.518408 -143.427681 
L 234.255196 -148.153712 
L 233.963289 -152.879743 
L 233.643399 -157.605773 
L 233.296179 -162.331804 
L 232.921904 -167.057834 
L 232.520146 -171.783865 
L 232.08949 -176.509896 
L 231.62731 -181.235926 
L 231.129669 -185.961957 
L 230.591368 -190.687987 
L 230.006186 -195.414018 
L 229.367319 -200.140048 
L 228.66802 -204.866079 
L 227.902372 -209.59211 
L 227.066143 -214.31814 
L 226.157587 -219.044171 
L 225.178079 -223.770201 
L 224.13244 -228.496232 
L 223.028886 -233.222263 
L 221.87852 -237.948293 
L 220.694413 -242.674324 
L 219.490355 -247.400354 
L 218.279445 -252.126385 
L 217.07272 -256.852415 
L 215.878046 -261.578446 
L 214.699489 -266.304477 
L 213.537293 -271.030507 
L 212.388547 -275.756538 
L 211.24849 -280.482568 
L 210.112299 -285.208599 
L 208.977134 -289.93463 
L 207.844125 -294.66066 
L 206.720015 -299.386691 
L 205.61815 -304.112721 
L 204.55866 -308.838752 
L 203.567719 -313.564783 
L 202.675933 -318.290813 
L 201.916011 -323.016844 
L 201.319968 -327.742874 
L 200.916147 -332.468905 
L 200.726381 -337.194935 
L 200.763581 -341.920966 
L 201.029983 -346.646997 
L 201.516237 -351.373027 
L 202.201421 -356.099058 
L 203.054035 -360.825088 
L 204.033918 -365.551119 
L 205.095008 -370.27715 
L 206.188759 -375.00318 
L 207.267989 -379.729211 
L 208.29084 -384.455241 
L 209.224474 -389.181272 
L 210.048102 -393.907302 
L 210.754942 -398.633333 
L 211.352799 -403.359364 
L 211.863056 -408.085394 
L 212.318123 -412.811425 
L 212.757546 -417.537455 
L 213.223251 -422.263486 
L 213.754507 -426.989517 
L 214.383298 -431.715547 
L 215.130729 -436.441578 
L 216.004939 -441.167608 
L 217.000764 -445.893639 
L 218.101105 -450.61967 
L 219.279703 -455.3457 
L 220.504827 -460.071731 
L 221.743261 -464.797761 
L 222.964004 -469.523792 
L 224.141187 -474.249822 
L 225.255915 -478.975853 
L 226.296894 -483.701884 
L 227.259976 -488.427914 
L 228.146835 -493.153945 
L 228.96314 -497.879975 
L 229.716568 -502.606006 
L 230.415 -507.332037 
L 231.06512 -512.058067 
L 231.671574 -516.784098 
L 232.236686 -521.510128 
L 232.760684 -526.236159 
L 233.242277 -530.962189 
L 233.679424 -535.68822 
L 234.070129 -540.414251 
L 234.413116 -545.140281 
L 234.708288 -549.866312 
L 234.956955 -554.592342 
L 235.1618 -559.318373 
L 235.326677 -564.044404 
L 235.456264 -568.770434 
L 235.555677 -573.496465 
L 236.044323 -573.496465 
L 236.044323 -573.496465 
L 236.143736 -568.770434 
L 236.273323 -564.044404 
L 236.4382 -559.318373 
L 236.643045 -554.592342 
L 236.891712 -549.866312 
L 237.186884 -545.140281 
L 237.529871 -540.414251 
L 237.920576 -535.68822 
L 238.357723 -530.962189 
L 238.839316 -526.236159 
L 239.363314 -521.510128 
L 239.928426 -516.784098 
L 240.53488 -512.058067 
L 241.185 -507.332037 
L 241.883432 -502.606006 
L 242.63686 -497.879975 
L 243.453165 -493.153945 
L 244.340024 -488.427914 
L 245.303106 -483.701884 
L 246.344085 -478.975853 
L 247.458813 -474.249822 
L 248.635996 -469.523792 
L 249.856739 -464.797761 
L 251.095173 -460.071731 
L 252.320297 -455.3457 
L 253.498895 -450.61967 
L 254.599236 -445.893639 
L 255.595061 -441.167608 
L 256.469271 -436.441578 
L 257.216702 -431.715547 
L 257.845493 -426.989517 
L 258.376749 -422.263486 
L 258.842454 -417.537455 
L 259.281877 -412.811425 
L 259.736944 -408.085394 
L 260.247201 -403.359364 
L 260.845058 -398.633333 
L 261.551898 -393.907302 
L 262.375526 -389.181272 
L 263.30916 -384.455241 
L 264.332011 -379.729211 
L 265.411241 -375.00318 
L 266.504992 -370.27715 
L 267.566082 -365.551119 
L 268.545965 -360.825088 
L 269.398579 -356.099058 
L 270.083763 -351.373027 
L 270.570017 -346.646997 
L 270.836419 -341.920966 
L 270.873619 -337.194935 
L 270.683853 -332.468905 
L 270.280032 -327.742874 
L 269.683989 -323.016844 
L 268.924067 -318.290813 
L 268.032281 -313.564783 
L 267.04134 -308.838752 
L 265.98185 -304.112721 
L 264.879985 -299.386691 
L 263.755875 -294.66066 
L 262.622866 -289.93463 
L 261.487701 -285.208599 
L 260.35151 -280.482568 
L 259.211453 -275.756538 
L 258.062707 -271.030507 
L 256.900511 -266.304477 
L 255.721954 -261.578446 
L 254.52728 -256.852415 
L 253.320555 -252.126385 
L 252.109645 -247.400354 
L 250.905587 -242.674324 
L 249.72148 -237.948293 
L 248.571114 -233.222263 
L 247.46756 -228.496232 
L 246.421921 -223.770201 
L 245.442413 -219.044171 
L 244.533857 -214.31814 
L 243.697628 -209.59211 
L 242.93198 -204.866079 
L 242.232681 -200.140048 
L 241.593814 -195.414018 
L 241.008632 -190.687987 
L 240.470331 -185.961957 
L 239.97269 -181.235926 
L 239.51051 -176.509896 
L 239.079854 -171.783865 
L 238.678096 -167.057834 
L 238.303821 -162.331804 
L 237.956601 -157.605773 
L 237.636711 -152.879743 
L 237.344804 -148.153712 
L 237.081592 -143.427681 
L 236.847565 -138.701651 
L 236.642768 -133.97562 
L 236.466662 -129.24959 
L 236.31806 -124.523559 
L 236.195157 -119.797528 
L 236.09563 -115.071498 
L 236.01678 -110.345467 
L 235.95571 -105.619437 
z
" style="stroke: #3f3f3f; stroke-width: 1.25"/>
    </defs>
    <g clip-path="url(#p5d4ed7478c)">
     <use xlink:href="#m31a556862b" x="0" y="720" style="fill: #3274a1; stroke: #3f3f3f; stroke-width: 1.25"/>
    </g>
   </g>
   <g id="PolyCollection_2">
    <defs>
     <path id="mf0138747e0" d="M 347.599034 -104.4 
L 347.200966 -104.4 
L 347.135224 -109.350964 
L 347.05387 -114.301927 
L 346.955113 -119.252891 
L 346.837406 -124.203855 
L 346.699497 -129.154818 
L 346.540432 -134.105782 
L 346.359497 -139.056745 
L 346.156105 -144.007709 
L 345.929633 -148.958673 
L 345.679258 -153.909636 
L 345.403811 -158.8606 
L 345.101711 -163.811564 
L 344.771023 -168.762527 
L 344.409649 -173.713491 
L 344.015679 -178.664454 
L 343.587853 -183.615418 
L 343.126093 -188.566382 
L 342.63201 -193.517345 
L 342.109292 -198.468309 
L 341.56388 -203.419273 
L 341.003858 -208.370236 
L 340.439018 -213.3212 
L 339.880126 -218.272163 
L 339.337931 -223.223127 
L 338.822048 -228.174091 
L 338.339844 -233.125054 
L 337.89549 -238.076018 
L 337.489292 -243.026982 
L 337.117431 -247.977945 
L 336.772128 -252.928909 
L 336.442239 -257.879873 
L 336.114176 -262.830836 
L 335.773045 -267.7818 
L 335.40383 -272.732763 
L 334.992465 -277.683727 
L 334.52667 -282.634691 
L 333.996433 -287.585654 
L 333.394145 -292.536618 
L 332.714388 -297.487582 
L 331.953493 -302.438545 
L 331.108992 -307.389509 
L 330.179132 -312.340472 
L 329.162599 -317.291436 
L 328.058581 -322.2424 
L 326.86724 -327.193363 
L 325.590584 -332.144327 
L 324.233663 -337.095291 
L 322.805916 -342.046254 
L 321.322452 -346.997218 
L 319.804999 -351.948181 
L 318.282288 -356.899145 
L 316.789647 -361.850109 
L 315.367737 -366.801072 
L 314.060421 -371.752036 
L 312.911944 -376.703 
L 311.963704 -381.653963 
L 311.250983 -386.604927 
L 310.800045 -391.555891 
L 310.625983 -396.506854 
L 310.731587 -401.457818 
L 311.107393 -406.408781 
L 311.732867 -411.359745 
L 312.578581 -416.310709 
L 313.609042 -421.261672 
L 314.785827 -426.212636 
L 316.070621 -431.1636 
L 317.427834 -436.114563 
L 318.826548 -441.065527 
L 320.241681 -446.01649 
L 321.654366 -450.967454 
L 323.051658 -455.918418 
L 324.425738 -460.869381 
L 325.772813 -465.820345 
L 327.091929 -470.771309 
L 328.383829 -475.722272 
L 329.649984 -480.673236 
L 330.891833 -485.624199 
L 332.110253 -490.575163 
L 333.305217 -495.526127 
L 334.475609 -500.47709 
L 335.619164 -505.428054 
L 336.732488 -510.379018 
L 337.811168 -515.329981 
L 338.849941 -520.280945 
L 339.842947 -525.231909 
L 340.784045 -530.182872 
L 341.667189 -535.133836 
L 342.486832 -540.084799 
L 343.238331 -545.035763 
L 343.918305 -549.986727 
L 344.524913 -554.93769 
L 345.05801 -559.888654 
L 345.519181 -564.839618 
L 345.911636 -569.790581 
L 346.23999 -574.741545 
L 346.509954 -579.692508 
L 346.727974 -584.643472 
L 346.90086 -589.594436 
L 347.035432 -594.545399 
L 347.764568 -594.545399 
L 347.764568 -594.545399 
L 347.89914 -589.594436 
L 348.072026 -584.643472 
L 348.290046 -579.692508 
L 348.56001 -574.741545 
L 348.888364 -569.790581 
L 349.280819 -564.839618 
L 349.74199 -559.888654 
L 350.275087 -554.93769 
L 350.881695 -549.986727 
L 351.561669 -545.035763 
L 352.313168 -540.084799 
L 353.132811 -535.133836 
L 354.015955 -530.182872 
L 354.957053 -525.231909 
L 355.950059 -520.280945 
L 356.988832 -515.329981 
L 358.067512 -510.379018 
L 359.180836 -505.428054 
L 360.324391 -500.47709 
L 361.494783 -495.526127 
L 362.689747 -490.575163 
L 363.908167 -485.624199 
L 365.150016 -480.673236 
L 366.416171 -475.722272 
L 367.708071 -470.771309 
L 369.027187 -465.820345 
L 370.374262 -460.869381 
L 371.748342 -455.918418 
L 373.145634 -450.967454 
L 374.558319 -446.01649 
L 375.973452 -441.065527 
L 377.372166 -436.114563 
L 378.729379 -431.1636 
L 380.014173 -426.212636 
L 381.190958 -421.261672 
L 382.221419 -416.310709 
L 383.067133 -411.359745 
L 383.692607 -406.408781 
L 384.068413 -401.457818 
L 384.174017 -396.506854 
L 383.999955 -391.555891 
L 383.549017 -386.604927 
L 382.836296 -381.653963 
L 381.888056 -376.703 
L 380.739579 -371.752036 
L 379.432263 -366.801072 
L 378.010353 -361.850109 
L 376.517712 -356.899145 
L 374.995001 -351.948181 
L 373.477548 -346.997218 
L 371.994084 -342.046254 
L 370.566337 -337.095291 
L 369.209416 -332.144327 
L 367.93276 -327.193363 
L 366.741419 -322.2424 
L 365.637401 -317.291436 
L 364.620868 -312.340472 
L 363.691008 -307.389509 
L 362.846507 -302.438545 
L 362.085612 -297.487582 
L 361.405855 -292.536618 
L 360.803567 -287.585654 
L 360.27333 -282.634691 
L 359.807535 -277.683727 
L 359.39617 -272.732763 
L 359.026955 -267.7818 
L 358.685824 -262.830836 
L 358.357761 -257.879873 
L 358.027872 -252.928909 
L 357.682569 -247.977945 
L 357.310708 -243.026982 
L 356.90451 -238.076018 
L 356.460156 -233.125054 
L 355.977952 -228.174091 
L 355.462069 -223.223127 
L 354.919874 -218.272163 
L 354.360982 -213.3212 
L 353.796142 -208.370236 
L 353.23612 -203.419273 
L 352.690708 -198.468309 
L 352.16799 -193.517345 
L 351.673907 -188.566382 
L 351.212147 -183.615418 
L 350.784321 -178.664454 
L 350.390351 -173.713491 
L 350.028977 -168.762527 
L 349.698289 -163.811564 
L 349.396189 -158.8606 
L 349.120742 -153.909636 
L 348.870367 -148.958673 
L 348.643895 -144.007709 
L 348.440503 -139.056745 
L 348.259568 -134.105782 
L 348.100503 -129.154818 
L 347.962594 -124.203855 
L 347.844887 -119.252891 
L 347.74613 -114.301927 
L 347.664776 -109.350964 
L 347.599034 -104.4 
z
" style="stroke: #3f3f3f; stroke-width: 1.25"/>
    </defs>
    <g clip-path="url(#p5d4ed7478c)">
     <use xlink:href="#mf0138747e0" x="0" y="720" style="fill: #3274a1; stroke: #3f3f3f; stroke-width: 1.25"/>
    </g>
   </g>
   <g id="PolyCollection_3">
    <defs>
     <path id="maa93a98ed7" d="M 459.390638 -159.291233 
L 458.609362 -159.291233 
L 458.489774 -163.171974 
L 458.343802 -167.052716 
L 458.168925 -170.933457 
L 457.963344 -174.814198 
L 457.726245 -178.694939 
L 457.458036 -182.575681 
L 457.160515 -186.456422 
L 456.836931 -190.337163 
L 456.491919 -194.217904 
L 456.131271 -198.098646 
L 455.761555 -201.979387 
L 455.38958 -205.860128 
L 455.021739 -209.740869 
L 454.663292 -213.621611 
L 454.317652 -217.502352 
L 453.98574 -221.383093 
L 453.665509 -225.263834 
L 453.351689 -229.144576 
L 453.035824 -233.025317 
L 452.706609 -236.906058 
L 452.35054 -240.786799 
L 451.952824 -244.667541 
L 451.498489 -248.548282 
L 450.973587 -252.429023 
L 450.366373 -256.309764 
L 449.668352 -260.190506 
L 448.875065 -264.071247 
L 447.986535 -267.951988 
L 447.007311 -271.832729 
L 445.946101 -275.713471 
L 444.815006 -279.594212 
L 443.628453 -283.474953 
L 442.401908 -287.355694 
L 441.150531 -291.236436 
L 439.887889 -295.117177 
L 438.624896 -298.997918 
L 437.36907 -302.878659 
L 436.124211 -306.759401 
L 434.890514 -310.640142 
L 433.665121 -314.520883 
L 432.443036 -318.401624 
L 431.218308 -322.282366 
L 429.985357 -326.163107 
L 428.740299 -330.043848 
L 427.482144 -333.924589 
L 426.213753 -337.805331 
L 424.942473 -341.686072 
L 423.68041 -345.566813 
L 422.444319 -349.447554 
L 421.255136 -353.328296 
L 420.137193 -357.209037 
L 419.117171 -361.089778 
L 418.222848 -364.970519 
L 417.481718 -368.851261 
L 416.919534 -372.732002 
L 416.558859 -376.612743 
L 416.417681 -380.493484 
L 416.50818 -384.374226 
L 416.835736 -388.254967 
L 417.398234 -392.135708 
L 418.185772 -396.016449 
L 419.180808 -399.897191 
L 420.358784 -403.777932 
L 421.689225 -407.658673 
L 423.137261 -411.539414 
L 424.665489 -415.420156 
L 426.236053 -419.300897 
L 427.812788 -423.181638 
L 429.363257 -427.062379 
L 430.860539 -430.943121 
L 432.284592 -434.823862 
L 433.623106 -438.704603 
L 434.87176 -442.585344 
L 436.033859 -446.466086 
L 437.1194 -450.346827 
L 438.143634 -454.227568 
L 439.125259 -458.108309 
L 440.084409 -461.989051 
L 441.040615 -465.869792 
L 442.010916 -469.750533 
L 443.008298 -473.631274 
L 444.040574 -477.512016 
L 445.10981 -481.392757 
L 446.212303 -485.273498 
L 447.339105 -489.154239 
L 448.476983 -493.034981 
L 449.609718 -496.915722 
L 450.719569 -500.796463 
L 451.788764 -504.677204 
L 452.800858 -508.557946 
L 453.741855 -512.438687 
L 454.601003 -516.319428 
L 455.371231 -520.200169 
L 456.049245 -524.080911 
L 456.635301 -527.961652 
L 457.132753 -531.842393 
L 457.547429 -535.723134 
L 457.886941 -539.603876 
L 458.159982 -543.484617 
L 459.840018 -543.484617 
L 459.840018 -543.484617 
L 460.113059 -539.603876 
L 460.452571 -535.723134 
L 460.867247 -531.842393 
L 461.364699 -527.961652 
L 461.950755 -524.080911 
L 462.628769 -520.200169 
L 463.398997 -516.319428 
L 464.258145 -512.438687 
L 465.199142 -508.557946 
L 466.211236 -504.677204 
L 467.280431 -500.796463 
L 468.390282 -496.915722 
L 469.523017 -493.034981 
L 470.660895 -489.154239 
L 471.787697 -485.273498 
L 472.89019 -481.392757 
L 473.959426 -477.512016 
L 474.991702 -473.631274 
L 475.989084 -469.750533 
L 476.959385 -465.869792 
L 477.915591 -461.989051 
L 478.874741 -458.108309 
L 479.856366 -454.227568 
L 480.8806 -450.346827 
L 481.966141 -446.466086 
L 483.12824 -442.585344 
L 484.376894 -438.704603 
L 485.715408 -434.823862 
L 487.139461 -430.943121 
L 488.636743 -427.062379 
L 490.187212 -423.181638 
L 491.763947 -419.300897 
L 493.334511 -415.420156 
L 494.862739 -411.539414 
L 496.310775 -407.658673 
L 497.641216 -403.777932 
L 498.819192 -399.897191 
L 499.814228 -396.016449 
L 500.601766 -392.135708 
L 501.164264 -388.254967 
L 501.49182 -384.374226 
L 501.582319 -380.493484 
L 501.441141 -376.612743 
L 501.080466 -372.732002 
L 500.518282 -368.851261 
L 499.777152 -364.970519 
L 498.882829 -361.089778 
L 497.862807 -357.209037 
L 496.744864 -353.328296 
L 495.555681 -349.447554 
L 494.31959 -345.566813 
L 493.057527 -341.686072 
L 491.786247 -337.805331 
L 490.517856 -333.924589 
L 489.259701 -330.043848 
L 488.014643 -326.163107 
L 486.781692 -322.282366 
L 485.556964 -318.401624 
L 484.334879 -314.520883 
L 483.109486 -310.640142 
L 481.875789 -306.759401 
L 480.63093 -302.878659 
L 479.375104 -298.997918 
L 478.112111 -295.117177 
L 476.849469 -291.236436 
L 475.598092 -287.355694 
L 474.371547 -283.474953 
L 473.184994 -279.594212 
L 472.053899 -275.713471 
L 470.992689 -271.832729 
L 470.013465 -267.951988 
L 469.124935 -264.071247 
L 468.331648 -260.190506 
L 467.633627 -256.309764 
L 467.026413 -252.429023 
L 466.501511 -248.548282 
L 466.047176 -244.667541 
L 465.64946 -240.786799 
L 465.293391 -236.906058 
L 464.964176 -233.025317 
L 464.648311 -229.144576 
L 464.334491 -225.263834 
L 464.01426 -221.383093 
L 463.682348 -217.502352 
L 463.336708 -213.621611 
L 462.978261 -209.740869 
L 462.61042 -205.860128 
L 462.238445 -201.979387 
L 461.868729 -198.098646 
L 461.508081 -194.217904 
L 461.163069 -190.337163 
L 460.839485 -186.456422 
L 460.541964 -182.575681 
L 460.273755 -178.694939 
L 460.036656 -174.814198 
L 459.831075 -170.933457 
L 459.656198 -167.052716 
L 459.510226 -163.171974 
L 459.390638 -159.291233 
z
" style="stroke: #3f3f3f; stroke-width: 1.25"/>
    </defs>
    <g clip-path="url(#p5d4ed7478c)">
     <use xlink:href="#maa93a98ed7" x="0" y="720" style="fill: #3274a1; stroke: #3f3f3f; stroke-width: 1.25"/>
    </g>
   </g>
   <g id="PolyCollection_4">
    <defs>
     <path id="m198101c87c" d="M 571.257692 -198.440527 
L 569.942308 -198.440527 
L 569.756065 -202.103486 
L 569.530441 -205.766445 
L 569.260954 -209.429404 
L 568.943544 -213.092363 
L 568.574791 -216.755322 
L 568.152106 -220.418281 
L 567.673877 -224.08124 
L 567.139553 -227.744199 
L 566.549643 -231.407158 
L 565.905627 -235.070117 
L 565.209768 -238.733076 
L 564.464852 -242.396035 
L 563.67387 -246.058994 
L 562.839666 -249.721953 
L 561.964605 -253.384912 
L 561.050284 -257.047871 
L 560.097334 -260.71083 
L 559.105325 -264.373789 
L 558.072809 -268.036748 
L 556.997476 -271.699707 
L 555.876436 -275.362666 
L 554.706571 -279.025625 
L 553.484953 -282.688584 
L 552.209259 -286.351543 
L 550.878173 -290.014502 
L 549.491728 -293.677461 
L 548.051586 -297.34042 
L 546.561236 -301.00338 
L 545.026131 -304.666339 
L 543.453755 -308.329298 
L 541.853663 -311.992257 
L 540.237477 -315.655216 
L 538.61887 -319.318175 
L 537.013504 -322.981134 
L 535.43894 -326.644093 
L 533.914473 -330.307052 
L 532.460873 -333.970011 
L 531.100022 -337.63297 
L 529.854407 -341.295929 
L 528.746501 -344.958888 
L 527.798021 -348.621847 
L 527.029108 -352.284806 
L 526.457482 -355.947765 
L 526.097615 -359.610724 
L 525.96 -363.273683 
L 526.050556 -366.936642 
L 526.370222 -370.599601 
L 526.914768 -374.26256 
L 527.674843 -377.925519 
L 528.636238 -381.588478 
L 529.780364 -385.251437 
L 531.08489 -388.914396 
L 532.524522 -392.577355 
L 534.071858 -396.240314 
L 535.698289 -399.903273 
L 537.374895 -403.566232 
L 539.0733 -407.229191 
L 540.766453 -410.89215 
L 542.429319 -414.555109 
L 544.039445 -418.218068 
L 545.577402 -421.881028 
L 547.027106 -425.543987 
L 548.376006 -429.206946 
L 549.615168 -432.869905 
L 550.73926 -436.532864 
L 551.746461 -440.195823 
L 552.638316 -443.858782 
L 553.419534 -447.521741 
L 554.09775 -451.1847 
L 554.68325 -454.847659 
L 555.188639 -458.510618 
L 555.628446 -462.173577 
L 556.018664 -465.836536 
L 556.376192 -469.499495 
L 556.71821 -473.162454 
L 557.061482 -476.825413 
L 557.421611 -480.488372 
L 557.812315 -484.151331 
L 558.244744 -487.81429 
L 558.726912 -491.477249 
L 559.263294 -495.140208 
L 559.854633 -498.803167 
L 560.497967 -502.466126 
L 561.186911 -506.129085 
L 561.912137 -509.792044 
L 562.662056 -513.455003 
L 563.423601 -517.117962 
L 564.183085 -520.780921 
L 564.927036 -524.44388 
L 565.642959 -528.106839 
L 566.319961 -531.769798 
L 566.949219 -535.432757 
L 567.524251 -539.095717 
L 568.041005 -542.758676 
L 568.49778 -546.421635 
L 568.895008 -550.084594 
L 569.234931 -553.747553 
L 569.521215 -557.410512 
L 569.758552 -561.073471 
L 571.441448 -561.073471 
L 571.441448 -561.073471 
L 571.678785 -557.410512 
L 571.965069 -553.747553 
L 572.304992 -550.084594 
L 572.70222 -546.421635 
L 573.158995 -542.758676 
L 573.675749 -539.095717 
L 574.250781 -535.432757 
L 574.880039 -531.769798 
L 575.557041 -528.106839 
L 576.272964 -524.44388 
L 577.016915 -520.780921 
L 577.776399 -517.117962 
L 578.537944 -513.455003 
L 579.287863 -509.792044 
L 580.013089 -506.129085 
L 580.702033 -502.466126 
L 581.345367 -498.803167 
L 581.936706 -495.140208 
L 582.473088 -491.477249 
L 582.955256 -487.81429 
L 583.387685 -484.151331 
L 583.778389 -480.488372 
L 584.138518 -476.825413 
L 584.48179 -473.162454 
L 584.823808 -469.499495 
L 585.181336 -465.836536 
L 585.571554 -462.173577 
L 586.011361 -458.510618 
L 586.51675 -454.847659 
L 587.10225 -451.1847 
L 587.780466 -447.521741 
L 588.561684 -443.858782 
L 589.453539 -440.195823 
L 590.46074 -436.532864 
L 591.584832 -432.869905 
L 592.823994 -429.206946 
L 594.172894 -425.543987 
L 595.622598 -421.881028 
L 597.160555 -418.218068 
L 598.770681 -414.555109 
L 600.433547 -410.89215 
L 602.1267 -407.229191 
L 603.825105 -403.566232 
L 605.501711 -399.903273 
L 607.128142 -396.240314 
L 608.675478 -392.577355 
L 610.11511 -388.914396 
L 611.419636 -385.251437 
L 612.563762 -381.588478 
L 613.525157 -377.925519 
L 614.285232 -374.26256 
L 614.829778 -370.599601 
L 615.149444 -366.936642 
L 615.24 -363.273683 
L 615.102385 -359.610724 
L 614.742518 -355.947765 
L 614.170892 -352.284806 
L 613.401979 -348.621847 
L 612.453499 -344.958888 
L 611.345593 -341.295929 
L 610.099978 -337.63297 
L 608.739127 -333.970011 
L 607.285527 -330.307052 
L 605.76106 -326.644093 
L 604.186496 -322.981134 
L 602.58113 -319.318175 
L 600.962523 -315.655216 
L 599.346337 -311.992257 
L 597.746245 -308.329298 
L 596.173869 -304.666339 
L 594.638764 -301.00338 
L 593.148414 -297.34042 
L 591.708272 -293.677461 
L 590.321827 -290.014502 
L 588.990741 -286.351543 
L 587.715047 -282.688584 
L 586.493429 -279.025625 
L 585.323564 -275.362666 
L 584.202524 -271.699707 
L 583.127191 -268.036748 
L 582.094675 -264.373789 
L 581.102666 -260.71083 
L 580.149716 -257.047871 
L 579.235395 -253.384912 
L 578.360334 -249.721953 
L 577.52613 -246.058994 
L 576.735148 -242.396035 
L 575.990232 -238.733076 
L 575.294373 -235.070117 
L 574.650357 -231.407158 
L 574.060447 -227.744199 
L 573.526123 -224.08124 
L 573.047894 -220.418281 
L 572.625209 -216.755322 
L 572.256456 -213.092363 
L 571.939046 -209.429404 
L 571.669559 -205.766445 
L 571.443935 -202.103486 
L 571.257692 -198.440527 
z
" style="stroke: #3f3f3f; stroke-width: 1.25"/>
    </defs>
    <g clip-path="url(#p5d4ed7478c)">
     <use xlink:href="#m198101c87c" x="0" y="720" style="fill: #3274a1; stroke: #3f3f3f; stroke-width: 1.25"/>
    </g>
   </g>
   <g id="PolyCollection_5">
    <defs>
     <path id="md48acdf831" d="M 683.186894 -167.78782 
L 681.213106 -167.78782 
L 680.98217 -171.618509 
L 680.711241 -175.449198 
L 680.396905 -179.279887 
L 680.036237 -183.110576 
L 679.626987 -186.941266 
L 679.167746 -190.771955 
L 678.658098 -194.602644 
L 678.098734 -198.433333 
L 677.491526 -202.264022 
L 676.839541 -206.094711 
L 676.146998 -209.9254 
L 675.419152 -213.75609 
L 674.662121 -217.586779 
L 673.882658 -221.417468 
L 673.087872 -225.248157 
L 672.284929 -229.078846 
L 671.480743 -232.909535 
L 670.68168 -236.740224 
L 669.893303 -240.570914 
L 669.120161 -244.401603 
L 668.365657 -248.232292 
L 667.631988 -252.062981 
L 666.920167 -255.89367 
L 666.230125 -259.724359 
L 665.560868 -263.555048 
L 664.910696 -267.385738 
L 664.277445 -271.216427 
L 663.658735 -275.047116 
L 663.052208 -278.877805 
L 662.455738 -282.708494 
L 661.867581 -286.539183 
L 661.286488 -290.369872 
L 660.711741 -294.200562 
L 660.143147 -298.031251 
L 659.580967 -301.86194 
L 659.025822 -305.692629 
L 658.478563 -309.523318 
L 657.940136 -313.354007 
L 657.411451 -317.184696 
L 656.893271 -321.015386 
L 656.386118 -324.846075 
L 655.890228 -328.676764 
L 655.40553 -332.507453 
L 654.931674 -336.338142 
L 654.468091 -340.168831 
L 654.014088 -343.99952 
L 653.568971 -347.83021 
L 653.132184 -351.660899 
L 652.703469 -355.491588 
L 652.283023 -359.322277 
L 651.871651 -363.152966 
L 651.470914 -366.983655 
L 651.083239 -370.814344 
L 650.712011 -374.645034 
L 650.36162 -378.475723 
L 650.037463 -382.306412 
L 649.745895 -386.137101 
L 649.494125 -389.96779 
L 649.290063 -393.798479 
L 649.142119 -397.629168 
L 649.058948 -401.459858 
L 649.049177 -405.290547 
L 649.121098 -409.121236 
L 649.282359 -412.951925 
L 649.539658 -416.782614 
L 649.898464 -420.613303 
L 650.362762 -424.443992 
L 650.934853 -428.274682 
L 651.615205 -432.105371 
L 652.402363 -435.93606 
L 653.29292 -439.766749 
L 654.281559 -443.597438 
L 655.361142 -447.428127 
L 656.522862 -451.258816 
L 657.756435 -455.089506 
L 659.050335 -458.920195 
L 660.392055 -462.750884 
L 661.768389 -466.581573 
L 663.165733 -470.412262 
L 664.57038 -474.242951 
L 665.968821 -478.07364 
L 667.348031 -481.90433 
L 668.695736 -485.735019 
L 670.000655 -489.565708 
L 671.252715 -493.396397 
L 672.443222 -497.227086 
L 673.564992 -501.057775 
L 674.612436 -504.888464 
L 675.581593 -508.719154 
L 676.47012 -512.549843 
L 677.277228 -516.380532 
L 678.003574 -520.211221 
L 678.651129 -524.04191 
L 679.222993 -527.872599 
L 679.723211 -531.703288 
L 680.156565 -535.533978 
L 680.528366 -539.364667 
L 680.844252 -543.195356 
L 681.110001 -547.026045 
L 683.289999 -547.026045 
L 683.289999 -547.026045 
L 683.555748 -543.195356 
L 683.871634 -539.364667 
L 684.243435 -535.533978 
L 684.676789 -531.703288 
L 685.177007 -527.872599 
L 685.748871 -524.04191 
L 686.396426 -520.211221 
L 687.122772 -516.380532 
L 687.92988 -512.549843 
L 688.818407 -508.719154 
L 689.787564 -504.888464 
L 690.835008 -501.057775 
L 691.956778 -497.227086 
L 693.147285 -493.396397 
L 694.399345 -489.565708 
L 695.704264 -485.735019 
L 697.051969 -481.90433 
L 698.431179 -478.07364 
L 699.82962 -474.242951 
L 701.234267 -470.412262 
L 702.631611 -466.581573 
L 704.007945 -462.750884 
L 705.349665 -458.920195 
L 706.643565 -455.089506 
L 707.877138 -451.258816 
L 709.038858 -447.428127 
L 710.118441 -443.597438 
L 711.10708 -439.766749 
L 711.997637 -435.93606 
L 712.784795 -432.105371 
L 713.465147 -428.274682 
L 714.037238 -424.443992 
L 714.501536 -420.613303 
L 714.860342 -416.782614 
L 715.117641 -412.951925 
L 715.278902 -409.121236 
L 715.350823 -405.290547 
L 715.341052 -401.459858 
L 715.257881 -397.629168 
L 715.109937 -393.798479 
L 714.905875 -389.96779 
L 714.654105 -386.137101 
L 714.362537 -382.306412 
L 714.03838 -378.475723 
L 713.687989 -374.645034 
L 713.316761 -370.814344 
L 712.929086 -366.983655 
L 712.528349 -363.152966 
L 712.116977 -359.322277 
L 711.696531 -355.491588 
L 711.267816 -351.660899 
L 710.831029 -347.83021 
L 710.385912 -343.99952 
L 709.931909 -340.168831 
L 709.468326 -336.338142 
L 708.99447 -332.507453 
L 708.509772 -328.676764 
L 708.013882 -324.846075 
L 707.506729 -321.015386 
L 706.988549 -317.184696 
L 706.459864 -313.354007 
L 705.921437 -309.523318 
L 705.374178 -305.692629 
L 704.819033 -301.86194 
L 704.256853 -298.031251 
L 703.688259 -294.200562 
L 703.113512 -290.369872 
L 702.532419 -286.539183 
L 701.944262 -282.708494 
L 701.347792 -278.877805 
L 700.741265 -275.047116 
L 700.122555 -271.216427 
L 699.489304 -267.385738 
L 698.839132 -263.555048 
L 698.169875 -259.724359 
L 697.479833 -255.89367 
L 696.768012 -252.062981 
L 696.034343 -248.232292 
L 695.279839 -244.401603 
L 694.506697 -240.570914 
L 693.71832 -236.740224 
L 692.919257 -232.909535 
L 692.115071 -229.078846 
L 691.312128 -225.248157 
L 690.517342 -221.417468 
L 689.737879 -217.586779 
L 688.980848 -213.75609 
L 688.253002 -209.9254 
L 687.560459 -206.094711 
L 686.908474 -202.264022 
L 686.301266 -198.433333 
L 685.741902 -194.602644 
L 685.232254 -190.771955 
L 684.773013 -186.941266 
L 684.363763 -183.110576 
L 684.003095 -179.279887 
L 683.688759 -175.449198 
L 683.41783 -171.618509 
L 683.186894 -167.78782 
z
" style="stroke: #3f3f3f; stroke-width: 1.25"/>
    </defs>
    <g clip-path="url(#p5d4ed7478c)">
     <use xlink:href="#md48acdf831" x="0" y="720" style="fill: #3274a1; stroke: #3f3f3f; stroke-width: 1.25"/>
    </g>
   </g>
   <g id="PolyCollection_6">
    <defs>
     <path id="m7165d2fe2b" d="M 794.45289 -187.515277 
L 793.14711 -187.515277 
L 792.969443 -191.393516 
L 792.757166 -195.271756 
L 792.507596 -199.149996 
L 792.218956 -203.028236 
L 791.890656 -206.906475 
L 791.523539 -210.784715 
L 791.120065 -214.662955 
L 790.684387 -218.541195 
L 790.222299 -222.419434 
L 789.741025 -226.297674 
L 789.248841 -230.175914 
L 788.754529 -234.054154 
L 788.266692 -237.932393 
L 787.792954 -241.810633 
L 787.339124 -245.688873 
L 786.908376 -249.567113 
L 786.500537 -253.445352 
L 786.111566 -257.323592 
L 785.733292 -261.201832 
L 785.353471 -265.080072 
L 784.956214 -268.958311 
L 784.522767 -272.836551 
L 784.032633 -276.714791 
L 783.464972 -280.593031 
L 782.800181 -284.471271 
L 782.021536 -288.34951 
L 781.116767 -292.22775 
L 780.07942 -296.10599 
L 778.909887 -299.98423 
L 777.615986 -303.862469 
L 776.21302 -307.740709 
L 774.723287 -311.618949 
L 773.175048 -315.497189 
L 771.601017 -319.375428 
L 770.03648 -323.253668 
L 768.517179 -327.131908 
L 767.077123 -331.010148 
L 765.746502 -334.888387 
L 764.549853 -338.766627 
L 763.504626 -342.644867 
L 762.620257 -346.523107 
L 761.897803 -350.401346 
L 761.330151 -354.279586 
L 760.902785 -358.157826 
L 760.595021 -362.036066 
L 760.381618 -365.914305 
L 760.234632 -369.792545 
L 760.125382 -373.670785 
L 760.026394 -377.549025 
L 759.913203 -381.427264 
L 759.765902 -385.305504 
L 759.570367 -389.183744 
L 759.319102 -393.061984 
L 759.011673 -396.940224 
L 758.654728 -400.818463 
L 758.261622 -404.696703 
L 757.851676 -408.574943 
L 757.449122 -412.453183 
L 757.0818 -416.331422 
L 756.779662 -420.209662 
L 756.573174 -424.087902 
L 756.491684 -427.966142 
L 756.561848 -431.844381 
L 756.806184 -435.722621 
L 757.241836 -439.600861 
L 757.879621 -443.479101 
L 758.723403 -447.35734 
L 759.769835 -451.23558 
L 761.008501 -455.11382 
L 762.422427 -458.99206 
L 763.988945 -462.870299 
L 765.680851 -466.748539 
L 767.46777 -470.626779 
L 769.317648 -474.505019 
L 771.198248 -478.383258 
L 773.078569 -482.261498 
L 774.93008 -486.139738 
L 776.727711 -490.017978 
L 778.450532 -493.896217 
L 780.082124 -497.774457 
L 781.610639 -501.652697 
L 783.028579 -505.530937 
L 784.332362 -509.409177 
L 785.521742 -513.287416 
L 786.599135 -517.165656 
L 787.56895 -521.043896 
L 788.436951 -524.922136 
L 789.209711 -528.800375 
L 789.894172 -532.678615 
L 790.497326 -536.556855 
L 791.025999 -540.435095 
L 791.486734 -544.313334 
L 791.885742 -548.191574 
L 792.228898 -552.069814 
L 792.521761 -555.948054 
L 792.769603 -559.826293 
L 792.977429 -563.704533 
L 793.149985 -567.582773 
L 793.291753 -571.461013 
L 794.308247 -571.461013 
L 794.308247 -571.461013 
L 794.450015 -567.582773 
L 794.622571 -563.704533 
L 794.830397 -559.826293 
L 795.078239 -555.948054 
L 795.371102 -552.069814 
L 795.714258 -548.191574 
L 796.113266 -544.313334 
L 796.574001 -540.435095 
L 797.102674 -536.556855 
L 797.705828 -532.678615 
L 798.390289 -528.800375 
L 799.163049 -524.922136 
L 800.03105 -521.043896 
L 801.000865 -517.165656 
L 802.078258 -513.287416 
L 803.267638 -509.409177 
L 804.571421 -505.530937 
L 805.989361 -501.652697 
L 807.517876 -497.774457 
L 809.149468 -493.896217 
L 810.872289 -490.017978 
L 812.66992 -486.139738 
L 814.521431 -482.261498 
L 816.401752 -478.383258 
L 818.282352 -474.505019 
L 820.13223 -470.626779 
L 821.919149 -466.748539 
L 823.611055 -462.870299 
L 825.177573 -458.99206 
L 826.591499 -455.11382 
L 827.830165 -451.23558 
L 828.876597 -447.35734 
L 829.720379 -443.479101 
L 830.358164 -439.600861 
L 830.793816 -435.722621 
L 831.038152 -431.844381 
L 831.108316 -427.966142 
L 831.026826 -424.087902 
L 830.820338 -420.209662 
L 830.5182 -416.331422 
L 830.150878 -412.453183 
L 829.748324 -408.574943 
L 829.338378 -404.696703 
L 828.945272 -400.818463 
L 828.588327 -396.940224 
L 828.280898 -393.061984 
L 828.029633 -389.183744 
L 827.834098 -385.305504 
L 827.686797 -381.427264 
L 827.573606 -377.549025 
L 827.474618 -373.670785 
L 827.365368 -369.792545 
L 827.218382 -365.914305 
L 827.004979 -362.036066 
L 826.697215 -358.157826 
L 826.269849 -354.279586 
L 825.702197 -350.401346 
L 824.979743 -346.523107 
L 824.095374 -342.644867 
L 823.050147 -338.766627 
L 821.853498 -334.888387 
L 820.522877 -331.010148 
L 819.082821 -327.131908 
L 817.56352 -323.253668 
L 815.998983 -319.375428 
L 814.424952 -315.497189 
L 812.876713 -311.618949 
L 811.38698 -307.740709 
L 809.984014 -303.862469 
L 808.690113 -299.98423 
L 807.52058 -296.10599 
L 806.483233 -292.22775 
L 805.578464 -288.34951 
L 804.799819 -284.471271 
L 804.135028 -280.593031 
L 803.567367 -276.714791 
L 803.077233 -272.836551 
L 802.643786 -268.958311 
L 802.246529 -265.080072 
L 801.866708 -261.201832 
L 801.488434 -257.323592 
L 801.099463 -253.445352 
L 800.691624 -249.567113 
L 800.260876 -245.688873 
L 799.807046 -241.810633 
L 799.333308 -237.932393 
L 798.845471 -234.054154 
L 798.351159 -230.175914 
L 797.858975 -226.297674 
L 797.377701 -222.419434 
L 796.915613 -218.541195 
L 796.479935 -214.662955 
L 796.076461 -210.784715 
L 795.709344 -206.906475 
L 795.381044 -203.028236 
L 795.092404 -199.149996 
L 794.842834 -195.271756 
L 794.630557 -191.393516 
L 794.45289 -187.515277 
z
" style="stroke: #3f3f3f; stroke-width: 1.25"/>
    </defs>
    <g clip-path="url(#p5d4ed7478c)">
     <use xlink:href="#m7165d2fe2b" x="0" y="720" style="fill: #3274a1; stroke: #3f3f3f; stroke-width: 1.25"/>
    </g>
   </g>
   <g id="PolyCollection_7">
    <defs>
     <path id="m014310e0bd" d="M 905.893592 -140.755556 
L 904.906408 -140.755556 
L 904.78789 -145.188474 
L 904.649003 -149.621393 
L 904.488239 -154.054311 
L 904.304376 -158.487229 
L 904.096524 -162.920148 
L 903.86414 -167.353066 
L 903.607008 -171.785984 
L 903.325165 -176.218903 
L 903.018788 -180.651821 
L 902.688025 -185.084739 
L 902.332788 -189.517658 
L 901.952527 -193.950576 
L 901.545988 -198.383494 
L 901.110998 -202.816412 
L 900.644295 -207.249331 
L 900.141437 -211.682249 
L 899.596809 -216.115167 
L 899.003762 -220.548086 
L 898.354877 -224.981004 
L 897.642375 -229.413922 
L 896.858644 -233.846841 
L 895.996865 -238.279759 
L 895.051695 -242.712677 
L 894.01996 -247.145595 
L 892.901304 -251.578514 
L 891.698736 -256.011432 
L 890.419028 -260.44435 
L 889.07291 -264.877269 
L 887.675044 -269.310187 
L 886.243752 -273.743105 
L 884.800509 -278.176024 
L 883.369216 -282.608942 
L 881.975303 -287.04186 
L 880.644689 -291.474778 
L 879.402688 -295.907697 
L 878.272902 -300.340615 
L 877.276166 -304.773533 
L 876.42962 -309.206452 
L 875.745926 -313.63937 
L 875.232692 -318.072288 
L 874.892115 -322.505207 
L 874.720861 -326.938125 
L 874.710173 -331.371043 
L 874.846218 -335.803961 
L 875.110631 -340.23688 
L 875.481263 -344.669798 
L 875.93308 -349.102716 
L 876.439203 -353.535635 
L 876.972031 -357.968553 
L 877.504425 -362.401471 
L 878.010902 -366.83439 
L 878.468783 -371.267308 
L 878.859247 -375.700226 
L 879.168236 -380.133145 
L 879.387163 -384.566063 
L 879.51336 -388.998981 
L 879.550249 -393.431899 
L 879.507194 -397.864818 
L 879.399046 -402.297736 
L 879.245371 -406.730654 
L 879.069425 -411.163573 
L 878.896913 -415.596491 
L 878.754604 -420.029409 
L 878.668905 -424.462328 
L 878.664455 -428.895246 
L 878.762865 -433.328164 
L 878.981641 -437.761082 
L 879.333386 -442.194001 
L 879.825313 -446.626919 
L 880.459071 -451.059837 
L 881.230908 -455.492756 
L 882.132108 -459.925674 
L 883.149677 -464.358592 
L 884.267197 -468.791511 
L 885.46579 -473.224429 
L 886.725109 -477.657347 
L 888.024301 -482.090265 
L 889.342871 -486.523184 
L 890.661427 -490.956102 
L 891.962258 -495.38902 
L 893.229746 -499.821939 
L 894.450625 -504.254857 
L 895.614079 -508.687775 
L 896.711725 -513.120694 
L 897.737497 -517.553612 
L 898.68746 -521.98653 
L 899.559582 -526.419448 
L 900.353485 -530.852367 
L 901.070198 -535.285285 
L 901.711909 -539.718203 
L 902.281745 -544.151122 
L 902.783563 -548.58404 
L 903.221768 -553.016958 
L 903.601144 -557.449877 
L 903.92671 -561.882795 
L 904.203591 -566.315713 
L 904.436896 -570.748632 
L 904.631626 -575.18155 
L 904.792587 -579.614468 
L 906.007413 -579.614468 
L 906.007413 -579.614468 
L 906.168374 -575.18155 
L 906.363104 -570.748632 
L 906.596409 -566.315713 
L 906.87329 -561.882795 
L 907.198856 -557.449877 
L 907.578232 -553.016958 
L 908.016437 -548.58404 
L 908.518255 -544.151122 
L 909.088091 -539.718203 
L 909.729802 -535.285285 
L 910.446515 -530.852367 
L 911.240418 -526.419448 
L 912.11254 -521.98653 
L 913.062503 -517.553612 
L 914.088275 -513.120694 
L 915.185921 -508.687775 
L 916.349375 -504.254857 
L 917.570254 -499.821939 
L 918.837742 -495.38902 
L 920.138573 -490.956102 
L 921.457129 -486.523184 
L 922.775699 -482.090265 
L 924.074891 -477.657347 
L 925.33421 -473.224429 
L 926.532803 -468.791511 
L 927.650323 -464.358592 
L 928.667892 -459.925674 
L 929.569092 -455.492756 
L 930.340929 -451.059837 
L 930.974687 -446.626919 
L 931.466614 -442.194001 
L 931.818359 -437.761082 
L 932.037135 -433.328164 
L 932.135545 -428.895246 
L 932.131095 -424.462328 
L 932.045396 -420.029409 
L 931.903087 -415.596491 
L 931.730575 -411.163573 
L 931.554629 -406.730654 
L 931.400954 -402.297736 
L 931.292806 -397.864818 
L 931.249751 -393.431899 
L 931.28664 -388.998981 
L 931.412837 -384.566063 
L 931.631764 -380.133145 
L 931.940753 -375.700226 
L 932.331217 -371.267308 
L 932.789098 -366.83439 
L 933.295575 -362.401471 
L 933.827969 -357.968553 
L 934.360797 -353.535635 
L 934.86692 -349.102716 
L 935.318737 -344.669798 
L 935.689369 -340.23688 
L 935.953782 -335.803961 
L 936.089827 -331.371043 
L 936.079139 -326.938125 
L 935.907885 -322.505207 
L 935.567308 -318.072288 
L 935.054074 -313.63937 
L 934.37038 -309.206452 
L 933.523834 -304.773533 
L 932.527098 -300.340615 
L 931.397312 -295.907697 
L 930.155311 -291.474778 
L 928.824697 -287.04186 
L 927.430784 -282.608942 
L 925.999491 -278.176024 
L 924.556248 -273.743105 
L 923.124956 -269.310187 
L 921.72709 -264.877269 
L 920.380972 -260.44435 
L 919.101264 -256.011432 
L 917.898696 -251.578514 
L 916.78004 -247.145595 
L 915.748305 -242.712677 
L 914.803135 -238.279759 
L 913.941356 -233.846841 
L 913.157625 -229.413922 
L 912.445123 -224.981004 
L 911.796238 -220.548086 
L 911.203191 -216.115167 
L 910.658563 -211.682249 
L 910.155705 -207.249331 
L 909.689002 -202.816412 
L 909.254012 -198.383494 
L 908.847473 -193.950576 
L 908.467212 -189.517658 
L 908.111975 -185.084739 
L 907.781212 -180.651821 
L 907.474835 -176.218903 
L 907.192992 -171.785984 
L 906.93586 -167.353066 
L 906.703476 -162.920148 
L 906.495624 -158.487229 
L 906.311761 -154.054311 
L 906.150997 -149.621393 
L 906.01211 -145.188474 
L 905.893592 -140.755556 
z
" style="stroke: #3f3f3f; stroke-width: 1.25"/>
    </defs>
    <g clip-path="url(#p5d4ed7478c)">
     <use xlink:href="#m014310e0bd" x="0" y="720" style="fill: #3274a1; stroke: #3f3f3f; stroke-width: 1.25"/>
    </g>
   </g>
   <g id="PolyCollection_8">
    <defs>
     <path id="m80132b8f1a" d="M 1018.302164 -120.297055 
L 1015.697836 -120.297055 
L 1015.418065 -125.121542 
L 1015.09422 -129.946028 
L 1014.723079 -134.770514 
L 1014.301959 -139.595 
L 1013.828878 -144.419486 
L 1013.302701 -149.243973 
L 1012.723261 -154.068459 
L 1012.091453 -158.892945 
L 1011.409282 -163.717431 
L 1010.679855 -168.541917 
L 1009.907325 -173.366404 
L 1009.096767 -178.19089 
L 1008.254011 -183.015376 
L 1007.385409 -187.839862 
L 1006.497582 -192.664348 
L 1005.597135 -197.488834 
L 1004.690374 -202.313321 
L 1003.783043 -207.137807 
L 1002.880094 -211.962293 
L 1001.985527 -216.786779 
L 1001.102294 -221.611265 
L 1000.232297 -226.435752 
L 999.37647 -231.260238 
L 998.534956 -236.084724 
L 997.707351 -240.90921 
L 996.893013 -245.733696 
L 996.091407 -250.558183 
L 995.302451 -255.382669 
L 994.52685 -260.207155 
L 993.766368 -265.031641 
L 993.024033 -269.856127 
L 992.304241 -274.680613 
L 991.612755 -279.5051 
L 990.956584 -284.329586 
L 990.343766 -289.154072 
L 989.783049 -293.978558 
L 989.283505 -298.803044 
L 988.854099 -303.627531 
L 988.503246 -308.452017 
L 988.23838 -313.276503 
L 988.065576 -318.100989 
L 987.989238 -322.925475 
L 988.011873 -327.749962 
L 988.133971 -332.574448 
L 988.353979 -337.398934 
L 988.668376 -342.22342 
L 989.071831 -347.047906 
L 989.557429 -351.872392 
L 990.116949 -356.696879 
L 990.741172 -361.521365 
L 991.420194 -366.345851 
L 992.143735 -371.170337 
L 992.901436 -375.994823 
L 993.683112 -380.81931 
L 994.478984 -385.643796 
L 995.279874 -390.468282 
L 996.077362 -395.292768 
L 996.863919 -400.117254 
L 997.633015 -404.941741 
L 998.379196 -409.766227 
L 999.098152 -414.590713 
L 999.786759 -419.415199 
L 1000.443099 -424.239685 
L 1001.066458 -429.064172 
L 1001.657294 -433.888658 
L 1002.217173 -438.713144 
L 1002.748669 -443.53763 
L 1003.255232 -448.362116 
L 1003.741012 -453.186602 
L 1004.210659 -458.011089 
L 1004.669097 -462.835575 
L 1005.121283 -467.660061 
L 1005.571962 -472.484547 
L 1006.025435 -477.309033 
L 1006.485343 -482.13352 
L 1006.954494 -486.958006 
L 1007.434733 -491.782492 
L 1007.926855 -496.606978 
L 1008.430587 -501.431464 
L 1008.944619 -506.255951 
L 1009.466688 -511.080437 
L 1009.993709 -515.904923 
L 1010.521944 -520.729409 
L 1011.047196 -525.553895 
L 1011.565015 -530.378381 
L 1012.070904 -535.202868 
L 1012.560522 -540.027354 
L 1013.02985 -544.85184 
L 1013.475351 -549.676326 
L 1013.894071 -554.500812 
L 1014.283726 -559.325299 
L 1014.642732 -564.149785 
L 1014.970214 -568.974271 
L 1015.265975 -573.798757 
L 1015.530444 -578.623243 
L 1015.764596 -583.44773 
L 1015.969866 -588.272216 
L 1016.148053 -593.096702 
L 1016.301218 -597.921188 
L 1017.698782 -597.921188 
L 1017.698782 -597.921188 
L 1017.851947 -593.096702 
L 1018.030134 -588.272216 
L 1018.235404 -583.44773 
L 1018.469556 -578.623243 
L 1018.734025 -573.798757 
L 1019.029786 -568.974271 
L 1019.357268 -564.149785 
L 1019.716274 -559.325299 
L 1020.105929 -554.500812 
L 1020.524649 -549.676326 
L 1020.97015 -544.85184 
L 1021.439478 -540.027354 
L 1021.929096 -535.202868 
L 1022.434985 -530.378381 
L 1022.952804 -525.553895 
L 1023.478056 -520.729409 
L 1024.006291 -515.904923 
L 1024.533312 -511.080437 
L 1025.055381 -506.255951 
L 1025.569413 -501.431464 
L 1026.073145 -496.606978 
L 1026.565267 -491.782492 
L 1027.045506 -486.958006 
L 1027.514657 -482.13352 
L 1027.974565 -477.309033 
L 1028.428038 -472.484547 
L 1028.878717 -467.660061 
L 1029.330903 -462.835575 
L 1029.789341 -458.011089 
L 1030.258988 -453.186602 
L 1030.744768 -448.362116 
L 1031.251331 -443.53763 
L 1031.782827 -438.713144 
L 1032.342706 -433.888658 
L 1032.933542 -429.064172 
L 1033.556901 -424.239685 
L 1034.213241 -419.415199 
L 1034.901848 -414.590713 
L 1035.620804 -409.766227 
L 1036.366985 -404.941741 
L 1037.136081 -400.117254 
L 1037.922638 -395.292768 
L 1038.720126 -390.468282 
L 1039.521016 -385.643796 
L 1040.316888 -380.81931 
L 1041.098564 -375.994823 
L 1041.856265 -371.170337 
L 1042.579806 -366.345851 
L 1043.258828 -361.521365 
L 1043.883051 -356.696879 
L 1044.442571 -351.872392 
L 1044.928169 -347.047906 
L 1045.331624 -342.22342 
L 1045.646021 -337.398934 
L 1045.866029 -332.574448 
L 1045.988127 -327.749962 
L 1046.010762 -322.925475 
L 1045.934424 -318.100989 
L 1045.76162 -313.276503 
L 1045.496754 -308.452017 
L 1045.145901 -303.627531 
L 1044.716495 -298.803044 
L 1044.216951 -293.978558 
L 1043.656234 -289.154072 
L 1043.043416 -284.329586 
L 1042.387245 -279.5051 
L 1041.695759 -274.680613 
L 1040.975967 -269.856127 
L 1040.233632 -265.031641 
L 1039.47315 -260.207155 
L 1038.697549 -255.382669 
L 1037.908593 -250.558183 
L 1037.106987 -245.733696 
L 1036.292649 -240.90921 
L 1035.465044 -236.084724 
L 1034.62353 -231.260238 
L 1033.767703 -226.435752 
L 1032.897706 -221.611265 
L 1032.014473 -216.786779 
L 1031.119906 -211.962293 
L 1030.216957 -207.137807 
L 1029.309626 -202.313321 
L 1028.402865 -197.488834 
L 1027.502418 -192.664348 
L 1026.614591 -187.839862 
L 1025.745989 -183.015376 
L 1024.903233 -178.19089 
L 1024.092675 -173.366404 
L 1023.320145 -168.541917 
L 1022.590718 -163.717431 
L 1021.908547 -158.892945 
L 1021.276739 -154.068459 
L 1020.697299 -149.243973 
L 1020.171122 -144.419486 
L 1019.698041 -139.595 
L 1019.276921 -134.770514 
L 1018.90578 -129.946028 
L 1018.581935 -125.121542 
L 1018.302164 -120.297055 
z
" style="stroke: #3f3f3f; stroke-width: 1.25"/>
    </defs>
    <g clip-path="url(#p5d4ed7478c)">
     <use xlink:href="#m80132b8f1a" x="0" y="720" style="fill: #3274a1; stroke: #3f3f3f; stroke-width: 1.25"/>
    </g>
   </g>
   <g id="PolyCollection_9">
    <defs>
     <path id="m0f3018af2d" d="M 1129.253884 -162.15603 
L 1127.946116 -162.15603 
L 1127.77682 -166.663545 
L 1127.574808 -171.17106 
L 1127.336768 -175.678575 
L 1127.059766 -180.186089 
L 1126.741418 -184.693604 
L 1126.380046 -189.201119 
L 1125.974819 -193.708634 
L 1125.525846 -198.216149 
L 1125.034224 -202.723664 
L 1124.502009 -207.231179 
L 1123.932126 -211.738693 
L 1123.328203 -216.246208 
L 1122.694328 -220.753723 
L 1122.034766 -225.261238 
L 1121.353629 -229.768753 
L 1120.654544 -234.276268 
L 1119.940338 -238.783782 
L 1119.21277 -243.291297 
L 1118.472352 -247.798812 
L 1117.71826 -252.306327 
L 1116.948372 -256.813842 
L 1116.159427 -261.321357 
L 1115.347307 -265.828872 
L 1114.507426 -270.336386 
L 1113.635198 -274.843901 
L 1112.726554 -279.351416 
L 1111.778469 -283.858931 
L 1110.789459 -288.366446 
L 1109.760005 -292.873961 
L 1108.692877 -297.381475 
L 1107.593322 -301.88899 
L 1106.469104 -306.396505 
L 1105.330389 -310.90402 
L 1104.189478 -315.411535 
L 1103.060409 -319.91905 
L 1101.958444 -324.426565 
L 1100.899489 -328.934079 
L 1099.899468 -333.441594 
L 1098.973702 -337.949109 
L 1098.136326 -342.456624 
L 1097.399777 -346.964139 
L 1096.774373 -351.471654 
L 1096.268013 -355.979169 
L 1095.885994 -360.486683 
L 1095.630949 -364.994198 
L 1095.50289 -369.501713 
L 1095.499355 -374.009228 
L 1095.615628 -378.516743 
L 1095.845013 -383.024258 
L 1096.179156 -387.531772 
L 1096.608381 -392.039287 
L 1097.122046 -396.546802 
L 1097.708901 -401.054317 
L 1098.35744 -405.561832 
L 1099.056254 -410.069347 
L 1099.79437 -414.576862 
L 1100.561568 -419.084376 
L 1101.348678 -423.591891 
L 1102.147827 -428.099406 
L 1102.952637 -432.606921 
L 1103.758346 -437.114436 
L 1104.561844 -441.621951 
L 1105.361619 -446.129465 
L 1106.157599 -450.63698 
L 1106.950915 -455.144495 
L 1107.743583 -459.65201 
L 1108.538139 -464.159525 
L 1109.337259 -468.66704 
L 1110.143381 -473.174555 
L 1110.958387 -477.682069 
L 1111.783334 -482.189584 
L 1112.618295 -486.697099 
L 1113.462278 -491.204614 
L 1114.313248 -495.712129 
L 1115.168232 -500.219644 
L 1116.023487 -504.727158 
L 1116.874703 -509.234673 
L 1117.717231 -513.742188 
L 1118.546298 -518.249703 
L 1119.357203 -522.757218 
L 1120.145473 -527.264733 
L 1120.906985 -531.772248 
L 1121.638044 -536.279762 
L 1122.335433 -540.787277 
L 1122.996429 -545.294792 
L 1123.618814 -549.802307 
L 1124.200872 -554.309822 
L 1124.741382 -558.817337 
L 1125.239619 -563.324852 
L 1125.695347 -567.832366 
L 1126.108818 -572.339881 
L 1126.480761 -576.847396 
L 1126.812367 -581.354911 
L 1127.105257 -585.862426 
L 1127.361444 -590.369941 
L 1127.583274 -594.877455 
L 1127.773357 -599.38497 
L 1127.934494 -603.892485 
L 1128.069595 -608.4 
L 1129.130405 -608.4 
L 1129.130405 -608.4 
L 1129.265506 -603.892485 
L 1129.426643 -599.38497 
L 1129.616726 -594.877455 
L 1129.838556 -590.369941 
L 1130.094743 -585.862426 
L 1130.387633 -581.354911 
L 1130.719239 -576.847396 
L 1131.091182 -572.339881 
L 1131.504653 -567.832366 
L 1131.960381 -563.324852 
L 1132.458618 -558.817337 
L 1132.999128 -554.309822 
L 1133.581186 -549.802307 
L 1134.203571 -545.294792 
L 1134.864567 -540.787277 
L 1135.561956 -536.279762 
L 1136.293015 -531.772248 
L 1137.054527 -527.264733 
L 1137.842797 -522.757218 
L 1138.653702 -518.249703 
L 1139.482769 -513.742188 
L 1140.325297 -509.234673 
L 1141.176513 -504.727158 
L 1142.031768 -500.219644 
L 1142.886752 -495.712129 
L 1143.737722 -491.204614 
L 1144.581705 -486.697099 
L 1145.416666 -482.189584 
L 1146.241613 -477.682069 
L 1147.056619 -473.174555 
L 1147.862741 -468.66704 
L 1148.661861 -464.159525 
L 1149.456417 -459.65201 
L 1150.249085 -455.144495 
L 1151.042401 -450.63698 
L 1151.838381 -446.129465 
L 1152.638156 -441.621951 
L 1153.441654 -437.114436 
L 1154.247363 -432.606921 
L 1155.052173 -428.099406 
L 1155.851322 -423.591891 
L 1156.638432 -419.084376 
L 1157.40563 -414.576862 
L 1158.143746 -410.069347 
L 1158.84256 -405.561832 
L 1159.491099 -401.054317 
L 1160.077954 -396.546802 
L 1160.591619 -392.039287 
L 1161.020844 -387.531772 
L 1161.354987 -383.024258 
L 1161.584372 -378.516743 
L 1161.700645 -374.009228 
L 1161.69711 -369.501713 
L 1161.569051 -364.994198 
L 1161.314006 -360.486683 
L 1160.931987 -355.979169 
L 1160.425627 -351.471654 
L 1159.800223 -346.964139 
L 1159.063674 -342.456624 
L 1158.226298 -337.949109 
L 1157.300532 -333.441594 
L 1156.300511 -328.934079 
L 1155.241556 -324.426565 
L 1154.139591 -319.91905 
L 1153.010522 -315.411535 
L 1151.869611 -310.90402 
L 1150.730896 -306.396505 
L 1149.606678 -301.88899 
L 1148.507123 -297.381475 
L 1147.439995 -292.873961 
L 1146.410541 -288.366446 
L 1145.421531 -283.858931 
L 1144.473446 -279.351416 
L 1143.564802 -274.843901 
L 1142.692574 -270.336386 
L 1141.852693 -265.828872 
L 1141.040573 -261.321357 
L 1140.251628 -256.813842 
L 1139.48174 -252.306327 
L 1138.727648 -247.798812 
L 1137.98723 -243.291297 
L 1137.259662 -238.783782 
L 1136.545456 -234.276268 
L 1135.846371 -229.768753 
L 1135.165234 -225.261238 
L 1134.505672 -220.753723 
L 1133.871797 -216.246208 
L 1133.267874 -211.738693 
L 1132.697991 -207.231179 
L 1132.165776 -202.723664 
L 1131.674154 -198.216149 
L 1131.225181 -193.708634 
L 1130.819954 -189.201119 
L 1130.458582 -184.693604 
L 1130.140234 -180.186089 
L 1129.863232 -175.678575 
L 1129.625192 -171.17106 
L 1129.42318 -166.663545 
L 1129.253884 -162.15603 
z
" style="stroke: #3f3f3f; stroke-width: 1.25"/>
    </defs>
    <g clip-path="url(#p5d4ed7478c)">
     <use xlink:href="#m0f3018af2d" x="0" y="720" style="fill: #3274a1; stroke: #3f3f3f; stroke-width: 1.25"/>
    </g>
   </g>
   <g id="PolyCollection_10">
    <defs>
     <path id="m72a9e2e3b6" d="M 1241.092412 -139.52265 
L 1239.307588 -139.52265 
L 1239.128029 -143.910556 
L 1238.923452 -148.298461 
L 1238.692918 -152.686367 
L 1238.436021 -157.074272 
L 1238.152989 -161.462178 
L 1237.844769 -165.850083 
L 1237.513085 -170.237989 
L 1237.160475 -174.625894 
L 1236.790282 -179.0138 
L 1236.406602 -183.401705 
L 1236.014189 -187.789611 
L 1235.618312 -192.177516 
L 1235.224564 -196.565422 
L 1234.838636 -200.953327 
L 1234.466057 -205.341233 
L 1234.111914 -209.729138 
L 1233.78057 -214.117044 
L 1233.475389 -218.504949 
L 1233.198489 -222.892855 
L 1232.950535 -227.28076 
L 1232.730582 -231.668666 
L 1232.535993 -236.056571 
L 1232.362418 -240.444477 
L 1232.203854 -244.832382 
L 1232.052779 -249.220288 
L 1231.900352 -253.608193 
L 1231.73667 -257.996099 
L 1231.551075 -262.384004 
L 1231.332488 -266.77191 
L 1231.069768 -271.159815 
L 1230.75206 -275.547721 
L 1230.369144 -279.935626 
L 1229.911757 -284.323532 
L 1229.371881 -288.711437 
L 1228.742998 -293.099343 
L 1228.020307 -297.487248 
L 1227.200897 -301.875154 
L 1226.283888 -306.263059 
L 1225.270524 -310.650965 
L 1224.164243 -315.03887 
L 1222.970705 -319.426776 
L 1221.697778 -323.814681 
L 1220.355501 -328.202587 
L 1218.955984 -332.590492 
L 1217.513279 -336.978398 
L 1216.043182 -341.366303 
L 1214.562991 -345.754209 
L 1213.091196 -350.142114 
L 1211.647118 -354.53002 
L 1210.250492 -358.917925 
L 1208.921015 -363.305831 
L 1207.677859 -367.693736 
L 1206.53918 -372.081642 
L 1205.52164 -376.469547 
L 1204.63996 -380.857453 
L 1203.906536 -385.245358 
L 1203.331126 -389.633264 
L 1202.920635 -394.021169 
L 1202.679007 -398.409075 
L 1202.607224 -402.79698 
L 1202.703414 -407.184886 
L 1202.963061 -411.572791 
L 1203.379294 -415.960697 
L 1203.943251 -420.348602 
L 1204.644469 -424.736508 
L 1205.471308 -429.124413 
L 1206.411354 -433.512319 
L 1207.451798 -437.900224 
L 1208.579765 -442.28813 
L 1209.782587 -446.676035 
L 1211.048004 -451.063941 
L 1212.364297 -455.451846 
L 1213.720358 -459.839752 
L 1215.105705 -464.227657 
L 1216.510455 -468.615563 
L 1217.925269 -473.003468 
L 1219.341286 -477.391374 
L 1220.750057 -481.779279 
L 1222.143495 -486.167185 
L 1223.513851 -490.55509 
L 1224.853712 -494.942996 
L 1226.156036 -499.330901 
L 1227.414209 -503.718807 
L 1228.622131 -508.106712 
L 1229.774307 -512.494618 
L 1230.86595 -516.882523 
L 1231.893082 -521.270429 
L 1232.852608 -525.658334 
L 1233.742384 -530.04624 
L 1234.561248 -534.434145 
L 1235.309023 -538.822051 
L 1235.986486 -543.209956 
L 1236.59531 -547.597862 
L 1237.137975 -551.985767 
L 1237.617659 -556.373673 
L 1238.038112 -560.761578 
L 1238.403523 -565.149484 
L 1238.718379 -569.537389 
L 1238.987336 -573.925295 
L 1241.412664 -573.925295 
L 1241.412664 -573.925295 
L 1241.681621 -569.537389 
L 1241.996477 -565.149484 
L 1242.361888 -560.761578 
L 1242.782341 -556.373673 
L 1243.262025 -551.985767 
L 1243.80469 -547.597862 
L 1244.413514 -543.209956 
L 1245.090977 -538.822051 
L 1245.838752 -534.434145 
L 1246.657616 -530.04624 
L 1247.547392 -525.658334 
L 1248.506918 -521.270429 
L 1249.53405 -516.882523 
L 1250.625693 -512.494618 
L 1251.777869 -508.106712 
L 1252.985791 -503.718807 
L 1254.243964 -499.330901 
L 1255.546288 -494.942996 
L 1256.886149 -490.55509 
L 1258.256505 -486.167185 
L 1259.649943 -481.779279 
L 1261.058714 -477.391374 
L 1262.474731 -473.003468 
L 1263.889545 -468.615563 
L 1265.294295 -464.227657 
L 1266.679642 -459.839752 
L 1268.035703 -455.451846 
L 1269.351996 -451.063941 
L 1270.617413 -446.676035 
L 1271.820235 -442.28813 
L 1272.948202 -437.900224 
L 1273.988646 -433.512319 
L 1274.928692 -429.124413 
L 1275.755531 -424.736508 
L 1276.456749 -420.348602 
L 1277.020706 -415.960697 
L 1277.436939 -411.572791 
L 1277.696586 -407.184886 
L 1277.792776 -402.79698 
L 1277.720993 -398.409075 
L 1277.479365 -394.021169 
L 1277.068874 -389.633264 
L 1276.493464 -385.245358 
L 1275.76004 -380.857453 
L 1274.87836 -376.469547 
L 1273.86082 -372.081642 
L 1272.722141 -367.693736 
L 1271.478985 -363.305831 
L 1270.149508 -358.917925 
L 1268.752882 -354.53002 
L 1267.308804 -350.142114 
L 1265.837009 -345.754209 
L 1264.356818 -341.366303 
L 1262.886721 -336.978398 
L 1261.444016 -332.590492 
L 1260.044499 -328.202587 
L 1258.702222 -323.814681 
L 1257.429295 -319.426776 
L 1256.235757 -315.03887 
L 1255.129476 -310.650965 
L 1254.116112 -306.263059 
L 1253.199103 -301.875154 
L 1252.379693 -297.487248 
L 1251.657002 -293.099343 
L 1251.028119 -288.711437 
L 1250.488243 -284.323532 
L 1250.030856 -279.935626 
L 1249.64794 -275.547721 
L 1249.330232 -271.159815 
L 1249.067512 -266.77191 
L 1248.848925 -262.384004 
L 1248.66333 -257.996099 
L 1248.499648 -253.608193 
L 1248.347221 -249.220288 
L 1248.196146 -244.832382 
L 1248.037582 -240.444477 
L 1247.864007 -236.056571 
L 1247.669418 -231.668666 
L 1247.449465 -227.28076 
L 1247.201511 -222.892855 
L 1246.924611 -218.504949 
L 1246.61943 -214.117044 
L 1246.288086 -209.729138 
L 1245.933943 -205.341233 
L 1245.561364 -200.953327 
L 1245.175436 -196.565422 
L 1244.781688 -192.177516 
L 1244.385811 -187.789611 
L 1243.993398 -183.401705 
L 1243.609718 -179.0138 
L 1243.239525 -174.625894 
L 1242.886915 -170.237989 
L 1242.555231 -165.850083 
L 1242.247011 -161.462178 
L 1241.963979 -157.074272 
L 1241.707082 -152.686367 
L 1241.476548 -148.298461 
L 1241.271971 -143.910556 
L 1241.092412 -139.52265 
z
" style="stroke: #3f3f3f; stroke-width: 1.25"/>
    </defs>
    <g clip-path="url(#p5d4ed7478c)">
     <use xlink:href="#m72a9e2e3b6" x="0" y="720" style="fill: #3274a1; stroke: #3f3f3f; stroke-width: 1.25"/>
    </g>
   </g>
   <g id="matplotlib.axis_1">
    <g id="xtick_1">
     <g id="line2d_1">
      <defs>
       <path id="ma402fe4dae" d="M 0 0 
L 0 3.5 
" style="stroke: #000000; stroke-width: 0.8"/>
      </defs>
      <g>
       <use xlink:href="#ma402fe4dae" x="235.8" y="640.8" style="stroke: #000000; stroke-width: 0.8"/>
      </g>
     </g>
     <g id="text_1">
      <!-- 0 -->
      <g transform="translate(232.61875 655.398438) scale(0.1 -0.1)">
       <defs>
        <path id="DejaVuSans-30" d="M 2034 4250 
Q 1547 4250 1301 3770 
Q 1056 3291 1056 2328 
Q 1056 1369 1301 889 
Q 1547 409 2034 409 
Q 2525 409 2770 889 
Q 3016 1369 3016 2328 
Q 3016 3291 2770 3770 
Q 2525 4250 2034 4250 
z
M 2034 4750 
Q 2819 4750 3233 4129 
Q 3647 3509 3647 2328 
Q 3647 1150 3233 529 
Q 2819 -91 2034 -91 
Q 1250 -91 836 529 
Q 422 1150 422 2328 
Q 422 3509 836 4129 
Q 1250 4750 2034 4750 
z
" transform="scale(0.015625)"/>
       </defs>
       <use xlink:href="#DejaVuSans-30"/>
      </g>
     </g>
    </g>
    <g id="xtick_2">
     <g id="line2d_2">
      <g>
       <use xlink:href="#ma402fe4dae" x="347.4" y="640.8" style="stroke: #000000; stroke-width: 0.8"/>
      </g>
     </g>
     <g id="text_2">
      <!-- 1 -->
      <g transform="translate(344.21875 655.398438) scale(0.1 -0.1)">
       <defs>
        <path id="DejaVuSans-31" d="M 794 531 
L 1825 531 
L 1825 4091 
L 703 3866 
L 703 4441 
L 1819 4666 
L 2450 4666 
L 2450 531 
L 3481 531 
L 3481 0 
L 794 0 
L 794 531 
z
" transform="scale(0.015625)"/>
       </defs>
       <use xlink:href="#DejaVuSans-31"/>
      </g>
     </g>
    </g>
    <g id="xtick_3">
     <g id="line2d_3">
      <g>
       <use xlink:href="#ma402fe4dae" x="459" y="640.8" style="stroke: #000000; stroke-width: 0.8"/>
      </g>
     </g>
     <g id="text_3">
      <!-- 2 -->
      <g transform="translate(455.81875 655.398438) scale(0.1 -0.1)">
       <defs>
        <path id="DejaVuSans-32" d="M 1228 531 
L 3431 531 
L 3431 0 
L 469 0 
L 469 531 
Q 828 903 1448 1529 
Q 2069 2156 2228 2338 
Q 2531 2678 2651 2914 
Q 2772 3150 2772 3378 
Q 2772 3750 2511 3984 
Q 2250 4219 1831 4219 
Q 1534 4219 1204 4116 
Q 875 4013 500 3803 
L 500 4441 
Q 881 4594 1212 4672 
Q 1544 4750 1819 4750 
Q 2544 4750 2975 4387 
Q 3406 4025 3406 3419 
Q 3406 3131 3298 2873 
Q 3191 2616 2906 2266 
Q 2828 2175 2409 1742 
Q 1991 1309 1228 531 
z
" transform="scale(0.015625)"/>
       </defs>
       <use xlink:href="#DejaVuSans-32"/>
      </g>
     </g>
    </g>
    <g id="xtick_4">
     <g id="line2d_4">
      <g>
       <use xlink:href="#ma402fe4dae" x="570.6" y="640.8" style="stroke: #000000; stroke-width: 0.8"/>
      </g>
     </g>
     <g id="text_4">
      <!-- 3 -->
      <g transform="translate(567.41875 655.398438) scale(0.1 -0.1)">
       <defs>
        <path id="DejaVuSans-33" d="M 2597 2516 
Q 3050 2419 3304 2112 
Q 3559 1806 3559 1356 
Q 3559 666 3084 287 
Q 2609 -91 1734 -91 
Q 1441 -91 1130 -33 
Q 819 25 488 141 
L 488 750 
Q 750 597 1062 519 
Q 1375 441 1716 441 
Q 2309 441 2620 675 
Q 2931 909 2931 1356 
Q 2931 1769 2642 2001 
Q 2353 2234 1838 2234 
L 1294 2234 
L 1294 2753 
L 1863 2753 
Q 2328 2753 2575 2939 
Q 2822 3125 2822 3475 
Q 2822 3834 2567 4026 
Q 2313 4219 1838 4219 
Q 1578 4219 1281 4162 
Q 984 4106 628 3988 
L 628 4550 
Q 988 4650 1302 4700 
Q 1616 4750 1894 4750 
Q 2613 4750 3031 4423 
Q 3450 4097 3450 3541 
Q 3450 3153 3228 2886 
Q 3006 2619 2597 2516 
z
" transform="scale(0.015625)"/>
       </defs>
       <use xlink:href="#DejaVuSans-33"/>
      </g>
     </g>
    </g>
    <g id="xtick_5">
     <g id="line2d_5">
      <g>
       <use xlink:href="#ma402fe4dae" x="682.2" y="640.8" style="stroke: #000000; stroke-width: 0.8"/>
      </g>
     </g>
     <g id="text_5">
      <!-- 4 -->
      <g transform="translate(679.01875 655.398438) scale(0.1 -0.1)">
       <defs>
        <path id="DejaVuSans-34" d="M 2419 4116 
L 825 1625 
L 2419 1625 
L 2419 4116 
z
M 2253 4666 
L 3047 4666 
L 3047 1625 
L 3713 1625 
L 3713 1100 
L 3047 1100 
L 3047 0 
L 2419 0 
L 2419 1100 
L 313 1100 
L 313 1709 
L 2253 4666 
z
" transform="scale(0.015625)"/>
       </defs>
       <use xlink:href="#DejaVuSans-34"/>
      </g>
     </g>
    </g>
    <g id="xtick_6">
     <g id="line2d_6">
      <g>
       <use xlink:href="#ma402fe4dae" x="793.8" y="640.8" style="stroke: #000000; stroke-width: 0.8"/>
      </g>
     </g>
     <g id="text_6">
      <!-- 5 -->
      <g transform="translate(790.61875 655.398438) scale(0.1 -0.1)">
       <defs>
        <path id="DejaVuSans-35" d="M 691 4666 
L 3169 4666 
L 3169 4134 
L 1269 4134 
L 1269 2991 
Q 1406 3038 1543 3061 
Q 1681 3084 1819 3084 
Q 2600 3084 3056 2656 
Q 3513 2228 3513 1497 
Q 3513 744 3044 326 
Q 2575 -91 1722 -91 
Q 1428 -91 1123 -41 
Q 819 9 494 109 
L 494 744 
Q 775 591 1075 516 
Q 1375 441 1709 441 
Q 2250 441 2565 725 
Q 2881 1009 2881 1497 
Q 2881 1984 2565 2268 
Q 2250 2553 1709 2553 
Q 1456 2553 1204 2497 
Q 953 2441 691 2322 
L 691 4666 
z
" transform="scale(0.015625)"/>
       </defs>
       <use xlink:href="#DejaVuSans-35"/>
      </g>
     </g>
    </g>
    <g id="xtick_7">
     <g id="line2d_7">
      <g>
       <use xlink:href="#ma402fe4dae" x="905.4" y="640.8" style="stroke: #000000; stroke-width: 0.8"/>
      </g>
     </g>
     <g id="text_7">
      <!-- 6 -->
      <g transform="translate(902.21875 655.398438) scale(0.1 -0.1)">
       <defs>
        <path id="DejaVuSans-36" d="M 2113 2584 
Q 1688 2584 1439 2293 
Q 1191 2003 1191 1497 
Q 1191 994 1439 701 
Q 1688 409 2113 409 
Q 2538 409 2786 701 
Q 3034 994 3034 1497 
Q 3034 2003 2786 2293 
Q 2538 2584 2113 2584 
z
M 3366 4563 
L 3366 3988 
Q 3128 4100 2886 4159 
Q 2644 4219 2406 4219 
Q 1781 4219 1451 3797 
Q 1122 3375 1075 2522 
Q 1259 2794 1537 2939 
Q 1816 3084 2150 3084 
Q 2853 3084 3261 2657 
Q 3669 2231 3669 1497 
Q 3669 778 3244 343 
Q 2819 -91 2113 -91 
Q 1303 -91 875 529 
Q 447 1150 447 2328 
Q 447 3434 972 4092 
Q 1497 4750 2381 4750 
Q 2619 4750 2861 4703 
Q 3103 4656 3366 4563 
z
" transform="scale(0.015625)"/>
       </defs>
       <use xlink:href="#DejaVuSans-36"/>
      </g>
     </g>
    </g>
    <g id="xtick_8">
     <g id="line2d_8">
      <g>
       <use xlink:href="#ma402fe4dae" x="1017" y="640.8" style="stroke: #000000; stroke-width: 0.8"/>
      </g>
     </g>
     <g id="text_8">
      <!-- 7 -->
      <g transform="translate(1013.81875 655.398438) scale(0.1 -0.1)">
       <defs>
        <path id="DejaVuSans-37" d="M 525 4666 
L 3525 4666 
L 3525 4397 
L 1831 0 
L 1172 0 
L 2766 4134 
L 525 4134 
L 525 4666 
z
" transform="scale(0.015625)"/>
       </defs>
       <use xlink:href="#DejaVuSans-37"/>
      </g>
     </g>
    </g>
    <g id="xtick_9">
     <g id="line2d_9">
      <g>
       <use xlink:href="#ma402fe4dae" x="1128.6" y="640.8" style="stroke: #000000; stroke-width: 0.8"/>
      </g>
     </g>
     <g id="text_9">
      <!-- 8 -->
      <g transform="translate(1125.41875 655.398438) scale(0.1 -0.1)">
       <defs>
        <path id="DejaVuSans-38" d="M 2034 2216 
Q 1584 2216 1326 1975 
Q 1069 1734 1069 1313 
Q 1069 891 1326 650 
Q 1584 409 2034 409 
Q 2484 409 2743 651 
Q 3003 894 3003 1313 
Q 3003 1734 2745 1975 
Q 2488 2216 2034 2216 
z
M 1403 2484 
Q 997 2584 770 2862 
Q 544 3141 544 3541 
Q 544 4100 942 4425 
Q 1341 4750 2034 4750 
Q 2731 4750 3128 4425 
Q 3525 4100 3525 3541 
Q 3525 3141 3298 2862 
Q 3072 2584 2669 2484 
Q 3125 2378 3379 2068 
Q 3634 1759 3634 1313 
Q 3634 634 3220 271 
Q 2806 -91 2034 -91 
Q 1263 -91 848 271 
Q 434 634 434 1313 
Q 434 1759 690 2068 
Q 947 2378 1403 2484 
z
M 1172 3481 
Q 1172 3119 1398 2916 
Q 1625 2713 2034 2713 
Q 2441 2713 2670 2916 
Q 2900 3119 2900 3481 
Q 2900 3844 2670 4047 
Q 2441 4250 2034 4250 
Q 1625 4250 1398 4047 
Q 1172 3844 1172 3481 
z
" transform="scale(0.015625)"/>
       </defs>
       <use xlink:href="#DejaVuSans-38"/>
      </g>
     </g>
    </g>
    <g id="xtick_10">
     <g id="line2d_10">
      <g>
       <use xlink:href="#ma402fe4dae" x="1240.2" y="640.8" style="stroke: #000000; stroke-width: 0.8"/>
      </g>
     </g>
     <g id="text_10">
      <!-- 9 -->
      <g transform="translate(1237.01875 655.398438) scale(0.1 -0.1)">
       <defs>
        <path id="DejaVuSans-39" d="M 703 97 
L 703 672 
Q 941 559 1184 500 
Q 1428 441 1663 441 
Q 2288 441 2617 861 
Q 2947 1281 2994 2138 
Q 2813 1869 2534 1725 
Q 2256 1581 1919 1581 
Q 1219 1581 811 2004 
Q 403 2428 403 3163 
Q 403 3881 828 4315 
Q 1253 4750 1959 4750 
Q 2769 4750 3195 4129 
Q 3622 3509 3622 2328 
Q 3622 1225 3098 567 
Q 2575 -91 1691 -91 
Q 1453 -91 1209 -44 
Q 966 3 703 97 
z
M 1959 2075 
Q 2384 2075 2632 2365 
Q 2881 2656 2881 3163 
Q 2881 3666 2632 3958 
Q 2384 4250 1959 4250 
Q 1534 4250 1286 3958 
Q 1038 3666 1038 3163 
Q 1038 2656 1286 2365 
Q 1534 2075 1959 2075 
z
" transform="scale(0.015625)"/>
       </defs>
       <use xlink:href="#DejaVuSans-39"/>
      </g>
     </g>
    </g>
    <g id="text_11">
     <!-- iteration -->
     <g transform="translate(716.877344 669.076563) scale(0.1 -0.1)">
      <defs>
       <path id="DejaVuSans-69" d="M 603 3500 
L 1178 3500 
L 1178 0 
L 603 0 
L 603 3500 
z
M 603 4863 
L 1178 4863 
L 1178 4134 
L 603 4134 
L 603 4863 
z
" transform="scale(0.015625)"/>
       <path id="DejaVuSans-74" d="M 1172 4494 
L 1172 3500 
L 2356 3500 
L 2356 3053 
L 1172 3053 
L 1172 1153 
Q 1172 725 1289 603 
Q 1406 481 1766 481 
L 2356 481 
L 2356 0 
L 1766 0 
Q 1100 0 847 248 
Q 594 497 594 1153 
L 594 3053 
L 172 3053 
L 172 3500 
L 594 3500 
L 594 4494 
L 1172 4494 
z
" transform="scale(0.015625)"/>
       <path id="DejaVuSans-65" d="M 3597 1894 
L 3597 1613 
L 953 1613 
Q 991 1019 1311 708 
Q 1631 397 2203 397 
Q 2534 397 2845 478 
Q 3156 559 3463 722 
L 3463 178 
Q 3153 47 2828 -22 
Q 2503 -91 2169 -91 
Q 1331 -91 842 396 
Q 353 884 353 1716 
Q 353 2575 817 3079 
Q 1281 3584 2069 3584 
Q 2775 3584 3186 3129 
Q 3597 2675 3597 1894 
z
M 3022 2063 
Q 3016 2534 2758 2815 
Q 2500 3097 2075 3097 
Q 1594 3097 1305 2825 
Q 1016 2553 972 2059 
L 3022 2063 
z
" transform="scale(0.015625)"/>
       <path id="DejaVuSans-72" d="M 2631 2963 
Q 2534 3019 2420 3045 
Q 2306 3072 2169 3072 
Q 1681 3072 1420 2755 
Q 1159 2438 1159 1844 
L 1159 0 
L 581 0 
L 581 3500 
L 1159 3500 
L 1159 2956 
Q 1341 3275 1631 3429 
Q 1922 3584 2338 3584 
Q 2397 3584 2469 3576 
Q 2541 3569 2628 3553 
L 2631 2963 
z
" transform="scale(0.015625)"/>
       <path id="DejaVuSans-61" d="M 2194 1759 
Q 1497 1759 1228 1600 
Q 959 1441 959 1056 
Q 959 750 1161 570 
Q 1363 391 1709 391 
Q 2188 391 2477 730 
Q 2766 1069 2766 1631 
L 2766 1759 
L 2194 1759 
z
M 3341 1997 
L 3341 0 
L 2766 0 
L 2766 531 
Q 2569 213 2275 61 
Q 1981 -91 1556 -91 
Q 1019 -91 701 211 
Q 384 513 384 1019 
Q 384 1609 779 1909 
Q 1175 2209 1959 2209 
L 2766 2209 
L 2766 2266 
Q 2766 2663 2505 2880 
Q 2244 3097 1772 3097 
Q 1472 3097 1187 3025 
Q 903 2953 641 2809 
L 641 3341 
Q 956 3463 1253 3523 
Q 1550 3584 1831 3584 
Q 2591 3584 2966 3190 
Q 3341 2797 3341 1997 
z
" transform="scale(0.015625)"/>
       <path id="DejaVuSans-6f" d="M 1959 3097 
Q 1497 3097 1228 2736 
Q 959 2375 959 1747 
Q 959 1119 1226 758 
Q 1494 397 1959 397 
Q 2419 397 2687 759 
Q 2956 1122 2956 1747 
Q 2956 2369 2687 2733 
Q 2419 3097 1959 3097 
z
M 1959 3584 
Q 2709 3584 3137 3096 
Q 3566 2609 3566 1747 
Q 3566 888 3137 398 
Q 2709 -91 1959 -91 
Q 1206 -91 779 398 
Q 353 888 353 1747 
Q 353 2609 779 3096 
Q 1206 3584 1959 3584 
z
" transform="scale(0.015625)"/>
       <path id="DejaVuSans-6e" d="M 3513 2113 
L 3513 0 
L 2938 0 
L 2938 2094 
Q 2938 2591 2744 2837 
Q 2550 3084 2163 3084 
Q 1697 3084 1428 2787 
Q 1159 2491 1159 1978 
L 1159 0 
L 581 0 
L 581 3500 
L 1159 3500 
L 1159 2956 
Q 1366 3272 1645 3428 
Q 1925 3584 2291 3584 
Q 2894 3584 3203 3211 
Q 3513 2838 3513 2113 
z
" transform="scale(0.015625)"/>
      </defs>
      <use xlink:href="#DejaVuSans-69"/>
      <use xlink:href="#DejaVuSans-74" x="27.783203"/>
      <use xlink:href="#DejaVuSans-65" x="66.992188"/>
      <use xlink:href="#DejaVuSans-72" x="128.515625"/>
      <use xlink:href="#DejaVuSans-61" x="169.628906"/>
      <use xlink:href="#DejaVuSans-74" x="230.908203"/>
      <use xlink:href="#DejaVuSans-69" x="270.117188"/>
      <use xlink:href="#DejaVuSans-6f" x="297.900391"/>
      <use xlink:href="#DejaVuSans-6e" x="359.082031"/>
     </g>
    </g>
   </g>
   <g id="matplotlib.axis_2">
    <g id="ytick_1">
     <g id="line2d_11">
      <defs>
       <path id="me415c10eb1" d="M 0 0 
L -3.5 0 
" style="stroke: #000000; stroke-width: 0.8"/>
      </defs>
      <g>
       <use xlink:href="#me415c10eb1" x="180" y="557.386659" style="stroke: #000000; stroke-width: 0.8"/>
      </g>
     </g>
     <g id="text_12">
      <!-- 0.2 -->
      <g transform="translate(157.096875 561.185878) scale(0.1 -0.1)">
       <defs>
        <path id="DejaVuSans-2e" d="M 684 794 
L 1344 794 
L 1344 0 
L 684 0 
L 684 794 
z
" transform="scale(0.015625)"/>
       </defs>
       <use xlink:href="#DejaVuSans-30"/>
       <use xlink:href="#DejaVuSans-2e" x="63.623047"/>
       <use xlink:href="#DejaVuSans-32" x="95.410156"/>
      </g>
     </g>
    </g>
    <g id="ytick_2">
     <g id="line2d_12">
      <g>
       <use xlink:href="#me415c10eb1" x="180" y="439.554296" style="stroke: #000000; stroke-width: 0.8"/>
      </g>
     </g>
     <g id="text_13">
      <!-- 0.4 -->
      <g transform="translate(157.096875 443.353515) scale(0.1 -0.1)">
       <use xlink:href="#DejaVuSans-30"/>
       <use xlink:href="#DejaVuSans-2e" x="63.623047"/>
       <use xlink:href="#DejaVuSans-34" x="95.410156"/>
      </g>
     </g>
    </g>
    <g id="ytick_3">
     <g id="line2d_13">
      <g>
       <use xlink:href="#me415c10eb1" x="180" y="321.721934" style="stroke: #000000; stroke-width: 0.8"/>
      </g>
     </g>
     <g id="text_14">
      <!-- 0.6 -->
      <g transform="translate(157.096875 325.521152) scale(0.1 -0.1)">
       <use xlink:href="#DejaVuSans-30"/>
       <use xlink:href="#DejaVuSans-2e" x="63.623047"/>
       <use xlink:href="#DejaVuSans-36" x="95.410156"/>
      </g>
     </g>
    </g>
    <g id="ytick_4">
     <g id="line2d_14">
      <g>
       <use xlink:href="#me415c10eb1" x="180" y="203.889571" style="stroke: #000000; stroke-width: 0.8"/>
      </g>
     </g>
     <g id="text_15">
      <!-- 0.8 -->
      <g transform="translate(157.096875 207.68879) scale(0.1 -0.1)">
       <use xlink:href="#DejaVuSans-30"/>
       <use xlink:href="#DejaVuSans-2e" x="63.623047"/>
       <use xlink:href="#DejaVuSans-38" x="95.410156"/>
      </g>
     </g>
    </g>
    <g id="text_16">
     <!-- cosine similarity -->
     <g transform="translate(151.017188 404.307031) rotate(-90) scale(0.1 -0.1)">
      <defs>
       <path id="DejaVuSans-63" d="M 3122 3366 
L 3122 2828 
Q 2878 2963 2633 3030 
Q 2388 3097 2138 3097 
Q 1578 3097 1268 2742 
Q 959 2388 959 1747 
Q 959 1106 1268 751 
Q 1578 397 2138 397 
Q 2388 397 2633 464 
Q 2878 531 3122 666 
L 3122 134 
Q 2881 22 2623 -34 
Q 2366 -91 2075 -91 
Q 1284 -91 818 406 
Q 353 903 353 1747 
Q 353 2603 823 3093 
Q 1294 3584 2113 3584 
Q 2378 3584 2631 3529 
Q 2884 3475 3122 3366 
z
" transform="scale(0.015625)"/>
       <path id="DejaVuSans-73" d="M 2834 3397 
L 2834 2853 
Q 2591 2978 2328 3040 
Q 2066 3103 1784 3103 
Q 1356 3103 1142 2972 
Q 928 2841 928 2578 
Q 928 2378 1081 2264 
Q 1234 2150 1697 2047 
L 1894 2003 
Q 2506 1872 2764 1633 
Q 3022 1394 3022 966 
Q 3022 478 2636 193 
Q 2250 -91 1575 -91 
Q 1294 -91 989 -36 
Q 684 19 347 128 
L 347 722 
Q 666 556 975 473 
Q 1284 391 1588 391 
Q 1994 391 2212 530 
Q 2431 669 2431 922 
Q 2431 1156 2273 1281 
Q 2116 1406 1581 1522 
L 1381 1569 
Q 847 1681 609 1914 
Q 372 2147 372 2553 
Q 372 3047 722 3315 
Q 1072 3584 1716 3584 
Q 2034 3584 2315 3537 
Q 2597 3491 2834 3397 
z
" transform="scale(0.015625)"/>
       <path id="DejaVuSans-20" transform="scale(0.015625)"/>
       <path id="DejaVuSans-6d" d="M 3328 2828 
Q 3544 3216 3844 3400 
Q 4144 3584 4550 3584 
Q 5097 3584 5394 3201 
Q 5691 2819 5691 2113 
L 5691 0 
L 5113 0 
L 5113 2094 
Q 5113 2597 4934 2840 
Q 4756 3084 4391 3084 
Q 3944 3084 3684 2787 
Q 3425 2491 3425 1978 
L 3425 0 
L 2847 0 
L 2847 2094 
Q 2847 2600 2669 2842 
Q 2491 3084 2119 3084 
Q 1678 3084 1418 2786 
Q 1159 2488 1159 1978 
L 1159 0 
L 581 0 
L 581 3500 
L 1159 3500 
L 1159 2956 
Q 1356 3278 1631 3431 
Q 1906 3584 2284 3584 
Q 2666 3584 2933 3390 
Q 3200 3197 3328 2828 
z
" transform="scale(0.015625)"/>
       <path id="DejaVuSans-6c" d="M 603 4863 
L 1178 4863 
L 1178 0 
L 603 0 
L 603 4863 
z
" transform="scale(0.015625)"/>
       <path id="DejaVuSans-79" d="M 2059 -325 
Q 1816 -950 1584 -1140 
Q 1353 -1331 966 -1331 
L 506 -1331 
L 506 -850 
L 844 -850 
Q 1081 -850 1212 -737 
Q 1344 -625 1503 -206 
L 1606 56 
L 191 3500 
L 800 3500 
L 1894 763 
L 2988 3500 
L 3597 3500 
L 2059 -325 
z
" transform="scale(0.015625)"/>
      </defs>
      <use xlink:href="#DejaVuSans-63"/>
      <use xlink:href="#DejaVuSans-6f" x="54.980469"/>
      <use xlink:href="#DejaVuSans-73" x="116.162109"/>
      <use xlink:href="#DejaVuSans-69" x="168.261719"/>
      <use xlink:href="#DejaVuSans-6e" x="196.044922"/>
      <use xlink:href="#DejaVuSans-65" x="259.423828"/>
      <use xlink:href="#DejaVuSans-20" x="320.947266"/>
      <use xlink:href="#DejaVuSans-73" x="352.734375"/>
      <use xlink:href="#DejaVuSans-69" x="404.833984"/>
      <use xlink:href="#DejaVuSans-6d" x="432.617188"/>
      <use xlink:href="#DejaVuSans-69" x="530.029297"/>
      <use xlink:href="#DejaVuSans-6c" x="557.8125"/>
      <use xlink:href="#DejaVuSans-61" x="585.595703"/>
      <use xlink:href="#DejaVuSans-72" x="646.875"/>
      <use xlink:href="#DejaVuSans-69" x="687.988281"/>
      <use xlink:href="#DejaVuSans-74" x="715.771484"/>
      <use xlink:href="#DejaVuSans-79" x="754.980469"/>
     </g>
    </g>
   </g>
   <g id="line2d_15">
    <path d="M 235.8 554.511743 
L 235.8 206.372355 
" clip-path="url(#p5d4ed7478c)" style="fill: none; stroke: #3f3f3f; stroke-width: 1.875; stroke-linecap: square"/>
   </g>
   <g id="line2d_16">
    <path d="M 235.8 421.773569 
L 235.8 316.388321 
" clip-path="url(#p5d4ed7478c)" style="fill: none; stroke: #3f3f3f; stroke-width: 5.625; stroke-linecap: square"/>
   </g>
   <g id="line2d_17">
    <path d="M 235.8 374.046028 
" clip-path="url(#p5d4ed7478c)" style="fill: none; stroke: #3f3f3f; stroke-width: 1.5; stroke-linecap: square"/>
    <defs>
     <path id="me9c885f576" d="M 2.34375 0 
L -2.34375 -0 
" style="stroke: #ffffff; stroke-width: 1.125"/>
    </defs>
    <g clip-path="url(#p5d4ed7478c)">
     <use xlink:href="#me9c885f576" x="235.8" y="374.046028" style="fill: #ffffff; stroke: #ffffff; stroke-width: 1.125"/>
    </g>
   </g>
   <g id="line2d_18">
    <path d="M 347.4 497.551394 
L 347.4 195.286514 
" clip-path="url(#p5d4ed7478c)" style="fill: none; stroke: #3f3f3f; stroke-width: 1.875; stroke-linecap: square"/>
   </g>
   <g id="line2d_19">
    <path d="M 347.4 384.791254 
L 347.4 288.100131 
" clip-path="url(#p5d4ed7478c)" style="fill: none; stroke: #3f3f3f; stroke-width: 5.625; stroke-linecap: square"/>
   </g>
   <g id="line2d_20">
    <path d="M 347.4 329.678153 
" clip-path="url(#p5d4ed7478c)" style="fill: none; stroke: #3f3f3f; stroke-width: 1.5; stroke-linecap: square"/>
    <g clip-path="url(#p5d4ed7478c)">
     <use xlink:href="#me9c885f576" x="347.4" y="329.678153" style="fill: #ffffff; stroke: #ffffff; stroke-width: 1.125"/>
    </g>
   </g>
   <g id="line2d_21">
    <path d="M 459 441.513441 
L 459 236.536968 
" clip-path="url(#p5d4ed7478c)" style="fill: none; stroke: #3f3f3f; stroke-width: 1.875; stroke-linecap: square"/>
   </g>
   <g id="line2d_22">
    <path d="M 459 381.435231 
L 459 314.939737 
" clip-path="url(#p5d4ed7478c)" style="fill: none; stroke: #3f3f3f; stroke-width: 5.625; stroke-linecap: square"/>
   </g>
   <g id="line2d_23">
    <path d="M 459 340.445011 
" clip-path="url(#p5d4ed7478c)" style="fill: none; stroke: #3f3f3f; stroke-width: 1.5; stroke-linecap: square"/>
    <g clip-path="url(#p5d4ed7478c)">
     <use xlink:href="#me9c885f576" x="459" y="340.445011" style="fill: #ffffff; stroke: #ffffff; stroke-width: 1.125"/>
    </g>
   </g>
   <g id="line2d_24">
    <path d="M 570.6 459.515391 
L 570.6 220.970612 
" clip-path="url(#p5d4ed7478c)" style="fill: none; stroke: #3f3f3f; stroke-width: 1.875; stroke-linecap: square"/>
   </g>
   <g id="line2d_25">
    <path d="M 570.6 387.86701 
L 570.6 318.27375 
" clip-path="url(#p5d4ed7478c)" style="fill: none; stroke: #3f3f3f; stroke-width: 5.625; stroke-linecap: square"/>
   </g>
   <g id="line2d_26">
    <path d="M 570.6 354.388743 
" clip-path="url(#p5d4ed7478c)" style="fill: none; stroke: #3f3f3f; stroke-width: 1.5; stroke-linecap: square"/>
    <g clip-path="url(#p5d4ed7478c)">
     <use xlink:href="#me9c885f576" x="570.6" y="354.388743" style="fill: #ffffff; stroke: #ffffff; stroke-width: 1.125"/>
    </g>
   </g>
   <g id="line2d_27">
    <path d="M 682.2 476.331957 
L 682.2 248.854178 
" clip-path="url(#p5d4ed7478c)" style="fill: none; stroke: #3f3f3f; stroke-width: 1.875; stroke-linecap: square"/>
   </g>
   <g id="line2d_28">
    <path d="M 682.2 408.587842 
L 682.2 294.306951 
" clip-path="url(#p5d4ed7478c)" style="fill: none; stroke: #3f3f3f; stroke-width: 5.625; stroke-linecap: square"/>
   </g>
   <g id="line2d_29">
    <path d="M 682.2 342.328306 
" clip-path="url(#p5d4ed7478c)" style="fill: none; stroke: #3f3f3f; stroke-width: 1.5; stroke-linecap: square"/>
    <g clip-path="url(#p5d4ed7478c)">
     <use xlink:href="#me9c885f576" x="682.2" y="342.328306" style="fill: #ffffff; stroke: #ffffff; stroke-width: 1.125"/>
    </g>
   </g>
   <g id="line2d_30">
    <path d="M 793.8 466.046691 
L 793.8 214.97702 
" clip-path="url(#p5d4ed7478c)" style="fill: none; stroke: #3f3f3f; stroke-width: 1.875; stroke-linecap: square"/>
   </g>
   <g id="line2d_31">
    <path d="M 793.8 378.24891 
L 793.8 285.124054 
" clip-path="url(#p5d4ed7478c)" style="fill: none; stroke: #3f3f3f; stroke-width: 5.625; stroke-linecap: square"/>
   </g>
   <g id="line2d_32">
    <path d="M 793.8 322.183846 
" clip-path="url(#p5d4ed7478c)" style="fill: none; stroke: #3f3f3f; stroke-width: 1.5; stroke-linecap: square"/>
    <g clip-path="url(#p5d4ed7478c)">
     <use xlink:href="#me9c885f576" x="793.8" y="322.183846" style="fill: #ffffff; stroke: #ffffff; stroke-width: 1.125"/>
    </g>
   </g>
   <g id="line2d_33">
    <path d="M 905.4 497.261857 
L 905.4 222.368119 
" clip-path="url(#p5d4ed7478c)" style="fill: none; stroke: #3f3f3f; stroke-width: 1.875; stroke-linecap: square"/>
   </g>
   <g id="line2d_34">
    <path d="M 905.4 405.598025 
L 905.4 284.823261 
" clip-path="url(#p5d4ed7478c)" style="fill: none; stroke: #3f3f3f; stroke-width: 5.625; stroke-linecap: square"/>
   </g>
   <g id="line2d_35">
    <path d="M 905.4 362.206335 
" clip-path="url(#p5d4ed7478c)" style="fill: none; stroke: #3f3f3f; stroke-width: 1.5; stroke-linecap: square"/>
    <g clip-path="url(#p5d4ed7478c)">
     <use xlink:href="#me9c885f576" x="905.4" y="362.206335" style="fill: #ffffff; stroke: #ffffff; stroke-width: 1.125"/>
    </g>
   </g>
   <g id="line2d_36">
    <path d="M 1017 498.255275 
L 1017 223.526481 
" clip-path="url(#p5d4ed7478c)" style="fill: none; stroke: #3f3f3f; stroke-width: 1.875; stroke-linecap: square"/>
   </g>
   <g id="line2d_37">
    <path d="M 1017 419.439945 
L 1017 325.706972 
" clip-path="url(#p5d4ed7478c)" style="fill: none; stroke: #3f3f3f; stroke-width: 5.625; stroke-linecap: square"/>
   </g>
   <g id="line2d_38">
    <path d="M 1017 399.989129 
" clip-path="url(#p5d4ed7478c)" style="fill: none; stroke: #3f3f3f; stroke-width: 1.5; stroke-linecap: square"/>
    <g clip-path="url(#p5d4ed7478c)">
     <use xlink:href="#me9c885f576" x="1017" y="399.989129" style="fill: #ffffff; stroke: #ffffff; stroke-width: 1.125"/>
    </g>
   </g>
   <g id="line2d_39">
    <path d="M 1128.6 475.435601 
L 1128.6 194.008369 
" clip-path="url(#p5d4ed7478c)" style="fill: none; stroke: #3f3f3f; stroke-width: 1.875; stroke-linecap: square"/>
   </g>
   <g id="line2d_40">
    <path d="M 1128.6 377.222569 
L 1128.6 296.832217 
" clip-path="url(#p5d4ed7478c)" style="fill: none; stroke: #3f3f3f; stroke-width: 5.625; stroke-linecap: square"/>
   </g>
   <g id="line2d_41">
    <path d="M 1128.6 338.350418 
" clip-path="url(#p5d4ed7478c)" style="fill: none; stroke: #3f3f3f; stroke-width: 1.5; stroke-linecap: square"/>
    <g clip-path="url(#p5d4ed7478c)">
     <use xlink:href="#me9c885f576" x="1128.6" y="338.350418" style="fill: #ffffff; stroke: #ffffff; stroke-width: 1.125"/>
    </g>
   </g>
   <g id="line2d_42">
    <path d="M 1240.2 391.467252 
L 1240.2 264.736515 
" clip-path="url(#p5d4ed7478c)" style="fill: none; stroke: #3f3f3f; stroke-width: 1.875; stroke-linecap: square"/>
   </g>
   <g id="line2d_43">
    <path d="M 1240.2 339.305629 
L 1240.2 299.733758 
" clip-path="url(#p5d4ed7478c)" style="fill: none; stroke: #3f3f3f; stroke-width: 5.625; stroke-linecap: square"/>
   </g>
   <g id="line2d_44">
    <path d="M 1240.2 334.722573 
" clip-path="url(#p5d4ed7478c)" style="fill: none; stroke: #3f3f3f; stroke-width: 1.5; stroke-linecap: square"/>
    <g clip-path="url(#p5d4ed7478c)">
     <use xlink:href="#me9c885f576" x="1240.2" y="334.722573" style="fill: #ffffff; stroke: #ffffff; stroke-width: 1.125"/>
    </g>
   </g>
   <g id="patch_3">
    <path d="M 180 640.8 
L 180 86.4 
" style="fill: none; stroke: #000000; stroke-width: 0.8; stroke-linejoin: miter; stroke-linecap: square"/>
   </g>
   <g id="patch_4">
    <path d="M 1296 640.8 
L 1296 86.4 
" style="fill: none; stroke: #000000; stroke-width: 0.8; stroke-linejoin: miter; stroke-linecap: square"/>
   </g>
   <g id="patch_5">
    <path d="M 180 640.8 
L 1296 640.8 
" style="fill: none; stroke: #000000; stroke-width: 0.8; stroke-linejoin: miter; stroke-linecap: square"/>
   </g>
   <g id="patch_6">
    <path d="M 180 86.4 
L 1296 86.4 
" style="fill: none; stroke: #000000; stroke-width: 0.8; stroke-linejoin: miter; stroke-linecap: square"/>
   </g>
   <g id="text_17">
    <!-- cosine similarity of max_mem_5_fs_glit (progressive), by iteration -->
    <g transform="translate(540.728438 80.4) scale(0.12 -0.12)">
     <defs>
      <path id="DejaVuSans-66" d="M 2375 4863 
L 2375 4384 
L 1825 4384 
Q 1516 4384 1395 4259 
Q 1275 4134 1275 3809 
L 1275 3500 
L 2222 3500 
L 2222 3053 
L 1275 3053 
L 1275 0 
L 697 0 
L 697 3053 
L 147 3053 
L 147 3500 
L 697 3500 
L 697 3744 
Q 697 4328 969 4595 
Q 1241 4863 1831 4863 
L 2375 4863 
z
" transform="scale(0.015625)"/>
      <path id="DejaVuSans-78" d="M 3513 3500 
L 2247 1797 
L 3578 0 
L 2900 0 
L 1881 1375 
L 863 0 
L 184 0 
L 1544 1831 
L 300 3500 
L 978 3500 
L 1906 2253 
L 2834 3500 
L 3513 3500 
z
" transform="scale(0.015625)"/>
      <path id="DejaVuSans-5f" d="M 3263 -1063 
L 3263 -1509 
L -63 -1509 
L -63 -1063 
L 3263 -1063 
z
" transform="scale(0.015625)"/>
      <path id="DejaVuSans-67" d="M 2906 1791 
Q 2906 2416 2648 2759 
Q 2391 3103 1925 3103 
Q 1463 3103 1205 2759 
Q 947 2416 947 1791 
Q 947 1169 1205 825 
Q 1463 481 1925 481 
Q 2391 481 2648 825 
Q 2906 1169 2906 1791 
z
M 3481 434 
Q 3481 -459 3084 -895 
Q 2688 -1331 1869 -1331 
Q 1566 -1331 1297 -1286 
Q 1028 -1241 775 -1147 
L 775 -588 
Q 1028 -725 1275 -790 
Q 1522 -856 1778 -856 
Q 2344 -856 2625 -561 
Q 2906 -266 2906 331 
L 2906 616 
Q 2728 306 2450 153 
Q 2172 0 1784 0 
Q 1141 0 747 490 
Q 353 981 353 1791 
Q 353 2603 747 3093 
Q 1141 3584 1784 3584 
Q 2172 3584 2450 3431 
Q 2728 3278 2906 2969 
L 2906 3500 
L 3481 3500 
L 3481 434 
z
" transform="scale(0.015625)"/>
      <path id="DejaVuSans-28" d="M 1984 4856 
Q 1566 4138 1362 3434 
Q 1159 2731 1159 2009 
Q 1159 1288 1364 580 
Q 1569 -128 1984 -844 
L 1484 -844 
Q 1016 -109 783 600 
Q 550 1309 550 2009 
Q 550 2706 781 3412 
Q 1013 4119 1484 4856 
L 1984 4856 
z
" transform="scale(0.015625)"/>
      <path id="DejaVuSans-70" d="M 1159 525 
L 1159 -1331 
L 581 -1331 
L 581 3500 
L 1159 3500 
L 1159 2969 
Q 1341 3281 1617 3432 
Q 1894 3584 2278 3584 
Q 2916 3584 3314 3078 
Q 3713 2572 3713 1747 
Q 3713 922 3314 415 
Q 2916 -91 2278 -91 
Q 1894 -91 1617 61 
Q 1341 213 1159 525 
z
M 3116 1747 
Q 3116 2381 2855 2742 
Q 2594 3103 2138 3103 
Q 1681 3103 1420 2742 
Q 1159 2381 1159 1747 
Q 1159 1113 1420 752 
Q 1681 391 2138 391 
Q 2594 391 2855 752 
Q 3116 1113 3116 1747 
z
" transform="scale(0.015625)"/>
      <path id="DejaVuSans-76" d="M 191 3500 
L 800 3500 
L 1894 563 
L 2988 3500 
L 3597 3500 
L 2284 0 
L 1503 0 
L 191 3500 
z
" transform="scale(0.015625)"/>
      <path id="DejaVuSans-29" d="M 513 4856 
L 1013 4856 
Q 1481 4119 1714 3412 
Q 1947 2706 1947 2009 
Q 1947 1309 1714 600 
Q 1481 -109 1013 -844 
L 513 -844 
Q 928 -128 1133 580 
Q 1338 1288 1338 2009 
Q 1338 2731 1133 3434 
Q 928 4138 513 4856 
z
" transform="scale(0.015625)"/>
      <path id="DejaVuSans-2c" d="M 750 794 
L 1409 794 
L 1409 256 
L 897 -744 
L 494 -744 
L 750 256 
L 750 794 
z
" transform="scale(0.015625)"/>
      <path id="DejaVuSans-62" d="M 3116 1747 
Q 3116 2381 2855 2742 
Q 2594 3103 2138 3103 
Q 1681 3103 1420 2742 
Q 1159 2381 1159 1747 
Q 1159 1113 1420 752 
Q 1681 391 2138 391 
Q 2594 391 2855 752 
Q 3116 1113 3116 1747 
z
M 1159 2969 
Q 1341 3281 1617 3432 
Q 1894 3584 2278 3584 
Q 2916 3584 3314 3078 
Q 3713 2572 3713 1747 
Q 3713 922 3314 415 
Q 2916 -91 2278 -91 
Q 1894 -91 1617 61 
Q 1341 213 1159 525 
L 1159 0 
L 581 0 
L 581 4863 
L 1159 4863 
L 1159 2969 
z
" transform="scale(0.015625)"/>
     </defs>
     <use xlink:href="#DejaVuSans-63"/>
     <use xlink:href="#DejaVuSans-6f" x="54.980469"/>
     <use xlink:href="#DejaVuSans-73" x="116.162109"/>
     <use xlink:href="#DejaVuSans-69" x="168.261719"/>
     <use xlink:href="#DejaVuSans-6e" x="196.044922"/>
     <use xlink:href="#DejaVuSans-65" x="259.423828"/>
     <use xlink:href="#DejaVuSans-20" x="320.947266"/>
     <use xlink:href="#DejaVuSans-73" x="352.734375"/>
     <use xlink:href="#DejaVuSans-69" x="404.833984"/>
     <use xlink:href="#DejaVuSans-6d" x="432.617188"/>
     <use xlink:href="#DejaVuSans-69" x="530.029297"/>
     <use xlink:href="#DejaVuSans-6c" x="557.8125"/>
     <use xlink:href="#DejaVuSans-61" x="585.595703"/>
     <use xlink:href="#DejaVuSans-72" x="646.875"/>
     <use xlink:href="#DejaVuSans-69" x="687.988281"/>
     <use xlink:href="#DejaVuSans-74" x="715.771484"/>
     <use xlink:href="#DejaVuSans-79" x="754.980469"/>
     <use xlink:href="#DejaVuSans-20" x="814.160156"/>
     <use xlink:href="#DejaVuSans-6f" x="845.947266"/>
     <use xlink:href="#DejaVuSans-66" x="907.128906"/>
     <use xlink:href="#DejaVuSans-20" x="942.333984"/>
     <use xlink:href="#DejaVuSans-6d" x="974.121094"/>
     <use xlink:href="#DejaVuSans-61" x="1071.533203"/>
     <use xlink:href="#DejaVuSans-78" x="1132.8125"/>
     <use xlink:href="#DejaVuSans-5f" x="1191.992188"/>
     <use xlink:href="#DejaVuSans-6d" x="1241.992188"/>
     <use xlink:href="#DejaVuSans-65" x="1339.404297"/>
     <use xlink:href="#DejaVuSans-6d" x="1400.927734"/>
     <use xlink:href="#DejaVuSans-5f" x="1498.339844"/>
     <use xlink:href="#DejaVuSans-35" x="1548.339844"/>
     <use xlink:href="#DejaVuSans-5f" x="1611.962891"/>
     <use xlink:href="#DejaVuSans-66" x="1661.962891"/>
     <use xlink:href="#DejaVuSans-73" x="1697.167969"/>
     <use xlink:href="#DejaVuSans-5f" x="1749.267578"/>
     <use xlink:href="#DejaVuSans-67" x="1799.267578"/>
     <use xlink:href="#DejaVuSans-6c" x="1862.744141"/>
     <use xlink:href="#DejaVuSans-69" x="1890.527344"/>
     <use xlink:href="#DejaVuSans-74" x="1918.310547"/>
     <use xlink:href="#DejaVuSans-20" x="1957.519531"/>
     <use xlink:href="#DejaVuSans-28" x="1989.306641"/>
     <use xlink:href="#DejaVuSans-70" x="2028.320312"/>
     <use xlink:href="#DejaVuSans-72" x="2091.796875"/>
     <use xlink:href="#DejaVuSans-6f" x="2130.660156"/>
     <use xlink:href="#DejaVuSans-67" x="2191.841797"/>
     <use xlink:href="#DejaVuSans-72" x="2255.318359"/>
     <use xlink:href="#DejaVuSans-65" x="2294.181641"/>
     <use xlink:href="#DejaVuSans-73" x="2355.705078"/>
     <use xlink:href="#DejaVuSans-73" x="2407.804688"/>
     <use xlink:href="#DejaVuSans-69" x="2459.904297"/>
     <use xlink:href="#DejaVuSans-76" x="2487.6875"/>
     <use xlink:href="#DejaVuSans-65" x="2546.867188"/>
     <use xlink:href="#DejaVuSans-29" x="2608.390625"/>
     <use xlink:href="#DejaVuSans-2c" x="2647.404297"/>
     <use xlink:href="#DejaVuSans-20" x="2679.191406"/>
     <use xlink:href="#DejaVuSans-62" x="2710.978516"/>
     <use xlink:href="#DejaVuSans-79" x="2774.455078"/>
     <use xlink:href="#DejaVuSans-20" x="2833.634766"/>
     <use xlink:href="#DejaVuSans-69" x="2865.421875"/>
     <use xlink:href="#DejaVuSans-74" x="2893.205078"/>
     <use xlink:href="#DejaVuSans-65" x="2932.414062"/>
     <use xlink:href="#DejaVuSans-72" x="2993.9375"/>
     <use xlink:href="#DejaVuSans-61" x="3035.050781"/>
     <use xlink:href="#DejaVuSans-74" x="3096.330078"/>
     <use xlink:href="#DejaVuSans-69" x="3135.539062"/>
     <use xlink:href="#DejaVuSans-6f" x="3163.322266"/>
     <use xlink:href="#DejaVuSans-6e" x="3224.503906"/>
    </g>
   </g>
  </g>
 </g>
 <defs>
  <clipPath id="p5d4ed7478c">
   <rect x="180" y="86.4" width="1116" height="554.4"/>
  </clipPath>
 </defs>
</svg>
