<?xml version="1.0" encoding="utf-8" standalone="no"?>
<!DOCTYPE svg PUBLIC "-//W3C//DTD SVG 1.1//EN"
  "http://www.w3.org/Graphics/SVG/1.1/DTD/svg11.dtd">
<svg xmlns:xlink="http://www.w3.org/1999/xlink" width="1440pt" height="720pt" viewBox="0 0 1440 720" xmlns="http://www.w3.org/2000/svg" version="1.1">
 <metadata>
  <rdf:RDF xmlns:dc="http://purl.org/dc/elements/1.1/" xmlns:cc="http://creativecommons.org/ns#" xmlns:rdf="http://www.w3.org/1999/02/22-rdf-syntax-ns#">
   <cc:Work>
    <dc:type rdf:resource="http://purl.org/dc/dcmitype/StillImage"/>
    <dc:date>2024-07-27T14:11:09.405315</dc:date>
    <dc:format>image/svg+xml</dc:format>
    <dc:creator>
     <cc:Agent>
      <dc:title>Matplotlib v3.8.0, https://matplotlib.org/</dc:title>
     </cc:Agent>
    </dc:creator>
   </cc:Work>
  </rdf:RDF>
 </metadata>
 <defs>
  <style type="text/css">*{stroke-linejoin: round; stroke-linecap: butt}</style>
 </defs>
 <g id="figure_1">
  <g id="patch_1">
   <path d="M 0 720 
L 1440 720 
L 1440 0 
L 0 0 
z
" style="fill: #ffffff"/>
  </g>
  <g id="axes_1">
   <g id="patch_2">
    <path d="M 180 640.8 
L 1296 640.8 
L 1296 86.4 
L 180 86.4 
z
" style="fill: #ffffff"/>
   </g>
   <g id="PolyCollection_1">
    <defs>
     <path id="m30693081ab" d="M 235.803138 -109.558915 
L 235.796862 -109.558915 
L 235.789585 -114.486075 
L 235.774073 -119.413236 
L 235.748819 -124.340397 
L 235.713727 -129.267557 
L 235.665032 -134.194718 
L 235.588566 -139.121878 
L 235.458018 -144.049039 
L 235.249348 -148.976199 
L 234.962113 -153.90336 
L 234.608279 -158.830521 
L 234.16539 -163.757681 
L 233.561839 -168.684842 
L 232.722545 -173.612002 
L 231.617447 -178.539163 
L 230.277418 -183.466323 
L 228.765305 -188.393484 
L 227.097428 -193.320645 
L 225.190901 -198.247805 
L 222.919493 -203.174966 
L 220.232898 -208.102126 
L 217.227871 -213.029287 
L 214.114136 -217.956447 
L 211.080349 -222.883608 
L 208.148637 -227.810769 
L 205.193442 -232.737929 
L 202.17956 -237.66509 
L 199.309958 -242.59225 
L 196.798233 -247.519411 
L 194.637954 -252.446571 
L 192.829588 -257.373732 
L 191.615039 -262.300893 
L 191.16 -267.228053 
L 191.264974 -272.155214 
L 191.6668 -277.082374 
L 192.325469 -282.009535 
L 193.260688 -286.936695 
L 194.377083 -291.863856 
L 195.559249 -296.791017 
L 196.824729 -301.718177 
L 198.279758 -306.645338 
L 199.921785 -311.572498 
L 201.621008 -316.499659 
L 203.262643 -321.426819 
L 204.768762 -326.35398 
L 206.153947 -331.281141 
L 207.629531 -336.208301 
L 209.394463 -341.135462 
L 211.322811 -346.062622 
L 213.113397 -350.989783 
L 214.693215 -355.916943 
L 216.223243 -360.844104 
L 217.754029 -365.771265 
L 219.100479 -370.698425 
L 220.153831 -375.625586 
L 221.143636 -380.552746 
L 222.348958 -385.479907 
L 223.722767 -390.407067 
L 225.055494 -395.334228 
L 226.29472 -400.261389 
L 227.507096 -405.188549 
L 228.697144 -410.11571 
L 229.786624 -415.04287 
L 230.70577 -419.970031 
L 231.44218 -424.897191 
L 232.007213 -429.824352 
L 232.414526 -434.751513 
L 232.721669 -439.678673 
L 233.030771 -444.605834 
L 233.404905 -449.532994 
L 233.822105 -454.460155 
L 234.215327 -459.387316 
L 234.526954 -464.314476 
L 234.747267 -469.241637 
L 234.919272 -474.168797 
L 235.092469 -479.095958 
L 235.27168 -484.023118 
L 235.419008 -488.950279 
L 235.505876 -493.87744 
L 235.55108 -498.8046 
L 235.594776 -503.731761 
L 235.649131 -508.658921 
L 235.697912 -513.586082 
L 235.729631 -518.513242 
L 235.746588 -523.440403 
L 235.755041 -528.367564 
L 235.762221 -533.294724 
L 235.773108 -538.221885 
L 235.785524 -543.149045 
L 235.794402 -548.076206 
L 235.798448 -553.003366 
L 235.799485 -557.930527 
L 235.798835 -562.857688 
L 235.796159 -567.784848 
L 235.791042 -572.712009 
L 235.785668 -577.639169 
L 235.784279 -582.56633 
L 235.788178 -587.49349 
L 235.793905 -592.420651 
L 235.797846 -597.347812 
L 235.802154 -597.347812 
L 235.802154 -597.347812 
L 235.806095 -592.420651 
L 235.811822 -587.49349 
L 235.815721 -582.56633 
L 235.814332 -577.639169 
L 235.808958 -572.712009 
L 235.803841 -567.784848 
L 235.801165 -562.857688 
L 235.800515 -557.930527 
L 235.801552 -553.003366 
L 235.805598 -548.076206 
L 235.814476 -543.149045 
L 235.826892 -538.221885 
L 235.837779 -533.294724 
L 235.844959 -528.367564 
L 235.853412 -523.440403 
L 235.870369 -518.513242 
L 235.902088 -513.586082 
L 235.950869 -508.658921 
L 236.005224 -503.731761 
L 236.04892 -498.8046 
L 236.094124 -493.87744 
L 236.180992 -488.950279 
L 236.32832 -484.023118 
L 236.507531 -479.095958 
L 236.680728 -474.168797 
L 236.852733 -469.241637 
L 237.073046 -464.314476 
L 237.384673 -459.387316 
L 237.777895 -454.460155 
L 238.195095 -449.532994 
L 238.569229 -444.605834 
L 238.878331 -439.678673 
L 239.185474 -434.751513 
L 239.592787 -429.824352 
L 240.15782 -424.897191 
L 240.89423 -419.970031 
L 241.813376 -415.04287 
L 242.902856 -410.11571 
L 244.092904 -405.188549 
L 245.30528 -400.261389 
L 246.544506 -395.334228 
L 247.877233 -390.407067 
L 249.251042 -385.479907 
L 250.456364 -380.552746 
L 251.446169 -375.625586 
L 252.499521 -370.698425 
L 253.845971 -365.771265 
L 255.376757 -360.844104 
L 256.906785 -355.916943 
L 258.486603 -350.989783 
L 260.277189 -346.062622 
L 262.205537 -341.135462 
L 263.970469 -336.208301 
L 265.446053 -331.281141 
L 266.831238 -326.35398 
L 268.337357 -321.426819 
L 269.978992 -316.499659 
L 271.678215 -311.572498 
L 273.320242 -306.645338 
L 274.775271 -301.718177 
L 276.040751 -296.791017 
L 277.222917 -291.863856 
L 278.339312 -286.936695 
L 279.274531 -282.009535 
L 279.9332 -277.082374 
L 280.335026 -272.155214 
L 280.44 -267.228053 
L 279.984961 -262.300893 
L 278.770412 -257.373732 
L 276.962046 -252.446571 
L 274.801767 -247.519411 
L 272.290042 -242.59225 
L 269.42044 -237.66509 
L 266.406558 -232.737929 
L 263.451363 -227.810769 
L 260.519651 -222.883608 
L 257.485864 -217.956447 
L 254.372129 -213.029287 
L 251.367102 -208.102126 
L 248.680507 -203.174966 
L 246.409099 -198.247805 
L 244.502572 -193.320645 
L 242.834695 -188.393484 
L 241.322582 -183.466323 
L 239.982553 -178.539163 
L 238.877455 -173.612002 
L 238.038161 -168.684842 
L 237.43461 -163.757681 
L 236.991721 -158.830521 
L 236.637887 -153.90336 
L 236.350652 -148.976199 
L 236.141982 -144.049039 
L 236.011434 -139.121878 
L 235.934968 -134.194718 
L 235.886273 -129.267557 
L 235.851181 -124.340397 
L 235.825927 -119.413236 
L 235.810415 -114.486075 
L 235.803138 -109.558915 
z
" style="stroke: #3f3f3f; stroke-width: 1.25"/>
    </defs>
    <g clip-path="url(#p0459fbc5f1)">
     <use xlink:href="#m30693081ab" x="0" y="720" style="fill: #3274a1; stroke: #3f3f3f; stroke-width: 1.25"/>
    </g>
   </g>
   <g id="PolyCollection_2">
    <defs>
     <path id="mc49959b54b" d="M 347.402913 -109.520535 
L 347.397087 -109.520535 
L 347.391073 -114.405414 
L 347.380412 -119.290293 
L 347.367882 -124.175173 
L 347.35554 -129.060052 
L 347.335058 -133.944931 
L 347.287707 -138.829811 
L 347.194808 -143.71469 
L 347.040979 -148.599569 
L 346.809498 -153.484448 
L 346.484598 -158.369328 
L 346.058859 -163.254207 
L 345.524395 -168.139086 
L 344.843091 -173.023966 
L 343.948049 -177.908845 
L 342.807844 -182.793724 
L 341.468204 -187.678604 
L 339.993471 -192.563483 
L 338.369725 -197.448362 
L 336.496319 -202.333241 
L 334.289801 -207.218121 
L 331.772318 -212.103 
L 329.054741 -216.987879 
L 326.267058 -221.872759 
L 323.514136 -226.757638 
L 320.865157 -231.642517 
L 318.32748 -236.527397 
L 315.880452 -241.412276 
L 313.611406 -246.297155 
L 311.674846 -251.182034 
L 310.078108 -256.066914 
L 308.718301 -260.951793 
L 307.576566 -265.836672 
L 306.661679 -270.721552 
L 305.887271 -275.606431 
L 305.211592 -280.49131 
L 304.809816 -285.37619 
L 304.943704 -290.261069 
L 305.660868 -295.145948 
L 306.703973 -300.030827 
L 307.746891 -304.915707 
L 308.704383 -309.800586 
L 309.781251 -314.685465 
L 311.175146 -319.570345 
L 312.808897 -324.455224 
L 314.461857 -329.340103 
L 316.030099 -334.224983 
L 317.562323 -339.109862 
L 319.13621 -343.994741 
L 320.718288 -348.87962 
L 322.192087 -353.7645 
L 323.550906 -358.649379 
L 324.925605 -363.534258 
L 326.405777 -368.419138 
L 327.949311 -373.304017 
L 329.480972 -378.188896 
L 331.01342 -383.073776 
L 332.610633 -387.958655 
L 334.237765 -392.843534 
L 335.741655 -397.728413 
L 337.035949 -402.613293 
L 338.211077 -407.498172 
L 339.375283 -412.383051 
L 340.493286 -417.267931 
L 341.483805 -422.15281 
L 342.35749 -427.037689 
L 343.156334 -431.922569 
L 343.861378 -436.807448 
L 344.443101 -441.692327 
L 344.930283 -446.577206 
L 345.363322 -451.462086 
L 345.737049 -456.346965 
L 346.037222 -461.231844 
L 346.282504 -466.116724 
L 346.5039 -471.001603 
L 346.711574 -475.886482 
L 346.894101 -480.771362 
L 347.036865 -485.656241 
L 347.130462 -490.54112 
L 347.173255 -495.425999 
L 347.176895 -500.310879 
L 347.166185 -505.195758 
L 347.172217 -510.080637 
L 347.215185 -514.965517 
L 347.283805 -519.850396 
L 347.345662 -524.735275 
L 347.381372 -529.620155 
L 347.394708 -534.505034 
L 347.396381 -539.389913 
L 347.392636 -544.274792 
L 347.387043 -549.159672 
L 347.383868 -554.044551 
L 347.385268 -558.92943 
L 347.387989 -563.81431 
L 347.387528 -568.699189 
L 347.384629 -573.584068 
L 347.384194 -578.468948 
L 347.388306 -583.353827 
L 347.393974 -588.238706 
L 347.397851 -593.123585 
L 347.402149 -593.123585 
L 347.402149 -593.123585 
L 347.406026 -588.238706 
L 347.411694 -583.353827 
L 347.415806 -578.468948 
L 347.415371 -573.584068 
L 347.412472 -568.699189 
L 347.412011 -563.81431 
L 347.414732 -558.92943 
L 347.416132 -554.044551 
L 347.412957 -549.159672 
L 347.407364 -544.274792 
L 347.403619 -539.389913 
L 347.405292 -534.505034 
L 347.418628 -529.620155 
L 347.454338 -524.735275 
L 347.516195 -519.850396 
L 347.584815 -514.965517 
L 347.627783 -510.080637 
L 347.633815 -505.195758 
L 347.623105 -500.310879 
L 347.626745 -495.425999 
L 347.669538 -490.54112 
L 347.763135 -485.656241 
L 347.905899 -480.771362 
L 348.088426 -475.886482 
L 348.2961 -471.001603 
L 348.517496 -466.116724 
L 348.762778 -461.231844 
L 349.062951 -456.346965 
L 349.436678 -451.462086 
L 349.869717 -446.577206 
L 350.356899 -441.692327 
L 350.938622 -436.807448 
L 351.643666 -431.922569 
L 352.44251 -427.037689 
L 353.316195 -422.15281 
L 354.306714 -417.267931 
L 355.424717 -412.383051 
L 356.588923 -407.498172 
L 357.764051 -402.613293 
L 359.058345 -397.728413 
L 360.562235 -392.843534 
L 362.189367 -387.958655 
L 363.78658 -383.073776 
L 365.319028 -378.188896 
L 366.850689 -373.304017 
L 368.394223 -368.419138 
L 369.874395 -363.534258 
L 371.249094 -358.649379 
L 372.607913 -353.7645 
L 374.081712 -348.87962 
L 375.66379 -343.994741 
L 377.237677 -339.109862 
L 378.769901 -334.224983 
L 380.338143 -329.340103 
L 381.991103 -324.455224 
L 383.624854 -319.570345 
L 385.018749 -314.685465 
L 386.095617 -309.800586 
L 387.053109 -304.915707 
L 388.096027 -300.030827 
L 389.139132 -295.145948 
L 389.856296 -290.261069 
L 389.990184 -285.37619 
L 389.588408 -280.49131 
L 388.912729 -275.606431 
L 388.138321 -270.721552 
L 387.223434 -265.836672 
L 386.081699 -260.951793 
L 384.721892 -256.066914 
L 383.125154 -251.182034 
L 381.188594 -246.297155 
L 378.919548 -241.412276 
L 376.47252 -236.527397 
L 373.934843 -231.642517 
L 371.285864 -226.757638 
L 368.532942 -221.872759 
L 365.745259 -216.987879 
L 363.027682 -212.103 
L 360.510199 -207.218121 
L 358.303681 -202.333241 
L 356.430275 -197.448362 
L 354.806529 -192.563483 
L 353.331796 -187.678604 
L 351.992156 -182.793724 
L 350.851951 -177.908845 
L 349.956909 -173.023966 
L 349.275605 -168.139086 
L 348.741141 -163.254207 
L 348.315402 -158.369328 
L 347.990502 -153.484448 
L 347.759021 -148.599569 
L 347.605192 -143.71469 
L 347.512293 -138.829811 
L 347.464942 -133.944931 
L 347.44446 -129.060052 
L 347.432118 -124.175173 
L 347.419588 -119.290293 
L 347.408927 -114.405414 
L 347.402913 -109.520535 
z
" style="stroke: #3f3f3f; stroke-width: 1.25"/>
    </defs>
    <g clip-path="url(#p0459fbc5f1)">
     <use xlink:href="#mc49959b54b" x="0" y="720" style="fill: #3274a1; stroke: #3f3f3f; stroke-width: 1.25"/>
    </g>
   </g>
   <g id="PolyCollection_3">
    <defs>
     <path id="m2dcc8b2f34" d="M 459.002654 -104.4 
L 458.997346 -104.4 
L 458.992137 -109.108078 
L 458.982785 -113.816155 
L 458.971402 -118.524233 
L 458.96166 -123.232311 
L 458.952383 -127.940388 
L 458.933238 -132.648466 
L 458.888016 -137.356544 
L 458.803071 -142.064621 
L 458.674489 -146.772699 
L 458.503716 -151.480777 
L 458.281129 -156.188855 
L 457.980392 -160.896932 
L 457.571147 -165.60501 
L 457.019655 -170.313088 
L 456.282362 -175.021165 
L 455.342653 -179.729243 
L 454.253295 -184.437321 
L 453.076534 -189.145398 
L 451.766668 -193.853476 
L 450.181881 -198.561554 
L 448.249987 -203.269631 
L 446.081446 -207.977709 
L 443.876517 -212.685787 
L 441.723362 -217.393864 
L 439.523275 -222.101942 
L 437.14727 -226.81002 
L 434.637114 -231.518098 
L 432.192958 -236.226175 
L 429.98206 -240.934253 
L 428.021113 -245.642331 
L 426.219139 -250.350408 
L 424.456795 -255.058486 
L 422.651479 -259.766564 
L 420.831174 -264.474641 
L 419.149378 -269.182719 
L 417.78912 -273.890797 
L 416.833149 -278.598874 
L 416.233666 -283.306952 
L 415.907809 -288.01503 
L 415.847755 -292.723107 
L 416.14078 -297.431185 
L 416.878793 -302.139263 
L 418.037366 -306.847341 
L 419.444503 -311.555418 
L 420.873681 -316.263496 
L 422.197272 -320.971574 
L 423.467358 -325.679651 
L 424.821447 -330.387729 
L 426.335095 -335.095807 
L 428.002888 -339.803884 
L 429.766763 -344.511962 
L 431.49018 -349.22004 
L 433.019923 -353.928117 
L 434.36865 -358.636195 
L 435.74247 -363.344273 
L 437.312684 -368.05235 
L 439.051221 -372.760428 
L 440.829316 -377.468506 
L 442.559224 -382.176584 
L 444.183519 -386.884661 
L 445.625909 -391.592739 
L 446.846235 -396.300817 
L 447.915877 -401.008894 
L 448.966976 -405.716972 
L 450.057877 -410.42505 
L 451.132495 -415.133127 
L 452.123855 -419.841205 
L 453.035979 -424.549283 
L 453.897832 -429.25736 
L 454.69769 -433.965438 
L 455.387792 -438.673516 
L 455.929251 -443.381593 
L 456.332547 -448.089671 
L 456.657936 -452.797749 
L 456.96713 -457.505827 
L 457.278881 -462.213904 
L 457.582178 -466.921982 
L 457.871538 -471.63006 
L 458.140831 -476.338137 
L 458.36633 -481.046215 
L 458.528617 -485.754293 
L 458.636101 -490.46237 
L 458.710796 -495.170448 
L 458.764139 -499.878526 
L 458.796945 -504.586603 
L 458.816395 -509.294681 
L 458.838768 -514.002759 
L 458.870539 -518.710836 
L 458.901282 -523.418914 
L 458.922138 -528.126992 
L 458.936943 -532.83507 
L 458.950689 -537.543147 
L 458.960901 -542.251225 
L 458.965405 -546.959303 
L 458.968541 -551.66738 
L 458.975223 -556.375458 
L 458.984702 -561.083536 
L 458.992893 -565.791613 
L 458.997563 -570.499691 
L 459.002437 -570.499691 
L 459.002437 -570.499691 
L 459.007107 -565.791613 
L 459.015298 -561.083536 
L 459.024777 -556.375458 
L 459.031459 -551.66738 
L 459.034595 -546.959303 
L 459.039099 -542.251225 
L 459.049311 -537.543147 
L 459.063057 -532.83507 
L 459.077862 -528.126992 
L 459.098718 -523.418914 
L 459.129461 -518.710836 
L 459.161232 -514.002759 
L 459.183605 -509.294681 
L 459.203055 -504.586603 
L 459.235861 -499.878526 
L 459.289204 -495.170448 
L 459.363899 -490.46237 
L 459.471383 -485.754293 
L 459.63367 -481.046215 
L 459.859169 -476.338137 
L 460.128462 -471.63006 
L 460.417822 -466.921982 
L 460.721119 -462.213904 
L 461.03287 -457.505827 
L 461.342064 -452.797749 
L 461.667453 -448.089671 
L 462.070749 -443.381593 
L 462.612208 -438.673516 
L 463.30231 -433.965438 
L 464.102168 -429.25736 
L 464.964021 -424.549283 
L 465.876145 -419.841205 
L 466.867505 -415.133127 
L 467.942123 -410.42505 
L 469.033024 -405.716972 
L 470.084123 -401.008894 
L 471.153765 -396.300817 
L 472.374091 -391.592739 
L 473.816481 -386.884661 
L 475.440776 -382.176584 
L 477.170684 -377.468506 
L 478.948779 -372.760428 
L 480.687316 -368.05235 
L 482.25753 -363.344273 
L 483.63135 -358.636195 
L 484.980077 -353.928117 
L 486.50982 -349.22004 
L 488.233237 -344.511962 
L 489.997112 -339.803884 
L 491.664905 -335.095807 
L 493.178553 -330.387729 
L 494.532642 -325.679651 
L 495.802728 -320.971574 
L 497.126319 -316.263496 
L 498.555497 -311.555418 
L 499.962634 -306.847341 
L 501.121207 -302.139263 
L 501.85922 -297.431185 
L 502.152245 -292.723107 
L 502.092191 -288.01503 
L 501.766334 -283.306952 
L 501.166851 -278.598874 
L 500.21088 -273.890797 
L 498.850622 -269.182719 
L 497.168826 -264.474641 
L 495.348521 -259.766564 
L 493.543205 -255.058486 
L 491.780861 -250.350408 
L 489.978887 -245.642331 
L 488.01794 -240.934253 
L 485.807042 -236.226175 
L 483.362886 -231.518098 
L 480.85273 -226.81002 
L 478.476725 -222.101942 
L 476.276638 -217.393864 
L 474.123483 -212.685787 
L 471.918554 -207.977709 
L 469.750013 -203.269631 
L 467.818119 -198.561554 
L 466.233332 -193.853476 
L 464.923466 -189.145398 
L 463.746705 -184.437321 
L 462.657347 -179.729243 
L 461.717638 -175.021165 
L 460.980345 -170.313088 
L 460.428853 -165.60501 
L 460.019608 -160.896932 
L 459.718871 -156.188855 
L 459.496284 -151.480777 
L 459.325511 -146.772699 
L 459.196929 -142.064621 
L 459.111984 -137.356544 
L 459.066762 -132.648466 
L 459.047617 -127.940388 
L 459.03834 -123.232311 
L 459.028598 -118.524233 
L 459.017215 -113.816155 
L 459.007863 -109.108078 
L 459.002654 -104.4 
z
" style="stroke: #3f3f3f; stroke-width: 1.25"/>
    </defs>
    <g clip-path="url(#p0459fbc5f1)">
     <use xlink:href="#m2dcc8b2f34" x="0" y="720" style="fill: #3274a1; stroke: #3f3f3f; stroke-width: 1.25"/>
    </g>
   </g>
   <g id="PolyCollection_4">
    <defs>
     <path id="m23639eb93a" d="M 570.602299 -113.011607 
L 570.597701 -113.011607 
L 570.59337 -117.633199 
L 570.584987 -122.254792 
L 570.571211 -126.876385 
L 570.548627 -131.497977 
L 570.509511 -136.11957 
L 570.443938 -140.741162 
L 570.345331 -145.362755 
L 570.211716 -149.984347 
L 570.035465 -154.60594 
L 569.789172 -159.227532 
L 569.427345 -163.849125 
L 568.905932 -168.470717 
L 568.205772 -173.09231 
L 567.347082 -177.713902 
L 566.371118 -182.335495 
L 565.290442 -186.957087 
L 564.064774 -191.57868 
L 562.637138 -196.200273 
L 560.995181 -200.821865 
L 559.191686 -205.443458 
L 557.28535 -210.06505 
L 555.26907 -214.686643 
L 553.100261 -219.308235 
L 550.78468 -223.929828 
L 548.375785 -228.55142 
L 545.935854 -233.173013 
L 543.556493 -237.794605 
L 541.349126 -242.416198 
L 539.359753 -247.03779 
L 537.536334 -251.659383 
L 535.7782 -256.280975 
L 533.993366 -260.902568 
L 532.163315 -265.524161 
L 530.403944 -270.145753 
L 528.917323 -274.767346 
L 527.832952 -279.388938 
L 527.138102 -284.010531 
L 526.765858 -288.632123 
L 526.718237 -293.253716 
L 527.121703 -297.875308 
L 528.092674 -302.496901 
L 529.517107 -307.118493 
L 531.082605 -311.740086 
L 532.521385 -316.361678 
L 533.770163 -320.983271 
L 534.976566 -325.604863 
L 536.331988 -330.226456 
L 537.845637 -334.848049 
L 539.378735 -339.469641 
L 540.869917 -344.091234 
L 542.364036 -348.712826 
L 543.881927 -353.334419 
L 545.441353 -357.956011 
L 547.142853 -362.577604 
L 549.055218 -367.199196 
L 551.049863 -371.820789 
L 552.891965 -376.442381 
L 554.467196 -381.063974 
L 555.82562 -385.685566 
L 557.058592 -390.307159 
L 558.214192 -394.928751 
L 559.307488 -399.550344 
L 560.351198 -404.171937 
L 561.34557 -408.793529 
L 562.267485 -413.415122 
L 563.111574 -418.036714 
L 563.911655 -422.658307 
L 564.696411 -427.279899 
L 565.460257 -431.901492 
L 566.174201 -436.523084 
L 566.810864 -441.144677 
L 567.376213 -445.766269 
L 567.894178 -450.387862 
L 568.355395 -455.009454 
L 568.72928 -459.631047 
L 569.021764 -464.252639 
L 569.275368 -468.874232 
L 569.517382 -473.495825 
L 569.738643 -478.117417 
L 569.919695 -482.73901 
L 570.056053 -487.360602 
L 570.156783 -491.982195 
L 570.232431 -496.603787 
L 570.289469 -501.22538 
L 570.334701 -505.846972 
L 570.379001 -510.468565 
L 570.427184 -515.090157 
L 570.46889 -519.71175 
L 570.491662 -524.333342 
L 570.498532 -528.954935 
L 570.503991 -533.576527 
L 570.517159 -538.19812 
L 570.535008 -542.819713 
L 570.550678 -547.441305 
L 570.562791 -552.062898 
L 570.573973 -556.68449 
L 570.584732 -561.306083 
L 570.592982 -565.927675 
L 570.597561 -570.549268 
L 570.602439 -570.549268 
L 570.602439 -570.549268 
L 570.607018 -565.927675 
L 570.615268 -561.306083 
L 570.626027 -556.68449 
L 570.637209 -552.062898 
L 570.649322 -547.441305 
L 570.664992 -542.819713 
L 570.682841 -538.19812 
L 570.696009 -533.576527 
L 570.701468 -528.954935 
L 570.708338 -524.333342 
L 570.73111 -519.71175 
L 570.772816 -515.090157 
L 570.820999 -510.468565 
L 570.865299 -505.846972 
L 570.910531 -501.22538 
L 570.967569 -496.603787 
L 571.043217 -491.982195 
L 571.143947 -487.360602 
L 571.280305 -482.73901 
L 571.461357 -478.117417 
L 571.682618 -473.495825 
L 571.924632 -468.874232 
L 572.178236 -464.252639 
L 572.47072 -459.631047 
L 572.844605 -455.009454 
L 573.305822 -450.387862 
L 573.823787 -445.766269 
L 574.389136 -441.144677 
L 575.025799 -436.523084 
L 575.739743 -431.901492 
L 576.503589 -427.279899 
L 577.288345 -422.658307 
L 578.088426 -418.036714 
L 578.932515 -413.415122 
L 579.85443 -408.793529 
L 580.848802 -404.171937 
L 581.892512 -399.550344 
L 582.985808 -394.928751 
L 584.141408 -390.307159 
L 585.37438 -385.685566 
L 586.732804 -381.063974 
L 588.308035 -376.442381 
L 590.150137 -371.820789 
L 592.144782 -367.199196 
L 594.057147 -362.577604 
L 595.758647 -357.956011 
L 597.318073 -353.334419 
L 598.835964 -348.712826 
L 600.330083 -344.091234 
L 601.821265 -339.469641 
L 603.354363 -334.848049 
L 604.868012 -330.226456 
L 606.223434 -325.604863 
L 607.429837 -320.983271 
L 608.678615 -316.361678 
L 610.117395 -311.740086 
L 611.682893 -307.118493 
L 613.107326 -302.496901 
L 614.078297 -297.875308 
L 614.481763 -293.253716 
L 614.434142 -288.632123 
L 614.061898 -284.010531 
L 613.367048 -279.388938 
L 612.282677 -274.767346 
L 610.796056 -270.145753 
L 609.036685 -265.524161 
L 607.206634 -260.902568 
L 605.4218 -256.280975 
L 603.663666 -251.659383 
L 601.840247 -247.03779 
L 599.850874 -242.416198 
L 597.643507 -237.794605 
L 595.264146 -233.173013 
L 592.824215 -228.55142 
L 590.41532 -223.929828 
L 588.099739 -219.308235 
L 585.93093 -214.686643 
L 583.91465 -210.06505 
L 582.008314 -205.443458 
L 580.204819 -200.821865 
L 578.562862 -196.200273 
L 577.135226 -191.57868 
L 575.909558 -186.957087 
L 574.828882 -182.335495 
L 573.852918 -177.713902 
L 572.994228 -173.09231 
L 572.294068 -168.470717 
L 571.772655 -163.849125 
L 571.410828 -159.227532 
L 571.164535 -154.60594 
L 570.988284 -149.984347 
L 570.854669 -145.362755 
L 570.756062 -140.741162 
L 570.690489 -136.11957 
L 570.651373 -131.497977 
L 570.628789 -126.876385 
L 570.615013 -122.254792 
L 570.60663 -117.633199 
L 570.602299 -113.011607 
z
" style="stroke: #3f3f3f; stroke-width: 1.25"/>
    </defs>
    <g clip-path="url(#p0459fbc5f1)">
     <use xlink:href="#m23639eb93a" x="0" y="720" style="fill: #3274a1; stroke: #3f3f3f; stroke-width: 1.25"/>
    </g>
   </g>
   <g id="PolyCollection_5">
    <defs>
     <path id="m1abc7444ca" d="M 682.207785 -125.299162 
L 682.192215 -125.299162 
L 682.175785 -129.795818 
L 682.141453 -134.292473 
L 682.087081 -138.789129 
L 682.019603 -143.285785 
L 681.946021 -147.782441 
L 681.853258 -152.279097 
L 681.698341 -156.775753 
L 681.425526 -161.272408 
L 680.991147 -165.769064 
L 680.371305 -170.26572 
L 679.564655 -174.762376 
L 678.599347 -179.259032 
L 677.521569 -183.755688 
L 676.364914 -188.252343 
L 675.131909 -192.748999 
L 673.803325 -197.245655 
L 672.366611 -201.742311 
L 670.836166 -206.238967 
L 669.223321 -210.735623 
L 667.477391 -215.232279 
L 665.514746 -219.728934 
L 663.347304 -224.22559 
L 661.125798 -228.722246 
L 659.012271 -233.218902 
L 657.030698 -237.715558 
L 655.058189 -242.212214 
L 652.973757 -246.708869 
L 650.799861 -251.205525 
L 648.676357 -255.702181 
L 646.750451 -260.198837 
L 645.101102 -264.695493 
L 643.695387 -269.192149 
L 642.423903 -273.688804 
L 641.213915 -278.18546 
L 640.099041 -282.682116 
L 639.210326 -287.178772 
L 638.728385 -291.675428 
L 638.793829 -296.172084 
L 639.388255 -300.66874 
L 640.308204 -305.165395 
L 641.329922 -309.662051 
L 642.37675 -314.158707 
L 643.46632 -318.655363 
L 644.594264 -323.152019 
L 645.764226 -327.648675 
L 647.040488 -332.14533 
L 648.48049 -336.641986 
L 650.055042 -341.138642 
L 651.674011 -345.635298 
L 653.266487 -350.131954 
L 654.829907 -354.62861 
L 656.420214 -359.125265 
L 658.09617 -363.621921 
L 659.864844 -368.118577 
L 661.671494 -372.615233 
L 663.421345 -377.111889 
L 665.01234 -381.608545 
L 666.409919 -386.105201 
L 667.702646 -390.601856 
L 669.00905 -395.098512 
L 670.336753 -399.595168 
L 671.588155 -404.091824 
L 672.66469 -408.58848 
L 673.545021 -413.085136 
L 674.316481 -417.581791 
L 675.120877 -422.078447 
L 676.024393 -426.575103 
L 676.959415 -431.071759 
L 677.800013 -435.568415 
L 678.466689 -440.065071 
L 678.972675 -444.561726 
L 679.395104 -449.058382 
L 679.80004 -453.555038 
L 680.197421 -458.051694 
L 680.562332 -462.54835 
L 680.872959 -467.045006 
L 681.123892 -471.541661 
L 681.325641 -476.038317 
L 681.498308 -480.534973 
L 681.655415 -485.031629 
L 681.794571 -489.528285 
L 681.907212 -494.024941 
L 681.988166 -498.521597 
L 682.035262 -503.018252 
L 682.053609 -507.514908 
L 682.059243 -512.011564 
L 682.066295 -516.50822 
L 682.07543 -521.004876 
L 682.083059 -525.501532 
L 682.092602 -529.998187 
L 682.109072 -534.494843 
L 682.129822 -538.991499 
L 682.147296 -543.488155 
L 682.158325 -547.984811 
L 682.166388 -552.481467 
L 682.175475 -556.978122 
L 682.185306 -561.474778 
L 682.19313 -565.971434 
L 682.197556 -570.46809 
L 682.202444 -570.46809 
L 682.202444 -570.46809 
L 682.20687 -565.971434 
L 682.214694 -561.474778 
L 682.224525 -556.978122 
L 682.233612 -552.481467 
L 682.241675 -547.984811 
L 682.252704 -543.488155 
L 682.270178 -538.991499 
L 682.290928 -534.494843 
L 682.307398 -529.998187 
L 682.316941 -525.501532 
L 682.32457 -521.004876 
L 682.333705 -516.50822 
L 682.340757 -512.011564 
L 682.346391 -507.514908 
L 682.364738 -503.018252 
L 682.411834 -498.521597 
L 682.492788 -494.024941 
L 682.605429 -489.528285 
L 682.744585 -485.031629 
L 682.901692 -480.534973 
L 683.074359 -476.038317 
L 683.276108 -471.541661 
L 683.527041 -467.045006 
L 683.837668 -462.54835 
L 684.202579 -458.051694 
L 684.59996 -453.555038 
L 685.004896 -449.058382 
L 685.427325 -444.561726 
L 685.933311 -440.065071 
L 686.599987 -435.568415 
L 687.440585 -431.071759 
L 688.375607 -426.575103 
L 689.279123 -422.078447 
L 690.083519 -417.581791 
L 690.854979 -413.085136 
L 691.73531 -408.58848 
L 692.811845 -404.091824 
L 694.063247 -399.595168 
L 695.39095 -395.098512 
L 696.697354 -390.601856 
L 697.990081 -386.105201 
L 699.38766 -381.608545 
L 700.978655 -377.111889 
L 702.728506 -372.615233 
L 704.535156 -368.118577 
L 706.30383 -363.621921 
L 707.979786 -359.125265 
L 709.570093 -354.62861 
L 711.133513 -350.131954 
L 712.725989 -345.635298 
L 714.344958 -341.138642 
L 715.91951 -336.641986 
L 717.359512 -332.14533 
L 718.635774 -327.648675 
L 719.805736 -323.152019 
L 720.93368 -318.655363 
L 722.02325 -314.158707 
L 723.070078 -309.662051 
L 724.091796 -305.165395 
L 725.011745 -300.66874 
L 725.606171 -296.172084 
L 725.671615 -291.675428 
L 725.189674 -287.178772 
L 724.300959 -282.682116 
L 723.186085 -278.18546 
L 721.976097 -273.688804 
L 720.704613 -269.192149 
L 719.298898 -264.695493 
L 717.649549 -260.198837 
L 715.723643 -255.702181 
L 713.600139 -251.205525 
L 711.426243 -246.708869 
L 709.341811 -242.212214 
L 707.369302 -237.715558 
L 705.387729 -233.218902 
L 703.274202 -228.722246 
L 701.052696 -224.22559 
L 698.885254 -219.728934 
L 696.922609 -215.232279 
L 695.176679 -210.735623 
L 693.563834 -206.238967 
L 692.033389 -201.742311 
L 690.596675 -197.245655 
L 689.268091 -192.748999 
L 688.035086 -188.252343 
L 686.878431 -183.755688 
L 685.800653 -179.259032 
L 684.835345 -174.762376 
L 684.028695 -170.26572 
L 683.408853 -165.769064 
L 682.974474 -161.272408 
L 682.701659 -156.775753 
L 682.546742 -152.279097 
L 682.453979 -147.782441 
L 682.380397 -143.285785 
L 682.312919 -138.789129 
L 682.258547 -134.292473 
L 682.224215 -129.795818 
L 682.207785 -125.299162 
z
" style="stroke: #3f3f3f; stroke-width: 1.25"/>
    </defs>
    <g clip-path="url(#p0459fbc5f1)">
     <use xlink:href="#m1abc7444ca" x="0" y="720" style="fill: #3274a1; stroke: #3f3f3f; stroke-width: 1.25"/>
    </g>
   </g>
   <g id="PolyCollection_6">
    <defs>
     <path id="m0bf198b959" d="M 793.807449 -125.269455 
L 793.792551 -125.269455 
L 793.777586 -129.699585 
L 793.747166 -134.129714 
L 793.699725 -138.559844 
L 793.640935 -142.989974 
L 793.576821 -147.420103 
L 793.497367 -151.850233 
L 793.363524 -156.280362 
L 793.115202 -160.710492 
L 792.698728 -165.140622 
L 792.091572 -169.570751 
L 791.307408 -174.000881 
L 790.380083 -178.431011 
L 789.344638 -182.86114 
L 788.23691 -187.29127 
L 787.090991 -191.721399 
L 785.908082 -196.151529 
L 784.639482 -200.581659 
L 783.227631 -205.011788 
L 781.652109 -209.441918 
L 779.910842 -213.872048 
L 777.981707 -218.302177 
L 775.856061 -222.732307 
L 773.607442 -227.162436 
L 771.378362 -231.592566 
L 769.279176 -236.022696 
L 767.303289 -240.452825 
L 765.35502 -244.882955 
L 763.377863 -249.313085 
L 761.421486 -253.743214 
L 759.56355 -258.173344 
L 757.832524 -262.603473 
L 756.22284 -267.033603 
L 754.730518 -271.463733 
L 753.374667 -275.893862 
L 752.195043 -280.323992 
L 751.235226 -284.754122 
L 750.587389 -289.184251 
L 750.434744 -293.614381 
L 750.90859 -298.04451 
L 751.860576 -302.47464 
L 752.913272 -306.90477 
L 753.80605 -311.334899 
L 754.58104 -315.765029 
L 755.41566 -320.195159 
L 756.427967 -324.625288 
L 757.660043 -329.055418 
L 759.107874 -333.485547 
L 760.710084 -337.915677 
L 762.336645 -342.345807 
L 763.826185 -346.775936 
L 765.10359 -351.206066 
L 766.297197 -355.636196 
L 767.668061 -360.066325 
L 769.354115 -364.496455 
L 771.226402 -368.926584 
L 773.045115 -373.356714 
L 774.696122 -377.786844 
L 776.224214 -382.216973 
L 777.710804 -386.647103 
L 779.189002 -391.077233 
L 780.641931 -395.507362 
L 782.030769 -399.937492 
L 783.304789 -404.367622 
L 784.402299 -408.797751 
L 785.300498 -413.227881 
L 786.07154 -417.65801 
L 786.829122 -422.08814 
L 787.620314 -426.51827 
L 788.409594 -430.948399 
L 789.137596 -435.378529 
L 789.763723 -439.808659 
L 790.28759 -444.238788 
L 790.748952 -448.668918 
L 791.190148 -453.099047 
L 791.622731 -457.529177 
L 792.03217 -461.959307 
L 792.395694 -466.389436 
L 792.693885 -470.819566 
L 792.919809 -475.249696 
L 793.084045 -479.679825 
L 793.210187 -484.109955 
L 793.322139 -488.540084 
L 793.430647 -492.970214 
L 793.527962 -497.400344 
L 793.59744 -501.830473 
L 793.632876 -506.260603 
L 793.646727 -510.690733 
L 793.656176 -515.120862 
L 793.667146 -519.550992 
L 793.678481 -523.981121 
L 793.693616 -528.411251 
L 793.71689 -532.841381 
L 793.743587 -537.27151 
L 793.764157 -541.70164 
L 793.775706 -546.13177 
L 793.782679 -550.561899 
L 793.788937 -554.992029 
L 793.794389 -559.422158 
L 793.797848 -563.852288 
L 793.802152 -563.852288 
L 793.802152 -563.852288 
L 793.805611 -559.422158 
L 793.811063 -554.992029 
L 793.817321 -550.561899 
L 793.824294 -546.13177 
L 793.835843 -541.70164 
L 793.856413 -537.27151 
L 793.88311 -532.841381 
L 793.906384 -528.411251 
L 793.921519 -523.981121 
L 793.932854 -519.550992 
L 793.943824 -515.120862 
L 793.953273 -510.690733 
L 793.967124 -506.260603 
L 794.00256 -501.830473 
L 794.072038 -497.400344 
L 794.169353 -492.970214 
L 794.277861 -488.540084 
L 794.389813 -484.109955 
L 794.515955 -479.679825 
L 794.680191 -475.249696 
L 794.906115 -470.819566 
L 795.204306 -466.389436 
L 795.56783 -461.959307 
L 795.977269 -457.529177 
L 796.409852 -453.099047 
L 796.851048 -448.668918 
L 797.31241 -444.238788 
L 797.836277 -439.808659 
L 798.462404 -435.378529 
L 799.190406 -430.948399 
L 799.979686 -426.51827 
L 800.770878 -422.08814 
L 801.52846 -417.65801 
L 802.299502 -413.227881 
L 803.197701 -408.797751 
L 804.295211 -404.367622 
L 805.569231 -399.937492 
L 806.958069 -395.507362 
L 808.410998 -391.077233 
L 809.889196 -386.647103 
L 811.375786 -382.216973 
L 812.903878 -377.786844 
L 814.554885 -373.356714 
L 816.373598 -368.926584 
L 818.245885 -364.496455 
L 819.931939 -360.066325 
L 821.302803 -355.636196 
L 822.49641 -351.206066 
L 823.773815 -346.775936 
L 825.263355 -342.345807 
L 826.889916 -337.915677 
L 828.492126 -333.485547 
L 829.939957 -329.055418 
L 831.172033 -324.625288 
L 832.18434 -320.195159 
L 833.01896 -315.765029 
L 833.79395 -311.334899 
L 834.686728 -306.90477 
L 835.739424 -302.47464 
L 836.69141 -298.04451 
L 837.165256 -293.614381 
L 837.012611 -289.184251 
L 836.364774 -284.754122 
L 835.404957 -280.323992 
L 834.225333 -275.893862 
L 832.869482 -271.463733 
L 831.37716 -267.033603 
L 829.767476 -262.603473 
L 828.03645 -258.173344 
L 826.178514 -253.743214 
L 824.222137 -249.313085 
L 822.24498 -244.882955 
L 820.296711 -240.452825 
L 818.320824 -236.022696 
L 816.221638 -231.592566 
L 813.992558 -227.162436 
L 811.743939 -222.732307 
L 809.618293 -218.302177 
L 807.689158 -213.872048 
L 805.947891 -209.441918 
L 804.372369 -205.011788 
L 802.960518 -200.581659 
L 801.691918 -196.151529 
L 800.509009 -191.721399 
L 799.36309 -187.29127 
L 798.255362 -182.86114 
L 797.219917 -178.431011 
L 796.292592 -174.000881 
L 795.508428 -169.570751 
L 794.901272 -165.140622 
L 794.484798 -160.710492 
L 794.236476 -156.280362 
L 794.102633 -151.850233 
L 794.023179 -147.420103 
L 793.959065 -142.989974 
L 793.900275 -138.559844 
L 793.852834 -134.129714 
L 793.822414 -129.699585 
L 793.807449 -125.269455 
z
" style="stroke: #3f3f3f; stroke-width: 1.25"/>
    </defs>
    <g clip-path="url(#p0459fbc5f1)">
     <use xlink:href="#m0bf198b959" x="0" y="720" style="fill: #3274a1; stroke: #3f3f3f; stroke-width: 1.25"/>
    </g>
   </g>
   <g id="PolyCollection_7">
    <defs>
     <path id="mf6caee4b76" d="M 905.402238 -113.817494 
L 905.397762 -113.817494 
L 905.393749 -118.363944 
L 905.386264 -122.910393 
L 905.374453 -127.456843 
L 905.355991 -132.003293 
L 905.326133 -136.549743 
L 905.280776 -141.096193 
L 905.219214 -145.642642 
L 905.138589 -150.189092 
L 905.020989 -154.735542 
L 904.827561 -159.281992 
L 904.511033 -163.828442 
L 904.034974 -168.374892 
L 903.381827 -172.921341 
L 902.55517 -177.467791 
L 901.590521 -182.014241 
L 900.550921 -186.560691 
L 899.465923 -191.107141 
L 898.267943 -195.65359 
L 896.846231 -200.20004 
L 895.181327 -204.74649 
L 893.366763 -209.29294 
L 891.473665 -213.83939 
L 889.454804 -218.385839 
L 887.233533 -222.932289 
L 884.856061 -227.478739 
L 882.505744 -232.025189 
L 880.362189 -236.571639 
L 878.442462 -241.118088 
L 876.596886 -245.664538 
L 874.703145 -250.210988 
L 872.811626 -254.757438 
L 871.04495 -259.303888 
L 869.437713 -263.850337 
L 867.933795 -268.396787 
L 866.489289 -272.943237 
L 865.112596 -277.489687 
L 863.825643 -282.036137 
L 862.723415 -286.582587 
L 862.088187 -291.129036 
L 862.237344 -295.675486 
L 863.162302 -300.221936 
L 864.452188 -304.768386 
L 865.653549 -309.314836 
L 866.617851 -313.861285 
L 867.459418 -318.407735 
L 868.319656 -322.954185 
L 869.276182 -327.500635 
L 870.380498 -332.047085 
L 871.652544 -336.593534 
L 873.018142 -341.139984 
L 874.320598 -345.686434 
L 875.476471 -350.232884 
L 876.62447 -354.779334 
L 878.048203 -359.325783 
L 879.903037 -363.872233 
L 882.046176 -368.418683 
L 884.169107 -372.965133 
L 886.055618 -377.511583 
L 887.680845 -382.058032 
L 889.1436 -386.604482 
L 890.563115 -391.150932 
L 891.988845 -395.697382 
L 893.377596 -400.243832 
L 894.655557 -404.790282 
L 895.777661 -409.336731 
L 896.749032 -413.883181 
L 897.624543 -418.429631 
L 898.467663 -422.976081 
L 899.299812 -427.522531 
L 900.092713 -432.06898 
L 900.791635 -436.61543 
L 901.364039 -441.16188 
L 901.849356 -445.70833 
L 902.325774 -450.25478 
L 902.821639 -454.801229 
L 903.301214 -459.347679 
L 903.722872 -463.894129 
L 904.070325 -468.440579 
L 904.341005 -472.987029 
L 904.538688 -477.533478 
L 904.681118 -482.079928 
L 904.797912 -486.626378 
L 904.911879 -491.172828 
L 905.022727 -495.719278 
L 905.111067 -500.265727 
L 905.162072 -504.812177 
L 905.185327 -509.358627 
L 905.205298 -513.905077 
L 905.233592 -518.451527 
L 905.262737 -522.997976 
L 905.28695 -527.544426 
L 905.311422 -532.090876 
L 905.338317 -536.637326 
L 905.360726 -541.183776 
L 905.374148 -545.730226 
L 905.382026 -550.276675 
L 905.388642 -554.823125 
L 905.394298 -559.369575 
L 905.397855 -563.916025 
L 905.402145 -563.916025 
L 905.402145 -563.916025 
L 905.405702 -559.369575 
L 905.411358 -554.823125 
L 905.417974 -550.276675 
L 905.425852 -545.730226 
L 905.439274 -541.183776 
L 905.461683 -536.637326 
L 905.488578 -532.090876 
L 905.51305 -527.544426 
L 905.537263 -522.997976 
L 905.566408 -518.451527 
L 905.594702 -513.905077 
L 905.614673 -509.358627 
L 905.637928 -504.812177 
L 905.688933 -500.265727 
L 905.777273 -495.719278 
L 905.888121 -491.172828 
L 906.002088 -486.626378 
L 906.118882 -482.079928 
L 906.261312 -477.533478 
L 906.458995 -472.987029 
L 906.729675 -468.440579 
L 907.077128 -463.894129 
L 907.498786 -459.347679 
L 907.978361 -454.801229 
L 908.474226 -450.25478 
L 908.950644 -445.70833 
L 909.435961 -441.16188 
L 910.008365 -436.61543 
L 910.707287 -432.06898 
L 911.500188 -427.522531 
L 912.332337 -422.976081 
L 913.175457 -418.429631 
L 914.050968 -413.883181 
L 915.022339 -409.336731 
L 916.144443 -404.790282 
L 917.422404 -400.243832 
L 918.811155 -395.697382 
L 920.236885 -391.150932 
L 921.6564 -386.604482 
L 923.119155 -382.058032 
L 924.744382 -377.511583 
L 926.630893 -372.965133 
L 928.753824 -368.418683 
L 930.896963 -363.872233 
L 932.751797 -359.325783 
L 934.17553 -354.779334 
L 935.323529 -350.232884 
L 936.479402 -345.686434 
L 937.781858 -341.139984 
L 939.147456 -336.593534 
L 940.419502 -332.047085 
L 941.523818 -327.500635 
L 942.480344 -322.954185 
L 943.340582 -318.407735 
L 944.182149 -313.861285 
L 945.146451 -309.314836 
L 946.347812 -304.768386 
L 947.637698 -300.221936 
L 948.562656 -295.675486 
L 948.711813 -291.129036 
L 948.076585 -286.582587 
L 946.974357 -282.036137 
L 945.687404 -277.489687 
L 944.310711 -272.943237 
L 942.866205 -268.396787 
L 941.362287 -263.850337 
L 939.75505 -259.303888 
L 937.988374 -254.757438 
L 936.096855 -250.210988 
L 934.203114 -245.664538 
L 932.357538 -241.118088 
L 930.437811 -236.571639 
L 928.294256 -232.025189 
L 925.943939 -227.478739 
L 923.566467 -222.932289 
L 921.345196 -218.385839 
L 919.326335 -213.83939 
L 917.433237 -209.29294 
L 915.618673 -204.74649 
L 913.953769 -200.20004 
L 912.532057 -195.65359 
L 911.334077 -191.107141 
L 910.249079 -186.560691 
L 909.209479 -182.014241 
L 908.24483 -177.467791 
L 907.418173 -172.921341 
L 906.765026 -168.374892 
L 906.288967 -163.828442 
L 905.972439 -159.281992 
L 905.779011 -154.735542 
L 905.661411 -150.189092 
L 905.580786 -145.642642 
L 905.519224 -141.096193 
L 905.473867 -136.549743 
L 905.444009 -132.003293 
L 905.425547 -127.456843 
L 905.413736 -122.910393 
L 905.406251 -118.363944 
L 905.402238 -113.817494 
z
" style="stroke: #3f3f3f; stroke-width: 1.25"/>
    </defs>
    <g clip-path="url(#p0459fbc5f1)">
     <use xlink:href="#mf6caee4b76" x="0" y="720" style="fill: #3274a1; stroke: #3f3f3f; stroke-width: 1.25"/>
    </g>
   </g>
   <g id="PolyCollection_8">
    <defs>
     <path id="m526ee7ebbc" d="M 1017.002176 -113.871435 
L 1016.997824 -113.871435 
L 1016.994177 -118.381557 
L 1016.988218 -122.891679 
L 1016.981053 -127.401802 
L 1016.97295 -131.911924 
L 1016.959732 -136.422046 
L 1016.932484 -140.932169 
L 1016.880601 -145.442291 
L 1016.793131 -149.952413 
L 1016.65646 -154.462536 
L 1016.449768 -158.972658 
L 1016.138834 -163.48278 
L 1015.676013 -167.992903 
L 1015.02084 -172.503025 
L 1014.171898 -177.013147 
L 1013.173641 -181.52327 
L 1012.081198 -186.033392 
L 1010.910512 -190.543514 
L 1009.624657 -195.053637 
L 1008.177792 -199.563759 
L 1006.562423 -204.073881 
L 1004.79297 -208.584004 
L 1002.859049 -213.094126 
L 1000.733715 -217.604248 
L 998.43641 -222.114371 
L 996.067989 -226.624493 
L 993.763299 -231.134615 
L 991.602248 -235.644738 
L 989.557235 -240.15486 
L 987.528861 -244.664982 
L 985.473878 -249.175105 
L 983.480643 -253.685227 
L 981.660834 -258.195349 
L 980.023774 -262.705472 
L 978.510492 -267.215594 
L 977.095231 -271.725716 
L 975.826653 -276.235839 
L 974.780215 -280.745961 
L 973.99869 -285.256083 
L 973.541542 -289.766206 
L 973.55406 -294.276328 
L 974.155726 -298.78645 
L 975.230162 -303.296572 
L 976.429793 -307.806695 
L 977.460289 -312.316817 
L 978.312263 -316.826939 
L 979.20395 -321.337062 
L 980.365214 -325.847184 
L 981.851813 -330.357306 
L 983.504184 -334.867429 
L 985.086888 -339.377551 
L 986.484192 -343.887673 
L 987.78046 -348.397796 
L 989.159075 -352.907918 
L 990.725042 -357.41804 
L 992.452556 -361.928163 
L 994.281775 -366.438285 
L 996.178404 -370.948407 
L 998.07423 -375.45853 
L 999.832755 -379.968652 
L 1001.357136 -384.478774 
L 1002.700171 -388.988897 
L 1003.979335 -393.499019 
L 1005.215072 -398.009141 
L 1006.342834 -402.519264 
L 1007.340841 -407.029386 
L 1008.265818 -411.539508 
L 1009.183775 -416.049631 
L 1010.095422 -420.559753 
L 1010.934541 -425.069875 
L 1011.651308 -429.579998 
L 1012.268616 -434.09012 
L 1012.831669 -438.600242 
L 1013.347887 -443.110365 
L 1013.806307 -447.620487 
L 1014.220603 -452.130609 
L 1014.624961 -456.640732 
L 1015.035908 -461.150854 
L 1015.431569 -465.660976 
L 1015.768531 -470.171099 
L 1016.014521 -474.681221 
L 1016.171269 -479.191343 
L 1016.274912 -483.701466 
L 1016.372425 -488.211588 
L 1016.489286 -492.72171 
L 1016.613553 -497.231832 
L 1016.711063 -501.741955 
L 1016.760343 -506.252077 
L 1016.77431 -510.762199 
L 1016.785183 -515.272322 
L 1016.810415 -519.782444 
L 1016.842823 -524.292566 
L 1016.871825 -528.802689 
L 1016.897211 -533.312811 
L 1016.920979 -537.822933 
L 1016.942111 -542.333056 
L 1016.960566 -546.843178 
L 1016.976741 -551.3533 
L 1016.988998 -555.863423 
L 1016.996026 -560.373545 
L 1017.003974 -560.373545 
L 1017.003974 -560.373545 
L 1017.011002 -555.863423 
L 1017.023259 -551.3533 
L 1017.039434 -546.843178 
L 1017.057889 -542.333056 
L 1017.079021 -537.822933 
L 1017.102789 -533.312811 
L 1017.128175 -528.802689 
L 1017.157177 -524.292566 
L 1017.189585 -519.782444 
L 1017.214817 -515.272322 
L 1017.22569 -510.762199 
L 1017.239657 -506.252077 
L 1017.288937 -501.741955 
L 1017.386447 -497.231832 
L 1017.510714 -492.72171 
L 1017.627575 -488.211588 
L 1017.725088 -483.701466 
L 1017.828731 -479.191343 
L 1017.985479 -474.681221 
L 1018.231469 -470.171099 
L 1018.568431 -465.660976 
L 1018.964092 -461.150854 
L 1019.375039 -456.640732 
L 1019.779397 -452.130609 
L 1020.193693 -447.620487 
L 1020.652113 -443.110365 
L 1021.168331 -438.600242 
L 1021.731384 -434.09012 
L 1022.348692 -429.579998 
L 1023.065459 -425.069875 
L 1023.904578 -420.559753 
L 1024.816225 -416.049631 
L 1025.734182 -411.539508 
L 1026.659159 -407.029386 
L 1027.657166 -402.519264 
L 1028.784928 -398.009141 
L 1030.020665 -393.499019 
L 1031.299829 -388.988897 
L 1032.642864 -384.478774 
L 1034.167245 -379.968652 
L 1035.92577 -375.45853 
L 1037.821596 -370.948407 
L 1039.718225 -366.438285 
L 1041.547444 -361.928163 
L 1043.274958 -357.41804 
L 1044.840925 -352.907918 
L 1046.21954 -348.397796 
L 1047.515808 -343.887673 
L 1048.913112 -339.377551 
L 1050.495816 -334.867429 
L 1052.148187 -330.357306 
L 1053.634786 -325.847184 
L 1054.79605 -321.337062 
L 1055.687737 -316.826939 
L 1056.539711 -312.316817 
L 1057.570207 -307.806695 
L 1058.769838 -303.296572 
L 1059.844274 -298.78645 
L 1060.44594 -294.276328 
L 1060.458458 -289.766206 
L 1060.00131 -285.256083 
L 1059.219785 -280.745961 
L 1058.173347 -276.235839 
L 1056.904769 -271.725716 
L 1055.489508 -267.215594 
L 1053.976226 -262.705472 
L 1052.339166 -258.195349 
L 1050.519357 -253.685227 
L 1048.526122 -249.175105 
L 1046.471139 -244.664982 
L 1044.442765 -240.15486 
L 1042.397752 -235.644738 
L 1040.236701 -231.134615 
L 1037.932011 -226.624493 
L 1035.56359 -222.114371 
L 1033.266285 -217.604248 
L 1031.140951 -213.094126 
L 1029.20703 -208.584004 
L 1027.437577 -204.073881 
L 1025.822208 -199.563759 
L 1024.375343 -195.053637 
L 1023.089488 -190.543514 
L 1021.918802 -186.033392 
L 1020.826359 -181.52327 
L 1019.828102 -177.013147 
L 1018.97916 -172.503025 
L 1018.323987 -167.992903 
L 1017.861166 -163.48278 
L 1017.550232 -158.972658 
L 1017.34354 -154.462536 
L 1017.206869 -149.952413 
L 1017.119399 -145.442291 
L 1017.067516 -140.932169 
L 1017.040268 -136.422046 
L 1017.02705 -131.911924 
L 1017.018947 -127.401802 
L 1017.011782 -122.891679 
L 1017.005823 -118.381557 
L 1017.002176 -113.871435 
z
" style="stroke: #3f3f3f; stroke-width: 1.25"/>
    </defs>
    <g clip-path="url(#p0459fbc5f1)">
     <use xlink:href="#m526ee7ebbc" x="0" y="720" style="fill: #3274a1; stroke: #3f3f3f; stroke-width: 1.25"/>
    </g>
   </g>
   <g id="PolyCollection_9">
    <defs>
     <path id="m6e76003340" d="M 1128.60505 -134.160289 
L 1128.59495 -134.160289 
L 1128.583975 -138.490199 
L 1128.558611 -142.820108 
L 1128.509679 -147.150017 
L 1128.426268 -151.479926 
L 1128.293775 -155.809835 
L 1128.090802 -160.139744 
L 1127.78649 -164.469653 
L 1127.342475 -168.799563 
L 1126.728439 -173.129472 
L 1125.947458 -177.459381 
L 1125.043426 -181.78929 
L 1124.073699 -186.119199 
L 1123.069154 -190.449108 
L 1122.009836 -194.779017 
L 1120.828613 -199.108927 
L 1119.451664 -203.438836 
L 1117.851906 -207.768745 
L 1116.059202 -212.098654 
L 1114.12146 -216.428563 
L 1112.079151 -220.758472 
L 1109.986489 -225.088381 
L 1107.926031 -229.418291 
L 1105.963297 -233.7482 
L 1104.071183 -238.078109 
L 1102.106944 -242.408018 
L 1099.917878 -246.737927 
L 1097.520448 -251.067836 
L 1095.134719 -255.397746 
L 1093.006417 -259.727655 
L 1091.237447 -264.057564 
L 1089.780961 -268.387473 
L 1088.536143 -272.717382 
L 1087.440782 -277.047291 
L 1086.493705 -281.3772 
L 1085.720429 -285.70711 
L 1085.183373 -290.037019 
L 1085.020209 -294.366928 
L 1085.359136 -298.696837 
L 1086.129611 -303.026746 
L 1087.025523 -307.356655 
L 1087.762388 -311.686564 
L 1088.37673 -316.016474 
L 1089.185333 -320.346383 
L 1090.427376 -324.676292 
L 1092.024631 -329.006201 
L 1093.706487 -333.33611 
L 1095.261688 -337.666019 
L 1096.631768 -341.995929 
L 1097.879394 -346.325838 
L 1099.132142 -350.655747 
L 1100.500697 -354.985656 
L 1102.040059 -359.315565 
L 1103.7935 -363.645474 
L 1105.776927 -367.975383 
L 1107.861087 -372.305293 
L 1109.764887 -376.635202 
L 1111.269765 -380.965111 
L 1112.431075 -385.29502 
L 1113.522083 -389.624929 
L 1114.762687 -393.954838 
L 1116.138424 -398.284747 
L 1117.479524 -402.614657 
L 1118.645827 -406.944566 
L 1119.611528 -411.274475 
L 1120.439349 -415.604384 
L 1121.214459 -419.934293 
L 1121.985893 -424.264202 
L 1122.755818 -428.594111 
L 1123.501434 -432.924021 
L 1124.188259 -437.25393 
L 1124.784557 -441.583839 
L 1125.283711 -445.913748 
L 1125.705734 -450.243657 
L 1126.077997 -454.573566 
L 1126.420092 -458.903476 
L 1126.737178 -463.233385 
L 1127.021293 -467.563294 
L 1127.263243 -471.893203 
L 1127.463721 -476.223112 
L 1127.6337 -480.553021 
L 1127.788432 -484.88293 
L 1127.939313 -489.21284 
L 1128.086644 -493.542749 
L 1128.220044 -497.872658 
L 1128.325935 -502.202567 
L 1128.396066 -506.532476 
L 1128.43481 -510.862385 
L 1128.458618 -515.192294 
L 1128.482302 -519.522204 
L 1128.506834 -523.852113 
L 1128.524758 -528.182022 
L 1128.532991 -532.511931 
L 1128.535756 -536.84184 
L 1128.539594 -541.171749 
L 1128.548959 -545.501659 
L 1128.563654 -549.831568 
L 1128.57911 -554.161477 
L 1128.590566 -558.491386 
L 1128.596705 -562.821295 
L 1128.603295 -562.821295 
L 1128.603295 -562.821295 
L 1128.609434 -558.491386 
L 1128.62089 -554.161477 
L 1128.636346 -549.831568 
L 1128.651041 -545.501659 
L 1128.660406 -541.171749 
L 1128.664244 -536.84184 
L 1128.667009 -532.511931 
L 1128.675242 -528.182022 
L 1128.693166 -523.852113 
L 1128.717698 -519.522204 
L 1128.741382 -515.192294 
L 1128.76519 -510.862385 
L 1128.803934 -506.532476 
L 1128.874065 -502.202567 
L 1128.979956 -497.872658 
L 1129.113356 -493.542749 
L 1129.260687 -489.21284 
L 1129.411568 -484.88293 
L 1129.5663 -480.553021 
L 1129.736279 -476.223112 
L 1129.936757 -471.893203 
L 1130.178707 -467.563294 
L 1130.462822 -463.233385 
L 1130.779908 -458.903476 
L 1131.122003 -454.573566 
L 1131.494266 -450.243657 
L 1131.916289 -445.913748 
L 1132.415443 -441.583839 
L 1133.011741 -437.25393 
L 1133.698566 -432.924021 
L 1134.444182 -428.594111 
L 1135.214107 -424.264202 
L 1135.985541 -419.934293 
L 1136.760651 -415.604384 
L 1137.588472 -411.274475 
L 1138.554173 -406.944566 
L 1139.720476 -402.614657 
L 1141.061576 -398.284747 
L 1142.437313 -393.954838 
L 1143.677917 -389.624929 
L 1144.768925 -385.29502 
L 1145.930235 -380.965111 
L 1147.435113 -376.635202 
L 1149.338913 -372.305293 
L 1151.423073 -367.975383 
L 1153.4065 -363.645474 
L 1155.159941 -359.315565 
L 1156.699303 -354.985656 
L 1158.067858 -350.655747 
L 1159.320606 -346.325838 
L 1160.568232 -341.995929 
L 1161.938312 -337.666019 
L 1163.493513 -333.33611 
L 1165.175369 -329.006201 
L 1166.772624 -324.676292 
L 1168.014667 -320.346383 
L 1168.82327 -316.016474 
L 1169.437612 -311.686564 
L 1170.174477 -307.356655 
L 1171.070389 -303.026746 
L 1171.840864 -298.696837 
L 1172.179791 -294.366928 
L 1172.016627 -290.037019 
L 1171.479571 -285.70711 
L 1170.706295 -281.3772 
L 1169.759218 -277.047291 
L 1168.663857 -272.717382 
L 1167.419039 -268.387473 
L 1165.962553 -264.057564 
L 1164.193583 -259.727655 
L 1162.065281 -255.397746 
L 1159.679552 -251.067836 
L 1157.282122 -246.737927 
L 1155.093056 -242.408018 
L 1153.128817 -238.078109 
L 1151.236703 -233.7482 
L 1149.273969 -229.418291 
L 1147.213511 -225.088381 
L 1145.120849 -220.758472 
L 1143.07854 -216.428563 
L 1141.140798 -212.098654 
L 1139.348094 -207.768745 
L 1137.748336 -203.438836 
L 1136.371387 -199.108927 
L 1135.190164 -194.779017 
L 1134.130846 -190.449108 
L 1133.126301 -186.119199 
L 1132.156574 -181.78929 
L 1131.252542 -177.459381 
L 1130.471561 -173.129472 
L 1129.857525 -168.799563 
L 1129.41351 -164.469653 
L 1129.109198 -160.139744 
L 1128.906225 -155.809835 
L 1128.773732 -151.479926 
L 1128.690321 -147.150017 
L 1128.641389 -142.820108 
L 1128.616025 -138.490199 
L 1128.60505 -134.160289 
z
" style="stroke: #3f3f3f; stroke-width: 1.25"/>
    </defs>
    <g clip-path="url(#p0459fbc5f1)">
     <use xlink:href="#m6e76003340" x="0" y="720" style="fill: #3274a1; stroke: #3f3f3f; stroke-width: 1.25"/>
    </g>
   </g>
   <g id="PolyCollection_10">
    <defs>
     <path id="mb603b6c97f" d="M 1240.205332 -135.764012 
L 1240.194668 -135.764012 
L 1240.180558 -140.538112 
L 1240.144659 -145.312213 
L 1240.072554 -150.086314 
L 1239.950443 -154.860415 
L 1239.758881 -159.634516 
L 1239.459955 -164.408617 
L 1239.000745 -169.182718 
L 1238.346465 -173.956819 
L 1237.519909 -178.73092 
L 1236.597466 -183.505021 
L 1235.638784 -188.279121 
L 1234.608805 -193.053222 
L 1233.383984 -197.827323 
L 1231.850742 -202.601424 
L 1229.995175 -207.375525 
L 1227.891566 -212.149626 
L 1225.628402 -216.923727 
L 1223.273884 -221.697828 
L 1220.89375 -226.471929 
L 1218.555905 -231.246029 
L 1216.297663 -236.02013 
L 1214.08778 -240.794231 
L 1211.8318 -245.568332 
L 1209.465762 -250.342433 
L 1207.047291 -255.116534 
L 1204.710351 -259.890635 
L 1202.577109 -264.664736 
L 1200.739282 -269.438837 
L 1199.266106 -274.212937 
L 1198.201289 -278.987038 
L 1197.526615 -283.761139 
L 1197.164866 -288.53524 
L 1197.123031 -293.309341 
L 1197.56157 -298.083442 
L 1198.535254 -302.857543 
L 1199.726554 -307.631644 
L 1200.690312 -312.405745 
L 1201.375947 -317.179846 
L 1202.155566 -321.953946 
L 1203.314892 -326.728047 
L 1204.78778 -331.502148 
L 1206.381301 -336.276249 
L 1207.984616 -341.05035 
L 1209.565003 -345.824451 
L 1211.123317 -350.598552 
L 1212.678856 -355.372653 
L 1214.312078 -360.146754 
L 1216.162053 -364.920854 
L 1218.244678 -369.694955 
L 1220.314475 -374.469056 
L 1222.03867 -379.243157 
L 1223.317248 -384.017258 
L 1224.389088 -388.791359 
L 1225.599313 -393.56546 
L 1227.058647 -398.339561 
L 1228.572959 -403.113662 
L 1229.894464 -407.887762 
L 1230.960856 -412.661863 
L 1231.891103 -417.435964 
L 1232.815968 -422.210065 
L 1233.760672 -426.984166 
L 1234.677593 -431.758267 
L 1235.503766 -436.532368 
L 1236.17493 -441.306469 
L 1236.666278 -446.08057 
L 1237.027957 -450.854671 
L 1237.348756 -455.628771 
L 1237.690396 -460.402872 
L 1238.051655 -465.176973 
L 1238.388575 -469.951074 
L 1238.672506 -474.725175 
L 1238.911913 -479.499276 
L 1239.122312 -484.273377 
L 1239.308523 -489.047478 
L 1239.473698 -493.821579 
L 1239.622204 -498.595679 
L 1239.753782 -503.36978 
L 1239.862195 -508.143881 
L 1239.941509 -512.917982 
L 1239.994772 -517.692083 
L 1240.031567 -522.466184 
L 1240.057 -527.240285 
L 1240.072215 -532.014386 
L 1240.082172 -536.788487 
L 1240.094401 -541.562587 
L 1240.112979 -546.336688 
L 1240.136203 -551.110789 
L 1240.159006 -555.88489 
L 1240.177264 -560.658991 
L 1240.189432 -565.433092 
L 1240.195738 -570.207193 
L 1240.197221 -574.981294 
L 1240.19483 -579.755395 
L 1240.189813 -584.529496 
L 1240.18523 -589.303596 
L 1240.184774 -594.077697 
L 1240.188868 -598.851798 
L 1240.194229 -603.625899 
L 1240.197879 -608.4 
L 1240.202121 -608.4 
L 1240.202121 -608.4 
L 1240.205771 -603.625899 
L 1240.211132 -598.851798 
L 1240.215226 -594.077697 
L 1240.21477 -589.303596 
L 1240.210187 -584.529496 
L 1240.20517 -579.755395 
L 1240.202779 -574.981294 
L 1240.204262 -570.207193 
L 1240.210568 -565.433092 
L 1240.222736 -560.658991 
L 1240.240994 -555.88489 
L 1240.263797 -551.110789 
L 1240.287021 -546.336688 
L 1240.305599 -541.562587 
L 1240.317828 -536.788487 
L 1240.327785 -532.014386 
L 1240.343 -527.240285 
L 1240.368433 -522.466184 
L 1240.405228 -517.692083 
L 1240.458491 -512.917982 
L 1240.537805 -508.143881 
L 1240.646218 -503.36978 
L 1240.777796 -498.595679 
L 1240.926302 -493.821579 
L 1241.091477 -489.047478 
L 1241.277688 -484.273377 
L 1241.488087 -479.499276 
L 1241.727494 -474.725175 
L 1242.011425 -469.951074 
L 1242.348345 -465.176973 
L 1242.709604 -460.402872 
L 1243.051244 -455.628771 
L 1243.372043 -450.854671 
L 1243.733722 -446.08057 
L 1244.22507 -441.306469 
L 1244.896234 -436.532368 
L 1245.722407 -431.758267 
L 1246.639328 -426.984166 
L 1247.584032 -422.210065 
L 1248.508897 -417.435964 
L 1249.439144 -412.661863 
L 1250.505536 -407.887762 
L 1251.827041 -403.113662 
L 1253.341353 -398.339561 
L 1254.800687 -393.56546 
L 1256.010912 -388.791359 
L 1257.082752 -384.017258 
L 1258.36133 -379.243157 
L 1260.085525 -374.469056 
L 1262.155322 -369.694955 
L 1264.237947 -364.920854 
L 1266.087922 -360.146754 
L 1267.721144 -355.372653 
L 1269.276683 -350.598552 
L 1270.834997 -345.824451 
L 1272.415384 -341.05035 
L 1274.018699 -336.276249 
L 1275.61222 -331.502148 
L 1277.085108 -326.728047 
L 1278.244434 -321.953946 
L 1279.024053 -317.179846 
L 1279.709688 -312.405745 
L 1280.673446 -307.631644 
L 1281.864746 -302.857543 
L 1282.83843 -298.083442 
L 1283.276969 -293.309341 
L 1283.235134 -288.53524 
L 1282.873385 -283.761139 
L 1282.198711 -278.987038 
L 1281.133894 -274.212937 
L 1279.660718 -269.438837 
L 1277.822891 -264.664736 
L 1275.689649 -259.890635 
L 1273.352709 -255.116534 
L 1270.934238 -250.342433 
L 1268.5682 -245.568332 
L 1266.31222 -240.794231 
L 1264.102337 -236.02013 
L 1261.844095 -231.246029 
L 1259.50625 -226.471929 
L 1257.126116 -221.697828 
L 1254.771598 -216.923727 
L 1252.508434 -212.149626 
L 1250.404825 -207.375525 
L 1248.549258 -202.601424 
L 1247.016016 -197.827323 
L 1245.791195 -193.053222 
L 1244.761216 -188.279121 
L 1243.802534 -183.505021 
L 1242.880091 -178.73092 
L 1242.053535 -173.956819 
L 1241.399255 -169.182718 
L 1240.940045 -164.408617 
L 1240.641119 -159.634516 
L 1240.449557 -154.860415 
L 1240.327446 -150.086314 
L 1240.255341 -145.312213 
L 1240.219442 -140.538112 
L 1240.205332 -135.764012 
z
" style="stroke: #3f3f3f; stroke-width: 1.25"/>
    </defs>
    <g clip-path="url(#p0459fbc5f1)">
     <use xlink:href="#mb603b6c97f" x="0" y="720" style="fill: #3274a1; stroke: #3f3f3f; stroke-width: 1.25"/>
    </g>
   </g>
   <g id="matplotlib.axis_1">
    <g id="xtick_1">
     <g id="line2d_1">
      <defs>
       <path id="me44b13ef72" d="M 0 0 
L 0 3.5 
" style="stroke: #000000; stroke-width: 0.8"/>
      </defs>
      <g>
       <use xlink:href="#me44b13ef72" x="235.8" y="640.8" style="stroke: #000000; stroke-width: 0.8"/>
      </g>
     </g>
     <g id="text_1">
      <!-- 0 -->
      <g transform="translate(232.61875 655.398438) scale(0.1 -0.1)">
       <defs>
        <path id="DejaVuSans-30" d="M 2034 4250 
Q 1547 4250 1301 3770 
Q 1056 3291 1056 2328 
Q 1056 1369 1301 889 
Q 1547 409 2034 409 
Q 2525 409 2770 889 
Q 3016 1369 3016 2328 
Q 3016 3291 2770 3770 
Q 2525 4250 2034 4250 
z
M 2034 4750 
Q 2819 4750 3233 4129 
Q 3647 3509 3647 2328 
Q 3647 1150 3233 529 
Q 2819 -91 2034 -91 
Q 1250 -91 836 529 
Q 422 1150 422 2328 
Q 422 3509 836 4129 
Q 1250 4750 2034 4750 
z
" transform="scale(0.015625)"/>
       </defs>
       <use xlink:href="#DejaVuSans-30"/>
      </g>
     </g>
    </g>
    <g id="xtick_2">
     <g id="line2d_2">
      <g>
       <use xlink:href="#me44b13ef72" x="347.4" y="640.8" style="stroke: #000000; stroke-width: 0.8"/>
      </g>
     </g>
     <g id="text_2">
      <!-- 1 -->
      <g transform="translate(344.21875 655.398438) scale(0.1 -0.1)">
       <defs>
        <path id="DejaVuSans-31" d="M 794 531 
L 1825 531 
L 1825 4091 
L 703 3866 
L 703 4441 
L 1819 4666 
L 2450 4666 
L 2450 531 
L 3481 531 
L 3481 0 
L 794 0 
L 794 531 
z
" transform="scale(0.015625)"/>
       </defs>
       <use xlink:href="#DejaVuSans-31"/>
      </g>
     </g>
    </g>
    <g id="xtick_3">
     <g id="line2d_3">
      <g>
       <use xlink:href="#me44b13ef72" x="459" y="640.8" style="stroke: #000000; stroke-width: 0.8"/>
      </g>
     </g>
     <g id="text_3">
      <!-- 2 -->
      <g transform="translate(455.81875 655.398438) scale(0.1 -0.1)">
       <defs>
        <path id="DejaVuSans-32" d="M 1228 531 
L 3431 531 
L 3431 0 
L 469 0 
L 469 531 
Q 828 903 1448 1529 
Q 2069 2156 2228 2338 
Q 2531 2678 2651 2914 
Q 2772 3150 2772 3378 
Q 2772 3750 2511 3984 
Q 2250 4219 1831 4219 
Q 1534 4219 1204 4116 
Q 875 4013 500 3803 
L 500 4441 
Q 881 4594 1212 4672 
Q 1544 4750 1819 4750 
Q 2544 4750 2975 4387 
Q 3406 4025 3406 3419 
Q 3406 3131 3298 2873 
Q 3191 2616 2906 2266 
Q 2828 2175 2409 1742 
Q 1991 1309 1228 531 
z
" transform="scale(0.015625)"/>
       </defs>
       <use xlink:href="#DejaVuSans-32"/>
      </g>
     </g>
    </g>
    <g id="xtick_4">
     <g id="line2d_4">
      <g>
       <use xlink:href="#me44b13ef72" x="570.6" y="640.8" style="stroke: #000000; stroke-width: 0.8"/>
      </g>
     </g>
     <g id="text_4">
      <!-- 3 -->
      <g transform="translate(567.41875 655.398438) scale(0.1 -0.1)">
       <defs>
        <path id="DejaVuSans-33" d="M 2597 2516 
Q 3050 2419 3304 2112 
Q 3559 1806 3559 1356 
Q 3559 666 3084 287 
Q 2609 -91 1734 -91 
Q 1441 -91 1130 -33 
Q 819 25 488 141 
L 488 750 
Q 750 597 1062 519 
Q 1375 441 1716 441 
Q 2309 441 2620 675 
Q 2931 909 2931 1356 
Q 2931 1769 2642 2001 
Q 2353 2234 1838 2234 
L 1294 2234 
L 1294 2753 
L 1863 2753 
Q 2328 2753 2575 2939 
Q 2822 3125 2822 3475 
Q 2822 3834 2567 4026 
Q 2313 4219 1838 4219 
Q 1578 4219 1281 4162 
Q 984 4106 628 3988 
L 628 4550 
Q 988 4650 1302 4700 
Q 1616 4750 1894 4750 
Q 2613 4750 3031 4423 
Q 3450 4097 3450 3541 
Q 3450 3153 3228 2886 
Q 3006 2619 2597 2516 
z
" transform="scale(0.015625)"/>
       </defs>
       <use xlink:href="#DejaVuSans-33"/>
      </g>
     </g>
    </g>
    <g id="xtick_5">
     <g id="line2d_5">
      <g>
       <use xlink:href="#me44b13ef72" x="682.2" y="640.8" style="stroke: #000000; stroke-width: 0.8"/>
      </g>
     </g>
     <g id="text_5">
      <!-- 4 -->
      <g transform="translate(679.01875 655.398438) scale(0.1 -0.1)">
       <defs>
        <path id="DejaVuSans-34" d="M 2419 4116 
L 825 1625 
L 2419 1625 
L 2419 4116 
z
M 2253 4666 
L 3047 4666 
L 3047 1625 
L 3713 1625 
L 3713 1100 
L 3047 1100 
L 3047 0 
L 2419 0 
L 2419 1100 
L 313 1100 
L 313 1709 
L 2253 4666 
z
" transform="scale(0.015625)"/>
       </defs>
       <use xlink:href="#DejaVuSans-34"/>
      </g>
     </g>
    </g>
    <g id="xtick_6">
     <g id="line2d_6">
      <g>
       <use xlink:href="#me44b13ef72" x="793.8" y="640.8" style="stroke: #000000; stroke-width: 0.8"/>
      </g>
     </g>
     <g id="text_6">
      <!-- 5 -->
      <g transform="translate(790.61875 655.398438) scale(0.1 -0.1)">
       <defs>
        <path id="DejaVuSans-35" d="M 691 4666 
L 3169 4666 
L 3169 4134 
L 1269 4134 
L 1269 2991 
Q 1406 3038 1543 3061 
Q 1681 3084 1819 3084 
Q 2600 3084 3056 2656 
Q 3513 2228 3513 1497 
Q 3513 744 3044 326 
Q 2575 -91 1722 -91 
Q 1428 -91 1123 -41 
Q 819 9 494 109 
L 494 744 
Q 775 591 1075 516 
Q 1375 441 1709 441 
Q 2250 441 2565 725 
Q 2881 1009 2881 1497 
Q 2881 1984 2565 2268 
Q 2250 2553 1709 2553 
Q 1456 2553 1204 2497 
Q 953 2441 691 2322 
L 691 4666 
z
" transform="scale(0.015625)"/>
       </defs>
       <use xlink:href="#DejaVuSans-35"/>
      </g>
     </g>
    </g>
    <g id="xtick_7">
     <g id="line2d_7">
      <g>
       <use xlink:href="#me44b13ef72" x="905.4" y="640.8" style="stroke: #000000; stroke-width: 0.8"/>
      </g>
     </g>
     <g id="text_7">
      <!-- 6 -->
      <g transform="translate(902.21875 655.398438) scale(0.1 -0.1)">
       <defs>
        <path id="DejaVuSans-36" d="M 2113 2584 
Q 1688 2584 1439 2293 
Q 1191 2003 1191 1497 
Q 1191 994 1439 701 
Q 1688 409 2113 409 
Q 2538 409 2786 701 
Q 3034 994 3034 1497 
Q 3034 2003 2786 2293 
Q 2538 2584 2113 2584 
z
M 3366 4563 
L 3366 3988 
Q 3128 4100 2886 4159 
Q 2644 4219 2406 4219 
Q 1781 4219 1451 3797 
Q 1122 3375 1075 2522 
Q 1259 2794 1537 2939 
Q 1816 3084 2150 3084 
Q 2853 3084 3261 2657 
Q 3669 2231 3669 1497 
Q 3669 778 3244 343 
Q 2819 -91 2113 -91 
Q 1303 -91 875 529 
Q 447 1150 447 2328 
Q 447 3434 972 4092 
Q 1497 4750 2381 4750 
Q 2619 4750 2861 4703 
Q 3103 4656 3366 4563 
z
" transform="scale(0.015625)"/>
       </defs>
       <use xlink:href="#DejaVuSans-36"/>
      </g>
     </g>
    </g>
    <g id="xtick_8">
     <g id="line2d_8">
      <g>
       <use xlink:href="#me44b13ef72" x="1017" y="640.8" style="stroke: #000000; stroke-width: 0.8"/>
      </g>
     </g>
     <g id="text_8">
      <!-- 7 -->
      <g transform="translate(1013.81875 655.398438) scale(0.1 -0.1)">
       <defs>
        <path id="DejaVuSans-37" d="M 525 4666 
L 3525 4666 
L 3525 4397 
L 1831 0 
L 1172 0 
L 2766 4134 
L 525 4134 
L 525 4666 
z
" transform="scale(0.015625)"/>
       </defs>
       <use xlink:href="#DejaVuSans-37"/>
      </g>
     </g>
    </g>
    <g id="xtick_9">
     <g id="line2d_9">
      <g>
       <use xlink:href="#me44b13ef72" x="1128.6" y="640.8" style="stroke: #000000; stroke-width: 0.8"/>
      </g>
     </g>
     <g id="text_9">
      <!-- 8 -->
      <g transform="translate(1125.41875 655.398438) scale(0.1 -0.1)">
       <defs>
        <path id="DejaVuSans-38" d="M 2034 2216 
Q 1584 2216 1326 1975 
Q 1069 1734 1069 1313 
Q 1069 891 1326 650 
Q 1584 409 2034 409 
Q 2484 409 2743 651 
Q 3003 894 3003 1313 
Q 3003 1734 2745 1975 
Q 2488 2216 2034 2216 
z
M 1403 2484 
Q 997 2584 770 2862 
Q 544 3141 544 3541 
Q 544 4100 942 4425 
Q 1341 4750 2034 4750 
Q 2731 4750 3128 4425 
Q 3525 4100 3525 3541 
Q 3525 3141 3298 2862 
Q 3072 2584 2669 2484 
Q 3125 2378 3379 2068 
Q 3634 1759 3634 1313 
Q 3634 634 3220 271 
Q 2806 -91 2034 -91 
Q 1263 -91 848 271 
Q 434 634 434 1313 
Q 434 1759 690 2068 
Q 947 2378 1403 2484 
z
M 1172 3481 
Q 1172 3119 1398 2916 
Q 1625 2713 2034 2713 
Q 2441 2713 2670 2916 
Q 2900 3119 2900 3481 
Q 2900 3844 2670 4047 
Q 2441 4250 2034 4250 
Q 1625 4250 1398 4047 
Q 1172 3844 1172 3481 
z
" transform="scale(0.015625)"/>
       </defs>
       <use xlink:href="#DejaVuSans-38"/>
      </g>
     </g>
    </g>
    <g id="xtick_10">
     <g id="line2d_10">
      <g>
       <use xlink:href="#me44b13ef72" x="1240.2" y="640.8" style="stroke: #000000; stroke-width: 0.8"/>
      </g>
     </g>
     <g id="text_10">
      <!-- 9 -->
      <g transform="translate(1237.01875 655.398438) scale(0.1 -0.1)">
       <defs>
        <path id="DejaVuSans-39" d="M 703 97 
L 703 672 
Q 941 559 1184 500 
Q 1428 441 1663 441 
Q 2288 441 2617 861 
Q 2947 1281 2994 2138 
Q 2813 1869 2534 1725 
Q 2256 1581 1919 1581 
Q 1219 1581 811 2004 
Q 403 2428 403 3163 
Q 403 3881 828 4315 
Q 1253 4750 1959 4750 
Q 2769 4750 3195 4129 
Q 3622 3509 3622 2328 
Q 3622 1225 3098 567 
Q 2575 -91 1691 -91 
Q 1453 -91 1209 -44 
Q 966 3 703 97 
z
M 1959 2075 
Q 2384 2075 2632 2365 
Q 2881 2656 2881 3163 
Q 2881 3666 2632 3958 
Q 2384 4250 1959 4250 
Q 1534 4250 1286 3958 
Q 1038 3666 1038 3163 
Q 1038 2656 1286 2365 
Q 1534 2075 1959 2075 
z
" transform="scale(0.015625)"/>
       </defs>
       <use xlink:href="#DejaVuSans-39"/>
      </g>
     </g>
    </g>
    <g id="text_11">
     <!-- iteration -->
     <g transform="translate(716.877344 669.076563) scale(0.1 -0.1)">
      <defs>
       <path id="DejaVuSans-69" d="M 603 3500 
L 1178 3500 
L 1178 0 
L 603 0 
L 603 3500 
z
M 603 4863 
L 1178 4863 
L 1178 4134 
L 603 4134 
L 603 4863 
z
" transform="scale(0.015625)"/>
       <path id="DejaVuSans-74" d="M 1172 4494 
L 1172 3500 
L 2356 3500 
L 2356 3053 
L 1172 3053 
L 1172 1153 
Q 1172 725 1289 603 
Q 1406 481 1766 481 
L 2356 481 
L 2356 0 
L 1766 0 
Q 1100 0 847 248 
Q 594 497 594 1153 
L 594 3053 
L 172 3053 
L 172 3500 
L 594 3500 
L 594 4494 
L 1172 4494 
z
" transform="scale(0.015625)"/>
       <path id="DejaVuSans-65" d="M 3597 1894 
L 3597 1613 
L 953 1613 
Q 991 1019 1311 708 
Q 1631 397 2203 397 
Q 2534 397 2845 478 
Q 3156 559 3463 722 
L 3463 178 
Q 3153 47 2828 -22 
Q 2503 -91 2169 -91 
Q 1331 -91 842 396 
Q 353 884 353 1716 
Q 353 2575 817 3079 
Q 1281 3584 2069 3584 
Q 2775 3584 3186 3129 
Q 3597 2675 3597 1894 
z
M 3022 2063 
Q 3016 2534 2758 2815 
Q 2500 3097 2075 3097 
Q 1594 3097 1305 2825 
Q 1016 2553 972 2059 
L 3022 2063 
z
" transform="scale(0.015625)"/>
       <path id="DejaVuSans-72" d="M 2631 2963 
Q 2534 3019 2420 3045 
Q 2306 3072 2169 3072 
Q 1681 3072 1420 2755 
Q 1159 2438 1159 1844 
L 1159 0 
L 581 0 
L 581 3500 
L 1159 3500 
L 1159 2956 
Q 1341 3275 1631 3429 
Q 1922 3584 2338 3584 
Q 2397 3584 2469 3576 
Q 2541 3569 2628 3553 
L 2631 2963 
z
" transform="scale(0.015625)"/>
       <path id="DejaVuSans-61" d="M 2194 1759 
Q 1497 1759 1228 1600 
Q 959 1441 959 1056 
Q 959 750 1161 570 
Q 1363 391 1709 391 
Q 2188 391 2477 730 
Q 2766 1069 2766 1631 
L 2766 1759 
L 2194 1759 
z
M 3341 1997 
L 3341 0 
L 2766 0 
L 2766 531 
Q 2569 213 2275 61 
Q 1981 -91 1556 -91 
Q 1019 -91 701 211 
Q 384 513 384 1019 
Q 384 1609 779 1909 
Q 1175 2209 1959 2209 
L 2766 2209 
L 2766 2266 
Q 2766 2663 2505 2880 
Q 2244 3097 1772 3097 
Q 1472 3097 1187 3025 
Q 903 2953 641 2809 
L 641 3341 
Q 956 3463 1253 3523 
Q 1550 3584 1831 3584 
Q 2591 3584 2966 3190 
Q 3341 2797 3341 1997 
z
" transform="scale(0.015625)"/>
       <path id="DejaVuSans-6f" d="M 1959 3097 
Q 1497 3097 1228 2736 
Q 959 2375 959 1747 
Q 959 1119 1226 758 
Q 1494 397 1959 397 
Q 2419 397 2687 759 
Q 2956 1122 2956 1747 
Q 2956 2369 2687 2733 
Q 2419 3097 1959 3097 
z
M 1959 3584 
Q 2709 3584 3137 3096 
Q 3566 2609 3566 1747 
Q 3566 888 3137 398 
Q 2709 -91 1959 -91 
Q 1206 -91 779 398 
Q 353 888 353 1747 
Q 353 2609 779 3096 
Q 1206 3584 1959 3584 
z
" transform="scale(0.015625)"/>
       <path id="DejaVuSans-6e" d="M 3513 2113 
L 3513 0 
L 2938 0 
L 2938 2094 
Q 2938 2591 2744 2837 
Q 2550 3084 2163 3084 
Q 1697 3084 1428 2787 
Q 1159 2491 1159 1978 
L 1159 0 
L 581 0 
L 581 3500 
L 1159 3500 
L 1159 2956 
Q 1366 3272 1645 3428 
Q 1925 3584 2291 3584 
Q 2894 3584 3203 3211 
Q 3513 2838 3513 2113 
z
" transform="scale(0.015625)"/>
      </defs>
      <use xlink:href="#DejaVuSans-69"/>
      <use xlink:href="#DejaVuSans-74" x="27.783203"/>
      <use xlink:href="#DejaVuSans-65" x="66.992188"/>
      <use xlink:href="#DejaVuSans-72" x="128.515625"/>
      <use xlink:href="#DejaVuSans-61" x="169.628906"/>
      <use xlink:href="#DejaVuSans-74" x="230.908203"/>
      <use xlink:href="#DejaVuSans-69" x="270.117188"/>
      <use xlink:href="#DejaVuSans-6f" x="297.900391"/>
      <use xlink:href="#DejaVuSans-6e" x="359.082031"/>
     </g>
    </g>
   </g>
   <g id="matplotlib.axis_2">
    <g id="ytick_1">
     <g id="line2d_11">
      <defs>
       <path id="m525b519dff" d="M 0 0 
L -3.5 0 
" style="stroke: #000000; stroke-width: 0.8"/>
      </defs>
      <g>
       <use xlink:href="#m525b519dff" x="180" y="613.470912" style="stroke: #000000; stroke-width: 0.8"/>
      </g>
     </g>
     <g id="text_12">
      <!-- 0.2 -->
      <g transform="translate(148.717187 617.27013) scale(0.1 -0.1)">
       <defs>
        <path id="DejaVuSans-2212" d="M 678 2272 
L 4684 2272 
L 4684 1741 
L 678 1741 
L 678 2272 
z
" transform="scale(0.015625)"/>
        <path id="DejaVuSans-2e" d="M 684 794 
L 1344 794 
L 1344 0 
L 684 0 
L 684 794 
z
" transform="scale(0.015625)"/>
       </defs>
       <use xlink:href="#DejaVuSans-2212"/>
       <use xlink:href="#DejaVuSans-30" x="83.789062"/>
       <use xlink:href="#DejaVuSans-2e" x="147.412109"/>
       <use xlink:href="#DejaVuSans-32" x="179.199219"/>
      </g>
     </g>
    </g>
    <g id="ytick_2">
     <g id="line2d_12">
      <g>
       <use xlink:href="#m525b519dff" x="180" y="531.57467" style="stroke: #000000; stroke-width: 0.8"/>
      </g>
     </g>
     <g id="text_13">
      <!-- 0.0 -->
      <g transform="translate(157.096875 535.373889) scale(0.1 -0.1)">
       <use xlink:href="#DejaVuSans-30"/>
       <use xlink:href="#DejaVuSans-2e" x="63.623047"/>
       <use xlink:href="#DejaVuSans-30" x="95.410156"/>
      </g>
     </g>
    </g>
    <g id="ytick_3">
     <g id="line2d_13">
      <g>
       <use xlink:href="#m525b519dff" x="180" y="449.678429" style="stroke: #000000; stroke-width: 0.8"/>
      </g>
     </g>
     <g id="text_14">
      <!-- 0.2 -->
      <g transform="translate(157.096875 453.477648) scale(0.1 -0.1)">
       <use xlink:href="#DejaVuSans-30"/>
       <use xlink:href="#DejaVuSans-2e" x="63.623047"/>
       <use xlink:href="#DejaVuSans-32" x="95.410156"/>
      </g>
     </g>
    </g>
    <g id="ytick_4">
     <g id="line2d_14">
      <g>
       <use xlink:href="#m525b519dff" x="180" y="367.782188" style="stroke: #000000; stroke-width: 0.8"/>
      </g>
     </g>
     <g id="text_15">
      <!-- 0.4 -->
      <g transform="translate(157.096875 371.581407) scale(0.1 -0.1)">
       <use xlink:href="#DejaVuSans-30"/>
       <use xlink:href="#DejaVuSans-2e" x="63.623047"/>
       <use xlink:href="#DejaVuSans-34" x="95.410156"/>
      </g>
     </g>
    </g>
    <g id="ytick_5">
     <g id="line2d_15">
      <g>
       <use xlink:href="#m525b519dff" x="180" y="285.885947" style="stroke: #000000; stroke-width: 0.8"/>
      </g>
     </g>
     <g id="text_16">
      <!-- 0.6 -->
      <g transform="translate(157.096875 289.685165) scale(0.1 -0.1)">
       <use xlink:href="#DejaVuSans-30"/>
       <use xlink:href="#DejaVuSans-2e" x="63.623047"/>
       <use xlink:href="#DejaVuSans-36" x="95.410156"/>
      </g>
     </g>
    </g>
    <g id="ytick_6">
     <g id="line2d_16">
      <g>
       <use xlink:href="#m525b519dff" x="180" y="203.989705" style="stroke: #000000; stroke-width: 0.8"/>
      </g>
     </g>
     <g id="text_17">
      <!-- 0.8 -->
      <g transform="translate(157.096875 207.788924) scale(0.1 -0.1)">
       <use xlink:href="#DejaVuSans-30"/>
       <use xlink:href="#DejaVuSans-2e" x="63.623047"/>
       <use xlink:href="#DejaVuSans-38" x="95.410156"/>
      </g>
     </g>
    </g>
    <g id="ytick_7">
     <g id="line2d_17">
      <g>
       <use xlink:href="#m525b519dff" x="180" y="122.093464" style="stroke: #000000; stroke-width: 0.8"/>
      </g>
     </g>
     <g id="text_18">
      <!-- 1.0 -->
      <g transform="translate(157.096875 125.892683) scale(0.1 -0.1)">
       <use xlink:href="#DejaVuSans-31"/>
       <use xlink:href="#DejaVuSans-2e" x="63.623047"/>
       <use xlink:href="#DejaVuSans-30" x="95.410156"/>
      </g>
     </g>
    </g>
    <g id="text_19">
     <!-- final cosine similarity -->
     <g transform="translate(142.6375 416.667187) rotate(-90) scale(0.1 -0.1)">
      <defs>
       <path id="DejaVuSans-66" d="M 2375 4863 
L 2375 4384 
L 1825 4384 
Q 1516 4384 1395 4259 
Q 1275 4134 1275 3809 
L 1275 3500 
L 2222 3500 
L 2222 3053 
L 1275 3053 
L 1275 0 
L 697 0 
L 697 3053 
L 147 3053 
L 147 3500 
L 697 3500 
L 697 3744 
Q 697 4328 969 4595 
Q 1241 4863 1831 4863 
L 2375 4863 
z
" transform="scale(0.015625)"/>
       <path id="DejaVuSans-6c" d="M 603 4863 
L 1178 4863 
L 1178 0 
L 603 0 
L 603 4863 
z
" transform="scale(0.015625)"/>
       <path id="DejaVuSans-20" transform="scale(0.015625)"/>
       <path id="DejaVuSans-63" d="M 3122 3366 
L 3122 2828 
Q 2878 2963 2633 3030 
Q 2388 3097 2138 3097 
Q 1578 3097 1268 2742 
Q 959 2388 959 1747 
Q 959 1106 1268 751 
Q 1578 397 2138 397 
Q 2388 397 2633 464 
Q 2878 531 3122 666 
L 3122 134 
Q 2881 22 2623 -34 
Q 2366 -91 2075 -91 
Q 1284 -91 818 406 
Q 353 903 353 1747 
Q 353 2603 823 3093 
Q 1294 3584 2113 3584 
Q 2378 3584 2631 3529 
Q 2884 3475 3122 3366 
z
" transform="scale(0.015625)"/>
       <path id="DejaVuSans-73" d="M 2834 3397 
L 2834 2853 
Q 2591 2978 2328 3040 
Q 2066 3103 1784 3103 
Q 1356 3103 1142 2972 
Q 928 2841 928 2578 
Q 928 2378 1081 2264 
Q 1234 2150 1697 2047 
L 1894 2003 
Q 2506 1872 2764 1633 
Q 3022 1394 3022 966 
Q 3022 478 2636 193 
Q 2250 -91 1575 -91 
Q 1294 -91 989 -36 
Q 684 19 347 128 
L 347 722 
Q 666 556 975 473 
Q 1284 391 1588 391 
Q 1994 391 2212 530 
Q 2431 669 2431 922 
Q 2431 1156 2273 1281 
Q 2116 1406 1581 1522 
L 1381 1569 
Q 847 1681 609 1914 
Q 372 2147 372 2553 
Q 372 3047 722 3315 
Q 1072 3584 1716 3584 
Q 2034 3584 2315 3537 
Q 2597 3491 2834 3397 
z
" transform="scale(0.015625)"/>
       <path id="DejaVuSans-6d" d="M 3328 2828 
Q 3544 3216 3844 3400 
Q 4144 3584 4550 3584 
Q 5097 3584 5394 3201 
Q 5691 2819 5691 2113 
L 5691 0 
L 5113 0 
L 5113 2094 
Q 5113 2597 4934 2840 
Q 4756 3084 4391 3084 
Q 3944 3084 3684 2787 
Q 3425 2491 3425 1978 
L 3425 0 
L 2847 0 
L 2847 2094 
Q 2847 2600 2669 2842 
Q 2491 3084 2119 3084 
Q 1678 3084 1418 2786 
Q 1159 2488 1159 1978 
L 1159 0 
L 581 0 
L 581 3500 
L 1159 3500 
L 1159 2956 
Q 1356 3278 1631 3431 
Q 1906 3584 2284 3584 
Q 2666 3584 2933 3390 
Q 3200 3197 3328 2828 
z
" transform="scale(0.015625)"/>
       <path id="DejaVuSans-79" d="M 2059 -325 
Q 1816 -950 1584 -1140 
Q 1353 -1331 966 -1331 
L 506 -1331 
L 506 -850 
L 844 -850 
Q 1081 -850 1212 -737 
Q 1344 -625 1503 -206 
L 1606 56 
L 191 3500 
L 800 3500 
L 1894 763 
L 2988 3500 
L 3597 3500 
L 2059 -325 
z
" transform="scale(0.015625)"/>
      </defs>
      <use xlink:href="#DejaVuSans-66"/>
      <use xlink:href="#DejaVuSans-69" x="35.205078"/>
      <use xlink:href="#DejaVuSans-6e" x="62.988281"/>
      <use xlink:href="#DejaVuSans-61" x="126.367188"/>
      <use xlink:href="#DejaVuSans-6c" x="187.646484"/>
      <use xlink:href="#DejaVuSans-20" x="215.429688"/>
      <use xlink:href="#DejaVuSans-63" x="247.216797"/>
      <use xlink:href="#DejaVuSans-6f" x="302.197266"/>
      <use xlink:href="#DejaVuSans-73" x="363.378906"/>
      <use xlink:href="#DejaVuSans-69" x="415.478516"/>
      <use xlink:href="#DejaVuSans-6e" x="443.261719"/>
      <use xlink:href="#DejaVuSans-65" x="506.640625"/>
      <use xlink:href="#DejaVuSans-20" x="568.164062"/>
      <use xlink:href="#DejaVuSans-73" x="599.951172"/>
      <use xlink:href="#DejaVuSans-69" x="652.050781"/>
      <use xlink:href="#DejaVuSans-6d" x="679.833984"/>
      <use xlink:href="#DejaVuSans-69" x="777.246094"/>
      <use xlink:href="#DejaVuSans-6c" x="805.029297"/>
      <use xlink:href="#DejaVuSans-61" x="832.8125"/>
      <use xlink:href="#DejaVuSans-72" x="894.091797"/>
      <use xlink:href="#DejaVuSans-69" x="935.205078"/>
      <use xlink:href="#DejaVuSans-74" x="962.988281"/>
      <use xlink:href="#DejaVuSans-79" x="1002.197266"/>
     </g>
    </g>
   </g>
   <g id="line2d_18">
    <path d="M 235.8 585.59648 
L 235.8 269.860947 
" clip-path="url(#p0459fbc5f1)" style="fill: none; stroke: #3f3f3f; stroke-width: 1.875; stroke-linecap: square"/>
   </g>
   <g id="line2d_19">
    <path d="M 235.8 468.111278 
L 235.8 388.59667 
" clip-path="url(#p0459fbc5f1)" style="fill: none; stroke: #3f3f3f; stroke-width: 5.625; stroke-linecap: square"/>
   </g>
   <g id="line2d_20">
    <path d="M 235.8 432.158013 
" clip-path="url(#p0459fbc5f1)" style="fill: none; stroke: #3f3f3f; stroke-width: 1.5; stroke-linecap: square"/>
    <defs>
     <path id="m9090df056d" d="M 2.34375 0 
L -2.34375 -0 
" style="stroke: #ffffff; stroke-width: 1.125"/>
    </defs>
    <g clip-path="url(#p0459fbc5f1)">
     <use xlink:href="#m9090df056d" x="235.8" y="432.158013" style="fill: #ffffff; stroke: #ffffff; stroke-width: 1.125"/>
    </g>
   </g>
   <g id="line2d_21">
    <path d="M 347.4 577.722293 
L 347.4 258.522513 
" clip-path="url(#p0459fbc5f1)" style="fill: none; stroke: #3f3f3f; stroke-width: 1.875; stroke-linecap: square"/>
   </g>
   <g id="line2d_22">
    <path d="M 347.4 462.717538 
L 347.4 380.975523 
" clip-path="url(#p0459fbc5f1)" style="fill: none; stroke: #3f3f3f; stroke-width: 5.625; stroke-linecap: square"/>
   </g>
   <g id="line2d_23">
    <path d="M 347.4 424.582498 
" clip-path="url(#p0459fbc5f1)" style="fill: none; stroke: #3f3f3f; stroke-width: 1.5; stroke-linecap: square"/>
    <g clip-path="url(#p0459fbc5f1)">
     <use xlink:href="#m9090df056d" x="347.4" y="424.582498" style="fill: #ffffff; stroke: #ffffff; stroke-width: 1.125"/>
    </g>
   </g>
   <g id="line2d_24">
    <path d="M 459 577.722293 
L 459 259.114699 
" clip-path="url(#p0459fbc5f1)" style="fill: none; stroke: #3f3f3f; stroke-width: 1.875; stroke-linecap: square"/>
   </g>
   <g id="line2d_25">
    <path d="M 459 459.571735 
L 459 379.304545 
" clip-path="url(#p0459fbc5f1)" style="fill: none; stroke: #3f3f3f; stroke-width: 5.625; stroke-linecap: square"/>
   </g>
   <g id="line2d_26">
    <path d="M 459 421.663667 
" clip-path="url(#p0459fbc5f1)" style="fill: none; stroke: #3f3f3f; stroke-width: 1.5; stroke-linecap: square"/>
    <g clip-path="url(#p0459fbc5f1)">
     <use xlink:href="#m9090df056d" x="459" y="421.663667" style="fill: #ffffff; stroke: #ffffff; stroke-width: 1.125"/>
    </g>
   </g>
   <g id="line2d_27">
    <path d="M 570.6 577.722293 
L 570.6 258.883053 
" clip-path="url(#p0459fbc5f1)" style="fill: none; stroke: #3f3f3f; stroke-width: 1.875; stroke-linecap: square"/>
   </g>
   <g id="line2d_28">
    <path d="M 570.6 458.713224 
L 570.6 378.745268 
" clip-path="url(#p0459fbc5f1)" style="fill: none; stroke: #3f3f3f; stroke-width: 5.625; stroke-linecap: square"/>
   </g>
   <g id="line2d_29">
    <path d="M 570.6 421.284883 
" clip-path="url(#p0459fbc5f1)" style="fill: none; stroke: #3f3f3f; stroke-width: 1.5; stroke-linecap: square"/>
    <g clip-path="url(#p0459fbc5f1)">
     <use xlink:href="#m9090df056d" x="570.6" y="421.284883" style="fill: #ffffff; stroke: #ffffff; stroke-width: 1.125"/>
    </g>
   </g>
   <g id="line2d_30">
    <path d="M 682.2 572.169888 
L 682.2 257.334161 
" clip-path="url(#p0459fbc5f1)" style="fill: none; stroke: #3f3f3f; stroke-width: 1.875; stroke-linecap: square"/>
   </g>
   <g id="line2d_31">
    <path d="M 682.2 456.719415 
L 682.2 376.913664 
" clip-path="url(#p0459fbc5f1)" style="fill: none; stroke: #3f3f3f; stroke-width: 5.625; stroke-linecap: square"/>
   </g>
   <g id="line2d_32">
    <path d="M 682.2 418.881411 
" clip-path="url(#p0459fbc5f1)" style="fill: none; stroke: #3f3f3f; stroke-width: 1.5; stroke-linecap: square"/>
    <g clip-path="url(#p0459fbc5f1)">
     <use xlink:href="#m9090df056d" x="682.2" y="418.881411" style="fill: #ffffff; stroke: #ffffff; stroke-width: 1.125"/>
    </g>
   </g>
   <g id="line2d_33">
    <path d="M 793.8 570.152608 
L 793.8 255.839258 
" clip-path="url(#p0459fbc5f1)" style="fill: none; stroke: #3f3f3f; stroke-width: 1.875; stroke-linecap: square"/>
   </g>
   <g id="line2d_34">
    <path d="M 793.8 456.290397 
L 793.8 376.106934 
" clip-path="url(#p0459fbc5f1)" style="fill: none; stroke: #3f3f3f; stroke-width: 5.625; stroke-linecap: square"/>
   </g>
   <g id="line2d_35">
    <path d="M 793.8 418.532556 
" clip-path="url(#p0459fbc5f1)" style="fill: none; stroke: #3f3f3f; stroke-width: 1.5; stroke-linecap: square"/>
    <g clip-path="url(#p0459fbc5f1)">
     <use xlink:href="#m9090df056d" x="793.8" y="418.532556" style="fill: #ffffff; stroke: #ffffff; stroke-width: 1.125"/>
    </g>
   </g>
   <g id="line2d_36">
    <path d="M 905.4 577.722293 
L 905.4 253.010001 
" clip-path="url(#p0459fbc5f1)" style="fill: none; stroke: #3f3f3f; stroke-width: 1.875; stroke-linecap: square"/>
   </g>
   <g id="line2d_37">
    <path d="M 905.4 455.917369 
L 905.4 374.61722 
" clip-path="url(#p0459fbc5f1)" style="fill: none; stroke: #3f3f3f; stroke-width: 5.625; stroke-linecap: square"/>
   </g>
   <g id="line2d_38">
    <path d="M 905.4 417.817304 
" clip-path="url(#p0459fbc5f1)" style="fill: none; stroke: #3f3f3f; stroke-width: 1.5; stroke-linecap: square"/>
    <g clip-path="url(#p0459fbc5f1)">
     <use xlink:href="#m9090df056d" x="905.4" y="417.817304" style="fill: #ffffff; stroke: #ffffff; stroke-width: 1.125"/>
    </g>
   </g>
   <g id="line2d_39">
    <path d="M 1017 577.722293 
L 1017 258.022316 
" clip-path="url(#p0459fbc5f1)" style="fill: none; stroke: #3f3f3f; stroke-width: 1.875; stroke-linecap: square"/>
   </g>
   <g id="line2d_40">
    <path d="M 1017 457.565192 
L 1017 377.450532 
" clip-path="url(#p0459fbc5f1)" style="fill: none; stroke: #3f3f3f; stroke-width: 5.625; stroke-linecap: square"/>
   </g>
   <g id="line2d_41">
    <path d="M 1017 419.879809 
" clip-path="url(#p0459fbc5f1)" style="fill: none; stroke: #3f3f3f; stroke-width: 1.5; stroke-linecap: square"/>
    <g clip-path="url(#p0459fbc5f1)">
     <use xlink:href="#m9090df056d" x="1017" y="419.879809" style="fill: #ffffff; stroke: #ffffff; stroke-width: 1.125"/>
    </g>
   </g>
   <g id="line2d_42">
    <path d="M 1128.6 569.836062 
L 1128.6 256.516625 
" clip-path="url(#p0459fbc5f1)" style="fill: none; stroke: #3f3f3f; stroke-width: 1.875; stroke-linecap: square"/>
   </g>
   <g id="line2d_43">
    <path d="M 1128.6 454.840906 
L 1128.6 375.510726 
" clip-path="url(#p0459fbc5f1)" style="fill: none; stroke: #3f3f3f; stroke-width: 5.625; stroke-linecap: square"/>
   </g>
   <g id="line2d_44">
    <path d="M 1128.6 417.529094 
" clip-path="url(#p0459fbc5f1)" style="fill: none; stroke: #3f3f3f; stroke-width: 1.5; stroke-linecap: square"/>
    <g clip-path="url(#p0459fbc5f1)">
     <use xlink:href="#m9090df056d" x="1128.6" y="417.529094" style="fill: #ffffff; stroke: #ffffff; stroke-width: 1.125"/>
    </g>
   </g>
   <g id="line2d_45">
    <path d="M 1240.2 567.951553 
L 1240.2 253.830149 
" clip-path="url(#p0459fbc5f1)" style="fill: none; stroke: #3f3f3f; stroke-width: 1.875; stroke-linecap: square"/>
   </g>
   <g id="line2d_46">
    <path d="M 1240.2 454.471495 
L 1240.2 374.210368 
" clip-path="url(#p0459fbc5f1)" style="fill: none; stroke: #3f3f3f; stroke-width: 5.625; stroke-linecap: square"/>
   </g>
   <g id="line2d_47">
    <path d="M 1240.2 417.264595 
" clip-path="url(#p0459fbc5f1)" style="fill: none; stroke: #3f3f3f; stroke-width: 1.5; stroke-linecap: square"/>
    <g clip-path="url(#p0459fbc5f1)">
     <use xlink:href="#m9090df056d" x="1240.2" y="417.264595" style="fill: #ffffff; stroke: #ffffff; stroke-width: 1.125"/>
    </g>
   </g>
   <g id="patch_3">
    <path d="M 180 640.8 
L 180 86.4 
" style="fill: none; stroke: #000000; stroke-width: 0.8; stroke-linejoin: miter; stroke-linecap: square"/>
   </g>
   <g id="patch_4">
    <path d="M 1296 640.8 
L 1296 86.4 
" style="fill: none; stroke: #000000; stroke-width: 0.8; stroke-linejoin: miter; stroke-linecap: square"/>
   </g>
   <g id="patch_5">
    <path d="M 180 640.8 
L 1296 640.8 
" style="fill: none; stroke: #000000; stroke-width: 0.8; stroke-linejoin: miter; stroke-linecap: square"/>
   </g>
   <g id="patch_6">
    <path d="M 180 86.4 
L 1296 86.4 
" style="fill: none; stroke: #000000; stroke-width: 0.8; stroke-linejoin: miter; stroke-linecap: square"/>
   </g>
   <g id="text_20">
    <!-- final cosine similarity of max_fs_glit (betweenFinalsVariety), by iteration -->
    <g transform="translate(521.954062 80.4) scale(0.12 -0.12)">
     <defs>
      <path id="DejaVuSans-78" d="M 3513 3500 
L 2247 1797 
L 3578 0 
L 2900 0 
L 1881 1375 
L 863 0 
L 184 0 
L 1544 1831 
L 300 3500 
L 978 3500 
L 1906 2253 
L 2834 3500 
L 3513 3500 
z
" transform="scale(0.015625)"/>
      <path id="DejaVuSans-5f" d="M 3263 -1063 
L 3263 -1509 
L -63 -1509 
L -63 -1063 
L 3263 -1063 
z
" transform="scale(0.015625)"/>
      <path id="DejaVuSans-67" d="M 2906 1791 
Q 2906 2416 2648 2759 
Q 2391 3103 1925 3103 
Q 1463 3103 1205 2759 
Q 947 2416 947 1791 
Q 947 1169 1205 825 
Q 1463 481 1925 481 
Q 2391 481 2648 825 
Q 2906 1169 2906 1791 
z
M 3481 434 
Q 3481 -459 3084 -895 
Q 2688 -1331 1869 -1331 
Q 1566 -1331 1297 -1286 
Q 1028 -1241 775 -1147 
L 775 -588 
Q 1028 -725 1275 -790 
Q 1522 -856 1778 -856 
Q 2344 -856 2625 -561 
Q 2906 -266 2906 331 
L 2906 616 
Q 2728 306 2450 153 
Q 2172 0 1784 0 
Q 1141 0 747 490 
Q 353 981 353 1791 
Q 353 2603 747 3093 
Q 1141 3584 1784 3584 
Q 2172 3584 2450 3431 
Q 2728 3278 2906 2969 
L 2906 3500 
L 3481 3500 
L 3481 434 
z
" transform="scale(0.015625)"/>
      <path id="DejaVuSans-28" d="M 1984 4856 
Q 1566 4138 1362 3434 
Q 1159 2731 1159 2009 
Q 1159 1288 1364 580 
Q 1569 -128 1984 -844 
L 1484 -844 
Q 1016 -109 783 600 
Q 550 1309 550 2009 
Q 550 2706 781 3412 
Q 1013 4119 1484 4856 
L 1984 4856 
z
" transform="scale(0.015625)"/>
      <path id="DejaVuSans-62" d="M 3116 1747 
Q 3116 2381 2855 2742 
Q 2594 3103 2138 3103 
Q 1681 3103 1420 2742 
Q 1159 2381 1159 1747 
Q 1159 1113 1420 752 
Q 1681 391 2138 391 
Q 2594 391 2855 752 
Q 3116 1113 3116 1747 
z
M 1159 2969 
Q 1341 3281 1617 3432 
Q 1894 3584 2278 3584 
Q 2916 3584 3314 3078 
Q 3713 2572 3713 1747 
Q 3713 922 3314 415 
Q 2916 -91 2278 -91 
Q 1894 -91 1617 61 
Q 1341 213 1159 525 
L 1159 0 
L 581 0 
L 581 4863 
L 1159 4863 
L 1159 2969 
z
" transform="scale(0.015625)"/>
      <path id="DejaVuSans-77" d="M 269 3500 
L 844 3500 
L 1563 769 
L 2278 3500 
L 2956 3500 
L 3675 769 
L 4391 3500 
L 4966 3500 
L 4050 0 
L 3372 0 
L 2619 2869 
L 1863 0 
L 1184 0 
L 269 3500 
z
" transform="scale(0.015625)"/>
      <path id="DejaVuSans-46" d="M 628 4666 
L 3309 4666 
L 3309 4134 
L 1259 4134 
L 1259 2759 
L 3109 2759 
L 3109 2228 
L 1259 2228 
L 1259 0 
L 628 0 
L 628 4666 
z
" transform="scale(0.015625)"/>
      <path id="DejaVuSans-56" d="M 1831 0 
L 50 4666 
L 709 4666 
L 2188 738 
L 3669 4666 
L 4325 4666 
L 2547 0 
L 1831 0 
z
" transform="scale(0.015625)"/>
      <path id="DejaVuSans-29" d="M 513 4856 
L 1013 4856 
Q 1481 4119 1714 3412 
Q 1947 2706 1947 2009 
Q 1947 1309 1714 600 
Q 1481 -109 1013 -844 
L 513 -844 
Q 928 -128 1133 580 
Q 1338 1288 1338 2009 
Q 1338 2731 1133 3434 
Q 928 4138 513 4856 
z
" transform="scale(0.015625)"/>
      <path id="DejaVuSans-2c" d="M 750 794 
L 1409 794 
L 1409 256 
L 897 -744 
L 494 -744 
L 750 256 
L 750 794 
z
" transform="scale(0.015625)"/>
     </defs>
     <use xlink:href="#DejaVuSans-66"/>
     <use xlink:href="#DejaVuSans-69" x="35.205078"/>
     <use xlink:href="#DejaVuSans-6e" x="62.988281"/>
     <use xlink:href="#DejaVuSans-61" x="126.367188"/>
     <use xlink:href="#DejaVuSans-6c" x="187.646484"/>
     <use xlink:href="#DejaVuSans-20" x="215.429688"/>
     <use xlink:href="#DejaVuSans-63" x="247.216797"/>
     <use xlink:href="#DejaVuSans-6f" x="302.197266"/>
     <use xlink:href="#DejaVuSans-73" x="363.378906"/>
     <use xlink:href="#DejaVuSans-69" x="415.478516"/>
     <use xlink:href="#DejaVuSans-6e" x="443.261719"/>
     <use xlink:href="#DejaVuSans-65" x="506.640625"/>
     <use xlink:href="#DejaVuSans-20" x="568.164062"/>
     <use xlink:href="#DejaVuSans-73" x="599.951172"/>
     <use xlink:href="#DejaVuSans-69" x="652.050781"/>
     <use xlink:href="#DejaVuSans-6d" x="679.833984"/>
     <use xlink:href="#DejaVuSans-69" x="777.246094"/>
     <use xlink:href="#DejaVuSans-6c" x="805.029297"/>
     <use xlink:href="#DejaVuSans-61" x="832.8125"/>
     <use xlink:href="#DejaVuSans-72" x="894.091797"/>
     <use xlink:href="#DejaVuSans-69" x="935.205078"/>
     <use xlink:href="#DejaVuSans-74" x="962.988281"/>
     <use xlink:href="#DejaVuSans-79" x="1002.197266"/>
     <use xlink:href="#DejaVuSans-20" x="1061.376953"/>
     <use xlink:href="#DejaVuSans-6f" x="1093.164062"/>
     <use xlink:href="#DejaVuSans-66" x="1154.345703"/>
     <use xlink:href="#DejaVuSans-20" x="1189.550781"/>
     <use xlink:href="#DejaVuSans-6d" x="1221.337891"/>
     <use xlink:href="#DejaVuSans-61" x="1318.75"/>
     <use xlink:href="#DejaVuSans-78" x="1380.029297"/>
     <use xlink:href="#DejaVuSans-5f" x="1439.208984"/>
     <use xlink:href="#DejaVuSans-66" x="1489.208984"/>
     <use xlink:href="#DejaVuSans-73" x="1524.414062"/>
     <use xlink:href="#DejaVuSans-5f" x="1576.513672"/>
     <use xlink:href="#DejaVuSans-67" x="1626.513672"/>
     <use xlink:href="#DejaVuSans-6c" x="1689.990234"/>
     <use xlink:href="#DejaVuSans-69" x="1717.773438"/>
     <use xlink:href="#DejaVuSans-74" x="1745.556641"/>
     <use xlink:href="#DejaVuSans-20" x="1784.765625"/>
     <use xlink:href="#DejaVuSans-28" x="1816.552734"/>
     <use xlink:href="#DejaVuSans-62" x="1855.566406"/>
     <use xlink:href="#DejaVuSans-65" x="1919.042969"/>
     <use xlink:href="#DejaVuSans-74" x="1980.566406"/>
     <use xlink:href="#DejaVuSans-77" x="2019.775391"/>
     <use xlink:href="#DejaVuSans-65" x="2101.5625"/>
     <use xlink:href="#DejaVuSans-65" x="2163.085938"/>
     <use xlink:href="#DejaVuSans-6e" x="2224.609375"/>
     <use xlink:href="#DejaVuSans-46" x="2287.988281"/>
     <use xlink:href="#DejaVuSans-69" x="2338.257812"/>
     <use xlink:href="#DejaVuSans-6e" x="2366.041016"/>
     <use xlink:href="#DejaVuSans-61" x="2429.419922"/>
     <use xlink:href="#DejaVuSans-6c" x="2490.699219"/>
     <use xlink:href="#DejaVuSans-73" x="2518.482422"/>
     <use xlink:href="#DejaVuSans-56" x="2570.582031"/>
     <use xlink:href="#DejaVuSans-61" x="2631.240234"/>
     <use xlink:href="#DejaVuSans-72" x="2692.519531"/>
     <use xlink:href="#DejaVuSans-69" x="2733.632812"/>
     <use xlink:href="#DejaVuSans-65" x="2761.416016"/>
     <use xlink:href="#DejaVuSans-74" x="2822.939453"/>
     <use xlink:href="#DejaVuSans-79" x="2862.148438"/>
     <use xlink:href="#DejaVuSans-29" x="2921.328125"/>
     <use xlink:href="#DejaVuSans-2c" x="2960.341797"/>
     <use xlink:href="#DejaVuSans-20" x="2992.128906"/>
     <use xlink:href="#DejaVuSans-62" x="3023.916016"/>
     <use xlink:href="#DejaVuSans-79" x="3087.392578"/>
     <use xlink:href="#DejaVuSans-20" x="3146.572266"/>
     <use xlink:href="#DejaVuSans-69" x="3178.359375"/>
     <use xlink:href="#DejaVuSans-74" x="3206.142578"/>
     <use xlink:href="#DejaVuSans-65" x="3245.351562"/>
     <use xlink:href="#DejaVuSans-72" x="3306.875"/>
     <use xlink:href="#DejaVuSans-61" x="3347.988281"/>
     <use xlink:href="#DejaVuSans-74" x="3409.267578"/>
     <use xlink:href="#DejaVuSans-69" x="3448.476562"/>
     <use xlink:href="#DejaVuSans-6f" x="3476.259766"/>
     <use xlink:href="#DejaVuSans-6e" x="3537.441406"/>
    </g>
   </g>
  </g>
 </g>
 <defs>
  <clipPath id="p0459fbc5f1">
   <rect x="180" y="86.4" width="1116" height="554.4"/>
  </clipPath>
 </defs>
</svg>
