<?xml version="1.0" encoding="utf-8" standalone="no"?>
<!DOCTYPE svg PUBLIC "-//W3C//DTD SVG 1.1//EN"
  "http://www.w3.org/Graphics/SVG/1.1/DTD/svg11.dtd">
<svg xmlns:xlink="http://www.w3.org/1999/xlink" width="1440pt" height="720pt" viewBox="0 0 1440 720" xmlns="http://www.w3.org/2000/svg" version="1.1">
 <metadata>
  <rdf:RDF xmlns:dc="http://purl.org/dc/elements/1.1/" xmlns:cc="http://creativecommons.org/ns#" xmlns:rdf="http://www.w3.org/1999/02/22-rdf-syntax-ns#">
   <cc:Work>
    <dc:type rdf:resource="http://purl.org/dc/dcmitype/StillImage"/>
    <dc:date>2024-07-27T14:15:05.764887</dc:date>
    <dc:format>image/svg+xml</dc:format>
    <dc:creator>
     <cc:Agent>
      <dc:title>Matplotlib v3.8.0, https://matplotlib.org/</dc:title>
     </cc:Agent>
    </dc:creator>
   </cc:Work>
  </rdf:RDF>
 </metadata>
 <defs>
  <style type="text/css">*{stroke-linejoin: round; stroke-linecap: butt}</style>
 </defs>
 <g id="figure_1">
  <g id="patch_1">
   <path d="M 0 720 
L 1440 720 
L 1440 0 
L 0 0 
z
" style="fill: #ffffff"/>
  </g>
  <g id="axes_1">
   <g id="patch_2">
    <path d="M 180 640.8 
L 1296 640.8 
L 1296 86.4 
L 180 86.4 
z
" style="fill: #ffffff"/>
   </g>
   <g id="PolyCollection_1">
    <defs>
     <path id="mf329e2b813" d="M 235.805366 -118.365654 
L 235.794634 -118.365654 
L 235.782803 -122.963569 
L 235.754501 -127.561484 
L 235.69752 -132.159399 
L 235.597556 -136.757315 
L 235.439859 -141.35523 
L 235.208418 -145.953145 
L 234.879933 -150.55106 
L 234.417194 -155.148975 
L 233.772745 -159.74689 
L 232.903118 -164.344805 
L 231.783054 -168.942721 
L 230.410127 -173.540636 
L 228.784889 -178.138551 
L 226.87081 -182.736466 
L 224.59859 -187.334381 
L 221.955663 -191.932296 
L 219.06126 -196.530211 
L 216.102303 -201.128127 
L 213.175147 -205.726042 
L 210.214921 -210.323957 
L 207.138218 -214.921872 
L 204.062809 -219.519787 
L 201.283335 -224.117702 
L 198.989195 -228.715617 
L 197.1148 -233.313533 
L 195.497011 -237.911448 
L 194.071917 -242.509363 
L 192.898567 -247.107278 
L 192.06291 -251.705193 
L 191.561931 -256.303108 
L 191.286356 -260.901023 
L 191.16 -265.498939 
L 191.247047 -270.096854 
L 191.66703 -274.694769 
L 192.467142 -279.292684 
L 193.612303 -283.890599 
L 195.025829 -288.488514 
L 196.60577 -293.08643 
L 198.261118 -297.684345 
L 199.950443 -302.28226 
L 201.648186 -306.880175 
L 203.302303 -311.47809 
L 204.868146 -316.076005 
L 206.348061 -320.67392 
L 207.761043 -325.271836 
L 209.082547 -329.869751 
L 210.239597 -334.467666 
L 211.198997 -339.065581 
L 212.052518 -343.663496 
L 212.95463 -348.261411 
L 213.976978 -352.859326 
L 215.087146 -357.457242 
L 216.248116 -362.055157 
L 217.4597 -366.653072 
L 218.708803 -371.250987 
L 219.940946 -375.848902 
L 221.106536 -380.446817 
L 222.211706 -385.044732 
L 223.285917 -389.642648 
L 224.316573 -394.240563 
L 225.279018 -398.838478 
L 226.220395 -403.436393 
L 227.224143 -408.034308 
L 228.277676 -412.632223 
L 229.257984 -417.230138 
L 230.072323 -421.828054 
L 230.750684 -426.425969 
L 231.375681 -431.023884 
L 231.971214 -435.621799 
L 232.496405 -440.219714 
L 232.921333 -444.817629 
L 233.272365 -449.415544 
L 233.60909 -454.01346 
L 233.969413 -458.611375 
L 234.330405 -463.20929 
L 234.625246 -467.807205 
L 234.808086 -472.40512 
L 234.897504 -477.003035 
L 234.954824 -481.60095 
L 235.032911 -486.198866 
L 235.147818 -490.796781 
L 235.282105 -495.394696 
L 235.404503 -499.992611 
L 235.492083 -504.590526 
L 235.541359 -509.188441 
L 235.564241 -513.786356 
L 235.577271 -518.384272 
L 235.592164 -522.982187 
L 235.612175 -527.580102 
L 235.635843 -532.178017 
L 235.662299 -536.775932 
L 235.691187 -541.373847 
L 235.71989 -545.971762 
L 235.744468 -550.569678 
L 235.763107 -555.167593 
L 235.776818 -559.765508 
L 235.786979 -564.363423 
L 235.793891 -568.961338 
L 235.797723 -573.559253 
L 235.802277 -573.559253 
L 235.802277 -573.559253 
L 235.806109 -568.961338 
L 235.813021 -564.363423 
L 235.823182 -559.765508 
L 235.836893 -555.167593 
L 235.855532 -550.569678 
L 235.88011 -545.971762 
L 235.908813 -541.373847 
L 235.937701 -536.775932 
L 235.964157 -532.178017 
L 235.987825 -527.580102 
L 236.007836 -522.982187 
L 236.022729 -518.384272 
L 236.035759 -513.786356 
L 236.058641 -509.188441 
L 236.107917 -504.590526 
L 236.195497 -499.992611 
L 236.317895 -495.394696 
L 236.452182 -490.796781 
L 236.567089 -486.198866 
L 236.645176 -481.60095 
L 236.702496 -477.003035 
L 236.791914 -472.40512 
L 236.974754 -467.807205 
L 237.269595 -463.20929 
L 237.630587 -458.611375 
L 237.99091 -454.01346 
L 238.327635 -449.415544 
L 238.678667 -444.817629 
L 239.103595 -440.219714 
L 239.628786 -435.621799 
L 240.224319 -431.023884 
L 240.849316 -426.425969 
L 241.527677 -421.828054 
L 242.342016 -417.230138 
L 243.322324 -412.632223 
L 244.375857 -408.034308 
L 245.379605 -403.436393 
L 246.320982 -398.838478 
L 247.283427 -394.240563 
L 248.314083 -389.642648 
L 249.388294 -385.044732 
L 250.493464 -380.446817 
L 251.659054 -375.848902 
L 252.891197 -371.250987 
L 254.1403 -366.653072 
L 255.351884 -362.055157 
L 256.512854 -357.457242 
L 257.623022 -352.859326 
L 258.64537 -348.261411 
L 259.547482 -343.663496 
L 260.401003 -339.065581 
L 261.360403 -334.467666 
L 262.517453 -329.869751 
L 263.838957 -325.271836 
L 265.251939 -320.67392 
L 266.731854 -316.076005 
L 268.297697 -311.47809 
L 269.951814 -306.880175 
L 271.649557 -302.28226 
L 273.338882 -297.684345 
L 274.99423 -293.08643 
L 276.574171 -288.488514 
L 277.987697 -283.890599 
L 279.132858 -279.292684 
L 279.93297 -274.694769 
L 280.352953 -270.096854 
L 280.44 -265.498939 
L 280.313644 -260.901023 
L 280.038069 -256.303108 
L 279.53709 -251.705193 
L 278.701433 -247.107278 
L 277.528083 -242.509363 
L 276.102989 -237.911448 
L 274.4852 -233.313533 
L 272.610805 -228.715617 
L 270.316665 -224.117702 
L 267.537191 -219.519787 
L 264.461782 -214.921872 
L 261.385079 -210.323957 
L 258.424853 -205.726042 
L 255.497697 -201.128127 
L 252.53874 -196.530211 
L 249.644337 -191.932296 
L 247.00141 -187.334381 
L 244.72919 -182.736466 
L 242.815111 -178.138551 
L 241.189873 -173.540636 
L 239.816946 -168.942721 
L 238.696882 -164.344805 
L 237.827255 -159.74689 
L 237.182806 -155.148975 
L 236.720067 -150.55106 
L 236.391582 -145.953145 
L 236.160141 -141.35523 
L 236.002444 -136.757315 
L 235.90248 -132.159399 
L 235.845499 -127.561484 
L 235.817197 -122.963569 
L 235.805366 -118.365654 
z
" style="stroke: #3f3f3f; stroke-width: 1.25"/>
    </defs>
    <g clip-path="url(#pee8e1114e7)">
     <use xlink:href="#mf329e2b813" x="0" y="720" style="fill: #3274a1; stroke: #3f3f3f; stroke-width: 1.25"/>
    </g>
   </g>
   <g id="PolyCollection_2">
    <defs>
     <path id="mff6b446d6a" d="M 347.405772 -123.774832 
L 347.394228 -123.774832 
L 347.381442 -128.241608 
L 347.351193 -132.708383 
L 347.292081 -137.175159 
L 347.191761 -141.641935 
L 347.034225 -146.108711 
L 346.795261 -150.575487 
L 346.445883 -155.042263 
L 345.961796 -159.509039 
L 345.322116 -163.975815 
L 344.501792 -168.442591 
L 343.484613 -172.909367 
L 342.28205 -177.376143 
L 340.908757 -181.842919 
L 339.337397 -186.309695 
L 337.514913 -190.776471 
L 335.434481 -195.243247 
L 333.170608 -199.710023 
L 330.840365 -204.176799 
L 328.531551 -208.643575 
L 326.252315 -213.110351 
L 323.942735 -217.577127 
L 321.548814 -222.043903 
L 319.107764 -226.510679 
L 316.774761 -230.977455 
L 314.74958 -235.444231 
L 313.13098 -239.911006 
L 311.822803 -244.377782 
L 310.620757 -248.844558 
L 309.411556 -253.311334 
L 308.252101 -257.77811 
L 307.251744 -262.244886 
L 306.436015 -266.711662 
L 305.756769 -271.178438 
L 305.199841 -275.645214 
L 304.837741 -280.11199 
L 304.773984 -284.578766 
L 305.057541 -289.045542 
L 305.65185 -293.512318 
L 306.4613 -297.979094 
L 307.376982 -302.44587 
L 308.330648 -306.912646 
L 309.332732 -311.379422 
L 310.418061 -315.846198 
L 311.534578 -320.312974 
L 312.573961 -324.77975 
L 313.557042 -329.246526 
L 314.668385 -333.713302 
L 316.030215 -338.180078 
L 317.555858 -342.646854 
L 319.085975 -347.113629 
L 320.554538 -351.580405 
L 321.988994 -356.047181 
L 323.45442 -360.513957 
L 325.017404 -364.980733 
L 326.692236 -369.447509 
L 328.403149 -373.914285 
L 330.020632 -378.381061 
L 331.448662 -382.847837 
L 332.69032 -387.314613 
L 333.829255 -391.781389 
L 334.940901 -396.248165 
L 336.030068 -400.714941 
L 337.058163 -405.181717 
L 338.008796 -409.648493 
L 338.911806 -414.115269 
L 339.816048 -418.582045 
L 340.736747 -423.048821 
L 341.615513 -427.515597 
L 342.354536 -431.982373 
L 342.915001 -436.449149 
L 343.360512 -440.915925 
L 343.7838 -445.382701 
L 344.218076 -449.849476 
L 344.641135 -454.316252 
L 345.031864 -458.783028 
L 345.387445 -463.249804 
L 345.703499 -467.71658 
L 345.970852 -472.183356 
L 346.191725 -476.650132 
L 346.3805 -481.116908 
L 346.546871 -485.583684 
L 346.690816 -490.05046 
L 346.812598 -494.517236 
L 346.915524 -498.984012 
L 347.001394 -503.450788 
L 347.071692 -507.917564 
L 347.12941 -512.38434 
L 347.175161 -516.851116 
L 347.206872 -521.317892 
L 347.227313 -525.784668 
L 347.246812 -530.251444 
L 347.273656 -534.71822 
L 347.305488 -539.184996 
L 347.334353 -543.651772 
L 347.356367 -548.118548 
L 347.372716 -552.585324 
L 347.3849 -557.052099 
L 347.393042 -561.518875 
L 347.397434 -565.985651 
L 347.402566 -565.985651 
L 347.402566 -565.985651 
L 347.406958 -561.518875 
L 347.4151 -557.052099 
L 347.427284 -552.585324 
L 347.443633 -548.118548 
L 347.465647 -543.651772 
L 347.494512 -539.184996 
L 347.526344 -534.71822 
L 347.553188 -530.251444 
L 347.572687 -525.784668 
L 347.593128 -521.317892 
L 347.624839 -516.851116 
L 347.67059 -512.38434 
L 347.728308 -507.917564 
L 347.798606 -503.450788 
L 347.884476 -498.984012 
L 347.987402 -494.517236 
L 348.109184 -490.05046 
L 348.253129 -485.583684 
L 348.4195 -481.116908 
L 348.608275 -476.650132 
L 348.829148 -472.183356 
L 349.096501 -467.71658 
L 349.412555 -463.249804 
L 349.768136 -458.783028 
L 350.158865 -454.316252 
L 350.581924 -449.849476 
L 351.0162 -445.382701 
L 351.439488 -440.915925 
L 351.884999 -436.449149 
L 352.445464 -431.982373 
L 353.184487 -427.515597 
L 354.063253 -423.048821 
L 354.983952 -418.582045 
L 355.888194 -414.115269 
L 356.791204 -409.648493 
L 357.741837 -405.181717 
L 358.769932 -400.714941 
L 359.859099 -396.248165 
L 360.970745 -391.781389 
L 362.10968 -387.314613 
L 363.351338 -382.847837 
L 364.779368 -378.381061 
L 366.396851 -373.914285 
L 368.107764 -369.447509 
L 369.782596 -364.980733 
L 371.34558 -360.513957 
L 372.811006 -356.047181 
L 374.245462 -351.580405 
L 375.714025 -347.113629 
L 377.244142 -342.646854 
L 378.769785 -338.180078 
L 380.131615 -333.713302 
L 381.242958 -329.246526 
L 382.226039 -324.77975 
L 383.265422 -320.312974 
L 384.381939 -315.846198 
L 385.467268 -311.379422 
L 386.469352 -306.912646 
L 387.423018 -302.44587 
L 388.3387 -297.979094 
L 389.14815 -293.512318 
L 389.742459 -289.045542 
L 390.026016 -284.578766 
L 389.962259 -280.11199 
L 389.600159 -275.645214 
L 389.043231 -271.178438 
L 388.363985 -266.711662 
L 387.548256 -262.244886 
L 386.547899 -257.77811 
L 385.388444 -253.311334 
L 384.179243 -248.844558 
L 382.977197 -244.377782 
L 381.66902 -239.911006 
L 380.05042 -235.444231 
L 378.025239 -230.977455 
L 375.692236 -226.510679 
L 373.251186 -222.043903 
L 370.857265 -217.577127 
L 368.547685 -213.110351 
L 366.268449 -208.643575 
L 363.959635 -204.176799 
L 361.629392 -199.710023 
L 359.365519 -195.243247 
L 357.285087 -190.776471 
L 355.462603 -186.309695 
L 353.891243 -181.842919 
L 352.51795 -177.376143 
L 351.315387 -172.909367 
L 350.298208 -168.442591 
L 349.477884 -163.975815 
L 348.838204 -159.509039 
L 348.354117 -155.042263 
L 348.004739 -150.575487 
L 347.765775 -146.108711 
L 347.608239 -141.641935 
L 347.507919 -137.175159 
L 347.448807 -132.708383 
L 347.418558 -128.241608 
L 347.405772 -123.774832 
z
" style="stroke: #3f3f3f; stroke-width: 1.25"/>
    </defs>
    <g clip-path="url(#pee8e1114e7)">
     <use xlink:href="#mff6b446d6a" x="0" y="720" style="fill: #3274a1; stroke: #3f3f3f; stroke-width: 1.25"/>
    </g>
   </g>
   <g id="PolyCollection_3">
    <defs>
     <path id="m7f8b0b8547" d="M 459.002123 -104.767534 
L 458.997877 -104.767534 
L 458.994401 -109.661702 
L 458.989121 -114.55587 
L 458.984007 -119.450037 
L 458.980548 -124.344205 
L 458.975687 -129.238373 
L 458.96165 -134.13254 
L 458.928828 -139.026708 
L 458.863235 -143.920875 
L 458.740062 -148.815043 
L 458.530506 -153.709211 
L 458.223378 -158.603378 
L 457.828092 -163.497546 
L 457.345392 -168.391714 
L 456.74724 -173.285881 
L 455.984315 -178.180049 
L 454.989936 -183.074217 
L 453.684302 -187.968384 
L 452.003788 -192.862552 
L 449.938989 -197.756719 
L 447.555957 -202.650887 
L 444.981225 -207.545055 
L 442.345741 -212.439222 
L 439.717942 -217.33339 
L 437.067231 -222.227558 
L 434.303438 -227.121725 
L 431.398152 -232.015893 
L 428.47293 -236.910061 
L 425.736705 -241.804228 
L 423.36405 -246.698396 
L 421.460863 -251.592563 
L 420.057679 -256.486731 
L 419.07458 -261.380899 
L 418.357456 -266.275066 
L 417.793933 -271.169234 
L 417.385628 -276.063402 
L 417.224514 -280.957569 
L 417.422039 -285.851737 
L 418.014327 -290.745905 
L 418.886489 -295.640072 
L 419.827785 -300.53424 
L 420.696117 -305.428407 
L 421.510456 -310.322575 
L 422.358231 -315.216743 
L 423.227339 -320.11091 
L 424.012915 -325.005078 
L 424.702537 -329.899246 
L 425.432238 -334.793413 
L 426.348452 -339.687581 
L 427.520778 -344.581749 
L 428.950754 -349.475916 
L 430.58732 -354.370084 
L 432.373153 -359.264251 
L 434.25635 -364.158419 
L 436.111012 -369.052587 
L 437.750862 -373.946754 
L 439.092182 -378.840922 
L 440.244478 -383.73509 
L 441.427779 -388.629257 
L 442.811163 -393.523425 
L 444.389998 -398.417593 
L 445.992779 -403.31176 
L 447.408638 -408.205928 
L 448.527532 -413.100095 
L 449.40013 -417.994263 
L 450.182244 -422.888431 
L 450.997775 -427.782598 
L 451.841709 -432.676766 
L 452.625895 -437.570934 
L 453.304636 -442.465101 
L 453.926613 -447.359269 
L 454.567423 -452.253437 
L 455.235506 -457.147604 
L 455.859907 -462.041772 
L 456.365992 -466.935939 
L 456.744241 -471.830107 
L 457.041177 -476.724275 
L 457.307559 -481.618442 
L 457.570706 -486.51261 
L 457.833681 -491.406778 
L 458.076047 -496.300945 
L 458.26901 -501.195113 
L 458.407121 -506.089281 
L 458.512333 -510.983448 
L 458.602174 -515.877616 
L 458.673028 -520.771783 
L 458.719183 -525.665951 
L 458.75107 -530.560119 
L 458.786715 -535.454286 
L 458.834013 -540.348454 
L 458.886678 -545.242622 
L 458.932939 -550.136789 
L 458.964628 -555.030957 
L 458.980295 -559.925125 
L 458.984178 -564.819292 
L 458.983619 -569.71346 
L 458.984853 -574.607627 
L 458.989295 -579.501795 
L 458.994428 -584.395963 
L 458.997881 -589.29013 
L 459.002119 -589.29013 
L 459.002119 -589.29013 
L 459.005572 -584.395963 
L 459.010705 -579.501795 
L 459.015147 -574.607627 
L 459.016381 -569.71346 
L 459.015822 -564.819292 
L 459.019705 -559.925125 
L 459.035372 -555.030957 
L 459.067061 -550.136789 
L 459.113322 -545.242622 
L 459.165987 -540.348454 
L 459.213285 -535.454286 
L 459.24893 -530.560119 
L 459.280817 -525.665951 
L 459.326972 -520.771783 
L 459.397826 -515.877616 
L 459.487667 -510.983448 
L 459.592879 -506.089281 
L 459.73099 -501.195113 
L 459.923953 -496.300945 
L 460.166319 -491.406778 
L 460.429294 -486.51261 
L 460.692441 -481.618442 
L 460.958823 -476.724275 
L 461.255759 -471.830107 
L 461.634008 -466.935939 
L 462.140093 -462.041772 
L 462.764494 -457.147604 
L 463.432577 -452.253437 
L 464.073387 -447.359269 
L 464.695364 -442.465101 
L 465.374105 -437.570934 
L 466.158291 -432.676766 
L 467.002225 -427.782598 
L 467.817756 -422.888431 
L 468.59987 -417.994263 
L 469.472468 -413.100095 
L 470.591362 -408.205928 
L 472.007221 -403.31176 
L 473.610002 -398.417593 
L 475.188837 -393.523425 
L 476.572221 -388.629257 
L 477.755522 -383.73509 
L 478.907818 -378.840922 
L 480.249138 -373.946754 
L 481.888988 -369.052587 
L 483.74365 -364.158419 
L 485.626847 -359.264251 
L 487.41268 -354.370084 
L 489.049246 -349.475916 
L 490.479222 -344.581749 
L 491.651548 -339.687581 
L 492.567762 -334.793413 
L 493.297463 -329.899246 
L 493.987085 -325.005078 
L 494.772661 -320.11091 
L 495.641769 -315.216743 
L 496.489544 -310.322575 
L 497.303883 -305.428407 
L 498.172215 -300.53424 
L 499.113511 -295.640072 
L 499.985673 -290.745905 
L 500.577961 -285.851737 
L 500.775486 -280.957569 
L 500.614372 -276.063402 
L 500.206067 -271.169234 
L 499.642544 -266.275066 
L 498.92542 -261.380899 
L 497.942321 -256.486731 
L 496.539137 -251.592563 
L 494.63595 -246.698396 
L 492.263295 -241.804228 
L 489.52707 -236.910061 
L 486.601848 -232.015893 
L 483.696562 -227.121725 
L 480.932769 -222.227558 
L 478.282058 -217.33339 
L 475.654259 -212.439222 
L 473.018775 -207.545055 
L 470.444043 -202.650887 
L 468.061011 -197.756719 
L 465.996212 -192.862552 
L 464.315698 -187.968384 
L 463.010064 -183.074217 
L 462.015685 -178.180049 
L 461.25276 -173.285881 
L 460.654608 -168.391714 
L 460.171908 -163.497546 
L 459.776622 -158.603378 
L 459.469494 -153.709211 
L 459.259938 -148.815043 
L 459.136765 -143.920875 
L 459.071172 -139.026708 
L 459.03835 -134.13254 
L 459.024313 -129.238373 
L 459.019452 -124.344205 
L 459.015993 -119.450037 
L 459.010879 -114.55587 
L 459.005599 -109.661702 
L 459.002123 -104.767534 
z
" style="stroke: #3f3f3f; stroke-width: 1.25"/>
    </defs>
    <g clip-path="url(#pee8e1114e7)">
     <use xlink:href="#m7f8b0b8547" x="0" y="720" style="fill: #3274a1; stroke: #3f3f3f; stroke-width: 1.25"/>
    </g>
   </g>
   <g id="PolyCollection_4">
    <defs>
     <path id="m297a81ea22" d="M 570.602077 -104.4 
L 570.597923 -104.4 
L 570.594791 -109.103115 
L 570.59007 -113.806231 
L 570.585394 -118.509346 
L 570.582451 -123.212461 
L 570.579558 -127.915576 
L 570.570203 -132.618692 
L 570.545528 -137.321807 
L 570.496634 -142.024922 
L 570.413119 -146.728038 
L 570.282547 -151.431153 
L 570.095217 -156.134268 
L 569.844152 -160.837384 
L 569.511622 -165.540499 
L 569.061297 -170.243614 
L 568.45618 -174.946729 
L 567.680393 -179.649845 
L 566.730823 -184.35296 
L 565.585262 -189.056075 
L 564.184047 -193.759191 
L 562.454158 -198.462306 
L 560.368151 -203.165421 
L 557.990373 -207.868536 
L 555.462846 -212.571652 
L 552.927025 -217.274767 
L 550.439123 -221.977882 
L 547.963358 -226.680998 
L 545.459819 -231.384113 
L 542.977718 -236.087228 
L 540.652241 -240.790343 
L 538.60018 -245.493459 
L 536.814083 -250.196574 
L 535.189514 -254.899689 
L 533.694874 -259.602805 
L 532.463572 -264.30592 
L 531.650897 -269.009035 
L 531.254411 -273.712151 
L 531.135353 -278.415266 
L 531.166507 -283.118381 
L 531.317674 -287.821496 
L 531.61691 -292.524612 
L 532.039346 -297.227727 
L 532.462941 -301.930842 
L 532.799179 -306.633958 
L 533.142361 -311.337073 
L 533.67159 -316.040188 
L 534.405259 -320.743303 
L 535.178969 -325.446419 
L 535.881262 -330.149534 
L 536.594962 -334.852649 
L 537.465649 -339.555765 
L 538.518703 -344.25888 
L 539.674187 -348.961995 
L 540.893039 -353.665111 
L 542.220736 -358.368226 
L 543.675137 -363.071341 
L 545.156211 -367.774456 
L 546.525765 -372.477572 
L 547.758901 -377.180687 
L 548.961743 -381.883802 
L 550.250626 -386.586918 
L 551.657885 -391.290033 
L 553.131484 -395.993148 
L 554.572426 -400.696263 
L 555.878776 -405.399379 
L 557.002136 -410.102494 
L 557.981606 -414.805609 
L 558.908592 -419.508725 
L 559.852016 -424.21184 
L 560.82064 -428.914955 
L 561.786514 -433.618071 
L 562.725258 -438.321186 
L 563.627506 -443.024301 
L 564.484099 -447.727416 
L 565.27996 -452.430532 
L 566.006433 -457.133647 
L 566.665082 -461.836762 
L 567.259145 -466.539878 
L 567.791398 -471.242993 
L 568.259032 -475.946108 
L 568.64736 -480.649223 
L 568.950203 -485.352339 
L 569.192132 -490.055454 
L 569.406628 -494.758569 
L 569.603429 -499.461685 
L 569.777444 -504.1648 
L 569.932814 -508.867915 
L 570.077983 -513.57103 
L 570.208938 -518.274146 
L 570.313653 -522.977261 
L 570.388009 -527.680376 
L 570.437925 -532.383492 
L 570.470886 -537.086607 
L 570.493508 -541.789722 
L 570.513348 -546.492838 
L 570.535587 -551.195953 
L 570.55896 -555.899068 
L 570.578413 -560.602183 
L 570.590817 -565.305299 
L 570.596883 -570.008414 
L 570.603117 -570.008414 
L 570.603117 -570.008414 
L 570.609183 -565.305299 
L 570.621587 -560.602183 
L 570.64104 -555.899068 
L 570.664413 -551.195953 
L 570.686652 -546.492838 
L 570.706492 -541.789722 
L 570.729114 -537.086607 
L 570.762075 -532.383492 
L 570.811991 -527.680376 
L 570.886347 -522.977261 
L 570.991062 -518.274146 
L 571.122017 -513.57103 
L 571.267186 -508.867915 
L 571.422556 -504.1648 
L 571.596571 -499.461685 
L 571.793372 -494.758569 
L 572.007868 -490.055454 
L 572.249797 -485.352339 
L 572.55264 -480.649223 
L 572.940968 -475.946108 
L 573.408602 -471.242993 
L 573.940855 -466.539878 
L 574.534918 -461.836762 
L 575.193567 -457.133647 
L 575.92004 -452.430532 
L 576.715901 -447.727416 
L 577.572494 -443.024301 
L 578.474742 -438.321186 
L 579.413486 -433.618071 
L 580.37936 -428.914955 
L 581.347984 -424.21184 
L 582.291408 -419.508725 
L 583.218394 -414.805609 
L 584.197864 -410.102494 
L 585.321224 -405.399379 
L 586.627574 -400.696263 
L 588.068516 -395.993148 
L 589.542115 -391.290033 
L 590.949374 -386.586918 
L 592.238257 -381.883802 
L 593.441099 -377.180687 
L 594.674235 -372.477572 
L 596.043789 -367.774456 
L 597.524863 -363.071341 
L 598.979264 -358.368226 
L 600.306961 -353.665111 
L 601.525813 -348.961995 
L 602.681297 -344.25888 
L 603.734351 -339.555765 
L 604.605038 -334.852649 
L 605.318738 -330.149534 
L 606.021031 -325.446419 
L 606.794741 -320.743303 
L 607.52841 -316.040188 
L 608.057639 -311.337073 
L 608.400821 -306.633958 
L 608.737059 -301.930842 
L 609.160654 -297.227727 
L 609.58309 -292.524612 
L 609.882326 -287.821496 
L 610.033493 -283.118381 
L 610.064647 -278.415266 
L 609.945589 -273.712151 
L 609.549103 -269.009035 
L 608.736428 -264.30592 
L 607.505126 -259.602805 
L 606.010486 -254.899689 
L 604.385917 -250.196574 
L 602.59982 -245.493459 
L 600.547759 -240.790343 
L 598.222282 -236.087228 
L 595.740181 -231.384113 
L 593.236642 -226.680998 
L 590.760877 -221.977882 
L 588.272975 -217.274767 
L 585.737154 -212.571652 
L 583.209627 -207.868536 
L 580.831849 -203.165421 
L 578.745842 -198.462306 
L 577.015953 -193.759191 
L 575.614738 -189.056075 
L 574.469177 -184.35296 
L 573.519607 -179.649845 
L 572.74382 -174.946729 
L 572.138703 -170.243614 
L 571.688378 -165.540499 
L 571.355848 -160.837384 
L 571.104783 -156.134268 
L 570.917453 -151.431153 
L 570.786881 -146.728038 
L 570.703366 -142.024922 
L 570.654472 -137.321807 
L 570.629797 -132.618692 
L 570.620442 -127.915576 
L 570.617549 -123.212461 
L 570.614606 -118.509346 
L 570.60993 -113.806231 
L 570.605209 -109.103115 
L 570.602077 -104.4 
z
" style="stroke: #3f3f3f; stroke-width: 1.25"/>
    </defs>
    <g clip-path="url(#pee8e1114e7)">
     <use xlink:href="#m297a81ea22" x="0" y="720" style="fill: #3274a1; stroke: #3f3f3f; stroke-width: 1.25"/>
    </g>
   </g>
   <g id="PolyCollection_5">
    <defs>
     <path id="m153c268ad4" d="M 682.203004 -128.816165 
L 682.196996 -128.816165 
L 682.191034 -133.26968 
L 682.177285 -137.723195 
L 682.150033 -142.176711 
L 682.10265 -146.630226 
L 682.028518 -151.083741 
L 681.919893 -155.537256 
L 681.763974 -159.990771 
L 681.540726 -164.444287 
L 681.227044 -168.897802 
L 680.801961 -173.351317 
L 680.243977 -177.804832 
L 679.525894 -182.258347 
L 678.614986 -186.711862 
L 677.467493 -191.165378 
L 676.023401 -195.618893 
L 674.240275 -200.072408 
L 672.155806 -204.525923 
L 669.900233 -208.979438 
L 667.623525 -213.432954 
L 665.401418 -217.886469 
L 663.208369 -222.339984 
L 660.982919 -226.793499 
L 658.729977 -231.247014 
L 656.563728 -235.70053 
L 654.635341 -240.154045 
L 653.006085 -244.60756 
L 651.593911 -249.061075 
L 650.241136 -253.51459 
L 648.834909 -257.968105 
L 647.386679 -262.421621 
L 646.023754 -266.875136 
L 644.915148 -271.328651 
L 644.180432 -275.782166 
L 643.816997 -280.235681 
L 643.702459 -284.689197 
L 643.698351 -289.142712 
L 643.750496 -293.596227 
L 643.874786 -298.049742 
L 644.08477 -302.503257 
L 644.368176 -306.956773 
L 644.693683 -311.410288 
L 645.000295 -315.863803 
L 645.218985 -320.317318 
L 645.357158 -324.770833 
L 645.548907 -329.224349 
L 645.977047 -333.677864 
L 646.721588 -338.131379 
L 647.677141 -342.584894 
L 648.632085 -347.038409 
L 649.469409 -351.491924 
L 650.298565 -355.94544 
L 651.347108 -360.398955 
L 652.714817 -364.85247 
L 654.278893 -369.305985 
L 655.840461 -373.7595 
L 657.307131 -378.213016 
L 658.720549 -382.666531 
L 660.161141 -387.120046 
L 661.662217 -391.573561 
L 663.195472 -396.027076 
L 664.704185 -400.480592 
L 666.13859 -404.934107 
L 667.473676 -409.387622 
L 668.711607 -413.841137 
L 669.868563 -418.294652 
L 670.95314 -422.748168 
L 671.959965 -427.201683 
L 672.887579 -431.655198 
L 673.75571 -436.108713 
L 674.596347 -440.562228 
L 675.4291 -445.015743 
L 676.248626 -449.469259 
L 677.030322 -453.922774 
L 677.744248 -458.376289 
L 678.374506 -462.829804 
L 678.935607 -467.283319 
L 679.460752 -471.736835 
L 679.962479 -476.19035 
L 680.413205 -480.643865 
L 680.774954 -485.09738 
L 681.04034 -489.550895 
L 681.236895 -494.004411 
L 681.400665 -498.457926 
L 681.553035 -502.911441 
L 681.695287 -507.364956 
L 681.816788 -511.818471 
L 681.908328 -516.271986 
L 681.970278 -520.725502 
L 682.011179 -525.179017 
L 682.041759 -529.632532 
L 682.069762 -534.086047 
L 682.097564 -538.539562 
L 682.123424 -542.993078 
L 682.145119 -547.446593 
L 682.162367 -551.900108 
L 682.176084 -556.353623 
L 682.18662 -560.807138 
L 682.193719 -565.260654 
L 682.197608 -569.714169 
L 682.202392 -569.714169 
L 682.202392 -569.714169 
L 682.206281 -565.260654 
L 682.21338 -560.807138 
L 682.223916 -556.353623 
L 682.237633 -551.900108 
L 682.254881 -547.446593 
L 682.276576 -542.993078 
L 682.302436 -538.539562 
L 682.330238 -534.086047 
L 682.358241 -529.632532 
L 682.388821 -525.179017 
L 682.429722 -520.725502 
L 682.491672 -516.271986 
L 682.583212 -511.818471 
L 682.704713 -507.364956 
L 682.846965 -502.911441 
L 682.999335 -498.457926 
L 683.163105 -494.004411 
L 683.35966 -489.550895 
L 683.625046 -485.09738 
L 683.986795 -480.643865 
L 684.437521 -476.19035 
L 684.939248 -471.736835 
L 685.464393 -467.283319 
L 686.025494 -462.829804 
L 686.655752 -458.376289 
L 687.369678 -453.922774 
L 688.151374 -449.469259 
L 688.9709 -445.015743 
L 689.803653 -440.562228 
L 690.64429 -436.108713 
L 691.512421 -431.655198 
L 692.440035 -427.201683 
L 693.44686 -422.748168 
L 694.531437 -418.294652 
L 695.688393 -413.841137 
L 696.926324 -409.387622 
L 698.26141 -404.934107 
L 699.695815 -400.480592 
L 701.204528 -396.027076 
L 702.737783 -391.573561 
L 704.238859 -387.120046 
L 705.679451 -382.666531 
L 707.092869 -378.213016 
L 708.559539 -373.7595 
L 710.121107 -369.305985 
L 711.685183 -364.85247 
L 713.052892 -360.398955 
L 714.101435 -355.94544 
L 714.930591 -351.491924 
L 715.767915 -347.038409 
L 716.722859 -342.584894 
L 717.678412 -338.131379 
L 718.422953 -333.677864 
L 718.851093 -329.224349 
L 719.042842 -324.770833 
L 719.181015 -320.317318 
L 719.399705 -315.863803 
L 719.706317 -311.410288 
L 720.031824 -306.956773 
L 720.31523 -302.503257 
L 720.525214 -298.049742 
L 720.649504 -293.596227 
L 720.701649 -289.142712 
L 720.697541 -284.689197 
L 720.583003 -280.235681 
L 720.219568 -275.782166 
L 719.484852 -271.328651 
L 718.376246 -266.875136 
L 717.013321 -262.421621 
L 715.565091 -257.968105 
L 714.158864 -253.51459 
L 712.806089 -249.061075 
L 711.393915 -244.60756 
L 709.764659 -240.154045 
L 707.836272 -235.70053 
L 705.670023 -231.247014 
L 703.417081 -226.793499 
L 701.191631 -222.339984 
L 698.998582 -217.886469 
L 696.776475 -213.432954 
L 694.499767 -208.979438 
L 692.244194 -204.525923 
L 690.159725 -200.072408 
L 688.376599 -195.618893 
L 686.932507 -191.165378 
L 685.785014 -186.711862 
L 684.874106 -182.258347 
L 684.156023 -177.804832 
L 683.598039 -173.351317 
L 683.172956 -168.897802 
L 682.859274 -164.444287 
L 682.636026 -159.990771 
L 682.480107 -155.537256 
L 682.371482 -151.083741 
L 682.29735 -146.630226 
L 682.249967 -142.176711 
L 682.222715 -137.723195 
L 682.208966 -133.26968 
L 682.203004 -128.816165 
z
" style="stroke: #3f3f3f; stroke-width: 1.25"/>
    </defs>
    <g clip-path="url(#pee8e1114e7)">
     <use xlink:href="#m153c268ad4" x="0" y="720" style="fill: #3274a1; stroke: #3f3f3f; stroke-width: 1.25"/>
    </g>
   </g>
   <g id="PolyCollection_6">
    <defs>
     <path id="m9647249f88" d="M 793.803218 -128.548679 
L 793.796782 -128.548679 
L 793.789381 -133.369214 
L 793.770837 -138.189749 
L 793.732004 -143.010284 
L 793.662954 -147.830819 
L 793.555528 -152.651354 
L 793.401695 -157.471889 
L 793.189426 -162.292425 
L 792.903782 -167.11296 
L 792.528086 -171.933495 
L 792.034062 -176.75403 
L 791.377667 -181.574565 
L 790.518458 -186.3951 
L 789.429097 -191.215635 
L 788.07201 -196.03617 
L 786.400183 -200.856705 
L 784.418693 -205.67724 
L 782.227514 -210.497776 
L 779.96191 -215.318311 
L 777.69071 -220.138846 
L 775.402347 -224.959381 
L 773.082348 -229.779916 
L 770.76851 -234.600451 
L 768.525651 -239.420986 
L 766.384539 -244.241521 
L 764.320411 -249.062056 
L 762.305497 -253.882591 
L 760.389794 -258.703127 
L 758.71869 -263.523662 
L 757.448149 -268.344197 
L 756.630942 -273.164732 
L 756.178517 -277.985267 
L 755.927052 -282.805802 
L 755.75716 -287.626337 
L 755.659459 -292.446872 
L 755.680404 -297.267407 
L 755.838606 -302.087942 
L 756.114343 -306.908477 
L 756.473569 -311.729013 
L 756.871122 -316.549548 
L 757.260162 -321.370083 
L 757.633404 -326.190618 
L 758.051447 -331.011153 
L 758.597853 -335.831688 
L 759.289547 -340.652223 
L 760.048385 -345.472758 
L 760.794053 -350.293293 
L 761.575382 -355.113828 
L 762.560291 -359.934364 
L 763.848127 -364.754899 
L 765.339857 -369.575434 
L 766.858925 -374.395969 
L 768.342504 -379.216504 
L 769.830943 -384.037039 
L 771.33383 -388.857574 
L 772.812633 -393.678109 
L 774.27178 -398.498644 
L 775.776733 -403.319179 
L 777.353659 -408.139715 
L 778.913527 -412.96025 
L 780.311389 -417.780785 
L 781.466242 -422.60132 
L 782.414527 -427.421855 
L 783.279248 -432.24239 
L 784.194996 -437.062925 
L 785.221434 -441.88346 
L 786.303938 -446.703995 
L 787.328093 -451.52453 
L 788.213166 -456.345066 
L 788.953925 -461.165601 
L 789.606262 -465.986136 
L 790.246787 -470.806671 
L 790.907637 -475.627206 
L 791.536491 -480.447741 
L 792.049921 -485.268276 
L 792.421683 -490.088811 
L 792.691446 -494.909346 
L 792.905018 -499.729881 
L 793.079399 -504.550417 
L 793.216506 -509.370952 
L 793.323488 -514.191487 
L 793.414341 -519.012022 
L 793.499589 -523.832557 
L 793.579525 -528.653092 
L 793.64777 -533.473627 
L 793.699054 -538.294162 
L 793.733206 -543.114697 
L 793.754251 -547.935232 
L 793.767726 -552.755767 
L 793.778038 -557.576303 
L 793.78668 -562.396838 
L 793.792634 -567.217373 
L 793.794528 -572.037908 
L 793.792323 -576.858443 
L 793.787944 -581.678978 
L 793.78484 -586.499513 
L 793.785663 -591.320048 
L 793.789888 -596.140583 
L 793.794688 -600.961118 
L 793.797922 -605.781654 
L 793.802078 -605.781654 
L 793.802078 -605.781654 
L 793.805312 -600.961118 
L 793.810112 -596.140583 
L 793.814337 -591.320048 
L 793.81516 -586.499513 
L 793.812056 -581.678978 
L 793.807677 -576.858443 
L 793.805472 -572.037908 
L 793.807366 -567.217373 
L 793.81332 -562.396838 
L 793.821962 -557.576303 
L 793.832274 -552.755767 
L 793.845749 -547.935232 
L 793.866794 -543.114697 
L 793.900946 -538.294162 
L 793.95223 -533.473627 
L 794.020475 -528.653092 
L 794.100411 -523.832557 
L 794.185659 -519.012022 
L 794.276512 -514.191487 
L 794.383494 -509.370952 
L 794.520601 -504.550417 
L 794.694982 -499.729881 
L 794.908554 -494.909346 
L 795.178317 -490.088811 
L 795.550079 -485.268276 
L 796.063509 -480.447741 
L 796.692363 -475.627206 
L 797.353213 -470.806671 
L 797.993738 -465.986136 
L 798.646075 -461.165601 
L 799.386834 -456.345066 
L 800.271907 -451.52453 
L 801.296062 -446.703995 
L 802.378566 -441.88346 
L 803.405004 -437.062925 
L 804.320752 -432.24239 
L 805.185473 -427.421855 
L 806.133758 -422.60132 
L 807.288611 -417.780785 
L 808.686473 -412.96025 
L 810.246341 -408.139715 
L 811.823267 -403.319179 
L 813.32822 -398.498644 
L 814.787367 -393.678109 
L 816.26617 -388.857574 
L 817.769057 -384.037039 
L 819.257496 -379.216504 
L 820.741075 -374.395969 
L 822.260143 -369.575434 
L 823.751873 -364.754899 
L 825.039709 -359.934364 
L 826.024618 -355.113828 
L 826.805947 -350.293293 
L 827.551615 -345.472758 
L 828.310453 -340.652223 
L 829.002147 -335.831688 
L 829.548553 -331.011153 
L 829.966596 -326.190618 
L 830.339838 -321.370083 
L 830.728878 -316.549548 
L 831.126431 -311.729013 
L 831.485657 -306.908477 
L 831.761394 -302.087942 
L 831.919596 -297.267407 
L 831.940541 -292.446872 
L 831.84284 -287.626337 
L 831.672948 -282.805802 
L 831.421483 -277.985267 
L 830.969058 -273.164732 
L 830.151851 -268.344197 
L 828.88131 -263.523662 
L 827.210206 -258.703127 
L 825.294503 -253.882591 
L 823.279589 -249.062056 
L 821.215461 -244.241521 
L 819.074349 -239.420986 
L 816.83149 -234.600451 
L 814.517652 -229.779916 
L 812.197653 -224.959381 
L 809.90929 -220.138846 
L 807.63809 -215.318311 
L 805.372486 -210.497776 
L 803.181307 -205.67724 
L 801.199817 -200.856705 
L 799.52799 -196.03617 
L 798.170903 -191.215635 
L 797.081542 -186.3951 
L 796.222333 -181.574565 
L 795.565938 -176.75403 
L 795.071914 -171.933495 
L 794.696218 -167.11296 
L 794.410574 -162.292425 
L 794.198305 -157.471889 
L 794.044472 -152.651354 
L 793.937046 -147.830819 
L 793.867996 -143.010284 
L 793.829163 -138.189749 
L 793.810619 -133.369214 
L 793.803218 -128.548679 
z
" style="stroke: #3f3f3f; stroke-width: 1.25"/>
    </defs>
    <g clip-path="url(#pee8e1114e7)">
     <use xlink:href="#m9647249f88" x="0" y="720" style="fill: #3274a1; stroke: #3f3f3f; stroke-width: 1.25"/>
    </g>
   </g>
   <g id="PolyCollection_7">
    <defs>
     <path id="m1779d829bc" d="M 905.403349 -125.641265 
L 905.396651 -125.641265 
L 905.390797 -130.215265 
L 905.379115 -134.789265 
L 905.358875 -139.363265 
L 905.325319 -143.937264 
L 905.269387 -148.511264 
L 905.179037 -153.085264 
L 905.043972 -157.659263 
L 904.856728 -162.233263 
L 904.608256 -166.807263 
L 904.285204 -171.381263 
L 903.870148 -175.955262 
L 903.339692 -180.529262 
L 902.665642 -185.103262 
L 901.823146 -189.677262 
L 900.789116 -194.251261 
L 899.526978 -198.825261 
L 897.994137 -203.399261 
L 896.1879 -207.973261 
L 894.174167 -212.54726 
L 892.049849 -217.12126 
L 889.88093 -221.69526 
L 887.680654 -226.26926 
L 885.425861 -230.843259 
L 883.087612 -235.417259 
L 880.671658 -239.991259 
L 878.249643 -244.565258 
L 875.950924 -249.139258 
L 873.905982 -253.713258 
L 872.180733 -258.287258 
L 870.774932 -262.861257 
L 869.678542 -267.435257 
L 868.89048 -272.009257 
L 868.37952 -276.583257 
L 868.066034 -281.157256 
L 867.864606 -285.731256 
L 867.745788 -290.305256 
L 867.745601 -294.879256 
L 867.903094 -299.453255 
L 868.202096 -304.027255 
L 868.583226 -308.601255 
L 868.979698 -313.175255 
L 869.318554 -317.749254 
L 869.531838 -322.323254 
L 869.626299 -326.897254 
L 869.731117 -331.471253 
L 870.017404 -336.045253 
L 870.554143 -340.619253 
L 871.276601 -345.193253 
L 872.101608 -349.767252 
L 873.033498 -354.341252 
L 874.133972 -358.915252 
L 875.408911 -363.489252 
L 876.757778 -368.063251 
L 878.05565 -372.637251 
L 879.274141 -377.211251 
L 880.483081 -381.785251 
L 881.739668 -386.35925 
L 883.033079 -390.93325 
L 884.335246 -395.50725 
L 885.637431 -400.08125 
L 886.922489 -404.655249 
L 888.151354 -409.229249 
L 889.295435 -413.803249 
L 890.35844 -418.377249 
L 891.365604 -422.951248 
L 892.357495 -427.525248 
L 893.392967 -432.099248 
L 894.521195 -436.673247 
L 895.727129 -441.247247 
L 896.917742 -445.821247 
L 897.98201 -450.395247 
L 898.867717 -454.969246 
L 899.604865 -459.543246 
L 900.273452 -464.117246 
L 900.951785 -468.691246 
L 901.66604 -473.265245 
L 902.366637 -477.839245 
L 902.968397 -482.413245 
L 903.431438 -486.987245 
L 903.791705 -491.561244 
L 904.104985 -496.135244 
L 904.384461 -500.709244 
L 904.609311 -505.283244 
L 904.772914 -509.857243 
L 904.897849 -514.431243 
L 905.00925 -519.005243 
L 905.110927 -523.579242 
L 905.191043 -528.153242 
L 905.242901 -532.727242 
L 905.274364 -537.301242 
L 905.299205 -541.875241 
L 905.324457 -546.449241 
L 905.347878 -551.023241 
L 905.365111 -555.597241 
L 905.375987 -560.17124 
L 905.383555 -564.74524 
L 905.389882 -569.31924 
L 905.394851 -573.89324 
L 905.397921 -578.467239 
L 905.402079 -578.467239 
L 905.402079 -578.467239 
L 905.405149 -573.89324 
L 905.410118 -569.31924 
L 905.416445 -564.74524 
L 905.424013 -560.17124 
L 905.434889 -555.597241 
L 905.452122 -551.023241 
L 905.475543 -546.449241 
L 905.500795 -541.875241 
L 905.525636 -537.301242 
L 905.557099 -532.727242 
L 905.608957 -528.153242 
L 905.689073 -523.579242 
L 905.79075 -519.005243 
L 905.902151 -514.431243 
L 906.027086 -509.857243 
L 906.190689 -505.283244 
L 906.415539 -500.709244 
L 906.695015 -496.135244 
L 907.008295 -491.561244 
L 907.368562 -486.987245 
L 907.831603 -482.413245 
L 908.433363 -477.839245 
L 909.13396 -473.265245 
L 909.848215 -468.691246 
L 910.526548 -464.117246 
L 911.195135 -459.543246 
L 911.932283 -454.969246 
L 912.81799 -450.395247 
L 913.882258 -445.821247 
L 915.072871 -441.247247 
L 916.278805 -436.673247 
L 917.407033 -432.099248 
L 918.442505 -427.525248 
L 919.434396 -422.951248 
L 920.44156 -418.377249 
L 921.504565 -413.803249 
L 922.648646 -409.229249 
L 923.877511 -404.655249 
L 925.162569 -400.08125 
L 926.464754 -395.50725 
L 927.766921 -390.93325 
L 929.060332 -386.35925 
L 930.316919 -381.785251 
L 931.525859 -377.211251 
L 932.74435 -372.637251 
L 934.042222 -368.063251 
L 935.391089 -363.489252 
L 936.666028 -358.915252 
L 937.766502 -354.341252 
L 938.698392 -349.767252 
L 939.523399 -345.193253 
L 940.245857 -340.619253 
L 940.782596 -336.045253 
L 941.068883 -331.471253 
L 941.173701 -326.897254 
L 941.268162 -322.323254 
L 941.481446 -317.749254 
L 941.820302 -313.175255 
L 942.216774 -308.601255 
L 942.597904 -304.027255 
L 942.896906 -299.453255 
L 943.054399 -294.879256 
L 943.054212 -290.305256 
L 942.935394 -285.731256 
L 942.733966 -281.157256 
L 942.42048 -276.583257 
L 941.90952 -272.009257 
L 941.121458 -267.435257 
L 940.025068 -262.861257 
L 938.619267 -258.287258 
L 936.894018 -253.713258 
L 934.849076 -249.139258 
L 932.550357 -244.565258 
L 930.128342 -239.991259 
L 927.712388 -235.417259 
L 925.374139 -230.843259 
L 923.119346 -226.26926 
L 920.91907 -221.69526 
L 918.750151 -217.12126 
L 916.625833 -212.54726 
L 914.6121 -207.973261 
L 912.805863 -203.399261 
L 911.273022 -198.825261 
L 910.010884 -194.251261 
L 908.976854 -189.677262 
L 908.134358 -185.103262 
L 907.460308 -180.529262 
L 906.929852 -175.955262 
L 906.514796 -171.381263 
L 906.191744 -166.807263 
L 905.943272 -162.233263 
L 905.756028 -157.659263 
L 905.620963 -153.085264 
L 905.530613 -148.511264 
L 905.474681 -143.937264 
L 905.441125 -139.363265 
L 905.420885 -134.789265 
L 905.409203 -130.215265 
L 905.403349 -125.641265 
z
" style="stroke: #3f3f3f; stroke-width: 1.25"/>
    </defs>
    <g clip-path="url(#pee8e1114e7)">
     <use xlink:href="#m1779d829bc" x="0" y="720" style="fill: #3274a1; stroke: #3f3f3f; stroke-width: 1.25"/>
    </g>
   </g>
   <g id="PolyCollection_8">
    <defs>
     <path id="m4de0cefa2d" d="M 1017.003978 -125.476453 
L 1016.996022 -125.476453 
L 1016.988628 -130.168795 
L 1016.973613 -134.861138 
L 1016.948247 -139.553481 
L 1016.909027 -144.245823 
L 1016.847794 -148.938166 
L 1016.749956 -153.630508 
L 1016.598571 -158.322851 
L 1016.380043 -163.015194 
L 1016.086018 -167.707536 
L 1015.710843 -172.399879 
L 1015.243718 -177.092221 
L 1014.658798 -181.784564 
L 1013.917234 -186.476907 
L 1012.984772 -191.169249 
L 1011.841664 -195.861592 
L 1010.471641 -200.553934 
L 1008.859726 -205.246277 
L 1007.019812 -209.93862 
L 1005.009055 -214.630962 
L 1002.890239 -219.323305 
L 1000.688046 -224.015647 
L 998.399778 -228.70799 
L 996.038774 -233.400333 
L 993.648118 -238.092675 
L 991.278478 -242.785018 
L 988.984625 -247.47736 
L 986.849881 -252.169703 
L 984.975611 -256.862046 
L 983.434082 -261.554388 
L 982.250172 -266.246731 
L 981.409677 -270.939073 
L 980.860295 -275.631416 
L 980.53103 -280.323759 
L 980.376884 -285.016101 
L 980.380785 -289.708444 
L 980.489784 -294.400786 
L 980.588461 -299.093129 
L 980.587235 -303.785472 
L 980.520251 -308.477814 
L 980.504669 -313.170157 
L 980.606813 -317.8625 
L 980.78973 -322.554842 
L 980.997094 -327.247185 
L 981.257956 -331.939527 
L 981.679544 -336.63187 
L 982.329403 -341.324213 
L 983.160191 -346.016555 
L 984.088176 -350.708898 
L 985.110534 -355.40124 
L 986.282188 -360.093583 
L 987.584842 -364.785926 
L 988.878705 -369.478268 
L 990.017611 -374.170611 
L 990.994622 -378.862953 
L 991.941694 -383.555296 
L 992.997484 -388.247639 
L 994.206577 -392.939981 
L 995.521377 -397.632324 
L 996.853762 -402.324666 
L 998.132021 -407.017009 
L 999.338997 -411.709352 
L 1000.506901 -416.401694 
L 1001.685341 -421.094037 
L 1002.917783 -425.786379 
L 1004.226691 -430.478722 
L 1005.595608 -435.171065 
L 1006.957417 -439.863407 
L 1008.211184 -444.55575 
L 1009.276072 -449.248092 
L 1010.144485 -453.940435 
L 1010.878057 -458.632778 
L 1011.55593 -463.32512 
L 1012.237419 -468.017463 
L 1012.949383 -472.709806 
L 1013.667385 -477.402148 
L 1014.316562 -482.094491 
L 1014.832173 -486.786833 
L 1015.221531 -491.479176 
L 1015.541674 -496.171519 
L 1015.828479 -500.863861 
L 1016.077034 -505.556204 
L 1016.27817 -510.248546 
L 1016.441494 -514.940889 
L 1016.582366 -519.633232 
L 1016.70505 -524.325574 
L 1016.803565 -529.017917 
L 1016.872631 -533.710259 
L 1016.914603 -538.402602 
L 1016.937695 -543.094945 
L 1016.949786 -547.787287 
L 1016.955093 -552.47963 
L 1016.956392 -557.171972 
L 1016.957542 -561.864315 
L 1016.961861 -566.556658 
L 1016.969748 -571.249 
L 1016.979259 -575.941343 
L 1016.987981 -580.633685 
L 1016.994273 -585.326028 
L 1016.997813 -590.018371 
L 1017.002187 -590.018371 
L 1017.002187 -590.018371 
L 1017.005727 -585.326028 
L 1017.012019 -580.633685 
L 1017.020741 -575.941343 
L 1017.030252 -571.249 
L 1017.038139 -566.556658 
L 1017.042458 -561.864315 
L 1017.043608 -557.171972 
L 1017.044907 -552.47963 
L 1017.050214 -547.787287 
L 1017.062305 -543.094945 
L 1017.085397 -538.402602 
L 1017.127369 -533.710259 
L 1017.196435 -529.017917 
L 1017.29495 -524.325574 
L 1017.417634 -519.633232 
L 1017.558506 -514.940889 
L 1017.72183 -510.248546 
L 1017.922966 -505.556204 
L 1018.171521 -500.863861 
L 1018.458326 -496.171519 
L 1018.778469 -491.479176 
L 1019.167827 -486.786833 
L 1019.683438 -482.094491 
L 1020.332615 -477.402148 
L 1021.050617 -472.709806 
L 1021.762581 -468.017463 
L 1022.44407 -463.32512 
L 1023.121943 -458.632778 
L 1023.855515 -453.940435 
L 1024.723928 -449.248092 
L 1025.788816 -444.55575 
L 1027.042583 -439.863407 
L 1028.404392 -435.171065 
L 1029.773309 -430.478722 
L 1031.082217 -425.786379 
L 1032.314659 -421.094037 
L 1033.493099 -416.401694 
L 1034.661003 -411.709352 
L 1035.867979 -407.017009 
L 1037.146238 -402.324666 
L 1038.478623 -397.632324 
L 1039.793423 -392.939981 
L 1041.002516 -388.247639 
L 1042.058306 -383.555296 
L 1043.005378 -378.862953 
L 1043.982389 -374.170611 
L 1045.121295 -369.478268 
L 1046.415158 -364.785926 
L 1047.717812 -360.093583 
L 1048.889466 -355.40124 
L 1049.911824 -350.708898 
L 1050.839809 -346.016555 
L 1051.670597 -341.324213 
L 1052.320456 -336.63187 
L 1052.742044 -331.939527 
L 1053.002906 -327.247185 
L 1053.21027 -322.554842 
L 1053.393187 -317.8625 
L 1053.495331 -313.170157 
L 1053.479749 -308.477814 
L 1053.412765 -303.785472 
L 1053.411539 -299.093129 
L 1053.510216 -294.400786 
L 1053.619215 -289.708444 
L 1053.623116 -285.016101 
L 1053.46897 -280.323759 
L 1053.139705 -275.631416 
L 1052.590323 -270.939073 
L 1051.749828 -266.246731 
L 1050.565918 -261.554388 
L 1049.024389 -256.862046 
L 1047.150119 -252.169703 
L 1045.015375 -247.47736 
L 1042.721522 -242.785018 
L 1040.351882 -238.092675 
L 1037.961226 -233.400333 
L 1035.600222 -228.70799 
L 1033.311954 -224.015647 
L 1031.109761 -219.323305 
L 1028.990945 -214.630962 
L 1026.980188 -209.93862 
L 1025.140274 -205.246277 
L 1023.528359 -200.553934 
L 1022.158336 -195.861592 
L 1021.015228 -191.169249 
L 1020.082766 -186.476907 
L 1019.341202 -181.784564 
L 1018.756282 -177.092221 
L 1018.289157 -172.399879 
L 1017.913982 -167.707536 
L 1017.619957 -163.015194 
L 1017.401429 -158.322851 
L 1017.250044 -153.630508 
L 1017.152206 -148.938166 
L 1017.090973 -144.245823 
L 1017.051753 -139.553481 
L 1017.026387 -134.861138 
L 1017.011372 -130.168795 
L 1017.003978 -125.476453 
z
" style="stroke: #3f3f3f; stroke-width: 1.25"/>
    </defs>
    <g clip-path="url(#pee8e1114e7)">
     <use xlink:href="#m4de0cefa2d" x="0" y="720" style="fill: #3274a1; stroke: #3f3f3f; stroke-width: 1.25"/>
    </g>
   </g>
   <g id="PolyCollection_9">
    <defs>
     <path id="m8ab5907341" d="M 1128.603925 -125.312156 
L 1128.596075 -125.312156 
L 1128.588496 -130.191832 
L 1128.572928 -135.071507 
L 1128.546365 -139.951182 
L 1128.504484 -144.830857 
L 1128.437982 -149.710532 
L 1128.332949 -154.590208 
L 1128.176156 -159.469883 
L 1127.956648 -164.349558 
L 1127.660366 -169.229233 
L 1127.263939 -174.108908 
L 1126.733694 -178.988583 
L 1126.034171 -183.868259 
L 1125.13999 -188.747934 
L 1124.030833 -193.627609 
L 1122.669978 -198.507284 
L 1121.008451 -203.386959 
L 1119.042052 -208.266635 
L 1116.863358 -213.14631 
L 1114.615721 -218.025985 
L 1112.374074 -222.90566 
L 1110.102961 -227.785335 
L 1107.75608 -232.665011 
L 1105.384408 -237.544686 
L 1103.107161 -242.424361 
L 1101.001409 -247.304036 
L 1099.067405 -252.183711 
L 1097.288944 -257.063386 
L 1095.704931 -261.943062 
L 1094.429127 -266.822737 
L 1093.573638 -271.702412 
L 1093.128698 -276.582087 
L 1092.948199 -281.461762 
L 1092.862086 -286.341438 
L 1092.768155 -291.221113 
L 1092.630467 -296.100788 
L 1092.466835 -300.980463 
L 1092.358763 -305.860138 
L 1092.392919 -310.739814 
L 1092.544847 -315.619489 
L 1092.689426 -320.499164 
L 1092.777601 -325.378839 
L 1092.937407 -330.258514 
L 1093.339674 -335.138189 
L 1094.001869 -340.017865 
L 1094.787332 -344.89754 
L 1095.598457 -349.777215 
L 1096.506382 -354.65689 
L 1097.645742 -359.536565 
L 1099.014644 -364.416241 
L 1100.424769 -369.295916 
L 1101.655108 -374.175591 
L 1102.638206 -379.055266 
L 1103.486025 -383.934941 
L 1104.36929 -388.814617 
L 1105.406266 -393.694292 
L 1106.622264 -398.573967 
L 1107.956526 -403.453642 
L 1109.317767 -408.333317 
L 1110.655664 -413.212992 
L 1111.978276 -418.092668 
L 1113.320901 -422.972343 
L 1114.71716 -427.852018 
L 1116.174679 -432.731693 
L 1117.648479 -437.611368 
L 1119.044312 -442.491044 
L 1120.270726 -447.370719 
L 1121.295521 -452.250394 
L 1122.150604 -457.130069 
L 1122.895954 -462.009744 
L 1123.594118 -466.88942 
L 1124.298149 -471.769095 
L 1125.019509 -476.64877 
L 1125.703711 -481.528445 
L 1126.275541 -486.40812 
L 1126.715265 -491.287795 
L 1127.063002 -496.167471 
L 1127.357289 -501.047146 
L 1127.605484 -505.926821 
L 1127.807602 -510.806496 
L 1127.975323 -515.686171 
L 1128.123083 -520.565847 
L 1128.254256 -525.445522 
L 1128.360071 -530.325197 
L 1128.431403 -535.204872 
L 1128.471002 -540.084547 
L 1128.492337 -544.964223 
L 1128.508037 -549.843898 
L 1128.522982 -554.723573 
L 1128.537141 -559.603248 
L 1128.550143 -564.482923 
L 1128.561902 -569.362598 
L 1128.571583 -574.242274 
L 1128.577888 -579.121949 
L 1128.580734 -584.001624 
L 1128.582313 -588.881299 
L 1128.585321 -593.760974 
L 1128.590125 -598.64065 
L 1128.594868 -603.520325 
L 1128.597975 -608.4 
L 1128.602025 -608.4 
L 1128.602025 -608.4 
L 1128.605132 -603.520325 
L 1128.609875 -598.64065 
L 1128.614679 -593.760974 
L 1128.617687 -588.881299 
L 1128.619266 -584.001624 
L 1128.622112 -579.121949 
L 1128.628417 -574.242274 
L 1128.638098 -569.362598 
L 1128.649857 -564.482923 
L 1128.662859 -559.603248 
L 1128.677018 -554.723573 
L 1128.691963 -549.843898 
L 1128.707663 -544.964223 
L 1128.728998 -540.084547 
L 1128.768597 -535.204872 
L 1128.839929 -530.325197 
L 1128.945744 -525.445522 
L 1129.076917 -520.565847 
L 1129.224677 -515.686171 
L 1129.392398 -510.806496 
L 1129.594516 -505.926821 
L 1129.842711 -501.047146 
L 1130.136998 -496.167471 
L 1130.484735 -491.287795 
L 1130.924459 -486.40812 
L 1131.496289 -481.528445 
L 1132.180491 -476.64877 
L 1132.901851 -471.769095 
L 1133.605882 -466.88942 
L 1134.304046 -462.009744 
L 1135.049396 -457.130069 
L 1135.904479 -452.250394 
L 1136.929274 -447.370719 
L 1138.155688 -442.491044 
L 1139.551521 -437.611368 
L 1141.025321 -432.731693 
L 1142.48284 -427.852018 
L 1143.879099 -422.972343 
L 1145.221724 -418.092668 
L 1146.544336 -413.212992 
L 1147.882233 -408.333317 
L 1149.243474 -403.453642 
L 1150.577736 -398.573967 
L 1151.793734 -393.694292 
L 1152.83071 -388.814617 
L 1153.713975 -383.934941 
L 1154.561794 -379.055266 
L 1155.544892 -374.175591 
L 1156.775231 -369.295916 
L 1158.185356 -364.416241 
L 1159.554258 -359.536565 
L 1160.693618 -354.65689 
L 1161.601543 -349.777215 
L 1162.412668 -344.89754 
L 1163.198131 -340.017865 
L 1163.860326 -335.138189 
L 1164.262593 -330.258514 
L 1164.422399 -325.378839 
L 1164.510574 -320.499164 
L 1164.655153 -315.619489 
L 1164.807081 -310.739814 
L 1164.841237 -305.860138 
L 1164.733165 -300.980463 
L 1164.569533 -296.100788 
L 1164.431845 -291.221113 
L 1164.337914 -286.341438 
L 1164.251801 -281.461762 
L 1164.071302 -276.582087 
L 1163.626362 -271.702412 
L 1162.770873 -266.822737 
L 1161.495069 -261.943062 
L 1159.911056 -257.063386 
L 1158.132595 -252.183711 
L 1156.198591 -247.304036 
L 1154.092839 -242.424361 
L 1151.815592 -237.544686 
L 1149.44392 -232.665011 
L 1147.097039 -227.785335 
L 1144.825926 -222.90566 
L 1142.584279 -218.025985 
L 1140.336642 -213.14631 
L 1138.157948 -208.266635 
L 1136.191549 -203.386959 
L 1134.530022 -198.507284 
L 1133.169167 -193.627609 
L 1132.06001 -188.747934 
L 1131.165829 -183.868259 
L 1130.466306 -178.988583 
L 1129.936061 -174.108908 
L 1129.539634 -169.229233 
L 1129.243352 -164.349558 
L 1129.023844 -159.469883 
L 1128.867051 -154.590208 
L 1128.762018 -149.710532 
L 1128.695516 -144.830857 
L 1128.653635 -139.951182 
L 1128.627072 -135.071507 
L 1128.611504 -130.191832 
L 1128.603925 -125.312156 
z
" style="stroke: #3f3f3f; stroke-width: 1.25"/>
    </defs>
    <g clip-path="url(#pee8e1114e7)">
     <use xlink:href="#m8ab5907341" x="0" y="720" style="fill: #3274a1; stroke: #3f3f3f; stroke-width: 1.25"/>
    </g>
   </g>
   <g id="PolyCollection_10">
    <defs>
     <path id="ma6231041b5" d="M 1240.203901 -125.328476 
L 1240.196099 -125.328476 
L 1240.188659 -130.207822 
L 1240.173791 -135.087167 
L 1240.149765 -139.966513 
L 1240.11446 -144.845858 
L 1240.059904 -149.725204 
L 1239.969427 -154.604549 
L 1239.823699 -159.483895 
L 1239.610551 -164.36324 
L 1239.325111 -169.242586 
L 1238.953409 -174.121931 
L 1238.45497 -179.001277 
L 1237.772531 -183.880622 
L 1236.866224 -188.759968 
L 1235.731167 -193.639313 
L 1234.378756 -198.518659 
L 1232.814634 -203.398004 
L 1231.047196 -208.27735 
L 1229.107974 -213.156695 
L 1227.043699 -218.036041 
L 1224.892794 -222.915386 
L 1222.691209 -227.794732 
L 1220.493666 -232.674077 
L 1218.362694 -237.553423 
L 1216.330677 -242.432768 
L 1214.381201 -247.312114 
L 1212.479422 -252.191459 
L 1210.638133 -257.070805 
L 1208.963836 -261.95015 
L 1207.613406 -266.829496 
L 1206.671229 -271.708841 
L 1206.073032 -276.588187 
L 1205.654985 -281.467532 
L 1205.256818 -286.346878 
L 1204.793476 -291.226223 
L 1204.281528 -296.105569 
L 1203.81968 -300.984914 
L 1203.52064 -305.86426 
L 1203.419797 -310.743605 
L 1203.433413 -315.622951 
L 1203.444575 -320.502296 
L 1203.452653 -325.381642 
L 1203.596771 -330.260987 
L 1204.007783 -335.140332 
L 1204.66677 -340.019678 
L 1205.436979 -344.899023 
L 1206.224975 -349.778369 
L 1207.081094 -354.657714 
L 1208.134409 -359.53706 
L 1209.438023 -364.416405 
L 1210.877063 -369.295751 
L 1212.240741 -374.175096 
L 1213.403306 -379.054442 
L 1214.431229 -383.933787 
L 1215.513542 -388.813133 
L 1216.781239 -393.692478 
L 1218.179433 -398.571824 
L 1219.534187 -403.451169 
L 1220.743813 -408.330515 
L 1221.861418 -413.20986 
L 1223.008841 -418.089206 
L 1224.27767 -422.968551 
L 1225.704675 -427.847897 
L 1227.267838 -432.727242 
L 1228.871153 -437.606588 
L 1230.365638 -442.485933 
L 1231.63099 -447.365279 
L 1232.650893 -452.244624 
L 1233.499397 -457.12397 
L 1234.258864 -462.003315 
L 1234.972052 -466.882661 
L 1235.661855 -471.762006 
L 1236.345793 -476.641352 
L 1237.010602 -481.520697 
L 1237.609192 -486.400043 
L 1238.107899 -491.279388 
L 1238.516144 -496.158734 
L 1238.857589 -501.038079 
L 1239.137483 -505.917425 
L 1239.353034 -510.79677 
L 1239.51688 -515.676116 
L 1239.654035 -520.555461 
L 1239.780717 -525.434807 
L 1239.894375 -530.314152 
L 1239.983429 -535.193498 
L 1240.042503 -540.072843 
L 1240.077838 -544.952189 
L 1240.100749 -549.831534 
L 1240.118981 -554.71088 
L 1240.135004 -559.590225 
L 1240.149197 -564.469571 
L 1240.161576 -569.348916 
L 1240.171496 -574.228262 
L 1240.177873 -579.107607 
L 1240.180731 -583.986953 
L 1240.182301 -588.866298 
L 1240.185302 -593.745644 
L 1240.190109 -598.624989 
L 1240.19486 -603.504335 
L 1240.197974 -608.38368 
L 1240.202026 -608.38368 
L 1240.202026 -608.38368 
L 1240.20514 -603.504335 
L 1240.209891 -598.624989 
L 1240.214698 -593.745644 
L 1240.217699 -588.866298 
L 1240.219269 -583.986953 
L 1240.222127 -579.107607 
L 1240.228504 -574.228262 
L 1240.238424 -569.348916 
L 1240.250803 -564.469571 
L 1240.264996 -559.590225 
L 1240.281019 -554.71088 
L 1240.299251 -549.831534 
L 1240.322162 -544.952189 
L 1240.357497 -540.072843 
L 1240.416571 -535.193498 
L 1240.505625 -530.314152 
L 1240.619283 -525.434807 
L 1240.745965 -520.555461 
L 1240.88312 -515.676116 
L 1241.046966 -510.79677 
L 1241.262517 -505.917425 
L 1241.542411 -501.038079 
L 1241.883856 -496.158734 
L 1242.292101 -491.279388 
L 1242.790808 -486.400043 
L 1243.389398 -481.520697 
L 1244.054207 -476.641352 
L 1244.738145 -471.762006 
L 1245.427948 -466.882661 
L 1246.141136 -462.003315 
L 1246.900603 -457.12397 
L 1247.749107 -452.244624 
L 1248.76901 -447.365279 
L 1250.034362 -442.485933 
L 1251.528847 -437.606588 
L 1253.132162 -432.727242 
L 1254.695325 -427.847897 
L 1256.12233 -422.968551 
L 1257.391159 -418.089206 
L 1258.538582 -413.20986 
L 1259.656187 -408.330515 
L 1260.865813 -403.451169 
L 1262.220567 -398.571824 
L 1263.618761 -393.692478 
L 1264.886458 -388.813133 
L 1265.968771 -383.933787 
L 1266.996694 -379.054442 
L 1268.159259 -374.175096 
L 1269.522937 -369.295751 
L 1270.961977 -364.416405 
L 1272.265591 -359.53706 
L 1273.318906 -354.657714 
L 1274.175025 -349.778369 
L 1274.963021 -344.899023 
L 1275.73323 -340.019678 
L 1276.392217 -335.140332 
L 1276.803229 -330.260987 
L 1276.947347 -325.381642 
L 1276.955425 -320.502296 
L 1276.966587 -315.622951 
L 1276.980203 -310.743605 
L 1276.87936 -305.86426 
L 1276.58032 -300.984914 
L 1276.118472 -296.105569 
L 1275.606524 -291.226223 
L 1275.143182 -286.346878 
L 1274.745015 -281.467532 
L 1274.326968 -276.588187 
L 1273.728771 -271.708841 
L 1272.786594 -266.829496 
L 1271.436164 -261.95015 
L 1269.761867 -257.070805 
L 1267.920578 -252.191459 
L 1266.018799 -247.312114 
L 1264.069323 -242.432768 
L 1262.037306 -237.553423 
L 1259.906334 -232.674077 
L 1257.708791 -227.794732 
L 1255.507206 -222.915386 
L 1253.356301 -218.036041 
L 1251.292026 -213.156695 
L 1249.352804 -208.27735 
L 1247.585366 -203.398004 
L 1246.021244 -198.518659 
L 1244.668833 -193.639313 
L 1243.533776 -188.759968 
L 1242.627469 -183.880622 
L 1241.94503 -179.001277 
L 1241.446591 -174.121931 
L 1241.074889 -169.242586 
L 1240.789449 -164.36324 
L 1240.576301 -159.483895 
L 1240.430573 -154.604549 
L 1240.340096 -149.725204 
L 1240.28554 -144.845858 
L 1240.250235 -139.966513 
L 1240.226209 -135.087167 
L 1240.211341 -130.207822 
L 1240.203901 -125.328476 
z
" style="stroke: #3f3f3f; stroke-width: 1.25"/>
    </defs>
    <g clip-path="url(#pee8e1114e7)">
     <use xlink:href="#ma6231041b5" x="0" y="720" style="fill: #3274a1; stroke: #3f3f3f; stroke-width: 1.25"/>
    </g>
   </g>
   <g id="matplotlib.axis_1">
    <g id="xtick_1">
     <g id="line2d_1">
      <defs>
       <path id="m63c514406c" d="M 0 0 
L 0 3.5 
" style="stroke: #000000; stroke-width: 0.8"/>
      </defs>
      <g>
       <use xlink:href="#m63c514406c" x="235.8" y="640.8" style="stroke: #000000; stroke-width: 0.8"/>
      </g>
     </g>
     <g id="text_1">
      <!-- 0 -->
      <g transform="translate(232.61875 655.398438) scale(0.1 -0.1)">
       <defs>
        <path id="DejaVuSans-30" d="M 2034 4250 
Q 1547 4250 1301 3770 
Q 1056 3291 1056 2328 
Q 1056 1369 1301 889 
Q 1547 409 2034 409 
Q 2525 409 2770 889 
Q 3016 1369 3016 2328 
Q 3016 3291 2770 3770 
Q 2525 4250 2034 4250 
z
M 2034 4750 
Q 2819 4750 3233 4129 
Q 3647 3509 3647 2328 
Q 3647 1150 3233 529 
Q 2819 -91 2034 -91 
Q 1250 -91 836 529 
Q 422 1150 422 2328 
Q 422 3509 836 4129 
Q 1250 4750 2034 4750 
z
" transform="scale(0.015625)"/>
       </defs>
       <use xlink:href="#DejaVuSans-30"/>
      </g>
     </g>
    </g>
    <g id="xtick_2">
     <g id="line2d_2">
      <g>
       <use xlink:href="#m63c514406c" x="347.4" y="640.8" style="stroke: #000000; stroke-width: 0.8"/>
      </g>
     </g>
     <g id="text_2">
      <!-- 1 -->
      <g transform="translate(344.21875 655.398438) scale(0.1 -0.1)">
       <defs>
        <path id="DejaVuSans-31" d="M 794 531 
L 1825 531 
L 1825 4091 
L 703 3866 
L 703 4441 
L 1819 4666 
L 2450 4666 
L 2450 531 
L 3481 531 
L 3481 0 
L 794 0 
L 794 531 
z
" transform="scale(0.015625)"/>
       </defs>
       <use xlink:href="#DejaVuSans-31"/>
      </g>
     </g>
    </g>
    <g id="xtick_3">
     <g id="line2d_3">
      <g>
       <use xlink:href="#m63c514406c" x="459" y="640.8" style="stroke: #000000; stroke-width: 0.8"/>
      </g>
     </g>
     <g id="text_3">
      <!-- 2 -->
      <g transform="translate(455.81875 655.398438) scale(0.1 -0.1)">
       <defs>
        <path id="DejaVuSans-32" d="M 1228 531 
L 3431 531 
L 3431 0 
L 469 0 
L 469 531 
Q 828 903 1448 1529 
Q 2069 2156 2228 2338 
Q 2531 2678 2651 2914 
Q 2772 3150 2772 3378 
Q 2772 3750 2511 3984 
Q 2250 4219 1831 4219 
Q 1534 4219 1204 4116 
Q 875 4013 500 3803 
L 500 4441 
Q 881 4594 1212 4672 
Q 1544 4750 1819 4750 
Q 2544 4750 2975 4387 
Q 3406 4025 3406 3419 
Q 3406 3131 3298 2873 
Q 3191 2616 2906 2266 
Q 2828 2175 2409 1742 
Q 1991 1309 1228 531 
z
" transform="scale(0.015625)"/>
       </defs>
       <use xlink:href="#DejaVuSans-32"/>
      </g>
     </g>
    </g>
    <g id="xtick_4">
     <g id="line2d_4">
      <g>
       <use xlink:href="#m63c514406c" x="570.6" y="640.8" style="stroke: #000000; stroke-width: 0.8"/>
      </g>
     </g>
     <g id="text_4">
      <!-- 3 -->
      <g transform="translate(567.41875 655.398438) scale(0.1 -0.1)">
       <defs>
        <path id="DejaVuSans-33" d="M 2597 2516 
Q 3050 2419 3304 2112 
Q 3559 1806 3559 1356 
Q 3559 666 3084 287 
Q 2609 -91 1734 -91 
Q 1441 -91 1130 -33 
Q 819 25 488 141 
L 488 750 
Q 750 597 1062 519 
Q 1375 441 1716 441 
Q 2309 441 2620 675 
Q 2931 909 2931 1356 
Q 2931 1769 2642 2001 
Q 2353 2234 1838 2234 
L 1294 2234 
L 1294 2753 
L 1863 2753 
Q 2328 2753 2575 2939 
Q 2822 3125 2822 3475 
Q 2822 3834 2567 4026 
Q 2313 4219 1838 4219 
Q 1578 4219 1281 4162 
Q 984 4106 628 3988 
L 628 4550 
Q 988 4650 1302 4700 
Q 1616 4750 1894 4750 
Q 2613 4750 3031 4423 
Q 3450 4097 3450 3541 
Q 3450 3153 3228 2886 
Q 3006 2619 2597 2516 
z
" transform="scale(0.015625)"/>
       </defs>
       <use xlink:href="#DejaVuSans-33"/>
      </g>
     </g>
    </g>
    <g id="xtick_5">
     <g id="line2d_5">
      <g>
       <use xlink:href="#m63c514406c" x="682.2" y="640.8" style="stroke: #000000; stroke-width: 0.8"/>
      </g>
     </g>
     <g id="text_5">
      <!-- 4 -->
      <g transform="translate(679.01875 655.398438) scale(0.1 -0.1)">
       <defs>
        <path id="DejaVuSans-34" d="M 2419 4116 
L 825 1625 
L 2419 1625 
L 2419 4116 
z
M 2253 4666 
L 3047 4666 
L 3047 1625 
L 3713 1625 
L 3713 1100 
L 3047 1100 
L 3047 0 
L 2419 0 
L 2419 1100 
L 313 1100 
L 313 1709 
L 2253 4666 
z
" transform="scale(0.015625)"/>
       </defs>
       <use xlink:href="#DejaVuSans-34"/>
      </g>
     </g>
    </g>
    <g id="xtick_6">
     <g id="line2d_6">
      <g>
       <use xlink:href="#m63c514406c" x="793.8" y="640.8" style="stroke: #000000; stroke-width: 0.8"/>
      </g>
     </g>
     <g id="text_6">
      <!-- 5 -->
      <g transform="translate(790.61875 655.398438) scale(0.1 -0.1)">
       <defs>
        <path id="DejaVuSans-35" d="M 691 4666 
L 3169 4666 
L 3169 4134 
L 1269 4134 
L 1269 2991 
Q 1406 3038 1543 3061 
Q 1681 3084 1819 3084 
Q 2600 3084 3056 2656 
Q 3513 2228 3513 1497 
Q 3513 744 3044 326 
Q 2575 -91 1722 -91 
Q 1428 -91 1123 -41 
Q 819 9 494 109 
L 494 744 
Q 775 591 1075 516 
Q 1375 441 1709 441 
Q 2250 441 2565 725 
Q 2881 1009 2881 1497 
Q 2881 1984 2565 2268 
Q 2250 2553 1709 2553 
Q 1456 2553 1204 2497 
Q 953 2441 691 2322 
L 691 4666 
z
" transform="scale(0.015625)"/>
       </defs>
       <use xlink:href="#DejaVuSans-35"/>
      </g>
     </g>
    </g>
    <g id="xtick_7">
     <g id="line2d_7">
      <g>
       <use xlink:href="#m63c514406c" x="905.4" y="640.8" style="stroke: #000000; stroke-width: 0.8"/>
      </g>
     </g>
     <g id="text_7">
      <!-- 6 -->
      <g transform="translate(902.21875 655.398438) scale(0.1 -0.1)">
       <defs>
        <path id="DejaVuSans-36" d="M 2113 2584 
Q 1688 2584 1439 2293 
Q 1191 2003 1191 1497 
Q 1191 994 1439 701 
Q 1688 409 2113 409 
Q 2538 409 2786 701 
Q 3034 994 3034 1497 
Q 3034 2003 2786 2293 
Q 2538 2584 2113 2584 
z
M 3366 4563 
L 3366 3988 
Q 3128 4100 2886 4159 
Q 2644 4219 2406 4219 
Q 1781 4219 1451 3797 
Q 1122 3375 1075 2522 
Q 1259 2794 1537 2939 
Q 1816 3084 2150 3084 
Q 2853 3084 3261 2657 
Q 3669 2231 3669 1497 
Q 3669 778 3244 343 
Q 2819 -91 2113 -91 
Q 1303 -91 875 529 
Q 447 1150 447 2328 
Q 447 3434 972 4092 
Q 1497 4750 2381 4750 
Q 2619 4750 2861 4703 
Q 3103 4656 3366 4563 
z
" transform="scale(0.015625)"/>
       </defs>
       <use xlink:href="#DejaVuSans-36"/>
      </g>
     </g>
    </g>
    <g id="xtick_8">
     <g id="line2d_8">
      <g>
       <use xlink:href="#m63c514406c" x="1017" y="640.8" style="stroke: #000000; stroke-width: 0.8"/>
      </g>
     </g>
     <g id="text_8">
      <!-- 7 -->
      <g transform="translate(1013.81875 655.398438) scale(0.1 -0.1)">
       <defs>
        <path id="DejaVuSans-37" d="M 525 4666 
L 3525 4666 
L 3525 4397 
L 1831 0 
L 1172 0 
L 2766 4134 
L 525 4134 
L 525 4666 
z
" transform="scale(0.015625)"/>
       </defs>
       <use xlink:href="#DejaVuSans-37"/>
      </g>
     </g>
    </g>
    <g id="xtick_9">
     <g id="line2d_9">
      <g>
       <use xlink:href="#m63c514406c" x="1128.6" y="640.8" style="stroke: #000000; stroke-width: 0.8"/>
      </g>
     </g>
     <g id="text_9">
      <!-- 8 -->
      <g transform="translate(1125.41875 655.398438) scale(0.1 -0.1)">
       <defs>
        <path id="DejaVuSans-38" d="M 2034 2216 
Q 1584 2216 1326 1975 
Q 1069 1734 1069 1313 
Q 1069 891 1326 650 
Q 1584 409 2034 409 
Q 2484 409 2743 651 
Q 3003 894 3003 1313 
Q 3003 1734 2745 1975 
Q 2488 2216 2034 2216 
z
M 1403 2484 
Q 997 2584 770 2862 
Q 544 3141 544 3541 
Q 544 4100 942 4425 
Q 1341 4750 2034 4750 
Q 2731 4750 3128 4425 
Q 3525 4100 3525 3541 
Q 3525 3141 3298 2862 
Q 3072 2584 2669 2484 
Q 3125 2378 3379 2068 
Q 3634 1759 3634 1313 
Q 3634 634 3220 271 
Q 2806 -91 2034 -91 
Q 1263 -91 848 271 
Q 434 634 434 1313 
Q 434 1759 690 2068 
Q 947 2378 1403 2484 
z
M 1172 3481 
Q 1172 3119 1398 2916 
Q 1625 2713 2034 2713 
Q 2441 2713 2670 2916 
Q 2900 3119 2900 3481 
Q 2900 3844 2670 4047 
Q 2441 4250 2034 4250 
Q 1625 4250 1398 4047 
Q 1172 3844 1172 3481 
z
" transform="scale(0.015625)"/>
       </defs>
       <use xlink:href="#DejaVuSans-38"/>
      </g>
     </g>
    </g>
    <g id="xtick_10">
     <g id="line2d_10">
      <g>
       <use xlink:href="#m63c514406c" x="1240.2" y="640.8" style="stroke: #000000; stroke-width: 0.8"/>
      </g>
     </g>
     <g id="text_10">
      <!-- 9 -->
      <g transform="translate(1237.01875 655.398438) scale(0.1 -0.1)">
       <defs>
        <path id="DejaVuSans-39" d="M 703 97 
L 703 672 
Q 941 559 1184 500 
Q 1428 441 1663 441 
Q 2288 441 2617 861 
Q 2947 1281 2994 2138 
Q 2813 1869 2534 1725 
Q 2256 1581 1919 1581 
Q 1219 1581 811 2004 
Q 403 2428 403 3163 
Q 403 3881 828 4315 
Q 1253 4750 1959 4750 
Q 2769 4750 3195 4129 
Q 3622 3509 3622 2328 
Q 3622 1225 3098 567 
Q 2575 -91 1691 -91 
Q 1453 -91 1209 -44 
Q 966 3 703 97 
z
M 1959 2075 
Q 2384 2075 2632 2365 
Q 2881 2656 2881 3163 
Q 2881 3666 2632 3958 
Q 2384 4250 1959 4250 
Q 1534 4250 1286 3958 
Q 1038 3666 1038 3163 
Q 1038 2656 1286 2365 
Q 1534 2075 1959 2075 
z
" transform="scale(0.015625)"/>
       </defs>
       <use xlink:href="#DejaVuSans-39"/>
      </g>
     </g>
    </g>
    <g id="text_11">
     <!-- iteration -->
     <g transform="translate(716.877344 669.076563) scale(0.1 -0.1)">
      <defs>
       <path id="DejaVuSans-69" d="M 603 3500 
L 1178 3500 
L 1178 0 
L 603 0 
L 603 3500 
z
M 603 4863 
L 1178 4863 
L 1178 4134 
L 603 4134 
L 603 4863 
z
" transform="scale(0.015625)"/>
       <path id="DejaVuSans-74" d="M 1172 4494 
L 1172 3500 
L 2356 3500 
L 2356 3053 
L 1172 3053 
L 1172 1153 
Q 1172 725 1289 603 
Q 1406 481 1766 481 
L 2356 481 
L 2356 0 
L 1766 0 
Q 1100 0 847 248 
Q 594 497 594 1153 
L 594 3053 
L 172 3053 
L 172 3500 
L 594 3500 
L 594 4494 
L 1172 4494 
z
" transform="scale(0.015625)"/>
       <path id="DejaVuSans-65" d="M 3597 1894 
L 3597 1613 
L 953 1613 
Q 991 1019 1311 708 
Q 1631 397 2203 397 
Q 2534 397 2845 478 
Q 3156 559 3463 722 
L 3463 178 
Q 3153 47 2828 -22 
Q 2503 -91 2169 -91 
Q 1331 -91 842 396 
Q 353 884 353 1716 
Q 353 2575 817 3079 
Q 1281 3584 2069 3584 
Q 2775 3584 3186 3129 
Q 3597 2675 3597 1894 
z
M 3022 2063 
Q 3016 2534 2758 2815 
Q 2500 3097 2075 3097 
Q 1594 3097 1305 2825 
Q 1016 2553 972 2059 
L 3022 2063 
z
" transform="scale(0.015625)"/>
       <path id="DejaVuSans-72" d="M 2631 2963 
Q 2534 3019 2420 3045 
Q 2306 3072 2169 3072 
Q 1681 3072 1420 2755 
Q 1159 2438 1159 1844 
L 1159 0 
L 581 0 
L 581 3500 
L 1159 3500 
L 1159 2956 
Q 1341 3275 1631 3429 
Q 1922 3584 2338 3584 
Q 2397 3584 2469 3576 
Q 2541 3569 2628 3553 
L 2631 2963 
z
" transform="scale(0.015625)"/>
       <path id="DejaVuSans-61" d="M 2194 1759 
Q 1497 1759 1228 1600 
Q 959 1441 959 1056 
Q 959 750 1161 570 
Q 1363 391 1709 391 
Q 2188 391 2477 730 
Q 2766 1069 2766 1631 
L 2766 1759 
L 2194 1759 
z
M 3341 1997 
L 3341 0 
L 2766 0 
L 2766 531 
Q 2569 213 2275 61 
Q 1981 -91 1556 -91 
Q 1019 -91 701 211 
Q 384 513 384 1019 
Q 384 1609 779 1909 
Q 1175 2209 1959 2209 
L 2766 2209 
L 2766 2266 
Q 2766 2663 2505 2880 
Q 2244 3097 1772 3097 
Q 1472 3097 1187 3025 
Q 903 2953 641 2809 
L 641 3341 
Q 956 3463 1253 3523 
Q 1550 3584 1831 3584 
Q 2591 3584 2966 3190 
Q 3341 2797 3341 1997 
z
" transform="scale(0.015625)"/>
       <path id="DejaVuSans-6f" d="M 1959 3097 
Q 1497 3097 1228 2736 
Q 959 2375 959 1747 
Q 959 1119 1226 758 
Q 1494 397 1959 397 
Q 2419 397 2687 759 
Q 2956 1122 2956 1747 
Q 2956 2369 2687 2733 
Q 2419 3097 1959 3097 
z
M 1959 3584 
Q 2709 3584 3137 3096 
Q 3566 2609 3566 1747 
Q 3566 888 3137 398 
Q 2709 -91 1959 -91 
Q 1206 -91 779 398 
Q 353 888 353 1747 
Q 353 2609 779 3096 
Q 1206 3584 1959 3584 
z
" transform="scale(0.015625)"/>
       <path id="DejaVuSans-6e" d="M 3513 2113 
L 3513 0 
L 2938 0 
L 2938 2094 
Q 2938 2591 2744 2837 
Q 2550 3084 2163 3084 
Q 1697 3084 1428 2787 
Q 1159 2491 1159 1978 
L 1159 0 
L 581 0 
L 581 3500 
L 1159 3500 
L 1159 2956 
Q 1366 3272 1645 3428 
Q 1925 3584 2291 3584 
Q 2894 3584 3203 3211 
Q 3513 2838 3513 2113 
z
" transform="scale(0.015625)"/>
      </defs>
      <use xlink:href="#DejaVuSans-69"/>
      <use xlink:href="#DejaVuSans-74" x="27.783203"/>
      <use xlink:href="#DejaVuSans-65" x="66.992188"/>
      <use xlink:href="#DejaVuSans-72" x="128.515625"/>
      <use xlink:href="#DejaVuSans-61" x="169.628906"/>
      <use xlink:href="#DejaVuSans-74" x="230.908203"/>
      <use xlink:href="#DejaVuSans-69" x="270.117188"/>
      <use xlink:href="#DejaVuSans-6f" x="297.900391"/>
      <use xlink:href="#DejaVuSans-6e" x="359.082031"/>
     </g>
    </g>
   </g>
   <g id="matplotlib.axis_2">
    <g id="ytick_1">
     <g id="line2d_11">
      <defs>
       <path id="m80f8d86476" d="M 0 0 
L -3.5 0 
" style="stroke: #000000; stroke-width: 0.8"/>
      </defs>
      <g>
       <use xlink:href="#m80f8d86476" x="180" y="609.354455" style="stroke: #000000; stroke-width: 0.8"/>
      </g>
     </g>
     <g id="text_12">
      <!-- 0.2 -->
      <g transform="translate(148.717187 613.153674) scale(0.1 -0.1)">
       <defs>
        <path id="DejaVuSans-2212" d="M 678 2272 
L 4684 2272 
L 4684 1741 
L 678 1741 
L 678 2272 
z
" transform="scale(0.015625)"/>
        <path id="DejaVuSans-2e" d="M 684 794 
L 1344 794 
L 1344 0 
L 684 0 
L 684 794 
z
" transform="scale(0.015625)"/>
       </defs>
       <use xlink:href="#DejaVuSans-2212"/>
       <use xlink:href="#DejaVuSans-30" x="83.789062"/>
       <use xlink:href="#DejaVuSans-2e" x="147.412109"/>
       <use xlink:href="#DejaVuSans-32" x="179.199219"/>
      </g>
     </g>
    </g>
    <g id="ytick_2">
     <g id="line2d_12">
      <g>
       <use xlink:href="#m80f8d86476" x="180" y="525.257372" style="stroke: #000000; stroke-width: 0.8"/>
      </g>
     </g>
     <g id="text_13">
      <!-- 0.0 -->
      <g transform="translate(157.096875 529.056591) scale(0.1 -0.1)">
       <use xlink:href="#DejaVuSans-30"/>
       <use xlink:href="#DejaVuSans-2e" x="63.623047"/>
       <use xlink:href="#DejaVuSans-30" x="95.410156"/>
      </g>
     </g>
    </g>
    <g id="ytick_3">
     <g id="line2d_13">
      <g>
       <use xlink:href="#m80f8d86476" x="180" y="441.160289" style="stroke: #000000; stroke-width: 0.8"/>
      </g>
     </g>
     <g id="text_14">
      <!-- 0.2 -->
      <g transform="translate(157.096875 444.959508) scale(0.1 -0.1)">
       <use xlink:href="#DejaVuSans-30"/>
       <use xlink:href="#DejaVuSans-2e" x="63.623047"/>
       <use xlink:href="#DejaVuSans-32" x="95.410156"/>
      </g>
     </g>
    </g>
    <g id="ytick_4">
     <g id="line2d_14">
      <g>
       <use xlink:href="#m80f8d86476" x="180" y="357.063206" style="stroke: #000000; stroke-width: 0.8"/>
      </g>
     </g>
     <g id="text_15">
      <!-- 0.4 -->
      <g transform="translate(157.096875 360.862425) scale(0.1 -0.1)">
       <use xlink:href="#DejaVuSans-30"/>
       <use xlink:href="#DejaVuSans-2e" x="63.623047"/>
       <use xlink:href="#DejaVuSans-34" x="95.410156"/>
      </g>
     </g>
    </g>
    <g id="ytick_5">
     <g id="line2d_15">
      <g>
       <use xlink:href="#m80f8d86476" x="180" y="272.966123" style="stroke: #000000; stroke-width: 0.8"/>
      </g>
     </g>
     <g id="text_16">
      <!-- 0.6 -->
      <g transform="translate(157.096875 276.765342) scale(0.1 -0.1)">
       <use xlink:href="#DejaVuSans-30"/>
       <use xlink:href="#DejaVuSans-2e" x="63.623047"/>
       <use xlink:href="#DejaVuSans-36" x="95.410156"/>
      </g>
     </g>
    </g>
    <g id="ytick_6">
     <g id="line2d_16">
      <g>
       <use xlink:href="#m80f8d86476" x="180" y="188.86904" style="stroke: #000000; stroke-width: 0.8"/>
      </g>
     </g>
     <g id="text_17">
      <!-- 0.8 -->
      <g transform="translate(157.096875 192.668259) scale(0.1 -0.1)">
       <use xlink:href="#DejaVuSans-30"/>
       <use xlink:href="#DejaVuSans-2e" x="63.623047"/>
       <use xlink:href="#DejaVuSans-38" x="95.410156"/>
      </g>
     </g>
    </g>
    <g id="ytick_7">
     <g id="line2d_17">
      <g>
       <use xlink:href="#m80f8d86476" x="180" y="104.771957" style="stroke: #000000; stroke-width: 0.8"/>
      </g>
     </g>
     <g id="text_18">
      <!-- 1.0 -->
      <g transform="translate(157.096875 108.571176) scale(0.1 -0.1)">
       <use xlink:href="#DejaVuSans-31"/>
       <use xlink:href="#DejaVuSans-2e" x="63.623047"/>
       <use xlink:href="#DejaVuSans-30" x="95.410156"/>
      </g>
     </g>
    </g>
    <g id="text_19">
     <!-- final cosine similarity -->
     <g transform="translate(142.6375 416.667187) rotate(-90) scale(0.1 -0.1)">
      <defs>
       <path id="DejaVuSans-66" d="M 2375 4863 
L 2375 4384 
L 1825 4384 
Q 1516 4384 1395 4259 
Q 1275 4134 1275 3809 
L 1275 3500 
L 2222 3500 
L 2222 3053 
L 1275 3053 
L 1275 0 
L 697 0 
L 697 3053 
L 147 3053 
L 147 3500 
L 697 3500 
L 697 3744 
Q 697 4328 969 4595 
Q 1241 4863 1831 4863 
L 2375 4863 
z
" transform="scale(0.015625)"/>
       <path id="DejaVuSans-6c" d="M 603 4863 
L 1178 4863 
L 1178 0 
L 603 0 
L 603 4863 
z
" transform="scale(0.015625)"/>
       <path id="DejaVuSans-20" transform="scale(0.015625)"/>
       <path id="DejaVuSans-63" d="M 3122 3366 
L 3122 2828 
Q 2878 2963 2633 3030 
Q 2388 3097 2138 3097 
Q 1578 3097 1268 2742 
Q 959 2388 959 1747 
Q 959 1106 1268 751 
Q 1578 397 2138 397 
Q 2388 397 2633 464 
Q 2878 531 3122 666 
L 3122 134 
Q 2881 22 2623 -34 
Q 2366 -91 2075 -91 
Q 1284 -91 818 406 
Q 353 903 353 1747 
Q 353 2603 823 3093 
Q 1294 3584 2113 3584 
Q 2378 3584 2631 3529 
Q 2884 3475 3122 3366 
z
" transform="scale(0.015625)"/>
       <path id="DejaVuSans-73" d="M 2834 3397 
L 2834 2853 
Q 2591 2978 2328 3040 
Q 2066 3103 1784 3103 
Q 1356 3103 1142 2972 
Q 928 2841 928 2578 
Q 928 2378 1081 2264 
Q 1234 2150 1697 2047 
L 1894 2003 
Q 2506 1872 2764 1633 
Q 3022 1394 3022 966 
Q 3022 478 2636 193 
Q 2250 -91 1575 -91 
Q 1294 -91 989 -36 
Q 684 19 347 128 
L 347 722 
Q 666 556 975 473 
Q 1284 391 1588 391 
Q 1994 391 2212 530 
Q 2431 669 2431 922 
Q 2431 1156 2273 1281 
Q 2116 1406 1581 1522 
L 1381 1569 
Q 847 1681 609 1914 
Q 372 2147 372 2553 
Q 372 3047 722 3315 
Q 1072 3584 1716 3584 
Q 2034 3584 2315 3537 
Q 2597 3491 2834 3397 
z
" transform="scale(0.015625)"/>
       <path id="DejaVuSans-6d" d="M 3328 2828 
Q 3544 3216 3844 3400 
Q 4144 3584 4550 3584 
Q 5097 3584 5394 3201 
Q 5691 2819 5691 2113 
L 5691 0 
L 5113 0 
L 5113 2094 
Q 5113 2597 4934 2840 
Q 4756 3084 4391 3084 
Q 3944 3084 3684 2787 
Q 3425 2491 3425 1978 
L 3425 0 
L 2847 0 
L 2847 2094 
Q 2847 2600 2669 2842 
Q 2491 3084 2119 3084 
Q 1678 3084 1418 2786 
Q 1159 2488 1159 1978 
L 1159 0 
L 581 0 
L 581 3500 
L 1159 3500 
L 1159 2956 
Q 1356 3278 1631 3431 
Q 1906 3584 2284 3584 
Q 2666 3584 2933 3390 
Q 3200 3197 3328 2828 
z
" transform="scale(0.015625)"/>
       <path id="DejaVuSans-79" d="M 2059 -325 
Q 1816 -950 1584 -1140 
Q 1353 -1331 966 -1331 
L 506 -1331 
L 506 -850 
L 844 -850 
Q 1081 -850 1212 -737 
Q 1344 -625 1503 -206 
L 1606 56 
L 191 3500 
L 800 3500 
L 1894 763 
L 2988 3500 
L 3597 3500 
L 2059 -325 
z
" transform="scale(0.015625)"/>
      </defs>
      <use xlink:href="#DejaVuSans-66"/>
      <use xlink:href="#DejaVuSans-69" x="35.205078"/>
      <use xlink:href="#DejaVuSans-6e" x="62.988281"/>
      <use xlink:href="#DejaVuSans-61" x="126.367188"/>
      <use xlink:href="#DejaVuSans-6c" x="187.646484"/>
      <use xlink:href="#DejaVuSans-20" x="215.429688"/>
      <use xlink:href="#DejaVuSans-63" x="247.216797"/>
      <use xlink:href="#DejaVuSans-6f" x="302.197266"/>
      <use xlink:href="#DejaVuSans-73" x="363.378906"/>
      <use xlink:href="#DejaVuSans-69" x="415.478516"/>
      <use xlink:href="#DejaVuSans-6e" x="443.261719"/>
      <use xlink:href="#DejaVuSans-65" x="506.640625"/>
      <use xlink:href="#DejaVuSans-20" x="568.164062"/>
      <use xlink:href="#DejaVuSans-73" x="599.951172"/>
      <use xlink:href="#DejaVuSans-69" x="652.050781"/>
      <use xlink:href="#DejaVuSans-6d" x="679.833984"/>
      <use xlink:href="#DejaVuSans-69" x="777.246094"/>
      <use xlink:href="#DejaVuSans-6c" x="805.029297"/>
      <use xlink:href="#DejaVuSans-61" x="832.8125"/>
      <use xlink:href="#DejaVuSans-72" x="894.091797"/>
      <use xlink:href="#DejaVuSans-69" x="935.205078"/>
      <use xlink:href="#DejaVuSans-74" x="962.988281"/>
      <use xlink:href="#DejaVuSans-79" x="1002.197266"/>
     </g>
    </g>
   </g>
   <g id="line2d_18">
    <path d="M 235.8 584.515209 
L 235.8 262.767825 
" clip-path="url(#pee8e1114e7)" style="fill: none; stroke: #3f3f3f; stroke-width: 1.875; stroke-linecap: square"/>
   </g>
   <g id="line2d_19">
    <path d="M 235.8 478.093045 
L 235.8 391.881981 
" clip-path="url(#pee8e1114e7)" style="fill: none; stroke: #3f3f3f; stroke-width: 5.625; stroke-linecap: square"/>
   </g>
   <g id="line2d_20">
    <path d="M 235.8 439.942984 
" clip-path="url(#pee8e1114e7)" style="fill: none; stroke: #3f3f3f; stroke-width: 1.5; stroke-linecap: square"/>
    <defs>
     <path id="m3dc71c9278" d="M 2.34375 0 
L -2.34375 -0 
" style="stroke: #ffffff; stroke-width: 1.125"/>
    </defs>
    <g clip-path="url(#pee8e1114e7)">
     <use xlink:href="#m3dc71c9278" x="235.8" y="439.942984" style="fill: #ffffff; stroke: #ffffff; stroke-width: 1.125"/>
    </g>
   </g>
   <g id="line2d_21">
    <path d="M 347.4 579.195305 
L 347.4 253.328542 
" clip-path="url(#pee8e1114e7)" style="fill: none; stroke: #3f3f3f; stroke-width: 1.875; stroke-linecap: square"/>
   </g>
   <g id="line2d_22">
    <path d="M 347.4 467.830195 
L 347.4 381.844732 
" clip-path="url(#pee8e1114e7)" style="fill: none; stroke: #3f3f3f; stroke-width: 5.625; stroke-linecap: square"/>
   </g>
   <g id="line2d_23">
    <path d="M 347.4 427.238768 
" clip-path="url(#pee8e1114e7)" style="fill: none; stroke: #3f3f3f; stroke-width: 1.5; stroke-linecap: square"/>
    <g clip-path="url(#pee8e1114e7)">
     <use xlink:href="#m3dc71c9278" x="347.4" y="427.238768" style="fill: #ffffff; stroke: #ffffff; stroke-width: 1.125"/>
    </g>
   </g>
   <g id="line2d_24">
    <path d="M 459 579.195305 
L 459 239.024202 
" clip-path="url(#pee8e1114e7)" style="fill: none; stroke: #3f3f3f; stroke-width: 1.875; stroke-linecap: square"/>
   </g>
   <g id="line2d_25">
    <path d="M 459 460.922106 
L 459 372.079151 
" clip-path="url(#pee8e1114e7)" style="fill: none; stroke: #3f3f3f; stroke-width: 5.625; stroke-linecap: square"/>
   </g>
   <g id="line2d_26">
    <path d="M 459 420.028856 
" clip-path="url(#pee8e1114e7)" style="fill: none; stroke: #3f3f3f; stroke-width: 1.5; stroke-linecap: square"/>
    <g clip-path="url(#pee8e1114e7)">
     <use xlink:href="#m3dc71c9278" x="459" y="420.028856" style="fill: #ffffff; stroke: #ffffff; stroke-width: 1.125"/>
    </g>
   </g>
   <g id="line2d_27">
    <path d="M 570.6 576.277966 
L 570.6 226.957777 
" clip-path="url(#pee8e1114e7)" style="fill: none; stroke: #3f3f3f; stroke-width: 1.875; stroke-linecap: square"/>
   </g>
   <g id="line2d_28">
    <path d="M 570.6 456.817991 
L 570.6 364.674109 
" clip-path="url(#pee8e1114e7)" style="fill: none; stroke: #3f3f3f; stroke-width: 5.625; stroke-linecap: square"/>
   </g>
   <g id="line2d_29">
    <path d="M 570.6 413.516566 
" clip-path="url(#pee8e1114e7)" style="fill: none; stroke: #3f3f3f; stroke-width: 1.5; stroke-linecap: square"/>
    <g clip-path="url(#pee8e1114e7)">
     <use xlink:href="#m3dc71c9278" x="570.6" y="413.516566" style="fill: #ffffff; stroke: #ffffff; stroke-width: 1.125"/>
    </g>
   </g>
   <g id="line2d_30">
    <path d="M 682.2 573.691398 
L 682.2 223.150975 
" clip-path="url(#pee8e1114e7)" style="fill: none; stroke: #3f3f3f; stroke-width: 1.875; stroke-linecap: square"/>
   </g>
   <g id="line2d_31">
    <path d="M 682.2 452.878765 
L 682.2 360.848122 
" clip-path="url(#pee8e1114e7)" style="fill: none; stroke: #3f3f3f; stroke-width: 5.625; stroke-linecap: square"/>
   </g>
   <g id="line2d_32">
    <path d="M 682.2 408.754932 
" clip-path="url(#pee8e1114e7)" style="fill: none; stroke: #3f3f3f; stroke-width: 1.5; stroke-linecap: square"/>
    <g clip-path="url(#pee8e1114e7)">
     <use xlink:href="#m3dc71c9278" x="682.2" y="408.754932" style="fill: #ffffff; stroke: #ffffff; stroke-width: 1.125"/>
    </g>
   </g>
   <g id="line2d_33">
    <path d="M 793.8 573.691398 
L 793.8 217.116509 
" clip-path="url(#pee8e1114e7)" style="fill: none; stroke: #3f3f3f; stroke-width: 1.875; stroke-linecap: square"/>
   </g>
   <g id="line2d_34">
    <path d="M 793.8 450.230077 
L 793.8 356.95549 
" clip-path="url(#pee8e1114e7)" style="fill: none; stroke: #3f3f3f; stroke-width: 5.625; stroke-linecap: square"/>
   </g>
   <g id="line2d_35">
    <path d="M 793.8 405.697066 
" clip-path="url(#pee8e1114e7)" style="fill: none; stroke: #3f3f3f; stroke-width: 1.5; stroke-linecap: square"/>
    <g clip-path="url(#pee8e1114e7)">
     <use xlink:href="#m3dc71c9278" x="793.8" y="405.697066" style="fill: #ffffff; stroke: #ffffff; stroke-width: 1.125"/>
    </g>
   </g>
   <g id="line2d_36">
    <path d="M 905.4 576.408892 
L 905.4 213.964676 
" clip-path="url(#pee8e1114e7)" style="fill: none; stroke: #3f3f3f; stroke-width: 1.875; stroke-linecap: square"/>
   </g>
   <g id="line2d_37">
    <path d="M 905.4 448.575714 
L 905.4 353.797704 
" clip-path="url(#pee8e1114e7)" style="fill: none; stroke: #3f3f3f; stroke-width: 5.625; stroke-linecap: square"/>
   </g>
   <g id="line2d_38">
    <path d="M 905.4 403.12344 
" clip-path="url(#pee8e1114e7)" style="fill: none; stroke: #3f3f3f; stroke-width: 1.5; stroke-linecap: square"/>
    <g clip-path="url(#pee8e1114e7)">
     <use xlink:href="#m3dc71c9278" x="905.4" y="403.12344" style="fill: #ffffff; stroke: #ffffff; stroke-width: 1.125"/>
    </g>
   </g>
   <g id="line2d_39">
    <path d="M 1017 576.408892 
L 1017 207.796726 
" clip-path="url(#pee8e1114e7)" style="fill: none; stroke: #3f3f3f; stroke-width: 1.875; stroke-linecap: square"/>
   </g>
   <g id="line2d_40">
    <path d="M 1017 447.730273 
L 1017 351.578179 
" clip-path="url(#pee8e1114e7)" style="fill: none; stroke: #3f3f3f; stroke-width: 5.625; stroke-linecap: square"/>
   </g>
   <g id="line2d_41">
    <path d="M 1017 401.512974 
" clip-path="url(#pee8e1114e7)" style="fill: none; stroke: #3f3f3f; stroke-width: 1.5; stroke-linecap: square"/>
    <g clip-path="url(#pee8e1114e7)">
     <use xlink:href="#m3dc71c9278" x="1017" y="401.512974" style="fill: #ffffff; stroke: #ffffff; stroke-width: 1.125"/>
    </g>
   </g>
   <g id="line2d_42">
    <path d="M 1128.6 576.408892 
L 1128.6 204.821436 
" clip-path="url(#pee8e1114e7)" style="fill: none; stroke: #3f3f3f; stroke-width: 1.875; stroke-linecap: square"/>
   </g>
   <g id="line2d_43">
    <path d="M 1128.6 447.632527 
L 1128.6 350.330539 
" clip-path="url(#pee8e1114e7)" style="fill: none; stroke: #3f3f3f; stroke-width: 5.625; stroke-linecap: square"/>
   </g>
   <g id="line2d_44">
    <path d="M 1128.6 400.547113 
" clip-path="url(#pee8e1114e7)" style="fill: none; stroke: #3f3f3f; stroke-width: 1.5; stroke-linecap: square"/>
    <g clip-path="url(#pee8e1114e7)">
     <use xlink:href="#m3dc71c9278" x="1128.6" y="400.547113" style="fill: #ffffff; stroke: #ffffff; stroke-width: 1.125"/>
    </g>
   </g>
   <g id="line2d_45">
    <path d="M 1240.2 576.408892 
L 1240.2 203.594708 
" clip-path="url(#pee8e1114e7)" style="fill: none; stroke: #3f3f3f; stroke-width: 1.875; stroke-linecap: square"/>
   </g>
   <g id="line2d_46">
    <path d="M 1240.2 444.976742 
L 1240.2 348.340199 
" clip-path="url(#pee8e1114e7)" style="fill: none; stroke: #3f3f3f; stroke-width: 5.625; stroke-linecap: square"/>
   </g>
   <g id="line2d_47">
    <path d="M 1240.2 397.753353 
" clip-path="url(#pee8e1114e7)" style="fill: none; stroke: #3f3f3f; stroke-width: 1.5; stroke-linecap: square"/>
    <g clip-path="url(#pee8e1114e7)">
     <use xlink:href="#m3dc71c9278" x="1240.2" y="397.753353" style="fill: #ffffff; stroke: #ffffff; stroke-width: 1.125"/>
    </g>
   </g>
   <g id="patch_3">
    <path d="M 180 640.8 
L 180 86.4 
" style="fill: none; stroke: #000000; stroke-width: 0.8; stroke-linejoin: miter; stroke-linecap: square"/>
   </g>
   <g id="patch_4">
    <path d="M 1296 640.8 
L 1296 86.4 
" style="fill: none; stroke: #000000; stroke-width: 0.8; stroke-linejoin: miter; stroke-linecap: square"/>
   </g>
   <g id="patch_5">
    <path d="M 180 640.8 
L 1296 640.8 
" style="fill: none; stroke: #000000; stroke-width: 0.8; stroke-linejoin: miter; stroke-linecap: square"/>
   </g>
   <g id="patch_6">
    <path d="M 180 86.4 
L 1296 86.4 
" style="fill: none; stroke: #000000; stroke-width: 0.8; stroke-linejoin: miter; stroke-linecap: square"/>
   </g>
   <g id="text_20">
    <!-- final cosine similarity of max_fs_glit (betweenFinalsVariety), by iteration -->
    <g transform="translate(521.954062 80.4) scale(0.12 -0.12)">
     <defs>
      <path id="DejaVuSans-78" d="M 3513 3500 
L 2247 1797 
L 3578 0 
L 2900 0 
L 1881 1375 
L 863 0 
L 184 0 
L 1544 1831 
L 300 3500 
L 978 3500 
L 1906 2253 
L 2834 3500 
L 3513 3500 
z
" transform="scale(0.015625)"/>
      <path id="DejaVuSans-5f" d="M 3263 -1063 
L 3263 -1509 
L -63 -1509 
L -63 -1063 
L 3263 -1063 
z
" transform="scale(0.015625)"/>
      <path id="DejaVuSans-67" d="M 2906 1791 
Q 2906 2416 2648 2759 
Q 2391 3103 1925 3103 
Q 1463 3103 1205 2759 
Q 947 2416 947 1791 
Q 947 1169 1205 825 
Q 1463 481 1925 481 
Q 2391 481 2648 825 
Q 2906 1169 2906 1791 
z
M 3481 434 
Q 3481 -459 3084 -895 
Q 2688 -1331 1869 -1331 
Q 1566 -1331 1297 -1286 
Q 1028 -1241 775 -1147 
L 775 -588 
Q 1028 -725 1275 -790 
Q 1522 -856 1778 -856 
Q 2344 -856 2625 -561 
Q 2906 -266 2906 331 
L 2906 616 
Q 2728 306 2450 153 
Q 2172 0 1784 0 
Q 1141 0 747 490 
Q 353 981 353 1791 
Q 353 2603 747 3093 
Q 1141 3584 1784 3584 
Q 2172 3584 2450 3431 
Q 2728 3278 2906 2969 
L 2906 3500 
L 3481 3500 
L 3481 434 
z
" transform="scale(0.015625)"/>
      <path id="DejaVuSans-28" d="M 1984 4856 
Q 1566 4138 1362 3434 
Q 1159 2731 1159 2009 
Q 1159 1288 1364 580 
Q 1569 -128 1984 -844 
L 1484 -844 
Q 1016 -109 783 600 
Q 550 1309 550 2009 
Q 550 2706 781 3412 
Q 1013 4119 1484 4856 
L 1984 4856 
z
" transform="scale(0.015625)"/>
      <path id="DejaVuSans-62" d="M 3116 1747 
Q 3116 2381 2855 2742 
Q 2594 3103 2138 3103 
Q 1681 3103 1420 2742 
Q 1159 2381 1159 1747 
Q 1159 1113 1420 752 
Q 1681 391 2138 391 
Q 2594 391 2855 752 
Q 3116 1113 3116 1747 
z
M 1159 2969 
Q 1341 3281 1617 3432 
Q 1894 3584 2278 3584 
Q 2916 3584 3314 3078 
Q 3713 2572 3713 1747 
Q 3713 922 3314 415 
Q 2916 -91 2278 -91 
Q 1894 -91 1617 61 
Q 1341 213 1159 525 
L 1159 0 
L 581 0 
L 581 4863 
L 1159 4863 
L 1159 2969 
z
" transform="scale(0.015625)"/>
      <path id="DejaVuSans-77" d="M 269 3500 
L 844 3500 
L 1563 769 
L 2278 3500 
L 2956 3500 
L 3675 769 
L 4391 3500 
L 4966 3500 
L 4050 0 
L 3372 0 
L 2619 2869 
L 1863 0 
L 1184 0 
L 269 3500 
z
" transform="scale(0.015625)"/>
      <path id="DejaVuSans-46" d="M 628 4666 
L 3309 4666 
L 3309 4134 
L 1259 4134 
L 1259 2759 
L 3109 2759 
L 3109 2228 
L 1259 2228 
L 1259 0 
L 628 0 
L 628 4666 
z
" transform="scale(0.015625)"/>
      <path id="DejaVuSans-56" d="M 1831 0 
L 50 4666 
L 709 4666 
L 2188 738 
L 3669 4666 
L 4325 4666 
L 2547 0 
L 1831 0 
z
" transform="scale(0.015625)"/>
      <path id="DejaVuSans-29" d="M 513 4856 
L 1013 4856 
Q 1481 4119 1714 3412 
Q 1947 2706 1947 2009 
Q 1947 1309 1714 600 
Q 1481 -109 1013 -844 
L 513 -844 
Q 928 -128 1133 580 
Q 1338 1288 1338 2009 
Q 1338 2731 1133 3434 
Q 928 4138 513 4856 
z
" transform="scale(0.015625)"/>
      <path id="DejaVuSans-2c" d="M 750 794 
L 1409 794 
L 1409 256 
L 897 -744 
L 494 -744 
L 750 256 
L 750 794 
z
" transform="scale(0.015625)"/>
     </defs>
     <use xlink:href="#DejaVuSans-66"/>
     <use xlink:href="#DejaVuSans-69" x="35.205078"/>
     <use xlink:href="#DejaVuSans-6e" x="62.988281"/>
     <use xlink:href="#DejaVuSans-61" x="126.367188"/>
     <use xlink:href="#DejaVuSans-6c" x="187.646484"/>
     <use xlink:href="#DejaVuSans-20" x="215.429688"/>
     <use xlink:href="#DejaVuSans-63" x="247.216797"/>
     <use xlink:href="#DejaVuSans-6f" x="302.197266"/>
     <use xlink:href="#DejaVuSans-73" x="363.378906"/>
     <use xlink:href="#DejaVuSans-69" x="415.478516"/>
     <use xlink:href="#DejaVuSans-6e" x="443.261719"/>
     <use xlink:href="#DejaVuSans-65" x="506.640625"/>
     <use xlink:href="#DejaVuSans-20" x="568.164062"/>
     <use xlink:href="#DejaVuSans-73" x="599.951172"/>
     <use xlink:href="#DejaVuSans-69" x="652.050781"/>
     <use xlink:href="#DejaVuSans-6d" x="679.833984"/>
     <use xlink:href="#DejaVuSans-69" x="777.246094"/>
     <use xlink:href="#DejaVuSans-6c" x="805.029297"/>
     <use xlink:href="#DejaVuSans-61" x="832.8125"/>
     <use xlink:href="#DejaVuSans-72" x="894.091797"/>
     <use xlink:href="#DejaVuSans-69" x="935.205078"/>
     <use xlink:href="#DejaVuSans-74" x="962.988281"/>
     <use xlink:href="#DejaVuSans-79" x="1002.197266"/>
     <use xlink:href="#DejaVuSans-20" x="1061.376953"/>
     <use xlink:href="#DejaVuSans-6f" x="1093.164062"/>
     <use xlink:href="#DejaVuSans-66" x="1154.345703"/>
     <use xlink:href="#DejaVuSans-20" x="1189.550781"/>
     <use xlink:href="#DejaVuSans-6d" x="1221.337891"/>
     <use xlink:href="#DejaVuSans-61" x="1318.75"/>
     <use xlink:href="#DejaVuSans-78" x="1380.029297"/>
     <use xlink:href="#DejaVuSans-5f" x="1439.208984"/>
     <use xlink:href="#DejaVuSans-66" x="1489.208984"/>
     <use xlink:href="#DejaVuSans-73" x="1524.414062"/>
     <use xlink:href="#DejaVuSans-5f" x="1576.513672"/>
     <use xlink:href="#DejaVuSans-67" x="1626.513672"/>
     <use xlink:href="#DejaVuSans-6c" x="1689.990234"/>
     <use xlink:href="#DejaVuSans-69" x="1717.773438"/>
     <use xlink:href="#DejaVuSans-74" x="1745.556641"/>
     <use xlink:href="#DejaVuSans-20" x="1784.765625"/>
     <use xlink:href="#DejaVuSans-28" x="1816.552734"/>
     <use xlink:href="#DejaVuSans-62" x="1855.566406"/>
     <use xlink:href="#DejaVuSans-65" x="1919.042969"/>
     <use xlink:href="#DejaVuSans-74" x="1980.566406"/>
     <use xlink:href="#DejaVuSans-77" x="2019.775391"/>
     <use xlink:href="#DejaVuSans-65" x="2101.5625"/>
     <use xlink:href="#DejaVuSans-65" x="2163.085938"/>
     <use xlink:href="#DejaVuSans-6e" x="2224.609375"/>
     <use xlink:href="#DejaVuSans-46" x="2287.988281"/>
     <use xlink:href="#DejaVuSans-69" x="2338.257812"/>
     <use xlink:href="#DejaVuSans-6e" x="2366.041016"/>
     <use xlink:href="#DejaVuSans-61" x="2429.419922"/>
     <use xlink:href="#DejaVuSans-6c" x="2490.699219"/>
     <use xlink:href="#DejaVuSans-73" x="2518.482422"/>
     <use xlink:href="#DejaVuSans-56" x="2570.582031"/>
     <use xlink:href="#DejaVuSans-61" x="2631.240234"/>
     <use xlink:href="#DejaVuSans-72" x="2692.519531"/>
     <use xlink:href="#DejaVuSans-69" x="2733.632812"/>
     <use xlink:href="#DejaVuSans-65" x="2761.416016"/>
     <use xlink:href="#DejaVuSans-74" x="2822.939453"/>
     <use xlink:href="#DejaVuSans-79" x="2862.148438"/>
     <use xlink:href="#DejaVuSans-29" x="2921.328125"/>
     <use xlink:href="#DejaVuSans-2c" x="2960.341797"/>
     <use xlink:href="#DejaVuSans-20" x="2992.128906"/>
     <use xlink:href="#DejaVuSans-62" x="3023.916016"/>
     <use xlink:href="#DejaVuSans-79" x="3087.392578"/>
     <use xlink:href="#DejaVuSans-20" x="3146.572266"/>
     <use xlink:href="#DejaVuSans-69" x="3178.359375"/>
     <use xlink:href="#DejaVuSans-74" x="3206.142578"/>
     <use xlink:href="#DejaVuSans-65" x="3245.351562"/>
     <use xlink:href="#DejaVuSans-72" x="3306.875"/>
     <use xlink:href="#DejaVuSans-61" x="3347.988281"/>
     <use xlink:href="#DejaVuSans-74" x="3409.267578"/>
     <use xlink:href="#DejaVuSans-69" x="3448.476562"/>
     <use xlink:href="#DejaVuSans-6f" x="3476.259766"/>
     <use xlink:href="#DejaVuSans-6e" x="3537.441406"/>
    </g>
   </g>
  </g>
 </g>
 <defs>
  <clipPath id="pee8e1114e7">
   <rect x="180" y="86.4" width="1116" height="554.4"/>
  </clipPath>
 </defs>
</svg>
