<?xml version="1.0" encoding="utf-8" standalone="no"?>
<!DOCTYPE svg PUBLIC "-//W3C//DTD SVG 1.1//EN"
  "http://www.w3.org/Graphics/SVG/1.1/DTD/svg11.dtd">
<svg xmlns:xlink="http://www.w3.org/1999/xlink" width="1440pt" height="720pt" viewBox="0 0 1440 720" xmlns="http://www.w3.org/2000/svg" version="1.1">
 <metadata>
  <rdf:RDF xmlns:dc="http://purl.org/dc/elements/1.1/" xmlns:cc="http://creativecommons.org/ns#" xmlns:rdf="http://www.w3.org/1999/02/22-rdf-syntax-ns#">
   <cc:Work>
    <dc:type rdf:resource="http://purl.org/dc/dcmitype/StillImage"/>
    <dc:date>2024-07-06T17:08:16.186434</dc:date>
    <dc:format>image/svg+xml</dc:format>
    <dc:creator>
     <cc:Agent>
      <dc:title>Matplotlib v3.8.0, https://matplotlib.org/</dc:title>
     </cc:Agent>
    </dc:creator>
   </cc:Work>
  </rdf:RDF>
 </metadata>
 <defs>
  <style type="text/css">*{stroke-linejoin: round; stroke-linecap: butt}</style>
 </defs>
 <g id="figure_1">
  <g id="patch_1">
   <path d="M 0 720 
L 1440 720 
L 1440 0 
L 0 0 
z
" style="fill: #ffffff"/>
  </g>
  <g id="axes_1">
   <g id="patch_2">
    <path d="M 180 640.8 
L 1296 640.8 
L 1296 86.4 
L 180 86.4 
z
" style="fill: #ffffff"/>
   </g>
   <g id="PolyCollection_1">
    <defs>
     <path id="m3b3e8d057c" d="M 235.995109 -104.4 
L 235.604891 -104.4 
L 235.525013 -108.785319 
L 235.421702 -113.170638 
L 235.29195 -117.555958 
L 235.133801 -121.941277 
L 234.94689 -126.326596 
L 234.732911 -130.711915 
L 234.495941 -135.097234 
L 234.242506 -139.482554 
L 233.981329 -143.867873 
L 233.722709 -148.253192 
L 233.477552 -152.638511 
L 233.256142 -157.02383 
L 233.066787 -161.40915 
L 232.914544 -165.794469 
L 232.80022 -170.179788 
L 232.719847 -174.565107 
L 232.664762 -178.950426 
L 232.622343 -183.335745 
L 232.577328 -187.721065 
L 232.513544 -192.106384 
L 232.415785 -196.491703 
L 232.271524 -200.877022 
L 232.072159 -205.262341 
L 231.81355 -209.647661 
L 231.495772 -214.03298 
L 231.122105 -218.418299 
L 230.697489 -222.803618 
L 230.226776 -227.188937 
L 229.713149 -231.574257 
L 229.157081 -235.959576 
L 228.556044 -240.344895 
L 227.905059 -244.730214 
L 227.197927 -249.115533 
L 226.428854 -253.500853 
L 225.594041 -257.886172 
L 224.692844 -262.271491 
L 223.728148 -266.65681 
L 222.705838 -271.042129 
L 221.633394 -275.427449 
L 220.517928 -279.812768 
L 219.364092 -284.198087 
L 218.172367 -288.583406 
L 216.938241 -292.968725 
L 215.652566 -297.354044 
L 214.303214 -301.739364 
L 212.877838 -306.124683 
L 211.367295 -310.510002 
L 209.769137 -314.895321 
L 208.090502 -319.28064 
L 206.349839 -323.66596 
L 204.577122 -328.051279 
L 202.812486 -332.436598 
L 201.103522 -336.821917 
L 199.501704 -341.207236 
L 198.058525 -345.592556 
L 196.821893 -349.977875 
L 195.833213 -354.363194 
L 195.125339 -358.748513 
L 194.721372 -363.133832 
L 194.634135 -367.519152 
L 194.866054 -371.904471 
L 195.40926 -376.28979 
L 196.245803 -380.675109 
L 197.348032 -385.060428 
L 198.679309 -389.445748 
L 200.195268 -393.831067 
L 201.845772 -398.216386 
L 203.57761 -402.601705 
L 205.337788 -406.987024 
L 207.077109 -411.372344 
L 208.753599 -415.757663 
L 210.335356 -420.142982 
L 211.802393 -424.528301 
L 213.14727 -428.91362 
L 214.37445 -433.298939 
L 215.498514 -437.684259 
L 216.54154 -442.069578 
L 217.52999 -446.454897 
L 218.4915 -450.840216 
L 219.451878 -455.225535 
L 220.432588 -459.610855 
L 221.448852 -463.996174 
L 222.50848 -468.381493 
L 223.611446 -472.766812 
L 224.750196 -477.152131 
L 225.910633 -481.537451 
L 227.073659 -485.92277 
L 228.217134 -490.308089 
L 229.318035 -494.693408 
L 230.354592 -499.078727 
L 231.30817 -503.464047 
L 232.164686 -507.849366 
L 232.91546 -512.234685 
L 233.55741 -516.620004 
L 234.092692 -521.005323 
L 234.527846 -525.390643 
L 234.872674 -529.775962 
L 235.138986 -534.161281 
L 235.339412 -538.5466 
L 236.260588 -538.5466 
L 236.260588 -538.5466 
L 236.461014 -534.161281 
L 236.727326 -529.775962 
L 237.072154 -525.390643 
L 237.507308 -521.005323 
L 238.04259 -516.620004 
L 238.68454 -512.234685 
L 239.435314 -507.849366 
L 240.29183 -503.464047 
L 241.245408 -499.078727 
L 242.281965 -494.693408 
L 243.382866 -490.308089 
L 244.526341 -485.92277 
L 245.689367 -481.537451 
L 246.849804 -477.152131 
L 247.988554 -472.766812 
L 249.09152 -468.381493 
L 250.151148 -463.996174 
L 251.167412 -459.610855 
L 252.148122 -455.225535 
L 253.1085 -450.840216 
L 254.07001 -446.454897 
L 255.05846 -442.069578 
L 256.101486 -437.684259 
L 257.22555 -433.298939 
L 258.45273 -428.91362 
L 259.797607 -424.528301 
L 261.264644 -420.142982 
L 262.846401 -415.757663 
L 264.522891 -411.372344 
L 266.262212 -406.987024 
L 268.02239 -402.601705 
L 269.754228 -398.216386 
L 271.404732 -393.831067 
L 272.920691 -389.445748 
L 274.251968 -385.060428 
L 275.354197 -380.675109 
L 276.19074 -376.28979 
L 276.733946 -371.904471 
L 276.965865 -367.519152 
L 276.878628 -363.133832 
L 276.474661 -358.748513 
L 275.766787 -354.363194 
L 274.778107 -349.977875 
L 273.541475 -345.592556 
L 272.098296 -341.207236 
L 270.496478 -336.821917 
L 268.787514 -332.436598 
L 267.022878 -328.051279 
L 265.250161 -323.66596 
L 263.509498 -319.28064 
L 261.830863 -314.895321 
L 260.232705 -310.510002 
L 258.722162 -306.124683 
L 257.296786 -301.739364 
L 255.947434 -297.354044 
L 254.661759 -292.968725 
L 253.427633 -288.583406 
L 252.235908 -284.198087 
L 251.082072 -279.812768 
L 249.966606 -275.427449 
L 248.894162 -271.042129 
L 247.871852 -266.65681 
L 246.907156 -262.271491 
L 246.005959 -257.886172 
L 245.171146 -253.500853 
L 244.402073 -249.115533 
L 243.694941 -244.730214 
L 243.043956 -240.344895 
L 242.442919 -235.959576 
L 241.886851 -231.574257 
L 241.373224 -227.188937 
L 240.902511 -222.803618 
L 240.477895 -218.418299 
L 240.104228 -214.03298 
L 239.78645 -209.647661 
L 239.527841 -205.262341 
L 239.328476 -200.877022 
L 239.184215 -196.491703 
L 239.086456 -192.106384 
L 239.022672 -187.721065 
L 238.977657 -183.335745 
L 238.935238 -178.950426 
L 238.880153 -174.565107 
L 238.79978 -170.179788 
L 238.685456 -165.794469 
L 238.533213 -161.40915 
L 238.343858 -157.02383 
L 238.122448 -152.638511 
L 237.877291 -148.253192 
L 237.618671 -143.867873 
L 237.357494 -139.482554 
L 237.104059 -135.097234 
L 236.867089 -130.711915 
L 236.65311 -126.326596 
L 236.466199 -121.941277 
L 236.30805 -117.555958 
L 236.178298 -113.170638 
L 236.074987 -108.785319 
L 235.995109 -104.4 
z
" style="stroke: #3f3f3f; stroke-width: 1.25"/>
    </defs>
    <g clip-path="url(#p2509b6a0b0)">
     <use xlink:href="#m3b3e8d057c" x="0" y="720" style="fill: #3274a1; stroke: #3f3f3f; stroke-width: 1.25"/>
    </g>
   </g>
   <g id="PolyCollection_2">
    <defs>
     <path id="mf69f1f13f1" d="M 347.606109 -146.643814 
L 347.193891 -146.643814 
L 347.124621 -150.796124 
L 347.037961 -154.948434 
L 346.93142 -159.100744 
L 346.802619 -163.253055 
L 346.649382 -167.405365 
L 346.469816 -171.557675 
L 346.262365 -175.709985 
L 346.025832 -179.862295 
L 345.759377 -184.014605 
L 345.462486 -188.166915 
L 345.134931 -192.319226 
L 344.776722 -196.471536 
L 344.388067 -200.623846 
L 343.969335 -204.776156 
L 343.521016 -208.928466 
L 343.043667 -213.080776 
L 342.537827 -217.233087 
L 342.00387 -221.385397 
L 341.441816 -225.537707 
L 340.851069 -229.690017 
L 340.230149 -233.842327 
L 339.576438 -237.994637 
L 338.88602 -242.146948 
L 338.153688 -246.299258 
L 337.373172 -250.451568 
L 336.537637 -254.603878 
L 335.640457 -258.756188 
L 334.676195 -262.908498 
L 333.641723 -267.060809 
L 332.537315 -271.213119 
L 331.367565 -275.365429 
L 330.141958 -279.517739 
L 328.874966 -283.670049 
L 327.585587 -287.822359 
L 326.296314 -291.97467 
L 325.031625 -296.12698 
L 323.816129 -300.27929 
L 322.672587 -304.4316 
L 321.620044 -308.58391 
L 320.672294 -312.73622 
L 319.836893 -316.888531 
L 319.114816 -321.040841 
L 318.500833 -325.193151 
L 317.98454 -329.345461 
L 317.551921 -333.497771 
L 317.187255 -337.650081 
L 316.875133 -341.802392 
L 316.602343 -345.954702 
L 316.359397 -350.107012 
L 316.141531 -354.259322 
L 315.949052 -358.411632 
L 315.787017 -362.563942 
L 315.664287 -366.716253 
L 315.592089 -370.868563 
L 315.582283 -375.020873 
L 315.645562 -379.173183 
L 315.78983 -383.325493 
L 316.018957 -387.477803 
L 316.332102 -391.630114 
L 316.723653 -395.782424 
L 317.183816 -399.934734 
L 317.699745 -404.087044 
L 318.257069 -408.239354 
L 318.841589 -412.391664 
L 319.440937 -416.543975 
L 320.045979 -420.696285 
L 320.651789 -424.848595 
L 321.258101 -429.000905 
L 321.869203 -433.153215 
L 322.493316 -437.305525 
L 323.141561 -441.457836 
L 323.826659 -445.610146 
L 324.561501 -449.762456 
L 325.357763 -453.914766 
L 326.224673 -458.067076 
L 327.168031 -462.219386 
L 328.189547 -466.371696 
L 329.286514 -470.524007 
L 330.451819 -474.676317 
L 331.674254 -478.828627 
L 332.939111 -482.980937 
L 334.228971 -487.133247 
L 335.52466 -491.285557 
L 336.806281 -495.437868 
L 338.05426 -499.590178 
L 339.250331 -503.742488 
L 340.378407 -507.894798 
L 341.425263 -512.047108 
L 342.381008 -516.199418 
L 343.239321 -520.351729 
L 343.99744 -524.504039 
L 344.655948 -528.656349 
L 345.218361 -532.808659 
L 345.690603 -536.960969 
L 346.08039 -541.113279 
L 346.396611 -545.26559 
L 346.648723 -549.4179 
L 346.846231 -553.57021 
L 346.998253 -557.72252 
L 347.801747 -557.72252 
L 347.801747 -557.72252 
L 347.953769 -553.57021 
L 348.151277 -549.4179 
L 348.403389 -545.26559 
L 348.71961 -541.113279 
L 349.109397 -536.960969 
L 349.581639 -532.808659 
L 350.144052 -528.656349 
L 350.80256 -524.504039 
L 351.560679 -520.351729 
L 352.418992 -516.199418 
L 353.374737 -512.047108 
L 354.421593 -507.894798 
L 355.549669 -503.742488 
L 356.74574 -499.590178 
L 357.993719 -495.437868 
L 359.27534 -491.285557 
L 360.571029 -487.133247 
L 361.860889 -482.980937 
L 363.125746 -478.828627 
L 364.348181 -474.676317 
L 365.513486 -470.524007 
L 366.610453 -466.371696 
L 367.631969 -462.219386 
L 368.575327 -458.067076 
L 369.442237 -453.914766 
L 370.238499 -449.762456 
L 370.973341 -445.610146 
L 371.658439 -441.457836 
L 372.306684 -437.305525 
L 372.930797 -433.153215 
L 373.541899 -429.000905 
L 374.148211 -424.848595 
L 374.754021 -420.696285 
L 375.359063 -416.543975 
L 375.958411 -412.391664 
L 376.542931 -408.239354 
L 377.100255 -404.087044 
L 377.616184 -399.934734 
L 378.076347 -395.782424 
L 378.467898 -391.630114 
L 378.781043 -387.477803 
L 379.01017 -383.325493 
L 379.154438 -379.173183 
L 379.217717 -375.020873 
L 379.207911 -370.868563 
L 379.135713 -366.716253 
L 379.012983 -362.563942 
L 378.850948 -358.411632 
L 378.658469 -354.259322 
L 378.440603 -350.107012 
L 378.197657 -345.954702 
L 377.924867 -341.802392 
L 377.612745 -337.650081 
L 377.248079 -333.497771 
L 376.81546 -329.345461 
L 376.299167 -325.193151 
L 375.685184 -321.040841 
L 374.963107 -316.888531 
L 374.127706 -312.73622 
L 373.179956 -308.58391 
L 372.127413 -304.4316 
L 370.983871 -300.27929 
L 369.768375 -296.12698 
L 368.503686 -291.97467 
L 367.214413 -287.822359 
L 365.925034 -283.670049 
L 364.658042 -279.517739 
L 363.432435 -275.365429 
L 362.262685 -271.213119 
L 361.158277 -267.060809 
L 360.123805 -262.908498 
L 359.159543 -258.756188 
L 358.262363 -254.603878 
L 357.426828 -250.451568 
L 356.646312 -246.299258 
L 355.91398 -242.146948 
L 355.223562 -237.994637 
L 354.569851 -233.842327 
L 353.948931 -229.690017 
L 353.358184 -225.537707 
L 352.79613 -221.385397 
L 352.262173 -217.233087 
L 351.756333 -213.080776 
L 351.278984 -208.928466 
L 350.830665 -204.776156 
L 350.411933 -200.623846 
L 350.023278 -196.471536 
L 349.665069 -192.319226 
L 349.337514 -188.166915 
L 349.040623 -184.014605 
L 348.774168 -179.862295 
L 348.537635 -175.709985 
L 348.330184 -171.557675 
L 348.150618 -167.405365 
L 347.997381 -163.253055 
L 347.86858 -159.100744 
L 347.762039 -154.948434 
L 347.675379 -150.796124 
L 347.606109 -146.643814 
z
" style="stroke: #3f3f3f; stroke-width: 1.25"/>
    </defs>
    <g clip-path="url(#p2509b6a0b0)">
     <use xlink:href="#mf69f1f13f1" x="0" y="720" style="fill: #3274a1; stroke: #3f3f3f; stroke-width: 1.25"/>
    </g>
   </g>
   <g id="PolyCollection_3">
    <defs>
     <path id="m293da5e4bd" d="M 459.288836 -128.303353 
L 458.711164 -128.303353 
L 458.627465 -132.764444 
L 458.527723 -137.225535 
L 458.411494 -141.686625 
L 458.279153 -146.147716 
L 458.132048 -150.608807 
L 457.972602 -155.069898 
L 457.804317 -159.530988 
L 457.631665 -163.992079 
L 457.459866 -168.45317 
L 457.294519 -172.91426 
L 457.141139 -177.375351 
L 457.004598 -181.836442 
L 456.888538 -186.297533 
L 456.794787 -190.758623 
L 456.72285 -195.219714 
L 456.669533 -199.680805 
L 456.628728 -204.141896 
L 456.591416 -208.602986 
L 456.545893 -213.064077 
L 456.478216 -217.525168 
L 456.372865 -221.986259 
L 456.213563 -226.447349 
L 455.984228 -230.90844 
L 455.669983 -235.369531 
L 455.258156 -239.830621 
L 454.739203 -244.291712 
L 454.107475 -248.752803 
L 453.361766 -253.213894 
L 452.505564 -257.674984 
L 451.54698 -262.136075 
L 450.498316 -266.597166 
L 449.375285 -271.058257 
L 448.19593 -275.519347 
L 446.979309 -279.980438 
L 445.744071 -284.441529 
L 444.507069 -288.902619 
L 443.282144 -293.36371 
L 442.079251 -297.824801 
L 440.904039 -302.285892 
L 439.757968 -306.746982 
L 438.638973 -311.208073 
L 437.54263 -315.669164 
L 436.463679 -320.130255 
L 435.39774 -324.591345 
L 434.342968 -329.052436 
L 433.301436 -333.513527 
L 432.280012 -337.974618 
L 431.290579 -342.435708 
L 430.34953 -346.896799 
L 429.476538 -351.35789 
L 428.692751 -355.81898 
L 428.018584 -360.280071 
L 427.471421 -364.741162 
L 427.063484 -369.202253 
L 426.80018 -373.663343 
L 426.679155 -378.124434 
L 426.690192 -382.585525 
L 426.816012 -387.046616 
L 427.033901 -391.507706 
L 427.31799 -395.968797 
L 427.64192 -400.429888 
L 427.981596 -404.890978 
L 428.317688 -409.352069 
L 428.637595 -413.81316 
L 428.936639 -418.274251 
L 429.218362 -422.735341 
L 429.493916 -427.196432 
L 429.780626 -431.657523 
L 430.099945 -436.118614 
L 430.475051 -440.579704 
L 430.928397 -445.040795 
L 431.479482 -449.501886 
L 432.14309 -453.962977 
L 432.928148 -458.424067 
L 433.837249 -462.885158 
L 434.866815 -467.346249 
L 436.007782 -471.807339 
L 437.246628 -476.26843 
L 438.566577 -480.729521 
L 439.948801 -485.190612 
L 441.373489 -489.651702 
L 442.820715 -494.112793 
L 444.271073 -498.573884 
L 445.706117 -503.034975 
L 447.108654 -507.496065 
L 448.462958 -511.957156 
L 449.754957 -516.418247 
L 450.972431 -520.879337 
L 452.105231 -525.340428 
L 453.145495 -529.801519 
L 454.087836 -534.26261 
L 454.929457 -538.7237 
L 455.670155 -543.184791 
L 456.312207 -547.645882 
L 456.860118 -552.106973 
L 457.320253 -556.568063 
L 457.700399 -561.029154 
L 458.009268 -565.490245 
L 458.256017 -569.951336 
L 459.743983 -569.951336 
L 459.743983 -569.951336 
L 459.990732 -565.490245 
L 460.299601 -561.029154 
L 460.679747 -556.568063 
L 461.139882 -552.106973 
L 461.687793 -547.645882 
L 462.329845 -543.184791 
L 463.070543 -538.7237 
L 463.912164 -534.26261 
L 464.854505 -529.801519 
L 465.894769 -525.340428 
L 467.027569 -520.879337 
L 468.245043 -516.418247 
L 469.537042 -511.957156 
L 470.891346 -507.496065 
L 472.293883 -503.034975 
L 473.728927 -498.573884 
L 475.179285 -494.112793 
L 476.626511 -489.651702 
L 478.051199 -485.190612 
L 479.433423 -480.729521 
L 480.753372 -476.26843 
L 481.992218 -471.807339 
L 483.133185 -467.346249 
L 484.162751 -462.885158 
L 485.071852 -458.424067 
L 485.85691 -453.962977 
L 486.520518 -449.501886 
L 487.071603 -445.040795 
L 487.524949 -440.579704 
L 487.900055 -436.118614 
L 488.219374 -431.657523 
L 488.506084 -427.196432 
L 488.781638 -422.735341 
L 489.063361 -418.274251 
L 489.362405 -413.81316 
L 489.682312 -409.352069 
L 490.018404 -404.890978 
L 490.35808 -400.429888 
L 490.68201 -395.968797 
L 490.966099 -391.507706 
L 491.183988 -387.046616 
L 491.309808 -382.585525 
L 491.320845 -378.124434 
L 491.19982 -373.663343 
L 490.936516 -369.202253 
L 490.528579 -364.741162 
L 489.981416 -360.280071 
L 489.307249 -355.81898 
L 488.523462 -351.35789 
L 487.65047 -346.896799 
L 486.709421 -342.435708 
L 485.719988 -337.974618 
L 484.698564 -333.513527 
L 483.657032 -329.052436 
L 482.60226 -324.591345 
L 481.536321 -320.130255 
L 480.45737 -315.669164 
L 479.361027 -311.208073 
L 478.242032 -306.746982 
L 477.095961 -302.285892 
L 475.920749 -297.824801 
L 474.717856 -293.36371 
L 473.492931 -288.902619 
L 472.255929 -284.441529 
L 471.020691 -279.980438 
L 469.80407 -275.519347 
L 468.624715 -271.058257 
L 467.501684 -266.597166 
L 466.45302 -262.136075 
L 465.494436 -257.674984 
L 464.638234 -253.213894 
L 463.892525 -248.752803 
L 463.260797 -244.291712 
L 462.741844 -239.830621 
L 462.330017 -235.369531 
L 462.015772 -230.90844 
L 461.786437 -226.447349 
L 461.627135 -221.986259 
L 461.521784 -217.525168 
L 461.454107 -213.064077 
L 461.408584 -208.602986 
L 461.371272 -204.141896 
L 461.330467 -199.680805 
L 461.27715 -195.219714 
L 461.205213 -190.758623 
L 461.111462 -186.297533 
L 460.995402 -181.836442 
L 460.858861 -177.375351 
L 460.705481 -172.91426 
L 460.540134 -168.45317 
L 460.368335 -163.992079 
L 460.195683 -159.530988 
L 460.027398 -155.069898 
L 459.867952 -150.608807 
L 459.720847 -146.147716 
L 459.588506 -141.686625 
L 459.472277 -137.225535 
L 459.372535 -132.764444 
L 459.288836 -128.303353 
z
" style="stroke: #3f3f3f; stroke-width: 1.25"/>
    </defs>
    <g clip-path="url(#p2509b6a0b0)">
     <use xlink:href="#m293da5e4bd" x="0" y="720" style="fill: #3274a1; stroke: #3f3f3f; stroke-width: 1.25"/>
    </g>
   </g>
   <g id="PolyCollection_4">
    <defs>
     <path id="m6089ca393e" d="M 571.503556 -143.397968 
L 569.696444 -143.397968 
L 569.463912 -147.895058 
L 569.188065 -152.392148 
L 568.865469 -156.889238 
L 568.493625 -161.386328 
L 568.071282 -165.883418 
L 567.598738 -170.380508 
L 567.078089 -174.877598 
L 566.513413 -179.374688 
L 565.910852 -183.871778 
L 565.278571 -188.368868 
L 564.626587 -192.865958 
L 563.966445 -197.363048 
L 563.310763 -201.860138 
L 562.672656 -206.357228 
L 562.065063 -210.854318 
L 561.500034 -215.351408 
L 560.988009 -219.848498 
L 560.537147 -224.345588 
L 560.152766 -228.842678 
L 559.836915 -233.339768 
L 559.58815 -237.836858 
L 559.401499 -242.333948 
L 559.268657 -246.831038 
L 559.178378 -251.328128 
L 559.117049 -255.825218 
L 559.06941 -260.322308 
L 559.019361 -264.819398 
L 558.950808 -269.316488 
L 558.848488 -273.813578 
L 558.698713 -278.310668 
L 558.489996 -282.807758 
L 558.213511 -287.304848 
L 557.863368 -291.801938 
L 557.436698 -296.299028 
L 556.933546 -300.796118 
L 556.356602 -305.293208 
L 555.710798 -309.790298 
L 555.002817 -314.287388 
L 554.240557 -318.784478 
L 553.432612 -323.281568 
L 552.587796 -327.778658 
L 551.714772 -332.275748 
L 550.821791 -336.772838 
L 549.916572 -341.269928 
L 549.006305 -345.767018 
L 548.097776 -350.264108 
L 547.197568 -354.761198 
L 546.312314 -359.258288 
L 545.448949 -363.755378 
L 544.614924 -368.252468 
L 543.81834 -372.749558 
L 543.06798 -377.246648 
L 542.373229 -381.743738 
L 541.743873 -386.240828 
L 541.189804 -390.737918 
L 540.720652 -395.235008 
L 540.34539 -399.732098 
L 540.071934 -404.229188 
L 539.9068 -408.726279 
L 539.854833 -413.223369 
L 539.919034 -417.720459 
L 540.100503 -422.217549 
L 540.398485 -426.714639 
L 540.810511 -431.211729 
L 541.332606 -435.708819 
L 541.959544 -440.205909 
L 542.68511 -444.702999 
L 543.50234 -449.200089 
L 544.403727 -453.697179 
L 545.381374 -458.194269 
L 546.427085 -462.691359 
L 547.532403 -467.188449 
L 548.688608 -471.685539 
L 549.88669 -476.182629 
L 551.117318 -480.679719 
L 552.370825 -485.176809 
L 553.637227 -489.673899 
L 554.906286 -494.170989 
L 556.16762 -498.668079 
L 557.410871 -503.165169 
L 558.6259 -507.662259 
L 559.803026 -512.159349 
L 560.933265 -516.656439 
L 562.008571 -521.153529 
L 563.022047 -525.650619 
L 563.968124 -530.147709 
L 564.842676 -534.644799 
L 565.643094 -539.141889 
L 566.368278 -543.638979 
L 567.018582 -548.136069 
L 567.595698 -552.633159 
L 568.102494 -557.130249 
L 568.542827 -561.627339 
L 568.921321 -566.124429 
L 569.243151 -570.621519 
L 569.513824 -575.118609 
L 569.738977 -579.615699 
L 569.924199 -584.112789 
L 570.07488 -588.609879 
L 571.12512 -588.609879 
L 571.12512 -588.609879 
L 571.275801 -584.112789 
L 571.461023 -579.615699 
L 571.686176 -575.118609 
L 571.956849 -570.621519 
L 572.278679 -566.124429 
L 572.657173 -561.627339 
L 573.097506 -557.130249 
L 573.604302 -552.633159 
L 574.181418 -548.136069 
L 574.831722 -543.638979 
L 575.556906 -539.141889 
L 576.357324 -534.644799 
L 577.231876 -530.147709 
L 578.177953 -525.650619 
L 579.191429 -521.153529 
L 580.266735 -516.656439 
L 581.396974 -512.159349 
L 582.5741 -507.662259 
L 583.789129 -503.165169 
L 585.03238 -498.668079 
L 586.293714 -494.170989 
L 587.562773 -489.673899 
L 588.829175 -485.176809 
L 590.082682 -480.679719 
L 591.31331 -476.182629 
L 592.511392 -471.685539 
L 593.667597 -467.188449 
L 594.772915 -462.691359 
L 595.818626 -458.194269 
L 596.796273 -453.697179 
L 597.69766 -449.200089 
L 598.51489 -444.702999 
L 599.240456 -440.205909 
L 599.867394 -435.708819 
L 600.389489 -431.211729 
L 600.801515 -426.714639 
L 601.099497 -422.217549 
L 601.280966 -417.720459 
L 601.345167 -413.223369 
L 601.2932 -408.726279 
L 601.128066 -404.229188 
L 600.85461 -399.732098 
L 600.479348 -395.235008 
L 600.010196 -390.737918 
L 599.456127 -386.240828 
L 598.826771 -381.743738 
L 598.13202 -377.246648 
L 597.38166 -372.749558 
L 596.585076 -368.252468 
L 595.751051 -363.755378 
L 594.887686 -359.258288 
L 594.002432 -354.761198 
L 593.102224 -350.264108 
L 592.193695 -345.767018 
L 591.283428 -341.269928 
L 590.378209 -336.772838 
L 589.485228 -332.275748 
L 588.612204 -327.778658 
L 587.767388 -323.281568 
L 586.959443 -318.784478 
L 586.197183 -314.287388 
L 585.489202 -309.790298 
L 584.843398 -305.293208 
L 584.266454 -300.796118 
L 583.763302 -296.299028 
L 583.336632 -291.801938 
L 582.986489 -287.304848 
L 582.710004 -282.807758 
L 582.501287 -278.310668 
L 582.351512 -273.813578 
L 582.249192 -269.316488 
L 582.180639 -264.819398 
L 582.13059 -260.322308 
L 582.082951 -255.825218 
L 582.021622 -251.328128 
L 581.931343 -246.831038 
L 581.798501 -242.333948 
L 581.61185 -237.836858 
L 581.363085 -233.339768 
L 581.047234 -228.842678 
L 580.662853 -224.345588 
L 580.211991 -219.848498 
L 579.699966 -215.351408 
L 579.134937 -210.854318 
L 578.527344 -206.357228 
L 577.889237 -201.860138 
L 577.233555 -197.363048 
L 576.573413 -192.865958 
L 575.921429 -188.368868 
L 575.289148 -183.871778 
L 574.686587 -179.374688 
L 574.121911 -174.877598 
L 573.601262 -170.380508 
L 573.128718 -165.883418 
L 572.706375 -161.386328 
L 572.334531 -156.889238 
L 572.011935 -152.392148 
L 571.736088 -147.895058 
L 571.503556 -143.397968 
z
" style="stroke: #3f3f3f; stroke-width: 1.25"/>
    </defs>
    <g clip-path="url(#p2509b6a0b0)">
     <use xlink:href="#m6089ca393e" x="0" y="720" style="fill: #3274a1; stroke: #3f3f3f; stroke-width: 1.25"/>
    </g>
   </g>
   <g id="PolyCollection_5">
    <defs>
     <path id="m7a544ed546" d="M 682.759307 -172.004859 
L 681.640693 -172.004859 
L 681.498492 -176.41289 
L 681.329392 -180.820922 
L 681.130754 -185.228954 
L 680.900253 -189.636986 
L 680.636011 -194.045017 
L 680.336733 -198.453049 
L 680.001824 -202.861081 
L 679.631482 -207.269112 
L 679.226766 -211.677144 
L 678.789609 -216.085176 
L 678.322789 -220.493208 
L 677.82985 -224.901239 
L 677.314963 -229.309271 
L 676.782742 -233.717303 
L 676.23801 -238.125335 
L 675.685529 -242.533366 
L 675.129716 -246.941398 
L 674.574334 -251.34943 
L 674.022197 -255.757461 
L 673.474898 -260.165493 
L 672.932578 -264.573525 
L 672.393748 -268.981557 
L 671.85519 -273.389588 
L 671.311955 -277.79762 
L 670.757457 -282.205652 
L 670.183684 -286.613684 
L 669.581529 -291.021715 
L 668.941231 -295.429747 
L 668.252923 -299.837779 
L 667.507256 -304.245811 
L 666.696076 -308.653842 
L 665.813113 -313.061874 
L 664.854634 -317.469906 
L 663.820009 -321.877937 
L 662.712151 -326.285969 
L 661.537778 -330.694001 
L 660.30746 -335.102033 
L 659.035449 -339.510064 
L 657.739273 -343.918096 
L 656.439124 -348.326128 
L 655.157075 -352.73416 
L 653.916167 -357.142191 
L 652.739455 -361.550223 
L 651.649049 -365.958255 
L 650.665254 -370.366287 
L 649.805829 -374.774318 
L 649.085443 -379.18235 
L 648.515333 -383.590382 
L 648.103163 -387.998413 
L 647.853092 -392.406445 
L 647.76599 -396.814477 
L 647.839768 -401.222509 
L 648.069775 -405.63054 
L 648.4492 -410.038572 
L 648.969445 -414.446604 
L 649.620439 -418.854636 
L 650.390871 -423.262667 
L 651.26836 -427.670699 
L 652.239568 -432.078731 
L 653.290289 -436.486762 
L 654.40555 -440.894794 
L 655.569757 -445.302826 
L 656.766915 -449.710858 
L 657.980929 -454.118889 
L 659.196003 -458.526921 
L 660.39711 -462.934953 
L 661.570502 -467.342985 
L 662.70423 -471.751016 
L 663.788619 -476.159048 
L 664.816645 -480.56708 
L 665.784182 -484.975112 
L 666.690076 -489.383143 
L 667.536039 -493.791175 
L 668.326351 -498.199207 
L 669.067397 -502.607238 
L 669.767076 -507.01527 
L 670.434116 -511.423302 
L 671.077367 -515.831334 
L 671.705119 -520.239365 
L 672.324501 -524.647397 
L 672.941008 -529.055429 
L 673.558185 -533.463461 
L 674.177487 -537.871492 
L 674.798313 -542.279524 
L 675.418196 -546.687556 
L 676.033127 -551.095587 
L 676.63797 -555.503619 
L 677.226924 -559.911651 
L 677.793999 -564.319683 
L 678.333453 -568.727714 
L 678.840174 -573.135746 
L 679.309973 -577.543778 
L 679.73978 -581.95181 
L 680.127739 -586.359841 
L 680.473215 -590.767873 
L 680.776713 -595.175905 
L 681.039745 -599.583937 
L 681.264646 -603.991968 
L 681.454373 -608.4 
L 682.945627 -608.4 
L 682.945627 -608.4 
L 683.135354 -603.991968 
L 683.360255 -599.583937 
L 683.623287 -595.175905 
L 683.926785 -590.767873 
L 684.272261 -586.359841 
L 684.66022 -581.95181 
L 685.090027 -577.543778 
L 685.559826 -573.135746 
L 686.066547 -568.727714 
L 686.606001 -564.319683 
L 687.173076 -559.911651 
L 687.76203 -555.503619 
L 688.366873 -551.095587 
L 688.981804 -546.687556 
L 689.601687 -542.279524 
L 690.222513 -537.871492 
L 690.841815 -533.463461 
L 691.458992 -529.055429 
L 692.075499 -524.647397 
L 692.694881 -520.239365 
L 693.322633 -515.831334 
L 693.965884 -511.423302 
L 694.632924 -507.01527 
L 695.332603 -502.607238 
L 696.073649 -498.199207 
L 696.863961 -493.791175 
L 697.709924 -489.383143 
L 698.615818 -484.975112 
L 699.583355 -480.56708 
L 700.611381 -476.159048 
L 701.69577 -471.751016 
L 702.829498 -467.342985 
L 704.00289 -462.934953 
L 705.203997 -458.526921 
L 706.419071 -454.118889 
L 707.633085 -449.710858 
L 708.830243 -445.302826 
L 709.99445 -440.894794 
L 711.109711 -436.486762 
L 712.160432 -432.078731 
L 713.13164 -427.670699 
L 714.009129 -423.262667 
L 714.779561 -418.854636 
L 715.430555 -414.446604 
L 715.9508 -410.038572 
L 716.330225 -405.63054 
L 716.560232 -401.222509 
L 716.63401 -396.814477 
L 716.546908 -392.406445 
L 716.296837 -387.998413 
L 715.884667 -383.590382 
L 715.314557 -379.18235 
L 714.594171 -374.774318 
L 713.734746 -370.366287 
L 712.750951 -365.958255 
L 711.660545 -361.550223 
L 710.483833 -357.142191 
L 709.242925 -352.73416 
L 707.960876 -348.326128 
L 706.660727 -343.918096 
L 705.364551 -339.510064 
L 704.09254 -335.102033 
L 702.862222 -330.694001 
L 701.687849 -326.285969 
L 700.579991 -321.877937 
L 699.545366 -317.469906 
L 698.586887 -313.061874 
L 697.703924 -308.653842 
L 696.892744 -304.245811 
L 696.147077 -299.837779 
L 695.458769 -295.429747 
L 694.818471 -291.021715 
L 694.216316 -286.613684 
L 693.642543 -282.205652 
L 693.088045 -277.79762 
L 692.54481 -273.389588 
L 692.006252 -268.981557 
L 691.467422 -264.573525 
L 690.925102 -260.165493 
L 690.377803 -255.757461 
L 689.825666 -251.34943 
L 689.270284 -246.941398 
L 688.714471 -242.533366 
L 688.16199 -238.125335 
L 687.617258 -233.717303 
L 687.085037 -229.309271 
L 686.57015 -224.901239 
L 686.077211 -220.493208 
L 685.610391 -216.085176 
L 685.173234 -211.677144 
L 684.768518 -207.269112 
L 684.398176 -202.861081 
L 684.063267 -198.453049 
L 683.763989 -194.045017 
L 683.499747 -189.636986 
L 683.269246 -185.228954 
L 683.070608 -180.820922 
L 682.901508 -176.41289 
L 682.759307 -172.004859 
z
" style="stroke: #3f3f3f; stroke-width: 1.25"/>
    </defs>
    <g clip-path="url(#p2509b6a0b0)">
     <use xlink:href="#m7a544ed546" x="0" y="720" style="fill: #3274a1; stroke: #3f3f3f; stroke-width: 1.25"/>
    </g>
   </g>
   <g id="PolyCollection_6">
    <defs>
     <path id="ma6ce977aab" d="M 794.919361 -216.64273 
L 792.680639 -216.64273 
L 792.405069 -220.164171 
L 792.081091 -223.685612 
L 791.705452 -227.207054 
L 791.276006 -230.728495 
L 790.792027 -234.249937 
L 790.254487 -237.771378 
L 789.666284 -241.29282 
L 789.032372 -244.814261 
L 788.359785 -248.335703 
L 787.657527 -251.857144 
L 786.936318 -255.378585 
L 786.208193 -258.900027 
L 785.485967 -262.421468 
L 784.782584 -265.94291 
L 784.110397 -269.464351 
L 783.480408 -272.985793 
L 782.901533 -276.507234 
L 782.379939 -280.028676 
L 781.9185 -283.550117 
L 781.516424 -287.071559 
L 781.169074 -290.593 
L 780.868012 -294.114441 
L 780.601259 -297.635883 
L 780.353753 -301.157324 
L 780.108001 -304.678766 
L 779.844849 -308.200207 
L 779.544366 -311.721649 
L 779.18675 -315.24309 
L 778.753239 -318.764532 
L 778.226966 -322.285973 
L 777.593727 -325.807415 
L 776.842621 -329.328856 
L 775.966569 -332.850297 
L 774.962662 -336.371739 
L 773.832379 -339.89318 
L 772.581638 -343.414622 
L 771.220708 -346.936063 
L 769.76399 -350.457505 
L 768.229662 -353.978946 
L 766.639211 -357.500388 
L 765.01686 -361.021829 
L 763.388898 -364.54327 
L 761.78293 -368.064712 
L 760.227067 -371.586153 
L 758.749076 -375.107595 
L 757.375525 -378.629036 
L 756.13095 -382.150478 
L 755.037079 -385.671919 
L 754.11216 -389.193361 
L 753.370423 -392.714802 
L 752.821697 -396.236244 
L 752.471229 -399.757685 
L 752.31969 -403.279126 
L 752.363379 -406.800568 
L 752.594613 -410.322009 
L 753.002263 -413.843451 
L 753.572406 -417.364892 
L 754.289047 -420.886334 
L 755.134855 -424.407775 
L 756.091879 -427.929217 
L 757.142192 -431.450658 
L 758.268444 -434.9721 
L 759.454297 -438.493541 
L 760.684742 -442.014982 
L 761.946301 -445.536424 
L 763.227128 -449.057865 
L 764.51703 -452.579307 
L 765.807425 -456.100748 
L 767.091273 -459.62219 
L 768.362963 -463.143631 
L 769.618206 -466.665073 
L 770.853904 -470.186514 
L 772.068017 -473.707956 
L 773.259406 -477.229397 
L 774.427668 -480.750838 
L 775.572934 -484.27228 
L 776.695661 -487.793721 
L 777.796399 -491.315163 
L 778.875562 -494.836604 
L 779.933208 -498.358046 
L 780.968854 -501.879487 
L 781.98134 -505.400929 
L 782.968758 -508.92237 
L 783.928447 -512.443811 
L 784.85708 -515.965253 
L 785.750803 -519.486694 
L 786.605448 -523.008136 
L 787.416777 -526.529577 
L 788.180745 -530.051019 
L 788.893759 -533.57246 
L 789.55291 -537.093902 
L 790.15615 -540.615343 
L 790.702422 -544.136785 
L 791.191711 -547.658226 
L 791.625042 -551.179667 
L 792.0044 -554.701109 
L 792.332616 -558.22255 
L 792.613209 -561.743992 
L 792.850201 -565.265433 
L 794.749799 -565.265433 
L 794.749799 -565.265433 
L 794.986791 -561.743992 
L 795.267384 -558.22255 
L 795.5956 -554.701109 
L 795.974958 -551.179667 
L 796.408289 -547.658226 
L 796.897578 -544.136785 
L 797.44385 -540.615343 
L 798.04709 -537.093902 
L 798.706241 -533.57246 
L 799.419255 -530.051019 
L 800.183223 -526.529577 
L 800.994552 -523.008136 
L 801.849197 -519.486694 
L 802.74292 -515.965253 
L 803.671553 -512.443811 
L 804.631242 -508.92237 
L 805.61866 -505.400929 
L 806.631146 -501.879487 
L 807.666792 -498.358046 
L 808.724438 -494.836604 
L 809.803601 -491.315163 
L 810.904339 -487.793721 
L 812.027066 -484.27228 
L 813.172332 -480.750838 
L 814.340594 -477.229397 
L 815.531983 -473.707956 
L 816.746096 -470.186514 
L 817.981794 -466.665073 
L 819.237037 -463.143631 
L 820.508727 -459.62219 
L 821.792575 -456.100748 
L 823.08297 -452.579307 
L 824.372872 -449.057865 
L 825.653699 -445.536424 
L 826.915258 -442.014982 
L 828.145703 -438.493541 
L 829.331556 -434.9721 
L 830.457808 -431.450658 
L 831.508121 -427.929217 
L 832.465145 -424.407775 
L 833.310953 -420.886334 
L 834.027594 -417.364892 
L 834.597737 -413.843451 
L 835.005387 -410.322009 
L 835.236621 -406.800568 
L 835.28031 -403.279126 
L 835.128771 -399.757685 
L 834.778303 -396.236244 
L 834.229577 -392.714802 
L 833.48784 -389.193361 
L 832.562921 -385.671919 
L 831.46905 -382.150478 
L 830.224475 -378.629036 
L 828.850924 -375.107595 
L 827.372933 -371.586153 
L 825.81707 -368.064712 
L 824.211102 -364.54327 
L 822.58314 -361.021829 
L 820.960789 -357.500388 
L 819.370338 -353.978946 
L 817.83601 -350.457505 
L 816.379292 -346.936063 
L 815.018362 -343.414622 
L 813.767621 -339.89318 
L 812.637338 -336.371739 
L 811.633431 -332.850297 
L 810.757379 -329.328856 
L 810.006273 -325.807415 
L 809.373034 -322.285973 
L 808.846761 -318.764532 
L 808.41325 -315.24309 
L 808.055634 -311.721649 
L 807.755151 -308.200207 
L 807.491999 -304.678766 
L 807.246247 -301.157324 
L 806.998741 -297.635883 
L 806.731988 -294.114441 
L 806.430926 -290.593 
L 806.083576 -287.071559 
L 805.6815 -283.550117 
L 805.220061 -280.028676 
L 804.698467 -276.507234 
L 804.119592 -272.985793 
L 803.489603 -269.464351 
L 802.817416 -265.94291 
L 802.114033 -262.421468 
L 801.391807 -258.900027 
L 800.663682 -255.378585 
L 799.942473 -251.857144 
L 799.240215 -248.335703 
L 798.567628 -244.814261 
L 797.933716 -241.29282 
L 797.345513 -237.771378 
L 796.807973 -234.249937 
L 796.323994 -230.728495 
L 795.894548 -227.207054 
L 795.518909 -223.685612 
L 795.194931 -220.164171 
L 794.919361 -216.64273 
z
" style="stroke: #3f3f3f; stroke-width: 1.25"/>
    </defs>
    <g clip-path="url(#p2509b6a0b0)">
     <use xlink:href="#ma6ce977aab" x="0" y="720" style="fill: #3274a1; stroke: #3f3f3f; stroke-width: 1.25"/>
    </g>
   </g>
   <g id="PolyCollection_7">
    <defs>
     <path id="mbae4f77b5c" d="M 905.882797 -120.850527 
L 904.917203 -120.850527 
L 904.804888 -125.748518 
L 904.674383 -130.646508 
L 904.524733 -135.544499 
L 904.35538 -140.44249 
L 904.166223 -145.34048 
L 903.957654 -150.238471 
L 903.730556 -155.136462 
L 903.48625 -160.034452 
L 903.226385 -164.932443 
L 902.952779 -169.830434 
L 902.667195 -174.728424 
L 902.371082 -179.626415 
L 902.065275 -184.524406 
L 901.749699 -189.422396 
L 901.423074 -194.320387 
L 901.082684 -199.218378 
L 900.724212 -204.116369 
L 900.341689 -209.014359 
L 899.92757 -213.91235 
L 899.472959 -218.810341 
L 898.967988 -223.708331 
L 898.402339 -228.606322 
L 897.765893 -233.504313 
L 897.049469 -238.402303 
L 896.245607 -243.300294 
L 895.349347 -248.198285 
L 894.358932 -253.096275 
L 893.276384 -257.994266 
L 892.107907 -262.892257 
L 890.864046 -267.790247 
L 889.559603 -272.688238 
L 888.213276 -277.586229 
L 886.847041 -282.484219 
L 885.485303 -287.38221 
L 884.153861 -292.280201 
L 882.87875 -297.178191 
L 881.685042 -302.076182 
L 880.595672 -306.974173 
L 879.630375 -311.872163 
L 878.804796 -316.770154 
L 878.129842 -321.668145 
L 877.611297 -326.566135 
L 877.249733 -331.464126 
L 877.040705 -336.362117 
L 876.975215 -341.260107 
L 877.040398 -346.158098 
L 877.220373 -351.056089 
L 877.497211 -355.954079 
L 877.851932 -360.85207 
L 878.265485 -365.750061 
L 878.719645 -370.648051 
L 879.197775 -375.546042 
L 879.685434 -380.444033 
L 880.170794 -385.342023 
L 880.644878 -390.240014 
L 881.101619 -395.138005 
L 881.537758 -400.035995 
L 881.952618 -404.933986 
L 882.347778 -409.831977 
L 882.726689 -414.729967 
L 883.094253 -419.627958 
L 883.456405 -424.525949 
L 883.819711 -429.423939 
L 884.191004 -434.32193 
L 884.57706 -439.219921 
L 884.984319 -444.117911 
L 885.418661 -449.015902 
L 885.88521 -453.913893 
L 886.388187 -458.811883 
L 886.930786 -463.709874 
L 887.515086 -468.607865 
L 888.141978 -473.505855 
L 888.811133 -478.403846 
L 889.520984 -483.301837 
L 890.268749 -488.199827 
L 891.050481 -493.097818 
L 891.861155 -497.995809 
L 892.694793 -502.8938 
L 893.54462 -507.79179 
L 894.403255 -512.689781 
L 895.26292 -517.587772 
L 896.115676 -522.485762 
L 896.953655 -527.383753 
L 897.769297 -532.281744 
L 898.555575 -537.179734 
L 899.306183 -542.077725 
L 900.015709 -546.975716 
L 900.679755 -551.873706 
L 901.295019 -556.771697 
L 901.859331 -561.669688 
L 902.37164 -566.567678 
L 902.831962 -571.465669 
L 903.241291 -576.36366 
L 903.601478 -581.26165 
L 903.915091 -586.159641 
L 904.18526 -591.057632 
L 904.415523 -595.955622 
L 904.609668 -600.853613 
L 904.771593 -605.751604 
L 906.028407 -605.751604 
L 906.028407 -605.751604 
L 906.190332 -600.853613 
L 906.384477 -595.955622 
L 906.61474 -591.057632 
L 906.884909 -586.159641 
L 907.198522 -581.26165 
L 907.558709 -576.36366 
L 907.968038 -571.465669 
L 908.42836 -566.567678 
L 908.940669 -561.669688 
L 909.504981 -556.771697 
L 910.120245 -551.873706 
L 910.784291 -546.975716 
L 911.493817 -542.077725 
L 912.244425 -537.179734 
L 913.030703 -532.281744 
L 913.846345 -527.383753 
L 914.684324 -522.485762 
L 915.53708 -517.587772 
L 916.396745 -512.689781 
L 917.25538 -507.79179 
L 918.105207 -502.8938 
L 918.938845 -497.995809 
L 919.749519 -493.097818 
L 920.531251 -488.199827 
L 921.279016 -483.301837 
L 921.988867 -478.403846 
L 922.658022 -473.505855 
L 923.284914 -468.607865 
L 923.869214 -463.709874 
L 924.411813 -458.811883 
L 924.91479 -453.913893 
L 925.381339 -449.015902 
L 925.815681 -444.117911 
L 926.22294 -439.219921 
L 926.608996 -434.32193 
L 926.980289 -429.423939 
L 927.343595 -424.525949 
L 927.705747 -419.627958 
L 928.073311 -414.729967 
L 928.452222 -409.831977 
L 928.847382 -404.933986 
L 929.262242 -400.035995 
L 929.698381 -395.138005 
L 930.155122 -390.240014 
L 930.629206 -385.342023 
L 931.114566 -380.444033 
L 931.602225 -375.546042 
L 932.080355 -370.648051 
L 932.534515 -365.750061 
L 932.948068 -360.85207 
L 933.302789 -355.954079 
L 933.579627 -351.056089 
L 933.759602 -346.158098 
L 933.824785 -341.260107 
L 933.759295 -336.362117 
L 933.550267 -331.464126 
L 933.188703 -326.566135 
L 932.670158 -321.668145 
L 931.995204 -316.770154 
L 931.169625 -311.872163 
L 930.204328 -306.974173 
L 929.114958 -302.076182 
L 927.92125 -297.178191 
L 926.646139 -292.280201 
L 925.314697 -287.38221 
L 923.952959 -282.484219 
L 922.586724 -277.586229 
L 921.240397 -272.688238 
L 919.935954 -267.790247 
L 918.692093 -262.892257 
L 917.523616 -257.994266 
L 916.441068 -253.096275 
L 915.450653 -248.198285 
L 914.554393 -243.300294 
L 913.750531 -238.402303 
L 913.034107 -233.504313 
L 912.397661 -228.606322 
L 911.832012 -223.708331 
L 911.327041 -218.810341 
L 910.87243 -213.91235 
L 910.458311 -209.014359 
L 910.075788 -204.116369 
L 909.717316 -199.218378 
L 909.376926 -194.320387 
L 909.050301 -189.422396 
L 908.734725 -184.524406 
L 908.428918 -179.626415 
L 908.132805 -174.728424 
L 907.847221 -169.830434 
L 907.573615 -164.932443 
L 907.31375 -160.034452 
L 907.069444 -155.136462 
L 906.842346 -150.238471 
L 906.633777 -145.34048 
L 906.44462 -140.44249 
L 906.275267 -135.544499 
L 906.125617 -130.646508 
L 905.995112 -125.748518 
L 905.882797 -120.850527 
z
" style="stroke: #3f3f3f; stroke-width: 1.25"/>
    </defs>
    <g clip-path="url(#p2509b6a0b0)">
     <use xlink:href="#mbae4f77b5c" x="0" y="720" style="fill: #3274a1; stroke: #3f3f3f; stroke-width: 1.25"/>
    </g>
   </g>
   <g id="PolyCollection_8">
    <defs>
     <path id="ma5487150f7" d="M 1018.795747 -284.35245 
L 1015.204253 -284.35245 
L 1014.736831 -287.067515 
L 1014.175741 -289.782579 
L 1013.509947 -292.497644 
L 1012.729041 -295.212708 
L 1011.823771 -297.927773 
L 1010.786623 -300.642837 
L 1009.612409 -303.357901 
L 1008.298833 -306.072966 
L 1006.846996 -308.78803 
L 1005.261792 -311.503095 
L 1003.552159 -314.218159 
L 1001.731147 -316.933224 
L 999.815774 -319.648288 
L 997.826661 -322.363353 
L 995.787447 -325.078417 
L 993.724004 -327.793482 
L 991.663485 -330.508546 
L 989.633266 -333.22361 
L 987.659841 -335.938675 
L 985.767746 -338.653739 
L 983.978579 -341.368804 
L 982.310205 -344.083868 
L 980.776167 -346.798933 
L 979.385385 -349.513997 
L 978.142125 -352.229062 
L 977.046256 -354.944126 
L 976.093746 -357.659191 
L 975.277372 -360.374255 
L 974.587557 -363.089319 
L 974.013274 -365.804384 
L 973.542943 -368.519448 
L 973.165246 -371.234513 
L 972.869811 -373.949577 
L 972.64773 -376.664642 
L 972.491881 -379.379706 
L 972.397069 -382.094771 
L 972.36 -384.809835 
L 972.379111 -387.5249 
L 972.454313 -390.239964 
L 972.586672 -392.955028 
L 972.778072 -395.670093 
L 973.030889 -398.385157 
L 973.347692 -401.100222 
L 973.730988 -403.815286 
L 974.182992 -406.530351 
L 974.705431 -409.245415 
L 975.299369 -411.96048 
L 975.965032 -414.675544 
L 976.701638 -417.390609 
L 977.507235 -420.105673 
L 978.378546 -422.820737 
L 979.310849 -425.535802 
L 980.297897 -428.250866 
L 981.331913 -430.965931 
L 982.403675 -433.680995 
L 983.502694 -436.39606 
L 984.617505 -439.111124 
L 985.736056 -441.826189 
L 986.846182 -444.541253 
L 987.93613 -447.256318 
L 988.995116 -449.971382 
L 990.013864 -452.686447 
L 990.985087 -455.401511 
L 991.903883 -458.116575 
L 992.768001 -460.83164 
L 993.577963 -463.546704 
L 994.337028 -466.261769 
L 995.050996 -468.976833 
L 995.727853 -471.691898 
L 996.377293 -474.406962 
L 997.01014 -477.122027 
L 997.637699 -479.837091 
L 998.271083 -482.552156 
L 998.920568 -485.26722 
L 999.59499 -487.982284 
L 1000.301251 -490.697349 
L 1001.043937 -493.412413 
L 1001.825087 -496.127478 
L 1002.644114 -498.842542 
L 1003.497873 -501.557607 
L 1004.380887 -504.272671 
L 1005.285683 -506.987736 
L 1006.20323 -509.7028 
L 1007.123444 -512.417865 
L 1008.03572 -515.132929 
L 1008.92946 -517.847993 
L 1009.794564 -520.563058 
L 1010.62186 -523.278122 
L 1011.403449 -525.993187 
L 1012.132949 -528.708251 
L 1012.805647 -531.423316 
L 1013.418543 -534.13838 
L 1013.970309 -536.853445 
L 1014.461163 -539.568509 
L 1014.892693 -542.283574 
L 1015.267633 -544.998638 
L 1015.589614 -547.713702 
L 1015.862919 -550.428767 
L 1016.092238 -553.143831 
L 1017.907762 -553.143831 
L 1017.907762 -553.143831 
L 1018.137081 -550.428767 
L 1018.410386 -547.713702 
L 1018.732367 -544.998638 
L 1019.107307 -542.283574 
L 1019.538837 -539.568509 
L 1020.029691 -536.853445 
L 1020.581457 -534.13838 
L 1021.194353 -531.423316 
L 1021.867051 -528.708251 
L 1022.596551 -525.993187 
L 1023.37814 -523.278122 
L 1024.205436 -520.563058 
L 1025.07054 -517.847993 
L 1025.96428 -515.132929 
L 1026.876556 -512.417865 
L 1027.79677 -509.7028 
L 1028.714317 -506.987736 
L 1029.619113 -504.272671 
L 1030.502127 -501.557607 
L 1031.355886 -498.842542 
L 1032.174913 -496.127478 
L 1032.956063 -493.412413 
L 1033.698749 -490.697349 
L 1034.40501 -487.982284 
L 1035.079432 -485.26722 
L 1035.728917 -482.552156 
L 1036.362301 -479.837091 
L 1036.98986 -477.122027 
L 1037.622707 -474.406962 
L 1038.272147 -471.691898 
L 1038.949004 -468.976833 
L 1039.662972 -466.261769 
L 1040.422037 -463.546704 
L 1041.231999 -460.83164 
L 1042.096117 -458.116575 
L 1043.014913 -455.401511 
L 1043.986136 -452.686447 
L 1045.004884 -449.971382 
L 1046.06387 -447.256318 
L 1047.153818 -444.541253 
L 1048.263944 -441.826189 
L 1049.382495 -439.111124 
L 1050.497306 -436.39606 
L 1051.596325 -433.680995 
L 1052.668087 -430.965931 
L 1053.702103 -428.250866 
L 1054.689151 -425.535802 
L 1055.621454 -422.820737 
L 1056.492765 -420.105673 
L 1057.298362 -417.390609 
L 1058.034968 -414.675544 
L 1058.700631 -411.96048 
L 1059.294569 -409.245415 
L 1059.817008 -406.530351 
L 1060.269012 -403.815286 
L 1060.652308 -401.100222 
L 1060.969111 -398.385157 
L 1061.221928 -395.670093 
L 1061.413328 -392.955028 
L 1061.545687 -390.239964 
L 1061.620889 -387.5249 
L 1061.64 -384.809835 
L 1061.602931 -382.094771 
L 1061.508119 -379.379706 
L 1061.35227 -376.664642 
L 1061.130189 -373.949577 
L 1060.834754 -371.234513 
L 1060.457057 -368.519448 
L 1059.986726 -365.804384 
L 1059.412443 -363.089319 
L 1058.722628 -360.374255 
L 1057.906254 -357.659191 
L 1056.953744 -354.944126 
L 1055.857875 -352.229062 
L 1054.614615 -349.513997 
L 1053.223833 -346.798933 
L 1051.689795 -344.083868 
L 1050.021421 -341.368804 
L 1048.232254 -338.653739 
L 1046.340159 -335.938675 
L 1044.366734 -333.22361 
L 1042.336515 -330.508546 
L 1040.275996 -327.793482 
L 1038.212553 -325.078417 
L 1036.173339 -322.363353 
L 1034.184226 -319.648288 
L 1032.268853 -316.933224 
L 1030.447841 -314.218159 
L 1028.738208 -311.503095 
L 1027.153004 -308.78803 
L 1025.701167 -306.072966 
L 1024.387591 -303.357901 
L 1023.213377 -300.642837 
L 1022.176229 -297.927773 
L 1021.270959 -295.212708 
L 1020.490053 -292.497644 
L 1019.824259 -289.782579 
L 1019.263169 -287.067515 
L 1018.795747 -284.35245 
z
" style="stroke: #3f3f3f; stroke-width: 1.25"/>
    </defs>
    <g clip-path="url(#p2509b6a0b0)">
     <use xlink:href="#ma5487150f7" x="0" y="720" style="fill: #3274a1; stroke: #3f3f3f; stroke-width: 1.25"/>
    </g>
   </g>
   <g id="PolyCollection_9">
    <defs>
     <path id="m69d7a37002" d="M 1129.137996 -145.910026 
L 1128.062004 -145.910026 
L 1127.931594 -150.53277 
L 1127.77667 -155.155513 
L 1127.594293 -159.778257 
L 1127.381479 -164.401 
L 1127.135242 -169.023744 
L 1126.852632 -173.646487 
L 1126.530763 -178.269231 
L 1126.166844 -182.891974 
L 1125.758192 -187.514718 
L 1125.302251 -192.137461 
L 1124.796602 -196.760205 
L 1124.238979 -201.382948 
L 1123.627308 -206.005692 
L 1122.95975 -210.628435 
L 1122.234789 -215.251179 
L 1121.451344 -219.873922 
L 1120.608932 -224.496665 
L 1119.707855 -229.119409 
L 1118.74944 -233.742152 
L 1117.736289 -238.364896 
L 1116.672535 -242.987639 
L 1115.564092 -247.610383 
L 1114.418848 -252.233126 
L 1113.246792 -256.85587 
L 1112.060039 -261.478613 
L 1110.872727 -266.101357 
L 1109.70077 -270.7241 
L 1108.56146 -275.346844 
L 1107.472919 -279.969587 
L 1106.453415 -284.592331 
L 1105.520581 -289.215074 
L 1104.690569 -293.837818 
L 1103.977199 -298.460561 
L 1103.391159 -303.083305 
L 1102.939312 -307.706048 
L 1102.62417 -312.328792 
L 1102.443587 -316.951535 
L 1102.390696 -321.574279 
L 1102.454121 -326.197022 
L 1102.618448 -330.819766 
L 1102.864955 -335.442509 
L 1103.172542 -340.065252 
L 1103.518816 -344.687996 
L 1103.881272 -349.310739 
L 1104.238475 -353.933483 
L 1104.571186 -358.556226 
L 1104.863347 -363.17897 
L 1105.102876 -367.801713 
L 1105.282207 -372.424457 
L 1105.398559 -377.0472 
L 1105.453915 -381.669944 
L 1105.454723 -386.292687 
L 1105.411342 -390.915431 
L 1105.337289 -395.538174 
L 1105.248326 -400.160918 
L 1105.161473 -404.783661 
L 1105.093992 -409.406405 
L 1105.06243 -414.029148 
L 1105.08176 -418.651892 
L 1105.164682 -423.274635 
L 1105.321108 -427.897379 
L 1105.557858 -432.520122 
L 1105.878555 -437.142866 
L 1106.283725 -441.765609 
L 1106.771056 -446.388352 
L 1107.335795 -451.011096 
L 1107.971237 -455.633839 
L 1108.669253 -460.256583 
L 1109.420831 -464.879326 
L 1110.21657 -469.50207 
L 1111.047121 -474.124813 
L 1111.903532 -478.747557 
L 1112.7775 -483.3703 
L 1113.661515 -487.993044 
L 1114.548923 -492.615787 
L 1115.433901 -497.238531 
L 1116.311377 -501.861274 
L 1117.17691 -506.484018 
L 1118.026554 -511.106761 
L 1118.856734 -515.729505 
L 1119.664126 -520.352248 
L 1120.445588 -524.974992 
L 1121.198111 -529.597735 
L 1121.91882 -534.220479 
L 1122.605006 -538.843222 
L 1123.254184 -543.465966 
L 1123.864171 -548.088709 
L 1124.433168 -552.711453 
L 1124.959839 -557.334196 
L 1125.443375 -561.956939 
L 1125.883542 -566.579683 
L 1126.280695 -571.202426 
L 1126.635769 -575.82517 
L 1126.950248 -580.447913 
L 1127.226098 -585.070657 
L 1127.465696 -589.6934 
L 1127.671734 -594.316144 
L 1127.847125 -598.938887 
L 1127.994904 -603.561631 
L 1129.205096 -603.561631 
L 1129.205096 -603.561631 
L 1129.352875 -598.938887 
L 1129.528266 -594.316144 
L 1129.734304 -589.6934 
L 1129.973902 -585.070657 
L 1130.249752 -580.447913 
L 1130.564231 -575.82517 
L 1130.919305 -571.202426 
L 1131.316458 -566.579683 
L 1131.756625 -561.956939 
L 1132.240161 -557.334196 
L 1132.766832 -552.711453 
L 1133.335829 -548.088709 
L 1133.945816 -543.465966 
L 1134.594994 -538.843222 
L 1135.28118 -534.220479 
L 1136.001889 -529.597735 
L 1136.754412 -524.974992 
L 1137.535874 -520.352248 
L 1138.343266 -515.729505 
L 1139.173446 -511.106761 
L 1140.02309 -506.484018 
L 1140.888623 -501.861274 
L 1141.766099 -497.238531 
L 1142.651077 -492.615787 
L 1143.538485 -487.993044 
L 1144.4225 -483.3703 
L 1145.296468 -478.747557 
L 1146.152879 -474.124813 
L 1146.98343 -469.50207 
L 1147.779169 -464.879326 
L 1148.530747 -460.256583 
L 1149.228763 -455.633839 
L 1149.864205 -451.011096 
L 1150.428944 -446.388352 
L 1150.916275 -441.765609 
L 1151.321445 -437.142866 
L 1151.642142 -432.520122 
L 1151.878892 -427.897379 
L 1152.035318 -423.274635 
L 1152.11824 -418.651892 
L 1152.13757 -414.029148 
L 1152.106008 -409.406405 
L 1152.038527 -404.783661 
L 1151.951674 -400.160918 
L 1151.862711 -395.538174 
L 1151.788658 -390.915431 
L 1151.745277 -386.292687 
L 1151.746085 -381.669944 
L 1151.801441 -377.0472 
L 1151.917793 -372.424457 
L 1152.097124 -367.801713 
L 1152.336653 -363.17897 
L 1152.628814 -358.556226 
L 1152.961525 -353.933483 
L 1153.318728 -349.310739 
L 1153.681184 -344.687996 
L 1154.027458 -340.065252 
L 1154.335045 -335.442509 
L 1154.581552 -330.819766 
L 1154.745879 -326.197022 
L 1154.809304 -321.574279 
L 1154.756413 -316.951535 
L 1154.57583 -312.328792 
L 1154.260688 -307.706048 
L 1153.808841 -303.083305 
L 1153.222801 -298.460561 
L 1152.509431 -293.837818 
L 1151.679419 -289.215074 
L 1150.746585 -284.592331 
L 1149.727081 -279.969587 
L 1148.63854 -275.346844 
L 1147.49923 -270.7241 
L 1146.327273 -266.101357 
L 1145.139961 -261.478613 
L 1143.953208 -256.85587 
L 1142.781152 -252.233126 
L 1141.635908 -247.610383 
L 1140.527465 -242.987639 
L 1139.463711 -238.364896 
L 1138.45056 -233.742152 
L 1137.492145 -229.119409 
L 1136.591068 -224.496665 
L 1135.748656 -219.873922 
L 1134.965211 -215.251179 
L 1134.24025 -210.628435 
L 1133.572692 -206.005692 
L 1132.961021 -201.382948 
L 1132.403398 -196.760205 
L 1131.897749 -192.137461 
L 1131.441808 -187.514718 
L 1131.033156 -182.891974 
L 1130.669237 -178.269231 
L 1130.347368 -173.646487 
L 1130.064758 -169.023744 
L 1129.818521 -164.401 
L 1129.605707 -159.778257 
L 1129.42333 -155.155513 
L 1129.268406 -150.53277 
L 1129.137996 -145.910026 
z
" style="stroke: #3f3f3f; stroke-width: 1.25"/>
    </defs>
    <g clip-path="url(#p2509b6a0b0)">
     <use xlink:href="#m69d7a37002" x="0" y="720" style="fill: #3274a1; stroke: #3f3f3f; stroke-width: 1.25"/>
    </g>
   </g>
   <g id="PolyCollection_10">
    <defs>
     <path id="m70f16d5485" d="M 1241.33029 -203.089735 
L 1239.06971 -203.089735 
L 1238.820071 -206.520223 
L 1238.527135 -209.950712 
L 1238.186096 -213.3812 
L 1237.792157 -216.811689 
L 1237.340645 -220.242177 
L 1236.827134 -223.672666 
L 1236.247579 -227.103154 
L 1235.598457 -230.533643 
L 1234.876904 -233.964131 
L 1234.080848 -237.39462 
L 1233.209135 -240.825108 
L 1232.261634 -244.255597 
L 1231.239325 -247.686085 
L 1230.144365 -251.116574 
L 1228.98012 -254.547062 
L 1227.751171 -257.977551 
L 1226.463287 -261.408039 
L 1225.123363 -264.838528 
L 1223.739337 -268.269016 
L 1222.320066 -271.699504 
L 1220.875197 -275.129993 
L 1219.415001 -278.560481 
L 1217.950218 -281.99097 
L 1216.491878 -285.421458 
L 1215.051145 -288.851947 
L 1213.639151 -292.282435 
L 1212.266866 -295.712924 
L 1210.94497 -299.143412 
L 1209.683761 -302.573901 
L 1208.493072 -306.004389 
L 1207.38222 -309.434878 
L 1206.359955 -312.865366 
L 1205.434424 -316.295855 
L 1204.613136 -319.726343 
L 1203.902904 -323.156832 
L 1203.309784 -326.58732 
L 1202.838977 -330.017809 
L 1202.494706 -333.448297 
L 1202.280062 -336.878786 
L 1202.196829 -340.309274 
L 1202.245282 -343.739763 
L 1202.423998 -347.170251 
L 1202.72966 -350.60074 
L 1203.156915 -354.031228 
L 1203.698269 -357.461717 
L 1204.344065 -360.892205 
L 1205.082551 -364.322694 
L 1205.900042 -367.753182 
L 1206.781201 -371.183671 
L 1207.709422 -374.614159 
L 1208.667304 -378.044648 
L 1209.637211 -381.475136 
L 1210.601878 -384.905625 
L 1211.54504 -388.336113 
L 1212.452051 -391.766601 
L 1213.310446 -395.19709 
L 1214.110427 -398.627578 
L 1214.845232 -402.058067 
L 1215.511363 -405.488555 
L 1216.10867 -408.919044 
L 1216.640269 -412.349532 
L 1217.112308 -415.780021 
L 1217.533594 -419.210509 
L 1217.9151 -422.640998 
L 1218.269378 -426.071486 
L 1218.609922 -429.501975 
L 1218.950506 -432.932463 
L 1219.304533 -436.362952 
L 1219.684437 -439.79344 
L 1220.101155 -443.223929 
L 1220.563698 -446.654417 
L 1221.078835 -450.084906 
L 1221.6509 -453.515394 
L 1222.281714 -456.945883 
L 1222.970632 -460.376371 
L 1223.714688 -463.80686 
L 1224.508834 -467.237348 
L 1225.346244 -470.667837 
L 1226.21867 -474.098325 
L 1227.116833 -477.528814 
L 1228.030809 -480.959302 
L 1228.950422 -484.389791 
L 1229.8656 -487.820279 
L 1230.766699 -491.250768 
L 1231.644779 -494.681256 
L 1232.49183 -498.111745 
L 1233.300934 -501.542233 
L 1234.066381 -504.972722 
L 1234.783719 -508.40321 
L 1235.449767 -511.833698 
L 1236.062572 -515.264187 
L 1236.621335 -518.694675 
L 1237.126308 -522.125164 
L 1237.578665 -525.555652 
L 1237.980363 -528.986141 
L 1238.333992 -532.416629 
L 1238.642627 -535.847118 
L 1238.909689 -539.277606 
L 1239.138804 -542.708095 
L 1241.261196 -542.708095 
L 1241.261196 -542.708095 
L 1241.490311 -539.277606 
L 1241.757373 -535.847118 
L 1242.066008 -532.416629 
L 1242.419637 -528.986141 
L 1242.821335 -525.555652 
L 1243.273692 -522.125164 
L 1243.778665 -518.694675 
L 1244.337428 -515.264187 
L 1244.950233 -511.833698 
L 1245.616281 -508.40321 
L 1246.333619 -504.972722 
L 1247.099066 -501.542233 
L 1247.90817 -498.111745 
L 1248.755221 -494.681256 
L 1249.633301 -491.250768 
L 1250.5344 -487.820279 
L 1251.449578 -484.389791 
L 1252.369191 -480.959302 
L 1253.283167 -477.528814 
L 1254.18133 -474.098325 
L 1255.053756 -470.667837 
L 1255.891166 -467.237348 
L 1256.685312 -463.80686 
L 1257.429368 -460.376371 
L 1258.118286 -456.945883 
L 1258.7491 -453.515394 
L 1259.321165 -450.084906 
L 1259.836302 -446.654417 
L 1260.298845 -443.223929 
L 1260.715563 -439.79344 
L 1261.095467 -436.362952 
L 1261.449494 -432.932463 
L 1261.790078 -429.501975 
L 1262.130622 -426.071486 
L 1262.4849 -422.640998 
L 1262.866406 -419.210509 
L 1263.287692 -415.780021 
L 1263.759731 -412.349532 
L 1264.29133 -408.919044 
L 1264.888637 -405.488555 
L 1265.554768 -402.058067 
L 1266.289573 -398.627578 
L 1267.089554 -395.19709 
L 1267.947949 -391.766601 
L 1268.85496 -388.336113 
L 1269.798122 -384.905625 
L 1270.762789 -381.475136 
L 1271.732696 -378.044648 
L 1272.690578 -374.614159 
L 1273.618799 -371.183671 
L 1274.499958 -367.753182 
L 1275.317449 -364.322694 
L 1276.055935 -360.892205 
L 1276.701731 -357.461717 
L 1277.243085 -354.031228 
L 1277.67034 -350.60074 
L 1277.976002 -347.170251 
L 1278.154718 -343.739763 
L 1278.203171 -340.309274 
L 1278.119938 -336.878786 
L 1277.905294 -333.448297 
L 1277.561023 -330.017809 
L 1277.090216 -326.58732 
L 1276.497096 -323.156832 
L 1275.786864 -319.726343 
L 1274.965576 -316.295855 
L 1274.040045 -312.865366 
L 1273.01778 -309.434878 
L 1271.906928 -306.004389 
L 1270.716239 -302.573901 
L 1269.45503 -299.143412 
L 1268.133134 -295.712924 
L 1266.760849 -292.282435 
L 1265.348855 -288.851947 
L 1263.908122 -285.421458 
L 1262.449782 -281.99097 
L 1260.984999 -278.560481 
L 1259.524803 -275.129993 
L 1258.079934 -271.699504 
L 1256.660663 -268.269016 
L 1255.276637 -264.838528 
L 1253.936713 -261.408039 
L 1252.648829 -257.977551 
L 1251.41988 -254.547062 
L 1250.255635 -251.116574 
L 1249.160675 -247.686085 
L 1248.138366 -244.255597 
L 1247.190865 -240.825108 
L 1246.319152 -237.39462 
L 1245.523096 -233.964131 
L 1244.801543 -230.533643 
L 1244.152421 -227.103154 
L 1243.572866 -223.672666 
L 1243.059355 -220.242177 
L 1242.607843 -216.811689 
L 1242.213904 -213.3812 
L 1241.872865 -209.950712 
L 1241.579929 -206.520223 
L 1241.33029 -203.089735 
z
" style="stroke: #3f3f3f; stroke-width: 1.25"/>
    </defs>
    <g clip-path="url(#p2509b6a0b0)">
     <use xlink:href="#m70f16d5485" x="0" y="720" style="fill: #3274a1; stroke: #3f3f3f; stroke-width: 1.25"/>
    </g>
   </g>
   <g id="matplotlib.axis_1">
    <g id="xtick_1">
     <g id="line2d_1">
      <defs>
       <path id="m0b216e97f6" d="M 0 0 
L 0 3.5 
" style="stroke: #000000; stroke-width: 0.8"/>
      </defs>
      <g>
       <use xlink:href="#m0b216e97f6" x="235.8" y="640.8" style="stroke: #000000; stroke-width: 0.8"/>
      </g>
     </g>
     <g id="text_1">
      <!-- 0 -->
      <g transform="translate(232.61875 655.398438) scale(0.1 -0.1)">
       <defs>
        <path id="DejaVuSans-30" d="M 2034 4250 
Q 1547 4250 1301 3770 
Q 1056 3291 1056 2328 
Q 1056 1369 1301 889 
Q 1547 409 2034 409 
Q 2525 409 2770 889 
Q 3016 1369 3016 2328 
Q 3016 3291 2770 3770 
Q 2525 4250 2034 4250 
z
M 2034 4750 
Q 2819 4750 3233 4129 
Q 3647 3509 3647 2328 
Q 3647 1150 3233 529 
Q 2819 -91 2034 -91 
Q 1250 -91 836 529 
Q 422 1150 422 2328 
Q 422 3509 836 4129 
Q 1250 4750 2034 4750 
z
" transform="scale(0.015625)"/>
       </defs>
       <use xlink:href="#DejaVuSans-30"/>
      </g>
     </g>
    </g>
    <g id="xtick_2">
     <g id="line2d_2">
      <g>
       <use xlink:href="#m0b216e97f6" x="347.4" y="640.8" style="stroke: #000000; stroke-width: 0.8"/>
      </g>
     </g>
     <g id="text_2">
      <!-- 1 -->
      <g transform="translate(344.21875 655.398438) scale(0.1 -0.1)">
       <defs>
        <path id="DejaVuSans-31" d="M 794 531 
L 1825 531 
L 1825 4091 
L 703 3866 
L 703 4441 
L 1819 4666 
L 2450 4666 
L 2450 531 
L 3481 531 
L 3481 0 
L 794 0 
L 794 531 
z
" transform="scale(0.015625)"/>
       </defs>
       <use xlink:href="#DejaVuSans-31"/>
      </g>
     </g>
    </g>
    <g id="xtick_3">
     <g id="line2d_3">
      <g>
       <use xlink:href="#m0b216e97f6" x="459" y="640.8" style="stroke: #000000; stroke-width: 0.8"/>
      </g>
     </g>
     <g id="text_3">
      <!-- 2 -->
      <g transform="translate(455.81875 655.398438) scale(0.1 -0.1)">
       <defs>
        <path id="DejaVuSans-32" d="M 1228 531 
L 3431 531 
L 3431 0 
L 469 0 
L 469 531 
Q 828 903 1448 1529 
Q 2069 2156 2228 2338 
Q 2531 2678 2651 2914 
Q 2772 3150 2772 3378 
Q 2772 3750 2511 3984 
Q 2250 4219 1831 4219 
Q 1534 4219 1204 4116 
Q 875 4013 500 3803 
L 500 4441 
Q 881 4594 1212 4672 
Q 1544 4750 1819 4750 
Q 2544 4750 2975 4387 
Q 3406 4025 3406 3419 
Q 3406 3131 3298 2873 
Q 3191 2616 2906 2266 
Q 2828 2175 2409 1742 
Q 1991 1309 1228 531 
z
" transform="scale(0.015625)"/>
       </defs>
       <use xlink:href="#DejaVuSans-32"/>
      </g>
     </g>
    </g>
    <g id="xtick_4">
     <g id="line2d_4">
      <g>
       <use xlink:href="#m0b216e97f6" x="570.6" y="640.8" style="stroke: #000000; stroke-width: 0.8"/>
      </g>
     </g>
     <g id="text_4">
      <!-- 3 -->
      <g transform="translate(567.41875 655.398438) scale(0.1 -0.1)">
       <defs>
        <path id="DejaVuSans-33" d="M 2597 2516 
Q 3050 2419 3304 2112 
Q 3559 1806 3559 1356 
Q 3559 666 3084 287 
Q 2609 -91 1734 -91 
Q 1441 -91 1130 -33 
Q 819 25 488 141 
L 488 750 
Q 750 597 1062 519 
Q 1375 441 1716 441 
Q 2309 441 2620 675 
Q 2931 909 2931 1356 
Q 2931 1769 2642 2001 
Q 2353 2234 1838 2234 
L 1294 2234 
L 1294 2753 
L 1863 2753 
Q 2328 2753 2575 2939 
Q 2822 3125 2822 3475 
Q 2822 3834 2567 4026 
Q 2313 4219 1838 4219 
Q 1578 4219 1281 4162 
Q 984 4106 628 3988 
L 628 4550 
Q 988 4650 1302 4700 
Q 1616 4750 1894 4750 
Q 2613 4750 3031 4423 
Q 3450 4097 3450 3541 
Q 3450 3153 3228 2886 
Q 3006 2619 2597 2516 
z
" transform="scale(0.015625)"/>
       </defs>
       <use xlink:href="#DejaVuSans-33"/>
      </g>
     </g>
    </g>
    <g id="xtick_5">
     <g id="line2d_5">
      <g>
       <use xlink:href="#m0b216e97f6" x="682.2" y="640.8" style="stroke: #000000; stroke-width: 0.8"/>
      </g>
     </g>
     <g id="text_5">
      <!-- 4 -->
      <g transform="translate(679.01875 655.398438) scale(0.1 -0.1)">
       <defs>
        <path id="DejaVuSans-34" d="M 2419 4116 
L 825 1625 
L 2419 1625 
L 2419 4116 
z
M 2253 4666 
L 3047 4666 
L 3047 1625 
L 3713 1625 
L 3713 1100 
L 3047 1100 
L 3047 0 
L 2419 0 
L 2419 1100 
L 313 1100 
L 313 1709 
L 2253 4666 
z
" transform="scale(0.015625)"/>
       </defs>
       <use xlink:href="#DejaVuSans-34"/>
      </g>
     </g>
    </g>
    <g id="xtick_6">
     <g id="line2d_6">
      <g>
       <use xlink:href="#m0b216e97f6" x="793.8" y="640.8" style="stroke: #000000; stroke-width: 0.8"/>
      </g>
     </g>
     <g id="text_6">
      <!-- 5 -->
      <g transform="translate(790.61875 655.398438) scale(0.1 -0.1)">
       <defs>
        <path id="DejaVuSans-35" d="M 691 4666 
L 3169 4666 
L 3169 4134 
L 1269 4134 
L 1269 2991 
Q 1406 3038 1543 3061 
Q 1681 3084 1819 3084 
Q 2600 3084 3056 2656 
Q 3513 2228 3513 1497 
Q 3513 744 3044 326 
Q 2575 -91 1722 -91 
Q 1428 -91 1123 -41 
Q 819 9 494 109 
L 494 744 
Q 775 591 1075 516 
Q 1375 441 1709 441 
Q 2250 441 2565 725 
Q 2881 1009 2881 1497 
Q 2881 1984 2565 2268 
Q 2250 2553 1709 2553 
Q 1456 2553 1204 2497 
Q 953 2441 691 2322 
L 691 4666 
z
" transform="scale(0.015625)"/>
       </defs>
       <use xlink:href="#DejaVuSans-35"/>
      </g>
     </g>
    </g>
    <g id="xtick_7">
     <g id="line2d_7">
      <g>
       <use xlink:href="#m0b216e97f6" x="905.4" y="640.8" style="stroke: #000000; stroke-width: 0.8"/>
      </g>
     </g>
     <g id="text_7">
      <!-- 6 -->
      <g transform="translate(902.21875 655.398438) scale(0.1 -0.1)">
       <defs>
        <path id="DejaVuSans-36" d="M 2113 2584 
Q 1688 2584 1439 2293 
Q 1191 2003 1191 1497 
Q 1191 994 1439 701 
Q 1688 409 2113 409 
Q 2538 409 2786 701 
Q 3034 994 3034 1497 
Q 3034 2003 2786 2293 
Q 2538 2584 2113 2584 
z
M 3366 4563 
L 3366 3988 
Q 3128 4100 2886 4159 
Q 2644 4219 2406 4219 
Q 1781 4219 1451 3797 
Q 1122 3375 1075 2522 
Q 1259 2794 1537 2939 
Q 1816 3084 2150 3084 
Q 2853 3084 3261 2657 
Q 3669 2231 3669 1497 
Q 3669 778 3244 343 
Q 2819 -91 2113 -91 
Q 1303 -91 875 529 
Q 447 1150 447 2328 
Q 447 3434 972 4092 
Q 1497 4750 2381 4750 
Q 2619 4750 2861 4703 
Q 3103 4656 3366 4563 
z
" transform="scale(0.015625)"/>
       </defs>
       <use xlink:href="#DejaVuSans-36"/>
      </g>
     </g>
    </g>
    <g id="xtick_8">
     <g id="line2d_8">
      <g>
       <use xlink:href="#m0b216e97f6" x="1017" y="640.8" style="stroke: #000000; stroke-width: 0.8"/>
      </g>
     </g>
     <g id="text_8">
      <!-- 7 -->
      <g transform="translate(1013.81875 655.398438) scale(0.1 -0.1)">
       <defs>
        <path id="DejaVuSans-37" d="M 525 4666 
L 3525 4666 
L 3525 4397 
L 1831 0 
L 1172 0 
L 2766 4134 
L 525 4134 
L 525 4666 
z
" transform="scale(0.015625)"/>
       </defs>
       <use xlink:href="#DejaVuSans-37"/>
      </g>
     </g>
    </g>
    <g id="xtick_9">
     <g id="line2d_9">
      <g>
       <use xlink:href="#m0b216e97f6" x="1128.6" y="640.8" style="stroke: #000000; stroke-width: 0.8"/>
      </g>
     </g>
     <g id="text_9">
      <!-- 8 -->
      <g transform="translate(1125.41875 655.398438) scale(0.1 -0.1)">
       <defs>
        <path id="DejaVuSans-38" d="M 2034 2216 
Q 1584 2216 1326 1975 
Q 1069 1734 1069 1313 
Q 1069 891 1326 650 
Q 1584 409 2034 409 
Q 2484 409 2743 651 
Q 3003 894 3003 1313 
Q 3003 1734 2745 1975 
Q 2488 2216 2034 2216 
z
M 1403 2484 
Q 997 2584 770 2862 
Q 544 3141 544 3541 
Q 544 4100 942 4425 
Q 1341 4750 2034 4750 
Q 2731 4750 3128 4425 
Q 3525 4100 3525 3541 
Q 3525 3141 3298 2862 
Q 3072 2584 2669 2484 
Q 3125 2378 3379 2068 
Q 3634 1759 3634 1313 
Q 3634 634 3220 271 
Q 2806 -91 2034 -91 
Q 1263 -91 848 271 
Q 434 634 434 1313 
Q 434 1759 690 2068 
Q 947 2378 1403 2484 
z
M 1172 3481 
Q 1172 3119 1398 2916 
Q 1625 2713 2034 2713 
Q 2441 2713 2670 2916 
Q 2900 3119 2900 3481 
Q 2900 3844 2670 4047 
Q 2441 4250 2034 4250 
Q 1625 4250 1398 4047 
Q 1172 3844 1172 3481 
z
" transform="scale(0.015625)"/>
       </defs>
       <use xlink:href="#DejaVuSans-38"/>
      </g>
     </g>
    </g>
    <g id="xtick_10">
     <g id="line2d_10">
      <g>
       <use xlink:href="#m0b216e97f6" x="1240.2" y="640.8" style="stroke: #000000; stroke-width: 0.8"/>
      </g>
     </g>
     <g id="text_10">
      <!-- 9 -->
      <g transform="translate(1237.01875 655.398438) scale(0.1 -0.1)">
       <defs>
        <path id="DejaVuSans-39" d="M 703 97 
L 703 672 
Q 941 559 1184 500 
Q 1428 441 1663 441 
Q 2288 441 2617 861 
Q 2947 1281 2994 2138 
Q 2813 1869 2534 1725 
Q 2256 1581 1919 1581 
Q 1219 1581 811 2004 
Q 403 2428 403 3163 
Q 403 3881 828 4315 
Q 1253 4750 1959 4750 
Q 2769 4750 3195 4129 
Q 3622 3509 3622 2328 
Q 3622 1225 3098 567 
Q 2575 -91 1691 -91 
Q 1453 -91 1209 -44 
Q 966 3 703 97 
z
M 1959 2075 
Q 2384 2075 2632 2365 
Q 2881 2656 2881 3163 
Q 2881 3666 2632 3958 
Q 2384 4250 1959 4250 
Q 1534 4250 1286 3958 
Q 1038 3666 1038 3163 
Q 1038 2656 1286 2365 
Q 1534 2075 1959 2075 
z
" transform="scale(0.015625)"/>
       </defs>
       <use xlink:href="#DejaVuSans-39"/>
      </g>
     </g>
    </g>
    <g id="text_11">
     <!-- iteration -->
     <g transform="translate(716.877344 669.076563) scale(0.1 -0.1)">
      <defs>
       <path id="DejaVuSans-69" d="M 603 3500 
L 1178 3500 
L 1178 0 
L 603 0 
L 603 3500 
z
M 603 4863 
L 1178 4863 
L 1178 4134 
L 603 4134 
L 603 4863 
z
" transform="scale(0.015625)"/>
       <path id="DejaVuSans-74" d="M 1172 4494 
L 1172 3500 
L 2356 3500 
L 2356 3053 
L 1172 3053 
L 1172 1153 
Q 1172 725 1289 603 
Q 1406 481 1766 481 
L 2356 481 
L 2356 0 
L 1766 0 
Q 1100 0 847 248 
Q 594 497 594 1153 
L 594 3053 
L 172 3053 
L 172 3500 
L 594 3500 
L 594 4494 
L 1172 4494 
z
" transform="scale(0.015625)"/>
       <path id="DejaVuSans-65" d="M 3597 1894 
L 3597 1613 
L 953 1613 
Q 991 1019 1311 708 
Q 1631 397 2203 397 
Q 2534 397 2845 478 
Q 3156 559 3463 722 
L 3463 178 
Q 3153 47 2828 -22 
Q 2503 -91 2169 -91 
Q 1331 -91 842 396 
Q 353 884 353 1716 
Q 353 2575 817 3079 
Q 1281 3584 2069 3584 
Q 2775 3584 3186 3129 
Q 3597 2675 3597 1894 
z
M 3022 2063 
Q 3016 2534 2758 2815 
Q 2500 3097 2075 3097 
Q 1594 3097 1305 2825 
Q 1016 2553 972 2059 
L 3022 2063 
z
" transform="scale(0.015625)"/>
       <path id="DejaVuSans-72" d="M 2631 2963 
Q 2534 3019 2420 3045 
Q 2306 3072 2169 3072 
Q 1681 3072 1420 2755 
Q 1159 2438 1159 1844 
L 1159 0 
L 581 0 
L 581 3500 
L 1159 3500 
L 1159 2956 
Q 1341 3275 1631 3429 
Q 1922 3584 2338 3584 
Q 2397 3584 2469 3576 
Q 2541 3569 2628 3553 
L 2631 2963 
z
" transform="scale(0.015625)"/>
       <path id="DejaVuSans-61" d="M 2194 1759 
Q 1497 1759 1228 1600 
Q 959 1441 959 1056 
Q 959 750 1161 570 
Q 1363 391 1709 391 
Q 2188 391 2477 730 
Q 2766 1069 2766 1631 
L 2766 1759 
L 2194 1759 
z
M 3341 1997 
L 3341 0 
L 2766 0 
L 2766 531 
Q 2569 213 2275 61 
Q 1981 -91 1556 -91 
Q 1019 -91 701 211 
Q 384 513 384 1019 
Q 384 1609 779 1909 
Q 1175 2209 1959 2209 
L 2766 2209 
L 2766 2266 
Q 2766 2663 2505 2880 
Q 2244 3097 1772 3097 
Q 1472 3097 1187 3025 
Q 903 2953 641 2809 
L 641 3341 
Q 956 3463 1253 3523 
Q 1550 3584 1831 3584 
Q 2591 3584 2966 3190 
Q 3341 2797 3341 1997 
z
" transform="scale(0.015625)"/>
       <path id="DejaVuSans-6f" d="M 1959 3097 
Q 1497 3097 1228 2736 
Q 959 2375 959 1747 
Q 959 1119 1226 758 
Q 1494 397 1959 397 
Q 2419 397 2687 759 
Q 2956 1122 2956 1747 
Q 2956 2369 2687 2733 
Q 2419 3097 1959 3097 
z
M 1959 3584 
Q 2709 3584 3137 3096 
Q 3566 2609 3566 1747 
Q 3566 888 3137 398 
Q 2709 -91 1959 -91 
Q 1206 -91 779 398 
Q 353 888 353 1747 
Q 353 2609 779 3096 
Q 1206 3584 1959 3584 
z
" transform="scale(0.015625)"/>
       <path id="DejaVuSans-6e" d="M 3513 2113 
L 3513 0 
L 2938 0 
L 2938 2094 
Q 2938 2591 2744 2837 
Q 2550 3084 2163 3084 
Q 1697 3084 1428 2787 
Q 1159 2491 1159 1978 
L 1159 0 
L 581 0 
L 581 3500 
L 1159 3500 
L 1159 2956 
Q 1366 3272 1645 3428 
Q 1925 3584 2291 3584 
Q 2894 3584 3203 3211 
Q 3513 2838 3513 2113 
z
" transform="scale(0.015625)"/>
      </defs>
      <use xlink:href="#DejaVuSans-69"/>
      <use xlink:href="#DejaVuSans-74" x="27.783203"/>
      <use xlink:href="#DejaVuSans-65" x="66.992188"/>
      <use xlink:href="#DejaVuSans-72" x="128.515625"/>
      <use xlink:href="#DejaVuSans-61" x="169.628906"/>
      <use xlink:href="#DejaVuSans-74" x="230.908203"/>
      <use xlink:href="#DejaVuSans-69" x="270.117188"/>
      <use xlink:href="#DejaVuSans-6f" x="297.900391"/>
      <use xlink:href="#DejaVuSans-6e" x="359.082031"/>
     </g>
    </g>
   </g>
   <g id="matplotlib.axis_2">
    <g id="ytick_1">
     <g id="line2d_11">
      <defs>
       <path id="m2fd8a28146" d="M 0 0 
L -3.5 0 
" style="stroke: #000000; stroke-width: 0.8"/>
      </defs>
      <g>
       <use xlink:href="#m2fd8a28146" x="180" y="586.385643" style="stroke: #000000; stroke-width: 0.8"/>
      </g>
     </g>
     <g id="text_12">
      <!-- 0.0 -->
      <g transform="translate(157.096875 590.184862) scale(0.1 -0.1)">
       <defs>
        <path id="DejaVuSans-2e" d="M 684 794 
L 1344 794 
L 1344 0 
L 684 0 
L 684 794 
z
" transform="scale(0.015625)"/>
       </defs>
       <use xlink:href="#DejaVuSans-30"/>
       <use xlink:href="#DejaVuSans-2e" x="63.623047"/>
       <use xlink:href="#DejaVuSans-30" x="95.410156"/>
      </g>
     </g>
    </g>
    <g id="ytick_2">
     <g id="line2d_12">
      <g>
       <use xlink:href="#m2fd8a28146" x="180" y="505.382114" style="stroke: #000000; stroke-width: 0.8"/>
      </g>
     </g>
     <g id="text_13">
      <!-- 0.2 -->
      <g transform="translate(157.096875 509.181333) scale(0.1 -0.1)">
       <use xlink:href="#DejaVuSans-30"/>
       <use xlink:href="#DejaVuSans-2e" x="63.623047"/>
       <use xlink:href="#DejaVuSans-32" x="95.410156"/>
      </g>
     </g>
    </g>
    <g id="ytick_3">
     <g id="line2d_13">
      <g>
       <use xlink:href="#m2fd8a28146" x="180" y="424.378585" style="stroke: #000000; stroke-width: 0.8"/>
      </g>
     </g>
     <g id="text_14">
      <!-- 0.4 -->
      <g transform="translate(157.096875 428.177804) scale(0.1 -0.1)">
       <use xlink:href="#DejaVuSans-30"/>
       <use xlink:href="#DejaVuSans-2e" x="63.623047"/>
       <use xlink:href="#DejaVuSans-34" x="95.410156"/>
      </g>
     </g>
    </g>
    <g id="ytick_4">
     <g id="line2d_14">
      <g>
       <use xlink:href="#m2fd8a28146" x="180" y="343.375057" style="stroke: #000000; stroke-width: 0.8"/>
      </g>
     </g>
     <g id="text_15">
      <!-- 0.6 -->
      <g transform="translate(157.096875 347.174275) scale(0.1 -0.1)">
       <use xlink:href="#DejaVuSans-30"/>
       <use xlink:href="#DejaVuSans-2e" x="63.623047"/>
       <use xlink:href="#DejaVuSans-36" x="95.410156"/>
      </g>
     </g>
    </g>
    <g id="ytick_5">
     <g id="line2d_15">
      <g>
       <use xlink:href="#m2fd8a28146" x="180" y="262.371528" style="stroke: #000000; stroke-width: 0.8"/>
      </g>
     </g>
     <g id="text_16">
      <!-- 0.8 -->
      <g transform="translate(157.096875 266.170747) scale(0.1 -0.1)">
       <use xlink:href="#DejaVuSans-30"/>
       <use xlink:href="#DejaVuSans-2e" x="63.623047"/>
       <use xlink:href="#DejaVuSans-38" x="95.410156"/>
      </g>
     </g>
    </g>
    <g id="ytick_6">
     <g id="line2d_16">
      <g>
       <use xlink:href="#m2fd8a28146" x="180" y="181.367999" style="stroke: #000000; stroke-width: 0.8"/>
      </g>
     </g>
     <g id="text_17">
      <!-- 1.0 -->
      <g transform="translate(157.096875 185.167218) scale(0.1 -0.1)">
       <use xlink:href="#DejaVuSans-31"/>
       <use xlink:href="#DejaVuSans-2e" x="63.623047"/>
       <use xlink:href="#DejaVuSans-30" x="95.410156"/>
      </g>
     </g>
    </g>
    <g id="ytick_7">
     <g id="line2d_17">
      <g>
       <use xlink:href="#m2fd8a28146" x="180" y="100.36447" style="stroke: #000000; stroke-width: 0.8"/>
      </g>
     </g>
     <g id="text_18">
      <!-- 1.2 -->
      <g transform="translate(157.096875 104.163689) scale(0.1 -0.1)">
       <use xlink:href="#DejaVuSans-31"/>
       <use xlink:href="#DejaVuSans-2e" x="63.623047"/>
       <use xlink:href="#DejaVuSans-32" x="95.410156"/>
      </g>
     </g>
    </g>
    <g id="text_19">
     <!-- cosine similarity -->
     <g transform="translate(151.017188 404.307031) rotate(-90) scale(0.1 -0.1)">
      <defs>
       <path id="DejaVuSans-63" d="M 3122 3366 
L 3122 2828 
Q 2878 2963 2633 3030 
Q 2388 3097 2138 3097 
Q 1578 3097 1268 2742 
Q 959 2388 959 1747 
Q 959 1106 1268 751 
Q 1578 397 2138 397 
Q 2388 397 2633 464 
Q 2878 531 3122 666 
L 3122 134 
Q 2881 22 2623 -34 
Q 2366 -91 2075 -91 
Q 1284 -91 818 406 
Q 353 903 353 1747 
Q 353 2603 823 3093 
Q 1294 3584 2113 3584 
Q 2378 3584 2631 3529 
Q 2884 3475 3122 3366 
z
" transform="scale(0.015625)"/>
       <path id="DejaVuSans-73" d="M 2834 3397 
L 2834 2853 
Q 2591 2978 2328 3040 
Q 2066 3103 1784 3103 
Q 1356 3103 1142 2972 
Q 928 2841 928 2578 
Q 928 2378 1081 2264 
Q 1234 2150 1697 2047 
L 1894 2003 
Q 2506 1872 2764 1633 
Q 3022 1394 3022 966 
Q 3022 478 2636 193 
Q 2250 -91 1575 -91 
Q 1294 -91 989 -36 
Q 684 19 347 128 
L 347 722 
Q 666 556 975 473 
Q 1284 391 1588 391 
Q 1994 391 2212 530 
Q 2431 669 2431 922 
Q 2431 1156 2273 1281 
Q 2116 1406 1581 1522 
L 1381 1569 
Q 847 1681 609 1914 
Q 372 2147 372 2553 
Q 372 3047 722 3315 
Q 1072 3584 1716 3584 
Q 2034 3584 2315 3537 
Q 2597 3491 2834 3397 
z
" transform="scale(0.015625)"/>
       <path id="DejaVuSans-20" transform="scale(0.015625)"/>
       <path id="DejaVuSans-6d" d="M 3328 2828 
Q 3544 3216 3844 3400 
Q 4144 3584 4550 3584 
Q 5097 3584 5394 3201 
Q 5691 2819 5691 2113 
L 5691 0 
L 5113 0 
L 5113 2094 
Q 5113 2597 4934 2840 
Q 4756 3084 4391 3084 
Q 3944 3084 3684 2787 
Q 3425 2491 3425 1978 
L 3425 0 
L 2847 0 
L 2847 2094 
Q 2847 2600 2669 2842 
Q 2491 3084 2119 3084 
Q 1678 3084 1418 2786 
Q 1159 2488 1159 1978 
L 1159 0 
L 581 0 
L 581 3500 
L 1159 3500 
L 1159 2956 
Q 1356 3278 1631 3431 
Q 1906 3584 2284 3584 
Q 2666 3584 2933 3390 
Q 3200 3197 3328 2828 
z
" transform="scale(0.015625)"/>
       <path id="DejaVuSans-6c" d="M 603 4863 
L 1178 4863 
L 1178 0 
L 603 0 
L 603 4863 
z
" transform="scale(0.015625)"/>
       <path id="DejaVuSans-79" d="M 2059 -325 
Q 1816 -950 1584 -1140 
Q 1353 -1331 966 -1331 
L 506 -1331 
L 506 -850 
L 844 -850 
Q 1081 -850 1212 -737 
Q 1344 -625 1503 -206 
L 1606 56 
L 191 3500 
L 800 3500 
L 1894 763 
L 2988 3500 
L 3597 3500 
L 2059 -325 
z
" transform="scale(0.015625)"/>
      </defs>
      <use xlink:href="#DejaVuSans-63"/>
      <use xlink:href="#DejaVuSans-6f" x="54.980469"/>
      <use xlink:href="#DejaVuSans-73" x="116.162109"/>
      <use xlink:href="#DejaVuSans-69" x="168.261719"/>
      <use xlink:href="#DejaVuSans-6e" x="196.044922"/>
      <use xlink:href="#DejaVuSans-65" x="259.423828"/>
      <use xlink:href="#DejaVuSans-20" x="320.947266"/>
      <use xlink:href="#DejaVuSans-73" x="352.734375"/>
      <use xlink:href="#DejaVuSans-69" x="404.833984"/>
      <use xlink:href="#DejaVuSans-6d" x="432.617188"/>
      <use xlink:href="#DejaVuSans-69" x="530.029297"/>
      <use xlink:href="#DejaVuSans-6c" x="557.8125"/>
      <use xlink:href="#DejaVuSans-61" x="585.595703"/>
      <use xlink:href="#DejaVuSans-72" x="646.875"/>
      <use xlink:href="#DejaVuSans-69" x="687.988281"/>
      <use xlink:href="#DejaVuSans-74" x="715.771484"/>
      <use xlink:href="#DejaVuSans-79" x="754.980469"/>
     </g>
    </g>
   </g>
   <g id="line2d_18">
    <path d="M 235.8 493.216688 
L 235.8 235.319773 
" clip-path="url(#p2509b6a0b0)" style="fill: none; stroke: #3f3f3f; stroke-width: 1.875; stroke-linecap: square"/>
   </g>
   <g id="line2d_19">
    <path d="M 235.8 390.262665 
L 235.8 318.937398 
" clip-path="url(#p2509b6a0b0)" style="fill: none; stroke: #3f3f3f; stroke-width: 5.625; stroke-linecap: square"/>
   </g>
   <g id="line2d_20">
    <path d="M 235.8 354.304009 
" clip-path="url(#p2509b6a0b0)" style="fill: none; stroke: #3f3f3f; stroke-width: 1.5; stroke-linecap: square"/>
    <defs>
     <path id="m54657d1a6d" d="M 2.34375 0 
L -2.34375 -0 
" style="stroke: #ffffff; stroke-width: 1.125"/>
    </defs>
    <g clip-path="url(#p2509b6a0b0)">
     <use xlink:href="#m54657d1a6d" x="235.8" y="354.304009" style="fill: #ffffff; stroke: #ffffff; stroke-width: 1.125"/>
    </g>
   </g>
   <g id="line2d_21">
    <path d="M 347.4 513.820286 
L 347.4 221.81338 
" clip-path="url(#p2509b6a0b0)" style="fill: none; stroke: #3f3f3f; stroke-width: 1.875; stroke-linecap: square"/>
   </g>
   <g id="line2d_22">
    <path d="M 347.4 402.748814 
L 347.4 294.488475 
" clip-path="url(#p2509b6a0b0)" style="fill: none; stroke: #3f3f3f; stroke-width: 5.625; stroke-linecap: square"/>
   </g>
   <g id="line2d_23">
    <path d="M 347.4 348.253954 
" clip-path="url(#p2509b6a0b0)" style="fill: none; stroke: #3f3f3f; stroke-width: 1.5; stroke-linecap: square"/>
    <g clip-path="url(#p2509b6a0b0)">
     <use xlink:href="#m54657d1a6d" x="347.4" y="348.253954" style="fill: #ffffff; stroke: #ffffff; stroke-width: 1.125"/>
    </g>
   </g>
   <g id="line2d_24">
    <path d="M 459 434.234082 
L 459 217.89941 
" clip-path="url(#p2509b6a0b0)" style="fill: none; stroke: #3f3f3f; stroke-width: 1.875; stroke-linecap: square"/>
   </g>
   <g id="line2d_25">
    <path d="M 459 366.238659 
L 459 273.399511 
" clip-path="url(#p2509b6a0b0)" style="fill: none; stroke: #3f3f3f; stroke-width: 5.625; stroke-linecap: square"/>
   </g>
   <g id="line2d_26">
    <path d="M 459 336.738946 
" clip-path="url(#p2509b6a0b0)" style="fill: none; stroke: #3f3f3f; stroke-width: 1.5; stroke-linecap: square"/>
    <g clip-path="url(#p2509b6a0b0)">
     <use xlink:href="#m54657d1a6d" x="459" y="336.738946" style="fill: #ffffff; stroke: #ffffff; stroke-width: 1.125"/>
    </g>
   </g>
   <g id="line2d_27">
    <path d="M 570.6 495.227761 
L 570.6 212.764393 
" clip-path="url(#p2509b6a0b0)" style="fill: none; stroke: #3f3f3f; stroke-width: 1.875; stroke-linecap: square"/>
   </g>
   <g id="line2d_28">
    <path d="M 570.6 385.997216 
L 570.6 284.604187 
" clip-path="url(#p2509b6a0b0)" style="fill: none; stroke: #3f3f3f; stroke-width: 5.625; stroke-linecap: square"/>
   </g>
   <g id="line2d_29">
    <path d="M 570.6 324.136812 
" clip-path="url(#p2509b6a0b0)" style="fill: none; stroke: #3f3f3f; stroke-width: 1.5; stroke-linecap: square"/>
    <g clip-path="url(#p2509b6a0b0)">
     <use xlink:href="#m54657d1a6d" x="570.6" y="324.136812" style="fill: #ffffff; stroke: #ffffff; stroke-width: 1.125"/>
    </g>
   </g>
   <g id="line2d_30">
    <path d="M 682.2 433.480982 
L 682.2 192.269513 
" clip-path="url(#p2509b6a0b0)" style="fill: none; stroke: #3f3f3f; stroke-width: 1.875; stroke-linecap: square"/>
   </g>
   <g id="line2d_31">
    <path d="M 682.2 352.635985 
L 682.2 282.310044 
" clip-path="url(#p2509b6a0b0)" style="fill: none; stroke: #3f3f3f; stroke-width: 5.625; stroke-linecap: square"/>
   </g>
   <g id="line2d_32">
    <path d="M 682.2 326.806014 
" clip-path="url(#p2509b6a0b0)" style="fill: none; stroke: #3f3f3f; stroke-width: 1.5; stroke-linecap: square"/>
    <g clip-path="url(#p2509b6a0b0)">
     <use xlink:href="#m54657d1a6d" x="682.2" y="326.806014" style="fill: #ffffff; stroke: #ffffff; stroke-width: 1.125"/>
    </g>
   </g>
   <g id="line2d_33">
    <path d="M 793.8 438.366817 
L 793.8 219.72502 
" clip-path="url(#p2509b6a0b0)" style="fill: none; stroke: #3f3f3f; stroke-width: 1.875; stroke-linecap: square"/>
   </g>
   <g id="line2d_34">
    <path d="M 793.8 350.207909 
L 793.8 283.735886 
" clip-path="url(#p2509b6a0b0)" style="fill: none; stroke: #3f3f3f; stroke-width: 5.625; stroke-linecap: square"/>
   </g>
   <g id="line2d_35">
    <path d="M 793.8 316.198488 
" clip-path="url(#p2509b6a0b0)" style="fill: none; stroke: #3f3f3f; stroke-width: 1.5; stroke-linecap: square"/>
    <g clip-path="url(#p2509b6a0b0)">
     <use xlink:href="#m54657d1a6d" x="793.8" y="316.198488" style="fill: #ffffff; stroke: #ffffff; stroke-width: 1.125"/>
    </g>
   </g>
   <g id="line2d_36">
    <path d="M 905.4 507.155294 
L 905.4 206.242575 
" clip-path="url(#p2509b6a0b0)" style="fill: none; stroke: #3f3f3f; stroke-width: 1.875; stroke-linecap: square"/>
   </g>
   <g id="line2d_37">
    <path d="M 905.4 404.02051 
L 905.4 292.18788 
" clip-path="url(#p2509b6a0b0)" style="fill: none; stroke: #3f3f3f; stroke-width: 5.625; stroke-linecap: square"/>
   </g>
   <g id="line2d_38">
    <path d="M 905.4 359.459571 
" clip-path="url(#p2509b6a0b0)" style="fill: none; stroke: #3f3f3f; stroke-width: 1.5; stroke-linecap: square"/>
    <g clip-path="url(#p2509b6a0b0)">
     <use xlink:href="#m54657d1a6d" x="905.4" y="359.459571" style="fill: #ffffff; stroke: #ffffff; stroke-width: 1.125"/>
    </g>
   </g>
   <g id="line2d_39">
    <path d="M 1017 383.630559 
L 1017 218.873159 
" clip-path="url(#p2509b6a0b0)" style="fill: none; stroke: #3f3f3f; stroke-width: 1.875; stroke-linecap: square"/>
   </g>
   <g id="line2d_40">
    <path d="M 1017 360.721122 
L 1017 289.812153 
" clip-path="url(#p2509b6a0b0)" style="fill: none; stroke: #3f3f3f; stroke-width: 5.625; stroke-linecap: square"/>
   </g>
   <g id="line2d_41">
    <path d="M 1017 327.145798 
" clip-path="url(#p2509b6a0b0)" style="fill: none; stroke: #3f3f3f; stroke-width: 1.5; stroke-linecap: square"/>
    <g clip-path="url(#p2509b6a0b0)">
     <use xlink:href="#m54657d1a6d" x="1017" y="327.145798" style="fill: #ffffff; stroke: #ffffff; stroke-width: 1.125"/>
    </g>
   </g>
   <g id="line2d_42">
    <path d="M 1128.6 483.962255 
L 1128.6 206.566087 
" clip-path="url(#p2509b6a0b0)" style="fill: none; stroke: #3f3f3f; stroke-width: 1.875; stroke-linecap: square"/>
   </g>
   <g id="line2d_43">
    <path d="M 1128.6 403.486066 
L 1128.6 298.231165 
" clip-path="url(#p2509b6a0b0)" style="fill: none; stroke: #3f3f3f; stroke-width: 5.625; stroke-linecap: square"/>
   </g>
   <g id="line2d_44">
    <path d="M 1128.6 355.657616 
" clip-path="url(#p2509b6a0b0)" style="fill: none; stroke: #3f3f3f; stroke-width: 1.5; stroke-linecap: square"/>
    <g clip-path="url(#p2509b6a0b0)">
     <use xlink:href="#m54657d1a6d" x="1128.6" y="355.657616" style="fill: #ffffff; stroke: #ffffff; stroke-width: 1.125"/>
    </g>
   </g>
   <g id="line2d_45">
    <path d="M 1240.2 442.237441 
L 1240.2 251.964729 
" clip-path="url(#p2509b6a0b0)" style="fill: none; stroke: #3f3f3f; stroke-width: 1.875; stroke-linecap: square"/>
   </g>
   <g id="line2d_46">
    <path d="M 1240.2 400.53369 
L 1240.2 317.011398 
" clip-path="url(#p2509b6a0b0)" style="fill: none; stroke: #3f3f3f; stroke-width: 5.625; stroke-linecap: square"/>
   </g>
   <g id="line2d_47">
    <path d="M 1240.2 357.533897 
" clip-path="url(#p2509b6a0b0)" style="fill: none; stroke: #3f3f3f; stroke-width: 1.5; stroke-linecap: square"/>
    <g clip-path="url(#p2509b6a0b0)">
     <use xlink:href="#m54657d1a6d" x="1240.2" y="357.533897" style="fill: #ffffff; stroke: #ffffff; stroke-width: 1.125"/>
    </g>
   </g>
   <g id="patch_3">
    <path d="M 180 640.8 
L 180 86.4 
" style="fill: none; stroke: #000000; stroke-width: 0.8; stroke-linejoin: miter; stroke-linecap: square"/>
   </g>
   <g id="patch_4">
    <path d="M 1296 640.8 
L 1296 86.4 
" style="fill: none; stroke: #000000; stroke-width: 0.8; stroke-linejoin: miter; stroke-linecap: square"/>
   </g>
   <g id="patch_5">
    <path d="M 180 640.8 
L 1296 640.8 
" style="fill: none; stroke: #000000; stroke-width: 0.8; stroke-linejoin: miter; stroke-linecap: square"/>
   </g>
   <g id="patch_6">
    <path d="M 180 86.4 
L 1296 86.4 
" style="fill: none; stroke: #000000; stroke-width: 0.8; stroke-linejoin: miter; stroke-linecap: square"/>
   </g>
   <g id="text_20">
    <!-- cosine similarity of max_fs (progressive), by iteration -->
    <g transform="translate(578.421562 80.4) scale(0.12 -0.12)">
     <defs>
      <path id="DejaVuSans-66" d="M 2375 4863 
L 2375 4384 
L 1825 4384 
Q 1516 4384 1395 4259 
Q 1275 4134 1275 3809 
L 1275 3500 
L 2222 3500 
L 2222 3053 
L 1275 3053 
L 1275 0 
L 697 0 
L 697 3053 
L 147 3053 
L 147 3500 
L 697 3500 
L 697 3744 
Q 697 4328 969 4595 
Q 1241 4863 1831 4863 
L 2375 4863 
z
" transform="scale(0.015625)"/>
      <path id="DejaVuSans-78" d="M 3513 3500 
L 2247 1797 
L 3578 0 
L 2900 0 
L 1881 1375 
L 863 0 
L 184 0 
L 1544 1831 
L 300 3500 
L 978 3500 
L 1906 2253 
L 2834 3500 
L 3513 3500 
z
" transform="scale(0.015625)"/>
      <path id="DejaVuSans-5f" d="M 3263 -1063 
L 3263 -1509 
L -63 -1509 
L -63 -1063 
L 3263 -1063 
z
" transform="scale(0.015625)"/>
      <path id="DejaVuSans-28" d="M 1984 4856 
Q 1566 4138 1362 3434 
Q 1159 2731 1159 2009 
Q 1159 1288 1364 580 
Q 1569 -128 1984 -844 
L 1484 -844 
Q 1016 -109 783 600 
Q 550 1309 550 2009 
Q 550 2706 781 3412 
Q 1013 4119 1484 4856 
L 1984 4856 
z
" transform="scale(0.015625)"/>
      <path id="DejaVuSans-70" d="M 1159 525 
L 1159 -1331 
L 581 -1331 
L 581 3500 
L 1159 3500 
L 1159 2969 
Q 1341 3281 1617 3432 
Q 1894 3584 2278 3584 
Q 2916 3584 3314 3078 
Q 3713 2572 3713 1747 
Q 3713 922 3314 415 
Q 2916 -91 2278 -91 
Q 1894 -91 1617 61 
Q 1341 213 1159 525 
z
M 3116 1747 
Q 3116 2381 2855 2742 
Q 2594 3103 2138 3103 
Q 1681 3103 1420 2742 
Q 1159 2381 1159 1747 
Q 1159 1113 1420 752 
Q 1681 391 2138 391 
Q 2594 391 2855 752 
Q 3116 1113 3116 1747 
z
" transform="scale(0.015625)"/>
      <path id="DejaVuSans-67" d="M 2906 1791 
Q 2906 2416 2648 2759 
Q 2391 3103 1925 3103 
Q 1463 3103 1205 2759 
Q 947 2416 947 1791 
Q 947 1169 1205 825 
Q 1463 481 1925 481 
Q 2391 481 2648 825 
Q 2906 1169 2906 1791 
z
M 3481 434 
Q 3481 -459 3084 -895 
Q 2688 -1331 1869 -1331 
Q 1566 -1331 1297 -1286 
Q 1028 -1241 775 -1147 
L 775 -588 
Q 1028 -725 1275 -790 
Q 1522 -856 1778 -856 
Q 2344 -856 2625 -561 
Q 2906 -266 2906 331 
L 2906 616 
Q 2728 306 2450 153 
Q 2172 0 1784 0 
Q 1141 0 747 490 
Q 353 981 353 1791 
Q 353 2603 747 3093 
Q 1141 3584 1784 3584 
Q 2172 3584 2450 3431 
Q 2728 3278 2906 2969 
L 2906 3500 
L 3481 3500 
L 3481 434 
z
" transform="scale(0.015625)"/>
      <path id="DejaVuSans-76" d="M 191 3500 
L 800 3500 
L 1894 563 
L 2988 3500 
L 3597 3500 
L 2284 0 
L 1503 0 
L 191 3500 
z
" transform="scale(0.015625)"/>
      <path id="DejaVuSans-29" d="M 513 4856 
L 1013 4856 
Q 1481 4119 1714 3412 
Q 1947 2706 1947 2009 
Q 1947 1309 1714 600 
Q 1481 -109 1013 -844 
L 513 -844 
Q 928 -128 1133 580 
Q 1338 1288 1338 2009 
Q 1338 2731 1133 3434 
Q 928 4138 513 4856 
z
" transform="scale(0.015625)"/>
      <path id="DejaVuSans-2c" d="M 750 794 
L 1409 794 
L 1409 256 
L 897 -744 
L 494 -744 
L 750 256 
L 750 794 
z
" transform="scale(0.015625)"/>
      <path id="DejaVuSans-62" d="M 3116 1747 
Q 3116 2381 2855 2742 
Q 2594 3103 2138 3103 
Q 1681 3103 1420 2742 
Q 1159 2381 1159 1747 
Q 1159 1113 1420 752 
Q 1681 391 2138 391 
Q 2594 391 2855 752 
Q 3116 1113 3116 1747 
z
M 1159 2969 
Q 1341 3281 1617 3432 
Q 1894 3584 2278 3584 
Q 2916 3584 3314 3078 
Q 3713 2572 3713 1747 
Q 3713 922 3314 415 
Q 2916 -91 2278 -91 
Q 1894 -91 1617 61 
Q 1341 213 1159 525 
L 1159 0 
L 581 0 
L 581 4863 
L 1159 4863 
L 1159 2969 
z
" transform="scale(0.015625)"/>
     </defs>
     <use xlink:href="#DejaVuSans-63"/>
     <use xlink:href="#DejaVuSans-6f" x="54.980469"/>
     <use xlink:href="#DejaVuSans-73" x="116.162109"/>
     <use xlink:href="#DejaVuSans-69" x="168.261719"/>
     <use xlink:href="#DejaVuSans-6e" x="196.044922"/>
     <use xlink:href="#DejaVuSans-65" x="259.423828"/>
     <use xlink:href="#DejaVuSans-20" x="320.947266"/>
     <use xlink:href="#DejaVuSans-73" x="352.734375"/>
     <use xlink:href="#DejaVuSans-69" x="404.833984"/>
     <use xlink:href="#DejaVuSans-6d" x="432.617188"/>
     <use xlink:href="#DejaVuSans-69" x="530.029297"/>
     <use xlink:href="#DejaVuSans-6c" x="557.8125"/>
     <use xlink:href="#DejaVuSans-61" x="585.595703"/>
     <use xlink:href="#DejaVuSans-72" x="646.875"/>
     <use xlink:href="#DejaVuSans-69" x="687.988281"/>
     <use xlink:href="#DejaVuSans-74" x="715.771484"/>
     <use xlink:href="#DejaVuSans-79" x="754.980469"/>
     <use xlink:href="#DejaVuSans-20" x="814.160156"/>
     <use xlink:href="#DejaVuSans-6f" x="845.947266"/>
     <use xlink:href="#DejaVuSans-66" x="907.128906"/>
     <use xlink:href="#DejaVuSans-20" x="942.333984"/>
     <use xlink:href="#DejaVuSans-6d" x="974.121094"/>
     <use xlink:href="#DejaVuSans-61" x="1071.533203"/>
     <use xlink:href="#DejaVuSans-78" x="1132.8125"/>
     <use xlink:href="#DejaVuSans-5f" x="1191.992188"/>
     <use xlink:href="#DejaVuSans-66" x="1241.992188"/>
     <use xlink:href="#DejaVuSans-73" x="1277.197266"/>
     <use xlink:href="#DejaVuSans-20" x="1329.296875"/>
     <use xlink:href="#DejaVuSans-28" x="1361.083984"/>
     <use xlink:href="#DejaVuSans-70" x="1400.097656"/>
     <use xlink:href="#DejaVuSans-72" x="1463.574219"/>
     <use xlink:href="#DejaVuSans-6f" x="1502.4375"/>
     <use xlink:href="#DejaVuSans-67" x="1563.619141"/>
     <use xlink:href="#DejaVuSans-72" x="1627.095703"/>
     <use xlink:href="#DejaVuSans-65" x="1665.958984"/>
     <use xlink:href="#DejaVuSans-73" x="1727.482422"/>
     <use xlink:href="#DejaVuSans-73" x="1779.582031"/>
     <use xlink:href="#DejaVuSans-69" x="1831.681641"/>
     <use xlink:href="#DejaVuSans-76" x="1859.464844"/>
     <use xlink:href="#DejaVuSans-65" x="1918.644531"/>
     <use xlink:href="#DejaVuSans-29" x="1980.167969"/>
     <use xlink:href="#DejaVuSans-2c" x="2019.181641"/>
     <use xlink:href="#DejaVuSans-20" x="2050.96875"/>
     <use xlink:href="#DejaVuSans-62" x="2082.755859"/>
     <use xlink:href="#DejaVuSans-79" x="2146.232422"/>
     <use xlink:href="#DejaVuSans-20" x="2205.412109"/>
     <use xlink:href="#DejaVuSans-69" x="2237.199219"/>
     <use xlink:href="#DejaVuSans-74" x="2264.982422"/>
     <use xlink:href="#DejaVuSans-65" x="2304.191406"/>
     <use xlink:href="#DejaVuSans-72" x="2365.714844"/>
     <use xlink:href="#DejaVuSans-61" x="2406.828125"/>
     <use xlink:href="#DejaVuSans-74" x="2468.107422"/>
     <use xlink:href="#DejaVuSans-69" x="2507.316406"/>
     <use xlink:href="#DejaVuSans-6f" x="2535.099609"/>
     <use xlink:href="#DejaVuSans-6e" x="2596.28125"/>
    </g>
   </g>
  </g>
 </g>
 <defs>
  <clipPath id="p2509b6a0b0">
   <rect x="180" y="86.4" width="1116" height="554.4"/>
  </clipPath>
 </defs>
</svg>
