<?xml version="1.0" encoding="utf-8" standalone="no"?>
<!DOCTYPE svg PUBLIC "-//W3C//DTD SVG 1.1//EN"
  "http://www.w3.org/Graphics/SVG/1.1/DTD/svg11.dtd">
<svg xmlns:xlink="http://www.w3.org/1999/xlink" width="1440pt" height="720pt" viewBox="0 0 1440 720" xmlns="http://www.w3.org/2000/svg" version="1.1">
 <metadata>
  <rdf:RDF xmlns:dc="http://purl.org/dc/elements/1.1/" xmlns:cc="http://creativecommons.org/ns#" xmlns:rdf="http://www.w3.org/1999/02/22-rdf-syntax-ns#">
   <cc:Work>
    <dc:type rdf:resource="http://purl.org/dc/dcmitype/StillImage"/>
    <dc:date>2024-07-06T17:08:20.339337</dc:date>
    <dc:format>image/svg+xml</dc:format>
    <dc:creator>
     <cc:Agent>
      <dc:title>Matplotlib v3.8.0, https://matplotlib.org/</dc:title>
     </cc:Agent>
    </dc:creator>
   </cc:Work>
  </rdf:RDF>
 </metadata>
 <defs>
  <style type="text/css">*{stroke-linejoin: round; stroke-linecap: butt}</style>
 </defs>
 <g id="figure_1">
  <g id="patch_1">
   <path d="M 0 720 
L 1440 720 
L 1440 0 
L 0 0 
z
" style="fill: #ffffff"/>
  </g>
  <g id="axes_1">
   <g id="patch_2">
    <path d="M 180 640.8 
L 1296 640.8 
L 1296 86.4 
L 180 86.4 
z
" style="fill: #ffffff"/>
   </g>
   <g id="PolyCollection_1">
    <defs>
     <path id="m93a435518b" d="M 236.099833 -175.52135 
L 235.500167 -175.52135 
L 235.386888 -179.13699 
L 235.243113 -182.752629 
L 235.065278 -186.368269 
L 234.850913 -189.983909 
L 234.599078 -193.599549 
L 234.310706 -197.215189 
L 233.988774 -200.830828 
L 233.638238 -204.446468 
L 233.265708 -208.062108 
L 232.878843 -211.677748 
L 232.485537 -215.293388 
L 232.092949 -218.909028 
L 231.706513 -222.524667 
L 231.329046 -226.140307 
L 230.96008 -229.755947 
L 230.595525 -233.371587 
L 230.227738 -236.987227 
L 229.846009 -240.602867 
L 229.437459 -244.218506 
L 228.988248 -247.834146 
L 228.484993 -251.449786 
L 227.916213 -255.065426 
L 227.273621 -258.681066 
L 226.553081 -262.296706 
L 225.755048 -265.912345 
L 224.884402 -269.527985 
L 223.94963 -273.143625 
L 222.96143 -276.759265 
L 221.930939 -280.374905 
L 220.867826 -283.990545 
L 219.778624 -287.606184 
L 218.66561 -291.221824 
L 217.526536 -294.837464 
L 216.355356 -298.453104 
L 215.143942 -302.068744 
L 213.884574 -305.684383 
L 212.572807 -309.300023 
L 211.210222 -312.915663 
L 209.806487 -316.531303 
L 208.380261 -320.146943 
L 206.958628 -323.762583 
L 205.574997 -327.378222 
L 204.26568 -330.993862 
L 203.065615 -334.609502 
L 202.003891 -338.225142 
L 201.09979 -341.840782 
L 200.360004 -345.456422 
L 199.777532 -349.072061 
L 199.332462 -352.687701 
L 198.994598 -356.303341 
L 198.72757 -359.918981 
L 198.493882 -363.534621 
L 198.260198 -367.150261 
L 198.002166 -370.7659 
L 197.708148 -374.38154 
L 197.381362 -377.99718 
L 197.040166 -381.61282 
L 196.716431 -385.22846 
L 196.452189 -388.844099 
L 196.294943 -392.459739 
L 196.292215 -396.075379 
L 196.485974 -399.691019 
L 196.907672 -403.306659 
L 197.574504 -406.922299 
L 198.487391 -410.537938 
L 199.63095 -414.153578 
L 200.975417 -417.769218 
L 202.480242 -421.384858 
L 204.098797 -425.000498 
L 205.783501 -428.616138 
L 207.490629 -432.231777 
L 209.184148 -435.847417 
L 210.838126 -439.463057 
L 212.437506 -443.078697 
L 213.977335 -446.694337 
L 215.460734 -450.309977 
L 216.896092 -453.925616 
L 218.294004 -457.541256 
L 219.664433 -461.156896 
L 221.014479 -464.772536 
L 222.34697 -468.388176 
L 223.659944 -472.003816 
L 224.946925 -475.619455 
L 226.19783 -479.235095 
L 227.400269 -482.850735 
L 228.541008 -486.466375 
L 229.607382 -490.082015 
L 230.588503 -493.697654 
L 231.476162 -497.313294 
L 232.26537 -500.928934 
L 232.954552 -504.544574 
L 233.545412 -508.160214 
L 234.04256 -511.775854 
L 234.452939 -515.391493 
L 234.785176 -519.007133 
L 235.048893 -522.622773 
L 235.254068 -526.238413 
L 235.410484 -529.854053 
L 235.527293 -533.469693 
L 236.072707 -533.469693 
L 236.072707 -533.469693 
L 236.189516 -529.854053 
L 236.345932 -526.238413 
L 236.551107 -522.622773 
L 236.814824 -519.007133 
L 237.147061 -515.391493 
L 237.55744 -511.775854 
L 238.054588 -508.160214 
L 238.645448 -504.544574 
L 239.33463 -500.928934 
L 240.123838 -497.313294 
L 241.011497 -493.697654 
L 241.992618 -490.082015 
L 243.058992 -486.466375 
L 244.199731 -482.850735 
L 245.40217 -479.235095 
L 246.653075 -475.619455 
L 247.940056 -472.003816 
L 249.25303 -468.388176 
L 250.585521 -464.772536 
L 251.935567 -461.156896 
L 253.305996 -457.541256 
L 254.703908 -453.925616 
L 256.139266 -450.309977 
L 257.622665 -446.694337 
L 259.162494 -443.078697 
L 260.761874 -439.463057 
L 262.415852 -435.847417 
L 264.109371 -432.231777 
L 265.816499 -428.616138 
L 267.501203 -425.000498 
L 269.119758 -421.384858 
L 270.624583 -417.769218 
L 271.96905 -414.153578 
L 273.112609 -410.537938 
L 274.025496 -406.922299 
L 274.692328 -403.306659 
L 275.114026 -399.691019 
L 275.307785 -396.075379 
L 275.305057 -392.459739 
L 275.147811 -388.844099 
L 274.883569 -385.22846 
L 274.559834 -381.61282 
L 274.218638 -377.99718 
L 273.891852 -374.38154 
L 273.597834 -370.7659 
L 273.339802 -367.150261 
L 273.106118 -363.534621 
L 272.87243 -359.918981 
L 272.605402 -356.303341 
L 272.267538 -352.687701 
L 271.822468 -349.072061 
L 271.239996 -345.456422 
L 270.50021 -341.840782 
L 269.596109 -338.225142 
L 268.534385 -334.609502 
L 267.33432 -330.993862 
L 266.025003 -327.378222 
L 264.641372 -323.762583 
L 263.219739 -320.146943 
L 261.793513 -316.531303 
L 260.389778 -312.915663 
L 259.027193 -309.300023 
L 257.715426 -305.684383 
L 256.456058 -302.068744 
L 255.244644 -298.453104 
L 254.073464 -294.837464 
L 252.93439 -291.221824 
L 251.821376 -287.606184 
L 250.732174 -283.990545 
L 249.669061 -280.374905 
L 248.63857 -276.759265 
L 247.65037 -273.143625 
L 246.715598 -269.527985 
L 245.844952 -265.912345 
L 245.046919 -262.296706 
L 244.326379 -258.681066 
L 243.683787 -255.065426 
L 243.115007 -251.449786 
L 242.611752 -247.834146 
L 242.162541 -244.218506 
L 241.753991 -240.602867 
L 241.372262 -236.987227 
L 241.004475 -233.371587 
L 240.63992 -229.755947 
L 240.270954 -226.140307 
L 239.893487 -222.524667 
L 239.507051 -218.909028 
L 239.114463 -215.293388 
L 238.721157 -211.677748 
L 238.334292 -208.062108 
L 237.961762 -204.446468 
L 237.611226 -200.830828 
L 237.289294 -197.215189 
L 237.000922 -193.599549 
L 236.749087 -189.983909 
L 236.534722 -186.368269 
L 236.356887 -182.752629 
L 236.213112 -179.13699 
L 236.099833 -175.52135 
z
" style="stroke: #3f3f3f; stroke-width: 1.25"/>
    </defs>
    <g clip-path="url(#pfc80ac6fe7)">
     <use xlink:href="#m93a435518b" x="0" y="720" style="fill: #3274a1; stroke: #3f3f3f; stroke-width: 1.25"/>
    </g>
   </g>
   <g id="PolyCollection_2">
    <defs>
     <path id="m2eb45fe4a1" d="M 347.687286 -183.54734 
L 347.112714 -183.54734 
L 347.013084 -187.297233 
L 346.887696 -191.047125 
L 346.733009 -194.797018 
L 346.545968 -198.546911 
L 346.324324 -202.296803 
L 346.066944 -206.046696 
L 345.774087 -209.796589 
L 345.447584 -213.546481 
L 345.090886 -217.296374 
L 344.708959 -221.046266 
L 344.30799 -224.796159 
L 343.89492 -228.546052 
L 343.476834 -232.295944 
L 343.060259 -236.045837 
L 342.650446 -239.795729 
L 342.250718 -243.545622 
L 341.861966 -247.295515 
L 341.482364 -251.045407 
L 341.107323 -254.7953 
L 340.7297 -258.545192 
L 340.34022 -262.295085 
L 339.928046 -266.044978 
L 339.481406 -269.79487 
L 338.988216 -273.544763 
L 338.436604 -277.294656 
L 337.815331 -281.044548 
L 337.11409 -284.794441 
L 336.32374 -288.544333 
L 335.436528 -292.294226 
L 334.44637 -296.044119 
L 333.349243 -299.794011 
L 332.143718 -303.543904 
L 330.831594 -307.293796 
L 329.418592 -311.043689 
L 327.914994 -314.793582 
L 326.33611 -318.543474 
L 324.702474 -322.293367 
L 323.039669 -326.043259 
L 321.377727 -329.793152 
L 319.750114 -333.543045 
L 318.192338 -337.292937 
L 316.740256 -341.04283 
L 315.428213 -344.792723 
L 314.287126 -348.542615 
L 313.342644 -352.292508 
L 312.613524 -356.0424 
L 312.110307 -359.792293 
L 311.834413 -363.542186 
L 311.777695 -367.292078 
L 311.922537 -371.041971 
L 312.242497 -374.791863 
L 312.703502 -378.541756 
L 313.265571 -382.291649 
L 313.885002 -386.041541 
L 314.516902 -389.791434 
L 315.117946 -393.541327 
L 315.649174 -397.291219 
L 316.078634 -401.041112 
L 316.383674 -404.791004 
L 316.55268 -408.540897 
L 316.586095 -412.29079 
L 316.496614 -416.040682 
L 316.308483 -419.790575 
L 316.055943 -423.540467 
L 315.7809 -427.29036 
L 315.530008 -431.040253 
L 315.351383 -434.790145 
L 315.291223 -438.540038 
L 315.390605 -442.28993 
L 315.682735 -446.039823 
L 316.190861 -449.789716 
L 316.926996 -453.539608 
L 317.891539 -457.289501 
L 319.073761 -461.039394 
L 320.45306 -464.789286 
L 322.000813 -468.539179 
L 323.682618 -472.289071 
L 325.46069 -476.038964 
L 327.29619 -479.788857 
L 329.151313 -483.538749 
L 330.990989 -487.288642 
L 332.784145 -491.038534 
L 334.504493 -494.788427 
L 336.130908 -498.53832 
L 337.647436 -502.288212 
L 339.043045 -506.038105 
L 340.311199 -509.787998 
L 341.449326 -513.53789 
L 342.458254 -517.287783 
L 343.341647 -521.037675 
L 344.105462 -524.787568 
L 344.757441 -528.537461 
L 345.306637 -532.287353 
L 345.762973 -536.037246 
L 346.136829 -539.787138 
L 346.438671 -543.537031 
L 346.678727 -547.286924 
L 346.866704 -551.036816 
L 347.011571 -554.786709 
L 347.788429 -554.786709 
L 347.788429 -554.786709 
L 347.933296 -551.036816 
L 348.121273 -547.286924 
L 348.361329 -543.537031 
L 348.663171 -539.787138 
L 349.037027 -536.037246 
L 349.493363 -532.287353 
L 350.042559 -528.537461 
L 350.694538 -524.787568 
L 351.458353 -521.037675 
L 352.341746 -517.287783 
L 353.350674 -513.53789 
L 354.488801 -509.787998 
L 355.756955 -506.038105 
L 357.152564 -502.288212 
L 358.669092 -498.53832 
L 360.295507 -494.788427 
L 362.015855 -491.038534 
L 363.809011 -487.288642 
L 365.648687 -483.538749 
L 367.50381 -479.788857 
L 369.33931 -476.038964 
L 371.117382 -472.289071 
L 372.799187 -468.539179 
L 374.34694 -464.789286 
L 375.726239 -461.039394 
L 376.908461 -457.289501 
L 377.873004 -453.539608 
L 378.609139 -449.789716 
L 379.117265 -446.039823 
L 379.409395 -442.28993 
L 379.508777 -438.540038 
L 379.448617 -434.790145 
L 379.269992 -431.040253 
L 379.0191 -427.29036 
L 378.744057 -423.540467 
L 378.491517 -419.790575 
L 378.303386 -416.040682 
L 378.213905 -412.29079 
L 378.24732 -408.540897 
L 378.416326 -404.791004 
L 378.721366 -401.041112 
L 379.150826 -397.291219 
L 379.682054 -393.541327 
L 380.283098 -389.791434 
L 380.914998 -386.041541 
L 381.534429 -382.291649 
L 382.096498 -378.541756 
L 382.557503 -374.791863 
L 382.877463 -371.041971 
L 383.022305 -367.292078 
L 382.965587 -363.542186 
L 382.689693 -359.792293 
L 382.186476 -356.0424 
L 381.457356 -352.292508 
L 380.512874 -348.542615 
L 379.371787 -344.792723 
L 378.059744 -341.04283 
L 376.607662 -337.292937 
L 375.049886 -333.543045 
L 373.422273 -329.793152 
L 371.760331 -326.043259 
L 370.097526 -322.293367 
L 368.46389 -318.543474 
L 366.885006 -314.793582 
L 365.381408 -311.043689 
L 363.968406 -307.293796 
L 362.656282 -303.543904 
L 361.450757 -299.794011 
L 360.35363 -296.044119 
L 359.363472 -292.294226 
L 358.47626 -288.544333 
L 357.68591 -284.794441 
L 356.984669 -281.044548 
L 356.363396 -277.294656 
L 355.811784 -273.544763 
L 355.318594 -269.79487 
L 354.871954 -266.044978 
L 354.45978 -262.295085 
L 354.0703 -258.545192 
L 353.692677 -254.7953 
L 353.317636 -251.045407 
L 352.938034 -247.295515 
L 352.549282 -243.545622 
L 352.149554 -239.795729 
L 351.739741 -236.045837 
L 351.323166 -232.295944 
L 350.90508 -228.546052 
L 350.49201 -224.796159 
L 350.091041 -221.046266 
L 349.709114 -217.296374 
L 349.352416 -213.546481 
L 349.025913 -209.796589 
L 348.733056 -206.046696 
L 348.475676 -202.296803 
L 348.254032 -198.546911 
L 348.066991 -194.797018 
L 347.912304 -191.047125 
L 347.786916 -187.297233 
L 347.687286 -183.54734 
z
" style="stroke: #3f3f3f; stroke-width: 1.25"/>
    </defs>
    <g clip-path="url(#pfc80ac6fe7)">
     <use xlink:href="#m2eb45fe4a1" x="0" y="720" style="fill: #3274a1; stroke: #3f3f3f; stroke-width: 1.25"/>
    </g>
   </g>
   <g id="PolyCollection_3">
    <defs>
     <path id="m554ed3e037" d="M 459.342242 -218.674039 
L 458.657758 -218.674039 
L 458.550248 -221.994752 
L 458.415699 -225.315466 
L 458.249311 -228.636179 
L 458.045927 -231.956892 
L 457.800116 -235.277606 
L 457.506282 -238.598319 
L 457.158802 -241.919033 
L 456.752195 -245.239746 
L 456.28132 -248.56046 
L 455.741611 -251.881173 
L 455.129331 -255.201887 
L 454.441863 -258.5226 
L 453.678 -261.843313 
L 452.838238 -265.164027 
L 451.925044 -268.48474 
L 450.943076 -271.805454 
L 449.899322 -275.126167 
L 448.803141 -278.446881 
L 447.666186 -281.767594 
L 446.502186 -285.088308 
L 445.326591 -288.409021 
L 444.15609 -291.729734 
L 443.008019 -295.050448 
L 441.899683 -298.371161 
L 440.847645 -301.691875 
L 439.867006 -305.012588 
L 438.97072 -308.333302 
L 438.168982 -311.654015 
L 437.46872 -314.974729 
L 436.87321 -318.295442 
L 436.381841 -321.616155 
L 435.990032 -324.936869 
L 435.689313 -328.257582 
L 435.467577 -331.578296 
L 435.309488 -334.899009 
L 435.197037 -338.219723 
L 435.110226 -341.540436 
L 435.02784 -344.861149 
L 434.928284 -348.181863 
L 434.790415 -351.502576 
L 434.594356 -354.82329 
L 434.32222 -358.144003 
L 433.958749 -361.464717 
L 433.491834 -364.78543 
L 432.912936 -368.106144 
L 432.217417 -371.426857 
L 431.40482 -374.74757 
L 430.479101 -378.068284 
L 429.448851 -381.388997 
L 428.327476 -384.709711 
L 427.133303 -388.030424 
L 425.889566 -391.351138 
L 424.624179 -394.671851 
L 423.369229 -397.992565 
L 422.160123 -401.313278 
L 421.034351 -404.633991 
L 420.029895 -407.954705 
L 419.183347 -411.275418 
L 418.527856 -414.596132 
L 418.091095 -417.916845 
L 417.893431 -421.237559 
L 417.946495 -424.558272 
L 418.252335 -427.878985 
L 418.803257 -431.199699 
L 419.582411 -434.520412 
L 420.565081 -437.841126 
L 421.720568 -441.161839 
L 423.014485 -444.482553 
L 424.411239 -447.803266 
L 425.876455 -451.12398 
L 427.379121 -454.444693 
L 428.893259 -457.765406 
L 430.398985 -461.08612 
L 431.88291 -464.406833 
L 433.337899 -467.727547 
L 434.762249 -471.04826 
L 436.158449 -474.368974 
L 437.531672 -477.689687 
L 438.888181 -481.010401 
L 440.233832 -484.331114 
L 441.572807 -487.651827 
L 442.906695 -490.972541 
L 444.233971 -494.293254 
L 445.5499 -497.613968 
L 446.846818 -500.934681 
L 448.114734 -504.255395 
L 449.342156 -507.576108 
L 450.517028 -510.896821 
L 451.627684 -514.217535 
L 452.663713 -517.538248 
L 453.616666 -520.858962 
L 454.48055 -524.179675 
L 455.252089 -527.500389 
L 455.930758 -530.821102 
L 456.518609 -534.141816 
L 457.019938 -537.462529 
L 457.440839 -540.783242 
L 457.788702 -544.103956 
L 458.071703 -547.424669 
L 459.928297 -547.424669 
L 459.928297 -547.424669 
L 460.211298 -544.103956 
L 460.559161 -540.783242 
L 460.980062 -537.462529 
L 461.481391 -534.141816 
L 462.069242 -530.821102 
L 462.747911 -527.500389 
L 463.51945 -524.179675 
L 464.383334 -520.858962 
L 465.336287 -517.538248 
L 466.372316 -514.217535 
L 467.482972 -510.896821 
L 468.657844 -507.576108 
L 469.885266 -504.255395 
L 471.153182 -500.934681 
L 472.4501 -497.613968 
L 473.766029 -494.293254 
L 475.093305 -490.972541 
L 476.427193 -487.651827 
L 477.766168 -484.331114 
L 479.111819 -481.010401 
L 480.468328 -477.689687 
L 481.841551 -474.368974 
L 483.237751 -471.04826 
L 484.662101 -467.727547 
L 486.11709 -464.406833 
L 487.601015 -461.08612 
L 489.106741 -457.765406 
L 490.620879 -454.444693 
L 492.123545 -451.12398 
L 493.588761 -447.803266 
L 494.985515 -444.482553 
L 496.279432 -441.161839 
L 497.434919 -437.841126 
L 498.417589 -434.520412 
L 499.196743 -431.199699 
L 499.747665 -427.878985 
L 500.053505 -424.558272 
L 500.106569 -421.237559 
L 499.908905 -417.916845 
L 499.472144 -414.596132 
L 498.816653 -411.275418 
L 497.970105 -407.954705 
L 496.965649 -404.633991 
L 495.839877 -401.313278 
L 494.630771 -397.992565 
L 493.375821 -394.671851 
L 492.110434 -391.351138 
L 490.866697 -388.030424 
L 489.672524 -384.709711 
L 488.551149 -381.388997 
L 487.520899 -378.068284 
L 486.59518 -374.74757 
L 485.782583 -371.426857 
L 485.087064 -368.106144 
L 484.508166 -364.78543 
L 484.041251 -361.464717 
L 483.67778 -358.144003 
L 483.405644 -354.82329 
L 483.209585 -351.502576 
L 483.071716 -348.181863 
L 482.97216 -344.861149 
L 482.889774 -341.540436 
L 482.802963 -338.219723 
L 482.690512 -334.899009 
L 482.532423 -331.578296 
L 482.310687 -328.257582 
L 482.009968 -324.936869 
L 481.618159 -321.616155 
L 481.12679 -318.295442 
L 480.53128 -314.974729 
L 479.831018 -311.654015 
L 479.02928 -308.333302 
L 478.132994 -305.012588 
L 477.152355 -301.691875 
L 476.100317 -298.371161 
L 474.991981 -295.050448 
L 473.84391 -291.729734 
L 472.673409 -288.409021 
L 471.497814 -285.088308 
L 470.333814 -281.767594 
L 469.196859 -278.446881 
L 468.100678 -275.126167 
L 467.056924 -271.805454 
L 466.074956 -268.48474 
L 465.161762 -265.164027 
L 464.322 -261.843313 
L 463.558137 -258.5226 
L 462.870669 -255.201887 
L 462.258389 -251.881173 
L 461.71868 -248.56046 
L 461.247805 -245.239746 
L 460.841198 -241.919033 
L 460.493718 -238.598319 
L 460.199884 -235.277606 
L 459.954073 -231.956892 
L 459.750689 -228.636179 
L 459.584301 -225.315466 
L 459.449752 -221.994752 
L 459.342242 -218.674039 
z
" style="stroke: #3f3f3f; stroke-width: 1.25"/>
    </defs>
    <g clip-path="url(#pfc80ac6fe7)">
     <use xlink:href="#m554ed3e037" x="0" y="720" style="fill: #3274a1; stroke: #3f3f3f; stroke-width: 1.25"/>
    </g>
   </g>
   <g id="PolyCollection_4">
    <defs>
     <path id="m0770457342" d="M 571.100284 -202.45496 
L 570.099716 -202.45496 
L 569.950987 -205.942866 
L 569.769833 -209.430772 
L 569.552776 -212.918678 
L 569.296892 -216.406584 
L 569.000035 -219.89449 
L 568.661017 -223.382395 
L 568.279722 -226.870301 
L 567.857132 -230.358207 
L 567.395242 -233.846113 
L 566.896858 -237.334019 
L 566.365301 -240.821925 
L 565.804018 -244.309831 
L 565.216178 -247.797737 
L 564.604269 -251.285642 
L 563.96979 -254.773548 
L 563.313068 -258.261454 
L 562.633258 -261.74936 
L 561.928537 -265.237266 
L 561.196489 -268.725172 
L 560.434644 -272.213078 
L 559.641096 -275.700984 
L 558.815114 -279.18889 
L 557.957658 -282.676795 
L 557.071684 -286.164701 
L 556.162187 -289.652607 
L 555.235929 -293.140513 
L 554.300851 -296.628419 
L 553.365236 -300.116325 
L 552.436695 -303.604231 
L 551.521114 -307.092137 
L 550.621701 -310.580042 
L 549.738276 -314.067948 
L 548.866924 -317.555854 
L 548.00008 -321.04376 
L 547.127098 -324.531666 
L 546.235245 -328.019572 
L 545.311063 -331.507478 
L 544.341945 -334.995384 
L 543.317787 -338.483289 
L 542.232521 -341.971195 
L 541.085393 -345.459101 
L 539.881835 -348.947007 
L 538.633836 -352.434913 
L 537.359787 -355.922819 
L 536.083793 -359.410725 
L 534.834509 -362.898631 
L 533.643612 -366.386537 
L 532.544011 -369.874442 
L 531.567962 -373.362348 
L 530.745203 -376.850254 
L 530.101267 -380.33816 
L 529.656076 -383.826066 
L 529.422896 -387.313972 
L 529.407734 -390.801878 
L 529.60918 -394.289784 
L 530.018691 -397.777689 
L 530.621288 -401.265595 
L 531.396593 -404.753501 
L 532.320121 -408.241407 
L 533.364737 -411.729313 
L 534.502183 -415.217219 
L 535.704556 -418.705125 
L 536.945672 -422.193031 
L 538.202227 -425.680936 
L 539.454696 -429.168842 
L 540.687944 -432.656748 
L 541.891525 -436.144654 
L 543.059667 -439.63256 
L 544.190977 -443.120466 
L 545.287895 -446.608372 
L 546.355953 -450.096278 
L 547.402886 -453.584183 
L 548.437677 -457.072089 
L 549.469588 -460.559995 
L 550.507249 -464.047901 
L 551.557848 -467.535807 
L 552.626481 -471.023713 
L 553.715696 -474.511619 
L 554.825237 -477.999525 
L 555.952003 -481.487431 
L 557.090221 -484.975336 
L 558.231791 -488.463242 
L 559.366785 -491.951148 
L 560.484055 -495.439054 
L 561.571898 -498.92696 
L 562.618731 -502.414866 
L 563.613732 -505.902772 
L 564.547395 -509.390678 
L 565.41198 -512.878583 
L 566.201815 -516.366489 
L 566.91346 -519.854395 
L 567.545718 -523.342301 
L 568.099513 -526.830207 
L 568.577659 -530.318113 
L 568.98454 -533.806019 
L 569.32575 -537.293925 
L 569.607702 -540.78183 
L 569.837259 -544.269736 
L 570.021393 -547.757642 
L 571.178607 -547.757642 
L 571.178607 -547.757642 
L 571.362741 -544.269736 
L 571.592298 -540.78183 
L 571.87425 -537.293925 
L 572.21546 -533.806019 
L 572.622341 -530.318113 
L 573.100487 -526.830207 
L 573.654282 -523.342301 
L 574.28654 -519.854395 
L 574.998185 -516.366489 
L 575.78802 -512.878583 
L 576.652605 -509.390678 
L 577.586268 -505.902772 
L 578.581269 -502.414866 
L 579.628102 -498.92696 
L 580.715945 -495.439054 
L 581.833215 -491.951148 
L 582.968209 -488.463242 
L 584.109779 -484.975336 
L 585.247997 -481.487431 
L 586.374763 -477.999525 
L 587.484304 -474.511619 
L 588.573519 -471.023713 
L 589.642152 -467.535807 
L 590.692751 -464.047901 
L 591.730412 -460.559995 
L 592.762323 -457.072089 
L 593.797114 -453.584183 
L 594.844047 -450.096278 
L 595.912105 -446.608372 
L 597.009023 -443.120466 
L 598.140333 -439.63256 
L 599.308475 -436.144654 
L 600.512056 -432.656748 
L 601.745304 -429.168842 
L 602.997773 -425.680936 
L 604.254328 -422.193031 
L 605.495444 -418.705125 
L 606.697817 -415.217219 
L 607.835263 -411.729313 
L 608.879879 -408.241407 
L 609.803407 -404.753501 
L 610.578712 -401.265595 
L 611.181309 -397.777689 
L 611.59082 -394.289784 
L 611.792266 -390.801878 
L 611.777104 -387.313972 
L 611.543924 -383.826066 
L 611.098733 -380.33816 
L 610.454797 -376.850254 
L 609.632038 -373.362348 
L 608.655989 -369.874442 
L 607.556388 -366.386537 
L 606.365491 -362.898631 
L 605.116207 -359.410725 
L 603.840213 -355.922819 
L 602.566164 -352.434913 
L 601.318165 -348.947007 
L 600.114607 -345.459101 
L 598.967479 -341.971195 
L 597.882213 -338.483289 
L 596.858055 -334.995384 
L 595.888937 -331.507478 
L 594.964755 -328.019572 
L 594.072902 -324.531666 
L 593.19992 -321.04376 
L 592.333076 -317.555854 
L 591.461724 -314.067948 
L 590.578299 -310.580042 
L 589.678886 -307.092137 
L 588.763305 -303.604231 
L 587.834764 -300.116325 
L 586.899149 -296.628419 
L 585.964071 -293.140513 
L 585.037813 -289.652607 
L 584.128316 -286.164701 
L 583.242342 -282.676795 
L 582.384886 -279.18889 
L 581.558904 -275.700984 
L 580.765356 -272.213078 
L 580.003511 -268.725172 
L 579.271463 -265.237266 
L 578.566742 -261.74936 
L 577.886932 -258.261454 
L 577.23021 -254.773548 
L 576.595731 -251.285642 
L 575.983822 -247.797737 
L 575.395982 -244.309831 
L 574.834699 -240.821925 
L 574.303142 -237.334019 
L 573.804758 -233.846113 
L 573.342868 -230.358207 
L 572.920278 -226.870301 
L 572.538983 -223.382395 
L 572.199965 -219.89449 
L 571.903108 -216.406584 
L 571.647224 -212.918678 
L 571.430167 -209.430772 
L 571.249013 -205.942866 
L 571.100284 -202.45496 
z
" style="stroke: #3f3f3f; stroke-width: 1.25"/>
    </defs>
    <g clip-path="url(#pfc80ac6fe7)">
     <use xlink:href="#m0770457342" x="0" y="720" style="fill: #3274a1; stroke: #3f3f3f; stroke-width: 1.25"/>
    </g>
   </g>
   <g id="PolyCollection_5">
    <defs>
     <path id="mc168c36bb7" d="M 683.089577 -219.098254 
L 681.310423 -219.098254 
L 681.075447 -222.380862 
L 680.794585 -225.66347 
L 680.463539 -228.946078 
L 680.07886 -232.228686 
L 679.638307 -235.511295 
L 679.141205 -238.793903 
L 678.588784 -242.076511 
L 677.98445 -245.359119 
L 677.333965 -248.641727 
L 676.645508 -251.924335 
L 675.929576 -255.206943 
L 675.198717 -258.489551 
L 674.467088 -261.772159 
L 673.74984 -265.054767 
L 673.062359 -268.337376 
L 672.419401 -271.619984 
L 671.834169 -274.902592 
L 671.317399 -278.1852 
L 670.876519 -281.467808 
L 670.514956 -284.750416 
L 670.231634 -288.033024 
L 670.020727 -291.315632 
L 669.871685 -294.59824 
L 669.769548 -297.880849 
L 669.695524 -301.163457 
L 669.627813 -304.446065 
L 669.542598 -307.728673 
L 669.41517 -311.011281 
L 669.22108 -314.293889 
L 668.937276 -317.576497 
L 668.543139 -320.859105 
L 668.021376 -324.141713 
L 667.358718 -327.424321 
L 666.546416 -330.70693 
L 665.580525 -333.989538 
L 664.461974 -337.272146 
L 663.196457 -340.554754 
L 661.794171 -343.837362 
L 660.26942 -347.11997 
L 658.640128 -350.402578 
L 656.92728 -353.685186 
L 655.154317 -356.967794 
L 653.346496 -360.250402 
L 651.530241 -363.533011 
L 649.732478 -366.815619 
L 647.979985 -370.098227 
L 646.298757 -373.380835 
L 644.713401 -376.663443 
L 643.246585 -379.946051 
L 641.918552 -383.228659 
L 640.746713 -386.511267 
L 639.745348 -389.793875 
L 638.925399 -393.076483 
L 638.294388 -396.359092 
L 637.856437 -399.6417 
L 637.612386 -402.924308 
L 637.56 -406.206916 
L 637.694243 -409.489524 
L 638.007603 -412.772132 
L 638.490452 -416.05474 
L 639.131425 -419.337348 
L 639.917802 -422.619956 
L 640.835894 -425.902564 
L 641.871423 -429.185173 
L 643.009884 -432.467781 
L 644.236891 -435.750389 
L 645.538499 -439.032997 
L 646.901491 -442.315605 
L 648.313614 -445.598213 
L 649.76376 -448.880821 
L 651.242076 -452.163429 
L 652.73999 -455.446037 
L 654.250157 -458.728645 
L 655.766328 -462.011254 
L 657.283137 -465.293862 
L 658.795853 -468.57647 
L 660.300084 -471.859078 
L 661.791503 -475.141686 
L 663.265583 -478.424294 
L 664.717402 -481.706902 
L 666.14152 -484.98951 
L 667.531946 -488.272118 
L 668.882204 -491.554727 
L 670.185484 -494.837335 
L 671.434873 -498.119943 
L 672.623632 -501.402551 
L 673.745501 -504.685159 
L 674.795005 -507.967767 
L 675.767719 -511.250375 
L 676.660488 -514.532983 
L 677.471571 -517.815591 
L 678.200705 -521.098199 
L 678.849089 -524.380808 
L 679.419288 -527.663416 
L 679.915074 -530.946024 
L 680.341217 -534.228632 
L 680.703246 -537.51124 
L 681.007195 -540.793848 
L 681.259359 -544.076456 
L 683.140641 -544.076456 
L 683.140641 -544.076456 
L 683.392805 -540.793848 
L 683.696754 -537.51124 
L 684.058783 -534.228632 
L 684.484926 -530.946024 
L 684.980712 -527.663416 
L 685.550911 -524.380808 
L 686.199295 -521.098199 
L 686.928429 -517.815591 
L 687.739512 -514.532983 
L 688.632281 -511.250375 
L 689.604995 -507.967767 
L 690.654499 -504.685159 
L 691.776368 -501.402551 
L 692.965127 -498.119943 
L 694.214516 -494.837335 
L 695.517796 -491.554727 
L 696.868054 -488.272118 
L 698.25848 -484.98951 
L 699.682598 -481.706902 
L 701.134417 -478.424294 
L 702.608497 -475.141686 
L 704.099916 -471.859078 
L 705.604147 -468.57647 
L 707.116863 -465.293862 
L 708.633672 -462.011254 
L 710.149843 -458.728645 
L 711.66001 -455.446037 
L 713.157924 -452.163429 
L 714.63624 -448.880821 
L 716.086386 -445.598213 
L 717.498509 -442.315605 
L 718.861501 -439.032997 
L 720.163109 -435.750389 
L 721.390116 -432.467781 
L 722.528577 -429.185173 
L 723.564106 -425.902564 
L 724.482198 -422.619956 
L 725.268575 -419.337348 
L 725.909548 -416.05474 
L 726.392397 -412.772132 
L 726.705757 -409.489524 
L 726.84 -406.206916 
L 726.787614 -402.924308 
L 726.543563 -399.6417 
L 726.105612 -396.359092 
L 725.474601 -393.076483 
L 724.654652 -389.793875 
L 723.653287 -386.511267 
L 722.481448 -383.228659 
L 721.153415 -379.946051 
L 719.686599 -376.663443 
L 718.101243 -373.380835 
L 716.420015 -370.098227 
L 714.667522 -366.815619 
L 712.869759 -363.533011 
L 711.053504 -360.250402 
L 709.245683 -356.967794 
L 707.47272 -353.685186 
L 705.759872 -350.402578 
L 704.13058 -347.11997 
L 702.605829 -343.837362 
L 701.203543 -340.554754 
L 699.938026 -337.272146 
L 698.819475 -333.989538 
L 697.853584 -330.70693 
L 697.041282 -327.424321 
L 696.378624 -324.141713 
L 695.856861 -320.859105 
L 695.462724 -317.576497 
L 695.17892 -314.293889 
L 694.98483 -311.011281 
L 694.857402 -307.728673 
L 694.772187 -304.446065 
L 694.704476 -301.163457 
L 694.630452 -297.880849 
L 694.528315 -294.59824 
L 694.379273 -291.315632 
L 694.168366 -288.033024 
L 693.885044 -284.750416 
L 693.523481 -281.467808 
L 693.082601 -278.1852 
L 692.565831 -274.902592 
L 691.980599 -271.619984 
L 691.337641 -268.337376 
L 690.65016 -265.054767 
L 689.932912 -261.772159 
L 689.201283 -258.489551 
L 688.470424 -255.206943 
L 687.754492 -251.924335 
L 687.066035 -248.641727 
L 686.41555 -245.359119 
L 685.811216 -242.076511 
L 685.258795 -238.793903 
L 684.761693 -235.511295 
L 684.32114 -232.228686 
L 683.936461 -228.946078 
L 683.605415 -225.66347 
L 683.324553 -222.380862 
L 683.089577 -219.098254 
z
" style="stroke: #3f3f3f; stroke-width: 1.25"/>
    </defs>
    <g clip-path="url(#pfc80ac6fe7)">
     <use xlink:href="#mc168c36bb7" x="0" y="720" style="fill: #3274a1; stroke: #3f3f3f; stroke-width: 1.25"/>
    </g>
   </g>
   <g id="PolyCollection_6">
    <defs>
     <path id="m02b1f731f7" d="M 794.159122 -104.4 
L 793.440878 -104.4 
L 793.354291 -109.490909 
L 793.253427 -114.581818 
L 793.137688 -119.672727 
L 793.006889 -124.763636 
L 792.861332 -129.854545 
L 792.701849 -134.945455 
L 792.529814 -140.036364 
L 792.347103 -145.127273 
L 792.156 -150.218182 
L 791.959045 -155.309091 
L 791.758821 -160.4 
L 791.557697 -165.490909 
L 791.357519 -170.581818 
L 791.159293 -175.672727 
L 790.962864 -180.763636 
L 790.766632 -185.854545 
L 790.567323 -190.945455 
L 790.359857 -196.036364 
L 790.137325 -201.127273 
L 789.891104 -206.218182 
L 789.611123 -211.309091 
L 789.286273 -216.4 
L 788.904956 -221.490909 
L 788.455748 -226.581818 
L 787.928154 -231.672727 
L 787.313387 -236.763636 
L 786.605147 -241.854545 
L 785.800324 -246.945455 
L 784.899576 -252.036364 
L 783.907734 -257.127273 
L 782.833972 -262.218182 
L 781.69173 -267.309091 
L 780.498363 -272.4 
L 779.274516 -277.490909 
L 778.043256 -282.581818 
L 776.829 -287.672727 
L 775.656303 -292.763636 
L 774.548587 -297.854545 
L 773.526891 -302.945455 
L 772.608741 -308.036364 
L 771.807221 -313.127273 
L 771.130323 -318.218182 
L 770.580627 -323.309091 
L 770.155337 -328.4 
L 769.846691 -333.490909 
L 769.642694 -338.581818 
L 769.528131 -343.672727 
L 769.485772 -348.763636 
L 769.49768 -353.854545 
L 769.546501 -358.945455 
L 769.616649 -364.036364 
L 769.695269 -369.127273 
L 769.772937 -374.218182 
L 769.844019 -379.309091 
L 769.90669 -384.4 
L 769.962634 -389.490909 
L 770.016462 -394.581818 
L 770.074916 -399.672727 
L 770.145971 -404.763636 
L 770.237896 -409.854545 
L 770.358407 -414.945455 
L 770.513951 -420.036364 
L 770.709226 -425.127273 
L 770.946932 -430.218182 
L 771.227789 -435.309091 
L 771.550787 -440.4 
L 771.91362 -445.490909 
L 772.313239 -450.581818 
L 772.746456 -455.672727 
L 773.210505 -460.763636 
L 773.703501 -465.854545 
L 774.224736 -470.945455 
L 774.774777 -476.036364 
L 775.355356 -481.127273 
L 775.969069 -486.218182 
L 776.618924 -491.309091 
L 777.307782 -496.4 
L 778.03777 -501.490909 
L 778.80973 -506.581818 
L 779.622759 -511.672727 
L 780.473904 -516.763636 
L 781.358037 -521.854545 
L 782.26792 -526.945455 
L 783.194461 -532.036364 
L 784.127128 -537.127273 
L 785.054479 -542.218182 
L 785.964763 -547.309091 
L 786.846525 -552.4 
L 787.689182 -557.490909 
L 788.483513 -562.581818 
L 789.222026 -567.672727 
L 789.899205 -572.763636 
L 790.511603 -577.854545 
L 791.057812 -582.945455 
L 791.53832 -588.036364 
L 791.955265 -593.127273 
L 792.312149 -598.218182 
L 792.613498 -603.309091 
L 792.864537 -608.4 
L 794.735463 -608.4 
L 794.735463 -608.4 
L 794.986502 -603.309091 
L 795.287851 -598.218182 
L 795.644735 -593.127273 
L 796.06168 -588.036364 
L 796.542188 -582.945455 
L 797.088397 -577.854545 
L 797.700795 -572.763636 
L 798.377974 -567.672727 
L 799.116487 -562.581818 
L 799.910818 -557.490909 
L 800.753475 -552.4 
L 801.635237 -547.309091 
L 802.545521 -542.218182 
L 803.472872 -537.127273 
L 804.405539 -532.036364 
L 805.33208 -526.945455 
L 806.241963 -521.854545 
L 807.126096 -516.763636 
L 807.977241 -511.672727 
L 808.79027 -506.581818 
L 809.56223 -501.490909 
L 810.292218 -496.4 
L 810.981076 -491.309091 
L 811.630931 -486.218182 
L 812.244644 -481.127273 
L 812.825223 -476.036364 
L 813.375264 -470.945455 
L 813.896499 -465.854545 
L 814.389495 -460.763636 
L 814.853544 -455.672727 
L 815.286761 -450.581818 
L 815.68638 -445.490909 
L 816.049213 -440.4 
L 816.372211 -435.309091 
L 816.653068 -430.218182 
L 816.890774 -425.127273 
L 817.086049 -420.036364 
L 817.241593 -414.945455 
L 817.362104 -409.854545 
L 817.454029 -404.763636 
L 817.525084 -399.672727 
L 817.583538 -394.581818 
L 817.637366 -389.490909 
L 817.69331 -384.4 
L 817.755981 -379.309091 
L 817.827063 -374.218182 
L 817.904731 -369.127273 
L 817.983351 -364.036364 
L 818.053499 -358.945455 
L 818.10232 -353.854545 
L 818.114228 -348.763636 
L 818.071869 -343.672727 
L 817.957306 -338.581818 
L 817.753309 -333.490909 
L 817.444663 -328.4 
L 817.019373 -323.309091 
L 816.469677 -318.218182 
L 815.792779 -313.127273 
L 814.991259 -308.036364 
L 814.073109 -302.945455 
L 813.051413 -297.854545 
L 811.943697 -292.763636 
L 810.771 -287.672727 
L 809.556744 -282.581818 
L 808.325484 -277.490909 
L 807.101637 -272.4 
L 805.90827 -267.309091 
L 804.766028 -262.218182 
L 803.692266 -257.127273 
L 802.700424 -252.036364 
L 801.799676 -246.945455 
L 800.994853 -241.854545 
L 800.286613 -236.763636 
L 799.671846 -231.672727 
L 799.144252 -226.581818 
L 798.695044 -221.490909 
L 798.313727 -216.4 
L 797.988877 -211.309091 
L 797.708896 -206.218182 
L 797.462675 -201.127273 
L 797.240143 -196.036364 
L 797.032677 -190.945455 
L 796.833368 -185.854545 
L 796.637136 -180.763636 
L 796.440707 -175.672727 
L 796.242481 -170.581818 
L 796.042303 -165.490909 
L 795.841179 -160.4 
L 795.640955 -155.309091 
L 795.444 -150.218182 
L 795.252897 -145.127273 
L 795.070186 -140.036364 
L 794.898151 -134.945455 
L 794.738668 -129.854545 
L 794.593111 -124.763636 
L 794.462312 -119.672727 
L 794.346573 -114.581818 
L 794.245709 -109.490909 
L 794.159122 -104.4 
z
" style="stroke: #3f3f3f; stroke-width: 1.25"/>
    </defs>
    <g clip-path="url(#pfc80ac6fe7)">
     <use xlink:href="#m02b1f731f7" x="0" y="720" style="fill: #3274a1; stroke: #3f3f3f; stroke-width: 1.25"/>
    </g>
   </g>
   <g id="PolyCollection_7">
    <defs>
     <path id="m0852aaacf8" d="M 906.594682 -190.736761 
L 904.205318 -190.736761 
L 903.936802 -194.690012 
L 903.621233 -198.643264 
L 903.253606 -202.596515 
L 902.829108 -206.549767 
L 902.343303 -210.503018 
L 901.792336 -214.456269 
L 901.173154 -218.409521 
L 900.483734 -222.362772 
L 899.723298 -226.316024 
L 898.892527 -230.269275 
L 897.993735 -234.222527 
L 897.031019 -238.175778 
L 896.01034 -242.129029 
L 894.939563 -246.082281 
L 893.828413 -250.035532 
L 892.68836 -253.988784 
L 891.532432 -257.942035 
L 890.374942 -261.895287 
L 889.231155 -265.848538 
L 888.116885 -269.801789 
L 887.048054 -273.755041 
L 886.040212 -277.708292 
L 885.108059 -281.661544 
L 884.264962 -285.614795 
L 883.522521 -289.568047 
L 882.89017 -293.521298 
L 882.374868 -297.474549 
L 881.980857 -301.427801 
L 881.709528 -305.381052 
L 881.559391 -309.334304 
L 881.526135 -313.287555 
L 881.602805 -317.240806 
L 881.78005 -321.194058 
L 882.046465 -325.147309 
L 882.388973 -329.100561 
L 882.793262 -333.053812 
L 883.244232 -337.007064 
L 883.726443 -340.960315 
L 884.224549 -344.913566 
L 884.723681 -348.866818 
L 885.209803 -352.820069 
L 885.66999 -356.773321 
L 886.092654 -360.726572 
L 886.467704 -364.679824 
L 886.786644 -368.633075 
L 887.042619 -372.586326 
L 887.230409 -376.539578 
L 887.346393 -380.492829 
L 887.388486 -384.446081 
L 887.356065 -388.399332 
L 887.249884 -392.352583 
L 887.071999 -396.305835 
L 886.825703 -400.259086 
L 886.515469 -404.212338 
L 886.14691 -408.165589 
L 885.726745 -412.118841 
L 885.262776 -416.072092 
L 884.763855 -420.025343 
L 884.239847 -423.978595 
L 883.701566 -427.931846 
L 883.160693 -431.885098 
L 882.629647 -435.838349 
L 882.121418 -439.791601 
L 881.649358 -443.744852 
L 881.226926 -447.698103 
L 880.867391 -451.651355 
L 880.583501 -455.604606 
L 880.387134 -459.557858 
L 880.28894 -463.511109 
L 880.297985 -467.46436 
L 880.421428 -471.417612 
L 880.664239 -475.370863 
L 881.028967 -479.324115 
L 881.515599 -483.277366 
L 882.121485 -487.230618 
L 882.841365 -491.183869 
L 883.667489 -495.13712 
L 884.589823 -499.090372 
L 885.596337 -503.043623 
L 886.673375 -506.996875 
L 887.80606 -510.950126 
L 888.978755 -514.903378 
L 890.175523 -518.856629 
L 891.380591 -522.80988 
L 892.578784 -526.763132 
L 893.75592 -530.716383 
L 894.899143 -534.669635 
L 895.99719 -538.622886 
L 897.040583 -542.576138 
L 898.021736 -546.529389 
L 898.935002 -550.48264 
L 899.776629 -554.435892 
L 900.544668 -558.389143 
L 901.238822 -562.342395 
L 901.86026 -566.295646 
L 902.411398 -570.248897 
L 902.895671 -574.202149 
L 903.317297 -578.1554 
L 903.681051 -582.108652 
L 907.118949 -582.108652 
L 907.118949 -582.108652 
L 907.482703 -578.1554 
L 907.904329 -574.202149 
L 908.388602 -570.248897 
L 908.93974 -566.295646 
L 909.561178 -562.342395 
L 910.255332 -558.389143 
L 911.023371 -554.435892 
L 911.864998 -550.48264 
L 912.778264 -546.529389 
L 913.759417 -542.576138 
L 914.80281 -538.622886 
L 915.900857 -534.669635 
L 917.04408 -530.716383 
L 918.221216 -526.763132 
L 919.419409 -522.80988 
L 920.624477 -518.856629 
L 921.821245 -514.903378 
L 922.99394 -510.950126 
L 924.126625 -506.996875 
L 925.203663 -503.043623 
L 926.210177 -499.090372 
L 927.132511 -495.13712 
L 927.958635 -491.183869 
L 928.678515 -487.230618 
L 929.284401 -483.277366 
L 929.771033 -479.324115 
L 930.135761 -475.370863 
L 930.378572 -471.417612 
L 930.502015 -467.46436 
L 930.51106 -463.511109 
L 930.412866 -459.557858 
L 930.216499 -455.604606 
L 929.932609 -451.651355 
L 929.573074 -447.698103 
L 929.150642 -443.744852 
L 928.678582 -439.791601 
L 928.170353 -435.838349 
L 927.639307 -431.885098 
L 927.098434 -427.931846 
L 926.560153 -423.978595 
L 926.036145 -420.025343 
L 925.537224 -416.072092 
L 925.073255 -412.118841 
L 924.65309 -408.165589 
L 924.284531 -404.212338 
L 923.974297 -400.259086 
L 923.728001 -396.305835 
L 923.550116 -392.352583 
L 923.443935 -388.399332 
L 923.411514 -384.446081 
L 923.453607 -380.492829 
L 923.569591 -376.539578 
L 923.757381 -372.586326 
L 924.013356 -368.633075 
L 924.332296 -364.679824 
L 924.707346 -360.726572 
L 925.13001 -356.773321 
L 925.590197 -352.820069 
L 926.076319 -348.866818 
L 926.575451 -344.913566 
L 927.073557 -340.960315 
L 927.555768 -337.007064 
L 928.006738 -333.053812 
L 928.411027 -329.100561 
L 928.753535 -325.147309 
L 929.01995 -321.194058 
L 929.197195 -317.240806 
L 929.273865 -313.287555 
L 929.240609 -309.334304 
L 929.090472 -305.381052 
L 928.819143 -301.427801 
L 928.425132 -297.474549 
L 927.90983 -293.521298 
L 927.277479 -289.568047 
L 926.535038 -285.614795 
L 925.691941 -281.661544 
L 924.759788 -277.708292 
L 923.751946 -273.755041 
L 922.683115 -269.801789 
L 921.568845 -265.848538 
L 920.425058 -261.895287 
L 919.267568 -257.942035 
L 918.11164 -253.988784 
L 916.971587 -250.035532 
L 915.860437 -246.082281 
L 914.78966 -242.129029 
L 913.768981 -238.175778 
L 912.806265 -234.222527 
L 911.907473 -230.269275 
L 911.076702 -226.316024 
L 910.316266 -222.362772 
L 909.626846 -218.409521 
L 909.007664 -214.456269 
L 908.456697 -210.503018 
L 907.970892 -206.549767 
L 907.546394 -202.596515 
L 907.178767 -198.643264 
L 906.863198 -194.690012 
L 906.594682 -190.736761 
z
" style="stroke: #3f3f3f; stroke-width: 1.25"/>
    </defs>
    <g clip-path="url(#pfc80ac6fe7)">
     <use xlink:href="#m0852aaacf8" x="0" y="720" style="fill: #3274a1; stroke: #3f3f3f; stroke-width: 1.25"/>
    </g>
   </g>
   <g id="PolyCollection_8">
    <defs>
     <path id="mb403ed2943" d="M 1017.729315 -160.180126 
L 1016.270685 -160.180126 
L 1016.104604 -164.632001 
L 1015.910875 -169.083876 
L 1015.687354 -173.535751 
L 1015.432257 -177.987626 
L 1015.14426 -182.439501 
L 1014.822601 -186.891376 
L 1014.467153 -191.343251 
L 1014.078478 -195.795125 
L 1013.657843 -200.247 
L 1013.207207 -204.698875 
L 1012.729167 -209.15075 
L 1012.22687 -213.602625 
L 1011.703892 -218.0545 
L 1011.164098 -222.506375 
L 1010.611489 -226.958249 
L 1010.050045 -231.410124 
L 1009.483584 -235.861999 
L 1008.915647 -240.313874 
L 1008.349412 -244.765749 
L 1007.787649 -249.217624 
L 1007.232719 -253.669499 
L 1006.686615 -258.121373 
L 1006.151024 -262.573248 
L 1005.627424 -267.025123 
L 1005.117174 -271.476998 
L 1004.621603 -275.928873 
L 1004.142077 -280.380748 
L 1003.680018 -284.832623 
L 1003.236886 -289.284498 
L 1002.814113 -293.736372 
L 1002.412983 -298.188247 
L 1002.034475 -302.640122 
L 1001.679087 -307.091997 
L 1001.346642 -311.543872 
L 1001.036112 -315.995747 
L 1000.74548 -320.447622 
L 1000.471638 -324.899496 
L 1000.210374 -329.351371 
L 999.95642 -333.803246 
L 999.70359 -338.255121 
L 999.444997 -342.706996 
L 999.173346 -347.158871 
L 998.881269 -351.610746 
L 998.561714 -356.062621 
L 998.208334 -360.514495 
L 997.815874 -364.96637 
L 997.380518 -369.418245 
L 996.900184 -373.87012 
L 996.374744 -378.321995 
L 995.806158 -382.77387 
L 995.198517 -387.225745 
L 994.557992 -391.677619 
L 993.892688 -396.129494 
L 993.212425 -400.581369 
L 992.528448 -405.033244 
L 991.853089 -409.485119 
L 991.199403 -413.936994 
L 990.580776 -418.388869 
L 990.010559 -422.840743 
L 989.501707 -427.292618 
L 989.066451 -431.744493 
L 988.716025 -436.196368 
L 988.46042 -440.648243 
L 988.308196 -445.100118 
L 988.266342 -449.551993 
L 988.340166 -454.003868 
L 988.533229 -458.455742 
L 988.847307 -462.907617 
L 989.282375 -467.359492 
L 989.836612 -471.811367 
L 990.506429 -476.263242 
L 991.286508 -480.715117 
L 992.169873 -485.166992 
L 993.147972 -489.618866 
L 994.210799 -494.070741 
L 995.347049 -498.522616 
L 996.544299 -502.974491 
L 997.789235 -507.426366 
L 999.067914 -511.878241 
L 1000.366053 -516.330116 
L 1001.669339 -520.78199 
L 1002.963755 -525.233865 
L 1004.235904 -529.68574 
L 1005.473314 -534.137615 
L 1006.664718 -538.58949 
L 1007.800291 -543.041365 
L 1008.871829 -547.49324 
L 1009.872878 -551.945115 
L 1010.798785 -556.396989 
L 1011.646694 -560.848864 
L 1012.415473 -565.300739 
L 1013.105593 -569.752614 
L 1013.718949 -574.204489 
L 1014.258664 -578.656364 
L 1014.728853 -583.108239 
L 1015.134393 -587.560113 
L 1015.480684 -592.011988 
L 1015.77343 -596.463863 
L 1016.018437 -600.915738 
L 1017.981563 -600.915738 
L 1017.981563 -600.915738 
L 1018.22657 -596.463863 
L 1018.519316 -592.011988 
L 1018.865607 -587.560113 
L 1019.271147 -583.108239 
L 1019.741336 -578.656364 
L 1020.281051 -574.204489 
L 1020.894407 -569.752614 
L 1021.584527 -565.300739 
L 1022.353306 -560.848864 
L 1023.201215 -556.396989 
L 1024.127122 -551.945115 
L 1025.128171 -547.49324 
L 1026.199709 -543.041365 
L 1027.335282 -538.58949 
L 1028.526686 -534.137615 
L 1029.764096 -529.68574 
L 1031.036245 -525.233865 
L 1032.330661 -520.78199 
L 1033.633947 -516.330116 
L 1034.932086 -511.878241 
L 1036.210765 -507.426366 
L 1037.455701 -502.974491 
L 1038.652951 -498.522616 
L 1039.789201 -494.070741 
L 1040.852028 -489.618866 
L 1041.830127 -485.166992 
L 1042.713492 -480.715117 
L 1043.493571 -476.263242 
L 1044.163388 -471.811367 
L 1044.717625 -467.359492 
L 1045.152693 -462.907617 
L 1045.466771 -458.455742 
L 1045.659834 -454.003868 
L 1045.733658 -449.551993 
L 1045.691804 -445.100118 
L 1045.53958 -440.648243 
L 1045.283975 -436.196368 
L 1044.933549 -431.744493 
L 1044.498293 -427.292618 
L 1043.989441 -422.840743 
L 1043.419224 -418.388869 
L 1042.800597 -413.936994 
L 1042.146911 -409.485119 
L 1041.471552 -405.033244 
L 1040.787575 -400.581369 
L 1040.107312 -396.129494 
L 1039.442008 -391.677619 
L 1038.801483 -387.225745 
L 1038.193842 -382.77387 
L 1037.625256 -378.321995 
L 1037.099816 -373.87012 
L 1036.619482 -369.418245 
L 1036.184126 -364.96637 
L 1035.791666 -360.514495 
L 1035.438286 -356.062621 
L 1035.118731 -351.610746 
L 1034.826654 -347.158871 
L 1034.555003 -342.706996 
L 1034.29641 -338.255121 
L 1034.04358 -333.803246 
L 1033.789626 -329.351371 
L 1033.528362 -324.899496 
L 1033.25452 -320.447622 
L 1032.963888 -315.995747 
L 1032.653358 -311.543872 
L 1032.320913 -307.091997 
L 1031.965525 -302.640122 
L 1031.587017 -298.188247 
L 1031.185887 -293.736372 
L 1030.763114 -289.284498 
L 1030.319982 -284.832623 
L 1029.857923 -280.380748 
L 1029.378397 -275.928873 
L 1028.882826 -271.476998 
L 1028.372576 -267.025123 
L 1027.848976 -262.573248 
L 1027.313385 -258.121373 
L 1026.767281 -253.669499 
L 1026.212351 -249.217624 
L 1025.650588 -244.765749 
L 1025.084353 -240.313874 
L 1024.516416 -235.861999 
L 1023.949955 -231.410124 
L 1023.388511 -226.958249 
L 1022.835902 -222.506375 
L 1022.296108 -218.0545 
L 1021.77313 -213.602625 
L 1021.270833 -209.15075 
L 1020.792793 -204.698875 
L 1020.342157 -200.247 
L 1019.921522 -195.795125 
L 1019.532847 -191.343251 
L 1019.177399 -186.891376 
L 1018.85574 -182.439501 
L 1018.567743 -177.987626 
L 1018.312646 -173.535751 
L 1018.089125 -169.083876 
L 1017.895396 -164.632001 
L 1017.729315 -160.180126 
z
" style="stroke: #3f3f3f; stroke-width: 1.25"/>
    </defs>
    <g clip-path="url(#pfc80ac6fe7)">
     <use xlink:href="#mb403ed2943" x="0" y="720" style="fill: #3274a1; stroke: #3f3f3f; stroke-width: 1.25"/>
    </g>
   </g>
   <g id="PolyCollection_9">
    <defs>
     <path id="mc5bd4148c2" d="M 1129.615162 -196.127837 
L 1127.584838 -196.127837 
L 1127.370457 -200.01608 
L 1127.123771 -203.904324 
L 1126.842995 -207.792568 
L 1126.526947 -211.680811 
L 1126.175196 -215.569055 
L 1125.788201 -219.457299 
L 1125.367426 -223.345542 
L 1124.915424 -227.233786 
L 1124.435877 -231.12203 
L 1123.933592 -235.010273 
L 1123.414425 -238.898517 
L 1122.885155 -242.786761 
L 1122.353291 -246.675004 
L 1121.826814 -250.563248 
L 1121.313878 -254.451492 
L 1120.822461 -258.339735 
L 1120.36 -262.227979 
L 1119.933021 -266.116223 
L 1119.546777 -270.004466 
L 1119.204931 -273.89271 
L 1118.909289 -277.780954 
L 1118.659609 -281.669197 
L 1118.453492 -285.557441 
L 1118.286371 -289.445685 
L 1118.151601 -293.333929 
L 1118.040633 -297.222172 
L 1117.943288 -301.110416 
L 1117.848099 -304.99866 
L 1117.742711 -308.886903 
L 1117.614326 -312.775147 
L 1117.450161 -316.663391 
L 1117.23791 -320.551634 
L 1116.966182 -324.439878 
L 1116.62491 -328.328122 
L 1116.205701 -332.216365 
L 1115.702133 -336.104609 
L 1115.10998 -339.992853 
L 1114.427365 -343.881096 
L 1113.654839 -347.76934 
L 1112.795388 -351.657584 
L 1111.854361 -355.545827 
L 1110.839341 -359.434071 
L 1109.75994 -363.322315 
L 1108.627545 -367.210558 
L 1107.455011 -371.098802 
L 1106.256311 -374.987046 
L 1105.046159 -378.875289 
L 1103.839613 -382.763533 
L 1102.651671 -386.651777 
L 1101.496885 -390.540021 
L 1100.388992 -394.428264 
L 1099.340599 -398.316508 
L 1098.362916 -402.204752 
L 1097.465564 -406.092995 
L 1096.656461 -409.981239 
L 1095.941796 -413.869483 
L 1095.326074 -417.757726 
L 1094.812257 -421.64597 
L 1094.401951 -425.534214 
L 1094.09566 -429.422457 
L 1093.893058 -433.310701 
L 1093.793278 -437.198945 
L 1093.795171 -441.087188 
L 1093.897547 -444.975432 
L 1094.099338 -448.863676 
L 1094.399706 -452.751919 
L 1094.798062 -456.640163 
L 1095.294004 -460.528407 
L 1095.887182 -464.41665 
L 1096.577093 -468.304894 
L 1097.362831 -472.193138 
L 1098.242811 -476.081381 
L 1099.214494 -479.969625 
L 1100.27413 -483.857869 
L 1101.416554 -487.746112 
L 1102.635047 -491.634356 
L 1103.921285 -495.5226 
L 1105.265367 -499.410844 
L 1106.655953 -503.299087 
L 1108.080478 -507.187331 
L 1109.52545 -511.075575 
L 1110.976805 -514.963818 
L 1112.420308 -518.852062 
L 1113.841962 -522.740306 
L 1115.228416 -526.628549 
L 1116.567345 -530.516793 
L 1117.847773 -534.405037 
L 1119.060342 -538.29328 
L 1120.197499 -542.181524 
L 1121.253605 -546.069768 
L 1122.224961 -549.958011 
L 1123.109764 -553.846255 
L 1123.907984 -557.734499 
L 1124.6212 -561.622742 
L 1125.252383 -565.510986 
L 1125.805651 -569.39923 
L 1126.286024 -573.287473 
L 1126.699161 -577.175717 
L 1127.051123 -581.063961 
L 1130.148877 -581.063961 
L 1130.148877 -581.063961 
L 1130.500839 -577.175717 
L 1130.913976 -573.287473 
L 1131.394349 -569.39923 
L 1131.947617 -565.510986 
L 1132.5788 -561.622742 
L 1133.292016 -557.734499 
L 1134.090236 -553.846255 
L 1134.975039 -549.958011 
L 1135.946395 -546.069768 
L 1137.002501 -542.181524 
L 1138.139658 -538.29328 
L 1139.352227 -534.405037 
L 1140.632655 -530.516793 
L 1141.971584 -526.628549 
L 1143.358038 -522.740306 
L 1144.779692 -518.852062 
L 1146.223195 -514.963818 
L 1147.67455 -511.075575 
L 1149.119522 -507.187331 
L 1150.544047 -503.299087 
L 1151.934633 -499.410844 
L 1153.278715 -495.5226 
L 1154.564953 -491.634356 
L 1155.783446 -487.746112 
L 1156.92587 -483.857869 
L 1157.985506 -479.969625 
L 1158.957189 -476.081381 
L 1159.837169 -472.193138 
L 1160.622907 -468.304894 
L 1161.312818 -464.41665 
L 1161.905996 -460.528407 
L 1162.401938 -456.640163 
L 1162.800294 -452.751919 
L 1163.100662 -448.863676 
L 1163.302453 -444.975432 
L 1163.404829 -441.087188 
L 1163.406722 -437.198945 
L 1163.306942 -433.310701 
L 1163.10434 -429.422457 
L 1162.798049 -425.534214 
L 1162.387743 -421.64597 
L 1161.873926 -417.757726 
L 1161.258204 -413.869483 
L 1160.543539 -409.981239 
L 1159.734436 -406.092995 
L 1158.837084 -402.204752 
L 1157.859401 -398.316508 
L 1156.811008 -394.428264 
L 1155.703115 -390.540021 
L 1154.548329 -386.651777 
L 1153.360387 -382.763533 
L 1152.153841 -378.875289 
L 1150.943689 -374.987046 
L 1149.744989 -371.098802 
L 1148.572455 -367.210558 
L 1147.44006 -363.322315 
L 1146.360659 -359.434071 
L 1145.345639 -355.545827 
L 1144.404612 -351.657584 
L 1143.545161 -347.76934 
L 1142.772635 -343.881096 
L 1142.09002 -339.992853 
L 1141.497867 -336.104609 
L 1140.994299 -332.216365 
L 1140.57509 -328.328122 
L 1140.233818 -324.439878 
L 1139.96209 -320.551634 
L 1139.749839 -316.663391 
L 1139.585674 -312.775147 
L 1139.457289 -308.886903 
L 1139.351901 -304.99866 
L 1139.256712 -301.110416 
L 1139.159367 -297.222172 
L 1139.048399 -293.333929 
L 1138.913629 -289.445685 
L 1138.746508 -285.557441 
L 1138.540391 -281.669197 
L 1138.290711 -277.780954 
L 1137.995069 -273.89271 
L 1137.653223 -270.004466 
L 1137.266979 -266.116223 
L 1136.84 -262.227979 
L 1136.377539 -258.339735 
L 1135.886122 -254.451492 
L 1135.373186 -250.563248 
L 1134.846709 -246.675004 
L 1134.314845 -242.786761 
L 1133.785575 -238.898517 
L 1133.266408 -235.010273 
L 1132.764123 -231.12203 
L 1132.284576 -227.233786 
L 1131.832574 -223.345542 
L 1131.411799 -219.457299 
L 1131.024804 -215.569055 
L 1130.673053 -211.680811 
L 1130.357005 -207.792568 
L 1130.076229 -203.904324 
L 1129.829543 -200.01608 
L 1129.615162 -196.127837 
z
" style="stroke: #3f3f3f; stroke-width: 1.25"/>
    </defs>
    <g clip-path="url(#pfc80ac6fe7)">
     <use xlink:href="#mc5bd4148c2" x="0" y="720" style="fill: #3274a1; stroke: #3f3f3f; stroke-width: 1.25"/>
    </g>
   </g>
   <g id="PolyCollection_10">
    <defs>
     <path id="mf496f0d4fa" d="M 1240.984791 -155.5469 
L 1239.415209 -155.5469 
L 1239.240379 -159.802341 
L 1239.035234 -164.057782 
L 1238.796601 -168.313224 
L 1238.521443 -172.568665 
L 1238.206974 -176.824106 
L 1237.850795 -181.079548 
L 1237.451039 -185.334989 
L 1237.006515 -189.59043 
L 1236.516859 -193.845872 
L 1235.982669 -198.101313 
L 1235.405623 -202.356754 
L 1234.788582 -206.612196 
L 1234.135641 -210.867637 
L 1233.452155 -215.123078 
L 1232.744707 -219.37852 
L 1232.02102 -223.633961 
L 1231.289818 -227.889402 
L 1230.560622 -232.144844 
L 1229.843497 -236.400285 
L 1229.148739 -240.655726 
L 1228.486533 -244.911168 
L 1227.866573 -249.166609 
L 1227.297676 -253.42205 
L 1226.787393 -257.677491 
L 1226.34165 -261.932933 
L 1225.964426 -266.188374 
L 1225.657496 -270.443815 
L 1225.420246 -274.699257 
L 1225.249585 -278.954698 
L 1225.139949 -283.210139 
L 1225.083423 -287.465581 
L 1225.069953 -291.721022 
L 1225.087669 -295.976463 
L 1225.123288 -300.231905 
L 1225.162591 -304.487346 
L 1225.190951 -308.742787 
L 1225.19388 -312.998229 
L 1225.157587 -317.25367 
L 1225.069506 -321.509111 
L 1224.918769 -325.764553 
L 1224.696619 -330.019994 
L 1224.396724 -334.275435 
L 1224.015393 -338.530877 
L 1223.551681 -342.786318 
L 1223.007382 -347.041759 
L 1222.386917 -351.297201 
L 1221.697128 -355.552642 
L 1220.946981 -359.808083 
L 1220.147218 -364.063524 
L 1219.309958 -368.318966 
L 1218.448276 -372.574407 
L 1217.575789 -376.829848 
L 1216.706258 -381.08529 
L 1215.853224 -385.340731 
L 1215.029703 -389.596172 
L 1214.247928 -393.851614 
L 1213.519168 -398.107055 
L 1212.853602 -402.362496 
L 1212.260253 -406.617938 
L 1211.74698 -410.873379 
L 1211.320507 -415.12882 
L 1210.986478 -419.384262 
L 1210.749534 -423.639703 
L 1210.613386 -427.895144 
L 1210.580881 -432.150586 
L 1210.654055 -436.406027 
L 1210.834149 -440.661468 
L 1211.121604 -444.91691 
L 1211.516028 -449.172351 
L 1212.016137 -453.427792 
L 1212.619677 -457.683234 
L 1213.323344 -461.938675 
L 1214.122702 -466.194116 
L 1215.012123 -470.449557 
L 1215.98475 -474.704999 
L 1217.032502 -478.96044 
L 1218.146122 -483.215881 
L 1219.315275 -487.471323 
L 1220.528704 -491.726764 
L 1221.774423 -495.982205 
L 1223.039965 -500.237647 
L 1224.312652 -504.493088 
L 1225.579894 -508.748529 
L 1226.829481 -513.003971 
L 1228.049885 -517.259412 
L 1229.230518 -521.514853 
L 1230.361973 -525.770295 
L 1231.436207 -530.025736 
L 1232.446678 -534.281177 
L 1233.388417 -538.536619 
L 1234.258053 -542.79206 
L 1235.053768 -547.047501 
L 1235.775218 -551.302943 
L 1236.423395 -555.558384 
L 1237.00047 -559.813825 
L 1237.509604 -564.069267 
L 1237.954753 -568.324708 
L 1238.340463 -572.580149 
L 1238.671675 -576.83559 
L 1241.728325 -576.83559 
L 1241.728325 -576.83559 
L 1242.059537 -572.580149 
L 1242.445247 -568.324708 
L 1242.890396 -564.069267 
L 1243.39953 -559.813825 
L 1243.976605 -555.558384 
L 1244.624782 -551.302943 
L 1245.346232 -547.047501 
L 1246.141947 -542.79206 
L 1247.011583 -538.536619 
L 1247.953322 -534.281177 
L 1248.963793 -530.025736 
L 1250.038027 -525.770295 
L 1251.169482 -521.514853 
L 1252.350115 -517.259412 
L 1253.570519 -513.003971 
L 1254.820106 -508.748529 
L 1256.087348 -504.493088 
L 1257.360035 -500.237647 
L 1258.625577 -495.982205 
L 1259.871296 -491.726764 
L 1261.084725 -487.471323 
L 1262.253878 -483.215881 
L 1263.367498 -478.96044 
L 1264.41525 -474.704999 
L 1265.387877 -470.449557 
L 1266.277298 -466.194116 
L 1267.076656 -461.938675 
L 1267.780323 -457.683234 
L 1268.383863 -453.427792 
L 1268.883972 -449.172351 
L 1269.278396 -444.91691 
L 1269.565851 -440.661468 
L 1269.745945 -436.406027 
L 1269.819119 -432.150586 
L 1269.786614 -427.895144 
L 1269.650466 -423.639703 
L 1269.413522 -419.384262 
L 1269.079493 -415.12882 
L 1268.65302 -410.873379 
L 1268.139747 -406.617938 
L 1267.546398 -402.362496 
L 1266.880832 -398.107055 
L 1266.152072 -393.851614 
L 1265.370297 -389.596172 
L 1264.546776 -385.340731 
L 1263.693742 -381.08529 
L 1262.824211 -376.829848 
L 1261.951724 -372.574407 
L 1261.090042 -368.318966 
L 1260.252782 -364.063524 
L 1259.453019 -359.808083 
L 1258.702872 -355.552642 
L 1258.013083 -351.297201 
L 1257.392618 -347.041759 
L 1256.848319 -342.786318 
L 1256.384607 -338.530877 
L 1256.003276 -334.275435 
L 1255.703381 -330.019994 
L 1255.481231 -325.764553 
L 1255.330494 -321.509111 
L 1255.242413 -317.25367 
L 1255.20612 -312.998229 
L 1255.209049 -308.742787 
L 1255.237409 -304.487346 
L 1255.276712 -300.231905 
L 1255.312331 -295.976463 
L 1255.330047 -291.721022 
L 1255.316577 -287.465581 
L 1255.260051 -283.210139 
L 1255.150415 -278.954698 
L 1254.979754 -274.699257 
L 1254.742504 -270.443815 
L 1254.435574 -266.188374 
L 1254.05835 -261.932933 
L 1253.612607 -257.677491 
L 1253.102324 -253.42205 
L 1252.533427 -249.166609 
L 1251.913467 -244.911168 
L 1251.251261 -240.655726 
L 1250.556503 -236.400285 
L 1249.839378 -232.144844 
L 1249.110182 -227.889402 
L 1248.37898 -223.633961 
L 1247.655293 -219.37852 
L 1246.947845 -215.123078 
L 1246.264359 -210.867637 
L 1245.611418 -206.612196 
L 1244.994377 -202.356754 
L 1244.417331 -198.101313 
L 1243.883141 -193.845872 
L 1243.393485 -189.59043 
L 1242.948961 -185.334989 
L 1242.549205 -181.079548 
L 1242.193026 -176.824106 
L 1241.878557 -172.568665 
L 1241.603399 -168.313224 
L 1241.364766 -164.057782 
L 1241.159621 -159.802341 
L 1240.984791 -155.5469 
z
" style="stroke: #3f3f3f; stroke-width: 1.25"/>
    </defs>
    <g clip-path="url(#pfc80ac6fe7)">
     <use xlink:href="#mf496f0d4fa" x="0" y="720" style="fill: #3274a1; stroke: #3f3f3f; stroke-width: 1.25"/>
    </g>
   </g>
   <g id="matplotlib.axis_1">
    <g id="xtick_1">
     <g id="line2d_1">
      <defs>
       <path id="mc468eccfd2" d="M 0 0 
L 0 3.5 
" style="stroke: #000000; stroke-width: 0.8"/>
      </defs>
      <g>
       <use xlink:href="#mc468eccfd2" x="235.8" y="640.8" style="stroke: #000000; stroke-width: 0.8"/>
      </g>
     </g>
     <g id="text_1">
      <!-- 0 -->
      <g transform="translate(232.61875 655.398438) scale(0.1 -0.1)">
       <defs>
        <path id="DejaVuSans-30" d="M 2034 4250 
Q 1547 4250 1301 3770 
Q 1056 3291 1056 2328 
Q 1056 1369 1301 889 
Q 1547 409 2034 409 
Q 2525 409 2770 889 
Q 3016 1369 3016 2328 
Q 3016 3291 2770 3770 
Q 2525 4250 2034 4250 
z
M 2034 4750 
Q 2819 4750 3233 4129 
Q 3647 3509 3647 2328 
Q 3647 1150 3233 529 
Q 2819 -91 2034 -91 
Q 1250 -91 836 529 
Q 422 1150 422 2328 
Q 422 3509 836 4129 
Q 1250 4750 2034 4750 
z
" transform="scale(0.015625)"/>
       </defs>
       <use xlink:href="#DejaVuSans-30"/>
      </g>
     </g>
    </g>
    <g id="xtick_2">
     <g id="line2d_2">
      <g>
       <use xlink:href="#mc468eccfd2" x="347.4" y="640.8" style="stroke: #000000; stroke-width: 0.8"/>
      </g>
     </g>
     <g id="text_2">
      <!-- 1 -->
      <g transform="translate(344.21875 655.398438) scale(0.1 -0.1)">
       <defs>
        <path id="DejaVuSans-31" d="M 794 531 
L 1825 531 
L 1825 4091 
L 703 3866 
L 703 4441 
L 1819 4666 
L 2450 4666 
L 2450 531 
L 3481 531 
L 3481 0 
L 794 0 
L 794 531 
z
" transform="scale(0.015625)"/>
       </defs>
       <use xlink:href="#DejaVuSans-31"/>
      </g>
     </g>
    </g>
    <g id="xtick_3">
     <g id="line2d_3">
      <g>
       <use xlink:href="#mc468eccfd2" x="459" y="640.8" style="stroke: #000000; stroke-width: 0.8"/>
      </g>
     </g>
     <g id="text_3">
      <!-- 2 -->
      <g transform="translate(455.81875 655.398438) scale(0.1 -0.1)">
       <defs>
        <path id="DejaVuSans-32" d="M 1228 531 
L 3431 531 
L 3431 0 
L 469 0 
L 469 531 
Q 828 903 1448 1529 
Q 2069 2156 2228 2338 
Q 2531 2678 2651 2914 
Q 2772 3150 2772 3378 
Q 2772 3750 2511 3984 
Q 2250 4219 1831 4219 
Q 1534 4219 1204 4116 
Q 875 4013 500 3803 
L 500 4441 
Q 881 4594 1212 4672 
Q 1544 4750 1819 4750 
Q 2544 4750 2975 4387 
Q 3406 4025 3406 3419 
Q 3406 3131 3298 2873 
Q 3191 2616 2906 2266 
Q 2828 2175 2409 1742 
Q 1991 1309 1228 531 
z
" transform="scale(0.015625)"/>
       </defs>
       <use xlink:href="#DejaVuSans-32"/>
      </g>
     </g>
    </g>
    <g id="xtick_4">
     <g id="line2d_4">
      <g>
       <use xlink:href="#mc468eccfd2" x="570.6" y="640.8" style="stroke: #000000; stroke-width: 0.8"/>
      </g>
     </g>
     <g id="text_4">
      <!-- 3 -->
      <g transform="translate(567.41875 655.398438) scale(0.1 -0.1)">
       <defs>
        <path id="DejaVuSans-33" d="M 2597 2516 
Q 3050 2419 3304 2112 
Q 3559 1806 3559 1356 
Q 3559 666 3084 287 
Q 2609 -91 1734 -91 
Q 1441 -91 1130 -33 
Q 819 25 488 141 
L 488 750 
Q 750 597 1062 519 
Q 1375 441 1716 441 
Q 2309 441 2620 675 
Q 2931 909 2931 1356 
Q 2931 1769 2642 2001 
Q 2353 2234 1838 2234 
L 1294 2234 
L 1294 2753 
L 1863 2753 
Q 2328 2753 2575 2939 
Q 2822 3125 2822 3475 
Q 2822 3834 2567 4026 
Q 2313 4219 1838 4219 
Q 1578 4219 1281 4162 
Q 984 4106 628 3988 
L 628 4550 
Q 988 4650 1302 4700 
Q 1616 4750 1894 4750 
Q 2613 4750 3031 4423 
Q 3450 4097 3450 3541 
Q 3450 3153 3228 2886 
Q 3006 2619 2597 2516 
z
" transform="scale(0.015625)"/>
       </defs>
       <use xlink:href="#DejaVuSans-33"/>
      </g>
     </g>
    </g>
    <g id="xtick_5">
     <g id="line2d_5">
      <g>
       <use xlink:href="#mc468eccfd2" x="682.2" y="640.8" style="stroke: #000000; stroke-width: 0.8"/>
      </g>
     </g>
     <g id="text_5">
      <!-- 4 -->
      <g transform="translate(679.01875 655.398438) scale(0.1 -0.1)">
       <defs>
        <path id="DejaVuSans-34" d="M 2419 4116 
L 825 1625 
L 2419 1625 
L 2419 4116 
z
M 2253 4666 
L 3047 4666 
L 3047 1625 
L 3713 1625 
L 3713 1100 
L 3047 1100 
L 3047 0 
L 2419 0 
L 2419 1100 
L 313 1100 
L 313 1709 
L 2253 4666 
z
" transform="scale(0.015625)"/>
       </defs>
       <use xlink:href="#DejaVuSans-34"/>
      </g>
     </g>
    </g>
    <g id="xtick_6">
     <g id="line2d_6">
      <g>
       <use xlink:href="#mc468eccfd2" x="793.8" y="640.8" style="stroke: #000000; stroke-width: 0.8"/>
      </g>
     </g>
     <g id="text_6">
      <!-- 5 -->
      <g transform="translate(790.61875 655.398438) scale(0.1 -0.1)">
       <defs>
        <path id="DejaVuSans-35" d="M 691 4666 
L 3169 4666 
L 3169 4134 
L 1269 4134 
L 1269 2991 
Q 1406 3038 1543 3061 
Q 1681 3084 1819 3084 
Q 2600 3084 3056 2656 
Q 3513 2228 3513 1497 
Q 3513 744 3044 326 
Q 2575 -91 1722 -91 
Q 1428 -91 1123 -41 
Q 819 9 494 109 
L 494 744 
Q 775 591 1075 516 
Q 1375 441 1709 441 
Q 2250 441 2565 725 
Q 2881 1009 2881 1497 
Q 2881 1984 2565 2268 
Q 2250 2553 1709 2553 
Q 1456 2553 1204 2497 
Q 953 2441 691 2322 
L 691 4666 
z
" transform="scale(0.015625)"/>
       </defs>
       <use xlink:href="#DejaVuSans-35"/>
      </g>
     </g>
    </g>
    <g id="xtick_7">
     <g id="line2d_7">
      <g>
       <use xlink:href="#mc468eccfd2" x="905.4" y="640.8" style="stroke: #000000; stroke-width: 0.8"/>
      </g>
     </g>
     <g id="text_7">
      <!-- 6 -->
      <g transform="translate(902.21875 655.398438) scale(0.1 -0.1)">
       <defs>
        <path id="DejaVuSans-36" d="M 2113 2584 
Q 1688 2584 1439 2293 
Q 1191 2003 1191 1497 
Q 1191 994 1439 701 
Q 1688 409 2113 409 
Q 2538 409 2786 701 
Q 3034 994 3034 1497 
Q 3034 2003 2786 2293 
Q 2538 2584 2113 2584 
z
M 3366 4563 
L 3366 3988 
Q 3128 4100 2886 4159 
Q 2644 4219 2406 4219 
Q 1781 4219 1451 3797 
Q 1122 3375 1075 2522 
Q 1259 2794 1537 2939 
Q 1816 3084 2150 3084 
Q 2853 3084 3261 2657 
Q 3669 2231 3669 1497 
Q 3669 778 3244 343 
Q 2819 -91 2113 -91 
Q 1303 -91 875 529 
Q 447 1150 447 2328 
Q 447 3434 972 4092 
Q 1497 4750 2381 4750 
Q 2619 4750 2861 4703 
Q 3103 4656 3366 4563 
z
" transform="scale(0.015625)"/>
       </defs>
       <use xlink:href="#DejaVuSans-36"/>
      </g>
     </g>
    </g>
    <g id="xtick_8">
     <g id="line2d_8">
      <g>
       <use xlink:href="#mc468eccfd2" x="1017" y="640.8" style="stroke: #000000; stroke-width: 0.8"/>
      </g>
     </g>
     <g id="text_8">
      <!-- 7 -->
      <g transform="translate(1013.81875 655.398438) scale(0.1 -0.1)">
       <defs>
        <path id="DejaVuSans-37" d="M 525 4666 
L 3525 4666 
L 3525 4397 
L 1831 0 
L 1172 0 
L 2766 4134 
L 525 4134 
L 525 4666 
z
" transform="scale(0.015625)"/>
       </defs>
       <use xlink:href="#DejaVuSans-37"/>
      </g>
     </g>
    </g>
    <g id="xtick_9">
     <g id="line2d_9">
      <g>
       <use xlink:href="#mc468eccfd2" x="1128.6" y="640.8" style="stroke: #000000; stroke-width: 0.8"/>
      </g>
     </g>
     <g id="text_9">
      <!-- 8 -->
      <g transform="translate(1125.41875 655.398438) scale(0.1 -0.1)">
       <defs>
        <path id="DejaVuSans-38" d="M 2034 2216 
Q 1584 2216 1326 1975 
Q 1069 1734 1069 1313 
Q 1069 891 1326 650 
Q 1584 409 2034 409 
Q 2484 409 2743 651 
Q 3003 894 3003 1313 
Q 3003 1734 2745 1975 
Q 2488 2216 2034 2216 
z
M 1403 2484 
Q 997 2584 770 2862 
Q 544 3141 544 3541 
Q 544 4100 942 4425 
Q 1341 4750 2034 4750 
Q 2731 4750 3128 4425 
Q 3525 4100 3525 3541 
Q 3525 3141 3298 2862 
Q 3072 2584 2669 2484 
Q 3125 2378 3379 2068 
Q 3634 1759 3634 1313 
Q 3634 634 3220 271 
Q 2806 -91 2034 -91 
Q 1263 -91 848 271 
Q 434 634 434 1313 
Q 434 1759 690 2068 
Q 947 2378 1403 2484 
z
M 1172 3481 
Q 1172 3119 1398 2916 
Q 1625 2713 2034 2713 
Q 2441 2713 2670 2916 
Q 2900 3119 2900 3481 
Q 2900 3844 2670 4047 
Q 2441 4250 2034 4250 
Q 1625 4250 1398 4047 
Q 1172 3844 1172 3481 
z
" transform="scale(0.015625)"/>
       </defs>
       <use xlink:href="#DejaVuSans-38"/>
      </g>
     </g>
    </g>
    <g id="xtick_10">
     <g id="line2d_10">
      <g>
       <use xlink:href="#mc468eccfd2" x="1240.2" y="640.8" style="stroke: #000000; stroke-width: 0.8"/>
      </g>
     </g>
     <g id="text_10">
      <!-- 9 -->
      <g transform="translate(1237.01875 655.398438) scale(0.1 -0.1)">
       <defs>
        <path id="DejaVuSans-39" d="M 703 97 
L 703 672 
Q 941 559 1184 500 
Q 1428 441 1663 441 
Q 2288 441 2617 861 
Q 2947 1281 2994 2138 
Q 2813 1869 2534 1725 
Q 2256 1581 1919 1581 
Q 1219 1581 811 2004 
Q 403 2428 403 3163 
Q 403 3881 828 4315 
Q 1253 4750 1959 4750 
Q 2769 4750 3195 4129 
Q 3622 3509 3622 2328 
Q 3622 1225 3098 567 
Q 2575 -91 1691 -91 
Q 1453 -91 1209 -44 
Q 966 3 703 97 
z
M 1959 2075 
Q 2384 2075 2632 2365 
Q 2881 2656 2881 3163 
Q 2881 3666 2632 3958 
Q 2384 4250 1959 4250 
Q 1534 4250 1286 3958 
Q 1038 3666 1038 3163 
Q 1038 2656 1286 2365 
Q 1534 2075 1959 2075 
z
" transform="scale(0.015625)"/>
       </defs>
       <use xlink:href="#DejaVuSans-39"/>
      </g>
     </g>
    </g>
    <g id="text_11">
     <!-- iteration -->
     <g transform="translate(716.877344 669.076563) scale(0.1 -0.1)">
      <defs>
       <path id="DejaVuSans-69" d="M 603 3500 
L 1178 3500 
L 1178 0 
L 603 0 
L 603 3500 
z
M 603 4863 
L 1178 4863 
L 1178 4134 
L 603 4134 
L 603 4863 
z
" transform="scale(0.015625)"/>
       <path id="DejaVuSans-74" d="M 1172 4494 
L 1172 3500 
L 2356 3500 
L 2356 3053 
L 1172 3053 
L 1172 1153 
Q 1172 725 1289 603 
Q 1406 481 1766 481 
L 2356 481 
L 2356 0 
L 1766 0 
Q 1100 0 847 248 
Q 594 497 594 1153 
L 594 3053 
L 172 3053 
L 172 3500 
L 594 3500 
L 594 4494 
L 1172 4494 
z
" transform="scale(0.015625)"/>
       <path id="DejaVuSans-65" d="M 3597 1894 
L 3597 1613 
L 953 1613 
Q 991 1019 1311 708 
Q 1631 397 2203 397 
Q 2534 397 2845 478 
Q 3156 559 3463 722 
L 3463 178 
Q 3153 47 2828 -22 
Q 2503 -91 2169 -91 
Q 1331 -91 842 396 
Q 353 884 353 1716 
Q 353 2575 817 3079 
Q 1281 3584 2069 3584 
Q 2775 3584 3186 3129 
Q 3597 2675 3597 1894 
z
M 3022 2063 
Q 3016 2534 2758 2815 
Q 2500 3097 2075 3097 
Q 1594 3097 1305 2825 
Q 1016 2553 972 2059 
L 3022 2063 
z
" transform="scale(0.015625)"/>
       <path id="DejaVuSans-72" d="M 2631 2963 
Q 2534 3019 2420 3045 
Q 2306 3072 2169 3072 
Q 1681 3072 1420 2755 
Q 1159 2438 1159 1844 
L 1159 0 
L 581 0 
L 581 3500 
L 1159 3500 
L 1159 2956 
Q 1341 3275 1631 3429 
Q 1922 3584 2338 3584 
Q 2397 3584 2469 3576 
Q 2541 3569 2628 3553 
L 2631 2963 
z
" transform="scale(0.015625)"/>
       <path id="DejaVuSans-61" d="M 2194 1759 
Q 1497 1759 1228 1600 
Q 959 1441 959 1056 
Q 959 750 1161 570 
Q 1363 391 1709 391 
Q 2188 391 2477 730 
Q 2766 1069 2766 1631 
L 2766 1759 
L 2194 1759 
z
M 3341 1997 
L 3341 0 
L 2766 0 
L 2766 531 
Q 2569 213 2275 61 
Q 1981 -91 1556 -91 
Q 1019 -91 701 211 
Q 384 513 384 1019 
Q 384 1609 779 1909 
Q 1175 2209 1959 2209 
L 2766 2209 
L 2766 2266 
Q 2766 2663 2505 2880 
Q 2244 3097 1772 3097 
Q 1472 3097 1187 3025 
Q 903 2953 641 2809 
L 641 3341 
Q 956 3463 1253 3523 
Q 1550 3584 1831 3584 
Q 2591 3584 2966 3190 
Q 3341 2797 3341 1997 
z
" transform="scale(0.015625)"/>
       <path id="DejaVuSans-6f" d="M 1959 3097 
Q 1497 3097 1228 2736 
Q 959 2375 959 1747 
Q 959 1119 1226 758 
Q 1494 397 1959 397 
Q 2419 397 2687 759 
Q 2956 1122 2956 1747 
Q 2956 2369 2687 2733 
Q 2419 3097 1959 3097 
z
M 1959 3584 
Q 2709 3584 3137 3096 
Q 3566 2609 3566 1747 
Q 3566 888 3137 398 
Q 2709 -91 1959 -91 
Q 1206 -91 779 398 
Q 353 888 353 1747 
Q 353 2609 779 3096 
Q 1206 3584 1959 3584 
z
" transform="scale(0.015625)"/>
       <path id="DejaVuSans-6e" d="M 3513 2113 
L 3513 0 
L 2938 0 
L 2938 2094 
Q 2938 2591 2744 2837 
Q 2550 3084 2163 3084 
Q 1697 3084 1428 2787 
Q 1159 2491 1159 1978 
L 1159 0 
L 581 0 
L 581 3500 
L 1159 3500 
L 1159 2956 
Q 1366 3272 1645 3428 
Q 1925 3584 2291 3584 
Q 2894 3584 3203 3211 
Q 3513 2838 3513 2113 
z
" transform="scale(0.015625)"/>
      </defs>
      <use xlink:href="#DejaVuSans-69"/>
      <use xlink:href="#DejaVuSans-74" x="27.783203"/>
      <use xlink:href="#DejaVuSans-65" x="66.992188"/>
      <use xlink:href="#DejaVuSans-72" x="128.515625"/>
      <use xlink:href="#DejaVuSans-61" x="169.628906"/>
      <use xlink:href="#DejaVuSans-74" x="230.908203"/>
      <use xlink:href="#DejaVuSans-69" x="270.117188"/>
      <use xlink:href="#DejaVuSans-6f" x="297.900391"/>
      <use xlink:href="#DejaVuSans-6e" x="359.082031"/>
     </g>
    </g>
   </g>
   <g id="matplotlib.axis_2">
    <g id="ytick_1">
     <g id="line2d_11">
      <defs>
       <path id="m68120eb0c9" d="M 0 0 
L -3.5 0 
" style="stroke: #000000; stroke-width: 0.8"/>
      </defs>
      <g>
       <use xlink:href="#m68120eb0c9" x="180" y="580.72111" style="stroke: #000000; stroke-width: 0.8"/>
      </g>
     </g>
     <g id="text_12">
      <!-- 0.2 -->
      <g transform="translate(148.717187 584.520329) scale(0.1 -0.1)">
       <defs>
        <path id="DejaVuSans-2212" d="M 678 2272 
L 4684 2272 
L 4684 1741 
L 678 1741 
L 678 2272 
z
" transform="scale(0.015625)"/>
        <path id="DejaVuSans-2e" d="M 684 794 
L 1344 794 
L 1344 0 
L 684 0 
L 684 794 
z
" transform="scale(0.015625)"/>
       </defs>
       <use xlink:href="#DejaVuSans-2212"/>
       <use xlink:href="#DejaVuSans-30" x="83.789062"/>
       <use xlink:href="#DejaVuSans-2e" x="147.412109"/>
       <use xlink:href="#DejaVuSans-32" x="179.199219"/>
      </g>
     </g>
    </g>
    <g id="ytick_2">
     <g id="line2d_12">
      <g>
       <use xlink:href="#m68120eb0c9" x="180" y="516.327549" style="stroke: #000000; stroke-width: 0.8"/>
      </g>
     </g>
     <g id="text_13">
      <!-- 0.0 -->
      <g transform="translate(157.096875 520.126768) scale(0.1 -0.1)">
       <use xlink:href="#DejaVuSans-30"/>
       <use xlink:href="#DejaVuSans-2e" x="63.623047"/>
       <use xlink:href="#DejaVuSans-30" x="95.410156"/>
      </g>
     </g>
    </g>
    <g id="ytick_3">
     <g id="line2d_13">
      <g>
       <use xlink:href="#m68120eb0c9" x="180" y="451.933989" style="stroke: #000000; stroke-width: 0.8"/>
      </g>
     </g>
     <g id="text_14">
      <!-- 0.2 -->
      <g transform="translate(157.096875 455.733207) scale(0.1 -0.1)">
       <use xlink:href="#DejaVuSans-30"/>
       <use xlink:href="#DejaVuSans-2e" x="63.623047"/>
       <use xlink:href="#DejaVuSans-32" x="95.410156"/>
      </g>
     </g>
    </g>
    <g id="ytick_4">
     <g id="line2d_14">
      <g>
       <use xlink:href="#m68120eb0c9" x="180" y="387.540428" style="stroke: #000000; stroke-width: 0.8"/>
      </g>
     </g>
     <g id="text_15">
      <!-- 0.4 -->
      <g transform="translate(157.096875 391.339647) scale(0.1 -0.1)">
       <use xlink:href="#DejaVuSans-30"/>
       <use xlink:href="#DejaVuSans-2e" x="63.623047"/>
       <use xlink:href="#DejaVuSans-34" x="95.410156"/>
      </g>
     </g>
    </g>
    <g id="ytick_5">
     <g id="line2d_15">
      <g>
       <use xlink:href="#m68120eb0c9" x="180" y="323.146867" style="stroke: #000000; stroke-width: 0.8"/>
      </g>
     </g>
     <g id="text_16">
      <!-- 0.6 -->
      <g transform="translate(157.096875 326.946086) scale(0.1 -0.1)">
       <use xlink:href="#DejaVuSans-30"/>
       <use xlink:href="#DejaVuSans-2e" x="63.623047"/>
       <use xlink:href="#DejaVuSans-36" x="95.410156"/>
      </g>
     </g>
    </g>
    <g id="ytick_6">
     <g id="line2d_16">
      <g>
       <use xlink:href="#m68120eb0c9" x="180" y="258.753306" style="stroke: #000000; stroke-width: 0.8"/>
      </g>
     </g>
     <g id="text_17">
      <!-- 0.8 -->
      <g transform="translate(157.096875 262.552525) scale(0.1 -0.1)">
       <use xlink:href="#DejaVuSans-30"/>
       <use xlink:href="#DejaVuSans-2e" x="63.623047"/>
       <use xlink:href="#DejaVuSans-38" x="95.410156"/>
      </g>
     </g>
    </g>
    <g id="ytick_7">
     <g id="line2d_17">
      <g>
       <use xlink:href="#m68120eb0c9" x="180" y="194.359746" style="stroke: #000000; stroke-width: 0.8"/>
      </g>
     </g>
     <g id="text_18">
      <!-- 1.0 -->
      <g transform="translate(157.096875 198.158964) scale(0.1 -0.1)">
       <use xlink:href="#DejaVuSans-31"/>
       <use xlink:href="#DejaVuSans-2e" x="63.623047"/>
       <use xlink:href="#DejaVuSans-30" x="95.410156"/>
      </g>
     </g>
    </g>
    <g id="ytick_8">
     <g id="line2d_18">
      <g>
       <use xlink:href="#m68120eb0c9" x="180" y="129.966185" style="stroke: #000000; stroke-width: 0.8"/>
      </g>
     </g>
     <g id="text_19">
      <!-- 1.2 -->
      <g transform="translate(157.096875 133.765404) scale(0.1 -0.1)">
       <use xlink:href="#DejaVuSans-31"/>
       <use xlink:href="#DejaVuSans-2e" x="63.623047"/>
       <use xlink:href="#DejaVuSans-32" x="95.410156"/>
      </g>
     </g>
    </g>
    <g id="text_20">
     <!-- cosine similarity -->
     <g transform="translate(142.6375 404.307031) rotate(-90) scale(0.1 -0.1)">
      <defs>
       <path id="DejaVuSans-63" d="M 3122 3366 
L 3122 2828 
Q 2878 2963 2633 3030 
Q 2388 3097 2138 3097 
Q 1578 3097 1268 2742 
Q 959 2388 959 1747 
Q 959 1106 1268 751 
Q 1578 397 2138 397 
Q 2388 397 2633 464 
Q 2878 531 3122 666 
L 3122 134 
Q 2881 22 2623 -34 
Q 2366 -91 2075 -91 
Q 1284 -91 818 406 
Q 353 903 353 1747 
Q 353 2603 823 3093 
Q 1294 3584 2113 3584 
Q 2378 3584 2631 3529 
Q 2884 3475 3122 3366 
z
" transform="scale(0.015625)"/>
       <path id="DejaVuSans-73" d="M 2834 3397 
L 2834 2853 
Q 2591 2978 2328 3040 
Q 2066 3103 1784 3103 
Q 1356 3103 1142 2972 
Q 928 2841 928 2578 
Q 928 2378 1081 2264 
Q 1234 2150 1697 2047 
L 1894 2003 
Q 2506 1872 2764 1633 
Q 3022 1394 3022 966 
Q 3022 478 2636 193 
Q 2250 -91 1575 -91 
Q 1294 -91 989 -36 
Q 684 19 347 128 
L 347 722 
Q 666 556 975 473 
Q 1284 391 1588 391 
Q 1994 391 2212 530 
Q 2431 669 2431 922 
Q 2431 1156 2273 1281 
Q 2116 1406 1581 1522 
L 1381 1569 
Q 847 1681 609 1914 
Q 372 2147 372 2553 
Q 372 3047 722 3315 
Q 1072 3584 1716 3584 
Q 2034 3584 2315 3537 
Q 2597 3491 2834 3397 
z
" transform="scale(0.015625)"/>
       <path id="DejaVuSans-20" transform="scale(0.015625)"/>
       <path id="DejaVuSans-6d" d="M 3328 2828 
Q 3544 3216 3844 3400 
Q 4144 3584 4550 3584 
Q 5097 3584 5394 3201 
Q 5691 2819 5691 2113 
L 5691 0 
L 5113 0 
L 5113 2094 
Q 5113 2597 4934 2840 
Q 4756 3084 4391 3084 
Q 3944 3084 3684 2787 
Q 3425 2491 3425 1978 
L 3425 0 
L 2847 0 
L 2847 2094 
Q 2847 2600 2669 2842 
Q 2491 3084 2119 3084 
Q 1678 3084 1418 2786 
Q 1159 2488 1159 1978 
L 1159 0 
L 581 0 
L 581 3500 
L 1159 3500 
L 1159 2956 
Q 1356 3278 1631 3431 
Q 1906 3584 2284 3584 
Q 2666 3584 2933 3390 
Q 3200 3197 3328 2828 
z
" transform="scale(0.015625)"/>
       <path id="DejaVuSans-6c" d="M 603 4863 
L 1178 4863 
L 1178 0 
L 603 0 
L 603 4863 
z
" transform="scale(0.015625)"/>
       <path id="DejaVuSans-79" d="M 2059 -325 
Q 1816 -950 1584 -1140 
Q 1353 -1331 966 -1331 
L 506 -1331 
L 506 -850 
L 844 -850 
Q 1081 -850 1212 -737 
Q 1344 -625 1503 -206 
L 1606 56 
L 191 3500 
L 800 3500 
L 1894 763 
L 2988 3500 
L 3597 3500 
L 2059 -325 
z
" transform="scale(0.015625)"/>
      </defs>
      <use xlink:href="#DejaVuSans-63"/>
      <use xlink:href="#DejaVuSans-6f" x="54.980469"/>
      <use xlink:href="#DejaVuSans-73" x="116.162109"/>
      <use xlink:href="#DejaVuSans-69" x="168.261719"/>
      <use xlink:href="#DejaVuSans-6e" x="196.044922"/>
      <use xlink:href="#DejaVuSans-65" x="259.423828"/>
      <use xlink:href="#DejaVuSans-20" x="320.947266"/>
      <use xlink:href="#DejaVuSans-73" x="352.734375"/>
      <use xlink:href="#DejaVuSans-69" x="404.833984"/>
      <use xlink:href="#DejaVuSans-6d" x="432.617188"/>
      <use xlink:href="#DejaVuSans-69" x="530.029297"/>
      <use xlink:href="#DejaVuSans-6c" x="557.8125"/>
      <use xlink:href="#DejaVuSans-61" x="585.595703"/>
      <use xlink:href="#DejaVuSans-72" x="646.875"/>
      <use xlink:href="#DejaVuSans-69" x="687.988281"/>
      <use xlink:href="#DejaVuSans-74" x="715.771484"/>
      <use xlink:href="#DejaVuSans-79" x="754.980469"/>
     </g>
    </g>
   </g>
   <g id="line2d_19">
    <path d="M 235.8 497.919922 
L 235.8 233.089036 
" clip-path="url(#pfc80ac6fe7)" style="fill: none; stroke: #3f3f3f; stroke-width: 1.875; stroke-linecap: square"/>
   </g>
   <g id="line2d_20">
    <path d="M 235.8 384.915157 
L 235.8 309.43669 
" clip-path="url(#pfc80ac6fe7)" style="fill: none; stroke: #3f3f3f; stroke-width: 5.625; stroke-linecap: square"/>
   </g>
   <g id="line2d_21">
    <path d="M 235.8 343.35657 
" clip-path="url(#pfc80ac6fe7)" style="fill: none; stroke: #3f3f3f; stroke-width: 1.5; stroke-linecap: square"/>
    <defs>
     <path id="m051d40d8d2" d="M 2.34375 0 
L -2.34375 -0 
" style="stroke: #ffffff; stroke-width: 1.125"/>
    </defs>
    <g clip-path="url(#pfc80ac6fe7)">
     <use xlink:href="#m051d40d8d2" x="235.8" y="343.35657" style="fill: #ffffff; stroke: #ffffff; stroke-width: 1.125"/>
    </g>
   </g>
   <g id="line2d_22">
    <path d="M 347.4 482.462977 
L 347.4 219.202974 
" clip-path="url(#pfc80ac6fe7)" style="fill: none; stroke: #3f3f3f; stroke-width: 1.875; stroke-linecap: square"/>
   </g>
   <g id="line2d_23">
    <path d="M 347.4 370.309272 
L 347.4 278.922626 
" clip-path="url(#pfc80ac6fe7)" style="fill: none; stroke: #3f3f3f; stroke-width: 5.625; stroke-linecap: square"/>
   </g>
   <g id="line2d_24">
    <path d="M 347.4 331.267686 
" clip-path="url(#pfc80ac6fe7)" style="fill: none; stroke: #3f3f3f; stroke-width: 1.5; stroke-linecap: square"/>
    <g clip-path="url(#pfc80ac6fe7)">
     <use xlink:href="#m051d40d8d2" x="347.4" y="331.267686" style="fill: #ffffff; stroke: #ffffff; stroke-width: 1.125"/>
    </g>
   </g>
   <g id="line2d_25">
    <path d="M 459 447.467157 
L 459 226.434135 
" clip-path="url(#pfc80ac6fe7)" style="fill: none; stroke: #3f3f3f; stroke-width: 1.875; stroke-linecap: square"/>
   </g>
   <g id="line2d_26">
    <path d="M 459 375.471798 
L 459 283.567792 
" clip-path="url(#pfc80ac6fe7)" style="fill: none; stroke: #3f3f3f; stroke-width: 5.625; stroke-linecap: square"/>
   </g>
   <g id="line2d_27">
    <path d="M 459 306.940479 
" clip-path="url(#pfc80ac6fe7)" style="fill: none; stroke: #3f3f3f; stroke-width: 1.5; stroke-linecap: square"/>
    <g clip-path="url(#pfc80ac6fe7)">
     <use xlink:href="#m051d40d8d2" x="459" y="306.940479" style="fill: #ffffff; stroke: #ffffff; stroke-width: 1.125"/>
    </g>
   </g>
   <g id="line2d_28">
    <path d="M 570.6 461.519047 
L 570.6 228.268351 
" clip-path="url(#pfc80ac6fe7)" style="fill: none; stroke: #3f3f3f; stroke-width: 1.875; stroke-linecap: square"/>
   </g>
   <g id="line2d_29">
    <path d="M 570.6 367.800803 
L 570.6 298.909748 
" clip-path="url(#pfc80ac6fe7)" style="fill: none; stroke: #3f3f3f; stroke-width: 5.625; stroke-linecap: square"/>
   </g>
   <g id="line2d_30">
    <path d="M 570.6 332.47327 
" clip-path="url(#pfc80ac6fe7)" style="fill: none; stroke: #3f3f3f; stroke-width: 1.5; stroke-linecap: square"/>
    <g clip-path="url(#pfc80ac6fe7)">
     <use xlink:href="#m051d40d8d2" x="570.6" y="332.47327" style="fill: #ffffff; stroke: #ffffff; stroke-width: 1.125"/>
    </g>
   </g>
   <g id="line2d_31">
    <path d="M 682.2 426.278803 
L 682.2 235.714967 
" clip-path="url(#pfc80ac6fe7)" style="fill: none; stroke: #3f3f3f; stroke-width: 1.875; stroke-linecap: square"/>
   </g>
   <g id="line2d_32">
    <path d="M 682.2 345.307562 
L 682.2 290.300963 
" clip-path="url(#pfc80ac6fe7)" style="fill: none; stroke: #3f3f3f; stroke-width: 5.625; stroke-linecap: square"/>
   </g>
   <g id="line2d_33">
    <path d="M 682.2 316.201103 
" clip-path="url(#pfc80ac6fe7)" style="fill: none; stroke: #3f3f3f; stroke-width: 1.5; stroke-linecap: square"/>
    <g clip-path="url(#pfc80ac6fe7)">
     <use xlink:href="#m051d40d8d2" x="682.2" y="316.201103" style="fill: #ffffff; stroke: #ffffff; stroke-width: 1.125"/>
    </g>
   </g>
   <g id="line2d_34">
    <path d="M 793.8 523.578191 
L 793.8 203.621809 
" clip-path="url(#pfc80ac6fe7)" style="fill: none; stroke: #3f3f3f; stroke-width: 1.875; stroke-linecap: square"/>
   </g>
   <g id="line2d_35">
    <path d="M 793.8 397.650041 
L 793.8 278.771202 
" clip-path="url(#pfc80ac6fe7)" style="fill: none; stroke: #3f3f3f; stroke-width: 5.625; stroke-linecap: square"/>
   </g>
   <g id="line2d_36">
    <path d="M 793.8 321.56648 
" clip-path="url(#pfc80ac6fe7)" style="fill: none; stroke: #3f3f3f; stroke-width: 1.5; stroke-linecap: square"/>
    <g clip-path="url(#pfc80ac6fe7)">
     <use xlink:href="#m051d40d8d2" x="793.8" y="321.56648" style="fill: #ffffff; stroke: #ffffff; stroke-width: 1.125"/>
    </g>
   </g>
   <g id="line2d_37">
    <path d="M 905.4 441.446612 
L 905.4 225.707975 
" clip-path="url(#pfc80ac6fe7)" style="fill: none; stroke: #3f3f3f; stroke-width: 1.875; stroke-linecap: square"/>
   </g>
   <g id="line2d_38">
    <path d="M 905.4 410.521232 
L 905.4 252.393671 
" clip-path="url(#pfc80ac6fe7)" style="fill: none; stroke: #3f3f3f; stroke-width: 5.625; stroke-linecap: square"/>
   </g>
   <g id="line2d_39">
    <path d="M 905.4 321.837626 
" clip-path="url(#pfc80ac6fe7)" style="fill: none; stroke: #3f3f3f; stroke-width: 1.5; stroke-linecap: square"/>
    <g clip-path="url(#pfc80ac6fe7)">
     <use xlink:href="#m051d40d8d2" x="905.4" y="321.837626" style="fill: #ffffff; stroke: #ffffff; stroke-width: 1.125"/>
    </g>
   </g>
   <g id="line2d_40">
    <path d="M 1017 471.212212 
L 1017 207.691924 
" clip-path="url(#pfc80ac6fe7)" style="fill: none; stroke: #3f3f3f; stroke-width: 1.875; stroke-linecap: square"/>
   </g>
   <g id="line2d_41">
    <path d="M 1017 390.202868 
L 1017 262.266731 
" clip-path="url(#pfc80ac6fe7)" style="fill: none; stroke: #3f3f3f; stroke-width: 5.625; stroke-linecap: square"/>
   </g>
   <g id="line2d_42">
    <path d="M 1017 298.760295 
" clip-path="url(#pfc80ac6fe7)" style="fill: none; stroke: #3f3f3f; stroke-width: 1.5; stroke-linecap: square"/>
    <g clip-path="url(#pfc80ac6fe7)">
     <use xlink:href="#m051d40d8d2" x="1017" y="298.760295" style="fill: #ffffff; stroke: #ffffff; stroke-width: 1.125"/>
    </g>
   </g>
   <g id="line2d_43">
    <path d="M 1128.6 434.095091 
L 1128.6 221.361591 
" clip-path="url(#pfc80ac6fe7)" style="fill: none; stroke: #3f3f3f; stroke-width: 1.875; stroke-linecap: square"/>
   </g>
   <g id="line2d_44">
    <path d="M 1128.6 324.301996 
L 1128.6 248.183282 
" clip-path="url(#pfc80ac6fe7)" style="fill: none; stroke: #3f3f3f; stroke-width: 5.625; stroke-linecap: square"/>
   </g>
   <g id="line2d_45">
    <path d="M 1128.6 297.332588 
" clip-path="url(#pfc80ac6fe7)" style="fill: none; stroke: #3f3f3f; stroke-width: 1.5; stroke-linecap: square"/>
    <g clip-path="url(#pfc80ac6fe7)">
     <use xlink:href="#m051d40d8d2" x="1128.6" y="297.332588" style="fill: #ffffff; stroke: #ffffff; stroke-width: 1.125"/>
    </g>
   </g>
   <g id="line2d_46">
    <path d="M 1240.2 471.212212 
L 1240.2 236.405298 
" clip-path="url(#pfc80ac6fe7)" style="fill: none; stroke: #3f3f3f; stroke-width: 1.875; stroke-linecap: square"/>
   </g>
   <g id="line2d_47">
    <path d="M 1240.2 388.075215 
L 1240.2 267.958533 
" clip-path="url(#pfc80ac6fe7)" style="fill: none; stroke: #3f3f3f; stroke-width: 5.625; stroke-linecap: square"/>
   </g>
   <g id="line2d_48">
    <path d="M 1240.2 306.218445 
" clip-path="url(#pfc80ac6fe7)" style="fill: none; stroke: #3f3f3f; stroke-width: 1.5; stroke-linecap: square"/>
    <g clip-path="url(#pfc80ac6fe7)">
     <use xlink:href="#m051d40d8d2" x="1240.2" y="306.218445" style="fill: #ffffff; stroke: #ffffff; stroke-width: 1.125"/>
    </g>
   </g>
   <g id="patch_3">
    <path d="M 180 640.8 
L 180 86.4 
" style="fill: none; stroke: #000000; stroke-width: 0.8; stroke-linejoin: miter; stroke-linecap: square"/>
   </g>
   <g id="patch_4">
    <path d="M 1296 640.8 
L 1296 86.4 
" style="fill: none; stroke: #000000; stroke-width: 0.8; stroke-linejoin: miter; stroke-linecap: square"/>
   </g>
   <g id="patch_5">
    <path d="M 180 640.8 
L 1296 640.8 
" style="fill: none; stroke: #000000; stroke-width: 0.8; stroke-linejoin: miter; stroke-linecap: square"/>
   </g>
   <g id="patch_6">
    <path d="M 180 86.4 
L 1296 86.4 
" style="fill: none; stroke: #000000; stroke-width: 0.8; stroke-linejoin: miter; stroke-linecap: square"/>
   </g>
   <g id="text_21">
    <!-- cosine similarity of max_mem_5_fs_glit (progressive), by iteration -->
    <g transform="translate(540.728438 80.4) scale(0.12 -0.12)">
     <defs>
      <path id="DejaVuSans-66" d="M 2375 4863 
L 2375 4384 
L 1825 4384 
Q 1516 4384 1395 4259 
Q 1275 4134 1275 3809 
L 1275 3500 
L 2222 3500 
L 2222 3053 
L 1275 3053 
L 1275 0 
L 697 0 
L 697 3053 
L 147 3053 
L 147 3500 
L 697 3500 
L 697 3744 
Q 697 4328 969 4595 
Q 1241 4863 1831 4863 
L 2375 4863 
z
" transform="scale(0.015625)"/>
      <path id="DejaVuSans-78" d="M 3513 3500 
L 2247 1797 
L 3578 0 
L 2900 0 
L 1881 1375 
L 863 0 
L 184 0 
L 1544 1831 
L 300 3500 
L 978 3500 
L 1906 2253 
L 2834 3500 
L 3513 3500 
z
" transform="scale(0.015625)"/>
      <path id="DejaVuSans-5f" d="M 3263 -1063 
L 3263 -1509 
L -63 -1509 
L -63 -1063 
L 3263 -1063 
z
" transform="scale(0.015625)"/>
      <path id="DejaVuSans-67" d="M 2906 1791 
Q 2906 2416 2648 2759 
Q 2391 3103 1925 3103 
Q 1463 3103 1205 2759 
Q 947 2416 947 1791 
Q 947 1169 1205 825 
Q 1463 481 1925 481 
Q 2391 481 2648 825 
Q 2906 1169 2906 1791 
z
M 3481 434 
Q 3481 -459 3084 -895 
Q 2688 -1331 1869 -1331 
Q 1566 -1331 1297 -1286 
Q 1028 -1241 775 -1147 
L 775 -588 
Q 1028 -725 1275 -790 
Q 1522 -856 1778 -856 
Q 2344 -856 2625 -561 
Q 2906 -266 2906 331 
L 2906 616 
Q 2728 306 2450 153 
Q 2172 0 1784 0 
Q 1141 0 747 490 
Q 353 981 353 1791 
Q 353 2603 747 3093 
Q 1141 3584 1784 3584 
Q 2172 3584 2450 3431 
Q 2728 3278 2906 2969 
L 2906 3500 
L 3481 3500 
L 3481 434 
z
" transform="scale(0.015625)"/>
      <path id="DejaVuSans-28" d="M 1984 4856 
Q 1566 4138 1362 3434 
Q 1159 2731 1159 2009 
Q 1159 1288 1364 580 
Q 1569 -128 1984 -844 
L 1484 -844 
Q 1016 -109 783 600 
Q 550 1309 550 2009 
Q 550 2706 781 3412 
Q 1013 4119 1484 4856 
L 1984 4856 
z
" transform="scale(0.015625)"/>
      <path id="DejaVuSans-70" d="M 1159 525 
L 1159 -1331 
L 581 -1331 
L 581 3500 
L 1159 3500 
L 1159 2969 
Q 1341 3281 1617 3432 
Q 1894 3584 2278 3584 
Q 2916 3584 3314 3078 
Q 3713 2572 3713 1747 
Q 3713 922 3314 415 
Q 2916 -91 2278 -91 
Q 1894 -91 1617 61 
Q 1341 213 1159 525 
z
M 3116 1747 
Q 3116 2381 2855 2742 
Q 2594 3103 2138 3103 
Q 1681 3103 1420 2742 
Q 1159 2381 1159 1747 
Q 1159 1113 1420 752 
Q 1681 391 2138 391 
Q 2594 391 2855 752 
Q 3116 1113 3116 1747 
z
" transform="scale(0.015625)"/>
      <path id="DejaVuSans-76" d="M 191 3500 
L 800 3500 
L 1894 563 
L 2988 3500 
L 3597 3500 
L 2284 0 
L 1503 0 
L 191 3500 
z
" transform="scale(0.015625)"/>
      <path id="DejaVuSans-29" d="M 513 4856 
L 1013 4856 
Q 1481 4119 1714 3412 
Q 1947 2706 1947 2009 
Q 1947 1309 1714 600 
Q 1481 -109 1013 -844 
L 513 -844 
Q 928 -128 1133 580 
Q 1338 1288 1338 2009 
Q 1338 2731 1133 3434 
Q 928 4138 513 4856 
z
" transform="scale(0.015625)"/>
      <path id="DejaVuSans-2c" d="M 750 794 
L 1409 794 
L 1409 256 
L 897 -744 
L 494 -744 
L 750 256 
L 750 794 
z
" transform="scale(0.015625)"/>
      <path id="DejaVuSans-62" d="M 3116 1747 
Q 3116 2381 2855 2742 
Q 2594 3103 2138 3103 
Q 1681 3103 1420 2742 
Q 1159 2381 1159 1747 
Q 1159 1113 1420 752 
Q 1681 391 2138 391 
Q 2594 391 2855 752 
Q 3116 1113 3116 1747 
z
M 1159 2969 
Q 1341 3281 1617 3432 
Q 1894 3584 2278 3584 
Q 2916 3584 3314 3078 
Q 3713 2572 3713 1747 
Q 3713 922 3314 415 
Q 2916 -91 2278 -91 
Q 1894 -91 1617 61 
Q 1341 213 1159 525 
L 1159 0 
L 581 0 
L 581 4863 
L 1159 4863 
L 1159 2969 
z
" transform="scale(0.015625)"/>
     </defs>
     <use xlink:href="#DejaVuSans-63"/>
     <use xlink:href="#DejaVuSans-6f" x="54.980469"/>
     <use xlink:href="#DejaVuSans-73" x="116.162109"/>
     <use xlink:href="#DejaVuSans-69" x="168.261719"/>
     <use xlink:href="#DejaVuSans-6e" x="196.044922"/>
     <use xlink:href="#DejaVuSans-65" x="259.423828"/>
     <use xlink:href="#DejaVuSans-20" x="320.947266"/>
     <use xlink:href="#DejaVuSans-73" x="352.734375"/>
     <use xlink:href="#DejaVuSans-69" x="404.833984"/>
     <use xlink:href="#DejaVuSans-6d" x="432.617188"/>
     <use xlink:href="#DejaVuSans-69" x="530.029297"/>
     <use xlink:href="#DejaVuSans-6c" x="557.8125"/>
     <use xlink:href="#DejaVuSans-61" x="585.595703"/>
     <use xlink:href="#DejaVuSans-72" x="646.875"/>
     <use xlink:href="#DejaVuSans-69" x="687.988281"/>
     <use xlink:href="#DejaVuSans-74" x="715.771484"/>
     <use xlink:href="#DejaVuSans-79" x="754.980469"/>
     <use xlink:href="#DejaVuSans-20" x="814.160156"/>
     <use xlink:href="#DejaVuSans-6f" x="845.947266"/>
     <use xlink:href="#DejaVuSans-66" x="907.128906"/>
     <use xlink:href="#DejaVuSans-20" x="942.333984"/>
     <use xlink:href="#DejaVuSans-6d" x="974.121094"/>
     <use xlink:href="#DejaVuSans-61" x="1071.533203"/>
     <use xlink:href="#DejaVuSans-78" x="1132.8125"/>
     <use xlink:href="#DejaVuSans-5f" x="1191.992188"/>
     <use xlink:href="#DejaVuSans-6d" x="1241.992188"/>
     <use xlink:href="#DejaVuSans-65" x="1339.404297"/>
     <use xlink:href="#DejaVuSans-6d" x="1400.927734"/>
     <use xlink:href="#DejaVuSans-5f" x="1498.339844"/>
     <use xlink:href="#DejaVuSans-35" x="1548.339844"/>
     <use xlink:href="#DejaVuSans-5f" x="1611.962891"/>
     <use xlink:href="#DejaVuSans-66" x="1661.962891"/>
     <use xlink:href="#DejaVuSans-73" x="1697.167969"/>
     <use xlink:href="#DejaVuSans-5f" x="1749.267578"/>
     <use xlink:href="#DejaVuSans-67" x="1799.267578"/>
     <use xlink:href="#DejaVuSans-6c" x="1862.744141"/>
     <use xlink:href="#DejaVuSans-69" x="1890.527344"/>
     <use xlink:href="#DejaVuSans-74" x="1918.310547"/>
     <use xlink:href="#DejaVuSans-20" x="1957.519531"/>
     <use xlink:href="#DejaVuSans-28" x="1989.306641"/>
     <use xlink:href="#DejaVuSans-70" x="2028.320312"/>
     <use xlink:href="#DejaVuSans-72" x="2091.796875"/>
     <use xlink:href="#DejaVuSans-6f" x="2130.660156"/>
     <use xlink:href="#DejaVuSans-67" x="2191.841797"/>
     <use xlink:href="#DejaVuSans-72" x="2255.318359"/>
     <use xlink:href="#DejaVuSans-65" x="2294.181641"/>
     <use xlink:href="#DejaVuSans-73" x="2355.705078"/>
     <use xlink:href="#DejaVuSans-73" x="2407.804688"/>
     <use xlink:href="#DejaVuSans-69" x="2459.904297"/>
     <use xlink:href="#DejaVuSans-76" x="2487.6875"/>
     <use xlink:href="#DejaVuSans-65" x="2546.867188"/>
     <use xlink:href="#DejaVuSans-29" x="2608.390625"/>
     <use xlink:href="#DejaVuSans-2c" x="2647.404297"/>
     <use xlink:href="#DejaVuSans-20" x="2679.191406"/>
     <use xlink:href="#DejaVuSans-62" x="2710.978516"/>
     <use xlink:href="#DejaVuSans-79" x="2774.455078"/>
     <use xlink:href="#DejaVuSans-20" x="2833.634766"/>
     <use xlink:href="#DejaVuSans-69" x="2865.421875"/>
     <use xlink:href="#DejaVuSans-74" x="2893.205078"/>
     <use xlink:href="#DejaVuSans-65" x="2932.414062"/>
     <use xlink:href="#DejaVuSans-72" x="2993.9375"/>
     <use xlink:href="#DejaVuSans-61" x="3035.050781"/>
     <use xlink:href="#DejaVuSans-74" x="3096.330078"/>
     <use xlink:href="#DejaVuSans-69" x="3135.539062"/>
     <use xlink:href="#DejaVuSans-6f" x="3163.322266"/>
     <use xlink:href="#DejaVuSans-6e" x="3224.503906"/>
    </g>
   </g>
  </g>
 </g>
 <defs>
  <clipPath id="pfc80ac6fe7">
   <rect x="180" y="86.4" width="1116" height="554.4"/>
  </clipPath>
 </defs>
</svg>
