<?xml version="1.0" encoding="utf-8" standalone="no"?>
<!DOCTYPE svg PUBLIC "-//W3C//DTD SVG 1.1//EN"
  "http://www.w3.org/Graphics/SVG/1.1/DTD/svg11.dtd">
<svg xmlns:xlink="http://www.w3.org/1999/xlink" width="1440pt" height="720pt" viewBox="0 0 1440 720" xmlns="http://www.w3.org/2000/svg" version="1.1">
 <metadata>
  <rdf:RDF xmlns:dc="http://purl.org/dc/elements/1.1/" xmlns:cc="http://creativecommons.org/ns#" xmlns:rdf="http://www.w3.org/1999/02/22-rdf-syntax-ns#">
   <cc:Work>
    <dc:type rdf:resource="http://purl.org/dc/dcmitype/StillImage"/>
    <dc:date>2024-07-24T13:47:57.738452</dc:date>
    <dc:format>image/svg+xml</dc:format>
    <dc:creator>
     <cc:Agent>
      <dc:title>Matplotlib v3.8.0, https://matplotlib.org/</dc:title>
     </cc:Agent>
    </dc:creator>
   </cc:Work>
  </rdf:RDF>
 </metadata>
 <defs>
  <style type="text/css">*{stroke-linejoin: round; stroke-linecap: butt}</style>
 </defs>
 <g id="figure_1">
  <g id="patch_1">
   <path d="M 0 720 
L 1440 720 
L 1440 0 
L 0 0 
z
" style="fill: #ffffff"/>
  </g>
  <g id="axes_1">
   <g id="patch_2">
    <path d="M 180 640.8 
L 1296 640.8 
L 1296 86.4 
L 180 86.4 
z
" style="fill: #ffffff"/>
   </g>
   <g id="PolyCollection_1">
    <defs>
     <path id="mfb5ef3feb1" d="M 235.857081 -112.4503 
L 235.742919 -112.4503 
L 235.706533 -117.436348 
L 235.652619 -122.422396 
L 235.575431 -127.408443 
L 235.468092 -132.394491 
L 235.322357 -137.380539 
L 235.128363 -142.366587 
L 234.87458 -147.352634 
L 234.548286 -152.338682 
L 234.136878 -157.32473 
L 233.630187 -162.310777 
L 233.023546 -167.296825 
L 232.321006 -172.282873 
L 231.537656 -177.26892 
L 230.69999 -182.254968 
L 229.843482 -187.241016 
L 229.007236 -192.227063 
L 228.226476 -197.213111 
L 227.524549 -202.199159 
L 226.906665 -207.185207 
L 226.357487 -212.171254 
L 225.843841 -217.157302 
L 225.322338 -222.14335 
L 224.750029 -227.129397 
L 224.095042 -232.115445 
L 223.343828 -237.101493 
L 222.502588 -242.08754 
L 221.592318 -247.073588 
L 220.639084 -252.059636 
L 219.662814 -257.045683 
L 218.668357 -262.031731 
L 217.641649 -267.017779 
L 216.551961 -272.003827 
L 215.359232 -276.989874 
L 214.024257 -281.975922 
L 212.519235 -286.96197 
L 210.83674 -291.948017 
L 208.995805 -296.934065 
L 207.044119 -301.920113 
L 205.055387 -306.90616 
L 203.121225 -311.892208 
L 201.337963 -316.878256 
L 199.790427 -321.864303 
L 198.536418 -326.850351 
L 197.596252 -331.836399 
L 196.950834 -336.822447 
L 196.549279 -341.808494 
L 196.324228 -346.794542 
L 196.210514 -351.78059 
L 196.161969 -356.766637 
L 196.161895 -361.752685 
L 196.224841 -366.738733 
L 196.39005 -371.72478 
L 196.709259 -376.710828 
L 197.232882 -381.696876 
L 197.998456 -386.682923 
L 199.023909 -391.668971 
L 200.306158 -396.655019 
L 201.823772 -401.641066 
L 203.541513 -406.627114 
L 205.41489 -411.613162 
L 207.39392 -416.59921 
L 209.42641 -421.585257 
L 211.461543 -426.571305 
L 213.454146 -431.557353 
L 215.369094 -436.5434 
L 217.184599 -441.529448 
L 218.893068 -446.515496 
L 220.498983 -451.501543 
L 222.014321 -456.487591 
L 223.452926 -461.473639 
L 224.825484 -466.459686 
L 226.136413 -471.445734 
L 227.383145 -476.431782 
L 228.557524 -481.41783 
L 229.648473 -486.403877 
L 230.644897 -491.389925 
L 231.537943 -496.375973 
L 232.322134 -501.36202 
L 232.995354 -506.348068 
L 233.558077 -511.334116 
L 234.012466 -516.320163 
L 234.361932 -521.306211 
L 234.611503 -526.292259 
L 234.768945 -531.278306 
L 234.84616 -536.264354 
L 234.860106 -541.250402 
L 234.832528 -546.23645 
L 234.788079 -551.222497 
L 234.751041 -556.208545 
L 234.74142 -561.194593 
L 234.771573 -566.18064 
L 234.844459 -571.166688 
L 234.954086 -576.152736 
L 235.08798 -581.138783 
L 235.230838 -586.124831 
L 235.36821 -591.110879 
L 235.489229 -596.096926 
L 235.587848 -601.082974 
L 235.662646 -606.069022 
L 235.937354 -606.069022 
L 235.937354 -606.069022 
L 236.012152 -601.082974 
L 236.110771 -596.096926 
L 236.23179 -591.110879 
L 236.369162 -586.124831 
L 236.51202 -581.138783 
L 236.645914 -576.152736 
L 236.755541 -571.166688 
L 236.828427 -566.18064 
L 236.85858 -561.194593 
L 236.848959 -556.208545 
L 236.811921 -551.222497 
L 236.767472 -546.23645 
L 236.739894 -541.250402 
L 236.75384 -536.264354 
L 236.831055 -531.278306 
L 236.988497 -526.292259 
L 237.238068 -521.306211 
L 237.587534 -516.320163 
L 238.041923 -511.334116 
L 238.604646 -506.348068 
L 239.277866 -501.36202 
L 240.062057 -496.375973 
L 240.955103 -491.389925 
L 241.951527 -486.403877 
L 243.042476 -481.41783 
L 244.216855 -476.431782 
L 245.463587 -471.445734 
L 246.774516 -466.459686 
L 248.147074 -461.473639 
L 249.585679 -456.487591 
L 251.101017 -451.501543 
L 252.706932 -446.515496 
L 254.415401 -441.529448 
L 256.230906 -436.5434 
L 258.145854 -431.557353 
L 260.138457 -426.571305 
L 262.17359 -421.585257 
L 264.20608 -416.59921 
L 266.18511 -411.613162 
L 268.058487 -406.627114 
L 269.776228 -401.641066 
L 271.293842 -396.655019 
L 272.576091 -391.668971 
L 273.601544 -386.682923 
L 274.367118 -381.696876 
L 274.890741 -376.710828 
L 275.20995 -371.72478 
L 275.375159 -366.738733 
L 275.438105 -361.752685 
L 275.438031 -356.766637 
L 275.389486 -351.78059 
L 275.275772 -346.794542 
L 275.050721 -341.808494 
L 274.649166 -336.822447 
L 274.003748 -331.836399 
L 273.063582 -326.850351 
L 271.809573 -321.864303 
L 270.262037 -316.878256 
L 268.478775 -311.892208 
L 266.544613 -306.90616 
L 264.555881 -301.920113 
L 262.604195 -296.934065 
L 260.76326 -291.948017 
L 259.080765 -286.96197 
L 257.575743 -281.975922 
L 256.240768 -276.989874 
L 255.048039 -272.003827 
L 253.958351 -267.017779 
L 252.931643 -262.031731 
L 251.937186 -257.045683 
L 250.960916 -252.059636 
L 250.007682 -247.073588 
L 249.097412 -242.08754 
L 248.256172 -237.101493 
L 247.504958 -232.115445 
L 246.849971 -227.129397 
L 246.277662 -222.14335 
L 245.756159 -217.157302 
L 245.242513 -212.171254 
L 244.693335 -207.185207 
L 244.075451 -202.199159 
L 243.373524 -197.213111 
L 242.592764 -192.227063 
L 241.756518 -187.241016 
L 240.90001 -182.254968 
L 240.062344 -177.26892 
L 239.278994 -172.282873 
L 238.576454 -167.296825 
L 237.969813 -162.310777 
L 237.463122 -157.32473 
L 237.051714 -152.338682 
L 236.72542 -147.352634 
L 236.471637 -142.366587 
L 236.277643 -137.380539 
L 236.131908 -132.394491 
L 236.024569 -127.408443 
L 235.947381 -122.422396 
L 235.893467 -117.436348 
L 235.857081 -112.4503 
z
" style="stroke: #3f3f3f; stroke-width: 1.25"/>
    </defs>
    <g clip-path="url(#pab02ec74ba)">
     <use xlink:href="#mfb5ef3feb1" x="0" y="720" style="fill: #3274a1; stroke: #3f3f3f; stroke-width: 1.25"/>
    </g>
   </g>
   <g id="PolyCollection_2">
    <defs>
     <path id="m414854337c" d="M 347.508251 -104.756196 
L 347.291749 -104.756196 
L 347.220856 -109.843507 
L 347.113862 -114.930818 
L 346.957666 -120.018129 
L 346.73626 -125.105441 
L 346.430436 -130.192752 
L 346.017654 -135.280063 
L 345.472414 -140.367374 
L 344.767668 -145.454685 
L 343.877783 -150.541996 
L 342.783223 -155.629307 
L 341.476491 -160.716619 
L 339.968064 -165.80393 
L 338.290462 -170.891241 
L 336.498534 -175.978552 
L 334.664687 -181.065863 
L 332.869088 -186.153174 
L 331.186428 -191.240486 
L 329.672132 -196.327797 
L 328.351488 -201.415108 
L 327.214752 -206.502419 
L 326.219968 -211.58973 
L 325.303307 -216.677041 
L 324.394688 -221.764352 
L 323.434947 -226.851664 
L 322.390247 -231.938975 
L 321.260061 -237.026286 
L 320.076773 -242.113597 
L 318.89725 -247.200908 
L 317.788801 -252.288219 
L 316.813321 -257.375531 
L 316.013433 -262.462842 
L 315.403586 -267.550153 
L 314.967515 -272.637464 
L 314.662081 -277.724775 
L 314.426515 -282.812086 
L 314.19553 -287.899397 
L 313.914297 -292.986709 
L 313.552756 -298.07402 
L 313.116186 -303.161331 
L 312.648938 -308.248642 
L 312.229211 -313.335953 
L 311.954857 -318.423264 
L 311.922904 -323.510575 
L 312.207759 -328.597887 
L 312.843846 -333.685198 
L 313.817421 -338.772509 
L 315.069631 -343.85982 
L 316.509677 -348.947131 
L 318.034217 -354.034442 
L 319.547787 -359.121754 
L 320.979208 -364.209065 
L 322.290533 -369.296376 
L 323.477373 -374.383687 
L 324.561774 -379.470998 
L 325.580593 -384.558309 
L 326.573016 -389.64562 
L 327.570441 -394.732932 
L 328.590704 -399.820243 
L 329.636921 -404.907554 
L 330.69993 -409.994865 
L 331.762669 -415.082176 
L 332.804949 -420.169487 
L 333.807716 -425.256799 
L 334.756487 -430.34411 
L 335.643908 -435.431421 
L 336.471321 -440.518732 
L 337.248964 -445.606043 
L 337.994388 -450.693354 
L 338.728995 -455.780665 
L 339.473205 -460.867977 
L 340.241368 -465.955288 
L 341.037834 -471.042599 
L 341.855331 -476.12991 
L 342.676119 -481.217221 
L 343.475535 -486.304532 
L 344.226833 -491.391844 
L 344.905966 -496.479155 
L 345.495184 -501.566466 
L 345.98484 -506.653777 
L 346.373411 -511.741088 
L 346.666201 -516.828399 
L 346.873401 -521.91571 
L 347.008124 -527.003022 
L 347.084795 -532.090333 
L 347.118025 -537.177644 
L 347.121876 -542.264955 
L 347.109303 -547.352266 
L 347.09161 -552.439577 
L 347.077861 -557.526888 
L 347.074325 -562.6142 
L 347.084141 -567.701511 
L 347.107388 -572.788822 
L 347.141604 -577.876133 
L 347.18271 -582.963444 
L 347.22608 -588.050755 
L 347.26753 -593.138067 
L 347.303995 -598.225378 
L 347.3338 -603.312689 
L 347.356569 -608.4 
L 347.443431 -608.4 
L 347.443431 -608.4 
L 347.4662 -603.312689 
L 347.496005 -598.225378 
L 347.53247 -593.138067 
L 347.57392 -588.050755 
L 347.61729 -582.963444 
L 347.658396 -577.876133 
L 347.692612 -572.788822 
L 347.715859 -567.701511 
L 347.725675 -562.6142 
L 347.722139 -557.526888 
L 347.70839 -552.439577 
L 347.690697 -547.352266 
L 347.678124 -542.264955 
L 347.681975 -537.177644 
L 347.715205 -532.090333 
L 347.791876 -527.003022 
L 347.926599 -521.91571 
L 348.133799 -516.828399 
L 348.426589 -511.741088 
L 348.81516 -506.653777 
L 349.304816 -501.566466 
L 349.894034 -496.479155 
L 350.573167 -491.391844 
L 351.324465 -486.304532 
L 352.123881 -481.217221 
L 352.944669 -476.12991 
L 353.762166 -471.042599 
L 354.558632 -465.955288 
L 355.326795 -460.867977 
L 356.071005 -455.780665 
L 356.805612 -450.693354 
L 357.551036 -445.606043 
L 358.328679 -440.518732 
L 359.156092 -435.431421 
L 360.043513 -430.34411 
L 360.992284 -425.256799 
L 361.995051 -420.169487 
L 363.037331 -415.082176 
L 364.10007 -409.994865 
L 365.163079 -404.907554 
L 366.209296 -399.820243 
L 367.229559 -394.732932 
L 368.226984 -389.64562 
L 369.219407 -384.558309 
L 370.238226 -379.470998 
L 371.322627 -374.383687 
L 372.509467 -369.296376 
L 373.820792 -364.209065 
L 375.252213 -359.121754 
L 376.765783 -354.034442 
L 378.290323 -348.947131 
L 379.730369 -343.85982 
L 380.982579 -338.772509 
L 381.956154 -333.685198 
L 382.592241 -328.597887 
L 382.877096 -323.510575 
L 382.845143 -318.423264 
L 382.570789 -313.335953 
L 382.151062 -308.248642 
L 381.683814 -303.161331 
L 381.247244 -298.07402 
L 380.885703 -292.986709 
L 380.60447 -287.899397 
L 380.373485 -282.812086 
L 380.137919 -277.724775 
L 379.832485 -272.637464 
L 379.396414 -267.550153 
L 378.786567 -262.462842 
L 377.986679 -257.375531 
L 377.011199 -252.288219 
L 375.90275 -247.200908 
L 374.723227 -242.113597 
L 373.539939 -237.026286 
L 372.409753 -231.938975 
L 371.365053 -226.851664 
L 370.405312 -221.764352 
L 369.496693 -216.677041 
L 368.580032 -211.58973 
L 367.585248 -206.502419 
L 366.448512 -201.415108 
L 365.127868 -196.327797 
L 363.613572 -191.240486 
L 361.930912 -186.153174 
L 360.135313 -181.065863 
L 358.301466 -175.978552 
L 356.509538 -170.891241 
L 354.831936 -165.80393 
L 353.323509 -160.716619 
L 352.016777 -155.629307 
L 350.922217 -150.541996 
L 350.032332 -145.454685 
L 349.327586 -140.367374 
L 348.782346 -135.280063 
L 348.369564 -130.192752 
L 348.06374 -125.105441 
L 347.842334 -120.018129 
L 347.686138 -114.930818 
L 347.579144 -109.843507 
L 347.508251 -104.756196 
z
" style="stroke: #3f3f3f; stroke-width: 1.25"/>
    </defs>
    <g clip-path="url(#pab02ec74ba)">
     <use xlink:href="#m414854337c" x="0" y="720" style="fill: #3274a1; stroke: #3f3f3f; stroke-width: 1.25"/>
    </g>
   </g>
   <g id="PolyCollection_3">
    <defs>
     <path id="mfe69a0687e" d="M 459.187451 -104.4 
L 458.812549 -104.4 
L 458.701955 -108.766989 
L 458.540659 -113.133977 
L 458.313186 -117.500966 
L 458.002694 -121.867955 
L 457.592059 -126.234944 
L 457.065188 -130.601932 
L 456.408388 -134.968921 
L 455.611556 -139.33591 
L 454.669026 -143.702899 
L 453.579984 -148.069887 
L 452.348515 -152.436876 
L 450.983458 -156.803865 
L 449.498252 -161.170853 
L 447.910949 -165.537842 
L 446.244341 -169.904831 
L 444.525976 -174.27182 
L 442.787694 -178.638808 
L 441.064261 -183.005797 
L 439.390909 -187.372786 
L 437.799839 -191.739775 
L 436.316196 -196.106763 
L 434.954295 -200.473752 
L 433.715024 -204.840741 
L 432.585249 -209.207729 
L 431.539665 -213.574718 
L 430.545083 -217.941707 
L 429.566558 -222.308696 
L 428.574366 -226.675684 
L 427.550568 -231.042673 
L 426.493899 -235.409662 
L 425.421947 -239.776651 
L 424.370037 -244.143639 
L 423.386793 -248.510628 
L 422.526975 -252.877617 
L 421.84271 -257.244605 
L 421.374663 -261.611594 
L 421.144747 -265.978583 
L 421.151858 -270.345572 
L 421.371544 -274.71256 
L 421.759859 -279.079549 
L 422.26079 -283.446538 
L 422.815909 -287.813527 
L 423.374444 -292.180515 
L 423.90179 -296.547504 
L 424.384835 -300.914493 
L 424.833104 -305.281481 
L 425.275588 -309.64847 
L 425.754027 -314.015459 
L 426.314105 -318.382448 
L 426.996352 -322.749436 
L 427.828501 -327.116425 
L 428.820628 -331.483414 
L 429.963712 -335.850403 
L 431.231549 -340.217391 
L 432.585305 -344.58438 
L 433.979568 -348.951369 
L 435.368674 -353.318357 
L 436.712197 -357.685346 
L 437.978852 -362.052335 
L 439.148512 -366.419324 
L 440.212422 -370.786312 
L 441.172039 -375.153301 
L 442.037018 -379.52029 
L 442.822862 -383.887279 
L 443.548565 -388.254267 
L 444.234416 -392.621256 
L 444.899936 -396.988245 
L 445.561923 -401.355233 
L 446.232636 -405.722222 
L 446.918304 -410.089211 
L 447.618314 -414.4562 
L 448.325414 -418.823188 
L 449.027168 -423.190177 
L 449.708577 -427.557166 
L 450.355415 -431.924155 
L 450.957553 -436.291143 
L 451.511431 -440.658132 
L 452.021011 -445.025121 
L 452.496904 -449.392109 
L 452.95389 -453.759098 
L 453.407463 -458.126087 
L 453.870292 -462.493076 
L 454.349474 -466.860064 
L 454.845203 -471.227053 
L 455.351026 -475.594042 
L 455.855484 -479.961031 
L 456.344563 -484.328019 
L 456.804317 -488.695008 
L 457.223046 -493.061997 
L 457.592689 -497.428985 
L 457.909309 -501.795974 
L 458.172821 -506.162963 
L 458.386206 -510.529952 
L 458.554528 -514.89694 
L 458.683966 -519.263929 
L 458.781029 -523.630918 
L 458.851984 -527.997907 
L 458.902514 -532.364895 
L 458.937527 -536.731884 
L 459.062473 -536.731884 
L 459.062473 -536.731884 
L 459.097486 -532.364895 
L 459.148016 -527.997907 
L 459.218971 -523.630918 
L 459.316034 -519.263929 
L 459.445472 -514.89694 
L 459.613794 -510.529952 
L 459.827179 -506.162963 
L 460.090691 -501.795974 
L 460.407311 -497.428985 
L 460.776954 -493.061997 
L 461.195683 -488.695008 
L 461.655437 -484.328019 
L 462.144516 -479.961031 
L 462.648974 -475.594042 
L 463.154797 -471.227053 
L 463.650526 -466.860064 
L 464.129708 -462.493076 
L 464.592537 -458.126087 
L 465.04611 -453.759098 
L 465.503096 -449.392109 
L 465.978989 -445.025121 
L 466.488569 -440.658132 
L 467.042447 -436.291143 
L 467.644585 -431.924155 
L 468.291423 -427.557166 
L 468.972832 -423.190177 
L 469.674586 -418.823188 
L 470.381686 -414.4562 
L 471.081696 -410.089211 
L 471.767364 -405.722222 
L 472.438077 -401.355233 
L 473.100064 -396.988245 
L 473.765584 -392.621256 
L 474.451435 -388.254267 
L 475.177138 -383.887279 
L 475.962982 -379.52029 
L 476.827961 -375.153301 
L 477.787578 -370.786312 
L 478.851488 -366.419324 
L 480.021148 -362.052335 
L 481.287803 -357.685346 
L 482.631326 -353.318357 
L 484.020432 -348.951369 
L 485.414695 -344.58438 
L 486.768451 -340.217391 
L 488.036288 -335.850403 
L 489.179372 -331.483414 
L 490.171499 -327.116425 
L 491.003648 -322.749436 
L 491.685895 -318.382448 
L 492.245973 -314.015459 
L 492.724412 -309.64847 
L 493.166896 -305.281481 
L 493.615165 -300.914493 
L 494.09821 -296.547504 
L 494.625556 -292.180515 
L 495.184091 -287.813527 
L 495.73921 -283.446538 
L 496.240141 -279.079549 
L 496.628456 -274.71256 
L 496.848142 -270.345572 
L 496.855253 -265.978583 
L 496.625337 -261.611594 
L 496.15729 -257.244605 
L 495.473025 -252.877617 
L 494.613207 -248.510628 
L 493.629963 -244.143639 
L 492.578053 -239.776651 
L 491.506101 -235.409662 
L 490.449432 -231.042673 
L 489.425634 -226.675684 
L 488.433442 -222.308696 
L 487.454917 -217.941707 
L 486.460335 -213.574718 
L 485.414751 -209.207729 
L 484.284976 -204.840741 
L 483.045705 -200.473752 
L 481.683804 -196.106763 
L 480.200161 -191.739775 
L 478.609091 -187.372786 
L 476.935739 -183.005797 
L 475.212306 -178.638808 
L 473.474024 -174.27182 
L 471.755659 -169.904831 
L 470.089051 -165.537842 
L 468.501748 -161.170853 
L 467.016542 -156.803865 
L 465.651485 -152.436876 
L 464.420016 -148.069887 
L 463.330974 -143.702899 
L 462.388444 -139.33591 
L 461.591612 -134.968921 
L 460.934812 -130.601932 
L 460.407941 -126.234944 
L 459.997306 -121.867955 
L 459.686814 -117.500966 
L 459.459341 -113.133977 
L 459.298045 -108.766989 
L 459.187451 -104.4 
z
" style="stroke: #3f3f3f; stroke-width: 1.25"/>
    </defs>
    <g clip-path="url(#pab02ec74ba)">
     <use xlink:href="#mfe69a0687e" x="0" y="720" style="fill: #3274a1; stroke: #3f3f3f; stroke-width: 1.25"/>
    </g>
   </g>
   <g id="PolyCollection_4">
    <defs>
     <path id="mac22870731" d="M 570.811283 -104.712597 
L 570.388717 -104.712597 
L 570.2651 -108.901662 
L 570.084127 -113.090728 
L 569.827261 -117.279793 
L 569.473601 -121.468858 
L 569.000983 -125.657923 
L 568.387542 -129.846989 
L 567.613593 -134.036054 
L 566.663613 -138.225119 
L 565.528022 -142.414184 
L 564.204518 -146.603249 
L 562.698763 -150.792315 
L 561.024383 -154.98138 
L 559.20238 -159.170445 
L 557.260147 -163.35951 
L 555.230311 -167.548576 
L 553.149523 -171.737641 
L 551.05718 -175.926706 
L 548.993959 -180.115771 
L 546.999978 -184.304836 
L 545.112535 -188.493902 
L 543.363548 -192.682967 
L 541.777079 -196.872032 
L 540.367464 -201.061097 
L 539.138552 -205.250163 
L 538.084356 -209.439228 
L 537.191069 -213.628293 
L 536.440048 -217.817358 
L 535.811125 -222.006423 
L 535.285578 -226.195489 
L 534.848235 -230.384554 
L 534.488518 -234.573619 
L 534.200491 -238.762684 
L 533.982244 -242.95175 
L 533.834927 -247.140815 
L 533.761657 -251.32988 
L 533.766366 -255.518945 
L 533.852478 -259.70801 
L 534.021336 -263.897076 
L 534.270461 -268.086141 
L 534.591947 -272.275206 
L 534.971544 -276.464271 
L 535.389036 -280.653336 
L 535.820329 -284.842402 
L 536.241255 -289.031467 
L 536.632559 -293.220532 
L 536.985054 -297.409597 
L 537.303659 -301.598663 
L 537.609188 -305.787728 
L 537.937145 -309.976793 
L 538.33351 -314.165858 
L 538.848166 -318.354923 
L 539.527195 -322.543989 
L 540.405456 -326.733054 
L 541.500785 -330.922119 
L 542.810708 -335.111184 
L 544.31208 -339.30025 
L 545.963455 -343.489315 
L 547.709662 -347.67838 
L 549.487739 -351.867445 
L 551.233389 -356.05651 
L 552.887119 -360.245576 
L 554.39943 -364.434641 
L 555.734577 -368.623706 
L 556.872674 -372.812771 
L 557.810095 -377.001837 
L 558.558314 -381.190902 
L 559.141448 -385.379967 
L 559.59284 -389.569032 
L 559.951039 -393.758097 
L 560.255547 -397.947163 
L 560.542699 -402.136228 
L 560.842057 -406.325293 
L 561.173746 -410.514358 
L 561.547079 -414.703424 
L 561.960739 -418.892489 
L 562.404541 -423.081554 
L 562.862549 -427.270619 
L 563.316981 -431.459684 
L 563.752196 -435.64875 
L 564.157973 -439.837815 
L 564.531439 -444.02688 
L 564.87731 -448.215945 
L 565.206456 -452.40501 
L 565.533192 -456.594076 
L 565.871941 -460.783141 
L 566.234002 -464.972206 
L 566.62512 -469.161271 
L 567.044297 -473.350337 
L 567.483996 -477.539402 
L 567.931585 -481.728467 
L 568.371605 -485.917532 
L 568.78833 -490.106597 
L 569.168097 -494.295663 
L 569.500983 -498.484728 
L 569.781638 -502.673793 
L 570.009257 -506.862858 
L 570.186876 -511.051924 
L 570.320264 -515.240989 
L 570.416687 -519.430054 
L 570.783313 -519.430054 
L 570.783313 -519.430054 
L 570.879736 -515.240989 
L 571.013124 -511.051924 
L 571.190743 -506.862858 
L 571.418362 -502.673793 
L 571.699017 -498.484728 
L 572.031903 -494.295663 
L 572.41167 -490.106597 
L 572.828395 -485.917532 
L 573.268415 -481.728467 
L 573.716004 -477.539402 
L 574.155703 -473.350337 
L 574.57488 -469.161271 
L 574.965998 -464.972206 
L 575.328059 -460.783141 
L 575.666808 -456.594076 
L 575.993544 -452.40501 
L 576.32269 -448.215945 
L 576.668561 -444.02688 
L 577.042027 -439.837815 
L 577.447804 -435.64875 
L 577.883019 -431.459684 
L 578.337451 -427.270619 
L 578.795459 -423.081554 
L 579.239261 -418.892489 
L 579.652921 -414.703424 
L 580.026254 -410.514358 
L 580.357943 -406.325293 
L 580.657301 -402.136228 
L 580.944453 -397.947163 
L 581.248961 -393.758097 
L 581.60716 -389.569032 
L 582.058552 -385.379967 
L 582.641686 -381.190902 
L 583.389905 -377.001837 
L 584.327326 -372.812771 
L 585.465423 -368.623706 
L 586.80057 -364.434641 
L 588.312881 -360.245576 
L 589.966611 -356.05651 
L 591.712261 -351.867445 
L 593.490338 -347.67838 
L 595.236545 -343.489315 
L 596.88792 -339.30025 
L 598.389292 -335.111184 
L 599.699215 -330.922119 
L 600.794544 -326.733054 
L 601.672805 -322.543989 
L 602.351834 -318.354923 
L 602.86649 -314.165858 
L 603.262855 -309.976793 
L 603.590812 -305.787728 
L 603.896341 -301.598663 
L 604.214946 -297.409597 
L 604.567441 -293.220532 
L 604.958745 -289.031467 
L 605.379671 -284.842402 
L 605.810964 -280.653336 
L 606.228456 -276.464271 
L 606.608053 -272.275206 
L 606.929539 -268.086141 
L 607.178664 -263.897076 
L 607.347522 -259.70801 
L 607.433634 -255.518945 
L 607.438343 -251.32988 
L 607.365073 -247.140815 
L 607.217756 -242.95175 
L 606.999509 -238.762684 
L 606.711482 -234.573619 
L 606.351765 -230.384554 
L 605.914422 -226.195489 
L 605.388875 -222.006423 
L 604.759952 -217.817358 
L 604.008931 -213.628293 
L 603.115644 -209.439228 
L 602.061448 -205.250163 
L 600.832536 -201.061097 
L 599.422921 -196.872032 
L 597.836452 -192.682967 
L 596.087465 -188.493902 
L 594.200022 -184.304836 
L 592.206041 -180.115771 
L 590.14282 -175.926706 
L 588.050477 -171.737641 
L 585.969689 -167.548576 
L 583.939853 -163.35951 
L 581.99762 -159.170445 
L 580.175617 -154.98138 
L 578.501237 -150.792315 
L 576.995482 -146.603249 
L 575.671978 -142.414184 
L 574.536387 -138.225119 
L 573.586407 -134.036054 
L 572.812458 -129.846989 
L 572.199017 -125.657923 
L 571.726399 -121.468858 
L 571.372739 -117.279793 
L 571.115873 -113.090728 
L 570.9349 -108.901662 
L 570.811283 -104.712597 
z
" style="stroke: #3f3f3f; stroke-width: 1.25"/>
    </defs>
    <g clip-path="url(#pab02ec74ba)">
     <use xlink:href="#mac22870731" x="0" y="720" style="fill: #3274a1; stroke: #3f3f3f; stroke-width: 1.25"/>
    </g>
   </g>
   <g id="PolyCollection_5">
    <defs>
     <path id="m15cf654add" d="M 682.43132 -105.06404 
L 681.96868 -105.06404 
L 681.832918 -109.246006 
L 681.634418 -113.427971 
L 681.353317 -117.609936 
L 680.967522 -121.791902 
L 680.453998 -125.973867 
L 679.790495 -130.155833 
L 678.957527 -134.337798 
L 677.940319 -138.519763 
L 676.73044 -142.701729 
L 675.326834 -146.883694 
L 673.736133 -151.065659 
L 671.972269 -155.247625 
L 670.055563 -159.42959 
L 668.011581 -163.611555 
L 665.870033 -167.793521 
L 663.663892 -171.975486 
L 661.428751 -176.157451 
L 659.202237 -180.339417 
L 657.023246 -184.521382 
L 654.930759 -188.703348 
L 652.962154 -192.885313 
L 651.151129 -197.067278 
L 649.525578 -201.249244 
L 648.105801 -205.431209 
L 646.90343 -209.613174 
L 645.921229 -213.79514 
L 645.153726 -217.977105 
L 644.588426 -222.15907 
L 644.20732 -226.341036 
L 643.988448 -230.523001 
L 643.907448 -234.704966 
L 643.93917 -238.886932 
L 644.059444 -243.068897 
L 644.247017 -247.250863 
L 644.485427 -251.432828 
L 644.764418 -255.614793 
L 645.080357 -259.796759 
L 645.435258 -263.978724 
L 645.834352 -268.160689 
L 646.282565 -272.342655 
L 646.780773 -276.52462 
L 647.322923 -280.706585 
L 647.895074 -284.888551 
L 648.477001 -289.070516 
L 649.04631 -293.252482 
L 649.584237 -297.434447 
L 650.081697 -301.616412 
L 650.543928 -305.798378 
L 650.992319 -309.980343 
L 651.462722 -314.162308 
L 652.000428 -318.344274 
L 652.652872 -322.526239 
L 653.461646 -326.708204 
L 654.455478 -330.89017 
L 655.6455 -335.072135 
L 657.023436 -339.2541 
L 658.562678 -343.436066 
L 660.221638 -347.618031 
L 661.948482 -351.799997 
L 663.686352 -355.981962 
L 665.378395 -360.163927 
L 666.972177 -364.345893 
L 668.423324 -368.527858 
L 669.698376 -372.709823 
L 670.776831 -376.891789 
L 671.652318 -381.073754 
L 672.332725 -385.255719 
L 672.839112 -389.437685 
L 673.203264 -393.61965 
L 673.463988 -397.801615 
L 673.662459 -401.983581 
L 673.83725 -406.165546 
L 674.019837 -410.347512 
L 674.231372 -414.529477 
L 674.481356 -418.711442 
L 674.768444 -422.893408 
L 675.083139 -427.075373 
L 675.411752 -431.257338 
L 675.740685 -435.439304 
L 676.060092 -439.621269 
L 676.366172 -443.803234 
L 676.661711 -447.9852 
L 676.954918 -452.167165 
L 677.257008 -456.349131 
L 677.579175 -460.531096 
L 677.929708 -464.713061 
L 678.311856 -468.895027 
L 678.722834 -473.076992 
L 679.154098 -477.258957 
L 679.592691 -481.440923 
L 680.023332 -485.622888 
L 680.430741 -489.804853 
L 680.801758 -493.986819 
L 681.126866 -498.168784 
L 681.400953 -502.350749 
L 681.623277 -506.532715 
L 681.796798 -510.71468 
L 681.927124 -514.896646 
L 682.021328 -519.078611 
L 682.378672 -519.078611 
L 682.378672 -519.078611 
L 682.472876 -514.896646 
L 682.603202 -510.71468 
L 682.776723 -506.532715 
L 682.999047 -502.350749 
L 683.273134 -498.168784 
L 683.598242 -493.986819 
L 683.969259 -489.804853 
L 684.376668 -485.622888 
L 684.807309 -481.440923 
L 685.245902 -477.258957 
L 685.677166 -473.076992 
L 686.088144 -468.895027 
L 686.470292 -464.713061 
L 686.820825 -460.531096 
L 687.142992 -456.349131 
L 687.445082 -452.167165 
L 687.738289 -447.9852 
L 688.033828 -443.803234 
L 688.339908 -439.621269 
L 688.659315 -435.439304 
L 688.988248 -431.257338 
L 689.316861 -427.075373 
L 689.631556 -422.893408 
L 689.918644 -418.711442 
L 690.168628 -414.529477 
L 690.380163 -410.347512 
L 690.56275 -406.165546 
L 690.737541 -401.983581 
L 690.936012 -397.801615 
L 691.196736 -393.61965 
L 691.560888 -389.437685 
L 692.067275 -385.255719 
L 692.747682 -381.073754 
L 693.623169 -376.891789 
L 694.701624 -372.709823 
L 695.976676 -368.527858 
L 697.427823 -364.345893 
L 699.021605 -360.163927 
L 700.713648 -355.981962 
L 702.451518 -351.799997 
L 704.178362 -347.618031 
L 705.837322 -343.436066 
L 707.376564 -339.2541 
L 708.7545 -335.072135 
L 709.944522 -330.89017 
L 710.938354 -326.708204 
L 711.747128 -322.526239 
L 712.399572 -318.344274 
L 712.937278 -314.162308 
L 713.407681 -309.980343 
L 713.856072 -305.798378 
L 714.318303 -301.616412 
L 714.815763 -297.434447 
L 715.35369 -293.252482 
L 715.922999 -289.070516 
L 716.504926 -284.888551 
L 717.077077 -280.706585 
L 717.619227 -276.52462 
L 718.117435 -272.342655 
L 718.565648 -268.160689 
L 718.964742 -263.978724 
L 719.319643 -259.796759 
L 719.635582 -255.614793 
L 719.914573 -251.432828 
L 720.152983 -247.250863 
L 720.340556 -243.068897 
L 720.46083 -238.886932 
L 720.492552 -234.704966 
L 720.411552 -230.523001 
L 720.19268 -226.341036 
L 719.811574 -222.15907 
L 719.246274 -217.977105 
L 718.478771 -213.79514 
L 717.49657 -209.613174 
L 716.294199 -205.431209 
L 714.874422 -201.249244 
L 713.248871 -197.067278 
L 711.437846 -192.885313 
L 709.469241 -188.703348 
L 707.376754 -184.521382 
L 705.197763 -180.339417 
L 702.971249 -176.157451 
L 700.736108 -171.975486 
L 698.529967 -167.793521 
L 696.388419 -163.611555 
L 694.344437 -159.42959 
L 692.427731 -155.247625 
L 690.663867 -151.065659 
L 689.073166 -146.883694 
L 687.66956 -142.701729 
L 686.459681 -138.519763 
L 685.442473 -134.337798 
L 684.609505 -130.155833 
L 683.946002 -125.973867 
L 683.432478 -121.791902 
L 683.046683 -117.609936 
L 682.765582 -113.427971 
L 682.567082 -109.246006 
L 682.43132 -105.06404 
z
" style="stroke: #3f3f3f; stroke-width: 1.25"/>
    </defs>
    <g clip-path="url(#pab02ec74ba)">
     <use xlink:href="#m15cf654add" x="0" y="720" style="fill: #3274a1; stroke: #3f3f3f; stroke-width: 1.25"/>
    </g>
   </g>
   <g id="PolyCollection_6">
    <defs>
     <path id="mb6a6d712e3" d="M 794.073478 -106.406918 
L 793.526522 -106.406918 
L 793.366244 -110.523447 
L 793.133414 -114.639975 
L 792.80667 -118.756504 
L 792.36338 -122.873033 
L 791.781454 -126.989561 
L 791.041473 -131.10609 
L 790.128775 -135.222618 
L 789.035076 -139.339147 
L 787.759281 -143.455675 
L 786.307259 -147.572204 
L 784.690632 -151.688733 
L 782.924907 -155.805261 
L 781.027431 -159.92179 
L 779.015789 -164.038318 
L 776.907103 -168.154847 
L 774.718467 -172.271375 
L 772.468421 -176.387904 
L 770.178999 -180.504433 
L 767.877712 -184.620961 
L 765.59873 -188.73749 
L 763.382717 -192.854018 
L 761.27508 -196.970547 
L 759.322784 -201.087075 
L 757.570259 -205.203604 
L 756.05511 -209.320133 
L 754.804344 -213.436661 
L 753.83168 -217.55319 
L 753.136228 -221.669718 
L 752.702623 -225.786247 
L 752.502561 -229.902775 
L 752.497694 -234.019304 
L 752.643766 -238.135833 
L 752.89581 -242.252361 
L 753.213914 -246.36889 
L 753.568735 -250.485418 
L 753.945649 -254.601947 
L 754.346364 -258.718475 
L 754.78721 -262.835004 
L 755.293987 -266.951533 
L 755.894221 -271.068061 
L 756.60847 -275.18459 
L 757.442858 -279.301118 
L 758.384861 -283.417647 
L 759.40372 -287.534175 
L 760.455665 -291.650704 
L 761.492843 -295.767233 
L 762.473803 -299.883761 
L 763.372867 -304.00029 
L 764.186027 -308.116818 
L 764.931895 -312.233347 
L 765.647592 -316.349875 
L 766.380768 -320.466404 
L 767.179848 -324.582933 
L 768.084835 -328.699461 
L 769.120601 -332.81599 
L 770.293688 -336.932518 
L 771.592685 -341.049047 
L 772.991381 -345.165575 
L 774.453515 -349.282104 
L 775.937904 -353.398633 
L 777.403037 -357.515161 
L 778.810631 -361.63169 
L 780.128036 -365.748218 
L 781.329633 -369.864747 
L 782.397505 -373.981275 
L 783.321625 -378.097804 
L 784.099781 -382.214333 
L 784.737307 -386.330861 
L 785.246601 -390.44739 
L 785.646294 -394.563918 
L 785.959915 -398.680447 
L 786.213937 -402.796975 
L 786.435248 -406.913504 
L 786.648279 -411.030033 
L 786.87226 -415.146561 
L 787.119158 -419.26309 
L 787.392831 -423.379618 
L 787.689672 -427.496147 
L 788.000705 -431.612675 
L 788.314673 -435.729204 
L 788.6214 -439.845733 
L 788.914614 -443.962261 
L 789.193545 -448.07879 
L 789.462945 -452.195318 
L 789.731605 -456.311847 
L 790.009808 -460.428375 
L 790.306434 -464.544904 
L 790.626459 -468.661433 
L 790.969454 -472.777961 
L 791.329377 -476.89449 
L 791.695623 -481.011018 
L 792.054968 -485.127547 
L 792.393897 -489.244075 
L 792.700752 -493.360604 
L 792.967278 -497.477133 
L 793.189348 -501.593661 
L 793.366867 -505.71019 
L 793.503045 -509.826718 
L 793.603321 -513.943247 
L 793.996679 -513.943247 
L 793.996679 -513.943247 
L 794.096955 -509.826718 
L 794.233133 -505.71019 
L 794.410652 -501.593661 
L 794.632722 -497.477133 
L 794.899248 -493.360604 
L 795.206103 -489.244075 
L 795.545032 -485.127547 
L 795.904377 -481.011018 
L 796.270623 -476.89449 
L 796.630546 -472.777961 
L 796.973541 -468.661433 
L 797.293566 -464.544904 
L 797.590192 -460.428375 
L 797.868395 -456.311847 
L 798.137055 -452.195318 
L 798.406455 -448.07879 
L 798.685386 -443.962261 
L 798.9786 -439.845733 
L 799.285327 -435.729204 
L 799.599295 -431.612675 
L 799.910328 -427.496147 
L 800.207169 -423.379618 
L 800.480842 -419.26309 
L 800.72774 -415.146561 
L 800.951721 -411.030033 
L 801.164752 -406.913504 
L 801.386063 -402.796975 
L 801.640085 -398.680447 
L 801.953706 -394.563918 
L 802.353399 -390.44739 
L 802.862693 -386.330861 
L 803.500219 -382.214333 
L 804.278375 -378.097804 
L 805.202495 -373.981275 
L 806.270367 -369.864747 
L 807.471964 -365.748218 
L 808.789369 -361.63169 
L 810.196963 -357.515161 
L 811.662096 -353.398633 
L 813.146485 -349.282104 
L 814.608619 -345.165575 
L 816.007315 -341.049047 
L 817.306312 -336.932518 
L 818.479399 -332.81599 
L 819.515165 -328.699461 
L 820.420152 -324.582933 
L 821.219232 -320.466404 
L 821.952408 -316.349875 
L 822.668105 -312.233347 
L 823.413973 -308.116818 
L 824.227133 -304.00029 
L 825.126197 -299.883761 
L 826.107157 -295.767233 
L 827.144335 -291.650704 
L 828.19628 -287.534175 
L 829.215139 -283.417647 
L 830.157142 -279.301118 
L 830.99153 -275.18459 
L 831.705779 -271.068061 
L 832.306013 -266.951533 
L 832.81279 -262.835004 
L 833.253636 -258.718475 
L 833.654351 -254.601947 
L 834.031265 -250.485418 
L 834.386086 -246.36889 
L 834.70419 -242.252361 
L 834.956234 -238.135833 
L 835.102306 -234.019304 
L 835.097439 -229.902775 
L 834.897377 -225.786247 
L 834.463772 -221.669718 
L 833.76832 -217.55319 
L 832.795656 -213.436661 
L 831.54489 -209.320133 
L 830.029741 -205.203604 
L 828.277216 -201.087075 
L 826.32492 -196.970547 
L 824.217283 -192.854018 
L 822.00127 -188.73749 
L 819.722288 -184.620961 
L 817.421001 -180.504433 
L 815.131579 -176.387904 
L 812.881533 -172.271375 
L 810.692897 -168.154847 
L 808.584211 -164.038318 
L 806.572569 -159.92179 
L 804.675093 -155.805261 
L 802.909368 -151.688733 
L 801.292741 -147.572204 
L 799.840719 -143.455675 
L 798.564924 -139.339147 
L 797.471225 -135.222618 
L 796.558527 -131.10609 
L 795.818546 -126.989561 
L 795.23662 -122.873033 
L 794.79333 -118.756504 
L 794.466586 -114.639975 
L 794.233756 -110.523447 
L 794.073478 -106.406918 
z
" style="stroke: #3f3f3f; stroke-width: 1.25"/>
    </defs>
    <g clip-path="url(#pab02ec74ba)">
     <use xlink:href="#mb6a6d712e3" x="0" y="720" style="fill: #3274a1; stroke: #3f3f3f; stroke-width: 1.25"/>
    </g>
   </g>
   <g id="PolyCollection_7">
    <defs>
     <path id="m4f09f8a7f2" d="M 905.664629 -106.077259 
L 905.135371 -106.077259 
L 904.968897 -110.394908 
L 904.720696 -114.712558 
L 904.363794 -119.030207 
L 903.868494 -123.347857 
L 903.204603 -127.665506 
L 902.344368 -131.983156 
L 901.265719 -136.300805 
L 899.95528 -140.618454 
L 898.410479 -144.936104 
L 896.640243 -149.253753 
L 894.663951 -153.571403 
L 892.508765 -157.889052 
L 890.205882 -162.206702 
L 887.786669 -166.524351 
L 885.279822 -170.842 
L 882.710565 -175.15965 
L 880.102424 -179.477299 
L 877.481277 -183.794949 
L 874.88055 -188.112598 
L 872.345722 -192.430248 
L 869.93621 -196.747897 
L 867.723187 -201.065546 
L 865.783003 -205.383196 
L 864.187194 -209.700845 
L 862.991188 -214.018495 
L 862.224302 -218.336144 
L 861.883435 -222.653794 
L 861.931982 -226.971443 
L 862.304354 -231.289092 
L 862.915371 -235.606742 
L 863.672909 -239.924391 
L 864.491607 -244.242041 
L 865.305205 -248.55969 
L 866.075186 -252.87734 
L 866.793864 -257.194989 
L 867.481075 -261.512638 
L 868.174987 -265.830288 
L 868.919055 -270.147937 
L 869.748308 -274.465587 
L 870.678533 -278.783236 
L 871.701265 -283.100886 
L 872.785857 -287.418535 
L 873.887882 -291.736184 
L 874.961228 -296.053834 
L 875.970282 -300.371483 
L 876.898736 -304.689133 
L 877.752782 -309.006782 
L 878.558339 -313.324432 
L 879.35369 -317.642081 
L 880.180084 -321.95973 
L 881.073028 -326.27738 
L 882.056292 -330.595029 
L 883.139449 -334.912679 
L 884.318563 -339.230328 
L 885.578852 -343.547978 
L 886.898 -347.865627 
L 888.24912 -352.183276 
L 889.602986 -356.500926 
L 890.929664 -360.818575 
L 892.199937 -365.136225 
L 893.386844 -369.453874 
L 894.467431 -373.771524 
L 895.424528 -378.089173 
L 896.248244 -382.406822 
L 896.93685 -386.724472 
L 897.496849 -391.042121 
L 897.942158 -395.359771 
L 898.292467 -399.67742 
L 898.570922 -403.99507 
L 898.801394 -408.312719 
L 899.005725 -412.630368 
L 899.201394 -416.948018 
L 899.400098 -421.265667 
L 899.607568 -425.583317 
L 899.824648 -429.900966 
L 900.049357 -434.218616 
L 900.279282 -438.536265 
L 900.513611 -442.853914 
L 900.754188 -447.171564 
L 901.005322 -451.489213 
L 901.272511 -455.806863 
L 901.560554 -460.124512 
L 901.871715 -464.442162 
L 902.204521 -468.759811 
L 902.553515 -473.07746 
L 902.90998 -477.39511 
L 903.263346 -481.712759 
L 903.602851 -486.030409 
L 903.919024 -490.348058 
L 904.204704 -494.665708 
L 904.455488 -498.983357 
L 904.669659 -503.301006 
L 904.847779 -507.618656 
L 904.992114 -511.936305 
L 905.106057 -516.253955 
L 905.193627 -520.571604 
L 905.259064 -524.889254 
L 905.306534 -529.206903 
L 905.339902 -533.524552 
L 905.460098 -533.524552 
L 905.460098 -533.524552 
L 905.493466 -529.206903 
L 905.540936 -524.889254 
L 905.606373 -520.571604 
L 905.693943 -516.253955 
L 905.807886 -511.936305 
L 905.952221 -507.618656 
L 906.130341 -503.301006 
L 906.344512 -498.983357 
L 906.595296 -494.665708 
L 906.880976 -490.348058 
L 907.197149 -486.030409 
L 907.536654 -481.712759 
L 907.89002 -477.39511 
L 908.246485 -473.07746 
L 908.595479 -468.759811 
L 908.928285 -464.442162 
L 909.239446 -460.124512 
L 909.527489 -455.806863 
L 909.794678 -451.489213 
L 910.045812 -447.171564 
L 910.286389 -442.853914 
L 910.520718 -438.536265 
L 910.750643 -434.218616 
L 910.975352 -429.900966 
L 911.192432 -425.583317 
L 911.399902 -421.265667 
L 911.598606 -416.948018 
L 911.794275 -412.630368 
L 911.998606 -408.312719 
L 912.229078 -403.99507 
L 912.507533 -399.67742 
L 912.857842 -395.359771 
L 913.303151 -391.042121 
L 913.86315 -386.724472 
L 914.551756 -382.406822 
L 915.375472 -378.089173 
L 916.332569 -373.771524 
L 917.413156 -369.453874 
L 918.600063 -365.136225 
L 919.870336 -360.818575 
L 921.197014 -356.500926 
L 922.55088 -352.183276 
L 923.902 -347.865627 
L 925.221148 -343.547978 
L 926.481437 -339.230328 
L 927.660551 -334.912679 
L 928.743708 -330.595029 
L 929.726972 -326.27738 
L 930.619916 -321.95973 
L 931.44631 -317.642081 
L 932.241661 -313.324432 
L 933.047218 -309.006782 
L 933.901264 -304.689133 
L 934.829718 -300.371483 
L 935.838772 -296.053834 
L 936.912118 -291.736184 
L 938.014143 -287.418535 
L 939.098735 -283.100886 
L 940.121467 -278.783236 
L 941.051692 -274.465587 
L 941.880945 -270.147937 
L 942.625013 -265.830288 
L 943.318925 -261.512638 
L 944.006136 -257.194989 
L 944.724814 -252.87734 
L 945.494795 -248.55969 
L 946.308393 -244.242041 
L 947.127091 -239.924391 
L 947.884629 -235.606742 
L 948.495646 -231.289092 
L 948.868018 -226.971443 
L 948.916565 -222.653794 
L 948.575698 -218.336144 
L 947.808812 -214.018495 
L 946.612806 -209.700845 
L 945.016997 -205.383196 
L 943.076813 -201.065546 
L 940.86379 -196.747897 
L 938.454278 -192.430248 
L 935.91945 -188.112598 
L 933.318723 -183.794949 
L 930.697576 -179.477299 
L 928.089435 -175.15965 
L 925.520178 -170.842 
L 923.013331 -166.524351 
L 920.594118 -162.206702 
L 918.291235 -157.889052 
L 916.136049 -153.571403 
L 914.159757 -149.253753 
L 912.389521 -144.936104 
L 910.84472 -140.618454 
L 909.534281 -136.300805 
L 908.455632 -131.983156 
L 907.595397 -127.665506 
L 906.931506 -123.347857 
L 906.436206 -119.030207 
L 906.079304 -114.712558 
L 905.831103 -110.394908 
L 905.664629 -106.077259 
z
" style="stroke: #3f3f3f; stroke-width: 1.25"/>
    </defs>
    <g clip-path="url(#pab02ec74ba)">
     <use xlink:href="#m4f09f8a7f2" x="0" y="720" style="fill: #3274a1; stroke: #3f3f3f; stroke-width: 1.25"/>
    </g>
   </g>
   <g id="PolyCollection_8">
    <defs>
     <path id="m981d6dfaa9" d="M 1017.281067 -105.306911 
L 1016.718933 -105.306911 
L 1016.538967 -109.624573 
L 1016.268946 -113.942236 
L 1015.878305 -118.259898 
L 1015.332937 -122.57756 
L 1014.597531 -126.895222 
L 1013.638781 -131.212884 
L 1012.429087 -135.530547 
L 1010.950272 -139.848209 
L 1009.196662 -144.165871 
L 1007.176958 -148.483533 
L 1004.914461 -152.801195 
L 1002.44547 -157.118857 
L 999.816068 -161.43652 
L 997.077851 -165.754182 
L 994.283471 -170.071844 
L 991.483031 -174.389506 
L 988.722203 -178.707168 
L 986.042503 -183.024831 
L 983.483452 -187.342493 
L 981.085584 -191.660155 
L 978.892779 -195.977817 
L 976.952408 -200.295479 
L 975.312429 -204.613142 
L 974.015641 -208.930804 
L 973.092448 -213.248466 
L 972.554178 -217.566128 
L 972.389015 -221.88379 
L 972.561862 -226.201453 
L 973.018387 -230.519115 
L 973.692401 -234.836777 
L 974.515072 -239.154439 
L 975.424209 -243.472101 
L 976.372009 -247.789764 
L 977.329971 -252.107426 
L 978.29006 -256.425088 
L 979.261741 -260.74275 
L 980.265247 -265.060412 
L 981.322341 -269.378074 
L 982.446679 -273.695737 
L 983.636334 -278.013399 
L 984.870702 -282.331061 
L 986.112958 -286.648723 
L 987.317572 -290.966385 
L 988.440848 -295.284048 
L 989.451468 -299.60171 
L 990.338042 -303.919372 
L 991.111671 -308.237034 
L 991.803122 -312.554696 
L 992.455828 -316.872359 
L 993.117001 -321.190021 
L 993.829353 -325.507683 
L 994.625263 -329.825345 
L 995.524153 -334.143007 
L 996.532638 -338.46067 
L 997.64632 -342.778332 
L 998.851953 -347.095994 
L 1000.129166 -351.413656 
L 1001.451574 -355.731318 
L 1002.787715 -360.04898 
L 1004.102438 -364.366643 
L 1005.359188 -368.684305 
L 1006.523169 -373.001967 
L 1007.564913 -377.319629 
L 1008.463543 -381.637291 
L 1009.209063 -385.954954 
L 1009.803275 -390.272616 
L 1010.259212 -394.590278 
L 1010.599258 -398.90794 
L 1010.85223 -403.225602 
L 1011.049761 -407.543265 
L 1011.222415 -411.860927 
L 1011.396046 -416.178589 
L 1011.588991 -420.496251 
L 1011.810663 -424.813913 
L 1012.061852 -429.131576 
L 1012.336651 -433.449238 
L 1012.625508 -437.7669 
L 1012.918537 -442.084562 
L 1013.208212 -446.402224 
L 1013.490786 -450.719887 
L 1013.766225 -455.037549 
L 1014.03694 -459.355211 
L 1014.305935 -463.672873 
L 1014.575084 -467.990535 
L 1014.844076 -472.308197 
L 1015.110258 -476.62586 
L 1015.369234 -480.943522 
L 1015.615887 -485.261184 
L 1015.84541 -489.578846 
L 1016.054051 -493.896508 
L 1016.239444 -498.214171 
L 1016.400588 -502.531833 
L 1016.537628 -506.849495 
L 1016.651567 -511.167157 
L 1016.744032 -515.484819 
L 1016.817099 -519.802482 
L 1016.873165 -524.120144 
L 1016.914821 -528.437806 
L 1016.944707 -532.755468 
L 1017.055293 -532.755468 
L 1017.055293 -532.755468 
L 1017.085179 -528.437806 
L 1017.126835 -524.120144 
L 1017.182901 -519.802482 
L 1017.255968 -515.484819 
L 1017.348433 -511.167157 
L 1017.462372 -506.849495 
L 1017.599412 -502.531833 
L 1017.760556 -498.214171 
L 1017.945949 -493.896508 
L 1018.15459 -489.578846 
L 1018.384113 -485.261184 
L 1018.630766 -480.943522 
L 1018.889742 -476.62586 
L 1019.155924 -472.308197 
L 1019.424916 -467.990535 
L 1019.694065 -463.672873 
L 1019.96306 -459.355211 
L 1020.233775 -455.037549 
L 1020.509214 -450.719887 
L 1020.791788 -446.402224 
L 1021.081463 -442.084562 
L 1021.374492 -437.7669 
L 1021.663349 -433.449238 
L 1021.938148 -429.131576 
L 1022.189337 -424.813913 
L 1022.411009 -420.496251 
L 1022.603954 -416.178589 
L 1022.777585 -411.860927 
L 1022.950239 -407.543265 
L 1023.14777 -403.225602 
L 1023.400742 -398.90794 
L 1023.740788 -394.590278 
L 1024.196725 -390.272616 
L 1024.790937 -385.954954 
L 1025.536457 -381.637291 
L 1026.435087 -377.319629 
L 1027.476831 -373.001967 
L 1028.640812 -368.684305 
L 1029.897562 -364.366643 
L 1031.212285 -360.04898 
L 1032.548426 -355.731318 
L 1033.870834 -351.413656 
L 1035.148047 -347.095994 
L 1036.35368 -342.778332 
L 1037.467362 -338.46067 
L 1038.475847 -334.143007 
L 1039.374737 -329.825345 
L 1040.170647 -325.507683 
L 1040.882999 -321.190021 
L 1041.544172 -316.872359 
L 1042.196878 -312.554696 
L 1042.888329 -308.237034 
L 1043.661958 -303.919372 
L 1044.548532 -299.60171 
L 1045.559152 -295.284048 
L 1046.682428 -290.966385 
L 1047.887042 -286.648723 
L 1049.129298 -282.331061 
L 1050.363666 -278.013399 
L 1051.553321 -273.695737 
L 1052.677659 -269.378074 
L 1053.734753 -265.060412 
L 1054.738259 -260.74275 
L 1055.70994 -256.425088 
L 1056.670029 -252.107426 
L 1057.627991 -247.789764 
L 1058.575791 -243.472101 
L 1059.484928 -239.154439 
L 1060.307599 -234.836777 
L 1060.981613 -230.519115 
L 1061.438138 -226.201453 
L 1061.610985 -221.88379 
L 1061.445822 -217.566128 
L 1060.907552 -213.248466 
L 1059.984359 -208.930804 
L 1058.687571 -204.613142 
L 1057.047592 -200.295479 
L 1055.107221 -195.977817 
L 1052.914416 -191.660155 
L 1050.516548 -187.342493 
L 1047.957497 -183.024831 
L 1045.277797 -178.707168 
L 1042.516969 -174.389506 
L 1039.716529 -170.071844 
L 1036.922149 -165.754182 
L 1034.183932 -161.43652 
L 1031.55453 -157.118857 
L 1029.085539 -152.801195 
L 1026.823042 -148.483533 
L 1024.803338 -144.165871 
L 1023.049728 -139.848209 
L 1021.570913 -135.530547 
L 1020.361219 -131.212884 
L 1019.402469 -126.895222 
L 1018.667063 -122.57756 
L 1018.121695 -118.259898 
L 1017.731054 -113.942236 
L 1017.461033 -109.624573 
L 1017.281067 -105.306911 
z
" style="stroke: #3f3f3f; stroke-width: 1.25"/>
    </defs>
    <g clip-path="url(#pab02ec74ba)">
     <use xlink:href="#m981d6dfaa9" x="0" y="720" style="fill: #3274a1; stroke: #3f3f3f; stroke-width: 1.25"/>
    </g>
   </g>
   <g id="PolyCollection_9">
    <defs>
     <path id="mf272a78612" d="M 1128.834095 -105.625226 
L 1128.365905 -105.625226 
L 1128.209606 -109.936457 
L 1127.970125 -114.247689 
L 1127.616033 -118.55892 
L 1127.110544 -122.870152 
L 1126.413462 -127.181384 
L 1125.484376 -131.492615 
L 1124.286896 -135.803847 
L 1122.793466 -140.115078 
L 1120.989995 -144.42631 
L 1118.879388 -148.737542 
L 1116.483162 -153.048773 
L 1113.840608 -157.360005 
L 1111.005527 -161.671236 
L 1108.041185 -165.982468 
L 1105.014657 -170.2937 
L 1101.991955 -174.604931 
L 1099.035091 -178.916163 
L 1096.201539 -183.227394 
L 1093.545651 -187.538626 
L 1091.120709 -191.849858 
L 1088.979936 -196.161089 
L 1087.175061 -200.472321 
L 1085.75198 -204.783552 
L 1084.744213 -209.094784 
L 1084.165922 -213.406016 
L 1084.006591 -217.717247 
L 1084.229136 -222.028479 
L 1084.772274 -226.33971 
L 1085.556914 -230.650942 
L 1086.495486 -234.962174 
L 1087.502684 -239.273405 
L 1088.505973 -243.584637 
L 1089.454245 -247.895868 
L 1090.32312 -252.2071 
L 1091.115643 -256.518332 
L 1091.857795 -260.829563 
L 1092.589296 -265.140795 
L 1093.351556 -269.452026 
L 1094.175726 -273.763258 
L 1095.074119 -278.07449 
L 1096.037519 -282.385721 
L 1097.039112 -286.696953 
L 1098.043634 -291.008184 
L 1099.018672 -295.319416 
L 1099.944395 -299.630647 
L 1100.818764 -303.941879 
L 1101.656964 -308.253111 
L 1102.485844 -312.564342 
L 1103.335746 -316.875574 
L 1104.232637 -321.186805 
L 1105.19295 -325.498037 
L 1106.222199 -329.809269 
L 1107.316918 -334.1205 
L 1108.468339 -338.431732 
L 1109.665901 -342.742963 
L 1110.899127 -347.054195 
L 1112.157404 -351.365427 
L 1113.428237 -355.676658 
L 1114.6952 -359.98789 
L 1115.936869 -364.299121 
L 1117.127508 -368.610353 
L 1118.239532 -372.921585 
L 1119.247079 -377.232816 
L 1120.129703 -381.544048 
L 1120.875275 -385.855279 
L 1121.481562 -390.166511 
L 1121.956358 -394.477743 
L 1122.316364 -398.788974 
L 1122.585125 -403.100206 
L 1122.790322 -407.411437 
L 1122.960689 -411.722669 
L 1123.122845 -416.033901 
L 1123.298446 -420.345132 
L 1123.502087 -424.656364 
L 1123.740367 -428.967595 
L 1124.012329 -433.278827 
L 1124.311143 -437.590059 
L 1124.626614 -441.90129 
L 1124.947863 -446.212522 
L 1125.265543 -450.523753 
L 1125.57314 -454.834985 
L 1125.86723 -459.146217 
L 1126.146872 -463.457448 
L 1126.412553 -467.76868 
L 1126.665108 -472.079911 
L 1126.904963 -476.391143 
L 1127.131816 -480.702375 
L 1127.344706 -485.013606 
L 1127.542297 -489.324838 
L 1127.723202 -493.636069 
L 1127.886234 -497.947301 
L 1128.030555 -502.258533 
L 1128.155753 -506.569764 
L 1128.261895 -510.880996 
L 1128.349568 -515.192227 
L 1128.419898 -519.503459 
L 1128.474519 -523.81469 
L 1128.515473 -528.125922 
L 1128.545046 -532.437154 
L 1128.654954 -532.437154 
L 1128.654954 -532.437154 
L 1128.684527 -528.125922 
L 1128.725481 -523.81469 
L 1128.780102 -519.503459 
L 1128.850432 -515.192227 
L 1128.938105 -510.880996 
L 1129.044247 -506.569764 
L 1129.169445 -502.258533 
L 1129.313766 -497.947301 
L 1129.476798 -493.636069 
L 1129.657703 -489.324838 
L 1129.855294 -485.013606 
L 1130.068184 -480.702375 
L 1130.295037 -476.391143 
L 1130.534892 -472.079911 
L 1130.787447 -467.76868 
L 1131.053128 -463.457448 
L 1131.33277 -459.146217 
L 1131.62686 -454.834985 
L 1131.934457 -450.523753 
L 1132.252137 -446.212522 
L 1132.573386 -441.90129 
L 1132.888857 -437.590059 
L 1133.187671 -433.278827 
L 1133.459633 -428.967595 
L 1133.697913 -424.656364 
L 1133.901554 -420.345132 
L 1134.077155 -416.033901 
L 1134.239311 -411.722669 
L 1134.409678 -407.411437 
L 1134.614875 -403.100206 
L 1134.883636 -398.788974 
L 1135.243642 -394.477743 
L 1135.718438 -390.166511 
L 1136.324725 -385.855279 
L 1137.070297 -381.544048 
L 1137.952921 -377.232816 
L 1138.960468 -372.921585 
L 1140.072492 -368.610353 
L 1141.263131 -364.299121 
L 1142.5048 -359.98789 
L 1143.771763 -355.676658 
L 1145.042596 -351.365427 
L 1146.300873 -347.054195 
L 1147.534099 -342.742963 
L 1148.731661 -338.431732 
L 1149.883082 -334.1205 
L 1150.977801 -329.809269 
L 1152.00705 -325.498037 
L 1152.967363 -321.186805 
L 1153.864254 -316.875574 
L 1154.714156 -312.564342 
L 1155.543036 -308.253111 
L 1156.381236 -303.941879 
L 1157.255605 -299.630647 
L 1158.181328 -295.319416 
L 1159.156366 -291.008184 
L 1160.160888 -286.696953 
L 1161.162481 -282.385721 
L 1162.125881 -278.07449 
L 1163.024274 -273.763258 
L 1163.848444 -269.452026 
L 1164.610704 -265.140795 
L 1165.342205 -260.829563 
L 1166.084357 -256.518332 
L 1166.87688 -252.2071 
L 1167.745755 -247.895868 
L 1168.694027 -243.584637 
L 1169.697316 -239.273405 
L 1170.704514 -234.962174 
L 1171.643086 -230.650942 
L 1172.427726 -226.33971 
L 1172.970864 -222.028479 
L 1173.193409 -217.717247 
L 1173.034078 -213.406016 
L 1172.455787 -209.094784 
L 1171.44802 -204.783552 
L 1170.024939 -200.472321 
L 1168.220064 -196.161089 
L 1166.079291 -191.849858 
L 1163.654349 -187.538626 
L 1160.998461 -183.227394 
L 1158.164909 -178.916163 
L 1155.208045 -174.604931 
L 1152.185343 -170.2937 
L 1149.158815 -165.982468 
L 1146.194473 -161.671236 
L 1143.359392 -157.360005 
L 1140.716838 -153.048773 
L 1138.320612 -148.737542 
L 1136.210005 -144.42631 
L 1134.406534 -140.115078 
L 1132.913104 -135.803847 
L 1131.715624 -131.492615 
L 1130.786538 -127.181384 
L 1130.089456 -122.870152 
L 1129.583967 -118.55892 
L 1129.229875 -114.247689 
L 1128.990394 -109.936457 
L 1128.834095 -105.625226 
z
" style="stroke: #3f3f3f; stroke-width: 1.25"/>
    </defs>
    <g clip-path="url(#pab02ec74ba)">
     <use xlink:href="#mf272a78612" x="0" y="720" style="fill: #3274a1; stroke: #3f3f3f; stroke-width: 1.25"/>
    </g>
   </g>
   <g id="PolyCollection_10">
    <defs>
     <path id="m7605f62855" d="M 1240.432401 -106.678762 
L 1239.967599 -106.678762 
L 1239.807897 -110.96871 
L 1239.560486 -115.258658 
L 1239.190856 -119.548606 
L 1238.658037 -123.838554 
L 1237.916627 -128.128502 
L 1236.92037 -132.41845 
L 1235.627179 -136.708398 
L 1234.005149 -140.998346 
L 1232.038706 -145.288294 
L 1229.733717 -149.578242 
L 1227.120329 -153.86819 
L 1224.252526 -158.158138 
L 1221.204028 -162.448086 
L 1218.061022 -166.738034 
L 1214.913089 -171.027982 
L 1211.844352 -175.31793 
L 1208.926863 -179.607878 
L 1206.217633 -183.897827 
L 1203.759467 -188.187775 
L 1201.584498 -192.477723 
L 1199.718327 -196.767671 
L 1198.182635 -201.057619 
L 1196.994937 -205.347567 
L 1196.165515 -209.637515 
L 1195.692907 -213.927463 
L 1195.56 -218.217411 
L 1195.732546 -222.507359 
L 1196.160997 -226.797307 
L 1196.785426 -231.087255 
L 1197.542483 -235.377203 
L 1198.373036 -239.667151 
L 1199.229194 -243.957099 
L 1200.079644 -248.247047 
L 1200.91232 -252.536995 
L 1201.733616 -256.826943 
L 1202.563775 -261.116891 
L 1203.428988 -265.406839 
L 1204.351861 -269.696787 
L 1205.342838 -273.986735 
L 1206.395289 -278.276683 
L 1207.486083 -282.566631 
L 1208.581658 -286.856579 
L 1209.647715 -291.146527 
L 1210.65933 -295.436475 
L 1211.608163 -299.726424 
L 1212.504518 -304.016372 
L 1213.373849 -308.30632 
L 1214.24919 -312.596268 
L 1215.162169 -316.886216 
L 1216.135466 -321.176164 
L 1217.178777 -325.466112 
L 1218.288945 -329.75606 
L 1219.453457 -334.046008 
L 1220.655527 -338.335956 
L 1221.878703 -342.625904 
L 1223.109486 -346.915852 
L 1224.337419 -351.2058 
L 1225.553206 -355.495748 
L 1226.746137 -359.785696 
L 1227.902257 -364.075644 
L 1229.004231 -368.365592 
L 1230.033112 -372.65554 
L 1230.971403 -376.945488 
L 1231.806351 -381.235436 
L 1232.532398 -385.525384 
L 1233.152089 -389.815332 
L 1233.675292 -394.10528 
L 1234.117094 -398.395228 
L 1234.495045 -402.685176 
L 1234.826472 -406.975124 
L 1235.126417 -411.265072 
L 1235.406498 -415.555021 
L 1235.674705 -419.844969 
L 1235.935921 -424.134917 
L 1236.192841 -428.424865 
L 1236.446942 -432.714813 
L 1236.699222 -437.004761 
L 1236.95057 -441.294709 
L 1237.201734 -445.584657 
L 1237.453023 -449.874605 
L 1237.703899 -454.164553 
L 1237.952674 -458.454501 
L 1238.196487 -462.744449 
L 1238.43162 -467.034397 
L 1238.654129 -471.324345 
L 1238.860594 -475.614293 
L 1239.048779 -479.904241 
L 1239.217961 -484.194189 
L 1239.368841 -488.484137 
L 1239.503075 -492.774085 
L 1239.622619 -497.064033 
L 1239.729123 -501.353981 
L 1239.823592 -505.643929 
L 1239.906368 -509.933877 
L 1239.977392 -514.223825 
L 1240.036588 -518.513773 
L 1240.084201 -522.803721 
L 1240.120981 -527.093669 
L 1240.148178 -531.383618 
L 1240.251822 -531.383618 
L 1240.251822 -531.383618 
L 1240.279019 -527.093669 
L 1240.315799 -522.803721 
L 1240.363412 -518.513773 
L 1240.422608 -514.223825 
L 1240.493632 -509.933877 
L 1240.576408 -505.643929 
L 1240.670877 -501.353981 
L 1240.777381 -497.064033 
L 1240.896925 -492.774085 
L 1241.031159 -488.484137 
L 1241.182039 -484.194189 
L 1241.351221 -479.904241 
L 1241.539406 -475.614293 
L 1241.745871 -471.324345 
L 1241.96838 -467.034397 
L 1242.203513 -462.744449 
L 1242.447326 -458.454501 
L 1242.696101 -454.164553 
L 1242.946977 -449.874605 
L 1243.198266 -445.584657 
L 1243.44943 -441.294709 
L 1243.700778 -437.004761 
L 1243.953058 -432.714813 
L 1244.207159 -428.424865 
L 1244.464079 -424.134917 
L 1244.725295 -419.844969 
L 1244.993502 -415.555021 
L 1245.273583 -411.265072 
L 1245.573528 -406.975124 
L 1245.904955 -402.685176 
L 1246.282906 -398.395228 
L 1246.724708 -394.10528 
L 1247.247911 -389.815332 
L 1247.867602 -385.525384 
L 1248.593649 -381.235436 
L 1249.428597 -376.945488 
L 1250.366888 -372.65554 
L 1251.395769 -368.365592 
L 1252.497743 -364.075644 
L 1253.653863 -359.785696 
L 1254.846794 -355.495748 
L 1256.062581 -351.2058 
L 1257.290514 -346.915852 
L 1258.521297 -342.625904 
L 1259.744473 -338.335956 
L 1260.946543 -334.046008 
L 1262.111055 -329.75606 
L 1263.221223 -325.466112 
L 1264.264534 -321.176164 
L 1265.237831 -316.886216 
L 1266.15081 -312.596268 
L 1267.026151 -308.30632 
L 1267.895482 -304.016372 
L 1268.791837 -299.726424 
L 1269.74067 -295.436475 
L 1270.752285 -291.146527 
L 1271.818342 -286.856579 
L 1272.913917 -282.566631 
L 1274.004711 -278.276683 
L 1275.057162 -273.986735 
L 1276.048139 -269.696787 
L 1276.971012 -265.406839 
L 1277.836225 -261.116891 
L 1278.666384 -256.826943 
L 1279.48768 -252.536995 
L 1280.320356 -248.247047 
L 1281.170806 -243.957099 
L 1282.026964 -239.667151 
L 1282.857517 -235.377203 
L 1283.614574 -231.087255 
L 1284.239003 -226.797307 
L 1284.667454 -222.507359 
L 1284.84 -218.217411 
L 1284.707093 -213.927463 
L 1284.234485 -209.637515 
L 1283.405063 -205.347567 
L 1282.217365 -201.057619 
L 1280.681673 -196.767671 
L 1278.815502 -192.477723 
L 1276.640533 -188.187775 
L 1274.182367 -183.897827 
L 1271.473137 -179.607878 
L 1268.555648 -175.31793 
L 1265.486911 -171.027982 
L 1262.338978 -166.738034 
L 1259.195972 -162.448086 
L 1256.147474 -158.158138 
L 1253.279671 -153.86819 
L 1250.666283 -149.578242 
L 1248.361294 -145.288294 
L 1246.394851 -140.998346 
L 1244.772821 -136.708398 
L 1243.47963 -132.41845 
L 1242.483373 -128.128502 
L 1241.741963 -123.838554 
L 1241.209144 -119.548606 
L 1240.839514 -115.258658 
L 1240.592103 -110.96871 
L 1240.432401 -106.678762 
z
" style="stroke: #3f3f3f; stroke-width: 1.25"/>
    </defs>
    <g clip-path="url(#pab02ec74ba)">
     <use xlink:href="#m7605f62855" x="0" y="720" style="fill: #3274a1; stroke: #3f3f3f; stroke-width: 1.25"/>
    </g>
   </g>
   <g id="matplotlib.axis_1">
    <g id="xtick_1">
     <g id="line2d_1">
      <defs>
       <path id="m3ccda89d6b" d="M 0 0 
L 0 3.5 
" style="stroke: #000000; stroke-width: 0.8"/>
      </defs>
      <g>
       <use xlink:href="#m3ccda89d6b" x="235.8" y="640.8" style="stroke: #000000; stroke-width: 0.8"/>
      </g>
     </g>
     <g id="text_1">
      <!-- 0 -->
      <g transform="translate(232.61875 655.398438) scale(0.1 -0.1)">
       <defs>
        <path id="DejaVuSans-30" d="M 2034 4250 
Q 1547 4250 1301 3770 
Q 1056 3291 1056 2328 
Q 1056 1369 1301 889 
Q 1547 409 2034 409 
Q 2525 409 2770 889 
Q 3016 1369 3016 2328 
Q 3016 3291 2770 3770 
Q 2525 4250 2034 4250 
z
M 2034 4750 
Q 2819 4750 3233 4129 
Q 3647 3509 3647 2328 
Q 3647 1150 3233 529 
Q 2819 -91 2034 -91 
Q 1250 -91 836 529 
Q 422 1150 422 2328 
Q 422 3509 836 4129 
Q 1250 4750 2034 4750 
z
" transform="scale(0.015625)"/>
       </defs>
       <use xlink:href="#DejaVuSans-30"/>
      </g>
     </g>
    </g>
    <g id="xtick_2">
     <g id="line2d_2">
      <g>
       <use xlink:href="#m3ccda89d6b" x="347.4" y="640.8" style="stroke: #000000; stroke-width: 0.8"/>
      </g>
     </g>
     <g id="text_2">
      <!-- 1 -->
      <g transform="translate(344.21875 655.398438) scale(0.1 -0.1)">
       <defs>
        <path id="DejaVuSans-31" d="M 794 531 
L 1825 531 
L 1825 4091 
L 703 3866 
L 703 4441 
L 1819 4666 
L 2450 4666 
L 2450 531 
L 3481 531 
L 3481 0 
L 794 0 
L 794 531 
z
" transform="scale(0.015625)"/>
       </defs>
       <use xlink:href="#DejaVuSans-31"/>
      </g>
     </g>
    </g>
    <g id="xtick_3">
     <g id="line2d_3">
      <g>
       <use xlink:href="#m3ccda89d6b" x="459" y="640.8" style="stroke: #000000; stroke-width: 0.8"/>
      </g>
     </g>
     <g id="text_3">
      <!-- 2 -->
      <g transform="translate(455.81875 655.398438) scale(0.1 -0.1)">
       <defs>
        <path id="DejaVuSans-32" d="M 1228 531 
L 3431 531 
L 3431 0 
L 469 0 
L 469 531 
Q 828 903 1448 1529 
Q 2069 2156 2228 2338 
Q 2531 2678 2651 2914 
Q 2772 3150 2772 3378 
Q 2772 3750 2511 3984 
Q 2250 4219 1831 4219 
Q 1534 4219 1204 4116 
Q 875 4013 500 3803 
L 500 4441 
Q 881 4594 1212 4672 
Q 1544 4750 1819 4750 
Q 2544 4750 2975 4387 
Q 3406 4025 3406 3419 
Q 3406 3131 3298 2873 
Q 3191 2616 2906 2266 
Q 2828 2175 2409 1742 
Q 1991 1309 1228 531 
z
" transform="scale(0.015625)"/>
       </defs>
       <use xlink:href="#DejaVuSans-32"/>
      </g>
     </g>
    </g>
    <g id="xtick_4">
     <g id="line2d_4">
      <g>
       <use xlink:href="#m3ccda89d6b" x="570.6" y="640.8" style="stroke: #000000; stroke-width: 0.8"/>
      </g>
     </g>
     <g id="text_4">
      <!-- 3 -->
      <g transform="translate(567.41875 655.398438) scale(0.1 -0.1)">
       <defs>
        <path id="DejaVuSans-33" d="M 2597 2516 
Q 3050 2419 3304 2112 
Q 3559 1806 3559 1356 
Q 3559 666 3084 287 
Q 2609 -91 1734 -91 
Q 1441 -91 1130 -33 
Q 819 25 488 141 
L 488 750 
Q 750 597 1062 519 
Q 1375 441 1716 441 
Q 2309 441 2620 675 
Q 2931 909 2931 1356 
Q 2931 1769 2642 2001 
Q 2353 2234 1838 2234 
L 1294 2234 
L 1294 2753 
L 1863 2753 
Q 2328 2753 2575 2939 
Q 2822 3125 2822 3475 
Q 2822 3834 2567 4026 
Q 2313 4219 1838 4219 
Q 1578 4219 1281 4162 
Q 984 4106 628 3988 
L 628 4550 
Q 988 4650 1302 4700 
Q 1616 4750 1894 4750 
Q 2613 4750 3031 4423 
Q 3450 4097 3450 3541 
Q 3450 3153 3228 2886 
Q 3006 2619 2597 2516 
z
" transform="scale(0.015625)"/>
       </defs>
       <use xlink:href="#DejaVuSans-33"/>
      </g>
     </g>
    </g>
    <g id="xtick_5">
     <g id="line2d_5">
      <g>
       <use xlink:href="#m3ccda89d6b" x="682.2" y="640.8" style="stroke: #000000; stroke-width: 0.8"/>
      </g>
     </g>
     <g id="text_5">
      <!-- 4 -->
      <g transform="translate(679.01875 655.398438) scale(0.1 -0.1)">
       <defs>
        <path id="DejaVuSans-34" d="M 2419 4116 
L 825 1625 
L 2419 1625 
L 2419 4116 
z
M 2253 4666 
L 3047 4666 
L 3047 1625 
L 3713 1625 
L 3713 1100 
L 3047 1100 
L 3047 0 
L 2419 0 
L 2419 1100 
L 313 1100 
L 313 1709 
L 2253 4666 
z
" transform="scale(0.015625)"/>
       </defs>
       <use xlink:href="#DejaVuSans-34"/>
      </g>
     </g>
    </g>
    <g id="xtick_6">
     <g id="line2d_6">
      <g>
       <use xlink:href="#m3ccda89d6b" x="793.8" y="640.8" style="stroke: #000000; stroke-width: 0.8"/>
      </g>
     </g>
     <g id="text_6">
      <!-- 5 -->
      <g transform="translate(790.61875 655.398438) scale(0.1 -0.1)">
       <defs>
        <path id="DejaVuSans-35" d="M 691 4666 
L 3169 4666 
L 3169 4134 
L 1269 4134 
L 1269 2991 
Q 1406 3038 1543 3061 
Q 1681 3084 1819 3084 
Q 2600 3084 3056 2656 
Q 3513 2228 3513 1497 
Q 3513 744 3044 326 
Q 2575 -91 1722 -91 
Q 1428 -91 1123 -41 
Q 819 9 494 109 
L 494 744 
Q 775 591 1075 516 
Q 1375 441 1709 441 
Q 2250 441 2565 725 
Q 2881 1009 2881 1497 
Q 2881 1984 2565 2268 
Q 2250 2553 1709 2553 
Q 1456 2553 1204 2497 
Q 953 2441 691 2322 
L 691 4666 
z
" transform="scale(0.015625)"/>
       </defs>
       <use xlink:href="#DejaVuSans-35"/>
      </g>
     </g>
    </g>
    <g id="xtick_7">
     <g id="line2d_7">
      <g>
       <use xlink:href="#m3ccda89d6b" x="905.4" y="640.8" style="stroke: #000000; stroke-width: 0.8"/>
      </g>
     </g>
     <g id="text_7">
      <!-- 6 -->
      <g transform="translate(902.21875 655.398438) scale(0.1 -0.1)">
       <defs>
        <path id="DejaVuSans-36" d="M 2113 2584 
Q 1688 2584 1439 2293 
Q 1191 2003 1191 1497 
Q 1191 994 1439 701 
Q 1688 409 2113 409 
Q 2538 409 2786 701 
Q 3034 994 3034 1497 
Q 3034 2003 2786 2293 
Q 2538 2584 2113 2584 
z
M 3366 4563 
L 3366 3988 
Q 3128 4100 2886 4159 
Q 2644 4219 2406 4219 
Q 1781 4219 1451 3797 
Q 1122 3375 1075 2522 
Q 1259 2794 1537 2939 
Q 1816 3084 2150 3084 
Q 2853 3084 3261 2657 
Q 3669 2231 3669 1497 
Q 3669 778 3244 343 
Q 2819 -91 2113 -91 
Q 1303 -91 875 529 
Q 447 1150 447 2328 
Q 447 3434 972 4092 
Q 1497 4750 2381 4750 
Q 2619 4750 2861 4703 
Q 3103 4656 3366 4563 
z
" transform="scale(0.015625)"/>
       </defs>
       <use xlink:href="#DejaVuSans-36"/>
      </g>
     </g>
    </g>
    <g id="xtick_8">
     <g id="line2d_8">
      <g>
       <use xlink:href="#m3ccda89d6b" x="1017" y="640.8" style="stroke: #000000; stroke-width: 0.8"/>
      </g>
     </g>
     <g id="text_8">
      <!-- 7 -->
      <g transform="translate(1013.81875 655.398438) scale(0.1 -0.1)">
       <defs>
        <path id="DejaVuSans-37" d="M 525 4666 
L 3525 4666 
L 3525 4397 
L 1831 0 
L 1172 0 
L 2766 4134 
L 525 4134 
L 525 4666 
z
" transform="scale(0.015625)"/>
       </defs>
       <use xlink:href="#DejaVuSans-37"/>
      </g>
     </g>
    </g>
    <g id="xtick_9">
     <g id="line2d_9">
      <g>
       <use xlink:href="#m3ccda89d6b" x="1128.6" y="640.8" style="stroke: #000000; stroke-width: 0.8"/>
      </g>
     </g>
     <g id="text_9">
      <!-- 8 -->
      <g transform="translate(1125.41875 655.398438) scale(0.1 -0.1)">
       <defs>
        <path id="DejaVuSans-38" d="M 2034 2216 
Q 1584 2216 1326 1975 
Q 1069 1734 1069 1313 
Q 1069 891 1326 650 
Q 1584 409 2034 409 
Q 2484 409 2743 651 
Q 3003 894 3003 1313 
Q 3003 1734 2745 1975 
Q 2488 2216 2034 2216 
z
M 1403 2484 
Q 997 2584 770 2862 
Q 544 3141 544 3541 
Q 544 4100 942 4425 
Q 1341 4750 2034 4750 
Q 2731 4750 3128 4425 
Q 3525 4100 3525 3541 
Q 3525 3141 3298 2862 
Q 3072 2584 2669 2484 
Q 3125 2378 3379 2068 
Q 3634 1759 3634 1313 
Q 3634 634 3220 271 
Q 2806 -91 2034 -91 
Q 1263 -91 848 271 
Q 434 634 434 1313 
Q 434 1759 690 2068 
Q 947 2378 1403 2484 
z
M 1172 3481 
Q 1172 3119 1398 2916 
Q 1625 2713 2034 2713 
Q 2441 2713 2670 2916 
Q 2900 3119 2900 3481 
Q 2900 3844 2670 4047 
Q 2441 4250 2034 4250 
Q 1625 4250 1398 4047 
Q 1172 3844 1172 3481 
z
" transform="scale(0.015625)"/>
       </defs>
       <use xlink:href="#DejaVuSans-38"/>
      </g>
     </g>
    </g>
    <g id="xtick_10">
     <g id="line2d_10">
      <g>
       <use xlink:href="#m3ccda89d6b" x="1240.2" y="640.8" style="stroke: #000000; stroke-width: 0.8"/>
      </g>
     </g>
     <g id="text_10">
      <!-- 9 -->
      <g transform="translate(1237.01875 655.398438) scale(0.1 -0.1)">
       <defs>
        <path id="DejaVuSans-39" d="M 703 97 
L 703 672 
Q 941 559 1184 500 
Q 1428 441 1663 441 
Q 2288 441 2617 861 
Q 2947 1281 2994 2138 
Q 2813 1869 2534 1725 
Q 2256 1581 1919 1581 
Q 1219 1581 811 2004 
Q 403 2428 403 3163 
Q 403 3881 828 4315 
Q 1253 4750 1959 4750 
Q 2769 4750 3195 4129 
Q 3622 3509 3622 2328 
Q 3622 1225 3098 567 
Q 2575 -91 1691 -91 
Q 1453 -91 1209 -44 
Q 966 3 703 97 
z
M 1959 2075 
Q 2384 2075 2632 2365 
Q 2881 2656 2881 3163 
Q 2881 3666 2632 3958 
Q 2384 4250 1959 4250 
Q 1534 4250 1286 3958 
Q 1038 3666 1038 3163 
Q 1038 2656 1286 2365 
Q 1534 2075 1959 2075 
z
" transform="scale(0.015625)"/>
       </defs>
       <use xlink:href="#DejaVuSans-39"/>
      </g>
     </g>
    </g>
    <g id="text_11">
     <!-- iteration -->
     <g transform="translate(716.877344 669.076563) scale(0.1 -0.1)">
      <defs>
       <path id="DejaVuSans-69" d="M 603 3500 
L 1178 3500 
L 1178 0 
L 603 0 
L 603 3500 
z
M 603 4863 
L 1178 4863 
L 1178 4134 
L 603 4134 
L 603 4863 
z
" transform="scale(0.015625)"/>
       <path id="DejaVuSans-74" d="M 1172 4494 
L 1172 3500 
L 2356 3500 
L 2356 3053 
L 1172 3053 
L 1172 1153 
Q 1172 725 1289 603 
Q 1406 481 1766 481 
L 2356 481 
L 2356 0 
L 1766 0 
Q 1100 0 847 248 
Q 594 497 594 1153 
L 594 3053 
L 172 3053 
L 172 3500 
L 594 3500 
L 594 4494 
L 1172 4494 
z
" transform="scale(0.015625)"/>
       <path id="DejaVuSans-65" d="M 3597 1894 
L 3597 1613 
L 953 1613 
Q 991 1019 1311 708 
Q 1631 397 2203 397 
Q 2534 397 2845 478 
Q 3156 559 3463 722 
L 3463 178 
Q 3153 47 2828 -22 
Q 2503 -91 2169 -91 
Q 1331 -91 842 396 
Q 353 884 353 1716 
Q 353 2575 817 3079 
Q 1281 3584 2069 3584 
Q 2775 3584 3186 3129 
Q 3597 2675 3597 1894 
z
M 3022 2063 
Q 3016 2534 2758 2815 
Q 2500 3097 2075 3097 
Q 1594 3097 1305 2825 
Q 1016 2553 972 2059 
L 3022 2063 
z
" transform="scale(0.015625)"/>
       <path id="DejaVuSans-72" d="M 2631 2963 
Q 2534 3019 2420 3045 
Q 2306 3072 2169 3072 
Q 1681 3072 1420 2755 
Q 1159 2438 1159 1844 
L 1159 0 
L 581 0 
L 581 3500 
L 1159 3500 
L 1159 2956 
Q 1341 3275 1631 3429 
Q 1922 3584 2338 3584 
Q 2397 3584 2469 3576 
Q 2541 3569 2628 3553 
L 2631 2963 
z
" transform="scale(0.015625)"/>
       <path id="DejaVuSans-61" d="M 2194 1759 
Q 1497 1759 1228 1600 
Q 959 1441 959 1056 
Q 959 750 1161 570 
Q 1363 391 1709 391 
Q 2188 391 2477 730 
Q 2766 1069 2766 1631 
L 2766 1759 
L 2194 1759 
z
M 3341 1997 
L 3341 0 
L 2766 0 
L 2766 531 
Q 2569 213 2275 61 
Q 1981 -91 1556 -91 
Q 1019 -91 701 211 
Q 384 513 384 1019 
Q 384 1609 779 1909 
Q 1175 2209 1959 2209 
L 2766 2209 
L 2766 2266 
Q 2766 2663 2505 2880 
Q 2244 3097 1772 3097 
Q 1472 3097 1187 3025 
Q 903 2953 641 2809 
L 641 3341 
Q 956 3463 1253 3523 
Q 1550 3584 1831 3584 
Q 2591 3584 2966 3190 
Q 3341 2797 3341 1997 
z
" transform="scale(0.015625)"/>
       <path id="DejaVuSans-6f" d="M 1959 3097 
Q 1497 3097 1228 2736 
Q 959 2375 959 1747 
Q 959 1119 1226 758 
Q 1494 397 1959 397 
Q 2419 397 2687 759 
Q 2956 1122 2956 1747 
Q 2956 2369 2687 2733 
Q 2419 3097 1959 3097 
z
M 1959 3584 
Q 2709 3584 3137 3096 
Q 3566 2609 3566 1747 
Q 3566 888 3137 398 
Q 2709 -91 1959 -91 
Q 1206 -91 779 398 
Q 353 888 353 1747 
Q 353 2609 779 3096 
Q 1206 3584 1959 3584 
z
" transform="scale(0.015625)"/>
       <path id="DejaVuSans-6e" d="M 3513 2113 
L 3513 0 
L 2938 0 
L 2938 2094 
Q 2938 2591 2744 2837 
Q 2550 3084 2163 3084 
Q 1697 3084 1428 2787 
Q 1159 2491 1159 1978 
L 1159 0 
L 581 0 
L 581 3500 
L 1159 3500 
L 1159 2956 
Q 1366 3272 1645 3428 
Q 1925 3584 2291 3584 
Q 2894 3584 3203 3211 
Q 3513 2838 3513 2113 
z
" transform="scale(0.015625)"/>
      </defs>
      <use xlink:href="#DejaVuSans-69"/>
      <use xlink:href="#DejaVuSans-74" x="27.783203"/>
      <use xlink:href="#DejaVuSans-65" x="66.992188"/>
      <use xlink:href="#DejaVuSans-72" x="128.515625"/>
      <use xlink:href="#DejaVuSans-61" x="169.628906"/>
      <use xlink:href="#DejaVuSans-74" x="230.908203"/>
      <use xlink:href="#DejaVuSans-69" x="270.117188"/>
      <use xlink:href="#DejaVuSans-6f" x="297.900391"/>
      <use xlink:href="#DejaVuSans-6e" x="359.082031"/>
     </g>
    </g>
   </g>
   <g id="matplotlib.axis_2">
    <g id="ytick_1">
     <g id="line2d_11">
      <defs>
       <path id="m862a771af6" d="M 0 0 
L -3.5 0 
" style="stroke: #000000; stroke-width: 0.8"/>
      </defs>
      <g>
       <use xlink:href="#m862a771af6" x="180" y="619.596306" style="stroke: #000000; stroke-width: 0.8"/>
      </g>
     </g>
     <g id="text_12">
      <!-- 0.2 -->
      <g transform="translate(148.717187 623.395524) scale(0.1 -0.1)">
       <defs>
        <path id="DejaVuSans-2212" d="M 678 2272 
L 4684 2272 
L 4684 1741 
L 678 1741 
L 678 2272 
z
" transform="scale(0.015625)"/>
        <path id="DejaVuSans-2e" d="M 684 794 
L 1344 794 
L 1344 0 
L 684 0 
L 684 794 
z
" transform="scale(0.015625)"/>
       </defs>
       <use xlink:href="#DejaVuSans-2212"/>
       <use xlink:href="#DejaVuSans-30" x="83.789062"/>
       <use xlink:href="#DejaVuSans-2e" x="147.412109"/>
       <use xlink:href="#DejaVuSans-32" x="179.199219"/>
      </g>
     </g>
    </g>
    <g id="ytick_2">
     <g id="line2d_12">
      <g>
       <use xlink:href="#m862a771af6" x="180" y="542.527816" style="stroke: #000000; stroke-width: 0.8"/>
      </g>
     </g>
     <g id="text_13">
      <!-- 0.0 -->
      <g transform="translate(157.096875 546.327035) scale(0.1 -0.1)">
       <use xlink:href="#DejaVuSans-30"/>
       <use xlink:href="#DejaVuSans-2e" x="63.623047"/>
       <use xlink:href="#DejaVuSans-30" x="95.410156"/>
      </g>
     </g>
    </g>
    <g id="ytick_3">
     <g id="line2d_13">
      <g>
       <use xlink:href="#m862a771af6" x="180" y="465.459327" style="stroke: #000000; stroke-width: 0.8"/>
      </g>
     </g>
     <g id="text_14">
      <!-- 0.2 -->
      <g transform="translate(157.096875 469.258546) scale(0.1 -0.1)">
       <use xlink:href="#DejaVuSans-30"/>
       <use xlink:href="#DejaVuSans-2e" x="63.623047"/>
       <use xlink:href="#DejaVuSans-32" x="95.410156"/>
      </g>
     </g>
    </g>
    <g id="ytick_4">
     <g id="line2d_14">
      <g>
       <use xlink:href="#m862a771af6" x="180" y="388.390838" style="stroke: #000000; stroke-width: 0.8"/>
      </g>
     </g>
     <g id="text_15">
      <!-- 0.4 -->
      <g transform="translate(157.096875 392.190057) scale(0.1 -0.1)">
       <use xlink:href="#DejaVuSans-30"/>
       <use xlink:href="#DejaVuSans-2e" x="63.623047"/>
       <use xlink:href="#DejaVuSans-34" x="95.410156"/>
      </g>
     </g>
    </g>
    <g id="ytick_5">
     <g id="line2d_15">
      <g>
       <use xlink:href="#m862a771af6" x="180" y="311.322349" style="stroke: #000000; stroke-width: 0.8"/>
      </g>
     </g>
     <g id="text_16">
      <!-- 0.6 -->
      <g transform="translate(157.096875 315.121568) scale(0.1 -0.1)">
       <use xlink:href="#DejaVuSans-30"/>
       <use xlink:href="#DejaVuSans-2e" x="63.623047"/>
       <use xlink:href="#DejaVuSans-36" x="95.410156"/>
      </g>
     </g>
    </g>
    <g id="ytick_6">
     <g id="line2d_16">
      <g>
       <use xlink:href="#m862a771af6" x="180" y="234.25386" style="stroke: #000000; stroke-width: 0.8"/>
      </g>
     </g>
     <g id="text_17">
      <!-- 0.8 -->
      <g transform="translate(157.096875 238.053078) scale(0.1 -0.1)">
       <use xlink:href="#DejaVuSans-30"/>
       <use xlink:href="#DejaVuSans-2e" x="63.623047"/>
       <use xlink:href="#DejaVuSans-38" x="95.410156"/>
      </g>
     </g>
    </g>
    <g id="ytick_7">
     <g id="line2d_17">
      <g>
       <use xlink:href="#m862a771af6" x="180" y="157.18537" style="stroke: #000000; stroke-width: 0.8"/>
      </g>
     </g>
     <g id="text_18">
      <!-- 1.0 -->
      <g transform="translate(157.096875 160.984589) scale(0.1 -0.1)">
       <use xlink:href="#DejaVuSans-31"/>
       <use xlink:href="#DejaVuSans-2e" x="63.623047"/>
       <use xlink:href="#DejaVuSans-30" x="95.410156"/>
      </g>
     </g>
    </g>
    <g id="text_19">
     <!-- cosine similarity -->
     <g transform="translate(142.6375 404.307031) rotate(-90) scale(0.1 -0.1)">
      <defs>
       <path id="DejaVuSans-63" d="M 3122 3366 
L 3122 2828 
Q 2878 2963 2633 3030 
Q 2388 3097 2138 3097 
Q 1578 3097 1268 2742 
Q 959 2388 959 1747 
Q 959 1106 1268 751 
Q 1578 397 2138 397 
Q 2388 397 2633 464 
Q 2878 531 3122 666 
L 3122 134 
Q 2881 22 2623 -34 
Q 2366 -91 2075 -91 
Q 1284 -91 818 406 
Q 353 903 353 1747 
Q 353 2603 823 3093 
Q 1294 3584 2113 3584 
Q 2378 3584 2631 3529 
Q 2884 3475 3122 3366 
z
" transform="scale(0.015625)"/>
       <path id="DejaVuSans-73" d="M 2834 3397 
L 2834 2853 
Q 2591 2978 2328 3040 
Q 2066 3103 1784 3103 
Q 1356 3103 1142 2972 
Q 928 2841 928 2578 
Q 928 2378 1081 2264 
Q 1234 2150 1697 2047 
L 1894 2003 
Q 2506 1872 2764 1633 
Q 3022 1394 3022 966 
Q 3022 478 2636 193 
Q 2250 -91 1575 -91 
Q 1294 -91 989 -36 
Q 684 19 347 128 
L 347 722 
Q 666 556 975 473 
Q 1284 391 1588 391 
Q 1994 391 2212 530 
Q 2431 669 2431 922 
Q 2431 1156 2273 1281 
Q 2116 1406 1581 1522 
L 1381 1569 
Q 847 1681 609 1914 
Q 372 2147 372 2553 
Q 372 3047 722 3315 
Q 1072 3584 1716 3584 
Q 2034 3584 2315 3537 
Q 2597 3491 2834 3397 
z
" transform="scale(0.015625)"/>
       <path id="DejaVuSans-20" transform="scale(0.015625)"/>
       <path id="DejaVuSans-6d" d="M 3328 2828 
Q 3544 3216 3844 3400 
Q 4144 3584 4550 3584 
Q 5097 3584 5394 3201 
Q 5691 2819 5691 2113 
L 5691 0 
L 5113 0 
L 5113 2094 
Q 5113 2597 4934 2840 
Q 4756 3084 4391 3084 
Q 3944 3084 3684 2787 
Q 3425 2491 3425 1978 
L 3425 0 
L 2847 0 
L 2847 2094 
Q 2847 2600 2669 2842 
Q 2491 3084 2119 3084 
Q 1678 3084 1418 2786 
Q 1159 2488 1159 1978 
L 1159 0 
L 581 0 
L 581 3500 
L 1159 3500 
L 1159 2956 
Q 1356 3278 1631 3431 
Q 1906 3584 2284 3584 
Q 2666 3584 2933 3390 
Q 3200 3197 3328 2828 
z
" transform="scale(0.015625)"/>
       <path id="DejaVuSans-6c" d="M 603 4863 
L 1178 4863 
L 1178 0 
L 603 0 
L 603 4863 
z
" transform="scale(0.015625)"/>
       <path id="DejaVuSans-79" d="M 2059 -325 
Q 1816 -950 1584 -1140 
Q 1353 -1331 966 -1331 
L 506 -1331 
L 506 -850 
L 844 -850 
Q 1081 -850 1212 -737 
Q 1344 -625 1503 -206 
L 1606 56 
L 191 3500 
L 800 3500 
L 1894 763 
L 2988 3500 
L 3597 3500 
L 2059 -325 
z
" transform="scale(0.015625)"/>
      </defs>
      <use xlink:href="#DejaVuSans-63"/>
      <use xlink:href="#DejaVuSans-6f" x="54.980469"/>
      <use xlink:href="#DejaVuSans-73" x="116.162109"/>
      <use xlink:href="#DejaVuSans-69" x="168.261719"/>
      <use xlink:href="#DejaVuSans-6e" x="196.044922"/>
      <use xlink:href="#DejaVuSans-65" x="259.423828"/>
      <use xlink:href="#DejaVuSans-20" x="320.947266"/>
      <use xlink:href="#DejaVuSans-73" x="352.734375"/>
      <use xlink:href="#DejaVuSans-69" x="404.833984"/>
      <use xlink:href="#DejaVuSans-6d" x="432.617188"/>
      <use xlink:href="#DejaVuSans-69" x="530.029297"/>
      <use xlink:href="#DejaVuSans-6c" x="557.8125"/>
      <use xlink:href="#DejaVuSans-61" x="585.595703"/>
      <use xlink:href="#DejaVuSans-72" x="646.875"/>
      <use xlink:href="#DejaVuSans-69" x="687.988281"/>
      <use xlink:href="#DejaVuSans-74" x="715.771484"/>
      <use xlink:href="#DejaVuSans-79" x="754.980469"/>
     </g>
    </g>
   </g>
   <g id="line2d_18">
    <path d="M 235.8 545.94426 
L 235.8 206.056394 
" clip-path="url(#pab02ec74ba)" style="fill: none; stroke: #3f3f3f; stroke-width: 1.875; stroke-linecap: square"/>
   </g>
   <g id="line2d_19">
    <path d="M 235.8 414.171586 
L 235.8 322.90847 
" clip-path="url(#pab02ec74ba)" style="fill: none; stroke: #3f3f3f; stroke-width: 5.625; stroke-linecap: square"/>
   </g>
   <g id="line2d_20">
    <path d="M 235.8 367.908651 
" clip-path="url(#pab02ec74ba)" style="fill: none; stroke: #3f3f3f; stroke-width: 1.5; stroke-linecap: square"/>
    <defs>
     <path id="mb73eb8d68f" d="M 2.34375 0 
L -2.34375 -0 
" style="stroke: #ffffff; stroke-width: 1.125"/>
    </defs>
    <g clip-path="url(#pab02ec74ba)">
     <use xlink:href="#mb73eb8d68f" x="235.8" y="367.908651" style="fill: #ffffff; stroke: #ffffff; stroke-width: 1.125"/>
    </g>
   </g>
   <g id="line2d_21">
    <path d="M 347.4 569.658434 
L 347.4 227.242789 
" clip-path="url(#pab02ec74ba)" style="fill: none; stroke: #3f3f3f; stroke-width: 1.875; stroke-linecap: square"/>
   </g>
   <g id="line2d_22">
    <path d="M 347.4 465.075355 
L 347.4 358.535472 
" clip-path="url(#pab02ec74ba)" style="fill: none; stroke: #3f3f3f; stroke-width: 5.625; stroke-linecap: square"/>
   </g>
   <g id="line2d_23">
    <path d="M 347.4 407.04435 
" clip-path="url(#pab02ec74ba)" style="fill: none; stroke: #3f3f3f; stroke-width: 1.5; stroke-linecap: square"/>
    <g clip-path="url(#pab02ec74ba)">
     <use xlink:href="#mb73eb8d68f" x="347.4" y="407.04435" style="fill: #ffffff; stroke: #ffffff; stroke-width: 1.125"/>
    </g>
   </g>
   <g id="line2d_24">
    <path d="M 459 571.625327 
L 459 248.024508 
" clip-path="url(#pab02ec74ba)" style="fill: none; stroke: #3f3f3f; stroke-width: 1.875; stroke-linecap: square"/>
   </g>
   <g id="line2d_25">
    <path d="M 459 481.699221 
L 459 382.439247 
" clip-path="url(#pab02ec74ba)" style="fill: none; stroke: #3f3f3f; stroke-width: 5.625; stroke-linecap: square"/>
   </g>
   <g id="line2d_26">
    <path d="M 459 436.430846 
" clip-path="url(#pab02ec74ba)" style="fill: none; stroke: #3f3f3f; stroke-width: 1.5; stroke-linecap: square"/>
    <g clip-path="url(#pab02ec74ba)">
     <use xlink:href="#mb73eb8d68f" x="459" y="436.430846" style="fill: #ffffff; stroke: #ffffff; stroke-width: 1.125"/>
    </g>
   </g>
   <g id="line2d_27">
    <path d="M 570.6 571.625327 
L 570.6 244.232022 
" clip-path="url(#pab02ec74ba)" style="fill: none; stroke: #3f3f3f; stroke-width: 1.875; stroke-linecap: square"/>
   </g>
   <g id="line2d_28">
    <path d="M 570.6 495.516821 
L 570.6 393.915509 
" clip-path="url(#pab02ec74ba)" style="fill: none; stroke: #3f3f3f; stroke-width: 5.625; stroke-linecap: square"/>
   </g>
   <g id="line2d_29">
    <path d="M 570.6 447.132936 
" clip-path="url(#pab02ec74ba)" style="fill: none; stroke: #3f3f3f; stroke-width: 1.5; stroke-linecap: square"/>
    <g clip-path="url(#pab02ec74ba)">
     <use xlink:href="#mb73eb8d68f" x="570.6" y="447.132936" style="fill: #ffffff; stroke: #ffffff; stroke-width: 1.125"/>
    </g>
   </g>
   <g id="line2d_30">
    <path d="M 682.2 571.625327 
L 682.2 244.232022 
" clip-path="url(#pab02ec74ba)" style="fill: none; stroke: #3f3f3f; stroke-width: 1.875; stroke-linecap: square"/>
   </g>
   <g id="line2d_31">
    <path d="M 682.2 499.637664 
L 682.2 396.785423 
" clip-path="url(#pab02ec74ba)" style="fill: none; stroke: #3f3f3f; stroke-width: 5.625; stroke-linecap: square"/>
   </g>
   <g id="line2d_32">
    <path d="M 682.2 452.152433 
" clip-path="url(#pab02ec74ba)" style="fill: none; stroke: #3f3f3f; stroke-width: 1.5; stroke-linecap: square"/>
    <g clip-path="url(#pab02ec74ba)">
     <use xlink:href="#mb73eb8d68f" x="682.2" y="452.152433" style="fill: #ffffff; stroke: #ffffff; stroke-width: 1.125"/>
    </g>
   </g>
   <g id="line2d_33">
    <path d="M 793.8 571.625327 
L 793.8 256.439161 
" clip-path="url(#pab02ec74ba)" style="fill: none; stroke: #3f3f3f; stroke-width: 1.875; stroke-linecap: square"/>
   </g>
   <g id="line2d_34">
    <path d="M 793.8 502.897387 
L 793.8 402.025867 
" clip-path="url(#pab02ec74ba)" style="fill: none; stroke: #3f3f3f; stroke-width: 5.625; stroke-linecap: square"/>
   </g>
   <g id="line2d_35">
    <path d="M 793.8 456.362303 
" clip-path="url(#pab02ec74ba)" style="fill: none; stroke: #3f3f3f; stroke-width: 1.5; stroke-linecap: square"/>
    <g clip-path="url(#pab02ec74ba)">
     <use xlink:href="#mb73eb8d68f" x="793.8" y="456.362303" style="fill: #ffffff; stroke: #ffffff; stroke-width: 1.125"/>
    </g>
   </g>
   <g id="line2d_36">
    <path d="M 905.4 571.625327 
L 905.4 256.439161 
" clip-path="url(#pab02ec74ba)" style="fill: none; stroke: #3f3f3f; stroke-width: 1.875; stroke-linecap: square"/>
   </g>
   <g id="line2d_37">
    <path d="M 905.4 505.674592 
L 905.4 405.149373 
" clip-path="url(#pab02ec74ba)" style="fill: none; stroke: #3f3f3f; stroke-width: 5.625; stroke-linecap: square"/>
   </g>
   <g id="line2d_38">
    <path d="M 905.4 461.926139 
" clip-path="url(#pab02ec74ba)" style="fill: none; stroke: #3f3f3f; stroke-width: 1.5; stroke-linecap: square"/>
    <g clip-path="url(#pab02ec74ba)">
     <use xlink:href="#mb73eb8d68f" x="905.4" y="461.926139" style="fill: #ffffff; stroke: #ffffff; stroke-width: 1.125"/>
    </g>
   </g>
   <g id="line2d_39">
    <path d="M 1017 573.164759 
L 1017 271.262492 
" clip-path="url(#pab02ec74ba)" style="fill: none; stroke: #3f3f3f; stroke-width: 1.875; stroke-linecap: square"/>
   </g>
   <g id="line2d_40">
    <path d="M 1017 508.584965 
L 1017 412.055371 
" clip-path="url(#pab02ec74ba)" style="fill: none; stroke: #3f3f3f; stroke-width: 5.625; stroke-linecap: square"/>
   </g>
   <g id="line2d_41">
    <path d="M 1017 469.37901 
" clip-path="url(#pab02ec74ba)" style="fill: none; stroke: #3f3f3f; stroke-width: 1.5; stroke-linecap: square"/>
    <g clip-path="url(#pab02ec74ba)">
     <use xlink:href="#mb73eb8d68f" x="1017" y="469.37901" style="fill: #ffffff; stroke: #ffffff; stroke-width: 1.125"/>
    </g>
   </g>
   <g id="line2d_42">
    <path d="M 1128.6 573.164759 
L 1128.6 271.262492 
" clip-path="url(#pab02ec74ba)" style="fill: none; stroke: #3f3f3f; stroke-width: 1.875; stroke-linecap: square"/>
   </g>
   <g id="line2d_43">
    <path d="M 1128.6 509.806013 
L 1128.6 412.665455 
" clip-path="url(#pab02ec74ba)" style="fill: none; stroke: #3f3f3f; stroke-width: 5.625; stroke-linecap: square"/>
   </g>
   <g id="line2d_44">
    <path d="M 1128.6 469.591024 
" clip-path="url(#pab02ec74ba)" style="fill: none; stroke: #3f3f3f; stroke-width: 1.5; stroke-linecap: square"/>
    <g clip-path="url(#pab02ec74ba)">
     <use xlink:href="#mb73eb8d68f" x="1128.6" y="469.591024" style="fill: #ffffff; stroke: #ffffff; stroke-width: 1.125"/>
    </g>
   </g>
   <g id="line2d_45">
    <path d="M 1240.2 573.164759 
L 1240.2 281.06045 
" clip-path="url(#pab02ec74ba)" style="fill: none; stroke: #3f3f3f; stroke-width: 1.875; stroke-linecap: square"/>
   </g>
   <g id="line2d_46">
    <path d="M 1240.2 510.667393 
L 1240.2 416.571806 
" clip-path="url(#pab02ec74ba)" style="fill: none; stroke: #3f3f3f; stroke-width: 5.625; stroke-linecap: square"/>
   </g>
   <g id="line2d_47">
    <path d="M 1240.2 472.213386 
" clip-path="url(#pab02ec74ba)" style="fill: none; stroke: #3f3f3f; stroke-width: 1.5; stroke-linecap: square"/>
    <g clip-path="url(#pab02ec74ba)">
     <use xlink:href="#mb73eb8d68f" x="1240.2" y="472.213386" style="fill: #ffffff; stroke: #ffffff; stroke-width: 1.125"/>
    </g>
   </g>
   <g id="patch_3">
    <path d="M 180 640.8 
L 180 86.4 
" style="fill: none; stroke: #000000; stroke-width: 0.8; stroke-linejoin: miter; stroke-linecap: square"/>
   </g>
   <g id="patch_4">
    <path d="M 1296 640.8 
L 1296 86.4 
" style="fill: none; stroke: #000000; stroke-width: 0.8; stroke-linejoin: miter; stroke-linecap: square"/>
   </g>
   <g id="patch_5">
    <path d="M 180 640.8 
L 1296 640.8 
" style="fill: none; stroke: #000000; stroke-width: 0.8; stroke-linejoin: miter; stroke-linecap: square"/>
   </g>
   <g id="patch_6">
    <path d="M 180 86.4 
L 1296 86.4 
" style="fill: none; stroke: #000000; stroke-width: 0.8; stroke-linejoin: miter; stroke-linecap: square"/>
   </g>
   <g id="text_20">
    <!-- cosine similarity of max_fs_glit (distanceFromInitialPrompt), by iteration -->
    <g transform="translate(522.321563 80.4) scale(0.12 -0.12)">
     <defs>
      <path id="DejaVuSans-66" d="M 2375 4863 
L 2375 4384 
L 1825 4384 
Q 1516 4384 1395 4259 
Q 1275 4134 1275 3809 
L 1275 3500 
L 2222 3500 
L 2222 3053 
L 1275 3053 
L 1275 0 
L 697 0 
L 697 3053 
L 147 3053 
L 147 3500 
L 697 3500 
L 697 3744 
Q 697 4328 969 4595 
Q 1241 4863 1831 4863 
L 2375 4863 
z
" transform="scale(0.015625)"/>
      <path id="DejaVuSans-78" d="M 3513 3500 
L 2247 1797 
L 3578 0 
L 2900 0 
L 1881 1375 
L 863 0 
L 184 0 
L 1544 1831 
L 300 3500 
L 978 3500 
L 1906 2253 
L 2834 3500 
L 3513 3500 
z
" transform="scale(0.015625)"/>
      <path id="DejaVuSans-5f" d="M 3263 -1063 
L 3263 -1509 
L -63 -1509 
L -63 -1063 
L 3263 -1063 
z
" transform="scale(0.015625)"/>
      <path id="DejaVuSans-67" d="M 2906 1791 
Q 2906 2416 2648 2759 
Q 2391 3103 1925 3103 
Q 1463 3103 1205 2759 
Q 947 2416 947 1791 
Q 947 1169 1205 825 
Q 1463 481 1925 481 
Q 2391 481 2648 825 
Q 2906 1169 2906 1791 
z
M 3481 434 
Q 3481 -459 3084 -895 
Q 2688 -1331 1869 -1331 
Q 1566 -1331 1297 -1286 
Q 1028 -1241 775 -1147 
L 775 -588 
Q 1028 -725 1275 -790 
Q 1522 -856 1778 -856 
Q 2344 -856 2625 -561 
Q 2906 -266 2906 331 
L 2906 616 
Q 2728 306 2450 153 
Q 2172 0 1784 0 
Q 1141 0 747 490 
Q 353 981 353 1791 
Q 353 2603 747 3093 
Q 1141 3584 1784 3584 
Q 2172 3584 2450 3431 
Q 2728 3278 2906 2969 
L 2906 3500 
L 3481 3500 
L 3481 434 
z
" transform="scale(0.015625)"/>
      <path id="DejaVuSans-28" d="M 1984 4856 
Q 1566 4138 1362 3434 
Q 1159 2731 1159 2009 
Q 1159 1288 1364 580 
Q 1569 -128 1984 -844 
L 1484 -844 
Q 1016 -109 783 600 
Q 550 1309 550 2009 
Q 550 2706 781 3412 
Q 1013 4119 1484 4856 
L 1984 4856 
z
" transform="scale(0.015625)"/>
      <path id="DejaVuSans-64" d="M 2906 2969 
L 2906 4863 
L 3481 4863 
L 3481 0 
L 2906 0 
L 2906 525 
Q 2725 213 2448 61 
Q 2172 -91 1784 -91 
Q 1150 -91 751 415 
Q 353 922 353 1747 
Q 353 2572 751 3078 
Q 1150 3584 1784 3584 
Q 2172 3584 2448 3432 
Q 2725 3281 2906 2969 
z
M 947 1747 
Q 947 1113 1208 752 
Q 1469 391 1925 391 
Q 2381 391 2643 752 
Q 2906 1113 2906 1747 
Q 2906 2381 2643 2742 
Q 2381 3103 1925 3103 
Q 1469 3103 1208 2742 
Q 947 2381 947 1747 
z
" transform="scale(0.015625)"/>
      <path id="DejaVuSans-46" d="M 628 4666 
L 3309 4666 
L 3309 4134 
L 1259 4134 
L 1259 2759 
L 3109 2759 
L 3109 2228 
L 1259 2228 
L 1259 0 
L 628 0 
L 628 4666 
z
" transform="scale(0.015625)"/>
      <path id="DejaVuSans-49" d="M 628 4666 
L 1259 4666 
L 1259 0 
L 628 0 
L 628 4666 
z
" transform="scale(0.015625)"/>
      <path id="DejaVuSans-50" d="M 1259 4147 
L 1259 2394 
L 2053 2394 
Q 2494 2394 2734 2622 
Q 2975 2850 2975 3272 
Q 2975 3691 2734 3919 
Q 2494 4147 2053 4147 
L 1259 4147 
z
M 628 4666 
L 2053 4666 
Q 2838 4666 3239 4311 
Q 3641 3956 3641 3272 
Q 3641 2581 3239 2228 
Q 2838 1875 2053 1875 
L 1259 1875 
L 1259 0 
L 628 0 
L 628 4666 
z
" transform="scale(0.015625)"/>
      <path id="DejaVuSans-70" d="M 1159 525 
L 1159 -1331 
L 581 -1331 
L 581 3500 
L 1159 3500 
L 1159 2969 
Q 1341 3281 1617 3432 
Q 1894 3584 2278 3584 
Q 2916 3584 3314 3078 
Q 3713 2572 3713 1747 
Q 3713 922 3314 415 
Q 2916 -91 2278 -91 
Q 1894 -91 1617 61 
Q 1341 213 1159 525 
z
M 3116 1747 
Q 3116 2381 2855 2742 
Q 2594 3103 2138 3103 
Q 1681 3103 1420 2742 
Q 1159 2381 1159 1747 
Q 1159 1113 1420 752 
Q 1681 391 2138 391 
Q 2594 391 2855 752 
Q 3116 1113 3116 1747 
z
" transform="scale(0.015625)"/>
      <path id="DejaVuSans-29" d="M 513 4856 
L 1013 4856 
Q 1481 4119 1714 3412 
Q 1947 2706 1947 2009 
Q 1947 1309 1714 600 
Q 1481 -109 1013 -844 
L 513 -844 
Q 928 -128 1133 580 
Q 1338 1288 1338 2009 
Q 1338 2731 1133 3434 
Q 928 4138 513 4856 
z
" transform="scale(0.015625)"/>
      <path id="DejaVuSans-2c" d="M 750 794 
L 1409 794 
L 1409 256 
L 897 -744 
L 494 -744 
L 750 256 
L 750 794 
z
" transform="scale(0.015625)"/>
      <path id="DejaVuSans-62" d="M 3116 1747 
Q 3116 2381 2855 2742 
Q 2594 3103 2138 3103 
Q 1681 3103 1420 2742 
Q 1159 2381 1159 1747 
Q 1159 1113 1420 752 
Q 1681 391 2138 391 
Q 2594 391 2855 752 
Q 3116 1113 3116 1747 
z
M 1159 2969 
Q 1341 3281 1617 3432 
Q 1894 3584 2278 3584 
Q 2916 3584 3314 3078 
Q 3713 2572 3713 1747 
Q 3713 922 3314 415 
Q 2916 -91 2278 -91 
Q 1894 -91 1617 61 
Q 1341 213 1159 525 
L 1159 0 
L 581 0 
L 581 4863 
L 1159 4863 
L 1159 2969 
z
" transform="scale(0.015625)"/>
     </defs>
     <use xlink:href="#DejaVuSans-63"/>
     <use xlink:href="#DejaVuSans-6f" x="54.980469"/>
     <use xlink:href="#DejaVuSans-73" x="116.162109"/>
     <use xlink:href="#DejaVuSans-69" x="168.261719"/>
     <use xlink:href="#DejaVuSans-6e" x="196.044922"/>
     <use xlink:href="#DejaVuSans-65" x="259.423828"/>
     <use xlink:href="#DejaVuSans-20" x="320.947266"/>
     <use xlink:href="#DejaVuSans-73" x="352.734375"/>
     <use xlink:href="#DejaVuSans-69" x="404.833984"/>
     <use xlink:href="#DejaVuSans-6d" x="432.617188"/>
     <use xlink:href="#DejaVuSans-69" x="530.029297"/>
     <use xlink:href="#DejaVuSans-6c" x="557.8125"/>
     <use xlink:href="#DejaVuSans-61" x="585.595703"/>
     <use xlink:href="#DejaVuSans-72" x="646.875"/>
     <use xlink:href="#DejaVuSans-69" x="687.988281"/>
     <use xlink:href="#DejaVuSans-74" x="715.771484"/>
     <use xlink:href="#DejaVuSans-79" x="754.980469"/>
     <use xlink:href="#DejaVuSans-20" x="814.160156"/>
     <use xlink:href="#DejaVuSans-6f" x="845.947266"/>
     <use xlink:href="#DejaVuSans-66" x="907.128906"/>
     <use xlink:href="#DejaVuSans-20" x="942.333984"/>
     <use xlink:href="#DejaVuSans-6d" x="974.121094"/>
     <use xlink:href="#DejaVuSans-61" x="1071.533203"/>
     <use xlink:href="#DejaVuSans-78" x="1132.8125"/>
     <use xlink:href="#DejaVuSans-5f" x="1191.992188"/>
     <use xlink:href="#DejaVuSans-66" x="1241.992188"/>
     <use xlink:href="#DejaVuSans-73" x="1277.197266"/>
     <use xlink:href="#DejaVuSans-5f" x="1329.296875"/>
     <use xlink:href="#DejaVuSans-67" x="1379.296875"/>
     <use xlink:href="#DejaVuSans-6c" x="1442.773438"/>
     <use xlink:href="#DejaVuSans-69" x="1470.556641"/>
     <use xlink:href="#DejaVuSans-74" x="1498.339844"/>
     <use xlink:href="#DejaVuSans-20" x="1537.548828"/>
     <use xlink:href="#DejaVuSans-28" x="1569.335938"/>
     <use xlink:href="#DejaVuSans-64" x="1608.349609"/>
     <use xlink:href="#DejaVuSans-69" x="1671.826172"/>
     <use xlink:href="#DejaVuSans-73" x="1699.609375"/>
     <use xlink:href="#DejaVuSans-74" x="1751.708984"/>
     <use xlink:href="#DejaVuSans-61" x="1790.917969"/>
     <use xlink:href="#DejaVuSans-6e" x="1852.197266"/>
     <use xlink:href="#DejaVuSans-63" x="1915.576172"/>
     <use xlink:href="#DejaVuSans-65" x="1970.556641"/>
     <use xlink:href="#DejaVuSans-46" x="2032.080078"/>
     <use xlink:href="#DejaVuSans-72" x="2082.349609"/>
     <use xlink:href="#DejaVuSans-6f" x="2121.212891"/>
     <use xlink:href="#DejaVuSans-6d" x="2182.394531"/>
     <use xlink:href="#DejaVuSans-49" x="2279.806641"/>
     <use xlink:href="#DejaVuSans-6e" x="2309.298828"/>
     <use xlink:href="#DejaVuSans-69" x="2372.677734"/>
     <use xlink:href="#DejaVuSans-74" x="2400.460938"/>
     <use xlink:href="#DejaVuSans-69" x="2439.669922"/>
     <use xlink:href="#DejaVuSans-61" x="2467.453125"/>
     <use xlink:href="#DejaVuSans-6c" x="2528.732422"/>
     <use xlink:href="#DejaVuSans-50" x="2556.515625"/>
     <use xlink:href="#DejaVuSans-72" x="2615.068359"/>
     <use xlink:href="#DejaVuSans-6f" x="2653.931641"/>
     <use xlink:href="#DejaVuSans-6d" x="2715.113281"/>
     <use xlink:href="#DejaVuSans-70" x="2812.525391"/>
     <use xlink:href="#DejaVuSans-74" x="2876.001953"/>
     <use xlink:href="#DejaVuSans-29" x="2915.210938"/>
     <use xlink:href="#DejaVuSans-2c" x="2954.224609"/>
     <use xlink:href="#DejaVuSans-20" x="2986.011719"/>
     <use xlink:href="#DejaVuSans-62" x="3017.798828"/>
     <use xlink:href="#DejaVuSans-79" x="3081.275391"/>
     <use xlink:href="#DejaVuSans-20" x="3140.455078"/>
     <use xlink:href="#DejaVuSans-69" x="3172.242188"/>
     <use xlink:href="#DejaVuSans-74" x="3200.025391"/>
     <use xlink:href="#DejaVuSans-65" x="3239.234375"/>
     <use xlink:href="#DejaVuSans-72" x="3300.757812"/>
     <use xlink:href="#DejaVuSans-61" x="3341.871094"/>
     <use xlink:href="#DejaVuSans-74" x="3403.150391"/>
     <use xlink:href="#DejaVuSans-69" x="3442.359375"/>
     <use xlink:href="#DejaVuSans-6f" x="3470.142578"/>
     <use xlink:href="#DejaVuSans-6e" x="3531.324219"/>
    </g>
   </g>
  </g>
 </g>
 <defs>
  <clipPath id="pab02ec74ba">
   <rect x="180" y="86.4" width="1116" height="554.4"/>
  </clipPath>
 </defs>
</svg>
