<?xml version="1.0" encoding="utf-8" standalone="no"?>
<!DOCTYPE svg PUBLIC "-//W3C//DTD SVG 1.1//EN"
  "http://www.w3.org/Graphics/SVG/1.1/DTD/svg11.dtd">
<svg xmlns:xlink="http://www.w3.org/1999/xlink" width="1440pt" height="720pt" viewBox="0 0 1440 720" xmlns="http://www.w3.org/2000/svg" version="1.1">
 <metadata>
  <rdf:RDF xmlns:dc="http://purl.org/dc/elements/1.1/" xmlns:cc="http://creativecommons.org/ns#" xmlns:rdf="http://www.w3.org/1999/02/22-rdf-syntax-ns#">
   <cc:Work>
    <dc:type rdf:resource="http://purl.org/dc/dcmitype/StillImage"/>
    <dc:date>2024-07-06T18:29:03.297177</dc:date>
    <dc:format>image/svg+xml</dc:format>
    <dc:creator>
     <cc:Agent>
      <dc:title>Matplotlib v3.8.0, https://matplotlib.org/</dc:title>
     </cc:Agent>
    </dc:creator>
   </cc:Work>
  </rdf:RDF>
 </metadata>
 <defs>
  <style type="text/css">*{stroke-linejoin: round; stroke-linecap: butt}</style>
 </defs>
 <g id="figure_1">
  <g id="patch_1">
   <path d="M 0 720 
L 1440 720 
L 1440 0 
L 0 0 
z
" style="fill: #ffffff"/>
  </g>
  <g id="axes_1">
   <g id="patch_2">
    <path d="M 180 640.8 
L 1296 640.8 
L 1296 86.4 
L 180 86.4 
z
" style="fill: #ffffff"/>
   </g>
   <g id="PolyCollection_1">
    <defs>
     <path id="m09500e56bd" d="M 235.891091 -110.843645 
L 235.708909 -110.843645 
L 235.664569 -115.869467 
L 235.603201 -120.895289 
L 235.520204 -125.92111 
L 235.410391 -130.946932 
L 235.268081 -135.972754 
L 235.08726 -140.998576 
L 234.861805 -146.024398 
L 234.585795 -151.050219 
L 234.253926 -156.076041 
L 233.862031 -161.101863 
L 233.407698 -166.127685 
L 232.890921 -171.153506 
L 232.314709 -176.179328 
L 231.685514 -181.20515 
L 231.013354 -186.230972 
L 230.311496 -191.256793 
L 229.59562 -196.282615 
L 228.882477 -201.308437 
L 228.188146 -206.334259 
L 227.52613 -211.36008 
L 226.905569 -216.385902 
L 226.329951 -221.411724 
L 225.796577 -226.437546 
L 225.297001 -231.463368 
L 224.81842 -236.489189 
L 224.345817 -241.515011 
L 223.864443 -246.540833 
L 223.362123 -251.566655 
L 222.830853 -256.592476 
L 222.267302 -261.618298 
L 221.672064 -266.64412 
L 221.047836 -271.669942 
L 220.39699 -276.695763 
L 219.719208 -281.721585 
L 219.009912 -286.747407 
L 218.26005 -291.773229 
L 217.457506 -296.799051 
L 216.589978 -301.824872 
L 215.648769 -306.850694 
L 214.632658 -311.876516 
L 213.55089 -316.902338 
L 212.424498 -321.928159 
L 211.285476 -326.953981 
L 210.173804 -331.979803 
L 209.132791 -337.005625 
L 208.203571 -342.031446 
L 207.419798 -347.057268 
L 206.803491 -352.08309 
L 206.362789 -357.108912 
L 206.09193 -362.134733 
L 205.973357 -367.160555 
L 205.981464 -372.186377 
L 206.087213 -377.212199 
L 206.262779 -382.238021 
L 206.485438 -387.263842 
L 206.740135 -392.289664 
L 207.020453 -397.315486 
L 207.328039 -402.341308 
L 207.670793 -407.367129 
L 208.060331 -412.392951 
L 208.50929 -417.418773 
L 209.028984 -422.444595 
L 209.627774 -427.470416 
L 210.310292 -432.496238 
L 211.07745 -437.52206 
L 211.926999 -442.547882 
L 212.854316 -447.573703 
L 213.853117 -452.599525 
L 214.915902 -457.625347 
L 216.034085 -462.651169 
L 217.197886 -467.676991 
L 218.396169 -472.702812 
L 219.616411 -477.728634 
L 220.844938 -482.754456 
L 222.06745 -487.780278 
L 223.269767 -492.806099 
L 224.438649 -497.831921 
L 225.562537 -502.857743 
L 226.632069 -507.883565 
L 227.640334 -512.909386 
L 228.582848 -517.935208 
L 229.457322 -522.96103 
L 230.263284 -527.986852 
L 231.001645 -533.012674 
L 231.674255 -538.038495 
L 232.283508 -543.064317 
L 232.832019 -548.090139 
L 233.322403 -553.115961 
L 233.757177 -558.141782 
L 234.138769 -563.167604 
L 234.46963 -568.193426 
L 234.752396 -573.219248 
L 234.99005 -578.245069 
L 235.186042 -583.270891 
L 235.344317 -588.296713 
L 235.469249 -593.322535 
L 235.56548 -598.348356 
L 235.637717 -603.374178 
L 235.690502 -608.4 
L 235.909498 -608.4 
L 235.909498 -608.4 
L 235.962283 -603.374178 
L 236.03452 -598.348356 
L 236.130751 -593.322535 
L 236.255683 -588.296713 
L 236.413958 -583.270891 
L 236.60995 -578.245069 
L 236.847604 -573.219248 
L 237.13037 -568.193426 
L 237.461231 -563.167604 
L 237.842823 -558.141782 
L 238.277597 -553.115961 
L 238.767981 -548.090139 
L 239.316492 -543.064317 
L 239.925745 -538.038495 
L 240.598355 -533.012674 
L 241.336716 -527.986852 
L 242.142678 -522.96103 
L 243.017152 -517.935208 
L 243.959666 -512.909386 
L 244.967931 -507.883565 
L 246.037463 -502.857743 
L 247.161351 -497.831921 
L 248.330233 -492.806099 
L 249.53255 -487.780278 
L 250.755062 -482.754456 
L 251.983589 -477.728634 
L 253.203831 -472.702812 
L 254.402114 -467.676991 
L 255.565915 -462.651169 
L 256.684098 -457.625347 
L 257.746883 -452.599525 
L 258.745684 -447.573703 
L 259.673001 -442.547882 
L 260.52255 -437.52206 
L 261.289708 -432.496238 
L 261.972226 -427.470416 
L 262.571016 -422.444595 
L 263.09071 -417.418773 
L 263.539669 -412.392951 
L 263.929207 -407.367129 
L 264.271961 -402.341308 
L 264.579547 -397.315486 
L 264.859865 -392.289664 
L 265.114562 -387.263842 
L 265.337221 -382.238021 
L 265.512787 -377.212199 
L 265.618536 -372.186377 
L 265.626643 -367.160555 
L 265.50807 -362.134733 
L 265.237211 -357.108912 
L 264.796509 -352.08309 
L 264.180202 -347.057268 
L 263.396429 -342.031446 
L 262.467209 -337.005625 
L 261.426196 -331.979803 
L 260.314524 -326.953981 
L 259.175502 -321.928159 
L 258.04911 -316.902338 
L 256.967342 -311.876516 
L 255.951231 -306.850694 
L 255.010022 -301.824872 
L 254.142494 -296.799051 
L 253.33995 -291.773229 
L 252.590088 -286.747407 
L 251.880792 -281.721585 
L 251.20301 -276.695763 
L 250.552164 -271.669942 
L 249.927936 -266.64412 
L 249.332698 -261.618298 
L 248.769147 -256.592476 
L 248.237877 -251.566655 
L 247.735557 -246.540833 
L 247.254183 -241.515011 
L 246.78158 -236.489189 
L 246.302999 -231.463368 
L 245.803423 -226.437546 
L 245.270049 -221.411724 
L 244.694431 -216.385902 
L 244.07387 -211.36008 
L 243.411854 -206.334259 
L 242.717523 -201.308437 
L 242.00438 -196.282615 
L 241.288504 -191.256793 
L 240.586646 -186.230972 
L 239.914486 -181.20515 
L 239.285291 -176.179328 
L 238.709079 -171.153506 
L 238.192302 -166.127685 
L 237.737969 -161.101863 
L 237.346074 -156.076041 
L 237.014205 -151.050219 
L 236.738195 -146.024398 
L 236.51274 -140.998576 
L 236.331919 -135.972754 
L 236.189609 -130.946932 
L 236.079796 -125.92111 
L 235.996799 -120.895289 
L 235.935431 -115.869467 
L 235.891091 -110.843645 
z
" style="stroke: #3f3f3f; stroke-width: 1.25"/>
    </defs>
    <g clip-path="url(#p3e177ef47e)">
     <use xlink:href="#m09500e56bd" x="0" y="720" style="fill: #3274a1; stroke: #3f3f3f; stroke-width: 1.25"/>
    </g>
   </g>
   <g id="PolyCollection_2">
    <defs>
     <path id="m70c5f20588" d="M 347.520256 -105.42476 
L 347.279744 -105.42476 
L 347.221468 -110.197013 
L 347.140019 -114.969266 
L 347.02827 -119.741519 
L 346.877614 -124.513772 
L 346.677864 -129.286025 
L 346.417258 -134.058278 
L 346.082614 -138.830531 
L 345.659719 -143.602785 
L 345.134011 -148.375038 
L 344.491607 -153.147291 
L 343.720655 -157.919544 
L 342.812914 -162.691797 
L 341.765397 -167.46405 
L 340.581787 -172.236303 
L 339.273353 -177.008556 
L 337.859094 -181.78081 
L 336.364919 -186.553063 
L 334.821865 -191.325316 
L 333.263529 -196.097569 
L 331.723048 -200.869822 
L 330.230119 -205.642075 
L 328.808542 -210.414328 
L 327.474688 -215.186581 
L 326.237153 -219.958834 
L 325.097584 -224.731088 
L 324.052469 -229.503341 
L 323.095498 -234.275594 
L 322.220011 -239.047847 
L 321.421053 -243.8201 
L 320.696697 -248.592353 
L 320.048433 -253.364606 
L 319.480655 -258.136859 
L 318.999418 -262.909112 
L 318.61079 -267.681366 
L 318.319159 -272.453619 
L 318.125817 -277.225872 
L 318.028074 -281.998125 
L 318.019031 -286.770378 
L 318.088007 -291.542631 
L 318.221532 -296.314884 
L 318.40475 -301.087137 
L 318.623046 -305.85939 
L 318.863714 -310.631644 
L 319.1175 -315.403897 
L 319.379848 -320.17615 
L 319.651706 -324.948403 
L 319.939731 -329.720656 
L 320.255776 -334.492909 
L 320.615618 -339.265162 
L 321.036967 -344.037415 
L 321.536942 -348.809668 
L 322.129344 -353.581922 
L 322.822116 -358.354175 
L 323.615463 -363.126428 
L 324.500976 -367.898681 
L 325.461983 -372.670934 
L 326.475116 -377.443187 
L 327.512859 -382.21544 
L 328.546621 -386.987693 
L 329.549838 -391.759946 
L 330.500576 -396.5322 
L 331.383269 -401.304453 
L 332.189428 -406.076706 
L 332.91735 -410.848959 
L 333.57108 -415.621212 
L 334.158912 -420.393465 
L 334.691782 -425.165718 
L 335.181791 -429.937971 
L 335.640987 -434.710225 
L 336.080467 -439.482478 
L 336.509749 -444.254731 
L 336.93638 -449.026984 
L 337.365748 -453.799237 
L 337.801099 -458.57149 
L 338.24378 -463.343743 
L 338.693695 -468.115996 
L 339.149925 -472.888249 
L 339.611398 -477.660503 
L 340.077449 -482.432756 
L 340.54814 -487.205009 
L 341.024215 -491.977262 
L 341.506698 -496.749515 
L 341.996233 -501.521768 
L 342.492315 -506.294021 
L 342.992659 -511.066274 
L 343.492855 -515.838527 
L 343.986451 -520.610781 
L 344.465454 -525.383034 
L 344.921154 -530.155287 
L 345.345113 -534.92754 
L 345.730125 -539.699793 
L 346.070972 -544.472046 
L 346.36486 -549.244299 
L 346.611515 -554.016552 
L 346.812945 -558.788805 
L 346.972972 -563.561059 
L 347.096639 -568.333312 
L 347.189601 -573.105565 
L 347.257575 -577.877818 
L 347.542425 -577.877818 
L 347.542425 -577.877818 
L 347.610399 -573.105565 
L 347.703361 -568.333312 
L 347.827028 -563.561059 
L 347.987055 -558.788805 
L 348.188485 -554.016552 
L 348.43514 -549.244299 
L 348.729028 -544.472046 
L 349.069875 -539.699793 
L 349.454887 -534.92754 
L 349.878846 -530.155287 
L 350.334546 -525.383034 
L 350.813549 -520.610781 
L 351.307145 -515.838527 
L 351.807341 -511.066274 
L 352.307685 -506.294021 
L 352.803767 -501.521768 
L 353.293302 -496.749515 
L 353.775785 -491.977262 
L 354.25186 -487.205009 
L 354.722551 -482.432756 
L 355.188602 -477.660503 
L 355.650075 -472.888249 
L 356.106305 -468.115996 
L 356.55622 -463.343743 
L 356.998901 -458.57149 
L 357.434252 -453.799237 
L 357.86362 -449.026984 
L 358.290251 -444.254731 
L 358.719533 -439.482478 
L 359.159013 -434.710225 
L 359.618209 -429.937971 
L 360.108218 -425.165718 
L 360.641088 -420.393465 
L 361.22892 -415.621212 
L 361.88265 -410.848959 
L 362.610572 -406.076706 
L 363.416731 -401.304453 
L 364.299424 -396.5322 
L 365.250162 -391.759946 
L 366.253379 -386.987693 
L 367.287141 -382.21544 
L 368.324884 -377.443187 
L 369.338017 -372.670934 
L 370.299024 -367.898681 
L 371.184537 -363.126428 
L 371.977884 -358.354175 
L 372.670656 -353.581922 
L 373.263058 -348.809668 
L 373.763033 -344.037415 
L 374.184382 -339.265162 
L 374.544224 -334.492909 
L 374.860269 -329.720656 
L 375.148294 -324.948403 
L 375.420152 -320.17615 
L 375.6825 -315.403897 
L 375.936286 -310.631644 
L 376.176954 -305.85939 
L 376.39525 -301.087137 
L 376.578468 -296.314884 
L 376.711993 -291.542631 
L 376.780969 -286.770378 
L 376.771926 -281.998125 
L 376.674183 -277.225872 
L 376.480841 -272.453619 
L 376.18921 -267.681366 
L 375.800582 -262.909112 
L 375.319345 -258.136859 
L 374.751567 -253.364606 
L 374.103303 -248.592353 
L 373.378947 -243.8201 
L 372.579989 -239.047847 
L 371.704502 -234.275594 
L 370.747531 -229.503341 
L 369.702416 -224.731088 
L 368.562847 -219.958834 
L 367.325312 -215.186581 
L 365.991458 -210.414328 
L 364.569881 -205.642075 
L 363.076952 -200.869822 
L 361.536471 -196.097569 
L 359.978135 -191.325316 
L 358.435081 -186.553063 
L 356.940906 -181.78081 
L 355.526647 -177.008556 
L 354.218213 -172.236303 
L 353.034603 -167.46405 
L 351.987086 -162.691797 
L 351.079345 -157.919544 
L 350.308393 -153.147291 
L 349.665989 -148.375038 
L 349.140281 -143.602785 
L 348.717386 -138.830531 
L 348.382742 -134.058278 
L 348.122136 -129.286025 
L 347.922386 -124.513772 
L 347.77173 -119.741519 
L 347.659981 -114.969266 
L 347.578532 -110.197013 
L 347.520256 -105.42476 
z
" style="stroke: #3f3f3f; stroke-width: 1.25"/>
    </defs>
    <g clip-path="url(#p3e177ef47e)">
     <use xlink:href="#m70c5f20588" x="0" y="720" style="fill: #3274a1; stroke: #3f3f3f; stroke-width: 1.25"/>
    </g>
   </g>
   <g id="PolyCollection_3">
    <defs>
     <path id="m812ac3a28f" d="M 459.233834 -104.626417 
L 458.766166 -104.626417 
L 458.654258 -109.241928 
L 458.499994 -113.857438 
L 458.292363 -118.472948 
L 458.019354 -123.088458 
L 457.668456 -127.703969 
L 457.227307 -132.319479 
L 456.684423 -136.934989 
L 456.029952 -141.550499 
L 455.256378 -146.166009 
L 454.359089 -150.78152 
L 453.336792 -155.39703 
L 452.191719 -160.01254 
L 450.929659 -164.62805 
L 449.559836 -169.243561 
L 448.094652 -173.859071 
L 446.549347 -178.474581 
L 444.941545 -183.090091 
L 443.290711 -187.705602 
L 441.617467 -192.321112 
L 439.942794 -196.936622 
L 438.287143 -201.552132 
L 436.669547 -206.167642 
L 435.106883 -210.783153 
L 433.613424 -215.398663 
L 432.20081 -220.014173 
L 430.878518 -224.629683 
L 429.654749 -229.245194 
L 428.537598 -233.860704 
L 427.53621 -238.476214 
L 426.661628 -243.091724 
L 425.927047 -247.707235 
L 425.347271 -252.322745 
L 424.93737 -256.938255 
L 424.71066 -261.553765 
L 424.67635 -266.169275 
L 424.837248 -270.784786 
L 425.187997 -275.400296 
L 425.714221 -280.015806 
L 426.392822 -284.631316 
L 427.193483 -289.246827 
L 428.08122 -293.862337 
L 429.019636 -298.477847 
L 429.974417 -303.093357 
L 430.916577 -307.708868 
L 431.824977 -312.324378 
L 432.687806 -316.939888 
L 433.502839 -321.555398 
L 434.276509 -326.170908 
L 435.021969 -330.786419 
L 435.756473 -335.401929 
L 436.498459 -340.017439 
L 437.264722 -344.632949 
L 438.068036 -349.24846 
L 438.915469 -353.86397 
L 439.807534 -358.47948 
L 440.738177 -363.09499 
L 441.695508 -367.710501 
L 442.663098 -372.326011 
L 443.621607 -376.941521 
L 444.550553 -381.557031 
L 445.430018 -386.172541 
L 446.242196 -390.788052 
L 446.972699 -395.403562 
L 447.611612 -400.019072 
L 448.154257 -404.634582 
L 448.601651 -409.250093 
L 448.96058 -413.865603 
L 449.243232 -418.481113 
L 449.466325 -423.096623 
L 449.649727 -427.712133 
L 449.814672 -432.327644 
L 449.981746 -436.943154 
L 450.168909 -441.558664 
L 450.389865 -446.174174 
L 450.653025 -450.789685 
L 450.961241 -455.405195 
L 451.312325 -460.020705 
L 451.700223 -464.636215 
L 452.116577 -469.251726 
L 452.552367 -473.867236 
L 452.9993 -478.482746 
L 453.450722 -483.098256 
L 453.901945 -487.713766 
L 454.350015 -492.329277 
L 454.793078 -496.944787 
L 455.229576 -501.560297 
L 455.657498 -506.175807 
L 456.073885 -510.791318 
L 456.474692 -515.406828 
L 456.855016 -520.022338 
L 457.209605 -524.637848 
L 457.533513 -529.253359 
L 457.822749 -533.868869 
L 458.074774 -538.484379 
L 458.288777 -543.099889 
L 458.465689 -547.715399 
L 458.607973 -552.33091 
L 458.719251 -556.94642 
L 458.80385 -561.56193 
L 459.19615 -561.56193 
L 459.19615 -561.56193 
L 459.280749 -556.94642 
L 459.392027 -552.33091 
L 459.534311 -547.715399 
L 459.711223 -543.099889 
L 459.925226 -538.484379 
L 460.177251 -533.868869 
L 460.466487 -529.253359 
L 460.790395 -524.637848 
L 461.144984 -520.022338 
L 461.525308 -515.406828 
L 461.926115 -510.791318 
L 462.342502 -506.175807 
L 462.770424 -501.560297 
L 463.206922 -496.944787 
L 463.649985 -492.329277 
L 464.098055 -487.713766 
L 464.549278 -483.098256 
L 465.0007 -478.482746 
L 465.447633 -473.867236 
L 465.883423 -469.251726 
L 466.299777 -464.636215 
L 466.687675 -460.020705 
L 467.038759 -455.405195 
L 467.346975 -450.789685 
L 467.610135 -446.174174 
L 467.831091 -441.558664 
L 468.018254 -436.943154 
L 468.185328 -432.327644 
L 468.350273 -427.712133 
L 468.533675 -423.096623 
L 468.756768 -418.481113 
L 469.03942 -413.865603 
L 469.398349 -409.250093 
L 469.845743 -404.634582 
L 470.388388 -400.019072 
L 471.027301 -395.403562 
L 471.757804 -390.788052 
L 472.569982 -386.172541 
L 473.449447 -381.557031 
L 474.378393 -376.941521 
L 475.336902 -372.326011 
L 476.304492 -367.710501 
L 477.261823 -363.09499 
L 478.192466 -358.47948 
L 479.084531 -353.86397 
L 479.931964 -349.24846 
L 480.735278 -344.632949 
L 481.501541 -340.017439 
L 482.243527 -335.401929 
L 482.978031 -330.786419 
L 483.723491 -326.170908 
L 484.497161 -321.555398 
L 485.312194 -316.939888 
L 486.175023 -312.324378 
L 487.083423 -307.708868 
L 488.025583 -303.093357 
L 488.980364 -298.477847 
L 489.91878 -293.862337 
L 490.806517 -289.246827 
L 491.607178 -284.631316 
L 492.285779 -280.015806 
L 492.812003 -275.400296 
L 493.162752 -270.784786 
L 493.32365 -266.169275 
L 493.28934 -261.553765 
L 493.06263 -256.938255 
L 492.652729 -252.322745 
L 492.072953 -247.707235 
L 491.338372 -243.091724 
L 490.46379 -238.476214 
L 489.462402 -233.860704 
L 488.345251 -229.245194 
L 487.121482 -224.629683 
L 485.79919 -220.014173 
L 484.386576 -215.398663 
L 482.893117 -210.783153 
L 481.330453 -206.167642 
L 479.712857 -201.552132 
L 478.057206 -196.936622 
L 476.382533 -192.321112 
L 474.709289 -187.705602 
L 473.058455 -183.090091 
L 471.450653 -178.474581 
L 469.905348 -173.859071 
L 468.440164 -169.243561 
L 467.070341 -164.62805 
L 465.808281 -160.01254 
L 464.663208 -155.39703 
L 463.640911 -150.78152 
L 462.743622 -146.166009 
L 461.970048 -141.550499 
L 461.315577 -136.934989 
L 460.772693 -132.319479 
L 460.331544 -127.703969 
L 459.980646 -123.088458 
L 459.707637 -118.472948 
L 459.500006 -113.857438 
L 459.345742 -109.241928 
L 459.233834 -104.626417 
z
" style="stroke: #3f3f3f; stroke-width: 1.25"/>
    </defs>
    <g clip-path="url(#p3e177ef47e)">
     <use xlink:href="#m812ac3a28f" x="0" y="720" style="fill: #3274a1; stroke: #3f3f3f; stroke-width: 1.25"/>
    </g>
   </g>
   <g id="PolyCollection_4">
    <defs>
     <path id="m724eb159ab" d="M 570.877493 -104.4 
L 570.322507 -104.4 
L 570.186113 -109.020084 
L 569.99634 -113.640169 
L 569.738726 -118.260253 
L 569.397457 -122.880337 
L 568.95615 -127.500422 
L 568.398914 -132.120506 
L 567.71157 -136.74059 
L 566.882929 -141.360675 
L 565.905939 -145.980759 
L 564.778533 -150.600843 
L 563.504027 -155.220928 
L 562.091002 -159.841012 
L 560.552681 -164.461096 
L 558.905916 -169.08118 
L 557.169989 -173.701265 
L 555.365452 -178.321349 
L 553.513214 -182.941433 
L 551.634032 -187.561518 
L 549.748419 -192.181602 
L 547.876909 -196.801686 
L 546.04051 -201.421771 
L 544.26114 -206.041855 
L 542.561874 -210.661939 
L 540.966842 -215.282024 
L 539.50076 -219.902108 
L 538.188103 -224.522192 
L 537.052024 -229.142277 
L 536.113148 -233.762361 
L 535.388375 -238.382445 
L 534.889815 -243.00253 
L 534.623956 -247.622614 
L 534.591123 -252.242698 
L 534.785277 -256.862783 
L 535.194135 -261.482867 
L 535.799613 -266.102951 
L 536.578515 -270.723035 
L 537.503429 -275.34312 
L 538.543775 -279.963204 
L 539.666935 -284.583288 
L 540.83948 -289.203373 
L 542.028446 -293.823457 
L 543.202688 -298.443541 
L 544.334281 -303.063626 
L 545.399944 -307.68371 
L 546.382397 -312.303794 
L 547.27154 -316.923879 
L 548.065288 -321.543963 
L 548.769894 -326.164047 
L 549.3996 -330.784132 
L 549.975518 -335.404216 
L 550.52374 -340.0243 
L 551.07277 -344.644385 
L 551.65053 -349.264469 
L 552.281245 -353.884553 
L 552.982605 -358.504638 
L 553.763556 -363.124722 
L 554.623026 -367.744806 
L 555.549758 -372.36489 
L 556.52327 -376.984975 
L 557.515843 -381.605059 
L 558.495292 -386.225143 
L 559.428215 -390.845228 
L 560.283366 -395.465312 
L 561.034798 -400.085396 
L 561.66445 -404.705481 
L 562.16389 -409.325565 
L 562.535027 -413.945649 
L 562.789682 -418.565734 
L 562.948061 -423.185818 
L 563.036303 -427.805902 
L 563.083432 -432.425987 
L 563.118111 -437.046071 
L 563.165677 -441.666155 
L 563.245855 -446.28624 
L 563.37146 -450.906324 
L 563.548194 -455.526408 
L 563.775469 -460.146493 
L 564.047977 -464.766577 
L 564.357653 -469.386661 
L 564.695607 -474.006746 
L 565.053673 -478.62683 
L 565.425361 -483.246914 
L 565.806122 -487.866998 
L 566.193023 -492.487083 
L 566.584029 -497.107167 
L 566.977148 -501.727251 
L 567.369689 -506.347336 
L 567.757819 -510.96742 
L 568.136507 -515.587504 
L 568.499831 -520.207589 
L 568.841574 -524.827673 
L 569.155921 -529.447757 
L 569.438143 -534.067842 
L 569.685097 -538.687926 
L 569.895495 -543.30801 
L 570.069894 -547.928095 
L 570.210472 -552.548179 
L 570.320627 -557.168263 
L 570.404519 -561.788348 
L 570.795481 -561.788348 
L 570.795481 -561.788348 
L 570.879373 -557.168263 
L 570.989528 -552.548179 
L 571.130106 -547.928095 
L 571.304505 -543.30801 
L 571.514903 -538.687926 
L 571.761857 -534.067842 
L 572.044079 -529.447757 
L 572.358426 -524.827673 
L 572.700169 -520.207589 
L 573.063493 -515.587504 
L 573.442181 -510.96742 
L 573.830311 -506.347336 
L 574.222852 -501.727251 
L 574.615971 -497.107167 
L 575.006977 -492.487083 
L 575.393878 -487.866998 
L 575.774639 -483.246914 
L 576.146327 -478.62683 
L 576.504393 -474.006746 
L 576.842347 -469.386661 
L 577.152023 -464.766577 
L 577.424531 -460.146493 
L 577.651806 -455.526408 
L 577.82854 -450.906324 
L 577.954145 -446.28624 
L 578.034323 -441.666155 
L 578.081889 -437.046071 
L 578.116568 -432.425987 
L 578.163697 -427.805902 
L 578.251939 -423.185818 
L 578.410318 -418.565734 
L 578.664973 -413.945649 
L 579.03611 -409.325565 
L 579.53555 -404.705481 
L 580.165202 -400.085396 
L 580.916634 -395.465312 
L 581.771785 -390.845228 
L 582.704708 -386.225143 
L 583.684157 -381.605059 
L 584.67673 -376.984975 
L 585.650242 -372.36489 
L 586.576974 -367.744806 
L 587.436444 -363.124722 
L 588.217395 -358.504638 
L 588.918755 -353.884553 
L 589.54947 -349.264469 
L 590.12723 -344.644385 
L 590.67626 -340.0243 
L 591.224482 -335.404216 
L 591.8004 -330.784132 
L 592.430106 -326.164047 
L 593.134712 -321.543963 
L 593.92846 -316.923879 
L 594.817603 -312.303794 
L 595.800056 -307.68371 
L 596.865719 -303.063626 
L 597.997312 -298.443541 
L 599.171554 -293.823457 
L 600.36052 -289.203373 
L 601.533065 -284.583288 
L 602.656225 -279.963204 
L 603.696571 -275.34312 
L 604.621485 -270.723035 
L 605.400387 -266.102951 
L 606.005865 -261.482867 
L 606.414723 -256.862783 
L 606.608877 -252.242698 
L 606.576044 -247.622614 
L 606.310185 -243.00253 
L 605.811625 -238.382445 
L 605.086852 -233.762361 
L 604.147976 -229.142277 
L 603.011897 -224.522192 
L 601.69924 -219.902108 
L 600.233158 -215.282024 
L 598.638126 -210.661939 
L 596.93886 -206.041855 
L 595.15949 -201.421771 
L 593.323091 -196.801686 
L 591.451581 -192.181602 
L 589.565968 -187.561518 
L 587.686786 -182.941433 
L 585.834548 -178.321349 
L 584.030011 -173.701265 
L 582.294084 -169.08118 
L 580.647319 -164.461096 
L 579.108998 -159.841012 
L 577.695973 -155.220928 
L 576.421467 -150.600843 
L 575.294061 -145.980759 
L 574.317071 -141.360675 
L 573.48843 -136.74059 
L 572.801086 -132.120506 
L 572.24385 -127.500422 
L 571.802543 -122.880337 
L 571.461274 -118.260253 
L 571.20366 -113.640169 
L 571.013887 -109.020084 
L 570.877493 -104.4 
z
" style="stroke: #3f3f3f; stroke-width: 1.25"/>
    </defs>
    <g clip-path="url(#p3e177ef47e)">
     <use xlink:href="#m724eb159ab" x="0" y="720" style="fill: #3274a1; stroke: #3f3f3f; stroke-width: 1.25"/>
    </g>
   </g>
   <g id="PolyCollection_5">
    <defs>
     <path id="mbc6e944de4" d="M 682.468093 -106.442434 
L 681.931907 -106.442434 
L 681.79562 -111.021257 
L 681.603994 -115.60008 
L 681.341263 -120.178903 
L 680.9899 -124.757726 
L 680.531398 -129.33655 
L 679.947367 -133.915373 
L 679.220859 -138.494196 
L 678.337789 -143.073019 
L 677.288272 -147.651842 
L 676.067678 -152.230665 
L 674.677217 -156.809488 
L 673.123978 -161.388311 
L 671.420392 -165.967134 
L 669.583262 -170.545957 
L 667.632577 -175.12478 
L 665.590386 -179.703603 
L 663.480007 -184.282426 
L 661.325744 -188.861249 
L 659.153159 -193.440072 
L 656.98976 -198.018895 
L 654.865849 -202.597718 
L 652.815186 -207.176541 
L 650.875108 -211.755364 
L 649.085859 -216.334187 
L 647.489012 -220.91301 
L 646.125054 -225.491833 
L 645.030374 -230.070656 
L 644.234051 -234.649479 
L 643.754888 -239.228302 
L 643.599171 -243.807125 
L 643.759512 -248.385948 
L 644.21504 -252.964771 
L 644.93295 -257.543594 
L 645.871228 -262.122417 
L 646.982179 -266.70124 
L 648.21624 -271.280063 
L 649.525539 -275.858886 
L 650.866734 -280.437709 
L 652.202851 -285.016532 
L 653.504025 -289.595355 
L 654.747318 -294.174178 
L 655.915917 -298.753001 
L 656.998114 -303.331824 
L 657.986458 -307.910647 
L 658.877325 -312.48947 
L 659.671007 -317.068293 
L 660.372223 -321.647116 
L 660.990765 -326.225939 
L 661.541959 -330.804762 
L 662.046552 -335.383585 
L 662.529812 -339.962408 
L 663.019727 -344.541231 
L 663.544466 -349.120054 
L 664.129397 -353.698877 
L 664.794113 -358.2777 
L 665.549936 -362.856523 
L 666.398296 -367.435346 
L 667.330228 -372.014169 
L 668.327068 -376.592992 
L 669.362213 -381.171815 
L 670.403721 -385.750638 
L 671.41741 -390.329462 
L 672.370114 -394.908285 
L 673.232771 -399.487108 
L 673.98306 -404.065931 
L 674.607334 -408.644754 
L 675.101669 -413.223577 
L 675.471918 -417.8024 
L 675.732727 -422.381223 
L 675.905614 -426.960046 
L 676.016343 -431.538869 
L 676.091907 -436.117692 
L 676.157574 -440.696515 
L 676.23439 -445.275338 
L 676.337512 -449.854161 
L 676.475548 -454.432984 
L 676.65094 -459.011807 
L 676.861179 -463.59063 
L 677.100549 -468.169453 
L 677.362004 -472.748276 
L 677.638791 -477.327099 
L 677.925577 -481.905922 
L 678.218911 -486.484745 
L 678.517078 -491.063568 
L 678.819485 -495.642391 
L 679.125805 -500.221214 
L 679.435145 -504.800037 
L 679.745437 -509.37886 
L 680.053191 -513.957683 
L 680.353632 -518.536506 
L 680.641179 -523.115329 
L 680.910115 -527.694152 
L 681.155311 -532.272975 
L 681.372841 -536.851798 
L 681.560392 -541.430621 
L 681.717401 -546.009444 
L 681.844951 -550.588267 
L 681.945464 -555.16709 
L 682.022278 -559.745913 
L 682.377722 -559.745913 
L 682.377722 -559.745913 
L 682.454536 -555.16709 
L 682.555049 -550.588267 
L 682.682599 -546.009444 
L 682.839608 -541.430621 
L 683.027159 -536.851798 
L 683.244689 -532.272975 
L 683.489885 -527.694152 
L 683.758821 -523.115329 
L 684.046368 -518.536506 
L 684.346809 -513.957683 
L 684.654563 -509.37886 
L 684.964855 -504.800037 
L 685.274195 -500.221214 
L 685.580515 -495.642391 
L 685.882922 -491.063568 
L 686.181089 -486.484745 
L 686.474423 -481.905922 
L 686.761209 -477.327099 
L 687.037996 -472.748276 
L 687.299451 -468.169453 
L 687.538821 -463.59063 
L 687.74906 -459.011807 
L 687.924452 -454.432984 
L 688.062488 -449.854161 
L 688.16561 -445.275338 
L 688.242426 -440.696515 
L 688.308093 -436.117692 
L 688.383657 -431.538869 
L 688.494386 -426.960046 
L 688.667273 -422.381223 
L 688.928082 -417.8024 
L 689.298331 -413.223577 
L 689.792666 -408.644754 
L 690.41694 -404.065931 
L 691.167229 -399.487108 
L 692.029886 -394.908285 
L 692.98259 -390.329462 
L 693.996279 -385.750638 
L 695.037787 -381.171815 
L 696.072932 -376.592992 
L 697.069772 -372.014169 
L 698.001704 -367.435346 
L 698.850064 -362.856523 
L 699.605887 -358.2777 
L 700.270603 -353.698877 
L 700.855534 -349.120054 
L 701.380273 -344.541231 
L 701.870188 -339.962408 
L 702.353448 -335.383585 
L 702.858041 -330.804762 
L 703.409235 -326.225939 
L 704.027777 -321.647116 
L 704.728993 -317.068293 
L 705.522675 -312.48947 
L 706.413542 -307.910647 
L 707.401886 -303.331824 
L 708.484083 -298.753001 
L 709.652682 -294.174178 
L 710.895975 -289.595355 
L 712.197149 -285.016532 
L 713.533266 -280.437709 
L 714.874461 -275.858886 
L 716.18376 -271.280063 
L 717.417821 -266.70124 
L 718.528772 -262.122417 
L 719.46705 -257.543594 
L 720.18496 -252.964771 
L 720.640488 -248.385948 
L 720.800829 -243.807125 
L 720.645112 -239.228302 
L 720.165949 -234.649479 
L 719.369626 -230.070656 
L 718.274946 -225.491833 
L 716.910988 -220.91301 
L 715.314141 -216.334187 
L 713.524892 -211.755364 
L 711.584814 -207.176541 
L 709.534151 -202.597718 
L 707.41024 -198.018895 
L 705.246841 -193.440072 
L 703.074256 -188.861249 
L 700.919993 -184.282426 
L 698.809614 -179.703603 
L 696.767423 -175.12478 
L 694.816738 -170.545957 
L 692.979608 -165.967134 
L 691.276022 -161.388311 
L 689.722783 -156.809488 
L 688.332322 -152.230665 
L 687.111728 -147.651842 
L 686.062211 -143.073019 
L 685.179141 -138.494196 
L 684.452633 -133.915373 
L 683.868602 -129.33655 
L 683.4101 -124.757726 
L 683.058737 -120.178903 
L 682.796006 -115.60008 
L 682.60438 -111.021257 
L 682.468093 -106.442434 
z
" style="stroke: #3f3f3f; stroke-width: 1.25"/>
    </defs>
    <g clip-path="url(#p3e177ef47e)">
     <use xlink:href="#mbc6e944de4" x="0" y="720" style="fill: #3274a1; stroke: #3f3f3f; stroke-width: 1.25"/>
    </g>
   </g>
   <g id="PolyCollection_6">
    <defs>
     <path id="m20f5eb8f95" d="M 794.12752 -107.536818 
L 793.47248 -107.536818 
L 793.308856 -112.093533 
L 793.081707 -116.650247 
L 792.774867 -121.206961 
L 792.371305 -125.763675 
L 791.854128 -130.32039 
L 791.207737 -134.877104 
L 790.418942 -139.433818 
L 789.477861 -143.990532 
L 788.378429 -148.547247 
L 787.118416 -153.103961 
L 785.69898 -157.660675 
L 784.123885 -162.217389 
L 782.398661 -166.774104 
L 780.530028 -171.330818 
L 778.525869 -175.887532 
L 776.395971 -180.444246 
L 774.153515 -185.000961 
L 771.817095 -189.557675 
L 769.412852 -194.114389 
L 766.976161 -198.671103 
L 764.552325 -203.227818 
L 762.195848 -207.784532 
L 759.968111 -212.341246 
L 757.933563 -216.89796 
L 756.154842 -221.454675 
L 754.687454 -226.011389 
L 753.574753 -230.568103 
L 752.843919 -235.124817 
L 752.503531 -239.681532 
L 752.543061 -244.238246 
L 752.934393 -248.79496 
L 753.635156 -253.351674 
L 754.59343 -257.908389 
L 755.75317 -262.465103 
L 757.059587 -267.021817 
L 758.46371 -271.578531 
L 759.925495 -276.135246 
L 761.41508 -280.69196 
L 762.912135 -285.248674 
L 764.403625 -289.805388 
L 765.880588 -294.362103 
L 767.334748 -298.918817 
L 768.75575 -303.475531 
L 770.129663 -308.032245 
L 771.439053 -312.58896 
L 772.664582 -317.145674 
L 773.787706 -321.702388 
L 774.793831 -326.259102 
L 775.675179 -330.815817 
L 776.432743 -335.372531 
L 777.0769 -339.929245 
L 777.626591 -344.485959 
L 778.10727 -349.042674 
L 778.548013 -353.599388 
L 778.978343 -358.156102 
L 779.425218 -362.712816 
L 779.910588 -367.269531 
L 780.449696 -371.826245 
L 781.050177 -376.382959 
L 781.711886 -380.939673 
L 782.427339 -385.496388 
L 783.182676 -390.053102 
L 783.959045 -394.609816 
L 784.734351 -399.16653 
L 785.485291 -403.723245 
L 786.189531 -408.279959 
L 786.827834 -412.836673 
L 787.385906 -417.393387 
L 787.855684 -421.950102 
L 788.235894 -426.506816 
L 788.531767 -431.06353 
L 788.753973 -435.620244 
L 788.916953 -440.176959 
L 789.03697 -444.733673 
L 789.13019 -449.290387 
L 789.211126 -453.847101 
L 789.29163 -458.403816 
L 789.380527 -462.96053 
L 789.483804 -467.517244 
L 789.605182 -472.073958 
L 789.746836 -476.630673 
L 789.910035 -481.187387 
L 790.095537 -485.744101 
L 790.303665 -490.300815 
L 790.5341 -494.85753 
L 790.785515 -499.414244 
L 791.05519 -503.970958 
L 791.338786 -508.527672 
L 791.630382 -513.084387 
L 791.922815 -517.641101 
L 792.208287 -522.197815 
L 792.479127 -526.754529 
L 792.728567 -531.311244 
L 792.951386 -535.867958 
L 793.144323 -540.424672 
L 793.306197 -544.981386 
L 793.437758 -549.538101 
L 793.541317 -554.094815 
L 793.620263 -558.651529 
L 793.979737 -558.651529 
L 793.979737 -558.651529 
L 794.058683 -554.094815 
L 794.162242 -549.538101 
L 794.293803 -544.981386 
L 794.455677 -540.424672 
L 794.648614 -535.867958 
L 794.871433 -531.311244 
L 795.120873 -526.754529 
L 795.391713 -522.197815 
L 795.677185 -517.641101 
L 795.969618 -513.084387 
L 796.261214 -508.527672 
L 796.54481 -503.970958 
L 796.814485 -499.414244 
L 797.0659 -494.85753 
L 797.296335 -490.300815 
L 797.504463 -485.744101 
L 797.689965 -481.187387 
L 797.853164 -476.630673 
L 797.994818 -472.073958 
L 798.116196 -467.517244 
L 798.219473 -462.96053 
L 798.30837 -458.403816 
L 798.388874 -453.847101 
L 798.46981 -449.290387 
L 798.56303 -444.733673 
L 798.683047 -440.176959 
L 798.846027 -435.620244 
L 799.068233 -431.06353 
L 799.364106 -426.506816 
L 799.744316 -421.950102 
L 800.214094 -417.393387 
L 800.772166 -412.836673 
L 801.410469 -408.279959 
L 802.114709 -403.723245 
L 802.865649 -399.16653 
L 803.640955 -394.609816 
L 804.417324 -390.053102 
L 805.172661 -385.496388 
L 805.888114 -380.939673 
L 806.549823 -376.382959 
L 807.150304 -371.826245 
L 807.689412 -367.269531 
L 808.174782 -362.712816 
L 808.621657 -358.156102 
L 809.051987 -353.599388 
L 809.49273 -349.042674 
L 809.973409 -344.485959 
L 810.5231 -339.929245 
L 811.167257 -335.372531 
L 811.924821 -330.815817 
L 812.806169 -326.259102 
L 813.812294 -321.702388 
L 814.935418 -317.145674 
L 816.160947 -312.58896 
L 817.470337 -308.032245 
L 818.84425 -303.475531 
L 820.265252 -298.918817 
L 821.719412 -294.362103 
L 823.196375 -289.805388 
L 824.687865 -285.248674 
L 826.18492 -280.69196 
L 827.674505 -276.135246 
L 829.13629 -271.578531 
L 830.540413 -267.021817 
L 831.84683 -262.465103 
L 833.00657 -257.908389 
L 833.964844 -253.351674 
L 834.665607 -248.79496 
L 835.056939 -244.238246 
L 835.096469 -239.681532 
L 834.756081 -235.124817 
L 834.025247 -230.568103 
L 832.912546 -226.011389 
L 831.445158 -221.454675 
L 829.666437 -216.89796 
L 827.631889 -212.341246 
L 825.404152 -207.784532 
L 823.047675 -203.227818 
L 820.623839 -198.671103 
L 818.187148 -194.114389 
L 815.782905 -189.557675 
L 813.446485 -185.000961 
L 811.204029 -180.444246 
L 809.074131 -175.887532 
L 807.069972 -171.330818 
L 805.201339 -166.774104 
L 803.476115 -162.217389 
L 801.90102 -157.660675 
L 800.481584 -153.103961 
L 799.221571 -148.547247 
L 798.122139 -143.990532 
L 797.181058 -139.433818 
L 796.392263 -134.877104 
L 795.745872 -130.32039 
L 795.228695 -125.763675 
L 794.825133 -121.206961 
L 794.518293 -116.650247 
L 794.291144 -112.093533 
L 794.12752 -107.536818 
z
" style="stroke: #3f3f3f; stroke-width: 1.25"/>
    </defs>
    <g clip-path="url(#p3e177ef47e)">
     <use xlink:href="#m20f5eb8f95" x="0" y="720" style="fill: #3274a1; stroke: #3f3f3f; stroke-width: 1.25"/>
    </g>
   </g>
   <g id="PolyCollection_7">
    <defs>
     <path id="mc6582fb595" d="M 905.713607 -107.824358 
L 905.086393 -107.824358 
L 904.924737 -112.375264 
L 904.697175 -116.926169 
L 904.385223 -121.477074 
L 903.968562 -126.02798 
L 903.426003 -130.578885 
L 902.736754 -135.12979 
L 901.881846 -139.680696 
L 900.845562 -144.231601 
L 899.616658 -148.782506 
L 898.189184 -153.333412 
L 896.562813 -157.884317 
L 894.742647 -162.435223 
L 892.738639 -166.986128 
L 890.564884 -171.537033 
L 888.239078 -176.087939 
L 885.782474 -180.638844 
L 883.220495 -185.189749 
L 880.58401 -189.740655 
L 877.911004 -194.29156 
L 875.248125 -198.842466 
L 872.651479 -203.393371 
L 870.18604 -207.944276 
L 867.923218 -212.495182 
L 865.936506 -217.046087 
L 864.295547 -221.596992 
L 863.059365 -226.147898 
L 862.269843 -230.698803 
L 861.946565 -235.249708 
L 862.084023 -239.800614 
L 862.651798 -244.351519 
L 863.597808 -248.902425 
L 864.854168 -253.45333 
L 866.344725 -258.004235 
L 867.993036 -262.555141 
L 869.729505 -267.106046 
L 871.4966 -271.656951 
L 873.251463 -276.207857 
L 874.965786 -280.758762 
L 876.623355 -285.309667 
L 878.216091 -289.860573 
L 879.739677 -294.411478 
L 881.189784 -298.962384 
L 882.559694 -303.513289 
L 883.8397 -308.064194 
L 885.018171 -312.6151 
L 886.083837 -317.166005 
L 887.028549 -321.71691 
L 887.849774 -326.267816 
L 888.552205 -330.818721 
L 889.148148 -335.369626 
L 889.656666 -339.920532 
L 890.101717 -344.471437 
L 890.509753 -349.022343 
L 890.90721 -353.573248 
L 891.318318 -358.124153 
L 891.763435 -362.675059 
L 892.257956 -367.225964 
L 892.8117 -371.776869 
L 893.428617 -376.327775 
L 894.106697 -380.87868 
L 894.838025 -385.429585 
L 895.609073 -389.980491 
L 896.401354 -394.531396 
L 897.192564 -399.082302 
L 897.958286 -403.633207 
L 898.674141 -408.184112 
L 899.31819 -412.735018 
L 899.873226 -417.285923 
L 900.328592 -421.836828 
L 900.681216 -426.387734 
L 900.935666 -430.938639 
L 901.103236 -435.489545 
L 901.200232 -440.04045 
L 901.245777 -444.591355 
L 901.259542 -449.142261 
L 901.259758 -453.693166 
L 901.261794 -458.244071 
L 901.277444 -462.794977 
L 901.314894 -467.345882 
L 901.379191 -471.896787 
L 901.473008 -476.447693 
L 901.597409 -480.998598 
L 901.752438 -485.549504 
L 901.9374 -490.100409 
L 902.150837 -494.651314 
L 902.390293 -499.20222 
L 902.65202 -503.753125 
L 902.930783 -508.30403 
L 903.219904 -512.854936 
L 903.511589 -517.405841 
L 903.797508 -521.956746 
L 904.069554 -526.507652 
L 904.320599 -531.058557 
L 904.545143 -535.609463 
L 904.739722 -540.160368 
L 904.903026 -544.711273 
L 905.03574 -549.262179 
L 905.140161 -553.813084 
L 905.219703 -558.363989 
L 905.580297 -558.363989 
L 905.580297 -558.363989 
L 905.659839 -553.813084 
L 905.76426 -549.262179 
L 905.896974 -544.711273 
L 906.060278 -540.160368 
L 906.254857 -535.609463 
L 906.479401 -531.058557 
L 906.730446 -526.507652 
L 907.002492 -521.956746 
L 907.288411 -517.405841 
L 907.580096 -512.854936 
L 907.869217 -508.30403 
L 908.14798 -503.753125 
L 908.409707 -499.20222 
L 908.649163 -494.651314 
L 908.8626 -490.100409 
L 909.047562 -485.549504 
L 909.202591 -480.998598 
L 909.326992 -476.447693 
L 909.420809 -471.896787 
L 909.485106 -467.345882 
L 909.522556 -462.794977 
L 909.538206 -458.244071 
L 909.540242 -453.693166 
L 909.540458 -449.142261 
L 909.554223 -444.591355 
L 909.599768 -440.04045 
L 909.696764 -435.489545 
L 909.864334 -430.938639 
L 910.118784 -426.387734 
L 910.471408 -421.836828 
L 910.926774 -417.285923 
L 911.48181 -412.735018 
L 912.125859 -408.184112 
L 912.841714 -403.633207 
L 913.607436 -399.082302 
L 914.398646 -394.531396 
L 915.190927 -389.980491 
L 915.961975 -385.429585 
L 916.693303 -380.87868 
L 917.371383 -376.327775 
L 917.9883 -371.776869 
L 918.542044 -367.225964 
L 919.036565 -362.675059 
L 919.481682 -358.124153 
L 919.89279 -353.573248 
L 920.290247 -349.022343 
L 920.698283 -344.471437 
L 921.143334 -339.920532 
L 921.651852 -335.369626 
L 922.247795 -330.818721 
L 922.950226 -326.267816 
L 923.771451 -321.71691 
L 924.716163 -317.166005 
L 925.781829 -312.6151 
L 926.9603 -308.064194 
L 928.240306 -303.513289 
L 929.610216 -298.962384 
L 931.060323 -294.411478 
L 932.583909 -289.860573 
L 934.176645 -285.309667 
L 935.834214 -280.758762 
L 937.548537 -276.207857 
L 939.3034 -271.656951 
L 941.070495 -267.106046 
L 942.806964 -262.555141 
L 944.455275 -258.004235 
L 945.945832 -253.45333 
L 947.202192 -248.902425 
L 948.148202 -244.351519 
L 948.715977 -239.800614 
L 948.853435 -235.249708 
L 948.530157 -230.698803 
L 947.740635 -226.147898 
L 946.504453 -221.596992 
L 944.863494 -217.046087 
L 942.876782 -212.495182 
L 940.61396 -207.944276 
L 938.148521 -203.393371 
L 935.551875 -198.842466 
L 932.888996 -194.29156 
L 930.21599 -189.740655 
L 927.579505 -185.189749 
L 925.017526 -180.638844 
L 922.560922 -176.087939 
L 920.235116 -171.537033 
L 918.061361 -166.986128 
L 916.057353 -162.435223 
L 914.237187 -157.884317 
L 912.610816 -153.333412 
L 911.183342 -148.782506 
L 909.954438 -144.231601 
L 908.918154 -139.680696 
L 908.063246 -135.12979 
L 907.373997 -130.578885 
L 906.831438 -126.02798 
L 906.414777 -121.477074 
L 906.102825 -116.926169 
L 905.875263 -112.375264 
L 905.713607 -107.824358 
z
" style="stroke: #3f3f3f; stroke-width: 1.25"/>
    </defs>
    <g clip-path="url(#p3e177ef47e)">
     <use xlink:href="#mc6582fb595" x="0" y="720" style="fill: #3274a1; stroke: #3f3f3f; stroke-width: 1.25"/>
    </g>
   </g>
   <g id="PolyCollection_8">
    <defs>
     <path id="m65ef1163b2" d="M 1017.367576 -109.682052 
L 1016.632424 -109.682052 
L 1016.435014 -114.185815 
L 1016.153825 -118.689577 
L 1015.764409 -123.19334 
L 1015.239805 -127.697103 
L 1014.551945 -132.200866 
L 1013.67355 -136.704629 
L 1012.580352 -141.208392 
L 1011.253413 -145.712155 
L 1009.68126 -150.215918 
L 1007.86154 -154.719681 
L 1005.801996 -159.223444 
L 1003.520618 -163.727207 
L 1001.044995 -168.230969 
L 998.411021 -172.734732 
L 995.66121 -177.238495 
L 992.842929 -181.742258 
L 990.006843 -186.246021 
L 987.20576 -190.749784 
L 984.493923 -195.253547 
L 981.926574 -199.75731 
L 979.559502 -204.261073 
L 977.44816 -208.764836 
L 975.645997 -213.268599 
L 974.201827 -217.772361 
L 973.156334 -222.276124 
L 972.538124 -226.779887 
L 972.36 -231.28365 
L 972.616269 -235.787413 
L 973.281783 -240.291176 
L 974.313165 -244.794939 
L 975.652263 -249.298702 
L 977.231403 -253.802465 
L 978.979685 -258.306228 
L 980.829285 -262.809991 
L 982.720781 -267.313753 
L 984.60667 -271.817516 
L 986.452661 -276.321279 
L 988.236734 -280.825042 
L 989.946442 -285.328805 
L 991.575205 -289.832568 
L 993.118528 -294.336331 
L 994.570986 -298.840094 
L 995.924578 -303.343857 
L 997.168674 -307.84762 
L 998.291419 -312.351383 
L 999.282112 -316.855145 
L 1000.133941 -321.358908 
L 1000.846401 -325.862671 
L 1001.426876 -330.366434 
L 1001.891076 -334.870197 
L 1002.262272 -339.37396 
L 1002.569514 -343.877723 
L 1002.845141 -348.381486 
L 1003.121996 -352.885249 
L 1003.430721 -357.389012 
L 1003.797399 -361.892775 
L 1004.241715 -366.396537 
L 1004.775679 -370.9003 
L 1005.402886 -375.404063 
L 1006.118281 -379.907826 
L 1006.908424 -384.411589 
L 1007.752309 -388.915352 
L 1008.622798 -393.419115 
L 1009.488707 -397.922878 
L 1010.317482 -402.426641 
L 1011.078258 -406.930404 
L 1011.744966 -411.434167 
L 1012.299061 -415.93793 
L 1012.731441 -420.441692 
L 1013.043223 -424.945455 
L 1013.245223 -429.449218 
L 1013.356202 -433.952981 
L 1013.400173 -438.456744 
L 1013.403203 -442.960507 
L 1013.390253 -447.46427 
L 1013.38255 -451.968033 
L 1013.395846 -456.471796 
L 1013.439749 -460.975559 
L 1013.518093 -465.479322 
L 1013.630078 -469.983084 
L 1013.771863 -474.486847 
L 1013.938183 -478.99061 
L 1014.123684 -483.494373 
L 1014.323742 -487.998136 
L 1014.534731 -492.501899 
L 1014.753819 -497.005662 
L 1014.978486 -501.509425 
L 1015.205996 -506.013188 
L 1015.433024 -510.516951 
L 1015.655543 -515.020714 
L 1015.869026 -519.524476 
L 1016.068863 -524.028239 
L 1016.250901 -528.532002 
L 1016.411935 -533.035765 
L 1016.550063 -537.539528 
L 1016.664823 -542.043291 
L 1016.757103 -546.547054 
L 1016.828887 -551.050817 
L 1016.882889 -555.55458 
L 1017.117111 -555.55458 
L 1017.117111 -555.55458 
L 1017.171113 -551.050817 
L 1017.242897 -546.547054 
L 1017.335177 -542.043291 
L 1017.449937 -537.539528 
L 1017.588065 -533.035765 
L 1017.749099 -528.532002 
L 1017.931137 -524.028239 
L 1018.130974 -519.524476 
L 1018.344457 -515.020714 
L 1018.566976 -510.516951 
L 1018.794004 -506.013188 
L 1019.021514 -501.509425 
L 1019.246181 -497.005662 
L 1019.465269 -492.501899 
L 1019.676258 -487.998136 
L 1019.876316 -483.494373 
L 1020.061817 -478.99061 
L 1020.228137 -474.486847 
L 1020.369922 -469.983084 
L 1020.481907 -465.479322 
L 1020.560251 -460.975559 
L 1020.604154 -456.471796 
L 1020.61745 -451.968033 
L 1020.609747 -447.46427 
L 1020.596797 -442.960507 
L 1020.599827 -438.456744 
L 1020.643798 -433.952981 
L 1020.754777 -429.449218 
L 1020.956777 -424.945455 
L 1021.268559 -420.441692 
L 1021.700939 -415.93793 
L 1022.255034 -411.434167 
L 1022.921742 -406.930404 
L 1023.682518 -402.426641 
L 1024.511293 -397.922878 
L 1025.377202 -393.419115 
L 1026.247691 -388.915352 
L 1027.091576 -384.411589 
L 1027.881719 -379.907826 
L 1028.597114 -375.404063 
L 1029.224321 -370.9003 
L 1029.758285 -366.396537 
L 1030.202601 -361.892775 
L 1030.569279 -357.389012 
L 1030.878004 -352.885249 
L 1031.154859 -348.381486 
L 1031.430486 -343.877723 
L 1031.737728 -339.37396 
L 1032.108924 -334.870197 
L 1032.573124 -330.366434 
L 1033.153599 -325.862671 
L 1033.866059 -321.358908 
L 1034.717888 -316.855145 
L 1035.708581 -312.351383 
L 1036.831326 -307.84762 
L 1038.075422 -303.343857 
L 1039.429014 -298.840094 
L 1040.881472 -294.336331 
L 1042.424795 -289.832568 
L 1044.053558 -285.328805 
L 1045.763266 -280.825042 
L 1047.547339 -276.321279 
L 1049.39333 -271.817516 
L 1051.279219 -267.313753 
L 1053.170715 -262.809991 
L 1055.020315 -258.306228 
L 1056.768597 -253.802465 
L 1058.347737 -249.298702 
L 1059.686835 -244.794939 
L 1060.718217 -240.291176 
L 1061.383731 -235.787413 
L 1061.64 -231.28365 
L 1061.461876 -226.779887 
L 1060.843666 -222.276124 
L 1059.798173 -217.772361 
L 1058.354003 -213.268599 
L 1056.55184 -208.764836 
L 1054.440498 -204.261073 
L 1052.073426 -199.75731 
L 1049.506077 -195.253547 
L 1046.79424 -190.749784 
L 1043.993157 -186.246021 
L 1041.157071 -181.742258 
L 1038.33879 -177.238495 
L 1035.588979 -172.734732 
L 1032.955005 -168.230969 
L 1030.479382 -163.727207 
L 1028.198004 -159.223444 
L 1026.13846 -154.719681 
L 1024.31874 -150.215918 
L 1022.746587 -145.712155 
L 1021.419648 -141.208392 
L 1020.32645 -136.704629 
L 1019.448055 -132.200866 
L 1018.760195 -127.697103 
L 1018.235591 -123.19334 
L 1017.846175 -118.689577 
L 1017.564986 -114.185815 
L 1017.367576 -109.682052 
z
" style="stroke: #3f3f3f; stroke-width: 1.25"/>
    </defs>
    <g clip-path="url(#p3e177ef47e)">
     <use xlink:href="#m65ef1163b2" x="0" y="720" style="fill: #3274a1; stroke: #3f3f3f; stroke-width: 1.25"/>
    </g>
   </g>
   <g id="PolyCollection_9">
    <defs>
     <path id="m13d79133e4" d="M 1128.929737 -109.499446 
L 1128.270263 -109.499446 
L 1128.085757 -114.006898 
L 1127.818668 -118.51435 
L 1127.442955 -123.021802 
L 1126.929253 -127.529254 
L 1126.246381 -132.036706 
L 1125.363551 -136.544158 
L 1124.253126 -141.05161 
L 1122.893664 -145.559062 
L 1121.272821 -150.066514 
L 1119.389686 -154.573965 
L 1117.256116 -159.081417 
L 1114.896811 -163.588869 
L 1112.348076 -168.096321 
L 1109.655479 -172.603773 
L 1106.870831 -177.111225 
L 1104.049055 -181.618677 
L 1101.24549 -186.126129 
L 1098.514042 -190.633581 
L 1095.90631 -195.141033 
L 1093.471531 -199.648484 
L 1091.256909 -204.155936 
L 1089.307802 -208.663388 
L 1087.667232 -213.17084 
L 1086.374401 -217.678292 
L 1085.462206 -222.185744 
L 1084.954041 -226.693196 
L 1084.860451 -231.200648 
L 1085.176333 -235.7081 
L 1085.879351 -240.215552 
L 1086.930064 -244.723004 
L 1088.274016 -249.230455 
L 1089.845661 -253.737907 
L 1091.573736 -258.245359 
L 1093.387346 -262.752811 
L 1095.221906 -267.260263 
L 1097.024029 -271.767715 
L 1098.754598 -276.275167 
L 1100.389582 -280.782619 
L 1101.918597 -285.290071 
L 1103.341633 -289.797523 
L 1104.66477 -294.304974 
L 1105.895848 -298.812426 
L 1107.041013 -303.319878 
L 1108.102763 -307.82733 
L 1109.079724 -312.334782 
L 1109.967958 -316.842234 
L 1110.76325 -321.349686 
L 1111.463709 -325.857138 
L 1112.071997 -330.36459 
L 1112.596695 -334.872042 
L 1113.052588 -339.379494 
L 1113.459863 -343.886945 
L 1113.842471 -348.394397 
L 1114.225975 -352.901849 
L 1114.635247 -357.409301 
L 1115.092279 -361.916753 
L 1115.614317 -366.424205 
L 1116.212399 -370.931657 
L 1116.890325 -375.439109 
L 1117.644096 -379.946561 
L 1118.461857 -384.454013 
L 1119.324444 -388.961464 
L 1120.206607 -393.468916 
L 1121.078951 -397.976368 
L 1121.910525 -402.48382 
L 1122.671835 -406.991272 
L 1123.337926 -411.498724 
L 1123.891106 -416.006176 
L 1124.322864 -420.513628 
L 1124.634666 -425.02108 
L 1124.837453 -429.528532 
L 1124.949934 -434.035984 
L 1124.995934 -438.543435 
L 1125.001264 -443.050887 
L 1124.990615 -447.558339 
L 1124.98498 -452.065791 
L 1124.999951 -456.573243 
L 1125.045074 -461.080695 
L 1125.124202 -465.588147 
L 1125.236622 -470.095599 
L 1125.378615 -474.603051 
L 1125.545037 -479.110503 
L 1125.73062 -483.617954 
L 1125.930787 -488.125406 
L 1126.141902 -492.632858 
L 1126.361087 -497.14031 
L 1126.585758 -501.647762 
L 1126.813117 -506.155214 
L 1127.039796 -510.662666 
L 1127.261761 -515.170118 
L 1127.474513 -519.67757 
L 1127.6735 -524.185022 
L 1127.854636 -528.692474 
L 1128.014791 -533.199925 
L 1128.152124 -537.707377 
L 1128.266212 -542.214829 
L 1128.357964 -546.722281 
L 1128.429362 -551.229733 
L 1128.483104 -555.737185 
L 1128.716896 -555.737185 
L 1128.716896 -555.737185 
L 1128.770638 -551.229733 
L 1128.842036 -546.722281 
L 1128.933788 -542.214829 
L 1129.047876 -537.707377 
L 1129.185209 -533.199925 
L 1129.345364 -528.692474 
L 1129.5265 -524.185022 
L 1129.725487 -519.67757 
L 1129.938239 -515.170118 
L 1130.160204 -510.662666 
L 1130.386883 -506.155214 
L 1130.614242 -501.647762 
L 1130.838913 -497.14031 
L 1131.058098 -492.632858 
L 1131.269213 -488.125406 
L 1131.46938 -483.617954 
L 1131.654963 -479.110503 
L 1131.821385 -474.603051 
L 1131.963378 -470.095599 
L 1132.075798 -465.588147 
L 1132.154926 -461.080695 
L 1132.200049 -456.573243 
L 1132.21502 -452.065791 
L 1132.209385 -447.558339 
L 1132.198736 -443.050887 
L 1132.204066 -438.543435 
L 1132.250066 -434.035984 
L 1132.362547 -429.528532 
L 1132.565334 -425.02108 
L 1132.877136 -420.513628 
L 1133.308894 -416.006176 
L 1133.862074 -411.498724 
L 1134.528165 -406.991272 
L 1135.289475 -402.48382 
L 1136.121049 -397.976368 
L 1136.993393 -393.468916 
L 1137.875556 -388.961464 
L 1138.738143 -384.454013 
L 1139.555904 -379.946561 
L 1140.309675 -375.439109 
L 1140.987601 -370.931657 
L 1141.585683 -366.424205 
L 1142.107721 -361.916753 
L 1142.564753 -357.409301 
L 1142.974025 -352.901849 
L 1143.357529 -348.394397 
L 1143.740137 -343.886945 
L 1144.147412 -339.379494 
L 1144.603305 -334.872042 
L 1145.128003 -330.36459 
L 1145.736291 -325.857138 
L 1146.43675 -321.349686 
L 1147.232042 -316.842234 
L 1148.120276 -312.334782 
L 1149.097237 -307.82733 
L 1150.158987 -303.319878 
L 1151.304152 -298.812426 
L 1152.53523 -294.304974 
L 1153.858367 -289.797523 
L 1155.281403 -285.290071 
L 1156.810418 -280.782619 
L 1158.445402 -276.275167 
L 1160.175971 -271.767715 
L 1161.978094 -267.260263 
L 1163.812654 -262.752811 
L 1165.626264 -258.245359 
L 1167.354339 -253.737907 
L 1168.925984 -249.230455 
L 1170.269936 -244.723004 
L 1171.320649 -240.215552 
L 1172.023667 -235.7081 
L 1172.339549 -231.200648 
L 1172.245959 -226.693196 
L 1171.737794 -222.185744 
L 1170.825599 -217.678292 
L 1169.532768 -213.17084 
L 1167.892198 -208.663388 
L 1165.943091 -204.155936 
L 1163.728469 -199.648484 
L 1161.29369 -195.141033 
L 1158.685958 -190.633581 
L 1155.95451 -186.126129 
L 1153.150945 -181.618677 
L 1150.329169 -177.111225 
L 1147.544521 -172.603773 
L 1144.851924 -168.096321 
L 1142.303189 -163.588869 
L 1139.943884 -159.081417 
L 1137.810314 -154.573965 
L 1135.927179 -150.066514 
L 1134.306336 -145.559062 
L 1132.946874 -141.05161 
L 1131.836449 -136.544158 
L 1130.953619 -132.036706 
L 1130.270747 -127.529254 
L 1129.757045 -123.021802 
L 1129.381332 -118.51435 
L 1129.114243 -114.006898 
L 1128.929737 -109.499446 
z
" style="stroke: #3f3f3f; stroke-width: 1.25"/>
    </defs>
    <g clip-path="url(#p3e177ef47e)">
     <use xlink:href="#m13d79133e4" x="0" y="720" style="fill: #3274a1; stroke: #3f3f3f; stroke-width: 1.25"/>
    </g>
   </g>
   <g id="PolyCollection_10">
    <defs>
     <path id="m0eaaedcd52" d="M 1240.522017 -113.161313 
L 1239.877983 -113.161313 
L 1239.687128 -117.514943 
L 1239.405435 -121.868573 
L 1239.002066 -126.222203 
L 1238.441579 -130.575832 
L 1237.685719 -134.929462 
L 1236.696249 -139.283092 
L 1235.438721 -143.636722 
L 1233.886875 -147.990352 
L 1232.027117 -152.343982 
L 1229.862396 -156.697612 
L 1227.414725 -161.051242 
L 1224.725713 -165.404872 
L 1221.854731 -169.758502 
L 1218.874726 -174.112131 
L 1215.86616 -178.465761 
L 1212.90996 -182.819391 
L 1210.080626 -187.173021 
L 1207.440683 -191.526651 
L 1205.037415 -195.880281 
L 1202.902347 -200.233911 
L 1201.05333 -204.587541 
L 1199.498512 -208.941171 
L 1198.241032 -213.294801 
L 1197.283183 -217.64843 
L 1196.628944 -222.00206 
L 1196.284256 -226.35569 
L 1196.255013 -230.70932 
L 1196.543347 -235.06295 
L 1197.14324 -239.41658 
L 1198.036693 -243.77021 
L 1199.191623 -248.12384 
L 1200.562288 -252.47747 
L 1202.092468 -256.8311 
L 1203.720977 -261.184729 
L 1205.388464 -265.538359 
L 1207.044081 -269.891989 
L 1208.650545 -274.245619 
L 1210.186462 -278.599249 
L 1211.645468 -282.952879 
L 1213.032529 -287.306509 
L 1214.358453 -291.660139 
L 1215.634086 -296.013769 
L 1216.865621 -300.367398 
L 1218.05204 -304.721028 
L 1219.185049 -309.074658 
L 1220.251185 -313.428288 
L 1221.235302 -317.781918 
L 1222.12439 -322.135548 
L 1222.910834 -326.489178 
L 1223.594448 -330.842808 
L 1224.183052 -335.196438 
L 1224.691689 -339.550068 
L 1225.14083 -343.903697 
L 1225.554061 -348.257327 
L 1225.955728 -352.610957 
L 1226.368914 -356.964587 
L 1226.813956 -361.318217 
L 1227.307511 -365.671847 
L 1227.861991 -370.025477 
L 1228.485164 -374.379107 
L 1229.179699 -378.732737 
L 1229.942628 -383.086367 
L 1230.76486 -387.439996 
L 1231.631034 -391.793626 
L 1232.520049 -396.147256 
L 1233.406474 -400.500886 
L 1234.262839 -404.854516 
L 1235.062517 -409.208146 
L 1235.782712 -413.561776 
L 1236.406954 -417.915406 
L 1236.926622 -422.269036 
L 1237.341212 -426.622665 
L 1237.657381 -430.976295 
L 1237.887071 -435.329925 
L 1238.045199 -439.683555 
L 1238.147456 -444.037185 
L 1238.208621 -448.390815 
L 1238.241622 -452.744445 
L 1238.257317 -457.098075 
L 1238.264795 -461.451705 
L 1238.271877 -465.805335 
L 1238.285535 -470.158964 
L 1238.312014 -474.512594 
L 1238.356636 -478.866224 
L 1238.423347 -483.219854 
L 1238.514207 -487.573484 
L 1238.629001 -491.927114 
L 1238.765137 -496.280744 
L 1238.917873 -500.634374 
L 1239.080884 -504.988004 
L 1239.247031 -509.341634 
L 1239.409217 -513.695263 
L 1239.561162 -518.048893 
L 1239.697995 -522.402523 
L 1239.816575 -526.756153 
L 1239.915548 -531.109783 
L 1239.995156 -535.463413 
L 1240.056887 -539.817043 
L 1240.10305 -544.170673 
L 1240.29695 -544.170673 
L 1240.29695 -544.170673 
L 1240.343113 -539.817043 
L 1240.404844 -535.463413 
L 1240.484452 -531.109783 
L 1240.583425 -526.756153 
L 1240.702005 -522.402523 
L 1240.838838 -518.048893 
L 1240.990783 -513.695263 
L 1241.152969 -509.341634 
L 1241.319116 -504.988004 
L 1241.482127 -500.634374 
L 1241.634863 -496.280744 
L 1241.770999 -491.927114 
L 1241.885793 -487.573484 
L 1241.976653 -483.219854 
L 1242.043364 -478.866224 
L 1242.087986 -474.512594 
L 1242.114465 -470.158964 
L 1242.128123 -465.805335 
L 1242.135205 -461.451705 
L 1242.142683 -457.098075 
L 1242.158378 -452.744445 
L 1242.191379 -448.390815 
L 1242.252544 -444.037185 
L 1242.354801 -439.683555 
L 1242.512929 -435.329925 
L 1242.742619 -430.976295 
L 1243.058788 -426.622665 
L 1243.473378 -422.269036 
L 1243.993046 -417.915406 
L 1244.617288 -413.561776 
L 1245.337483 -409.208146 
L 1246.137161 -404.854516 
L 1246.993526 -400.500886 
L 1247.879951 -396.147256 
L 1248.768966 -391.793626 
L 1249.63514 -387.439996 
L 1250.457372 -383.086367 
L 1251.220301 -378.732737 
L 1251.914836 -374.379107 
L 1252.538009 -370.025477 
L 1253.092489 -365.671847 
L 1253.586044 -361.318217 
L 1254.031086 -356.964587 
L 1254.444272 -352.610957 
L 1254.845939 -348.257327 
L 1255.25917 -343.903697 
L 1255.708311 -339.550068 
L 1256.216948 -335.196438 
L 1256.805552 -330.842808 
L 1257.489166 -326.489178 
L 1258.27561 -322.135548 
L 1259.164698 -317.781918 
L 1260.148815 -313.428288 
L 1261.214951 -309.074658 
L 1262.34796 -304.721028 
L 1263.534379 -300.367398 
L 1264.765914 -296.013769 
L 1266.041547 -291.660139 
L 1267.367471 -287.306509 
L 1268.754532 -282.952879 
L 1270.213538 -278.599249 
L 1271.749455 -274.245619 
L 1273.355919 -269.891989 
L 1275.011536 -265.538359 
L 1276.679023 -261.184729 
L 1278.307532 -256.8311 
L 1279.837712 -252.47747 
L 1281.208377 -248.12384 
L 1282.363307 -243.77021 
L 1283.25676 -239.41658 
L 1283.856653 -235.06295 
L 1284.144987 -230.70932 
L 1284.115744 -226.35569 
L 1283.771056 -222.00206 
L 1283.116817 -217.64843 
L 1282.158968 -213.294801 
L 1280.901488 -208.941171 
L 1279.34667 -204.587541 
L 1277.497653 -200.233911 
L 1275.362585 -195.880281 
L 1272.959317 -191.526651 
L 1270.319374 -187.173021 
L 1267.49004 -182.819391 
L 1264.53384 -178.465761 
L 1261.525274 -174.112131 
L 1258.545269 -169.758502 
L 1255.674287 -165.404872 
L 1252.985275 -161.051242 
L 1250.537604 -156.697612 
L 1248.372883 -152.343982 
L 1246.513125 -147.990352 
L 1244.961279 -143.636722 
L 1243.703751 -139.283092 
L 1242.714281 -134.929462 
L 1241.958421 -130.575832 
L 1241.397934 -126.222203 
L 1240.994565 -121.868573 
L 1240.712872 -117.514943 
L 1240.522017 -113.161313 
z
" style="stroke: #3f3f3f; stroke-width: 1.25"/>
    </defs>
    <g clip-path="url(#p3e177ef47e)">
     <use xlink:href="#m0eaaedcd52" x="0" y="720" style="fill: #3274a1; stroke: #3f3f3f; stroke-width: 1.25"/>
    </g>
   </g>
   <g id="matplotlib.axis_1">
    <g id="xtick_1">
     <g id="line2d_1">
      <defs>
       <path id="mfa050a1704" d="M 0 0 
L 0 3.5 
" style="stroke: #000000; stroke-width: 0.8"/>
      </defs>
      <g>
       <use xlink:href="#mfa050a1704" x="235.8" y="640.8" style="stroke: #000000; stroke-width: 0.8"/>
      </g>
     </g>
     <g id="text_1">
      <!-- 0 -->
      <g transform="translate(232.61875 655.398438) scale(0.1 -0.1)">
       <defs>
        <path id="DejaVuSans-30" d="M 2034 4250 
Q 1547 4250 1301 3770 
Q 1056 3291 1056 2328 
Q 1056 1369 1301 889 
Q 1547 409 2034 409 
Q 2525 409 2770 889 
Q 3016 1369 3016 2328 
Q 3016 3291 2770 3770 
Q 2525 4250 2034 4250 
z
M 2034 4750 
Q 2819 4750 3233 4129 
Q 3647 3509 3647 2328 
Q 3647 1150 3233 529 
Q 2819 -91 2034 -91 
Q 1250 -91 836 529 
Q 422 1150 422 2328 
Q 422 3509 836 4129 
Q 1250 4750 2034 4750 
z
" transform="scale(0.015625)"/>
       </defs>
       <use xlink:href="#DejaVuSans-30"/>
      </g>
     </g>
    </g>
    <g id="xtick_2">
     <g id="line2d_2">
      <g>
       <use xlink:href="#mfa050a1704" x="347.4" y="640.8" style="stroke: #000000; stroke-width: 0.8"/>
      </g>
     </g>
     <g id="text_2">
      <!-- 1 -->
      <g transform="translate(344.21875 655.398438) scale(0.1 -0.1)">
       <defs>
        <path id="DejaVuSans-31" d="M 794 531 
L 1825 531 
L 1825 4091 
L 703 3866 
L 703 4441 
L 1819 4666 
L 2450 4666 
L 2450 531 
L 3481 531 
L 3481 0 
L 794 0 
L 794 531 
z
" transform="scale(0.015625)"/>
       </defs>
       <use xlink:href="#DejaVuSans-31"/>
      </g>
     </g>
    </g>
    <g id="xtick_3">
     <g id="line2d_3">
      <g>
       <use xlink:href="#mfa050a1704" x="459" y="640.8" style="stroke: #000000; stroke-width: 0.8"/>
      </g>
     </g>
     <g id="text_3">
      <!-- 2 -->
      <g transform="translate(455.81875 655.398438) scale(0.1 -0.1)">
       <defs>
        <path id="DejaVuSans-32" d="M 1228 531 
L 3431 531 
L 3431 0 
L 469 0 
L 469 531 
Q 828 903 1448 1529 
Q 2069 2156 2228 2338 
Q 2531 2678 2651 2914 
Q 2772 3150 2772 3378 
Q 2772 3750 2511 3984 
Q 2250 4219 1831 4219 
Q 1534 4219 1204 4116 
Q 875 4013 500 3803 
L 500 4441 
Q 881 4594 1212 4672 
Q 1544 4750 1819 4750 
Q 2544 4750 2975 4387 
Q 3406 4025 3406 3419 
Q 3406 3131 3298 2873 
Q 3191 2616 2906 2266 
Q 2828 2175 2409 1742 
Q 1991 1309 1228 531 
z
" transform="scale(0.015625)"/>
       </defs>
       <use xlink:href="#DejaVuSans-32"/>
      </g>
     </g>
    </g>
    <g id="xtick_4">
     <g id="line2d_4">
      <g>
       <use xlink:href="#mfa050a1704" x="570.6" y="640.8" style="stroke: #000000; stroke-width: 0.8"/>
      </g>
     </g>
     <g id="text_4">
      <!-- 3 -->
      <g transform="translate(567.41875 655.398438) scale(0.1 -0.1)">
       <defs>
        <path id="DejaVuSans-33" d="M 2597 2516 
Q 3050 2419 3304 2112 
Q 3559 1806 3559 1356 
Q 3559 666 3084 287 
Q 2609 -91 1734 -91 
Q 1441 -91 1130 -33 
Q 819 25 488 141 
L 488 750 
Q 750 597 1062 519 
Q 1375 441 1716 441 
Q 2309 441 2620 675 
Q 2931 909 2931 1356 
Q 2931 1769 2642 2001 
Q 2353 2234 1838 2234 
L 1294 2234 
L 1294 2753 
L 1863 2753 
Q 2328 2753 2575 2939 
Q 2822 3125 2822 3475 
Q 2822 3834 2567 4026 
Q 2313 4219 1838 4219 
Q 1578 4219 1281 4162 
Q 984 4106 628 3988 
L 628 4550 
Q 988 4650 1302 4700 
Q 1616 4750 1894 4750 
Q 2613 4750 3031 4423 
Q 3450 4097 3450 3541 
Q 3450 3153 3228 2886 
Q 3006 2619 2597 2516 
z
" transform="scale(0.015625)"/>
       </defs>
       <use xlink:href="#DejaVuSans-33"/>
      </g>
     </g>
    </g>
    <g id="xtick_5">
     <g id="line2d_5">
      <g>
       <use xlink:href="#mfa050a1704" x="682.2" y="640.8" style="stroke: #000000; stroke-width: 0.8"/>
      </g>
     </g>
     <g id="text_5">
      <!-- 4 -->
      <g transform="translate(679.01875 655.398438) scale(0.1 -0.1)">
       <defs>
        <path id="DejaVuSans-34" d="M 2419 4116 
L 825 1625 
L 2419 1625 
L 2419 4116 
z
M 2253 4666 
L 3047 4666 
L 3047 1625 
L 3713 1625 
L 3713 1100 
L 3047 1100 
L 3047 0 
L 2419 0 
L 2419 1100 
L 313 1100 
L 313 1709 
L 2253 4666 
z
" transform="scale(0.015625)"/>
       </defs>
       <use xlink:href="#DejaVuSans-34"/>
      </g>
     </g>
    </g>
    <g id="xtick_6">
     <g id="line2d_6">
      <g>
       <use xlink:href="#mfa050a1704" x="793.8" y="640.8" style="stroke: #000000; stroke-width: 0.8"/>
      </g>
     </g>
     <g id="text_6">
      <!-- 5 -->
      <g transform="translate(790.61875 655.398438) scale(0.1 -0.1)">
       <defs>
        <path id="DejaVuSans-35" d="M 691 4666 
L 3169 4666 
L 3169 4134 
L 1269 4134 
L 1269 2991 
Q 1406 3038 1543 3061 
Q 1681 3084 1819 3084 
Q 2600 3084 3056 2656 
Q 3513 2228 3513 1497 
Q 3513 744 3044 326 
Q 2575 -91 1722 -91 
Q 1428 -91 1123 -41 
Q 819 9 494 109 
L 494 744 
Q 775 591 1075 516 
Q 1375 441 1709 441 
Q 2250 441 2565 725 
Q 2881 1009 2881 1497 
Q 2881 1984 2565 2268 
Q 2250 2553 1709 2553 
Q 1456 2553 1204 2497 
Q 953 2441 691 2322 
L 691 4666 
z
" transform="scale(0.015625)"/>
       </defs>
       <use xlink:href="#DejaVuSans-35"/>
      </g>
     </g>
    </g>
    <g id="xtick_7">
     <g id="line2d_7">
      <g>
       <use xlink:href="#mfa050a1704" x="905.4" y="640.8" style="stroke: #000000; stroke-width: 0.8"/>
      </g>
     </g>
     <g id="text_7">
      <!-- 6 -->
      <g transform="translate(902.21875 655.398438) scale(0.1 -0.1)">
       <defs>
        <path id="DejaVuSans-36" d="M 2113 2584 
Q 1688 2584 1439 2293 
Q 1191 2003 1191 1497 
Q 1191 994 1439 701 
Q 1688 409 2113 409 
Q 2538 409 2786 701 
Q 3034 994 3034 1497 
Q 3034 2003 2786 2293 
Q 2538 2584 2113 2584 
z
M 3366 4563 
L 3366 3988 
Q 3128 4100 2886 4159 
Q 2644 4219 2406 4219 
Q 1781 4219 1451 3797 
Q 1122 3375 1075 2522 
Q 1259 2794 1537 2939 
Q 1816 3084 2150 3084 
Q 2853 3084 3261 2657 
Q 3669 2231 3669 1497 
Q 3669 778 3244 343 
Q 2819 -91 2113 -91 
Q 1303 -91 875 529 
Q 447 1150 447 2328 
Q 447 3434 972 4092 
Q 1497 4750 2381 4750 
Q 2619 4750 2861 4703 
Q 3103 4656 3366 4563 
z
" transform="scale(0.015625)"/>
       </defs>
       <use xlink:href="#DejaVuSans-36"/>
      </g>
     </g>
    </g>
    <g id="xtick_8">
     <g id="line2d_8">
      <g>
       <use xlink:href="#mfa050a1704" x="1017" y="640.8" style="stroke: #000000; stroke-width: 0.8"/>
      </g>
     </g>
     <g id="text_8">
      <!-- 7 -->
      <g transform="translate(1013.81875 655.398438) scale(0.1 -0.1)">
       <defs>
        <path id="DejaVuSans-37" d="M 525 4666 
L 3525 4666 
L 3525 4397 
L 1831 0 
L 1172 0 
L 2766 4134 
L 525 4134 
L 525 4666 
z
" transform="scale(0.015625)"/>
       </defs>
       <use xlink:href="#DejaVuSans-37"/>
      </g>
     </g>
    </g>
    <g id="xtick_9">
     <g id="line2d_9">
      <g>
       <use xlink:href="#mfa050a1704" x="1128.6" y="640.8" style="stroke: #000000; stroke-width: 0.8"/>
      </g>
     </g>
     <g id="text_9">
      <!-- 8 -->
      <g transform="translate(1125.41875 655.398438) scale(0.1 -0.1)">
       <defs>
        <path id="DejaVuSans-38" d="M 2034 2216 
Q 1584 2216 1326 1975 
Q 1069 1734 1069 1313 
Q 1069 891 1326 650 
Q 1584 409 2034 409 
Q 2484 409 2743 651 
Q 3003 894 3003 1313 
Q 3003 1734 2745 1975 
Q 2488 2216 2034 2216 
z
M 1403 2484 
Q 997 2584 770 2862 
Q 544 3141 544 3541 
Q 544 4100 942 4425 
Q 1341 4750 2034 4750 
Q 2731 4750 3128 4425 
Q 3525 4100 3525 3541 
Q 3525 3141 3298 2862 
Q 3072 2584 2669 2484 
Q 3125 2378 3379 2068 
Q 3634 1759 3634 1313 
Q 3634 634 3220 271 
Q 2806 -91 2034 -91 
Q 1263 -91 848 271 
Q 434 634 434 1313 
Q 434 1759 690 2068 
Q 947 2378 1403 2484 
z
M 1172 3481 
Q 1172 3119 1398 2916 
Q 1625 2713 2034 2713 
Q 2441 2713 2670 2916 
Q 2900 3119 2900 3481 
Q 2900 3844 2670 4047 
Q 2441 4250 2034 4250 
Q 1625 4250 1398 4047 
Q 1172 3844 1172 3481 
z
" transform="scale(0.015625)"/>
       </defs>
       <use xlink:href="#DejaVuSans-38"/>
      </g>
     </g>
    </g>
    <g id="xtick_10">
     <g id="line2d_10">
      <g>
       <use xlink:href="#mfa050a1704" x="1240.2" y="640.8" style="stroke: #000000; stroke-width: 0.8"/>
      </g>
     </g>
     <g id="text_10">
      <!-- 9 -->
      <g transform="translate(1237.01875 655.398438) scale(0.1 -0.1)">
       <defs>
        <path id="DejaVuSans-39" d="M 703 97 
L 703 672 
Q 941 559 1184 500 
Q 1428 441 1663 441 
Q 2288 441 2617 861 
Q 2947 1281 2994 2138 
Q 2813 1869 2534 1725 
Q 2256 1581 1919 1581 
Q 1219 1581 811 2004 
Q 403 2428 403 3163 
Q 403 3881 828 4315 
Q 1253 4750 1959 4750 
Q 2769 4750 3195 4129 
Q 3622 3509 3622 2328 
Q 3622 1225 3098 567 
Q 2575 -91 1691 -91 
Q 1453 -91 1209 -44 
Q 966 3 703 97 
z
M 1959 2075 
Q 2384 2075 2632 2365 
Q 2881 2656 2881 3163 
Q 2881 3666 2632 3958 
Q 2384 4250 1959 4250 
Q 1534 4250 1286 3958 
Q 1038 3666 1038 3163 
Q 1038 2656 1286 2365 
Q 1534 2075 1959 2075 
z
" transform="scale(0.015625)"/>
       </defs>
       <use xlink:href="#DejaVuSans-39"/>
      </g>
     </g>
    </g>
    <g id="text_11">
     <!-- iteration -->
     <g transform="translate(716.877344 669.076563) scale(0.1 -0.1)">
      <defs>
       <path id="DejaVuSans-69" d="M 603 3500 
L 1178 3500 
L 1178 0 
L 603 0 
L 603 3500 
z
M 603 4863 
L 1178 4863 
L 1178 4134 
L 603 4134 
L 603 4863 
z
" transform="scale(0.015625)"/>
       <path id="DejaVuSans-74" d="M 1172 4494 
L 1172 3500 
L 2356 3500 
L 2356 3053 
L 1172 3053 
L 1172 1153 
Q 1172 725 1289 603 
Q 1406 481 1766 481 
L 2356 481 
L 2356 0 
L 1766 0 
Q 1100 0 847 248 
Q 594 497 594 1153 
L 594 3053 
L 172 3053 
L 172 3500 
L 594 3500 
L 594 4494 
L 1172 4494 
z
" transform="scale(0.015625)"/>
       <path id="DejaVuSans-65" d="M 3597 1894 
L 3597 1613 
L 953 1613 
Q 991 1019 1311 708 
Q 1631 397 2203 397 
Q 2534 397 2845 478 
Q 3156 559 3463 722 
L 3463 178 
Q 3153 47 2828 -22 
Q 2503 -91 2169 -91 
Q 1331 -91 842 396 
Q 353 884 353 1716 
Q 353 2575 817 3079 
Q 1281 3584 2069 3584 
Q 2775 3584 3186 3129 
Q 3597 2675 3597 1894 
z
M 3022 2063 
Q 3016 2534 2758 2815 
Q 2500 3097 2075 3097 
Q 1594 3097 1305 2825 
Q 1016 2553 972 2059 
L 3022 2063 
z
" transform="scale(0.015625)"/>
       <path id="DejaVuSans-72" d="M 2631 2963 
Q 2534 3019 2420 3045 
Q 2306 3072 2169 3072 
Q 1681 3072 1420 2755 
Q 1159 2438 1159 1844 
L 1159 0 
L 581 0 
L 581 3500 
L 1159 3500 
L 1159 2956 
Q 1341 3275 1631 3429 
Q 1922 3584 2338 3584 
Q 2397 3584 2469 3576 
Q 2541 3569 2628 3553 
L 2631 2963 
z
" transform="scale(0.015625)"/>
       <path id="DejaVuSans-61" d="M 2194 1759 
Q 1497 1759 1228 1600 
Q 959 1441 959 1056 
Q 959 750 1161 570 
Q 1363 391 1709 391 
Q 2188 391 2477 730 
Q 2766 1069 2766 1631 
L 2766 1759 
L 2194 1759 
z
M 3341 1997 
L 3341 0 
L 2766 0 
L 2766 531 
Q 2569 213 2275 61 
Q 1981 -91 1556 -91 
Q 1019 -91 701 211 
Q 384 513 384 1019 
Q 384 1609 779 1909 
Q 1175 2209 1959 2209 
L 2766 2209 
L 2766 2266 
Q 2766 2663 2505 2880 
Q 2244 3097 1772 3097 
Q 1472 3097 1187 3025 
Q 903 2953 641 2809 
L 641 3341 
Q 956 3463 1253 3523 
Q 1550 3584 1831 3584 
Q 2591 3584 2966 3190 
Q 3341 2797 3341 1997 
z
" transform="scale(0.015625)"/>
       <path id="DejaVuSans-6f" d="M 1959 3097 
Q 1497 3097 1228 2736 
Q 959 2375 959 1747 
Q 959 1119 1226 758 
Q 1494 397 1959 397 
Q 2419 397 2687 759 
Q 2956 1122 2956 1747 
Q 2956 2369 2687 2733 
Q 2419 3097 1959 3097 
z
M 1959 3584 
Q 2709 3584 3137 3096 
Q 3566 2609 3566 1747 
Q 3566 888 3137 398 
Q 2709 -91 1959 -91 
Q 1206 -91 779 398 
Q 353 888 353 1747 
Q 353 2609 779 3096 
Q 1206 3584 1959 3584 
z
" transform="scale(0.015625)"/>
       <path id="DejaVuSans-6e" d="M 3513 2113 
L 3513 0 
L 2938 0 
L 2938 2094 
Q 2938 2591 2744 2837 
Q 2550 3084 2163 3084 
Q 1697 3084 1428 2787 
Q 1159 2491 1159 1978 
L 1159 0 
L 581 0 
L 581 3500 
L 1159 3500 
L 1159 2956 
Q 1366 3272 1645 3428 
Q 1925 3584 2291 3584 
Q 2894 3584 3203 3211 
Q 3513 2838 3513 2113 
z
" transform="scale(0.015625)"/>
      </defs>
      <use xlink:href="#DejaVuSans-69"/>
      <use xlink:href="#DejaVuSans-74" x="27.783203"/>
      <use xlink:href="#DejaVuSans-65" x="66.992188"/>
      <use xlink:href="#DejaVuSans-72" x="128.515625"/>
      <use xlink:href="#DejaVuSans-61" x="169.628906"/>
      <use xlink:href="#DejaVuSans-74" x="230.908203"/>
      <use xlink:href="#DejaVuSans-69" x="270.117188"/>
      <use xlink:href="#DejaVuSans-6f" x="297.900391"/>
      <use xlink:href="#DejaVuSans-6e" x="359.082031"/>
     </g>
    </g>
   </g>
   <g id="matplotlib.axis_2">
    <g id="ytick_1">
     <g id="line2d_11">
      <defs>
       <path id="mef315f1c4a" d="M 0 0 
L -3.5 0 
" style="stroke: #000000; stroke-width: 0.8"/>
      </defs>
      <g>
       <use xlink:href="#mef315f1c4a" x="180" y="611.85399" style="stroke: #000000; stroke-width: 0.8"/>
      </g>
     </g>
     <g id="text_12">
      <!-- 0.2 -->
      <g transform="translate(148.717187 615.653209) scale(0.1 -0.1)">
       <defs>
        <path id="DejaVuSans-2212" d="M 678 2272 
L 4684 2272 
L 4684 1741 
L 678 1741 
L 678 2272 
z
" transform="scale(0.015625)"/>
        <path id="DejaVuSans-2e" d="M 684 794 
L 1344 794 
L 1344 0 
L 684 0 
L 684 794 
z
" transform="scale(0.015625)"/>
       </defs>
       <use xlink:href="#DejaVuSans-2212"/>
       <use xlink:href="#DejaVuSans-30" x="83.789062"/>
       <use xlink:href="#DejaVuSans-2e" x="147.412109"/>
       <use xlink:href="#DejaVuSans-32" x="179.199219"/>
      </g>
     </g>
    </g>
    <g id="ytick_2">
     <g id="line2d_12">
      <g>
       <use xlink:href="#mef315f1c4a" x="180" y="529.178337" style="stroke: #000000; stroke-width: 0.8"/>
      </g>
     </g>
     <g id="text_13">
      <!-- 0.0 -->
      <g transform="translate(157.096875 532.977556) scale(0.1 -0.1)">
       <use xlink:href="#DejaVuSans-30"/>
       <use xlink:href="#DejaVuSans-2e" x="63.623047"/>
       <use xlink:href="#DejaVuSans-30" x="95.410156"/>
      </g>
     </g>
    </g>
    <g id="ytick_3">
     <g id="line2d_13">
      <g>
       <use xlink:href="#mef315f1c4a" x="180" y="446.502684" style="stroke: #000000; stroke-width: 0.8"/>
      </g>
     </g>
     <g id="text_14">
      <!-- 0.2 -->
      <g transform="translate(157.096875 450.301902) scale(0.1 -0.1)">
       <use xlink:href="#DejaVuSans-30"/>
       <use xlink:href="#DejaVuSans-2e" x="63.623047"/>
       <use xlink:href="#DejaVuSans-32" x="95.410156"/>
      </g>
     </g>
    </g>
    <g id="ytick_4">
     <g id="line2d_14">
      <g>
       <use xlink:href="#mef315f1c4a" x="180" y="363.82703" style="stroke: #000000; stroke-width: 0.8"/>
      </g>
     </g>
     <g id="text_15">
      <!-- 0.4 -->
      <g transform="translate(157.096875 367.626249) scale(0.1 -0.1)">
       <use xlink:href="#DejaVuSans-30"/>
       <use xlink:href="#DejaVuSans-2e" x="63.623047"/>
       <use xlink:href="#DejaVuSans-34" x="95.410156"/>
      </g>
     </g>
    </g>
    <g id="ytick_5">
     <g id="line2d_15">
      <g>
       <use xlink:href="#mef315f1c4a" x="180" y="281.151377" style="stroke: #000000; stroke-width: 0.8"/>
      </g>
     </g>
     <g id="text_16">
      <!-- 0.6 -->
      <g transform="translate(157.096875 284.950596) scale(0.1 -0.1)">
       <use xlink:href="#DejaVuSans-30"/>
       <use xlink:href="#DejaVuSans-2e" x="63.623047"/>
       <use xlink:href="#DejaVuSans-36" x="95.410156"/>
      </g>
     </g>
    </g>
    <g id="ytick_6">
     <g id="line2d_16">
      <g>
       <use xlink:href="#mef315f1c4a" x="180" y="198.475723" style="stroke: #000000; stroke-width: 0.8"/>
      </g>
     </g>
     <g id="text_17">
      <!-- 0.8 -->
      <g transform="translate(157.096875 202.274942) scale(0.1 -0.1)">
       <use xlink:href="#DejaVuSans-30"/>
       <use xlink:href="#DejaVuSans-2e" x="63.623047"/>
       <use xlink:href="#DejaVuSans-38" x="95.410156"/>
      </g>
     </g>
    </g>
    <g id="ytick_7">
     <g id="line2d_17">
      <g>
       <use xlink:href="#mef315f1c4a" x="180" y="115.80007" style="stroke: #000000; stroke-width: 0.8"/>
      </g>
     </g>
     <g id="text_18">
      <!-- 1.0 -->
      <g transform="translate(157.096875 119.599289) scale(0.1 -0.1)">
       <use xlink:href="#DejaVuSans-31"/>
       <use xlink:href="#DejaVuSans-2e" x="63.623047"/>
       <use xlink:href="#DejaVuSans-30" x="95.410156"/>
      </g>
     </g>
    </g>
    <g id="text_19">
     <!-- cosine similarity -->
     <g transform="translate(142.6375 404.307031) rotate(-90) scale(0.1 -0.1)">
      <defs>
       <path id="DejaVuSans-63" d="M 3122 3366 
L 3122 2828 
Q 2878 2963 2633 3030 
Q 2388 3097 2138 3097 
Q 1578 3097 1268 2742 
Q 959 2388 959 1747 
Q 959 1106 1268 751 
Q 1578 397 2138 397 
Q 2388 397 2633 464 
Q 2878 531 3122 666 
L 3122 134 
Q 2881 22 2623 -34 
Q 2366 -91 2075 -91 
Q 1284 -91 818 406 
Q 353 903 353 1747 
Q 353 2603 823 3093 
Q 1294 3584 2113 3584 
Q 2378 3584 2631 3529 
Q 2884 3475 3122 3366 
z
" transform="scale(0.015625)"/>
       <path id="DejaVuSans-73" d="M 2834 3397 
L 2834 2853 
Q 2591 2978 2328 3040 
Q 2066 3103 1784 3103 
Q 1356 3103 1142 2972 
Q 928 2841 928 2578 
Q 928 2378 1081 2264 
Q 1234 2150 1697 2047 
L 1894 2003 
Q 2506 1872 2764 1633 
Q 3022 1394 3022 966 
Q 3022 478 2636 193 
Q 2250 -91 1575 -91 
Q 1294 -91 989 -36 
Q 684 19 347 128 
L 347 722 
Q 666 556 975 473 
Q 1284 391 1588 391 
Q 1994 391 2212 530 
Q 2431 669 2431 922 
Q 2431 1156 2273 1281 
Q 2116 1406 1581 1522 
L 1381 1569 
Q 847 1681 609 1914 
Q 372 2147 372 2553 
Q 372 3047 722 3315 
Q 1072 3584 1716 3584 
Q 2034 3584 2315 3537 
Q 2597 3491 2834 3397 
z
" transform="scale(0.015625)"/>
       <path id="DejaVuSans-20" transform="scale(0.015625)"/>
       <path id="DejaVuSans-6d" d="M 3328 2828 
Q 3544 3216 3844 3400 
Q 4144 3584 4550 3584 
Q 5097 3584 5394 3201 
Q 5691 2819 5691 2113 
L 5691 0 
L 5113 0 
L 5113 2094 
Q 5113 2597 4934 2840 
Q 4756 3084 4391 3084 
Q 3944 3084 3684 2787 
Q 3425 2491 3425 1978 
L 3425 0 
L 2847 0 
L 2847 2094 
Q 2847 2600 2669 2842 
Q 2491 3084 2119 3084 
Q 1678 3084 1418 2786 
Q 1159 2488 1159 1978 
L 1159 0 
L 581 0 
L 581 3500 
L 1159 3500 
L 1159 2956 
Q 1356 3278 1631 3431 
Q 1906 3584 2284 3584 
Q 2666 3584 2933 3390 
Q 3200 3197 3328 2828 
z
" transform="scale(0.015625)"/>
       <path id="DejaVuSans-6c" d="M 603 4863 
L 1178 4863 
L 1178 0 
L 603 0 
L 603 4863 
z
" transform="scale(0.015625)"/>
       <path id="DejaVuSans-79" d="M 2059 -325 
Q 1816 -950 1584 -1140 
Q 1353 -1331 966 -1331 
L 506 -1331 
L 506 -850 
L 844 -850 
Q 1081 -850 1212 -737 
Q 1344 -625 1503 -206 
L 1606 56 
L 191 3500 
L 800 3500 
L 1894 763 
L 2988 3500 
L 3597 3500 
L 2059 -325 
z
" transform="scale(0.015625)"/>
      </defs>
      <use xlink:href="#DejaVuSans-63"/>
      <use xlink:href="#DejaVuSans-6f" x="54.980469"/>
      <use xlink:href="#DejaVuSans-73" x="116.162109"/>
      <use xlink:href="#DejaVuSans-69" x="168.261719"/>
      <use xlink:href="#DejaVuSans-6e" x="196.044922"/>
      <use xlink:href="#DejaVuSans-65" x="259.423828"/>
      <use xlink:href="#DejaVuSans-20" x="320.947266"/>
      <use xlink:href="#DejaVuSans-73" x="352.734375"/>
      <use xlink:href="#DejaVuSans-69" x="404.833984"/>
      <use xlink:href="#DejaVuSans-6d" x="432.617188"/>
      <use xlink:href="#DejaVuSans-69" x="530.029297"/>
      <use xlink:href="#DejaVuSans-6c" x="557.8125"/>
      <use xlink:href="#DejaVuSans-61" x="585.595703"/>
      <use xlink:href="#DejaVuSans-72" x="646.875"/>
      <use xlink:href="#DejaVuSans-69" x="687.988281"/>
      <use xlink:href="#DejaVuSans-74" x="715.771484"/>
      <use xlink:href="#DejaVuSans-79" x="754.980469"/>
     </g>
    </g>
   </g>
   <g id="line2d_18">
    <path d="M 235.8 552.529572 
L 235.8 168.226783 
" clip-path="url(#p3e177ef47e)" style="fill: none; stroke: #3f3f3f; stroke-width: 1.875; stroke-linecap: square"/>
   </g>
   <g id="line2d_19">
    <path d="M 235.8 406.543219 
L 235.8 290.416359 
" clip-path="url(#p3e177ef47e)" style="fill: none; stroke: #3f3f3f; stroke-width: 5.625; stroke-linecap: square"/>
   </g>
   <g id="line2d_20">
    <path d="M 235.8 348.960749 
" clip-path="url(#p3e177ef47e)" style="fill: none; stroke: #3f3f3f; stroke-width: 1.5; stroke-linecap: square"/>
    <defs>
     <path id="mf0f7e49c06" d="M 2.34375 0 
L -2.34375 -0 
" style="stroke: #ffffff; stroke-width: 1.125"/>
    </defs>
    <g clip-path="url(#p3e177ef47e)">
     <use xlink:href="#mf0f7e49c06" x="235.8" y="348.960749" style="fill: #ffffff; stroke: #ffffff; stroke-width: 1.125"/>
    </g>
   </g>
   <g id="line2d_21">
    <path d="M 347.4 558.282859 
L 347.4 198.414564 
" clip-path="url(#p3e177ef47e)" style="fill: none; stroke: #3f3f3f; stroke-width: 1.875; stroke-linecap: square"/>
   </g>
   <g id="line2d_22">
    <path d="M 347.4 462.498505 
L 347.4 349.060393 
" clip-path="url(#p3e177ef47e)" style="fill: none; stroke: #3f3f3f; stroke-width: 5.625; stroke-linecap: square"/>
   </g>
   <g id="line2d_23">
    <path d="M 347.4 408.047276 
" clip-path="url(#p3e177ef47e)" style="fill: none; stroke: #3f3f3f; stroke-width: 1.5; stroke-linecap: square"/>
    <g clip-path="url(#p3e177ef47e)">
     <use xlink:href="#mf0f7e49c06" x="347.4" y="408.047276" style="fill: #ffffff; stroke: #ffffff; stroke-width: 1.125"/>
    </g>
   </g>
   <g id="line2d_24">
    <path d="M 459 560.39286 
L 459 213.418792 
" clip-path="url(#p3e177ef47e)" style="fill: none; stroke: #3f3f3f; stroke-width: 1.875; stroke-linecap: square"/>
   </g>
   <g id="line2d_25">
    <path d="M 459 478.382277 
L 459 370.893054 
" clip-path="url(#p3e177ef47e)" style="fill: none; stroke: #3f3f3f; stroke-width: 5.625; stroke-linecap: square"/>
   </g>
   <g id="line2d_26">
    <path d="M 459 436.010008 
" clip-path="url(#p3e177ef47e)" style="fill: none; stroke: #3f3f3f; stroke-width: 1.5; stroke-linecap: square"/>
    <g clip-path="url(#p3e177ef47e)">
     <use xlink:href="#mf0f7e49c06" x="459" y="436.010008" style="fill: #ffffff; stroke: #ffffff; stroke-width: 1.125"/>
    </g>
   </g>
   <g id="line2d_27">
    <path d="M 570.6 560.39286 
L 570.6 213.418792 
" clip-path="url(#p3e177ef47e)" style="fill: none; stroke: #3f3f3f; stroke-width: 1.875; stroke-linecap: square"/>
   </g>
   <g id="line2d_28">
    <path d="M 570.6 487.707517 
L 570.6 377.625192 
" clip-path="url(#p3e177ef47e)" style="fill: none; stroke: #3f3f3f; stroke-width: 5.625; stroke-linecap: square"/>
   </g>
   <g id="line2d_29">
    <path d="M 570.6 445.487464 
" clip-path="url(#p3e177ef47e)" style="fill: none; stroke: #3f3f3f; stroke-width: 1.5; stroke-linecap: square"/>
    <g clip-path="url(#p3e177ef47e)">
     <use xlink:href="#mf0f7e49c06" x="570.6" y="445.487464" style="fill: #ffffff; stroke: #ffffff; stroke-width: 1.125"/>
    </g>
   </g>
   <g id="line2d_30">
    <path d="M 682.2 560.39286 
L 682.2 238.176941 
" clip-path="url(#p3e177ef47e)" style="fill: none; stroke: #3f3f3f; stroke-width: 1.875; stroke-linecap: square"/>
   </g>
   <g id="line2d_31">
    <path d="M 682.2 490.474935 
L 682.2 388.296756 
" clip-path="url(#p3e177ef47e)" style="fill: none; stroke: #3f3f3f; stroke-width: 5.625; stroke-linecap: square"/>
   </g>
   <g id="line2d_32">
    <path d="M 682.2 454.224539 
" clip-path="url(#p3e177ef47e)" style="fill: none; stroke: #3f3f3f; stroke-width: 1.5; stroke-linecap: square"/>
    <g clip-path="url(#p3e177ef47e)">
     <use xlink:href="#mf0f7e49c06" x="682.2" y="454.224539" style="fill: #ffffff; stroke: #ffffff; stroke-width: 1.125"/>
    </g>
   </g>
   <g id="line2d_33">
    <path d="M 793.8 560.39286 
L 793.8 269.782859 
" clip-path="url(#p3e177ef47e)" style="fill: none; stroke: #3f3f3f; stroke-width: 1.875; stroke-linecap: square"/>
   </g>
   <g id="line2d_34">
    <path d="M 793.8 492.713121 
L 793.8 402.123344 
" clip-path="url(#p3e177ef47e)" style="fill: none; stroke: #3f3f3f; stroke-width: 5.625; stroke-linecap: square"/>
   </g>
   <g id="line2d_35">
    <path d="M 793.8 460.437887 
" clip-path="url(#p3e177ef47e)" style="fill: none; stroke: #3f3f3f; stroke-width: 1.5; stroke-linecap: square"/>
    <g clip-path="url(#p3e177ef47e)">
     <use xlink:href="#mf0f7e49c06" x="793.8" y="460.437887" style="fill: #ffffff; stroke: #ffffff; stroke-width: 1.125"/>
    </g>
   </g>
   <g id="line2d_36">
    <path d="M 905.4 560.39286 
L 905.4 274.384735 
" clip-path="url(#p3e177ef47e)" style="fill: none; stroke: #3f3f3f; stroke-width: 1.875; stroke-linecap: square"/>
   </g>
   <g id="line2d_37">
    <path d="M 905.4 495.683074 
L 905.4 406.855244 
" clip-path="url(#p3e177ef47e)" style="fill: none; stroke: #3f3f3f; stroke-width: 5.625; stroke-linecap: square"/>
   </g>
   <g id="line2d_38">
    <path d="M 905.4 466.504378 
" clip-path="url(#p3e177ef47e)" style="fill: none; stroke: #3f3f3f; stroke-width: 1.5; stroke-linecap: square"/>
    <g clip-path="url(#p3e177ef47e)">
     <use xlink:href="#mf0f7e49c06" x="905.4" y="466.504378" style="fill: #ffffff; stroke: #ffffff; stroke-width: 1.125"/>
    </g>
   </g>
   <g id="line2d_39">
    <path d="M 1017 560.39286 
L 1017 314.849553 
" clip-path="url(#p3e177ef47e)" style="fill: none; stroke: #3f3f3f; stroke-width: 1.875; stroke-linecap: square"/>
   </g>
   <g id="line2d_40">
    <path d="M 1017 504.015709 
L 1017 418.26695 
" clip-path="url(#p3e177ef47e)" style="fill: none; stroke: #3f3f3f; stroke-width: 5.625; stroke-linecap: square"/>
   </g>
   <g id="line2d_41">
    <path d="M 1017 469.879785 
" clip-path="url(#p3e177ef47e)" style="fill: none; stroke: #3f3f3f; stroke-width: 1.5; stroke-linecap: square"/>
    <g clip-path="url(#p3e177ef47e)">
     <use xlink:href="#mf0f7e49c06" x="1017" y="469.879785" style="fill: #ffffff; stroke: #ffffff; stroke-width: 1.125"/>
    </g>
   </g>
   <g id="line2d_42">
    <path d="M 1128.6 560.39286 
L 1128.6 314.849553 
" clip-path="url(#p3e177ef47e)" style="fill: none; stroke: #3f3f3f; stroke-width: 1.875; stroke-linecap: square"/>
   </g>
   <g id="line2d_43">
    <path d="M 1128.6 503.096789 
L 1128.6 417.465592 
" clip-path="url(#p3e177ef47e)" style="fill: none; stroke: #3f3f3f; stroke-width: 5.625; stroke-linecap: square"/>
   </g>
   <g id="line2d_44">
    <path d="M 1128.6 469.753786 
" clip-path="url(#p3e177ef47e)" style="fill: none; stroke: #3f3f3f; stroke-width: 1.5; stroke-linecap: square"/>
    <g clip-path="url(#p3e177ef47e)">
     <use xlink:href="#mf0f7e49c06" x="1128.6" y="469.753786" style="fill: #ffffff; stroke: #ffffff; stroke-width: 1.125"/>
    </g>
   </g>
   <g id="line2d_45">
    <path d="M 1240.2 560.39286 
L 1240.2 314.849553 
" clip-path="url(#p3e177ef47e)" style="fill: none; stroke: #3f3f3f; stroke-width: 1.875; stroke-linecap: square"/>
   </g>
   <g id="line2d_46">
    <path d="M 1240.2 507.364853 
L 1240.2 421.089742 
" clip-path="url(#p3e177ef47e)" style="fill: none; stroke: #3f3f3f; stroke-width: 5.625; stroke-linecap: square"/>
   </g>
   <g id="line2d_47">
    <path d="M 1240.2 470.491828 
" clip-path="url(#p3e177ef47e)" style="fill: none; stroke: #3f3f3f; stroke-width: 1.5; stroke-linecap: square"/>
    <g clip-path="url(#p3e177ef47e)">
     <use xlink:href="#mf0f7e49c06" x="1240.2" y="470.491828" style="fill: #ffffff; stroke: #ffffff; stroke-width: 1.125"/>
    </g>
   </g>
   <g id="patch_3">
    <path d="M 180 640.8 
L 180 86.4 
" style="fill: none; stroke: #000000; stroke-width: 0.8; stroke-linejoin: miter; stroke-linecap: square"/>
   </g>
   <g id="patch_4">
    <path d="M 1296 640.8 
L 1296 86.4 
" style="fill: none; stroke: #000000; stroke-width: 0.8; stroke-linejoin: miter; stroke-linecap: square"/>
   </g>
   <g id="patch_5">
    <path d="M 180 640.8 
L 1296 640.8 
" style="fill: none; stroke: #000000; stroke-width: 0.8; stroke-linejoin: miter; stroke-linecap: square"/>
   </g>
   <g id="patch_6">
    <path d="M 180 86.4 
L 1296 86.4 
" style="fill: none; stroke: #000000; stroke-width: 0.8; stroke-linejoin: miter; stroke-linecap: square"/>
   </g>
   <g id="text_20">
    <!-- cosine similarity of max_fs_glit (distanceFromInitialPrompt), by iteration -->
    <g transform="translate(522.321563 80.4) scale(0.12 -0.12)">
     <defs>
      <path id="DejaVuSans-66" d="M 2375 4863 
L 2375 4384 
L 1825 4384 
Q 1516 4384 1395 4259 
Q 1275 4134 1275 3809 
L 1275 3500 
L 2222 3500 
L 2222 3053 
L 1275 3053 
L 1275 0 
L 697 0 
L 697 3053 
L 147 3053 
L 147 3500 
L 697 3500 
L 697 3744 
Q 697 4328 969 4595 
Q 1241 4863 1831 4863 
L 2375 4863 
z
" transform="scale(0.015625)"/>
      <path id="DejaVuSans-78" d="M 3513 3500 
L 2247 1797 
L 3578 0 
L 2900 0 
L 1881 1375 
L 863 0 
L 184 0 
L 1544 1831 
L 300 3500 
L 978 3500 
L 1906 2253 
L 2834 3500 
L 3513 3500 
z
" transform="scale(0.015625)"/>
      <path id="DejaVuSans-5f" d="M 3263 -1063 
L 3263 -1509 
L -63 -1509 
L -63 -1063 
L 3263 -1063 
z
" transform="scale(0.015625)"/>
      <path id="DejaVuSans-67" d="M 2906 1791 
Q 2906 2416 2648 2759 
Q 2391 3103 1925 3103 
Q 1463 3103 1205 2759 
Q 947 2416 947 1791 
Q 947 1169 1205 825 
Q 1463 481 1925 481 
Q 2391 481 2648 825 
Q 2906 1169 2906 1791 
z
M 3481 434 
Q 3481 -459 3084 -895 
Q 2688 -1331 1869 -1331 
Q 1566 -1331 1297 -1286 
Q 1028 -1241 775 -1147 
L 775 -588 
Q 1028 -725 1275 -790 
Q 1522 -856 1778 -856 
Q 2344 -856 2625 -561 
Q 2906 -266 2906 331 
L 2906 616 
Q 2728 306 2450 153 
Q 2172 0 1784 0 
Q 1141 0 747 490 
Q 353 981 353 1791 
Q 353 2603 747 3093 
Q 1141 3584 1784 3584 
Q 2172 3584 2450 3431 
Q 2728 3278 2906 2969 
L 2906 3500 
L 3481 3500 
L 3481 434 
z
" transform="scale(0.015625)"/>
      <path id="DejaVuSans-28" d="M 1984 4856 
Q 1566 4138 1362 3434 
Q 1159 2731 1159 2009 
Q 1159 1288 1364 580 
Q 1569 -128 1984 -844 
L 1484 -844 
Q 1016 -109 783 600 
Q 550 1309 550 2009 
Q 550 2706 781 3412 
Q 1013 4119 1484 4856 
L 1984 4856 
z
" transform="scale(0.015625)"/>
      <path id="DejaVuSans-64" d="M 2906 2969 
L 2906 4863 
L 3481 4863 
L 3481 0 
L 2906 0 
L 2906 525 
Q 2725 213 2448 61 
Q 2172 -91 1784 -91 
Q 1150 -91 751 415 
Q 353 922 353 1747 
Q 353 2572 751 3078 
Q 1150 3584 1784 3584 
Q 2172 3584 2448 3432 
Q 2725 3281 2906 2969 
z
M 947 1747 
Q 947 1113 1208 752 
Q 1469 391 1925 391 
Q 2381 391 2643 752 
Q 2906 1113 2906 1747 
Q 2906 2381 2643 2742 
Q 2381 3103 1925 3103 
Q 1469 3103 1208 2742 
Q 947 2381 947 1747 
z
" transform="scale(0.015625)"/>
      <path id="DejaVuSans-46" d="M 628 4666 
L 3309 4666 
L 3309 4134 
L 1259 4134 
L 1259 2759 
L 3109 2759 
L 3109 2228 
L 1259 2228 
L 1259 0 
L 628 0 
L 628 4666 
z
" transform="scale(0.015625)"/>
      <path id="DejaVuSans-49" d="M 628 4666 
L 1259 4666 
L 1259 0 
L 628 0 
L 628 4666 
z
" transform="scale(0.015625)"/>
      <path id="DejaVuSans-50" d="M 1259 4147 
L 1259 2394 
L 2053 2394 
Q 2494 2394 2734 2622 
Q 2975 2850 2975 3272 
Q 2975 3691 2734 3919 
Q 2494 4147 2053 4147 
L 1259 4147 
z
M 628 4666 
L 2053 4666 
Q 2838 4666 3239 4311 
Q 3641 3956 3641 3272 
Q 3641 2581 3239 2228 
Q 2838 1875 2053 1875 
L 1259 1875 
L 1259 0 
L 628 0 
L 628 4666 
z
" transform="scale(0.015625)"/>
      <path id="DejaVuSans-70" d="M 1159 525 
L 1159 -1331 
L 581 -1331 
L 581 3500 
L 1159 3500 
L 1159 2969 
Q 1341 3281 1617 3432 
Q 1894 3584 2278 3584 
Q 2916 3584 3314 3078 
Q 3713 2572 3713 1747 
Q 3713 922 3314 415 
Q 2916 -91 2278 -91 
Q 1894 -91 1617 61 
Q 1341 213 1159 525 
z
M 3116 1747 
Q 3116 2381 2855 2742 
Q 2594 3103 2138 3103 
Q 1681 3103 1420 2742 
Q 1159 2381 1159 1747 
Q 1159 1113 1420 752 
Q 1681 391 2138 391 
Q 2594 391 2855 752 
Q 3116 1113 3116 1747 
z
" transform="scale(0.015625)"/>
      <path id="DejaVuSans-29" d="M 513 4856 
L 1013 4856 
Q 1481 4119 1714 3412 
Q 1947 2706 1947 2009 
Q 1947 1309 1714 600 
Q 1481 -109 1013 -844 
L 513 -844 
Q 928 -128 1133 580 
Q 1338 1288 1338 2009 
Q 1338 2731 1133 3434 
Q 928 4138 513 4856 
z
" transform="scale(0.015625)"/>
      <path id="DejaVuSans-2c" d="M 750 794 
L 1409 794 
L 1409 256 
L 897 -744 
L 494 -744 
L 750 256 
L 750 794 
z
" transform="scale(0.015625)"/>
      <path id="DejaVuSans-62" d="M 3116 1747 
Q 3116 2381 2855 2742 
Q 2594 3103 2138 3103 
Q 1681 3103 1420 2742 
Q 1159 2381 1159 1747 
Q 1159 1113 1420 752 
Q 1681 391 2138 391 
Q 2594 391 2855 752 
Q 3116 1113 3116 1747 
z
M 1159 2969 
Q 1341 3281 1617 3432 
Q 1894 3584 2278 3584 
Q 2916 3584 3314 3078 
Q 3713 2572 3713 1747 
Q 3713 922 3314 415 
Q 2916 -91 2278 -91 
Q 1894 -91 1617 61 
Q 1341 213 1159 525 
L 1159 0 
L 581 0 
L 581 4863 
L 1159 4863 
L 1159 2969 
z
" transform="scale(0.015625)"/>
     </defs>
     <use xlink:href="#DejaVuSans-63"/>
     <use xlink:href="#DejaVuSans-6f" x="54.980469"/>
     <use xlink:href="#DejaVuSans-73" x="116.162109"/>
     <use xlink:href="#DejaVuSans-69" x="168.261719"/>
     <use xlink:href="#DejaVuSans-6e" x="196.044922"/>
     <use xlink:href="#DejaVuSans-65" x="259.423828"/>
     <use xlink:href="#DejaVuSans-20" x="320.947266"/>
     <use xlink:href="#DejaVuSans-73" x="352.734375"/>
     <use xlink:href="#DejaVuSans-69" x="404.833984"/>
     <use xlink:href="#DejaVuSans-6d" x="432.617188"/>
     <use xlink:href="#DejaVuSans-69" x="530.029297"/>
     <use xlink:href="#DejaVuSans-6c" x="557.8125"/>
     <use xlink:href="#DejaVuSans-61" x="585.595703"/>
     <use xlink:href="#DejaVuSans-72" x="646.875"/>
     <use xlink:href="#DejaVuSans-69" x="687.988281"/>
     <use xlink:href="#DejaVuSans-74" x="715.771484"/>
     <use xlink:href="#DejaVuSans-79" x="754.980469"/>
     <use xlink:href="#DejaVuSans-20" x="814.160156"/>
     <use xlink:href="#DejaVuSans-6f" x="845.947266"/>
     <use xlink:href="#DejaVuSans-66" x="907.128906"/>
     <use xlink:href="#DejaVuSans-20" x="942.333984"/>
     <use xlink:href="#DejaVuSans-6d" x="974.121094"/>
     <use xlink:href="#DejaVuSans-61" x="1071.533203"/>
     <use xlink:href="#DejaVuSans-78" x="1132.8125"/>
     <use xlink:href="#DejaVuSans-5f" x="1191.992188"/>
     <use xlink:href="#DejaVuSans-66" x="1241.992188"/>
     <use xlink:href="#DejaVuSans-73" x="1277.197266"/>
     <use xlink:href="#DejaVuSans-5f" x="1329.296875"/>
     <use xlink:href="#DejaVuSans-67" x="1379.296875"/>
     <use xlink:href="#DejaVuSans-6c" x="1442.773438"/>
     <use xlink:href="#DejaVuSans-69" x="1470.556641"/>
     <use xlink:href="#DejaVuSans-74" x="1498.339844"/>
     <use xlink:href="#DejaVuSans-20" x="1537.548828"/>
     <use xlink:href="#DejaVuSans-28" x="1569.335938"/>
     <use xlink:href="#DejaVuSans-64" x="1608.349609"/>
     <use xlink:href="#DejaVuSans-69" x="1671.826172"/>
     <use xlink:href="#DejaVuSans-73" x="1699.609375"/>
     <use xlink:href="#DejaVuSans-74" x="1751.708984"/>
     <use xlink:href="#DejaVuSans-61" x="1790.917969"/>
     <use xlink:href="#DejaVuSans-6e" x="1852.197266"/>
     <use xlink:href="#DejaVuSans-63" x="1915.576172"/>
     <use xlink:href="#DejaVuSans-65" x="1970.556641"/>
     <use xlink:href="#DejaVuSans-46" x="2032.080078"/>
     <use xlink:href="#DejaVuSans-72" x="2082.349609"/>
     <use xlink:href="#DejaVuSans-6f" x="2121.212891"/>
     <use xlink:href="#DejaVuSans-6d" x="2182.394531"/>
     <use xlink:href="#DejaVuSans-49" x="2279.806641"/>
     <use xlink:href="#DejaVuSans-6e" x="2309.298828"/>
     <use xlink:href="#DejaVuSans-69" x="2372.677734"/>
     <use xlink:href="#DejaVuSans-74" x="2400.460938"/>
     <use xlink:href="#DejaVuSans-69" x="2439.669922"/>
     <use xlink:href="#DejaVuSans-61" x="2467.453125"/>
     <use xlink:href="#DejaVuSans-6c" x="2528.732422"/>
     <use xlink:href="#DejaVuSans-50" x="2556.515625"/>
     <use xlink:href="#DejaVuSans-72" x="2615.068359"/>
     <use xlink:href="#DejaVuSans-6f" x="2653.931641"/>
     <use xlink:href="#DejaVuSans-6d" x="2715.113281"/>
     <use xlink:href="#DejaVuSans-70" x="2812.525391"/>
     <use xlink:href="#DejaVuSans-74" x="2876.001953"/>
     <use xlink:href="#DejaVuSans-29" x="2915.210938"/>
     <use xlink:href="#DejaVuSans-2c" x="2954.224609"/>
     <use xlink:href="#DejaVuSans-20" x="2986.011719"/>
     <use xlink:href="#DejaVuSans-62" x="3017.798828"/>
     <use xlink:href="#DejaVuSans-79" x="3081.275391"/>
     <use xlink:href="#DejaVuSans-20" x="3140.455078"/>
     <use xlink:href="#DejaVuSans-69" x="3172.242188"/>
     <use xlink:href="#DejaVuSans-74" x="3200.025391"/>
     <use xlink:href="#DejaVuSans-65" x="3239.234375"/>
     <use xlink:href="#DejaVuSans-72" x="3300.757812"/>
     <use xlink:href="#DejaVuSans-61" x="3341.871094"/>
     <use xlink:href="#DejaVuSans-74" x="3403.150391"/>
     <use xlink:href="#DejaVuSans-69" x="3442.359375"/>
     <use xlink:href="#DejaVuSans-6f" x="3470.142578"/>
     <use xlink:href="#DejaVuSans-6e" x="3531.324219"/>
    </g>
   </g>
  </g>
 </g>
 <defs>
  <clipPath id="p3e177ef47e">
   <rect x="180" y="86.4" width="1116" height="554.4"/>
  </clipPath>
 </defs>
</svg>
