<?xml version="1.0" encoding="utf-8" standalone="no"?>
<!DOCTYPE svg PUBLIC "-//W3C//DTD SVG 1.1//EN"
  "http://www.w3.org/Graphics/SVG/1.1/DTD/svg11.dtd">
<svg xmlns:xlink="http://www.w3.org/1999/xlink" width="1440pt" height="720pt" viewBox="0 0 1440 720" xmlns="http://www.w3.org/2000/svg" version="1.1">
 <metadata>
  <rdf:RDF xmlns:dc="http://purl.org/dc/elements/1.1/" xmlns:cc="http://creativecommons.org/ns#" xmlns:rdf="http://www.w3.org/1999/02/22-rdf-syntax-ns#">
   <cc:Work>
    <dc:type rdf:resource="http://purl.org/dc/dcmitype/StillImage"/>
    <dc:date>2024-07-06T18:29:11.893808</dc:date>
    <dc:format>image/svg+xml</dc:format>
    <dc:creator>
     <cc:Agent>
      <dc:title>Matplotlib v3.8.0, https://matplotlib.org/</dc:title>
     </cc:Agent>
    </dc:creator>
   </cc:Work>
  </rdf:RDF>
 </metadata>
 <defs>
  <style type="text/css">*{stroke-linejoin: round; stroke-linecap: butt}</style>
 </defs>
 <g id="figure_1">
  <g id="patch_1">
   <path d="M 0 720 
L 1440 720 
L 1440 0 
L 0 0 
z
" style="fill: #ffffff"/>
  </g>
  <g id="axes_1">
   <g id="patch_2">
    <path d="M 180 640.8 
L 1296 640.8 
L 1296 86.4 
L 180 86.4 
z
" style="fill: #ffffff"/>
   </g>
   <g id="PolyCollection_1">
    <defs>
     <path id="ma5ef0a1be5" d="M 235.864789 -112.153034 
L 235.735211 -112.153034 
L 235.700554 -117.16563 
L 235.651296 -122.178226 
L 235.582965 -127.190821 
L 235.490223 -132.203417 
L 235.366778 -137.216012 
L 235.205326 -142.228608 
L 234.997593 -147.241204 
L 234.734555 -152.253799 
L 234.406958 -157.266395 
L 234.006225 -162.278991 
L 233.525753 -167.291586 
L 232.962515 -172.304182 
L 232.318727 -177.316777 
L 231.603223 -182.329373 
L 230.832128 -187.341969 
L 230.028455 -192.354564 
L 229.220395 -197.36716 
L 228.438329 -202.379755 
L 227.710911 -207.392351 
L 227.060836 -212.404947 
L 226.501112 -217.417542 
L 226.032669 -222.430138 
L 225.643938 -227.442733 
L 225.312639 -232.455329 
L 225.009545 -237.467925 
L 224.703473 -242.48052 
L 224.366422 -247.493116 
L 223.977688 -252.505712 
L 223.525998 -257.518307 
L 223.009201 -262.530903 
L 222.431678 -267.543498 
L 221.80022 -272.556094 
L 221.119553 -277.56869 
L 220.388727 -282.581285 
L 219.599382 -287.593881 
L 218.736372 -292.606476 
L 217.780695 -297.619072 
L 216.714124 -302.631668 
L 215.52461 -307.644263 
L 214.211408 -312.656859 
L 212.78888 -317.669454 
L 211.28817 -322.68205 
L 209.756197 -327.694646 
L 208.251836 -332.707241 
L 206.839638 -337.719837 
L 205.581937 -342.732433 
L 204.530652 -347.745028 
L 203.720301 -352.757624 
L 203.163636 -357.770219 
L 202.850871 -362.782815 
L 202.752703 -367.795411 
L 202.826521 -372.808006 
L 203.0245 -377.820602 
L 203.301898 -382.833197 
L 203.623925 -387.845793 
L 203.969965 -392.858389 
L 204.334637 -397.870984 
L 204.725877 -402.88358 
L 205.160839 -407.896176 
L 205.660746 -412.908771 
L 206.245838 -417.921367 
L 206.931355 -422.933962 
L 207.725055 -427.946558 
L 208.62641 -432.959154 
L 209.627214 -437.971749 
L 210.713195 -442.984345 
L 211.866136 -447.99694 
L 213.066104 -453.009536 
L 214.293477 -458.022132 
L 215.530597 -463.034727 
L 216.76297 -468.047323 
L 217.979957 -473.059918 
L 219.17496 -478.072514 
L 220.345106 -483.08511 
L 221.490455 -488.097705 
L 222.61283 -493.110301 
L 223.714415 -498.122897 
L 224.796338 -503.135492 
L 225.85751 -508.148088 
L 226.893967 -513.160683 
L 227.898853 -518.173279 
L 228.863084 -523.185875 
L 229.776511 -528.19847 
L 230.629327 -533.211066 
L 231.413371 -538.223661 
L 232.123053 -543.236257 
L 232.755756 -548.248853 
L 233.311712 -553.261448 
L 233.793506 -558.274044 
L 234.2054 -563.286639 
L 234.552684 -568.299235 
L 234.841178 -573.311831 
L 235.076919 -578.324426 
L 235.266007 -583.337022 
L 235.414526 -588.349618 
L 235.528477 -593.362213 
L 235.613678 -598.374809 
L 235.675628 -603.387404 
L 235.719349 -608.4 
L 235.880651 -608.4 
L 235.880651 -608.4 
L 235.924372 -603.387404 
L 235.986322 -598.374809 
L 236.071523 -593.362213 
L 236.185474 -588.349618 
L 236.333993 -583.337022 
L 236.523081 -578.324426 
L 236.758822 -573.311831 
L 237.047316 -568.299235 
L 237.3946 -563.286639 
L 237.806494 -558.274044 
L 238.288288 -553.261448 
L 238.844244 -548.248853 
L 239.476947 -543.236257 
L 240.186629 -538.223661 
L 240.970673 -533.211066 
L 241.823489 -528.19847 
L 242.736916 -523.185875 
L 243.701147 -518.173279 
L 244.706033 -513.160683 
L 245.74249 -508.148088 
L 246.803662 -503.135492 
L 247.885585 -498.122897 
L 248.98717 -493.110301 
L 250.109545 -488.097705 
L 251.254894 -483.08511 
L 252.42504 -478.072514 
L 253.620043 -473.059918 
L 254.83703 -468.047323 
L 256.069403 -463.034727 
L 257.306523 -458.022132 
L 258.533896 -453.009536 
L 259.733864 -447.99694 
L 260.886805 -442.984345 
L 261.972786 -437.971749 
L 262.97359 -432.959154 
L 263.874945 -427.946558 
L 264.668645 -422.933962 
L 265.354162 -417.921367 
L 265.939254 -412.908771 
L 266.439161 -407.896176 
L 266.874123 -402.88358 
L 267.265363 -397.870984 
L 267.630035 -392.858389 
L 267.976075 -387.845793 
L 268.298102 -382.833197 
L 268.5755 -377.820602 
L 268.773479 -372.808006 
L 268.847297 -367.795411 
L 268.749129 -362.782815 
L 268.436364 -357.770219 
L 267.879699 -352.757624 
L 267.069348 -347.745028 
L 266.018063 -342.732433 
L 264.760362 -337.719837 
L 263.348164 -332.707241 
L 261.843803 -327.694646 
L 260.31183 -322.68205 
L 258.81112 -317.669454 
L 257.388592 -312.656859 
L 256.07539 -307.644263 
L 254.885876 -302.631668 
L 253.819305 -297.619072 
L 252.863628 -292.606476 
L 252.000618 -287.593881 
L 251.211273 -282.581285 
L 250.480447 -277.56869 
L 249.79978 -272.556094 
L 249.168322 -267.543498 
L 248.590799 -262.530903 
L 248.074002 -257.518307 
L 247.622312 -252.505712 
L 247.233578 -247.493116 
L 246.896527 -242.48052 
L 246.590455 -237.467925 
L 246.287361 -232.455329 
L 245.956062 -227.442733 
L 245.567331 -222.430138 
L 245.098888 -217.417542 
L 244.539164 -212.404947 
L 243.889089 -207.392351 
L 243.161671 -202.379755 
L 242.379605 -197.36716 
L 241.571545 -192.354564 
L 240.767872 -187.341969 
L 239.996777 -182.329373 
L 239.281273 -177.316777 
L 238.637485 -172.304182 
L 238.074247 -167.291586 
L 237.593775 -162.278991 
L 237.193042 -157.266395 
L 236.865445 -152.253799 
L 236.602407 -147.241204 
L 236.394674 -142.228608 
L 236.233222 -137.216012 
L 236.109777 -132.203417 
L 236.017035 -127.190821 
L 235.948704 -122.178226 
L 235.899446 -117.16563 
L 235.864789 -112.153034 
z
" style="stroke: #3f3f3f; stroke-width: 1.25"/>
    </defs>
    <g clip-path="url(#p7ac56ab845)">
     <use xlink:href="#ma5ef0a1be5" x="0" y="720" style="fill: #3274a1; stroke: #3f3f3f; stroke-width: 1.25"/>
    </g>
   </g>
   <g id="PolyCollection_2">
    <defs>
     <path id="mdb17dc3afa" d="M 347.525077 -104.631983 
L 347.274923 -104.631983 
L 347.209487 -109.502269 
L 347.116678 -114.372554 
L 346.988081 -119.24284 
L 346.813728 -124.113126 
L 346.58208 -128.983411 
L 346.280105 -133.853697 
L 345.893542 -138.723983 
L 345.407423 -143.594268 
L 344.806974 -148.464554 
L 344.07897 -153.33484 
L 343.213506 -158.205125 
L 342.206054 -163.075411 
L 341.059503 -167.945697 
L 339.785766 -172.815982 
L 338.406485 -177.686268 
L 336.952457 -182.556554 
L 335.46159 -187.426839 
L 333.97549 -192.297125 
L 332.535104 -197.167411 
L 331.176103 -202.037696 
L 329.924806 -206.907982 
L 328.795418 -211.778268 
L 327.789115 -216.648553 
L 326.895179 -221.518839 
L 326.093974 -226.389125 
L 325.361228 -231.25941 
L 324.67278 -236.129696 
L 324.008957 -240.999982 
L 323.35775 -245.870267 
L 322.716305 -250.740553 
L 322.09052 -255.610839 
L 321.492957 -260.481124 
L 320.939585 -265.35141 
L 320.446018 -270.221696 
L 320.023999 -275.091981 
L 319.678709 -279.962267 
L 319.407326 -284.832553 
L 319.19896 -289.702838 
L 319.035937 -294.573124 
L 318.896229 -299.44341 
L 318.756731 -304.313695 
L 318.597047 -309.183981 
L 318.40337 -314.054267 
L 318.171945 -318.924552 
L 317.911555 -323.794838 
L 317.644452 -328.665124 
L 317.405275 -333.535409 
L 317.237784 -338.405695 
L 317.18967 -343.275981 
L 317.30611 -348.146266 
L 317.623154 -353.016552 
L 318.162125 -357.886838 
L 318.926129 -362.757123 
L 319.899344 -367.627409 
L 321.049218 -372.497695 
L 322.331076 -377.36798 
L 323.69419 -382.238266 
L 325.088115 -387.108552 
L 326.468127 -391.978837 
L 327.798907 -396.849123 
L 329.056075 -401.719409 
L 330.225659 -406.589694 
L 331.302046 -411.45998 
L 332.285187 -416.330266 
L 333.177867 -421.200551 
L 333.983683 -426.070837 
L 334.706058 -430.941123 
L 335.348275 -435.811408 
L 335.914222 -440.681694 
L 336.409398 -445.55198 
L 336.841722 -450.422265 
L 337.221853 -455.292551 
L 337.56291 -460.162837 
L 337.879673 -465.033122 
L 338.187497 -469.903408 
L 338.501158 -474.773694 
L 338.833826 -479.643979 
L 339.196265 -484.514265 
L 339.596256 -489.384551 
L 340.03822 -494.254836 
L 340.522987 -499.125122 
L 341.04773 -503.995408 
L 341.606076 -508.865693 
L 342.188481 -513.735979 
L 342.782878 -518.606265 
L 343.375613 -523.47655 
L 343.952565 -528.346836 
L 344.500343 -533.217122 
L 345.007372 -538.087407 
L 345.464749 -542.957693 
L 345.866746 -547.827979 
L 346.210936 -552.698264 
L 346.497967 -557.56855 
L 346.731065 -562.438836 
L 346.91537 -567.309121 
L 347.057215 -572.179407 
L 347.163441 -577.049693 
L 347.240822 -581.919978 
L 347.29563 -586.790264 
L 347.50437 -586.790264 
L 347.50437 -586.790264 
L 347.559178 -581.919978 
L 347.636559 -577.049693 
L 347.742785 -572.179407 
L 347.88463 -567.309121 
L 348.068935 -562.438836 
L 348.302033 -557.56855 
L 348.589064 -552.698264 
L 348.933254 -547.827979 
L 349.335251 -542.957693 
L 349.792628 -538.087407 
L 350.299657 -533.217122 
L 350.847435 -528.346836 
L 351.424387 -523.47655 
L 352.017122 -518.606265 
L 352.611519 -513.735979 
L 353.193924 -508.865693 
L 353.75227 -503.995408 
L 354.277013 -499.125122 
L 354.76178 -494.254836 
L 355.203744 -489.384551 
L 355.603735 -484.514265 
L 355.966174 -479.643979 
L 356.298842 -474.773694 
L 356.612503 -469.903408 
L 356.920327 -465.033122 
L 357.23709 -460.162837 
L 357.578147 -455.292551 
L 357.958278 -450.422265 
L 358.390602 -445.55198 
L 358.885778 -440.681694 
L 359.451725 -435.811408 
L 360.093942 -430.941123 
L 360.816317 -426.070837 
L 361.622133 -421.200551 
L 362.514813 -416.330266 
L 363.497954 -411.45998 
L 364.574341 -406.589694 
L 365.743925 -401.719409 
L 367.001093 -396.849123 
L 368.331873 -391.978837 
L 369.711885 -387.108552 
L 371.10581 -382.238266 
L 372.468924 -377.36798 
L 373.750782 -372.497695 
L 374.900656 -367.627409 
L 375.873871 -362.757123 
L 376.637875 -357.886838 
L 377.176846 -353.016552 
L 377.49389 -348.146266 
L 377.61033 -343.275981 
L 377.562216 -338.405695 
L 377.394725 -333.535409 
L 377.155548 -328.665124 
L 376.888445 -323.794838 
L 376.628055 -318.924552 
L 376.39663 -314.054267 
L 376.202953 -309.183981 
L 376.043269 -304.313695 
L 375.903771 -299.44341 
L 375.764063 -294.573124 
L 375.60104 -289.702838 
L 375.392674 -284.832553 
L 375.121291 -279.962267 
L 374.776001 -275.091981 
L 374.353982 -270.221696 
L 373.860415 -265.35141 
L 373.307043 -260.481124 
L 372.70948 -255.610839 
L 372.083695 -250.740553 
L 371.44225 -245.870267 
L 370.791043 -240.999982 
L 370.12722 -236.129696 
L 369.438772 -231.25941 
L 368.706026 -226.389125 
L 367.904821 -221.518839 
L 367.010885 -216.648553 
L 366.004582 -211.778268 
L 364.875194 -206.907982 
L 363.623897 -202.037696 
L 362.264896 -197.167411 
L 360.82451 -192.297125 
L 359.33841 -187.426839 
L 357.847543 -182.556554 
L 356.393515 -177.686268 
L 355.014234 -172.815982 
L 353.740497 -167.945697 
L 352.593946 -163.075411 
L 351.586494 -158.205125 
L 350.72103 -153.33484 
L 349.993026 -148.464554 
L 349.392577 -143.594268 
L 348.906458 -138.723983 
L 348.519895 -133.853697 
L 348.21792 -128.983411 
L 347.986272 -124.113126 
L 347.811919 -119.24284 
L 347.683322 -114.372554 
L 347.590513 -109.502269 
L 347.525077 -104.631983 
z
" style="stroke: #3f3f3f; stroke-width: 1.25"/>
    </defs>
    <g clip-path="url(#p7ac56ab845)">
     <use xlink:href="#mdb17dc3afa" x="0" y="720" style="fill: #3274a1; stroke: #3f3f3f; stroke-width: 1.25"/>
    </g>
   </g>
   <g id="PolyCollection_3">
    <defs>
     <path id="m6f68603003" d="M 459.217844 -104.4 
L 458.782156 -104.4 
L 458.660545 -109.253173 
L 458.48598 -114.106346 
L 458.243096 -118.959519 
L 457.915321 -123.812691 
L 457.485978 -128.665864 
L 456.939638 -133.519037 
L 456.26358 -138.37221 
L 455.44911 -143.225383 
L 454.492559 -148.078556 
L 453.395781 -152.931728 
L 452.166101 -157.784901 
L 450.815788 -162.638074 
L 449.361198 -167.491247 
L 447.821797 -172.34442 
L 446.219224 -177.197593 
L 444.576489 -182.050765 
L 442.917239 -186.903938 
L 441.265025 -191.757111 
L 439.642401 -196.610284 
L 438.069838 -201.463457 
L 436.564518 -206.31663 
L 435.13921 -211.169802 
L 433.80155 -216.022975 
L 432.553984 -220.876148 
L 431.39456 -225.729321 
L 430.318532 -230.582494 
L 429.320563 -235.435667 
L 428.397105 -240.288839 
L 427.548483 -245.142012 
L 426.780237 -249.995185 
L 426.103371 -254.848358 
L 425.533408 -259.701531 
L 425.088311 -264.554704 
L 424.785607 -269.407876 
L 424.639166 -274.261049 
L 424.656219 -279.114222 
L 424.835195 -283.967395 
L 425.164844 -288.820568 
L 425.624937 -293.673741 
L 426.188547 -298.526913 
L 426.825635 -303.380086 
L 427.507385 -308.233259 
L 428.210568 -313.086432 
L 428.921125 -317.939605 
L 429.6363 -322.792778 
L 430.364803 -327.64595 
L 431.1249 -332.499123 
L 431.940653 -337.352296 
L 432.836928 -342.205469 
L 433.834095 -347.058642 
L 434.943388 -351.911815 
L 436.163848 -356.764988 
L 437.481386 -361.61816 
L 438.870099 -366.471333 
L 440.295431 -371.324506 
L 441.718465 -376.177679 
L 443.100416 -381.030852 
L 444.40653 -385.884025 
L 445.608846 -390.737197 
L 446.687673 -395.59037 
L 447.631932 -400.443543 
L 448.438715 -405.296716 
L 449.112418 -410.149889 
L 449.663687 -415.003062 
L 450.108219 -419.856234 
L 450.465383 -424.709407 
L 450.756546 -429.56258 
L 451.003137 -434.415753 
L 451.224603 -439.268926 
L 451.436595 -444.122099 
L 451.649769 -448.975271 
L 451.869498 -453.828444 
L 452.096625 -458.681617 
L 452.329091 -463.53479 
L 452.564038 -468.387963 
L 452.799852 -473.241136 
L 453.037602 -478.094308 
L 453.281523 -482.947481 
L 453.538429 -487.800654 
L 453.816251 -492.653827 
L 454.122099 -497.507 
L 454.460368 -502.360173 
L 454.831364 -507.213345 
L 455.230755 -512.066518 
L 455.649947 -516.919691 
L 456.077235 -521.772864 
L 456.499435 -526.626037 
L 456.903623 -531.47921 
L 457.278636 -536.332382 
L 457.61611 -541.185555 
L 457.910954 -546.038728 
L 458.161306 -550.891901 
L 458.368095 -555.745074 
L 458.534382 -560.598247 
L 458.664629 -565.451419 
L 458.764023 -570.304592 
L 458.837915 -575.157765 
L 458.891412 -580.010938 
L 458.92911 -584.864111 
L 459.07089 -584.864111 
L 459.07089 -584.864111 
L 459.108588 -580.010938 
L 459.162085 -575.157765 
L 459.235977 -570.304592 
L 459.335371 -565.451419 
L 459.465618 -560.598247 
L 459.631905 -555.745074 
L 459.838694 -550.891901 
L 460.089046 -546.038728 
L 460.38389 -541.185555 
L 460.721364 -536.332382 
L 461.096377 -531.47921 
L 461.500565 -526.626037 
L 461.922765 -521.772864 
L 462.350053 -516.919691 
L 462.769245 -512.066518 
L 463.168636 -507.213345 
L 463.539632 -502.360173 
L 463.877901 -497.507 
L 464.183749 -492.653827 
L 464.461571 -487.800654 
L 464.718477 -482.947481 
L 464.962398 -478.094308 
L 465.200148 -473.241136 
L 465.435962 -468.387963 
L 465.670909 -463.53479 
L 465.903375 -458.681617 
L 466.130502 -453.828444 
L 466.350231 -448.975271 
L 466.563405 -444.122099 
L 466.775397 -439.268926 
L 466.996863 -434.415753 
L 467.243454 -429.56258 
L 467.534617 -424.709407 
L 467.891781 -419.856234 
L 468.336313 -415.003062 
L 468.887582 -410.149889 
L 469.561285 -405.296716 
L 470.368068 -400.443543 
L 471.312327 -395.59037 
L 472.391154 -390.737197 
L 473.59347 -385.884025 
L 474.899584 -381.030852 
L 476.281535 -376.177679 
L 477.704569 -371.324506 
L 479.129901 -366.471333 
L 480.518614 -361.61816 
L 481.836152 -356.764988 
L 483.056612 -351.911815 
L 484.165905 -347.058642 
L 485.163072 -342.205469 
L 486.059347 -337.352296 
L 486.8751 -332.499123 
L 487.635197 -327.64595 
L 488.3637 -322.792778 
L 489.078875 -317.939605 
L 489.789432 -313.086432 
L 490.492615 -308.233259 
L 491.174365 -303.380086 
L 491.811453 -298.526913 
L 492.375063 -293.673741 
L 492.835156 -288.820568 
L 493.164805 -283.967395 
L 493.343781 -279.114222 
L 493.360834 -274.261049 
L 493.214393 -269.407876 
L 492.911689 -264.554704 
L 492.466592 -259.701531 
L 491.896629 -254.848358 
L 491.219763 -249.995185 
L 490.451517 -245.142012 
L 489.602895 -240.288839 
L 488.679437 -235.435667 
L 487.681468 -230.582494 
L 486.60544 -225.729321 
L 485.446016 -220.876148 
L 484.19845 -216.022975 
L 482.86079 -211.169802 
L 481.435482 -206.31663 
L 479.930162 -201.463457 
L 478.357599 -196.610284 
L 476.734975 -191.757111 
L 475.082761 -186.903938 
L 473.423511 -182.050765 
L 471.780776 -177.197593 
L 470.178203 -172.34442 
L 468.638802 -167.491247 
L 467.184212 -162.638074 
L 465.833899 -157.784901 
L 464.604219 -152.931728 
L 463.507441 -148.078556 
L 462.55089 -143.225383 
L 461.73642 -138.37221 
L 461.060362 -133.519037 
L 460.514022 -128.665864 
L 460.084679 -123.812691 
L 459.756904 -118.959519 
L 459.51402 -114.106346 
L 459.339455 -109.253173 
L 459.217844 -104.4 
z
" style="stroke: #3f3f3f; stroke-width: 1.25"/>
    </defs>
    <g clip-path="url(#p7ac56ab845)">
     <use xlink:href="#m6f68603003" x="0" y="720" style="fill: #3274a1; stroke: #3f3f3f; stroke-width: 1.25"/>
    </g>
   </g>
   <g id="PolyCollection_4">
    <defs>
     <path id="m571730e518" d="M 570.846739 -105.711861 
L 570.353261 -105.711861 
L 570.215928 -110.308205 
L 570.01788 -114.904549 
L 569.740465 -119.500893 
L 569.362889 -124.097237 
L 568.863353 -128.693581 
L 568.220647 -133.289925 
L 567.416059 -137.886269 
L 566.435401 -142.482613 
L 565.270841 -147.078957 
L 563.922276 -151.675301 
L 562.398 -156.271645 
L 560.714566 -160.867989 
L 558.895869 -165.464333 
L 556.971656 -170.060677 
L 554.975701 -174.657021 
L 552.943937 -179.253365 
L 550.912733 -183.849709 
L 548.917408 -188.446053 
L 546.990966 -193.042397 
L 545.162992 -197.638741 
L 543.458676 -202.235085 
L 541.897993 -206.831429 
L 540.495167 -211.427773 
L 539.258545 -216.024117 
L 538.190991 -220.620461 
L 537.290756 -225.216806 
L 536.552683 -229.81315 
L 535.969475 -234.409494 
L 535.532785 -239.005838 
L 535.233942 -243.602182 
L 535.064313 -248.198526 
L 535.015416 -252.79487 
L 535.078983 -257.391214 
L 535.247143 -261.987558 
L 535.512774 -266.583902 
L 535.86991 -271.180246 
L 536.313974 -275.77659 
L 536.84159 -280.372934 
L 537.449836 -284.969278 
L 538.134966 -289.565622 
L 538.890907 -294.161966 
L 539.707966 -298.75831 
L 540.57224 -303.354654 
L 541.466133 -307.950998 
L 542.370091 -312.547342 
L 543.265354 -317.143686 
L 544.137219 -321.74003 
L 544.978078 -326.336374 
L 545.789468 -330.932718 
L 546.582547 -335.529062 
L 547.376725 -340.125406 
L 548.1966 -344.72175 
L 549.067753 -349.318094 
L 550.012179 -353.914438 
L 551.044242 -358.510782 
L 552.167843 -363.107126 
L 553.375245 -367.70347 
L 554.647571 -372.299814 
L 555.956734 -376.896158 
L 557.268309 -381.492502 
L 558.544873 -386.088846 
L 559.749359 -390.68519 
L 560.848173 -395.281534 
L 561.813889 -399.877878 
L 562.62745 -404.474222 
L 563.279743 -409.070566 
L 563.77241 -413.66691 
L 564.117704 -418.263254 
L 564.337241 -422.859598 
L 564.459653 -427.455942 
L 564.517308 -432.052286 
L 564.542551 -436.64863 
L 564.56401 -441.244974 
L 564.603627 -445.841318 
L 564.674931 -450.437662 
L 564.782828 -455.034006 
L 564.9249 -459.63035 
L 565.093828 -464.226694 
L 565.280393 -468.823038 
L 565.476363 -473.419382 
L 565.676673 -478.015726 
L 565.880511 -482.61207 
L 566.091171 -487.208414 
L 566.314837 -491.804758 
L 566.558667 -496.401102 
L 566.828672 -500.997446 
L 567.127873 -505.59379 
L 567.455139 -510.190134 
L 567.804899 -514.786478 
L 568.167746 -519.382822 
L 568.531744 -523.979166 
L 568.884124 -528.57551 
L 569.213012 -533.171854 
L 569.508853 -537.768198 
L 569.765325 -542.364542 
L 569.979642 -546.960886 
L 570.152308 -551.55723 
L 570.286459 -556.153574 
L 570.386996 -560.749918 
L 570.813004 -560.749918 
L 570.813004 -560.749918 
L 570.913541 -556.153574 
L 571.047692 -551.55723 
L 571.220358 -546.960886 
L 571.434675 -542.364542 
L 571.691147 -537.768198 
L 571.986988 -533.171854 
L 572.315876 -528.57551 
L 572.668256 -523.979166 
L 573.032254 -519.382822 
L 573.395101 -514.786478 
L 573.744861 -510.190134 
L 574.072127 -505.59379 
L 574.371328 -500.997446 
L 574.641333 -496.401102 
L 574.885163 -491.804758 
L 575.108829 -487.208414 
L 575.319489 -482.61207 
L 575.523327 -478.015726 
L 575.723637 -473.419382 
L 575.919607 -468.823038 
L 576.106172 -464.226694 
L 576.2751 -459.63035 
L 576.417172 -455.034006 
L 576.525069 -450.437662 
L 576.596373 -445.841318 
L 576.63599 -441.244974 
L 576.657449 -436.64863 
L 576.682692 -432.052286 
L 576.740347 -427.455942 
L 576.862759 -422.859598 
L 577.082296 -418.263254 
L 577.42759 -413.66691 
L 577.920257 -409.070566 
L 578.57255 -404.474222 
L 579.386111 -399.877878 
L 580.351827 -395.281534 
L 581.450641 -390.68519 
L 582.655127 -386.088846 
L 583.931691 -381.492502 
L 585.243266 -376.896158 
L 586.552429 -372.299814 
L 587.824755 -367.70347 
L 589.032157 -363.107126 
L 590.155758 -358.510782 
L 591.187821 -353.914438 
L 592.132247 -349.318094 
L 593.0034 -344.72175 
L 593.823275 -340.125406 
L 594.617453 -335.529062 
L 595.410532 -330.932718 
L 596.221922 -326.336374 
L 597.062781 -321.74003 
L 597.934646 -317.143686 
L 598.829909 -312.547342 
L 599.733867 -307.950998 
L 600.62776 -303.354654 
L 601.492034 -298.75831 
L 602.309093 -294.161966 
L 603.065034 -289.565622 
L 603.750164 -284.969278 
L 604.35841 -280.372934 
L 604.886026 -275.77659 
L 605.33009 -271.180246 
L 605.687226 -266.583902 
L 605.952857 -261.987558 
L 606.121017 -257.391214 
L 606.184584 -252.79487 
L 606.135687 -248.198526 
L 605.966058 -243.602182 
L 605.667215 -239.005838 
L 605.230525 -234.409494 
L 604.647317 -229.81315 
L 603.909244 -225.216806 
L 603.009009 -220.620461 
L 601.941455 -216.024117 
L 600.704833 -211.427773 
L 599.302007 -206.831429 
L 597.741324 -202.235085 
L 596.037008 -197.638741 
L 594.209034 -193.042397 
L 592.282592 -188.446053 
L 590.287267 -183.849709 
L 588.256063 -179.253365 
L 586.224299 -174.657021 
L 584.228344 -170.060677 
L 582.304131 -165.464333 
L 580.485434 -160.867989 
L 578.802 -156.271645 
L 577.277724 -151.675301 
L 575.929159 -147.078957 
L 574.764599 -142.482613 
L 573.783941 -137.886269 
L 572.979353 -133.289925 
L 572.336647 -128.693581 
L 571.837111 -124.097237 
L 571.459535 -119.500893 
L 571.18212 -114.904549 
L 570.984072 -110.308205 
L 570.846739 -105.711861 
z
" style="stroke: #3f3f3f; stroke-width: 1.25"/>
    </defs>
    <g clip-path="url(#p7ac56ab845)">
     <use xlink:href="#m571730e518" x="0" y="720" style="fill: #3274a1; stroke: #3f3f3f; stroke-width: 1.25"/>
    </g>
   </g>
   <g id="PolyCollection_5">
    <defs>
     <path id="m1178fd4f99" d="M 682.468161 -107.00486 
L 681.931839 -107.00486 
L 681.77982 -111.575083 
L 681.559904 -116.145306 
L 681.251398 -120.715529 
L 680.831524 -125.285752 
L 680.276827 -129.855974 
L 679.565053 -134.426197 
L 678.677293 -138.99642 
L 677.600113 -143.566643 
L 676.327321 -148.136866 
L 674.861056 -152.707088 
L 673.211993 -157.277311 
L 671.398626 -161.847534 
L 669.445788 -166.417757 
L 667.382725 -170.98798 
L 665.24113 -175.558203 
L 663.053503 -180.128425 
L 660.852065 -184.698648 
L 658.668287 -189.268871 
L 656.532873 -193.839094 
L 654.475948 -198.409317 
L 652.527166 -202.979539 
L 650.715524 -207.549762 
L 649.068815 -212.119985 
L 647.612754 -216.690208 
L 646.3699 -221.260431 
L 645.358489 -225.830653 
L 644.591271 -230.400876 
L 644.074419 -234.971099 
L 643.806573 -239.541322 
L 643.778178 -244.111545 
L 643.971328 -248.681768 
L 644.360393 -253.25199 
L 644.9136 -257.822213 
L 645.595592 -262.392436 
L 646.370701 -266.962659 
L 647.206417 -271.532882 
L 648.076394 -276.103104 
L 648.962337 -280.673327 
L 649.854327 -285.24355 
L 650.749522 -289.813773 
L 651.649534 -294.383996 
L 652.557182 -298.954219 
L 653.473434 -303.524441 
L 654.395386 -308.094664 
L 655.315797 -312.664887 
L 656.224349 -317.23511 
L 657.110292 -321.805333 
L 657.965769 -326.375555 
L 658.788888 -330.945778 
L 659.585674 -335.516001 
L 660.370274 -340.086224 
L 661.163283 -344.656447 
L 661.988473 -349.226669 
L 662.868644 -353.796892 
L 663.821454 -358.367115 
L 664.85606 -362.937338 
L 665.971123 -367.507561 
L 667.154429 -372.077784 
L 668.383998 -376.648006 
L 669.630354 -381.218229 
L 670.859489 -385.788452 
L 672.036116 -390.358675 
L 673.126856 -394.928898 
L 674.10313 -399.49912 
L 674.943573 -404.069343 
L 675.635837 -408.639566 
L 676.177601 -413.209789 
L 676.576661 -417.780012 
L 676.849959 -422.350235 
L 677.021577 -426.920457 
L 677.119852 -431.49068 
L 677.173974 -436.060903 
L 677.210568 -440.631126 
L 677.250839 -445.201349 
L 677.308771 -449.771571 
L 677.390686 -454.341794 
L 677.496177 -458.912017 
L 677.62015 -463.48224 
L 677.755464 -468.052463 
L 677.895571 -472.622685 
L 678.036597 -477.192908 
L 678.178471 -481.763131 
L 678.324956 -486.333354 
L 678.482672 -490.903577 
L 678.659419 -495.4738 
L 678.862213 -500.044022 
L 679.095475 -504.614245 
L 679.359744 -509.184468 
L 679.651175 -513.754691 
L 679.961867 -518.324914 
L 680.280934 -522.895136 
L 680.596063 -527.465359 
L 680.895219 -532.035582 
L 681.168175 -536.605805 
L 681.407597 -541.176028 
L 681.609547 -545.746251 
L 681.773409 -550.316473 
L 681.90135 -554.886696 
L 681.997504 -559.456919 
L 682.402496 -559.456919 
L 682.402496 -559.456919 
L 682.49865 -554.886696 
L 682.626591 -550.316473 
L 682.790453 -545.746251 
L 682.992403 -541.176028 
L 683.231825 -536.605805 
L 683.504781 -532.035582 
L 683.803937 -527.465359 
L 684.119066 -522.895136 
L 684.438133 -518.324914 
L 684.748825 -513.754691 
L 685.040256 -509.184468 
L 685.304525 -504.614245 
L 685.537787 -500.044022 
L 685.740581 -495.4738 
L 685.917328 -490.903577 
L 686.075044 -486.333354 
L 686.221529 -481.763131 
L 686.363403 -477.192908 
L 686.504429 -472.622685 
L 686.644536 -468.052463 
L 686.77985 -463.48224 
L 686.903823 -458.912017 
L 687.009314 -454.341794 
L 687.091229 -449.771571 
L 687.149161 -445.201349 
L 687.189432 -440.631126 
L 687.226026 -436.060903 
L 687.280148 -431.49068 
L 687.378423 -426.920457 
L 687.550041 -422.350235 
L 687.823339 -417.780012 
L 688.222399 -413.209789 
L 688.764163 -408.639566 
L 689.456427 -404.069343 
L 690.29687 -399.49912 
L 691.273144 -394.928898 
L 692.363884 -390.358675 
L 693.540511 -385.788452 
L 694.769646 -381.218229 
L 696.016002 -376.648006 
L 697.245571 -372.077784 
L 698.428877 -367.507561 
L 699.54394 -362.937338 
L 700.578546 -358.367115 
L 701.531356 -353.796892 
L 702.411527 -349.226669 
L 703.236717 -344.656447 
L 704.029726 -340.086224 
L 704.814326 -335.516001 
L 705.611112 -330.945778 
L 706.434231 -326.375555 
L 707.289708 -321.805333 
L 708.175651 -317.23511 
L 709.084203 -312.664887 
L 710.004614 -308.094664 
L 710.926566 -303.524441 
L 711.842818 -298.954219 
L 712.750466 -294.383996 
L 713.650478 -289.813773 
L 714.545673 -285.24355 
L 715.437663 -280.673327 
L 716.323606 -276.103104 
L 717.193583 -271.532882 
L 718.029299 -266.962659 
L 718.804408 -262.392436 
L 719.4864 -257.822213 
L 720.039607 -253.25199 
L 720.428672 -248.681768 
L 720.621822 -244.111545 
L 720.593427 -239.541322 
L 720.325581 -234.971099 
L 719.808729 -230.400876 
L 719.041511 -225.830653 
L 718.0301 -221.260431 
L 716.787246 -216.690208 
L 715.331185 -212.119985 
L 713.684476 -207.549762 
L 711.872834 -202.979539 
L 709.924052 -198.409317 
L 707.867127 -193.839094 
L 705.731713 -189.268871 
L 703.547935 -184.698648 
L 701.346497 -180.128425 
L 699.15887 -175.558203 
L 697.017275 -170.98798 
L 694.954212 -166.417757 
L 693.001374 -161.847534 
L 691.188007 -157.277311 
L 689.538944 -152.707088 
L 688.072679 -148.136866 
L 686.799887 -143.566643 
L 685.722707 -138.99642 
L 684.834947 -134.426197 
L 684.123173 -129.855974 
L 683.568476 -125.285752 
L 683.148602 -120.715529 
L 682.840096 -116.145306 
L 682.62018 -111.575083 
L 682.468161 -107.00486 
z
" style="stroke: #3f3f3f; stroke-width: 1.25"/>
    </defs>
    <g clip-path="url(#p7ac56ab845)">
     <use xlink:href="#m1178fd4f99" x="0" y="720" style="fill: #3274a1; stroke: #3f3f3f; stroke-width: 1.25"/>
    </g>
   </g>
   <g id="PolyCollection_6">
    <defs>
     <path id="ma6c26baf8b" d="M 794.115246 -107.96734 
L 793.484754 -107.96734 
L 793.306593 -112.518119 
L 793.050625 -117.068898 
L 792.694826 -121.619677 
L 792.216056 -126.170456 
L 791.591925 -130.721234 
L 790.802968 -135.272013 
L 789.834777 -139.822792 
L 788.67969 -144.373571 
L 787.337654 -148.924349 
L 785.816046 -153.475128 
L 784.128473 -158.025907 
L 782.292826 -162.576686 
L 780.329104 -167.127464 
L 778.257581 -171.678243 
L 776.097853 -176.229022 
L 773.869027 -180.779801 
L 771.591022 -185.33058 
L 769.286594 -189.881358 
L 766.983456 -194.432137 
L 764.715798 -198.982916 
L 762.524611 -203.533695 
L 760.456502 -208.084473 
L 758.561021 -212.635252 
L 756.886855 -217.186031 
L 755.477481 -221.73681 
L 754.366914 -226.287589 
L 753.576164 -230.838367 
L 753.110866 -235.389146 
L 752.960376 -239.939925 
L 753.098534 -244.490704 
L 753.486121 -249.041482 
L 754.074935 -253.592261 
L 754.813168 -258.14304 
L 755.651489 -262.693819 
L 756.548968 -267.244597 
L 757.477756 -271.795376 
L 758.425527 -276.346155 
L 759.394974 -280.896934 
L 760.400273 -285.447713 
L 761.4611 -289.998491 
L 762.595439 -294.54927 
L 763.81278 -299.100049 
L 765.109299 -303.650828 
L 766.466176 -308.201606 
L 767.851475 -312.752385 
L 769.225171 -317.303164 
L 770.546122 -321.853943 
L 771.779384 -326.404721 
L 772.902189 -330.9555 
L 773.907342 -335.506279 
L 774.803441 -340.057058 
L 775.612156 -344.607837 
L 776.363408 -349.158615 
L 777.089702 -353.709394 
L 777.820826 -358.260173 
L 778.579858 -362.810952 
L 779.380922 -367.36173 
L 780.22866 -371.912509 
L 781.119024 -376.463288 
L 782.040875 -381.014067 
L 782.977868 -385.564846 
L 783.910332 -390.115624 
L 784.816978 -394.666403 
L 785.676482 -399.217182 
L 786.469005 -403.767961 
L 787.177694 -408.318739 
L 787.790128 -412.869518 
L 788.299566 -417.420297 
L 788.705753 -421.971076 
L 789.015082 -426.521854 
L 789.239931 -431.072633 
L 789.397163 -435.623412 
L 789.505969 -440.174191 
L 789.585379 -444.72497 
L 789.651904 -449.275748 
L 789.717764 -453.826527 
L 789.790065 -458.377306 
L 789.871052 -462.928085 
L 789.959357 -467.478863 
L 790.051902 -472.029642 
L 790.145972 -476.580421 
L 790.240956 -481.1312 
L 790.339322 -485.681978 
L 790.446609 -490.232757 
L 790.57045 -494.783536 
L 790.718879 -499.334315 
L 790.898359 -503.885094 
L 791.11201 -508.435872 
L 791.358492 -512.986651 
L 791.631787 -517.53743 
L 791.921933 -522.088209 
L 792.216508 -526.638987 
L 792.502507 -531.189766 
L 792.768184 -535.740545 
L 793.004497 -540.291324 
L 793.205915 -544.842103 
L 793.370544 -549.392881 
L 793.499666 -553.94366 
L 793.596902 -558.494439 
L 794.003098 -558.494439 
L 794.003098 -558.494439 
L 794.100334 -553.94366 
L 794.229456 -549.392881 
L 794.394085 -544.842103 
L 794.595503 -540.291324 
L 794.831816 -535.740545 
L 795.097493 -531.189766 
L 795.383492 -526.638987 
L 795.678067 -522.088209 
L 795.968213 -517.53743 
L 796.241508 -512.986651 
L 796.48799 -508.435872 
L 796.701641 -503.885094 
L 796.881121 -499.334315 
L 797.02955 -494.783536 
L 797.153391 -490.232757 
L 797.260678 -485.681978 
L 797.359044 -481.1312 
L 797.454028 -476.580421 
L 797.548098 -472.029642 
L 797.640643 -467.478863 
L 797.728948 -462.928085 
L 797.809935 -458.377306 
L 797.882236 -453.826527 
L 797.948096 -449.275748 
L 798.014621 -444.72497 
L 798.094031 -440.174191 
L 798.202837 -435.623412 
L 798.360069 -431.072633 
L 798.584918 -426.521854 
L 798.894247 -421.971076 
L 799.300434 -417.420297 
L 799.809872 -412.869518 
L 800.422306 -408.318739 
L 801.130995 -403.767961 
L 801.923518 -399.217182 
L 802.783022 -394.666403 
L 803.689668 -390.115624 
L 804.622132 -385.564846 
L 805.559125 -381.014067 
L 806.480976 -376.463288 
L 807.37134 -371.912509 
L 808.219078 -367.36173 
L 809.020142 -362.810952 
L 809.779174 -358.260173 
L 810.510298 -353.709394 
L 811.236592 -349.158615 
L 811.987844 -344.607837 
L 812.796559 -340.057058 
L 813.692658 -335.506279 
L 814.697811 -330.9555 
L 815.820616 -326.404721 
L 817.053878 -321.853943 
L 818.374829 -317.303164 
L 819.748525 -312.752385 
L 821.133824 -308.201606 
L 822.490701 -303.650828 
L 823.78722 -299.100049 
L 825.004561 -294.54927 
L 826.1389 -289.998491 
L 827.199727 -285.447713 
L 828.205026 -280.896934 
L 829.174473 -276.346155 
L 830.122244 -271.795376 
L 831.051032 -267.244597 
L 831.948511 -262.693819 
L 832.786832 -258.14304 
L 833.525065 -253.592261 
L 834.113879 -249.041482 
L 834.501466 -244.490704 
L 834.639624 -239.939925 
L 834.489134 -235.389146 
L 834.023836 -230.838367 
L 833.233086 -226.287589 
L 832.122519 -221.73681 
L 830.713145 -217.186031 
L 829.038979 -212.635252 
L 827.143498 -208.084473 
L 825.075389 -203.533695 
L 822.884202 -198.982916 
L 820.616544 -194.432137 
L 818.313406 -189.881358 
L 816.008978 -185.33058 
L 813.730973 -180.779801 
L 811.502147 -176.229022 
L 809.342419 -171.678243 
L 807.270896 -167.127464 
L 805.307174 -162.576686 
L 803.471527 -158.025907 
L 801.783954 -153.475128 
L 800.262346 -148.924349 
L 798.92031 -144.373571 
L 797.765223 -139.822792 
L 796.797032 -135.272013 
L 796.008075 -130.721234 
L 795.383944 -126.170456 
L 794.905174 -121.619677 
L 794.549375 -117.068898 
L 794.293407 -112.518119 
L 794.115246 -107.96734 
z
" style="stroke: #3f3f3f; stroke-width: 1.25"/>
    </defs>
    <g clip-path="url(#p7ac56ab845)">
     <use xlink:href="#ma6c26baf8b" x="0" y="720" style="fill: #3274a1; stroke: #3f3f3f; stroke-width: 1.25"/>
    </g>
   </g>
   <g id="PolyCollection_7">
    <defs>
     <path id="m374eeeec94" d="M 905.704306 -108.633384 
L 905.095694 -108.633384 
L 904.917679 -113.168946 
L 904.658067 -117.704508 
L 904.291624 -122.24007 
L 903.790754 -126.775632 
L 903.127405 -131.311194 
L 902.275573 -135.846756 
L 901.214093 -140.382318 
L 899.929317 -144.91788 
L 898.417179 -149.453442 
L 896.684194 -153.989004 
L 894.747117 -158.524566 
L 892.631225 -163.060128 
L 890.36752 -167.59569 
L 887.989428 -172.131252 
L 885.529796 -176.666815 
L 883.018968 -181.202377 
L 880.484538 -185.737939 
L 877.952969 -190.273501 
L 875.452706 -194.809063 
L 873.017884 -199.344625 
L 870.691385 -203.880187 
L 868.525949 -208.415749 
L 866.582401 -212.951311 
L 864.924768 -217.486873 
L 863.612849 -222.022435 
L 862.693599 -226.557997 
L 862.193083 -231.093559 
L 862.110809 -235.629121 
L 862.417804 -240.164683 
L 863.059093 -244.700245 
L 863.960396 -249.235807 
L 865.038018 -253.77137 
L 866.210336 -258.306932 
L 867.408849 -262.842494 
L 868.586802 -267.378056 
L 869.723709 -271.913618 
L 870.824835 -276.44918 
L 871.915704 -280.984742 
L 873.032761 -285.520304 
L 874.212236 -290.055866 
L 875.479688 -294.591428 
L 876.842568 -299.12699 
L 878.287358 -303.662552 
L 879.781729 -308.198114 
L 881.280885 -312.733676 
L 882.736335 -317.269238 
L 884.104888 -321.8048 
L 885.355806 -326.340362 
L 886.474742 -330.875925 
L 887.464029 -335.411487 
L 888.339781 -339.947049 
L 889.127 -344.482611 
L 889.854089 -349.018173 
L 890.54809 -353.553735 
L 891.231442 -358.089297 
L 891.9205 -362.624859 
L 892.625499 -367.160421 
L 893.351336 -371.695983 
L 894.098524 -376.231545 
L 894.863863 -380.767107 
L 895.640716 -385.302669 
L 896.419091 -389.838231 
L 897.185873 -394.373793 
L 897.92553 -398.909355 
L 898.621428 -403.444918 
L 899.257622 -407.98048 
L 899.820831 -412.516042 
L 900.302132 -417.051604 
L 900.698048 -421.587166 
L 901.010761 -426.122728 
L 901.247478 -430.65829 
L 901.419086 -435.193852 
L 901.538434 -439.729414 
L 901.618593 -444.264976 
L 901.671439 -448.800538 
L 901.706798 -453.3361 
L 901.732243 -457.871662 
L 901.753494 -462.407224 
L 901.775206 -466.942786 
L 901.801876 -471.478348 
L 901.838568 -476.01391 
L 901.891227 -480.549473 
L 901.966473 -485.085035 
L 902.070886 -489.620597 
L 902.209971 -494.156159 
L 902.38701 -498.691721 
L 902.60211 -503.227283 
L 902.851674 -507.762845 
L 903.128459 -512.298407 
L 903.422238 -516.833969 
L 903.72097 -521.369531 
L 904.01226 -525.905093 
L 904.284832 -530.440655 
L 904.529743 -534.976217 
L 904.741146 -539.511779 
L 904.916515 -544.047341 
L 905.056364 -548.582903 
L 905.163598 -553.118465 
L 905.242676 -557.654028 
L 905.557324 -557.654028 
L 905.557324 -557.654028 
L 905.636402 -553.118465 
L 905.743636 -548.582903 
L 905.883485 -544.047341 
L 906.058854 -539.511779 
L 906.270257 -534.976217 
L 906.515168 -530.440655 
L 906.78774 -525.905093 
L 907.07903 -521.369531 
L 907.377762 -516.833969 
L 907.671541 -512.298407 
L 907.948326 -507.762845 
L 908.19789 -503.227283 
L 908.41299 -498.691721 
L 908.590029 -494.156159 
L 908.729114 -489.620597 
L 908.833527 -485.085035 
L 908.908773 -480.549473 
L 908.961432 -476.01391 
L 908.998124 -471.478348 
L 909.024794 -466.942786 
L 909.046506 -462.407224 
L 909.067757 -457.871662 
L 909.093202 -453.3361 
L 909.128561 -448.800538 
L 909.181407 -444.264976 
L 909.261566 -439.729414 
L 909.380914 -435.193852 
L 909.552522 -430.65829 
L 909.789239 -426.122728 
L 910.101952 -421.587166 
L 910.497868 -417.051604 
L 910.979169 -412.516042 
L 911.542378 -407.98048 
L 912.178572 -403.444918 
L 912.87447 -398.909355 
L 913.614127 -394.373793 
L 914.380909 -389.838231 
L 915.159284 -385.302669 
L 915.936137 -380.767107 
L 916.701476 -376.231545 
L 917.448664 -371.695983 
L 918.174501 -367.160421 
L 918.8795 -362.624859 
L 919.568558 -358.089297 
L 920.25191 -353.553735 
L 920.945911 -349.018173 
L 921.673 -344.482611 
L 922.460219 -339.947049 
L 923.335971 -335.411487 
L 924.325258 -330.875925 
L 925.444194 -326.340362 
L 926.695112 -321.8048 
L 928.063665 -317.269238 
L 929.519115 -312.733676 
L 931.018271 -308.198114 
L 932.512642 -303.662552 
L 933.957432 -299.12699 
L 935.320312 -294.591428 
L 936.587764 -290.055866 
L 937.767239 -285.520304 
L 938.884296 -280.984742 
L 939.975165 -276.44918 
L 941.076291 -271.913618 
L 942.213198 -267.378056 
L 943.391151 -262.842494 
L 944.589664 -258.306932 
L 945.761982 -253.77137 
L 946.839604 -249.235807 
L 947.740907 -244.700245 
L 948.382196 -240.164683 
L 948.689191 -235.629121 
L 948.606917 -231.093559 
L 948.106401 -226.557997 
L 947.187151 -222.022435 
L 945.875232 -217.486873 
L 944.217599 -212.951311 
L 942.274051 -208.415749 
L 940.108615 -203.880187 
L 937.782116 -199.344625 
L 935.347294 -194.809063 
L 932.847031 -190.273501 
L 930.315462 -185.737939 
L 927.781032 -181.202377 
L 925.270204 -176.666815 
L 922.810572 -172.131252 
L 920.43248 -167.59569 
L 918.168775 -163.060128 
L 916.052883 -158.524566 
L 914.115806 -153.989004 
L 912.382821 -149.453442 
L 910.870683 -144.91788 
L 909.585907 -140.382318 
L 908.524427 -135.846756 
L 907.672595 -131.311194 
L 907.009246 -126.775632 
L 906.508376 -122.24007 
L 906.141933 -117.704508 
L 905.882321 -113.168946 
L 905.704306 -108.633384 
z
" style="stroke: #3f3f3f; stroke-width: 1.25"/>
    </defs>
    <g clip-path="url(#p7ac56ab845)">
     <use xlink:href="#m374eeeec94" x="0" y="720" style="fill: #3274a1; stroke: #3f3f3f; stroke-width: 1.25"/>
    </g>
   </g>
   <g id="PolyCollection_8">
    <defs>
     <path id="mf425b26c74" d="M 1017.323644 -107.930602 
L 1016.676356 -107.930602 
L 1016.483484 -112.453467 
L 1016.200363 -116.976332 
L 1015.798197 -121.499197 
L 1015.245041 -126.022062 
L 1014.50779 -130.544927 
L 1013.554905 -135.067792 
L 1012.359579 -139.590657 
L 1010.902987 -144.113522 
L 1009.177141 -148.636387 
L 1007.186887 -153.159252 
L 1004.950697 -157.682117 
L 1002.50008 -162.204982 
L 999.877654 -166.727847 
L 997.134174 -171.250712 
L 994.324984 -175.773577 
L 991.506493 -180.296442 
L 988.733285 -184.819307 
L 986.05633 -189.342172 
L 983.522498 -193.865037 
L 981.175187 -198.387902 
L 979.055533 -202.910767 
L 977.203364 -207.433632 
L 975.657079 -211.956497 
L 974.451888 -216.479362 
L 973.616364 -221.002227 
L 973.167884 -225.525092 
L 973.108026 -230.047957 
L 973.419211 -234.570822 
L 974.063703 -239.093687 
L 974.98565 -243.616552 
L 976.116155 -248.139417 
L 977.380756 -252.662282 
L 978.708157 -257.185147 
L 980.038777 -261.708012 
L 981.331604 -266.230877 
L 982.568046 -270.753742 
L 983.751919 -275.276607 
L 984.905381 -279.799472 
L 986.061446 -284.322337 
L 987.254516 -288.845202 
L 988.510905 -293.368067 
L 989.841447 -297.890932 
L 991.237822 -302.413797 
L 992.673375 -306.936662 
L 994.108044 -311.459527 
L 995.496095 -315.982392 
L 996.79472 -320.505257 
L 997.971531 -325.028122 
L 999.009443 -329.550987 
L 999.908249 -334.073852 
L 1000.682999 -338.596717 
L 1001.360034 -343.119582 
L 1001.971857 -347.642447 
L 1002.552021 -352.165312 
L 1003.13096 -356.688177 
L 1003.733194 -361.211042 
L 1004.375907 -365.733907 
L 1005.068576 -370.256771 
L 1005.813186 -374.779636 
L 1006.604687 -379.302501 
L 1007.431547 -383.825366 
L 1008.276491 -388.348231 
L 1009.117668 -392.871096 
L 1009.930417 -397.393961 
L 1010.689658 -401.916826 
L 1011.37267 -406.439691 
L 1011.961811 -410.962556 
L 1012.446678 -415.485421 
L 1012.825244 -420.008286 
L 1013.103771 -424.531151 
L 1013.295515 -429.054016 
L 1013.418504 -433.576881 
L 1013.492843 -438.099746 
L 1013.538027 -442.622611 
L 1013.570734 -447.145476 
L 1013.603423 -451.668341 
L 1013.643886 -456.191206 
L 1013.695735 -460.714071 
L 1013.759584 -465.236936 
L 1013.834595 -469.759801 
L 1013.919984 -474.282666 
L 1014.016121 -478.805531 
L 1014.124983 -483.328396 
L 1014.249892 -487.851261 
L 1014.394651 -492.374126 
L 1014.562346 -496.896991 
L 1014.754149 -501.419856 
L 1014.968467 -505.942721 
L 1015.200643 -510.465586 
L 1015.443329 -514.988451 
L 1015.687397 -519.511316 
L 1015.923214 -524.034181 
L 1016.141958 -528.557046 
L 1016.336714 -533.079911 
L 1016.503146 -537.602776 
L 1016.639679 -542.125641 
L 1016.747218 -546.648506 
L 1016.828559 -551.171371 
L 1016.887655 -555.694236 
L 1017.112345 -555.694236 
L 1017.112345 -555.694236 
L 1017.171441 -551.171371 
L 1017.252782 -546.648506 
L 1017.360321 -542.125641 
L 1017.496854 -537.602776 
L 1017.663286 -533.079911 
L 1017.858042 -528.557046 
L 1018.076786 -524.034181 
L 1018.312603 -519.511316 
L 1018.556671 -514.988451 
L 1018.799357 -510.465586 
L 1019.031533 -505.942721 
L 1019.245851 -501.419856 
L 1019.437654 -496.896991 
L 1019.605349 -492.374126 
L 1019.750108 -487.851261 
L 1019.875017 -483.328396 
L 1019.983879 -478.805531 
L 1020.080016 -474.282666 
L 1020.165405 -469.759801 
L 1020.240416 -465.236936 
L 1020.304265 -460.714071 
L 1020.356114 -456.191206 
L 1020.396577 -451.668341 
L 1020.429266 -447.145476 
L 1020.461973 -442.622611 
L 1020.507157 -438.099746 
L 1020.581496 -433.576881 
L 1020.704485 -429.054016 
L 1020.896229 -424.531151 
L 1021.174756 -420.008286 
L 1021.553322 -415.485421 
L 1022.038189 -410.962556 
L 1022.62733 -406.439691 
L 1023.310342 -401.916826 
L 1024.069583 -397.393961 
L 1024.882332 -392.871096 
L 1025.723509 -388.348231 
L 1026.568453 -383.825366 
L 1027.395313 -379.302501 
L 1028.186814 -374.779636 
L 1028.931424 -370.256771 
L 1029.624093 -365.733907 
L 1030.266806 -361.211042 
L 1030.86904 -356.688177 
L 1031.447979 -352.165312 
L 1032.028143 -347.642447 
L 1032.639966 -343.119582 
L 1033.317001 -338.596717 
L 1034.091751 -334.073852 
L 1034.990557 -329.550987 
L 1036.028469 -325.028122 
L 1037.20528 -320.505257 
L 1038.503905 -315.982392 
L 1039.891956 -311.459527 
L 1041.326625 -306.936662 
L 1042.762178 -302.413797 
L 1044.158553 -297.890932 
L 1045.489095 -293.368067 
L 1046.745484 -288.845202 
L 1047.938554 -284.322337 
L 1049.094619 -279.799472 
L 1050.248081 -275.276607 
L 1051.431954 -270.753742 
L 1052.668396 -266.230877 
L 1053.961223 -261.708012 
L 1055.291843 -257.185147 
L 1056.619244 -252.662282 
L 1057.883845 -248.139417 
L 1059.01435 -243.616552 
L 1059.936297 -239.093687 
L 1060.580789 -234.570822 
L 1060.891974 -230.047957 
L 1060.832116 -225.525092 
L 1060.383636 -221.002227 
L 1059.548112 -216.479362 
L 1058.342921 -211.956497 
L 1056.796636 -207.433632 
L 1054.944467 -202.910767 
L 1052.824813 -198.387902 
L 1050.477502 -193.865037 
L 1047.94367 -189.342172 
L 1045.266715 -184.819307 
L 1042.493507 -180.296442 
L 1039.675016 -175.773577 
L 1036.865826 -171.250712 
L 1034.122346 -166.727847 
L 1031.49992 -162.204982 
L 1029.049303 -157.682117 
L 1026.813113 -153.159252 
L 1024.822859 -148.636387 
L 1023.097013 -144.113522 
L 1021.640421 -139.590657 
L 1020.445095 -135.067792 
L 1019.49221 -130.544927 
L 1018.754959 -126.022062 
L 1018.201803 -121.499197 
L 1017.799637 -116.976332 
L 1017.516516 -112.453467 
L 1017.323644 -107.930602 
z
" style="stroke: #3f3f3f; stroke-width: 1.25"/>
    </defs>
    <g clip-path="url(#p7ac56ab845)">
     <use xlink:href="#mf425b26c74" x="0" y="720" style="fill: #3274a1; stroke: #3f3f3f; stroke-width: 1.25"/>
    </g>
   </g>
   <g id="PolyCollection_9">
    <defs>
     <path id="m95c50c449e" d="M 1128.870887 -107.993911 
L 1128.329113 -107.993911 
L 1128.161831 -112.515497 
L 1127.911827 -117.037083 
L 1127.549912 -121.558669 
L 1127.042226 -126.080255 
L 1126.351852 -130.601841 
L 1125.441413 -135.123427 
L 1124.276544 -139.645013 
L 1122.829901 -144.166599 
L 1121.085204 -148.688185 
L 1119.040653 -153.209771 
L 1116.711072 -157.731357 
L 1114.128308 -162.252943 
L 1111.339681 -166.774529 
L 1108.404684 -171.296115 
L 1105.39053 -175.817701 
L 1102.36737 -180.339287 
L 1099.404087 -184.860873 
L 1096.565364 -189.382459 
L 1093.910305 -193.904045 
L 1091.492385 -198.425631 
L 1089.360047 -202.947217 
L 1087.557062 -207.468804 
L 1086.121857 -211.99039 
L 1085.0854 -216.511976 
L 1084.46783 -221.033562 
L 1084.274511 -225.555148 
L 1084.492556 -230.076734 
L 1085.088852 -234.59832 
L 1086.010392 -239.119906 
L 1087.187274 -243.641492 
L 1088.538282 -248.163078 
L 1089.978532 -252.684664 
L 1091.428329 -257.20625 
L 1092.822042 -261.727836 
L 1094.115612 -266.249422 
L 1095.291203 -270.771008 
L 1096.357816 -275.292594 
L 1097.347258 -279.81418 
L 1098.305907 -284.335766 
L 1099.283746 -288.857352 
L 1100.322974 -293.378938 
L 1101.448757 -297.900524 
L 1102.664208 -302.42211 
L 1103.950579 -306.943696 
L 1105.272302 -311.465282 
L 1106.585314 -315.986868 
L 1107.846408 -320.508454 
L 1109.021354 -325.03004 
L 1110.090143 -329.551626 
L 1111.048639 -334.073212 
L 1111.906902 -338.594798 
L 1112.685168 -343.116384 
L 1113.408825 -347.63797 
L 1114.103644 -352.159556 
L 1114.792171 -356.681142 
L 1115.491645 -361.202728 
L 1116.213312 -365.724314 
L 1116.962675 -370.2459 
L 1117.740094 -374.767486 
L 1118.541294 -379.289072 
L 1119.357633 -383.810658 
L 1120.176267 -388.332244 
L 1120.980566 -392.85383 
L 1121.75111 -397.375416 
L 1122.467421 -401.897002 
L 1123.110308 -406.418588 
L 1123.664405 -410.940175 
L 1124.120384 -415.461761 
L 1124.476321 -419.983347 
L 1124.737913 -424.504933 
L 1124.917493 -429.026519 
L 1125.032062 -433.548105 
L 1125.100763 -438.069691 
L 1125.142291 -442.591277 
L 1125.172706 -447.112863 
L 1125.204015 -451.634449 
L 1125.243689 -456.156035 
L 1125.295113 -460.677621 
L 1125.358734 -465.199207 
L 1125.433595 -469.720793 
L 1125.518826 -474.242379 
L 1125.614747 -478.763965 
L 1125.723318 -483.285551 
L 1125.847876 -487.807137 
L 1125.992265 -492.328723 
L 1126.159623 -496.850309 
L 1126.351177 -501.371895 
L 1126.565377 -505.893481 
L 1126.797592 -510.415067 
L 1127.040468 -514.936653 
L 1127.284855 -519.458239 
L 1127.521077 -523.979825 
L 1127.740263 -528.501411 
L 1127.935451 -533.022997 
L 1128.102268 -537.544583 
L 1128.239117 -542.066169 
L 1128.346894 -546.587755 
L 1128.4284 -551.109341 
L 1128.487599 -555.630927 
L 1128.712401 -555.630927 
L 1128.712401 -555.630927 
L 1128.7716 -551.109341 
L 1128.853106 -546.587755 
L 1128.960883 -542.066169 
L 1129.097732 -537.544583 
L 1129.264549 -533.022997 
L 1129.459737 -528.501411 
L 1129.678923 -523.979825 
L 1129.915145 -519.458239 
L 1130.159532 -514.936653 
L 1130.402408 -510.415067 
L 1130.634623 -505.893481 
L 1130.848823 -501.371895 
L 1131.040377 -496.850309 
L 1131.207735 -492.328723 
L 1131.352124 -487.807137 
L 1131.476682 -483.285551 
L 1131.585253 -478.763965 
L 1131.681174 -474.242379 
L 1131.766405 -469.720793 
L 1131.841266 -465.199207 
L 1131.904887 -460.677621 
L 1131.956311 -456.156035 
L 1131.995985 -451.634449 
L 1132.027294 -447.112863 
L 1132.057709 -442.591277 
L 1132.099237 -438.069691 
L 1132.167938 -433.548105 
L 1132.282507 -429.026519 
L 1132.462087 -424.504933 
L 1132.723679 -419.983347 
L 1133.079616 -415.461761 
L 1133.535595 -410.940175 
L 1134.089692 -406.418588 
L 1134.732579 -401.897002 
L 1135.44889 -397.375416 
L 1136.219434 -392.85383 
L 1137.023733 -388.332244 
L 1137.842367 -383.810658 
L 1138.658706 -379.289072 
L 1139.459906 -374.767486 
L 1140.237325 -370.2459 
L 1140.986688 -365.724314 
L 1141.708355 -361.202728 
L 1142.407829 -356.681142 
L 1143.096356 -352.159556 
L 1143.791175 -347.63797 
L 1144.514832 -343.116384 
L 1145.293098 -338.594798 
L 1146.151361 -334.073212 
L 1147.109857 -329.551626 
L 1148.178646 -325.03004 
L 1149.353592 -320.508454 
L 1150.614686 -315.986868 
L 1151.927698 -311.465282 
L 1153.249421 -306.943696 
L 1154.535792 -302.42211 
L 1155.751243 -297.900524 
L 1156.877026 -293.378938 
L 1157.916254 -288.857352 
L 1158.894093 -284.335766 
L 1159.852742 -279.81418 
L 1160.842184 -275.292594 
L 1161.908797 -270.771008 
L 1163.084388 -266.249422 
L 1164.377958 -261.727836 
L 1165.771671 -257.20625 
L 1167.221468 -252.684664 
L 1168.661718 -248.163078 
L 1170.012726 -243.641492 
L 1171.189608 -239.119906 
L 1172.111148 -234.59832 
L 1172.707444 -230.076734 
L 1172.925489 -225.555148 
L 1172.73217 -221.033562 
L 1172.1146 -216.511976 
L 1171.078143 -211.99039 
L 1169.642938 -207.468804 
L 1167.839953 -202.947217 
L 1165.707615 -198.425631 
L 1163.289695 -193.904045 
L 1160.634636 -189.382459 
L 1157.795913 -184.860873 
L 1154.83263 -180.339287 
L 1151.80947 -175.817701 
L 1148.795316 -171.296115 
L 1145.860319 -166.774529 
L 1143.071692 -162.252943 
L 1140.488928 -157.731357 
L 1138.159347 -153.209771 
L 1136.114796 -148.688185 
L 1134.370099 -144.166599 
L 1132.923456 -139.645013 
L 1131.758587 -135.123427 
L 1130.848148 -130.601841 
L 1130.157774 -126.080255 
L 1129.650088 -121.558669 
L 1129.288173 -117.037083 
L 1129.038169 -112.515497 
L 1128.870887 -107.993911 
z
" style="stroke: #3f3f3f; stroke-width: 1.25"/>
    </defs>
    <g clip-path="url(#p7ac56ab845)">
     <use xlink:href="#m95c50c449e" x="0" y="720" style="fill: #3274a1; stroke: #3f3f3f; stroke-width: 1.25"/>
    </g>
   </g>
   <g id="PolyCollection_10">
    <defs>
     <path id="m2cd7cb5b21" d="M 1240.465249 -110.342242 
L 1239.934751 -110.342242 
L 1239.766239 -114.734721 
L 1239.51178 -119.1272 
L 1239.139795 -123.519678 
L 1238.613119 -127.912157 
L 1237.89061 -132.304636 
L 1236.929946 -136.697114 
L 1235.691571 -141.089593 
L 1234.143512 -145.482071 
L 1232.266527 -149.87455 
L 1230.058808 -154.267029 
L 1227.539358 -158.659507 
L 1224.749216 -163.051986 
L 1221.749985 -167.444464 
L 1218.619565 -171.836943 
L 1215.445598 -176.229422 
L 1212.317644 -180.6219 
L 1209.319507 -185.014379 
L 1206.52311 -189.406857 
L 1203.985016 -193.799336 
L 1201.745972 -198.191815 
L 1199.833048 -202.584293 
L 1198.263233 -206.976772 
L 1197.047026 -211.369251 
L 1196.190668 -215.761729 
L 1195.696286 -220.154208 
L 1195.56 -224.546686 
L 1195.768787 -228.939165 
L 1196.297331 -233.331644 
L 1197.106115 -237.724122 
L 1198.141666 -242.116601 
L 1199.339386 -246.509079 
L 1200.62887 -250.901558 
L 1201.941131 -255.294037 
L 1203.216751 -259.686515 
L 1204.413633 -264.078994 
L 1205.51277 -268.471473 
L 1206.520532 -272.863951 
L 1207.466415 -277.25643 
L 1208.396119 -281.648908 
L 1209.361058 -286.041387 
L 1210.406462 -290.433866 
L 1211.560863 -294.826344 
L 1212.829514 -299.218823 
L 1214.193299 -303.611301 
L 1215.61319 -308.00378 
L 1217.038847 -312.396259 
L 1218.418972 -316.788737 
L 1219.710831 -321.181216 
L 1220.886887 -325.573694 
L 1221.937476 -329.966173 
L 1222.869596 -334.358652 
L 1223.702729 -338.75113 
L 1224.463149 -343.143609 
L 1225.178203 -347.536088 
L 1225.871792 -351.928566 
L 1226.561754 -356.321045 
L 1227.259261 -360.713523 
L 1227.969815 -365.106002 
L 1228.695048 -369.498481 
L 1229.434436 -373.890959 
L 1230.186263 -378.283438 
L 1230.947569 -382.675916 
L 1231.713334 -387.068395 
L 1232.47549 -391.460874 
L 1233.222486 -395.853352 
L 1233.939884 -400.245831 
L 1234.612093 -404.638309 
L 1235.224841 -409.030788 
L 1235.767707 -413.423267 
L 1236.235937 -417.815745 
L 1236.631001 -422.208224 
L 1236.959708 -426.600703 
L 1237.232167 -430.993181 
L 1237.459172 -435.38566 
L 1237.649782 -439.778138 
L 1237.809743 -444.170617 
L 1237.941149 -448.563096 
L 1238.043368 -452.955574 
L 1238.11487 -457.348053 
L 1238.155392 -461.740531 
L 1238.167762 -466.13301 
L 1238.158863 -470.525489 
L 1238.139448 -474.917967 
L 1238.12288 -479.310446 
L 1238.123105 -483.702925 
L 1238.152372 -488.095403 
L 1238.219221 -492.487882 
L 1238.327153 -496.88036 
L 1238.474229 -501.272839 
L 1238.653598 -505.665318 
L 1238.854801 -510.057796 
L 1239.065516 -514.450275 
L 1239.273415 -518.842753 
L 1239.467774 -523.235232 
L 1239.640594 -527.627711 
L 1239.787128 -532.020189 
L 1239.905813 -536.412668 
L 1239.997748 -540.805146 
L 1240.065914 -545.197625 
L 1240.334086 -545.197625 
L 1240.334086 -545.197625 
L 1240.402252 -540.805146 
L 1240.494187 -536.412668 
L 1240.612872 -532.020189 
L 1240.759406 -527.627711 
L 1240.932226 -523.235232 
L 1241.126585 -518.842753 
L 1241.334484 -514.450275 
L 1241.545199 -510.057796 
L 1241.746402 -505.665318 
L 1241.925771 -501.272839 
L 1242.072847 -496.88036 
L 1242.180779 -492.487882 
L 1242.247628 -488.095403 
L 1242.276895 -483.702925 
L 1242.27712 -479.310446 
L 1242.260552 -474.917967 
L 1242.241137 -470.525489 
L 1242.232238 -466.13301 
L 1242.244608 -461.740531 
L 1242.28513 -457.348053 
L 1242.356632 -452.955574 
L 1242.458851 -448.563096 
L 1242.590257 -444.170617 
L 1242.750218 -439.778138 
L 1242.940828 -435.38566 
L 1243.167833 -430.993181 
L 1243.440292 -426.600703 
L 1243.768999 -422.208224 
L 1244.164063 -417.815745 
L 1244.632293 -413.423267 
L 1245.175159 -409.030788 
L 1245.787907 -404.638309 
L 1246.460116 -400.245831 
L 1247.177514 -395.853352 
L 1247.92451 -391.460874 
L 1248.686666 -387.068395 
L 1249.452431 -382.675916 
L 1250.213737 -378.283438 
L 1250.965564 -373.890959 
L 1251.704952 -369.498481 
L 1252.430185 -365.106002 
L 1253.140739 -360.713523 
L 1253.838246 -356.321045 
L 1254.528208 -351.928566 
L 1255.221797 -347.536088 
L 1255.936851 -343.143609 
L 1256.697271 -338.75113 
L 1257.530404 -334.358652 
L 1258.462524 -329.966173 
L 1259.513113 -325.573694 
L 1260.689169 -321.181216 
L 1261.981028 -316.788737 
L 1263.361153 -312.396259 
L 1264.78681 -308.00378 
L 1266.206701 -303.611301 
L 1267.570486 -299.218823 
L 1268.839137 -294.826344 
L 1269.993538 -290.433866 
L 1271.038942 -286.041387 
L 1272.003881 -281.648908 
L 1272.933585 -277.25643 
L 1273.879468 -272.863951 
L 1274.88723 -268.471473 
L 1275.986367 -264.078994 
L 1277.183249 -259.686515 
L 1278.458869 -255.294037 
L 1279.77113 -250.901558 
L 1281.060614 -246.509079 
L 1282.258334 -242.116601 
L 1283.293885 -237.724122 
L 1284.102669 -233.331644 
L 1284.631213 -228.939165 
L 1284.84 -224.546686 
L 1284.703714 -220.154208 
L 1284.209332 -215.761729 
L 1283.352974 -211.369251 
L 1282.136767 -206.976772 
L 1280.566952 -202.584293 
L 1278.654028 -198.191815 
L 1276.414984 -193.799336 
L 1273.87689 -189.406857 
L 1271.080493 -185.014379 
L 1268.082356 -180.6219 
L 1264.954402 -176.229422 
L 1261.780435 -171.836943 
L 1258.650015 -167.444464 
L 1255.650784 -163.051986 
L 1252.860642 -158.659507 
L 1250.341192 -154.267029 
L 1248.133473 -149.87455 
L 1246.256488 -145.482071 
L 1244.708429 -141.089593 
L 1243.470054 -136.697114 
L 1242.50939 -132.304636 
L 1241.786881 -127.912157 
L 1241.260205 -123.519678 
L 1240.88822 -119.1272 
L 1240.633761 -114.734721 
L 1240.465249 -110.342242 
z
" style="stroke: #3f3f3f; stroke-width: 1.25"/>
    </defs>
    <g clip-path="url(#p7ac56ab845)">
     <use xlink:href="#m2cd7cb5b21" x="0" y="720" style="fill: #3274a1; stroke: #3f3f3f; stroke-width: 1.25"/>
    </g>
   </g>
   <g id="matplotlib.axis_1">
    <g id="xtick_1">
     <g id="line2d_1">
      <defs>
       <path id="mbde4fa95d3" d="M 0 0 
L 0 3.5 
" style="stroke: #000000; stroke-width: 0.8"/>
      </defs>
      <g>
       <use xlink:href="#mbde4fa95d3" x="235.8" y="640.8" style="stroke: #000000; stroke-width: 0.8"/>
      </g>
     </g>
     <g id="text_1">
      <!-- 0 -->
      <g transform="translate(232.61875 655.398438) scale(0.1 -0.1)">
       <defs>
        <path id="DejaVuSans-30" d="M 2034 4250 
Q 1547 4250 1301 3770 
Q 1056 3291 1056 2328 
Q 1056 1369 1301 889 
Q 1547 409 2034 409 
Q 2525 409 2770 889 
Q 3016 1369 3016 2328 
Q 3016 3291 2770 3770 
Q 2525 4250 2034 4250 
z
M 2034 4750 
Q 2819 4750 3233 4129 
Q 3647 3509 3647 2328 
Q 3647 1150 3233 529 
Q 2819 -91 2034 -91 
Q 1250 -91 836 529 
Q 422 1150 422 2328 
Q 422 3509 836 4129 
Q 1250 4750 2034 4750 
z
" transform="scale(0.015625)"/>
       </defs>
       <use xlink:href="#DejaVuSans-30"/>
      </g>
     </g>
    </g>
    <g id="xtick_2">
     <g id="line2d_2">
      <g>
       <use xlink:href="#mbde4fa95d3" x="347.4" y="640.8" style="stroke: #000000; stroke-width: 0.8"/>
      </g>
     </g>
     <g id="text_2">
      <!-- 1 -->
      <g transform="translate(344.21875 655.398438) scale(0.1 -0.1)">
       <defs>
        <path id="DejaVuSans-31" d="M 794 531 
L 1825 531 
L 1825 4091 
L 703 3866 
L 703 4441 
L 1819 4666 
L 2450 4666 
L 2450 531 
L 3481 531 
L 3481 0 
L 794 0 
L 794 531 
z
" transform="scale(0.015625)"/>
       </defs>
       <use xlink:href="#DejaVuSans-31"/>
      </g>
     </g>
    </g>
    <g id="xtick_3">
     <g id="line2d_3">
      <g>
       <use xlink:href="#mbde4fa95d3" x="459" y="640.8" style="stroke: #000000; stroke-width: 0.8"/>
      </g>
     </g>
     <g id="text_3">
      <!-- 2 -->
      <g transform="translate(455.81875 655.398438) scale(0.1 -0.1)">
       <defs>
        <path id="DejaVuSans-32" d="M 1228 531 
L 3431 531 
L 3431 0 
L 469 0 
L 469 531 
Q 828 903 1448 1529 
Q 2069 2156 2228 2338 
Q 2531 2678 2651 2914 
Q 2772 3150 2772 3378 
Q 2772 3750 2511 3984 
Q 2250 4219 1831 4219 
Q 1534 4219 1204 4116 
Q 875 4013 500 3803 
L 500 4441 
Q 881 4594 1212 4672 
Q 1544 4750 1819 4750 
Q 2544 4750 2975 4387 
Q 3406 4025 3406 3419 
Q 3406 3131 3298 2873 
Q 3191 2616 2906 2266 
Q 2828 2175 2409 1742 
Q 1991 1309 1228 531 
z
" transform="scale(0.015625)"/>
       </defs>
       <use xlink:href="#DejaVuSans-32"/>
      </g>
     </g>
    </g>
    <g id="xtick_4">
     <g id="line2d_4">
      <g>
       <use xlink:href="#mbde4fa95d3" x="570.6" y="640.8" style="stroke: #000000; stroke-width: 0.8"/>
      </g>
     </g>
     <g id="text_4">
      <!-- 3 -->
      <g transform="translate(567.41875 655.398438) scale(0.1 -0.1)">
       <defs>
        <path id="DejaVuSans-33" d="M 2597 2516 
Q 3050 2419 3304 2112 
Q 3559 1806 3559 1356 
Q 3559 666 3084 287 
Q 2609 -91 1734 -91 
Q 1441 -91 1130 -33 
Q 819 25 488 141 
L 488 750 
Q 750 597 1062 519 
Q 1375 441 1716 441 
Q 2309 441 2620 675 
Q 2931 909 2931 1356 
Q 2931 1769 2642 2001 
Q 2353 2234 1838 2234 
L 1294 2234 
L 1294 2753 
L 1863 2753 
Q 2328 2753 2575 2939 
Q 2822 3125 2822 3475 
Q 2822 3834 2567 4026 
Q 2313 4219 1838 4219 
Q 1578 4219 1281 4162 
Q 984 4106 628 3988 
L 628 4550 
Q 988 4650 1302 4700 
Q 1616 4750 1894 4750 
Q 2613 4750 3031 4423 
Q 3450 4097 3450 3541 
Q 3450 3153 3228 2886 
Q 3006 2619 2597 2516 
z
" transform="scale(0.015625)"/>
       </defs>
       <use xlink:href="#DejaVuSans-33"/>
      </g>
     </g>
    </g>
    <g id="xtick_5">
     <g id="line2d_5">
      <g>
       <use xlink:href="#mbde4fa95d3" x="682.2" y="640.8" style="stroke: #000000; stroke-width: 0.8"/>
      </g>
     </g>
     <g id="text_5">
      <!-- 4 -->
      <g transform="translate(679.01875 655.398438) scale(0.1 -0.1)">
       <defs>
        <path id="DejaVuSans-34" d="M 2419 4116 
L 825 1625 
L 2419 1625 
L 2419 4116 
z
M 2253 4666 
L 3047 4666 
L 3047 1625 
L 3713 1625 
L 3713 1100 
L 3047 1100 
L 3047 0 
L 2419 0 
L 2419 1100 
L 313 1100 
L 313 1709 
L 2253 4666 
z
" transform="scale(0.015625)"/>
       </defs>
       <use xlink:href="#DejaVuSans-34"/>
      </g>
     </g>
    </g>
    <g id="xtick_6">
     <g id="line2d_6">
      <g>
       <use xlink:href="#mbde4fa95d3" x="793.8" y="640.8" style="stroke: #000000; stroke-width: 0.8"/>
      </g>
     </g>
     <g id="text_6">
      <!-- 5 -->
      <g transform="translate(790.61875 655.398438) scale(0.1 -0.1)">
       <defs>
        <path id="DejaVuSans-35" d="M 691 4666 
L 3169 4666 
L 3169 4134 
L 1269 4134 
L 1269 2991 
Q 1406 3038 1543 3061 
Q 1681 3084 1819 3084 
Q 2600 3084 3056 2656 
Q 3513 2228 3513 1497 
Q 3513 744 3044 326 
Q 2575 -91 1722 -91 
Q 1428 -91 1123 -41 
Q 819 9 494 109 
L 494 744 
Q 775 591 1075 516 
Q 1375 441 1709 441 
Q 2250 441 2565 725 
Q 2881 1009 2881 1497 
Q 2881 1984 2565 2268 
Q 2250 2553 1709 2553 
Q 1456 2553 1204 2497 
Q 953 2441 691 2322 
L 691 4666 
z
" transform="scale(0.015625)"/>
       </defs>
       <use xlink:href="#DejaVuSans-35"/>
      </g>
     </g>
    </g>
    <g id="xtick_7">
     <g id="line2d_7">
      <g>
       <use xlink:href="#mbde4fa95d3" x="905.4" y="640.8" style="stroke: #000000; stroke-width: 0.8"/>
      </g>
     </g>
     <g id="text_7">
      <!-- 6 -->
      <g transform="translate(902.21875 655.398438) scale(0.1 -0.1)">
       <defs>
        <path id="DejaVuSans-36" d="M 2113 2584 
Q 1688 2584 1439 2293 
Q 1191 2003 1191 1497 
Q 1191 994 1439 701 
Q 1688 409 2113 409 
Q 2538 409 2786 701 
Q 3034 994 3034 1497 
Q 3034 2003 2786 2293 
Q 2538 2584 2113 2584 
z
M 3366 4563 
L 3366 3988 
Q 3128 4100 2886 4159 
Q 2644 4219 2406 4219 
Q 1781 4219 1451 3797 
Q 1122 3375 1075 2522 
Q 1259 2794 1537 2939 
Q 1816 3084 2150 3084 
Q 2853 3084 3261 2657 
Q 3669 2231 3669 1497 
Q 3669 778 3244 343 
Q 2819 -91 2113 -91 
Q 1303 -91 875 529 
Q 447 1150 447 2328 
Q 447 3434 972 4092 
Q 1497 4750 2381 4750 
Q 2619 4750 2861 4703 
Q 3103 4656 3366 4563 
z
" transform="scale(0.015625)"/>
       </defs>
       <use xlink:href="#DejaVuSans-36"/>
      </g>
     </g>
    </g>
    <g id="xtick_8">
     <g id="line2d_8">
      <g>
       <use xlink:href="#mbde4fa95d3" x="1017" y="640.8" style="stroke: #000000; stroke-width: 0.8"/>
      </g>
     </g>
     <g id="text_8">
      <!-- 7 -->
      <g transform="translate(1013.81875 655.398438) scale(0.1 -0.1)">
       <defs>
        <path id="DejaVuSans-37" d="M 525 4666 
L 3525 4666 
L 3525 4397 
L 1831 0 
L 1172 0 
L 2766 4134 
L 525 4134 
L 525 4666 
z
" transform="scale(0.015625)"/>
       </defs>
       <use xlink:href="#DejaVuSans-37"/>
      </g>
     </g>
    </g>
    <g id="xtick_9">
     <g id="line2d_9">
      <g>
       <use xlink:href="#mbde4fa95d3" x="1128.6" y="640.8" style="stroke: #000000; stroke-width: 0.8"/>
      </g>
     </g>
     <g id="text_9">
      <!-- 8 -->
      <g transform="translate(1125.41875 655.398438) scale(0.1 -0.1)">
       <defs>
        <path id="DejaVuSans-38" d="M 2034 2216 
Q 1584 2216 1326 1975 
Q 1069 1734 1069 1313 
Q 1069 891 1326 650 
Q 1584 409 2034 409 
Q 2484 409 2743 651 
Q 3003 894 3003 1313 
Q 3003 1734 2745 1975 
Q 2488 2216 2034 2216 
z
M 1403 2484 
Q 997 2584 770 2862 
Q 544 3141 544 3541 
Q 544 4100 942 4425 
Q 1341 4750 2034 4750 
Q 2731 4750 3128 4425 
Q 3525 4100 3525 3541 
Q 3525 3141 3298 2862 
Q 3072 2584 2669 2484 
Q 3125 2378 3379 2068 
Q 3634 1759 3634 1313 
Q 3634 634 3220 271 
Q 2806 -91 2034 -91 
Q 1263 -91 848 271 
Q 434 634 434 1313 
Q 434 1759 690 2068 
Q 947 2378 1403 2484 
z
M 1172 3481 
Q 1172 3119 1398 2916 
Q 1625 2713 2034 2713 
Q 2441 2713 2670 2916 
Q 2900 3119 2900 3481 
Q 2900 3844 2670 4047 
Q 2441 4250 2034 4250 
Q 1625 4250 1398 4047 
Q 1172 3844 1172 3481 
z
" transform="scale(0.015625)"/>
       </defs>
       <use xlink:href="#DejaVuSans-38"/>
      </g>
     </g>
    </g>
    <g id="xtick_10">
     <g id="line2d_10">
      <g>
       <use xlink:href="#mbde4fa95d3" x="1240.2" y="640.8" style="stroke: #000000; stroke-width: 0.8"/>
      </g>
     </g>
     <g id="text_10">
      <!-- 9 -->
      <g transform="translate(1237.01875 655.398438) scale(0.1 -0.1)">
       <defs>
        <path id="DejaVuSans-39" d="M 703 97 
L 703 672 
Q 941 559 1184 500 
Q 1428 441 1663 441 
Q 2288 441 2617 861 
Q 2947 1281 2994 2138 
Q 2813 1869 2534 1725 
Q 2256 1581 1919 1581 
Q 1219 1581 811 2004 
Q 403 2428 403 3163 
Q 403 3881 828 4315 
Q 1253 4750 1959 4750 
Q 2769 4750 3195 4129 
Q 3622 3509 3622 2328 
Q 3622 1225 3098 567 
Q 2575 -91 1691 -91 
Q 1453 -91 1209 -44 
Q 966 3 703 97 
z
M 1959 2075 
Q 2384 2075 2632 2365 
Q 2881 2656 2881 3163 
Q 2881 3666 2632 3958 
Q 2384 4250 1959 4250 
Q 1534 4250 1286 3958 
Q 1038 3666 1038 3163 
Q 1038 2656 1286 2365 
Q 1534 2075 1959 2075 
z
" transform="scale(0.015625)"/>
       </defs>
       <use xlink:href="#DejaVuSans-39"/>
      </g>
     </g>
    </g>
    <g id="text_11">
     <!-- iteration -->
     <g transform="translate(716.877344 669.076563) scale(0.1 -0.1)">
      <defs>
       <path id="DejaVuSans-69" d="M 603 3500 
L 1178 3500 
L 1178 0 
L 603 0 
L 603 3500 
z
M 603 4863 
L 1178 4863 
L 1178 4134 
L 603 4134 
L 603 4863 
z
" transform="scale(0.015625)"/>
       <path id="DejaVuSans-74" d="M 1172 4494 
L 1172 3500 
L 2356 3500 
L 2356 3053 
L 1172 3053 
L 1172 1153 
Q 1172 725 1289 603 
Q 1406 481 1766 481 
L 2356 481 
L 2356 0 
L 1766 0 
Q 1100 0 847 248 
Q 594 497 594 1153 
L 594 3053 
L 172 3053 
L 172 3500 
L 594 3500 
L 594 4494 
L 1172 4494 
z
" transform="scale(0.015625)"/>
       <path id="DejaVuSans-65" d="M 3597 1894 
L 3597 1613 
L 953 1613 
Q 991 1019 1311 708 
Q 1631 397 2203 397 
Q 2534 397 2845 478 
Q 3156 559 3463 722 
L 3463 178 
Q 3153 47 2828 -22 
Q 2503 -91 2169 -91 
Q 1331 -91 842 396 
Q 353 884 353 1716 
Q 353 2575 817 3079 
Q 1281 3584 2069 3584 
Q 2775 3584 3186 3129 
Q 3597 2675 3597 1894 
z
M 3022 2063 
Q 3016 2534 2758 2815 
Q 2500 3097 2075 3097 
Q 1594 3097 1305 2825 
Q 1016 2553 972 2059 
L 3022 2063 
z
" transform="scale(0.015625)"/>
       <path id="DejaVuSans-72" d="M 2631 2963 
Q 2534 3019 2420 3045 
Q 2306 3072 2169 3072 
Q 1681 3072 1420 2755 
Q 1159 2438 1159 1844 
L 1159 0 
L 581 0 
L 581 3500 
L 1159 3500 
L 1159 2956 
Q 1341 3275 1631 3429 
Q 1922 3584 2338 3584 
Q 2397 3584 2469 3576 
Q 2541 3569 2628 3553 
L 2631 2963 
z
" transform="scale(0.015625)"/>
       <path id="DejaVuSans-61" d="M 2194 1759 
Q 1497 1759 1228 1600 
Q 959 1441 959 1056 
Q 959 750 1161 570 
Q 1363 391 1709 391 
Q 2188 391 2477 730 
Q 2766 1069 2766 1631 
L 2766 1759 
L 2194 1759 
z
M 3341 1997 
L 3341 0 
L 2766 0 
L 2766 531 
Q 2569 213 2275 61 
Q 1981 -91 1556 -91 
Q 1019 -91 701 211 
Q 384 513 384 1019 
Q 384 1609 779 1909 
Q 1175 2209 1959 2209 
L 2766 2209 
L 2766 2266 
Q 2766 2663 2505 2880 
Q 2244 3097 1772 3097 
Q 1472 3097 1187 3025 
Q 903 2953 641 2809 
L 641 3341 
Q 956 3463 1253 3523 
Q 1550 3584 1831 3584 
Q 2591 3584 2966 3190 
Q 3341 2797 3341 1997 
z
" transform="scale(0.015625)"/>
       <path id="DejaVuSans-6f" d="M 1959 3097 
Q 1497 3097 1228 2736 
Q 959 2375 959 1747 
Q 959 1119 1226 758 
Q 1494 397 1959 397 
Q 2419 397 2687 759 
Q 2956 1122 2956 1747 
Q 2956 2369 2687 2733 
Q 2419 3097 1959 3097 
z
M 1959 3584 
Q 2709 3584 3137 3096 
Q 3566 2609 3566 1747 
Q 3566 888 3137 398 
Q 2709 -91 1959 -91 
Q 1206 -91 779 398 
Q 353 888 353 1747 
Q 353 2609 779 3096 
Q 1206 3584 1959 3584 
z
" transform="scale(0.015625)"/>
       <path id="DejaVuSans-6e" d="M 3513 2113 
L 3513 0 
L 2938 0 
L 2938 2094 
Q 2938 2591 2744 2837 
Q 2550 3084 2163 3084 
Q 1697 3084 1428 2787 
Q 1159 2491 1159 1978 
L 1159 0 
L 581 0 
L 581 3500 
L 1159 3500 
L 1159 2956 
Q 1366 3272 1645 3428 
Q 1925 3584 2291 3584 
Q 2894 3584 3203 3211 
Q 3513 2838 3513 2113 
z
" transform="scale(0.015625)"/>
      </defs>
      <use xlink:href="#DejaVuSans-69"/>
      <use xlink:href="#DejaVuSans-74" x="27.783203"/>
      <use xlink:href="#DejaVuSans-65" x="66.992188"/>
      <use xlink:href="#DejaVuSans-72" x="128.515625"/>
      <use xlink:href="#DejaVuSans-61" x="169.628906"/>
      <use xlink:href="#DejaVuSans-74" x="230.908203"/>
      <use xlink:href="#DejaVuSans-69" x="270.117188"/>
      <use xlink:href="#DejaVuSans-6f" x="297.900391"/>
      <use xlink:href="#DejaVuSans-6e" x="359.082031"/>
     </g>
    </g>
   </g>
   <g id="matplotlib.axis_2">
    <g id="ytick_1">
     <g id="line2d_11">
      <defs>
       <path id="mcbc83fc63b" d="M 0 0 
L -3.5 0 
" style="stroke: #000000; stroke-width: 0.8"/>
      </defs>
      <g>
       <use xlink:href="#mcbc83fc63b" x="180" y="616.936095" style="stroke: #000000; stroke-width: 0.8"/>
      </g>
     </g>
     <g id="text_12">
      <!-- 0.2 -->
      <g transform="translate(148.717187 620.735314) scale(0.1 -0.1)">
       <defs>
        <path id="DejaVuSans-2212" d="M 678 2272 
L 4684 2272 
L 4684 1741 
L 678 1741 
L 678 2272 
z
" transform="scale(0.015625)"/>
        <path id="DejaVuSans-2e" d="M 684 794 
L 1344 794 
L 1344 0 
L 684 0 
L 684 794 
z
" transform="scale(0.015625)"/>
       </defs>
       <use xlink:href="#DejaVuSans-2212"/>
       <use xlink:href="#DejaVuSans-30" x="83.789062"/>
       <use xlink:href="#DejaVuSans-2e" x="147.412109"/>
       <use xlink:href="#DejaVuSans-32" x="179.199219"/>
      </g>
     </g>
    </g>
    <g id="ytick_2">
     <g id="line2d_12">
      <g>
       <use xlink:href="#mcbc83fc63b" x="180" y="532.374401" style="stroke: #000000; stroke-width: 0.8"/>
      </g>
     </g>
     <g id="text_13">
      <!-- 0.0 -->
      <g transform="translate(157.096875 536.17362) scale(0.1 -0.1)">
       <use xlink:href="#DejaVuSans-30"/>
       <use xlink:href="#DejaVuSans-2e" x="63.623047"/>
       <use xlink:href="#DejaVuSans-30" x="95.410156"/>
      </g>
     </g>
    </g>
    <g id="ytick_3">
     <g id="line2d_13">
      <g>
       <use xlink:href="#mcbc83fc63b" x="180" y="447.812707" style="stroke: #000000; stroke-width: 0.8"/>
      </g>
     </g>
     <g id="text_14">
      <!-- 0.2 -->
      <g transform="translate(157.096875 451.611926) scale(0.1 -0.1)">
       <use xlink:href="#DejaVuSans-30"/>
       <use xlink:href="#DejaVuSans-2e" x="63.623047"/>
       <use xlink:href="#DejaVuSans-32" x="95.410156"/>
      </g>
     </g>
    </g>
    <g id="ytick_4">
     <g id="line2d_14">
      <g>
       <use xlink:href="#mcbc83fc63b" x="180" y="363.251013" style="stroke: #000000; stroke-width: 0.8"/>
      </g>
     </g>
     <g id="text_15">
      <!-- 0.4 -->
      <g transform="translate(157.096875 367.050231) scale(0.1 -0.1)">
       <use xlink:href="#DejaVuSans-30"/>
       <use xlink:href="#DejaVuSans-2e" x="63.623047"/>
       <use xlink:href="#DejaVuSans-34" x="95.410156"/>
      </g>
     </g>
    </g>
    <g id="ytick_5">
     <g id="line2d_15">
      <g>
       <use xlink:href="#mcbc83fc63b" x="180" y="278.689318" style="stroke: #000000; stroke-width: 0.8"/>
      </g>
     </g>
     <g id="text_16">
      <!-- 0.6 -->
      <g transform="translate(157.096875 282.488537) scale(0.1 -0.1)">
       <use xlink:href="#DejaVuSans-30"/>
       <use xlink:href="#DejaVuSans-2e" x="63.623047"/>
       <use xlink:href="#DejaVuSans-36" x="95.410156"/>
      </g>
     </g>
    </g>
    <g id="ytick_6">
     <g id="line2d_16">
      <g>
       <use xlink:href="#mcbc83fc63b" x="180" y="194.127624" style="stroke: #000000; stroke-width: 0.8"/>
      </g>
     </g>
     <g id="text_17">
      <!-- 0.8 -->
      <g transform="translate(157.096875 197.926843) scale(0.1 -0.1)">
       <use xlink:href="#DejaVuSans-30"/>
       <use xlink:href="#DejaVuSans-2e" x="63.623047"/>
       <use xlink:href="#DejaVuSans-38" x="95.410156"/>
      </g>
     </g>
    </g>
    <g id="ytick_7">
     <g id="line2d_17">
      <g>
       <use xlink:href="#mcbc83fc63b" x="180" y="109.56593" style="stroke: #000000; stroke-width: 0.8"/>
      </g>
     </g>
     <g id="text_18">
      <!-- 1.0 -->
      <g transform="translate(157.096875 113.365149) scale(0.1 -0.1)">
       <use xlink:href="#DejaVuSans-31"/>
       <use xlink:href="#DejaVuSans-2e" x="63.623047"/>
       <use xlink:href="#DejaVuSans-30" x="95.410156"/>
      </g>
     </g>
    </g>
    <g id="text_19">
     <!-- cosine similarity -->
     <g transform="translate(142.6375 404.307031) rotate(-90) scale(0.1 -0.1)">
      <defs>
       <path id="DejaVuSans-63" d="M 3122 3366 
L 3122 2828 
Q 2878 2963 2633 3030 
Q 2388 3097 2138 3097 
Q 1578 3097 1268 2742 
Q 959 2388 959 1747 
Q 959 1106 1268 751 
Q 1578 397 2138 397 
Q 2388 397 2633 464 
Q 2878 531 3122 666 
L 3122 134 
Q 2881 22 2623 -34 
Q 2366 -91 2075 -91 
Q 1284 -91 818 406 
Q 353 903 353 1747 
Q 353 2603 823 3093 
Q 1294 3584 2113 3584 
Q 2378 3584 2631 3529 
Q 2884 3475 3122 3366 
z
" transform="scale(0.015625)"/>
       <path id="DejaVuSans-73" d="M 2834 3397 
L 2834 2853 
Q 2591 2978 2328 3040 
Q 2066 3103 1784 3103 
Q 1356 3103 1142 2972 
Q 928 2841 928 2578 
Q 928 2378 1081 2264 
Q 1234 2150 1697 2047 
L 1894 2003 
Q 2506 1872 2764 1633 
Q 3022 1394 3022 966 
Q 3022 478 2636 193 
Q 2250 -91 1575 -91 
Q 1294 -91 989 -36 
Q 684 19 347 128 
L 347 722 
Q 666 556 975 473 
Q 1284 391 1588 391 
Q 1994 391 2212 530 
Q 2431 669 2431 922 
Q 2431 1156 2273 1281 
Q 2116 1406 1581 1522 
L 1381 1569 
Q 847 1681 609 1914 
Q 372 2147 372 2553 
Q 372 3047 722 3315 
Q 1072 3584 1716 3584 
Q 2034 3584 2315 3537 
Q 2597 3491 2834 3397 
z
" transform="scale(0.015625)"/>
       <path id="DejaVuSans-20" transform="scale(0.015625)"/>
       <path id="DejaVuSans-6d" d="M 3328 2828 
Q 3544 3216 3844 3400 
Q 4144 3584 4550 3584 
Q 5097 3584 5394 3201 
Q 5691 2819 5691 2113 
L 5691 0 
L 5113 0 
L 5113 2094 
Q 5113 2597 4934 2840 
Q 4756 3084 4391 3084 
Q 3944 3084 3684 2787 
Q 3425 2491 3425 1978 
L 3425 0 
L 2847 0 
L 2847 2094 
Q 2847 2600 2669 2842 
Q 2491 3084 2119 3084 
Q 1678 3084 1418 2786 
Q 1159 2488 1159 1978 
L 1159 0 
L 581 0 
L 581 3500 
L 1159 3500 
L 1159 2956 
Q 1356 3278 1631 3431 
Q 1906 3584 2284 3584 
Q 2666 3584 2933 3390 
Q 3200 3197 3328 2828 
z
" transform="scale(0.015625)"/>
       <path id="DejaVuSans-6c" d="M 603 4863 
L 1178 4863 
L 1178 0 
L 603 0 
L 603 4863 
z
" transform="scale(0.015625)"/>
       <path id="DejaVuSans-79" d="M 2059 -325 
Q 1816 -950 1584 -1140 
Q 1353 -1331 966 -1331 
L 506 -1331 
L 506 -850 
L 844 -850 
Q 1081 -850 1212 -737 
Q 1344 -625 1503 -206 
L 1606 56 
L 191 3500 
L 800 3500 
L 1894 763 
L 2988 3500 
L 3597 3500 
L 2059 -325 
z
" transform="scale(0.015625)"/>
      </defs>
      <use xlink:href="#DejaVuSans-63"/>
      <use xlink:href="#DejaVuSans-6f" x="54.980469"/>
      <use xlink:href="#DejaVuSans-73" x="116.162109"/>
      <use xlink:href="#DejaVuSans-69" x="168.261719"/>
      <use xlink:href="#DejaVuSans-6e" x="196.044922"/>
      <use xlink:href="#DejaVuSans-65" x="259.423828"/>
      <use xlink:href="#DejaVuSans-20" x="320.947266"/>
      <use xlink:href="#DejaVuSans-73" x="352.734375"/>
      <use xlink:href="#DejaVuSans-69" x="404.833984"/>
      <use xlink:href="#DejaVuSans-6d" x="432.617188"/>
      <use xlink:href="#DejaVuSans-69" x="530.029297"/>
      <use xlink:href="#DejaVuSans-6c" x="557.8125"/>
      <use xlink:href="#DejaVuSans-61" x="585.595703"/>
      <use xlink:href="#DejaVuSans-72" x="646.875"/>
      <use xlink:href="#DejaVuSans-69" x="687.988281"/>
      <use xlink:href="#DejaVuSans-74" x="715.771484"/>
      <use xlink:href="#DejaVuSans-79" x="754.980469"/>
     </g>
    </g>
   </g>
   <g id="line2d_18">
    <path d="M 235.8 556.258337 
L 235.8 163.188629 
" clip-path="url(#p7ac56ab845)" style="fill: none; stroke: #3f3f3f; stroke-width: 1.875; stroke-linecap: square"/>
   </g>
   <g id="line2d_19">
    <path d="M 235.8 398.881231 
L 235.8 289.966887 
" clip-path="url(#p7ac56ab845)" style="fill: none; stroke: #3f3f3f; stroke-width: 5.625; stroke-linecap: square"/>
   </g>
   <g id="line2d_20">
    <path d="M 235.8 346.35566 
" clip-path="url(#p7ac56ab845)" style="fill: none; stroke: #3f3f3f; stroke-width: 1.5; stroke-linecap: square"/>
    <defs>
     <path id="m7299733a6b" d="M 2.34375 0 
L -2.34375 -0 
" style="stroke: #ffffff; stroke-width: 1.125"/>
    </defs>
    <g clip-path="url(#p7ac56ab845)">
     <use xlink:href="#m7299733a6b" x="235.8" y="346.35566" style="fill: #ffffff; stroke: #ffffff; stroke-width: 1.125"/>
    </g>
   </g>
   <g id="line2d_21">
    <path d="M 347.4 562.142871 
L 347.4 186.434882 
" clip-path="url(#p7ac56ab845)" style="fill: none; stroke: #3f3f3f; stroke-width: 1.875; stroke-linecap: square"/>
   </g>
   <g id="line2d_22">
    <path d="M 347.4 457.72544 
L 347.4 344.962577 
" clip-path="url(#p7ac56ab845)" style="fill: none; stroke: #3f3f3f; stroke-width: 5.625; stroke-linecap: square"/>
   </g>
   <g id="line2d_23">
    <path d="M 347.4 398.627876 
" clip-path="url(#p7ac56ab845)" style="fill: none; stroke: #3f3f3f; stroke-width: 1.5; stroke-linecap: square"/>
    <g clip-path="url(#p7ac56ab845)">
     <use xlink:href="#m7299733a6b" x="347.4" y="398.627876" style="fill: #ffffff; stroke: #ffffff; stroke-width: 1.125"/>
    </g>
   </g>
   <g id="line2d_24">
    <path d="M 459 564.301007 
L 459 218.46998 
" clip-path="url(#p7ac56ab845)" style="fill: none; stroke: #3f3f3f; stroke-width: 1.875; stroke-linecap: square"/>
   </g>
   <g id="line2d_25">
    <path d="M 459 477.317602 
L 459 371.205769 
" clip-path="url(#p7ac56ab845)" style="fill: none; stroke: #3f3f3f; stroke-width: 5.625; stroke-linecap: square"/>
   </g>
   <g id="line2d_26">
    <path d="M 459 430.798957 
" clip-path="url(#p7ac56ab845)" style="fill: none; stroke: #3f3f3f; stroke-width: 1.5; stroke-linecap: square"/>
    <g clip-path="url(#p7ac56ab845)">
     <use xlink:href="#m7299733a6b" x="459" y="430.798957" style="fill: #ffffff; stroke: #ffffff; stroke-width: 1.125"/>
    </g>
   </g>
   <g id="line2d_27">
    <path d="M 570.6 564.301007 
L 570.6 223.628444 
" clip-path="url(#p7ac56ab845)" style="fill: none; stroke: #3f3f3f; stroke-width: 1.875; stroke-linecap: square"/>
   </g>
   <g id="line2d_28">
    <path d="M 570.6 491.321117 
L 570.6 383.314084 
" clip-path="url(#p7ac56ab845)" style="fill: none; stroke: #3f3f3f; stroke-width: 5.625; stroke-linecap: square"/>
   </g>
   <g id="line2d_29">
    <path d="M 570.6 443.574444 
" clip-path="url(#p7ac56ab845)" style="fill: none; stroke: #3f3f3f; stroke-width: 1.5; stroke-linecap: square"/>
    <g clip-path="url(#p7ac56ab845)">
     <use xlink:href="#m7299733a6b" x="570.6" y="443.574444" style="fill: #ffffff; stroke: #ffffff; stroke-width: 1.125"/>
    </g>
   </g>
   <g id="line2d_30">
    <path d="M 682.2 564.301007 
L 682.2 245.48507 
" clip-path="url(#p7ac56ab845)" style="fill: none; stroke: #3f3f3f; stroke-width: 1.875; stroke-linecap: square"/>
   </g>
   <g id="line2d_31">
    <path d="M 682.2 495.255972 
L 682.2 392.924779 
" clip-path="url(#p7ac56ab845)" style="fill: none; stroke: #3f3f3f; stroke-width: 5.625; stroke-linecap: square"/>
   </g>
   <g id="line2d_32">
    <path d="M 682.2 450.592421 
" clip-path="url(#p7ac56ab845)" style="fill: none; stroke: #3f3f3f; stroke-width: 1.5; stroke-linecap: square"/>
    <g clip-path="url(#p7ac56ab845)">
     <use xlink:href="#m7299733a6b" x="682.2" y="450.592421" style="fill: #ffffff; stroke: #ffffff; stroke-width: 1.125"/>
    </g>
   </g>
   <g id="line2d_33">
    <path d="M 793.8 564.301007 
L 793.8 267.061456 
" clip-path="url(#p7ac56ab845)" style="fill: none; stroke: #3f3f3f; stroke-width: 1.875; stroke-linecap: square"/>
   </g>
   <g id="line2d_34">
    <path d="M 793.8 496.347736 
L 793.8 404.16878 
" clip-path="url(#p7ac56ab845)" style="fill: none; stroke: #3f3f3f; stroke-width: 5.625; stroke-linecap: square"/>
   </g>
   <g id="line2d_35">
    <path d="M 793.8 457.98712 
" clip-path="url(#p7ac56ab845)" style="fill: none; stroke: #3f3f3f; stroke-width: 1.5; stroke-linecap: square"/>
    <g clip-path="url(#p7ac56ab845)">
     <use xlink:href="#m7299733a6b" x="793.8" y="457.98712" style="fill: #ffffff; stroke: #ffffff; stroke-width: 1.125"/>
    </g>
   </g>
   <g id="line2d_36">
    <path d="M 905.4 564.301007 
L 905.4 292.225759 
" clip-path="url(#p7ac56ab845)" style="fill: none; stroke: #3f3f3f; stroke-width: 1.875; stroke-linecap: square"/>
   </g>
   <g id="line2d_37">
    <path d="M 905.4 497.796424 
L 905.4 412.220277 
" clip-path="url(#p7ac56ab845)" style="fill: none; stroke: #3f3f3f; stroke-width: 5.625; stroke-linecap: square"/>
   </g>
   <g id="line2d_38">
    <path d="M 905.4 465.541272 
" clip-path="url(#p7ac56ab845)" style="fill: none; stroke: #3f3f3f; stroke-width: 1.5; stroke-linecap: square"/>
    <g clip-path="url(#p7ac56ab845)">
     <use xlink:href="#m7299733a6b" x="905.4" y="465.541272" style="fill: #ffffff; stroke: #ffffff; stroke-width: 1.125"/>
    </g>
   </g>
   <g id="line2d_39">
    <path d="M 1017 565.990153 
L 1017 292.225759 
" clip-path="url(#p7ac56ab845)" style="fill: none; stroke: #3f3f3f; stroke-width: 1.875; stroke-linecap: square"/>
   </g>
   <g id="line2d_40">
    <path d="M 1017 505.697867 
L 1017 418.932845 
" clip-path="url(#p7ac56ab845)" style="fill: none; stroke: #3f3f3f; stroke-width: 5.625; stroke-linecap: square"/>
   </g>
   <g id="line2d_41">
    <path d="M 1017 468.955072 
" clip-path="url(#p7ac56ab845)" style="fill: none; stroke: #3f3f3f; stroke-width: 1.5; stroke-linecap: square"/>
    <g clip-path="url(#p7ac56ab845)">
     <use xlink:href="#m7299733a6b" x="1017" y="468.955072" style="fill: #ffffff; stroke: #ffffff; stroke-width: 1.125"/>
    </g>
   </g>
   <g id="line2d_42">
    <path d="M 1128.6 565.990153 
L 1128.6 292.225759 
" clip-path="url(#p7ac56ab845)" style="fill: none; stroke: #3f3f3f; stroke-width: 1.875; stroke-linecap: square"/>
   </g>
   <g id="line2d_43">
    <path d="M 1128.6 505.697867 
L 1128.6 418.837316 
" clip-path="url(#p7ac56ab845)" style="fill: none; stroke: #3f3f3f; stroke-width: 5.625; stroke-linecap: square"/>
   </g>
   <g id="line2d_44">
    <path d="M 1128.6 469.69321 
" clip-path="url(#p7ac56ab845)" style="fill: none; stroke: #3f3f3f; stroke-width: 1.5; stroke-linecap: square"/>
    <g clip-path="url(#p7ac56ab845)">
     <use xlink:href="#m7299733a6b" x="1128.6" y="469.69321" style="fill: #ffffff; stroke: #ffffff; stroke-width: 1.125"/>
    </g>
   </g>
   <g id="line2d_45">
    <path d="M 1240.2 565.990153 
L 1240.2 302.778572 
" clip-path="url(#p7ac56ab845)" style="fill: none; stroke: #3f3f3f; stroke-width: 1.875; stroke-linecap: square"/>
   </g>
   <g id="line2d_46">
    <path d="M 1240.2 507.127075 
L 1240.2 421.259635 
" clip-path="url(#p7ac56ab845)" style="fill: none; stroke: #3f3f3f; stroke-width: 5.625; stroke-linecap: square"/>
   </g>
   <g id="line2d_47">
    <path d="M 1240.2 470.078563 
" clip-path="url(#p7ac56ab845)" style="fill: none; stroke: #3f3f3f; stroke-width: 1.5; stroke-linecap: square"/>
    <g clip-path="url(#p7ac56ab845)">
     <use xlink:href="#m7299733a6b" x="1240.2" y="470.078563" style="fill: #ffffff; stroke: #ffffff; stroke-width: 1.125"/>
    </g>
   </g>
   <g id="patch_3">
    <path d="M 180 640.8 
L 180 86.4 
" style="fill: none; stroke: #000000; stroke-width: 0.8; stroke-linejoin: miter; stroke-linecap: square"/>
   </g>
   <g id="patch_4">
    <path d="M 1296 640.8 
L 1296 86.4 
" style="fill: none; stroke: #000000; stroke-width: 0.8; stroke-linejoin: miter; stroke-linecap: square"/>
   </g>
   <g id="patch_5">
    <path d="M 180 640.8 
L 1296 640.8 
" style="fill: none; stroke: #000000; stroke-width: 0.8; stroke-linejoin: miter; stroke-linecap: square"/>
   </g>
   <g id="patch_6">
    <path d="M 180 86.4 
L 1296 86.4 
" style="fill: none; stroke: #000000; stroke-width: 0.8; stroke-linejoin: miter; stroke-linecap: square"/>
   </g>
   <g id="text_20">
    <!-- cosine similarity of max_fs (distanceFromInitialPrompt), by iteration -->
    <g transform="translate(534.816563 80.4) scale(0.12 -0.12)">
     <defs>
      <path id="DejaVuSans-66" d="M 2375 4863 
L 2375 4384 
L 1825 4384 
Q 1516 4384 1395 4259 
Q 1275 4134 1275 3809 
L 1275 3500 
L 2222 3500 
L 2222 3053 
L 1275 3053 
L 1275 0 
L 697 0 
L 697 3053 
L 147 3053 
L 147 3500 
L 697 3500 
L 697 3744 
Q 697 4328 969 4595 
Q 1241 4863 1831 4863 
L 2375 4863 
z
" transform="scale(0.015625)"/>
      <path id="DejaVuSans-78" d="M 3513 3500 
L 2247 1797 
L 3578 0 
L 2900 0 
L 1881 1375 
L 863 0 
L 184 0 
L 1544 1831 
L 300 3500 
L 978 3500 
L 1906 2253 
L 2834 3500 
L 3513 3500 
z
" transform="scale(0.015625)"/>
      <path id="DejaVuSans-5f" d="M 3263 -1063 
L 3263 -1509 
L -63 -1509 
L -63 -1063 
L 3263 -1063 
z
" transform="scale(0.015625)"/>
      <path id="DejaVuSans-28" d="M 1984 4856 
Q 1566 4138 1362 3434 
Q 1159 2731 1159 2009 
Q 1159 1288 1364 580 
Q 1569 -128 1984 -844 
L 1484 -844 
Q 1016 -109 783 600 
Q 550 1309 550 2009 
Q 550 2706 781 3412 
Q 1013 4119 1484 4856 
L 1984 4856 
z
" transform="scale(0.015625)"/>
      <path id="DejaVuSans-64" d="M 2906 2969 
L 2906 4863 
L 3481 4863 
L 3481 0 
L 2906 0 
L 2906 525 
Q 2725 213 2448 61 
Q 2172 -91 1784 -91 
Q 1150 -91 751 415 
Q 353 922 353 1747 
Q 353 2572 751 3078 
Q 1150 3584 1784 3584 
Q 2172 3584 2448 3432 
Q 2725 3281 2906 2969 
z
M 947 1747 
Q 947 1113 1208 752 
Q 1469 391 1925 391 
Q 2381 391 2643 752 
Q 2906 1113 2906 1747 
Q 2906 2381 2643 2742 
Q 2381 3103 1925 3103 
Q 1469 3103 1208 2742 
Q 947 2381 947 1747 
z
" transform="scale(0.015625)"/>
      <path id="DejaVuSans-46" d="M 628 4666 
L 3309 4666 
L 3309 4134 
L 1259 4134 
L 1259 2759 
L 3109 2759 
L 3109 2228 
L 1259 2228 
L 1259 0 
L 628 0 
L 628 4666 
z
" transform="scale(0.015625)"/>
      <path id="DejaVuSans-49" d="M 628 4666 
L 1259 4666 
L 1259 0 
L 628 0 
L 628 4666 
z
" transform="scale(0.015625)"/>
      <path id="DejaVuSans-50" d="M 1259 4147 
L 1259 2394 
L 2053 2394 
Q 2494 2394 2734 2622 
Q 2975 2850 2975 3272 
Q 2975 3691 2734 3919 
Q 2494 4147 2053 4147 
L 1259 4147 
z
M 628 4666 
L 2053 4666 
Q 2838 4666 3239 4311 
Q 3641 3956 3641 3272 
Q 3641 2581 3239 2228 
Q 2838 1875 2053 1875 
L 1259 1875 
L 1259 0 
L 628 0 
L 628 4666 
z
" transform="scale(0.015625)"/>
      <path id="DejaVuSans-70" d="M 1159 525 
L 1159 -1331 
L 581 -1331 
L 581 3500 
L 1159 3500 
L 1159 2969 
Q 1341 3281 1617 3432 
Q 1894 3584 2278 3584 
Q 2916 3584 3314 3078 
Q 3713 2572 3713 1747 
Q 3713 922 3314 415 
Q 2916 -91 2278 -91 
Q 1894 -91 1617 61 
Q 1341 213 1159 525 
z
M 3116 1747 
Q 3116 2381 2855 2742 
Q 2594 3103 2138 3103 
Q 1681 3103 1420 2742 
Q 1159 2381 1159 1747 
Q 1159 1113 1420 752 
Q 1681 391 2138 391 
Q 2594 391 2855 752 
Q 3116 1113 3116 1747 
z
" transform="scale(0.015625)"/>
      <path id="DejaVuSans-29" d="M 513 4856 
L 1013 4856 
Q 1481 4119 1714 3412 
Q 1947 2706 1947 2009 
Q 1947 1309 1714 600 
Q 1481 -109 1013 -844 
L 513 -844 
Q 928 -128 1133 580 
Q 1338 1288 1338 2009 
Q 1338 2731 1133 3434 
Q 928 4138 513 4856 
z
" transform="scale(0.015625)"/>
      <path id="DejaVuSans-2c" d="M 750 794 
L 1409 794 
L 1409 256 
L 897 -744 
L 494 -744 
L 750 256 
L 750 794 
z
" transform="scale(0.015625)"/>
      <path id="DejaVuSans-62" d="M 3116 1747 
Q 3116 2381 2855 2742 
Q 2594 3103 2138 3103 
Q 1681 3103 1420 2742 
Q 1159 2381 1159 1747 
Q 1159 1113 1420 752 
Q 1681 391 2138 391 
Q 2594 391 2855 752 
Q 3116 1113 3116 1747 
z
M 1159 2969 
Q 1341 3281 1617 3432 
Q 1894 3584 2278 3584 
Q 2916 3584 3314 3078 
Q 3713 2572 3713 1747 
Q 3713 922 3314 415 
Q 2916 -91 2278 -91 
Q 1894 -91 1617 61 
Q 1341 213 1159 525 
L 1159 0 
L 581 0 
L 581 4863 
L 1159 4863 
L 1159 2969 
z
" transform="scale(0.015625)"/>
     </defs>
     <use xlink:href="#DejaVuSans-63"/>
     <use xlink:href="#DejaVuSans-6f" x="54.980469"/>
     <use xlink:href="#DejaVuSans-73" x="116.162109"/>
     <use xlink:href="#DejaVuSans-69" x="168.261719"/>
     <use xlink:href="#DejaVuSans-6e" x="196.044922"/>
     <use xlink:href="#DejaVuSans-65" x="259.423828"/>
     <use xlink:href="#DejaVuSans-20" x="320.947266"/>
     <use xlink:href="#DejaVuSans-73" x="352.734375"/>
     <use xlink:href="#DejaVuSans-69" x="404.833984"/>
     <use xlink:href="#DejaVuSans-6d" x="432.617188"/>
     <use xlink:href="#DejaVuSans-69" x="530.029297"/>
     <use xlink:href="#DejaVuSans-6c" x="557.8125"/>
     <use xlink:href="#DejaVuSans-61" x="585.595703"/>
     <use xlink:href="#DejaVuSans-72" x="646.875"/>
     <use xlink:href="#DejaVuSans-69" x="687.988281"/>
     <use xlink:href="#DejaVuSans-74" x="715.771484"/>
     <use xlink:href="#DejaVuSans-79" x="754.980469"/>
     <use xlink:href="#DejaVuSans-20" x="814.160156"/>
     <use xlink:href="#DejaVuSans-6f" x="845.947266"/>
     <use xlink:href="#DejaVuSans-66" x="907.128906"/>
     <use xlink:href="#DejaVuSans-20" x="942.333984"/>
     <use xlink:href="#DejaVuSans-6d" x="974.121094"/>
     <use xlink:href="#DejaVuSans-61" x="1071.533203"/>
     <use xlink:href="#DejaVuSans-78" x="1132.8125"/>
     <use xlink:href="#DejaVuSans-5f" x="1191.992188"/>
     <use xlink:href="#DejaVuSans-66" x="1241.992188"/>
     <use xlink:href="#DejaVuSans-73" x="1277.197266"/>
     <use xlink:href="#DejaVuSans-20" x="1329.296875"/>
     <use xlink:href="#DejaVuSans-28" x="1361.083984"/>
     <use xlink:href="#DejaVuSans-64" x="1400.097656"/>
     <use xlink:href="#DejaVuSans-69" x="1463.574219"/>
     <use xlink:href="#DejaVuSans-73" x="1491.357422"/>
     <use xlink:href="#DejaVuSans-74" x="1543.457031"/>
     <use xlink:href="#DejaVuSans-61" x="1582.666016"/>
     <use xlink:href="#DejaVuSans-6e" x="1643.945312"/>
     <use xlink:href="#DejaVuSans-63" x="1707.324219"/>
     <use xlink:href="#DejaVuSans-65" x="1762.304688"/>
     <use xlink:href="#DejaVuSans-46" x="1823.828125"/>
     <use xlink:href="#DejaVuSans-72" x="1874.097656"/>
     <use xlink:href="#DejaVuSans-6f" x="1912.960938"/>
     <use xlink:href="#DejaVuSans-6d" x="1974.142578"/>
     <use xlink:href="#DejaVuSans-49" x="2071.554688"/>
     <use xlink:href="#DejaVuSans-6e" x="2101.046875"/>
     <use xlink:href="#DejaVuSans-69" x="2164.425781"/>
     <use xlink:href="#DejaVuSans-74" x="2192.208984"/>
     <use xlink:href="#DejaVuSans-69" x="2231.417969"/>
     <use xlink:href="#DejaVuSans-61" x="2259.201172"/>
     <use xlink:href="#DejaVuSans-6c" x="2320.480469"/>
     <use xlink:href="#DejaVuSans-50" x="2348.263672"/>
     <use xlink:href="#DejaVuSans-72" x="2406.816406"/>
     <use xlink:href="#DejaVuSans-6f" x="2445.679688"/>
     <use xlink:href="#DejaVuSans-6d" x="2506.861328"/>
     <use xlink:href="#DejaVuSans-70" x="2604.273438"/>
     <use xlink:href="#DejaVuSans-74" x="2667.75"/>
     <use xlink:href="#DejaVuSans-29" x="2706.958984"/>
     <use xlink:href="#DejaVuSans-2c" x="2745.972656"/>
     <use xlink:href="#DejaVuSans-20" x="2777.759766"/>
     <use xlink:href="#DejaVuSans-62" x="2809.546875"/>
     <use xlink:href="#DejaVuSans-79" x="2873.023438"/>
     <use xlink:href="#DejaVuSans-20" x="2932.203125"/>
     <use xlink:href="#DejaVuSans-69" x="2963.990234"/>
     <use xlink:href="#DejaVuSans-74" x="2991.773438"/>
     <use xlink:href="#DejaVuSans-65" x="3030.982422"/>
     <use xlink:href="#DejaVuSans-72" x="3092.505859"/>
     <use xlink:href="#DejaVuSans-61" x="3133.619141"/>
     <use xlink:href="#DejaVuSans-74" x="3194.898438"/>
     <use xlink:href="#DejaVuSans-69" x="3234.107422"/>
     <use xlink:href="#DejaVuSans-6f" x="3261.890625"/>
     <use xlink:href="#DejaVuSans-6e" x="3323.072266"/>
    </g>
   </g>
  </g>
 </g>
 <defs>
  <clipPath id="p7ac56ab845">
   <rect x="180" y="86.4" width="1116" height="554.4"/>
  </clipPath>
 </defs>
</svg>
