<?xml version="1.0" encoding="utf-8" standalone="no"?>
<!DOCTYPE svg PUBLIC "-//W3C//DTD SVG 1.1//EN"
  "http://www.w3.org/Graphics/SVG/1.1/DTD/svg11.dtd">
<svg xmlns:xlink="http://www.w3.org/1999/xlink" width="1440pt" height="720pt" viewBox="0 0 1440 720" xmlns="http://www.w3.org/2000/svg" version="1.1">
 <metadata>
  <rdf:RDF xmlns:dc="http://purl.org/dc/elements/1.1/" xmlns:cc="http://creativecommons.org/ns#" xmlns:rdf="http://www.w3.org/1999/02/22-rdf-syntax-ns#">
   <cc:Work>
    <dc:type rdf:resource="http://purl.org/dc/dcmitype/StillImage"/>
    <dc:date>2024-07-27T14:13:14.308248</dc:date>
    <dc:format>image/svg+xml</dc:format>
    <dc:creator>
     <cc:Agent>
      <dc:title>Matplotlib v3.8.0, https://matplotlib.org/</dc:title>
     </cc:Agent>
    </dc:creator>
   </cc:Work>
  </rdf:RDF>
 </metadata>
 <defs>
  <style type="text/css">*{stroke-linejoin: round; stroke-linecap: butt}</style>
 </defs>
 <g id="figure_1">
  <g id="patch_1">
   <path d="M 0 720 
L 1440 720 
L 1440 0 
L 0 0 
z
" style="fill: #ffffff"/>
  </g>
  <g id="axes_1">
   <g id="patch_2">
    <path d="M 180 640.8 
L 1296 640.8 
L 1296 86.4 
L 180 86.4 
z
" style="fill: #ffffff"/>
   </g>
   <g id="PolyCollection_1">
    <defs>
     <path id="ma99d6a90f5" d="M 235.955862 -165.698572 
L 235.644138 -165.698572 
L 235.554573 -170.130733 
L 235.427486 -174.562894 
L 235.254514 -178.995055 
L 235.028608 -183.427216 
L 234.745396 -187.859378 
L 234.404464 -192.291539 
L 234.010289 -196.7237 
L 233.572576 -201.155861 
L 233.105842 -205.588022 
L 232.628208 -210.020183 
L 232.159472 -214.452344 
L 231.718632 -218.884505 
L 231.321118 -223.316666 
L 230.976047 -227.748827 
L 230.683956 -232.180988 
L 230.435475 -236.613149 
L 230.211435 -241.04531 
L 229.984703 -245.477471 
L 229.723713 -249.909632 
L 229.397118 -254.341793 
L 228.978583 -258.773954 
L 228.450402 -263.206116 
L 227.804804 -267.638277 
L 227.04235 -272.070438 
L 226.167755 -276.502599 
L 225.184417 -280.93476 
L 224.089642 -285.366921 
L 222.872551 -289.799082 
L 221.516038 -294.231243 
L 220.002793 -298.663404 
L 218.32397 -303.095565 
L 216.487869 -307.527726 
L 214.525612 -311.959887 
L 212.491373 -316.392048 
L 210.456169 -320.824209 
L 208.496119 -325.25637 
L 206.677834 -329.688531 
L 205.04468 -334.120692 
L 203.607702 -338.552853 
L 202.343931 -342.985015 
L 201.202962 -347.417176 
L 200.120474 -351.849337 
L 199.035426 -356.281498 
L 197.906565 -360.713659 
L 196.723955 -365.14582 
L 195.512556 -369.577981 
L 194.327119 -374.010142 
L 193.240153 -378.442303 
L 192.32668 -382.874464 
L 191.650295 -387.306625 
L 191.254329 -391.738786 
L 191.16 -396.170947 
L 191.370916 -400.603108 
L 191.881142 -405.035269 
L 192.683022 -409.46743 
L 193.771359 -413.899591 
L 195.142297 -418.331753 
L 196.787478 -422.763914 
L 198.686029 -427.196075 
L 200.797862 -431.628236 
L 203.061421 -436.060397 
L 205.397469 -440.492558 
L 207.718515 -444.924719 
L 209.941602 -449.35688 
L 212.001096 -453.789041 
L 213.858168 -458.221202 
L 215.504658 -462.653363 
L 216.960697 -467.085524 
L 218.267135 -471.517685 
L 219.475027 -475.949846 
L 220.634836 -480.382007 
L 221.787574 -484.814168 
L 222.959173 -489.246329 
L 224.158353 -493.67849 
L 225.377422 -498.110652 
L 226.595122 -502.542813 
L 227.780636 -506.974974 
L 228.89812 -511.407135 
L 229.911361 -515.839296 
L 230.788313 -520.271457 
L 231.505275 -524.703618 
L 232.050377 -529.135779 
L 232.425949 -533.56794 
L 232.649295 -538.000101 
L 232.751465 -542.432262 
L 232.773859 -546.864423 
L 232.76289 -551.296584 
L 232.763466 -555.728745 
L 232.812439 -560.160906 
L 232.933427 -564.593067 
L 233.134142 -569.025228 
L 233.406837 -573.45739 
L 233.731651 -577.889551 
L 234.081883 -582.321712 
L 234.429809 -586.753873 
L 234.751676 -591.186034 
L 235.030889 -595.618195 
L 235.259091 -600.050356 
L 235.435409 -604.482517 
L 236.164591 -604.482517 
L 236.164591 -604.482517 
L 236.340909 -600.050356 
L 236.569111 -595.618195 
L 236.848324 -591.186034 
L 237.170191 -586.753873 
L 237.518117 -582.321712 
L 237.868349 -577.889551 
L 238.193163 -573.45739 
L 238.465858 -569.025228 
L 238.666573 -564.593067 
L 238.787561 -560.160906 
L 238.836534 -555.728745 
L 238.83711 -551.296584 
L 238.826141 -546.864423 
L 238.848535 -542.432262 
L 238.950705 -538.000101 
L 239.174051 -533.56794 
L 239.549623 -529.135779 
L 240.094725 -524.703618 
L 240.811687 -520.271457 
L 241.688639 -515.839296 
L 242.70188 -511.407135 
L 243.819364 -506.974974 
L 245.004878 -502.542813 
L 246.222578 -498.110652 
L 247.441647 -493.67849 
L 248.640827 -489.246329 
L 249.812426 -484.814168 
L 250.965164 -480.382007 
L 252.124973 -475.949846 
L 253.332865 -471.517685 
L 254.639303 -467.085524 
L 256.095342 -462.653363 
L 257.741832 -458.221202 
L 259.598904 -453.789041 
L 261.658398 -449.35688 
L 263.881485 -444.924719 
L 266.202531 -440.492558 
L 268.538579 -436.060397 
L 270.802138 -431.628236 
L 272.913971 -427.196075 
L 274.812522 -422.763914 
L 276.457703 -418.331753 
L 277.828641 -413.899591 
L 278.916978 -409.46743 
L 279.718858 -405.035269 
L 280.229084 -400.603108 
L 280.44 -396.170947 
L 280.345671 -391.738786 
L 279.949705 -387.306625 
L 279.27332 -382.874464 
L 278.359847 -378.442303 
L 277.272881 -374.010142 
L 276.087444 -369.577981 
L 274.876045 -365.14582 
L 273.693435 -360.713659 
L 272.564574 -356.281498 
L 271.479526 -351.849337 
L 270.397038 -347.417176 
L 269.256069 -342.985015 
L 267.992298 -338.552853 
L 266.55532 -334.120692 
L 264.922166 -329.688531 
L 263.103881 -325.25637 
L 261.143831 -320.824209 
L 259.108627 -316.392048 
L 257.074388 -311.959887 
L 255.112131 -307.527726 
L 253.27603 -303.095565 
L 251.597207 -298.663404 
L 250.083962 -294.231243 
L 248.727449 -289.799082 
L 247.510358 -285.366921 
L 246.415583 -280.93476 
L 245.432245 -276.502599 
L 244.55765 -272.070438 
L 243.795196 -267.638277 
L 243.149598 -263.206116 
L 242.621417 -258.773954 
L 242.202882 -254.341793 
L 241.876287 -249.909632 
L 241.615297 -245.477471 
L 241.388565 -241.04531 
L 241.164525 -236.613149 
L 240.916044 -232.180988 
L 240.623953 -227.748827 
L 240.278882 -223.316666 
L 239.881368 -218.884505 
L 239.440528 -214.452344 
L 238.971792 -210.020183 
L 238.494158 -205.588022 
L 238.027424 -201.155861 
L 237.589711 -196.7237 
L 237.195536 -192.291539 
L 236.854604 -187.859378 
L 236.571392 -183.427216 
L 236.345486 -178.995055 
L 236.172514 -174.562894 
L 236.045427 -170.130733 
L 235.955862 -165.698572 
z
" style="stroke: #3f3f3f; stroke-width: 1.25"/>
    </defs>
    <g clip-path="url(#p43e0581f5c)">
     <use xlink:href="#ma99d6a90f5" x="0" y="720" style="fill: #3274a1; stroke: #3f3f3f; stroke-width: 1.25"/>
    </g>
   </g>
   <g id="PolyCollection_2">
    <defs>
     <path id="mdaf1dd528d" d="M 347.675124 -167.253521 
L 347.124876 -167.253521 
L 346.961112 -171.688653 
L 346.72195 -176.123785 
L 346.384922 -180.558916 
L 345.926593 -184.994048 
L 345.325085 -189.42918 
L 344.563309 -193.864312 
L 343.63251 -198.299443 
L 342.53559 -202.734575 
L 341.289505 -207.169707 
L 339.926114 -211.604839 
L 338.490956 -216.03997 
L 337.039776 -220.475102 
L 335.632951 -224.910234 
L 334.328433 -229.345365 
L 333.174123 -233.780497 
L 332.200892 -238.215629 
L 331.417499 -242.650761 
L 330.808542 -247.085892 
L 330.336145 -251.521024 
L 329.945436 -255.956156 
L 329.57308 -260.391288 
L 329.157325 -264.826419 
L 328.647516 -269.261551 
L 328.011007 -273.696683 
L 327.235917 -278.131814 
L 326.329245 -282.566946 
L 325.311052 -287.002078 
L 324.2065 -291.43721 
L 323.038057 -295.872341 
L 321.820002 -300.307473 
L 320.556615 -304.742605 
L 319.244306 -309.177737 
L 317.876874 -313.612868 
L 316.452268 -318.048 
L 314.978986 -322.483132 
L 313.480361 -326.918264 
L 311.995623 -331.353395 
L 310.577335 -335.788527 
L 309.28566 -340.223659 
L 308.180607 -344.65879 
L 307.313834 -349.093922 
L 306.72166 -353.529054 
L 306.420654 -357.964186 
L 306.406531 -362.399317 
L 306.656422 -366.834449 
L 307.133899 -371.269581 
L 307.795743 -375.704713 
L 308.599252 -380.139844 
L 309.508939 -384.574976 
L 310.501586 -389.010108 
L 311.568845 -393.44524 
L 312.716817 -397.880371 
L 313.962454 -402.315503 
L 315.327173 -406.750635 
L 316.828744 -411.185766 
L 318.473124 -415.620898 
L 320.248179 -420.05603 
L 322.121072 -424.491162 
L 324.040343 -428.926293 
L 325.942555 -433.361425 
L 327.762188 -437.796557 
L 329.442502 -442.231689 
L 330.944824 -446.66682 
L 332.254046 -451.101952 
L 333.37921 -455.537084 
L 334.349279 -459.972215 
L 335.205457 -464.407347 
L 335.992131 -468.842479 
L 336.748623 -473.277611 
L 337.503459 -477.712742 
L 338.271922 -482.147874 
L 339.05673 -486.583006 
L 339.850875 -491.018138 
L 340.641396 -495.453269 
L 341.412922 -499.888401 
L 342.150299 -504.323533 
L 342.8401 -508.758665 
L 343.471269 -513.193796 
L 344.035313 -517.628928 
L 344.526444 -522.06406 
L 344.941864 -526.499191 
L 345.282178 -530.934323 
L 345.551733 -535.369455 
L 345.758652 -539.804587 
L 345.914353 -544.239718 
L 346.032511 -548.67485 
L 346.127538 -553.109982 
L 346.212852 -557.545114 
L 346.299254 -561.980245 
L 346.393758 -566.415377 
L 346.49912 -570.850509 
L 346.614128 -575.285641 
L 346.734571 -579.720772 
L 346.854596 -584.155904 
L 346.968137 -588.591036 
L 347.070107 -593.026167 
L 347.157135 -597.461299 
L 347.227808 -601.896431 
L 347.282486 -606.331563 
L 347.517514 -606.331563 
L 347.517514 -606.331563 
L 347.572192 -601.896431 
L 347.642865 -597.461299 
L 347.729893 -593.026167 
L 347.831863 -588.591036 
L 347.945404 -584.155904 
L 348.065429 -579.720772 
L 348.185872 -575.285641 
L 348.30088 -570.850509 
L 348.406242 -566.415377 
L 348.500746 -561.980245 
L 348.587148 -557.545114 
L 348.672462 -553.109982 
L 348.767489 -548.67485 
L 348.885647 -544.239718 
L 349.041348 -539.804587 
L 349.248267 -535.369455 
L 349.517822 -530.934323 
L 349.858136 -526.499191 
L 350.273556 -522.06406 
L 350.764687 -517.628928 
L 351.328731 -513.193796 
L 351.9599 -508.758665 
L 352.649701 -504.323533 
L 353.387078 -499.888401 
L 354.158604 -495.453269 
L 354.949125 -491.018138 
L 355.74327 -486.583006 
L 356.528078 -482.147874 
L 357.296541 -477.712742 
L 358.051377 -473.277611 
L 358.807869 -468.842479 
L 359.594543 -464.407347 
L 360.450721 -459.972215 
L 361.42079 -455.537084 
L 362.545954 -451.101952 
L 363.855176 -446.66682 
L 365.357498 -442.231689 
L 367.037812 -437.796557 
L 368.857445 -433.361425 
L 370.759657 -428.926293 
L 372.678928 -424.491162 
L 374.551821 -420.05603 
L 376.326876 -415.620898 
L 377.971256 -411.185766 
L 379.472827 -406.750635 
L 380.837546 -402.315503 
L 382.083183 -397.880371 
L 383.231155 -393.44524 
L 384.298414 -389.010108 
L 385.291061 -384.574976 
L 386.200748 -380.139844 
L 387.004257 -375.704713 
L 387.666101 -371.269581 
L 388.143578 -366.834449 
L 388.393469 -362.399317 
L 388.379346 -357.964186 
L 388.07834 -353.529054 
L 387.486166 -349.093922 
L 386.619393 -344.65879 
L 385.51434 -340.223659 
L 384.222665 -335.788527 
L 382.804377 -331.353395 
L 381.319639 -326.918264 
L 379.821014 -322.483132 
L 378.347732 -318.048 
L 376.923126 -313.612868 
L 375.555694 -309.177737 
L 374.243385 -304.742605 
L 372.979998 -300.307473 
L 371.761943 -295.872341 
L 370.5935 -291.43721 
L 369.488948 -287.002078 
L 368.470755 -282.566946 
L 367.564083 -278.131814 
L 366.788993 -273.696683 
L 366.152484 -269.261551 
L 365.642675 -264.826419 
L 365.22692 -260.391288 
L 364.854564 -255.956156 
L 364.463855 -251.521024 
L 363.991458 -247.085892 
L 363.382501 -242.650761 
L 362.599108 -238.215629 
L 361.625877 -233.780497 
L 360.471567 -229.345365 
L 359.167049 -224.910234 
L 357.760224 -220.475102 
L 356.309044 -216.03997 
L 354.873886 -211.604839 
L 353.510495 -207.169707 
L 352.26441 -202.734575 
L 351.16749 -198.299443 
L 350.236691 -193.864312 
L 349.474915 -189.42918 
L 348.873407 -184.994048 
L 348.415078 -180.558916 
L 348.07805 -176.123785 
L 347.838888 -171.688653 
L 347.675124 -167.253521 
z
" style="stroke: #3f3f3f; stroke-width: 1.25"/>
    </defs>
    <g clip-path="url(#p43e0581f5c)">
     <use xlink:href="#mdaf1dd528d" x="0" y="720" style="fill: #3274a1; stroke: #3f3f3f; stroke-width: 1.25"/>
    </g>
   </g>
   <g id="PolyCollection_3">
    <defs>
     <path id="md6a1618a6d" d="M 459.121344 -144.823952 
L 458.878656 -144.823952 
L 458.805936 -149.495007 
L 458.698616 -154.166063 
L 458.544668 -158.837119 
L 458.329582 -163.508174 
L 458.036385 -168.17923 
L 457.64595 -172.850286 
L 457.137767 -177.521341 
L 456.491387 -182.192397 
L 455.688685 -186.863452 
L 454.716916 -191.534508 
L 453.572204 -196.205564 
L 452.262818 -200.876619 
L 450.811327 -205.547675 
L 449.254712 -210.218731 
L 447.641865 -214.889786 
L 446.028451 -219.560842 
L 444.46986 -224.231897 
L 443.013566 -228.902953 
L 441.692493 -233.574009 
L 440.520824 -238.245064 
L 439.493109 -242.91612 
L 438.586749 -247.587176 
L 437.767123 -252.258231 
L 436.99409 -256.929287 
L 436.228433 -261.600343 
L 435.437007 -266.271398 
L 434.595902 -270.942454 
L 433.691537 -275.613509 
L 432.720177 -280.284565 
L 431.686671 -284.955621 
L 430.60314 -289.626676 
L 429.487998 -294.297732 
L 428.36525 -298.968788 
L 427.263597 -303.639843 
L 426.214853 -308.310899 
L 425.251431 -312.981955 
L 424.403115 -317.65301 
L 423.693793 -322.324066 
L 423.138969 -326.995121 
L 422.744728 -331.666177 
L 422.508368 -336.337233 
L 422.420401 -341.008288 
L 422.467255 -345.679344 
L 422.633904 -350.3504 
L 422.90584 -355.021455 
L 423.270175 -359.692511 
L 423.716029 -364.363567 
L 424.234632 -369.034622 
L 424.81963 -373.705678 
L 425.467879 -378.376733 
L 426.180684 -383.047789 
L 426.965044 -387.718845 
L 427.834202 -392.3899 
L 428.806728 -397.060956 
L 429.903663 -401.732012 
L 431.143753 -406.403067 
L 432.537522 -411.074123 
L 434.081486 -415.745179 
L 435.754176 -420.416234 
L 437.515412 -425.08729 
L 439.309603 -429.758345 
L 441.072826 -434.429401 
L 442.742295 -439.100457 
L 444.266076 -443.771512 
L 445.610733 -448.442568 
L 446.765119 -453.113624 
L 447.739624 -457.784679 
L 448.561448 -462.455735 
L 449.267498 -467.126791 
L 449.89691 -471.797846 
L 450.484968 -476.468902 
L 451.059403 -481.139957 
L 451.639133 -485.811013 
L 452.234763 -490.482069 
L 452.849858 -495.153124 
L 453.482191 -499.82418 
L 454.124611 -504.495236 
L 454.765681 -509.166291 
L 455.390489 -513.837347 
L 455.982041 -518.508403 
L 456.523316 -523.179458 
L 456.999717 -527.850514 
L 457.401393 -532.521569 
L 457.724827 -537.192625 
L 457.97327 -541.863681 
L 458.155929 -546.534736 
L 458.286117 -551.205792 
L 458.378854 -555.876848 
L 458.448464 -560.547903 
L 458.506676 -565.218959 
L 458.561537 -569.890015 
L 458.617209 -574.56107 
L 458.67453 -579.232126 
L 458.732048 -583.903181 
L 458.787203 -588.574237 
L 458.837367 -593.245293 
L 458.880558 -597.916348 
L 458.915779 -602.587404 
L 458.943015 -607.25846 
L 459.056985 -607.25846 
L 459.056985 -607.25846 
L 459.084221 -602.587404 
L 459.119442 -597.916348 
L 459.162633 -593.245293 
L 459.212797 -588.574237 
L 459.267952 -583.903181 
L 459.32547 -579.232126 
L 459.382791 -574.56107 
L 459.438463 -569.890015 
L 459.493324 -565.218959 
L 459.551536 -560.547903 
L 459.621146 -555.876848 
L 459.713883 -551.205792 
L 459.844071 -546.534736 
L 460.02673 -541.863681 
L 460.275173 -537.192625 
L 460.598607 -532.521569 
L 461.000283 -527.850514 
L 461.476684 -523.179458 
L 462.017959 -518.508403 
L 462.609511 -513.837347 
L 463.234319 -509.166291 
L 463.875389 -504.495236 
L 464.517809 -499.82418 
L 465.150142 -495.153124 
L 465.765237 -490.482069 
L 466.360867 -485.811013 
L 466.940597 -481.139957 
L 467.515032 -476.468902 
L 468.10309 -471.797846 
L 468.732502 -467.126791 
L 469.438552 -462.455735 
L 470.260376 -457.784679 
L 471.234881 -453.113624 
L 472.389267 -448.442568 
L 473.733924 -443.771512 
L 475.257705 -439.100457 
L 476.927174 -434.429401 
L 478.690397 -429.758345 
L 480.484588 -425.08729 
L 482.245824 -420.416234 
L 483.918514 -415.745179 
L 485.462478 -411.074123 
L 486.856247 -406.403067 
L 488.096337 -401.732012 
L 489.193272 -397.060956 
L 490.165798 -392.3899 
L 491.034956 -387.718845 
L 491.819316 -383.047789 
L 492.532121 -378.376733 
L 493.18037 -373.705678 
L 493.765368 -369.034622 
L 494.283971 -364.363567 
L 494.729825 -359.692511 
L 495.09416 -355.021455 
L 495.366096 -350.3504 
L 495.532745 -345.679344 
L 495.579599 -341.008288 
L 495.491632 -336.337233 
L 495.255272 -331.666177 
L 494.861031 -326.995121 
L 494.306207 -322.324066 
L 493.596885 -317.65301 
L 492.748569 -312.981955 
L 491.785147 -308.310899 
L 490.736403 -303.639843 
L 489.63475 -298.968788 
L 488.512002 -294.297732 
L 487.39686 -289.626676 
L 486.313329 -284.955621 
L 485.279823 -280.284565 
L 484.308463 -275.613509 
L 483.404098 -270.942454 
L 482.562993 -266.271398 
L 481.771567 -261.600343 
L 481.00591 -256.929287 
L 480.232877 -252.258231 
L 479.413251 -247.587176 
L 478.506891 -242.91612 
L 477.479176 -238.245064 
L 476.307507 -233.574009 
L 474.986434 -228.902953 
L 473.53014 -224.231897 
L 471.971549 -219.560842 
L 470.358135 -214.889786 
L 468.745288 -210.218731 
L 467.188673 -205.547675 
L 465.737182 -200.876619 
L 464.427796 -196.205564 
L 463.283084 -191.534508 
L 462.311315 -186.863452 
L 461.508613 -182.192397 
L 460.862233 -177.521341 
L 460.35405 -172.850286 
L 459.963615 -168.17923 
L 459.670418 -163.508174 
L 459.455332 -158.837119 
L 459.301384 -154.166063 
L 459.194064 -149.495007 
L 459.121344 -144.823952 
z
" style="stroke: #3f3f3f; stroke-width: 1.25"/>
    </defs>
    <g clip-path="url(#p43e0581f5c)">
     <use xlink:href="#md6a1618a6d" x="0" y="720" style="fill: #3274a1; stroke: #3f3f3f; stroke-width: 1.25"/>
    </g>
   </g>
   <g id="PolyCollection_4">
    <defs>
     <path id="m39b2455891" d="M 570.68441 -124.670976 
L 570.51559 -124.670976 
L 570.466302 -129.557127 
L 570.395376 -134.443279 
L 570.296878 -139.329431 
L 570.164478 -144.215583 
L 569.991521 -149.101734 
L 569.770783 -153.987886 
L 569.493744 -158.874038 
L 569.149349 -163.76019 
L 568.722414 -168.646341 
L 568.192141 -173.532493 
L 567.531414 -178.418645 
L 566.707688 -183.304797 
L 565.686068 -188.190948 
L 564.434723 -193.0771 
L 562.932089 -197.963252 
L 561.174563 -202.849404 
L 559.182899 -207.735556 
L 557.005473 -212.621707 
L 554.717068 -217.507859 
L 552.412799 -222.394011 
L 550.197903 -227.280163 
L 548.175108 -232.166314 
L 546.431795 -237.052466 
L 545.029169 -241.938618 
L 543.995116 -246.82477 
L 543.321654 -251.710921 
L 542.967007 -256.597073 
L 542.861698 -261.483225 
L 542.917623 -266.369377 
L 543.038873 -271.255528 
L 543.133102 -276.14168 
L 543.122225 -281.027832 
L 542.9513 -285.913984 
L 542.594464 -290.800135 
L 542.056939 -295.686287 
L 541.372484 -300.572439 
L 540.59636 -305.458591 
L 539.794767 -310.344743 
L 539.03267 -315.230894 
L 538.362526 -320.117046 
L 537.816413 -325.003198 
L 537.403347 -329.88935 
L 537.112226 -334.775501 
L 536.919333 -339.661653 
L 536.798153 -344.547805 
L 536.728739 -349.433957 
L 536.704225 -354.320108 
L 536.733144 -359.20626 
L 536.837552 -364.092412 
L 537.048117 -368.978564 
L 537.397976 -373.864715 
L 537.917097 -378.750867 
L 538.628246 -383.637019 
L 539.544864 -388.523171 
L 540.670381 -393.409322 
L 541.998189 -398.295474 
L 543.511604 -403.181626 
L 545.183604 -408.067778 
L 546.976677 -412.95393 
L 548.843521 -417.840081 
L 550.729321 -422.726233 
L 552.57598 -427.612385 
L 554.327982 -432.498537 
L 555.938899 -437.384688 
L 557.377099 -442.27084 
L 558.629241 -447.156992 
L 559.700657 -452.043144 
L 560.612524 -456.929295 
L 561.396597 -461.815447 
L 562.088864 -466.701599 
L 562.723594 -471.587751 
L 563.328945 -476.473902 
L 563.924673 -481.360054 
L 564.521804 -486.246206 
L 565.123682 -491.132358 
L 565.727637 -496.018509 
L 566.326654 -500.904661 
L 566.910773 -505.790813 
L 567.468233 -510.676965 
L 567.986602 -515.563117 
L 568.454057 -520.449268 
L 568.860871 -525.33542 
L 569.200886 -530.221572 
L 569.472651 -535.107724 
L 569.679864 -539.993875 
L 569.830925 -544.880027 
L 569.937636 -549.766179 
L 570.013316 -554.652331 
L 570.070755 -559.538482 
L 570.120472 -564.424634 
L 570.169615 -569.310786 
L 570.221677 -574.196938 
L 570.276953 -579.083089 
L 570.333518 -583.969241 
L 570.388393 -588.855393 
L 570.438608 -593.741545 
L 570.481932 -598.627696 
L 570.517223 -603.513848 
L 570.54441 -608.4 
L 570.65559 -608.4 
L 570.65559 -608.4 
L 570.682777 -603.513848 
L 570.718068 -598.627696 
L 570.761392 -593.741545 
L 570.811607 -588.855393 
L 570.866482 -583.969241 
L 570.923047 -579.083089 
L 570.978323 -574.196938 
L 571.030385 -569.310786 
L 571.079528 -564.424634 
L 571.129245 -559.538482 
L 571.186684 -554.652331 
L 571.262364 -549.766179 
L 571.369075 -544.880027 
L 571.520136 -539.993875 
L 571.727349 -535.107724 
L 571.999114 -530.221572 
L 572.339129 -525.33542 
L 572.745943 -520.449268 
L 573.213398 -515.563117 
L 573.731767 -510.676965 
L 574.289227 -505.790813 
L 574.873346 -500.904661 
L 575.472363 -496.018509 
L 576.076318 -491.132358 
L 576.678196 -486.246206 
L 577.275327 -481.360054 
L 577.871055 -476.473902 
L 578.476406 -471.587751 
L 579.111136 -466.701599 
L 579.803403 -461.815447 
L 580.587476 -456.929295 
L 581.499343 -452.043144 
L 582.570759 -447.156992 
L 583.822901 -442.27084 
L 585.261101 -437.384688 
L 586.872018 -432.498537 
L 588.62402 -427.612385 
L 590.470679 -422.726233 
L 592.356479 -417.840081 
L 594.223323 -412.95393 
L 596.016396 -408.067778 
L 597.688396 -403.181626 
L 599.201811 -398.295474 
L 600.529619 -393.409322 
L 601.655136 -388.523171 
L 602.571754 -383.637019 
L 603.282903 -378.750867 
L 603.802024 -373.864715 
L 604.151883 -368.978564 
L 604.362448 -364.092412 
L 604.466856 -359.20626 
L 604.495775 -354.320108 
L 604.471261 -349.433957 
L 604.401847 -344.547805 
L 604.280667 -339.661653 
L 604.087774 -334.775501 
L 603.796653 -329.88935 
L 603.383587 -325.003198 
L 602.837474 -320.117046 
L 602.16733 -315.230894 
L 601.405233 -310.344743 
L 600.60364 -305.458591 
L 599.827516 -300.572439 
L 599.143061 -295.686287 
L 598.605536 -290.800135 
L 598.2487 -285.913984 
L 598.077775 -281.027832 
L 598.066898 -276.14168 
L 598.161127 -271.255528 
L 598.282377 -266.369377 
L 598.338302 -261.483225 
L 598.232993 -256.597073 
L 597.878346 -251.710921 
L 597.204884 -246.82477 
L 596.170831 -241.938618 
L 594.768205 -237.052466 
L 593.024892 -232.166314 
L 591.002097 -227.280163 
L 588.787201 -222.394011 
L 586.482932 -217.507859 
L 584.194527 -212.621707 
L 582.017101 -207.735556 
L 580.025437 -202.849404 
L 578.267911 -197.963252 
L 576.765277 -193.0771 
L 575.513932 -188.190948 
L 574.492312 -183.304797 
L 573.668586 -178.418645 
L 573.007859 -173.532493 
L 572.477586 -168.646341 
L 572.050651 -163.76019 
L 571.706256 -158.874038 
L 571.429217 -153.987886 
L 571.208479 -149.101734 
L 571.035522 -144.215583 
L 570.903122 -139.329431 
L 570.804624 -134.443279 
L 570.733698 -129.557127 
L 570.68441 -124.670976 
z
" style="stroke: #3f3f3f; stroke-width: 1.25"/>
    </defs>
    <g clip-path="url(#p43e0581f5c)">
     <use xlink:href="#m39b2455891" x="0" y="720" style="fill: #3274a1; stroke: #3f3f3f; stroke-width: 1.25"/>
    </g>
   </g>
   <g id="PolyCollection_5">
    <defs>
     <path id="m027138a2b2" d="M 682.331163 -124.606842 
L 682.068837 -124.606842 
L 682.00418 -128.96662 
L 681.91647 -133.326398 
L 681.801362 -137.686175 
L 681.654908 -142.045953 
L 681.473715 -146.405731 
L 681.25482 -150.765509 
L 680.995178 -155.125287 
L 680.690715 -159.485065 
L 680.335045 -163.844843 
L 679.918068 -168.204621 
L 679.4248 -172.564398 
L 678.834842 -176.924176 
L 678.122904 -181.283954 
L 677.260621 -185.643732 
L 676.219717 -190.00351 
L 674.97625 -194.363288 
L 673.515409 -198.723066 
L 671.836105 -203.082844 
L 669.954509 -207.442621 
L 667.905796 -211.802399 
L 665.743538 -216.162177 
L 663.53659 -220.521955 
L 661.363675 -224.881733 
L 659.306275 -229.241511 
L 657.440695 -233.601289 
L 655.830334 -237.961067 
L 654.519192 -242.320844 
L 653.527462 -246.680622 
L 652.849786 -251.0404 
L 652.456355 -255.400178 
L 652.296662 -259.759956 
L 652.305342 -264.119734 
L 652.4093 -268.479512 
L 652.535248 -272.83929 
L 652.616803 -277.199067 
L 652.60046 -281.558845 
L 652.449956 -285.918623 
L 652.148735 -290.278401 
L 651.700376 -294.638179 
L 651.127 -298.997957 
L 650.465776 -303.357735 
L 649.763892 -307.717513 
L 649.072508 -312.07729 
L 648.44048 -316.437068 
L 647.908702 -320.796846 
L 647.505952 -325.156624 
L 647.246857 -329.516402 
L 647.132258 -333.87618 
L 647.151811 -338.235958 
L 647.288218 -342.595736 
L 647.522202 -346.955513 
L 647.837238 -351.315291 
L 648.223108 -355.675069 
L 648.677674 -360.034847 
L 649.206636 -364.394625 
L 649.821481 -368.754403 
L 650.536242 -373.114181 
L 651.36387 -377.473959 
L 652.31306 -381.833736 
L 653.386168 -386.193514 
L 654.578477 -390.553292 
L 655.878678 -394.91307 
L 657.270122 -399.272848 
L 658.732283 -403.632626 
L 660.241977 -407.992404 
L 661.774165 -412.352182 
L 663.302458 -416.711959 
L 664.799679 -421.071737 
L 666.23886 -425.431515 
L 667.594858 -429.791293 
L 668.846503 -434.151071 
L 669.978864 -438.510849 
L 670.98505 -442.870627 
L 671.866995 -447.230405 
L 672.634914 -451.590182 
L 673.305456 -455.94996 
L 673.898961 -460.309738 
L 674.436436 -464.669516 
L 674.936907 -469.029294 
L 675.415663 -473.389072 
L 675.883574 -477.74885 
L 676.347366 -482.108628 
L 676.810494 -486.468405 
L 677.274157 -490.828183 
L 677.738075 -495.187961 
L 678.200841 -499.547739 
L 678.659893 -503.907517 
L 679.111305 -508.267295 
L 679.549686 -512.627073 
L 679.968376 -516.986851 
L 680.360037 -521.346628 
L 680.717541 -525.706406 
L 681.034955 -530.066184 
L 681.308376 -534.425962 
L 681.536434 -538.78574 
L 681.72035 -543.145518 
L 681.863599 -547.505296 
L 681.971279 -551.865074 
L 682.049354 -556.224851 
L 682.350646 -556.224851 
L 682.350646 -556.224851 
L 682.428721 -551.865074 
L 682.536401 -547.505296 
L 682.67965 -543.145518 
L 682.863566 -538.78574 
L 683.091624 -534.425962 
L 683.365045 -530.066184 
L 683.682459 -525.706406 
L 684.039963 -521.346628 
L 684.431624 -516.986851 
L 684.850314 -512.627073 
L 685.288695 -508.267295 
L 685.740107 -503.907517 
L 686.199159 -499.547739 
L 686.661925 -495.187961 
L 687.125843 -490.828183 
L 687.589506 -486.468405 
L 688.052634 -482.108628 
L 688.516426 -477.74885 
L 688.984337 -473.389072 
L 689.463093 -469.029294 
L 689.963564 -464.669516 
L 690.501039 -460.309738 
L 691.094544 -455.94996 
L 691.765086 -451.590182 
L 692.533005 -447.230405 
L 693.41495 -442.870627 
L 694.421136 -438.510849 
L 695.553497 -434.151071 
L 696.805142 -429.791293 
L 698.16114 -425.431515 
L 699.600321 -421.071737 
L 701.097542 -416.711959 
L 702.625835 -412.352182 
L 704.158023 -407.992404 
L 705.667717 -403.632626 
L 707.129878 -399.272848 
L 708.521322 -394.91307 
L 709.821523 -390.553292 
L 711.013832 -386.193514 
L 712.08694 -381.833736 
L 713.03613 -377.473959 
L 713.863758 -373.114181 
L 714.578519 -368.754403 
L 715.193364 -364.394625 
L 715.722326 -360.034847 
L 716.176892 -355.675069 
L 716.562762 -351.315291 
L 716.877798 -346.955513 
L 717.111782 -342.595736 
L 717.248189 -338.235958 
L 717.267742 -333.87618 
L 717.153143 -329.516402 
L 716.894048 -325.156624 
L 716.491298 -320.796846 
L 715.95952 -316.437068 
L 715.327492 -312.07729 
L 714.636108 -307.717513 
L 713.934224 -303.357735 
L 713.273 -298.997957 
L 712.699624 -294.638179 
L 712.251265 -290.278401 
L 711.950044 -285.918623 
L 711.79954 -281.558845 
L 711.783197 -277.199067 
L 711.864752 -272.83929 
L 711.9907 -268.479512 
L 712.094658 -264.119734 
L 712.103338 -259.759956 
L 711.943645 -255.400178 
L 711.550214 -251.0404 
L 710.872538 -246.680622 
L 709.880808 -242.320844 
L 708.569666 -237.961067 
L 706.959305 -233.601289 
L 705.093725 -229.241511 
L 703.036325 -224.881733 
L 700.86341 -220.521955 
L 698.656462 -216.162177 
L 696.494204 -211.802399 
L 694.445491 -207.442621 
L 692.563895 -203.082844 
L 690.884591 -198.723066 
L 689.42375 -194.363288 
L 688.180283 -190.00351 
L 687.139379 -185.643732 
L 686.277096 -181.283954 
L 685.565158 -176.924176 
L 684.9752 -172.564398 
L 684.481932 -168.204621 
L 684.064955 -163.844843 
L 683.709285 -159.485065 
L 683.404822 -155.125287 
L 683.14518 -150.765509 
L 682.926285 -146.405731 
L 682.745092 -142.045953 
L 682.598638 -137.686175 
L 682.48353 -133.326398 
L 682.39582 -128.96662 
L 682.331163 -124.606842 
z
" style="stroke: #3f3f3f; stroke-width: 1.25"/>
    </defs>
    <g clip-path="url(#p43e0581f5c)">
     <use xlink:href="#m027138a2b2" x="0" y="720" style="fill: #3274a1; stroke: #3f3f3f; stroke-width: 1.25"/>
    </g>
   </g>
   <g id="PolyCollection_6">
    <defs>
     <path id="ma176fc8c70" d="M 793.930722 -124.626344 
L 793.669278 -124.626344 
L 793.604155 -128.985728 
L 793.515034 -133.345112 
L 793.396655 -137.704495 
L 793.243614 -142.063879 
L 793.050391 -146.423263 
L 792.811171 -150.782647 
L 792.519423 -155.142031 
L 792.16729 -159.501415 
L 791.744881 -163.860799 
L 791.239689 -168.220183 
L 790.636339 -172.579567 
L 789.916868 -176.938951 
L 789.061652 -181.298334 
L 788.050988 -185.657718 
L 786.867236 -190.017102 
L 785.497357 -194.376486 
L 783.935612 -198.73587 
L 782.1862 -203.095254 
L 780.265517 -207.454638 
L 778.203703 -211.814022 
L 776.045041 -216.173406 
L 773.846764 -220.532789 
L 771.67593 -224.892173 
L 769.604294 -229.251557 
L 767.70154 -233.610941 
L 766.027717 -237.970325 
L 764.626159 -242.329709 
L 763.518257 -246.689093 
L 762.701272 -251.048477 
L 762.149747 -255.407861 
L 761.820285 -259.767245 
L 761.658682 -264.126628 
L 761.607891 -268.486012 
L 761.615217 -272.845396 
L 761.637548 -277.20478 
L 761.644054 -281.564164 
L 761.616519 -285.923548 
L 761.547983 -290.282932 
L 761.440523 -294.642316 
L 761.302861 -299.0017 
L 761.148162 -303.361083 
L 760.992048 -307.720467 
L 760.850715 -312.079851 
L 760.739086 -316.439235 
L 760.669096 -320.798619 
L 760.648401 -325.158003 
L 760.67986 -329.517387 
L 760.762015 -333.876771 
L 760.890558 -338.236155 
L 761.060488 -342.595539 
L 761.268468 -346.954922 
L 761.514809 -351.314306 
L 761.804608 -355.67369 
L 762.147778 -360.033074 
L 762.557974 -364.392458 
L 763.050671 -368.751842 
L 763.640833 -373.111226 
L 764.340687 -377.47061 
L 765.158057 -381.829994 
L 766.095533 -386.189378 
L 767.150491 -390.548761 
L 768.315736 -394.908145 
L 769.580386 -399.267529 
L 770.930583 -403.626913 
L 772.349779 -407.986297 
L 773.818613 -412.345681 
L 775.314634 -416.705065 
L 776.812319 -421.064449 
L 778.283794 -425.423833 
L 779.700439 -429.783216 
L 781.035283 -434.1426 
L 782.265711 -438.501984 
L 783.375874 -442.861368 
L 784.358196 -447.220752 
L 785.213614 -451.580136 
L 785.950543 -455.93952 
L 786.582879 -460.298904 
L 787.127616 -464.658288 
L 787.602612 -469.017672 
L 788.024948 -473.377055 
L 788.410002 -477.736439 
L 788.77113 -482.095823 
L 789.119666 -486.455207 
L 789.46493 -490.814591 
L 789.814039 -495.173975 
L 790.17151 -499.533359 
L 790.538788 -503.892743 
L 790.91395 -508.252127 
L 791.291812 -512.61151 
L 791.664553 -516.970894 
L 792.022809 -521.330278 
L 792.357043 -525.689662 
L 792.658917 -530.049046 
L 792.922388 -534.40843 
L 793.144335 -538.767814 
L 793.32465 -543.127198 
L 793.465863 -547.486582 
L 793.572436 -551.845966 
L 793.649932 -556.205349 
L 793.950068 -556.205349 
L 793.950068 -556.205349 
L 794.027564 -551.845966 
L 794.134137 -547.486582 
L 794.27535 -543.127198 
L 794.455665 -538.767814 
L 794.677612 -534.40843 
L 794.941083 -530.049046 
L 795.242957 -525.689662 
L 795.577191 -521.330278 
L 795.935447 -516.970894 
L 796.308188 -512.61151 
L 796.68605 -508.252127 
L 797.061212 -503.892743 
L 797.42849 -499.533359 
L 797.785961 -495.173975 
L 798.13507 -490.814591 
L 798.480334 -486.455207 
L 798.82887 -482.095823 
L 799.189998 -477.736439 
L 799.575052 -473.377055 
L 799.997388 -469.017672 
L 800.472384 -464.658288 
L 801.017121 -460.298904 
L 801.649457 -455.93952 
L 802.386386 -451.580136 
L 803.241804 -447.220752 
L 804.224126 -442.861368 
L 805.334289 -438.501984 
L 806.564717 -434.1426 
L 807.899561 -429.783216 
L 809.316206 -425.423833 
L 810.787681 -421.064449 
L 812.285366 -416.705065 
L 813.781387 -412.345681 
L 815.250221 -407.986297 
L 816.669417 -403.626913 
L 818.019614 -399.267529 
L 819.284264 -394.908145 
L 820.449509 -390.548761 
L 821.504467 -386.189378 
L 822.441943 -381.829994 
L 823.259313 -377.47061 
L 823.959167 -373.111226 
L 824.549329 -368.751842 
L 825.042026 -364.392458 
L 825.452222 -360.033074 
L 825.795392 -355.67369 
L 826.085191 -351.314306 
L 826.331532 -346.954922 
L 826.539512 -342.595539 
L 826.709442 -338.236155 
L 826.837985 -333.876771 
L 826.92014 -329.517387 
L 826.951599 -325.158003 
L 826.930904 -320.798619 
L 826.860914 -316.439235 
L 826.749285 -312.079851 
L 826.607952 -307.720467 
L 826.451838 -303.361083 
L 826.297139 -299.0017 
L 826.159477 -294.642316 
L 826.052017 -290.282932 
L 825.983481 -285.923548 
L 825.955946 -281.564164 
L 825.962452 -277.20478 
L 825.984783 -272.845396 
L 825.992109 -268.486012 
L 825.941318 -264.126628 
L 825.779715 -259.767245 
L 825.450253 -255.407861 
L 824.898728 -251.048477 
L 824.081743 -246.689093 
L 822.973841 -242.329709 
L 821.572283 -237.970325 
L 819.89846 -233.610941 
L 817.995706 -229.251557 
L 815.92407 -224.892173 
L 813.753236 -220.532789 
L 811.554959 -216.173406 
L 809.396297 -211.814022 
L 807.334483 -207.454638 
L 805.4138 -203.095254 
L 803.664388 -198.73587 
L 802.102643 -194.376486 
L 800.732764 -190.017102 
L 799.549012 -185.657718 
L 798.538348 -181.298334 
L 797.683132 -176.938951 
L 796.963661 -172.579567 
L 796.360311 -168.220183 
L 795.855119 -163.860799 
L 795.43271 -159.501415 
L 795.080577 -155.142031 
L 794.788829 -150.782647 
L 794.549609 -146.423263 
L 794.356386 -142.063879 
L 794.203345 -137.704495 
L 794.084966 -133.345112 
L 793.995845 -128.985728 
L 793.930722 -124.626344 
z
" style="stroke: #3f3f3f; stroke-width: 1.25"/>
    </defs>
    <g clip-path="url(#p43e0581f5c)">
     <use xlink:href="#ma176fc8c70" x="0" y="720" style="fill: #3274a1; stroke: #3f3f3f; stroke-width: 1.25"/>
    </g>
   </g>
   <g id="PolyCollection_7">
    <defs>
     <path id="md954d60cf9" d="M 905.531317 -124.631187 
L 905.268683 -124.631187 
L 905.20301 -128.990473 
L 905.112919 -133.349759 
L 904.992903 -137.709045 
L 904.837216 -142.068331 
L 904.639902 -146.427617 
L 904.394635 -150.786903 
L 904.094354 -155.146189 
L 903.73072 -159.505475 
L 903.293493 -163.864762 
L 902.770002 -168.224048 
L 902.144841 -172.583334 
L 901.399957 -176.94262 
L 900.515186 -181.301906 
L 899.469278 -185.661192 
L 898.241432 -190.020478 
L 896.813369 -194.379764 
L 895.171993 -198.73905 
L 893.31264 -203.098336 
L 891.24274 -207.457622 
L 888.98544 -211.816908 
L 886.582385 -216.176194 
L 884.094653 -220.53548 
L 881.600831 -224.894766 
L 879.191688 -229.254052 
L 876.961609 -233.613338 
L 874.997928 -237.972624 
L 873.370066 -242.33191 
L 872.120717 -246.691196 
L 871.261063 -251.050483 
L 870.771047 -255.409769 
L 870.60453 -259.769055 
L 870.697936 -264.128341 
L 870.980241 -268.487627 
L 871.382103 -272.846913 
L 871.842468 -277.206199 
L 872.312015 -281.565485 
L 872.753714 -285.924771 
L 873.141524 -290.284057 
L 873.45839 -294.643343 
L 873.694471 -299.002629 
L 873.846027 -303.361915 
L 873.914932 -307.721201 
L 873.908492 -312.080487 
L 873.839229 -316.439773 
L 873.724405 -320.799059 
L 873.585226 -325.158345 
L 873.445756 -329.517631 
L 873.331559 -333.876918 
L 873.268084 -338.236204 
L 873.278829 -342.59549 
L 873.383426 -346.954776 
L 873.595947 -351.314062 
L 873.923816 -355.673348 
L 874.367681 -360.032634 
L 874.922388 -364.39192 
L 875.578925 -368.751206 
L 876.326883 -373.110492 
L 877.156847 -377.469778 
L 878.062126 -381.829064 
L 879.039438 -386.18835 
L 880.088434 -390.547636 
L 881.210245 -394.906922 
L 882.405409 -399.266208 
L 883.671679 -403.625494 
L 885.002147 -407.98478 
L 886.384052 -412.344066 
L 887.798527 -416.703352 
L 889.221359 -421.062639 
L 890.624711 -425.421925 
L 891.979569 -429.781211 
L 893.258578 -434.140497 
L 894.438807 -438.499783 
L 895.503986 -442.859069 
L 896.445845 -447.218355 
L 897.264352 -451.577641 
L 897.966878 -455.936927 
L 898.56653 -460.296213 
L 899.080027 -464.655499 
L 899.525567 -469.014785 
L 899.920999 -473.374071 
L 900.28254 -477.733357 
L 900.624028 -482.092643 
L 900.956613 -486.451929 
L 901.288691 -490.811215 
L 901.625901 -495.170501 
L 901.971107 -499.529787 
L 902.324359 -503.889074 
L 902.682944 -508.24836 
L 903.041645 -512.607646 
L 903.393311 -516.966932 
L 903.729717 -521.326218 
L 904.042632 -525.685504 
L 904.3249 -530.04479 
L 904.571335 -534.404076 
L 904.779259 -538.763362 
L 904.948615 -543.122648 
L 905.081678 -547.481934 
L 905.182475 -551.84122 
L 905.256061 -556.200506 
L 905.543939 -556.200506 
L 905.543939 -556.200506 
L 905.617525 -551.84122 
L 905.718322 -547.481934 
L 905.851385 -543.122648 
L 906.020741 -538.763362 
L 906.228665 -534.404076 
L 906.4751 -530.04479 
L 906.757368 -525.685504 
L 907.070283 -521.326218 
L 907.406689 -516.966932 
L 907.758355 -512.607646 
L 908.117056 -508.24836 
L 908.475641 -503.889074 
L 908.828893 -499.529787 
L 909.174099 -495.170501 
L 909.511309 -490.811215 
L 909.843387 -486.451929 
L 910.175972 -482.092643 
L 910.51746 -477.733357 
L 910.879001 -473.374071 
L 911.274433 -469.014785 
L 911.719973 -464.655499 
L 912.23347 -460.296213 
L 912.833122 -455.936927 
L 913.535648 -451.577641 
L 914.354155 -447.218355 
L 915.296014 -442.859069 
L 916.361193 -438.499783 
L 917.541422 -434.140497 
L 918.820431 -429.781211 
L 920.175289 -425.421925 
L 921.578641 -421.062639 
L 923.001473 -416.703352 
L 924.415948 -412.344066 
L 925.797853 -407.98478 
L 927.128321 -403.625494 
L 928.394591 -399.266208 
L 929.589755 -394.906922 
L 930.711566 -390.547636 
L 931.760562 -386.18835 
L 932.737874 -381.829064 
L 933.643153 -377.469778 
L 934.473117 -373.110492 
L 935.221075 -368.751206 
L 935.877612 -364.39192 
L 936.432319 -360.032634 
L 936.876184 -355.673348 
L 937.204053 -351.314062 
L 937.416574 -346.954776 
L 937.521171 -342.59549 
L 937.531916 -338.236204 
L 937.468441 -333.876918 
L 937.354244 -329.517631 
L 937.214774 -325.158345 
L 937.075595 -320.799059 
L 936.960771 -316.439773 
L 936.891508 -312.080487 
L 936.885068 -307.721201 
L 936.953973 -303.361915 
L 937.105529 -299.002629 
L 937.34161 -294.643343 
L 937.658476 -290.284057 
L 938.046286 -285.924771 
L 938.487985 -281.565485 
L 938.957532 -277.206199 
L 939.417897 -272.846913 
L 939.819759 -268.487627 
L 940.102064 -264.128341 
L 940.19547 -259.769055 
L 940.028953 -255.409769 
L 939.538937 -251.050483 
L 938.679283 -246.691196 
L 937.429934 -242.33191 
L 935.802072 -237.972624 
L 933.838391 -233.613338 
L 931.608312 -229.254052 
L 929.199169 -224.894766 
L 926.705347 -220.53548 
L 924.217615 -216.176194 
L 921.81456 -211.816908 
L 919.55726 -207.457622 
L 917.48736 -203.098336 
L 915.628007 -198.73905 
L 913.986631 -194.379764 
L 912.558568 -190.020478 
L 911.330722 -185.661192 
L 910.284814 -181.301906 
L 909.400043 -176.94262 
L 908.655159 -172.583334 
L 908.029998 -168.224048 
L 907.506507 -163.864762 
L 907.06928 -159.505475 
L 906.705646 -155.146189 
L 906.405365 -150.786903 
L 906.160098 -146.427617 
L 905.962784 -142.068331 
L 905.807097 -137.709045 
L 905.687081 -133.349759 
L 905.59699 -128.990473 
L 905.531317 -124.631187 
z
" style="stroke: #3f3f3f; stroke-width: 1.25"/>
    </defs>
    <g clip-path="url(#p43e0581f5c)">
     <use xlink:href="#md954d60cf9" x="0" y="720" style="fill: #3274a1; stroke: #3f3f3f; stroke-width: 1.25"/>
    </g>
   </g>
   <g id="PolyCollection_8">
    <defs>
     <path id="m7e1f4c64c0" d="M 1017.067104 -107.274191 
L 1016.932896 -107.274191 
L 1016.898285 -111.801012 
L 1016.850891 -116.327832 
L 1016.788225 -120.854652 
L 1016.707965 -125.381472 
L 1016.607959 -129.908292 
L 1016.486036 -134.435112 
L 1016.339572 -138.961932 
L 1016.164805 -143.488752 
L 1015.955981 -148.015572 
L 1015.704452 -152.542392 
L 1015.397894 -157.069212 
L 1015.019815 -161.596032 
L 1014.549513 -166.122853 
L 1013.962565 -170.649673 
L 1013.231888 -175.176493 
L 1012.32932 -179.703313 
L 1011.227617 -184.230133 
L 1009.902745 -188.756953 
L 1008.336384 -193.283773 
L 1006.518609 -197.810593 
L 1004.4508 -202.337413 
L 1002.148748 -206.864233 
L 999.645728 -211.391053 
L 996.994953 -215.917874 
L 994.27044 -220.444694 
L 991.565108 -224.971514 
L 988.985209 -229.498334 
L 986.640889 -234.025154 
L 984.633797 -238.551974 
L 983.0438 -243.078794 
L 981.917514 -247.605614 
L 981.26134 -252.132434 
L 981.04072 -256.659254 
L 981.185937 -261.186074 
L 981.603127 -265.712895 
L 982.188129 -270.239715 
L 982.840312 -274.766535 
L 983.473971 -279.293355 
L 984.025726 -283.820175 
L 984.457446 -288.346995 
L 984.755098 -292.873815 
L 984.924494 -297.400635 
L 984.985155 -301.927455 
L 984.963546 -306.454275 
L 984.886905 -310.981095 
L 984.778689 -315.507916 
L 984.656398 -320.034736 
L 984.531991 -324.561556 
L 984.41448 -329.088376 
L 984.313642 -333.615196 
L 984.243466 -338.142016 
L 984.224038 -342.668836 
L 984.281156 -347.195656 
L 984.443775 -351.722476 
L 984.740164 -356.249296 
L 985.193983 -360.776116 
L 985.821403 -365.302937 
L 986.629842 -369.829757 
L 987.618187 -374.356577 
L 988.777928 -378.883397 
L 990.094396 -383.410217 
L 991.547602 -387.937037 
L 993.112573 -392.463857 
L 994.759508 -396.990677 
L 996.454312 -401.517497 
L 998.159937 -406.044317 
L 999.838646 -410.571137 
L 1001.454898 -415.097958 
L 1002.97827 -419.624778 
L 1004.385757 -424.151598 
L 1005.662976 -428.678418 
L 1006.804139 -433.205238 
L 1007.810964 -437.732058 
L 1008.690936 -442.258878 
L 1009.455366 -446.785698 
L 1010.117604 -451.312518 
L 1010.691621 -455.839338 
L 1011.191013 -460.366158 
L 1011.628429 -464.892979 
L 1012.015346 -469.419799 
L 1012.362135 -473.946619 
L 1012.678326 -478.473439 
L 1012.972914 -483.000259 
L 1013.25454 -487.527079 
L 1013.531368 -492.053899 
L 1013.810581 -496.580719 
L 1014.097554 -501.107539 
L 1014.394932 -505.634359 
L 1014.701936 -510.161179 
L 1015.014201 -514.688 
L 1015.32431 -519.21482 
L 1015.62298 -523.74164 
L 1015.900641 -528.26846 
L 1016.149027 -532.79528 
L 1016.36241 -537.3221 
L 1016.538237 -541.84892 
L 1016.677103 -546.37574 
L 1016.782188 -550.90256 
L 1016.85837 -555.42938 
L 1017.14163 -555.42938 
L 1017.14163 -555.42938 
L 1017.217812 -550.90256 
L 1017.322897 -546.37574 
L 1017.461763 -541.84892 
L 1017.63759 -537.3221 
L 1017.850973 -532.79528 
L 1018.099359 -528.26846 
L 1018.37702 -523.74164 
L 1018.67569 -519.21482 
L 1018.985799 -514.688 
L 1019.298064 -510.161179 
L 1019.605068 -505.634359 
L 1019.902446 -501.107539 
L 1020.189419 -496.580719 
L 1020.468632 -492.053899 
L 1020.74546 -487.527079 
L 1021.027086 -483.000259 
L 1021.321674 -478.473439 
L 1021.637865 -473.946619 
L 1021.984654 -469.419799 
L 1022.371571 -464.892979 
L 1022.808987 -460.366158 
L 1023.308379 -455.839338 
L 1023.882396 -451.312518 
L 1024.544634 -446.785698 
L 1025.309064 -442.258878 
L 1026.189036 -437.732058 
L 1027.195861 -433.205238 
L 1028.337024 -428.678418 
L 1029.614243 -424.151598 
L 1031.02173 -419.624778 
L 1032.545102 -415.097958 
L 1034.161354 -410.571137 
L 1035.840063 -406.044317 
L 1037.545688 -401.517497 
L 1039.240492 -396.990677 
L 1040.887427 -392.463857 
L 1042.452398 -387.937037 
L 1043.905604 -383.410217 
L 1045.222072 -378.883397 
L 1046.381813 -374.356577 
L 1047.370158 -369.829757 
L 1048.178597 -365.302937 
L 1048.806017 -360.776116 
L 1049.259836 -356.249296 
L 1049.556225 -351.722476 
L 1049.718844 -347.195656 
L 1049.775962 -342.668836 
L 1049.756534 -338.142016 
L 1049.686358 -333.615196 
L 1049.58552 -329.088376 
L 1049.468009 -324.561556 
L 1049.343602 -320.034736 
L 1049.221311 -315.507916 
L 1049.113095 -310.981095 
L 1049.036454 -306.454275 
L 1049.014845 -301.927455 
L 1049.075506 -297.400635 
L 1049.244902 -292.873815 
L 1049.542554 -288.346995 
L 1049.974274 -283.820175 
L 1050.526029 -279.293355 
L 1051.159688 -274.766535 
L 1051.811871 -270.239715 
L 1052.396873 -265.712895 
L 1052.814063 -261.186074 
L 1052.95928 -256.659254 
L 1052.73866 -252.132434 
L 1052.082486 -247.605614 
L 1050.9562 -243.078794 
L 1049.366203 -238.551974 
L 1047.359111 -234.025154 
L 1045.014791 -229.498334 
L 1042.434892 -224.971514 
L 1039.72956 -220.444694 
L 1037.005047 -215.917874 
L 1034.354272 -211.391053 
L 1031.851252 -206.864233 
L 1029.5492 -202.337413 
L 1027.481391 -197.810593 
L 1025.663616 -193.283773 
L 1024.097255 -188.756953 
L 1022.772383 -184.230133 
L 1021.67068 -179.703313 
L 1020.768112 -175.176493 
L 1020.037435 -170.649673 
L 1019.450487 -166.122853 
L 1018.980185 -161.596032 
L 1018.602106 -157.069212 
L 1018.295548 -152.542392 
L 1018.044019 -148.015572 
L 1017.835195 -143.488752 
L 1017.660428 -138.961932 
L 1017.513964 -134.435112 
L 1017.392041 -129.908292 
L 1017.292035 -125.381472 
L 1017.211775 -120.854652 
L 1017.149109 -116.327832 
L 1017.101715 -111.801012 
L 1017.067104 -107.274191 
z
" style="stroke: #3f3f3f; stroke-width: 1.25"/>
    </defs>
    <g clip-path="url(#p43e0581f5c)">
     <use xlink:href="#m7e1f4c64c0" x="0" y="720" style="fill: #3274a1; stroke: #3f3f3f; stroke-width: 1.25"/>
    </g>
   </g>
   <g id="PolyCollection_9">
    <defs>
     <path id="m39e55a9642" d="M 1128.675413 -104.4 
L 1128.524587 -104.4 
L 1128.48431 -108.964026 
L 1128.428088 -113.528051 
L 1128.352209 -118.092077 
L 1128.25299 -122.656103 
L 1128.126953 -127.220128 
L 1127.970888 -131.784154 
L 1127.781712 -136.34818 
L 1127.556068 -140.912206 
L 1127.289659 -145.476231 
L 1126.976356 -150.040257 
L 1126.607194 -154.604283 
L 1126.169428 -159.168308 
L 1125.645841 -163.732334 
L 1125.014553 -168.29636 
L 1124.249507 -172.860385 
L 1123.321813 -177.424411 
L 1122.201983 -181.988437 
L 1120.863021 -186.552462 
L 1119.284178 -191.116488 
L 1117.455097 -195.680514 
L 1115.379935 -200.24454 
L 1113.080976 -204.808565 
L 1110.601111 -209.372591 
L 1108.004502 -213.936617 
L 1105.374699 -218.500642 
L 1102.809679 -223.064668 
L 1100.413725 -227.628694 
L 1098.286724 -232.192719 
L 1096.512326 -236.756745 
L 1095.147058 -241.320771 
L 1094.212722 -245.884796 
L 1093.693985 -250.448822 
L 1093.541977 -255.012848 
L 1093.683317 -259.576874 
L 1094.032585 -264.140899 
L 1094.50541 -268.704925 
L 1095.029368 -273.268951 
L 1095.550601 -277.832976 
L 1096.03544 -282.397002 
L 1096.46766 -286.961028 
L 1096.843009 -291.525053 
L 1097.163011 -296.089079 
L 1097.429782 -300.653105 
L 1097.64288 -305.21713 
L 1097.79846 -309.781156 
L 1097.890392 -314.345182 
L 1097.912708 -318.909208 
L 1097.862701 -323.473233 
L 1097.74403 -328.037259 
L 1097.569252 -332.601285 
L 1097.361221 -337.16531 
L 1097.152884 -341.729336 
L 1096.985204 -346.293362 
L 1096.90335 -350.857387 
L 1096.951738 -355.421413 
L 1097.168862 -359.985439 
L 1097.582952 -364.549464 
L 1098.209288 -369.11349 
L 1099.049542 -373.677516 
L 1100.092957 -378.241542 
L 1101.318807 -382.805567 
L 1102.699376 -387.369593 
L 1104.202807 -391.933619 
L 1105.795416 -396.497644 
L 1107.443381 -401.06167 
L 1109.113891 -405.625696 
L 1110.775994 -410.189721 
L 1112.401289 -414.753747 
L 1113.964565 -419.317773 
L 1115.444398 -423.881798 
L 1116.823635 -428.445824 
L 1118.08972 -433.00985 
L 1119.234798 -437.573876 
L 1120.255579 -442.137901 
L 1121.152969 -446.701927 
L 1121.931533 -451.265953 
L 1122.598836 -455.829978 
L 1123.164789 -460.394004 
L 1123.641047 -464.95803 
L 1124.040541 -469.522055 
L 1124.377108 -474.086081 
L 1124.665186 -478.650107 
L 1124.919432 -483.214132 
L 1125.154172 -487.778158 
L 1125.382607 -492.342184 
L 1125.615809 -496.90621 
L 1125.86166 -501.470235 
L 1126.123972 -506.034261 
L 1126.402058 -510.598287 
L 1126.690961 -515.162312 
L 1126.982378 -519.726338 
L 1127.266135 -524.290364 
L 1127.531929 -528.854389 
L 1127.770959 -533.418415 
L 1127.977114 -537.982441 
L 1128.147539 -542.546466 
L 1128.282553 -547.110492 
L 1128.385051 -551.674518 
L 1128.459625 -556.238544 
L 1128.740375 -556.238544 
L 1128.740375 -556.238544 
L 1128.814949 -551.674518 
L 1128.917447 -547.110492 
L 1129.052461 -542.546466 
L 1129.222886 -537.982441 
L 1129.429041 -533.418415 
L 1129.668071 -528.854389 
L 1129.933865 -524.290364 
L 1130.217622 -519.726338 
L 1130.509039 -515.162312 
L 1130.797942 -510.598287 
L 1131.076028 -506.034261 
L 1131.33834 -501.470235 
L 1131.584191 -496.90621 
L 1131.817393 -492.342184 
L 1132.045828 -487.778158 
L 1132.280568 -483.214132 
L 1132.534814 -478.650107 
L 1132.822892 -474.086081 
L 1133.159459 -469.522055 
L 1133.558953 -464.95803 
L 1134.035211 -460.394004 
L 1134.601164 -455.829978 
L 1135.268467 -451.265953 
L 1136.047031 -446.701927 
L 1136.944421 -442.137901 
L 1137.965202 -437.573876 
L 1139.11028 -433.00985 
L 1140.376365 -428.445824 
L 1141.755602 -423.881798 
L 1143.235435 -419.317773 
L 1144.798711 -414.753747 
L 1146.424006 -410.189721 
L 1148.086109 -405.625696 
L 1149.756619 -401.06167 
L 1151.404584 -396.497644 
L 1152.997193 -391.933619 
L 1154.500624 -387.369593 
L 1155.881193 -382.805567 
L 1157.107043 -378.241542 
L 1158.150458 -373.677516 
L 1158.990712 -369.11349 
L 1159.617048 -364.549464 
L 1160.031138 -359.985439 
L 1160.248262 -355.421413 
L 1160.29665 -350.857387 
L 1160.214796 -346.293362 
L 1160.047116 -341.729336 
L 1159.838779 -337.16531 
L 1159.630748 -332.601285 
L 1159.45597 -328.037259 
L 1159.337299 -323.473233 
L 1159.287292 -318.909208 
L 1159.309608 -314.345182 
L 1159.40154 -309.781156 
L 1159.55712 -305.21713 
L 1159.770218 -300.653105 
L 1160.036989 -296.089079 
L 1160.356991 -291.525053 
L 1160.73234 -286.961028 
L 1161.16456 -282.397002 
L 1161.649399 -277.832976 
L 1162.170632 -273.268951 
L 1162.69459 -268.704925 
L 1163.167415 -264.140899 
L 1163.516683 -259.576874 
L 1163.658023 -255.012848 
L 1163.506015 -250.448822 
L 1162.987278 -245.884796 
L 1162.052942 -241.320771 
L 1160.687674 -236.756745 
L 1158.913276 -232.192719 
L 1156.786275 -227.628694 
L 1154.390321 -223.064668 
L 1151.825301 -218.500642 
L 1149.195498 -213.936617 
L 1146.598889 -209.372591 
L 1144.119024 -204.808565 
L 1141.820065 -200.24454 
L 1139.744903 -195.680514 
L 1137.915822 -191.116488 
L 1136.336979 -186.552462 
L 1134.998017 -181.988437 
L 1133.878187 -177.424411 
L 1132.950493 -172.860385 
L 1132.185447 -168.29636 
L 1131.554159 -163.732334 
L 1131.030572 -159.168308 
L 1130.592806 -154.604283 
L 1130.223644 -150.040257 
L 1129.910341 -145.476231 
L 1129.643932 -140.912206 
L 1129.418288 -136.34818 
L 1129.229112 -131.784154 
L 1129.073047 -127.220128 
L 1128.94701 -122.656103 
L 1128.847791 -118.092077 
L 1128.771912 -113.528051 
L 1128.71569 -108.964026 
L 1128.675413 -104.4 
z
" style="stroke: #3f3f3f; stroke-width: 1.25"/>
    </defs>
    <g clip-path="url(#p43e0581f5c)">
     <use xlink:href="#m39e55a9642" x="0" y="720" style="fill: #3274a1; stroke: #3f3f3f; stroke-width: 1.25"/>
    </g>
   </g>
   <g id="PolyCollection_10">
    <defs>
     <path id="m3b12e4cae7" d="M 1240.276197 -104.546105 
L 1240.123803 -104.546105 
L 1240.082757 -109.107179 
L 1240.025226 -113.668253 
L 1239.947231 -118.229327 
L 1239.844751 -122.790401 
L 1239.713919 -127.351475 
L 1239.55112 -131.912549 
L 1239.352917 -136.473623 
L 1239.115734 -141.034697 
L 1238.835282 -145.595771 
L 1238.505745 -150.156845 
L 1238.118806 -154.71792 
L 1237.662647 -159.278994 
L 1237.121134 -163.840068 
L 1236.47338 -168.401142 
L 1235.693939 -172.962216 
L 1234.753794 -177.52329 
L 1233.622248 -182.084364 
L 1232.269722 -186.645438 
L 1230.671339 -191.206512 
L 1228.811095 -195.767586 
L 1226.686337 -200.32866 
L 1224.312123 -204.889734 
L 1221.724901 -209.450809 
L 1218.98474 -214.011883 
L 1216.175167 -218.572957 
L 1213.399727 -223.134031 
L 1210.774706 -227.695105 
L 1208.418238 -232.256179 
L 1206.436955 -236.817253 
L 1204.912331 -241.378327 
L 1203.889399 -245.939401 
L 1203.370396 -250.500475 
L 1203.314971 -255.061549 
L 1203.647138 -259.622623 
L 1204.267551 -264.183698 
L 1205.068442 -268.744772 
L 1205.948076 -273.305846 
L 1206.82194 -277.86692 
L 1207.628963 -282.427994 
L 1208.332433 -286.989068 
L 1208.916583 -291.550142 
L 1209.380598 -296.111216 
L 1209.732008 -300.67229 
L 1209.981091 -305.233364 
L 1210.13726 -309.794438 
L 1210.207716 -314.355512 
L 1210.198102 -318.916587 
L 1210.114546 -323.477661 
L 1209.966372 -328.038735 
L 1209.768694 -332.599809 
L 1209.544227 -337.160883 
L 1209.323746 -341.721957 
L 1209.144894 -346.283031 
L 1209.049392 -350.844105 
L 1209.07909 -355.405179 
L 1209.271601 -359.966253 
L 1209.656361 -364.527327 
L 1210.251845 -369.088401 
L 1211.064303 -373.649476 
L 1212.087988 -378.21055 
L 1213.30651 -382.771624 
L 1214.694806 -387.332698 
L 1216.221288 -391.893772 
L 1217.8499 -396.454846 
L 1219.542009 -401.01592 
L 1221.2582 -405.576994 
L 1222.960013 -410.138068 
L 1224.611665 -414.699142 
L 1226.181669 -419.260216 
L 1227.644247 -423.82129 
L 1228.980444 -428.382365 
L 1230.178818 -432.943439 
L 1231.235648 -437.504513 
L 1232.154562 -442.065587 
L 1232.945578 -446.626661 
L 1233.623564 -451.187735 
L 1234.206276 -455.748809 
L 1234.712215 -460.309883 
L 1235.158659 -464.870957 
L 1235.560205 -469.432031 
L 1235.928052 -473.993105 
L 1236.270096 -478.554179 
L 1236.591673 -483.115254 
L 1236.896606 -487.676328 
L 1237.188172 -492.237402 
L 1237.469636 -496.798476 
L 1237.744203 -501.35955 
L 1238.014463 -505.920624 
L 1238.281618 -510.481698 
L 1238.544844 -515.042772 
L 1238.801105 -519.603846 
L 1239.045552 -524.16492 
L 1239.272424 -528.725994 
L 1239.47619 -533.287068 
L 1239.652622 -537.848143 
L 1239.799511 -542.409217 
L 1239.916904 -546.970291 
L 1240.006877 -551.531365 
L 1240.072968 -556.092439 
L 1240.327032 -556.092439 
L 1240.327032 -556.092439 
L 1240.393123 -551.531365 
L 1240.483096 -546.970291 
L 1240.600489 -542.409217 
L 1240.747378 -537.848143 
L 1240.92381 -533.287068 
L 1241.127576 -528.725994 
L 1241.354448 -524.16492 
L 1241.598895 -519.603846 
L 1241.855156 -515.042772 
L 1242.118382 -510.481698 
L 1242.385537 -505.920624 
L 1242.655797 -501.35955 
L 1242.930364 -496.798476 
L 1243.211828 -492.237402 
L 1243.503394 -487.676328 
L 1243.808327 -483.115254 
L 1244.129904 -478.554179 
L 1244.471948 -473.993105 
L 1244.839795 -469.432031 
L 1245.241341 -464.870957 
L 1245.687785 -460.309883 
L 1246.193724 -455.748809 
L 1246.776436 -451.187735 
L 1247.454422 -446.626661 
L 1248.245438 -442.065587 
L 1249.164352 -437.504513 
L 1250.221182 -432.943439 
L 1251.419556 -428.382365 
L 1252.755753 -423.82129 
L 1254.218331 -419.260216 
L 1255.788335 -414.699142 
L 1257.439987 -410.138068 
L 1259.1418 -405.576994 
L 1260.857991 -401.01592 
L 1262.5501 -396.454846 
L 1264.178712 -391.893772 
L 1265.705194 -387.332698 
L 1267.09349 -382.771624 
L 1268.312012 -378.21055 
L 1269.335697 -373.649476 
L 1270.148155 -369.088401 
L 1270.743639 -364.527327 
L 1271.128399 -359.966253 
L 1271.32091 -355.405179 
L 1271.350608 -350.844105 
L 1271.255106 -346.283031 
L 1271.076254 -341.721957 
L 1270.855773 -337.160883 
L 1270.631306 -332.599809 
L 1270.433628 -328.038735 
L 1270.285454 -323.477661 
L 1270.201898 -318.916587 
L 1270.192284 -314.355512 
L 1270.26274 -309.794438 
L 1270.418909 -305.233364 
L 1270.667992 -300.67229 
L 1271.019402 -296.111216 
L 1271.483417 -291.550142 
L 1272.067567 -286.989068 
L 1272.771037 -282.427994 
L 1273.57806 -277.86692 
L 1274.451924 -273.305846 
L 1275.331558 -268.744772 
L 1276.132449 -264.183698 
L 1276.752862 -259.622623 
L 1277.085029 -255.061549 
L 1277.029604 -250.500475 
L 1276.510601 -245.939401 
L 1275.487669 -241.378327 
L 1273.963045 -236.817253 
L 1271.981762 -232.256179 
L 1269.625294 -227.695105 
L 1267.000273 -223.134031 
L 1264.224833 -218.572957 
L 1261.41526 -214.011883 
L 1258.675099 -209.450809 
L 1256.087877 -204.889734 
L 1253.713663 -200.32866 
L 1251.588905 -195.767586 
L 1249.728661 -191.206512 
L 1248.130278 -186.645438 
L 1246.777752 -182.084364 
L 1245.646206 -177.52329 
L 1244.706061 -172.962216 
L 1243.92662 -168.401142 
L 1243.278866 -163.840068 
L 1242.737353 -159.278994 
L 1242.281194 -154.71792 
L 1241.894255 -150.156845 
L 1241.564718 -145.595771 
L 1241.284266 -141.034697 
L 1241.047083 -136.473623 
L 1240.84888 -131.912549 
L 1240.686081 -127.351475 
L 1240.555249 -122.790401 
L 1240.452769 -118.229327 
L 1240.374774 -113.668253 
L 1240.317243 -109.107179 
L 1240.276197 -104.546105 
z
" style="stroke: #3f3f3f; stroke-width: 1.25"/>
    </defs>
    <g clip-path="url(#p43e0581f5c)">
     <use xlink:href="#m3b12e4cae7" x="0" y="720" style="fill: #3274a1; stroke: #3f3f3f; stroke-width: 1.25"/>
    </g>
   </g>
   <g id="matplotlib.axis_1">
    <g id="xtick_1">
     <g id="line2d_1">
      <defs>
       <path id="m4dddb74221" d="M 0 0 
L 0 3.5 
" style="stroke: #000000; stroke-width: 0.8"/>
      </defs>
      <g>
       <use xlink:href="#m4dddb74221" x="235.8" y="640.8" style="stroke: #000000; stroke-width: 0.8"/>
      </g>
     </g>
     <g id="text_1">
      <!-- 0 -->
      <g transform="translate(232.61875 655.398438) scale(0.1 -0.1)">
       <defs>
        <path id="DejaVuSans-30" d="M 2034 4250 
Q 1547 4250 1301 3770 
Q 1056 3291 1056 2328 
Q 1056 1369 1301 889 
Q 1547 409 2034 409 
Q 2525 409 2770 889 
Q 3016 1369 3016 2328 
Q 3016 3291 2770 3770 
Q 2525 4250 2034 4250 
z
M 2034 4750 
Q 2819 4750 3233 4129 
Q 3647 3509 3647 2328 
Q 3647 1150 3233 529 
Q 2819 -91 2034 -91 
Q 1250 -91 836 529 
Q 422 1150 422 2328 
Q 422 3509 836 4129 
Q 1250 4750 2034 4750 
z
" transform="scale(0.015625)"/>
       </defs>
       <use xlink:href="#DejaVuSans-30"/>
      </g>
     </g>
    </g>
    <g id="xtick_2">
     <g id="line2d_2">
      <g>
       <use xlink:href="#m4dddb74221" x="347.4" y="640.8" style="stroke: #000000; stroke-width: 0.8"/>
      </g>
     </g>
     <g id="text_2">
      <!-- 1 -->
      <g transform="translate(344.21875 655.398438) scale(0.1 -0.1)">
       <defs>
        <path id="DejaVuSans-31" d="M 794 531 
L 1825 531 
L 1825 4091 
L 703 3866 
L 703 4441 
L 1819 4666 
L 2450 4666 
L 2450 531 
L 3481 531 
L 3481 0 
L 794 0 
L 794 531 
z
" transform="scale(0.015625)"/>
       </defs>
       <use xlink:href="#DejaVuSans-31"/>
      </g>
     </g>
    </g>
    <g id="xtick_3">
     <g id="line2d_3">
      <g>
       <use xlink:href="#m4dddb74221" x="459" y="640.8" style="stroke: #000000; stroke-width: 0.8"/>
      </g>
     </g>
     <g id="text_3">
      <!-- 2 -->
      <g transform="translate(455.81875 655.398438) scale(0.1 -0.1)">
       <defs>
        <path id="DejaVuSans-32" d="M 1228 531 
L 3431 531 
L 3431 0 
L 469 0 
L 469 531 
Q 828 903 1448 1529 
Q 2069 2156 2228 2338 
Q 2531 2678 2651 2914 
Q 2772 3150 2772 3378 
Q 2772 3750 2511 3984 
Q 2250 4219 1831 4219 
Q 1534 4219 1204 4116 
Q 875 4013 500 3803 
L 500 4441 
Q 881 4594 1212 4672 
Q 1544 4750 1819 4750 
Q 2544 4750 2975 4387 
Q 3406 4025 3406 3419 
Q 3406 3131 3298 2873 
Q 3191 2616 2906 2266 
Q 2828 2175 2409 1742 
Q 1991 1309 1228 531 
z
" transform="scale(0.015625)"/>
       </defs>
       <use xlink:href="#DejaVuSans-32"/>
      </g>
     </g>
    </g>
    <g id="xtick_4">
     <g id="line2d_4">
      <g>
       <use xlink:href="#m4dddb74221" x="570.6" y="640.8" style="stroke: #000000; stroke-width: 0.8"/>
      </g>
     </g>
     <g id="text_4">
      <!-- 3 -->
      <g transform="translate(567.41875 655.398438) scale(0.1 -0.1)">
       <defs>
        <path id="DejaVuSans-33" d="M 2597 2516 
Q 3050 2419 3304 2112 
Q 3559 1806 3559 1356 
Q 3559 666 3084 287 
Q 2609 -91 1734 -91 
Q 1441 -91 1130 -33 
Q 819 25 488 141 
L 488 750 
Q 750 597 1062 519 
Q 1375 441 1716 441 
Q 2309 441 2620 675 
Q 2931 909 2931 1356 
Q 2931 1769 2642 2001 
Q 2353 2234 1838 2234 
L 1294 2234 
L 1294 2753 
L 1863 2753 
Q 2328 2753 2575 2939 
Q 2822 3125 2822 3475 
Q 2822 3834 2567 4026 
Q 2313 4219 1838 4219 
Q 1578 4219 1281 4162 
Q 984 4106 628 3988 
L 628 4550 
Q 988 4650 1302 4700 
Q 1616 4750 1894 4750 
Q 2613 4750 3031 4423 
Q 3450 4097 3450 3541 
Q 3450 3153 3228 2886 
Q 3006 2619 2597 2516 
z
" transform="scale(0.015625)"/>
       </defs>
       <use xlink:href="#DejaVuSans-33"/>
      </g>
     </g>
    </g>
    <g id="xtick_5">
     <g id="line2d_5">
      <g>
       <use xlink:href="#m4dddb74221" x="682.2" y="640.8" style="stroke: #000000; stroke-width: 0.8"/>
      </g>
     </g>
     <g id="text_5">
      <!-- 4 -->
      <g transform="translate(679.01875 655.398438) scale(0.1 -0.1)">
       <defs>
        <path id="DejaVuSans-34" d="M 2419 4116 
L 825 1625 
L 2419 1625 
L 2419 4116 
z
M 2253 4666 
L 3047 4666 
L 3047 1625 
L 3713 1625 
L 3713 1100 
L 3047 1100 
L 3047 0 
L 2419 0 
L 2419 1100 
L 313 1100 
L 313 1709 
L 2253 4666 
z
" transform="scale(0.015625)"/>
       </defs>
       <use xlink:href="#DejaVuSans-34"/>
      </g>
     </g>
    </g>
    <g id="xtick_6">
     <g id="line2d_6">
      <g>
       <use xlink:href="#m4dddb74221" x="793.8" y="640.8" style="stroke: #000000; stroke-width: 0.8"/>
      </g>
     </g>
     <g id="text_6">
      <!-- 5 -->
      <g transform="translate(790.61875 655.398438) scale(0.1 -0.1)">
       <defs>
        <path id="DejaVuSans-35" d="M 691 4666 
L 3169 4666 
L 3169 4134 
L 1269 4134 
L 1269 2991 
Q 1406 3038 1543 3061 
Q 1681 3084 1819 3084 
Q 2600 3084 3056 2656 
Q 3513 2228 3513 1497 
Q 3513 744 3044 326 
Q 2575 -91 1722 -91 
Q 1428 -91 1123 -41 
Q 819 9 494 109 
L 494 744 
Q 775 591 1075 516 
Q 1375 441 1709 441 
Q 2250 441 2565 725 
Q 2881 1009 2881 1497 
Q 2881 1984 2565 2268 
Q 2250 2553 1709 2553 
Q 1456 2553 1204 2497 
Q 953 2441 691 2322 
L 691 4666 
z
" transform="scale(0.015625)"/>
       </defs>
       <use xlink:href="#DejaVuSans-35"/>
      </g>
     </g>
    </g>
    <g id="xtick_7">
     <g id="line2d_7">
      <g>
       <use xlink:href="#m4dddb74221" x="905.4" y="640.8" style="stroke: #000000; stroke-width: 0.8"/>
      </g>
     </g>
     <g id="text_7">
      <!-- 6 -->
      <g transform="translate(902.21875 655.398438) scale(0.1 -0.1)">
       <defs>
        <path id="DejaVuSans-36" d="M 2113 2584 
Q 1688 2584 1439 2293 
Q 1191 2003 1191 1497 
Q 1191 994 1439 701 
Q 1688 409 2113 409 
Q 2538 409 2786 701 
Q 3034 994 3034 1497 
Q 3034 2003 2786 2293 
Q 2538 2584 2113 2584 
z
M 3366 4563 
L 3366 3988 
Q 3128 4100 2886 4159 
Q 2644 4219 2406 4219 
Q 1781 4219 1451 3797 
Q 1122 3375 1075 2522 
Q 1259 2794 1537 2939 
Q 1816 3084 2150 3084 
Q 2853 3084 3261 2657 
Q 3669 2231 3669 1497 
Q 3669 778 3244 343 
Q 2819 -91 2113 -91 
Q 1303 -91 875 529 
Q 447 1150 447 2328 
Q 447 3434 972 4092 
Q 1497 4750 2381 4750 
Q 2619 4750 2861 4703 
Q 3103 4656 3366 4563 
z
" transform="scale(0.015625)"/>
       </defs>
       <use xlink:href="#DejaVuSans-36"/>
      </g>
     </g>
    </g>
    <g id="xtick_8">
     <g id="line2d_8">
      <g>
       <use xlink:href="#m4dddb74221" x="1017" y="640.8" style="stroke: #000000; stroke-width: 0.8"/>
      </g>
     </g>
     <g id="text_8">
      <!-- 7 -->
      <g transform="translate(1013.81875 655.398438) scale(0.1 -0.1)">
       <defs>
        <path id="DejaVuSans-37" d="M 525 4666 
L 3525 4666 
L 3525 4397 
L 1831 0 
L 1172 0 
L 2766 4134 
L 525 4134 
L 525 4666 
z
" transform="scale(0.015625)"/>
       </defs>
       <use xlink:href="#DejaVuSans-37"/>
      </g>
     </g>
    </g>
    <g id="xtick_9">
     <g id="line2d_9">
      <g>
       <use xlink:href="#m4dddb74221" x="1128.6" y="640.8" style="stroke: #000000; stroke-width: 0.8"/>
      </g>
     </g>
     <g id="text_9">
      <!-- 8 -->
      <g transform="translate(1125.41875 655.398438) scale(0.1 -0.1)">
       <defs>
        <path id="DejaVuSans-38" d="M 2034 2216 
Q 1584 2216 1326 1975 
Q 1069 1734 1069 1313 
Q 1069 891 1326 650 
Q 1584 409 2034 409 
Q 2484 409 2743 651 
Q 3003 894 3003 1313 
Q 3003 1734 2745 1975 
Q 2488 2216 2034 2216 
z
M 1403 2484 
Q 997 2584 770 2862 
Q 544 3141 544 3541 
Q 544 4100 942 4425 
Q 1341 4750 2034 4750 
Q 2731 4750 3128 4425 
Q 3525 4100 3525 3541 
Q 3525 3141 3298 2862 
Q 3072 2584 2669 2484 
Q 3125 2378 3379 2068 
Q 3634 1759 3634 1313 
Q 3634 634 3220 271 
Q 2806 -91 2034 -91 
Q 1263 -91 848 271 
Q 434 634 434 1313 
Q 434 1759 690 2068 
Q 947 2378 1403 2484 
z
M 1172 3481 
Q 1172 3119 1398 2916 
Q 1625 2713 2034 2713 
Q 2441 2713 2670 2916 
Q 2900 3119 2900 3481 
Q 2900 3844 2670 4047 
Q 2441 4250 2034 4250 
Q 1625 4250 1398 4047 
Q 1172 3844 1172 3481 
z
" transform="scale(0.015625)"/>
       </defs>
       <use xlink:href="#DejaVuSans-38"/>
      </g>
     </g>
    </g>
    <g id="xtick_10">
     <g id="line2d_10">
      <g>
       <use xlink:href="#m4dddb74221" x="1240.2" y="640.8" style="stroke: #000000; stroke-width: 0.8"/>
      </g>
     </g>
     <g id="text_10">
      <!-- 9 -->
      <g transform="translate(1237.01875 655.398438) scale(0.1 -0.1)">
       <defs>
        <path id="DejaVuSans-39" d="M 703 97 
L 703 672 
Q 941 559 1184 500 
Q 1428 441 1663 441 
Q 2288 441 2617 861 
Q 2947 1281 2994 2138 
Q 2813 1869 2534 1725 
Q 2256 1581 1919 1581 
Q 1219 1581 811 2004 
Q 403 2428 403 3163 
Q 403 3881 828 4315 
Q 1253 4750 1959 4750 
Q 2769 4750 3195 4129 
Q 3622 3509 3622 2328 
Q 3622 1225 3098 567 
Q 2575 -91 1691 -91 
Q 1453 -91 1209 -44 
Q 966 3 703 97 
z
M 1959 2075 
Q 2384 2075 2632 2365 
Q 2881 2656 2881 3163 
Q 2881 3666 2632 3958 
Q 2384 4250 1959 4250 
Q 1534 4250 1286 3958 
Q 1038 3666 1038 3163 
Q 1038 2656 1286 2365 
Q 1534 2075 1959 2075 
z
" transform="scale(0.015625)"/>
       </defs>
       <use xlink:href="#DejaVuSans-39"/>
      </g>
     </g>
    </g>
    <g id="text_11">
     <!-- iteration -->
     <g transform="translate(716.877344 669.076563) scale(0.1 -0.1)">
      <defs>
       <path id="DejaVuSans-69" d="M 603 3500 
L 1178 3500 
L 1178 0 
L 603 0 
L 603 3500 
z
M 603 4863 
L 1178 4863 
L 1178 4134 
L 603 4134 
L 603 4863 
z
" transform="scale(0.015625)"/>
       <path id="DejaVuSans-74" d="M 1172 4494 
L 1172 3500 
L 2356 3500 
L 2356 3053 
L 1172 3053 
L 1172 1153 
Q 1172 725 1289 603 
Q 1406 481 1766 481 
L 2356 481 
L 2356 0 
L 1766 0 
Q 1100 0 847 248 
Q 594 497 594 1153 
L 594 3053 
L 172 3053 
L 172 3500 
L 594 3500 
L 594 4494 
L 1172 4494 
z
" transform="scale(0.015625)"/>
       <path id="DejaVuSans-65" d="M 3597 1894 
L 3597 1613 
L 953 1613 
Q 991 1019 1311 708 
Q 1631 397 2203 397 
Q 2534 397 2845 478 
Q 3156 559 3463 722 
L 3463 178 
Q 3153 47 2828 -22 
Q 2503 -91 2169 -91 
Q 1331 -91 842 396 
Q 353 884 353 1716 
Q 353 2575 817 3079 
Q 1281 3584 2069 3584 
Q 2775 3584 3186 3129 
Q 3597 2675 3597 1894 
z
M 3022 2063 
Q 3016 2534 2758 2815 
Q 2500 3097 2075 3097 
Q 1594 3097 1305 2825 
Q 1016 2553 972 2059 
L 3022 2063 
z
" transform="scale(0.015625)"/>
       <path id="DejaVuSans-72" d="M 2631 2963 
Q 2534 3019 2420 3045 
Q 2306 3072 2169 3072 
Q 1681 3072 1420 2755 
Q 1159 2438 1159 1844 
L 1159 0 
L 581 0 
L 581 3500 
L 1159 3500 
L 1159 2956 
Q 1341 3275 1631 3429 
Q 1922 3584 2338 3584 
Q 2397 3584 2469 3576 
Q 2541 3569 2628 3553 
L 2631 2963 
z
" transform="scale(0.015625)"/>
       <path id="DejaVuSans-61" d="M 2194 1759 
Q 1497 1759 1228 1600 
Q 959 1441 959 1056 
Q 959 750 1161 570 
Q 1363 391 1709 391 
Q 2188 391 2477 730 
Q 2766 1069 2766 1631 
L 2766 1759 
L 2194 1759 
z
M 3341 1997 
L 3341 0 
L 2766 0 
L 2766 531 
Q 2569 213 2275 61 
Q 1981 -91 1556 -91 
Q 1019 -91 701 211 
Q 384 513 384 1019 
Q 384 1609 779 1909 
Q 1175 2209 1959 2209 
L 2766 2209 
L 2766 2266 
Q 2766 2663 2505 2880 
Q 2244 3097 1772 3097 
Q 1472 3097 1187 3025 
Q 903 2953 641 2809 
L 641 3341 
Q 956 3463 1253 3523 
Q 1550 3584 1831 3584 
Q 2591 3584 2966 3190 
Q 3341 2797 3341 1997 
z
" transform="scale(0.015625)"/>
       <path id="DejaVuSans-6f" d="M 1959 3097 
Q 1497 3097 1228 2736 
Q 959 2375 959 1747 
Q 959 1119 1226 758 
Q 1494 397 1959 397 
Q 2419 397 2687 759 
Q 2956 1122 2956 1747 
Q 2956 2369 2687 2733 
Q 2419 3097 1959 3097 
z
M 1959 3584 
Q 2709 3584 3137 3096 
Q 3566 2609 3566 1747 
Q 3566 888 3137 398 
Q 2709 -91 1959 -91 
Q 1206 -91 779 398 
Q 353 888 353 1747 
Q 353 2609 779 3096 
Q 1206 3584 1959 3584 
z
" transform="scale(0.015625)"/>
       <path id="DejaVuSans-6e" d="M 3513 2113 
L 3513 0 
L 2938 0 
L 2938 2094 
Q 2938 2591 2744 2837 
Q 2550 3084 2163 3084 
Q 1697 3084 1428 2787 
Q 1159 2491 1159 1978 
L 1159 0 
L 581 0 
L 581 3500 
L 1159 3500 
L 1159 2956 
Q 1366 3272 1645 3428 
Q 1925 3584 2291 3584 
Q 2894 3584 3203 3211 
Q 3513 2838 3513 2113 
z
" transform="scale(0.015625)"/>
      </defs>
      <use xlink:href="#DejaVuSans-69"/>
      <use xlink:href="#DejaVuSans-74" x="27.783203"/>
      <use xlink:href="#DejaVuSans-65" x="66.992188"/>
      <use xlink:href="#DejaVuSans-72" x="128.515625"/>
      <use xlink:href="#DejaVuSans-61" x="169.628906"/>
      <use xlink:href="#DejaVuSans-74" x="230.908203"/>
      <use xlink:href="#DejaVuSans-69" x="270.117188"/>
      <use xlink:href="#DejaVuSans-6f" x="297.900391"/>
      <use xlink:href="#DejaVuSans-6e" x="359.082031"/>
     </g>
    </g>
   </g>
   <g id="matplotlib.axis_2">
    <g id="ytick_1">
     <g id="line2d_11">
      <defs>
       <path id="m7ea38ef058" d="M 0 0 
L -3.5 0 
" style="stroke: #000000; stroke-width: 0.8"/>
      </defs>
      <g>
       <use xlink:href="#m7ea38ef058" x="180" y="602.889403" style="stroke: #000000; stroke-width: 0.8"/>
      </g>
     </g>
     <g id="text_12">
      <!-- 0.2 -->
      <g transform="translate(148.717187 606.688622) scale(0.1 -0.1)">
       <defs>
        <path id="DejaVuSans-2212" d="M 678 2272 
L 4684 2272 
L 4684 1741 
L 678 1741 
L 678 2272 
z
" transform="scale(0.015625)"/>
        <path id="DejaVuSans-2e" d="M 684 794 
L 1344 794 
L 1344 0 
L 684 0 
L 684 794 
z
" transform="scale(0.015625)"/>
       </defs>
       <use xlink:href="#DejaVuSans-2212"/>
       <use xlink:href="#DejaVuSans-30" x="83.789062"/>
       <use xlink:href="#DejaVuSans-2e" x="147.412109"/>
       <use xlink:href="#DejaVuSans-32" x="179.199219"/>
      </g>
     </g>
    </g>
    <g id="ytick_2">
     <g id="line2d_12">
      <g>
       <use xlink:href="#m7ea38ef058" x="180" y="528.785902" style="stroke: #000000; stroke-width: 0.8"/>
      </g>
     </g>
     <g id="text_13">
      <!-- 0.0 -->
      <g transform="translate(157.096875 532.585121) scale(0.1 -0.1)">
       <use xlink:href="#DejaVuSans-30"/>
       <use xlink:href="#DejaVuSans-2e" x="63.623047"/>
       <use xlink:href="#DejaVuSans-30" x="95.410156"/>
      </g>
     </g>
    </g>
    <g id="ytick_3">
     <g id="line2d_13">
      <g>
       <use xlink:href="#m7ea38ef058" x="180" y="454.682401" style="stroke: #000000; stroke-width: 0.8"/>
      </g>
     </g>
     <g id="text_14">
      <!-- 0.2 -->
      <g transform="translate(157.096875 458.48162) scale(0.1 -0.1)">
       <use xlink:href="#DejaVuSans-30"/>
       <use xlink:href="#DejaVuSans-2e" x="63.623047"/>
       <use xlink:href="#DejaVuSans-32" x="95.410156"/>
      </g>
     </g>
    </g>
    <g id="ytick_4">
     <g id="line2d_14">
      <g>
       <use xlink:href="#m7ea38ef058" x="180" y="380.5789" style="stroke: #000000; stroke-width: 0.8"/>
      </g>
     </g>
     <g id="text_15">
      <!-- 0.4 -->
      <g transform="translate(157.096875 384.378119) scale(0.1 -0.1)">
       <use xlink:href="#DejaVuSans-30"/>
       <use xlink:href="#DejaVuSans-2e" x="63.623047"/>
       <use xlink:href="#DejaVuSans-34" x="95.410156"/>
      </g>
     </g>
    </g>
    <g id="ytick_5">
     <g id="line2d_15">
      <g>
       <use xlink:href="#m7ea38ef058" x="180" y="306.475399" style="stroke: #000000; stroke-width: 0.8"/>
      </g>
     </g>
     <g id="text_16">
      <!-- 0.6 -->
      <g transform="translate(157.096875 310.274618) scale(0.1 -0.1)">
       <use xlink:href="#DejaVuSans-30"/>
       <use xlink:href="#DejaVuSans-2e" x="63.623047"/>
       <use xlink:href="#DejaVuSans-36" x="95.410156"/>
      </g>
     </g>
    </g>
    <g id="ytick_6">
     <g id="line2d_16">
      <g>
       <use xlink:href="#m7ea38ef058" x="180" y="232.371898" style="stroke: #000000; stroke-width: 0.8"/>
      </g>
     </g>
     <g id="text_17">
      <!-- 0.8 -->
      <g transform="translate(157.096875 236.171117) scale(0.1 -0.1)">
       <use xlink:href="#DejaVuSans-30"/>
       <use xlink:href="#DejaVuSans-2e" x="63.623047"/>
       <use xlink:href="#DejaVuSans-38" x="95.410156"/>
      </g>
     </g>
    </g>
    <g id="ytick_7">
     <g id="line2d_17">
      <g>
       <use xlink:href="#m7ea38ef058" x="180" y="158.268398" style="stroke: #000000; stroke-width: 0.8"/>
      </g>
     </g>
     <g id="text_18">
      <!-- 1.0 -->
      <g transform="translate(157.096875 162.067616) scale(0.1 -0.1)">
       <use xlink:href="#DejaVuSans-31"/>
       <use xlink:href="#DejaVuSans-2e" x="63.623047"/>
       <use xlink:href="#DejaVuSans-30" x="95.410156"/>
      </g>
     </g>
    </g>
    <g id="text_19">
     <!-- cosine similarity -->
     <g transform="translate(142.6375 404.307031) rotate(-90) scale(0.1 -0.1)">
      <defs>
       <path id="DejaVuSans-63" d="M 3122 3366 
L 3122 2828 
Q 2878 2963 2633 3030 
Q 2388 3097 2138 3097 
Q 1578 3097 1268 2742 
Q 959 2388 959 1747 
Q 959 1106 1268 751 
Q 1578 397 2138 397 
Q 2388 397 2633 464 
Q 2878 531 3122 666 
L 3122 134 
Q 2881 22 2623 -34 
Q 2366 -91 2075 -91 
Q 1284 -91 818 406 
Q 353 903 353 1747 
Q 353 2603 823 3093 
Q 1294 3584 2113 3584 
Q 2378 3584 2631 3529 
Q 2884 3475 3122 3366 
z
" transform="scale(0.015625)"/>
       <path id="DejaVuSans-73" d="M 2834 3397 
L 2834 2853 
Q 2591 2978 2328 3040 
Q 2066 3103 1784 3103 
Q 1356 3103 1142 2972 
Q 928 2841 928 2578 
Q 928 2378 1081 2264 
Q 1234 2150 1697 2047 
L 1894 2003 
Q 2506 1872 2764 1633 
Q 3022 1394 3022 966 
Q 3022 478 2636 193 
Q 2250 -91 1575 -91 
Q 1294 -91 989 -36 
Q 684 19 347 128 
L 347 722 
Q 666 556 975 473 
Q 1284 391 1588 391 
Q 1994 391 2212 530 
Q 2431 669 2431 922 
Q 2431 1156 2273 1281 
Q 2116 1406 1581 1522 
L 1381 1569 
Q 847 1681 609 1914 
Q 372 2147 372 2553 
Q 372 3047 722 3315 
Q 1072 3584 1716 3584 
Q 2034 3584 2315 3537 
Q 2597 3491 2834 3397 
z
" transform="scale(0.015625)"/>
       <path id="DejaVuSans-20" transform="scale(0.015625)"/>
       <path id="DejaVuSans-6d" d="M 3328 2828 
Q 3544 3216 3844 3400 
Q 4144 3584 4550 3584 
Q 5097 3584 5394 3201 
Q 5691 2819 5691 2113 
L 5691 0 
L 5113 0 
L 5113 2094 
Q 5113 2597 4934 2840 
Q 4756 3084 4391 3084 
Q 3944 3084 3684 2787 
Q 3425 2491 3425 1978 
L 3425 0 
L 2847 0 
L 2847 2094 
Q 2847 2600 2669 2842 
Q 2491 3084 2119 3084 
Q 1678 3084 1418 2786 
Q 1159 2488 1159 1978 
L 1159 0 
L 581 0 
L 581 3500 
L 1159 3500 
L 1159 2956 
Q 1356 3278 1631 3431 
Q 1906 3584 2284 3584 
Q 2666 3584 2933 3390 
Q 3200 3197 3328 2828 
z
" transform="scale(0.015625)"/>
       <path id="DejaVuSans-6c" d="M 603 4863 
L 1178 4863 
L 1178 0 
L 603 0 
L 603 4863 
z
" transform="scale(0.015625)"/>
       <path id="DejaVuSans-79" d="M 2059 -325 
Q 1816 -950 1584 -1140 
Q 1353 -1331 966 -1331 
L 506 -1331 
L 506 -850 
L 844 -850 
Q 1081 -850 1212 -737 
Q 1344 -625 1503 -206 
L 1606 56 
L 191 3500 
L 800 3500 
L 1894 763 
L 2988 3500 
L 3597 3500 
L 2059 -325 
z
" transform="scale(0.015625)"/>
      </defs>
      <use xlink:href="#DejaVuSans-63"/>
      <use xlink:href="#DejaVuSans-6f" x="54.980469"/>
      <use xlink:href="#DejaVuSans-73" x="116.162109"/>
      <use xlink:href="#DejaVuSans-69" x="168.261719"/>
      <use xlink:href="#DejaVuSans-6e" x="196.044922"/>
      <use xlink:href="#DejaVuSans-65" x="259.423828"/>
      <use xlink:href="#DejaVuSans-20" x="320.947266"/>
      <use xlink:href="#DejaVuSans-73" x="352.734375"/>
      <use xlink:href="#DejaVuSans-69" x="404.833984"/>
      <use xlink:href="#DejaVuSans-6d" x="432.617188"/>
      <use xlink:href="#DejaVuSans-69" x="530.029297"/>
      <use xlink:href="#DejaVuSans-6c" x="557.8125"/>
      <use xlink:href="#DejaVuSans-61" x="585.595703"/>
      <use xlink:href="#DejaVuSans-72" x="646.875"/>
      <use xlink:href="#DejaVuSans-69" x="687.988281"/>
      <use xlink:href="#DejaVuSans-74" x="715.771484"/>
      <use xlink:href="#DejaVuSans-79" x="754.980469"/>
     </g>
    </g>
   </g>
   <g id="line2d_18">
    <path d="M 235.8 494.876682 
L 235.8 189.432302 
" clip-path="url(#p43e0581f5c)" style="fill: none; stroke: #3f3f3f; stroke-width: 1.875; stroke-linecap: square"/>
   </g>
   <g id="line2d_19">
    <path d="M 235.8 376.536785 
L 235.8 293.360213 
" clip-path="url(#p43e0581f5c)" style="fill: none; stroke: #3f3f3f; stroke-width: 5.625; stroke-linecap: square"/>
   </g>
   <g id="line2d_20">
    <path d="M 235.8 331.912381 
" clip-path="url(#p43e0581f5c)" style="fill: none; stroke: #3f3f3f; stroke-width: 1.5; stroke-linecap: square"/>
    <defs>
     <path id="mc66edc4cb7" d="M 2.34375 0 
L -2.34375 -0 
" style="stroke: #ffffff; stroke-width: 1.125"/>
    </defs>
    <g clip-path="url(#p43e0581f5c)">
     <use xlink:href="#mc66edc4cb7" x="235.8" y="331.912381" style="fill: #ffffff; stroke: #ffffff; stroke-width: 1.125"/>
    </g>
   </g>
   <g id="line2d_21">
    <path d="M 347.4 508.146519 
L 347.4 189.432302 
" clip-path="url(#p43e0581f5c)" style="fill: none; stroke: #3f3f3f; stroke-width: 1.875; stroke-linecap: square"/>
   </g>
   <g id="line2d_22">
    <path d="M 347.4 411.886415 
L 347.4 316.478191 
" clip-path="url(#p43e0581f5c)" style="fill: none; stroke: #3f3f3f; stroke-width: 5.625; stroke-linecap: square"/>
   </g>
   <g id="line2d_23">
    <path d="M 347.4 362.915443 
" clip-path="url(#p43e0581f5c)" style="fill: none; stroke: #3f3f3f; stroke-width: 1.5; stroke-linecap: square"/>
    <g clip-path="url(#p43e0581f5c)">
     <use xlink:href="#mc66edc4cb7" x="347.4" y="362.915443" style="fill: #ffffff; stroke: #ffffff; stroke-width: 1.125"/>
    </g>
   </g>
   <g id="line2d_24">
    <path d="M 459 529.649191 
L 459 209.385948 
" clip-path="url(#p43e0581f5c)" style="fill: none; stroke: #3f3f3f; stroke-width: 1.875; stroke-linecap: square"/>
   </g>
   <g id="line2d_25">
    <path d="M 459 429.641792 
L 459 324.154979 
" clip-path="url(#p43e0581f5c)" style="fill: none; stroke: #3f3f3f; stroke-width: 5.625; stroke-linecap: square"/>
   </g>
   <g id="line2d_26">
    <path d="M 459 376.917487 
" clip-path="url(#p43e0581f5c)" style="fill: none; stroke: #3f3f3f; stroke-width: 1.5; stroke-linecap: square"/>
    <g clip-path="url(#p43e0581f5c)">
     <use xlink:href="#mc66edc4cb7" x="459" y="376.917487" style="fill: #ffffff; stroke: #ffffff; stroke-width: 1.125"/>
    </g>
   </g>
   <g id="line2d_27">
    <path d="M 570.6 548.660627 
L 570.6 209.385948 
" clip-path="url(#p43e0581f5c)" style="fill: none; stroke: #3f3f3f; stroke-width: 1.875; stroke-linecap: square"/>
   </g>
   <g id="line2d_28">
    <path d="M 570.6 446.89055 
L 570.6 332.075464 
" clip-path="url(#p43e0581f5c)" style="fill: none; stroke: #3f3f3f; stroke-width: 5.625; stroke-linecap: square"/>
   </g>
   <g id="line2d_29">
    <path d="M 570.6 386.08315 
" clip-path="url(#p43e0581f5c)" style="fill: none; stroke: #3f3f3f; stroke-width: 1.5; stroke-linecap: square"/>
    <g clip-path="url(#p43e0581f5c)">
     <use xlink:href="#mc66edc4cb7" x="570.6" y="386.08315" style="fill: #ffffff; stroke: #ffffff; stroke-width: 1.125"/>
    </g>
   </g>
   <g id="line2d_30">
    <path d="M 682.2 549.782359 
L 682.2 209.385948 
" clip-path="url(#p43e0581f5c)" style="fill: none; stroke: #3f3f3f; stroke-width: 1.875; stroke-linecap: square"/>
   </g>
   <g id="line2d_31">
    <path d="M 682.2 453.169387 
L 682.2 342.061541 
" clip-path="url(#p43e0581f5c)" style="fill: none; stroke: #3f3f3f; stroke-width: 5.625; stroke-linecap: square"/>
   </g>
   <g id="line2d_32">
    <path d="M 682.2 394.265288 
" clip-path="url(#p43e0581f5c)" style="fill: none; stroke: #3f3f3f; stroke-width: 1.5; stroke-linecap: square"/>
    <g clip-path="url(#p43e0581f5c)">
     <use xlink:href="#mc66edc4cb7" x="682.2" y="394.265288" style="fill: #ffffff; stroke: #ffffff; stroke-width: 1.125"/>
    </g>
   </g>
   <g id="line2d_33">
    <path d="M 793.8 549.782359 
L 793.8 209.385948 
" clip-path="url(#p43e0581f5c)" style="fill: none; stroke: #3f3f3f; stroke-width: 1.875; stroke-linecap: square"/>
   </g>
   <g id="line2d_34">
    <path d="M 793.8 456.015684 
L 793.8 343.917743 
" clip-path="url(#p43e0581f5c)" style="fill: none; stroke: #3f3f3f; stroke-width: 5.625; stroke-linecap: square"/>
   </g>
   <g id="line2d_35">
    <path d="M 793.8 399.998501 
" clip-path="url(#p43e0581f5c)" style="fill: none; stroke: #3f3f3f; stroke-width: 1.5; stroke-linecap: square"/>
    <g clip-path="url(#p43e0581f5c)">
     <use xlink:href="#mc66edc4cb7" x="793.8" y="399.998501" style="fill: #ffffff; stroke: #ffffff; stroke-width: 1.125"/>
    </g>
   </g>
   <g id="line2d_36">
    <path d="M 905.4 549.782359 
L 905.4 209.385948 
" clip-path="url(#p43e0581f5c)" style="fill: none; stroke: #3f3f3f; stroke-width: 1.875; stroke-linecap: square"/>
   </g>
   <g id="line2d_37">
    <path d="M 905.4 462.674348 
L 905.4 347.284231 
" clip-path="url(#p43e0581f5c)" style="fill: none; stroke: #3f3f3f; stroke-width: 5.625; stroke-linecap: square"/>
   </g>
   <g id="line2d_38">
    <path d="M 905.4 402.582975 
" clip-path="url(#p43e0581f5c)" style="fill: none; stroke: #3f3f3f; stroke-width: 1.5; stroke-linecap: square"/>
    <g clip-path="url(#p43e0581f5c)">
     <use xlink:href="#mc66edc4cb7" x="905.4" y="402.582975" style="fill: #ffffff; stroke: #ffffff; stroke-width: 1.125"/>
    </g>
   </g>
   <g id="line2d_39">
    <path d="M 1017 567.91048 
L 1017 209.385948 
" clip-path="url(#p43e0581f5c)" style="fill: none; stroke: #3f3f3f; stroke-width: 1.875; stroke-linecap: square"/>
   </g>
   <g id="line2d_40">
    <path d="M 1017 463.337589 
L 1017 355.410169 
" clip-path="url(#p43e0581f5c)" style="fill: none; stroke: #3f3f3f; stroke-width: 5.625; stroke-linecap: square"/>
   </g>
   <g id="line2d_41">
    <path d="M 1017 405.21291 
" clip-path="url(#p43e0581f5c)" style="fill: none; stroke: #3f3f3f; stroke-width: 1.5; stroke-linecap: square"/>
    <g clip-path="url(#p43e0581f5c)">
     <use xlink:href="#mc66edc4cb7" x="1017" y="405.21291" style="fill: #ffffff; stroke: #ffffff; stroke-width: 1.125"/>
    </g>
   </g>
   <g id="line2d_42">
    <path d="M 1128.6 569.975508 
L 1128.6 209.385948 
" clip-path="url(#p43e0581f5c)" style="fill: none; stroke: #3f3f3f; stroke-width: 1.875; stroke-linecap: square"/>
   </g>
   <g id="line2d_43">
    <path d="M 1128.6 467.45067 
L 1128.6 355.410169 
" clip-path="url(#p43e0581f5c)" style="fill: none; stroke: #3f3f3f; stroke-width: 5.625; stroke-linecap: square"/>
   </g>
   <g id="line2d_44">
    <path d="M 1128.6 409.332852 
" clip-path="url(#p43e0581f5c)" style="fill: none; stroke: #3f3f3f; stroke-width: 1.5; stroke-linecap: square"/>
    <g clip-path="url(#p43e0581f5c)">
     <use xlink:href="#mc66edc4cb7" x="1128.6" y="409.332852" style="fill: #ffffff; stroke: #ffffff; stroke-width: 1.125"/>
    </g>
   </g>
   <g id="line2d_45">
    <path d="M 1240.2 569.975508 
L 1240.2 209.385948 
" clip-path="url(#p43e0581f5c)" style="fill: none; stroke: #3f3f3f; stroke-width: 1.875; stroke-linecap: square"/>
   </g>
   <g id="line2d_46">
    <path d="M 1240.2 468.009579 
L 1240.2 356.246468 
" clip-path="url(#p43e0581f5c)" style="fill: none; stroke: #3f3f3f; stroke-width: 5.625; stroke-linecap: square"/>
   </g>
   <g id="line2d_47">
    <path d="M 1240.2 410.849813 
" clip-path="url(#p43e0581f5c)" style="fill: none; stroke: #3f3f3f; stroke-width: 1.5; stroke-linecap: square"/>
    <g clip-path="url(#p43e0581f5c)">
     <use xlink:href="#mc66edc4cb7" x="1240.2" y="410.849813" style="fill: #ffffff; stroke: #ffffff; stroke-width: 1.125"/>
    </g>
   </g>
   <g id="patch_3">
    <path d="M 180 640.8 
L 180 86.4 
" style="fill: none; stroke: #000000; stroke-width: 0.8; stroke-linejoin: miter; stroke-linecap: square"/>
   </g>
   <g id="patch_4">
    <path d="M 1296 640.8 
L 1296 86.4 
" style="fill: none; stroke: #000000; stroke-width: 0.8; stroke-linejoin: miter; stroke-linecap: square"/>
   </g>
   <g id="patch_5">
    <path d="M 180 640.8 
L 1296 640.8 
" style="fill: none; stroke: #000000; stroke-width: 0.8; stroke-linejoin: miter; stroke-linecap: square"/>
   </g>
   <g id="patch_6">
    <path d="M 180 86.4 
L 1296 86.4 
" style="fill: none; stroke: #000000; stroke-width: 0.8; stroke-linejoin: miter; stroke-linecap: square"/>
   </g>
   <g id="text_20">
    <!-- cosine similarity of max_mem_5_fs_glit (distanceFromInitialPrompt), by iteration -->
    <g transform="translate(497.123438 80.4) scale(0.12 -0.12)">
     <defs>
      <path id="DejaVuSans-66" d="M 2375 4863 
L 2375 4384 
L 1825 4384 
Q 1516 4384 1395 4259 
Q 1275 4134 1275 3809 
L 1275 3500 
L 2222 3500 
L 2222 3053 
L 1275 3053 
L 1275 0 
L 697 0 
L 697 3053 
L 147 3053 
L 147 3500 
L 697 3500 
L 697 3744 
Q 697 4328 969 4595 
Q 1241 4863 1831 4863 
L 2375 4863 
z
" transform="scale(0.015625)"/>
      <path id="DejaVuSans-78" d="M 3513 3500 
L 2247 1797 
L 3578 0 
L 2900 0 
L 1881 1375 
L 863 0 
L 184 0 
L 1544 1831 
L 300 3500 
L 978 3500 
L 1906 2253 
L 2834 3500 
L 3513 3500 
z
" transform="scale(0.015625)"/>
      <path id="DejaVuSans-5f" d="M 3263 -1063 
L 3263 -1509 
L -63 -1509 
L -63 -1063 
L 3263 -1063 
z
" transform="scale(0.015625)"/>
      <path id="DejaVuSans-67" d="M 2906 1791 
Q 2906 2416 2648 2759 
Q 2391 3103 1925 3103 
Q 1463 3103 1205 2759 
Q 947 2416 947 1791 
Q 947 1169 1205 825 
Q 1463 481 1925 481 
Q 2391 481 2648 825 
Q 2906 1169 2906 1791 
z
M 3481 434 
Q 3481 -459 3084 -895 
Q 2688 -1331 1869 -1331 
Q 1566 -1331 1297 -1286 
Q 1028 -1241 775 -1147 
L 775 -588 
Q 1028 -725 1275 -790 
Q 1522 -856 1778 -856 
Q 2344 -856 2625 -561 
Q 2906 -266 2906 331 
L 2906 616 
Q 2728 306 2450 153 
Q 2172 0 1784 0 
Q 1141 0 747 490 
Q 353 981 353 1791 
Q 353 2603 747 3093 
Q 1141 3584 1784 3584 
Q 2172 3584 2450 3431 
Q 2728 3278 2906 2969 
L 2906 3500 
L 3481 3500 
L 3481 434 
z
" transform="scale(0.015625)"/>
      <path id="DejaVuSans-28" d="M 1984 4856 
Q 1566 4138 1362 3434 
Q 1159 2731 1159 2009 
Q 1159 1288 1364 580 
Q 1569 -128 1984 -844 
L 1484 -844 
Q 1016 -109 783 600 
Q 550 1309 550 2009 
Q 550 2706 781 3412 
Q 1013 4119 1484 4856 
L 1984 4856 
z
" transform="scale(0.015625)"/>
      <path id="DejaVuSans-64" d="M 2906 2969 
L 2906 4863 
L 3481 4863 
L 3481 0 
L 2906 0 
L 2906 525 
Q 2725 213 2448 61 
Q 2172 -91 1784 -91 
Q 1150 -91 751 415 
Q 353 922 353 1747 
Q 353 2572 751 3078 
Q 1150 3584 1784 3584 
Q 2172 3584 2448 3432 
Q 2725 3281 2906 2969 
z
M 947 1747 
Q 947 1113 1208 752 
Q 1469 391 1925 391 
Q 2381 391 2643 752 
Q 2906 1113 2906 1747 
Q 2906 2381 2643 2742 
Q 2381 3103 1925 3103 
Q 1469 3103 1208 2742 
Q 947 2381 947 1747 
z
" transform="scale(0.015625)"/>
      <path id="DejaVuSans-46" d="M 628 4666 
L 3309 4666 
L 3309 4134 
L 1259 4134 
L 1259 2759 
L 3109 2759 
L 3109 2228 
L 1259 2228 
L 1259 0 
L 628 0 
L 628 4666 
z
" transform="scale(0.015625)"/>
      <path id="DejaVuSans-49" d="M 628 4666 
L 1259 4666 
L 1259 0 
L 628 0 
L 628 4666 
z
" transform="scale(0.015625)"/>
      <path id="DejaVuSans-50" d="M 1259 4147 
L 1259 2394 
L 2053 2394 
Q 2494 2394 2734 2622 
Q 2975 2850 2975 3272 
Q 2975 3691 2734 3919 
Q 2494 4147 2053 4147 
L 1259 4147 
z
M 628 4666 
L 2053 4666 
Q 2838 4666 3239 4311 
Q 3641 3956 3641 3272 
Q 3641 2581 3239 2228 
Q 2838 1875 2053 1875 
L 1259 1875 
L 1259 0 
L 628 0 
L 628 4666 
z
" transform="scale(0.015625)"/>
      <path id="DejaVuSans-70" d="M 1159 525 
L 1159 -1331 
L 581 -1331 
L 581 3500 
L 1159 3500 
L 1159 2969 
Q 1341 3281 1617 3432 
Q 1894 3584 2278 3584 
Q 2916 3584 3314 3078 
Q 3713 2572 3713 1747 
Q 3713 922 3314 415 
Q 2916 -91 2278 -91 
Q 1894 -91 1617 61 
Q 1341 213 1159 525 
z
M 3116 1747 
Q 3116 2381 2855 2742 
Q 2594 3103 2138 3103 
Q 1681 3103 1420 2742 
Q 1159 2381 1159 1747 
Q 1159 1113 1420 752 
Q 1681 391 2138 391 
Q 2594 391 2855 752 
Q 3116 1113 3116 1747 
z
" transform="scale(0.015625)"/>
      <path id="DejaVuSans-29" d="M 513 4856 
L 1013 4856 
Q 1481 4119 1714 3412 
Q 1947 2706 1947 2009 
Q 1947 1309 1714 600 
Q 1481 -109 1013 -844 
L 513 -844 
Q 928 -128 1133 580 
Q 1338 1288 1338 2009 
Q 1338 2731 1133 3434 
Q 928 4138 513 4856 
z
" transform="scale(0.015625)"/>
      <path id="DejaVuSans-2c" d="M 750 794 
L 1409 794 
L 1409 256 
L 897 -744 
L 494 -744 
L 750 256 
L 750 794 
z
" transform="scale(0.015625)"/>
      <path id="DejaVuSans-62" d="M 3116 1747 
Q 3116 2381 2855 2742 
Q 2594 3103 2138 3103 
Q 1681 3103 1420 2742 
Q 1159 2381 1159 1747 
Q 1159 1113 1420 752 
Q 1681 391 2138 391 
Q 2594 391 2855 752 
Q 3116 1113 3116 1747 
z
M 1159 2969 
Q 1341 3281 1617 3432 
Q 1894 3584 2278 3584 
Q 2916 3584 3314 3078 
Q 3713 2572 3713 1747 
Q 3713 922 3314 415 
Q 2916 -91 2278 -91 
Q 1894 -91 1617 61 
Q 1341 213 1159 525 
L 1159 0 
L 581 0 
L 581 4863 
L 1159 4863 
L 1159 2969 
z
" transform="scale(0.015625)"/>
     </defs>
     <use xlink:href="#DejaVuSans-63"/>
     <use xlink:href="#DejaVuSans-6f" x="54.980469"/>
     <use xlink:href="#DejaVuSans-73" x="116.162109"/>
     <use xlink:href="#DejaVuSans-69" x="168.261719"/>
     <use xlink:href="#DejaVuSans-6e" x="196.044922"/>
     <use xlink:href="#DejaVuSans-65" x="259.423828"/>
     <use xlink:href="#DejaVuSans-20" x="320.947266"/>
     <use xlink:href="#DejaVuSans-73" x="352.734375"/>
     <use xlink:href="#DejaVuSans-69" x="404.833984"/>
     <use xlink:href="#DejaVuSans-6d" x="432.617188"/>
     <use xlink:href="#DejaVuSans-69" x="530.029297"/>
     <use xlink:href="#DejaVuSans-6c" x="557.8125"/>
     <use xlink:href="#DejaVuSans-61" x="585.595703"/>
     <use xlink:href="#DejaVuSans-72" x="646.875"/>
     <use xlink:href="#DejaVuSans-69" x="687.988281"/>
     <use xlink:href="#DejaVuSans-74" x="715.771484"/>
     <use xlink:href="#DejaVuSans-79" x="754.980469"/>
     <use xlink:href="#DejaVuSans-20" x="814.160156"/>
     <use xlink:href="#DejaVuSans-6f" x="845.947266"/>
     <use xlink:href="#DejaVuSans-66" x="907.128906"/>
     <use xlink:href="#DejaVuSans-20" x="942.333984"/>
     <use xlink:href="#DejaVuSans-6d" x="974.121094"/>
     <use xlink:href="#DejaVuSans-61" x="1071.533203"/>
     <use xlink:href="#DejaVuSans-78" x="1132.8125"/>
     <use xlink:href="#DejaVuSans-5f" x="1191.992188"/>
     <use xlink:href="#DejaVuSans-6d" x="1241.992188"/>
     <use xlink:href="#DejaVuSans-65" x="1339.404297"/>
     <use xlink:href="#DejaVuSans-6d" x="1400.927734"/>
     <use xlink:href="#DejaVuSans-5f" x="1498.339844"/>
     <use xlink:href="#DejaVuSans-35" x="1548.339844"/>
     <use xlink:href="#DejaVuSans-5f" x="1611.962891"/>
     <use xlink:href="#DejaVuSans-66" x="1661.962891"/>
     <use xlink:href="#DejaVuSans-73" x="1697.167969"/>
     <use xlink:href="#DejaVuSans-5f" x="1749.267578"/>
     <use xlink:href="#DejaVuSans-67" x="1799.267578"/>
     <use xlink:href="#DejaVuSans-6c" x="1862.744141"/>
     <use xlink:href="#DejaVuSans-69" x="1890.527344"/>
     <use xlink:href="#DejaVuSans-74" x="1918.310547"/>
     <use xlink:href="#DejaVuSans-20" x="1957.519531"/>
     <use xlink:href="#DejaVuSans-28" x="1989.306641"/>
     <use xlink:href="#DejaVuSans-64" x="2028.320312"/>
     <use xlink:href="#DejaVuSans-69" x="2091.796875"/>
     <use xlink:href="#DejaVuSans-73" x="2119.580078"/>
     <use xlink:href="#DejaVuSans-74" x="2171.679688"/>
     <use xlink:href="#DejaVuSans-61" x="2210.888672"/>
     <use xlink:href="#DejaVuSans-6e" x="2272.167969"/>
     <use xlink:href="#DejaVuSans-63" x="2335.546875"/>
     <use xlink:href="#DejaVuSans-65" x="2390.527344"/>
     <use xlink:href="#DejaVuSans-46" x="2452.050781"/>
     <use xlink:href="#DejaVuSans-72" x="2502.320312"/>
     <use xlink:href="#DejaVuSans-6f" x="2541.183594"/>
     <use xlink:href="#DejaVuSans-6d" x="2602.365234"/>
     <use xlink:href="#DejaVuSans-49" x="2699.777344"/>
     <use xlink:href="#DejaVuSans-6e" x="2729.269531"/>
     <use xlink:href="#DejaVuSans-69" x="2792.648438"/>
     <use xlink:href="#DejaVuSans-74" x="2820.431641"/>
     <use xlink:href="#DejaVuSans-69" x="2859.640625"/>
     <use xlink:href="#DejaVuSans-61" x="2887.423828"/>
     <use xlink:href="#DejaVuSans-6c" x="2948.703125"/>
     <use xlink:href="#DejaVuSans-50" x="2976.486328"/>
     <use xlink:href="#DejaVuSans-72" x="3035.039062"/>
     <use xlink:href="#DejaVuSans-6f" x="3073.902344"/>
     <use xlink:href="#DejaVuSans-6d" x="3135.083984"/>
     <use xlink:href="#DejaVuSans-70" x="3232.496094"/>
     <use xlink:href="#DejaVuSans-74" x="3295.972656"/>
     <use xlink:href="#DejaVuSans-29" x="3335.181641"/>
     <use xlink:href="#DejaVuSans-2c" x="3374.195312"/>
     <use xlink:href="#DejaVuSans-20" x="3405.982422"/>
     <use xlink:href="#DejaVuSans-62" x="3437.769531"/>
     <use xlink:href="#DejaVuSans-79" x="3501.246094"/>
     <use xlink:href="#DejaVuSans-20" x="3560.425781"/>
     <use xlink:href="#DejaVuSans-69" x="3592.212891"/>
     <use xlink:href="#DejaVuSans-74" x="3619.996094"/>
     <use xlink:href="#DejaVuSans-65" x="3659.205078"/>
     <use xlink:href="#DejaVuSans-72" x="3720.728516"/>
     <use xlink:href="#DejaVuSans-61" x="3761.841797"/>
     <use xlink:href="#DejaVuSans-74" x="3823.121094"/>
     <use xlink:href="#DejaVuSans-69" x="3862.330078"/>
     <use xlink:href="#DejaVuSans-6f" x="3890.113281"/>
     <use xlink:href="#DejaVuSans-6e" x="3951.294922"/>
    </g>
   </g>
  </g>
 </g>
 <defs>
  <clipPath id="p43e0581f5c">
   <rect x="180" y="86.4" width="1116" height="554.4"/>
  </clipPath>
 </defs>
</svg>
