<?xml version="1.0" encoding="utf-8" standalone="no"?>
<!DOCTYPE svg PUBLIC "-//W3C//DTD SVG 1.1//EN"
  "http://www.w3.org/Graphics/SVG/1.1/DTD/svg11.dtd">
<svg xmlns:xlink="http://www.w3.org/1999/xlink" width="1440pt" height="720pt" viewBox="0 0 1440 720" xmlns="http://www.w3.org/2000/svg" version="1.1">
 <metadata>
  <rdf:RDF xmlns:dc="http://purl.org/dc/elements/1.1/" xmlns:cc="http://creativecommons.org/ns#" xmlns:rdf="http://www.w3.org/1999/02/22-rdf-syntax-ns#">
   <cc:Work>
    <dc:type rdf:resource="http://purl.org/dc/dcmitype/StillImage"/>
    <dc:date>2024-07-06T18:26:43.944278</dc:date>
    <dc:format>image/svg+xml</dc:format>
    <dc:creator>
     <cc:Agent>
      <dc:title>Matplotlib v3.8.0, https://matplotlib.org/</dc:title>
     </cc:Agent>
    </dc:creator>
   </cc:Work>
  </rdf:RDF>
 </metadata>
 <defs>
  <style type="text/css">*{stroke-linejoin: round; stroke-linecap: butt}</style>
 </defs>
 <g id="figure_1">
  <g id="patch_1">
   <path d="M 0 720 
L 1440 720 
L 1440 0 
L 0 0 
z
" style="fill: #ffffff"/>
  </g>
  <g id="axes_1">
   <g id="patch_2">
    <path d="M 180 640.8 
L 1296 640.8 
L 1296 86.4 
L 180 86.4 
z
" style="fill: #ffffff"/>
   </g>
   <g id="PolyCollection_1">
    <defs>
     <path id="m8f677e3676" d="M 235.947917 -160.708509 
L 235.652083 -160.708509 
L 235.580551 -165.186877 
L 235.483736 -169.665245 
L 235.356926 -174.143613 
L 235.196072 -178.62198 
L 234.9983 -183.100348 
L 234.76231 -187.578716 
L 234.488565 -192.057084 
L 234.179183 -196.535452 
L 233.837523 -201.01382 
L 233.467504 -205.492188 
L 233.072811 -209.970555 
L 232.656133 -214.448923 
L 232.218643 -218.927291 
L 231.759816 -223.405659 
L 231.277657 -227.884027 
L 230.769274 -232.362395 
L 230.231653 -236.840762 
L 229.662473 -241.31913 
L 229.060746 -245.797498 
L 228.427155 -250.275866 
L 227.764009 -254.754234 
L 227.074791 -259.232602 
L 226.363394 -263.710969 
L 225.633144 -268.189337 
L 224.885803 -272.667705 
L 224.120753 -277.146073 
L 223.334558 -281.624441 
L 222.521056 -286.102809 
L 221.672037 -290.581176 
L 220.77841 -295.059544 
L 219.831626 -299.537912 
L 218.825002 -304.01628 
L 217.754637 -308.494648 
L 216.619678 -312.973016 
L 215.421973 -317.451383 
L 214.165337 -321.929751 
L 212.854863 -326.408119 
L 211.496681 -330.886487 
L 210.098424 -335.364855 
L 208.670335 -339.843223 
L 207.226673 -344.321591 
L 205.786811 -348.799958 
L 204.375498 -353.278326 
L 203.0219 -357.756694 
L 201.757445 -362.235062 
L 200.612883 -366.71343 
L 199.615213 -371.191798 
L 198.785226 -375.670165 
L 198.136233 -380.148533 
L 197.674177 -384.626901 
L 197.398972 -389.105269 
L 197.306548 -393.583637 
L 197.390939 -398.062005 
L 197.645823 -402.540372 
L 198.065146 -407.01874 
L 198.642785 -411.497108 
L 199.371535 -415.975476 
L 200.241851 -420.453844 
L 201.240843 -424.932212 
L 202.351899 -429.410579 
L 203.555146 -433.888947 
L 204.828731 -438.367315 
L 206.150759 -442.845683 
L 207.501568 -447.324051 
L 208.865929 -451.802419 
L 210.234719 -456.280786 
L 211.605622 -460.759154 
L 212.982547 -465.237522 
L 214.373654 -469.71589 
L 215.788205 -474.194258 
L 217.232796 -478.672626 
L 218.70773 -483.150994 
L 220.204384 -487.629361 
L 221.704258 -492.107729 
L 223.180002 -496.586097 
L 224.598318 -501.064465 
L 225.924177 -505.542833 
L 227.125538 -510.021201 
L 228.177708 -514.499568 
L 229.066611 -518.977936 
L 229.790519 -523.456304 
L 230.360082 -527.934672 
L 230.796778 -532.41304 
L 231.130096 -536.891408 
L 231.393856 -541.369775 
L 231.62216 -545.848143 
L 231.845494 -550.326511 
L 232.087474 -554.804879 
L 232.362705 -559.283247 
L 232.676008 -563.761615 
L 233.023119 -568.239982 
L 233.392644 -572.71835 
L 233.768866 -577.196718 
L 234.134818 -581.675086 
L 234.475074 -586.153454 
L 234.777791 -590.631822 
L 235.035791 -595.110189 
L 235.246667 -599.588557 
L 235.412124 -604.066925 
L 236.187876 -604.066925 
L 236.187876 -604.066925 
L 236.353333 -599.588557 
L 236.564209 -595.110189 
L 236.822209 -590.631822 
L 237.124926 -586.153454 
L 237.465182 -581.675086 
L 237.831134 -577.196718 
L 238.207356 -572.71835 
L 238.576881 -568.239982 
L 238.923992 -563.761615 
L 239.237295 -559.283247 
L 239.512526 -554.804879 
L 239.754506 -550.326511 
L 239.97784 -545.848143 
L 240.206144 -541.369775 
L 240.469904 -536.891408 
L 240.803222 -532.41304 
L 241.239918 -527.934672 
L 241.809481 -523.456304 
L 242.533389 -518.977936 
L 243.422292 -514.499568 
L 244.474462 -510.021201 
L 245.675823 -505.542833 
L 247.001682 -501.064465 
L 248.419998 -496.586097 
L 249.895742 -492.107729 
L 251.395616 -487.629361 
L 252.89227 -483.150994 
L 254.367204 -478.672626 
L 255.811795 -474.194258 
L 257.226346 -469.71589 
L 258.617453 -465.237522 
L 259.994378 -460.759154 
L 261.365281 -456.280786 
L 262.734071 -451.802419 
L 264.098432 -447.324051 
L 265.449241 -442.845683 
L 266.771269 -438.367315 
L 268.044854 -433.888947 
L 269.248101 -429.410579 
L 270.359157 -424.932212 
L 271.358149 -420.453844 
L 272.228465 -415.975476 
L 272.957215 -411.497108 
L 273.534854 -407.01874 
L 273.954177 -402.540372 
L 274.209061 -398.062005 
L 274.293452 -393.583637 
L 274.201028 -389.105269 
L 273.925823 -384.626901 
L 273.463767 -380.148533 
L 272.814774 -375.670165 
L 271.984787 -371.191798 
L 270.987117 -366.71343 
L 269.842555 -362.235062 
L 268.5781 -357.756694 
L 267.224502 -353.278326 
L 265.813189 -348.799958 
L 264.373327 -344.321591 
L 262.929665 -339.843223 
L 261.501576 -335.364855 
L 260.103319 -330.886487 
L 258.745137 -326.408119 
L 257.434663 -321.929751 
L 256.178027 -317.451383 
L 254.980322 -312.973016 
L 253.845363 -308.494648 
L 252.774998 -304.01628 
L 251.768374 -299.537912 
L 250.82159 -295.059544 
L 249.927963 -290.581176 
L 249.078944 -286.102809 
L 248.265442 -281.624441 
L 247.479247 -277.146073 
L 246.714197 -272.667705 
L 245.966856 -268.189337 
L 245.236606 -263.710969 
L 244.525209 -259.232602 
L 243.835991 -254.754234 
L 243.172845 -250.275866 
L 242.539254 -245.797498 
L 241.937527 -241.31913 
L 241.368347 -236.840762 
L 240.830726 -232.362395 
L 240.322343 -227.884027 
L 239.840184 -223.405659 
L 239.381357 -218.927291 
L 238.943867 -214.448923 
L 238.527189 -209.970555 
L 238.132496 -205.492188 
L 237.762477 -201.01382 
L 237.420817 -196.535452 
L 237.111435 -192.057084 
L 236.83769 -187.578716 
L 236.6017 -183.100348 
L 236.403928 -178.62198 
L 236.243074 -174.143613 
L 236.116264 -169.665245 
L 236.019449 -165.186877 
L 235.947917 -160.708509 
z
" style="stroke: #3f3f3f; stroke-width: 1.25"/>
    </defs>
    <g clip-path="url(#p2c600bcea0)">
     <use xlink:href="#m8f677e3676" x="0" y="720" style="fill: #3274a1; stroke: #3f3f3f; stroke-width: 1.25"/>
    </g>
   </g>
   <g id="PolyCollection_2">
    <defs>
     <path id="m00b67a31b4" d="M 347.478508 -109.329266 
L 347.321492 -109.329266 
L 347.283926 -114.370385 
L 347.233217 -119.411503 
L 347.166679 -124.452622 
L 347.08152 -129.49374 
L 346.974779 -134.534859 
L 346.84312 -139.575977 
L 346.68252 -144.617096 
L 346.487875 -149.658214 
L 346.252643 -154.699333 
L 345.968635 -159.740451 
L 345.626079 -164.78157 
L 345.214025 -169.822688 
L 344.72111 -174.863807 
L 344.136589 -179.904926 
L 343.4515 -184.946044 
L 342.659776 -189.987163 
L 341.759157 -195.028281 
L 340.751759 -200.0694 
L 339.644272 -205.110518 
L 338.447777 -210.151637 
L 337.177236 -215.192755 
L 335.850708 -220.233874 
L 334.488331 -225.274992 
L 333.111115 -230.316111 
L 331.73961 -235.357229 
L 330.392582 -240.398348 
L 329.085885 -245.439466 
L 327.831799 -250.480585 
L 326.639018 -255.521703 
L 325.513349 -260.562822 
L 324.458973 -265.60394 
L 323.479847 -270.645059 
L 322.58075 -275.686177 
L 321.767481 -280.727296 
L 321.045997 -285.768414 
L 320.42061 -290.809533 
L 319.891759 -295.850652 
L 319.454062 -300.89177 
L 319.09537 -305.932889 
L 318.797298 -310.974007 
L 318.537286 -316.015126 
L 318.291834 -321.056244 
L 318.040213 -326.097363 
L 317.767852 -331.138481 
L 317.468685 -336.1796 
L 317.146064 -341.220718 
L 316.812188 -346.261837 
L 316.486376 -351.302955 
L 316.192698 -356.344074 
L 315.957556 -361.385192 
L 315.807657 -366.426311 
L 315.768598 -371.467429 
L 315.864033 -376.508548 
L 316.115135 -381.549666 
L 316.540029 -386.590785 
L 317.152861 -391.631903 
L 317.962358 -396.673022 
L 318.969956 -401.714141 
L 320.167835 -406.755259 
L 321.537347 -411.796378 
L 323.048375 -416.837496 
L 324.660077 -421.878615 
L 326.323193 -426.919733 
L 327.983843 -431.960852 
L 329.588387 -437.00197 
L 331.08876 -442.043089 
L 332.447496 -447.084207 
L 333.64172 -452.125326 
L 334.665438 -457.166444 
L 335.529677 -462.207563 
L 336.260327 -467.248681 
L 336.893877 -472.2898 
L 337.471636 -477.330918 
L 338.033375 -482.372037 
L 338.611466 -487.413155 
L 339.22661 -492.454274 
L 339.885862 -497.495392 
L 340.58323 -502.536511 
L 341.302506 -507.57763 
L 342.02154 -512.618748 
L 342.716928 -517.659867 
L 343.368108 -522.700985 
L 343.960163 -527.742104 
L 344.485032 -532.783222 
L 344.94124 -537.824341 
L 345.332555 -542.865459 
L 345.666104 -547.906578 
L 345.950454 -552.947696 
L 346.194032 -557.988815 
L 346.404067 -563.029933 
L 346.586099 -568.071052 
L 346.743978 -573.11217 
L 346.880182 -578.153289 
L 346.996306 -583.194407 
L 347.093558 -588.235526 
L 347.173156 -593.276644 
L 347.236571 -598.317763 
L 347.285597 -603.358881 
L 347.322292 -608.4 
L 347.477708 -608.4 
L 347.477708 -608.4 
L 347.514403 -603.358881 
L 347.563429 -598.317763 
L 347.626844 -593.276644 
L 347.706442 -588.235526 
L 347.803694 -583.194407 
L 347.919818 -578.153289 
L 348.056022 -573.11217 
L 348.213901 -568.071052 
L 348.395933 -563.029933 
L 348.605968 -557.988815 
L 348.849546 -552.947696 
L 349.133896 -547.906578 
L 349.467445 -542.865459 
L 349.85876 -537.824341 
L 350.314968 -532.783222 
L 350.839837 -527.742104 
L 351.431892 -522.700985 
L 352.083072 -517.659867 
L 352.77846 -512.618748 
L 353.497494 -507.57763 
L 354.21677 -502.536511 
L 354.914138 -497.495392 
L 355.57339 -492.454274 
L 356.188534 -487.413155 
L 356.766625 -482.372037 
L 357.328364 -477.330918 
L 357.906123 -472.2898 
L 358.539673 -467.248681 
L 359.270323 -462.207563 
L 360.134562 -457.166444 
L 361.15828 -452.125326 
L 362.352504 -447.084207 
L 363.71124 -442.043089 
L 365.211613 -437.00197 
L 366.816157 -431.960852 
L 368.476807 -426.919733 
L 370.139923 -421.878615 
L 371.751625 -416.837496 
L 373.262653 -411.796378 
L 374.632165 -406.755259 
L 375.830044 -401.714141 
L 376.837642 -396.673022 
L 377.647139 -391.631903 
L 378.259971 -386.590785 
L 378.684865 -381.549666 
L 378.935967 -376.508548 
L 379.031402 -371.467429 
L 378.992343 -366.426311 
L 378.842444 -361.385192 
L 378.607302 -356.344074 
L 378.313624 -351.302955 
L 377.987812 -346.261837 
L 377.653936 -341.220718 
L 377.331315 -336.1796 
L 377.032148 -331.138481 
L 376.759787 -326.097363 
L 376.508166 -321.056244 
L 376.262714 -316.015126 
L 376.002702 -310.974007 
L 375.70463 -305.932889 
L 375.345938 -300.89177 
L 374.908241 -295.850652 
L 374.37939 -290.809533 
L 373.754003 -285.768414 
L 373.032519 -280.727296 
L 372.21925 -275.686177 
L 371.320153 -270.645059 
L 370.341027 -265.60394 
L 369.286651 -260.562822 
L 368.160982 -255.521703 
L 366.968201 -250.480585 
L 365.714115 -245.439466 
L 364.407418 -240.398348 
L 363.06039 -235.357229 
L 361.688885 -230.316111 
L 360.311669 -225.274992 
L 358.949292 -220.233874 
L 357.622764 -215.192755 
L 356.352223 -210.151637 
L 355.155728 -205.110518 
L 354.048241 -200.0694 
L 353.040843 -195.028281 
L 352.140224 -189.987163 
L 351.3485 -184.946044 
L 350.663411 -179.904926 
L 350.07889 -174.863807 
L 349.585975 -169.822688 
L 349.173921 -164.78157 
L 348.831365 -159.740451 
L 348.547357 -154.699333 
L 348.312125 -149.658214 
L 348.11748 -144.617096 
L 347.95688 -139.575977 
L 347.825221 -134.534859 
L 347.71848 -129.49374 
L 347.633321 -124.452622 
L 347.566783 -119.411503 
L 347.516074 -114.370385 
L 347.478508 -109.329266 
z
" style="stroke: #3f3f3f; stroke-width: 1.25"/>
    </defs>
    <g clip-path="url(#p2c600bcea0)">
     <use xlink:href="#m00b67a31b4" x="0" y="720" style="fill: #3274a1; stroke: #3f3f3f; stroke-width: 1.25"/>
    </g>
   </g>
   <g id="PolyCollection_3">
    <defs>
     <path id="m042ed4aa0e" d="M 459.238526 -137.192341 
L 458.761474 -137.192341 
L 458.635908 -141.93897 
L 458.459412 -146.685598 
L 458.218775 -151.432227 
L 457.900366 -156.178856 
L 457.491216 -160.925485 
L 456.980248 -165.672114 
L 456.359467 -170.418743 
L 455.624881 -175.165372 
L 454.776939 -179.912001 
L 453.820328 -184.65863 
L 452.763091 -189.405259 
L 451.615193 -194.151888 
L 450.386772 -198.898516 
L 449.086479 -203.645145 
L 447.720308 -208.391774 
L 446.291261 -213.138403 
L 444.800024 -217.885032 
L 443.246606 -222.631661 
L 441.632631 -227.37829 
L 439.96381 -232.124919 
L 438.252049 -236.871548 
L 436.516733 -241.618177 
L 434.784913 -246.364806 
L 433.090372 -251.111435 
L 431.471753 -255.858063 
L 429.970055 -260.604692 
L 428.625833 -265.351321 
L 427.476346 -270.09795 
L 426.552815 -274.844579 
L 425.877892 -279.591208 
L 425.463435 -284.337837 
L 425.308743 -289.084466 
L 425.399498 -293.831095 
L 425.707699 -298.577724 
L 426.192848 -303.324353 
L 426.804542 -308.070981 
L 427.486382 -312.81761 
L 428.1809 -317.564239 
L 428.834949 -322.310868 
L 429.404843 -327.057497 
L 429.860528 -331.804126 
L 430.18815 -336.550755 
L 430.390674 -341.297384 
L 430.486503 -346.044013 
L 430.506407 -350.790642 
L 430.489326 -355.537271 
L 430.477784 -360.283899 
L 430.513608 -365.030528 
L 430.63452 -369.777157 
L 430.871894 -374.523786 
L 431.24969 -379.270415 
L 431.784299 -384.017044 
L 432.484873 -388.763673 
L 433.353696 -393.510302 
L 434.386264 -398.256931 
L 435.570972 -403.00356 
L 436.888589 -407.750189 
L 438.311908 -412.496818 
L 439.80605 -417.243446 
L 441.32983 -421.990075 
L 442.838331 -426.736704 
L 444.286534 -431.483333 
L 445.633527 -436.229962 
L 446.846621 -440.976591 
L 447.904689 -445.72322 
L 448.80015 -450.469849 
L 449.539283 -455.216478 
L 450.140843 -459.963107 
L 450.633212 -464.709736 
L 451.050513 -469.456364 
L 451.428226 -474.202993 
L 451.798904 -478.949622 
L 452.188514 -483.696251 
L 452.613884 -488.44288 
L 453.081545 -493.189509 
L 453.588087 -497.936138 
L 454.121869 -502.682767 
L 454.665755 -507.429396 
L 455.20034 -512.176025 
L 455.70712 -516.922654 
L 456.171075 -521.669282 
L 456.58233 -526.415911 
L 456.936749 -531.16254 
L 457.235546 -535.909169 
L 457.484138 -540.655798 
L 457.690587 -545.402427 
L 457.863961 -550.149056 
L 458.012895 -554.895685 
L 458.144555 -559.642314 
L 458.264073 -564.388943 
L 458.374453 -569.135572 
L 458.476852 -573.8822 
L 458.571099 -578.628829 
L 458.656304 -583.375458 
L 458.731431 -588.122087 
L 458.795732 -592.868716 
L 458.848996 -597.615345 
L 458.891623 -602.361974 
L 458.924547 -607.108603 
L 459.075453 -607.108603 
L 459.075453 -607.108603 
L 459.108377 -602.361974 
L 459.151004 -597.615345 
L 459.204268 -592.868716 
L 459.268569 -588.122087 
L 459.343696 -583.375458 
L 459.428901 -578.628829 
L 459.523148 -573.8822 
L 459.625547 -569.135572 
L 459.735927 -564.388943 
L 459.855445 -559.642314 
L 459.987105 -554.895685 
L 460.136039 -550.149056 
L 460.309413 -545.402427 
L 460.515862 -540.655798 
L 460.764454 -535.909169 
L 461.063251 -531.16254 
L 461.41767 -526.415911 
L 461.828925 -521.669282 
L 462.29288 -516.922654 
L 462.79966 -512.176025 
L 463.334245 -507.429396 
L 463.878131 -502.682767 
L 464.411913 -497.936138 
L 464.918455 -493.189509 
L 465.386116 -488.44288 
L 465.811486 -483.696251 
L 466.201096 -478.949622 
L 466.571774 -474.202993 
L 466.949487 -469.456364 
L 467.366788 -464.709736 
L 467.859157 -459.963107 
L 468.460717 -455.216478 
L 469.19985 -450.469849 
L 470.095311 -445.72322 
L 471.153379 -440.976591 
L 472.366473 -436.229962 
L 473.713466 -431.483333 
L 475.161669 -426.736704 
L 476.67017 -421.990075 
L 478.19395 -417.243446 
L 479.688092 -412.496818 
L 481.111411 -407.750189 
L 482.429028 -403.00356 
L 483.613736 -398.256931 
L 484.646304 -393.510302 
L 485.515127 -388.763673 
L 486.215701 -384.017044 
L 486.75031 -379.270415 
L 487.128106 -374.523786 
L 487.36548 -369.777157 
L 487.486392 -365.030528 
L 487.522216 -360.283899 
L 487.510674 -355.537271 
L 487.493593 -350.790642 
L 487.513497 -346.044013 
L 487.609326 -341.297384 
L 487.81185 -336.550755 
L 488.139472 -331.804126 
L 488.595157 -327.057497 
L 489.165051 -322.310868 
L 489.8191 -317.564239 
L 490.513618 -312.81761 
L 491.195458 -308.070981 
L 491.807152 -303.324353 
L 492.292301 -298.577724 
L 492.600502 -293.831095 
L 492.691257 -289.084466 
L 492.536565 -284.337837 
L 492.122108 -279.591208 
L 491.447185 -274.844579 
L 490.523654 -270.09795 
L 489.374167 -265.351321 
L 488.029945 -260.604692 
L 486.528247 -255.858063 
L 484.909628 -251.111435 
L 483.215087 -246.364806 
L 481.483267 -241.618177 
L 479.747951 -236.871548 
L 478.03619 -232.124919 
L 476.367369 -227.37829 
L 474.753394 -222.631661 
L 473.199976 -217.885032 
L 471.708739 -213.138403 
L 470.279692 -208.391774 
L 468.913521 -203.645145 
L 467.613228 -198.898516 
L 466.384807 -194.151888 
L 465.236909 -189.405259 
L 464.179672 -184.65863 
L 463.223061 -179.912001 
L 462.375119 -175.165372 
L 461.640533 -170.418743 
L 461.019752 -165.672114 
L 460.508784 -160.925485 
L 460.099634 -156.178856 
L 459.781225 -151.432227 
L 459.540588 -146.685598 
L 459.364092 -141.93897 
L 459.238526 -137.192341 
z
" style="stroke: #3f3f3f; stroke-width: 1.25"/>
    </defs>
    <g clip-path="url(#p2c600bcea0)">
     <use xlink:href="#m042ed4aa0e" x="0" y="720" style="fill: #3274a1; stroke: #3f3f3f; stroke-width: 1.25"/>
    </g>
   </g>
   <g id="PolyCollection_4">
    <defs>
     <path id="m86d6d98e95" d="M 570.744566 -121.156614 
L 570.455434 -121.156614 
L 570.380846 -125.761978 
L 570.275452 -130.367341 
L 570.130147 -134.972705 
L 569.934534 -139.578068 
L 569.67719 -144.183432 
L 569.34606 -148.788796 
L 568.928959 -153.394159 
L 568.41416 -157.999523 
L 567.790999 -162.604887 
L 567.050469 -167.21025 
L 566.185736 -171.815614 
L 565.192529 -176.420977 
L 564.069388 -181.026341 
L 562.817733 -185.631705 
L 561.441781 -190.237068 
L 559.948357 -194.842432 
L 558.346661 -199.447796 
L 556.648113 -204.053159 
L 554.866358 -208.658523 
L 553.017498 -213.263886 
L 551.120522 -217.86925 
L 549.197838 -222.474614 
L 547.275683 -227.079977 
L 545.384179 -231.685341 
L 543.55681 -236.290704 
L 541.829221 -240.896068 
L 540.237396 -245.501432 
L 538.815462 -250.106795 
L 537.593459 -254.712159 
L 536.595465 -259.317523 
L 535.838341 -263.922886 
L 535.331213 -268.52825 
L 535.07559 -273.133613 
L 535.065874 -277.738977 
L 535.289934 -282.344341 
L 535.729528 -286.949704 
L 536.360438 -291.555068 
L 537.152461 -296.160431 
L 538.069512 -300.765795 
L 539.070219 -305.371159 
L 540.109326 -309.976522 
L 541.140085 -314.581886 
L 542.117533 -319.18725 
L 543.002324 -323.792613 
L 543.764524 -328.397977 
L 544.386737 -333.00334 
L 544.865936 -337.608704 
L 545.213598 -342.214068 
L 545.454037 -346.819431 
L 545.621154 -351.424795 
L 545.754131 -356.030159 
L 545.89275 -360.635522 
L 546.073108 -365.240886 
L 546.324346 -369.846249 
L 546.666807 -374.451613 
L 547.111739 -379.056977 
L 547.662302 -383.66234 
L 548.315457 -388.267704 
L 549.064115 -392.873067 
L 549.898983 -397.478431 
L 550.809709 -402.083795 
L 551.785162 -406.689158 
L 552.81299 -411.294522 
L 553.878844 -415.899886 
L 554.965736 -420.505249 
L 556.053982 -425.110613 
L 557.121973 -429.715976 
L 558.147793 -434.32134 
L 559.11141 -438.926704 
L 559.997013 -443.532067 
L 560.794976 -448.137431 
L 561.50305 -452.742794 
L 562.126495 -457.348158 
L 562.677134 -461.953522 
L 563.17149 -466.558885 
L 563.628337 -471.164249 
L 564.066078 -475.769613 
L 564.500378 -480.374976 
L 564.942377 -484.98034 
L 565.397728 -489.585703 
L 565.866535 -494.191067 
L 566.34409 -498.796431 
L 566.822234 -503.401794 
L 567.291007 -508.007158 
L 567.740312 -512.612522 
L 568.161288 -517.217885 
L 568.547229 -521.823249 
L 568.893988 -526.428612 
L 569.199908 -531.033976 
L 569.465425 -535.63934 
L 569.692509 -540.244703 
L 569.884081 -544.850067 
L 570.043542 -549.45543 
L 570.174437 -554.060794 
L 570.280261 -558.666158 
L 570.36437 -563.271521 
L 570.429953 -567.876885 
L 570.480008 -572.482249 
L 570.517327 -577.087612 
L 570.682673 -577.087612 
L 570.682673 -577.087612 
L 570.719992 -572.482249 
L 570.770047 -567.876885 
L 570.83563 -563.271521 
L 570.919739 -558.666158 
L 571.025563 -554.060794 
L 571.156458 -549.45543 
L 571.315919 -544.850067 
L 571.507491 -540.244703 
L 571.734575 -535.63934 
L 572.000092 -531.033976 
L 572.306012 -526.428612 
L 572.652771 -521.823249 
L 573.038712 -517.217885 
L 573.459688 -512.612522 
L 573.908993 -508.007158 
L 574.377766 -503.401794 
L 574.85591 -498.796431 
L 575.333465 -494.191067 
L 575.802272 -489.585703 
L 576.257623 -484.98034 
L 576.699622 -480.374976 
L 577.133922 -475.769613 
L 577.571663 -471.164249 
L 578.02851 -466.558885 
L 578.522866 -461.953522 
L 579.073505 -457.348158 
L 579.69695 -452.742794 
L 580.405024 -448.137431 
L 581.202987 -443.532067 
L 582.08859 -438.926704 
L 583.052207 -434.32134 
L 584.078027 -429.715976 
L 585.146018 -425.110613 
L 586.234264 -420.505249 
L 587.321156 -415.899886 
L 588.38701 -411.294522 
L 589.414838 -406.689158 
L 590.390291 -402.083795 
L 591.301017 -397.478431 
L 592.135885 -392.873067 
L 592.884543 -388.267704 
L 593.537698 -383.66234 
L 594.088261 -379.056977 
L 594.533193 -374.451613 
L 594.875654 -369.846249 
L 595.126892 -365.240886 
L 595.30725 -360.635522 
L 595.445869 -356.030159 
L 595.578846 -351.424795 
L 595.745963 -346.819431 
L 595.986402 -342.214068 
L 596.334064 -337.608704 
L 596.813263 -333.00334 
L 597.435476 -328.397977 
L 598.197676 -323.792613 
L 599.082467 -319.18725 
L 600.059915 -314.581886 
L 601.090674 -309.976522 
L 602.129781 -305.371159 
L 603.130488 -300.765795 
L 604.047539 -296.160431 
L 604.839562 -291.555068 
L 605.470472 -286.949704 
L 605.910066 -282.344341 
L 606.134126 -277.738977 
L 606.12441 -273.133613 
L 605.868787 -268.52825 
L 605.361659 -263.922886 
L 604.604535 -259.317523 
L 603.606541 -254.712159 
L 602.384538 -250.106795 
L 600.962604 -245.501432 
L 599.370779 -240.896068 
L 597.64319 -236.290704 
L 595.815821 -231.685341 
L 593.924317 -227.079977 
L 592.002162 -222.474614 
L 590.079478 -217.86925 
L 588.182502 -213.263886 
L 586.333642 -208.658523 
L 584.551887 -204.053159 
L 582.853339 -199.447796 
L 581.251643 -194.842432 
L 579.758219 -190.237068 
L 578.382267 -185.631705 
L 577.130612 -181.026341 
L 576.007471 -176.420977 
L 575.014264 -171.815614 
L 574.149531 -167.21025 
L 573.409001 -162.604887 
L 572.78584 -157.999523 
L 572.271041 -153.394159 
L 571.85394 -148.788796 
L 571.52281 -144.183432 
L 571.265466 -139.578068 
L 571.069853 -134.972705 
L 570.924548 -130.367341 
L 570.819154 -125.761978 
L 570.744566 -121.156614 
z
" style="stroke: #3f3f3f; stroke-width: 1.25"/>
    </defs>
    <g clip-path="url(#p2c600bcea0)">
     <use xlink:href="#m86d6d98e95" x="0" y="720" style="fill: #3274a1; stroke: #3f3f3f; stroke-width: 1.25"/>
    </g>
   </g>
   <g id="PolyCollection_5">
    <defs>
     <path id="ma62b26df9c" d="M 682.38209 -121.295411 
L 682.01791 -121.295411 
L 681.930756 -125.886879 
L 681.811927 -130.478347 
L 681.654109 -135.069815 
L 681.449571 -139.661282 
L 681.190354 -144.25275 
L 680.868376 -148.844218 
L 680.475422 -153.435686 
L 680.003023 -158.027153 
L 679.442251 -162.618621 
L 678.783513 -167.210089 
L 678.016439 -171.801557 
L 677.12995 -176.393024 
L 676.112585 -180.984492 
L 674.953126 -185.57596 
L 673.641525 -190.167428 
L 672.170126 -194.758895 
L 670.535143 -199.350363 
L 668.738311 -203.941831 
L 666.788552 -208.533299 
L 664.70344 -213.124766 
L 662.510118 -217.716234 
L 660.245343 -222.307702 
L 657.954373 -226.899169 
L 655.688626 -231.490637 
L 653.502323 -236.082105 
L 651.448591 -240.673573 
L 649.575728 -245.26504 
L 647.924288 -249.856508 
L 646.525479 -254.447976 
L 645.400953 -259.039444 
L 644.563716 -263.630911 
L 644.01954 -268.222379 
L 643.768244 -272.813847 
L 643.804302 -277.405315 
L 644.116621 -281.996782 
L 644.687643 -286.58825 
L 645.492258 -291.179718 
L 646.497078 -295.771186 
L 647.660572 -300.362653 
L 648.934331 -304.954121 
L 650.265478 -309.545589 
L 651.599958 -314.137057 
L 652.886329 -318.728524 
L 654.079546 -323.319992 
L 655.144293 -327.91146 
L 656.057466 -332.502927 
L 656.809544 -337.094395 
L 657.404712 -341.685863 
L 657.859746 -346.277331 
L 658.201829 -350.868798 
L 658.465531 -355.460266 
L 658.689351 -360.051734 
L 658.912177 -364.643202 
L 659.17007 -369.234669 
L 659.493679 -373.826137 
L 659.9065 -378.417605 
L 660.42404 -383.009073 
L 661.053811 -387.60054 
L 661.795953 -392.192008 
L 662.644225 -396.783476 
L 663.587088 -401.374944 
L 664.608698 -405.966411 
L 665.689735 -410.557879 
L 666.808111 -415.149347 
L 667.939713 -419.740815 
L 669.059347 -424.332282 
L 670.141996 -428.92375 
L 671.164393 -433.515218 
L 672.106789 -438.106686 
L 672.954659 -442.698153 
L 673.700068 -447.289621 
L 674.342428 -451.881089 
L 674.888463 -456.472556 
L 675.351333 -461.064024 
L 675.749014 -465.655492 
L 676.102118 -470.24696 
L 676.431468 -474.838427 
L 676.755735 -479.429895 
L 677.08948 -484.021363 
L 677.441853 -488.612831 
L 677.816115 -493.204298 
L 678.210007 -497.795766 
L 678.616859 -502.387234 
L 679.027171 -506.978702 
L 679.430373 -511.570169 
L 679.816426 -516.161637 
L 680.177028 -520.753105 
L 680.506285 -525.344573 
L 680.800852 -529.93604 
L 681.059662 -534.527508 
L 681.283414 -539.118976 
L 681.473996 -543.710444 
L 681.633983 -548.301911 
L 681.766273 -552.893379 
L 681.873868 -557.484847 
L 681.959777 -562.076315 
L 682.026961 -566.667782 
L 682.078299 -571.25925 
L 682.11655 -575.850718 
L 682.28345 -575.850718 
L 682.28345 -575.850718 
L 682.321701 -571.25925 
L 682.373039 -566.667782 
L 682.440223 -562.076315 
L 682.526132 -557.484847 
L 682.633727 -552.893379 
L 682.766017 -548.301911 
L 682.926004 -543.710444 
L 683.116586 -539.118976 
L 683.340338 -534.527508 
L 683.599148 -529.93604 
L 683.893715 -525.344573 
L 684.222972 -520.753105 
L 684.583574 -516.161637 
L 684.969627 -511.570169 
L 685.372829 -506.978702 
L 685.783141 -502.387234 
L 686.189993 -497.795766 
L 686.583885 -493.204298 
L 686.958147 -488.612831 
L 687.31052 -484.021363 
L 687.644265 -479.429895 
L 687.968532 -474.838427 
L 688.297882 -470.24696 
L 688.650986 -465.655492 
L 689.048667 -461.064024 
L 689.511537 -456.472556 
L 690.057572 -451.881089 
L 690.699932 -447.289621 
L 691.445341 -442.698153 
L 692.293211 -438.106686 
L 693.235607 -433.515218 
L 694.258004 -428.92375 
L 695.340653 -424.332282 
L 696.460287 -419.740815 
L 697.591889 -415.149347 
L 698.710265 -410.557879 
L 699.791302 -405.966411 
L 700.812912 -401.374944 
L 701.755775 -396.783476 
L 702.604047 -392.192008 
L 703.346189 -387.60054 
L 703.97596 -383.009073 
L 704.4935 -378.417605 
L 704.906321 -373.826137 
L 705.22993 -369.234669 
L 705.487823 -364.643202 
L 705.710649 -360.051734 
L 705.934469 -355.460266 
L 706.198171 -350.868798 
L 706.540254 -346.277331 
L 706.995288 -341.685863 
L 707.590456 -337.094395 
L 708.342534 -332.502927 
L 709.255707 -327.91146 
L 710.320454 -323.319992 
L 711.513671 -318.728524 
L 712.800042 -314.137057 
L 714.134522 -309.545589 
L 715.465669 -304.954121 
L 716.739428 -300.362653 
L 717.902922 -295.771186 
L 718.907742 -291.179718 
L 719.712357 -286.58825 
L 720.283379 -281.996782 
L 720.595698 -277.405315 
L 720.631756 -272.813847 
L 720.38046 -268.222379 
L 719.836284 -263.630911 
L 718.999047 -259.039444 
L 717.874521 -254.447976 
L 716.475712 -249.856508 
L 714.824272 -245.26504 
L 712.951409 -240.673573 
L 710.897677 -236.082105 
L 708.711374 -231.490637 
L 706.445627 -226.899169 
L 704.154657 -222.307702 
L 701.889882 -217.716234 
L 699.69656 -213.124766 
L 697.611448 -208.533299 
L 695.661689 -203.941831 
L 693.864857 -199.350363 
L 692.229874 -194.758895 
L 690.758475 -190.167428 
L 689.446874 -185.57596 
L 688.287415 -180.984492 
L 687.27005 -176.393024 
L 686.383561 -171.801557 
L 685.616487 -167.210089 
L 684.957749 -162.618621 
L 684.396977 -158.027153 
L 683.924578 -153.435686 
L 683.531624 -148.844218 
L 683.209646 -144.25275 
L 682.950429 -139.661282 
L 682.745891 -135.069815 
L 682.588073 -130.478347 
L 682.469244 -125.886879 
L 682.38209 -121.295411 
z
" style="stroke: #3f3f3f; stroke-width: 1.25"/>
    </defs>
    <g clip-path="url(#p2c600bcea0)">
     <use xlink:href="#ma62b26df9c" x="0" y="720" style="fill: #3274a1; stroke: #3f3f3f; stroke-width: 1.25"/>
    </g>
   </g>
   <g id="PolyCollection_6">
    <defs>
     <path id="m39b94475ed" d="M 793.987581 -121.818043 
L 793.612419 -121.818043 
L 793.520708 -126.398953 
L 793.39462 -130.979862 
L 793.225723 -135.560772 
L 793.004932 -140.141681 
L 792.722724 -144.722591 
L 792.369338 -149.3035 
L 791.934883 -153.88441 
L 791.409384 -158.46532 
L 790.782729 -163.046229 
L 790.044589 -167.627139 
L 789.184328 -172.208048 
L 788.190997 -176.788958 
L 787.053455 -181.369867 
L 785.760754 -185.950777 
L 784.302886 -190.531686 
L 782.672018 -195.112596 
L 780.864303 -199.693505 
L 778.882187 -204.274415 
L 776.736972 -208.855324 
L 774.451134 -213.436234 
L 772.059733 -218.017143 
L 769.610251 -222.598053 
L 767.160384 -227.178962 
L 764.773813 -231.759872 
L 762.514523 -236.340781 
L 760.440761 -240.921691 
L 758.599987 -245.5026 
L 757.025992 -250.08351 
L 755.738772 -254.664419 
L 754.746954 -259.245329 
L 754.051743 -263.826238 
L 753.650895 -268.407148 
L 753.541287 -272.988058 
L 753.719155 -277.568967 
L 754.178012 -282.149877 
L 754.905062 -286.730786 
L 755.877543 -291.311696 
L 757.060472 -295.892605 
L 758.406824 -300.473515 
L 759.860404 -305.054424 
L 761.360904 -309.635334 
L 762.849977 -314.216243 
L 764.277018 -318.797153 
L 765.6035 -323.378062 
L 766.80518 -327.958972 
L 767.87209 -332.539881 
L 768.806696 -337.120791 
L 769.620921 -341.7017 
L 770.332792 -346.28261 
L 770.963336 -350.863519 
L 771.53413 -355.444429 
L 772.06566 -360.025338 
L 772.576431 -364.606248 
L 773.082676 -369.187157 
L 773.598436 -373.768067 
L 774.135815 -378.348976 
L 774.705236 -382.929886 
L 775.315563 -387.510796 
L 775.973998 -392.091705 
L 776.685709 -396.672615 
L 777.453235 -401.253524 
L 778.275739 -405.834434 
L 779.148307 -410.415343 
L 780.061496 -414.996253 
L 781.001316 -419.577162 
L 781.949818 -424.158072 
L 782.886286 -428.738981 
L 783.788968 -433.319891 
L 784.637127 -437.9008 
L 785.413137 -442.48171 
L 786.104346 -447.062619 
L 786.704434 -451.643529 
L 787.214077 -456.224438 
L 787.640822 -460.805348 
L 787.998146 -465.386257 
L 788.303812 -469.967167 
L 788.57769 -474.548076 
L 788.839338 -479.128986 
L 789.105675 -483.709895 
L 789.389105 -488.290805 
L 789.696377 -492.871714 
L 790.028356 -497.452624 
L 790.380694 -502.033533 
L 790.74521 -506.614443 
L 791.111654 -511.195353 
L 791.469499 -515.776262 
L 791.809406 -520.357172 
L 792.124174 -524.938081 
L 792.409114 -529.518991 
L 792.661929 -534.0999 
L 792.88228 -538.68081 
L 793.071232 -543.261719 
L 793.230727 -547.842629 
L 793.3632 -552.423538 
L 793.471323 -557.004448 
L 793.557878 -561.585357 
L 793.625681 -566.166267 
L 793.677538 -570.747176 
L 793.716175 -575.328086 
L 793.883825 -575.328086 
L 793.883825 -575.328086 
L 793.922462 -570.747176 
L 793.974319 -566.166267 
L 794.042122 -561.585357 
L 794.128677 -557.004448 
L 794.2368 -552.423538 
L 794.369273 -547.842629 
L 794.528768 -543.261719 
L 794.71772 -538.68081 
L 794.938071 -534.0999 
L 795.190886 -529.518991 
L 795.475826 -524.938081 
L 795.790594 -520.357172 
L 796.130501 -515.776262 
L 796.488346 -511.195353 
L 796.85479 -506.614443 
L 797.219306 -502.033533 
L 797.571644 -497.452624 
L 797.903623 -492.871714 
L 798.210895 -488.290805 
L 798.494325 -483.709895 
L 798.760662 -479.128986 
L 799.02231 -474.548076 
L 799.296188 -469.967167 
L 799.601854 -465.386257 
L 799.959178 -460.805348 
L 800.385923 -456.224438 
L 800.895566 -451.643529 
L 801.495654 -447.062619 
L 802.186863 -442.48171 
L 802.962873 -437.9008 
L 803.811032 -433.319891 
L 804.713714 -428.738981 
L 805.650182 -424.158072 
L 806.598684 -419.577162 
L 807.538504 -414.996253 
L 808.451693 -410.415343 
L 809.324261 -405.834434 
L 810.146765 -401.253524 
L 810.914291 -396.672615 
L 811.626002 -392.091705 
L 812.284437 -387.510796 
L 812.894764 -382.929886 
L 813.464185 -378.348976 
L 814.001564 -373.768067 
L 814.517324 -369.187157 
L 815.023569 -364.606248 
L 815.53434 -360.025338 
L 816.06587 -355.444429 
L 816.636664 -350.863519 
L 817.267208 -346.28261 
L 817.979079 -341.7017 
L 818.793304 -337.120791 
L 819.72791 -332.539881 
L 820.79482 -327.958972 
L 821.9965 -323.378062 
L 823.322982 -318.797153 
L 824.750023 -314.216243 
L 826.239096 -309.635334 
L 827.739596 -305.054424 
L 829.193176 -300.473515 
L 830.539528 -295.892605 
L 831.722457 -291.311696 
L 832.694938 -286.730786 
L 833.421988 -282.149877 
L 833.880845 -277.568967 
L 834.058713 -272.988058 
L 833.949105 -268.407148 
L 833.548257 -263.826238 
L 832.853046 -259.245329 
L 831.861228 -254.664419 
L 830.574008 -250.08351 
L 829.000013 -245.5026 
L 827.159239 -240.921691 
L 825.085477 -236.340781 
L 822.826187 -231.759872 
L 820.439616 -227.178962 
L 817.989749 -222.598053 
L 815.540267 -218.017143 
L 813.148866 -213.436234 
L 810.863028 -208.855324 
L 808.717813 -204.274415 
L 806.735697 -199.693505 
L 804.927982 -195.112596 
L 803.297114 -190.531686 
L 801.839246 -185.950777 
L 800.546545 -181.369867 
L 799.409003 -176.788958 
L 798.415672 -172.208048 
L 797.555411 -167.627139 
L 796.817271 -163.046229 
L 796.190616 -158.46532 
L 795.665117 -153.88441 
L 795.230662 -149.3035 
L 794.877276 -144.722591 
L 794.595068 -140.141681 
L 794.374277 -135.560772 
L 794.20538 -130.979862 
L 794.079292 -126.398953 
L 793.987581 -121.818043 
z
" style="stroke: #3f3f3f; stroke-width: 1.25"/>
    </defs>
    <g clip-path="url(#p2c600bcea0)">
     <use xlink:href="#m39b94475ed" x="0" y="720" style="fill: #3274a1; stroke: #3f3f3f; stroke-width: 1.25"/>
    </g>
   </g>
   <g id="PolyCollection_7">
    <defs>
     <path id="mb2ee088170" d="M 905.589863 -123.559663 
L 905.210137 -123.559663 
L 905.121574 -127.827889 
L 905.001296 -132.096115 
L 904.841848 -136.364341 
L 904.635193 -140.632567 
L 904.37286 -144.900793 
L 904.046063 -149.169019 
L 903.645752 -153.437245 
L 903.162596 -157.705471 
L 902.586918 -161.973698 
L 901.908601 -166.241924 
L 901.117005 -170.51015 
L 900.200914 -174.778376 
L 899.148542 -179.046602 
L 897.947636 -183.314828 
L 896.585736 -187.583054 
L 895.050715 -191.85128 
L 893.331761 -196.119506 
L 891.420958 -200.387732 
L 889.315546 -204.655958 
L 887.020766 -208.924184 
L 884.552928 -213.19241 
L 881.942102 -217.460636 
L 879.233677 -221.728862 
L 876.488045 -225.997088 
L 873.777961 -230.265314 
L 871.183598 -234.53354 
L 868.785894 -238.801767 
L 866.659269 -243.069993 
L 864.865049 -247.338219 
L 863.446796 -251.606445 
L 862.428286 -255.874671 
L 861.814207 -260.142897 
L 861.592964 -264.411123 
L 861.740542 -268.679349 
L 862.224273 -272.947575 
L 863.005651 -277.215801 
L 864.041901 -281.484027 
L 865.286571 -285.752253 
L 866.689842 -290.020479 
L 868.199362 -294.288705 
L 869.762133 -298.556931 
L 871.327553 -302.825157 
L 872.851154 -307.093383 
L 874.298234 -311.361609 
L 875.646473 -315.629836 
L 876.886838 -319.898062 
L 878.022503 -324.166288 
L 879.066025 -328.434514 
L 880.035406 -332.70274 
L 880.949938 -336.970966 
L 881.826632 -341.239192 
L 882.677843 -345.507418 
L 883.510332 -349.775644 
L 884.325638 -354.04387 
L 885.121399 -358.312096 
L 885.893131 -362.580322 
L 886.636011 -366.848548 
L 887.346337 -371.116774 
L 888.022502 -375.385 
L 888.665463 -379.653226 
L 889.278768 -383.921452 
L 889.868229 -388.189679 
L 890.441317 -392.457905 
L 891.006347 -396.726131 
L 891.571511 -400.994357 
L 892.143839 -405.262583 
L 892.728235 -409.530809 
L 893.326712 -413.799035 
L 893.938004 -418.067261 
L 894.557628 -422.335487 
L 895.178438 -426.603713 
L 895.791566 -430.871939 
L 896.387605 -435.140165 
L 896.957818 -439.408391 
L 897.495201 -443.676617 
L 897.995241 -447.944843 
L 898.456325 -452.213069 
L 898.879798 -456.481295 
L 899.269728 -460.749521 
L 899.632427 -465.017748 
L 899.975794 -469.285974 
L 900.308505 -473.5542 
L 900.639094 -477.822426 
L 900.974981 -482.090652 
L 901.321544 -486.358878 
L 901.681368 -490.627104 
L 902.053806 -494.89533 
L 902.434971 -499.163556 
L 902.818183 -503.431782 
L 903.194832 -507.700008 
L 903.555519 -511.968234 
L 903.891262 -516.23646 
L 904.194578 -520.504686 
L 904.460262 -524.772912 
L 904.685762 -529.041138 
L 904.871149 -533.309364 
L 905.018746 -537.57759 
L 905.132537 -541.845817 
L 905.217486 -546.114043 
L 905.582514 -546.114043 
L 905.582514 -546.114043 
L 905.667463 -541.845817 
L 905.781254 -537.57759 
L 905.928851 -533.309364 
L 906.114238 -529.041138 
L 906.339738 -524.772912 
L 906.605422 -520.504686 
L 906.908738 -516.23646 
L 907.244481 -511.968234 
L 907.605168 -507.700008 
L 907.981817 -503.431782 
L 908.365029 -499.163556 
L 908.746194 -494.89533 
L 909.118632 -490.627104 
L 909.478456 -486.358878 
L 909.825019 -482.090652 
L 910.160906 -477.822426 
L 910.491495 -473.5542 
L 910.824206 -469.285974 
L 911.167573 -465.017748 
L 911.530272 -460.749521 
L 911.920202 -456.481295 
L 912.343675 -452.213069 
L 912.804759 -447.944843 
L 913.304799 -443.676617 
L 913.842182 -439.408391 
L 914.412395 -435.140165 
L 915.008434 -430.871939 
L 915.621562 -426.603713 
L 916.242372 -422.335487 
L 916.861996 -418.067261 
L 917.473288 -413.799035 
L 918.071765 -409.530809 
L 918.656161 -405.262583 
L 919.228489 -400.994357 
L 919.793653 -396.726131 
L 920.358683 -392.457905 
L 920.931771 -388.189679 
L 921.521232 -383.921452 
L 922.134537 -379.653226 
L 922.777498 -375.385 
L 923.453663 -371.116774 
L 924.163989 -366.848548 
L 924.906869 -362.580322 
L 925.678601 -358.312096 
L 926.474362 -354.04387 
L 927.289668 -349.775644 
L 928.122157 -345.507418 
L 928.973368 -341.239192 
L 929.850062 -336.970966 
L 930.764594 -332.70274 
L 931.733975 -328.434514 
L 932.777497 -324.166288 
L 933.913162 -319.898062 
L 935.153527 -315.629836 
L 936.501766 -311.361609 
L 937.948846 -307.093383 
L 939.472447 -302.825157 
L 941.037867 -298.556931 
L 942.600638 -294.288705 
L 944.110158 -290.020479 
L 945.513429 -285.752253 
L 946.758099 -281.484027 
L 947.794349 -277.215801 
L 948.575727 -272.947575 
L 949.059458 -268.679349 
L 949.207036 -264.411123 
L 948.985793 -260.142897 
L 948.371714 -255.874671 
L 947.353204 -251.606445 
L 945.934951 -247.338219 
L 944.140731 -243.069993 
L 942.014106 -238.801767 
L 939.616402 -234.53354 
L 937.022039 -230.265314 
L 934.311955 -225.997088 
L 931.566323 -221.728862 
L 928.857898 -217.460636 
L 926.247072 -213.19241 
L 923.779234 -208.924184 
L 921.484454 -204.655958 
L 919.379042 -200.387732 
L 917.468239 -196.119506 
L 915.749285 -191.85128 
L 914.214264 -187.583054 
L 912.852364 -183.314828 
L 911.651458 -179.046602 
L 910.599086 -174.778376 
L 909.682995 -170.51015 
L 908.891399 -166.241924 
L 908.213082 -161.973698 
L 907.637404 -157.705471 
L 907.154248 -153.437245 
L 906.753937 -149.169019 
L 906.42714 -144.900793 
L 906.164807 -140.632567 
L 905.958152 -136.364341 
L 905.798704 -132.096115 
L 905.678426 -127.827889 
L 905.589863 -123.559663 
z
" style="stroke: #3f3f3f; stroke-width: 1.25"/>
    </defs>
    <g clip-path="url(#p2c600bcea0)">
     <use xlink:href="#mb2ee088170" x="0" y="720" style="fill: #3274a1; stroke: #3f3f3f; stroke-width: 1.25"/>
    </g>
   </g>
   <g id="PolyCollection_8">
    <defs>
     <path id="m9feacb4831" d="M 1017.095251 -106.805545 
L 1016.904749 -106.805545 
L 1016.858835 -111.232991 
L 1016.796342 -115.660436 
L 1016.713512 -120.087882 
L 1016.606294 -124.515328 
L 1016.470277 -128.942773 
L 1016.300504 -133.370219 
L 1016.091143 -137.797665 
L 1015.83507 -142.22511 
L 1015.523423 -146.652556 
L 1015.145287 -151.080002 
L 1014.687599 -155.507447 
L 1014.135403 -159.934893 
L 1013.472454 -164.362339 
L 1012.682094 -168.789784 
L 1011.748266 -173.21723 
L 1010.656434 -177.644676 
L 1009.394259 -182.072121 
L 1007.951968 -186.499567 
L 1006.322495 -190.927013 
L 1004.501652 -195.354458 
L 1002.488674 -199.781904 
L 1000.287429 -204.20935 
L 997.908426 -208.636795 
L 995.37139 -213.064241 
L 992.707883 -217.491687 
L 989.963127 -221.919133 
L 987.196233 -226.346578 
L 984.478216 -230.774024 
L 981.88777 -235.20147 
L 979.505321 -239.628915 
L 977.406414 -244.056361 
L 975.655688 -248.483807 
L 974.302442 -252.911252 
L 973.378319 -257.338698 
L 972.89692 -261.766144 
L 972.854663 -266.193589 
L 973.232051 -270.621035 
L 973.994733 -275.048481 
L 975.094308 -279.475926 
L 976.469345 -283.903372 
L 978.047424 -288.330818 
L 979.74887 -292.758263 
L 981.492355 -297.185709 
L 983.201817 -301.613155 
L 984.813521 -306.0406 
L 986.281815 -310.468046 
L 987.582312 -314.895492 
L 988.711855 -319.322937 
L 989.685423 -323.750383 
L 990.530886 -328.177829 
L 991.282908 -332.605274 
L 991.977343 -337.03272 
L 992.647049 -341.460166 
L 993.319465 -345.887611 
L 994.015731 -350.315057 
L 994.750741 -354.742503 
L 995.533458 -359.169948 
L 996.367064 -363.597394 
L 997.248844 -368.02484 
L 998.170088 -372.452285 
L 999.116473 -376.879731 
L 1000.069302 -381.307177 
L 1001.007743 -385.734622 
L 1001.911812 -390.162068 
L 1002.765538 -394.589514 
L 1003.559581 -399.01696 
L 1004.292645 -403.444405 
L 1004.971318 -407.871851 
L 1005.608334 -412.299297 
L 1006.219657 -416.726742 
L 1006.821056 -421.154188 
L 1007.424909 -425.581634 
L 1008.0379 -430.009079 
L 1008.660003 -434.436525 
L 1009.28485 -438.863971 
L 1009.901276 -443.291416 
L 1010.49564 -447.718862 
L 1011.054412 -452.146308 
L 1011.566571 -456.573753 
L 1012.025416 -461.001199 
L 1012.429584 -465.428645 
L 1012.783143 -469.85609 
L 1013.094831 -474.283536 
L 1013.376571 -478.710982 
L 1013.641512 -483.138427 
L 1013.901934 -487.565873 
L 1014.167351 -491.993319 
L 1014.44316 -496.420764 
L 1014.730057 -500.84821 
L 1015.024305 -505.275656 
L 1015.318752 -509.703101 
L 1015.604355 -514.130547 
L 1015.871867 -518.557993 
L 1016.113339 -522.985438 
L 1016.323192 -527.412884 
L 1016.498714 -531.84033 
L 1016.639999 -536.267775 
L 1016.749466 -540.695221 
L 1016.831121 -545.122667 
L 1017.168879 -545.122667 
L 1017.168879 -545.122667 
L 1017.250534 -540.695221 
L 1017.360001 -536.267775 
L 1017.501286 -531.84033 
L 1017.676808 -527.412884 
L 1017.886661 -522.985438 
L 1018.128133 -518.557993 
L 1018.395645 -514.130547 
L 1018.681248 -509.703101 
L 1018.975695 -505.275656 
L 1019.269943 -500.84821 
L 1019.55684 -496.420764 
L 1019.832649 -491.993319 
L 1020.098066 -487.565873 
L 1020.358488 -483.138427 
L 1020.623429 -478.710982 
L 1020.905169 -474.283536 
L 1021.216857 -469.85609 
L 1021.570416 -465.428645 
L 1021.974584 -461.001199 
L 1022.433429 -456.573753 
L 1022.945588 -452.146308 
L 1023.50436 -447.718862 
L 1024.098724 -443.291416 
L 1024.71515 -438.863971 
L 1025.339997 -434.436525 
L 1025.9621 -430.009079 
L 1026.575091 -425.581634 
L 1027.178944 -421.154188 
L 1027.780343 -416.726742 
L 1028.391666 -412.299297 
L 1029.028682 -407.871851 
L 1029.707355 -403.444405 
L 1030.440419 -399.01696 
L 1031.234462 -394.589514 
L 1032.088188 -390.162068 
L 1032.992257 -385.734622 
L 1033.930698 -381.307177 
L 1034.883527 -376.879731 
L 1035.829912 -372.452285 
L 1036.751156 -368.02484 
L 1037.632936 -363.597394 
L 1038.466542 -359.169948 
L 1039.249259 -354.742503 
L 1039.984269 -350.315057 
L 1040.680535 -345.887611 
L 1041.352951 -341.460166 
L 1042.022657 -337.03272 
L 1042.717092 -332.605274 
L 1043.469114 -328.177829 
L 1044.314577 -323.750383 
L 1045.288145 -319.322937 
L 1046.417688 -314.895492 
L 1047.718185 -310.468046 
L 1049.186479 -306.0406 
L 1050.798183 -301.613155 
L 1052.507645 -297.185709 
L 1054.25113 -292.758263 
L 1055.952576 -288.330818 
L 1057.530655 -283.903372 
L 1058.905692 -279.475926 
L 1060.005267 -275.048481 
L 1060.767949 -270.621035 
L 1061.145337 -266.193589 
L 1061.10308 -261.766144 
L 1060.621681 -257.338698 
L 1059.697558 -252.911252 
L 1058.344312 -248.483807 
L 1056.593586 -244.056361 
L 1054.494679 -239.628915 
L 1052.11223 -235.20147 
L 1049.521784 -230.774024 
L 1046.803767 -226.346578 
L 1044.036873 -221.919133 
L 1041.292117 -217.491687 
L 1038.62861 -213.064241 
L 1036.091574 -208.636795 
L 1033.712571 -204.20935 
L 1031.511326 -199.781904 
L 1029.498348 -195.354458 
L 1027.677505 -190.927013 
L 1026.048032 -186.499567 
L 1024.605741 -182.072121 
L 1023.343566 -177.644676 
L 1022.251734 -173.21723 
L 1021.317906 -168.789784 
L 1020.527546 -164.362339 
L 1019.864597 -159.934893 
L 1019.312401 -155.507447 
L 1018.854713 -151.080002 
L 1018.476577 -146.652556 
L 1018.16493 -142.22511 
L 1017.908857 -137.797665 
L 1017.699496 -133.370219 
L 1017.529723 -128.942773 
L 1017.393706 -124.515328 
L 1017.286488 -120.087882 
L 1017.203658 -115.660436 
L 1017.141165 -111.232991 
L 1017.095251 -106.805545 
z
" style="stroke: #3f3f3f; stroke-width: 1.25"/>
    </defs>
    <g clip-path="url(#p2c600bcea0)">
     <use xlink:href="#m9feacb4831" x="0" y="720" style="fill: #3274a1; stroke: #3f3f3f; stroke-width: 1.25"/>
    </g>
   </g>
   <g id="PolyCollection_9">
    <defs>
     <path id="mb54813b7c5" d="M 1128.695203 -104.4 
L 1128.504797 -104.4 
L 1128.45793 -108.855624 
L 1128.393146 -113.311247 
L 1128.305583 -117.766871 
L 1128.189516 -122.222494 
L 1128.038189 -126.678118 
L 1127.843594 -131.133742 
L 1127.596247 -135.589365 
L 1127.28505 -140.044989 
L 1126.897336 -144.500613 
L 1126.419191 -148.956236 
L 1125.836082 -153.41186 
L 1125.133741 -157.867483 
L 1124.299153 -162.323107 
L 1123.321432 -166.778731 
L 1122.192377 -171.234354 
L 1120.906583 -175.689978 
L 1119.46112 -180.145601 
L 1117.855008 -184.601225 
L 1116.088814 -189.056849 
L 1114.164777 -193.512472 
L 1112.087741 -197.968096 
L 1109.866973 -202.42372 
L 1107.518628 -206.879343 
L 1105.068298 -211.334967 
L 1102.552892 -215.79059 
L 1100.02106 -220.246214 
L 1097.531613 -224.701838 
L 1095.149814 -229.157461 
L 1092.941995 -233.613085 
L 1090.969474 -238.068709 
L 1089.283013 -242.524332 
L 1087.919026 -246.979956 
L 1086.898244 -251.435579 
L 1086.226855 -255.891203 
L 1085.899389 -260.346827 
L 1085.902117 -264.80245 
L 1086.215713 -269.258074 
L 1086.81633 -273.713697 
L 1087.675023 -278.169321 
L 1088.756224 -282.624945 
L 1090.016454 -287.080568 
L 1091.404499 -291.536192 
L 1092.863805 -295.991816 
L 1094.337037 -300.447439 
L 1095.771973 -304.903063 
L 1097.127383 -309.358686 
L 1098.377441 -313.81431 
L 1099.513641 -318.269934 
L 1100.543841 -322.725557 
L 1101.488823 -327.181181 
L 1102.377314 -331.636804 
L 1103.240623 -336.092428 
L 1104.107957 -340.548052 
L 1105.003066 -345.003675 
L 1105.942395 -349.459299 
L 1106.934529 -353.914923 
L 1107.980485 -358.370546 
L 1109.07441 -362.82617 
L 1110.204426 -367.281793 
L 1111.353561 -371.737417 
L 1112.500895 -376.193041 
L 1113.623087 -380.648664 
L 1114.696358 -385.104288 
L 1115.698833 -389.559911 
L 1116.612934 -394.015535 
L 1117.427429 -398.471159 
L 1118.138728 -402.926782 
L 1118.75114 -407.382406 
L 1119.276032 -411.83803 
L 1119.730038 -416.293653 
L 1120.132649 -420.749277 
L 1120.503609 -425.2049 
L 1120.860516 -429.660524 
L 1121.216986 -434.116148 
L 1121.581552 -438.571771 
L 1121.9574 -443.027395 
L 1122.342895 -447.483018 
L 1122.732752 -451.938642 
L 1123.119669 -456.394266 
L 1123.496144 -460.849889 
L 1123.856182 -465.305513 
L 1124.196584 -469.761137 
L 1124.517574 -474.21676 
L 1124.822626 -478.672384 
L 1125.117521 -483.128007 
L 1125.408854 -487.583631 
L 1125.702334 -492.039255 
L 1126.001294 -496.494878 
L 1126.305763 -500.950502 
L 1126.612295 -505.406126 
L 1126.914584 -509.861749 
L 1127.20464 -514.317373 
L 1127.474248 -518.772996 
L 1127.716337 -523.22862 
L 1127.925995 -527.684244 
L 1128.100966 -532.139867 
L 1128.241626 -536.595491 
L 1128.350538 -541.051114 
L 1128.431766 -545.506738 
L 1128.768234 -545.506738 
L 1128.768234 -545.506738 
L 1128.849462 -541.051114 
L 1128.958374 -536.595491 
L 1129.099034 -532.139867 
L 1129.274005 -527.684244 
L 1129.483663 -523.22862 
L 1129.725752 -518.772996 
L 1129.99536 -514.317373 
L 1130.285416 -509.861749 
L 1130.587705 -505.406126 
L 1130.894237 -500.950502 
L 1131.198706 -496.494878 
L 1131.497666 -492.039255 
L 1131.791146 -487.583631 
L 1132.082479 -483.128007 
L 1132.377374 -478.672384 
L 1132.682426 -474.21676 
L 1133.003416 -469.761137 
L 1133.343818 -465.305513 
L 1133.703856 -460.849889 
L 1134.080331 -456.394266 
L 1134.467248 -451.938642 
L 1134.857105 -447.483018 
L 1135.2426 -443.027395 
L 1135.618448 -438.571771 
L 1135.983014 -434.116148 
L 1136.339484 -429.660524 
L 1136.696391 -425.2049 
L 1137.067351 -420.749277 
L 1137.469962 -416.293653 
L 1137.923968 -411.83803 
L 1138.44886 -407.382406 
L 1139.061272 -402.926782 
L 1139.772571 -398.471159 
L 1140.587066 -394.015535 
L 1141.501167 -389.559911 
L 1142.503642 -385.104288 
L 1143.576913 -380.648664 
L 1144.699105 -376.193041 
L 1145.846439 -371.737417 
L 1146.995574 -367.281793 
L 1148.12559 -362.82617 
L 1149.219515 -358.370546 
L 1150.265471 -353.914923 
L 1151.257605 -349.459299 
L 1152.196934 -345.003675 
L 1153.092043 -340.548052 
L 1153.959377 -336.092428 
L 1154.822686 -331.636804 
L 1155.711177 -327.181181 
L 1156.656159 -322.725557 
L 1157.686359 -318.269934 
L 1158.822559 -313.81431 
L 1160.072617 -309.358686 
L 1161.428027 -304.903063 
L 1162.862963 -300.447439 
L 1164.336195 -295.991816 
L 1165.795501 -291.536192 
L 1167.183546 -287.080568 
L 1168.443776 -282.624945 
L 1169.524977 -278.169321 
L 1170.38367 -273.713697 
L 1170.984287 -269.258074 
L 1171.297883 -264.80245 
L 1171.300611 -260.346827 
L 1170.973145 -255.891203 
L 1170.301756 -251.435579 
L 1169.280974 -246.979956 
L 1167.916987 -242.524332 
L 1166.230526 -238.068709 
L 1164.258005 -233.613085 
L 1162.050186 -229.157461 
L 1159.668387 -224.701838 
L 1157.17894 -220.246214 
L 1154.647108 -215.79059 
L 1152.131702 -211.334967 
L 1149.681372 -206.879343 
L 1147.333027 -202.42372 
L 1145.112259 -197.968096 
L 1143.035223 -193.512472 
L 1141.111186 -189.056849 
L 1139.344992 -184.601225 
L 1137.73888 -180.145601 
L 1136.293417 -175.689978 
L 1135.007623 -171.234354 
L 1133.878568 -166.778731 
L 1132.900847 -162.323107 
L 1132.066259 -157.867483 
L 1131.363918 -153.41186 
L 1130.780809 -148.956236 
L 1130.302664 -144.500613 
L 1129.91495 -140.044989 
L 1129.603753 -135.589365 
L 1129.356406 -131.133742 
L 1129.161811 -126.678118 
L 1129.010484 -122.222494 
L 1128.894417 -117.766871 
L 1128.806854 -113.311247 
L 1128.74207 -108.855624 
L 1128.695203 -104.4 
z
" style="stroke: #3f3f3f; stroke-width: 1.25"/>
    </defs>
    <g clip-path="url(#p2c600bcea0)">
     <use xlink:href="#mb54813b7c5" x="0" y="720" style="fill: #3274a1; stroke: #3f3f3f; stroke-width: 1.25"/>
    </g>
   </g>
   <g id="PolyCollection_10">
    <defs>
     <path id="mbd712f0a94" d="M 1240.295632 -105.405986 
L 1240.104368 -105.405986 
L 1240.056822 -109.841287 
L 1239.991106 -114.276588 
L 1239.902385 -118.711888 
L 1239.784983 -123.147189 
L 1239.632155 -127.58249 
L 1239.435754 -132.01779 
L 1239.185852 -136.453091 
L 1238.870406 -140.888392 
L 1238.475133 -145.323692 
L 1237.983742 -149.758993 
L 1237.378631 -154.194294 
L 1236.642061 -158.629594 
L 1235.757671 -163.064895 
L 1234.712046 -167.500196 
L 1233.496009 -171.935496 
L 1232.105282 -176.370797 
L 1230.540349 -180.806098 
L 1228.805545 -185.241398 
L 1226.907712 -189.676699 
L 1224.854965 -194.112 
L 1222.656204 -198.5473 
L 1220.321882 -202.982601 
L 1217.866166 -207.417901 
L 1215.310177 -211.853202 
L 1212.685444 -216.288503 
L 1210.03644 -220.723803 
L 1207.421046 -225.159104 
L 1204.908234 -229.594405 
L 1202.572979 -234.029705 
L 1200.489226 -238.465006 
L 1198.722419 -242.900307 
L 1197.323242 -247.335607 
L 1196.323906 -251.770908 
L 1195.737503 -256.206209 
L 1195.56 -260.641509 
L 1195.773686 -265.07681 
L 1196.350609 -269.512111 
L 1197.25485 -273.947411 
L 1198.443247 -278.382712 
L 1199.865012 -282.818013 
L 1201.461384 -287.253313 
L 1203.166569 -291.688614 
L 1204.910842 -296.123915 
L 1206.625918 -300.559215 
L 1208.251772 -304.994516 
L 1209.743455 -309.429817 
L 1211.076223 -313.865117 
L 1212.247632 -318.300418 
L 1213.275952 -322.735719 
L 1214.19521 -327.171019 
L 1215.047961 -331.60632 
L 1215.877387 -336.041621 
L 1216.720361 -340.476921 
L 1217.602706 -344.912222 
L 1218.53722 -349.347523 
L 1219.524306 -353.782823 
L 1220.554489 -358.218124 
L 1221.611831 -362.653425 
L 1222.677332 -367.088725 
L 1223.731692 -371.524026 
L 1224.757204 -375.959327 
L 1225.738861 -380.394627 
L 1226.66493 -384.829928 
L 1227.527237 -389.265229 
L 1228.321304 -393.700529 
L 1229.04633 -398.13583 
L 1229.704957 -402.571131 
L 1230.302772 -407.006431 
L 1230.847544 -411.441732 
L 1231.34833 -415.877033 
L 1231.814572 -420.312333 
L 1232.255337 -424.747634 
L 1232.678751 -429.182935 
L 1233.091615 -433.618235 
L 1233.499134 -438.053536 
L 1233.90471 -442.488837 
L 1234.309795 -446.924137 
L 1234.71387 -451.359438 
L 1235.114644 -455.794739 
L 1235.508552 -460.230039 
L 1235.891513 -464.66534 
L 1236.259836 -469.100641 
L 1236.611034 -473.535941 
L 1236.944336 -477.971242 
L 1237.260704 -482.406543 
L 1237.562366 -486.841843 
L 1237.851965 -491.277144 
L 1238.131604 -495.712445 
L 1238.402045 -500.147745 
L 1238.662306 -504.583046 
L 1238.909748 -509.018346 
L 1239.140603 -513.453647 
L 1239.350779 -517.888948 
L 1239.536712 -522.324248 
L 1239.696054 -526.759549 
L 1239.82806 -531.19485 
L 1239.93363 -535.63015 
L 1240.01506 -540.065451 
L 1240.075609 -544.500752 
L 1240.324391 -544.500752 
L 1240.324391 -544.500752 
L 1240.38494 -540.065451 
L 1240.46637 -535.63015 
L 1240.57194 -531.19485 
L 1240.703946 -526.759549 
L 1240.863288 -522.324248 
L 1241.049221 -517.888948 
L 1241.259397 -513.453647 
L 1241.490252 -509.018346 
L 1241.737694 -504.583046 
L 1241.997955 -500.147745 
L 1242.268396 -495.712445 
L 1242.548035 -491.277144 
L 1242.837634 -486.841843 
L 1243.139296 -482.406543 
L 1243.455664 -477.971242 
L 1243.788966 -473.535941 
L 1244.140164 -469.100641 
L 1244.508487 -464.66534 
L 1244.891448 -460.230039 
L 1245.285356 -455.794739 
L 1245.68613 -451.359438 
L 1246.090205 -446.924137 
L 1246.49529 -442.488837 
L 1246.900866 -438.053536 
L 1247.308385 -433.618235 
L 1247.721249 -429.182935 
L 1248.144663 -424.747634 
L 1248.585428 -420.312333 
L 1249.05167 -415.877033 
L 1249.552456 -411.441732 
L 1250.097228 -407.006431 
L 1250.695043 -402.571131 
L 1251.35367 -398.13583 
L 1252.078696 -393.700529 
L 1252.872763 -389.265229 
L 1253.73507 -384.829928 
L 1254.661139 -380.394627 
L 1255.642796 -375.959327 
L 1256.668308 -371.524026 
L 1257.722668 -367.088725 
L 1258.788169 -362.653425 
L 1259.845511 -358.218124 
L 1260.875694 -353.782823 
L 1261.86278 -349.347523 
L 1262.797294 -344.912222 
L 1263.679639 -340.476921 
L 1264.522613 -336.041621 
L 1265.352039 -331.60632 
L 1266.20479 -327.171019 
L 1267.124048 -322.735719 
L 1268.152368 -318.300418 
L 1269.323777 -313.865117 
L 1270.656545 -309.429817 
L 1272.148228 -304.994516 
L 1273.774082 -300.559215 
L 1275.489158 -296.123915 
L 1277.233431 -291.688614 
L 1278.938616 -287.253313 
L 1280.534988 -282.818013 
L 1281.956753 -278.382712 
L 1283.14515 -273.947411 
L 1284.049391 -269.512111 
L 1284.626314 -265.07681 
L 1284.84 -260.641509 
L 1284.662497 -256.206209 
L 1284.076094 -251.770908 
L 1283.076758 -247.335607 
L 1281.677581 -242.900307 
L 1279.910774 -238.465006 
L 1277.827021 -234.029705 
L 1275.491766 -229.594405 
L 1272.978954 -225.159104 
L 1270.36356 -220.723803 
L 1267.714556 -216.288503 
L 1265.089823 -211.853202 
L 1262.533834 -207.417901 
L 1260.078118 -202.982601 
L 1257.743796 -198.5473 
L 1255.545035 -194.112 
L 1253.492288 -189.676699 
L 1251.594455 -185.241398 
L 1249.859651 -180.806098 
L 1248.294718 -176.370797 
L 1246.903991 -171.935496 
L 1245.687954 -167.500196 
L 1244.642329 -163.064895 
L 1243.757939 -158.629594 
L 1243.021369 -154.194294 
L 1242.416258 -149.758993 
L 1241.924867 -145.323692 
L 1241.529594 -140.888392 
L 1241.214148 -136.453091 
L 1240.964246 -132.01779 
L 1240.767845 -127.58249 
L 1240.615017 -123.147189 
L 1240.497615 -118.711888 
L 1240.408894 -114.276588 
L 1240.343178 -109.841287 
L 1240.295632 -105.405986 
z
" style="stroke: #3f3f3f; stroke-width: 1.25"/>
    </defs>
    <g clip-path="url(#p2c600bcea0)">
     <use xlink:href="#mbd712f0a94" x="0" y="720" style="fill: #3274a1; stroke: #3f3f3f; stroke-width: 1.25"/>
    </g>
   </g>
   <g id="matplotlib.axis_1">
    <g id="xtick_1">
     <g id="line2d_1">
      <defs>
       <path id="mcc0d1c8ba3" d="M 0 0 
L 0 3.5 
" style="stroke: #000000; stroke-width: 0.8"/>
      </defs>
      <g>
       <use xlink:href="#mcc0d1c8ba3" x="235.8" y="640.8" style="stroke: #000000; stroke-width: 0.8"/>
      </g>
     </g>
     <g id="text_1">
      <!-- 0 -->
      <g transform="translate(232.61875 655.398438) scale(0.1 -0.1)">
       <defs>
        <path id="DejaVuSans-30" d="M 2034 4250 
Q 1547 4250 1301 3770 
Q 1056 3291 1056 2328 
Q 1056 1369 1301 889 
Q 1547 409 2034 409 
Q 2525 409 2770 889 
Q 3016 1369 3016 2328 
Q 3016 3291 2770 3770 
Q 2525 4250 2034 4250 
z
M 2034 4750 
Q 2819 4750 3233 4129 
Q 3647 3509 3647 2328 
Q 3647 1150 3233 529 
Q 2819 -91 2034 -91 
Q 1250 -91 836 529 
Q 422 1150 422 2328 
Q 422 3509 836 4129 
Q 1250 4750 2034 4750 
z
" transform="scale(0.015625)"/>
       </defs>
       <use xlink:href="#DejaVuSans-30"/>
      </g>
     </g>
    </g>
    <g id="xtick_2">
     <g id="line2d_2">
      <g>
       <use xlink:href="#mcc0d1c8ba3" x="347.4" y="640.8" style="stroke: #000000; stroke-width: 0.8"/>
      </g>
     </g>
     <g id="text_2">
      <!-- 1 -->
      <g transform="translate(344.21875 655.398438) scale(0.1 -0.1)">
       <defs>
        <path id="DejaVuSans-31" d="M 794 531 
L 1825 531 
L 1825 4091 
L 703 3866 
L 703 4441 
L 1819 4666 
L 2450 4666 
L 2450 531 
L 3481 531 
L 3481 0 
L 794 0 
L 794 531 
z
" transform="scale(0.015625)"/>
       </defs>
       <use xlink:href="#DejaVuSans-31"/>
      </g>
     </g>
    </g>
    <g id="xtick_3">
     <g id="line2d_3">
      <g>
       <use xlink:href="#mcc0d1c8ba3" x="459" y="640.8" style="stroke: #000000; stroke-width: 0.8"/>
      </g>
     </g>
     <g id="text_3">
      <!-- 2 -->
      <g transform="translate(455.81875 655.398438) scale(0.1 -0.1)">
       <defs>
        <path id="DejaVuSans-32" d="M 1228 531 
L 3431 531 
L 3431 0 
L 469 0 
L 469 531 
Q 828 903 1448 1529 
Q 2069 2156 2228 2338 
Q 2531 2678 2651 2914 
Q 2772 3150 2772 3378 
Q 2772 3750 2511 3984 
Q 2250 4219 1831 4219 
Q 1534 4219 1204 4116 
Q 875 4013 500 3803 
L 500 4441 
Q 881 4594 1212 4672 
Q 1544 4750 1819 4750 
Q 2544 4750 2975 4387 
Q 3406 4025 3406 3419 
Q 3406 3131 3298 2873 
Q 3191 2616 2906 2266 
Q 2828 2175 2409 1742 
Q 1991 1309 1228 531 
z
" transform="scale(0.015625)"/>
       </defs>
       <use xlink:href="#DejaVuSans-32"/>
      </g>
     </g>
    </g>
    <g id="xtick_4">
     <g id="line2d_4">
      <g>
       <use xlink:href="#mcc0d1c8ba3" x="570.6" y="640.8" style="stroke: #000000; stroke-width: 0.8"/>
      </g>
     </g>
     <g id="text_4">
      <!-- 3 -->
      <g transform="translate(567.41875 655.398438) scale(0.1 -0.1)">
       <defs>
        <path id="DejaVuSans-33" d="M 2597 2516 
Q 3050 2419 3304 2112 
Q 3559 1806 3559 1356 
Q 3559 666 3084 287 
Q 2609 -91 1734 -91 
Q 1441 -91 1130 -33 
Q 819 25 488 141 
L 488 750 
Q 750 597 1062 519 
Q 1375 441 1716 441 
Q 2309 441 2620 675 
Q 2931 909 2931 1356 
Q 2931 1769 2642 2001 
Q 2353 2234 1838 2234 
L 1294 2234 
L 1294 2753 
L 1863 2753 
Q 2328 2753 2575 2939 
Q 2822 3125 2822 3475 
Q 2822 3834 2567 4026 
Q 2313 4219 1838 4219 
Q 1578 4219 1281 4162 
Q 984 4106 628 3988 
L 628 4550 
Q 988 4650 1302 4700 
Q 1616 4750 1894 4750 
Q 2613 4750 3031 4423 
Q 3450 4097 3450 3541 
Q 3450 3153 3228 2886 
Q 3006 2619 2597 2516 
z
" transform="scale(0.015625)"/>
       </defs>
       <use xlink:href="#DejaVuSans-33"/>
      </g>
     </g>
    </g>
    <g id="xtick_5">
     <g id="line2d_5">
      <g>
       <use xlink:href="#mcc0d1c8ba3" x="682.2" y="640.8" style="stroke: #000000; stroke-width: 0.8"/>
      </g>
     </g>
     <g id="text_5">
      <!-- 4 -->
      <g transform="translate(679.01875 655.398438) scale(0.1 -0.1)">
       <defs>
        <path id="DejaVuSans-34" d="M 2419 4116 
L 825 1625 
L 2419 1625 
L 2419 4116 
z
M 2253 4666 
L 3047 4666 
L 3047 1625 
L 3713 1625 
L 3713 1100 
L 3047 1100 
L 3047 0 
L 2419 0 
L 2419 1100 
L 313 1100 
L 313 1709 
L 2253 4666 
z
" transform="scale(0.015625)"/>
       </defs>
       <use xlink:href="#DejaVuSans-34"/>
      </g>
     </g>
    </g>
    <g id="xtick_6">
     <g id="line2d_6">
      <g>
       <use xlink:href="#mcc0d1c8ba3" x="793.8" y="640.8" style="stroke: #000000; stroke-width: 0.8"/>
      </g>
     </g>
     <g id="text_6">
      <!-- 5 -->
      <g transform="translate(790.61875 655.398438) scale(0.1 -0.1)">
       <defs>
        <path id="DejaVuSans-35" d="M 691 4666 
L 3169 4666 
L 3169 4134 
L 1269 4134 
L 1269 2991 
Q 1406 3038 1543 3061 
Q 1681 3084 1819 3084 
Q 2600 3084 3056 2656 
Q 3513 2228 3513 1497 
Q 3513 744 3044 326 
Q 2575 -91 1722 -91 
Q 1428 -91 1123 -41 
Q 819 9 494 109 
L 494 744 
Q 775 591 1075 516 
Q 1375 441 1709 441 
Q 2250 441 2565 725 
Q 2881 1009 2881 1497 
Q 2881 1984 2565 2268 
Q 2250 2553 1709 2553 
Q 1456 2553 1204 2497 
Q 953 2441 691 2322 
L 691 4666 
z
" transform="scale(0.015625)"/>
       </defs>
       <use xlink:href="#DejaVuSans-35"/>
      </g>
     </g>
    </g>
    <g id="xtick_7">
     <g id="line2d_7">
      <g>
       <use xlink:href="#mcc0d1c8ba3" x="905.4" y="640.8" style="stroke: #000000; stroke-width: 0.8"/>
      </g>
     </g>
     <g id="text_7">
      <!-- 6 -->
      <g transform="translate(902.21875 655.398438) scale(0.1 -0.1)">
       <defs>
        <path id="DejaVuSans-36" d="M 2113 2584 
Q 1688 2584 1439 2293 
Q 1191 2003 1191 1497 
Q 1191 994 1439 701 
Q 1688 409 2113 409 
Q 2538 409 2786 701 
Q 3034 994 3034 1497 
Q 3034 2003 2786 2293 
Q 2538 2584 2113 2584 
z
M 3366 4563 
L 3366 3988 
Q 3128 4100 2886 4159 
Q 2644 4219 2406 4219 
Q 1781 4219 1451 3797 
Q 1122 3375 1075 2522 
Q 1259 2794 1537 2939 
Q 1816 3084 2150 3084 
Q 2853 3084 3261 2657 
Q 3669 2231 3669 1497 
Q 3669 778 3244 343 
Q 2819 -91 2113 -91 
Q 1303 -91 875 529 
Q 447 1150 447 2328 
Q 447 3434 972 4092 
Q 1497 4750 2381 4750 
Q 2619 4750 2861 4703 
Q 3103 4656 3366 4563 
z
" transform="scale(0.015625)"/>
       </defs>
       <use xlink:href="#DejaVuSans-36"/>
      </g>
     </g>
    </g>
    <g id="xtick_8">
     <g id="line2d_8">
      <g>
       <use xlink:href="#mcc0d1c8ba3" x="1017" y="640.8" style="stroke: #000000; stroke-width: 0.8"/>
      </g>
     </g>
     <g id="text_8">
      <!-- 7 -->
      <g transform="translate(1013.81875 655.398438) scale(0.1 -0.1)">
       <defs>
        <path id="DejaVuSans-37" d="M 525 4666 
L 3525 4666 
L 3525 4397 
L 1831 0 
L 1172 0 
L 2766 4134 
L 525 4134 
L 525 4666 
z
" transform="scale(0.015625)"/>
       </defs>
       <use xlink:href="#DejaVuSans-37"/>
      </g>
     </g>
    </g>
    <g id="xtick_9">
     <g id="line2d_9">
      <g>
       <use xlink:href="#mcc0d1c8ba3" x="1128.6" y="640.8" style="stroke: #000000; stroke-width: 0.8"/>
      </g>
     </g>
     <g id="text_9">
      <!-- 8 -->
      <g transform="translate(1125.41875 655.398438) scale(0.1 -0.1)">
       <defs>
        <path id="DejaVuSans-38" d="M 2034 2216 
Q 1584 2216 1326 1975 
Q 1069 1734 1069 1313 
Q 1069 891 1326 650 
Q 1584 409 2034 409 
Q 2484 409 2743 651 
Q 3003 894 3003 1313 
Q 3003 1734 2745 1975 
Q 2488 2216 2034 2216 
z
M 1403 2484 
Q 997 2584 770 2862 
Q 544 3141 544 3541 
Q 544 4100 942 4425 
Q 1341 4750 2034 4750 
Q 2731 4750 3128 4425 
Q 3525 4100 3525 3541 
Q 3525 3141 3298 2862 
Q 3072 2584 2669 2484 
Q 3125 2378 3379 2068 
Q 3634 1759 3634 1313 
Q 3634 634 3220 271 
Q 2806 -91 2034 -91 
Q 1263 -91 848 271 
Q 434 634 434 1313 
Q 434 1759 690 2068 
Q 947 2378 1403 2484 
z
M 1172 3481 
Q 1172 3119 1398 2916 
Q 1625 2713 2034 2713 
Q 2441 2713 2670 2916 
Q 2900 3119 2900 3481 
Q 2900 3844 2670 4047 
Q 2441 4250 2034 4250 
Q 1625 4250 1398 4047 
Q 1172 3844 1172 3481 
z
" transform="scale(0.015625)"/>
       </defs>
       <use xlink:href="#DejaVuSans-38"/>
      </g>
     </g>
    </g>
    <g id="xtick_10">
     <g id="line2d_10">
      <g>
       <use xlink:href="#mcc0d1c8ba3" x="1240.2" y="640.8" style="stroke: #000000; stroke-width: 0.8"/>
      </g>
     </g>
     <g id="text_10">
      <!-- 9 -->
      <g transform="translate(1237.01875 655.398438) scale(0.1 -0.1)">
       <defs>
        <path id="DejaVuSans-39" d="M 703 97 
L 703 672 
Q 941 559 1184 500 
Q 1428 441 1663 441 
Q 2288 441 2617 861 
Q 2947 1281 2994 2138 
Q 2813 1869 2534 1725 
Q 2256 1581 1919 1581 
Q 1219 1581 811 2004 
Q 403 2428 403 3163 
Q 403 3881 828 4315 
Q 1253 4750 1959 4750 
Q 2769 4750 3195 4129 
Q 3622 3509 3622 2328 
Q 3622 1225 3098 567 
Q 2575 -91 1691 -91 
Q 1453 -91 1209 -44 
Q 966 3 703 97 
z
M 1959 2075 
Q 2384 2075 2632 2365 
Q 2881 2656 2881 3163 
Q 2881 3666 2632 3958 
Q 2384 4250 1959 4250 
Q 1534 4250 1286 3958 
Q 1038 3666 1038 3163 
Q 1038 2656 1286 2365 
Q 1534 2075 1959 2075 
z
" transform="scale(0.015625)"/>
       </defs>
       <use xlink:href="#DejaVuSans-39"/>
      </g>
     </g>
    </g>
    <g id="text_11">
     <!-- iteration -->
     <g transform="translate(716.877344 669.076563) scale(0.1 -0.1)">
      <defs>
       <path id="DejaVuSans-69" d="M 603 3500 
L 1178 3500 
L 1178 0 
L 603 0 
L 603 3500 
z
M 603 4863 
L 1178 4863 
L 1178 4134 
L 603 4134 
L 603 4863 
z
" transform="scale(0.015625)"/>
       <path id="DejaVuSans-74" d="M 1172 4494 
L 1172 3500 
L 2356 3500 
L 2356 3053 
L 1172 3053 
L 1172 1153 
Q 1172 725 1289 603 
Q 1406 481 1766 481 
L 2356 481 
L 2356 0 
L 1766 0 
Q 1100 0 847 248 
Q 594 497 594 1153 
L 594 3053 
L 172 3053 
L 172 3500 
L 594 3500 
L 594 4494 
L 1172 4494 
z
" transform="scale(0.015625)"/>
       <path id="DejaVuSans-65" d="M 3597 1894 
L 3597 1613 
L 953 1613 
Q 991 1019 1311 708 
Q 1631 397 2203 397 
Q 2534 397 2845 478 
Q 3156 559 3463 722 
L 3463 178 
Q 3153 47 2828 -22 
Q 2503 -91 2169 -91 
Q 1331 -91 842 396 
Q 353 884 353 1716 
Q 353 2575 817 3079 
Q 1281 3584 2069 3584 
Q 2775 3584 3186 3129 
Q 3597 2675 3597 1894 
z
M 3022 2063 
Q 3016 2534 2758 2815 
Q 2500 3097 2075 3097 
Q 1594 3097 1305 2825 
Q 1016 2553 972 2059 
L 3022 2063 
z
" transform="scale(0.015625)"/>
       <path id="DejaVuSans-72" d="M 2631 2963 
Q 2534 3019 2420 3045 
Q 2306 3072 2169 3072 
Q 1681 3072 1420 2755 
Q 1159 2438 1159 1844 
L 1159 0 
L 581 0 
L 581 3500 
L 1159 3500 
L 1159 2956 
Q 1341 3275 1631 3429 
Q 1922 3584 2338 3584 
Q 2397 3584 2469 3576 
Q 2541 3569 2628 3553 
L 2631 2963 
z
" transform="scale(0.015625)"/>
       <path id="DejaVuSans-61" d="M 2194 1759 
Q 1497 1759 1228 1600 
Q 959 1441 959 1056 
Q 959 750 1161 570 
Q 1363 391 1709 391 
Q 2188 391 2477 730 
Q 2766 1069 2766 1631 
L 2766 1759 
L 2194 1759 
z
M 3341 1997 
L 3341 0 
L 2766 0 
L 2766 531 
Q 2569 213 2275 61 
Q 1981 -91 1556 -91 
Q 1019 -91 701 211 
Q 384 513 384 1019 
Q 384 1609 779 1909 
Q 1175 2209 1959 2209 
L 2766 2209 
L 2766 2266 
Q 2766 2663 2505 2880 
Q 2244 3097 1772 3097 
Q 1472 3097 1187 3025 
Q 903 2953 641 2809 
L 641 3341 
Q 956 3463 1253 3523 
Q 1550 3584 1831 3584 
Q 2591 3584 2966 3190 
Q 3341 2797 3341 1997 
z
" transform="scale(0.015625)"/>
       <path id="DejaVuSans-6f" d="M 1959 3097 
Q 1497 3097 1228 2736 
Q 959 2375 959 1747 
Q 959 1119 1226 758 
Q 1494 397 1959 397 
Q 2419 397 2687 759 
Q 2956 1122 2956 1747 
Q 2956 2369 2687 2733 
Q 2419 3097 1959 3097 
z
M 1959 3584 
Q 2709 3584 3137 3096 
Q 3566 2609 3566 1747 
Q 3566 888 3137 398 
Q 2709 -91 1959 -91 
Q 1206 -91 779 398 
Q 353 888 353 1747 
Q 353 2609 779 3096 
Q 1206 3584 1959 3584 
z
" transform="scale(0.015625)"/>
       <path id="DejaVuSans-6e" d="M 3513 2113 
L 3513 0 
L 2938 0 
L 2938 2094 
Q 2938 2591 2744 2837 
Q 2550 3084 2163 3084 
Q 1697 3084 1428 2787 
Q 1159 2491 1159 1978 
L 1159 0 
L 581 0 
L 581 3500 
L 1159 3500 
L 1159 2956 
Q 1366 3272 1645 3428 
Q 1925 3584 2291 3584 
Q 2894 3584 3203 3211 
Q 3513 2838 3513 2113 
z
" transform="scale(0.015625)"/>
      </defs>
      <use xlink:href="#DejaVuSans-69"/>
      <use xlink:href="#DejaVuSans-74" x="27.783203"/>
      <use xlink:href="#DejaVuSans-65" x="66.992188"/>
      <use xlink:href="#DejaVuSans-72" x="128.515625"/>
      <use xlink:href="#DejaVuSans-61" x="169.628906"/>
      <use xlink:href="#DejaVuSans-74" x="230.908203"/>
      <use xlink:href="#DejaVuSans-69" x="270.117188"/>
      <use xlink:href="#DejaVuSans-6f" x="297.900391"/>
      <use xlink:href="#DejaVuSans-6e" x="359.082031"/>
     </g>
    </g>
   </g>
   <g id="matplotlib.axis_2">
    <g id="ytick_1">
     <g id="line2d_11">
      <defs>
       <path id="mc7a2907ecf" d="M 0 0 
L -3.5 0 
" style="stroke: #000000; stroke-width: 0.8"/>
      </defs>
      <g>
       <use xlink:href="#mc7a2907ecf" x="180" y="599.93627" style="stroke: #000000; stroke-width: 0.8"/>
      </g>
     </g>
     <g id="text_12">
      <!-- 0.2 -->
      <g transform="translate(148.717187 603.735489) scale(0.1 -0.1)">
       <defs>
        <path id="DejaVuSans-2212" d="M 678 2272 
L 4684 2272 
L 4684 1741 
L 678 1741 
L 678 2272 
z
" transform="scale(0.015625)"/>
        <path id="DejaVuSans-2e" d="M 684 794 
L 1344 794 
L 1344 0 
L 684 0 
L 684 794 
z
" transform="scale(0.015625)"/>
       </defs>
       <use xlink:href="#DejaVuSans-2212"/>
       <use xlink:href="#DejaVuSans-30" x="83.789062"/>
       <use xlink:href="#DejaVuSans-2e" x="147.412109"/>
       <use xlink:href="#DejaVuSans-32" x="179.199219"/>
      </g>
     </g>
    </g>
    <g id="ytick_2">
     <g id="line2d_12">
      <g>
       <use xlink:href="#mc7a2907ecf" x="180" y="527.39679" style="stroke: #000000; stroke-width: 0.8"/>
      </g>
     </g>
     <g id="text_13">
      <!-- 0.0 -->
      <g transform="translate(157.096875 531.196008) scale(0.1 -0.1)">
       <use xlink:href="#DejaVuSans-30"/>
       <use xlink:href="#DejaVuSans-2e" x="63.623047"/>
       <use xlink:href="#DejaVuSans-30" x="95.410156"/>
      </g>
     </g>
    </g>
    <g id="ytick_3">
     <g id="line2d_13">
      <g>
       <use xlink:href="#mc7a2907ecf" x="180" y="454.857309" style="stroke: #000000; stroke-width: 0.8"/>
      </g>
     </g>
     <g id="text_14">
      <!-- 0.2 -->
      <g transform="translate(157.096875 458.656527) scale(0.1 -0.1)">
       <use xlink:href="#DejaVuSans-30"/>
       <use xlink:href="#DejaVuSans-2e" x="63.623047"/>
       <use xlink:href="#DejaVuSans-32" x="95.410156"/>
      </g>
     </g>
    </g>
    <g id="ytick_4">
     <g id="line2d_14">
      <g>
       <use xlink:href="#mc7a2907ecf" x="180" y="382.317828" style="stroke: #000000; stroke-width: 0.8"/>
      </g>
     </g>
     <g id="text_15">
      <!-- 0.4 -->
      <g transform="translate(157.096875 386.117046) scale(0.1 -0.1)">
       <use xlink:href="#DejaVuSans-30"/>
       <use xlink:href="#DejaVuSans-2e" x="63.623047"/>
       <use xlink:href="#DejaVuSans-34" x="95.410156"/>
      </g>
     </g>
    </g>
    <g id="ytick_5">
     <g id="line2d_15">
      <g>
       <use xlink:href="#mc7a2907ecf" x="180" y="309.778347" style="stroke: #000000; stroke-width: 0.8"/>
      </g>
     </g>
     <g id="text_16">
      <!-- 0.6 -->
      <g transform="translate(157.096875 313.577565) scale(0.1 -0.1)">
       <use xlink:href="#DejaVuSans-30"/>
       <use xlink:href="#DejaVuSans-2e" x="63.623047"/>
       <use xlink:href="#DejaVuSans-36" x="95.410156"/>
      </g>
     </g>
    </g>
    <g id="ytick_6">
     <g id="line2d_16">
      <g>
       <use xlink:href="#mc7a2907ecf" x="180" y="237.238866" style="stroke: #000000; stroke-width: 0.8"/>
      </g>
     </g>
     <g id="text_17">
      <!-- 0.8 -->
      <g transform="translate(157.096875 241.038084) scale(0.1 -0.1)">
       <use xlink:href="#DejaVuSans-30"/>
       <use xlink:href="#DejaVuSans-2e" x="63.623047"/>
       <use xlink:href="#DejaVuSans-38" x="95.410156"/>
      </g>
     </g>
    </g>
    <g id="ytick_7">
     <g id="line2d_17">
      <g>
       <use xlink:href="#mc7a2907ecf" x="180" y="164.699385" style="stroke: #000000; stroke-width: 0.8"/>
      </g>
     </g>
     <g id="text_18">
      <!-- 1.0 -->
      <g transform="translate(157.096875 168.498603) scale(0.1 -0.1)">
       <use xlink:href="#DejaVuSans-31"/>
       <use xlink:href="#DejaVuSans-2e" x="63.623047"/>
       <use xlink:href="#DejaVuSans-30" x="95.410156"/>
      </g>
     </g>
    </g>
    <g id="ytick_8">
     <g id="line2d_18">
      <g>
       <use xlink:href="#mc7a2907ecf" x="180" y="92.159904" style="stroke: #000000; stroke-width: 0.8"/>
      </g>
     </g>
     <g id="text_19">
      <!-- 1.2 -->
      <g transform="translate(157.096875 95.959123) scale(0.1 -0.1)">
       <use xlink:href="#DejaVuSans-31"/>
       <use xlink:href="#DejaVuSans-2e" x="63.623047"/>
       <use xlink:href="#DejaVuSans-32" x="95.410156"/>
      </g>
     </g>
    </g>
    <g id="text_20">
     <!-- cosine similarity -->
     <g transform="translate(142.6375 404.307031) rotate(-90) scale(0.1 -0.1)">
      <defs>
       <path id="DejaVuSans-63" d="M 3122 3366 
L 3122 2828 
Q 2878 2963 2633 3030 
Q 2388 3097 2138 3097 
Q 1578 3097 1268 2742 
Q 959 2388 959 1747 
Q 959 1106 1268 751 
Q 1578 397 2138 397 
Q 2388 397 2633 464 
Q 2878 531 3122 666 
L 3122 134 
Q 2881 22 2623 -34 
Q 2366 -91 2075 -91 
Q 1284 -91 818 406 
Q 353 903 353 1747 
Q 353 2603 823 3093 
Q 1294 3584 2113 3584 
Q 2378 3584 2631 3529 
Q 2884 3475 3122 3366 
z
" transform="scale(0.015625)"/>
       <path id="DejaVuSans-73" d="M 2834 3397 
L 2834 2853 
Q 2591 2978 2328 3040 
Q 2066 3103 1784 3103 
Q 1356 3103 1142 2972 
Q 928 2841 928 2578 
Q 928 2378 1081 2264 
Q 1234 2150 1697 2047 
L 1894 2003 
Q 2506 1872 2764 1633 
Q 3022 1394 3022 966 
Q 3022 478 2636 193 
Q 2250 -91 1575 -91 
Q 1294 -91 989 -36 
Q 684 19 347 128 
L 347 722 
Q 666 556 975 473 
Q 1284 391 1588 391 
Q 1994 391 2212 530 
Q 2431 669 2431 922 
Q 2431 1156 2273 1281 
Q 2116 1406 1581 1522 
L 1381 1569 
Q 847 1681 609 1914 
Q 372 2147 372 2553 
Q 372 3047 722 3315 
Q 1072 3584 1716 3584 
Q 2034 3584 2315 3537 
Q 2597 3491 2834 3397 
z
" transform="scale(0.015625)"/>
       <path id="DejaVuSans-20" transform="scale(0.015625)"/>
       <path id="DejaVuSans-6d" d="M 3328 2828 
Q 3544 3216 3844 3400 
Q 4144 3584 4550 3584 
Q 5097 3584 5394 3201 
Q 5691 2819 5691 2113 
L 5691 0 
L 5113 0 
L 5113 2094 
Q 5113 2597 4934 2840 
Q 4756 3084 4391 3084 
Q 3944 3084 3684 2787 
Q 3425 2491 3425 1978 
L 3425 0 
L 2847 0 
L 2847 2094 
Q 2847 2600 2669 2842 
Q 2491 3084 2119 3084 
Q 1678 3084 1418 2786 
Q 1159 2488 1159 1978 
L 1159 0 
L 581 0 
L 581 3500 
L 1159 3500 
L 1159 2956 
Q 1356 3278 1631 3431 
Q 1906 3584 2284 3584 
Q 2666 3584 2933 3390 
Q 3200 3197 3328 2828 
z
" transform="scale(0.015625)"/>
       <path id="DejaVuSans-6c" d="M 603 4863 
L 1178 4863 
L 1178 0 
L 603 0 
L 603 4863 
z
" transform="scale(0.015625)"/>
       <path id="DejaVuSans-79" d="M 2059 -325 
Q 1816 -950 1584 -1140 
Q 1353 -1331 966 -1331 
L 506 -1331 
L 506 -850 
L 844 -850 
Q 1081 -850 1212 -737 
Q 1344 -625 1503 -206 
L 1606 56 
L 191 3500 
L 800 3500 
L 1894 763 
L 2988 3500 
L 3597 3500 
L 2059 -325 
z
" transform="scale(0.015625)"/>
      </defs>
      <use xlink:href="#DejaVuSans-63"/>
      <use xlink:href="#DejaVuSans-6f" x="54.980469"/>
      <use xlink:href="#DejaVuSans-73" x="116.162109"/>
      <use xlink:href="#DejaVuSans-69" x="168.261719"/>
      <use xlink:href="#DejaVuSans-6e" x="196.044922"/>
      <use xlink:href="#DejaVuSans-65" x="259.423828"/>
      <use xlink:href="#DejaVuSans-20" x="320.947266"/>
      <use xlink:href="#DejaVuSans-73" x="352.734375"/>
      <use xlink:href="#DejaVuSans-69" x="404.833984"/>
      <use xlink:href="#DejaVuSans-6d" x="432.617188"/>
      <use xlink:href="#DejaVuSans-69" x="530.029297"/>
      <use xlink:href="#DejaVuSans-6c" x="557.8125"/>
      <use xlink:href="#DejaVuSans-61" x="585.595703"/>
      <use xlink:href="#DejaVuSans-72" x="646.875"/>
      <use xlink:href="#DejaVuSans-69" x="687.988281"/>
      <use xlink:href="#DejaVuSans-74" x="715.771484"/>
      <use xlink:href="#DejaVuSans-79" x="754.980469"/>
     </g>
    </g>
   </g>
   <g id="line2d_19">
    <path d="M 235.8 510.525224 
L 235.8 164.699341 
" clip-path="url(#p2c600bcea0)" style="fill: none; stroke: #3f3f3f; stroke-width: 1.875; stroke-linecap: square"/>
   </g>
   <g id="line2d_20">
    <path d="M 235.8 374.705394 
L 235.8 281.812857 
" clip-path="url(#p2c600bcea0)" style="fill: none; stroke: #3f3f3f; stroke-width: 5.625; stroke-linecap: square"/>
   </g>
   <g id="line2d_21">
    <path d="M 235.8 329.681105 
" clip-path="url(#p2c600bcea0)" style="fill: none; stroke: #3f3f3f; stroke-width: 1.5; stroke-linecap: square"/>
    <defs>
     <path id="mc657b1e7fc" d="M 2.34375 0 
L -2.34375 -0 
" style="stroke: #ffffff; stroke-width: 1.125"/>
    </defs>
    <g clip-path="url(#p2c600bcea0)">
     <use xlink:href="#mc657b1e7fc" x="235.8" y="329.681105" style="fill: #ffffff; stroke: #ffffff; stroke-width: 1.125"/>
    </g>
   </g>
   <g id="line2d_22">
    <path d="M 347.4 557.571349 
L 347.4 164.699385 
" clip-path="url(#p2c600bcea0)" style="fill: none; stroke: #3f3f3f; stroke-width: 1.875; stroke-linecap: square"/>
   </g>
   <g id="line2d_23">
    <path d="M 347.4 429.049018 
L 347.4 318.418081 
" clip-path="url(#p2c600bcea0)" style="fill: none; stroke: #3f3f3f; stroke-width: 5.625; stroke-linecap: square"/>
   </g>
   <g id="line2d_24">
    <path d="M 347.4 371.590388 
" clip-path="url(#p2c600bcea0)" style="fill: none; stroke: #3f3f3f; stroke-width: 1.5; stroke-linecap: square"/>
    <g clip-path="url(#p2c600bcea0)">
     <use xlink:href="#mc657b1e7fc" x="347.4" y="371.590388" style="fill: #ffffff; stroke: #ffffff; stroke-width: 1.125"/>
    </g>
   </g>
   <g id="line2d_25">
    <path d="M 459 530.999672 
L 459 194.903775 
" clip-path="url(#p2c600bcea0)" style="fill: none; stroke: #3f3f3f; stroke-width: 1.875; stroke-linecap: square"/>
   </g>
   <g id="line2d_26">
    <path d="M 459 444.494324 
L 459 336.345321 
" clip-path="url(#p2c600bcea0)" style="fill: none; stroke: #3f3f3f; stroke-width: 5.625; stroke-linecap: square"/>
   </g>
   <g id="line2d_27">
    <path d="M 459 398.83524 
" clip-path="url(#p2c600bcea0)" style="fill: none; stroke: #3f3f3f; stroke-width: 1.5; stroke-linecap: square"/>
    <g clip-path="url(#p2c600bcea0)">
     <use xlink:href="#mc657b1e7fc" x="459" y="398.83524" style="fill: #ffffff; stroke: #ffffff; stroke-width: 1.125"/>
    </g>
   </g>
   <g id="line2d_28">
    <path d="M 570.6 546.851999 
L 570.6 194.903775 
" clip-path="url(#p2c600bcea0)" style="fill: none; stroke: #3f3f3f; stroke-width: 1.875; stroke-linecap: square"/>
   </g>
   <g id="line2d_29">
    <path d="M 570.6 459.192892 
L 570.6 344.450197 
" clip-path="url(#p2c600bcea0)" style="fill: none; stroke: #3f3f3f; stroke-width: 5.625; stroke-linecap: square"/>
   </g>
   <g id="line2d_30">
    <path d="M 570.6 414.574196 
" clip-path="url(#p2c600bcea0)" style="fill: none; stroke: #3f3f3f; stroke-width: 1.5; stroke-linecap: square"/>
    <g clip-path="url(#p2c600bcea0)">
     <use xlink:href="#mc657b1e7fc" x="570.6" y="414.574196" style="fill: #ffffff; stroke: #ffffff; stroke-width: 1.125"/>
    </g>
   </g>
   <g id="line2d_31">
    <path d="M 682.2 547.950096 
L 682.2 194.903775 
" clip-path="url(#p2c600bcea0)" style="fill: none; stroke: #3f3f3f; stroke-width: 1.875; stroke-linecap: square"/>
   </g>
   <g id="line2d_32">
    <path d="M 682.2 463.720069 
L 682.2 352.065748 
" clip-path="url(#p2c600bcea0)" style="fill: none; stroke: #3f3f3f; stroke-width: 5.625; stroke-linecap: square"/>
   </g>
   <g id="line2d_33">
    <path d="M 682.2 418.999995 
" clip-path="url(#p2c600bcea0)" style="fill: none; stroke: #3f3f3f; stroke-width: 1.5; stroke-linecap: square"/>
    <g clip-path="url(#p2c600bcea0)">
     <use xlink:href="#mc657b1e7fc" x="682.2" y="418.999995" style="fill: #ffffff; stroke: #ffffff; stroke-width: 1.125"/>
    </g>
   </g>
   <g id="line2d_34">
    <path d="M 793.8 547.950096 
L 793.8 222.376199 
" clip-path="url(#p2c600bcea0)" style="fill: none; stroke: #3f3f3f; stroke-width: 1.875; stroke-linecap: square"/>
   </g>
   <g id="line2d_35">
    <path d="M 793.8 468.033996 
L 793.8 361.847526 
" clip-path="url(#p2c600bcea0)" style="fill: none; stroke: #3f3f3f; stroke-width: 5.625; stroke-linecap: square"/>
   </g>
   <g id="line2d_36">
    <path d="M 793.8 428.440167 
" clip-path="url(#p2c600bcea0)" style="fill: none; stroke: #3f3f3f; stroke-width: 1.5; stroke-linecap: square"/>
    <g clip-path="url(#p2c600bcea0)">
     <use xlink:href="#mc657b1e7fc" x="793.8" y="428.440167" style="fill: #ffffff; stroke: #ffffff; stroke-width: 1.125"/>
    </g>
   </g>
   <g id="line2d_37">
    <path d="M 905.4 547.950096 
L 905.4 239.644692 
" clip-path="url(#p2c600bcea0)" style="fill: none; stroke: #3f3f3f; stroke-width: 1.875; stroke-linecap: square"/>
   </g>
   <g id="line2d_38">
    <path d="M 905.4 469.279736 
L 905.4 375.839316 
" clip-path="url(#p2c600bcea0)" style="fill: none; stroke: #3f3f3f; stroke-width: 5.625; stroke-linecap: square"/>
   </g>
   <g id="line2d_39">
    <path d="M 905.4 432.058933 
" clip-path="url(#p2c600bcea0)" style="fill: none; stroke: #3f3f3f; stroke-width: 1.5; stroke-linecap: square"/>
    <g clip-path="url(#p2c600bcea0)">
     <use xlink:href="#mc657b1e7fc" x="905.4" y="432.058933" style="fill: #ffffff; stroke: #ffffff; stroke-width: 1.125"/>
    </g>
   </g>
   <g id="line2d_40">
    <path d="M 1017 565.69559 
L 1017 245.212092 
" clip-path="url(#p2c600bcea0)" style="fill: none; stroke: #3f3f3f; stroke-width: 1.875; stroke-linecap: square"/>
   </g>
   <g id="line2d_41">
    <path d="M 1017 470.593026 
L 1017 377.251852 
" clip-path="url(#p2c600bcea0)" style="fill: none; stroke: #3f3f3f; stroke-width: 5.625; stroke-linecap: square"/>
   </g>
   <g id="line2d_42">
    <path d="M 1017 435.022272 
" clip-path="url(#p2c600bcea0)" style="fill: none; stroke: #3f3f3f; stroke-width: 1.5; stroke-linecap: square"/>
    <g clip-path="url(#p2c600bcea0)">
     <use xlink:href="#mc657b1e7fc" x="1017" y="435.022272" style="fill: #ffffff; stroke: #ffffff; stroke-width: 1.125"/>
    </g>
   </g>
   <g id="line2d_43">
    <path d="M 1128.6 567.717063 
L 1128.6 245.212092 
" clip-path="url(#p2c600bcea0)" style="fill: none; stroke: #3f3f3f; stroke-width: 1.875; stroke-linecap: square"/>
   </g>
   <g id="line2d_44">
    <path d="M 1128.6 474.995038 
L 1128.6 383.076798 
" clip-path="url(#p2c600bcea0)" style="fill: none; stroke: #3f3f3f; stroke-width: 5.625; stroke-linecap: square"/>
   </g>
   <g id="line2d_45">
    <path d="M 1128.6 436.855284 
" clip-path="url(#p2c600bcea0)" style="fill: none; stroke: #3f3f3f; stroke-width: 1.5; stroke-linecap: square"/>
    <g clip-path="url(#p2c600bcea0)">
     <use xlink:href="#mc657b1e7fc" x="1128.6" y="436.855284" style="fill: #ffffff; stroke: #ffffff; stroke-width: 1.125"/>
    </g>
   </g>
   <g id="line2d_46">
    <path d="M 1240.2 567.717063 
L 1240.2 259.916032 
" clip-path="url(#p2c600bcea0)" style="fill: none; stroke: #3f3f3f; stroke-width: 1.875; stroke-linecap: square"/>
   </g>
   <g id="line2d_47">
    <path d="M 1240.2 476.045148 
L 1240.2 384.621666 
" clip-path="url(#p2c600bcea0)" style="fill: none; stroke: #3f3f3f; stroke-width: 5.625; stroke-linecap: square"/>
   </g>
   <g id="line2d_48">
    <path d="M 1240.2 440.391389 
" clip-path="url(#p2c600bcea0)" style="fill: none; stroke: #3f3f3f; stroke-width: 1.5; stroke-linecap: square"/>
    <g clip-path="url(#p2c600bcea0)">
     <use xlink:href="#mc657b1e7fc" x="1240.2" y="440.391389" style="fill: #ffffff; stroke: #ffffff; stroke-width: 1.125"/>
    </g>
   </g>
   <g id="patch_3">
    <path d="M 180 640.8 
L 180 86.4 
" style="fill: none; stroke: #000000; stroke-width: 0.8; stroke-linejoin: miter; stroke-linecap: square"/>
   </g>
   <g id="patch_4">
    <path d="M 1296 640.8 
L 1296 86.4 
" style="fill: none; stroke: #000000; stroke-width: 0.8; stroke-linejoin: miter; stroke-linecap: square"/>
   </g>
   <g id="patch_5">
    <path d="M 180 640.8 
L 1296 640.8 
" style="fill: none; stroke: #000000; stroke-width: 0.8; stroke-linejoin: miter; stroke-linecap: square"/>
   </g>
   <g id="patch_6">
    <path d="M 180 86.4 
L 1296 86.4 
" style="fill: none; stroke: #000000; stroke-width: 0.8; stroke-linejoin: miter; stroke-linecap: square"/>
   </g>
   <g id="text_21">
    <!-- cosine similarity of max_fs_glit (distanceFromInitialPrompt), by iteration -->
    <g transform="translate(522.321563 80.4) scale(0.12 -0.12)">
     <defs>
      <path id="DejaVuSans-66" d="M 2375 4863 
L 2375 4384 
L 1825 4384 
Q 1516 4384 1395 4259 
Q 1275 4134 1275 3809 
L 1275 3500 
L 2222 3500 
L 2222 3053 
L 1275 3053 
L 1275 0 
L 697 0 
L 697 3053 
L 147 3053 
L 147 3500 
L 697 3500 
L 697 3744 
Q 697 4328 969 4595 
Q 1241 4863 1831 4863 
L 2375 4863 
z
" transform="scale(0.015625)"/>
      <path id="DejaVuSans-78" d="M 3513 3500 
L 2247 1797 
L 3578 0 
L 2900 0 
L 1881 1375 
L 863 0 
L 184 0 
L 1544 1831 
L 300 3500 
L 978 3500 
L 1906 2253 
L 2834 3500 
L 3513 3500 
z
" transform="scale(0.015625)"/>
      <path id="DejaVuSans-5f" d="M 3263 -1063 
L 3263 -1509 
L -63 -1509 
L -63 -1063 
L 3263 -1063 
z
" transform="scale(0.015625)"/>
      <path id="DejaVuSans-67" d="M 2906 1791 
Q 2906 2416 2648 2759 
Q 2391 3103 1925 3103 
Q 1463 3103 1205 2759 
Q 947 2416 947 1791 
Q 947 1169 1205 825 
Q 1463 481 1925 481 
Q 2391 481 2648 825 
Q 2906 1169 2906 1791 
z
M 3481 434 
Q 3481 -459 3084 -895 
Q 2688 -1331 1869 -1331 
Q 1566 -1331 1297 -1286 
Q 1028 -1241 775 -1147 
L 775 -588 
Q 1028 -725 1275 -790 
Q 1522 -856 1778 -856 
Q 2344 -856 2625 -561 
Q 2906 -266 2906 331 
L 2906 616 
Q 2728 306 2450 153 
Q 2172 0 1784 0 
Q 1141 0 747 490 
Q 353 981 353 1791 
Q 353 2603 747 3093 
Q 1141 3584 1784 3584 
Q 2172 3584 2450 3431 
Q 2728 3278 2906 2969 
L 2906 3500 
L 3481 3500 
L 3481 434 
z
" transform="scale(0.015625)"/>
      <path id="DejaVuSans-28" d="M 1984 4856 
Q 1566 4138 1362 3434 
Q 1159 2731 1159 2009 
Q 1159 1288 1364 580 
Q 1569 -128 1984 -844 
L 1484 -844 
Q 1016 -109 783 600 
Q 550 1309 550 2009 
Q 550 2706 781 3412 
Q 1013 4119 1484 4856 
L 1984 4856 
z
" transform="scale(0.015625)"/>
      <path id="DejaVuSans-64" d="M 2906 2969 
L 2906 4863 
L 3481 4863 
L 3481 0 
L 2906 0 
L 2906 525 
Q 2725 213 2448 61 
Q 2172 -91 1784 -91 
Q 1150 -91 751 415 
Q 353 922 353 1747 
Q 353 2572 751 3078 
Q 1150 3584 1784 3584 
Q 2172 3584 2448 3432 
Q 2725 3281 2906 2969 
z
M 947 1747 
Q 947 1113 1208 752 
Q 1469 391 1925 391 
Q 2381 391 2643 752 
Q 2906 1113 2906 1747 
Q 2906 2381 2643 2742 
Q 2381 3103 1925 3103 
Q 1469 3103 1208 2742 
Q 947 2381 947 1747 
z
" transform="scale(0.015625)"/>
      <path id="DejaVuSans-46" d="M 628 4666 
L 3309 4666 
L 3309 4134 
L 1259 4134 
L 1259 2759 
L 3109 2759 
L 3109 2228 
L 1259 2228 
L 1259 0 
L 628 0 
L 628 4666 
z
" transform="scale(0.015625)"/>
      <path id="DejaVuSans-49" d="M 628 4666 
L 1259 4666 
L 1259 0 
L 628 0 
L 628 4666 
z
" transform="scale(0.015625)"/>
      <path id="DejaVuSans-50" d="M 1259 4147 
L 1259 2394 
L 2053 2394 
Q 2494 2394 2734 2622 
Q 2975 2850 2975 3272 
Q 2975 3691 2734 3919 
Q 2494 4147 2053 4147 
L 1259 4147 
z
M 628 4666 
L 2053 4666 
Q 2838 4666 3239 4311 
Q 3641 3956 3641 3272 
Q 3641 2581 3239 2228 
Q 2838 1875 2053 1875 
L 1259 1875 
L 1259 0 
L 628 0 
L 628 4666 
z
" transform="scale(0.015625)"/>
      <path id="DejaVuSans-70" d="M 1159 525 
L 1159 -1331 
L 581 -1331 
L 581 3500 
L 1159 3500 
L 1159 2969 
Q 1341 3281 1617 3432 
Q 1894 3584 2278 3584 
Q 2916 3584 3314 3078 
Q 3713 2572 3713 1747 
Q 3713 922 3314 415 
Q 2916 -91 2278 -91 
Q 1894 -91 1617 61 
Q 1341 213 1159 525 
z
M 3116 1747 
Q 3116 2381 2855 2742 
Q 2594 3103 2138 3103 
Q 1681 3103 1420 2742 
Q 1159 2381 1159 1747 
Q 1159 1113 1420 752 
Q 1681 391 2138 391 
Q 2594 391 2855 752 
Q 3116 1113 3116 1747 
z
" transform="scale(0.015625)"/>
      <path id="DejaVuSans-29" d="M 513 4856 
L 1013 4856 
Q 1481 4119 1714 3412 
Q 1947 2706 1947 2009 
Q 1947 1309 1714 600 
Q 1481 -109 1013 -844 
L 513 -844 
Q 928 -128 1133 580 
Q 1338 1288 1338 2009 
Q 1338 2731 1133 3434 
Q 928 4138 513 4856 
z
" transform="scale(0.015625)"/>
      <path id="DejaVuSans-2c" d="M 750 794 
L 1409 794 
L 1409 256 
L 897 -744 
L 494 -744 
L 750 256 
L 750 794 
z
" transform="scale(0.015625)"/>
      <path id="DejaVuSans-62" d="M 3116 1747 
Q 3116 2381 2855 2742 
Q 2594 3103 2138 3103 
Q 1681 3103 1420 2742 
Q 1159 2381 1159 1747 
Q 1159 1113 1420 752 
Q 1681 391 2138 391 
Q 2594 391 2855 752 
Q 3116 1113 3116 1747 
z
M 1159 2969 
Q 1341 3281 1617 3432 
Q 1894 3584 2278 3584 
Q 2916 3584 3314 3078 
Q 3713 2572 3713 1747 
Q 3713 922 3314 415 
Q 2916 -91 2278 -91 
Q 1894 -91 1617 61 
Q 1341 213 1159 525 
L 1159 0 
L 581 0 
L 581 4863 
L 1159 4863 
L 1159 2969 
z
" transform="scale(0.015625)"/>
     </defs>
     <use xlink:href="#DejaVuSans-63"/>
     <use xlink:href="#DejaVuSans-6f" x="54.980469"/>
     <use xlink:href="#DejaVuSans-73" x="116.162109"/>
     <use xlink:href="#DejaVuSans-69" x="168.261719"/>
     <use xlink:href="#DejaVuSans-6e" x="196.044922"/>
     <use xlink:href="#DejaVuSans-65" x="259.423828"/>
     <use xlink:href="#DejaVuSans-20" x="320.947266"/>
     <use xlink:href="#DejaVuSans-73" x="352.734375"/>
     <use xlink:href="#DejaVuSans-69" x="404.833984"/>
     <use xlink:href="#DejaVuSans-6d" x="432.617188"/>
     <use xlink:href="#DejaVuSans-69" x="530.029297"/>
     <use xlink:href="#DejaVuSans-6c" x="557.8125"/>
     <use xlink:href="#DejaVuSans-61" x="585.595703"/>
     <use xlink:href="#DejaVuSans-72" x="646.875"/>
     <use xlink:href="#DejaVuSans-69" x="687.988281"/>
     <use xlink:href="#DejaVuSans-74" x="715.771484"/>
     <use xlink:href="#DejaVuSans-79" x="754.980469"/>
     <use xlink:href="#DejaVuSans-20" x="814.160156"/>
     <use xlink:href="#DejaVuSans-6f" x="845.947266"/>
     <use xlink:href="#DejaVuSans-66" x="907.128906"/>
     <use xlink:href="#DejaVuSans-20" x="942.333984"/>
     <use xlink:href="#DejaVuSans-6d" x="974.121094"/>
     <use xlink:href="#DejaVuSans-61" x="1071.533203"/>
     <use xlink:href="#DejaVuSans-78" x="1132.8125"/>
     <use xlink:href="#DejaVuSans-5f" x="1191.992188"/>
     <use xlink:href="#DejaVuSans-66" x="1241.992188"/>
     <use xlink:href="#DejaVuSans-73" x="1277.197266"/>
     <use xlink:href="#DejaVuSans-5f" x="1329.296875"/>
     <use xlink:href="#DejaVuSans-67" x="1379.296875"/>
     <use xlink:href="#DejaVuSans-6c" x="1442.773438"/>
     <use xlink:href="#DejaVuSans-69" x="1470.556641"/>
     <use xlink:href="#DejaVuSans-74" x="1498.339844"/>
     <use xlink:href="#DejaVuSans-20" x="1537.548828"/>
     <use xlink:href="#DejaVuSans-28" x="1569.335938"/>
     <use xlink:href="#DejaVuSans-64" x="1608.349609"/>
     <use xlink:href="#DejaVuSans-69" x="1671.826172"/>
     <use xlink:href="#DejaVuSans-73" x="1699.609375"/>
     <use xlink:href="#DejaVuSans-74" x="1751.708984"/>
     <use xlink:href="#DejaVuSans-61" x="1790.917969"/>
     <use xlink:href="#DejaVuSans-6e" x="1852.197266"/>
     <use xlink:href="#DejaVuSans-63" x="1915.576172"/>
     <use xlink:href="#DejaVuSans-65" x="1970.556641"/>
     <use xlink:href="#DejaVuSans-46" x="2032.080078"/>
     <use xlink:href="#DejaVuSans-72" x="2082.349609"/>
     <use xlink:href="#DejaVuSans-6f" x="2121.212891"/>
     <use xlink:href="#DejaVuSans-6d" x="2182.394531"/>
     <use xlink:href="#DejaVuSans-49" x="2279.806641"/>
     <use xlink:href="#DejaVuSans-6e" x="2309.298828"/>
     <use xlink:href="#DejaVuSans-69" x="2372.677734"/>
     <use xlink:href="#DejaVuSans-74" x="2400.460938"/>
     <use xlink:href="#DejaVuSans-69" x="2439.669922"/>
     <use xlink:href="#DejaVuSans-61" x="2467.453125"/>
     <use xlink:href="#DejaVuSans-6c" x="2528.732422"/>
     <use xlink:href="#DejaVuSans-50" x="2556.515625"/>
     <use xlink:href="#DejaVuSans-72" x="2615.068359"/>
     <use xlink:href="#DejaVuSans-6f" x="2653.931641"/>
     <use xlink:href="#DejaVuSans-6d" x="2715.113281"/>
     <use xlink:href="#DejaVuSans-70" x="2812.525391"/>
     <use xlink:href="#DejaVuSans-74" x="2876.001953"/>
     <use xlink:href="#DejaVuSans-29" x="2915.210938"/>
     <use xlink:href="#DejaVuSans-2c" x="2954.224609"/>
     <use xlink:href="#DejaVuSans-20" x="2986.011719"/>
     <use xlink:href="#DejaVuSans-62" x="3017.798828"/>
     <use xlink:href="#DejaVuSans-79" x="3081.275391"/>
     <use xlink:href="#DejaVuSans-20" x="3140.455078"/>
     <use xlink:href="#DejaVuSans-69" x="3172.242188"/>
     <use xlink:href="#DejaVuSans-74" x="3200.025391"/>
     <use xlink:href="#DejaVuSans-65" x="3239.234375"/>
     <use xlink:href="#DejaVuSans-72" x="3300.757812"/>
     <use xlink:href="#DejaVuSans-61" x="3341.871094"/>
     <use xlink:href="#DejaVuSans-74" x="3403.150391"/>
     <use xlink:href="#DejaVuSans-69" x="3442.359375"/>
     <use xlink:href="#DejaVuSans-6f" x="3470.142578"/>
     <use xlink:href="#DejaVuSans-6e" x="3531.324219"/>
    </g>
   </g>
  </g>
 </g>
 <defs>
  <clipPath id="p2c600bcea0">
   <rect x="180" y="86.4" width="1116" height="554.4"/>
  </clipPath>
 </defs>
</svg>
