<?xml version="1.0" encoding="utf-8" standalone="no"?>
<!DOCTYPE svg PUBLIC "-//W3C//DTD SVG 1.1//EN"
  "http://www.w3.org/Graphics/SVG/1.1/DTD/svg11.dtd">
<svg xmlns:xlink="http://www.w3.org/1999/xlink" width="1440pt" height="720pt" viewBox="0 0 1440 720" xmlns="http://www.w3.org/2000/svg" version="1.1">
 <metadata>
  <rdf:RDF xmlns:dc="http://purl.org/dc/elements/1.1/" xmlns:cc="http://creativecommons.org/ns#" xmlns:rdf="http://www.w3.org/1999/02/22-rdf-syntax-ns#">
   <cc:Work>
    <dc:type rdf:resource="http://purl.org/dc/dcmitype/StillImage"/>
    <dc:date>2024-07-06T19:55:19.233932</dc:date>
    <dc:format>image/svg+xml</dc:format>
    <dc:creator>
     <cc:Agent>
      <dc:title>Matplotlib v3.8.0, https://matplotlib.org/</dc:title>
     </cc:Agent>
    </dc:creator>
   </cc:Work>
  </rdf:RDF>
 </metadata>
 <defs>
  <style type="text/css">*{stroke-linejoin: round; stroke-linecap: butt}</style>
 </defs>
 <g id="figure_1">
  <g id="patch_1">
   <path d="M 0 720 
L 1440 720 
L 1440 0 
L 0 0 
z
" style="fill: #ffffff"/>
  </g>
  <g id="axes_1">
   <g id="patch_2">
    <path d="M 180 640.8 
L 1296 640.8 
L 1296 86.4 
L 180 86.4 
z
" style="fill: #ffffff"/>
   </g>
   <g id="PathCollection_1">
    <defs>
     <path id="C0_0_1648d49ce4" d="M 0 3 
C 0.795609 3 1.55874 2.683901 2.12132 2.12132 
C 2.683901 1.55874 3 0.795609 3 -0 
C 3 -0.795609 2.683901 -1.55874 2.12132 -2.12132 
C 1.55874 -2.683901 0.795609 -3 0 -3 
C -0.795609 -3 -1.55874 -2.683901 -2.12132 -2.12132 
C -2.683901 -1.55874 -3 -0.795609 -3 0 
C -3 0.795609 -2.683901 1.55874 -2.12132 2.12132 
C -1.55874 2.683901 -0.795609 3 0 3 
z
"/>
    </defs>
    <g clip-path="url(#pc584024fce)">
     <use xlink:href="#C0_0_1648d49ce4" x="289.331471" y="367.47387" style="fill: #1f77b4; stroke: #ffffff; stroke-width: 0.48"/>
    </g>
    <g clip-path="url(#pc584024fce)">
     <use xlink:href="#C0_0_1648d49ce4" x="239.375587" y="328.570041" style="fill: #1f77b4; stroke: #ffffff; stroke-width: 0.48"/>
    </g>
    <g clip-path="url(#pc584024fce)">
     <use xlink:href="#C0_0_1648d49ce4" x="243.258504" y="462.022885" style="fill: #1f77b4; stroke: #ffffff; stroke-width: 0.48"/>
    </g>
    <g clip-path="url(#pc584024fce)">
     <use xlink:href="#C0_0_1648d49ce4" x="265.827301" y="246.684315" style="fill: #1f77b4; stroke: #ffffff; stroke-width: 0.48"/>
    </g>
    <g clip-path="url(#pc584024fce)">
     <use xlink:href="#C0_0_1648d49ce4" x="319.492152" y="291.394167" style="fill: #1f77b4; stroke: #ffffff; stroke-width: 0.48"/>
    </g>
    <g clip-path="url(#pc584024fce)">
     <use xlink:href="#C0_0_1648d49ce4" x="237.257634" y="326.136425" style="fill: #1f77b4; stroke: #ffffff; stroke-width: 0.48"/>
    </g>
    <g clip-path="url(#pc584024fce)">
     <use xlink:href="#C0_0_1648d49ce4" x="327.831463" y="246.684315" style="fill: #1f77b4; stroke: #ffffff; stroke-width: 0.48"/>
    </g>
    <g clip-path="url(#pc584024fce)">
     <use xlink:href="#C0_0_1648d49ce4" x="402.279477" y="281.237597" style="fill: #1f77b4; stroke: #ffffff; stroke-width: 0.48"/>
    </g>
    <g clip-path="url(#pc584024fce)">
     <use xlink:href="#C0_0_1648d49ce4" x="289.993565" y="376.562851" style="fill: #1f77b4; stroke: #ffffff; stroke-width: 0.48"/>
    </g>
    <g clip-path="url(#pc584024fce)">
     <use xlink:href="#C0_0_1648d49ce4" x="240.611063" y="301.63849" style="fill: #1f77b4; stroke: #ffffff; stroke-width: 0.48"/>
    </g>
    <g clip-path="url(#pc584024fce)">
     <use xlink:href="#C0_0_1648d49ce4" x="307.869985" y="372.208239" style="fill: #1f77b4; stroke: #ffffff; stroke-width: 0.48"/>
    </g>
    <g clip-path="url(#pc584024fce)">
     <use xlink:href="#C0_0_1648d49ce4" x="260.199544" y="380.470338" style="fill: #1f77b4; stroke: #ffffff; stroke-width: 0.48"/>
    </g>
    <g clip-path="url(#pc584024fce)">
     <use xlink:href="#C0_0_1648d49ce4" x="276.089687" y="252.059459" style="fill: #1f77b4; stroke: #ffffff; stroke-width: 0.48"/>
    </g>
    <g clip-path="url(#pc584024fce)">
     <use xlink:href="#C0_0_1648d49ce4" x="382.271624" y="344.767422" style="fill: #1f77b4; stroke: #ffffff; stroke-width: 0.48"/>
    </g>
    <g clip-path="url(#pc584024fce)">
     <use xlink:href="#C0_0_1648d49ce4" x="289.331471" y="349.487694" style="fill: #1f77b4; stroke: #ffffff; stroke-width: 0.48"/>
    </g>
    <g clip-path="url(#pc584024fce)">
     <use xlink:href="#C0_0_1648d49ce4" x="317.407316" y="285.310531" style="fill: #1f77b4; stroke: #ffffff; stroke-width: 0.48"/>
    </g>
    <g clip-path="url(#pc584024fce)">
     <use xlink:href="#C0_0_1648d49ce4" x="273.110287" y="268.512647" style="fill: #1f77b4; stroke: #ffffff; stroke-width: 0.48"/>
    </g>
    <g clip-path="url(#pc584024fce)">
     <use xlink:href="#C0_0_1648d49ce4" x="300.587003" y="615.6" style="fill: #1f77b4; stroke: #ffffff; stroke-width: 0.48"/>
    </g>
    <g clip-path="url(#pc584024fce)">
     <use xlink:href="#C0_0_1648d49ce4" x="352.154466" y="423.011039" style="fill: #1f77b4; stroke: #ffffff; stroke-width: 0.48"/>
    </g>
    <g clip-path="url(#pc584024fce)">
     <use xlink:href="#C0_0_1648d49ce4" x="289.993565" y="282.869502" style="fill: #1f77b4; stroke: #ffffff; stroke-width: 0.48"/>
    </g>
    <g clip-path="url(#pc584024fce)">
     <use xlink:href="#C0_0_1648d49ce4" x="291.317747" y="457.977214" style="fill: #1f77b4; stroke: #ffffff; stroke-width: 0.48"/>
    </g>
    <g clip-path="url(#pc584024fce)">
     <use xlink:href="#C0_0_1648d49ce4" x="299.262824" y="499.881096" style="fill: #1f77b4; stroke: #ffffff; stroke-width: 0.48"/>
    </g>
    <g clip-path="url(#pc584024fce)">
     <use xlink:href="#C0_0_1648d49ce4" x="264.503128" y="249.424577" style="fill: #1f77b4; stroke: #ffffff; stroke-width: 0.48"/>
    </g>
    <g clip-path="url(#pc584024fce)">
     <use xlink:href="#C0_0_1648d49ce4" x="277.082823" y="335.238608" style="fill: #1f77b4; stroke: #ffffff; stroke-width: 0.48"/>
    </g>
    <g clip-path="url(#pc584024fce)">
     <use xlink:href="#C0_0_1648d49ce4" x="262.516855" y="376.562851" style="fill: #1f77b4; stroke: #ffffff; stroke-width: 0.48"/>
    </g>
    <g clip-path="url(#pc584024fce)">
     <use xlink:href="#C0_0_1648d49ce4" x="231.962746" y="212.246241" style="fill: #1f77b4; stroke: #ffffff; stroke-width: 0.48"/>
    </g>
    <g clip-path="url(#pc584024fce)">
     <use xlink:href="#C0_0_1648d49ce4" x="404.502537" y="319.640541" style="fill: #1f77b4; stroke: #ffffff; stroke-width: 0.48"/>
    </g>
    <g clip-path="url(#pc584024fce)">
     <use xlink:href="#C0_0_1648d49ce4" x="431.179656" y="348.709169" style="fill: #1f77b4; stroke: #ffffff; stroke-width: 0.48"/>
    </g>
    <g clip-path="url(#pc584024fce)">
     <use xlink:href="#C0_0_1648d49ce4" x="244.670476" y="455.850261" style="fill: #1f77b4; stroke: #ffffff; stroke-width: 0.48"/>
    </g>
    <g clip-path="url(#pc584024fce)">
     <use xlink:href="#C0_0_1648d49ce4" x="260.861636" y="436.479129" style="fill: #1f77b4; stroke: #ffffff; stroke-width: 0.48"/>
    </g>
    <g clip-path="url(#pc584024fce)">
     <use xlink:href="#C0_0_1648d49ce4" x="393.387094" y="274.370163" style="fill: #1f77b4; stroke: #ffffff; stroke-width: 0.48"/>
    </g>
    <g clip-path="url(#pc584024fce)">
     <use xlink:href="#C0_0_1648d49ce4" x="235.49267" y="288.493981" style="fill: #1f77b4; stroke: #ffffff; stroke-width: 0.48"/>
    </g>
    <g clip-path="url(#pc584024fce)">
     <use xlink:href="#C0_0_1648d49ce4" x="338.950552" y="460.104186" style="fill: #1f77b4; stroke: #ffffff; stroke-width: 0.48"/>
    </g>
    <g clip-path="url(#pc584024fce)">
     <use xlink:href="#C0_0_1648d49ce4" x="256.49572" y="367.264031" style="fill: #1f77b4; stroke: #ffffff; stroke-width: 0.48"/>
    </g>
    <g clip-path="url(#pc584024fce)">
     <use xlink:href="#C0_0_1648d49ce4" x="234.080701" y="391.296946" style="fill: #1f77b4; stroke: #ffffff; stroke-width: 0.48"/>
    </g>
    <g clip-path="url(#pc584024fce)">
     <use xlink:href="#C0_0_1648d49ce4" x="271.124022" y="431.09188" style="fill: #1f77b4; stroke: #ffffff; stroke-width: 0.48"/>
    </g>
    <g clip-path="url(#pc584024fce)">
     <use xlink:href="#C0_0_1648d49ce4" x="307.207896" y="370.505897" style="fill: #1f77b4; stroke: #ffffff; stroke-width: 0.48"/>
    </g>
    <g clip-path="url(#pc584024fce)">
     <use xlink:href="#C0_0_1648d49ce4" x="280.724315" y="310.098175" style="fill: #1f77b4; stroke: #ffffff; stroke-width: 0.48"/>
    </g>
    <g clip-path="url(#pc584024fce)">
     <use xlink:href="#C0_0_1648d49ce4" x="243.258504" y="461.26693" style="fill: #1f77b4; stroke: #ffffff; stroke-width: 0.48"/>
    </g>
    <g clip-path="url(#pc584024fce)">
     <use xlink:href="#C0_0_1648d49ce4" x="354.934244" y="360.601198" style="fill: #1f77b4; stroke: #ffffff; stroke-width: 0.48"/>
    </g>
    <g clip-path="url(#pc584024fce)">
     <use xlink:href="#C0_0_1648d49ce4" x="281.055361" y="338.12408" style="fill: #1f77b4; stroke: #ffffff; stroke-width: 0.48"/>
    </g>
    <g clip-path="url(#pc584024fce)">
     <use xlink:href="#C0_0_1648d49ce4" x="286.021032" y="443.598325" style="fill: #1f77b4; stroke: #ffffff; stroke-width: 0.48"/>
    </g>
    <g clip-path="url(#pc584024fce)">
     <use xlink:href="#C0_0_1648d49ce4" x="238.140114" y="505.188005" style="fill: #1f77b4; stroke: #ffffff; stroke-width: 0.48"/>
    </g>
    <g clip-path="url(#pc584024fce)">
     <use xlink:href="#C0_0_1648d49ce4" x="327.136524" y="425.704659" style="fill: #1f77b4; stroke: #ffffff; stroke-width: 0.48"/>
    </g>
    <g clip-path="url(#pc584024fce)">
     <use xlink:href="#C0_0_1648d49ce4" x="251.906816" y="358.259373" style="fill: #1f77b4; stroke: #ffffff; stroke-width: 0.48"/>
    </g>
    <g clip-path="url(#pc584024fce)">
     <use xlink:href="#C0_0_1648d49ce4" x="291.979836" y="361.77213" style="fill: #1f77b4; stroke: #ffffff; stroke-width: 0.48"/>
    </g>
    <g clip-path="url(#pc584024fce)">
     <use xlink:href="#C0_0_1648d49ce4" x="255.436745" y="422.760975" style="fill: #1f77b4; stroke: #ffffff; stroke-width: 0.48"/>
    </g>
    <g clip-path="url(#pc584024fce)">
     <use xlink:href="#C0_0_1648d49ce4" x="300.587003" y="379.138792" style="fill: #1f77b4; stroke: #ffffff; stroke-width: 0.48"/>
    </g>
    <g clip-path="url(#pc584024fce)">
     <use xlink:href="#C0_0_1648d49ce4" x="324.356746" y="307.708416" style="fill: #1f77b4; stroke: #ffffff; stroke-width: 0.48"/>
    </g>
    <g clip-path="url(#pc584024fce)">
     <use xlink:href="#C0_0_1648d49ce4" x="258.875362" y="339.686569" style="fill: #1f77b4; stroke: #ffffff; stroke-width: 0.48"/>
    </g>
    <g clip-path="url(#pc584024fce)">
     <use xlink:href="#C0_0_1648d49ce4" x="346.594927" y="452.037672" style="fill: #1f77b4; stroke: #ffffff; stroke-width: 0.48"/>
    </g>
    <g clip-path="url(#pc584024fce)">
     <use xlink:href="#C0_0_1648d49ce4" x="293.304018" y="461.26693" style="fill: #1f77b4; stroke: #ffffff; stroke-width: 0.48"/>
    </g>
    <g clip-path="url(#pc584024fce)">
     <use xlink:href="#C0_0_1648d49ce4" x="1245.272727" y="220.102612" style="fill: #1f77b4; stroke: #ffffff; stroke-width: 0.48"/>
    </g>
    <g clip-path="url(#pc584024fce)">
     <use xlink:href="#C0_0_1648d49ce4" x="252.965796" y="557.180582" style="fill: #1f77b4; stroke: #ffffff; stroke-width: 0.48"/>
    </g>
    <g clip-path="url(#pc584024fce)">
     <use xlink:href="#C0_0_1648d49ce4" x="257.201704" y="111.6" style="fill: #1f77b4; stroke: #ffffff; stroke-width: 0.48"/>
    </g>
    <g clip-path="url(#pc584024fce)">
     <use xlink:href="#C0_0_1648d49ce4" x="356.324122" y="219.307879" style="fill: #1f77b4; stroke: #ffffff; stroke-width: 0.48"/>
    </g>
    <g clip-path="url(#pc584024fce)">
     <use xlink:href="#C0_0_1648d49ce4" x="237.896175" y="381.354124" style="fill: #1f77b4; stroke: #ffffff; stroke-width: 0.48"/>
    </g>
    <g clip-path="url(#pc584024fce)">
     <use xlink:href="#C0_0_1648d49ce4" x="303.897444" y="296.821097" style="fill: #1f77b4; stroke: #ffffff; stroke-width: 0.48"/>
    </g>
    <g clip-path="url(#pc584024fce)">
     <use xlink:href="#C0_0_1648d49ce4" x="304.559539" y="366.4558" style="fill: #1f77b4; stroke: #ffffff; stroke-width: 0.48"/>
    </g>
    <g clip-path="url(#pc584024fce)">
     <use xlink:href="#C0_0_1648d49ce4" x="316.017438" y="291.394167" style="fill: #1f77b4; stroke: #ffffff; stroke-width: 0.48"/>
    </g>
    <g clip-path="url(#pc584024fce)">
     <use xlink:href="#C0_0_1648d49ce4" x="249.788863" y="367.734067" style="fill: #1f77b4; stroke: #ffffff; stroke-width: 0.48"/>
    </g>
    <g clip-path="url(#pc584024fce)">
     <use xlink:href="#C0_0_1648d49ce4" x="299.924911" y="192.665233" style="fill: #1f77b4; stroke: #ffffff; stroke-width: 0.48"/>
    </g>
    <g clip-path="url(#pc584024fce)">
     <use xlink:href="#C0_0_1648d49ce4" x="278.407004" y="601.105049" style="fill: #1f77b4; stroke: #ffffff; stroke-width: 0.48"/>
    </g>
    <g clip-path="url(#pc584024fce)">
     <use xlink:href="#C0_0_1648d49ce4" x="234.433692" y="345.936436" style="fill: #1f77b4; stroke: #ffffff; stroke-width: 0.48"/>
    </g>
    <g clip-path="url(#pc584024fce)">
     <use xlink:href="#C0_0_1648d49ce4" x="243.461652" y="381.354124" style="fill: #1f77b4; stroke: #ffffff; stroke-width: 0.48"/>
    </g>
    <g clip-path="url(#pc584024fce)">
     <use xlink:href="#C0_0_1648d49ce4" x="335.475833" y="367.05421" style="fill: #1f77b4; stroke: #ffffff; stroke-width: 0.48"/>
    </g>
    <g clip-path="url(#pc584024fce)">
     <use xlink:href="#C0_0_1648d49ce4" x="286.021032" y="221.653752" style="fill: #1f77b4; stroke: #ffffff; stroke-width: 0.48"/>
    </g>
    <g clip-path="url(#pc584024fce)">
     <use xlink:href="#C0_0_1648d49ce4" x="301.911181" y="116.341441" style="fill: #1f77b4; stroke: #ffffff; stroke-width: 0.48"/>
    </g>
    <g clip-path="url(#pc584024fce)">
     <use xlink:href="#C0_0_1648d49ce4" x="309.856248" y="295.375845" style="fill: #1f77b4; stroke: #ffffff; stroke-width: 0.48"/>
    </g>
    <g clip-path="url(#pc584024fce)">
     <use xlink:href="#C0_0_1648d49ce4" x="404.502537" y="375.91885" style="fill: #1f77b4; stroke: #ffffff; stroke-width: 0.48"/>
    </g>
    <g clip-path="url(#pc584024fce)">
     <use xlink:href="#C0_0_1648d49ce4" x="258.875362" y="278.243592" style="fill: #1f77b4; stroke: #ffffff; stroke-width: 0.48"/>
    </g>
    <g clip-path="url(#pc584024fce)">
     <use xlink:href="#C0_0_1648d49ce4" x="318.797205" y="337.090632" style="fill: #1f77b4; stroke: #ffffff; stroke-width: 0.48"/>
    </g>
    <g clip-path="url(#pc584024fce)">
     <use xlink:href="#C0_0_1648d49ce4" x="278.075958" y="367.734067" style="fill: #1f77b4; stroke: #ffffff; stroke-width: 0.48"/>
    </g>
    <g clip-path="url(#pc584024fce)">
     <use xlink:href="#C0_0_1648d49ce4" x="291.979836" y="380.470338" style="fill: #1f77b4; stroke: #ffffff; stroke-width: 0.48"/>
    </g>
    <g clip-path="url(#pc584024fce)">
     <use xlink:href="#C0_0_1648d49ce4" x="261.854766" y="367.47387" style="fill: #1f77b4; stroke: #ffffff; stroke-width: 0.48"/>
    </g>
    <g clip-path="url(#pc584024fce)">
     <use xlink:href="#C0_0_1648d49ce4" x="283.372672" y="268.446036" style="fill: #1f77b4; stroke: #ffffff; stroke-width: 0.48"/>
    </g>
    <g clip-path="url(#pc584024fce)">
     <use xlink:href="#C0_0_1648d49ce4" x="319.492152" y="367.264031" style="fill: #1f77b4; stroke: #ffffff; stroke-width: 0.48"/>
    </g>
    <g clip-path="url(#pc584024fce)">
     <use xlink:href="#C0_0_1648d49ce4" x="321.57698" y="381.354124" style="fill: #1f77b4; stroke: #ffffff; stroke-width: 0.48"/>
    </g>
    <g clip-path="url(#pc584024fce)">
     <use xlink:href="#C0_0_1648d49ce4" x="307.869985" y="385.307304" style="fill: #1f77b4; stroke: #ffffff; stroke-width: 0.48"/>
    </g>
    <g clip-path="url(#pc584024fce)">
     <use xlink:href="#C0_0_1648d49ce4" x="351.459527" y="337.707979" style="fill: #1f77b4; stroke: #ffffff; stroke-width: 0.48"/>
    </g>
    <g clip-path="url(#pc584024fce)">
     <use xlink:href="#C0_0_1648d49ce4" x="255.436745" y="225.06619" style="fill: #1f77b4; stroke: #ffffff; stroke-width: 0.48"/>
    </g>
    <g clip-path="url(#pc584024fce)">
     <use xlink:href="#C0_0_1648d49ce4" x="287.345208" y="282.869502" style="fill: #1f77b4; stroke: #ffffff; stroke-width: 0.48"/>
    </g>
    <g clip-path="url(#pc584024fce)">
     <use xlink:href="#C0_0_1648d49ce4" x="262.185812" y="307.708416" style="fill: #1f77b4; stroke: #ffffff; stroke-width: 0.48"/>
    </g>
    <g clip-path="url(#pc584024fce)">
     <use xlink:href="#C0_0_1648d49ce4" x="305.221625" y="342.811493" style="fill: #1f77b4; stroke: #ffffff; stroke-width: 0.48"/>
    </g>
    <g clip-path="url(#pc584024fce)">
     <use xlink:href="#C0_0_1648d49ce4" x="326.441574" y="431.434694" style="fill: #1f77b4; stroke: #ffffff; stroke-width: 0.48"/>
    </g>
    <g clip-path="url(#pc584024fce)">
     <use xlink:href="#C0_0_1648d49ce4" x="338.950552" y="436.479129" style="fill: #1f77b4; stroke: #ffffff; stroke-width: 0.48"/>
    </g>
    <g clip-path="url(#pc584024fce)">
     <use xlink:href="#C0_0_1648d49ce4" x="442.295127" y="338.825049" style="fill: #1f77b4; stroke: #ffffff; stroke-width: 0.48"/>
    </g>
    <g clip-path="url(#pc584024fce)">
     <use xlink:href="#C0_0_1648d49ce4" x="230.727273" y="385.045918" style="fill: #1f77b4; stroke: #ffffff; stroke-width: 0.48"/>
    </g>
    <g clip-path="url(#pc584024fce)">
     <use xlink:href="#C0_0_1648d49ce4" x="264.503128" y="385.307304" style="fill: #1f77b4; stroke: #ffffff; stroke-width: 0.48"/>
    </g>
    <g clip-path="url(#pc584024fce)">
     <use xlink:href="#C0_0_1648d49ce4" x="570.875683" y="361.77213" style="fill: #1f77b4; stroke: #ffffff; stroke-width: 0.48"/>
    </g>
    <g clip-path="url(#pc584024fce)">
     <use xlink:href="#C0_0_1648d49ce4" x="622.379768" y="270.970014" style="fill: #1f77b4; stroke: #ffffff; stroke-width: 0.48"/>
    </g>
    <g clip-path="url(#pc584024fce)">
     <use xlink:href="#C0_0_1648d49ce4" x="378.937005" y="420.31742" style="fill: #1f77b4; stroke: #ffffff; stroke-width: 0.48"/>
    </g>
    <g clip-path="url(#pc584024fce)">
     <use xlink:href="#C0_0_1648d49ce4" x="288.669384" y="431.09188" style="fill: #1f77b4; stroke: #ffffff; stroke-width: 0.48"/>
    </g>
    <g clip-path="url(#pc584024fce)">
     <use xlink:href="#C0_0_1648d49ce4" x="309.856248" y="461.26693" style="fill: #1f77b4; stroke: #ffffff; stroke-width: 0.48"/>
    </g>
    <g clip-path="url(#pc584024fce)">
     <use xlink:href="#C0_0_1648d49ce4" x="393.387094" y="400.281404" style="fill: #1f77b4; stroke: #ffffff; stroke-width: 0.48"/>
    </g>
    <g clip-path="url(#pc584024fce)">
     <use xlink:href="#C0_0_1648d49ce4" x="286.352073" y="368.447575" style="fill: #1f77b4; stroke: #ffffff; stroke-width: 0.48"/>
    </g>
    <g clip-path="url(#pc584024fce)">
     <use xlink:href="#C0_0_1648d49ce4" x="313.932613" y="344.767422" style="fill: #1f77b4; stroke: #ffffff; stroke-width: 0.48"/>
    </g>
    <g clip-path="url(#pc584024fce)">
     <use xlink:href="#C0_0_1648d49ce4" x="307.869985" y="382.312478" style="fill: #1f77b4; stroke: #ffffff; stroke-width: 0.48"/>
    </g>
    <g clip-path="url(#pc584024fce)">
     <use xlink:href="#C0_0_1648d49ce4" x="320.187088" y="295.375845" style="fill: #1f77b4; stroke: #ffffff; stroke-width: 0.48"/>
    </g>
    <g clip-path="url(#pc584024fce)">
     <use xlink:href="#C0_0_1648d49ce4" x="239.199092" y="381.354124" style="fill: #1f77b4; stroke: #ffffff; stroke-width: 0.48"/>
    </g>
   </g>
   <g id="matplotlib.axis_1">
    <g id="xtick_1">
     <g id="line2d_1">
      <defs>
       <path id="mc5266c43c3" d="M 0 0 
L 0 3.5 
" style="stroke: #000000; stroke-width: 0.8"/>
      </defs>
      <g>
       <use xlink:href="#mc5266c43c3" x="199.66394" y="640.8" style="stroke: #000000; stroke-width: 0.8"/>
      </g>
     </g>
     <g id="text_1">
      <!-- 0.00 -->
      <g transform="translate(188.531127 655.398438) scale(0.1 -0.1)">
       <defs>
        <path id="DejaVuSans-30" d="M 2034 4250 
Q 1547 4250 1301 3770 
Q 1056 3291 1056 2328 
Q 1056 1369 1301 889 
Q 1547 409 2034 409 
Q 2525 409 2770 889 
Q 3016 1369 3016 2328 
Q 3016 3291 2770 3770 
Q 2525 4250 2034 4250 
z
M 2034 4750 
Q 2819 4750 3233 4129 
Q 3647 3509 3647 2328 
Q 3647 1150 3233 529 
Q 2819 -91 2034 -91 
Q 1250 -91 836 529 
Q 422 1150 422 2328 
Q 422 3509 836 4129 
Q 1250 4750 2034 4750 
z
" transform="scale(0.015625)"/>
        <path id="DejaVuSans-2e" d="M 684 794 
L 1344 794 
L 1344 0 
L 684 0 
L 684 794 
z
" transform="scale(0.015625)"/>
       </defs>
       <use xlink:href="#DejaVuSans-30"/>
       <use xlink:href="#DejaVuSans-2e" x="63.623047"/>
       <use xlink:href="#DejaVuSans-30" x="95.410156"/>
       <use xlink:href="#DejaVuSans-30" x="159.033203"/>
      </g>
     </g>
    </g>
    <g id="xtick_2">
     <g id="line2d_2">
      <g>
       <use xlink:href="#mc5266c43c3" x="340.118618" y="640.8" style="stroke: #000000; stroke-width: 0.8"/>
      </g>
     </g>
     <g id="text_2">
      <!-- 0.05 -->
      <g transform="translate(328.985806 655.398438) scale(0.1 -0.1)">
       <defs>
        <path id="DejaVuSans-35" d="M 691 4666 
L 3169 4666 
L 3169 4134 
L 1269 4134 
L 1269 2991 
Q 1406 3038 1543 3061 
Q 1681 3084 1819 3084 
Q 2600 3084 3056 2656 
Q 3513 2228 3513 1497 
Q 3513 744 3044 326 
Q 2575 -91 1722 -91 
Q 1428 -91 1123 -41 
Q 819 9 494 109 
L 494 744 
Q 775 591 1075 516 
Q 1375 441 1709 441 
Q 2250 441 2565 725 
Q 2881 1009 2881 1497 
Q 2881 1984 2565 2268 
Q 2250 2553 1709 2553 
Q 1456 2553 1204 2497 
Q 953 2441 691 2322 
L 691 4666 
z
" transform="scale(0.015625)"/>
       </defs>
       <use xlink:href="#DejaVuSans-30"/>
       <use xlink:href="#DejaVuSans-2e" x="63.623047"/>
       <use xlink:href="#DejaVuSans-30" x="95.410156"/>
       <use xlink:href="#DejaVuSans-35" x="159.033203"/>
      </g>
     </g>
    </g>
    <g id="xtick_3">
     <g id="line2d_3">
      <g>
       <use xlink:href="#mc5266c43c3" x="480.573297" y="640.8" style="stroke: #000000; stroke-width: 0.8"/>
      </g>
     </g>
     <g id="text_3">
      <!-- 0.10 -->
      <g transform="translate(469.440484 655.398438) scale(0.1 -0.1)">
       <defs>
        <path id="DejaVuSans-31" d="M 794 531 
L 1825 531 
L 1825 4091 
L 703 3866 
L 703 4441 
L 1819 4666 
L 2450 4666 
L 2450 531 
L 3481 531 
L 3481 0 
L 794 0 
L 794 531 
z
" transform="scale(0.015625)"/>
       </defs>
       <use xlink:href="#DejaVuSans-30"/>
       <use xlink:href="#DejaVuSans-2e" x="63.623047"/>
       <use xlink:href="#DejaVuSans-31" x="95.410156"/>
       <use xlink:href="#DejaVuSans-30" x="159.033203"/>
      </g>
     </g>
    </g>
    <g id="xtick_4">
     <g id="line2d_4">
      <g>
       <use xlink:href="#mc5266c43c3" x="621.027976" y="640.8" style="stroke: #000000; stroke-width: 0.8"/>
      </g>
     </g>
     <g id="text_4">
      <!-- 0.15 -->
      <g transform="translate(609.895163 655.398438) scale(0.1 -0.1)">
       <use xlink:href="#DejaVuSans-30"/>
       <use xlink:href="#DejaVuSans-2e" x="63.623047"/>
       <use xlink:href="#DejaVuSans-31" x="95.410156"/>
       <use xlink:href="#DejaVuSans-35" x="159.033203"/>
      </g>
     </g>
    </g>
    <g id="xtick_5">
     <g id="line2d_5">
      <g>
       <use xlink:href="#mc5266c43c3" x="761.482654" y="640.8" style="stroke: #000000; stroke-width: 0.8"/>
      </g>
     </g>
     <g id="text_5">
      <!-- 0.20 -->
      <g transform="translate(750.349842 655.398438) scale(0.1 -0.1)">
       <defs>
        <path id="DejaVuSans-32" d="M 1228 531 
L 3431 531 
L 3431 0 
L 469 0 
L 469 531 
Q 828 903 1448 1529 
Q 2069 2156 2228 2338 
Q 2531 2678 2651 2914 
Q 2772 3150 2772 3378 
Q 2772 3750 2511 3984 
Q 2250 4219 1831 4219 
Q 1534 4219 1204 4116 
Q 875 4013 500 3803 
L 500 4441 
Q 881 4594 1212 4672 
Q 1544 4750 1819 4750 
Q 2544 4750 2975 4387 
Q 3406 4025 3406 3419 
Q 3406 3131 3298 2873 
Q 3191 2616 2906 2266 
Q 2828 2175 2409 1742 
Q 1991 1309 1228 531 
z
" transform="scale(0.015625)"/>
       </defs>
       <use xlink:href="#DejaVuSans-30"/>
       <use xlink:href="#DejaVuSans-2e" x="63.623047"/>
       <use xlink:href="#DejaVuSans-32" x="95.410156"/>
       <use xlink:href="#DejaVuSans-30" x="159.033203"/>
      </g>
     </g>
    </g>
    <g id="xtick_6">
     <g id="line2d_6">
      <g>
       <use xlink:href="#mc5266c43c3" x="901.937333" y="640.8" style="stroke: #000000; stroke-width: 0.8"/>
      </g>
     </g>
     <g id="text_6">
      <!-- 0.25 -->
      <g transform="translate(890.80452 655.398438) scale(0.1 -0.1)">
       <use xlink:href="#DejaVuSans-30"/>
       <use xlink:href="#DejaVuSans-2e" x="63.623047"/>
       <use xlink:href="#DejaVuSans-32" x="95.410156"/>
       <use xlink:href="#DejaVuSans-35" x="159.033203"/>
      </g>
     </g>
    </g>
    <g id="xtick_7">
     <g id="line2d_7">
      <g>
       <use xlink:href="#mc5266c43c3" x="1042.392012" y="640.8" style="stroke: #000000; stroke-width: 0.8"/>
      </g>
     </g>
     <g id="text_7">
      <!-- 0.30 -->
      <g transform="translate(1031.259199 655.398438) scale(0.1 -0.1)">
       <defs>
        <path id="DejaVuSans-33" d="M 2597 2516 
Q 3050 2419 3304 2112 
Q 3559 1806 3559 1356 
Q 3559 666 3084 287 
Q 2609 -91 1734 -91 
Q 1441 -91 1130 -33 
Q 819 25 488 141 
L 488 750 
Q 750 597 1062 519 
Q 1375 441 1716 441 
Q 2309 441 2620 675 
Q 2931 909 2931 1356 
Q 2931 1769 2642 2001 
Q 2353 2234 1838 2234 
L 1294 2234 
L 1294 2753 
L 1863 2753 
Q 2328 2753 2575 2939 
Q 2822 3125 2822 3475 
Q 2822 3834 2567 4026 
Q 2313 4219 1838 4219 
Q 1578 4219 1281 4162 
Q 984 4106 628 3988 
L 628 4550 
Q 988 4650 1302 4700 
Q 1616 4750 1894 4750 
Q 2613 4750 3031 4423 
Q 3450 4097 3450 3541 
Q 3450 3153 3228 2886 
Q 3006 2619 2597 2516 
z
" transform="scale(0.015625)"/>
       </defs>
       <use xlink:href="#DejaVuSans-30"/>
       <use xlink:href="#DejaVuSans-2e" x="63.623047"/>
       <use xlink:href="#DejaVuSans-33" x="95.410156"/>
       <use xlink:href="#DejaVuSans-30" x="159.033203"/>
      </g>
     </g>
    </g>
    <g id="xtick_8">
     <g id="line2d_8">
      <g>
       <use xlink:href="#mc5266c43c3" x="1182.84669" y="640.8" style="stroke: #000000; stroke-width: 0.8"/>
      </g>
     </g>
     <g id="text_8">
      <!-- 0.35 -->
      <g transform="translate(1171.713878 655.398438) scale(0.1 -0.1)">
       <use xlink:href="#DejaVuSans-30"/>
       <use xlink:href="#DejaVuSans-2e" x="63.623047"/>
       <use xlink:href="#DejaVuSans-33" x="95.410156"/>
       <use xlink:href="#DejaVuSans-35" x="159.033203"/>
      </g>
     </g>
    </g>
    <g id="text_9">
     <!-- initial score -->
     <g transform="translate(709.228906 669.076563) scale(0.1 -0.1)">
      <defs>
       <path id="DejaVuSans-69" d="M 603 3500 
L 1178 3500 
L 1178 0 
L 603 0 
L 603 3500 
z
M 603 4863 
L 1178 4863 
L 1178 4134 
L 603 4134 
L 603 4863 
z
" transform="scale(0.015625)"/>
       <path id="DejaVuSans-6e" d="M 3513 2113 
L 3513 0 
L 2938 0 
L 2938 2094 
Q 2938 2591 2744 2837 
Q 2550 3084 2163 3084 
Q 1697 3084 1428 2787 
Q 1159 2491 1159 1978 
L 1159 0 
L 581 0 
L 581 3500 
L 1159 3500 
L 1159 2956 
Q 1366 3272 1645 3428 
Q 1925 3584 2291 3584 
Q 2894 3584 3203 3211 
Q 3513 2838 3513 2113 
z
" transform="scale(0.015625)"/>
       <path id="DejaVuSans-74" d="M 1172 4494 
L 1172 3500 
L 2356 3500 
L 2356 3053 
L 1172 3053 
L 1172 1153 
Q 1172 725 1289 603 
Q 1406 481 1766 481 
L 2356 481 
L 2356 0 
L 1766 0 
Q 1100 0 847 248 
Q 594 497 594 1153 
L 594 3053 
L 172 3053 
L 172 3500 
L 594 3500 
L 594 4494 
L 1172 4494 
z
" transform="scale(0.015625)"/>
       <path id="DejaVuSans-61" d="M 2194 1759 
Q 1497 1759 1228 1600 
Q 959 1441 959 1056 
Q 959 750 1161 570 
Q 1363 391 1709 391 
Q 2188 391 2477 730 
Q 2766 1069 2766 1631 
L 2766 1759 
L 2194 1759 
z
M 3341 1997 
L 3341 0 
L 2766 0 
L 2766 531 
Q 2569 213 2275 61 
Q 1981 -91 1556 -91 
Q 1019 -91 701 211 
Q 384 513 384 1019 
Q 384 1609 779 1909 
Q 1175 2209 1959 2209 
L 2766 2209 
L 2766 2266 
Q 2766 2663 2505 2880 
Q 2244 3097 1772 3097 
Q 1472 3097 1187 3025 
Q 903 2953 641 2809 
L 641 3341 
Q 956 3463 1253 3523 
Q 1550 3584 1831 3584 
Q 2591 3584 2966 3190 
Q 3341 2797 3341 1997 
z
" transform="scale(0.015625)"/>
       <path id="DejaVuSans-6c" d="M 603 4863 
L 1178 4863 
L 1178 0 
L 603 0 
L 603 4863 
z
" transform="scale(0.015625)"/>
       <path id="DejaVuSans-20" transform="scale(0.015625)"/>
       <path id="DejaVuSans-73" d="M 2834 3397 
L 2834 2853 
Q 2591 2978 2328 3040 
Q 2066 3103 1784 3103 
Q 1356 3103 1142 2972 
Q 928 2841 928 2578 
Q 928 2378 1081 2264 
Q 1234 2150 1697 2047 
L 1894 2003 
Q 2506 1872 2764 1633 
Q 3022 1394 3022 966 
Q 3022 478 2636 193 
Q 2250 -91 1575 -91 
Q 1294 -91 989 -36 
Q 684 19 347 128 
L 347 722 
Q 666 556 975 473 
Q 1284 391 1588 391 
Q 1994 391 2212 530 
Q 2431 669 2431 922 
Q 2431 1156 2273 1281 
Q 2116 1406 1581 1522 
L 1381 1569 
Q 847 1681 609 1914 
Q 372 2147 372 2553 
Q 372 3047 722 3315 
Q 1072 3584 1716 3584 
Q 2034 3584 2315 3537 
Q 2597 3491 2834 3397 
z
" transform="scale(0.015625)"/>
       <path id="DejaVuSans-63" d="M 3122 3366 
L 3122 2828 
Q 2878 2963 2633 3030 
Q 2388 3097 2138 3097 
Q 1578 3097 1268 2742 
Q 959 2388 959 1747 
Q 959 1106 1268 751 
Q 1578 397 2138 397 
Q 2388 397 2633 464 
Q 2878 531 3122 666 
L 3122 134 
Q 2881 22 2623 -34 
Q 2366 -91 2075 -91 
Q 1284 -91 818 406 
Q 353 903 353 1747 
Q 353 2603 823 3093 
Q 1294 3584 2113 3584 
Q 2378 3584 2631 3529 
Q 2884 3475 3122 3366 
z
" transform="scale(0.015625)"/>
       <path id="DejaVuSans-6f" d="M 1959 3097 
Q 1497 3097 1228 2736 
Q 959 2375 959 1747 
Q 959 1119 1226 758 
Q 1494 397 1959 397 
Q 2419 397 2687 759 
Q 2956 1122 2956 1747 
Q 2956 2369 2687 2733 
Q 2419 3097 1959 3097 
z
M 1959 3584 
Q 2709 3584 3137 3096 
Q 3566 2609 3566 1747 
Q 3566 888 3137 398 
Q 2709 -91 1959 -91 
Q 1206 -91 779 398 
Q 353 888 353 1747 
Q 353 2609 779 3096 
Q 1206 3584 1959 3584 
z
" transform="scale(0.015625)"/>
       <path id="DejaVuSans-72" d="M 2631 2963 
Q 2534 3019 2420 3045 
Q 2306 3072 2169 3072 
Q 1681 3072 1420 2755 
Q 1159 2438 1159 1844 
L 1159 0 
L 581 0 
L 581 3500 
L 1159 3500 
L 1159 2956 
Q 1341 3275 1631 3429 
Q 1922 3584 2338 3584 
Q 2397 3584 2469 3576 
Q 2541 3569 2628 3553 
L 2631 2963 
z
" transform="scale(0.015625)"/>
       <path id="DejaVuSans-65" d="M 3597 1894 
L 3597 1613 
L 953 1613 
Q 991 1019 1311 708 
Q 1631 397 2203 397 
Q 2534 397 2845 478 
Q 3156 559 3463 722 
L 3463 178 
Q 3153 47 2828 -22 
Q 2503 -91 2169 -91 
Q 1331 -91 842 396 
Q 353 884 353 1716 
Q 353 2575 817 3079 
Q 1281 3584 2069 3584 
Q 2775 3584 3186 3129 
Q 3597 2675 3597 1894 
z
M 3022 2063 
Q 3016 2534 2758 2815 
Q 2500 3097 2075 3097 
Q 1594 3097 1305 2825 
Q 1016 2553 972 2059 
L 3022 2063 
z
" transform="scale(0.015625)"/>
      </defs>
      <use xlink:href="#DejaVuSans-69"/>
      <use xlink:href="#DejaVuSans-6e" x="27.783203"/>
      <use xlink:href="#DejaVuSans-69" x="91.162109"/>
      <use xlink:href="#DejaVuSans-74" x="118.945312"/>
      <use xlink:href="#DejaVuSans-69" x="158.154297"/>
      <use xlink:href="#DejaVuSans-61" x="185.9375"/>
      <use xlink:href="#DejaVuSans-6c" x="247.216797"/>
      <use xlink:href="#DejaVuSans-20" x="275"/>
      <use xlink:href="#DejaVuSans-73" x="306.787109"/>
      <use xlink:href="#DejaVuSans-63" x="358.886719"/>
      <use xlink:href="#DejaVuSans-6f" x="413.867188"/>
      <use xlink:href="#DejaVuSans-72" x="475.048828"/>
      <use xlink:href="#DejaVuSans-65" x="513.912109"/>
     </g>
    </g>
   </g>
   <g id="matplotlib.axis_2">
    <g id="ytick_1">
     <g id="line2d_9">
      <defs>
       <path id="mea73315498" d="M 0 0 
L -3.5 0 
" style="stroke: #000000; stroke-width: 0.8"/>
      </defs>
      <g>
       <use xlink:href="#mea73315498" x="180" y="627.542567" style="stroke: #000000; stroke-width: 0.8"/>
      </g>
     </g>
     <g id="text_10">
      <!-- 0.1 -->
      <g transform="translate(157.096875 631.341785) scale(0.1 -0.1)">
       <use xlink:href="#DejaVuSans-30"/>
       <use xlink:href="#DejaVuSans-2e" x="63.623047"/>
       <use xlink:href="#DejaVuSans-31" x="95.410156"/>
      </g>
     </g>
    </g>
    <g id="ytick_2">
     <g id="line2d_10">
      <g>
       <use xlink:href="#mea73315498" x="180" y="535.346146" style="stroke: #000000; stroke-width: 0.8"/>
      </g>
     </g>
     <g id="text_11">
      <!-- 0.2 -->
      <g transform="translate(157.096875 539.145364) scale(0.1 -0.1)">
       <use xlink:href="#DejaVuSans-30"/>
       <use xlink:href="#DejaVuSans-2e" x="63.623047"/>
       <use xlink:href="#DejaVuSans-32" x="95.410156"/>
      </g>
     </g>
    </g>
    <g id="ytick_3">
     <g id="line2d_11">
      <g>
       <use xlink:href="#mea73315498" x="180" y="443.149725" style="stroke: #000000; stroke-width: 0.8"/>
      </g>
     </g>
     <g id="text_12">
      <!-- 0.3 -->
      <g transform="translate(157.096875 446.948944) scale(0.1 -0.1)">
       <use xlink:href="#DejaVuSans-30"/>
       <use xlink:href="#DejaVuSans-2e" x="63.623047"/>
       <use xlink:href="#DejaVuSans-33" x="95.410156"/>
      </g>
     </g>
    </g>
    <g id="ytick_4">
     <g id="line2d_12">
      <g>
       <use xlink:href="#mea73315498" x="180" y="350.953304" style="stroke: #000000; stroke-width: 0.8"/>
      </g>
     </g>
     <g id="text_13">
      <!-- 0.4 -->
      <g transform="translate(157.096875 354.752523) scale(0.1 -0.1)">
       <defs>
        <path id="DejaVuSans-34" d="M 2419 4116 
L 825 1625 
L 2419 1625 
L 2419 4116 
z
M 2253 4666 
L 3047 4666 
L 3047 1625 
L 3713 1625 
L 3713 1100 
L 3047 1100 
L 3047 0 
L 2419 0 
L 2419 1100 
L 313 1100 
L 313 1709 
L 2253 4666 
z
" transform="scale(0.015625)"/>
       </defs>
       <use xlink:href="#DejaVuSans-30"/>
       <use xlink:href="#DejaVuSans-2e" x="63.623047"/>
       <use xlink:href="#DejaVuSans-34" x="95.410156"/>
      </g>
     </g>
    </g>
    <g id="ytick_5">
     <g id="line2d_13">
      <g>
       <use xlink:href="#mea73315498" x="180" y="258.756883" style="stroke: #000000; stroke-width: 0.8"/>
      </g>
     </g>
     <g id="text_14">
      <!-- 0.5 -->
      <g transform="translate(157.096875 262.556102) scale(0.1 -0.1)">
       <use xlink:href="#DejaVuSans-30"/>
       <use xlink:href="#DejaVuSans-2e" x="63.623047"/>
       <use xlink:href="#DejaVuSans-35" x="95.410156"/>
      </g>
     </g>
    </g>
    <g id="ytick_6">
     <g id="line2d_14">
      <g>
       <use xlink:href="#mea73315498" x="180" y="166.560462" style="stroke: #000000; stroke-width: 0.8"/>
      </g>
     </g>
     <g id="text_15">
      <!-- 0.6 -->
      <g transform="translate(157.096875 170.359681) scale(0.1 -0.1)">
       <defs>
        <path id="DejaVuSans-36" d="M 2113 2584 
Q 1688 2584 1439 2293 
Q 1191 2003 1191 1497 
Q 1191 994 1439 701 
Q 1688 409 2113 409 
Q 2538 409 2786 701 
Q 3034 994 3034 1497 
Q 3034 2003 2786 2293 
Q 2538 2584 2113 2584 
z
M 3366 4563 
L 3366 3988 
Q 3128 4100 2886 4159 
Q 2644 4219 2406 4219 
Q 1781 4219 1451 3797 
Q 1122 3375 1075 2522 
Q 1259 2794 1537 2939 
Q 1816 3084 2150 3084 
Q 2853 3084 3261 2657 
Q 3669 2231 3669 1497 
Q 3669 778 3244 343 
Q 2819 -91 2113 -91 
Q 1303 -91 875 529 
Q 447 1150 447 2328 
Q 447 3434 972 4092 
Q 1497 4750 2381 4750 
Q 2619 4750 2861 4703 
Q 3103 4656 3366 4563 
z
" transform="scale(0.015625)"/>
       </defs>
       <use xlink:href="#DejaVuSans-30"/>
       <use xlink:href="#DejaVuSans-2e" x="63.623047"/>
       <use xlink:href="#DejaVuSans-36" x="95.410156"/>
      </g>
     </g>
    </g>
    <g id="text_16">
     <!-- final score -->
     <g transform="translate(151.017188 389.392969) rotate(-90) scale(0.1 -0.1)">
      <defs>
       <path id="DejaVuSans-66" d="M 2375 4863 
L 2375 4384 
L 1825 4384 
Q 1516 4384 1395 4259 
Q 1275 4134 1275 3809 
L 1275 3500 
L 2222 3500 
L 2222 3053 
L 1275 3053 
L 1275 0 
L 697 0 
L 697 3053 
L 147 3053 
L 147 3500 
L 697 3500 
L 697 3744 
Q 697 4328 969 4595 
Q 1241 4863 1831 4863 
L 2375 4863 
z
" transform="scale(0.015625)"/>
      </defs>
      <use xlink:href="#DejaVuSans-66"/>
      <use xlink:href="#DejaVuSans-69" x="35.205078"/>
      <use xlink:href="#DejaVuSans-6e" x="62.988281"/>
      <use xlink:href="#DejaVuSans-61" x="126.367188"/>
      <use xlink:href="#DejaVuSans-6c" x="187.646484"/>
      <use xlink:href="#DejaVuSans-20" x="215.429688"/>
      <use xlink:href="#DejaVuSans-73" x="247.216797"/>
      <use xlink:href="#DejaVuSans-63" x="299.316406"/>
      <use xlink:href="#DejaVuSans-6f" x="354.296875"/>
      <use xlink:href="#DejaVuSans-72" x="415.478516"/>
      <use xlink:href="#DejaVuSans-65" x="454.341797"/>
     </g>
    </g>
   </g>
   <g id="line2d_15"/>
   <g id="patch_3">
    <path d="M 180 640.8 
L 180 86.4 
" style="fill: none; stroke: #000000; stroke-width: 0.8; stroke-linejoin: miter; stroke-linecap: square"/>
   </g>
   <g id="patch_4">
    <path d="M 1296 640.8 
L 1296 86.4 
" style="fill: none; stroke: #000000; stroke-width: 0.8; stroke-linejoin: miter; stroke-linecap: square"/>
   </g>
   <g id="patch_5">
    <path d="M 180 640.8 
L 1296 640.8 
" style="fill: none; stroke: #000000; stroke-width: 0.8; stroke-linejoin: miter; stroke-linecap: square"/>
   </g>
   <g id="patch_6">
    <path d="M 180 86.4 
L 1296 86.4 
" style="fill: none; stroke: #000000; stroke-width: 0.8; stroke-linejoin: miter; stroke-linecap: square"/>
   </g>
   <g id="text_17">
    <!-- Correlation between initial and final score -->
    <g transform="translate(612.604687 80.4) scale(0.12 -0.12)">
     <defs>
      <path id="DejaVuSans-43" d="M 4122 4306 
L 4122 3641 
Q 3803 3938 3442 4084 
Q 3081 4231 2675 4231 
Q 1875 4231 1450 3742 
Q 1025 3253 1025 2328 
Q 1025 1406 1450 917 
Q 1875 428 2675 428 
Q 3081 428 3442 575 
Q 3803 722 4122 1019 
L 4122 359 
Q 3791 134 3420 21 
Q 3050 -91 2638 -91 
Q 1578 -91 968 557 
Q 359 1206 359 2328 
Q 359 3453 968 4101 
Q 1578 4750 2638 4750 
Q 3056 4750 3426 4639 
Q 3797 4528 4122 4306 
z
" transform="scale(0.015625)"/>
      <path id="DejaVuSans-62" d="M 3116 1747 
Q 3116 2381 2855 2742 
Q 2594 3103 2138 3103 
Q 1681 3103 1420 2742 
Q 1159 2381 1159 1747 
Q 1159 1113 1420 752 
Q 1681 391 2138 391 
Q 2594 391 2855 752 
Q 3116 1113 3116 1747 
z
M 1159 2969 
Q 1341 3281 1617 3432 
Q 1894 3584 2278 3584 
Q 2916 3584 3314 3078 
Q 3713 2572 3713 1747 
Q 3713 922 3314 415 
Q 2916 -91 2278 -91 
Q 1894 -91 1617 61 
Q 1341 213 1159 525 
L 1159 0 
L 581 0 
L 581 4863 
L 1159 4863 
L 1159 2969 
z
" transform="scale(0.015625)"/>
      <path id="DejaVuSans-77" d="M 269 3500 
L 844 3500 
L 1563 769 
L 2278 3500 
L 2956 3500 
L 3675 769 
L 4391 3500 
L 4966 3500 
L 4050 0 
L 3372 0 
L 2619 2869 
L 1863 0 
L 1184 0 
L 269 3500 
z
" transform="scale(0.015625)"/>
      <path id="DejaVuSans-64" d="M 2906 2969 
L 2906 4863 
L 3481 4863 
L 3481 0 
L 2906 0 
L 2906 525 
Q 2725 213 2448 61 
Q 2172 -91 1784 -91 
Q 1150 -91 751 415 
Q 353 922 353 1747 
Q 353 2572 751 3078 
Q 1150 3584 1784 3584 
Q 2172 3584 2448 3432 
Q 2725 3281 2906 2969 
z
M 947 1747 
Q 947 1113 1208 752 
Q 1469 391 1925 391 
Q 2381 391 2643 752 
Q 2906 1113 2906 1747 
Q 2906 2381 2643 2742 
Q 2381 3103 1925 3103 
Q 1469 3103 1208 2742 
Q 947 2381 947 1747 
z
" transform="scale(0.015625)"/>
     </defs>
     <use xlink:href="#DejaVuSans-43"/>
     <use xlink:href="#DejaVuSans-6f" x="69.824219"/>
     <use xlink:href="#DejaVuSans-72" x="131.005859"/>
     <use xlink:href="#DejaVuSans-72" x="170.369141"/>
     <use xlink:href="#DejaVuSans-65" x="209.232422"/>
     <use xlink:href="#DejaVuSans-6c" x="270.755859"/>
     <use xlink:href="#DejaVuSans-61" x="298.539062"/>
     <use xlink:href="#DejaVuSans-74" x="359.818359"/>
     <use xlink:href="#DejaVuSans-69" x="399.027344"/>
     <use xlink:href="#DejaVuSans-6f" x="426.810547"/>
     <use xlink:href="#DejaVuSans-6e" x="487.992188"/>
     <use xlink:href="#DejaVuSans-20" x="551.371094"/>
     <use xlink:href="#DejaVuSans-62" x="583.158203"/>
     <use xlink:href="#DejaVuSans-65" x="646.634766"/>
     <use xlink:href="#DejaVuSans-74" x="708.158203"/>
     <use xlink:href="#DejaVuSans-77" x="747.367188"/>
     <use xlink:href="#DejaVuSans-65" x="829.154297"/>
     <use xlink:href="#DejaVuSans-65" x="890.677734"/>
     <use xlink:href="#DejaVuSans-6e" x="952.201172"/>
     <use xlink:href="#DejaVuSans-20" x="1015.580078"/>
     <use xlink:href="#DejaVuSans-69" x="1047.367188"/>
     <use xlink:href="#DejaVuSans-6e" x="1075.150391"/>
     <use xlink:href="#DejaVuSans-69" x="1138.529297"/>
     <use xlink:href="#DejaVuSans-74" x="1166.3125"/>
     <use xlink:href="#DejaVuSans-69" x="1205.521484"/>
     <use xlink:href="#DejaVuSans-61" x="1233.304688"/>
     <use xlink:href="#DejaVuSans-6c" x="1294.583984"/>
     <use xlink:href="#DejaVuSans-20" x="1322.367188"/>
     <use xlink:href="#DejaVuSans-61" x="1354.154297"/>
     <use xlink:href="#DejaVuSans-6e" x="1415.433594"/>
     <use xlink:href="#DejaVuSans-64" x="1478.8125"/>
     <use xlink:href="#DejaVuSans-20" x="1542.289062"/>
     <use xlink:href="#DejaVuSans-66" x="1574.076172"/>
     <use xlink:href="#DejaVuSans-69" x="1609.28125"/>
     <use xlink:href="#DejaVuSans-6e" x="1637.064453"/>
     <use xlink:href="#DejaVuSans-61" x="1700.443359"/>
     <use xlink:href="#DejaVuSans-6c" x="1761.722656"/>
     <use xlink:href="#DejaVuSans-20" x="1789.505859"/>
     <use xlink:href="#DejaVuSans-73" x="1821.292969"/>
     <use xlink:href="#DejaVuSans-63" x="1873.392578"/>
     <use xlink:href="#DejaVuSans-6f" x="1928.373047"/>
     <use xlink:href="#DejaVuSans-72" x="1989.554688"/>
     <use xlink:href="#DejaVuSans-65" x="2028.417969"/>
    </g>
   </g>
   <g id="legend_1">
    <g id="patch_7">
     <path d="M 1235.2125 123.75625 
L 1289 123.75625 
Q 1291 123.75625 1291 121.75625 
L 1291 93.4 
Q 1291 91.4 1289 91.4 
L 1235.2125 91.4 
Q 1233.2125 91.4 1233.2125 93.4 
L 1233.2125 121.75625 
Q 1233.2125 123.75625 1235.2125 123.75625 
z
" style="fill: #ffffff; opacity: 0.8; stroke: #cccccc; stroke-linejoin: miter"/>
    </g>
    <g id="text_18">
     <!-- fileName -->
     <g transform="translate(1239.739844 102.998437) scale(0.1 -0.1)">
      <defs>
       <path id="DejaVuSans-4e" d="M 628 4666 
L 1478 4666 
L 3547 763 
L 3547 4666 
L 4159 4666 
L 4159 0 
L 3309 0 
L 1241 3903 
L 1241 0 
L 628 0 
L 628 4666 
z
" transform="scale(0.015625)"/>
       <path id="DejaVuSans-6d" d="M 3328 2828 
Q 3544 3216 3844 3400 
Q 4144 3584 4550 3584 
Q 5097 3584 5394 3201 
Q 5691 2819 5691 2113 
L 5691 0 
L 5113 0 
L 5113 2094 
Q 5113 2597 4934 2840 
Q 4756 3084 4391 3084 
Q 3944 3084 3684 2787 
Q 3425 2491 3425 1978 
L 3425 0 
L 2847 0 
L 2847 2094 
Q 2847 2600 2669 2842 
Q 2491 3084 2119 3084 
Q 1678 3084 1418 2786 
Q 1159 2488 1159 1978 
L 1159 0 
L 581 0 
L 581 3500 
L 1159 3500 
L 1159 2956 
Q 1356 3278 1631 3431 
Q 1906 3584 2284 3584 
Q 2666 3584 2933 3390 
Q 3200 3197 3328 2828 
z
" transform="scale(0.015625)"/>
      </defs>
      <use xlink:href="#DejaVuSans-66"/>
      <use xlink:href="#DejaVuSans-69" x="35.205078"/>
      <use xlink:href="#DejaVuSans-6c" x="62.988281"/>
      <use xlink:href="#DejaVuSans-65" x="90.771484"/>
      <use xlink:href="#DejaVuSans-4e" x="152.294922"/>
      <use xlink:href="#DejaVuSans-61" x="227.099609"/>
      <use xlink:href="#DejaVuSans-6d" x="288.378906"/>
      <use xlink:href="#DejaVuSans-65" x="385.791016"/>
     </g>
    </g>
    <g id="line2d_16">
     <defs>
      <path id="m5d316d77ca" d="M 0 3 
C 0.795609 3 1.55874 2.683901 2.12132 2.12132 
C 2.683901 1.55874 3 0.795609 3 0 
C 3 -0.795609 2.683901 -1.55874 2.12132 -2.12132 
C 1.55874 -2.683901 0.795609 -3 0 -3 
C -0.795609 -3 -1.55874 -2.683901 -2.12132 -2.12132 
C -2.683901 -1.55874 -3 -0.795609 -3 0 
C -3 0.795609 -2.683901 1.55874 -2.12132 2.12132 
C -1.55874 2.683901 -0.795609 3 0 3 
z
" style="stroke: #ffffff; stroke-width: 0.48"/>
     </defs>
     <g>
      <use xlink:href="#m5d316d77ca" x="1247.2125" y="114.176562" style="fill: #1f77b4; stroke: #ffffff; stroke-width: 0.48"/>
     </g>
    </g>
    <g id="text_19">
     <!-- max -->
     <g transform="translate(1265.2125 117.676562) scale(0.1 -0.1)">
      <defs>
       <path id="DejaVuSans-78" d="M 3513 3500 
L 2247 1797 
L 3578 0 
L 2900 0 
L 1881 1375 
L 863 0 
L 184 0 
L 1544 1831 
L 300 3500 
L 978 3500 
L 1906 2253 
L 2834 3500 
L 3513 3500 
z
" transform="scale(0.015625)"/>
      </defs>
      <use xlink:href="#DejaVuSans-6d"/>
      <use xlink:href="#DejaVuSans-61" x="97.412109"/>
      <use xlink:href="#DejaVuSans-78" x="158.691406"/>
     </g>
    </g>
   </g>
  </g>
 </g>
 <defs>
  <clipPath id="pc584024fce">
   <rect x="180" y="86.4" width="1116" height="554.4"/>
  </clipPath>
 </defs>
</svg>
