<?xml version="1.0" encoding="utf-8" standalone="no"?>
<!DOCTYPE svg PUBLIC "-//W3C//DTD SVG 1.1//EN"
  "http://www.w3.org/Graphics/SVG/1.1/DTD/svg11.dtd">
<svg xmlns:xlink="http://www.w3.org/1999/xlink" width="1440pt" height="720pt" viewBox="0 0 1440 720" xmlns="http://www.w3.org/2000/svg" version="1.1">
 <metadata>
  <rdf:RDF xmlns:dc="http://purl.org/dc/elements/1.1/" xmlns:cc="http://creativecommons.org/ns#" xmlns:rdf="http://www.w3.org/1999/02/22-rdf-syntax-ns#">
   <cc:Work>
    <dc:type rdf:resource="http://purl.org/dc/dcmitype/StillImage"/>
    <dc:date>2024-07-24T18:23:36.014564</dc:date>
    <dc:format>image/svg+xml</dc:format>
    <dc:creator>
     <cc:Agent>
      <dc:title>Matplotlib v3.8.0, https://matplotlib.org/</dc:title>
     </cc:Agent>
    </dc:creator>
   </cc:Work>
  </rdf:RDF>
 </metadata>
 <defs>
  <style type="text/css">*{stroke-linejoin: round; stroke-linecap: butt}</style>
 </defs>
 <g id="figure_1">
  <g id="patch_1">
   <path d="M 0 720 
L 1440 720 
L 1440 0 
L 0 0 
z
" style="fill: #ffffff"/>
  </g>
  <g id="axes_1">
   <g id="patch_2">
    <path d="M 180 640.8 
L 1296 640.8 
L 1296 86.4 
L 180 86.4 
z
" style="fill: #ffffff"/>
   </g>
   <g id="PolyCollection_1">
    <defs>
     <path id="m208133b7ce" d="M 235.898447 -104.4 
L 235.701553 -104.4 
L 235.662333 -109.126941 
L 235.612993 -113.853882 
L 235.553118 -118.580823 
L 235.483037 -123.307764 
L 235.4039 -128.034705 
L 235.317584 -132.761646 
L 235.226405 -137.488587 
L 235.132646 -142.215528 
L 235.037933 -146.942469 
L 234.942595 -151.66941 
L 234.84513 -156.396351 
L 234.74194 -161.123291 
L 234.62745 -165.850232 
L 234.494669 -170.577173 
L 234.336162 -175.304114 
L 234.145297 -180.031055 
L 233.917569 -184.757996 
L 233.651724 -189.484937 
L 233.350461 -194.211878 
L 233.020511 -198.938819 
L 232.672003 -203.66576 
L 232.317195 -208.392701 
L 231.968728 -213.119642 
L 231.637709 -217.846583 
L 231.331956 -222.573524 
L 231.054725 -227.300465 
L 230.804148 -232.027406 
L 230.573487 -236.754347 
L 230.352102 -241.481288 
L 230.126941 -246.208229 
L 229.884221 -250.93517 
L 229.610957 -255.662111 
L 229.296058 -260.389052 
L 228.930817 -265.115992 
L 228.508772 -269.842933 
L 228.025074 -274.569874 
L 227.475587 -279.296815 
L 226.856032 -284.023756 
L 226.161441 -288.750697 
L 225.386137 -293.477638 
L 224.524333 -298.204579 
L 223.571288 -302.93152 
L 222.524869 -307.658461 
L 221.387229 -312.385402 
L 220.166295 -317.112343 
L 218.876751 -321.839284 
L 217.540288 -326.566225 
L 216.184945 -331.293166 
L 214.843545 -336.020107 
L 213.551334 -340.747048 
L 212.343049 -345.473989 
L 211.249786 -350.20093 
L 210.296068 -354.927871 
L 209.497577 -359.654812 
L 208.859943 -364.381753 
L 208.378894 -369.108693 
L 208.041852 -373.835634 
L 207.830852 -378.562575 
L 207.726377 -383.289516 
L 207.711493 -388.016457 
L 207.77554 -392.743398 
L 207.916649 -397.470339 
L 208.142528 -402.19728 
L 208.469276 -406.924221 
L 208.918361 -411.651162 
L 209.51228 -416.378103 
L 210.26973 -421.105044 
L 211.201189 -425.831985 
L 212.305772 -430.558926 
L 213.569932 -435.285867 
L 214.968199 -440.012808 
L 216.465751 -444.739749 
L 218.022256 -449.46669 
L 219.596222 -454.193631 
L 221.14908 -458.920572 
L 222.648353 -463.647513 
L 224.069523 -468.374454 
L 225.396528 -473.101395 
L 226.621061 -477.828335 
L 227.74108 -482.555276 
L 228.758959 -487.282217 
L 229.67969 -492.009158 
L 230.509444 -496.736099 
L 231.25459 -501.46304 
L 231.921189 -506.189981 
L 232.514829 -510.916922 
L 233.040673 -515.643863 
L 233.503569 -520.370804 
L 233.908158 -525.097745 
L 234.258929 -529.824686 
L 234.560239 -534.551627 
L 234.816327 -539.278568 
L 235.031324 -544.005509 
L 235.209288 -548.73245 
L 235.354235 -553.459391 
L 235.470156 -558.186332 
L 235.561004 -562.913273 
L 235.630643 -567.640214 
L 235.682766 -572.367155 
L 235.917234 -572.367155 
L 235.917234 -572.367155 
L 235.969357 -567.640214 
L 236.038996 -562.913273 
L 236.129844 -558.186332 
L 236.245765 -553.459391 
L 236.390712 -548.73245 
L 236.568676 -544.005509 
L 236.783673 -539.278568 
L 237.039761 -534.551627 
L 237.341071 -529.824686 
L 237.691842 -525.097745 
L 238.096431 -520.370804 
L 238.559327 -515.643863 
L 239.085171 -510.916922 
L 239.678811 -506.189981 
L 240.34541 -501.46304 
L 241.090556 -496.736099 
L 241.92031 -492.009158 
L 242.841041 -487.282217 
L 243.85892 -482.555276 
L 244.978939 -477.828335 
L 246.203472 -473.101395 
L 247.530477 -468.374454 
L 248.951647 -463.647513 
L 250.45092 -458.920572 
L 252.003778 -454.193631 
L 253.577744 -449.46669 
L 255.134249 -444.739749 
L 256.631801 -440.012808 
L 258.030068 -435.285867 
L 259.294228 -430.558926 
L 260.398811 -425.831985 
L 261.33027 -421.105044 
L 262.08772 -416.378103 
L 262.681639 -411.651162 
L 263.130724 -406.924221 
L 263.457472 -402.19728 
L 263.683351 -397.470339 
L 263.82446 -392.743398 
L 263.888507 -388.016457 
L 263.873623 -383.289516 
L 263.769148 -378.562575 
L 263.558148 -373.835634 
L 263.221106 -369.108693 
L 262.740057 -364.381753 
L 262.102423 -359.654812 
L 261.303932 -354.927871 
L 260.350214 -350.20093 
L 259.256951 -345.473989 
L 258.048666 -340.747048 
L 256.756455 -336.020107 
L 255.415055 -331.293166 
L 254.059712 -326.566225 
L 252.723249 -321.839284 
L 251.433705 -317.112343 
L 250.212771 -312.385402 
L 249.075131 -307.658461 
L 248.028712 -302.93152 
L 247.075667 -298.204579 
L 246.213863 -293.477638 
L 245.438559 -288.750697 
L 244.743968 -284.023756 
L 244.124413 -279.296815 
L 243.574926 -274.569874 
L 243.091228 -269.842933 
L 242.669183 -265.115992 
L 242.303942 -260.389052 
L 241.989043 -255.662111 
L 241.715779 -250.93517 
L 241.473059 -246.208229 
L 241.247898 -241.481288 
L 241.026513 -236.754347 
L 240.795852 -232.027406 
L 240.545275 -227.300465 
L 240.268044 -222.573524 
L 239.962291 -217.846583 
L 239.631272 -213.119642 
L 239.282805 -208.392701 
L 238.927997 -203.66576 
L 238.579489 -198.938819 
L 238.249539 -194.211878 
L 237.948276 -189.484937 
L 237.682431 -184.757996 
L 237.454703 -180.031055 
L 237.263838 -175.304114 
L 237.105331 -170.577173 
L 236.97255 -165.850232 
L 236.85806 -161.123291 
L 236.75487 -156.396351 
L 236.657405 -151.66941 
L 236.562067 -146.942469 
L 236.467354 -142.215528 
L 236.373595 -137.488587 
L 236.282416 -132.761646 
L 236.1961 -128.034705 
L 236.116963 -123.307764 
L 236.046882 -118.580823 
L 235.987007 -113.853882 
L 235.937667 -109.126941 
L 235.898447 -104.4 
z
" style="stroke: #3f3f3f; stroke-width: 1.25"/>
    </defs>
    <g clip-path="url(#pc6b5f1ede4)">
     <use xlink:href="#m208133b7ce" x="0" y="720" style="fill: #3274a1; stroke: #3f3f3f; stroke-width: 1.25"/>
    </g>
   </g>
   <g id="PolyCollection_2">
    <defs>
     <path id="m1d4ded7620" d="M 347.562506 -157.889358 
L 347.237494 -157.889358 
L 347.177054 -162.019489 
L 347.102332 -166.14962 
L 347.013214 -170.279751 
L 346.910869 -174.409882 
L 346.79798 -178.540013 
L 346.678804 -182.670144 
L 346.559001 -186.800274 
L 346.445209 -190.930405 
L 346.344378 -195.060536 
L 346.262927 -199.190667 
L 346.205829 -203.320798 
L 346.17577 -207.450929 
L 346.172494 -211.58106 
L 346.192462 -215.711191 
L 346.228885 -219.841321 
L 346.272133 -223.971452 
L 346.310479 -228.101583 
L 346.331106 -232.231714 
L 346.321236 -236.361845 
L 346.269299 -240.491976 
L 346.165985 -244.622107 
L 346.0051 -248.752237 
L 345.784108 -252.882368 
L 345.504297 -257.012499 
L 345.170509 -261.14263 
L 344.79044 -265.272761 
L 344.373573 -269.402892 
L 343.92985 -273.533023 
L 343.468295 -277.663154 
L 342.99578 -281.793284 
L 342.516137 -285.923415 
L 342.029758 -290.053546 
L 341.533687 -294.183677 
L 341.022124 -298.313808 
L 340.48711 -302.443939 
L 339.919154 -306.57407 
L 339.307567 -310.704201 
L 338.64038 -314.834331 
L 337.903913 -318.964462 
L 337.082209 -323.094593 
L 336.156722 -327.224724 
L 335.106673 -331.354855 
L 333.910417 -335.484986 
L 332.547989 -339.615117 
L 331.004696 -343.745247 
L 329.275341 -347.875378 
L 327.368411 -352.005509 
L 325.309419 -356.13564 
L 323.142613 -360.265771 
L 320.930456 -364.395902 
L 318.750609 -368.526033 
L 316.690539 -372.656164 
L 314.840289 -376.786294 
L 313.284269 -380.916425 
L 312.093128 -385.046556 
L 311.316752 -389.176687 
L 310.979345 -393.306818 
L 311.077215 -397.436949 
L 311.579541 -401.56708 
L 312.432029 -405.697211 
L 313.562949 -409.827341 
L 314.890809 -413.957472 
L 316.3327 -418.087603 
L 317.812281 -422.217734 
L 319.266452 -426.347865 
L 320.649929 -430.477996 
L 321.937252 -434.608127 
L 323.122104 -438.738257 
L 324.21425 -442.868388 
L 325.234727 -446.998519 
L 326.210177 -451.12865 
L 327.167296 -455.258781 
L 328.128263 -459.388912 
L 329.107773 -463.519043 
L 330.111928 -467.649174 
L 331.138862 -471.779304 
L 332.180678 -475.909435 
L 333.226083 -480.039566 
L 334.263057 -484.169697 
L 335.281042 -488.299828 
L 336.272293 -492.429959 
L 337.232288 -496.56009 
L 338.159315 -500.690221 
L 339.053488 -504.820351 
L 339.915505 -508.950482 
L 340.745493 -513.080613 
L 341.542158 -517.210744 
L 342.302402 -521.340875 
L 343.021438 -525.471006 
L 343.69332 -529.601137 
L 344.311762 -533.731267 
L 344.871065 -537.861398 
L 345.366962 -541.991529 
L 345.797251 -546.12166 
L 346.162114 -550.251791 
L 346.46412 -554.381922 
L 346.707915 -558.512053 
L 346.899721 -562.642184 
L 347.046711 -566.772314 
L 347.753289 -566.772314 
L 347.753289 -566.772314 
L 347.900279 -562.642184 
L 348.092085 -558.512053 
L 348.33588 -554.381922 
L 348.637886 -550.251791 
L 349.002749 -546.12166 
L 349.433038 -541.991529 
L 349.928935 -537.861398 
L 350.488238 -533.731267 
L 351.10668 -529.601137 
L 351.778562 -525.471006 
L 352.497598 -521.340875 
L 353.257842 -517.210744 
L 354.054507 -513.080613 
L 354.884495 -508.950482 
L 355.746512 -504.820351 
L 356.640685 -500.690221 
L 357.567712 -496.56009 
L 358.527707 -492.429959 
L 359.518958 -488.299828 
L 360.536943 -484.169697 
L 361.573917 -480.039566 
L 362.619322 -475.909435 
L 363.661138 -471.779304 
L 364.688072 -467.649174 
L 365.692227 -463.519043 
L 366.671737 -459.388912 
L 367.632704 -455.258781 
L 368.589823 -451.12865 
L 369.565273 -446.998519 
L 370.58575 -442.868388 
L 371.677896 -438.738257 
L 372.862748 -434.608127 
L 374.150071 -430.477996 
L 375.533548 -426.347865 
L 376.987719 -422.217734 
L 378.4673 -418.087603 
L 379.909191 -413.957472 
L 381.237051 -409.827341 
L 382.367971 -405.697211 
L 383.220459 -401.56708 
L 383.722785 -397.436949 
L 383.820655 -393.306818 
L 383.483248 -389.176687 
L 382.706872 -385.046556 
L 381.515731 -380.916425 
L 379.959711 -376.786294 
L 378.109461 -372.656164 
L 376.049391 -368.526033 
L 373.869544 -364.395902 
L 371.657387 -360.265771 
L 369.490581 -356.13564 
L 367.431589 -352.005509 
L 365.524659 -347.875378 
L 363.795304 -343.745247 
L 362.252011 -339.615117 
L 360.889583 -335.484986 
L 359.693327 -331.354855 
L 358.643278 -327.224724 
L 357.717791 -323.094593 
L 356.896087 -318.964462 
L 356.15962 -314.834331 
L 355.492433 -310.704201 
L 354.880846 -306.57407 
L 354.31289 -302.443939 
L 353.777876 -298.313808 
L 353.266313 -294.183677 
L 352.770242 -290.053546 
L 352.283863 -285.923415 
L 351.80422 -281.793284 
L 351.331705 -277.663154 
L 350.87015 -273.533023 
L 350.426427 -269.402892 
L 350.00956 -265.272761 
L 349.629491 -261.14263 
L 349.295703 -257.012499 
L 349.015892 -252.882368 
L 348.7949 -248.752237 
L 348.634015 -244.622107 
L 348.530701 -240.491976 
L 348.478764 -236.361845 
L 348.468894 -232.231714 
L 348.489521 -228.101583 
L 348.527867 -223.971452 
L 348.571115 -219.841321 
L 348.607538 -215.711191 
L 348.627506 -211.58106 
L 348.62423 -207.450929 
L 348.594171 -203.320798 
L 348.537073 -199.190667 
L 348.455622 -195.060536 
L 348.354791 -190.930405 
L 348.240999 -186.800274 
L 348.121196 -182.670144 
L 348.00202 -178.540013 
L 347.889131 -174.409882 
L 347.786786 -170.279751 
L 347.697668 -166.14962 
L 347.622946 -162.019489 
L 347.562506 -157.889358 
z
" style="stroke: #3f3f3f; stroke-width: 1.25"/>
    </defs>
    <g clip-path="url(#pc6b5f1ede4)">
     <use xlink:href="#m1d4ded7620" x="0" y="720" style="fill: #3274a1; stroke: #3f3f3f; stroke-width: 1.25"/>
    </g>
   </g>
   <g id="PolyCollection_3">
    <defs>
     <path id="m2e6b37fa64" d="M 459.468387 -266.048786 
L 458.531613 -266.048786 
L 458.387414 -268.658566 
L 458.208975 -271.268346 
L 457.991407 -273.878126 
L 457.730037 -276.487906 
L 457.420689 -279.097686 
L 457.05999 -281.707467 
L 456.645679 -284.317247 
L 456.176885 -286.927027 
L 455.654361 -289.536807 
L 455.080624 -292.146587 
L 454.459982 -294.756367 
L 453.79843 -297.366147 
L 453.103402 -299.975928 
L 452.383387 -302.585708 
L 451.647421 -305.195488 
L 450.904506 -307.805268 
L 450.162989 -310.415048 
L 449.429971 -313.024828 
L 448.710799 -315.634608 
L 448.008691 -318.244388 
L 447.324553 -320.854169 
L 446.656995 -323.463949 
L 446.002568 -326.073729 
L 445.356194 -328.683509 
L 444.711748 -331.293289 
L 444.062753 -333.903069 
L 443.403106 -336.512849 
L 442.727786 -339.122629 
L 442.033458 -341.73241 
L 441.318954 -344.34219 
L 440.58556 -346.95197 
L 439.83711 -349.56175 
L 439.079877 -352.17153 
L 438.322255 -354.78131 
L 437.574279 -357.39109 
L 436.846981 -360.000871 
L 436.151644 -362.610651 
L 435.498971 -365.220431 
L 434.898241 -367.830211 
L 434.356479 -370.439991 
L 433.877706 -373.049771 
L 433.462328 -375.659551 
L 433.106713 -378.269331 
L 432.803009 -380.879112 
L 432.539239 -383.488892 
L 432.299698 -386.098672 
L 432.065649 -388.708452 
L 431.816296 -391.318232 
L 431.529986 -393.928012 
L 431.185575 -396.537792 
L 430.763869 -399.147573 
L 430.249047 -401.757353 
L 429.62998 -404.367133 
L 428.901345 -406.976913 
L 428.06448 -409.586693 
L 427.127894 -412.196473 
L 426.10742 -414.806253 
L 425.025977 -417.416033 
L 423.912937 -420.025814 
L 422.80313 -422.635594 
L 421.735507 -425.245374 
L 420.751529 -427.855154 
L 419.893347 -430.464934 
L 419.201854 -433.074714 
L 418.714732 -435.684494 
L 418.464586 -438.294274 
L 418.477283 -440.904055 
L 418.770621 -443.513835 
L 419.353388 -446.123615 
L 420.224913 -448.733395 
L 421.375114 -451.343175 
L 422.785047 -453.952955 
L 424.427923 -456.562735 
L 426.270487 -459.172516 
L 428.274688 -461.782296 
L 430.399486 -464.392076 
L 432.602694 -467.001856 
L 434.84272 -469.611636 
L 437.080124 -472.221416 
L 439.278904 -474.831196 
L 441.407473 -477.440976 
L 443.4393 -480.050757 
L 445.353245 -482.660537 
L 447.133588 -485.270317 
L 448.76983 -487.880097 
L 450.256294 -490.489877 
L 451.591592 -493.099657 
L 452.778007 -495.709437 
L 453.820844 -498.319218 
L 454.727775 -500.928998 
L 455.508215 -503.538778 
L 456.172749 -506.148558 
L 456.732626 -508.758338 
L 457.199318 -511.368118 
L 457.58416 -513.977898 
L 457.898054 -516.587678 
L 458.151252 -519.197459 
L 458.353198 -521.807239 
L 458.512427 -524.417019 
L 459.487573 -524.417019 
L 459.487573 -524.417019 
L 459.646802 -521.807239 
L 459.848748 -519.197459 
L 460.101946 -516.587678 
L 460.41584 -513.977898 
L 460.800682 -511.368118 
L 461.267374 -508.758338 
L 461.827251 -506.148558 
L 462.491785 -503.538778 
L 463.272225 -500.928998 
L 464.179156 -498.319218 
L 465.221993 -495.709437 
L 466.408408 -493.099657 
L 467.743706 -490.489877 
L 469.23017 -487.880097 
L 470.866412 -485.270317 
L 472.646755 -482.660537 
L 474.5607 -480.050757 
L 476.592527 -477.440976 
L 478.721096 -474.831196 
L 480.919876 -472.221416 
L 483.15728 -469.611636 
L 485.397306 -467.001856 
L 487.600514 -464.392076 
L 489.725312 -461.782296 
L 491.729513 -459.172516 
L 493.572077 -456.562735 
L 495.214953 -453.952955 
L 496.624886 -451.343175 
L 497.775087 -448.733395 
L 498.646612 -446.123615 
L 499.229379 -443.513835 
L 499.522717 -440.904055 
L 499.535414 -438.294274 
L 499.285268 -435.684494 
L 498.798146 -433.074714 
L 498.106653 -430.464934 
L 497.248471 -427.855154 
L 496.264493 -425.245374 
L 495.19687 -422.635594 
L 494.087063 -420.025814 
L 492.974023 -417.416033 
L 491.89258 -414.806253 
L 490.872106 -412.196473 
L 489.93552 -409.586693 
L 489.098655 -406.976913 
L 488.37002 -404.367133 
L 487.750953 -401.757353 
L 487.236131 -399.147573 
L 486.814425 -396.537792 
L 486.470014 -393.928012 
L 486.183704 -391.318232 
L 485.934351 -388.708452 
L 485.700302 -386.098672 
L 485.460761 -383.488892 
L 485.196991 -380.879112 
L 484.893287 -378.269331 
L 484.537672 -375.659551 
L 484.122294 -373.049771 
L 483.643521 -370.439991 
L 483.101759 -367.830211 
L 482.501029 -365.220431 
L 481.848356 -362.610651 
L 481.153019 -360.000871 
L 480.425721 -357.39109 
L 479.677745 -354.78131 
L 478.920123 -352.17153 
L 478.16289 -349.56175 
L 477.41444 -346.95197 
L 476.681046 -344.34219 
L 475.966542 -341.73241 
L 475.272214 -339.122629 
L 474.596894 -336.512849 
L 473.937247 -333.903069 
L 473.288252 -331.293289 
L 472.643806 -328.683509 
L 471.997432 -326.073729 
L 471.343005 -323.463949 
L 470.675447 -320.854169 
L 469.991309 -318.244388 
L 469.289201 -315.634608 
L 468.570029 -313.024828 
L 467.837011 -310.415048 
L 467.095494 -307.805268 
L 466.352579 -305.195488 
L 465.616613 -302.585708 
L 464.896598 -299.975928 
L 464.20157 -297.366147 
L 463.540018 -294.756367 
L 462.919376 -292.146587 
L 462.345639 -289.536807 
L 461.823115 -286.927027 
L 461.354321 -284.317247 
L 460.94001 -281.707467 
L 460.579311 -279.097686 
L 460.269963 -276.487906 
L 460.008593 -273.878126 
L 459.791025 -271.268346 
L 459.612586 -268.658566 
L 459.468387 -266.048786 
z
" style="stroke: #3f3f3f; stroke-width: 1.25"/>
    </defs>
    <g clip-path="url(#pc6b5f1ede4)">
     <use xlink:href="#m2e6b37fa64" x="0" y="720" style="fill: #3274a1; stroke: #3f3f3f; stroke-width: 1.25"/>
    </g>
   </g>
   <g id="PolyCollection_4">
    <defs>
     <path id="m54c362fcbf" d="M 570.883354 -148.389079 
L 570.316646 -148.389079 
L 570.231159 -153.035654 
L 570.128714 -157.682229 
L 570.008881 -162.328804 
L 569.87218 -166.975379 
L 569.720265 -171.621954 
L 569.556033 -176.268529 
L 569.383612 -180.915104 
L 569.208222 -185.561679 
L 569.035875 -190.208254 
L 568.872933 -194.854829 
L 568.725536 -199.501404 
L 568.598957 -204.147979 
L 568.496937 -208.794554 
L 568.421061 -213.441129 
L 568.370266 -218.087704 
L 568.340524 -222.734279 
L 568.324757 -227.380854 
L 568.313009 -232.027429 
L 568.292866 -236.674003 
L 568.250119 -241.320578 
L 568.169595 -245.967153 
L 568.03611 -250.613728 
L 567.835462 -255.260303 
L 567.555382 -259.906878 
L 567.186357 -264.553453 
L 566.722272 -269.200028 
L 566.160801 -273.846603 
L 565.503531 -278.493178 
L 564.755806 -283.139753 
L 563.926313 -287.786328 
L 563.026458 -292.432903 
L 562.0696 -297.079478 
L 561.070213 -301.726053 
L 560.043053 -306.372628 
L 559.002398 -311.019203 
L 557.961391 -315.665778 
L 556.931529 -320.312353 
L 555.922275 -324.958928 
L 554.9408 -329.605503 
L 553.991824 -334.252078 
L 553.077562 -338.898653 
L 552.197767 -343.545227 
L 551.349922 -348.191802 
L 550.529587 -352.838377 
L 549.730964 -357.484952 
L 548.947683 -362.131527 
L 548.173802 -366.778102 
L 547.404961 -371.424677 
L 546.639582 -376.071252 
L 545.879984 -380.717827 
L 545.133247 -385.364402 
L 544.411677 -390.010977 
L 543.732765 -394.657552 
L 543.118566 -399.304127 
L 542.594524 -403.950702 
L 542.187832 -408.597277 
L 541.925474 -413.243852 
L 541.832144 -417.890427 
L 541.928261 -422.537002 
L 542.228267 -427.183577 
L 542.73938 -431.830152 
L 543.460886 -436.476727 
L 544.384024 -441.123302 
L 545.492422 -445.769877 
L 546.763023 -450.416451 
L 548.167371 -455.063026 
L 549.673144 -459.709601 
L 551.245801 -464.356176 
L 552.850224 -469.002751 
L 554.452278 -473.649326 
L 556.020201 -478.295901 
L 557.525796 -482.942476 
L 558.945374 -487.589051 
L 560.260436 -492.235626 
L 561.458081 -496.882201 
L 562.531121 -501.528776 
L 563.477911 -506.175351 
L 564.301897 -510.821926 
L 565.010916 -515.468501 
L 565.616267 -520.115076 
L 566.131653 -524.761651 
L 566.572028 -529.408226 
L 566.952475 -534.054801 
L 567.287181 -538.701376 
L 567.5886 -543.347951 
L 567.86686 -547.994526 
L 568.129446 -552.641101 
L 568.381166 -557.287675 
L 568.624369 -561.93425 
L 568.859351 -566.580825 
L 569.084898 -571.2274 
L 569.29887 -575.873975 
L 569.498768 -580.52055 
L 569.682215 -585.167125 
L 569.847322 -589.8137 
L 569.992918 -594.460275 
L 570.118637 -599.10685 
L 570.224907 -603.753425 
L 570.312834 -608.4 
L 570.887166 -608.4 
L 570.887166 -608.4 
L 570.975093 -603.753425 
L 571.081363 -599.10685 
L 571.207082 -594.460275 
L 571.352678 -589.8137 
L 571.517785 -585.167125 
L 571.701232 -580.52055 
L 571.90113 -575.873975 
L 572.115102 -571.2274 
L 572.340649 -566.580825 
L 572.575631 -561.93425 
L 572.818834 -557.287675 
L 573.070554 -552.641101 
L 573.33314 -547.994526 
L 573.6114 -543.347951 
L 573.912819 -538.701376 
L 574.247525 -534.054801 
L 574.627972 -529.408226 
L 575.068347 -524.761651 
L 575.583733 -520.115076 
L 576.189084 -515.468501 
L 576.898103 -510.821926 
L 577.722089 -506.175351 
L 578.668879 -501.528776 
L 579.741919 -496.882201 
L 580.939564 -492.235626 
L 582.254626 -487.589051 
L 583.674204 -482.942476 
L 585.179799 -478.295901 
L 586.747722 -473.649326 
L 588.349776 -469.002751 
L 589.954199 -464.356176 
L 591.526856 -459.709601 
L 593.032629 -455.063026 
L 594.436977 -450.416451 
L 595.707578 -445.769877 
L 596.815976 -441.123302 
L 597.739114 -436.476727 
L 598.46062 -431.830152 
L 598.971733 -427.183577 
L 599.271739 -422.537002 
L 599.367856 -417.890427 
L 599.274526 -413.243852 
L 599.012168 -408.597277 
L 598.605476 -403.950702 
L 598.081434 -399.304127 
L 597.467235 -394.657552 
L 596.788323 -390.010977 
L 596.066753 -385.364402 
L 595.320016 -380.717827 
L 594.560418 -376.071252 
L 593.795039 -371.424677 
L 593.026198 -366.778102 
L 592.252317 -362.131527 
L 591.469036 -357.484952 
L 590.670413 -352.838377 
L 589.850078 -348.191802 
L 589.002233 -343.545227 
L 588.122438 -338.898653 
L 587.208176 -334.252078 
L 586.2592 -329.605503 
L 585.277725 -324.958928 
L 584.268471 -320.312353 
L 583.238609 -315.665778 
L 582.197602 -311.019203 
L 581.156947 -306.372628 
L 580.129787 -301.726053 
L 579.1304 -297.079478 
L 578.173542 -292.432903 
L 577.273687 -287.786328 
L 576.444194 -283.139753 
L 575.696469 -278.493178 
L 575.039199 -273.846603 
L 574.477728 -269.200028 
L 574.013643 -264.553453 
L 573.644618 -259.906878 
L 573.364538 -255.260303 
L 573.16389 -250.613728 
L 573.030405 -245.967153 
L 572.949881 -241.320578 
L 572.907134 -236.674003 
L 572.886991 -232.027429 
L 572.875243 -227.380854 
L 572.859476 -222.734279 
L 572.829734 -218.087704 
L 572.778939 -213.441129 
L 572.703063 -208.794554 
L 572.601043 -204.147979 
L 572.474464 -199.501404 
L 572.327067 -194.854829 
L 572.164125 -190.208254 
L 571.991778 -185.561679 
L 571.816388 -180.915104 
L 571.643967 -176.268529 
L 571.479735 -171.621954 
L 571.32782 -166.975379 
L 571.191119 -162.328804 
L 571.071286 -157.682229 
L 570.968841 -153.035654 
L 570.883354 -148.389079 
z
" style="stroke: #3f3f3f; stroke-width: 1.25"/>
    </defs>
    <g clip-path="url(#pc6b5f1ede4)">
     <use xlink:href="#m54c362fcbf" x="0" y="720" style="fill: #3274a1; stroke: #3f3f3f; stroke-width: 1.25"/>
    </g>
   </g>
   <g id="PolyCollection_5">
    <defs>
     <path id="m10069aa7ad" d="M 682.634177 -227.7503 
L 681.765823 -227.7503 
L 681.65414 -231.191847 
L 681.520609 -234.633393 
L 681.362731 -238.07494 
L 681.178104 -241.516487 
L 680.964512 -244.958034 
L 680.72 -248.39958 
L 680.442963 -251.841127 
L 680.132219 -255.282674 
L 679.787072 -258.72422 
L 679.407377 -262.165767 
L 678.993577 -265.607314 
L 678.546753 -269.04886 
L 678.068651 -272.490407 
L 677.561711 -275.931954 
L 677.029096 -279.3735 
L 676.474711 -282.815047 
L 675.90322 -286.256594 
L 675.320053 -289.69814 
L 674.731384 -293.139687 
L 674.144088 -296.581234 
L 673.565646 -300.022781 
L 673.004004 -303.464327 
L 672.467354 -306.905874 
L 671.963861 -310.347421 
L 671.501309 -313.788967 
L 671.086694 -317.230514 
L 670.725773 -320.672061 
L 670.422596 -324.113607 
L 670.17905 -327.555154 
L 669.99446 -330.996701 
L 669.865268 -334.438247 
L 669.784846 -337.879794 
L 669.743452 -341.321341 
L 669.728358 -344.762887 
L 669.72417 -348.204434 
L 669.713303 -351.645981 
L 669.676632 -355.087527 
L 669.594258 -358.529074 
L 669.446369 -361.970621 
L 669.214138 -365.412168 
L 668.880617 -368.853714 
L 668.431578 -372.295261 
L 667.856257 -375.736808 
L 667.14796 -379.178354 
L 666.304523 -382.619901 
L 665.328581 -386.061448 
L 664.227667 -389.502994 
L 663.014115 -392.944541 
L 661.704795 -396.386088 
L 660.320677 -399.827634 
L 658.886255 -403.269181 
L 657.428828 -406.710728 
L 655.977686 -410.152274 
L 654.563209 -413.593821 
L 653.215912 -417.035368 
L 651.96547 -420.476914 
L 650.839765 -423.918461 
L 649.863976 -427.360008 
L 649.059777 -430.801555 
L 648.444663 -434.243101 
L 648.031444 -437.684648 
L 647.827941 -441.126195 
L 647.836886 -444.567741 
L 648.056042 -448.009288 
L 648.478523 -451.450835 
L 649.0933 -454.892381 
L 649.885833 -458.333928 
L 650.838821 -461.775475 
L 651.932977 -465.217021 
L 653.147812 -468.658568 
L 654.462368 -472.100115 
L 655.855855 -475.541661 
L 657.308189 -478.983208 
L 658.80039 -482.424755 
L 660.31486 -485.866301 
L 661.835536 -489.307848 
L 663.347948 -492.749395 
L 664.839201 -496.190942 
L 666.297897 -499.632488 
L 667.714044 -503.074035 
L 669.078956 -506.515582 
L 670.385157 -509.957128 
L 671.626325 -513.398675 
L 672.797244 -516.840222 
L 673.893788 -520.281768 
L 674.91292 -523.723315 
L 675.852697 -527.164862 
L 676.712271 -530.606408 
L 677.491876 -534.047955 
L 678.192795 -537.489502 
L 678.817294 -540.931048 
L 679.368541 -544.372595 
L 679.85048 -547.814142 
L 680.267696 -551.255689 
L 680.62526 -554.697235 
L 680.928564 -558.138782 
L 681.183159 -561.580329 
L 681.394604 -565.021875 
L 681.568322 -568.463422 
L 682.831678 -568.463422 
L 682.831678 -568.463422 
L 683.005396 -565.021875 
L 683.216841 -561.580329 
L 683.471436 -558.138782 
L 683.77474 -554.697235 
L 684.132304 -551.255689 
L 684.54952 -547.814142 
L 685.031459 -544.372595 
L 685.582706 -540.931048 
L 686.207205 -537.489502 
L 686.908124 -534.047955 
L 687.687729 -530.606408 
L 688.547303 -527.164862 
L 689.48708 -523.723315 
L 690.506212 -520.281768 
L 691.602756 -516.840222 
L 692.773675 -513.398675 
L 694.014843 -509.957128 
L 695.321044 -506.515582 
L 696.685956 -503.074035 
L 698.102103 -499.632488 
L 699.560799 -496.190942 
L 701.052052 -492.749395 
L 702.564464 -489.307848 
L 704.08514 -485.866301 
L 705.59961 -482.424755 
L 707.091811 -478.983208 
L 708.544145 -475.541661 
L 709.937632 -472.100115 
L 711.252188 -468.658568 
L 712.467023 -465.217021 
L 713.561179 -461.775475 
L 714.514167 -458.333928 
L 715.3067 -454.892381 
L 715.921477 -451.450835 
L 716.343958 -448.009288 
L 716.563114 -444.567741 
L 716.572059 -441.126195 
L 716.368556 -437.684648 
L 715.955337 -434.243101 
L 715.340223 -430.801555 
L 714.536024 -427.360008 
L 713.560235 -423.918461 
L 712.43453 -420.476914 
L 711.184088 -417.035368 
L 709.836791 -413.593821 
L 708.422314 -410.152274 
L 706.971172 -406.710728 
L 705.513745 -403.269181 
L 704.079323 -399.827634 
L 702.695205 -396.386088 
L 701.385885 -392.944541 
L 700.172333 -389.502994 
L 699.071419 -386.061448 
L 698.095477 -382.619901 
L 697.25204 -379.178354 
L 696.543743 -375.736808 
L 695.968422 -372.295261 
L 695.519383 -368.853714 
L 695.185862 -365.412168 
L 694.953631 -361.970621 
L 694.805742 -358.529074 
L 694.723368 -355.087527 
L 694.686697 -351.645981 
L 694.67583 -348.204434 
L 694.671642 -344.762887 
L 694.656548 -341.321341 
L 694.615154 -337.879794 
L 694.534732 -334.438247 
L 694.40554 -330.996701 
L 694.22095 -327.555154 
L 693.977404 -324.113607 
L 693.674227 -320.672061 
L 693.313306 -317.230514 
L 692.898691 -313.788967 
L 692.436139 -310.347421 
L 691.932646 -306.905874 
L 691.395996 -303.464327 
L 690.834354 -300.022781 
L 690.255912 -296.581234 
L 689.668616 -293.139687 
L 689.079947 -289.69814 
L 688.49678 -286.256594 
L 687.925289 -282.815047 
L 687.370904 -279.3735 
L 686.838289 -275.931954 
L 686.331349 -272.490407 
L 685.853247 -269.04886 
L 685.406423 -265.607314 
L 684.992623 -262.165767 
L 684.612928 -258.72422 
L 684.267781 -255.282674 
L 683.957037 -251.841127 
L 683.68 -248.39958 
L 683.435488 -244.958034 
L 683.221896 -241.516487 
L 683.037269 -238.07494 
L 682.879391 -234.633393 
L 682.74586 -231.191847 
L 682.634177 -227.7503 
z
" style="stroke: #3f3f3f; stroke-width: 1.25"/>
    </defs>
    <g clip-path="url(#pc6b5f1ede4)">
     <use xlink:href="#m10069aa7ad" x="0" y="720" style="fill: #3274a1; stroke: #3f3f3f; stroke-width: 1.25"/>
    </g>
   </g>
   <g id="PolyCollection_6">
    <defs>
     <path id="mb8beea1b89" d="M 794.318814 -237.018469 
L 793.281186 -237.018469 
L 793.148767 -240.605168 
L 792.990557 -244.191866 
L 792.803508 -247.778564 
L 792.584593 -251.365262 
L 792.330863 -254.95196 
L 792.039494 -258.538658 
L 791.707821 -262.125356 
L 791.333371 -265.712055 
L 790.913874 -269.298753 
L 790.447271 -272.885451 
L 789.931725 -276.472149 
L 789.365636 -280.058847 
L 788.747673 -283.645545 
L 788.076839 -287.232243 
L 787.352566 -290.818941 
L 786.57485 -294.40564 
L 785.744425 -297.992338 
L 784.862969 -301.579036 
L 783.933318 -305.165734 
L 782.959684 -308.752432 
L 781.947834 -312.33913 
L 780.905223 -315.925828 
L 779.841031 -319.512527 
L 778.766104 -323.099225 
L 777.692767 -326.685923 
L 776.634521 -330.272621 
L 775.605607 -333.859319 
L 774.620478 -337.446017 
L 773.693187 -341.032715 
L 772.836736 -344.619413 
L 772.062426 -348.206112 
L 771.379242 -351.79281 
L 770.793322 -355.379508 
L 770.307539 -358.966206 
L 769.921228 -362.552904 
L 769.630078 -366.139602 
L 769.426202 -369.7263 
L 769.298396 -373.312998 
L 769.232572 -376.899697 
L 769.212374 -380.486395 
L 769.219945 -384.073093 
L 769.23683 -387.659791 
L 769.244983 -391.246489 
L 769.227827 -394.833187 
L 769.171331 -398.419885 
L 769.065026 -402.006584 
L 768.902906 -405.593282 
L 768.684135 -409.17998 
L 768.413492 -412.766678 
L 768.101501 -416.353376 
L 767.764191 -419.940074 
L 767.422482 -423.526772 
L 767.101186 -427.11347 
L 766.827691 -430.700169 
L 766.630372 -434.286867 
L 766.536858 -437.873565 
L 766.572252 -441.460263 
L 766.757463 -445.046961 
L 767.107752 -448.633659 
L 767.631629 -452.220357 
L 768.330188 -455.807055 
L 769.19693 -459.393754 
L 770.218083 -462.980452 
L 771.373413 -466.56715 
L 772.637432 -470.153848 
L 773.980923 -473.740546 
L 775.37265 -477.327244 
L 776.781119 -480.913942 
L 778.176265 -484.500641 
L 779.530941 -488.087339 
L 780.822112 -491.674037 
L 782.0317 -495.260735 
L 783.147028 -498.847433 
L 784.160887 -502.434131 
L 785.071239 -506.020829 
L 785.880629 -509.607527 
L 786.595368 -513.194226 
L 787.224578 -516.780924 
L 787.779185 -520.367622 
L 788.270939 -523.95432 
L 788.711531 -527.541018 
L 789.111848 -531.127716 
L 789.481421 -534.714414 
L 789.828056 -538.301113 
L 790.157662 -541.887811 
L 790.474253 -545.474509 
L 790.780089 -549.061207 
L 791.075931 -552.647905 
L 791.361359 -556.234603 
L 791.63513 -559.821301 
L 791.895519 -563.407999 
L 792.140642 -566.994698 
L 792.36872 -570.581396 
L 792.578286 -574.168094 
L 792.768317 -577.754792 
L 792.938309 -581.34149 
L 793.088292 -584.928188 
L 793.218791 -588.514886 
L 793.330765 -592.101584 
L 794.269235 -592.101584 
L 794.269235 -592.101584 
L 794.381209 -588.514886 
L 794.511708 -584.928188 
L 794.661691 -581.34149 
L 794.831683 -577.754792 
L 795.021714 -574.168094 
L 795.23128 -570.581396 
L 795.459358 -566.994698 
L 795.704481 -563.407999 
L 795.96487 -559.821301 
L 796.238641 -556.234603 
L 796.524069 -552.647905 
L 796.819911 -549.061207 
L 797.125747 -545.474509 
L 797.442338 -541.887811 
L 797.771944 -538.301113 
L 798.118579 -534.714414 
L 798.488152 -531.127716 
L 798.888469 -527.541018 
L 799.329061 -523.95432 
L 799.820815 -520.367622 
L 800.375422 -516.780924 
L 801.004632 -513.194226 
L 801.719371 -509.607527 
L 802.528761 -506.020829 
L 803.439113 -502.434131 
L 804.452972 -498.847433 
L 805.5683 -495.260735 
L 806.777888 -491.674037 
L 808.069059 -488.087339 
L 809.423735 -484.500641 
L 810.818881 -480.913942 
L 812.22735 -477.327244 
L 813.619077 -473.740546 
L 814.962568 -470.153848 
L 816.226587 -466.56715 
L 817.381917 -462.980452 
L 818.40307 -459.393754 
L 819.269812 -455.807055 
L 819.968371 -452.220357 
L 820.492248 -448.633659 
L 820.842537 -445.046961 
L 821.027748 -441.460263 
L 821.063142 -437.873565 
L 820.969628 -434.286867 
L 820.772309 -430.700169 
L 820.498814 -427.11347 
L 820.177518 -423.526772 
L 819.835809 -419.940074 
L 819.498499 -416.353376 
L 819.186508 -412.766678 
L 818.915865 -409.17998 
L 818.697094 -405.593282 
L 818.534974 -402.006584 
L 818.428669 -398.419885 
L 818.372173 -394.833187 
L 818.355017 -391.246489 
L 818.36317 -387.659791 
L 818.380055 -384.073093 
L 818.387626 -380.486395 
L 818.367428 -376.899697 
L 818.301604 -373.312998 
L 818.173798 -369.7263 
L 817.969922 -366.139602 
L 817.678772 -362.552904 
L 817.292461 -358.966206 
L 816.806678 -355.379508 
L 816.220758 -351.79281 
L 815.537574 -348.206112 
L 814.763264 -344.619413 
L 813.906813 -341.032715 
L 812.979522 -337.446017 
L 811.994393 -333.859319 
L 810.965479 -330.272621 
L 809.907233 -326.685923 
L 808.833896 -323.099225 
L 807.758969 -319.512527 
L 806.694777 -315.925828 
L 805.652166 -312.33913 
L 804.640316 -308.752432 
L 803.666682 -305.165734 
L 802.737031 -301.579036 
L 801.855575 -297.992338 
L 801.02515 -294.40564 
L 800.247434 -290.818941 
L 799.523161 -287.232243 
L 798.852327 -283.645545 
L 798.234364 -280.058847 
L 797.668275 -276.472149 
L 797.152729 -272.885451 
L 796.686126 -269.298753 
L 796.266629 -265.712055 
L 795.892179 -262.125356 
L 795.560506 -258.538658 
L 795.269137 -254.95196 
L 795.015407 -251.365262 
L 794.796492 -247.778564 
L 794.609443 -244.191866 
L 794.451233 -240.605168 
L 794.318814 -237.018469 
z
" style="stroke: #3f3f3f; stroke-width: 1.25"/>
    </defs>
    <g clip-path="url(#pc6b5f1ede4)">
     <use xlink:href="#mb8beea1b89" x="0" y="720" style="fill: #3274a1; stroke: #3f3f3f; stroke-width: 1.25"/>
    </g>
   </g>
   <g id="PolyCollection_7">
    <defs>
     <path id="m62c09ec258" d="M 905.887598 -244.088688 
L 904.912402 -244.088688 
L 904.783771 -247.156269 
L 904.629925 -250.22385 
L 904.44824 -253.29143 
L 904.236333 -256.359011 
L 903.992163 -259.426592 
L 903.714124 -262.494172 
L 903.401112 -265.561753 
L 903.052568 -268.629334 
L 902.668484 -271.696914 
L 902.249378 -274.764495 
L 901.796234 -277.832076 
L 901.310429 -280.899656 
L 900.793633 -283.967237 
L 900.247723 -287.034818 
L 899.674703 -290.102398 
L 899.076656 -293.169979 
L 898.455727 -296.23756 
L 897.814138 -299.305141 
L 897.154242 -302.372721 
L 896.478589 -305.440302 
L 895.789993 -308.507883 
L 895.091583 -311.575463 
L 894.38681 -314.643044 
L 893.679394 -317.710625 
L 892.973203 -320.778205 
L 892.272056 -323.845786 
L 891.57947 -326.913367 
L 890.898362 -329.980947 
L 890.230749 -333.048528 
L 889.577476 -336.116109 
L 888.938008 -339.183689 
L 888.310331 -342.25127 
L 887.690979 -345.318851 
L 887.0752 -348.386432 
L 886.457251 -351.454012 
L 885.830809 -354.521593 
L 885.189455 -357.589174 
L 884.527184 -360.656754 
L 883.838898 -363.724335 
L 883.120834 -366.791916 
L 882.370883 -369.859496 
L 881.588798 -372.927077 
L 880.776256 -375.994658 
L 879.936816 -379.062238 
L 879.075775 -382.129819 
L 878.199968 -385.1974 
L 877.317543 -388.26498 
L 876.437744 -391.332561 
L 875.570733 -394.400142 
L 874.727453 -397.467723 
L 873.919534 -400.535303 
L 873.159225 -403.602884 
L 872.459331 -406.670465 
L 871.833113 -409.738045 
L 871.29414 -412.805626 
L 870.856044 -415.873207 
L 870.532196 -418.940787 
L 870.335277 -422.008368 
L 870.276777 -425.075949 
L 870.366444 -428.143529 
L 870.611728 -431.21111 
L 871.017263 -434.278691 
L 871.584437 -437.346271 
L 872.31109 -440.413852 
L 873.191375 -443.481433 
L 874.215808 -446.549014 
L 875.371506 -449.616594 
L 876.642604 -452.684175 
L 878.010834 -455.751756 
L 879.456215 -458.819336 
L 880.957824 -461.886917 
L 882.494573 -464.954498 
L 884.045974 -468.022078 
L 885.592806 -471.089659 
L 887.11768 -474.15724 
L 888.605445 -477.22482 
L 890.04345 -480.292401 
L 891.421628 -483.359982 
L 892.73245 -486.427562 
L 893.970741 -489.495143 
L 895.133412 -492.562724 
L 896.219123 -495.630305 
L 897.227937 -498.697885 
L 898.160967 -501.765466 
L 899.020074 -504.833047 
L 899.807607 -507.900627 
L 900.526209 -510.968208 
L 901.178692 -514.035789 
L 901.767963 -517.103369 
L 902.296998 -520.17095 
L 902.768852 -523.238531 
L 903.186678 -526.306111 
L 903.553752 -529.373692 
L 903.873494 -532.441273 
L 904.149459 -535.508853 
L 904.385328 -538.576434 
L 904.584859 -541.644015 
L 904.751842 -544.711596 
L 904.890029 -547.779176 
L 905.909971 -547.779176 
L 905.909971 -547.779176 
L 906.048158 -544.711596 
L 906.215141 -541.644015 
L 906.414672 -538.576434 
L 906.650541 -535.508853 
L 906.926506 -532.441273 
L 907.246248 -529.373692 
L 907.613322 -526.306111 
L 908.031148 -523.238531 
L 908.503002 -520.17095 
L 909.032037 -517.103369 
L 909.621308 -514.035789 
L 910.273791 -510.968208 
L 910.992393 -507.900627 
L 911.779926 -504.833047 
L 912.639033 -501.765466 
L 913.572063 -498.697885 
L 914.580877 -495.630305 
L 915.666588 -492.562724 
L 916.829259 -489.495143 
L 918.06755 -486.427562 
L 919.378372 -483.359982 
L 920.75655 -480.292401 
L 922.194555 -477.22482 
L 923.68232 -474.15724 
L 925.207194 -471.089659 
L 926.754026 -468.022078 
L 928.305427 -464.954498 
L 929.842176 -461.886917 
L 931.343785 -458.819336 
L 932.789166 -455.751756 
L 934.157396 -452.684175 
L 935.428494 -449.616594 
L 936.584192 -446.549014 
L 937.608625 -443.481433 
L 938.48891 -440.413852 
L 939.215563 -437.346271 
L 939.782737 -434.278691 
L 940.188272 -431.21111 
L 940.433556 -428.143529 
L 940.523223 -425.075949 
L 940.464723 -422.008368 
L 940.267804 -418.940787 
L 939.943956 -415.873207 
L 939.50586 -412.805626 
L 938.966887 -409.738045 
L 938.340669 -406.670465 
L 937.640775 -403.602884 
L 936.880466 -400.535303 
L 936.072547 -397.467723 
L 935.229267 -394.400142 
L 934.362256 -391.332561 
L 933.482457 -388.26498 
L 932.600032 -385.1974 
L 931.724225 -382.129819 
L 930.863184 -379.062238 
L 930.023744 -375.994658 
L 929.211202 -372.927077 
L 928.429117 -369.859496 
L 927.679166 -366.791916 
L 926.961102 -363.724335 
L 926.272816 -360.656754 
L 925.610545 -357.589174 
L 924.969191 -354.521593 
L 924.342749 -351.454012 
L 923.7248 -348.386432 
L 923.109021 -345.318851 
L 922.489669 -342.25127 
L 921.861992 -339.183689 
L 921.222524 -336.116109 
L 920.569251 -333.048528 
L 919.901638 -329.980947 
L 919.22053 -326.913367 
L 918.527944 -323.845786 
L 917.826797 -320.778205 
L 917.120606 -317.710625 
L 916.41319 -314.643044 
L 915.708417 -311.575463 
L 915.010007 -308.507883 
L 914.321411 -305.440302 
L 913.645758 -302.372721 
L 912.985862 -299.305141 
L 912.344273 -296.23756 
L 911.723344 -293.169979 
L 911.125297 -290.102398 
L 910.552277 -287.034818 
L 910.006367 -283.967237 
L 909.489571 -280.899656 
L 909.003766 -277.832076 
L 908.550622 -274.764495 
L 908.131516 -271.696914 
L 907.747432 -268.629334 
L 907.398888 -265.561753 
L 907.085876 -262.494172 
L 906.807837 -259.426592 
L 906.563667 -256.359011 
L 906.35176 -253.29143 
L 906.170075 -250.22385 
L 906.016229 -247.156269 
L 905.887598 -244.088688 
z
" style="stroke: #3f3f3f; stroke-width: 1.25"/>
    </defs>
    <g clip-path="url(#pc6b5f1ede4)">
     <use xlink:href="#m62c09ec258" x="0" y="720" style="fill: #3274a1; stroke: #3f3f3f; stroke-width: 1.25"/>
    </g>
   </g>
   <g id="PolyCollection_8">
    <defs>
     <path id="m462c30297f" d="M 1017.923774 -302.947511 
L 1016.076226 -302.947511 
L 1015.856337 -305.42375 
L 1015.596554 -307.899989 
L 1015.292838 -310.376229 
L 1014.941489 -312.852468 
L 1014.539353 -315.328707 
L 1014.084034 -317.804947 
L 1013.574106 -320.281186 
L 1013.009319 -322.757425 
L 1012.390783 -325.233664 
L 1011.721104 -327.709904 
L 1011.004471 -330.186143 
L 1010.246675 -332.662382 
L 1009.455045 -335.138621 
L 1008.6383 -337.614861 
L 1007.806305 -340.0911 
L 1006.969746 -342.567339 
L 1006.139724 -345.043579 
L 1005.327288 -347.519818 
L 1004.54293 -349.996057 
L 1003.796071 -352.472296 
L 1003.09456 -354.948536 
L 1002.444237 -357.424775 
L 1001.848566 -359.901014 
L 1001.308397 -362.377253 
L 1000.821845 -364.853493 
L 1000.384334 -367.329732 
L 999.988774 -369.805971 
L 999.625895 -372.282211 
L 999.2847 -374.75845 
L 998.953008 -377.234689 
L 998.618064 -379.710928 
L 998.267163 -382.187168 
L 997.888246 -384.663407 
L 997.470438 -387.139646 
L 997.004484 -389.615885 
L 996.483064 -392.092125 
L 995.900972 -394.568364 
L 995.255165 -397.044603 
L 994.544688 -399.520843 
L 993.770505 -401.997082 
L 992.935255 -404.473321 
L 992.042992 -406.94956 
L 991.098916 -409.4258 
L 990.109152 -411.902039 
L 989.080584 -414.378278 
L 988.020765 -416.854517 
L 986.937902 -419.330757 
L 985.840915 -421.806996 
L 984.73953 -424.283235 
L 983.644394 -426.759475 
L 982.567181 -429.235714 
L 981.52064 -431.711953 
L 980.518572 -434.188192 
L 979.575712 -436.664432 
L 978.707494 -439.140671 
L 977.929722 -441.61691 
L 977.258136 -444.093149 
L 976.707912 -446.569389 
L 976.293127 -449.045628 
L 976.026214 -451.521867 
L 975.917463 -453.998107 
L 975.97459 -456.474346 
L 976.202407 -458.950585 
L 976.602618 -461.426824 
L 977.173749 -463.903064 
L 977.911215 -466.379303 
L 978.807513 -468.855542 
L 979.852515 -471.331781 
L 981.033855 -473.808021 
L 982.337361 -476.28426 
L 983.747514 -478.760499 
L 985.247907 -481.236738 
L 986.821668 -483.712978 
L 988.451852 -486.189217 
L 990.121763 -488.665456 
L 991.81523 -491.141696 
L 993.516813 -493.617935 
L 995.211962 -496.094174 
L 996.887127 -498.570413 
L 998.529846 -501.046653 
L 1000.128795 -503.522892 
L 1001.673838 -505.999131 
L 1003.15606 -508.47537 
L 1004.567804 -510.95161 
L 1005.902697 -513.427849 
L 1007.155679 -515.904088 
L 1008.323012 -518.380328 
L 1009.402282 -520.856567 
L 1010.392382 -523.332806 
L 1011.293464 -525.809045 
L 1012.106873 -528.285285 
L 1012.83505 -530.761524 
L 1013.481408 -533.237763 
L 1014.050192 -535.714002 
L 1014.54632 -538.190242 
L 1014.975216 -540.666481 
L 1015.342637 -543.14272 
L 1015.654513 -545.61896 
L 1015.916787 -548.095199 
L 1018.083213 -548.095199 
L 1018.083213 -548.095199 
L 1018.345487 -545.61896 
L 1018.657363 -543.14272 
L 1019.024784 -540.666481 
L 1019.45368 -538.190242 
L 1019.949808 -535.714002 
L 1020.518592 -533.237763 
L 1021.16495 -530.761524 
L 1021.893127 -528.285285 
L 1022.706536 -525.809045 
L 1023.607618 -523.332806 
L 1024.597718 -520.856567 
L 1025.676988 -518.380328 
L 1026.844321 -515.904088 
L 1028.097303 -513.427849 
L 1029.432196 -510.95161 
L 1030.84394 -508.47537 
L 1032.326162 -505.999131 
L 1033.871205 -503.522892 
L 1035.470154 -501.046653 
L 1037.112873 -498.570413 
L 1038.788038 -496.094174 
L 1040.483187 -493.617935 
L 1042.18477 -491.141696 
L 1043.878237 -488.665456 
L 1045.548148 -486.189217 
L 1047.178332 -483.712978 
L 1048.752093 -481.236738 
L 1050.252486 -478.760499 
L 1051.662639 -476.28426 
L 1052.966145 -473.808021 
L 1054.147485 -471.331781 
L 1055.192487 -468.855542 
L 1056.088785 -466.379303 
L 1056.826251 -463.903064 
L 1057.397382 -461.426824 
L 1057.797593 -458.950585 
L 1058.02541 -456.474346 
L 1058.082537 -453.998107 
L 1057.973786 -451.521867 
L 1057.706873 -449.045628 
L 1057.292088 -446.569389 
L 1056.741864 -444.093149 
L 1056.070278 -441.61691 
L 1055.292506 -439.140671 
L 1054.424288 -436.664432 
L 1053.481428 -434.188192 
L 1052.47936 -431.711953 
L 1051.432819 -429.235714 
L 1050.355606 -426.759475 
L 1049.26047 -424.283235 
L 1048.159085 -421.806996 
L 1047.062098 -419.330757 
L 1045.979235 -416.854517 
L 1044.919416 -414.378278 
L 1043.890848 -411.902039 
L 1042.901084 -409.4258 
L 1041.957008 -406.94956 
L 1041.064745 -404.473321 
L 1040.229495 -401.997082 
L 1039.455312 -399.520843 
L 1038.744835 -397.044603 
L 1038.099028 -394.568364 
L 1037.516936 -392.092125 
L 1036.995516 -389.615885 
L 1036.529562 -387.139646 
L 1036.111754 -384.663407 
L 1035.732837 -382.187168 
L 1035.381936 -379.710928 
L 1035.046992 -377.234689 
L 1034.7153 -374.75845 
L 1034.374105 -372.282211 
L 1034.011226 -369.805971 
L 1033.615666 -367.329732 
L 1033.178155 -364.853493 
L 1032.691603 -362.377253 
L 1032.151434 -359.901014 
L 1031.555763 -357.424775 
L 1030.90544 -354.948536 
L 1030.203929 -352.472296 
L 1029.45707 -349.996057 
L 1028.672712 -347.519818 
L 1027.860276 -345.043579 
L 1027.030254 -342.567339 
L 1026.193695 -340.0911 
L 1025.3617 -337.614861 
L 1024.544955 -335.138621 
L 1023.753325 -332.662382 
L 1022.995529 -330.186143 
L 1022.278896 -327.709904 
L 1021.609217 -325.233664 
L 1020.990681 -322.757425 
L 1020.425894 -320.281186 
L 1019.915966 -317.804947 
L 1019.460647 -315.328707 
L 1019.058511 -312.852468 
L 1018.707162 -310.376229 
L 1018.403446 -307.899989 
L 1018.143663 -305.42375 
L 1017.923774 -302.947511 
z
" style="stroke: #3f3f3f; stroke-width: 1.25"/>
    </defs>
    <g clip-path="url(#pc6b5f1ede4)">
     <use xlink:href="#m462c30297f" x="0" y="720" style="fill: #3274a1; stroke: #3f3f3f; stroke-width: 1.25"/>
    </g>
   </g>
   <g id="PolyCollection_9">
    <defs>
     <path id="m00339e8b8a" d="M 1129.655444 -287.07055 
L 1127.544556 -287.07055 
L 1127.283582 -289.537896 
L 1126.974476 -292.005241 
L 1126.612708 -294.472587 
L 1126.19437 -296.939933 
L 1125.716442 -299.407278 
L 1125.177063 -301.874624 
L 1124.57578 -304.341969 
L 1123.913756 -306.809315 
L 1123.193921 -309.276661 
L 1122.421034 -311.744006 
L 1121.601653 -314.211352 
L 1120.743982 -316.678698 
L 1119.857607 -319.146043 
L 1118.953111 -321.613389 
L 1118.041582 -324.080734 
L 1117.134035 -326.54808 
L 1116.240772 -329.015426 
L 1115.370728 -331.482771 
L 1114.530832 -333.950117 
L 1113.725435 -336.417463 
L 1112.955853 -338.884808 
L 1112.220062 -341.352154 
L 1111.512583 -343.819499 
L 1110.824585 -346.286845 
L 1110.144214 -348.754191 
L 1109.45715 -351.221536 
L 1108.747377 -353.688882 
L 1107.998121 -356.156228 
L 1107.192925 -358.623573 
L 1106.316778 -361.090919 
L 1105.357248 -363.558264 
L 1104.305529 -366.02561 
L 1103.157333 -368.492956 
L 1101.913553 -370.960301 
L 1100.580655 -373.427647 
L 1099.170739 -375.894993 
L 1097.701269 -378.362338 
L 1096.194473 -380.829684 
L 1094.676443 -383.29703 
L 1093.175992 -385.764375 
L 1091.723341 -388.231721 
L 1090.348723 -390.699066 
L 1089.081006 -393.166412 
L 1087.946416 -395.633758 
L 1086.967449 -398.101103 
L 1086.162051 -400.568449 
L 1085.543085 -403.035795 
L 1085.118139 -405.50314 
L 1084.889632 -407.970486 
L 1084.85522 -410.437831 
L 1085.008422 -412.905177 
L 1085.339413 -415.372523 
L 1085.835899 -417.839868 
L 1086.484 -420.307214 
L 1087.269068 -422.77456 
L 1088.176382 -425.241905 
L 1089.191674 -427.709251 
L 1090.301474 -430.176596 
L 1091.49327 -432.643942 
L 1092.755502 -435.111288 
L 1094.077423 -437.578633 
L 1095.448881 -440.045979 
L 1096.860067 -442.513325 
L 1098.301277 -444.98067 
L 1099.762734 -447.448016 
L 1101.234504 -449.915361 
L 1102.70651 -452.382707 
L 1104.168666 -454.850053 
L 1105.611094 -457.317398 
L 1107.024414 -459.784744 
L 1108.400068 -462.25209 
L 1109.73063 -464.719435 
L 1111.010076 -467.186781 
L 1112.233977 -469.654127 
L 1113.399586 -472.121472 
L 1114.505813 -474.588818 
L 1115.553093 -477.056163 
L 1116.543147 -479.523509 
L 1117.478677 -481.990855 
L 1118.363015 -484.4582 
L 1119.199757 -486.925546 
L 1119.99243 -489.392892 
L 1120.7442 -491.860237 
L 1121.457662 -494.327583 
L 1122.13471 -496.794928 
L 1122.7765 -499.262274 
L 1123.383493 -501.72962 
L 1123.955568 -504.196965 
L 1124.492183 -506.664311 
L 1124.99257 -509.131657 
L 1125.455928 -511.599002 
L 1125.881608 -514.066348 
L 1126.269272 -516.533693 
L 1126.619004 -519.001039 
L 1126.931379 -521.468385 
L 1127.207488 -523.93573 
L 1127.448917 -526.403076 
L 1127.657691 -528.870422 
L 1127.836194 -531.337767 
L 1129.363806 -531.337767 
L 1129.363806 -531.337767 
L 1129.542309 -528.870422 
L 1129.751083 -526.403076 
L 1129.992512 -523.93573 
L 1130.268621 -521.468385 
L 1130.580996 -519.001039 
L 1130.930728 -516.533693 
L 1131.318392 -514.066348 
L 1131.744072 -511.599002 
L 1132.20743 -509.131657 
L 1132.707817 -506.664311 
L 1133.244432 -504.196965 
L 1133.816507 -501.72962 
L 1134.4235 -499.262274 
L 1135.06529 -496.794928 
L 1135.742338 -494.327583 
L 1136.4558 -491.860237 
L 1137.20757 -489.392892 
L 1138.000243 -486.925546 
L 1138.836985 -484.4582 
L 1139.721323 -481.990855 
L 1140.656853 -479.523509 
L 1141.646907 -477.056163 
L 1142.694187 -474.588818 
L 1143.800414 -472.121472 
L 1144.966023 -469.654127 
L 1146.189924 -467.186781 
L 1147.46937 -464.719435 
L 1148.799932 -462.25209 
L 1150.175586 -459.784744 
L 1151.588906 -457.317398 
L 1153.031334 -454.850053 
L 1154.49349 -452.382707 
L 1155.965496 -449.915361 
L 1157.437266 -447.448016 
L 1158.898723 -444.98067 
L 1160.339933 -442.513325 
L 1161.751119 -440.045979 
L 1163.122577 -437.578633 
L 1164.444498 -435.111288 
L 1165.70673 -432.643942 
L 1166.898526 -430.176596 
L 1168.008326 -427.709251 
L 1169.023618 -425.241905 
L 1169.930932 -422.77456 
L 1170.716 -420.307214 
L 1171.364101 -417.839868 
L 1171.860587 -415.372523 
L 1172.191578 -412.905177 
L 1172.34478 -410.437831 
L 1172.310368 -407.970486 
L 1172.081861 -405.50314 
L 1171.656915 -403.035795 
L 1171.037949 -400.568449 
L 1170.232551 -398.101103 
L 1169.253584 -395.633758 
L 1168.118994 -393.166412 
L 1166.851277 -390.699066 
L 1165.476659 -388.231721 
L 1164.024008 -385.764375 
L 1162.523557 -383.29703 
L 1161.005527 -380.829684 
L 1159.498731 -378.362338 
L 1158.029261 -375.894993 
L 1156.619345 -373.427647 
L 1155.286447 -370.960301 
L 1154.042667 -368.492956 
L 1152.894471 -366.02561 
L 1151.842752 -363.558264 
L 1150.883222 -361.090919 
L 1150.007075 -358.623573 
L 1149.201879 -356.156228 
L 1148.452623 -353.688882 
L 1147.74285 -351.221536 
L 1147.055786 -348.754191 
L 1146.375415 -346.286845 
L 1145.687417 -343.819499 
L 1144.979938 -341.352154 
L 1144.244147 -338.884808 
L 1143.474565 -336.417463 
L 1142.669168 -333.950117 
L 1141.829272 -331.482771 
L 1140.959228 -329.015426 
L 1140.065965 -326.54808 
L 1139.158418 -324.080734 
L 1138.246889 -321.613389 
L 1137.342393 -319.146043 
L 1136.456018 -316.678698 
L 1135.598347 -314.211352 
L 1134.778966 -311.744006 
L 1134.006079 -309.276661 
L 1133.286244 -306.809315 
L 1132.62422 -304.341969 
L 1132.022937 -301.874624 
L 1131.483558 -299.407278 
L 1131.00563 -296.939933 
L 1130.587292 -294.472587 
L 1130.225524 -292.005241 
L 1129.916418 -289.537896 
L 1129.655444 -287.07055 
z
" style="stroke: #3f3f3f; stroke-width: 1.25"/>
    </defs>
    <g clip-path="url(#pc6b5f1ede4)">
     <use xlink:href="#m00339e8b8a" x="0" y="720" style="fill: #3274a1; stroke: #3f3f3f; stroke-width: 1.25"/>
    </g>
   </g>
   <g id="PolyCollection_10">
    <defs>
     <path id="mb83600e161" d="M 1240.976482 -277.817353 
L 1239.423518 -277.817353 
L 1239.22708 -280.447829 
L 1238.993126 -283.078305 
L 1238.717673 -285.708781 
L 1238.397037 -288.339258 
L 1238.028013 -290.969734 
L 1237.608051 -293.60021 
L 1237.135421 -296.230686 
L 1236.609369 -298.861162 
L 1236.030224 -301.491638 
L 1235.399477 -304.122115 
L 1234.719792 -306.752591 
L 1233.994963 -309.383067 
L 1233.229797 -312.013543 
L 1232.429925 -314.644019 
L 1231.601542 -317.274495 
L 1230.751091 -319.904972 
L 1229.88488 -322.535448 
L 1229.008676 -325.165924 
L 1228.127276 -327.7964 
L 1227.244091 -330.426876 
L 1226.360776 -333.057352 
L 1225.47693 -335.687829 
L 1224.589905 -338.318305 
L 1223.69476 -340.948781 
L 1222.784374 -343.579257 
L 1221.849742 -346.209733 
L 1220.880462 -348.840209 
L 1219.865399 -351.470686 
L 1218.793499 -354.101162 
L 1217.654713 -356.731638 
L 1216.440976 -359.362114 
L 1215.147179 -361.99259 
L 1213.77204 -364.623066 
L 1212.318836 -367.253543 
L 1210.795894 -369.884019 
L 1209.216816 -372.514495 
L 1207.600395 -375.144971 
L 1205.970217 -377.775447 
L 1204.353955 -380.405923 
L 1202.782407 -383.036399 
L 1201.288325 -385.666876 
L 1199.905116 -388.297352 
L 1198.665485 -390.927828 
L 1197.600109 -393.558304 
L 1196.736412 -396.18878 
L 1196.097501 -398.819256 
L 1195.701313 -401.449733 
L 1195.56 -404.080209 
L 1195.679556 -406.710685 
L 1196.059696 -409.341161 
L 1196.693956 -411.971637 
L 1197.569997 -414.602113 
L 1198.670082 -417.23259 
L 1199.971698 -419.863066 
L 1201.448293 -422.493542 
L 1203.0701 -425.124018 
L 1204.805033 -427.754494 
L 1206.619631 -430.38497 
L 1208.480026 -433.015447 
L 1210.352921 -435.645923 
L 1212.206551 -438.276399 
L 1214.011606 -440.906875 
L 1215.742072 -443.537351 
L 1217.375976 -446.167827 
L 1218.895979 -448.798304 
L 1220.289807 -451.42878 
L 1221.550476 -454.059256 
L 1222.676302 -456.689732 
L 1223.670676 -459.320208 
L 1224.54163 -461.950684 
L 1225.301184 -464.581161 
L 1225.964535 -467.211637 
L 1226.549109 -469.842113 
L 1227.073547 -472.472589 
L 1227.556667 -475.103065 
L 1228.016487 -477.733541 
L 1228.469331 -480.364017 
L 1228.929104 -482.994494 
L 1229.406738 -485.62497 
L 1229.909866 -488.255446 
L 1230.442698 -490.885922 
L 1231.006116 -493.516398 
L 1231.597959 -496.146874 
L 1232.213458 -498.777351 
L 1232.845785 -501.407827 
L 1233.486671 -504.038303 
L 1234.127043 -506.668779 
L 1234.75764 -509.299255 
L 1235.369564 -511.929731 
L 1235.954748 -514.560208 
L 1236.50631 -517.190684 
L 1237.018795 -519.82116 
L 1237.4883 -522.451636 
L 1237.912488 -525.082112 
L 1238.290512 -527.712588 
L 1238.622872 -530.343065 
L 1238.911205 -532.973541 
L 1239.158066 -535.604017 
L 1239.366679 -538.234493 
L 1241.033321 -538.234493 
L 1241.033321 -538.234493 
L 1241.241934 -535.604017 
L 1241.488795 -532.973541 
L 1241.777128 -530.343065 
L 1242.109488 -527.712588 
L 1242.487512 -525.082112 
L 1242.9117 -522.451636 
L 1243.381205 -519.82116 
L 1243.89369 -517.190684 
L 1244.445252 -514.560208 
L 1245.030436 -511.929731 
L 1245.64236 -509.299255 
L 1246.272957 -506.668779 
L 1246.913329 -504.038303 
L 1247.554215 -501.407827 
L 1248.186542 -498.777351 
L 1248.802041 -496.146874 
L 1249.393884 -493.516398 
L 1249.957302 -490.885922 
L 1250.490134 -488.255446 
L 1250.993262 -485.62497 
L 1251.470896 -482.994494 
L 1251.930669 -480.364017 
L 1252.383513 -477.733541 
L 1252.843333 -475.103065 
L 1253.326453 -472.472589 
L 1253.850891 -469.842113 
L 1254.435465 -467.211637 
L 1255.098816 -464.581161 
L 1255.85837 -461.950684 
L 1256.729324 -459.320208 
L 1257.723698 -456.689732 
L 1258.849524 -454.059256 
L 1260.110193 -451.42878 
L 1261.504021 -448.798304 
L 1263.024024 -446.167827 
L 1264.657928 -443.537351 
L 1266.388394 -440.906875 
L 1268.193449 -438.276399 
L 1270.047079 -435.645923 
L 1271.919974 -433.015447 
L 1273.780369 -430.38497 
L 1275.594967 -427.754494 
L 1277.3299 -425.124018 
L 1278.951707 -422.493542 
L 1280.428302 -419.863066 
L 1281.729918 -417.23259 
L 1282.830003 -414.602113 
L 1283.706044 -411.971637 
L 1284.340304 -409.341161 
L 1284.720444 -406.710685 
L 1284.84 -404.080209 
L 1284.698687 -401.449733 
L 1284.302499 -398.819256 
L 1283.663588 -396.18878 
L 1282.799891 -393.558304 
L 1281.734515 -390.927828 
L 1280.494884 -388.297352 
L 1279.111675 -385.666876 
L 1277.617593 -383.036399 
L 1276.046045 -380.405923 
L 1274.429783 -377.775447 
L 1272.799605 -375.144971 
L 1271.183184 -372.514495 
L 1269.604106 -369.884019 
L 1268.081164 -367.253543 
L 1266.62796 -364.623066 
L 1265.252821 -361.99259 
L 1263.959024 -359.362114 
L 1262.745287 -356.731638 
L 1261.606501 -354.101162 
L 1260.534601 -351.470686 
L 1259.519538 -348.840209 
L 1258.550258 -346.209733 
L 1257.615626 -343.579257 
L 1256.70524 -340.948781 
L 1255.810095 -338.318305 
L 1254.92307 -335.687829 
L 1254.039224 -333.057352 
L 1253.155909 -330.426876 
L 1252.272724 -327.7964 
L 1251.391324 -325.165924 
L 1250.51512 -322.535448 
L 1249.648909 -319.904972 
L 1248.798458 -317.274495 
L 1247.970075 -314.644019 
L 1247.170203 -312.013543 
L 1246.405037 -309.383067 
L 1245.680208 -306.752591 
L 1245.000523 -304.122115 
L 1244.369776 -301.491638 
L 1243.790631 -298.861162 
L 1243.264579 -296.230686 
L 1242.791949 -293.60021 
L 1242.371987 -290.969734 
L 1242.002963 -288.339258 
L 1241.682327 -285.708781 
L 1241.406874 -283.078305 
L 1241.17292 -280.447829 
L 1240.976482 -277.817353 
z
" style="stroke: #3f3f3f; stroke-width: 1.25"/>
    </defs>
    <g clip-path="url(#pc6b5f1ede4)">
     <use xlink:href="#mb83600e161" x="0" y="720" style="fill: #3274a1; stroke: #3f3f3f; stroke-width: 1.25"/>
    </g>
   </g>
   <g id="matplotlib.axis_1">
    <g id="xtick_1">
     <g id="line2d_1">
      <defs>
       <path id="mb6659d294d" d="M 0 0 
L 0 3.5 
" style="stroke: #000000; stroke-width: 0.8"/>
      </defs>
      <g>
       <use xlink:href="#mb6659d294d" x="235.8" y="640.8" style="stroke: #000000; stroke-width: 0.8"/>
      </g>
     </g>
     <g id="text_1">
      <!-- 0 -->
      <g transform="translate(232.61875 655.398438) scale(0.1 -0.1)">
       <defs>
        <path id="DejaVuSans-30" d="M 2034 4250 
Q 1547 4250 1301 3770 
Q 1056 3291 1056 2328 
Q 1056 1369 1301 889 
Q 1547 409 2034 409 
Q 2525 409 2770 889 
Q 3016 1369 3016 2328 
Q 3016 3291 2770 3770 
Q 2525 4250 2034 4250 
z
M 2034 4750 
Q 2819 4750 3233 4129 
Q 3647 3509 3647 2328 
Q 3647 1150 3233 529 
Q 2819 -91 2034 -91 
Q 1250 -91 836 529 
Q 422 1150 422 2328 
Q 422 3509 836 4129 
Q 1250 4750 2034 4750 
z
" transform="scale(0.015625)"/>
       </defs>
       <use xlink:href="#DejaVuSans-30"/>
      </g>
     </g>
    </g>
    <g id="xtick_2">
     <g id="line2d_2">
      <g>
       <use xlink:href="#mb6659d294d" x="347.4" y="640.8" style="stroke: #000000; stroke-width: 0.8"/>
      </g>
     </g>
     <g id="text_2">
      <!-- 1 -->
      <g transform="translate(344.21875 655.398438) scale(0.1 -0.1)">
       <defs>
        <path id="DejaVuSans-31" d="M 794 531 
L 1825 531 
L 1825 4091 
L 703 3866 
L 703 4441 
L 1819 4666 
L 2450 4666 
L 2450 531 
L 3481 531 
L 3481 0 
L 794 0 
L 794 531 
z
" transform="scale(0.015625)"/>
       </defs>
       <use xlink:href="#DejaVuSans-31"/>
      </g>
     </g>
    </g>
    <g id="xtick_3">
     <g id="line2d_3">
      <g>
       <use xlink:href="#mb6659d294d" x="459" y="640.8" style="stroke: #000000; stroke-width: 0.8"/>
      </g>
     </g>
     <g id="text_3">
      <!-- 2 -->
      <g transform="translate(455.81875 655.398438) scale(0.1 -0.1)">
       <defs>
        <path id="DejaVuSans-32" d="M 1228 531 
L 3431 531 
L 3431 0 
L 469 0 
L 469 531 
Q 828 903 1448 1529 
Q 2069 2156 2228 2338 
Q 2531 2678 2651 2914 
Q 2772 3150 2772 3378 
Q 2772 3750 2511 3984 
Q 2250 4219 1831 4219 
Q 1534 4219 1204 4116 
Q 875 4013 500 3803 
L 500 4441 
Q 881 4594 1212 4672 
Q 1544 4750 1819 4750 
Q 2544 4750 2975 4387 
Q 3406 4025 3406 3419 
Q 3406 3131 3298 2873 
Q 3191 2616 2906 2266 
Q 2828 2175 2409 1742 
Q 1991 1309 1228 531 
z
" transform="scale(0.015625)"/>
       </defs>
       <use xlink:href="#DejaVuSans-32"/>
      </g>
     </g>
    </g>
    <g id="xtick_4">
     <g id="line2d_4">
      <g>
       <use xlink:href="#mb6659d294d" x="570.6" y="640.8" style="stroke: #000000; stroke-width: 0.8"/>
      </g>
     </g>
     <g id="text_4">
      <!-- 3 -->
      <g transform="translate(567.41875 655.398438) scale(0.1 -0.1)">
       <defs>
        <path id="DejaVuSans-33" d="M 2597 2516 
Q 3050 2419 3304 2112 
Q 3559 1806 3559 1356 
Q 3559 666 3084 287 
Q 2609 -91 1734 -91 
Q 1441 -91 1130 -33 
Q 819 25 488 141 
L 488 750 
Q 750 597 1062 519 
Q 1375 441 1716 441 
Q 2309 441 2620 675 
Q 2931 909 2931 1356 
Q 2931 1769 2642 2001 
Q 2353 2234 1838 2234 
L 1294 2234 
L 1294 2753 
L 1863 2753 
Q 2328 2753 2575 2939 
Q 2822 3125 2822 3475 
Q 2822 3834 2567 4026 
Q 2313 4219 1838 4219 
Q 1578 4219 1281 4162 
Q 984 4106 628 3988 
L 628 4550 
Q 988 4650 1302 4700 
Q 1616 4750 1894 4750 
Q 2613 4750 3031 4423 
Q 3450 4097 3450 3541 
Q 3450 3153 3228 2886 
Q 3006 2619 2597 2516 
z
" transform="scale(0.015625)"/>
       </defs>
       <use xlink:href="#DejaVuSans-33"/>
      </g>
     </g>
    </g>
    <g id="xtick_5">
     <g id="line2d_5">
      <g>
       <use xlink:href="#mb6659d294d" x="682.2" y="640.8" style="stroke: #000000; stroke-width: 0.8"/>
      </g>
     </g>
     <g id="text_5">
      <!-- 4 -->
      <g transform="translate(679.01875 655.398438) scale(0.1 -0.1)">
       <defs>
        <path id="DejaVuSans-34" d="M 2419 4116 
L 825 1625 
L 2419 1625 
L 2419 4116 
z
M 2253 4666 
L 3047 4666 
L 3047 1625 
L 3713 1625 
L 3713 1100 
L 3047 1100 
L 3047 0 
L 2419 0 
L 2419 1100 
L 313 1100 
L 313 1709 
L 2253 4666 
z
" transform="scale(0.015625)"/>
       </defs>
       <use xlink:href="#DejaVuSans-34"/>
      </g>
     </g>
    </g>
    <g id="xtick_6">
     <g id="line2d_6">
      <g>
       <use xlink:href="#mb6659d294d" x="793.8" y="640.8" style="stroke: #000000; stroke-width: 0.8"/>
      </g>
     </g>
     <g id="text_6">
      <!-- 5 -->
      <g transform="translate(790.61875 655.398438) scale(0.1 -0.1)">
       <defs>
        <path id="DejaVuSans-35" d="M 691 4666 
L 3169 4666 
L 3169 4134 
L 1269 4134 
L 1269 2991 
Q 1406 3038 1543 3061 
Q 1681 3084 1819 3084 
Q 2600 3084 3056 2656 
Q 3513 2228 3513 1497 
Q 3513 744 3044 326 
Q 2575 -91 1722 -91 
Q 1428 -91 1123 -41 
Q 819 9 494 109 
L 494 744 
Q 775 591 1075 516 
Q 1375 441 1709 441 
Q 2250 441 2565 725 
Q 2881 1009 2881 1497 
Q 2881 1984 2565 2268 
Q 2250 2553 1709 2553 
Q 1456 2553 1204 2497 
Q 953 2441 691 2322 
L 691 4666 
z
" transform="scale(0.015625)"/>
       </defs>
       <use xlink:href="#DejaVuSans-35"/>
      </g>
     </g>
    </g>
    <g id="xtick_7">
     <g id="line2d_7">
      <g>
       <use xlink:href="#mb6659d294d" x="905.4" y="640.8" style="stroke: #000000; stroke-width: 0.8"/>
      </g>
     </g>
     <g id="text_7">
      <!-- 6 -->
      <g transform="translate(902.21875 655.398438) scale(0.1 -0.1)">
       <defs>
        <path id="DejaVuSans-36" d="M 2113 2584 
Q 1688 2584 1439 2293 
Q 1191 2003 1191 1497 
Q 1191 994 1439 701 
Q 1688 409 2113 409 
Q 2538 409 2786 701 
Q 3034 994 3034 1497 
Q 3034 2003 2786 2293 
Q 2538 2584 2113 2584 
z
M 3366 4563 
L 3366 3988 
Q 3128 4100 2886 4159 
Q 2644 4219 2406 4219 
Q 1781 4219 1451 3797 
Q 1122 3375 1075 2522 
Q 1259 2794 1537 2939 
Q 1816 3084 2150 3084 
Q 2853 3084 3261 2657 
Q 3669 2231 3669 1497 
Q 3669 778 3244 343 
Q 2819 -91 2113 -91 
Q 1303 -91 875 529 
Q 447 1150 447 2328 
Q 447 3434 972 4092 
Q 1497 4750 2381 4750 
Q 2619 4750 2861 4703 
Q 3103 4656 3366 4563 
z
" transform="scale(0.015625)"/>
       </defs>
       <use xlink:href="#DejaVuSans-36"/>
      </g>
     </g>
    </g>
    <g id="xtick_8">
     <g id="line2d_8">
      <g>
       <use xlink:href="#mb6659d294d" x="1017" y="640.8" style="stroke: #000000; stroke-width: 0.8"/>
      </g>
     </g>
     <g id="text_8">
      <!-- 7 -->
      <g transform="translate(1013.81875 655.398438) scale(0.1 -0.1)">
       <defs>
        <path id="DejaVuSans-37" d="M 525 4666 
L 3525 4666 
L 3525 4397 
L 1831 0 
L 1172 0 
L 2766 4134 
L 525 4134 
L 525 4666 
z
" transform="scale(0.015625)"/>
       </defs>
       <use xlink:href="#DejaVuSans-37"/>
      </g>
     </g>
    </g>
    <g id="xtick_9">
     <g id="line2d_9">
      <g>
       <use xlink:href="#mb6659d294d" x="1128.6" y="640.8" style="stroke: #000000; stroke-width: 0.8"/>
      </g>
     </g>
     <g id="text_9">
      <!-- 8 -->
      <g transform="translate(1125.41875 655.398438) scale(0.1 -0.1)">
       <defs>
        <path id="DejaVuSans-38" d="M 2034 2216 
Q 1584 2216 1326 1975 
Q 1069 1734 1069 1313 
Q 1069 891 1326 650 
Q 1584 409 2034 409 
Q 2484 409 2743 651 
Q 3003 894 3003 1313 
Q 3003 1734 2745 1975 
Q 2488 2216 2034 2216 
z
M 1403 2484 
Q 997 2584 770 2862 
Q 544 3141 544 3541 
Q 544 4100 942 4425 
Q 1341 4750 2034 4750 
Q 2731 4750 3128 4425 
Q 3525 4100 3525 3541 
Q 3525 3141 3298 2862 
Q 3072 2584 2669 2484 
Q 3125 2378 3379 2068 
Q 3634 1759 3634 1313 
Q 3634 634 3220 271 
Q 2806 -91 2034 -91 
Q 1263 -91 848 271 
Q 434 634 434 1313 
Q 434 1759 690 2068 
Q 947 2378 1403 2484 
z
M 1172 3481 
Q 1172 3119 1398 2916 
Q 1625 2713 2034 2713 
Q 2441 2713 2670 2916 
Q 2900 3119 2900 3481 
Q 2900 3844 2670 4047 
Q 2441 4250 2034 4250 
Q 1625 4250 1398 4047 
Q 1172 3844 1172 3481 
z
" transform="scale(0.015625)"/>
       </defs>
       <use xlink:href="#DejaVuSans-38"/>
      </g>
     </g>
    </g>
    <g id="xtick_10">
     <g id="line2d_10">
      <g>
       <use xlink:href="#mb6659d294d" x="1240.2" y="640.8" style="stroke: #000000; stroke-width: 0.8"/>
      </g>
     </g>
     <g id="text_10">
      <!-- 9 -->
      <g transform="translate(1237.01875 655.398438) scale(0.1 -0.1)">
       <defs>
        <path id="DejaVuSans-39" d="M 703 97 
L 703 672 
Q 941 559 1184 500 
Q 1428 441 1663 441 
Q 2288 441 2617 861 
Q 2947 1281 2994 2138 
Q 2813 1869 2534 1725 
Q 2256 1581 1919 1581 
Q 1219 1581 811 2004 
Q 403 2428 403 3163 
Q 403 3881 828 4315 
Q 1253 4750 1959 4750 
Q 2769 4750 3195 4129 
Q 3622 3509 3622 2328 
Q 3622 1225 3098 567 
Q 2575 -91 1691 -91 
Q 1453 -91 1209 -44 
Q 966 3 703 97 
z
M 1959 2075 
Q 2384 2075 2632 2365 
Q 2881 2656 2881 3163 
Q 2881 3666 2632 3958 
Q 2384 4250 1959 4250 
Q 1534 4250 1286 3958 
Q 1038 3666 1038 3163 
Q 1038 2656 1286 2365 
Q 1534 2075 1959 2075 
z
" transform="scale(0.015625)"/>
       </defs>
       <use xlink:href="#DejaVuSans-39"/>
      </g>
     </g>
    </g>
    <g id="text_11">
     <!-- iteration -->
     <g transform="translate(716.877344 669.076563) scale(0.1 -0.1)">
      <defs>
       <path id="DejaVuSans-69" d="M 603 3500 
L 1178 3500 
L 1178 0 
L 603 0 
L 603 3500 
z
M 603 4863 
L 1178 4863 
L 1178 4134 
L 603 4134 
L 603 4863 
z
" transform="scale(0.015625)"/>
       <path id="DejaVuSans-74" d="M 1172 4494 
L 1172 3500 
L 2356 3500 
L 2356 3053 
L 1172 3053 
L 1172 1153 
Q 1172 725 1289 603 
Q 1406 481 1766 481 
L 2356 481 
L 2356 0 
L 1766 0 
Q 1100 0 847 248 
Q 594 497 594 1153 
L 594 3053 
L 172 3053 
L 172 3500 
L 594 3500 
L 594 4494 
L 1172 4494 
z
" transform="scale(0.015625)"/>
       <path id="DejaVuSans-65" d="M 3597 1894 
L 3597 1613 
L 953 1613 
Q 991 1019 1311 708 
Q 1631 397 2203 397 
Q 2534 397 2845 478 
Q 3156 559 3463 722 
L 3463 178 
Q 3153 47 2828 -22 
Q 2503 -91 2169 -91 
Q 1331 -91 842 396 
Q 353 884 353 1716 
Q 353 2575 817 3079 
Q 1281 3584 2069 3584 
Q 2775 3584 3186 3129 
Q 3597 2675 3597 1894 
z
M 3022 2063 
Q 3016 2534 2758 2815 
Q 2500 3097 2075 3097 
Q 1594 3097 1305 2825 
Q 1016 2553 972 2059 
L 3022 2063 
z
" transform="scale(0.015625)"/>
       <path id="DejaVuSans-72" d="M 2631 2963 
Q 2534 3019 2420 3045 
Q 2306 3072 2169 3072 
Q 1681 3072 1420 2755 
Q 1159 2438 1159 1844 
L 1159 0 
L 581 0 
L 581 3500 
L 1159 3500 
L 1159 2956 
Q 1341 3275 1631 3429 
Q 1922 3584 2338 3584 
Q 2397 3584 2469 3576 
Q 2541 3569 2628 3553 
L 2631 2963 
z
" transform="scale(0.015625)"/>
       <path id="DejaVuSans-61" d="M 2194 1759 
Q 1497 1759 1228 1600 
Q 959 1441 959 1056 
Q 959 750 1161 570 
Q 1363 391 1709 391 
Q 2188 391 2477 730 
Q 2766 1069 2766 1631 
L 2766 1759 
L 2194 1759 
z
M 3341 1997 
L 3341 0 
L 2766 0 
L 2766 531 
Q 2569 213 2275 61 
Q 1981 -91 1556 -91 
Q 1019 -91 701 211 
Q 384 513 384 1019 
Q 384 1609 779 1909 
Q 1175 2209 1959 2209 
L 2766 2209 
L 2766 2266 
Q 2766 2663 2505 2880 
Q 2244 3097 1772 3097 
Q 1472 3097 1187 3025 
Q 903 2953 641 2809 
L 641 3341 
Q 956 3463 1253 3523 
Q 1550 3584 1831 3584 
Q 2591 3584 2966 3190 
Q 3341 2797 3341 1997 
z
" transform="scale(0.015625)"/>
       <path id="DejaVuSans-6f" d="M 1959 3097 
Q 1497 3097 1228 2736 
Q 959 2375 959 1747 
Q 959 1119 1226 758 
Q 1494 397 1959 397 
Q 2419 397 2687 759 
Q 2956 1122 2956 1747 
Q 2956 2369 2687 2733 
Q 2419 3097 1959 3097 
z
M 1959 3584 
Q 2709 3584 3137 3096 
Q 3566 2609 3566 1747 
Q 3566 888 3137 398 
Q 2709 -91 1959 -91 
Q 1206 -91 779 398 
Q 353 888 353 1747 
Q 353 2609 779 3096 
Q 1206 3584 1959 3584 
z
" transform="scale(0.015625)"/>
       <path id="DejaVuSans-6e" d="M 3513 2113 
L 3513 0 
L 2938 0 
L 2938 2094 
Q 2938 2591 2744 2837 
Q 2550 3084 2163 3084 
Q 1697 3084 1428 2787 
Q 1159 2491 1159 1978 
L 1159 0 
L 581 0 
L 581 3500 
L 1159 3500 
L 1159 2956 
Q 1366 3272 1645 3428 
Q 1925 3584 2291 3584 
Q 2894 3584 3203 3211 
Q 3513 2838 3513 2113 
z
" transform="scale(0.015625)"/>
      </defs>
      <use xlink:href="#DejaVuSans-69"/>
      <use xlink:href="#DejaVuSans-74" x="27.783203"/>
      <use xlink:href="#DejaVuSans-65" x="66.992188"/>
      <use xlink:href="#DejaVuSans-72" x="128.515625"/>
      <use xlink:href="#DejaVuSans-61" x="169.628906"/>
      <use xlink:href="#DejaVuSans-74" x="230.908203"/>
      <use xlink:href="#DejaVuSans-69" x="270.117188"/>
      <use xlink:href="#DejaVuSans-6f" x="297.900391"/>
      <use xlink:href="#DejaVuSans-6e" x="359.082031"/>
     </g>
    </g>
   </g>
   <g id="matplotlib.axis_2">
    <g id="ytick_1">
     <g id="line2d_11">
      <defs>
       <path id="mb14c5de109" d="M 0 0 
L -3.5 0 
" style="stroke: #000000; stroke-width: 0.8"/>
      </defs>
      <g>
       <use xlink:href="#mb14c5de109" x="180" y="601.967858" style="stroke: #000000; stroke-width: 0.8"/>
      </g>
     </g>
     <g id="text_12">
      <!-- 0.0 -->
      <g transform="translate(157.096875 605.767077) scale(0.1 -0.1)">
       <defs>
        <path id="DejaVuSans-2e" d="M 684 794 
L 1344 794 
L 1344 0 
L 684 0 
L 684 794 
z
" transform="scale(0.015625)"/>
       </defs>
       <use xlink:href="#DejaVuSans-30"/>
       <use xlink:href="#DejaVuSans-2e" x="63.623047"/>
       <use xlink:href="#DejaVuSans-30" x="95.410156"/>
      </g>
     </g>
    </g>
    <g id="ytick_2">
     <g id="line2d_12">
      <g>
       <use xlink:href="#mb14c5de109" x="180" y="502.216319" style="stroke: #000000; stroke-width: 0.8"/>
      </g>
     </g>
     <g id="text_13">
      <!-- 0.2 -->
      <g transform="translate(157.096875 506.015537) scale(0.1 -0.1)">
       <use xlink:href="#DejaVuSans-30"/>
       <use xlink:href="#DejaVuSans-2e" x="63.623047"/>
       <use xlink:href="#DejaVuSans-32" x="95.410156"/>
      </g>
     </g>
    </g>
    <g id="ytick_3">
     <g id="line2d_13">
      <g>
       <use xlink:href="#mb14c5de109" x="180" y="402.46478" style="stroke: #000000; stroke-width: 0.8"/>
      </g>
     </g>
     <g id="text_14">
      <!-- 0.4 -->
      <g transform="translate(157.096875 406.263998) scale(0.1 -0.1)">
       <use xlink:href="#DejaVuSans-30"/>
       <use xlink:href="#DejaVuSans-2e" x="63.623047"/>
       <use xlink:href="#DejaVuSans-34" x="95.410156"/>
      </g>
     </g>
    </g>
    <g id="ytick_4">
     <g id="line2d_14">
      <g>
       <use xlink:href="#mb14c5de109" x="180" y="302.713241" style="stroke: #000000; stroke-width: 0.8"/>
      </g>
     </g>
     <g id="text_15">
      <!-- 0.6 -->
      <g transform="translate(157.096875 306.512459) scale(0.1 -0.1)">
       <use xlink:href="#DejaVuSans-30"/>
       <use xlink:href="#DejaVuSans-2e" x="63.623047"/>
       <use xlink:href="#DejaVuSans-36" x="95.410156"/>
      </g>
     </g>
    </g>
    <g id="ytick_5">
     <g id="line2d_15">
      <g>
       <use xlink:href="#mb14c5de109" x="180" y="202.961702" style="stroke: #000000; stroke-width: 0.8"/>
      </g>
     </g>
     <g id="text_16">
      <!-- 0.8 -->
      <g transform="translate(157.096875 206.76092) scale(0.1 -0.1)">
       <use xlink:href="#DejaVuSans-30"/>
       <use xlink:href="#DejaVuSans-2e" x="63.623047"/>
       <use xlink:href="#DejaVuSans-38" x="95.410156"/>
      </g>
     </g>
    </g>
    <g id="ytick_6">
     <g id="line2d_16">
      <g>
       <use xlink:href="#mb14c5de109" x="180" y="103.210163" style="stroke: #000000; stroke-width: 0.8"/>
      </g>
     </g>
     <g id="text_17">
      <!-- 1.0 -->
      <g transform="translate(157.096875 107.009381) scale(0.1 -0.1)">
       <use xlink:href="#DejaVuSans-31"/>
       <use xlink:href="#DejaVuSans-2e" x="63.623047"/>
       <use xlink:href="#DejaVuSans-30" x="95.410156"/>
      </g>
     </g>
    </g>
    <g id="text_18">
     <!-- cosine similarity -->
     <g transform="translate(151.017188 404.307031) rotate(-90) scale(0.1 -0.1)">
      <defs>
       <path id="DejaVuSans-63" d="M 3122 3366 
L 3122 2828 
Q 2878 2963 2633 3030 
Q 2388 3097 2138 3097 
Q 1578 3097 1268 2742 
Q 959 2388 959 1747 
Q 959 1106 1268 751 
Q 1578 397 2138 397 
Q 2388 397 2633 464 
Q 2878 531 3122 666 
L 3122 134 
Q 2881 22 2623 -34 
Q 2366 -91 2075 -91 
Q 1284 -91 818 406 
Q 353 903 353 1747 
Q 353 2603 823 3093 
Q 1294 3584 2113 3584 
Q 2378 3584 2631 3529 
Q 2884 3475 3122 3366 
z
" transform="scale(0.015625)"/>
       <path id="DejaVuSans-73" d="M 2834 3397 
L 2834 2853 
Q 2591 2978 2328 3040 
Q 2066 3103 1784 3103 
Q 1356 3103 1142 2972 
Q 928 2841 928 2578 
Q 928 2378 1081 2264 
Q 1234 2150 1697 2047 
L 1894 2003 
Q 2506 1872 2764 1633 
Q 3022 1394 3022 966 
Q 3022 478 2636 193 
Q 2250 -91 1575 -91 
Q 1294 -91 989 -36 
Q 684 19 347 128 
L 347 722 
Q 666 556 975 473 
Q 1284 391 1588 391 
Q 1994 391 2212 530 
Q 2431 669 2431 922 
Q 2431 1156 2273 1281 
Q 2116 1406 1581 1522 
L 1381 1569 
Q 847 1681 609 1914 
Q 372 2147 372 2553 
Q 372 3047 722 3315 
Q 1072 3584 1716 3584 
Q 2034 3584 2315 3537 
Q 2597 3491 2834 3397 
z
" transform="scale(0.015625)"/>
       <path id="DejaVuSans-20" transform="scale(0.015625)"/>
       <path id="DejaVuSans-6d" d="M 3328 2828 
Q 3544 3216 3844 3400 
Q 4144 3584 4550 3584 
Q 5097 3584 5394 3201 
Q 5691 2819 5691 2113 
L 5691 0 
L 5113 0 
L 5113 2094 
Q 5113 2597 4934 2840 
Q 4756 3084 4391 3084 
Q 3944 3084 3684 2787 
Q 3425 2491 3425 1978 
L 3425 0 
L 2847 0 
L 2847 2094 
Q 2847 2600 2669 2842 
Q 2491 3084 2119 3084 
Q 1678 3084 1418 2786 
Q 1159 2488 1159 1978 
L 1159 0 
L 581 0 
L 581 3500 
L 1159 3500 
L 1159 2956 
Q 1356 3278 1631 3431 
Q 1906 3584 2284 3584 
Q 2666 3584 2933 3390 
Q 3200 3197 3328 2828 
z
" transform="scale(0.015625)"/>
       <path id="DejaVuSans-6c" d="M 603 4863 
L 1178 4863 
L 1178 0 
L 603 0 
L 603 4863 
z
" transform="scale(0.015625)"/>
       <path id="DejaVuSans-79" d="M 2059 -325 
Q 1816 -950 1584 -1140 
Q 1353 -1331 966 -1331 
L 506 -1331 
L 506 -850 
L 844 -850 
Q 1081 -850 1212 -737 
Q 1344 -625 1503 -206 
L 1606 56 
L 191 3500 
L 800 3500 
L 1894 763 
L 2988 3500 
L 3597 3500 
L 2059 -325 
z
" transform="scale(0.015625)"/>
      </defs>
      <use xlink:href="#DejaVuSans-63"/>
      <use xlink:href="#DejaVuSans-6f" x="54.980469"/>
      <use xlink:href="#DejaVuSans-73" x="116.162109"/>
      <use xlink:href="#DejaVuSans-69" x="168.261719"/>
      <use xlink:href="#DejaVuSans-6e" x="196.044922"/>
      <use xlink:href="#DejaVuSans-65" x="259.423828"/>
      <use xlink:href="#DejaVuSans-20" x="320.947266"/>
      <use xlink:href="#DejaVuSans-73" x="352.734375"/>
      <use xlink:href="#DejaVuSans-69" x="404.833984"/>
      <use xlink:href="#DejaVuSans-6d" x="432.617188"/>
      <use xlink:href="#DejaVuSans-69" x="530.029297"/>
      <use xlink:href="#DejaVuSans-6c" x="557.8125"/>
      <use xlink:href="#DejaVuSans-61" x="585.595703"/>
      <use xlink:href="#DejaVuSans-72" x="646.875"/>
      <use xlink:href="#DejaVuSans-69" x="687.988281"/>
      <use xlink:href="#DejaVuSans-74" x="715.771484"/>
      <use xlink:href="#DejaVuSans-79" x="754.980469"/>
     </g>
    </g>
   </g>
   <g id="line2d_17">
    <path d="M 235.8 498.870913 
L 235.8 202.057748 
" clip-path="url(#pc6b5f1ede4)" style="fill: none; stroke: #3f3f3f; stroke-width: 1.875; stroke-linecap: square"/>
   </g>
   <g id="line2d_18">
    <path d="M 235.8 381.545316 
L 235.8 297.41733 
" clip-path="url(#pc6b5f1ede4)" style="fill: none; stroke: #3f3f3f; stroke-width: 5.625; stroke-linecap: square"/>
   </g>
   <g id="line2d_19">
    <path d="M 235.8 344.151739 
" clip-path="url(#pc6b5f1ede4)" style="fill: none; stroke: #3f3f3f; stroke-width: 1.5; stroke-linecap: square"/>
    <defs>
     <path id="mdd193c1c7a" d="M 2.34375 0 
L -2.34375 -0 
" style="stroke: #ffffff; stroke-width: 1.125"/>
    </defs>
    <g clip-path="url(#pc6b5f1ede4)">
     <use xlink:href="#mdd193c1c7a" x="235.8" y="344.151739" style="fill: #ffffff; stroke: #ffffff; stroke-width: 1.125"/>
    </g>
   </g>
   <g id="line2d_20">
    <path d="M 347.4 436.331718 
L 347.4 203.323191 
" clip-path="url(#pc6b5f1ede4)" style="fill: none; stroke: #3f3f3f; stroke-width: 1.875; stroke-linecap: square"/>
   </g>
   <g id="line2d_21">
    <path d="M 347.4 345.052565 
L 347.4 276.057504 
" clip-path="url(#pc6b5f1ede4)" style="fill: none; stroke: #3f3f3f; stroke-width: 5.625; stroke-linecap: square"/>
   </g>
   <g id="line2d_22">
    <path d="M 347.4 321.808978 
" clip-path="url(#pc6b5f1ede4)" style="fill: none; stroke: #3f3f3f; stroke-width: 1.5; stroke-linecap: square"/>
    <g clip-path="url(#pc6b5f1ede4)">
     <use xlink:href="#mdd193c1c7a" x="347.4" y="321.808978" style="fill: #ffffff; stroke: #ffffff; stroke-width: 1.125"/>
    </g>
   </g>
   <g id="line2d_23">
    <path d="M 459 410.843721 
L 459 238.690475 
" clip-path="url(#pc6b5f1ede4)" style="fill: none; stroke: #3f3f3f; stroke-width: 1.875; stroke-linecap: square"/>
   </g>
   <g id="line2d_24">
    <path d="M 459 345.156109 
L 459 275.593862 
" clip-path="url(#pc6b5f1ede4)" style="fill: none; stroke: #3f3f3f; stroke-width: 5.625; stroke-linecap: square"/>
   </g>
   <g id="line2d_25">
    <path d="M 459 302.58617 
" clip-path="url(#pc6b5f1ede4)" style="fill: none; stroke: #3f3f3f; stroke-width: 1.5; stroke-linecap: square"/>
    <g clip-path="url(#pc6b5f1ede4)">
     <use xlink:href="#mdd193c1c7a" x="459" y="302.58617" style="fill: #ffffff; stroke: #ffffff; stroke-width: 1.125"/>
    </g>
   </g>
   <g id="line2d_26">
    <path d="M 570.6 412.787697 
L 570.6 179.713025 
" clip-path="url(#pc6b5f1ede4)" style="fill: none; stroke: #3f3f3f; stroke-width: 1.875; stroke-linecap: square"/>
   </g>
   <g id="line2d_27">
    <path d="M 570.6 363.202153 
L 570.6 283.867672 
" clip-path="url(#pc6b5f1ede4)" style="fill: none; stroke: #3f3f3f; stroke-width: 5.625; stroke-linecap: square"/>
   </g>
   <g id="line2d_28">
    <path d="M 570.6 306.476828 
" clip-path="url(#pc6b5f1ede4)" style="fill: none; stroke: #3f3f3f; stroke-width: 1.5; stroke-linecap: square"/>
    <g clip-path="url(#pc6b5f1ede4)">
     <use xlink:href="#mdd193c1c7a" x="570.6" y="306.476828" style="fill: #ffffff; stroke: #ffffff; stroke-width: 1.125"/>
    </g>
   </g>
   <g id="line2d_29">
    <path d="M 682.2 400.793795 
L 682.2 214.563898 
" clip-path="url(#pc6b5f1ede4)" style="fill: none; stroke: #3f3f3f; stroke-width: 1.875; stroke-linecap: square"/>
   </g>
   <g id="line2d_30">
    <path d="M 682.2 319.892463 
L 682.2 265.320967 
" clip-path="url(#pc6b5f1ede4)" style="fill: none; stroke: #3f3f3f; stroke-width: 5.625; stroke-linecap: square"/>
   </g>
   <g id="line2d_31">
    <path d="M 682.2 284.720517 
" clip-path="url(#pc6b5f1ede4)" style="fill: none; stroke: #3f3f3f; stroke-width: 1.5; stroke-linecap: square"/>
    <g clip-path="url(#pc6b5f1ede4)">
     <use xlink:href="#mdd193c1c7a" x="682.2" y="284.720517" style="fill: #ffffff; stroke: #ffffff; stroke-width: 1.125"/>
    </g>
   </g>
   <g id="line2d_32">
    <path d="M 793.8 417.239551 
L 793.8 193.640395 
" clip-path="url(#pc6b5f1ede4)" style="fill: none; stroke: #3f3f3f; stroke-width: 1.875; stroke-linecap: square"/>
   </g>
   <g id="line2d_33">
    <path d="M 793.8 356.000538 
L 793.8 267.864615 
" clip-path="url(#pc6b5f1ede4)" style="fill: none; stroke: #3f3f3f; stroke-width: 5.625; stroke-linecap: square"/>
   </g>
   <g id="line2d_34">
    <path d="M 793.8 322.085659 
" clip-path="url(#pc6b5f1ede4)" style="fill: none; stroke: #3f3f3f; stroke-width: 1.5; stroke-linecap: square"/>
    <g clip-path="url(#pc6b5f1ede4)">
     <use xlink:href="#mdd193c1c7a" x="793.8" y="322.085659" style="fill: #ffffff; stroke: #ffffff; stroke-width: 1.125"/>
    </g>
   </g>
   <g id="line2d_35">
    <path d="M 905.4 421.972664 
L 905.4 226.159471 
" clip-path="url(#pc6b5f1ede4)" style="fill: none; stroke: #3f3f3f; stroke-width: 1.875; stroke-linecap: square"/>
   </g>
   <g id="line2d_36">
    <path d="M 905.4 338.936374 
L 905.4 281.911478 
" clip-path="url(#pc6b5f1ede4)" style="fill: none; stroke: #3f3f3f; stroke-width: 5.625; stroke-linecap: square"/>
   </g>
   <g id="line2d_37">
    <path d="M 905.4 308.263617 
" clip-path="url(#pc6b5f1ede4)" style="fill: none; stroke: #3f3f3f; stroke-width: 1.5; stroke-linecap: square"/>
    <g clip-path="url(#pc6b5f1ede4)">
     <use xlink:href="#mdd193c1c7a" x="905.4" y="308.263617" style="fill: #ffffff; stroke: #ffffff; stroke-width: 1.125"/>
    </g>
   </g>
   <g id="line2d_38">
    <path d="M 1017 367.106903 
L 1017 221.850388 
" clip-path="url(#pc6b5f1ede4)" style="fill: none; stroke: #3f3f3f; stroke-width: 1.875; stroke-linecap: square"/>
   </g>
   <g id="line2d_39">
    <path d="M 1017 307.263491 
L 1017 255.522409 
" clip-path="url(#pc6b5f1ede4)" style="fill: none; stroke: #3f3f3f; stroke-width: 5.625; stroke-linecap: square"/>
   </g>
   <g id="line2d_40">
    <path d="M 1017 274.124958 
" clip-path="url(#pc6b5f1ede4)" style="fill: none; stroke: #3f3f3f; stroke-width: 1.5; stroke-linecap: square"/>
    <g clip-path="url(#pc6b5f1ede4)">
     <use xlink:href="#mdd193c1c7a" x="1017" y="274.124958" style="fill: #ffffff; stroke: #ffffff; stroke-width: 1.125"/>
    </g>
   </g>
   <g id="line2d_41">
    <path d="M 1128.6 385.771414 
L 1128.6 235.820269 
" clip-path="url(#pc6b5f1ede4)" style="fill: none; stroke: #3f3f3f; stroke-width: 1.875; stroke-linecap: square"/>
   </g>
   <g id="line2d_42">
    <path d="M 1128.6 328.063822 
L 1128.6 287.331908 
" clip-path="url(#pc6b5f1ede4)" style="fill: none; stroke: #3f3f3f; stroke-width: 5.625; stroke-linecap: square"/>
   </g>
   <g id="line2d_43">
    <path d="M 1128.6 317.697112 
" clip-path="url(#pc6b5f1ede4)" style="fill: none; stroke: #3f3f3f; stroke-width: 1.5; stroke-linecap: square"/>
    <g clip-path="url(#pc6b5f1ede4)">
     <use xlink:href="#mdd193c1c7a" x="1128.6" y="317.697112" style="fill: #ffffff; stroke: #ffffff; stroke-width: 1.125"/>
    </g>
   </g>
   <g id="line2d_44">
    <path d="M 1240.2 371.077515 
L 1240.2 281.214929 
" clip-path="url(#pc6b5f1ede4)" style="fill: none; stroke: #3f3f3f; stroke-width: 1.875; stroke-linecap: square"/>
   </g>
   <g id="line2d_45">
    <path d="M 1240.2 331.625166 
L 1240.2 297.432974 
" clip-path="url(#pc6b5f1ede4)" style="fill: none; stroke: #3f3f3f; stroke-width: 5.625; stroke-linecap: square"/>
   </g>
   <g id="line2d_46">
    <path d="M 1240.2 314.687481 
" clip-path="url(#pc6b5f1ede4)" style="fill: none; stroke: #3f3f3f; stroke-width: 1.5; stroke-linecap: square"/>
    <g clip-path="url(#pc6b5f1ede4)">
     <use xlink:href="#mdd193c1c7a" x="1240.2" y="314.687481" style="fill: #ffffff; stroke: #ffffff; stroke-width: 1.125"/>
    </g>
   </g>
   <g id="patch_3">
    <path d="M 180 640.8 
L 180 86.4 
" style="fill: none; stroke: #000000; stroke-width: 0.8; stroke-linejoin: miter; stroke-linecap: square"/>
   </g>
   <g id="patch_4">
    <path d="M 1296 640.8 
L 1296 86.4 
" style="fill: none; stroke: #000000; stroke-width: 0.8; stroke-linejoin: miter; stroke-linecap: square"/>
   </g>
   <g id="patch_5">
    <path d="M 180 640.8 
L 1296 640.8 
" style="fill: none; stroke: #000000; stroke-width: 0.8; stroke-linejoin: miter; stroke-linecap: square"/>
   </g>
   <g id="patch_6">
    <path d="M 180 86.4 
L 1296 86.4 
" style="fill: none; stroke: #000000; stroke-width: 0.8; stroke-linejoin: miter; stroke-linecap: square"/>
   </g>
   <g id="text_19">
    <!-- cosine similarity of max_mem_5_fs_glit (progressive), by iteration -->
    <g transform="translate(540.728438 80.4) scale(0.12 -0.12)">
     <defs>
      <path id="DejaVuSans-66" d="M 2375 4863 
L 2375 4384 
L 1825 4384 
Q 1516 4384 1395 4259 
Q 1275 4134 1275 3809 
L 1275 3500 
L 2222 3500 
L 2222 3053 
L 1275 3053 
L 1275 0 
L 697 0 
L 697 3053 
L 147 3053 
L 147 3500 
L 697 3500 
L 697 3744 
Q 697 4328 969 4595 
Q 1241 4863 1831 4863 
L 2375 4863 
z
" transform="scale(0.015625)"/>
      <path id="DejaVuSans-78" d="M 3513 3500 
L 2247 1797 
L 3578 0 
L 2900 0 
L 1881 1375 
L 863 0 
L 184 0 
L 1544 1831 
L 300 3500 
L 978 3500 
L 1906 2253 
L 2834 3500 
L 3513 3500 
z
" transform="scale(0.015625)"/>
      <path id="DejaVuSans-5f" d="M 3263 -1063 
L 3263 -1509 
L -63 -1509 
L -63 -1063 
L 3263 -1063 
z
" transform="scale(0.015625)"/>
      <path id="DejaVuSans-67" d="M 2906 1791 
Q 2906 2416 2648 2759 
Q 2391 3103 1925 3103 
Q 1463 3103 1205 2759 
Q 947 2416 947 1791 
Q 947 1169 1205 825 
Q 1463 481 1925 481 
Q 2391 481 2648 825 
Q 2906 1169 2906 1791 
z
M 3481 434 
Q 3481 -459 3084 -895 
Q 2688 -1331 1869 -1331 
Q 1566 -1331 1297 -1286 
Q 1028 -1241 775 -1147 
L 775 -588 
Q 1028 -725 1275 -790 
Q 1522 -856 1778 -856 
Q 2344 -856 2625 -561 
Q 2906 -266 2906 331 
L 2906 616 
Q 2728 306 2450 153 
Q 2172 0 1784 0 
Q 1141 0 747 490 
Q 353 981 353 1791 
Q 353 2603 747 3093 
Q 1141 3584 1784 3584 
Q 2172 3584 2450 3431 
Q 2728 3278 2906 2969 
L 2906 3500 
L 3481 3500 
L 3481 434 
z
" transform="scale(0.015625)"/>
      <path id="DejaVuSans-28" d="M 1984 4856 
Q 1566 4138 1362 3434 
Q 1159 2731 1159 2009 
Q 1159 1288 1364 580 
Q 1569 -128 1984 -844 
L 1484 -844 
Q 1016 -109 783 600 
Q 550 1309 550 2009 
Q 550 2706 781 3412 
Q 1013 4119 1484 4856 
L 1984 4856 
z
" transform="scale(0.015625)"/>
      <path id="DejaVuSans-70" d="M 1159 525 
L 1159 -1331 
L 581 -1331 
L 581 3500 
L 1159 3500 
L 1159 2969 
Q 1341 3281 1617 3432 
Q 1894 3584 2278 3584 
Q 2916 3584 3314 3078 
Q 3713 2572 3713 1747 
Q 3713 922 3314 415 
Q 2916 -91 2278 -91 
Q 1894 -91 1617 61 
Q 1341 213 1159 525 
z
M 3116 1747 
Q 3116 2381 2855 2742 
Q 2594 3103 2138 3103 
Q 1681 3103 1420 2742 
Q 1159 2381 1159 1747 
Q 1159 1113 1420 752 
Q 1681 391 2138 391 
Q 2594 391 2855 752 
Q 3116 1113 3116 1747 
z
" transform="scale(0.015625)"/>
      <path id="DejaVuSans-76" d="M 191 3500 
L 800 3500 
L 1894 563 
L 2988 3500 
L 3597 3500 
L 2284 0 
L 1503 0 
L 191 3500 
z
" transform="scale(0.015625)"/>
      <path id="DejaVuSans-29" d="M 513 4856 
L 1013 4856 
Q 1481 4119 1714 3412 
Q 1947 2706 1947 2009 
Q 1947 1309 1714 600 
Q 1481 -109 1013 -844 
L 513 -844 
Q 928 -128 1133 580 
Q 1338 1288 1338 2009 
Q 1338 2731 1133 3434 
Q 928 4138 513 4856 
z
" transform="scale(0.015625)"/>
      <path id="DejaVuSans-2c" d="M 750 794 
L 1409 794 
L 1409 256 
L 897 -744 
L 494 -744 
L 750 256 
L 750 794 
z
" transform="scale(0.015625)"/>
      <path id="DejaVuSans-62" d="M 3116 1747 
Q 3116 2381 2855 2742 
Q 2594 3103 2138 3103 
Q 1681 3103 1420 2742 
Q 1159 2381 1159 1747 
Q 1159 1113 1420 752 
Q 1681 391 2138 391 
Q 2594 391 2855 752 
Q 3116 1113 3116 1747 
z
M 1159 2969 
Q 1341 3281 1617 3432 
Q 1894 3584 2278 3584 
Q 2916 3584 3314 3078 
Q 3713 2572 3713 1747 
Q 3713 922 3314 415 
Q 2916 -91 2278 -91 
Q 1894 -91 1617 61 
Q 1341 213 1159 525 
L 1159 0 
L 581 0 
L 581 4863 
L 1159 4863 
L 1159 2969 
z
" transform="scale(0.015625)"/>
     </defs>
     <use xlink:href="#DejaVuSans-63"/>
     <use xlink:href="#DejaVuSans-6f" x="54.980469"/>
     <use xlink:href="#DejaVuSans-73" x="116.162109"/>
     <use xlink:href="#DejaVuSans-69" x="168.261719"/>
     <use xlink:href="#DejaVuSans-6e" x="196.044922"/>
     <use xlink:href="#DejaVuSans-65" x="259.423828"/>
     <use xlink:href="#DejaVuSans-20" x="320.947266"/>
     <use xlink:href="#DejaVuSans-73" x="352.734375"/>
     <use xlink:href="#DejaVuSans-69" x="404.833984"/>
     <use xlink:href="#DejaVuSans-6d" x="432.617188"/>
     <use xlink:href="#DejaVuSans-69" x="530.029297"/>
     <use xlink:href="#DejaVuSans-6c" x="557.8125"/>
     <use xlink:href="#DejaVuSans-61" x="585.595703"/>
     <use xlink:href="#DejaVuSans-72" x="646.875"/>
     <use xlink:href="#DejaVuSans-69" x="687.988281"/>
     <use xlink:href="#DejaVuSans-74" x="715.771484"/>
     <use xlink:href="#DejaVuSans-79" x="754.980469"/>
     <use xlink:href="#DejaVuSans-20" x="814.160156"/>
     <use xlink:href="#DejaVuSans-6f" x="845.947266"/>
     <use xlink:href="#DejaVuSans-66" x="907.128906"/>
     <use xlink:href="#DejaVuSans-20" x="942.333984"/>
     <use xlink:href="#DejaVuSans-6d" x="974.121094"/>
     <use xlink:href="#DejaVuSans-61" x="1071.533203"/>
     <use xlink:href="#DejaVuSans-78" x="1132.8125"/>
     <use xlink:href="#DejaVuSans-5f" x="1191.992188"/>
     <use xlink:href="#DejaVuSans-6d" x="1241.992188"/>
     <use xlink:href="#DejaVuSans-65" x="1339.404297"/>
     <use xlink:href="#DejaVuSans-6d" x="1400.927734"/>
     <use xlink:href="#DejaVuSans-5f" x="1498.339844"/>
     <use xlink:href="#DejaVuSans-35" x="1548.339844"/>
     <use xlink:href="#DejaVuSans-5f" x="1611.962891"/>
     <use xlink:href="#DejaVuSans-66" x="1661.962891"/>
     <use xlink:href="#DejaVuSans-73" x="1697.167969"/>
     <use xlink:href="#DejaVuSans-5f" x="1749.267578"/>
     <use xlink:href="#DejaVuSans-67" x="1799.267578"/>
     <use xlink:href="#DejaVuSans-6c" x="1862.744141"/>
     <use xlink:href="#DejaVuSans-69" x="1890.527344"/>
     <use xlink:href="#DejaVuSans-74" x="1918.310547"/>
     <use xlink:href="#DejaVuSans-20" x="1957.519531"/>
     <use xlink:href="#DejaVuSans-28" x="1989.306641"/>
     <use xlink:href="#DejaVuSans-70" x="2028.320312"/>
     <use xlink:href="#DejaVuSans-72" x="2091.796875"/>
     <use xlink:href="#DejaVuSans-6f" x="2130.660156"/>
     <use xlink:href="#DejaVuSans-67" x="2191.841797"/>
     <use xlink:href="#DejaVuSans-72" x="2255.318359"/>
     <use xlink:href="#DejaVuSans-65" x="2294.181641"/>
     <use xlink:href="#DejaVuSans-73" x="2355.705078"/>
     <use xlink:href="#DejaVuSans-73" x="2407.804688"/>
     <use xlink:href="#DejaVuSans-69" x="2459.904297"/>
     <use xlink:href="#DejaVuSans-76" x="2487.6875"/>
     <use xlink:href="#DejaVuSans-65" x="2546.867188"/>
     <use xlink:href="#DejaVuSans-29" x="2608.390625"/>
     <use xlink:href="#DejaVuSans-2c" x="2647.404297"/>
     <use xlink:href="#DejaVuSans-20" x="2679.191406"/>
     <use xlink:href="#DejaVuSans-62" x="2710.978516"/>
     <use xlink:href="#DejaVuSans-79" x="2774.455078"/>
     <use xlink:href="#DejaVuSans-20" x="2833.634766"/>
     <use xlink:href="#DejaVuSans-69" x="2865.421875"/>
     <use xlink:href="#DejaVuSans-74" x="2893.205078"/>
     <use xlink:href="#DejaVuSans-65" x="2932.414062"/>
     <use xlink:href="#DejaVuSans-72" x="2993.9375"/>
     <use xlink:href="#DejaVuSans-61" x="3035.050781"/>
     <use xlink:href="#DejaVuSans-74" x="3096.330078"/>
     <use xlink:href="#DejaVuSans-69" x="3135.539062"/>
     <use xlink:href="#DejaVuSans-6f" x="3163.322266"/>
     <use xlink:href="#DejaVuSans-6e" x="3224.503906"/>
    </g>
   </g>
  </g>
 </g>
 <defs>
  <clipPath id="pc6b5f1ede4">
   <rect x="180" y="86.4" width="1116" height="554.4"/>
  </clipPath>
 </defs>
</svg>
