<?xml version="1.0" encoding="utf-8" standalone="no"?>
<!DOCTYPE svg PUBLIC "-//W3C//DTD SVG 1.1//EN"
  "http://www.w3.org/Graphics/SVG/1.1/DTD/svg11.dtd">
<svg xmlns:xlink="http://www.w3.org/1999/xlink" width="1440pt" height="720pt" viewBox="0 0 1440 720" xmlns="http://www.w3.org/2000/svg" version="1.1">
 <metadata>
  <rdf:RDF xmlns:dc="http://purl.org/dc/elements/1.1/" xmlns:cc="http://creativecommons.org/ns#" xmlns:rdf="http://www.w3.org/1999/02/22-rdf-syntax-ns#">
   <cc:Work>
    <dc:type rdf:resource="http://purl.org/dc/dcmitype/StillImage"/>
    <dc:date>2024-07-26T13:47:29.359973</dc:date>
    <dc:format>image/svg+xml</dc:format>
    <dc:creator>
     <cc:Agent>
      <dc:title>Matplotlib v3.8.0, https://matplotlib.org/</dc:title>
     </cc:Agent>
    </dc:creator>
   </cc:Work>
  </rdf:RDF>
 </metadata>
 <defs>
  <style type="text/css">*{stroke-linejoin: round; stroke-linecap: butt}</style>
 </defs>
 <g id="figure_1">
  <g id="patch_1">
   <path d="M 0 720 
L 1440 720 
L 1440 0 
L 0 0 
z
" style="fill: #ffffff"/>
  </g>
  <g id="axes_1">
   <g id="patch_2">
    <path d="M 180 640.8 
L 1296 640.8 
L 1296 86.4 
L 180 86.4 
z
" style="fill: #ffffff"/>
   </g>
   <g id="PolyCollection_1">
    <defs>
     <path id="mc3032cc84c" d="M 235.86481 -158.605856 
L 235.73519 -158.605856 
L 235.701255 -163.105302 
L 235.654426 -167.604748 
L 235.592038 -172.104194 
L 235.511623 -176.603641 
L 235.411066 -181.103087 
L 235.288653 -185.602533 
L 235.142974 -190.101979 
L 234.972638 -194.601425 
L 234.775826 -199.100871 
L 234.54972 -203.600317 
L 234.289869 -208.099763 
L 233.989598 -212.59921 
L 233.63957 -217.098656 
L 233.227674 -221.598102 
L 232.739405 -226.097548 
L 232.158894 -230.596994 
L 231.470624 -235.09644 
L 230.661678 -239.595886 
L 229.724142 -244.095332 
L 228.65706 -248.594779 
L 227.467355 -253.094225 
L 226.169264 -257.593671 
L 224.782306 -262.093117 
L 223.328259 -266.592563 
L 221.828097 -271.092009 
L 220.299871 -275.591455 
L 218.758309 -280.090902 
L 217.21626 -284.590348 
L 215.687361 -289.089794 
L 214.188791 -293.58924 
L 212.742792 -298.088686 
L 211.375981 -302.588132 
L 210.11625 -307.087578 
L 208.987843 -311.587024 
L 208.005921 -316.086471 
L 207.172164 -320.585917 
L 206.472743 -325.085363 
L 205.879376 -329.584809 
L 205.35341 -334.084255 
L 204.852066 -338.583701 
L 204.33553 -343.083147 
L 203.773373 -347.582593 
L 203.148972 -352.08204 
L 202.461076 -356.581486 
L 201.722248 -361.080932 
L 200.954585 -365.580378 
L 200.183658 -370.079824 
L 199.431998 -374.57927 
L 198.713584 -379.078716 
L 198.03061 -383.578163 
L 197.373366 -388.077609 
L 196.723376 -392.577055 
L 196.059224 -397.076501 
L 195.36384 -401.575947 
L 194.631701 -406.075393 
L 193.874379 -410.574839 
L 193.123234 -415.074285 
L 192.428628 -419.573732 
L 191.855645 -424.073178 
L 191.476891 -428.572624 
L 191.363391 -433.07207 
L 191.574896 -437.571516 
L 192.151122 -442.070962 
L 193.105391 -446.570408 
L 194.421965 -451.069854 
L 196.057745 -455.569301 
L 197.948264 -460.068747 
L 200.016929 -464.568193 
L 202.185749 -469.067639 
L 204.385386 -473.567085 
L 206.562546 -478.066531 
L 208.683392 -482.565977 
L 210.732622 -487.065423 
L 212.708828 -491.56487 
L 214.617537 -496.064316 
L 216.463659 -500.563762 
L 218.245128 -505.063208 
L 219.949097 -509.562654 
L 221.551578 -514.0621 
L 223.020652 -518.561546 
L 224.322699 -523.060993 
L 225.430388 -527.560439 
L 226.330625 -532.059885 
L 227.030472 -536.559331 
L 227.559272 -541.058777 
L 227.965983 -545.558223 
L 228.311871 -550.057669 
L 228.659979 -554.557115 
L 229.063808 -559.056562 
L 229.557932 -563.556008 
L 230.152838 -568.055454 
L 230.835099 -572.5549 
L 231.572483 -577.054346 
L 232.322359 -581.553792 
L 233.041016 -586.053238 
L 233.691653 -590.552684 
L 234.249449 -595.052131 
L 234.703232 -599.551577 
L 235.05417 -604.051023 
L 236.54583 -604.051023 
L 236.54583 -604.051023 
L 236.896768 -599.551577 
L 237.350551 -595.052131 
L 237.908347 -590.552684 
L 238.558984 -586.053238 
L 239.277641 -581.553792 
L 240.027517 -577.054346 
L 240.764901 -572.5549 
L 241.447162 -568.055454 
L 242.042068 -563.556008 
L 242.536192 -559.056562 
L 242.940021 -554.557115 
L 243.288129 -550.057669 
L 243.634017 -545.558223 
L 244.040728 -541.058777 
L 244.569528 -536.559331 
L 245.269375 -532.059885 
L 246.169612 -527.560439 
L 247.277301 -523.060993 
L 248.579348 -518.561546 
L 250.048422 -514.0621 
L 251.650903 -509.562654 
L 253.354872 -505.063208 
L 255.136341 -500.563762 
L 256.982463 -496.064316 
L 258.891172 -491.56487 
L 260.867378 -487.065423 
L 262.916608 -482.565977 
L 265.037454 -478.066531 
L 267.214614 -473.567085 
L 269.414251 -469.067639 
L 271.583071 -464.568193 
L 273.651736 -460.068747 
L 275.542255 -455.569301 
L 277.178035 -451.069854 
L 278.494609 -446.570408 
L 279.448878 -442.070962 
L 280.025104 -437.571516 
L 280.236609 -433.07207 
L 280.123109 -428.572624 
L 279.744355 -424.073178 
L 279.171372 -419.573732 
L 278.476766 -415.074285 
L 277.725621 -410.574839 
L 276.968299 -406.075393 
L 276.23616 -401.575947 
L 275.540776 -397.076501 
L 274.876624 -392.577055 
L 274.226634 -388.077609 
L 273.56939 -383.578163 
L 272.886416 -379.078716 
L 272.168002 -374.57927 
L 271.416342 -370.079824 
L 270.645415 -365.580378 
L 269.877752 -361.080932 
L 269.138924 -356.581486 
L 268.451028 -352.08204 
L 267.826627 -347.582593 
L 267.26447 -343.083147 
L 266.747934 -338.583701 
L 266.24659 -334.084255 
L 265.720624 -329.584809 
L 265.127257 -325.085363 
L 264.427836 -320.585917 
L 263.594079 -316.086471 
L 262.612157 -311.587024 
L 261.48375 -307.087578 
L 260.224019 -302.588132 
L 258.857208 -298.088686 
L 257.411209 -293.58924 
L 255.912639 -289.089794 
L 254.38374 -284.590348 
L 252.841691 -280.090902 
L 251.300129 -275.591455 
L 249.771903 -271.092009 
L 248.271741 -266.592563 
L 246.817694 -262.093117 
L 245.430736 -257.593671 
L 244.132645 -253.094225 
L 242.94294 -248.594779 
L 241.875858 -244.095332 
L 240.938322 -239.595886 
L 240.129376 -235.09644 
L 239.441106 -230.596994 
L 238.860595 -226.097548 
L 238.372326 -221.598102 
L 237.96043 -217.098656 
L 237.610402 -212.59921 
L 237.310131 -208.099763 
L 237.05028 -203.600317 
L 236.824174 -199.100871 
L 236.627362 -194.601425 
L 236.457026 -190.101979 
L 236.311347 -185.602533 
L 236.188934 -181.103087 
L 236.088377 -176.603641 
L 236.007962 -172.104194 
L 235.945574 -167.604748 
L 235.898745 -163.105302 
L 235.86481 -158.605856 
z
" style="stroke: #3f3f3f; stroke-width: 1.25"/>
    </defs>
    <g clip-path="url(#p9cf6988771)">
     <use xlink:href="#mc3032cc84c" x="0" y="720" style="fill: #3274a1; stroke: #3f3f3f; stroke-width: 1.25"/>
    </g>
   </g>
   <g id="PolyCollection_2">
    <defs>
     <path id="mc11a5d0910" d="M 347.489508 -116.186606 
L 347.310492 -116.186606 
L 347.261582 -121.158458 
L 347.192578 -126.130311 
L 347.09812 -131.102163 
L 346.97218 -136.074016 
L 346.807914 -141.045868 
L 346.597403 -146.017721 
L 346.331343 -150.989573 
L 345.998906 -155.961425 
L 345.588014 -160.933278 
L 345.086285 -165.90513 
L 344.482721 -170.876983 
L 343.769964 -175.848835 
L 342.946586 -180.820688 
L 342.018717 -185.79254 
L 341.000252 -190.764393 
L 339.911181 -195.736245 
L 338.774098 -200.708098 
L 337.609499 -205.67995 
L 336.430992 -210.651803 
L 335.241689 -215.623655 
L 334.032874 -220.595508 
L 332.785528 -225.56736 
L 331.474597 -230.539212 
L 330.075256 -235.511065 
L 328.569929 -240.482917 
L 326.954635 -245.45477 
L 325.243323 -250.426622 
L 323.469221 -255.398475 
L 321.682742 -260.370327 
L 319.946179 -265.34218 
L 318.326029 -270.314032 
L 316.884298 -275.285885 
L 315.670359 -280.257737 
L 314.714757 -285.22959 
L 314.025932 -290.201442 
L 313.590134 -295.173295 
L 313.374213 -300.145147 
L 313.330531 -305.116999 
L 313.403138 -310.088852 
L 313.534443 -315.060704 
L 313.671784 -320.032557 
L 313.773351 -325.004409 
L 313.812837 -329.976262 
L 313.782042 -334.948114 
L 313.690686 -339.919967 
L 313.562999 -344.891819 
L 313.431351 -349.863672 
L 313.32803 -354.835524 
L 313.277029 -359.807377 
L 313.287901 -364.779229 
L 313.35342 -369.751082 
L 313.451746 -374.722934 
L 313.552618 -379.694786 
L 313.625932 -384.666639 
L 313.650502 -389.638491 
L 313.6208 -394.610344 
L 313.55017 -399.582196 
L 313.469975 -404.554049 
L 313.425187 -409.525901 
L 313.467672 -414.497754 
L 313.648805 -419.469606 
L 314.012893 -424.441459 
L 314.592474 -429.413311 
L 315.405904 -434.385164 
L 316.457051 -439.357016 
L 317.736523 -444.328869 
L 319.223688 -449.300721 
L 320.888866 -454.272574 
L 322.695361 -459.244426 
L 324.601294 -464.216278 
L 326.561422 -469.188131 
L 328.529212 -474.159983 
L 330.459313 -479.131836 
L 332.310363 -484.103688 
L 334.047798 -489.075541 
L 335.646144 -494.047393 
L 337.090266 -499.019246 
L 338.375226 -503.991098 
L 339.504768 -508.962951 
L 340.488833 -513.934803 
L 341.340787 -518.906656 
L 342.075101 -523.878508 
L 342.705975 -528.850361 
L 343.24702 -533.822213 
L 343.711651 -538.794065 
L 344.11362 -543.765918 
L 344.46711 -548.73777 
L 344.786081 -553.709623 
L 345.082954 -558.681475 
L 345.367076 -563.653328 
L 345.643531 -568.62518 
L 345.912794 -573.597033 
L 346.171375 -578.568885 
L 346.413307 -583.540738 
L 346.632008 -588.51259 
L 346.822015 -593.484443 
L 346.980178 -598.456295 
L 347.1061 -603.428148 
L 347.201912 -608.4 
L 347.598088 -608.4 
L 347.598088 -608.4 
L 347.6939 -603.428148 
L 347.819822 -598.456295 
L 347.977985 -593.484443 
L 348.167992 -588.51259 
L 348.386693 -583.540738 
L 348.628625 -578.568885 
L 348.887206 -573.597033 
L 349.156469 -568.62518 
L 349.432924 -563.653328 
L 349.717046 -558.681475 
L 350.013919 -553.709623 
L 350.33289 -548.73777 
L 350.68638 -543.765918 
L 351.088349 -538.794065 
L 351.55298 -533.822213 
L 352.094025 -528.850361 
L 352.724899 -523.878508 
L 353.459213 -518.906656 
L 354.311167 -513.934803 
L 355.295232 -508.962951 
L 356.424774 -503.991098 
L 357.709734 -499.019246 
L 359.153856 -494.047393 
L 360.752202 -489.075541 
L 362.489637 -484.103688 
L 364.340687 -479.131836 
L 366.270788 -474.159983 
L 368.238578 -469.188131 
L 370.198706 -464.216278 
L 372.104639 -459.244426 
L 373.911134 -454.272574 
L 375.576312 -449.300721 
L 377.063477 -444.328869 
L 378.342949 -439.357016 
L 379.394096 -434.385164 
L 380.207526 -429.413311 
L 380.787107 -424.441459 
L 381.151195 -419.469606 
L 381.332328 -414.497754 
L 381.374813 -409.525901 
L 381.330025 -404.554049 
L 381.24983 -399.582196 
L 381.1792 -394.610344 
L 381.149498 -389.638491 
L 381.174068 -384.666639 
L 381.247382 -379.694786 
L 381.348254 -374.722934 
L 381.44658 -369.751082 
L 381.512099 -364.779229 
L 381.522971 -359.807377 
L 381.47197 -354.835524 
L 381.368649 -349.863672 
L 381.237001 -344.891819 
L 381.109314 -339.919967 
L 381.017958 -334.948114 
L 380.987163 -329.976262 
L 381.026649 -325.004409 
L 381.128216 -320.032557 
L 381.265557 -315.060704 
L 381.396862 -310.088852 
L 381.469469 -305.116999 
L 381.425787 -300.145147 
L 381.209866 -295.173295 
L 380.774068 -290.201442 
L 380.085243 -285.22959 
L 379.129641 -280.257737 
L 377.915702 -275.285885 
L 376.473971 -270.314032 
L 374.853821 -265.34218 
L 373.117258 -260.370327 
L 371.330779 -255.398475 
L 369.556677 -250.426622 
L 367.845365 -245.45477 
L 366.230071 -240.482917 
L 364.724744 -235.511065 
L 363.325403 -230.539212 
L 362.014472 -225.56736 
L 360.767126 -220.595508 
L 359.558311 -215.623655 
L 358.369008 -210.651803 
L 357.190501 -205.67995 
L 356.025902 -200.708098 
L 354.888819 -195.736245 
L 353.799748 -190.764393 
L 352.781283 -185.79254 
L 351.853414 -180.820688 
L 351.030036 -175.848835 
L 350.317279 -170.876983 
L 349.713715 -165.90513 
L 349.211986 -160.933278 
L 348.801094 -155.961425 
L 348.468657 -150.989573 
L 348.202597 -146.017721 
L 347.992086 -141.045868 
L 347.82782 -136.074016 
L 347.70188 -131.102163 
L 347.607422 -126.130311 
L 347.538418 -121.158458 
L 347.489508 -116.186606 
z
" style="stroke: #3f3f3f; stroke-width: 1.25"/>
    </defs>
    <g clip-path="url(#p9cf6988771)">
     <use xlink:href="#mc11a5d0910" x="0" y="720" style="fill: #3274a1; stroke: #3f3f3f; stroke-width: 1.25"/>
    </g>
   </g>
   <g id="PolyCollection_3">
    <defs>
     <path id="me81d05888c" d="M 459.118646 -112.952122 
L 458.881354 -112.952122 
L 458.808014 -117.955283 
L 458.698922 -122.958444 
L 458.541931 -127.961605 
L 458.323167 -132.964766 
L 458.027732 -137.967927 
L 457.64077 -142.971088 
L 457.148853 -147.974249 
L 456.541575 -152.97741 
L 455.813136 -157.980571 
L 454.963643 -162.983732 
L 453.999824 -167.986893 
L 452.934858 -172.990054 
L 451.78717 -177.993215 
L 450.578221 -182.996376 
L 449.329599 -187.999537 
L 448.059908 -193.002698 
L 446.78209 -198.005859 
L 445.501756 -203.00902 
L 444.21691 -208.012181 
L 442.919112 -213.015342 
L 441.59578 -218.018503 
L 440.233082 -223.021664 
L 438.818759 -228.024825 
L 437.344375 -233.027986 
L 435.80675 -238.031147 
L 434.208753 -243.034308 
L 432.559846 -248.037469 
L 430.876845 -253.04063 
L 429.185047 -258.043791 
L 427.519407 -263.046952 
L 425.92492 -268.050113 
L 424.455183 -273.053274 
L 423.168334 -278.056435 
L 422.120364 -283.059596 
L 421.356739 -288.062757 
L 420.904161 -293.065918 
L 420.764622 -298.069079 
L 420.913503 -303.07224 
L 421.302472 -308.075401 
L 421.866586 -313.078562 
L 422.533891 -318.081723 
L 423.235239 -323.084884 
L 423.91225 -328.088045 
L 424.522144 -333.091206 
L 425.039256 -338.094367 
L 425.453904 -343.097528 
L 425.769708 -348.100689 
L 426.000331 -353.10385 
L 426.166177 -358.107011 
L 426.291188 -363.110172 
L 426.399722 -368.113333 
L 426.513673 -373.116494 
L 426.650309 -378.119655 
L 426.821482 -383.122816 
L 427.034666 -388.125977 
L 427.295748 -393.129138 
L 427.612755 -398.132299 
L 427.999147 -403.13546 
L 428.475182 -408.138621 
L 429.066384 -413.141782 
L 429.799102 -418.144943 
L 430.694277 -423.148104 
L 431.761367 -428.151265 
L 432.994459 -433.154426 
L 434.372025 -438.157587 
L 435.860483 -443.160748 
L 437.420412 -448.163909 
L 439.013373 -453.16707 
L 440.607179 -458.170231 
L 442.178189 -463.173392 
L 443.710449 -468.176553 
L 445.192706 -473.179714 
L 446.614988 -478.182875 
L 447.966344 -483.186036 
L 449.234585 -488.189197 
L 450.407879 -493.192358 
L 451.477199 -498.195519 
L 452.438395 -503.19868 
L 453.292942 -508.201841 
L 454.047111 -513.205002 
L 454.710011 -518.208163 
L 455.291384 -523.211324 
L 455.799996 -528.214485 
L 456.243077 -533.217646 
L 456.626765 -538.220807 
L 456.957048 -543.223968 
L 457.240585 -548.227129 
L 457.484941 -553.23029 
L 457.698106 -558.233451 
L 457.887523 -563.236612 
L 458.059055 -568.239773 
L 458.216304 -573.242934 
L 458.360534 -578.246095 
L 458.491183 -583.249256 
L 458.606743 -588.252417 
L 458.705699 -593.255578 
L 458.787265 -598.258739 
L 458.851747 -603.2619 
L 458.900532 -608.265061 
L 459.099468 -608.265061 
L 459.099468 -608.265061 
L 459.148253 -603.2619 
L 459.212735 -598.258739 
L 459.294301 -593.255578 
L 459.393257 -588.252417 
L 459.508817 -583.249256 
L 459.639466 -578.246095 
L 459.783696 -573.242934 
L 459.940945 -568.239773 
L 460.112477 -563.236612 
L 460.301894 -558.233451 
L 460.515059 -553.23029 
L 460.759415 -548.227129 
L 461.042952 -543.223968 
L 461.373235 -538.220807 
L 461.756923 -533.217646 
L 462.200004 -528.214485 
L 462.708616 -523.211324 
L 463.289989 -518.208163 
L 463.952889 -513.205002 
L 464.707058 -508.201841 
L 465.561605 -503.19868 
L 466.522801 -498.195519 
L 467.592121 -493.192358 
L 468.765415 -488.189197 
L 470.033656 -483.186036 
L 471.385012 -478.182875 
L 472.807294 -473.179714 
L 474.289551 -468.176553 
L 475.821811 -463.173392 
L 477.392821 -458.170231 
L 478.986627 -453.16707 
L 480.579588 -448.163909 
L 482.139517 -443.160748 
L 483.627975 -438.157587 
L 485.005541 -433.154426 
L 486.238633 -428.151265 
L 487.305723 -423.148104 
L 488.200898 -418.144943 
L 488.933616 -413.141782 
L 489.524818 -408.138621 
L 490.000853 -403.13546 
L 490.387245 -398.132299 
L 490.704252 -393.129138 
L 490.965334 -388.125977 
L 491.178518 -383.122816 
L 491.349691 -378.119655 
L 491.486327 -373.116494 
L 491.600278 -368.113333 
L 491.708812 -363.110172 
L 491.833823 -358.107011 
L 491.999669 -353.10385 
L 492.230292 -348.100689 
L 492.546096 -343.097528 
L 492.960744 -338.094367 
L 493.477856 -333.091206 
L 494.08775 -328.088045 
L 494.764761 -323.084884 
L 495.466109 -318.081723 
L 496.133414 -313.078562 
L 496.697528 -308.075401 
L 497.086497 -303.07224 
L 497.235378 -298.069079 
L 497.095839 -293.065918 
L 496.643261 -288.062757 
L 495.879636 -283.059596 
L 494.831666 -278.056435 
L 493.544817 -273.053274 
L 492.07508 -268.050113 
L 490.480593 -263.046952 
L 488.814953 -258.043791 
L 487.123155 -253.04063 
L 485.440154 -248.037469 
L 483.791247 -243.034308 
L 482.19325 -238.031147 
L 480.655625 -233.027986 
L 479.181241 -228.024825 
L 477.766918 -223.021664 
L 476.40422 -218.018503 
L 475.080888 -213.015342 
L 473.78309 -208.012181 
L 472.498244 -203.00902 
L 471.21791 -198.005859 
L 469.940092 -193.002698 
L 468.670401 -187.999537 
L 467.421779 -182.996376 
L 466.21283 -177.993215 
L 465.065142 -172.990054 
L 464.000176 -167.986893 
L 463.036357 -162.983732 
L 462.186864 -157.980571 
L 461.458425 -152.97741 
L 460.851147 -147.974249 
L 460.35923 -142.971088 
L 459.972268 -137.967927 
L 459.676833 -132.964766 
L 459.458069 -127.961605 
L 459.301078 -122.958444 
L 459.191986 -117.955283 
L 459.118646 -112.952122 
z
" style="stroke: #3f3f3f; stroke-width: 1.25"/>
    </defs>
    <g clip-path="url(#p9cf6988771)">
     <use xlink:href="#me81d05888c" x="0" y="720" style="fill: #3274a1; stroke: #3f3f3f; stroke-width: 1.25"/>
    </g>
   </g>
   <g id="PolyCollection_4">
    <defs>
     <path id="mebe9f74181" d="M 570.743091 -107.155485 
L 570.456909 -107.155485 
L 570.368396 -112.208976 
L 570.238552 -117.262468 
L 570.055512 -122.315959 
L 569.807235 -127.369451 
L 569.482632 -132.422942 
L 569.072636 -137.476433 
L 568.57088 -142.529925 
L 567.973764 -147.583416 
L 567.279839 -152.636907 
L 566.488663 -157.690399 
L 565.59953 -162.74389 
L 564.610478 -167.797381 
L 563.51795 -172.850873 
L 562.317197 -177.904364 
L 561.003298 -182.957855 
L 559.572532 -188.011347 
L 558.023861 -193.064838 
L 556.360428 -198.118329 
L 554.591107 -203.171821 
L 552.732046 -208.225312 
L 550.807905 -213.278804 
L 548.85215 -218.332295 
L 546.905596 -223.385786 
L 545.012651 -228.439278 
L 543.215405 -233.492769 
L 541.546729 -238.54626 
L 540.024314 -243.599752 
L 538.64787 -248.653243 
L 537.401037 -253.706734 
L 536.258154 -258.760226 
L 535.194334 -263.813717 
L 534.195875 -268.867208 
L 533.267623 -273.9207 
L 532.434677 -278.974191 
L 531.737627 -284.027683 
L 531.222645 -289.081174 
L 530.929476 -294.134665 
L 530.88095 -299.188157 
L 531.076976 -304.241648 
L 531.494272 -309.295139 
L 532.0912 -314.348631 
L 532.815593 -319.402122 
L 533.613043 -324.455613 
L 534.433627 -329.509105 
L 535.236212 -334.562596 
L 535.990538 -339.616087 
L 536.677895 -344.669579 
L 537.291071 -349.72307 
L 537.833758 -354.776562 
L 538.319133 -359.830053 
L 538.767263 -364.883544 
L 539.201429 -369.937036 
L 539.644131 -374.990527 
L 540.113937 -380.044018 
L 540.624256 -385.09751 
L 541.184399 -390.151001 
L 541.80231 -395.204492 
L 542.487584 -400.257984 
L 543.253143 -405.311475 
L 544.114472 -410.364966 
L 545.086275 -415.418458 
L 546.17758 -420.471949 
L 547.387048 -425.525441 
L 548.700378 -430.578932 
L 550.091054 -435.632423 
L 551.524529 -440.685915 
L 552.964642 -445.739406 
L 554.380236 -450.792897 
L 555.749803 -455.846389 
L 557.062725 -460.89988 
L 558.31698 -465.953371 
L 559.514493 -471.006863 
L 560.656168 -476.060354 
L 561.738578 -481.113845 
L 562.753502 -486.167337 
L 563.69019 -491.220828 
L 564.539179 -496.274319 
L 565.295894 -501.327811 
L 565.962564 -506.381302 
L 566.547786 -511.434794 
L 567.064077 -516.488285 
L 567.524541 -521.541776 
L 567.939915 -526.595268 
L 568.316977 -531.648759 
L 568.658593 -536.70225 
L 568.965036 -541.755742 
L 569.235798 -546.809233 
L 569.471143 -551.862724 
L 569.672878 -556.916216 
L 569.844278 -561.969707 
L 569.98943 -567.023198 
L 570.112394 -572.07669 
L 570.216567 -577.130181 
L 570.304427 -582.183673 
L 570.377648 -587.237164 
L 570.437439 -592.290655 
L 570.484907 -597.344147 
L 570.521319 -602.397638 
L 570.54818 -607.451129 
L 570.65182 -607.451129 
L 570.65182 -607.451129 
L 570.678681 -602.397638 
L 570.715093 -597.344147 
L 570.762561 -592.290655 
L 570.822352 -587.237164 
L 570.895573 -582.183673 
L 570.983433 -577.130181 
L 571.087606 -572.07669 
L 571.21057 -567.023198 
L 571.355722 -561.969707 
L 571.527122 -556.916216 
L 571.728857 -551.862724 
L 571.964202 -546.809233 
L 572.234964 -541.755742 
L 572.541407 -536.70225 
L 572.883023 -531.648759 
L 573.260085 -526.595268 
L 573.675459 -521.541776 
L 574.135923 -516.488285 
L 574.652214 -511.434794 
L 575.237436 -506.381302 
L 575.904106 -501.327811 
L 576.660821 -496.274319 
L 577.50981 -491.220828 
L 578.446498 -486.167337 
L 579.461422 -481.113845 
L 580.543832 -476.060354 
L 581.685507 -471.006863 
L 582.88302 -465.953371 
L 584.137275 -460.89988 
L 585.450197 -455.846389 
L 586.819764 -450.792897 
L 588.235358 -445.739406 
L 589.675471 -440.685915 
L 591.108946 -435.632423 
L 592.499622 -430.578932 
L 593.812952 -425.525441 
L 595.02242 -420.471949 
L 596.113725 -415.418458 
L 597.085528 -410.364966 
L 597.946857 -405.311475 
L 598.712416 -400.257984 
L 599.39769 -395.204492 
L 600.015601 -390.151001 
L 600.575744 -385.09751 
L 601.086063 -380.044018 
L 601.555869 -374.990527 
L 601.998571 -369.937036 
L 602.432737 -364.883544 
L 602.880867 -359.830053 
L 603.366242 -354.776562 
L 603.908929 -349.72307 
L 604.522105 -344.669579 
L 605.209462 -339.616087 
L 605.963788 -334.562596 
L 606.766373 -329.509105 
L 607.586957 -324.455613 
L 608.384407 -319.402122 
L 609.1088 -314.348631 
L 609.705728 -309.295139 
L 610.123024 -304.241648 
L 610.31905 -299.188157 
L 610.270524 -294.134665 
L 609.977355 -289.081174 
L 609.462373 -284.027683 
L 608.765323 -278.974191 
L 607.932377 -273.9207 
L 607.004125 -268.867208 
L 606.005666 -263.813717 
L 604.941846 -258.760226 
L 603.798963 -253.706734 
L 602.55213 -248.653243 
L 601.175686 -243.599752 
L 599.653271 -238.54626 
L 597.984595 -233.492769 
L 596.187349 -228.439278 
L 594.294404 -223.385786 
L 592.34785 -218.332295 
L 590.392095 -213.278804 
L 588.467954 -208.225312 
L 586.608893 -203.171821 
L 584.839572 -198.118329 
L 583.176139 -193.064838 
L 581.627468 -188.011347 
L 580.196702 -182.957855 
L 578.882803 -177.904364 
L 577.68205 -172.850873 
L 576.589522 -167.797381 
L 575.60047 -162.74389 
L 574.711337 -157.690399 
L 573.920161 -152.636907 
L 573.226236 -147.583416 
L 572.62912 -142.529925 
L 572.127364 -137.476433 
L 571.717368 -132.422942 
L 571.392765 -127.369451 
L 571.144488 -122.315959 
L 570.961448 -117.262468 
L 570.831604 -112.208976 
L 570.743091 -107.155485 
z
" style="stroke: #3f3f3f; stroke-width: 1.25"/>
    </defs>
    <g clip-path="url(#p9cf6988771)">
     <use xlink:href="#mebe9f74181" x="0" y="720" style="fill: #3274a1; stroke: #3f3f3f; stroke-width: 1.25"/>
    </g>
   </g>
   <g id="PolyCollection_5">
    <defs>
     <path id="me39d9873dd" d="M 682.311961 -105.00103 
L 682.088039 -105.00103 
L 682.021072 -110.067902 
L 681.923851 -115.134775 
L 681.78759 -120.201648 
L 681.602712 -125.268521 
L 681.359178 -130.335393 
L 681.0468 -135.402266 
L 680.655555 -140.469139 
L 680.175885 -145.536012 
L 679.599013 -150.602884 
L 678.917182 -155.669757 
L 678.12369 -160.73663 
L 677.212516 -165.803502 
L 676.177442 -170.870375 
L 675.010859 -175.937248 
L 673.702737 -181.004121 
L 672.24052 -186.070993 
L 670.610661 -191.137866 
L 668.802098 -196.204739 
L 666.811282 -201.271611 
L 664.647627 -206.338484 
L 662.337768 -211.405357 
L 659.927063 -216.47223 
L 657.477314 -221.539102 
L 655.060667 -226.605975 
L 652.750648 -231.672848 
L 650.612127 -236.73972 
L 648.69239 -241.806593 
L 647.015384 -246.873466 
L 645.580622 -251.940339 
L 644.3672 -257.007211 
L 643.342222 -262.074084 
L 642.471703 -267.140957 
L 641.731287 -272.20783 
L 641.113944 -277.274702 
L 640.632542 -282.341575 
L 640.316557 -287.408448 
L 640.203882 -292.47532 
L 640.33005 -297.542193 
L 640.717848 -302.609066 
L 641.369935 -307.675939 
L 642.26595 -312.742811 
L 643.364182 -317.809684 
L 644.606694 -322.876557 
L 645.92628 -327.943429 
L 647.253736 -333.010302 
L 648.524507 -338.077175 
L 649.684301 -343.144048 
L 650.693543 -348.21092 
L 651.530511 -353.277793 
L 652.192738 -358.344666 
L 652.69628 -363.411538 
L 653.072626 -368.478411 
L 653.363652 -373.545284 
L 653.61561 -378.612157 
L 653.873511 -383.679029 
L 654.177152 -388.745902 
L 654.559387 -393.812775 
L 655.046391 -398.879648 
L 655.658881 -403.94652 
L 656.412971 -409.013393 
L 657.319681 -414.080266 
L 658.38294 -419.147138 
L 659.596896 -424.214011 
L 660.943954 -429.280884 
L 662.394912 -434.347757 
L 663.911856 -439.414629 
L 665.45331 -444.481502 
L 666.980176 -449.548375 
L 668.460581 -454.615247 
L 669.872145 -459.68212 
L 671.201251 -464.748993 
L 672.440069 -469.815866 
L 673.582946 -474.882738 
L 674.623886 -479.949611 
L 675.556178 -485.016484 
L 676.374195 -490.083357 
L 677.076363 -495.150229 
L 677.667804 -500.217102 
L 678.161302 -505.283975 
L 678.575994 -510.350847 
L 678.934113 -515.41772 
L 679.256841 -520.484593 
L 679.560646 -525.551466 
L 679.855157 -530.618338 
L 680.143062 -535.685211 
L 680.421716 -540.752084 
L 680.685707 -545.818956 
L 680.929394 -550.885829 
L 681.148706 -555.952702 
L 681.341871 -561.019575 
L 681.509209 -566.086447 
L 681.652384 -571.15332 
L 681.773583 -576.220193 
L 681.874943 -581.287065 
L 681.958334 -586.353938 
L 682.025431 -591.420811 
L 682.077902 -596.487684 
L 682.117559 -601.554556 
L 682.146397 -606.621429 
L 682.253603 -606.621429 
L 682.253603 -606.621429 
L 682.282441 -601.554556 
L 682.322098 -596.487684 
L 682.374569 -591.420811 
L 682.441666 -586.353938 
L 682.525057 -581.287065 
L 682.626417 -576.220193 
L 682.747616 -571.15332 
L 682.890791 -566.086447 
L 683.058129 -561.019575 
L 683.251294 -555.952702 
L 683.470606 -550.885829 
L 683.714293 -545.818956 
L 683.978284 -540.752084 
L 684.256938 -535.685211 
L 684.544843 -530.618338 
L 684.839354 -525.551466 
L 685.143159 -520.484593 
L 685.465887 -515.41772 
L 685.824006 -510.350847 
L 686.238698 -505.283975 
L 686.732196 -500.217102 
L 687.323637 -495.150229 
L 688.025805 -490.083357 
L 688.843822 -485.016484 
L 689.776114 -479.949611 
L 690.817054 -474.882738 
L 691.959931 -469.815866 
L 693.198749 -464.748993 
L 694.527855 -459.68212 
L 695.939419 -454.615247 
L 697.419824 -449.548375 
L 698.94669 -444.481502 
L 700.488144 -439.414629 
L 702.005088 -434.347757 
L 703.456046 -429.280884 
L 704.803104 -424.214011 
L 706.01706 -419.147138 
L 707.080319 -414.080266 
L 707.987029 -409.013393 
L 708.741119 -403.94652 
L 709.353609 -398.879648 
L 709.840613 -393.812775 
L 710.222848 -388.745902 
L 710.526489 -383.679029 
L 710.78439 -378.612157 
L 711.036348 -373.545284 
L 711.327374 -368.478411 
L 711.70372 -363.411538 
L 712.207262 -358.344666 
L 712.869489 -353.277793 
L 713.706457 -348.21092 
L 714.715699 -343.144048 
L 715.875493 -338.077175 
L 717.146264 -333.010302 
L 718.47372 -327.943429 
L 719.793306 -322.876557 
L 721.035818 -317.809684 
L 722.13405 -312.742811 
L 723.030065 -307.675939 
L 723.682152 -302.609066 
L 724.06995 -297.542193 
L 724.196118 -292.47532 
L 724.083443 -287.408448 
L 723.767458 -282.341575 
L 723.286056 -277.274702 
L 722.668713 -272.20783 
L 721.928297 -267.140957 
L 721.057778 -262.074084 
L 720.0328 -257.007211 
L 718.819378 -251.940339 
L 717.384616 -246.873466 
L 715.70761 -241.806593 
L 713.787873 -236.73972 
L 711.649352 -231.672848 
L 709.339333 -226.605975 
L 706.922686 -221.539102 
L 704.472937 -216.47223 
L 702.062232 -211.405357 
L 699.752373 -206.338484 
L 697.588718 -201.271611 
L 695.597902 -196.204739 
L 693.789339 -191.137866 
L 692.15948 -186.070993 
L 690.697263 -181.004121 
L 689.389141 -175.937248 
L 688.222558 -170.870375 
L 687.187484 -165.803502 
L 686.27631 -160.73663 
L 685.482818 -155.669757 
L 684.800987 -150.602884 
L 684.224115 -145.536012 
L 683.744445 -140.469139 
L 683.3532 -135.402266 
L 683.040822 -130.335393 
L 682.797288 -125.268521 
L 682.61241 -120.201648 
L 682.476149 -115.134775 
L 682.378928 -110.067902 
L 682.311961 -105.00103 
z
" style="stroke: #3f3f3f; stroke-width: 1.25"/>
    </defs>
    <g clip-path="url(#p9cf6988771)">
     <use xlink:href="#me39d9873dd" x="0" y="720" style="fill: #3274a1; stroke: #3f3f3f; stroke-width: 1.25"/>
    </g>
   </g>
   <g id="PolyCollection_6">
    <defs>
     <path id="m78742eb810" d="M 793.911898 -105.888872 
L 793.688102 -105.888872 
L 793.619576 -110.937808 
L 793.518939 -115.986745 
L 793.37597 -121.035681 
L 793.178847 -126.084618 
L 792.91424 -131.133554 
L 792.567513 -136.182491 
L 792.123187 -141.231427 
L 791.565802 -146.280364 
L 790.881243 -151.329301 
L 790.058319 -156.378237 
L 789.090109 -161.427174 
L 787.974438 -166.47611 
L 786.712926 -171.525047 
L 785.30862 -176.573983 
L 783.762892 -181.62292 
L 782.072967 -186.671856 
L 780.231606 -191.720793 
L 778.229956 -196.769729 
L 776.063468 -201.818666 
L 773.739474 -206.867602 
L 771.284028 -211.916539 
L 768.745405 -216.965475 
L 766.192423 -222.014412 
L 763.707169 -227.063348 
L 761.373449 -232.112285 
L 759.263677 -237.161221 
L 757.427593 -242.210158 
L 755.885915 -247.259094 
L 754.630795 -252.308031 
L 753.63309 -257.356967 
L 752.854406 -262.405904 
L 752.260329 -267.45484 
L 751.83076 -272.503777 
L 751.564103 -277.552713 
L 751.474065 -282.60165 
L 751.580384 -287.650586 
L 751.896903 -292.699523 
L 752.421286 -297.748459 
L 753.129962 -302.797396 
L 753.979799 -307.846333 
L 754.91558 -312.895269 
L 755.88039 -317.944206 
L 756.825369 -322.993142 
L 757.716066 -328.042079 
L 758.534295 -333.091015 
L 759.27622 -338.139952 
L 759.948524 -343.188888 
L 760.564631 -348.237825 
L 761.142155 -353.286761 
L 761.701642 -358.335698 
L 762.265838 -363.384634 
L 762.858591 -368.433571 
L 763.502973 -373.482507 
L 764.218984 -378.531444 
L 765.021684 -383.58038 
L 765.920538 -388.629317 
L 766.920157 -393.678253 
L 768.021851 -398.72719 
L 769.224933 -403.776126 
L 770.526759 -408.825063 
L 771.921178 -413.873999 
L 773.39594 -418.922936 
L 774.930357 -423.971872 
L 776.494656 -429.020809 
L 778.051998 -434.069745 
L 779.563093 -439.118682 
L 780.992257 -444.167618 
L 782.313075 -449.216555 
L 783.511813 -454.265491 
L 784.587468 -459.314428 
L 785.548576 -464.363365 
L 786.408042 -469.412301 
L 787.177935 -474.461238 
L 787.866107 -479.510174 
L 788.475629 -484.559111 
L 789.006905 -489.608047 
L 789.461259 -494.656984 
L 789.844281 -499.70592 
L 790.167461 -504.754857 
L 790.447399 -509.803793 
L 790.702901 -514.85273 
L 790.951078 -519.901666 
L 791.203861 -524.950603 
L 791.466101 -529.999539 
L 791.735739 -535.048476 
L 792.005753 -540.097412 
L 792.267028 -545.146349 
L 792.511121 -550.195285 
L 792.73212 -555.244222 
L 792.927264 -560.293158 
L 793.0965 -565.342095 
L 793.24147 -570.391031 
L 793.36444 -575.439968 
L 793.467593 -580.488904 
L 793.552754 -585.537841 
L 793.621495 -590.586777 
L 793.67537 -595.635714 
L 793.716117 -600.68465 
L 793.745714 -605.733587 
L 793.854286 -605.733587 
L 793.854286 -605.733587 
L 793.883883 -600.68465 
L 793.92463 -595.635714 
L 793.978505 -590.586777 
L 794.047246 -585.537841 
L 794.132407 -580.488904 
L 794.23556 -575.439968 
L 794.35853 -570.391031 
L 794.5035 -565.342095 
L 794.672736 -560.293158 
L 794.86788 -555.244222 
L 795.088879 -550.195285 
L 795.332972 -545.146349 
L 795.594247 -540.097412 
L 795.864261 -535.048476 
L 796.133899 -529.999539 
L 796.396139 -524.950603 
L 796.648922 -519.901666 
L 796.897099 -514.85273 
L 797.152601 -509.803793 
L 797.432539 -504.754857 
L 797.755719 -499.70592 
L 798.138741 -494.656984 
L 798.593095 -489.608047 
L 799.124371 -484.559111 
L 799.733893 -479.510174 
L 800.422065 -474.461238 
L 801.191958 -469.412301 
L 802.051424 -464.363365 
L 803.012532 -459.314428 
L 804.088187 -454.265491 
L 805.286925 -449.216555 
L 806.607743 -444.167618 
L 808.036907 -439.118682 
L 809.548002 -434.069745 
L 811.105344 -429.020809 
L 812.669643 -423.971872 
L 814.20406 -418.922936 
L 815.678822 -413.873999 
L 817.073241 -408.825063 
L 818.375067 -403.776126 
L 819.578149 -398.72719 
L 820.679843 -393.678253 
L 821.679462 -388.629317 
L 822.578316 -383.58038 
L 823.381016 -378.531444 
L 824.097027 -373.482507 
L 824.741409 -368.433571 
L 825.334162 -363.384634 
L 825.898358 -358.335698 
L 826.457845 -353.286761 
L 827.035369 -348.237825 
L 827.651476 -343.188888 
L 828.32378 -338.139952 
L 829.065705 -333.091015 
L 829.883934 -328.042079 
L 830.774631 -322.993142 
L 831.71961 -317.944206 
L 832.68442 -312.895269 
L 833.620201 -307.846333 
L 834.470038 -302.797396 
L 835.178714 -297.748459 
L 835.703097 -292.699523 
L 836.019616 -287.650586 
L 836.125935 -282.60165 
L 836.035897 -277.552713 
L 835.76924 -272.503777 
L 835.339671 -267.45484 
L 834.745594 -262.405904 
L 833.96691 -257.356967 
L 832.969205 -252.308031 
L 831.714085 -247.259094 
L 830.172407 -242.210158 
L 828.336323 -237.161221 
L 826.226551 -232.112285 
L 823.892831 -227.063348 
L 821.407577 -222.014412 
L 818.854595 -216.965475 
L 816.315972 -211.916539 
L 813.860526 -206.867602 
L 811.536532 -201.818666 
L 809.370044 -196.769729 
L 807.368394 -191.720793 
L 805.527033 -186.671856 
L 803.837108 -181.62292 
L 802.29138 -176.573983 
L 800.887074 -171.525047 
L 799.625562 -166.47611 
L 798.509891 -161.427174 
L 797.541681 -156.378237 
L 796.718757 -151.329301 
L 796.034198 -146.280364 
L 795.476813 -141.231427 
L 795.032487 -136.182491 
L 794.68576 -131.133554 
L 794.421153 -126.084618 
L 794.22403 -121.035681 
L 794.081061 -115.986745 
L 793.980424 -110.937808 
L 793.911898 -105.888872 
z
" style="stroke: #3f3f3f; stroke-width: 1.25"/>
    </defs>
    <g clip-path="url(#p9cf6988771)">
     <use xlink:href="#m78742eb810" x="0" y="720" style="fill: #3274a1; stroke: #3f3f3f; stroke-width: 1.25"/>
    </g>
   </g>
   <g id="PolyCollection_7">
    <defs>
     <path id="mbde929831b" d="M 905.549753 -108.314327 
L 905.250247 -108.314327 
L 905.156164 -113.344408 
L 905.016472 -118.374488 
L 904.81646 -123.404569 
L 904.539903 -128.434649 
L 904.170059 -133.464729 
L 903.690926 -138.49481 
L 903.088568 -143.52489 
L 902.352265 -148.554971 
L 901.475217 -153.585051 
L 900.454555 -158.615131 
L 899.290551 -163.645212 
L 897.985127 -168.675292 
L 896.54001 -173.705373 
L 894.95512 -178.735453 
L 893.227847 -183.765533 
L 891.353753 -188.795614 
L 889.328897 -193.825694 
L 887.153495 -198.855775 
L 884.836219 -203.885855 
L 882.398133 -208.915935 
L 879.875275 -213.946016 
L 877.319115 -218.976096 
L 874.794467 -224.006177 
L 872.374871 -229.036257 
L 870.13589 -234.066337 
L 868.147205 -239.096418 
L 866.464717 -244.126498 
L 865.124158 -249.156579 
L 864.137541 -254.186659 
L 863.493358 -259.216739 
L 863.160516 -264.24682 
L 863.095019 -269.2769 
L 863.247659 -274.306981 
L 863.570752 -279.337061 
L 864.022521 -284.367141 
L 864.568674 -289.397222 
L 865.181834 -294.427302 
L 865.840088 -299.457383 
L 866.525942 -304.487463 
L 867.226318 -309.517543 
L 867.933374 -314.547624 
L 868.645232 -319.577704 
L 869.365562 -324.607785 
L 870.10144 -329.637865 
L 870.859737 -334.667945 
L 871.643121 -339.698026 
L 872.447207 -344.728106 
L 873.26014 -349.758187 
L 874.065123 -354.788267 
L 874.845382 -359.818347 
L 875.590079 -364.848428 
L 876.299358 -369.878508 
L 876.986881 -374.908589 
L 877.678991 -379.938669 
L 878.410602 -384.968749 
L 879.218802 -389.99883 
L 880.135662 -395.02891 
L 881.181873 -400.058991 
L 882.362501 -405.089071 
L 883.665663 -410.119151 
L 885.064277 -415.149232 
L 886.520407 -420.179312 
L 887.991293 -425.209393 
L 889.435831 -430.239473 
L 890.820239 -435.269553 
L 892.121827 -440.299634 
L 893.33023 -445.329714 
L 894.445996 -450.359795 
L 895.477042 -455.389875 
L 896.433989 -460.419955 
L 897.325633 -465.450036 
L 898.155757 -470.480116 
L 898.922116 -475.510197 
L 899.617766 -480.540277 
L 900.234258 -485.570357 
L 900.765604 -490.600438 
L 901.211745 -495.630518 
L 901.580372 -500.660599 
L 901.886497 -505.690679 
L 902.149902 -510.720759 
L 902.391247 -515.75084 
L 902.628026 -520.78092 
L 902.871542 -525.811001 
L 903.12568 -530.841081 
L 903.38763 -535.871161 
L 903.650082 -540.901242 
L 903.904057 -545.931322 
L 904.141449 -550.961403 
L 904.356635 -555.991483 
L 904.546963 -561.021563 
L 904.712289 -566.051644 
L 904.854044 -571.081724 
L 904.974283 -576.111805 
L 905.075044 -581.141885 
L 905.158112 -586.171965 
L 905.225076 -591.202046 
L 905.277533 -596.232126 
L 905.31724 -601.262207 
L 905.346149 -606.292287 
L 905.453851 -606.292287 
L 905.453851 -606.292287 
L 905.48276 -601.262207 
L 905.522467 -596.232126 
L 905.574924 -591.202046 
L 905.641888 -586.171965 
L 905.724956 -581.141885 
L 905.825717 -576.111805 
L 905.945956 -571.081724 
L 906.087711 -566.051644 
L 906.253037 -561.021563 
L 906.443365 -555.991483 
L 906.658551 -550.961403 
L 906.895943 -545.931322 
L 907.149918 -540.901242 
L 907.41237 -535.871161 
L 907.67432 -530.841081 
L 907.928458 -525.811001 
L 908.171974 -520.78092 
L 908.408753 -515.75084 
L 908.650098 -510.720759 
L 908.913503 -505.690679 
L 909.219628 -500.660599 
L 909.588255 -495.630518 
L 910.034396 -490.600438 
L 910.565742 -485.570357 
L 911.182234 -480.540277 
L 911.877884 -475.510197 
L 912.644243 -470.480116 
L 913.474367 -465.450036 
L 914.366011 -460.419955 
L 915.322958 -455.389875 
L 916.354004 -450.359795 
L 917.46977 -445.329714 
L 918.678173 -440.299634 
L 919.979761 -435.269553 
L 921.364169 -430.239473 
L 922.808707 -425.209393 
L 924.279593 -420.179312 
L 925.735723 -415.149232 
L 927.134337 -410.119151 
L 928.437499 -405.089071 
L 929.618127 -400.058991 
L 930.664338 -395.02891 
L 931.581198 -389.99883 
L 932.389398 -384.968749 
L 933.121009 -379.938669 
L 933.813119 -374.908589 
L 934.500642 -369.878508 
L 935.209921 -364.848428 
L 935.954618 -359.818347 
L 936.734877 -354.788267 
L 937.53986 -349.758187 
L 938.352793 -344.728106 
L 939.156879 -339.698026 
L 939.940263 -334.667945 
L 940.69856 -329.637865 
L 941.434438 -324.607785 
L 942.154768 -319.577704 
L 942.866626 -314.547624 
L 943.573682 -309.517543 
L 944.274058 -304.487463 
L 944.959912 -299.457383 
L 945.618166 -294.427302 
L 946.231326 -289.397222 
L 946.777479 -284.367141 
L 947.229248 -279.337061 
L 947.552341 -274.306981 
L 947.704981 -269.2769 
L 947.639484 -264.24682 
L 947.306642 -259.216739 
L 946.662459 -254.186659 
L 945.675842 -249.156579 
L 944.335283 -244.126498 
L 942.652795 -239.096418 
L 940.66411 -234.066337 
L 938.425129 -229.036257 
L 936.005533 -224.006177 
L 933.480885 -218.976096 
L 930.924725 -213.946016 
L 928.401867 -208.915935 
L 925.963781 -203.885855 
L 923.646505 -198.855775 
L 921.471103 -193.825694 
L 919.446247 -188.795614 
L 917.572153 -183.765533 
L 915.84488 -178.735453 
L 914.25999 -173.705373 
L 912.814873 -168.675292 
L 911.509449 -163.645212 
L 910.345445 -158.615131 
L 909.324783 -153.585051 
L 908.447735 -148.554971 
L 907.711432 -143.52489 
L 907.109074 -138.49481 
L 906.629941 -133.464729 
L 906.260097 -128.434649 
L 905.98354 -123.404569 
L 905.783528 -118.374488 
L 905.643836 -113.344408 
L 905.549753 -108.314327 
z
" style="stroke: #3f3f3f; stroke-width: 1.25"/>
    </defs>
    <g clip-path="url(#p9cf6988771)">
     <use xlink:href="#mbde929831b" x="0" y="720" style="fill: #3274a1; stroke: #3f3f3f; stroke-width: 1.25"/>
    </g>
   </g>
   <g id="PolyCollection_8">
    <defs>
     <path id="m8aaf13f895" d="M 1017.138809 -105.105879 
L 1016.861191 -105.105879 
L 1016.773244 -110.166146 
L 1016.642637 -115.226414 
L 1016.455759 -120.286681 
L 1016.197576 -125.346948 
L 1015.852316 -130.407216 
L 1015.404179 -135.467483 
L 1014.837912 -140.52775 
L 1014.139095 -145.588018 
L 1013.294127 -150.648285 
L 1012.289938 -155.708552 
L 1011.113629 -160.76882 
L 1009.752332 -165.829087 
L 1008.19361 -170.889354 
L 1006.426753 -175.949622 
L 1004.445151 -181.009889 
L 1002.249643 -186.070156 
L 999.852349 -191.130424 
L 997.280092 -196.190691 
L 994.576339 -201.250958 
L 991.800713 -206.311226 
L 989.025723 -211.371493 
L 986.331065 -216.431761 
L 983.796558 -221.492028 
L 981.495001 -226.552295 
L 979.48607 -231.612563 
L 977.811819 -236.67283 
L 976.493884 -241.733097 
L 975.532352 -246.793365 
L 974.906474 -251.853632 
L 974.577635 -256.913899 
L 974.494888 -261.974167 
L 974.602644 -267.034434 
L 974.849092 -272.094701 
L 975.19315 -277.154969 
L 975.607822 -282.215236 
L 976.078971 -287.275503 
L 976.600327 -292.335771 
L 977.167118 -297.396038 
L 977.771332 -302.456305 
L 978.400752 -307.516573 
L 979.042089 -312.57684 
L 979.68653 -317.637107 
L 980.334826 -322.697375 
L 980.999283 -327.757642 
L 981.701442 -332.817909 
L 982.466169 -337.878177 
L 983.314397 -342.938444 
L 984.257163 -347.998712 
L 985.292875 -353.058979 
L 986.408361 -358.119246 
L 987.582859 -363.179514 
L 988.793319 -368.239781 
L 990.019319 -373.300048 
L 991.246385 -378.360316 
L 992.467202 -383.420583 
L 993.680797 -388.48085 
L 994.890146 -393.541118 
L 996.098949 -398.601385 
L 997.308404 -403.661652 
L 998.514854 -408.72192 
L 999.709032 -413.782187 
L 1000.87722 -418.842454 
L 1002.004071 -423.902722 
L 1003.076327 -428.962989 
L 1004.086289 -434.023256 
L 1005.033935 -439.083524 
L 1005.926961 -444.143791 
L 1006.778608 -449.204058 
L 1007.603768 -454.264326 
L 1008.414398 -459.324593 
L 1009.215458 -464.38486 
L 1010.00256 -469.445128 
L 1010.76209 -474.505395 
L 1011.473947 -479.565663 
L 1012.116332 -484.62593 
L 1012.671359 -489.686197 
L 1013.129966 -494.746465 
L 1013.494702 -499.806732 
L 1013.779578 -504.866999 
L 1014.007006 -509.927267 
L 1014.20276 -514.987534 
L 1014.39045 -520.047801 
L 1014.587063 -525.108069 
L 1014.800687 -530.168336 
L 1015.030759 -535.228603 
L 1015.270351 -540.288871 
L 1015.509484 -545.349138 
L 1015.738316 -550.409405 
L 1015.94935 -555.469673 
L 1016.138308 -560.52994 
L 1016.303849 -565.590207 
L 1016.446623 -570.650475 
L 1016.56822 -575.710742 
L 1016.670411 -580.771009 
L 1016.754818 -585.831277 
L 1016.822935 -590.891544 
L 1016.8763 -595.951811 
L 1016.916658 -601.012079 
L 1016.945984 -606.072346 
L 1017.054016 -606.072346 
L 1017.054016 -606.072346 
L 1017.083342 -601.012079 
L 1017.1237 -595.951811 
L 1017.177065 -590.891544 
L 1017.245182 -585.831277 
L 1017.329589 -580.771009 
L 1017.43178 -575.710742 
L 1017.553377 -570.650475 
L 1017.696151 -565.590207 
L 1017.861692 -560.52994 
L 1018.05065 -555.469673 
L 1018.261684 -550.409405 
L 1018.490516 -545.349138 
L 1018.729649 -540.288871 
L 1018.969241 -535.228603 
L 1019.199313 -530.168336 
L 1019.412937 -525.108069 
L 1019.60955 -520.047801 
L 1019.79724 -514.987534 
L 1019.992994 -509.927267 
L 1020.220422 -504.866999 
L 1020.505298 -499.806732 
L 1020.870034 -494.746465 
L 1021.328641 -489.686197 
L 1021.883668 -484.62593 
L 1022.526053 -479.565663 
L 1023.23791 -474.505395 
L 1023.99744 -469.445128 
L 1024.784542 -464.38486 
L 1025.585602 -459.324593 
L 1026.396232 -454.264326 
L 1027.221392 -449.204058 
L 1028.073039 -444.143791 
L 1028.966065 -439.083524 
L 1029.913711 -434.023256 
L 1030.923673 -428.962989 
L 1031.995929 -423.902722 
L 1033.12278 -418.842454 
L 1034.290968 -413.782187 
L 1035.485146 -408.72192 
L 1036.691596 -403.661652 
L 1037.901051 -398.601385 
L 1039.109854 -393.541118 
L 1040.319203 -388.48085 
L 1041.532798 -383.420583 
L 1042.753615 -378.360316 
L 1043.980681 -373.300048 
L 1045.206681 -368.239781 
L 1046.417141 -363.179514 
L 1047.591639 -358.119246 
L 1048.707125 -353.058979 
L 1049.742837 -347.998712 
L 1050.685603 -342.938444 
L 1051.533831 -337.878177 
L 1052.298558 -332.817909 
L 1053.000717 -327.757642 
L 1053.665174 -322.697375 
L 1054.31347 -317.637107 
L 1054.957911 -312.57684 
L 1055.599248 -307.516573 
L 1056.228668 -302.456305 
L 1056.832882 -297.396038 
L 1057.399673 -292.335771 
L 1057.921029 -287.275503 
L 1058.392178 -282.215236 
L 1058.80685 -277.154969 
L 1059.150908 -272.094701 
L 1059.397356 -267.034434 
L 1059.505112 -261.974167 
L 1059.422365 -256.913899 
L 1059.093526 -251.853632 
L 1058.467648 -246.793365 
L 1057.506116 -241.733097 
L 1056.188181 -236.67283 
L 1054.51393 -231.612563 
L 1052.504999 -226.552295 
L 1050.203442 -221.492028 
L 1047.668935 -216.431761 
L 1044.974277 -211.371493 
L 1042.199287 -206.311226 
L 1039.423661 -201.250958 
L 1036.719908 -196.190691 
L 1034.147651 -191.130424 
L 1031.750357 -186.070156 
L 1029.554849 -181.009889 
L 1027.573247 -175.949622 
L 1025.80639 -170.889354 
L 1024.247668 -165.829087 
L 1022.886371 -160.76882 
L 1021.710062 -155.708552 
L 1020.705873 -150.648285 
L 1019.860905 -145.588018 
L 1019.162088 -140.52775 
L 1018.595821 -135.467483 
L 1018.147684 -130.407216 
L 1017.802424 -125.346948 
L 1017.544241 -120.286681 
L 1017.357363 -115.226414 
L 1017.226756 -110.166146 
L 1017.138809 -105.105879 
z
" style="stroke: #3f3f3f; stroke-width: 1.25"/>
    </defs>
    <g clip-path="url(#p9cf6988771)">
     <use xlink:href="#m8aaf13f895" x="0" y="720" style="fill: #3274a1; stroke: #3f3f3f; stroke-width: 1.25"/>
    </g>
   </g>
   <g id="PolyCollection_9">
    <defs>
     <path id="m88261100cc" d="M 1128.750385 -104.4 
L 1128.449615 -104.4 
L 1128.352619 -109.474528 
L 1128.206903 -114.549055 
L 1127.995898 -119.623583 
L 1127.701063 -124.69811 
L 1127.30309 -129.772638 
L 1126.783478 -134.847165 
L 1126.126256 -139.921693 
L 1125.319421 -144.99622 
L 1124.355666 -150.070748 
L 1123.231988 -155.145275 
L 1121.948062 -160.219803 
L 1120.503683 -165.29433 
L 1118.896051 -170.368858 
L 1117.118012 -175.443385 
L 1115.158393 -180.517913 
L 1113.005071 -185.59244 
L 1110.650614 -190.666968 
L 1108.099388 -195.741495 
L 1105.374292 -200.816023 
L 1102.521171 -205.890551 
L 1099.609406 -210.965078 
L 1096.728123 -216.039606 
L 1093.978471 -221.114133 
L 1091.463231 -226.188661 
L 1089.275396 -231.263188 
L 1087.487438 -236.337716 
L 1086.142849 -241.412243 
L 1085.251321 -246.486771 
L 1084.788585 -251.561298 
L 1084.701318 -256.635826 
L 1084.91655 -261.710353 
L 1085.353856 -266.784881 
L 1085.937711 -271.859408 
L 1086.607104 -276.933936 
L 1087.320291 -282.008463 
L 1088.054064 -287.082991 
L 1088.79878 -292.157518 
L 1089.551743 -297.232046 
L 1090.311806 -302.306574 
L 1091.077191 -307.381101 
L 1091.846814 -312.455629 
L 1092.623672 -317.530156 
L 1093.417862 -322.604684 
L 1094.24695 -327.679211 
L 1095.132631 -332.753739 
L 1096.09436 -337.828266 
L 1097.14204 -342.902794 
L 1098.270454 -347.977321 
L 1099.457606 -353.051849 
L 1100.667836 -358.126376 
L 1101.858983 -363.200904 
L 1102.991671 -368.275431 
L 1104.038196 -373.349959 
L 1104.988732 -378.424486 
L 1105.853359 -383.499014 
L 1106.65949 -388.573541 
L 1107.445376 -393.648069 
L 1108.251257 -398.722597 
L 1109.110265 -403.797124 
L 1110.041249 -408.871652 
L 1111.045242 -413.946179 
L 1112.106352 -419.020707 
L 1113.196709 -424.095234 
L 1114.284002 -429.169762 
L 1115.339463 -434.244289 
L 1116.344096 -439.318817 
L 1117.291556 -444.393344 
L 1118.187108 -449.467872 
L 1119.043265 -454.542399 
L 1119.873605 -459.616927 
L 1120.686737 -464.691454 
L 1121.482208 -469.765982 
L 1122.249536 -474.840509 
L 1122.970554 -479.915037 
L 1123.624314 -484.989564 
L 1124.193021 -490.064092 
L 1124.667233 -495.13862 
L 1125.048809 -500.213147 
L 1125.350814 -505.287675 
L 1125.594529 -510.362202 
L 1125.804545 -515.43673 
L 1126.003464 -520.511257 
L 1126.207673 -525.585785 
L 1126.425218 -530.660312 
L 1126.656043 -535.73484 
L 1126.894115 -540.809367 
L 1127.130476 -545.883895 
L 1127.356172 -550.958422 
L 1127.564295 -556.03295 
L 1127.750816 -561.107477 
L 1127.914374 -566.182005 
L 1128.055466 -571.256532 
L 1128.175523 -576.33106 
L 1128.276229 -581.405587 
L 1128.35921 -586.480115 
L 1128.426022 -591.554643 
L 1128.478282 -596.62917 
L 1128.517786 -601.703698 
L 1128.546517 -606.778225 
L 1128.653483 -606.778225 
L 1128.653483 -606.778225 
L 1128.682214 -601.703698 
L 1128.721718 -596.62917 
L 1128.773978 -591.554643 
L 1128.84079 -586.480115 
L 1128.923771 -581.405587 
L 1129.024477 -576.33106 
L 1129.144534 -571.256532 
L 1129.285626 -566.182005 
L 1129.449184 -561.107477 
L 1129.635705 -556.03295 
L 1129.843828 -550.958422 
L 1130.069524 -545.883895 
L 1130.305885 -540.809367 
L 1130.543957 -535.73484 
L 1130.774782 -530.660312 
L 1130.992327 -525.585785 
L 1131.196536 -520.511257 
L 1131.395455 -515.43673 
L 1131.605471 -510.362202 
L 1131.849186 -505.287675 
L 1132.151191 -500.213147 
L 1132.532767 -495.13862 
L 1133.006979 -490.064092 
L 1133.575686 -484.989564 
L 1134.229446 -479.915037 
L 1134.950464 -474.840509 
L 1135.717792 -469.765982 
L 1136.513263 -464.691454 
L 1137.326395 -459.616927 
L 1138.156735 -454.542399 
L 1139.012892 -449.467872 
L 1139.908444 -444.393344 
L 1140.855904 -439.318817 
L 1141.860537 -434.244289 
L 1142.915998 -429.169762 
L 1144.003291 -424.095234 
L 1145.093648 -419.020707 
L 1146.154758 -413.946179 
L 1147.158751 -408.871652 
L 1148.089735 -403.797124 
L 1148.948743 -398.722597 
L 1149.754624 -393.648069 
L 1150.54051 -388.573541 
L 1151.346641 -383.499014 
L 1152.211268 -378.424486 
L 1153.161804 -373.349959 
L 1154.208329 -368.275431 
L 1155.341017 -363.200904 
L 1156.532164 -358.126376 
L 1157.742394 -353.051849 
L 1158.929546 -347.977321 
L 1160.05796 -342.902794 
L 1161.10564 -337.828266 
L 1162.067369 -332.753739 
L 1162.95305 -327.679211 
L 1163.782138 -322.604684 
L 1164.576328 -317.530156 
L 1165.353186 -312.455629 
L 1166.122809 -307.381101 
L 1166.888194 -302.306574 
L 1167.648257 -297.232046 
L 1168.40122 -292.157518 
L 1169.145936 -287.082991 
L 1169.879709 -282.008463 
L 1170.592896 -276.933936 
L 1171.262289 -271.859408 
L 1171.846144 -266.784881 
L 1172.28345 -261.710353 
L 1172.498682 -256.635826 
L 1172.411415 -251.561298 
L 1171.948679 -246.486771 
L 1171.057151 -241.412243 
L 1169.712562 -236.337716 
L 1167.924604 -231.263188 
L 1165.736769 -226.188661 
L 1163.221529 -221.114133 
L 1160.471877 -216.039606 
L 1157.590594 -210.965078 
L 1154.678829 -205.890551 
L 1151.825708 -200.816023 
L 1149.100612 -195.741495 
L 1146.549386 -190.666968 
L 1144.194929 -185.59244 
L 1142.041607 -180.517913 
L 1140.081988 -175.443385 
L 1138.303949 -170.368858 
L 1136.696317 -165.29433 
L 1135.251938 -160.219803 
L 1133.968012 -155.145275 
L 1132.844334 -150.070748 
L 1131.880579 -144.99622 
L 1131.073744 -139.921693 
L 1130.416522 -134.847165 
L 1129.89691 -129.772638 
L 1129.498937 -124.69811 
L 1129.204102 -119.623583 
L 1128.993097 -114.549055 
L 1128.847381 -109.474528 
L 1128.750385 -104.4 
z
" style="stroke: #3f3f3f; stroke-width: 1.25"/>
    </defs>
    <g clip-path="url(#p9cf6988771)">
     <use xlink:href="#m88261100cc" x="0" y="720" style="fill: #3274a1; stroke: #3f3f3f; stroke-width: 1.25"/>
    </g>
   </g>
   <g id="PolyCollection_10">
    <defs>
     <path id="m6c1172e170" d="M 1240.376171 -104.776902 
L 1240.023829 -104.776902 
L 1239.908627 -109.843816 
L 1239.735426 -114.910729 
L 1239.485147 -119.977642 
L 1239.137175 -125.044556 
L 1238.671071 -130.111469 
L 1238.068532 -135.178382 
L 1237.315154 -140.245296 
L 1236.401447 -145.312209 
L 1235.322666 -150.379122 
L 1234.077327 -155.446036 
L 1232.664787 -160.512949 
L 1231.082698 -165.579862 
L 1229.325487 -170.646776 
L 1227.384911 -175.713689 
L 1225.253201 -180.780602 
L 1222.928417 -185.847516 
L 1220.420753 -190.914429 
L 1217.757873 -195.981342 
L 1214.987434 -201.048256 
L 1212.17559 -206.115169 
L 1209.401445 -211.182082 
L 1206.748568 -216.248996 
L 1204.295475 -221.315909 
L 1202.107089 -226.382822 
L 1200.228782 -231.449736 
L 1198.683829 -236.516649 
L 1197.474331 -241.583563 
L 1196.585107 -246.650476 
L 1195.989706 -251.717389 
L 1195.657425 -256.784303 
L 1195.56 -261.851216 
L 1195.676575 -266.918129 
L 1195.995639 -271.985043 
L 1196.513266 -277.051956 
L 1197.227918 -282.118869 
L 1198.133232 -287.185783 
L 1199.211071 -292.252696 
L 1200.427356 -297.319609 
L 1201.73259 -302.386523 
L 1203.067618 -307.453436 
L 1204.373503 -312.520349 
L 1205.60286 -317.587263 
L 1206.729328 -322.654176 
L 1207.752112 -327.721089 
L 1208.693975 -332.788003 
L 1209.592993 -337.854916 
L 1210.490425 -342.921829 
L 1211.418289 -347.988743 
L 1212.390359 -353.055656 
L 1213.399222 -358.122569 
L 1214.42009 -363.189483 
L 1215.419966 -368.256396 
L 1216.369159 -373.323309 
L 1217.251524 -378.390223 
L 1218.07032 -383.457136 
L 1218.848019 -388.524049 
L 1219.620264 -393.590963 
L 1220.425925 -398.657876 
L 1221.296304 -403.724789 
L 1222.246669 -408.791703 
L 1223.272491 -413.858616 
L 1224.351229 -418.925529 
L 1225.44885 -423.992443 
L 1226.528852 -429.059356 
L 1227.561056 -434.126269 
L 1228.527686 -439.193183 
L 1229.425335 -444.260096 
L 1230.262758 -449.327009 
L 1231.05567 -454.393923 
L 1231.820408 -459.460836 
L 1232.5684 -464.527749 
L 1233.302859 -469.594663 
L 1234.018328 -474.661576 
L 1234.702805 -479.728489 
L 1235.341556 -484.795403 
L 1235.921357 -489.862316 
L 1236.433972 -494.929229 
L 1236.877988 -499.996143 
L 1237.258689 -505.063056 
L 1237.58621 -510.129969 
L 1237.87271 -515.196883 
L 1238.129476 -520.263796 
L 1238.364828 -525.330709 
L 1238.583294 -530.397623 
L 1238.786091 -535.464536 
L 1238.972469 -540.531449 
L 1239.141297 -545.598363 
L 1239.292264 -550.665276 
L 1239.426351 -555.732189 
L 1239.545585 -560.799103 
L 1239.652336 -565.866016 
L 1239.748562 -570.932929 
L 1239.835337 -575.999843 
L 1239.912807 -581.066756 
L 1239.980502 -586.133669 
L 1240.037837 -591.200583 
L 1240.084557 -596.267496 
L 1240.121002 -601.334409 
L 1240.148132 -606.401323 
L 1240.251868 -606.401323 
L 1240.251868 -606.401323 
L 1240.278998 -601.334409 
L 1240.315443 -596.267496 
L 1240.362163 -591.200583 
L 1240.419498 -586.133669 
L 1240.487193 -581.066756 
L 1240.564663 -575.999843 
L 1240.651438 -570.932929 
L 1240.747664 -565.866016 
L 1240.854415 -560.799103 
L 1240.973649 -555.732189 
L 1241.107736 -550.665276 
L 1241.258703 -545.598363 
L 1241.427531 -540.531449 
L 1241.613909 -535.464536 
L 1241.816706 -530.397623 
L 1242.035172 -525.330709 
L 1242.270524 -520.263796 
L 1242.52729 -515.196883 
L 1242.81379 -510.129969 
L 1243.141311 -505.063056 
L 1243.522012 -499.996143 
L 1243.966028 -494.929229 
L 1244.478643 -489.862316 
L 1245.058444 -484.795403 
L 1245.697195 -479.728489 
L 1246.381672 -474.661576 
L 1247.097141 -469.594663 
L 1247.8316 -464.527749 
L 1248.579592 -459.460836 
L 1249.34433 -454.393923 
L 1250.137242 -449.327009 
L 1250.974665 -444.260096 
L 1251.872314 -439.193183 
L 1252.838944 -434.126269 
L 1253.871148 -429.059356 
L 1254.95115 -423.992443 
L 1256.048771 -418.925529 
L 1257.127509 -413.858616 
L 1258.153331 -408.791703 
L 1259.103696 -403.724789 
L 1259.974075 -398.657876 
L 1260.779736 -393.590963 
L 1261.551981 -388.524049 
L 1262.32968 -383.457136 
L 1263.148476 -378.390223 
L 1264.030841 -373.323309 
L 1264.980034 -368.256396 
L 1265.97991 -363.189483 
L 1267.000778 -358.122569 
L 1268.009641 -353.055656 
L 1268.981711 -347.988743 
L 1269.909575 -342.921829 
L 1270.807007 -337.854916 
L 1271.706025 -332.788003 
L 1272.647888 -327.721089 
L 1273.670672 -322.654176 
L 1274.79714 -317.587263 
L 1276.026497 -312.520349 
L 1277.332382 -307.453436 
L 1278.66741 -302.386523 
L 1279.972644 -297.319609 
L 1281.188929 -292.252696 
L 1282.266768 -287.185783 
L 1283.172082 -282.118869 
L 1283.886734 -277.051956 
L 1284.404361 -271.985043 
L 1284.723425 -266.918129 
L 1284.84 -261.851216 
L 1284.742575 -256.784303 
L 1284.410294 -251.717389 
L 1283.814893 -246.650476 
L 1282.925669 -241.583563 
L 1281.716171 -236.516649 
L 1280.171218 -231.449736 
L 1278.292911 -226.382822 
L 1276.104525 -221.315909 
L 1273.651432 -216.248996 
L 1270.998555 -211.182082 
L 1268.22441 -206.115169 
L 1265.412566 -201.048256 
L 1262.642127 -195.981342 
L 1259.979247 -190.914429 
L 1257.471583 -185.847516 
L 1255.146799 -180.780602 
L 1253.015089 -175.713689 
L 1251.074513 -170.646776 
L 1249.317302 -165.579862 
L 1247.735213 -160.512949 
L 1246.322673 -155.446036 
L 1245.077334 -150.379122 
L 1243.998553 -145.312209 
L 1243.084846 -140.245296 
L 1242.331468 -135.178382 
L 1241.728929 -130.111469 
L 1241.262825 -125.044556 
L 1240.914853 -119.977642 
L 1240.664574 -114.910729 
L 1240.491373 -109.843816 
L 1240.376171 -104.776902 
z
" style="stroke: #3f3f3f; stroke-width: 1.25"/>
    </defs>
    <g clip-path="url(#p9cf6988771)">
     <use xlink:href="#m6c1172e170" x="0" y="720" style="fill: #3274a1; stroke: #3f3f3f; stroke-width: 1.25"/>
    </g>
   </g>
   <g id="matplotlib.axis_1">
    <g id="xtick_1">
     <g id="line2d_1">
      <defs>
       <path id="m961e9bad28" d="M 0 0 
L 0 3.5 
" style="stroke: #000000; stroke-width: 0.8"/>
      </defs>
      <g>
       <use xlink:href="#m961e9bad28" x="235.8" y="640.8" style="stroke: #000000; stroke-width: 0.8"/>
      </g>
     </g>
     <g id="text_1">
      <!-- 0 -->
      <g transform="translate(232.61875 655.398438) scale(0.1 -0.1)">
       <defs>
        <path id="DejaVuSans-30" d="M 2034 4250 
Q 1547 4250 1301 3770 
Q 1056 3291 1056 2328 
Q 1056 1369 1301 889 
Q 1547 409 2034 409 
Q 2525 409 2770 889 
Q 3016 1369 3016 2328 
Q 3016 3291 2770 3770 
Q 2525 4250 2034 4250 
z
M 2034 4750 
Q 2819 4750 3233 4129 
Q 3647 3509 3647 2328 
Q 3647 1150 3233 529 
Q 2819 -91 2034 -91 
Q 1250 -91 836 529 
Q 422 1150 422 2328 
Q 422 3509 836 4129 
Q 1250 4750 2034 4750 
z
" transform="scale(0.015625)"/>
       </defs>
       <use xlink:href="#DejaVuSans-30"/>
      </g>
     </g>
    </g>
    <g id="xtick_2">
     <g id="line2d_2">
      <g>
       <use xlink:href="#m961e9bad28" x="347.4" y="640.8" style="stroke: #000000; stroke-width: 0.8"/>
      </g>
     </g>
     <g id="text_2">
      <!-- 1 -->
      <g transform="translate(344.21875 655.398438) scale(0.1 -0.1)">
       <defs>
        <path id="DejaVuSans-31" d="M 794 531 
L 1825 531 
L 1825 4091 
L 703 3866 
L 703 4441 
L 1819 4666 
L 2450 4666 
L 2450 531 
L 3481 531 
L 3481 0 
L 794 0 
L 794 531 
z
" transform="scale(0.015625)"/>
       </defs>
       <use xlink:href="#DejaVuSans-31"/>
      </g>
     </g>
    </g>
    <g id="xtick_3">
     <g id="line2d_3">
      <g>
       <use xlink:href="#m961e9bad28" x="459" y="640.8" style="stroke: #000000; stroke-width: 0.8"/>
      </g>
     </g>
     <g id="text_3">
      <!-- 2 -->
      <g transform="translate(455.81875 655.398438) scale(0.1 -0.1)">
       <defs>
        <path id="DejaVuSans-32" d="M 1228 531 
L 3431 531 
L 3431 0 
L 469 0 
L 469 531 
Q 828 903 1448 1529 
Q 2069 2156 2228 2338 
Q 2531 2678 2651 2914 
Q 2772 3150 2772 3378 
Q 2772 3750 2511 3984 
Q 2250 4219 1831 4219 
Q 1534 4219 1204 4116 
Q 875 4013 500 3803 
L 500 4441 
Q 881 4594 1212 4672 
Q 1544 4750 1819 4750 
Q 2544 4750 2975 4387 
Q 3406 4025 3406 3419 
Q 3406 3131 3298 2873 
Q 3191 2616 2906 2266 
Q 2828 2175 2409 1742 
Q 1991 1309 1228 531 
z
" transform="scale(0.015625)"/>
       </defs>
       <use xlink:href="#DejaVuSans-32"/>
      </g>
     </g>
    </g>
    <g id="xtick_4">
     <g id="line2d_4">
      <g>
       <use xlink:href="#m961e9bad28" x="570.6" y="640.8" style="stroke: #000000; stroke-width: 0.8"/>
      </g>
     </g>
     <g id="text_4">
      <!-- 3 -->
      <g transform="translate(567.41875 655.398438) scale(0.1 -0.1)">
       <defs>
        <path id="DejaVuSans-33" d="M 2597 2516 
Q 3050 2419 3304 2112 
Q 3559 1806 3559 1356 
Q 3559 666 3084 287 
Q 2609 -91 1734 -91 
Q 1441 -91 1130 -33 
Q 819 25 488 141 
L 488 750 
Q 750 597 1062 519 
Q 1375 441 1716 441 
Q 2309 441 2620 675 
Q 2931 909 2931 1356 
Q 2931 1769 2642 2001 
Q 2353 2234 1838 2234 
L 1294 2234 
L 1294 2753 
L 1863 2753 
Q 2328 2753 2575 2939 
Q 2822 3125 2822 3475 
Q 2822 3834 2567 4026 
Q 2313 4219 1838 4219 
Q 1578 4219 1281 4162 
Q 984 4106 628 3988 
L 628 4550 
Q 988 4650 1302 4700 
Q 1616 4750 1894 4750 
Q 2613 4750 3031 4423 
Q 3450 4097 3450 3541 
Q 3450 3153 3228 2886 
Q 3006 2619 2597 2516 
z
" transform="scale(0.015625)"/>
       </defs>
       <use xlink:href="#DejaVuSans-33"/>
      </g>
     </g>
    </g>
    <g id="xtick_5">
     <g id="line2d_5">
      <g>
       <use xlink:href="#m961e9bad28" x="682.2" y="640.8" style="stroke: #000000; stroke-width: 0.8"/>
      </g>
     </g>
     <g id="text_5">
      <!-- 4 -->
      <g transform="translate(679.01875 655.398438) scale(0.1 -0.1)">
       <defs>
        <path id="DejaVuSans-34" d="M 2419 4116 
L 825 1625 
L 2419 1625 
L 2419 4116 
z
M 2253 4666 
L 3047 4666 
L 3047 1625 
L 3713 1625 
L 3713 1100 
L 3047 1100 
L 3047 0 
L 2419 0 
L 2419 1100 
L 313 1100 
L 313 1709 
L 2253 4666 
z
" transform="scale(0.015625)"/>
       </defs>
       <use xlink:href="#DejaVuSans-34"/>
      </g>
     </g>
    </g>
    <g id="xtick_6">
     <g id="line2d_6">
      <g>
       <use xlink:href="#m961e9bad28" x="793.8" y="640.8" style="stroke: #000000; stroke-width: 0.8"/>
      </g>
     </g>
     <g id="text_6">
      <!-- 5 -->
      <g transform="translate(790.61875 655.398438) scale(0.1 -0.1)">
       <defs>
        <path id="DejaVuSans-35" d="M 691 4666 
L 3169 4666 
L 3169 4134 
L 1269 4134 
L 1269 2991 
Q 1406 3038 1543 3061 
Q 1681 3084 1819 3084 
Q 2600 3084 3056 2656 
Q 3513 2228 3513 1497 
Q 3513 744 3044 326 
Q 2575 -91 1722 -91 
Q 1428 -91 1123 -41 
Q 819 9 494 109 
L 494 744 
Q 775 591 1075 516 
Q 1375 441 1709 441 
Q 2250 441 2565 725 
Q 2881 1009 2881 1497 
Q 2881 1984 2565 2268 
Q 2250 2553 1709 2553 
Q 1456 2553 1204 2497 
Q 953 2441 691 2322 
L 691 4666 
z
" transform="scale(0.015625)"/>
       </defs>
       <use xlink:href="#DejaVuSans-35"/>
      </g>
     </g>
    </g>
    <g id="xtick_7">
     <g id="line2d_7">
      <g>
       <use xlink:href="#m961e9bad28" x="905.4" y="640.8" style="stroke: #000000; stroke-width: 0.8"/>
      </g>
     </g>
     <g id="text_7">
      <!-- 6 -->
      <g transform="translate(902.21875 655.398438) scale(0.1 -0.1)">
       <defs>
        <path id="DejaVuSans-36" d="M 2113 2584 
Q 1688 2584 1439 2293 
Q 1191 2003 1191 1497 
Q 1191 994 1439 701 
Q 1688 409 2113 409 
Q 2538 409 2786 701 
Q 3034 994 3034 1497 
Q 3034 2003 2786 2293 
Q 2538 2584 2113 2584 
z
M 3366 4563 
L 3366 3988 
Q 3128 4100 2886 4159 
Q 2644 4219 2406 4219 
Q 1781 4219 1451 3797 
Q 1122 3375 1075 2522 
Q 1259 2794 1537 2939 
Q 1816 3084 2150 3084 
Q 2853 3084 3261 2657 
Q 3669 2231 3669 1497 
Q 3669 778 3244 343 
Q 2819 -91 2113 -91 
Q 1303 -91 875 529 
Q 447 1150 447 2328 
Q 447 3434 972 4092 
Q 1497 4750 2381 4750 
Q 2619 4750 2861 4703 
Q 3103 4656 3366 4563 
z
" transform="scale(0.015625)"/>
       </defs>
       <use xlink:href="#DejaVuSans-36"/>
      </g>
     </g>
    </g>
    <g id="xtick_8">
     <g id="line2d_8">
      <g>
       <use xlink:href="#m961e9bad28" x="1017" y="640.8" style="stroke: #000000; stroke-width: 0.8"/>
      </g>
     </g>
     <g id="text_8">
      <!-- 7 -->
      <g transform="translate(1013.81875 655.398438) scale(0.1 -0.1)">
       <defs>
        <path id="DejaVuSans-37" d="M 525 4666 
L 3525 4666 
L 3525 4397 
L 1831 0 
L 1172 0 
L 2766 4134 
L 525 4134 
L 525 4666 
z
" transform="scale(0.015625)"/>
       </defs>
       <use xlink:href="#DejaVuSans-37"/>
      </g>
     </g>
    </g>
    <g id="xtick_9">
     <g id="line2d_9">
      <g>
       <use xlink:href="#m961e9bad28" x="1128.6" y="640.8" style="stroke: #000000; stroke-width: 0.8"/>
      </g>
     </g>
     <g id="text_9">
      <!-- 8 -->
      <g transform="translate(1125.41875 655.398438) scale(0.1 -0.1)">
       <defs>
        <path id="DejaVuSans-38" d="M 2034 2216 
Q 1584 2216 1326 1975 
Q 1069 1734 1069 1313 
Q 1069 891 1326 650 
Q 1584 409 2034 409 
Q 2484 409 2743 651 
Q 3003 894 3003 1313 
Q 3003 1734 2745 1975 
Q 2488 2216 2034 2216 
z
M 1403 2484 
Q 997 2584 770 2862 
Q 544 3141 544 3541 
Q 544 4100 942 4425 
Q 1341 4750 2034 4750 
Q 2731 4750 3128 4425 
Q 3525 4100 3525 3541 
Q 3525 3141 3298 2862 
Q 3072 2584 2669 2484 
Q 3125 2378 3379 2068 
Q 3634 1759 3634 1313 
Q 3634 634 3220 271 
Q 2806 -91 2034 -91 
Q 1263 -91 848 271 
Q 434 634 434 1313 
Q 434 1759 690 2068 
Q 947 2378 1403 2484 
z
M 1172 3481 
Q 1172 3119 1398 2916 
Q 1625 2713 2034 2713 
Q 2441 2713 2670 2916 
Q 2900 3119 2900 3481 
Q 2900 3844 2670 4047 
Q 2441 4250 2034 4250 
Q 1625 4250 1398 4047 
Q 1172 3844 1172 3481 
z
" transform="scale(0.015625)"/>
       </defs>
       <use xlink:href="#DejaVuSans-38"/>
      </g>
     </g>
    </g>
    <g id="xtick_10">
     <g id="line2d_10">
      <g>
       <use xlink:href="#m961e9bad28" x="1240.2" y="640.8" style="stroke: #000000; stroke-width: 0.8"/>
      </g>
     </g>
     <g id="text_10">
      <!-- 9 -->
      <g transform="translate(1237.01875 655.398438) scale(0.1 -0.1)">
       <defs>
        <path id="DejaVuSans-39" d="M 703 97 
L 703 672 
Q 941 559 1184 500 
Q 1428 441 1663 441 
Q 2288 441 2617 861 
Q 2947 1281 2994 2138 
Q 2813 1869 2534 1725 
Q 2256 1581 1919 1581 
Q 1219 1581 811 2004 
Q 403 2428 403 3163 
Q 403 3881 828 4315 
Q 1253 4750 1959 4750 
Q 2769 4750 3195 4129 
Q 3622 3509 3622 2328 
Q 3622 1225 3098 567 
Q 2575 -91 1691 -91 
Q 1453 -91 1209 -44 
Q 966 3 703 97 
z
M 1959 2075 
Q 2384 2075 2632 2365 
Q 2881 2656 2881 3163 
Q 2881 3666 2632 3958 
Q 2384 4250 1959 4250 
Q 1534 4250 1286 3958 
Q 1038 3666 1038 3163 
Q 1038 2656 1286 2365 
Q 1534 2075 1959 2075 
z
" transform="scale(0.015625)"/>
       </defs>
       <use xlink:href="#DejaVuSans-39"/>
      </g>
     </g>
    </g>
    <g id="text_11">
     <!-- iteration -->
     <g transform="translate(716.877344 669.076563) scale(0.1 -0.1)">
      <defs>
       <path id="DejaVuSans-69" d="M 603 3500 
L 1178 3500 
L 1178 0 
L 603 0 
L 603 3500 
z
M 603 4863 
L 1178 4863 
L 1178 4134 
L 603 4134 
L 603 4863 
z
" transform="scale(0.015625)"/>
       <path id="DejaVuSans-74" d="M 1172 4494 
L 1172 3500 
L 2356 3500 
L 2356 3053 
L 1172 3053 
L 1172 1153 
Q 1172 725 1289 603 
Q 1406 481 1766 481 
L 2356 481 
L 2356 0 
L 1766 0 
Q 1100 0 847 248 
Q 594 497 594 1153 
L 594 3053 
L 172 3053 
L 172 3500 
L 594 3500 
L 594 4494 
L 1172 4494 
z
" transform="scale(0.015625)"/>
       <path id="DejaVuSans-65" d="M 3597 1894 
L 3597 1613 
L 953 1613 
Q 991 1019 1311 708 
Q 1631 397 2203 397 
Q 2534 397 2845 478 
Q 3156 559 3463 722 
L 3463 178 
Q 3153 47 2828 -22 
Q 2503 -91 2169 -91 
Q 1331 -91 842 396 
Q 353 884 353 1716 
Q 353 2575 817 3079 
Q 1281 3584 2069 3584 
Q 2775 3584 3186 3129 
Q 3597 2675 3597 1894 
z
M 3022 2063 
Q 3016 2534 2758 2815 
Q 2500 3097 2075 3097 
Q 1594 3097 1305 2825 
Q 1016 2553 972 2059 
L 3022 2063 
z
" transform="scale(0.015625)"/>
       <path id="DejaVuSans-72" d="M 2631 2963 
Q 2534 3019 2420 3045 
Q 2306 3072 2169 3072 
Q 1681 3072 1420 2755 
Q 1159 2438 1159 1844 
L 1159 0 
L 581 0 
L 581 3500 
L 1159 3500 
L 1159 2956 
Q 1341 3275 1631 3429 
Q 1922 3584 2338 3584 
Q 2397 3584 2469 3576 
Q 2541 3569 2628 3553 
L 2631 2963 
z
" transform="scale(0.015625)"/>
       <path id="DejaVuSans-61" d="M 2194 1759 
Q 1497 1759 1228 1600 
Q 959 1441 959 1056 
Q 959 750 1161 570 
Q 1363 391 1709 391 
Q 2188 391 2477 730 
Q 2766 1069 2766 1631 
L 2766 1759 
L 2194 1759 
z
M 3341 1997 
L 3341 0 
L 2766 0 
L 2766 531 
Q 2569 213 2275 61 
Q 1981 -91 1556 -91 
Q 1019 -91 701 211 
Q 384 513 384 1019 
Q 384 1609 779 1909 
Q 1175 2209 1959 2209 
L 2766 2209 
L 2766 2266 
Q 2766 2663 2505 2880 
Q 2244 3097 1772 3097 
Q 1472 3097 1187 3025 
Q 903 2953 641 2809 
L 641 3341 
Q 956 3463 1253 3523 
Q 1550 3584 1831 3584 
Q 2591 3584 2966 3190 
Q 3341 2797 3341 1997 
z
" transform="scale(0.015625)"/>
       <path id="DejaVuSans-6f" d="M 1959 3097 
Q 1497 3097 1228 2736 
Q 959 2375 959 1747 
Q 959 1119 1226 758 
Q 1494 397 1959 397 
Q 2419 397 2687 759 
Q 2956 1122 2956 1747 
Q 2956 2369 2687 2733 
Q 2419 3097 1959 3097 
z
M 1959 3584 
Q 2709 3584 3137 3096 
Q 3566 2609 3566 1747 
Q 3566 888 3137 398 
Q 2709 -91 1959 -91 
Q 1206 -91 779 398 
Q 353 888 353 1747 
Q 353 2609 779 3096 
Q 1206 3584 1959 3584 
z
" transform="scale(0.015625)"/>
       <path id="DejaVuSans-6e" d="M 3513 2113 
L 3513 0 
L 2938 0 
L 2938 2094 
Q 2938 2591 2744 2837 
Q 2550 3084 2163 3084 
Q 1697 3084 1428 2787 
Q 1159 2491 1159 1978 
L 1159 0 
L 581 0 
L 581 3500 
L 1159 3500 
L 1159 2956 
Q 1366 3272 1645 3428 
Q 1925 3584 2291 3584 
Q 2894 3584 3203 3211 
Q 3513 2838 3513 2113 
z
" transform="scale(0.015625)"/>
      </defs>
      <use xlink:href="#DejaVuSans-69"/>
      <use xlink:href="#DejaVuSans-74" x="27.783203"/>
      <use xlink:href="#DejaVuSans-65" x="66.992188"/>
      <use xlink:href="#DejaVuSans-72" x="128.515625"/>
      <use xlink:href="#DejaVuSans-61" x="169.628906"/>
      <use xlink:href="#DejaVuSans-74" x="230.908203"/>
      <use xlink:href="#DejaVuSans-69" x="270.117188"/>
      <use xlink:href="#DejaVuSans-6f" x="297.900391"/>
      <use xlink:href="#DejaVuSans-6e" x="359.082031"/>
     </g>
    </g>
   </g>
   <g id="matplotlib.axis_2">
    <g id="ytick_1">
     <g id="line2d_11">
      <defs>
       <path id="m1f39a6087d" d="M 0 0 
L -3.5 0 
" style="stroke: #000000; stroke-width: 0.8"/>
      </defs>
      <g>
       <use xlink:href="#m1f39a6087d" x="180" y="601.506491" style="stroke: #000000; stroke-width: 0.8"/>
      </g>
     </g>
     <g id="text_12">
      <!-- 0.2 -->
      <g transform="translate(148.717187 605.305709) scale(0.1 -0.1)">
       <defs>
        <path id="DejaVuSans-2212" d="M 678 2272 
L 4684 2272 
L 4684 1741 
L 678 1741 
L 678 2272 
z
" transform="scale(0.015625)"/>
        <path id="DejaVuSans-2e" d="M 684 794 
L 1344 794 
L 1344 0 
L 684 0 
L 684 794 
z
" transform="scale(0.015625)"/>
       </defs>
       <use xlink:href="#DejaVuSans-2212"/>
       <use xlink:href="#DejaVuSans-30" x="83.789062"/>
       <use xlink:href="#DejaVuSans-2e" x="147.412109"/>
       <use xlink:href="#DejaVuSans-32" x="179.199219"/>
      </g>
     </g>
    </g>
    <g id="ytick_2">
     <g id="line2d_12">
      <g>
       <use xlink:href="#m1f39a6087d" x="180" y="528.030811" style="stroke: #000000; stroke-width: 0.8"/>
      </g>
     </g>
     <g id="text_13">
      <!-- 0.0 -->
      <g transform="translate(157.096875 531.83003) scale(0.1 -0.1)">
       <use xlink:href="#DejaVuSans-30"/>
       <use xlink:href="#DejaVuSans-2e" x="63.623047"/>
       <use xlink:href="#DejaVuSans-30" x="95.410156"/>
      </g>
     </g>
    </g>
    <g id="ytick_3">
     <g id="line2d_13">
      <g>
       <use xlink:href="#m1f39a6087d" x="180" y="454.555132" style="stroke: #000000; stroke-width: 0.8"/>
      </g>
     </g>
     <g id="text_14">
      <!-- 0.2 -->
      <g transform="translate(157.096875 458.354351) scale(0.1 -0.1)">
       <use xlink:href="#DejaVuSans-30"/>
       <use xlink:href="#DejaVuSans-2e" x="63.623047"/>
       <use xlink:href="#DejaVuSans-32" x="95.410156"/>
      </g>
     </g>
    </g>
    <g id="ytick_4">
     <g id="line2d_14">
      <g>
       <use xlink:href="#m1f39a6087d" x="180" y="381.079453" style="stroke: #000000; stroke-width: 0.8"/>
      </g>
     </g>
     <g id="text_15">
      <!-- 0.4 -->
      <g transform="translate(157.096875 384.878672) scale(0.1 -0.1)">
       <use xlink:href="#DejaVuSans-30"/>
       <use xlink:href="#DejaVuSans-2e" x="63.623047"/>
       <use xlink:href="#DejaVuSans-34" x="95.410156"/>
      </g>
     </g>
    </g>
    <g id="ytick_5">
     <g id="line2d_15">
      <g>
       <use xlink:href="#m1f39a6087d" x="180" y="307.603774" style="stroke: #000000; stroke-width: 0.8"/>
      </g>
     </g>
     <g id="text_16">
      <!-- 0.6 -->
      <g transform="translate(157.096875 311.402992) scale(0.1 -0.1)">
       <use xlink:href="#DejaVuSans-30"/>
       <use xlink:href="#DejaVuSans-2e" x="63.623047"/>
       <use xlink:href="#DejaVuSans-36" x="95.410156"/>
      </g>
     </g>
    </g>
    <g id="ytick_6">
     <g id="line2d_16">
      <g>
       <use xlink:href="#m1f39a6087d" x="180" y="234.128094" style="stroke: #000000; stroke-width: 0.8"/>
      </g>
     </g>
     <g id="text_17">
      <!-- 0.8 -->
      <g transform="translate(157.096875 237.927313) scale(0.1 -0.1)">
       <use xlink:href="#DejaVuSans-30"/>
       <use xlink:href="#DejaVuSans-2e" x="63.623047"/>
       <use xlink:href="#DejaVuSans-38" x="95.410156"/>
      </g>
     </g>
    </g>
    <g id="ytick_7">
     <g id="line2d_17">
      <g>
       <use xlink:href="#m1f39a6087d" x="180" y="160.652415" style="stroke: #000000; stroke-width: 0.8"/>
      </g>
     </g>
     <g id="text_18">
      <!-- 1.0 -->
      <g transform="translate(157.096875 164.451634) scale(0.1 -0.1)">
       <use xlink:href="#DejaVuSans-31"/>
       <use xlink:href="#DejaVuSans-2e" x="63.623047"/>
       <use xlink:href="#DejaVuSans-30" x="95.410156"/>
      </g>
     </g>
    </g>
    <g id="ytick_8">
     <g id="line2d_18">
      <g>
       <use xlink:href="#m1f39a6087d" x="180" y="87.176736" style="stroke: #000000; stroke-width: 0.8"/>
      </g>
     </g>
     <g id="text_19">
      <!-- 1.2 -->
      <g transform="translate(157.096875 90.975955) scale(0.1 -0.1)">
       <use xlink:href="#DejaVuSans-31"/>
       <use xlink:href="#DejaVuSans-2e" x="63.623047"/>
       <use xlink:href="#DejaVuSans-32" x="95.410156"/>
      </g>
     </g>
    </g>
    <g id="text_20">
     <!-- cosine similarity -->
     <g transform="translate(142.6375 404.307031) rotate(-90) scale(0.1 -0.1)">
      <defs>
       <path id="DejaVuSans-63" d="M 3122 3366 
L 3122 2828 
Q 2878 2963 2633 3030 
Q 2388 3097 2138 3097 
Q 1578 3097 1268 2742 
Q 959 2388 959 1747 
Q 959 1106 1268 751 
Q 1578 397 2138 397 
Q 2388 397 2633 464 
Q 2878 531 3122 666 
L 3122 134 
Q 2881 22 2623 -34 
Q 2366 -91 2075 -91 
Q 1284 -91 818 406 
Q 353 903 353 1747 
Q 353 2603 823 3093 
Q 1294 3584 2113 3584 
Q 2378 3584 2631 3529 
Q 2884 3475 3122 3366 
z
" transform="scale(0.015625)"/>
       <path id="DejaVuSans-73" d="M 2834 3397 
L 2834 2853 
Q 2591 2978 2328 3040 
Q 2066 3103 1784 3103 
Q 1356 3103 1142 2972 
Q 928 2841 928 2578 
Q 928 2378 1081 2264 
Q 1234 2150 1697 2047 
L 1894 2003 
Q 2506 1872 2764 1633 
Q 3022 1394 3022 966 
Q 3022 478 2636 193 
Q 2250 -91 1575 -91 
Q 1294 -91 989 -36 
Q 684 19 347 128 
L 347 722 
Q 666 556 975 473 
Q 1284 391 1588 391 
Q 1994 391 2212 530 
Q 2431 669 2431 922 
Q 2431 1156 2273 1281 
Q 2116 1406 1581 1522 
L 1381 1569 
Q 847 1681 609 1914 
Q 372 2147 372 2553 
Q 372 3047 722 3315 
Q 1072 3584 1716 3584 
Q 2034 3584 2315 3537 
Q 2597 3491 2834 3397 
z
" transform="scale(0.015625)"/>
       <path id="DejaVuSans-20" transform="scale(0.015625)"/>
       <path id="DejaVuSans-6d" d="M 3328 2828 
Q 3544 3216 3844 3400 
Q 4144 3584 4550 3584 
Q 5097 3584 5394 3201 
Q 5691 2819 5691 2113 
L 5691 0 
L 5113 0 
L 5113 2094 
Q 5113 2597 4934 2840 
Q 4756 3084 4391 3084 
Q 3944 3084 3684 2787 
Q 3425 2491 3425 1978 
L 3425 0 
L 2847 0 
L 2847 2094 
Q 2847 2600 2669 2842 
Q 2491 3084 2119 3084 
Q 1678 3084 1418 2786 
Q 1159 2488 1159 1978 
L 1159 0 
L 581 0 
L 581 3500 
L 1159 3500 
L 1159 2956 
Q 1356 3278 1631 3431 
Q 1906 3584 2284 3584 
Q 2666 3584 2933 3390 
Q 3200 3197 3328 2828 
z
" transform="scale(0.015625)"/>
       <path id="DejaVuSans-6c" d="M 603 4863 
L 1178 4863 
L 1178 0 
L 603 0 
L 603 4863 
z
" transform="scale(0.015625)"/>
       <path id="DejaVuSans-79" d="M 2059 -325 
Q 1816 -950 1584 -1140 
Q 1353 -1331 966 -1331 
L 506 -1331 
L 506 -850 
L 844 -850 
Q 1081 -850 1212 -737 
Q 1344 -625 1503 -206 
L 1606 56 
L 191 3500 
L 800 3500 
L 1894 763 
L 2988 3500 
L 3597 3500 
L 2059 -325 
z
" transform="scale(0.015625)"/>
      </defs>
      <use xlink:href="#DejaVuSans-63"/>
      <use xlink:href="#DejaVuSans-6f" x="54.980469"/>
      <use xlink:href="#DejaVuSans-73" x="116.162109"/>
      <use xlink:href="#DejaVuSans-69" x="168.261719"/>
      <use xlink:href="#DejaVuSans-6e" x="196.044922"/>
      <use xlink:href="#DejaVuSans-65" x="259.423828"/>
      <use xlink:href="#DejaVuSans-20" x="320.947266"/>
      <use xlink:href="#DejaVuSans-73" x="352.734375"/>
      <use xlink:href="#DejaVuSans-69" x="404.833984"/>
      <use xlink:href="#DejaVuSans-6d" x="432.617188"/>
      <use xlink:href="#DejaVuSans-69" x="530.029297"/>
      <use xlink:href="#DejaVuSans-6c" x="557.8125"/>
      <use xlink:href="#DejaVuSans-61" x="585.595703"/>
      <use xlink:href="#DejaVuSans-72" x="646.875"/>
      <use xlink:href="#DejaVuSans-69" x="687.988281"/>
      <use xlink:href="#DejaVuSans-74" x="715.771484"/>
      <use xlink:href="#DejaVuSans-79" x="754.980469"/>
     </g>
    </g>
   </g>
   <g id="line2d_19">
    <path d="M 235.8 516.690794 
L 235.8 160.652328 
" clip-path="url(#p9cf6988771)" style="fill: none; stroke: #3f3f3f; stroke-width: 1.875; stroke-linecap: square"/>
   </g>
   <g id="line2d_20">
    <path d="M 235.8 376.007074 
L 235.8 269.582435 
" clip-path="url(#p9cf6988771)" style="fill: none; stroke: #3f3f3f; stroke-width: 5.625; stroke-linecap: square"/>
   </g>
   <g id="line2d_21">
    <path d="M 235.8 315.526901 
" clip-path="url(#p9cf6988771)" style="fill: none; stroke: #3f3f3f; stroke-width: 1.5; stroke-linecap: square"/>
    <defs>
     <path id="m3b93183098" d="M 2.34375 0 
L -2.34375 -0 
" style="stroke: #ffffff; stroke-width: 1.125"/>
    </defs>
    <g clip-path="url(#p9cf6988771)">
     <use xlink:href="#m3b93183098" x="235.8" y="315.526901" style="fill: #ffffff; stroke: #ffffff; stroke-width: 1.125"/>
    </g>
   </g>
   <g id="line2d_22">
    <path d="M 347.4 554.761023 
L 347.4 160.652371 
" clip-path="url(#p9cf6988771)" style="fill: none; stroke: #3f3f3f; stroke-width: 1.875; stroke-linecap: square"/>
   </g>
   <g id="line2d_23">
    <path d="M 347.4 429.566824 
L 347.4 298.741338 
" clip-path="url(#p9cf6988771)" style="fill: none; stroke: #3f3f3f; stroke-width: 5.625; stroke-linecap: square"/>
   </g>
   <g id="line2d_24">
    <path d="M 347.4 361.442664 
" clip-path="url(#p9cf6988771)" style="fill: none; stroke: #3f3f3f; stroke-width: 1.5; stroke-linecap: square"/>
    <g clip-path="url(#p9cf6988771)">
     <use xlink:href="#m3b93183098" x="347.4" y="361.442664" style="fill: #ffffff; stroke: #ffffff; stroke-width: 1.125"/>
    </g>
   </g>
   <g id="line2d_25">
    <path d="M 459 558.130445 
L 459 160.652371 
" clip-path="url(#p9cf6988771)" style="fill: none; stroke: #3f3f3f; stroke-width: 1.875; stroke-linecap: square"/>
   </g>
   <g id="line2d_26">
    <path d="M 459 437.553503 
L 459 316.626027 
" clip-path="url(#p9cf6988771)" style="fill: none; stroke: #3f3f3f; stroke-width: 5.625; stroke-linecap: square"/>
   </g>
   <g id="line2d_27">
    <path d="M 459 384.648419 
" clip-path="url(#p9cf6988771)" style="fill: none; stroke: #3f3f3f; stroke-width: 1.5; stroke-linecap: square"/>
    <g clip-path="url(#p9cf6988771)">
     <use xlink:href="#m3b93183098" x="459" y="384.648419" style="fill: #ffffff; stroke: #ffffff; stroke-width: 1.125"/>
    </g>
   </g>
   <g id="line2d_28">
    <path d="M 570.6 564.741014 
L 570.6 160.652371 
" clip-path="url(#p9cf6988771)" style="fill: none; stroke: #3f3f3f; stroke-width: 1.875; stroke-linecap: square"/>
   </g>
   <g id="line2d_29">
    <path d="M 570.6 455.052981 
L 570.6 333.93801 
" clip-path="url(#p9cf6988771)" style="fill: none; stroke: #3f3f3f; stroke-width: 5.625; stroke-linecap: square"/>
   </g>
   <g id="line2d_30">
    <path d="M 570.6 399.329773 
" clip-path="url(#p9cf6988771)" style="fill: none; stroke: #3f3f3f; stroke-width: 1.5; stroke-linecap: square"/>
    <g clip-path="url(#p9cf6988771)">
     <use xlink:href="#m3b93183098" x="570.6" y="399.329773" style="fill: #ffffff; stroke: #ffffff; stroke-width: 1.125"/>
    </g>
   </g>
   <g id="line2d_31">
    <path d="M 682.2 567.72517 
L 682.2 160.652371 
" clip-path="url(#p9cf6988771)" style="fill: none; stroke: #3f3f3f; stroke-width: 1.875; stroke-linecap: square"/>
   </g>
   <g id="line2d_32">
    <path d="M 682.2 457.976692 
L 682.2 336.146708 
" clip-path="url(#p9cf6988771)" style="fill: none; stroke: #3f3f3f; stroke-width: 5.625; stroke-linecap: square"/>
   </g>
   <g id="line2d_33">
    <path d="M 682.2 407.321623 
" clip-path="url(#p9cf6988771)" style="fill: none; stroke: #3f3f3f; stroke-width: 1.5; stroke-linecap: square"/>
    <g clip-path="url(#p9cf6988771)">
     <use xlink:href="#m3b93183098" x="682.2" y="407.321623" style="fill: #ffffff; stroke: #ffffff; stroke-width: 1.125"/>
    </g>
   </g>
   <g id="line2d_34">
    <path d="M 793.8 567.72517 
L 793.8 190.828296 
" clip-path="url(#p9cf6988771)" style="fill: none; stroke: #3f3f3f; stroke-width: 1.875; stroke-linecap: square"/>
   </g>
   <g id="line2d_35">
    <path d="M 793.8 464.300815 
L 793.8 348.420861 
" clip-path="url(#p9cf6988771)" style="fill: none; stroke: #3f3f3f; stroke-width: 5.625; stroke-linecap: square"/>
   </g>
   <g id="line2d_36">
    <path d="M 793.8 413.951259 
" clip-path="url(#p9cf6988771)" style="fill: none; stroke: #3f3f3f; stroke-width: 1.5; stroke-linecap: square"/>
    <g clip-path="url(#p9cf6988771)">
     <use xlink:href="#m3b93183098" x="793.8" y="413.951259" style="fill: #ffffff; stroke: #ffffff; stroke-width: 1.125"/>
    </g>
   </g>
   <g id="line2d_37">
    <path d="M 905.4 564.741014 
L 905.4 190.828296 
" clip-path="url(#p9cf6988771)" style="fill: none; stroke: #3f3f3f; stroke-width: 1.875; stroke-linecap: square"/>
   </g>
   <g id="line2d_38">
    <path d="M 905.4 466.443524 
L 905.4 351.558112 
" clip-path="url(#p9cf6988771)" style="fill: none; stroke: #3f3f3f; stroke-width: 5.625; stroke-linecap: square"/>
   </g>
   <g id="line2d_39">
    <path d="M 905.4 416.69876 
" clip-path="url(#p9cf6988771)" style="fill: none; stroke: #3f3f3f; stroke-width: 1.5; stroke-linecap: square"/>
    <g clip-path="url(#p9cf6988771)">
     <use xlink:href="#m3b93183098" x="905.4" y="416.69876" style="fill: #ffffff; stroke: #ffffff; stroke-width: 1.125"/>
    </g>
   </g>
   <g id="line2d_40">
    <path d="M 1017 568.169404 
L 1017 201.120715 
" clip-path="url(#p9cf6988771)" style="fill: none; stroke: #3f3f3f; stroke-width: 1.875; stroke-linecap: square"/>
   </g>
   <g id="line2d_41">
    <path d="M 1017 471.0465 
L 1017 360.206084 
" clip-path="url(#p9cf6988771)" style="fill: none; stroke: #3f3f3f; stroke-width: 5.625; stroke-linecap: square"/>
   </g>
   <g id="line2d_42">
    <path d="M 1017 419.667092 
" clip-path="url(#p9cf6988771)" style="fill: none; stroke: #3f3f3f; stroke-width: 1.5; stroke-linecap: square"/>
    <g clip-path="url(#p9cf6988771)">
     <use xlink:href="#m3b93183098" x="1017" y="419.667092" style="fill: #ffffff; stroke: #ffffff; stroke-width: 1.125"/>
    </g>
   </g>
   <g id="line2d_43">
    <path d="M 1128.6 568.169404 
L 1128.6 204.628556 
" clip-path="url(#p9cf6988771)" style="fill: none; stroke: #3f3f3f; stroke-width: 1.875; stroke-linecap: square"/>
   </g>
   <g id="line2d_44">
    <path d="M 1128.6 475.278615 
L 1128.6 365.640001 
" clip-path="url(#p9cf6988771)" style="fill: none; stroke: #3f3f3f; stroke-width: 5.625; stroke-linecap: square"/>
   </g>
   <g id="line2d_45">
    <path d="M 1128.6 425.110724 
" clip-path="url(#p9cf6988771)" style="fill: none; stroke: #3f3f3f; stroke-width: 1.5; stroke-linecap: square"/>
    <g clip-path="url(#p9cf6988771)">
     <use xlink:href="#m3b93183098" x="1128.6" y="425.110724" style="fill: #ffffff; stroke: #ffffff; stroke-width: 1.125"/>
    </g>
   </g>
   <g id="line2d_46">
    <path d="M 1240.2 568.169404 
L 1240.2 207.444394 
" clip-path="url(#p9cf6988771)" style="fill: none; stroke: #3f3f3f; stroke-width: 1.875; stroke-linecap: square"/>
   </g>
   <g id="line2d_47">
    <path d="M 1240.2 477.288737 
L 1240.2 368.677756 
" clip-path="url(#p9cf6988771)" style="fill: none; stroke: #3f3f3f; stroke-width: 5.625; stroke-linecap: square"/>
   </g>
   <g id="line2d_48">
    <path d="M 1240.2 430.881137 
" clip-path="url(#p9cf6988771)" style="fill: none; stroke: #3f3f3f; stroke-width: 1.5; stroke-linecap: square"/>
    <g clip-path="url(#p9cf6988771)">
     <use xlink:href="#m3b93183098" x="1240.2" y="430.881137" style="fill: #ffffff; stroke: #ffffff; stroke-width: 1.125"/>
    </g>
   </g>
   <g id="patch_3">
    <path d="M 180 640.8 
L 180 86.4 
" style="fill: none; stroke: #000000; stroke-width: 0.8; stroke-linejoin: miter; stroke-linecap: square"/>
   </g>
   <g id="patch_4">
    <path d="M 1296 640.8 
L 1296 86.4 
" style="fill: none; stroke: #000000; stroke-width: 0.8; stroke-linejoin: miter; stroke-linecap: square"/>
   </g>
   <g id="patch_5">
    <path d="M 180 640.8 
L 1296 640.8 
" style="fill: none; stroke: #000000; stroke-width: 0.8; stroke-linejoin: miter; stroke-linecap: square"/>
   </g>
   <g id="patch_6">
    <path d="M 180 86.4 
L 1296 86.4 
" style="fill: none; stroke: #000000; stroke-width: 0.8; stroke-linejoin: miter; stroke-linecap: square"/>
   </g>
   <g id="text_21">
    <!-- cosine similarity of max_fs_glit (distanceFromInitialPrompt), by iteration -->
    <g transform="translate(522.321563 80.4) scale(0.12 -0.12)">
     <defs>
      <path id="DejaVuSans-66" d="M 2375 4863 
L 2375 4384 
L 1825 4384 
Q 1516 4384 1395 4259 
Q 1275 4134 1275 3809 
L 1275 3500 
L 2222 3500 
L 2222 3053 
L 1275 3053 
L 1275 0 
L 697 0 
L 697 3053 
L 147 3053 
L 147 3500 
L 697 3500 
L 697 3744 
Q 697 4328 969 4595 
Q 1241 4863 1831 4863 
L 2375 4863 
z
" transform="scale(0.015625)"/>
      <path id="DejaVuSans-78" d="M 3513 3500 
L 2247 1797 
L 3578 0 
L 2900 0 
L 1881 1375 
L 863 0 
L 184 0 
L 1544 1831 
L 300 3500 
L 978 3500 
L 1906 2253 
L 2834 3500 
L 3513 3500 
z
" transform="scale(0.015625)"/>
      <path id="DejaVuSans-5f" d="M 3263 -1063 
L 3263 -1509 
L -63 -1509 
L -63 -1063 
L 3263 -1063 
z
" transform="scale(0.015625)"/>
      <path id="DejaVuSans-67" d="M 2906 1791 
Q 2906 2416 2648 2759 
Q 2391 3103 1925 3103 
Q 1463 3103 1205 2759 
Q 947 2416 947 1791 
Q 947 1169 1205 825 
Q 1463 481 1925 481 
Q 2391 481 2648 825 
Q 2906 1169 2906 1791 
z
M 3481 434 
Q 3481 -459 3084 -895 
Q 2688 -1331 1869 -1331 
Q 1566 -1331 1297 -1286 
Q 1028 -1241 775 -1147 
L 775 -588 
Q 1028 -725 1275 -790 
Q 1522 -856 1778 -856 
Q 2344 -856 2625 -561 
Q 2906 -266 2906 331 
L 2906 616 
Q 2728 306 2450 153 
Q 2172 0 1784 0 
Q 1141 0 747 490 
Q 353 981 353 1791 
Q 353 2603 747 3093 
Q 1141 3584 1784 3584 
Q 2172 3584 2450 3431 
Q 2728 3278 2906 2969 
L 2906 3500 
L 3481 3500 
L 3481 434 
z
" transform="scale(0.015625)"/>
      <path id="DejaVuSans-28" d="M 1984 4856 
Q 1566 4138 1362 3434 
Q 1159 2731 1159 2009 
Q 1159 1288 1364 580 
Q 1569 -128 1984 -844 
L 1484 -844 
Q 1016 -109 783 600 
Q 550 1309 550 2009 
Q 550 2706 781 3412 
Q 1013 4119 1484 4856 
L 1984 4856 
z
" transform="scale(0.015625)"/>
      <path id="DejaVuSans-64" d="M 2906 2969 
L 2906 4863 
L 3481 4863 
L 3481 0 
L 2906 0 
L 2906 525 
Q 2725 213 2448 61 
Q 2172 -91 1784 -91 
Q 1150 -91 751 415 
Q 353 922 353 1747 
Q 353 2572 751 3078 
Q 1150 3584 1784 3584 
Q 2172 3584 2448 3432 
Q 2725 3281 2906 2969 
z
M 947 1747 
Q 947 1113 1208 752 
Q 1469 391 1925 391 
Q 2381 391 2643 752 
Q 2906 1113 2906 1747 
Q 2906 2381 2643 2742 
Q 2381 3103 1925 3103 
Q 1469 3103 1208 2742 
Q 947 2381 947 1747 
z
" transform="scale(0.015625)"/>
      <path id="DejaVuSans-46" d="M 628 4666 
L 3309 4666 
L 3309 4134 
L 1259 4134 
L 1259 2759 
L 3109 2759 
L 3109 2228 
L 1259 2228 
L 1259 0 
L 628 0 
L 628 4666 
z
" transform="scale(0.015625)"/>
      <path id="DejaVuSans-49" d="M 628 4666 
L 1259 4666 
L 1259 0 
L 628 0 
L 628 4666 
z
" transform="scale(0.015625)"/>
      <path id="DejaVuSans-50" d="M 1259 4147 
L 1259 2394 
L 2053 2394 
Q 2494 2394 2734 2622 
Q 2975 2850 2975 3272 
Q 2975 3691 2734 3919 
Q 2494 4147 2053 4147 
L 1259 4147 
z
M 628 4666 
L 2053 4666 
Q 2838 4666 3239 4311 
Q 3641 3956 3641 3272 
Q 3641 2581 3239 2228 
Q 2838 1875 2053 1875 
L 1259 1875 
L 1259 0 
L 628 0 
L 628 4666 
z
" transform="scale(0.015625)"/>
      <path id="DejaVuSans-70" d="M 1159 525 
L 1159 -1331 
L 581 -1331 
L 581 3500 
L 1159 3500 
L 1159 2969 
Q 1341 3281 1617 3432 
Q 1894 3584 2278 3584 
Q 2916 3584 3314 3078 
Q 3713 2572 3713 1747 
Q 3713 922 3314 415 
Q 2916 -91 2278 -91 
Q 1894 -91 1617 61 
Q 1341 213 1159 525 
z
M 3116 1747 
Q 3116 2381 2855 2742 
Q 2594 3103 2138 3103 
Q 1681 3103 1420 2742 
Q 1159 2381 1159 1747 
Q 1159 1113 1420 752 
Q 1681 391 2138 391 
Q 2594 391 2855 752 
Q 3116 1113 3116 1747 
z
" transform="scale(0.015625)"/>
      <path id="DejaVuSans-29" d="M 513 4856 
L 1013 4856 
Q 1481 4119 1714 3412 
Q 1947 2706 1947 2009 
Q 1947 1309 1714 600 
Q 1481 -109 1013 -844 
L 513 -844 
Q 928 -128 1133 580 
Q 1338 1288 1338 2009 
Q 1338 2731 1133 3434 
Q 928 4138 513 4856 
z
" transform="scale(0.015625)"/>
      <path id="DejaVuSans-2c" d="M 750 794 
L 1409 794 
L 1409 256 
L 897 -744 
L 494 -744 
L 750 256 
L 750 794 
z
" transform="scale(0.015625)"/>
      <path id="DejaVuSans-62" d="M 3116 1747 
Q 3116 2381 2855 2742 
Q 2594 3103 2138 3103 
Q 1681 3103 1420 2742 
Q 1159 2381 1159 1747 
Q 1159 1113 1420 752 
Q 1681 391 2138 391 
Q 2594 391 2855 752 
Q 3116 1113 3116 1747 
z
M 1159 2969 
Q 1341 3281 1617 3432 
Q 1894 3584 2278 3584 
Q 2916 3584 3314 3078 
Q 3713 2572 3713 1747 
Q 3713 922 3314 415 
Q 2916 -91 2278 -91 
Q 1894 -91 1617 61 
Q 1341 213 1159 525 
L 1159 0 
L 581 0 
L 581 4863 
L 1159 4863 
L 1159 2969 
z
" transform="scale(0.015625)"/>
     </defs>
     <use xlink:href="#DejaVuSans-63"/>
     <use xlink:href="#DejaVuSans-6f" x="54.980469"/>
     <use xlink:href="#DejaVuSans-73" x="116.162109"/>
     <use xlink:href="#DejaVuSans-69" x="168.261719"/>
     <use xlink:href="#DejaVuSans-6e" x="196.044922"/>
     <use xlink:href="#DejaVuSans-65" x="259.423828"/>
     <use xlink:href="#DejaVuSans-20" x="320.947266"/>
     <use xlink:href="#DejaVuSans-73" x="352.734375"/>
     <use xlink:href="#DejaVuSans-69" x="404.833984"/>
     <use xlink:href="#DejaVuSans-6d" x="432.617188"/>
     <use xlink:href="#DejaVuSans-69" x="530.029297"/>
     <use xlink:href="#DejaVuSans-6c" x="557.8125"/>
     <use xlink:href="#DejaVuSans-61" x="585.595703"/>
     <use xlink:href="#DejaVuSans-72" x="646.875"/>
     <use xlink:href="#DejaVuSans-69" x="687.988281"/>
     <use xlink:href="#DejaVuSans-74" x="715.771484"/>
     <use xlink:href="#DejaVuSans-79" x="754.980469"/>
     <use xlink:href="#DejaVuSans-20" x="814.160156"/>
     <use xlink:href="#DejaVuSans-6f" x="845.947266"/>
     <use xlink:href="#DejaVuSans-66" x="907.128906"/>
     <use xlink:href="#DejaVuSans-20" x="942.333984"/>
     <use xlink:href="#DejaVuSans-6d" x="974.121094"/>
     <use xlink:href="#DejaVuSans-61" x="1071.533203"/>
     <use xlink:href="#DejaVuSans-78" x="1132.8125"/>
     <use xlink:href="#DejaVuSans-5f" x="1191.992188"/>
     <use xlink:href="#DejaVuSans-66" x="1241.992188"/>
     <use xlink:href="#DejaVuSans-73" x="1277.197266"/>
     <use xlink:href="#DejaVuSans-5f" x="1329.296875"/>
     <use xlink:href="#DejaVuSans-67" x="1379.296875"/>
     <use xlink:href="#DejaVuSans-6c" x="1442.773438"/>
     <use xlink:href="#DejaVuSans-69" x="1470.556641"/>
     <use xlink:href="#DejaVuSans-74" x="1498.339844"/>
     <use xlink:href="#DejaVuSans-20" x="1537.548828"/>
     <use xlink:href="#DejaVuSans-28" x="1569.335938"/>
     <use xlink:href="#DejaVuSans-64" x="1608.349609"/>
     <use xlink:href="#DejaVuSans-69" x="1671.826172"/>
     <use xlink:href="#DejaVuSans-73" x="1699.609375"/>
     <use xlink:href="#DejaVuSans-74" x="1751.708984"/>
     <use xlink:href="#DejaVuSans-61" x="1790.917969"/>
     <use xlink:href="#DejaVuSans-6e" x="1852.197266"/>
     <use xlink:href="#DejaVuSans-63" x="1915.576172"/>
     <use xlink:href="#DejaVuSans-65" x="1970.556641"/>
     <use xlink:href="#DejaVuSans-46" x="2032.080078"/>
     <use xlink:href="#DejaVuSans-72" x="2082.349609"/>
     <use xlink:href="#DejaVuSans-6f" x="2121.212891"/>
     <use xlink:href="#DejaVuSans-6d" x="2182.394531"/>
     <use xlink:href="#DejaVuSans-49" x="2279.806641"/>
     <use xlink:href="#DejaVuSans-6e" x="2309.298828"/>
     <use xlink:href="#DejaVuSans-69" x="2372.677734"/>
     <use xlink:href="#DejaVuSans-74" x="2400.460938"/>
     <use xlink:href="#DejaVuSans-69" x="2439.669922"/>
     <use xlink:href="#DejaVuSans-61" x="2467.453125"/>
     <use xlink:href="#DejaVuSans-6c" x="2528.732422"/>
     <use xlink:href="#DejaVuSans-50" x="2556.515625"/>
     <use xlink:href="#DejaVuSans-72" x="2615.068359"/>
     <use xlink:href="#DejaVuSans-6f" x="2653.931641"/>
     <use xlink:href="#DejaVuSans-6d" x="2715.113281"/>
     <use xlink:href="#DejaVuSans-70" x="2812.525391"/>
     <use xlink:href="#DejaVuSans-74" x="2876.001953"/>
     <use xlink:href="#DejaVuSans-29" x="2915.210938"/>
     <use xlink:href="#DejaVuSans-2c" x="2954.224609"/>
     <use xlink:href="#DejaVuSans-20" x="2986.011719"/>
     <use xlink:href="#DejaVuSans-62" x="3017.798828"/>
     <use xlink:href="#DejaVuSans-79" x="3081.275391"/>
     <use xlink:href="#DejaVuSans-20" x="3140.455078"/>
     <use xlink:href="#DejaVuSans-69" x="3172.242188"/>
     <use xlink:href="#DejaVuSans-74" x="3200.025391"/>
     <use xlink:href="#DejaVuSans-65" x="3239.234375"/>
     <use xlink:href="#DejaVuSans-72" x="3300.757812"/>
     <use xlink:href="#DejaVuSans-61" x="3341.871094"/>
     <use xlink:href="#DejaVuSans-74" x="3403.150391"/>
     <use xlink:href="#DejaVuSans-69" x="3442.359375"/>
     <use xlink:href="#DejaVuSans-6f" x="3470.142578"/>
     <use xlink:href="#DejaVuSans-6e" x="3531.324219"/>
    </g>
   </g>
  </g>
 </g>
 <defs>
  <clipPath id="p9cf6988771">
   <rect x="180" y="86.4" width="1116" height="554.4"/>
  </clipPath>
 </defs>
</svg>
