<?xml version="1.0" encoding="utf-8" standalone="no"?>
<!DOCTYPE svg PUBLIC "-//W3C//DTD SVG 1.1//EN"
  "http://www.w3.org/Graphics/SVG/1.1/DTD/svg11.dtd">
<svg xmlns:xlink="http://www.w3.org/1999/xlink" width="1440pt" height="720pt" viewBox="0 0 1440 720" xmlns="http://www.w3.org/2000/svg" version="1.1">
 <metadata>
  <rdf:RDF xmlns:dc="http://purl.org/dc/elements/1.1/" xmlns:cc="http://creativecommons.org/ns#" xmlns:rdf="http://www.w3.org/1999/02/22-rdf-syntax-ns#">
   <cc:Work>
    <dc:type rdf:resource="http://purl.org/dc/dcmitype/StillImage"/>
    <dc:date>2024-07-06T19:52:50.821776</dc:date>
    <dc:format>image/svg+xml</dc:format>
    <dc:creator>
     <cc:Agent>
      <dc:title>Matplotlib v3.8.0, https://matplotlib.org/</dc:title>
     </cc:Agent>
    </dc:creator>
   </cc:Work>
  </rdf:RDF>
 </metadata>
 <defs>
  <style type="text/css">*{stroke-linejoin: round; stroke-linecap: butt}</style>
 </defs>
 <g id="figure_1">
  <g id="patch_1">
   <path d="M 0 720 
L 1440 720 
L 1440 0 
L 0 0 
z
" style="fill: #ffffff"/>
  </g>
  <g id="axes_1">
   <g id="patch_2">
    <path d="M 180 640.8 
L 1296 640.8 
L 1296 86.4 
L 180 86.4 
z
" style="fill: #ffffff"/>
   </g>
   <g id="PolyCollection_1">
    <defs>
     <path id="m0fa22db405" d="M 236.02053 -167.166723 
L 235.57947 -167.166723 
L 235.476642 -171.623625 
L 235.337178 -176.080527 
L 235.15286 -180.537429 
L 234.915248 -184.994331 
L 234.616104 -189.451232 
L 234.247819 -193.908134 
L 233.803787 -198.365036 
L 233.278709 -202.821938 
L 232.668847 -207.27884 
L 231.972265 -211.735741 
L 231.189146 -216.192643 
L 230.322228 -220.649545 
L 229.377365 -225.106447 
L 228.364111 -229.563348 
L 227.296147 -234.02025 
L 226.191308 -238.477152 
L 225.070968 -242.934054 
L 223.958651 -247.390956 
L 222.877926 -251.847857 
L 221.849822 -256.304759 
L 220.890247 -260.761661 
L 220.007925 -265.218563 
L 219.203354 -269.675464 
L 218.469094 -274.132366 
L 217.791393 -278.589268 
L 217.152831 -283.04617 
L 216.535444 -287.503072 
L 215.923654 -291.959973 
L 215.306417 -296.416875 
L 214.678237 -300.873777 
L 214.038997 -305.330679 
L 213.39287 -309.787581 
L 212.746778 -314.244482 
L 212.108923 -318.701384 
L 211.487752 -323.158286 
L 210.891524 -327.615188 
L 210.32832 -332.072089 
L 209.806191 -336.528991 
L 209.333031 -340.985893 
L 208.915925 -345.442795 
L 208.559929 -349.899697 
L 208.266559 -354.356598 
L 208.032495 -358.8135 
L 207.849046 -363.270402 
L 207.702859 -367.727304 
L 207.578001 -372.184206 
L 207.459219 -376.641107 
L 207.335801 -381.098009 
L 207.205261 -385.554911 
L 207.076033 -390.011813 
L 206.968565 -394.468714 
L 206.914485 -398.925616 
L 206.953909 -403.382518 
L 207.131284 -407.83942 
L 207.490362 -412.296322 
L 208.069007 -416.753223 
L 208.894494 -421.210125 
L 209.979844 -425.667027 
L 211.321602 -430.123929 
L 212.899271 -434.58083 
L 214.676493 -439.037732 
L 216.603824 -443.494634 
L 218.622833 -447.951536 
L 220.671041 -452.408438 
L 222.687108 -456.865339 
L 224.61563 -461.322241 
L 226.410958 -465.779143 
L 228.039618 -470.236045 
L 229.48117 -474.692947 
L 230.727568 -479.149848 
L 231.781347 -483.60675 
L 232.653085 -488.063652 
L 233.358637 -492.520554 
L 233.916573 -496.977455 
L 234.346124 -501.434357 
L 234.665782 -505.891259 
L 234.892574 -510.348161 
L 235.041872 -514.805063 
L 235.127597 -519.261964 
L 235.162595 -523.718866 
L 235.159023 -528.175768 
L 235.128594 -532.63267 
L 235.082605 -537.089571 
L 235.03172 -541.546473 
L 234.985548 -546.003375 
L 234.952116 -550.460277 
L 234.937344 -554.917179 
L 234.944665 -559.37408 
L 234.97488 -563.830982 
L 235.026309 -568.287884 
L 235.095225 -572.744786 
L 235.176512 -577.201688 
L 235.264423 -581.658589 
L 235.353331 -586.115491 
L 235.438347 -590.572393 
L 235.515733 -595.029295 
L 235.58309 -599.486196 
L 235.639325 -603.943098 
L 235.684462 -608.4 
L 235.915538 -608.4 
L 235.915538 -608.4 
L 235.960675 -603.943098 
L 236.01691 -599.486196 
L 236.084267 -595.029295 
L 236.161653 -590.572393 
L 236.246669 -586.115491 
L 236.335577 -581.658589 
L 236.423488 -577.201688 
L 236.504775 -572.744786 
L 236.573691 -568.287884 
L 236.62512 -563.830982 
L 236.655335 -559.37408 
L 236.662656 -554.917179 
L 236.647884 -550.460277 
L 236.614452 -546.003375 
L 236.56828 -541.546473 
L 236.517395 -537.089571 
L 236.471406 -532.63267 
L 236.440977 -528.175768 
L 236.437405 -523.718866 
L 236.472403 -519.261964 
L 236.558128 -514.805063 
L 236.707426 -510.348161 
L 236.934218 -505.891259 
L 237.253876 -501.434357 
L 237.683427 -496.977455 
L 238.241363 -492.520554 
L 238.946915 -488.063652 
L 239.818653 -483.60675 
L 240.872432 -479.149848 
L 242.11883 -474.692947 
L 243.560382 -470.236045 
L 245.189042 -465.779143 
L 246.98437 -461.322241 
L 248.912892 -456.865339 
L 250.928959 -452.408438 
L 252.977167 -447.951536 
L 254.996176 -443.494634 
L 256.923507 -439.037732 
L 258.700729 -434.58083 
L 260.278398 -430.123929 
L 261.620156 -425.667027 
L 262.705506 -421.210125 
L 263.530993 -416.753223 
L 264.109638 -412.296322 
L 264.468716 -407.83942 
L 264.646091 -403.382518 
L 264.685515 -398.925616 
L 264.631435 -394.468714 
L 264.523967 -390.011813 
L 264.394739 -385.554911 
L 264.264199 -381.098009 
L 264.140781 -376.641107 
L 264.021999 -372.184206 
L 263.897141 -367.727304 
L 263.750954 -363.270402 
L 263.567505 -358.8135 
L 263.333441 -354.356598 
L 263.040071 -349.899697 
L 262.684075 -345.442795 
L 262.266969 -340.985893 
L 261.793809 -336.528991 
L 261.27168 -332.072089 
L 260.708476 -327.615188 
L 260.112248 -323.158286 
L 259.491077 -318.701384 
L 258.853222 -314.244482 
L 258.20713 -309.787581 
L 257.561003 -305.330679 
L 256.921763 -300.873777 
L 256.293583 -296.416875 
L 255.676346 -291.959973 
L 255.064556 -287.503072 
L 254.447169 -283.04617 
L 253.808607 -278.589268 
L 253.130906 -274.132366 
L 252.396646 -269.675464 
L 251.592075 -265.218563 
L 250.709753 -260.761661 
L 249.750178 -256.304759 
L 248.722074 -251.847857 
L 247.641349 -247.390956 
L 246.529032 -242.934054 
L 245.408692 -238.477152 
L 244.303853 -234.02025 
L 243.235889 -229.563348 
L 242.222635 -225.106447 
L 241.277772 -220.649545 
L 240.410854 -216.192643 
L 239.627735 -211.735741 
L 238.931153 -207.27884 
L 238.321291 -202.821938 
L 237.796213 -198.365036 
L 237.352181 -193.908134 
L 236.983896 -189.451232 
L 236.684752 -184.994331 
L 236.44714 -180.537429 
L 236.262822 -176.080527 
L 236.123358 -171.623625 
L 236.02053 -167.166723 
z
" style="stroke: #3f3f3f; stroke-width: 1.25"/>
    </defs>
    <g clip-path="url(#p84b327384e)">
     <use xlink:href="#m0fa22db405" x="0" y="720" style="fill: #3274a1; stroke: #3f3f3f; stroke-width: 1.25"/>
    </g>
   </g>
   <g id="PolyCollection_2">
    <defs>
     <path id="m99139be748" d="M 347.655188 -132.090128 
L 347.144812 -132.090128 
L 347.046146 -135.922158 
L 346.916849 -139.754188 
L 346.750108 -143.586219 
L 346.538371 -147.418249 
L 346.273441 -151.250279 
L 345.946595 -155.082309 
L 345.548731 -158.91434 
L 345.070548 -162.74637 
L 344.50276 -166.5784 
L 343.836358 -170.410431 
L 343.062949 -174.242461 
L 342.175184 -178.074491 
L 341.167296 -181.906521 
L 340.035747 -185.738552 
L 338.779961 -189.570582 
L 337.403098 -193.402612 
L 335.912773 -197.234643 
L 334.321625 -201.066673 
L 332.647618 -204.898703 
L 330.913957 -208.730734 
L 329.148566 -212.562764 
L 327.383077 -216.394794 
L 325.651405 -220.226824 
L 323.987999 -224.058855 
L 322.425949 -227.890885 
L 320.995139 -231.722915 
L 319.72066 -235.554946 
L 318.62164 -239.386976 
L 317.710613 -243.219006 
L 316.993452 -247.051036 
L 316.46982 -250.883067 
L 316.134035 -254.715097 
L 315.976174 -258.547127 
L 315.983267 -262.379158 
L 316.140396 -266.211188 
L 316.431622 -270.043218 
L 316.840641 -273.875249 
L 317.351196 -277.707279 
L 317.947275 -281.539309 
L 318.613176 -285.371339 
L 319.333518 -289.20337 
L 320.093289 -293.0354 
L 320.877966 -296.86743 
L 321.673733 -300.699461 
L 322.467778 -304.531491 
L 323.248627 -308.363521 
L 324.006459 -312.195551 
L 324.733334 -316.027582 
L 325.423299 -319.859612 
L 326.072337 -323.691642 
L 326.678163 -327.523673 
L 327.239893 -331.355703 
L 327.757639 -335.187733 
L 328.232085 -339.019763 
L 328.664124 -342.851794 
L 329.054601 -346.683824 
L 329.404217 -350.515854 
L 329.713623 -354.347885 
L 329.983676 -358.179915 
L 330.215861 -362.011945 
L 330.412777 -365.843976 
L 330.57865 -369.676006 
L 330.719752 -373.508036 
L 330.844651 -377.340066 
L 330.964212 -381.172097 
L 331.091311 -385.004127 
L 331.240228 -388.836157 
L 331.425789 -392.668188 
L 331.662294 -396.500218 
L 331.96238 -400.332248 
L 332.335928 -404.164278 
L 332.78916 -407.996309 
L 333.324042 -411.828339 
L 333.938075 -415.660369 
L 334.624491 -419.4924 
L 335.372834 -423.32443 
L 336.169845 -427.15646 
L 337.000522 -430.98849 
L 337.849232 -434.820521 
L 338.700748 -438.652551 
L 339.541081 -442.484581 
L 340.358077 -446.316612 
L 341.141731 -450.148642 
L 341.884256 -453.980672 
L 342.579959 -457.812703 
L 343.22499 -461.644733 
L 343.817043 -465.476763 
L 344.355064 -469.308793 
L 344.839014 -473.140824 
L 345.269688 -476.972854 
L 345.648601 -480.804884 
L 345.977913 -484.636915 
L 346.260373 -488.468945 
L 346.499255 -492.300975 
L 346.698276 -496.133005 
L 346.861484 -499.965036 
L 346.993124 -503.797066 
L 347.097487 -507.629096 
L 347.178765 -511.461127 
L 347.621235 -511.461127 
L 347.621235 -511.461127 
L 347.702513 -507.629096 
L 347.806876 -503.797066 
L 347.938516 -499.965036 
L 348.101724 -496.133005 
L 348.300745 -492.300975 
L 348.539627 -488.468945 
L 348.822087 -484.636915 
L 349.151399 -480.804884 
L 349.530312 -476.972854 
L 349.960986 -473.140824 
L 350.444936 -469.308793 
L 350.982957 -465.476763 
L 351.57501 -461.644733 
L 352.220041 -457.812703 
L 352.915744 -453.980672 
L 353.658269 -450.148642 
L 354.441923 -446.316612 
L 355.258919 -442.484581 
L 356.099252 -438.652551 
L 356.950768 -434.820521 
L 357.799478 -430.98849 
L 358.630155 -427.15646 
L 359.427166 -423.32443 
L 360.175509 -419.4924 
L 360.861925 -415.660369 
L 361.475958 -411.828339 
L 362.01084 -407.996309 
L 362.464072 -404.164278 
L 362.83762 -400.332248 
L 363.137706 -396.500218 
L 363.374211 -392.668188 
L 363.559772 -388.836157 
L 363.708689 -385.004127 
L 363.835788 -381.172097 
L 363.955349 -377.340066 
L 364.080248 -373.508036 
L 364.22135 -369.676006 
L 364.387223 -365.843976 
L 364.584139 -362.011945 
L 364.816324 -358.179915 
L 365.086377 -354.347885 
L 365.395783 -350.515854 
L 365.745399 -346.683824 
L 366.135876 -342.851794 
L 366.567915 -339.019763 
L 367.042361 -335.187733 
L 367.560107 -331.355703 
L 368.121837 -327.523673 
L 368.727663 -323.691642 
L 369.376701 -319.859612 
L 370.066666 -316.027582 
L 370.793541 -312.195551 
L 371.551373 -308.363521 
L 372.332222 -304.531491 
L 373.126267 -300.699461 
L 373.922034 -296.86743 
L 374.706711 -293.0354 
L 375.466482 -289.20337 
L 376.186824 -285.371339 
L 376.852725 -281.539309 
L 377.448804 -277.707279 
L 377.959359 -273.875249 
L 378.368378 -270.043218 
L 378.659604 -266.211188 
L 378.816733 -262.379158 
L 378.823826 -258.547127 
L 378.665965 -254.715097 
L 378.33018 -250.883067 
L 377.806548 -247.051036 
L 377.089387 -243.219006 
L 376.17836 -239.386976 
L 375.07934 -235.554946 
L 373.804861 -231.722915 
L 372.374051 -227.890885 
L 370.812001 -224.058855 
L 369.148595 -220.226824 
L 367.416923 -216.394794 
L 365.651434 -212.562764 
L 363.886043 -208.730734 
L 362.152382 -204.898703 
L 360.478375 -201.066673 
L 358.887227 -197.234643 
L 357.396902 -193.402612 
L 356.020039 -189.570582 
L 354.764253 -185.738552 
L 353.632704 -181.906521 
L 352.624816 -178.074491 
L 351.737051 -174.242461 
L 350.963642 -170.410431 
L 350.29724 -166.5784 
L 349.729452 -162.74637 
L 349.251269 -158.91434 
L 348.853405 -155.082309 
L 348.526559 -151.250279 
L 348.261629 -147.418249 
L 348.049892 -143.586219 
L 347.883151 -139.754188 
L 347.753854 -135.922158 
L 347.655188 -132.090128 
z
" style="stroke: #3f3f3f; stroke-width: 1.25"/>
    </defs>
    <g clip-path="url(#p84b327384e)">
     <use xlink:href="#m99139be748" x="0" y="720" style="fill: #3274a1; stroke: #3f3f3f; stroke-width: 1.25"/>
    </g>
   </g>
   <g id="PolyCollection_3">
    <defs>
     <path id="m233e6f3fb1" d="M 459.202323 -104.4 
L 458.797677 -104.4 
L 458.722098 -108.516504 
L 458.62563 -112.633007 
L 458.505071 -116.749511 
L 458.3574 -120.866014 
L 458.179873 -124.982518 
L 457.970049 -129.099022 
L 457.725695 -133.215525 
L 457.444565 -137.332029 
L 457.124043 -141.448532 
L 456.760703 -145.565036 
L 456.349816 -149.68154 
L 455.884922 -153.798043 
L 455.357539 -157.914547 
L 454.757128 -162.03105 
L 454.071376 -166.147554 
L 453.286829 -170.264058 
L 452.389879 -174.380561 
L 451.368019 -178.497065 
L 450.211253 -182.613568 
L 448.913514 -186.730072 
L 447.473931 -190.846576 
L 445.897789 -194.963079 
L 444.197072 -199.079583 
L 442.390532 -203.196086 
L 440.503271 -207.31259 
L 438.565895 -211.429094 
L 436.613308 -215.545597 
L 434.683283 -219.662101 
L 432.814901 -223.778604 
L 431.046985 -227.895108 
L 429.416597 -232.011612 
L 427.957674 -236.128115 
L 426.699849 -240.244619 
L 425.667478 -244.361122 
L 424.8789 -248.477626 
L 424.345941 -252.59413 
L 424.07366 -256.710633 
L 424.060325 -260.827137 
L 424.297619 -264.94364 
L 424.771028 -269.060144 
L 425.46042 -273.176648 
L 426.340773 -277.293151 
L 427.383064 -281.409655 
L 428.555307 -285.526158 
L 429.823735 -289.642662 
L 431.154112 -293.759166 
L 432.513117 -297.875669 
L 433.869717 -301.992173 
L 435.196432 -306.108677 
L 436.470351 -310.22518 
L 437.673793 -314.341684 
L 438.794544 -318.458187 
L 439.825626 -322.574691 
L 440.764659 -326.691195 
L 441.612914 -330.807698 
L 442.374197 -334.924202 
L 443.053729 -339.040705 
L 443.657175 -343.157209 
L 444.189929 -347.273713 
L 444.65671 -351.390216 
L 445.061502 -355.50672 
L 445.407769 -359.623223 
L 445.698904 -363.739727 
L 445.938798 -367.856231 
L 446.132447 -371.972734 
L 446.28649 -376.089238 
L 446.409604 -380.205741 
L 446.512664 -384.322245 
L 446.608616 -388.438749 
L 446.712041 -392.555252 
L 446.838402 -396.671756 
L 447.003037 -400.788259 
L 447.219984 -404.904763 
L 447.500785 -409.021267 
L 447.853418 -413.13777 
L 448.281511 -417.254274 
L 448.783959 -421.370777 
L 449.355007 -425.487281 
L 449.984784 -429.603785 
L 450.660221 -433.720288 
L 451.3662 -437.836792 
L 452.086803 -441.953295 
L 452.806461 -446.069799 
L 453.510922 -450.186303 
L 454.187921 -454.302806 
L 454.827563 -458.41931 
L 455.422427 -462.535813 
L 455.967463 -466.652317 
L 456.459754 -470.768821 
L 456.898219 -474.885324 
L 457.283306 -479.001828 
L 457.616711 -483.118331 
L 457.901126 -487.234835 
L 458.140022 -491.351339 
L 458.337449 -495.467842 
L 458.497845 -499.584346 
L 458.625844 -503.700849 
L 458.726101 -507.817353 
L 458.803121 -511.933857 
L 459.196879 -511.933857 
L 459.196879 -511.933857 
L 459.273899 -507.817353 
L 459.374156 -503.700849 
L 459.502155 -499.584346 
L 459.662551 -495.467842 
L 459.859978 -491.351339 
L 460.098874 -487.234835 
L 460.383289 -483.118331 
L 460.716694 -479.001828 
L 461.101781 -474.885324 
L 461.540246 -470.768821 
L 462.032537 -466.652317 
L 462.577573 -462.535813 
L 463.172437 -458.41931 
L 463.812079 -454.302806 
L 464.489078 -450.186303 
L 465.193539 -446.069799 
L 465.913197 -441.953295 
L 466.6338 -437.836792 
L 467.339779 -433.720288 
L 468.015216 -429.603785 
L 468.644993 -425.487281 
L 469.216041 -421.370777 
L 469.718489 -417.254274 
L 470.146582 -413.13777 
L 470.499215 -409.021267 
L 470.780016 -404.904763 
L 470.996963 -400.788259 
L 471.161598 -396.671756 
L 471.287959 -392.555252 
L 471.391384 -388.438749 
L 471.487336 -384.322245 
L 471.590396 -380.205741 
L 471.71351 -376.089238 
L 471.867553 -371.972734 
L 472.061202 -367.856231 
L 472.301096 -363.739727 
L 472.592231 -359.623223 
L 472.938498 -355.50672 
L 473.34329 -351.390216 
L 473.810071 -347.273713 
L 474.342825 -343.157209 
L 474.946271 -339.040705 
L 475.625803 -334.924202 
L 476.387086 -330.807698 
L 477.235341 -326.691195 
L 478.174374 -322.574691 
L 479.205456 -318.458187 
L 480.326207 -314.341684 
L 481.529649 -310.22518 
L 482.803568 -306.108677 
L 484.130283 -301.992173 
L 485.486883 -297.875669 
L 486.845888 -293.759166 
L 488.176265 -289.642662 
L 489.444693 -285.526158 
L 490.616936 -281.409655 
L 491.659227 -277.293151 
L 492.53958 -273.176648 
L 493.228972 -269.060144 
L 493.702381 -264.94364 
L 493.939675 -260.827137 
L 493.92634 -256.710633 
L 493.654059 -252.59413 
L 493.1211 -248.477626 
L 492.332522 -244.361122 
L 491.300151 -240.244619 
L 490.042326 -236.128115 
L 488.583403 -232.011612 
L 486.953015 -227.895108 
L 485.185099 -223.778604 
L 483.316717 -219.662101 
L 481.386692 -215.545597 
L 479.434105 -211.429094 
L 477.496729 -207.31259 
L 475.609468 -203.196086 
L 473.802928 -199.079583 
L 472.102211 -194.963079 
L 470.526069 -190.846576 
L 469.086486 -186.730072 
L 467.788747 -182.613568 
L 466.631981 -178.497065 
L 465.610121 -174.380561 
L 464.713171 -170.264058 
L 463.928624 -166.147554 
L 463.242872 -162.03105 
L 462.642461 -157.914547 
L 462.115078 -153.798043 
L 461.650184 -149.68154 
L 461.239297 -145.565036 
L 460.875957 -141.448532 
L 460.555435 -137.332029 
L 460.274305 -133.215525 
L 460.029951 -129.099022 
L 459.820127 -124.982518 
L 459.6426 -120.866014 
L 459.494929 -116.749511 
L 459.37437 -112.633007 
L 459.277902 -108.516504 
L 459.202323 -104.4 
z
" style="stroke: #3f3f3f; stroke-width: 1.25"/>
    </defs>
    <g clip-path="url(#p84b327384e)">
     <use xlink:href="#m233e6f3fb1" x="0" y="720" style="fill: #3274a1; stroke: #3f3f3f; stroke-width: 1.25"/>
    </g>
   </g>
   <g id="PolyCollection_4">
    <defs>
     <path id="m36ae5431ac" d="M 570.771118 -113.959301 
L 570.428882 -113.959301 
L 570.359092 -117.931962 
L 570.267447 -121.904623 
L 570.149374 -125.877283 
L 569.999794 -129.849944 
L 569.812984 -133.822605 
L 569.58232 -137.795265 
L 569.299882 -141.767926 
L 568.955963 -145.740586 
L 568.538553 -149.713247 
L 568.032935 -153.685908 
L 567.42156 -157.658568 
L 566.684375 -161.631229 
L 565.799764 -165.60389 
L 564.746164 -169.57655 
L 563.504313 -173.549211 
L 562.059934 -177.521872 
L 560.406553 -181.494532 
L 558.548027 -185.467193 
L 556.500364 -189.439853 
L 554.292452 -193.412514 
L 551.965485 -197.385175 
L 549.57103 -201.357835 
L 547.167917 -205.330496 
L 544.818294 -209.303157 
L 542.583323 -213.275817 
L 540.519016 -217.248478 
L 538.672665 -221.221138 
L 537.080223 -225.193799 
L 535.764819 -229.16646 
L 534.736458 -233.13912 
L 533.992826 -237.111781 
L 533.521012 -241.084442 
L 533.299909 -245.057102 
L 533.303036 -249.029763 
L 533.50149 -253.002424 
L 533.866755 -256.975084 
L 534.373111 -260.947745 
L 534.999393 -264.920405 
L 535.729921 -268.893066 
L 536.554498 -272.865727 
L 537.467487 -276.838387 
L 538.466108 -280.811048 
L 539.548251 -284.783709 
L 540.710177 -288.756369 
L 541.944526 -292.72903 
L 543.23903 -296.70169 
L 544.576187 -300.674351 
L 545.933988 -304.647012 
L 547.287588 -308.619672 
L 548.611624 -312.592333 
L 549.88275 -316.564994 
L 551.081957 -320.537654 
L 552.196255 -324.510315 
L 553.219465 -328.482976 
L 554.152035 -332.455636 
L 554.999966 -336.428297 
L 555.773108 -340.400957 
L 556.483146 -344.373618 
L 557.141642 -348.346279 
L 557.758421 -352.318939 
L 558.340519 -356.2916 
L 558.891772 -360.264261 
L 559.413023 -364.236921 
L 559.902822 -368.209582 
L 560.358455 -372.182242 
L 560.777094 -376.154903 
L 561.156914 -380.127564 
L 561.497995 -384.100224 
L 561.802925 -388.072885 
L 562.077032 -392.045546 
L 562.328221 -396.018206 
L 562.566436 -399.990867 
L 562.802821 -403.963528 
L 563.048667 -407.936188 
L 563.314281 -411.908849 
L 563.607928 -415.881509 
L 563.934981 -419.85417 
L 564.29741 -423.826831 
L 564.693664 -427.799491 
L 565.118966 -431.772152 
L 565.565961 -435.744813 
L 566.025593 -439.717473 
L 566.488088 -443.690134 
L 566.943884 -447.662794 
L 567.384383 -451.635455 
L 567.802466 -455.608116 
L 568.192738 -459.580776 
L 568.551537 -463.553437 
L 568.876768 -467.526098 
L 569.167644 -471.498758 
L 569.424402 -475.471419 
L 569.648053 -479.44408 
L 569.840182 -483.41674 
L 570.002806 -487.389401 
L 570.138274 -491.362061 
L 570.249189 -495.334722 
L 570.338327 -499.307383 
L 570.408555 -503.280043 
L 570.462732 -507.252704 
L 570.737268 -507.252704 
L 570.737268 -507.252704 
L 570.791445 -503.280043 
L 570.861673 -499.307383 
L 570.950811 -495.334722 
L 571.061726 -491.362061 
L 571.197194 -487.389401 
L 571.359818 -483.41674 
L 571.551947 -479.44408 
L 571.775598 -475.471419 
L 572.032356 -471.498758 
L 572.323232 -467.526098 
L 572.648463 -463.553437 
L 573.007262 -459.580776 
L 573.397534 -455.608116 
L 573.815617 -451.635455 
L 574.256116 -447.662794 
L 574.711912 -443.690134 
L 575.174407 -439.717473 
L 575.634039 -435.744813 
L 576.081034 -431.772152 
L 576.506336 -427.799491 
L 576.90259 -423.826831 
L 577.265019 -419.85417 
L 577.592072 -415.881509 
L 577.885719 -411.908849 
L 578.151333 -407.936188 
L 578.397179 -403.963528 
L 578.633564 -399.990867 
L 578.871779 -396.018206 
L 579.122968 -392.045546 
L 579.397075 -388.072885 
L 579.702005 -384.100224 
L 580.043086 -380.127564 
L 580.422906 -376.154903 
L 580.841545 -372.182242 
L 581.297178 -368.209582 
L 581.786977 -364.236921 
L 582.308228 -360.264261 
L 582.859481 -356.2916 
L 583.441579 -352.318939 
L 584.058358 -348.346279 
L 584.716854 -344.373618 
L 585.426892 -340.400957 
L 586.200034 -336.428297 
L 587.047965 -332.455636 
L 587.980535 -328.482976 
L 589.003745 -324.510315 
L 590.118043 -320.537654 
L 591.31725 -316.564994 
L 592.588376 -312.592333 
L 593.912412 -308.619672 
L 595.266012 -304.647012 
L 596.623813 -300.674351 
L 597.96097 -296.70169 
L 599.255474 -292.72903 
L 600.489823 -288.756369 
L 601.651749 -284.783709 
L 602.733892 -280.811048 
L 603.732513 -276.838387 
L 604.645502 -272.865727 
L 605.470079 -268.893066 
L 606.200607 -264.920405 
L 606.826889 -260.947745 
L 607.333245 -256.975084 
L 607.69851 -253.002424 
L 607.896964 -249.029763 
L 607.900091 -245.057102 
L 607.678988 -241.084442 
L 607.207174 -237.111781 
L 606.463542 -233.13912 
L 605.435181 -229.16646 
L 604.119777 -225.193799 
L 602.527335 -221.221138 
L 600.680984 -217.248478 
L 598.616677 -213.275817 
L 596.381706 -209.303157 
L 594.032083 -205.330496 
L 591.62897 -201.357835 
L 589.234515 -197.385175 
L 586.907548 -193.412514 
L 584.699636 -189.439853 
L 582.651973 -185.467193 
L 580.793447 -181.494532 
L 579.140066 -177.521872 
L 577.695687 -173.549211 
L 576.453836 -169.57655 
L 575.400236 -165.60389 
L 574.515625 -161.631229 
L 573.77844 -157.658568 
L 573.167065 -153.685908 
L 572.661447 -149.713247 
L 572.244037 -145.740586 
L 571.900118 -141.767926 
L 571.61768 -137.795265 
L 571.387016 -133.822605 
L 571.200206 -129.849944 
L 571.050626 -125.877283 
L 570.932553 -121.904623 
L 570.840908 -117.931962 
L 570.771118 -113.959301 
z
" style="stroke: #3f3f3f; stroke-width: 1.25"/>
    </defs>
    <g clip-path="url(#p84b327384e)">
     <use xlink:href="#m36ae5431ac" x="0" y="720" style="fill: #3274a1; stroke: #3f3f3f; stroke-width: 1.25"/>
    </g>
   </g>
   <g id="PolyCollection_5">
    <defs>
     <path id="mea0f313a78" d="M 682.512152 -112.39285 
L 681.887848 -112.39285 
L 681.762078 -116.392141 
L 681.597544 -120.391433 
L 681.386633 -124.390725 
L 681.121401 -128.390017 
L 680.793722 -132.389308 
L 680.395375 -136.3886 
L 679.918021 -140.387892 
L 679.353086 -144.387184 
L 678.691568 -148.386475 
L 677.923838 -152.385767 
L 677.039542 -156.385059 
L 676.027723 -160.384351 
L 674.877267 -164.383642 
L 673.577737 -168.382934 
L 672.120606 -172.382226 
L 670.500791 -176.381518 
L 668.718349 -180.380809 
L 666.780099 -184.380101 
L 664.700951 -188.379393 
L 662.504727 -192.378685 
L 660.224309 -196.377976 
L 657.901061 -200.377268 
L 655.583523 -204.37656 
L 653.32548 -208.375851 
L 651.183525 -212.375143 
L 649.214275 -216.374435 
L 647.471383 -220.373727 
L 646.002501 -224.373018 
L 644.846339 -228.37231 
L 644.030004 -232.371602 
L 643.566854 -236.370894 
L 643.455097 -240.370185 
L 643.677429 -244.369477 
L 644.201896 -248.368769 
L 644.984109 -252.368061 
L 645.970724 -256.367352 
L 647.103933 -260.366644 
L 648.32648 -264.365936 
L 649.586593 -268.365228 
L 650.842185 -272.364519 
L 652.063732 -276.363811 
L 653.235431 -280.363103 
L 654.354526 -284.362395 
L 655.428966 -288.361686 
L 656.473865 -292.360978 
L 657.50738 -296.36027 
L 658.546707 -300.359562 
L 659.604819 -304.358853 
L 660.688377 -308.358145 
L 661.796997 -312.357437 
L 662.923797 -316.356729 
L 664.056923 -320.35602 
L 665.18163 -324.355312 
L 666.282436 -328.354604 
L 667.344964 -332.353896 
L 668.357187 -336.353187 
L 669.309975 -340.352479 
L 670.197022 -344.351771 
L 671.014301 -348.351063 
L 671.759326 -352.350354 
L 672.430454 -356.349646 
L 673.02642 -360.348938 
L 673.546228 -364.34823 
L 673.989404 -368.347521 
L 674.356525 -372.346813 
L 674.649898 -376.346105 
L 674.87421 -380.345397 
L 675.036995 -384.344688 
L 675.148775 -388.34398 
L 675.222828 -392.343272 
L 675.274555 -396.342564 
L 675.320511 -400.341855 
L 675.377214 -404.341147 
L 675.459859 -408.340439 
L 675.581117 -412.33973 
L 675.750156 -416.339022 
L 675.971999 -420.338314 
L 676.247318 -424.337606 
L 676.572646 -428.336897 
L 676.940993 -432.336189 
L 677.342745 -436.335481 
L 677.76673 -440.334773 
L 678.201297 -444.334064 
L 678.63528 -448.333356 
L 679.058746 -452.332648 
L 679.463477 -456.33194 
L 679.843181 -460.331231 
L 680.193473 -464.330523 
L 680.511695 -468.329815 
L 680.796637 -472.329107 
L 681.048248 -476.328398 
L 681.26736 -480.32769 
L 681.455467 -484.326982 
L 681.614557 -488.326274 
L 681.746982 -492.325565 
L 681.855351 -496.324857 
L 681.942439 -500.324149 
L 682.011089 -504.323441 
L 682.064116 -508.322732 
L 682.335884 -508.322732 
L 682.335884 -508.322732 
L 682.388911 -504.323441 
L 682.457561 -500.324149 
L 682.544649 -496.324857 
L 682.653018 -492.325565 
L 682.785443 -488.326274 
L 682.944533 -484.326982 
L 683.13264 -480.32769 
L 683.351752 -476.328398 
L 683.603363 -472.329107 
L 683.888305 -468.329815 
L 684.206527 -464.330523 
L 684.556819 -460.331231 
L 684.936523 -456.33194 
L 685.341254 -452.332648 
L 685.76472 -448.333356 
L 686.198703 -444.334064 
L 686.63327 -440.334773 
L 687.057255 -436.335481 
L 687.459007 -432.336189 
L 687.827354 -428.336897 
L 688.152682 -424.337606 
L 688.428001 -420.338314 
L 688.649844 -416.339022 
L 688.818883 -412.33973 
L 688.940141 -408.340439 
L 689.022786 -404.341147 
L 689.079489 -400.341855 
L 689.125445 -396.342564 
L 689.177172 -392.343272 
L 689.251225 -388.34398 
L 689.363005 -384.344688 
L 689.52579 -380.345397 
L 689.750102 -376.346105 
L 690.043475 -372.346813 
L 690.410596 -368.347521 
L 690.853772 -364.34823 
L 691.37358 -360.348938 
L 691.969546 -356.349646 
L 692.640674 -352.350354 
L 693.385699 -348.351063 
L 694.202978 -344.351771 
L 695.090025 -340.352479 
L 696.042813 -336.353187 
L 697.055036 -332.353896 
L 698.117564 -328.354604 
L 699.21837 -324.355312 
L 700.343077 -320.35602 
L 701.476203 -316.356729 
L 702.603003 -312.357437 
L 703.711623 -308.358145 
L 704.795181 -304.358853 
L 705.853293 -300.359562 
L 706.89262 -296.36027 
L 707.926135 -292.360978 
L 708.971034 -288.361686 
L 710.045474 -284.362395 
L 711.164569 -280.363103 
L 712.336268 -276.363811 
L 713.557815 -272.364519 
L 714.813407 -268.365228 
L 716.07352 -264.365936 
L 717.296067 -260.366644 
L 718.429276 -256.367352 
L 719.415891 -252.368061 
L 720.198104 -248.368769 
L 720.722571 -244.369477 
L 720.944903 -240.370185 
L 720.833146 -236.370894 
L 720.369996 -232.371602 
L 719.553661 -228.37231 
L 718.397499 -224.373018 
L 716.928617 -220.373727 
L 715.185725 -216.374435 
L 713.216475 -212.375143 
L 711.07452 -208.375851 
L 708.816477 -204.37656 
L 706.498939 -200.377268 
L 704.175691 -196.377976 
L 701.895273 -192.378685 
L 699.699049 -188.379393 
L 697.619901 -184.380101 
L 695.681651 -180.380809 
L 693.899209 -176.381518 
L 692.279394 -172.382226 
L 690.822263 -168.382934 
L 689.522733 -164.383642 
L 688.372277 -160.384351 
L 687.360458 -156.385059 
L 686.476162 -152.385767 
L 685.708432 -148.386475 
L 685.046914 -144.387184 
L 684.481979 -140.387892 
L 684.004625 -136.3886 
L 683.606278 -132.389308 
L 683.278599 -128.390017 
L 683.013367 -124.390725 
L 682.802456 -120.391433 
L 682.637922 -116.392141 
L 682.512152 -112.39285 
z
" style="stroke: #3f3f3f; stroke-width: 1.25"/>
    </defs>
    <g clip-path="url(#p84b327384e)">
     <use xlink:href="#mea0f313a78" x="0" y="720" style="fill: #3274a1; stroke: #3f3f3f; stroke-width: 1.25"/>
    </g>
   </g>
   <g id="PolyCollection_6">
    <defs>
     <path id="mde25b22c71" d="M 794.124903 -115.001532 
L 793.475097 -115.001532 
L 793.336852 -118.948123 
L 793.153165 -122.894714 
L 792.914154 -126.841306 
L 792.609217 -130.787897 
L 792.227235 -134.734488 
L 791.756763 -138.681079 
L 791.186206 -142.62767 
L 790.503977 -146.574261 
L 789.698692 -150.520852 
L 788.75944 -154.467443 
L 787.676178 -158.414034 
L 786.440288 -162.360625 
L 785.04528 -166.307216 
L 783.487588 -170.253808 
L 781.767379 -174.200399 
L 779.889274 -178.14699 
L 777.862903 -182.093581 
L 775.703277 -186.040172 
L 773.430986 -189.986763 
L 771.072302 -193.933354 
L 768.659232 -197.879945 
L 766.229523 -201.826536 
L 763.82654 -205.773127 
L 761.498821 -209.719718 
L 759.299069 -213.666309 
L 757.282363 -217.612901 
L 755.503468 -221.559492 
L 754.013343 -225.506083 
L 752.855174 -229.452674 
L 752.060462 -233.399265 
L 751.645819 -237.345856 
L 751.611077 -241.292447 
L 751.939151 -245.239038 
L 752.59777 -249.185629 
L 753.542865 -253.13222 
L 754.723085 -257.078811 
L 756.084719 -261.025402 
L 757.576267 -264.971994 
L 759.152004 -268.918585 
L 760.774157 -272.865176 
L 762.41357 -276.811767 
L 764.049042 -280.758358 
L 765.665733 -284.704949 
L 767.253126 -288.65154 
L 768.803046 -292.598131 
L 770.308111 -296.544722 
L 771.760875 -300.491313 
L 773.153687 -304.437904 
L 774.479194 -308.384495 
L 775.731247 -312.331087 
L 776.905945 -316.277678 
L 778.002521 -320.224269 
L 779.023853 -324.17086 
L 779.976433 -328.117451 
L 780.869751 -332.064042 
L 781.715161 -336.010633 
L 782.524354 -339.957224 
L 783.307686 -343.903815 
L 784.072583 -347.850406 
L 784.822276 -351.796997 
L 785.555062 -355.743588 
L 786.264224 -359.69018 
L 786.938641 -363.636771 
L 787.564027 -367.583362 
L 788.124675 -371.529953 
L 788.605483 -375.476544 
L 788.994025 -379.423135 
L 789.282424 -383.369726 
L 789.468769 -387.316317 
L 789.557919 -391.262908 
L 789.56155 -395.209499 
L 789.497425 -399.15609 
L 789.387953 -403.102681 
L 789.258184 -407.049273 
L 789.133494 -410.995864 
L 789.037243 -414.942455 
L 788.988697 -418.889046 
L 789.001503 -422.835637 
L 789.082862 -426.782228 
L 789.233497 -430.728819 
L 789.448343 -434.67541 
L 789.717799 -438.622001 
L 790.029308 -442.568592 
L 790.368992 -446.515183 
L 790.723124 -450.461774 
L 791.07925 -454.408366 
L 791.426905 -458.354957 
L 791.757916 -462.301548 
L 792.066369 -466.248139 
L 792.348377 -470.19473 
L 792.601728 -474.141321 
L 792.825545 -478.087912 
L 793.019984 -482.034503 
L 793.186008 -485.981094 
L 793.325214 -489.927685 
L 793.439699 -493.874276 
L 793.53194 -497.820867 
L 793.604658 -501.767459 
L 793.660688 -505.71405 
L 793.939312 -505.71405 
L 793.939312 -505.71405 
L 793.995342 -501.767459 
L 794.06806 -497.820867 
L 794.160301 -493.874276 
L 794.274786 -489.927685 
L 794.413992 -485.981094 
L 794.580016 -482.034503 
L 794.774455 -478.087912 
L 794.998272 -474.141321 
L 795.251623 -470.19473 
L 795.533631 -466.248139 
L 795.842084 -462.301548 
L 796.173095 -458.354957 
L 796.52075 -454.408366 
L 796.876876 -450.461774 
L 797.231008 -446.515183 
L 797.570692 -442.568592 
L 797.882201 -438.622001 
L 798.151657 -434.67541 
L 798.366503 -430.728819 
L 798.517138 -426.782228 
L 798.598497 -422.835637 
L 798.611303 -418.889046 
L 798.562757 -414.942455 
L 798.466506 -410.995864 
L 798.341816 -407.049273 
L 798.212047 -403.102681 
L 798.102575 -399.15609 
L 798.03845 -395.209499 
L 798.042081 -391.262908 
L 798.131231 -387.316317 
L 798.317576 -383.369726 
L 798.605975 -379.423135 
L 798.994517 -375.476544 
L 799.475325 -371.529953 
L 800.035973 -367.583362 
L 800.661359 -363.636771 
L 801.335776 -359.69018 
L 802.044938 -355.743588 
L 802.777724 -351.796997 
L 803.527417 -347.850406 
L 804.292314 -343.903815 
L 805.075646 -339.957224 
L 805.884839 -336.010633 
L 806.730249 -332.064042 
L 807.623567 -328.117451 
L 808.576147 -324.17086 
L 809.597479 -320.224269 
L 810.694055 -316.277678 
L 811.868753 -312.331087 
L 813.120806 -308.384495 
L 814.446313 -304.437904 
L 815.839125 -300.491313 
L 817.291889 -296.544722 
L 818.796954 -292.598131 
L 820.346874 -288.65154 
L 821.934267 -284.704949 
L 823.550958 -280.758358 
L 825.18643 -276.811767 
L 826.825843 -272.865176 
L 828.447996 -268.918585 
L 830.023733 -264.971994 
L 831.515281 -261.025402 
L 832.876915 -257.078811 
L 834.057135 -253.13222 
L 835.00223 -249.185629 
L 835.660849 -245.239038 
L 835.988923 -241.292447 
L 835.954181 -237.345856 
L 835.539538 -233.399265 
L 834.744826 -229.452674 
L 833.586657 -225.506083 
L 832.096532 -221.559492 
L 830.317637 -217.612901 
L 828.300931 -213.666309 
L 826.101179 -209.719718 
L 823.77346 -205.773127 
L 821.370477 -201.826536 
L 818.940768 -197.879945 
L 816.527698 -193.933354 
L 814.169014 -189.986763 
L 811.896723 -186.040172 
L 809.737097 -182.093581 
L 807.710726 -178.14699 
L 805.832621 -174.200399 
L 804.112412 -170.253808 
L 802.55472 -166.307216 
L 801.159712 -162.360625 
L 799.923822 -158.414034 
L 798.84056 -154.467443 
L 797.901308 -150.520852 
L 797.096023 -146.574261 
L 796.413794 -142.62767 
L 795.843237 -138.681079 
L 795.372765 -134.734488 
L 794.990783 -130.787897 
L 794.685846 -126.841306 
L 794.446835 -122.894714 
L 794.263148 -118.948123 
L 794.124903 -115.001532 
z
" style="stroke: #3f3f3f; stroke-width: 1.25"/>
    </defs>
    <g clip-path="url(#p84b327384e)">
     <use xlink:href="#mde25b22c71" x="0" y="720" style="fill: #3274a1; stroke: #3f3f3f; stroke-width: 1.25"/>
    </g>
   </g>
   <g id="PolyCollection_7">
    <defs>
     <path id="ma81b475b71" d="M 905.686046 -115.012177 
L 905.113954 -115.012177 
L 904.987815 -118.958553 
L 904.818095 -122.904929 
L 904.594467 -126.851305 
L 904.30557 -130.797681 
L 903.93918 -134.744057 
L 903.482403 -138.690433 
L 902.921855 -142.636809 
L 902.243863 -146.583185 
L 901.43471 -150.529561 
L 900.48097 -154.475937 
L 899.370001 -158.422313 
L 898.090614 -162.368689 
L 896.633932 -166.315065 
L 894.99439 -170.261441 
L 893.17077 -174.207817 
L 891.16717 -178.154193 
L 888.993798 -182.100569 
L 886.667527 -186.046946 
L 884.212215 -189.993322 
L 881.658832 -193.939698 
L 879.045462 -197.886074 
L 876.417206 -201.83245 
L 873.825907 -205.778826 
L 871.329537 -209.725202 
L 868.990982 -213.671578 
L 866.875952 -217.617954 
L 865.049863 -221.56433 
L 863.573709 -225.510706 
L 862.499243 -229.457082 
L 861.864036 -233.403458 
L 861.687156 -237.349834 
L 861.966257 -241.29621 
L 862.676706 -245.242586 
L 863.773057 -249.188962 
L 865.192811 -253.135338 
L 866.861964 -257.081714 
L 868.701563 -261.02809 
L 870.63434 -264.974466 
L 872.590526 -268.920842 
L 874.512159 -272.867219 
L 876.35551 -276.813595 
L 878.09159 -280.759971 
L 879.705016 -284.706347 
L 881.191712 -288.652723 
L 882.556018 -292.599099 
L 883.807745 -296.545475 
L 884.95962 -300.491851 
L 886.025362 -304.438227 
L 887.018489 -308.384603 
L 887.951766 -312.330979 
L 888.837124 -316.277355 
L 889.685798 -320.223731 
L 890.508457 -324.170107 
L 891.31514 -328.116483 
L 892.114907 -332.062859 
L 892.915197 -336.009235 
L 893.720997 -339.955611 
L 894.533978 -343.901987 
L 895.351787 -347.848363 
L 896.167683 -351.794739 
L 896.97065 -355.741116 
L 897.746041 -359.687492 
L 898.476732 -363.633868 
L 899.144679 -367.580244 
L 899.732716 -371.52662 
L 900.226387 -375.472996 
L 900.615619 -379.419372 
L 900.896036 -383.365748 
L 901.06977 -387.312124 
L 901.14566 -391.2585 
L 901.138798 -395.204876 
L 901.069441 -399.151252 
L 900.961378 -403.097628 
L 900.839912 -407.044004 
L 900.729673 -410.99038 
L 900.652506 -414.936756 
L 900.6257 -418.883132 
L 900.660752 -422.829508 
L 900.762832 -426.775884 
L 900.930959 -430.72226 
L 901.158848 -434.668636 
L 901.436222 -438.615013 
L 901.750392 -442.561389 
L 902.087829 -446.507765 
L 902.435527 -450.454141 
L 902.782 -454.400517 
L 903.117856 -458.346893 
L 903.43598 -462.293269 
L 903.731404 -466.239645 
L 904.001002 -470.186021 
L 904.24311 -474.132397 
L 904.45718 -478.078773 
L 904.643501 -482.025149 
L 904.803011 -485.971525 
L 904.937173 -489.917901 
L 905.047884 -493.864277 
L 905.13739 -497.810653 
L 905.208191 -501.757029 
L 905.262918 -505.703405 
L 905.537082 -505.703405 
L 905.537082 -505.703405 
L 905.591809 -501.757029 
L 905.66261 -497.810653 
L 905.752116 -493.864277 
L 905.862827 -489.917901 
L 905.996989 -485.971525 
L 906.156499 -482.025149 
L 906.34282 -478.078773 
L 906.55689 -474.132397 
L 906.798998 -470.186021 
L 907.068596 -466.239645 
L 907.36402 -462.293269 
L 907.682144 -458.346893 
L 908.018 -454.400517 
L 908.364473 -450.454141 
L 908.712171 -446.507765 
L 909.049608 -442.561389 
L 909.363778 -438.615013 
L 909.641152 -434.668636 
L 909.869041 -430.72226 
L 910.037168 -426.775884 
L 910.139248 -422.829508 
L 910.1743 -418.883132 
L 910.147494 -414.936756 
L 910.070327 -410.99038 
L 909.960088 -407.044004 
L 909.838622 -403.097628 
L 909.730559 -399.151252 
L 909.661202 -395.204876 
L 909.65434 -391.2585 
L 909.73023 -387.312124 
L 909.903964 -383.365748 
L 910.184381 -379.419372 
L 910.573613 -375.472996 
L 911.067284 -371.52662 
L 911.655321 -367.580244 
L 912.323268 -363.633868 
L 913.053959 -359.687492 
L 913.82935 -355.741116 
L 914.632317 -351.794739 
L 915.448213 -347.848363 
L 916.266022 -343.901987 
L 917.079003 -339.955611 
L 917.884803 -336.009235 
L 918.685093 -332.062859 
L 919.48486 -328.116483 
L 920.291543 -324.170107 
L 921.114202 -320.223731 
L 921.962876 -316.277355 
L 922.848234 -312.330979 
L 923.781511 -308.384603 
L 924.774638 -304.438227 
L 925.84038 -300.491851 
L 926.992255 -296.545475 
L 928.243982 -292.599099 
L 929.608288 -288.652723 
L 931.094984 -284.706347 
L 932.70841 -280.759971 
L 934.44449 -276.813595 
L 936.287841 -272.867219 
L 938.209474 -268.920842 
L 940.16566 -264.974466 
L 942.098437 -261.02809 
L 943.938036 -257.081714 
L 945.607189 -253.135338 
L 947.026943 -249.188962 
L 948.123294 -245.242586 
L 948.833743 -241.29621 
L 949.112844 -237.349834 
L 948.935964 -233.403458 
L 948.300757 -229.457082 
L 947.226291 -225.510706 
L 945.750137 -221.56433 
L 943.924048 -217.617954 
L 941.809018 -213.671578 
L 939.470463 -209.725202 
L 936.974093 -205.778826 
L 934.382794 -201.83245 
L 931.754538 -197.886074 
L 929.141168 -193.939698 
L 926.587785 -189.993322 
L 924.132473 -186.046946 
L 921.806202 -182.100569 
L 919.63283 -178.154193 
L 917.62923 -174.207817 
L 915.80561 -170.261441 
L 914.166068 -166.315065 
L 912.709386 -162.368689 
L 911.429999 -158.422313 
L 910.31903 -154.475937 
L 909.36529 -150.529561 
L 908.556137 -146.583185 
L 907.878145 -142.636809 
L 907.317597 -138.690433 
L 906.86082 -134.744057 
L 906.49443 -130.797681 
L 906.205533 -126.851305 
L 905.981905 -122.904929 
L 905.812185 -118.958553 
L 905.686046 -115.012177 
z
" style="stroke: #3f3f3f; stroke-width: 1.25"/>
    </defs>
    <g clip-path="url(#p84b327384e)">
     <use xlink:href="#ma81b475b71" x="0" y="720" style="fill: #3274a1; stroke: #3f3f3f; stroke-width: 1.25"/>
    </g>
   </g>
   <g id="PolyCollection_8">
    <defs>
     <path id="mdee802964d" d="M 1017.320544 -115.454162 
L 1016.679456 -115.454162 
L 1016.527598 -119.381848 
L 1016.318422 -123.309534 
L 1016.03663 -127.23722 
L 1015.66509 -131.164907 
L 1015.185294 -135.092593 
L 1014.578017 -139.020279 
L 1013.82418 -142.947965 
L 1012.905912 -146.875652 
L 1011.807775 -150.803338 
L 1010.518111 -154.731024 
L 1009.030434 -158.65871 
L 1007.344729 -162.586396 
L 1005.468487 -166.514083 
L 1003.417279 -170.441769 
L 1001.214654 -174.369455 
L 998.891242 -178.297141 
L 996.483044 -182.224827 
L 994.029081 -186.152514 
L 991.568744 -190.0802 
L 989.13935 -194.007886 
L 986.77441 -197.935572 
L 984.503073 -201.863258 
L 982.350918 -205.790945 
L 980.341954 -209.718631 
L 978.501331 -213.646317 
L 976.857976 -217.574003 
L 975.446276 -221.50169 
L 974.30604 -225.429376 
L 973.480347 -229.357062 
L 973.011329 -233.284748 
L 972.934516 -237.212434 
L 973.272733 -241.140121 
L 974.030761 -245.067807 
L 975.191898 -248.995493 
L 976.717184 -252.923179 
L 978.547575 -256.850865 
L 980.60876 -260.778552 
L 982.81782 -264.706238 
L 985.090665 -268.633924 
L 987.349083 -272.56161 
L 989.526456 -276.489296 
L 991.571499 -280.416983 
L 993.449811 -284.344669 
L 995.143407 -288.272355 
L 996.648657 -292.200041 
L 997.973242 -296.127728 
L 999.13272 -300.055414 
L 1000.147207 -303.9831 
L 1001.038569 -307.910786 
L 1001.828328 -311.838472 
L 1002.536359 -315.766159 
L 1003.180334 -319.693845 
L 1003.775765 -323.621531 
L 1004.336429 -327.549217 
L 1004.874925 -331.476903 
L 1005.403105 -335.40459 
L 1005.932189 -339.332276 
L 1006.472425 -343.259962 
L 1007.03234 -347.187648 
L 1007.617702 -351.115334 
L 1008.230429 -355.043021 
L 1008.867758 -358.970707 
L 1009.5219 -362.898393 
L 1010.180377 -366.826079 
L 1010.827059 -370.753766 
L 1011.4438 -374.681452 
L 1012.012443 -378.609138 
L 1012.516903 -382.536824 
L 1012.945004 -386.46451 
L 1013.289833 -390.392197 
L 1013.550437 -394.319883 
L 1013.731792 -398.247569 
L 1013.84411 -402.175255 
L 1013.901601 -406.102941 
L 1013.920891 -410.030628 
L 1013.91931 -413.958314 
L 1013.91327 -417.886 
L 1013.916908 -421.813686 
L 1013.941143 -425.741372 
L 1013.993203 -429.669059 
L 1014.07662 -433.596745 
L 1014.191623 -437.524431 
L 1014.335805 -441.452117 
L 1014.504911 -445.379804 
L 1014.693614 -449.30749 
L 1014.896158 -453.235176 
L 1015.106824 -457.162862 
L 1015.320211 -461.090548 
L 1015.531368 -465.018235 
L 1015.735851 -468.945921 
L 1015.929761 -472.873607 
L 1016.109792 -476.801293 
L 1016.273322 -480.728979 
L 1016.418504 -484.656666 
L 1016.544339 -488.584352 
L 1016.650704 -492.512038 
L 1016.738296 -496.439724 
L 1016.80851 -500.36741 
L 1016.863261 -504.295097 
L 1017.136739 -504.295097 
L 1017.136739 -504.295097 
L 1017.19149 -500.36741 
L 1017.261704 -496.439724 
L 1017.349296 -492.512038 
L 1017.455661 -488.584352 
L 1017.581496 -484.656666 
L 1017.726678 -480.728979 
L 1017.890208 -476.801293 
L 1018.070239 -472.873607 
L 1018.264149 -468.945921 
L 1018.468632 -465.018235 
L 1018.679789 -461.090548 
L 1018.893176 -457.162862 
L 1019.103842 -453.235176 
L 1019.306386 -449.30749 
L 1019.495089 -445.379804 
L 1019.664195 -441.452117 
L 1019.808377 -437.524431 
L 1019.92338 -433.596745 
L 1020.006797 -429.669059 
L 1020.058857 -425.741372 
L 1020.083092 -421.813686 
L 1020.08673 -417.886 
L 1020.08069 -413.958314 
L 1020.079109 -410.030628 
L 1020.098399 -406.102941 
L 1020.15589 -402.175255 
L 1020.268208 -398.247569 
L 1020.449563 -394.319883 
L 1020.710167 -390.392197 
L 1021.054996 -386.46451 
L 1021.483097 -382.536824 
L 1021.987557 -378.609138 
L 1022.5562 -374.681452 
L 1023.172941 -370.753766 
L 1023.819623 -366.826079 
L 1024.4781 -362.898393 
L 1025.132242 -358.970707 
L 1025.769571 -355.043021 
L 1026.382298 -351.115334 
L 1026.96766 -347.187648 
L 1027.527575 -343.259962 
L 1028.067811 -339.332276 
L 1028.596895 -335.40459 
L 1029.125075 -331.476903 
L 1029.663571 -327.549217 
L 1030.224235 -323.621531 
L 1030.819666 -319.693845 
L 1031.463641 -315.766159 
L 1032.171672 -311.838472 
L 1032.961431 -307.910786 
L 1033.852793 -303.9831 
L 1034.86728 -300.055414 
L 1036.026758 -296.127728 
L 1037.351343 -292.200041 
L 1038.856593 -288.272355 
L 1040.550189 -284.344669 
L 1042.428501 -280.416983 
L 1044.473544 -276.489296 
L 1046.650917 -272.56161 
L 1048.909335 -268.633924 
L 1051.18218 -264.706238 
L 1053.39124 -260.778552 
L 1055.452425 -256.850865 
L 1057.282816 -252.923179 
L 1058.808102 -248.995493 
L 1059.969239 -245.067807 
L 1060.727267 -241.140121 
L 1061.065484 -237.212434 
L 1060.988671 -233.284748 
L 1060.519653 -229.357062 
L 1059.69396 -225.429376 
L 1058.553724 -221.50169 
L 1057.142024 -217.574003 
L 1055.498669 -213.646317 
L 1053.658046 -209.718631 
L 1051.649082 -205.790945 
L 1049.496927 -201.863258 
L 1047.22559 -197.935572 
L 1044.86065 -194.007886 
L 1042.431256 -190.0802 
L 1039.970919 -186.152514 
L 1037.516956 -182.224827 
L 1035.108758 -178.297141 
L 1032.785346 -174.369455 
L 1030.582721 -170.441769 
L 1028.531513 -166.514083 
L 1026.655271 -162.586396 
L 1024.969566 -158.65871 
L 1023.481889 -154.731024 
L 1022.192225 -150.803338 
L 1021.094088 -146.875652 
L 1020.17582 -142.947965 
L 1019.421983 -139.020279 
L 1018.814706 -135.092593 
L 1018.33491 -131.164907 
L 1017.96337 -127.23722 
L 1017.681578 -123.309534 
L 1017.472402 -119.381848 
L 1017.320544 -115.454162 
z
" style="stroke: #3f3f3f; stroke-width: 1.25"/>
    </defs>
    <g clip-path="url(#p84b327384e)">
     <use xlink:href="#mdee802964d" x="0" y="720" style="fill: #3274a1; stroke: #3f3f3f; stroke-width: 1.25"/>
    </g>
   </g>
   <g id="PolyCollection_9">
    <defs>
     <path id="me07424c97f" d="M 1128.908942 -116.399776 
L 1128.291058 -116.399776 
L 1128.157015 -120.011904 
L 1127.976612 -123.624032 
L 1127.738464 -127.23616 
L 1127.429849 -130.848288 
L 1127.036899 -134.460416 
L 1126.544867 -138.072544 
L 1125.938459 -141.684671 
L 1125.202255 -145.296799 
L 1124.321227 -148.908927 
L 1123.281391 -152.521055 
L 1122.070625 -156.133183 
L 1120.67965 -159.745311 
L 1119.10316 -163.357439 
L 1117.341018 -166.969567 
L 1115.399369 -170.581695 
L 1113.2915 -174.193822 
L 1111.038247 -177.80595 
L 1108.667771 -181.418078 
L 1106.21463 -185.030206 
L 1103.718185 -188.642334 
L 1101.22052 -192.254462 
L 1098.764179 -195.86659 
L 1096.390103 -199.478718 
L 1094.136107 -203.090845 
L 1092.036165 -206.702973 
L 1090.120554 -210.315101 
L 1088.416708 -213.927229 
L 1086.95043 -217.539357 
L 1085.746969 -221.151485 
L 1084.831469 -224.763613 
L 1084.22843 -228.375741 
L 1083.96 -231.987869 
L 1084.043264 -235.599996 
L 1084.486937 -239.212124 
L 1085.288083 -242.824252 
L 1086.429555 -246.43638 
L 1087.878791 -250.048508 
L 1089.588363 -253.660636 
L 1091.498393 -257.272764 
L 1093.540622 -260.884892 
L 1095.643599 -264.49702 
L 1097.738312 -268.109147 
L 1099.763482 -271.721275 
L 1101.669844 -275.333403 
L 1103.422909 -278.945531 
L 1105.003961 -282.557659 
L 1106.409306 -286.169787 
L 1107.648031 -289.781915 
L 1108.738715 -293.394043 
L 1109.705611 -297.006171 
L 1110.574846 -300.618298 
L 1111.371101 -304.230426 
L 1112.115142 -307.842554 
L 1112.822403 -311.454682 
L 1113.502659 -315.06681 
L 1114.160672 -318.678938 
L 1114.797576 -322.291066 
L 1115.412656 -325.903194 
L 1116.005157 -329.515321 
L 1116.575772 -333.127449 
L 1117.127538 -336.739577 
L 1117.665999 -340.351705 
L 1118.19862 -343.963833 
L 1118.733595 -347.575961 
L 1119.278285 -351.188089 
L 1119.837606 -354.800217 
L 1120.412674 -358.412345 
L 1120.999972 -362.024472 
L 1121.5912 -365.6366 
L 1122.173861 -369.248728 
L 1122.732495 -372.860856 
L 1123.2504 -376.472984 
L 1123.711589 -380.085112 
L 1124.102726 -383.69724 
L 1124.414797 -387.309368 
L 1124.644302 -390.921496 
L 1124.793855 -394.533623 
L 1124.872115 -398.145751 
L 1124.893076 -401.757879 
L 1124.874801 -405.370007 
L 1124.837738 -408.982135 
L 1124.802808 -412.594263 
L 1124.789464 -416.206391 
L 1124.813938 -419.818519 
L 1124.88787 -423.430647 
L 1125.017454 -427.042774 
L 1125.203191 -430.654902 
L 1125.440259 -434.26703 
L 1125.719415 -437.879158 
L 1126.028296 -441.491286 
L 1126.352932 -445.103414 
L 1126.679256 -448.715542 
L 1126.994443 -452.32767 
L 1127.287919 -455.939797 
L 1127.551971 -459.551925 
L 1127.781953 -463.164053 
L 1127.976116 -466.776181 
L 1128.135175 -470.388309 
L 1128.261716 -474.000437 
L 1128.938284 -474.000437 
L 1128.938284 -474.000437 
L 1129.064825 -470.388309 
L 1129.223884 -466.776181 
L 1129.418047 -463.164053 
L 1129.648029 -459.551925 
L 1129.912081 -455.939797 
L 1130.205557 -452.32767 
L 1130.520744 -448.715542 
L 1130.847068 -445.103414 
L 1131.171704 -441.491286 
L 1131.480585 -437.879158 
L 1131.759741 -434.26703 
L 1131.996809 -430.654902 
L 1132.182546 -427.042774 
L 1132.31213 -423.430647 
L 1132.386062 -419.818519 
L 1132.410536 -416.206391 
L 1132.397192 -412.594263 
L 1132.362262 -408.982135 
L 1132.325199 -405.370007 
L 1132.306924 -401.757879 
L 1132.327885 -398.145751 
L 1132.406145 -394.533623 
L 1132.555698 -390.921496 
L 1132.785203 -387.309368 
L 1133.097274 -383.69724 
L 1133.488411 -380.085112 
L 1133.9496 -376.472984 
L 1134.467505 -372.860856 
L 1135.026139 -369.248728 
L 1135.6088 -365.6366 
L 1136.200028 -362.024472 
L 1136.787326 -358.412345 
L 1137.362394 -354.800217 
L 1137.921715 -351.188089 
L 1138.466405 -347.575961 
L 1139.00138 -343.963833 
L 1139.534001 -340.351705 
L 1140.072462 -336.739577 
L 1140.624228 -333.127449 
L 1141.194843 -329.515321 
L 1141.787344 -325.903194 
L 1142.402424 -322.291066 
L 1143.039328 -318.678938 
L 1143.697341 -315.06681 
L 1144.377597 -311.454682 
L 1145.084858 -307.842554 
L 1145.828899 -304.230426 
L 1146.625154 -300.618298 
L 1147.494389 -297.006171 
L 1148.461285 -293.394043 
L 1149.551969 -289.781915 
L 1150.790694 -286.169787 
L 1152.196039 -282.557659 
L 1153.777091 -278.945531 
L 1155.530156 -275.333403 
L 1157.436518 -271.721275 
L 1159.461688 -268.109147 
L 1161.556401 -264.49702 
L 1163.659378 -260.884892 
L 1165.701607 -257.272764 
L 1167.611637 -253.660636 
L 1169.321209 -250.048508 
L 1170.770445 -246.43638 
L 1171.911917 -242.824252 
L 1172.713063 -239.212124 
L 1173.156736 -235.599996 
L 1173.24 -231.987869 
L 1172.97157 -228.375741 
L 1172.368531 -224.763613 
L 1171.453031 -221.151485 
L 1170.24957 -217.539357 
L 1168.783292 -213.927229 
L 1167.079446 -210.315101 
L 1165.163835 -206.702973 
L 1163.063893 -203.090845 
L 1160.809897 -199.478718 
L 1158.435821 -195.86659 
L 1155.97948 -192.254462 
L 1153.481815 -188.642334 
L 1150.98537 -185.030206 
L 1148.532229 -181.418078 
L 1146.161753 -177.80595 
L 1143.9085 -174.193822 
L 1141.800631 -170.581695 
L 1139.858982 -166.969567 
L 1138.09684 -163.357439 
L 1136.52035 -159.745311 
L 1135.129375 -156.133183 
L 1133.918609 -152.521055 
L 1132.878773 -148.908927 
L 1131.997745 -145.296799 
L 1131.261541 -141.684671 
L 1130.655133 -138.072544 
L 1130.163101 -134.460416 
L 1129.770151 -130.848288 
L 1129.461536 -127.23616 
L 1129.223388 -123.624032 
L 1129.042985 -120.011904 
L 1128.908942 -116.399776 
z
" style="stroke: #3f3f3f; stroke-width: 1.25"/>
    </defs>
    <g clip-path="url(#p84b327384e)">
     <use xlink:href="#me07424c97f" x="0" y="720" style="fill: #3274a1; stroke: #3f3f3f; stroke-width: 1.25"/>
    </g>
   </g>
   <g id="PolyCollection_10">
    <defs>
     <path id="m03c25a0705" d="M 1240.508042 -115.023756 
L 1239.891958 -115.023756 
L 1239.760713 -118.663683 
L 1239.584445 -122.303609 
L 1239.35186 -125.943535 
L 1239.050069 -129.583461 
L 1238.66463 -133.223388 
L 1238.179634 -136.863314 
L 1237.577856 -140.50324 
L 1236.841016 -144.143166 
L 1235.950188 -147.783093 
L 1234.886447 -151.423019 
L 1233.631825 -155.062945 
L 1232.170641 -158.702872 
L 1230.491212 -162.342798 
L 1228.587888 -165.982724 
L 1226.463229 -169.62265 
L 1224.130084 -173.262577 
L 1221.613207 -176.902503 
L 1218.950051 -180.542429 
L 1216.190412 -184.182355 
L 1213.394728 -187.822282 
L 1210.631019 -191.462208 
L 1207.970717 -195.102134 
L 1205.483805 -198.74206 
L 1203.233921 -202.381987 
L 1201.27405 -206.021913 
L 1199.64345 -209.661839 
L 1198.366178 -213.301766 
L 1197.451346 -216.941692 
L 1196.89492 -220.581618 
L 1196.682567 -224.221544 
L 1196.79295 -227.861471 
L 1197.200777 -231.501397 
L 1197.879089 -235.141323 
L 1198.800466 -238.781249 
L 1199.937158 -242.421176 
L 1201.260399 -246.061102 
L 1202.739366 -249.701028 
L 1204.340313 -253.340954 
L 1206.026342 -256.980881 
L 1207.758082 -260.620807 
L 1209.495319 -264.260733 
L 1211.199342 -267.90066 
L 1212.835632 -271.540586 
L 1214.376368 -275.180512 
L 1215.802323 -278.820438 
L 1217.103782 -282.460365 
L 1218.280373 -286.100291 
L 1219.339843 -289.740217 
L 1220.296055 -293.380143 
L 1221.166571 -297.02007 
L 1221.970207 -300.659996 
L 1222.724943 -304.299922 
L 1223.446429 -307.939849 
L 1224.147201 -311.579775 
L 1224.836576 -315.219701 
L 1225.521072 -318.859627 
L 1226.205117 -322.499554 
L 1226.891808 -326.13948 
L 1227.583491 -329.779406 
L 1228.282029 -333.419332 
L 1228.988698 -337.059259 
L 1229.703782 -340.699185 
L 1230.425976 -344.339111 
L 1231.151785 -347.979037 
L 1231.875078 -351.618964 
L 1232.586946 -355.25889 
L 1233.275932 -358.898816 
L 1233.928641 -362.538743 
L 1234.530678 -366.178669 
L 1235.067801 -369.818595 
L 1235.52717 -373.458521 
L 1235.898576 -377.098448 
L 1236.175513 -380.738374 
L 1236.356036 -384.3783 
L 1236.443295 -388.018226 
L 1236.445723 -391.658153 
L 1236.376813 -395.298079 
L 1236.254474 -398.938005 
L 1236.099981 -402.577931 
L 1235.936551 -406.217858 
L 1235.787652 -409.857784 
L 1235.675191 -413.49771 
L 1235.617755 -417.137637 
L 1235.629104 -420.777563 
L 1235.717103 -424.417489 
L 1235.883237 -428.057415 
L 1236.122753 -431.697342 
L 1236.425439 -435.337268 
L 1236.776906 -438.977194 
L 1237.160205 -442.61712 
L 1237.557566 -446.257047 
L 1237.952038 -449.896973 
L 1238.328839 -453.536899 
L 1238.676304 -457.176825 
L 1238.98636 -460.816752 
L 1239.254557 -464.456678 
L 1239.47974 -468.096604 
L 1239.663447 -471.736531 
L 1239.809185 -475.376457 
L 1240.590815 -475.376457 
L 1240.590815 -475.376457 
L 1240.736553 -471.736531 
L 1240.92026 -468.096604 
L 1241.145443 -464.456678 
L 1241.41364 -460.816752 
L 1241.723696 -457.176825 
L 1242.071161 -453.536899 
L 1242.447962 -449.896973 
L 1242.842434 -446.257047 
L 1243.239795 -442.61712 
L 1243.623094 -438.977194 
L 1243.974561 -435.337268 
L 1244.277247 -431.697342 
L 1244.516763 -428.057415 
L 1244.682897 -424.417489 
L 1244.770896 -420.777563 
L 1244.782245 -417.137637 
L 1244.724809 -413.49771 
L 1244.612348 -409.857784 
L 1244.463449 -406.217858 
L 1244.300019 -402.577931 
L 1244.145526 -398.938005 
L 1244.023187 -395.298079 
L 1243.954277 -391.658153 
L 1243.956705 -388.018226 
L 1244.043964 -384.3783 
L 1244.224487 -380.738374 
L 1244.501424 -377.098448 
L 1244.87283 -373.458521 
L 1245.332199 -369.818595 
L 1245.869322 -366.178669 
L 1246.471359 -362.538743 
L 1247.124068 -358.898816 
L 1247.813054 -355.25889 
L 1248.524922 -351.618964 
L 1249.248215 -347.979037 
L 1249.974024 -344.339111 
L 1250.696218 -340.699185 
L 1251.411302 -337.059259 
L 1252.117971 -333.419332 
L 1252.816509 -329.779406 
L 1253.508192 -326.13948 
L 1254.194883 -322.499554 
L 1254.878928 -318.859627 
L 1255.563424 -315.219701 
L 1256.252799 -311.579775 
L 1256.953571 -307.939849 
L 1257.675057 -304.299922 
L 1258.429793 -300.659996 
L 1259.233429 -297.02007 
L 1260.103945 -293.380143 
L 1261.060157 -289.740217 
L 1262.119627 -286.100291 
L 1263.296218 -282.460365 
L 1264.597677 -278.820438 
L 1266.023632 -275.180512 
L 1267.564368 -271.540586 
L 1269.200658 -267.90066 
L 1270.904681 -264.260733 
L 1272.641918 -260.620807 
L 1274.373658 -256.980881 
L 1276.059687 -253.340954 
L 1277.660634 -249.701028 
L 1279.139601 -246.061102 
L 1280.462842 -242.421176 
L 1281.599534 -238.781249 
L 1282.520911 -235.141323 
L 1283.199223 -231.501397 
L 1283.60705 -227.861471 
L 1283.717433 -224.221544 
L 1283.50508 -220.581618 
L 1282.948654 -216.941692 
L 1282.033822 -213.301766 
L 1280.75655 -209.661839 
L 1279.12595 -206.021913 
L 1277.166079 -202.381987 
L 1274.916195 -198.74206 
L 1272.429283 -195.102134 
L 1269.768981 -191.462208 
L 1267.005272 -187.822282 
L 1264.209588 -184.182355 
L 1261.449949 -180.542429 
L 1258.786793 -176.902503 
L 1256.269916 -173.262577 
L 1253.936771 -169.62265 
L 1251.812112 -165.982724 
L 1249.908788 -162.342798 
L 1248.229359 -158.702872 
L 1246.768175 -155.062945 
L 1245.513553 -151.423019 
L 1244.449812 -147.783093 
L 1243.558984 -144.143166 
L 1242.822144 -140.50324 
L 1242.220366 -136.863314 
L 1241.73537 -133.223388 
L 1241.349931 -129.583461 
L 1241.04814 -125.943535 
L 1240.815555 -122.303609 
L 1240.639287 -118.663683 
L 1240.508042 -115.023756 
z
" style="stroke: #3f3f3f; stroke-width: 1.25"/>
    </defs>
    <g clip-path="url(#p84b327384e)">
     <use xlink:href="#m03c25a0705" x="0" y="720" style="fill: #3274a1; stroke: #3f3f3f; stroke-width: 1.25"/>
    </g>
   </g>
   <g id="matplotlib.axis_1">
    <g id="xtick_1">
     <g id="line2d_1">
      <defs>
       <path id="mc54df26045" d="M 0 0 
L 0 3.5 
" style="stroke: #000000; stroke-width: 0.8"/>
      </defs>
      <g>
       <use xlink:href="#mc54df26045" x="235.8" y="640.8" style="stroke: #000000; stroke-width: 0.8"/>
      </g>
     </g>
     <g id="text_1">
      <!-- 0 -->
      <g transform="translate(232.61875 655.398438) scale(0.1 -0.1)">
       <defs>
        <path id="DejaVuSans-30" d="M 2034 4250 
Q 1547 4250 1301 3770 
Q 1056 3291 1056 2328 
Q 1056 1369 1301 889 
Q 1547 409 2034 409 
Q 2525 409 2770 889 
Q 3016 1369 3016 2328 
Q 3016 3291 2770 3770 
Q 2525 4250 2034 4250 
z
M 2034 4750 
Q 2819 4750 3233 4129 
Q 3647 3509 3647 2328 
Q 3647 1150 3233 529 
Q 2819 -91 2034 -91 
Q 1250 -91 836 529 
Q 422 1150 422 2328 
Q 422 3509 836 4129 
Q 1250 4750 2034 4750 
z
" transform="scale(0.015625)"/>
       </defs>
       <use xlink:href="#DejaVuSans-30"/>
      </g>
     </g>
    </g>
    <g id="xtick_2">
     <g id="line2d_2">
      <g>
       <use xlink:href="#mc54df26045" x="347.4" y="640.8" style="stroke: #000000; stroke-width: 0.8"/>
      </g>
     </g>
     <g id="text_2">
      <!-- 1 -->
      <g transform="translate(344.21875 655.398438) scale(0.1 -0.1)">
       <defs>
        <path id="DejaVuSans-31" d="M 794 531 
L 1825 531 
L 1825 4091 
L 703 3866 
L 703 4441 
L 1819 4666 
L 2450 4666 
L 2450 531 
L 3481 531 
L 3481 0 
L 794 0 
L 794 531 
z
" transform="scale(0.015625)"/>
       </defs>
       <use xlink:href="#DejaVuSans-31"/>
      </g>
     </g>
    </g>
    <g id="xtick_3">
     <g id="line2d_3">
      <g>
       <use xlink:href="#mc54df26045" x="459" y="640.8" style="stroke: #000000; stroke-width: 0.8"/>
      </g>
     </g>
     <g id="text_3">
      <!-- 2 -->
      <g transform="translate(455.81875 655.398438) scale(0.1 -0.1)">
       <defs>
        <path id="DejaVuSans-32" d="M 1228 531 
L 3431 531 
L 3431 0 
L 469 0 
L 469 531 
Q 828 903 1448 1529 
Q 2069 2156 2228 2338 
Q 2531 2678 2651 2914 
Q 2772 3150 2772 3378 
Q 2772 3750 2511 3984 
Q 2250 4219 1831 4219 
Q 1534 4219 1204 4116 
Q 875 4013 500 3803 
L 500 4441 
Q 881 4594 1212 4672 
Q 1544 4750 1819 4750 
Q 2544 4750 2975 4387 
Q 3406 4025 3406 3419 
Q 3406 3131 3298 2873 
Q 3191 2616 2906 2266 
Q 2828 2175 2409 1742 
Q 1991 1309 1228 531 
z
" transform="scale(0.015625)"/>
       </defs>
       <use xlink:href="#DejaVuSans-32"/>
      </g>
     </g>
    </g>
    <g id="xtick_4">
     <g id="line2d_4">
      <g>
       <use xlink:href="#mc54df26045" x="570.6" y="640.8" style="stroke: #000000; stroke-width: 0.8"/>
      </g>
     </g>
     <g id="text_4">
      <!-- 3 -->
      <g transform="translate(567.41875 655.398438) scale(0.1 -0.1)">
       <defs>
        <path id="DejaVuSans-33" d="M 2597 2516 
Q 3050 2419 3304 2112 
Q 3559 1806 3559 1356 
Q 3559 666 3084 287 
Q 2609 -91 1734 -91 
Q 1441 -91 1130 -33 
Q 819 25 488 141 
L 488 750 
Q 750 597 1062 519 
Q 1375 441 1716 441 
Q 2309 441 2620 675 
Q 2931 909 2931 1356 
Q 2931 1769 2642 2001 
Q 2353 2234 1838 2234 
L 1294 2234 
L 1294 2753 
L 1863 2753 
Q 2328 2753 2575 2939 
Q 2822 3125 2822 3475 
Q 2822 3834 2567 4026 
Q 2313 4219 1838 4219 
Q 1578 4219 1281 4162 
Q 984 4106 628 3988 
L 628 4550 
Q 988 4650 1302 4700 
Q 1616 4750 1894 4750 
Q 2613 4750 3031 4423 
Q 3450 4097 3450 3541 
Q 3450 3153 3228 2886 
Q 3006 2619 2597 2516 
z
" transform="scale(0.015625)"/>
       </defs>
       <use xlink:href="#DejaVuSans-33"/>
      </g>
     </g>
    </g>
    <g id="xtick_5">
     <g id="line2d_5">
      <g>
       <use xlink:href="#mc54df26045" x="682.2" y="640.8" style="stroke: #000000; stroke-width: 0.8"/>
      </g>
     </g>
     <g id="text_5">
      <!-- 4 -->
      <g transform="translate(679.01875 655.398438) scale(0.1 -0.1)">
       <defs>
        <path id="DejaVuSans-34" d="M 2419 4116 
L 825 1625 
L 2419 1625 
L 2419 4116 
z
M 2253 4666 
L 3047 4666 
L 3047 1625 
L 3713 1625 
L 3713 1100 
L 3047 1100 
L 3047 0 
L 2419 0 
L 2419 1100 
L 313 1100 
L 313 1709 
L 2253 4666 
z
" transform="scale(0.015625)"/>
       </defs>
       <use xlink:href="#DejaVuSans-34"/>
      </g>
     </g>
    </g>
    <g id="xtick_6">
     <g id="line2d_6">
      <g>
       <use xlink:href="#mc54df26045" x="793.8" y="640.8" style="stroke: #000000; stroke-width: 0.8"/>
      </g>
     </g>
     <g id="text_6">
      <!-- 5 -->
      <g transform="translate(790.61875 655.398438) scale(0.1 -0.1)">
       <defs>
        <path id="DejaVuSans-35" d="M 691 4666 
L 3169 4666 
L 3169 4134 
L 1269 4134 
L 1269 2991 
Q 1406 3038 1543 3061 
Q 1681 3084 1819 3084 
Q 2600 3084 3056 2656 
Q 3513 2228 3513 1497 
Q 3513 744 3044 326 
Q 2575 -91 1722 -91 
Q 1428 -91 1123 -41 
Q 819 9 494 109 
L 494 744 
Q 775 591 1075 516 
Q 1375 441 1709 441 
Q 2250 441 2565 725 
Q 2881 1009 2881 1497 
Q 2881 1984 2565 2268 
Q 2250 2553 1709 2553 
Q 1456 2553 1204 2497 
Q 953 2441 691 2322 
L 691 4666 
z
" transform="scale(0.015625)"/>
       </defs>
       <use xlink:href="#DejaVuSans-35"/>
      </g>
     </g>
    </g>
    <g id="xtick_7">
     <g id="line2d_7">
      <g>
       <use xlink:href="#mc54df26045" x="905.4" y="640.8" style="stroke: #000000; stroke-width: 0.8"/>
      </g>
     </g>
     <g id="text_7">
      <!-- 6 -->
      <g transform="translate(902.21875 655.398438) scale(0.1 -0.1)">
       <defs>
        <path id="DejaVuSans-36" d="M 2113 2584 
Q 1688 2584 1439 2293 
Q 1191 2003 1191 1497 
Q 1191 994 1439 701 
Q 1688 409 2113 409 
Q 2538 409 2786 701 
Q 3034 994 3034 1497 
Q 3034 2003 2786 2293 
Q 2538 2584 2113 2584 
z
M 3366 4563 
L 3366 3988 
Q 3128 4100 2886 4159 
Q 2644 4219 2406 4219 
Q 1781 4219 1451 3797 
Q 1122 3375 1075 2522 
Q 1259 2794 1537 2939 
Q 1816 3084 2150 3084 
Q 2853 3084 3261 2657 
Q 3669 2231 3669 1497 
Q 3669 778 3244 343 
Q 2819 -91 2113 -91 
Q 1303 -91 875 529 
Q 447 1150 447 2328 
Q 447 3434 972 4092 
Q 1497 4750 2381 4750 
Q 2619 4750 2861 4703 
Q 3103 4656 3366 4563 
z
" transform="scale(0.015625)"/>
       </defs>
       <use xlink:href="#DejaVuSans-36"/>
      </g>
     </g>
    </g>
    <g id="xtick_8">
     <g id="line2d_8">
      <g>
       <use xlink:href="#mc54df26045" x="1017" y="640.8" style="stroke: #000000; stroke-width: 0.8"/>
      </g>
     </g>
     <g id="text_8">
      <!-- 7 -->
      <g transform="translate(1013.81875 655.398438) scale(0.1 -0.1)">
       <defs>
        <path id="DejaVuSans-37" d="M 525 4666 
L 3525 4666 
L 3525 4397 
L 1831 0 
L 1172 0 
L 2766 4134 
L 525 4134 
L 525 4666 
z
" transform="scale(0.015625)"/>
       </defs>
       <use xlink:href="#DejaVuSans-37"/>
      </g>
     </g>
    </g>
    <g id="xtick_9">
     <g id="line2d_9">
      <g>
       <use xlink:href="#mc54df26045" x="1128.6" y="640.8" style="stroke: #000000; stroke-width: 0.8"/>
      </g>
     </g>
     <g id="text_9">
      <!-- 8 -->
      <g transform="translate(1125.41875 655.398438) scale(0.1 -0.1)">
       <defs>
        <path id="DejaVuSans-38" d="M 2034 2216 
Q 1584 2216 1326 1975 
Q 1069 1734 1069 1313 
Q 1069 891 1326 650 
Q 1584 409 2034 409 
Q 2484 409 2743 651 
Q 3003 894 3003 1313 
Q 3003 1734 2745 1975 
Q 2488 2216 2034 2216 
z
M 1403 2484 
Q 997 2584 770 2862 
Q 544 3141 544 3541 
Q 544 4100 942 4425 
Q 1341 4750 2034 4750 
Q 2731 4750 3128 4425 
Q 3525 4100 3525 3541 
Q 3525 3141 3298 2862 
Q 3072 2584 2669 2484 
Q 3125 2378 3379 2068 
Q 3634 1759 3634 1313 
Q 3634 634 3220 271 
Q 2806 -91 2034 -91 
Q 1263 -91 848 271 
Q 434 634 434 1313 
Q 434 1759 690 2068 
Q 947 2378 1403 2484 
z
M 1172 3481 
Q 1172 3119 1398 2916 
Q 1625 2713 2034 2713 
Q 2441 2713 2670 2916 
Q 2900 3119 2900 3481 
Q 2900 3844 2670 4047 
Q 2441 4250 2034 4250 
Q 1625 4250 1398 4047 
Q 1172 3844 1172 3481 
z
" transform="scale(0.015625)"/>
       </defs>
       <use xlink:href="#DejaVuSans-38"/>
      </g>
     </g>
    </g>
    <g id="xtick_10">
     <g id="line2d_10">
      <g>
       <use xlink:href="#mc54df26045" x="1240.2" y="640.8" style="stroke: #000000; stroke-width: 0.8"/>
      </g>
     </g>
     <g id="text_10">
      <!-- 9 -->
      <g transform="translate(1237.01875 655.398438) scale(0.1 -0.1)">
       <defs>
        <path id="DejaVuSans-39" d="M 703 97 
L 703 672 
Q 941 559 1184 500 
Q 1428 441 1663 441 
Q 2288 441 2617 861 
Q 2947 1281 2994 2138 
Q 2813 1869 2534 1725 
Q 2256 1581 1919 1581 
Q 1219 1581 811 2004 
Q 403 2428 403 3163 
Q 403 3881 828 4315 
Q 1253 4750 1959 4750 
Q 2769 4750 3195 4129 
Q 3622 3509 3622 2328 
Q 3622 1225 3098 567 
Q 2575 -91 1691 -91 
Q 1453 -91 1209 -44 
Q 966 3 703 97 
z
M 1959 2075 
Q 2384 2075 2632 2365 
Q 2881 2656 2881 3163 
Q 2881 3666 2632 3958 
Q 2384 4250 1959 4250 
Q 1534 4250 1286 3958 
Q 1038 3666 1038 3163 
Q 1038 2656 1286 2365 
Q 1534 2075 1959 2075 
z
" transform="scale(0.015625)"/>
       </defs>
       <use xlink:href="#DejaVuSans-39"/>
      </g>
     </g>
    </g>
    <g id="text_11">
     <!-- iteration -->
     <g transform="translate(716.877344 669.076563) scale(0.1 -0.1)">
      <defs>
       <path id="DejaVuSans-69" d="M 603 3500 
L 1178 3500 
L 1178 0 
L 603 0 
L 603 3500 
z
M 603 4863 
L 1178 4863 
L 1178 4134 
L 603 4134 
L 603 4863 
z
" transform="scale(0.015625)"/>
       <path id="DejaVuSans-74" d="M 1172 4494 
L 1172 3500 
L 2356 3500 
L 2356 3053 
L 1172 3053 
L 1172 1153 
Q 1172 725 1289 603 
Q 1406 481 1766 481 
L 2356 481 
L 2356 0 
L 1766 0 
Q 1100 0 847 248 
Q 594 497 594 1153 
L 594 3053 
L 172 3053 
L 172 3500 
L 594 3500 
L 594 4494 
L 1172 4494 
z
" transform="scale(0.015625)"/>
       <path id="DejaVuSans-65" d="M 3597 1894 
L 3597 1613 
L 953 1613 
Q 991 1019 1311 708 
Q 1631 397 2203 397 
Q 2534 397 2845 478 
Q 3156 559 3463 722 
L 3463 178 
Q 3153 47 2828 -22 
Q 2503 -91 2169 -91 
Q 1331 -91 842 396 
Q 353 884 353 1716 
Q 353 2575 817 3079 
Q 1281 3584 2069 3584 
Q 2775 3584 3186 3129 
Q 3597 2675 3597 1894 
z
M 3022 2063 
Q 3016 2534 2758 2815 
Q 2500 3097 2075 3097 
Q 1594 3097 1305 2825 
Q 1016 2553 972 2059 
L 3022 2063 
z
" transform="scale(0.015625)"/>
       <path id="DejaVuSans-72" d="M 2631 2963 
Q 2534 3019 2420 3045 
Q 2306 3072 2169 3072 
Q 1681 3072 1420 2755 
Q 1159 2438 1159 1844 
L 1159 0 
L 581 0 
L 581 3500 
L 1159 3500 
L 1159 2956 
Q 1341 3275 1631 3429 
Q 1922 3584 2338 3584 
Q 2397 3584 2469 3576 
Q 2541 3569 2628 3553 
L 2631 2963 
z
" transform="scale(0.015625)"/>
       <path id="DejaVuSans-61" d="M 2194 1759 
Q 1497 1759 1228 1600 
Q 959 1441 959 1056 
Q 959 750 1161 570 
Q 1363 391 1709 391 
Q 2188 391 2477 730 
Q 2766 1069 2766 1631 
L 2766 1759 
L 2194 1759 
z
M 3341 1997 
L 3341 0 
L 2766 0 
L 2766 531 
Q 2569 213 2275 61 
Q 1981 -91 1556 -91 
Q 1019 -91 701 211 
Q 384 513 384 1019 
Q 384 1609 779 1909 
Q 1175 2209 1959 2209 
L 2766 2209 
L 2766 2266 
Q 2766 2663 2505 2880 
Q 2244 3097 1772 3097 
Q 1472 3097 1187 3025 
Q 903 2953 641 2809 
L 641 3341 
Q 956 3463 1253 3523 
Q 1550 3584 1831 3584 
Q 2591 3584 2966 3190 
Q 3341 2797 3341 1997 
z
" transform="scale(0.015625)"/>
       <path id="DejaVuSans-6f" d="M 1959 3097 
Q 1497 3097 1228 2736 
Q 959 2375 959 1747 
Q 959 1119 1226 758 
Q 1494 397 1959 397 
Q 2419 397 2687 759 
Q 2956 1122 2956 1747 
Q 2956 2369 2687 2733 
Q 2419 3097 1959 3097 
z
M 1959 3584 
Q 2709 3584 3137 3096 
Q 3566 2609 3566 1747 
Q 3566 888 3137 398 
Q 2709 -91 1959 -91 
Q 1206 -91 779 398 
Q 353 888 353 1747 
Q 353 2609 779 3096 
Q 1206 3584 1959 3584 
z
" transform="scale(0.015625)"/>
       <path id="DejaVuSans-6e" d="M 3513 2113 
L 3513 0 
L 2938 0 
L 2938 2094 
Q 2938 2591 2744 2837 
Q 2550 3084 2163 3084 
Q 1697 3084 1428 2787 
Q 1159 2491 1159 1978 
L 1159 0 
L 581 0 
L 581 3500 
L 1159 3500 
L 1159 2956 
Q 1366 3272 1645 3428 
Q 1925 3584 2291 3584 
Q 2894 3584 3203 3211 
Q 3513 2838 3513 2113 
z
" transform="scale(0.015625)"/>
      </defs>
      <use xlink:href="#DejaVuSans-69"/>
      <use xlink:href="#DejaVuSans-74" x="27.783203"/>
      <use xlink:href="#DejaVuSans-65" x="66.992188"/>
      <use xlink:href="#DejaVuSans-72" x="128.515625"/>
      <use xlink:href="#DejaVuSans-61" x="169.628906"/>
      <use xlink:href="#DejaVuSans-74" x="230.908203"/>
      <use xlink:href="#DejaVuSans-69" x="270.117188"/>
      <use xlink:href="#DejaVuSans-6f" x="297.900391"/>
      <use xlink:href="#DejaVuSans-6e" x="359.082031"/>
     </g>
    </g>
   </g>
   <g id="matplotlib.axis_2">
    <g id="ytick_1">
     <g id="line2d_11">
      <defs>
       <path id="m1a5f4470d8" d="M 0 0 
L -3.5 0 
" style="stroke: #000000; stroke-width: 0.8"/>
      </defs>
      <g>
       <use xlink:href="#m1a5f4470d8" x="180" y="604.050081" style="stroke: #000000; stroke-width: 0.8"/>
      </g>
     </g>
     <g id="text_12">
      <!-- 0.2 -->
      <g transform="translate(148.717187 607.8493) scale(0.1 -0.1)">
       <defs>
        <path id="DejaVuSans-2212" d="M 678 2272 
L 4684 2272 
L 4684 1741 
L 678 1741 
L 678 2272 
z
" transform="scale(0.015625)"/>
        <path id="DejaVuSans-2e" d="M 684 794 
L 1344 794 
L 1344 0 
L 684 0 
L 684 794 
z
" transform="scale(0.015625)"/>
       </defs>
       <use xlink:href="#DejaVuSans-2212"/>
       <use xlink:href="#DejaVuSans-30" x="83.789062"/>
       <use xlink:href="#DejaVuSans-2e" x="147.412109"/>
       <use xlink:href="#DejaVuSans-32" x="179.199219"/>
      </g>
     </g>
    </g>
    <g id="ytick_2">
     <g id="line2d_12">
      <g>
       <use xlink:href="#m1a5f4470d8" x="180" y="530.597114" style="stroke: #000000; stroke-width: 0.8"/>
      </g>
     </g>
     <g id="text_13">
      <!-- 0.0 -->
      <g transform="translate(157.096875 534.396332) scale(0.1 -0.1)">
       <use xlink:href="#DejaVuSans-30"/>
       <use xlink:href="#DejaVuSans-2e" x="63.623047"/>
       <use xlink:href="#DejaVuSans-30" x="95.410156"/>
      </g>
     </g>
    </g>
    <g id="ytick_3">
     <g id="line2d_13">
      <g>
       <use xlink:href="#m1a5f4470d8" x="180" y="457.144146" style="stroke: #000000; stroke-width: 0.8"/>
      </g>
     </g>
     <g id="text_14">
      <!-- 0.2 -->
      <g transform="translate(157.096875 460.943365) scale(0.1 -0.1)">
       <use xlink:href="#DejaVuSans-30"/>
       <use xlink:href="#DejaVuSans-2e" x="63.623047"/>
       <use xlink:href="#DejaVuSans-32" x="95.410156"/>
      </g>
     </g>
    </g>
    <g id="ytick_4">
     <g id="line2d_14">
      <g>
       <use xlink:href="#m1a5f4470d8" x="180" y="383.691178" style="stroke: #000000; stroke-width: 0.8"/>
      </g>
     </g>
     <g id="text_15">
      <!-- 0.4 -->
      <g transform="translate(157.096875 387.490397) scale(0.1 -0.1)">
       <use xlink:href="#DejaVuSans-30"/>
       <use xlink:href="#DejaVuSans-2e" x="63.623047"/>
       <use xlink:href="#DejaVuSans-34" x="95.410156"/>
      </g>
     </g>
    </g>
    <g id="ytick_5">
     <g id="line2d_15">
      <g>
       <use xlink:href="#m1a5f4470d8" x="180" y="310.238211" style="stroke: #000000; stroke-width: 0.8"/>
      </g>
     </g>
     <g id="text_16">
      <!-- 0.6 -->
      <g transform="translate(157.096875 314.037429) scale(0.1 -0.1)">
       <use xlink:href="#DejaVuSans-30"/>
       <use xlink:href="#DejaVuSans-2e" x="63.623047"/>
       <use xlink:href="#DejaVuSans-36" x="95.410156"/>
      </g>
     </g>
    </g>
    <g id="ytick_6">
     <g id="line2d_16">
      <g>
       <use xlink:href="#m1a5f4470d8" x="180" y="236.785243" style="stroke: #000000; stroke-width: 0.8"/>
      </g>
     </g>
     <g id="text_17">
      <!-- 0.8 -->
      <g transform="translate(157.096875 240.584462) scale(0.1 -0.1)">
       <use xlink:href="#DejaVuSans-30"/>
       <use xlink:href="#DejaVuSans-2e" x="63.623047"/>
       <use xlink:href="#DejaVuSans-38" x="95.410156"/>
      </g>
     </g>
    </g>
    <g id="ytick_7">
     <g id="line2d_17">
      <g>
       <use xlink:href="#m1a5f4470d8" x="180" y="163.332276" style="stroke: #000000; stroke-width: 0.8"/>
      </g>
     </g>
     <g id="text_18">
      <!-- 1.0 -->
      <g transform="translate(157.096875 167.131494) scale(0.1 -0.1)">
       <use xlink:href="#DejaVuSans-31"/>
       <use xlink:href="#DejaVuSans-2e" x="63.623047"/>
       <use xlink:href="#DejaVuSans-30" x="95.410156"/>
      </g>
     </g>
    </g>
    <g id="ytick_8">
     <g id="line2d_18">
      <g>
       <use xlink:href="#m1a5f4470d8" x="180" y="89.879308" style="stroke: #000000; stroke-width: 0.8"/>
      </g>
     </g>
     <g id="text_19">
      <!-- 1.2 -->
      <g transform="translate(157.096875 93.678527) scale(0.1 -0.1)">
       <use xlink:href="#DejaVuSans-31"/>
       <use xlink:href="#DejaVuSans-2e" x="63.623047"/>
       <use xlink:href="#DejaVuSans-32" x="95.410156"/>
      </g>
     </g>
    </g>
    <g id="text_20">
     <!-- cosine similarity -->
     <g transform="translate(142.6375 404.307031) rotate(-90) scale(0.1 -0.1)">
      <defs>
       <path id="DejaVuSans-63" d="M 3122 3366 
L 3122 2828 
Q 2878 2963 2633 3030 
Q 2388 3097 2138 3097 
Q 1578 3097 1268 2742 
Q 959 2388 959 1747 
Q 959 1106 1268 751 
Q 1578 397 2138 397 
Q 2388 397 2633 464 
Q 2878 531 3122 666 
L 3122 134 
Q 2881 22 2623 -34 
Q 2366 -91 2075 -91 
Q 1284 -91 818 406 
Q 353 903 353 1747 
Q 353 2603 823 3093 
Q 1294 3584 2113 3584 
Q 2378 3584 2631 3529 
Q 2884 3475 3122 3366 
z
" transform="scale(0.015625)"/>
       <path id="DejaVuSans-73" d="M 2834 3397 
L 2834 2853 
Q 2591 2978 2328 3040 
Q 2066 3103 1784 3103 
Q 1356 3103 1142 2972 
Q 928 2841 928 2578 
Q 928 2378 1081 2264 
Q 1234 2150 1697 2047 
L 1894 2003 
Q 2506 1872 2764 1633 
Q 3022 1394 3022 966 
Q 3022 478 2636 193 
Q 2250 -91 1575 -91 
Q 1294 -91 989 -36 
Q 684 19 347 128 
L 347 722 
Q 666 556 975 473 
Q 1284 391 1588 391 
Q 1994 391 2212 530 
Q 2431 669 2431 922 
Q 2431 1156 2273 1281 
Q 2116 1406 1581 1522 
L 1381 1569 
Q 847 1681 609 1914 
Q 372 2147 372 2553 
Q 372 3047 722 3315 
Q 1072 3584 1716 3584 
Q 2034 3584 2315 3537 
Q 2597 3491 2834 3397 
z
" transform="scale(0.015625)"/>
       <path id="DejaVuSans-20" transform="scale(0.015625)"/>
       <path id="DejaVuSans-6d" d="M 3328 2828 
Q 3544 3216 3844 3400 
Q 4144 3584 4550 3584 
Q 5097 3584 5394 3201 
Q 5691 2819 5691 2113 
L 5691 0 
L 5113 0 
L 5113 2094 
Q 5113 2597 4934 2840 
Q 4756 3084 4391 3084 
Q 3944 3084 3684 2787 
Q 3425 2491 3425 1978 
L 3425 0 
L 2847 0 
L 2847 2094 
Q 2847 2600 2669 2842 
Q 2491 3084 2119 3084 
Q 1678 3084 1418 2786 
Q 1159 2488 1159 1978 
L 1159 0 
L 581 0 
L 581 3500 
L 1159 3500 
L 1159 2956 
Q 1356 3278 1631 3431 
Q 1906 3584 2284 3584 
Q 2666 3584 2933 3390 
Q 3200 3197 3328 2828 
z
" transform="scale(0.015625)"/>
       <path id="DejaVuSans-6c" d="M 603 4863 
L 1178 4863 
L 1178 0 
L 603 0 
L 603 4863 
z
" transform="scale(0.015625)"/>
       <path id="DejaVuSans-79" d="M 2059 -325 
Q 1816 -950 1584 -1140 
Q 1353 -1331 966 -1331 
L 506 -1331 
L 506 -850 
L 844 -850 
Q 1081 -850 1212 -737 
Q 1344 -625 1503 -206 
L 1606 56 
L 191 3500 
L 800 3500 
L 1894 763 
L 2988 3500 
L 3597 3500 
L 2059 -325 
z
" transform="scale(0.015625)"/>
      </defs>
      <use xlink:href="#DejaVuSans-63"/>
      <use xlink:href="#DejaVuSans-6f" x="54.980469"/>
      <use xlink:href="#DejaVuSans-73" x="116.162109"/>
      <use xlink:href="#DejaVuSans-69" x="168.261719"/>
      <use xlink:href="#DejaVuSans-6e" x="196.044922"/>
      <use xlink:href="#DejaVuSans-65" x="259.423828"/>
      <use xlink:href="#DejaVuSans-20" x="320.947266"/>
      <use xlink:href="#DejaVuSans-73" x="352.734375"/>
      <use xlink:href="#DejaVuSans-69" x="404.833984"/>
      <use xlink:href="#DejaVuSans-6d" x="432.617188"/>
      <use xlink:href="#DejaVuSans-69" x="530.029297"/>
      <use xlink:href="#DejaVuSans-6c" x="557.8125"/>
      <use xlink:href="#DejaVuSans-61" x="585.595703"/>
      <use xlink:href="#DejaVuSans-72" x="646.875"/>
      <use xlink:href="#DejaVuSans-69" x="687.988281"/>
      <use xlink:href="#DejaVuSans-74" x="715.771484"/>
      <use xlink:href="#DejaVuSans-79" x="754.980469"/>
     </g>
    </g>
   </g>
   <g id="line2d_19">
    <path d="M 235.8 501.101001 
L 235.8 242.539863 
" clip-path="url(#p84b327384e)" style="fill: none; stroke: #3f3f3f; stroke-width: 1.875; stroke-linecap: square"/>
   </g>
   <g id="line2d_20">
    <path d="M 235.8 409.069144 
L 235.8 311.830876 
" clip-path="url(#p84b327384e)" style="fill: none; stroke: #3f3f3f; stroke-width: 5.625; stroke-linecap: square"/>
   </g>
   <g id="line2d_21">
    <path d="M 235.8 358.983756 
" clip-path="url(#p84b327384e)" style="fill: none; stroke: #3f3f3f; stroke-width: 1.5; stroke-linecap: square"/>
    <defs>
     <path id="mc0810b7e04" d="M 2.34375 0 
L -2.34375 -0 
" style="stroke: #ffffff; stroke-width: 1.125"/>
    </defs>
    <g clip-path="url(#p84b327384e)">
     <use xlink:href="#mc0810b7e04" x="235.8" y="358.983756" style="fill: #ffffff; stroke: #ffffff; stroke-width: 1.125"/>
    </g>
   </g>
   <g id="line2d_22">
    <path d="M 347.4 533.751103 
L 347.4 262.697643 
" clip-path="url(#p84b327384e)" style="fill: none; stroke: #3f3f3f; stroke-width: 1.875; stroke-linecap: square"/>
   </g>
   <g id="line2d_23">
    <path d="M 347.4 470.036318 
L 347.4 367.157827 
" clip-path="url(#p84b327384e)" style="fill: none; stroke: #3f3f3f; stroke-width: 5.625; stroke-linecap: square"/>
   </g>
   <g id="line2d_24">
    <path d="M 347.4 427.766735 
" clip-path="url(#p84b327384e)" style="fill: none; stroke: #3f3f3f; stroke-width: 1.5; stroke-linecap: square"/>
    <g clip-path="url(#p84b327384e)">
     <use xlink:href="#mc0810b7e04" x="347.4" y="427.766735" style="fill: #ffffff; stroke: #ffffff; stroke-width: 1.125"/>
    </g>
   </g>
   <g id="line2d_25">
    <path d="M 459 560.968501 
L 459 262.697643 
" clip-path="url(#p84b327384e)" style="fill: none; stroke: #3f3f3f; stroke-width: 1.875; stroke-linecap: square"/>
   </g>
   <g id="line2d_26">
    <path d="M 459 473.473842 
L 459 382.911985 
" clip-path="url(#p84b327384e)" style="fill: none; stroke: #3f3f3f; stroke-width: 5.625; stroke-linecap: square"/>
   </g>
   <g id="line2d_27">
    <path d="M 459 442.393172 
" clip-path="url(#p84b327384e)" style="fill: none; stroke: #3f3f3f; stroke-width: 1.5; stroke-linecap: square"/>
    <g clip-path="url(#p84b327384e)">
     <use xlink:href="#mc0810b7e04" x="459" y="442.393172" style="fill: #ffffff; stroke: #ffffff; stroke-width: 1.125"/>
    </g>
   </g>
   <g id="line2d_28">
    <path d="M 570.6 556.090352 
L 570.6 292.344226 
" clip-path="url(#p84b327384e)" style="fill: none; stroke: #3f3f3f; stroke-width: 1.875; stroke-linecap: square"/>
   </g>
   <g id="line2d_29">
    <path d="M 570.6 485.342365 
L 570.6 407.022835 
" clip-path="url(#p84b327384e)" style="fill: none; stroke: #3f3f3f; stroke-width: 5.625; stroke-linecap: square"/>
   </g>
   <g id="line2d_30">
    <path d="M 570.6 454.519164 
" clip-path="url(#p84b327384e)" style="fill: none; stroke: #3f3f3f; stroke-width: 1.5; stroke-linecap: square"/>
    <g clip-path="url(#p84b327384e)">
     <use xlink:href="#mc0810b7e04" x="570.6" y="454.519164" style="fill: #ffffff; stroke: #ffffff; stroke-width: 1.125"/>
    </g>
   </g>
   <g id="line2d_31">
    <path d="M 682.2 556.586775 
L 682.2 308.418998 
" clip-path="url(#p84b327384e)" style="fill: none; stroke: #3f3f3f; stroke-width: 1.875; stroke-linecap: square"/>
   </g>
   <g id="line2d_32">
    <path d="M 682.2 490.465829 
L 682.2 416.917495 
" clip-path="url(#p84b327384e)" style="fill: none; stroke: #3f3f3f; stroke-width: 5.625; stroke-linecap: square"/>
   </g>
   <g id="line2d_33">
    <path d="M 682.2 467.289426 
" clip-path="url(#p84b327384e)" style="fill: none; stroke: #3f3f3f; stroke-width: 1.5; stroke-linecap: square"/>
    <g clip-path="url(#p84b327384e)">
     <use xlink:href="#mc0810b7e04" x="682.2" y="467.289426" style="fill: #ffffff; stroke: #ffffff; stroke-width: 1.125"/>
    </g>
   </g>
   <g id="line2d_34">
    <path d="M 793.8 556.586775 
L 793.8 346.07324 
" clip-path="url(#p84b327384e)" style="fill: none; stroke: #3f3f3f; stroke-width: 1.875; stroke-linecap: square"/>
   </g>
   <g id="line2d_35">
    <path d="M 793.8 492.54687 
L 793.8 429.621713 
" clip-path="url(#p84b327384e)" style="fill: none; stroke: #3f3f3f; stroke-width: 5.625; stroke-linecap: square"/>
   </g>
   <g id="line2d_36">
    <path d="M 793.8 469.830651 
" clip-path="url(#p84b327384e)" style="fill: none; stroke: #3f3f3f; stroke-width: 1.5; stroke-linecap: square"/>
    <g clip-path="url(#p84b327384e)">
     <use xlink:href="#mc0810b7e04" x="793.8" y="469.830651" style="fill: #ffffff; stroke: #ffffff; stroke-width: 1.125"/>
    </g>
   </g>
   <g id="line2d_37">
    <path d="M 905.4 556.586775 
L 905.4 346.07324 
" clip-path="url(#p84b327384e)" style="fill: none; stroke: #3f3f3f; stroke-width: 1.875; stroke-linecap: square"/>
   </g>
   <g id="line2d_38">
    <path d="M 905.4 494.595941 
L 905.4 429.582808 
" clip-path="url(#p84b327384e)" style="fill: none; stroke: #3f3f3f; stroke-width: 5.625; stroke-linecap: square"/>
   </g>
   <g id="line2d_39">
    <path d="M 905.4 472.873692 
" clip-path="url(#p84b327384e)" style="fill: none; stroke: #3f3f3f; stroke-width: 1.5; stroke-linecap: square"/>
    <g clip-path="url(#p84b327384e)">
     <use xlink:href="#mc0810b7e04" x="905.4" y="472.873692" style="fill: #ffffff; stroke: #ffffff; stroke-width: 1.125"/>
    </g>
   </g>
   <g id="line2d_40">
    <path d="M 1017 557.553099 
L 1017 346.07324 
" clip-path="url(#p84b327384e)" style="fill: none; stroke: #3f3f3f; stroke-width: 1.875; stroke-linecap: square"/>
   </g>
   <g id="line2d_41">
    <path d="M 1017 504.552626 
L 1017 438.669223 
" clip-path="url(#p84b327384e)" style="fill: none; stroke: #3f3f3f; stroke-width: 5.625; stroke-linecap: square"/>
   </g>
   <g id="line2d_42">
    <path d="M 1017 474.918865 
" clip-path="url(#p84b327384e)" style="fill: none; stroke: #3f3f3f; stroke-width: 1.5; stroke-linecap: square"/>
    <g clip-path="url(#p84b327384e)">
     <use xlink:href="#mc0810b7e04" x="1017" y="474.918865" style="fill: #ffffff; stroke: #ffffff; stroke-width: 1.125"/>
    </g>
   </g>
   <g id="line2d_43">
    <path d="M 1128.6 557.553099 
L 1128.6 347.493114 
" clip-path="url(#p84b327384e)" style="fill: none; stroke: #3f3f3f; stroke-width: 1.875; stroke-linecap: square"/>
   </g>
   <g id="line2d_44">
    <path d="M 1128.6 506.104187 
L 1128.6 431.687606 
" clip-path="url(#p84b327384e)" style="fill: none; stroke: #3f3f3f; stroke-width: 5.625; stroke-linecap: square"/>
   </g>
   <g id="line2d_45">
    <path d="M 1128.6 476.362477 
" clip-path="url(#p84b327384e)" style="fill: none; stroke: #3f3f3f; stroke-width: 1.5; stroke-linecap: square"/>
    <g clip-path="url(#p84b327384e)">
     <use xlink:href="#mc0810b7e04" x="1128.6" y="476.362477" style="fill: #ffffff; stroke: #ffffff; stroke-width: 1.125"/>
    </g>
   </g>
   <g id="line2d_46">
    <path d="M 1240.2 557.553099 
L 1240.2 347.493114 
" clip-path="url(#p84b327384e)" style="fill: none; stroke: #3f3f3f; stroke-width: 1.875; stroke-linecap: square"/>
   </g>
   <g id="line2d_47">
    <path d="M 1240.2 508.75692 
L 1240.2 431.687606 
" clip-path="url(#p84b327384e)" style="fill: none; stroke: #3f3f3f; stroke-width: 5.625; stroke-linecap: square"/>
   </g>
   <g id="line2d_48">
    <path d="M 1240.2 479.133565 
" clip-path="url(#p84b327384e)" style="fill: none; stroke: #3f3f3f; stroke-width: 1.5; stroke-linecap: square"/>
    <g clip-path="url(#p84b327384e)">
     <use xlink:href="#mc0810b7e04" x="1240.2" y="479.133565" style="fill: #ffffff; stroke: #ffffff; stroke-width: 1.125"/>
    </g>
   </g>
   <g id="patch_3">
    <path d="M 180 640.8 
L 180 86.4 
" style="fill: none; stroke: #000000; stroke-width: 0.8; stroke-linejoin: miter; stroke-linecap: square"/>
   </g>
   <g id="patch_4">
    <path d="M 1296 640.8 
L 1296 86.4 
" style="fill: none; stroke: #000000; stroke-width: 0.8; stroke-linejoin: miter; stroke-linecap: square"/>
   </g>
   <g id="patch_5">
    <path d="M 180 640.8 
L 1296 640.8 
" style="fill: none; stroke: #000000; stroke-width: 0.8; stroke-linejoin: miter; stroke-linecap: square"/>
   </g>
   <g id="patch_6">
    <path d="M 180 86.4 
L 1296 86.4 
" style="fill: none; stroke: #000000; stroke-width: 0.8; stroke-linejoin: miter; stroke-linecap: square"/>
   </g>
   <g id="text_21">
    <!-- cosine similarity of max (distanceFromInitialPrompt), by iteration -->
    <g transform="translate(543.054375 80.4) scale(0.12 -0.12)">
     <defs>
      <path id="DejaVuSans-66" d="M 2375 4863 
L 2375 4384 
L 1825 4384 
Q 1516 4384 1395 4259 
Q 1275 4134 1275 3809 
L 1275 3500 
L 2222 3500 
L 2222 3053 
L 1275 3053 
L 1275 0 
L 697 0 
L 697 3053 
L 147 3053 
L 147 3500 
L 697 3500 
L 697 3744 
Q 697 4328 969 4595 
Q 1241 4863 1831 4863 
L 2375 4863 
z
" transform="scale(0.015625)"/>
      <path id="DejaVuSans-78" d="M 3513 3500 
L 2247 1797 
L 3578 0 
L 2900 0 
L 1881 1375 
L 863 0 
L 184 0 
L 1544 1831 
L 300 3500 
L 978 3500 
L 1906 2253 
L 2834 3500 
L 3513 3500 
z
" transform="scale(0.015625)"/>
      <path id="DejaVuSans-28" d="M 1984 4856 
Q 1566 4138 1362 3434 
Q 1159 2731 1159 2009 
Q 1159 1288 1364 580 
Q 1569 -128 1984 -844 
L 1484 -844 
Q 1016 -109 783 600 
Q 550 1309 550 2009 
Q 550 2706 781 3412 
Q 1013 4119 1484 4856 
L 1984 4856 
z
" transform="scale(0.015625)"/>
      <path id="DejaVuSans-64" d="M 2906 2969 
L 2906 4863 
L 3481 4863 
L 3481 0 
L 2906 0 
L 2906 525 
Q 2725 213 2448 61 
Q 2172 -91 1784 -91 
Q 1150 -91 751 415 
Q 353 922 353 1747 
Q 353 2572 751 3078 
Q 1150 3584 1784 3584 
Q 2172 3584 2448 3432 
Q 2725 3281 2906 2969 
z
M 947 1747 
Q 947 1113 1208 752 
Q 1469 391 1925 391 
Q 2381 391 2643 752 
Q 2906 1113 2906 1747 
Q 2906 2381 2643 2742 
Q 2381 3103 1925 3103 
Q 1469 3103 1208 2742 
Q 947 2381 947 1747 
z
" transform="scale(0.015625)"/>
      <path id="DejaVuSans-46" d="M 628 4666 
L 3309 4666 
L 3309 4134 
L 1259 4134 
L 1259 2759 
L 3109 2759 
L 3109 2228 
L 1259 2228 
L 1259 0 
L 628 0 
L 628 4666 
z
" transform="scale(0.015625)"/>
      <path id="DejaVuSans-49" d="M 628 4666 
L 1259 4666 
L 1259 0 
L 628 0 
L 628 4666 
z
" transform="scale(0.015625)"/>
      <path id="DejaVuSans-50" d="M 1259 4147 
L 1259 2394 
L 2053 2394 
Q 2494 2394 2734 2622 
Q 2975 2850 2975 3272 
Q 2975 3691 2734 3919 
Q 2494 4147 2053 4147 
L 1259 4147 
z
M 628 4666 
L 2053 4666 
Q 2838 4666 3239 4311 
Q 3641 3956 3641 3272 
Q 3641 2581 3239 2228 
Q 2838 1875 2053 1875 
L 1259 1875 
L 1259 0 
L 628 0 
L 628 4666 
z
" transform="scale(0.015625)"/>
      <path id="DejaVuSans-70" d="M 1159 525 
L 1159 -1331 
L 581 -1331 
L 581 3500 
L 1159 3500 
L 1159 2969 
Q 1341 3281 1617 3432 
Q 1894 3584 2278 3584 
Q 2916 3584 3314 3078 
Q 3713 2572 3713 1747 
Q 3713 922 3314 415 
Q 2916 -91 2278 -91 
Q 1894 -91 1617 61 
Q 1341 213 1159 525 
z
M 3116 1747 
Q 3116 2381 2855 2742 
Q 2594 3103 2138 3103 
Q 1681 3103 1420 2742 
Q 1159 2381 1159 1747 
Q 1159 1113 1420 752 
Q 1681 391 2138 391 
Q 2594 391 2855 752 
Q 3116 1113 3116 1747 
z
" transform="scale(0.015625)"/>
      <path id="DejaVuSans-29" d="M 513 4856 
L 1013 4856 
Q 1481 4119 1714 3412 
Q 1947 2706 1947 2009 
Q 1947 1309 1714 600 
Q 1481 -109 1013 -844 
L 513 -844 
Q 928 -128 1133 580 
Q 1338 1288 1338 2009 
Q 1338 2731 1133 3434 
Q 928 4138 513 4856 
z
" transform="scale(0.015625)"/>
      <path id="DejaVuSans-2c" d="M 750 794 
L 1409 794 
L 1409 256 
L 897 -744 
L 494 -744 
L 750 256 
L 750 794 
z
" transform="scale(0.015625)"/>
      <path id="DejaVuSans-62" d="M 3116 1747 
Q 3116 2381 2855 2742 
Q 2594 3103 2138 3103 
Q 1681 3103 1420 2742 
Q 1159 2381 1159 1747 
Q 1159 1113 1420 752 
Q 1681 391 2138 391 
Q 2594 391 2855 752 
Q 3116 1113 3116 1747 
z
M 1159 2969 
Q 1341 3281 1617 3432 
Q 1894 3584 2278 3584 
Q 2916 3584 3314 3078 
Q 3713 2572 3713 1747 
Q 3713 922 3314 415 
Q 2916 -91 2278 -91 
Q 1894 -91 1617 61 
Q 1341 213 1159 525 
L 1159 0 
L 581 0 
L 581 4863 
L 1159 4863 
L 1159 2969 
z
" transform="scale(0.015625)"/>
     </defs>
     <use xlink:href="#DejaVuSans-63"/>
     <use xlink:href="#DejaVuSans-6f" x="54.980469"/>
     <use xlink:href="#DejaVuSans-73" x="116.162109"/>
     <use xlink:href="#DejaVuSans-69" x="168.261719"/>
     <use xlink:href="#DejaVuSans-6e" x="196.044922"/>
     <use xlink:href="#DejaVuSans-65" x="259.423828"/>
     <use xlink:href="#DejaVuSans-20" x="320.947266"/>
     <use xlink:href="#DejaVuSans-73" x="352.734375"/>
     <use xlink:href="#DejaVuSans-69" x="404.833984"/>
     <use xlink:href="#DejaVuSans-6d" x="432.617188"/>
     <use xlink:href="#DejaVuSans-69" x="530.029297"/>
     <use xlink:href="#DejaVuSans-6c" x="557.8125"/>
     <use xlink:href="#DejaVuSans-61" x="585.595703"/>
     <use xlink:href="#DejaVuSans-72" x="646.875"/>
     <use xlink:href="#DejaVuSans-69" x="687.988281"/>
     <use xlink:href="#DejaVuSans-74" x="715.771484"/>
     <use xlink:href="#DejaVuSans-79" x="754.980469"/>
     <use xlink:href="#DejaVuSans-20" x="814.160156"/>
     <use xlink:href="#DejaVuSans-6f" x="845.947266"/>
     <use xlink:href="#DejaVuSans-66" x="907.128906"/>
     <use xlink:href="#DejaVuSans-20" x="942.333984"/>
     <use xlink:href="#DejaVuSans-6d" x="974.121094"/>
     <use xlink:href="#DejaVuSans-61" x="1071.533203"/>
     <use xlink:href="#DejaVuSans-78" x="1132.8125"/>
     <use xlink:href="#DejaVuSans-20" x="1191.992188"/>
     <use xlink:href="#DejaVuSans-28" x="1223.779297"/>
     <use xlink:href="#DejaVuSans-64" x="1262.792969"/>
     <use xlink:href="#DejaVuSans-69" x="1326.269531"/>
     <use xlink:href="#DejaVuSans-73" x="1354.052734"/>
     <use xlink:href="#DejaVuSans-74" x="1406.152344"/>
     <use xlink:href="#DejaVuSans-61" x="1445.361328"/>
     <use xlink:href="#DejaVuSans-6e" x="1506.640625"/>
     <use xlink:href="#DejaVuSans-63" x="1570.019531"/>
     <use xlink:href="#DejaVuSans-65" x="1625"/>
     <use xlink:href="#DejaVuSans-46" x="1686.523438"/>
     <use xlink:href="#DejaVuSans-72" x="1736.792969"/>
     <use xlink:href="#DejaVuSans-6f" x="1775.65625"/>
     <use xlink:href="#DejaVuSans-6d" x="1836.837891"/>
     <use xlink:href="#DejaVuSans-49" x="1934.25"/>
     <use xlink:href="#DejaVuSans-6e" x="1963.742188"/>
     <use xlink:href="#DejaVuSans-69" x="2027.121094"/>
     <use xlink:href="#DejaVuSans-74" x="2054.904297"/>
     <use xlink:href="#DejaVuSans-69" x="2094.113281"/>
     <use xlink:href="#DejaVuSans-61" x="2121.896484"/>
     <use xlink:href="#DejaVuSans-6c" x="2183.175781"/>
     <use xlink:href="#DejaVuSans-50" x="2210.958984"/>
     <use xlink:href="#DejaVuSans-72" x="2269.511719"/>
     <use xlink:href="#DejaVuSans-6f" x="2308.375"/>
     <use xlink:href="#DejaVuSans-6d" x="2369.556641"/>
     <use xlink:href="#DejaVuSans-70" x="2466.96875"/>
     <use xlink:href="#DejaVuSans-74" x="2530.445312"/>
     <use xlink:href="#DejaVuSans-29" x="2569.654297"/>
     <use xlink:href="#DejaVuSans-2c" x="2608.667969"/>
     <use xlink:href="#DejaVuSans-20" x="2640.455078"/>
     <use xlink:href="#DejaVuSans-62" x="2672.242188"/>
     <use xlink:href="#DejaVuSans-79" x="2735.71875"/>
     <use xlink:href="#DejaVuSans-20" x="2794.898438"/>
     <use xlink:href="#DejaVuSans-69" x="2826.685547"/>
     <use xlink:href="#DejaVuSans-74" x="2854.46875"/>
     <use xlink:href="#DejaVuSans-65" x="2893.677734"/>
     <use xlink:href="#DejaVuSans-72" x="2955.201172"/>
     <use xlink:href="#DejaVuSans-61" x="2996.314453"/>
     <use xlink:href="#DejaVuSans-74" x="3057.59375"/>
     <use xlink:href="#DejaVuSans-69" x="3096.802734"/>
     <use xlink:href="#DejaVuSans-6f" x="3124.585938"/>
     <use xlink:href="#DejaVuSans-6e" x="3185.767578"/>
    </g>
   </g>
  </g>
 </g>
 <defs>
  <clipPath id="p84b327384e">
   <rect x="180" y="86.4" width="1116" height="554.4"/>
  </clipPath>
 </defs>
</svg>
