<?xml version="1.0" encoding="utf-8" standalone="no"?>
<!DOCTYPE svg PUBLIC "-//W3C//DTD SVG 1.1//EN"
  "http://www.w3.org/Graphics/SVG/1.1/DTD/svg11.dtd">
<svg xmlns:xlink="http://www.w3.org/1999/xlink" width="1440pt" height="720pt" viewBox="0 0 1440 720" xmlns="http://www.w3.org/2000/svg" version="1.1">
 <metadata>
  <rdf:RDF xmlns:dc="http://purl.org/dc/elements/1.1/" xmlns:cc="http://creativecommons.org/ns#" xmlns:rdf="http://www.w3.org/1999/02/22-rdf-syntax-ns#">
   <cc:Work>
    <dc:type rdf:resource="http://purl.org/dc/dcmitype/StillImage"/>
    <dc:date>2024-07-24T13:52:41.269679</dc:date>
    <dc:format>image/svg+xml</dc:format>
    <dc:creator>
     <cc:Agent>
      <dc:title>Matplotlib v3.8.0, https://matplotlib.org/</dc:title>
     </cc:Agent>
    </dc:creator>
   </cc:Work>
  </rdf:RDF>
 </metadata>
 <defs>
  <style type="text/css">*{stroke-linejoin: round; stroke-linecap: butt}</style>
 </defs>
 <g id="figure_1">
  <g id="patch_1">
   <path d="M 0 720 
L 1440 720 
L 1440 0 
L 0 0 
z
" style="fill: #ffffff"/>
  </g>
  <g id="axes_1">
   <g id="patch_2">
    <path d="M 180 640.8 
L 1296 640.8 
L 1296 86.4 
L 180 86.4 
z
" style="fill: #ffffff"/>
   </g>
   <g id="PolyCollection_1">
    <defs>
     <path id="md652e5023f" d="M 235.872558 -163.079846 
L 235.727442 -163.079846 
L 235.683051 -167.57803 
L 235.61917 -172.076213 
L 235.531093 -176.574396 
L 235.414327 -181.07258 
L 235.264867 -185.570763 
L 235.079353 -190.068947 
L 234.855119 -194.56713 
L 234.590208 -199.065313 
L 234.283436 -203.563497 
L 233.934462 -208.06168 
L 233.543706 -212.559863 
L 233.111842 -217.058047 
L 232.638686 -221.55623 
L 232.121542 -226.054414 
L 231.553494 -230.552597 
L 230.922486 -235.05078 
L 230.212124 -239.548964 
L 229.404752 -244.047147 
L 228.486518 -248.54533 
L 227.453148 -253.043514 
L 226.314276 -257.541697 
L 225.094148 -262.039881 
L 223.827322 -266.538064 
L 222.549715 -271.036247 
L 221.28728 -275.534431 
L 220.046027 -280.032614 
L 218.807306 -284.530797 
L 217.530932 -289.028981 
L 216.166214 -293.527164 
L 214.668152 -298.025347 
L 213.013902 -302.523531 
L 211.214205 -307.021714 
L 209.315831 -311.519898 
L 207.393933 -316.018081 
L 205.536409 -320.516264 
L 203.824887 -325.014448 
L 202.317967 -329.512631 
L 201.041552 -334.010814 
L 199.988941 -338.508998 
L 199.130274 -343.007181 
L 198.428018 -347.505365 
L 197.853143 -352.003548 
L 197.396303 -356.501731 
L 197.069952 -360.999915 
L 196.900485 -365.498098 
L 196.913227 -369.996281 
L 197.115965 -374.494465 
L 197.487542 -378.992648 
L 197.976422 -383.490832 
L 198.510521 -387.989015 
L 199.015576 -392.487198 
L 199.436147 -396.985382 
L 199.752549 -401.483565 
L 199.988502 -405.981748 
L 200.207542 -410.479932 
L 200.499909 -414.978115 
L 200.964209 -419.476298 
L 201.689035 -423.974482 
L 202.738751 -428.472665 
L 204.145557 -432.970849 
L 205.907784 -437.469032 
L 207.99286 -441.967215 
L 210.342942 -446.465399 
L 212.88158 -450.963582 
L 215.520595 -455.461765 
L 218.166998 -459.959949 
L 220.730038 -464.458132 
L 223.128289 -468.956316 
L 225.296282 -473.454499 
L 227.189788 -477.952682 
L 228.788788 -482.450866 
L 230.097425 -486.949049 
L 231.140769 -491.447232 
L 231.958913 -495.945416 
L 232.599457 -500.443599 
L 233.109762 -504.941782 
L 233.53036 -509.439966 
L 233.890586 -513.938149 
L 234.206991 -518.436333 
L 234.484466 -522.934516 
L 234.719482 -527.432699 
L 234.904482 -531.930883 
L 235.032422 -536.429066 
L 235.100536 -540.927249 
L 235.112714 -545.425433 
L 235.080139 -549.923616 
L 235.020145 -554.4218 
L 234.953531 -558.919983 
L 234.900897 -563.418166 
L 234.87884 -567.91635 
L 234.896963 -572.414533 
L 234.956507 -576.912716 
L 235.050943 -581.4109 
L 235.168282 -585.909083 
L 235.294337 -590.407267 
L 235.415936 -594.90545 
L 235.52325 -599.403633 
L 235.610818 -603.901817 
L 235.677322 -608.4 
L 235.922678 -608.4 
L 235.922678 -608.4 
L 235.989182 -603.901817 
L 236.07675 -599.403633 
L 236.184064 -594.90545 
L 236.305663 -590.407267 
L 236.431718 -585.909083 
L 236.549057 -581.4109 
L 236.643493 -576.912716 
L 236.703037 -572.414533 
L 236.72116 -567.91635 
L 236.699103 -563.418166 
L 236.646469 -558.919983 
L 236.579855 -554.4218 
L 236.519861 -549.923616 
L 236.487286 -545.425433 
L 236.499464 -540.927249 
L 236.567578 -536.429066 
L 236.695518 -531.930883 
L 236.880518 -527.432699 
L 237.115534 -522.934516 
L 237.393009 -518.436333 
L 237.709414 -513.938149 
L 238.06964 -509.439966 
L 238.490238 -504.941782 
L 239.000543 -500.443599 
L 239.641087 -495.945416 
L 240.459231 -491.447232 
L 241.502575 -486.949049 
L 242.811212 -482.450866 
L 244.410212 -477.952682 
L 246.303718 -473.454499 
L 248.471711 -468.956316 
L 250.869962 -464.458132 
L 253.433002 -459.959949 
L 256.079405 -455.461765 
L 258.71842 -450.963582 
L 261.257058 -446.465399 
L 263.60714 -441.967215 
L 265.692216 -437.469032 
L 267.454443 -432.970849 
L 268.861249 -428.472665 
L 269.910965 -423.974482 
L 270.635791 -419.476298 
L 271.100091 -414.978115 
L 271.392458 -410.479932 
L 271.611498 -405.981748 
L 271.847451 -401.483565 
L 272.163853 -396.985382 
L 272.584424 -392.487198 
L 273.089479 -387.989015 
L 273.623578 -383.490832 
L 274.112458 -378.992648 
L 274.484035 -374.494465 
L 274.686773 -369.996281 
L 274.699515 -365.498098 
L 274.530048 -360.999915 
L 274.203697 -356.501731 
L 273.746857 -352.003548 
L 273.171982 -347.505365 
L 272.469726 -343.007181 
L 271.611059 -338.508998 
L 270.558448 -334.010814 
L 269.282033 -329.512631 
L 267.775113 -325.014448 
L 266.063591 -320.516264 
L 264.206067 -316.018081 
L 262.284169 -311.519898 
L 260.385795 -307.021714 
L 258.586098 -302.523531 
L 256.931848 -298.025347 
L 255.433786 -293.527164 
L 254.069068 -289.028981 
L 252.792694 -284.530797 
L 251.553973 -280.032614 
L 250.31272 -275.534431 
L 249.050285 -271.036247 
L 247.772678 -266.538064 
L 246.505852 -262.039881 
L 245.285724 -257.541697 
L 244.146852 -253.043514 
L 243.113482 -248.54533 
L 242.195248 -244.047147 
L 241.387876 -239.548964 
L 240.677514 -235.05078 
L 240.046506 -230.552597 
L 239.478458 -226.054414 
L 238.961314 -221.55623 
L 238.488158 -217.058047 
L 238.056294 -212.559863 
L 237.665538 -208.06168 
L 237.316564 -203.563497 
L 237.009792 -199.065313 
L 236.744881 -194.56713 
L 236.520647 -190.068947 
L 236.335133 -185.570763 
L 236.185673 -181.07258 
L 236.068907 -176.574396 
L 235.98083 -172.076213 
L 235.916949 -167.57803 
L 235.872558 -163.079846 
z
" style="stroke: #3f3f3f; stroke-width: 1.25"/>
    </defs>
    <g clip-path="url(#p578278a53b)">
     <use xlink:href="#md652e5023f" x="0" y="720" style="fill: #3274a1; stroke: #3f3f3f; stroke-width: 1.25"/>
    </g>
   </g>
   <g id="PolyCollection_2">
    <defs>
     <path id="m6f34fe78f1" d="M 347.459426 -104.4 
L 347.340574 -104.4 
L 347.310587 -108.84011 
L 347.270405 -113.28022 
L 347.218783 -117.720329 
L 347.155044 -122.160439 
L 347.079112 -126.600549 
L 346.991305 -131.040659 
L 346.891891 -135.480769 
L 346.780422 -139.920878 
L 346.655004 -144.360988 
L 346.511674 -148.801098 
L 346.344074 -153.241208 
L 346.143548 -157.681317 
L 345.899677 -162.121427 
L 345.601139 -166.561537 
L 345.236661 -171.001647 
L 344.795738 -175.441757 
L 344.268859 -179.881866 
L 343.647043 -184.321976 
L 342.920753 -188.762086 
L 342.07853 -193.202196 
L 341.105939 -197.642306 
L 339.985592 -202.082415 
L 338.698859 -206.522525 
L 337.229516 -210.962635 
L 335.568894 -215.402745 
L 333.721409 -219.842854 
L 331.708873 -224.282964 
L 329.572019 -228.723074 
L 327.368275 -233.163184 
L 325.165962 -237.603294 
L 323.036249 -242.043403 
L 321.04499 -246.483513 
L 319.24657 -250.923623 
L 317.681038 -255.363733 
L 316.374482 -259.803843 
L 315.341336 -264.243952 
L 314.586757 -268.684062 
L 314.107516 -273.124172 
L 313.890937 -277.564282 
L 313.912684 -282.004391 
L 314.135042 -286.444501 
L 314.507353 -290.884611 
L 314.969525 -295.324721 
L 315.458327 -299.764831 
L 315.915102 -304.20494 
L 316.293054 -308.64505 
L 316.562386 -313.08516 
L 316.712316 -317.52527 
L 316.749929 -321.96538 
L 316.696632 -326.405489 
L 316.583449 -330.845599 
L 316.4464 -335.285709 
L 316.322858 -339.725819 
L 316.249169 -344.165928 
L 316.259242 -348.606038 
L 316.38338 -353.046148 
L 316.646606 -357.486258 
L 317.066084 -361.926368 
L 317.647884 -366.366477 
L 318.38403 -370.806587 
L 319.251188 -375.246697 
L 320.212206 -379.686807 
L 321.221091 -384.126917 
L 322.230852 -388.567026 
L 323.202573 -393.007136 
L 324.113373 -397.447246 
L 324.960992 -401.887356 
L 325.763588 -406.327465 
L 326.554762 -410.767575 
L 327.375202 -415.207685 
L 328.263295 -419.647795 
L 329.24715 -424.087905 
L 330.339771 -428.528014 
L 331.538029 -432.968124 
L 332.824874 -437.408234 
L 334.173508 -441.848344 
L 335.552074 -446.288454 
L 336.927695 -450.728563 
L 338.269327 -455.168673 
L 339.549427 -459.608783 
L 340.744811 -464.048893 
L 341.83714 -468.489002 
L 342.813349 -472.929112 
L 343.666071 -477.369222 
L 344.393909 -481.809332 
L 345.001316 -486.249442 
L 345.497897 -490.689551 
L 345.897101 -495.129661 
L 346.214482 -499.569771 
L 346.465842 -504.009881 
L 346.665612 -508.449991 
L 346.825772 -512.8901 
L 346.955417 -517.33021 
L 347.060938 -521.77032 
L 347.146604 -526.21043 
L 347.215306 -530.650539 
L 347.269237 -535.090649 
L 347.310365 -539.530759 
L 347.340664 -543.970869 
L 347.459336 -543.970869 
L 347.459336 -543.970869 
L 347.489635 -539.530759 
L 347.530763 -535.090649 
L 347.584694 -530.650539 
L 347.653396 -526.21043 
L 347.739062 -521.77032 
L 347.844583 -517.33021 
L 347.974228 -512.8901 
L 348.134388 -508.449991 
L 348.334158 -504.009881 
L 348.585518 -499.569771 
L 348.902899 -495.129661 
L 349.302103 -490.689551 
L 349.798684 -486.249442 
L 350.406091 -481.809332 
L 351.133929 -477.369222 
L 351.986651 -472.929112 
L 352.96286 -468.489002 
L 354.055189 -464.048893 
L 355.250573 -459.608783 
L 356.530673 -455.168673 
L 357.872305 -450.728563 
L 359.247926 -446.288454 
L 360.626492 -441.848344 
L 361.975126 -437.408234 
L 363.261971 -432.968124 
L 364.460229 -428.528014 
L 365.55285 -424.087905 
L 366.536705 -419.647795 
L 367.424798 -415.207685 
L 368.245238 -410.767575 
L 369.036412 -406.327465 
L 369.839008 -401.887356 
L 370.686627 -397.447246 
L 371.597427 -393.007136 
L 372.569148 -388.567026 
L 373.578909 -384.126917 
L 374.587794 -379.686807 
L 375.548812 -375.246697 
L 376.41597 -370.806587 
L 377.152116 -366.366477 
L 377.733916 -361.926368 
L 378.153394 -357.486258 
L 378.41662 -353.046148 
L 378.540758 -348.606038 
L 378.550831 -344.165928 
L 378.477142 -339.725819 
L 378.3536 -335.285709 
L 378.216551 -330.845599 
L 378.103368 -326.405489 
L 378.050071 -321.96538 
L 378.087684 -317.52527 
L 378.237614 -313.08516 
L 378.506946 -308.64505 
L 378.884898 -304.20494 
L 379.341673 -299.764831 
L 379.830475 -295.324721 
L 380.292647 -290.884611 
L 380.664958 -286.444501 
L 380.887316 -282.004391 
L 380.909063 -277.564282 
L 380.692484 -273.124172 
L 380.213243 -268.684062 
L 379.458664 -264.243952 
L 378.425518 -259.803843 
L 377.118962 -255.363733 
L 375.55343 -250.923623 
L 373.75501 -246.483513 
L 371.763751 -242.043403 
L 369.634038 -237.603294 
L 367.431725 -233.163184 
L 365.227981 -228.723074 
L 363.091127 -224.282964 
L 361.078591 -219.842854 
L 359.231106 -215.402745 
L 357.570484 -210.962635 
L 356.101141 -206.522525 
L 354.814408 -202.082415 
L 353.694061 -197.642306 
L 352.72147 -193.202196 
L 351.879247 -188.762086 
L 351.152957 -184.321976 
L 350.531141 -179.881866 
L 350.004262 -175.441757 
L 349.563339 -171.001647 
L 349.198861 -166.561537 
L 348.900323 -162.121427 
L 348.656452 -157.681317 
L 348.455926 -153.241208 
L 348.288326 -148.801098 
L 348.144996 -144.360988 
L 348.019578 -139.920878 
L 347.908109 -135.480769 
L 347.808695 -131.040659 
L 347.720888 -126.600549 
L 347.644956 -122.160439 
L 347.581217 -117.720329 
L 347.529595 -113.28022 
L 347.489413 -108.84011 
L 347.459426 -104.4 
z
" style="stroke: #3f3f3f; stroke-width: 1.25"/>
    </defs>
    <g clip-path="url(#p578278a53b)">
     <use xlink:href="#m6f34fe78f1" x="0" y="720" style="fill: #3274a1; stroke: #3f3f3f; stroke-width: 1.25"/>
    </g>
   </g>
   <g id="PolyCollection_3">
    <defs>
     <path id="mfd114b8cc3" d="M 459.152328 -128.249863 
L 458.847672 -128.249863 
L 458.773271 -132.146942 
L 458.673258 -136.044021 
L 458.543604 -139.941101 
L 458.38123 -143.83818 
L 458.184282 -147.735259 
L 457.952026 -151.632338 
L 457.684282 -155.529417 
L 457.380366 -159.426496 
L 457.03771 -163.323575 
L 456.650437 -167.220654 
L 456.208304 -171.117733 
L 455.696395 -175.014812 
L 455.095836 -178.911892 
L 454.38558 -182.808971 
L 453.545029 -186.70605 
L 452.557023 -190.603129 
L 451.410573 -194.500208 
L 450.102741 -198.397287 
L 448.639235 -202.294366 
L 447.033616 -206.191445 
L 445.305396 -210.088524 
L 443.477573 -213.985603 
L 441.574366 -217.882683 
L 439.619764 -221.779762 
L 437.637263 -225.676841 
L 435.650678 -229.57392 
L 433.68553 -233.470999 
L 431.770228 -237.368078 
L 429.936295 -241.265157 
L 428.2172 -245.162236 
L 426.645821 -249.059315 
L 425.251099 -252.956395 
L 424.054743 -256.853474 
L 423.068907 -260.750553 
L 422.295509 -264.647632 
L 421.727352 -268.544711 
L 421.350716 -272.44179 
L 421.148631 -276.338869 
L 421.103868 -280.235948 
L 421.200815 -284.133027 
L 421.425761 -288.030106 
L 421.765612 -291.927186 
L 422.205585 -295.824265 
L 422.726783 -299.721344 
L 423.304622 -303.618423 
L 423.908955 -307.515502 
L 424.506267 -311.412581 
L 425.063763 -315.30966 
L 425.554628 -319.206739 
L 425.963299 -323.103818 
L 426.289495 -327.000897 
L 426.549932 -330.897977 
L 426.777125 -334.795056 
L 427.015329 -338.692135 
L 427.314299 -342.589214 
L 427.722029 -346.486293 
L 428.277784 -350.383372 
L 429.006658 -354.280451 
L 429.916469 -358.17753 
L 430.997297 -362.074609 
L 432.223449 -365.971688 
L 433.557222 -369.868768 
L 434.953675 -373.765847 
L 436.365587 -377.662926 
L 437.748019 -381.560005 
L 439.062077 -385.457084 
L 440.277733 -389.354163 
L 441.375682 -393.251242 
L 442.348245 -397.148321 
L 443.19932 -401.0454 
L 443.943352 -404.942479 
L 444.603323 -408.839559 
L 445.207865 -412.736638 
L 445.787746 -416.633717 
L 446.37213 -420.530796 
L 446.985133 -424.427875 
L 447.643164 -428.324954 
L 448.353473 -432.222033 
L 449.114093 -436.119112 
L 449.915113 -440.016191 
L 450.740969 -443.91327 
L 451.573257 -447.81035 
L 452.393501 -451.707429 
L 453.185396 -455.604508 
L 453.936181 -459.501587 
L 454.637087 -463.398666 
L 455.28297 -467.295745 
L 455.871462 -471.192824 
L 456.401975 -475.089903 
L 456.874867 -478.986982 
L 457.290965 -482.884061 
L 457.651449 -486.781141 
L 457.958015 -490.67822 
L 458.213149 -494.575299 
L 458.420326 -498.472378 
L 458.584056 -502.369457 
L 458.709714 -506.266536 
L 458.803202 -510.163615 
L 458.870533 -514.060694 
L 459.129467 -514.060694 
L 459.129467 -514.060694 
L 459.196798 -510.163615 
L 459.290286 -506.266536 
L 459.415944 -502.369457 
L 459.579674 -498.472378 
L 459.786851 -494.575299 
L 460.041985 -490.67822 
L 460.348551 -486.781141 
L 460.709035 -482.884061 
L 461.125133 -478.986982 
L 461.598025 -475.089903 
L 462.128538 -471.192824 
L 462.71703 -467.295745 
L 463.362913 -463.398666 
L 464.063819 -459.501587 
L 464.814604 -455.604508 
L 465.606499 -451.707429 
L 466.426743 -447.81035 
L 467.259031 -443.91327 
L 468.084887 -440.016191 
L 468.885907 -436.119112 
L 469.646527 -432.222033 
L 470.356836 -428.324954 
L 471.014867 -424.427875 
L 471.62787 -420.530796 
L 472.212254 -416.633717 
L 472.792135 -412.736638 
L 473.396677 -408.839559 
L 474.056648 -404.942479 
L 474.80068 -401.0454 
L 475.651755 -397.148321 
L 476.624318 -393.251242 
L 477.722267 -389.354163 
L 478.937923 -385.457084 
L 480.251981 -381.560005 
L 481.634413 -377.662926 
L 483.046325 -373.765847 
L 484.442778 -369.868768 
L 485.776551 -365.971688 
L 487.002703 -362.074609 
L 488.083531 -358.17753 
L 488.993342 -354.280451 
L 489.722216 -350.383372 
L 490.277971 -346.486293 
L 490.685701 -342.589214 
L 490.984671 -338.692135 
L 491.222875 -334.795056 
L 491.450068 -330.897977 
L 491.710505 -327.000897 
L 492.036701 -323.103818 
L 492.445372 -319.206739 
L 492.936237 -315.30966 
L 493.493733 -311.412581 
L 494.091045 -307.515502 
L 494.695378 -303.618423 
L 495.273217 -299.721344 
L 495.794415 -295.824265 
L 496.234388 -291.927186 
L 496.574239 -288.030106 
L 496.799185 -284.133027 
L 496.896132 -280.235948 
L 496.851369 -276.338869 
L 496.649284 -272.44179 
L 496.272648 -268.544711 
L 495.704491 -264.647632 
L 494.931093 -260.750553 
L 493.945257 -256.853474 
L 492.748901 -252.956395 
L 491.354179 -249.059315 
L 489.7828 -245.162236 
L 488.063705 -241.265157 
L 486.229772 -237.368078 
L 484.31447 -233.470999 
L 482.349322 -229.57392 
L 480.362737 -225.676841 
L 478.380236 -221.779762 
L 476.425634 -217.882683 
L 474.522427 -213.985603 
L 472.694604 -210.088524 
L 470.966384 -206.191445 
L 469.360765 -202.294366 
L 467.897259 -198.397287 
L 466.589427 -194.500208 
L 465.442977 -190.603129 
L 464.454971 -186.70605 
L 463.61442 -182.808971 
L 462.904164 -178.911892 
L 462.303605 -175.014812 
L 461.791696 -171.117733 
L 461.349563 -167.220654 
L 460.96229 -163.323575 
L 460.619634 -159.426496 
L 460.315718 -155.529417 
L 460.047974 -151.632338 
L 459.815718 -147.735259 
L 459.61877 -143.83818 
L 459.456396 -139.941101 
L 459.326742 -136.044021 
L 459.226729 -132.146942 
L 459.152328 -128.249863 
z
" style="stroke: #3f3f3f; stroke-width: 1.25"/>
    </defs>
    <g clip-path="url(#p578278a53b)">
     <use xlink:href="#mfd114b8cc3" x="0" y="720" style="fill: #3274a1; stroke: #3f3f3f; stroke-width: 1.25"/>
    </g>
   </g>
   <g id="PolyCollection_4">
    <defs>
     <path id="mc09e76003b" d="M 570.752195 -131.560466 
L 570.447805 -131.560466 
L 570.367054 -135.411259 
L 570.254658 -139.262051 
L 570.103534 -143.112844 
L 569.906884 -146.963636 
L 569.658581 -150.814428 
L 569.353261 -154.665221 
L 568.985922 -158.516013 
L 568.550985 -162.366806 
L 568.040926 -166.217598 
L 567.444807 -170.068391 
L 566.747217 -173.919183 
L 565.928182 -177.769975 
L 564.96447 -181.620768 
L 563.832418 -185.47156 
L 562.511965 -189.322353 
L 560.991123 -193.173145 
L 559.269858 -197.023938 
L 557.362334 -200.87473 
L 555.296811 -204.725522 
L 553.113067 -208.576315 
L 550.857913 -212.427107 
L 548.579895 -216.2779 
L 546.324498 -220.128692 
L 544.130934 -223.979485 
L 542.031038 -227.830277 
L 540.050043 -231.681069 
L 538.208463 -235.531862 
L 536.524012 -239.382654 
L 535.012703 -243.233447 
L 533.688707 -247.084239 
L 532.563148 -250.935032 
L 531.642434 -254.785824 
L 530.926864 -258.636617 
L 530.41012 -262.487409 
L 530.079931 -266.338201 
L 529.919808 -270.188994 
L 529.911462 -274.039786 
L 530.037345 -277.890579 
L 530.282743 -281.741371 
L 530.636941 -285.592164 
L 531.093168 -289.442956 
L 531.647316 -293.293748 
L 532.295686 -297.144541 
L 533.032322 -300.995333 
L 533.84665 -304.846126 
L 534.722184 -308.696918 
L 535.636862 -312.547711 
L 536.565205 -316.398503 
L 537.481996 -320.249295 
L 538.366721 -324.100088 
L 539.207704 -327.95088 
L 540.004849 -331.801673 
L 540.770224 -335.652465 
L 541.526219 -339.503258 
L 542.301649 -343.35405 
L 543.126628 -347.204842 
L 544.027281 -351.055635 
L 545.021332 -354.906427 
L 546.115249 -358.75722 
L 547.303283 -362.608012 
L 548.5683 -366.458805 
L 549.884062 -370.309597 
L 551.218461 -374.16039 
L 552.537193 -378.011182 
L 553.807401 -381.861974 
L 555.000883 -385.712767 
L 556.096542 -389.563559 
L 557.081862 -393.414352 
L 557.953328 -397.265144 
L 558.71585 -401.115937 
L 559.381408 -404.966729 
L 559.967195 -408.817521 
L 560.493573 -412.668314 
L 560.982049 -416.519106 
L 561.453408 -420.369899 
L 561.926046 -424.220691 
L 562.41451 -428.071484 
L 562.928323 -431.922276 
L 563.471227 -435.773068 
L 564.04103 -439.623861 
L 564.630209 -443.474653 
L 565.227263 -447.325446 
L 565.818646 -451.176238 
L 566.390912 -455.027031 
L 566.932615 -458.877823 
L 567.435581 -462.728615 
L 567.895332 -466.579408 
L 568.31069 -470.4302 
L 568.682815 -474.280993 
L 569.01405 -478.131785 
L 569.306929 -481.982578 
L 569.563587 -485.83337 
L 569.78564 -489.684162 
L 569.974414 -493.534955 
L 570.131359 -497.385747 
L 570.258419 -501.23654 
L 570.358229 -505.087332 
L 570.434092 -508.938125 
L 570.48977 -512.788917 
L 570.71023 -512.788917 
L 570.71023 -512.788917 
L 570.765908 -508.938125 
L 570.841771 -505.087332 
L 570.941581 -501.23654 
L 571.068641 -497.385747 
L 571.225586 -493.534955 
L 571.41436 -489.684162 
L 571.636413 -485.83337 
L 571.893071 -481.982578 
L 572.18595 -478.131785 
L 572.517185 -474.280993 
L 572.88931 -470.4302 
L 573.304668 -466.579408 
L 573.764419 -462.728615 
L 574.267385 -458.877823 
L 574.809088 -455.027031 
L 575.381354 -451.176238 
L 575.972737 -447.325446 
L 576.569791 -443.474653 
L 577.15897 -439.623861 
L 577.728773 -435.773068 
L 578.271677 -431.922276 
L 578.78549 -428.071484 
L 579.273954 -424.220691 
L 579.746592 -420.369899 
L 580.217951 -416.519106 
L 580.706427 -412.668314 
L 581.232805 -408.817521 
L 581.818592 -404.966729 
L 582.48415 -401.115937 
L 583.246672 -397.265144 
L 584.118138 -393.414352 
L 585.103458 -389.563559 
L 586.199117 -385.712767 
L 587.392599 -381.861974 
L 588.662807 -378.011182 
L 589.981539 -374.16039 
L 591.315938 -370.309597 
L 592.6317 -366.458805 
L 593.896717 -362.608012 
L 595.084751 -358.75722 
L 596.178668 -354.906427 
L 597.172719 -351.055635 
L 598.073372 -347.204842 
L 598.898351 -343.35405 
L 599.673781 -339.503258 
L 600.429776 -335.652465 
L 601.195151 -331.801673 
L 601.992296 -327.95088 
L 602.833279 -324.100088 
L 603.718004 -320.249295 
L 604.634795 -316.398503 
L 605.563138 -312.547711 
L 606.477816 -308.696918 
L 607.35335 -304.846126 
L 608.167678 -300.995333 
L 608.904314 -297.144541 
L 609.552684 -293.293748 
L 610.106832 -289.442956 
L 610.563059 -285.592164 
L 610.917257 -281.741371 
L 611.162655 -277.890579 
L 611.288538 -274.039786 
L 611.280192 -270.188994 
L 611.120069 -266.338201 
L 610.78988 -262.487409 
L 610.273136 -258.636617 
L 609.557566 -254.785824 
L 608.636852 -250.935032 
L 607.511293 -247.084239 
L 606.187297 -243.233447 
L 604.675988 -239.382654 
L 602.991537 -235.531862 
L 601.149957 -231.681069 
L 599.168962 -227.830277 
L 597.069066 -223.979485 
L 594.875502 -220.128692 
L 592.620105 -216.2779 
L 590.342087 -212.427107 
L 588.086933 -208.576315 
L 585.903189 -204.725522 
L 583.837666 -200.87473 
L 581.930142 -197.023938 
L 580.208877 -193.173145 
L 578.688035 -189.322353 
L 577.367582 -185.47156 
L 576.23553 -181.620768 
L 575.271818 -177.769975 
L 574.452783 -173.919183 
L 573.755193 -170.068391 
L 573.159074 -166.217598 
L 572.649015 -162.366806 
L 572.214078 -158.516013 
L 571.846739 -154.665221 
L 571.541419 -150.814428 
L 571.293116 -146.963636 
L 571.096466 -143.112844 
L 570.945342 -139.262051 
L 570.832946 -135.411259 
L 570.752195 -131.560466 
z
" style="stroke: #3f3f3f; stroke-width: 1.25"/>
    </defs>
    <g clip-path="url(#p578278a53b)">
     <use xlink:href="#mc09e76003b" x="0" y="720" style="fill: #3274a1; stroke: #3f3f3f; stroke-width: 1.25"/>
    </g>
   </g>
   <g id="PolyCollection_5">
    <defs>
     <path id="m3caa2ac3d9" d="M 682.312326 -123.113809 
L 682.087674 -123.113809 
L 682.023142 -127.05051 
L 681.929882 -130.987212 
L 681.799389 -134.923914 
L 681.622398 -138.860616 
L 681.389374 -142.797318 
L 681.091082 -146.73402 
L 680.719105 -150.670722 
L 680.266168 -154.607423 
L 679.726166 -158.544125 
L 679.093796 -162.480827 
L 678.363818 -166.417529 
L 677.53008 -170.354231 
L 676.584528 -174.290933 
L 675.516539 -178.227635 
L 674.312882 -182.164336 
L 672.958581 -186.101038 
L 671.438736 -190.03774 
L 669.741188 -193.974442 
L 667.859664 -197.911144 
L 665.796896 -201.847846 
L 663.56721 -205.784548 
L 661.198118 -209.721249 
L 658.730679 -213.657951 
L 656.218518 -217.594653 
L 653.725567 -221.531355 
L 651.322563 -225.468057 
L 649.082407 -229.404759 
L 647.074459 -233.34146 
L 645.358083 -237.278162 
L 643.976017 -241.214864 
L 642.948537 -245.151566 
L 642.269608 -249.088268 
L 641.906177 -253.02497 
L 641.801361 -256.961672 
L 641.88152 -260.898373 
L 642.066368 -264.835075 
L 642.280475 -268.771777 
L 642.464124 -272.708479 
L 642.581536 -276.645181 
L 642.624974 -280.581883 
L 642.614109 -284.518585 
L 642.590903 -288.455286 
L 642.611144 -292.391988 
L 642.734227 -296.32869 
L 643.013032 -300.265392 
L 643.48556 -304.202094 
L 644.169638 -308.138796 
L 645.06144 -312.075498 
L 646.137874 -316.012199 
L 647.362252 -319.948901 
L 648.691971 -323.885603 
L 650.086612 -327.822305 
L 651.514708 -331.759007 
L 652.957824 -335.695709 
L 654.411184 -339.632411 
L 655.880953 -343.569112 
L 657.379009 -347.505814 
L 658.916566 -351.442516 
L 660.498129 -355.379218 
L 662.117065 -359.31592 
L 663.753629 -363.252622 
L 665.375729 -367.189323 
L 666.942217 -371.126025 
L 668.408077 -375.062727 
L 669.730555 -378.999429 
L 670.875183 -382.936131 
L 671.820607 -386.872833 
L 672.561393 -390.809535 
L 673.10834 -394.746236 
L 673.486355 -398.682938 
L 673.730453 -402.61964 
L 673.880825 -406.556342 
L 673.978022 -410.493044 
L 674.059127 -414.429746 
L 674.15537 -418.366448 
L 674.29114 -422.303149 
L 674.483977 -426.239851 
L 674.744956 -430.176553 
L 675.079015 -434.113255 
L 675.485073 -438.049957 
L 675.956128 -441.986659 
L 676.479687 -445.923361 
L 677.03886 -449.860062 
L 677.61419 -453.796764 
L 678.185973 -457.733466 
L 678.736574 -461.670168 
L 679.252207 -465.60687 
L 679.723787 -469.543572 
L 680.146794 -473.480274 
L 680.520358 -477.416975 
L 680.845999 -481.353677 
L 681.126429 -485.290379 
L 681.364732 -489.227081 
L 681.564003 -493.163783 
L 681.727341 -497.100485 
L 681.85803 -501.037187 
L 681.959692 -504.973888 
L 682.036311 -508.91059 
L 682.092104 -512.847292 
L 682.307896 -512.847292 
L 682.307896 -512.847292 
L 682.363689 -508.91059 
L 682.440308 -504.973888 
L 682.54197 -501.037187 
L 682.672659 -497.100485 
L 682.835997 -493.163783 
L 683.035268 -489.227081 
L 683.273571 -485.290379 
L 683.554001 -481.353677 
L 683.879642 -477.416975 
L 684.253206 -473.480274 
L 684.676213 -469.543572 
L 685.147793 -465.60687 
L 685.663426 -461.670168 
L 686.214027 -457.733466 
L 686.78581 -453.796764 
L 687.36114 -449.860062 
L 687.920313 -445.923361 
L 688.443872 -441.986659 
L 688.914927 -438.049957 
L 689.320985 -434.113255 
L 689.655044 -430.176553 
L 689.916023 -426.239851 
L 690.10886 -422.303149 
L 690.24463 -418.366448 
L 690.340873 -414.429746 
L 690.421978 -410.493044 
L 690.519175 -406.556342 
L 690.669547 -402.61964 
L 690.913645 -398.682938 
L 691.29166 -394.746236 
L 691.838607 -390.809535 
L 692.579393 -386.872833 
L 693.524817 -382.936131 
L 694.669445 -378.999429 
L 695.991923 -375.062727 
L 697.457783 -371.126025 
L 699.024271 -367.189323 
L 700.646371 -363.252622 
L 702.282935 -359.31592 
L 703.901871 -355.379218 
L 705.483434 -351.442516 
L 707.020991 -347.505814 
L 708.519047 -343.569112 
L 709.988816 -339.632411 
L 711.442176 -335.695709 
L 712.885292 -331.759007 
L 714.313388 -327.822305 
L 715.708029 -323.885603 
L 717.037748 -319.948901 
L 718.262126 -316.012199 
L 719.33856 -312.075498 
L 720.230362 -308.138796 
L 720.91444 -304.202094 
L 721.386968 -300.265392 
L 721.665773 -296.32869 
L 721.788856 -292.391988 
L 721.809097 -288.455286 
L 721.785891 -284.518585 
L 721.775026 -280.581883 
L 721.818464 -276.645181 
L 721.935876 -272.708479 
L 722.119525 -268.771777 
L 722.333632 -264.835075 
L 722.51848 -260.898373 
L 722.598639 -256.961672 
L 722.493823 -253.02497 
L 722.130392 -249.088268 
L 721.451463 -245.151566 
L 720.423983 -241.214864 
L 719.041917 -237.278162 
L 717.325541 -233.34146 
L 715.317593 -229.404759 
L 713.077437 -225.468057 
L 710.674433 -221.531355 
L 708.181482 -217.594653 
L 705.669321 -213.657951 
L 703.201882 -209.721249 
L 700.83279 -205.784548 
L 698.603104 -201.847846 
L 696.540336 -197.911144 
L 694.658812 -193.974442 
L 692.961264 -190.03774 
L 691.441419 -186.101038 
L 690.087118 -182.164336 
L 688.883461 -178.227635 
L 687.815472 -174.290933 
L 686.86992 -170.354231 
L 686.036182 -166.417529 
L 685.306204 -162.480827 
L 684.673834 -158.544125 
L 684.133832 -154.607423 
L 683.680895 -150.670722 
L 683.308918 -146.73402 
L 683.010626 -142.797318 
L 682.777602 -138.860616 
L 682.600611 -134.923914 
L 682.470118 -130.987212 
L 682.376858 -127.05051 
L 682.312326 -123.113809 
z
" style="stroke: #3f3f3f; stroke-width: 1.25"/>
    </defs>
    <g clip-path="url(#p578278a53b)">
     <use xlink:href="#m3caa2ac3d9" x="0" y="720" style="fill: #3274a1; stroke: #3f3f3f; stroke-width: 1.25"/>
    </g>
   </g>
   <g id="PolyCollection_6">
    <defs>
     <path id="m0f01efd24e" d="M 793.928013 -119.136604 
L 793.671987 -119.136604 
L 793.600397 -123.109464 
L 793.499122 -127.082324 
L 793.361012 -131.055184 
L 793.179142 -135.028045 
L 792.947351 -139.000905 
L 792.660548 -142.973765 
L 792.3146 -146.946625 
L 791.905678 -150.919485 
L 791.429054 -154.892345 
L 790.877571 -158.865205 
L 790.240146 -162.838065 
L 789.500809 -166.810925 
L 788.638735 -170.783785 
L 787.629531 -174.756645 
L 786.447766 -178.729505 
L 785.070324 -182.702365 
L 783.479945 -186.675225 
L 781.668188 -190.648085 
L 779.637287 -194.620945 
L 777.400679 -198.593806 
L 774.982496 -202.566666 
L 772.41658 -206.539526 
L 769.745672 -210.512386 
L 767.02114 -214.485246 
L 764.30308 -218.458106 
L 761.660111 -222.430966 
L 759.167809 -226.403826 
L 756.904854 -230.376686 
L 754.946523 -234.349546 
L 753.356076 -238.322406 
L 752.175573 -242.295266 
L 751.418264 -246.268126 
L 751.06471 -250.240986 
L 751.064066 -254.213846 
L 751.340712 -258.186706 
L 751.805079 -262.159567 
L 752.366451 -266.132427 
L 752.94518 -270.105287 
L 753.482077 -274.078147 
L 753.943626 -278.051007 
L 754.322726 -282.023867 
L 754.635583 -285.996727 
L 754.915895 -289.969587 
L 755.207609 -293.942447 
L 755.557393 -297.915307 
L 756.007737 -301.888167 
L 756.591365 -305.861027 
L 757.327568 -309.833887 
L 758.220877 -313.806747 
L 759.26229 -317.779607 
L 760.432841 -321.752468 
L 761.708824 -325.725328 
L 763.067502 -329.698188 
L 764.491975 -333.671048 
L 765.97397 -337.643908 
L 767.513835 -341.616768 
L 769.117705 -345.589628 
L 770.792504 -349.562488 
L 772.540026 -353.535348 
L 774.351551 -357.508208 
L 776.204394 -361.481068 
L 778.061353 -365.453928 
L 779.87337 -369.426788 
L 781.585029 -373.399648 
L 783.141808 -377.372508 
L 784.497603 -381.345368 
L 785.620946 -385.318229 
L 786.498679 -389.291089 
L 787.136454 -393.263949 
L 787.556221 -397.236809 
L 787.791581 -401.209669 
L 787.882307 -405.182529 
L 787.869357 -409.155389 
L 787.791357 -413.128249 
L 787.682911 -417.101109 
L 787.574419 -421.073969 
L 787.492631 -425.046829 
L 787.461057 -429.019689 
L 787.49957 -432.992549 
L 787.623082 -436.965409 
L 787.839716 -440.938269 
L 788.149241 -444.91113 
L 788.542558 -448.88399 
L 789.002703 -452.85685 
L 789.507296 -456.82971 
L 790.03187 -460.80257 
L 790.553239 -464.77543 
L 791.052107 -468.74829 
L 791.514455 -472.72115 
L 791.931653 -476.69401 
L 792.29965 -480.66687 
L 792.617742 -484.63973 
L 792.887385 -488.61259 
L 793.111334 -492.58545 
L 793.293165 -496.55831 
L 793.43706 -500.53117 
L 793.547687 -504.50403 
L 793.63006 -508.476891 
L 793.689303 -512.449751 
L 793.910697 -512.449751 
L 793.910697 -512.449751 
L 793.96994 -508.476891 
L 794.052313 -504.50403 
L 794.16294 -500.53117 
L 794.306835 -496.55831 
L 794.488666 -492.58545 
L 794.712615 -488.61259 
L 794.982258 -484.63973 
L 795.30035 -480.66687 
L 795.668347 -476.69401 
L 796.085545 -472.72115 
L 796.547893 -468.74829 
L 797.046761 -464.77543 
L 797.56813 -460.80257 
L 798.092704 -456.82971 
L 798.597297 -452.85685 
L 799.057442 -448.88399 
L 799.450759 -444.91113 
L 799.760284 -440.938269 
L 799.976918 -436.965409 
L 800.10043 -432.992549 
L 800.138943 -429.019689 
L 800.107369 -425.046829 
L 800.025581 -421.073969 
L 799.917089 -417.101109 
L 799.808643 -413.128249 
L 799.730643 -409.155389 
L 799.717693 -405.182529 
L 799.808419 -401.209669 
L 800.043779 -397.236809 
L 800.463546 -393.263949 
L 801.101321 -389.291089 
L 801.979054 -385.318229 
L 803.102397 -381.345368 
L 804.458192 -377.372508 
L 806.014971 -373.399648 
L 807.72663 -369.426788 
L 809.538647 -365.453928 
L 811.395606 -361.481068 
L 813.248449 -357.508208 
L 815.059974 -353.535348 
L 816.807496 -349.562488 
L 818.482295 -345.589628 
L 820.086165 -341.616768 
L 821.62603 -337.643908 
L 823.108025 -333.671048 
L 824.532498 -329.698188 
L 825.891176 -325.725328 
L 827.167159 -321.752468 
L 828.33771 -317.779607 
L 829.379123 -313.806747 
L 830.272432 -309.833887 
L 831.008635 -305.861027 
L 831.592263 -301.888167 
L 832.042607 -297.915307 
L 832.392391 -293.942447 
L 832.684105 -289.969587 
L 832.964417 -285.996727 
L 833.277274 -282.023867 
L 833.656374 -278.051007 
L 834.117923 -274.078147 
L 834.65482 -270.105287 
L 835.233549 -266.132427 
L 835.794921 -262.159567 
L 836.259288 -258.186706 
L 836.535934 -254.213846 
L 836.53529 -250.240986 
L 836.181736 -246.268126 
L 835.424427 -242.295266 
L 834.243924 -238.322406 
L 832.653477 -234.349546 
L 830.695146 -230.376686 
L 828.432191 -226.403826 
L 825.939889 -222.430966 
L 823.29692 -218.458106 
L 820.57886 -214.485246 
L 817.854328 -210.512386 
L 815.18342 -206.539526 
L 812.617504 -202.566666 
L 810.199321 -198.593806 
L 807.962713 -194.620945 
L 805.931812 -190.648085 
L 804.120055 -186.675225 
L 802.529676 -182.702365 
L 801.152234 -178.729505 
L 799.970469 -174.756645 
L 798.961265 -170.783785 
L 798.099191 -166.810925 
L 797.359854 -162.838065 
L 796.722429 -158.865205 
L 796.170946 -154.892345 
L 795.694322 -150.919485 
L 795.2854 -146.946625 
L 794.939452 -142.973765 
L 794.652649 -139.000905 
L 794.420858 -135.028045 
L 794.238988 -131.055184 
L 794.100878 -127.082324 
L 793.999603 -123.109464 
L 793.928013 -119.136604 
z
" style="stroke: #3f3f3f; stroke-width: 1.25"/>
    </defs>
    <g clip-path="url(#p578278a53b)">
     <use xlink:href="#m0f01efd24e" x="0" y="720" style="fill: #3274a1; stroke: #3f3f3f; stroke-width: 1.25"/>
    </g>
   </g>
   <g id="PolyCollection_7">
    <defs>
     <path id="mb66467b043" d="M 905.525405 -119.644813 
L 905.274595 -119.644813 
L 905.203525 -123.607406 
L 905.10231 -127.569999 
L 904.963126 -131.532593 
L 904.77789 -135.495186 
L 904.538616 -139.457779 
L 904.237564 -143.420372 
L 903.867086 -147.382965 
L 903.419096 -151.345559 
L 902.884241 -155.308152 
L 902.250979 -159.270745 
L 901.504884 -163.233338 
L 900.628514 -167.195932 
L 899.602161 -171.158525 
L 898.405607 -175.121118 
L 897.020774 -179.083711 
L 895.434874 -183.046304 
L 893.643414 -187.008898 
L 891.652327 -190.971491 
L 889.478584 -194.934084 
L 887.149008 -198.896677 
L 884.697537 -202.859271 
L 882.161739 -206.821864 
L 879.579729 -210.784457 
L 876.988637 -214.74705 
L 874.425295 -218.709643 
L 871.928925 -222.672237 
L 869.544694 -226.63483 
L 867.326309 -230.597423 
L 865.335785 -234.560016 
L 863.639224 -238.52261 
L 862.29872 -242.485203 
L 861.361929 -246.447796 
L 860.851902 -250.410389 
L 860.76 -254.372982 
L 861.044057 -258.335576 
L 861.632616 -262.298169 
L 862.434479 -266.260762 
L 863.351588 -270.223355 
L 864.292586 -274.185949 
L 865.184503 -278.148542 
L 865.980659 -282.111135 
L 866.663829 -286.073728 
L 867.24469 -290.036321 
L 867.756355 -293.998915 
L 868.246327 -297.961508 
L 868.767378 -301.924101 
L 869.368853 -305.886694 
L 870.089629 -309.849288 
L 870.953622 -313.811881 
L 871.968293 -317.774474 
L 873.126124 -321.737067 
L 874.408548 -325.69966 
L 875.791403 -329.662254 
L 877.250664 -333.624847 
L 878.767171 -337.58744 
L 880.329235 -341.550033 
L 881.932494 -345.512627 
L 883.577063 -349.47522 
L 885.262717 -353.437813 
L 886.983469 -357.400406 
L 888.723135 -361.362999 
L 890.453336 -365.325593 
L 892.134758 -369.288186 
L 893.721598 -373.250779 
L 895.16819 -377.213372 
L 896.436154 -381.175966 
L 897.500228 -385.138559 
L 898.351369 -389.101152 
L 898.996536 -393.063745 
L 899.455554 -397.026338 
L 899.756272 -400.988932 
L 899.929589 -404.951525 
L 900.005725 -408.914118 
L 900.012481 -412.876711 
L 899.975372 -416.839305 
L 899.918822 -420.801898 
L 899.867251 -424.764491 
L 899.845079 -428.727084 
L 899.875204 -432.689677 
L 899.976271 -436.652271 
L 900.159636 -440.614864 
L 900.427165 -444.577457 
L 900.770759 -448.54005 
L 901.17391 -452.502644 
L 901.614907 -456.465237 
L 902.070772 -460.42783 
L 902.520831 -464.390423 
L 902.949092 -468.353016 
L 903.345063 -472.31561 
L 903.703205 -476.278203 
L 904.02158 -480.240796 
L 904.300358 -484.203389 
L 904.540671 -488.165983 
L 904.744048 -492.128576 
L 904.912331 -496.091169 
L 905.047855 -500.053762 
L 905.153627 -504.016355 
L 905.233343 -507.978949 
L 905.291192 -511.941542 
L 905.508808 -511.941542 
L 905.508808 -511.941542 
L 905.566657 -507.978949 
L 905.646373 -504.016355 
L 905.752145 -500.053762 
L 905.887669 -496.091169 
L 906.055952 -492.128576 
L 906.259329 -488.165983 
L 906.499642 -484.203389 
L 906.77842 -480.240796 
L 907.096795 -476.278203 
L 907.454937 -472.31561 
L 907.850908 -468.353016 
L 908.279169 -464.390423 
L 908.729228 -460.42783 
L 909.185093 -456.465237 
L 909.62609 -452.502644 
L 910.029241 -448.54005 
L 910.372835 -444.577457 
L 910.640364 -440.614864 
L 910.823729 -436.652271 
L 910.924796 -432.689677 
L 910.954921 -428.727084 
L 910.932749 -424.764491 
L 910.881178 -420.801898 
L 910.824628 -416.839305 
L 910.787519 -412.876711 
L 910.794275 -408.914118 
L 910.870411 -404.951525 
L 911.043728 -400.988932 
L 911.344446 -397.026338 
L 911.803464 -393.063745 
L 912.448631 -389.101152 
L 913.299772 -385.138559 
L 914.363846 -381.175966 
L 915.63181 -377.213372 
L 917.078402 -373.250779 
L 918.665242 -369.288186 
L 920.346664 -365.325593 
L 922.076865 -361.362999 
L 923.816531 -357.400406 
L 925.537283 -353.437813 
L 927.222937 -349.47522 
L 928.867506 -345.512627 
L 930.470765 -341.550033 
L 932.032829 -337.58744 
L 933.549336 -333.624847 
L 935.008597 -329.662254 
L 936.391452 -325.69966 
L 937.673876 -321.737067 
L 938.831707 -317.774474 
L 939.846378 -313.811881 
L 940.710371 -309.849288 
L 941.431147 -305.886694 
L 942.032622 -301.924101 
L 942.553673 -297.961508 
L 943.043645 -293.998915 
L 943.55531 -290.036321 
L 944.136171 -286.073728 
L 944.819341 -282.111135 
L 945.615497 -278.148542 
L 946.507414 -274.185949 
L 947.448412 -270.223355 
L 948.365521 -266.260762 
L 949.167384 -262.298169 
L 949.755943 -258.335576 
L 950.04 -254.372982 
L 949.948098 -250.410389 
L 949.438071 -246.447796 
L 948.50128 -242.485203 
L 947.160776 -238.52261 
L 945.464215 -234.560016 
L 943.473691 -230.597423 
L 941.255306 -226.63483 
L 938.871075 -222.672237 
L 936.374705 -218.709643 
L 933.811363 -214.74705 
L 931.220271 -210.784457 
L 928.638261 -206.821864 
L 926.102463 -202.859271 
L 923.650992 -198.896677 
L 921.321416 -194.934084 
L 919.147673 -190.971491 
L 917.156586 -187.008898 
L 915.365126 -183.046304 
L 913.779226 -179.083711 
L 912.394393 -175.121118 
L 911.197839 -171.158525 
L 910.171486 -167.195932 
L 909.295116 -163.233338 
L 908.549021 -159.270745 
L 907.915759 -155.308152 
L 907.380904 -151.345559 
L 906.932914 -147.382965 
L 906.562436 -143.420372 
L 906.261384 -139.457779 
L 906.02211 -135.495186 
L 905.836874 -131.532593 
L 905.69769 -127.569999 
L 905.596475 -123.607406 
L 905.525405 -119.644813 
z
" style="stroke: #3f3f3f; stroke-width: 1.25"/>
    </defs>
    <g clip-path="url(#p578278a53b)">
     <use xlink:href="#mb66467b043" x="0" y="720" style="fill: #3274a1; stroke: #3f3f3f; stroke-width: 1.25"/>
    </g>
   </g>
   <g id="PolyCollection_8">
    <defs>
     <path id="m8f6e22e0ee" d="M 1017.08992 -120.151761 
L 1016.91008 -120.151761 
L 1016.857672 -124.063014 
L 1016.781122 -127.974266 
L 1016.672291 -131.885519 
L 1016.52127 -135.796771 
L 1016.316141 -139.708023 
L 1016.042698 -143.619276 
L 1015.684173 -147.530528 
L 1015.221051 -151.441781 
L 1014.631102 -155.353033 
L 1013.889817 -159.264286 
L 1012.971387 -163.175538 
L 1011.850361 -167.086791 
L 1010.504029 -170.998043 
L 1008.915447 -174.909296 
L 1007.076853 -178.820548 
L 1004.993043 -182.731801 
L 1002.684051 -186.643053 
L 1000.186403 -190.554306 
L 997.552216 -194.465558 
L 994.845754 -198.37681 
L 992.137536 -202.288063 
L 989.496803 -206.199315 
L 986.983794 -210.110568 
L 984.643589 -214.02182 
L 982.50317 -217.933073 
L 980.572579 -221.844325 
L 978.849985 -225.755578 
L 977.329199 -229.66683 
L 976.007397 -233.578083 
L 974.890617 -237.489335 
L 973.995236 -241.400588 
L 973.344917 -245.31184 
L 972.963905 -249.223093 
L 972.868712 -253.134345 
L 973.060684 -257.045598 
L 973.521655 -260.95685 
L 974.213901 -264.868102 
L 975.084399 -268.779355 
L 976.072203 -272.690607 
L 977.117017 -276.60186 
L 978.166917 -280.513112 
L 979.183622 -284.424365 
L 980.144584 -288.335617 
L 981.042112 -292.24687 
L 981.880454 -296.158122 
L 982.672064 -300.069375 
L 983.434094 -303.980627 
L 984.185725 -307.89188 
L 984.946426 -311.803132 
L 985.734913 -315.714385 
L 986.568446 -319.625637 
L 987.462245 -323.536889 
L 988.428936 -327.448142 
L 989.478088 -331.359394 
L 990.615889 -335.270647 
L 991.84496 -339.181899 
L 993.164187 -343.093152 
L 994.568436 -347.004404 
L 996.048079 -350.915657 
L 997.58841 -354.826909 
L 999.169183 -358.738162 
L 1000.764647 -362.649414 
L 1002.344413 -366.560667 
L 1003.875332 -370.471919 
L 1005.32428 -374.383172 
L 1006.661435 -378.294424 
L 1007.863373 -382.205677 
L 1008.915287 -386.116929 
L 1009.811742 -390.028181 
L 1010.555814 -393.939434 
L 1011.156908 -397.850686 
L 1011.627962 -401.761939 
L 1011.982961 -405.673191 
L 1012.235561 -409.584444 
L 1012.39919 -413.495696 
L 1012.488408 -417.406949 
L 1012.520758 -421.318201 
L 1012.518068 -425.229454 
L 1012.506301 -429.140706 
L 1012.51353 -433.051959 
L 1012.566358 -436.963211 
L 1012.685688 -440.874464 
L 1012.883095 -444.785716 
L 1013.158888 -448.696968 
L 1013.502458 -452.608221 
L 1013.89476 -456.519473 
L 1014.3122 -460.430726 
L 1014.730846 -464.341978 
L 1015.129949 -468.253231 
L 1015.49414 -472.164483 
L 1015.814128 -476.075736 
L 1016.086183 -479.986988 
L 1016.310892 -483.898241 
L 1016.491708 -487.809493 
L 1016.633662 -491.720746 
L 1016.742407 -495.631998 
L 1016.823613 -499.543251 
L 1016.882616 -503.454503 
L 1016.924231 -507.365756 
L 1017.075769 -507.365756 
L 1017.075769 -507.365756 
L 1017.117384 -503.454503 
L 1017.176387 -499.543251 
L 1017.257593 -495.631998 
L 1017.366338 -491.720746 
L 1017.508292 -487.809493 
L 1017.689108 -483.898241 
L 1017.913817 -479.986988 
L 1018.185872 -476.075736 
L 1018.50586 -472.164483 
L 1018.870051 -468.253231 
L 1019.269154 -464.341978 
L 1019.6878 -460.430726 
L 1020.10524 -456.519473 
L 1020.497542 -452.608221 
L 1020.841112 -448.696968 
L 1021.116905 -444.785716 
L 1021.314312 -440.874464 
L 1021.433642 -436.963211 
L 1021.48647 -433.051959 
L 1021.493699 -429.140706 
L 1021.481932 -425.229454 
L 1021.479242 -421.318201 
L 1021.511592 -417.406949 
L 1021.60081 -413.495696 
L 1021.764439 -409.584444 
L 1022.017039 -405.673191 
L 1022.372038 -401.761939 
L 1022.843092 -397.850686 
L 1023.444186 -393.939434 
L 1024.188258 -390.028181 
L 1025.084713 -386.116929 
L 1026.136627 -382.205677 
L 1027.338565 -378.294424 
L 1028.67572 -374.383172 
L 1030.124668 -370.471919 
L 1031.655587 -366.560667 
L 1033.235353 -362.649414 
L 1034.830817 -358.738162 
L 1036.41159 -354.826909 
L 1037.951921 -350.915657 
L 1039.431564 -347.004404 
L 1040.835813 -343.093152 
L 1042.15504 -339.181899 
L 1043.384111 -335.270647 
L 1044.521912 -331.359394 
L 1045.571064 -327.448142 
L 1046.537755 -323.536889 
L 1047.431554 -319.625637 
L 1048.265087 -315.714385 
L 1049.053574 -311.803132 
L 1049.814275 -307.89188 
L 1050.565906 -303.980627 
L 1051.327936 -300.069375 
L 1052.119546 -296.158122 
L 1052.957888 -292.24687 
L 1053.855416 -288.335617 
L 1054.816378 -284.424365 
L 1055.833083 -280.513112 
L 1056.882983 -276.60186 
L 1057.927797 -272.690607 
L 1058.915601 -268.779355 
L 1059.786099 -264.868102 
L 1060.478345 -260.95685 
L 1060.939316 -257.045598 
L 1061.131288 -253.134345 
L 1061.036095 -249.223093 
L 1060.655083 -245.31184 
L 1060.004764 -241.400588 
L 1059.109383 -237.489335 
L 1057.992603 -233.578083 
L 1056.670801 -229.66683 
L 1055.150015 -225.755578 
L 1053.427421 -221.844325 
L 1051.49683 -217.933073 
L 1049.356411 -214.02182 
L 1047.016206 -210.110568 
L 1044.503197 -206.199315 
L 1041.862464 -202.288063 
L 1039.154246 -198.37681 
L 1036.447784 -194.465558 
L 1033.813597 -190.554306 
L 1031.315949 -186.643053 
L 1029.006957 -182.731801 
L 1026.923147 -178.820548 
L 1025.084553 -174.909296 
L 1023.495971 -170.998043 
L 1022.149639 -167.086791 
L 1021.028613 -163.175538 
L 1020.110183 -159.264286 
L 1019.368898 -155.353033 
L 1018.778949 -151.441781 
L 1018.315827 -147.530528 
L 1017.957302 -143.619276 
L 1017.683859 -139.708023 
L 1017.47873 -135.796771 
L 1017.327709 -131.885519 
L 1017.218878 -127.974266 
L 1017.142328 -124.063014 
L 1017.08992 -120.151761 
z
" style="stroke: #3f3f3f; stroke-width: 1.25"/>
    </defs>
    <g clip-path="url(#p578278a53b)">
     <use xlink:href="#m8f6e22e0ee" x="0" y="720" style="fill: #3274a1; stroke: #3f3f3f; stroke-width: 1.25"/>
    </g>
   </g>
   <g id="PolyCollection_9">
    <defs>
     <path id="mdaaa25bc29" d="M 1128.71122 -119.997507 
L 1128.48878 -119.997507 
L 1128.426221 -123.706463 
L 1128.335954 -127.415419 
L 1128.209471 -131.124374 
L 1128.037165 -134.83333 
L 1127.808655 -138.542286 
L 1127.51317 -142.251241 
L 1127.139909 -145.960197 
L 1126.678251 -149.669153 
L 1126.117708 -153.378109 
L 1125.447561 -157.087064 
L 1124.65621 -160.79602 
L 1123.730404 -164.504976 
L 1122.654666 -168.213932 
L 1121.41129 -171.922887 
L 1119.981294 -175.631843 
L 1118.346567 -179.340799 
L 1116.493188 -183.049755 
L 1114.415526 -186.75871 
L 1112.120407 -190.467666 
L 1109.630408 -194.176622 
L 1106.985308 -197.885578 
L 1104.241009 -201.594533 
L 1101.465701 -205.303489 
L 1098.733739 -209.012445 
L 1096.118277 -212.721401 
L 1093.684179 -216.430356 
L 1091.482722 -220.139312 
L 1089.549238 -223.848268 
L 1087.904059 -227.557223 
L 1086.55618 -231.266179 
L 1085.508245 -234.975135 
L 1084.761055 -238.684091 
L 1084.315982 -242.393046 
L 1084.17438 -246.102002 
L 1084.334138 -249.810958 
L 1084.784513 -253.519914 
L 1085.501062 -257.228869 
L 1086.442534 -260.937825 
L 1087.551087 -264.646781 
L 1088.756248 -268.355737 
L 1089.982005 -272.064692 
L 1091.155571 -275.773648 
L 1092.216 -279.482604 
L 1093.120973 -283.19156 
L 1093.850651 -286.900515 
L 1094.408237 -290.609471 
L 1094.817623 -294.318427 
L 1095.118901 -298.027383 
L 1095.362676 -301.736338 
L 1095.603983 -305.445294 
L 1095.896414 -309.15425 
L 1096.286911 -312.863205 
L 1096.811593 -316.572161 
L 1097.493001 -320.281117 
L 1098.339085 -323.990073 
L 1099.344066 -327.699028 
L 1100.491045 -331.407984 
L 1101.755826 -335.11694 
L 1103.111187 -338.825896 
L 1104.530729 -342.534851 
L 1105.991535 -346.243807 
L 1107.475248 -349.952763 
L 1108.967543 -353.661719 
L 1110.456398 -357.370674 
L 1111.929816 -361.07963 
L 1113.37376 -364.788586 
L 1114.770994 -368.497542 
L 1116.101233 -372.206497 
L 1117.342685 -375.915453 
L 1118.474651 -379.624409 
L 1119.480545 -383.333365 
L 1120.350518 -387.04232 
L 1121.082947 -390.751276 
L 1121.684353 -394.460232 
L 1122.167753 -398.169187 
L 1122.549955 -401.878143 
L 1122.848617 -405.587099 
L 1123.079965 -409.296055 
L 1123.257811 -413.00501 
L 1123.394024 -416.713966 
L 1123.500074 -420.422922 
L 1123.588844 -424.131878 
L 1123.675807 -427.840833 
L 1123.778877 -431.549789 
L 1123.916733 -435.258745 
L 1124.10597 -438.967701 
L 1124.357886 -442.676656 
L 1124.675876 -446.385612 
L 1125.054238 -450.094568 
L 1125.47877 -453.803524 
L 1125.929045 -457.512479 
L 1126.381763 -461.221435 
L 1126.814376 -464.930391 
L 1127.208183 -468.639347 
L 1127.550328 -472.348302 
L 1127.834493 -476.057258 
L 1128.060402 -479.766214 
L 1128.232499 -483.475169 
L 1128.358238 -487.184125 
L 1128.841762 -487.184125 
L 1128.841762 -487.184125 
L 1128.967501 -483.475169 
L 1129.139598 -479.766214 
L 1129.365507 -476.057258 
L 1129.649672 -472.348302 
L 1129.991817 -468.639347 
L 1130.385624 -464.930391 
L 1130.818237 -461.221435 
L 1131.270955 -457.512479 
L 1131.72123 -453.803524 
L 1132.145762 -450.094568 
L 1132.524124 -446.385612 
L 1132.842114 -442.676656 
L 1133.09403 -438.967701 
L 1133.283267 -435.258745 
L 1133.421123 -431.549789 
L 1133.524193 -427.840833 
L 1133.611156 -424.131878 
L 1133.699926 -420.422922 
L 1133.805976 -416.713966 
L 1133.942189 -413.00501 
L 1134.120035 -409.296055 
L 1134.351383 -405.587099 
L 1134.650045 -401.878143 
L 1135.032247 -398.169187 
L 1135.515647 -394.460232 
L 1136.117053 -390.751276 
L 1136.849482 -387.04232 
L 1137.719455 -383.333365 
L 1138.725349 -379.624409 
L 1139.857315 -375.915453 
L 1141.098767 -372.206497 
L 1142.429006 -368.497542 
L 1143.82624 -364.788586 
L 1145.270184 -361.07963 
L 1146.743602 -357.370674 
L 1148.232457 -353.661719 
L 1149.724752 -349.952763 
L 1151.208465 -346.243807 
L 1152.669271 -342.534851 
L 1154.088813 -338.825896 
L 1155.444174 -335.11694 
L 1156.708955 -331.407984 
L 1157.855934 -327.699028 
L 1158.860915 -323.990073 
L 1159.706999 -320.281117 
L 1160.388407 -316.572161 
L 1160.913089 -312.863205 
L 1161.303586 -309.15425 
L 1161.596017 -305.445294 
L 1161.837324 -301.736338 
L 1162.081099 -298.027383 
L 1162.382377 -294.318427 
L 1162.791763 -290.609471 
L 1163.349349 -286.900515 
L 1164.079027 -283.19156 
L 1164.984 -279.482604 
L 1166.044429 -275.773648 
L 1167.217995 -272.064692 
L 1168.443752 -268.355737 
L 1169.648913 -264.646781 
L 1170.757466 -260.937825 
L 1171.698938 -257.228869 
L 1172.415487 -253.519914 
L 1172.865862 -249.810958 
L 1173.02562 -246.102002 
L 1172.884018 -242.393046 
L 1172.438945 -238.684091 
L 1171.691755 -234.975135 
L 1170.64382 -231.266179 
L 1169.295941 -227.557223 
L 1167.650762 -223.848268 
L 1165.717278 -220.139312 
L 1163.515821 -216.430356 
L 1161.081723 -212.721401 
L 1158.466261 -209.012445 
L 1155.734299 -205.303489 
L 1152.958991 -201.594533 
L 1150.214692 -197.885578 
L 1147.569592 -194.176622 
L 1145.079593 -190.467666 
L 1142.784474 -186.75871 
L 1140.706812 -183.049755 
L 1138.853433 -179.340799 
L 1137.218706 -175.631843 
L 1135.78871 -171.922887 
L 1134.545334 -168.213932 
L 1133.469596 -164.504976 
L 1132.54379 -160.79602 
L 1131.752439 -157.087064 
L 1131.082292 -153.378109 
L 1130.521749 -149.669153 
L 1130.060091 -145.960197 
L 1129.68683 -142.251241 
L 1129.391345 -138.542286 
L 1129.162835 -134.83333 
L 1128.990529 -131.124374 
L 1128.864046 -127.415419 
L 1128.773779 -123.706463 
L 1128.71122 -119.997507 
z
" style="stroke: #3f3f3f; stroke-width: 1.25"/>
    </defs>
    <g clip-path="url(#p578278a53b)">
     <use xlink:href="#mdaaa25bc29" x="0" y="720" style="fill: #3274a1; stroke: #3f3f3f; stroke-width: 1.25"/>
    </g>
   </g>
   <g id="PolyCollection_10">
    <defs>
     <path id="m1d2c7f085b" d="M 1240.312018 -120.409087 
L 1240.087982 -120.409087 
L 1240.024145 -124.109728 
L 1239.931602 -127.810369 
L 1239.801363 -131.51101 
L 1239.623243 -135.211651 
L 1239.386243 -138.912292 
L 1239.079051 -142.612933 
L 1238.69056 -146.313574 
L 1238.210282 -150.014215 
L 1237.628472 -153.714856 
L 1236.935828 -157.415497 
L 1236.122686 -161.116138 
L 1235.177789 -164.816779 
L 1234.08692 -168.51742 
L 1232.831891 -172.218061 
L 1231.390546 -175.918702 
L 1229.738401 -179.619343 
L 1227.852344 -183.319984 
L 1225.716321 -187.020625 
L 1223.32829 -190.721266 
L 1220.707095 -194.421907 
L 1217.897432 -198.122548 
L 1214.971091 -201.823189 
L 1212.023187 -205.52383 
L 1209.163157 -209.224471 
L 1206.501676 -212.925112 
L 1204.135914 -216.625753 
L 1202.13632 -220.326394 
L 1200.538058 -224.027035 
L 1199.339174 -227.727676 
L 1198.505929 -231.428317 
L 1197.983804 -235.128958 
L 1197.711188 -238.829599 
L 1197.632151 -242.53024 
L 1197.705153 -246.230881 
L 1197.905899 -249.931522 
L 1198.224378 -253.632163 
L 1198.657805 -257.332804 
L 1199.202198 -261.033445 
L 1199.845419 -264.734086 
L 1200.563764 -268.434727 
L 1201.322874 -272.135368 
L 1202.082397 -275.836009 
L 1202.802833 -279.53665 
L 1203.452616 -283.237291 
L 1204.013697 -286.937932 
L 1204.484536 -290.638573 
L 1204.880148 -294.339214 
L 1205.229484 -298.039855 
L 1205.570824 -301.740496 
L 1205.946047 -305.441137 
L 1206.394698 -309.141778 
L 1206.948783 -312.842419 
L 1207.629148 -316.54306 
L 1208.444063 -320.243701 
L 1209.390286 -323.944342 
L 1210.456259 -327.644983 
L 1211.626588 -331.345624 
L 1212.886511 -335.046265 
L 1214.225085 -338.746906 
L 1215.636151 -342.447547 
L 1217.116857 -346.148188 
L 1218.664264 -349.848829 
L 1220.271182 -353.54947 
L 1221.92259 -357.25011 
L 1223.593829 -360.950751 
L 1225.251221 -364.651392 
L 1226.855079 -368.352033 
L 1228.364428 -372.052674 
L 1229.742375 -375.753315 
L 1230.960926 -379.453956 
L 1232.004252 -383.154597 
L 1232.869784 -386.855238 
L 1233.567046 -390.555879 
L 1234.114598 -394.25652 
L 1234.535892 -397.957161 
L 1234.855039 -401.657802 
L 1235.093458 -405.358443 
L 1235.268144 -409.059084 
L 1235.391791 -412.759725 
L 1235.474522 -416.460366 
L 1235.526445 -420.161007 
L 1235.560052 -423.861648 
L 1235.591512 -427.562289 
L 1235.640267 -431.26293 
L 1235.726903 -434.963571 
L 1235.869832 -438.664212 
L 1236.081715 -442.364853 
L 1236.366658 -446.065494 
L 1236.718994 -449.766135 
L 1237.123984 -453.466776 
L 1237.56027 -457.167417 
L 1238.003423 -460.868058 
L 1238.429754 -464.568699 
L 1238.819533 -468.26934 
L 1239.15908 -471.969981 
L 1239.441476 -475.670622 
L 1239.66606 -479.371263 
L 1239.83706 -483.071904 
L 1239.96184 -486.772545 
L 1240.43816 -486.772545 
L 1240.43816 -486.772545 
L 1240.56294 -483.071904 
L 1240.73394 -479.371263 
L 1240.958524 -475.670622 
L 1241.24092 -471.969981 
L 1241.580467 -468.26934 
L 1241.970246 -464.568699 
L 1242.396577 -460.868058 
L 1242.83973 -457.167417 
L 1243.276016 -453.466776 
L 1243.681006 -449.766135 
L 1244.033342 -446.065494 
L 1244.318285 -442.364853 
L 1244.530168 -438.664212 
L 1244.673097 -434.963571 
L 1244.759733 -431.26293 
L 1244.808488 -427.562289 
L 1244.839948 -423.861648 
L 1244.873555 -420.161007 
L 1244.925478 -416.460366 
L 1245.008209 -412.759725 
L 1245.131856 -409.059084 
L 1245.306542 -405.358443 
L 1245.544961 -401.657802 
L 1245.864108 -397.957161 
L 1246.285402 -394.25652 
L 1246.832954 -390.555879 
L 1247.530216 -386.855238 
L 1248.395748 -383.154597 
L 1249.439074 -379.453956 
L 1250.657625 -375.753315 
L 1252.035572 -372.052674 
L 1253.544921 -368.352033 
L 1255.148779 -364.651392 
L 1256.806171 -360.950751 
L 1258.47741 -357.25011 
L 1260.128818 -353.54947 
L 1261.735736 -349.848829 
L 1263.283143 -346.148188 
L 1264.763849 -342.447547 
L 1266.174915 -338.746906 
L 1267.513489 -335.046265 
L 1268.773412 -331.345624 
L 1269.943741 -327.644983 
L 1271.009714 -323.944342 
L 1271.955937 -320.243701 
L 1272.770852 -316.54306 
L 1273.451217 -312.842419 
L 1274.005302 -309.141778 
L 1274.453953 -305.441137 
L 1274.829176 -301.740496 
L 1275.170516 -298.039855 
L 1275.519852 -294.339214 
L 1275.915464 -290.638573 
L 1276.386303 -286.937932 
L 1276.947384 -283.237291 
L 1277.597167 -279.53665 
L 1278.317603 -275.836009 
L 1279.077126 -272.135368 
L 1279.836236 -268.434727 
L 1280.554581 -264.734086 
L 1281.197802 -261.033445 
L 1281.742195 -257.332804 
L 1282.175622 -253.632163 
L 1282.494101 -249.931522 
L 1282.694847 -246.230881 
L 1282.767849 -242.53024 
L 1282.688812 -238.829599 
L 1282.416196 -235.128958 
L 1281.894071 -231.428317 
L 1281.060826 -227.727676 
L 1279.861942 -224.027035 
L 1278.26368 -220.326394 
L 1276.264086 -216.625753 
L 1273.898324 -212.925112 
L 1271.236843 -209.224471 
L 1268.376813 -205.52383 
L 1265.428909 -201.823189 
L 1262.502568 -198.122548 
L 1259.692905 -194.421907 
L 1257.07171 -190.721266 
L 1254.683679 -187.020625 
L 1252.547656 -183.319984 
L 1250.661599 -179.619343 
L 1249.009454 -175.918702 
L 1247.568109 -172.218061 
L 1246.31308 -168.51742 
L 1245.222211 -164.816779 
L 1244.277314 -161.116138 
L 1243.464172 -157.415497 
L 1242.771528 -153.714856 
L 1242.189718 -150.014215 
L 1241.70944 -146.313574 
L 1241.320949 -142.612933 
L 1241.013757 -138.912292 
L 1240.776757 -135.211651 
L 1240.598637 -131.51101 
L 1240.468398 -127.810369 
L 1240.375855 -124.109728 
L 1240.312018 -120.409087 
z
" style="stroke: #3f3f3f; stroke-width: 1.25"/>
    </defs>
    <g clip-path="url(#p578278a53b)">
     <use xlink:href="#m1d2c7f085b" x="0" y="720" style="fill: #3274a1; stroke: #3f3f3f; stroke-width: 1.25"/>
    </g>
   </g>
   <g id="matplotlib.axis_1">
    <g id="xtick_1">
     <g id="line2d_1">
      <defs>
       <path id="m12abd4a767" d="M 0 0 
L 0 3.5 
" style="stroke: #000000; stroke-width: 0.8"/>
      </defs>
      <g>
       <use xlink:href="#m12abd4a767" x="235.8" y="640.8" style="stroke: #000000; stroke-width: 0.8"/>
      </g>
     </g>
     <g id="text_1">
      <!-- 0 -->
      <g transform="translate(232.61875 655.398438) scale(0.1 -0.1)">
       <defs>
        <path id="DejaVuSans-30" d="M 2034 4250 
Q 1547 4250 1301 3770 
Q 1056 3291 1056 2328 
Q 1056 1369 1301 889 
Q 1547 409 2034 409 
Q 2525 409 2770 889 
Q 3016 1369 3016 2328 
Q 3016 3291 2770 3770 
Q 2525 4250 2034 4250 
z
M 2034 4750 
Q 2819 4750 3233 4129 
Q 3647 3509 3647 2328 
Q 3647 1150 3233 529 
Q 2819 -91 2034 -91 
Q 1250 -91 836 529 
Q 422 1150 422 2328 
Q 422 3509 836 4129 
Q 1250 4750 2034 4750 
z
" transform="scale(0.015625)"/>
       </defs>
       <use xlink:href="#DejaVuSans-30"/>
      </g>
     </g>
    </g>
    <g id="xtick_2">
     <g id="line2d_2">
      <g>
       <use xlink:href="#m12abd4a767" x="347.4" y="640.8" style="stroke: #000000; stroke-width: 0.8"/>
      </g>
     </g>
     <g id="text_2">
      <!-- 1 -->
      <g transform="translate(344.21875 655.398438) scale(0.1 -0.1)">
       <defs>
        <path id="DejaVuSans-31" d="M 794 531 
L 1825 531 
L 1825 4091 
L 703 3866 
L 703 4441 
L 1819 4666 
L 2450 4666 
L 2450 531 
L 3481 531 
L 3481 0 
L 794 0 
L 794 531 
z
" transform="scale(0.015625)"/>
       </defs>
       <use xlink:href="#DejaVuSans-31"/>
      </g>
     </g>
    </g>
    <g id="xtick_3">
     <g id="line2d_3">
      <g>
       <use xlink:href="#m12abd4a767" x="459" y="640.8" style="stroke: #000000; stroke-width: 0.8"/>
      </g>
     </g>
     <g id="text_3">
      <!-- 2 -->
      <g transform="translate(455.81875 655.398438) scale(0.1 -0.1)">
       <defs>
        <path id="DejaVuSans-32" d="M 1228 531 
L 3431 531 
L 3431 0 
L 469 0 
L 469 531 
Q 828 903 1448 1529 
Q 2069 2156 2228 2338 
Q 2531 2678 2651 2914 
Q 2772 3150 2772 3378 
Q 2772 3750 2511 3984 
Q 2250 4219 1831 4219 
Q 1534 4219 1204 4116 
Q 875 4013 500 3803 
L 500 4441 
Q 881 4594 1212 4672 
Q 1544 4750 1819 4750 
Q 2544 4750 2975 4387 
Q 3406 4025 3406 3419 
Q 3406 3131 3298 2873 
Q 3191 2616 2906 2266 
Q 2828 2175 2409 1742 
Q 1991 1309 1228 531 
z
" transform="scale(0.015625)"/>
       </defs>
       <use xlink:href="#DejaVuSans-32"/>
      </g>
     </g>
    </g>
    <g id="xtick_4">
     <g id="line2d_4">
      <g>
       <use xlink:href="#m12abd4a767" x="570.6" y="640.8" style="stroke: #000000; stroke-width: 0.8"/>
      </g>
     </g>
     <g id="text_4">
      <!-- 3 -->
      <g transform="translate(567.41875 655.398438) scale(0.1 -0.1)">
       <defs>
        <path id="DejaVuSans-33" d="M 2597 2516 
Q 3050 2419 3304 2112 
Q 3559 1806 3559 1356 
Q 3559 666 3084 287 
Q 2609 -91 1734 -91 
Q 1441 -91 1130 -33 
Q 819 25 488 141 
L 488 750 
Q 750 597 1062 519 
Q 1375 441 1716 441 
Q 2309 441 2620 675 
Q 2931 909 2931 1356 
Q 2931 1769 2642 2001 
Q 2353 2234 1838 2234 
L 1294 2234 
L 1294 2753 
L 1863 2753 
Q 2328 2753 2575 2939 
Q 2822 3125 2822 3475 
Q 2822 3834 2567 4026 
Q 2313 4219 1838 4219 
Q 1578 4219 1281 4162 
Q 984 4106 628 3988 
L 628 4550 
Q 988 4650 1302 4700 
Q 1616 4750 1894 4750 
Q 2613 4750 3031 4423 
Q 3450 4097 3450 3541 
Q 3450 3153 3228 2886 
Q 3006 2619 2597 2516 
z
" transform="scale(0.015625)"/>
       </defs>
       <use xlink:href="#DejaVuSans-33"/>
      </g>
     </g>
    </g>
    <g id="xtick_5">
     <g id="line2d_5">
      <g>
       <use xlink:href="#m12abd4a767" x="682.2" y="640.8" style="stroke: #000000; stroke-width: 0.8"/>
      </g>
     </g>
     <g id="text_5">
      <!-- 4 -->
      <g transform="translate(679.01875 655.398438) scale(0.1 -0.1)">
       <defs>
        <path id="DejaVuSans-34" d="M 2419 4116 
L 825 1625 
L 2419 1625 
L 2419 4116 
z
M 2253 4666 
L 3047 4666 
L 3047 1625 
L 3713 1625 
L 3713 1100 
L 3047 1100 
L 3047 0 
L 2419 0 
L 2419 1100 
L 313 1100 
L 313 1709 
L 2253 4666 
z
" transform="scale(0.015625)"/>
       </defs>
       <use xlink:href="#DejaVuSans-34"/>
      </g>
     </g>
    </g>
    <g id="xtick_6">
     <g id="line2d_6">
      <g>
       <use xlink:href="#m12abd4a767" x="793.8" y="640.8" style="stroke: #000000; stroke-width: 0.8"/>
      </g>
     </g>
     <g id="text_6">
      <!-- 5 -->
      <g transform="translate(790.61875 655.398438) scale(0.1 -0.1)">
       <defs>
        <path id="DejaVuSans-35" d="M 691 4666 
L 3169 4666 
L 3169 4134 
L 1269 4134 
L 1269 2991 
Q 1406 3038 1543 3061 
Q 1681 3084 1819 3084 
Q 2600 3084 3056 2656 
Q 3513 2228 3513 1497 
Q 3513 744 3044 326 
Q 2575 -91 1722 -91 
Q 1428 -91 1123 -41 
Q 819 9 494 109 
L 494 744 
Q 775 591 1075 516 
Q 1375 441 1709 441 
Q 2250 441 2565 725 
Q 2881 1009 2881 1497 
Q 2881 1984 2565 2268 
Q 2250 2553 1709 2553 
Q 1456 2553 1204 2497 
Q 953 2441 691 2322 
L 691 4666 
z
" transform="scale(0.015625)"/>
       </defs>
       <use xlink:href="#DejaVuSans-35"/>
      </g>
     </g>
    </g>
    <g id="xtick_7">
     <g id="line2d_7">
      <g>
       <use xlink:href="#m12abd4a767" x="905.4" y="640.8" style="stroke: #000000; stroke-width: 0.8"/>
      </g>
     </g>
     <g id="text_7">
      <!-- 6 -->
      <g transform="translate(902.21875 655.398438) scale(0.1 -0.1)">
       <defs>
        <path id="DejaVuSans-36" d="M 2113 2584 
Q 1688 2584 1439 2293 
Q 1191 2003 1191 1497 
Q 1191 994 1439 701 
Q 1688 409 2113 409 
Q 2538 409 2786 701 
Q 3034 994 3034 1497 
Q 3034 2003 2786 2293 
Q 2538 2584 2113 2584 
z
M 3366 4563 
L 3366 3988 
Q 3128 4100 2886 4159 
Q 2644 4219 2406 4219 
Q 1781 4219 1451 3797 
Q 1122 3375 1075 2522 
Q 1259 2794 1537 2939 
Q 1816 3084 2150 3084 
Q 2853 3084 3261 2657 
Q 3669 2231 3669 1497 
Q 3669 778 3244 343 
Q 2819 -91 2113 -91 
Q 1303 -91 875 529 
Q 447 1150 447 2328 
Q 447 3434 972 4092 
Q 1497 4750 2381 4750 
Q 2619 4750 2861 4703 
Q 3103 4656 3366 4563 
z
" transform="scale(0.015625)"/>
       </defs>
       <use xlink:href="#DejaVuSans-36"/>
      </g>
     </g>
    </g>
    <g id="xtick_8">
     <g id="line2d_8">
      <g>
       <use xlink:href="#m12abd4a767" x="1017" y="640.8" style="stroke: #000000; stroke-width: 0.8"/>
      </g>
     </g>
     <g id="text_8">
      <!-- 7 -->
      <g transform="translate(1013.81875 655.398438) scale(0.1 -0.1)">
       <defs>
        <path id="DejaVuSans-37" d="M 525 4666 
L 3525 4666 
L 3525 4397 
L 1831 0 
L 1172 0 
L 2766 4134 
L 525 4134 
L 525 4666 
z
" transform="scale(0.015625)"/>
       </defs>
       <use xlink:href="#DejaVuSans-37"/>
      </g>
     </g>
    </g>
    <g id="xtick_9">
     <g id="line2d_9">
      <g>
       <use xlink:href="#m12abd4a767" x="1128.6" y="640.8" style="stroke: #000000; stroke-width: 0.8"/>
      </g>
     </g>
     <g id="text_9">
      <!-- 8 -->
      <g transform="translate(1125.41875 655.398438) scale(0.1 -0.1)">
       <defs>
        <path id="DejaVuSans-38" d="M 2034 2216 
Q 1584 2216 1326 1975 
Q 1069 1734 1069 1313 
Q 1069 891 1326 650 
Q 1584 409 2034 409 
Q 2484 409 2743 651 
Q 3003 894 3003 1313 
Q 3003 1734 2745 1975 
Q 2488 2216 2034 2216 
z
M 1403 2484 
Q 997 2584 770 2862 
Q 544 3141 544 3541 
Q 544 4100 942 4425 
Q 1341 4750 2034 4750 
Q 2731 4750 3128 4425 
Q 3525 4100 3525 3541 
Q 3525 3141 3298 2862 
Q 3072 2584 2669 2484 
Q 3125 2378 3379 2068 
Q 3634 1759 3634 1313 
Q 3634 634 3220 271 
Q 2806 -91 2034 -91 
Q 1263 -91 848 271 
Q 434 634 434 1313 
Q 434 1759 690 2068 
Q 947 2378 1403 2484 
z
M 1172 3481 
Q 1172 3119 1398 2916 
Q 1625 2713 2034 2713 
Q 2441 2713 2670 2916 
Q 2900 3119 2900 3481 
Q 2900 3844 2670 4047 
Q 2441 4250 2034 4250 
Q 1625 4250 1398 4047 
Q 1172 3844 1172 3481 
z
" transform="scale(0.015625)"/>
       </defs>
       <use xlink:href="#DejaVuSans-38"/>
      </g>
     </g>
    </g>
    <g id="xtick_10">
     <g id="line2d_10">
      <g>
       <use xlink:href="#m12abd4a767" x="1240.2" y="640.8" style="stroke: #000000; stroke-width: 0.8"/>
      </g>
     </g>
     <g id="text_10">
      <!-- 9 -->
      <g transform="translate(1237.01875 655.398438) scale(0.1 -0.1)">
       <defs>
        <path id="DejaVuSans-39" d="M 703 97 
L 703 672 
Q 941 559 1184 500 
Q 1428 441 1663 441 
Q 2288 441 2617 861 
Q 2947 1281 2994 2138 
Q 2813 1869 2534 1725 
Q 2256 1581 1919 1581 
Q 1219 1581 811 2004 
Q 403 2428 403 3163 
Q 403 3881 828 4315 
Q 1253 4750 1959 4750 
Q 2769 4750 3195 4129 
Q 3622 3509 3622 2328 
Q 3622 1225 3098 567 
Q 2575 -91 1691 -91 
Q 1453 -91 1209 -44 
Q 966 3 703 97 
z
M 1959 2075 
Q 2384 2075 2632 2365 
Q 2881 2656 2881 3163 
Q 2881 3666 2632 3958 
Q 2384 4250 1959 4250 
Q 1534 4250 1286 3958 
Q 1038 3666 1038 3163 
Q 1038 2656 1286 2365 
Q 1534 2075 1959 2075 
z
" transform="scale(0.015625)"/>
       </defs>
       <use xlink:href="#DejaVuSans-39"/>
      </g>
     </g>
    </g>
    <g id="text_11">
     <!-- iteration -->
     <g transform="translate(716.877344 669.076563) scale(0.1 -0.1)">
      <defs>
       <path id="DejaVuSans-69" d="M 603 3500 
L 1178 3500 
L 1178 0 
L 603 0 
L 603 3500 
z
M 603 4863 
L 1178 4863 
L 1178 4134 
L 603 4134 
L 603 4863 
z
" transform="scale(0.015625)"/>
       <path id="DejaVuSans-74" d="M 1172 4494 
L 1172 3500 
L 2356 3500 
L 2356 3053 
L 1172 3053 
L 1172 1153 
Q 1172 725 1289 603 
Q 1406 481 1766 481 
L 2356 481 
L 2356 0 
L 1766 0 
Q 1100 0 847 248 
Q 594 497 594 1153 
L 594 3053 
L 172 3053 
L 172 3500 
L 594 3500 
L 594 4494 
L 1172 4494 
z
" transform="scale(0.015625)"/>
       <path id="DejaVuSans-65" d="M 3597 1894 
L 3597 1613 
L 953 1613 
Q 991 1019 1311 708 
Q 1631 397 2203 397 
Q 2534 397 2845 478 
Q 3156 559 3463 722 
L 3463 178 
Q 3153 47 2828 -22 
Q 2503 -91 2169 -91 
Q 1331 -91 842 396 
Q 353 884 353 1716 
Q 353 2575 817 3079 
Q 1281 3584 2069 3584 
Q 2775 3584 3186 3129 
Q 3597 2675 3597 1894 
z
M 3022 2063 
Q 3016 2534 2758 2815 
Q 2500 3097 2075 3097 
Q 1594 3097 1305 2825 
Q 1016 2553 972 2059 
L 3022 2063 
z
" transform="scale(0.015625)"/>
       <path id="DejaVuSans-72" d="M 2631 2963 
Q 2534 3019 2420 3045 
Q 2306 3072 2169 3072 
Q 1681 3072 1420 2755 
Q 1159 2438 1159 1844 
L 1159 0 
L 581 0 
L 581 3500 
L 1159 3500 
L 1159 2956 
Q 1341 3275 1631 3429 
Q 1922 3584 2338 3584 
Q 2397 3584 2469 3576 
Q 2541 3569 2628 3553 
L 2631 2963 
z
" transform="scale(0.015625)"/>
       <path id="DejaVuSans-61" d="M 2194 1759 
Q 1497 1759 1228 1600 
Q 959 1441 959 1056 
Q 959 750 1161 570 
Q 1363 391 1709 391 
Q 2188 391 2477 730 
Q 2766 1069 2766 1631 
L 2766 1759 
L 2194 1759 
z
M 3341 1997 
L 3341 0 
L 2766 0 
L 2766 531 
Q 2569 213 2275 61 
Q 1981 -91 1556 -91 
Q 1019 -91 701 211 
Q 384 513 384 1019 
Q 384 1609 779 1909 
Q 1175 2209 1959 2209 
L 2766 2209 
L 2766 2266 
Q 2766 2663 2505 2880 
Q 2244 3097 1772 3097 
Q 1472 3097 1187 3025 
Q 903 2953 641 2809 
L 641 3341 
Q 956 3463 1253 3523 
Q 1550 3584 1831 3584 
Q 2591 3584 2966 3190 
Q 3341 2797 3341 1997 
z
" transform="scale(0.015625)"/>
       <path id="DejaVuSans-6f" d="M 1959 3097 
Q 1497 3097 1228 2736 
Q 959 2375 959 1747 
Q 959 1119 1226 758 
Q 1494 397 1959 397 
Q 2419 397 2687 759 
Q 2956 1122 2956 1747 
Q 2956 2369 2687 2733 
Q 2419 3097 1959 3097 
z
M 1959 3584 
Q 2709 3584 3137 3096 
Q 3566 2609 3566 1747 
Q 3566 888 3137 398 
Q 2709 -91 1959 -91 
Q 1206 -91 779 398 
Q 353 888 353 1747 
Q 353 2609 779 3096 
Q 1206 3584 1959 3584 
z
" transform="scale(0.015625)"/>
       <path id="DejaVuSans-6e" d="M 3513 2113 
L 3513 0 
L 2938 0 
L 2938 2094 
Q 2938 2591 2744 2837 
Q 2550 3084 2163 3084 
Q 1697 3084 1428 2787 
Q 1159 2491 1159 1978 
L 1159 0 
L 581 0 
L 581 3500 
L 1159 3500 
L 1159 2956 
Q 1366 3272 1645 3428 
Q 1925 3584 2291 3584 
Q 2894 3584 3203 3211 
Q 3513 2838 3513 2113 
z
" transform="scale(0.015625)"/>
      </defs>
      <use xlink:href="#DejaVuSans-69"/>
      <use xlink:href="#DejaVuSans-74" x="27.783203"/>
      <use xlink:href="#DejaVuSans-65" x="66.992188"/>
      <use xlink:href="#DejaVuSans-72" x="128.515625"/>
      <use xlink:href="#DejaVuSans-61" x="169.628906"/>
      <use xlink:href="#DejaVuSans-74" x="230.908203"/>
      <use xlink:href="#DejaVuSans-69" x="270.117188"/>
      <use xlink:href="#DejaVuSans-6f" x="297.900391"/>
      <use xlink:href="#DejaVuSans-6e" x="359.082031"/>
     </g>
    </g>
   </g>
   <g id="matplotlib.axis_2">
    <g id="ytick_1">
     <g id="line2d_11">
      <defs>
       <path id="mc609f597f7" d="M 0 0 
L -3.5 0 
" style="stroke: #000000; stroke-width: 0.8"/>
      </defs>
      <g>
       <use xlink:href="#mc609f597f7" x="180" y="594.350124" style="stroke: #000000; stroke-width: 0.8"/>
      </g>
     </g>
     <g id="text_12">
      <!-- 0.2 -->
      <g transform="translate(148.717187 598.149343) scale(0.1 -0.1)">
       <defs>
        <path id="DejaVuSans-2212" d="M 678 2272 
L 4684 2272 
L 4684 1741 
L 678 1741 
L 678 2272 
z
" transform="scale(0.015625)"/>
        <path id="DejaVuSans-2e" d="M 684 794 
L 1344 794 
L 1344 0 
L 684 0 
L 684 794 
z
" transform="scale(0.015625)"/>
       </defs>
       <use xlink:href="#DejaVuSans-2212"/>
       <use xlink:href="#DejaVuSans-30" x="83.789062"/>
       <use xlink:href="#DejaVuSans-2e" x="147.412109"/>
       <use xlink:href="#DejaVuSans-32" x="179.199219"/>
      </g>
     </g>
    </g>
    <g id="ytick_2">
     <g id="line2d_12">
      <g>
       <use xlink:href="#mc609f597f7" x="180" y="520.417968" style="stroke: #000000; stroke-width: 0.8"/>
      </g>
     </g>
     <g id="text_13">
      <!-- 0.0 -->
      <g transform="translate(157.096875 524.217187) scale(0.1 -0.1)">
       <use xlink:href="#DejaVuSans-30"/>
       <use xlink:href="#DejaVuSans-2e" x="63.623047"/>
       <use xlink:href="#DejaVuSans-30" x="95.410156"/>
      </g>
     </g>
    </g>
    <g id="ytick_3">
     <g id="line2d_13">
      <g>
       <use xlink:href="#mc609f597f7" x="180" y="446.485812" style="stroke: #000000; stroke-width: 0.8"/>
      </g>
     </g>
     <g id="text_14">
      <!-- 0.2 -->
      <g transform="translate(157.096875 450.285031) scale(0.1 -0.1)">
       <use xlink:href="#DejaVuSans-30"/>
       <use xlink:href="#DejaVuSans-2e" x="63.623047"/>
       <use xlink:href="#DejaVuSans-32" x="95.410156"/>
      </g>
     </g>
    </g>
    <g id="ytick_4">
     <g id="line2d_14">
      <g>
       <use xlink:href="#mc609f597f7" x="180" y="372.553657" style="stroke: #000000; stroke-width: 0.8"/>
      </g>
     </g>
     <g id="text_15">
      <!-- 0.4 -->
      <g transform="translate(157.096875 376.352875) scale(0.1 -0.1)">
       <use xlink:href="#DejaVuSans-30"/>
       <use xlink:href="#DejaVuSans-2e" x="63.623047"/>
       <use xlink:href="#DejaVuSans-34" x="95.410156"/>
      </g>
     </g>
    </g>
    <g id="ytick_5">
     <g id="line2d_15">
      <g>
       <use xlink:href="#mc609f597f7" x="180" y="298.621501" style="stroke: #000000; stroke-width: 0.8"/>
      </g>
     </g>
     <g id="text_16">
      <!-- 0.6 -->
      <g transform="translate(157.096875 302.420719) scale(0.1 -0.1)">
       <use xlink:href="#DejaVuSans-30"/>
       <use xlink:href="#DejaVuSans-2e" x="63.623047"/>
       <use xlink:href="#DejaVuSans-36" x="95.410156"/>
      </g>
     </g>
    </g>
    <g id="ytick_6">
     <g id="line2d_16">
      <g>
       <use xlink:href="#mc609f597f7" x="180" y="224.689345" style="stroke: #000000; stroke-width: 0.8"/>
      </g>
     </g>
     <g id="text_17">
      <!-- 0.8 -->
      <g transform="translate(157.096875 228.488564) scale(0.1 -0.1)">
       <use xlink:href="#DejaVuSans-30"/>
       <use xlink:href="#DejaVuSans-2e" x="63.623047"/>
       <use xlink:href="#DejaVuSans-38" x="95.410156"/>
      </g>
     </g>
    </g>
    <g id="ytick_7">
     <g id="line2d_17">
      <g>
       <use xlink:href="#mc609f597f7" x="180" y="150.757189" style="stroke: #000000; stroke-width: 0.8"/>
      </g>
     </g>
     <g id="text_18">
      <!-- 1.0 -->
      <g transform="translate(157.096875 154.556408) scale(0.1 -0.1)">
       <use xlink:href="#DejaVuSans-31"/>
       <use xlink:href="#DejaVuSans-2e" x="63.623047"/>
       <use xlink:href="#DejaVuSans-30" x="95.410156"/>
      </g>
     </g>
    </g>
    <g id="text_19">
     <!-- cosine similarity -->
     <g transform="translate(142.6375 404.307031) rotate(-90) scale(0.1 -0.1)">
      <defs>
       <path id="DejaVuSans-63" d="M 3122 3366 
L 3122 2828 
Q 2878 2963 2633 3030 
Q 2388 3097 2138 3097 
Q 1578 3097 1268 2742 
Q 959 2388 959 1747 
Q 959 1106 1268 751 
Q 1578 397 2138 397 
Q 2388 397 2633 464 
Q 2878 531 3122 666 
L 3122 134 
Q 2881 22 2623 -34 
Q 2366 -91 2075 -91 
Q 1284 -91 818 406 
Q 353 903 353 1747 
Q 353 2603 823 3093 
Q 1294 3584 2113 3584 
Q 2378 3584 2631 3529 
Q 2884 3475 3122 3366 
z
" transform="scale(0.015625)"/>
       <path id="DejaVuSans-73" d="M 2834 3397 
L 2834 2853 
Q 2591 2978 2328 3040 
Q 2066 3103 1784 3103 
Q 1356 3103 1142 2972 
Q 928 2841 928 2578 
Q 928 2378 1081 2264 
Q 1234 2150 1697 2047 
L 1894 2003 
Q 2506 1872 2764 1633 
Q 3022 1394 3022 966 
Q 3022 478 2636 193 
Q 2250 -91 1575 -91 
Q 1294 -91 989 -36 
Q 684 19 347 128 
L 347 722 
Q 666 556 975 473 
Q 1284 391 1588 391 
Q 1994 391 2212 530 
Q 2431 669 2431 922 
Q 2431 1156 2273 1281 
Q 2116 1406 1581 1522 
L 1381 1569 
Q 847 1681 609 1914 
Q 372 2147 372 2553 
Q 372 3047 722 3315 
Q 1072 3584 1716 3584 
Q 2034 3584 2315 3537 
Q 2597 3491 2834 3397 
z
" transform="scale(0.015625)"/>
       <path id="DejaVuSans-20" transform="scale(0.015625)"/>
       <path id="DejaVuSans-6d" d="M 3328 2828 
Q 3544 3216 3844 3400 
Q 4144 3584 4550 3584 
Q 5097 3584 5394 3201 
Q 5691 2819 5691 2113 
L 5691 0 
L 5113 0 
L 5113 2094 
Q 5113 2597 4934 2840 
Q 4756 3084 4391 3084 
Q 3944 3084 3684 2787 
Q 3425 2491 3425 1978 
L 3425 0 
L 2847 0 
L 2847 2094 
Q 2847 2600 2669 2842 
Q 2491 3084 2119 3084 
Q 1678 3084 1418 2786 
Q 1159 2488 1159 1978 
L 1159 0 
L 581 0 
L 581 3500 
L 1159 3500 
L 1159 2956 
Q 1356 3278 1631 3431 
Q 1906 3584 2284 3584 
Q 2666 3584 2933 3390 
Q 3200 3197 3328 2828 
z
" transform="scale(0.015625)"/>
       <path id="DejaVuSans-6c" d="M 603 4863 
L 1178 4863 
L 1178 0 
L 603 0 
L 603 4863 
z
" transform="scale(0.015625)"/>
       <path id="DejaVuSans-79" d="M 2059 -325 
Q 1816 -950 1584 -1140 
Q 1353 -1331 966 -1331 
L 506 -1331 
L 506 -850 
L 844 -850 
Q 1081 -850 1212 -737 
Q 1344 -625 1503 -206 
L 1606 56 
L 191 3500 
L 800 3500 
L 1894 763 
L 2988 3500 
L 3597 3500 
L 2059 -325 
z
" transform="scale(0.015625)"/>
      </defs>
      <use xlink:href="#DejaVuSans-63"/>
      <use xlink:href="#DejaVuSans-6f" x="54.980469"/>
      <use xlink:href="#DejaVuSans-73" x="116.162109"/>
      <use xlink:href="#DejaVuSans-69" x="168.261719"/>
      <use xlink:href="#DejaVuSans-6e" x="196.044922"/>
      <use xlink:href="#DejaVuSans-65" x="259.423828"/>
      <use xlink:href="#DejaVuSans-20" x="320.947266"/>
      <use xlink:href="#DejaVuSans-73" x="352.734375"/>
      <use xlink:href="#DejaVuSans-69" x="404.833984"/>
      <use xlink:href="#DejaVuSans-6d" x="432.617188"/>
      <use xlink:href="#DejaVuSans-69" x="530.029297"/>
      <use xlink:href="#DejaVuSans-6c" x="557.8125"/>
      <use xlink:href="#DejaVuSans-61" x="585.595703"/>
      <use xlink:href="#DejaVuSans-72" x="646.875"/>
      <use xlink:href="#DejaVuSans-69" x="687.988281"/>
      <use xlink:href="#DejaVuSans-74" x="715.771484"/>
      <use xlink:href="#DejaVuSans-79" x="754.980469"/>
     </g>
    </g>
   </g>
   <g id="line2d_18">
    <path d="M 235.8 499.680712 
L 235.8 206.123099 
" clip-path="url(#p578278a53b)" style="fill: none; stroke: #3f3f3f; stroke-width: 1.875; stroke-linecap: square"/>
   </g>
   <g id="line2d_19">
    <path d="M 235.8 389.419954 
L 235.8 303.867652 
" clip-path="url(#p578278a53b)" style="fill: none; stroke: #3f3f3f; stroke-width: 5.625; stroke-linecap: square"/>
   </g>
   <g id="line2d_20">
    <path d="M 235.8 347.321028 
" clip-path="url(#p578278a53b)" style="fill: none; stroke: #3f3f3f; stroke-width: 1.5; stroke-linecap: square"/>
    <defs>
     <path id="m4467e68b4e" d="M 2.34375 0 
L -2.34375 -0 
" style="stroke: #ffffff; stroke-width: 1.125"/>
    </defs>
    <g clip-path="url(#p578278a53b)">
     <use xlink:href="#m4467e68b4e" x="235.8" y="347.321028" style="fill: #ffffff; stroke: #ffffff; stroke-width: 1.125"/>
    </g>
   </g>
   <g id="line2d_21">
    <path d="M 347.4 572.499283 
L 347.4 219.129848 
" clip-path="url(#p578278a53b)" style="fill: none; stroke: #3f3f3f; stroke-width: 1.875; stroke-linecap: square"/>
   </g>
   <g id="line2d_22">
    <path d="M 347.4 445.129235 
L 347.4 343.020288 
" clip-path="url(#p578278a53b)" style="fill: none; stroke: #3f3f3f; stroke-width: 5.625; stroke-linecap: square"/>
   </g>
   <g id="line2d_23">
    <path d="M 347.4 395.358552 
" clip-path="url(#p578278a53b)" style="fill: none; stroke: #3f3f3f; stroke-width: 1.5; stroke-linecap: square"/>
    <g clip-path="url(#p578278a53b)">
     <use xlink:href="#m4467e68b4e" x="347.4" y="395.358552" style="fill: #ffffff; stroke: #ffffff; stroke-width: 1.125"/>
    </g>
   </g>
   <g id="line2d_24">
    <path d="M 459 550.98749 
L 459 246.701952 
" clip-path="url(#p578278a53b)" style="fill: none; stroke: #3f3f3f; stroke-width: 1.875; stroke-linecap: square"/>
   </g>
   <g id="line2d_25">
    <path d="M 459 456.85605 
L 459 362.993817 
" clip-path="url(#p578278a53b)" style="fill: none; stroke: #3f3f3f; stroke-width: 5.625; stroke-linecap: square"/>
   </g>
   <g id="line2d_26">
    <path d="M 459 413.841959 
" clip-path="url(#p578278a53b)" style="fill: none; stroke: #3f3f3f; stroke-width: 1.5; stroke-linecap: square"/>
    <g clip-path="url(#p578278a53b)">
     <use xlink:href="#m4467e68b4e" x="459" y="413.841959" style="fill: #ffffff; stroke: #ffffff; stroke-width: 1.125"/>
    </g>
   </g>
   <g id="line2d_27">
    <path d="M 570.6 548.948664 
L 570.6 246.701952 
" clip-path="url(#p578278a53b)" style="fill: none; stroke: #3f3f3f; stroke-width: 1.875; stroke-linecap: square"/>
   </g>
   <g id="line2d_28">
    <path d="M 570.6 468.969565 
L 570.6 376.565558 
" clip-path="url(#p578278a53b)" style="fill: none; stroke: #3f3f3f; stroke-width: 5.625; stroke-linecap: square"/>
   </g>
   <g id="line2d_29">
    <path d="M 570.6 427.437609 
" clip-path="url(#p578278a53b)" style="fill: none; stroke: #3f3f3f; stroke-width: 1.5; stroke-linecap: square"/>
    <g clip-path="url(#p578278a53b)">
     <use xlink:href="#m4467e68b4e" x="570.6" y="427.437609" style="fill: #ffffff; stroke: #ffffff; stroke-width: 1.125"/>
    </g>
   </g>
   <g id="line2d_30">
    <path d="M 682.2 557.336947 
L 682.2 271.132917 
" clip-path="url(#p578278a53b)" style="fill: none; stroke: #3f3f3f; stroke-width: 1.875; stroke-linecap: square"/>
   </g>
   <g id="line2d_31">
    <path d="M 682.2 473.969035 
L 682.2 388.617378 
" clip-path="url(#p578278a53b)" style="fill: none; stroke: #3f3f3f; stroke-width: 5.625; stroke-linecap: square"/>
   </g>
   <g id="line2d_32">
    <path d="M 682.2 430.856211 
" clip-path="url(#p578278a53b)" style="fill: none; stroke: #3f3f3f; stroke-width: 1.5; stroke-linecap: square"/>
    <g clip-path="url(#p578278a53b)">
     <use xlink:href="#m4467e68b4e" x="682.2" y="430.856211" style="fill: #ffffff; stroke: #ffffff; stroke-width: 1.125"/>
    </g>
   </g>
   <g id="line2d_33">
    <path d="M 793.8 561.711693 
L 793.8 271.106675 
" clip-path="url(#p578278a53b)" style="fill: none; stroke: #3f3f3f; stroke-width: 1.875; stroke-linecap: square"/>
   </g>
   <g id="line2d_34">
    <path d="M 793.8 476.089555 
L 793.8 394.025911 
" clip-path="url(#p578278a53b)" style="fill: none; stroke: #3f3f3f; stroke-width: 5.625; stroke-linecap: square"/>
   </g>
   <g id="line2d_35">
    <path d="M 793.8 436.311446 
" clip-path="url(#p578278a53b)" style="fill: none; stroke: #3f3f3f; stroke-width: 1.5; stroke-linecap: square"/>
    <g clip-path="url(#p578278a53b)">
     <use xlink:href="#m4467e68b4e" x="793.8" y="436.311446" style="fill: #ffffff; stroke: #ffffff; stroke-width: 1.125"/>
    </g>
   </g>
   <g id="line2d_36">
    <path d="M 905.4 561.711693 
L 905.4 285.10925 
" clip-path="url(#p578278a53b)" style="fill: none; stroke: #3f3f3f; stroke-width: 1.875; stroke-linecap: square"/>
   </g>
   <g id="line2d_37">
    <path d="M 905.4 476.293577 
L 905.4 398.501267 
" clip-path="url(#p578278a53b)" style="fill: none; stroke: #3f3f3f; stroke-width: 5.625; stroke-linecap: square"/>
   </g>
   <g id="line2d_38">
    <path d="M 905.4 445.196554 
" clip-path="url(#p578278a53b)" style="fill: none; stroke: #3f3f3f; stroke-width: 1.5; stroke-linecap: square"/>
    <g clip-path="url(#p578278a53b)">
     <use xlink:href="#m4467e68b4e" x="905.4" y="445.196554" style="fill: #ffffff; stroke: #ffffff; stroke-width: 1.125"/>
    </g>
   </g>
   <g id="line2d_39">
    <path d="M 1017 561.711693 
L 1017 280.610781 
" clip-path="url(#p578278a53b)" style="fill: none; stroke: #3f3f3f; stroke-width: 1.875; stroke-linecap: square"/>
   </g>
   <g id="line2d_40">
    <path d="M 1017 481.402958 
L 1017 401.073083 
" clip-path="url(#p578278a53b)" style="fill: none; stroke: #3f3f3f; stroke-width: 5.625; stroke-linecap: square"/>
   </g>
   <g id="line2d_41">
    <path d="M 1017 448.295615 
" clip-path="url(#p578278a53b)" style="fill: none; stroke: #3f3f3f; stroke-width: 1.5; stroke-linecap: square"/>
    <g clip-path="url(#p578278a53b)">
     <use xlink:href="#m4467e68b4e" x="1017" y="448.295615" style="fill: #ffffff; stroke: #ffffff; stroke-width: 1.125"/>
    </g>
   </g>
   <g id="line2d_42">
    <path d="M 1128.6 561.711693 
L 1128.6 273.703235 
" clip-path="url(#p578278a53b)" style="fill: none; stroke: #3f3f3f; stroke-width: 1.875; stroke-linecap: square"/>
   </g>
   <g id="line2d_43">
    <path d="M 1128.6 485.643231 
L 1128.6 399.925273 
" clip-path="url(#p578278a53b)" style="fill: none; stroke: #3f3f3f; stroke-width: 5.625; stroke-linecap: square"/>
   </g>
   <g id="line2d_44">
    <path d="M 1128.6 449.671448 
" clip-path="url(#p578278a53b)" style="fill: none; stroke: #3f3f3f; stroke-width: 1.5; stroke-linecap: square"/>
    <g clip-path="url(#p578278a53b)">
     <use xlink:href="#m4467e68b4e" x="1128.6" y="449.671448" style="fill: #ffffff; stroke: #ffffff; stroke-width: 1.125"/>
    </g>
   </g>
   <g id="line2d_45">
    <path d="M 1240.2 561.711693 
L 1240.2 271.106675 
" clip-path="url(#p578278a53b)" style="fill: none; stroke: #3f3f3f; stroke-width: 1.875; stroke-linecap: square"/>
   </g>
   <g id="line2d_46">
    <path d="M 1240.2 489.995063 
L 1240.2 401.951383 
" clip-path="url(#p578278a53b)" style="fill: none; stroke: #3f3f3f; stroke-width: 5.625; stroke-linecap: square"/>
   </g>
   <g id="line2d_47">
    <path d="M 1240.2 448.654122 
" clip-path="url(#p578278a53b)" style="fill: none; stroke: #3f3f3f; stroke-width: 1.5; stroke-linecap: square"/>
    <g clip-path="url(#p578278a53b)">
     <use xlink:href="#m4467e68b4e" x="1240.2" y="448.654122" style="fill: #ffffff; stroke: #ffffff; stroke-width: 1.125"/>
    </g>
   </g>
   <g id="patch_3">
    <path d="M 180 640.8 
L 180 86.4 
" style="fill: none; stroke: #000000; stroke-width: 0.8; stroke-linejoin: miter; stroke-linecap: square"/>
   </g>
   <g id="patch_4">
    <path d="M 1296 640.8 
L 1296 86.4 
" style="fill: none; stroke: #000000; stroke-width: 0.8; stroke-linejoin: miter; stroke-linecap: square"/>
   </g>
   <g id="patch_5">
    <path d="M 180 640.8 
L 1296 640.8 
" style="fill: none; stroke: #000000; stroke-width: 0.8; stroke-linejoin: miter; stroke-linecap: square"/>
   </g>
   <g id="patch_6">
    <path d="M 180 86.4 
L 1296 86.4 
" style="fill: none; stroke: #000000; stroke-width: 0.8; stroke-linejoin: miter; stroke-linecap: square"/>
   </g>
   <g id="text_20">
    <!-- cosine similarity of max_mem_5_fs_glit (distanceFromInitialPrompt), by iteration -->
    <g transform="translate(497.123438 80.4) scale(0.12 -0.12)">
     <defs>
      <path id="DejaVuSans-66" d="M 2375 4863 
L 2375 4384 
L 1825 4384 
Q 1516 4384 1395 4259 
Q 1275 4134 1275 3809 
L 1275 3500 
L 2222 3500 
L 2222 3053 
L 1275 3053 
L 1275 0 
L 697 0 
L 697 3053 
L 147 3053 
L 147 3500 
L 697 3500 
L 697 3744 
Q 697 4328 969 4595 
Q 1241 4863 1831 4863 
L 2375 4863 
z
" transform="scale(0.015625)"/>
      <path id="DejaVuSans-78" d="M 3513 3500 
L 2247 1797 
L 3578 0 
L 2900 0 
L 1881 1375 
L 863 0 
L 184 0 
L 1544 1831 
L 300 3500 
L 978 3500 
L 1906 2253 
L 2834 3500 
L 3513 3500 
z
" transform="scale(0.015625)"/>
      <path id="DejaVuSans-5f" d="M 3263 -1063 
L 3263 -1509 
L -63 -1509 
L -63 -1063 
L 3263 -1063 
z
" transform="scale(0.015625)"/>
      <path id="DejaVuSans-67" d="M 2906 1791 
Q 2906 2416 2648 2759 
Q 2391 3103 1925 3103 
Q 1463 3103 1205 2759 
Q 947 2416 947 1791 
Q 947 1169 1205 825 
Q 1463 481 1925 481 
Q 2391 481 2648 825 
Q 2906 1169 2906 1791 
z
M 3481 434 
Q 3481 -459 3084 -895 
Q 2688 -1331 1869 -1331 
Q 1566 -1331 1297 -1286 
Q 1028 -1241 775 -1147 
L 775 -588 
Q 1028 -725 1275 -790 
Q 1522 -856 1778 -856 
Q 2344 -856 2625 -561 
Q 2906 -266 2906 331 
L 2906 616 
Q 2728 306 2450 153 
Q 2172 0 1784 0 
Q 1141 0 747 490 
Q 353 981 353 1791 
Q 353 2603 747 3093 
Q 1141 3584 1784 3584 
Q 2172 3584 2450 3431 
Q 2728 3278 2906 2969 
L 2906 3500 
L 3481 3500 
L 3481 434 
z
" transform="scale(0.015625)"/>
      <path id="DejaVuSans-28" d="M 1984 4856 
Q 1566 4138 1362 3434 
Q 1159 2731 1159 2009 
Q 1159 1288 1364 580 
Q 1569 -128 1984 -844 
L 1484 -844 
Q 1016 -109 783 600 
Q 550 1309 550 2009 
Q 550 2706 781 3412 
Q 1013 4119 1484 4856 
L 1984 4856 
z
" transform="scale(0.015625)"/>
      <path id="DejaVuSans-64" d="M 2906 2969 
L 2906 4863 
L 3481 4863 
L 3481 0 
L 2906 0 
L 2906 525 
Q 2725 213 2448 61 
Q 2172 -91 1784 -91 
Q 1150 -91 751 415 
Q 353 922 353 1747 
Q 353 2572 751 3078 
Q 1150 3584 1784 3584 
Q 2172 3584 2448 3432 
Q 2725 3281 2906 2969 
z
M 947 1747 
Q 947 1113 1208 752 
Q 1469 391 1925 391 
Q 2381 391 2643 752 
Q 2906 1113 2906 1747 
Q 2906 2381 2643 2742 
Q 2381 3103 1925 3103 
Q 1469 3103 1208 2742 
Q 947 2381 947 1747 
z
" transform="scale(0.015625)"/>
      <path id="DejaVuSans-46" d="M 628 4666 
L 3309 4666 
L 3309 4134 
L 1259 4134 
L 1259 2759 
L 3109 2759 
L 3109 2228 
L 1259 2228 
L 1259 0 
L 628 0 
L 628 4666 
z
" transform="scale(0.015625)"/>
      <path id="DejaVuSans-49" d="M 628 4666 
L 1259 4666 
L 1259 0 
L 628 0 
L 628 4666 
z
" transform="scale(0.015625)"/>
      <path id="DejaVuSans-50" d="M 1259 4147 
L 1259 2394 
L 2053 2394 
Q 2494 2394 2734 2622 
Q 2975 2850 2975 3272 
Q 2975 3691 2734 3919 
Q 2494 4147 2053 4147 
L 1259 4147 
z
M 628 4666 
L 2053 4666 
Q 2838 4666 3239 4311 
Q 3641 3956 3641 3272 
Q 3641 2581 3239 2228 
Q 2838 1875 2053 1875 
L 1259 1875 
L 1259 0 
L 628 0 
L 628 4666 
z
" transform="scale(0.015625)"/>
      <path id="DejaVuSans-70" d="M 1159 525 
L 1159 -1331 
L 581 -1331 
L 581 3500 
L 1159 3500 
L 1159 2969 
Q 1341 3281 1617 3432 
Q 1894 3584 2278 3584 
Q 2916 3584 3314 3078 
Q 3713 2572 3713 1747 
Q 3713 922 3314 415 
Q 2916 -91 2278 -91 
Q 1894 -91 1617 61 
Q 1341 213 1159 525 
z
M 3116 1747 
Q 3116 2381 2855 2742 
Q 2594 3103 2138 3103 
Q 1681 3103 1420 2742 
Q 1159 2381 1159 1747 
Q 1159 1113 1420 752 
Q 1681 391 2138 391 
Q 2594 391 2855 752 
Q 3116 1113 3116 1747 
z
" transform="scale(0.015625)"/>
      <path id="DejaVuSans-29" d="M 513 4856 
L 1013 4856 
Q 1481 4119 1714 3412 
Q 1947 2706 1947 2009 
Q 1947 1309 1714 600 
Q 1481 -109 1013 -844 
L 513 -844 
Q 928 -128 1133 580 
Q 1338 1288 1338 2009 
Q 1338 2731 1133 3434 
Q 928 4138 513 4856 
z
" transform="scale(0.015625)"/>
      <path id="DejaVuSans-2c" d="M 750 794 
L 1409 794 
L 1409 256 
L 897 -744 
L 494 -744 
L 750 256 
L 750 794 
z
" transform="scale(0.015625)"/>
      <path id="DejaVuSans-62" d="M 3116 1747 
Q 3116 2381 2855 2742 
Q 2594 3103 2138 3103 
Q 1681 3103 1420 2742 
Q 1159 2381 1159 1747 
Q 1159 1113 1420 752 
Q 1681 391 2138 391 
Q 2594 391 2855 752 
Q 3116 1113 3116 1747 
z
M 1159 2969 
Q 1341 3281 1617 3432 
Q 1894 3584 2278 3584 
Q 2916 3584 3314 3078 
Q 3713 2572 3713 1747 
Q 3713 922 3314 415 
Q 2916 -91 2278 -91 
Q 1894 -91 1617 61 
Q 1341 213 1159 525 
L 1159 0 
L 581 0 
L 581 4863 
L 1159 4863 
L 1159 2969 
z
" transform="scale(0.015625)"/>
     </defs>
     <use xlink:href="#DejaVuSans-63"/>
     <use xlink:href="#DejaVuSans-6f" x="54.980469"/>
     <use xlink:href="#DejaVuSans-73" x="116.162109"/>
     <use xlink:href="#DejaVuSans-69" x="168.261719"/>
     <use xlink:href="#DejaVuSans-6e" x="196.044922"/>
     <use xlink:href="#DejaVuSans-65" x="259.423828"/>
     <use xlink:href="#DejaVuSans-20" x="320.947266"/>
     <use xlink:href="#DejaVuSans-73" x="352.734375"/>
     <use xlink:href="#DejaVuSans-69" x="404.833984"/>
     <use xlink:href="#DejaVuSans-6d" x="432.617188"/>
     <use xlink:href="#DejaVuSans-69" x="530.029297"/>
     <use xlink:href="#DejaVuSans-6c" x="557.8125"/>
     <use xlink:href="#DejaVuSans-61" x="585.595703"/>
     <use xlink:href="#DejaVuSans-72" x="646.875"/>
     <use xlink:href="#DejaVuSans-69" x="687.988281"/>
     <use xlink:href="#DejaVuSans-74" x="715.771484"/>
     <use xlink:href="#DejaVuSans-79" x="754.980469"/>
     <use xlink:href="#DejaVuSans-20" x="814.160156"/>
     <use xlink:href="#DejaVuSans-6f" x="845.947266"/>
     <use xlink:href="#DejaVuSans-66" x="907.128906"/>
     <use xlink:href="#DejaVuSans-20" x="942.333984"/>
     <use xlink:href="#DejaVuSans-6d" x="974.121094"/>
     <use xlink:href="#DejaVuSans-61" x="1071.533203"/>
     <use xlink:href="#DejaVuSans-78" x="1132.8125"/>
     <use xlink:href="#DejaVuSans-5f" x="1191.992188"/>
     <use xlink:href="#DejaVuSans-6d" x="1241.992188"/>
     <use xlink:href="#DejaVuSans-65" x="1339.404297"/>
     <use xlink:href="#DejaVuSans-6d" x="1400.927734"/>
     <use xlink:href="#DejaVuSans-5f" x="1498.339844"/>
     <use xlink:href="#DejaVuSans-35" x="1548.339844"/>
     <use xlink:href="#DejaVuSans-5f" x="1611.962891"/>
     <use xlink:href="#DejaVuSans-66" x="1661.962891"/>
     <use xlink:href="#DejaVuSans-73" x="1697.167969"/>
     <use xlink:href="#DejaVuSans-5f" x="1749.267578"/>
     <use xlink:href="#DejaVuSans-67" x="1799.267578"/>
     <use xlink:href="#DejaVuSans-6c" x="1862.744141"/>
     <use xlink:href="#DejaVuSans-69" x="1890.527344"/>
     <use xlink:href="#DejaVuSans-74" x="1918.310547"/>
     <use xlink:href="#DejaVuSans-20" x="1957.519531"/>
     <use xlink:href="#DejaVuSans-28" x="1989.306641"/>
     <use xlink:href="#DejaVuSans-64" x="2028.320312"/>
     <use xlink:href="#DejaVuSans-69" x="2091.796875"/>
     <use xlink:href="#DejaVuSans-73" x="2119.580078"/>
     <use xlink:href="#DejaVuSans-74" x="2171.679688"/>
     <use xlink:href="#DejaVuSans-61" x="2210.888672"/>
     <use xlink:href="#DejaVuSans-6e" x="2272.167969"/>
     <use xlink:href="#DejaVuSans-63" x="2335.546875"/>
     <use xlink:href="#DejaVuSans-65" x="2390.527344"/>
     <use xlink:href="#DejaVuSans-46" x="2452.050781"/>
     <use xlink:href="#DejaVuSans-72" x="2502.320312"/>
     <use xlink:href="#DejaVuSans-6f" x="2541.183594"/>
     <use xlink:href="#DejaVuSans-6d" x="2602.365234"/>
     <use xlink:href="#DejaVuSans-49" x="2699.777344"/>
     <use xlink:href="#DejaVuSans-6e" x="2729.269531"/>
     <use xlink:href="#DejaVuSans-69" x="2792.648438"/>
     <use xlink:href="#DejaVuSans-74" x="2820.431641"/>
     <use xlink:href="#DejaVuSans-69" x="2859.640625"/>
     <use xlink:href="#DejaVuSans-61" x="2887.423828"/>
     <use xlink:href="#DejaVuSans-6c" x="2948.703125"/>
     <use xlink:href="#DejaVuSans-50" x="2976.486328"/>
     <use xlink:href="#DejaVuSans-72" x="3035.039062"/>
     <use xlink:href="#DejaVuSans-6f" x="3073.902344"/>
     <use xlink:href="#DejaVuSans-6d" x="3135.083984"/>
     <use xlink:href="#DejaVuSans-70" x="3232.496094"/>
     <use xlink:href="#DejaVuSans-74" x="3295.972656"/>
     <use xlink:href="#DejaVuSans-29" x="3335.181641"/>
     <use xlink:href="#DejaVuSans-2c" x="3374.195312"/>
     <use xlink:href="#DejaVuSans-20" x="3405.982422"/>
     <use xlink:href="#DejaVuSans-62" x="3437.769531"/>
     <use xlink:href="#DejaVuSans-79" x="3501.246094"/>
     <use xlink:href="#DejaVuSans-20" x="3560.425781"/>
     <use xlink:href="#DejaVuSans-69" x="3592.212891"/>
     <use xlink:href="#DejaVuSans-74" x="3619.996094"/>
     <use xlink:href="#DejaVuSans-65" x="3659.205078"/>
     <use xlink:href="#DejaVuSans-72" x="3720.728516"/>
     <use xlink:href="#DejaVuSans-61" x="3761.841797"/>
     <use xlink:href="#DejaVuSans-74" x="3823.121094"/>
     <use xlink:href="#DejaVuSans-69" x="3862.330078"/>
     <use xlink:href="#DejaVuSans-6f" x="3890.113281"/>
     <use xlink:href="#DejaVuSans-6e" x="3951.294922"/>
    </g>
   </g>
  </g>
 </g>
 <defs>
  <clipPath id="p578278a53b">
   <rect x="180" y="86.4" width="1116" height="554.4"/>
  </clipPath>
 </defs>
</svg>
