<?xml version="1.0" encoding="utf-8" standalone="no"?>
<!DOCTYPE svg PUBLIC "-//W3C//DTD SVG 1.1//EN"
  "http://www.w3.org/Graphics/SVG/1.1/DTD/svg11.dtd">
<svg xmlns:xlink="http://www.w3.org/1999/xlink" width="1440pt" height="720pt" viewBox="0 0 1440 720" xmlns="http://www.w3.org/2000/svg" version="1.1">
 <metadata>
  <rdf:RDF xmlns:dc="http://purl.org/dc/elements/1.1/" xmlns:cc="http://creativecommons.org/ns#" xmlns:rdf="http://www.w3.org/1999/02/22-rdf-syntax-ns#">
   <cc:Work>
    <dc:type rdf:resource="http://purl.org/dc/dcmitype/StillImage"/>
    <dc:date>2024-07-25T21:47:49.792925</dc:date>
    <dc:format>image/svg+xml</dc:format>
    <dc:creator>
     <cc:Agent>
      <dc:title>Matplotlib v3.8.0, https://matplotlib.org/</dc:title>
     </cc:Agent>
    </dc:creator>
   </cc:Work>
  </rdf:RDF>
 </metadata>
 <defs>
  <style type="text/css">*{stroke-linejoin: round; stroke-linecap: butt}</style>
 </defs>
 <g id="figure_1">
  <g id="patch_1">
   <path d="M 0 720 
L 1440 720 
L 1440 0 
L 0 0 
z
" style="fill: #ffffff"/>
  </g>
  <g id="axes_1">
   <g id="patch_2">
    <path d="M 180 640.8 
L 1296 640.8 
L 1296 86.4 
L 180 86.4 
z
" style="fill: #ffffff"/>
   </g>
   <g id="PolyCollection_1">
    <defs>
     <path id="me9c6c6462c" d="M 235.938708 -154.135869 
L 235.661292 -154.135869 
L 235.588099 -158.702057 
L 235.487938 -163.268246 
L 235.356378 -167.834434 
L 235.190193 -172.400623 
L 234.987722 -176.966811 
L 234.748795 -181.533 
L 234.474105 -186.099189 
L 234.164068 -190.665377 
L 233.817417 -195.231566 
L 233.429898 -199.797754 
L 232.993536 -204.363943 
L 232.496818 -208.930131 
L 231.92595 -213.49632 
L 231.26707 -218.062509 
L 230.509045 -222.628697 
L 229.646305 -227.194886 
L 228.681156 -231.761074 
L 227.625079 -236.327263 
L 226.498732 -240.893451 
L 225.330552 -245.45964 
L 224.154088 -250.025829 
L 223.004334 -254.592017 
L 221.91349 -259.158206 
L 220.90666 -263.724394 
L 219.998077 -268.290583 
L 219.188451 -272.856771 
L 218.463942 -277.42296 
L 217.797078 -281.989149 
L 217.149571 -286.555337 
L 216.476631 -291.121526 
L 215.732014 -295.687714 
L 214.87293 -300.253903 
L 213.864049 -304.820091 
L 212.680225 -309.38628 
L 211.3081 -313.952469 
L 209.747112 -318.518657 
L 208.010571 -323.084846 
L 206.127188 -327.651034 
L 204.142834 -332.217223 
L 202.121698 -336.783411 
L 200.145568 -341.3496 
L 198.310021 -345.915789 
L 196.716946 -350.481977 
L 195.463776 -355.048166 
L 194.630996 -359.614354 
L 194.270262 -364.180543 
L 194.395755 -368.746731 
L 194.980878 -373.31292 
L 195.961275 -377.879109 
L 197.243699 -382.445297 
L 198.718912 -387.011486 
L 200.275978 -391.577674 
L 201.815228 -396.143863 
L 203.257839 -400.710051 
L 204.551097 -405.27624 
L 205.669549 -409.842428 
L 206.613094 -414.408617 
L 207.403295 -418.974806 
L 208.0789 -423.540994 
L 208.691056 -428.107183 
L 209.298198 -432.673371 
L 209.960453 -437.23956 
L 210.7336 -441.805748 
L 211.662997 -446.371937 
L 212.778252 -450.938126 
L 214.08953 -455.504314 
L 215.586177 -460.070503 
L 217.238004 -464.636691 
L 218.999053 -469.20288 
L 220.813304 -473.769068 
L 222.621428 -478.335257 
L 224.36754 -482.901446 
L 226.004863 -487.467634 
L 227.499385 -492.033823 
L 228.830996 -496.600011 
L 229.992109 -501.1662 
L 230.984412 -505.732388 
L 231.814829 -510.298577 
L 232.491929 -514.864766 
L 233.023815 -519.430954 
L 233.41796 -523.997143 
L 233.682803 -528.563331 
L 233.830298 -533.12952 
L 233.878276 -537.695708 
L 233.851535 -542.261897 
L 233.780944 -546.828086 
L 233.700472 -551.394274 
L 233.642748 -555.960463 
L 233.634227 -560.526651 
L 233.691233 -565.09284 
L 233.817936 -569.659028 
L 234.00675 -574.225217 
L 234.240972 -578.791406 
L 234.498894 -583.357594 
L 234.758274 -587.923783 
L 235.00013 -592.489971 
L 235.211132 -597.05616 
L 235.384384 -601.622348 
L 235.518803 -606.188537 
L 236.081197 -606.188537 
L 236.081197 -606.188537 
L 236.215616 -601.622348 
L 236.388868 -597.05616 
L 236.59987 -592.489971 
L 236.841726 -587.923783 
L 237.101106 -583.357594 
L 237.359028 -578.791406 
L 237.59325 -574.225217 
L 237.782064 -569.659028 
L 237.908767 -565.09284 
L 237.965773 -560.526651 
L 237.957252 -555.960463 
L 237.899528 -551.394274 
L 237.819056 -546.828086 
L 237.748465 -542.261897 
L 237.721724 -537.695708 
L 237.769702 -533.12952 
L 237.917197 -528.563331 
L 238.18204 -523.997143 
L 238.576185 -519.430954 
L 239.108071 -514.864766 
L 239.785171 -510.298577 
L 240.615588 -505.732388 
L 241.607891 -501.1662 
L 242.769004 -496.600011 
L 244.100615 -492.033823 
L 245.595137 -487.467634 
L 247.23246 -482.901446 
L 248.978572 -478.335257 
L 250.786696 -473.769068 
L 252.600947 -469.20288 
L 254.361996 -464.636691 
L 256.013823 -460.070503 
L 257.51047 -455.504314 
L 258.821748 -450.938126 
L 259.937003 -446.371937 
L 260.8664 -441.805748 
L 261.639547 -437.23956 
L 262.301802 -432.673371 
L 262.908944 -428.107183 
L 263.5211 -423.540994 
L 264.196705 -418.974806 
L 264.986906 -414.408617 
L 265.930451 -409.842428 
L 267.048903 -405.27624 
L 268.342161 -400.710051 
L 269.784772 -396.143863 
L 271.324022 -391.577674 
L 272.881088 -387.011486 
L 274.356301 -382.445297 
L 275.638725 -377.879109 
L 276.619122 -373.31292 
L 277.204245 -368.746731 
L 277.329738 -364.180543 
L 276.969004 -359.614354 
L 276.136224 -355.048166 
L 274.883054 -350.481977 
L 273.289979 -345.915789 
L 271.454432 -341.3496 
L 269.478302 -336.783411 
L 267.457166 -332.217223 
L 265.472812 -327.651034 
L 263.589429 -323.084846 
L 261.852888 -318.518657 
L 260.2919 -313.952469 
L 258.919775 -309.38628 
L 257.735951 -304.820091 
L 256.72707 -300.253903 
L 255.867986 -295.687714 
L 255.123369 -291.121526 
L 254.450429 -286.555337 
L 253.802922 -281.989149 
L 253.136058 -277.42296 
L 252.411549 -272.856771 
L 251.601923 -268.290583 
L 250.69334 -263.724394 
L 249.68651 -259.158206 
L 248.595666 -254.592017 
L 247.445912 -250.025829 
L 246.269448 -245.45964 
L 245.101268 -240.893451 
L 243.974921 -236.327263 
L 242.918844 -231.761074 
L 241.953695 -227.194886 
L 241.090955 -222.628697 
L 240.33293 -218.062509 
L 239.67405 -213.49632 
L 239.103182 -208.930131 
L 238.606464 -204.363943 
L 238.170102 -199.797754 
L 237.782583 -195.231566 
L 237.435932 -190.665377 
L 237.125895 -186.099189 
L 236.851205 -181.533 
L 236.612278 -176.966811 
L 236.409807 -172.400623 
L 236.243622 -167.834434 
L 236.112062 -163.268246 
L 236.011901 -158.702057 
L 235.938708 -154.135869 
z
" style="stroke: #3f3f3f; stroke-width: 1.25"/>
    </defs>
    <g clip-path="url(#pc024cbcdf4)">
     <use xlink:href="#me9c6c6462c" x="0" y="720" style="fill: #3274a1; stroke: #3f3f3f; stroke-width: 1.25"/>
    </g>
   </g>
   <g id="PolyCollection_2">
    <defs>
     <path id="m571714437f" d="M 347.484242 -104.4 
L 347.315758 -104.4 
L 347.263846 -109.490909 
L 347.187704 -114.581818 
L 347.080016 -119.672727 
L 346.932807 -124.763636 
L 346.737864 -129.854545 
L 346.4873 -134.945455 
L 346.174308 -140.036364 
L 345.794136 -145.127273 
L 345.345216 -150.218182 
L 344.83025 -155.309091 
L 344.256873 -160.4 
L 343.637414 -165.490909 
L 342.98743 -170.581818 
L 342.322992 -175.672727 
L 341.657178 -180.763636 
L 340.996618 -185.854545 
L 340.339043 -190.945455 
L 339.672534 -196.036364 
L 338.976593 -201.127273 
L 338.22458 -206.218182 
L 337.386669 -211.309091 
L 336.432567 -216.4 
L 335.333681 -221.490909 
L 334.065086 -226.581818 
L 332.608097 -231.672727 
L 330.954186 -236.763636 
L 329.110345 -241.854545 
L 327.104852 -246.945455 
L 324.991358 -252.036364 
L 322.848816 -257.127273 
L 320.775413 -262.218182 
L 318.876344 -267.309091 
L 317.247425 -272.4 
L 315.958258 -277.490909 
L 315.039283 -282.581818 
L 314.476073 -287.672727 
L 314.212293 -292.763636 
L 314.160387 -297.854545 
L 314.217357 -302.945455 
L 314.282262 -308.036364 
L 314.272312 -313.127273 
L 314.135236 -318.218182 
L 313.856457 -323.309091 
L 313.460424 -328.4 
L 313.006138 -333.490909 
L 312.577663 -338.581818 
L 312.27114 -343.672727 
L 312.180341 -348.763636 
L 312.383002 -353.854545 
L 312.929865 -358.945455 
L 313.837765 -364.036364 
L 315.087465 -369.127273 
L 316.626301 -374.218182 
L 318.375188 -379.309091 
L 320.239019 -384.4 
L 322.119005 -389.490909 
L 323.925076 -394.581818 
L 325.586411 -399.672727 
L 327.058433 -404.763636 
L 328.325405 -409.854545 
L 329.398626 -414.945455 
L 330.311084 -420.036364 
L 331.109947 -425.127273 
L 331.848315 -430.218182 
L 332.57747 -435.309091 
L 333.340451 -440.4 
L 334.16742 -445.490909 
L 335.07303 -450.581818 
L 336.055858 -455.672727 
L 337.099881 -460.763636 
L 338.177799 -465.854545 
L 339.255799 -470.945455 
L 340.299069 -476.036364 
L 341.277122 -481.127273 
L 342.167929 -486.218182 
L 342.960019 -491.309091 
L 343.652196 -496.4 
L 344.251134 -501.490909 
L 344.76768 -506.581818 
L 345.21307 -511.672727 
L 345.596149 -516.763636 
L 345.922278 -521.854545 
L 346.19398 -526.945455 
L 346.412757 -532.036364 
L 346.581203 -537.127273 
L 346.704536 -542.218182 
L 346.791021 -547.309091 
L 346.851179 -552.4 
L 346.896156 -557.490909 
L 346.935837 -562.581818 
L 346.97732 -567.672727 
L 347.024164 -572.763636 
L 347.076543 -577.854545 
L 347.13212 -582.945455 
L 347.187297 -588.036364 
L 347.238441 -593.127273 
L 347.282775 -598.218182 
L 347.318814 -603.309091 
L 347.346359 -608.4 
L 347.453641 -608.4 
L 347.453641 -608.4 
L 347.481186 -603.309091 
L 347.517225 -598.218182 
L 347.561559 -593.127273 
L 347.612703 -588.036364 
L 347.66788 -582.945455 
L 347.723457 -577.854545 
L 347.775836 -572.763636 
L 347.82268 -567.672727 
L 347.864163 -562.581818 
L 347.903844 -557.490909 
L 347.948821 -552.4 
L 348.008979 -547.309091 
L 348.095464 -542.218182 
L 348.218797 -537.127273 
L 348.387243 -532.036364 
L 348.60602 -526.945455 
L 348.877722 -521.854545 
L 349.203851 -516.763636 
L 349.58693 -511.672727 
L 350.03232 -506.581818 
L 350.548866 -501.490909 
L 351.147804 -496.4 
L 351.839981 -491.309091 
L 352.632071 -486.218182 
L 353.522878 -481.127273 
L 354.500931 -476.036364 
L 355.544201 -470.945455 
L 356.622201 -465.854545 
L 357.700119 -460.763636 
L 358.744142 -455.672727 
L 359.72697 -450.581818 
L 360.63258 -445.490909 
L 361.459549 -440.4 
L 362.22253 -435.309091 
L 362.951685 -430.218182 
L 363.690053 -425.127273 
L 364.488916 -420.036364 
L 365.401374 -414.945455 
L 366.474595 -409.854545 
L 367.741567 -404.763636 
L 369.213589 -399.672727 
L 370.874924 -394.581818 
L 372.680995 -389.490909 
L 374.560981 -384.4 
L 376.424812 -379.309091 
L 378.173699 -374.218182 
L 379.712535 -369.127273 
L 380.962235 -364.036364 
L 381.870135 -358.945455 
L 382.416998 -353.854545 
L 382.619659 -348.763636 
L 382.52886 -343.672727 
L 382.222337 -338.581818 
L 381.793862 -333.490909 
L 381.339576 -328.4 
L 380.943543 -323.309091 
L 380.664764 -318.218182 
L 380.527688 -313.127273 
L 380.517738 -308.036364 
L 380.582643 -302.945455 
L 380.639613 -297.854545 
L 380.587707 -292.763636 
L 380.323927 -287.672727 
L 379.760717 -282.581818 
L 378.841742 -277.490909 
L 377.552575 -272.4 
L 375.923656 -267.309091 
L 374.024587 -262.218182 
L 371.951184 -257.127273 
L 369.808642 -252.036364 
L 367.695148 -246.945455 
L 365.689655 -241.854545 
L 363.845814 -236.763636 
L 362.191903 -231.672727 
L 360.734914 -226.581818 
L 359.466319 -221.490909 
L 358.367433 -216.4 
L 357.413331 -211.309091 
L 356.57542 -206.218182 
L 355.823407 -201.127273 
L 355.127466 -196.036364 
L 354.460957 -190.945455 
L 353.803382 -185.854545 
L 353.142822 -180.763636 
L 352.477008 -175.672727 
L 351.81257 -170.581818 
L 351.162586 -165.490909 
L 350.543127 -160.4 
L 349.96975 -155.309091 
L 349.454784 -150.218182 
L 349.005864 -145.127273 
L 348.625692 -140.036364 
L 348.3127 -134.945455 
L 348.062136 -129.854545 
L 347.867193 -124.763636 
L 347.719984 -119.672727 
L 347.612296 -114.581818 
L 347.536154 -109.490909 
L 347.484242 -104.4 
z
" style="stroke: #3f3f3f; stroke-width: 1.25"/>
    </defs>
    <g clip-path="url(#pc024cbcdf4)">
     <use xlink:href="#m571714437f" x="0" y="720" style="fill: #3274a1; stroke: #3f3f3f; stroke-width: 1.25"/>
    </g>
   </g>
   <g id="PolyCollection_3">
    <defs>
     <path id="mdb027ad660" d="M 459.140949 -116.050516 
L 458.859051 -116.050516 
L 458.774853 -120.477301 
L 458.650986 -124.904087 
L 458.474784 -129.330872 
L 458.232459 -133.757658 
L 457.910325 -138.184443 
L 457.496486 -142.611228 
L 456.982782 -147.038014 
L 456.366689 -151.464799 
L 455.652715 -155.891584 
L 454.852859 -160.31837 
L 453.985789 -164.745155 
L 453.07466 -169.171941 
L 452.143822 -173.598726 
L 451.215016 -178.025511 
L 450.303845 -182.452297 
L 449.41736 -186.879082 
L 448.553335 -191.305867 
L 447.701394 -195.732653 
L 446.845639 -200.159438 
L 445.968018 -204.586224 
L 445.051455 -209.013009 
L 444.081915 -213.439794 
L 443.048956 -217.86658 
L 441.944915 -222.293365 
L 440.763396 -226.72015 
L 439.498101 -231.146936 
L 438.142955 -235.573721 
L 436.694102 -240.000507 
L 435.153614 -244.427292 
L 433.533999 -248.854077 
L 431.862051 -253.280863 
L 430.180478 -257.707648 
L 428.546161 -262.134433 
L 427.024772 -266.561219 
L 425.682543 -270.988004 
L 424.576855 -275.41479 
L 423.747731 -279.841575 
L 423.212123 -284.26836 
L 422.962142 -288.695146 
L 422.967322 -293.121931 
L 423.180082 -297.548717 
L 423.542926 -301.975502 
L 423.995859 -306.402287 
L 424.482844 -310.829073 
L 424.956718 -315.255858 
L 425.382509 -319.682643 
L 425.739422 -324.109429 
L 426.021781 -328.536214 
L 426.239012 -332.963 
L 426.414544 -337.389785 
L 426.583371 -341.81657 
L 426.788145 -346.243356 
L 427.073958 -350.670141 
L 427.482405 -355.096926 
L 428.045842 -359.523712 
L 428.782929 -363.950497 
L 429.696381 -368.377283 
L 430.773383 -372.804068 
L 431.988526 -377.230853 
L 433.308496 -381.657639 
L 434.697339 -386.084424 
L 436.121096 -390.511209 
L 437.55091 -394.937995 
L 438.964259 -399.36478 
L 440.344556 -403.791566 
L 441.679802 -408.218351 
L 442.961075 -412.645136 
L 444.181492 -417.071922 
L 445.335891 -421.498707 
L 446.421098 -425.925492 
L 447.436388 -430.352278 
L 448.383696 -434.779063 
L 449.267287 -439.205849 
L 450.092839 -443.632634 
L 450.866175 -448.059419 
L 451.591977 -452.486205 
L 452.272888 -456.91299 
L 452.909222 -461.339775 
L 453.499394 -465.766561 
L 454.040916 -470.193346 
L 454.531717 -474.620132 
L 454.971439 -479.046917 
L 455.362365 -483.473702 
L 455.709746 -487.900488 
L 456.0214 -492.327273 
L 456.306656 -496.754058 
L 456.574867 -501.180844 
L 456.833843 -505.607629 
L 457.088582 -510.034415 
L 457.340603 -514.4612 
L 457.588023 -518.887985 
L 457.826337 -523.314771 
L 458.049662 -527.741556 
L 458.252124 -532.168341 
L 458.429063 -536.595127 
L 458.577808 -541.021912 
L 458.697947 -545.448698 
L 458.791117 -549.875483 
L 458.860474 -554.302268 
L 459.139526 -554.302268 
L 459.139526 -554.302268 
L 459.208883 -549.875483 
L 459.302053 -545.448698 
L 459.422192 -541.021912 
L 459.570937 -536.595127 
L 459.747876 -532.168341 
L 459.950338 -527.741556 
L 460.173663 -523.314771 
L 460.411977 -518.887985 
L 460.659397 -514.4612 
L 460.911418 -510.034415 
L 461.166157 -505.607629 
L 461.425133 -501.180844 
L 461.693344 -496.754058 
L 461.9786 -492.327273 
L 462.290254 -487.900488 
L 462.637635 -483.473702 
L 463.028561 -479.046917 
L 463.468283 -474.620132 
L 463.959084 -470.193346 
L 464.500606 -465.766561 
L 465.090778 -461.339775 
L 465.727112 -456.91299 
L 466.408023 -452.486205 
L 467.133825 -448.059419 
L 467.907161 -443.632634 
L 468.732713 -439.205849 
L 469.616304 -434.779063 
L 470.563612 -430.352278 
L 471.578902 -425.925492 
L 472.664109 -421.498707 
L 473.818508 -417.071922 
L 475.038925 -412.645136 
L 476.320198 -408.218351 
L 477.655444 -403.791566 
L 479.035741 -399.36478 
L 480.44909 -394.937995 
L 481.878904 -390.511209 
L 483.302661 -386.084424 
L 484.691504 -381.657639 
L 486.011474 -377.230853 
L 487.226617 -372.804068 
L 488.303619 -368.377283 
L 489.217071 -363.950497 
L 489.954158 -359.523712 
L 490.517595 -355.096926 
L 490.926042 -350.670141 
L 491.211855 -346.243356 
L 491.416629 -341.81657 
L 491.585456 -337.389785 
L 491.760988 -332.963 
L 491.978219 -328.536214 
L 492.260578 -324.109429 
L 492.617491 -319.682643 
L 493.043282 -315.255858 
L 493.517156 -310.829073 
L 494.004141 -306.402287 
L 494.457074 -301.975502 
L 494.819918 -297.548717 
L 495.032678 -293.121931 
L 495.037858 -288.695146 
L 494.787877 -284.26836 
L 494.252269 -279.841575 
L 493.423145 -275.41479 
L 492.317457 -270.988004 
L 490.975228 -266.561219 
L 489.453839 -262.134433 
L 487.819522 -257.707648 
L 486.137949 -253.280863 
L 484.466001 -248.854077 
L 482.846386 -244.427292 
L 481.305898 -240.000507 
L 479.857045 -235.573721 
L 478.501899 -231.146936 
L 477.236604 -226.72015 
L 476.055085 -222.293365 
L 474.951044 -217.86658 
L 473.918085 -213.439794 
L 472.948545 -209.013009 
L 472.031982 -204.586224 
L 471.154361 -200.159438 
L 470.298606 -195.732653 
L 469.446665 -191.305867 
L 468.58264 -186.879082 
L 467.696155 -182.452297 
L 466.784984 -178.025511 
L 465.856178 -173.598726 
L 464.92534 -169.171941 
L 464.014211 -164.745155 
L 463.147141 -160.31837 
L 462.347285 -155.891584 
L 461.633311 -151.464799 
L 461.017218 -147.038014 
L 460.503514 -142.611228 
L 460.089675 -138.184443 
L 459.767541 -133.757658 
L 459.525216 -129.330872 
L 459.349014 -124.904087 
L 459.225147 -120.477301 
L 459.140949 -116.050516 
z
" style="stroke: #3f3f3f; stroke-width: 1.25"/>
    </defs>
    <g clip-path="url(#pc024cbcdf4)">
     <use xlink:href="#mdb027ad660" x="0" y="720" style="fill: #3274a1; stroke: #3f3f3f; stroke-width: 1.25"/>
    </g>
   </g>
   <g id="PolyCollection_4">
    <defs>
     <path id="md200408ed1" d="M 570.750961 -119.610468 
L 570.449039 -119.610468 
L 570.359689 -123.990977 
L 570.229115 -128.371486 
L 570.04469 -132.751995 
L 569.792837 -137.132504 
L 569.460175 -141.513014 
L 569.034975 -145.893523 
L 568.508762 -150.274032 
L 567.877754 -154.654541 
L 567.143811 -159.03505 
L 566.314568 -163.415559 
L 565.40252 -167.796069 
L 564.423034 -172.176578 
L 563.391491 -176.557087 
L 562.320027 -180.937596 
L 561.214522 -185.318105 
L 560.072588 -189.698614 
L 558.883168 -194.079124 
L 557.628128 -198.459633 
L 556.28573 -202.840142 
L 554.835456 -207.220651 
L 553.263204 -211.60116 
L 551.565744 -215.981669 
L 549.753419 -220.362179 
L 547.850524 -224.742688 
L 545.893368 -229.123197 
L 543.926618 -233.503706 
L 541.998877 -237.884215 
L 540.158537 -242.264724 
L 538.450607 -246.645234 
L 536.914813 -251.025743 
L 535.584726 -255.406252 
L 534.487393 -259.786761 
L 533.6429 -264.16727 
L 533.063509 -268.547779 
L 532.752392 -272.928289 
L 532.702328 -277.308798 
L 532.894908 -281.689307 
L 533.300751 -286.069816 
L 533.880947 -290.450325 
L 534.589629 -294.830834 
L 535.37729 -299.211344 
L 536.19438 -303.591853 
L 536.994784 -307.972362 
L 537.738994 -312.352871 
L 538.396928 -316.73338 
L 538.950367 -321.113889 
L 539.39488 -325.494399 
L 539.740905 -329.874908 
L 540.013538 -334.255417 
L 540.250621 -338.635926 
L 540.498955 -343.016435 
L 540.808841 -347.396944 
L 541.227598 -351.777454 
L 541.793062 -356.157963 
L 542.528217 -360.538472 
L 543.438063 -364.918981 
L 544.509427 -369.29949 
L 545.713851 -373.679999 
L 547.012986 -378.060509 
L 548.36533 -382.441018 
L 549.732786 -386.821527 
L 551.085643 -391.202036 
L 552.404981 -395.582545 
L 553.682289 -399.963054 
L 554.916803 -404.343564 
L 556.111605 -408.724073 
L 557.269714 -413.104582 
L 558.39121 -417.485091 
L 559.471951 -421.8656 
L 560.503943 -426.246109 
L 561.476929 -430.626619 
L 562.38056 -435.007128 
L 563.206456 -439.387637 
L 563.949642 -443.768146 
L 564.609125 -448.148655 
L 565.187617 -452.529164 
L 565.690679 -456.909674 
L 566.125595 -461.290183 
L 566.500376 -465.670692 
L 566.823094 -470.051201 
L 567.101678 -474.43171 
L 567.344058 -478.812219 
L 567.558467 -483.192729 
L 567.753617 -487.573238 
L 567.938541 -491.953747 
L 568.121982 -496.334256 
L 568.311434 -500.714765 
L 568.512052 -505.095274 
L 568.725763 -509.475783 
L 568.950882 -513.856293 
L 569.182393 -518.236802 
L 569.412876 -522.617311 
L 569.633872 -526.99782 
L 569.837359 -531.378329 
L 570.017007 -535.758838 
L 570.168969 -540.139348 
L 570.292096 -544.519857 
L 570.387662 -548.900366 
L 570.458725 -553.280875 
L 570.741275 -553.280875 
L 570.741275 -553.280875 
L 570.812338 -548.900366 
L 570.907904 -544.519857 
L 571.031031 -540.139348 
L 571.182993 -535.758838 
L 571.362641 -531.378329 
L 571.566128 -526.99782 
L 571.787124 -522.617311 
L 572.017607 -518.236802 
L 572.249118 -513.856293 
L 572.474237 -509.475783 
L 572.687948 -505.095274 
L 572.888566 -500.714765 
L 573.078018 -496.334256 
L 573.261459 -491.953747 
L 573.446383 -487.573238 
L 573.641533 -483.192729 
L 573.855942 -478.812219 
L 574.098322 -474.43171 
L 574.376906 -470.051201 
L 574.699624 -465.670692 
L 575.074405 -461.290183 
L 575.509321 -456.909674 
L 576.012383 -452.529164 
L 576.590875 -448.148655 
L 577.250358 -443.768146 
L 577.993544 -439.387637 
L 578.81944 -435.007128 
L 579.723071 -430.626619 
L 580.696057 -426.246109 
L 581.728049 -421.8656 
L 582.80879 -417.485091 
L 583.930286 -413.104582 
L 585.088395 -408.724073 
L 586.283197 -404.343564 
L 587.517711 -399.963054 
L 588.795019 -395.582545 
L 590.114357 -391.202036 
L 591.467214 -386.821527 
L 592.83467 -382.441018 
L 594.187014 -378.060509 
L 595.486149 -373.679999 
L 596.690573 -369.29949 
L 597.761937 -364.918981 
L 598.671783 -360.538472 
L 599.406938 -356.157963 
L 599.972402 -351.777454 
L 600.391159 -347.396944 
L 600.701045 -343.016435 
L 600.949379 -338.635926 
L 601.186462 -334.255417 
L 601.459095 -329.874908 
L 601.80512 -325.494399 
L 602.249633 -321.113889 
L 602.803072 -316.73338 
L 603.461006 -312.352871 
L 604.205216 -307.972362 
L 605.00562 -303.591853 
L 605.82271 -299.211344 
L 606.610371 -294.830834 
L 607.319053 -290.450325 
L 607.899249 -286.069816 
L 608.305092 -281.689307 
L 608.497672 -277.308798 
L 608.447608 -272.928289 
L 608.136491 -268.547779 
L 607.5571 -264.16727 
L 606.712607 -259.786761 
L 605.615274 -255.406252 
L 604.285187 -251.025743 
L 602.749393 -246.645234 
L 601.041463 -242.264724 
L 599.201123 -237.884215 
L 597.273382 -233.503706 
L 595.306632 -229.123197 
L 593.349476 -224.742688 
L 591.446581 -220.362179 
L 589.634256 -215.981669 
L 587.936796 -211.60116 
L 586.364544 -207.220651 
L 584.91427 -202.840142 
L 583.571872 -198.459633 
L 582.316832 -194.079124 
L 581.127412 -189.698614 
L 579.985478 -185.318105 
L 578.879973 -180.937596 
L 577.808509 -176.557087 
L 576.776966 -172.176578 
L 575.79748 -167.796069 
L 574.885432 -163.415559 
L 574.056189 -159.03505 
L 573.322246 -154.654541 
L 572.691238 -150.274032 
L 572.165025 -145.893523 
L 571.739825 -141.513014 
L 571.407163 -137.132504 
L 571.15531 -132.751995 
L 570.970885 -128.371486 
L 570.840311 -123.990977 
L 570.750961 -119.610468 
z
" style="stroke: #3f3f3f; stroke-width: 1.25"/>
    </defs>
    <g clip-path="url(#pc024cbcdf4)">
     <use xlink:href="#md200408ed1" x="0" y="720" style="fill: #3274a1; stroke: #3f3f3f; stroke-width: 1.25"/>
    </g>
   </g>
   <g id="PolyCollection_5">
    <defs>
     <path id="mbc5b767bc7" d="M 682.340361 -121.395083 
L 682.059639 -121.395083 
L 681.973912 -125.73954 
L 681.84731 -130.083996 
L 681.666697 -134.428452 
L 681.41763 -138.772909 
L 681.085416 -143.117365 
L 680.656543 -147.461821 
L 680.120353 -151.806278 
L 679.470705 -156.150734 
L 678.707335 -160.49519 
L 677.836548 -164.839647 
L 676.870969 -169.184103 
L 675.828129 -173.528559 
L 674.727926 -177.873016 
L 673.589203 -182.217472 
L 672.425965 -186.561928 
L 671.243967 -190.906385 
L 670.038465 -195.250841 
L 668.793841 -199.595297 
L 667.4855 -203.939754 
L 666.083975 -208.28421 
L 664.560646 -212.628666 
L 662.894057 -216.973123 
L 661.075552 -221.317579 
L 659.113068 -225.662035 
L 657.032318 -230.006492 
L 654.875219 -234.350948 
L 652.696086 -238.695404 
L 650.556609 -243.039861 
L 648.520772 -247.384317 
L 646.650667 -251.728773 
L 645.003625 -256.073229 
L 643.630461 -260.417686 
L 642.574132 -264.762142 
L 641.867969 -269.106598 
L 641.532939 -273.451055 
L 641.573998 -277.795511 
L 641.976311 -282.139967 
L 642.702635 -286.484424 
L 643.693181 -290.82888 
L 644.868842 -295.173336 
L 646.137848 -299.517793 
L 647.40504 -303.862249 
L 648.582266 -308.206705 
L 649.598161 -312.551162 
L 650.405725 -316.895618 
L 650.986619 -321.240074 
L 651.351736 -325.584531 
L 651.538261 -329.928987 
L 651.603913 -334.273443 
L 651.619389 -338.6179 
L 651.66007 -342.962356 
L 651.797943 -347.306812 
L 652.09446 -351.651269 
L 652.594845 -355.995725 
L 653.324209 -360.340181 
L 654.285814 -364.684638 
L 655.461741 -369.029094 
L 656.816107 -373.37355 
L 658.300589 -377.718007 
L 659.861547 -382.062463 
L 661.447541 -386.406919 
L 663.015794 -390.751376 
L 664.536283 -395.095832 
L 665.992708 -399.440288 
L 667.380387 -403.784744 
L 668.701951 -408.129201 
L 669.962259 -412.473657 
L 671.164009 -416.818113 
L 672.305179 -421.16257 
L 673.378725 -425.507026 
L 674.374265 -429.851482 
L 675.280917 -434.195939 
L 676.090258 -438.540395 
L 676.79851 -442.884851 
L 677.407436 -447.229308 
L 677.923902 -451.573764 
L 678.358418 -455.91822 
L 678.723243 -460.262677 
L 679.030598 -464.607133 
L 679.291431 -468.951589 
L 679.514914 -473.296046 
L 679.70861 -477.640502 
L 679.879073 -481.984958 
L 680.03252 -486.329415 
L 680.175262 -490.673871 
L 680.313702 -495.018327 
L 680.453847 -499.362784 
L 680.600504 -503.70724 
L 680.756419 -508.051696 
L 680.92168 -512.396153 
L 681.093606 -516.740609 
L 681.267207 -521.085065 
L 681.436135 -525.429522 
L 681.593871 -529.773978 
L 681.734863 -534.118434 
L 681.855352 -538.462891 
L 681.953737 -542.807347 
L 682.030486 -547.151803 
L 682.087684 -551.496259 
L 682.312316 -551.496259 
L 682.312316 -551.496259 
L 682.369514 -547.151803 
L 682.446263 -542.807347 
L 682.544648 -538.462891 
L 682.665137 -534.118434 
L 682.806129 -529.773978 
L 682.963865 -525.429522 
L 683.132793 -521.085065 
L 683.306394 -516.740609 
L 683.47832 -512.396153 
L 683.643581 -508.051696 
L 683.799496 -503.70724 
L 683.946153 -499.362784 
L 684.086298 -495.018327 
L 684.224738 -490.673871 
L 684.36748 -486.329415 
L 684.520927 -481.984958 
L 684.69139 -477.640502 
L 684.885086 -473.296046 
L 685.108569 -468.951589 
L 685.369402 -464.607133 
L 685.676757 -460.262677 
L 686.041582 -455.91822 
L 686.476098 -451.573764 
L 686.992564 -447.229308 
L 687.60149 -442.884851 
L 688.309742 -438.540395 
L 689.119083 -434.195939 
L 690.025735 -429.851482 
L 691.021275 -425.507026 
L 692.094821 -421.16257 
L 693.235991 -416.818113 
L 694.437741 -412.473657 
L 695.698049 -408.129201 
L 697.019613 -403.784744 
L 698.407292 -399.440288 
L 699.863717 -395.095832 
L 701.384206 -390.751376 
L 702.952459 -386.406919 
L 704.538453 -382.062463 
L 706.099411 -377.718007 
L 707.583893 -373.37355 
L 708.938259 -369.029094 
L 710.114186 -364.684638 
L 711.075791 -360.340181 
L 711.805155 -355.995725 
L 712.30554 -351.651269 
L 712.602057 -347.306812 
L 712.73993 -342.962356 
L 712.780611 -338.6179 
L 712.796087 -334.273443 
L 712.861739 -329.928987 
L 713.048264 -325.584531 
L 713.413381 -321.240074 
L 713.994275 -316.895618 
L 714.801839 -312.551162 
L 715.817734 -308.206705 
L 716.99496 -303.862249 
L 718.262152 -299.517793 
L 719.531158 -295.173336 
L 720.706819 -290.82888 
L 721.697365 -286.484424 
L 722.423689 -282.139967 
L 722.826002 -277.795511 
L 722.867061 -273.451055 
L 722.532031 -269.106598 
L 721.825868 -264.762142 
L 720.769539 -260.417686 
L 719.396375 -256.073229 
L 717.749333 -251.728773 
L 715.879228 -247.384317 
L 713.843391 -243.039861 
L 711.703914 -238.695404 
L 709.524781 -234.350948 
L 707.367682 -230.006492 
L 705.286932 -225.662035 
L 703.324448 -221.317579 
L 701.505943 -216.973123 
L 699.839354 -212.628666 
L 698.316025 -208.28421 
L 696.9145 -203.939754 
L 695.606159 -199.595297 
L 694.361535 -195.250841 
L 693.156033 -190.906385 
L 691.974035 -186.561928 
L 690.810797 -182.217472 
L 689.672074 -177.873016 
L 688.571871 -173.528559 
L 687.529031 -169.184103 
L 686.563452 -164.839647 
L 685.692665 -160.49519 
L 684.929295 -156.150734 
L 684.279647 -151.806278 
L 683.743457 -147.461821 
L 683.314584 -143.117365 
L 682.98237 -138.772909 
L 682.733303 -134.428452 
L 682.55269 -130.083996 
L 682.426088 -125.73954 
L 682.340361 -121.395083 
z
" style="stroke: #3f3f3f; stroke-width: 1.25"/>
    </defs>
    <g clip-path="url(#pc024cbcdf4)">
     <use xlink:href="#mbc5b767bc7" x="0" y="720" style="fill: #3274a1; stroke: #3f3f3f; stroke-width: 1.25"/>
    </g>
   </g>
   <g id="PolyCollection_6">
    <defs>
     <path id="m370c40e9f1" d="M 793.908284 -113.575947 
L 793.691716 -113.575947 
L 793.623698 -117.997893 
L 793.521709 -122.419839 
L 793.37364 -126.841785 
L 793.165307 -131.263731 
L 792.881003 -135.685677 
L 792.504431 -140.107622 
L 792.020011 -144.529568 
L 791.414467 -148.951514 
L 790.678488 -153.37346 
L 789.808228 -157.795406 
L 788.806341 -162.217352 
L 787.682352 -166.639298 
L 786.452219 -171.061244 
L 785.137142 -175.48319 
L 783.761727 -179.905136 
L 782.351704 -184.327082 
L 780.931347 -188.749028 
L 779.520717 -193.170974 
L 778.132898 -197.59292 
L 776.771515 -202.014866 
L 775.429065 -206.436812 
L 774.086721 -210.858758 
L 772.716273 -215.280704 
L 771.284546 -219.70265 
L 769.760043 -224.124596 
L 768.120846 -228.546542 
L 766.362222 -232.968488 
L 764.502114 -237.390434 
L 762.582924 -241.81238 
L 760.668757 -246.234326 
L 758.838315 -250.656272 
L 757.174754 -255.078218 
L 755.754591 -259.500164 
L 754.637971 -263.92211 
L 753.862177 -268.344056 
L 753.439314 -272.766002 
L 753.357917 -277.187948 
L 753.587325 -281.609894 
L 754.08321 -286.03184 
L 754.79284 -290.453786 
L 755.659288 -294.875732 
L 756.624611 -299.297678 
L 757.632534 -303.719624 
L 758.631379 -308.141569 
L 759.577623 -312.563515 
L 760.439893 -316.985461 
L 761.202655 -321.407407 
L 761.868526 -325.829353 
L 762.458257 -330.251299 
L 763.007928 -334.673245 
L 763.563566 -339.095191 
L 764.174048 -343.517137 
L 764.883527 -347.939083 
L 765.724704 -352.361029 
L 766.714051 -356.782975 
L 767.849679 -361.204921 
L 769.112153 -365.626867 
L 770.468055 -370.048813 
L 771.875754 -374.470759 
L 773.292417 -378.892705 
L 774.68102 -383.314651 
L 776.015984 -387.736597 
L 777.286223 -392.158543 
L 778.494854 -396.580489 
L 779.655633 -401.002435 
L 780.786976 -405.424381 
L 781.905142 -409.846327 
L 783.018383 -414.268273 
L 784.12361 -418.690219 
L 785.206362 -423.112165 
L 786.243918 -427.534111 
L 787.21051 -431.956057 
L 788.083096 -436.378003 
L 788.846122 -440.799949 
L 789.494171 -445.221895 
L 790.032065 -449.643841 
L 790.472715 -454.065787 
L 790.833574 -458.487733 
L 791.13276 -462.909679 
L 791.385876 -467.331625 
L 791.604211 -471.753571 
L 791.794536 -476.175516 
L 791.960276 -480.597462 
L 792.10342 -485.019408 
L 792.226448 -489.441354 
L 792.333586 -493.8633 
L 792.431015 -498.285246 
L 792.526025 -502.707192 
L 792.625494 -507.129138 
L 792.734256 -511.551084 
L 792.853942 -515.97303 
L 792.982672 -520.394976 
L 793.115649 -524.816922 
L 793.246431 -529.238868 
L 793.368448 -533.660814 
L 793.476333 -538.08276 
L 793.566756 -542.504706 
L 793.63865 -546.926652 
L 793.692926 -551.348598 
L 793.907074 -551.348598 
L 793.907074 -551.348598 
L 793.96135 -546.926652 
L 794.033244 -542.504706 
L 794.123667 -538.08276 
L 794.231552 -533.660814 
L 794.353569 -529.238868 
L 794.484351 -524.816922 
L 794.617328 -520.394976 
L 794.746058 -515.97303 
L 794.865744 -511.551084 
L 794.974506 -507.129138 
L 795.073975 -502.707192 
L 795.168985 -498.285246 
L 795.266414 -493.8633 
L 795.373552 -489.441354 
L 795.49658 -485.019408 
L 795.639724 -480.597462 
L 795.805464 -476.175516 
L 795.995789 -471.753571 
L 796.214124 -467.331625 
L 796.46724 -462.909679 
L 796.766426 -458.487733 
L 797.127285 -454.065787 
L 797.567935 -449.643841 
L 798.105829 -445.221895 
L 798.753878 -440.799949 
L 799.516904 -436.378003 
L 800.38949 -431.956057 
L 801.356082 -427.534111 
L 802.393638 -423.112165 
L 803.47639 -418.690219 
L 804.581617 -414.268273 
L 805.694858 -409.846327 
L 806.813024 -405.424381 
L 807.944367 -401.002435 
L 809.105146 -396.580489 
L 810.313777 -392.158543 
L 811.584016 -387.736597 
L 812.91898 -383.314651 
L 814.307583 -378.892705 
L 815.724246 -374.470759 
L 817.131945 -370.048813 
L 818.487847 -365.626867 
L 819.750321 -361.204921 
L 820.885949 -356.782975 
L 821.875296 -352.361029 
L 822.716473 -347.939083 
L 823.425952 -343.517137 
L 824.036434 -339.095191 
L 824.592072 -334.673245 
L 825.141743 -330.251299 
L 825.731474 -325.829353 
L 826.397345 -321.407407 
L 827.160107 -316.985461 
L 828.022377 -312.563515 
L 828.968621 -308.141569 
L 829.967466 -303.719624 
L 830.975389 -299.297678 
L 831.940712 -294.875732 
L 832.80716 -290.453786 
L 833.51679 -286.03184 
L 834.012675 -281.609894 
L 834.242083 -277.187948 
L 834.160686 -272.766002 
L 833.737823 -268.344056 
L 832.962029 -263.92211 
L 831.845409 -259.500164 
L 830.425246 -255.078218 
L 828.761685 -250.656272 
L 826.931243 -246.234326 
L 825.017076 -241.81238 
L 823.097886 -237.390434 
L 821.237778 -232.968488 
L 819.479154 -228.546542 
L 817.839957 -224.124596 
L 816.315454 -219.70265 
L 814.883727 -215.280704 
L 813.513279 -210.858758 
L 812.170935 -206.436812 
L 810.828485 -202.014866 
L 809.467102 -197.59292 
L 808.079283 -193.170974 
L 806.668653 -188.749028 
L 805.248296 -184.327082 
L 803.838273 -179.905136 
L 802.462858 -175.48319 
L 801.147781 -171.061244 
L 799.917648 -166.639298 
L 798.793659 -162.217352 
L 797.791772 -157.795406 
L 796.921512 -153.37346 
L 796.185533 -148.951514 
L 795.579989 -144.529568 
L 795.095569 -140.107622 
L 794.718997 -135.685677 
L 794.434693 -131.263731 
L 794.22636 -126.841785 
L 794.078291 -122.419839 
L 793.976302 -117.997893 
L 793.908284 -113.575947 
z
" style="stroke: #3f3f3f; stroke-width: 1.25"/>
    </defs>
    <g clip-path="url(#pc024cbcdf4)">
     <use xlink:href="#m370c40e9f1" x="0" y="720" style="fill: #3274a1; stroke: #3f3f3f; stroke-width: 1.25"/>
    </g>
   </g>
   <g id="PolyCollection_7">
    <defs>
     <path id="mc0dc569f36" d="M 905.587454 -127.896168 
L 905.212546 -127.896168 
L 905.090326 -132.155055 
L 904.906279 -136.413941 
L 904.639871 -140.672827 
L 904.269103 -144.931713 
L 903.772821 -149.190599 
L 903.13365 -153.449486 
L 902.341061 -157.708372 
L 901.393926 -161.967258 
L 900.301814 -166.226144 
L 899.084537 -170.48503 
L 897.769785 -174.743917 
L 896.389195 -179.002803 
L 894.973638 -183.261689 
L 893.548682 -187.520575 
L 892.131145 -191.779461 
L 890.72726 -196.038348 
L 889.332538 -200.297234 
L 887.932973 -204.55612 
L 886.507075 -208.815006 
L 885.028301 -213.073892 
L 883.467778 -217.332779 
L 881.797554 -221.591665 
L 879.994739 -225.850551 
L 878.046714 -230.109437 
L 875.95702 -234.368323 
L 873.750809 -238.62721 
L 871.478215 -242.886096 
L 869.213944 -247.144982 
L 867.052058 -251.403868 
L 865.096111 -255.662754 
L 863.446182 -259.921641 
L 862.185408 -264.180527 
L 861.36883 -268.439413 
L 861.016865 -272.698299 
L 861.114428 -276.957185 
L 861.615413 -281.216071 
L 862.451081 -285.474958 
L 863.540324 -289.733844 
L 864.799775 -293.99273 
L 866.15213 -298.251616 
L 867.531696 -302.510502 
L 868.886925 -306.769389 
L 870.180354 -311.028275 
L 871.38691 -315.287161 
L 872.491777 -319.546047 
L 873.488909 -323.804933 
L 874.380762 -328.06382 
L 875.179099 -332.322706 
L 875.906013 -336.581592 
L 876.593937 -340.840478 
L 877.283566 -345.099364 
L 878.019265 -349.358251 
L 878.842479 -353.617137 
L 879.784505 -357.876023 
L 880.860436 -362.134909 
L 882.065967 -366.393795 
L 883.378053 -370.652682 
L 884.759432 -374.911568 
L 886.166026 -379.170454 
L 887.555457 -383.42934 
L 888.894707 -387.688226 
L 890.165128 -391.947113 
L 891.363742 -396.205999 
L 892.500705 -400.464885 
L 893.593768 -404.723771 
L 894.661313 -408.982657 
L 895.715831 -413.241544 
L 896.759527 -417.50043 
L 897.783037 -421.759316 
L 898.767389 -426.018202 
L 899.688402 -430.277088 
L 900.522187 -434.535974 
L 901.250231 -438.794861 
L 901.862862 -443.053747 
L 902.360457 -447.312633 
L 902.752438 -451.571519 
L 903.054591 -455.830405 
L 903.285602 -460.089292 
L 903.463692 -464.348178 
L 903.604096 -468.607064 
L 903.717812 -472.86595 
L 903.811704 -477.124836 
L 903.889679 -481.383723 
L 903.954438 -485.642609 
L 904.009156 -489.901495 
L 904.058523 -494.160381 
L 904.108828 -498.419267 
L 904.167067 -502.678154 
L 904.239433 -506.93704 
L 904.329731 -511.195926 
L 904.438289 -515.454812 
L 904.561737 -519.713698 
L 904.693726 -523.972585 
L 904.826327 -528.231471 
L 904.951673 -532.490357 
L 905.063385 -536.749243 
L 905.157438 -541.008129 
L 905.232376 -545.267016 
L 905.288972 -549.525902 
L 905.511028 -549.525902 
L 905.511028 -549.525902 
L 905.567624 -545.267016 
L 905.642562 -541.008129 
L 905.736615 -536.749243 
L 905.848327 -532.490357 
L 905.973673 -528.231471 
L 906.106274 -523.972585 
L 906.238263 -519.713698 
L 906.361711 -515.454812 
L 906.470269 -511.195926 
L 906.560567 -506.93704 
L 906.632933 -502.678154 
L 906.691172 -498.419267 
L 906.741477 -494.160381 
L 906.790844 -489.901495 
L 906.845562 -485.642609 
L 906.910321 -481.383723 
L 906.988296 -477.124836 
L 907.082188 -472.86595 
L 907.195904 -468.607064 
L 907.336308 -464.348178 
L 907.514398 -460.089292 
L 907.745409 -455.830405 
L 908.047562 -451.571519 
L 908.439543 -447.312633 
L 908.937138 -443.053747 
L 909.549769 -438.794861 
L 910.277813 -434.535974 
L 911.111598 -430.277088 
L 912.032611 -426.018202 
L 913.016963 -421.759316 
L 914.040473 -417.50043 
L 915.084169 -413.241544 
L 916.138687 -408.982657 
L 917.206232 -404.723771 
L 918.299295 -400.464885 
L 919.436258 -396.205999 
L 920.634872 -391.947113 
L 921.905293 -387.688226 
L 923.244543 -383.42934 
L 924.633974 -379.170454 
L 926.040568 -374.911568 
L 927.421947 -370.652682 
L 928.734033 -366.393795 
L 929.939564 -362.134909 
L 931.015495 -357.876023 
L 931.957521 -353.617137 
L 932.780735 -349.358251 
L 933.516434 -345.099364 
L 934.206063 -340.840478 
L 934.893987 -336.581592 
L 935.620901 -332.322706 
L 936.419238 -328.06382 
L 937.311091 -323.804933 
L 938.308223 -319.546047 
L 939.41309 -315.287161 
L 940.619646 -311.028275 
L 941.913075 -306.769389 
L 943.268304 -302.510502 
L 944.64787 -298.251616 
L 946.000225 -293.99273 
L 947.259676 -289.733844 
L 948.348919 -285.474958 
L 949.184587 -281.216071 
L 949.685572 -276.957185 
L 949.783135 -272.698299 
L 949.43117 -268.439413 
L 948.614592 -264.180527 
L 947.353818 -259.921641 
L 945.703889 -255.662754 
L 943.747942 -251.403868 
L 941.586056 -247.144982 
L 939.321785 -242.886096 
L 937.049191 -238.62721 
L 934.84298 -234.368323 
L 932.753286 -230.109437 
L 930.805261 -225.850551 
L 929.002446 -221.591665 
L 927.332222 -217.332779 
L 925.771699 -213.073892 
L 924.292925 -208.815006 
L 922.867027 -204.55612 
L 921.467462 -200.297234 
L 920.07274 -196.038348 
L 918.668855 -191.779461 
L 917.251318 -187.520575 
L 915.826362 -183.261689 
L 914.410805 -179.002803 
L 913.030215 -174.743917 
L 911.715463 -170.48503 
L 910.498186 -166.226144 
L 909.406074 -161.967258 
L 908.458939 -157.708372 
L 907.66635 -153.449486 
L 907.027179 -149.190599 
L 906.530897 -144.931713 
L 906.160129 -140.672827 
L 905.893721 -136.413941 
L 905.709674 -132.155055 
L 905.587454 -127.896168 
z
" style="stroke: #3f3f3f; stroke-width: 1.25"/>
    </defs>
    <g clip-path="url(#pc024cbcdf4)">
     <use xlink:href="#mc0dc569f36" x="0" y="720" style="fill: #3274a1; stroke: #3f3f3f; stroke-width: 1.25"/>
    </g>
   </g>
   <g id="PolyCollection_8">
    <defs>
     <path id="m6a36bd9862" d="M 1017.206723 -128.841625 
L 1016.793277 -128.841625 
L 1016.653605 -133.081411 
L 1016.440521 -137.321197 
L 1016.12846 -141.560983 
L 1015.689671 -145.800769 
L 1015.097168 -150.040555 
L 1014.328594 -154.280341 
L 1013.370408 -158.520127 
L 1012.221454 -162.759914 
L 1010.894881 -166.9997 
L 1009.417577 -171.239486 
L 1007.826827 -175.479272 
L 1006.164643 -179.719058 
L 1004.470982 -183.958844 
L 1002.777491 -188.19863 
L 1001.103437 -192.438416 
L 999.454852 -196.678202 
L 997.827009 -200.917988 
L 996.209266 -205.157774 
L 994.590637 -209.39756 
L 992.964272 -213.637346 
L 991.329573 -217.877132 
L 989.691636 -222.116918 
L 988.058785 -226.356704 
L 986.43964 -230.596491 
L 984.841294 -234.836277 
L 983.269571 -239.076063 
L 981.731417 -243.315849 
L 980.238521 -247.555635 
L 978.810711 -251.795421 
L 977.477686 -256.035207 
L 976.278176 -260.274993 
L 975.256401 -264.514779 
L 974.456517 -268.754565 
L 973.916275 -272.994351 
L 973.661322 -277.234137 
L 973.701382 -281.473923 
L 974.029079 -285.713709 
L 974.62147 -289.953495 
L 975.443695 -294.193281 
L 976.453659 -298.433068 
L 977.606582 -302.672854 
L 978.858535 -306.91264 
L 980.168662 -311.152426 
L 981.500358 -315.392212 
L 982.822053 -319.631998 
L 984.108246 -323.871784 
L 985.341098 -328.11157 
L 986.512383 -332.351356 
L 987.625136 -336.591142 
L 988.694119 -340.830928 
L 989.744321 -345.070714 
L 990.807185 -349.3105 
L 991.914889 -353.550286 
L 993.093682 -357.790072 
L 994.357743 -362.029858 
L 995.705142 -366.269645 
L 997.117126 -370.509431 
L 998.5612 -374.749217 
L 999.997499 -378.989003 
L 1001.387007 -383.228789 
L 1002.699567 -387.468575 
L 1003.919587 -391.708361 
L 1005.04792 -395.948147 
L 1006.099426 -400.187933 
L 1007.096996 -404.427719 
L 1008.063772 -408.667505 
L 1009.01582 -412.907291 
L 1009.957254 -417.147077 
L 1010.879025 -421.386863 
L 1011.761446 -425.626649 
L 1012.579478 -429.866435 
L 1013.309115 -434.106222 
L 1013.933088 -438.346008 
L 1014.444464 -442.585794 
L 1014.847467 -446.82558 
L 1015.155605 -451.065366 
L 1015.387902 -455.305152 
L 1015.564392 -459.544938 
L 1015.702109 -463.784724 
L 1015.812548 -468.02451 
L 1015.901084 -472.264296 
L 1015.968291 -476.504082 
L 1016.012562 -480.743868 
L 1016.033114 -484.983654 
L 1016.032405 -489.22344 
L 1016.017204 -493.463226 
L 1015.998029 -497.703012 
L 1015.987174 -501.942799 
L 1015.995983 -506.182585 
L 1016.032253 -510.422371 
L 1016.098535 -514.662157 
L 1016.19181 -518.901943 
L 1016.304509 -523.141729 
L 1016.426493 -527.381515 
L 1016.547324 -531.621301 
L 1016.658221 -535.861087 
L 1016.753266 -540.100873 
L 1016.829735 -544.340659 
L 1016.887704 -548.580445 
L 1017.112296 -548.580445 
L 1017.112296 -548.580445 
L 1017.170265 -544.340659 
L 1017.246734 -540.100873 
L 1017.341779 -535.861087 
L 1017.452676 -531.621301 
L 1017.573507 -527.381515 
L 1017.695491 -523.141729 
L 1017.80819 -518.901943 
L 1017.901465 -514.662157 
L 1017.967747 -510.422371 
L 1018.004017 -506.182585 
L 1018.012826 -501.942799 
L 1018.001971 -497.703012 
L 1017.982796 -493.463226 
L 1017.967595 -489.22344 
L 1017.966886 -484.983654 
L 1017.987438 -480.743868 
L 1018.031709 -476.504082 
L 1018.098916 -472.264296 
L 1018.187452 -468.02451 
L 1018.297891 -463.784724 
L 1018.435608 -459.544938 
L 1018.612098 -455.305152 
L 1018.844395 -451.065366 
L 1019.152533 -446.82558 
L 1019.555536 -442.585794 
L 1020.066912 -438.346008 
L 1020.690885 -434.106222 
L 1021.420522 -429.866435 
L 1022.238554 -425.626649 
L 1023.120975 -421.386863 
L 1024.042746 -417.147077 
L 1024.98418 -412.907291 
L 1025.936228 -408.667505 
L 1026.903004 -404.427719 
L 1027.900574 -400.187933 
L 1028.95208 -395.948147 
L 1030.080413 -391.708361 
L 1031.300433 -387.468575 
L 1032.612993 -383.228789 
L 1034.002501 -378.989003 
L 1035.4388 -374.749217 
L 1036.882874 -370.509431 
L 1038.294858 -366.269645 
L 1039.642257 -362.029858 
L 1040.906318 -357.790072 
L 1042.085111 -353.550286 
L 1043.192815 -349.3105 
L 1044.255679 -345.070714 
L 1045.305881 -340.830928 
L 1046.374864 -336.591142 
L 1047.487617 -332.351356 
L 1048.658902 -328.11157 
L 1049.891754 -323.871784 
L 1051.177947 -319.631998 
L 1052.499642 -315.392212 
L 1053.831338 -311.152426 
L 1055.141465 -306.91264 
L 1056.393418 -302.672854 
L 1057.546341 -298.433068 
L 1058.556305 -294.193281 
L 1059.37853 -289.953495 
L 1059.970921 -285.713709 
L 1060.298618 -281.473923 
L 1060.338678 -277.234137 
L 1060.083725 -272.994351 
L 1059.543483 -268.754565 
L 1058.743599 -264.514779 
L 1057.721824 -260.274993 
L 1056.522314 -256.035207 
L 1055.189289 -251.795421 
L 1053.761479 -247.555635 
L 1052.268583 -243.315849 
L 1050.730429 -239.076063 
L 1049.158706 -234.836277 
L 1047.56036 -230.596491 
L 1045.941215 -226.356704 
L 1044.308364 -222.116918 
L 1042.670427 -217.877132 
L 1041.035728 -213.637346 
L 1039.409363 -209.39756 
L 1037.790734 -205.157774 
L 1036.172991 -200.917988 
L 1034.545148 -196.678202 
L 1032.896563 -192.438416 
L 1031.222509 -188.19863 
L 1029.529018 -183.958844 
L 1027.835357 -179.719058 
L 1026.173173 -175.479272 
L 1024.582423 -171.239486 
L 1023.105119 -166.9997 
L 1021.778546 -162.759914 
L 1020.629592 -158.520127 
L 1019.671406 -154.280341 
L 1018.902832 -150.040555 
L 1018.310329 -145.800769 
L 1017.87154 -141.560983 
L 1017.559479 -137.321197 
L 1017.346395 -133.081411 
L 1017.206723 -128.841625 
z
" style="stroke: #3f3f3f; stroke-width: 1.25"/>
    </defs>
    <g clip-path="url(#pc024cbcdf4)">
     <use xlink:href="#m6a36bd9862" x="0" y="720" style="fill: #3274a1; stroke: #3f3f3f; stroke-width: 1.25"/>
    </g>
   </g>
   <g id="PolyCollection_9">
    <defs>
     <path id="m9369bcb61d" d="M 1128.784066 -129.127894 
L 1128.415934 -129.127894 
L 1128.292074 -133.361896 
L 1128.103045 -137.595899 
L 1127.825583 -141.829902 
L 1127.433626 -146.063905 
L 1126.900357 -150.297908 
L 1126.201059 -154.531911 
L 1125.316415 -158.765914 
L 1124.235731 -162.999916 
L 1122.959399 -167.233919 
L 1121.499987 -171.467922 
L 1119.881566 -175.701925 
L 1118.137239 -179.935928 
L 1116.305264 -184.169931 
L 1114.42451 -188.403934 
L 1112.530109 -192.637936 
L 1110.650085 -196.871939 
L 1108.803431 -201.105942 
L 1106.999705 -205.339945 
L 1105.239912 -209.573948 
L 1103.518316 -213.807951 
L 1101.824898 -218.041954 
L 1100.148312 -222.275956 
L 1098.479238 -226.509959 
L 1096.813874 -230.743962 
L 1095.157043 -234.977965 
L 1093.524125 -239.211968 
L 1091.941131 -243.445971 
L 1090.442619 -247.679974 
L 1089.067842 -251.913977 
L 1087.856114 -256.147979 
L 1086.842606 -260.381982 
L 1086.055475 -264.615985 
L 1085.514558 -268.849988 
L 1085.231199 -273.083991 
L 1085.208407 -277.317994 
L 1085.440728 -281.551997 
L 1085.913726 -285.785999 
L 1086.603581 -290.020002 
L 1087.477591 -294.254005 
L 1088.496198 -298.488008 
L 1089.616627 -302.722011 
L 1090.797537 -306.956014 
L 1092.003627 -311.190017 
L 1093.209099 -315.424019 
L 1094.399231 -319.658022 
L 1095.569993 -323.892025 
L 1096.726176 -328.126028 
L 1097.878815 -332.360031 
L 1099.042604 -336.594034 
L 1100.233567 -340.828037 
L 1101.466893 -345.062039 
L 1102.754638 -349.296042 
L 1104.103181 -353.530045 
L 1105.510704 -357.764048 
L 1106.965409 -361.998051 
L 1108.445299 -366.232054 
L 1109.920156 -370.466057 
L 1111.355732 -374.700059 
L 1112.719539 -378.934062 
L 1113.98696 -383.168065 
L 1115.146176 -387.402068 
L 1116.200525 -391.636071 
L 1117.167506 -395.870074 
L 1118.074427 -400.104077 
L 1118.951668 -404.338079 
L 1119.825161 -408.572082 
L 1120.710004 -412.806085 
L 1121.606843 -417.040088 
L 1122.501877 -421.274091 
L 1123.370392 -425.508094 
L 1124.182759 -429.742097 
L 1124.911231 -433.976099 
L 1125.535824 -438.210102 
L 1126.047914 -442.444105 
L 1126.450924 -446.678108 
L 1126.758249 -450.912111 
L 1126.989237 -455.146114 
L 1127.164433 -459.380117 
L 1127.301347 -463.614119 
L 1127.411748 -467.848122 
L 1127.501002 -472.082125 
L 1127.569403 -476.316128 
L 1127.614882 -480.550131 
L 1127.636156 -484.784134 
L 1127.635297 -489.018137 
L 1127.618923 -493.252139 
L 1127.597682 -497.486142 
L 1127.584239 -501.720145 
L 1127.590444 -505.954148 
L 1127.62459 -510.188151 
L 1127.689591 -514.422154 
L 1127.782572 -518.656157 
L 1127.895887 -522.890159 
L 1128.019151 -527.124162 
L 1128.141601 -531.358165 
L 1128.254148 -535.592168 
L 1128.350642 -539.826171 
L 1128.428236 -544.060174 
L 1128.486983 -548.294177 
L 1128.713017 -548.294177 
L 1128.713017 -548.294177 
L 1128.771764 -544.060174 
L 1128.849358 -539.826171 
L 1128.945852 -535.592168 
L 1129.058399 -531.358165 
L 1129.180849 -527.124162 
L 1129.304113 -522.890159 
L 1129.417428 -518.656157 
L 1129.510409 -514.422154 
L 1129.57541 -510.188151 
L 1129.609556 -505.954148 
L 1129.615761 -501.720145 
L 1129.602318 -497.486142 
L 1129.581077 -493.252139 
L 1129.564703 -489.018137 
L 1129.563844 -484.784134 
L 1129.585118 -480.550131 
L 1129.630597 -476.316128 
L 1129.698998 -472.082125 
L 1129.788252 -467.848122 
L 1129.898653 -463.614119 
L 1130.035567 -459.380117 
L 1130.210763 -455.146114 
L 1130.441751 -450.912111 
L 1130.749076 -446.678108 
L 1131.152086 -442.444105 
L 1131.664176 -438.210102 
L 1132.288769 -433.976099 
L 1133.017241 -429.742097 
L 1133.829608 -425.508094 
L 1134.698123 -421.274091 
L 1135.593157 -417.040088 
L 1136.489996 -412.806085 
L 1137.374839 -408.572082 
L 1138.248332 -404.338079 
L 1139.125573 -400.104077 
L 1140.032494 -395.870074 
L 1140.999475 -391.636071 
L 1142.053824 -387.402068 
L 1143.21304 -383.168065 
L 1144.480461 -378.934062 
L 1145.844268 -374.700059 
L 1147.279844 -370.466057 
L 1148.754701 -366.232054 
L 1150.234591 -361.998051 
L 1151.689296 -357.764048 
L 1153.096819 -353.530045 
L 1154.445362 -349.296042 
L 1155.733107 -345.062039 
L 1156.966433 -340.828037 
L 1158.157396 -336.594034 
L 1159.321185 -332.360031 
L 1160.473824 -328.126028 
L 1161.630007 -323.892025 
L 1162.800769 -319.658022 
L 1163.990901 -315.424019 
L 1165.196373 -311.190017 
L 1166.402463 -306.956014 
L 1167.583373 -302.722011 
L 1168.703802 -298.488008 
L 1169.722409 -294.254005 
L 1170.596419 -290.020002 
L 1171.286274 -285.785999 
L 1171.759272 -281.551997 
L 1171.991593 -277.317994 
L 1171.968801 -273.083991 
L 1171.685442 -268.849988 
L 1171.144525 -264.615985 
L 1170.357394 -260.381982 
L 1169.343886 -256.147979 
L 1168.132158 -251.913977 
L 1166.757381 -247.679974 
L 1165.258869 -243.445971 
L 1163.675875 -239.211968 
L 1162.042957 -234.977965 
L 1160.386126 -230.743962 
L 1158.720762 -226.509959 
L 1157.051688 -222.275956 
L 1155.375102 -218.041954 
L 1153.681684 -213.807951 
L 1151.960088 -209.573948 
L 1150.200295 -205.339945 
L 1148.396569 -201.105942 
L 1146.549915 -196.871939 
L 1144.669891 -192.637936 
L 1142.77549 -188.403934 
L 1140.894736 -184.169931 
L 1139.062761 -179.935928 
L 1137.318434 -175.701925 
L 1135.700013 -171.467922 
L 1134.240601 -167.233919 
L 1132.964269 -162.999916 
L 1131.883585 -158.765914 
L 1130.998941 -154.531911 
L 1130.299643 -150.297908 
L 1129.766374 -146.063905 
L 1129.374417 -141.829902 
L 1129.096955 -137.595899 
L 1128.907926 -133.361896 
L 1128.784066 -129.127894 
z
" style="stroke: #3f3f3f; stroke-width: 1.25"/>
    </defs>
    <g clip-path="url(#pc024cbcdf4)">
     <use xlink:href="#m9369bcb61d" x="0" y="720" style="fill: #3274a1; stroke: #3f3f3f; stroke-width: 1.25"/>
    </g>
   </g>
   <g id="PolyCollection_10">
    <defs>
     <path id="mc67cec6ac6" d="M 1240.55342 -139.222113 
L 1239.84658 -139.222113 
L 1239.619365 -143.334871 
L 1239.283034 -147.447629 
L 1238.806476 -151.560387 
L 1238.159567 -155.673145 
L 1237.317391 -159.785903 
L 1236.264532 -163.898661 
L 1234.998345 -168.011419 
L 1233.53021 -172.124177 
L 1231.884151 -176.236935 
L 1230.092956 -180.349692 
L 1228.192744 -184.46245 
L 1226.217506 -188.575208 
L 1224.195227 -192.687966 
L 1222.146674 -196.800724 
L 1220.086904 -200.913482 
L 1218.028507 -205.02624 
L 1215.984931 -209.138998 
L 1213.972293 -213.251756 
L 1212.008905 -217.364514 
L 1210.112895 -221.477272 
L 1208.29925 -225.59003 
L 1206.577861 -229.702787 
L 1204.953573 -233.815545 
L 1203.428203 -237.928303 
L 1202.003554 -242.041061 
L 1200.684102 -246.153819 
L 1199.478461 -250.266577 
L 1198.399504 -254.379335 
L 1197.463687 -258.492093 
L 1196.690246 -262.604851 
L 1196.10046 -266.717609 
L 1195.716622 -270.830367 
L 1195.56 -274.943125 
L 1195.647455 -279.055882 
L 1195.987095 -283.16864 
L 1196.574206 -287.281398 
L 1197.389012 -291.394156 
L 1198.397451 -295.506914 
L 1199.555198 -299.619672 
L 1200.813991 -303.73243 
L 1202.128554 -307.845188 
L 1203.46221 -311.957946 
L 1204.78991 -316.070704 
L 1206.098395 -320.183462 
L 1207.384224 -324.29622 
L 1208.650967 -328.408978 
L 1209.906741 -332.521735 
L 1211.162604 -336.634493 
L 1212.431533 -340.747251 
L 1213.727174 -344.860009 
L 1215.061637 -348.972767 
L 1216.442256 -353.085525 
L 1217.86802 -357.198283 
L 1219.326992 -361.311041 
L 1220.795976 -365.423799 
L 1222.243146 -369.536557 
L 1223.633338 -373.649315 
L 1224.934854 -377.762073 
L 1226.126054 -381.87483 
L 1227.200023 -385.987588 
L 1228.166075 -390.100346 
L 1229.047645 -394.213104 
L 1229.877016 -398.325862 
L 1230.688096 -402.43862 
L 1231.508918 -406.551378 
L 1232.355628 -410.664136 
L 1233.229332 -414.776894 
L 1234.116444 -418.889652 
L 1234.992293 -423.00241 
L 1235.826922 -427.115168 
L 1236.591536 -431.227925 
L 1237.264047 -435.340683 
L 1237.832536 -439.453441 
L 1238.29612 -443.566199 
L 1238.663424 -447.678957 
L 1238.949371 -451.791715 
L 1239.171295 -455.904473 
L 1239.345373 -460.017231 
L 1239.484106 -464.129989 
L 1239.595252 -468.242747 
L 1239.682182 -472.355505 
L 1239.74532 -476.468263 
L 1239.784131 -480.58102 
L 1239.799052 -484.693778 
L 1239.792872 -488.806536 
L 1239.771225 -492.919294 
L 1239.742136 -497.032052 
L 1239.714763 -501.14481 
L 1239.697712 -505.257568 
L 1239.697386 -509.370326 
L 1239.716835 -513.483084 
L 1239.755388 -517.595842 
L 1239.80914 -521.7086 
L 1239.872109 -525.821358 
L 1239.937674 -529.934115 
L 1239.999917 -534.046873 
L 1240.054537 -538.159631 
L 1240.099207 -542.272389 
L 1240.13344 -546.385147 
L 1240.26656 -546.385147 
L 1240.26656 -546.385147 
L 1240.300793 -542.272389 
L 1240.345463 -538.159631 
L 1240.400083 -534.046873 
L 1240.462326 -529.934115 
L 1240.527891 -525.821358 
L 1240.59086 -521.7086 
L 1240.644612 -517.595842 
L 1240.683165 -513.483084 
L 1240.702614 -509.370326 
L 1240.702288 -505.257568 
L 1240.685237 -501.14481 
L 1240.657864 -497.032052 
L 1240.628775 -492.919294 
L 1240.607128 -488.806536 
L 1240.600948 -484.693778 
L 1240.615869 -480.58102 
L 1240.65468 -476.468263 
L 1240.717818 -472.355505 
L 1240.804748 -468.242747 
L 1240.915894 -464.129989 
L 1241.054627 -460.017231 
L 1241.228705 -455.904473 
L 1241.450629 -451.791715 
L 1241.736576 -447.678957 
L 1242.10388 -443.566199 
L 1242.567464 -439.453441 
L 1243.135953 -435.340683 
L 1243.808464 -431.227925 
L 1244.573078 -427.115168 
L 1245.407707 -423.00241 
L 1246.283556 -418.889652 
L 1247.170668 -414.776894 
L 1248.044372 -410.664136 
L 1248.891082 -406.551378 
L 1249.711904 -402.43862 
L 1250.522984 -398.325862 
L 1251.352355 -394.213104 
L 1252.233925 -390.100346 
L 1253.199977 -385.987588 
L 1254.273946 -381.87483 
L 1255.465146 -377.762073 
L 1256.766662 -373.649315 
L 1258.156854 -369.536557 
L 1259.604024 -365.423799 
L 1261.073008 -361.311041 
L 1262.53198 -357.198283 
L 1263.957744 -353.085525 
L 1265.338363 -348.972767 
L 1266.672826 -344.860009 
L 1267.968467 -340.747251 
L 1269.237396 -336.634493 
L 1270.493259 -332.521735 
L 1271.749033 -328.408978 
L 1273.015776 -324.29622 
L 1274.301605 -320.183462 
L 1275.61009 -316.070704 
L 1276.93779 -311.957946 
L 1278.271446 -307.845188 
L 1279.586009 -303.73243 
L 1280.844802 -299.619672 
L 1282.002549 -295.506914 
L 1283.010988 -291.394156 
L 1283.825794 -287.281398 
L 1284.412905 -283.16864 
L 1284.752545 -279.055882 
L 1284.84 -274.943125 
L 1284.683378 -270.830367 
L 1284.29954 -266.717609 
L 1283.709754 -262.604851 
L 1282.936313 -258.492093 
L 1282.000496 -254.379335 
L 1280.921539 -250.266577 
L 1279.715898 -246.153819 
L 1278.396446 -242.041061 
L 1276.971797 -237.928303 
L 1275.446427 -233.815545 
L 1273.822139 -229.702787 
L 1272.10075 -225.59003 
L 1270.287105 -221.477272 
L 1268.391095 -217.364514 
L 1266.427707 -213.251756 
L 1264.415069 -209.138998 
L 1262.371493 -205.02624 
L 1260.313096 -200.913482 
L 1258.253326 -196.800724 
L 1256.204773 -192.687966 
L 1254.182494 -188.575208 
L 1252.207256 -184.46245 
L 1250.307044 -180.349692 
L 1248.515849 -176.236935 
L 1246.86979 -172.124177 
L 1245.401655 -168.011419 
L 1244.135468 -163.898661 
L 1243.082609 -159.785903 
L 1242.240433 -155.673145 
L 1241.593524 -151.560387 
L 1241.116966 -147.447629 
L 1240.780635 -143.334871 
L 1240.55342 -139.222113 
z
" style="stroke: #3f3f3f; stroke-width: 1.25"/>
    </defs>
    <g clip-path="url(#pc024cbcdf4)">
     <use xlink:href="#mc67cec6ac6" x="0" y="720" style="fill: #3274a1; stroke: #3f3f3f; stroke-width: 1.25"/>
    </g>
   </g>
   <g id="matplotlib.axis_1">
    <g id="xtick_1">
     <g id="line2d_1">
      <defs>
       <path id="mc775f9cc12" d="M 0 0 
L 0 3.5 
" style="stroke: #000000; stroke-width: 0.8"/>
      </defs>
      <g>
       <use xlink:href="#mc775f9cc12" x="235.8" y="640.8" style="stroke: #000000; stroke-width: 0.8"/>
      </g>
     </g>
     <g id="text_1">
      <!-- 0 -->
      <g transform="translate(232.61875 655.398438) scale(0.1 -0.1)">
       <defs>
        <path id="DejaVuSans-30" d="M 2034 4250 
Q 1547 4250 1301 3770 
Q 1056 3291 1056 2328 
Q 1056 1369 1301 889 
Q 1547 409 2034 409 
Q 2525 409 2770 889 
Q 3016 1369 3016 2328 
Q 3016 3291 2770 3770 
Q 2525 4250 2034 4250 
z
M 2034 4750 
Q 2819 4750 3233 4129 
Q 3647 3509 3647 2328 
Q 3647 1150 3233 529 
Q 2819 -91 2034 -91 
Q 1250 -91 836 529 
Q 422 1150 422 2328 
Q 422 3509 836 4129 
Q 1250 4750 2034 4750 
z
" transform="scale(0.015625)"/>
       </defs>
       <use xlink:href="#DejaVuSans-30"/>
      </g>
     </g>
    </g>
    <g id="xtick_2">
     <g id="line2d_2">
      <g>
       <use xlink:href="#mc775f9cc12" x="347.4" y="640.8" style="stroke: #000000; stroke-width: 0.8"/>
      </g>
     </g>
     <g id="text_2">
      <!-- 1 -->
      <g transform="translate(344.21875 655.398438) scale(0.1 -0.1)">
       <defs>
        <path id="DejaVuSans-31" d="M 794 531 
L 1825 531 
L 1825 4091 
L 703 3866 
L 703 4441 
L 1819 4666 
L 2450 4666 
L 2450 531 
L 3481 531 
L 3481 0 
L 794 0 
L 794 531 
z
" transform="scale(0.015625)"/>
       </defs>
       <use xlink:href="#DejaVuSans-31"/>
      </g>
     </g>
    </g>
    <g id="xtick_3">
     <g id="line2d_3">
      <g>
       <use xlink:href="#mc775f9cc12" x="459" y="640.8" style="stroke: #000000; stroke-width: 0.8"/>
      </g>
     </g>
     <g id="text_3">
      <!-- 2 -->
      <g transform="translate(455.81875 655.398438) scale(0.1 -0.1)">
       <defs>
        <path id="DejaVuSans-32" d="M 1228 531 
L 3431 531 
L 3431 0 
L 469 0 
L 469 531 
Q 828 903 1448 1529 
Q 2069 2156 2228 2338 
Q 2531 2678 2651 2914 
Q 2772 3150 2772 3378 
Q 2772 3750 2511 3984 
Q 2250 4219 1831 4219 
Q 1534 4219 1204 4116 
Q 875 4013 500 3803 
L 500 4441 
Q 881 4594 1212 4672 
Q 1544 4750 1819 4750 
Q 2544 4750 2975 4387 
Q 3406 4025 3406 3419 
Q 3406 3131 3298 2873 
Q 3191 2616 2906 2266 
Q 2828 2175 2409 1742 
Q 1991 1309 1228 531 
z
" transform="scale(0.015625)"/>
       </defs>
       <use xlink:href="#DejaVuSans-32"/>
      </g>
     </g>
    </g>
    <g id="xtick_4">
     <g id="line2d_4">
      <g>
       <use xlink:href="#mc775f9cc12" x="570.6" y="640.8" style="stroke: #000000; stroke-width: 0.8"/>
      </g>
     </g>
     <g id="text_4">
      <!-- 3 -->
      <g transform="translate(567.41875 655.398438) scale(0.1 -0.1)">
       <defs>
        <path id="DejaVuSans-33" d="M 2597 2516 
Q 3050 2419 3304 2112 
Q 3559 1806 3559 1356 
Q 3559 666 3084 287 
Q 2609 -91 1734 -91 
Q 1441 -91 1130 -33 
Q 819 25 488 141 
L 488 750 
Q 750 597 1062 519 
Q 1375 441 1716 441 
Q 2309 441 2620 675 
Q 2931 909 2931 1356 
Q 2931 1769 2642 2001 
Q 2353 2234 1838 2234 
L 1294 2234 
L 1294 2753 
L 1863 2753 
Q 2328 2753 2575 2939 
Q 2822 3125 2822 3475 
Q 2822 3834 2567 4026 
Q 2313 4219 1838 4219 
Q 1578 4219 1281 4162 
Q 984 4106 628 3988 
L 628 4550 
Q 988 4650 1302 4700 
Q 1616 4750 1894 4750 
Q 2613 4750 3031 4423 
Q 3450 4097 3450 3541 
Q 3450 3153 3228 2886 
Q 3006 2619 2597 2516 
z
" transform="scale(0.015625)"/>
       </defs>
       <use xlink:href="#DejaVuSans-33"/>
      </g>
     </g>
    </g>
    <g id="xtick_5">
     <g id="line2d_5">
      <g>
       <use xlink:href="#mc775f9cc12" x="682.2" y="640.8" style="stroke: #000000; stroke-width: 0.8"/>
      </g>
     </g>
     <g id="text_5">
      <!-- 4 -->
      <g transform="translate(679.01875 655.398438) scale(0.1 -0.1)">
       <defs>
        <path id="DejaVuSans-34" d="M 2419 4116 
L 825 1625 
L 2419 1625 
L 2419 4116 
z
M 2253 4666 
L 3047 4666 
L 3047 1625 
L 3713 1625 
L 3713 1100 
L 3047 1100 
L 3047 0 
L 2419 0 
L 2419 1100 
L 313 1100 
L 313 1709 
L 2253 4666 
z
" transform="scale(0.015625)"/>
       </defs>
       <use xlink:href="#DejaVuSans-34"/>
      </g>
     </g>
    </g>
    <g id="xtick_6">
     <g id="line2d_6">
      <g>
       <use xlink:href="#mc775f9cc12" x="793.8" y="640.8" style="stroke: #000000; stroke-width: 0.8"/>
      </g>
     </g>
     <g id="text_6">
      <!-- 5 -->
      <g transform="translate(790.61875 655.398438) scale(0.1 -0.1)">
       <defs>
        <path id="DejaVuSans-35" d="M 691 4666 
L 3169 4666 
L 3169 4134 
L 1269 4134 
L 1269 2991 
Q 1406 3038 1543 3061 
Q 1681 3084 1819 3084 
Q 2600 3084 3056 2656 
Q 3513 2228 3513 1497 
Q 3513 744 3044 326 
Q 2575 -91 1722 -91 
Q 1428 -91 1123 -41 
Q 819 9 494 109 
L 494 744 
Q 775 591 1075 516 
Q 1375 441 1709 441 
Q 2250 441 2565 725 
Q 2881 1009 2881 1497 
Q 2881 1984 2565 2268 
Q 2250 2553 1709 2553 
Q 1456 2553 1204 2497 
Q 953 2441 691 2322 
L 691 4666 
z
" transform="scale(0.015625)"/>
       </defs>
       <use xlink:href="#DejaVuSans-35"/>
      </g>
     </g>
    </g>
    <g id="xtick_7">
     <g id="line2d_7">
      <g>
       <use xlink:href="#mc775f9cc12" x="905.4" y="640.8" style="stroke: #000000; stroke-width: 0.8"/>
      </g>
     </g>
     <g id="text_7">
      <!-- 6 -->
      <g transform="translate(902.21875 655.398438) scale(0.1 -0.1)">
       <defs>
        <path id="DejaVuSans-36" d="M 2113 2584 
Q 1688 2584 1439 2293 
Q 1191 2003 1191 1497 
Q 1191 994 1439 701 
Q 1688 409 2113 409 
Q 2538 409 2786 701 
Q 3034 994 3034 1497 
Q 3034 2003 2786 2293 
Q 2538 2584 2113 2584 
z
M 3366 4563 
L 3366 3988 
Q 3128 4100 2886 4159 
Q 2644 4219 2406 4219 
Q 1781 4219 1451 3797 
Q 1122 3375 1075 2522 
Q 1259 2794 1537 2939 
Q 1816 3084 2150 3084 
Q 2853 3084 3261 2657 
Q 3669 2231 3669 1497 
Q 3669 778 3244 343 
Q 2819 -91 2113 -91 
Q 1303 -91 875 529 
Q 447 1150 447 2328 
Q 447 3434 972 4092 
Q 1497 4750 2381 4750 
Q 2619 4750 2861 4703 
Q 3103 4656 3366 4563 
z
" transform="scale(0.015625)"/>
       </defs>
       <use xlink:href="#DejaVuSans-36"/>
      </g>
     </g>
    </g>
    <g id="xtick_8">
     <g id="line2d_8">
      <g>
       <use xlink:href="#mc775f9cc12" x="1017" y="640.8" style="stroke: #000000; stroke-width: 0.8"/>
      </g>
     </g>
     <g id="text_8">
      <!-- 7 -->
      <g transform="translate(1013.81875 655.398438) scale(0.1 -0.1)">
       <defs>
        <path id="DejaVuSans-37" d="M 525 4666 
L 3525 4666 
L 3525 4397 
L 1831 0 
L 1172 0 
L 2766 4134 
L 525 4134 
L 525 4666 
z
" transform="scale(0.015625)"/>
       </defs>
       <use xlink:href="#DejaVuSans-37"/>
      </g>
     </g>
    </g>
    <g id="xtick_9">
     <g id="line2d_9">
      <g>
       <use xlink:href="#mc775f9cc12" x="1128.6" y="640.8" style="stroke: #000000; stroke-width: 0.8"/>
      </g>
     </g>
     <g id="text_9">
      <!-- 8 -->
      <g transform="translate(1125.41875 655.398438) scale(0.1 -0.1)">
       <defs>
        <path id="DejaVuSans-38" d="M 2034 2216 
Q 1584 2216 1326 1975 
Q 1069 1734 1069 1313 
Q 1069 891 1326 650 
Q 1584 409 2034 409 
Q 2484 409 2743 651 
Q 3003 894 3003 1313 
Q 3003 1734 2745 1975 
Q 2488 2216 2034 2216 
z
M 1403 2484 
Q 997 2584 770 2862 
Q 544 3141 544 3541 
Q 544 4100 942 4425 
Q 1341 4750 2034 4750 
Q 2731 4750 3128 4425 
Q 3525 4100 3525 3541 
Q 3525 3141 3298 2862 
Q 3072 2584 2669 2484 
Q 3125 2378 3379 2068 
Q 3634 1759 3634 1313 
Q 3634 634 3220 271 
Q 2806 -91 2034 -91 
Q 1263 -91 848 271 
Q 434 634 434 1313 
Q 434 1759 690 2068 
Q 947 2378 1403 2484 
z
M 1172 3481 
Q 1172 3119 1398 2916 
Q 1625 2713 2034 2713 
Q 2441 2713 2670 2916 
Q 2900 3119 2900 3481 
Q 2900 3844 2670 4047 
Q 2441 4250 2034 4250 
Q 1625 4250 1398 4047 
Q 1172 3844 1172 3481 
z
" transform="scale(0.015625)"/>
       </defs>
       <use xlink:href="#DejaVuSans-38"/>
      </g>
     </g>
    </g>
    <g id="xtick_10">
     <g id="line2d_10">
      <g>
       <use xlink:href="#mc775f9cc12" x="1240.2" y="640.8" style="stroke: #000000; stroke-width: 0.8"/>
      </g>
     </g>
     <g id="text_10">
      <!-- 9 -->
      <g transform="translate(1237.01875 655.398438) scale(0.1 -0.1)">
       <defs>
        <path id="DejaVuSans-39" d="M 703 97 
L 703 672 
Q 941 559 1184 500 
Q 1428 441 1663 441 
Q 2288 441 2617 861 
Q 2947 1281 2994 2138 
Q 2813 1869 2534 1725 
Q 2256 1581 1919 1581 
Q 1219 1581 811 2004 
Q 403 2428 403 3163 
Q 403 3881 828 4315 
Q 1253 4750 1959 4750 
Q 2769 4750 3195 4129 
Q 3622 3509 3622 2328 
Q 3622 1225 3098 567 
Q 2575 -91 1691 -91 
Q 1453 -91 1209 -44 
Q 966 3 703 97 
z
M 1959 2075 
Q 2384 2075 2632 2365 
Q 2881 2656 2881 3163 
Q 2881 3666 2632 3958 
Q 2384 4250 1959 4250 
Q 1534 4250 1286 3958 
Q 1038 3666 1038 3163 
Q 1038 2656 1286 2365 
Q 1534 2075 1959 2075 
z
" transform="scale(0.015625)"/>
       </defs>
       <use xlink:href="#DejaVuSans-39"/>
      </g>
     </g>
    </g>
    <g id="text_11">
     <!-- iteration -->
     <g transform="translate(716.877344 669.076563) scale(0.1 -0.1)">
      <defs>
       <path id="DejaVuSans-69" d="M 603 3500 
L 1178 3500 
L 1178 0 
L 603 0 
L 603 3500 
z
M 603 4863 
L 1178 4863 
L 1178 4134 
L 603 4134 
L 603 4863 
z
" transform="scale(0.015625)"/>
       <path id="DejaVuSans-74" d="M 1172 4494 
L 1172 3500 
L 2356 3500 
L 2356 3053 
L 1172 3053 
L 1172 1153 
Q 1172 725 1289 603 
Q 1406 481 1766 481 
L 2356 481 
L 2356 0 
L 1766 0 
Q 1100 0 847 248 
Q 594 497 594 1153 
L 594 3053 
L 172 3053 
L 172 3500 
L 594 3500 
L 594 4494 
L 1172 4494 
z
" transform="scale(0.015625)"/>
       <path id="DejaVuSans-65" d="M 3597 1894 
L 3597 1613 
L 953 1613 
Q 991 1019 1311 708 
Q 1631 397 2203 397 
Q 2534 397 2845 478 
Q 3156 559 3463 722 
L 3463 178 
Q 3153 47 2828 -22 
Q 2503 -91 2169 -91 
Q 1331 -91 842 396 
Q 353 884 353 1716 
Q 353 2575 817 3079 
Q 1281 3584 2069 3584 
Q 2775 3584 3186 3129 
Q 3597 2675 3597 1894 
z
M 3022 2063 
Q 3016 2534 2758 2815 
Q 2500 3097 2075 3097 
Q 1594 3097 1305 2825 
Q 1016 2553 972 2059 
L 3022 2063 
z
" transform="scale(0.015625)"/>
       <path id="DejaVuSans-72" d="M 2631 2963 
Q 2534 3019 2420 3045 
Q 2306 3072 2169 3072 
Q 1681 3072 1420 2755 
Q 1159 2438 1159 1844 
L 1159 0 
L 581 0 
L 581 3500 
L 1159 3500 
L 1159 2956 
Q 1341 3275 1631 3429 
Q 1922 3584 2338 3584 
Q 2397 3584 2469 3576 
Q 2541 3569 2628 3553 
L 2631 2963 
z
" transform="scale(0.015625)"/>
       <path id="DejaVuSans-61" d="M 2194 1759 
Q 1497 1759 1228 1600 
Q 959 1441 959 1056 
Q 959 750 1161 570 
Q 1363 391 1709 391 
Q 2188 391 2477 730 
Q 2766 1069 2766 1631 
L 2766 1759 
L 2194 1759 
z
M 3341 1997 
L 3341 0 
L 2766 0 
L 2766 531 
Q 2569 213 2275 61 
Q 1981 -91 1556 -91 
Q 1019 -91 701 211 
Q 384 513 384 1019 
Q 384 1609 779 1909 
Q 1175 2209 1959 2209 
L 2766 2209 
L 2766 2266 
Q 2766 2663 2505 2880 
Q 2244 3097 1772 3097 
Q 1472 3097 1187 3025 
Q 903 2953 641 2809 
L 641 3341 
Q 956 3463 1253 3523 
Q 1550 3584 1831 3584 
Q 2591 3584 2966 3190 
Q 3341 2797 3341 1997 
z
" transform="scale(0.015625)"/>
       <path id="DejaVuSans-6f" d="M 1959 3097 
Q 1497 3097 1228 2736 
Q 959 2375 959 1747 
Q 959 1119 1226 758 
Q 1494 397 1959 397 
Q 2419 397 2687 759 
Q 2956 1122 2956 1747 
Q 2956 2369 2687 2733 
Q 2419 3097 1959 3097 
z
M 1959 3584 
Q 2709 3584 3137 3096 
Q 3566 2609 3566 1747 
Q 3566 888 3137 398 
Q 2709 -91 1959 -91 
Q 1206 -91 779 398 
Q 353 888 353 1747 
Q 353 2609 779 3096 
Q 1206 3584 1959 3584 
z
" transform="scale(0.015625)"/>
       <path id="DejaVuSans-6e" d="M 3513 2113 
L 3513 0 
L 2938 0 
L 2938 2094 
Q 2938 2591 2744 2837 
Q 2550 3084 2163 3084 
Q 1697 3084 1428 2787 
Q 1159 2491 1159 1978 
L 1159 0 
L 581 0 
L 581 3500 
L 1159 3500 
L 1159 2956 
Q 1366 3272 1645 3428 
Q 1925 3584 2291 3584 
Q 2894 3584 3203 3211 
Q 3513 2838 3513 2113 
z
" transform="scale(0.015625)"/>
      </defs>
      <use xlink:href="#DejaVuSans-69"/>
      <use xlink:href="#DejaVuSans-74" x="27.783203"/>
      <use xlink:href="#DejaVuSans-65" x="66.992188"/>
      <use xlink:href="#DejaVuSans-72" x="128.515625"/>
      <use xlink:href="#DejaVuSans-61" x="169.628906"/>
      <use xlink:href="#DejaVuSans-74" x="230.908203"/>
      <use xlink:href="#DejaVuSans-69" x="270.117188"/>
      <use xlink:href="#DejaVuSans-6f" x="297.900391"/>
      <use xlink:href="#DejaVuSans-6e" x="359.082031"/>
     </g>
    </g>
   </g>
   <g id="matplotlib.axis_2">
    <g id="ytick_1">
     <g id="line2d_11">
      <defs>
       <path id="mf1859ed4fd" d="M 0 0 
L -3.5 0 
" style="stroke: #000000; stroke-width: 0.8"/>
      </defs>
      <g>
       <use xlink:href="#mf1859ed4fd" x="180" y="601.354894" style="stroke: #000000; stroke-width: 0.8"/>
      </g>
     </g>
     <g id="text_12">
      <!-- 0.2 -->
      <g transform="translate(148.717187 605.154112) scale(0.1 -0.1)">
       <defs>
        <path id="DejaVuSans-2212" d="M 678 2272 
L 4684 2272 
L 4684 1741 
L 678 1741 
L 678 2272 
z
" transform="scale(0.015625)"/>
        <path id="DejaVuSans-2e" d="M 684 794 
L 1344 794 
L 1344 0 
L 684 0 
L 684 794 
z
" transform="scale(0.015625)"/>
       </defs>
       <use xlink:href="#DejaVuSans-2212"/>
       <use xlink:href="#DejaVuSans-30" x="83.789062"/>
       <use xlink:href="#DejaVuSans-2e" x="147.412109"/>
       <use xlink:href="#DejaVuSans-32" x="179.199219"/>
      </g>
     </g>
    </g>
    <g id="ytick_2">
     <g id="line2d_12">
      <g>
       <use xlink:href="#mf1859ed4fd" x="180" y="527.491199" style="stroke: #000000; stroke-width: 0.8"/>
      </g>
     </g>
     <g id="text_13">
      <!-- 0.0 -->
      <g transform="translate(157.096875 531.290418) scale(0.1 -0.1)">
       <use xlink:href="#DejaVuSans-30"/>
       <use xlink:href="#DejaVuSans-2e" x="63.623047"/>
       <use xlink:href="#DejaVuSans-30" x="95.410156"/>
      </g>
     </g>
    </g>
    <g id="ytick_3">
     <g id="line2d_13">
      <g>
       <use xlink:href="#mf1859ed4fd" x="180" y="453.627504" style="stroke: #000000; stroke-width: 0.8"/>
      </g>
     </g>
     <g id="text_14">
      <!-- 0.2 -->
      <g transform="translate(157.096875 457.426723) scale(0.1 -0.1)">
       <use xlink:href="#DejaVuSans-30"/>
       <use xlink:href="#DejaVuSans-2e" x="63.623047"/>
       <use xlink:href="#DejaVuSans-32" x="95.410156"/>
      </g>
     </g>
    </g>
    <g id="ytick_4">
     <g id="line2d_14">
      <g>
       <use xlink:href="#mf1859ed4fd" x="180" y="379.763809" style="stroke: #000000; stroke-width: 0.8"/>
      </g>
     </g>
     <g id="text_15">
      <!-- 0.4 -->
      <g transform="translate(157.096875 383.563028) scale(0.1 -0.1)">
       <use xlink:href="#DejaVuSans-30"/>
       <use xlink:href="#DejaVuSans-2e" x="63.623047"/>
       <use xlink:href="#DejaVuSans-34" x="95.410156"/>
      </g>
     </g>
    </g>
    <g id="ytick_5">
     <g id="line2d_15">
      <g>
       <use xlink:href="#mf1859ed4fd" x="180" y="305.900114" style="stroke: #000000; stroke-width: 0.8"/>
      </g>
     </g>
     <g id="text_16">
      <!-- 0.6 -->
      <g transform="translate(157.096875 309.699333) scale(0.1 -0.1)">
       <use xlink:href="#DejaVuSans-30"/>
       <use xlink:href="#DejaVuSans-2e" x="63.623047"/>
       <use xlink:href="#DejaVuSans-36" x="95.410156"/>
      </g>
     </g>
    </g>
    <g id="ytick_6">
     <g id="line2d_16">
      <g>
       <use xlink:href="#mf1859ed4fd" x="180" y="232.036419" style="stroke: #000000; stroke-width: 0.8"/>
      </g>
     </g>
     <g id="text_17">
      <!-- 0.8 -->
      <g transform="translate(157.096875 235.835638) scale(0.1 -0.1)">
       <use xlink:href="#DejaVuSans-30"/>
       <use xlink:href="#DejaVuSans-2e" x="63.623047"/>
       <use xlink:href="#DejaVuSans-38" x="95.410156"/>
      </g>
     </g>
    </g>
    <g id="ytick_7">
     <g id="line2d_17">
      <g>
       <use xlink:href="#mf1859ed4fd" x="180" y="158.172724" style="stroke: #000000; stroke-width: 0.8"/>
      </g>
     </g>
     <g id="text_18">
      <!-- 1.0 -->
      <g transform="translate(157.096875 161.971943) scale(0.1 -0.1)">
       <use xlink:href="#DejaVuSans-31"/>
       <use xlink:href="#DejaVuSans-2e" x="63.623047"/>
       <use xlink:href="#DejaVuSans-30" x="95.410156"/>
      </g>
     </g>
    </g>
    <g id="text_19">
     <!-- cosine similarity -->
     <g transform="translate(142.6375 404.307031) rotate(-90) scale(0.1 -0.1)">
      <defs>
       <path id="DejaVuSans-63" d="M 3122 3366 
L 3122 2828 
Q 2878 2963 2633 3030 
Q 2388 3097 2138 3097 
Q 1578 3097 1268 2742 
Q 959 2388 959 1747 
Q 959 1106 1268 751 
Q 1578 397 2138 397 
Q 2388 397 2633 464 
Q 2878 531 3122 666 
L 3122 134 
Q 2881 22 2623 -34 
Q 2366 -91 2075 -91 
Q 1284 -91 818 406 
Q 353 903 353 1747 
Q 353 2603 823 3093 
Q 1294 3584 2113 3584 
Q 2378 3584 2631 3529 
Q 2884 3475 3122 3366 
z
" transform="scale(0.015625)"/>
       <path id="DejaVuSans-73" d="M 2834 3397 
L 2834 2853 
Q 2591 2978 2328 3040 
Q 2066 3103 1784 3103 
Q 1356 3103 1142 2972 
Q 928 2841 928 2578 
Q 928 2378 1081 2264 
Q 1234 2150 1697 2047 
L 1894 2003 
Q 2506 1872 2764 1633 
Q 3022 1394 3022 966 
Q 3022 478 2636 193 
Q 2250 -91 1575 -91 
Q 1294 -91 989 -36 
Q 684 19 347 128 
L 347 722 
Q 666 556 975 473 
Q 1284 391 1588 391 
Q 1994 391 2212 530 
Q 2431 669 2431 922 
Q 2431 1156 2273 1281 
Q 2116 1406 1581 1522 
L 1381 1569 
Q 847 1681 609 1914 
Q 372 2147 372 2553 
Q 372 3047 722 3315 
Q 1072 3584 1716 3584 
Q 2034 3584 2315 3537 
Q 2597 3491 2834 3397 
z
" transform="scale(0.015625)"/>
       <path id="DejaVuSans-20" transform="scale(0.015625)"/>
       <path id="DejaVuSans-6d" d="M 3328 2828 
Q 3544 3216 3844 3400 
Q 4144 3584 4550 3584 
Q 5097 3584 5394 3201 
Q 5691 2819 5691 2113 
L 5691 0 
L 5113 0 
L 5113 2094 
Q 5113 2597 4934 2840 
Q 4756 3084 4391 3084 
Q 3944 3084 3684 2787 
Q 3425 2491 3425 1978 
L 3425 0 
L 2847 0 
L 2847 2094 
Q 2847 2600 2669 2842 
Q 2491 3084 2119 3084 
Q 1678 3084 1418 2786 
Q 1159 2488 1159 1978 
L 1159 0 
L 581 0 
L 581 3500 
L 1159 3500 
L 1159 2956 
Q 1356 3278 1631 3431 
Q 1906 3584 2284 3584 
Q 2666 3584 2933 3390 
Q 3200 3197 3328 2828 
z
" transform="scale(0.015625)"/>
       <path id="DejaVuSans-6c" d="M 603 4863 
L 1178 4863 
L 1178 0 
L 603 0 
L 603 4863 
z
" transform="scale(0.015625)"/>
       <path id="DejaVuSans-79" d="M 2059 -325 
Q 1816 -950 1584 -1140 
Q 1353 -1331 966 -1331 
L 506 -1331 
L 506 -850 
L 844 -850 
Q 1081 -850 1212 -737 
Q 1344 -625 1503 -206 
L 1606 56 
L 191 3500 
L 800 3500 
L 1894 763 
L 2988 3500 
L 3597 3500 
L 2059 -325 
z
" transform="scale(0.015625)"/>
      </defs>
      <use xlink:href="#DejaVuSans-63"/>
      <use xlink:href="#DejaVuSans-6f" x="54.980469"/>
      <use xlink:href="#DejaVuSans-73" x="116.162109"/>
      <use xlink:href="#DejaVuSans-69" x="168.261719"/>
      <use xlink:href="#DejaVuSans-6e" x="196.044922"/>
      <use xlink:href="#DejaVuSans-65" x="259.423828"/>
      <use xlink:href="#DejaVuSans-20" x="320.947266"/>
      <use xlink:href="#DejaVuSans-73" x="352.734375"/>
      <use xlink:href="#DejaVuSans-69" x="404.833984"/>
      <use xlink:href="#DejaVuSans-6d" x="432.617188"/>
      <use xlink:href="#DejaVuSans-69" x="530.029297"/>
      <use xlink:href="#DejaVuSans-6c" x="557.8125"/>
      <use xlink:href="#DejaVuSans-61" x="585.595703"/>
      <use xlink:href="#DejaVuSans-72" x="646.875"/>
      <use xlink:href="#DejaVuSans-69" x="687.988281"/>
      <use xlink:href="#DejaVuSans-74" x="715.771484"/>
      <use xlink:href="#DejaVuSans-79" x="754.980469"/>
     </g>
    </g>
   </g>
   <g id="line2d_18">
    <path d="M 235.8 521.50287 
L 235.8 211.09168 
" clip-path="url(#pc024cbcdf4)" style="fill: none; stroke: #3f3f3f; stroke-width: 1.875; stroke-linecap: square"/>
   </g>
   <g id="line2d_19">
    <path d="M 235.8 395.186287 
L 235.8 301.189567 
" clip-path="url(#pc024cbcdf4)" style="fill: none; stroke: #3f3f3f; stroke-width: 5.625; stroke-linecap: square"/>
   </g>
   <g id="line2d_20">
    <path d="M 235.8 352.31232 
" clip-path="url(#pc024cbcdf4)" style="fill: none; stroke: #3f3f3f; stroke-width: 1.5; stroke-linecap: square"/>
    <defs>
     <path id="m42e14ffa7b" d="M 2.34375 0 
L -2.34375 -0 
" style="stroke: #ffffff; stroke-width: 1.125"/>
    </defs>
    <g clip-path="url(#pc024cbcdf4)">
     <use xlink:href="#m42e14ffa7b" x="235.8" y="352.31232" style="fill: #ffffff; stroke: #ffffff; stroke-width: 1.125"/>
    </g>
   </g>
   <g id="line2d_21">
    <path d="M 347.4 569.027276 
L 347.4 211.09168 
" clip-path="url(#pc024cbcdf4)" style="fill: none; stroke: #3f3f3f; stroke-width: 1.875; stroke-linecap: square"/>
   </g>
   <g id="line2d_22">
    <path d="M 347.4 442.368229 
L 347.4 342.889264 
" clip-path="url(#pc024cbcdf4)" style="fill: none; stroke: #3f3f3f; stroke-width: 5.625; stroke-linecap: square"/>
   </g>
   <g id="line2d_23">
    <path d="M 347.4 386.080492 
" clip-path="url(#pc024cbcdf4)" style="fill: none; stroke: #3f3f3f; stroke-width: 1.5; stroke-linecap: square"/>
    <g clip-path="url(#pc024cbcdf4)">
     <use xlink:href="#m42e14ffa7b" x="347.4" y="386.080492" style="fill: #ffffff; stroke: #ffffff; stroke-width: 1.125"/>
    </g>
   </g>
   <g id="line2d_24">
    <path d="M 459 558.555536 
L 459 213.425861 
" clip-path="url(#pc024cbcdf4)" style="fill: none; stroke: #3f3f3f; stroke-width: 1.875; stroke-linecap: square"/>
   </g>
   <g id="line2d_25">
    <path d="M 459 448.735451 
L 459 354.31036 
" clip-path="url(#pc024cbcdf4)" style="fill: none; stroke: #3f3f3f; stroke-width: 5.625; stroke-linecap: square"/>
   </g>
   <g id="line2d_26">
    <path d="M 459 406.658973 
" clip-path="url(#pc024cbcdf4)" style="fill: none; stroke: #3f3f3f; stroke-width: 1.5; stroke-linecap: square"/>
    <g clip-path="url(#pc024cbcdf4)">
     <use xlink:href="#m42e14ffa7b" x="459" y="406.658973" style="fill: #ffffff; stroke: #ffffff; stroke-width: 1.125"/>
    </g>
   </g>
   <g id="line2d_27">
    <path d="M 570.6 556.016977 
L 570.6 211.09168 
" clip-path="url(#pc024cbcdf4)" style="fill: none; stroke: #3f3f3f; stroke-width: 1.875; stroke-linecap: square"/>
   </g>
   <g id="line2d_28">
    <path d="M 570.6 462.175097 
L 570.6 361.1146 
" clip-path="url(#pc024cbcdf4)" style="fill: none; stroke: #3f3f3f; stroke-width: 5.625; stroke-linecap: square"/>
   </g>
   <g id="line2d_29">
    <path d="M 570.6 418.599003 
" clip-path="url(#pc024cbcdf4)" style="fill: none; stroke: #3f3f3f; stroke-width: 1.5; stroke-linecap: square"/>
    <g clip-path="url(#pc024cbcdf4)">
     <use xlink:href="#m42e14ffa7b" x="570.6" y="418.599003" style="fill: #ffffff; stroke: #ffffff; stroke-width: 1.125"/>
    </g>
   </g>
   <g id="line2d_30">
    <path d="M 682.2 556.016977 
L 682.2 231.361427 
" clip-path="url(#pc024cbcdf4)" style="fill: none; stroke: #3f3f3f; stroke-width: 1.875; stroke-linecap: square"/>
   </g>
   <g id="line2d_31">
    <path d="M 682.2 462.539754 
L 682.2 365.082857 
" clip-path="url(#pc024cbcdf4)" style="fill: none; stroke: #3f3f3f; stroke-width: 5.625; stroke-linecap: square"/>
   </g>
   <g id="line2d_32">
    <path d="M 682.2 423.998563 
" clip-path="url(#pc024cbcdf4)" style="fill: none; stroke: #3f3f3f; stroke-width: 1.5; stroke-linecap: square"/>
    <g clip-path="url(#pc024cbcdf4)">
     <use xlink:href="#m42e14ffa7b" x="682.2" y="423.998563" style="fill: #ffffff; stroke: #ffffff; stroke-width: 1.125"/>
    </g>
   </g>
   <g id="line2d_33">
    <path d="M 793.8 563.983775 
L 793.8 241.25605 
" clip-path="url(#pc024cbcdf4)" style="fill: none; stroke: #3f3f3f; stroke-width: 1.875; stroke-linecap: square"/>
   </g>
   <g id="line2d_34">
    <path d="M 793.8 464.196537 
L 793.8 372.844136 
" clip-path="url(#pc024cbcdf4)" style="fill: none; stroke: #3f3f3f; stroke-width: 5.625; stroke-linecap: square"/>
   </g>
   <g id="line2d_35">
    <path d="M 793.8 426.709101 
" clip-path="url(#pc024cbcdf4)" style="fill: none; stroke: #3f3f3f; stroke-width: 1.5; stroke-linecap: square"/>
    <g clip-path="url(#pc024cbcdf4)">
     <use xlink:href="#m42e14ffa7b" x="793.8" y="426.709101" style="fill: #ffffff; stroke: #ffffff; stroke-width: 1.125"/>
    </g>
   </g>
   <g id="line2d_36">
    <path d="M 905.4 551.48625 
L 905.4 254.704027 
" clip-path="url(#pc024cbcdf4)" style="fill: none; stroke: #3f3f3f; stroke-width: 1.875; stroke-linecap: square"/>
   </g>
   <g id="line2d_37">
    <path d="M 905.4 463.970203 
L 905.4 377.700583 
" clip-path="url(#pc024cbcdf4)" style="fill: none; stroke: #3f3f3f; stroke-width: 5.625; stroke-linecap: square"/>
   </g>
   <g id="line2d_38">
    <path d="M 905.4 430.63566 
" clip-path="url(#pc024cbcdf4)" style="fill: none; stroke: #3f3f3f; stroke-width: 1.5; stroke-linecap: square"/>
    <g clip-path="url(#pc024cbcdf4)">
     <use xlink:href="#m42e14ffa7b" x="905.4" y="430.63566" style="fill: #ffffff; stroke: #ffffff; stroke-width: 1.125"/>
    </g>
   </g>
   <g id="line2d_39">
    <path d="M 1017 551.48625 
L 1017 262.380258 
" clip-path="url(#pc024cbcdf4)" style="fill: none; stroke: #3f3f3f; stroke-width: 1.875; stroke-linecap: square"/>
   </g>
   <g id="line2d_40">
    <path d="M 1017 472.101082 
L 1017 387.311996 
" clip-path="url(#pc024cbcdf4)" style="fill: none; stroke: #3f3f3f; stroke-width: 5.625; stroke-linecap: square"/>
   </g>
   <g id="line2d_41">
    <path d="M 1017 434.633849 
" clip-path="url(#pc024cbcdf4)" style="fill: none; stroke: #3f3f3f; stroke-width: 1.5; stroke-linecap: square"/>
    <g clip-path="url(#pc024cbcdf4)">
     <use xlink:href="#m42e14ffa7b" x="1017" y="434.633849" style="fill: #ffffff; stroke: #ffffff; stroke-width: 1.125"/>
    </g>
   </g>
   <g id="line2d_42">
    <path d="M 1128.6 551.48625 
L 1128.6 286.613221 
" clip-path="url(#pc024cbcdf4)" style="fill: none; stroke: #3f3f3f; stroke-width: 1.875; stroke-linecap: square"/>
   </g>
   <g id="line2d_43">
    <path d="M 1128.6 472.717084 
L 1128.6 389.905059 
" clip-path="url(#pc024cbcdf4)" style="fill: none; stroke: #3f3f3f; stroke-width: 5.625; stroke-linecap: square"/>
   </g>
   <g id="line2d_44">
    <path d="M 1128.6 435.777961 
" clip-path="url(#pc024cbcdf4)" style="fill: none; stroke: #3f3f3f; stroke-width: 1.5; stroke-linecap: square"/>
    <g clip-path="url(#pc024cbcdf4)">
     <use xlink:href="#m42e14ffa7b" x="1128.6" y="435.777961" style="fill: #ffffff; stroke: #ffffff; stroke-width: 1.125"/>
    </g>
   </g>
   <g id="line2d_45">
    <path d="M 1240.2 543.30106 
L 1240.2 286.613221 
" clip-path="url(#pc024cbcdf4)" style="fill: none; stroke: #3f3f3f; stroke-width: 1.875; stroke-linecap: square"/>
   </g>
   <g id="line2d_46">
    <path d="M 1240.2 473.649735 
L 1240.2 392.369656 
" clip-path="url(#pc024cbcdf4)" style="fill: none; stroke: #3f3f3f; stroke-width: 5.625; stroke-linecap: square"/>
   </g>
   <g id="line2d_47">
    <path d="M 1240.2 437.817452 
" clip-path="url(#pc024cbcdf4)" style="fill: none; stroke: #3f3f3f; stroke-width: 1.5; stroke-linecap: square"/>
    <g clip-path="url(#pc024cbcdf4)">
     <use xlink:href="#m42e14ffa7b" x="1240.2" y="437.817452" style="fill: #ffffff; stroke: #ffffff; stroke-width: 1.125"/>
    </g>
   </g>
   <g id="patch_3">
    <path d="M 180 640.8 
L 180 86.4 
" style="fill: none; stroke: #000000; stroke-width: 0.8; stroke-linejoin: miter; stroke-linecap: square"/>
   </g>
   <g id="patch_4">
    <path d="M 1296 640.8 
L 1296 86.4 
" style="fill: none; stroke: #000000; stroke-width: 0.8; stroke-linejoin: miter; stroke-linecap: square"/>
   </g>
   <g id="patch_5">
    <path d="M 180 640.8 
L 1296 640.8 
" style="fill: none; stroke: #000000; stroke-width: 0.8; stroke-linejoin: miter; stroke-linecap: square"/>
   </g>
   <g id="patch_6">
    <path d="M 180 86.4 
L 1296 86.4 
" style="fill: none; stroke: #000000; stroke-width: 0.8; stroke-linejoin: miter; stroke-linecap: square"/>
   </g>
   <g id="text_20">
    <!-- cosine similarity of max_mem_5_fs_glit (distanceFromInitialPrompt), by iteration -->
    <g transform="translate(497.123438 80.4) scale(0.12 -0.12)">
     <defs>
      <path id="DejaVuSans-66" d="M 2375 4863 
L 2375 4384 
L 1825 4384 
Q 1516 4384 1395 4259 
Q 1275 4134 1275 3809 
L 1275 3500 
L 2222 3500 
L 2222 3053 
L 1275 3053 
L 1275 0 
L 697 0 
L 697 3053 
L 147 3053 
L 147 3500 
L 697 3500 
L 697 3744 
Q 697 4328 969 4595 
Q 1241 4863 1831 4863 
L 2375 4863 
z
" transform="scale(0.015625)"/>
      <path id="DejaVuSans-78" d="M 3513 3500 
L 2247 1797 
L 3578 0 
L 2900 0 
L 1881 1375 
L 863 0 
L 184 0 
L 1544 1831 
L 300 3500 
L 978 3500 
L 1906 2253 
L 2834 3500 
L 3513 3500 
z
" transform="scale(0.015625)"/>
      <path id="DejaVuSans-5f" d="M 3263 -1063 
L 3263 -1509 
L -63 -1509 
L -63 -1063 
L 3263 -1063 
z
" transform="scale(0.015625)"/>
      <path id="DejaVuSans-67" d="M 2906 1791 
Q 2906 2416 2648 2759 
Q 2391 3103 1925 3103 
Q 1463 3103 1205 2759 
Q 947 2416 947 1791 
Q 947 1169 1205 825 
Q 1463 481 1925 481 
Q 2391 481 2648 825 
Q 2906 1169 2906 1791 
z
M 3481 434 
Q 3481 -459 3084 -895 
Q 2688 -1331 1869 -1331 
Q 1566 -1331 1297 -1286 
Q 1028 -1241 775 -1147 
L 775 -588 
Q 1028 -725 1275 -790 
Q 1522 -856 1778 -856 
Q 2344 -856 2625 -561 
Q 2906 -266 2906 331 
L 2906 616 
Q 2728 306 2450 153 
Q 2172 0 1784 0 
Q 1141 0 747 490 
Q 353 981 353 1791 
Q 353 2603 747 3093 
Q 1141 3584 1784 3584 
Q 2172 3584 2450 3431 
Q 2728 3278 2906 2969 
L 2906 3500 
L 3481 3500 
L 3481 434 
z
" transform="scale(0.015625)"/>
      <path id="DejaVuSans-28" d="M 1984 4856 
Q 1566 4138 1362 3434 
Q 1159 2731 1159 2009 
Q 1159 1288 1364 580 
Q 1569 -128 1984 -844 
L 1484 -844 
Q 1016 -109 783 600 
Q 550 1309 550 2009 
Q 550 2706 781 3412 
Q 1013 4119 1484 4856 
L 1984 4856 
z
" transform="scale(0.015625)"/>
      <path id="DejaVuSans-64" d="M 2906 2969 
L 2906 4863 
L 3481 4863 
L 3481 0 
L 2906 0 
L 2906 525 
Q 2725 213 2448 61 
Q 2172 -91 1784 -91 
Q 1150 -91 751 415 
Q 353 922 353 1747 
Q 353 2572 751 3078 
Q 1150 3584 1784 3584 
Q 2172 3584 2448 3432 
Q 2725 3281 2906 2969 
z
M 947 1747 
Q 947 1113 1208 752 
Q 1469 391 1925 391 
Q 2381 391 2643 752 
Q 2906 1113 2906 1747 
Q 2906 2381 2643 2742 
Q 2381 3103 1925 3103 
Q 1469 3103 1208 2742 
Q 947 2381 947 1747 
z
" transform="scale(0.015625)"/>
      <path id="DejaVuSans-46" d="M 628 4666 
L 3309 4666 
L 3309 4134 
L 1259 4134 
L 1259 2759 
L 3109 2759 
L 3109 2228 
L 1259 2228 
L 1259 0 
L 628 0 
L 628 4666 
z
" transform="scale(0.015625)"/>
      <path id="DejaVuSans-49" d="M 628 4666 
L 1259 4666 
L 1259 0 
L 628 0 
L 628 4666 
z
" transform="scale(0.015625)"/>
      <path id="DejaVuSans-50" d="M 1259 4147 
L 1259 2394 
L 2053 2394 
Q 2494 2394 2734 2622 
Q 2975 2850 2975 3272 
Q 2975 3691 2734 3919 
Q 2494 4147 2053 4147 
L 1259 4147 
z
M 628 4666 
L 2053 4666 
Q 2838 4666 3239 4311 
Q 3641 3956 3641 3272 
Q 3641 2581 3239 2228 
Q 2838 1875 2053 1875 
L 1259 1875 
L 1259 0 
L 628 0 
L 628 4666 
z
" transform="scale(0.015625)"/>
      <path id="DejaVuSans-70" d="M 1159 525 
L 1159 -1331 
L 581 -1331 
L 581 3500 
L 1159 3500 
L 1159 2969 
Q 1341 3281 1617 3432 
Q 1894 3584 2278 3584 
Q 2916 3584 3314 3078 
Q 3713 2572 3713 1747 
Q 3713 922 3314 415 
Q 2916 -91 2278 -91 
Q 1894 -91 1617 61 
Q 1341 213 1159 525 
z
M 3116 1747 
Q 3116 2381 2855 2742 
Q 2594 3103 2138 3103 
Q 1681 3103 1420 2742 
Q 1159 2381 1159 1747 
Q 1159 1113 1420 752 
Q 1681 391 2138 391 
Q 2594 391 2855 752 
Q 3116 1113 3116 1747 
z
" transform="scale(0.015625)"/>
      <path id="DejaVuSans-29" d="M 513 4856 
L 1013 4856 
Q 1481 4119 1714 3412 
Q 1947 2706 1947 2009 
Q 1947 1309 1714 600 
Q 1481 -109 1013 -844 
L 513 -844 
Q 928 -128 1133 580 
Q 1338 1288 1338 2009 
Q 1338 2731 1133 3434 
Q 928 4138 513 4856 
z
" transform="scale(0.015625)"/>
      <path id="DejaVuSans-2c" d="M 750 794 
L 1409 794 
L 1409 256 
L 897 -744 
L 494 -744 
L 750 256 
L 750 794 
z
" transform="scale(0.015625)"/>
      <path id="DejaVuSans-62" d="M 3116 1747 
Q 3116 2381 2855 2742 
Q 2594 3103 2138 3103 
Q 1681 3103 1420 2742 
Q 1159 2381 1159 1747 
Q 1159 1113 1420 752 
Q 1681 391 2138 391 
Q 2594 391 2855 752 
Q 3116 1113 3116 1747 
z
M 1159 2969 
Q 1341 3281 1617 3432 
Q 1894 3584 2278 3584 
Q 2916 3584 3314 3078 
Q 3713 2572 3713 1747 
Q 3713 922 3314 415 
Q 2916 -91 2278 -91 
Q 1894 -91 1617 61 
Q 1341 213 1159 525 
L 1159 0 
L 581 0 
L 581 4863 
L 1159 4863 
L 1159 2969 
z
" transform="scale(0.015625)"/>
     </defs>
     <use xlink:href="#DejaVuSans-63"/>
     <use xlink:href="#DejaVuSans-6f" x="54.980469"/>
     <use xlink:href="#DejaVuSans-73" x="116.162109"/>
     <use xlink:href="#DejaVuSans-69" x="168.261719"/>
     <use xlink:href="#DejaVuSans-6e" x="196.044922"/>
     <use xlink:href="#DejaVuSans-65" x="259.423828"/>
     <use xlink:href="#DejaVuSans-20" x="320.947266"/>
     <use xlink:href="#DejaVuSans-73" x="352.734375"/>
     <use xlink:href="#DejaVuSans-69" x="404.833984"/>
     <use xlink:href="#DejaVuSans-6d" x="432.617188"/>
     <use xlink:href="#DejaVuSans-69" x="530.029297"/>
     <use xlink:href="#DejaVuSans-6c" x="557.8125"/>
     <use xlink:href="#DejaVuSans-61" x="585.595703"/>
     <use xlink:href="#DejaVuSans-72" x="646.875"/>
     <use xlink:href="#DejaVuSans-69" x="687.988281"/>
     <use xlink:href="#DejaVuSans-74" x="715.771484"/>
     <use xlink:href="#DejaVuSans-79" x="754.980469"/>
     <use xlink:href="#DejaVuSans-20" x="814.160156"/>
     <use xlink:href="#DejaVuSans-6f" x="845.947266"/>
     <use xlink:href="#DejaVuSans-66" x="907.128906"/>
     <use xlink:href="#DejaVuSans-20" x="942.333984"/>
     <use xlink:href="#DejaVuSans-6d" x="974.121094"/>
     <use xlink:href="#DejaVuSans-61" x="1071.533203"/>
     <use xlink:href="#DejaVuSans-78" x="1132.8125"/>
     <use xlink:href="#DejaVuSans-5f" x="1191.992188"/>
     <use xlink:href="#DejaVuSans-6d" x="1241.992188"/>
     <use xlink:href="#DejaVuSans-65" x="1339.404297"/>
     <use xlink:href="#DejaVuSans-6d" x="1400.927734"/>
     <use xlink:href="#DejaVuSans-5f" x="1498.339844"/>
     <use xlink:href="#DejaVuSans-35" x="1548.339844"/>
     <use xlink:href="#DejaVuSans-5f" x="1611.962891"/>
     <use xlink:href="#DejaVuSans-66" x="1661.962891"/>
     <use xlink:href="#DejaVuSans-73" x="1697.167969"/>
     <use xlink:href="#DejaVuSans-5f" x="1749.267578"/>
     <use xlink:href="#DejaVuSans-67" x="1799.267578"/>
     <use xlink:href="#DejaVuSans-6c" x="1862.744141"/>
     <use xlink:href="#DejaVuSans-69" x="1890.527344"/>
     <use xlink:href="#DejaVuSans-74" x="1918.310547"/>
     <use xlink:href="#DejaVuSans-20" x="1957.519531"/>
     <use xlink:href="#DejaVuSans-28" x="1989.306641"/>
     <use xlink:href="#DejaVuSans-64" x="2028.320312"/>
     <use xlink:href="#DejaVuSans-69" x="2091.796875"/>
     <use xlink:href="#DejaVuSans-73" x="2119.580078"/>
     <use xlink:href="#DejaVuSans-74" x="2171.679688"/>
     <use xlink:href="#DejaVuSans-61" x="2210.888672"/>
     <use xlink:href="#DejaVuSans-6e" x="2272.167969"/>
     <use xlink:href="#DejaVuSans-63" x="2335.546875"/>
     <use xlink:href="#DejaVuSans-65" x="2390.527344"/>
     <use xlink:href="#DejaVuSans-46" x="2452.050781"/>
     <use xlink:href="#DejaVuSans-72" x="2502.320312"/>
     <use xlink:href="#DejaVuSans-6f" x="2541.183594"/>
     <use xlink:href="#DejaVuSans-6d" x="2602.365234"/>
     <use xlink:href="#DejaVuSans-49" x="2699.777344"/>
     <use xlink:href="#DejaVuSans-6e" x="2729.269531"/>
     <use xlink:href="#DejaVuSans-69" x="2792.648438"/>
     <use xlink:href="#DejaVuSans-74" x="2820.431641"/>
     <use xlink:href="#DejaVuSans-69" x="2859.640625"/>
     <use xlink:href="#DejaVuSans-61" x="2887.423828"/>
     <use xlink:href="#DejaVuSans-6c" x="2948.703125"/>
     <use xlink:href="#DejaVuSans-50" x="2976.486328"/>
     <use xlink:href="#DejaVuSans-72" x="3035.039062"/>
     <use xlink:href="#DejaVuSans-6f" x="3073.902344"/>
     <use xlink:href="#DejaVuSans-6d" x="3135.083984"/>
     <use xlink:href="#DejaVuSans-70" x="3232.496094"/>
     <use xlink:href="#DejaVuSans-74" x="3295.972656"/>
     <use xlink:href="#DejaVuSans-29" x="3335.181641"/>
     <use xlink:href="#DejaVuSans-2c" x="3374.195312"/>
     <use xlink:href="#DejaVuSans-20" x="3405.982422"/>
     <use xlink:href="#DejaVuSans-62" x="3437.769531"/>
     <use xlink:href="#DejaVuSans-79" x="3501.246094"/>
     <use xlink:href="#DejaVuSans-20" x="3560.425781"/>
     <use xlink:href="#DejaVuSans-69" x="3592.212891"/>
     <use xlink:href="#DejaVuSans-74" x="3619.996094"/>
     <use xlink:href="#DejaVuSans-65" x="3659.205078"/>
     <use xlink:href="#DejaVuSans-72" x="3720.728516"/>
     <use xlink:href="#DejaVuSans-61" x="3761.841797"/>
     <use xlink:href="#DejaVuSans-74" x="3823.121094"/>
     <use xlink:href="#DejaVuSans-69" x="3862.330078"/>
     <use xlink:href="#DejaVuSans-6f" x="3890.113281"/>
     <use xlink:href="#DejaVuSans-6e" x="3951.294922"/>
    </g>
   </g>
  </g>
 </g>
 <defs>
  <clipPath id="pc024cbcdf4">
   <rect x="180" y="86.4" width="1116" height="554.4"/>
  </clipPath>
 </defs>
</svg>
