<?xml version="1.0" encoding="utf-8" standalone="no"?>
<!DOCTYPE svg PUBLIC "-//W3C//DTD SVG 1.1//EN"
  "http://www.w3.org/Graphics/SVG/1.1/DTD/svg11.dtd">
<svg xmlns:xlink="http://www.w3.org/1999/xlink" width="1440pt" height="720pt" viewBox="0 0 1440 720" xmlns="http://www.w3.org/2000/svg" version="1.1">
 <metadata>
  <rdf:RDF xmlns:dc="http://purl.org/dc/elements/1.1/" xmlns:cc="http://creativecommons.org/ns#" xmlns:rdf="http://www.w3.org/1999/02/22-rdf-syntax-ns#">
   <cc:Work>
    <dc:type rdf:resource="http://purl.org/dc/dcmitype/StillImage"/>
    <dc:date>2024-06-06T21:14:17.429842</dc:date>
    <dc:format>image/svg+xml</dc:format>
    <dc:creator>
     <cc:Agent>
      <dc:title>Matplotlib v3.8.0, https://matplotlib.org/</dc:title>
     </cc:Agent>
    </dc:creator>
   </cc:Work>
  </rdf:RDF>
 </metadata>
 <defs>
  <style type="text/css">*{stroke-linejoin: round; stroke-linecap: butt}</style>
 </defs>
 <g id="figure_1">
  <g id="patch_1">
   <path d="M 0 720 
L 1440 720 
L 1440 0 
L 0 0 
z
" style="fill: #ffffff"/>
  </g>
  <g id="axes_1">
   <g id="patch_2">
    <path d="M 180 640.8 
L 1296 640.8 
L 1296 86.4 
L 180 86.4 
z
" style="fill: #ffffff"/>
   </g>
   <g id="PolyCollection_1">
    <defs>
     <path id="mcf4f3012e8" d="M 236.602395 -134.896961 
L 234.997605 -134.896961 
L 234.668959 -137.379974 
L 234.239654 -139.862987 
L 233.692572 -142.346 
L 233.012421 -144.829014 
L 232.18741 -147.312027 
L 231.210932 -149.79504 
L 230.083012 -152.278054 
L 228.811268 -154.761067 
L 227.41118 -157.24408 
L 225.90554 -159.727093 
L 224.323061 -162.210107 
L 222.69626 -164.69312 
L 221.058876 -167.176133 
L 219.443125 -169.659147 
L 217.877201 -172.14216 
L 216.383321 -174.625173 
L 214.976592 -177.108187 
L 213.664817 -179.5912 
L 212.449193 -182.074213 
L 211.325766 -184.557226 
L 210.287356 -187.04024 
L 209.325645 -189.523253 
L 208.43313 -192.006266 
L 207.604667 -194.48928 
L 206.838449 -196.972293 
L 206.136337 -199.455306 
L 205.503569 -201.938319 
L 204.947949 -204.421333 
L 204.478662 -206.904346 
L 204.104904 -209.387359 
L 203.834507 -211.870373 
L 203.672729 -214.353386 
L 203.621358 -216.836399 
L 203.678234 -219.319412 
L 203.837253 -221.802426 
L 204.088863 -224.285439 
L 204.420998 -226.768452 
L 204.820341 -229.251466 
L 205.27376 -231.734479 
L 205.76972 -234.217492 
L 206.299486 -236.700505 
L 206.857925 -239.183519 
L 207.443824 -241.666532 
L 208.059661 -244.149545 
L 208.7109 -246.632559 
L 209.404905 -249.115572 
L 210.149663 -251.598585 
L 210.952464 -254.081598 
L 211.818724 -256.564612 
L 212.751042 -259.047625 
L 213.748558 -261.530638 
L 214.806613 -264.013652 
L 215.916708 -266.496665 
L 217.066691 -268.979678 
L 218.24118 -271.462691 
L 219.42219 -273.945705 
L 220.58997 -276.428718 
L 221.724053 -278.911731 
L 222.804501 -281.394745 
L 223.813277 -283.877758 
L 224.735649 -286.360771 
L 225.561473 -288.843784 
L 226.28618 -291.326798 
L 226.911316 -293.809811 
L 227.444489 -296.292824 
L 227.898693 -298.775838 
L 228.291028 -301.258851 
L 228.640952 -303.741864 
L 228.968264 -306.224877 
L 229.291067 -308.707891 
L 229.623979 -311.190904 
L 229.976816 -313.673917 
L 230.353903 -316.156931 
L 230.754093 -318.639944 
L 231.171455 -321.122957 
L 231.596503 -323.605971 
L 232.017779 -326.088984 
L 232.423536 -328.571997 
L 232.803301 -331.05501 
L 233.149097 -333.538024 
L 233.456198 -336.021037 
L 233.723355 -338.50405 
L 233.952517 -340.987064 
L 234.148149 -343.470077 
L 234.316298 -345.95309 
L 234.463581 -348.436103 
L 234.596246 -350.919117 
L 234.719453 -353.40213 
L 234.836838 -355.885143 
L 234.950381 -358.368157 
L 235.060545 -360.85117 
L 235.166615 -363.334183 
L 235.267144 -365.817196 
L 235.360412 -368.30021 
L 235.444824 -370.783223 
L 235.519198 -373.266236 
L 235.582923 -375.74925 
L 235.635995 -378.232263 
L 235.678951 -380.715276 
L 235.921049 -380.715276 
L 235.921049 -380.715276 
L 235.964005 -378.232263 
L 236.017077 -375.74925 
L 236.080802 -373.266236 
L 236.155176 -370.783223 
L 236.239588 -368.30021 
L 236.332856 -365.817196 
L 236.433385 -363.334183 
L 236.539455 -360.85117 
L 236.649619 -358.368157 
L 236.763162 -355.885143 
L 236.880547 -353.40213 
L 237.003754 -350.919117 
L 237.136419 -348.436103 
L 237.283702 -345.95309 
L 237.451851 -343.470077 
L 237.647483 -340.987064 
L 237.876645 -338.50405 
L 238.143802 -336.021037 
L 238.450903 -333.538024 
L 238.796699 -331.05501 
L 239.176464 -328.571997 
L 239.582221 -326.088984 
L 240.003497 -323.605971 
L 240.428545 -321.122957 
L 240.845907 -318.639944 
L 241.246097 -316.156931 
L 241.623184 -313.673917 
L 241.976021 -311.190904 
L 242.308933 -308.707891 
L 242.631736 -306.224877 
L 242.959048 -303.741864 
L 243.308972 -301.258851 
L 243.701307 -298.775838 
L 244.155511 -296.292824 
L 244.688684 -293.809811 
L 245.31382 -291.326798 
L 246.038527 -288.843784 
L 246.864351 -286.360771 
L 247.786723 -283.877758 
L 248.795499 -281.394745 
L 249.875947 -278.911731 
L 251.01003 -276.428718 
L 252.17781 -273.945705 
L 253.35882 -271.462691 
L 254.533309 -268.979678 
L 255.683292 -266.496665 
L 256.793387 -264.013652 
L 257.851442 -261.530638 
L 258.848958 -259.047625 
L 259.781276 -256.564612 
L 260.647536 -254.081598 
L 261.450337 -251.598585 
L 262.195095 -249.115572 
L 262.8891 -246.632559 
L 263.540339 -244.149545 
L 264.156176 -241.666532 
L 264.742075 -239.183519 
L 265.300514 -236.700505 
L 265.83028 -234.217492 
L 266.32624 -231.734479 
L 266.779659 -229.251466 
L 267.179002 -226.768452 
L 267.511137 -224.285439 
L 267.762747 -221.802426 
L 267.921766 -219.319412 
L 267.978642 -216.836399 
L 267.927271 -214.353386 
L 267.765493 -211.870373 
L 267.495096 -209.387359 
L 267.121338 -206.904346 
L 266.652051 -204.421333 
L 266.096431 -201.938319 
L 265.463663 -199.455306 
L 264.761551 -196.972293 
L 263.995333 -194.48928 
L 263.16687 -192.006266 
L 262.274355 -189.523253 
L 261.312644 -187.04024 
L 260.274234 -184.557226 
L 259.150807 -182.074213 
L 257.935183 -179.5912 
L 256.623408 -177.108187 
L 255.216679 -174.625173 
L 253.722799 -172.14216 
L 252.156875 -169.659147 
L 250.541124 -167.176133 
L 248.90374 -164.69312 
L 247.276939 -162.210107 
L 245.69446 -159.727093 
L 244.18882 -157.24408 
L 242.788732 -154.761067 
L 241.516988 -152.278054 
L 240.389068 -149.79504 
L 239.41259 -147.312027 
L 238.587579 -144.829014 
L 237.907428 -142.346 
L 237.360346 -139.862987 
L 236.931041 -137.379974 
L 236.602395 -134.896961 
z
" style="stroke: #3f3f3f; stroke-width: 1.25"/>
    </defs>
    <g clip-path="url(#pfab8a257af)">
     <use xlink:href="#mcf4f3012e8" x="0" y="720" style="fill: #3274a1; stroke: #3f3f3f; stroke-width: 1.25"/>
    </g>
   </g>
   <g id="PolyCollection_2">
    <defs>
     <path id="mb9a294115c" d="M 347.623682 -104.4 
L 347.176318 -104.4 
L 347.115041 -109.490909 
L 347.041714 -114.581818 
L 346.955344 -119.672727 
L 346.855211 -124.763636 
L 346.740963 -129.854545 
L 346.612686 -134.945455 
L 346.470964 -140.036364 
L 346.316903 -145.127273 
L 346.15213 -150.218182 
L 345.978739 -155.309091 
L 345.79921 -160.4 
L 345.616287 -165.490909 
L 345.43282 -170.581818 
L 345.251604 -175.672727 
L 345.0752 -180.763636 
L 344.905779 -185.854545 
L 344.744982 -190.945455 
L 344.593827 -196.036364 
L 344.452658 -201.127273 
L 344.321149 -206.218182 
L 344.198354 -211.309091 
L 344.082802 -216.4 
L 343.972626 -221.490909 
L 343.865707 -226.581818 
L 343.759822 -231.672727 
L 343.652786 -236.763636 
L 343.542558 -241.854545 
L 343.427327 -246.945455 
L 343.305555 -252.036364 
L 343.175983 -257.127273 
L 343.037603 -262.218182 
L 342.889619 -267.309091 
L 342.73138 -272.4 
L 342.562327 -277.490909 
L 342.381943 -282.581818 
L 342.189724 -287.672727 
L 341.985179 -292.763636 
L 341.767847 -297.854545 
L 341.53734 -302.945455 
L 341.29339 -308.036364 
L 341.035905 -313.127273 
L 340.765007 -318.218182 
L 340.481048 -323.309091 
L 340.184596 -328.4 
L 339.876392 -333.490909 
L 339.557278 -338.581818 
L 339.228102 -343.672727 
L 338.889622 -348.763636 
L 338.542424 -353.854545 
L 338.186863 -358.945455 
L 337.823053 -364.036364 
L 337.450907 -369.127273 
L 337.070233 -374.218182 
L 336.680874 -379.309091 
L 336.282892 -384.4 
L 335.87676 -389.490909 
L 335.463558 -394.581818 
L 335.045148 -399.672727 
L 334.624292 -404.763636 
L 334.204737 -409.854545 
L 333.791219 -414.945455 
L 333.389419 -420.036364 
L 333.005861 -425.127273 
L 332.647762 -430.218182 
L 332.32285 -435.309091 
L 332.039158 -440.4 
L 331.804806 -445.490909 
L 331.627772 -450.581818 
L 331.515654 -455.672727 
L 331.475433 -460.763636 
L 331.513228 -465.854545 
L 331.634041 -470.945455 
L 331.841517 -476.036364 
L 332.137696 -481.127273 
L 332.522801 -486.218182 
L 332.995061 -491.309091 
L 333.550592 -496.4 
L 334.183358 -501.490909 
L 334.88523 -506.581818 
L 335.646143 -511.672727 
L 336.454368 -516.763636 
L 337.296882 -521.854545 
L 338.159823 -526.945455 
L 339.029003 -532.036364 
L 339.890451 -537.127273 
L 340.730939 -542.218182 
L 341.538474 -547.309091 
L 342.302707 -552.4 
L 343.015239 -557.490909 
L 343.669809 -562.581818 
L 344.262363 -567.672727 
L 344.790995 -572.763636 
L 345.255787 -577.854545 
L 345.658565 -582.945455 
L 346.002588 -588.036364 
L 346.292214 -593.127273 
L 346.532554 -598.218182 
L 346.729143 -603.309091 
L 346.887649 -608.4 
L 347.912351 -608.4 
L 347.912351 -608.4 
L 348.070857 -603.309091 
L 348.267446 -598.218182 
L 348.507786 -593.127273 
L 348.797412 -588.036364 
L 349.141435 -582.945455 
L 349.544213 -577.854545 
L 350.009005 -572.763636 
L 350.537637 -567.672727 
L 351.130191 -562.581818 
L 351.784761 -557.490909 
L 352.497293 -552.4 
L 353.261526 -547.309091 
L 354.069061 -542.218182 
L 354.909549 -537.127273 
L 355.770997 -532.036364 
L 356.640177 -526.945455 
L 357.503118 -521.854545 
L 358.345632 -516.763636 
L 359.153857 -511.672727 
L 359.91477 -506.581818 
L 360.616642 -501.490909 
L 361.249408 -496.4 
L 361.804939 -491.309091 
L 362.277199 -486.218182 
L 362.662304 -481.127273 
L 362.958483 -476.036364 
L 363.165959 -470.945455 
L 363.286772 -465.854545 
L 363.324567 -460.763636 
L 363.284346 -455.672727 
L 363.172228 -450.581818 
L 362.995194 -445.490909 
L 362.760842 -440.4 
L 362.47715 -435.309091 
L 362.152238 -430.218182 
L 361.794139 -425.127273 
L 361.410581 -420.036364 
L 361.008781 -414.945455 
L 360.595263 -409.854545 
L 360.175708 -404.763636 
L 359.754852 -399.672727 
L 359.336442 -394.581818 
L 358.92324 -389.490909 
L 358.517108 -384.4 
L 358.119126 -379.309091 
L 357.729767 -374.218182 
L 357.349093 -369.127273 
L 356.976947 -364.036364 
L 356.613137 -358.945455 
L 356.257576 -353.854545 
L 355.910378 -348.763636 
L 355.571898 -343.672727 
L 355.242722 -338.581818 
L 354.923608 -333.490909 
L 354.615404 -328.4 
L 354.318952 -323.309091 
L 354.034993 -318.218182 
L 353.764095 -313.127273 
L 353.50661 -308.036364 
L 353.26266 -302.945455 
L 353.032153 -297.854545 
L 352.814821 -292.763636 
L 352.610276 -287.672727 
L 352.418057 -282.581818 
L 352.237673 -277.490909 
L 352.06862 -272.4 
L 351.910381 -267.309091 
L 351.762397 -262.218182 
L 351.624017 -257.127273 
L 351.494445 -252.036364 
L 351.372673 -246.945455 
L 351.257442 -241.854545 
L 351.147214 -236.763636 
L 351.040178 -231.672727 
L 350.934293 -226.581818 
L 350.827374 -221.490909 
L 350.717198 -216.4 
L 350.601646 -211.309091 
L 350.478851 -206.218182 
L 350.347342 -201.127273 
L 350.206173 -196.036364 
L 350.055018 -190.945455 
L 349.894221 -185.854545 
L 349.7248 -180.763636 
L 349.548396 -175.672727 
L 349.36718 -170.581818 
L 349.183713 -165.490909 
L 349.00079 -160.4 
L 348.821261 -155.309091 
L 348.64787 -150.218182 
L 348.483097 -145.127273 
L 348.329036 -140.036364 
L 348.187314 -134.945455 
L 348.059037 -129.854545 
L 347.944789 -124.763636 
L 347.844656 -119.672727 
L 347.758286 -114.581818 
L 347.684959 -109.490909 
L 347.623682 -104.4 
z
" style="stroke: #3f3f3f; stroke-width: 1.25"/>
    </defs>
    <g clip-path="url(#pfab8a257af)">
     <use xlink:href="#mb9a294115c" x="0" y="720" style="fill: #3274a1; stroke: #3f3f3f; stroke-width: 1.25"/>
    </g>
   </g>
   <g id="PolyCollection_3">
    <defs>
     <path id="m0075195fc6" d="M 459.463494 -228.454845 
L 458.536506 -228.454845 
L 458.429718 -232.230056 
L 458.304499 -236.005268 
L 458.159242 -239.78048 
L 457.99257 -243.555692 
L 457.803442 -247.330903 
L 457.591255 -251.106115 
L 457.355941 -254.881327 
L 457.098065 -258.656538 
L 456.818902 -262.43175 
L 456.520486 -266.206962 
L 456.205645 -269.982174 
L 455.877981 -273.757385 
L 455.541826 -277.532597 
L 455.202143 -281.307809 
L 454.864389 -285.08302 
L 454.534336 -288.858232 
L 454.217853 -292.633444 
L 453.920668 -296.408656 
L 453.648103 -300.183867 
L 453.404814 -303.959079 
L 453.194536 -307.734291 
L 453.019859 -311.509503 
L 452.882038 -315.284714 
L 452.780859 -319.059926 
L 452.714566 -322.835138 
L 452.679855 -326.610349 
L 452.671948 -330.385561 
L 452.684726 -334.160773 
L 452.710937 -337.935985 
L 452.742453 -341.711196 
L 452.770579 -345.486408 
L 452.786378 -349.26162 
L 452.781016 -353.036832 
L 452.746101 -356.812043 
L 452.673993 -360.587255 
L 452.558084 -364.362467 
L 452.393023 -368.137678 
L 452.174885 -371.91289 
L 451.901278 -375.688102 
L 451.571375 -379.463314 
L 451.185892 -383.238525 
L 450.747001 -387.013737 
L 450.258193 -390.788949 
L 449.724102 -394.564161 
L 449.150296 -398.339372 
L 448.543054 -402.114584 
L 447.909139 -405.889796 
L 447.255581 -409.665007 
L 446.58947 -413.440219 
L 445.917783 -417.215431 
L 445.247242 -420.990643 
L 444.584211 -424.765854 
L 443.934626 -428.541066 
L 443.303973 -432.316278 
L 442.697293 -436.09149 
L 442.119223 -439.866701 
L 441.574057 -443.641913 
L 441.065824 -447.417125 
L 440.598371 -451.192336 
L 440.175451 -454.967548 
L 439.800785 -458.74276 
L 439.478118 -462.517972 
L 439.211241 -466.293183 
L 439.003979 -470.068395 
L 438.860154 -473.843607 
L 438.783501 -477.618819 
L 438.777559 -481.39403 
L 438.845526 -485.169242 
L 438.990103 -488.944454 
L 439.213316 -492.719665 
L 439.516339 -496.494877 
L 439.899332 -500.270089 
L 440.361294 -504.045301 
L 440.899952 -507.820512 
L 441.511691 -511.595724 
L 442.19154 -515.370936 
L 442.933198 -519.146148 
L 443.729135 -522.921359 
L 444.570732 -526.696571 
L 445.448481 -530.471783 
L 446.352217 -534.246994 
L 447.271389 -538.022206 
L 448.195344 -541.797418 
L 449.113621 -545.57263 
L 450.016225 -549.347841 
L 450.893889 -553.123053 
L 451.738299 -556.898265 
L 452.542274 -560.673477 
L 453.299895 -564.448688 
L 454.006586 -568.2239 
L 454.659136 -571.999112 
L 455.255671 -575.774323 
L 455.795585 -579.549535 
L 456.279424 -583.324747 
L 456.708746 -587.099959 
L 457.085962 -590.87517 
L 457.414156 -594.650382 
L 457.696918 -598.425594 
L 457.938169 -602.200806 
L 460.061831 -602.200806 
L 460.061831 -602.200806 
L 460.303082 -598.425594 
L 460.585844 -594.650382 
L 460.914038 -590.87517 
L 461.291254 -587.099959 
L 461.720576 -583.324747 
L 462.204415 -579.549535 
L 462.744329 -575.774323 
L 463.340864 -571.999112 
L 463.993414 -568.2239 
L 464.700105 -564.448688 
L 465.457726 -560.673477 
L 466.261701 -556.898265 
L 467.106111 -553.123053 
L 467.983775 -549.347841 
L 468.886379 -545.57263 
L 469.804656 -541.797418 
L 470.728611 -538.022206 
L 471.647783 -534.246994 
L 472.551519 -530.471783 
L 473.429268 -526.696571 
L 474.270865 -522.921359 
L 475.066802 -519.146148 
L 475.80846 -515.370936 
L 476.488309 -511.595724 
L 477.100048 -507.820512 
L 477.638706 -504.045301 
L 478.100668 -500.270089 
L 478.483661 -496.494877 
L 478.786684 -492.719665 
L 479.009897 -488.944454 
L 479.154474 -485.169242 
L 479.222441 -481.39403 
L 479.216499 -477.618819 
L 479.139846 -473.843607 
L 478.996021 -470.068395 
L 478.788759 -466.293183 
L 478.521882 -462.517972 
L 478.199215 -458.74276 
L 477.824549 -454.967548 
L 477.401629 -451.192336 
L 476.934176 -447.417125 
L 476.425943 -443.641913 
L 475.880777 -439.866701 
L 475.302707 -436.09149 
L 474.696027 -432.316278 
L 474.065374 -428.541066 
L 473.415789 -424.765854 
L 472.752758 -420.990643 
L 472.082217 -417.215431 
L 471.41053 -413.440219 
L 470.744419 -409.665007 
L 470.090861 -405.889796 
L 469.456946 -402.114584 
L 468.849704 -398.339372 
L 468.275898 -394.564161 
L 467.741807 -390.788949 
L 467.252999 -387.013737 
L 466.814108 -383.238525 
L 466.428625 -379.463314 
L 466.098722 -375.688102 
L 465.825115 -371.91289 
L 465.606977 -368.137678 
L 465.441916 -364.362467 
L 465.326007 -360.587255 
L 465.253899 -356.812043 
L 465.218984 -353.036832 
L 465.213622 -349.26162 
L 465.229421 -345.486408 
L 465.257547 -341.711196 
L 465.289063 -337.935985 
L 465.315274 -334.160773 
L 465.328052 -330.385561 
L 465.320145 -326.610349 
L 465.285434 -322.835138 
L 465.219141 -319.059926 
L 465.117962 -315.284714 
L 464.980141 -311.509503 
L 464.805464 -307.734291 
L 464.595186 -303.959079 
L 464.351897 -300.183867 
L 464.079332 -296.408656 
L 463.782147 -292.633444 
L 463.465664 -288.858232 
L 463.135611 -285.08302 
L 462.797857 -281.307809 
L 462.458174 -277.532597 
L 462.122019 -273.757385 
L 461.794355 -269.982174 
L 461.479514 -266.206962 
L 461.181098 -262.43175 
L 460.901935 -258.656538 
L 460.644059 -254.881327 
L 460.408745 -251.106115 
L 460.196558 -247.330903 
L 460.00743 -243.555692 
L 459.840758 -239.78048 
L 459.695501 -236.005268 
L 459.570282 -232.230056 
L 459.463494 -228.454845 
z
" style="stroke: #3f3f3f; stroke-width: 1.25"/>
    </defs>
    <g clip-path="url(#pfab8a257af)">
     <use xlink:href="#m0075195fc6" x="0" y="720" style="fill: #3274a1; stroke: #3f3f3f; stroke-width: 1.25"/>
    </g>
   </g>
   <g id="PolyCollection_4">
    <defs>
     <path id="mf6820c5a06" d="M 570.854378 -188.345198 
L 570.345622 -188.345198 
L 570.284873 -192.552572 
L 570.213438 -196.759947 
L 570.130377 -200.967322 
L 570.034856 -205.174697 
L 569.926192 -209.382071 
L 569.803879 -213.589446 
L 569.66761 -217.796821 
L 569.517295 -222.004196 
L 569.35306 -226.21157 
L 569.175236 -230.418945 
L 568.984337 -234.62632 
L 568.781033 -238.833695 
L 568.566108 -243.041069 
L 568.34042 -247.248444 
L 568.10487 -251.455819 
L 567.860362 -255.663193 
L 567.607793 -259.870568 
L 567.348034 -264.077943 
L 567.081943 -268.285318 
L 566.810379 -272.492692 
L 566.534226 -276.700067 
L 566.254423 -280.907442 
L 565.971986 -285.114817 
L 565.688023 -289.322191 
L 565.403734 -293.529566 
L 565.120378 -297.736941 
L 564.839226 -301.944315 
L 564.56148 -306.15169 
L 564.288169 -310.359065 
L 564.020029 -314.56644 
L 563.757375 -318.773814 
L 563.499973 -322.981189 
L 563.24693 -327.188564 
L 562.996622 -331.395939 
L 562.746657 -335.603313 
L 562.493902 -339.810688 
L 562.234568 -344.018063 
L 561.964369 -348.225438 
L 561.678736 -352.432812 
L 561.373096 -356.640187 
L 561.043181 -360.847562 
L 560.685366 -365.054936 
L 560.297003 -369.262311 
L 559.876721 -373.469686 
L 559.424678 -377.677061 
L 558.94273 -381.884435 
L 558.434504 -386.09181 
L 557.905362 -390.299185 
L 557.362258 -394.50656 
L 556.813473 -398.713934 
L 556.268279 -402.921309 
L 555.736516 -407.128684 
L 555.228138 -411.336058 
L 554.752752 -415.543433 
L 554.319182 -419.750808 
L 553.935088 -423.958183 
L 553.606682 -428.165557 
L 553.338529 -432.372932 
L 553.133479 -436.580307 
L 552.992693 -440.787682 
L 552.915792 -444.995056 
L 552.901074 -449.202431 
L 552.945804 -453.409806 
L 553.046539 -457.617181 
L 553.199455 -461.824555 
L 553.40066 -466.03193 
L 553.646467 -470.239305 
L 553.933597 -474.446679 
L 554.259328 -478.654054 
L 554.621545 -482.861429 
L 555.018729 -487.068804 
L 555.449871 -491.276178 
L 555.914322 -495.483553 
L 556.411607 -499.690928 
L 556.941206 -503.898303 
L 557.502335 -508.105677 
L 558.093731 -512.313052 
L 558.713478 -516.520427 
L 559.358866 -520.727801 
L 560.02632 -524.935176 
L 560.711384 -529.142551 
L 561.40878 -533.349926 
L 562.112521 -537.5573 
L 562.816095 -541.764675 
L 563.512676 -545.97205 
L 564.19538 -550.179425 
L 564.857517 -554.386799 
L 565.492846 -558.594174 
L 566.095805 -562.801549 
L 566.661697 -567.008924 
L 567.186829 -571.216298 
L 567.668601 -575.423673 
L 568.105531 -579.631048 
L 568.497221 -583.838422 
L 568.844287 -588.045797 
L 569.148234 -592.253172 
L 569.411315 -596.460547 
L 569.636363 -600.667921 
L 569.826623 -604.875296 
L 571.373377 -604.875296 
L 571.373377 -604.875296 
L 571.563637 -600.667921 
L 571.788685 -596.460547 
L 572.051766 -592.253172 
L 572.355713 -588.045797 
L 572.702779 -583.838422 
L 573.094469 -579.631048 
L 573.531399 -575.423673 
L 574.013171 -571.216298 
L 574.538303 -567.008924 
L 575.104195 -562.801549 
L 575.707154 -558.594174 
L 576.342483 -554.386799 
L 577.00462 -550.179425 
L 577.687324 -545.97205 
L 578.383905 -541.764675 
L 579.087479 -537.5573 
L 579.79122 -533.349926 
L 580.488616 -529.142551 
L 581.17368 -524.935176 
L 581.841134 -520.727801 
L 582.486522 -516.520427 
L 583.106269 -512.313052 
L 583.697665 -508.105677 
L 584.258794 -503.898303 
L 584.788393 -499.690928 
L 585.285678 -495.483553 
L 585.750129 -491.276178 
L 586.181271 -487.068804 
L 586.578455 -482.861429 
L 586.940672 -478.654054 
L 587.266403 -474.446679 
L 587.553533 -470.239305 
L 587.79934 -466.03193 
L 588.000545 -461.824555 
L 588.153461 -457.617181 
L 588.254196 -453.409806 
L 588.298926 -449.202431 
L 588.284208 -444.995056 
L 588.207307 -440.787682 
L 588.066521 -436.580307 
L 587.861471 -432.372932 
L 587.593318 -428.165557 
L 587.264912 -423.958183 
L 586.880818 -419.750808 
L 586.447248 -415.543433 
L 585.971862 -411.336058 
L 585.463484 -407.128684 
L 584.931721 -402.921309 
L 584.386527 -398.713934 
L 583.837742 -394.50656 
L 583.294638 -390.299185 
L 582.765496 -386.09181 
L 582.25727 -381.884435 
L 581.775322 -377.677061 
L 581.323279 -373.469686 
L 580.902997 -369.262311 
L 580.514634 -365.054936 
L 580.156819 -360.847562 
L 579.826904 -356.640187 
L 579.521264 -352.432812 
L 579.235631 -348.225438 
L 578.965432 -344.018063 
L 578.706098 -339.810688 
L 578.453343 -335.603313 
L 578.203378 -331.395939 
L 577.95307 -327.188564 
L 577.700027 -322.981189 
L 577.442625 -318.773814 
L 577.179971 -314.56644 
L 576.911831 -310.359065 
L 576.63852 -306.15169 
L 576.360774 -301.944315 
L 576.079622 -297.736941 
L 575.796266 -293.529566 
L 575.511977 -289.322191 
L 575.228014 -285.114817 
L 574.945577 -280.907442 
L 574.665774 -276.700067 
L 574.389621 -272.492692 
L 574.118057 -268.285318 
L 573.851966 -264.077943 
L 573.592207 -259.870568 
L 573.339638 -255.663193 
L 573.09513 -251.455819 
L 572.85958 -247.248444 
L 572.633892 -243.041069 
L 572.418967 -238.833695 
L 572.215663 -234.62632 
L 572.024764 -230.418945 
L 571.84694 -226.21157 
L 571.682705 -222.004196 
L 571.53239 -217.796821 
L 571.396121 -213.589446 
L 571.273808 -209.382071 
L 571.165144 -205.174697 
L 571.069623 -200.967322 
L 570.986562 -196.759947 
L 570.915127 -192.552572 
L 570.854378 -188.345198 
z
" style="stroke: #3f3f3f; stroke-width: 1.25"/>
    </defs>
    <g clip-path="url(#pfab8a257af)">
     <use xlink:href="#mf6820c5a06" x="0" y="720" style="fill: #3274a1; stroke: #3f3f3f; stroke-width: 1.25"/>
    </g>
   </g>
   <g id="PolyCollection_5">
    <defs>
     <path id="m7b8732bb26" d="M 682.560848 -234.200912 
L 681.839152 -234.200912 
L 681.746591 -237.649421 
L 681.638116 -241.09793 
L 681.513256 -244.546439 
L 681.372184 -247.994949 
L 681.215845 -251.443458 
L 681.046057 -254.891967 
L 680.86557 -258.340476 
L 680.678057 -261.788986 
L 680.488046 -265.237495 
L 680.300774 -268.686004 
L 680.121967 -272.134513 
L 679.957568 -275.583023 
L 679.813412 -279.031532 
L 679.694887 -282.480041 
L 679.606599 -285.92855 
L 679.552079 -289.377059 
L 679.533537 -292.825569 
L 679.551719 -296.274078 
L 679.605847 -299.722587 
L 679.693663 -303.171096 
L 679.811579 -306.619606 
L 679.954891 -310.068115 
L 680.118071 -313.516624 
L 680.295073 -316.965133 
L 680.479651 -320.413643 
L 680.665643 -323.862152 
L 680.847209 -327.310661 
L 681.018988 -330.75917 
L 681.176186 -334.20768 
L 681.314574 -337.656189 
L 681.430411 -341.104698 
L 681.520306 -344.553207 
L 681.581035 -348.001717 
L 681.609334 -351.450226 
L 681.601704 -354.898735 
L 681.554235 -358.347244 
L 681.462488 -361.795754 
L 681.321448 -365.244263 
L 681.125562 -368.692772 
L 680.868869 -372.141281 
L 680.545224 -375.58979 
L 680.148613 -379.0383 
L 679.673527 -382.486809 
L 679.115381 -385.935318 
L 678.470946 -389.383827 
L 677.73874 -392.832337 
L 676.919353 -396.280846 
L 676.015665 -399.729355 
L 675.032916 -403.177864 
L 673.978609 -406.626374 
L 672.862251 -410.074883 
L 671.694927 -413.523392 
L 670.488735 -416.971901 
L 669.256139 -420.420411 
L 668.009291 -423.86892 
L 666.759382 -427.317429 
L 665.516106 -430.765938 
L 664.28729 -434.214448 
L 663.078749 -437.662957 
L 661.894395 -441.111466 
L 660.736607 -444.559975 
L 659.606851 -448.008485 
L 658.506489 -451.456994 
L 657.437711 -454.905503 
L 656.404498 -458.354012 
L 655.413496 -461.802522 
L 654.474706 -465.251031 
L 653.601878 -468.69954 
L 652.812532 -472.148049 
L 652.127568 -475.596558 
L 651.570434 -479.045068 
L 651.165911 -482.493577 
L 650.938576 -485.942086 
L 650.911074 -489.390595 
L 651.102328 -492.839105 
L 651.525866 -496.287614 
L 652.188404 -499.736123 
L 653.088835 -503.184632 
L 654.217722 -506.633142 
L 655.557356 -510.081651 
L 657.082381 -513.53016 
L 658.760938 -516.978669 
L 660.556235 -520.427179 
L 662.428416 -523.875688 
L 664.336555 -527.324197 
L 666.240648 -530.772706 
L 668.103425 -534.221216 
L 669.891877 -537.669725 
L 671.578406 -541.118234 
L 673.141544 -544.566743 
L 674.56624 -548.015253 
L 675.843749 -551.463762 
L 676.971166 -554.912271 
L 677.950706 -558.36078 
L 678.788802 -561.809289 
L 679.495118 -565.257799 
L 680.08156 -568.706308 
L 680.561345 -572.154817 
L 680.948181 -575.603326 
L 683.451819 -575.603326 
L 683.451819 -575.603326 
L 683.838655 -572.154817 
L 684.31844 -568.706308 
L 684.904882 -565.257799 
L 685.611198 -561.809289 
L 686.449294 -558.36078 
L 687.428834 -554.912271 
L 688.556251 -551.463762 
L 689.83376 -548.015253 
L 691.258456 -544.566743 
L 692.821594 -541.118234 
L 694.508123 -537.669725 
L 696.296575 -534.221216 
L 698.159352 -530.772706 
L 700.063445 -527.324197 
L 701.971584 -523.875688 
L 703.843765 -520.427179 
L 705.639062 -516.978669 
L 707.317619 -513.53016 
L 708.842644 -510.081651 
L 710.182278 -506.633142 
L 711.311165 -503.184632 
L 712.211596 -499.736123 
L 712.874134 -496.287614 
L 713.297672 -492.839105 
L 713.488926 -489.390595 
L 713.461424 -485.942086 
L 713.234089 -482.493577 
L 712.829566 -479.045068 
L 712.272432 -475.596558 
L 711.587468 -472.148049 
L 710.798122 -468.69954 
L 709.925294 -465.251031 
L 708.986504 -461.802522 
L 707.995502 -458.354012 
L 706.962289 -454.905503 
L 705.893511 -451.456994 
L 704.793149 -448.008485 
L 703.663393 -444.559975 
L 702.505605 -441.111466 
L 701.321251 -437.662957 
L 700.11271 -434.214448 
L 698.883894 -430.765938 
L 697.640618 -427.317429 
L 696.390709 -423.86892 
L 695.143861 -420.420411 
L 693.911265 -416.971901 
L 692.705073 -413.523392 
L 691.537749 -410.074883 
L 690.421391 -406.626374 
L 689.367084 -403.177864 
L 688.384335 -399.729355 
L 687.480647 -396.280846 
L 686.66126 -392.832337 
L 685.929054 -389.383827 
L 685.284619 -385.935318 
L 684.726473 -382.486809 
L 684.251387 -379.0383 
L 683.854776 -375.58979 
L 683.531131 -372.141281 
L 683.274438 -368.692772 
L 683.078552 -365.244263 
L 682.937512 -361.795754 
L 682.845765 -358.347244 
L 682.798296 -354.898735 
L 682.790666 -351.450226 
L 682.818965 -348.001717 
L 682.879694 -344.553207 
L 682.969589 -341.104698 
L 683.085426 -337.656189 
L 683.223814 -334.20768 
L 683.381012 -330.75917 
L 683.552791 -327.310661 
L 683.734357 -323.862152 
L 683.920349 -320.413643 
L 684.104927 -316.965133 
L 684.281929 -313.516624 
L 684.445109 -310.068115 
L 684.588421 -306.619606 
L 684.706337 -303.171096 
L 684.794153 -299.722587 
L 684.848281 -296.274078 
L 684.866463 -292.825569 
L 684.847921 -289.377059 
L 684.793401 -285.92855 
L 684.705113 -282.480041 
L 684.586588 -279.031532 
L 684.442432 -275.583023 
L 684.278033 -272.134513 
L 684.099226 -268.686004 
L 683.911954 -265.237495 
L 683.721943 -261.788986 
L 683.53443 -258.340476 
L 683.353943 -254.891967 
L 683.184155 -251.443458 
L 683.027816 -247.994949 
L 682.886744 -244.546439 
L 682.761884 -241.09793 
L 682.653409 -237.649421 
L 682.560848 -234.200912 
z
" style="stroke: #3f3f3f; stroke-width: 1.25"/>
    </defs>
    <g clip-path="url(#pfab8a257af)">
     <use xlink:href="#m7b8732bb26" x="0" y="720" style="fill: #3274a1; stroke: #3f3f3f; stroke-width: 1.25"/>
    </g>
   </g>
   <g id="PolyCollection_6">
    <defs>
     <path id="mc7d705d2a4" d="M 794.109075 -184.510491 
L 793.490925 -184.510491 
L 793.413158 -188.465638 
L 793.322247 -192.420785 
L 793.217796 -196.375932 
L 793.099921 -200.331079 
L 792.969345 -204.286226 
L 792.827487 -208.241373 
L 792.676504 -212.19652 
L 792.519295 -216.151667 
L 792.359451 -220.106814 
L 792.201144 -224.061961 
L 792.04897 -228.017108 
L 791.907738 -231.972255 
L 791.782218 -235.927402 
L 791.676879 -239.882549 
L 791.595619 -243.837696 
L 791.541522 -247.792843 
L 791.516656 -251.74799 
L 791.521926 -255.703137 
L 791.557007 -259.658284 
L 791.620347 -263.613431 
L 791.709252 -267.568578 
L 791.82003 -271.523725 
L 791.948196 -275.478872 
L 792.088706 -279.434019 
L 792.236205 -283.389166 
L 792.38527 -287.344313 
L 792.530625 -291.29946 
L 792.66732 -295.254607 
L 792.790864 -299.209754 
L 792.89731 -303.164901 
L 792.983288 -307.120048 
L 793.046013 -311.075195 
L 793.083244 -315.030342 
L 793.093243 -318.985489 
L 793.074709 -322.940635 
L 793.026716 -326.895782 
L 792.948646 -330.850929 
L 792.840132 -334.806076 
L 792.700989 -338.761223 
L 792.531146 -342.71637 
L 792.330572 -346.671517 
L 792.099182 -350.626664 
L 791.836734 -354.581811 
L 791.542722 -358.536958 
L 791.216259 -362.492105 
L 790.855975 -366.447252 
L 790.459936 -370.402399 
L 790.025596 -374.357546 
L 789.549809 -378.312693 
L 789.028883 -382.26784 
L 788.458711 -386.222987 
L 787.834953 -390.178134 
L 787.153261 -394.133281 
L 786.409552 -398.088428 
L 785.600286 -402.043575 
L 784.72275 -405.998722 
L 783.775325 -409.953869 
L 782.757735 -413.909016 
L 781.671261 -417.864163 
L 780.518945 -421.81931 
L 779.305769 -425.774457 
L 778.038839 -429.729604 
L 776.727562 -433.684751 
L 775.383823 -437.639898 
L 774.022144 -441.595045 
L 772.659807 -445.550192 
L 771.316883 -449.505339 
L 770.01615 -453.460486 
L 768.782828 -457.415633 
L 767.644101 -461.37078 
L 766.62841 -465.325927 
L 765.764484 -469.281074 
L 765.080178 -473.236221 
L 764.601127 -477.191368 
L 764.349336 -481.146515 
L 764.341786 -485.101662 
L 764.589193 -489.056809 
L 765.095012 -493.011956 
L 765.854814 -496.967103 
L 766.85609 -500.92225 
L 768.078533 -504.877397 
L 769.494799 -508.832544 
L 771.07169 -512.787691 
L 772.771685 -516.742838 
L 774.554707 -520.697985 
L 776.379987 -524.653132 
L 778.207894 -528.608279 
L 780.00161 -532.563426 
L 781.72852 -536.518573 
L 783.361272 -540.47372 
L 784.878434 -544.428867 
L 786.264763 -548.384014 
L 787.511098 -552.339161 
L 788.613933 -556.294308 
L 789.574741 -560.249455 
L 790.399132 -564.204602 
L 791.095922 -568.159748 
L 791.67619 -572.114895 
L 792.152386 -576.070042 
L 795.447614 -576.070042 
L 795.447614 -576.070042 
L 795.92381 -572.114895 
L 796.504078 -568.159748 
L 797.200868 -564.204602 
L 798.025259 -560.249455 
L 798.986067 -556.294308 
L 800.088902 -552.339161 
L 801.335237 -548.384014 
L 802.721566 -544.428867 
L 804.238728 -540.47372 
L 805.87148 -536.518573 
L 807.59839 -532.563426 
L 809.392106 -528.608279 
L 811.220013 -524.653132 
L 813.045293 -520.697985 
L 814.828315 -516.742838 
L 816.52831 -512.787691 
L 818.105201 -508.832544 
L 819.521467 -504.877397 
L 820.74391 -500.92225 
L 821.745186 -496.967103 
L 822.504988 -493.011956 
L 823.010807 -489.056809 
L 823.258214 -485.101662 
L 823.250664 -481.146515 
L 822.998873 -477.191368 
L 822.519822 -473.236221 
L 821.835516 -469.281074 
L 820.97159 -465.325927 
L 819.955899 -461.37078 
L 818.817172 -457.415633 
L 817.58385 -453.460486 
L 816.283117 -449.505339 
L 814.940193 -445.550192 
L 813.577856 -441.595045 
L 812.216177 -437.639898 
L 810.872438 -433.684751 
L 809.561161 -429.729604 
L 808.294231 -425.774457 
L 807.081055 -421.81931 
L 805.928739 -417.864163 
L 804.842265 -413.909016 
L 803.824675 -409.953869 
L 802.87725 -405.998722 
L 801.999714 -402.043575 
L 801.190448 -398.088428 
L 800.446739 -394.133281 
L 799.765047 -390.178134 
L 799.141289 -386.222987 
L 798.571117 -382.26784 
L 798.050191 -378.312693 
L 797.574404 -374.357546 
L 797.140064 -370.402399 
L 796.744025 -366.447252 
L 796.383741 -362.492105 
L 796.057278 -358.536958 
L 795.763266 -354.581811 
L 795.500818 -350.626664 
L 795.269428 -346.671517 
L 795.068854 -342.71637 
L 794.899011 -338.761223 
L 794.759868 -334.806076 
L 794.651354 -330.850929 
L 794.573284 -326.895782 
L 794.525291 -322.940635 
L 794.506757 -318.985489 
L 794.516756 -315.030342 
L 794.553987 -311.075195 
L 794.616712 -307.120048 
L 794.70269 -303.164901 
L 794.809136 -299.209754 
L 794.93268 -295.254607 
L 795.069375 -291.29946 
L 795.21473 -287.344313 
L 795.363795 -283.389166 
L 795.511294 -279.434019 
L 795.651804 -275.478872 
L 795.77997 -271.523725 
L 795.890748 -267.568578 
L 795.979653 -263.613431 
L 796.042993 -259.658284 
L 796.078074 -255.703137 
L 796.083344 -251.74799 
L 796.058478 -247.792843 
L 796.004381 -243.837696 
L 795.923121 -239.882549 
L 795.817782 -235.927402 
L 795.692262 -231.972255 
L 795.55103 -228.017108 
L 795.398856 -224.061961 
L 795.240549 -220.106814 
L 795.080705 -216.151667 
L 794.923496 -212.19652 
L 794.772513 -208.241373 
L 794.630655 -204.286226 
L 794.500079 -200.331079 
L 794.382204 -196.375932 
L 794.277753 -192.420785 
L 794.186842 -188.465638 
L 794.109075 -184.510491 
z
" style="stroke: #3f3f3f; stroke-width: 1.25"/>
    </defs>
    <g clip-path="url(#pfab8a257af)">
     <use xlink:href="#mc7d705d2a4" x="0" y="720" style="fill: #3274a1; stroke: #3f3f3f; stroke-width: 1.25"/>
    </g>
   </g>
   <g id="PolyCollection_7">
    <defs>
     <path id="m0972080f16" d="M 905.74526 -190.727549 
L 905.05474 -190.727549 
L 904.971356 -194.942613 
L 904.873307 -199.157676 
L 904.759472 -203.372739 
L 904.629012 -207.587803 
L 904.481465 -211.802866 
L 904.316835 -216.017929 
L 904.135682 -220.232993 
L 903.939181 -224.448056 
L 903.72917 -228.663119 
L 903.508157 -232.878182 
L 903.279292 -237.093246 
L 903.046298 -241.308309 
L 902.813358 -245.523372 
L 902.584955 -249.738436 
L 902.365681 -253.953499 
L 902.160012 -258.168562 
L 901.972065 -262.383626 
L 901.805353 -266.598689 
L 901.662548 -270.813752 
L 901.545275 -275.028816 
L 901.453945 -279.243879 
L 901.387649 -283.458942 
L 901.344119 -287.674005 
L 901.319765 -291.889069 
L 901.309786 -296.104132 
L 901.308363 -300.319195 
L 901.308911 -304.534259 
L 901.30439 -308.749322 
L 901.287646 -312.964385 
L 901.251767 -317.179449 
L 901.190437 -321.394512 
L 901.098246 -325.609575 
L 900.970952 -329.824639 
L 900.805666 -334.039702 
L 900.600949 -338.254765 
L 900.356807 -342.469828 
L 900.074584 -346.684892 
L 899.756769 -350.899955 
L 899.406706 -355.115018 
L 899.028254 -359.330082 
L 898.625403 -363.545145 
L 898.201893 -367.760208 
L 897.760851 -371.975272 
L 897.304498 -376.190335 
L 896.833933 -380.405398 
L 896.349039 -384.620462 
L 895.848514 -388.835525 
L 895.330024 -393.050588 
L 894.790497 -397.265651 
L 894.226519 -401.480715 
L 893.634808 -405.695778 
L 893.012746 -409.910841 
L 892.358912 -414.125905 
L 891.673582 -418.340968 
L 890.959147 -422.556031 
L 890.22042 -426.771095 
L 889.464798 -430.986158 
L 888.702253 -435.201221 
L 887.945161 -439.416285 
L 887.20795 -443.631348 
L 886.506615 -447.846411 
L 885.858092 -452.061474 
L 885.279567 -456.276538 
L 884.787726 -460.491601 
L 884.398024 -464.706664 
L 884.123985 -468.921728 
L 883.976605 -473.136791 
L 883.963867 -477.351854 
L 884.090398 -481.566918 
L 884.357292 -485.781981 
L 884.76209 -489.997044 
L 885.29891 -494.212108 
L 885.958731 -498.427171 
L 886.729778 -502.642234 
L 887.598009 -506.857297 
L 888.54766 -511.072361 
L 889.56182 -515.287424 
L 890.62301 -519.502487 
L 891.713739 -523.717551 
L 892.817015 -527.932614 
L 893.916791 -532.147677 
L 894.998346 -536.362741 
L 896.048577 -540.577804 
L 897.056211 -544.792867 
L 898.011933 -549.00793 
L 898.908438 -553.222994 
L 899.740412 -557.438057 
L 900.504448 -561.65312 
L 901.198913 -565.868184 
L 901.823777 -570.083247 
L 902.380405 -574.29831 
L 902.871336 -578.513374 
L 903.300056 -582.728437 
L 903.670765 -586.9435 
L 903.988162 -591.158564 
L 904.257239 -595.373627 
L 904.483102 -599.58869 
L 904.670815 -603.803753 
L 904.825273 -608.018817 
L 905.974727 -608.018817 
L 905.974727 -608.018817 
L 906.129185 -603.803753 
L 906.316898 -599.58869 
L 906.542761 -595.373627 
L 906.811838 -591.158564 
L 907.129235 -586.9435 
L 907.499944 -582.728437 
L 907.928664 -578.513374 
L 908.419595 -574.29831 
L 908.976223 -570.083247 
L 909.601087 -565.868184 
L 910.295552 -561.65312 
L 911.059588 -557.438057 
L 911.891562 -553.222994 
L 912.788067 -549.00793 
L 913.743789 -544.792867 
L 914.751423 -540.577804 
L 915.801654 -536.362741 
L 916.883209 -532.147677 
L 917.982985 -527.932614 
L 919.086261 -523.717551 
L 920.17699 -519.502487 
L 921.23818 -515.287424 
L 922.25234 -511.072361 
L 923.201991 -506.857297 
L 924.070222 -502.642234 
L 924.841269 -498.427171 
L 925.50109 -494.212108 
L 926.03791 -489.997044 
L 926.442708 -485.781981 
L 926.709602 -481.566918 
L 926.836133 -477.351854 
L 926.823395 -473.136791 
L 926.676015 -468.921728 
L 926.401976 -464.706664 
L 926.012274 -460.491601 
L 925.520433 -456.276538 
L 924.941908 -452.061474 
L 924.293385 -447.846411 
L 923.59205 -443.631348 
L 922.854839 -439.416285 
L 922.097747 -435.201221 
L 921.335202 -430.986158 
L 920.57958 -426.771095 
L 919.840853 -422.556031 
L 919.126418 -418.340968 
L 918.441088 -414.125905 
L 917.787254 -409.910841 
L 917.165192 -405.695778 
L 916.573481 -401.480715 
L 916.009503 -397.265651 
L 915.469976 -393.050588 
L 914.951486 -388.835525 
L 914.450961 -384.620462 
L 913.966067 -380.405398 
L 913.495502 -376.190335 
L 913.039149 -371.975272 
L 912.598107 -367.760208 
L 912.174597 -363.545145 
L 911.771746 -359.330082 
L 911.393294 -355.115018 
L 911.043231 -350.899955 
L 910.725416 -346.684892 
L 910.443193 -342.469828 
L 910.199051 -338.254765 
L 909.994334 -334.039702 
L 909.829048 -329.824639 
L 909.701754 -325.609575 
L 909.609563 -321.394512 
L 909.548233 -317.179449 
L 909.512354 -312.964385 
L 909.49561 -308.749322 
L 909.491089 -304.534259 
L 909.491637 -300.319195 
L 909.490214 -296.104132 
L 909.480235 -291.889069 
L 909.455881 -287.674005 
L 909.412351 -283.458942 
L 909.346055 -279.243879 
L 909.254725 -275.028816 
L 909.137452 -270.813752 
L 908.994647 -266.598689 
L 908.827935 -262.383626 
L 908.639988 -258.168562 
L 908.434319 -253.953499 
L 908.215045 -249.738436 
L 907.986642 -245.523372 
L 907.753702 -241.308309 
L 907.520708 -237.093246 
L 907.291843 -232.878182 
L 907.07083 -228.663119 
L 906.860819 -224.448056 
L 906.664318 -220.232993 
L 906.483165 -216.017929 
L 906.318535 -211.802866 
L 906.170988 -207.587803 
L 906.040528 -203.372739 
L 905.926693 -199.157676 
L 905.828644 -194.942613 
L 905.74526 -190.727549 
z
" style="stroke: #3f3f3f; stroke-width: 1.25"/>
    </defs>
    <g clip-path="url(#pfab8a257af)">
     <use xlink:href="#m0972080f16" x="0" y="720" style="fill: #3274a1; stroke: #3f3f3f; stroke-width: 1.25"/>
    </g>
   </g>
   <g id="PolyCollection_8">
    <defs>
     <path id="m2eee451c2b" d="M 1018.160684 -294.073625 
L 1015.839316 -294.073625 
L 1015.622528 -297.044095 
L 1015.375373 -300.014565 
L 1015.095646 -302.985036 
L 1014.781354 -305.955506 
L 1014.430783 -308.925976 
L 1014.042574 -311.896446 
L 1013.615787 -314.866916 
L 1013.149961 -317.837386 
L 1012.645162 -320.807857 
L 1012.102022 -323.778327 
L 1011.521759 -326.748797 
L 1010.906188 -329.719267 
L 1010.2577 -332.689737 
L 1009.579243 -335.660208 
L 1008.874267 -338.630678 
L 1008.146668 -341.601148 
L 1007.400718 -344.571618 
L 1006.640976 -347.542088 
L 1005.872212 -350.512558 
L 1005.099319 -353.483029 
L 1004.327227 -356.453499 
L 1003.560839 -359.423969 
L 1002.804963 -362.394439 
L 1002.064263 -365.364909 
L 1001.34323 -368.33538 
L 1000.646153 -371.30585 
L 999.977116 -374.27632 
L 999.339998 -377.24679 
L 998.738477 -380.21726 
L 998.176043 -383.187731 
L 997.656001 -386.158201 
L 997.181473 -389.128671 
L 996.755386 -392.099141 
L 996.38045 -395.069611 
L 996.059119 -398.040081 
L 995.793537 -401.010552 
L 995.585475 -403.981022 
L 995.436254 -406.951492 
L 995.346663 -409.921962 
L 995.316879 -412.892432 
L 995.346389 -415.862903 
L 995.433924 -418.833373 
L 995.57742 -421.803843 
L 995.773987 -424.774313 
L 996.019921 -427.744783 
L 996.310738 -430.715253 
L 996.641246 -433.685724 
L 997.005641 -436.656194 
L 997.397646 -439.626664 
L 997.810665 -442.597134 
L 998.23796 -445.567604 
L 998.672845 -448.538075 
L 999.108886 -451.508545 
L 999.540092 -454.479015 
L 999.961105 -457.449485 
L 1000.367363 -460.419955 
L 1000.755244 -463.390426 
L 1001.122171 -466.360896 
L 1001.466681 -469.331366 
L 1001.788457 -472.301836 
L 1002.08831 -475.272306 
L 1002.368124 -478.242776 
L 1002.630759 -481.213247 
L 1002.879913 -484.183717 
L 1003.119955 -487.154187 
L 1003.35574 -490.124657 
L 1003.592391 -493.095127 
L 1003.83509 -496.065598 
L 1004.088863 -499.036068 
L 1004.358369 -502.006538 
L 1004.647715 -504.977008 
L 1004.960299 -507.947478 
L 1005.298674 -510.917948 
L 1005.664458 -513.888419 
L 1006.058279 -516.858889 
L 1006.479767 -519.829359 
L 1006.927574 -522.799829 
L 1007.399442 -525.770299 
L 1007.892299 -528.74077 
L 1008.402383 -531.71124 
L 1008.925388 -534.68171 
L 1009.45662 -537.65218 
L 1009.991161 -540.62265 
L 1010.524036 -543.593121 
L 1011.050365 -546.563591 
L 1011.565506 -549.534061 
L 1012.065178 -552.504531 
L 1012.545563 -555.475001 
L 1013.003381 -558.445471 
L 1013.435944 -561.415942 
L 1013.841184 -564.386412 
L 1014.21765 -567.356882 
L 1014.5645 -570.327352 
L 1014.881456 -573.297822 
L 1015.168759 -576.268293 
L 1015.427106 -579.238763 
L 1015.657581 -582.209233 
L 1015.861583 -585.179703 
L 1016.040752 -588.150173 
L 1017.959248 -588.150173 
L 1017.959248 -588.150173 
L 1018.138417 -585.179703 
L 1018.342419 -582.209233 
L 1018.572894 -579.238763 
L 1018.831241 -576.268293 
L 1019.118544 -573.297822 
L 1019.4355 -570.327352 
L 1019.78235 -567.356882 
L 1020.158816 -564.386412 
L 1020.564056 -561.415942 
L 1020.996619 -558.445471 
L 1021.454437 -555.475001 
L 1021.934822 -552.504531 
L 1022.434494 -549.534061 
L 1022.949635 -546.563591 
L 1023.475964 -543.593121 
L 1024.008839 -540.62265 
L 1024.54338 -537.65218 
L 1025.074612 -534.68171 
L 1025.597617 -531.71124 
L 1026.107701 -528.74077 
L 1026.600558 -525.770299 
L 1027.072426 -522.799829 
L 1027.520233 -519.829359 
L 1027.941721 -516.858889 
L 1028.335542 -513.888419 
L 1028.701326 -510.917948 
L 1029.039701 -507.947478 
L 1029.352285 -504.977008 
L 1029.641631 -502.006538 
L 1029.911137 -499.036068 
L 1030.16491 -496.065598 
L 1030.407609 -493.095127 
L 1030.64426 -490.124657 
L 1030.880045 -487.154187 
L 1031.120087 -484.183717 
L 1031.369241 -481.213247 
L 1031.631876 -478.242776 
L 1031.91169 -475.272306 
L 1032.211543 -472.301836 
L 1032.533319 -469.331366 
L 1032.877829 -466.360896 
L 1033.244756 -463.390426 
L 1033.632637 -460.419955 
L 1034.038895 -457.449485 
L 1034.459908 -454.479015 
L 1034.891114 -451.508545 
L 1035.327155 -448.538075 
L 1035.76204 -445.567604 
L 1036.189335 -442.597134 
L 1036.602354 -439.626664 
L 1036.994359 -436.656194 
L 1037.358754 -433.685724 
L 1037.689262 -430.715253 
L 1037.980079 -427.744783 
L 1038.226013 -424.774313 
L 1038.42258 -421.803843 
L 1038.566076 -418.833373 
L 1038.653611 -415.862903 
L 1038.683121 -412.892432 
L 1038.653337 -409.921962 
L 1038.563746 -406.951492 
L 1038.414525 -403.981022 
L 1038.206463 -401.010552 
L 1037.940881 -398.040081 
L 1037.61955 -395.069611 
L 1037.244614 -392.099141 
L 1036.818527 -389.128671 
L 1036.343999 -386.158201 
L 1035.823957 -383.187731 
L 1035.261523 -380.21726 
L 1034.660002 -377.24679 
L 1034.022884 -374.27632 
L 1033.353847 -371.30585 
L 1032.65677 -368.33538 
L 1031.935737 -365.364909 
L 1031.195037 -362.394439 
L 1030.439161 -359.423969 
L 1029.672773 -356.453499 
L 1028.900681 -353.483029 
L 1028.127788 -350.512558 
L 1027.359024 -347.542088 
L 1026.599282 -344.571618 
L 1025.853332 -341.601148 
L 1025.125733 -338.630678 
L 1024.420757 -335.660208 
L 1023.7423 -332.689737 
L 1023.093812 -329.719267 
L 1022.478241 -326.748797 
L 1021.897978 -323.778327 
L 1021.354838 -320.807857 
L 1020.850039 -317.837386 
L 1020.384213 -314.866916 
L 1019.957426 -311.896446 
L 1019.569217 -308.925976 
L 1019.218646 -305.955506 
L 1018.904354 -302.985036 
L 1018.624627 -300.014565 
L 1018.377472 -297.044095 
L 1018.160684 -294.073625 
z
" style="stroke: #3f3f3f; stroke-width: 1.25"/>
    </defs>
    <g clip-path="url(#pfab8a257af)">
     <use xlink:href="#m2eee451c2b" x="0" y="720" style="fill: #3274a1; stroke: #3f3f3f; stroke-width: 1.25"/>
    </g>
   </g>
   <g id="PolyCollection_9">
    <defs>
     <path id="m397bb31e63" d="M 1129.680864 -356.944791 
L 1127.519136 -356.944791 
L 1127.290105 -359.045044 
L 1127.025554 -361.145296 
L 1126.72305 -363.245548 
L 1126.380679 -365.345801 
L 1125.9972 -367.446053 
L 1125.572202 -369.546305 
L 1125.106237 -371.646558 
L 1124.600936 -373.74681 
L 1124.059088 -375.847063 
L 1123.484667 -377.947315 
L 1122.882814 -380.047567 
L 1122.259742 -382.14782 
L 1121.622586 -384.248072 
L 1120.979178 -386.348324 
L 1120.337755 -388.448577 
L 1119.706615 -390.548829 
L 1119.093724 -392.649081 
L 1118.5063 -394.749334 
L 1117.950384 -396.849586 
L 1117.430431 -398.949838 
L 1116.948946 -401.050091 
L 1116.506176 -403.150343 
L 1116.099906 -405.250595 
L 1115.72535 -407.350848 
L 1115.37518 -409.4511 
L 1115.039684 -411.551352 
L 1114.707063 -413.651605 
L 1114.363863 -415.751857 
L 1113.995525 -417.852109 
L 1113.587032 -419.952362 
L 1113.123637 -422.052614 
L 1112.591617 -424.152867 
L 1111.979048 -426.253119 
L 1111.276521 -428.353371 
L 1110.477803 -430.453624 
L 1109.580372 -432.553876 
L 1108.585809 -434.654128 
L 1107.500017 -436.754381 
L 1106.33325 -438.854633 
L 1105.099935 -440.954885 
L 1103.818296 -443.055138 
L 1102.509785 -445.15539 
L 1101.198344 -447.255642 
L 1099.909535 -449.355895 
L 1098.669563 -451.456147 
L 1097.504258 -453.556399 
L 1096.438048 -455.656652 
L 1095.492993 -457.756904 
L 1094.687915 -459.857156 
L 1094.037677 -461.957409 
L 1093.55265 -464.057661 
L 1093.238398 -466.157913 
L 1093.095589 -468.258166 
L 1093.120147 -470.358418 
L 1093.303619 -472.45867 
L 1093.633755 -474.558923 
L 1094.095245 -476.659175 
L 1094.670578 -478.759428 
L 1095.340976 -480.85968 
L 1096.087332 -482.959932 
L 1096.891116 -485.060185 
L 1097.735191 -487.160437 
L 1098.604489 -489.260689 
L 1099.486525 -491.360942 
L 1100.37172 -493.461194 
L 1101.253523 -495.561446 
L 1102.128347 -497.661699 
L 1102.995321 -499.761951 
L 1103.855897 -501.862203 
L 1104.713338 -503.962456 
L 1105.572134 -506.062708 
L 1106.437392 -508.16296 
L 1107.314227 -510.263213 
L 1108.207207 -512.363465 
L 1109.119882 -514.463717 
L 1110.054418 -516.56397 
L 1111.011344 -518.664222 
L 1111.989441 -520.764474 
L 1112.985744 -522.864727 
L 1113.995664 -524.964979 
L 1115.013208 -527.065232 
L 1116.031274 -529.165484 
L 1117.041992 -531.265736 
L 1118.037099 -533.365989 
L 1119.008311 -535.466241 
L 1119.947669 -537.566493 
L 1120.847854 -539.666746 
L 1121.702442 -541.766998 
L 1122.506102 -543.86725 
L 1123.254721 -545.967503 
L 1123.945465 -548.067755 
L 1124.576783 -550.168007 
L 1125.148346 -552.26826 
L 1125.660949 -554.368512 
L 1126.116377 -556.468764 
L 1126.517241 -558.569017 
L 1126.866815 -560.669269 
L 1127.168852 -562.769521 
L 1127.427428 -564.869774 
L 1129.772572 -564.869774 
L 1129.772572 -564.869774 
L 1130.031148 -562.769521 
L 1130.333185 -560.669269 
L 1130.682759 -558.569017 
L 1131.083623 -556.468764 
L 1131.539051 -554.368512 
L 1132.051654 -552.26826 
L 1132.623217 -550.168007 
L 1133.254535 -548.067755 
L 1133.945279 -545.967503 
L 1134.693898 -543.86725 
L 1135.497558 -541.766998 
L 1136.352146 -539.666746 
L 1137.252331 -537.566493 
L 1138.191689 -535.466241 
L 1139.162901 -533.365989 
L 1140.158008 -531.265736 
L 1141.168726 -529.165484 
L 1142.186792 -527.065232 
L 1143.204336 -524.964979 
L 1144.214256 -522.864727 
L 1145.210559 -520.764474 
L 1146.188656 -518.664222 
L 1147.145582 -516.56397 
L 1148.080118 -514.463717 
L 1148.992793 -512.363465 
L 1149.885773 -510.263213 
L 1150.762608 -508.16296 
L 1151.627866 -506.062708 
L 1152.486662 -503.962456 
L 1153.344103 -501.862203 
L 1154.204679 -499.761951 
L 1155.071653 -497.661699 
L 1155.946477 -495.561446 
L 1156.82828 -493.461194 
L 1157.713475 -491.360942 
L 1158.595511 -489.260689 
L 1159.464809 -487.160437 
L 1160.308884 -485.060185 
L 1161.112668 -482.959932 
L 1161.859024 -480.85968 
L 1162.529422 -478.759428 
L 1163.104755 -476.659175 
L 1163.566245 -474.558923 
L 1163.896381 -472.45867 
L 1164.079853 -470.358418 
L 1164.104411 -468.258166 
L 1163.961602 -466.157913 
L 1163.64735 -464.057661 
L 1163.162323 -461.957409 
L 1162.512085 -459.857156 
L 1161.707007 -457.756904 
L 1160.761952 -455.656652 
L 1159.695742 -453.556399 
L 1158.530437 -451.456147 
L 1157.290465 -449.355895 
L 1156.001656 -447.255642 
L 1154.690215 -445.15539 
L 1153.381704 -443.055138 
L 1152.100065 -440.954885 
L 1150.86675 -438.854633 
L 1149.699983 -436.754381 
L 1148.614191 -434.654128 
L 1147.619628 -432.553876 
L 1146.722197 -430.453624 
L 1145.923479 -428.353371 
L 1145.220952 -426.253119 
L 1144.608383 -424.152867 
L 1144.076363 -422.052614 
L 1143.612968 -419.952362 
L 1143.204475 -417.852109 
L 1142.836137 -415.751857 
L 1142.492937 -413.651605 
L 1142.160316 -411.551352 
L 1141.82482 -409.4511 
L 1141.47465 -407.350848 
L 1141.100094 -405.250595 
L 1140.693824 -403.150343 
L 1140.251054 -401.050091 
L 1139.769569 -398.949838 
L 1139.249616 -396.849586 
L 1138.6937 -394.749334 
L 1138.106276 -392.649081 
L 1137.493385 -390.548829 
L 1136.862245 -388.448577 
L 1136.220822 -386.348324 
L 1135.577414 -384.248072 
L 1134.940258 -382.14782 
L 1134.317186 -380.047567 
L 1133.715333 -377.947315 
L 1133.140912 -375.847063 
L 1132.599064 -373.74681 
L 1132.093763 -371.646558 
L 1131.627798 -369.546305 
L 1131.2028 -367.446053 
L 1130.819321 -365.345801 
L 1130.47695 -363.245548 
L 1130.174446 -361.145296 
L 1129.909895 -359.045044 
L 1129.680864 -356.944791 
z
" style="stroke: #3f3f3f; stroke-width: 1.25"/>
    </defs>
    <g clip-path="url(#pfab8a257af)">
     <use xlink:href="#m397bb31e63" x="0" y="720" style="fill: #3274a1; stroke: #3f3f3f; stroke-width: 1.25"/>
    </g>
   </g>
   <g id="PolyCollection_10">
    <defs>
     <path id="mc0de17758a" d="M 1242.150661 -409.793407 
L 1238.249339 -409.793407 
L 1237.892896 -411.062713 
L 1237.48666 -412.332018 
L 1237.026649 -413.601324 
L 1236.509069 -414.870629 
L 1235.930414 -416.139935 
L 1235.287561 -417.40924 
L 1234.57787 -418.678546 
L 1233.799277 -419.947851 
L 1232.950386 -421.217157 
L 1232.030552 -422.486463 
L 1231.039947 -423.755768 
L 1229.979619 -425.025074 
L 1228.851535 -426.294379 
L 1227.658602 -427.563685 
L 1226.404672 -428.83299 
L 1225.094533 -430.102296 
L 1223.733872 -431.371601 
L 1222.329229 -432.640907 
L 1220.887926 -433.910213 
L 1219.417988 -435.179518 
L 1217.928036 -436.448824 
L 1216.427183 -437.718129 
L 1214.924907 -438.987435 
L 1213.430911 -440.25674 
L 1211.954988 -441.526046 
L 1210.506863 -442.795351 
L 1209.096041 -444.064657 
L 1207.731647 -445.333962 
L 1206.42227 -446.603268 
L 1205.175801 -447.872574 
L 1203.999287 -449.141879 
L 1202.89879 -450.411185 
L 1201.879257 -451.68049 
L 1200.944415 -452.949796 
L 1200.096683 -454.219101 
L 1199.337116 -455.488407 
L 1198.665375 -456.757712 
L 1198.079735 -458.027018 
L 1197.577131 -459.296323 
L 1197.15324 -460.565629 
L 1196.802602 -461.834935 
L 1196.518776 -463.10424 
L 1196.294533 -464.373546 
L 1196.122077 -465.642851 
L 1195.993285 -466.912157 
L 1195.899974 -468.181462 
L 1195.834162 -469.450768 
L 1195.788342 -470.720073 
L 1195.755742 -471.989379 
L 1195.730565 -473.258684 
L 1195.70821 -474.52799 
L 1195.685452 -475.797296 
L 1195.660591 -477.066601 
L 1195.633548 -478.335907 
L 1195.605915 -479.605212 
L 1195.580951 -480.874518 
L 1195.563524 -482.143823 
L 1195.56 -483.413129 
L 1195.578078 -484.682434 
L 1195.62658 -485.95174 
L 1195.715194 -487.221046 
L 1195.85418 -488.490351 
L 1196.054054 -489.759657 
L 1196.32524 -491.028962 
L 1196.677726 -492.298268 
L 1197.120712 -493.567573 
L 1197.66228 -494.836879 
L 1198.309083 -496.106184 
L 1199.06607 -497.37549 
L 1199.936266 -498.644795 
L 1200.920598 -499.914101 
L 1202.017789 -501.183407 
L 1203.224317 -502.452712 
L 1204.534448 -503.722018 
L 1205.940334 -504.991323 
L 1207.432178 -506.260629 
L 1208.998463 -507.529934 
L 1210.62623 -508.79924 
L 1212.301399 -510.068545 
L 1214.00912 -511.337851 
L 1215.734137 -512.607156 
L 1217.461161 -513.876462 
L 1219.17523 -515.145768 
L 1220.862045 -516.415073 
L 1222.508271 -517.684379 
L 1224.101803 -518.953684 
L 1225.63197 -520.22299 
L 1227.089697 -521.492295 
L 1228.467601 -522.761601 
L 1229.760037 -524.030906 
L 1230.963087 -525.300212 
L 1232.074503 -526.569517 
L 1233.093609 -527.838823 
L 1234.021161 -529.108129 
L 1234.859193 -530.377434 
L 1235.610829 -531.64674 
L 1236.280101 -532.916045 
L 1236.87175 -534.185351 
L 1237.39104 -535.454656 
L 1243.00896 -535.454656 
L 1243.00896 -535.454656 
L 1243.52825 -534.185351 
L 1244.119899 -532.916045 
L 1244.789171 -531.64674 
L 1245.540807 -530.377434 
L 1246.378839 -529.108129 
L 1247.306391 -527.838823 
L 1248.325497 -526.569517 
L 1249.436913 -525.300212 
L 1250.639963 -524.030906 
L 1251.932399 -522.761601 
L 1253.310303 -521.492295 
L 1254.76803 -520.22299 
L 1256.298197 -518.953684 
L 1257.891729 -517.684379 
L 1259.537955 -516.415073 
L 1261.22477 -515.145768 
L 1262.938839 -513.876462 
L 1264.665863 -512.607156 
L 1266.39088 -511.337851 
L 1268.098601 -510.068545 
L 1269.77377 -508.79924 
L 1271.401537 -507.529934 
L 1272.967822 -506.260629 
L 1274.459666 -504.991323 
L 1275.865552 -503.722018 
L 1277.175683 -502.452712 
L 1278.382211 -501.183407 
L 1279.479402 -499.914101 
L 1280.463734 -498.644795 
L 1281.33393 -497.37549 
L 1282.090917 -496.106184 
L 1282.73772 -494.836879 
L 1283.279288 -493.567573 
L 1283.722274 -492.298268 
L 1284.07476 -491.028962 
L 1284.345946 -489.759657 
L 1284.54582 -488.490351 
L 1284.684806 -487.221046 
L 1284.77342 -485.95174 
L 1284.821922 -484.682434 
L 1284.84 -483.413129 
L 1284.836476 -482.143823 
L 1284.819049 -480.874518 
L 1284.794085 -479.605212 
L 1284.766452 -478.335907 
L 1284.739409 -477.066601 
L 1284.714548 -475.797296 
L 1284.69179 -474.52799 
L 1284.669435 -473.258684 
L 1284.644258 -471.989379 
L 1284.611658 -470.720073 
L 1284.565838 -469.450768 
L 1284.500026 -468.181462 
L 1284.406715 -466.912157 
L 1284.277923 -465.642851 
L 1284.105467 -464.373546 
L 1283.881224 -463.10424 
L 1283.597398 -461.834935 
L 1283.24676 -460.565629 
L 1282.822869 -459.296323 
L 1282.320265 -458.027018 
L 1281.734625 -456.757712 
L 1281.062884 -455.488407 
L 1280.303317 -454.219101 
L 1279.455585 -452.949796 
L 1278.520743 -451.68049 
L 1277.50121 -450.411185 
L 1276.400713 -449.141879 
L 1275.224199 -447.872574 
L 1273.97773 -446.603268 
L 1272.668353 -445.333962 
L 1271.303959 -444.064657 
L 1269.893137 -442.795351 
L 1268.445012 -441.526046 
L 1266.969089 -440.25674 
L 1265.475093 -438.987435 
L 1263.972817 -437.718129 
L 1262.471964 -436.448824 
L 1260.982012 -435.179518 
L 1259.512074 -433.910213 
L 1258.070771 -432.640907 
L 1256.666128 -431.371601 
L 1255.305467 -430.102296 
L 1253.995328 -428.83299 
L 1252.741398 -427.563685 
L 1251.548465 -426.294379 
L 1250.420381 -425.025074 
L 1249.360053 -423.755768 
L 1248.369448 -422.486463 
L 1247.449614 -421.217157 
L 1246.600723 -419.947851 
L 1245.82213 -418.678546 
L 1245.112439 -417.40924 
L 1244.469586 -416.139935 
L 1243.890931 -414.870629 
L 1243.373351 -413.601324 
L 1242.91334 -412.332018 
L 1242.507104 -411.062713 
L 1242.150661 -409.793407 
z
" style="stroke: #3f3f3f; stroke-width: 1.25"/>
    </defs>
    <g clip-path="url(#pfab8a257af)">
     <use xlink:href="#mc0de17758a" x="0" y="720" style="fill: #3274a1; stroke: #3f3f3f; stroke-width: 1.25"/>
    </g>
   </g>
   <g id="matplotlib.axis_1">
    <g id="xtick_1">
     <g id="line2d_1">
      <defs>
       <path id="mbb26d12bc7" d="M 0 0 
L 0 3.5 
" style="stroke: #000000; stroke-width: 0.8"/>
      </defs>
      <g>
       <use xlink:href="#mbb26d12bc7" x="235.8" y="640.8" style="stroke: #000000; stroke-width: 0.8"/>
      </g>
     </g>
     <g id="text_1">
      <!-- 0 -->
      <g transform="translate(232.61875 655.398438) scale(0.1 -0.1)">
       <defs>
        <path id="DejaVuSans-30" d="M 2034 4250 
Q 1547 4250 1301 3770 
Q 1056 3291 1056 2328 
Q 1056 1369 1301 889 
Q 1547 409 2034 409 
Q 2525 409 2770 889 
Q 3016 1369 3016 2328 
Q 3016 3291 2770 3770 
Q 2525 4250 2034 4250 
z
M 2034 4750 
Q 2819 4750 3233 4129 
Q 3647 3509 3647 2328 
Q 3647 1150 3233 529 
Q 2819 -91 2034 -91 
Q 1250 -91 836 529 
Q 422 1150 422 2328 
Q 422 3509 836 4129 
Q 1250 4750 2034 4750 
z
" transform="scale(0.015625)"/>
       </defs>
       <use xlink:href="#DejaVuSans-30"/>
      </g>
     </g>
    </g>
    <g id="xtick_2">
     <g id="line2d_2">
      <g>
       <use xlink:href="#mbb26d12bc7" x="347.4" y="640.8" style="stroke: #000000; stroke-width: 0.8"/>
      </g>
     </g>
     <g id="text_2">
      <!-- 1 -->
      <g transform="translate(344.21875 655.398438) scale(0.1 -0.1)">
       <defs>
        <path id="DejaVuSans-31" d="M 794 531 
L 1825 531 
L 1825 4091 
L 703 3866 
L 703 4441 
L 1819 4666 
L 2450 4666 
L 2450 531 
L 3481 531 
L 3481 0 
L 794 0 
L 794 531 
z
" transform="scale(0.015625)"/>
       </defs>
       <use xlink:href="#DejaVuSans-31"/>
      </g>
     </g>
    </g>
    <g id="xtick_3">
     <g id="line2d_3">
      <g>
       <use xlink:href="#mbb26d12bc7" x="459" y="640.8" style="stroke: #000000; stroke-width: 0.8"/>
      </g>
     </g>
     <g id="text_3">
      <!-- 2 -->
      <g transform="translate(455.81875 655.398438) scale(0.1 -0.1)">
       <defs>
        <path id="DejaVuSans-32" d="M 1228 531 
L 3431 531 
L 3431 0 
L 469 0 
L 469 531 
Q 828 903 1448 1529 
Q 2069 2156 2228 2338 
Q 2531 2678 2651 2914 
Q 2772 3150 2772 3378 
Q 2772 3750 2511 3984 
Q 2250 4219 1831 4219 
Q 1534 4219 1204 4116 
Q 875 4013 500 3803 
L 500 4441 
Q 881 4594 1212 4672 
Q 1544 4750 1819 4750 
Q 2544 4750 2975 4387 
Q 3406 4025 3406 3419 
Q 3406 3131 3298 2873 
Q 3191 2616 2906 2266 
Q 2828 2175 2409 1742 
Q 1991 1309 1228 531 
z
" transform="scale(0.015625)"/>
       </defs>
       <use xlink:href="#DejaVuSans-32"/>
      </g>
     </g>
    </g>
    <g id="xtick_4">
     <g id="line2d_4">
      <g>
       <use xlink:href="#mbb26d12bc7" x="570.6" y="640.8" style="stroke: #000000; stroke-width: 0.8"/>
      </g>
     </g>
     <g id="text_4">
      <!-- 3 -->
      <g transform="translate(567.41875 655.398438) scale(0.1 -0.1)">
       <defs>
        <path id="DejaVuSans-33" d="M 2597 2516 
Q 3050 2419 3304 2112 
Q 3559 1806 3559 1356 
Q 3559 666 3084 287 
Q 2609 -91 1734 -91 
Q 1441 -91 1130 -33 
Q 819 25 488 141 
L 488 750 
Q 750 597 1062 519 
Q 1375 441 1716 441 
Q 2309 441 2620 675 
Q 2931 909 2931 1356 
Q 2931 1769 2642 2001 
Q 2353 2234 1838 2234 
L 1294 2234 
L 1294 2753 
L 1863 2753 
Q 2328 2753 2575 2939 
Q 2822 3125 2822 3475 
Q 2822 3834 2567 4026 
Q 2313 4219 1838 4219 
Q 1578 4219 1281 4162 
Q 984 4106 628 3988 
L 628 4550 
Q 988 4650 1302 4700 
Q 1616 4750 1894 4750 
Q 2613 4750 3031 4423 
Q 3450 4097 3450 3541 
Q 3450 3153 3228 2886 
Q 3006 2619 2597 2516 
z
" transform="scale(0.015625)"/>
       </defs>
       <use xlink:href="#DejaVuSans-33"/>
      </g>
     </g>
    </g>
    <g id="xtick_5">
     <g id="line2d_5">
      <g>
       <use xlink:href="#mbb26d12bc7" x="682.2" y="640.8" style="stroke: #000000; stroke-width: 0.8"/>
      </g>
     </g>
     <g id="text_5">
      <!-- 4 -->
      <g transform="translate(679.01875 655.398438) scale(0.1 -0.1)">
       <defs>
        <path id="DejaVuSans-34" d="M 2419 4116 
L 825 1625 
L 2419 1625 
L 2419 4116 
z
M 2253 4666 
L 3047 4666 
L 3047 1625 
L 3713 1625 
L 3713 1100 
L 3047 1100 
L 3047 0 
L 2419 0 
L 2419 1100 
L 313 1100 
L 313 1709 
L 2253 4666 
z
" transform="scale(0.015625)"/>
       </defs>
       <use xlink:href="#DejaVuSans-34"/>
      </g>
     </g>
    </g>
    <g id="xtick_6">
     <g id="line2d_6">
      <g>
       <use xlink:href="#mbb26d12bc7" x="793.8" y="640.8" style="stroke: #000000; stroke-width: 0.8"/>
      </g>
     </g>
     <g id="text_6">
      <!-- 5 -->
      <g transform="translate(790.61875 655.398438) scale(0.1 -0.1)">
       <defs>
        <path id="DejaVuSans-35" d="M 691 4666 
L 3169 4666 
L 3169 4134 
L 1269 4134 
L 1269 2991 
Q 1406 3038 1543 3061 
Q 1681 3084 1819 3084 
Q 2600 3084 3056 2656 
Q 3513 2228 3513 1497 
Q 3513 744 3044 326 
Q 2575 -91 1722 -91 
Q 1428 -91 1123 -41 
Q 819 9 494 109 
L 494 744 
Q 775 591 1075 516 
Q 1375 441 1709 441 
Q 2250 441 2565 725 
Q 2881 1009 2881 1497 
Q 2881 1984 2565 2268 
Q 2250 2553 1709 2553 
Q 1456 2553 1204 2497 
Q 953 2441 691 2322 
L 691 4666 
z
" transform="scale(0.015625)"/>
       </defs>
       <use xlink:href="#DejaVuSans-35"/>
      </g>
     </g>
    </g>
    <g id="xtick_7">
     <g id="line2d_7">
      <g>
       <use xlink:href="#mbb26d12bc7" x="905.4" y="640.8" style="stroke: #000000; stroke-width: 0.8"/>
      </g>
     </g>
     <g id="text_7">
      <!-- 6 -->
      <g transform="translate(902.21875 655.398438) scale(0.1 -0.1)">
       <defs>
        <path id="DejaVuSans-36" d="M 2113 2584 
Q 1688 2584 1439 2293 
Q 1191 2003 1191 1497 
Q 1191 994 1439 701 
Q 1688 409 2113 409 
Q 2538 409 2786 701 
Q 3034 994 3034 1497 
Q 3034 2003 2786 2293 
Q 2538 2584 2113 2584 
z
M 3366 4563 
L 3366 3988 
Q 3128 4100 2886 4159 
Q 2644 4219 2406 4219 
Q 1781 4219 1451 3797 
Q 1122 3375 1075 2522 
Q 1259 2794 1537 2939 
Q 1816 3084 2150 3084 
Q 2853 3084 3261 2657 
Q 3669 2231 3669 1497 
Q 3669 778 3244 343 
Q 2819 -91 2113 -91 
Q 1303 -91 875 529 
Q 447 1150 447 2328 
Q 447 3434 972 4092 
Q 1497 4750 2381 4750 
Q 2619 4750 2861 4703 
Q 3103 4656 3366 4563 
z
" transform="scale(0.015625)"/>
       </defs>
       <use xlink:href="#DejaVuSans-36"/>
      </g>
     </g>
    </g>
    <g id="xtick_8">
     <g id="line2d_8">
      <g>
       <use xlink:href="#mbb26d12bc7" x="1017" y="640.8" style="stroke: #000000; stroke-width: 0.8"/>
      </g>
     </g>
     <g id="text_8">
      <!-- 7 -->
      <g transform="translate(1013.81875 655.398438) scale(0.1 -0.1)">
       <defs>
        <path id="DejaVuSans-37" d="M 525 4666 
L 3525 4666 
L 3525 4397 
L 1831 0 
L 1172 0 
L 2766 4134 
L 525 4134 
L 525 4666 
z
" transform="scale(0.015625)"/>
       </defs>
       <use xlink:href="#DejaVuSans-37"/>
      </g>
     </g>
    </g>
    <g id="xtick_9">
     <g id="line2d_9">
      <g>
       <use xlink:href="#mbb26d12bc7" x="1128.6" y="640.8" style="stroke: #000000; stroke-width: 0.8"/>
      </g>
     </g>
     <g id="text_9">
      <!-- 8 -->
      <g transform="translate(1125.41875 655.398438) scale(0.1 -0.1)">
       <defs>
        <path id="DejaVuSans-38" d="M 2034 2216 
Q 1584 2216 1326 1975 
Q 1069 1734 1069 1313 
Q 1069 891 1326 650 
Q 1584 409 2034 409 
Q 2484 409 2743 651 
Q 3003 894 3003 1313 
Q 3003 1734 2745 1975 
Q 2488 2216 2034 2216 
z
M 1403 2484 
Q 997 2584 770 2862 
Q 544 3141 544 3541 
Q 544 4100 942 4425 
Q 1341 4750 2034 4750 
Q 2731 4750 3128 4425 
Q 3525 4100 3525 3541 
Q 3525 3141 3298 2862 
Q 3072 2584 2669 2484 
Q 3125 2378 3379 2068 
Q 3634 1759 3634 1313 
Q 3634 634 3220 271 
Q 2806 -91 2034 -91 
Q 1263 -91 848 271 
Q 434 634 434 1313 
Q 434 1759 690 2068 
Q 947 2378 1403 2484 
z
M 1172 3481 
Q 1172 3119 1398 2916 
Q 1625 2713 2034 2713 
Q 2441 2713 2670 2916 
Q 2900 3119 2900 3481 
Q 2900 3844 2670 4047 
Q 2441 4250 2034 4250 
Q 1625 4250 1398 4047 
Q 1172 3844 1172 3481 
z
" transform="scale(0.015625)"/>
       </defs>
       <use xlink:href="#DejaVuSans-38"/>
      </g>
     </g>
    </g>
    <g id="xtick_10">
     <g id="line2d_10">
      <g>
       <use xlink:href="#mbb26d12bc7" x="1240.2" y="640.8" style="stroke: #000000; stroke-width: 0.8"/>
      </g>
     </g>
     <g id="text_10">
      <!-- 9 -->
      <g transform="translate(1237.01875 655.398438) scale(0.1 -0.1)">
       <defs>
        <path id="DejaVuSans-39" d="M 703 97 
L 703 672 
Q 941 559 1184 500 
Q 1428 441 1663 441 
Q 2288 441 2617 861 
Q 2947 1281 2994 2138 
Q 2813 1869 2534 1725 
Q 2256 1581 1919 1581 
Q 1219 1581 811 2004 
Q 403 2428 403 3163 
Q 403 3881 828 4315 
Q 1253 4750 1959 4750 
Q 2769 4750 3195 4129 
Q 3622 3509 3622 2328 
Q 3622 1225 3098 567 
Q 2575 -91 1691 -91 
Q 1453 -91 1209 -44 
Q 966 3 703 97 
z
M 1959 2075 
Q 2384 2075 2632 2365 
Q 2881 2656 2881 3163 
Q 2881 3666 2632 3958 
Q 2384 4250 1959 4250 
Q 1534 4250 1286 3958 
Q 1038 3666 1038 3163 
Q 1038 2656 1286 2365 
Q 1534 2075 1959 2075 
z
" transform="scale(0.015625)"/>
       </defs>
       <use xlink:href="#DejaVuSans-39"/>
      </g>
     </g>
    </g>
    <g id="text_11">
     <!-- iteration -->
     <g transform="translate(716.877344 669.076563) scale(0.1 -0.1)">
      <defs>
       <path id="DejaVuSans-69" d="M 603 3500 
L 1178 3500 
L 1178 0 
L 603 0 
L 603 3500 
z
M 603 4863 
L 1178 4863 
L 1178 4134 
L 603 4134 
L 603 4863 
z
" transform="scale(0.015625)"/>
       <path id="DejaVuSans-74" d="M 1172 4494 
L 1172 3500 
L 2356 3500 
L 2356 3053 
L 1172 3053 
L 1172 1153 
Q 1172 725 1289 603 
Q 1406 481 1766 481 
L 2356 481 
L 2356 0 
L 1766 0 
Q 1100 0 847 248 
Q 594 497 594 1153 
L 594 3053 
L 172 3053 
L 172 3500 
L 594 3500 
L 594 4494 
L 1172 4494 
z
" transform="scale(0.015625)"/>
       <path id="DejaVuSans-65" d="M 3597 1894 
L 3597 1613 
L 953 1613 
Q 991 1019 1311 708 
Q 1631 397 2203 397 
Q 2534 397 2845 478 
Q 3156 559 3463 722 
L 3463 178 
Q 3153 47 2828 -22 
Q 2503 -91 2169 -91 
Q 1331 -91 842 396 
Q 353 884 353 1716 
Q 353 2575 817 3079 
Q 1281 3584 2069 3584 
Q 2775 3584 3186 3129 
Q 3597 2675 3597 1894 
z
M 3022 2063 
Q 3016 2534 2758 2815 
Q 2500 3097 2075 3097 
Q 1594 3097 1305 2825 
Q 1016 2553 972 2059 
L 3022 2063 
z
" transform="scale(0.015625)"/>
       <path id="DejaVuSans-72" d="M 2631 2963 
Q 2534 3019 2420 3045 
Q 2306 3072 2169 3072 
Q 1681 3072 1420 2755 
Q 1159 2438 1159 1844 
L 1159 0 
L 581 0 
L 581 3500 
L 1159 3500 
L 1159 2956 
Q 1341 3275 1631 3429 
Q 1922 3584 2338 3584 
Q 2397 3584 2469 3576 
Q 2541 3569 2628 3553 
L 2631 2963 
z
" transform="scale(0.015625)"/>
       <path id="DejaVuSans-61" d="M 2194 1759 
Q 1497 1759 1228 1600 
Q 959 1441 959 1056 
Q 959 750 1161 570 
Q 1363 391 1709 391 
Q 2188 391 2477 730 
Q 2766 1069 2766 1631 
L 2766 1759 
L 2194 1759 
z
M 3341 1997 
L 3341 0 
L 2766 0 
L 2766 531 
Q 2569 213 2275 61 
Q 1981 -91 1556 -91 
Q 1019 -91 701 211 
Q 384 513 384 1019 
Q 384 1609 779 1909 
Q 1175 2209 1959 2209 
L 2766 2209 
L 2766 2266 
Q 2766 2663 2505 2880 
Q 2244 3097 1772 3097 
Q 1472 3097 1187 3025 
Q 903 2953 641 2809 
L 641 3341 
Q 956 3463 1253 3523 
Q 1550 3584 1831 3584 
Q 2591 3584 2966 3190 
Q 3341 2797 3341 1997 
z
" transform="scale(0.015625)"/>
       <path id="DejaVuSans-6f" d="M 1959 3097 
Q 1497 3097 1228 2736 
Q 959 2375 959 1747 
Q 959 1119 1226 758 
Q 1494 397 1959 397 
Q 2419 397 2687 759 
Q 2956 1122 2956 1747 
Q 2956 2369 2687 2733 
Q 2419 3097 1959 3097 
z
M 1959 3584 
Q 2709 3584 3137 3096 
Q 3566 2609 3566 1747 
Q 3566 888 3137 398 
Q 2709 -91 1959 -91 
Q 1206 -91 779 398 
Q 353 888 353 1747 
Q 353 2609 779 3096 
Q 1206 3584 1959 3584 
z
" transform="scale(0.015625)"/>
       <path id="DejaVuSans-6e" d="M 3513 2113 
L 3513 0 
L 2938 0 
L 2938 2094 
Q 2938 2591 2744 2837 
Q 2550 3084 2163 3084 
Q 1697 3084 1428 2787 
Q 1159 2491 1159 1978 
L 1159 0 
L 581 0 
L 581 3500 
L 1159 3500 
L 1159 2956 
Q 1366 3272 1645 3428 
Q 1925 3584 2291 3584 
Q 2894 3584 3203 3211 
Q 3513 2838 3513 2113 
z
" transform="scale(0.015625)"/>
      </defs>
      <use xlink:href="#DejaVuSans-69"/>
      <use xlink:href="#DejaVuSans-74" x="27.783203"/>
      <use xlink:href="#DejaVuSans-65" x="66.992188"/>
      <use xlink:href="#DejaVuSans-72" x="128.515625"/>
      <use xlink:href="#DejaVuSans-61" x="169.628906"/>
      <use xlink:href="#DejaVuSans-74" x="230.908203"/>
      <use xlink:href="#DejaVuSans-69" x="270.117188"/>
      <use xlink:href="#DejaVuSans-6f" x="297.900391"/>
      <use xlink:href="#DejaVuSans-6e" x="359.082031"/>
     </g>
    </g>
   </g>
   <g id="matplotlib.axis_2">
    <g id="ytick_1">
     <g id="line2d_11">
      <defs>
       <path id="m16f16b90bb" d="M 0 0 
L -3.5 0 
" style="stroke: #000000; stroke-width: 0.8"/>
      </defs>
      <g>
       <use xlink:href="#m16f16b90bb" x="180" y="600.12391" style="stroke: #000000; stroke-width: 0.8"/>
      </g>
     </g>
     <g id="text_12">
      <!-- 0.2 -->
      <g transform="translate(148.717187 603.923129) scale(0.1 -0.1)">
       <defs>
        <path id="DejaVuSans-2212" d="M 678 2272 
L 4684 2272 
L 4684 1741 
L 678 1741 
L 678 2272 
z
" transform="scale(0.015625)"/>
        <path id="DejaVuSans-2e" d="M 684 794 
L 1344 794 
L 1344 0 
L 684 0 
L 684 794 
z
" transform="scale(0.015625)"/>
       </defs>
       <use xlink:href="#DejaVuSans-2212"/>
       <use xlink:href="#DejaVuSans-30" x="83.789062"/>
       <use xlink:href="#DejaVuSans-2e" x="147.412109"/>
       <use xlink:href="#DejaVuSans-32" x="179.199219"/>
      </g>
     </g>
    </g>
    <g id="ytick_2">
     <g id="line2d_12">
      <g>
       <use xlink:href="#m16f16b90bb" x="180" y="532.159166" style="stroke: #000000; stroke-width: 0.8"/>
      </g>
     </g>
     <g id="text_13">
      <!-- 0.0 -->
      <g transform="translate(157.096875 535.958384) scale(0.1 -0.1)">
       <use xlink:href="#DejaVuSans-30"/>
       <use xlink:href="#DejaVuSans-2e" x="63.623047"/>
       <use xlink:href="#DejaVuSans-30" x="95.410156"/>
      </g>
     </g>
    </g>
    <g id="ytick_3">
     <g id="line2d_13">
      <g>
       <use xlink:href="#m16f16b90bb" x="180" y="464.194421" style="stroke: #000000; stroke-width: 0.8"/>
      </g>
     </g>
     <g id="text_14">
      <!-- 0.2 -->
      <g transform="translate(157.096875 467.99364) scale(0.1 -0.1)">
       <use xlink:href="#DejaVuSans-30"/>
       <use xlink:href="#DejaVuSans-2e" x="63.623047"/>
       <use xlink:href="#DejaVuSans-32" x="95.410156"/>
      </g>
     </g>
    </g>
    <g id="ytick_4">
     <g id="line2d_14">
      <g>
       <use xlink:href="#m16f16b90bb" x="180" y="396.229676" style="stroke: #000000; stroke-width: 0.8"/>
      </g>
     </g>
     <g id="text_15">
      <!-- 0.4 -->
      <g transform="translate(157.096875 400.028895) scale(0.1 -0.1)">
       <use xlink:href="#DejaVuSans-30"/>
       <use xlink:href="#DejaVuSans-2e" x="63.623047"/>
       <use xlink:href="#DejaVuSans-34" x="95.410156"/>
      </g>
     </g>
    </g>
    <g id="ytick_5">
     <g id="line2d_15">
      <g>
       <use xlink:href="#m16f16b90bb" x="180" y="328.264932" style="stroke: #000000; stroke-width: 0.8"/>
      </g>
     </g>
     <g id="text_16">
      <!-- 0.6 -->
      <g transform="translate(157.096875 332.064151) scale(0.1 -0.1)">
       <use xlink:href="#DejaVuSans-30"/>
       <use xlink:href="#DejaVuSans-2e" x="63.623047"/>
       <use xlink:href="#DejaVuSans-36" x="95.410156"/>
      </g>
     </g>
    </g>
    <g id="ytick_6">
     <g id="line2d_16">
      <g>
       <use xlink:href="#m16f16b90bb" x="180" y="260.300187" style="stroke: #000000; stroke-width: 0.8"/>
      </g>
     </g>
     <g id="text_17">
      <!-- 0.8 -->
      <g transform="translate(157.096875 264.099406) scale(0.1 -0.1)">
       <use xlink:href="#DejaVuSans-30"/>
       <use xlink:href="#DejaVuSans-2e" x="63.623047"/>
       <use xlink:href="#DejaVuSans-38" x="95.410156"/>
      </g>
     </g>
    </g>
    <g id="ytick_7">
     <g id="line2d_17">
      <g>
       <use xlink:href="#m16f16b90bb" x="180" y="192.335442" style="stroke: #000000; stroke-width: 0.8"/>
      </g>
     </g>
     <g id="text_18">
      <!-- 1.0 -->
      <g transform="translate(157.096875 196.134661) scale(0.1 -0.1)">
       <use xlink:href="#DejaVuSans-31"/>
       <use xlink:href="#DejaVuSans-2e" x="63.623047"/>
       <use xlink:href="#DejaVuSans-30" x="95.410156"/>
      </g>
     </g>
    </g>
    <g id="ytick_8">
     <g id="line2d_18">
      <g>
       <use xlink:href="#m16f16b90bb" x="180" y="124.370698" style="stroke: #000000; stroke-width: 0.8"/>
      </g>
     </g>
     <g id="text_19">
      <!-- 1.2 -->
      <g transform="translate(157.096875 128.169917) scale(0.1 -0.1)">
       <use xlink:href="#DejaVuSans-31"/>
       <use xlink:href="#DejaVuSans-2e" x="63.623047"/>
       <use xlink:href="#DejaVuSans-32" x="95.410156"/>
      </g>
     </g>
    </g>
    <g id="text_20">
     <!-- cosine similarity -->
     <g transform="translate(142.6375 404.307031) rotate(-90) scale(0.1 -0.1)">
      <defs>
       <path id="DejaVuSans-63" d="M 3122 3366 
L 3122 2828 
Q 2878 2963 2633 3030 
Q 2388 3097 2138 3097 
Q 1578 3097 1268 2742 
Q 959 2388 959 1747 
Q 959 1106 1268 751 
Q 1578 397 2138 397 
Q 2388 397 2633 464 
Q 2878 531 3122 666 
L 3122 134 
Q 2881 22 2623 -34 
Q 2366 -91 2075 -91 
Q 1284 -91 818 406 
Q 353 903 353 1747 
Q 353 2603 823 3093 
Q 1294 3584 2113 3584 
Q 2378 3584 2631 3529 
Q 2884 3475 3122 3366 
z
" transform="scale(0.015625)"/>
       <path id="DejaVuSans-73" d="M 2834 3397 
L 2834 2853 
Q 2591 2978 2328 3040 
Q 2066 3103 1784 3103 
Q 1356 3103 1142 2972 
Q 928 2841 928 2578 
Q 928 2378 1081 2264 
Q 1234 2150 1697 2047 
L 1894 2003 
Q 2506 1872 2764 1633 
Q 3022 1394 3022 966 
Q 3022 478 2636 193 
Q 2250 -91 1575 -91 
Q 1294 -91 989 -36 
Q 684 19 347 128 
L 347 722 
Q 666 556 975 473 
Q 1284 391 1588 391 
Q 1994 391 2212 530 
Q 2431 669 2431 922 
Q 2431 1156 2273 1281 
Q 2116 1406 1581 1522 
L 1381 1569 
Q 847 1681 609 1914 
Q 372 2147 372 2553 
Q 372 3047 722 3315 
Q 1072 3584 1716 3584 
Q 2034 3584 2315 3537 
Q 2597 3491 2834 3397 
z
" transform="scale(0.015625)"/>
       <path id="DejaVuSans-20" transform="scale(0.015625)"/>
       <path id="DejaVuSans-6d" d="M 3328 2828 
Q 3544 3216 3844 3400 
Q 4144 3584 4550 3584 
Q 5097 3584 5394 3201 
Q 5691 2819 5691 2113 
L 5691 0 
L 5113 0 
L 5113 2094 
Q 5113 2597 4934 2840 
Q 4756 3084 4391 3084 
Q 3944 3084 3684 2787 
Q 3425 2491 3425 1978 
L 3425 0 
L 2847 0 
L 2847 2094 
Q 2847 2600 2669 2842 
Q 2491 3084 2119 3084 
Q 1678 3084 1418 2786 
Q 1159 2488 1159 1978 
L 1159 0 
L 581 0 
L 581 3500 
L 1159 3500 
L 1159 2956 
Q 1356 3278 1631 3431 
Q 1906 3584 2284 3584 
Q 2666 3584 2933 3390 
Q 3200 3197 3328 2828 
z
" transform="scale(0.015625)"/>
       <path id="DejaVuSans-6c" d="M 603 4863 
L 1178 4863 
L 1178 0 
L 603 0 
L 603 4863 
z
" transform="scale(0.015625)"/>
       <path id="DejaVuSans-79" d="M 2059 -325 
Q 1816 -950 1584 -1140 
Q 1353 -1331 966 -1331 
L 506 -1331 
L 506 -850 
L 844 -850 
Q 1081 -850 1212 -737 
Q 1344 -625 1503 -206 
L 1606 56 
L 191 3500 
L 800 3500 
L 1894 763 
L 2988 3500 
L 3597 3500 
L 2059 -325 
z
" transform="scale(0.015625)"/>
      </defs>
      <use xlink:href="#DejaVuSans-63"/>
      <use xlink:href="#DejaVuSans-6f" x="54.980469"/>
      <use xlink:href="#DejaVuSans-73" x="116.162109"/>
      <use xlink:href="#DejaVuSans-69" x="168.261719"/>
      <use xlink:href="#DejaVuSans-6e" x="196.044922"/>
      <use xlink:href="#DejaVuSans-65" x="259.423828"/>
      <use xlink:href="#DejaVuSans-20" x="320.947266"/>
      <use xlink:href="#DejaVuSans-73" x="352.734375"/>
      <use xlink:href="#DejaVuSans-69" x="404.833984"/>
      <use xlink:href="#DejaVuSans-6d" x="432.617188"/>
      <use xlink:href="#DejaVuSans-69" x="530.029297"/>
      <use xlink:href="#DejaVuSans-6c" x="557.8125"/>
      <use xlink:href="#DejaVuSans-61" x="585.595703"/>
      <use xlink:href="#DejaVuSans-72" x="646.875"/>
      <use xlink:href="#DejaVuSans-69" x="687.988281"/>
      <use xlink:href="#DejaVuSans-74" x="715.771484"/>
      <use xlink:href="#DejaVuSans-79" x="754.980469"/>
     </g>
    </g>
   </g>
   <g id="line2d_19">
    <path d="M 235.8 553.343155 
L 235.8 398.544677 
" clip-path="url(#pfab8a257af)" style="fill: none; stroke: #3f3f3f; stroke-width: 1.875; stroke-linecap: square"/>
   </g>
   <g id="line2d_20">
    <path d="M 235.8 519.440739 
L 235.8 465.981491 
" clip-path="url(#pfab8a257af)" style="fill: none; stroke: #3f3f3f; stroke-width: 5.625; stroke-linecap: square"/>
   </g>
   <g id="line2d_21">
    <path d="M 235.8 495.919338 
" clip-path="url(#pfab8a257af)" style="fill: none; stroke: #3f3f3f; stroke-width: 1.5; stroke-linecap: square"/>
    <defs>
     <path id="mb194f2f5fc" d="M 2.34375 0 
L -2.34375 -0 
" style="stroke: #ffffff; stroke-width: 1.125"/>
    </defs>
    <g clip-path="url(#pfab8a257af)">
     <use xlink:href="#mb194f2f5fc" x="235.8" y="495.919338" style="fill: #ffffff; stroke: #ffffff; stroke-width: 1.125"/>
    </g>
   </g>
   <g id="line2d_22">
    <path d="M 347.4 530.098053 
L 347.4 197.101947 
" clip-path="url(#pfab8a257af)" style="fill: none; stroke: #3f3f3f; stroke-width: 1.875; stroke-linecap: square"/>
   </g>
   <g id="line2d_23">
    <path d="M 347.4 361.68241 
L 347.4 241.57131 
" clip-path="url(#pfab8a257af)" style="fill: none; stroke: #3f3f3f; stroke-width: 5.625; stroke-linecap: square"/>
   </g>
   <g id="line2d_24">
    <path d="M 347.4 292.473482 
" clip-path="url(#pfab8a257af)" style="fill: none; stroke: #3f3f3f; stroke-width: 1.5; stroke-linecap: square"/>
    <g clip-path="url(#pfab8a257af)">
     <use xlink:href="#mb194f2f5fc" x="347.4" y="292.473482" style="fill: #ffffff; stroke: #ffffff; stroke-width: 1.125"/>
    </g>
   </g>
   <g id="line2d_25">
    <path d="M 459 413.475491 
L 459 195.868859 
" clip-path="url(#pfab8a257af)" style="fill: none; stroke: #3f3f3f; stroke-width: 1.875; stroke-linecap: square"/>
   </g>
   <g id="line2d_26">
    <path d="M 459 304.553982 
L 459 223.722844 
" clip-path="url(#pfab8a257af)" style="fill: none; stroke: #3f3f3f; stroke-width: 5.625; stroke-linecap: square"/>
   </g>
   <g id="line2d_27">
    <path d="M 459 255.877022 
" clip-path="url(#pfab8a257af)" style="fill: none; stroke: #3f3f3f; stroke-width: 1.5; stroke-linecap: square"/>
    <g clip-path="url(#pfab8a257af)">
     <use xlink:href="#mb194f2f5fc" x="459" y="255.877022" style="fill: #ffffff; stroke: #ffffff; stroke-width: 1.125"/>
    </g>
   </g>
   <g id="line2d_28">
    <path d="M 570.6 404.950212 
L 570.6 195.025032 
" clip-path="url(#pfab8a257af)" style="fill: none; stroke: #3f3f3f; stroke-width: 1.875; stroke-linecap: square"/>
   </g>
   <g id="line2d_29">
    <path d="M 570.6 322.830579 
L 570.6 243.862503 
" clip-path="url(#pfab8a257af)" style="fill: none; stroke: #3f3f3f; stroke-width: 5.625; stroke-linecap: square"/>
   </g>
   <g id="line2d_30">
    <path d="M 570.6 287.145962 
" clip-path="url(#pfab8a257af)" style="fill: none; stroke: #3f3f3f; stroke-width: 1.5; stroke-linecap: square"/>
    <g clip-path="url(#pfab8a257af)">
     <use xlink:href="#mb194f2f5fc" x="570.6" y="287.145962" style="fill: #ffffff; stroke: #ffffff; stroke-width: 1.125"/>
    </g>
   </g>
   <g id="line2d_31">
    <path d="M 682.2 292.8847 
L 682.2 203.030708 
" clip-path="url(#pfab8a257af)" style="fill: none; stroke: #3f3f3f; stroke-width: 1.875; stroke-linecap: square"/>
   </g>
   <g id="line2d_32">
    <path d="M 682.2 267.990492 
L 682.2 222.561155 
" clip-path="url(#pfab8a257af)" style="fill: none; stroke: #3f3f3f; stroke-width: 5.625; stroke-linecap: square"/>
   </g>
   <g id="line2d_33">
    <path d="M 682.2 232.997247 
" clip-path="url(#pfab8a257af)" style="fill: none; stroke: #3f3f3f; stroke-width: 1.5; stroke-linecap: square"/>
    <g clip-path="url(#pfab8a257af)">
     <use xlink:href="#mb194f2f5fc" x="682.2" y="232.997247" style="fill: #ffffff; stroke: #ffffff; stroke-width: 1.125"/>
    </g>
   </g>
   <g id="line2d_34">
    <path d="M 793.8 333.742948 
L 793.8 212.385614 
" clip-path="url(#pfab8a257af)" style="fill: none; stroke: #3f3f3f; stroke-width: 1.875; stroke-linecap: square"/>
   </g>
   <g id="line2d_35">
    <path d="M 793.8 278.002934 
L 793.8 222.428925 
" clip-path="url(#pfab8a257af)" style="fill: none; stroke: #3f3f3f; stroke-width: 5.625; stroke-linecap: square"/>
   </g>
   <g id="line2d_36">
    <path d="M 793.8 238.628258 
" clip-path="url(#pfab8a257af)" style="fill: none; stroke: #3f3f3f; stroke-width: 1.5; stroke-linecap: square"/>
    <g clip-path="url(#pfab8a257af)">
     <use xlink:href="#mb194f2f5fc" x="793.8" y="238.628258" style="fill: #ffffff; stroke: #ffffff; stroke-width: 1.125"/>
    </g>
   </g>
   <g id="line2d_37">
    <path d="M 905.4 448.467901 
L 905.4 192.785733 
" clip-path="url(#pfab8a257af)" style="fill: none; stroke: #3f3f3f; stroke-width: 1.875; stroke-linecap: square"/>
   </g>
   <g id="line2d_38">
    <path d="M 905.4 319.322492 
L 905.4 228.40961 
" clip-path="url(#pfab8a257af)" style="fill: none; stroke: #3f3f3f; stroke-width: 5.625; stroke-linecap: square"/>
   </g>
   <g id="line2d_39">
    <path d="M 905.4 253.875659 
" clip-path="url(#pfab8a257af)" style="fill: none; stroke: #3f3f3f; stroke-width: 1.5; stroke-linecap: square"/>
    <g clip-path="url(#pfab8a257af)">
     <use xlink:href="#mb194f2f5fc" x="905.4" y="253.875659" style="fill: #ffffff; stroke: #ffffff; stroke-width: 1.125"/>
    </g>
   </g>
   <g id="line2d_40">
    <path d="M 1017 353.566142 
L 1017 204.21006 
" clip-path="url(#pfab8a257af)" style="fill: none; stroke: #3f3f3f; stroke-width: 1.875; stroke-linecap: square"/>
   </g>
   <g id="line2d_41">
    <path d="M 1017 319.229111 
L 1017 251.977166 
" clip-path="url(#pfab8a257af)" style="fill: none; stroke: #3f3f3f; stroke-width: 5.625; stroke-linecap: square"/>
   </g>
   <g id="line2d_42">
    <path d="M 1017 297.918065 
" clip-path="url(#pfab8a257af)" style="fill: none; stroke: #3f3f3f; stroke-width: 1.5; stroke-linecap: square"/>
    <g clip-path="url(#pfab8a257af)">
     <use xlink:href="#mb194f2f5fc" x="1017" y="297.918065" style="fill: #ffffff; stroke: #ffffff; stroke-width: 1.125"/>
    </g>
   </g>
   <g id="line2d_43">
    <path d="M 1128.6 308.61884 
L 1128.6 200.487947 
" clip-path="url(#pfab8a257af)" style="fill: none; stroke: #3f3f3f; stroke-width: 1.875; stroke-linecap: square"/>
   </g>
   <g id="line2d_44">
    <path d="M 1128.6 265.160165 
L 1128.6 231.825511 
" clip-path="url(#pfab8a257af)" style="fill: none; stroke: #3f3f3f; stroke-width: 5.625; stroke-linecap: square"/>
   </g>
   <g id="line2d_45">
    <path d="M 1128.6 252.478444 
" clip-path="url(#pfab8a257af)" style="fill: none; stroke: #3f3f3f; stroke-width: 1.5; stroke-linecap: square"/>
    <g clip-path="url(#pfab8a257af)">
     <use xlink:href="#mb194f2f5fc" x="1128.6" y="252.478444" style="fill: #ffffff; stroke: #ffffff; stroke-width: 1.125"/>
    </g>
   </g>
   <g id="line2d_46">
    <path d="M 1240.2 278.618769 
L 1240.2 216.133167 
" clip-path="url(#pfab8a257af)" style="fill: none; stroke: #3f3f3f; stroke-width: 1.875; stroke-linecap: square"/>
   </g>
   <g id="line2d_47">
    <path d="M 1240.2 261.269105 
L 1240.2 226.462839 
" clip-path="url(#pfab8a257af)" style="fill: none; stroke: #3f3f3f; stroke-width: 5.625; stroke-linecap: square"/>
   </g>
   <g id="line2d_48">
    <path d="M 1240.2 244.343055 
" clip-path="url(#pfab8a257af)" style="fill: none; stroke: #3f3f3f; stroke-width: 1.5; stroke-linecap: square"/>
    <g clip-path="url(#pfab8a257af)">
     <use xlink:href="#mb194f2f5fc" x="1240.2" y="244.343055" style="fill: #ffffff; stroke: #ffffff; stroke-width: 1.125"/>
    </g>
   </g>
   <g id="patch_3">
    <path d="M 180 640.8 
L 180 86.4 
" style="fill: none; stroke: #000000; stroke-width: 0.8; stroke-linejoin: miter; stroke-linecap: square"/>
   </g>
   <g id="patch_4">
    <path d="M 1296 640.8 
L 1296 86.4 
" style="fill: none; stroke: #000000; stroke-width: 0.8; stroke-linejoin: miter; stroke-linecap: square"/>
   </g>
   <g id="patch_5">
    <path d="M 180 640.8 
L 1296 640.8 
" style="fill: none; stroke: #000000; stroke-width: 0.8; stroke-linejoin: miter; stroke-linecap: square"/>
   </g>
   <g id="patch_6">
    <path d="M 180 86.4 
L 1296 86.4 
" style="fill: none; stroke: #000000; stroke-width: 0.8; stroke-linejoin: miter; stroke-linecap: square"/>
   </g>
   <g id="text_21">
    <!-- cosine similarity of mem_no-fs (progressive), by iteration -->
    <g transform="translate(566.3625 80.4) scale(0.12 -0.12)">
     <defs>
      <path id="DejaVuSans-66" d="M 2375 4863 
L 2375 4384 
L 1825 4384 
Q 1516 4384 1395 4259 
Q 1275 4134 1275 3809 
L 1275 3500 
L 2222 3500 
L 2222 3053 
L 1275 3053 
L 1275 0 
L 697 0 
L 697 3053 
L 147 3053 
L 147 3500 
L 697 3500 
L 697 3744 
Q 697 4328 969 4595 
Q 1241 4863 1831 4863 
L 2375 4863 
z
" transform="scale(0.015625)"/>
      <path id="DejaVuSans-5f" d="M 3263 -1063 
L 3263 -1509 
L -63 -1509 
L -63 -1063 
L 3263 -1063 
z
" transform="scale(0.015625)"/>
      <path id="DejaVuSans-2d" d="M 313 2009 
L 1997 2009 
L 1997 1497 
L 313 1497 
L 313 2009 
z
" transform="scale(0.015625)"/>
      <path id="DejaVuSans-28" d="M 1984 4856 
Q 1566 4138 1362 3434 
Q 1159 2731 1159 2009 
Q 1159 1288 1364 580 
Q 1569 -128 1984 -844 
L 1484 -844 
Q 1016 -109 783 600 
Q 550 1309 550 2009 
Q 550 2706 781 3412 
Q 1013 4119 1484 4856 
L 1984 4856 
z
" transform="scale(0.015625)"/>
      <path id="DejaVuSans-70" d="M 1159 525 
L 1159 -1331 
L 581 -1331 
L 581 3500 
L 1159 3500 
L 1159 2969 
Q 1341 3281 1617 3432 
Q 1894 3584 2278 3584 
Q 2916 3584 3314 3078 
Q 3713 2572 3713 1747 
Q 3713 922 3314 415 
Q 2916 -91 2278 -91 
Q 1894 -91 1617 61 
Q 1341 213 1159 525 
z
M 3116 1747 
Q 3116 2381 2855 2742 
Q 2594 3103 2138 3103 
Q 1681 3103 1420 2742 
Q 1159 2381 1159 1747 
Q 1159 1113 1420 752 
Q 1681 391 2138 391 
Q 2594 391 2855 752 
Q 3116 1113 3116 1747 
z
" transform="scale(0.015625)"/>
      <path id="DejaVuSans-67" d="M 2906 1791 
Q 2906 2416 2648 2759 
Q 2391 3103 1925 3103 
Q 1463 3103 1205 2759 
Q 947 2416 947 1791 
Q 947 1169 1205 825 
Q 1463 481 1925 481 
Q 2391 481 2648 825 
Q 2906 1169 2906 1791 
z
M 3481 434 
Q 3481 -459 3084 -895 
Q 2688 -1331 1869 -1331 
Q 1566 -1331 1297 -1286 
Q 1028 -1241 775 -1147 
L 775 -588 
Q 1028 -725 1275 -790 
Q 1522 -856 1778 -856 
Q 2344 -856 2625 -561 
Q 2906 -266 2906 331 
L 2906 616 
Q 2728 306 2450 153 
Q 2172 0 1784 0 
Q 1141 0 747 490 
Q 353 981 353 1791 
Q 353 2603 747 3093 
Q 1141 3584 1784 3584 
Q 2172 3584 2450 3431 
Q 2728 3278 2906 2969 
L 2906 3500 
L 3481 3500 
L 3481 434 
z
" transform="scale(0.015625)"/>
      <path id="DejaVuSans-76" d="M 191 3500 
L 800 3500 
L 1894 563 
L 2988 3500 
L 3597 3500 
L 2284 0 
L 1503 0 
L 191 3500 
z
" transform="scale(0.015625)"/>
      <path id="DejaVuSans-29" d="M 513 4856 
L 1013 4856 
Q 1481 4119 1714 3412 
Q 1947 2706 1947 2009 
Q 1947 1309 1714 600 
Q 1481 -109 1013 -844 
L 513 -844 
Q 928 -128 1133 580 
Q 1338 1288 1338 2009 
Q 1338 2731 1133 3434 
Q 928 4138 513 4856 
z
" transform="scale(0.015625)"/>
      <path id="DejaVuSans-2c" d="M 750 794 
L 1409 794 
L 1409 256 
L 897 -744 
L 494 -744 
L 750 256 
L 750 794 
z
" transform="scale(0.015625)"/>
      <path id="DejaVuSans-62" d="M 3116 1747 
Q 3116 2381 2855 2742 
Q 2594 3103 2138 3103 
Q 1681 3103 1420 2742 
Q 1159 2381 1159 1747 
Q 1159 1113 1420 752 
Q 1681 391 2138 391 
Q 2594 391 2855 752 
Q 3116 1113 3116 1747 
z
M 1159 2969 
Q 1341 3281 1617 3432 
Q 1894 3584 2278 3584 
Q 2916 3584 3314 3078 
Q 3713 2572 3713 1747 
Q 3713 922 3314 415 
Q 2916 -91 2278 -91 
Q 1894 -91 1617 61 
Q 1341 213 1159 525 
L 1159 0 
L 581 0 
L 581 4863 
L 1159 4863 
L 1159 2969 
z
" transform="scale(0.015625)"/>
     </defs>
     <use xlink:href="#DejaVuSans-63"/>
     <use xlink:href="#DejaVuSans-6f" x="54.980469"/>
     <use xlink:href="#DejaVuSans-73" x="116.162109"/>
     <use xlink:href="#DejaVuSans-69" x="168.261719"/>
     <use xlink:href="#DejaVuSans-6e" x="196.044922"/>
     <use xlink:href="#DejaVuSans-65" x="259.423828"/>
     <use xlink:href="#DejaVuSans-20" x="320.947266"/>
     <use xlink:href="#DejaVuSans-73" x="352.734375"/>
     <use xlink:href="#DejaVuSans-69" x="404.833984"/>
     <use xlink:href="#DejaVuSans-6d" x="432.617188"/>
     <use xlink:href="#DejaVuSans-69" x="530.029297"/>
     <use xlink:href="#DejaVuSans-6c" x="557.8125"/>
     <use xlink:href="#DejaVuSans-61" x="585.595703"/>
     <use xlink:href="#DejaVuSans-72" x="646.875"/>
     <use xlink:href="#DejaVuSans-69" x="687.988281"/>
     <use xlink:href="#DejaVuSans-74" x="715.771484"/>
     <use xlink:href="#DejaVuSans-79" x="754.980469"/>
     <use xlink:href="#DejaVuSans-20" x="814.160156"/>
     <use xlink:href="#DejaVuSans-6f" x="845.947266"/>
     <use xlink:href="#DejaVuSans-66" x="907.128906"/>
     <use xlink:href="#DejaVuSans-20" x="942.333984"/>
     <use xlink:href="#DejaVuSans-6d" x="974.121094"/>
     <use xlink:href="#DejaVuSans-65" x="1071.533203"/>
     <use xlink:href="#DejaVuSans-6d" x="1133.056641"/>
     <use xlink:href="#DejaVuSans-5f" x="1230.46875"/>
     <use xlink:href="#DejaVuSans-6e" x="1280.46875"/>
     <use xlink:href="#DejaVuSans-6f" x="1343.847656"/>
     <use xlink:href="#DejaVuSans-2d" x="1406.904297"/>
     <use xlink:href="#DejaVuSans-66" x="1442.988281"/>
     <use xlink:href="#DejaVuSans-73" x="1478.193359"/>
     <use xlink:href="#DejaVuSans-20" x="1530.292969"/>
     <use xlink:href="#DejaVuSans-28" x="1562.080078"/>
     <use xlink:href="#DejaVuSans-70" x="1601.09375"/>
     <use xlink:href="#DejaVuSans-72" x="1664.570312"/>
     <use xlink:href="#DejaVuSans-6f" x="1703.433594"/>
     <use xlink:href="#DejaVuSans-67" x="1764.615234"/>
     <use xlink:href="#DejaVuSans-72" x="1828.091797"/>
     <use xlink:href="#DejaVuSans-65" x="1866.955078"/>
     <use xlink:href="#DejaVuSans-73" x="1928.478516"/>
     <use xlink:href="#DejaVuSans-73" x="1980.578125"/>
     <use xlink:href="#DejaVuSans-69" x="2032.677734"/>
     <use xlink:href="#DejaVuSans-76" x="2060.460938"/>
     <use xlink:href="#DejaVuSans-65" x="2119.640625"/>
     <use xlink:href="#DejaVuSans-29" x="2181.164062"/>
     <use xlink:href="#DejaVuSans-2c" x="2220.177734"/>
     <use xlink:href="#DejaVuSans-20" x="2251.964844"/>
     <use xlink:href="#DejaVuSans-62" x="2283.751953"/>
     <use xlink:href="#DejaVuSans-79" x="2347.228516"/>
     <use xlink:href="#DejaVuSans-20" x="2406.408203"/>
     <use xlink:href="#DejaVuSans-69" x="2438.195312"/>
     <use xlink:href="#DejaVuSans-74" x="2465.978516"/>
     <use xlink:href="#DejaVuSans-65" x="2505.1875"/>
     <use xlink:href="#DejaVuSans-72" x="2566.710938"/>
     <use xlink:href="#DejaVuSans-61" x="2607.824219"/>
     <use xlink:href="#DejaVuSans-74" x="2669.103516"/>
     <use xlink:href="#DejaVuSans-69" x="2708.3125"/>
     <use xlink:href="#DejaVuSans-6f" x="2736.095703"/>
     <use xlink:href="#DejaVuSans-6e" x="2797.277344"/>
    </g>
   </g>
  </g>
 </g>
 <defs>
  <clipPath id="pfab8a257af">
   <rect x="180" y="86.4" width="1116" height="554.4"/>
  </clipPath>
 </defs>
</svg>
