<?xml version="1.0" encoding="utf-8" standalone="no"?>
<!DOCTYPE svg PUBLIC "-//W3C//DTD SVG 1.1//EN"
  "http://www.w3.org/Graphics/SVG/1.1/DTD/svg11.dtd">
<svg xmlns:xlink="http://www.w3.org/1999/xlink" width="1440pt" height="720pt" viewBox="0 0 1440 720" xmlns="http://www.w3.org/2000/svg" version="1.1">
 <metadata>
  <rdf:RDF xmlns:dc="http://purl.org/dc/elements/1.1/" xmlns:cc="http://creativecommons.org/ns#" xmlns:rdf="http://www.w3.org/1999/02/22-rdf-syntax-ns#">
   <cc:Work>
    <dc:type rdf:resource="http://purl.org/dc/dcmitype/StillImage"/>
    <dc:date>2024-07-24T19:57:52.797663</dc:date>
    <dc:format>image/svg+xml</dc:format>
    <dc:creator>
     <cc:Agent>
      <dc:title>Matplotlib v3.8.0, https://matplotlib.org/</dc:title>
     </cc:Agent>
    </dc:creator>
   </cc:Work>
  </rdf:RDF>
 </metadata>
 <defs>
  <style type="text/css">*{stroke-linejoin: round; stroke-linecap: butt}</style>
 </defs>
 <g id="figure_1">
  <g id="patch_1">
   <path d="M 0 720 
L 1440 720 
L 1440 0 
L 0 0 
z
" style="fill: #ffffff"/>
  </g>
  <g id="axes_1">
   <g id="patch_2">
    <path d="M 180 640.8 
L 1296 640.8 
L 1296 86.4 
L 180 86.4 
z
" style="fill: #ffffff"/>
   </g>
   <g id="PolyCollection_1">
    <defs>
     <path id="m16d91f7a52" d="M 320.369322 -114.118759 
L 318.630678 -114.118759 
L 317.980259 -119.111499 
L 316.985277 -124.104239 
L 315.553752 -129.096978 
L 313.612753 -134.089718 
L 311.124684 -139.082458 
L 308.095193 -144.075198 
L 304.567507 -149.067938 
L 300.603815 -154.060677 
L 296.26175 -159.053417 
L 291.578824 -164.046157 
L 286.575897 -169.038897 
L 281.281766 -174.031637 
L 275.768519 -179.024376 
L 270.178312 -184.017116 
L 264.722845 -189.009856 
L 259.648406 -194.002596 
L 255.176813 -198.995336 
L 251.446592 -203.988075 
L 248.480968 -208.980815 
L 246.197389 -213.973555 
L 244.453544 -218.966295 
L 243.107647 -223.959035 
L 242.065309 -228.951775 
L 241.293511 -233.944514 
L 240.798513 -238.937254 
L 240.580445 -243.929994 
L 240.586261 -248.922734 
L 240.682936 -253.915474 
L 240.665569 -258.908213 
L 240.302988 -263.900953 
L 239.409247 -268.893693 
L 237.916941 -273.886433 
L 235.923004 -278.879173 
L 233.684436 -283.871912 
L 231.560117 -288.864652 
L 229.918327 -293.857392 
L 229.045516 -298.850132 
L 229.090472 -303.842872 
L 230.059372 -308.835611 
L 231.852072 -313.828351 
L 234.313716 -318.821091 
L 237.27691 -323.813831 
L 240.584516 -328.806571 
L 244.098868 -333.799311 
L 247.708358 -338.79205 
L 251.335657 -343.78479 
L 254.941907 -348.77753 
L 258.518388 -353.77027 
L 262.064532 -358.76301 
L 265.562423 -363.755749 
L 268.963252 -368.748489 
L 272.195482 -373.741229 
L 275.191294 -378.733969 
L 277.916115 -383.726709 
L 280.383444 -388.719448 
L 282.645106 -393.712188 
L 284.760683 -398.704928 
L 286.761619 -403.697668 
L 288.62942 -408.690408 
L 290.301621 -413.683147 
L 291.706161 -418.675887 
L 292.810244 -423.668627 
L 293.660705 -428.661367 
L 294.394253 -433.654107 
L 295.208285 -438.646847 
L 296.30086 -443.639586 
L 297.803188 -448.632326 
L 299.73237 -453.625066 
L 301.983777 -458.617806 
L 304.365739 -463.610546 
L 306.662002 -468.603285 
L 308.697289 -473.596025 
L 310.381987 -478.588765 
L 311.72227 -483.581505 
L 312.796686 -488.574245 
L 313.712882 -493.566984 
L 314.56379 -498.559724 
L 315.399465 -503.552464 
L 316.221551 -508.545204 
L 316.996833 -513.537944 
L 317.679654 -518.530683 
L 318.232171 -523.523423 
L 318.635738 -528.516163 
L 318.892498 -533.508903 
L 319.020599 -538.501643 
L 319.047572 -543.494382 
L 319.004945 -548.487122 
L 318.92484 -553.479862 
L 318.837596 -558.472602 
L 318.769271 -563.465342 
L 318.738707 -568.458082 
L 318.754977 -573.450821 
L 318.816494 -578.443561 
L 318.912576 -583.436301 
L 319.027194 -588.429041 
L 319.143636 -593.421781 
L 319.248483 -598.41452 
L 319.333774 -603.40726 
L 319.39713 -608.4 
L 319.60287 -608.4 
L 319.60287 -608.4 
L 319.666226 -603.40726 
L 319.751517 -598.41452 
L 319.856364 -593.421781 
L 319.972806 -588.429041 
L 320.087424 -583.436301 
L 320.183506 -578.443561 
L 320.245023 -573.450821 
L 320.261293 -568.458082 
L 320.230729 -563.465342 
L 320.162404 -558.472602 
L 320.07516 -553.479862 
L 319.995055 -548.487122 
L 319.952428 -543.494382 
L 319.979401 -538.501643 
L 320.107502 -533.508903 
L 320.364262 -528.516163 
L 320.767829 -523.523423 
L 321.320346 -518.530683 
L 322.003167 -513.537944 
L 322.778449 -508.545204 
L 323.600535 -503.552464 
L 324.43621 -498.559724 
L 325.287118 -493.566984 
L 326.203314 -488.574245 
L 327.27773 -483.581505 
L 328.618013 -478.588765 
L 330.302711 -473.596025 
L 332.337998 -468.603285 
L 334.634261 -463.610546 
L 337.016223 -458.617806 
L 339.26763 -453.625066 
L 341.196812 -448.632326 
L 342.69914 -443.639586 
L 343.791715 -438.646847 
L 344.605747 -433.654107 
L 345.339295 -428.661367 
L 346.189756 -423.668627 
L 347.293839 -418.675887 
L 348.698379 -413.683147 
L 350.37058 -408.690408 
L 352.238381 -403.697668 
L 354.239317 -398.704928 
L 356.354894 -393.712188 
L 358.616556 -388.719448 
L 361.083885 -383.726709 
L 363.808706 -378.733969 
L 366.804518 -373.741229 
L 370.036748 -368.748489 
L 373.437577 -363.755749 
L 376.935468 -358.76301 
L 380.481612 -353.77027 
L 384.058093 -348.77753 
L 387.664343 -343.78479 
L 391.291642 -338.79205 
L 394.901132 -333.799311 
L 398.415484 -328.806571 
L 401.72309 -323.813831 
L 404.686284 -318.821091 
L 407.147928 -313.828351 
L 408.940628 -308.835611 
L 409.909528 -303.842872 
L 409.954484 -298.850132 
L 409.081673 -293.857392 
L 407.439883 -288.864652 
L 405.315564 -283.871912 
L 403.076996 -278.879173 
L 401.083059 -273.886433 
L 399.590753 -268.893693 
L 398.697012 -263.900953 
L 398.334431 -258.908213 
L 398.317064 -253.915474 
L 398.413739 -248.922734 
L 398.419555 -243.929994 
L 398.201487 -238.937254 
L 397.706489 -233.944514 
L 396.934691 -228.951775 
L 395.892353 -223.959035 
L 394.546456 -218.966295 
L 392.802611 -213.973555 
L 390.519032 -208.980815 
L 387.553408 -203.988075 
L 383.823187 -198.995336 
L 379.351594 -194.002596 
L 374.277155 -189.009856 
L 368.821688 -184.017116 
L 363.231481 -179.024376 
L 357.718234 -174.031637 
L 352.424103 -169.038897 
L 347.421176 -164.046157 
L 342.73825 -159.053417 
L 338.396185 -154.060677 
L 334.432493 -149.067938 
L 330.904807 -144.075198 
L 327.875316 -139.082458 
L 325.387247 -134.089718 
L 323.446248 -129.096978 
L 322.014723 -124.104239 
L 321.019741 -119.111499 
L 320.369322 -114.118759 
z
" style="stroke: #3f3f3f; stroke-width: 1.25"/>
    </defs>
    <g clip-path="url(#p7fc07964ef)">
     <use xlink:href="#m16d91f7a52" x="0" y="720" style="fill: #3274a1; stroke: #3f3f3f; stroke-width: 1.25"/>
    </g>
   </g>
   <g id="PolyCollection_2">
    <defs>
     <path id="ma9f7b60c42" d="M 598.747838 -104.4 
L 598.252162 -104.4 
L 598.091811 -109.040561 
L 597.853986 -113.681122 
L 597.513319 -118.321683 
L 597.038463 -122.962245 
L 596.389255 -127.602806 
L 595.51273 -132.243367 
L 594.339143 -136.883928 
L 592.780209 -141.524489 
L 590.732205 -146.16505 
L 588.086052 -150.805611 
L 584.74463 -155.446172 
L 580.644912 -160.086734 
L 575.779736 -164.727295 
L 570.212386 -169.367856 
L 564.07754 -174.008417 
L 557.565172 -178.648978 
L 550.889226 -183.289539 
L 544.248891 -187.9301 
L 537.794695 -192.570662 
L 531.611942 -197.211223 
L 525.728856 -201.851784 
L 520.147246 -206.492345 
L 514.883358 -211.132906 
L 510.00079 -215.773467 
L 505.619619 -220.414028 
L 501.896276 -225.054589 
L 498.982372 -229.695151 
L 496.980883 -234.335712 
L 495.919004 -238.976273 
L 495.748051 -243.616834 
L 496.366941 -248.257395 
L 497.654789 -252.897956 
L 499.496115 -257.538517 
L 501.789509 -262.179079 
L 504.442143 -266.81964 
L 507.36096 -271.460201 
L 510.45156 -276.100762 
L 513.628503 -280.741323 
L 516.831053 -285.381884 
L 520.032948 -290.022445 
L 523.236974 -294.663006 
L 526.453689 -299.303568 
L 529.673281 -303.944129 
L 532.844608 -308.58469 
L 535.872922 -313.225251 
L 538.639086 -317.865812 
L 541.032905 -322.506373 
L 542.986862 -327.146934 
L 544.497012 -331.787496 
L 545.62427 -336.428057 
L 546.477767 -341.068618 
L 547.188161 -345.709179 
L 547.880159 -350.34974 
L 548.650911 -354.990301 
L 549.557011 -359.630862 
L 550.610183 -364.271423 
L 551.781022 -368.911985 
L 553.01033 -373.552546 
L 554.226848 -378.193107 
L 555.368285 -382.833668 
L 556.400223 -387.474229 
L 557.326834 -392.11479 
L 558.18933 -396.755351 
L 559.0524 -401.395913 
L 559.983719 -406.036474 
L 561.034616 -410.677035 
L 562.229528 -415.317596 
L 563.567966 -419.958157 
L 565.036939 -424.598718 
L 566.626947 -429.239279 
L 568.343071 -433.87984 
L 570.205183 -438.520402 
L 572.236659 -443.160963 
L 574.446557 -447.801524 
L 576.813336 -452.442085 
L 579.277562 -457.082646 
L 581.74729 -461.723207 
L 584.114747 -466.363768 
L 586.278827 -471.004329 
L 588.166163 -475.644891 
L 589.744433 -480.285452 
L 591.02455 -484.926013 
L 592.052076 -489.566574 
L 592.891463 -494.207135 
L 593.608446 -498.847696 
L 594.255728 -503.488257 
L 594.86531 -508.128819 
L 595.448139 -512.76938 
L 595.999387 -517.409941 
L 596.506289 -522.050502 
L 596.955515 -526.691063 
L 597.338088 -531.331624 
L 597.65131 -535.972185 
L 597.898294 -540.612746 
L 598.08623 -545.253308 
L 598.224392 -549.893869 
L 598.322522 -554.53443 
L 598.389776 -559.174991 
L 598.43415 -563.815552 
L 598.56585 -563.815552 
L 598.56585 -563.815552 
L 598.610224 -559.174991 
L 598.677478 -554.53443 
L 598.775608 -549.893869 
L 598.91377 -545.253308 
L 599.101706 -540.612746 
L 599.34869 -535.972185 
L 599.661912 -531.331624 
L 600.044485 -526.691063 
L 600.493711 -522.050502 
L 601.000613 -517.409941 
L 601.551861 -512.76938 
L 602.13469 -508.128819 
L 602.744272 -503.488257 
L 603.391554 -498.847696 
L 604.108537 -494.207135 
L 604.947924 -489.566574 
L 605.97545 -484.926013 
L 607.255567 -480.285452 
L 608.833837 -475.644891 
L 610.721173 -471.004329 
L 612.885253 -466.363768 
L 615.25271 -461.723207 
L 617.722438 -457.082646 
L 620.186664 -452.442085 
L 622.553443 -447.801524 
L 624.763341 -443.160963 
L 626.794817 -438.520402 
L 628.656929 -433.87984 
L 630.373053 -429.239279 
L 631.963061 -424.598718 
L 633.432034 -419.958157 
L 634.770472 -415.317596 
L 635.965384 -410.677035 
L 637.016281 -406.036474 
L 637.9476 -401.395913 
L 638.81067 -396.755351 
L 639.673166 -392.11479 
L 640.599777 -387.474229 
L 641.631715 -382.833668 
L 642.773152 -378.193107 
L 643.98967 -373.552546 
L 645.218978 -368.911985 
L 646.389817 -364.271423 
L 647.442989 -359.630862 
L 648.349089 -354.990301 
L 649.119841 -350.34974 
L 649.811839 -345.709179 
L 650.522233 -341.068618 
L 651.37573 -336.428057 
L 652.502988 -331.787496 
L 654.013138 -327.146934 
L 655.967095 -322.506373 
L 658.360914 -317.865812 
L 661.127078 -313.225251 
L 664.155392 -308.58469 
L 667.326719 -303.944129 
L 670.546311 -299.303568 
L 673.763026 -294.663006 
L 676.967052 -290.022445 
L 680.168947 -285.381884 
L 683.371497 -280.741323 
L 686.54844 -276.100762 
L 689.63904 -271.460201 
L 692.557857 -266.81964 
L 695.210491 -262.179079 
L 697.503885 -257.538517 
L 699.345211 -252.897956 
L 700.633059 -248.257395 
L 701.251949 -243.616834 
L 701.080996 -238.976273 
L 700.019117 -234.335712 
L 698.017628 -229.695151 
L 695.103724 -225.054589 
L 691.380381 -220.414028 
L 686.99921 -215.773467 
L 682.116642 -211.132906 
L 676.852754 -206.492345 
L 671.271144 -201.851784 
L 665.388058 -197.211223 
L 659.205305 -192.570662 
L 652.751109 -187.9301 
L 646.110774 -183.289539 
L 639.434828 -178.648978 
L 632.92246 -174.008417 
L 626.787614 -169.367856 
L 621.220264 -164.727295 
L 616.355088 -160.086734 
L 612.25537 -155.446172 
L 608.913948 -150.805611 
L 606.267795 -146.16505 
L 604.219791 -141.524489 
L 602.660857 -136.883928 
L 601.48727 -132.243367 
L 600.610745 -127.602806 
L 599.961537 -122.962245 
L 599.486681 -118.321683 
L 599.146014 -113.681122 
L 598.908189 -109.040561 
L 598.747838 -104.4 
z
" style="stroke: #3f3f3f; stroke-width: 1.25"/>
    </defs>
    <g clip-path="url(#p7fc07964ef)">
     <use xlink:href="#ma9f7b60c42" x="0" y="720" style="fill: #3274a1; stroke: #3f3f3f; stroke-width: 1.25"/>
    </g>
   </g>
   <g id="PolyCollection_3">
    <defs>
     <path id="md0c411b72d" d="M 877.720603 -153.230228 
L 877.279397 -153.230228 
L 877.082194 -157.783008 
L 876.749704 -162.335788 
L 876.221124 -166.888567 
L 875.428815 -171.441347 
L 874.309084 -175.994126 
L 872.816666 -180.546906 
L 870.938627 -185.099686 
L 868.701018 -189.652465 
L 866.16178 -194.205245 
L 863.387384 -198.758024 
L 860.418175 -203.310804 
L 857.235494 -207.863583 
L 853.747829 -212.416363 
L 849.809801 -216.969143 
L 845.276303 -221.521922 
L 840.078354 -226.074702 
L 834.293675 -230.627481 
L 828.180426 -235.180261 
L 822.150806 -239.73304 
L 816.68155 -244.28582 
L 812.184279 -248.8386 
L 808.879158 -253.391379 
L 806.719481 -257.944159 
L 805.398054 -262.496938 
L 804.434661 -267.049718 
L 803.312021 -271.602497 
L 801.610639 -276.155277 
L 799.098026 -280.708057 
L 795.750806 -285.260836 
L 791.716996 -289.813616 
L 787.246932 -294.366395 
L 782.626535 -298.919175 
L 778.135665 -303.471954 
L 774.034765 -308.024734 
L 770.566008 -312.577514 
L 767.949426 -317.130293 
L 766.361735 -321.683073 
L 765.9 -326.235852 
L 766.54524 -330.788632 
L 768.145804 -335.341412 
L 770.435153 -339.894191 
L 773.086095 -344.446971 
L 775.788464 -348.99975 
L 778.325666 -353.55253 
L 780.62261 -358.105309 
L 782.746167 -362.658089 
L 784.857343 -367.210869 
L 787.13461 -371.763648 
L 789.700315 -376.316428 
L 792.579833 -380.869207 
L 795.707071 -385.421987 
L 798.968747 -389.974766 
L 802.264867 -394.527546 
L 805.559914 -399.080326 
L 808.906868 -403.633105 
L 812.437633 -408.185885 
L 816.32379 -412.738664 
L 820.719433 -417.291444 
L 825.703534 -421.844223 
L 831.241107 -426.397003 
L 837.177601 -430.949783 
L 843.268922 -435.502562 
L 849.235224 -440.055342 
L 854.817941 -444.608121 
L 859.821201 -449.160901 
L 864.128942 -453.713681 
L 867.700685 -458.26646 
L 870.555535 -462.81924 
L 872.753744 -467.372019 
L 874.380809 -471.924799 
L 875.534913 -476.477578 
L 876.316694 -481.030358 
L 876.820735 -485.583138 
L 877.129072 -490.135917 
L 877.307409 -494.688697 
L 877.404181 -499.241476 
L 877.451853 -503.794256 
L 877.469244 -508.347035 
L 877.463611 -512.899815 
L 877.43164 -517.452595 
L 877.359224 -522.005374 
L 877.220943 -526.558154 
L 876.981182 -531.110933 
L 876.599451 -535.663713 
L 876.041767 -540.216492 
L 875.297509 -544.769272 
L 874.397167 -549.322052 
L 873.422837 -553.874831 
L 872.502962 -558.427611 
L 871.787552 -562.98039 
L 871.409026 -567.53317 
L 871.442323 -572.085949 
L 871.880723 -576.638729 
L 872.638058 -581.191509 
L 873.576317 -585.744288 
L 874.546527 -590.297068 
L 875.42639 -594.849847 
L 876.142074 -599.402627 
L 876.67057 -603.955407 
L 878.32943 -603.955407 
L 878.32943 -603.955407 
L 878.857926 -599.402627 
L 879.57361 -594.849847 
L 880.453473 -590.297068 
L 881.423683 -585.744288 
L 882.361942 -581.191509 
L 883.119277 -576.638729 
L 883.557677 -572.085949 
L 883.590974 -567.53317 
L 883.212448 -562.98039 
L 882.497038 -558.427611 
L 881.577163 -553.874831 
L 880.602833 -549.322052 
L 879.702491 -544.769272 
L 878.958233 -540.216492 
L 878.400549 -535.663713 
L 878.018818 -531.110933 
L 877.779057 -526.558154 
L 877.640776 -522.005374 
L 877.56836 -517.452595 
L 877.536389 -512.899815 
L 877.530756 -508.347035 
L 877.548147 -503.794256 
L 877.595819 -499.241476 
L 877.692591 -494.688697 
L 877.870928 -490.135917 
L 878.179265 -485.583138 
L 878.683306 -481.030358 
L 879.465087 -476.477578 
L 880.619191 -471.924799 
L 882.246256 -467.372019 
L 884.444465 -462.81924 
L 887.299315 -458.26646 
L 890.871058 -453.713681 
L 895.178799 -449.160901 
L 900.182059 -444.608121 
L 905.764776 -440.055342 
L 911.731078 -435.502562 
L 917.822399 -430.949783 
L 923.758893 -426.397003 
L 929.296466 -421.844223 
L 934.280567 -417.291444 
L 938.67621 -412.738664 
L 942.562367 -408.185885 
L 946.093132 -403.633105 
L 949.440086 -399.080326 
L 952.735133 -394.527546 
L 956.031253 -389.974766 
L 959.292929 -385.421987 
L 962.420167 -380.869207 
L 965.299685 -376.316428 
L 967.86539 -371.763648 
L 970.142657 -367.210869 
L 972.253833 -362.658089 
L 974.37739 -358.105309 
L 976.674334 -353.55253 
L 979.211536 -348.99975 
L 981.913905 -344.446971 
L 984.564847 -339.894191 
L 986.854196 -335.341412 
L 988.45476 -330.788632 
L 989.1 -326.235852 
L 988.638265 -321.683073 
L 987.050574 -317.130293 
L 984.433992 -312.577514 
L 980.965235 -308.024734 
L 976.864335 -303.471954 
L 972.373465 -298.919175 
L 967.753068 -294.366395 
L 963.283004 -289.813616 
L 959.249194 -285.260836 
L 955.901974 -280.708057 
L 953.389361 -276.155277 
L 951.687979 -271.602497 
L 950.565339 -267.049718 
L 949.601946 -262.496938 
L 948.280519 -257.944159 
L 946.120842 -253.391379 
L 942.815721 -248.8386 
L 938.31845 -244.28582 
L 932.849194 -239.73304 
L 926.819574 -235.180261 
L 920.706325 -230.627481 
L 914.921646 -226.074702 
L 909.723697 -221.521922 
L 905.190199 -216.969143 
L 901.252171 -212.416363 
L 897.764506 -207.863583 
L 894.581825 -203.310804 
L 891.612616 -198.758024 
L 888.83822 -194.205245 
L 886.298982 -189.652465 
L 884.061373 -185.099686 
L 882.183334 -180.546906 
L 880.690916 -175.994126 
L 879.571185 -171.441347 
L 878.778876 -166.888567 
L 878.250296 -162.335788 
L 877.917806 -157.783008 
L 877.720603 -153.230228 
z
" style="stroke: #3f3f3f; stroke-width: 1.25"/>
    </defs>
    <g clip-path="url(#p7fc07964ef)">
     <use xlink:href="#md0c411b72d" x="0" y="720" style="fill: #3274a1; stroke: #3f3f3f; stroke-width: 1.25"/>
    </g>
   </g>
   <g id="PolyCollection_4">
    <defs>
     <path id="m0f49549e2a" d="M 1157.339807 -106.238661 
L 1155.660193 -106.238661 
L 1155.169257 -110.769007 
L 1154.473279 -115.299354 
L 1153.530409 -119.829701 
L 1152.308786 -124.360048 
L 1150.792866 -128.890394 
L 1148.986819 -133.420741 
L 1146.912799 -137.951088 
L 1144.6031 -142.481435 
L 1142.087145 -147.011782 
L 1139.376547 -151.542128 
L 1136.45299 -156.072475 
L 1133.263853 -160.602822 
L 1129.728693 -165.133169 
L 1125.756633 -169.663515 
L 1121.27112 -174.193862 
L 1116.235988 -178.724209 
L 1110.676148 -183.254556 
L 1104.687728 -187.784902 
L 1098.435524 -192.315249 
L 1092.138868 -196.845596 
L 1086.049397 -201.375943 
L 1080.425042 -205.906289 
L 1075.504067 -210.436636 
L 1071.481881 -214.966983 
L 1068.492448 -219.49733 
L 1066.595852 -224.027676 
L 1065.7736 -228.558023 
L 1065.933141 -233.08837 
L 1066.921928 -237.618717 
L 1068.549456 -242.149063 
L 1070.613416 -246.67941 
L 1072.924673 -251.209757 
L 1075.325942 -255.740104 
L 1077.701057 -260.270451 
L 1079.974775 -264.800797 
L 1082.105828 -269.331144 
L 1084.07735 -273.861491 
L 1085.888262 -278.391838 
L 1087.547404 -282.922184 
L 1089.070078 -287.452531 
L 1090.475403 -291.982878 
L 1091.782998 -296.513225 
L 1093.00867 -301.043571 
L 1094.160278 -305.573918 
L 1095.235798 -310.104265 
L 1096.225312 -314.634612 
L 1097.117217 -319.164958 
L 1097.907027 -323.695305 
L 1098.60555 -328.225652 
L 1099.242856 -332.755999 
L 1099.865506 -337.286345 
L 1100.526863 -341.816692 
L 1101.272985 -346.347039 
L 1102.128658 -350.877386 
L 1103.088635 -355.407733 
L 1104.11767 -359.938079 
L 1105.160002 -364.468426 
L 1106.155327 -368.998773 
L 1107.055633 -373.52912 
L 1107.836566 -378.059466 
L 1108.499041 -382.589813 
L 1109.060896 -387.12016 
L 1109.543039 -391.650507 
L 1109.957553 -396.180853 
L 1110.304921 -400.7112 
L 1110.58361 -405.241547 
L 1110.809164 -409.771894 
L 1111.034513 -414.30224 
L 1111.361044 -418.832587 
L 1111.932515 -423.362934 
L 1112.910267 -427.893281 
L 1114.435711 -432.423627 
L 1116.591507 -436.953974 
L 1119.373893 -441.484321 
L 1122.685033 -446.014668 
L 1126.347617 -450.545014 
L 1130.137134 -455.075361 
L 1133.822565 -459.605708 
L 1137.205072 -464.136055 
L 1140.146248 -468.666402 
L 1142.581354 -473.196748 
L 1144.5172 -477.727095 
L 1146.017679 -482.257442 
L 1147.181892 -486.787789 
L 1148.120367 -491.318135 
L 1148.934189 -495.848482 
L 1149.70043 -500.378829 
L 1150.465365 -504.909176 
L 1151.245101 -509.439522 
L 1152.031771 -513.969869 
L 1152.802664 -518.500216 
L 1153.529666 -523.030563 
L 1154.187021 -527.560909 
L 1154.756332 -532.091256 
L 1155.228666 -536.621603 
L 1155.604255 -541.15195 
L 1155.890636 -545.682296 
L 1156.100079 -550.212643 
L 1156.247008 -554.74299 
L 1156.752992 -554.74299 
L 1156.752992 -554.74299 
L 1156.899921 -550.212643 
L 1157.109364 -545.682296 
L 1157.395745 -541.15195 
L 1157.771334 -536.621603 
L 1158.243668 -532.091256 
L 1158.812979 -527.560909 
L 1159.470334 -523.030563 
L 1160.197336 -518.500216 
L 1160.968229 -513.969869 
L 1161.754899 -509.439522 
L 1162.534635 -504.909176 
L 1163.29957 -500.378829 
L 1164.065811 -495.848482 
L 1164.879633 -491.318135 
L 1165.818108 -486.787789 
L 1166.982321 -482.257442 
L 1168.4828 -477.727095 
L 1170.418646 -473.196748 
L 1172.853752 -468.666402 
L 1175.794928 -464.136055 
L 1179.177435 -459.605708 
L 1182.862866 -455.075361 
L 1186.652383 -450.545014 
L 1190.314967 -446.014668 
L 1193.626107 -441.484321 
L 1196.408493 -436.953974 
L 1198.564289 -432.423627 
L 1200.089733 -427.893281 
L 1201.067485 -423.362934 
L 1201.638956 -418.832587 
L 1201.965487 -414.30224 
L 1202.190836 -409.771894 
L 1202.41639 -405.241547 
L 1202.695079 -400.7112 
L 1203.042447 -396.180853 
L 1203.456961 -391.650507 
L 1203.939104 -387.12016 
L 1204.500959 -382.589813 
L 1205.163434 -378.059466 
L 1205.944367 -373.52912 
L 1206.844673 -368.998773 
L 1207.839998 -364.468426 
L 1208.88233 -359.938079 
L 1209.911365 -355.407733 
L 1210.871342 -350.877386 
L 1211.727015 -346.347039 
L 1212.473137 -341.816692 
L 1213.134494 -337.286345 
L 1213.757144 -332.755999 
L 1214.39445 -328.225652 
L 1215.092973 -323.695305 
L 1215.882783 -319.164958 
L 1216.774688 -314.634612 
L 1217.764202 -310.104265 
L 1218.839722 -305.573918 
L 1219.99133 -301.043571 
L 1221.217002 -296.513225 
L 1222.524597 -291.982878 
L 1223.929922 -287.452531 
L 1225.452596 -282.922184 
L 1227.111738 -278.391838 
L 1228.92265 -273.861491 
L 1230.894172 -269.331144 
L 1233.025225 -264.800797 
L 1235.298943 -260.270451 
L 1237.674058 -255.740104 
L 1240.075327 -251.209757 
L 1242.386584 -246.67941 
L 1244.450544 -242.149063 
L 1246.078072 -237.618717 
L 1247.066859 -233.08837 
L 1247.2264 -228.558023 
L 1246.404148 -224.027676 
L 1244.507552 -219.49733 
L 1241.518119 -214.966983 
L 1237.495933 -210.436636 
L 1232.574958 -205.906289 
L 1226.950603 -201.375943 
L 1220.861132 -196.845596 
L 1214.564476 -192.315249 
L 1208.312272 -187.784902 
L 1202.323852 -183.254556 
L 1196.764012 -178.724209 
L 1191.72888 -174.193862 
L 1187.243367 -169.663515 
L 1183.271307 -165.133169 
L 1179.736147 -160.602822 
L 1176.54701 -156.072475 
L 1173.623453 -151.542128 
L 1170.912855 -147.011782 
L 1168.3969 -142.481435 
L 1166.087201 -137.951088 
L 1164.013181 -133.420741 
L 1162.207134 -128.890394 
L 1160.691214 -124.360048 
L 1159.469591 -119.829701 
L 1158.526721 -115.299354 
L 1157.830743 -110.769007 
L 1157.339807 -106.238661 
z
" style="stroke: #3f3f3f; stroke-width: 1.25"/>
    </defs>
    <g clip-path="url(#p7fc07964ef)">
     <use xlink:href="#m0f49549e2a" x="0" y="720" style="fill: #3274a1; stroke: #3f3f3f; stroke-width: 1.25"/>
    </g>
   </g>
   <g id="matplotlib.axis_1">
    <g id="xtick_1">
     <g id="line2d_1">
      <defs>
       <path id="m6c13ca22e0" d="M 0 0 
L 0 3.5 
" style="stroke: #000000; stroke-width: 0.8"/>
      </defs>
      <g>
       <use xlink:href="#m6c13ca22e0" x="319.5" y="640.8" style="stroke: #000000; stroke-width: 0.8"/>
      </g>
     </g>
     <g id="text_1">
      <!-- max -->
      <g transform="translate(308.60625 655.398438) scale(0.1 -0.1)">
       <defs>
        <path id="DejaVuSans-6d" d="M 3328 2828 
Q 3544 3216 3844 3400 
Q 4144 3584 4550 3584 
Q 5097 3584 5394 3201 
Q 5691 2819 5691 2113 
L 5691 0 
L 5113 0 
L 5113 2094 
Q 5113 2597 4934 2840 
Q 4756 3084 4391 3084 
Q 3944 3084 3684 2787 
Q 3425 2491 3425 1978 
L 3425 0 
L 2847 0 
L 2847 2094 
Q 2847 2600 2669 2842 
Q 2491 3084 2119 3084 
Q 1678 3084 1418 2786 
Q 1159 2488 1159 1978 
L 1159 0 
L 581 0 
L 581 3500 
L 1159 3500 
L 1159 2956 
Q 1356 3278 1631 3431 
Q 1906 3584 2284 3584 
Q 2666 3584 2933 3390 
Q 3200 3197 3328 2828 
z
" transform="scale(0.015625)"/>
        <path id="DejaVuSans-61" d="M 2194 1759 
Q 1497 1759 1228 1600 
Q 959 1441 959 1056 
Q 959 750 1161 570 
Q 1363 391 1709 391 
Q 2188 391 2477 730 
Q 2766 1069 2766 1631 
L 2766 1759 
L 2194 1759 
z
M 3341 1997 
L 3341 0 
L 2766 0 
L 2766 531 
Q 2569 213 2275 61 
Q 1981 -91 1556 -91 
Q 1019 -91 701 211 
Q 384 513 384 1019 
Q 384 1609 779 1909 
Q 1175 2209 1959 2209 
L 2766 2209 
L 2766 2266 
Q 2766 2663 2505 2880 
Q 2244 3097 1772 3097 
Q 1472 3097 1187 3025 
Q 903 2953 641 2809 
L 641 3341 
Q 956 3463 1253 3523 
Q 1550 3584 1831 3584 
Q 2591 3584 2966 3190 
Q 3341 2797 3341 1997 
z
" transform="scale(0.015625)"/>
        <path id="DejaVuSans-78" d="M 3513 3500 
L 2247 1797 
L 3578 0 
L 2900 0 
L 1881 1375 
L 863 0 
L 184 0 
L 1544 1831 
L 300 3500 
L 978 3500 
L 1906 2253 
L 2834 3500 
L 3513 3500 
z
" transform="scale(0.015625)"/>
       </defs>
       <use xlink:href="#DejaVuSans-6d"/>
       <use xlink:href="#DejaVuSans-61" x="97.412109"/>
       <use xlink:href="#DejaVuSans-78" x="158.691406"/>
      </g>
     </g>
    </g>
    <g id="xtick_2">
     <g id="line2d_2">
      <g>
       <use xlink:href="#m6c13ca22e0" x="598.5" y="640.8" style="stroke: #000000; stroke-width: 0.8"/>
      </g>
     </g>
     <g id="text_2">
      <!-- max_fs -->
      <g transform="translate(580.741406 655.398438) scale(0.1 -0.1)">
       <defs>
        <path id="DejaVuSans-5f" d="M 3263 -1063 
L 3263 -1509 
L -63 -1509 
L -63 -1063 
L 3263 -1063 
z
" transform="scale(0.015625)"/>
        <path id="DejaVuSans-66" d="M 2375 4863 
L 2375 4384 
L 1825 4384 
Q 1516 4384 1395 4259 
Q 1275 4134 1275 3809 
L 1275 3500 
L 2222 3500 
L 2222 3053 
L 1275 3053 
L 1275 0 
L 697 0 
L 697 3053 
L 147 3053 
L 147 3500 
L 697 3500 
L 697 3744 
Q 697 4328 969 4595 
Q 1241 4863 1831 4863 
L 2375 4863 
z
" transform="scale(0.015625)"/>
        <path id="DejaVuSans-73" d="M 2834 3397 
L 2834 2853 
Q 2591 2978 2328 3040 
Q 2066 3103 1784 3103 
Q 1356 3103 1142 2972 
Q 928 2841 928 2578 
Q 928 2378 1081 2264 
Q 1234 2150 1697 2047 
L 1894 2003 
Q 2506 1872 2764 1633 
Q 3022 1394 3022 966 
Q 3022 478 2636 193 
Q 2250 -91 1575 -91 
Q 1294 -91 989 -36 
Q 684 19 347 128 
L 347 722 
Q 666 556 975 473 
Q 1284 391 1588 391 
Q 1994 391 2212 530 
Q 2431 669 2431 922 
Q 2431 1156 2273 1281 
Q 2116 1406 1581 1522 
L 1381 1569 
Q 847 1681 609 1914 
Q 372 2147 372 2553 
Q 372 3047 722 3315 
Q 1072 3584 1716 3584 
Q 2034 3584 2315 3537 
Q 2597 3491 2834 3397 
z
" transform="scale(0.015625)"/>
       </defs>
       <use xlink:href="#DejaVuSans-6d"/>
       <use xlink:href="#DejaVuSans-61" x="97.412109"/>
       <use xlink:href="#DejaVuSans-78" x="158.691406"/>
       <use xlink:href="#DejaVuSans-5f" x="217.871094"/>
       <use xlink:href="#DejaVuSans-66" x="267.871094"/>
       <use xlink:href="#DejaVuSans-73" x="303.076172"/>
      </g>
     </g>
    </g>
    <g id="xtick_3">
     <g id="line2d_3">
      <g>
       <use xlink:href="#m6c13ca22e0" x="877.5" y="640.8" style="stroke: #000000; stroke-width: 0.8"/>
      </g>
     </g>
     <g id="text_3">
      <!-- max_mem_5_fs_glit -->
      <g transform="translate(828.330469 655.398438) scale(0.1 -0.1)">
       <defs>
        <path id="DejaVuSans-65" d="M 3597 1894 
L 3597 1613 
L 953 1613 
Q 991 1019 1311 708 
Q 1631 397 2203 397 
Q 2534 397 2845 478 
Q 3156 559 3463 722 
L 3463 178 
Q 3153 47 2828 -22 
Q 2503 -91 2169 -91 
Q 1331 -91 842 396 
Q 353 884 353 1716 
Q 353 2575 817 3079 
Q 1281 3584 2069 3584 
Q 2775 3584 3186 3129 
Q 3597 2675 3597 1894 
z
M 3022 2063 
Q 3016 2534 2758 2815 
Q 2500 3097 2075 3097 
Q 1594 3097 1305 2825 
Q 1016 2553 972 2059 
L 3022 2063 
z
" transform="scale(0.015625)"/>
        <path id="DejaVuSans-35" d="M 691 4666 
L 3169 4666 
L 3169 4134 
L 1269 4134 
L 1269 2991 
Q 1406 3038 1543 3061 
Q 1681 3084 1819 3084 
Q 2600 3084 3056 2656 
Q 3513 2228 3513 1497 
Q 3513 744 3044 326 
Q 2575 -91 1722 -91 
Q 1428 -91 1123 -41 
Q 819 9 494 109 
L 494 744 
Q 775 591 1075 516 
Q 1375 441 1709 441 
Q 2250 441 2565 725 
Q 2881 1009 2881 1497 
Q 2881 1984 2565 2268 
Q 2250 2553 1709 2553 
Q 1456 2553 1204 2497 
Q 953 2441 691 2322 
L 691 4666 
z
" transform="scale(0.015625)"/>
        <path id="DejaVuSans-67" d="M 2906 1791 
Q 2906 2416 2648 2759 
Q 2391 3103 1925 3103 
Q 1463 3103 1205 2759 
Q 947 2416 947 1791 
Q 947 1169 1205 825 
Q 1463 481 1925 481 
Q 2391 481 2648 825 
Q 2906 1169 2906 1791 
z
M 3481 434 
Q 3481 -459 3084 -895 
Q 2688 -1331 1869 -1331 
Q 1566 -1331 1297 -1286 
Q 1028 -1241 775 -1147 
L 775 -588 
Q 1028 -725 1275 -790 
Q 1522 -856 1778 -856 
Q 2344 -856 2625 -561 
Q 2906 -266 2906 331 
L 2906 616 
Q 2728 306 2450 153 
Q 2172 0 1784 0 
Q 1141 0 747 490 
Q 353 981 353 1791 
Q 353 2603 747 3093 
Q 1141 3584 1784 3584 
Q 2172 3584 2450 3431 
Q 2728 3278 2906 2969 
L 2906 3500 
L 3481 3500 
L 3481 434 
z
" transform="scale(0.015625)"/>
        <path id="DejaVuSans-6c" d="M 603 4863 
L 1178 4863 
L 1178 0 
L 603 0 
L 603 4863 
z
" transform="scale(0.015625)"/>
        <path id="DejaVuSans-69" d="M 603 3500 
L 1178 3500 
L 1178 0 
L 603 0 
L 603 3500 
z
M 603 4863 
L 1178 4863 
L 1178 4134 
L 603 4134 
L 603 4863 
z
" transform="scale(0.015625)"/>
        <path id="DejaVuSans-74" d="M 1172 4494 
L 1172 3500 
L 2356 3500 
L 2356 3053 
L 1172 3053 
L 1172 1153 
Q 1172 725 1289 603 
Q 1406 481 1766 481 
L 2356 481 
L 2356 0 
L 1766 0 
Q 1100 0 847 248 
Q 594 497 594 1153 
L 594 3053 
L 172 3053 
L 172 3500 
L 594 3500 
L 594 4494 
L 1172 4494 
z
" transform="scale(0.015625)"/>
       </defs>
       <use xlink:href="#DejaVuSans-6d"/>
       <use xlink:href="#DejaVuSans-61" x="97.412109"/>
       <use xlink:href="#DejaVuSans-78" x="158.691406"/>
       <use xlink:href="#DejaVuSans-5f" x="217.871094"/>
       <use xlink:href="#DejaVuSans-6d" x="267.871094"/>
       <use xlink:href="#DejaVuSans-65" x="365.283203"/>
       <use xlink:href="#DejaVuSans-6d" x="426.806641"/>
       <use xlink:href="#DejaVuSans-5f" x="524.21875"/>
       <use xlink:href="#DejaVuSans-35" x="574.21875"/>
       <use xlink:href="#DejaVuSans-5f" x="637.841797"/>
       <use xlink:href="#DejaVuSans-66" x="687.841797"/>
       <use xlink:href="#DejaVuSans-73" x="723.046875"/>
       <use xlink:href="#DejaVuSans-5f" x="775.146484"/>
       <use xlink:href="#DejaVuSans-67" x="825.146484"/>
       <use xlink:href="#DejaVuSans-6c" x="888.623047"/>
       <use xlink:href="#DejaVuSans-69" x="916.40625"/>
       <use xlink:href="#DejaVuSans-74" x="944.189453"/>
      </g>
     </g>
    </g>
    <g id="xtick_4">
     <g id="line2d_4">
      <g>
       <use xlink:href="#m6c13ca22e0" x="1156.5" y="640.8" style="stroke: #000000; stroke-width: 0.8"/>
      </g>
     </g>
     <g id="text_4">
      <!-- max_fs_glit -->
      <g transform="translate(1128.328906 655.398438) scale(0.1 -0.1)">
       <use xlink:href="#DejaVuSans-6d"/>
       <use xlink:href="#DejaVuSans-61" x="97.412109"/>
       <use xlink:href="#DejaVuSans-78" x="158.691406"/>
       <use xlink:href="#DejaVuSans-5f" x="217.871094"/>
       <use xlink:href="#DejaVuSans-66" x="267.871094"/>
       <use xlink:href="#DejaVuSans-73" x="303.076172"/>
       <use xlink:href="#DejaVuSans-5f" x="355.175781"/>
       <use xlink:href="#DejaVuSans-67" x="405.175781"/>
       <use xlink:href="#DejaVuSans-6c" x="468.652344"/>
       <use xlink:href="#DejaVuSans-69" x="496.435547"/>
       <use xlink:href="#DejaVuSans-74" x="524.21875"/>
      </g>
     </g>
    </g>
    <g id="text_5">
     <!-- file name -->
     <g transform="translate(714.616406 669.354687) scale(0.1 -0.1)">
      <defs>
       <path id="DejaVuSans-20" transform="scale(0.015625)"/>
       <path id="DejaVuSans-6e" d="M 3513 2113 
L 3513 0 
L 2938 0 
L 2938 2094 
Q 2938 2591 2744 2837 
Q 2550 3084 2163 3084 
Q 1697 3084 1428 2787 
Q 1159 2491 1159 1978 
L 1159 0 
L 581 0 
L 581 3500 
L 1159 3500 
L 1159 2956 
Q 1366 3272 1645 3428 
Q 1925 3584 2291 3584 
Q 2894 3584 3203 3211 
Q 3513 2838 3513 2113 
z
" transform="scale(0.015625)"/>
      </defs>
      <use xlink:href="#DejaVuSans-66"/>
      <use xlink:href="#DejaVuSans-69" x="35.205078"/>
      <use xlink:href="#DejaVuSans-6c" x="62.988281"/>
      <use xlink:href="#DejaVuSans-65" x="90.771484"/>
      <use xlink:href="#DejaVuSans-20" x="152.294922"/>
      <use xlink:href="#DejaVuSans-6e" x="184.082031"/>
      <use xlink:href="#DejaVuSans-61" x="247.460938"/>
      <use xlink:href="#DejaVuSans-6d" x="308.740234"/>
      <use xlink:href="#DejaVuSans-65" x="406.152344"/>
     </g>
    </g>
   </g>
   <g id="matplotlib.axis_2">
    <g id="ytick_1">
     <g id="line2d_5">
      <defs>
       <path id="m7207dac938" d="M 0 0 
L -3.5 0 
" style="stroke: #000000; stroke-width: 0.8"/>
      </defs>
      <g>
       <use xlink:href="#m7207dac938" x="180" y="623.162657" style="stroke: #000000; stroke-width: 0.8"/>
      </g>
     </g>
     <g id="text_6">
      <!-- −0.2 -->
      <g transform="translate(148.717187 626.961876) scale(0.1 -0.1)">
       <defs>
        <path id="DejaVuSans-2212" d="M 678 2272 
L 4684 2272 
L 4684 1741 
L 678 1741 
L 678 2272 
z
" transform="scale(0.015625)"/>
        <path id="DejaVuSans-30" d="M 2034 4250 
Q 1547 4250 1301 3770 
Q 1056 3291 1056 2328 
Q 1056 1369 1301 889 
Q 1547 409 2034 409 
Q 2525 409 2770 889 
Q 3016 1369 3016 2328 
Q 3016 3291 2770 3770 
Q 2525 4250 2034 4250 
z
M 2034 4750 
Q 2819 4750 3233 4129 
Q 3647 3509 3647 2328 
Q 3647 1150 3233 529 
Q 2819 -91 2034 -91 
Q 1250 -91 836 529 
Q 422 1150 422 2328 
Q 422 3509 836 4129 
Q 1250 4750 2034 4750 
z
" transform="scale(0.015625)"/>
        <path id="DejaVuSans-2e" d="M 684 794 
L 1344 794 
L 1344 0 
L 684 0 
L 684 794 
z
" transform="scale(0.015625)"/>
        <path id="DejaVuSans-32" d="M 1228 531 
L 3431 531 
L 3431 0 
L 469 0 
L 469 531 
Q 828 903 1448 1529 
Q 2069 2156 2228 2338 
Q 2531 2678 2651 2914 
Q 2772 3150 2772 3378 
Q 2772 3750 2511 3984 
Q 2250 4219 1831 4219 
Q 1534 4219 1204 4116 
Q 875 4013 500 3803 
L 500 4441 
Q 881 4594 1212 4672 
Q 1544 4750 1819 4750 
Q 2544 4750 2975 4387 
Q 3406 4025 3406 3419 
Q 3406 3131 3298 2873 
Q 3191 2616 2906 2266 
Q 2828 2175 2409 1742 
Q 1991 1309 1228 531 
z
" transform="scale(0.015625)"/>
       </defs>
       <use xlink:href="#DejaVuSans-2212"/>
       <use xlink:href="#DejaVuSans-30" x="83.789062"/>
       <use xlink:href="#DejaVuSans-2e" x="147.412109"/>
       <use xlink:href="#DejaVuSans-32" x="179.199219"/>
      </g>
     </g>
    </g>
    <g id="ytick_2">
     <g id="line2d_6">
      <g>
       <use xlink:href="#m7207dac938" x="180" y="544.393681" style="stroke: #000000; stroke-width: 0.8"/>
      </g>
     </g>
     <g id="text_7">
      <!-- 0.0 -->
      <g transform="translate(157.096875 548.1929) scale(0.1 -0.1)">
       <use xlink:href="#DejaVuSans-30"/>
       <use xlink:href="#DejaVuSans-2e" x="63.623047"/>
       <use xlink:href="#DejaVuSans-30" x="95.410156"/>
      </g>
     </g>
    </g>
    <g id="ytick_3">
     <g id="line2d_7">
      <g>
       <use xlink:href="#m7207dac938" x="180" y="465.624704" style="stroke: #000000; stroke-width: 0.8"/>
      </g>
     </g>
     <g id="text_8">
      <!-- 0.2 -->
      <g transform="translate(157.096875 469.423923) scale(0.1 -0.1)">
       <use xlink:href="#DejaVuSans-30"/>
       <use xlink:href="#DejaVuSans-2e" x="63.623047"/>
       <use xlink:href="#DejaVuSans-32" x="95.410156"/>
      </g>
     </g>
    </g>
    <g id="ytick_4">
     <g id="line2d_8">
      <g>
       <use xlink:href="#m7207dac938" x="180" y="386.855728" style="stroke: #000000; stroke-width: 0.8"/>
      </g>
     </g>
     <g id="text_9">
      <!-- 0.4 -->
      <g transform="translate(157.096875 390.654946) scale(0.1 -0.1)">
       <defs>
        <path id="DejaVuSans-34" d="M 2419 4116 
L 825 1625 
L 2419 1625 
L 2419 4116 
z
M 2253 4666 
L 3047 4666 
L 3047 1625 
L 3713 1625 
L 3713 1100 
L 3047 1100 
L 3047 0 
L 2419 0 
L 2419 1100 
L 313 1100 
L 313 1709 
L 2253 4666 
z
" transform="scale(0.015625)"/>
       </defs>
       <use xlink:href="#DejaVuSans-30"/>
       <use xlink:href="#DejaVuSans-2e" x="63.623047"/>
       <use xlink:href="#DejaVuSans-34" x="95.410156"/>
      </g>
     </g>
    </g>
    <g id="ytick_5">
     <g id="line2d_9">
      <g>
       <use xlink:href="#m7207dac938" x="180" y="308.086751" style="stroke: #000000; stroke-width: 0.8"/>
      </g>
     </g>
     <g id="text_10">
      <!-- 0.6 -->
      <g transform="translate(157.096875 311.88597) scale(0.1 -0.1)">
       <defs>
        <path id="DejaVuSans-36" d="M 2113 2584 
Q 1688 2584 1439 2293 
Q 1191 2003 1191 1497 
Q 1191 994 1439 701 
Q 1688 409 2113 409 
Q 2538 409 2786 701 
Q 3034 994 3034 1497 
Q 3034 2003 2786 2293 
Q 2538 2584 2113 2584 
z
M 3366 4563 
L 3366 3988 
Q 3128 4100 2886 4159 
Q 2644 4219 2406 4219 
Q 1781 4219 1451 3797 
Q 1122 3375 1075 2522 
Q 1259 2794 1537 2939 
Q 1816 3084 2150 3084 
Q 2853 3084 3261 2657 
Q 3669 2231 3669 1497 
Q 3669 778 3244 343 
Q 2819 -91 2113 -91 
Q 1303 -91 875 529 
Q 447 1150 447 2328 
Q 447 3434 972 4092 
Q 1497 4750 2381 4750 
Q 2619 4750 2861 4703 
Q 3103 4656 3366 4563 
z
" transform="scale(0.015625)"/>
       </defs>
       <use xlink:href="#DejaVuSans-30"/>
       <use xlink:href="#DejaVuSans-2e" x="63.623047"/>
       <use xlink:href="#DejaVuSans-36" x="95.410156"/>
      </g>
     </g>
    </g>
    <g id="ytick_6">
     <g id="line2d_10">
      <g>
       <use xlink:href="#m7207dac938" x="180" y="229.317774" style="stroke: #000000; stroke-width: 0.8"/>
      </g>
     </g>
     <g id="text_11">
      <!-- 0.8 -->
      <g transform="translate(157.096875 233.116993) scale(0.1 -0.1)">
       <defs>
        <path id="DejaVuSans-38" d="M 2034 2216 
Q 1584 2216 1326 1975 
Q 1069 1734 1069 1313 
Q 1069 891 1326 650 
Q 1584 409 2034 409 
Q 2484 409 2743 651 
Q 3003 894 3003 1313 
Q 3003 1734 2745 1975 
Q 2488 2216 2034 2216 
z
M 1403 2484 
Q 997 2584 770 2862 
Q 544 3141 544 3541 
Q 544 4100 942 4425 
Q 1341 4750 2034 4750 
Q 2731 4750 3128 4425 
Q 3525 4100 3525 3541 
Q 3525 3141 3298 2862 
Q 3072 2584 2669 2484 
Q 3125 2378 3379 2068 
Q 3634 1759 3634 1313 
Q 3634 634 3220 271 
Q 2806 -91 2034 -91 
Q 1263 -91 848 271 
Q 434 634 434 1313 
Q 434 1759 690 2068 
Q 947 2378 1403 2484 
z
M 1172 3481 
Q 1172 3119 1398 2916 
Q 1625 2713 2034 2713 
Q 2441 2713 2670 2916 
Q 2900 3119 2900 3481 
Q 2900 3844 2670 4047 
Q 2441 4250 2034 4250 
Q 1625 4250 1398 4047 
Q 1172 3844 1172 3481 
z
" transform="scale(0.015625)"/>
       </defs>
       <use xlink:href="#DejaVuSans-30"/>
       <use xlink:href="#DejaVuSans-2e" x="63.623047"/>
       <use xlink:href="#DejaVuSans-38" x="95.410156"/>
      </g>
     </g>
    </g>
    <g id="ytick_7">
     <g id="line2d_11">
      <g>
       <use xlink:href="#m7207dac938" x="180" y="150.548798" style="stroke: #000000; stroke-width: 0.8"/>
      </g>
     </g>
     <g id="text_12">
      <!-- 1.0 -->
      <g transform="translate(157.096875 154.348017) scale(0.1 -0.1)">
       <defs>
        <path id="DejaVuSans-31" d="M 794 531 
L 1825 531 
L 1825 4091 
L 703 3866 
L 703 4441 
L 1819 4666 
L 2450 4666 
L 2450 531 
L 3481 531 
L 3481 0 
L 794 0 
L 794 531 
z
" transform="scale(0.015625)"/>
       </defs>
       <use xlink:href="#DejaVuSans-31"/>
       <use xlink:href="#DejaVuSans-2e" x="63.623047"/>
       <use xlink:href="#DejaVuSans-30" x="95.410156"/>
      </g>
     </g>
    </g>
    <g id="text_13">
     <!-- cosine similarity -->
     <g transform="translate(142.6375 404.307031) rotate(-90) scale(0.1 -0.1)">
      <defs>
       <path id="DejaVuSans-63" d="M 3122 3366 
L 3122 2828 
Q 2878 2963 2633 3030 
Q 2388 3097 2138 3097 
Q 1578 3097 1268 2742 
Q 959 2388 959 1747 
Q 959 1106 1268 751 
Q 1578 397 2138 397 
Q 2388 397 2633 464 
Q 2878 531 3122 666 
L 3122 134 
Q 2881 22 2623 -34 
Q 2366 -91 2075 -91 
Q 1284 -91 818 406 
Q 353 903 353 1747 
Q 353 2603 823 3093 
Q 1294 3584 2113 3584 
Q 2378 3584 2631 3529 
Q 2884 3475 3122 3366 
z
" transform="scale(0.015625)"/>
       <path id="DejaVuSans-6f" d="M 1959 3097 
Q 1497 3097 1228 2736 
Q 959 2375 959 1747 
Q 959 1119 1226 758 
Q 1494 397 1959 397 
Q 2419 397 2687 759 
Q 2956 1122 2956 1747 
Q 2956 2369 2687 2733 
Q 2419 3097 1959 3097 
z
M 1959 3584 
Q 2709 3584 3137 3096 
Q 3566 2609 3566 1747 
Q 3566 888 3137 398 
Q 2709 -91 1959 -91 
Q 1206 -91 779 398 
Q 353 888 353 1747 
Q 353 2609 779 3096 
Q 1206 3584 1959 3584 
z
" transform="scale(0.015625)"/>
       <path id="DejaVuSans-72" d="M 2631 2963 
Q 2534 3019 2420 3045 
Q 2306 3072 2169 3072 
Q 1681 3072 1420 2755 
Q 1159 2438 1159 1844 
L 1159 0 
L 581 0 
L 581 3500 
L 1159 3500 
L 1159 2956 
Q 1341 3275 1631 3429 
Q 1922 3584 2338 3584 
Q 2397 3584 2469 3576 
Q 2541 3569 2628 3553 
L 2631 2963 
z
" transform="scale(0.015625)"/>
       <path id="DejaVuSans-79" d="M 2059 -325 
Q 1816 -950 1584 -1140 
Q 1353 -1331 966 -1331 
L 506 -1331 
L 506 -850 
L 844 -850 
Q 1081 -850 1212 -737 
Q 1344 -625 1503 -206 
L 1606 56 
L 191 3500 
L 800 3500 
L 1894 763 
L 2988 3500 
L 3597 3500 
L 2059 -325 
z
" transform="scale(0.015625)"/>
      </defs>
      <use xlink:href="#DejaVuSans-63"/>
      <use xlink:href="#DejaVuSans-6f" x="54.980469"/>
      <use xlink:href="#DejaVuSans-73" x="116.162109"/>
      <use xlink:href="#DejaVuSans-69" x="168.261719"/>
      <use xlink:href="#DejaVuSans-6e" x="196.044922"/>
      <use xlink:href="#DejaVuSans-65" x="259.423828"/>
      <use xlink:href="#DejaVuSans-20" x="320.947266"/>
      <use xlink:href="#DejaVuSans-73" x="352.734375"/>
      <use xlink:href="#DejaVuSans-69" x="404.833984"/>
      <use xlink:href="#DejaVuSans-6d" x="432.617188"/>
      <use xlink:href="#DejaVuSans-69" x="530.029297"/>
      <use xlink:href="#DejaVuSans-6c" x="557.8125"/>
      <use xlink:href="#DejaVuSans-61" x="585.595703"/>
      <use xlink:href="#DejaVuSans-72" x="646.875"/>
      <use xlink:href="#DejaVuSans-69" x="687.988281"/>
      <use xlink:href="#DejaVuSans-74" x="715.771484"/>
      <use xlink:href="#DejaVuSans-79" x="754.980469"/>
     </g>
    </g>
   </g>
   <g id="line2d_12">
    <path d="M 319.5 566.932443 
L 319.5 224.827592 
" clip-path="url(#p7fc07964ef)" style="fill: none; stroke: #3f3f3f; stroke-width: 1.875; stroke-linecap: square"/>
   </g>
   <g id="line2d_13">
    <path d="M 319.5 486.737544 
L 319.5 373.233802 
" clip-path="url(#p7fc07964ef)" style="fill: none; stroke: #3f3f3f; stroke-width: 5.625; stroke-linecap: square"/>
   </g>
   <g id="line2d_14">
    <path d="M 319.5 428.195971 
" clip-path="url(#p7fc07964ef)" style="fill: none; stroke: #3f3f3f; stroke-width: 1.5; stroke-linecap: square"/>
    <defs>
     <path id="m2bf0cc07c4" d="M 2.34375 0 
L -2.34375 -0 
" style="stroke: #ffffff; stroke-width: 1.125"/>
    </defs>
    <g clip-path="url(#p7fc07964ef)">
     <use xlink:href="#m2bf0cc07c4" x="319.5" y="428.195971" style="fill: #ffffff; stroke: #ffffff; stroke-width: 1.125"/>
    </g>
   </g>
   <g id="line2d_15">
    <path d="M 598.5 576.307206 
L 598.5 216.053676 
" clip-path="url(#p7fc07964ef)" style="fill: none; stroke: #3f3f3f; stroke-width: 1.875; stroke-linecap: square"/>
   </g>
   <g id="line2d_16">
    <path d="M 598.5 488.446484 
L 598.5 371.96532 
" clip-path="url(#p7fc07964ef)" style="fill: none; stroke: #3f3f3f; stroke-width: 5.625; stroke-linecap: square"/>
   </g>
   <g id="line2d_17">
    <path d="M 598.5 445.833161 
" clip-path="url(#p7fc07964ef)" style="fill: none; stroke: #3f3f3f; stroke-width: 1.5; stroke-linecap: square"/>
    <g clip-path="url(#p7fc07964ef)">
     <use xlink:href="#m2bf0cc07c4" x="598.5" y="445.833161" style="fill: #ffffff; stroke: #ffffff; stroke-width: 1.125"/>
    </g>
   </g>
   <g id="line2d_18">
    <path d="M 877.5 532.265614 
L 877.5 261.32307 
" clip-path="url(#p7fc07964ef)" style="fill: none; stroke: #3f3f3f; stroke-width: 1.875; stroke-linecap: square"/>
   </g>
   <g id="line2d_19">
    <path d="M 877.5 434.665641 
L 877.5 344.742413 
" clip-path="url(#p7fc07964ef)" style="fill: none; stroke: #3f3f3f; stroke-width: 5.625; stroke-linecap: square"/>
   </g>
   <g id="line2d_20">
    <path d="M 877.5 388.967007 
" clip-path="url(#p7fc07964ef)" style="fill: none; stroke: #3f3f3f; stroke-width: 1.5; stroke-linecap: square"/>
    <g clip-path="url(#p7fc07964ef)">
     <use xlink:href="#m2bf0cc07c4" x="877.5" y="388.967007" style="fill: #ffffff; stroke: #ffffff; stroke-width: 1.125"/>
    </g>
   </g>
   <g id="line2d_21">
    <path d="M 1156.5 571.19498 
L 1156.5 207.82337 
" clip-path="url(#p7fc07964ef)" style="fill: none; stroke: #3f3f3f; stroke-width: 1.875; stroke-linecap: square"/>
   </g>
   <g id="line2d_22">
    <path d="M 1156.5 489.444393 
L 1156.5 356.364714 
" clip-path="url(#p7fc07964ef)" style="fill: none; stroke: #3f3f3f; stroke-width: 5.625; stroke-linecap: square"/>
   </g>
   <g id="line2d_23">
    <path d="M 1156.5 433.77459 
" clip-path="url(#p7fc07964ef)" style="fill: none; stroke: #3f3f3f; stroke-width: 1.5; stroke-linecap: square"/>
    <g clip-path="url(#p7fc07964ef)">
     <use xlink:href="#m2bf0cc07c4" x="1156.5" y="433.77459" style="fill: #ffffff; stroke: #ffffff; stroke-width: 1.125"/>
    </g>
   </g>
   <g id="patch_3">
    <path d="M 180 640.8 
L 180 86.4 
" style="fill: none; stroke: #000000; stroke-width: 0.8; stroke-linejoin: miter; stroke-linecap: square"/>
   </g>
   <g id="patch_4">
    <path d="M 1296 640.8 
L 1296 86.4 
" style="fill: none; stroke: #000000; stroke-width: 0.8; stroke-linejoin: miter; stroke-linecap: square"/>
   </g>
   <g id="patch_5">
    <path d="M 180 640.8 
L 1296 640.8 
" style="fill: none; stroke: #000000; stroke-width: 0.8; stroke-linejoin: miter; stroke-linecap: square"/>
   </g>
   <g id="patch_6">
    <path d="M 180 86.4 
L 1296 86.4 
" style="fill: none; stroke: #000000; stroke-width: 0.8; stroke-linejoin: miter; stroke-linecap: square"/>
   </g>
   <g id="text_14">
    <!-- cosine similarity of general (distanceFromInitialPrompt), by file name -->
    <g transform="translate(530.608125 80.4) scale(0.12 -0.12)">
     <defs>
      <path id="DejaVuSans-28" d="M 1984 4856 
Q 1566 4138 1362 3434 
Q 1159 2731 1159 2009 
Q 1159 1288 1364 580 
Q 1569 -128 1984 -844 
L 1484 -844 
Q 1016 -109 783 600 
Q 550 1309 550 2009 
Q 550 2706 781 3412 
Q 1013 4119 1484 4856 
L 1984 4856 
z
" transform="scale(0.015625)"/>
      <path id="DejaVuSans-64" d="M 2906 2969 
L 2906 4863 
L 3481 4863 
L 3481 0 
L 2906 0 
L 2906 525 
Q 2725 213 2448 61 
Q 2172 -91 1784 -91 
Q 1150 -91 751 415 
Q 353 922 353 1747 
Q 353 2572 751 3078 
Q 1150 3584 1784 3584 
Q 2172 3584 2448 3432 
Q 2725 3281 2906 2969 
z
M 947 1747 
Q 947 1113 1208 752 
Q 1469 391 1925 391 
Q 2381 391 2643 752 
Q 2906 1113 2906 1747 
Q 2906 2381 2643 2742 
Q 2381 3103 1925 3103 
Q 1469 3103 1208 2742 
Q 947 2381 947 1747 
z
" transform="scale(0.015625)"/>
      <path id="DejaVuSans-46" d="M 628 4666 
L 3309 4666 
L 3309 4134 
L 1259 4134 
L 1259 2759 
L 3109 2759 
L 3109 2228 
L 1259 2228 
L 1259 0 
L 628 0 
L 628 4666 
z
" transform="scale(0.015625)"/>
      <path id="DejaVuSans-49" d="M 628 4666 
L 1259 4666 
L 1259 0 
L 628 0 
L 628 4666 
z
" transform="scale(0.015625)"/>
      <path id="DejaVuSans-50" d="M 1259 4147 
L 1259 2394 
L 2053 2394 
Q 2494 2394 2734 2622 
Q 2975 2850 2975 3272 
Q 2975 3691 2734 3919 
Q 2494 4147 2053 4147 
L 1259 4147 
z
M 628 4666 
L 2053 4666 
Q 2838 4666 3239 4311 
Q 3641 3956 3641 3272 
Q 3641 2581 3239 2228 
Q 2838 1875 2053 1875 
L 1259 1875 
L 1259 0 
L 628 0 
L 628 4666 
z
" transform="scale(0.015625)"/>
      <path id="DejaVuSans-70" d="M 1159 525 
L 1159 -1331 
L 581 -1331 
L 581 3500 
L 1159 3500 
L 1159 2969 
Q 1341 3281 1617 3432 
Q 1894 3584 2278 3584 
Q 2916 3584 3314 3078 
Q 3713 2572 3713 1747 
Q 3713 922 3314 415 
Q 2916 -91 2278 -91 
Q 1894 -91 1617 61 
Q 1341 213 1159 525 
z
M 3116 1747 
Q 3116 2381 2855 2742 
Q 2594 3103 2138 3103 
Q 1681 3103 1420 2742 
Q 1159 2381 1159 1747 
Q 1159 1113 1420 752 
Q 1681 391 2138 391 
Q 2594 391 2855 752 
Q 3116 1113 3116 1747 
z
" transform="scale(0.015625)"/>
      <path id="DejaVuSans-29" d="M 513 4856 
L 1013 4856 
Q 1481 4119 1714 3412 
Q 1947 2706 1947 2009 
Q 1947 1309 1714 600 
Q 1481 -109 1013 -844 
L 513 -844 
Q 928 -128 1133 580 
Q 1338 1288 1338 2009 
Q 1338 2731 1133 3434 
Q 928 4138 513 4856 
z
" transform="scale(0.015625)"/>
      <path id="DejaVuSans-2c" d="M 750 794 
L 1409 794 
L 1409 256 
L 897 -744 
L 494 -744 
L 750 256 
L 750 794 
z
" transform="scale(0.015625)"/>
      <path id="DejaVuSans-62" d="M 3116 1747 
Q 3116 2381 2855 2742 
Q 2594 3103 2138 3103 
Q 1681 3103 1420 2742 
Q 1159 2381 1159 1747 
Q 1159 1113 1420 752 
Q 1681 391 2138 391 
Q 2594 391 2855 752 
Q 3116 1113 3116 1747 
z
M 1159 2969 
Q 1341 3281 1617 3432 
Q 1894 3584 2278 3584 
Q 2916 3584 3314 3078 
Q 3713 2572 3713 1747 
Q 3713 922 3314 415 
Q 2916 -91 2278 -91 
Q 1894 -91 1617 61 
Q 1341 213 1159 525 
L 1159 0 
L 581 0 
L 581 4863 
L 1159 4863 
L 1159 2969 
z
" transform="scale(0.015625)"/>
     </defs>
     <use xlink:href="#DejaVuSans-63"/>
     <use xlink:href="#DejaVuSans-6f" x="54.980469"/>
     <use xlink:href="#DejaVuSans-73" x="116.162109"/>
     <use xlink:href="#DejaVuSans-69" x="168.261719"/>
     <use xlink:href="#DejaVuSans-6e" x="196.044922"/>
     <use xlink:href="#DejaVuSans-65" x="259.423828"/>
     <use xlink:href="#DejaVuSans-20" x="320.947266"/>
     <use xlink:href="#DejaVuSans-73" x="352.734375"/>
     <use xlink:href="#DejaVuSans-69" x="404.833984"/>
     <use xlink:href="#DejaVuSans-6d" x="432.617188"/>
     <use xlink:href="#DejaVuSans-69" x="530.029297"/>
     <use xlink:href="#DejaVuSans-6c" x="557.8125"/>
     <use xlink:href="#DejaVuSans-61" x="585.595703"/>
     <use xlink:href="#DejaVuSans-72" x="646.875"/>
     <use xlink:href="#DejaVuSans-69" x="687.988281"/>
     <use xlink:href="#DejaVuSans-74" x="715.771484"/>
     <use xlink:href="#DejaVuSans-79" x="754.980469"/>
     <use xlink:href="#DejaVuSans-20" x="814.160156"/>
     <use xlink:href="#DejaVuSans-6f" x="845.947266"/>
     <use xlink:href="#DejaVuSans-66" x="907.128906"/>
     <use xlink:href="#DejaVuSans-20" x="942.333984"/>
     <use xlink:href="#DejaVuSans-67" x="974.121094"/>
     <use xlink:href="#DejaVuSans-65" x="1037.597656"/>
     <use xlink:href="#DejaVuSans-6e" x="1099.121094"/>
     <use xlink:href="#DejaVuSans-65" x="1162.5"/>
     <use xlink:href="#DejaVuSans-72" x="1224.023438"/>
     <use xlink:href="#DejaVuSans-61" x="1265.136719"/>
     <use xlink:href="#DejaVuSans-6c" x="1326.416016"/>
     <use xlink:href="#DejaVuSans-20" x="1354.199219"/>
     <use xlink:href="#DejaVuSans-28" x="1385.986328"/>
     <use xlink:href="#DejaVuSans-64" x="1425"/>
     <use xlink:href="#DejaVuSans-69" x="1488.476562"/>
     <use xlink:href="#DejaVuSans-73" x="1516.259766"/>
     <use xlink:href="#DejaVuSans-74" x="1568.359375"/>
     <use xlink:href="#DejaVuSans-61" x="1607.568359"/>
     <use xlink:href="#DejaVuSans-6e" x="1668.847656"/>
     <use xlink:href="#DejaVuSans-63" x="1732.226562"/>
     <use xlink:href="#DejaVuSans-65" x="1787.207031"/>
     <use xlink:href="#DejaVuSans-46" x="1848.730469"/>
     <use xlink:href="#DejaVuSans-72" x="1899"/>
     <use xlink:href="#DejaVuSans-6f" x="1937.863281"/>
     <use xlink:href="#DejaVuSans-6d" x="1999.044922"/>
     <use xlink:href="#DejaVuSans-49" x="2096.457031"/>
     <use xlink:href="#DejaVuSans-6e" x="2125.949219"/>
     <use xlink:href="#DejaVuSans-69" x="2189.328125"/>
     <use xlink:href="#DejaVuSans-74" x="2217.111328"/>
     <use xlink:href="#DejaVuSans-69" x="2256.320312"/>
     <use xlink:href="#DejaVuSans-61" x="2284.103516"/>
     <use xlink:href="#DejaVuSans-6c" x="2345.382812"/>
     <use xlink:href="#DejaVuSans-50" x="2373.166016"/>
     <use xlink:href="#DejaVuSans-72" x="2431.71875"/>
     <use xlink:href="#DejaVuSans-6f" x="2470.582031"/>
     <use xlink:href="#DejaVuSans-6d" x="2531.763672"/>
     <use xlink:href="#DejaVuSans-70" x="2629.175781"/>
     <use xlink:href="#DejaVuSans-74" x="2692.652344"/>
     <use xlink:href="#DejaVuSans-29" x="2731.861328"/>
     <use xlink:href="#DejaVuSans-2c" x="2770.875"/>
     <use xlink:href="#DejaVuSans-20" x="2802.662109"/>
     <use xlink:href="#DejaVuSans-62" x="2834.449219"/>
     <use xlink:href="#DejaVuSans-79" x="2897.925781"/>
     <use xlink:href="#DejaVuSans-20" x="2957.105469"/>
     <use xlink:href="#DejaVuSans-66" x="2988.892578"/>
     <use xlink:href="#DejaVuSans-69" x="3024.097656"/>
     <use xlink:href="#DejaVuSans-6c" x="3051.880859"/>
     <use xlink:href="#DejaVuSans-65" x="3079.664062"/>
     <use xlink:href="#DejaVuSans-20" x="3141.1875"/>
     <use xlink:href="#DejaVuSans-6e" x="3172.974609"/>
     <use xlink:href="#DejaVuSans-61" x="3236.353516"/>
     <use xlink:href="#DejaVuSans-6d" x="3297.632812"/>
     <use xlink:href="#DejaVuSans-65" x="3395.044922"/>
    </g>
   </g>
  </g>
 </g>
 <defs>
  <clipPath id="p7fc07964ef">
   <rect x="180" y="86.4" width="1116" height="554.4"/>
  </clipPath>
 </defs>
</svg>
