<?xml version="1.0" encoding="utf-8" standalone="no"?>
<!DOCTYPE svg PUBLIC "-//W3C//DTD SVG 1.1//EN"
  "http://www.w3.org/Graphics/SVG/1.1/DTD/svg11.dtd">
<svg xmlns:xlink="http://www.w3.org/1999/xlink" width="1440pt" height="720pt" viewBox="0 0 1440 720" xmlns="http://www.w3.org/2000/svg" version="1.1">
 <metadata>
  <rdf:RDF xmlns:dc="http://purl.org/dc/elements/1.1/" xmlns:cc="http://creativecommons.org/ns#" xmlns:rdf="http://www.w3.org/1999/02/22-rdf-syntax-ns#">
   <cc:Work>
    <dc:type rdf:resource="http://purl.org/dc/dcmitype/StillImage"/>
    <dc:date>2024-07-24T23:04:59.766560</dc:date>
    <dc:format>image/svg+xml</dc:format>
    <dc:creator>
     <cc:Agent>
      <dc:title>Matplotlib v3.8.0, https://matplotlib.org/</dc:title>
     </cc:Agent>
    </dc:creator>
   </cc:Work>
  </rdf:RDF>
 </metadata>
 <defs>
  <style type="text/css">*{stroke-linejoin: round; stroke-linecap: butt}</style>
 </defs>
 <g id="figure_1">
  <g id="patch_1">
   <path d="M 0 720 
L 1440 720 
L 1440 0 
L 0 0 
z
" style="fill: #ffffff"/>
  </g>
  <g id="axes_1">
   <g id="patch_2">
    <path d="M 180 640.8 
L 1296 640.8 
L 1296 86.4 
L 180 86.4 
z
" style="fill: #ffffff"/>
   </g>
   <g id="PolyCollection_1">
    <defs>
     <path id="mb7b25b0fe5" d="M 235.881864 -134.44463 
L 235.718136 -134.44463 
L 235.666814 -139.181269 
L 235.593522 -143.917909 
L 235.494622 -148.654548 
L 235.368415 -153.391187 
L 235.215758 -158.127826 
L 235.03984 -162.864465 
L 234.84478 -167.601105 
L 234.633061 -172.337744 
L 234.402383 -177.074383 
L 234.142979 -181.811022 
L 233.836639 -186.547662 
L 233.45839 -191.284301 
L 232.981005 -196.02094 
L 232.381458 -200.757579 
L 231.647545 -205.494219 
L 230.782473 -210.230858 
L 229.805622 -214.967497 
L 228.748741 -219.704136 
L 227.648363 -224.440776 
L 226.536579 -229.177415 
L 225.433115 -233.914054 
L 224.341431 -238.650693 
L 223.250364 -243.387332 
L 222.140897 -248.123972 
L 220.995616 -252.860611 
L 219.807126 -257.59725 
L 218.581682 -262.333889 
L 217.335923 -267.070529 
L 216.087334 -271.807168 
L 214.841917 -276.543807 
L 213.584271 -281.280446 
L 212.274889 -286.017086 
L 210.857023 -290.753725 
L 209.271838 -295.490364 
L 207.477332 -300.227003 
L 205.46505 -304.963643 
L 203.269495 -309.700282 
L 200.96773 -314.436921 
L 198.669827 -319.17356 
L 196.503137 -323.910199 
L 194.594153 -328.646839 
L 193.051184 -333.383478 
L 191.950028 -338.120117 
L 191.324055 -342.856756 
L 191.16 -347.593396 
L 191.400836 -352.330035 
L 191.956465 -357.066674 
L 192.721249 -361.803313 
L 193.594864 -366.539953 
L 194.500934 -371.276592 
L 195.397771 -376.013231 
L 196.277897 -380.74987 
L 197.157178 -385.48651 
L 198.058509 -390.223149 
L 198.997136 -394.959788 
L 199.973741 -399.696427 
L 200.977823 -404.433066 
L 201.999274 -409.169706 
L 203.04241 -413.906345 
L 204.135598 -418.642984 
L 205.331355 -423.379623 
L 206.695616 -428.116263 
L 208.289086 -432.852902 
L 210.146674 -437.589541 
L 212.261852 -442.32618 
L 214.581195 -447.06282 
L 217.0111 -451.799459 
L 219.434883 -456.536098 
L 221.735433 -461.272737 
L 223.817176 -466.009377 
L 225.621663 -470.746016 
L 227.13324 -475.482655 
L 228.374381 -480.219294 
L 229.393143 -484.955933 
L 230.247176 -489.692573 
L 230.989007 -494.429212 
L 231.656122 -499.165851 
L 232.267249 -503.90249 
L 232.824101 -508.63913 
L 233.316525 -513.375769 
L 233.728789 -518.112408 
L 234.045406 -522.849047 
L 234.255824 -527.585687 
L 234.357966 -532.322326 
L 234.360627 -537.058965 
L 234.284417 -541.795604 
L 234.160594 -546.532244 
L 234.027317 -551.268883 
L 233.923533 -556.005522 
L 233.881722 -560.742161 
L 233.921508 -565.4788 
L 234.046104 -570.21544 
L 234.242799 -574.952079 
L 234.487249 -579.688718 
L 234.7501 -584.425357 
L 235.003784 -589.161997 
L 235.227586 -593.898636 
L 235.409955 -598.635275 
L 235.548114 -603.371914 
L 236.051886 -603.371914 
L 236.051886 -603.371914 
L 236.190045 -598.635275 
L 236.372414 -593.898636 
L 236.596216 -589.161997 
L 236.8499 -584.425357 
L 237.112751 -579.688718 
L 237.357201 -574.952079 
L 237.553896 -570.21544 
L 237.678492 -565.4788 
L 237.718278 -560.742161 
L 237.676467 -556.005522 
L 237.572683 -551.268883 
L 237.439406 -546.532244 
L 237.315583 -541.795604 
L 237.239373 -537.058965 
L 237.242034 -532.322326 
L 237.344176 -527.585687 
L 237.554594 -522.849047 
L 237.871211 -518.112408 
L 238.283475 -513.375769 
L 238.775899 -508.63913 
L 239.332751 -503.90249 
L 239.943878 -499.165851 
L 240.610993 -494.429212 
L 241.352824 -489.692573 
L 242.206857 -484.955933 
L 243.225619 -480.219294 
L 244.46676 -475.482655 
L 245.978337 -470.746016 
L 247.782824 -466.009377 
L 249.864567 -461.272737 
L 252.165117 -456.536098 
L 254.5889 -451.799459 
L 257.018805 -447.06282 
L 259.338148 -442.32618 
L 261.453326 -437.589541 
L 263.310914 -432.852902 
L 264.904384 -428.116263 
L 266.268645 -423.379623 
L 267.464402 -418.642984 
L 268.55759 -413.906345 
L 269.600726 -409.169706 
L 270.622177 -404.433066 
L 271.626259 -399.696427 
L 272.602864 -394.959788 
L 273.541491 -390.223149 
L 274.442822 -385.48651 
L 275.322103 -380.74987 
L 276.202229 -376.013231 
L 277.099066 -371.276592 
L 278.005136 -366.539953 
L 278.878751 -361.803313 
L 279.643535 -357.066674 
L 280.199164 -352.330035 
L 280.44 -347.593396 
L 280.275945 -342.856756 
L 279.649972 -338.120117 
L 278.548816 -333.383478 
L 277.005847 -328.646839 
L 275.096863 -323.910199 
L 272.930173 -319.17356 
L 270.63227 -314.436921 
L 268.330505 -309.700282 
L 266.13495 -304.963643 
L 264.122668 -300.227003 
L 262.328162 -295.490364 
L 260.742977 -290.753725 
L 259.325111 -286.017086 
L 258.015729 -281.280446 
L 256.758083 -276.543807 
L 255.512666 -271.807168 
L 254.264077 -267.070529 
L 253.018318 -262.333889 
L 251.792874 -257.59725 
L 250.604384 -252.860611 
L 249.459103 -248.123972 
L 248.349636 -243.387332 
L 247.258569 -238.650693 
L 246.166885 -233.914054 
L 245.063421 -229.177415 
L 243.951637 -224.440776 
L 242.851259 -219.704136 
L 241.794378 -214.967497 
L 240.817527 -210.230858 
L 239.952455 -205.494219 
L 239.218542 -200.757579 
L 238.618995 -196.02094 
L 238.14161 -191.284301 
L 237.763361 -186.547662 
L 237.457021 -181.811022 
L 237.197617 -177.074383 
L 236.966939 -172.337744 
L 236.75522 -167.601105 
L 236.56016 -162.864465 
L 236.384242 -158.127826 
L 236.231585 -153.391187 
L 236.105378 -148.654548 
L 236.006478 -143.917909 
L 235.933186 -139.181269 
L 235.881864 -134.44463 
z
" style="stroke: #3f3f3f; stroke-width: 1.25"/>
    </defs>
    <g clip-path="url(#pa102d2d3b7)">
     <use xlink:href="#mb7b25b0fe5" x="0" y="720" style="fill: #3274a1; stroke: #3f3f3f; stroke-width: 1.25"/>
    </g>
   </g>
   <g id="PolyCollection_2">
    <defs>
     <path id="m09a35558cb" d="M 347.508155 -107.488589 
L 347.291845 -107.488589 
L 347.226652 -112.547357 
L 347.133532 -117.606125 
L 347.006377 -122.664893 
L 346.839798 -127.723661 
L 346.629315 -132.782428 
L 346.370891 -137.841196 
L 346.059697 -142.899964 
L 345.688358 -147.958732 
L 345.245279 -153.0175 
L 344.713908 -158.076268 
L 344.073656 -163.135036 
L 343.302737 -168.193804 
L 342.382477 -173.252571 
L 341.301991 -178.311339 
L 340.061851 -183.370107 
L 338.675615 -188.428875 
L 337.168803 -193.487643 
L 335.57572 -198.546411 
L 333.935168 -203.605179 
L 332.286205 -208.663946 
L 330.664813 -213.722714 
L 329.101721 -218.781482 
L 327.621113 -223.84025 
L 326.239688 -228.899018 
L 324.965674 -233.957786 
L 323.797811 -239.016554 
L 322.724816 -244.075321 
L 321.726114 -249.134089 
L 320.774519 -254.192857 
L 319.841013 -259.251625 
L 318.9009 -264.310393 
L 317.939855 -269.369161 
L 316.958012 -274.427929 
L 315.970631 -279.486696 
L 315.004935 -284.545464 
L 314.094028 -289.604232 
L 313.269927 -294.663 
L 312.557969 -299.721768 
L 311.974268 -304.780536 
L 311.526605 -309.839304 
L 311.21777 -314.898071 
L 311.049552 -319.956839 
L 311.025485 -325.015607 
L 311.151143 -330.074375 
L 311.431851 -335.133143 
L 311.868686 -340.191911 
L 312.454287 -345.250679 
L 313.170132 -350.309446 
L 313.986497 -355.368214 
L 314.865528 -360.426982 
L 315.766872 -365.48575 
L 316.654511 -370.544518 
L 317.50299 -375.603286 
L 318.301432 -380.662054 
L 319.054434 -385.720822 
L 319.779955 -390.779589 
L 320.505206 -395.838357 
L 321.261978 -400.897125 
L 322.08263 -405.955893 
L 322.997296 -411.014661 
L 324.03204 -416.073429 
L 325.207164 -421.132197 
L 326.534901 -426.190964 
L 328.016264 -431.249732 
L 329.637684 -436.3085 
L 331.36873 -441.367268 
L 333.16242 -446.426036 
L 334.959072 -451.484804 
L 336.693608 -456.543572 
L 338.304979 -461.602339 
L 339.745499 -466.661107 
L 340.987663 -471.719875 
L 342.026674 -476.778643 
L 342.878136 -481.837411 
L 343.571732 -486.896179 
L 344.142814 -491.954947 
L 344.62418 -497.013714 
L 345.04002 -502.072482 
L 345.403131 -507.13125 
L 345.715529 -512.190018 
L 345.971698 -517.248786 
L 346.163303 -522.307554 
L 346.284082 -527.366322 
L 346.333826 -532.425089 
L 346.320671 -537.483857 
L 346.261288 -542.542625 
L 346.178932 -547.601393 
L 346.099748 -552.660161 
L 346.048134 -557.718929 
L 346.042293 -562.777697 
L 346.091086 -567.836465 
L 346.193006 -572.895232 
L 346.337496 -577.954 
L 346.508102 -583.012768 
L 346.686491 -588.071536 
L 346.856198 -593.130304 
L 347.005217 -598.189072 
L 347.127033 -603.24784 
L 347.220249 -608.306607 
L 347.579751 -608.306607 
L 347.579751 -608.306607 
L 347.672967 -603.24784 
L 347.794783 -598.189072 
L 347.943802 -593.130304 
L 348.113509 -588.071536 
L 348.291898 -583.012768 
L 348.462504 -577.954 
L 348.606994 -572.895232 
L 348.708914 -567.836465 
L 348.757707 -562.777697 
L 348.751866 -557.718929 
L 348.700252 -552.660161 
L 348.621068 -547.601393 
L 348.538712 -542.542625 
L 348.479329 -537.483857 
L 348.466174 -532.425089 
L 348.515918 -527.366322 
L 348.636697 -522.307554 
L 348.828302 -517.248786 
L 349.084471 -512.190018 
L 349.396869 -507.13125 
L 349.75998 -502.072482 
L 350.17582 -497.013714 
L 350.657186 -491.954947 
L 351.228268 -486.896179 
L 351.921864 -481.837411 
L 352.773326 -476.778643 
L 353.812337 -471.719875 
L 355.054501 -466.661107 
L 356.495021 -461.602339 
L 358.106392 -456.543572 
L 359.840928 -451.484804 
L 361.63758 -446.426036 
L 363.43127 -441.367268 
L 365.162316 -436.3085 
L 366.783736 -431.249732 
L 368.265099 -426.190964 
L 369.592836 -421.132197 
L 370.76796 -416.073429 
L 371.802704 -411.014661 
L 372.71737 -405.955893 
L 373.538022 -400.897125 
L 374.294794 -395.838357 
L 375.020045 -390.779589 
L 375.745566 -385.720822 
L 376.498568 -380.662054 
L 377.29701 -375.603286 
L 378.145489 -370.544518 
L 379.033128 -365.48575 
L 379.934472 -360.426982 
L 380.813503 -355.368214 
L 381.629868 -350.309446 
L 382.345713 -345.250679 
L 382.931314 -340.191911 
L 383.368149 -335.133143 
L 383.648857 -330.074375 
L 383.774515 -325.015607 
L 383.750448 -319.956839 
L 383.58223 -314.898071 
L 383.273395 -309.839304 
L 382.825732 -304.780536 
L 382.242031 -299.721768 
L 381.530073 -294.663 
L 380.705972 -289.604232 
L 379.795065 -284.545464 
L 378.829369 -279.486696 
L 377.841988 -274.427929 
L 376.860145 -269.369161 
L 375.8991 -264.310393 
L 374.958987 -259.251625 
L 374.025481 -254.192857 
L 373.073886 -249.134089 
L 372.075184 -244.075321 
L 371.002189 -239.016554 
L 369.834326 -233.957786 
L 368.560312 -228.899018 
L 367.178887 -223.84025 
L 365.698279 -218.781482 
L 364.135187 -213.722714 
L 362.513795 -208.663946 
L 360.864832 -203.605179 
L 359.22428 -198.546411 
L 357.631197 -193.487643 
L 356.124385 -188.428875 
L 354.738149 -183.370107 
L 353.498009 -178.311339 
L 352.417523 -173.252571 
L 351.497263 -168.193804 
L 350.726344 -163.135036 
L 350.086092 -158.076268 
L 349.554721 -153.0175 
L 349.111642 -147.958732 
L 348.740303 -142.899964 
L 348.429109 -137.841196 
L 348.170685 -132.782428 
L 347.960202 -127.723661 
L 347.793623 -122.664893 
L 347.666468 -117.606125 
L 347.573348 -112.547357 
L 347.508155 -107.488589 
z
" style="stroke: #3f3f3f; stroke-width: 1.25"/>
    </defs>
    <g clip-path="url(#pa102d2d3b7)">
     <use xlink:href="#m09a35558cb" x="0" y="720" style="fill: #3274a1; stroke: #3f3f3f; stroke-width: 1.25"/>
    </g>
   </g>
   <g id="PolyCollection_3">
    <defs>
     <path id="m9c89d9dec7" d="M 459.120159 -108.066192 
L 458.879841 -108.066192 
L 458.80302 -113.113291 
L 458.689872 -118.160389 
L 458.53007 -123.207488 
L 458.312865 -128.254587 
L 458.027329 -133.301685 
L 457.662053 -138.348784 
L 457.204157 -143.395882 
L 456.637918 -148.442981 
L 455.943772 -153.49008 
L 455.098757 -158.537178 
L 454.079368 -163.584277 
L 452.867088 -168.631376 
L 451.455681 -173.678474 
L 449.85816 -178.725573 
L 448.110656 -183.772672 
L 446.27087 -188.81977 
L 444.410289 -193.866869 
L 442.601597 -198.913968 
L 440.904675 -203.961066 
L 439.355473 -209.008165 
L 437.961249 -214.055264 
L 436.703532 -219.102362 
L 435.547417 -224.149461 
L 434.453729 -229.19656 
L 433.389946 -234.243658 
L 432.336798 -239.290757 
L 431.289548 -244.337856 
L 430.255158 -249.384954 
L 429.247766 -254.432053 
L 428.284853 -259.479152 
L 427.385246 -264.52625 
L 426.568587 -269.573349 
L 425.854871 -274.620448 
L 425.262722 -279.667546 
L 424.806063 -284.714645 
L 424.490241 -289.761744 
L 424.309498 -294.808842 
L 424.247492 -299.855941 
L 424.281349 -304.90304 
L 424.38804 -309.950138 
L 424.550691 -314.997237 
L 424.762345 -320.044336 
L 425.025768 -325.091434 
L 425.349602 -330.138533 
L 425.742632 -335.185631 
L 426.208533 -340.23273 
L 426.742974 -345.279829 
L 427.333854 -350.326927 
L 427.964205 -355.374026 
L 428.616544 -360.421125 
L 429.277269 -365.468223 
L 429.939991 -370.515322 
L 430.607129 -375.562421 
L 431.289593 -380.609519 
L 432.004739 -385.656618 
L 432.773133 -390.703717 
L 433.61491 -395.750815 
L 434.546647 -400.797914 
L 435.579443 -405.845013 
L 436.718483 -410.892111 
L 437.963739 -415.93921 
L 439.31097 -420.986309 
L 440.752129 -426.033407 
L 442.274611 -431.080506 
L 443.859535 -436.127605 
L 445.479959 -441.174703 
L 447.100282 -446.221802 
L 448.677925 -451.268901 
L 450.167578 -456.315999 
L 451.527387 -461.363098 
L 452.725543 -466.410197 
L 453.745456 -471.457295 
L 454.587975 -476.504394 
L 455.269978 -481.551493 
L 455.81973 -486.598591 
L 456.27032 -491.64569 
L 456.652957 -496.692789 
L 456.99178 -501.739887 
L 457.301213 -506.786986 
L 457.586086 -511.834085 
L 457.843967 -516.881183 
L 458.06869 -521.928282 
L 458.253975 -526.975381 
L 458.396275 -532.022479 
L 458.49635 -537.069578 
L 458.559475 -542.116676 
L 458.594493 -547.163775 
L 458.61212 -552.210874 
L 458.622976 -557.257972 
L 458.635809 -562.305071 
L 458.656295 -567.35217 
L 458.686601 -572.399268 
L 458.725752 -577.446367 
L 458.770572 -582.493466 
L 458.816912 -587.540564 
L 458.860793 -592.587663 
L 458.899224 -597.634762 
L 458.930564 -602.68186 
L 458.954474 -607.728959 
L 459.045526 -607.728959 
L 459.045526 -607.728959 
L 459.069436 -602.68186 
L 459.100776 -597.634762 
L 459.139207 -592.587663 
L 459.183088 -587.540564 
L 459.229428 -582.493466 
L 459.274248 -577.446367 
L 459.313399 -572.399268 
L 459.343705 -567.35217 
L 459.364191 -562.305071 
L 459.377024 -557.257972 
L 459.38788 -552.210874 
L 459.405507 -547.163775 
L 459.440525 -542.116676 
L 459.50365 -537.069578 
L 459.603725 -532.022479 
L 459.746025 -526.975381 
L 459.93131 -521.928282 
L 460.156033 -516.881183 
L 460.413914 -511.834085 
L 460.698787 -506.786986 
L 461.00822 -501.739887 
L 461.347043 -496.692789 
L 461.72968 -491.64569 
L 462.18027 -486.598591 
L 462.730022 -481.551493 
L 463.412025 -476.504394 
L 464.254544 -471.457295 
L 465.274457 -466.410197 
L 466.472613 -461.363098 
L 467.832422 -456.315999 
L 469.322075 -451.268901 
L 470.899718 -446.221802 
L 472.520041 -441.174703 
L 474.140465 -436.127605 
L 475.725389 -431.080506 
L 477.247871 -426.033407 
L 478.68903 -420.986309 
L 480.036261 -415.93921 
L 481.281517 -410.892111 
L 482.420557 -405.845013 
L 483.453353 -400.797914 
L 484.38509 -395.750815 
L 485.226867 -390.703717 
L 485.995261 -385.656618 
L 486.710407 -380.609519 
L 487.392871 -375.562421 
L 488.060009 -370.515322 
L 488.722731 -365.468223 
L 489.383456 -360.421125 
L 490.035795 -355.374026 
L 490.666146 -350.326927 
L 491.257026 -345.279829 
L 491.791467 -340.23273 
L 492.257368 -335.185631 
L 492.650398 -330.138533 
L 492.974232 -325.091434 
L 493.237655 -320.044336 
L 493.449309 -314.997237 
L 493.61196 -309.950138 
L 493.718651 -304.90304 
L 493.752508 -299.855941 
L 493.690502 -294.808842 
L 493.509759 -289.761744 
L 493.193937 -284.714645 
L 492.737278 -279.667546 
L 492.145129 -274.620448 
L 491.431413 -269.573349 
L 490.614754 -264.52625 
L 489.715147 -259.479152 
L 488.752234 -254.432053 
L 487.744842 -249.384954 
L 486.710452 -244.337856 
L 485.663202 -239.290757 
L 484.610054 -234.243658 
L 483.546271 -229.19656 
L 482.452583 -224.149461 
L 481.296468 -219.102362 
L 480.038751 -214.055264 
L 478.644527 -209.008165 
L 477.095325 -203.961066 
L 475.398403 -198.913968 
L 473.589711 -193.866869 
L 471.72913 -188.81977 
L 469.889344 -183.772672 
L 468.14184 -178.725573 
L 466.544319 -173.678474 
L 465.132912 -168.631376 
L 463.920632 -163.584277 
L 462.901243 -158.537178 
L 462.056228 -153.49008 
L 461.362082 -148.442981 
L 460.795843 -143.395882 
L 460.337947 -138.348784 
L 459.972671 -133.301685 
L 459.687135 -128.254587 
L 459.46993 -123.207488 
L 459.310128 -118.160389 
L 459.19698 -113.113291 
L 459.120159 -108.066192 
z
" style="stroke: #3f3f3f; stroke-width: 1.25"/>
    </defs>
    <g clip-path="url(#pa102d2d3b7)">
     <use xlink:href="#m9c89d9dec7" x="0" y="720" style="fill: #3274a1; stroke: #3f3f3f; stroke-width: 1.25"/>
    </g>
   </g>
   <g id="PolyCollection_4">
    <defs>
     <path id="mf97d38822c" d="M 570.764731 -107.395151 
L 570.435269 -107.395151 
L 570.325768 -112.455806 
L 570.16075 -117.516461 
L 569.92201 -122.577116 
L 569.589778 -127.637771 
L 569.144035 -132.698426 
L 568.565922 -137.759081 
L 567.838999 -142.819736 
L 566.950208 -147.880391 
L 565.890656 -152.941046 
L 564.656461 -158.001701 
L 563.250002 -163.062356 
L 561.681603 -168.123011 
L 559.9713 -173.183666 
L 558.149843 -178.244321 
L 556.25798 -183.304977 
L 554.343354 -188.365632 
L 552.455198 -193.426287 
L 550.637943 -198.486942 
L 548.925517 -203.547597 
L 547.338033 -208.608252 
L 545.881804 -213.668907 
L 544.552357 -218.729562 
L 543.339114 -223.790217 
L 542.229953 -228.850872 
L 541.214283 -233.911527 
L 540.28412 -238.972182 
L 539.433559 -244.032837 
L 538.657577 -249.093492 
L 537.951096 -254.154147 
L 537.308941 -259.214802 
L 536.726867 -264.275457 
L 536.203477 -269.336112 
L 535.742519 -274.396767 
L 535.354868 -279.457422 
L 535.059361 -284.518077 
L 534.881796 -289.578732 
L 534.851727 -294.639387 
L 534.997315 -299.700042 
L 535.339025 -304.760698 
L 535.883485 -309.821353 
L 536.618994 -314.882008 
L 537.514029 -319.942663 
L 538.519663 -325.003318 
L 539.57591 -330.063973 
L 540.620996 -335.124628 
L 541.601513 -340.185283 
L 542.480936 -345.245938 
L 543.244269 -350.306593 
L 543.897789 -355.367248 
L 544.464421 -360.427903 
L 544.976624 -365.488558 
L 545.469186 -370.549213 
L 545.973837 -375.609868 
L 546.516474 -380.670523 
L 547.116628 -385.731178 
L 547.78819 -390.791833 
L 548.540402 -395.852488 
L 549.37863 -400.913143 
L 550.304929 -405.973798 
L 551.318598 -411.034453 
L 552.416798 -416.095108 
L 553.594988 -421.155763 
L 554.846771 -426.216419 
L 556.162865 -431.277074 
L 557.529368 -436.337729 
L 558.925972 -441.398384 
L 560.325101 -446.459039 
L 561.692862 -451.519694 
L 562.992155 -456.580349 
L 564.187518 -461.641004 
L 565.250591 -466.701659 
L 566.164667 -471.762314 
L 566.926999 -476.822969 
L 567.548178 -481.883624 
L 568.048774 -486.944279 
L 568.454273 -492.004934 
L 568.789738 -497.065589 
L 569.075579 -502.126244 
L 569.325271 -507.186899 
L 569.545224 -512.247554 
L 569.736353 -517.308209 
L 569.896587 -522.368864 
L 570.023493 -527.429519 
L 570.116356 -532.490174 
L 570.177365 -537.550829 
L 570.211811 -542.611484 
L 570.227415 -547.67214 
L 570.233053 -552.732795 
L 570.237245 -557.79345 
L 570.246754 -562.854105 
L 570.265648 -567.91476 
L 570.294985 -572.975415 
L 570.333171 -578.03607 
L 570.376812 -583.096725 
L 570.421801 -588.15738 
L 570.464316 -593.218035 
L 570.501529 -598.27869 
L 570.531906 -603.339345 
L 570.55514 -608.4 
L 570.64486 -608.4 
L 570.64486 -608.4 
L 570.668094 -603.339345 
L 570.698471 -598.27869 
L 570.735684 -593.218035 
L 570.778199 -588.15738 
L 570.823188 -583.096725 
L 570.866829 -578.03607 
L 570.905015 -572.975415 
L 570.934352 -567.91476 
L 570.953246 -562.854105 
L 570.962755 -557.79345 
L 570.966947 -552.732795 
L 570.972585 -547.67214 
L 570.988189 -542.611484 
L 571.022635 -537.550829 
L 571.083644 -532.490174 
L 571.176507 -527.429519 
L 571.303413 -522.368864 
L 571.463647 -517.308209 
L 571.654776 -512.247554 
L 571.874729 -507.186899 
L 572.124421 -502.126244 
L 572.410262 -497.065589 
L 572.745727 -492.004934 
L 573.151226 -486.944279 
L 573.651822 -481.883624 
L 574.273001 -476.822969 
L 575.035333 -471.762314 
L 575.949409 -466.701659 
L 577.012482 -461.641004 
L 578.207845 -456.580349 
L 579.507138 -451.519694 
L 580.874899 -446.459039 
L 582.274028 -441.398384 
L 583.670632 -436.337729 
L 585.037135 -431.277074 
L 586.353229 -426.216419 
L 587.605012 -421.155763 
L 588.783202 -416.095108 
L 589.881402 -411.034453 
L 590.895071 -405.973798 
L 591.82137 -400.913143 
L 592.659598 -395.852488 
L 593.41181 -390.791833 
L 594.083372 -385.731178 
L 594.683526 -380.670523 
L 595.226163 -375.609868 
L 595.730814 -370.549213 
L 596.223376 -365.488558 
L 596.735579 -360.427903 
L 597.302211 -355.367248 
L 597.955731 -350.306593 
L 598.719064 -345.245938 
L 599.598487 -340.185283 
L 600.579004 -335.124628 
L 601.62409 -330.063973 
L 602.680337 -325.003318 
L 603.685971 -319.942663 
L 604.581006 -314.882008 
L 605.316515 -309.821353 
L 605.860975 -304.760698 
L 606.202685 -299.700042 
L 606.348273 -294.639387 
L 606.318204 -289.578732 
L 606.140639 -284.518077 
L 605.845132 -279.457422 
L 605.457481 -274.396767 
L 604.996523 -269.336112 
L 604.473133 -264.275457 
L 603.891059 -259.214802 
L 603.248904 -254.154147 
L 602.542423 -249.093492 
L 601.766441 -244.032837 
L 600.91588 -238.972182 
L 599.985717 -233.911527 
L 598.970047 -228.850872 
L 597.860886 -223.790217 
L 596.647643 -218.729562 
L 595.318196 -213.668907 
L 593.861967 -208.608252 
L 592.274483 -203.547597 
L 590.562057 -198.486942 
L 588.744802 -193.426287 
L 586.856646 -188.365632 
L 584.94202 -183.304977 
L 583.050157 -178.244321 
L 581.2287 -173.183666 
L 579.518397 -168.123011 
L 577.949998 -163.062356 
L 576.543539 -158.001701 
L 575.309344 -152.941046 
L 574.249792 -147.880391 
L 573.361001 -142.819736 
L 572.634078 -137.759081 
L 572.055965 -132.698426 
L 571.610222 -127.637771 
L 571.27799 -122.577116 
L 571.03925 -117.516461 
L 570.874232 -112.455806 
L 570.764731 -107.395151 
z
" style="stroke: #3f3f3f; stroke-width: 1.25"/>
    </defs>
    <g clip-path="url(#pa102d2d3b7)">
     <use xlink:href="#mf97d38822c" x="0" y="720" style="fill: #3274a1; stroke: #3f3f3f; stroke-width: 1.25"/>
    </g>
   </g>
   <g id="PolyCollection_5">
    <defs>
     <path id="m8488e0db7f" d="M 682.350988 -108.019126 
L 682.049012 -108.019126 
L 681.947049 -113.067175 
L 681.792168 -118.115225 
L 681.566086 -123.163274 
L 681.248234 -128.211324 
L 680.816703 -133.259373 
L 680.249316 -138.307423 
L 679.524646 -143.355472 
L 678.622958 -148.403522 
L 677.527242 -153.451571 
L 676.224665 -158.499621 
L 674.708766 -163.54767 
L 672.982458 -168.59572 
L 671.061387 -173.643769 
L 668.976659 -178.691819 
L 666.775669 -183.739868 
L 664.519911 -188.787918 
L 662.27943 -193.835967 
L 660.124637 -198.884017 
L 658.117241 -203.932066 
L 656.302555 -208.980116 
L 654.705175 -214.028165 
L 653.329049 -219.076215 
L 652.161609 -224.124264 
L 651.180435 -229.172313 
L 650.360244 -234.220363 
L 649.678087 -239.268412 
L 649.11542 -244.316462 
L 648.656961 -249.364511 
L 648.287589 -254.412561 
L 647.989399 -259.46061 
L 647.741128 -264.50866 
L 647.521186 -269.556709 
L 647.313867 -274.604759 
L 647.116566 -279.652808 
L 646.944871 -284.700858 
L 646.832764 -289.748907 
L 646.826829 -294.796957 
L 646.975639 -299.845006 
L 647.317354 -304.893056 
L 647.869285 -309.941105 
L 648.622442 -314.989155 
L 649.542388 -320.037204 
L 650.575713 -325.085254 
L 651.659959 -330.133303 
L 652.7342 -335.181353 
L 653.747833 -340.229402 
L 654.66606 -345.277452 
L 655.47178 -350.325501 
L 656.164595 -355.373551 
L 656.75815 -360.4216 
L 657.27695 -365.46965 
L 657.753305 -370.517699 
L 658.22439 -375.565749 
L 658.729057 -380.613798 
L 659.304088 -385.661848 
L 659.980046 -390.709897 
L 660.777429 -395.757947 
L 661.704149 -400.805996 
L 662.755139 -405.854046 
L 663.914325 -410.902095 
L 665.158388 -415.950145 
L 666.461187 -420.998194 
L 667.797522 -426.046244 
L 669.145287 -431.094293 
L 670.485656 -436.142343 
L 671.801741 -441.190392 
L 673.0767 -446.238441 
L 674.292432 -451.286491 
L 675.429733 -456.33454 
L 676.470138 -461.38259 
L 677.398905 -466.430639 
L 678.208024 -471.478689 
L 678.89803 -476.526738 
L 679.477784 -481.574788 
L 679.962182 -486.622837 
L 680.36852 -491.670887 
L 680.712739 -496.718936 
L 681.006716 -501.766986 
L 681.257266 -506.815035 
L 681.466846 -511.863085 
L 681.635394 -516.911134 
L 681.762488 -521.959184 
L 681.849143 -527.007233 
L 681.898841 -532.055283 
L 681.917736 -537.103332 
L 681.914164 -542.151382 
L 681.897684 -547.199431 
L 681.877859 -552.247481 
L 681.863016 -557.29553 
L 681.859182 -562.34358 
L 681.869427 -567.391629 
L 681.893753 -572.439679 
L 681.929565 -577.487728 
L 681.972585 -582.535778 
L 682.017974 -587.583827 
L 682.061354 -592.631877 
L 682.099516 -597.679926 
L 682.13071 -602.727976 
L 682.15454 -607.776025 
L 682.24546 -607.776025 
L 682.24546 -607.776025 
L 682.26929 -602.727976 
L 682.300484 -597.679926 
L 682.338646 -592.631877 
L 682.382026 -587.583827 
L 682.427415 -582.535778 
L 682.470435 -577.487728 
L 682.506247 -572.439679 
L 682.530573 -567.391629 
L 682.540818 -562.34358 
L 682.536984 -557.29553 
L 682.522141 -552.247481 
L 682.502316 -547.199431 
L 682.485836 -542.151382 
L 682.482264 -537.103332 
L 682.501159 -532.055283 
L 682.550857 -527.007233 
L 682.637512 -521.959184 
L 682.764606 -516.911134 
L 682.933154 -511.863085 
L 683.142734 -506.815035 
L 683.393284 -501.766986 
L 683.687261 -496.718936 
L 684.03148 -491.670887 
L 684.437818 -486.622837 
L 684.922216 -481.574788 
L 685.50197 -476.526738 
L 686.191976 -471.478689 
L 687.001095 -466.430639 
L 687.929862 -461.38259 
L 688.970267 -456.33454 
L 690.107568 -451.286491 
L 691.3233 -446.238441 
L 692.598259 -441.190392 
L 693.914344 -436.142343 
L 695.254713 -431.094293 
L 696.602478 -426.046244 
L 697.938813 -420.998194 
L 699.241612 -415.950145 
L 700.485675 -410.902095 
L 701.644861 -405.854046 
L 702.695851 -400.805996 
L 703.622571 -395.757947 
L 704.419954 -390.709897 
L 705.095912 -385.661848 
L 705.670943 -380.613798 
L 706.17561 -375.565749 
L 706.646695 -370.517699 
L 707.12305 -365.46965 
L 707.64185 -360.4216 
L 708.235405 -355.373551 
L 708.92822 -350.325501 
L 709.73394 -345.277452 
L 710.652167 -340.229402 
L 711.6658 -335.181353 
L 712.740041 -330.133303 
L 713.824287 -325.085254 
L 714.857612 -320.037204 
L 715.777558 -314.989155 
L 716.530715 -309.941105 
L 717.082646 -304.893056 
L 717.424361 -299.845006 
L 717.573171 -294.796957 
L 717.567236 -289.748907 
L 717.455129 -284.700858 
L 717.283434 -279.652808 
L 717.086133 -274.604759 
L 716.878814 -269.556709 
L 716.658872 -264.50866 
L 716.410601 -259.46061 
L 716.112411 -254.412561 
L 715.743039 -249.364511 
L 715.28458 -244.316462 
L 714.721913 -239.268412 
L 714.039756 -234.220363 
L 713.219565 -229.172313 
L 712.238391 -224.124264 
L 711.070951 -219.076215 
L 709.694825 -214.028165 
L 708.097445 -208.980116 
L 706.282759 -203.932066 
L 704.275363 -198.884017 
L 702.12057 -193.835967 
L 699.880089 -188.787918 
L 697.624331 -183.739868 
L 695.423341 -178.691819 
L 693.338613 -173.643769 
L 691.417542 -168.59572 
L 689.691234 -163.54767 
L 688.175335 -158.499621 
L 686.872758 -153.451571 
L 685.777042 -148.403522 
L 684.875354 -143.355472 
L 684.150684 -138.307423 
L 683.583297 -133.259373 
L 683.151766 -128.211324 
L 682.833914 -123.163274 
L 682.607832 -118.115225 
L 682.452951 -113.067175 
L 682.350988 -108.019126 
z
" style="stroke: #3f3f3f; stroke-width: 1.25"/>
    </defs>
    <g clip-path="url(#pa102d2d3b7)">
     <use xlink:href="#m8488e0db7f" x="0" y="720" style="fill: #3274a1; stroke: #3f3f3f; stroke-width: 1.25"/>
    </g>
   </g>
   <g id="PolyCollection_6">
    <defs>
     <path id="m7f301a8a0c" d="M 793.993659 -109.489953 
L 793.606341 -109.489953 
L 793.472392 -114.508289 
L 793.269916 -119.526624 
L 792.978484 -124.54496 
L 792.578329 -129.563296 
L 792.052717 -134.581632 
L 791.389504 -139.599968 
L 790.580958 -144.618304 
L 789.621431 -149.636639 
L 788.503482 -154.654975 
L 787.214173 -159.673311 
L 785.733906 -164.691647 
L 784.039744 -169.709983 
L 782.113561 -174.728318 
L 779.953073 -179.746654 
L 777.581787 -184.76499 
L 775.05343 -189.783326 
L 772.44786 -194.801662 
L 769.858648 -199.819997 
L 767.375919 -204.838333 
L 765.070259 -209.856669 
L 762.983313 -214.875005 
L 761.128124 -219.893341 
L 759.498499 -224.911676 
L 758.08319 -229.930012 
L 756.878981 -234.948348 
L 755.897359 -239.966684 
L 755.162023 -244.98502 
L 754.698133 -250.003356 
L 754.517544 -255.021691 
L 754.606268 -260.040027 
L 754.92 -265.058363 
L 755.390791 -270.076699 
L 755.943519 -275.095035 
L 756.516495 -280.11337 
L 757.078311 -285.131706 
L 757.634118 -290.150042 
L 758.218707 -295.168378 
L 758.879234 -300.186714 
L 759.654636 -305.205049 
L 760.559801 -310.223385 
L 761.580031 -315.241721 
L 762.676664 -320.260057 
L 763.80023 -325.278393 
L 764.90512 -330.296728 
L 765.960234 -335.315064 
L 766.952656 -340.3334 
L 767.884656 -345.351736 
L 768.766706 -350.370072 
L 769.610038 -355.388408 
L 770.421611 -360.406743 
L 771.202826 -365.425079 
L 771.951661 -370.443415 
L 772.666721 -375.461751 
L 773.35128 -380.480087 
L 774.015703 -385.498422 
L 774.677554 -390.516758 
L 775.359643 -395.535094 
L 776.086942 -400.55343 
L 776.883342 -405.571766 
L 777.768802 -410.590101 
L 778.756896 -415.608437 
L 779.852524 -420.626773 
L 781.049794 -425.645109 
L 782.33055 -430.663445 
L 783.664369 -435.68178 
L 785.010736 -440.700116 
L 786.323506 -445.718452 
L 787.556973 -450.736788 
L 788.672249 -455.755124 
L 789.642501 -460.77346 
L 790.455898 -465.791795 
L 791.115718 -470.810131 
L 791.637797 -475.828467 
L 792.046062 -480.846803 
L 792.367262 -485.865139 
L 792.626113 -490.883474 
L 792.84182 -495.90181 
L 793.026545 -500.920146 
L 793.185766 -505.938482 
L 793.320043 -510.956818 
L 793.427407 -515.975153 
L 793.505647 -520.993489 
L 793.554003 -526.011825 
L 793.574097 -531.030161 
L 793.570165 -536.048497 
L 793.548744 -541.066833 
L 793.517942 -546.085168 
L 793.486397 -551.103504 
L 793.462057 -556.12184 
L 793.450972 -561.140176 
L 793.456382 -566.158512 
L 793.478345 -571.176847 
L 793.514047 -576.195183 
L 793.5587 -581.213519 
L 793.606772 -586.231855 
L 793.65318 -591.250191 
L 793.694152 -596.268526 
L 793.727599 -601.286862 
L 793.753013 -606.305198 
L 793.846987 -606.305198 
L 793.846987 -606.305198 
L 793.872401 -601.286862 
L 793.905848 -596.268526 
L 793.94682 -591.250191 
L 793.993228 -586.231855 
L 794.0413 -581.213519 
L 794.085953 -576.195183 
L 794.121655 -571.176847 
L 794.143618 -566.158512 
L 794.149028 -561.140176 
L 794.137943 -556.12184 
L 794.113603 -551.103504 
L 794.082058 -546.085168 
L 794.051256 -541.066833 
L 794.029835 -536.048497 
L 794.025903 -531.030161 
L 794.045997 -526.011825 
L 794.094353 -520.993489 
L 794.172593 -515.975153 
L 794.279957 -510.956818 
L 794.414234 -505.938482 
L 794.573455 -500.920146 
L 794.75818 -495.90181 
L 794.973887 -490.883474 
L 795.232738 -485.865139 
L 795.553938 -480.846803 
L 795.962203 -475.828467 
L 796.484282 -470.810131 
L 797.144102 -465.791795 
L 797.957499 -460.77346 
L 798.927751 -455.755124 
L 800.043027 -450.736788 
L 801.276494 -445.718452 
L 802.589264 -440.700116 
L 803.935631 -435.68178 
L 805.26945 -430.663445 
L 806.550206 -425.645109 
L 807.747476 -420.626773 
L 808.843104 -415.608437 
L 809.831198 -410.590101 
L 810.716658 -405.571766 
L 811.513058 -400.55343 
L 812.240357 -395.535094 
L 812.922446 -390.516758 
L 813.584297 -385.498422 
L 814.24872 -380.480087 
L 814.933279 -375.461751 
L 815.648339 -370.443415 
L 816.397174 -365.425079 
L 817.178389 -360.406743 
L 817.989962 -355.388408 
L 818.833294 -350.370072 
L 819.715344 -345.351736 
L 820.647344 -340.3334 
L 821.639766 -335.315064 
L 822.69488 -330.296728 
L 823.79977 -325.278393 
L 824.923336 -320.260057 
L 826.019969 -315.241721 
L 827.040199 -310.223385 
L 827.945364 -305.205049 
L 828.720766 -300.186714 
L 829.381293 -295.168378 
L 829.965882 -290.150042 
L 830.521689 -285.131706 
L 831.083505 -280.11337 
L 831.656481 -275.095035 
L 832.209209 -270.076699 
L 832.68 -265.058363 
L 832.993732 -260.040027 
L 833.082456 -255.021691 
L 832.901867 -250.003356 
L 832.437977 -244.98502 
L 831.702641 -239.966684 
L 830.721019 -234.948348 
L 829.51681 -229.930012 
L 828.101501 -224.911676 
L 826.471876 -219.893341 
L 824.616687 -214.875005 
L 822.529741 -209.856669 
L 820.224081 -204.838333 
L 817.741352 -199.819997 
L 815.15214 -194.801662 
L 812.54657 -189.783326 
L 810.018213 -184.76499 
L 807.646927 -179.746654 
L 805.486439 -174.728318 
L 803.560256 -169.709983 
L 801.866094 -164.691647 
L 800.385827 -159.673311 
L 799.096518 -154.654975 
L 797.978569 -149.636639 
L 797.019042 -144.618304 
L 796.210496 -139.599968 
L 795.547283 -134.581632 
L 795.021671 -129.563296 
L 794.621516 -124.54496 
L 794.330084 -119.526624 
L 794.127608 -114.508289 
L 793.993659 -109.489953 
z
" style="stroke: #3f3f3f; stroke-width: 1.25"/>
    </defs>
    <g clip-path="url(#pa102d2d3b7)">
     <use xlink:href="#m7f301a8a0c" x="0" y="720" style="fill: #3274a1; stroke: #3f3f3f; stroke-width: 1.25"/>
    </g>
   </g>
   <g id="PolyCollection_7">
    <defs>
     <path id="m2936ba2483" d="M 905.558667 -104.4 
L 905.241333 -104.4 
L 905.128562 -109.47092 
L 904.955388 -114.541839 
L 904.701706 -119.612759 
L 904.346562 -124.683679 
L 903.870194 -129.754598 
L 903.255789 -134.825518 
L 902.490188 -139.896438 
L 901.563029 -144.967357 
L 900.464473 -150.038277 
L 899.18252 -155.109197 
L 897.701535 -160.180116 
L 896.003563 -165.251036 
L 894.073095 -170.321956 
L 891.904383 -175.392875 
L 889.508934 -180.463795 
L 886.920249 -185.534715 
L 884.193665 -190.605634 
L 881.4011 -195.676554 
L 878.622684 -200.747473 
L 875.938413 -205.818393 
L 873.422595 -210.889313 
L 871.142 -215.960232 
L 869.156485 -221.031152 
L 867.519566 -226.102072 
L 866.276707 -231.172991 
L 865.460542 -236.243911 
L 865.084144 -241.314831 
L 865.134569 -246.38575 
L 865.569194 -251.45667 
L 866.316691 -256.52759 
L 867.28349 -261.598509 
L 868.36534 -266.669429 
L 869.462145 -271.740349 
L 870.492836 -276.811268 
L 871.406263 -281.882188 
L 872.184662 -286.953108 
L 872.838464 -292.024027 
L 873.394496 -297.094947 
L 873.882332 -302.165867 
L 874.324308 -307.236786 
L 874.732874 -312.307706 
L 875.115339 -317.378626 
L 875.482583 -322.449545 
L 875.85661 -327.520465 
L 876.272732 -332.591385 
L 876.774949 -337.662304 
L 877.406205 -342.733224 
L 878.197207 -347.804144 
L 879.157647 -352.875063 
L 880.272412 -357.945983 
L 881.503474 -363.016903 
L 882.796626 -368.087822 
L 884.091274 -373.158742 
L 885.331177 -378.229661 
L 886.474097 -383.300581 
L 887.498587 -388.371501 
L 888.406776 -393.44242 
L 889.222774 -398.51334 
L 889.987207 -403.58426 
L 890.749101 -408.655179 
L 891.556674 -413.726099 
L 892.448625 -418.797019 
L 893.447252 -423.867938 
L 894.55442 -428.938858 
L 895.750976 -434.009778 
L 896.99969 -439.080697 
L 898.25125 -444.151617 
L 899.452213 -449.222537 
L 900.553453 -454.293456 
L 901.517498 -459.364376 
L 902.323394 -464.435296 
L 902.968264 -469.506215 
L 903.465438 -474.577135 
L 903.839796 -479.648055 
L 904.12155 -484.718974 
L 904.340016 -489.789894 
L 904.518768 -494.860814 
L 904.673107 -499.931733 
L 904.809973 -505.002653 
L 904.929806 -510.073573 
L 905.029378 -515.144492 
L 905.104659 -520.215412 
L 905.153016 -525.286332 
L 905.174485 -530.357251 
L 905.172157 -535.428171 
L 905.151878 -540.499091 
L 905.121461 -545.57001 
L 905.089553 -550.64093 
L 905.06431 -555.71185 
L 905.052085 -560.782769 
L 905.056419 -565.853689 
L 905.07759 -570.924608 
L 905.112884 -575.995528 
L 905.157495 -581.066448 
L 905.205784 -586.137367 
L 905.252533 -591.208287 
L 905.293848 -596.279207 
L 905.32756 -601.350126 
L 905.353137 -606.421046 
L 905.446863 -606.421046 
L 905.446863 -606.421046 
L 905.47244 -601.350126 
L 905.506152 -596.279207 
L 905.547467 -591.208287 
L 905.594216 -586.137367 
L 905.642505 -581.066448 
L 905.687116 -575.995528 
L 905.72241 -570.924608 
L 905.743581 -565.853689 
L 905.747915 -560.782769 
L 905.73569 -555.71185 
L 905.710447 -550.64093 
L 905.678539 -545.57001 
L 905.648122 -540.499091 
L 905.627843 -535.428171 
L 905.625515 -530.357251 
L 905.646984 -525.286332 
L 905.695341 -520.215412 
L 905.770622 -515.144492 
L 905.870194 -510.073573 
L 905.990027 -505.002653 
L 906.126893 -499.931733 
L 906.281232 -494.860814 
L 906.459984 -489.789894 
L 906.67845 -484.718974 
L 906.960204 -479.648055 
L 907.334562 -474.577135 
L 907.831736 -469.506215 
L 908.476606 -464.435296 
L 909.282502 -459.364376 
L 910.246547 -454.293456 
L 911.347787 -449.222537 
L 912.54875 -444.151617 
L 913.80031 -439.080697 
L 915.049024 -434.009778 
L 916.24558 -428.938858 
L 917.352748 -423.867938 
L 918.351375 -418.797019 
L 919.243326 -413.726099 
L 920.050899 -408.655179 
L 920.812793 -403.58426 
L 921.577226 -398.51334 
L 922.393224 -393.44242 
L 923.301413 -388.371501 
L 924.325903 -383.300581 
L 925.468823 -378.229661 
L 926.708726 -373.158742 
L 928.003374 -368.087822 
L 929.296526 -363.016903 
L 930.527588 -357.945983 
L 931.642353 -352.875063 
L 932.602793 -347.804144 
L 933.393795 -342.733224 
L 934.025051 -337.662304 
L 934.527268 -332.591385 
L 934.94339 -327.520465 
L 935.317417 -322.449545 
L 935.684661 -317.378626 
L 936.067126 -312.307706 
L 936.475692 -307.236786 
L 936.917668 -302.165867 
L 937.405504 -297.094947 
L 937.961536 -292.024027 
L 938.615338 -286.953108 
L 939.393737 -281.882188 
L 940.307164 -276.811268 
L 941.337855 -271.740349 
L 942.43466 -266.669429 
L 943.51651 -261.598509 
L 944.483309 -256.52759 
L 945.230806 -251.45667 
L 945.665431 -246.38575 
L 945.715856 -241.314831 
L 945.339458 -236.243911 
L 944.523293 -231.172991 
L 943.280434 -226.102072 
L 941.643515 -221.031152 
L 939.658 -215.960232 
L 937.377405 -210.889313 
L 934.861587 -205.818393 
L 932.177316 -200.747473 
L 929.3989 -195.676554 
L 926.606335 -190.605634 
L 923.879751 -185.534715 
L 921.291066 -180.463795 
L 918.895617 -175.392875 
L 916.726905 -170.321956 
L 914.796437 -165.251036 
L 913.098465 -160.180116 
L 911.61748 -155.109197 
L 910.335527 -150.038277 
L 909.236971 -144.967357 
L 908.309812 -139.896438 
L 907.544211 -134.825518 
L 906.929806 -129.754598 
L 906.453438 -124.683679 
L 906.098294 -119.612759 
L 905.844612 -114.541839 
L 905.671438 -109.47092 
L 905.558667 -104.4 
z
" style="stroke: #3f3f3f; stroke-width: 1.25"/>
    </defs>
    <g clip-path="url(#pa102d2d3b7)">
     <use xlink:href="#m2936ba2483" x="0" y="720" style="fill: #3274a1; stroke: #3f3f3f; stroke-width: 1.25"/>
    </g>
   </g>
   <g id="PolyCollection_8">
    <defs>
     <path id="m406a74b87b" d="M 1017.155923 -105.86925 
L 1016.844077 -105.86925 
L 1016.749755 -110.15806 
L 1016.611363 -114.446869 
L 1016.415402 -118.735679 
L 1016.147326 -123.024488 
L 1015.792507 -127.313298 
L 1015.337286 -131.602107 
L 1014.76982 -135.890916 
L 1014.08046 -140.179726 
L 1013.261491 -144.468535 
L 1012.306234 -148.757345 
L 1011.207801 -153.046154 
L 1009.957987 -157.334964 
L 1008.546857 -161.623773 
L 1006.9635 -165.912583 
L 1005.198085 -170.201392 
L 1003.244937 -174.490201 
L 1001.105984 -178.779011 
L 998.793731 -183.06782 
L 996.333004 -187.35663 
L 993.761082 -191.645439 
L 991.126276 -195.934249 
L 988.485416 -200.223058 
L 985.900846 -204.511867 
L 983.437406 -208.800677 
L 981.159539 -213.089486 
L 979.128391 -217.378296 
L 977.398655 -221.667105 
L 976.015085 -225.955915 
L 975.008911 -230.244724 
L 974.394724 -234.533534 
L 974.168447 -238.822343 
L 974.306851 -243.111152 
L 974.768737 -247.399962 
L 975.497589 -251.688771 
L 976.425437 -255.977581 
L 977.477721 -260.26639 
L 978.579086 -264.5552 
L 979.659971 -268.844009 
L 980.663466 -273.132819 
L 981.551426 -277.421628 
L 982.308374 -281.710437 
L 982.941836 -285.999247 
L 983.478436 -290.288056 
L 983.956261 -294.576866 
L 984.415287 -298.865675 
L 984.888395 -303.154485 
L 985.395457 -307.443294 
L 985.941991 -311.732103 
L 986.522351 -316.020913 
L 987.125927 -320.309722 
L 987.74394 -324.598532 
L 988.374423 -328.887341 
L 989.023862 -333.176151 
L 989.70532 -337.46496 
L 990.434101 -341.75377 
L 991.222741 -346.042579 
L 992.077092 -350.331388 
L 992.99458 -354.620198 
L 993.964844 -358.909007 
L 994.97211 -363.197817 
L 995.99823 -367.486626 
L 997.025368 -371.775436 
L 998.037712 -376.064245 
L 999.022091 -380.353054 
L 999.967872 -384.641864 
L 1000.866706 -388.930673 
L 1001.712666 -393.219483 
L 1002.503007 -397.508292 
L 1003.23944 -401.797102 
L 1003.92939 -406.085911 
L 1004.586569 -410.374721 
L 1005.230255 -414.66353 
L 1005.883 -418.952339 
L 1006.566989 -423.241149 
L 1007.299749 -427.529958 
L 1008.090187 -431.818768 
L 1008.935986 -436.107577 
L 1009.823027 -440.396387 
L 1010.727095 -444.685196 
L 1011.617501 -448.974005 
L 1012.461896 -453.262815 
L 1013.231246 -457.551624 
L 1013.904025 -461.840434 
L 1014.468853 -466.129243 
L 1014.925215 -470.418053 
L 1015.282281 -474.706862 
L 1015.556248 -478.995672 
L 1015.766867 -483.284481 
L 1015.933908 -487.57329 
L 1016.074267 -491.8621 
L 1016.20017 -496.150909 
L 1016.318629 -500.439719 
L 1016.432028 -504.728528 
L 1016.53944 -509.017338 
L 1016.638238 -513.306147 
L 1016.725554 -517.594957 
L 1016.799315 -521.883766 
L 1016.858744 -526.172575 
L 1016.904381 -530.461385 
L 1017.095619 -530.461385 
L 1017.095619 -530.461385 
L 1017.141256 -526.172575 
L 1017.200685 -521.883766 
L 1017.274446 -517.594957 
L 1017.361762 -513.306147 
L 1017.46056 -509.017338 
L 1017.567972 -504.728528 
L 1017.681371 -500.439719 
L 1017.79983 -496.150909 
L 1017.925733 -491.8621 
L 1018.066092 -487.57329 
L 1018.233133 -483.284481 
L 1018.443752 -478.995672 
L 1018.717719 -474.706862 
L 1019.074785 -470.418053 
L 1019.531147 -466.129243 
L 1020.095975 -461.840434 
L 1020.768754 -457.551624 
L 1021.538104 -453.262815 
L 1022.382499 -448.974005 
L 1023.272905 -444.685196 
L 1024.176973 -440.396387 
L 1025.064014 -436.107577 
L 1025.909813 -431.818768 
L 1026.700251 -427.529958 
L 1027.433011 -423.241149 
L 1028.117 -418.952339 
L 1028.769745 -414.66353 
L 1029.413431 -410.374721 
L 1030.07061 -406.085911 
L 1030.76056 -401.797102 
L 1031.496993 -397.508292 
L 1032.287334 -393.219483 
L 1033.133294 -388.930673 
L 1034.032128 -384.641864 
L 1034.977909 -380.353054 
L 1035.962288 -376.064245 
L 1036.974632 -371.775436 
L 1038.00177 -367.486626 
L 1039.02789 -363.197817 
L 1040.035156 -358.909007 
L 1041.00542 -354.620198 
L 1041.922908 -350.331388 
L 1042.777259 -346.042579 
L 1043.565899 -341.75377 
L 1044.29468 -337.46496 
L 1044.976138 -333.176151 
L 1045.625577 -328.887341 
L 1046.25606 -324.598532 
L 1046.874073 -320.309722 
L 1047.477649 -316.020913 
L 1048.058009 -311.732103 
L 1048.604543 -307.443294 
L 1049.111605 -303.154485 
L 1049.584713 -298.865675 
L 1050.043739 -294.576866 
L 1050.521564 -290.288056 
L 1051.058164 -285.999247 
L 1051.691626 -281.710437 
L 1052.448574 -277.421628 
L 1053.336534 -273.132819 
L 1054.340029 -268.844009 
L 1055.420914 -264.5552 
L 1056.522279 -260.26639 
L 1057.574563 -255.977581 
L 1058.502411 -251.688771 
L 1059.231263 -247.399962 
L 1059.693149 -243.111152 
L 1059.831553 -238.822343 
L 1059.605276 -234.533534 
L 1058.991089 -230.244724 
L 1057.984915 -225.955915 
L 1056.601345 -221.667105 
L 1054.871609 -217.378296 
L 1052.840461 -213.089486 
L 1050.562594 -208.800677 
L 1048.099154 -204.511867 
L 1045.514584 -200.223058 
L 1042.873724 -195.934249 
L 1040.238918 -191.645439 
L 1037.666996 -187.35663 
L 1035.206269 -183.06782 
L 1032.894016 -178.779011 
L 1030.755063 -174.490201 
L 1028.801915 -170.201392 
L 1027.0365 -165.912583 
L 1025.453143 -161.623773 
L 1024.042013 -157.334964 
L 1022.792199 -153.046154 
L 1021.693766 -148.757345 
L 1020.738509 -144.468535 
L 1019.91954 -140.179726 
L 1019.23018 -135.890916 
L 1018.662714 -131.602107 
L 1018.207493 -127.313298 
L 1017.852674 -123.024488 
L 1017.584598 -118.735679 
L 1017.388637 -114.446869 
L 1017.250245 -110.15806 
L 1017.155923 -105.86925 
z
" style="stroke: #3f3f3f; stroke-width: 1.25"/>
    </defs>
    <g clip-path="url(#pa102d2d3b7)">
     <use xlink:href="#m406a74b87b" x="0" y="720" style="fill: #3274a1; stroke: #3f3f3f; stroke-width: 1.25"/>
    </g>
   </g>
   <g id="PolyCollection_9">
    <defs>
     <path id="m01cdb9839c" d="M 1128.773509 -105.239944 
L 1128.426491 -105.239944 
L 1128.320627 -109.541467 
L 1128.164307 -113.842989 
L 1127.941322 -118.144512 
L 1127.633767 -122.446035 
L 1127.223143 -126.747558 
L 1126.691701 -131.04908 
L 1126.023794 -135.350603 
L 1125.206977 -139.652126 
L 1124.232611 -143.953648 
L 1123.095909 -148.255171 
L 1121.795518 -152.556694 
L 1120.332908 -156.858216 
L 1118.711899 -161.159739 
L 1116.938564 -165.461262 
L 1115.021536 -169.762785 
L 1112.972542 -174.064307 
L 1110.806806 -178.36583 
L 1108.543053 -182.667353 
L 1106.203072 -186.968875 
L 1103.811096 -191.270398 
L 1101.393541 -195.571921 
L 1098.979593 -199.873443 
L 1096.602826 -204.174966 
L 1094.303477 -208.476489 
L 1092.130469 -212.778012 
L 1090.141929 -217.079534 
L 1088.403141 -221.381057 
L 1086.981442 -225.68258 
L 1085.938481 -229.984102 
L 1085.321128 -234.285625 
L 1085.1529 -238.587148 
L 1085.427799 -242.88867 
L 1086.108 -247.190193 
L 1087.126052 -251.491716 
L 1088.391354 -255.793238 
L 1089.799924 -260.094761 
L 1091.246023 -264.396284 
L 1092.633916 -268.697807 
L 1093.888087 -272.999329 
L 1094.960374 -277.300852 
L 1095.832912 -281.602375 
L 1096.516399 -285.903897 
L 1097.044025 -290.20542 
L 1097.462329 -294.506943 
L 1097.820922 -298.808465 
L 1098.163324 -303.109988 
L 1098.520818 -307.411511 
L 1098.910386 -311.713034 
L 1099.336609 -316.014556 
L 1099.79636 -320.316079 
L 1100.284441 -324.617602 
L 1100.798319 -328.919124 
L 1101.340653 -333.220647 
L 1101.919223 -337.52217 
L 1102.54479 -341.823692 
L 1103.227965 -346.125215 
L 1103.976296 -350.426738 
L 1104.792442 -354.728261 
L 1105.673719 -359.029783 
L 1106.612752 -363.331306 
L 1107.598658 -367.632829 
L 1108.618138 -371.934351 
L 1109.656144 -376.235874 
L 1110.696142 -380.537397 
L 1111.720337 -384.838919 
L 1112.71036 -389.140442 
L 1113.648783 -393.441965 
L 1114.521525 -397.743488 
L 1115.320721 -402.04501 
L 1116.047286 -406.346533 
L 1116.71225 -410.648056 
L 1117.336116 -414.949578 
L 1117.945971 -419.251101 
L 1118.57074 -423.552624 
L 1119.235537 -427.854146 
L 1119.956426 -432.155669 
L 1120.736839 -436.457192 
L 1121.566519 -440.758715 
L 1122.423192 -445.060237 
L 1123.276537 -449.36176 
L 1124.093513 -453.663283 
L 1124.843849 -457.964805 
L 1125.504623 -462.266328 
L 1126.063103 -466.567851 
L 1126.51752 -470.869373 
L 1126.875862 -475.170896 
L 1127.153181 -479.472419 
L 1127.368128 -483.773941 
L 1127.53949 -488.075464 
L 1127.683381 -492.376987 
L 1127.811537 -496.67851 
L 1127.930807 -500.980032 
L 1128.043702 -505.281555 
L 1128.149634 -509.583078 
L 1128.246406 -513.8846 
L 1128.331564 -518.186123 
L 1128.403351 -522.487646 
L 1128.46118 -526.789168 
L 1128.505655 -531.090691 
L 1128.694345 -531.090691 
L 1128.694345 -531.090691 
L 1128.73882 -526.789168 
L 1128.796649 -522.487646 
L 1128.868436 -518.186123 
L 1128.953594 -513.8846 
L 1129.050366 -509.583078 
L 1129.156298 -505.281555 
L 1129.269193 -500.980032 
L 1129.388463 -496.67851 
L 1129.516619 -492.376987 
L 1129.66051 -488.075464 
L 1129.831872 -483.773941 
L 1130.046819 -479.472419 
L 1130.324138 -475.170896 
L 1130.68248 -470.869373 
L 1131.136897 -466.567851 
L 1131.695377 -462.266328 
L 1132.356151 -457.964805 
L 1133.106487 -453.663283 
L 1133.923463 -449.36176 
L 1134.776808 -445.060237 
L 1135.633481 -440.758715 
L 1136.463161 -436.457192 
L 1137.243574 -432.155669 
L 1137.964463 -427.854146 
L 1138.62926 -423.552624 
L 1139.254029 -419.251101 
L 1139.863884 -414.949578 
L 1140.48775 -410.648056 
L 1141.152714 -406.346533 
L 1141.879279 -402.04501 
L 1142.678475 -397.743488 
L 1143.551217 -393.441965 
L 1144.48964 -389.140442 
L 1145.479663 -384.838919 
L 1146.503858 -380.537397 
L 1147.543856 -376.235874 
L 1148.581862 -371.934351 
L 1149.601342 -367.632829 
L 1150.587248 -363.331306 
L 1151.526281 -359.029783 
L 1152.407558 -354.728261 
L 1153.223704 -350.426738 
L 1153.972035 -346.125215 
L 1154.65521 -341.823692 
L 1155.280777 -337.52217 
L 1155.859347 -333.220647 
L 1156.401681 -328.919124 
L 1156.915559 -324.617602 
L 1157.40364 -320.316079 
L 1157.863391 -316.014556 
L 1158.289614 -311.713034 
L 1158.679182 -307.411511 
L 1159.036676 -303.109988 
L 1159.379078 -298.808465 
L 1159.737671 -294.506943 
L 1160.155975 -290.20542 
L 1160.683601 -285.903897 
L 1161.367088 -281.602375 
L 1162.239626 -277.300852 
L 1163.311913 -272.999329 
L 1164.566084 -268.697807 
L 1165.953977 -264.396284 
L 1167.400076 -260.094761 
L 1168.808646 -255.793238 
L 1170.073948 -251.491716 
L 1171.092 -247.190193 
L 1171.772201 -242.88867 
L 1172.0471 -238.587148 
L 1171.878872 -234.285625 
L 1171.261519 -229.984102 
L 1170.218558 -225.68258 
L 1168.796859 -221.381057 
L 1167.058071 -217.079534 
L 1165.069531 -212.778012 
L 1162.896523 -208.476489 
L 1160.597174 -204.174966 
L 1158.220407 -199.873443 
L 1155.806459 -195.571921 
L 1153.388904 -191.270398 
L 1150.996928 -186.968875 
L 1148.656947 -182.667353 
L 1146.393194 -178.36583 
L 1144.227458 -174.064307 
L 1142.178464 -169.762785 
L 1140.261436 -165.461262 
L 1138.488101 -161.159739 
L 1136.867092 -156.858216 
L 1135.404482 -152.556694 
L 1134.104091 -148.255171 
L 1132.967389 -143.953648 
L 1131.993023 -139.652126 
L 1131.176206 -135.350603 
L 1130.508299 -131.04908 
L 1129.976857 -126.747558 
L 1129.566233 -122.446035 
L 1129.258678 -118.144512 
L 1129.035693 -113.842989 
L 1128.879373 -109.541467 
L 1128.773509 -105.239944 
z
" style="stroke: #3f3f3f; stroke-width: 1.25"/>
    </defs>
    <g clip-path="url(#pa102d2d3b7)">
     <use xlink:href="#m01cdb9839c" x="0" y="720" style="fill: #3274a1; stroke: #3f3f3f; stroke-width: 1.25"/>
    </g>
   </g>
   <g id="PolyCollection_10">
    <defs>
     <path id="m38950ec5f0" d="M 1240.362713 -106.36008 
L 1240.037287 -106.36008 
L 1239.936183 -110.638974 
L 1239.786056 -114.917868 
L 1239.570826 -119.196761 
L 1239.272556 -123.475655 
L 1238.872428 -127.754549 
L 1238.351908 -132.033442 
L 1237.693888 -136.312336 
L 1236.883577 -140.59123 
L 1235.908974 -144.870123 
L 1234.760975 -149.149017 
L 1233.433296 -153.427911 
L 1231.922576 -157.706804 
L 1230.228943 -161.985698 
L 1228.357127 -166.264592 
L 1226.317858 -170.543485 
L 1224.128964 -174.822379 
L 1221.815515 -179.101273 
L 1219.408556 -183.380167 
L 1216.942541 -187.65906 
L 1214.452187 -191.937954 
L 1211.969937 -196.216848 
L 1209.525214 -200.495741 
L 1207.146068 -204.774635 
L 1204.862902 -209.053529 
L 1202.712925 -213.332422 
L 1200.743387 -217.611316 
L 1199.011732 -221.89021 
L 1197.581587 -226.169103 
L 1196.514823 -230.447997 
L 1195.861229 -234.726891 
L 1195.648208 -239.005784 
L 1195.873046 -243.284678 
L 1196.499727 -247.563572 
L 1197.461123 -251.842465 
L 1198.666224 -256.121359 
L 1200.011072 -260.400253 
L 1201.39149 -264.679147 
L 1202.715563 -268.95804 
L 1203.913973 -273.236934 
L 1204.946659 -277.515828 
L 1205.804788 -281.794721 
L 1206.507723 -286.073615 
L 1207.095513 -290.352509 
L 1207.618411 -294.631402 
L 1208.125594 -298.910296 
L 1208.655614 -303.18919 
L 1209.23069 -307.468083 
L 1209.855931 -311.746977 
L 1210.523191 -316.025871 
L 1211.217939 -320.304764 
L 1211.92671 -324.583658 
L 1212.642766 -328.862552 
L 1213.368338 -333.141446 
L 1214.113141 -337.420339 
L 1214.89012 -341.699233 
L 1215.710213 -345.978127 
L 1216.578088 -350.25702 
L 1217.490257 -354.535914 
L 1218.435999 -358.814808 
L 1219.400505 -363.093701 
L 1220.368931 -367.372595 
L 1221.329858 -371.651489 
L 1222.277007 -375.930382 
L 1223.208777 -380.209276 
L 1224.126028 -384.48817 
L 1225.029152 -388.767063 
L 1225.915732 -393.045957 
L 1226.779816 -397.324851 
L 1227.613207 -401.603744 
L 1228.408349 -405.882638 
L 1229.161758 -410.161532 
L 1229.876656 -414.440426 
L 1230.563679 -418.719319 
L 1231.239169 -422.998213 
L 1231.92136 -427.277107 
L 1232.625469 -431.556 
L 1233.359094 -435.834894 
L 1234.119247 -440.113788 
L 1234.891873 -444.392681 
L 1235.654023 -448.671575 
L 1236.378116 -452.950469 
L 1237.03722 -457.229362 
L 1237.610068 -461.508256 
L 1238.084678 -465.78715 
L 1238.459876 -470.066043 
L 1238.744559 -474.344937 
L 1238.955094 -478.623831 
L 1239.111627 -482.902725 
L 1239.234231 -487.181618 
L 1239.339724 -491.460512 
L 1239.439739 -495.739406 
L 1239.540197 -500.018299 
L 1239.64204 -504.297193 
L 1239.742766 -508.576087 
L 1239.838243 -512.85498 
L 1239.924324 -517.133874 
L 1239.99797 -521.412768 
L 1240.057751 -525.691661 
L 1240.103831 -529.970555 
L 1240.296169 -529.970555 
L 1240.296169 -529.970555 
L 1240.342249 -525.691661 
L 1240.40203 -521.412768 
L 1240.475676 -517.133874 
L 1240.561757 -512.85498 
L 1240.657234 -508.576087 
L 1240.75796 -504.297193 
L 1240.859803 -500.018299 
L 1240.960261 -495.739406 
L 1241.060276 -491.460512 
L 1241.165769 -487.181618 
L 1241.288373 -482.902725 
L 1241.444906 -478.623831 
L 1241.655441 -474.344937 
L 1241.940124 -470.066043 
L 1242.315322 -465.78715 
L 1242.789932 -461.508256 
L 1243.36278 -457.229362 
L 1244.021884 -452.950469 
L 1244.745977 -448.671575 
L 1245.508127 -444.392681 
L 1246.280753 -440.113788 
L 1247.040906 -435.834894 
L 1247.774531 -431.556 
L 1248.47864 -427.277107 
L 1249.160831 -422.998213 
L 1249.836321 -418.719319 
L 1250.523344 -414.440426 
L 1251.238242 -410.161532 
L 1251.991651 -405.882638 
L 1252.786793 -401.603744 
L 1253.620184 -397.324851 
L 1254.484268 -393.045957 
L 1255.370848 -388.767063 
L 1256.273972 -384.48817 
L 1257.191223 -380.209276 
L 1258.122993 -375.930382 
L 1259.070142 -371.651489 
L 1260.031069 -367.372595 
L 1260.999495 -363.093701 
L 1261.964001 -358.814808 
L 1262.909743 -354.535914 
L 1263.821912 -350.25702 
L 1264.689787 -345.978127 
L 1265.50988 -341.699233 
L 1266.286859 -337.420339 
L 1267.031662 -333.141446 
L 1267.757234 -328.862552 
L 1268.47329 -324.583658 
L 1269.182061 -320.304764 
L 1269.876809 -316.025871 
L 1270.544069 -311.746977 
L 1271.16931 -307.468083 
L 1271.744386 -303.18919 
L 1272.274406 -298.910296 
L 1272.781589 -294.631402 
L 1273.304487 -290.352509 
L 1273.892277 -286.073615 
L 1274.595212 -281.794721 
L 1275.453341 -277.515828 
L 1276.486027 -273.236934 
L 1277.684437 -268.95804 
L 1279.00851 -264.679147 
L 1280.388928 -260.400253 
L 1281.733776 -256.121359 
L 1282.938877 -251.842465 
L 1283.900273 -247.563572 
L 1284.526954 -243.284678 
L 1284.751792 -239.005784 
L 1284.538771 -234.726891 
L 1283.885177 -230.447997 
L 1282.818413 -226.169103 
L 1281.388268 -221.89021 
L 1279.656613 -217.611316 
L 1277.687075 -213.332422 
L 1275.537098 -209.053529 
L 1273.253932 -204.774635 
L 1270.874786 -200.495741 
L 1268.430063 -196.216848 
L 1265.947813 -191.937954 
L 1263.457459 -187.65906 
L 1260.991444 -183.380167 
L 1258.584485 -179.101273 
L 1256.271036 -174.822379 
L 1254.082142 -170.543485 
L 1252.042873 -166.264592 
L 1250.171057 -161.985698 
L 1248.477424 -157.706804 
L 1246.966704 -153.427911 
L 1245.639025 -149.149017 
L 1244.491026 -144.870123 
L 1243.516423 -140.59123 
L 1242.706112 -136.312336 
L 1242.048092 -132.033442 
L 1241.527572 -127.754549 
L 1241.127444 -123.475655 
L 1240.829174 -119.196761 
L 1240.613944 -114.917868 
L 1240.463817 -110.638974 
L 1240.362713 -106.36008 
z
" style="stroke: #3f3f3f; stroke-width: 1.25"/>
    </defs>
    <g clip-path="url(#pa102d2d3b7)">
     <use xlink:href="#m38950ec5f0" x="0" y="720" style="fill: #3274a1; stroke: #3f3f3f; stroke-width: 1.25"/>
    </g>
   </g>
   <g id="matplotlib.axis_1">
    <g id="xtick_1">
     <g id="line2d_1">
      <defs>
       <path id="me165d3ca53" d="M 0 0 
L 0 3.5 
" style="stroke: #000000; stroke-width: 0.8"/>
      </defs>
      <g>
       <use xlink:href="#me165d3ca53" x="235.8" y="640.8" style="stroke: #000000; stroke-width: 0.8"/>
      </g>
     </g>
     <g id="text_1">
      <!-- 0 -->
      <g transform="translate(232.61875 655.398438) scale(0.1 -0.1)">
       <defs>
        <path id="DejaVuSans-30" d="M 2034 4250 
Q 1547 4250 1301 3770 
Q 1056 3291 1056 2328 
Q 1056 1369 1301 889 
Q 1547 409 2034 409 
Q 2525 409 2770 889 
Q 3016 1369 3016 2328 
Q 3016 3291 2770 3770 
Q 2525 4250 2034 4250 
z
M 2034 4750 
Q 2819 4750 3233 4129 
Q 3647 3509 3647 2328 
Q 3647 1150 3233 529 
Q 2819 -91 2034 -91 
Q 1250 -91 836 529 
Q 422 1150 422 2328 
Q 422 3509 836 4129 
Q 1250 4750 2034 4750 
z
" transform="scale(0.015625)"/>
       </defs>
       <use xlink:href="#DejaVuSans-30"/>
      </g>
     </g>
    </g>
    <g id="xtick_2">
     <g id="line2d_2">
      <g>
       <use xlink:href="#me165d3ca53" x="347.4" y="640.8" style="stroke: #000000; stroke-width: 0.8"/>
      </g>
     </g>
     <g id="text_2">
      <!-- 1 -->
      <g transform="translate(344.21875 655.398438) scale(0.1 -0.1)">
       <defs>
        <path id="DejaVuSans-31" d="M 794 531 
L 1825 531 
L 1825 4091 
L 703 3866 
L 703 4441 
L 1819 4666 
L 2450 4666 
L 2450 531 
L 3481 531 
L 3481 0 
L 794 0 
L 794 531 
z
" transform="scale(0.015625)"/>
       </defs>
       <use xlink:href="#DejaVuSans-31"/>
      </g>
     </g>
    </g>
    <g id="xtick_3">
     <g id="line2d_3">
      <g>
       <use xlink:href="#me165d3ca53" x="459" y="640.8" style="stroke: #000000; stroke-width: 0.8"/>
      </g>
     </g>
     <g id="text_3">
      <!-- 2 -->
      <g transform="translate(455.81875 655.398438) scale(0.1 -0.1)">
       <defs>
        <path id="DejaVuSans-32" d="M 1228 531 
L 3431 531 
L 3431 0 
L 469 0 
L 469 531 
Q 828 903 1448 1529 
Q 2069 2156 2228 2338 
Q 2531 2678 2651 2914 
Q 2772 3150 2772 3378 
Q 2772 3750 2511 3984 
Q 2250 4219 1831 4219 
Q 1534 4219 1204 4116 
Q 875 4013 500 3803 
L 500 4441 
Q 881 4594 1212 4672 
Q 1544 4750 1819 4750 
Q 2544 4750 2975 4387 
Q 3406 4025 3406 3419 
Q 3406 3131 3298 2873 
Q 3191 2616 2906 2266 
Q 2828 2175 2409 1742 
Q 1991 1309 1228 531 
z
" transform="scale(0.015625)"/>
       </defs>
       <use xlink:href="#DejaVuSans-32"/>
      </g>
     </g>
    </g>
    <g id="xtick_4">
     <g id="line2d_4">
      <g>
       <use xlink:href="#me165d3ca53" x="570.6" y="640.8" style="stroke: #000000; stroke-width: 0.8"/>
      </g>
     </g>
     <g id="text_4">
      <!-- 3 -->
      <g transform="translate(567.41875 655.398438) scale(0.1 -0.1)">
       <defs>
        <path id="DejaVuSans-33" d="M 2597 2516 
Q 3050 2419 3304 2112 
Q 3559 1806 3559 1356 
Q 3559 666 3084 287 
Q 2609 -91 1734 -91 
Q 1441 -91 1130 -33 
Q 819 25 488 141 
L 488 750 
Q 750 597 1062 519 
Q 1375 441 1716 441 
Q 2309 441 2620 675 
Q 2931 909 2931 1356 
Q 2931 1769 2642 2001 
Q 2353 2234 1838 2234 
L 1294 2234 
L 1294 2753 
L 1863 2753 
Q 2328 2753 2575 2939 
Q 2822 3125 2822 3475 
Q 2822 3834 2567 4026 
Q 2313 4219 1838 4219 
Q 1578 4219 1281 4162 
Q 984 4106 628 3988 
L 628 4550 
Q 988 4650 1302 4700 
Q 1616 4750 1894 4750 
Q 2613 4750 3031 4423 
Q 3450 4097 3450 3541 
Q 3450 3153 3228 2886 
Q 3006 2619 2597 2516 
z
" transform="scale(0.015625)"/>
       </defs>
       <use xlink:href="#DejaVuSans-33"/>
      </g>
     </g>
    </g>
    <g id="xtick_5">
     <g id="line2d_5">
      <g>
       <use xlink:href="#me165d3ca53" x="682.2" y="640.8" style="stroke: #000000; stroke-width: 0.8"/>
      </g>
     </g>
     <g id="text_5">
      <!-- 4 -->
      <g transform="translate(679.01875 655.398438) scale(0.1 -0.1)">
       <defs>
        <path id="DejaVuSans-34" d="M 2419 4116 
L 825 1625 
L 2419 1625 
L 2419 4116 
z
M 2253 4666 
L 3047 4666 
L 3047 1625 
L 3713 1625 
L 3713 1100 
L 3047 1100 
L 3047 0 
L 2419 0 
L 2419 1100 
L 313 1100 
L 313 1709 
L 2253 4666 
z
" transform="scale(0.015625)"/>
       </defs>
       <use xlink:href="#DejaVuSans-34"/>
      </g>
     </g>
    </g>
    <g id="xtick_6">
     <g id="line2d_6">
      <g>
       <use xlink:href="#me165d3ca53" x="793.8" y="640.8" style="stroke: #000000; stroke-width: 0.8"/>
      </g>
     </g>
     <g id="text_6">
      <!-- 5 -->
      <g transform="translate(790.61875 655.398438) scale(0.1 -0.1)">
       <defs>
        <path id="DejaVuSans-35" d="M 691 4666 
L 3169 4666 
L 3169 4134 
L 1269 4134 
L 1269 2991 
Q 1406 3038 1543 3061 
Q 1681 3084 1819 3084 
Q 2600 3084 3056 2656 
Q 3513 2228 3513 1497 
Q 3513 744 3044 326 
Q 2575 -91 1722 -91 
Q 1428 -91 1123 -41 
Q 819 9 494 109 
L 494 744 
Q 775 591 1075 516 
Q 1375 441 1709 441 
Q 2250 441 2565 725 
Q 2881 1009 2881 1497 
Q 2881 1984 2565 2268 
Q 2250 2553 1709 2553 
Q 1456 2553 1204 2497 
Q 953 2441 691 2322 
L 691 4666 
z
" transform="scale(0.015625)"/>
       </defs>
       <use xlink:href="#DejaVuSans-35"/>
      </g>
     </g>
    </g>
    <g id="xtick_7">
     <g id="line2d_7">
      <g>
       <use xlink:href="#me165d3ca53" x="905.4" y="640.8" style="stroke: #000000; stroke-width: 0.8"/>
      </g>
     </g>
     <g id="text_7">
      <!-- 6 -->
      <g transform="translate(902.21875 655.398438) scale(0.1 -0.1)">
       <defs>
        <path id="DejaVuSans-36" d="M 2113 2584 
Q 1688 2584 1439 2293 
Q 1191 2003 1191 1497 
Q 1191 994 1439 701 
Q 1688 409 2113 409 
Q 2538 409 2786 701 
Q 3034 994 3034 1497 
Q 3034 2003 2786 2293 
Q 2538 2584 2113 2584 
z
M 3366 4563 
L 3366 3988 
Q 3128 4100 2886 4159 
Q 2644 4219 2406 4219 
Q 1781 4219 1451 3797 
Q 1122 3375 1075 2522 
Q 1259 2794 1537 2939 
Q 1816 3084 2150 3084 
Q 2853 3084 3261 2657 
Q 3669 2231 3669 1497 
Q 3669 778 3244 343 
Q 2819 -91 2113 -91 
Q 1303 -91 875 529 
Q 447 1150 447 2328 
Q 447 3434 972 4092 
Q 1497 4750 2381 4750 
Q 2619 4750 2861 4703 
Q 3103 4656 3366 4563 
z
" transform="scale(0.015625)"/>
       </defs>
       <use xlink:href="#DejaVuSans-36"/>
      </g>
     </g>
    </g>
    <g id="xtick_8">
     <g id="line2d_8">
      <g>
       <use xlink:href="#me165d3ca53" x="1017" y="640.8" style="stroke: #000000; stroke-width: 0.8"/>
      </g>
     </g>
     <g id="text_8">
      <!-- 7 -->
      <g transform="translate(1013.81875 655.398438) scale(0.1 -0.1)">
       <defs>
        <path id="DejaVuSans-37" d="M 525 4666 
L 3525 4666 
L 3525 4397 
L 1831 0 
L 1172 0 
L 2766 4134 
L 525 4134 
L 525 4666 
z
" transform="scale(0.015625)"/>
       </defs>
       <use xlink:href="#DejaVuSans-37"/>
      </g>
     </g>
    </g>
    <g id="xtick_9">
     <g id="line2d_9">
      <g>
       <use xlink:href="#me165d3ca53" x="1128.6" y="640.8" style="stroke: #000000; stroke-width: 0.8"/>
      </g>
     </g>
     <g id="text_9">
      <!-- 8 -->
      <g transform="translate(1125.41875 655.398438) scale(0.1 -0.1)">
       <defs>
        <path id="DejaVuSans-38" d="M 2034 2216 
Q 1584 2216 1326 1975 
Q 1069 1734 1069 1313 
Q 1069 891 1326 650 
Q 1584 409 2034 409 
Q 2484 409 2743 651 
Q 3003 894 3003 1313 
Q 3003 1734 2745 1975 
Q 2488 2216 2034 2216 
z
M 1403 2484 
Q 997 2584 770 2862 
Q 544 3141 544 3541 
Q 544 4100 942 4425 
Q 1341 4750 2034 4750 
Q 2731 4750 3128 4425 
Q 3525 4100 3525 3541 
Q 3525 3141 3298 2862 
Q 3072 2584 2669 2484 
Q 3125 2378 3379 2068 
Q 3634 1759 3634 1313 
Q 3634 634 3220 271 
Q 2806 -91 2034 -91 
Q 1263 -91 848 271 
Q 434 634 434 1313 
Q 434 1759 690 2068 
Q 947 2378 1403 2484 
z
M 1172 3481 
Q 1172 3119 1398 2916 
Q 1625 2713 2034 2713 
Q 2441 2713 2670 2916 
Q 2900 3119 2900 3481 
Q 2900 3844 2670 4047 
Q 2441 4250 2034 4250 
Q 1625 4250 1398 4047 
Q 1172 3844 1172 3481 
z
" transform="scale(0.015625)"/>
       </defs>
       <use xlink:href="#DejaVuSans-38"/>
      </g>
     </g>
    </g>
    <g id="xtick_10">
     <g id="line2d_10">
      <g>
       <use xlink:href="#me165d3ca53" x="1240.2" y="640.8" style="stroke: #000000; stroke-width: 0.8"/>
      </g>
     </g>
     <g id="text_10">
      <!-- 9 -->
      <g transform="translate(1237.01875 655.398438) scale(0.1 -0.1)">
       <defs>
        <path id="DejaVuSans-39" d="M 703 97 
L 703 672 
Q 941 559 1184 500 
Q 1428 441 1663 441 
Q 2288 441 2617 861 
Q 2947 1281 2994 2138 
Q 2813 1869 2534 1725 
Q 2256 1581 1919 1581 
Q 1219 1581 811 2004 
Q 403 2428 403 3163 
Q 403 3881 828 4315 
Q 1253 4750 1959 4750 
Q 2769 4750 3195 4129 
Q 3622 3509 3622 2328 
Q 3622 1225 3098 567 
Q 2575 -91 1691 -91 
Q 1453 -91 1209 -44 
Q 966 3 703 97 
z
M 1959 2075 
Q 2384 2075 2632 2365 
Q 2881 2656 2881 3163 
Q 2881 3666 2632 3958 
Q 2384 4250 1959 4250 
Q 1534 4250 1286 3958 
Q 1038 3666 1038 3163 
Q 1038 2656 1286 2365 
Q 1534 2075 1959 2075 
z
" transform="scale(0.015625)"/>
       </defs>
       <use xlink:href="#DejaVuSans-39"/>
      </g>
     </g>
    </g>
    <g id="text_11">
     <!-- iteration -->
     <g transform="translate(716.877344 669.076563) scale(0.1 -0.1)">
      <defs>
       <path id="DejaVuSans-69" d="M 603 3500 
L 1178 3500 
L 1178 0 
L 603 0 
L 603 3500 
z
M 603 4863 
L 1178 4863 
L 1178 4134 
L 603 4134 
L 603 4863 
z
" transform="scale(0.015625)"/>
       <path id="DejaVuSans-74" d="M 1172 4494 
L 1172 3500 
L 2356 3500 
L 2356 3053 
L 1172 3053 
L 1172 1153 
Q 1172 725 1289 603 
Q 1406 481 1766 481 
L 2356 481 
L 2356 0 
L 1766 0 
Q 1100 0 847 248 
Q 594 497 594 1153 
L 594 3053 
L 172 3053 
L 172 3500 
L 594 3500 
L 594 4494 
L 1172 4494 
z
" transform="scale(0.015625)"/>
       <path id="DejaVuSans-65" d="M 3597 1894 
L 3597 1613 
L 953 1613 
Q 991 1019 1311 708 
Q 1631 397 2203 397 
Q 2534 397 2845 478 
Q 3156 559 3463 722 
L 3463 178 
Q 3153 47 2828 -22 
Q 2503 -91 2169 -91 
Q 1331 -91 842 396 
Q 353 884 353 1716 
Q 353 2575 817 3079 
Q 1281 3584 2069 3584 
Q 2775 3584 3186 3129 
Q 3597 2675 3597 1894 
z
M 3022 2063 
Q 3016 2534 2758 2815 
Q 2500 3097 2075 3097 
Q 1594 3097 1305 2825 
Q 1016 2553 972 2059 
L 3022 2063 
z
" transform="scale(0.015625)"/>
       <path id="DejaVuSans-72" d="M 2631 2963 
Q 2534 3019 2420 3045 
Q 2306 3072 2169 3072 
Q 1681 3072 1420 2755 
Q 1159 2438 1159 1844 
L 1159 0 
L 581 0 
L 581 3500 
L 1159 3500 
L 1159 2956 
Q 1341 3275 1631 3429 
Q 1922 3584 2338 3584 
Q 2397 3584 2469 3576 
Q 2541 3569 2628 3553 
L 2631 2963 
z
" transform="scale(0.015625)"/>
       <path id="DejaVuSans-61" d="M 2194 1759 
Q 1497 1759 1228 1600 
Q 959 1441 959 1056 
Q 959 750 1161 570 
Q 1363 391 1709 391 
Q 2188 391 2477 730 
Q 2766 1069 2766 1631 
L 2766 1759 
L 2194 1759 
z
M 3341 1997 
L 3341 0 
L 2766 0 
L 2766 531 
Q 2569 213 2275 61 
Q 1981 -91 1556 -91 
Q 1019 -91 701 211 
Q 384 513 384 1019 
Q 384 1609 779 1909 
Q 1175 2209 1959 2209 
L 2766 2209 
L 2766 2266 
Q 2766 2663 2505 2880 
Q 2244 3097 1772 3097 
Q 1472 3097 1187 3025 
Q 903 2953 641 2809 
L 641 3341 
Q 956 3463 1253 3523 
Q 1550 3584 1831 3584 
Q 2591 3584 2966 3190 
Q 3341 2797 3341 1997 
z
" transform="scale(0.015625)"/>
       <path id="DejaVuSans-6f" d="M 1959 3097 
Q 1497 3097 1228 2736 
Q 959 2375 959 1747 
Q 959 1119 1226 758 
Q 1494 397 1959 397 
Q 2419 397 2687 759 
Q 2956 1122 2956 1747 
Q 2956 2369 2687 2733 
Q 2419 3097 1959 3097 
z
M 1959 3584 
Q 2709 3584 3137 3096 
Q 3566 2609 3566 1747 
Q 3566 888 3137 398 
Q 2709 -91 1959 -91 
Q 1206 -91 779 398 
Q 353 888 353 1747 
Q 353 2609 779 3096 
Q 1206 3584 1959 3584 
z
" transform="scale(0.015625)"/>
       <path id="DejaVuSans-6e" d="M 3513 2113 
L 3513 0 
L 2938 0 
L 2938 2094 
Q 2938 2591 2744 2837 
Q 2550 3084 2163 3084 
Q 1697 3084 1428 2787 
Q 1159 2491 1159 1978 
L 1159 0 
L 581 0 
L 581 3500 
L 1159 3500 
L 1159 2956 
Q 1366 3272 1645 3428 
Q 1925 3584 2291 3584 
Q 2894 3584 3203 3211 
Q 3513 2838 3513 2113 
z
" transform="scale(0.015625)"/>
      </defs>
      <use xlink:href="#DejaVuSans-69"/>
      <use xlink:href="#DejaVuSans-74" x="27.783203"/>
      <use xlink:href="#DejaVuSans-65" x="66.992188"/>
      <use xlink:href="#DejaVuSans-72" x="128.515625"/>
      <use xlink:href="#DejaVuSans-61" x="169.628906"/>
      <use xlink:href="#DejaVuSans-74" x="230.908203"/>
      <use xlink:href="#DejaVuSans-69" x="270.117188"/>
      <use xlink:href="#DejaVuSans-6f" x="297.900391"/>
      <use xlink:href="#DejaVuSans-6e" x="359.082031"/>
     </g>
    </g>
   </g>
   <g id="matplotlib.axis_2">
    <g id="ytick_1">
     <g id="line2d_11">
      <defs>
       <path id="m046163faa4" d="M 0 0 
L -3.5 0 
" style="stroke: #000000; stroke-width: 0.8"/>
      </defs>
      <g>
       <use xlink:href="#m046163faa4" x="180" y="617.306642" style="stroke: #000000; stroke-width: 0.8"/>
      </g>
     </g>
     <g id="text_12">
      <!-- 0.2 -->
      <g transform="translate(148.717187 621.10586) scale(0.1 -0.1)">
       <defs>
        <path id="DejaVuSans-2212" d="M 678 2272 
L 4684 2272 
L 4684 1741 
L 678 1741 
L 678 2272 
z
" transform="scale(0.015625)"/>
        <path id="DejaVuSans-2e" d="M 684 794 
L 1344 794 
L 1344 0 
L 684 0 
L 684 794 
z
" transform="scale(0.015625)"/>
       </defs>
       <use xlink:href="#DejaVuSans-2212"/>
       <use xlink:href="#DejaVuSans-30" x="83.789062"/>
       <use xlink:href="#DejaVuSans-2e" x="147.412109"/>
       <use xlink:href="#DejaVuSans-32" x="179.199219"/>
      </g>
     </g>
    </g>
    <g id="ytick_2">
     <g id="line2d_12">
      <g>
       <use xlink:href="#m046163faa4" x="180" y="540.665839" style="stroke: #000000; stroke-width: 0.8"/>
      </g>
     </g>
     <g id="text_13">
      <!-- 0.0 -->
      <g transform="translate(157.096875 544.465058) scale(0.1 -0.1)">
       <use xlink:href="#DejaVuSans-30"/>
       <use xlink:href="#DejaVuSans-2e" x="63.623047"/>
       <use xlink:href="#DejaVuSans-30" x="95.410156"/>
      </g>
     </g>
    </g>
    <g id="ytick_3">
     <g id="line2d_13">
      <g>
       <use xlink:href="#m046163faa4" x="180" y="464.025037" style="stroke: #000000; stroke-width: 0.8"/>
      </g>
     </g>
     <g id="text_14">
      <!-- 0.2 -->
      <g transform="translate(157.096875 467.824255) scale(0.1 -0.1)">
       <use xlink:href="#DejaVuSans-30"/>
       <use xlink:href="#DejaVuSans-2e" x="63.623047"/>
       <use xlink:href="#DejaVuSans-32" x="95.410156"/>
      </g>
     </g>
    </g>
    <g id="ytick_4">
     <g id="line2d_14">
      <g>
       <use xlink:href="#m046163faa4" x="180" y="387.384234" style="stroke: #000000; stroke-width: 0.8"/>
      </g>
     </g>
     <g id="text_15">
      <!-- 0.4 -->
      <g transform="translate(157.096875 391.183453) scale(0.1 -0.1)">
       <use xlink:href="#DejaVuSans-30"/>
       <use xlink:href="#DejaVuSans-2e" x="63.623047"/>
       <use xlink:href="#DejaVuSans-34" x="95.410156"/>
      </g>
     </g>
    </g>
    <g id="ytick_5">
     <g id="line2d_15">
      <g>
       <use xlink:href="#m046163faa4" x="180" y="310.743432" style="stroke: #000000; stroke-width: 0.8"/>
      </g>
     </g>
     <g id="text_16">
      <!-- 0.6 -->
      <g transform="translate(157.096875 314.54265) scale(0.1 -0.1)">
       <use xlink:href="#DejaVuSans-30"/>
       <use xlink:href="#DejaVuSans-2e" x="63.623047"/>
       <use xlink:href="#DejaVuSans-36" x="95.410156"/>
      </g>
     </g>
    </g>
    <g id="ytick_6">
     <g id="line2d_16">
      <g>
       <use xlink:href="#m046163faa4" x="180" y="234.102629" style="stroke: #000000; stroke-width: 0.8"/>
      </g>
     </g>
     <g id="text_17">
      <!-- 0.8 -->
      <g transform="translate(157.096875 237.901848) scale(0.1 -0.1)">
       <use xlink:href="#DejaVuSans-30"/>
       <use xlink:href="#DejaVuSans-2e" x="63.623047"/>
       <use xlink:href="#DejaVuSans-38" x="95.410156"/>
      </g>
     </g>
    </g>
    <g id="ytick_7">
     <g id="line2d_17">
      <g>
       <use xlink:href="#m046163faa4" x="180" y="157.461827" style="stroke: #000000; stroke-width: 0.8"/>
      </g>
     </g>
     <g id="text_18">
      <!-- 1.0 -->
      <g transform="translate(157.096875 161.261045) scale(0.1 -0.1)">
       <use xlink:href="#DejaVuSans-31"/>
       <use xlink:href="#DejaVuSans-2e" x="63.623047"/>
       <use xlink:href="#DejaVuSans-30" x="95.410156"/>
      </g>
     </g>
    </g>
    <g id="text_19">
     <!-- cosine similarity -->
     <g transform="translate(142.6375 404.307031) rotate(-90) scale(0.1 -0.1)">
      <defs>
       <path id="DejaVuSans-63" d="M 3122 3366 
L 3122 2828 
Q 2878 2963 2633 3030 
Q 2388 3097 2138 3097 
Q 1578 3097 1268 2742 
Q 959 2388 959 1747 
Q 959 1106 1268 751 
Q 1578 397 2138 397 
Q 2388 397 2633 464 
Q 2878 531 3122 666 
L 3122 134 
Q 2881 22 2623 -34 
Q 2366 -91 2075 -91 
Q 1284 -91 818 406 
Q 353 903 353 1747 
Q 353 2603 823 3093 
Q 1294 3584 2113 3584 
Q 2378 3584 2631 3529 
Q 2884 3475 3122 3366 
z
" transform="scale(0.015625)"/>
       <path id="DejaVuSans-73" d="M 2834 3397 
L 2834 2853 
Q 2591 2978 2328 3040 
Q 2066 3103 1784 3103 
Q 1356 3103 1142 2972 
Q 928 2841 928 2578 
Q 928 2378 1081 2264 
Q 1234 2150 1697 2047 
L 1894 2003 
Q 2506 1872 2764 1633 
Q 3022 1394 3022 966 
Q 3022 478 2636 193 
Q 2250 -91 1575 -91 
Q 1294 -91 989 -36 
Q 684 19 347 128 
L 347 722 
Q 666 556 975 473 
Q 1284 391 1588 391 
Q 1994 391 2212 530 
Q 2431 669 2431 922 
Q 2431 1156 2273 1281 
Q 2116 1406 1581 1522 
L 1381 1569 
Q 847 1681 609 1914 
Q 372 2147 372 2553 
Q 372 3047 722 3315 
Q 1072 3584 1716 3584 
Q 2034 3584 2315 3537 
Q 2597 3491 2834 3397 
z
" transform="scale(0.015625)"/>
       <path id="DejaVuSans-20" transform="scale(0.015625)"/>
       <path id="DejaVuSans-6d" d="M 3328 2828 
Q 3544 3216 3844 3400 
Q 4144 3584 4550 3584 
Q 5097 3584 5394 3201 
Q 5691 2819 5691 2113 
L 5691 0 
L 5113 0 
L 5113 2094 
Q 5113 2597 4934 2840 
Q 4756 3084 4391 3084 
Q 3944 3084 3684 2787 
Q 3425 2491 3425 1978 
L 3425 0 
L 2847 0 
L 2847 2094 
Q 2847 2600 2669 2842 
Q 2491 3084 2119 3084 
Q 1678 3084 1418 2786 
Q 1159 2488 1159 1978 
L 1159 0 
L 581 0 
L 581 3500 
L 1159 3500 
L 1159 2956 
Q 1356 3278 1631 3431 
Q 1906 3584 2284 3584 
Q 2666 3584 2933 3390 
Q 3200 3197 3328 2828 
z
" transform="scale(0.015625)"/>
       <path id="DejaVuSans-6c" d="M 603 4863 
L 1178 4863 
L 1178 0 
L 603 0 
L 603 4863 
z
" transform="scale(0.015625)"/>
       <path id="DejaVuSans-79" d="M 2059 -325 
Q 1816 -950 1584 -1140 
Q 1353 -1331 966 -1331 
L 506 -1331 
L 506 -850 
L 844 -850 
Q 1081 -850 1212 -737 
Q 1344 -625 1503 -206 
L 1606 56 
L 191 3500 
L 800 3500 
L 1894 763 
L 2988 3500 
L 3597 3500 
L 2059 -325 
z
" transform="scale(0.015625)"/>
      </defs>
      <use xlink:href="#DejaVuSans-63"/>
      <use xlink:href="#DejaVuSans-6f" x="54.980469"/>
      <use xlink:href="#DejaVuSans-73" x="116.162109"/>
      <use xlink:href="#DejaVuSans-69" x="168.261719"/>
      <use xlink:href="#DejaVuSans-6e" x="196.044922"/>
      <use xlink:href="#DejaVuSans-65" x="259.423828"/>
      <use xlink:href="#DejaVuSans-20" x="320.947266"/>
      <use xlink:href="#DejaVuSans-73" x="352.734375"/>
      <use xlink:href="#DejaVuSans-69" x="404.833984"/>
      <use xlink:href="#DejaVuSans-6d" x="432.617188"/>
      <use xlink:href="#DejaVuSans-69" x="530.029297"/>
      <use xlink:href="#DejaVuSans-6c" x="557.8125"/>
      <use xlink:href="#DejaVuSans-61" x="585.595703"/>
      <use xlink:href="#DejaVuSans-72" x="646.875"/>
      <use xlink:href="#DejaVuSans-69" x="687.988281"/>
      <use xlink:href="#DejaVuSans-74" x="715.771484"/>
      <use xlink:href="#DejaVuSans-79" x="754.980469"/>
     </g>
    </g>
   </g>
   <g id="line2d_18">
    <path d="M 235.8 531.078261 
L 235.8 201.176397 
" clip-path="url(#pa102d2d3b7)" style="fill: none; stroke: #3f3f3f; stroke-width: 1.875; stroke-linecap: square"/>
   </g>
   <g id="line2d_19">
    <path d="M 235.8 402.882039 
L 235.8 314.416196 
" clip-path="url(#pa102d2d3b7)" style="fill: none; stroke: #3f3f3f; stroke-width: 5.625; stroke-linecap: square"/>
   </g>
   <g id="line2d_20">
    <path d="M 235.8 364.345561 
" clip-path="url(#pa102d2d3b7)" style="fill: none; stroke: #3f3f3f; stroke-width: 1.5; stroke-linecap: square"/>
    <defs>
     <path id="m3fd76a82ef" d="M 2.34375 0 
L -2.34375 -0 
" style="stroke: #ffffff; stroke-width: 1.125"/>
    </defs>
    <g clip-path="url(#pa102d2d3b7)">
     <use xlink:href="#m3fd76a82ef" x="235.8" y="364.345561" style="fill: #ffffff; stroke: #ffffff; stroke-width: 1.125"/>
    </g>
   </g>
   <g id="line2d_21">
    <path d="M 347.4 566.743022 
L 347.4 213.188959 
" clip-path="url(#pa102d2d3b7)" style="fill: none; stroke: #3f3f3f; stroke-width: 1.875; stroke-linecap: square"/>
   </g>
   <g id="line2d_22">
    <path d="M 347.4 446.817833 
L 347.4 334.712625 
" clip-path="url(#pa102d2d3b7)" style="fill: none; stroke: #3f3f3f; stroke-width: 5.625; stroke-linecap: square"/>
   </g>
   <g id="line2d_23">
    <path d="M 347.4 392.895571 
" clip-path="url(#pa102d2d3b7)" style="fill: none; stroke: #3f3f3f; stroke-width: 1.5; stroke-linecap: square"/>
    <g clip-path="url(#pa102d2d3b7)">
     <use xlink:href="#m3fd76a82ef" x="347.4" y="392.895571" style="fill: #ffffff; stroke: #ffffff; stroke-width: 1.125"/>
    </g>
   </g>
   <g id="line2d_24">
    <path d="M 459 566.743022 
L 459 213.188959 
" clip-path="url(#pa102d2d3b7)" style="fill: none; stroke: #3f3f3f; stroke-width: 1.875; stroke-linecap: square"/>
   </g>
   <g id="line2d_25">
    <path d="M 459 460.220045 
L 459 347.286835 
" clip-path="url(#pa102d2d3b7)" style="fill: none; stroke: #3f3f3f; stroke-width: 5.625; stroke-linecap: square"/>
   </g>
   <g id="line2d_26">
    <path d="M 459 404.61862 
" clip-path="url(#pa102d2d3b7)" style="fill: none; stroke: #3f3f3f; stroke-width: 1.5; stroke-linecap: square"/>
    <g clip-path="url(#pa102d2d3b7)">
     <use xlink:href="#m3fd76a82ef" x="459" y="404.61862" style="fill: #ffffff; stroke: #ffffff; stroke-width: 1.125"/>
    </g>
   </g>
   <g id="line2d_27">
    <path d="M 570.6 566.743022 
L 570.6 213.188959 
" clip-path="url(#pa102d2d3b7)" style="fill: none; stroke: #3f3f3f; stroke-width: 1.875; stroke-linecap: square"/>
   </g>
   <g id="line2d_28">
    <path d="M 570.6 472.965987 
L 570.6 356.428972 
" clip-path="url(#pa102d2d3b7)" style="fill: none; stroke: #3f3f3f; stroke-width: 5.625; stroke-linecap: square"/>
   </g>
   <g id="line2d_29">
    <path d="M 570.6 419.777956 
" clip-path="url(#pa102d2d3b7)" style="fill: none; stroke: #3f3f3f; stroke-width: 1.5; stroke-linecap: square"/>
    <g clip-path="url(#pa102d2d3b7)">
     <use xlink:href="#m3fd76a82ef" x="570.6" y="419.777956" style="fill: #ffffff; stroke: #ffffff; stroke-width: 1.125"/>
    </g>
   </g>
   <g id="line2d_30">
    <path d="M 682.2 566.743022 
L 682.2 230.263759 
" clip-path="url(#pa102d2d3b7)" style="fill: none; stroke: #3f3f3f; stroke-width: 1.875; stroke-linecap: square"/>
   </g>
   <g id="line2d_31">
    <path d="M 682.2 475.177584 
L 682.2 360.278781 
" clip-path="url(#pa102d2d3b7)" style="fill: none; stroke: #3f3f3f; stroke-width: 5.625; stroke-linecap: square"/>
   </g>
   <g id="line2d_32">
    <path d="M 682.2 422.55089 
" clip-path="url(#pa102d2d3b7)" style="fill: none; stroke: #3f3f3f; stroke-width: 1.5; stroke-linecap: square"/>
    <g clip-path="url(#pa102d2d3b7)">
     <use xlink:href="#m3fd76a82ef" x="682.2" y="422.55089" style="fill: #ffffff; stroke: #ffffff; stroke-width: 1.125"/>
    </g>
   </g>
   <g id="line2d_33">
    <path d="M 793.8 566.743022 
L 793.8 231.952238 
" clip-path="url(#pa102d2d3b7)" style="fill: none; stroke: #3f3f3f; stroke-width: 1.875; stroke-linecap: square"/>
   </g>
   <g id="line2d_34">
    <path d="M 793.8 479.811975 
L 793.8 373.08879 
" clip-path="url(#pa102d2d3b7)" style="fill: none; stroke: #3f3f3f; stroke-width: 5.625; stroke-linecap: square"/>
   </g>
   <g id="line2d_35">
    <path d="M 793.8 430.028919 
" clip-path="url(#pa102d2d3b7)" style="fill: none; stroke: #3f3f3f; stroke-width: 1.5; stroke-linecap: square"/>
    <g clip-path="url(#pa102d2d3b7)">
     <use xlink:href="#m3fd76a82ef" x="793.8" y="430.028919" style="fill: #ffffff; stroke: #ffffff; stroke-width: 1.125"/>
    </g>
   </g>
   <g id="line2d_36">
    <path d="M 905.4 571.717127 
L 905.4 231.952238 
" clip-path="url(#pa102d2d3b7)" style="fill: none; stroke: #3f3f3f; stroke-width: 1.875; stroke-linecap: square"/>
   </g>
   <g id="line2d_37">
    <path d="M 905.4 485.380681 
L 905.4 376.836838 
" clip-path="url(#pa102d2d3b7)" style="fill: none; stroke: #3f3f3f; stroke-width: 5.625; stroke-linecap: square"/>
   </g>
   <g id="line2d_38">
    <path d="M 905.4 437.659799 
" clip-path="url(#pa102d2d3b7)" style="fill: none; stroke: #3f3f3f; stroke-width: 1.5; stroke-linecap: square"/>
    <g clip-path="url(#pa102d2d3b7)">
     <use xlink:href="#m3fd76a82ef" x="905.4" y="437.659799" style="fill: #ffffff; stroke: #ffffff; stroke-width: 1.125"/>
    </g>
   </g>
   <g id="line2d_39">
    <path d="M 1017 571.717127 
L 1017 231.952238 
" clip-path="url(#pa102d2d3b7)" style="fill: none; stroke: #3f3f3f; stroke-width: 1.875; stroke-linecap: square"/>
   </g>
   <g id="line2d_40">
    <path d="M 1017 488.534209 
L 1017 383.552381 
" clip-path="url(#pa102d2d3b7)" style="fill: none; stroke: #3f3f3f; stroke-width: 5.625; stroke-linecap: square"/>
   </g>
   <g id="line2d_41">
    <path d="M 1017 445.903013 
" clip-path="url(#pa102d2d3b7)" style="fill: none; stroke: #3f3f3f; stroke-width: 1.5; stroke-linecap: square"/>
    <g clip-path="url(#pa102d2d3b7)">
     <use xlink:href="#m3fd76a82ef" x="1017" y="445.903013" style="fill: #ffffff; stroke: #ffffff; stroke-width: 1.125"/>
    </g>
   </g>
   <g id="line2d_42">
    <path d="M 1128.6 571.717127 
L 1128.6 231.952238 
" clip-path="url(#pa102d2d3b7)" style="fill: none; stroke: #3f3f3f; stroke-width: 1.875; stroke-linecap: square"/>
   </g>
   <g id="line2d_43">
    <path d="M 1128.6 490.136987 
L 1128.6 383.764863 
" clip-path="url(#pa102d2d3b7)" style="fill: none; stroke: #3f3f3f; stroke-width: 5.625; stroke-linecap: square"/>
   </g>
   <g id="line2d_44">
    <path d="M 1128.6 449.827746 
" clip-path="url(#pa102d2d3b7)" style="fill: none; stroke: #3f3f3f; stroke-width: 1.5; stroke-linecap: square"/>
    <g clip-path="url(#pa102d2d3b7)">
     <use xlink:href="#m3fd76a82ef" x="1128.6" y="449.827746" style="fill: #ffffff; stroke: #ffffff; stroke-width: 1.125"/>
    </g>
   </g>
   <g id="line2d_45">
    <path d="M 1240.2 571.717127 
L 1240.2 231.952238 
" clip-path="url(#pa102d2d3b7)" style="fill: none; stroke: #3f3f3f; stroke-width: 1.875; stroke-linecap: square"/>
   </g>
   <g id="line2d_46">
    <path d="M 1240.2 490.334845 
L 1240.2 386.041499 
" clip-path="url(#pa102d2d3b7)" style="fill: none; stroke: #3f3f3f; stroke-width: 5.625; stroke-linecap: square"/>
   </g>
   <g id="line2d_47">
    <path d="M 1240.2 450.996992 
" clip-path="url(#pa102d2d3b7)" style="fill: none; stroke: #3f3f3f; stroke-width: 1.5; stroke-linecap: square"/>
    <g clip-path="url(#pa102d2d3b7)">
     <use xlink:href="#m3fd76a82ef" x="1240.2" y="450.996992" style="fill: #ffffff; stroke: #ffffff; stroke-width: 1.125"/>
    </g>
   </g>
   <g id="patch_3">
    <path d="M 180 640.8 
L 180 86.4 
" style="fill: none; stroke: #000000; stroke-width: 0.8; stroke-linejoin: miter; stroke-linecap: square"/>
   </g>
   <g id="patch_4">
    <path d="M 1296 640.8 
L 1296 86.4 
" style="fill: none; stroke: #000000; stroke-width: 0.8; stroke-linejoin: miter; stroke-linecap: square"/>
   </g>
   <g id="patch_5">
    <path d="M 180 640.8 
L 1296 640.8 
" style="fill: none; stroke: #000000; stroke-width: 0.8; stroke-linejoin: miter; stroke-linecap: square"/>
   </g>
   <g id="patch_6">
    <path d="M 180 86.4 
L 1296 86.4 
" style="fill: none; stroke: #000000; stroke-width: 0.8; stroke-linejoin: miter; stroke-linecap: square"/>
   </g>
   <g id="text_20">
    <!-- cosine similarity of max_fs_glit (distanceFromInitialPrompt), by iteration -->
    <g transform="translate(522.321563 80.4) scale(0.12 -0.12)">
     <defs>
      <path id="DejaVuSans-66" d="M 2375 4863 
L 2375 4384 
L 1825 4384 
Q 1516 4384 1395 4259 
Q 1275 4134 1275 3809 
L 1275 3500 
L 2222 3500 
L 2222 3053 
L 1275 3053 
L 1275 0 
L 697 0 
L 697 3053 
L 147 3053 
L 147 3500 
L 697 3500 
L 697 3744 
Q 697 4328 969 4595 
Q 1241 4863 1831 4863 
L 2375 4863 
z
" transform="scale(0.015625)"/>
      <path id="DejaVuSans-78" d="M 3513 3500 
L 2247 1797 
L 3578 0 
L 2900 0 
L 1881 1375 
L 863 0 
L 184 0 
L 1544 1831 
L 300 3500 
L 978 3500 
L 1906 2253 
L 2834 3500 
L 3513 3500 
z
" transform="scale(0.015625)"/>
      <path id="DejaVuSans-5f" d="M 3263 -1063 
L 3263 -1509 
L -63 -1509 
L -63 -1063 
L 3263 -1063 
z
" transform="scale(0.015625)"/>
      <path id="DejaVuSans-67" d="M 2906 1791 
Q 2906 2416 2648 2759 
Q 2391 3103 1925 3103 
Q 1463 3103 1205 2759 
Q 947 2416 947 1791 
Q 947 1169 1205 825 
Q 1463 481 1925 481 
Q 2391 481 2648 825 
Q 2906 1169 2906 1791 
z
M 3481 434 
Q 3481 -459 3084 -895 
Q 2688 -1331 1869 -1331 
Q 1566 -1331 1297 -1286 
Q 1028 -1241 775 -1147 
L 775 -588 
Q 1028 -725 1275 -790 
Q 1522 -856 1778 -856 
Q 2344 -856 2625 -561 
Q 2906 -266 2906 331 
L 2906 616 
Q 2728 306 2450 153 
Q 2172 0 1784 0 
Q 1141 0 747 490 
Q 353 981 353 1791 
Q 353 2603 747 3093 
Q 1141 3584 1784 3584 
Q 2172 3584 2450 3431 
Q 2728 3278 2906 2969 
L 2906 3500 
L 3481 3500 
L 3481 434 
z
" transform="scale(0.015625)"/>
      <path id="DejaVuSans-28" d="M 1984 4856 
Q 1566 4138 1362 3434 
Q 1159 2731 1159 2009 
Q 1159 1288 1364 580 
Q 1569 -128 1984 -844 
L 1484 -844 
Q 1016 -109 783 600 
Q 550 1309 550 2009 
Q 550 2706 781 3412 
Q 1013 4119 1484 4856 
L 1984 4856 
z
" transform="scale(0.015625)"/>
      <path id="DejaVuSans-64" d="M 2906 2969 
L 2906 4863 
L 3481 4863 
L 3481 0 
L 2906 0 
L 2906 525 
Q 2725 213 2448 61 
Q 2172 -91 1784 -91 
Q 1150 -91 751 415 
Q 353 922 353 1747 
Q 353 2572 751 3078 
Q 1150 3584 1784 3584 
Q 2172 3584 2448 3432 
Q 2725 3281 2906 2969 
z
M 947 1747 
Q 947 1113 1208 752 
Q 1469 391 1925 391 
Q 2381 391 2643 752 
Q 2906 1113 2906 1747 
Q 2906 2381 2643 2742 
Q 2381 3103 1925 3103 
Q 1469 3103 1208 2742 
Q 947 2381 947 1747 
z
" transform="scale(0.015625)"/>
      <path id="DejaVuSans-46" d="M 628 4666 
L 3309 4666 
L 3309 4134 
L 1259 4134 
L 1259 2759 
L 3109 2759 
L 3109 2228 
L 1259 2228 
L 1259 0 
L 628 0 
L 628 4666 
z
" transform="scale(0.015625)"/>
      <path id="DejaVuSans-49" d="M 628 4666 
L 1259 4666 
L 1259 0 
L 628 0 
L 628 4666 
z
" transform="scale(0.015625)"/>
      <path id="DejaVuSans-50" d="M 1259 4147 
L 1259 2394 
L 2053 2394 
Q 2494 2394 2734 2622 
Q 2975 2850 2975 3272 
Q 2975 3691 2734 3919 
Q 2494 4147 2053 4147 
L 1259 4147 
z
M 628 4666 
L 2053 4666 
Q 2838 4666 3239 4311 
Q 3641 3956 3641 3272 
Q 3641 2581 3239 2228 
Q 2838 1875 2053 1875 
L 1259 1875 
L 1259 0 
L 628 0 
L 628 4666 
z
" transform="scale(0.015625)"/>
      <path id="DejaVuSans-70" d="M 1159 525 
L 1159 -1331 
L 581 -1331 
L 581 3500 
L 1159 3500 
L 1159 2969 
Q 1341 3281 1617 3432 
Q 1894 3584 2278 3584 
Q 2916 3584 3314 3078 
Q 3713 2572 3713 1747 
Q 3713 922 3314 415 
Q 2916 -91 2278 -91 
Q 1894 -91 1617 61 
Q 1341 213 1159 525 
z
M 3116 1747 
Q 3116 2381 2855 2742 
Q 2594 3103 2138 3103 
Q 1681 3103 1420 2742 
Q 1159 2381 1159 1747 
Q 1159 1113 1420 752 
Q 1681 391 2138 391 
Q 2594 391 2855 752 
Q 3116 1113 3116 1747 
z
" transform="scale(0.015625)"/>
      <path id="DejaVuSans-29" d="M 513 4856 
L 1013 4856 
Q 1481 4119 1714 3412 
Q 1947 2706 1947 2009 
Q 1947 1309 1714 600 
Q 1481 -109 1013 -844 
L 513 -844 
Q 928 -128 1133 580 
Q 1338 1288 1338 2009 
Q 1338 2731 1133 3434 
Q 928 4138 513 4856 
z
" transform="scale(0.015625)"/>
      <path id="DejaVuSans-2c" d="M 750 794 
L 1409 794 
L 1409 256 
L 897 -744 
L 494 -744 
L 750 256 
L 750 794 
z
" transform="scale(0.015625)"/>
      <path id="DejaVuSans-62" d="M 3116 1747 
Q 3116 2381 2855 2742 
Q 2594 3103 2138 3103 
Q 1681 3103 1420 2742 
Q 1159 2381 1159 1747 
Q 1159 1113 1420 752 
Q 1681 391 2138 391 
Q 2594 391 2855 752 
Q 3116 1113 3116 1747 
z
M 1159 2969 
Q 1341 3281 1617 3432 
Q 1894 3584 2278 3584 
Q 2916 3584 3314 3078 
Q 3713 2572 3713 1747 
Q 3713 922 3314 415 
Q 2916 -91 2278 -91 
Q 1894 -91 1617 61 
Q 1341 213 1159 525 
L 1159 0 
L 581 0 
L 581 4863 
L 1159 4863 
L 1159 2969 
z
" transform="scale(0.015625)"/>
     </defs>
     <use xlink:href="#DejaVuSans-63"/>
     <use xlink:href="#DejaVuSans-6f" x="54.980469"/>
     <use xlink:href="#DejaVuSans-73" x="116.162109"/>
     <use xlink:href="#DejaVuSans-69" x="168.261719"/>
     <use xlink:href="#DejaVuSans-6e" x="196.044922"/>
     <use xlink:href="#DejaVuSans-65" x="259.423828"/>
     <use xlink:href="#DejaVuSans-20" x="320.947266"/>
     <use xlink:href="#DejaVuSans-73" x="352.734375"/>
     <use xlink:href="#DejaVuSans-69" x="404.833984"/>
     <use xlink:href="#DejaVuSans-6d" x="432.617188"/>
     <use xlink:href="#DejaVuSans-69" x="530.029297"/>
     <use xlink:href="#DejaVuSans-6c" x="557.8125"/>
     <use xlink:href="#DejaVuSans-61" x="585.595703"/>
     <use xlink:href="#DejaVuSans-72" x="646.875"/>
     <use xlink:href="#DejaVuSans-69" x="687.988281"/>
     <use xlink:href="#DejaVuSans-74" x="715.771484"/>
     <use xlink:href="#DejaVuSans-79" x="754.980469"/>
     <use xlink:href="#DejaVuSans-20" x="814.160156"/>
     <use xlink:href="#DejaVuSans-6f" x="845.947266"/>
     <use xlink:href="#DejaVuSans-66" x="907.128906"/>
     <use xlink:href="#DejaVuSans-20" x="942.333984"/>
     <use xlink:href="#DejaVuSans-6d" x="974.121094"/>
     <use xlink:href="#DejaVuSans-61" x="1071.533203"/>
     <use xlink:href="#DejaVuSans-78" x="1132.8125"/>
     <use xlink:href="#DejaVuSans-5f" x="1191.992188"/>
     <use xlink:href="#DejaVuSans-66" x="1241.992188"/>
     <use xlink:href="#DejaVuSans-73" x="1277.197266"/>
     <use xlink:href="#DejaVuSans-5f" x="1329.296875"/>
     <use xlink:href="#DejaVuSans-67" x="1379.296875"/>
     <use xlink:href="#DejaVuSans-6c" x="1442.773438"/>
     <use xlink:href="#DejaVuSans-69" x="1470.556641"/>
     <use xlink:href="#DejaVuSans-74" x="1498.339844"/>
     <use xlink:href="#DejaVuSans-20" x="1537.548828"/>
     <use xlink:href="#DejaVuSans-28" x="1569.335938"/>
     <use xlink:href="#DejaVuSans-64" x="1608.349609"/>
     <use xlink:href="#DejaVuSans-69" x="1671.826172"/>
     <use xlink:href="#DejaVuSans-73" x="1699.609375"/>
     <use xlink:href="#DejaVuSans-74" x="1751.708984"/>
     <use xlink:href="#DejaVuSans-61" x="1790.917969"/>
     <use xlink:href="#DejaVuSans-6e" x="1852.197266"/>
     <use xlink:href="#DejaVuSans-63" x="1915.576172"/>
     <use xlink:href="#DejaVuSans-65" x="1970.556641"/>
     <use xlink:href="#DejaVuSans-46" x="2032.080078"/>
     <use xlink:href="#DejaVuSans-72" x="2082.349609"/>
     <use xlink:href="#DejaVuSans-6f" x="2121.212891"/>
     <use xlink:href="#DejaVuSans-6d" x="2182.394531"/>
     <use xlink:href="#DejaVuSans-49" x="2279.806641"/>
     <use xlink:href="#DejaVuSans-6e" x="2309.298828"/>
     <use xlink:href="#DejaVuSans-69" x="2372.677734"/>
     <use xlink:href="#DejaVuSans-74" x="2400.460938"/>
     <use xlink:href="#DejaVuSans-69" x="2439.669922"/>
     <use xlink:href="#DejaVuSans-61" x="2467.453125"/>
     <use xlink:href="#DejaVuSans-6c" x="2528.732422"/>
     <use xlink:href="#DejaVuSans-50" x="2556.515625"/>
     <use xlink:href="#DejaVuSans-72" x="2615.068359"/>
     <use xlink:href="#DejaVuSans-6f" x="2653.931641"/>
     <use xlink:href="#DejaVuSans-6d" x="2715.113281"/>
     <use xlink:href="#DejaVuSans-70" x="2812.525391"/>
     <use xlink:href="#DejaVuSans-74" x="2876.001953"/>
     <use xlink:href="#DejaVuSans-29" x="2915.210938"/>
     <use xlink:href="#DejaVuSans-2c" x="2954.224609"/>
     <use xlink:href="#DejaVuSans-20" x="2986.011719"/>
     <use xlink:href="#DejaVuSans-62" x="3017.798828"/>
     <use xlink:href="#DejaVuSans-79" x="3081.275391"/>
     <use xlink:href="#DejaVuSans-20" x="3140.455078"/>
     <use xlink:href="#DejaVuSans-69" x="3172.242188"/>
     <use xlink:href="#DejaVuSans-74" x="3200.025391"/>
     <use xlink:href="#DejaVuSans-65" x="3239.234375"/>
     <use xlink:href="#DejaVuSans-72" x="3300.757812"/>
     <use xlink:href="#DejaVuSans-61" x="3341.871094"/>
     <use xlink:href="#DejaVuSans-74" x="3403.150391"/>
     <use xlink:href="#DejaVuSans-69" x="3442.359375"/>
     <use xlink:href="#DejaVuSans-6f" x="3470.142578"/>
     <use xlink:href="#DejaVuSans-6e" x="3531.324219"/>
    </g>
   </g>
  </g>
 </g>
 <defs>
  <clipPath id="pa102d2d3b7">
   <rect x="180" y="86.4" width="1116" height="554.4"/>
  </clipPath>
 </defs>
</svg>
