<?xml version="1.0" encoding="utf-8" standalone="no"?>
<!DOCTYPE svg PUBLIC "-//W3C//DTD SVG 1.1//EN"
  "http://www.w3.org/Graphics/SVG/1.1/DTD/svg11.dtd">
<svg xmlns:xlink="http://www.w3.org/1999/xlink" width="1440pt" height="720pt" viewBox="0 0 1440 720" xmlns="http://www.w3.org/2000/svg" version="1.1">
 <metadata>
  <rdf:RDF xmlns:dc="http://purl.org/dc/elements/1.1/" xmlns:cc="http://creativecommons.org/ns#" xmlns:rdf="http://www.w3.org/1999/02/22-rdf-syntax-ns#">
   <cc:Work>
    <dc:type rdf:resource="http://purl.org/dc/dcmitype/StillImage"/>
    <dc:date>2024-07-07T17:00:46.461581</dc:date>
    <dc:format>image/svg+xml</dc:format>
    <dc:creator>
     <cc:Agent>
      <dc:title>Matplotlib v3.8.0, https://matplotlib.org/</dc:title>
     </cc:Agent>
    </dc:creator>
   </cc:Work>
  </rdf:RDF>
 </metadata>
 <defs>
  <style type="text/css">*{stroke-linejoin: round; stroke-linecap: butt}</style>
 </defs>
 <g id="figure_1">
  <g id="patch_1">
   <path d="M 0 720 
L 1440 720 
L 1440 0 
L 0 0 
z
" style="fill: #ffffff"/>
  </g>
  <g id="axes_1">
   <g id="patch_2">
    <path d="M 180 640.8 
L 1296 640.8 
L 1296 86.4 
L 180 86.4 
z
" style="fill: #ffffff"/>
   </g>
   <g id="PolyCollection_1">
    <defs>
     <path id="m3e403abe49" d="M 235.964761 -137.822155 
L 235.635239 -137.822155 
L 235.559622 -142.492646 
L 235.460176 -147.163137 
L 235.33397 -151.833628 
L 235.179193 -156.504119 
L 234.995375 -161.17461 
L 234.783362 -165.845101 
L 234.544967 -170.515592 
L 234.282372 -175.186083 
L 233.997402 -179.856573 
L 233.690844 -184.527064 
L 233.361999 -189.197555 
L 233.00855 -193.868046 
L 232.626727 -198.538537 
L 232.211645 -203.209028 
L 231.75764 -207.879519 
L 231.258465 -212.55001 
L 230.707313 -217.220501 
L 230.096781 -221.890992 
L 229.418968 -226.561482 
L 228.665908 -231.231973 
L 227.830407 -235.902464 
L 226.907176 -240.572955 
L 225.893938 -245.243446 
L 224.792093 -249.913937 
L 223.606588 -254.584428 
L 222.344834 -259.254919 
L 221.014867 -263.92541 
L 219.623238 -268.595901 
L 218.173353 -273.266392 
L 216.664904 -277.936882 
L 215.094805 -282.607373 
L 213.459557 -287.277864 
L 211.758466 -291.948355 
L 209.996794 -296.618846 
L 208.187807 -301.289337 
L 206.352966 -305.959828 
L 204.52006 -310.630319 
L 202.719728 -315.30081 
L 200.98141 -319.971301 
L 199.329968 -324.641792 
L 197.784106 -329.312282 
L 196.357113 -333.982773 
L 195.059766 -338.653264 
L 193.904475 -343.323755 
L 192.909344 -347.994246 
L 192.100722 -352.664737 
L 191.513185 -357.335228 
L 191.186514 -362.005719 
L 191.16 -366.67621 
L 191.465138 -371.346701 
L 192.118259 -376.017192 
L 193.114835 -380.687682 
L 194.426948 -385.358173 
L 196.004855 -390.028664 
L 197.782694 -394.699155 
L 199.687442 -399.369646 
L 201.64939 -404.040137 
L 203.611953 -408.710628 
L 205.538645 -413.381119 
L 207.415651 -418.05161 
L 209.249466 -422.722101 
L 211.060242 -427.392591 
L 212.872585 -432.063082 
L 214.706112 -436.733573 
L 216.568101 -441.404064 
L 218.449884 -446.074555 
L 220.327589 -450.745046 
L 222.166638 -455.415537 
L 223.928472 -460.086028 
L 225.577562 -464.756519 
L 227.086897 -469.42701 
L 228.440833 -474.097501 
L 229.63503 -478.767991 
L 230.674077 -483.438482 
L 231.567896 -488.108973 
L 232.328161 -492.779464 
L 232.965677 -497.449955 
L 233.489237 -502.120446 
L 233.905886 -506.790937 
L 234.222193 -511.461428 
L 234.445891 -516.131919 
L 234.587287 -520.80241 
L 234.65999 -525.472901 
L 234.680749 -530.143391 
L 234.668418 -534.813882 
L 234.642271 -539.484373 
L 234.620018 -544.154864 
L 234.615923 -548.825355 
L 234.639401 -553.495846 
L 234.694358 -558.166337 
L 234.779387 -562.836828 
L 234.888745 -567.507319 
L 235.013877 -572.17781 
L 235.145145 -576.848301 
L 235.273441 -581.518791 
L 235.391393 -586.189282 
L 235.494037 -590.859773 
L 235.578943 -595.530264 
L 235.645902 -600.200755 
L 235.954098 -600.200755 
L 235.954098 -600.200755 
L 236.021057 -595.530264 
L 236.105963 -590.859773 
L 236.208607 -586.189282 
L 236.326559 -581.518791 
L 236.454855 -576.848301 
L 236.586123 -572.17781 
L 236.711255 -567.507319 
L 236.820613 -562.836828 
L 236.905642 -558.166337 
L 236.960599 -553.495846 
L 236.984077 -548.825355 
L 236.979982 -544.154864 
L 236.957729 -539.484373 
L 236.931582 -534.813882 
L 236.919251 -530.143391 
L 236.94001 -525.472901 
L 237.012713 -520.80241 
L 237.154109 -516.131919 
L 237.377807 -511.461428 
L 237.694114 -506.790937 
L 238.110763 -502.120446 
L 238.634323 -497.449955 
L 239.271839 -492.779464 
L 240.032104 -488.108973 
L 240.925923 -483.438482 
L 241.96497 -478.767991 
L 243.159167 -474.097501 
L 244.513103 -469.42701 
L 246.022438 -464.756519 
L 247.671528 -460.086028 
L 249.433362 -455.415537 
L 251.272411 -450.745046 
L 253.150116 -446.074555 
L 255.031899 -441.404064 
L 256.893888 -436.733573 
L 258.727415 -432.063082 
L 260.539758 -427.392591 
L 262.350534 -422.722101 
L 264.184349 -418.05161 
L 266.061355 -413.381119 
L 267.988047 -408.710628 
L 269.95061 -404.040137 
L 271.912558 -399.369646 
L 273.817306 -394.699155 
L 275.595145 -390.028664 
L 277.173052 -385.358173 
L 278.485165 -380.687682 
L 279.481741 -376.017192 
L 280.134862 -371.346701 
L 280.44 -366.67621 
L 280.413486 -362.005719 
L 280.086815 -357.335228 
L 279.499278 -352.664737 
L 278.690656 -347.994246 
L 277.695525 -343.323755 
L 276.540234 -338.653264 
L 275.242887 -333.982773 
L 273.815894 -329.312282 
L 272.270032 -324.641792 
L 270.61859 -319.971301 
L 268.880272 -315.30081 
L 267.07994 -310.630319 
L 265.247034 -305.959828 
L 263.412193 -301.289337 
L 261.603206 -296.618846 
L 259.841534 -291.948355 
L 258.140443 -287.277864 
L 256.505195 -282.607373 
L 254.935096 -277.936882 
L 253.426647 -273.266392 
L 251.976762 -268.595901 
L 250.585133 -263.92541 
L 249.255166 -259.254919 
L 247.993412 -254.584428 
L 246.807907 -249.913937 
L 245.706062 -245.243446 
L 244.692824 -240.572955 
L 243.769593 -235.902464 
L 242.934092 -231.231973 
L 242.181032 -226.561482 
L 241.503219 -221.890992 
L 240.892687 -217.220501 
L 240.341535 -212.55001 
L 239.84236 -207.879519 
L 239.388355 -203.209028 
L 238.973273 -198.538537 
L 238.59145 -193.868046 
L 238.238001 -189.197555 
L 237.909156 -184.527064 
L 237.602598 -179.856573 
L 237.317628 -175.186083 
L 237.055033 -170.515592 
L 236.816638 -165.845101 
L 236.604625 -161.17461 
L 236.420807 -156.504119 
L 236.26603 -151.833628 
L 236.139824 -147.163137 
L 236.040378 -142.492646 
L 235.964761 -137.822155 
z
" style="stroke: #3f3f3f; stroke-width: 1.25"/>
    </defs>
    <g clip-path="url(#p563fa44bd8)">
     <use xlink:href="#m3e403abe49" x="0" y="720" style="fill: #3274a1; stroke: #3f3f3f; stroke-width: 1.25"/>
    </g>
   </g>
   <g id="PolyCollection_2">
    <defs>
     <path id="m28e5a6cb34" d="M 347.611088 -104.4 
L 347.188912 -104.4 
L 347.090296 -109.490909 
L 346.956715 -114.581818 
L 346.780303 -119.672727 
L 346.552762 -124.763636 
L 346.26555 -129.854545 
L 345.910016 -134.945455 
L 345.477504 -140.036364 
L 344.959469 -145.127273 
L 344.347737 -150.218182 
L 343.635028 -155.309091 
L 342.815858 -160.4 
L 341.887792 -165.490909 
L 340.852917 -170.581818 
L 339.719199 -175.672727 
L 338.501305 -180.763636 
L 337.220469 -185.854545 
L 335.903117 -190.945455 
L 334.578242 -196.036364 
L 333.273865 -201.127273 
L 332.013182 -206.218182 
L 330.811206 -211.309091 
L 329.672612 -216.4 
L 328.591279 -221.490909 
L 327.551634 -226.581818 
L 326.53147 -231.672727 
L 325.505631 -236.763636 
L 324.449818 -241.854545 
L 323.343884 -246.945455 
L 322.174238 -252.036364 
L 320.935289 -257.127273 
L 319.630136 -262.218182 
L 318.270795 -267.309091 
L 316.878222 -272.4 
L 315.482163 -277.490909 
L 314.120674 -282.581818 
L 312.838944 -287.672727 
L 311.687107 -292.763636 
L 310.716834 -297.854545 
L 309.976865 -302.945455 
L 309.50795 -308.036364 
L 309.337979 -313.127273 
L 309.478206 -318.218182 
L 309.921369 -323.309091 
L 310.642195 -328.4 
L 311.600346 -333.490909 
L 312.745354 -338.581818 
L 314.022727 -343.672727 
L 315.380147 -348.763636 
L 316.77272 -353.854545 
L 318.166448 -358.945455 
L 319.539499 -364.036364 
L 320.881296 -369.127273 
L 322.189904 -374.218182 
L 323.468475 -379.309091 
L 324.72167 -384.4 
L 325.952867 -389.490909 
L 327.162715 -394.581818 
L 328.349186 -399.672727 
L 329.508873 -404.763636 
L 330.638931 -409.854545 
L 331.738903 -414.945455 
L 332.811737 -420.036364 
L 333.863579 -425.127273 
L 334.902319 -430.218182 
L 335.935282 -435.309091 
L 336.966732 -440.4 
L 337.995917 -445.490909 
L 339.016228 -450.581818 
L 340.01568 -455.672727 
L 340.978575 -460.763636 
L 341.887863 -465.854545 
L 342.727594 -470.945455 
L 343.484909 -476.036364 
L 344.151216 -481.127273 
L 344.722481 -486.218182 
L 345.198814 -491.309091 
L 345.583658 -496.4 
L 345.882934 -501.490909 
L 346.104356 -506.581818 
L 346.257043 -511.672727 
L 346.351345 -516.763636 
L 346.398742 -521.854545 
L 346.411651 -526.945455 
L 346.402994 -532.036364 
L 346.385497 -537.127273 
L 346.370794 -542.218182 
L 346.36848 -547.309091 
L 346.385302 -552.4 
L 346.424683 -557.490909 
L 346.486662 -562.581818 
L 346.568293 -567.672727 
L 346.664412 -572.763636 
L 346.768624 -577.854545 
L 346.874327 -582.945455 
L 346.975593 -588.036364 
L 347.067799 -593.127273 
L 347.147934 -598.218182 
L 347.214608 -603.309091 
L 347.267839 -608.4 
L 347.532161 -608.4 
L 347.532161 -608.4 
L 347.585392 -603.309091 
L 347.652066 -598.218182 
L 347.732201 -593.127273 
L 347.824407 -588.036364 
L 347.925673 -582.945455 
L 348.031376 -577.854545 
L 348.135588 -572.763636 
L 348.231707 -567.672727 
L 348.313338 -562.581818 
L 348.375317 -557.490909 
L 348.414698 -552.4 
L 348.43152 -547.309091 
L 348.429206 -542.218182 
L 348.414503 -537.127273 
L 348.397006 -532.036364 
L 348.388349 -526.945455 
L 348.401258 -521.854545 
L 348.448655 -516.763636 
L 348.542957 -511.672727 
L 348.695644 -506.581818 
L 348.917066 -501.490909 
L 349.216342 -496.4 
L 349.601186 -491.309091 
L 350.077519 -486.218182 
L 350.648784 -481.127273 
L 351.315091 -476.036364 
L 352.072406 -470.945455 
L 352.912137 -465.854545 
L 353.821425 -460.763636 
L 354.78432 -455.672727 
L 355.783772 -450.581818 
L 356.804083 -445.490909 
L 357.833268 -440.4 
L 358.864718 -435.309091 
L 359.897681 -430.218182 
L 360.936421 -425.127273 
L 361.988263 -420.036364 
L 363.061097 -414.945455 
L 364.161069 -409.854545 
L 365.291127 -404.763636 
L 366.450814 -399.672727 
L 367.637285 -394.581818 
L 368.847133 -389.490909 
L 370.07833 -384.4 
L 371.331525 -379.309091 
L 372.610096 -374.218182 
L 373.918704 -369.127273 
L 375.260501 -364.036364 
L 376.633552 -358.945455 
L 378.02728 -353.854545 
L 379.419853 -348.763636 
L 380.777273 -343.672727 
L 382.054646 -338.581818 
L 383.199654 -333.490909 
L 384.157805 -328.4 
L 384.878631 -323.309091 
L 385.321794 -318.218182 
L 385.462021 -313.127273 
L 385.29205 -308.036364 
L 384.823135 -302.945455 
L 384.083166 -297.854545 
L 383.112893 -292.763636 
L 381.961056 -287.672727 
L 380.679326 -282.581818 
L 379.317837 -277.490909 
L 377.921778 -272.4 
L 376.529205 -267.309091 
L 375.169864 -262.218182 
L 373.864711 -257.127273 
L 372.625762 -252.036364 
L 371.456116 -246.945455 
L 370.350182 -241.854545 
L 369.294369 -236.763636 
L 368.26853 -231.672727 
L 367.248366 -226.581818 
L 366.208721 -221.490909 
L 365.127388 -216.4 
L 363.988794 -211.309091 
L 362.786818 -206.218182 
L 361.526135 -201.127273 
L 360.221758 -196.036364 
L 358.896883 -190.945455 
L 357.579531 -185.854545 
L 356.298695 -180.763636 
L 355.080801 -175.672727 
L 353.947083 -170.581818 
L 352.912208 -165.490909 
L 351.984142 -160.4 
L 351.164972 -155.309091 
L 350.452263 -150.218182 
L 349.840531 -145.127273 
L 349.322496 -140.036364 
L 348.889984 -134.945455 
L 348.53445 -129.854545 
L 348.247238 -124.763636 
L 348.019697 -119.672727 
L 347.843285 -114.581818 
L 347.709704 -109.490909 
L 347.611088 -104.4 
z
" style="stroke: #3f3f3f; stroke-width: 1.25"/>
    </defs>
    <g clip-path="url(#p563fa44bd8)">
     <use xlink:href="#m28e5a6cb34" x="0" y="720" style="fill: #3274a1; stroke: #3f3f3f; stroke-width: 1.25"/>
    </g>
   </g>
   <g id="PolyCollection_3">
    <defs>
     <path id="m1a1980825f" d="M 459.305116 -105.264743 
L 458.694884 -105.264743 
L 458.568083 -109.611152 
L 458.400344 -113.95756 
L 458.183103 -118.303969 
L 457.907509 -122.650378 
L 457.564854 -126.996786 
L 457.14704 -131.343195 
L 456.647068 -135.689603 
L 456.059496 -140.036012 
L 455.38084 -144.38242 
L 454.609914 -148.728829 
L 453.748096 -153.075237 
L 452.79954 -157.421646 
L 451.771343 -161.768054 
L 450.67365 -166.114463 
L 449.519675 -170.460872 
L 448.32556 -174.80728 
L 447.109991 -179.153689 
L 445.893483 -183.500097 
L 444.697285 -187.846506 
L 443.541923 -192.192914 
L 442.445477 -196.539323 
L 441.421807 -200.885731 
L 440.47897 -205.23214 
L 439.61813 -209.578549 
L 438.833211 -213.924957 
L 438.111431 -218.271366 
L 437.434737 -222.617774 
L 436.781969 -226.964183 
L 436.131472 -231.310591 
L 435.463744 -235.657 
L 434.763713 -240.003408 
L 434.022299 -244.349817 
L 433.237017 -248.696226 
L 432.411596 -253.042634 
L 431.554723 -257.389043 
L 430.678228 -261.735451 
L 429.79508 -266.08186 
L 428.917611 -270.428268 
L 428.056319 -274.774677 
L 427.219459 -279.121085 
L 426.413487 -283.467494 
L 425.644218 -287.813903 
L 424.918417 -292.160311 
L 424.24545 -296.50672 
L 423.638599 -300.853128 
L 423.115689 -305.199537 
L 422.698803 -309.545945 
L 422.413038 -313.892354 
L 422.2844 -318.238762 
L 422.337132 -322.585171 
L 422.59083 -326.93158 
L 423.057804 -331.277988 
L 423.741043 -335.624397 
L 424.633132 -339.970805 
L 425.716252 -344.317214 
L 426.963291 -348.663622 
L 428.339887 -353.010031 
L 429.807153 -357.356439 
L 431.324693 -361.702848 
L 432.85354 -366.049257 
L 434.358699 -370.395665 
L 435.811034 -374.742074 
L 437.188397 -379.088482 
L 438.476013 -383.434891 
L 439.66624 -387.781299 
L 440.757873 -392.127708 
L 441.755202 -396.474116 
L 442.666971 -400.820525 
L 443.505344 -405.166934 
L 444.284889 -409.513342 
L 445.021567 -413.859751 
L 445.731678 -418.206159 
L 446.430736 -422.552568 
L 447.132312 -426.898976 
L 447.846924 -431.245385 
L 448.581119 -435.591793 
L 449.336899 -439.938202 
L 450.111612 -444.284611 
L 450.89837 -448.631019 
L 451.686951 -452.977428 
L 452.465069 -457.323836 
L 453.219807 -461.670245 
L 453.939011 -466.016653 
L 454.612428 -470.363062 
L 455.232472 -474.70947 
L 455.794537 -479.055879 
L 456.29691 -483.402288 
L 456.740361 -487.748696 
L 457.127546 -492.095105 
L 457.462362 -496.441513 
L 457.74936 -500.787922 
L 457.993289 -505.13433 
L 458.198791 -509.480739 
L 458.37025 -513.827147 
L 458.511737 -518.173556 
L 458.627023 -522.519965 
L 458.71962 -526.866373 
L 458.792806 -531.212782 
L 458.849636 -535.55919 
L 459.150364 -535.55919 
L 459.150364 -535.55919 
L 459.207194 -531.212782 
L 459.28038 -526.866373 
L 459.372977 -522.519965 
L 459.488263 -518.173556 
L 459.62975 -513.827147 
L 459.801209 -509.480739 
L 460.006711 -505.13433 
L 460.25064 -500.787922 
L 460.537638 -496.441513 
L 460.872454 -492.095105 
L 461.259639 -487.748696 
L 461.70309 -483.402288 
L 462.205463 -479.055879 
L 462.767528 -474.70947 
L 463.387572 -470.363062 
L 464.060989 -466.016653 
L 464.780193 -461.670245 
L 465.534931 -457.323836 
L 466.313049 -452.977428 
L 467.10163 -448.631019 
L 467.888388 -444.284611 
L 468.663101 -439.938202 
L 469.418881 -435.591793 
L 470.153076 -431.245385 
L 470.867688 -426.898976 
L 471.569264 -422.552568 
L 472.268322 -418.206159 
L 472.978433 -413.859751 
L 473.715111 -409.513342 
L 474.494656 -405.166934 
L 475.333029 -400.820525 
L 476.244798 -396.474116 
L 477.242127 -392.127708 
L 478.33376 -387.781299 
L 479.523987 -383.434891 
L 480.811603 -379.088482 
L 482.188966 -374.742074 
L 483.641301 -370.395665 
L 485.14646 -366.049257 
L 486.675307 -361.702848 
L 488.192847 -357.356439 
L 489.660113 -353.010031 
L 491.036709 -348.663622 
L 492.283748 -344.317214 
L 493.366868 -339.970805 
L 494.258957 -335.624397 
L 494.942196 -331.277988 
L 495.40917 -326.93158 
L 495.662868 -322.585171 
L 495.7156 -318.238762 
L 495.586962 -313.892354 
L 495.301197 -309.545945 
L 494.884311 -305.199537 
L 494.361401 -300.853128 
L 493.75455 -296.50672 
L 493.081583 -292.160311 
L 492.355782 -287.813903 
L 491.586513 -283.467494 
L 490.780541 -279.121085 
L 489.943681 -274.774677 
L 489.082389 -270.428268 
L 488.20492 -266.08186 
L 487.321772 -261.735451 
L 486.445277 -257.389043 
L 485.588404 -253.042634 
L 484.762983 -248.696226 
L 483.977701 -244.349817 
L 483.236287 -240.003408 
L 482.536256 -235.657 
L 481.868528 -231.310591 
L 481.218031 -226.964183 
L 480.565263 -222.617774 
L 479.888569 -218.271366 
L 479.166789 -213.924957 
L 478.38187 -209.578549 
L 477.52103 -205.23214 
L 476.578193 -200.885731 
L 475.554523 -196.539323 
L 474.458077 -192.192914 
L 473.302715 -187.846506 
L 472.106517 -183.500097 
L 470.890009 -179.153689 
L 469.67444 -174.80728 
L 468.480325 -170.460872 
L 467.32635 -166.114463 
L 466.228657 -161.768054 
L 465.20046 -157.421646 
L 464.251904 -153.075237 
L 463.390086 -148.728829 
L 462.61916 -144.38242 
L 461.940504 -140.036012 
L 461.352932 -135.689603 
L 460.85296 -131.343195 
L 460.435146 -126.996786 
L 460.092491 -122.650378 
L 459.816897 -118.303969 
L 459.599656 -113.95756 
L 459.431917 -109.611152 
L 459.305116 -105.264743 
z
" style="stroke: #3f3f3f; stroke-width: 1.25"/>
    </defs>
    <g clip-path="url(#p563fa44bd8)">
     <use xlink:href="#m1a1980825f" x="0" y="720" style="fill: #3274a1; stroke: #3f3f3f; stroke-width: 1.25"/>
    </g>
   </g>
   <g id="PolyCollection_4">
    <defs>
     <path id="m24c91aeb5a" d="M 570.94337 -104.914847 
L 570.25663 -104.914847 
L 570.109863 -109.268325 
L 569.913618 -113.621802 
L 569.656733 -117.975279 
L 569.327496 -122.328756 
L 568.914289 -126.682233 
L 568.406394 -131.03571 
L 567.794906 -135.389187 
L 567.073692 -139.742665 
L 566.240292 -144.096142 
L 565.296656 -148.449619 
L 564.249631 -152.803096 
L 563.11109 -157.156573 
L 561.897659 -161.51005 
L 560.630019 -165.863528 
L 559.331798 -170.217005 
L 558.028132 -174.570482 
L 556.743983 -178.923959 
L 555.502368 -183.277436 
L 554.322639 -187.630913 
L 553.218999 -191.984391 
L 552.199379 -196.337868 
L 551.264828 -200.691345 
L 550.409509 -205.044822 
L 549.621313 -209.398299 
L 548.883102 -213.751776 
L 548.174456 -218.105254 
L 547.473796 -222.458731 
L 546.760642 -226.812208 
L 546.0178 -231.165685 
L 545.233195 -235.519162 
L 544.401169 -239.872639 
L 543.523074 -244.226116 
L 542.607095 -248.579594 
L 541.667358 -252.933071 
L 540.722442 -257.286548 
L 539.793515 -261.640025 
L 538.902366 -265.993502 
L 538.069588 -270.346979 
L 537.313144 -274.700457 
L 536.647474 -279.053934 
L 536.0832 -283.407411 
L 535.627395 -287.760888 
L 535.284275 -292.114365 
L 535.05615 -296.467842 
L 534.9444 -300.82132 
L 534.950297 -305.174797 
L 535.075512 -309.528274 
L 535.32223 -313.881751 
L 535.692871 -318.235228 
L 536.189473 -322.588705 
L 536.812869 -326.942182 
L 537.561803 -331.29566 
L 538.432127 -335.649137 
L 539.416236 -340.002614 
L 540.50282 -344.356091 
L 541.676985 -348.709568 
L 542.920751 -353.063045 
L 544.213861 -357.416523 
L 545.53483 -361.77 
L 546.862103 -366.123477 
L 548.175204 -370.476954 
L 549.455767 -374.830431 
L 550.688352 -379.183908 
L 551.861008 -383.537386 
L 552.965569 -387.890863 
L 553.997709 -392.24434 
L 554.956805 -396.597817 
L 555.845654 -400.951294 
L 556.670068 -405.304771 
L 557.438365 -409.658249 
L 558.160742 -414.011726 
L 558.848516 -418.365203 
L 559.513246 -422.71868 
L 560.165768 -427.072157 
L 560.81523 -431.425634 
L 561.468239 -435.779111 
L 562.12824 -440.132589 
L 562.795254 -444.486066 
L 563.466006 -448.839543 
L 564.134461 -453.19302 
L 564.792671 -457.546497 
L 565.431797 -461.899974 
L 566.043158 -466.253452 
L 566.619121 -470.606929 
L 567.153751 -474.960406 
L 567.643131 -479.313883 
L 568.085385 -483.66736 
L 568.480449 -488.020837 
L 568.829691 -492.374315 
L 569.13548 -496.727792 
L 569.400778 -501.081269 
L 569.628828 -505.434746 
L 569.822937 -509.788223 
L 569.986364 -514.1417 
L 570.122282 -518.495178 
L 570.233768 -522.848655 
L 570.323813 -527.202132 
L 570.395316 -531.555609 
L 570.45106 -535.909086 
L 570.74894 -535.909086 
L 570.74894 -535.909086 
L 570.804684 -531.555609 
L 570.876187 -527.202132 
L 570.966232 -522.848655 
L 571.077718 -518.495178 
L 571.213636 -514.1417 
L 571.377063 -509.788223 
L 571.571172 -505.434746 
L 571.799222 -501.081269 
L 572.06452 -496.727792 
L 572.370309 -492.374315 
L 572.719551 -488.020837 
L 573.114615 -483.66736 
L 573.556869 -479.313883 
L 574.046249 -474.960406 
L 574.580879 -470.606929 
L 575.156842 -466.253452 
L 575.768203 -461.899974 
L 576.407329 -457.546497 
L 577.065539 -453.19302 
L 577.733994 -448.839543 
L 578.404746 -444.486066 
L 579.07176 -440.132589 
L 579.731761 -435.779111 
L 580.38477 -431.425634 
L 581.034232 -427.072157 
L 581.686754 -422.71868 
L 582.351484 -418.365203 
L 583.039258 -414.011726 
L 583.761635 -409.658249 
L 584.529932 -405.304771 
L 585.354346 -400.951294 
L 586.243195 -396.597817 
L 587.202291 -392.24434 
L 588.234431 -387.890863 
L 589.338992 -383.537386 
L 590.511648 -379.183908 
L 591.744233 -374.830431 
L 593.024796 -370.476954 
L 594.337897 -366.123477 
L 595.66517 -361.77 
L 596.986139 -357.416523 
L 598.279249 -353.063045 
L 599.523015 -348.709568 
L 600.69718 -344.356091 
L 601.783764 -340.002614 
L 602.767873 -335.649137 
L 603.638197 -331.29566 
L 604.387131 -326.942182 
L 605.010527 -322.588705 
L 605.507129 -318.235228 
L 605.87777 -313.881751 
L 606.124488 -309.528274 
L 606.249703 -305.174797 
L 606.2556 -300.82132 
L 606.14385 -296.467842 
L 605.915725 -292.114365 
L 605.572605 -287.760888 
L 605.1168 -283.407411 
L 604.552526 -279.053934 
L 603.886856 -274.700457 
L 603.130412 -270.346979 
L 602.297634 -265.993502 
L 601.406485 -261.640025 
L 600.477558 -257.286548 
L 599.532642 -252.933071 
L 598.592905 -248.579594 
L 597.676926 -244.226116 
L 596.798831 -239.872639 
L 595.966805 -235.519162 
L 595.1822 -231.165685 
L 594.439358 -226.812208 
L 593.726204 -222.458731 
L 593.025544 -218.105254 
L 592.316898 -213.751776 
L 591.578687 -209.398299 
L 590.790491 -205.044822 
L 589.935172 -200.691345 
L 589.000621 -196.337868 
L 587.981001 -191.984391 
L 586.877361 -187.630913 
L 585.697632 -183.277436 
L 584.456017 -178.923959 
L 583.171868 -174.570482 
L 581.868202 -170.217005 
L 580.569981 -165.863528 
L 579.302341 -161.51005 
L 578.08891 -157.156573 
L 576.950369 -152.803096 
L 575.903344 -148.449619 
L 574.959708 -144.096142 
L 574.126308 -139.742665 
L 573.405094 -135.389187 
L 572.793606 -131.03571 
L 572.285711 -126.682233 
L 571.872504 -122.328756 
L 571.543267 -117.975279 
L 571.286382 -113.621802 
L 571.090137 -109.268325 
L 570.94337 -104.914847 
z
" style="stroke: #3f3f3f; stroke-width: 1.25"/>
    </defs>
    <g clip-path="url(#p563fa44bd8)">
     <use xlink:href="#m24c91aeb5a" x="0" y="720" style="fill: #3274a1; stroke: #3f3f3f; stroke-width: 1.25"/>
    </g>
   </g>
   <g id="PolyCollection_5">
    <defs>
     <path id="m3e0d998261" d="M 682.535598 -105.777973 
L 681.864402 -105.777973 
L 681.720616 -110.114013 
L 681.528654 -114.450053 
L 681.277974 -118.786094 
L 680.957711 -123.122134 
L 680.557339 -127.458174 
L 680.067451 -131.794214 
L 679.480592 -136.130255 
L 678.792061 -140.466295 
L 678.000552 -144.802335 
L 677.108562 -149.138376 
L 676.122459 -153.474416 
L 675.052166 -157.810456 
L 673.910466 -162.146496 
L 672.711986 -166.482537 
L 671.47195 -170.818577 
L 670.204875 -175.154617 
L 668.92336 -179.490658 
L 667.637153 -183.826698 
L 666.352637 -188.162738 
L 665.072828 -192.498778 
L 663.797903 -196.834819 
L 662.526196 -201.170859 
L 661.255517 -205.506899 
L 659.984572 -209.84294 
L 658.714232 -214.17898 
L 657.448404 -218.51502 
L 656.194313 -222.85106 
L 654.962093 -227.187101 
L 653.763755 -231.523141 
L 652.611706 -235.859181 
L 651.517135 -240.195222 
L 650.488614 -244.531262 
L 649.531285 -248.867302 
L 648.646844 -253.203342 
L 647.834397 -257.539383 
L 647.092064 -261.875423 
L 646.418983 -266.211463 
L 645.817296 -270.547504 
L 645.293638 -274.883544 
L 644.859745 -279.219584 
L 644.53201 -283.555624 
L 644.329973 -287.891665 
L 644.274034 -292.227705 
L 644.382789 -296.563745 
L 644.670474 -300.899785 
L 645.144959 -305.235826 
L 645.806614 -309.571866 
L 646.648126 -313.907906 
L 647.655224 -318.243947 
L 648.808026 -322.579987 
L 650.082706 -326.916027 
L 651.453162 -331.252067 
L 652.892426 -335.588108 
L 654.373718 -339.924148 
L 655.871155 -344.260188 
L 657.360218 -348.596229 
L 658.818144 -352.932269 
L 660.224367 -357.268309 
L 661.561077 -361.604349 
L 662.813876 -365.94039 
L 663.97242 -370.27643 
L 665.030909 -374.61247 
L 665.988264 -378.948511 
L 666.847923 -383.284551 
L 667.617237 -387.620591 
L 668.30655 -391.956631 
L 668.928123 -396.292672 
L 669.49506 -400.628712 
L 670.020397 -404.964752 
L 670.516441 -409.300793 
L 670.994371 -413.636833 
L 671.464057 -417.972873 
L 671.933986 -422.308913 
L 672.411212 -426.644954 
L 672.901254 -430.980994 
L 673.407926 -435.317034 
L 673.933129 -439.653075 
L 674.476687 -443.989115 
L 675.036295 -448.325155 
L 675.607655 -452.661195 
L 676.184795 -456.997236 
L 676.760578 -461.333276 
L 677.3273 -465.669316 
L 677.877314 -470.005356 
L 678.403579 -474.341397 
L 678.900079 -478.677437 
L 679.362077 -483.013477 
L 679.786208 -487.349518 
L 680.170445 -491.685558 
L 680.513973 -496.021598 
L 680.817029 -500.357638 
L 681.080733 -504.693679 
L 681.306924 -509.029719 
L 681.498024 -513.365759 
L 681.656906 -517.7018 
L 681.786773 -522.03784 
L 681.891026 -526.37388 
L 681.973145 -530.70992 
L 682.036557 -535.045961 
L 682.363443 -535.045961 
L 682.363443 -535.045961 
L 682.426855 -530.70992 
L 682.508974 -526.37388 
L 682.613227 -522.03784 
L 682.743094 -517.7018 
L 682.901976 -513.365759 
L 683.093076 -509.029719 
L 683.319267 -504.693679 
L 683.582971 -500.357638 
L 683.886027 -496.021598 
L 684.229555 -491.685558 
L 684.613792 -487.349518 
L 685.037923 -483.013477 
L 685.499921 -478.677437 
L 685.996421 -474.341397 
L 686.522686 -470.005356 
L 687.0727 -465.669316 
L 687.639422 -461.333276 
L 688.215205 -456.997236 
L 688.792345 -452.661195 
L 689.363705 -448.325155 
L 689.923313 -443.989115 
L 690.466871 -439.653075 
L 690.992074 -435.317034 
L 691.498746 -430.980994 
L 691.988788 -426.644954 
L 692.466014 -422.308913 
L 692.935943 -417.972873 
L 693.405629 -413.636833 
L 693.883559 -409.300793 
L 694.379603 -404.964752 
L 694.90494 -400.628712 
L 695.471877 -396.292672 
L 696.09345 -391.956631 
L 696.782763 -387.620591 
L 697.552077 -383.284551 
L 698.411736 -378.948511 
L 699.369091 -374.61247 
L 700.42758 -370.27643 
L 701.586124 -365.94039 
L 702.838923 -361.604349 
L 704.175633 -357.268309 
L 705.581856 -352.932269 
L 707.039782 -348.596229 
L 708.528845 -344.260188 
L 710.026282 -339.924148 
L 711.507574 -335.588108 
L 712.946838 -331.252067 
L 714.317294 -326.916027 
L 715.591974 -322.579987 
L 716.744776 -318.243947 
L 717.751874 -313.907906 
L 718.593386 -309.571866 
L 719.255041 -305.235826 
L 719.729526 -300.899785 
L 720.017211 -296.563745 
L 720.125966 -292.227705 
L 720.070027 -287.891665 
L 719.86799 -283.555624 
L 719.540255 -279.219584 
L 719.106362 -274.883544 
L 718.582704 -270.547504 
L 717.981017 -266.211463 
L 717.307936 -261.875423 
L 716.565603 -257.539383 
L 715.753156 -253.203342 
L 714.868715 -248.867302 
L 713.911386 -244.531262 
L 712.882865 -240.195222 
L 711.788294 -235.859181 
L 710.636245 -231.523141 
L 709.437907 -227.187101 
L 708.205687 -222.85106 
L 706.951596 -218.51502 
L 705.685768 -214.17898 
L 704.415428 -209.84294 
L 703.144483 -205.506899 
L 701.873804 -201.170859 
L 700.602097 -196.834819 
L 699.327172 -192.498778 
L 698.047363 -188.162738 
L 696.762847 -183.826698 
L 695.47664 -179.490658 
L 694.195125 -175.154617 
L 692.92805 -170.818577 
L 691.688014 -166.482537 
L 690.489534 -162.146496 
L 689.347834 -157.810456 
L 688.277541 -153.474416 
L 687.291438 -149.138376 
L 686.399448 -144.802335 
L 685.607939 -140.466295 
L 684.919408 -136.130255 
L 684.332549 -131.794214 
L 683.842661 -127.458174 
L 683.442289 -123.122134 
L 683.122026 -118.786094 
L 682.871346 -114.450053 
L 682.679384 -110.114013 
L 682.535598 -105.777973 
z
" style="stroke: #3f3f3f; stroke-width: 1.25"/>
    </defs>
    <g clip-path="url(#p563fa44bd8)">
     <use xlink:href="#m3e0d998261" x="0" y="720" style="fill: #3274a1; stroke: #3f3f3f; stroke-width: 1.25"/>
    </g>
   </g>
   <g id="PolyCollection_6">
    <defs>
     <path id="mb9729504c6" d="M 794.205815 -107.947973 
L 793.394185 -107.947973 
L 793.219288 -112.240175 
L 792.986848 -116.532377 
L 792.685292 -120.824579 
L 792.3032 -125.116781 
L 791.830054 -129.408983 
L 791.256979 -133.701184 
L 790.577336 -137.993386 
L 789.787064 -142.285588 
L 788.884692 -146.57779 
L 787.870991 -150.869992 
L 786.74835 -155.162194 
L 785.520008 -159.454396 
L 784.18935 -163.746598 
L 782.759469 -168.0388 
L 781.233151 -172.331001 
L 779.613366 -176.623203 
L 777.904192 -180.915405 
L 776.11202 -185.207607 
L 774.246783 -189.499809 
L 772.322942 -193.792011 
L 770.359985 -198.084213 
L 768.38232 -202.376415 
L 766.418518 -206.668617 
L 764.499998 -210.960819 
L 762.659299 -215.25302 
L 760.928138 -219.545222 
L 759.33541 -223.837424 
L 757.905316 -228.129626 
L 756.65574 -232.421828 
L 755.597039 -236.71403 
L 754.73139 -241.006232 
L 754.052881 -245.298434 
L 753.548465 -249.590636 
L 753.199831 -253.882837 
L 752.986096 -258.175039 
L 752.887025 -262.467241 
L 752.886325 -266.759443 
L 752.974453 -271.051645 
L 753.150372 -275.343847 
L 753.421852 -279.636049 
L 753.804156 -283.928251 
L 754.317266 -288.220453 
L 754.982148 -292.512654 
L 755.8167 -296.804856 
L 756.832159 -301.097058 
L 758.030578 -305.38926 
L 759.40378 -309.681462 
L 760.93385 -313.973664 
L 762.594924 -318.265866 
L 764.355805 -322.558068 
L 766.182819 -326.85027 
L 768.042373 -331.142471 
L 769.902831 -335.434673 
L 771.735548 -339.726875 
L 773.51513 -344.019077 
L 775.219168 -348.311279 
L 776.827786 -352.603481 
L 778.323322 -356.895683 
L 779.690369 -361.187885 
L 780.916252 -365.480087 
L 781.991856 -369.772289 
L 782.91259 -374.06449 
L 783.679217 -378.356692 
L 784.298288 -382.648894 
L 784.78202 -386.941096 
L 785.147565 -391.233298 
L 785.415759 -395.5255 
L 785.609549 -399.817702 
L 785.75233 -404.109904 
L 785.866433 -408.402106 
L 785.971919 -412.694307 
L 786.085774 -416.986509 
L 786.221495 -421.278711 
L 786.388983 -425.570913 
L 786.594674 -429.863115 
L 786.841784 -434.155317 
L 787.130632 -438.447519 
L 787.459001 -442.739721 
L 787.822543 -447.031923 
L 788.215227 -451.324124 
L 788.629844 -455.616326 
L 789.058534 -459.908528 
L 789.493301 -464.20073 
L 789.926474 -468.492932 
L 790.351057 -472.785134 
L 790.760956 -477.077336 
L 791.151088 -481.369538 
L 791.517378 -485.66174 
L 791.856701 -489.953941 
L 792.166799 -494.246143 
L 792.446218 -498.538345 
L 792.694253 -502.830547 
L 792.910932 -507.122749 
L 793.096991 -511.414951 
L 793.25384 -515.707153 
L 793.383495 -519.999355 
L 793.488474 -524.291557 
L 793.571645 -528.583759 
L 793.636066 -532.87596 
L 793.963934 -532.87596 
L 793.963934 -532.87596 
L 794.028355 -528.583759 
L 794.111526 -524.291557 
L 794.216505 -519.999355 
L 794.34616 -515.707153 
L 794.503009 -511.414951 
L 794.689068 -507.122749 
L 794.905747 -502.830547 
L 795.153782 -498.538345 
L 795.433201 -494.246143 
L 795.743299 -489.953941 
L 796.082622 -485.66174 
L 796.448912 -481.369538 
L 796.839044 -477.077336 
L 797.248943 -472.785134 
L 797.673526 -468.492932 
L 798.106699 -464.20073 
L 798.541466 -459.908528 
L 798.970156 -455.616326 
L 799.384773 -451.324124 
L 799.777457 -447.031923 
L 800.140999 -442.739721 
L 800.469368 -438.447519 
L 800.758216 -434.155317 
L 801.005326 -429.863115 
L 801.211017 -425.570913 
L 801.378505 -421.278711 
L 801.514226 -416.986509 
L 801.628081 -412.694307 
L 801.733567 -408.402106 
L 801.84767 -404.109904 
L 801.990451 -399.817702 
L 802.184241 -395.5255 
L 802.452435 -391.233298 
L 802.81798 -386.941096 
L 803.301712 -382.648894 
L 803.920783 -378.356692 
L 804.68741 -374.06449 
L 805.608144 -369.772289 
L 806.683748 -365.480087 
L 807.909631 -361.187885 
L 809.276678 -356.895683 
L 810.772214 -352.603481 
L 812.380832 -348.311279 
L 814.08487 -344.019077 
L 815.864452 -339.726875 
L 817.697169 -335.434673 
L 819.557627 -331.142471 
L 821.417181 -326.85027 
L 823.244195 -322.558068 
L 825.005076 -318.265866 
L 826.66615 -313.973664 
L 828.19622 -309.681462 
L 829.569422 -305.38926 
L 830.767841 -301.097058 
L 831.7833 -296.804856 
L 832.617852 -292.512654 
L 833.282734 -288.220453 
L 833.795844 -283.928251 
L 834.178148 -279.636049 
L 834.449628 -275.343847 
L 834.625547 -271.051645 
L 834.713675 -266.759443 
L 834.712975 -262.467241 
L 834.613904 -258.175039 
L 834.400169 -253.882837 
L 834.051535 -249.590636 
L 833.547119 -245.298434 
L 832.86861 -241.006232 
L 832.002961 -236.71403 
L 830.94426 -232.421828 
L 829.694684 -228.129626 
L 828.26459 -223.837424 
L 826.671862 -219.545222 
L 824.940701 -215.25302 
L 823.100002 -210.960819 
L 821.181482 -206.668617 
L 819.21768 -202.376415 
L 817.240015 -198.084213 
L 815.277058 -193.792011 
L 813.353217 -189.499809 
L 811.48798 -185.207607 
L 809.695808 -180.915405 
L 807.986634 -176.623203 
L 806.366849 -172.331001 
L 804.840531 -168.0388 
L 803.41065 -163.746598 
L 802.079992 -159.454396 
L 800.85165 -155.162194 
L 799.729009 -150.869992 
L 798.715308 -146.57779 
L 797.812936 -142.285588 
L 797.022664 -137.993386 
L 796.343021 -133.701184 
L 795.769946 -129.408983 
L 795.2968 -125.116781 
L 794.914708 -120.824579 
L 794.613152 -116.532377 
L 794.380712 -112.240175 
L 794.205815 -107.947973 
z
" style="stroke: #3f3f3f; stroke-width: 1.25"/>
    </defs>
    <g clip-path="url(#p563fa44bd8)">
     <use xlink:href="#mb9729504c6" x="0" y="720" style="fill: #3274a1; stroke: #3f3f3f; stroke-width: 1.25"/>
    </g>
   </g>
   <g id="PolyCollection_7">
    <defs>
     <path id="m83a8d82906" d="M 905.793644 -108.979869 
L 905.006356 -108.979869 
L 904.831474 -113.251224 
L 904.596105 -117.52258 
L 904.286454 -121.793935 
L 903.887961 -126.065291 
L 903.385921 -130.336646 
L 902.76617 -134.608002 
L 902.01579 -138.879357 
L 901.123779 -143.150713 
L 900.081631 -147.422068 
L 898.883854 -151.693424 
L 897.528425 -155.964779 
L 896.017249 -160.236135 
L 894.356634 -164.50749 
L 892.557779 -168.778846 
L 890.637211 -173.050201 
L 888.617034 -177.321557 
L 886.524832 -181.592912 
L 884.393065 -185.864268 
L 882.257872 -190.135623 
L 880.157301 -194.406979 
L 878.129127 -198.678334 
L 876.208508 -202.94969 
L 874.425833 -207.221046 
L 872.805065 -211.492401 
L 871.362788 -215.763757 
L 870.108038 -220.035112 
L 869.042828 -224.306468 
L 868.16314 -228.577823 
L 867.46013 -232.849179 
L 866.92131 -237.120534 
L 866.531601 -241.39189 
L 866.274237 -245.663245 
L 866.131646 -249.934601 
L 866.086456 -254.205956 
L 866.122706 -258.477312 
L 866.227263 -262.748667 
L 866.391247 -267.020023 
L 866.611185 -271.291378 
L 866.889559 -275.562734 
L 867.234486 -279.834089 
L 867.658422 -284.105445 
L 868.176032 -288.3768 
L 868.801572 -292.648156 
L 869.546255 -296.919511 
L 870.416134 -301.190867 
L 871.410902 -305.462222 
L 872.523798 -309.733578 
L 873.742587 -314.004933 
L 875.051306 -318.276289 
L 876.43234 -322.547645 
L 877.868351 -326.819 
L 879.343645 -331.090356 
L 880.844737 -335.361711 
L 882.360094 -339.633067 
L 883.879219 -343.904422 
L 885.391415 -348.175778 
L 886.884596 -352.447133 
L 888.344526 -356.718489 
L 889.754701 -360.989844 
L 891.096987 -365.2612 
L 892.352893 -369.532555 
L 893.505273 -373.803911 
L 894.540114 -378.075266 
L 895.448107 -382.346622 
L 896.225722 -386.617977 
L 896.875655 -390.889333 
L 897.4066 -395.160688 
L 897.832445 -399.432044 
L 898.171039 -403.703399 
L 898.442717 -407.974755 
L 898.668735 -412.24611 
L 898.869766 -416.517466 
L 899.064531 -420.788821 
L 899.26867 -425.060177 
L 899.493882 -429.331532 
L 899.747431 -433.602888 
L 900.032037 -437.874244 
L 900.346203 -442.145599 
L 900.684931 -446.416955 
L 901.040768 -450.68831 
L 901.405008 -454.959666 
L 901.768906 -459.231021 
L 902.124699 -463.502377 
L 902.466308 -467.773732 
L 902.789647 -472.045088 
L 903.09254 -476.316443 
L 903.374342 -480.587799 
L 903.635393 -484.859154 
L 903.876455 -489.13051 
L 904.098255 -493.401865 
L 904.301218 -497.673221 
L 904.485396 -501.944576 
L 904.650576 -506.215932 
L 904.796495 -510.487287 
L 904.923074 -514.758643 
L 905.030616 -519.029998 
L 905.11992 -523.301354 
L 905.192286 -527.572709 
L 905.249445 -531.844065 
L 905.550555 -531.844065 
L 905.550555 -531.844065 
L 905.607714 -527.572709 
L 905.68008 -523.301354 
L 905.769384 -519.029998 
L 905.876926 -514.758643 
L 906.003505 -510.487287 
L 906.149424 -506.215932 
L 906.314604 -501.944576 
L 906.498782 -497.673221 
L 906.701745 -493.401865 
L 906.923545 -489.13051 
L 907.164607 -484.859154 
L 907.425658 -480.587799 
L 907.70746 -476.316443 
L 908.010353 -472.045088 
L 908.333692 -467.773732 
L 908.675301 -463.502377 
L 909.031094 -459.231021 
L 909.394992 -454.959666 
L 909.759232 -450.68831 
L 910.115069 -446.416955 
L 910.453797 -442.145599 
L 910.767963 -437.874244 
L 911.052569 -433.602888 
L 911.306118 -429.331532 
L 911.53133 -425.060177 
L 911.735469 -420.788821 
L 911.930234 -416.517466 
L 912.131265 -412.24611 
L 912.357283 -407.974755 
L 912.628961 -403.703399 
L 912.967555 -399.432044 
L 913.3934 -395.160688 
L 913.924345 -390.889333 
L 914.574278 -386.617977 
L 915.351893 -382.346622 
L 916.259886 -378.075266 
L 917.294727 -373.803911 
L 918.447107 -369.532555 
L 919.703013 -365.2612 
L 921.045299 -360.989844 
L 922.455474 -356.718489 
L 923.915404 -352.447133 
L 925.408585 -348.175778 
L 926.920781 -343.904422 
L 928.439906 -339.633067 
L 929.955263 -335.361711 
L 931.456355 -331.090356 
L 932.931649 -326.819 
L 934.36766 -322.547645 
L 935.748694 -318.276289 
L 937.057413 -314.004933 
L 938.276202 -309.733578 
L 939.389098 -305.462222 
L 940.383866 -301.190867 
L 941.253745 -296.919511 
L 941.998428 -292.648156 
L 942.623968 -288.3768 
L 943.141578 -284.105445 
L 943.565514 -279.834089 
L 943.910441 -275.562734 
L 944.188815 -271.291378 
L 944.408753 -267.020023 
L 944.572737 -262.748667 
L 944.677294 -258.477312 
L 944.713544 -254.205956 
L 944.668354 -249.934601 
L 944.525763 -245.663245 
L 944.268399 -241.39189 
L 943.87869 -237.120534 
L 943.33987 -232.849179 
L 942.63686 -228.577823 
L 941.757172 -224.306468 
L 940.691962 -220.035112 
L 939.437212 -215.763757 
L 937.994935 -211.492401 
L 936.374167 -207.221046 
L 934.591492 -202.94969 
L 932.670873 -198.678334 
L 930.642699 -194.406979 
L 928.542128 -190.135623 
L 926.406935 -185.864268 
L 924.275168 -181.592912 
L 922.182966 -177.321557 
L 920.162789 -173.050201 
L 918.242221 -168.778846 
L 916.443366 -164.50749 
L 914.782751 -160.236135 
L 913.271575 -155.964779 
L 911.916146 -151.693424 
L 910.718369 -147.422068 
L 909.676221 -143.150713 
L 908.78421 -138.879357 
L 908.03383 -134.608002 
L 907.414079 -130.336646 
L 906.912039 -126.065291 
L 906.513546 -121.793935 
L 906.203895 -117.52258 
L 905.968526 -113.251224 
L 905.793644 -108.979869 
z
" style="stroke: #3f3f3f; stroke-width: 1.25"/>
    </defs>
    <g clip-path="url(#p563fa44bd8)">
     <use xlink:href="#m83a8d82906" x="0" y="720" style="fill: #3274a1; stroke: #3f3f3f; stroke-width: 1.25"/>
    </g>
   </g>
   <g id="PolyCollection_8">
    <defs>
     <path id="m266297011e" d="M 1017.413795 -109.992398 
L 1016.586205 -109.992398 
L 1016.396079 -114.243299 
L 1016.137183 -118.494199 
L 1015.79255 -122.745099 
L 1015.343764 -126.996 
L 1014.771618 -131.2469 
L 1014.056934 -135.4978 
L 1013.181495 -139.748701 
L 1012.129059 -143.999601 
L 1010.886401 -148.250502 
L 1009.444409 -152.501402 
L 1007.799191 -156.752302 
L 1005.953226 -161.003203 
L 1003.916492 -165.254103 
L 1001.707489 -169.505003 
L 999.353977 -173.755904 
L 996.893213 -178.006804 
L 994.371448 -182.257705 
L 991.842505 -186.508605 
L 989.365359 -190.759505 
L 987.000849 -195.010406 
L 984.807793 -199.261306 
L 982.838947 -203.512206 
L 981.137319 -207.763107 
L 979.733287 -212.014007 
L 978.642857 -216.264908 
L 977.867177 -220.515808 
L 977.393216 -224.766708 
L 977.195371 -229.017609 
L 977.237682 -233.268509 
L 977.47638 -237.519409 
L 977.862597 -241.77031 
L 978.345182 -246.02121 
L 978.873677 -250.272111 
L 979.401476 -254.523011 
L 979.88913 -258.773911 
L 980.307583 -263.024812 
L 980.640956 -267.275712 
L 980.888411 -271.526612 
L 981.064596 -275.777513 
L 981.198374 -280.028413 
L 981.329787 -284.279314 
L 981.505524 -288.530214 
L 981.773487 -292.781114 
L 982.177237 -297.032015 
L 982.751105 -301.282915 
L 983.516678 -305.533815 
L 984.481043 -309.784716 
L 985.636908 -314.035616 
L 986.964376 -318.286517 
L 988.433919 -322.537417 
L 990.009995 -326.788317 
L 991.654721 -331.039218 
L 993.331138 -335.290118 
L 995.005711 -339.541018 
L 996.649931 -343.791919 
L 998.24099 -348.042819 
L 999.761682 -352.29372 
L 1001.19974 -356.54462 
L 1002.546854 -360.79552 
L 1003.797634 -365.046421 
L 1004.94871 -369.297321 
L 1005.99811 -373.548221 
L 1006.944986 -377.799122 
L 1007.789656 -382.050022 
L 1008.533896 -386.300923 
L 1009.181358 -390.551823 
L 1009.737977 -394.802723 
L 1010.212228 -399.053624 
L 1010.615112 -403.304524 
L 1010.959795 -407.555424 
L 1011.260885 -411.806325 
L 1011.533385 -416.057225 
L 1011.791444 -420.308126 
L 1012.047086 -424.559026 
L 1012.309127 -428.809926 
L 1012.582477 -433.060827 
L 1012.867969 -437.311727 
L 1013.162787 -441.562627 
L 1013.461399 -445.813528 
L 1013.756852 -450.064428 
L 1014.042176 -454.315329 
L 1014.31163 -458.566229 
L 1014.561571 -462.817129 
L 1014.790817 -467.06803 
L 1015.000478 -471.31893 
L 1015.193353 -475.56983 
L 1015.373073 -479.820731 
L 1015.543203 -484.071631 
L 1015.706485 -488.322532 
L 1015.86438 -492.573432 
L 1016.016939 -496.824332 
L 1016.162995 -501.075233 
L 1016.300574 -505.326133 
L 1016.427405 -509.577033 
L 1016.541414 -513.827934 
L 1016.641105 -518.078834 
L 1016.725778 -522.329735 
L 1016.795577 -526.580635 
L 1016.851398 -530.831535 
L 1017.148602 -530.831535 
L 1017.148602 -530.831535 
L 1017.204423 -526.580635 
L 1017.274222 -522.329735 
L 1017.358895 -518.078834 
L 1017.458586 -513.827934 
L 1017.572595 -509.577033 
L 1017.699426 -505.326133 
L 1017.837005 -501.075233 
L 1017.983061 -496.824332 
L 1018.13562 -492.573432 
L 1018.293515 -488.322532 
L 1018.456797 -484.071631 
L 1018.626927 -479.820731 
L 1018.806647 -475.56983 
L 1018.999522 -471.31893 
L 1019.209183 -467.06803 
L 1019.438429 -462.817129 
L 1019.68837 -458.566229 
L 1019.957824 -454.315329 
L 1020.243148 -450.064428 
L 1020.538601 -445.813528 
L 1020.837213 -441.562627 
L 1021.132031 -437.311727 
L 1021.417523 -433.060827 
L 1021.690873 -428.809926 
L 1021.952914 -424.559026 
L 1022.208556 -420.308126 
L 1022.466615 -416.057225 
L 1022.739115 -411.806325 
L 1023.040205 -407.555424 
L 1023.384888 -403.304524 
L 1023.787772 -399.053624 
L 1024.262023 -394.802723 
L 1024.818642 -390.551823 
L 1025.466104 -386.300923 
L 1026.210344 -382.050022 
L 1027.055014 -377.799122 
L 1028.00189 -373.548221 
L 1029.05129 -369.297321 
L 1030.202366 -365.046421 
L 1031.453146 -360.79552 
L 1032.80026 -356.54462 
L 1034.238318 -352.29372 
L 1035.75901 -348.042819 
L 1037.350069 -343.791919 
L 1038.994289 -339.541018 
L 1040.668862 -335.290118 
L 1042.345279 -331.039218 
L 1043.990005 -326.788317 
L 1045.566081 -322.537417 
L 1047.035624 -318.286517 
L 1048.363092 -314.035616 
L 1049.518957 -309.784716 
L 1050.483322 -305.533815 
L 1051.248895 -301.282915 
L 1051.822763 -297.032015 
L 1052.226513 -292.781114 
L 1052.494476 -288.530214 
L 1052.670213 -284.279314 
L 1052.801626 -280.028413 
L 1052.935404 -275.777513 
L 1053.111589 -271.526612 
L 1053.359044 -267.275712 
L 1053.692417 -263.024812 
L 1054.11087 -258.773911 
L 1054.598524 -254.523011 
L 1055.126323 -250.272111 
L 1055.654818 -246.02121 
L 1056.137403 -241.77031 
L 1056.52362 -237.519409 
L 1056.762318 -233.268509 
L 1056.804629 -229.017609 
L 1056.606784 -224.766708 
L 1056.132823 -220.515808 
L 1055.357143 -216.264908 
L 1054.266713 -212.014007 
L 1052.862681 -207.763107 
L 1051.161053 -203.512206 
L 1049.192207 -199.261306 
L 1046.999151 -195.010406 
L 1044.634641 -190.759505 
L 1042.157495 -186.508605 
L 1039.628552 -182.257705 
L 1037.106787 -178.006804 
L 1034.646023 -173.755904 
L 1032.292511 -169.505003 
L 1030.083508 -165.254103 
L 1028.046774 -161.003203 
L 1026.200809 -156.752302 
L 1024.555591 -152.501402 
L 1023.113599 -148.250502 
L 1021.870941 -143.999601 
L 1020.818505 -139.748701 
L 1019.943066 -135.4978 
L 1019.228382 -131.2469 
L 1018.656236 -126.996 
L 1018.20745 -122.745099 
L 1017.862817 -118.494199 
L 1017.603921 -114.243299 
L 1017.413795 -109.992398 
z
" style="stroke: #3f3f3f; stroke-width: 1.25"/>
    </defs>
    <g clip-path="url(#p563fa44bd8)">
     <use xlink:href="#m266297011e" x="0" y="720" style="fill: #3274a1; stroke: #3f3f3f; stroke-width: 1.25"/>
    </g>
   </g>
   <g id="PolyCollection_9">
    <defs>
     <path id="mb00dc7c29b" d="M 1129.109826 -109.579228 
L 1128.090174 -109.579228 
L 1127.860795 -113.838475 
L 1127.551092 -118.097722 
L 1127.142536 -122.356969 
L 1126.615602 -126.616217 
L 1125.950675 -130.875464 
L 1125.129108 -135.134711 
L 1124.134337 -139.393958 
L 1122.953006 -143.653206 
L 1121.576004 -147.912453 
L 1119.9994 -152.1717 
L 1118.225253 -156.430947 
L 1116.262286 -160.690195 
L 1114.126406 -164.949442 
L 1111.841019 -169.208689 
L 1109.437041 -173.467936 
L 1106.952509 -177.727184 
L 1104.431671 -181.986431 
L 1101.923515 -186.245678 
L 1099.47979 -190.504925 
L 1097.152639 -194.764173 
L 1094.992099 -199.02342 
L 1093.043692 -203.282667 
L 1091.346348 -207.541914 
L 1089.930762 -211.801162 
L 1088.818196 -216.060409 
L 1088.019618 -220.319656 
L 1087.535068 -224.578904 
L 1087.35316 -228.838151 
L 1087.450803 -233.097398 
L 1087.79334 -237.356645 
L 1088.335448 -241.615893 
L 1089.023143 -245.87514 
L 1089.797117 -250.134387 
L 1090.59737 -254.393634 
L 1091.36878 -258.652882 
L 1092.066914 -262.912129 
L 1092.663183 -267.171376 
L 1093.148394 -271.430623 
L 1093.533933 -275.689871 
L 1093.850196 -279.949118 
L 1094.142355 -284.208365 
L 1094.464038 -288.467612 
L 1094.869914 -292.72686 
L 1095.408322 -296.986107 
L 1096.1151 -301.245354 
L 1097.009483 -305.504601 
L 1098.092552 -309.763849 
L 1099.34827 -314.023096 
L 1100.746679 -318.282343 
L 1102.248592 -322.54159 
L 1103.810876 -326.800838 
L 1105.391527 -331.060085 
L 1106.953796 -335.319332 
L 1108.468946 -339.578579 
L 1109.917433 -343.837827 
L 1111.288608 -348.097074 
L 1112.57923 -352.356321 
L 1113.791217 -356.615568 
L 1114.92914 -360.874816 
L 1115.997886 -365.134063 
L 1117.000876 -369.39331 
L 1117.939061 -373.652557 
L 1118.81075 -377.911805 
L 1119.612231 -382.171052 
L 1120.338947 -386.430299 
L 1120.986986 -390.689546 
L 1121.554561 -394.948794 
L 1122.043187 -399.208041 
L 1122.45834 -403.467288 
L 1122.809449 -407.726535 
L 1123.10921 -411.985783 
L 1123.372325 -416.24503 
L 1123.61387 -420.504277 
L 1123.847571 -424.763525 
L 1124.084285 -429.022772 
L 1124.330949 -433.282019 
L 1124.590173 -437.541266 
L 1124.860531 -441.800514 
L 1125.137457 -446.059761 
L 1125.414561 -450.319008 
L 1125.685081 -454.578255 
L 1125.943196 -458.837503 
L 1126.184961 -463.09675 
L 1126.408734 -467.355997 
L 1126.615064 -471.615244 
L 1126.806158 -475.874492 
L 1126.985077 -480.133739 
L 1127.154885 -484.392986 
L 1127.317938 -488.652233 
L 1127.475434 -492.911481 
L 1127.627296 -497.170728 
L 1127.772339 -501.429975 
L 1127.90865 -505.689222 
L 1128.03407 -509.94847 
L 1128.146649 -514.207717 
L 1128.245001 -518.466964 
L 1128.328507 -522.726211 
L 1128.397356 -526.985459 
L 1128.452454 -531.244706 
L 1128.747546 -531.244706 
L 1128.747546 -531.244706 
L 1128.802644 -526.985459 
L 1128.871493 -522.726211 
L 1128.954999 -518.466964 
L 1129.053351 -514.207717 
L 1129.16593 -509.94847 
L 1129.29135 -505.689222 
L 1129.427661 -501.429975 
L 1129.572704 -497.170728 
L 1129.724566 -492.911481 
L 1129.882062 -488.652233 
L 1130.045115 -484.392986 
L 1130.214923 -480.133739 
L 1130.393842 -475.874492 
L 1130.584936 -471.615244 
L 1130.791266 -467.355997 
L 1131.015039 -463.09675 
L 1131.256804 -458.837503 
L 1131.514919 -454.578255 
L 1131.785439 -450.319008 
L 1132.062543 -446.059761 
L 1132.339469 -441.800514 
L 1132.609827 -437.541266 
L 1132.869051 -433.282019 
L 1133.115715 -429.022772 
L 1133.352429 -424.763525 
L 1133.58613 -420.504277 
L 1133.827675 -416.24503 
L 1134.09079 -411.985783 
L 1134.390551 -407.726535 
L 1134.74166 -403.467288 
L 1135.156813 -399.208041 
L 1135.645439 -394.948794 
L 1136.213014 -390.689546 
L 1136.861053 -386.430299 
L 1137.587769 -382.171052 
L 1138.38925 -377.911805 
L 1139.260939 -373.652557 
L 1140.199124 -369.39331 
L 1141.202114 -365.134063 
L 1142.27086 -360.874816 
L 1143.408783 -356.615568 
L 1144.62077 -352.356321 
L 1145.911392 -348.097074 
L 1147.282567 -343.837827 
L 1148.731054 -339.578579 
L 1150.246204 -335.319332 
L 1151.808473 -331.060085 
L 1153.389124 -326.800838 
L 1154.951408 -322.54159 
L 1156.453321 -318.282343 
L 1157.85173 -314.023096 
L 1159.107448 -309.763849 
L 1160.190517 -305.504601 
L 1161.0849 -301.245354 
L 1161.791678 -296.986107 
L 1162.330086 -292.72686 
L 1162.735962 -288.467612 
L 1163.057645 -284.208365 
L 1163.349804 -279.949118 
L 1163.666067 -275.689871 
L 1164.051606 -271.430623 
L 1164.536817 -267.171376 
L 1165.133086 -262.912129 
L 1165.83122 -258.652882 
L 1166.60263 -254.393634 
L 1167.402883 -250.134387 
L 1168.176857 -245.87514 
L 1168.864552 -241.615893 
L 1169.40666 -237.356645 
L 1169.749197 -233.097398 
L 1169.84684 -228.838151 
L 1169.664932 -224.578904 
L 1169.180382 -220.319656 
L 1168.381804 -216.060409 
L 1167.269238 -211.801162 
L 1165.853652 -207.541914 
L 1164.156308 -203.282667 
L 1162.207901 -199.02342 
L 1160.047361 -194.764173 
L 1157.72021 -190.504925 
L 1155.276485 -186.245678 
L 1152.768329 -181.986431 
L 1150.247491 -177.727184 
L 1147.762959 -173.467936 
L 1145.358981 -169.208689 
L 1143.073594 -164.949442 
L 1140.937714 -160.690195 
L 1138.974747 -156.430947 
L 1137.2006 -152.1717 
L 1135.623996 -147.912453 
L 1134.246994 -143.653206 
L 1133.065663 -139.393958 
L 1132.070892 -135.134711 
L 1131.249325 -130.875464 
L 1130.584398 -126.616217 
L 1130.057464 -122.356969 
L 1129.648908 -118.097722 
L 1129.339205 -113.838475 
L 1129.109826 -109.579228 
z
" style="stroke: #3f3f3f; stroke-width: 1.25"/>
    </defs>
    <g clip-path="url(#p563fa44bd8)">
     <use xlink:href="#mb00dc7c29b" x="0" y="720" style="fill: #3274a1; stroke: #3f3f3f; stroke-width: 1.25"/>
    </g>
   </g>
   <g id="PolyCollection_10">
    <defs>
     <path id="m8104df6d21" d="M 1240.651361 -111.482129 
L 1239.748639 -111.482129 
L 1239.532152 -115.702934 
L 1239.233552 -119.923739 
L 1238.831434 -124.144543 
L 1238.302435 -128.365348 
L 1237.622241 -132.586153 
L 1236.766904 -136.806958 
L 1235.714406 -141.027763 
L 1234.446368 -145.248567 
L 1232.949789 -149.469372 
L 1231.218661 -153.690177 
L 1229.255347 -157.910982 
L 1227.071585 -162.131787 
L 1224.689006 -166.352591 
L 1222.139081 -170.573396 
L 1219.462435 -174.794201 
L 1216.707529 -179.015006 
L 1213.928782 -183.235811 
L 1211.184271 -187.456615 
L 1208.533246 -191.67742 
L 1206.033683 -195.898225 
L 1203.740124 -200.11903 
L 1201.701883 -204.339835 
L 1199.961642 -208.560639 
L 1198.554235 -212.781444 
L 1197.505393 -217.002249 
L 1196.830202 -221.223054 
L 1196.531199 -225.443859 
L 1196.596276 -229.664663 
L 1196.996827 -233.885468 
L 1197.686844 -238.106273 
L 1198.603685 -242.327078 
L 1199.671104 -246.547883 
L 1200.804756 -250.768687 
L 1201.919846 -254.989492 
L 1202.940041 -259.210297 
L 1203.806336 -263.431102 
L 1204.484366 -267.651907 
L 1204.968811 -271.872712 
L 1205.283962 -276.093516 
L 1205.480198 -280.314321 
L 1205.626851 -284.535126 
L 1205.802581 -288.755931 
L 1206.084803 -292.976736 
L 1206.539808 -297.19754 
L 1207.215012 -301.418345 
L 1208.134338 -305.63915 
L 1209.297097 -309.859955 
L 1210.680191 -314.08076 
L 1212.242923 -318.301564 
L 1213.93341 -322.522369 
L 1215.695484 -326.743174 
L 1217.47505 -330.963979 
L 1219.225124 -335.184784 
L 1220.909068 -339.405588 
L 1222.501923 -343.626393 
L 1223.990002 -347.847198 
L 1225.369145 -352.068003 
L 1226.642183 -356.288808 
L 1227.816117 -360.509612 
L 1228.899513 -364.730417 
L 1229.900432 -368.951222 
L 1230.825089 -373.172027 
L 1231.677262 -377.392832 
L 1232.458393 -381.613636 
L 1233.168199 -385.834441 
L 1233.805614 -390.055246 
L 1234.369863 -394.276051 
L 1234.861471 -398.496856 
L 1235.283052 -402.71766 
L 1235.639756 -406.938465 
L 1235.939275 -411.15927 
L 1236.191407 -415.380075 
L 1236.40722 -419.60088 
L 1236.597949 -423.821684 
L 1236.773811 -428.042489 
L 1236.94297 -432.263294 
L 1237.110843 -436.484099 
L 1237.279903 -440.704904 
L 1237.450001 -444.925708 
L 1237.619138 -449.146513 
L 1237.784495 -453.367318 
L 1237.943494 -457.588123 
L 1238.094637 -461.808928 
L 1238.237954 -466.029732 
L 1238.374987 -470.250537 
L 1238.508351 -474.471342 
L 1238.641023 -478.692147 
L 1238.775558 -482.912952 
L 1238.913417 -487.133757 
L 1239.054588 -491.354561 
L 1239.19753 -495.575366 
L 1239.339456 -499.796171 
L 1239.476833 -504.016976 
L 1239.605986 -508.237781 
L 1239.723662 -512.458585 
L 1239.827453 -516.67939 
L 1239.916029 -520.900195 
L 1239.989161 -525.121 
L 1240.047585 -529.341805 
L 1240.352415 -529.341805 
L 1240.352415 -529.341805 
L 1240.410839 -525.121 
L 1240.483971 -520.900195 
L 1240.572547 -516.67939 
L 1240.676338 -512.458585 
L 1240.794014 -508.237781 
L 1240.923167 -504.016976 
L 1241.060544 -499.796171 
L 1241.20247 -495.575366 
L 1241.345412 -491.354561 
L 1241.486583 -487.133757 
L 1241.624442 -482.912952 
L 1241.758977 -478.692147 
L 1241.891649 -474.471342 
L 1242.025013 -470.250537 
L 1242.162046 -466.029732 
L 1242.305363 -461.808928 
L 1242.456506 -457.588123 
L 1242.615505 -453.367318 
L 1242.780862 -449.146513 
L 1242.949999 -444.925708 
L 1243.120097 -440.704904 
L 1243.289157 -436.484099 
L 1243.45703 -432.263294 
L 1243.626189 -428.042489 
L 1243.802051 -423.821684 
L 1243.99278 -419.60088 
L 1244.208593 -415.380075 
L 1244.460725 -411.15927 
L 1244.760244 -406.938465 
L 1245.116948 -402.71766 
L 1245.538529 -398.496856 
L 1246.030137 -394.276051 
L 1246.594386 -390.055246 
L 1247.231801 -385.834441 
L 1247.941607 -381.613636 
L 1248.722738 -377.392832 
L 1249.574911 -373.172027 
L 1250.499568 -368.951222 
L 1251.500487 -364.730417 
L 1252.583883 -360.509612 
L 1253.757817 -356.288808 
L 1255.030855 -352.068003 
L 1256.409998 -347.847198 
L 1257.898077 -343.626393 
L 1259.490932 -339.405588 
L 1261.174876 -335.184784 
L 1262.92495 -330.963979 
L 1264.704516 -326.743174 
L 1266.46659 -322.522369 
L 1268.157077 -318.301564 
L 1269.719809 -314.08076 
L 1271.102903 -309.859955 
L 1272.265662 -305.63915 
L 1273.184988 -301.418345 
L 1273.860192 -297.19754 
L 1274.315197 -292.976736 
L 1274.597419 -288.755931 
L 1274.773149 -284.535126 
L 1274.919802 -280.314321 
L 1275.116038 -276.093516 
L 1275.431189 -271.872712 
L 1275.915634 -267.651907 
L 1276.593664 -263.431102 
L 1277.459959 -259.210297 
L 1278.480154 -254.989492 
L 1279.595244 -250.768687 
L 1280.728896 -246.547883 
L 1281.796315 -242.327078 
L 1282.713156 -238.106273 
L 1283.403173 -233.885468 
L 1283.803724 -229.664663 
L 1283.868801 -225.443859 
L 1283.569798 -221.223054 
L 1282.894607 -217.002249 
L 1281.845765 -212.781444 
L 1280.438358 -208.560639 
L 1278.698117 -204.339835 
L 1276.659876 -200.11903 
L 1274.366317 -195.898225 
L 1271.866754 -191.67742 
L 1269.215729 -187.456615 
L 1266.471218 -183.235811 
L 1263.692471 -179.015006 
L 1260.937565 -174.794201 
L 1258.260919 -170.573396 
L 1255.710994 -166.352591 
L 1253.328415 -162.131787 
L 1251.144653 -157.910982 
L 1249.181339 -153.690177 
L 1247.450211 -149.469372 
L 1245.953632 -145.248567 
L 1244.685594 -141.027763 
L 1243.633096 -136.806958 
L 1242.777759 -132.586153 
L 1242.097565 -128.365348 
L 1241.568566 -124.144543 
L 1241.166448 -119.923739 
L 1240.867848 -115.702934 
L 1240.651361 -111.482129 
z
" style="stroke: #3f3f3f; stroke-width: 1.25"/>
    </defs>
    <g clip-path="url(#p563fa44bd8)">
     <use xlink:href="#m8104df6d21" x="0" y="720" style="fill: #3274a1; stroke: #3f3f3f; stroke-width: 1.25"/>
    </g>
   </g>
   <g id="matplotlib.axis_1">
    <g id="xtick_1">
     <g id="line2d_1">
      <defs>
       <path id="mf1f5d1736e" d="M 0 0 
L 0 3.5 
" style="stroke: #000000; stroke-width: 0.8"/>
      </defs>
      <g>
       <use xlink:href="#mf1f5d1736e" x="235.8" y="640.8" style="stroke: #000000; stroke-width: 0.8"/>
      </g>
     </g>
     <g id="text_1">
      <!-- 0 -->
      <g transform="translate(232.61875 655.398438) scale(0.1 -0.1)">
       <defs>
        <path id="DejaVuSans-30" d="M 2034 4250 
Q 1547 4250 1301 3770 
Q 1056 3291 1056 2328 
Q 1056 1369 1301 889 
Q 1547 409 2034 409 
Q 2525 409 2770 889 
Q 3016 1369 3016 2328 
Q 3016 3291 2770 3770 
Q 2525 4250 2034 4250 
z
M 2034 4750 
Q 2819 4750 3233 4129 
Q 3647 3509 3647 2328 
Q 3647 1150 3233 529 
Q 2819 -91 2034 -91 
Q 1250 -91 836 529 
Q 422 1150 422 2328 
Q 422 3509 836 4129 
Q 1250 4750 2034 4750 
z
" transform="scale(0.015625)"/>
       </defs>
       <use xlink:href="#DejaVuSans-30"/>
      </g>
     </g>
    </g>
    <g id="xtick_2">
     <g id="line2d_2">
      <g>
       <use xlink:href="#mf1f5d1736e" x="347.4" y="640.8" style="stroke: #000000; stroke-width: 0.8"/>
      </g>
     </g>
     <g id="text_2">
      <!-- 1 -->
      <g transform="translate(344.21875 655.398438) scale(0.1 -0.1)">
       <defs>
        <path id="DejaVuSans-31" d="M 794 531 
L 1825 531 
L 1825 4091 
L 703 3866 
L 703 4441 
L 1819 4666 
L 2450 4666 
L 2450 531 
L 3481 531 
L 3481 0 
L 794 0 
L 794 531 
z
" transform="scale(0.015625)"/>
       </defs>
       <use xlink:href="#DejaVuSans-31"/>
      </g>
     </g>
    </g>
    <g id="xtick_3">
     <g id="line2d_3">
      <g>
       <use xlink:href="#mf1f5d1736e" x="459" y="640.8" style="stroke: #000000; stroke-width: 0.8"/>
      </g>
     </g>
     <g id="text_3">
      <!-- 2 -->
      <g transform="translate(455.81875 655.398438) scale(0.1 -0.1)">
       <defs>
        <path id="DejaVuSans-32" d="M 1228 531 
L 3431 531 
L 3431 0 
L 469 0 
L 469 531 
Q 828 903 1448 1529 
Q 2069 2156 2228 2338 
Q 2531 2678 2651 2914 
Q 2772 3150 2772 3378 
Q 2772 3750 2511 3984 
Q 2250 4219 1831 4219 
Q 1534 4219 1204 4116 
Q 875 4013 500 3803 
L 500 4441 
Q 881 4594 1212 4672 
Q 1544 4750 1819 4750 
Q 2544 4750 2975 4387 
Q 3406 4025 3406 3419 
Q 3406 3131 3298 2873 
Q 3191 2616 2906 2266 
Q 2828 2175 2409 1742 
Q 1991 1309 1228 531 
z
" transform="scale(0.015625)"/>
       </defs>
       <use xlink:href="#DejaVuSans-32"/>
      </g>
     </g>
    </g>
    <g id="xtick_4">
     <g id="line2d_4">
      <g>
       <use xlink:href="#mf1f5d1736e" x="570.6" y="640.8" style="stroke: #000000; stroke-width: 0.8"/>
      </g>
     </g>
     <g id="text_4">
      <!-- 3 -->
      <g transform="translate(567.41875 655.398438) scale(0.1 -0.1)">
       <defs>
        <path id="DejaVuSans-33" d="M 2597 2516 
Q 3050 2419 3304 2112 
Q 3559 1806 3559 1356 
Q 3559 666 3084 287 
Q 2609 -91 1734 -91 
Q 1441 -91 1130 -33 
Q 819 25 488 141 
L 488 750 
Q 750 597 1062 519 
Q 1375 441 1716 441 
Q 2309 441 2620 675 
Q 2931 909 2931 1356 
Q 2931 1769 2642 2001 
Q 2353 2234 1838 2234 
L 1294 2234 
L 1294 2753 
L 1863 2753 
Q 2328 2753 2575 2939 
Q 2822 3125 2822 3475 
Q 2822 3834 2567 4026 
Q 2313 4219 1838 4219 
Q 1578 4219 1281 4162 
Q 984 4106 628 3988 
L 628 4550 
Q 988 4650 1302 4700 
Q 1616 4750 1894 4750 
Q 2613 4750 3031 4423 
Q 3450 4097 3450 3541 
Q 3450 3153 3228 2886 
Q 3006 2619 2597 2516 
z
" transform="scale(0.015625)"/>
       </defs>
       <use xlink:href="#DejaVuSans-33"/>
      </g>
     </g>
    </g>
    <g id="xtick_5">
     <g id="line2d_5">
      <g>
       <use xlink:href="#mf1f5d1736e" x="682.2" y="640.8" style="stroke: #000000; stroke-width: 0.8"/>
      </g>
     </g>
     <g id="text_5">
      <!-- 4 -->
      <g transform="translate(679.01875 655.398438) scale(0.1 -0.1)">
       <defs>
        <path id="DejaVuSans-34" d="M 2419 4116 
L 825 1625 
L 2419 1625 
L 2419 4116 
z
M 2253 4666 
L 3047 4666 
L 3047 1625 
L 3713 1625 
L 3713 1100 
L 3047 1100 
L 3047 0 
L 2419 0 
L 2419 1100 
L 313 1100 
L 313 1709 
L 2253 4666 
z
" transform="scale(0.015625)"/>
       </defs>
       <use xlink:href="#DejaVuSans-34"/>
      </g>
     </g>
    </g>
    <g id="xtick_6">
     <g id="line2d_6">
      <g>
       <use xlink:href="#mf1f5d1736e" x="793.8" y="640.8" style="stroke: #000000; stroke-width: 0.8"/>
      </g>
     </g>
     <g id="text_6">
      <!-- 5 -->
      <g transform="translate(790.61875 655.398438) scale(0.1 -0.1)">
       <defs>
        <path id="DejaVuSans-35" d="M 691 4666 
L 3169 4666 
L 3169 4134 
L 1269 4134 
L 1269 2991 
Q 1406 3038 1543 3061 
Q 1681 3084 1819 3084 
Q 2600 3084 3056 2656 
Q 3513 2228 3513 1497 
Q 3513 744 3044 326 
Q 2575 -91 1722 -91 
Q 1428 -91 1123 -41 
Q 819 9 494 109 
L 494 744 
Q 775 591 1075 516 
Q 1375 441 1709 441 
Q 2250 441 2565 725 
Q 2881 1009 2881 1497 
Q 2881 1984 2565 2268 
Q 2250 2553 1709 2553 
Q 1456 2553 1204 2497 
Q 953 2441 691 2322 
L 691 4666 
z
" transform="scale(0.015625)"/>
       </defs>
       <use xlink:href="#DejaVuSans-35"/>
      </g>
     </g>
    </g>
    <g id="xtick_7">
     <g id="line2d_7">
      <g>
       <use xlink:href="#mf1f5d1736e" x="905.4" y="640.8" style="stroke: #000000; stroke-width: 0.8"/>
      </g>
     </g>
     <g id="text_7">
      <!-- 6 -->
      <g transform="translate(902.21875 655.398438) scale(0.1 -0.1)">
       <defs>
        <path id="DejaVuSans-36" d="M 2113 2584 
Q 1688 2584 1439 2293 
Q 1191 2003 1191 1497 
Q 1191 994 1439 701 
Q 1688 409 2113 409 
Q 2538 409 2786 701 
Q 3034 994 3034 1497 
Q 3034 2003 2786 2293 
Q 2538 2584 2113 2584 
z
M 3366 4563 
L 3366 3988 
Q 3128 4100 2886 4159 
Q 2644 4219 2406 4219 
Q 1781 4219 1451 3797 
Q 1122 3375 1075 2522 
Q 1259 2794 1537 2939 
Q 1816 3084 2150 3084 
Q 2853 3084 3261 2657 
Q 3669 2231 3669 1497 
Q 3669 778 3244 343 
Q 2819 -91 2113 -91 
Q 1303 -91 875 529 
Q 447 1150 447 2328 
Q 447 3434 972 4092 
Q 1497 4750 2381 4750 
Q 2619 4750 2861 4703 
Q 3103 4656 3366 4563 
z
" transform="scale(0.015625)"/>
       </defs>
       <use xlink:href="#DejaVuSans-36"/>
      </g>
     </g>
    </g>
    <g id="xtick_8">
     <g id="line2d_8">
      <g>
       <use xlink:href="#mf1f5d1736e" x="1017" y="640.8" style="stroke: #000000; stroke-width: 0.8"/>
      </g>
     </g>
     <g id="text_8">
      <!-- 7 -->
      <g transform="translate(1013.81875 655.398438) scale(0.1 -0.1)">
       <defs>
        <path id="DejaVuSans-37" d="M 525 4666 
L 3525 4666 
L 3525 4397 
L 1831 0 
L 1172 0 
L 2766 4134 
L 525 4134 
L 525 4666 
z
" transform="scale(0.015625)"/>
       </defs>
       <use xlink:href="#DejaVuSans-37"/>
      </g>
     </g>
    </g>
    <g id="xtick_9">
     <g id="line2d_9">
      <g>
       <use xlink:href="#mf1f5d1736e" x="1128.6" y="640.8" style="stroke: #000000; stroke-width: 0.8"/>
      </g>
     </g>
     <g id="text_9">
      <!-- 8 -->
      <g transform="translate(1125.41875 655.398438) scale(0.1 -0.1)">
       <defs>
        <path id="DejaVuSans-38" d="M 2034 2216 
Q 1584 2216 1326 1975 
Q 1069 1734 1069 1313 
Q 1069 891 1326 650 
Q 1584 409 2034 409 
Q 2484 409 2743 651 
Q 3003 894 3003 1313 
Q 3003 1734 2745 1975 
Q 2488 2216 2034 2216 
z
M 1403 2484 
Q 997 2584 770 2862 
Q 544 3141 544 3541 
Q 544 4100 942 4425 
Q 1341 4750 2034 4750 
Q 2731 4750 3128 4425 
Q 3525 4100 3525 3541 
Q 3525 3141 3298 2862 
Q 3072 2584 2669 2484 
Q 3125 2378 3379 2068 
Q 3634 1759 3634 1313 
Q 3634 634 3220 271 
Q 2806 -91 2034 -91 
Q 1263 -91 848 271 
Q 434 634 434 1313 
Q 434 1759 690 2068 
Q 947 2378 1403 2484 
z
M 1172 3481 
Q 1172 3119 1398 2916 
Q 1625 2713 2034 2713 
Q 2441 2713 2670 2916 
Q 2900 3119 2900 3481 
Q 2900 3844 2670 4047 
Q 2441 4250 2034 4250 
Q 1625 4250 1398 4047 
Q 1172 3844 1172 3481 
z
" transform="scale(0.015625)"/>
       </defs>
       <use xlink:href="#DejaVuSans-38"/>
      </g>
     </g>
    </g>
    <g id="xtick_10">
     <g id="line2d_10">
      <g>
       <use xlink:href="#mf1f5d1736e" x="1240.2" y="640.8" style="stroke: #000000; stroke-width: 0.8"/>
      </g>
     </g>
     <g id="text_10">
      <!-- 9 -->
      <g transform="translate(1237.01875 655.398438) scale(0.1 -0.1)">
       <defs>
        <path id="DejaVuSans-39" d="M 703 97 
L 703 672 
Q 941 559 1184 500 
Q 1428 441 1663 441 
Q 2288 441 2617 861 
Q 2947 1281 2994 2138 
Q 2813 1869 2534 1725 
Q 2256 1581 1919 1581 
Q 1219 1581 811 2004 
Q 403 2428 403 3163 
Q 403 3881 828 4315 
Q 1253 4750 1959 4750 
Q 2769 4750 3195 4129 
Q 3622 3509 3622 2328 
Q 3622 1225 3098 567 
Q 2575 -91 1691 -91 
Q 1453 -91 1209 -44 
Q 966 3 703 97 
z
M 1959 2075 
Q 2384 2075 2632 2365 
Q 2881 2656 2881 3163 
Q 2881 3666 2632 3958 
Q 2384 4250 1959 4250 
Q 1534 4250 1286 3958 
Q 1038 3666 1038 3163 
Q 1038 2656 1286 2365 
Q 1534 2075 1959 2075 
z
" transform="scale(0.015625)"/>
       </defs>
       <use xlink:href="#DejaVuSans-39"/>
      </g>
     </g>
    </g>
    <g id="text_11">
     <!-- iteration -->
     <g transform="translate(716.877344 669.076563) scale(0.1 -0.1)">
      <defs>
       <path id="DejaVuSans-69" d="M 603 3500 
L 1178 3500 
L 1178 0 
L 603 0 
L 603 3500 
z
M 603 4863 
L 1178 4863 
L 1178 4134 
L 603 4134 
L 603 4863 
z
" transform="scale(0.015625)"/>
       <path id="DejaVuSans-74" d="M 1172 4494 
L 1172 3500 
L 2356 3500 
L 2356 3053 
L 1172 3053 
L 1172 1153 
Q 1172 725 1289 603 
Q 1406 481 1766 481 
L 2356 481 
L 2356 0 
L 1766 0 
Q 1100 0 847 248 
Q 594 497 594 1153 
L 594 3053 
L 172 3053 
L 172 3500 
L 594 3500 
L 594 4494 
L 1172 4494 
z
" transform="scale(0.015625)"/>
       <path id="DejaVuSans-65" d="M 3597 1894 
L 3597 1613 
L 953 1613 
Q 991 1019 1311 708 
Q 1631 397 2203 397 
Q 2534 397 2845 478 
Q 3156 559 3463 722 
L 3463 178 
Q 3153 47 2828 -22 
Q 2503 -91 2169 -91 
Q 1331 -91 842 396 
Q 353 884 353 1716 
Q 353 2575 817 3079 
Q 1281 3584 2069 3584 
Q 2775 3584 3186 3129 
Q 3597 2675 3597 1894 
z
M 3022 2063 
Q 3016 2534 2758 2815 
Q 2500 3097 2075 3097 
Q 1594 3097 1305 2825 
Q 1016 2553 972 2059 
L 3022 2063 
z
" transform="scale(0.015625)"/>
       <path id="DejaVuSans-72" d="M 2631 2963 
Q 2534 3019 2420 3045 
Q 2306 3072 2169 3072 
Q 1681 3072 1420 2755 
Q 1159 2438 1159 1844 
L 1159 0 
L 581 0 
L 581 3500 
L 1159 3500 
L 1159 2956 
Q 1341 3275 1631 3429 
Q 1922 3584 2338 3584 
Q 2397 3584 2469 3576 
Q 2541 3569 2628 3553 
L 2631 2963 
z
" transform="scale(0.015625)"/>
       <path id="DejaVuSans-61" d="M 2194 1759 
Q 1497 1759 1228 1600 
Q 959 1441 959 1056 
Q 959 750 1161 570 
Q 1363 391 1709 391 
Q 2188 391 2477 730 
Q 2766 1069 2766 1631 
L 2766 1759 
L 2194 1759 
z
M 3341 1997 
L 3341 0 
L 2766 0 
L 2766 531 
Q 2569 213 2275 61 
Q 1981 -91 1556 -91 
Q 1019 -91 701 211 
Q 384 513 384 1019 
Q 384 1609 779 1909 
Q 1175 2209 1959 2209 
L 2766 2209 
L 2766 2266 
Q 2766 2663 2505 2880 
Q 2244 3097 1772 3097 
Q 1472 3097 1187 3025 
Q 903 2953 641 2809 
L 641 3341 
Q 956 3463 1253 3523 
Q 1550 3584 1831 3584 
Q 2591 3584 2966 3190 
Q 3341 2797 3341 1997 
z
" transform="scale(0.015625)"/>
       <path id="DejaVuSans-6f" d="M 1959 3097 
Q 1497 3097 1228 2736 
Q 959 2375 959 1747 
Q 959 1119 1226 758 
Q 1494 397 1959 397 
Q 2419 397 2687 759 
Q 2956 1122 2956 1747 
Q 2956 2369 2687 2733 
Q 2419 3097 1959 3097 
z
M 1959 3584 
Q 2709 3584 3137 3096 
Q 3566 2609 3566 1747 
Q 3566 888 3137 398 
Q 2709 -91 1959 -91 
Q 1206 -91 779 398 
Q 353 888 353 1747 
Q 353 2609 779 3096 
Q 1206 3584 1959 3584 
z
" transform="scale(0.015625)"/>
       <path id="DejaVuSans-6e" d="M 3513 2113 
L 3513 0 
L 2938 0 
L 2938 2094 
Q 2938 2591 2744 2837 
Q 2550 3084 2163 3084 
Q 1697 3084 1428 2787 
Q 1159 2491 1159 1978 
L 1159 0 
L 581 0 
L 581 3500 
L 1159 3500 
L 1159 2956 
Q 1366 3272 1645 3428 
Q 1925 3584 2291 3584 
Q 2894 3584 3203 3211 
Q 3513 2838 3513 2113 
z
" transform="scale(0.015625)"/>
      </defs>
      <use xlink:href="#DejaVuSans-69"/>
      <use xlink:href="#DejaVuSans-74" x="27.783203"/>
      <use xlink:href="#DejaVuSans-65" x="66.992188"/>
      <use xlink:href="#DejaVuSans-72" x="128.515625"/>
      <use xlink:href="#DejaVuSans-61" x="169.628906"/>
      <use xlink:href="#DejaVuSans-74" x="230.908203"/>
      <use xlink:href="#DejaVuSans-69" x="270.117188"/>
      <use xlink:href="#DejaVuSans-6f" x="297.900391"/>
      <use xlink:href="#DejaVuSans-6e" x="359.082031"/>
     </g>
    </g>
   </g>
   <g id="matplotlib.axis_2">
    <g id="ytick_1">
     <g id="line2d_11">
      <defs>
       <path id="m24ceb6902b" d="M 0 0 
L -3.5 0 
" style="stroke: #000000; stroke-width: 0.8"/>
      </defs>
      <g>
       <use xlink:href="#m24ceb6902b" x="180" y="610.589498" style="stroke: #000000; stroke-width: 0.8"/>
      </g>
     </g>
     <g id="text_12">
      <!-- 0.2 -->
      <g transform="translate(148.717187 614.388717) scale(0.1 -0.1)">
       <defs>
        <path id="DejaVuSans-2212" d="M 678 2272 
L 4684 2272 
L 4684 1741 
L 678 1741 
L 678 2272 
z
" transform="scale(0.015625)"/>
        <path id="DejaVuSans-2e" d="M 684 794 
L 1344 794 
L 1344 0 
L 684 0 
L 684 794 
z
" transform="scale(0.015625)"/>
       </defs>
       <use xlink:href="#DejaVuSans-2212"/>
       <use xlink:href="#DejaVuSans-30" x="83.789062"/>
       <use xlink:href="#DejaVuSans-2e" x="147.412109"/>
       <use xlink:href="#DejaVuSans-32" x="179.199219"/>
      </g>
     </g>
    </g>
    <g id="ytick_2">
     <g id="line2d_12">
      <g>
       <use xlink:href="#m24ceb6902b" x="180" y="537.01352" style="stroke: #000000; stroke-width: 0.8"/>
      </g>
     </g>
     <g id="text_13">
      <!-- 0.0 -->
      <g transform="translate(157.096875 540.812739) scale(0.1 -0.1)">
       <use xlink:href="#DejaVuSans-30"/>
       <use xlink:href="#DejaVuSans-2e" x="63.623047"/>
       <use xlink:href="#DejaVuSans-30" x="95.410156"/>
      </g>
     </g>
    </g>
    <g id="ytick_3">
     <g id="line2d_13">
      <g>
       <use xlink:href="#m24ceb6902b" x="180" y="463.437542" style="stroke: #000000; stroke-width: 0.8"/>
      </g>
     </g>
     <g id="text_14">
      <!-- 0.2 -->
      <g transform="translate(157.096875 467.236761) scale(0.1 -0.1)">
       <use xlink:href="#DejaVuSans-30"/>
       <use xlink:href="#DejaVuSans-2e" x="63.623047"/>
       <use xlink:href="#DejaVuSans-32" x="95.410156"/>
      </g>
     </g>
    </g>
    <g id="ytick_4">
     <g id="line2d_14">
      <g>
       <use xlink:href="#m24ceb6902b" x="180" y="389.861564" style="stroke: #000000; stroke-width: 0.8"/>
      </g>
     </g>
     <g id="text_15">
      <!-- 0.4 -->
      <g transform="translate(157.096875 393.660783) scale(0.1 -0.1)">
       <use xlink:href="#DejaVuSans-30"/>
       <use xlink:href="#DejaVuSans-2e" x="63.623047"/>
       <use xlink:href="#DejaVuSans-34" x="95.410156"/>
      </g>
     </g>
    </g>
    <g id="ytick_5">
     <g id="line2d_15">
      <g>
       <use xlink:href="#m24ceb6902b" x="180" y="316.285586" style="stroke: #000000; stroke-width: 0.8"/>
      </g>
     </g>
     <g id="text_16">
      <!-- 0.6 -->
      <g transform="translate(157.096875 320.084805) scale(0.1 -0.1)">
       <use xlink:href="#DejaVuSans-30"/>
       <use xlink:href="#DejaVuSans-2e" x="63.623047"/>
       <use xlink:href="#DejaVuSans-36" x="95.410156"/>
      </g>
     </g>
    </g>
    <g id="ytick_6">
     <g id="line2d_16">
      <g>
       <use xlink:href="#m24ceb6902b" x="180" y="242.709608" style="stroke: #000000; stroke-width: 0.8"/>
      </g>
     </g>
     <g id="text_17">
      <!-- 0.8 -->
      <g transform="translate(157.096875 246.508826) scale(0.1 -0.1)">
       <use xlink:href="#DejaVuSans-30"/>
       <use xlink:href="#DejaVuSans-2e" x="63.623047"/>
       <use xlink:href="#DejaVuSans-38" x="95.410156"/>
      </g>
     </g>
    </g>
    <g id="ytick_7">
     <g id="line2d_17">
      <g>
       <use xlink:href="#m24ceb6902b" x="180" y="169.13363" style="stroke: #000000; stroke-width: 0.8"/>
      </g>
     </g>
     <g id="text_18">
      <!-- 1.0 -->
      <g transform="translate(157.096875 172.932848) scale(0.1 -0.1)">
       <use xlink:href="#DejaVuSans-31"/>
       <use xlink:href="#DejaVuSans-2e" x="63.623047"/>
       <use xlink:href="#DejaVuSans-30" x="95.410156"/>
      </g>
     </g>
    </g>
    <g id="ytick_8">
     <g id="line2d_18">
      <g>
       <use xlink:href="#m24ceb6902b" x="180" y="95.557652" style="stroke: #000000; stroke-width: 0.8"/>
      </g>
     </g>
     <g id="text_19">
      <!-- 1.2 -->
      <g transform="translate(157.096875 99.35687) scale(0.1 -0.1)">
       <use xlink:href="#DejaVuSans-31"/>
       <use xlink:href="#DejaVuSans-2e" x="63.623047"/>
       <use xlink:href="#DejaVuSans-32" x="95.410156"/>
      </g>
     </g>
    </g>
    <g id="text_20">
     <!-- cosine similarity -->
     <g transform="translate(142.6375 404.307031) rotate(-90) scale(0.1 -0.1)">
      <defs>
       <path id="DejaVuSans-63" d="M 3122 3366 
L 3122 2828 
Q 2878 2963 2633 3030 
Q 2388 3097 2138 3097 
Q 1578 3097 1268 2742 
Q 959 2388 959 1747 
Q 959 1106 1268 751 
Q 1578 397 2138 397 
Q 2388 397 2633 464 
Q 2878 531 3122 666 
L 3122 134 
Q 2881 22 2623 -34 
Q 2366 -91 2075 -91 
Q 1284 -91 818 406 
Q 353 903 353 1747 
Q 353 2603 823 3093 
Q 1294 3584 2113 3584 
Q 2378 3584 2631 3529 
Q 2884 3475 3122 3366 
z
" transform="scale(0.015625)"/>
       <path id="DejaVuSans-73" d="M 2834 3397 
L 2834 2853 
Q 2591 2978 2328 3040 
Q 2066 3103 1784 3103 
Q 1356 3103 1142 2972 
Q 928 2841 928 2578 
Q 928 2378 1081 2264 
Q 1234 2150 1697 2047 
L 1894 2003 
Q 2506 1872 2764 1633 
Q 3022 1394 3022 966 
Q 3022 478 2636 193 
Q 2250 -91 1575 -91 
Q 1294 -91 989 -36 
Q 684 19 347 128 
L 347 722 
Q 666 556 975 473 
Q 1284 391 1588 391 
Q 1994 391 2212 530 
Q 2431 669 2431 922 
Q 2431 1156 2273 1281 
Q 2116 1406 1581 1522 
L 1381 1569 
Q 847 1681 609 1914 
Q 372 2147 372 2553 
Q 372 3047 722 3315 
Q 1072 3584 1716 3584 
Q 2034 3584 2315 3537 
Q 2597 3491 2834 3397 
z
" transform="scale(0.015625)"/>
       <path id="DejaVuSans-20" transform="scale(0.015625)"/>
       <path id="DejaVuSans-6d" d="M 3328 2828 
Q 3544 3216 3844 3400 
Q 4144 3584 4550 3584 
Q 5097 3584 5394 3201 
Q 5691 2819 5691 2113 
L 5691 0 
L 5113 0 
L 5113 2094 
Q 5113 2597 4934 2840 
Q 4756 3084 4391 3084 
Q 3944 3084 3684 2787 
Q 3425 2491 3425 1978 
L 3425 0 
L 2847 0 
L 2847 2094 
Q 2847 2600 2669 2842 
Q 2491 3084 2119 3084 
Q 1678 3084 1418 2786 
Q 1159 2488 1159 1978 
L 1159 0 
L 581 0 
L 581 3500 
L 1159 3500 
L 1159 2956 
Q 1356 3278 1631 3431 
Q 1906 3584 2284 3584 
Q 2666 3584 2933 3390 
Q 3200 3197 3328 2828 
z
" transform="scale(0.015625)"/>
       <path id="DejaVuSans-6c" d="M 603 4863 
L 1178 4863 
L 1178 0 
L 603 0 
L 603 4863 
z
" transform="scale(0.015625)"/>
       <path id="DejaVuSans-79" d="M 2059 -325 
Q 1816 -950 1584 -1140 
Q 1353 -1331 966 -1331 
L 506 -1331 
L 506 -850 
L 844 -850 
Q 1081 -850 1212 -737 
Q 1344 -625 1503 -206 
L 1606 56 
L 191 3500 
L 800 3500 
L 1894 763 
L 2988 3500 
L 3597 3500 
L 2059 -325 
z
" transform="scale(0.015625)"/>
      </defs>
      <use xlink:href="#DejaVuSans-63"/>
      <use xlink:href="#DejaVuSans-6f" x="54.980469"/>
      <use xlink:href="#DejaVuSans-73" x="116.162109"/>
      <use xlink:href="#DejaVuSans-69" x="168.261719"/>
      <use xlink:href="#DejaVuSans-6e" x="196.044922"/>
      <use xlink:href="#DejaVuSans-65" x="259.423828"/>
      <use xlink:href="#DejaVuSans-20" x="320.947266"/>
      <use xlink:href="#DejaVuSans-73" x="352.734375"/>
      <use xlink:href="#DejaVuSans-69" x="404.833984"/>
      <use xlink:href="#DejaVuSans-6d" x="432.617188"/>
      <use xlink:href="#DejaVuSans-69" x="530.029297"/>
      <use xlink:href="#DejaVuSans-6c" x="557.8125"/>
      <use xlink:href="#DejaVuSans-61" x="585.595703"/>
      <use xlink:href="#DejaVuSans-72" x="646.875"/>
      <use xlink:href="#DejaVuSans-69" x="687.988281"/>
      <use xlink:href="#DejaVuSans-74" x="715.771484"/>
      <use xlink:href="#DejaVuSans-79" x="754.980469"/>
     </g>
    </g>
   </g>
   <g id="line2d_19">
    <path d="M 235.8 505.320569 
L 235.8 238.515449 
" clip-path="url(#p563fa44bd8)" style="fill: none; stroke: #3f3f3f; stroke-width: 1.875; stroke-linecap: square"/>
   </g>
   <g id="line2d_20">
    <path d="M 235.8 400.297144 
L 235.8 326.928817 
" clip-path="url(#p563fa44bd8)" style="fill: none; stroke: #3f3f3f; stroke-width: 5.625; stroke-linecap: square"/>
   </g>
   <g id="line2d_21">
    <path d="M 235.8 362.314045 
" clip-path="url(#p563fa44bd8)" style="fill: none; stroke: #3f3f3f; stroke-width: 1.5; stroke-linecap: square"/>
    <defs>
     <path id="mcb54d73146" d="M 2.34375 0 
L -2.34375 -0 
" style="stroke: #ffffff; stroke-width: 1.125"/>
    </defs>
    <g clip-path="url(#p563fa44bd8)">
     <use xlink:href="#mcb54d73146" x="235.8" y="362.314045" style="fill: #ffffff; stroke: #ffffff; stroke-width: 1.125"/>
    </g>
   </g>
   <g id="line2d_22">
    <path d="M 347.4 558.06637 
L 347.4 241.109696 
" clip-path="url(#p563fa44bd8)" style="fill: none; stroke: #3f3f3f; stroke-width: 1.875; stroke-linecap: square"/>
   </g>
   <g id="line2d_23">
    <path d="M 347.4 453.537653 
L 347.4 355.378148 
" clip-path="url(#p563fa44bd8)" style="fill: none; stroke: #3f3f3f; stroke-width: 5.625; stroke-linecap: square"/>
   </g>
   <g id="line2d_24">
    <path d="M 347.4 404.924248 
" clip-path="url(#p563fa44bd8)" style="fill: none; stroke: #3f3f3f; stroke-width: 1.5; stroke-linecap: square"/>
    <g clip-path="url(#p563fa44bd8)">
     <use xlink:href="#mcb54d73146" x="347.4" y="404.924248" style="fill: #ffffff; stroke: #ffffff; stroke-width: 1.125"/>
    </g>
   </g>
   <g id="line2d_25">
    <path d="M 459 558.06637 
L 459 241.109696 
" clip-path="url(#p563fa44bd8)" style="fill: none; stroke: #3f3f3f; stroke-width: 1.875; stroke-linecap: square"/>
   </g>
   <g id="line2d_26">
    <path d="M 459 460.538966 
L 459 369.485108 
" clip-path="url(#p563fa44bd8)" style="fill: none; stroke: #3f3f3f; stroke-width: 5.625; stroke-linecap: square"/>
   </g>
   <g id="line2d_27">
    <path d="M 459 409.999108 
" clip-path="url(#p563fa44bd8)" style="fill: none; stroke: #3f3f3f; stroke-width: 1.5; stroke-linecap: square"/>
    <g clip-path="url(#p563fa44bd8)">
     <use xlink:href="#mcb54d73146" x="459" y="409.999108" style="fill: #ffffff; stroke: #ffffff; stroke-width: 1.125"/>
    </g>
   </g>
   <g id="line2d_28">
    <path d="M 570.6 558.06637 
L 570.6 241.109696 
" clip-path="url(#p563fa44bd8)" style="fill: none; stroke: #3f3f3f; stroke-width: 1.875; stroke-linecap: square"/>
   </g>
   <g id="line2d_29">
    <path d="M 570.6 469.443982 
L 570.6 370.672636 
" clip-path="url(#p563fa44bd8)" style="fill: none; stroke: #3f3f3f; stroke-width: 5.625; stroke-linecap: square"/>
   </g>
   <g id="line2d_30">
    <path d="M 570.6 423.295256 
" clip-path="url(#p563fa44bd8)" style="fill: none; stroke: #3f3f3f; stroke-width: 1.5; stroke-linecap: square"/>
    <g clip-path="url(#p563fa44bd8)">
     <use xlink:href="#mcb54d73146" x="570.6" y="423.295256" style="fill: #ffffff; stroke: #ffffff; stroke-width: 1.125"/>
    </g>
   </g>
   <g id="line2d_31">
    <path d="M 682.2 558.06637 
L 682.2 265.388864 
" clip-path="url(#p563fa44bd8)" style="fill: none; stroke: #3f3f3f; stroke-width: 1.875; stroke-linecap: square"/>
   </g>
   <g id="line2d_32">
    <path d="M 682.2 474.144105 
L 682.2 381.458157 
" clip-path="url(#p563fa44bd8)" style="fill: none; stroke: #3f3f3f; stroke-width: 5.625; stroke-linecap: square"/>
   </g>
   <g id="line2d_33">
    <path d="M 682.2 425.873671 
" clip-path="url(#p563fa44bd8)" style="fill: none; stroke: #3f3f3f; stroke-width: 1.5; stroke-linecap: square"/>
    <g clip-path="url(#p563fa44bd8)">
     <use xlink:href="#mcb54d73146" x="682.2" y="425.873671" style="fill: #ffffff; stroke: #ffffff; stroke-width: 1.125"/>
    </g>
   </g>
   <g id="line2d_34">
    <path d="M 793.8 558.06637 
L 793.8 282.88814 
" clip-path="url(#p563fa44bd8)" style="fill: none; stroke: #3f3f3f; stroke-width: 1.875; stroke-linecap: square"/>
   </g>
   <g id="line2d_35">
    <path d="M 793.8 485.579919 
L 793.8 402.338876 
" clip-path="url(#p563fa44bd8)" style="fill: none; stroke: #3f3f3f; stroke-width: 5.625; stroke-linecap: square"/>
   </g>
   <g id="line2d_36">
    <path d="M 793.8 444.719612 
" clip-path="url(#p563fa44bd8)" style="fill: none; stroke: #3f3f3f; stroke-width: 1.5; stroke-linecap: square"/>
    <g clip-path="url(#p563fa44bd8)">
     <use xlink:href="#mcb54d73146" x="793.8" y="444.719612" style="fill: #ffffff; stroke: #ffffff; stroke-width: 1.125"/>
    </g>
   </g>
   <g id="line2d_37">
    <path d="M 905.4 558.06637 
L 905.4 275.669722 
" clip-path="url(#p563fa44bd8)" style="fill: none; stroke: #3f3f3f; stroke-width: 1.875; stroke-linecap: square"/>
   </g>
   <g id="line2d_38">
    <path d="M 905.4 492.500608 
L 905.4 402.338876 
" clip-path="url(#p563fa44bd8)" style="fill: none; stroke: #3f3f3f; stroke-width: 5.625; stroke-linecap: square"/>
   </g>
   <g id="line2d_39">
    <path d="M 905.4 450.366447 
" clip-path="url(#p563fa44bd8)" style="fill: none; stroke: #3f3f3f; stroke-width: 1.5; stroke-linecap: square"/>
    <g clip-path="url(#p563fa44bd8)">
     <use xlink:href="#mcb54d73146" x="905.4" y="450.366447" style="fill: #ffffff; stroke: #ffffff; stroke-width: 1.125"/>
    </g>
   </g>
   <g id="line2d_40">
    <path d="M 1017 558.06637 
L 1017 282.88814 
" clip-path="url(#p563fa44bd8)" style="fill: none; stroke: #3f3f3f; stroke-width: 1.875; stroke-linecap: square"/>
   </g>
   <g id="line2d_41">
    <path d="M 1017 498.631872 
L 1017 409.981303 
" clip-path="url(#p563fa44bd8)" style="fill: none; stroke: #3f3f3f; stroke-width: 5.625; stroke-linecap: square"/>
   </g>
   <g id="line2d_42">
    <path d="M 1017 458.633365 
" clip-path="url(#p563fa44bd8)" style="fill: none; stroke: #3f3f3f; stroke-width: 1.5; stroke-linecap: square"/>
    <g clip-path="url(#p563fa44bd8)">
     <use xlink:href="#mcb54d73146" x="1017" y="458.633365" style="fill: #ffffff; stroke: #ffffff; stroke-width: 1.125"/>
    </g>
   </g>
   <g id="line2d_43">
    <path d="M 1128.6 558.06637 
L 1128.6 282.88814 
" clip-path="url(#p563fa44bd8)" style="fill: none; stroke: #3f3f3f; stroke-width: 1.875; stroke-linecap: square"/>
   </g>
   <g id="line2d_44">
    <path d="M 1128.6 503.733207 
L 1128.6 414.963781 
" clip-path="url(#p563fa44bd8)" style="fill: none; stroke: #3f3f3f; stroke-width: 5.625; stroke-linecap: square"/>
   </g>
   <g id="line2d_45">
    <path d="M 1128.6 465.075155 
" clip-path="url(#p563fa44bd8)" style="fill: none; stroke: #3f3f3f; stroke-width: 1.5; stroke-linecap: square"/>
    <g clip-path="url(#p563fa44bd8)">
     <use xlink:href="#mcb54d73146" x="1128.6" y="465.075155" style="fill: #ffffff; stroke: #ffffff; stroke-width: 1.125"/>
    </g>
   </g>
   <g id="line2d_46">
    <path d="M 1240.2 558.06637 
L 1240.2 291.967707 
" clip-path="url(#p563fa44bd8)" style="fill: none; stroke: #3f3f3f; stroke-width: 1.875; stroke-linecap: square"/>
   </g>
   <g id="line2d_47">
    <path d="M 1240.2 503.928845 
L 1240.2 417.350565 
" clip-path="url(#p563fa44bd8)" style="fill: none; stroke: #3f3f3f; stroke-width: 5.625; stroke-linecap: square"/>
   </g>
   <g id="line2d_48">
    <path d="M 1240.2 470.160069 
" clip-path="url(#p563fa44bd8)" style="fill: none; stroke: #3f3f3f; stroke-width: 1.5; stroke-linecap: square"/>
    <g clip-path="url(#p563fa44bd8)">
     <use xlink:href="#mcb54d73146" x="1240.2" y="470.160069" style="fill: #ffffff; stroke: #ffffff; stroke-width: 1.125"/>
    </g>
   </g>
   <g id="patch_3">
    <path d="M 180 640.8 
L 180 86.4 
" style="fill: none; stroke: #000000; stroke-width: 0.8; stroke-linejoin: miter; stroke-linecap: square"/>
   </g>
   <g id="patch_4">
    <path d="M 1296 640.8 
L 1296 86.4 
" style="fill: none; stroke: #000000; stroke-width: 0.8; stroke-linejoin: miter; stroke-linecap: square"/>
   </g>
   <g id="patch_5">
    <path d="M 180 640.8 
L 1296 640.8 
" style="fill: none; stroke: #000000; stroke-width: 0.8; stroke-linejoin: miter; stroke-linecap: square"/>
   </g>
   <g id="patch_6">
    <path d="M 180 86.4 
L 1296 86.4 
" style="fill: none; stroke: #000000; stroke-width: 0.8; stroke-linejoin: miter; stroke-linecap: square"/>
   </g>
   <g id="text_21">
    <!-- cosine similarity of max (distanceFromInitialPrompt), by iteration -->
    <g transform="translate(543.054375 80.4) scale(0.12 -0.12)">
     <defs>
      <path id="DejaVuSans-66" d="M 2375 4863 
L 2375 4384 
L 1825 4384 
Q 1516 4384 1395 4259 
Q 1275 4134 1275 3809 
L 1275 3500 
L 2222 3500 
L 2222 3053 
L 1275 3053 
L 1275 0 
L 697 0 
L 697 3053 
L 147 3053 
L 147 3500 
L 697 3500 
L 697 3744 
Q 697 4328 969 4595 
Q 1241 4863 1831 4863 
L 2375 4863 
z
" transform="scale(0.015625)"/>
      <path id="DejaVuSans-78" d="M 3513 3500 
L 2247 1797 
L 3578 0 
L 2900 0 
L 1881 1375 
L 863 0 
L 184 0 
L 1544 1831 
L 300 3500 
L 978 3500 
L 1906 2253 
L 2834 3500 
L 3513 3500 
z
" transform="scale(0.015625)"/>
      <path id="DejaVuSans-28" d="M 1984 4856 
Q 1566 4138 1362 3434 
Q 1159 2731 1159 2009 
Q 1159 1288 1364 580 
Q 1569 -128 1984 -844 
L 1484 -844 
Q 1016 -109 783 600 
Q 550 1309 550 2009 
Q 550 2706 781 3412 
Q 1013 4119 1484 4856 
L 1984 4856 
z
" transform="scale(0.015625)"/>
      <path id="DejaVuSans-64" d="M 2906 2969 
L 2906 4863 
L 3481 4863 
L 3481 0 
L 2906 0 
L 2906 525 
Q 2725 213 2448 61 
Q 2172 -91 1784 -91 
Q 1150 -91 751 415 
Q 353 922 353 1747 
Q 353 2572 751 3078 
Q 1150 3584 1784 3584 
Q 2172 3584 2448 3432 
Q 2725 3281 2906 2969 
z
M 947 1747 
Q 947 1113 1208 752 
Q 1469 391 1925 391 
Q 2381 391 2643 752 
Q 2906 1113 2906 1747 
Q 2906 2381 2643 2742 
Q 2381 3103 1925 3103 
Q 1469 3103 1208 2742 
Q 947 2381 947 1747 
z
" transform="scale(0.015625)"/>
      <path id="DejaVuSans-46" d="M 628 4666 
L 3309 4666 
L 3309 4134 
L 1259 4134 
L 1259 2759 
L 3109 2759 
L 3109 2228 
L 1259 2228 
L 1259 0 
L 628 0 
L 628 4666 
z
" transform="scale(0.015625)"/>
      <path id="DejaVuSans-49" d="M 628 4666 
L 1259 4666 
L 1259 0 
L 628 0 
L 628 4666 
z
" transform="scale(0.015625)"/>
      <path id="DejaVuSans-50" d="M 1259 4147 
L 1259 2394 
L 2053 2394 
Q 2494 2394 2734 2622 
Q 2975 2850 2975 3272 
Q 2975 3691 2734 3919 
Q 2494 4147 2053 4147 
L 1259 4147 
z
M 628 4666 
L 2053 4666 
Q 2838 4666 3239 4311 
Q 3641 3956 3641 3272 
Q 3641 2581 3239 2228 
Q 2838 1875 2053 1875 
L 1259 1875 
L 1259 0 
L 628 0 
L 628 4666 
z
" transform="scale(0.015625)"/>
      <path id="DejaVuSans-70" d="M 1159 525 
L 1159 -1331 
L 581 -1331 
L 581 3500 
L 1159 3500 
L 1159 2969 
Q 1341 3281 1617 3432 
Q 1894 3584 2278 3584 
Q 2916 3584 3314 3078 
Q 3713 2572 3713 1747 
Q 3713 922 3314 415 
Q 2916 -91 2278 -91 
Q 1894 -91 1617 61 
Q 1341 213 1159 525 
z
M 3116 1747 
Q 3116 2381 2855 2742 
Q 2594 3103 2138 3103 
Q 1681 3103 1420 2742 
Q 1159 2381 1159 1747 
Q 1159 1113 1420 752 
Q 1681 391 2138 391 
Q 2594 391 2855 752 
Q 3116 1113 3116 1747 
z
" transform="scale(0.015625)"/>
      <path id="DejaVuSans-29" d="M 513 4856 
L 1013 4856 
Q 1481 4119 1714 3412 
Q 1947 2706 1947 2009 
Q 1947 1309 1714 600 
Q 1481 -109 1013 -844 
L 513 -844 
Q 928 -128 1133 580 
Q 1338 1288 1338 2009 
Q 1338 2731 1133 3434 
Q 928 4138 513 4856 
z
" transform="scale(0.015625)"/>
      <path id="DejaVuSans-2c" d="M 750 794 
L 1409 794 
L 1409 256 
L 897 -744 
L 494 -744 
L 750 256 
L 750 794 
z
" transform="scale(0.015625)"/>
      <path id="DejaVuSans-62" d="M 3116 1747 
Q 3116 2381 2855 2742 
Q 2594 3103 2138 3103 
Q 1681 3103 1420 2742 
Q 1159 2381 1159 1747 
Q 1159 1113 1420 752 
Q 1681 391 2138 391 
Q 2594 391 2855 752 
Q 3116 1113 3116 1747 
z
M 1159 2969 
Q 1341 3281 1617 3432 
Q 1894 3584 2278 3584 
Q 2916 3584 3314 3078 
Q 3713 2572 3713 1747 
Q 3713 922 3314 415 
Q 2916 -91 2278 -91 
Q 1894 -91 1617 61 
Q 1341 213 1159 525 
L 1159 0 
L 581 0 
L 581 4863 
L 1159 4863 
L 1159 2969 
z
" transform="scale(0.015625)"/>
     </defs>
     <use xlink:href="#DejaVuSans-63"/>
     <use xlink:href="#DejaVuSans-6f" x="54.980469"/>
     <use xlink:href="#DejaVuSans-73" x="116.162109"/>
     <use xlink:href="#DejaVuSans-69" x="168.261719"/>
     <use xlink:href="#DejaVuSans-6e" x="196.044922"/>
     <use xlink:href="#DejaVuSans-65" x="259.423828"/>
     <use xlink:href="#DejaVuSans-20" x="320.947266"/>
     <use xlink:href="#DejaVuSans-73" x="352.734375"/>
     <use xlink:href="#DejaVuSans-69" x="404.833984"/>
     <use xlink:href="#DejaVuSans-6d" x="432.617188"/>
     <use xlink:href="#DejaVuSans-69" x="530.029297"/>
     <use xlink:href="#DejaVuSans-6c" x="557.8125"/>
     <use xlink:href="#DejaVuSans-61" x="585.595703"/>
     <use xlink:href="#DejaVuSans-72" x="646.875"/>
     <use xlink:href="#DejaVuSans-69" x="687.988281"/>
     <use xlink:href="#DejaVuSans-74" x="715.771484"/>
     <use xlink:href="#DejaVuSans-79" x="754.980469"/>
     <use xlink:href="#DejaVuSans-20" x="814.160156"/>
     <use xlink:href="#DejaVuSans-6f" x="845.947266"/>
     <use xlink:href="#DejaVuSans-66" x="907.128906"/>
     <use xlink:href="#DejaVuSans-20" x="942.333984"/>
     <use xlink:href="#DejaVuSans-6d" x="974.121094"/>
     <use xlink:href="#DejaVuSans-61" x="1071.533203"/>
     <use xlink:href="#DejaVuSans-78" x="1132.8125"/>
     <use xlink:href="#DejaVuSans-20" x="1191.992188"/>
     <use xlink:href="#DejaVuSans-28" x="1223.779297"/>
     <use xlink:href="#DejaVuSans-64" x="1262.792969"/>
     <use xlink:href="#DejaVuSans-69" x="1326.269531"/>
     <use xlink:href="#DejaVuSans-73" x="1354.052734"/>
     <use xlink:href="#DejaVuSans-74" x="1406.152344"/>
     <use xlink:href="#DejaVuSans-61" x="1445.361328"/>
     <use xlink:href="#DejaVuSans-6e" x="1506.640625"/>
     <use xlink:href="#DejaVuSans-63" x="1570.019531"/>
     <use xlink:href="#DejaVuSans-65" x="1625"/>
     <use xlink:href="#DejaVuSans-46" x="1686.523438"/>
     <use xlink:href="#DejaVuSans-72" x="1736.792969"/>
     <use xlink:href="#DejaVuSans-6f" x="1775.65625"/>
     <use xlink:href="#DejaVuSans-6d" x="1836.837891"/>
     <use xlink:href="#DejaVuSans-49" x="1934.25"/>
     <use xlink:href="#DejaVuSans-6e" x="1963.742188"/>
     <use xlink:href="#DejaVuSans-69" x="2027.121094"/>
     <use xlink:href="#DejaVuSans-74" x="2054.904297"/>
     <use xlink:href="#DejaVuSans-69" x="2094.113281"/>
     <use xlink:href="#DejaVuSans-61" x="2121.896484"/>
     <use xlink:href="#DejaVuSans-6c" x="2183.175781"/>
     <use xlink:href="#DejaVuSans-50" x="2210.958984"/>
     <use xlink:href="#DejaVuSans-72" x="2269.511719"/>
     <use xlink:href="#DejaVuSans-6f" x="2308.375"/>
     <use xlink:href="#DejaVuSans-6d" x="2369.556641"/>
     <use xlink:href="#DejaVuSans-70" x="2466.96875"/>
     <use xlink:href="#DejaVuSans-74" x="2530.445312"/>
     <use xlink:href="#DejaVuSans-29" x="2569.654297"/>
     <use xlink:href="#DejaVuSans-2c" x="2608.667969"/>
     <use xlink:href="#DejaVuSans-20" x="2640.455078"/>
     <use xlink:href="#DejaVuSans-62" x="2672.242188"/>
     <use xlink:href="#DejaVuSans-79" x="2735.71875"/>
     <use xlink:href="#DejaVuSans-20" x="2794.898438"/>
     <use xlink:href="#DejaVuSans-69" x="2826.685547"/>
     <use xlink:href="#DejaVuSans-74" x="2854.46875"/>
     <use xlink:href="#DejaVuSans-65" x="2893.677734"/>
     <use xlink:href="#DejaVuSans-72" x="2955.201172"/>
     <use xlink:href="#DejaVuSans-61" x="2996.314453"/>
     <use xlink:href="#DejaVuSans-74" x="3057.59375"/>
     <use xlink:href="#DejaVuSans-69" x="3096.802734"/>
     <use xlink:href="#DejaVuSans-6f" x="3124.585938"/>
     <use xlink:href="#DejaVuSans-6e" x="3185.767578"/>
    </g>
   </g>
  </g>
 </g>
 <defs>
  <clipPath id="p563fa44bd8">
   <rect x="180" y="86.4" width="1116" height="554.4"/>
  </clipPath>
 </defs>
</svg>
