<?xml version="1.0" encoding="utf-8" standalone="no"?>
<!DOCTYPE svg PUBLIC "-//W3C//DTD SVG 1.1//EN"
  "http://www.w3.org/Graphics/SVG/1.1/DTD/svg11.dtd">
<svg xmlns:xlink="http://www.w3.org/1999/xlink" width="1440pt" height="720pt" viewBox="0 0 1440 720" xmlns="http://www.w3.org/2000/svg" version="1.1">
 <metadata>
  <rdf:RDF xmlns:dc="http://purl.org/dc/elements/1.1/" xmlns:cc="http://creativecommons.org/ns#" xmlns:rdf="http://www.w3.org/1999/02/22-rdf-syntax-ns#">
   <cc:Work>
    <dc:type rdf:resource="http://purl.org/dc/dcmitype/StillImage"/>
    <dc:date>2024-07-06T17:11:02.490041</dc:date>
    <dc:format>image/svg+xml</dc:format>
    <dc:creator>
     <cc:Agent>
      <dc:title>Matplotlib v3.8.0, https://matplotlib.org/</dc:title>
     </cc:Agent>
    </dc:creator>
   </cc:Work>
  </rdf:RDF>
 </metadata>
 <defs>
  <style type="text/css">*{stroke-linejoin: round; stroke-linecap: butt}</style>
 </defs>
 <g id="figure_1">
  <g id="patch_1">
   <path d="M 0 720 
L 1440 720 
L 1440 0 
L 0 0 
z
" style="fill: #ffffff"/>
  </g>
  <g id="axes_1">
   <g id="patch_2">
    <path d="M 180 640.8 
L 1296 640.8 
L 1296 86.4 
L 180 86.4 
z
" style="fill: #ffffff"/>
   </g>
   <g id="PolyCollection_1">
    <defs>
     <path id="m5d1ae7fe26" d="M 235.966165 -104.4 
L 235.633835 -104.4 
L 235.565486 -109.137045 
L 235.475929 -113.87409 
L 235.361354 -118.611135 
L 235.218205 -123.34818 
L 235.043496 -128.085225 
L 234.835136 -132.82227 
L 234.5922 -137.559315 
L 234.31512 -142.29636 
L 234.005735 -147.033405 
L 233.667192 -151.77045 
L 233.303685 -156.507496 
L 232.920053 -161.244541 
L 232.521303 -165.981586 
L 232.112101 -170.718631 
L 231.696314 -175.455676 
L 231.276653 -180.192721 
L 230.854473 -184.929766 
L 230.429715 -189.666811 
L 230.001007 -194.403856 
L 229.565861 -199.140901 
L 229.120944 -203.877946 
L 228.662365 -208.614991 
L 228.185952 -213.352036 
L 227.687501 -218.089081 
L 227.162979 -222.826126 
L 226.608702 -227.563171 
L 226.021461 -232.300216 
L 225.398634 -237.037261 
L 224.738269 -241.774306 
L 224.039159 -246.511351 
L 223.300944 -251.248396 
L 222.524249 -255.985442 
L 221.71091 -260.722487 
L 220.86427 -265.459532 
L 219.989538 -270.196577 
L 219.094141 -274.933622 
L 218.187958 -279.670667 
L 217.283338 -284.407712 
L 216.394757 -289.144757 
L 215.538079 -293.881802 
L 214.729415 -298.618847 
L 213.983681 -303.355892 
L 213.313034 -308.092937 
L 212.725439 -312.829982 
L 212.223604 -317.567027 
L 211.804526 -322.304072 
L 211.459766 -327.041117 
L 211.176494 -331.778162 
L 210.939211 -336.515207 
L 210.731919 -341.252252 
L 210.540471 -345.989297 
L 210.354761 -350.726342 
L 210.17045 -355.463388 
L 209.989992 -360.200433 
L 209.822824 -364.937478 
L 209.684694 -369.674523 
L 209.596242 -374.411568 
L 209.58101 -379.148613 
L 209.663142 -383.885658 
L 209.865026 -388.622703 
L 210.205124 -393.359748 
L 210.696173 -398.096793 
L 211.343901 -402.833838 
L 212.146324 -407.570883 
L 213.093671 -412.307928 
L 214.168913 -417.044973 
L 215.348867 -421.782018 
L 216.605782 -426.519063 
L 217.909298 -431.256108 
L 219.228598 -435.993153 
L 220.534556 -440.730198 
L 221.801656 -445.467243 
L 223.00948 -450.204288 
L 224.143598 -454.941334 
L 225.195806 -459.678379 
L 226.163713 -464.415424 
L 227.049797 -469.152469 
L 227.860122 -473.889514 
L 228.602912 -478.626559 
L 229.287188 -483.363604 
L 229.921633 -488.100649 
L 230.513762 -492.837694 
L 231.069437 -497.574739 
L 231.592692 -502.311784 
L 232.085803 -507.048829 
L 232.549534 -511.785874 
L 232.983496 -516.522919 
L 233.386536 -521.259964 
L 233.757147 -525.997009 
L 234.09384 -530.734054 
L 234.395472 -535.471099 
L 234.661494 -540.208144 
L 234.892126 -544.945189 
L 235.088425 -549.682234 
L 235.252267 -554.419279 
L 235.386241 -559.156325 
L 235.493476 -563.89337 
L 235.577434 -568.630415 
L 235.641695 -573.36746 
L 235.958305 -573.36746 
L 235.958305 -573.36746 
L 236.022566 -568.630415 
L 236.106524 -563.89337 
L 236.213759 -559.156325 
L 236.347733 -554.419279 
L 236.511575 -549.682234 
L 236.707874 -544.945189 
L 236.938506 -540.208144 
L 237.204528 -535.471099 
L 237.50616 -530.734054 
L 237.842853 -525.997009 
L 238.213464 -521.259964 
L 238.616504 -516.522919 
L 239.050466 -511.785874 
L 239.514197 -507.048829 
L 240.007308 -502.311784 
L 240.530563 -497.574739 
L 241.086238 -492.837694 
L 241.678367 -488.100649 
L 242.312812 -483.363604 
L 242.997088 -478.626559 
L 243.739878 -473.889514 
L 244.550203 -469.152469 
L 245.436287 -464.415424 
L 246.404194 -459.678379 
L 247.456402 -454.941334 
L 248.59052 -450.204288 
L 249.798344 -445.467243 
L 251.065444 -440.730198 
L 252.371402 -435.993153 
L 253.690702 -431.256108 
L 254.994218 -426.519063 
L 256.251133 -421.782018 
L 257.431087 -417.044973 
L 258.506329 -412.307928 
L 259.453676 -407.570883 
L 260.256099 -402.833838 
L 260.903827 -398.096793 
L 261.394876 -393.359748 
L 261.734974 -388.622703 
L 261.936858 -383.885658 
L 262.01899 -379.148613 
L 262.003758 -374.411568 
L 261.915306 -369.674523 
L 261.777176 -364.937478 
L 261.610008 -360.200433 
L 261.42955 -355.463388 
L 261.245239 -350.726342 
L 261.059529 -345.989297 
L 260.868081 -341.252252 
L 260.660789 -336.515207 
L 260.423506 -331.778162 
L 260.140234 -327.041117 
L 259.795474 -322.304072 
L 259.376396 -317.567027 
L 258.874561 -312.829982 
L 258.286966 -308.092937 
L 257.616319 -303.355892 
L 256.870585 -298.618847 
L 256.061921 -293.881802 
L 255.205243 -289.144757 
L 254.316662 -284.407712 
L 253.412042 -279.670667 
L 252.505859 -274.933622 
L 251.610462 -270.196577 
L 250.73573 -265.459532 
L 249.88909 -260.722487 
L 249.075751 -255.985442 
L 248.299056 -251.248396 
L 247.560841 -246.511351 
L 246.861731 -241.774306 
L 246.201366 -237.037261 
L 245.578539 -232.300216 
L 244.991298 -227.563171 
L 244.437021 -222.826126 
L 243.912499 -218.089081 
L 243.414048 -213.352036 
L 242.937635 -208.614991 
L 242.479056 -203.877946 
L 242.034139 -199.140901 
L 241.598993 -194.403856 
L 241.170285 -189.666811 
L 240.745527 -184.929766 
L 240.323347 -180.192721 
L 239.903686 -175.455676 
L 239.487899 -170.718631 
L 239.078697 -165.981586 
L 238.679947 -161.244541 
L 238.296315 -156.507496 
L 237.932808 -151.77045 
L 237.594265 -147.033405 
L 237.28488 -142.29636 
L 237.0078 -137.559315 
L 236.764864 -132.82227 
L 236.556504 -128.085225 
L 236.381795 -123.34818 
L 236.238646 -118.611135 
L 236.124071 -113.87409 
L 236.034514 -109.137045 
L 235.966165 -104.4 
z
" style="stroke: #3f3f3f; stroke-width: 1.25"/>
    </defs>
    <g clip-path="url(#p2e6ac978bb)">
     <use xlink:href="#m5d1ae7fe26" x="0" y="720" style="fill: #3274a1; stroke: #3f3f3f; stroke-width: 1.25"/>
    </g>
   </g>
   <g id="PolyCollection_2">
    <defs>
     <path id="m9ea5a7f472" d="M 347.582046 -138.96546 
L 347.217954 -138.96546 
L 347.152661 -143.451723 
L 347.069376 -147.937985 
L 346.964962 -152.424247 
L 346.836233 -156.91051 
L 346.680066 -161.396772 
L 346.493534 -165.883034 
L 346.274035 -170.369297 
L 346.019433 -174.855559 
L 345.728184 -179.341822 
L 345.399471 -183.828084 
L 345.033317 -188.314346 
L 344.630689 -192.800609 
L 344.193564 -197.286871 
L 343.72495 -201.773133 
L 343.22883 -206.259396 
L 342.710015 -210.745658 
L 342.173898 -215.231921 
L 341.62608 -219.718183 
L 341.071924 -224.204445 
L 340.516032 -228.690708 
L 339.96173 -233.17697 
L 339.410601 -237.663232 
L 338.862161 -242.149495 
L 338.31371 -246.635757 
L 337.760425 -251.12202 
L 337.195691 -255.608282 
L 336.611669 -260.094544 
L 336.00005 -264.580807 
L 335.352929 -269.067069 
L 334.663725 -273.553331 
L 333.928061 -278.039594 
L 333.144519 -282.525856 
L 332.315203 -287.012119 
L 331.446052 -291.498381 
L 330.54686 -295.984643 
L 329.630975 -300.470906 
L 328.714679 -304.957168 
L 327.816247 -309.44343 
L 326.954739 -313.929693 
L 326.148581 -318.415955 
L 325.414041 -322.902218 
L 324.763731 -327.38848 
L 324.205292 -331.874742 
L 323.740419 -336.361005 
L 323.364416 -340.847267 
L 323.066373 -345.333529 
L 322.830074 -349.819792 
L 322.635596 -354.306054 
L 322.461509 -358.792317 
L 322.287461 -363.278579 
L 322.096871 -367.764841 
L 321.879374 -372.251104 
L 321.632683 -376.737366 
L 321.363583 -381.223628 
L 321.087831 -385.709891 
L 320.82895 -390.196153 
L 320.615986 -394.682416 
L 320.480515 -399.168678 
L 320.453263 -403.65494 
L 320.560792 -408.141203 
L 320.822691 -412.627465 
L 321.249623 -417.113728 
L 321.842466 -421.59999 
L 322.592606 -426.086252 
L 323.483261 -430.572515 
L 324.491591 -435.058777 
L 325.591228 -439.545039 
L 326.75485 -444.031302 
L 327.956451 -448.517564 
L 329.173047 -453.003827 
L 330.38569 -457.490089 
L 331.579783 -461.976351 
L 332.744805 -466.462614 
L 333.873631 -470.948876 
L 334.961664 -475.435138 
L 336.005963 -479.921401 
L 337.004536 -484.407663 
L 337.955852 -488.893926 
L 338.858599 -493.380188 
L 339.711639 -497.86645 
L 340.514083 -502.352713 
L 341.2654 -506.838975 
L 341.965504 -511.325237 
L 342.614772 -515.8115 
L 343.213992 -520.297762 
L 343.764262 -524.784025 
L 344.266865 -529.270287 
L 344.723173 -533.756549 
L 345.134586 -538.242812 
L 345.502539 -542.729074 
L 345.82855 -547.215336 
L 346.114302 -551.701599 
L 346.361732 -556.187861 
L 346.573099 -560.674124 
L 346.751007 -565.160386 
L 346.89839 -569.646648 
L 347.018444 -574.132911 
L 347.11452 -578.619173 
L 347.190008 -583.105435 
L 347.609992 -583.105435 
L 347.609992 -583.105435 
L 347.68548 -578.619173 
L 347.781556 -574.132911 
L 347.90161 -569.646648 
L 348.048993 -565.160386 
L 348.226901 -560.674124 
L 348.438268 -556.187861 
L 348.685698 -551.701599 
L 348.97145 -547.215336 
L 349.297461 -542.729074 
L 349.665414 -538.242812 
L 350.076827 -533.756549 
L 350.533135 -529.270287 
L 351.035738 -524.784025 
L 351.586008 -520.297762 
L 352.185228 -515.8115 
L 352.834496 -511.325237 
L 353.5346 -506.838975 
L 354.285917 -502.352713 
L 355.088361 -497.86645 
L 355.941401 -493.380188 
L 356.844148 -488.893926 
L 357.795464 -484.407663 
L 358.794037 -479.921401 
L 359.838336 -475.435138 
L 360.926369 -470.948876 
L 362.055195 -466.462614 
L 363.220217 -461.976351 
L 364.41431 -457.490089 
L 365.626953 -453.003827 
L 366.843549 -448.517564 
L 368.04515 -444.031302 
L 369.208772 -439.545039 
L 370.308409 -435.058777 
L 371.316739 -430.572515 
L 372.207394 -426.086252 
L 372.957534 -421.59999 
L 373.550377 -417.113728 
L 373.977309 -412.627465 
L 374.239208 -408.141203 
L 374.346737 -403.65494 
L 374.319485 -399.168678 
L 374.184014 -394.682416 
L 373.97105 -390.196153 
L 373.712169 -385.709891 
L 373.436417 -381.223628 
L 373.167317 -376.737366 
L 372.920626 -372.251104 
L 372.703129 -367.764841 
L 372.512539 -363.278579 
L 372.338491 -358.792317 
L 372.164404 -354.306054 
L 371.969926 -349.819792 
L 371.733627 -345.333529 
L 371.435584 -340.847267 
L 371.059581 -336.361005 
L 370.594708 -331.874742 
L 370.036269 -327.38848 
L 369.385959 -322.902218 
L 368.651419 -318.415955 
L 367.845261 -313.929693 
L 366.983753 -309.44343 
L 366.085321 -304.957168 
L 365.169025 -300.470906 
L 364.25314 -295.984643 
L 363.353948 -291.498381 
L 362.484797 -287.012119 
L 361.655481 -282.525856 
L 360.871939 -278.039594 
L 360.136275 -273.553331 
L 359.447071 -269.067069 
L 358.79995 -264.580807 
L 358.188331 -260.094544 
L 357.604309 -255.608282 
L 357.039575 -251.12202 
L 356.48629 -246.635757 
L 355.937839 -242.149495 
L 355.389399 -237.663232 
L 354.83827 -233.17697 
L 354.283968 -228.690708 
L 353.728076 -224.204445 
L 353.17392 -219.718183 
L 352.626102 -215.231921 
L 352.089985 -210.745658 
L 351.57117 -206.259396 
L 351.07505 -201.773133 
L 350.606436 -197.286871 
L 350.169311 -192.800609 
L 349.766683 -188.314346 
L 349.400529 -183.828084 
L 349.071816 -179.341822 
L 348.780567 -174.855559 
L 348.525965 -170.369297 
L 348.306466 -165.883034 
L 348.119934 -161.396772 
L 347.963767 -156.91051 
L 347.835038 -152.424247 
L 347.730624 -147.937985 
L 347.647339 -143.451723 
L 347.582046 -138.96546 
z
" style="stroke: #3f3f3f; stroke-width: 1.25"/>
    </defs>
    <g clip-path="url(#p2e6ac978bb)">
     <use xlink:href="#m9ea5a7f472" x="0" y="720" style="fill: #3274a1; stroke: #3f3f3f; stroke-width: 1.25"/>
    </g>
   </g>
   <g id="PolyCollection_3">
    <defs>
     <path id="m4ede4084be" d="M 459.317167 -216.430912 
L 458.682833 -216.430912 
L 458.571417 -220.383318 
L 458.431374 -224.335724 
L 458.259 -228.28813 
L 458.051169 -232.240537 
L 457.805599 -236.192943 
L 457.521073 -240.145349 
L 457.19756 -244.097755 
L 456.836214 -248.050161 
L 456.439237 -252.002567 
L 456.009622 -255.954973 
L 455.550806 -259.907379 
L 455.06631 -263.859785 
L 454.559419 -267.812191 
L 454.032978 -271.764597 
L 453.489351 -275.717003 
L 452.93054 -279.669409 
L 452.358433 -283.621815 
L 451.775082 -287.574221 
L 451.182909 -291.526627 
L 450.584716 -295.479033 
L 449.983386 -299.431439 
L 449.381264 -303.383845 
L 448.779223 -307.336251 
L 448.175553 -311.288657 
L 447.564859 -315.241063 
L 446.937197 -319.193469 
L 446.277692 -323.145875 
L 445.56682 -327.098281 
L 444.781479 -331.050688 
L 443.896839 -335.003094 
L 442.888852 -338.9555 
L 441.737202 -342.907906 
L 440.428374 -346.860312 
L 438.958479 -350.812718 
L 437.33549 -354.765124 
L 435.580553 -358.71753 
L 433.728131 -362.669936 
L 431.824859 -366.622342 
L 429.927107 -370.574748 
L 428.097381 -374.527154 
L 426.399868 -378.47956 
L 424.895496 -382.431966 
L 423.637018 -386.384372 
L 422.664627 -390.336778 
L 422.002613 -394.289184 
L 421.657451 -398.24159 
L 421.617599 -402.193996 
L 421.855078 -406.146402 
L 422.328676 -410.098808 
L 422.988461 -414.051214 
L 423.781079 -418.00362 
L 424.655231 -421.956026 
L 425.566699 -425.908432 
L 426.482335 -429.860839 
L 427.38258 -433.813245 
L 428.26224 -437.765651 
L 429.12949 -441.718057 
L 430.003299 -445.670463 
L 430.909631 -449.622869 
L 431.876958 -453.575275 
L 432.931647 -457.527681 
L 434.093823 -461.480087 
L 435.374168 -465.432493 
L 436.772024 -469.384899 
L 438.274956 -473.337305 
L 439.859745 -477.289711 
L 441.494602 -481.242117 
L 443.142244 -485.194523 
L 444.763415 -489.146929 
L 446.320391 -493.099335 
L 447.780058 -497.051741 
L 449.116277 -501.004147 
L 450.311331 -504.956553 
L 451.356423 -508.908959 
L 452.251301 -512.861365 
L 453.003175 -516.813771 
L 453.625159 -520.766177 
L 454.134476 -524.718583 
L 454.550627 -528.67099 
L 454.893721 -532.623396 
L 455.183059 -536.575802 
L 455.436031 -540.528208 
L 455.667355 -544.480614 
L 455.888629 -548.43302 
L 456.108162 -552.385426 
L 456.331051 -556.337832 
L 456.559454 -560.290238 
L 456.793015 -564.242644 
L 457.029414 -568.19505 
L 457.264963 -572.147456 
L 457.495237 -576.099862 
L 457.715656 -580.052268 
L 457.921994 -584.004674 
L 458.110773 -587.95708 
L 458.279513 -591.909486 
L 458.426852 -595.861892 
L 458.552524 -599.814298 
L 458.657235 -603.766704 
L 458.742469 -607.71911 
L 459.257531 -607.71911 
L 459.257531 -607.71911 
L 459.342765 -603.766704 
L 459.447476 -599.814298 
L 459.573148 -595.861892 
L 459.720487 -591.909486 
L 459.889227 -587.95708 
L 460.078006 -584.004674 
L 460.284344 -580.052268 
L 460.504763 -576.099862 
L 460.735037 -572.147456 
L 460.970586 -568.19505 
L 461.206985 -564.242644 
L 461.440546 -560.290238 
L 461.668949 -556.337832 
L 461.891838 -552.385426 
L 462.111371 -548.43302 
L 462.332645 -544.480614 
L 462.563969 -540.528208 
L 462.816941 -536.575802 
L 463.106279 -532.623396 
L 463.449373 -528.67099 
L 463.865524 -524.718583 
L 464.374841 -520.766177 
L 464.996825 -516.813771 
L 465.748699 -512.861365 
L 466.643577 -508.908959 
L 467.688669 -504.956553 
L 468.883723 -501.004147 
L 470.219942 -497.051741 
L 471.679609 -493.099335 
L 473.236585 -489.146929 
L 474.857756 -485.194523 
L 476.505398 -481.242117 
L 478.140255 -477.289711 
L 479.725044 -473.337305 
L 481.227976 -469.384899 
L 482.625832 -465.432493 
L 483.906177 -461.480087 
L 485.068353 -457.527681 
L 486.123042 -453.575275 
L 487.090369 -449.622869 
L 487.996701 -445.670463 
L 488.87051 -441.718057 
L 489.73776 -437.765651 
L 490.61742 -433.813245 
L 491.517665 -429.860839 
L 492.433301 -425.908432 
L 493.344769 -421.956026 
L 494.218921 -418.00362 
L 495.011539 -414.051214 
L 495.671324 -410.098808 
L 496.144922 -406.146402 
L 496.382401 -402.193996 
L 496.342549 -398.24159 
L 495.997387 -394.289184 
L 495.335373 -390.336778 
L 494.362982 -386.384372 
L 493.104504 -382.431966 
L 491.600132 -378.47956 
L 489.902619 -374.527154 
L 488.072893 -370.574748 
L 486.175141 -366.622342 
L 484.271869 -362.669936 
L 482.419447 -358.71753 
L 480.66451 -354.765124 
L 479.041521 -350.812718 
L 477.571626 -346.860312 
L 476.262798 -342.907906 
L 475.111148 -338.9555 
L 474.103161 -335.003094 
L 473.218521 -331.050688 
L 472.43318 -327.098281 
L 471.722308 -323.145875 
L 471.062803 -319.193469 
L 470.435141 -315.241063 
L 469.824447 -311.288657 
L 469.220777 -307.336251 
L 468.618736 -303.383845 
L 468.016614 -299.431439 
L 467.415284 -295.479033 
L 466.817091 -291.526627 
L 466.224918 -287.574221 
L 465.641567 -283.621815 
L 465.06946 -279.669409 
L 464.510649 -275.717003 
L 463.967022 -271.764597 
L 463.440581 -267.812191 
L 462.93369 -263.859785 
L 462.449194 -259.907379 
L 461.990378 -255.954973 
L 461.560763 -252.002567 
L 461.163786 -248.050161 
L 460.80244 -244.097755 
L 460.478927 -240.145349 
L 460.194401 -236.192943 
L 459.948831 -232.240537 
L 459.741 -228.28813 
L 459.568626 -224.335724 
L 459.428583 -220.383318 
L 459.317167 -216.430912 
z
" style="stroke: #3f3f3f; stroke-width: 1.25"/>
    </defs>
    <g clip-path="url(#p2e6ac978bb)">
     <use xlink:href="#m4ede4084be" x="0" y="720" style="fill: #3274a1; stroke: #3f3f3f; stroke-width: 1.25"/>
    </g>
   </g>
   <g id="PolyCollection_4">
    <defs>
     <path id="m72bbab81d4" d="M 571.218314 -227.595358 
L 569.981686 -227.595358 
L 569.798386 -231.055947 
L 569.57474 -234.516535 
L 569.305952 -237.977124 
L 568.987614 -241.437712 
L 568.61589 -244.898301 
L 568.187653 -248.35889 
L 567.700559 -251.819478 
L 567.153035 -255.280067 
L 566.544174 -258.740655 
L 565.873552 -262.201244 
L 565.140973 -265.661832 
L 564.346195 -269.122421 
L 563.488677 -272.583009 
L 562.567395 -276.043598 
L 561.580798 -279.504187 
L 560.526918 -282.964775 
L 559.403691 -286.425364 
L 558.209458 -289.885952 
L 556.943637 -293.346541 
L 555.607507 -296.807129 
L 554.205005 -300.267718 
L 552.743471 -303.728306 
L 551.234203 -307.188895 
L 549.69275 -310.649484 
L 548.138856 -314.110072 
L 546.596014 -317.570661 
L 545.090614 -321.031249 
L 543.650736 -324.491838 
L 542.304659 -327.952426 
L 541.079195 -331.413015 
L 539.998013 -334.873603 
L 539.080087 -338.334192 
L 538.338431 -341.794781 
L 537.779249 -345.255369 
L 537.401587 -348.715958 
L 537.197529 -352.176546 
L 537.15293 -355.637135 
L 537.248607 -359.097723 
L 537.461862 -362.558312 
L 537.768204 -366.0189 
L 538.143066 -369.479489 
L 538.563377 -372.940078 
L 539.008836 -376.400666 
L 539.462777 -379.861255 
L 539.912599 -383.321843 
L 540.349757 -386.782432 
L 540.769385 -390.24302 
L 541.169667 -393.703609 
L 541.551076 -397.164197 
L 541.915634 -400.624786 
L 542.2663 -404.085375 
L 542.606585 -407.545963 
L 542.940422 -411.006552 
L 543.27228 -414.46714 
L 543.607463 -417.927729 
L 543.95248 -421.388317 
L 544.31538 -424.848906 
L 544.705914 -428.309494 
L 545.135438 -431.770083 
L 545.616497 -435.230672 
L 546.162071 -438.69126 
L 546.784555 -442.151849 
L 547.494549 -445.612437 
L 548.29962 -449.073026 
L 549.203179 -452.533614 
L 550.203635 -455.994203 
L 551.293944 -459.454791 
L 552.461644 -462.91538 
L 553.689389 -466.375969 
L 554.955955 -469.836557 
L 556.237612 -473.297146 
L 557.509727 -476.757734 
L 558.748434 -480.218323 
L 559.932204 -483.678911 
L 561.043155 -487.1395 
L 562.067991 -490.600089 
L 562.998503 -494.060677 
L 563.831599 -497.521266 
L 564.568917 -500.981854 
L 565.216084 -504.442443 
L 565.781728 -507.903031 
L 566.276374 -511.36362 
L 566.711333 -514.824208 
L 567.097709 -518.284797 
L 567.445579 -521.745386 
L 567.763429 -525.205974 
L 568.057834 -528.666563 
L 568.333391 -532.127151 
L 568.592855 -535.58774 
L 568.837427 -539.048328 
L 569.067146 -542.508917 
L 569.281299 -545.969505 
L 569.478829 -549.430094 
L 569.658673 -552.890683 
L 569.820028 -556.351271 
L 569.962516 -559.81186 
L 570.086268 -563.272448 
L 570.191922 -566.733037 
L 570.280565 -570.193625 
L 570.919435 -570.193625 
L 570.919435 -570.193625 
L 571.008078 -566.733037 
L 571.113732 -563.272448 
L 571.237484 -559.81186 
L 571.379972 -556.351271 
L 571.541327 -552.890683 
L 571.721171 -549.430094 
L 571.918701 -545.969505 
L 572.132854 -542.508917 
L 572.362573 -539.048328 
L 572.607145 -535.58774 
L 572.866609 -532.127151 
L 573.142166 -528.666563 
L 573.436571 -525.205974 
L 573.754421 -521.745386 
L 574.102291 -518.284797 
L 574.488667 -514.824208 
L 574.923626 -511.36362 
L 575.418272 -507.903031 
L 575.983916 -504.442443 
L 576.631083 -500.981854 
L 577.368401 -497.521266 
L 578.201497 -494.060677 
L 579.132009 -490.600089 
L 580.156845 -487.1395 
L 581.267796 -483.678911 
L 582.451566 -480.218323 
L 583.690273 -476.757734 
L 584.962388 -473.297146 
L 586.244045 -469.836557 
L 587.510611 -466.375969 
L 588.738356 -462.91538 
L 589.906056 -459.454791 
L 590.996365 -455.994203 
L 591.996821 -452.533614 
L 592.90038 -449.073026 
L 593.705451 -445.612437 
L 594.415445 -442.151849 
L 595.037929 -438.69126 
L 595.583503 -435.230672 
L 596.064562 -431.770083 
L 596.494086 -428.309494 
L 596.88462 -424.848906 
L 597.24752 -421.388317 
L 597.592537 -417.927729 
L 597.92772 -414.46714 
L 598.259578 -411.006552 
L 598.593415 -407.545963 
L 598.9337 -404.085375 
L 599.284366 -400.624786 
L 599.648924 -397.164197 
L 600.030333 -393.703609 
L 600.430615 -390.24302 
L 600.850243 -386.782432 
L 601.287401 -383.321843 
L 601.737223 -379.861255 
L 602.191164 -376.400666 
L 602.636623 -372.940078 
L 603.056934 -369.479489 
L 603.431796 -366.0189 
L 603.738138 -362.558312 
L 603.951393 -359.097723 
L 604.04707 -355.637135 
L 604.002471 -352.176546 
L 603.798413 -348.715958 
L 603.420751 -345.255369 
L 602.861569 -341.794781 
L 602.119913 -338.334192 
L 601.201987 -334.873603 
L 600.120805 -331.413015 
L 598.895341 -327.952426 
L 597.549264 -324.491838 
L 596.109386 -321.031249 
L 594.603986 -317.570661 
L 593.061144 -314.110072 
L 591.50725 -310.649484 
L 589.965797 -307.188895 
L 588.456529 -303.728306 
L 586.994995 -300.267718 
L 585.592493 -296.807129 
L 584.256363 -293.346541 
L 582.990542 -289.885952 
L 581.796309 -286.425364 
L 580.673082 -282.964775 
L 579.619202 -279.504187 
L 578.632605 -276.043598 
L 577.711323 -272.583009 
L 576.853805 -269.122421 
L 576.059027 -265.661832 
L 575.326448 -262.201244 
L 574.655826 -258.740655 
L 574.046965 -255.280067 
L 573.499441 -251.819478 
L 573.012347 -248.35889 
L 572.58411 -244.898301 
L 572.212386 -241.437712 
L 571.894048 -237.977124 
L 571.62526 -234.516535 
L 571.401614 -231.055947 
L 571.218314 -227.595358 
z
" style="stroke: #3f3f3f; stroke-width: 1.25"/>
    </defs>
    <g clip-path="url(#p2e6ac978bb)">
     <use xlink:href="#m72bbab81d4" x="0" y="720" style="fill: #3274a1; stroke: #3f3f3f; stroke-width: 1.25"/>
    </g>
   </g>
   <g id="PolyCollection_5">
    <defs>
     <path id="m1d1291a5e1" d="M 682.754281 -186.474975 
L 681.645719 -186.474975 
L 681.498297 -189.964624 
L 681.322337 -193.454273 
L 681.115314 -196.943922 
L 680.875242 -200.433571 
L 680.600856 -203.923221 
L 680.291799 -207.41287 
L 679.94876 -210.902519 
L 679.57358 -214.392168 
L 679.169286 -217.881817 
L 678.740054 -221.371466 
L 678.291092 -224.861115 
L 677.828437 -228.350764 
L 677.358673 -231.840414 
L 676.888587 -235.330063 
L 676.424777 -238.819712 
L 675.973239 -242.309361 
L 675.538962 -245.79901 
L 675.125556 -249.288659 
L 674.734939 -252.778308 
L 674.367114 -256.267957 
L 674.020043 -259.757606 
L 673.689639 -263.247256 
L 673.369858 -266.736905 
L 673.052903 -270.226554 
L 672.729519 -273.716203 
L 672.389342 -277.205852 
L 672.021304 -280.695501 
L 671.614049 -284.18515 
L 671.156339 -287.674799 
L 670.637438 -291.164449 
L 670.04746 -294.654098 
L 669.377661 -298.143747 
L 668.620706 -301.633396 
L 667.770883 -305.123045 
L 666.824311 -308.612694 
L 665.779126 -312.102343 
L 664.635675 -315.591992 
L 663.39671 -319.081641 
L 662.067585 -322.571291 
L 660.656441 -326.06094 
L 659.174359 -329.550589 
L 657.635445 -333.040238 
L 656.056827 -336.529887 
L 654.458518 -340.019536 
L 652.86314 -343.509185 
L 651.295468 -346.998834 
L 649.781821 -350.488484 
L 648.349293 -353.978133 
L 647.024875 -357.467782 
L 645.834498 -360.957431 
L 644.80207 -364.44708 
L 643.948551 -367.936729 
L 643.291144 -371.426378 
L 642.842637 -374.916027 
L 642.610956 -378.405676 
L 642.598937 -381.895326 
L 642.80434 -385.384975 
L 643.220086 -388.874624 
L 643.834697 -392.364273 
L 644.632906 -395.853922 
L 645.596383 -399.343571 
L 646.704542 -402.83322 
L 647.93537 -406.322869 
L 649.266238 -409.812519 
L 650.674655 -413.302168 
L 652.13894 -416.791817 
L 653.638785 -420.281466 
L 655.155691 -423.771115 
L 656.67329 -427.260764 
L 658.177532 -430.750413 
L 659.656768 -434.240062 
L 661.101708 -437.729712 
L 662.505307 -441.219361 
L 663.862561 -444.70901 
L 665.170244 -448.198659 
L 666.426608 -451.688308 
L 667.631059 -455.177957 
L 668.783821 -458.667606 
L 669.885625 -462.157255 
L 670.937416 -465.646904 
L 671.940114 -469.136554 
L 672.894428 -472.626203 
L 673.800734 -476.115852 
L 674.659026 -479.605501 
L 675.468928 -483.09515 
L 676.229766 -486.584799 
L 676.940688 -490.074448 
L 677.600818 -493.564097 
L 678.209413 -497.053747 
L 678.766033 -500.543396 
L 679.270674 -504.033045 
L 679.723879 -507.522694 
L 680.126801 -511.012343 
L 680.481224 -514.501992 
L 680.789531 -517.991641 
L 681.054639 -521.48129 
L 681.279898 -524.970939 
L 681.46897 -528.460589 
L 681.625697 -531.950238 
L 682.774303 -531.950238 
L 682.774303 -531.950238 
L 682.93103 -528.460589 
L 683.120102 -524.970939 
L 683.345361 -521.48129 
L 683.610469 -517.991641 
L 683.918776 -514.501992 
L 684.273199 -511.012343 
L 684.676121 -507.522694 
L 685.129326 -504.033045 
L 685.633967 -500.543396 
L 686.190587 -497.053747 
L 686.799182 -493.564097 
L 687.459312 -490.074448 
L 688.170234 -486.584799 
L 688.931072 -483.09515 
L 689.740974 -479.605501 
L 690.599266 -476.115852 
L 691.505572 -472.626203 
L 692.459886 -469.136554 
L 693.462584 -465.646904 
L 694.514375 -462.157255 
L 695.616179 -458.667606 
L 696.768941 -455.177957 
L 697.973392 -451.688308 
L 699.229756 -448.198659 
L 700.537439 -444.70901 
L 701.894693 -441.219361 
L 703.298292 -437.729712 
L 704.743232 -434.240062 
L 706.222468 -430.750413 
L 707.72671 -427.260764 
L 709.244309 -423.771115 
L 710.761215 -420.281466 
L 712.26106 -416.791817 
L 713.725345 -413.302168 
L 715.133762 -409.812519 
L 716.46463 -406.322869 
L 717.695458 -402.83322 
L 718.803617 -399.343571 
L 719.767094 -395.853922 
L 720.565303 -392.364273 
L 721.179914 -388.874624 
L 721.59566 -385.384975 
L 721.801063 -381.895326 
L 721.789044 -378.405676 
L 721.557363 -374.916027 
L 721.108856 -371.426378 
L 720.451449 -367.936729 
L 719.59793 -364.44708 
L 718.565502 -360.957431 
L 717.375125 -357.467782 
L 716.050707 -353.978133 
L 714.618179 -350.488484 
L 713.104532 -346.998834 
L 711.53686 -343.509185 
L 709.941482 -340.019536 
L 708.343173 -336.529887 
L 706.764555 -333.040238 
L 705.225641 -329.550589 
L 703.743559 -326.06094 
L 702.332415 -322.571291 
L 701.00329 -319.081641 
L 699.764325 -315.591992 
L 698.620874 -312.102343 
L 697.575689 -308.612694 
L 696.629117 -305.123045 
L 695.779294 -301.633396 
L 695.022339 -298.143747 
L 694.35254 -294.654098 
L 693.762562 -291.164449 
L 693.243661 -287.674799 
L 692.785951 -284.18515 
L 692.378696 -280.695501 
L 692.010658 -277.205852 
L 691.670481 -273.716203 
L 691.347097 -270.226554 
L 691.030142 -266.736905 
L 690.710361 -263.247256 
L 690.379957 -259.757606 
L 690.032886 -256.267957 
L 689.665061 -252.778308 
L 689.274444 -249.288659 
L 688.861038 -245.79901 
L 688.426761 -242.309361 
L 687.975223 -238.819712 
L 687.511413 -235.330063 
L 687.041327 -231.840414 
L 686.571563 -228.350764 
L 686.108908 -224.861115 
L 685.659946 -221.371466 
L 685.230714 -217.881817 
L 684.82642 -214.392168 
L 684.45124 -210.902519 
L 684.108201 -207.41287 
L 683.799144 -203.923221 
L 683.524758 -200.433571 
L 683.284686 -196.943922 
L 683.077663 -193.454273 
L 682.901703 -189.964624 
L 682.754281 -186.474975 
z
" style="stroke: #3f3f3f; stroke-width: 1.25"/>
    </defs>
    <g clip-path="url(#p2e6ac978bb)">
     <use xlink:href="#m1d1291a5e1" x="0" y="720" style="fill: #3274a1; stroke: #3f3f3f; stroke-width: 1.25"/>
    </g>
   </g>
   <g id="PolyCollection_6">
    <defs>
     <path id="mf67ba5883e" d="M 794.594295 -197.962036 
L 793.005705 -197.962036 
L 792.806122 -201.231063 
L 792.568761 -204.500089 
L 792.289691 -207.769116 
L 791.965292 -211.038142 
L 791.592411 -214.307169 
L 791.168524 -217.576196 
L 790.691856 -220.845222 
L 790.16149 -224.114249 
L 789.577419 -227.383276 
L 788.940551 -230.652302 
L 788.252661 -233.921329 
L 787.516282 -237.190355 
L 786.734557 -240.459382 
L 785.91105 -243.728409 
L 785.049539 -246.997435 
L 784.153814 -250.266462 
L 783.227498 -253.535488 
L 782.273906 -256.804515 
L 781.295973 -260.073542 
L 780.296241 -263.342568 
L 779.276923 -266.611595 
L 778.240034 -269.880621 
L 777.187565 -273.149648 
L 776.121692 -276.418675 
L 775.044989 -279.687701 
L 773.960615 -282.956728 
L 772.872456 -286.225754 
L 771.785198 -289.494781 
L 770.704333 -292.763808 
L 769.636071 -296.032834 
L 768.587201 -299.301861 
L 767.564885 -302.570887 
L 766.576437 -305.839914 
L 765.629083 -309.108941 
L 764.72976 -312.377967 
L 763.884949 -315.646994 
L 763.100566 -318.91602 
L 762.381916 -322.185047 
L 761.733696 -325.454074 
L 761.160051 -328.7231 
L 760.66464 -331.992127 
L 760.250705 -335.261153 
L 759.92112 -338.53018 
L 759.678395 -341.799207 
L 759.524637 -345.068233 
L 759.461455 -348.33726 
L 759.489827 -351.606287 
L 759.609945 -354.875313 
L 759.821053 -358.14434 
L 760.121317 -361.413366 
L 760.507729 -364.682393 
L 760.976089 -367.95142 
L 761.521048 -371.220446 
L 762.136235 -374.489473 
L 762.814448 -377.758499 
L 763.547893 -381.027526 
L 764.328458 -384.296553 
L 765.147981 -387.565579 
L 765.998515 -390.834606 
L 766.872546 -394.103632 
L 767.763164 -397.372659 
L 768.664182 -400.641686 
L 769.570203 -403.910712 
L 770.476638 -407.179739 
L 771.379692 -410.448765 
L 772.276327 -413.717792 
L 773.164214 -416.986819 
L 774.04168 -420.255845 
L 774.907649 -423.524872 
L 775.761592 -426.793898 
L 776.60346 -430.062925 
L 777.433612 -433.331952 
L 778.25273 -436.600978 
L 779.0617 -439.870005 
L 779.861489 -443.139031 
L 780.652994 -446.408058 
L 781.43689 -449.677085 
L 782.213474 -452.946111 
L 782.982534 -456.215138 
L 783.743246 -459.484164 
L 784.494113 -462.753191 
L 785.23296 -466.022218 
L 785.956977 -469.291244 
L 786.662826 -472.560271 
L 787.346787 -475.829297 
L 788.004942 -479.098324 
L 788.63338 -482.367351 
L 789.228406 -485.636377 
L 789.786732 -488.905404 
L 790.305653 -492.174431 
L 790.783171 -495.443457 
L 791.218084 -498.712484 
L 791.610016 -501.98151 
L 791.959409 -505.250537 
L 792.267467 -508.519564 
L 792.536062 -511.78859 
L 792.767619 -515.057617 
L 792.964986 -518.326643 
L 793.131296 -521.59567 
L 794.468704 -521.59567 
L 794.468704 -521.59567 
L 794.635014 -518.326643 
L 794.832381 -515.057617 
L 795.063938 -511.78859 
L 795.332533 -508.519564 
L 795.640591 -505.250537 
L 795.989984 -501.98151 
L 796.381916 -498.712484 
L 796.816829 -495.443457 
L 797.294347 -492.174431 
L 797.813268 -488.905404 
L 798.371594 -485.636377 
L 798.96662 -482.367351 
L 799.595058 -479.098324 
L 800.253213 -475.829297 
L 800.937174 -472.560271 
L 801.643023 -469.291244 
L 802.36704 -466.022218 
L 803.105887 -462.753191 
L 803.856754 -459.484164 
L 804.617466 -456.215138 
L 805.386526 -452.946111 
L 806.16311 -449.677085 
L 806.947006 -446.408058 
L 807.738511 -443.139031 
L 808.5383 -439.870005 
L 809.34727 -436.600978 
L 810.166388 -433.331952 
L 810.99654 -430.062925 
L 811.838408 -426.793898 
L 812.692351 -423.524872 
L 813.55832 -420.255845 
L 814.435786 -416.986819 
L 815.323673 -413.717792 
L 816.220308 -410.448765 
L 817.123362 -407.179739 
L 818.029797 -403.910712 
L 818.935818 -400.641686 
L 819.836836 -397.372659 
L 820.727454 -394.103632 
L 821.601485 -390.834606 
L 822.452019 -387.565579 
L 823.271542 -384.296553 
L 824.052107 -381.027526 
L 824.785552 -377.758499 
L 825.463765 -374.489473 
L 826.078952 -371.220446 
L 826.623911 -367.95142 
L 827.092271 -364.682393 
L 827.478683 -361.413366 
L 827.778947 -358.14434 
L 827.990055 -354.875313 
L 828.110173 -351.606287 
L 828.138545 -348.33726 
L 828.075363 -345.068233 
L 827.921605 -341.799207 
L 827.67888 -338.53018 
L 827.349295 -335.261153 
L 826.93536 -331.992127 
L 826.439949 -328.7231 
L 825.866304 -325.454074 
L 825.218084 -322.185047 
L 824.499434 -318.91602 
L 823.715051 -315.646994 
L 822.87024 -312.377967 
L 821.970917 -309.108941 
L 821.023563 -305.839914 
L 820.035115 -302.570887 
L 819.012799 -299.301861 
L 817.963929 -296.032834 
L 816.895667 -292.763808 
L 815.814802 -289.494781 
L 814.727544 -286.225754 
L 813.639385 -282.956728 
L 812.555011 -279.687701 
L 811.478308 -276.418675 
L 810.412435 -273.149648 
L 809.359966 -269.880621 
L 808.323077 -266.611595 
L 807.303759 -263.342568 
L 806.304027 -260.073542 
L 805.326094 -256.804515 
L 804.372502 -253.535488 
L 803.446186 -250.266462 
L 802.550461 -246.997435 
L 801.68895 -243.728409 
L 800.865443 -240.459382 
L 800.083718 -237.190355 
L 799.347339 -233.921329 
L 798.659449 -230.652302 
L 798.022581 -227.383276 
L 797.43851 -224.114249 
L 796.908144 -220.845222 
L 796.431476 -217.576196 
L 796.007589 -214.307169 
L 795.634708 -211.038142 
L 795.310309 -207.769116 
L 795.031239 -204.500089 
L 794.793878 -201.231063 
L 794.594295 -197.962036 
z
" style="stroke: #3f3f3f; stroke-width: 1.25"/>
    </defs>
    <g clip-path="url(#p2e6ac978bb)">
     <use xlink:href="#mf67ba5883e" x="0" y="720" style="fill: #3274a1; stroke: #3f3f3f; stroke-width: 1.25"/>
    </g>
   </g>
   <g id="PolyCollection_7">
    <defs>
     <path id="m3bf90ecd92" d="M 906.091146 -141.80828 
L 904.708854 -141.80828 
L 904.544708 -145.926564 
L 904.352257 -150.044847 
L 904.129346 -154.163131 
L 903.874289 -158.281415 
L 903.586001 -162.399698 
L 903.264128 -166.517982 
L 902.909141 -170.636265 
L 902.522402 -174.754549 
L 902.106183 -178.872833 
L 901.663622 -182.991116 
L 901.198633 -187.1094 
L 900.715748 -191.227683 
L 900.219908 -195.345967 
L 899.716213 -199.464251 
L 899.209635 -203.582534 
L 898.704724 -207.700818 
L 898.205319 -211.819101 
L 897.714288 -215.937385 
L 897.233309 -220.055669 
L 896.76272 -224.173952 
L 896.301439 -228.292236 
L 895.846964 -232.410519 
L 895.395459 -236.528803 
L 894.941915 -240.647087 
L 894.480378 -244.76537 
L 894.004242 -248.883654 
L 893.506581 -253.001937 
L 892.980509 -257.120221 
L 892.419561 -261.238505 
L 891.818072 -265.356788 
L 891.171549 -269.475072 
L 890.477019 -273.593355 
L 889.733343 -277.711639 
L 888.94149 -281.829923 
L 888.104744 -285.948206 
L 887.228845 -290.06649 
L 886.322029 -294.184773 
L 885.394972 -298.303057 
L 884.460612 -302.421341 
L 883.53383 -306.539624 
L 882.631018 -310.657908 
L 881.769499 -314.776191 
L 880.966854 -318.894475 
L 880.24016 -323.012759 
L 879.605185 -327.131042 
L 879.075592 -331.249326 
L 878.662199 -335.367609 
L 878.372354 -339.485893 
L 878.209477 -343.604177 
L 878.172799 -347.72246 
L 878.257349 -351.840744 
L 878.454182 -355.959027 
L 878.750845 -360.077311 
L 879.132065 -364.195595 
L 879.580608 -368.313878 
L 880.078256 -372.432162 
L 880.606832 -376.550445 
L 881.14921 -380.668729 
L 881.69024 -384.787013 
L 882.217524 -388.905296 
L 882.721995 -393.02358 
L 883.198272 -397.141863 
L 883.644766 -401.260147 
L 884.063542 -405.378431 
L 884.459957 -409.496714 
L 884.842109 -413.614998 
L 885.220134 -417.733281 
L 885.605407 -421.851565 
L 886.00971 -425.969849 
L 886.444413 -430.088132 
L 886.919715 -434.206416 
L 887.444008 -438.324699 
L 888.023368 -442.442983 
L 888.661223 -446.561267 
L 889.358187 -450.67955 
L 890.11207 -454.797834 
L 890.918039 -458.916117 
L 891.768925 -463.034401 
L 892.655631 -467.152685 
L 893.567618 -471.270968 
L 894.49343 -475.389252 
L 895.421228 -479.507535 
L 896.339302 -483.625819 
L 897.236532 -487.744103 
L 898.102781 -491.862386 
L 898.929205 -495.98067 
L 899.708471 -500.098953 
L 900.434888 -504.217237 
L 901.104447 -508.335521 
L 901.714785 -512.453804 
L 902.265084 -516.572088 
L 902.755915 -520.690371 
L 903.189049 -524.808655 
L 903.567237 -528.926939 
L 903.893997 -533.045222 
L 904.173388 -537.163506 
L 904.409807 -541.281789 
L 904.607801 -545.400073 
L 904.771912 -549.518357 
L 906.028088 -549.518357 
L 906.028088 -549.518357 
L 906.192199 -545.400073 
L 906.390193 -541.281789 
L 906.626612 -537.163506 
L 906.906003 -533.045222 
L 907.232763 -528.926939 
L 907.610951 -524.808655 
L 908.044085 -520.690371 
L 908.534916 -516.572088 
L 909.085215 -512.453804 
L 909.695553 -508.335521 
L 910.365112 -504.217237 
L 911.091529 -500.098953 
L 911.870795 -495.98067 
L 912.697219 -491.862386 
L 913.563468 -487.744103 
L 914.460698 -483.625819 
L 915.378772 -479.507535 
L 916.30657 -475.389252 
L 917.232382 -471.270968 
L 918.144369 -467.152685 
L 919.031075 -463.034401 
L 919.881961 -458.916117 
L 920.68793 -454.797834 
L 921.441813 -450.67955 
L 922.138777 -446.561267 
L 922.776632 -442.442983 
L 923.355992 -438.324699 
L 923.880285 -434.206416 
L 924.355587 -430.088132 
L 924.79029 -425.969849 
L 925.194593 -421.851565 
L 925.579866 -417.733281 
L 925.957891 -413.614998 
L 926.340043 -409.496714 
L 926.736458 -405.378431 
L 927.155234 -401.260147 
L 927.601728 -397.141863 
L 928.078005 -393.02358 
L 928.582476 -388.905296 
L 929.10976 -384.787013 
L 929.65079 -380.668729 
L 930.193168 -376.550445 
L 930.721744 -372.432162 
L 931.219392 -368.313878 
L 931.667935 -364.195595 
L 932.049155 -360.077311 
L 932.345818 -355.959027 
L 932.542651 -351.840744 
L 932.627201 -347.72246 
L 932.590523 -343.604177 
L 932.427646 -339.485893 
L 932.137801 -335.367609 
L 931.724408 -331.249326 
L 931.194815 -327.131042 
L 930.55984 -323.012759 
L 929.833146 -318.894475 
L 929.030501 -314.776191 
L 928.168982 -310.657908 
L 927.26617 -306.539624 
L 926.339388 -302.421341 
L 925.405028 -298.303057 
L 924.477971 -294.184773 
L 923.571155 -290.06649 
L 922.695256 -285.948206 
L 921.85851 -281.829923 
L 921.066657 -277.711639 
L 920.322981 -273.593355 
L 919.628451 -269.475072 
L 918.981928 -265.356788 
L 918.380439 -261.238505 
L 917.819491 -257.120221 
L 917.293419 -253.001937 
L 916.795758 -248.883654 
L 916.319622 -244.76537 
L 915.858085 -240.647087 
L 915.404541 -236.528803 
L 914.953036 -232.410519 
L 914.498561 -228.292236 
L 914.03728 -224.173952 
L 913.566691 -220.055669 
L 913.085712 -215.937385 
L 912.594681 -211.819101 
L 912.095276 -207.700818 
L 911.590365 -203.582534 
L 911.083787 -199.464251 
L 910.580092 -195.345967 
L 910.084252 -191.227683 
L 909.601367 -187.1094 
L 909.136378 -182.991116 
L 908.693817 -178.872833 
L 908.277598 -174.754549 
L 907.890859 -170.636265 
L 907.535872 -166.517982 
L 907.213999 -162.399698 
L 906.925711 -158.281415 
L 906.670654 -154.163131 
L 906.447743 -150.044847 
L 906.255292 -145.926564 
L 906.091146 -141.80828 
z
" style="stroke: #3f3f3f; stroke-width: 1.25"/>
    </defs>
    <g clip-path="url(#p2e6ac978bb)">
     <use xlink:href="#m3bf90ecd92" x="0" y="720" style="fill: #3274a1; stroke: #3f3f3f; stroke-width: 1.25"/>
    </g>
   </g>
   <g id="PolyCollection_8">
    <defs>
     <path id="m8c8115e573" d="M 1017.644614 -167.443444 
L 1016.355386 -167.443444 
L 1016.19844 -171.155709 
L 1016.012204 -174.867974 
L 1015.793509 -178.58024 
L 1015.539367 -182.292505 
L 1015.247112 -186.00477 
L 1014.914542 -189.717035 
L 1014.54006 -193.4293 
L 1014.122815 -197.141565 
L 1013.662816 -200.853831 
L 1013.161031 -204.566096 
L 1012.619435 -208.278361 
L 1012.041028 -211.990626 
L 1011.429781 -215.702891 
L 1010.79054 -219.415157 
L 1010.12886 -223.127422 
L 1009.450783 -226.839687 
L 1008.762562 -230.551952 
L 1008.070352 -234.264217 
L 1007.379862 -237.976483 
L 1006.696009 -241.688748 
L 1006.02258 -245.401013 
L 1005.361937 -249.113278 
L 1004.714777 -252.825543 
L 1004.079984 -256.537808 
L 1003.454575 -260.250074 
L 1002.833773 -263.962339 
L 1002.211207 -267.674604 
L 1001.579237 -271.386869 
L 1000.929403 -275.099134 
L 1000.252984 -278.8114 
L 999.541627 -282.523665 
L 998.788036 -286.23593 
L 997.986657 -289.948195 
L 997.134336 -293.66046 
L 996.230889 -297.372726 
L 995.279552 -301.084991 
L 994.287258 -304.797256 
L 993.264725 -308.509521 
L 992.226324 -312.221786 
L 991.189719 -315.934051 
L 990.175292 -319.646317 
L 989.205368 -323.358582 
L 988.303278 -327.070847 
L 987.492309 -330.783112 
L 986.7946 -334.495377 
L 986.230041 -338.207643 
L 985.815244 -341.919908 
L 985.562661 -345.632173 
L 985.479875 -349.344438 
L 985.569149 -353.056703 
L 985.82722 -356.768969 
L 986.245397 -360.481234 
L 986.809918 -364.193499 
L 987.502579 -367.905764 
L 988.301582 -371.618029 
L 989.182559 -375.330294 
L 990.119714 -379.04256 
L 991.087018 -382.754825 
L 992.059389 -386.46709 
L 993.013802 -390.179355 
L 993.930258 -393.89162 
L 994.792575 -397.603886 
L 995.58895 -401.316151 
L 996.312289 -405.028416 
L 996.960272 -408.740681 
L 997.535175 -412.452946 
L 998.043456 -416.165212 
L 998.495149 -419.877477 
L 998.90309 -423.589742 
L 999.282039 -427.302007 
L 999.647739 -431.014272 
L 1000.015976 -434.726537 
L 1000.401685 -438.438803 
L 1000.818149 -442.151068 
L 1001.276339 -445.863333 
L 1001.784414 -449.575598 
L 1002.347408 -453.287863 
L 1002.967103 -457.000129 
L 1003.64209 -460.712394 
L 1004.367998 -464.424659 
L 1005.137869 -468.136924 
L 1005.942637 -471.849189 
L 1006.771692 -475.561455 
L 1007.613476 -479.27372 
L 1008.456074 -482.985985 
L 1009.287782 -486.69825 
L 1010.0976 -490.410515 
L 1010.87565 -494.12278 
L 1011.613488 -497.835046 
L 1012.304319 -501.547311 
L 1012.943098 -505.259576 
L 1013.526545 -508.971841 
L 1014.053067 -512.684106 
L 1014.522613 -516.396372 
L 1014.936479 -520.108637 
L 1015.297083 -523.820902 
L 1015.607714 -527.533167 
L 1015.872295 -531.245432 
L 1016.095148 -534.957698 
L 1017.904852 -534.957698 
L 1017.904852 -534.957698 
L 1018.127705 -531.245432 
L 1018.392286 -527.533167 
L 1018.702917 -523.820902 
L 1019.063521 -520.108637 
L 1019.477387 -516.396372 
L 1019.946933 -512.684106 
L 1020.473455 -508.971841 
L 1021.056902 -505.259576 
L 1021.695681 -501.547311 
L 1022.386512 -497.835046 
L 1023.12435 -494.12278 
L 1023.9024 -490.410515 
L 1024.712218 -486.69825 
L 1025.543926 -482.985985 
L 1026.386524 -479.27372 
L 1027.228308 -475.561455 
L 1028.057363 -471.849189 
L 1028.862131 -468.136924 
L 1029.632002 -464.424659 
L 1030.35791 -460.712394 
L 1031.032897 -457.000129 
L 1031.652592 -453.287863 
L 1032.215586 -449.575598 
L 1032.723661 -445.863333 
L 1033.181851 -442.151068 
L 1033.598315 -438.438803 
L 1033.984024 -434.726537 
L 1034.352261 -431.014272 
L 1034.717961 -427.302007 
L 1035.09691 -423.589742 
L 1035.504851 -419.877477 
L 1035.956544 -416.165212 
L 1036.464825 -412.452946 
L 1037.039728 -408.740681 
L 1037.687711 -405.028416 
L 1038.41105 -401.316151 
L 1039.207425 -397.603886 
L 1040.069742 -393.89162 
L 1040.986198 -390.179355 
L 1041.940611 -386.46709 
L 1042.912982 -382.754825 
L 1043.880286 -379.04256 
L 1044.817441 -375.330294 
L 1045.698418 -371.618029 
L 1046.497421 -367.905764 
L 1047.190082 -364.193499 
L 1047.754603 -360.481234 
L 1048.17278 -356.768969 
L 1048.430851 -353.056703 
L 1048.520125 -349.344438 
L 1048.437339 -345.632173 
L 1048.184756 -341.919908 
L 1047.769959 -338.207643 
L 1047.2054 -334.495377 
L 1046.507691 -330.783112 
L 1045.696722 -327.070847 
L 1044.794632 -323.358582 
L 1043.824708 -319.646317 
L 1042.810281 -315.934051 
L 1041.773676 -312.221786 
L 1040.735275 -308.509521 
L 1039.712742 -304.797256 
L 1038.720448 -301.084991 
L 1037.769111 -297.372726 
L 1036.865664 -293.66046 
L 1036.013343 -289.948195 
L 1035.211964 -286.23593 
L 1034.458373 -282.523665 
L 1033.747016 -278.8114 
L 1033.070597 -275.099134 
L 1032.420763 -271.386869 
L 1031.788793 -267.674604 
L 1031.166227 -263.962339 
L 1030.545425 -260.250074 
L 1029.920016 -256.537808 
L 1029.285223 -252.825543 
L 1028.638063 -249.113278 
L 1027.97742 -245.401013 
L 1027.303991 -241.688748 
L 1026.620138 -237.976483 
L 1025.929648 -234.264217 
L 1025.237438 -230.551952 
L 1024.549217 -226.839687 
L 1023.87114 -223.127422 
L 1023.20946 -219.415157 
L 1022.570219 -215.702891 
L 1021.958972 -211.990626 
L 1021.380565 -208.278361 
L 1020.838969 -204.566096 
L 1020.337184 -200.853831 
L 1019.877185 -197.141565 
L 1019.45994 -193.4293 
L 1019.085458 -189.717035 
L 1018.752888 -186.00477 
L 1018.460633 -182.292505 
L 1018.206491 -178.58024 
L 1017.987796 -174.867974 
L 1017.80156 -171.155709 
L 1017.644614 -167.443444 
z
" style="stroke: #3f3f3f; stroke-width: 1.25"/>
    </defs>
    <g clip-path="url(#p2e6ac978bb)">
     <use xlink:href="#m8c8115e573" x="0" y="720" style="fill: #3274a1; stroke: #3f3f3f; stroke-width: 1.25"/>
    </g>
   </g>
   <g id="PolyCollection_9">
    <defs>
     <path id="m91a1828e27" d="M 1129.400529 -200.281199 
L 1127.799471 -200.281199 
L 1127.608781 -204.403611 
L 1127.385599 -208.526023 
L 1127.127741 -212.648435 
L 1126.833673 -216.770847 
L 1126.502679 -220.893259 
L 1126.134998 -225.015672 
L 1125.731927 -229.138084 
L 1125.295858 -233.260496 
L 1124.830247 -237.382908 
L 1124.339499 -241.50532 
L 1123.828759 -245.627732 
L 1123.303629 -249.750144 
L 1122.769804 -253.872557 
L 1122.232656 -257.994969 
L 1121.696798 -262.117381 
L 1121.165651 -266.239793 
L 1120.64106 -270.362205 
L 1120.122999 -274.484617 
L 1119.60939 -278.607029 
L 1119.096079 -282.729441 
L 1118.576972 -286.851854 
L 1118.044345 -290.974266 
L 1117.489315 -295.096678 
L 1116.902453 -299.21909 
L 1116.27448 -303.341502 
L 1115.59703 -307.463914 
L 1114.863387 -311.586326 
L 1114.06917 -315.708739 
L 1113.212881 -319.831151 
L 1112.296298 -323.953563 
L 1111.324653 -328.075975 
L 1110.306595 -332.198387 
L 1109.253928 -336.320799 
L 1108.181149 -340.443211 
L 1107.104815 -344.565623 
L 1106.042788 -348.688036 
L 1105.013412 -352.810448 
L 1104.034694 -356.93286 
L 1103.123519 -361.055272 
L 1102.294981 -365.177684 
L 1101.561848 -369.300096 
L 1100.934192 -373.422508 
L 1100.419191 -377.544921 
L 1100.02111 -381.667333 
L 1099.741425 -385.789745 
L 1099.57907 -389.912157 
L 1099.530786 -394.034569 
L 1099.591502 -398.156981 
L 1099.754753 -402.279393 
L 1100.013073 -406.401805 
L 1100.35836 -410.524218 
L 1100.78218 -414.64663 
L 1101.276024 -418.769042 
L 1101.8315 -422.891454 
L 1102.440478 -427.013866 
L 1103.095188 -431.136278 
L 1103.788291 -435.25869 
L 1104.512927 -439.381103 
L 1105.262744 -443.503515 
L 1106.031928 -447.625927 
L 1106.815222 -451.748339 
L 1107.607935 -455.870751 
L 1108.405952 -459.993163 
L 1109.205725 -464.115575 
L 1110.004259 -468.237987 
L 1110.799076 -472.3604 
L 1111.588178 -476.482812 
L 1112.369981 -480.605224 
L 1113.143258 -484.727636 
L 1113.907067 -488.850048 
L 1114.660679 -492.97246 
L 1115.403509 -497.094872 
L 1116.135053 -501.217285 
L 1116.854833 -505.339697 
L 1117.56234 -509.462109 
L 1118.256994 -513.584521 
L 1118.938109 -517.706933 
L 1119.604861 -521.829345 
L 1120.256268 -525.951757 
L 1120.891178 -530.074169 
L 1121.508266 -534.196582 
L 1122.106045 -538.318994 
L 1122.682894 -542.441406 
L 1123.237091 -546.563818 
L 1123.76687 -550.68623 
L 1124.270483 -554.808642 
L 1124.746278 -558.931054 
L 1125.192769 -563.053467 
L 1125.608719 -567.175879 
L 1125.993205 -571.298291 
L 1126.345676 -575.420703 
L 1126.665991 -579.543115 
L 1126.954441 -583.665527 
L 1127.211745 -587.787939 
L 1127.439028 -591.910351 
L 1127.637779 -596.032764 
L 1127.809795 -600.155176 
L 1127.957111 -604.277588 
L 1128.081929 -608.4 
L 1129.118071 -608.4 
L 1129.118071 -608.4 
L 1129.242889 -604.277588 
L 1129.390205 -600.155176 
L 1129.562221 -596.032764 
L 1129.760972 -591.910351 
L 1129.988255 -587.787939 
L 1130.245559 -583.665527 
L 1130.534009 -579.543115 
L 1130.854324 -575.420703 
L 1131.206795 -571.298291 
L 1131.591281 -567.175879 
L 1132.007231 -563.053467 
L 1132.453722 -558.931054 
L 1132.929517 -554.808642 
L 1133.43313 -550.68623 
L 1133.962909 -546.563818 
L 1134.517106 -542.441406 
L 1135.093955 -538.318994 
L 1135.691734 -534.196582 
L 1136.308822 -530.074169 
L 1136.943732 -525.951757 
L 1137.595139 -521.829345 
L 1138.261891 -517.706933 
L 1138.943006 -513.584521 
L 1139.63766 -509.462109 
L 1140.345167 -505.339697 
L 1141.064947 -501.217285 
L 1141.796491 -497.094872 
L 1142.539321 -492.97246 
L 1143.292933 -488.850048 
L 1144.056742 -484.727636 
L 1144.830019 -480.605224 
L 1145.611822 -476.482812 
L 1146.400924 -472.3604 
L 1147.195741 -468.237987 
L 1147.994275 -464.115575 
L 1148.794048 -459.993163 
L 1149.592065 -455.870751 
L 1150.384778 -451.748339 
L 1151.168072 -447.625927 
L 1151.937256 -443.503515 
L 1152.687073 -439.381103 
L 1153.411709 -435.25869 
L 1154.104812 -431.136278 
L 1154.759522 -427.013866 
L 1155.3685 -422.891454 
L 1155.923976 -418.769042 
L 1156.41782 -414.64663 
L 1156.84164 -410.524218 
L 1157.186927 -406.401805 
L 1157.445247 -402.279393 
L 1157.608498 -398.156981 
L 1157.669214 -394.034569 
L 1157.62093 -389.912157 
L 1157.458575 -385.789745 
L 1157.17889 -381.667333 
L 1156.780809 -377.544921 
L 1156.265808 -373.422508 
L 1155.638152 -369.300096 
L 1154.905019 -365.177684 
L 1154.076481 -361.055272 
L 1153.165306 -356.93286 
L 1152.186588 -352.810448 
L 1151.157212 -348.688036 
L 1150.095185 -344.565623 
L 1149.018851 -340.443211 
L 1147.946072 -336.320799 
L 1146.893405 -332.198387 
L 1145.875347 -328.075975 
L 1144.903702 -323.953563 
L 1143.987119 -319.831151 
L 1143.13083 -315.708739 
L 1142.336613 -311.586326 
L 1141.60297 -307.463914 
L 1140.92552 -303.341502 
L 1140.297547 -299.21909 
L 1139.710685 -295.096678 
L 1139.155655 -290.974266 
L 1138.623028 -286.851854 
L 1138.103921 -282.729441 
L 1137.59061 -278.607029 
L 1137.077001 -274.484617 
L 1136.55894 -270.362205 
L 1136.034349 -266.239793 
L 1135.503202 -262.117381 
L 1134.967344 -257.994969 
L 1134.430196 -253.872557 
L 1133.896371 -249.750144 
L 1133.371241 -245.627732 
L 1132.860501 -241.50532 
L 1132.369753 -237.382908 
L 1131.904142 -233.260496 
L 1131.468073 -229.138084 
L 1131.065002 -225.015672 
L 1130.697321 -220.893259 
L 1130.366327 -216.770847 
L 1130.072259 -212.648435 
L 1129.814401 -208.526023 
L 1129.591219 -204.403611 
L 1129.400529 -200.281199 
z
" style="stroke: #3f3f3f; stroke-width: 1.25"/>
    </defs>
    <g clip-path="url(#p2e6ac978bb)">
     <use xlink:href="#m91a1828e27" x="0" y="720" style="fill: #3274a1; stroke: #3f3f3f; stroke-width: 1.25"/>
    </g>
   </g>
   <g id="PolyCollection_10">
    <defs>
     <path id="m2d5570607e" d="M 1240.782847 -209.119653 
L 1239.617153 -209.119653 
L 1239.462944 -212.554596 
L 1239.281332 -215.98954 
L 1239.071392 -219.424484 
L 1238.833297 -222.859427 
L 1238.568537 -226.294371 
L 1238.280069 -229.729315 
L 1237.972372 -233.164258 
L 1237.651388 -236.599202 
L 1237.324315 -240.034146 
L 1236.999274 -243.469089 
L 1236.684834 -246.904033 
L 1236.389444 -250.338977 
L 1236.1208 -253.77392 
L 1235.885208 -257.208864 
L 1235.686995 -260.643808 
L 1235.528037 -264.078751 
L 1235.40744 -267.513695 
L 1235.321427 -270.948639 
L 1235.263421 -274.383582 
L 1235.224339 -277.818526 
L 1235.193045 -281.25347 
L 1235.156921 -284.688413 
L 1235.102486 -288.123357 
L 1235.016 -291.558301 
L 1234.883981 -294.993245 
L 1234.69361 -298.428188 
L 1234.432981 -301.863132 
L 1234.091218 -305.298076 
L 1233.658484 -308.733019 
L 1233.125937 -312.167963 
L 1232.4857 -315.602907 
L 1231.730907 -319.03785 
L 1230.855876 -322.472794 
L 1229.856427 -325.907738 
L 1228.730341 -329.342681 
L 1227.477905 -332.777625 
L 1226.102464 -336.212569 
L 1224.610876 -339.647512 
L 1223.01376 -343.082456 
L 1221.325463 -346.5174 
L 1219.563665 -349.952343 
L 1217.748647 -353.387287 
L 1215.902264 -356.822231 
L 1214.04674 -360.257174 
L 1212.203441 -363.692118 
L 1210.391809 -367.127062 
L 1208.628617 -370.562005 
L 1206.927687 -373.996949 
L 1205.300123 -377.431893 
L 1203.755051 -380.866836 
L 1202.300764 -384.30178 
L 1200.946085 -387.736724 
L 1199.701735 -391.171668 
L 1198.581451 -394.606611 
L 1197.602634 -398.041555 
L 1196.786373 -401.476499 
L 1196.156754 -404.911442 
L 1195.739491 -408.346386 
L 1195.56 -411.78133 
L 1195.641121 -415.216273 
L 1196.00075 -418.651217 
L 1196.649672 -422.086161 
L 1197.589832 -425.521104 
L 1198.813274 -428.956048 
L 1200.301855 -432.390992 
L 1202.027784 -435.825935 
L 1203.954909 -439.260879 
L 1206.040646 -442.695823 
L 1208.238332 -446.130766 
L 1210.499798 -449.56571 
L 1212.777921 -453.000654 
L 1215.028957 -456.435597 
L 1217.214484 -459.870541 
L 1219.302831 -463.305485 
L 1221.269931 -466.740428 
L 1223.099601 -470.175372 
L 1224.783268 -473.610316 
L 1226.319244 -477.04526 
L 1227.711641 -480.480203 
L 1228.969061 -483.915147 
L 1230.103184 -487.350091 
L 1231.127375 -490.785034 
L 1232.055419 -494.219978 
L 1232.900462 -497.654922 
L 1233.674215 -501.089865 
L 1234.386442 -504.524809 
L 1235.044728 -507.959753 
L 1235.65451 -511.394696 
L 1236.219294 -514.82964 
L 1236.741037 -518.264584 
L 1237.220593 -521.699527 
L 1237.658181 -525.134471 
L 1238.053827 -528.569415 
L 1238.407716 -532.004358 
L 1238.720462 -535.439302 
L 1238.993263 -538.874246 
L 1239.227948 -542.309189 
L 1239.426954 -545.744133 
L 1239.593216 -549.179077 
L 1240.806784 -549.179077 
L 1240.806784 -549.179077 
L 1240.973046 -545.744133 
L 1241.172052 -542.309189 
L 1241.406737 -538.874246 
L 1241.679538 -535.439302 
L 1241.992284 -532.004358 
L 1242.346173 -528.569415 
L 1242.741819 -525.134471 
L 1243.179407 -521.699527 
L 1243.658963 -518.264584 
L 1244.180706 -514.82964 
L 1244.74549 -511.394696 
L 1245.355272 -507.959753 
L 1246.013558 -504.524809 
L 1246.725785 -501.089865 
L 1247.499538 -497.654922 
L 1248.344581 -494.219978 
L 1249.272625 -490.785034 
L 1250.296816 -487.350091 
L 1251.430939 -483.915147 
L 1252.688359 -480.480203 
L 1254.080756 -477.04526 
L 1255.616732 -473.610316 
L 1257.300399 -470.175372 
L 1259.130069 -466.740428 
L 1261.097169 -463.305485 
L 1263.185516 -459.870541 
L 1265.371043 -456.435597 
L 1267.622079 -453.000654 
L 1269.900202 -449.56571 
L 1272.161668 -446.130766 
L 1274.359354 -442.695823 
L 1276.445091 -439.260879 
L 1278.372216 -435.825935 
L 1280.098145 -432.390992 
L 1281.586726 -428.956048 
L 1282.810168 -425.521104 
L 1283.750328 -422.086161 
L 1284.39925 -418.651217 
L 1284.758879 -415.216273 
L 1284.84 -411.78133 
L 1284.660509 -408.346386 
L 1284.243246 -404.911442 
L 1283.613627 -401.476499 
L 1282.797366 -398.041555 
L 1281.818549 -394.606611 
L 1280.698265 -391.171668 
L 1279.453915 -387.736724 
L 1278.099236 -384.30178 
L 1276.644949 -380.866836 
L 1275.099877 -377.431893 
L 1273.472313 -373.996949 
L 1271.771383 -370.562005 
L 1270.008191 -367.127062 
L 1268.196559 -363.692118 
L 1266.35326 -360.257174 
L 1264.497736 -356.822231 
L 1262.651353 -353.387287 
L 1260.836335 -349.952343 
L 1259.074537 -346.5174 
L 1257.38624 -343.082456 
L 1255.789124 -339.647512 
L 1254.297536 -336.212569 
L 1252.922095 -332.777625 
L 1251.669659 -329.342681 
L 1250.543573 -325.907738 
L 1249.544124 -322.472794 
L 1248.669093 -319.03785 
L 1247.9143 -315.602907 
L 1247.274063 -312.167963 
L 1246.741516 -308.733019 
L 1246.308782 -305.298076 
L 1245.967019 -301.863132 
L 1245.70639 -298.428188 
L 1245.516019 -294.993245 
L 1245.384 -291.558301 
L 1245.297514 -288.123357 
L 1245.243079 -284.688413 
L 1245.206955 -281.25347 
L 1245.175661 -277.818526 
L 1245.136579 -274.383582 
L 1245.078573 -270.948639 
L 1244.99256 -267.513695 
L 1244.871963 -264.078751 
L 1244.713005 -260.643808 
L 1244.514792 -257.208864 
L 1244.2792 -253.77392 
L 1244.010556 -250.338977 
L 1243.715166 -246.904033 
L 1243.400726 -243.469089 
L 1243.075685 -240.034146 
L 1242.748612 -236.599202 
L 1242.427628 -233.164258 
L 1242.119931 -229.729315 
L 1241.831463 -226.294371 
L 1241.566703 -222.859427 
L 1241.328608 -219.424484 
L 1241.118668 -215.98954 
L 1240.937056 -212.554596 
L 1240.782847 -209.119653 
z
" style="stroke: #3f3f3f; stroke-width: 1.25"/>
    </defs>
    <g clip-path="url(#p2e6ac978bb)">
     <use xlink:href="#m2d5570607e" x="0" y="720" style="fill: #3274a1; stroke: #3f3f3f; stroke-width: 1.25"/>
    </g>
   </g>
   <g id="matplotlib.axis_1">
    <g id="xtick_1">
     <g id="line2d_1">
      <defs>
       <path id="m21aeeb9e69" d="M 0 0 
L 0 3.5 
" style="stroke: #000000; stroke-width: 0.8"/>
      </defs>
      <g>
       <use xlink:href="#m21aeeb9e69" x="235.8" y="640.8" style="stroke: #000000; stroke-width: 0.8"/>
      </g>
     </g>
     <g id="text_1">
      <!-- 0 -->
      <g transform="translate(232.61875 655.398438) scale(0.1 -0.1)">
       <defs>
        <path id="DejaVuSans-30" d="M 2034 4250 
Q 1547 4250 1301 3770 
Q 1056 3291 1056 2328 
Q 1056 1369 1301 889 
Q 1547 409 2034 409 
Q 2525 409 2770 889 
Q 3016 1369 3016 2328 
Q 3016 3291 2770 3770 
Q 2525 4250 2034 4250 
z
M 2034 4750 
Q 2819 4750 3233 4129 
Q 3647 3509 3647 2328 
Q 3647 1150 3233 529 
Q 2819 -91 2034 -91 
Q 1250 -91 836 529 
Q 422 1150 422 2328 
Q 422 3509 836 4129 
Q 1250 4750 2034 4750 
z
" transform="scale(0.015625)"/>
       </defs>
       <use xlink:href="#DejaVuSans-30"/>
      </g>
     </g>
    </g>
    <g id="xtick_2">
     <g id="line2d_2">
      <g>
       <use xlink:href="#m21aeeb9e69" x="347.4" y="640.8" style="stroke: #000000; stroke-width: 0.8"/>
      </g>
     </g>
     <g id="text_2">
      <!-- 1 -->
      <g transform="translate(344.21875 655.398438) scale(0.1 -0.1)">
       <defs>
        <path id="DejaVuSans-31" d="M 794 531 
L 1825 531 
L 1825 4091 
L 703 3866 
L 703 4441 
L 1819 4666 
L 2450 4666 
L 2450 531 
L 3481 531 
L 3481 0 
L 794 0 
L 794 531 
z
" transform="scale(0.015625)"/>
       </defs>
       <use xlink:href="#DejaVuSans-31"/>
      </g>
     </g>
    </g>
    <g id="xtick_3">
     <g id="line2d_3">
      <g>
       <use xlink:href="#m21aeeb9e69" x="459" y="640.8" style="stroke: #000000; stroke-width: 0.8"/>
      </g>
     </g>
     <g id="text_3">
      <!-- 2 -->
      <g transform="translate(455.81875 655.398438) scale(0.1 -0.1)">
       <defs>
        <path id="DejaVuSans-32" d="M 1228 531 
L 3431 531 
L 3431 0 
L 469 0 
L 469 531 
Q 828 903 1448 1529 
Q 2069 2156 2228 2338 
Q 2531 2678 2651 2914 
Q 2772 3150 2772 3378 
Q 2772 3750 2511 3984 
Q 2250 4219 1831 4219 
Q 1534 4219 1204 4116 
Q 875 4013 500 3803 
L 500 4441 
Q 881 4594 1212 4672 
Q 1544 4750 1819 4750 
Q 2544 4750 2975 4387 
Q 3406 4025 3406 3419 
Q 3406 3131 3298 2873 
Q 3191 2616 2906 2266 
Q 2828 2175 2409 1742 
Q 1991 1309 1228 531 
z
" transform="scale(0.015625)"/>
       </defs>
       <use xlink:href="#DejaVuSans-32"/>
      </g>
     </g>
    </g>
    <g id="xtick_4">
     <g id="line2d_4">
      <g>
       <use xlink:href="#m21aeeb9e69" x="570.6" y="640.8" style="stroke: #000000; stroke-width: 0.8"/>
      </g>
     </g>
     <g id="text_4">
      <!-- 3 -->
      <g transform="translate(567.41875 655.398438) scale(0.1 -0.1)">
       <defs>
        <path id="DejaVuSans-33" d="M 2597 2516 
Q 3050 2419 3304 2112 
Q 3559 1806 3559 1356 
Q 3559 666 3084 287 
Q 2609 -91 1734 -91 
Q 1441 -91 1130 -33 
Q 819 25 488 141 
L 488 750 
Q 750 597 1062 519 
Q 1375 441 1716 441 
Q 2309 441 2620 675 
Q 2931 909 2931 1356 
Q 2931 1769 2642 2001 
Q 2353 2234 1838 2234 
L 1294 2234 
L 1294 2753 
L 1863 2753 
Q 2328 2753 2575 2939 
Q 2822 3125 2822 3475 
Q 2822 3834 2567 4026 
Q 2313 4219 1838 4219 
Q 1578 4219 1281 4162 
Q 984 4106 628 3988 
L 628 4550 
Q 988 4650 1302 4700 
Q 1616 4750 1894 4750 
Q 2613 4750 3031 4423 
Q 3450 4097 3450 3541 
Q 3450 3153 3228 2886 
Q 3006 2619 2597 2516 
z
" transform="scale(0.015625)"/>
       </defs>
       <use xlink:href="#DejaVuSans-33"/>
      </g>
     </g>
    </g>
    <g id="xtick_5">
     <g id="line2d_5">
      <g>
       <use xlink:href="#m21aeeb9e69" x="682.2" y="640.8" style="stroke: #000000; stroke-width: 0.8"/>
      </g>
     </g>
     <g id="text_5">
      <!-- 4 -->
      <g transform="translate(679.01875 655.398438) scale(0.1 -0.1)">
       <defs>
        <path id="DejaVuSans-34" d="M 2419 4116 
L 825 1625 
L 2419 1625 
L 2419 4116 
z
M 2253 4666 
L 3047 4666 
L 3047 1625 
L 3713 1625 
L 3713 1100 
L 3047 1100 
L 3047 0 
L 2419 0 
L 2419 1100 
L 313 1100 
L 313 1709 
L 2253 4666 
z
" transform="scale(0.015625)"/>
       </defs>
       <use xlink:href="#DejaVuSans-34"/>
      </g>
     </g>
    </g>
    <g id="xtick_6">
     <g id="line2d_6">
      <g>
       <use xlink:href="#m21aeeb9e69" x="793.8" y="640.8" style="stroke: #000000; stroke-width: 0.8"/>
      </g>
     </g>
     <g id="text_6">
      <!-- 5 -->
      <g transform="translate(790.61875 655.398438) scale(0.1 -0.1)">
       <defs>
        <path id="DejaVuSans-35" d="M 691 4666 
L 3169 4666 
L 3169 4134 
L 1269 4134 
L 1269 2991 
Q 1406 3038 1543 3061 
Q 1681 3084 1819 3084 
Q 2600 3084 3056 2656 
Q 3513 2228 3513 1497 
Q 3513 744 3044 326 
Q 2575 -91 1722 -91 
Q 1428 -91 1123 -41 
Q 819 9 494 109 
L 494 744 
Q 775 591 1075 516 
Q 1375 441 1709 441 
Q 2250 441 2565 725 
Q 2881 1009 2881 1497 
Q 2881 1984 2565 2268 
Q 2250 2553 1709 2553 
Q 1456 2553 1204 2497 
Q 953 2441 691 2322 
L 691 4666 
z
" transform="scale(0.015625)"/>
       </defs>
       <use xlink:href="#DejaVuSans-35"/>
      </g>
     </g>
    </g>
    <g id="xtick_7">
     <g id="line2d_7">
      <g>
       <use xlink:href="#m21aeeb9e69" x="905.4" y="640.8" style="stroke: #000000; stroke-width: 0.8"/>
      </g>
     </g>
     <g id="text_7">
      <!-- 6 -->
      <g transform="translate(902.21875 655.398438) scale(0.1 -0.1)">
       <defs>
        <path id="DejaVuSans-36" d="M 2113 2584 
Q 1688 2584 1439 2293 
Q 1191 2003 1191 1497 
Q 1191 994 1439 701 
Q 1688 409 2113 409 
Q 2538 409 2786 701 
Q 3034 994 3034 1497 
Q 3034 2003 2786 2293 
Q 2538 2584 2113 2584 
z
M 3366 4563 
L 3366 3988 
Q 3128 4100 2886 4159 
Q 2644 4219 2406 4219 
Q 1781 4219 1451 3797 
Q 1122 3375 1075 2522 
Q 1259 2794 1537 2939 
Q 1816 3084 2150 3084 
Q 2853 3084 3261 2657 
Q 3669 2231 3669 1497 
Q 3669 778 3244 343 
Q 2819 -91 2113 -91 
Q 1303 -91 875 529 
Q 447 1150 447 2328 
Q 447 3434 972 4092 
Q 1497 4750 2381 4750 
Q 2619 4750 2861 4703 
Q 3103 4656 3366 4563 
z
" transform="scale(0.015625)"/>
       </defs>
       <use xlink:href="#DejaVuSans-36"/>
      </g>
     </g>
    </g>
    <g id="xtick_8">
     <g id="line2d_8">
      <g>
       <use xlink:href="#m21aeeb9e69" x="1017" y="640.8" style="stroke: #000000; stroke-width: 0.8"/>
      </g>
     </g>
     <g id="text_8">
      <!-- 7 -->
      <g transform="translate(1013.81875 655.398438) scale(0.1 -0.1)">
       <defs>
        <path id="DejaVuSans-37" d="M 525 4666 
L 3525 4666 
L 3525 4397 
L 1831 0 
L 1172 0 
L 2766 4134 
L 525 4134 
L 525 4666 
z
" transform="scale(0.015625)"/>
       </defs>
       <use xlink:href="#DejaVuSans-37"/>
      </g>
     </g>
    </g>
    <g id="xtick_9">
     <g id="line2d_9">
      <g>
       <use xlink:href="#m21aeeb9e69" x="1128.6" y="640.8" style="stroke: #000000; stroke-width: 0.8"/>
      </g>
     </g>
     <g id="text_9">
      <!-- 8 -->
      <g transform="translate(1125.41875 655.398438) scale(0.1 -0.1)">
       <defs>
        <path id="DejaVuSans-38" d="M 2034 2216 
Q 1584 2216 1326 1975 
Q 1069 1734 1069 1313 
Q 1069 891 1326 650 
Q 1584 409 2034 409 
Q 2484 409 2743 651 
Q 3003 894 3003 1313 
Q 3003 1734 2745 1975 
Q 2488 2216 2034 2216 
z
M 1403 2484 
Q 997 2584 770 2862 
Q 544 3141 544 3541 
Q 544 4100 942 4425 
Q 1341 4750 2034 4750 
Q 2731 4750 3128 4425 
Q 3525 4100 3525 3541 
Q 3525 3141 3298 2862 
Q 3072 2584 2669 2484 
Q 3125 2378 3379 2068 
Q 3634 1759 3634 1313 
Q 3634 634 3220 271 
Q 2806 -91 2034 -91 
Q 1263 -91 848 271 
Q 434 634 434 1313 
Q 434 1759 690 2068 
Q 947 2378 1403 2484 
z
M 1172 3481 
Q 1172 3119 1398 2916 
Q 1625 2713 2034 2713 
Q 2441 2713 2670 2916 
Q 2900 3119 2900 3481 
Q 2900 3844 2670 4047 
Q 2441 4250 2034 4250 
Q 1625 4250 1398 4047 
Q 1172 3844 1172 3481 
z
" transform="scale(0.015625)"/>
       </defs>
       <use xlink:href="#DejaVuSans-38"/>
      </g>
     </g>
    </g>
    <g id="xtick_10">
     <g id="line2d_10">
      <g>
       <use xlink:href="#m21aeeb9e69" x="1240.2" y="640.8" style="stroke: #000000; stroke-width: 0.8"/>
      </g>
     </g>
     <g id="text_10">
      <!-- 9 -->
      <g transform="translate(1237.01875 655.398438) scale(0.1 -0.1)">
       <defs>
        <path id="DejaVuSans-39" d="M 703 97 
L 703 672 
Q 941 559 1184 500 
Q 1428 441 1663 441 
Q 2288 441 2617 861 
Q 2947 1281 2994 2138 
Q 2813 1869 2534 1725 
Q 2256 1581 1919 1581 
Q 1219 1581 811 2004 
Q 403 2428 403 3163 
Q 403 3881 828 4315 
Q 1253 4750 1959 4750 
Q 2769 4750 3195 4129 
Q 3622 3509 3622 2328 
Q 3622 1225 3098 567 
Q 2575 -91 1691 -91 
Q 1453 -91 1209 -44 
Q 966 3 703 97 
z
M 1959 2075 
Q 2384 2075 2632 2365 
Q 2881 2656 2881 3163 
Q 2881 3666 2632 3958 
Q 2384 4250 1959 4250 
Q 1534 4250 1286 3958 
Q 1038 3666 1038 3163 
Q 1038 2656 1286 2365 
Q 1534 2075 1959 2075 
z
" transform="scale(0.015625)"/>
       </defs>
       <use xlink:href="#DejaVuSans-39"/>
      </g>
     </g>
    </g>
    <g id="text_11">
     <!-- iteration -->
     <g transform="translate(716.877344 669.076563) scale(0.1 -0.1)">
      <defs>
       <path id="DejaVuSans-69" d="M 603 3500 
L 1178 3500 
L 1178 0 
L 603 0 
L 603 3500 
z
M 603 4863 
L 1178 4863 
L 1178 4134 
L 603 4134 
L 603 4863 
z
" transform="scale(0.015625)"/>
       <path id="DejaVuSans-74" d="M 1172 4494 
L 1172 3500 
L 2356 3500 
L 2356 3053 
L 1172 3053 
L 1172 1153 
Q 1172 725 1289 603 
Q 1406 481 1766 481 
L 2356 481 
L 2356 0 
L 1766 0 
Q 1100 0 847 248 
Q 594 497 594 1153 
L 594 3053 
L 172 3053 
L 172 3500 
L 594 3500 
L 594 4494 
L 1172 4494 
z
" transform="scale(0.015625)"/>
       <path id="DejaVuSans-65" d="M 3597 1894 
L 3597 1613 
L 953 1613 
Q 991 1019 1311 708 
Q 1631 397 2203 397 
Q 2534 397 2845 478 
Q 3156 559 3463 722 
L 3463 178 
Q 3153 47 2828 -22 
Q 2503 -91 2169 -91 
Q 1331 -91 842 396 
Q 353 884 353 1716 
Q 353 2575 817 3079 
Q 1281 3584 2069 3584 
Q 2775 3584 3186 3129 
Q 3597 2675 3597 1894 
z
M 3022 2063 
Q 3016 2534 2758 2815 
Q 2500 3097 2075 3097 
Q 1594 3097 1305 2825 
Q 1016 2553 972 2059 
L 3022 2063 
z
" transform="scale(0.015625)"/>
       <path id="DejaVuSans-72" d="M 2631 2963 
Q 2534 3019 2420 3045 
Q 2306 3072 2169 3072 
Q 1681 3072 1420 2755 
Q 1159 2438 1159 1844 
L 1159 0 
L 581 0 
L 581 3500 
L 1159 3500 
L 1159 2956 
Q 1341 3275 1631 3429 
Q 1922 3584 2338 3584 
Q 2397 3584 2469 3576 
Q 2541 3569 2628 3553 
L 2631 2963 
z
" transform="scale(0.015625)"/>
       <path id="DejaVuSans-61" d="M 2194 1759 
Q 1497 1759 1228 1600 
Q 959 1441 959 1056 
Q 959 750 1161 570 
Q 1363 391 1709 391 
Q 2188 391 2477 730 
Q 2766 1069 2766 1631 
L 2766 1759 
L 2194 1759 
z
M 3341 1997 
L 3341 0 
L 2766 0 
L 2766 531 
Q 2569 213 2275 61 
Q 1981 -91 1556 -91 
Q 1019 -91 701 211 
Q 384 513 384 1019 
Q 384 1609 779 1909 
Q 1175 2209 1959 2209 
L 2766 2209 
L 2766 2266 
Q 2766 2663 2505 2880 
Q 2244 3097 1772 3097 
Q 1472 3097 1187 3025 
Q 903 2953 641 2809 
L 641 3341 
Q 956 3463 1253 3523 
Q 1550 3584 1831 3584 
Q 2591 3584 2966 3190 
Q 3341 2797 3341 1997 
z
" transform="scale(0.015625)"/>
       <path id="DejaVuSans-6f" d="M 1959 3097 
Q 1497 3097 1228 2736 
Q 959 2375 959 1747 
Q 959 1119 1226 758 
Q 1494 397 1959 397 
Q 2419 397 2687 759 
Q 2956 1122 2956 1747 
Q 2956 2369 2687 2733 
Q 2419 3097 1959 3097 
z
M 1959 3584 
Q 2709 3584 3137 3096 
Q 3566 2609 3566 1747 
Q 3566 888 3137 398 
Q 2709 -91 1959 -91 
Q 1206 -91 779 398 
Q 353 888 353 1747 
Q 353 2609 779 3096 
Q 1206 3584 1959 3584 
z
" transform="scale(0.015625)"/>
       <path id="DejaVuSans-6e" d="M 3513 2113 
L 3513 0 
L 2938 0 
L 2938 2094 
Q 2938 2591 2744 2837 
Q 2550 3084 2163 3084 
Q 1697 3084 1428 2787 
Q 1159 2491 1159 1978 
L 1159 0 
L 581 0 
L 581 3500 
L 1159 3500 
L 1159 2956 
Q 1366 3272 1645 3428 
Q 1925 3584 2291 3584 
Q 2894 3584 3203 3211 
Q 3513 2838 3513 2113 
z
" transform="scale(0.015625)"/>
      </defs>
      <use xlink:href="#DejaVuSans-69"/>
      <use xlink:href="#DejaVuSans-74" x="27.783203"/>
      <use xlink:href="#DejaVuSans-65" x="66.992188"/>
      <use xlink:href="#DejaVuSans-72" x="128.515625"/>
      <use xlink:href="#DejaVuSans-61" x="169.628906"/>
      <use xlink:href="#DejaVuSans-74" x="230.908203"/>
      <use xlink:href="#DejaVuSans-69" x="270.117188"/>
      <use xlink:href="#DejaVuSans-6f" x="297.900391"/>
      <use xlink:href="#DejaVuSans-6e" x="359.082031"/>
     </g>
    </g>
   </g>
   <g id="matplotlib.axis_2">
    <g id="ytick_1">
     <g id="line2d_11">
      <defs>
       <path id="ma334342811" d="M 0 0 
L -3.5 0 
" style="stroke: #000000; stroke-width: 0.8"/>
      </defs>
      <g>
       <use xlink:href="#ma334342811" x="180" y="630.915863" style="stroke: #000000; stroke-width: 0.8"/>
      </g>
     </g>
     <g id="text_12">
      <!-- 0.2 -->
      <g transform="translate(148.717187 634.715082) scale(0.1 -0.1)">
       <defs>
        <path id="DejaVuSans-2212" d="M 678 2272 
L 4684 2272 
L 4684 1741 
L 678 1741 
L 678 2272 
z
" transform="scale(0.015625)"/>
        <path id="DejaVuSans-2e" d="M 684 794 
L 1344 794 
L 1344 0 
L 684 0 
L 684 794 
z
" transform="scale(0.015625)"/>
       </defs>
       <use xlink:href="#DejaVuSans-2212"/>
       <use xlink:href="#DejaVuSans-30" x="83.789062"/>
       <use xlink:href="#DejaVuSans-2e" x="147.412109"/>
       <use xlink:href="#DejaVuSans-32" x="179.199219"/>
      </g>
     </g>
    </g>
    <g id="ytick_2">
     <g id="line2d_12">
      <g>
       <use xlink:href="#ma334342811" x="180" y="551.884675" style="stroke: #000000; stroke-width: 0.8"/>
      </g>
     </g>
     <g id="text_13">
      <!-- 0.0 -->
      <g transform="translate(157.096875 555.683894) scale(0.1 -0.1)">
       <use xlink:href="#DejaVuSans-30"/>
       <use xlink:href="#DejaVuSans-2e" x="63.623047"/>
       <use xlink:href="#DejaVuSans-30" x="95.410156"/>
      </g>
     </g>
    </g>
    <g id="ytick_3">
     <g id="line2d_13">
      <g>
       <use xlink:href="#ma334342811" x="180" y="472.853487" style="stroke: #000000; stroke-width: 0.8"/>
      </g>
     </g>
     <g id="text_14">
      <!-- 0.2 -->
      <g transform="translate(157.096875 476.652706) scale(0.1 -0.1)">
       <use xlink:href="#DejaVuSans-30"/>
       <use xlink:href="#DejaVuSans-2e" x="63.623047"/>
       <use xlink:href="#DejaVuSans-32" x="95.410156"/>
      </g>
     </g>
    </g>
    <g id="ytick_4">
     <g id="line2d_14">
      <g>
       <use xlink:href="#ma334342811" x="180" y="393.8223" style="stroke: #000000; stroke-width: 0.8"/>
      </g>
     </g>
     <g id="text_15">
      <!-- 0.4 -->
      <g transform="translate(157.096875 397.621519) scale(0.1 -0.1)">
       <use xlink:href="#DejaVuSans-30"/>
       <use xlink:href="#DejaVuSans-2e" x="63.623047"/>
       <use xlink:href="#DejaVuSans-34" x="95.410156"/>
      </g>
     </g>
    </g>
    <g id="ytick_5">
     <g id="line2d_15">
      <g>
       <use xlink:href="#ma334342811" x="180" y="314.791112" style="stroke: #000000; stroke-width: 0.8"/>
      </g>
     </g>
     <g id="text_16">
      <!-- 0.6 -->
      <g transform="translate(157.096875 318.590331) scale(0.1 -0.1)">
       <use xlink:href="#DejaVuSans-30"/>
       <use xlink:href="#DejaVuSans-2e" x="63.623047"/>
       <use xlink:href="#DejaVuSans-36" x="95.410156"/>
      </g>
     </g>
    </g>
    <g id="ytick_6">
     <g id="line2d_16">
      <g>
       <use xlink:href="#ma334342811" x="180" y="235.759924" style="stroke: #000000; stroke-width: 0.8"/>
      </g>
     </g>
     <g id="text_17">
      <!-- 0.8 -->
      <g transform="translate(157.096875 239.559143) scale(0.1 -0.1)">
       <use xlink:href="#DejaVuSans-30"/>
       <use xlink:href="#DejaVuSans-2e" x="63.623047"/>
       <use xlink:href="#DejaVuSans-38" x="95.410156"/>
      </g>
     </g>
    </g>
    <g id="ytick_7">
     <g id="line2d_17">
      <g>
       <use xlink:href="#ma334342811" x="180" y="156.728737" style="stroke: #000000; stroke-width: 0.8"/>
      </g>
     </g>
     <g id="text_18">
      <!-- 1.0 -->
      <g transform="translate(157.096875 160.527956) scale(0.1 -0.1)">
       <use xlink:href="#DejaVuSans-31"/>
       <use xlink:href="#DejaVuSans-2e" x="63.623047"/>
       <use xlink:href="#DejaVuSans-30" x="95.410156"/>
      </g>
     </g>
    </g>
    <g id="text_19">
     <!-- cosine similarity -->
     <g transform="translate(142.6375 404.307031) rotate(-90) scale(0.1 -0.1)">
      <defs>
       <path id="DejaVuSans-63" d="M 3122 3366 
L 3122 2828 
Q 2878 2963 2633 3030 
Q 2388 3097 2138 3097 
Q 1578 3097 1268 2742 
Q 959 2388 959 1747 
Q 959 1106 1268 751 
Q 1578 397 2138 397 
Q 2388 397 2633 464 
Q 2878 531 3122 666 
L 3122 134 
Q 2881 22 2623 -34 
Q 2366 -91 2075 -91 
Q 1284 -91 818 406 
Q 353 903 353 1747 
Q 353 2603 823 3093 
Q 1294 3584 2113 3584 
Q 2378 3584 2631 3529 
Q 2884 3475 3122 3366 
z
" transform="scale(0.015625)"/>
       <path id="DejaVuSans-73" d="M 2834 3397 
L 2834 2853 
Q 2591 2978 2328 3040 
Q 2066 3103 1784 3103 
Q 1356 3103 1142 2972 
Q 928 2841 928 2578 
Q 928 2378 1081 2264 
Q 1234 2150 1697 2047 
L 1894 2003 
Q 2506 1872 2764 1633 
Q 3022 1394 3022 966 
Q 3022 478 2636 193 
Q 2250 -91 1575 -91 
Q 1294 -91 989 -36 
Q 684 19 347 128 
L 347 722 
Q 666 556 975 473 
Q 1284 391 1588 391 
Q 1994 391 2212 530 
Q 2431 669 2431 922 
Q 2431 1156 2273 1281 
Q 2116 1406 1581 1522 
L 1381 1569 
Q 847 1681 609 1914 
Q 372 2147 372 2553 
Q 372 3047 722 3315 
Q 1072 3584 1716 3584 
Q 2034 3584 2315 3537 
Q 2597 3491 2834 3397 
z
" transform="scale(0.015625)"/>
       <path id="DejaVuSans-20" transform="scale(0.015625)"/>
       <path id="DejaVuSans-6d" d="M 3328 2828 
Q 3544 3216 3844 3400 
Q 4144 3584 4550 3584 
Q 5097 3584 5394 3201 
Q 5691 2819 5691 2113 
L 5691 0 
L 5113 0 
L 5113 2094 
Q 5113 2597 4934 2840 
Q 4756 3084 4391 3084 
Q 3944 3084 3684 2787 
Q 3425 2491 3425 1978 
L 3425 0 
L 2847 0 
L 2847 2094 
Q 2847 2600 2669 2842 
Q 2491 3084 2119 3084 
Q 1678 3084 1418 2786 
Q 1159 2488 1159 1978 
L 1159 0 
L 581 0 
L 581 3500 
L 1159 3500 
L 1159 2956 
Q 1356 3278 1631 3431 
Q 1906 3584 2284 3584 
Q 2666 3584 2933 3390 
Q 3200 3197 3328 2828 
z
" transform="scale(0.015625)"/>
       <path id="DejaVuSans-6c" d="M 603 4863 
L 1178 4863 
L 1178 0 
L 603 0 
L 603 4863 
z
" transform="scale(0.015625)"/>
       <path id="DejaVuSans-79" d="M 2059 -325 
Q 1816 -950 1584 -1140 
Q 1353 -1331 966 -1331 
L 506 -1331 
L 506 -850 
L 844 -850 
Q 1081 -850 1212 -737 
Q 1344 -625 1503 -206 
L 1606 56 
L 191 3500 
L 800 3500 
L 1894 763 
L 2988 3500 
L 3597 3500 
L 2059 -325 
z
" transform="scale(0.015625)"/>
      </defs>
      <use xlink:href="#DejaVuSans-63"/>
      <use xlink:href="#DejaVuSans-6f" x="54.980469"/>
      <use xlink:href="#DejaVuSans-73" x="116.162109"/>
      <use xlink:href="#DejaVuSans-69" x="168.261719"/>
      <use xlink:href="#DejaVuSans-6e" x="196.044922"/>
      <use xlink:href="#DejaVuSans-65" x="259.423828"/>
      <use xlink:href="#DejaVuSans-20" x="320.947266"/>
      <use xlink:href="#DejaVuSans-73" x="352.734375"/>
      <use xlink:href="#DejaVuSans-69" x="404.833984"/>
      <use xlink:href="#DejaVuSans-6d" x="432.617188"/>
      <use xlink:href="#DejaVuSans-69" x="530.029297"/>
      <use xlink:href="#DejaVuSans-6c" x="557.8125"/>
      <use xlink:href="#DejaVuSans-61" x="585.595703"/>
      <use xlink:href="#DejaVuSans-72" x="646.875"/>
      <use xlink:href="#DejaVuSans-69" x="687.988281"/>
      <use xlink:href="#DejaVuSans-74" x="715.771484"/>
      <use xlink:href="#DejaVuSans-79" x="754.980469"/>
     </g>
    </g>
   </g>
   <g id="line2d_18">
    <path d="M 235.8 555.388138 
L 235.8 206.844402 
" clip-path="url(#p2e6ac978bb)" style="fill: none; stroke: #3f3f3f; stroke-width: 1.875; stroke-linecap: square"/>
   </g>
   <g id="line2d_19">
    <path d="M 235.8 418.618611 
L 235.8 319.053183 
" clip-path="url(#p2e6ac978bb)" style="fill: none; stroke: #3f3f3f; stroke-width: 5.625; stroke-linecap: square"/>
   </g>
   <g id="line2d_20">
    <path d="M 235.8 366.927556 
" clip-path="url(#p2e6ac978bb)" style="fill: none; stroke: #3f3f3f; stroke-width: 1.5; stroke-linecap: square"/>
    <defs>
     <path id="m74181b858f" d="M 2.34375 0 
L -2.34375 -0 
" style="stroke: #ffffff; stroke-width: 1.125"/>
    </defs>
    <g clip-path="url(#p2e6ac978bb)">
     <use xlink:href="#m74181b858f" x="235.8" y="366.927556" style="fill: #ffffff; stroke: #ffffff; stroke-width: 1.125"/>
    </g>
   </g>
   <g id="line2d_21">
    <path d="M 347.4 518.401929 
L 347.4 199.527175 
" clip-path="url(#p2e6ac978bb)" style="fill: none; stroke: #3f3f3f; stroke-width: 1.875; stroke-linecap: square"/>
   </g>
   <g id="line2d_22">
    <path d="M 347.4 398.821746 
L 347.4 301.43553 
" clip-path="url(#p2e6ac978bb)" style="fill: none; stroke: #3f3f3f; stroke-width: 5.625; stroke-linecap: square"/>
   </g>
   <g id="line2d_23">
    <path d="M 347.4 347.515915 
" clip-path="url(#p2e6ac978bb)" style="fill: none; stroke: #3f3f3f; stroke-width: 1.5; stroke-linecap: square"/>
    <g clip-path="url(#p2e6ac978bb)">
     <use xlink:href="#m74181b858f" x="347.4" y="347.515915" style="fill: #ffffff; stroke: #ffffff; stroke-width: 1.125"/>
    </g>
   </g>
   <g id="line2d_24">
    <path d="M 459 432.657015 
L 459 167.093951 
" clip-path="url(#p2e6ac978bb)" style="fill: none; stroke: #3f3f3f; stroke-width: 1.875; stroke-linecap: square"/>
   </g>
   <g id="line2d_25">
    <path d="M 459 342.39076 
L 459 271.804787 
" clip-path="url(#p2e6ac978bb)" style="fill: none; stroke: #3f3f3f; stroke-width: 5.625; stroke-linecap: square"/>
   </g>
   <g id="line2d_26">
    <path d="M 459 319.008079 
" clip-path="url(#p2e6ac978bb)" style="fill: none; stroke: #3f3f3f; stroke-width: 1.5; stroke-linecap: square"/>
    <g clip-path="url(#p2e6ac978bb)">
     <use xlink:href="#m74181b858f" x="459" y="319.008079" style="fill: #ffffff; stroke: #ffffff; stroke-width: 1.125"/>
    </g>
   </g>
   <g id="line2d_27">
    <path d="M 570.6 436.921097 
L 570.6 205.289919 
" clip-path="url(#p2e6ac978bb)" style="fill: none; stroke: #3f3f3f; stroke-width: 1.875; stroke-linecap: square"/>
   </g>
   <g id="line2d_28">
    <path d="M 570.6 377.008499 
L 570.6 297.512409 
" clip-path="url(#p2e6ac978bb)" style="fill: none; stroke: #3f3f3f; stroke-width: 5.625; stroke-linecap: square"/>
   </g>
   <g id="line2d_29">
    <path d="M 570.6 339.910421 
" clip-path="url(#p2e6ac978bb)" style="fill: none; stroke: #3f3f3f; stroke-width: 1.5; stroke-linecap: square"/>
    <g clip-path="url(#p2e6ac978bb)">
     <use xlink:href="#m74181b858f" x="570.6" y="339.910421" style="fill: #ffffff; stroke: #ffffff; stroke-width: 1.125"/>
    </g>
   </g>
   <g id="line2d_30">
    <path d="M 682.2 412.717383 
L 682.2 248.626146 
" clip-path="url(#p2e6ac978bb)" style="fill: none; stroke: #3f3f3f; stroke-width: 1.875; stroke-linecap: square"/>
   </g>
   <g id="line2d_31">
    <path d="M 682.2 367.415359 
L 682.2 314.907702 
" clip-path="url(#p2e6ac978bb)" style="fill: none; stroke: #3f3f3f; stroke-width: 5.625; stroke-linecap: square"/>
   </g>
   <g id="line2d_32">
    <path d="M 682.2 342.280019 
" clip-path="url(#p2e6ac978bb)" style="fill: none; stroke: #3f3f3f; stroke-width: 1.5; stroke-linecap: square"/>
    <g clip-path="url(#p2e6ac978bb)">
     <use xlink:href="#m74181b858f" x="682.2" y="342.280019" style="fill: #ffffff; stroke: #ffffff; stroke-width: 1.125"/>
    </g>
   </g>
   <g id="line2d_33">
    <path d="M 793.8 460.269344 
L 793.8 260.17295 
" clip-path="url(#p2e6ac978bb)" style="fill: none; stroke: #3f3f3f; stroke-width: 1.875; stroke-linecap: square"/>
   </g>
   <g id="line2d_34">
    <path d="M 793.8 406.20383 
L 793.8 325.895655 
" clip-path="url(#p2e6ac978bb)" style="fill: none; stroke: #3f3f3f; stroke-width: 5.625; stroke-linecap: square"/>
   </g>
   <g id="line2d_35">
    <path d="M 793.8 363.32176 
" clip-path="url(#p2e6ac978bb)" style="fill: none; stroke: #3f3f3f; stroke-width: 1.5; stroke-linecap: square"/>
    <g clip-path="url(#p2e6ac978bb)">
     <use xlink:href="#m74181b858f" x="793.8" y="363.32176" style="fill: #ffffff; stroke: #ffffff; stroke-width: 1.125"/>
    </g>
   </g>
   <g id="line2d_36">
    <path d="M 905.4 498.795674 
L 905.4 249.877689 
" clip-path="url(#p2e6ac978bb)" style="fill: none; stroke: #3f3f3f; stroke-width: 1.875; stroke-linecap: square"/>
   </g>
   <g id="line2d_37">
    <path d="M 905.4 402.956596 
L 905.4 305.732534 
" clip-path="url(#p2e6ac978bb)" style="fill: none; stroke: #3f3f3f; stroke-width: 5.625; stroke-linecap: square"/>
   </g>
   <g id="line2d_38">
    <path d="M 905.4 371.084801 
" clip-path="url(#p2e6ac978bb)" style="fill: none; stroke: #3f3f3f; stroke-width: 1.5; stroke-linecap: square"/>
    <g clip-path="url(#p2e6ac978bb)">
     <use xlink:href="#m74181b858f" x="905.4" y="371.084801" style="fill: #ffffff; stroke: #ffffff; stroke-width: 1.125"/>
    </g>
   </g>
   <g id="line2d_39">
    <path d="M 1017 479.329637 
L 1017 258.269222 
" clip-path="url(#p2e6ac978bb)" style="fill: none; stroke: #3f3f3f; stroke-width: 1.875; stroke-linecap: square"/>
   </g>
   <g id="line2d_40">
    <path d="M 1017 391.573032 
L 1017 329.83703 
" clip-path="url(#p2e6ac978bb)" style="fill: none; stroke: #3f3f3f; stroke-width: 5.625; stroke-linecap: square"/>
   </g>
   <g id="line2d_41">
    <path d="M 1017 370.060452 
" clip-path="url(#p2e6ac978bb)" style="fill: none; stroke: #3f3f3f; stroke-width: 1.5; stroke-linecap: square"/>
    <g clip-path="url(#p2e6ac978bb)">
     <use xlink:href="#m74181b858f" x="1017" y="370.060452" style="fill: #ffffff; stroke: #ffffff; stroke-width: 1.125"/>
    </g>
   </g>
   <g id="line2d_42">
    <path d="M 1128.6 441.097467 
L 1128.6 190.221334 
" clip-path="url(#p2e6ac978bb)" style="fill: none; stroke: #3f3f3f; stroke-width: 1.875; stroke-linecap: square"/>
   </g>
   <g id="line2d_43">
    <path d="M 1128.6 357.195951 
L 1128.6 281.372362 
" clip-path="url(#p2e6ac978bb)" style="fill: none; stroke: #3f3f3f; stroke-width: 5.625; stroke-linecap: square"/>
   </g>
   <g id="line2d_44">
    <path d="M 1128.6 319.810875 
" clip-path="url(#p2e6ac978bb)" style="fill: none; stroke: #3f3f3f; stroke-width: 1.5; stroke-linecap: square"/>
    <g clip-path="url(#p2e6ac978bb)">
     <use xlink:href="#m74181b858f" x="1128.6" y="319.810875" style="fill: #ffffff; stroke: #ffffff; stroke-width: 1.125"/>
    </g>
   </g>
   <g id="line2d_45">
    <path d="M 1240.2 392.83866 
L 1240.2 227.680984 
" clip-path="url(#p2e6ac978bb)" style="fill: none; stroke: #3f3f3f; stroke-width: 1.875; stroke-linecap: square"/>
   </g>
   <g id="line2d_46">
    <path d="M 1240.2 346.951947 
L 1240.2 294.176544 
" clip-path="url(#p2e6ac978bb)" style="fill: none; stroke: #3f3f3f; stroke-width: 5.625; stroke-linecap: square"/>
   </g>
   <g id="line2d_47">
    <path d="M 1240.2 307.767206 
" clip-path="url(#p2e6ac978bb)" style="fill: none; stroke: #3f3f3f; stroke-width: 1.5; stroke-linecap: square"/>
    <g clip-path="url(#p2e6ac978bb)">
     <use xlink:href="#m74181b858f" x="1240.2" y="307.767206" style="fill: #ffffff; stroke: #ffffff; stroke-width: 1.125"/>
    </g>
   </g>
   <g id="patch_3">
    <path d="M 180 640.8 
L 180 86.4 
" style="fill: none; stroke: #000000; stroke-width: 0.8; stroke-linejoin: miter; stroke-linecap: square"/>
   </g>
   <g id="patch_4">
    <path d="M 1296 640.8 
L 1296 86.4 
" style="fill: none; stroke: #000000; stroke-width: 0.8; stroke-linejoin: miter; stroke-linecap: square"/>
   </g>
   <g id="patch_5">
    <path d="M 180 640.8 
L 1296 640.8 
" style="fill: none; stroke: #000000; stroke-width: 0.8; stroke-linejoin: miter; stroke-linecap: square"/>
   </g>
   <g id="patch_6">
    <path d="M 180 86.4 
L 1296 86.4 
" style="fill: none; stroke: #000000; stroke-width: 0.8; stroke-linejoin: miter; stroke-linecap: square"/>
   </g>
   <g id="text_20">
    <!-- cosine similarity of max (progressive), by iteration -->
    <g transform="translate(586.659375 80.4) scale(0.12 -0.12)">
     <defs>
      <path id="DejaVuSans-66" d="M 2375 4863 
L 2375 4384 
L 1825 4384 
Q 1516 4384 1395 4259 
Q 1275 4134 1275 3809 
L 1275 3500 
L 2222 3500 
L 2222 3053 
L 1275 3053 
L 1275 0 
L 697 0 
L 697 3053 
L 147 3053 
L 147 3500 
L 697 3500 
L 697 3744 
Q 697 4328 969 4595 
Q 1241 4863 1831 4863 
L 2375 4863 
z
" transform="scale(0.015625)"/>
      <path id="DejaVuSans-78" d="M 3513 3500 
L 2247 1797 
L 3578 0 
L 2900 0 
L 1881 1375 
L 863 0 
L 184 0 
L 1544 1831 
L 300 3500 
L 978 3500 
L 1906 2253 
L 2834 3500 
L 3513 3500 
z
" transform="scale(0.015625)"/>
      <path id="DejaVuSans-28" d="M 1984 4856 
Q 1566 4138 1362 3434 
Q 1159 2731 1159 2009 
Q 1159 1288 1364 580 
Q 1569 -128 1984 -844 
L 1484 -844 
Q 1016 -109 783 600 
Q 550 1309 550 2009 
Q 550 2706 781 3412 
Q 1013 4119 1484 4856 
L 1984 4856 
z
" transform="scale(0.015625)"/>
      <path id="DejaVuSans-70" d="M 1159 525 
L 1159 -1331 
L 581 -1331 
L 581 3500 
L 1159 3500 
L 1159 2969 
Q 1341 3281 1617 3432 
Q 1894 3584 2278 3584 
Q 2916 3584 3314 3078 
Q 3713 2572 3713 1747 
Q 3713 922 3314 415 
Q 2916 -91 2278 -91 
Q 1894 -91 1617 61 
Q 1341 213 1159 525 
z
M 3116 1747 
Q 3116 2381 2855 2742 
Q 2594 3103 2138 3103 
Q 1681 3103 1420 2742 
Q 1159 2381 1159 1747 
Q 1159 1113 1420 752 
Q 1681 391 2138 391 
Q 2594 391 2855 752 
Q 3116 1113 3116 1747 
z
" transform="scale(0.015625)"/>
      <path id="DejaVuSans-67" d="M 2906 1791 
Q 2906 2416 2648 2759 
Q 2391 3103 1925 3103 
Q 1463 3103 1205 2759 
Q 947 2416 947 1791 
Q 947 1169 1205 825 
Q 1463 481 1925 481 
Q 2391 481 2648 825 
Q 2906 1169 2906 1791 
z
M 3481 434 
Q 3481 -459 3084 -895 
Q 2688 -1331 1869 -1331 
Q 1566 -1331 1297 -1286 
Q 1028 -1241 775 -1147 
L 775 -588 
Q 1028 -725 1275 -790 
Q 1522 -856 1778 -856 
Q 2344 -856 2625 -561 
Q 2906 -266 2906 331 
L 2906 616 
Q 2728 306 2450 153 
Q 2172 0 1784 0 
Q 1141 0 747 490 
Q 353 981 353 1791 
Q 353 2603 747 3093 
Q 1141 3584 1784 3584 
Q 2172 3584 2450 3431 
Q 2728 3278 2906 2969 
L 2906 3500 
L 3481 3500 
L 3481 434 
z
" transform="scale(0.015625)"/>
      <path id="DejaVuSans-76" d="M 191 3500 
L 800 3500 
L 1894 563 
L 2988 3500 
L 3597 3500 
L 2284 0 
L 1503 0 
L 191 3500 
z
" transform="scale(0.015625)"/>
      <path id="DejaVuSans-29" d="M 513 4856 
L 1013 4856 
Q 1481 4119 1714 3412 
Q 1947 2706 1947 2009 
Q 1947 1309 1714 600 
Q 1481 -109 1013 -844 
L 513 -844 
Q 928 -128 1133 580 
Q 1338 1288 1338 2009 
Q 1338 2731 1133 3434 
Q 928 4138 513 4856 
z
" transform="scale(0.015625)"/>
      <path id="DejaVuSans-2c" d="M 750 794 
L 1409 794 
L 1409 256 
L 897 -744 
L 494 -744 
L 750 256 
L 750 794 
z
" transform="scale(0.015625)"/>
      <path id="DejaVuSans-62" d="M 3116 1747 
Q 3116 2381 2855 2742 
Q 2594 3103 2138 3103 
Q 1681 3103 1420 2742 
Q 1159 2381 1159 1747 
Q 1159 1113 1420 752 
Q 1681 391 2138 391 
Q 2594 391 2855 752 
Q 3116 1113 3116 1747 
z
M 1159 2969 
Q 1341 3281 1617 3432 
Q 1894 3584 2278 3584 
Q 2916 3584 3314 3078 
Q 3713 2572 3713 1747 
Q 3713 922 3314 415 
Q 2916 -91 2278 -91 
Q 1894 -91 1617 61 
Q 1341 213 1159 525 
L 1159 0 
L 581 0 
L 581 4863 
L 1159 4863 
L 1159 2969 
z
" transform="scale(0.015625)"/>
     </defs>
     <use xlink:href="#DejaVuSans-63"/>
     <use xlink:href="#DejaVuSans-6f" x="54.980469"/>
     <use xlink:href="#DejaVuSans-73" x="116.162109"/>
     <use xlink:href="#DejaVuSans-69" x="168.261719"/>
     <use xlink:href="#DejaVuSans-6e" x="196.044922"/>
     <use xlink:href="#DejaVuSans-65" x="259.423828"/>
     <use xlink:href="#DejaVuSans-20" x="320.947266"/>
     <use xlink:href="#DejaVuSans-73" x="352.734375"/>
     <use xlink:href="#DejaVuSans-69" x="404.833984"/>
     <use xlink:href="#DejaVuSans-6d" x="432.617188"/>
     <use xlink:href="#DejaVuSans-69" x="530.029297"/>
     <use xlink:href="#DejaVuSans-6c" x="557.8125"/>
     <use xlink:href="#DejaVuSans-61" x="585.595703"/>
     <use xlink:href="#DejaVuSans-72" x="646.875"/>
     <use xlink:href="#DejaVuSans-69" x="687.988281"/>
     <use xlink:href="#DejaVuSans-74" x="715.771484"/>
     <use xlink:href="#DejaVuSans-79" x="754.980469"/>
     <use xlink:href="#DejaVuSans-20" x="814.160156"/>
     <use xlink:href="#DejaVuSans-6f" x="845.947266"/>
     <use xlink:href="#DejaVuSans-66" x="907.128906"/>
     <use xlink:href="#DejaVuSans-20" x="942.333984"/>
     <use xlink:href="#DejaVuSans-6d" x="974.121094"/>
     <use xlink:href="#DejaVuSans-61" x="1071.533203"/>
     <use xlink:href="#DejaVuSans-78" x="1132.8125"/>
     <use xlink:href="#DejaVuSans-20" x="1191.992188"/>
     <use xlink:href="#DejaVuSans-28" x="1223.779297"/>
     <use xlink:href="#DejaVuSans-70" x="1262.792969"/>
     <use xlink:href="#DejaVuSans-72" x="1326.269531"/>
     <use xlink:href="#DejaVuSans-6f" x="1365.132812"/>
     <use xlink:href="#DejaVuSans-67" x="1426.314453"/>
     <use xlink:href="#DejaVuSans-72" x="1489.791016"/>
     <use xlink:href="#DejaVuSans-65" x="1528.654297"/>
     <use xlink:href="#DejaVuSans-73" x="1590.177734"/>
     <use xlink:href="#DejaVuSans-73" x="1642.277344"/>
     <use xlink:href="#DejaVuSans-69" x="1694.376953"/>
     <use xlink:href="#DejaVuSans-76" x="1722.160156"/>
     <use xlink:href="#DejaVuSans-65" x="1781.339844"/>
     <use xlink:href="#DejaVuSans-29" x="1842.863281"/>
     <use xlink:href="#DejaVuSans-2c" x="1881.876953"/>
     <use xlink:href="#DejaVuSans-20" x="1913.664062"/>
     <use xlink:href="#DejaVuSans-62" x="1945.451172"/>
     <use xlink:href="#DejaVuSans-79" x="2008.927734"/>
     <use xlink:href="#DejaVuSans-20" x="2068.107422"/>
     <use xlink:href="#DejaVuSans-69" x="2099.894531"/>
     <use xlink:href="#DejaVuSans-74" x="2127.677734"/>
     <use xlink:href="#DejaVuSans-65" x="2166.886719"/>
     <use xlink:href="#DejaVuSans-72" x="2228.410156"/>
     <use xlink:href="#DejaVuSans-61" x="2269.523438"/>
     <use xlink:href="#DejaVuSans-74" x="2330.802734"/>
     <use xlink:href="#DejaVuSans-69" x="2370.011719"/>
     <use xlink:href="#DejaVuSans-6f" x="2397.794922"/>
     <use xlink:href="#DejaVuSans-6e" x="2458.976562"/>
    </g>
   </g>
  </g>
 </g>
 <defs>
  <clipPath id="p2e6ac978bb">
   <rect x="180" y="86.4" width="1116" height="554.4"/>
  </clipPath>
 </defs>
</svg>
