<?xml version="1.0" encoding="utf-8" standalone="no"?>
<!DOCTYPE svg PUBLIC "-//W3C//DTD SVG 1.1//EN"
  "http://www.w3.org/Graphics/SVG/1.1/DTD/svg11.dtd">
<svg xmlns:xlink="http://www.w3.org/1999/xlink" width="1440pt" height="720pt" viewBox="0 0 1440 720" xmlns="http://www.w3.org/2000/svg" version="1.1">
 <metadata>
  <rdf:RDF xmlns:dc="http://purl.org/dc/elements/1.1/" xmlns:cc="http://creativecommons.org/ns#" xmlns:rdf="http://www.w3.org/1999/02/22-rdf-syntax-ns#">
   <cc:Work>
    <dc:type rdf:resource="http://purl.org/dc/dcmitype/StillImage"/>
    <dc:date>2024-07-06T17:11:16.286123</dc:date>
    <dc:format>image/svg+xml</dc:format>
    <dc:creator>
     <cc:Agent>
      <dc:title>Matplotlib v3.8.0, https://matplotlib.org/</dc:title>
     </cc:Agent>
    </dc:creator>
   </cc:Work>
  </rdf:RDF>
 </metadata>
 <defs>
  <style type="text/css">*{stroke-linejoin: round; stroke-linecap: butt}</style>
 </defs>
 <g id="figure_1">
  <g id="patch_1">
   <path d="M 0 720 
L 1440 720 
L 1440 0 
L 0 0 
z
" style="fill: #ffffff"/>
  </g>
  <g id="axes_1">
   <g id="patch_2">
    <path d="M 180 640.8 
L 1296 640.8 
L 1296 86.4 
L 180 86.4 
z
" style="fill: #ffffff"/>
   </g>
   <g id="PolyCollection_1">
    <defs>
     <path id="m5633e20b74" d="M 235.969307 -126.029746 
L 235.630693 -126.029746 
L 235.560942 -130.123587 
L 235.468778 -134.217428 
L 235.349426 -138.311269 
L 235.197866 -142.40511 
L 235.009022 -146.498951 
L 234.778008 -150.592792 
L 234.50039 -154.686633 
L 234.172471 -158.780474 
L 233.791572 -162.874314 
L 233.356322 -166.968155 
L 232.866915 -171.061996 
L 232.325347 -175.155837 
L 231.735597 -179.249678 
L 231.103735 -183.343519 
L 230.437914 -187.43736 
L 229.748203 -191.531201 
L 229.046233 -195.625042 
L 228.344621 -199.718883 
L 227.656171 -203.812723 
L 226.992893 -207.906564 
L 226.364914 -212.000405 
L 225.779394 -216.094246 
L 225.239589 -220.188087 
L 224.744211 -224.281928 
L 224.287186 -228.375769 
L 223.857899 -232.46961 
L 223.441901 -236.563451 
L 223.022006 -240.657292 
L 222.579631 -244.751133 
L 222.096197 -248.844973 
L 221.554414 -252.938814 
L 220.939317 -257.032655 
L 220.238993 -261.126496 
L 219.445004 -265.220337 
L 218.552611 -269.314178 
L 217.560904 -273.408019 
L 216.472955 -277.50186 
L 215.296072 -281.595701 
L 214.042134 -285.689542 
L 212.727929 -289.783382 
L 211.375362 -293.877223 
L 210.011369 -297.971064 
L 208.667407 -302.064905 
L 207.378442 -306.158746 
L 206.181451 -310.252587 
L 205.113505 -314.346428 
L 204.209605 -318.440269 
L 203.500422 -322.53411 
L 203.010134 -326.627951 
L 202.754516 -330.721791 
L 202.739435 -334.815632 
L 202.959853 -338.909473 
L 203.39947 -343.003314 
L 204.031091 -347.097155 
L 204.817819 -351.190996 
L 205.715117 -355.284837 
L 206.673704 -359.378678 
L 207.643179 -363.472519 
L 208.5761 -367.56636 
L 209.432168 -371.6602 
L 210.18204 -375.754041 
L 210.810303 -379.847882 
L 211.317167 -383.941723 
L 211.718564 -388.035564 
L 212.044567 -392.129405 
L 212.33621 -396.223246 
L 212.641078 -400.317087 
L 213.008165 -404.410928 
L 213.482612 -408.504769 
L 214.100969 -412.598609 
L 214.887502 -416.69245 
L 215.851952 -420.786291 
L 216.988921 -424.880132 
L 218.278868 -428.973973 
L 219.690497 -433.067814 
L 221.184143 -437.161655 
L 222.715733 -441.255496 
L 224.240809 -445.349337 
L 225.718181 -449.443178 
L 227.112864 -453.537019 
L 228.398055 -457.630859 
L 229.556076 -461.7247 
L 230.578304 -465.818541 
L 231.464267 -469.912382 
L 232.220119 -474.006223 
L 232.856783 -478.100064 
L 233.388027 -482.193905 
L 233.828703 -486.287746 
L 234.193324 -490.381587 
L 234.49507 -494.475428 
L 234.745223 -498.569268 
L 234.952998 -502.663109 
L 235.125667 -506.75695 
L 235.268867 -510.850791 
L 235.386985 -514.944632 
L 235.483538 -519.038473 
L 235.561479 -523.132314 
L 235.623421 -527.226155 
L 235.671762 -531.319996 
L 235.928238 -531.319996 
L 235.928238 -531.319996 
L 235.976579 -527.226155 
L 236.038521 -523.132314 
L 236.116462 -519.038473 
L 236.213015 -514.944632 
L 236.331133 -510.850791 
L 236.474333 -506.75695 
L 236.647002 -502.663109 
L 236.854777 -498.569268 
L 237.10493 -494.475428 
L 237.406676 -490.381587 
L 237.771297 -486.287746 
L 238.211973 -482.193905 
L 238.743217 -478.100064 
L 239.379881 -474.006223 
L 240.135733 -469.912382 
L 241.021696 -465.818541 
L 242.043924 -461.7247 
L 243.201945 -457.630859 
L 244.487136 -453.537019 
L 245.881819 -449.443178 
L 247.359191 -445.349337 
L 248.884267 -441.255496 
L 250.415857 -437.161655 
L 251.909503 -433.067814 
L 253.321132 -428.973973 
L 254.611079 -424.880132 
L 255.748048 -420.786291 
L 256.712498 -416.69245 
L 257.499031 -412.598609 
L 258.117388 -408.504769 
L 258.591835 -404.410928 
L 258.958922 -400.317087 
L 259.26379 -396.223246 
L 259.555433 -392.129405 
L 259.881436 -388.035564 
L 260.282833 -383.941723 
L 260.789697 -379.847882 
L 261.41796 -375.754041 
L 262.167832 -371.6602 
L 263.0239 -367.56636 
L 263.956821 -363.472519 
L 264.926296 -359.378678 
L 265.884883 -355.284837 
L 266.782181 -351.190996 
L 267.568909 -347.097155 
L 268.20053 -343.003314 
L 268.640147 -338.909473 
L 268.860565 -334.815632 
L 268.845484 -330.721791 
L 268.589866 -326.627951 
L 268.099578 -322.53411 
L 267.390395 -318.440269 
L 266.486495 -314.346428 
L 265.418549 -310.252587 
L 264.221558 -306.158746 
L 262.932593 -302.064905 
L 261.588631 -297.971064 
L 260.224638 -293.877223 
L 258.872071 -289.783382 
L 257.557866 -285.689542 
L 256.303928 -281.595701 
L 255.127045 -277.50186 
L 254.039096 -273.408019 
L 253.047389 -269.314178 
L 252.154996 -265.220337 
L 251.361007 -261.126496 
L 250.660683 -257.032655 
L 250.045586 -252.938814 
L 249.503803 -248.844973 
L 249.020369 -244.751133 
L 248.577994 -240.657292 
L 248.158099 -236.563451 
L 247.742101 -232.46961 
L 247.312814 -228.375769 
L 246.855789 -224.281928 
L 246.360411 -220.188087 
L 245.820606 -216.094246 
L 245.235086 -212.000405 
L 244.607107 -207.906564 
L 243.943829 -203.812723 
L 243.255379 -199.718883 
L 242.553767 -195.625042 
L 241.851797 -191.531201 
L 241.162086 -187.43736 
L 240.496265 -183.343519 
L 239.864403 -179.249678 
L 239.274653 -175.155837 
L 238.733085 -171.061996 
L 238.243678 -166.968155 
L 237.808428 -162.874314 
L 237.427529 -158.780474 
L 237.09961 -154.686633 
L 236.821992 -150.592792 
L 236.590978 -146.498951 
L 236.402134 -142.40511 
L 236.250574 -138.311269 
L 236.131222 -134.217428 
L 236.039058 -130.123587 
L 235.969307 -126.029746 
z
" style="stroke: #3f3f3f; stroke-width: 1.25"/>
    </defs>
    <g clip-path="url(#p10f437c5ed)">
     <use xlink:href="#m5633e20b74" x="0" y="720" style="fill: #3274a1; stroke: #3f3f3f; stroke-width: 1.25"/>
    </g>
   </g>
   <g id="PolyCollection_2">
    <defs>
     <path id="m84bf03c28a" d="M 347.859955 -175.098643 
L 346.940045 -175.098643 
L 346.789952 -178.574914 
L 346.601063 -182.051185 
L 346.366699 -185.527456 
L 346.079986 -189.003727 
L 345.734117 -192.479999 
L 345.322661 -195.95627 
L 344.839901 -199.432541 
L 344.281194 -202.908812 
L 343.64331 -206.385084 
L 342.924737 -209.861355 
L 342.125923 -213.337626 
L 341.249424 -216.813897 
L 340.299954 -220.290168 
L 339.284315 -223.76644 
L 338.211221 -227.242711 
L 337.091019 -230.718982 
L 335.935342 -234.195253 
L 334.756715 -237.671524 
L 333.568148 -241.147796 
L 332.382768 -244.624067 
L 331.213488 -248.100338 
L 330.072769 -251.576609 
L 328.972455 -255.05288 
L 327.923686 -258.529152 
L 326.936875 -262.005423 
L 326.02171 -265.481694 
L 325.187149 -268.957965 
L 324.441378 -272.434236 
L 323.791683 -275.910508 
L 323.244241 -279.386779 
L 322.803805 -282.86305 
L 322.473299 -286.339321 
L 322.25337 -289.815592 
L 322.141916 -293.291864 
L 322.13368 -296.768135 
L 322.219943 -300.244406 
L 322.388406 -303.720677 
L 322.62329 -307.196948 
L 322.905706 -310.67322 
L 323.214299 -314.149491 
L 323.526164 -317.625762 
L 323.817977 -321.102033 
L 324.0673 -324.578304 
L 324.253939 -328.054576 
L 324.361274 -331.530847 
L 324.377438 -335.007118 
L 324.29623 -338.483389 
L 324.117671 -341.95966 
L 323.848129 -345.435932 
L 323.499988 -348.912203 
L 323.090852 -352.388474 
L 322.642351 -355.864745 
L 322.178636 -359.341016 
L 321.724697 -362.817288 
L 321.304644 -366.293559 
L 320.940117 -369.76983 
L 320.648964 -373.246101 
L 320.444292 -376.722372 
L 320.333984 -380.198644 
L 320.320685 -383.674915 
L 320.402244 -387.151186 
L 320.572531 -390.627457 
L 320.822532 -394.103728 
L 321.141576 -397.58 
L 321.518586 -401.056271 
L 321.943208 -404.532542 
L 322.406736 -408.008813 
L 322.902762 -411.485084 
L 323.427515 -414.961356 
L 323.979901 -418.437627 
L 324.561262 -421.913898 
L 325.174911 -425.390169 
L 325.825507 -428.86644 
L 326.51833 -432.342712 
L 327.258525 -435.818983 
L 328.050385 -439.295254 
L 328.896697 -442.771525 
L 329.798219 -446.247796 
L 330.753309 -449.724068 
L 331.757722 -453.200339 
L 332.804594 -456.67661 
L 333.884607 -460.152881 
L 334.98633 -463.629152 
L 336.096704 -467.105424 
L 337.201648 -470.581695 
L 338.286734 -474.057966 
L 339.33788 -477.534237 
L 340.342025 -481.010509 
L 341.287717 -484.48678 
L 342.165583 -487.963051 
L 342.96866 -491.439322 
L 343.69255 -494.915593 
L 344.335421 -498.391865 
L 344.897848 -501.868136 
L 345.382541 -505.344407 
L 345.793969 -508.820678 
L 346.137944 -512.296949 
L 346.421177 -515.773221 
L 346.650861 -519.249492 
L 348.149139 -519.249492 
L 348.149139 -519.249492 
L 348.378823 -515.773221 
L 348.662056 -512.296949 
L 349.006031 -508.820678 
L 349.417459 -505.344407 
L 349.902152 -501.868136 
L 350.464579 -498.391865 
L 351.10745 -494.915593 
L 351.83134 -491.439322 
L 352.634417 -487.963051 
L 353.512283 -484.48678 
L 354.457975 -481.010509 
L 355.46212 -477.534237 
L 356.513266 -474.057966 
L 357.598352 -470.581695 
L 358.703296 -467.105424 
L 359.81367 -463.629152 
L 360.915393 -460.152881 
L 361.995406 -456.67661 
L 363.042278 -453.200339 
L 364.046691 -449.724068 
L 365.001781 -446.247796 
L 365.903303 -442.771525 
L 366.749615 -439.295254 
L 367.541475 -435.818983 
L 368.28167 -432.342712 
L 368.974493 -428.86644 
L 369.625089 -425.390169 
L 370.238738 -421.913898 
L 370.820099 -418.437627 
L 371.372485 -414.961356 
L 371.897238 -411.485084 
L 372.393264 -408.008813 
L 372.856792 -404.532542 
L 373.281414 -401.056271 
L 373.658424 -397.58 
L 373.977468 -394.103728 
L 374.227469 -390.627457 
L 374.397756 -387.151186 
L 374.479315 -383.674915 
L 374.466016 -380.198644 
L 374.355708 -376.722372 
L 374.151036 -373.246101 
L 373.859883 -369.76983 
L 373.495356 -366.293559 
L 373.075303 -362.817288 
L 372.621364 -359.341016 
L 372.157649 -355.864745 
L 371.709148 -352.388474 
L 371.300012 -348.912203 
L 370.951871 -345.435932 
L 370.682329 -341.95966 
L 370.50377 -338.483389 
L 370.422562 -335.007118 
L 370.438726 -331.530847 
L 370.546061 -328.054576 
L 370.7327 -324.578304 
L 370.982023 -321.102033 
L 371.273836 -317.625762 
L 371.585701 -314.149491 
L 371.894294 -310.67322 
L 372.17671 -307.196948 
L 372.411594 -303.720677 
L 372.580057 -300.244406 
L 372.66632 -296.768135 
L 372.658084 -293.291864 
L 372.54663 -289.815592 
L 372.326701 -286.339321 
L 371.996195 -282.86305 
L 371.555759 -279.386779 
L 371.008317 -275.910508 
L 370.358622 -272.434236 
L 369.612851 -268.957965 
L 368.77829 -265.481694 
L 367.863125 -262.005423 
L 366.876314 -258.529152 
L 365.827545 -255.05288 
L 364.727231 -251.576609 
L 363.586512 -248.100338 
L 362.417232 -244.624067 
L 361.231852 -241.147796 
L 360.043285 -237.671524 
L 358.864658 -234.195253 
L 357.708981 -230.718982 
L 356.588779 -227.242711 
L 355.515685 -223.76644 
L 354.500046 -220.290168 
L 353.550576 -216.813897 
L 352.674077 -213.337626 
L 351.875263 -209.861355 
L 351.15669 -206.385084 
L 350.518806 -202.908812 
L 349.960099 -199.432541 
L 349.477339 -195.95627 
L 349.065883 -192.479999 
L 348.720014 -189.003727 
L 348.433301 -185.527456 
L 348.198937 -182.051185 
L 348.010048 -178.574914 
L 347.859955 -175.098643 
z
" style="stroke: #3f3f3f; stroke-width: 1.25"/>
    </defs>
    <g clip-path="url(#p10f437c5ed)">
     <use xlink:href="#m84bf03c28a" x="0" y="720" style="fill: #3274a1; stroke: #3f3f3f; stroke-width: 1.25"/>
    </g>
   </g>
   <g id="PolyCollection_3">
    <defs>
     <path id="mc9c1a21904" d="M 459.386856 -170.369202 
L 458.613144 -170.369202 
L 458.49343 -173.823708 
L 458.347093 -177.278214 
L 458.171515 -180.73272 
L 457.96473 -184.187226 
L 457.725648 -187.641732 
L 457.45423 -191.096237 
L 457.15159 -194.550743 
L 456.819998 -198.005249 
L 456.462757 -201.459755 
L 456.083946 -204.914261 
L 455.688046 -208.368767 
L 455.279466 -211.823273 
L 454.862008 -215.277778 
L 454.438336 -218.732284 
L 454.0095 -222.18679 
L 453.574587 -225.641296 
L 453.130548 -229.095802 
L 452.672235 -232.550308 
L 452.192679 -236.004814 
L 451.683571 -239.459319 
L 451.135915 -242.913825 
L 450.540783 -246.368331 
L 449.890068 -249.822837 
L 449.177157 -253.277343 
L 448.397416 -256.731849 
L 447.548425 -260.186355 
L 446.629931 -263.640861 
L 445.643515 -267.095366 
L 444.592043 -270.549872 
L 443.478965 -274.004378 
L 442.307611 -277.458884 
L 441.080592 -280.91339 
L 439.799422 -284.367896 
L 438.464475 -287.822402 
L 437.075295 -291.276907 
L 435.631276 -294.731413 
L 434.132636 -298.185919 
L 432.581594 -301.640425 
L 430.983596 -305.094931 
L 429.348434 -308.549437 
L 427.691104 -312.003943 
L 426.032253 -315.458448 
L 424.398111 -318.912954 
L 422.819845 -322.36746 
L 421.332348 -325.821966 
L 419.972507 -329.276472 
L 418.777089 -332.730978 
L 417.780426 -336.185484 
L 417.01211 -339.63999 
L 416.494939 -343.094495 
L 416.243344 -346.549001 
L 416.262466 -350.003507 
L 416.548001 -353.458013 
L 417.086829 -356.912519 
L 417.85835 -360.367025 
L 418.836351 -363.821531 
L 419.991176 -367.276036 
L 421.291917 -370.730542 
L 422.708366 -374.185048 
L 424.212518 -377.639554 
L 425.779497 -381.09406 
L 427.387857 -384.548566 
L 429.01935 -388.003072 
L 430.658295 -391.457577 
L 432.29076 -394.912083 
L 433.903766 -398.366589 
L 435.484712 -401.821095 
L 437.021125 -405.275601 
L 438.500816 -408.730107 
L 439.912371 -412.184613 
L 441.245899 -415.639119 
L 442.493869 -419.093624 
L 443.651861 -422.54813 
L 444.719099 -426.002636 
L 445.698625 -429.457142 
L 446.597084 -432.911648 
L 447.424123 -436.366154 
L 448.191466 -439.82066 
L 448.911807 -443.275165 
L 449.597626 -446.729671 
L 450.260094 -450.184177 
L 450.908173 -453.638683 
L 451.54801 -457.093189 
L 452.182651 -460.547695 
L 452.812102 -464.002201 
L 453.433671 -467.456706 
L 454.042551 -470.911212 
L 454.632536 -474.365718 
L 455.196794 -477.820224 
L 455.728607 -481.27473 
L 456.222012 -484.729236 
L 456.672287 -488.183742 
L 457.076262 -491.638248 
L 457.432456 -495.092753 
L 457.741043 -498.547259 
L 458.003684 -502.001765 
L 458.22327 -505.456271 
L 458.403607 -508.910777 
L 458.549081 -512.365283 
L 459.450919 -512.365283 
L 459.450919 -512.365283 
L 459.596393 -508.910777 
L 459.77673 -505.456271 
L 459.996316 -502.001765 
L 460.258957 -498.547259 
L 460.567544 -495.092753 
L 460.923738 -491.638248 
L 461.327713 -488.183742 
L 461.777988 -484.729236 
L 462.271393 -481.27473 
L 462.803206 -477.820224 
L 463.367464 -474.365718 
L 463.957449 -470.911212 
L 464.566329 -467.456706 
L 465.187898 -464.002201 
L 465.817349 -460.547695 
L 466.45199 -457.093189 
L 467.091827 -453.638683 
L 467.739906 -450.184177 
L 468.402374 -446.729671 
L 469.088193 -443.275165 
L 469.808534 -439.82066 
L 470.575877 -436.366154 
L 471.402916 -432.911648 
L 472.301375 -429.457142 
L 473.280901 -426.002636 
L 474.348139 -422.54813 
L 475.506131 -419.093624 
L 476.754101 -415.639119 
L 478.087629 -412.184613 
L 479.499184 -408.730107 
L 480.978875 -405.275601 
L 482.515288 -401.821095 
L 484.096234 -398.366589 
L 485.70924 -394.912083 
L 487.341705 -391.457577 
L 488.98065 -388.003072 
L 490.612143 -384.548566 
L 492.220503 -381.09406 
L 493.787482 -377.639554 
L 495.291634 -374.185048 
L 496.708083 -370.730542 
L 498.008824 -367.276036 
L 499.163649 -363.821531 
L 500.14165 -360.367025 
L 500.913171 -356.912519 
L 501.451999 -353.458013 
L 501.737534 -350.003507 
L 501.756656 -346.549001 
L 501.505061 -343.094495 
L 500.98789 -339.63999 
L 500.219574 -336.185484 
L 499.222911 -332.730978 
L 498.027493 -329.276472 
L 496.667652 -325.821966 
L 495.180155 -322.36746 
L 493.601889 -318.912954 
L 491.967747 -315.458448 
L 490.308896 -312.003943 
L 488.651566 -308.549437 
L 487.016404 -305.094931 
L 485.418406 -301.640425 
L 483.867364 -298.185919 
L 482.368724 -294.731413 
L 480.924705 -291.276907 
L 479.535525 -287.822402 
L 478.200578 -284.367896 
L 476.919408 -280.91339 
L 475.692389 -277.458884 
L 474.521035 -274.004378 
L 473.407957 -270.549872 
L 472.356485 -267.095366 
L 471.370069 -263.640861 
L 470.451575 -260.186355 
L 469.602584 -256.731849 
L 468.822843 -253.277343 
L 468.109932 -249.822837 
L 467.459217 -246.368331 
L 466.864085 -242.913825 
L 466.316429 -239.459319 
L 465.807321 -236.004814 
L 465.327765 -232.550308 
L 464.869452 -229.095802 
L 464.425413 -225.641296 
L 463.9905 -222.18679 
L 463.561664 -218.732284 
L 463.137992 -215.277778 
L 462.720534 -211.823273 
L 462.311954 -208.368767 
L 461.916054 -204.914261 
L 461.537243 -201.459755 
L 461.180002 -198.005249 
L 460.84841 -194.550743 
L 460.54577 -191.096237 
L 460.274352 -187.641732 
L 460.03527 -184.187226 
L 459.828485 -180.73272 
L 459.652907 -177.278214 
L 459.50657 -173.823708 
L 459.386856 -170.369202 
z
" style="stroke: #3f3f3f; stroke-width: 1.25"/>
    </defs>
    <g clip-path="url(#p10f437c5ed)">
     <use xlink:href="#mc9c1a21904" x="0" y="720" style="fill: #3274a1; stroke: #3f3f3f; stroke-width: 1.25"/>
    </g>
   </g>
   <g id="PolyCollection_4">
    <defs>
     <path id="m3683448198" d="M 571.190497 -154.868112 
L 570.009503 -154.868112 
L 569.852064 -159.350919 
L 569.662387 -163.833726 
L 569.436516 -168.316533 
L 569.170629 -172.799339 
L 568.861189 -177.282146 
L 568.505106 -181.764953 
L 568.099897 -186.24776 
L 567.643839 -190.730567 
L 567.136102 -195.213374 
L 566.576864 -199.696181 
L 565.967385 -204.178988 
L 565.310047 -208.661795 
L 564.608359 -213.144601 
L 563.866908 -217.627408 
L 563.091278 -222.110215 
L 562.287926 -226.593022 
L 561.464022 -231.075829 
L 560.627258 -235.558636 
L 559.785628 -240.041443 
L 558.947186 -244.52425 
L 558.119795 -249.007057 
L 557.310852 -253.489863 
L 556.52703 -257.97267 
L 555.774022 -262.455477 
L 555.056304 -266.938284 
L 554.376941 -271.421091 
L 553.737448 -275.903898 
L 553.137707 -280.386705 
L 552.575978 -284.869512 
L 552.048988 -289.352319 
L 551.552128 -293.835125 
L 551.079743 -298.317932 
L 550.625506 -302.800739 
L 550.18287 -307.283546 
L 549.745578 -311.766353 
L 549.308187 -316.24916 
L 548.866592 -320.731967 
L 548.418507 -325.214774 
L 547.963871 -329.697581 
L 547.505141 -334.180387 
L 547.047449 -338.663194 
L 546.598608 -343.146001 
L 546.168927 -347.628808 
L 545.770867 -352.111615 
L 545.418509 -356.594422 
L 545.126886 -361.077229 
L 544.911176 -365.560036 
L 544.785826 -370.042843 
L 544.763644 -374.525649 
L 544.854917 -379.008456 
L 545.066623 -383.491263 
L 545.401791 -387.97407 
L 545.859075 -392.456877 
L 546.432568 -396.939684 
L 547.111895 -401.422491 
L 547.882595 -405.905298 
L 548.726765 -410.388105 
L 549.623938 -414.870911 
L 550.552146 -419.353718 
L 551.489074 -423.836525 
L 552.413258 -428.319332 
L 553.305206 -432.802139 
L 554.148393 -437.284946 
L 554.930047 -441.767753 
L 555.641681 -446.25056 
L 556.279335 -450.733367 
L 556.843527 -455.216173 
L 557.338927 -459.69898 
L 557.77379 -464.181787 
L 558.159191 -468.664594 
L 558.508141 -473.147401 
L 558.834629 -477.630208 
L 559.152685 -482.113015 
L 559.475497 -486.595822 
L 559.814654 -491.078629 
L 560.179551 -495.561435 
L 560.576972 -500.044242 
L 561.010869 -504.527049 
L 561.482338 -509.009856 
L 561.989764 -513.492663 
L 562.529115 -517.97547 
L 563.094357 -522.458277 
L 563.677945 -526.941084 
L 564.271348 -531.423891 
L 564.865589 -535.906697 
L 565.451745 -540.389504 
L 566.021395 -544.872311 
L 566.566987 -549.355118 
L 567.082119 -553.837925 
L 567.561717 -558.320732 
L 568.002126 -562.803539 
L 568.40111 -567.286346 
L 568.757779 -571.769153 
L 569.072458 -576.251959 
L 569.346506 -580.734766 
L 569.582124 -585.217573 
L 569.782139 -589.70038 
L 569.949801 -594.183187 
L 570.088592 -598.665994 
L 571.111408 -598.665994 
L 571.111408 -598.665994 
L 571.250199 -594.183187 
L 571.417861 -589.70038 
L 571.617876 -585.217573 
L 571.853494 -580.734766 
L 572.127542 -576.251959 
L 572.442221 -571.769153 
L 572.79889 -567.286346 
L 573.197874 -562.803539 
L 573.638283 -558.320732 
L 574.117881 -553.837925 
L 574.633013 -549.355118 
L 575.178605 -544.872311 
L 575.748255 -540.389504 
L 576.334411 -535.906697 
L 576.928652 -531.423891 
L 577.522055 -526.941084 
L 578.105643 -522.458277 
L 578.670885 -517.97547 
L 579.210236 -513.492663 
L 579.717662 -509.009856 
L 580.189131 -504.527049 
L 580.623028 -500.044242 
L 581.020449 -495.561435 
L 581.385346 -491.078629 
L 581.724503 -486.595822 
L 582.047315 -482.113015 
L 582.365371 -477.630208 
L 582.691859 -473.147401 
L 583.040809 -468.664594 
L 583.42621 -464.181787 
L 583.861073 -459.69898 
L 584.356473 -455.216173 
L 584.920665 -450.733367 
L 585.558319 -446.25056 
L 586.269953 -441.767753 
L 587.051607 -437.284946 
L 587.894794 -432.802139 
L 588.786742 -428.319332 
L 589.710926 -423.836525 
L 590.647854 -419.353718 
L 591.576062 -414.870911 
L 592.473235 -410.388105 
L 593.317405 -405.905298 
L 594.088105 -401.422491 
L 594.767432 -396.939684 
L 595.340925 -392.456877 
L 595.798209 -387.97407 
L 596.133377 -383.491263 
L 596.345083 -379.008456 
L 596.436356 -374.525649 
L 596.414174 -370.042843 
L 596.288824 -365.560036 
L 596.073114 -361.077229 
L 595.781491 -356.594422 
L 595.429133 -352.111615 
L 595.031073 -347.628808 
L 594.601392 -343.146001 
L 594.152551 -338.663194 
L 593.694859 -334.180387 
L 593.236129 -329.697581 
L 592.781493 -325.214774 
L 592.333408 -320.731967 
L 591.891813 -316.24916 
L 591.454422 -311.766353 
L 591.01713 -307.283546 
L 590.574494 -302.800739 
L 590.120257 -298.317932 
L 589.647872 -293.835125 
L 589.151012 -289.352319 
L 588.624022 -284.869512 
L 588.062293 -280.386705 
L 587.462552 -275.903898 
L 586.823059 -271.421091 
L 586.143696 -266.938284 
L 585.425978 -262.455477 
L 584.67297 -257.97267 
L 583.889148 -253.489863 
L 583.080205 -249.007057 
L 582.252814 -244.52425 
L 581.414372 -240.041443 
L 580.572742 -235.558636 
L 579.735978 -231.075829 
L 578.912074 -226.593022 
L 578.108722 -222.110215 
L 577.333092 -217.627408 
L 576.591641 -213.144601 
L 575.889953 -208.661795 
L 575.232615 -204.178988 
L 574.623136 -199.696181 
L 574.063898 -195.213374 
L 573.556161 -190.730567 
L 573.100103 -186.24776 
L 572.694894 -181.764953 
L 572.338811 -177.282146 
L 572.029371 -172.799339 
L 571.763484 -168.316533 
L 571.537613 -163.833726 
L 571.347936 -159.350919 
L 571.190497 -154.868112 
z
" style="stroke: #3f3f3f; stroke-width: 1.25"/>
    </defs>
    <g clip-path="url(#p10f437c5ed)">
     <use xlink:href="#m3683448198" x="0" y="720" style="fill: #3274a1; stroke: #3f3f3f; stroke-width: 1.25"/>
    </g>
   </g>
   <g id="PolyCollection_5">
    <defs>
     <path id="mfd5cd10258" d="M 682.535785 -151.29577 
L 681.864215 -151.29577 
L 681.773153 -155.356479 
L 681.664845 -159.417188 
L 681.538119 -163.477898 
L 681.39222 -167.538607 
L 681.226876 -171.599316 
L 681.042323 -175.660026 
L 680.839265 -179.720735 
L 680.618755 -183.781444 
L 680.382007 -187.842154 
L 680.13012 -191.902863 
L 679.863751 -195.963572 
L 679.582743 -200.024282 
L 679.285747 -204.084991 
L 678.969894 -208.1457 
L 678.630535 -212.20641 
L 678.261123 -216.267119 
L 677.853252 -220.327828 
L 677.39689 -224.388538 
L 676.880809 -228.449247 
L 676.293212 -232.509956 
L 675.622515 -236.570666 
L 674.858235 -240.631375 
L 673.991931 -244.692084 
L 673.018098 -248.752794 
L 671.934956 -252.813503 
L 670.745033 -256.874212 
L 669.455496 -260.934922 
L 668.078166 -264.995631 
L 666.629217 -269.056341 
L 665.128548 -273.11705 
L 663.598885 -277.177759 
L 662.064684 -281.238469 
L 660.550916 -285.299178 
L 659.081865 -289.359887 
L 657.680024 -293.420597 
L 656.365212 -297.481306 
L 655.153971 -301.542015 
L 654.059289 -305.602725 
L 653.09066 -309.663434 
L 652.254427 -313.724143 
L 651.554338 -317.784853 
L 650.992226 -321.845562 
L 650.568665 -325.906271 
L 650.283529 -329.966981 
L 650.136335 -334.02769 
L 650.12633 -338.088399 
L 650.252294 -342.149109 
L 650.5121 -346.209818 
L 650.902097 -350.270527 
L 651.416418 -354.331237 
L 652.046337 -358.391946 
L 652.779794 -362.452655 
L 653.601187 -366.513365 
L 654.491518 -370.574074 
L 655.428915 -374.634783 
L 656.389523 -378.695493 
L 657.348703 -382.756202 
L 658.282449 -386.816912 
L 659.16888 -390.877621 
L 659.989693 -394.93833 
L 660.731403 -398.99904 
L 661.386276 -403.059749 
L 661.952833 -407.120458 
L 662.435891 -411.181168 
L 662.846115 -415.241877 
L 663.199122 -419.302586 
L 663.514225 -423.363296 
L 663.81292 -427.424005 
L 664.117259 -431.484714 
L 664.448249 -435.545424 
L 664.824416 -439.606133 
L 665.260633 -443.666842 
L 665.767321 -447.727552 
L 666.350019 -451.788261 
L 667.00937 -455.84897 
L 667.741449 -459.90968 
L 668.538379 -463.970389 
L 669.389156 -468.031098 
L 670.280571 -472.091808 
L 671.19816 -476.152517 
L 672.127086 -480.213226 
L 673.052912 -484.273936 
L 673.962217 -488.334645 
L 674.843053 -492.395354 
L 675.685235 -496.456064 
L 676.480497 -500.516773 
L 677.222516 -504.577482 
L 677.906864 -508.638192 
L 678.53088 -512.698901 
L 679.093512 -516.759611 
L 679.595128 -520.82032 
L 680.037318 -524.881029 
L 680.422685 -528.941739 
L 680.754648 -533.002448 
L 681.037236 -537.063157 
L 681.274894 -541.123867 
L 681.472307 -545.184576 
L 681.634227 -549.245285 
L 681.765331 -553.305995 
L 682.634669 -553.305995 
L 682.634669 -553.305995 
L 682.765773 -549.245285 
L 682.927693 -545.184576 
L 683.125106 -541.123867 
L 683.362764 -537.063157 
L 683.645352 -533.002448 
L 683.977315 -528.941739 
L 684.362682 -524.881029 
L 684.804872 -520.82032 
L 685.306488 -516.759611 
L 685.86912 -512.698901 
L 686.493136 -508.638192 
L 687.177484 -504.577482 
L 687.919503 -500.516773 
L 688.714765 -496.456064 
L 689.556947 -492.395354 
L 690.437783 -488.334645 
L 691.347088 -484.273936 
L 692.272914 -480.213226 
L 693.20184 -476.152517 
L 694.119429 -472.091808 
L 695.010844 -468.031098 
L 695.861621 -463.970389 
L 696.658551 -459.90968 
L 697.39063 -455.84897 
L 698.049981 -451.788261 
L 698.632679 -447.727552 
L 699.139367 -443.666842 
L 699.575584 -439.606133 
L 699.951751 -435.545424 
L 700.282741 -431.484714 
L 700.58708 -427.424005 
L 700.885775 -423.363296 
L 701.200878 -419.302586 
L 701.553885 -415.241877 
L 701.964109 -411.181168 
L 702.447167 -407.120458 
L 703.013724 -403.059749 
L 703.668597 -398.99904 
L 704.410307 -394.93833 
L 705.23112 -390.877621 
L 706.117551 -386.816912 
L 707.051297 -382.756202 
L 708.010477 -378.695493 
L 708.971085 -374.634783 
L 709.908482 -370.574074 
L 710.798813 -366.513365 
L 711.620206 -362.452655 
L 712.353663 -358.391946 
L 712.983582 -354.331237 
L 713.497903 -350.270527 
L 713.8879 -346.209818 
L 714.147706 -342.149109 
L 714.27367 -338.088399 
L 714.263665 -334.02769 
L 714.116471 -329.966981 
L 713.831335 -325.906271 
L 713.407774 -321.845562 
L 712.845662 -317.784853 
L 712.145573 -313.724143 
L 711.30934 -309.663434 
L 710.340711 -305.602725 
L 709.246029 -301.542015 
L 708.034788 -297.481306 
L 706.719976 -293.420597 
L 705.318135 -289.359887 
L 703.849084 -285.299178 
L 702.335316 -281.238469 
L 700.801115 -277.177759 
L 699.271452 -273.11705 
L 697.770783 -269.056341 
L 696.321834 -264.995631 
L 694.944504 -260.934922 
L 693.654967 -256.874212 
L 692.465044 -252.813503 
L 691.381902 -248.752794 
L 690.408069 -244.692084 
L 689.541765 -240.631375 
L 688.777485 -236.570666 
L 688.106788 -232.509956 
L 687.519191 -228.449247 
L 687.00311 -224.388538 
L 686.546748 -220.327828 
L 686.138877 -216.267119 
L 685.769465 -212.20641 
L 685.430106 -208.1457 
L 685.114253 -204.084991 
L 684.817257 -200.024282 
L 684.536249 -195.963572 
L 684.26988 -191.902863 
L 684.017993 -187.842154 
L 683.781245 -183.781444 
L 683.560735 -179.720735 
L 683.357677 -175.660026 
L 683.173124 -171.599316 
L 683.00778 -167.538607 
L 682.861881 -163.477898 
L 682.735155 -159.417188 
L 682.626847 -155.356479 
L 682.535785 -151.29577 
z
" style="stroke: #3f3f3f; stroke-width: 1.25"/>
    </defs>
    <g clip-path="url(#p10f437c5ed)">
     <use xlink:href="#mfd5cd10258" x="0" y="720" style="fill: #3274a1; stroke: #3f3f3f; stroke-width: 1.25"/>
    </g>
   </g>
   <g id="PolyCollection_6">
    <defs>
     <path id="me802016fc7" d="M 794.634565 -201.401404 
L 792.965435 -201.401404 
L 792.733387 -205.427673 
L 792.45157 -209.453943 
L 792.113584 -213.480213 
L 791.713307 -217.506483 
L 791.24521 -221.532752 
L 790.704692 -225.559022 
L 790.088439 -229.585292 
L 789.394758 -233.611562 
L 788.623882 -237.637831 
L 787.778212 -241.664101 
L 786.862464 -245.690371 
L 785.88371 -249.716641 
L 784.851289 -253.74291 
L 783.776576 -257.76918 
L 782.672616 -261.79545 
L 781.553625 -265.821719 
L 780.434394 -269.847989 
L 779.329603 -273.874259 
L 778.253115 -277.900529 
L 777.21727 -281.926798 
L 776.232252 -285.953068 
L 775.305553 -289.979338 
L 774.441611 -294.005608 
L 773.641624 -298.031877 
L 772.903593 -302.058147 
L 772.222581 -306.084417 
L 771.591205 -310.110687 
L 771.000312 -314.136956 
L 770.439811 -318.163226 
L 769.899608 -322.189496 
L 769.370567 -326.215766 
L 768.845428 -330.242035 
L 768.319619 -334.268305 
L 767.791871 -338.294575 
L 767.264604 -342.320844 
L 766.744023 -346.347114 
L 766.239928 -350.373384 
L 765.765216 -354.399654 
L 765.335128 -358.425923 
L 764.966282 -362.452193 
L 764.675554 -366.478463 
L 764.478909 -370.504733 
L 764.390254 -374.531002 
L 764.420409 -378.557272 
L 764.576277 -382.583542 
L 764.860272 -386.609812 
L 765.270055 -390.636081 
L 765.798594 -394.662351 
L 766.434536 -398.688621 
L 767.162878 -402.714891 
L 767.965862 -406.74116 
L 768.824036 -410.76743 
L 769.717398 -414.7937 
L 770.626538 -418.81997 
L 771.533677 -422.846239 
L 772.423563 -426.872509 
L 773.284122 -430.898779 
L 774.106868 -434.925048 
L 774.887013 -438.951318 
L 775.623327 -442.977588 
L 776.317737 -447.003858 
L 776.974743 -451.030127 
L 777.600698 -455.056397 
L 778.203023 -459.082667 
L 778.789429 -463.108937 
L 779.367216 -467.135206 
L 779.942687 -471.161476 
L 780.520734 -475.187746 
L 781.104592 -479.214016 
L 781.695782 -483.240285 
L 782.294209 -487.266555 
L 782.898393 -491.292825 
L 783.505786 -495.319095 
L 784.113134 -499.345364 
L 784.716835 -503.371634 
L 785.313268 -507.397904 
L 785.899047 -511.424174 
L 786.471202 -515.450443 
L 787.027269 -519.476713 
L 787.565307 -523.502983 
L 788.083846 -527.529252 
L 788.5818 -531.555522 
L 789.058349 -535.581792 
L 789.512835 -539.608062 
L 789.944667 -543.634331 
L 790.353258 -547.660601 
L 790.738004 -551.686871 
L 791.09829 -555.713141 
L 791.433531 -559.73941 
L 791.743233 -563.76568 
L 792.027059 -567.79195 
L 792.284899 -571.81822 
L 792.516922 -575.844489 
L 792.723613 -579.870759 
L 792.905787 -583.897029 
L 793.064574 -587.923299 
L 793.201392 -591.949568 
L 793.31789 -595.975838 
L 793.41589 -600.002108 
L 794.18411 -600.002108 
L 794.18411 -600.002108 
L 794.28211 -595.975838 
L 794.398608 -591.949568 
L 794.535426 -587.923299 
L 794.694213 -583.897029 
L 794.876387 -579.870759 
L 795.083078 -575.844489 
L 795.315101 -571.81822 
L 795.572941 -567.79195 
L 795.856767 -563.76568 
L 796.166469 -559.73941 
L 796.50171 -555.713141 
L 796.861996 -551.686871 
L 797.246742 -547.660601 
L 797.655333 -543.634331 
L 798.087165 -539.608062 
L 798.541651 -535.581792 
L 799.0182 -531.555522 
L 799.516154 -527.529252 
L 800.034693 -523.502983 
L 800.572731 -519.476713 
L 801.128798 -515.450443 
L 801.700953 -511.424174 
L 802.286732 -507.397904 
L 802.883165 -503.371634 
L 803.486866 -499.345364 
L 804.094214 -495.319095 
L 804.701607 -491.292825 
L 805.305791 -487.266555 
L 805.904218 -483.240285 
L 806.495408 -479.214016 
L 807.079266 -475.187746 
L 807.657313 -471.161476 
L 808.232784 -467.135206 
L 808.810571 -463.108937 
L 809.396977 -459.082667 
L 809.999302 -455.056397 
L 810.625257 -451.030127 
L 811.282263 -447.003858 
L 811.976673 -442.977588 
L 812.712987 -438.951318 
L 813.493132 -434.925048 
L 814.315878 -430.898779 
L 815.176437 -426.872509 
L 816.066323 -422.846239 
L 816.973462 -418.81997 
L 817.882602 -414.7937 
L 818.775964 -410.76743 
L 819.634138 -406.74116 
L 820.437122 -402.714891 
L 821.165464 -398.688621 
L 821.801406 -394.662351 
L 822.329945 -390.636081 
L 822.739728 -386.609812 
L 823.023723 -382.583542 
L 823.179591 -378.557272 
L 823.209746 -374.531002 
L 823.121091 -370.504733 
L 822.924446 -366.478463 
L 822.633718 -362.452193 
L 822.264872 -358.425923 
L 821.834784 -354.399654 
L 821.360072 -350.373384 
L 820.855977 -346.347114 
L 820.335396 -342.320844 
L 819.808129 -338.294575 
L 819.280381 -334.268305 
L 818.754572 -330.242035 
L 818.229433 -326.215766 
L 817.700392 -322.189496 
L 817.160189 -318.163226 
L 816.599688 -314.136956 
L 816.008795 -310.110687 
L 815.377419 -306.084417 
L 814.696407 -302.058147 
L 813.958376 -298.031877 
L 813.158389 -294.005608 
L 812.294447 -289.979338 
L 811.367748 -285.953068 
L 810.38273 -281.926798 
L 809.346885 -277.900529 
L 808.270397 -273.874259 
L 807.165606 -269.847989 
L 806.046375 -265.821719 
L 804.927384 -261.79545 
L 803.823424 -257.76918 
L 802.748711 -253.74291 
L 801.71629 -249.716641 
L 800.737536 -245.690371 
L 799.821788 -241.664101 
L 798.976118 -237.637831 
L 798.205242 -233.611562 
L 797.511561 -229.585292 
L 796.895308 -225.559022 
L 796.35479 -221.532752 
L 795.886693 -217.506483 
L 795.486416 -213.480213 
L 795.14843 -209.453943 
L 794.866613 -205.427673 
L 794.634565 -201.401404 
z
" style="stroke: #3f3f3f; stroke-width: 1.25"/>
    </defs>
    <g clip-path="url(#p10f437c5ed)">
     <use xlink:href="#me802016fc7" x="0" y="720" style="fill: #3274a1; stroke: #3f3f3f; stroke-width: 1.25"/>
    </g>
   </g>
   <g id="PolyCollection_7">
    <defs>
     <path id="m9106888b4b" d="M 906.017541 -188.424832 
L 904.782459 -188.424832 
L 904.630069 -192.667005 
L 904.447375 -196.909179 
L 904.230153 -201.151352 
L 903.973987 -205.393525 
L 903.674339 -209.635699 
L 903.326646 -213.877872 
L 902.926437 -218.120046 
L 902.469466 -222.362219 
L 901.951869 -226.604392 
L 901.370329 -230.846566 
L 900.72227 -235.088739 
L 900.006048 -239.330913 
L 899.221153 -243.573086 
L 898.368402 -247.81526 
L 897.450121 -252.057433 
L 896.470298 -256.299606 
L 895.434695 -260.54178 
L 894.350909 -264.783953 
L 893.228358 -269.026127 
L 892.0782 -273.2683 
L 890.913146 -277.510473 
L 889.747195 -281.752647 
L 888.595267 -285.99482 
L 887.472752 -290.236994 
L 886.394995 -294.479167 
L 885.376725 -298.721341 
L 884.431475 -302.963514 
L 883.571009 -307.205687 
L 882.804807 -311.447861 
L 882.139636 -315.690034 
L 881.579241 -319.932208 
L 881.124195 -324.174381 
L 880.771905 -328.416554 
L 880.516803 -332.658728 
L 880.3507 -336.900901 
L 880.263301 -341.143075 
L 880.242832 -345.385248 
L 880.276755 -349.627422 
L 880.352514 -353.869595 
L 880.458265 -358.111768 
L 880.583544 -362.353942 
L 880.719816 -366.596115 
L 880.860885 -370.838289 
L 881.003121 -375.080462 
L 881.145516 -379.322635 
L 881.289542 -383.564809 
L 881.438851 -387.806982 
L 881.598834 -392.049156 
L 881.776076 -396.291329 
L 881.977743 -400.533503 
L 882.210966 -404.775676 
L 882.482242 -409.017849 
L 882.796909 -413.260023 
L 883.158718 -417.502196 
L 883.569537 -421.74437 
L 884.029183 -425.986543 
L 884.535408 -430.228716 
L 885.084017 -434.47089 
L 885.669108 -438.713063 
L 886.28342 -442.955237 
L 886.918748 -447.19741 
L 887.566408 -451.439584 
L 888.217721 -455.681757 
L 888.864471 -459.92393 
L 889.499329 -464.166104 
L 890.116206 -468.408277 
L 890.710521 -472.650451 
L 891.279373 -476.892624 
L 891.821596 -481.134797 
L 892.337721 -485.376971 
L 892.82983 -489.619144 
L 893.301319 -493.861318 
L 893.756595 -498.103491 
L 894.200717 -502.345665 
L 894.639014 -506.587838 
L 895.076699 -510.830011 
L 895.518508 -515.072185 
L 895.96838 -519.314358 
L 896.429208 -523.556532 
L 896.902658 -527.798705 
L 897.389087 -532.040878 
L 897.887533 -536.283052 
L 898.395805 -540.525225 
L 898.91063 -544.767399 
L 899.427869 -549.009572 
L 899.94277 -553.251746 
L 900.450245 -557.493919 
L 900.945145 -561.736092 
L 901.422523 -565.978266 
L 901.877862 -570.220439 
L 902.307266 -574.462613 
L 902.707591 -578.704786 
L 903.076535 -582.946959 
L 903.412665 -587.189133 
L 903.7154 -591.431306 
L 903.984954 -595.67348 
L 904.222242 -599.915653 
L 904.428772 -604.157827 
L 904.606515 -608.4 
L 906.193485 -608.4 
L 906.193485 -608.4 
L 906.371228 -604.157827 
L 906.577758 -599.915653 
L 906.815046 -595.67348 
L 907.0846 -591.431306 
L 907.387335 -587.189133 
L 907.723465 -582.946959 
L 908.092409 -578.704786 
L 908.492734 -574.462613 
L 908.922138 -570.220439 
L 909.377477 -565.978266 
L 909.854855 -561.736092 
L 910.349755 -557.493919 
L 910.85723 -553.251746 
L 911.372131 -549.009572 
L 911.88937 -544.767399 
L 912.404195 -540.525225 
L 912.912467 -536.283052 
L 913.410913 -532.040878 
L 913.897342 -527.798705 
L 914.370792 -523.556532 
L 914.83162 -519.314358 
L 915.281492 -515.072185 
L 915.723301 -510.830011 
L 916.160986 -506.587838 
L 916.599283 -502.345665 
L 917.043405 -498.103491 
L 917.498681 -493.861318 
L 917.97017 -489.619144 
L 918.462279 -485.376971 
L 918.978404 -481.134797 
L 919.520627 -476.892624 
L 920.089479 -472.650451 
L 920.683794 -468.408277 
L 921.300671 -464.166104 
L 921.935529 -459.92393 
L 922.582279 -455.681757 
L 923.233592 -451.439584 
L 923.881252 -447.19741 
L 924.51658 -442.955237 
L 925.130892 -438.713063 
L 925.715983 -434.47089 
L 926.264592 -430.228716 
L 926.770817 -425.986543 
L 927.230463 -421.74437 
L 927.641282 -417.502196 
L 928.003091 -413.260023 
L 928.317758 -409.017849 
L 928.589034 -404.775676 
L 928.822257 -400.533503 
L 929.023924 -396.291329 
L 929.201166 -392.049156 
L 929.361149 -387.806982 
L 929.510458 -383.564809 
L 929.654484 -379.322635 
L 929.796879 -375.080462 
L 929.939115 -370.838289 
L 930.080184 -366.596115 
L 930.216456 -362.353942 
L 930.341735 -358.111768 
L 930.447486 -353.869595 
L 930.523245 -349.627422 
L 930.557168 -345.385248 
L 930.536699 -341.143075 
L 930.4493 -336.900901 
L 930.283197 -332.658728 
L 930.028095 -328.416554 
L 929.675805 -324.174381 
L 929.220759 -319.932208 
L 928.660364 -315.690034 
L 927.995193 -311.447861 
L 927.228991 -307.205687 
L 926.368525 -302.963514 
L 925.423275 -298.721341 
L 924.405005 -294.479167 
L 923.327248 -290.236994 
L 922.204733 -285.99482 
L 921.052805 -281.752647 
L 919.886854 -277.510473 
L 918.7218 -273.2683 
L 917.571642 -269.026127 
L 916.449091 -264.783953 
L 915.365305 -260.54178 
L 914.329702 -256.299606 
L 913.349879 -252.057433 
L 912.431598 -247.81526 
L 911.578847 -243.573086 
L 910.793952 -239.330913 
L 910.07773 -235.088739 
L 909.429671 -230.846566 
L 908.848131 -226.604392 
L 908.330534 -222.362219 
L 907.873563 -218.120046 
L 907.473354 -213.877872 
L 907.125661 -209.635699 
L 906.826013 -205.393525 
L 906.569847 -201.151352 
L 906.352625 -196.909179 
L 906.169931 -192.667005 
L 906.017541 -188.424832 
z
" style="stroke: #3f3f3f; stroke-width: 1.25"/>
    </defs>
    <g clip-path="url(#p10f437c5ed)">
     <use xlink:href="#m9106888b4b" x="0" y="720" style="fill: #3274a1; stroke: #3f3f3f; stroke-width: 1.25"/>
    </g>
   </g>
   <g id="PolyCollection_8">
    <defs>
     <path id="m6d44220faf" d="M 1017.612313 -104.4 
L 1016.387687 -104.4 
L 1016.267452 -109.023409 
L 1016.130469 -113.646817 
L 1015.975896 -118.270226 
L 1015.803145 -122.893634 
L 1015.611937 -127.517043 
L 1015.402339 -132.140451 
L 1015.1748 -136.76386 
L 1014.930161 -141.387268 
L 1014.669654 -146.010677 
L 1014.394881 -150.634085 
L 1014.107764 -155.257494 
L 1013.81048 -159.880902 
L 1013.505376 -164.504311 
L 1013.19486 -169.127719 
L 1012.881288 -173.751128 
L 1012.566841 -178.374536 
L 1012.253403 -182.997945 
L 1011.942447 -187.621353 
L 1011.634943 -192.244762 
L 1011.331282 -196.86817 
L 1011.031235 -201.491579 
L 1010.733949 -206.114987 
L 1010.437972 -210.738396 
L 1010.141323 -215.361804 
L 1009.841594 -219.985213 
L 1009.53608 -224.608621 
L 1009.221935 -229.23203 
L 1008.896337 -233.855438 
L 1008.556657 -238.478847 
L 1008.200622 -243.102255 
L 1007.826453 -247.725664 
L 1007.432977 -252.349072 
L 1007.019704 -256.972481 
L 1006.586851 -261.595889 
L 1006.135328 -266.219298 
L 1005.666678 -270.842706 
L 1005.182964 -275.466115 
L 1004.686633 -280.089523 
L 1004.180342 -284.712932 
L 1003.666775 -289.336341 
L 1003.148453 -293.959749 
L 1002.627564 -298.583158 
L 1002.105805 -303.206566 
L 1001.584275 -307.829975 
L 1001.063408 -312.453383 
L 1000.542964 -317.076792 
L 1000.022083 -321.7002 
L 999.499394 -326.323609 
L 998.973189 -330.947017 
L 998.441636 -335.570426 
L 997.903036 -340.193834 
L 997.356106 -344.817243 
L 996.800258 -349.440651 
L 996.235873 -354.06406 
L 995.664546 -358.687468 
L 995.089274 -363.310877 
L 994.514591 -367.934285 
L 993.946615 -372.557694 
L 993.393024 -377.181102 
L 992.862934 -381.804511 
L 992.366694 -386.427919 
L 991.915603 -391.051328 
L 991.521556 -395.674736 
L 991.196634 -400.298145 
L 990.952666 -404.921553 
L 990.800772 -409.544962 
L 990.750911 -414.16837 
L 990.811463 -418.791779 
L 990.988862 -423.415187 
L 991.28729 -428.038596 
L 991.708456 -432.662004 
L 992.251471 -437.285413 
L 992.912816 -441.908821 
L 993.686406 -446.53223 
L 994.563758 -451.155638 
L 995.534236 -455.779047 
L 996.585373 -460.402456 
L 997.703253 -465.025864 
L 998.87293 -469.649273 
L 1000.078873 -474.272681 
L 1001.30541 -478.89609 
L 1002.537157 -483.519498 
L 1003.759421 -488.142907 
L 1004.958548 -492.766315 
L 1006.122216 -497.389724 
L 1007.23967 -502.013132 
L 1008.301876 -506.636541 
L 1009.301618 -511.259949 
L 1010.233512 -515.883358 
L 1011.093973 -520.506766 
L 1011.88112 -525.130175 
L 1012.594632 -529.753583 
L 1013.23558 -534.376992 
L 1013.806223 -539.0004 
L 1014.309802 -543.623809 
L 1014.750322 -548.247217 
L 1015.132345 -552.870626 
L 1015.460789 -557.494034 
L 1015.740757 -562.117443 
L 1018.259243 -562.117443 
L 1018.259243 -562.117443 
L 1018.539211 -557.494034 
L 1018.867655 -552.870626 
L 1019.249678 -548.247217 
L 1019.690198 -543.623809 
L 1020.193777 -539.0004 
L 1020.76442 -534.376992 
L 1021.405368 -529.753583 
L 1022.11888 -525.130175 
L 1022.906027 -520.506766 
L 1023.766488 -515.883358 
L 1024.698382 -511.259949 
L 1025.698124 -506.636541 
L 1026.76033 -502.013132 
L 1027.877784 -497.389724 
L 1029.041452 -492.766315 
L 1030.240579 -488.142907 
L 1031.462843 -483.519498 
L 1032.69459 -478.89609 
L 1033.921127 -474.272681 
L 1035.12707 -469.649273 
L 1036.296747 -465.025864 
L 1037.414627 -460.402456 
L 1038.465764 -455.779047 
L 1039.436242 -451.155638 
L 1040.313594 -446.53223 
L 1041.087184 -441.908821 
L 1041.748529 -437.285413 
L 1042.291544 -432.662004 
L 1042.71271 -428.038596 
L 1043.011138 -423.415187 
L 1043.188537 -418.791779 
L 1043.249089 -414.16837 
L 1043.199228 -409.544962 
L 1043.047334 -404.921553 
L 1042.803366 -400.298145 
L 1042.478444 -395.674736 
L 1042.084397 -391.051328 
L 1041.633306 -386.427919 
L 1041.137066 -381.804511 
L 1040.606976 -377.181102 
L 1040.053385 -372.557694 
L 1039.485409 -367.934285 
L 1038.910726 -363.310877 
L 1038.335454 -358.687468 
L 1037.764127 -354.06406 
L 1037.199742 -349.440651 
L 1036.643894 -344.817243 
L 1036.096964 -340.193834 
L 1035.558364 -335.570426 
L 1035.026811 -330.947017 
L 1034.500606 -326.323609 
L 1033.977917 -321.7002 
L 1033.457036 -317.076792 
L 1032.936592 -312.453383 
L 1032.415725 -307.829975 
L 1031.894195 -303.206566 
L 1031.372436 -298.583158 
L 1030.851547 -293.959749 
L 1030.333225 -289.336341 
L 1029.819658 -284.712932 
L 1029.313367 -280.089523 
L 1028.817036 -275.466115 
L 1028.333322 -270.842706 
L 1027.864672 -266.219298 
L 1027.413149 -261.595889 
L 1026.980296 -256.972481 
L 1026.567023 -252.349072 
L 1026.173547 -247.725664 
L 1025.799378 -243.102255 
L 1025.443343 -238.478847 
L 1025.103663 -233.855438 
L 1024.778065 -229.23203 
L 1024.46392 -224.608621 
L 1024.158406 -219.985213 
L 1023.858677 -215.361804 
L 1023.562028 -210.738396 
L 1023.266051 -206.114987 
L 1022.968765 -201.491579 
L 1022.668718 -196.86817 
L 1022.365057 -192.244762 
L 1022.057553 -187.621353 
L 1021.746597 -182.997945 
L 1021.433159 -178.374536 
L 1021.118712 -173.751128 
L 1020.80514 -169.127719 
L 1020.494624 -164.504311 
L 1020.18952 -159.880902 
L 1019.892236 -155.257494 
L 1019.605119 -150.634085 
L 1019.330346 -146.010677 
L 1019.069839 -141.387268 
L 1018.8252 -136.76386 
L 1018.597661 -132.140451 
L 1018.388063 -127.517043 
L 1018.196855 -122.893634 
L 1018.024104 -118.270226 
L 1017.869531 -113.646817 
L 1017.732548 -109.023409 
L 1017.612313 -104.4 
z
" style="stroke: #3f3f3f; stroke-width: 1.25"/>
    </defs>
    <g clip-path="url(#p10f437c5ed)">
     <use xlink:href="#m6d44220faf" x="0" y="720" style="fill: #3274a1; stroke: #3f3f3f; stroke-width: 1.25"/>
    </g>
   </g>
   <g id="PolyCollection_9">
    <defs>
     <path id="m3e31a3d0ba" d="M 1130.030788 -238.152974 
L 1127.169212 -238.152974 
L 1126.846975 -240.522224 
L 1126.466564 -242.891474 
L 1126.020871 -245.260724 
L 1125.502646 -247.629974 
L 1124.904652 -249.999224 
L 1124.21985 -252.368474 
L 1123.441615 -254.737725 
L 1122.563976 -257.106975 
L 1121.581863 -259.476225 
L 1120.491381 -261.845475 
L 1119.290076 -264.214725 
L 1117.977198 -266.583975 
L 1116.553949 -268.953225 
L 1115.0237 -271.322475 
L 1113.392171 -273.691725 
L 1111.667551 -276.060975 
L 1109.860565 -278.430226 
L 1107.984459 -280.799476 
L 1106.05491 -283.168726 
L 1104.089843 -285.537976 
L 1102.109167 -287.907226 
L 1100.134416 -290.276476 
L 1098.188315 -292.645726 
L 1096.294268 -295.014976 
L 1094.475788 -297.384226 
L 1092.755895 -299.753477 
L 1091.156476 -302.122727 
L 1089.697668 -304.491977 
L 1088.397252 -306.861227 
L 1087.27011 -309.230477 
L 1086.327752 -311.599727 
L 1085.577949 -313.968977 
L 1085.024474 -316.338227 
L 1084.66698 -318.707477 
L 1084.501016 -321.076727 
L 1084.518176 -323.445978 
L 1084.706395 -325.815228 
L 1085.050356 -328.184478 
L 1085.532013 -330.553728 
L 1086.131197 -332.922978 
L 1086.826276 -335.292228 
L 1087.594847 -337.661478 
L 1088.414435 -340.030728 
L 1089.263152 -342.399978 
L 1090.120313 -344.769229 
L 1090.96697 -347.138479 
L 1091.786357 -349.507729 
L 1092.564223 -351.876979 
L 1093.289063 -354.246229 
L 1093.952234 -356.615479 
L 1094.547973 -358.984729 
L 1095.073316 -361.353979 
L 1095.527943 -363.723229 
L 1095.913966 -366.09248 
L 1096.23567 -368.46173 
L 1096.499225 -370.83098 
L 1096.712401 -373.20023 
L 1096.884266 -375.56948 
L 1097.024916 -377.93873 
L 1097.145201 -380.30798 
L 1097.256491 -382.67723 
L 1097.370435 -385.04648 
L 1097.498756 -387.41573 
L 1097.653033 -389.784981 
L 1097.844501 -392.154231 
L 1098.083837 -394.523481 
L 1098.380948 -396.892731 
L 1098.744751 -399.261981 
L 1099.182951 -401.631231 
L 1099.701824 -404.000481 
L 1100.306014 -406.369731 
L 1100.998348 -408.738981 
L 1101.779696 -411.108232 
L 1102.648873 -413.477482 
L 1103.602598 -415.846732 
L 1104.63552 -418.215982 
L 1105.740324 -420.585232 
L 1106.907888 -422.954482 
L 1108.127534 -425.323732 
L 1109.387315 -427.692982 
L 1110.674366 -430.062232 
L 1111.97528 -432.431482 
L 1113.276501 -434.800733 
L 1114.564722 -437.169983 
L 1115.82725 -439.539233 
L 1117.052346 -441.908483 
L 1118.229511 -444.277733 
L 1119.349715 -446.646983 
L 1120.405552 -449.016233 
L 1121.391335 -451.385483 
L 1122.303115 -453.754733 
L 1123.13864 -456.123984 
L 1123.897261 -458.493234 
L 1124.57978 -460.862484 
L 1125.188279 -463.231734 
L 1125.725912 -465.600984 
L 1126.196692 -467.970234 
L 1126.605273 -470.339484 
L 1126.956743 -472.708734 
L 1130.243257 -472.708734 
L 1130.243257 -472.708734 
L 1130.594727 -470.339484 
L 1131.003308 -467.970234 
L 1131.474088 -465.600984 
L 1132.011721 -463.231734 
L 1132.62022 -460.862484 
L 1133.302739 -458.493234 
L 1134.06136 -456.123984 
L 1134.896885 -453.754733 
L 1135.808665 -451.385483 
L 1136.794448 -449.016233 
L 1137.850285 -446.646983 
L 1138.970489 -444.277733 
L 1140.147654 -441.908483 
L 1141.37275 -439.539233 
L 1142.635278 -437.169983 
L 1143.923499 -434.800733 
L 1145.22472 -432.431482 
L 1146.525634 -430.062232 
L 1147.812685 -427.692982 
L 1149.072466 -425.323732 
L 1150.292112 -422.954482 
L 1151.459676 -420.585232 
L 1152.56448 -418.215982 
L 1153.597402 -415.846732 
L 1154.551127 -413.477482 
L 1155.420304 -411.108232 
L 1156.201652 -408.738981 
L 1156.893986 -406.369731 
L 1157.498176 -404.000481 
L 1158.017049 -401.631231 
L 1158.455249 -399.261981 
L 1158.819052 -396.892731 
L 1159.116163 -394.523481 
L 1159.355499 -392.154231 
L 1159.546967 -389.784981 
L 1159.701244 -387.41573 
L 1159.829565 -385.04648 
L 1159.943509 -382.67723 
L 1160.054799 -380.30798 
L 1160.175084 -377.93873 
L 1160.315734 -375.56948 
L 1160.487599 -373.20023 
L 1160.700775 -370.83098 
L 1160.96433 -368.46173 
L 1161.286034 -366.09248 
L 1161.672057 -363.723229 
L 1162.126684 -361.353979 
L 1162.652027 -358.984729 
L 1163.247766 -356.615479 
L 1163.910937 -354.246229 
L 1164.635777 -351.876979 
L 1165.413643 -349.507729 
L 1166.23303 -347.138479 
L 1167.079687 -344.769229 
L 1167.936848 -342.399978 
L 1168.785565 -340.030728 
L 1169.605153 -337.661478 
L 1170.373724 -335.292228 
L 1171.068803 -332.922978 
L 1171.667987 -330.553728 
L 1172.149644 -328.184478 
L 1172.493605 -325.815228 
L 1172.681824 -323.445978 
L 1172.698984 -321.076727 
L 1172.53302 -318.707477 
L 1172.175526 -316.338227 
L 1171.622051 -313.968977 
L 1170.872248 -311.599727 
L 1169.92989 -309.230477 
L 1168.802748 -306.861227 
L 1167.502332 -304.491977 
L 1166.043524 -302.122727 
L 1164.444105 -299.753477 
L 1162.724212 -297.384226 
L 1160.905732 -295.014976 
L 1159.011685 -292.645726 
L 1157.065584 -290.276476 
L 1155.090833 -287.907226 
L 1153.110157 -285.537976 
L 1151.14509 -283.168726 
L 1149.215541 -280.799476 
L 1147.339435 -278.430226 
L 1145.532449 -276.060975 
L 1143.807829 -273.691725 
L 1142.1763 -271.322475 
L 1140.646051 -268.953225 
L 1139.222802 -266.583975 
L 1137.909924 -264.214725 
L 1136.708619 -261.845475 
L 1135.618137 -259.476225 
L 1134.636024 -257.106975 
L 1133.758385 -254.737725 
L 1132.98015 -252.368474 
L 1132.295348 -249.999224 
L 1131.697354 -247.629974 
L 1131.179129 -245.260724 
L 1130.733436 -242.891474 
L 1130.353025 -240.522224 
L 1130.030788 -238.152974 
z
" style="stroke: #3f3f3f; stroke-width: 1.25"/>
    </defs>
    <g clip-path="url(#p10f437c5ed)">
     <use xlink:href="#m3e31a3d0ba" x="0" y="720" style="fill: #3274a1; stroke: #3f3f3f; stroke-width: 1.25"/>
    </g>
   </g>
   <g id="PolyCollection_10">
    <defs>
     <path id="m0e5603e317" d="M 1240.956801 -202.323998 
L 1239.443199 -202.323998 
L 1239.266404 -205.250644 
L 1239.06146 -208.17729 
L 1238.827341 -211.103936 
L 1238.563865 -214.030582 
L 1238.271854 -216.957228 
L 1237.95326 -219.883875 
L 1237.611225 -222.810521 
L 1237.250075 -225.737167 
L 1236.875224 -228.663813 
L 1236.492975 -231.590459 
L 1236.110236 -234.517105 
L 1235.73413 -237.443751 
L 1235.371539 -240.370397 
L 1235.028592 -243.297043 
L 1234.710138 -246.223689 
L 1234.419226 -249.150335 
L 1234.156656 -252.076981 
L 1233.920613 -255.003627 
L 1233.706441 -257.930273 
L 1233.506567 -260.856919 
L 1233.31061 -263.783565 
L 1233.105657 -266.710212 
L 1232.876723 -269.636858 
L 1232.60735 -272.563504 
L 1232.280331 -275.49015 
L 1231.878507 -278.416796 
L 1231.38559 -281.343442 
L 1230.786972 -284.270088 
L 1230.07046 -287.196734 
L 1229.226906 -290.12338 
L 1228.250696 -293.050026 
L 1227.140062 -295.976672 
L 1225.897229 -298.903318 
L 1224.52837 -301.829964 
L 1223.043401 -304.75661 
L 1221.455616 -307.683256 
L 1219.781205 -310.609902 
L 1218.038677 -313.536549 
L 1216.248217 -316.463195 
L 1214.431033 -319.389841 
L 1212.608692 -322.316487 
L 1210.802516 -325.243133 
L 1209.033023 -328.169779 
L 1207.319467 -331.096425 
L 1205.679475 -334.023071 
L 1204.12879 -336.949717 
L 1202.681128 -339.876363 
L 1201.348135 -342.803009 
L 1200.139445 -345.729655 
L 1199.0628 -348.656301 
L 1198.124225 -351.582947 
L 1197.328231 -354.509593 
L 1196.678003 -357.436239 
L 1196.175567 -360.362886 
L 1195.821912 -363.289532 
L 1195.617046 -366.216178 
L 1195.56 -369.142824 
L 1195.648776 -372.06947 
L 1195.880267 -374.996116 
L 1196.250171 -377.922762 
L 1196.752923 -380.849408 
L 1197.381684 -383.776054 
L 1198.128398 -386.7027 
L 1198.983947 -389.629346 
L 1199.938383 -392.555992 
L 1200.981251 -395.482638 
L 1202.10196 -398.409284 
L 1203.290168 -401.33593 
L 1204.536163 -404.262576 
L 1205.831162 -407.189223 
L 1207.167531 -410.115869 
L 1208.538866 -413.042515 
L 1209.939952 -415.969161 
L 1211.366579 -418.895807 
L 1212.81525 -421.822453 
L 1214.282805 -424.749099 
L 1215.766014 -427.675745 
L 1217.261166 -430.602391 
L 1218.763724 -433.529037 
L 1220.268068 -436.455683 
L 1221.767368 -439.382329 
L 1223.253586 -442.308975 
L 1224.717628 -445.235621 
L 1226.149617 -448.162267 
L 1227.539265 -451.088913 
L 1228.876312 -454.01556 
L 1230.150986 -456.942206 
L 1231.354453 -459.868852 
L 1232.479209 -462.795498 
L 1233.519394 -465.722144 
L 1234.471006 -468.64879 
L 1235.331993 -471.575436 
L 1236.102252 -474.502082 
L 1236.783509 -477.428728 
L 1237.379124 -480.355374 
L 1237.893831 -483.28202 
L 1238.333434 -486.208666 
L 1238.704496 -489.135312 
L 1239.014022 -492.061958 
L 1241.385978 -492.061958 
L 1241.385978 -492.061958 
L 1241.695504 -489.135312 
L 1242.066566 -486.208666 
L 1242.506169 -483.28202 
L 1243.020876 -480.355374 
L 1243.616491 -477.428728 
L 1244.297748 -474.502082 
L 1245.068007 -471.575436 
L 1245.928994 -468.64879 
L 1246.880606 -465.722144 
L 1247.920791 -462.795498 
L 1249.045547 -459.868852 
L 1250.249014 -456.942206 
L 1251.523688 -454.01556 
L 1252.860735 -451.088913 
L 1254.250383 -448.162267 
L 1255.682372 -445.235621 
L 1257.146414 -442.308975 
L 1258.632632 -439.382329 
L 1260.131932 -436.455683 
L 1261.636276 -433.529037 
L 1263.138834 -430.602391 
L 1264.633986 -427.675745 
L 1266.117195 -424.749099 
L 1267.58475 -421.822453 
L 1269.033421 -418.895807 
L 1270.460048 -415.969161 
L 1271.861134 -413.042515 
L 1273.232469 -410.115869 
L 1274.568838 -407.189223 
L 1275.863837 -404.262576 
L 1277.109832 -401.33593 
L 1278.29804 -398.409284 
L 1279.418749 -395.482638 
L 1280.461617 -392.555992 
L 1281.416053 -389.629346 
L 1282.271602 -386.7027 
L 1283.018316 -383.776054 
L 1283.647077 -380.849408 
L 1284.149829 -377.922762 
L 1284.519733 -374.996116 
L 1284.751224 -372.06947 
L 1284.84 -369.142824 
L 1284.782954 -366.216178 
L 1284.578088 -363.289532 
L 1284.224433 -360.362886 
L 1283.721997 -357.436239 
L 1283.071769 -354.509593 
L 1282.275775 -351.582947 
L 1281.3372 -348.656301 
L 1280.260555 -345.729655 
L 1279.051865 -342.803009 
L 1277.718872 -339.876363 
L 1276.27121 -336.949717 
L 1274.720525 -334.023071 
L 1273.080533 -331.096425 
L 1271.366977 -328.169779 
L 1269.597484 -325.243133 
L 1267.791308 -322.316487 
L 1265.968967 -319.389841 
L 1264.151783 -316.463195 
L 1262.361323 -313.536549 
L 1260.618795 -310.609902 
L 1258.944384 -307.683256 
L 1257.356599 -304.75661 
L 1255.87163 -301.829964 
L 1254.502771 -298.903318 
L 1253.259938 -295.976672 
L 1252.149304 -293.050026 
L 1251.173094 -290.12338 
L 1250.32954 -287.196734 
L 1249.613028 -284.270088 
L 1249.01441 -281.343442 
L 1248.521493 -278.416796 
L 1248.119669 -275.49015 
L 1247.79265 -272.563504 
L 1247.523277 -269.636858 
L 1247.294343 -266.710212 
L 1247.08939 -263.783565 
L 1246.893433 -260.856919 
L 1246.693559 -257.930273 
L 1246.479387 -255.003627 
L 1246.243344 -252.076981 
L 1245.980774 -249.150335 
L 1245.689862 -246.223689 
L 1245.371408 -243.297043 
L 1245.028461 -240.370397 
L 1244.66587 -237.443751 
L 1244.289764 -234.517105 
L 1243.907025 -231.590459 
L 1243.524776 -228.663813 
L 1243.149925 -225.737167 
L 1242.788775 -222.810521 
L 1242.44674 -219.883875 
L 1242.128146 -216.957228 
L 1241.836135 -214.030582 
L 1241.572659 -211.103936 
L 1241.33854 -208.17729 
L 1241.133596 -205.250644 
L 1240.956801 -202.323998 
z
" style="stroke: #3f3f3f; stroke-width: 1.25"/>
    </defs>
    <g clip-path="url(#p10f437c5ed)">
     <use xlink:href="#m0e5603e317" x="0" y="720" style="fill: #3274a1; stroke: #3f3f3f; stroke-width: 1.25"/>
    </g>
   </g>
   <g id="matplotlib.axis_1">
    <g id="xtick_1">
     <g id="line2d_1">
      <defs>
       <path id="m6dec6a0d2f" d="M 0 0 
L 0 3.5 
" style="stroke: #000000; stroke-width: 0.8"/>
      </defs>
      <g>
       <use xlink:href="#m6dec6a0d2f" x="235.8" y="640.8" style="stroke: #000000; stroke-width: 0.8"/>
      </g>
     </g>
     <g id="text_1">
      <!-- 0 -->
      <g transform="translate(232.61875 655.398438) scale(0.1 -0.1)">
       <defs>
        <path id="DejaVuSans-30" d="M 2034 4250 
Q 1547 4250 1301 3770 
Q 1056 3291 1056 2328 
Q 1056 1369 1301 889 
Q 1547 409 2034 409 
Q 2525 409 2770 889 
Q 3016 1369 3016 2328 
Q 3016 3291 2770 3770 
Q 2525 4250 2034 4250 
z
M 2034 4750 
Q 2819 4750 3233 4129 
Q 3647 3509 3647 2328 
Q 3647 1150 3233 529 
Q 2819 -91 2034 -91 
Q 1250 -91 836 529 
Q 422 1150 422 2328 
Q 422 3509 836 4129 
Q 1250 4750 2034 4750 
z
" transform="scale(0.015625)"/>
       </defs>
       <use xlink:href="#DejaVuSans-30"/>
      </g>
     </g>
    </g>
    <g id="xtick_2">
     <g id="line2d_2">
      <g>
       <use xlink:href="#m6dec6a0d2f" x="347.4" y="640.8" style="stroke: #000000; stroke-width: 0.8"/>
      </g>
     </g>
     <g id="text_2">
      <!-- 1 -->
      <g transform="translate(344.21875 655.398438) scale(0.1 -0.1)">
       <defs>
        <path id="DejaVuSans-31" d="M 794 531 
L 1825 531 
L 1825 4091 
L 703 3866 
L 703 4441 
L 1819 4666 
L 2450 4666 
L 2450 531 
L 3481 531 
L 3481 0 
L 794 0 
L 794 531 
z
" transform="scale(0.015625)"/>
       </defs>
       <use xlink:href="#DejaVuSans-31"/>
      </g>
     </g>
    </g>
    <g id="xtick_3">
     <g id="line2d_3">
      <g>
       <use xlink:href="#m6dec6a0d2f" x="459" y="640.8" style="stroke: #000000; stroke-width: 0.8"/>
      </g>
     </g>
     <g id="text_3">
      <!-- 2 -->
      <g transform="translate(455.81875 655.398438) scale(0.1 -0.1)">
       <defs>
        <path id="DejaVuSans-32" d="M 1228 531 
L 3431 531 
L 3431 0 
L 469 0 
L 469 531 
Q 828 903 1448 1529 
Q 2069 2156 2228 2338 
Q 2531 2678 2651 2914 
Q 2772 3150 2772 3378 
Q 2772 3750 2511 3984 
Q 2250 4219 1831 4219 
Q 1534 4219 1204 4116 
Q 875 4013 500 3803 
L 500 4441 
Q 881 4594 1212 4672 
Q 1544 4750 1819 4750 
Q 2544 4750 2975 4387 
Q 3406 4025 3406 3419 
Q 3406 3131 3298 2873 
Q 3191 2616 2906 2266 
Q 2828 2175 2409 1742 
Q 1991 1309 1228 531 
z
" transform="scale(0.015625)"/>
       </defs>
       <use xlink:href="#DejaVuSans-32"/>
      </g>
     </g>
    </g>
    <g id="xtick_4">
     <g id="line2d_4">
      <g>
       <use xlink:href="#m6dec6a0d2f" x="570.6" y="640.8" style="stroke: #000000; stroke-width: 0.8"/>
      </g>
     </g>
     <g id="text_4">
      <!-- 3 -->
      <g transform="translate(567.41875 655.398438) scale(0.1 -0.1)">
       <defs>
        <path id="DejaVuSans-33" d="M 2597 2516 
Q 3050 2419 3304 2112 
Q 3559 1806 3559 1356 
Q 3559 666 3084 287 
Q 2609 -91 1734 -91 
Q 1441 -91 1130 -33 
Q 819 25 488 141 
L 488 750 
Q 750 597 1062 519 
Q 1375 441 1716 441 
Q 2309 441 2620 675 
Q 2931 909 2931 1356 
Q 2931 1769 2642 2001 
Q 2353 2234 1838 2234 
L 1294 2234 
L 1294 2753 
L 1863 2753 
Q 2328 2753 2575 2939 
Q 2822 3125 2822 3475 
Q 2822 3834 2567 4026 
Q 2313 4219 1838 4219 
Q 1578 4219 1281 4162 
Q 984 4106 628 3988 
L 628 4550 
Q 988 4650 1302 4700 
Q 1616 4750 1894 4750 
Q 2613 4750 3031 4423 
Q 3450 4097 3450 3541 
Q 3450 3153 3228 2886 
Q 3006 2619 2597 2516 
z
" transform="scale(0.015625)"/>
       </defs>
       <use xlink:href="#DejaVuSans-33"/>
      </g>
     </g>
    </g>
    <g id="xtick_5">
     <g id="line2d_5">
      <g>
       <use xlink:href="#m6dec6a0d2f" x="682.2" y="640.8" style="stroke: #000000; stroke-width: 0.8"/>
      </g>
     </g>
     <g id="text_5">
      <!-- 4 -->
      <g transform="translate(679.01875 655.398438) scale(0.1 -0.1)">
       <defs>
        <path id="DejaVuSans-34" d="M 2419 4116 
L 825 1625 
L 2419 1625 
L 2419 4116 
z
M 2253 4666 
L 3047 4666 
L 3047 1625 
L 3713 1625 
L 3713 1100 
L 3047 1100 
L 3047 0 
L 2419 0 
L 2419 1100 
L 313 1100 
L 313 1709 
L 2253 4666 
z
" transform="scale(0.015625)"/>
       </defs>
       <use xlink:href="#DejaVuSans-34"/>
      </g>
     </g>
    </g>
    <g id="xtick_6">
     <g id="line2d_6">
      <g>
       <use xlink:href="#m6dec6a0d2f" x="793.8" y="640.8" style="stroke: #000000; stroke-width: 0.8"/>
      </g>
     </g>
     <g id="text_6">
      <!-- 5 -->
      <g transform="translate(790.61875 655.398438) scale(0.1 -0.1)">
       <defs>
        <path id="DejaVuSans-35" d="M 691 4666 
L 3169 4666 
L 3169 4134 
L 1269 4134 
L 1269 2991 
Q 1406 3038 1543 3061 
Q 1681 3084 1819 3084 
Q 2600 3084 3056 2656 
Q 3513 2228 3513 1497 
Q 3513 744 3044 326 
Q 2575 -91 1722 -91 
Q 1428 -91 1123 -41 
Q 819 9 494 109 
L 494 744 
Q 775 591 1075 516 
Q 1375 441 1709 441 
Q 2250 441 2565 725 
Q 2881 1009 2881 1497 
Q 2881 1984 2565 2268 
Q 2250 2553 1709 2553 
Q 1456 2553 1204 2497 
Q 953 2441 691 2322 
L 691 4666 
z
" transform="scale(0.015625)"/>
       </defs>
       <use xlink:href="#DejaVuSans-35"/>
      </g>
     </g>
    </g>
    <g id="xtick_7">
     <g id="line2d_7">
      <g>
       <use xlink:href="#m6dec6a0d2f" x="905.4" y="640.8" style="stroke: #000000; stroke-width: 0.8"/>
      </g>
     </g>
     <g id="text_7">
      <!-- 6 -->
      <g transform="translate(902.21875 655.398438) scale(0.1 -0.1)">
       <defs>
        <path id="DejaVuSans-36" d="M 2113 2584 
Q 1688 2584 1439 2293 
Q 1191 2003 1191 1497 
Q 1191 994 1439 701 
Q 1688 409 2113 409 
Q 2538 409 2786 701 
Q 3034 994 3034 1497 
Q 3034 2003 2786 2293 
Q 2538 2584 2113 2584 
z
M 3366 4563 
L 3366 3988 
Q 3128 4100 2886 4159 
Q 2644 4219 2406 4219 
Q 1781 4219 1451 3797 
Q 1122 3375 1075 2522 
Q 1259 2794 1537 2939 
Q 1816 3084 2150 3084 
Q 2853 3084 3261 2657 
Q 3669 2231 3669 1497 
Q 3669 778 3244 343 
Q 2819 -91 2113 -91 
Q 1303 -91 875 529 
Q 447 1150 447 2328 
Q 447 3434 972 4092 
Q 1497 4750 2381 4750 
Q 2619 4750 2861 4703 
Q 3103 4656 3366 4563 
z
" transform="scale(0.015625)"/>
       </defs>
       <use xlink:href="#DejaVuSans-36"/>
      </g>
     </g>
    </g>
    <g id="xtick_8">
     <g id="line2d_8">
      <g>
       <use xlink:href="#m6dec6a0d2f" x="1017" y="640.8" style="stroke: #000000; stroke-width: 0.8"/>
      </g>
     </g>
     <g id="text_8">
      <!-- 7 -->
      <g transform="translate(1013.81875 655.398438) scale(0.1 -0.1)">
       <defs>
        <path id="DejaVuSans-37" d="M 525 4666 
L 3525 4666 
L 3525 4397 
L 1831 0 
L 1172 0 
L 2766 4134 
L 525 4134 
L 525 4666 
z
" transform="scale(0.015625)"/>
       </defs>
       <use xlink:href="#DejaVuSans-37"/>
      </g>
     </g>
    </g>
    <g id="xtick_9">
     <g id="line2d_9">
      <g>
       <use xlink:href="#m6dec6a0d2f" x="1128.6" y="640.8" style="stroke: #000000; stroke-width: 0.8"/>
      </g>
     </g>
     <g id="text_9">
      <!-- 8 -->
      <g transform="translate(1125.41875 655.398438) scale(0.1 -0.1)">
       <defs>
        <path id="DejaVuSans-38" d="M 2034 2216 
Q 1584 2216 1326 1975 
Q 1069 1734 1069 1313 
Q 1069 891 1326 650 
Q 1584 409 2034 409 
Q 2484 409 2743 651 
Q 3003 894 3003 1313 
Q 3003 1734 2745 1975 
Q 2488 2216 2034 2216 
z
M 1403 2484 
Q 997 2584 770 2862 
Q 544 3141 544 3541 
Q 544 4100 942 4425 
Q 1341 4750 2034 4750 
Q 2731 4750 3128 4425 
Q 3525 4100 3525 3541 
Q 3525 3141 3298 2862 
Q 3072 2584 2669 2484 
Q 3125 2378 3379 2068 
Q 3634 1759 3634 1313 
Q 3634 634 3220 271 
Q 2806 -91 2034 -91 
Q 1263 -91 848 271 
Q 434 634 434 1313 
Q 434 1759 690 2068 
Q 947 2378 1403 2484 
z
M 1172 3481 
Q 1172 3119 1398 2916 
Q 1625 2713 2034 2713 
Q 2441 2713 2670 2916 
Q 2900 3119 2900 3481 
Q 2900 3844 2670 4047 
Q 2441 4250 2034 4250 
Q 1625 4250 1398 4047 
Q 1172 3844 1172 3481 
z
" transform="scale(0.015625)"/>
       </defs>
       <use xlink:href="#DejaVuSans-38"/>
      </g>
     </g>
    </g>
    <g id="xtick_10">
     <g id="line2d_10">
      <g>
       <use xlink:href="#m6dec6a0d2f" x="1240.2" y="640.8" style="stroke: #000000; stroke-width: 0.8"/>
      </g>
     </g>
     <g id="text_10">
      <!-- 9 -->
      <g transform="translate(1237.01875 655.398438) scale(0.1 -0.1)">
       <defs>
        <path id="DejaVuSans-39" d="M 703 97 
L 703 672 
Q 941 559 1184 500 
Q 1428 441 1663 441 
Q 2288 441 2617 861 
Q 2947 1281 2994 2138 
Q 2813 1869 2534 1725 
Q 2256 1581 1919 1581 
Q 1219 1581 811 2004 
Q 403 2428 403 3163 
Q 403 3881 828 4315 
Q 1253 4750 1959 4750 
Q 2769 4750 3195 4129 
Q 3622 3509 3622 2328 
Q 3622 1225 3098 567 
Q 2575 -91 1691 -91 
Q 1453 -91 1209 -44 
Q 966 3 703 97 
z
M 1959 2075 
Q 2384 2075 2632 2365 
Q 2881 2656 2881 3163 
Q 2881 3666 2632 3958 
Q 2384 4250 1959 4250 
Q 1534 4250 1286 3958 
Q 1038 3666 1038 3163 
Q 1038 2656 1286 2365 
Q 1534 2075 1959 2075 
z
" transform="scale(0.015625)"/>
       </defs>
       <use xlink:href="#DejaVuSans-39"/>
      </g>
     </g>
    </g>
    <g id="text_11">
     <!-- iteration -->
     <g transform="translate(716.877344 669.076563) scale(0.1 -0.1)">
      <defs>
       <path id="DejaVuSans-69" d="M 603 3500 
L 1178 3500 
L 1178 0 
L 603 0 
L 603 3500 
z
M 603 4863 
L 1178 4863 
L 1178 4134 
L 603 4134 
L 603 4863 
z
" transform="scale(0.015625)"/>
       <path id="DejaVuSans-74" d="M 1172 4494 
L 1172 3500 
L 2356 3500 
L 2356 3053 
L 1172 3053 
L 1172 1153 
Q 1172 725 1289 603 
Q 1406 481 1766 481 
L 2356 481 
L 2356 0 
L 1766 0 
Q 1100 0 847 248 
Q 594 497 594 1153 
L 594 3053 
L 172 3053 
L 172 3500 
L 594 3500 
L 594 4494 
L 1172 4494 
z
" transform="scale(0.015625)"/>
       <path id="DejaVuSans-65" d="M 3597 1894 
L 3597 1613 
L 953 1613 
Q 991 1019 1311 708 
Q 1631 397 2203 397 
Q 2534 397 2845 478 
Q 3156 559 3463 722 
L 3463 178 
Q 3153 47 2828 -22 
Q 2503 -91 2169 -91 
Q 1331 -91 842 396 
Q 353 884 353 1716 
Q 353 2575 817 3079 
Q 1281 3584 2069 3584 
Q 2775 3584 3186 3129 
Q 3597 2675 3597 1894 
z
M 3022 2063 
Q 3016 2534 2758 2815 
Q 2500 3097 2075 3097 
Q 1594 3097 1305 2825 
Q 1016 2553 972 2059 
L 3022 2063 
z
" transform="scale(0.015625)"/>
       <path id="DejaVuSans-72" d="M 2631 2963 
Q 2534 3019 2420 3045 
Q 2306 3072 2169 3072 
Q 1681 3072 1420 2755 
Q 1159 2438 1159 1844 
L 1159 0 
L 581 0 
L 581 3500 
L 1159 3500 
L 1159 2956 
Q 1341 3275 1631 3429 
Q 1922 3584 2338 3584 
Q 2397 3584 2469 3576 
Q 2541 3569 2628 3553 
L 2631 2963 
z
" transform="scale(0.015625)"/>
       <path id="DejaVuSans-61" d="M 2194 1759 
Q 1497 1759 1228 1600 
Q 959 1441 959 1056 
Q 959 750 1161 570 
Q 1363 391 1709 391 
Q 2188 391 2477 730 
Q 2766 1069 2766 1631 
L 2766 1759 
L 2194 1759 
z
M 3341 1997 
L 3341 0 
L 2766 0 
L 2766 531 
Q 2569 213 2275 61 
Q 1981 -91 1556 -91 
Q 1019 -91 701 211 
Q 384 513 384 1019 
Q 384 1609 779 1909 
Q 1175 2209 1959 2209 
L 2766 2209 
L 2766 2266 
Q 2766 2663 2505 2880 
Q 2244 3097 1772 3097 
Q 1472 3097 1187 3025 
Q 903 2953 641 2809 
L 641 3341 
Q 956 3463 1253 3523 
Q 1550 3584 1831 3584 
Q 2591 3584 2966 3190 
Q 3341 2797 3341 1997 
z
" transform="scale(0.015625)"/>
       <path id="DejaVuSans-6f" d="M 1959 3097 
Q 1497 3097 1228 2736 
Q 959 2375 959 1747 
Q 959 1119 1226 758 
Q 1494 397 1959 397 
Q 2419 397 2687 759 
Q 2956 1122 2956 1747 
Q 2956 2369 2687 2733 
Q 2419 3097 1959 3097 
z
M 1959 3584 
Q 2709 3584 3137 3096 
Q 3566 2609 3566 1747 
Q 3566 888 3137 398 
Q 2709 -91 1959 -91 
Q 1206 -91 779 398 
Q 353 888 353 1747 
Q 353 2609 779 3096 
Q 1206 3584 1959 3584 
z
" transform="scale(0.015625)"/>
       <path id="DejaVuSans-6e" d="M 3513 2113 
L 3513 0 
L 2938 0 
L 2938 2094 
Q 2938 2591 2744 2837 
Q 2550 3084 2163 3084 
Q 1697 3084 1428 2787 
Q 1159 2491 1159 1978 
L 1159 0 
L 581 0 
L 581 3500 
L 1159 3500 
L 1159 2956 
Q 1366 3272 1645 3428 
Q 1925 3584 2291 3584 
Q 2894 3584 3203 3211 
Q 3513 2838 3513 2113 
z
" transform="scale(0.015625)"/>
      </defs>
      <use xlink:href="#DejaVuSans-69"/>
      <use xlink:href="#DejaVuSans-74" x="27.783203"/>
      <use xlink:href="#DejaVuSans-65" x="66.992188"/>
      <use xlink:href="#DejaVuSans-72" x="128.515625"/>
      <use xlink:href="#DejaVuSans-61" x="169.628906"/>
      <use xlink:href="#DejaVuSans-74" x="230.908203"/>
      <use xlink:href="#DejaVuSans-69" x="270.117188"/>
      <use xlink:href="#DejaVuSans-6f" x="297.900391"/>
      <use xlink:href="#DejaVuSans-6e" x="359.082031"/>
     </g>
    </g>
   </g>
   <g id="matplotlib.axis_2">
    <g id="ytick_1">
     <g id="line2d_11">
      <defs>
       <path id="m58cb46cd25" d="M 0 0 
L -3.5 0 
" style="stroke: #000000; stroke-width: 0.8"/>
      </defs>
      <g>
       <use xlink:href="#m58cb46cd25" x="180" y="607.894355" style="stroke: #000000; stroke-width: 0.8"/>
      </g>
     </g>
     <g id="text_12">
      <!-- 0.2 -->
      <g transform="translate(148.717187 611.693573) scale(0.1 -0.1)">
       <defs>
        <path id="DejaVuSans-2212" d="M 678 2272 
L 4684 2272 
L 4684 1741 
L 678 1741 
L 678 2272 
z
" transform="scale(0.015625)"/>
        <path id="DejaVuSans-2e" d="M 684 794 
L 1344 794 
L 1344 0 
L 684 0 
L 684 794 
z
" transform="scale(0.015625)"/>
       </defs>
       <use xlink:href="#DejaVuSans-2212"/>
       <use xlink:href="#DejaVuSans-30" x="83.789062"/>
       <use xlink:href="#DejaVuSans-2e" x="147.412109"/>
       <use xlink:href="#DejaVuSans-32" x="179.199219"/>
      </g>
     </g>
    </g>
    <g id="ytick_2">
     <g id="line2d_12">
      <g>
       <use xlink:href="#m58cb46cd25" x="180" y="537.613342" style="stroke: #000000; stroke-width: 0.8"/>
      </g>
     </g>
     <g id="text_13">
      <!-- 0.0 -->
      <g transform="translate(157.096875 541.412561) scale(0.1 -0.1)">
       <use xlink:href="#DejaVuSans-30"/>
       <use xlink:href="#DejaVuSans-2e" x="63.623047"/>
       <use xlink:href="#DejaVuSans-30" x="95.410156"/>
      </g>
     </g>
    </g>
    <g id="ytick_3">
     <g id="line2d_13">
      <g>
       <use xlink:href="#m58cb46cd25" x="180" y="467.33233" style="stroke: #000000; stroke-width: 0.8"/>
      </g>
     </g>
     <g id="text_14">
      <!-- 0.2 -->
      <g transform="translate(157.096875 471.131549) scale(0.1 -0.1)">
       <use xlink:href="#DejaVuSans-30"/>
       <use xlink:href="#DejaVuSans-2e" x="63.623047"/>
       <use xlink:href="#DejaVuSans-32" x="95.410156"/>
      </g>
     </g>
    </g>
    <g id="ytick_4">
     <g id="line2d_14">
      <g>
       <use xlink:href="#m58cb46cd25" x="180" y="397.051318" style="stroke: #000000; stroke-width: 0.8"/>
      </g>
     </g>
     <g id="text_15">
      <!-- 0.4 -->
      <g transform="translate(157.096875 400.850536) scale(0.1 -0.1)">
       <use xlink:href="#DejaVuSans-30"/>
       <use xlink:href="#DejaVuSans-2e" x="63.623047"/>
       <use xlink:href="#DejaVuSans-34" x="95.410156"/>
      </g>
     </g>
    </g>
    <g id="ytick_5">
     <g id="line2d_15">
      <g>
       <use xlink:href="#m58cb46cd25" x="180" y="326.770305" style="stroke: #000000; stroke-width: 0.8"/>
      </g>
     </g>
     <g id="text_16">
      <!-- 0.6 -->
      <g transform="translate(157.096875 330.569524) scale(0.1 -0.1)">
       <use xlink:href="#DejaVuSans-30"/>
       <use xlink:href="#DejaVuSans-2e" x="63.623047"/>
       <use xlink:href="#DejaVuSans-36" x="95.410156"/>
      </g>
     </g>
    </g>
    <g id="ytick_6">
     <g id="line2d_16">
      <g>
       <use xlink:href="#m58cb46cd25" x="180" y="256.489293" style="stroke: #000000; stroke-width: 0.8"/>
      </g>
     </g>
     <g id="text_17">
      <!-- 0.8 -->
      <g transform="translate(157.096875 260.288512) scale(0.1 -0.1)">
       <use xlink:href="#DejaVuSans-30"/>
       <use xlink:href="#DejaVuSans-2e" x="63.623047"/>
       <use xlink:href="#DejaVuSans-38" x="95.410156"/>
      </g>
     </g>
    </g>
    <g id="ytick_7">
     <g id="line2d_17">
      <g>
       <use xlink:href="#m58cb46cd25" x="180" y="186.208281" style="stroke: #000000; stroke-width: 0.8"/>
      </g>
     </g>
     <g id="text_18">
      <!-- 1.0 -->
      <g transform="translate(157.096875 190.007499) scale(0.1 -0.1)">
       <use xlink:href="#DejaVuSans-31"/>
       <use xlink:href="#DejaVuSans-2e" x="63.623047"/>
       <use xlink:href="#DejaVuSans-30" x="95.410156"/>
      </g>
     </g>
    </g>
    <g id="ytick_8">
     <g id="line2d_18">
      <g>
       <use xlink:href="#m58cb46cd25" x="180" y="115.927268" style="stroke: #000000; stroke-width: 0.8"/>
      </g>
     </g>
     <g id="text_19">
      <!-- 1.2 -->
      <g transform="translate(157.096875 119.726487) scale(0.1 -0.1)">
       <use xlink:href="#DejaVuSans-31"/>
       <use xlink:href="#DejaVuSans-2e" x="63.623047"/>
       <use xlink:href="#DejaVuSans-32" x="95.410156"/>
      </g>
     </g>
    </g>
    <g id="text_20">
     <!-- cosine similarity -->
     <g transform="translate(142.6375 404.307031) rotate(-90) scale(0.1 -0.1)">
      <defs>
       <path id="DejaVuSans-63" d="M 3122 3366 
L 3122 2828 
Q 2878 2963 2633 3030 
Q 2388 3097 2138 3097 
Q 1578 3097 1268 2742 
Q 959 2388 959 1747 
Q 959 1106 1268 751 
Q 1578 397 2138 397 
Q 2388 397 2633 464 
Q 2878 531 3122 666 
L 3122 134 
Q 2881 22 2623 -34 
Q 2366 -91 2075 -91 
Q 1284 -91 818 406 
Q 353 903 353 1747 
Q 353 2603 823 3093 
Q 1294 3584 2113 3584 
Q 2378 3584 2631 3529 
Q 2884 3475 3122 3366 
z
" transform="scale(0.015625)"/>
       <path id="DejaVuSans-73" d="M 2834 3397 
L 2834 2853 
Q 2591 2978 2328 3040 
Q 2066 3103 1784 3103 
Q 1356 3103 1142 2972 
Q 928 2841 928 2578 
Q 928 2378 1081 2264 
Q 1234 2150 1697 2047 
L 1894 2003 
Q 2506 1872 2764 1633 
Q 3022 1394 3022 966 
Q 3022 478 2636 193 
Q 2250 -91 1575 -91 
Q 1294 -91 989 -36 
Q 684 19 347 128 
L 347 722 
Q 666 556 975 473 
Q 1284 391 1588 391 
Q 1994 391 2212 530 
Q 2431 669 2431 922 
Q 2431 1156 2273 1281 
Q 2116 1406 1581 1522 
L 1381 1569 
Q 847 1681 609 1914 
Q 372 2147 372 2553 
Q 372 3047 722 3315 
Q 1072 3584 1716 3584 
Q 2034 3584 2315 3537 
Q 2597 3491 2834 3397 
z
" transform="scale(0.015625)"/>
       <path id="DejaVuSans-20" transform="scale(0.015625)"/>
       <path id="DejaVuSans-6d" d="M 3328 2828 
Q 3544 3216 3844 3400 
Q 4144 3584 4550 3584 
Q 5097 3584 5394 3201 
Q 5691 2819 5691 2113 
L 5691 0 
L 5113 0 
L 5113 2094 
Q 5113 2597 4934 2840 
Q 4756 3084 4391 3084 
Q 3944 3084 3684 2787 
Q 3425 2491 3425 1978 
L 3425 0 
L 2847 0 
L 2847 2094 
Q 2847 2600 2669 2842 
Q 2491 3084 2119 3084 
Q 1678 3084 1418 2786 
Q 1159 2488 1159 1978 
L 1159 0 
L 581 0 
L 581 3500 
L 1159 3500 
L 1159 2956 
Q 1356 3278 1631 3431 
Q 1906 3584 2284 3584 
Q 2666 3584 2933 3390 
Q 3200 3197 3328 2828 
z
" transform="scale(0.015625)"/>
       <path id="DejaVuSans-6c" d="M 603 4863 
L 1178 4863 
L 1178 0 
L 603 0 
L 603 4863 
z
" transform="scale(0.015625)"/>
       <path id="DejaVuSans-79" d="M 2059 -325 
Q 1816 -950 1584 -1140 
Q 1353 -1331 966 -1331 
L 506 -1331 
L 506 -850 
L 844 -850 
Q 1081 -850 1212 -737 
Q 1344 -625 1503 -206 
L 1606 56 
L 191 3500 
L 800 3500 
L 1894 763 
L 2988 3500 
L 3597 3500 
L 2059 -325 
z
" transform="scale(0.015625)"/>
      </defs>
      <use xlink:href="#DejaVuSans-63"/>
      <use xlink:href="#DejaVuSans-6f" x="54.980469"/>
      <use xlink:href="#DejaVuSans-73" x="116.162109"/>
      <use xlink:href="#DejaVuSans-69" x="168.261719"/>
      <use xlink:href="#DejaVuSans-6e" x="196.044922"/>
      <use xlink:href="#DejaVuSans-65" x="259.423828"/>
      <use xlink:href="#DejaVuSans-20" x="320.947266"/>
      <use xlink:href="#DejaVuSans-73" x="352.734375"/>
      <use xlink:href="#DejaVuSans-69" x="404.833984"/>
      <use xlink:href="#DejaVuSans-6d" x="432.617188"/>
      <use xlink:href="#DejaVuSans-69" x="530.029297"/>
      <use xlink:href="#DejaVuSans-6c" x="557.8125"/>
      <use xlink:href="#DejaVuSans-61" x="585.595703"/>
      <use xlink:href="#DejaVuSans-72" x="646.875"/>
      <use xlink:href="#DejaVuSans-69" x="687.988281"/>
      <use xlink:href="#DejaVuSans-74" x="715.771484"/>
      <use xlink:href="#DejaVuSans-79" x="754.980469"/>
     </g>
    </g>
   </g>
   <g id="line2d_19">
    <path d="M 235.8 541.483034 
L 235.8 241.167224 
" clip-path="url(#p10f437c5ed)" style="fill: none; stroke: #3f3f3f; stroke-width: 1.875; stroke-linecap: square"/>
   </g>
   <g id="line2d_20">
    <path d="M 235.8 423.652385 
L 235.8 330.067214 
" clip-path="url(#p10f437c5ed)" style="fill: none; stroke: #3f3f3f; stroke-width: 5.625; stroke-linecap: square"/>
   </g>
   <g id="line2d_21">
    <path d="M 235.8 384.395754 
" clip-path="url(#p10f437c5ed)" style="fill: none; stroke: #3f3f3f; stroke-width: 1.5; stroke-linecap: square"/>
    <defs>
     <path id="m4d7cbf2772" d="M 2.34375 0 
L -2.34375 -0 
" style="stroke: #ffffff; stroke-width: 1.125"/>
    </defs>
    <g clip-path="url(#p10f437c5ed)">
     <use xlink:href="#m4d7cbf2772" x="235.8" y="384.395754" style="fill: #ffffff; stroke: #ffffff; stroke-width: 1.125"/>
    </g>
   </g>
   <g id="line2d_22">
    <path d="M 347.4 488.148088 
L 347.4 257.503778 
" clip-path="url(#p10f437c5ed)" style="fill: none; stroke: #3f3f3f; stroke-width: 1.875; stroke-linecap: square"/>
   </g>
   <g id="line2d_23">
    <path d="M 347.4 426.133137 
L 347.4 316.714695 
" clip-path="url(#p10f437c5ed)" style="fill: none; stroke: #3f3f3f; stroke-width: 5.625; stroke-linecap: square"/>
   </g>
   <g id="line2d_24">
    <path d="M 347.4 358.389622 
" clip-path="url(#p10f437c5ed)" style="fill: none; stroke: #3f3f3f; stroke-width: 1.5; stroke-linecap: square"/>
    <g clip-path="url(#p10f437c5ed)">
     <use xlink:href="#m4d7cbf2772" x="347.4" y="358.389622" style="fill: #ffffff; stroke: #ffffff; stroke-width: 1.125"/>
    </g>
   </g>
   <g id="line2d_25">
    <path d="M 459 473.962257 
L 459 259.795767 
" clip-path="url(#p10f437c5ed)" style="fill: none; stroke: #3f3f3f; stroke-width: 1.875; stroke-linecap: square"/>
   </g>
   <g id="line2d_26">
    <path d="M 459 401.483103 
L 459 341.987577 
" clip-path="url(#p10f437c5ed)" style="fill: none; stroke: #3f3f3f; stroke-width: 5.625; stroke-linecap: square"/>
   </g>
   <g id="line2d_27">
    <path d="M 459 371.709319 
" clip-path="url(#p10f437c5ed)" style="fill: none; stroke: #3f3f3f; stroke-width: 1.5; stroke-linecap: square"/>
    <g clip-path="url(#p10f437c5ed)">
     <use xlink:href="#m4d7cbf2772" x="459" y="371.709319" style="fill: #ffffff; stroke: #ffffff; stroke-width: 1.125"/>
    </g>
   </g>
   <g id="line2d_28">
    <path d="M 570.6 483.355451 
L 570.6 203.110443 
" clip-path="url(#p10f437c5ed)" style="fill: none; stroke: #3f3f3f; stroke-width: 1.875; stroke-linecap: square"/>
   </g>
   <g id="line2d_29">
    <path d="M 570.6 418.029291 
L 570.6 315.887573 
" clip-path="url(#p10f437c5ed)" style="fill: none; stroke: #3f3f3f; stroke-width: 5.625; stroke-linecap: square"/>
   </g>
   <g id="line2d_30">
    <path d="M 570.6 347.570163 
" clip-path="url(#p10f437c5ed)" style="fill: none; stroke: #3f3f3f; stroke-width: 1.5; stroke-linecap: square"/>
    <g clip-path="url(#p10f437c5ed)">
     <use xlink:href="#m4d7cbf2772" x="570.6" y="347.570163" style="fill: #ffffff; stroke: #ffffff; stroke-width: 1.125"/>
    </g>
   </g>
   <g id="line2d_31">
    <path d="M 682.2 501.901752 
L 682.2 233.496484 
" clip-path="url(#p10f437c5ed)" style="fill: none; stroke: #3f3f3f; stroke-width: 1.875; stroke-linecap: square"/>
   </g>
   <g id="line2d_32">
    <path d="M 682.2 413.173394 
L 682.2 317.398792 
" clip-path="url(#p10f437c5ed)" style="fill: none; stroke: #3f3f3f; stroke-width: 5.625; stroke-linecap: square"/>
   </g>
   <g id="line2d_33">
    <path d="M 682.2 369.889349 
" clip-path="url(#p10f437c5ed)" style="fill: none; stroke: #3f3f3f; stroke-width: 1.5; stroke-linecap: square"/>
    <g clip-path="url(#p10f437c5ed)">
     <use xlink:href="#m4d7cbf2772" x="682.2" y="369.889349" style="fill: #ffffff; stroke: #ffffff; stroke-width: 1.125"/>
    </g>
   </g>
   <g id="line2d_34">
    <path d="M 793.8 446.180271 
L 793.8 192.416217 
" clip-path="url(#p10f437c5ed)" style="fill: none; stroke: #3f3f3f; stroke-width: 1.875; stroke-linecap: square"/>
   </g>
   <g id="line2d_35">
    <path d="M 793.8 393.487285 
L 793.8 302.544747 
" clip-path="url(#p10f437c5ed)" style="fill: none; stroke: #3f3f3f; stroke-width: 5.625; stroke-linecap: square"/>
   </g>
   <g id="line2d_36">
    <path d="M 793.8 343.315739 
" clip-path="url(#p10f437c5ed)" style="fill: none; stroke: #3f3f3f; stroke-width: 1.5; stroke-linecap: square"/>
    <g clip-path="url(#p10f437c5ed)">
     <use xlink:href="#m4d7cbf2772" x="793.8" y="343.315739" style="fill: #ffffff; stroke: #ffffff; stroke-width: 1.125"/>
    </g>
   </g>
   <g id="line2d_37">
    <path d="M 905.4 445.828326 
L 905.4 197.346842 
" clip-path="url(#p10f437c5ed)" style="fill: none; stroke: #3f3f3f; stroke-width: 1.875; stroke-linecap: square"/>
   </g>
   <g id="line2d_38">
    <path d="M 905.4 393.945876 
L 905.4 292.674627 
" clip-path="url(#p10f437c5ed)" style="fill: none; stroke: #3f3f3f; stroke-width: 5.625; stroke-linecap: square"/>
   </g>
   <g id="line2d_39">
    <path d="M 905.4 331.19684 
" clip-path="url(#p10f437c5ed)" style="fill: none; stroke: #3f3f3f; stroke-width: 1.5; stroke-linecap: square"/>
    <g clip-path="url(#p10f437c5ed)">
     <use xlink:href="#m4d7cbf2772" x="905.4" y="331.19684" style="fill: #ffffff; stroke: #ffffff; stroke-width: 1.125"/>
    </g>
   </g>
   <g id="line2d_40">
    <path d="M 1017 513.531689 
L 1017 259.950868 
" clip-path="url(#p10f437c5ed)" style="fill: none; stroke: #3f3f3f; stroke-width: 1.875; stroke-linecap: square"/>
   </g>
   <g id="line2d_41">
    <path d="M 1017 393.36937 
L 1017 291.319765 
" clip-path="url(#p10f437c5ed)" style="fill: none; stroke: #3f3f3f; stroke-width: 5.625; stroke-linecap: square"/>
   </g>
   <g id="line2d_42">
    <path d="M 1017 323.316269 
" clip-path="url(#p10f437c5ed)" style="fill: none; stroke: #3f3f3f; stroke-width: 1.5; stroke-linecap: square"/>
    <g clip-path="url(#p10f437c5ed)">
     <use xlink:href="#m4d7cbf2772" x="1017" y="323.316269" style="fill: #ffffff; stroke: #ffffff; stroke-width: 1.125"/>
    </g>
   </g>
   <g id="line2d_43">
    <path d="M 1128.6 429.295514 
L 1128.6 299.842778 
" clip-path="url(#p10f437c5ed)" style="fill: none; stroke: #3f3f3f; stroke-width: 1.875; stroke-linecap: square"/>
   </g>
   <g id="line2d_44">
    <path d="M 1128.6 405.118625 
L 1128.6 337.46955 
" clip-path="url(#p10f437c5ed)" style="fill: none; stroke: #3f3f3f; stroke-width: 5.625; stroke-linecap: square"/>
   </g>
   <g id="line2d_45">
    <path d="M 1128.6 383.009736 
" clip-path="url(#p10f437c5ed)" style="fill: none; stroke: #3f3f3f; stroke-width: 1.5; stroke-linecap: square"/>
    <g clip-path="url(#p10f437c5ed)">
     <use xlink:href="#m4d7cbf2772" x="1128.6" y="383.009736" style="fill: #ffffff; stroke: #ffffff; stroke-width: 1.125"/>
    </g>
   </g>
   <g id="line2d_46">
    <path d="M 1240.2 403.538632 
L 1240.2 282.297781 
" clip-path="url(#p10f437c5ed)" style="fill: none; stroke: #3f3f3f; stroke-width: 1.875; stroke-linecap: square"/>
   </g>
   <g id="line2d_47">
    <path d="M 1240.2 376.338142 
L 1240.2 327.269823 
" clip-path="url(#p10f437c5ed)" style="fill: none; stroke: #3f3f3f; stroke-width: 5.625; stroke-linecap: square"/>
   </g>
   <g id="line2d_48">
    <path d="M 1240.2 345.690253 
" clip-path="url(#p10f437c5ed)" style="fill: none; stroke: #3f3f3f; stroke-width: 1.5; stroke-linecap: square"/>
    <g clip-path="url(#p10f437c5ed)">
     <use xlink:href="#m4d7cbf2772" x="1240.2" y="345.690253" style="fill: #ffffff; stroke: #ffffff; stroke-width: 1.125"/>
    </g>
   </g>
   <g id="patch_3">
    <path d="M 180 640.8 
L 180 86.4 
" style="fill: none; stroke: #000000; stroke-width: 0.8; stroke-linejoin: miter; stroke-linecap: square"/>
   </g>
   <g id="patch_4">
    <path d="M 1296 640.8 
L 1296 86.4 
" style="fill: none; stroke: #000000; stroke-width: 0.8; stroke-linejoin: miter; stroke-linecap: square"/>
   </g>
   <g id="patch_5">
    <path d="M 180 640.8 
L 1296 640.8 
" style="fill: none; stroke: #000000; stroke-width: 0.8; stroke-linejoin: miter; stroke-linecap: square"/>
   </g>
   <g id="patch_6">
    <path d="M 180 86.4 
L 1296 86.4 
" style="fill: none; stroke: #000000; stroke-width: 0.8; stroke-linejoin: miter; stroke-linecap: square"/>
   </g>
   <g id="text_21">
    <!-- cosine similarity of max_mem_5_fs_glit (progressive), by iteration -->
    <g transform="translate(540.728438 80.4) scale(0.12 -0.12)">
     <defs>
      <path id="DejaVuSans-66" d="M 2375 4863 
L 2375 4384 
L 1825 4384 
Q 1516 4384 1395 4259 
Q 1275 4134 1275 3809 
L 1275 3500 
L 2222 3500 
L 2222 3053 
L 1275 3053 
L 1275 0 
L 697 0 
L 697 3053 
L 147 3053 
L 147 3500 
L 697 3500 
L 697 3744 
Q 697 4328 969 4595 
Q 1241 4863 1831 4863 
L 2375 4863 
z
" transform="scale(0.015625)"/>
      <path id="DejaVuSans-78" d="M 3513 3500 
L 2247 1797 
L 3578 0 
L 2900 0 
L 1881 1375 
L 863 0 
L 184 0 
L 1544 1831 
L 300 3500 
L 978 3500 
L 1906 2253 
L 2834 3500 
L 3513 3500 
z
" transform="scale(0.015625)"/>
      <path id="DejaVuSans-5f" d="M 3263 -1063 
L 3263 -1509 
L -63 -1509 
L -63 -1063 
L 3263 -1063 
z
" transform="scale(0.015625)"/>
      <path id="DejaVuSans-67" d="M 2906 1791 
Q 2906 2416 2648 2759 
Q 2391 3103 1925 3103 
Q 1463 3103 1205 2759 
Q 947 2416 947 1791 
Q 947 1169 1205 825 
Q 1463 481 1925 481 
Q 2391 481 2648 825 
Q 2906 1169 2906 1791 
z
M 3481 434 
Q 3481 -459 3084 -895 
Q 2688 -1331 1869 -1331 
Q 1566 -1331 1297 -1286 
Q 1028 -1241 775 -1147 
L 775 -588 
Q 1028 -725 1275 -790 
Q 1522 -856 1778 -856 
Q 2344 -856 2625 -561 
Q 2906 -266 2906 331 
L 2906 616 
Q 2728 306 2450 153 
Q 2172 0 1784 0 
Q 1141 0 747 490 
Q 353 981 353 1791 
Q 353 2603 747 3093 
Q 1141 3584 1784 3584 
Q 2172 3584 2450 3431 
Q 2728 3278 2906 2969 
L 2906 3500 
L 3481 3500 
L 3481 434 
z
" transform="scale(0.015625)"/>
      <path id="DejaVuSans-28" d="M 1984 4856 
Q 1566 4138 1362 3434 
Q 1159 2731 1159 2009 
Q 1159 1288 1364 580 
Q 1569 -128 1984 -844 
L 1484 -844 
Q 1016 -109 783 600 
Q 550 1309 550 2009 
Q 550 2706 781 3412 
Q 1013 4119 1484 4856 
L 1984 4856 
z
" transform="scale(0.015625)"/>
      <path id="DejaVuSans-70" d="M 1159 525 
L 1159 -1331 
L 581 -1331 
L 581 3500 
L 1159 3500 
L 1159 2969 
Q 1341 3281 1617 3432 
Q 1894 3584 2278 3584 
Q 2916 3584 3314 3078 
Q 3713 2572 3713 1747 
Q 3713 922 3314 415 
Q 2916 -91 2278 -91 
Q 1894 -91 1617 61 
Q 1341 213 1159 525 
z
M 3116 1747 
Q 3116 2381 2855 2742 
Q 2594 3103 2138 3103 
Q 1681 3103 1420 2742 
Q 1159 2381 1159 1747 
Q 1159 1113 1420 752 
Q 1681 391 2138 391 
Q 2594 391 2855 752 
Q 3116 1113 3116 1747 
z
" transform="scale(0.015625)"/>
      <path id="DejaVuSans-76" d="M 191 3500 
L 800 3500 
L 1894 563 
L 2988 3500 
L 3597 3500 
L 2284 0 
L 1503 0 
L 191 3500 
z
" transform="scale(0.015625)"/>
      <path id="DejaVuSans-29" d="M 513 4856 
L 1013 4856 
Q 1481 4119 1714 3412 
Q 1947 2706 1947 2009 
Q 1947 1309 1714 600 
Q 1481 -109 1013 -844 
L 513 -844 
Q 928 -128 1133 580 
Q 1338 1288 1338 2009 
Q 1338 2731 1133 3434 
Q 928 4138 513 4856 
z
" transform="scale(0.015625)"/>
      <path id="DejaVuSans-2c" d="M 750 794 
L 1409 794 
L 1409 256 
L 897 -744 
L 494 -744 
L 750 256 
L 750 794 
z
" transform="scale(0.015625)"/>
      <path id="DejaVuSans-62" d="M 3116 1747 
Q 3116 2381 2855 2742 
Q 2594 3103 2138 3103 
Q 1681 3103 1420 2742 
Q 1159 2381 1159 1747 
Q 1159 1113 1420 752 
Q 1681 391 2138 391 
Q 2594 391 2855 752 
Q 3116 1113 3116 1747 
z
M 1159 2969 
Q 1341 3281 1617 3432 
Q 1894 3584 2278 3584 
Q 2916 3584 3314 3078 
Q 3713 2572 3713 1747 
Q 3713 922 3314 415 
Q 2916 -91 2278 -91 
Q 1894 -91 1617 61 
Q 1341 213 1159 525 
L 1159 0 
L 581 0 
L 581 4863 
L 1159 4863 
L 1159 2969 
z
" transform="scale(0.015625)"/>
     </defs>
     <use xlink:href="#DejaVuSans-63"/>
     <use xlink:href="#DejaVuSans-6f" x="54.980469"/>
     <use xlink:href="#DejaVuSans-73" x="116.162109"/>
     <use xlink:href="#DejaVuSans-69" x="168.261719"/>
     <use xlink:href="#DejaVuSans-6e" x="196.044922"/>
     <use xlink:href="#DejaVuSans-65" x="259.423828"/>
     <use xlink:href="#DejaVuSans-20" x="320.947266"/>
     <use xlink:href="#DejaVuSans-73" x="352.734375"/>
     <use xlink:href="#DejaVuSans-69" x="404.833984"/>
     <use xlink:href="#DejaVuSans-6d" x="432.617188"/>
     <use xlink:href="#DejaVuSans-69" x="530.029297"/>
     <use xlink:href="#DejaVuSans-6c" x="557.8125"/>
     <use xlink:href="#DejaVuSans-61" x="585.595703"/>
     <use xlink:href="#DejaVuSans-72" x="646.875"/>
     <use xlink:href="#DejaVuSans-69" x="687.988281"/>
     <use xlink:href="#DejaVuSans-74" x="715.771484"/>
     <use xlink:href="#DejaVuSans-79" x="754.980469"/>
     <use xlink:href="#DejaVuSans-20" x="814.160156"/>
     <use xlink:href="#DejaVuSans-6f" x="845.947266"/>
     <use xlink:href="#DejaVuSans-66" x="907.128906"/>
     <use xlink:href="#DejaVuSans-20" x="942.333984"/>
     <use xlink:href="#DejaVuSans-6d" x="974.121094"/>
     <use xlink:href="#DejaVuSans-61" x="1071.533203"/>
     <use xlink:href="#DejaVuSans-78" x="1132.8125"/>
     <use xlink:href="#DejaVuSans-5f" x="1191.992188"/>
     <use xlink:href="#DejaVuSans-6d" x="1241.992188"/>
     <use xlink:href="#DejaVuSans-65" x="1339.404297"/>
     <use xlink:href="#DejaVuSans-6d" x="1400.927734"/>
     <use xlink:href="#DejaVuSans-5f" x="1498.339844"/>
     <use xlink:href="#DejaVuSans-35" x="1548.339844"/>
     <use xlink:href="#DejaVuSans-5f" x="1611.962891"/>
     <use xlink:href="#DejaVuSans-66" x="1661.962891"/>
     <use xlink:href="#DejaVuSans-73" x="1697.167969"/>
     <use xlink:href="#DejaVuSans-5f" x="1749.267578"/>
     <use xlink:href="#DejaVuSans-67" x="1799.267578"/>
     <use xlink:href="#DejaVuSans-6c" x="1862.744141"/>
     <use xlink:href="#DejaVuSans-69" x="1890.527344"/>
     <use xlink:href="#DejaVuSans-74" x="1918.310547"/>
     <use xlink:href="#DejaVuSans-20" x="1957.519531"/>
     <use xlink:href="#DejaVuSans-28" x="1989.306641"/>
     <use xlink:href="#DejaVuSans-70" x="2028.320312"/>
     <use xlink:href="#DejaVuSans-72" x="2091.796875"/>
     <use xlink:href="#DejaVuSans-6f" x="2130.660156"/>
     <use xlink:href="#DejaVuSans-67" x="2191.841797"/>
     <use xlink:href="#DejaVuSans-72" x="2255.318359"/>
     <use xlink:href="#DejaVuSans-65" x="2294.181641"/>
     <use xlink:href="#DejaVuSans-73" x="2355.705078"/>
     <use xlink:href="#DejaVuSans-73" x="2407.804688"/>
     <use xlink:href="#DejaVuSans-69" x="2459.904297"/>
     <use xlink:href="#DejaVuSans-76" x="2487.6875"/>
     <use xlink:href="#DejaVuSans-65" x="2546.867188"/>
     <use xlink:href="#DejaVuSans-29" x="2608.390625"/>
     <use xlink:href="#DejaVuSans-2c" x="2647.404297"/>
     <use xlink:href="#DejaVuSans-20" x="2679.191406"/>
     <use xlink:href="#DejaVuSans-62" x="2710.978516"/>
     <use xlink:href="#DejaVuSans-79" x="2774.455078"/>
     <use xlink:href="#DejaVuSans-20" x="2833.634766"/>
     <use xlink:href="#DejaVuSans-69" x="2865.421875"/>
     <use xlink:href="#DejaVuSans-74" x="2893.205078"/>
     <use xlink:href="#DejaVuSans-65" x="2932.414062"/>
     <use xlink:href="#DejaVuSans-72" x="2993.9375"/>
     <use xlink:href="#DejaVuSans-61" x="3035.050781"/>
     <use xlink:href="#DejaVuSans-74" x="3096.330078"/>
     <use xlink:href="#DejaVuSans-69" x="3135.539062"/>
     <use xlink:href="#DejaVuSans-6f" x="3163.322266"/>
     <use xlink:href="#DejaVuSans-6e" x="3224.503906"/>
    </g>
   </g>
  </g>
 </g>
 <defs>
  <clipPath id="p10f437c5ed">
   <rect x="180" y="86.4" width="1116" height="554.4"/>
  </clipPath>
 </defs>
</svg>
