<?xml version="1.0" encoding="utf-8" standalone="no"?>
<!DOCTYPE svg PUBLIC "-//W3C//DTD SVG 1.1//EN"
  "http://www.w3.org/Graphics/SVG/1.1/DTD/svg11.dtd">
<svg xmlns:xlink="http://www.w3.org/1999/xlink" width="1440pt" height="720pt" viewBox="0 0 1440 720" xmlns="http://www.w3.org/2000/svg" version="1.1">
 <metadata>
  <rdf:RDF xmlns:dc="http://purl.org/dc/elements/1.1/" xmlns:cc="http://creativecommons.org/ns#" xmlns:rdf="http://www.w3.org/1999/02/22-rdf-syntax-ns#">
   <cc:Work>
    <dc:type rdf:resource="http://purl.org/dc/dcmitype/StillImage"/>
    <dc:date>2024-07-06T19:51:46.254996</dc:date>
    <dc:format>image/svg+xml</dc:format>
    <dc:creator>
     <cc:Agent>
      <dc:title>Matplotlib v3.8.0, https://matplotlib.org/</dc:title>
     </cc:Agent>
    </dc:creator>
   </cc:Work>
  </rdf:RDF>
 </metadata>
 <defs>
  <style type="text/css">*{stroke-linejoin: round; stroke-linecap: butt}</style>
 </defs>
 <g id="figure_1">
  <g id="patch_1">
   <path d="M 0 720 
L 1440 720 
L 1440 0 
L 0 0 
z
" style="fill: #ffffff"/>
  </g>
  <g id="axes_1">
   <g id="patch_2">
    <path d="M 180 640.8 
L 1296 640.8 
L 1296 86.4 
L 180 86.4 
z
" style="fill: #ffffff"/>
   </g>
   <g id="PolyCollection_1">
    <defs>
     <path id="m9e9380b929" d="M 319.504729 -104.4 
L 319.495271 -104.4 
L 319.481234 -109.490909 
L 319.448753 -114.581818 
L 319.395195 -119.672727 
L 319.317317 -124.763636 
L 319.188021 -129.854545 
L 318.947814 -134.945455 
L 318.546215 -140.036364 
L 317.999573 -145.127273 
L 317.342326 -150.218182 
L 316.551467 -155.309091 
L 315.6016 -160.4 
L 314.473366 -165.490909 
L 313.117678 -170.581818 
L 311.476993 -175.672727 
L 309.41028 -180.763636 
L 306.605667 -185.854545 
L 302.885757 -190.945455 
L 298.594142 -196.036364 
L 294.127549 -201.127273 
L 289.3433 -206.218182 
L 284.033652 -211.309091 
L 278.363138 -216.4 
L 272.688717 -221.490909 
L 267.423194 -226.581818 
L 262.63553 -231.672727 
L 257.671779 -236.763636 
L 251.683636 -241.854545 
L 244.725484 -246.945455 
L 238.109462 -252.036364 
L 232.929995 -257.127273 
L 228.803585 -262.218182 
L 225.358928 -267.309091 
L 223.094231 -272.4 
L 221.927155 -277.490909 
L 221.079786 -282.581818 
L 220.220692 -287.672727 
L 219.635197 -292.763636 
L 220.009207 -297.854545 
L 221.802341 -302.945455 
L 224.210458 -308.036364 
L 225.992153 -313.127273 
L 227.221847 -318.218182 
L 228.857212 -323.309091 
L 231.293683 -328.4 
L 234.220532 -333.490909 
L 237.052178 -338.581818 
L 239.689509 -343.672727 
L 242.938604 -348.763636 
L 247.241728 -353.854545 
L 251.941088 -358.945455 
L 256.068552 -364.036364 
L 259.382517 -369.127273 
L 262.516559 -374.218182 
L 266.086663 -379.309091 
L 269.957381 -384.4 
L 273.662267 -389.490909 
L 277.248768 -394.581818 
L 280.967184 -399.672727 
L 284.832492 -404.763636 
L 288.766718 -409.854545 
L 292.458549 -414.945455 
L 295.613608 -420.036364 
L 298.333083 -425.127273 
L 300.780913 -430.218182 
L 302.979053 -435.309091 
L 305.057861 -440.4 
L 307.160303 -445.490909 
L 309.174106 -450.581818 
L 310.950358 -455.672727 
L 312.481823 -460.763636 
L 313.813587 -465.854545 
L 314.989225 -470.945455 
L 315.947722 -476.036364 
L 316.609294 -481.127273 
L 317.06982 -486.218182 
L 317.412242 -491.309091 
L 317.607262 -496.4 
L 317.750695 -501.490909 
L 317.999128 -506.581818 
L 318.328306 -511.672727 
L 318.624842 -516.763636 
L 318.841259 -521.854545 
L 318.96246 -526.945455 
L 319.00938 -532.036364 
L 319.045233 -537.127273 
L 319.11063 -542.218182 
L 319.200343 -547.309091 
L 319.286736 -552.4 
L 319.356481 -557.490909 
L 319.412689 -562.581818 
L 319.449536 -567.672727 
L 319.460296 -572.763636 
L 319.454507 -577.854545 
L 319.448676 -582.945455 
L 319.452214 -588.036364 
L 319.464226 -593.127273 
L 319.47901 -598.218182 
L 319.490997 -603.309091 
L 319.497387 -608.4 
L 319.502613 -608.4 
L 319.502613 -608.4 
L 319.509003 -603.309091 
L 319.52099 -598.218182 
L 319.535774 -593.127273 
L 319.547786 -588.036364 
L 319.551324 -582.945455 
L 319.545493 -577.854545 
L 319.539704 -572.763636 
L 319.550464 -567.672727 
L 319.587311 -562.581818 
L 319.643519 -557.490909 
L 319.713264 -552.4 
L 319.799657 -547.309091 
L 319.88937 -542.218182 
L 319.954767 -537.127273 
L 319.99062 -532.036364 
L 320.03754 -526.945455 
L 320.158741 -521.854545 
L 320.375158 -516.763636 
L 320.671694 -511.672727 
L 321.000872 -506.581818 
L 321.249305 -501.490909 
L 321.392738 -496.4 
L 321.587758 -491.309091 
L 321.93018 -486.218182 
L 322.390706 -481.127273 
L 323.052278 -476.036364 
L 324.010775 -470.945455 
L 325.186413 -465.854545 
L 326.518177 -460.763636 
L 328.049642 -455.672727 
L 329.825894 -450.581818 
L 331.839697 -445.490909 
L 333.942139 -440.4 
L 336.020947 -435.309091 
L 338.219087 -430.218182 
L 340.666917 -425.127273 
L 343.386392 -420.036364 
L 346.541451 -414.945455 
L 350.233282 -409.854545 
L 354.167508 -404.763636 
L 358.032816 -399.672727 
L 361.751232 -394.581818 
L 365.337733 -389.490909 
L 369.042619 -384.4 
L 372.913337 -379.309091 
L 376.483441 -374.218182 
L 379.617483 -369.127273 
L 382.931448 -364.036364 
L 387.058912 -358.945455 
L 391.758272 -353.854545 
L 396.061396 -348.763636 
L 399.310491 -343.672727 
L 401.947822 -338.581818 
L 404.779468 -333.490909 
L 407.706317 -328.4 
L 410.142788 -323.309091 
L 411.778153 -318.218182 
L 413.007847 -313.127273 
L 414.789542 -308.036364 
L 417.197659 -302.945455 
L 418.990793 -297.854545 
L 419.364803 -292.763636 
L 418.779308 -287.672727 
L 417.920214 -282.581818 
L 417.072845 -277.490909 
L 415.905769 -272.4 
L 413.641072 -267.309091 
L 410.196415 -262.218182 
L 406.070005 -257.127273 
L 400.890538 -252.036364 
L 394.274516 -246.945455 
L 387.316364 -241.854545 
L 381.328221 -236.763636 
L 376.36447 -231.672727 
L 371.576806 -226.581818 
L 366.311283 -221.490909 
L 360.636862 -216.4 
L 354.966348 -211.309091 
L 349.6567 -206.218182 
L 344.872451 -201.127273 
L 340.405858 -196.036364 
L 336.114243 -190.945455 
L 332.394333 -185.854545 
L 329.58972 -180.763636 
L 327.523007 -175.672727 
L 325.882322 -170.581818 
L 324.526634 -165.490909 
L 323.3984 -160.4 
L 322.448533 -155.309091 
L 321.657674 -150.218182 
L 321.000427 -145.127273 
L 320.453785 -140.036364 
L 320.052186 -134.945455 
L 319.811979 -129.854545 
L 319.682683 -124.763636 
L 319.604805 -119.672727 
L 319.551247 -114.581818 
L 319.518766 -109.490909 
L 319.504729 -104.4 
z
" style="stroke: #3f3f3f; stroke-width: 1.25"/>
    </defs>
    <g clip-path="url(#p44f6e98cb1)">
     <use xlink:href="#m9e9380b929" x="0" y="720" style="fill: #3274a1; stroke: #3f3f3f; stroke-width: 1.25"/>
    </g>
   </g>
   <g id="PolyCollection_2">
    <defs>
     <path id="mceb57cd7ec" d="M 598.50267 -112.984087 
L 598.49733 -112.984087 
L 598.490971 -117.855345 
L 598.478511 -122.726603 
L 598.458345 -127.597861 
L 598.421568 -132.469118 
L 598.349228 -137.340376 
L 598.218238 -142.211634 
L 597.995237 -147.082892 
L 597.629891 -151.95415 
L 597.080373 -156.825407 
L 596.352181 -161.696665 
L 595.499693 -166.567923 
L 594.529705 -171.439181 
L 593.285946 -176.310439 
L 591.556404 -181.181697 
L 589.271187 -186.052954 
L 586.462052 -190.924212 
L 583.082071 -195.79547 
L 579.087397 -200.666728 
L 574.713358 -205.537986 
L 570.227005 -210.409243 
L 565.590235 -215.280501 
L 560.694575 -220.151759 
L 555.491403 -225.023017 
L 549.77629 -229.894275 
L 543.15822 -234.765533 
L 535.471957 -239.63679 
L 527.330958 -244.508048 
L 520.082163 -249.379306 
L 514.600059 -254.250564 
L 510.653598 -259.121822 
L 507.614971 -263.99308 
L 504.932348 -268.864337 
L 502.424032 -273.735595 
L 500.350734 -278.606853 
L 498.951401 -283.478111 
L 498.105169 -288.349369 
L 497.446116 -293.220626 
L 497.039565 -298.091884 
L 497.773454 -302.963142 
L 499.928294 -307.8344 
L 502.181039 -312.705658 
L 503.52468 -317.576916 
L 504.639341 -322.448173 
L 506.579544 -327.319431 
L 509.375598 -332.190689 
L 512.302456 -337.061947 
L 515.073171 -341.933205 
L 517.782426 -346.804462 
L 520.313772 -351.67572 
L 523.311559 -356.546978 
L 527.629848 -361.418236 
L 532.364027 -366.289494 
L 536.125562 -371.160752 
L 539.226492 -376.032009 
L 542.798937 -380.903267 
L 546.968611 -385.774525 
L 551.00007 -390.645783 
L 554.640833 -395.517041 
L 558.284598 -400.388299 
L 562.098629 -405.259556 
L 565.853329 -410.130814 
L 569.465052 -415.002072 
L 573.029258 -419.87333 
L 576.482582 -424.744588 
L 579.625306 -429.615845 
L 582.208508 -434.487103 
L 584.130372 -439.358361 
L 585.69039 -444.229619 
L 587.282262 -449.100877 
L 588.885239 -453.972135 
L 590.233757 -458.843392 
L 591.284669 -463.71465 
L 592.186865 -468.585908 
L 593.048185 -473.457166 
L 593.897655 -478.328424 
L 594.693342 -483.199681 
L 595.369003 -488.070939 
L 595.911762 -492.942197 
L 596.371777 -497.813455 
L 596.790676 -502.684713 
L 597.147668 -507.555971 
L 597.413023 -512.427228 
L 597.621721 -517.298486 
L 597.826216 -522.169744 
L 598.020914 -527.041002 
L 598.1746 -531.91226 
L 598.279165 -536.783518 
L 598.346977 -541.654775 
L 598.390998 -546.526033 
L 598.402974 -551.397291 
L 598.369977 -556.268549 
L 598.32523 -561.139807 
L 598.329022 -566.011064 
L 598.382624 -570.882322 
L 598.435675 -575.75358 
L 598.464917 -580.624838 
L 598.480719 -585.496096 
L 598.491457 -590.367354 
L 598.4974 -595.238611 
L 598.5026 -595.238611 
L 598.5026 -595.238611 
L 598.508543 -590.367354 
L 598.519281 -585.496096 
L 598.535083 -580.624838 
L 598.564325 -575.75358 
L 598.617376 -570.882322 
L 598.670978 -566.011064 
L 598.67477 -561.139807 
L 598.630023 -556.268549 
L 598.597026 -551.397291 
L 598.609002 -546.526033 
L 598.653023 -541.654775 
L 598.720835 -536.783518 
L 598.8254 -531.91226 
L 598.979086 -527.041002 
L 599.173784 -522.169744 
L 599.378279 -517.298486 
L 599.586977 -512.427228 
L 599.852332 -507.555971 
L 600.209324 -502.684713 
L 600.628223 -497.813455 
L 601.088238 -492.942197 
L 601.630997 -488.070939 
L 602.306658 -483.199681 
L 603.102345 -478.328424 
L 603.951815 -473.457166 
L 604.813135 -468.585908 
L 605.715331 -463.71465 
L 606.766243 -458.843392 
L 608.114761 -453.972135 
L 609.717738 -449.100877 
L 611.30961 -444.229619 
L 612.869628 -439.358361 
L 614.791492 -434.487103 
L 617.374694 -429.615845 
L 620.517418 -424.744588 
L 623.970742 -419.87333 
L 627.534948 -415.002072 
L 631.146671 -410.130814 
L 634.901371 -405.259556 
L 638.715402 -400.388299 
L 642.359167 -395.517041 
L 645.99993 -390.645783 
L 650.031389 -385.774525 
L 654.201063 -380.903267 
L 657.773508 -376.032009 
L 660.874438 -371.160752 
L 664.635973 -366.289494 
L 669.370152 -361.418236 
L 673.688441 -356.546978 
L 676.686228 -351.67572 
L 679.217574 -346.804462 
L 681.926829 -341.933205 
L 684.697544 -337.061947 
L 687.624402 -332.190689 
L 690.420456 -327.319431 
L 692.360659 -322.448173 
L 693.47532 -317.576916 
L 694.818961 -312.705658 
L 697.071706 -307.8344 
L 699.226546 -302.963142 
L 699.960435 -298.091884 
L 699.553884 -293.220626 
L 698.894831 -288.349369 
L 698.048599 -283.478111 
L 696.649266 -278.606853 
L 694.575968 -273.735595 
L 692.067652 -268.864337 
L 689.385029 -263.99308 
L 686.346402 -259.121822 
L 682.399941 -254.250564 
L 676.917837 -249.379306 
L 669.669042 -244.508048 
L 661.528043 -239.63679 
L 653.84178 -234.765533 
L 647.22371 -229.894275 
L 641.508597 -225.023017 
L 636.305425 -220.151759 
L 631.409765 -215.280501 
L 626.772995 -210.409243 
L 622.286642 -205.537986 
L 617.912603 -200.666728 
L 613.917929 -195.79547 
L 610.537948 -190.924212 
L 607.728813 -186.052954 
L 605.443596 -181.181697 
L 603.714054 -176.310439 
L 602.470295 -171.439181 
L 601.500307 -166.567923 
L 600.647819 -161.696665 
L 599.919627 -156.825407 
L 599.370109 -151.95415 
L 599.004763 -147.082892 
L 598.781762 -142.211634 
L 598.650772 -137.340376 
L 598.578432 -132.469118 
L 598.541655 -127.597861 
L 598.521489 -122.726603 
L 598.509029 -117.855345 
L 598.50267 -112.984087 
z
" style="stroke: #3f3f3f; stroke-width: 1.25"/>
    </defs>
    <g clip-path="url(#p44f6e98cb1)">
     <use xlink:href="#mceb57cd7ec" x="0" y="720" style="fill: #3274a1; stroke: #3f3f3f; stroke-width: 1.25"/>
    </g>
   </g>
   <g id="PolyCollection_3">
    <defs>
     <path id="m6c87dce80f" d="M 877.5069 -113.104343 
L 877.4931 -113.104343 
L 877.471136 -118.031169 
L 877.418895 -122.957994 
L 877.335318 -127.884819 
L 877.226778 -132.811644 
L 877.07914 -137.73847 
L 876.873941 -142.665295 
L 876.607024 -147.59212 
L 876.224687 -152.518945 
L 875.605029 -157.44577 
L 874.647175 -162.372596 
L 873.337278 -167.299421 
L 871.709088 -172.226246 
L 869.705802 -177.153071 
L 867.182683 -182.079897 
L 864.075592 -187.006722 
L 860.471338 -191.933547 
L 856.548098 -196.860372 
L 852.484775 -201.787197 
L 848.204425 -206.714023 
L 843.301297 -211.640848 
L 837.679809 -216.567673 
L 831.593259 -221.494498 
L 824.983394 -226.421324 
L 817.772369 -231.348149 
L 810.010787 -236.274974 
L 801.734021 -241.201799 
L 793.656057 -246.128625 
L 786.846716 -251.05545 
L 781.349927 -255.982275 
L 776.769618 -260.9091 
L 773.435417 -265.835925 
L 771.152684 -270.762751 
L 768.838556 -275.689576 
L 766.65451 -280.616401 
L 765.9 -285.543226 
L 766.64578 -290.470052 
L 767.923704 -295.396877 
L 769.452144 -300.323702 
L 771.57315 -305.250527 
L 774.370156 -310.177352 
L 777.607792 -315.104178 
L 781.357255 -320.031003 
L 785.941425 -324.957828 
L 791.224932 -329.884653 
L 796.606088 -334.811479 
L 801.547054 -339.738304 
L 806.241995 -344.665129 
L 811.252382 -349.591954 
L 816.201915 -354.518779 
L 820.113004 -359.445605 
L 823.013576 -364.37243 
L 826.026276 -369.299255 
L 829.87228 -374.22608 
L 834.108868 -379.152906 
L 838.007657 -384.079731 
L 841.373201 -389.006556 
L 844.430217 -393.933381 
L 847.463769 -398.860207 
L 850.36132 -403.787032 
L 852.739338 -408.713857 
L 854.824066 -413.640682 
L 857.245555 -418.567507 
L 859.776831 -423.494333 
L 861.650707 -428.421158 
L 862.921925 -433.347983 
L 864.256825 -438.274808 
L 865.894512 -443.201634 
L 867.529744 -448.128459 
L 868.839813 -453.055284 
L 869.819799 -457.982109 
L 870.702371 -462.908934 
L 871.631786 -467.83576 
L 872.566103 -472.762585 
L 873.453403 -477.68941 
L 874.266493 -482.616235 
L 874.928908 -487.543061 
L 875.351978 -492.469886 
L 875.571237 -497.396711 
L 875.747 -502.323536 
L 875.985043 -507.250362 
L 876.270711 -512.177187 
L 876.545102 -517.104012 
L 876.772274 -522.030837 
L 876.948302 -526.957662 
L 877.103874 -531.884488 
L 877.25753 -536.811313 
L 877.371566 -541.738138 
L 877.417529 -546.664963 
L 877.418333 -551.591789 
L 877.412088 -556.518614 
L 877.414238 -561.445439 
L 877.408824 -566.372264 
L 877.381597 -571.299089 
L 877.358365 -576.225915 
L 877.37197 -581.15274 
L 877.412769 -586.079565 
L 877.453493 -591.00639 
L 877.481245 -595.933216 
L 877.494753 -600.860041 
L 877.505247 -600.860041 
L 877.505247 -600.860041 
L 877.518755 -595.933216 
L 877.546507 -591.00639 
L 877.587231 -586.079565 
L 877.62803 -581.15274 
L 877.641635 -576.225915 
L 877.618403 -571.299089 
L 877.591176 -566.372264 
L 877.585762 -561.445439 
L 877.587912 -556.518614 
L 877.581667 -551.591789 
L 877.582471 -546.664963 
L 877.628434 -541.738138 
L 877.74247 -536.811313 
L 877.896126 -531.884488 
L 878.051698 -526.957662 
L 878.227726 -522.030837 
L 878.454898 -517.104012 
L 878.729289 -512.177187 
L 879.014957 -507.250362 
L 879.253 -502.323536 
L 879.428763 -497.396711 
L 879.648022 -492.469886 
L 880.071092 -487.543061 
L 880.733507 -482.616235 
L 881.546597 -477.68941 
L 882.433897 -472.762585 
L 883.368214 -467.83576 
L 884.297629 -462.908934 
L 885.180201 -457.982109 
L 886.160187 -453.055284 
L 887.470256 -448.128459 
L 889.105488 -443.201634 
L 890.743175 -438.274808 
L 892.078075 -433.347983 
L 893.349293 -428.421158 
L 895.223169 -423.494333 
L 897.754445 -418.567507 
L 900.175934 -413.640682 
L 902.260662 -408.713857 
L 904.63868 -403.787032 
L 907.536231 -398.860207 
L 910.569783 -393.933381 
L 913.626799 -389.006556 
L 916.992343 -384.079731 
L 920.891132 -379.152906 
L 925.12772 -374.22608 
L 928.973724 -369.299255 
L 931.986424 -364.37243 
L 934.886996 -359.445605 
L 938.798085 -354.518779 
L 943.747618 -349.591954 
L 948.758005 -344.665129 
L 953.452946 -339.738304 
L 958.393912 -334.811479 
L 963.775068 -329.884653 
L 969.058575 -324.957828 
L 973.642745 -320.031003 
L 977.392208 -315.104178 
L 980.629844 -310.177352 
L 983.42685 -305.250527 
L 985.547856 -300.323702 
L 987.076296 -295.396877 
L 988.35422 -290.470052 
L 989.1 -285.543226 
L 988.34549 -280.616401 
L 986.161444 -275.689576 
L 983.847316 -270.762751 
L 981.564583 -265.835925 
L 978.230382 -260.9091 
L 973.650073 -255.982275 
L 968.153284 -251.05545 
L 961.343943 -246.128625 
L 953.265979 -241.201799 
L 944.989213 -236.274974 
L 937.227631 -231.348149 
L 930.016606 -226.421324 
L 923.406741 -221.494498 
L 917.320191 -216.567673 
L 911.698703 -211.640848 
L 906.795575 -206.714023 
L 902.515225 -201.787197 
L 898.451902 -196.860372 
L 894.528662 -191.933547 
L 890.924408 -187.006722 
L 887.817317 -182.079897 
L 885.294198 -177.153071 
L 883.290912 -172.226246 
L 881.662722 -167.299421 
L 880.352825 -162.372596 
L 879.394971 -157.44577 
L 878.775313 -152.518945 
L 878.392976 -147.59212 
L 878.126059 -142.665295 
L 877.92086 -137.73847 
L 877.773222 -132.811644 
L 877.664682 -127.884819 
L 877.581105 -122.957994 
L 877.528864 -118.031169 
L 877.5069 -113.104343 
z
" style="stroke: #3f3f3f; stroke-width: 1.25"/>
    </defs>
    <g clip-path="url(#p44f6e98cb1)">
     <use xlink:href="#m6c87dce80f" x="0" y="720" style="fill: #3274a1; stroke: #3f3f3f; stroke-width: 1.25"/>
    </g>
   </g>
   <g id="PolyCollection_4">
    <defs>
     <path id="md7a0f9d6ac" d="M 1156.505193 -121.583293 
L 1156.494807 -121.583293 
L 1156.480833 -126.427095 
L 1156.448509 -131.270896 
L 1156.38681 -136.114698 
L 1156.273178 -140.9585 
L 1156.078624 -145.802302 
L 1155.794087 -150.646103 
L 1155.413823 -155.489905 
L 1154.902612 -160.333707 
L 1154.232084 -165.177509 
L 1153.345566 -170.02131 
L 1152.082239 -174.865112 
L 1150.359338 -179.708914 
L 1148.325253 -184.552716 
L 1146.042405 -189.396517 
L 1143.256078 -194.240319 
L 1139.794235 -199.084121 
L 1135.818194 -203.927922 
L 1131.443682 -208.771724 
L 1126.61036 -213.615526 
L 1121.476272 -218.459328 
L 1116.410977 -223.303129 
L 1111.605962 -228.146931 
L 1107.114335 -232.990733 
L 1102.957782 -237.834535 
L 1099.026841 -242.678336 
L 1095.084237 -247.522138 
L 1090.566222 -252.36594 
L 1084.855201 -257.209742 
L 1078.414451 -262.053543 
L 1072.804887 -266.897345 
L 1069.006757 -271.741147 
L 1066.396704 -276.584949 
L 1063.72551 -281.42875 
L 1060.618147 -286.272552 
L 1057.788669 -291.116354 
L 1056.031736 -295.960155 
L 1055.219775 -300.803957 
L 1054.662368 -305.647759 
L 1054.381476 -310.491561 
L 1054.844287 -315.335362 
L 1055.810613 -320.179164 
L 1056.847333 -325.022966 
L 1058.145351 -329.866768 
L 1060.043272 -334.710569 
L 1062.590397 -339.554371 
L 1065.791928 -344.398173 
L 1069.702357 -349.241975 
L 1074.039524 -354.085776 
L 1078.365838 -358.929578 
L 1082.643147 -363.77338 
L 1087.146253 -368.617181 
L 1091.909675 -373.460983 
L 1096.514553 -378.304785 
L 1100.716187 -383.148587 
L 1104.755102 -387.992388 
L 1108.874593 -392.83619 
L 1112.980409 -397.679992 
L 1116.831235 -402.523794 
L 1120.576863 -407.367595 
L 1124.536893 -412.211397 
L 1128.362832 -417.055199 
L 1131.444047 -421.899001 
L 1133.877606 -426.742802 
L 1136.165626 -431.586604 
L 1138.468836 -436.430406 
L 1140.653481 -441.274208 
L 1142.636187 -446.118009 
L 1144.407942 -450.961811 
L 1145.946897 -455.805613 
L 1147.345125 -460.649414 
L 1148.765911 -465.493216 
L 1150.146341 -470.337018 
L 1151.280258 -475.18082 
L 1152.110969 -480.024621 
L 1152.701535 -484.868423 
L 1153.105833 -489.712225 
L 1153.382219 -494.556027 
L 1153.618732 -499.399828 
L 1153.929577 -504.24363 
L 1154.399735 -509.087432 
L 1154.963574 -513.931234 
L 1155.434875 -518.775035 
L 1155.711688 -523.618837 
L 1155.865324 -528.462639 
L 1156.0175 -533.306441 
L 1156.191714 -538.150242 
L 1156.331286 -542.994044 
L 1156.408968 -547.837846 
L 1156.443719 -552.681647 
L 1156.457023 -557.525449 
L 1156.460551 -562.369251 
L 1156.458969 -567.213053 
L 1156.44979 -572.056854 
L 1156.434828 -576.900656 
L 1156.429511 -581.744458 
L 1156.444322 -586.58826 
L 1156.468951 -591.432061 
L 1156.487878 -596.275863 
L 1156.496733 -601.119665 
L 1156.503267 -601.119665 
L 1156.503267 -601.119665 
L 1156.512122 -596.275863 
L 1156.531049 -591.432061 
L 1156.555678 -586.58826 
L 1156.570489 -581.744458 
L 1156.565172 -576.900656 
L 1156.55021 -572.056854 
L 1156.541031 -567.213053 
L 1156.539449 -562.369251 
L 1156.542977 -557.525449 
L 1156.556281 -552.681647 
L 1156.591032 -547.837846 
L 1156.668714 -542.994044 
L 1156.808286 -538.150242 
L 1156.9825 -533.306441 
L 1157.134676 -528.462639 
L 1157.288312 -523.618837 
L 1157.565125 -518.775035 
L 1158.036426 -513.931234 
L 1158.600265 -509.087432 
L 1159.070423 -504.24363 
L 1159.381268 -499.399828 
L 1159.617781 -494.556027 
L 1159.894167 -489.712225 
L 1160.298465 -484.868423 
L 1160.889031 -480.024621 
L 1161.719742 -475.18082 
L 1162.853659 -470.337018 
L 1164.234089 -465.493216 
L 1165.654875 -460.649414 
L 1167.053103 -455.805613 
L 1168.592058 -450.961811 
L 1170.363813 -446.118009 
L 1172.346519 -441.274208 
L 1174.531164 -436.430406 
L 1176.834374 -431.586604 
L 1179.122394 -426.742802 
L 1181.555953 -421.899001 
L 1184.637168 -417.055199 
L 1188.463107 -412.211397 
L 1192.423137 -407.367595 
L 1196.168765 -402.523794 
L 1200.019591 -397.679992 
L 1204.125407 -392.83619 
L 1208.244898 -387.992388 
L 1212.283813 -383.148587 
L 1216.485447 -378.304785 
L 1221.090325 -373.460983 
L 1225.853747 -368.617181 
L 1230.356853 -363.77338 
L 1234.634162 -358.929578 
L 1238.960476 -354.085776 
L 1243.297643 -349.241975 
L 1247.208072 -344.398173 
L 1250.409603 -339.554371 
L 1252.956728 -334.710569 
L 1254.854649 -329.866768 
L 1256.152667 -325.022966 
L 1257.189387 -320.179164 
L 1258.155713 -315.335362 
L 1258.618524 -310.491561 
L 1258.337632 -305.647759 
L 1257.780225 -300.803957 
L 1256.968264 -295.960155 
L 1255.211331 -291.116354 
L 1252.381853 -286.272552 
L 1249.27449 -281.42875 
L 1246.603296 -276.584949 
L 1243.993243 -271.741147 
L 1240.195113 -266.897345 
L 1234.585549 -262.053543 
L 1228.144799 -257.209742 
L 1222.433778 -252.36594 
L 1217.915763 -247.522138 
L 1213.973159 -242.678336 
L 1210.042218 -237.834535 
L 1205.885665 -232.990733 
L 1201.394038 -228.146931 
L 1196.589023 -223.303129 
L 1191.523728 -218.459328 
L 1186.38964 -213.615526 
L 1181.556318 -208.771724 
L 1177.181806 -203.927922 
L 1173.205765 -199.084121 
L 1169.743922 -194.240319 
L 1166.957595 -189.396517 
L 1164.674747 -184.552716 
L 1162.640662 -179.708914 
L 1160.917761 -174.865112 
L 1159.654434 -170.02131 
L 1158.767916 -165.177509 
L 1158.097388 -160.333707 
L 1157.586177 -155.489905 
L 1157.205913 -150.646103 
L 1156.921376 -145.802302 
L 1156.726822 -140.9585 
L 1156.61319 -136.114698 
L 1156.551491 -131.270896 
L 1156.519167 -126.427095 
L 1156.505193 -121.583293 
z
" style="stroke: #3f3f3f; stroke-width: 1.25"/>
    </defs>
    <g clip-path="url(#p44f6e98cb1)">
     <use xlink:href="#md7a0f9d6ac" x="0" y="720" style="fill: #3274a1; stroke: #3f3f3f; stroke-width: 1.25"/>
    </g>
   </g>
   <g id="matplotlib.axis_1">
    <g id="xtick_1">
     <g id="line2d_1">
      <defs>
       <path id="m6cfb64bf0b" d="M 0 0 
L 0 3.5 
" style="stroke: #000000; stroke-width: 0.8"/>
      </defs>
      <g>
       <use xlink:href="#m6cfb64bf0b" x="319.5" y="640.8" style="stroke: #000000; stroke-width: 0.8"/>
      </g>
     </g>
     <g id="text_1">
      <!-- max -->
      <g transform="translate(308.60625 655.398438) scale(0.1 -0.1)">
       <defs>
        <path id="DejaVuSans-6d" d="M 3328 2828 
Q 3544 3216 3844 3400 
Q 4144 3584 4550 3584 
Q 5097 3584 5394 3201 
Q 5691 2819 5691 2113 
L 5691 0 
L 5113 0 
L 5113 2094 
Q 5113 2597 4934 2840 
Q 4756 3084 4391 3084 
Q 3944 3084 3684 2787 
Q 3425 2491 3425 1978 
L 3425 0 
L 2847 0 
L 2847 2094 
Q 2847 2600 2669 2842 
Q 2491 3084 2119 3084 
Q 1678 3084 1418 2786 
Q 1159 2488 1159 1978 
L 1159 0 
L 581 0 
L 581 3500 
L 1159 3500 
L 1159 2956 
Q 1356 3278 1631 3431 
Q 1906 3584 2284 3584 
Q 2666 3584 2933 3390 
Q 3200 3197 3328 2828 
z
" transform="scale(0.015625)"/>
        <path id="DejaVuSans-61" d="M 2194 1759 
Q 1497 1759 1228 1600 
Q 959 1441 959 1056 
Q 959 750 1161 570 
Q 1363 391 1709 391 
Q 2188 391 2477 730 
Q 2766 1069 2766 1631 
L 2766 1759 
L 2194 1759 
z
M 3341 1997 
L 3341 0 
L 2766 0 
L 2766 531 
Q 2569 213 2275 61 
Q 1981 -91 1556 -91 
Q 1019 -91 701 211 
Q 384 513 384 1019 
Q 384 1609 779 1909 
Q 1175 2209 1959 2209 
L 2766 2209 
L 2766 2266 
Q 2766 2663 2505 2880 
Q 2244 3097 1772 3097 
Q 1472 3097 1187 3025 
Q 903 2953 641 2809 
L 641 3341 
Q 956 3463 1253 3523 
Q 1550 3584 1831 3584 
Q 2591 3584 2966 3190 
Q 3341 2797 3341 1997 
z
" transform="scale(0.015625)"/>
        <path id="DejaVuSans-78" d="M 3513 3500 
L 2247 1797 
L 3578 0 
L 2900 0 
L 1881 1375 
L 863 0 
L 184 0 
L 1544 1831 
L 300 3500 
L 978 3500 
L 1906 2253 
L 2834 3500 
L 3513 3500 
z
" transform="scale(0.015625)"/>
       </defs>
       <use xlink:href="#DejaVuSans-6d"/>
       <use xlink:href="#DejaVuSans-61" x="97.412109"/>
       <use xlink:href="#DejaVuSans-78" x="158.691406"/>
      </g>
     </g>
    </g>
    <g id="xtick_2">
     <g id="line2d_2">
      <g>
       <use xlink:href="#m6cfb64bf0b" x="598.5" y="640.8" style="stroke: #000000; stroke-width: 0.8"/>
      </g>
     </g>
     <g id="text_2">
      <!-- max_fs -->
      <g transform="translate(580.741406 655.398438) scale(0.1 -0.1)">
       <defs>
        <path id="DejaVuSans-5f" d="M 3263 -1063 
L 3263 -1509 
L -63 -1509 
L -63 -1063 
L 3263 -1063 
z
" transform="scale(0.015625)"/>
        <path id="DejaVuSans-66" d="M 2375 4863 
L 2375 4384 
L 1825 4384 
Q 1516 4384 1395 4259 
Q 1275 4134 1275 3809 
L 1275 3500 
L 2222 3500 
L 2222 3053 
L 1275 3053 
L 1275 0 
L 697 0 
L 697 3053 
L 147 3053 
L 147 3500 
L 697 3500 
L 697 3744 
Q 697 4328 969 4595 
Q 1241 4863 1831 4863 
L 2375 4863 
z
" transform="scale(0.015625)"/>
        <path id="DejaVuSans-73" d="M 2834 3397 
L 2834 2853 
Q 2591 2978 2328 3040 
Q 2066 3103 1784 3103 
Q 1356 3103 1142 2972 
Q 928 2841 928 2578 
Q 928 2378 1081 2264 
Q 1234 2150 1697 2047 
L 1894 2003 
Q 2506 1872 2764 1633 
Q 3022 1394 3022 966 
Q 3022 478 2636 193 
Q 2250 -91 1575 -91 
Q 1294 -91 989 -36 
Q 684 19 347 128 
L 347 722 
Q 666 556 975 473 
Q 1284 391 1588 391 
Q 1994 391 2212 530 
Q 2431 669 2431 922 
Q 2431 1156 2273 1281 
Q 2116 1406 1581 1522 
L 1381 1569 
Q 847 1681 609 1914 
Q 372 2147 372 2553 
Q 372 3047 722 3315 
Q 1072 3584 1716 3584 
Q 2034 3584 2315 3537 
Q 2597 3491 2834 3397 
z
" transform="scale(0.015625)"/>
       </defs>
       <use xlink:href="#DejaVuSans-6d"/>
       <use xlink:href="#DejaVuSans-61" x="97.412109"/>
       <use xlink:href="#DejaVuSans-78" x="158.691406"/>
       <use xlink:href="#DejaVuSans-5f" x="217.871094"/>
       <use xlink:href="#DejaVuSans-66" x="267.871094"/>
       <use xlink:href="#DejaVuSans-73" x="303.076172"/>
      </g>
     </g>
    </g>
    <g id="xtick_3">
     <g id="line2d_3">
      <g>
       <use xlink:href="#m6cfb64bf0b" x="877.5" y="640.8" style="stroke: #000000; stroke-width: 0.8"/>
      </g>
     </g>
     <g id="text_3">
      <!-- max_mem_5_fs_glit -->
      <g transform="translate(828.330469 655.398438) scale(0.1 -0.1)">
       <defs>
        <path id="DejaVuSans-65" d="M 3597 1894 
L 3597 1613 
L 953 1613 
Q 991 1019 1311 708 
Q 1631 397 2203 397 
Q 2534 397 2845 478 
Q 3156 559 3463 722 
L 3463 178 
Q 3153 47 2828 -22 
Q 2503 -91 2169 -91 
Q 1331 -91 842 396 
Q 353 884 353 1716 
Q 353 2575 817 3079 
Q 1281 3584 2069 3584 
Q 2775 3584 3186 3129 
Q 3597 2675 3597 1894 
z
M 3022 2063 
Q 3016 2534 2758 2815 
Q 2500 3097 2075 3097 
Q 1594 3097 1305 2825 
Q 1016 2553 972 2059 
L 3022 2063 
z
" transform="scale(0.015625)"/>
        <path id="DejaVuSans-35" d="M 691 4666 
L 3169 4666 
L 3169 4134 
L 1269 4134 
L 1269 2991 
Q 1406 3038 1543 3061 
Q 1681 3084 1819 3084 
Q 2600 3084 3056 2656 
Q 3513 2228 3513 1497 
Q 3513 744 3044 326 
Q 2575 -91 1722 -91 
Q 1428 -91 1123 -41 
Q 819 9 494 109 
L 494 744 
Q 775 591 1075 516 
Q 1375 441 1709 441 
Q 2250 441 2565 725 
Q 2881 1009 2881 1497 
Q 2881 1984 2565 2268 
Q 2250 2553 1709 2553 
Q 1456 2553 1204 2497 
Q 953 2441 691 2322 
L 691 4666 
z
" transform="scale(0.015625)"/>
        <path id="DejaVuSans-67" d="M 2906 1791 
Q 2906 2416 2648 2759 
Q 2391 3103 1925 3103 
Q 1463 3103 1205 2759 
Q 947 2416 947 1791 
Q 947 1169 1205 825 
Q 1463 481 1925 481 
Q 2391 481 2648 825 
Q 2906 1169 2906 1791 
z
M 3481 434 
Q 3481 -459 3084 -895 
Q 2688 -1331 1869 -1331 
Q 1566 -1331 1297 -1286 
Q 1028 -1241 775 -1147 
L 775 -588 
Q 1028 -725 1275 -790 
Q 1522 -856 1778 -856 
Q 2344 -856 2625 -561 
Q 2906 -266 2906 331 
L 2906 616 
Q 2728 306 2450 153 
Q 2172 0 1784 0 
Q 1141 0 747 490 
Q 353 981 353 1791 
Q 353 2603 747 3093 
Q 1141 3584 1784 3584 
Q 2172 3584 2450 3431 
Q 2728 3278 2906 2969 
L 2906 3500 
L 3481 3500 
L 3481 434 
z
" transform="scale(0.015625)"/>
        <path id="DejaVuSans-6c" d="M 603 4863 
L 1178 4863 
L 1178 0 
L 603 0 
L 603 4863 
z
" transform="scale(0.015625)"/>
        <path id="DejaVuSans-69" d="M 603 3500 
L 1178 3500 
L 1178 0 
L 603 0 
L 603 3500 
z
M 603 4863 
L 1178 4863 
L 1178 4134 
L 603 4134 
L 603 4863 
z
" transform="scale(0.015625)"/>
        <path id="DejaVuSans-74" d="M 1172 4494 
L 1172 3500 
L 2356 3500 
L 2356 3053 
L 1172 3053 
L 1172 1153 
Q 1172 725 1289 603 
Q 1406 481 1766 481 
L 2356 481 
L 2356 0 
L 1766 0 
Q 1100 0 847 248 
Q 594 497 594 1153 
L 594 3053 
L 172 3053 
L 172 3500 
L 594 3500 
L 594 4494 
L 1172 4494 
z
" transform="scale(0.015625)"/>
       </defs>
       <use xlink:href="#DejaVuSans-6d"/>
       <use xlink:href="#DejaVuSans-61" x="97.412109"/>
       <use xlink:href="#DejaVuSans-78" x="158.691406"/>
       <use xlink:href="#DejaVuSans-5f" x="217.871094"/>
       <use xlink:href="#DejaVuSans-6d" x="267.871094"/>
       <use xlink:href="#DejaVuSans-65" x="365.283203"/>
       <use xlink:href="#DejaVuSans-6d" x="426.806641"/>
       <use xlink:href="#DejaVuSans-5f" x="524.21875"/>
       <use xlink:href="#DejaVuSans-35" x="574.21875"/>
       <use xlink:href="#DejaVuSans-5f" x="637.841797"/>
       <use xlink:href="#DejaVuSans-66" x="687.841797"/>
       <use xlink:href="#DejaVuSans-73" x="723.046875"/>
       <use xlink:href="#DejaVuSans-5f" x="775.146484"/>
       <use xlink:href="#DejaVuSans-67" x="825.146484"/>
       <use xlink:href="#DejaVuSans-6c" x="888.623047"/>
       <use xlink:href="#DejaVuSans-69" x="916.40625"/>
       <use xlink:href="#DejaVuSans-74" x="944.189453"/>
      </g>
     </g>
    </g>
    <g id="xtick_4">
     <g id="line2d_4">
      <g>
       <use xlink:href="#m6cfb64bf0b" x="1156.5" y="640.8" style="stroke: #000000; stroke-width: 0.8"/>
      </g>
     </g>
     <g id="text_4">
      <!-- max_fs_glit -->
      <g transform="translate(1128.328906 655.398438) scale(0.1 -0.1)">
       <use xlink:href="#DejaVuSans-6d"/>
       <use xlink:href="#DejaVuSans-61" x="97.412109"/>
       <use xlink:href="#DejaVuSans-78" x="158.691406"/>
       <use xlink:href="#DejaVuSans-5f" x="217.871094"/>
       <use xlink:href="#DejaVuSans-66" x="267.871094"/>
       <use xlink:href="#DejaVuSans-73" x="303.076172"/>
       <use xlink:href="#DejaVuSans-5f" x="355.175781"/>
       <use xlink:href="#DejaVuSans-67" x="405.175781"/>
       <use xlink:href="#DejaVuSans-6c" x="468.652344"/>
       <use xlink:href="#DejaVuSans-69" x="496.435547"/>
       <use xlink:href="#DejaVuSans-74" x="524.21875"/>
      </g>
     </g>
    </g>
    <g id="text_5">
     <!-- file name -->
     <g transform="translate(714.616406 669.354687) scale(0.1 -0.1)">
      <defs>
       <path id="DejaVuSans-20" transform="scale(0.015625)"/>
       <path id="DejaVuSans-6e" d="M 3513 2113 
L 3513 0 
L 2938 0 
L 2938 2094 
Q 2938 2591 2744 2837 
Q 2550 3084 2163 3084 
Q 1697 3084 1428 2787 
Q 1159 2491 1159 1978 
L 1159 0 
L 581 0 
L 581 3500 
L 1159 3500 
L 1159 2956 
Q 1366 3272 1645 3428 
Q 1925 3584 2291 3584 
Q 2894 3584 3203 3211 
Q 3513 2838 3513 2113 
z
" transform="scale(0.015625)"/>
      </defs>
      <use xlink:href="#DejaVuSans-66"/>
      <use xlink:href="#DejaVuSans-69" x="35.205078"/>
      <use xlink:href="#DejaVuSans-6c" x="62.988281"/>
      <use xlink:href="#DejaVuSans-65" x="90.771484"/>
      <use xlink:href="#DejaVuSans-20" x="152.294922"/>
      <use xlink:href="#DejaVuSans-6e" x="184.082031"/>
      <use xlink:href="#DejaVuSans-61" x="247.460938"/>
      <use xlink:href="#DejaVuSans-6d" x="308.740234"/>
      <use xlink:href="#DejaVuSans-65" x="406.152344"/>
     </g>
    </g>
   </g>
   <g id="matplotlib.axis_2">
    <g id="ytick_1">
     <g id="line2d_5">
      <defs>
       <path id="m12a9707fef" d="M 0 0 
L -3.5 0 
" style="stroke: #000000; stroke-width: 0.8"/>
      </defs>
      <g>
       <use xlink:href="#m12a9707fef" x="180" y="629.779711" style="stroke: #000000; stroke-width: 0.8"/>
      </g>
     </g>
     <g id="text_6">
      <!-- −0.2 -->
      <g transform="translate(148.717187 633.57893) scale(0.1 -0.1)">
       <defs>
        <path id="DejaVuSans-2212" d="M 678 2272 
L 4684 2272 
L 4684 1741 
L 678 1741 
L 678 2272 
z
" transform="scale(0.015625)"/>
        <path id="DejaVuSans-30" d="M 2034 4250 
Q 1547 4250 1301 3770 
Q 1056 3291 1056 2328 
Q 1056 1369 1301 889 
Q 1547 409 2034 409 
Q 2525 409 2770 889 
Q 3016 1369 3016 2328 
Q 3016 3291 2770 3770 
Q 2525 4250 2034 4250 
z
M 2034 4750 
Q 2819 4750 3233 4129 
Q 3647 3509 3647 2328 
Q 3647 1150 3233 529 
Q 2819 -91 2034 -91 
Q 1250 -91 836 529 
Q 422 1150 422 2328 
Q 422 3509 836 4129 
Q 1250 4750 2034 4750 
z
" transform="scale(0.015625)"/>
        <path id="DejaVuSans-2e" d="M 684 794 
L 1344 794 
L 1344 0 
L 684 0 
L 684 794 
z
" transform="scale(0.015625)"/>
        <path id="DejaVuSans-32" d="M 1228 531 
L 3431 531 
L 3431 0 
L 469 0 
L 469 531 
Q 828 903 1448 1529 
Q 2069 2156 2228 2338 
Q 2531 2678 2651 2914 
Q 2772 3150 2772 3378 
Q 2772 3750 2511 3984 
Q 2250 4219 1831 4219 
Q 1534 4219 1204 4116 
Q 875 4013 500 3803 
L 500 4441 
Q 881 4594 1212 4672 
Q 1544 4750 1819 4750 
Q 2544 4750 2975 4387 
Q 3406 4025 3406 3419 
Q 3406 3131 3298 2873 
Q 3191 2616 2906 2266 
Q 2828 2175 2409 1742 
Q 1991 1309 1228 531 
z
" transform="scale(0.015625)"/>
       </defs>
       <use xlink:href="#DejaVuSans-2212"/>
       <use xlink:href="#DejaVuSans-30" x="83.789062"/>
       <use xlink:href="#DejaVuSans-2e" x="147.412109"/>
       <use xlink:href="#DejaVuSans-32" x="179.199219"/>
      </g>
     </g>
    </g>
    <g id="ytick_2">
     <g id="line2d_6">
      <g>
       <use xlink:href="#m12a9707fef" x="180" y="535.521532" style="stroke: #000000; stroke-width: 0.8"/>
      </g>
     </g>
     <g id="text_7">
      <!-- 0.0 -->
      <g transform="translate(157.096875 539.320751) scale(0.1 -0.1)">
       <use xlink:href="#DejaVuSans-30"/>
       <use xlink:href="#DejaVuSans-2e" x="63.623047"/>
       <use xlink:href="#DejaVuSans-30" x="95.410156"/>
      </g>
     </g>
    </g>
    <g id="ytick_3">
     <g id="line2d_7">
      <g>
       <use xlink:href="#m12a9707fef" x="180" y="441.263353" style="stroke: #000000; stroke-width: 0.8"/>
      </g>
     </g>
     <g id="text_8">
      <!-- 0.2 -->
      <g transform="translate(157.096875 445.062571) scale(0.1 -0.1)">
       <use xlink:href="#DejaVuSans-30"/>
       <use xlink:href="#DejaVuSans-2e" x="63.623047"/>
       <use xlink:href="#DejaVuSans-32" x="95.410156"/>
      </g>
     </g>
    </g>
    <g id="ytick_4">
     <g id="line2d_8">
      <g>
       <use xlink:href="#m12a9707fef" x="180" y="347.005173" style="stroke: #000000; stroke-width: 0.8"/>
      </g>
     </g>
     <g id="text_9">
      <!-- 0.4 -->
      <g transform="translate(157.096875 350.804392) scale(0.1 -0.1)">
       <defs>
        <path id="DejaVuSans-34" d="M 2419 4116 
L 825 1625 
L 2419 1625 
L 2419 4116 
z
M 2253 4666 
L 3047 4666 
L 3047 1625 
L 3713 1625 
L 3713 1100 
L 3047 1100 
L 3047 0 
L 2419 0 
L 2419 1100 
L 313 1100 
L 313 1709 
L 2253 4666 
z
" transform="scale(0.015625)"/>
       </defs>
       <use xlink:href="#DejaVuSans-30"/>
       <use xlink:href="#DejaVuSans-2e" x="63.623047"/>
       <use xlink:href="#DejaVuSans-34" x="95.410156"/>
      </g>
     </g>
    </g>
    <g id="ytick_5">
     <g id="line2d_9">
      <g>
       <use xlink:href="#m12a9707fef" x="180" y="252.746994" style="stroke: #000000; stroke-width: 0.8"/>
      </g>
     </g>
     <g id="text_10">
      <!-- 0.6 -->
      <g transform="translate(157.096875 256.546213) scale(0.1 -0.1)">
       <defs>
        <path id="DejaVuSans-36" d="M 2113 2584 
Q 1688 2584 1439 2293 
Q 1191 2003 1191 1497 
Q 1191 994 1439 701 
Q 1688 409 2113 409 
Q 2538 409 2786 701 
Q 3034 994 3034 1497 
Q 3034 2003 2786 2293 
Q 2538 2584 2113 2584 
z
M 3366 4563 
L 3366 3988 
Q 3128 4100 2886 4159 
Q 2644 4219 2406 4219 
Q 1781 4219 1451 3797 
Q 1122 3375 1075 2522 
Q 1259 2794 1537 2939 
Q 1816 3084 2150 3084 
Q 2853 3084 3261 2657 
Q 3669 2231 3669 1497 
Q 3669 778 3244 343 
Q 2819 -91 2113 -91 
Q 1303 -91 875 529 
Q 447 1150 447 2328 
Q 447 3434 972 4092 
Q 1497 4750 2381 4750 
Q 2619 4750 2861 4703 
Q 3103 4656 3366 4563 
z
" transform="scale(0.015625)"/>
       </defs>
       <use xlink:href="#DejaVuSans-30"/>
       <use xlink:href="#DejaVuSans-2e" x="63.623047"/>
       <use xlink:href="#DejaVuSans-36" x="95.410156"/>
      </g>
     </g>
    </g>
    <g id="ytick_6">
     <g id="line2d_10">
      <g>
       <use xlink:href="#m12a9707fef" x="180" y="158.488815" style="stroke: #000000; stroke-width: 0.8"/>
      </g>
     </g>
     <g id="text_11">
      <!-- 0.8 -->
      <g transform="translate(157.096875 162.288034) scale(0.1 -0.1)">
       <defs>
        <path id="DejaVuSans-38" d="M 2034 2216 
Q 1584 2216 1326 1975 
Q 1069 1734 1069 1313 
Q 1069 891 1326 650 
Q 1584 409 2034 409 
Q 2484 409 2743 651 
Q 3003 894 3003 1313 
Q 3003 1734 2745 1975 
Q 2488 2216 2034 2216 
z
M 1403 2484 
Q 997 2584 770 2862 
Q 544 3141 544 3541 
Q 544 4100 942 4425 
Q 1341 4750 2034 4750 
Q 2731 4750 3128 4425 
Q 3525 4100 3525 3541 
Q 3525 3141 3298 2862 
Q 3072 2584 2669 2484 
Q 3125 2378 3379 2068 
Q 3634 1759 3634 1313 
Q 3634 634 3220 271 
Q 2806 -91 2034 -91 
Q 1263 -91 848 271 
Q 434 634 434 1313 
Q 434 1759 690 2068 
Q 947 2378 1403 2484 
z
M 1172 3481 
Q 1172 3119 1398 2916 
Q 1625 2713 2034 2713 
Q 2441 2713 2670 2916 
Q 2900 3119 2900 3481 
Q 2900 3844 2670 4047 
Q 2441 4250 2034 4250 
Q 1625 4250 1398 4047 
Q 1172 3844 1172 3481 
z
" transform="scale(0.015625)"/>
       </defs>
       <use xlink:href="#DejaVuSans-30"/>
       <use xlink:href="#DejaVuSans-2e" x="63.623047"/>
       <use xlink:href="#DejaVuSans-38" x="95.410156"/>
      </g>
     </g>
    </g>
    <g id="text_12">
     <!-- final cosine similarity -->
     <g transform="translate(142.6375 416.667187) rotate(-90) scale(0.1 -0.1)">
      <defs>
       <path id="DejaVuSans-63" d="M 3122 3366 
L 3122 2828 
Q 2878 2963 2633 3030 
Q 2388 3097 2138 3097 
Q 1578 3097 1268 2742 
Q 959 2388 959 1747 
Q 959 1106 1268 751 
Q 1578 397 2138 397 
Q 2388 397 2633 464 
Q 2878 531 3122 666 
L 3122 134 
Q 2881 22 2623 -34 
Q 2366 -91 2075 -91 
Q 1284 -91 818 406 
Q 353 903 353 1747 
Q 353 2603 823 3093 
Q 1294 3584 2113 3584 
Q 2378 3584 2631 3529 
Q 2884 3475 3122 3366 
z
" transform="scale(0.015625)"/>
       <path id="DejaVuSans-6f" d="M 1959 3097 
Q 1497 3097 1228 2736 
Q 959 2375 959 1747 
Q 959 1119 1226 758 
Q 1494 397 1959 397 
Q 2419 397 2687 759 
Q 2956 1122 2956 1747 
Q 2956 2369 2687 2733 
Q 2419 3097 1959 3097 
z
M 1959 3584 
Q 2709 3584 3137 3096 
Q 3566 2609 3566 1747 
Q 3566 888 3137 398 
Q 2709 -91 1959 -91 
Q 1206 -91 779 398 
Q 353 888 353 1747 
Q 353 2609 779 3096 
Q 1206 3584 1959 3584 
z
" transform="scale(0.015625)"/>
       <path id="DejaVuSans-72" d="M 2631 2963 
Q 2534 3019 2420 3045 
Q 2306 3072 2169 3072 
Q 1681 3072 1420 2755 
Q 1159 2438 1159 1844 
L 1159 0 
L 581 0 
L 581 3500 
L 1159 3500 
L 1159 2956 
Q 1341 3275 1631 3429 
Q 1922 3584 2338 3584 
Q 2397 3584 2469 3576 
Q 2541 3569 2628 3553 
L 2631 2963 
z
" transform="scale(0.015625)"/>
       <path id="DejaVuSans-79" d="M 2059 -325 
Q 1816 -950 1584 -1140 
Q 1353 -1331 966 -1331 
L 506 -1331 
L 506 -850 
L 844 -850 
Q 1081 -850 1212 -737 
Q 1344 -625 1503 -206 
L 1606 56 
L 191 3500 
L 800 3500 
L 1894 763 
L 2988 3500 
L 3597 3500 
L 2059 -325 
z
" transform="scale(0.015625)"/>
      </defs>
      <use xlink:href="#DejaVuSans-66"/>
      <use xlink:href="#DejaVuSans-69" x="35.205078"/>
      <use xlink:href="#DejaVuSans-6e" x="62.988281"/>
      <use xlink:href="#DejaVuSans-61" x="126.367188"/>
      <use xlink:href="#DejaVuSans-6c" x="187.646484"/>
      <use xlink:href="#DejaVuSans-20" x="215.429688"/>
      <use xlink:href="#DejaVuSans-63" x="247.216797"/>
      <use xlink:href="#DejaVuSans-6f" x="302.197266"/>
      <use xlink:href="#DejaVuSans-73" x="363.378906"/>
      <use xlink:href="#DejaVuSans-69" x="415.478516"/>
      <use xlink:href="#DejaVuSans-6e" x="443.261719"/>
      <use xlink:href="#DejaVuSans-65" x="506.640625"/>
      <use xlink:href="#DejaVuSans-20" x="568.164062"/>
      <use xlink:href="#DejaVuSans-73" x="599.951172"/>
      <use xlink:href="#DejaVuSans-69" x="652.050781"/>
      <use xlink:href="#DejaVuSans-6d" x="679.833984"/>
      <use xlink:href="#DejaVuSans-69" x="777.246094"/>
      <use xlink:href="#DejaVuSans-6c" x="805.029297"/>
      <use xlink:href="#DejaVuSans-61" x="832.8125"/>
      <use xlink:href="#DejaVuSans-72" x="894.091797"/>
      <use xlink:href="#DejaVuSans-69" x="935.205078"/>
      <use xlink:href="#DejaVuSans-74" x="962.988281"/>
      <use xlink:href="#DejaVuSans-79" x="1002.197266"/>
     </g>
    </g>
   </g>
   <g id="line2d_11">
    <path d="M 319.5 589.397693 
L 319.5 236.345052 
" clip-path="url(#p44f6e98cb1)" style="fill: none; stroke: #3f3f3f; stroke-width: 1.875; stroke-linecap: square"/>
   </g>
   <g id="line2d_12">
    <path d="M 319.5 457.037986 
L 319.5 368.673753 
" clip-path="url(#p44f6e98cb1)" style="fill: none; stroke: #3f3f3f; stroke-width: 5.625; stroke-linecap: square"/>
   </g>
   <g id="line2d_13">
    <path d="M 319.5 415.692582 
" clip-path="url(#p44f6e98cb1)" style="fill: none; stroke: #3f3f3f; stroke-width: 1.5; stroke-linecap: square"/>
    <defs>
     <path id="m8cf52e178a" d="M 2.34375 0 
L -2.34375 -0 
" style="stroke: #ffffff; stroke-width: 1.125"/>
    </defs>
    <g clip-path="url(#p44f6e98cb1)">
     <use xlink:href="#m8cf52e178a" x="319.5" y="415.692582" style="fill: #ffffff; stroke: #ffffff; stroke-width: 1.125"/>
    </g>
   </g>
   <g id="line2d_14">
    <path d="M 598.5 580.041796 
L 598.5 233.723279 
" clip-path="url(#p44f6e98cb1)" style="fill: none; stroke: #3f3f3f; stroke-width: 1.875; stroke-linecap: square"/>
   </g>
   <g id="line2d_15">
    <path d="M 598.5 452.583534 
L 598.5 365.027946 
" clip-path="url(#p44f6e98cb1)" style="fill: none; stroke: #3f3f3f; stroke-width: 5.625; stroke-linecap: square"/>
   </g>
   <g id="line2d_16">
    <path d="M 598.5 411.643569 
" clip-path="url(#p44f6e98cb1)" style="fill: none; stroke: #3f3f3f; stroke-width: 1.5; stroke-linecap: square"/>
    <g clip-path="url(#p44f6e98cb1)">
     <use xlink:href="#m8cf52e178a" x="598.5" y="411.643569" style="fill: #ffffff; stroke: #ffffff; stroke-width: 1.125"/>
    </g>
   </g>
   <g id="line2d_17">
    <path d="M 877.5 579.847704 
L 877.5 257.151868 
" clip-path="url(#p44f6e98cb1)" style="fill: none; stroke: #3f3f3f; stroke-width: 1.875; stroke-linecap: square"/>
   </g>
   <g id="line2d_18">
    <path d="M 877.5 459.103223 
L 877.5 378.307513 
" clip-path="url(#p44f6e98cb1)" style="fill: none; stroke: #3f3f3f; stroke-width: 5.625; stroke-linecap: square"/>
   </g>
   <g id="line2d_19">
    <path d="M 877.5 421.710305 
" clip-path="url(#p44f6e98cb1)" style="fill: none; stroke: #3f3f3f; stroke-width: 1.5; stroke-linecap: square"/>
    <g clip-path="url(#p44f6e98cb1)">
     <use xlink:href="#m8cf52e178a" x="877.5" y="421.710305" style="fill: #ffffff; stroke: #ffffff; stroke-width: 1.125"/>
    </g>
   </g>
   <g id="line2d_20">
    <path d="M 1156.5 574.891857 
L 1156.5 234.166501 
" clip-path="url(#p44f6e98cb1)" style="fill: none; stroke: #3f3f3f; stroke-width: 1.875; stroke-linecap: square"/>
   </g>
   <g id="line2d_21">
    <path d="M 1156.5 447.229473 
L 1156.5 361.981884 
" clip-path="url(#p44f6e98cb1)" style="fill: none; stroke: #3f3f3f; stroke-width: 5.625; stroke-linecap: square"/>
   </g>
   <g id="line2d_22">
    <path d="M 1156.5 405.748281 
" clip-path="url(#p44f6e98cb1)" style="fill: none; stroke: #3f3f3f; stroke-width: 1.5; stroke-linecap: square"/>
    <g clip-path="url(#p44f6e98cb1)">
     <use xlink:href="#m8cf52e178a" x="1156.5" y="405.748281" style="fill: #ffffff; stroke: #ffffff; stroke-width: 1.125"/>
    </g>
   </g>
   <g id="patch_3">
    <path d="M 180 640.8 
L 180 86.4 
" style="fill: none; stroke: #000000; stroke-width: 0.8; stroke-linejoin: miter; stroke-linecap: square"/>
   </g>
   <g id="patch_4">
    <path d="M 1296 640.8 
L 1296 86.4 
" style="fill: none; stroke: #000000; stroke-width: 0.8; stroke-linejoin: miter; stroke-linecap: square"/>
   </g>
   <g id="patch_5">
    <path d="M 180 640.8 
L 1296 640.8 
" style="fill: none; stroke: #000000; stroke-width: 0.8; stroke-linejoin: miter; stroke-linecap: square"/>
   </g>
   <g id="patch_6">
    <path d="M 180 86.4 
L 1296 86.4 
" style="fill: none; stroke: #000000; stroke-width: 0.8; stroke-linejoin: miter; stroke-linecap: square"/>
   </g>
   <g id="text_13">
    <!-- final cosine similarity of general Between Finals Variety (betweenFinalsVariety), by file name -->
    <g transform="translate(460.266563 80.4) scale(0.12 -0.12)">
     <defs>
      <path id="DejaVuSans-42" d="M 1259 2228 
L 1259 519 
L 2272 519 
Q 2781 519 3026 730 
Q 3272 941 3272 1375 
Q 3272 1813 3026 2020 
Q 2781 2228 2272 2228 
L 1259 2228 
z
M 1259 4147 
L 1259 2741 
L 2194 2741 
Q 2656 2741 2882 2914 
Q 3109 3088 3109 3444 
Q 3109 3797 2882 3972 
Q 2656 4147 2194 4147 
L 1259 4147 
z
M 628 4666 
L 2241 4666 
Q 2963 4666 3353 4366 
Q 3744 4066 3744 3513 
Q 3744 3084 3544 2831 
Q 3344 2578 2956 2516 
Q 3422 2416 3680 2098 
Q 3938 1781 3938 1306 
Q 3938 681 3513 340 
Q 3088 0 2303 0 
L 628 0 
L 628 4666 
z
" transform="scale(0.015625)"/>
      <path id="DejaVuSans-77" d="M 269 3500 
L 844 3500 
L 1563 769 
L 2278 3500 
L 2956 3500 
L 3675 769 
L 4391 3500 
L 4966 3500 
L 4050 0 
L 3372 0 
L 2619 2869 
L 1863 0 
L 1184 0 
L 269 3500 
z
" transform="scale(0.015625)"/>
      <path id="DejaVuSans-46" d="M 628 4666 
L 3309 4666 
L 3309 4134 
L 1259 4134 
L 1259 2759 
L 3109 2759 
L 3109 2228 
L 1259 2228 
L 1259 0 
L 628 0 
L 628 4666 
z
" transform="scale(0.015625)"/>
      <path id="DejaVuSans-56" d="M 1831 0 
L 50 4666 
L 709 4666 
L 2188 738 
L 3669 4666 
L 4325 4666 
L 2547 0 
L 1831 0 
z
" transform="scale(0.015625)"/>
      <path id="DejaVuSans-28" d="M 1984 4856 
Q 1566 4138 1362 3434 
Q 1159 2731 1159 2009 
Q 1159 1288 1364 580 
Q 1569 -128 1984 -844 
L 1484 -844 
Q 1016 -109 783 600 
Q 550 1309 550 2009 
Q 550 2706 781 3412 
Q 1013 4119 1484 4856 
L 1984 4856 
z
" transform="scale(0.015625)"/>
      <path id="DejaVuSans-62" d="M 3116 1747 
Q 3116 2381 2855 2742 
Q 2594 3103 2138 3103 
Q 1681 3103 1420 2742 
Q 1159 2381 1159 1747 
Q 1159 1113 1420 752 
Q 1681 391 2138 391 
Q 2594 391 2855 752 
Q 3116 1113 3116 1747 
z
M 1159 2969 
Q 1341 3281 1617 3432 
Q 1894 3584 2278 3584 
Q 2916 3584 3314 3078 
Q 3713 2572 3713 1747 
Q 3713 922 3314 415 
Q 2916 -91 2278 -91 
Q 1894 -91 1617 61 
Q 1341 213 1159 525 
L 1159 0 
L 581 0 
L 581 4863 
L 1159 4863 
L 1159 2969 
z
" transform="scale(0.015625)"/>
      <path id="DejaVuSans-29" d="M 513 4856 
L 1013 4856 
Q 1481 4119 1714 3412 
Q 1947 2706 1947 2009 
Q 1947 1309 1714 600 
Q 1481 -109 1013 -844 
L 513 -844 
Q 928 -128 1133 580 
Q 1338 1288 1338 2009 
Q 1338 2731 1133 3434 
Q 928 4138 513 4856 
z
" transform="scale(0.015625)"/>
      <path id="DejaVuSans-2c" d="M 750 794 
L 1409 794 
L 1409 256 
L 897 -744 
L 494 -744 
L 750 256 
L 750 794 
z
" transform="scale(0.015625)"/>
     </defs>
     <use xlink:href="#DejaVuSans-66"/>
     <use xlink:href="#DejaVuSans-69" x="35.205078"/>
     <use xlink:href="#DejaVuSans-6e" x="62.988281"/>
     <use xlink:href="#DejaVuSans-61" x="126.367188"/>
     <use xlink:href="#DejaVuSans-6c" x="187.646484"/>
     <use xlink:href="#DejaVuSans-20" x="215.429688"/>
     <use xlink:href="#DejaVuSans-63" x="247.216797"/>
     <use xlink:href="#DejaVuSans-6f" x="302.197266"/>
     <use xlink:href="#DejaVuSans-73" x="363.378906"/>
     <use xlink:href="#DejaVuSans-69" x="415.478516"/>
     <use xlink:href="#DejaVuSans-6e" x="443.261719"/>
     <use xlink:href="#DejaVuSans-65" x="506.640625"/>
     <use xlink:href="#DejaVuSans-20" x="568.164062"/>
     <use xlink:href="#DejaVuSans-73" x="599.951172"/>
     <use xlink:href="#DejaVuSans-69" x="652.050781"/>
     <use xlink:href="#DejaVuSans-6d" x="679.833984"/>
     <use xlink:href="#DejaVuSans-69" x="777.246094"/>
     <use xlink:href="#DejaVuSans-6c" x="805.029297"/>
     <use xlink:href="#DejaVuSans-61" x="832.8125"/>
     <use xlink:href="#DejaVuSans-72" x="894.091797"/>
     <use xlink:href="#DejaVuSans-69" x="935.205078"/>
     <use xlink:href="#DejaVuSans-74" x="962.988281"/>
     <use xlink:href="#DejaVuSans-79" x="1002.197266"/>
     <use xlink:href="#DejaVuSans-20" x="1061.376953"/>
     <use xlink:href="#DejaVuSans-6f" x="1093.164062"/>
     <use xlink:href="#DejaVuSans-66" x="1154.345703"/>
     <use xlink:href="#DejaVuSans-20" x="1189.550781"/>
     <use xlink:href="#DejaVuSans-67" x="1221.337891"/>
     <use xlink:href="#DejaVuSans-65" x="1284.814453"/>
     <use xlink:href="#DejaVuSans-6e" x="1346.337891"/>
     <use xlink:href="#DejaVuSans-65" x="1409.716797"/>
     <use xlink:href="#DejaVuSans-72" x="1471.240234"/>
     <use xlink:href="#DejaVuSans-61" x="1512.353516"/>
     <use xlink:href="#DejaVuSans-6c" x="1573.632812"/>
     <use xlink:href="#DejaVuSans-20" x="1601.416016"/>
     <use xlink:href="#DejaVuSans-42" x="1633.203125"/>
     <use xlink:href="#DejaVuSans-65" x="1701.806641"/>
     <use xlink:href="#DejaVuSans-74" x="1763.330078"/>
     <use xlink:href="#DejaVuSans-77" x="1802.539062"/>
     <use xlink:href="#DejaVuSans-65" x="1884.326172"/>
     <use xlink:href="#DejaVuSans-65" x="1945.849609"/>
     <use xlink:href="#DejaVuSans-6e" x="2007.373047"/>
     <use xlink:href="#DejaVuSans-20" x="2070.751953"/>
     <use xlink:href="#DejaVuSans-46" x="2102.539062"/>
     <use xlink:href="#DejaVuSans-69" x="2152.808594"/>
     <use xlink:href="#DejaVuSans-6e" x="2180.591797"/>
     <use xlink:href="#DejaVuSans-61" x="2243.970703"/>
     <use xlink:href="#DejaVuSans-6c" x="2305.25"/>
     <use xlink:href="#DejaVuSans-73" x="2333.033203"/>
     <use xlink:href="#DejaVuSans-20" x="2385.132812"/>
     <use xlink:href="#DejaVuSans-56" x="2416.919922"/>
     <use xlink:href="#DejaVuSans-61" x="2477.578125"/>
     <use xlink:href="#DejaVuSans-72" x="2538.857422"/>
     <use xlink:href="#DejaVuSans-69" x="2579.970703"/>
     <use xlink:href="#DejaVuSans-65" x="2607.753906"/>
     <use xlink:href="#DejaVuSans-74" x="2669.277344"/>
     <use xlink:href="#DejaVuSans-79" x="2708.486328"/>
     <use xlink:href="#DejaVuSans-20" x="2767.666016"/>
     <use xlink:href="#DejaVuSans-28" x="2799.453125"/>
     <use xlink:href="#DejaVuSans-62" x="2838.466797"/>
     <use xlink:href="#DejaVuSans-65" x="2901.943359"/>
     <use xlink:href="#DejaVuSans-74" x="2963.466797"/>
     <use xlink:href="#DejaVuSans-77" x="3002.675781"/>
     <use xlink:href="#DejaVuSans-65" x="3084.462891"/>
     <use xlink:href="#DejaVuSans-65" x="3145.986328"/>
     <use xlink:href="#DejaVuSans-6e" x="3207.509766"/>
     <use xlink:href="#DejaVuSans-46" x="3270.888672"/>
     <use xlink:href="#DejaVuSans-69" x="3321.158203"/>
     <use xlink:href="#DejaVuSans-6e" x="3348.941406"/>
     <use xlink:href="#DejaVuSans-61" x="3412.320312"/>
     <use xlink:href="#DejaVuSans-6c" x="3473.599609"/>
     <use xlink:href="#DejaVuSans-73" x="3501.382812"/>
     <use xlink:href="#DejaVuSans-56" x="3553.482422"/>
     <use xlink:href="#DejaVuSans-61" x="3614.140625"/>
     <use xlink:href="#DejaVuSans-72" x="3675.419922"/>
     <use xlink:href="#DejaVuSans-69" x="3716.533203"/>
     <use xlink:href="#DejaVuSans-65" x="3744.316406"/>
     <use xlink:href="#DejaVuSans-74" x="3805.839844"/>
     <use xlink:href="#DejaVuSans-79" x="3845.048828"/>
     <use xlink:href="#DejaVuSans-29" x="3904.228516"/>
     <use xlink:href="#DejaVuSans-2c" x="3943.242188"/>
     <use xlink:href="#DejaVuSans-20" x="3975.029297"/>
     <use xlink:href="#DejaVuSans-62" x="4006.816406"/>
     <use xlink:href="#DejaVuSans-79" x="4070.292969"/>
     <use xlink:href="#DejaVuSans-20" x="4129.472656"/>
     <use xlink:href="#DejaVuSans-66" x="4161.259766"/>
     <use xlink:href="#DejaVuSans-69" x="4196.464844"/>
     <use xlink:href="#DejaVuSans-6c" x="4224.248047"/>
     <use xlink:href="#DejaVuSans-65" x="4252.03125"/>
     <use xlink:href="#DejaVuSans-20" x="4313.554688"/>
     <use xlink:href="#DejaVuSans-6e" x="4345.341797"/>
     <use xlink:href="#DejaVuSans-61" x="4408.720703"/>
     <use xlink:href="#DejaVuSans-6d" x="4470"/>
     <use xlink:href="#DejaVuSans-65" x="4567.412109"/>
    </g>
   </g>
  </g>
 </g>
 <defs>
  <clipPath id="p44f6e98cb1">
   <rect x="180" y="86.4" width="1116" height="554.4"/>
  </clipPath>
 </defs>
</svg>
