<?xml version="1.0" encoding="utf-8" standalone="no"?>
<!DOCTYPE svg PUBLIC "-//W3C//DTD SVG 1.1//EN"
  "http://www.w3.org/Graphics/SVG/1.1/DTD/svg11.dtd">
<svg xmlns:xlink="http://www.w3.org/1999/xlink" width="1440pt" height="720pt" viewBox="0 0 1440 720" xmlns="http://www.w3.org/2000/svg" version="1.1">
 <metadata>
  <rdf:RDF xmlns:dc="http://purl.org/dc/elements/1.1/" xmlns:cc="http://creativecommons.org/ns#" xmlns:rdf="http://www.w3.org/1999/02/22-rdf-syntax-ns#">
   <cc:Work>
    <dc:type rdf:resource="http://purl.org/dc/dcmitype/StillImage"/>
    <dc:date>2024-07-24T13:51:21.440644</dc:date>
    <dc:format>image/svg+xml</dc:format>
    <dc:creator>
     <cc:Agent>
      <dc:title>Matplotlib v3.8.0, https://matplotlib.org/</dc:title>
     </cc:Agent>
    </dc:creator>
   </cc:Work>
  </rdf:RDF>
 </metadata>
 <defs>
  <style type="text/css">*{stroke-linejoin: round; stroke-linecap: butt}</style>
 </defs>
 <g id="figure_1">
  <g id="patch_1">
   <path d="M 0 720 
L 1440 720 
L 1440 0 
L 0 0 
z
" style="fill: #ffffff"/>
  </g>
  <g id="axes_1">
   <g id="patch_2">
    <path d="M 180 640.8 
L 1296 640.8 
L 1296 86.4 
L 180 86.4 
z
" style="fill: #ffffff"/>
   </g>
   <g id="PolyCollection_1">
    <defs>
     <path id="m918711a2d9" d="M 235.802416 -104.4 
L 235.797584 -104.4 
L 235.792489 -109.490909 
L 235.781312 -114.581818 
L 235.760159 -119.672727 
L 235.722009 -124.763636 
L 235.653433 -129.854545 
L 235.533263 -134.945455 
L 235.335891 -140.036364 
L 235.035472 -145.127273 
L 234.602014 -150.218182 
L 233.992901 -155.309091 
L 233.155634 -160.4 
L 232.042118 -165.490909 
L 230.615969 -170.581818 
L 228.857862 -175.672727 
L 226.792456 -180.763636 
L 224.489892 -185.854545 
L 222.006261 -190.945455 
L 219.379788 -196.036364 
L 216.681508 -201.127273 
L 213.949435 -206.218182 
L 211.155064 -211.309091 
L 208.38092 -216.4 
L 205.84539 -221.490909 
L 203.615713 -226.581818 
L 201.539202 -231.672727 
L 199.577836 -236.763636 
L 197.955581 -241.854545 
L 196.814471 -246.945455 
L 195.951832 -252.036364 
L 195.09473 -257.127273 
L 194.253506 -262.218182 
L 193.6675 -267.309091 
L 193.563972 -272.4 
L 194.026459 -277.490909 
L 194.978169 -282.581818 
L 196.265584 -287.672727 
L 197.765862 -292.763636 
L 199.374387 -297.854545 
L 200.930846 -302.945455 
L 202.253887 -308.036364 
L 203.284467 -313.127273 
L 204.193349 -318.218182 
L 205.261183 -323.309091 
L 206.57377 -328.4 
L 207.947311 -333.490909 
L 209.211336 -338.581818 
L 210.401674 -343.672727 
L 211.623179 -348.763636 
L 212.898465 -353.854545 
L 214.209448 -358.945455 
L 215.556897 -364.036364 
L 216.94664 -369.127273 
L 218.373444 -374.218182 
L 219.820211 -379.309091 
L 221.270015 -384.4 
L 222.712829 -389.490909 
L 224.11089 -394.581818 
L 225.37505 -399.672727 
L 226.429602 -404.763636 
L 227.305649 -409.854545 
L 228.134422 -414.945455 
L 229.023367 -420.036364 
L 229.943272 -425.127273 
L 230.77372 -430.218182 
L 231.464453 -435.309091 
L 232.08504 -440.4 
L 232.695865 -445.490909 
L 233.263356 -450.581818 
L 233.737569 -455.672727 
L 234.121108 -460.763636 
L 234.431207 -465.854545 
L 234.668422 -470.945455 
L 234.840577 -476.036364 
L 234.971683 -481.127273 
L 235.084662 -486.218182 
L 235.193828 -491.309091 
L 235.303094 -496.4 
L 235.407148 -501.490909 
L 235.502452 -506.581818 
L 235.588205 -511.672727 
L 235.655884 -516.763636 
L 235.695204 -521.854545 
L 235.710814 -526.945455 
L 235.719057 -532.036364 
L 235.727211 -537.127273 
L 235.728226 -542.218182 
L 235.719296 -547.309091 
L 235.712887 -552.4 
L 235.722619 -557.490909 
L 235.746213 -562.581818 
L 235.768824 -567.672727 
L 235.779298 -572.763636 
L 235.778384 -577.854545 
L 235.774031 -582.945455 
L 235.77334 -588.036364 
L 235.778361 -593.127273 
L 235.786458 -598.218182 
L 235.793603 -603.309091 
L 235.797763 -608.4 
L 235.802237 -608.4 
L 235.802237 -608.4 
L 235.806397 -603.309091 
L 235.813542 -598.218182 
L 235.821639 -593.127273 
L 235.82666 -588.036364 
L 235.825969 -582.945455 
L 235.821616 -577.854545 
L 235.820702 -572.763636 
L 235.831176 -567.672727 
L 235.853787 -562.581818 
L 235.877381 -557.490909 
L 235.887113 -552.4 
L 235.880704 -547.309091 
L 235.871774 -542.218182 
L 235.872789 -537.127273 
L 235.880943 -532.036364 
L 235.889186 -526.945455 
L 235.904796 -521.854545 
L 235.944116 -516.763636 
L 236.011795 -511.672727 
L 236.097548 -506.581818 
L 236.192852 -501.490909 
L 236.296906 -496.4 
L 236.406172 -491.309091 
L 236.515338 -486.218182 
L 236.628317 -481.127273 
L 236.759423 -476.036364 
L 236.931578 -470.945455 
L 237.168793 -465.854545 
L 237.478892 -460.763636 
L 237.862431 -455.672727 
L 238.336644 -450.581818 
L 238.904135 -445.490909 
L 239.51496 -440.4 
L 240.135547 -435.309091 
L 240.82628 -430.218182 
L 241.656728 -425.127273 
L 242.576633 -420.036364 
L 243.465578 -414.945455 
L 244.294351 -409.854545 
L 245.170398 -404.763636 
L 246.22495 -399.672727 
L 247.48911 -394.581818 
L 248.887171 -389.490909 
L 250.329985 -384.4 
L 251.779789 -379.309091 
L 253.226556 -374.218182 
L 254.65336 -369.127273 
L 256.043103 -364.036364 
L 257.390552 -358.945455 
L 258.701535 -353.854545 
L 259.976821 -348.763636 
L 261.198326 -343.672727 
L 262.388664 -338.581818 
L 263.652689 -333.490909 
L 265.02623 -328.4 
L 266.338817 -323.309091 
L 267.406651 -318.218182 
L 268.315533 -313.127273 
L 269.346113 -308.036364 
L 270.669154 -302.945455 
L 272.225613 -297.854545 
L 273.834138 -292.763636 
L 275.334416 -287.672727 
L 276.621831 -282.581818 
L 277.573541 -277.490909 
L 278.036028 -272.4 
L 277.9325 -267.309091 
L 277.346494 -262.218182 
L 276.50527 -257.127273 
L 275.648168 -252.036364 
L 274.785529 -246.945455 
L 273.644419 -241.854545 
L 272.022164 -236.763636 
L 270.060798 -231.672727 
L 267.984287 -226.581818 
L 265.75461 -221.490909 
L 263.21908 -216.4 
L 260.444936 -211.309091 
L 257.650565 -206.218182 
L 254.918492 -201.127273 
L 252.220212 -196.036364 
L 249.593739 -190.945455 
L 247.110108 -185.854545 
L 244.807544 -180.763636 
L 242.742138 -175.672727 
L 240.984031 -170.581818 
L 239.557882 -165.490909 
L 238.444366 -160.4 
L 237.607099 -155.309091 
L 236.997986 -150.218182 
L 236.564528 -145.127273 
L 236.264109 -140.036364 
L 236.066737 -134.945455 
L 235.946567 -129.854545 
L 235.877991 -124.763636 
L 235.839841 -119.672727 
L 235.818688 -114.581818 
L 235.807511 -109.490909 
L 235.802416 -104.4 
z
" style="stroke: #3f3f3f; stroke-width: 1.25"/>
    </defs>
    <g clip-path="url(#p9a0d8e4928)">
     <use xlink:href="#m918711a2d9" x="0" y="720" style="fill: #3274a1; stroke: #3f3f3f; stroke-width: 1.25"/>
    </g>
   </g>
   <g id="PolyCollection_2">
    <defs>
     <path id="m4e96f5844d" d="M 347.402717 -112.773239 
L 347.397283 -112.773239 
L 347.391895 -117.370049 
L 347.380314 -121.966859 
L 347.358933 -126.56367 
L 347.321967 -131.16048 
L 347.259171 -135.75729 
L 347.155825 -140.354101 
L 346.996589 -144.950911 
L 346.772038 -149.547721 
L 346.483968 -154.144532 
L 346.137834 -158.741342 
L 345.71766 -163.338152 
L 345.17159 -167.934963 
L 344.437807 -172.531773 
L 343.48659 -177.128583 
L 342.328848 -181.725394 
L 340.986777 -186.322204 
L 339.462715 -190.919014 
L 337.73531 -195.515825 
L 335.790802 -200.112635 
L 333.659442 -204.709445 
L 331.408548 -209.306256 
L 329.101499 -213.903066 
L 326.768518 -218.499876 
L 324.407963 -223.096687 
L 322.028321 -227.693497 
L 319.697545 -232.290307 
L 317.500402 -236.887118 
L 315.41699 -241.483928 
L 313.31564 -246.080738 
L 311.136957 -250.677549 
L 309.058231 -255.274359 
L 307.408635 -259.871169 
L 306.38741 -264.46798 
L 305.885952 -269.06479 
L 305.622086 -273.6616 
L 305.416754 -278.258411 
L 305.274372 -282.855221 
L 305.242681 -287.452032 
L 305.321702 -292.048842 
L 305.504509 -296.645652 
L 305.799584 -301.242463 
L 306.205355 -305.839273 
L 306.745983 -310.436083 
L 307.542306 -315.032894 
L 308.727664 -319.629704 
L 310.234812 -324.226514 
L 311.79738 -328.823325 
L 313.237662 -333.420135 
L 314.655464 -338.016945 
L 316.276302 -342.613756 
L 318.14851 -347.210566 
L 320.051508 -351.807376 
L 321.751666 -356.404187 
L 323.278506 -361.000997 
L 324.83983 -365.597807 
L 326.527547 -370.194618 
L 328.249785 -374.791428 
L 329.911265 -379.388238 
L 331.498822 -383.985049 
L 332.988639 -388.581859 
L 334.297977 -393.178669 
L 335.372392 -397.77548 
L 336.283033 -402.37229 
L 337.198875 -406.9691 
L 338.242413 -411.565911 
L 339.38462 -416.162721 
L 340.483863 -420.759531 
L 341.403928 -425.356342 
L 342.102941 -429.953152 
L 342.638586 -434.549962 
L 343.100883 -439.146773 
L 343.543451 -443.743583 
L 343.968702 -448.340393 
L 344.35952 -452.937204 
L 344.718435 -457.534014 
L 345.071845 -462.130824 
L 345.430743 -466.727635 
L 345.764767 -471.324445 
L 346.03661 -475.921255 
L 346.248687 -480.518066 
L 346.432421 -485.114876 
L 346.601557 -489.711686 
L 346.740586 -494.308497 
L 346.838106 -498.905307 
L 346.910796 -503.502117 
L 346.985485 -508.098928 
L 347.069982 -512.695738 
L 347.153121 -517.292548 
L 347.223973 -521.889359 
L 347.278876 -526.486169 
L 347.316989 -531.082979 
L 347.339344 -535.67979 
L 347.350327 -540.2766 
L 347.356422 -544.87341 
L 347.363353 -549.470221 
L 347.373281 -554.067031 
L 347.384161 -558.663841 
L 347.392639 -563.260652 
L 347.397372 -567.857462 
L 347.402628 -567.857462 
L 347.402628 -567.857462 
L 347.407361 -563.260652 
L 347.415839 -558.663841 
L 347.426719 -554.067031 
L 347.436647 -549.470221 
L 347.443578 -544.87341 
L 347.449673 -540.2766 
L 347.460656 -535.67979 
L 347.483011 -531.082979 
L 347.521124 -526.486169 
L 347.576027 -521.889359 
L 347.646879 -517.292548 
L 347.730018 -512.695738 
L 347.814515 -508.098928 
L 347.889204 -503.502117 
L 347.961894 -498.905307 
L 348.059414 -494.308497 
L 348.198443 -489.711686 
L 348.367579 -485.114876 
L 348.551313 -480.518066 
L 348.76339 -475.921255 
L 349.035233 -471.324445 
L 349.369257 -466.727635 
L 349.728155 -462.130824 
L 350.081565 -457.534014 
L 350.44048 -452.937204 
L 350.831298 -448.340393 
L 351.256549 -443.743583 
L 351.699117 -439.146773 
L 352.161414 -434.549962 
L 352.697059 -429.953152 
L 353.396072 -425.356342 
L 354.316137 -420.759531 
L 355.41538 -416.162721 
L 356.557587 -411.565911 
L 357.601125 -406.9691 
L 358.516967 -402.37229 
L 359.427608 -397.77548 
L 360.502023 -393.178669 
L 361.811361 -388.581859 
L 363.301178 -383.985049 
L 364.888735 -379.388238 
L 366.550215 -374.791428 
L 368.272453 -370.194618 
L 369.96017 -365.597807 
L 371.521494 -361.000997 
L 373.048334 -356.404187 
L 374.748492 -351.807376 
L 376.65149 -347.210566 
L 378.523698 -342.613756 
L 380.144536 -338.016945 
L 381.562338 -333.420135 
L 383.00262 -328.823325 
L 384.565188 -324.226514 
L 386.072336 -319.629704 
L 387.257694 -315.032894 
L 388.054017 -310.436083 
L 388.594645 -305.839273 
L 389.000416 -301.242463 
L 389.295491 -296.645652 
L 389.478298 -292.048842 
L 389.557319 -287.452032 
L 389.525628 -282.855221 
L 389.383246 -278.258411 
L 389.177914 -273.6616 
L 388.914048 -269.06479 
L 388.41259 -264.46798 
L 387.391365 -259.871169 
L 385.741769 -255.274359 
L 383.663043 -250.677549 
L 381.48436 -246.080738 
L 379.38301 -241.483928 
L 377.299598 -236.887118 
L 375.102455 -232.290307 
L 372.771679 -227.693497 
L 370.392037 -223.096687 
L 368.031482 -218.499876 
L 365.698501 -213.903066 
L 363.391452 -209.306256 
L 361.140558 -204.709445 
L 359.009198 -200.112635 
L 357.06469 -195.515825 
L 355.337285 -190.919014 
L 353.813223 -186.322204 
L 352.471152 -181.725394 
L 351.31341 -177.128583 
L 350.362193 -172.531773 
L 349.62841 -167.934963 
L 349.08234 -163.338152 
L 348.662166 -158.741342 
L 348.316032 -154.144532 
L 348.027962 -149.547721 
L 347.803411 -144.950911 
L 347.644175 -140.354101 
L 347.540829 -135.75729 
L 347.478033 -131.16048 
L 347.441067 -126.56367 
L 347.419686 -121.966859 
L 347.408105 -117.370049 
L 347.402717 -112.773239 
z
" style="stroke: #3f3f3f; stroke-width: 1.25"/>
    </defs>
    <g clip-path="url(#p9a0d8e4928)">
     <use xlink:href="#m4e96f5844d" x="0" y="720" style="fill: #3274a1; stroke: #3f3f3f; stroke-width: 1.25"/>
    </g>
   </g>
   <g id="PolyCollection_3">
    <defs>
     <path id="m52befd7a17" d="M 459.002711 -108.956526 
L 458.997289 -108.956526 
L 458.991525 -113.8584 
L 458.979156 -118.760273 
L 458.957542 -123.662147 
L 458.923908 -128.564021 
L 458.873481 -133.465895 
L 458.799261 -138.367768 
L 458.694796 -143.269642 
L 458.557142 -148.171516 
L 458.388408 -153.073389 
L 458.190106 -157.975263 
L 457.940457 -162.877137 
L 457.580741 -167.77901 
L 457.042582 -172.680884 
L 456.276901 -177.582758 
L 455.261458 -182.484632 
L 454.024981 -187.386505 
L 452.642158 -192.288379 
L 451.147722 -197.190253 
L 449.497224 -202.092126 
L 447.66217 -206.994 
L 445.696919 -211.895874 
L 443.668037 -216.797747 
L 441.596516 -221.699621 
L 439.485875 -226.601495 
L 437.321696 -231.503369 
L 435.063647 -236.405242 
L 432.696112 -241.307116 
L 430.25041 -246.20899 
L 427.813739 -251.110863 
L 425.574858 -256.012737 
L 423.738507 -260.914611 
L 422.323705 -265.816484 
L 421.18259 -270.718358 
L 420.211945 -275.620232 
L 419.384545 -280.522106 
L 418.677311 -285.423979 
L 418.145692 -290.325853 
L 417.911058 -295.227727 
L 417.926692 -300.1296 
L 417.926623 -305.031474 
L 417.758452 -309.933348 
L 417.635393 -314.835221 
L 417.881409 -319.737095 
L 418.544259 -324.638969 
L 419.485867 -329.540843 
L 420.727785 -334.442716 
L 422.419654 -339.34459 
L 424.493873 -344.246464 
L 426.568513 -349.148337 
L 428.290667 -354.050211 
L 429.707611 -358.952085 
L 431.192978 -363.853958 
L 433.030162 -368.755832 
L 435.159874 -373.657706 
L 437.309877 -378.55958 
L 439.245214 -383.461453 
L 440.883918 -388.363327 
L 442.297103 -393.265201 
L 443.640234 -398.167074 
L 445.039749 -403.068948 
L 446.516498 -407.970822 
L 447.981799 -412.872695 
L 449.301869 -417.774569 
L 450.406429 -422.676443 
L 451.352119 -427.578317 
L 452.264681 -432.48019 
L 453.194772 -437.382064 
L 454.049017 -442.283938 
L 454.70559 -447.185811 
L 455.168661 -452.087685 
L 455.559253 -456.989559 
L 455.982075 -461.891432 
L 456.441501 -466.793306 
L 456.870758 -471.69518 
L 457.21512 -476.597054 
L 457.476928 -481.498927 
L 457.689117 -486.400801 
L 457.876454 -491.302675 
L 458.051466 -496.204548 
L 458.223471 -501.106422 
L 458.395389 -506.008296 
L 458.555052 -510.910169 
L 458.682157 -515.812043 
L 458.767876 -520.713917 
L 458.821184 -525.615791 
L 458.857206 -530.517664 
L 458.885499 -535.419538 
L 458.910031 -540.321412 
L 458.934074 -545.223285 
L 458.95846 -550.125159 
L 458.978797 -555.027033 
L 458.990249 -559.928906 
L 458.992467 -564.83078 
L 458.98892 -569.732654 
L 458.984822 -574.634528 
L 458.98464 -579.536401 
L 458.988848 -584.438275 
L 458.994209 -589.340149 
L 458.997849 -594.242022 
L 459.002151 -594.242022 
L 459.002151 -594.242022 
L 459.005791 -589.340149 
L 459.011152 -584.438275 
L 459.01536 -579.536401 
L 459.015178 -574.634528 
L 459.01108 -569.732654 
L 459.007533 -564.83078 
L 459.009751 -559.928906 
L 459.021203 -555.027033 
L 459.04154 -550.125159 
L 459.065926 -545.223285 
L 459.089969 -540.321412 
L 459.114501 -535.419538 
L 459.142794 -530.517664 
L 459.178816 -525.615791 
L 459.232124 -520.713917 
L 459.317843 -515.812043 
L 459.444948 -510.910169 
L 459.604611 -506.008296 
L 459.776529 -501.106422 
L 459.948534 -496.204548 
L 460.123546 -491.302675 
L 460.310883 -486.400801 
L 460.523072 -481.498927 
L 460.78488 -476.597054 
L 461.129242 -471.69518 
L 461.558499 -466.793306 
L 462.017925 -461.891432 
L 462.440747 -456.989559 
L 462.831339 -452.087685 
L 463.29441 -447.185811 
L 463.950983 -442.283938 
L 464.805228 -437.382064 
L 465.735319 -432.48019 
L 466.647881 -427.578317 
L 467.593571 -422.676443 
L 468.698131 -417.774569 
L 470.018201 -412.872695 
L 471.483502 -407.970822 
L 472.960251 -403.068948 
L 474.359766 -398.167074 
L 475.702897 -393.265201 
L 477.116082 -388.363327 
L 478.754786 -383.461453 
L 480.690123 -378.55958 
L 482.840126 -373.657706 
L 484.969838 -368.755832 
L 486.807022 -363.853958 
L 488.292389 -358.952085 
L 489.709333 -354.050211 
L 491.431487 -349.148337 
L 493.506127 -344.246464 
L 495.580346 -339.34459 
L 497.272215 -334.442716 
L 498.514133 -329.540843 
L 499.455741 -324.638969 
L 500.118591 -319.737095 
L 500.364607 -314.835221 
L 500.241548 -309.933348 
L 500.073377 -305.031474 
L 500.073308 -300.1296 
L 500.088942 -295.227727 
L 499.854308 -290.325853 
L 499.322689 -285.423979 
L 498.615455 -280.522106 
L 497.788055 -275.620232 
L 496.81741 -270.718358 
L 495.676295 -265.816484 
L 494.261493 -260.914611 
L 492.425142 -256.012737 
L 490.186261 -251.110863 
L 487.74959 -246.20899 
L 485.303888 -241.307116 
L 482.936353 -236.405242 
L 480.678304 -231.503369 
L 478.514125 -226.601495 
L 476.403484 -221.699621 
L 474.331963 -216.797747 
L 472.303081 -211.895874 
L 470.33783 -206.994 
L 468.502776 -202.092126 
L 466.852278 -197.190253 
L 465.357842 -192.288379 
L 463.975019 -187.386505 
L 462.738542 -182.484632 
L 461.723099 -177.582758 
L 460.957418 -172.680884 
L 460.419259 -167.77901 
L 460.059543 -162.877137 
L 459.809894 -157.975263 
L 459.611592 -153.073389 
L 459.442858 -148.171516 
L 459.305204 -143.269642 
L 459.200739 -138.367768 
L 459.126519 -133.465895 
L 459.076092 -128.564021 
L 459.042458 -123.662147 
L 459.020844 -118.760273 
L 459.008475 -113.8584 
L 459.002711 -108.956526 
z
" style="stroke: #3f3f3f; stroke-width: 1.25"/>
    </defs>
    <g clip-path="url(#p9a0d8e4928)">
     <use xlink:href="#m52befd7a17" x="0" y="720" style="fill: #3274a1; stroke: #3f3f3f; stroke-width: 1.25"/>
    </g>
   </g>
   <g id="PolyCollection_4">
    <defs>
     <path id="mc86f83e8e9" d="M 570.606252 -120.562824 
L 570.593748 -120.562824 
L 570.580816 -125.348063 
L 570.553513 -130.133302 
L 570.505775 -134.918542 
L 570.428946 -139.703781 
L 570.309374 -144.489021 
L 570.138051 -149.27426 
L 569.924135 -154.0595 
L 569.687514 -158.844739 
L 569.432386 -163.629979 
L 569.132377 -168.415218 
L 568.740263 -173.200458 
L 568.203281 -177.985697 
L 567.468765 -182.770936 
L 566.49501 -187.556176 
L 565.274638 -192.341415 
L 563.837531 -197.126655 
L 562.230508 -201.911894 
L 560.516303 -206.697134 
L 558.759492 -211.482373 
L 556.962825 -216.267613 
L 555.06415 -221.052852 
L 553.02823 -225.838092 
L 550.873972 -230.623331 
L 548.620269 -235.408571 
L 546.288645 -240.19381 
L 543.944371 -244.979049 
L 541.690682 -249.764289 
L 539.63289 -254.549528 
L 537.823555 -259.334768 
L 536.197561 -264.120007 
L 534.60875 -268.905247 
L 533.019942 -273.690486 
L 531.622499 -278.475726 
L 530.666691 -283.260965 
L 530.198956 -288.046205 
L 530.026904 -292.831444 
L 529.889603 -297.616684 
L 529.62535 -302.401923 
L 529.238068 -307.187162 
L 528.872314 -311.972402 
L 528.741639 -316.757641 
L 529.022532 -321.542881 
L 529.756955 -326.32812 
L 530.886977 -331.11336 
L 532.360455 -335.898599 
L 534.1004 -340.683839 
L 535.914687 -345.469078 
L 537.581609 -350.254318 
L 539.050028 -355.039557 
L 540.481266 -359.824796 
L 542.082335 -364.610036 
L 543.929977 -369.395275 
L 545.924084 -374.180515 
L 547.868257 -378.965754 
L 549.604109 -383.750994 
L 551.100191 -388.536233 
L 552.451575 -393.321473 
L 553.815277 -398.106712 
L 555.308393 -402.891952 
L 556.912466 -407.677191 
L 558.481728 -412.462431 
L 559.881044 -417.24767 
L 561.098712 -422.032909 
L 562.197892 -426.818149 
L 563.205762 -431.603388 
L 564.093703 -436.388628 
L 564.834231 -441.173867 
L 565.447426 -445.959107 
L 565.989438 -450.744346 
L 566.496887 -455.529586 
L 566.967927 -460.314825 
L 567.401457 -465.100065 
L 567.814497 -469.885304 
L 568.221497 -474.670543 
L 568.622583 -479.455783 
L 568.997691 -484.241022 
L 569.313064 -489.026262 
L 569.557621 -493.811501 
L 569.757018 -498.596741 
L 569.938099 -503.38198 
L 570.100728 -508.16722 
L 570.228975 -512.952459 
L 570.315586 -517.737699 
L 570.371256 -522.522938 
L 570.413462 -527.308178 
L 570.452913 -532.093417 
L 570.492076 -536.878656 
L 570.528564 -541.663896 
L 570.557142 -546.449135 
L 570.573188 -551.234375 
L 570.57645 -556.019614 
L 570.571574 -560.804854 
L 570.5652 -565.590093 
L 570.562548 -570.375333 
L 570.56594 -575.160572 
L 570.574535 -579.945812 
L 570.584819 -584.731051 
L 570.59298 -589.516291 
L 570.597534 -594.30153 
L 570.602466 -594.30153 
L 570.602466 -594.30153 
L 570.60702 -589.516291 
L 570.615181 -584.731051 
L 570.625465 -579.945812 
L 570.63406 -575.160572 
L 570.637452 -570.375333 
L 570.6348 -565.590093 
L 570.628426 -560.804854 
L 570.62355 -556.019614 
L 570.626812 -551.234375 
L 570.642858 -546.449135 
L 570.671436 -541.663896 
L 570.707924 -536.878656 
L 570.747087 -532.093417 
L 570.786538 -527.308178 
L 570.828744 -522.522938 
L 570.884414 -517.737699 
L 570.971025 -512.952459 
L 571.099272 -508.16722 
L 571.261901 -503.38198 
L 571.442982 -498.596741 
L 571.642379 -493.811501 
L 571.886936 -489.026262 
L 572.202309 -484.241022 
L 572.577417 -479.455783 
L 572.978503 -474.670543 
L 573.385503 -469.885304 
L 573.798543 -465.100065 
L 574.232073 -460.314825 
L 574.703113 -455.529586 
L 575.210562 -450.744346 
L 575.752574 -445.959107 
L 576.365769 -441.173867 
L 577.106297 -436.388628 
L 577.994238 -431.603388 
L 579.002108 -426.818149 
L 580.101288 -422.032909 
L 581.318956 -417.24767 
L 582.718272 -412.462431 
L 584.287534 -407.677191 
L 585.891607 -402.891952 
L 587.384723 -398.106712 
L 588.748425 -393.321473 
L 590.099809 -388.536233 
L 591.595891 -383.750994 
L 593.331743 -378.965754 
L 595.275916 -374.180515 
L 597.270023 -369.395275 
L 599.117665 -364.610036 
L 600.718734 -359.824796 
L 602.149972 -355.039557 
L 603.618391 -350.254318 
L 605.285313 -345.469078 
L 607.0996 -340.683839 
L 608.839545 -335.898599 
L 610.313023 -331.11336 
L 611.443045 -326.32812 
L 612.177468 -321.542881 
L 612.458361 -316.757641 
L 612.327686 -311.972402 
L 611.961932 -307.187162 
L 611.57465 -302.401923 
L 611.310397 -297.616684 
L 611.173096 -292.831444 
L 611.001044 -288.046205 
L 610.533309 -283.260965 
L 609.577501 -278.475726 
L 608.180058 -273.690486 
L 606.59125 -268.905247 
L 605.002439 -264.120007 
L 603.376445 -259.334768 
L 601.56711 -254.549528 
L 599.509318 -249.764289 
L 597.255629 -244.979049 
L 594.911355 -240.19381 
L 592.579731 -235.408571 
L 590.326028 -230.623331 
L 588.17177 -225.838092 
L 586.13585 -221.052852 
L 584.237175 -216.267613 
L 582.440508 -211.482373 
L 580.683697 -206.697134 
L 578.969492 -201.911894 
L 577.362469 -197.126655 
L 575.925362 -192.341415 
L 574.70499 -187.556176 
L 573.731235 -182.770936 
L 572.996719 -177.985697 
L 572.459737 -173.200458 
L 572.067623 -168.415218 
L 571.767614 -163.629979 
L 571.512486 -158.844739 
L 571.275865 -154.0595 
L 571.061949 -149.27426 
L 570.890626 -144.489021 
L 570.771054 -139.703781 
L 570.694225 -134.918542 
L 570.646487 -130.133302 
L 570.619184 -125.348063 
L 570.606252 -120.562824 
z
" style="stroke: #3f3f3f; stroke-width: 1.25"/>
    </defs>
    <g clip-path="url(#p9a0d8e4928)">
     <use xlink:href="#mc86f83e8e9" x="0" y="720" style="fill: #3274a1; stroke: #3f3f3f; stroke-width: 1.25"/>
    </g>
   </g>
   <g id="PolyCollection_5">
    <defs>
     <path id="m5a46bca7e3" d="M 682.202894 -107.341011 
L 682.197106 -107.341011 
L 682.191518 -112.112 
L 682.181313 -116.88299 
L 682.167853 -121.653979 
L 682.153276 -126.424969 
L 682.135277 -131.195958 
L 682.106708 -135.966948 
L 682.061973 -140.737938 
L 681.998903 -145.508927 
L 681.911045 -150.279917 
L 681.784893 -155.050906 
L 681.614329 -159.821896 
L 681.41094 -164.592885 
L 681.181508 -169.363875 
L 680.897569 -174.134865 
L 680.501862 -178.905854 
L 679.936454 -183.676844 
L 679.159915 -188.447833 
L 678.15428 -193.218823 
L 676.919309 -197.989812 
L 675.467986 -202.760802 
L 673.839021 -207.531792 
L 672.081771 -212.302781 
L 670.213527 -217.073771 
L 668.229612 -221.84476 
L 666.1551 -226.61575 
L 664.042168 -231.386739 
L 661.915869 -236.157729 
L 659.767904 -240.928719 
L 657.613507 -245.699708 
L 655.50894 -250.470698 
L 653.501027 -255.241687 
L 651.593763 -260.012677 
L 649.75379 -264.783666 
L 647.925285 -269.554656 
L 646.097216 -274.325646 
L 644.394701 -279.096635 
L 643.036951 -283.867625 
L 642.147671 -288.638614 
L 641.614369 -293.409604 
L 641.184147 -298.180593 
L 640.710615 -302.951583 
L 640.22467 -307.722573 
L 639.794094 -312.493562 
L 639.489232 -317.264552 
L 639.464557 -322.035541 
L 639.890918 -326.806531 
L 640.811889 -331.57752 
L 642.147083 -336.34851 
L 643.764576 -341.1195 
L 645.504128 -345.890489 
L 647.229306 -350.661479 
L 648.904673 -355.432468 
L 650.564001 -360.203458 
L 652.227434 -364.974447 
L 653.904282 -369.745437 
L 655.610518 -374.516427 
L 657.327813 -379.287416 
L 658.987518 -384.058406 
L 660.532749 -388.829395 
L 661.998502 -393.600385 
L 663.516738 -398.371374 
L 665.206355 -403.142364 
L 667.038455 -407.913354 
L 668.826729 -412.684343 
L 670.379586 -417.455333 
L 671.668113 -422.226322 
L 672.807826 -426.997312 
L 673.892889 -431.768301 
L 674.925695 -436.539291 
L 675.879864 -441.310281 
L 676.747313 -446.08127 
L 677.526879 -450.85226 
L 678.197109 -455.623249 
L 678.726738 -460.394239 
L 679.134763 -465.165228 
L 679.506349 -469.936218 
L 679.919112 -474.707208 
L 680.37286 -479.478197 
L 680.795472 -484.249187 
L 681.107257 -489.020176 
L 681.289491 -493.791166 
L 681.396823 -498.562155 
L 681.501703 -503.333145 
L 681.632179 -508.104135 
L 681.767791 -512.875124 
L 681.882075 -517.646114 
L 681.966726 -522.417103 
L 682.021961 -527.188093 
L 682.051972 -531.959082 
L 682.069877 -536.730072 
L 682.089077 -541.501062 
L 682.111287 -546.272051 
L 682.130945 -551.043041 
L 682.14597 -555.81403 
L 682.158993 -560.58502 
L 682.17207 -565.356009 
L 682.184116 -570.126999 
L 682.192845 -574.897988 
L 682.197537 -579.668978 
L 682.202463 -579.668978 
L 682.202463 -579.668978 
L 682.207155 -574.897988 
L 682.215884 -570.126999 
L 682.22793 -565.356009 
L 682.241007 -560.58502 
L 682.25403 -555.81403 
L 682.269055 -551.043041 
L 682.288713 -546.272051 
L 682.310923 -541.501062 
L 682.330123 -536.730072 
L 682.348028 -531.959082 
L 682.378039 -527.188093 
L 682.433274 -522.417103 
L 682.517925 -517.646114 
L 682.632209 -512.875124 
L 682.767821 -508.104135 
L 682.898297 -503.333145 
L 683.003177 -498.562155 
L 683.110509 -493.791166 
L 683.292743 -489.020176 
L 683.604528 -484.249187 
L 684.02714 -479.478197 
L 684.480888 -474.707208 
L 684.893651 -469.936218 
L 685.265237 -465.165228 
L 685.673262 -460.394239 
L 686.202891 -455.623249 
L 686.873121 -450.85226 
L 687.652687 -446.08127 
L 688.520136 -441.310281 
L 689.474305 -436.539291 
L 690.507111 -431.768301 
L 691.592174 -426.997312 
L 692.731887 -422.226322 
L 694.020414 -417.455333 
L 695.573271 -412.684343 
L 697.361545 -407.913354 
L 699.193645 -403.142364 
L 700.883262 -398.371374 
L 702.401498 -393.600385 
L 703.867251 -388.829395 
L 705.412482 -384.058406 
L 707.072187 -379.287416 
L 708.789482 -374.516427 
L 710.495718 -369.745437 
L 712.172566 -364.974447 
L 713.835999 -360.203458 
L 715.495327 -355.432468 
L 717.170694 -350.661479 
L 718.895872 -345.890489 
L 720.635424 -341.1195 
L 722.252917 -336.34851 
L 723.588111 -331.57752 
L 724.509082 -326.806531 
L 724.935443 -322.035541 
L 724.910768 -317.264552 
L 724.605906 -312.493562 
L 724.17533 -307.722573 
L 723.689385 -302.951583 
L 723.215853 -298.180593 
L 722.785631 -293.409604 
L 722.252329 -288.638614 
L 721.363049 -283.867625 
L 720.005299 -279.096635 
L 718.302784 -274.325646 
L 716.474715 -269.554656 
L 714.64621 -264.783666 
L 712.806237 -260.012677 
L 710.898973 -255.241687 
L 708.89106 -250.470698 
L 706.786493 -245.699708 
L 704.632096 -240.928719 
L 702.484131 -236.157729 
L 700.357832 -231.386739 
L 698.2449 -226.61575 
L 696.170388 -221.84476 
L 694.186473 -217.073771 
L 692.318229 -212.302781 
L 690.560979 -207.531792 
L 688.932014 -202.760802 
L 687.480691 -197.989812 
L 686.24572 -193.218823 
L 685.240085 -188.447833 
L 684.463546 -183.676844 
L 683.898138 -178.905854 
L 683.502431 -174.134865 
L 683.218492 -169.363875 
L 682.98906 -164.592885 
L 682.785671 -159.821896 
L 682.615107 -155.050906 
L 682.488955 -150.279917 
L 682.401097 -145.508927 
L 682.338027 -140.737938 
L 682.293292 -135.966948 
L 682.264723 -131.195958 
L 682.246724 -126.424969 
L 682.232147 -121.653979 
L 682.218687 -116.88299 
L 682.208482 -112.112 
L 682.202894 -107.341011 
z
" style="stroke: #3f3f3f; stroke-width: 1.25"/>
    </defs>
    <g clip-path="url(#p9a0d8e4928)">
     <use xlink:href="#m5a46bca7e3" x="0" y="720" style="fill: #3274a1; stroke: #3f3f3f; stroke-width: 1.25"/>
    </g>
   </g>
   <g id="PolyCollection_6">
    <defs>
     <path id="mc93e3ee77e" d="M 793.80552 -129.604249 
L 793.79448 -129.604249 
L 793.783103 -134.025704 
L 793.759243 -138.447158 
L 793.720697 -142.868613 
L 793.670081 -147.290068 
L 793.608187 -151.711522 
L 793.525369 -156.132977 
L 793.406024 -160.554432 
L 793.242317 -164.975887 
L 793.034915 -169.397341 
L 792.777303 -173.818796 
L 792.442489 -178.240251 
L 791.98375 -182.661705 
L 791.353065 -187.08316 
L 790.530133 -191.504615 
L 789.530355 -195.926069 
L 788.379386 -200.347524 
L 787.092747 -204.768979 
L 785.679847 -209.190433 
L 784.143358 -213.611888 
L 782.472618 -218.033343 
L 780.658312 -222.454798 
L 778.712523 -226.876252 
L 776.659808 -231.297707 
L 774.522225 -235.719162 
L 772.346265 -240.140616 
L 770.22625 -244.562071 
L 768.231839 -248.983526 
L 766.312776 -253.40498 
L 764.35197 -257.826435 
L 762.308062 -262.24789 
L 760.224997 -266.669344 
L 758.141925 -271.090799 
L 756.122286 -275.512254 
L 754.336568 -279.933708 
L 752.970553 -284.355163 
L 752.059614 -288.776618 
L 751.51061 -293.198073 
L 751.251494 -297.619527 
L 751.25521 -302.040982 
L 751.42423 -306.462437 
L 751.563513 -310.883891 
L 751.550226 -315.305346 
L 751.497605 -319.726801 
L 751.668691 -324.148255 
L 752.234894 -328.56971 
L 753.176652 -332.991165 
L 754.388035 -337.412619 
L 755.787174 -341.834074 
L 757.297098 -346.255529 
L 758.795474 -350.676984 
L 760.182901 -355.098438 
L 761.502106 -359.519893 
L 762.914981 -363.941348 
L 764.532944 -368.362802 
L 766.308521 -372.784257 
L 768.103941 -377.205712 
L 769.812827 -381.627166 
L 771.400047 -386.048621 
L 772.878639 -390.470076 
L 774.285406 -394.89153 
L 775.673722 -399.312985 
L 777.105074 -403.73444 
L 778.605111 -408.155895 
L 780.10667 -412.577349 
L 781.473421 -416.998804 
L 782.62379 -421.420259 
L 783.613071 -425.841713 
L 784.558623 -430.263168 
L 785.518579 -434.684623 
L 786.487221 -439.106077 
L 787.459372 -443.527532 
L 788.427094 -447.948987 
L 789.330547 -452.370441 
L 790.073026 -456.791896 
L 790.599734 -461.213351 
L 790.946028 -465.634805 
L 791.209836 -470.05626 
L 791.485691 -474.477715 
L 791.814292 -478.89917 
L 792.173084 -483.320624 
L 792.505149 -487.742079 
L 792.764571 -492.163534 
L 792.946188 -496.584988 
L 793.079935 -501.006443 
L 793.199941 -505.427898 
L 793.31841 -509.849352 
L 793.426345 -514.270807 
L 793.513434 -518.692262 
L 793.579807 -523.113716 
L 793.630014 -527.535171 
L 793.666331 -531.956626 
L 793.691585 -536.378081 
L 793.711529 -540.799535 
L 793.731035 -545.22099 
L 793.750935 -549.642445 
L 793.769208 -554.063899 
L 793.783499 -558.485354 
L 793.792697 -562.906809 
L 793.797411 -567.328263 
L 793.802589 -567.328263 
L 793.802589 -567.328263 
L 793.807303 -562.906809 
L 793.816501 -558.485354 
L 793.830792 -554.063899 
L 793.849065 -549.642445 
L 793.868965 -545.22099 
L 793.888471 -540.799535 
L 793.908415 -536.378081 
L 793.933669 -531.956626 
L 793.969986 -527.535171 
L 794.020193 -523.113716 
L 794.086566 -518.692262 
L 794.173655 -514.270807 
L 794.28159 -509.849352 
L 794.400059 -505.427898 
L 794.520065 -501.006443 
L 794.653812 -496.584988 
L 794.835429 -492.163534 
L 795.094851 -487.742079 
L 795.426916 -483.320624 
L 795.785708 -478.89917 
L 796.114309 -474.477715 
L 796.390164 -470.05626 
L 796.653972 -465.634805 
L 797.000266 -461.213351 
L 797.526974 -456.791896 
L 798.269453 -452.370441 
L 799.172906 -447.948987 
L 800.140628 -443.527532 
L 801.112779 -439.106077 
L 802.081421 -434.684623 
L 803.041377 -430.263168 
L 803.986929 -425.841713 
L 804.97621 -421.420259 
L 806.126579 -416.998804 
L 807.49333 -412.577349 
L 808.994889 -408.155895 
L 810.494926 -403.73444 
L 811.926278 -399.312985 
L 813.314594 -394.89153 
L 814.721361 -390.470076 
L 816.199953 -386.048621 
L 817.787173 -381.627166 
L 819.496059 -377.205712 
L 821.291479 -372.784257 
L 823.067056 -368.362802 
L 824.685019 -363.941348 
L 826.097894 -359.519893 
L 827.417099 -355.098438 
L 828.804526 -350.676984 
L 830.302902 -346.255529 
L 831.812826 -341.834074 
L 833.211965 -337.412619 
L 834.423348 -332.991165 
L 835.365106 -328.56971 
L 835.931309 -324.148255 
L 836.102395 -319.726801 
L 836.049774 -315.305346 
L 836.036487 -310.883891 
L 836.17577 -306.462437 
L 836.34479 -302.040982 
L 836.348506 -297.619527 
L 836.08939 -293.198073 
L 835.540386 -288.776618 
L 834.629447 -284.355163 
L 833.263432 -279.933708 
L 831.477714 -275.512254 
L 829.458075 -271.090799 
L 827.375003 -266.669344 
L 825.291938 -262.24789 
L 823.24803 -257.826435 
L 821.287224 -253.40498 
L 819.368161 -248.983526 
L 817.37375 -244.562071 
L 815.253735 -240.140616 
L 813.077775 -235.719162 
L 810.940192 -231.297707 
L 808.887477 -226.876252 
L 806.941688 -222.454798 
L 805.127382 -218.033343 
L 803.456642 -213.611888 
L 801.920153 -209.190433 
L 800.507253 -204.768979 
L 799.220614 -200.347524 
L 798.069645 -195.926069 
L 797.069867 -191.504615 
L 796.246935 -187.08316 
L 795.61625 -182.661705 
L 795.157511 -178.240251 
L 794.822697 -173.818796 
L 794.565085 -169.397341 
L 794.357683 -164.975887 
L 794.193976 -160.554432 
L 794.074631 -156.132977 
L 793.991813 -151.711522 
L 793.929919 -147.290068 
L 793.879303 -142.868613 
L 793.840757 -138.447158 
L 793.816897 -134.025704 
L 793.80552 -129.604249 
z
" style="stroke: #3f3f3f; stroke-width: 1.25"/>
    </defs>
    <g clip-path="url(#p9a0d8e4928)">
     <use xlink:href="#mc93e3ee77e" x="0" y="720" style="fill: #3274a1; stroke: #3f3f3f; stroke-width: 1.25"/>
    </g>
   </g>
   <g id="PolyCollection_7">
    <defs>
     <path id="m43b73cc8b5" d="M 905.405182 -129.622852 
L 905.394818 -129.622852 
L 905.384148 -134.009917 
L 905.361109 -138.396983 
L 905.321357 -142.784048 
L 905.263695 -147.171114 
L 905.1875 -151.55818 
L 905.088711 -155.945245 
L 904.961101 -160.332311 
L 904.798497 -164.719376 
L 904.588951 -169.106442 
L 904.311009 -173.493507 
L 903.943396 -177.880573 
L 903.468209 -182.267638 
L 902.856873 -186.654704 
L 902.06938 -191.04177 
L 901.075196 -195.428835 
L 899.865322 -199.815901 
L 898.454229 -204.202966 
L 896.888184 -208.590032 
L 895.239878 -212.977097 
L 893.573941 -217.364163 
L 891.910785 -221.751228 
L 890.204414 -226.138294 
L 888.333907 -230.52536 
L 886.164131 -234.912425 
L 883.701819 -239.299491 
L 881.177466 -243.686556 
L 878.880944 -248.073622 
L 876.916459 -252.460687 
L 875.181357 -256.847753 
L 873.559672 -261.234818 
L 872.054465 -265.621884 
L 870.710256 -270.00895 
L 869.46909 -274.396015 
L 868.181798 -278.783081 
L 866.774002 -283.170146 
L 865.3538 -287.557212 
L 864.132298 -291.944277 
L 863.257508 -296.331343 
L 862.720095 -300.718408 
L 862.387129 -305.105474 
L 862.135535 -309.49254 
L 861.978316 -313.879605 
L 862.040317 -318.266671 
L 862.410906 -322.653736 
L 863.076071 -327.040802 
L 863.991781 -331.427867 
L 865.159876 -335.814933 
L 866.614126 -340.201998 
L 868.327167 -344.589064 
L 870.126745 -348.976129 
L 871.767188 -353.363195 
L 873.13463 -357.750261 
L 874.350616 -362.137326 
L 875.644326 -366.524392 
L 877.143658 -370.911457 
L 878.811292 -375.298523 
L 880.545284 -379.685588 
L 882.280864 -384.072654 
L 883.999602 -388.459719 
L 885.689142 -392.846785 
L 887.322145 -397.233851 
L 888.876224 -401.620916 
L 890.350676 -406.007982 
L 891.732858 -410.395047 
L 892.966176 -414.782113 
L 894.010083 -419.169178 
L 894.934634 -423.556244 
L 895.889856 -427.943309 
L 896.9619 -432.330375 
L 898.10434 -436.717441 
L 899.212717 -441.104506 
L 900.212993 -445.491572 
L 901.063917 -449.878637 
L 901.727255 -454.265703 
L 902.183732 -458.652768 
L 902.46964 -463.039834 
L 902.671743 -467.426899 
L 902.881719 -471.813965 
L 903.152497 -476.201031 
L 903.4805 -480.588096 
L 903.81831 -484.975162 
L 904.113249 -489.362227 
L 904.34452 -493.749293 
L 904.526423 -498.136358 
L 904.683223 -502.523424 
L 904.827982 -506.910489 
L 904.959816 -511.297555 
L 905.072086 -515.684621 
L 905.161406 -520.071686 
L 905.229931 -524.458752 
L 905.280917 -528.845817 
L 905.316225 -533.232883 
L 905.338802 -537.619948 
L 905.353748 -542.007014 
L 905.365741 -546.394079 
L 905.376832 -550.781145 
L 905.38657 -555.168211 
L 905.393643 -559.555276 
L 905.397623 -563.942342 
L 905.402377 -563.942342 
L 905.402377 -563.942342 
L 905.406357 -559.555276 
L 905.41343 -555.168211 
L 905.423168 -550.781145 
L 905.434259 -546.394079 
L 905.446252 -542.007014 
L 905.461198 -537.619948 
L 905.483775 -533.232883 
L 905.519083 -528.845817 
L 905.570069 -524.458752 
L 905.638594 -520.071686 
L 905.727914 -515.684621 
L 905.840184 -511.297555 
L 905.972018 -506.910489 
L 906.116777 -502.523424 
L 906.273577 -498.136358 
L 906.45548 -493.749293 
L 906.686751 -489.362227 
L 906.98169 -484.975162 
L 907.3195 -480.588096 
L 907.647503 -476.201031 
L 907.918281 -471.813965 
L 908.128257 -467.426899 
L 908.33036 -463.039834 
L 908.616268 -458.652768 
L 909.072745 -454.265703 
L 909.736083 -449.878637 
L 910.587007 -445.491572 
L 911.587283 -441.104506 
L 912.69566 -436.717441 
L 913.8381 -432.330375 
L 914.910144 -427.943309 
L 915.865366 -423.556244 
L 916.789917 -419.169178 
L 917.833824 -414.782113 
L 919.067142 -410.395047 
L 920.449324 -406.007982 
L 921.923776 -401.620916 
L 923.477855 -397.233851 
L 925.110858 -392.846785 
L 926.800398 -388.459719 
L 928.519136 -384.072654 
L 930.254716 -379.685588 
L 931.988708 -375.298523 
L 933.656342 -370.911457 
L 935.155674 -366.524392 
L 936.449384 -362.137326 
L 937.66537 -357.750261 
L 939.032812 -353.363195 
L 940.673255 -348.976129 
L 942.472833 -344.589064 
L 944.185874 -340.201998 
L 945.640124 -335.814933 
L 946.808219 -331.427867 
L 947.723929 -327.040802 
L 948.389094 -322.653736 
L 948.759683 -318.266671 
L 948.821684 -313.879605 
L 948.664465 -309.49254 
L 948.412871 -305.105474 
L 948.079905 -300.718408 
L 947.542492 -296.331343 
L 946.667702 -291.944277 
L 945.4462 -287.557212 
L 944.025998 -283.170146 
L 942.618202 -278.783081 
L 941.33091 -274.396015 
L 940.089744 -270.00895 
L 938.745535 -265.621884 
L 937.240328 -261.234818 
L 935.618643 -256.847753 
L 933.883541 -252.460687 
L 931.919056 -248.073622 
L 929.622534 -243.686556 
L 927.098181 -239.299491 
L 924.635869 -234.912425 
L 922.466093 -230.52536 
L 920.595586 -226.138294 
L 918.889215 -221.751228 
L 917.226059 -217.364163 
L 915.560122 -212.977097 
L 913.911816 -208.590032 
L 912.345771 -204.202966 
L 910.934678 -199.815901 
L 909.724804 -195.428835 
L 908.73062 -191.04177 
L 907.943127 -186.654704 
L 907.331791 -182.267638 
L 906.856604 -177.880573 
L 906.488991 -173.493507 
L 906.211049 -169.106442 
L 906.001503 -164.719376 
L 905.838899 -160.332311 
L 905.711289 -155.945245 
L 905.6125 -151.55818 
L 905.536305 -147.171114 
L 905.478643 -142.784048 
L 905.438891 -138.396983 
L 905.415852 -134.009917 
L 905.405182 -129.622852 
z
" style="stroke: #3f3f3f; stroke-width: 1.25"/>
    </defs>
    <g clip-path="url(#p9a0d8e4928)">
     <use xlink:href="#m43b73cc8b5" x="0" y="720" style="fill: #3274a1; stroke: #3f3f3f; stroke-width: 1.25"/>
    </g>
   </g>
   <g id="PolyCollection_8">
    <defs>
     <path id="m2c31556379" d="M 1017.005771 -125.17799 
L 1016.994229 -125.17799 
L 1016.983357 -129.610665 
L 1016.96197 -134.043341 
L 1016.929267 -138.476016 
L 1016.88809 -142.908692 
L 1016.837979 -147.341367 
L 1016.765001 -151.774043 
L 1016.644204 -156.206718 
L 1016.462731 -160.639394 
L 1016.238137 -165.072069 
L 1015.996668 -169.504745 
L 1015.729619 -173.93742 
L 1015.383931 -178.370096 
L 1014.895316 -182.802771 
L 1014.225739 -187.235447 
L 1013.378058 -191.668122 
L 1012.375127 -196.100798 
L 1011.221565 -200.533473 
L 1009.902096 -204.966149 
L 1008.423096 -209.398824 
L 1006.834648 -213.831499 
L 1005.193486 -218.264175 
L 1003.499453 -222.69685 
L 1001.676528 -227.129526 
L 999.636258 -231.562201 
L 997.373082 -235.994877 
L 994.997722 -240.427552 
L 992.668682 -244.860228 
L 990.486946 -249.292903 
L 988.464869 -253.725579 
L 986.578916 -258.158254 
L 984.811328 -262.59093 
L 983.140505 -267.023605 
L 981.527912 -271.456281 
L 979.936568 -275.888956 
L 978.370734 -280.321632 
L 976.909556 -284.754307 
L 975.690097 -289.186983 
L 974.810284 -293.619658 
L 974.236837 -298.052334 
L 973.851543 -302.485009 
L 973.595455 -306.917685 
L 973.530222 -311.35036 
L 973.74626 -315.783036 
L 974.243365 -320.215711 
L 974.93794 -324.648387 
L 975.760328 -329.081062 
L 976.690949 -333.513738 
L 977.729029 -337.946413 
L 978.879988 -342.379088 
L 980.147805 -346.811764 
L 981.516351 -351.244439 
L 982.968507 -355.677115 
L 984.514918 -360.10979 
L 986.169584 -364.542466 
L 987.911959 -368.975141 
L 989.694194 -373.407817 
L 991.469344 -377.840492 
L 993.211661 -382.273168 
L 994.934211 -386.705843 
L 996.673374 -391.138519 
L 998.435822 -395.571194 
L 1000.187008 -400.00387 
L 1001.886146 -404.436545 
L 1003.480529 -408.869221 
L 1004.883456 -413.301896 
L 1006.034123 -417.734572 
L 1006.984065 -422.167247 
L 1007.87039 -426.599923 
L 1008.799159 -431.032598 
L 1009.782312 -435.465274 
L 1010.769146 -439.897949 
L 1011.694607 -444.330625 
L 1012.494064 -448.7633 
L 1013.112768 -453.195976 
L 1013.537507 -457.628651 
L 1013.820211 -462.061327 
L 1014.053651 -466.494002 
L 1014.313042 -470.926678 
L 1014.617528 -475.359353 
L 1014.941372 -479.792028 
L 1015.249792 -484.224704 
L 1015.522575 -488.657379 
L 1015.758238 -493.090055 
L 1015.9679 -497.52273 
L 1016.165456 -501.955406 
L 1016.35655 -506.388081 
L 1016.531288 -510.820757 
L 1016.671137 -515.253432 
L 1016.766849 -519.686108 
L 1016.824984 -524.118783 
L 1016.858035 -528.551459 
L 1016.877744 -532.984134 
L 1016.895486 -537.41681 
L 1016.918128 -541.849485 
L 1016.943843 -546.282161 
L 1016.966667 -550.714836 
L 1016.982991 -555.147512 
L 1016.992698 -559.580187 
L 1016.997448 -564.012863 
L 1017.002552 -564.012863 
L 1017.002552 -564.012863 
L 1017.007302 -559.580187 
L 1017.017009 -555.147512 
L 1017.033333 -550.714836 
L 1017.056157 -546.282161 
L 1017.081872 -541.849485 
L 1017.104514 -537.41681 
L 1017.122256 -532.984134 
L 1017.141965 -528.551459 
L 1017.175016 -524.118783 
L 1017.233151 -519.686108 
L 1017.328863 -515.253432 
L 1017.468712 -510.820757 
L 1017.64345 -506.388081 
L 1017.834544 -501.955406 
L 1018.0321 -497.52273 
L 1018.241762 -493.090055 
L 1018.477425 -488.657379 
L 1018.750208 -484.224704 
L 1019.058628 -479.792028 
L 1019.382472 -475.359353 
L 1019.686958 -470.926678 
L 1019.946349 -466.494002 
L 1020.179789 -462.061327 
L 1020.462493 -457.628651 
L 1020.887232 -453.195976 
L 1021.505936 -448.7633 
L 1022.305393 -444.330625 
L 1023.230854 -439.897949 
L 1024.217688 -435.465274 
L 1025.200841 -431.032598 
L 1026.12961 -426.599923 
L 1027.015935 -422.167247 
L 1027.965877 -417.734572 
L 1029.116544 -413.301896 
L 1030.519471 -408.869221 
L 1032.113854 -404.436545 
L 1033.812992 -400.00387 
L 1035.564178 -395.571194 
L 1037.326626 -391.138519 
L 1039.065789 -386.705843 
L 1040.788339 -382.273168 
L 1042.530656 -377.840492 
L 1044.305806 -373.407817 
L 1046.088041 -368.975141 
L 1047.830416 -364.542466 
L 1049.485082 -360.10979 
L 1051.031493 -355.677115 
L 1052.483649 -351.244439 
L 1053.852195 -346.811764 
L 1055.120012 -342.379088 
L 1056.270971 -337.946413 
L 1057.309051 -333.513738 
L 1058.239672 -329.081062 
L 1059.06206 -324.648387 
L 1059.756635 -320.215711 
L 1060.25374 -315.783036 
L 1060.469778 -311.35036 
L 1060.404545 -306.917685 
L 1060.148457 -302.485009 
L 1059.763163 -298.052334 
L 1059.189716 -293.619658 
L 1058.309903 -289.186983 
L 1057.090444 -284.754307 
L 1055.629266 -280.321632 
L 1054.063432 -275.888956 
L 1052.472088 -271.456281 
L 1050.859495 -267.023605 
L 1049.188672 -262.59093 
L 1047.421084 -258.158254 
L 1045.535131 -253.725579 
L 1043.513054 -249.292903 
L 1041.331318 -244.860228 
L 1039.002278 -240.427552 
L 1036.626918 -235.994877 
L 1034.363742 -231.562201 
L 1032.323472 -227.129526 
L 1030.500547 -222.69685 
L 1028.806514 -218.264175 
L 1027.165352 -213.831499 
L 1025.576904 -209.398824 
L 1024.097904 -204.966149 
L 1022.778435 -200.533473 
L 1021.624873 -196.100798 
L 1020.621942 -191.668122 
L 1019.774261 -187.235447 
L 1019.104684 -182.802771 
L 1018.616069 -178.370096 
L 1018.270381 -173.93742 
L 1018.003332 -169.504745 
L 1017.761863 -165.072069 
L 1017.537269 -160.639394 
L 1017.355796 -156.206718 
L 1017.234999 -151.774043 
L 1017.162021 -147.341367 
L 1017.11191 -142.908692 
L 1017.070733 -138.476016 
L 1017.03803 -134.043341 
L 1017.016643 -129.610665 
L 1017.005771 -125.17799 
z
" style="stroke: #3f3f3f; stroke-width: 1.25"/>
    </defs>
    <g clip-path="url(#p9a0d8e4928)">
     <use xlink:href="#m2c31556379" x="0" y="720" style="fill: #3274a1; stroke: #3f3f3f; stroke-width: 1.25"/>
    </g>
   </g>
   <g id="PolyCollection_9">
    <defs>
     <path id="m015a21c0ed" d="M 1128.604167 -125.38472 
L 1128.595833 -125.38472 
L 1128.586672 -129.81322 
L 1128.56612 -134.241719 
L 1128.530098 -138.670218 
L 1128.478864 -143.098717 
L 1128.413983 -147.527216 
L 1128.329914 -151.955715 
L 1128.212452 -156.384214 
L 1128.051256 -160.812713 
L 1127.852289 -165.241212 
L 1127.628847 -169.669712 
L 1127.375513 -174.098211 
L 1127.053879 -178.52671 
L 1126.601661 -182.955209 
L 1125.956386 -187.383708 
L 1125.088922 -191.812207 
L 1124.026746 -196.240706 
L 1122.836667 -200.669205 
L 1121.577611 -205.097704 
L 1120.268404 -209.526204 
L 1118.898205 -213.954703 
L 1117.464589 -218.383202 
L 1115.980535 -222.811701 
L 1114.411863 -227.2402 
L 1112.631037 -231.668699 
L 1110.51385 -236.097198 
L 1108.108088 -240.525697 
L 1105.64613 -244.954196 
L 1103.364324 -249.382695 
L 1101.344842 -253.811195 
L 1099.516525 -258.239694 
L 1097.751386 -262.668193 
L 1095.967932 -267.096692 
L 1094.180127 -271.525191 
L 1092.446747 -275.95369 
L 1090.790162 -280.382189 
L 1089.218924 -284.810688 
L 1087.813674 -289.239187 
L 1086.684564 -293.667687 
L 1085.813748 -298.096186 
L 1085.056862 -302.524685 
L 1084.375713 -306.953184 
L 1083.96 -311.381683 
L 1084.000664 -315.810182 
L 1084.433831 -320.238681 
L 1085.048161 -324.66718 
L 1085.772979 -329.095679 
L 1086.711493 -333.524178 
L 1087.91614 -337.952678 
L 1089.268813 -342.381177 
L 1090.622043 -346.809676 
L 1091.976258 -351.238175 
L 1093.453821 -355.666674 
L 1095.132886 -360.095173 
L 1096.966946 -364.523672 
L 1098.84975 -368.952171 
L 1100.69559 -373.38067 
L 1102.457428 -377.80917 
L 1104.139344 -382.237669 
L 1105.816299 -386.666168 
L 1107.568627 -391.094667 
L 1109.365736 -395.523166 
L 1111.093678 -399.951665 
L 1112.712536 -404.380164 
L 1114.283401 -408.808663 
L 1115.826153 -413.237162 
L 1117.259839 -417.665661 
L 1118.514917 -422.094161 
L 1119.630502 -426.52266 
L 1120.702301 -430.951159 
L 1121.767263 -435.379658 
L 1122.775029 -439.808157 
L 1123.656971 -444.236656 
L 1124.378185 -448.665155 
L 1124.926741 -453.093654 
L 1125.311118 -457.522153 
L 1125.58645 -461.950653 
L 1125.840455 -466.379152 
L 1126.130343 -470.807651 
L 1126.448705 -475.23615 
L 1126.755013 -479.664649 
L 1127.024948 -484.093148 
L 1127.263272 -488.521647 
L 1127.480675 -492.950146 
L 1127.675592 -497.378645 
L 1127.842873 -501.807145 
L 1127.985524 -506.235644 
L 1128.109583 -510.664143 
L 1128.217265 -515.092642 
L 1128.308402 -519.521141 
L 1128.38043 -523.94964 
L 1128.428785 -528.378139 
L 1128.45589 -532.806638 
L 1128.475684 -537.235137 
L 1128.501205 -541.663636 
L 1128.532337 -546.092136 
L 1128.560719 -550.520635 
L 1128.580668 -554.949134 
L 1128.592022 -559.377633 
L 1128.597312 -563.806132 
L 1128.602688 -563.806132 
L 1128.602688 -563.806132 
L 1128.607978 -559.377633 
L 1128.619332 -554.949134 
L 1128.639281 -550.520635 
L 1128.667663 -546.092136 
L 1128.698795 -541.663636 
L 1128.724316 -537.235137 
L 1128.74411 -532.806638 
L 1128.771215 -528.378139 
L 1128.81957 -523.94964 
L 1128.891598 -519.521141 
L 1128.982735 -515.092642 
L 1129.090417 -510.664143 
L 1129.214476 -506.235644 
L 1129.357127 -501.807145 
L 1129.524408 -497.378645 
L 1129.719325 -492.950146 
L 1129.936728 -488.521647 
L 1130.175052 -484.093148 
L 1130.444987 -479.664649 
L 1130.751295 -475.23615 
L 1131.069657 -470.807651 
L 1131.359545 -466.379152 
L 1131.61355 -461.950653 
L 1131.888882 -457.522153 
L 1132.273259 -453.093654 
L 1132.821815 -448.665155 
L 1133.543029 -444.236656 
L 1134.424971 -439.808157 
L 1135.432737 -435.379658 
L 1136.497699 -430.951159 
L 1137.569498 -426.52266 
L 1138.685083 -422.094161 
L 1139.940161 -417.665661 
L 1141.373847 -413.237162 
L 1142.916599 -408.808663 
L 1144.487464 -404.380164 
L 1146.106322 -399.951665 
L 1147.834264 -395.523166 
L 1149.631373 -391.094667 
L 1151.383701 -386.666168 
L 1153.060656 -382.237669 
L 1154.742572 -377.80917 
L 1156.50441 -373.38067 
L 1158.35025 -368.952171 
L 1160.233054 -364.523672 
L 1162.067114 -360.095173 
L 1163.746179 -355.666674 
L 1165.223742 -351.238175 
L 1166.577957 -346.809676 
L 1167.931187 -342.381177 
L 1169.28386 -337.952678 
L 1170.488507 -333.524178 
L 1171.427021 -329.095679 
L 1172.151839 -324.66718 
L 1172.766169 -320.238681 
L 1173.199336 -315.810182 
L 1173.24 -311.381683 
L 1172.824287 -306.953184 
L 1172.143138 -302.524685 
L 1171.386252 -298.096186 
L 1170.515436 -293.667687 
L 1169.386326 -289.239187 
L 1167.981076 -284.810688 
L 1166.409838 -280.382189 
L 1164.753253 -275.95369 
L 1163.019873 -271.525191 
L 1161.232068 -267.096692 
L 1159.448614 -262.668193 
L 1157.683475 -258.239694 
L 1155.855158 -253.811195 
L 1153.835676 -249.382695 
L 1151.55387 -244.954196 
L 1149.091912 -240.525697 
L 1146.68615 -236.097198 
L 1144.568963 -231.668699 
L 1142.788137 -227.2402 
L 1141.219465 -222.811701 
L 1139.735411 -218.383202 
L 1138.301795 -213.954703 
L 1136.931596 -209.526204 
L 1135.622389 -205.097704 
L 1134.363333 -200.669205 
L 1133.173254 -196.240706 
L 1132.111078 -191.812207 
L 1131.243614 -187.383708 
L 1130.598339 -182.955209 
L 1130.146121 -178.52671 
L 1129.824487 -174.098211 
L 1129.571153 -169.669712 
L 1129.347711 -165.241212 
L 1129.148744 -160.812713 
L 1128.987548 -156.384214 
L 1128.870086 -151.955715 
L 1128.786017 -147.527216 
L 1128.721136 -143.098717 
L 1128.669902 -138.670218 
L 1128.63388 -134.241719 
L 1128.613328 -129.81322 
L 1128.604167 -125.38472 
z
" style="stroke: #3f3f3f; stroke-width: 1.25"/>
    </defs>
    <g clip-path="url(#p9a0d8e4928)">
     <use xlink:href="#m015a21c0ed" x="0" y="720" style="fill: #3274a1; stroke: #3f3f3f; stroke-width: 1.25"/>
    </g>
   </g>
   <g id="PolyCollection_10">
    <defs>
     <path id="m5327397248" d="M 1240.20349 -125.320204 
L 1240.19651 -125.320204 
L 1240.189262 -129.750006 
L 1240.173546 -134.179809 
L 1240.146374 -138.609611 
L 1240.107101 -143.039414 
L 1240.055293 -147.469216 
L 1239.985701 -151.899019 
L 1239.887595 -156.328821 
L 1239.754495 -160.758623 
L 1239.594059 -165.188426 
L 1239.416393 -169.618228 
L 1239.205705 -174.048031 
L 1238.91185 -178.477833 
L 1238.47427 -182.907636 
L 1237.856352 -187.337438 
L 1237.069592 -191.767241 
L 1236.164732 -196.197043 
L 1235.181503 -200.626846 
L 1234.103501 -205.056648 
L 1232.876883 -209.486451 
L 1231.478391 -213.916253 
L 1229.94827 -218.346056 
L 1228.337845 -222.775858 
L 1226.626792 -227.205661 
L 1224.71366 -231.635463 
L 1222.515591 -236.065266 
L 1220.080527 -240.495068 
L 1217.572306 -244.924871 
L 1215.144429 -249.354673 
L 1212.862911 -253.784475 
L 1210.746464 -258.214278 
L 1208.828514 -262.64408 
L 1207.147151 -267.073883 
L 1205.68985 -271.503685 
L 1204.364317 -275.933488 
L 1203.018296 -280.36329 
L 1201.531876 -284.793093 
L 1199.959036 -289.222895 
L 1198.5259 -293.652698 
L 1197.406443 -298.0825 
L 1196.588794 -302.512303 
L 1196.046737 -306.942105 
L 1195.883179 -311.371908 
L 1196.151397 -315.80171 
L 1196.679921 -320.231513 
L 1197.255952 -324.661315 
L 1197.886659 -329.091118 
L 1198.722607 -333.52092 
L 1199.790906 -337.950723 
L 1200.956702 -342.380525 
L 1202.132187 -346.810327 
L 1203.392053 -351.24013 
L 1204.856439 -355.669932 
L 1206.545241 -360.099735 
L 1208.370149 -364.529537 
L 1210.212063 -368.95934 
L 1211.988763 -373.389142 
L 1213.680707 -377.818945 
L 1215.327549 -382.248747 
L 1217.017576 -386.67855 
L 1218.830977 -391.108352 
L 1220.726551 -395.538155 
L 1222.529639 -399.967957 
L 1224.099247 -404.39776 
L 1225.456638 -408.827562 
L 1226.713406 -413.257365 
L 1227.94758 -417.687167 
L 1229.182369 -422.11697 
L 1230.416732 -426.546772 
L 1231.627111 -430.976575 
L 1232.757076 -435.406377 
L 1233.741655 -439.836179 
L 1234.557047 -444.265982 
L 1235.227602 -448.695784 
L 1235.77566 -453.125587 
L 1236.205621 -457.555389 
L 1236.553832 -461.985192 
L 1236.901533 -466.414994 
L 1237.308527 -470.844797 
L 1237.761402 -475.274599 
L 1238.198047 -479.704402 
L 1238.564799 -484.134204 
L 1238.849391 -488.564007 
L 1239.074985 -492.993809 
L 1239.269835 -497.423612 
L 1239.442593 -501.853414 
L 1239.58497 -506.283217 
L 1239.692807 -510.713019 
L 1239.779285 -515.142822 
L 1239.864754 -519.572624 
L 1239.954686 -524.002427 
L 1240.034653 -528.432229 
L 1240.089857 -532.862031 
L 1240.121607 -537.291834 
L 1240.141439 -541.721636 
L 1240.157829 -546.151439 
L 1240.172698 -550.581241 
L 1240.184868 -555.011044 
L 1240.193118 -559.440846 
L 1240.197521 -563.870649 
L 1240.202479 -563.870649 
L 1240.202479 -563.870649 
L 1240.206882 -559.440846 
L 1240.215132 -555.011044 
L 1240.227302 -550.581241 
L 1240.242171 -546.151439 
L 1240.258561 -541.721636 
L 1240.278393 -537.291834 
L 1240.310143 -532.862031 
L 1240.365347 -528.432229 
L 1240.445314 -524.002427 
L 1240.535246 -519.572624 
L 1240.620715 -515.142822 
L 1240.707193 -510.713019 
L 1240.81503 -506.283217 
L 1240.957407 -501.853414 
L 1241.130165 -497.423612 
L 1241.325015 -492.993809 
L 1241.550609 -488.564007 
L 1241.835201 -484.134204 
L 1242.201953 -479.704402 
L 1242.638598 -475.274599 
L 1243.091473 -470.844797 
L 1243.498467 -466.414994 
L 1243.846168 -461.985192 
L 1244.194379 -457.555389 
L 1244.62434 -453.125587 
L 1245.172398 -448.695784 
L 1245.842953 -444.265982 
L 1246.658345 -439.836179 
L 1247.642924 -435.406377 
L 1248.772889 -430.976575 
L 1249.983268 -426.546772 
L 1251.217631 -422.11697 
L 1252.45242 -417.687167 
L 1253.686594 -413.257365 
L 1254.943362 -408.827562 
L 1256.300753 -404.39776 
L 1257.870361 -399.967957 
L 1259.673449 -395.538155 
L 1261.569023 -391.108352 
L 1263.382424 -386.67855 
L 1265.072451 -382.248747 
L 1266.719293 -377.818945 
L 1268.411237 -373.389142 
L 1270.187937 -368.95934 
L 1272.029851 -364.529537 
L 1273.854759 -360.099735 
L 1275.543561 -355.669932 
L 1277.007947 -351.24013 
L 1278.267813 -346.810327 
L 1279.443298 -342.380525 
L 1280.609094 -337.950723 
L 1281.677393 -333.52092 
L 1282.513341 -329.091118 
L 1283.144048 -324.661315 
L 1283.720079 -320.231513 
L 1284.248603 -315.80171 
L 1284.516821 -311.371908 
L 1284.353263 -306.942105 
L 1283.811206 -302.512303 
L 1282.993557 -298.0825 
L 1281.8741 -293.652698 
L 1280.440964 -289.222895 
L 1278.868124 -284.793093 
L 1277.381704 -280.36329 
L 1276.035683 -275.933488 
L 1274.71015 -271.503685 
L 1273.252849 -267.073883 
L 1271.571486 -262.64408 
L 1269.653536 -258.214278 
L 1267.537089 -253.784475 
L 1265.255571 -249.354673 
L 1262.827694 -244.924871 
L 1260.319473 -240.495068 
L 1257.884409 -236.065266 
L 1255.68634 -231.635463 
L 1253.773208 -227.205661 
L 1252.062155 -222.775858 
L 1250.45173 -218.346056 
L 1248.921609 -213.916253 
L 1247.523117 -209.486451 
L 1246.296499 -205.056648 
L 1245.218497 -200.626846 
L 1244.235268 -196.197043 
L 1243.330408 -191.767241 
L 1242.543648 -187.337438 
L 1241.92573 -182.907636 
L 1241.48815 -178.477833 
L 1241.194295 -174.048031 
L 1240.983607 -169.618228 
L 1240.805941 -165.188426 
L 1240.645505 -160.758623 
L 1240.512405 -156.328821 
L 1240.414299 -151.899019 
L 1240.344707 -147.469216 
L 1240.292899 -143.039414 
L 1240.253626 -138.609611 
L 1240.226454 -134.179809 
L 1240.210738 -129.750006 
L 1240.20349 -125.320204 
z
" style="stroke: #3f3f3f; stroke-width: 1.25"/>
    </defs>
    <g clip-path="url(#p9a0d8e4928)">
     <use xlink:href="#m5327397248" x="0" y="720" style="fill: #3274a1; stroke: #3f3f3f; stroke-width: 1.25"/>
    </g>
   </g>
   <g id="matplotlib.axis_1">
    <g id="xtick_1">
     <g id="line2d_1">
      <defs>
       <path id="m617f38ff56" d="M 0 0 
L 0 3.5 
" style="stroke: #000000; stroke-width: 0.8"/>
      </defs>
      <g>
       <use xlink:href="#m617f38ff56" x="235.8" y="640.8" style="stroke: #000000; stroke-width: 0.8"/>
      </g>
     </g>
     <g id="text_1">
      <!-- 0 -->
      <g transform="translate(232.61875 655.398438) scale(0.1 -0.1)">
       <defs>
        <path id="DejaVuSans-30" d="M 2034 4250 
Q 1547 4250 1301 3770 
Q 1056 3291 1056 2328 
Q 1056 1369 1301 889 
Q 1547 409 2034 409 
Q 2525 409 2770 889 
Q 3016 1369 3016 2328 
Q 3016 3291 2770 3770 
Q 2525 4250 2034 4250 
z
M 2034 4750 
Q 2819 4750 3233 4129 
Q 3647 3509 3647 2328 
Q 3647 1150 3233 529 
Q 2819 -91 2034 -91 
Q 1250 -91 836 529 
Q 422 1150 422 2328 
Q 422 3509 836 4129 
Q 1250 4750 2034 4750 
z
" transform="scale(0.015625)"/>
       </defs>
       <use xlink:href="#DejaVuSans-30"/>
      </g>
     </g>
    </g>
    <g id="xtick_2">
     <g id="line2d_2">
      <g>
       <use xlink:href="#m617f38ff56" x="347.4" y="640.8" style="stroke: #000000; stroke-width: 0.8"/>
      </g>
     </g>
     <g id="text_2">
      <!-- 1 -->
      <g transform="translate(344.21875 655.398438) scale(0.1 -0.1)">
       <defs>
        <path id="DejaVuSans-31" d="M 794 531 
L 1825 531 
L 1825 4091 
L 703 3866 
L 703 4441 
L 1819 4666 
L 2450 4666 
L 2450 531 
L 3481 531 
L 3481 0 
L 794 0 
L 794 531 
z
" transform="scale(0.015625)"/>
       </defs>
       <use xlink:href="#DejaVuSans-31"/>
      </g>
     </g>
    </g>
    <g id="xtick_3">
     <g id="line2d_3">
      <g>
       <use xlink:href="#m617f38ff56" x="459" y="640.8" style="stroke: #000000; stroke-width: 0.8"/>
      </g>
     </g>
     <g id="text_3">
      <!-- 2 -->
      <g transform="translate(455.81875 655.398438) scale(0.1 -0.1)">
       <defs>
        <path id="DejaVuSans-32" d="M 1228 531 
L 3431 531 
L 3431 0 
L 469 0 
L 469 531 
Q 828 903 1448 1529 
Q 2069 2156 2228 2338 
Q 2531 2678 2651 2914 
Q 2772 3150 2772 3378 
Q 2772 3750 2511 3984 
Q 2250 4219 1831 4219 
Q 1534 4219 1204 4116 
Q 875 4013 500 3803 
L 500 4441 
Q 881 4594 1212 4672 
Q 1544 4750 1819 4750 
Q 2544 4750 2975 4387 
Q 3406 4025 3406 3419 
Q 3406 3131 3298 2873 
Q 3191 2616 2906 2266 
Q 2828 2175 2409 1742 
Q 1991 1309 1228 531 
z
" transform="scale(0.015625)"/>
       </defs>
       <use xlink:href="#DejaVuSans-32"/>
      </g>
     </g>
    </g>
    <g id="xtick_4">
     <g id="line2d_4">
      <g>
       <use xlink:href="#m617f38ff56" x="570.6" y="640.8" style="stroke: #000000; stroke-width: 0.8"/>
      </g>
     </g>
     <g id="text_4">
      <!-- 3 -->
      <g transform="translate(567.41875 655.398438) scale(0.1 -0.1)">
       <defs>
        <path id="DejaVuSans-33" d="M 2597 2516 
Q 3050 2419 3304 2112 
Q 3559 1806 3559 1356 
Q 3559 666 3084 287 
Q 2609 -91 1734 -91 
Q 1441 -91 1130 -33 
Q 819 25 488 141 
L 488 750 
Q 750 597 1062 519 
Q 1375 441 1716 441 
Q 2309 441 2620 675 
Q 2931 909 2931 1356 
Q 2931 1769 2642 2001 
Q 2353 2234 1838 2234 
L 1294 2234 
L 1294 2753 
L 1863 2753 
Q 2328 2753 2575 2939 
Q 2822 3125 2822 3475 
Q 2822 3834 2567 4026 
Q 2313 4219 1838 4219 
Q 1578 4219 1281 4162 
Q 984 4106 628 3988 
L 628 4550 
Q 988 4650 1302 4700 
Q 1616 4750 1894 4750 
Q 2613 4750 3031 4423 
Q 3450 4097 3450 3541 
Q 3450 3153 3228 2886 
Q 3006 2619 2597 2516 
z
" transform="scale(0.015625)"/>
       </defs>
       <use xlink:href="#DejaVuSans-33"/>
      </g>
     </g>
    </g>
    <g id="xtick_5">
     <g id="line2d_5">
      <g>
       <use xlink:href="#m617f38ff56" x="682.2" y="640.8" style="stroke: #000000; stroke-width: 0.8"/>
      </g>
     </g>
     <g id="text_5">
      <!-- 4 -->
      <g transform="translate(679.01875 655.398438) scale(0.1 -0.1)">
       <defs>
        <path id="DejaVuSans-34" d="M 2419 4116 
L 825 1625 
L 2419 1625 
L 2419 4116 
z
M 2253 4666 
L 3047 4666 
L 3047 1625 
L 3713 1625 
L 3713 1100 
L 3047 1100 
L 3047 0 
L 2419 0 
L 2419 1100 
L 313 1100 
L 313 1709 
L 2253 4666 
z
" transform="scale(0.015625)"/>
       </defs>
       <use xlink:href="#DejaVuSans-34"/>
      </g>
     </g>
    </g>
    <g id="xtick_6">
     <g id="line2d_6">
      <g>
       <use xlink:href="#m617f38ff56" x="793.8" y="640.8" style="stroke: #000000; stroke-width: 0.8"/>
      </g>
     </g>
     <g id="text_6">
      <!-- 5 -->
      <g transform="translate(790.61875 655.398438) scale(0.1 -0.1)">
       <defs>
        <path id="DejaVuSans-35" d="M 691 4666 
L 3169 4666 
L 3169 4134 
L 1269 4134 
L 1269 2991 
Q 1406 3038 1543 3061 
Q 1681 3084 1819 3084 
Q 2600 3084 3056 2656 
Q 3513 2228 3513 1497 
Q 3513 744 3044 326 
Q 2575 -91 1722 -91 
Q 1428 -91 1123 -41 
Q 819 9 494 109 
L 494 744 
Q 775 591 1075 516 
Q 1375 441 1709 441 
Q 2250 441 2565 725 
Q 2881 1009 2881 1497 
Q 2881 1984 2565 2268 
Q 2250 2553 1709 2553 
Q 1456 2553 1204 2497 
Q 953 2441 691 2322 
L 691 4666 
z
" transform="scale(0.015625)"/>
       </defs>
       <use xlink:href="#DejaVuSans-35"/>
      </g>
     </g>
    </g>
    <g id="xtick_7">
     <g id="line2d_7">
      <g>
       <use xlink:href="#m617f38ff56" x="905.4" y="640.8" style="stroke: #000000; stroke-width: 0.8"/>
      </g>
     </g>
     <g id="text_7">
      <!-- 6 -->
      <g transform="translate(902.21875 655.398438) scale(0.1 -0.1)">
       <defs>
        <path id="DejaVuSans-36" d="M 2113 2584 
Q 1688 2584 1439 2293 
Q 1191 2003 1191 1497 
Q 1191 994 1439 701 
Q 1688 409 2113 409 
Q 2538 409 2786 701 
Q 3034 994 3034 1497 
Q 3034 2003 2786 2293 
Q 2538 2584 2113 2584 
z
M 3366 4563 
L 3366 3988 
Q 3128 4100 2886 4159 
Q 2644 4219 2406 4219 
Q 1781 4219 1451 3797 
Q 1122 3375 1075 2522 
Q 1259 2794 1537 2939 
Q 1816 3084 2150 3084 
Q 2853 3084 3261 2657 
Q 3669 2231 3669 1497 
Q 3669 778 3244 343 
Q 2819 -91 2113 -91 
Q 1303 -91 875 529 
Q 447 1150 447 2328 
Q 447 3434 972 4092 
Q 1497 4750 2381 4750 
Q 2619 4750 2861 4703 
Q 3103 4656 3366 4563 
z
" transform="scale(0.015625)"/>
       </defs>
       <use xlink:href="#DejaVuSans-36"/>
      </g>
     </g>
    </g>
    <g id="xtick_8">
     <g id="line2d_8">
      <g>
       <use xlink:href="#m617f38ff56" x="1017" y="640.8" style="stroke: #000000; stroke-width: 0.8"/>
      </g>
     </g>
     <g id="text_8">
      <!-- 7 -->
      <g transform="translate(1013.81875 655.398438) scale(0.1 -0.1)">
       <defs>
        <path id="DejaVuSans-37" d="M 525 4666 
L 3525 4666 
L 3525 4397 
L 1831 0 
L 1172 0 
L 2766 4134 
L 525 4134 
L 525 4666 
z
" transform="scale(0.015625)"/>
       </defs>
       <use xlink:href="#DejaVuSans-37"/>
      </g>
     </g>
    </g>
    <g id="xtick_9">
     <g id="line2d_9">
      <g>
       <use xlink:href="#m617f38ff56" x="1128.6" y="640.8" style="stroke: #000000; stroke-width: 0.8"/>
      </g>
     </g>
     <g id="text_9">
      <!-- 8 -->
      <g transform="translate(1125.41875 655.398438) scale(0.1 -0.1)">
       <defs>
        <path id="DejaVuSans-38" d="M 2034 2216 
Q 1584 2216 1326 1975 
Q 1069 1734 1069 1313 
Q 1069 891 1326 650 
Q 1584 409 2034 409 
Q 2484 409 2743 651 
Q 3003 894 3003 1313 
Q 3003 1734 2745 1975 
Q 2488 2216 2034 2216 
z
M 1403 2484 
Q 997 2584 770 2862 
Q 544 3141 544 3541 
Q 544 4100 942 4425 
Q 1341 4750 2034 4750 
Q 2731 4750 3128 4425 
Q 3525 4100 3525 3541 
Q 3525 3141 3298 2862 
Q 3072 2584 2669 2484 
Q 3125 2378 3379 2068 
Q 3634 1759 3634 1313 
Q 3634 634 3220 271 
Q 2806 -91 2034 -91 
Q 1263 -91 848 271 
Q 434 634 434 1313 
Q 434 1759 690 2068 
Q 947 2378 1403 2484 
z
M 1172 3481 
Q 1172 3119 1398 2916 
Q 1625 2713 2034 2713 
Q 2441 2713 2670 2916 
Q 2900 3119 2900 3481 
Q 2900 3844 2670 4047 
Q 2441 4250 2034 4250 
Q 1625 4250 1398 4047 
Q 1172 3844 1172 3481 
z
" transform="scale(0.015625)"/>
       </defs>
       <use xlink:href="#DejaVuSans-38"/>
      </g>
     </g>
    </g>
    <g id="xtick_10">
     <g id="line2d_10">
      <g>
       <use xlink:href="#m617f38ff56" x="1240.2" y="640.8" style="stroke: #000000; stroke-width: 0.8"/>
      </g>
     </g>
     <g id="text_10">
      <!-- 9 -->
      <g transform="translate(1237.01875 655.398438) scale(0.1 -0.1)">
       <defs>
        <path id="DejaVuSans-39" d="M 703 97 
L 703 672 
Q 941 559 1184 500 
Q 1428 441 1663 441 
Q 2288 441 2617 861 
Q 2947 1281 2994 2138 
Q 2813 1869 2534 1725 
Q 2256 1581 1919 1581 
Q 1219 1581 811 2004 
Q 403 2428 403 3163 
Q 403 3881 828 4315 
Q 1253 4750 1959 4750 
Q 2769 4750 3195 4129 
Q 3622 3509 3622 2328 
Q 3622 1225 3098 567 
Q 2575 -91 1691 -91 
Q 1453 -91 1209 -44 
Q 966 3 703 97 
z
M 1959 2075 
Q 2384 2075 2632 2365 
Q 2881 2656 2881 3163 
Q 2881 3666 2632 3958 
Q 2384 4250 1959 4250 
Q 1534 4250 1286 3958 
Q 1038 3666 1038 3163 
Q 1038 2656 1286 2365 
Q 1534 2075 1959 2075 
z
" transform="scale(0.015625)"/>
       </defs>
       <use xlink:href="#DejaVuSans-39"/>
      </g>
     </g>
    </g>
    <g id="text_11">
     <!-- iteration -->
     <g transform="translate(716.877344 669.076563) scale(0.1 -0.1)">
      <defs>
       <path id="DejaVuSans-69" d="M 603 3500 
L 1178 3500 
L 1178 0 
L 603 0 
L 603 3500 
z
M 603 4863 
L 1178 4863 
L 1178 4134 
L 603 4134 
L 603 4863 
z
" transform="scale(0.015625)"/>
       <path id="DejaVuSans-74" d="M 1172 4494 
L 1172 3500 
L 2356 3500 
L 2356 3053 
L 1172 3053 
L 1172 1153 
Q 1172 725 1289 603 
Q 1406 481 1766 481 
L 2356 481 
L 2356 0 
L 1766 0 
Q 1100 0 847 248 
Q 594 497 594 1153 
L 594 3053 
L 172 3053 
L 172 3500 
L 594 3500 
L 594 4494 
L 1172 4494 
z
" transform="scale(0.015625)"/>
       <path id="DejaVuSans-65" d="M 3597 1894 
L 3597 1613 
L 953 1613 
Q 991 1019 1311 708 
Q 1631 397 2203 397 
Q 2534 397 2845 478 
Q 3156 559 3463 722 
L 3463 178 
Q 3153 47 2828 -22 
Q 2503 -91 2169 -91 
Q 1331 -91 842 396 
Q 353 884 353 1716 
Q 353 2575 817 3079 
Q 1281 3584 2069 3584 
Q 2775 3584 3186 3129 
Q 3597 2675 3597 1894 
z
M 3022 2063 
Q 3016 2534 2758 2815 
Q 2500 3097 2075 3097 
Q 1594 3097 1305 2825 
Q 1016 2553 972 2059 
L 3022 2063 
z
" transform="scale(0.015625)"/>
       <path id="DejaVuSans-72" d="M 2631 2963 
Q 2534 3019 2420 3045 
Q 2306 3072 2169 3072 
Q 1681 3072 1420 2755 
Q 1159 2438 1159 1844 
L 1159 0 
L 581 0 
L 581 3500 
L 1159 3500 
L 1159 2956 
Q 1341 3275 1631 3429 
Q 1922 3584 2338 3584 
Q 2397 3584 2469 3576 
Q 2541 3569 2628 3553 
L 2631 2963 
z
" transform="scale(0.015625)"/>
       <path id="DejaVuSans-61" d="M 2194 1759 
Q 1497 1759 1228 1600 
Q 959 1441 959 1056 
Q 959 750 1161 570 
Q 1363 391 1709 391 
Q 2188 391 2477 730 
Q 2766 1069 2766 1631 
L 2766 1759 
L 2194 1759 
z
M 3341 1997 
L 3341 0 
L 2766 0 
L 2766 531 
Q 2569 213 2275 61 
Q 1981 -91 1556 -91 
Q 1019 -91 701 211 
Q 384 513 384 1019 
Q 384 1609 779 1909 
Q 1175 2209 1959 2209 
L 2766 2209 
L 2766 2266 
Q 2766 2663 2505 2880 
Q 2244 3097 1772 3097 
Q 1472 3097 1187 3025 
Q 903 2953 641 2809 
L 641 3341 
Q 956 3463 1253 3523 
Q 1550 3584 1831 3584 
Q 2591 3584 2966 3190 
Q 3341 2797 3341 1997 
z
" transform="scale(0.015625)"/>
       <path id="DejaVuSans-6f" d="M 1959 3097 
Q 1497 3097 1228 2736 
Q 959 2375 959 1747 
Q 959 1119 1226 758 
Q 1494 397 1959 397 
Q 2419 397 2687 759 
Q 2956 1122 2956 1747 
Q 2956 2369 2687 2733 
Q 2419 3097 1959 3097 
z
M 1959 3584 
Q 2709 3584 3137 3096 
Q 3566 2609 3566 1747 
Q 3566 888 3137 398 
Q 2709 -91 1959 -91 
Q 1206 -91 779 398 
Q 353 888 353 1747 
Q 353 2609 779 3096 
Q 1206 3584 1959 3584 
z
" transform="scale(0.015625)"/>
       <path id="DejaVuSans-6e" d="M 3513 2113 
L 3513 0 
L 2938 0 
L 2938 2094 
Q 2938 2591 2744 2837 
Q 2550 3084 2163 3084 
Q 1697 3084 1428 2787 
Q 1159 2491 1159 1978 
L 1159 0 
L 581 0 
L 581 3500 
L 1159 3500 
L 1159 2956 
Q 1366 3272 1645 3428 
Q 1925 3584 2291 3584 
Q 2894 3584 3203 3211 
Q 3513 2838 3513 2113 
z
" transform="scale(0.015625)"/>
      </defs>
      <use xlink:href="#DejaVuSans-69"/>
      <use xlink:href="#DejaVuSans-74" x="27.783203"/>
      <use xlink:href="#DejaVuSans-65" x="66.992188"/>
      <use xlink:href="#DejaVuSans-72" x="128.515625"/>
      <use xlink:href="#DejaVuSans-61" x="169.628906"/>
      <use xlink:href="#DejaVuSans-74" x="230.908203"/>
      <use xlink:href="#DejaVuSans-69" x="270.117188"/>
      <use xlink:href="#DejaVuSans-6f" x="297.900391"/>
      <use xlink:href="#DejaVuSans-6e" x="359.082031"/>
     </g>
    </g>
   </g>
   <g id="matplotlib.axis_2">
    <g id="ytick_1">
     <g id="line2d_11">
      <defs>
       <path id="maecfd2f157" d="M 0 0 
L -3.5 0 
" style="stroke: #000000; stroke-width: 0.8"/>
      </defs>
      <g>
       <use xlink:href="#maecfd2f157" x="180" y="624.815853" style="stroke: #000000; stroke-width: 0.8"/>
      </g>
     </g>
     <g id="text_12">
      <!-- 0.2 -->
      <g transform="translate(148.717187 628.615072) scale(0.1 -0.1)">
       <defs>
        <path id="DejaVuSans-2212" d="M 678 2272 
L 4684 2272 
L 4684 1741 
L 678 1741 
L 678 2272 
z
" transform="scale(0.015625)"/>
        <path id="DejaVuSans-2e" d="M 684 794 
L 1344 794 
L 1344 0 
L 684 0 
L 684 794 
z
" transform="scale(0.015625)"/>
       </defs>
       <use xlink:href="#DejaVuSans-2212"/>
       <use xlink:href="#DejaVuSans-30" x="83.789062"/>
       <use xlink:href="#DejaVuSans-2e" x="147.412109"/>
       <use xlink:href="#DejaVuSans-32" x="179.199219"/>
      </g>
     </g>
    </g>
    <g id="ytick_2">
     <g id="line2d_12">
      <g>
       <use xlink:href="#maecfd2f157" x="180" y="537.258431" style="stroke: #000000; stroke-width: 0.8"/>
      </g>
     </g>
     <g id="text_13">
      <!-- 0.0 -->
      <g transform="translate(157.096875 541.05765) scale(0.1 -0.1)">
       <use xlink:href="#DejaVuSans-30"/>
       <use xlink:href="#DejaVuSans-2e" x="63.623047"/>
       <use xlink:href="#DejaVuSans-30" x="95.410156"/>
      </g>
     </g>
    </g>
    <g id="ytick_3">
     <g id="line2d_13">
      <g>
       <use xlink:href="#maecfd2f157" x="180" y="449.701009" style="stroke: #000000; stroke-width: 0.8"/>
      </g>
     </g>
     <g id="text_14">
      <!-- 0.2 -->
      <g transform="translate(157.096875 453.500228) scale(0.1 -0.1)">
       <use xlink:href="#DejaVuSans-30"/>
       <use xlink:href="#DejaVuSans-2e" x="63.623047"/>
       <use xlink:href="#DejaVuSans-32" x="95.410156"/>
      </g>
     </g>
    </g>
    <g id="ytick_4">
     <g id="line2d_14">
      <g>
       <use xlink:href="#maecfd2f157" x="180" y="362.143587" style="stroke: #000000; stroke-width: 0.8"/>
      </g>
     </g>
     <g id="text_15">
      <!-- 0.4 -->
      <g transform="translate(157.096875 365.942806) scale(0.1 -0.1)">
       <use xlink:href="#DejaVuSans-30"/>
       <use xlink:href="#DejaVuSans-2e" x="63.623047"/>
       <use xlink:href="#DejaVuSans-34" x="95.410156"/>
      </g>
     </g>
    </g>
    <g id="ytick_5">
     <g id="line2d_15">
      <g>
       <use xlink:href="#maecfd2f157" x="180" y="274.586165" style="stroke: #000000; stroke-width: 0.8"/>
      </g>
     </g>
     <g id="text_16">
      <!-- 0.6 -->
      <g transform="translate(157.096875 278.385384) scale(0.1 -0.1)">
       <use xlink:href="#DejaVuSans-30"/>
       <use xlink:href="#DejaVuSans-2e" x="63.623047"/>
       <use xlink:href="#DejaVuSans-36" x="95.410156"/>
      </g>
     </g>
    </g>
    <g id="ytick_6">
     <g id="line2d_16">
      <g>
       <use xlink:href="#maecfd2f157" x="180" y="187.028743" style="stroke: #000000; stroke-width: 0.8"/>
      </g>
     </g>
     <g id="text_17">
      <!-- 0.8 -->
      <g transform="translate(157.096875 190.827962) scale(0.1 -0.1)">
       <use xlink:href="#DejaVuSans-30"/>
       <use xlink:href="#DejaVuSans-2e" x="63.623047"/>
       <use xlink:href="#DejaVuSans-38" x="95.410156"/>
      </g>
     </g>
    </g>
    <g id="ytick_7">
     <g id="line2d_17">
      <g>
       <use xlink:href="#maecfd2f157" x="180" y="99.471322" style="stroke: #000000; stroke-width: 0.8"/>
      </g>
     </g>
     <g id="text_18">
      <!-- 1.0 -->
      <g transform="translate(157.096875 103.27054) scale(0.1 -0.1)">
       <use xlink:href="#DejaVuSans-31"/>
       <use xlink:href="#DejaVuSans-2e" x="63.623047"/>
       <use xlink:href="#DejaVuSans-30" x="95.410156"/>
      </g>
     </g>
    </g>
    <g id="text_19">
     <!-- final cosine similarity -->
     <g transform="translate(142.6375 416.667187) rotate(-90) scale(0.1 -0.1)">
      <defs>
       <path id="DejaVuSans-66" d="M 2375 4863 
L 2375 4384 
L 1825 4384 
Q 1516 4384 1395 4259 
Q 1275 4134 1275 3809 
L 1275 3500 
L 2222 3500 
L 2222 3053 
L 1275 3053 
L 1275 0 
L 697 0 
L 697 3053 
L 147 3053 
L 147 3500 
L 697 3500 
L 697 3744 
Q 697 4328 969 4595 
Q 1241 4863 1831 4863 
L 2375 4863 
z
" transform="scale(0.015625)"/>
       <path id="DejaVuSans-6c" d="M 603 4863 
L 1178 4863 
L 1178 0 
L 603 0 
L 603 4863 
z
" transform="scale(0.015625)"/>
       <path id="DejaVuSans-20" transform="scale(0.015625)"/>
       <path id="DejaVuSans-63" d="M 3122 3366 
L 3122 2828 
Q 2878 2963 2633 3030 
Q 2388 3097 2138 3097 
Q 1578 3097 1268 2742 
Q 959 2388 959 1747 
Q 959 1106 1268 751 
Q 1578 397 2138 397 
Q 2388 397 2633 464 
Q 2878 531 3122 666 
L 3122 134 
Q 2881 22 2623 -34 
Q 2366 -91 2075 -91 
Q 1284 -91 818 406 
Q 353 903 353 1747 
Q 353 2603 823 3093 
Q 1294 3584 2113 3584 
Q 2378 3584 2631 3529 
Q 2884 3475 3122 3366 
z
" transform="scale(0.015625)"/>
       <path id="DejaVuSans-73" d="M 2834 3397 
L 2834 2853 
Q 2591 2978 2328 3040 
Q 2066 3103 1784 3103 
Q 1356 3103 1142 2972 
Q 928 2841 928 2578 
Q 928 2378 1081 2264 
Q 1234 2150 1697 2047 
L 1894 2003 
Q 2506 1872 2764 1633 
Q 3022 1394 3022 966 
Q 3022 478 2636 193 
Q 2250 -91 1575 -91 
Q 1294 -91 989 -36 
Q 684 19 347 128 
L 347 722 
Q 666 556 975 473 
Q 1284 391 1588 391 
Q 1994 391 2212 530 
Q 2431 669 2431 922 
Q 2431 1156 2273 1281 
Q 2116 1406 1581 1522 
L 1381 1569 
Q 847 1681 609 1914 
Q 372 2147 372 2553 
Q 372 3047 722 3315 
Q 1072 3584 1716 3584 
Q 2034 3584 2315 3537 
Q 2597 3491 2834 3397 
z
" transform="scale(0.015625)"/>
       <path id="DejaVuSans-6d" d="M 3328 2828 
Q 3544 3216 3844 3400 
Q 4144 3584 4550 3584 
Q 5097 3584 5394 3201 
Q 5691 2819 5691 2113 
L 5691 0 
L 5113 0 
L 5113 2094 
Q 5113 2597 4934 2840 
Q 4756 3084 4391 3084 
Q 3944 3084 3684 2787 
Q 3425 2491 3425 1978 
L 3425 0 
L 2847 0 
L 2847 2094 
Q 2847 2600 2669 2842 
Q 2491 3084 2119 3084 
Q 1678 3084 1418 2786 
Q 1159 2488 1159 1978 
L 1159 0 
L 581 0 
L 581 3500 
L 1159 3500 
L 1159 2956 
Q 1356 3278 1631 3431 
Q 1906 3584 2284 3584 
Q 2666 3584 2933 3390 
Q 3200 3197 3328 2828 
z
" transform="scale(0.015625)"/>
       <path id="DejaVuSans-79" d="M 2059 -325 
Q 1816 -950 1584 -1140 
Q 1353 -1331 966 -1331 
L 506 -1331 
L 506 -850 
L 844 -850 
Q 1081 -850 1212 -737 
Q 1344 -625 1503 -206 
L 1606 56 
L 191 3500 
L 800 3500 
L 1894 763 
L 2988 3500 
L 3597 3500 
L 2059 -325 
z
" transform="scale(0.015625)"/>
      </defs>
      <use xlink:href="#DejaVuSans-66"/>
      <use xlink:href="#DejaVuSans-69" x="35.205078"/>
      <use xlink:href="#DejaVuSans-6e" x="62.988281"/>
      <use xlink:href="#DejaVuSans-61" x="126.367188"/>
      <use xlink:href="#DejaVuSans-6c" x="187.646484"/>
      <use xlink:href="#DejaVuSans-20" x="215.429688"/>
      <use xlink:href="#DejaVuSans-63" x="247.216797"/>
      <use xlink:href="#DejaVuSans-6f" x="302.197266"/>
      <use xlink:href="#DejaVuSans-73" x="363.378906"/>
      <use xlink:href="#DejaVuSans-69" x="415.478516"/>
      <use xlink:href="#DejaVuSans-6e" x="443.261719"/>
      <use xlink:href="#DejaVuSans-65" x="506.640625"/>
      <use xlink:href="#DejaVuSans-20" x="568.164062"/>
      <use xlink:href="#DejaVuSans-73" x="599.951172"/>
      <use xlink:href="#DejaVuSans-69" x="652.050781"/>
      <use xlink:href="#DejaVuSans-6d" x="679.833984"/>
      <use xlink:href="#DejaVuSans-69" x="777.246094"/>
      <use xlink:href="#DejaVuSans-6c" x="805.029297"/>
      <use xlink:href="#DejaVuSans-61" x="832.8125"/>
      <use xlink:href="#DejaVuSans-72" x="894.091797"/>
      <use xlink:href="#DejaVuSans-69" x="935.205078"/>
      <use xlink:href="#DejaVuSans-74" x="962.988281"/>
      <use xlink:href="#DejaVuSans-79" x="1002.197266"/>
     </g>
    </g>
   </g>
   <g id="line2d_18">
    <path d="M 235.8 598.122392 
L 235.8 253.860045 
" clip-path="url(#p9a0d8e4928)" style="fill: none; stroke: #3f3f3f; stroke-width: 1.875; stroke-linecap: square"/>
   </g>
   <g id="line2d_19">
    <path d="M 235.8 476.562216 
L 235.8 387.454276 
" clip-path="url(#p9a0d8e4928)" style="fill: none; stroke: #3f3f3f; stroke-width: 5.625; stroke-linecap: square"/>
   </g>
   <g id="line2d_20">
    <path d="M 235.8 436.4802 
" clip-path="url(#p9a0d8e4928)" style="fill: none; stroke: #3f3f3f; stroke-width: 1.5; stroke-linecap: square"/>
    <defs>
     <path id="mb601ed666a" d="M 2.34375 0 
L -2.34375 -0 
" style="stroke: #ffffff; stroke-width: 1.125"/>
    </defs>
    <g clip-path="url(#p9a0d8e4928)">
     <use xlink:href="#mb601ed666a" x="235.8" y="436.4802" style="fill: #ffffff; stroke: #ffffff; stroke-width: 1.125"/>
    </g>
   </g>
   <g id="line2d_21">
    <path d="M 347.4 583.750184 
L 347.4 254.767782 
" clip-path="url(#p9a0d8e4928)" style="fill: none; stroke: #3f3f3f; stroke-width: 1.875; stroke-linecap: square"/>
   </g>
   <g id="line2d_22">
    <path d="M 347.4 462.834426 
L 347.4 379.531764 
" clip-path="url(#p9a0d8e4928)" style="fill: none; stroke: #3f3f3f; stroke-width: 5.625; stroke-linecap: square"/>
   </g>
   <g id="line2d_23">
    <path d="M 347.4 423.220291 
" clip-path="url(#p9a0d8e4928)" style="fill: none; stroke: #3f3f3f; stroke-width: 1.5; stroke-linecap: square"/>
    <g clip-path="url(#p9a0d8e4928)">
     <use xlink:href="#mb601ed666a" x="347.4" y="423.220291" style="fill: #ffffff; stroke: #ffffff; stroke-width: 1.125"/>
    </g>
   </g>
   <g id="line2d_24">
    <path d="M 459 579.969165 
L 459 242.0013 
" clip-path="url(#p9a0d8e4928)" style="fill: none; stroke: #3f3f3f; stroke-width: 1.875; stroke-linecap: square"/>
   </g>
   <g id="line2d_25">
    <path d="M 459 453.731459 
L 459 369.008948 
" clip-path="url(#p9a0d8e4928)" style="fill: none; stroke: #3f3f3f; stroke-width: 5.625; stroke-linecap: square"/>
   </g>
   <g id="line2d_26">
    <path d="M 459 411.988268 
" clip-path="url(#p9a0d8e4928)" style="fill: none; stroke: #3f3f3f; stroke-width: 1.5; stroke-linecap: square"/>
    <g clip-path="url(#p9a0d8e4928)">
     <use xlink:href="#mb601ed666a" x="459" y="411.988268" style="fill: #ffffff; stroke: #ffffff; stroke-width: 1.125"/>
    </g>
   </g>
   <g id="line2d_27">
    <path d="M 570.6 577.164537 
L 570.6 238.154658 
" clip-path="url(#p9a0d8e4928)" style="fill: none; stroke: #3f3f3f; stroke-width: 1.875; stroke-linecap: square"/>
   </g>
   <g id="line2d_28">
    <path d="M 570.6 450.065471 
L 570.6 365.265811 
" clip-path="url(#p9a0d8e4928)" style="fill: none; stroke: #3f3f3f; stroke-width: 5.625; stroke-linecap: square"/>
   </g>
   <g id="line2d_29">
    <path d="M 570.6 408.540247 
" clip-path="url(#p9a0d8e4928)" style="fill: none; stroke: #3f3f3f; stroke-width: 1.5; stroke-linecap: square"/>
    <g clip-path="url(#p9a0d8e4928)">
     <use xlink:href="#mb601ed666a" x="570.6" y="408.540247" style="fill: #ffffff; stroke: #ffffff; stroke-width: 1.125"/>
    </g>
   </g>
   <g id="line2d_30">
    <path d="M 682.2 569.286532 
L 682.2 236.24073 
" clip-path="url(#p9a0d8e4928)" style="fill: none; stroke: #3f3f3f; stroke-width: 1.875; stroke-linecap: square"/>
   </g>
   <g id="line2d_31">
    <path d="M 682.2 444.50455 
L 682.2 361.143491 
" clip-path="url(#p9a0d8e4928)" style="fill: none; stroke: #3f3f3f; stroke-width: 5.625; stroke-linecap: square"/>
   </g>
   <g id="line2d_32">
    <path d="M 682.2 403.619713 
" clip-path="url(#p9a0d8e4928)" style="fill: none; stroke: #3f3f3f; stroke-width: 1.5; stroke-linecap: square"/>
    <g clip-path="url(#p9a0d8e4928)">
     <use xlink:href="#mb601ed666a" x="682.2" y="403.619713" style="fill: #ffffff; stroke: #ffffff; stroke-width: 1.125"/>
    </g>
   </g>
   <g id="line2d_33">
    <path d="M 793.8 566.043776 
L 793.8 237.377574 
" clip-path="url(#p9a0d8e4928)" style="fill: none; stroke: #3f3f3f; stroke-width: 1.875; stroke-linecap: square"/>
   </g>
   <g id="line2d_34">
    <path d="M 793.8 442.922542 
L 793.8 360.571784 
" clip-path="url(#p9a0d8e4928)" style="fill: none; stroke: #3f3f3f; stroke-width: 5.625; stroke-linecap: square"/>
   </g>
   <g id="line2d_35">
    <path d="M 793.8 403.20419 
" clip-path="url(#p9a0d8e4928)" style="fill: none; stroke: #3f3f3f; stroke-width: 1.5; stroke-linecap: square"/>
    <g clip-path="url(#p9a0d8e4928)">
     <use xlink:href="#mb601ed666a" x="793.8" y="403.20419" style="fill: #ffffff; stroke: #ffffff; stroke-width: 1.125"/>
    </g>
   </g>
   <g id="line2d_36">
    <path d="M 905.4 568.289928 
L 905.4 237.377574 
" clip-path="url(#p9a0d8e4928)" style="fill: none; stroke: #3f3f3f; stroke-width: 1.875; stroke-linecap: square"/>
   </g>
   <g id="line2d_37">
    <path d="M 905.4 444.644116 
L 905.4 361.694681 
" clip-path="url(#p9a0d8e4928)" style="fill: none; stroke: #3f3f3f; stroke-width: 5.625; stroke-linecap: square"/>
   </g>
   <g id="line2d_38">
    <path d="M 905.4 404.243363 
" clip-path="url(#p9a0d8e4928)" style="fill: none; stroke: #3f3f3f; stroke-width: 1.5; stroke-linecap: square"/>
    <g clip-path="url(#p9a0d8e4928)">
     <use xlink:href="#mb601ed666a" x="905.4" y="404.243363" style="fill: #ffffff; stroke: #ffffff; stroke-width: 1.125"/>
    </g>
   </g>
   <g id="line2d_39">
    <path d="M 1017 564.218403 
L 1017 238.985913 
" clip-path="url(#p9a0d8e4928)" style="fill: none; stroke: #3f3f3f; stroke-width: 1.875; stroke-linecap: square"/>
   </g>
   <g id="line2d_40">
    <path d="M 1017 444.297157 
L 1017 362.155803 
" clip-path="url(#p9a0d8e4928)" style="fill: none; stroke: #3f3f3f; stroke-width: 5.625; stroke-linecap: square"/>
   </g>
   <g id="line2d_41">
    <path d="M 1017 404.730371 
" clip-path="url(#p9a0d8e4928)" style="fill: none; stroke: #3f3f3f; stroke-width: 1.5; stroke-linecap: square"/>
    <g clip-path="url(#p9a0d8e4928)">
     <use xlink:href="#mb601ed666a" x="1017" y="404.730371" style="fill: #ffffff; stroke: #ffffff; stroke-width: 1.125"/>
    </g>
   </g>
   <g id="line2d_42">
    <path d="M 1128.6 562.814282 
L 1128.6 240.751521 
" clip-path="url(#p9a0d8e4928)" style="fill: none; stroke: #3f3f3f; stroke-width: 1.875; stroke-linecap: square"/>
   </g>
   <g id="line2d_43">
    <path d="M 1128.6 442.051495 
L 1128.6 361.526021 
" clip-path="url(#p9a0d8e4928)" style="fill: none; stroke: #3f3f3f; stroke-width: 5.625; stroke-linecap: square"/>
   </g>
   <g id="line2d_44">
    <path d="M 1128.6 402.795497 
" clip-path="url(#p9a0d8e4928)" style="fill: none; stroke: #3f3f3f; stroke-width: 1.5; stroke-linecap: square"/>
    <g clip-path="url(#p9a0d8e4928)">
     <use xlink:href="#mb601ed666a" x="1128.6" y="402.795497" style="fill: #ffffff; stroke: #ffffff; stroke-width: 1.125"/>
    </g>
   </g>
   <g id="line2d_45">
    <path d="M 1240.2 562.268754 
L 1240.2 237.775457 
" clip-path="url(#p9a0d8e4928)" style="fill: none; stroke: #3f3f3f; stroke-width: 1.875; stroke-linecap: square"/>
   </g>
   <g id="line2d_46">
    <path d="M 1240.2 441.030636 
L 1240.2 359.672417 
" clip-path="url(#p9a0d8e4928)" style="fill: none; stroke: #3f3f3f; stroke-width: 5.625; stroke-linecap: square"/>
   </g>
   <g id="line2d_47">
    <path d="M 1240.2 401.586438 
" clip-path="url(#p9a0d8e4928)" style="fill: none; stroke: #3f3f3f; stroke-width: 1.5; stroke-linecap: square"/>
    <g clip-path="url(#p9a0d8e4928)">
     <use xlink:href="#mb601ed666a" x="1240.2" y="401.586438" style="fill: #ffffff; stroke: #ffffff; stroke-width: 1.125"/>
    </g>
   </g>
   <g id="patch_3">
    <path d="M 180 640.8 
L 180 86.4 
" style="fill: none; stroke: #000000; stroke-width: 0.8; stroke-linejoin: miter; stroke-linecap: square"/>
   </g>
   <g id="patch_4">
    <path d="M 1296 640.8 
L 1296 86.4 
" style="fill: none; stroke: #000000; stroke-width: 0.8; stroke-linejoin: miter; stroke-linecap: square"/>
   </g>
   <g id="patch_5">
    <path d="M 180 640.8 
L 1296 640.8 
" style="fill: none; stroke: #000000; stroke-width: 0.8; stroke-linejoin: miter; stroke-linecap: square"/>
   </g>
   <g id="patch_6">
    <path d="M 180 86.4 
L 1296 86.4 
" style="fill: none; stroke: #000000; stroke-width: 0.8; stroke-linejoin: miter; stroke-linecap: square"/>
   </g>
   <g id="text_20">
    <!-- final cosine similarity of max_fs_glit (betweenFinalsVariety), by iteration -->
    <g transform="translate(521.954062 80.4) scale(0.12 -0.12)">
     <defs>
      <path id="DejaVuSans-78" d="M 3513 3500 
L 2247 1797 
L 3578 0 
L 2900 0 
L 1881 1375 
L 863 0 
L 184 0 
L 1544 1831 
L 300 3500 
L 978 3500 
L 1906 2253 
L 2834 3500 
L 3513 3500 
z
" transform="scale(0.015625)"/>
      <path id="DejaVuSans-5f" d="M 3263 -1063 
L 3263 -1509 
L -63 -1509 
L -63 -1063 
L 3263 -1063 
z
" transform="scale(0.015625)"/>
      <path id="DejaVuSans-67" d="M 2906 1791 
Q 2906 2416 2648 2759 
Q 2391 3103 1925 3103 
Q 1463 3103 1205 2759 
Q 947 2416 947 1791 
Q 947 1169 1205 825 
Q 1463 481 1925 481 
Q 2391 481 2648 825 
Q 2906 1169 2906 1791 
z
M 3481 434 
Q 3481 -459 3084 -895 
Q 2688 -1331 1869 -1331 
Q 1566 -1331 1297 -1286 
Q 1028 -1241 775 -1147 
L 775 -588 
Q 1028 -725 1275 -790 
Q 1522 -856 1778 -856 
Q 2344 -856 2625 -561 
Q 2906 -266 2906 331 
L 2906 616 
Q 2728 306 2450 153 
Q 2172 0 1784 0 
Q 1141 0 747 490 
Q 353 981 353 1791 
Q 353 2603 747 3093 
Q 1141 3584 1784 3584 
Q 2172 3584 2450 3431 
Q 2728 3278 2906 2969 
L 2906 3500 
L 3481 3500 
L 3481 434 
z
" transform="scale(0.015625)"/>
      <path id="DejaVuSans-28" d="M 1984 4856 
Q 1566 4138 1362 3434 
Q 1159 2731 1159 2009 
Q 1159 1288 1364 580 
Q 1569 -128 1984 -844 
L 1484 -844 
Q 1016 -109 783 600 
Q 550 1309 550 2009 
Q 550 2706 781 3412 
Q 1013 4119 1484 4856 
L 1984 4856 
z
" transform="scale(0.015625)"/>
      <path id="DejaVuSans-62" d="M 3116 1747 
Q 3116 2381 2855 2742 
Q 2594 3103 2138 3103 
Q 1681 3103 1420 2742 
Q 1159 2381 1159 1747 
Q 1159 1113 1420 752 
Q 1681 391 2138 391 
Q 2594 391 2855 752 
Q 3116 1113 3116 1747 
z
M 1159 2969 
Q 1341 3281 1617 3432 
Q 1894 3584 2278 3584 
Q 2916 3584 3314 3078 
Q 3713 2572 3713 1747 
Q 3713 922 3314 415 
Q 2916 -91 2278 -91 
Q 1894 -91 1617 61 
Q 1341 213 1159 525 
L 1159 0 
L 581 0 
L 581 4863 
L 1159 4863 
L 1159 2969 
z
" transform="scale(0.015625)"/>
      <path id="DejaVuSans-77" d="M 269 3500 
L 844 3500 
L 1563 769 
L 2278 3500 
L 2956 3500 
L 3675 769 
L 4391 3500 
L 4966 3500 
L 4050 0 
L 3372 0 
L 2619 2869 
L 1863 0 
L 1184 0 
L 269 3500 
z
" transform="scale(0.015625)"/>
      <path id="DejaVuSans-46" d="M 628 4666 
L 3309 4666 
L 3309 4134 
L 1259 4134 
L 1259 2759 
L 3109 2759 
L 3109 2228 
L 1259 2228 
L 1259 0 
L 628 0 
L 628 4666 
z
" transform="scale(0.015625)"/>
      <path id="DejaVuSans-56" d="M 1831 0 
L 50 4666 
L 709 4666 
L 2188 738 
L 3669 4666 
L 4325 4666 
L 2547 0 
L 1831 0 
z
" transform="scale(0.015625)"/>
      <path id="DejaVuSans-29" d="M 513 4856 
L 1013 4856 
Q 1481 4119 1714 3412 
Q 1947 2706 1947 2009 
Q 1947 1309 1714 600 
Q 1481 -109 1013 -844 
L 513 -844 
Q 928 -128 1133 580 
Q 1338 1288 1338 2009 
Q 1338 2731 1133 3434 
Q 928 4138 513 4856 
z
" transform="scale(0.015625)"/>
      <path id="DejaVuSans-2c" d="M 750 794 
L 1409 794 
L 1409 256 
L 897 -744 
L 494 -744 
L 750 256 
L 750 794 
z
" transform="scale(0.015625)"/>
     </defs>
     <use xlink:href="#DejaVuSans-66"/>
     <use xlink:href="#DejaVuSans-69" x="35.205078"/>
     <use xlink:href="#DejaVuSans-6e" x="62.988281"/>
     <use xlink:href="#DejaVuSans-61" x="126.367188"/>
     <use xlink:href="#DejaVuSans-6c" x="187.646484"/>
     <use xlink:href="#DejaVuSans-20" x="215.429688"/>
     <use xlink:href="#DejaVuSans-63" x="247.216797"/>
     <use xlink:href="#DejaVuSans-6f" x="302.197266"/>
     <use xlink:href="#DejaVuSans-73" x="363.378906"/>
     <use xlink:href="#DejaVuSans-69" x="415.478516"/>
     <use xlink:href="#DejaVuSans-6e" x="443.261719"/>
     <use xlink:href="#DejaVuSans-65" x="506.640625"/>
     <use xlink:href="#DejaVuSans-20" x="568.164062"/>
     <use xlink:href="#DejaVuSans-73" x="599.951172"/>
     <use xlink:href="#DejaVuSans-69" x="652.050781"/>
     <use xlink:href="#DejaVuSans-6d" x="679.833984"/>
     <use xlink:href="#DejaVuSans-69" x="777.246094"/>
     <use xlink:href="#DejaVuSans-6c" x="805.029297"/>
     <use xlink:href="#DejaVuSans-61" x="832.8125"/>
     <use xlink:href="#DejaVuSans-72" x="894.091797"/>
     <use xlink:href="#DejaVuSans-69" x="935.205078"/>
     <use xlink:href="#DejaVuSans-74" x="962.988281"/>
     <use xlink:href="#DejaVuSans-79" x="1002.197266"/>
     <use xlink:href="#DejaVuSans-20" x="1061.376953"/>
     <use xlink:href="#DejaVuSans-6f" x="1093.164062"/>
     <use xlink:href="#DejaVuSans-66" x="1154.345703"/>
     <use xlink:href="#DejaVuSans-20" x="1189.550781"/>
     <use xlink:href="#DejaVuSans-6d" x="1221.337891"/>
     <use xlink:href="#DejaVuSans-61" x="1318.75"/>
     <use xlink:href="#DejaVuSans-78" x="1380.029297"/>
     <use xlink:href="#DejaVuSans-5f" x="1439.208984"/>
     <use xlink:href="#DejaVuSans-66" x="1489.208984"/>
     <use xlink:href="#DejaVuSans-73" x="1524.414062"/>
     <use xlink:href="#DejaVuSans-5f" x="1576.513672"/>
     <use xlink:href="#DejaVuSans-67" x="1626.513672"/>
     <use xlink:href="#DejaVuSans-6c" x="1689.990234"/>
     <use xlink:href="#DejaVuSans-69" x="1717.773438"/>
     <use xlink:href="#DejaVuSans-74" x="1745.556641"/>
     <use xlink:href="#DejaVuSans-20" x="1784.765625"/>
     <use xlink:href="#DejaVuSans-28" x="1816.552734"/>
     <use xlink:href="#DejaVuSans-62" x="1855.566406"/>
     <use xlink:href="#DejaVuSans-65" x="1919.042969"/>
     <use xlink:href="#DejaVuSans-74" x="1980.566406"/>
     <use xlink:href="#DejaVuSans-77" x="2019.775391"/>
     <use xlink:href="#DejaVuSans-65" x="2101.5625"/>
     <use xlink:href="#DejaVuSans-65" x="2163.085938"/>
     <use xlink:href="#DejaVuSans-6e" x="2224.609375"/>
     <use xlink:href="#DejaVuSans-46" x="2287.988281"/>
     <use xlink:href="#DejaVuSans-69" x="2338.257812"/>
     <use xlink:href="#DejaVuSans-6e" x="2366.041016"/>
     <use xlink:href="#DejaVuSans-61" x="2429.419922"/>
     <use xlink:href="#DejaVuSans-6c" x="2490.699219"/>
     <use xlink:href="#DejaVuSans-73" x="2518.482422"/>
     <use xlink:href="#DejaVuSans-56" x="2570.582031"/>
     <use xlink:href="#DejaVuSans-61" x="2631.240234"/>
     <use xlink:href="#DejaVuSans-72" x="2692.519531"/>
     <use xlink:href="#DejaVuSans-69" x="2733.632812"/>
     <use xlink:href="#DejaVuSans-65" x="2761.416016"/>
     <use xlink:href="#DejaVuSans-74" x="2822.939453"/>
     <use xlink:href="#DejaVuSans-79" x="2862.148438"/>
     <use xlink:href="#DejaVuSans-29" x="2921.328125"/>
     <use xlink:href="#DejaVuSans-2c" x="2960.341797"/>
     <use xlink:href="#DejaVuSans-20" x="2992.128906"/>
     <use xlink:href="#DejaVuSans-62" x="3023.916016"/>
     <use xlink:href="#DejaVuSans-79" x="3087.392578"/>
     <use xlink:href="#DejaVuSans-20" x="3146.572266"/>
     <use xlink:href="#DejaVuSans-69" x="3178.359375"/>
     <use xlink:href="#DejaVuSans-74" x="3206.142578"/>
     <use xlink:href="#DejaVuSans-65" x="3245.351562"/>
     <use xlink:href="#DejaVuSans-72" x="3306.875"/>
     <use xlink:href="#DejaVuSans-61" x="3347.988281"/>
     <use xlink:href="#DejaVuSans-74" x="3409.267578"/>
     <use xlink:href="#DejaVuSans-69" x="3448.476562"/>
     <use xlink:href="#DejaVuSans-6f" x="3476.259766"/>
     <use xlink:href="#DejaVuSans-6e" x="3537.441406"/>
    </g>
   </g>
  </g>
 </g>
 <defs>
  <clipPath id="p9a0d8e4928">
   <rect x="180" y="86.4" width="1116" height="554.4"/>
  </clipPath>
 </defs>
</svg>
