<?xml version="1.0" encoding="utf-8" standalone="no"?>
<!DOCTYPE svg PUBLIC "-//W3C//DTD SVG 1.1//EN"
  "http://www.w3.org/Graphics/SVG/1.1/DTD/svg11.dtd">
<svg xmlns:xlink="http://www.w3.org/1999/xlink" width="1440pt" height="720pt" viewBox="0 0 1440 720" xmlns="http://www.w3.org/2000/svg" version="1.1">
 <metadata>
  <rdf:RDF xmlns:dc="http://purl.org/dc/elements/1.1/" xmlns:cc="http://creativecommons.org/ns#" xmlns:rdf="http://www.w3.org/1999/02/22-rdf-syntax-ns#">
   <cc:Work>
    <dc:type rdf:resource="http://purl.org/dc/dcmitype/StillImage"/>
    <dc:date>2024-07-24T19:45:42.115399</dc:date>
    <dc:format>image/svg+xml</dc:format>
    <dc:creator>
     <cc:Agent>
      <dc:title>Matplotlib v3.8.0, https://matplotlib.org/</dc:title>
     </cc:Agent>
    </dc:creator>
   </cc:Work>
  </rdf:RDF>
 </metadata>
 <defs>
  <style type="text/css">*{stroke-linejoin: round; stroke-linecap: butt}</style>
 </defs>
 <g id="figure_1">
  <g id="patch_1">
   <path d="M 0 720 
L 1440 720 
L 1440 0 
L 0 0 
z
" style="fill: #ffffff"/>
  </g>
  <g id="axes_1">
   <g id="patch_2">
    <path d="M 180 640.8 
L 1296 640.8 
L 1296 86.4 
L 180 86.4 
z
" style="fill: #ffffff"/>
   </g>
   <g id="PolyCollection_1">
    <defs>
     <path id="m2e995be185" d="M 235.80426 -104.4 
L 235.79574 -104.4 
L 235.787961 -109.490909 
L 235.774511 -114.581818 
L 235.757655 -119.672727 
L 235.738405 -124.763636 
L 235.707809 -129.854545 
L 235.648785 -134.945455 
L 235.548199 -140.036364 
L 235.394621 -145.127273 
L 235.157817 -150.218182 
L 234.788729 -155.309091 
L 234.253791 -160.4 
L 233.541844 -165.490909 
L 232.611804 -170.581818 
L 231.379915 -175.672727 
L 229.808504 -180.763636 
L 227.955662 -185.854545 
L 225.888683 -190.945455 
L 223.621647 -196.036364 
L 221.184747 -201.127273 
L 218.654806 -206.218182 
L 216.05481 -211.309091 
L 213.321771 -216.4 
L 210.423244 -221.490909 
L 207.416482 -226.581818 
L 204.39605 -231.672727 
L 201.48525 -236.763636 
L 198.839631 -241.854545 
L 196.55507 -246.945455 
L 194.621575 -252.036364 
L 193.021625 -257.127273 
L 191.818147 -262.218182 
L 191.16 -267.309091 
L 191.200857 -272.4 
L 191.875309 -277.490909 
L 192.786142 -282.581818 
L 193.540163 -287.672727 
L 194.167781 -292.763636 
L 194.995211 -297.854545 
L 196.201868 -302.945455 
L 197.726577 -308.036364 
L 199.464782 -313.127273 
L 201.324028 -318.218182 
L 203.184421 -323.309091 
L 204.979168 -328.4 
L 206.761782 -333.490909 
L 208.611028 -338.581818 
L 210.523065 -343.672727 
L 212.412164 -348.763636 
L 214.154227 -353.854545 
L 215.659394 -358.945455 
L 216.973295 -364.036364 
L 218.259618 -369.127273 
L 219.608468 -374.218182 
L 220.929494 -379.309091 
L 222.109574 -384.4 
L 223.177786 -389.490909 
L 224.242077 -394.581818 
L 225.347767 -399.672727 
L 226.42431 -404.763636 
L 227.326126 -409.854545 
L 227.959782 -414.945455 
L 228.395912 -420.036364 
L 228.821475 -425.127273 
L 229.384542 -430.218182 
L 230.101884 -435.309091 
L 230.890597 -440.4 
L 231.658875 -445.490909 
L 232.368777 -450.581818 
L 233.028373 -455.672727 
L 233.63467 -460.763636 
L 234.141127 -465.854545 
L 234.495269 -470.945455 
L 234.696337 -476.036364 
L 234.801682 -481.127273 
L 234.88431 -486.218182 
L 234.99085 -491.309091 
L 235.130799 -496.4 
L 235.289519 -501.490909 
L 235.441418 -506.581818 
L 235.560231 -511.672727 
L 235.63259 -516.763636 
L 235.665191 -521.854545 
L 235.677743 -526.945455 
L 235.688724 -532.036364 
L 235.706297 -537.127273 
L 235.729095 -542.218182 
L 235.750827 -547.309091 
L 235.765535 -552.4 
L 235.77312 -557.490909 
L 235.778607 -562.581818 
L 235.784918 -567.672727 
L 235.789719 -572.763636 
L 235.78966 -577.854545 
L 235.785145 -582.945455 
L 235.780742 -588.036364 
L 235.781133 -593.127273 
L 235.786481 -598.218182 
L 235.792951 -603.309091 
L 235.797327 -608.4 
L 235.802673 -608.4 
L 235.802673 -608.4 
L 235.807049 -603.309091 
L 235.813519 -598.218182 
L 235.818867 -593.127273 
L 235.819258 -588.036364 
L 235.814855 -582.945455 
L 235.81034 -577.854545 
L 235.810281 -572.763636 
L 235.815082 -567.672727 
L 235.821393 -562.581818 
L 235.82688 -557.490909 
L 235.834465 -552.4 
L 235.849173 -547.309091 
L 235.870905 -542.218182 
L 235.893703 -537.127273 
L 235.911276 -532.036364 
L 235.922257 -526.945455 
L 235.934809 -521.854545 
L 235.96741 -516.763636 
L 236.039769 -511.672727 
L 236.158582 -506.581818 
L 236.310481 -501.490909 
L 236.469201 -496.4 
L 236.60915 -491.309091 
L 236.71569 -486.218182 
L 236.798318 -481.127273 
L 236.903663 -476.036364 
L 237.104731 -470.945455 
L 237.458873 -465.854545 
L 237.96533 -460.763636 
L 238.571627 -455.672727 
L 239.231223 -450.581818 
L 239.941125 -445.490909 
L 240.709403 -440.4 
L 241.498116 -435.309091 
L 242.215458 -430.218182 
L 242.778525 -425.127273 
L 243.204088 -420.036364 
L 243.640218 -414.945455 
L 244.273874 -409.854545 
L 245.17569 -404.763636 
L 246.252233 -399.672727 
L 247.357923 -394.581818 
L 248.422214 -389.490909 
L 249.490426 -384.4 
L 250.670506 -379.309091 
L 251.991532 -374.218182 
L 253.340382 -369.127273 
L 254.626705 -364.036364 
L 255.940606 -358.945455 
L 257.445773 -353.854545 
L 259.187836 -348.763636 
L 261.076935 -343.672727 
L 262.988972 -338.581818 
L 264.838218 -333.490909 
L 266.620832 -328.4 
L 268.415579 -323.309091 
L 270.275972 -318.218182 
L 272.135218 -313.127273 
L 273.873423 -308.036364 
L 275.398132 -302.945455 
L 276.604789 -297.854545 
L 277.432219 -292.763636 
L 278.059837 -287.672727 
L 278.813858 -282.581818 
L 279.724691 -277.490909 
L 280.399143 -272.4 
L 280.44 -267.309091 
L 279.781853 -262.218182 
L 278.578375 -257.127273 
L 276.978425 -252.036364 
L 275.04493 -246.945455 
L 272.760369 -241.854545 
L 270.11475 -236.763636 
L 267.20395 -231.672727 
L 264.183518 -226.581818 
L 261.176756 -221.490909 
L 258.278229 -216.4 
L 255.54519 -211.309091 
L 252.945194 -206.218182 
L 250.415253 -201.127273 
L 247.978353 -196.036364 
L 245.711317 -190.945455 
L 243.644338 -185.854545 
L 241.791496 -180.763636 
L 240.220085 -175.672727 
L 238.988196 -170.581818 
L 238.058156 -165.490909 
L 237.346209 -160.4 
L 236.811271 -155.309091 
L 236.442183 -150.218182 
L 236.205379 -145.127273 
L 236.051801 -140.036364 
L 235.951215 -134.945455 
L 235.892191 -129.854545 
L 235.861595 -124.763636 
L 235.842345 -119.672727 
L 235.825489 -114.581818 
L 235.812039 -109.490909 
L 235.80426 -104.4 
z
" style="stroke: #3f3f3f; stroke-width: 1.25"/>
    </defs>
    <g clip-path="url(#p9304449c53)">
     <use xlink:href="#m2e995be185" x="0" y="720" style="fill: #3274a1; stroke: #3f3f3f; stroke-width: 1.25"/>
    </g>
   </g>
   <g id="PolyCollection_2">
    <defs>
     <path id="m51cc241747" d="M 347.409351 -123.16633 
L 347.390649 -123.16633 
L 347.372208 -127.852197 
L 347.334218 -132.538064 
L 347.273047 -137.223931 
L 347.191748 -141.909798 
L 347.089617 -146.595665 
L 346.944664 -151.281533 
L 346.710476 -155.9674 
L 346.339392 -160.653267 
L 345.815259 -165.339134 
L 345.162537 -170.025001 
L 344.417339 -174.710868 
L 343.583443 -179.396736 
L 342.610752 -184.082603 
L 341.421551 -188.76847 
L 339.977882 -193.454337 
L 338.324922 -198.140204 
L 336.540574 -202.826071 
L 334.63867 -207.511938 
L 332.555771 -212.197806 
L 330.24328 -216.883673 
L 327.742387 -221.56954 
L 325.153683 -226.255407 
L 322.552407 -230.941274 
L 319.954403 -235.627141 
L 317.372645 -240.313009 
L 314.892092 -244.998876 
L 312.655768 -249.684743 
L 310.775405 -254.37061 
L 309.278455 -259.056477 
L 308.120051 -263.742344 
L 307.209263 -268.428212 
L 306.439224 -273.114079 
L 305.730443 -277.799946 
L 305.074626 -282.485813 
L 304.552052 -287.17168 
L 304.286456 -291.857547 
L 304.36092 -296.543415 
L 304.801408 -301.229282 
L 305.645575 -305.915149 
L 306.944281 -310.601016 
L 308.633305 -315.286883 
L 310.463849 -319.97275 
L 312.14177 -324.658618 
L 313.536361 -329.344485 
L 314.730284 -334.030352 
L 315.888576 -338.716219 
L 317.112773 -343.402086 
L 318.40716 -348.087953 
L 319.740135 -352.773821 
L 321.118136 -357.459688 
L 322.59958 -362.145555 
L 324.223507 -366.831422 
L 325.924368 -371.517289 
L 327.549818 -376.203156 
L 328.983833 -380.889024 
L 330.242443 -385.574891 
L 331.445697 -390.260758 
L 332.700831 -394.946625 
L 334.000796 -399.632492 
L 335.233443 -404.318359 
L 336.300479 -409.004227 
L 337.216974 -413.690094 
L 338.089407 -418.375961 
L 339.021179 -423.061828 
L 340.037402 -427.747695 
L 341.063913 -432.433562 
L 341.971775 -437.119429 
L 342.671956 -441.805297 
L 343.186713 -446.491164 
L 343.628631 -451.177031 
L 344.104781 -455.862898 
L 344.631705 -460.548765 
L 345.134713 -465.234632 
L 345.526955 -469.9205 
L 345.788078 -474.606367 
L 345.972208 -479.292234 
L 346.152471 -483.978101 
L 346.362266 -488.663968 
L 346.583338 -493.349835 
L 346.778558 -498.035703 
L 346.926655 -502.72157 
L 347.02932 -507.407437 
L 347.098983 -512.093304 
L 347.147847 -516.779171 
L 347.184593 -521.465038 
L 347.213898 -526.150906 
L 347.237606 -530.836773 
L 347.258634 -535.52264 
L 347.282313 -540.208507 
L 347.311458 -544.894374 
L 347.341847 -549.580241 
L 347.365274 -554.266109 
L 347.376951 -558.951976 
L 347.379289 -563.637843 
L 347.379113 -568.32371 
L 347.381706 -573.009577 
L 347.387395 -577.695444 
L 347.393337 -582.381312 
L 347.397314 -587.067179 
L 347.402686 -587.067179 
L 347.402686 -587.067179 
L 347.406663 -582.381312 
L 347.412605 -577.695444 
L 347.418294 -573.009577 
L 347.420887 -568.32371 
L 347.420711 -563.637843 
L 347.423049 -558.951976 
L 347.434726 -554.266109 
L 347.458153 -549.580241 
L 347.488542 -544.894374 
L 347.517687 -540.208507 
L 347.541366 -535.52264 
L 347.562394 -530.836773 
L 347.586102 -526.150906 
L 347.615407 -521.465038 
L 347.652153 -516.779171 
L 347.701017 -512.093304 
L 347.77068 -507.407437 
L 347.873345 -502.72157 
L 348.021442 -498.035703 
L 348.216662 -493.349835 
L 348.437734 -488.663968 
L 348.647529 -483.978101 
L 348.827792 -479.292234 
L 349.011922 -474.606367 
L 349.273045 -469.9205 
L 349.665287 -465.234632 
L 350.168295 -460.548765 
L 350.695219 -455.862898 
L 351.171369 -451.177031 
L 351.613287 -446.491164 
L 352.128044 -441.805297 
L 352.828225 -437.119429 
L 353.736087 -432.433562 
L 354.762598 -427.747695 
L 355.778821 -423.061828 
L 356.710593 -418.375961 
L 357.583026 -413.690094 
L 358.499521 -409.004227 
L 359.566557 -404.318359 
L 360.799204 -399.632492 
L 362.099169 -394.946625 
L 363.354303 -390.260758 
L 364.557557 -385.574891 
L 365.816167 -380.889024 
L 367.250182 -376.203156 
L 368.875632 -371.517289 
L 370.576493 -366.831422 
L 372.20042 -362.145555 
L 373.681864 -357.459688 
L 375.059865 -352.773821 
L 376.39284 -348.087953 
L 377.687227 -343.402086 
L 378.911424 -338.716219 
L 380.069716 -334.030352 
L 381.263639 -329.344485 
L 382.65823 -324.658618 
L 384.336151 -319.97275 
L 386.166695 -315.286883 
L 387.855719 -310.601016 
L 389.154425 -305.915149 
L 389.998592 -301.229282 
L 390.43908 -296.543415 
L 390.513544 -291.857547 
L 390.247948 -287.17168 
L 389.725374 -282.485813 
L 389.069557 -277.799946 
L 388.360776 -273.114079 
L 387.590737 -268.428212 
L 386.679949 -263.742344 
L 385.521545 -259.056477 
L 384.024595 -254.37061 
L 382.144232 -249.684743 
L 379.907908 -244.998876 
L 377.427355 -240.313009 
L 374.845597 -235.627141 
L 372.247593 -230.941274 
L 369.646317 -226.255407 
L 367.057613 -221.56954 
L 364.55672 -216.883673 
L 362.244229 -212.197806 
L 360.16133 -207.511938 
L 358.259426 -202.826071 
L 356.475078 -198.140204 
L 354.822118 -193.454337 
L 353.378449 -188.76847 
L 352.189248 -184.082603 
L 351.216557 -179.396736 
L 350.382661 -174.710868 
L 349.637463 -170.025001 
L 348.984741 -165.339134 
L 348.460608 -160.653267 
L 348.089524 -155.9674 
L 347.855336 -151.281533 
L 347.710383 -146.595665 
L 347.608252 -141.909798 
L 347.526953 -137.223931 
L 347.465782 -132.538064 
L 347.427792 -127.852197 
L 347.409351 -123.16633 
z
" style="stroke: #3f3f3f; stroke-width: 1.25"/>
    </defs>
    <g clip-path="url(#p9304449c53)">
     <use xlink:href="#m51cc241747" x="0" y="720" style="fill: #3274a1; stroke: #3f3f3f; stroke-width: 1.25"/>
    </g>
   </g>
   <g id="PolyCollection_3">
    <defs>
     <path id="m64a5b2b3fb" d="M 459.01303 -124.488273 
L 458.98697 -124.488273 
L 458.958574 -129.308203 
L 458.894997 -134.128133 
L 458.782624 -138.948064 
L 458.619215 -143.767994 
L 458.408505 -148.587924 
L 458.144483 -153.407855 
L 457.809741 -158.227785 
L 457.393012 -163.047715 
L 456.895355 -167.867646 
L 456.312263 -172.687576 
L 455.624323 -177.507506 
L 454.811535 -182.327437 
L 453.866915 -187.147367 
L 452.80543 -191.967297 
L 451.665225 -196.787228 
L 450.460944 -201.607158 
L 449.116252 -206.427088 
L 447.489885 -211.247019 
L 445.505151 -216.066949 
L 443.234942 -220.886879 
L 440.840621 -225.70681 
L 438.448877 -230.52674 
L 436.112971 -235.34667 
L 433.864821 -240.166601 
L 431.740521 -244.986531 
L 429.738122 -249.806461 
L 427.800717 -254.626392 
L 425.892737 -259.446322 
L 424.086047 -264.266252 
L 422.513384 -269.086183 
L 421.218 -273.906113 
L 420.108929 -278.726043 
L 419.083895 -283.545974 
L 418.119354 -288.365904 
L 417.216373 -293.185834 
L 416.370853 -298.005765 
L 415.696371 -302.825695 
L 415.507919 -307.645625 
L 416.133357 -312.465556 
L 417.598181 -317.285486 
L 419.539574 -322.105416 
L 421.438893 -326.925347 
L 422.949902 -331.745277 
L 424.056572 -336.565207 
L 424.95975 -341.385138 
L 425.852343 -346.205068 
L 426.827748 -351.024998 
L 427.950305 -355.844929 
L 429.320237 -360.664859 
L 431.022447 -365.484789 
L 433.022842 -370.30472 
L 435.15513 -375.12465 
L 437.227319 -379.94458 
L 439.117074 -384.764511 
L 440.772881 -389.584441 
L 442.209022 -394.404372 
L 443.543355 -399.224302 
L 444.951683 -404.044232 
L 446.500534 -408.864163 
L 448.064346 -413.684093 
L 449.459063 -418.504023 
L 450.614921 -423.323954 
L 451.580168 -428.143884 
L 452.41878 -432.963814 
L 453.167887 -437.783745 
L 453.856633 -442.603675 
L 454.508013 -447.423605 
L 455.126125 -452.243536 
L 455.698175 -457.063466 
L 456.204251 -461.883396 
L 456.630758 -466.703327 
L 456.981101 -471.523257 
L 457.269003 -476.343187 
L 457.509756 -481.163118 
L 457.723473 -485.983048 
L 457.928491 -490.802978 
L 458.122377 -495.622909 
L 458.284981 -500.442839 
L 458.406114 -505.262769 
L 458.496763 -510.0827 
L 458.570499 -514.90263 
L 458.627996 -519.72256 
L 458.665973 -524.542491 
L 458.692532 -529.362421 
L 458.725466 -534.182351 
L 458.776411 -539.002282 
L 458.840167 -543.822212 
L 458.899648 -548.642142 
L 458.940607 -553.462073 
L 458.961353 -558.282003 
L 458.968757 -563.101933 
L 458.96891 -567.921864 
L 458.96514 -572.741794 
L 458.961676 -577.561724 
L 458.963413 -582.381655 
L 458.971577 -587.201585 
L 458.982539 -592.021515 
L 458.991636 -596.841446 
L 458.996905 -601.661376 
L 459.003095 -601.661376 
L 459.003095 -601.661376 
L 459.008364 -596.841446 
L 459.017461 -592.021515 
L 459.028423 -587.201585 
L 459.036587 -582.381655 
L 459.038324 -577.561724 
L 459.03486 -572.741794 
L 459.03109 -567.921864 
L 459.031243 -563.101933 
L 459.038647 -558.282003 
L 459.059393 -553.462073 
L 459.100352 -548.642142 
L 459.159833 -543.822212 
L 459.223589 -539.002282 
L 459.274534 -534.182351 
L 459.307468 -529.362421 
L 459.334027 -524.542491 
L 459.372004 -519.72256 
L 459.429501 -514.90263 
L 459.503237 -510.0827 
L 459.593886 -505.262769 
L 459.715019 -500.442839 
L 459.877623 -495.622909 
L 460.071509 -490.802978 
L 460.276527 -485.983048 
L 460.490244 -481.163118 
L 460.730997 -476.343187 
L 461.018899 -471.523257 
L 461.369242 -466.703327 
L 461.795749 -461.883396 
L 462.301825 -457.063466 
L 462.873875 -452.243536 
L 463.491987 -447.423605 
L 464.143367 -442.603675 
L 464.832113 -437.783745 
L 465.58122 -432.963814 
L 466.419832 -428.143884 
L 467.385079 -423.323954 
L 468.540937 -418.504023 
L 469.935654 -413.684093 
L 471.499466 -408.864163 
L 473.048317 -404.044232 
L 474.456645 -399.224302 
L 475.790978 -394.404372 
L 477.227119 -389.584441 
L 478.882926 -384.764511 
L 480.772681 -379.94458 
L 482.84487 -375.12465 
L 484.977158 -370.30472 
L 486.977553 -365.484789 
L 488.679763 -360.664859 
L 490.049695 -355.844929 
L 491.172252 -351.024998 
L 492.147657 -346.205068 
L 493.04025 -341.385138 
L 493.943428 -336.565207 
L 495.050098 -331.745277 
L 496.561107 -326.925347 
L 498.460426 -322.105416 
L 500.401819 -317.285486 
L 501.866643 -312.465556 
L 502.492081 -307.645625 
L 502.303629 -302.825695 
L 501.629147 -298.005765 
L 500.783627 -293.185834 
L 499.880646 -288.365904 
L 498.916105 -283.545974 
L 497.891071 -278.726043 
L 496.782 -273.906113 
L 495.486616 -269.086183 
L 493.913953 -264.266252 
L 492.107263 -259.446322 
L 490.199283 -254.626392 
L 488.261878 -249.806461 
L 486.259479 -244.986531 
L 484.135179 -240.166601 
L 481.887029 -235.34667 
L 479.551123 -230.52674 
L 477.159379 -225.70681 
L 474.765058 -220.886879 
L 472.494849 -216.066949 
L 470.510115 -211.247019 
L 468.883748 -206.427088 
L 467.539056 -201.607158 
L 466.334775 -196.787228 
L 465.19457 -191.967297 
L 464.133085 -187.147367 
L 463.188465 -182.327437 
L 462.375677 -177.507506 
L 461.687737 -172.687576 
L 461.104645 -167.867646 
L 460.606988 -163.047715 
L 460.190259 -158.227785 
L 459.855517 -153.407855 
L 459.591495 -148.587924 
L 459.380785 -143.767994 
L 459.217376 -138.948064 
L 459.105003 -134.128133 
L 459.041426 -129.308203 
L 459.01303 -124.488273 
z
" style="stroke: #3f3f3f; stroke-width: 1.25"/>
    </defs>
    <g clip-path="url(#p9304449c53)">
     <use xlink:href="#m64a5b2b3fb" x="0" y="720" style="fill: #3274a1; stroke: #3f3f3f; stroke-width: 1.25"/>
    </g>
   </g>
   <g id="PolyCollection_4">
    <defs>
     <path id="m33375e56f2" d="M 570.610366 -122.760157 
L 570.589634 -122.760157 
L 570.567155 -127.597844 
L 570.518051 -132.43553 
L 570.436559 -137.273217 
L 570.333013 -142.110904 
L 570.227177 -146.94859 
L 570.122152 -151.786277 
L 569.986011 -156.623963 
L 569.765774 -161.46165 
L 569.418566 -166.299337 
L 568.930135 -171.137023 
L 568.316227 -175.97471 
L 567.610485 -180.812396 
L 566.837815 -185.650083 
L 565.992846 -190.487769 
L 565.041641 -195.325456 
L 563.930777 -200.163143 
L 562.597037 -205.000829 
L 560.997287 -209.838516 
L 559.149248 -214.676202 
L 557.133984 -219.513889 
L 555.040642 -224.351575 
L 552.909613 -229.189262 
L 550.738369 -234.026949 
L 548.535246 -238.864635 
L 546.357113 -243.702322 
L 544.294373 -248.540008 
L 542.404569 -253.377695 
L 540.64093 -258.215382 
L 538.874117 -263.053068 
L 537.017671 -267.890755 
L 535.112648 -272.728441 
L 533.291138 -277.566128 
L 531.697814 -282.403814 
L 530.44498 -287.241501 
L 529.592516 -292.079188 
L 529.118369 -296.916874 
L 528.927032 -301.754561 
L 528.954823 -306.592247 
L 529.23763 -311.429934 
L 529.809288 -316.26762 
L 530.587991 -321.105307 
L 531.434479 -325.942994 
L 532.294157 -330.78068 
L 533.231283 -335.618367 
L 534.316789 -340.456053 
L 535.511999 -345.29374 
L 536.696481 -350.131427 
L 537.81151 -354.969113 
L 538.952988 -359.8068 
L 540.310361 -364.644486 
L 542.010204 -369.482173 
L 544.012476 -374.319859 
L 546.142604 -379.157546 
L 548.196799 -383.995233 
L 550.022809 -388.832919 
L 551.566676 -393.670606 
L 552.902433 -398.508292 
L 554.1972 -403.345979 
L 555.588836 -408.183665 
L 557.090834 -413.021352 
L 558.62853 -417.859039 
L 560.118211 -422.696725 
L 561.478885 -427.534412 
L 562.639953 -432.372098 
L 563.59847 -437.209785 
L 564.426534 -442.047472 
L 565.194178 -446.885158 
L 565.923859 -451.722845 
L 566.611185 -456.560531 
L 567.238162 -461.398218 
L 567.777056 -466.235904 
L 568.212698 -471.073591 
L 568.552906 -475.911278 
L 568.819018 -480.748964 
L 569.040714 -485.586651 
L 569.247472 -490.424337 
L 569.450053 -495.262024 
L 569.638345 -500.09971 
L 569.802204 -504.937397 
L 569.944491 -509.775084 
L 570.07219 -514.61277 
L 570.184571 -519.450457 
L 570.274871 -524.288143 
L 570.341102 -529.12583 
L 570.391225 -533.963517 
L 570.436488 -538.801203 
L 570.481863 -543.63889 
L 570.524226 -548.476576 
L 570.557885 -553.314263 
L 570.579874 -558.151949 
L 570.590873 -562.989636 
L 570.593326 -567.827323 
L 570.589969 -572.665009 
L 570.584222 -577.502696 
L 570.580464 -582.340382 
L 570.581743 -587.178069 
L 570.587187 -592.015755 
L 570.59325 -596.853442 
L 570.597331 -601.691129 
L 570.602669 -601.691129 
L 570.602669 -601.691129 
L 570.60675 -596.853442 
L 570.612813 -592.015755 
L 570.618257 -587.178069 
L 570.619536 -582.340382 
L 570.615778 -577.502696 
L 570.610031 -572.665009 
L 570.606674 -567.827323 
L 570.609127 -562.989636 
L 570.620126 -558.151949 
L 570.642115 -553.314263 
L 570.675774 -548.476576 
L 570.718137 -543.63889 
L 570.763512 -538.801203 
L 570.808775 -533.963517 
L 570.858898 -529.12583 
L 570.925129 -524.288143 
L 571.015429 -519.450457 
L 571.12781 -514.61277 
L 571.255509 -509.775084 
L 571.397796 -504.937397 
L 571.561655 -500.09971 
L 571.749947 -495.262024 
L 571.952528 -490.424337 
L 572.159286 -485.586651 
L 572.380982 -480.748964 
L 572.647094 -475.911278 
L 572.987302 -471.073591 
L 573.422944 -466.235904 
L 573.961838 -461.398218 
L 574.588815 -456.560531 
L 575.276141 -451.722845 
L 576.005822 -446.885158 
L 576.773466 -442.047472 
L 577.60153 -437.209785 
L 578.560047 -432.372098 
L 579.721115 -427.534412 
L 581.081789 -422.696725 
L 582.57147 -417.859039 
L 584.109166 -413.021352 
L 585.611164 -408.183665 
L 587.0028 -403.345979 
L 588.297567 -398.508292 
L 589.633324 -393.670606 
L 591.177191 -388.832919 
L 593.003201 -383.995233 
L 595.057396 -379.157546 
L 597.187524 -374.319859 
L 599.189796 -369.482173 
L 600.889639 -364.644486 
L 602.247012 -359.8068 
L 603.38849 -354.969113 
L 604.503519 -350.131427 
L 605.688001 -345.29374 
L 606.883211 -340.456053 
L 607.968717 -335.618367 
L 608.905843 -330.78068 
L 609.765521 -325.942994 
L 610.612009 -321.105307 
L 611.390712 -316.26762 
L 611.96237 -311.429934 
L 612.245177 -306.592247 
L 612.272968 -301.754561 
L 612.081631 -296.916874 
L 611.607484 -292.079188 
L 610.75502 -287.241501 
L 609.502186 -282.403814 
L 607.908862 -277.566128 
L 606.087352 -272.728441 
L 604.182329 -267.890755 
L 602.325883 -263.053068 
L 600.55907 -258.215382 
L 598.795431 -253.377695 
L 596.905627 -248.540008 
L 594.842887 -243.702322 
L 592.664754 -238.864635 
L 590.461631 -234.026949 
L 588.290387 -229.189262 
L 586.159358 -224.351575 
L 584.066016 -219.513889 
L 582.050752 -214.676202 
L 580.202713 -209.838516 
L 578.602963 -205.000829 
L 577.269223 -200.163143 
L 576.158359 -195.325456 
L 575.207154 -190.487769 
L 574.362185 -185.650083 
L 573.589515 -180.812396 
L 572.883773 -175.97471 
L 572.269865 -171.137023 
L 571.781434 -166.299337 
L 571.434226 -161.46165 
L 571.213989 -156.623963 
L 571.077848 -151.786277 
L 570.972823 -146.94859 
L 570.866987 -142.110904 
L 570.763441 -137.273217 
L 570.681949 -132.43553 
L 570.632845 -127.597844 
L 570.610366 -122.760157 
z
" style="stroke: #3f3f3f; stroke-width: 1.25"/>
    </defs>
    <g clip-path="url(#p9304449c53)">
     <use xlink:href="#m33375e56f2" x="0" y="720" style="fill: #3274a1; stroke: #3f3f3f; stroke-width: 1.25"/>
    </g>
   </g>
   <g id="PolyCollection_5">
    <defs>
     <path id="m585f0a0b57" d="M 682.211345 -124.639271 
L 682.188655 -124.639271 
L 682.166472 -129.456151 
L 682.122578 -134.273031 
L 682.056928 -139.089911 
L 681.979393 -143.90679 
L 681.896533 -148.72367 
L 681.795719 -153.54055 
L 681.648617 -158.35743 
L 681.431839 -163.17431 
L 681.142152 -167.99119 
L 680.789224 -172.80807 
L 680.366512 -177.624949 
L 679.831547 -182.441829 
L 679.130397 -187.258709 
L 678.238341 -192.075589 
L 677.162596 -196.892469 
L 675.917657 -201.709349 
L 674.512508 -206.526229 
L 672.959384 -211.343109 
L 671.296947 -216.159988 
L 669.585053 -220.976868 
L 667.840328 -225.793748 
L 666.005699 -230.610628 
L 664.046494 -235.427508 
L 662.052481 -240.244388 
L 660.1687 -245.061268 
L 658.425623 -249.878147 
L 656.678633 -254.695027 
L 654.713784 -259.511907 
L 652.437568 -264.328787 
L 650.00741 -269.145667 
L 647.727155 -273.962547 
L 645.771708 -278.779427 
L 644.093195 -283.596307 
L 642.617649 -288.413186 
L 641.416076 -293.230066 
L 640.637337 -298.046946 
L 640.351706 -302.863826 
L 640.493325 -307.680706 
L 640.906816 -312.497586 
L 641.417778 -317.314466 
L 641.882158 -322.131345 
L 642.238314 -326.948225 
L 642.57687 -331.765105 
L 643.133468 -336.581985 
L 644.107739 -341.398865 
L 645.430077 -346.215745 
L 646.774853 -351.032625 
L 647.888547 -355.849505 
L 648.861491 -360.666384 
L 650.016135 -365.483264 
L 651.590722 -370.300144 
L 653.579062 -375.117024 
L 655.788 -379.933904 
L 657.966715 -384.750784 
L 659.926316 -389.567664 
L 661.624155 -394.384543 
L 663.168164 -399.201423 
L 664.720033 -404.018303 
L 666.358753 -408.835183 
L 668.026199 -413.652063 
L 669.601341 -418.468943 
L 671.001114 -423.285823 
L 672.213439 -428.102703 
L 673.288604 -432.919582 
L 674.310943 -437.736462 
L 675.3313 -442.553342 
L 676.322923 -447.370222 
L 677.232761 -452.187102 
L 678.045326 -457.003982 
L 678.76175 -461.820862 
L 679.365497 -466.637741 
L 679.847773 -471.454621 
L 680.226642 -476.271501 
L 680.522972 -481.088381 
L 680.752106 -485.905261 
L 680.940081 -490.722141 
L 681.11528 -495.539021 
L 681.284144 -500.355901 
L 681.435795 -505.17278 
L 681.565039 -509.98966 
L 681.674793 -514.80654 
L 681.763116 -519.62342 
L 681.825632 -524.4403 
L 681.870286 -529.25718 
L 681.916042 -534.07406 
L 681.974655 -538.890939 
L 682.041032 -543.707819 
L 682.101337 -548.524699 
L 682.1449 -553.341579 
L 682.168669 -558.158459 
L 682.176056 -562.975339 
L 682.174275 -567.792219 
L 682.17059 -572.609099 
L 682.169251 -577.425978 
L 682.171681 -582.242858 
L 682.177779 -587.059738 
L 682.185787 -591.876618 
L 682.192863 -596.693498 
L 682.197252 -601.510378 
L 682.202748 -601.510378 
L 682.202748 -601.510378 
L 682.207137 -596.693498 
L 682.214213 -591.876618 
L 682.222221 -587.059738 
L 682.228319 -582.242858 
L 682.230749 -577.425978 
L 682.22941 -572.609099 
L 682.225725 -567.792219 
L 682.223944 -562.975339 
L 682.231331 -558.158459 
L 682.2551 -553.341579 
L 682.298663 -548.524699 
L 682.358968 -543.707819 
L 682.425345 -538.890939 
L 682.483958 -534.07406 
L 682.529714 -529.25718 
L 682.574368 -524.4403 
L 682.636884 -519.62342 
L 682.725207 -514.80654 
L 682.834961 -509.98966 
L 682.964205 -505.17278 
L 683.115856 -500.355901 
L 683.28472 -495.539021 
L 683.459919 -490.722141 
L 683.647894 -485.905261 
L 683.877028 -481.088381 
L 684.173358 -476.271501 
L 684.552227 -471.454621 
L 685.034503 -466.637741 
L 685.63825 -461.820862 
L 686.354674 -457.003982 
L 687.167239 -452.187102 
L 688.077077 -447.370222 
L 689.0687 -442.553342 
L 690.089057 -437.736462 
L 691.111396 -432.919582 
L 692.186561 -428.102703 
L 693.398886 -423.285823 
L 694.798659 -418.468943 
L 696.373801 -413.652063 
L 698.041247 -408.835183 
L 699.679967 -404.018303 
L 701.231836 -399.201423 
L 702.775845 -394.384543 
L 704.473684 -389.567664 
L 706.433285 -384.750784 
L 708.612 -379.933904 
L 710.820938 -375.117024 
L 712.809278 -370.300144 
L 714.383865 -365.483264 
L 715.538509 -360.666384 
L 716.511453 -355.849505 
L 717.625147 -351.032625 
L 718.969923 -346.215745 
L 720.292261 -341.398865 
L 721.266532 -336.581985 
L 721.82313 -331.765105 
L 722.161686 -326.948225 
L 722.517842 -322.131345 
L 722.982222 -317.314466 
L 723.493184 -312.497586 
L 723.906675 -307.680706 
L 724.048294 -302.863826 
L 723.762663 -298.046946 
L 722.983924 -293.230066 
L 721.782351 -288.413186 
L 720.306805 -283.596307 
L 718.628292 -278.779427 
L 716.672845 -273.962547 
L 714.39259 -269.145667 
L 711.962432 -264.328787 
L 709.686216 -259.511907 
L 707.721367 -254.695027 
L 705.974377 -249.878147 
L 704.2313 -245.061268 
L 702.347519 -240.244388 
L 700.353506 -235.427508 
L 698.394301 -230.610628 
L 696.559672 -225.793748 
L 694.814947 -220.976868 
L 693.103053 -216.159988 
L 691.440616 -211.343109 
L 689.887492 -206.526229 
L 688.482343 -201.709349 
L 687.237404 -196.892469 
L 686.161659 -192.075589 
L 685.269603 -187.258709 
L 684.568453 -182.441829 
L 684.033488 -177.624949 
L 683.610776 -172.80807 
L 683.257848 -167.99119 
L 682.968161 -163.17431 
L 682.751383 -158.35743 
L 682.604281 -153.54055 
L 682.503467 -148.72367 
L 682.420607 -143.90679 
L 682.343072 -139.089911 
L 682.277422 -134.273031 
L 682.233528 -129.456151 
L 682.211345 -124.639271 
z
" style="stroke: #3f3f3f; stroke-width: 1.25"/>
    </defs>
    <g clip-path="url(#p9304449c53)">
     <use xlink:href="#m585f0a0b57" x="0" y="720" style="fill: #3274a1; stroke: #3f3f3f; stroke-width: 1.25"/>
    </g>
   </g>
   <g id="PolyCollection_6">
    <defs>
     <path id="mdef42f1d76" d="M 793.807557 -125.150067 
L 793.792443 -125.150067 
L 793.77993 -129.728318 
L 793.758572 -134.306569 
L 793.731723 -138.884819 
L 793.70492 -143.46307 
L 793.676181 -148.041321 
L 793.630861 -152.619572 
L 793.549181 -157.197822 
L 793.418415 -161.776073 
L 793.236918 -166.354324 
L 793.005667 -170.932575 
L 792.712711 -175.510826 
L 792.322889 -180.089076 
L 791.786255 -184.667327 
L 791.068616 -189.245578 
L 790.182042 -193.823829 
L 789.178436 -198.402079 
L 788.104907 -202.98033 
L 786.964682 -207.558581 
L 785.715539 -212.136832 
L 784.303852 -216.715082 
L 782.711774 -221.293333 
L 780.976447 -225.871584 
L 779.159321 -230.449835 
L 777.296917 -235.028086 
L 775.377175 -239.606336 
L 773.359024 -244.184587 
L 771.227819 -248.762838 
L 769.029891 -253.341089 
L 766.828276 -257.919339 
L 764.65295 -262.49759 
L 762.54259 -267.075841 
L 760.581799 -271.654092 
L 758.815835 -276.232342 
L 757.172556 -280.810593 
L 755.559747 -285.388844 
L 754.013577 -289.967095 
L 752.673627 -294.545346 
L 751.649338 -299.123596 
L 750.993698 -303.701847 
L 750.747282 -308.280098 
L 750.892638 -312.858349 
L 751.295453 -317.436599 
L 751.772286 -322.01485 
L 752.217009 -326.593101 
L 752.66461 -331.171352 
L 753.256254 -335.749602 
L 754.105457 -340.327853 
L 755.156874 -344.906104 
L 756.230889 -349.484355 
L 757.253911 -354.062606 
L 758.357351 -358.640856 
L 759.696392 -363.219107 
L 761.282206 -367.797358 
L 763.042505 -372.375609 
L 764.933523 -376.953859 
L 766.937717 -381.53211 
L 769.019024 -386.110361 
L 771.117907 -390.688612 
L 773.170756 -395.266862 
L 775.119464 -399.845113 
L 776.905724 -404.423364 
L 778.487154 -409.001615 
L 779.893085 -413.579866 
L 781.242023 -418.158116 
L 782.643913 -422.736367 
L 784.075589 -427.314618 
L 785.39864 -431.892869 
L 786.504229 -436.471119 
L 787.398502 -441.04937 
L 788.160302 -445.627621 
L 788.866861 -450.205872 
L 789.550447 -454.784122 
L 790.190648 -459.362373 
L 790.7525 -463.940624 
L 791.231169 -468.518875 
L 791.639196 -473.097126 
L 791.968257 -477.675376 
L 792.201711 -482.253627 
L 792.358928 -486.831878 
L 792.494913 -491.410129 
L 792.651844 -495.988379 
L 792.829192 -500.56663 
L 793.002335 -505.144881 
L 793.153064 -509.723132 
L 793.275988 -514.301382 
L 793.368625 -518.879633 
L 793.430229 -523.457884 
L 793.469948 -528.036135 
L 793.504593 -532.614386 
L 793.545088 -537.192636 
L 793.590919 -541.770887 
L 793.637089 -546.349138 
L 793.680064 -550.927389 
L 793.71726 -555.505639 
L 793.746595 -560.08389 
L 793.767962 -564.662141 
L 793.782717 -569.240392 
L 793.792053 -573.818642 
L 793.797035 -578.396893 
L 793.802965 -578.396893 
L 793.802965 -578.396893 
L 793.807947 -573.818642 
L 793.817283 -569.240392 
L 793.832038 -564.662141 
L 793.853405 -560.08389 
L 793.88274 -555.505639 
L 793.919936 -550.927389 
L 793.962911 -546.349138 
L 794.009081 -541.770887 
L 794.054912 -537.192636 
L 794.095407 -532.614386 
L 794.130052 -528.036135 
L 794.169771 -523.457884 
L 794.231375 -518.879633 
L 794.324012 -514.301382 
L 794.446936 -509.723132 
L 794.597665 -505.144881 
L 794.770808 -500.56663 
L 794.948156 -495.988379 
L 795.105087 -491.410129 
L 795.241072 -486.831878 
L 795.398289 -482.253627 
L 795.631743 -477.675376 
L 795.960804 -473.097126 
L 796.368831 -468.518875 
L 796.8475 -463.940624 
L 797.409352 -459.362373 
L 798.049553 -454.784122 
L 798.733139 -450.205872 
L 799.439698 -445.627621 
L 800.201498 -441.04937 
L 801.095771 -436.471119 
L 802.20136 -431.892869 
L 803.524411 -427.314618 
L 804.956087 -422.736367 
L 806.357977 -418.158116 
L 807.706915 -413.579866 
L 809.112846 -409.001615 
L 810.694276 -404.423364 
L 812.480536 -399.845113 
L 814.429244 -395.266862 
L 816.482093 -390.688612 
L 818.580976 -386.110361 
L 820.662283 -381.53211 
L 822.666477 -376.953859 
L 824.557495 -372.375609 
L 826.317794 -367.797358 
L 827.903608 -363.219107 
L 829.242649 -358.640856 
L 830.346089 -354.062606 
L 831.369111 -349.484355 
L 832.443126 -344.906104 
L 833.494543 -340.327853 
L 834.343746 -335.749602 
L 834.93539 -331.171352 
L 835.382991 -326.593101 
L 835.827714 -322.01485 
L 836.304547 -317.436599 
L 836.707362 -312.858349 
L 836.852718 -308.280098 
L 836.606302 -303.701847 
L 835.950662 -299.123596 
L 834.926373 -294.545346 
L 833.586423 -289.967095 
L 832.040253 -285.388844 
L 830.427444 -280.810593 
L 828.784165 -276.232342 
L 827.018201 -271.654092 
L 825.05741 -267.075841 
L 822.94705 -262.49759 
L 820.771724 -257.919339 
L 818.570109 -253.341089 
L 816.372181 -248.762838 
L 814.240976 -244.184587 
L 812.222825 -239.606336 
L 810.303083 -235.028086 
L 808.440679 -230.449835 
L 806.623553 -225.871584 
L 804.888226 -221.293333 
L 803.296148 -216.715082 
L 801.884461 -212.136832 
L 800.635318 -207.558581 
L 799.495093 -202.98033 
L 798.421564 -198.402079 
L 797.417958 -193.823829 
L 796.531384 -189.245578 
L 795.813745 -184.667327 
L 795.277111 -180.089076 
L 794.887289 -175.510826 
L 794.594333 -170.932575 
L 794.363082 -166.354324 
L 794.181585 -161.776073 
L 794.050819 -157.197822 
L 793.969139 -152.619572 
L 793.923819 -148.041321 
L 793.89508 -143.46307 
L 793.868277 -138.884819 
L 793.841428 -134.306569 
L 793.82007 -129.728318 
L 793.807557 -125.150067 
z
" style="stroke: #3f3f3f; stroke-width: 1.25"/>
    </defs>
    <g clip-path="url(#p9304449c53)">
     <use xlink:href="#mdef42f1d76" x="0" y="720" style="fill: #3274a1; stroke: #3f3f3f; stroke-width: 1.25"/>
    </g>
   </g>
   <g id="PolyCollection_7">
    <defs>
     <path id="meaf86cd5ea" d="M 905.407541 -125.095013 
L 905.392459 -125.095013 
L 905.380054 -129.662304 
L 905.358829 -134.229595 
L 905.331762 -138.796887 
L 905.30357 -143.364178 
L 905.271161 -147.93147 
L 905.219108 -152.498761 
L 905.128174 -157.066053 
L 904.987925 -161.633344 
L 904.800059 -166.200636 
L 904.569171 -170.767927 
L 904.285817 -175.335218 
L 903.914715 -179.90251 
L 903.40643 -184.469801 
L 902.733175 -189.037093 
L 901.916061 -193.604384 
L 901.007222 -198.171676 
L 900.037336 -202.738967 
L 898.988121 -207.306258 
L 897.825348 -211.87355 
L 896.551548 -216.440841 
L 895.215692 -221.008133 
L 893.870959 -225.575424 
L 892.516267 -230.142716 
L 891.058353 -234.710007 
L 889.32966 -239.277299 
L 887.189215 -243.84459 
L 884.667575 -248.411881 
L 882.016952 -252.979173 
L 879.562681 -257.546464 
L 877.484914 -262.113756 
L 875.764026 -266.681047 
L 874.286474 -271.248339 
L 872.918834 -275.81563 
L 871.51891 -280.382922 
L 870.005012 -284.950213 
L 868.443152 -289.517504 
L 866.993615 -294.084796 
L 865.770943 -298.652087 
L 864.808822 -303.219379 
L 864.111437 -307.78667 
L 863.656898 -312.353962 
L 863.386494 -316.921253 
L 863.239394 -321.488544 
L 863.178206 -326.055836 
L 863.215537 -330.623127 
L 863.453917 -335.190419 
L 864.017652 -339.75771 
L 864.899146 -344.325002 
L 865.94732 -348.892293 
L 867.028878 -353.459585 
L 868.142049 -358.026876 
L 869.372064 -362.594167 
L 870.792476 -367.161459 
L 872.426114 -371.72875 
L 874.257458 -376.296042 
L 876.232945 -380.863333 
L 878.259578 -385.430625 
L 880.264576 -389.997916 
L 882.268412 -394.565208 
L 884.33735 -399.132499 
L 886.444784 -403.69979 
L 888.45037 -408.267082 
L 890.252106 -412.834373 
L 891.888624 -417.401665 
L 893.44076 -421.968956 
L 894.894301 -426.536248 
L 896.163142 -431.103539 
L 897.208355 -435.67083 
L 898.079261 -440.238122 
L 898.864648 -444.805413 
L 899.643738 -449.372705 
L 900.454386 -453.939996 
L 901.267086 -458.507288 
L 902.002862 -463.074579 
L 902.597589 -467.641871 
L 903.041266 -472.209162 
L 903.361456 -476.776453 
L 903.596687 -481.343745 
L 903.789316 -485.911036 
L 903.978874 -490.478328 
L 904.182917 -495.045619 
L 904.387491 -499.612911 
L 904.567651 -504.180202 
L 904.71496 -508.747494 
L 904.836445 -513.314785 
L 904.935003 -517.882076 
L 905.007339 -522.449368 
L 905.05907 -527.016659 
L 905.106456 -531.583951 
L 905.160786 -536.151242 
L 905.219507 -540.718534 
L 905.272851 -545.285825 
L 905.313622 -549.853116 
L 905.34109 -554.420408 
L 905.359359 -558.987699 
L 905.373109 -563.554991 
L 905.38428 -568.122282 
L 905.392405 -572.689574 
L 905.397087 -577.256865 
L 905.402913 -577.256865 
L 905.402913 -577.256865 
L 905.407595 -572.689574 
L 905.41572 -568.122282 
L 905.426891 -563.554991 
L 905.440641 -558.987699 
L 905.45891 -554.420408 
L 905.486378 -549.853116 
L 905.527149 -545.285825 
L 905.580493 -540.718534 
L 905.639214 -536.151242 
L 905.693544 -531.583951 
L 905.74093 -527.016659 
L 905.792661 -522.449368 
L 905.864997 -517.882076 
L 905.963555 -513.314785 
L 906.08504 -508.747494 
L 906.232349 -504.180202 
L 906.412509 -499.612911 
L 906.617083 -495.045619 
L 906.821126 -490.478328 
L 907.010684 -485.911036 
L 907.203313 -481.343745 
L 907.438544 -476.776453 
L 907.758734 -472.209162 
L 908.202411 -467.641871 
L 908.797138 -463.074579 
L 909.532914 -458.507288 
L 910.345614 -453.939996 
L 911.156262 -449.372705 
L 911.935352 -444.805413 
L 912.720739 -440.238122 
L 913.591645 -435.67083 
L 914.636858 -431.103539 
L 915.905699 -426.536248 
L 917.35924 -421.968956 
L 918.911376 -417.401665 
L 920.547894 -412.834373 
L 922.34963 -408.267082 
L 924.355216 -403.69979 
L 926.46265 -399.132499 
L 928.531588 -394.565208 
L 930.535424 -389.997916 
L 932.540422 -385.430625 
L 934.567055 -380.863333 
L 936.542542 -376.296042 
L 938.373886 -371.72875 
L 940.007524 -367.161459 
L 941.427936 -362.594167 
L 942.657951 -358.026876 
L 943.771122 -353.459585 
L 944.85268 -348.892293 
L 945.900854 -344.325002 
L 946.782348 -339.75771 
L 947.346083 -335.190419 
L 947.584463 -330.623127 
L 947.621794 -326.055836 
L 947.560606 -321.488544 
L 947.413506 -316.921253 
L 947.143102 -312.353962 
L 946.688563 -307.78667 
L 945.991178 -303.219379 
L 945.029057 -298.652087 
L 943.806385 -294.084796 
L 942.356848 -289.517504 
L 940.794988 -284.950213 
L 939.28109 -280.382922 
L 937.881166 -275.81563 
L 936.513526 -271.248339 
L 935.035974 -266.681047 
L 933.315086 -262.113756 
L 931.237319 -257.546464 
L 928.783048 -252.979173 
L 926.132425 -248.411881 
L 923.610785 -243.84459 
L 921.47034 -239.277299 
L 919.741647 -234.710007 
L 918.283733 -230.142716 
L 916.929041 -225.575424 
L 915.584308 -221.008133 
L 914.248452 -216.440841 
L 912.974652 -211.87355 
L 911.811879 -207.306258 
L 910.762664 -202.738967 
L 909.792778 -198.171676 
L 908.883939 -193.604384 
L 908.066825 -189.037093 
L 907.39357 -184.469801 
L 906.885285 -179.90251 
L 906.514183 -175.335218 
L 906.230829 -170.767927 
L 905.999941 -166.200636 
L 905.812075 -161.633344 
L 905.671826 -157.066053 
L 905.580892 -152.498761 
L 905.528839 -147.93147 
L 905.49643 -143.364178 
L 905.468238 -138.796887 
L 905.441171 -134.229595 
L 905.419946 -129.662304 
L 905.407541 -125.095013 
z
" style="stroke: #3f3f3f; stroke-width: 1.25"/>
    </defs>
    <g clip-path="url(#p9304449c53)">
     <use xlink:href="#meaf86cd5ea" x="0" y="720" style="fill: #3274a1; stroke: #3f3f3f; stroke-width: 1.25"/>
    </g>
   </g>
   <g id="PolyCollection_8">
    <defs>
     <path id="m850780cad9" d="M 1017.007436 -124.779977 
L 1016.992564 -124.779977 
L 1016.980594 -129.353633 
L 1016.960118 -133.927288 
L 1016.933526 -138.500944 
L 1016.904378 -143.0746 
L 1016.868148 -147.648256 
L 1016.807662 -152.221912 
L 1016.702077 -156.795567 
L 1016.540682 -161.369223 
L 1016.325607 -165.942879 
L 1016.061611 -170.516535 
L 1015.74455 -175.090191 
L 1015.356389 -179.663846 
L 1014.866882 -184.237502 
L 1014.241676 -188.811158 
L 1013.45343 -193.384814 
L 1012.489428 -197.95847 
L 1011.356984 -202.532125 
L 1010.088658 -207.105781 
L 1008.736065 -211.679437 
L 1007.348425 -216.253093 
L 1005.959173 -220.826749 
L 1004.593775 -225.400404 
L 1003.266635 -229.97406 
L 1001.937296 -234.547716 
L 1000.468315 -239.121372 
L 998.67267 -243.695028 
L 996.469466 -248.268683 
L 994.022031 -252.842339 
L 991.679648 -257.415995 
L 989.724015 -261.989651 
L 988.170083 -266.563307 
L 986.823827 -271.136962 
L 985.482839 -275.710618 
L 984.044727 -280.284274 
L 982.499204 -284.85793 
L 980.918619 -289.431586 
L 979.444033 -294.005241 
L 978.198314 -298.578897 
L 977.195531 -303.152553 
L 976.369369 -307.726209 
L 975.675815 -312.299865 
L 975.129925 -316.87352 
L 974.760715 -321.447176 
L 974.586234 -326.020832 
L 974.660237 -330.594488 
L 975.099956 -335.168144 
L 975.981634 -339.741799 
L 977.193509 -344.315455 
L 978.470167 -348.889111 
L 979.613765 -353.462767 
L 980.648159 -358.036423 
L 981.747922 -362.610078 
L 983.061477 -367.183734 
L 984.620193 -371.75739 
L 986.368651 -376.331046 
L 988.226631 -380.904702 
L 990.127036 -385.478357 
L 992.036618 -390.052013 
L 993.954626 -394.625669 
L 995.87934 -399.199325 
L 997.7781 -403.772981 
L 999.600809 -408.346636 
L 1001.316661 -412.920292 
L 1002.923591 -417.493948 
L 1004.42014 -422.067604 
L 1005.781831 -426.64126 
L 1006.982596 -431.214915 
L 1008.036009 -435.788571 
L 1008.993927 -440.362227 
L 1009.907441 -444.935883 
L 1010.805704 -449.509539 
L 1011.692744 -454.083194 
L 1012.539271 -458.65685 
L 1013.294206 -463.230506 
L 1013.921206 -467.804162 
L 1014.414241 -472.377817 
L 1014.785884 -476.951473 
L 1015.066065 -481.525129 
L 1015.303746 -486.098785 
L 1015.538875 -490.672441 
L 1015.769765 -495.246096 
L 1015.965625 -499.819752 
L 1016.111407 -504.393408 
L 1016.226727 -508.967064 
L 1016.340445 -513.54072 
L 1016.460475 -518.114375 
L 1016.574665 -522.688031 
L 1016.671019 -527.261687 
L 1016.747162 -531.835343 
L 1016.805362 -536.408999 
L 1016.848337 -540.982654 
L 1016.880058 -545.55631 
L 1016.905548 -550.129966 
L 1016.928418 -554.703622 
L 1016.94957 -559.277278 
L 1016.968045 -563.850933 
L 1016.982418 -568.424589 
L 1016.991896 -572.998245 
L 1016.996965 -577.571901 
L 1017.003035 -577.571901 
L 1017.003035 -577.571901 
L 1017.008104 -572.998245 
L 1017.017582 -568.424589 
L 1017.031955 -563.850933 
L 1017.05043 -559.277278 
L 1017.071582 -554.703622 
L 1017.094452 -550.129966 
L 1017.119942 -545.55631 
L 1017.151663 -540.982654 
L 1017.194638 -536.408999 
L 1017.252838 -531.835343 
L 1017.328981 -527.261687 
L 1017.425335 -522.688031 
L 1017.539525 -518.114375 
L 1017.659555 -513.54072 
L 1017.773273 -508.967064 
L 1017.888593 -504.393408 
L 1018.034375 -499.819752 
L 1018.230235 -495.246096 
L 1018.461125 -490.672441 
L 1018.696254 -486.098785 
L 1018.933935 -481.525129 
L 1019.214116 -476.951473 
L 1019.585759 -472.377817 
L 1020.078794 -467.804162 
L 1020.705794 -463.230506 
L 1021.460729 -458.65685 
L 1022.307256 -454.083194 
L 1023.194296 -449.509539 
L 1024.092559 -444.935883 
L 1025.006073 -440.362227 
L 1025.963991 -435.788571 
L 1027.017404 -431.214915 
L 1028.218169 -426.64126 
L 1029.57986 -422.067604 
L 1031.076409 -417.493948 
L 1032.683339 -412.920292 
L 1034.399191 -408.346636 
L 1036.2219 -403.772981 
L 1038.12066 -399.199325 
L 1040.045374 -394.625669 
L 1041.963382 -390.052013 
L 1043.872964 -385.478357 
L 1045.773369 -380.904702 
L 1047.631349 -376.331046 
L 1049.379807 -371.75739 
L 1050.938523 -367.183734 
L 1052.252078 -362.610078 
L 1053.351841 -358.036423 
L 1054.386235 -353.462767 
L 1055.529833 -348.889111 
L 1056.806491 -344.315455 
L 1058.018366 -339.741799 
L 1058.900044 -335.168144 
L 1059.339763 -330.594488 
L 1059.413766 -326.020832 
L 1059.239285 -321.447176 
L 1058.870075 -316.87352 
L 1058.324185 -312.299865 
L 1057.630631 -307.726209 
L 1056.804469 -303.152553 
L 1055.801686 -298.578897 
L 1054.555967 -294.005241 
L 1053.081381 -289.431586 
L 1051.500796 -284.85793 
L 1049.955273 -280.284274 
L 1048.517161 -275.710618 
L 1047.176173 -271.136962 
L 1045.829917 -266.563307 
L 1044.275985 -261.989651 
L 1042.320352 -257.415995 
L 1039.977969 -252.842339 
L 1037.530534 -248.268683 
L 1035.32733 -243.695028 
L 1033.531685 -239.121372 
L 1032.062704 -234.547716 
L 1030.733365 -229.97406 
L 1029.406225 -225.400404 
L 1028.040827 -220.826749 
L 1026.651575 -216.253093 
L 1025.263935 -211.679437 
L 1023.911342 -207.105781 
L 1022.643016 -202.532125 
L 1021.510572 -197.95847 
L 1020.54657 -193.384814 
L 1019.758324 -188.811158 
L 1019.133118 -184.237502 
L 1018.643611 -179.663846 
L 1018.25545 -175.090191 
L 1017.938389 -170.516535 
L 1017.674393 -165.942879 
L 1017.459318 -161.369223 
L 1017.297923 -156.795567 
L 1017.192338 -152.221912 
L 1017.131852 -147.648256 
L 1017.095622 -143.0746 
L 1017.066474 -138.500944 
L 1017.039882 -133.927288 
L 1017.019406 -129.353633 
L 1017.007436 -124.779977 
z
" style="stroke: #3f3f3f; stroke-width: 1.25"/>
    </defs>
    <g clip-path="url(#p9304449c53)">
     <use xlink:href="#m850780cad9" x="0" y="720" style="fill: #3274a1; stroke: #3f3f3f; stroke-width: 1.25"/>
    </g>
   </g>
   <g id="PolyCollection_9">
    <defs>
     <path id="m40564f6b8c" d="M 1128.607479 -124.619269 
L 1128.592521 -124.619269 
L 1128.580663 -129.118431 
L 1128.559775 -133.617594 
L 1128.530454 -138.116756 
L 1128.494111 -142.615918 
L 1128.446116 -147.115081 
L 1128.372323 -151.614243 
L 1128.25549 -156.113405 
L 1128.08547 -160.612568 
L 1127.861815 -165.11173 
L 1127.585865 -169.610892 
L 1127.248855 -174.110055 
L 1126.827158 -178.609217 
L 1126.29458 -183.108379 
L 1125.644182 -187.607542 
L 1124.891564 -192.106704 
L 1124.047947 -196.605866 
L 1123.093189 -201.105029 
L 1121.982387 -205.604191 
L 1120.678117 -210.103353 
L 1119.175117 -214.602516 
L 1117.503013 -219.101678 
L 1115.717137 -223.60084 
L 1113.886311 -228.100003 
L 1112.076184 -232.599165 
L 1110.32326 -237.098327 
L 1108.60426 -241.59749 
L 1106.839419 -246.096652 
L 1104.970593 -250.595814 
L 1103.059085 -255.094977 
L 1101.277633 -259.594139 
L 1099.780915 -264.093301 
L 1098.587684 -268.592464 
L 1097.574376 -273.091626 
L 1096.548686 -277.590788 
L 1095.335783 -282.089951 
L 1093.85506 -286.589113 
L 1092.181397 -291.088275 
L 1090.541636 -295.587438 
L 1089.186613 -300.0866 
L 1088.21264 -304.585762 
L 1087.525037 -309.084925 
L 1086.986756 -313.584087 
L 1086.559906 -318.083249 
L 1086.296646 -322.582412 
L 1086.271331 -327.081574 
L 1086.57309 -331.580736 
L 1087.290297 -336.079899 
L 1088.408819 -340.579061 
L 1089.763142 -345.078223 
L 1091.169334 -349.577386 
L 1092.569731 -354.076548 
L 1093.982241 -358.57571 
L 1095.373469 -363.074873 
L 1096.685479 -367.574035 
L 1097.963226 -372.073197 
L 1099.355187 -376.57236 
L 1100.960671 -381.071522 
L 1102.726598 -385.570684 
L 1104.521985 -390.069847 
L 1106.278907 -394.569009 
L 1108.020661 -399.068171 
L 1109.775051 -403.567334 
L 1111.517269 -408.066496 
L 1113.198465 -412.565658 
L 1114.781039 -417.064821 
L 1116.235111 -421.563983 
L 1117.536651 -426.063145 
L 1118.688799 -430.562308 
L 1119.730354 -435.06147 
L 1120.707763 -439.560632 
L 1121.6451 -444.059795 
L 1122.547417 -448.558957 
L 1123.410461 -453.058119 
L 1124.208866 -457.557282 
L 1124.898791 -462.056444 
L 1125.454721 -466.555606 
L 1125.891451 -471.054769 
L 1126.244404 -475.553931 
L 1126.545483 -480.053093 
L 1126.818927 -484.552256 
L 1127.0778 -489.051418 
L 1127.313999 -493.55058 
L 1127.505473 -498.049743 
L 1127.644355 -502.548905 
L 1127.75225 -507.048067 
L 1127.861661 -511.54723 
L 1127.986232 -516.046392 
L 1128.113804 -520.545554 
L 1128.225276 -525.044717 
L 1128.3128 -529.543879 
L 1128.379082 -534.043041 
L 1128.427928 -538.542204 
L 1128.462283 -543.041366 
L 1128.488065 -547.540528 
L 1128.512942 -552.039691 
L 1128.539905 -556.538853 
L 1128.56521 -561.038015 
L 1128.583659 -565.537178 
L 1128.593882 -570.03634 
L 1128.606118 -570.03634 
L 1128.606118 -570.03634 
L 1128.616341 -565.537178 
L 1128.63479 -561.038015 
L 1128.660095 -556.538853 
L 1128.687058 -552.039691 
L 1128.711935 -547.540528 
L 1128.737717 -543.041366 
L 1128.772072 -538.542204 
L 1128.820918 -534.043041 
L 1128.8872 -529.543879 
L 1128.974724 -525.044717 
L 1129.086196 -520.545554 
L 1129.213768 -516.046392 
L 1129.338339 -511.54723 
L 1129.44775 -507.048067 
L 1129.555645 -502.548905 
L 1129.694527 -498.049743 
L 1129.886001 -493.55058 
L 1130.1222 -489.051418 
L 1130.381073 -484.552256 
L 1130.654517 -480.053093 
L 1130.955596 -475.553931 
L 1131.308549 -471.054769 
L 1131.745279 -466.555606 
L 1132.301209 -462.056444 
L 1132.991134 -457.557282 
L 1133.789539 -453.058119 
L 1134.652583 -448.558957 
L 1135.5549 -444.059795 
L 1136.492237 -439.560632 
L 1137.469646 -435.06147 
L 1138.511201 -430.562308 
L 1139.663349 -426.063145 
L 1140.964889 -421.563983 
L 1142.418961 -417.064821 
L 1144.001535 -412.565658 
L 1145.682731 -408.066496 
L 1147.424949 -403.567334 
L 1149.179339 -399.068171 
L 1150.921093 -394.569009 
L 1152.678015 -390.069847 
L 1154.473402 -385.570684 
L 1156.239329 -381.071522 
L 1157.844813 -376.57236 
L 1159.236774 -372.073197 
L 1160.514521 -367.574035 
L 1161.826531 -363.074873 
L 1163.217759 -358.57571 
L 1164.630269 -354.076548 
L 1166.030666 -349.577386 
L 1167.436858 -345.078223 
L 1168.791181 -340.579061 
L 1169.909703 -336.079899 
L 1170.62691 -331.580736 
L 1170.928669 -327.081574 
L 1170.903354 -322.582412 
L 1170.640094 -318.083249 
L 1170.213244 -313.584087 
L 1169.674963 -309.084925 
L 1168.98736 -304.585762 
L 1168.013387 -300.0866 
L 1166.658364 -295.587438 
L 1165.018603 -291.088275 
L 1163.34494 -286.589113 
L 1161.864217 -282.089951 
L 1160.651314 -277.590788 
L 1159.625624 -273.091626 
L 1158.612316 -268.592464 
L 1157.419085 -264.093301 
L 1155.922367 -259.594139 
L 1154.140915 -255.094977 
L 1152.229407 -250.595814 
L 1150.360581 -246.096652 
L 1148.59574 -241.59749 
L 1146.87674 -237.098327 
L 1145.123816 -232.599165 
L 1143.313689 -228.100003 
L 1141.482863 -223.60084 
L 1139.696987 -219.101678 
L 1138.024883 -214.602516 
L 1136.521883 -210.103353 
L 1135.217613 -205.604191 
L 1134.106811 -201.105029 
L 1133.152053 -196.605866 
L 1132.308436 -192.106704 
L 1131.555818 -187.607542 
L 1130.90542 -183.108379 
L 1130.372842 -178.609217 
L 1129.951145 -174.110055 
L 1129.614135 -169.610892 
L 1129.338185 -165.11173 
L 1129.11453 -160.612568 
L 1128.94451 -156.113405 
L 1128.827677 -151.614243 
L 1128.753884 -147.115081 
L 1128.705889 -142.615918 
L 1128.669546 -138.116756 
L 1128.640225 -133.617594 
L 1128.619337 -129.118431 
L 1128.607479 -124.619269 
z
" style="stroke: #3f3f3f; stroke-width: 1.25"/>
    </defs>
    <g clip-path="url(#p9304449c53)">
     <use xlink:href="#m40564f6b8c" x="0" y="720" style="fill: #3274a1; stroke: #3f3f3f; stroke-width: 1.25"/>
    </g>
   </g>
   <g id="PolyCollection_10">
    <defs>
     <path id="mfb9b5b9c8b" d="M 1240.204886 -124.558059 
L 1240.195114 -124.558059 
L 1240.187565 -129.106421 
L 1240.174787 -133.654784 
L 1240.157792 -138.203146 
L 1240.137402 -142.751508 
L 1240.109089 -147.299871 
L 1240.061541 -151.848233 
L 1239.981624 -156.396596 
L 1239.858076 -160.944958 
L 1239.678554 -165.493321 
L 1239.426298 -170.041683 
L 1239.082865 -174.590046 
L 1238.635681 -179.138408 
L 1238.086816 -183.68677 
L 1237.454502 -188.235133 
L 1236.756479 -192.783495 
L 1235.98371 -197.331858 
L 1235.092403 -201.88022 
L 1234.02651 -206.428583 
L 1232.751786 -210.976945 
L 1231.275166 -215.525307 
L 1229.637087 -220.07367 
L 1227.884322 -224.622032 
L 1226.052016 -229.170395 
L 1224.172864 -233.718757 
L 1222.282505 -238.26712 
L 1220.390826 -242.815482 
L 1218.463567 -247.363844 
L 1216.471478 -251.912207 
L 1214.465166 -256.460569 
L 1212.581126 -261.008932 
L 1210.966378 -265.557294 
L 1209.691996 -270.105657 
L 1208.701768 -274.654019 
L 1207.805548 -279.202382 
L 1206.749565 -283.750744 
L 1205.371452 -288.299106 
L 1203.743599 -292.847469 
L 1202.16242 -297.395831 
L 1200.945963 -301.944194 
L 1200.196622 -306.492556 
L 1199.755709 -311.040919 
L 1199.379791 -315.589281 
L 1198.933452 -320.137643 
L 1198.445437 -324.686006 
L 1198.086321 -329.234368 
L 1198.121918 -333.782731 
L 1198.77354 -338.331093 
L 1200.032038 -342.879456 
L 1201.64075 -347.427818 
L 1203.288649 -351.97618 
L 1204.787852 -356.524543 
L 1206.093735 -361.072905 
L 1207.268748 -365.621268 
L 1208.470353 -370.16963 
L 1209.877527 -374.717993 
L 1211.540113 -379.266355 
L 1213.327877 -383.814717 
L 1215.07006 -388.36308 
L 1216.714367 -392.911442 
L 1218.325539 -397.459805 
L 1219.976295 -402.008167 
L 1221.681557 -406.55653 
L 1223.40242 -411.104892 
L 1225.062057 -415.653255 
L 1226.572561 -420.201617 
L 1227.892502 -424.749979 
L 1229.06346 -429.298342 
L 1230.168056 -433.846704 
L 1231.253446 -438.395067 
L 1232.311602 -442.943429 
L 1233.322853 -447.491792 
L 1234.28437 -452.040154 
L 1235.185442 -456.588516 
L 1235.984044 -461.136879 
L 1236.633769 -465.685241 
L 1237.127325 -470.233604 
L 1237.504381 -474.781966 
L 1237.82443 -479.330329 
L 1238.133073 -483.878691 
L 1238.441447 -488.427053 
L 1238.729804 -492.975416 
L 1238.972503 -497.523778 
L 1239.162238 -502.072141 
L 1239.31176 -506.620503 
L 1239.435604 -511.168866 
L 1239.537113 -515.717228 
L 1239.618062 -520.26559 
L 1239.693293 -524.813953 
L 1239.782128 -529.362315 
L 1239.884884 -533.910678 
L 1239.978801 -538.45904 
L 1240.041117 -543.007403 
L 1240.071243 -547.555765 
L 1240.088127 -552.104128 
L 1240.109646 -556.65249 
L 1240.138405 -561.200852 
L 1240.165955 -565.749215 
L 1240.184956 -570.297577 
L 1240.194713 -574.84594 
L 1240.205287 -574.84594 
L 1240.205287 -574.84594 
L 1240.215044 -570.297577 
L 1240.234045 -565.749215 
L 1240.261595 -561.200852 
L 1240.290354 -556.65249 
L 1240.311873 -552.104128 
L 1240.328757 -547.555765 
L 1240.358883 -543.007403 
L 1240.421199 -538.45904 
L 1240.515116 -533.910678 
L 1240.617872 -529.362315 
L 1240.706707 -524.813953 
L 1240.781938 -520.26559 
L 1240.862887 -515.717228 
L 1240.964396 -511.168866 
L 1241.08824 -506.620503 
L 1241.237762 -502.072141 
L 1241.427497 -497.523778 
L 1241.670196 -492.975416 
L 1241.958553 -488.427053 
L 1242.266927 -483.878691 
L 1242.57557 -479.330329 
L 1242.895619 -474.781966 
L 1243.272675 -470.233604 
L 1243.766231 -465.685241 
L 1244.415956 -461.136879 
L 1245.214558 -456.588516 
L 1246.11563 -452.040154 
L 1247.077147 -447.491792 
L 1248.088398 -442.943429 
L 1249.146554 -438.395067 
L 1250.231944 -433.846704 
L 1251.33654 -429.298342 
L 1252.507498 -424.749979 
L 1253.827439 -420.201617 
L 1255.337943 -415.653255 
L 1256.99758 -411.104892 
L 1258.718443 -406.55653 
L 1260.423705 -402.008167 
L 1262.074461 -397.459805 
L 1263.685633 -392.911442 
L 1265.32994 -388.36308 
L 1267.072123 -383.814717 
L 1268.859887 -379.266355 
L 1270.522473 -374.717993 
L 1271.929647 -370.16963 
L 1273.131252 -365.621268 
L 1274.306265 -361.072905 
L 1275.612148 -356.524543 
L 1277.111351 -351.97618 
L 1278.75925 -347.427818 
L 1280.367962 -342.879456 
L 1281.62646 -338.331093 
L 1282.278082 -333.782731 
L 1282.313679 -329.234368 
L 1281.954563 -324.686006 
L 1281.466548 -320.137643 
L 1281.020209 -315.589281 
L 1280.644291 -311.040919 
L 1280.203378 -306.492556 
L 1279.454037 -301.944194 
L 1278.23758 -297.395831 
L 1276.656401 -292.847469 
L 1275.028548 -288.299106 
L 1273.650435 -283.750744 
L 1272.594452 -279.202382 
L 1271.698232 -274.654019 
L 1270.708004 -270.105657 
L 1269.433622 -265.557294 
L 1267.818874 -261.008932 
L 1265.934834 -256.460569 
L 1263.928522 -251.912207 
L 1261.936433 -247.363844 
L 1260.009174 -242.815482 
L 1258.117495 -238.26712 
L 1256.227136 -233.718757 
L 1254.347984 -229.170395 
L 1252.515678 -224.622032 
L 1250.762913 -220.07367 
L 1249.124834 -215.525307 
L 1247.648214 -210.976945 
L 1246.37349 -206.428583 
L 1245.307597 -201.88022 
L 1244.41629 -197.331858 
L 1243.643521 -192.783495 
L 1242.945498 -188.235133 
L 1242.313184 -183.68677 
L 1241.764319 -179.138408 
L 1241.317135 -174.590046 
L 1240.973702 -170.041683 
L 1240.721446 -165.493321 
L 1240.541924 -160.944958 
L 1240.418376 -156.396596 
L 1240.338459 -151.848233 
L 1240.290911 -147.299871 
L 1240.262598 -142.751508 
L 1240.242208 -138.203146 
L 1240.225213 -133.654784 
L 1240.212435 -129.106421 
L 1240.204886 -124.558059 
z
" style="stroke: #3f3f3f; stroke-width: 1.25"/>
    </defs>
    <g clip-path="url(#p9304449c53)">
     <use xlink:href="#mfb9b5b9c8b" x="0" y="720" style="fill: #3274a1; stroke: #3f3f3f; stroke-width: 1.25"/>
    </g>
   </g>
   <g id="matplotlib.axis_1">
    <g id="xtick_1">
     <g id="line2d_1">
      <defs>
       <path id="m41a014cc20" d="M 0 0 
L 0 3.5 
" style="stroke: #000000; stroke-width: 0.8"/>
      </defs>
      <g>
       <use xlink:href="#m41a014cc20" x="235.8" y="640.8" style="stroke: #000000; stroke-width: 0.8"/>
      </g>
     </g>
     <g id="text_1">
      <!-- 0 -->
      <g transform="translate(232.61875 655.398438) scale(0.1 -0.1)">
       <defs>
        <path id="DejaVuSans-30" d="M 2034 4250 
Q 1547 4250 1301 3770 
Q 1056 3291 1056 2328 
Q 1056 1369 1301 889 
Q 1547 409 2034 409 
Q 2525 409 2770 889 
Q 3016 1369 3016 2328 
Q 3016 3291 2770 3770 
Q 2525 4250 2034 4250 
z
M 2034 4750 
Q 2819 4750 3233 4129 
Q 3647 3509 3647 2328 
Q 3647 1150 3233 529 
Q 2819 -91 2034 -91 
Q 1250 -91 836 529 
Q 422 1150 422 2328 
Q 422 3509 836 4129 
Q 1250 4750 2034 4750 
z
" transform="scale(0.015625)"/>
       </defs>
       <use xlink:href="#DejaVuSans-30"/>
      </g>
     </g>
    </g>
    <g id="xtick_2">
     <g id="line2d_2">
      <g>
       <use xlink:href="#m41a014cc20" x="347.4" y="640.8" style="stroke: #000000; stroke-width: 0.8"/>
      </g>
     </g>
     <g id="text_2">
      <!-- 1 -->
      <g transform="translate(344.21875 655.398438) scale(0.1 -0.1)">
       <defs>
        <path id="DejaVuSans-31" d="M 794 531 
L 1825 531 
L 1825 4091 
L 703 3866 
L 703 4441 
L 1819 4666 
L 2450 4666 
L 2450 531 
L 3481 531 
L 3481 0 
L 794 0 
L 794 531 
z
" transform="scale(0.015625)"/>
       </defs>
       <use xlink:href="#DejaVuSans-31"/>
      </g>
     </g>
    </g>
    <g id="xtick_3">
     <g id="line2d_3">
      <g>
       <use xlink:href="#m41a014cc20" x="459" y="640.8" style="stroke: #000000; stroke-width: 0.8"/>
      </g>
     </g>
     <g id="text_3">
      <!-- 2 -->
      <g transform="translate(455.81875 655.398438) scale(0.1 -0.1)">
       <defs>
        <path id="DejaVuSans-32" d="M 1228 531 
L 3431 531 
L 3431 0 
L 469 0 
L 469 531 
Q 828 903 1448 1529 
Q 2069 2156 2228 2338 
Q 2531 2678 2651 2914 
Q 2772 3150 2772 3378 
Q 2772 3750 2511 3984 
Q 2250 4219 1831 4219 
Q 1534 4219 1204 4116 
Q 875 4013 500 3803 
L 500 4441 
Q 881 4594 1212 4672 
Q 1544 4750 1819 4750 
Q 2544 4750 2975 4387 
Q 3406 4025 3406 3419 
Q 3406 3131 3298 2873 
Q 3191 2616 2906 2266 
Q 2828 2175 2409 1742 
Q 1991 1309 1228 531 
z
" transform="scale(0.015625)"/>
       </defs>
       <use xlink:href="#DejaVuSans-32"/>
      </g>
     </g>
    </g>
    <g id="xtick_4">
     <g id="line2d_4">
      <g>
       <use xlink:href="#m41a014cc20" x="570.6" y="640.8" style="stroke: #000000; stroke-width: 0.8"/>
      </g>
     </g>
     <g id="text_4">
      <!-- 3 -->
      <g transform="translate(567.41875 655.398438) scale(0.1 -0.1)">
       <defs>
        <path id="DejaVuSans-33" d="M 2597 2516 
Q 3050 2419 3304 2112 
Q 3559 1806 3559 1356 
Q 3559 666 3084 287 
Q 2609 -91 1734 -91 
Q 1441 -91 1130 -33 
Q 819 25 488 141 
L 488 750 
Q 750 597 1062 519 
Q 1375 441 1716 441 
Q 2309 441 2620 675 
Q 2931 909 2931 1356 
Q 2931 1769 2642 2001 
Q 2353 2234 1838 2234 
L 1294 2234 
L 1294 2753 
L 1863 2753 
Q 2328 2753 2575 2939 
Q 2822 3125 2822 3475 
Q 2822 3834 2567 4026 
Q 2313 4219 1838 4219 
Q 1578 4219 1281 4162 
Q 984 4106 628 3988 
L 628 4550 
Q 988 4650 1302 4700 
Q 1616 4750 1894 4750 
Q 2613 4750 3031 4423 
Q 3450 4097 3450 3541 
Q 3450 3153 3228 2886 
Q 3006 2619 2597 2516 
z
" transform="scale(0.015625)"/>
       </defs>
       <use xlink:href="#DejaVuSans-33"/>
      </g>
     </g>
    </g>
    <g id="xtick_5">
     <g id="line2d_5">
      <g>
       <use xlink:href="#m41a014cc20" x="682.2" y="640.8" style="stroke: #000000; stroke-width: 0.8"/>
      </g>
     </g>
     <g id="text_5">
      <!-- 4 -->
      <g transform="translate(679.01875 655.398438) scale(0.1 -0.1)">
       <defs>
        <path id="DejaVuSans-34" d="M 2419 4116 
L 825 1625 
L 2419 1625 
L 2419 4116 
z
M 2253 4666 
L 3047 4666 
L 3047 1625 
L 3713 1625 
L 3713 1100 
L 3047 1100 
L 3047 0 
L 2419 0 
L 2419 1100 
L 313 1100 
L 313 1709 
L 2253 4666 
z
" transform="scale(0.015625)"/>
       </defs>
       <use xlink:href="#DejaVuSans-34"/>
      </g>
     </g>
    </g>
    <g id="xtick_6">
     <g id="line2d_6">
      <g>
       <use xlink:href="#m41a014cc20" x="793.8" y="640.8" style="stroke: #000000; stroke-width: 0.8"/>
      </g>
     </g>
     <g id="text_6">
      <!-- 5 -->
      <g transform="translate(790.61875 655.398438) scale(0.1 -0.1)">
       <defs>
        <path id="DejaVuSans-35" d="M 691 4666 
L 3169 4666 
L 3169 4134 
L 1269 4134 
L 1269 2991 
Q 1406 3038 1543 3061 
Q 1681 3084 1819 3084 
Q 2600 3084 3056 2656 
Q 3513 2228 3513 1497 
Q 3513 744 3044 326 
Q 2575 -91 1722 -91 
Q 1428 -91 1123 -41 
Q 819 9 494 109 
L 494 744 
Q 775 591 1075 516 
Q 1375 441 1709 441 
Q 2250 441 2565 725 
Q 2881 1009 2881 1497 
Q 2881 1984 2565 2268 
Q 2250 2553 1709 2553 
Q 1456 2553 1204 2497 
Q 953 2441 691 2322 
L 691 4666 
z
" transform="scale(0.015625)"/>
       </defs>
       <use xlink:href="#DejaVuSans-35"/>
      </g>
     </g>
    </g>
    <g id="xtick_7">
     <g id="line2d_7">
      <g>
       <use xlink:href="#m41a014cc20" x="905.4" y="640.8" style="stroke: #000000; stroke-width: 0.8"/>
      </g>
     </g>
     <g id="text_7">
      <!-- 6 -->
      <g transform="translate(902.21875 655.398438) scale(0.1 -0.1)">
       <defs>
        <path id="DejaVuSans-36" d="M 2113 2584 
Q 1688 2584 1439 2293 
Q 1191 2003 1191 1497 
Q 1191 994 1439 701 
Q 1688 409 2113 409 
Q 2538 409 2786 701 
Q 3034 994 3034 1497 
Q 3034 2003 2786 2293 
Q 2538 2584 2113 2584 
z
M 3366 4563 
L 3366 3988 
Q 3128 4100 2886 4159 
Q 2644 4219 2406 4219 
Q 1781 4219 1451 3797 
Q 1122 3375 1075 2522 
Q 1259 2794 1537 2939 
Q 1816 3084 2150 3084 
Q 2853 3084 3261 2657 
Q 3669 2231 3669 1497 
Q 3669 778 3244 343 
Q 2819 -91 2113 -91 
Q 1303 -91 875 529 
Q 447 1150 447 2328 
Q 447 3434 972 4092 
Q 1497 4750 2381 4750 
Q 2619 4750 2861 4703 
Q 3103 4656 3366 4563 
z
" transform="scale(0.015625)"/>
       </defs>
       <use xlink:href="#DejaVuSans-36"/>
      </g>
     </g>
    </g>
    <g id="xtick_8">
     <g id="line2d_8">
      <g>
       <use xlink:href="#m41a014cc20" x="1017" y="640.8" style="stroke: #000000; stroke-width: 0.8"/>
      </g>
     </g>
     <g id="text_8">
      <!-- 7 -->
      <g transform="translate(1013.81875 655.398438) scale(0.1 -0.1)">
       <defs>
        <path id="DejaVuSans-37" d="M 525 4666 
L 3525 4666 
L 3525 4397 
L 1831 0 
L 1172 0 
L 2766 4134 
L 525 4134 
L 525 4666 
z
" transform="scale(0.015625)"/>
       </defs>
       <use xlink:href="#DejaVuSans-37"/>
      </g>
     </g>
    </g>
    <g id="xtick_9">
     <g id="line2d_9">
      <g>
       <use xlink:href="#m41a014cc20" x="1128.6" y="640.8" style="stroke: #000000; stroke-width: 0.8"/>
      </g>
     </g>
     <g id="text_9">
      <!-- 8 -->
      <g transform="translate(1125.41875 655.398438) scale(0.1 -0.1)">
       <defs>
        <path id="DejaVuSans-38" d="M 2034 2216 
Q 1584 2216 1326 1975 
Q 1069 1734 1069 1313 
Q 1069 891 1326 650 
Q 1584 409 2034 409 
Q 2484 409 2743 651 
Q 3003 894 3003 1313 
Q 3003 1734 2745 1975 
Q 2488 2216 2034 2216 
z
M 1403 2484 
Q 997 2584 770 2862 
Q 544 3141 544 3541 
Q 544 4100 942 4425 
Q 1341 4750 2034 4750 
Q 2731 4750 3128 4425 
Q 3525 4100 3525 3541 
Q 3525 3141 3298 2862 
Q 3072 2584 2669 2484 
Q 3125 2378 3379 2068 
Q 3634 1759 3634 1313 
Q 3634 634 3220 271 
Q 2806 -91 2034 -91 
Q 1263 -91 848 271 
Q 434 634 434 1313 
Q 434 1759 690 2068 
Q 947 2378 1403 2484 
z
M 1172 3481 
Q 1172 3119 1398 2916 
Q 1625 2713 2034 2713 
Q 2441 2713 2670 2916 
Q 2900 3119 2900 3481 
Q 2900 3844 2670 4047 
Q 2441 4250 2034 4250 
Q 1625 4250 1398 4047 
Q 1172 3844 1172 3481 
z
" transform="scale(0.015625)"/>
       </defs>
       <use xlink:href="#DejaVuSans-38"/>
      </g>
     </g>
    </g>
    <g id="xtick_10">
     <g id="line2d_10">
      <g>
       <use xlink:href="#m41a014cc20" x="1240.2" y="640.8" style="stroke: #000000; stroke-width: 0.8"/>
      </g>
     </g>
     <g id="text_10">
      <!-- 9 -->
      <g transform="translate(1237.01875 655.398438) scale(0.1 -0.1)">
       <defs>
        <path id="DejaVuSans-39" d="M 703 97 
L 703 672 
Q 941 559 1184 500 
Q 1428 441 1663 441 
Q 2288 441 2617 861 
Q 2947 1281 2994 2138 
Q 2813 1869 2534 1725 
Q 2256 1581 1919 1581 
Q 1219 1581 811 2004 
Q 403 2428 403 3163 
Q 403 3881 828 4315 
Q 1253 4750 1959 4750 
Q 2769 4750 3195 4129 
Q 3622 3509 3622 2328 
Q 3622 1225 3098 567 
Q 2575 -91 1691 -91 
Q 1453 -91 1209 -44 
Q 966 3 703 97 
z
M 1959 2075 
Q 2384 2075 2632 2365 
Q 2881 2656 2881 3163 
Q 2881 3666 2632 3958 
Q 2384 4250 1959 4250 
Q 1534 4250 1286 3958 
Q 1038 3666 1038 3163 
Q 1038 2656 1286 2365 
Q 1534 2075 1959 2075 
z
" transform="scale(0.015625)"/>
       </defs>
       <use xlink:href="#DejaVuSans-39"/>
      </g>
     </g>
    </g>
    <g id="text_11">
     <!-- iteration -->
     <g transform="translate(716.877344 669.076563) scale(0.1 -0.1)">
      <defs>
       <path id="DejaVuSans-69" d="M 603 3500 
L 1178 3500 
L 1178 0 
L 603 0 
L 603 3500 
z
M 603 4863 
L 1178 4863 
L 1178 4134 
L 603 4134 
L 603 4863 
z
" transform="scale(0.015625)"/>
       <path id="DejaVuSans-74" d="M 1172 4494 
L 1172 3500 
L 2356 3500 
L 2356 3053 
L 1172 3053 
L 1172 1153 
Q 1172 725 1289 603 
Q 1406 481 1766 481 
L 2356 481 
L 2356 0 
L 1766 0 
Q 1100 0 847 248 
Q 594 497 594 1153 
L 594 3053 
L 172 3053 
L 172 3500 
L 594 3500 
L 594 4494 
L 1172 4494 
z
" transform="scale(0.015625)"/>
       <path id="DejaVuSans-65" d="M 3597 1894 
L 3597 1613 
L 953 1613 
Q 991 1019 1311 708 
Q 1631 397 2203 397 
Q 2534 397 2845 478 
Q 3156 559 3463 722 
L 3463 178 
Q 3153 47 2828 -22 
Q 2503 -91 2169 -91 
Q 1331 -91 842 396 
Q 353 884 353 1716 
Q 353 2575 817 3079 
Q 1281 3584 2069 3584 
Q 2775 3584 3186 3129 
Q 3597 2675 3597 1894 
z
M 3022 2063 
Q 3016 2534 2758 2815 
Q 2500 3097 2075 3097 
Q 1594 3097 1305 2825 
Q 1016 2553 972 2059 
L 3022 2063 
z
" transform="scale(0.015625)"/>
       <path id="DejaVuSans-72" d="M 2631 2963 
Q 2534 3019 2420 3045 
Q 2306 3072 2169 3072 
Q 1681 3072 1420 2755 
Q 1159 2438 1159 1844 
L 1159 0 
L 581 0 
L 581 3500 
L 1159 3500 
L 1159 2956 
Q 1341 3275 1631 3429 
Q 1922 3584 2338 3584 
Q 2397 3584 2469 3576 
Q 2541 3569 2628 3553 
L 2631 2963 
z
" transform="scale(0.015625)"/>
       <path id="DejaVuSans-61" d="M 2194 1759 
Q 1497 1759 1228 1600 
Q 959 1441 959 1056 
Q 959 750 1161 570 
Q 1363 391 1709 391 
Q 2188 391 2477 730 
Q 2766 1069 2766 1631 
L 2766 1759 
L 2194 1759 
z
M 3341 1997 
L 3341 0 
L 2766 0 
L 2766 531 
Q 2569 213 2275 61 
Q 1981 -91 1556 -91 
Q 1019 -91 701 211 
Q 384 513 384 1019 
Q 384 1609 779 1909 
Q 1175 2209 1959 2209 
L 2766 2209 
L 2766 2266 
Q 2766 2663 2505 2880 
Q 2244 3097 1772 3097 
Q 1472 3097 1187 3025 
Q 903 2953 641 2809 
L 641 3341 
Q 956 3463 1253 3523 
Q 1550 3584 1831 3584 
Q 2591 3584 2966 3190 
Q 3341 2797 3341 1997 
z
" transform="scale(0.015625)"/>
       <path id="DejaVuSans-6f" d="M 1959 3097 
Q 1497 3097 1228 2736 
Q 959 2375 959 1747 
Q 959 1119 1226 758 
Q 1494 397 1959 397 
Q 2419 397 2687 759 
Q 2956 1122 2956 1747 
Q 2956 2369 2687 2733 
Q 2419 3097 1959 3097 
z
M 1959 3584 
Q 2709 3584 3137 3096 
Q 3566 2609 3566 1747 
Q 3566 888 3137 398 
Q 2709 -91 1959 -91 
Q 1206 -91 779 398 
Q 353 888 353 1747 
Q 353 2609 779 3096 
Q 1206 3584 1959 3584 
z
" transform="scale(0.015625)"/>
       <path id="DejaVuSans-6e" d="M 3513 2113 
L 3513 0 
L 2938 0 
L 2938 2094 
Q 2938 2591 2744 2837 
Q 2550 3084 2163 3084 
Q 1697 3084 1428 2787 
Q 1159 2491 1159 1978 
L 1159 0 
L 581 0 
L 581 3500 
L 1159 3500 
L 1159 2956 
Q 1366 3272 1645 3428 
Q 1925 3584 2291 3584 
Q 2894 3584 3203 3211 
Q 3513 2838 3513 2113 
z
" transform="scale(0.015625)"/>
      </defs>
      <use xlink:href="#DejaVuSans-69"/>
      <use xlink:href="#DejaVuSans-74" x="27.783203"/>
      <use xlink:href="#DejaVuSans-65" x="66.992188"/>
      <use xlink:href="#DejaVuSans-72" x="128.515625"/>
      <use xlink:href="#DejaVuSans-61" x="169.628906"/>
      <use xlink:href="#DejaVuSans-74" x="230.908203"/>
      <use xlink:href="#DejaVuSans-69" x="270.117188"/>
      <use xlink:href="#DejaVuSans-6f" x="297.900391"/>
      <use xlink:href="#DejaVuSans-6e" x="359.082031"/>
     </g>
    </g>
   </g>
   <g id="matplotlib.axis_2">
    <g id="ytick_1">
     <g id="line2d_11">
      <defs>
       <path id="mc0f452c568" d="M 0 0 
L -3.5 0 
" style="stroke: #000000; stroke-width: 0.8"/>
      </defs>
      <g>
       <use xlink:href="#mc0f452c568" x="180" y="622.958637" style="stroke: #000000; stroke-width: 0.8"/>
      </g>
     </g>
     <g id="text_12">
      <!-- 0.2 -->
      <g transform="translate(148.717187 626.757856) scale(0.1 -0.1)">
       <defs>
        <path id="DejaVuSans-2212" d="M 678 2272 
L 4684 2272 
L 4684 1741 
L 678 1741 
L 678 2272 
z
" transform="scale(0.015625)"/>
        <path id="DejaVuSans-2e" d="M 684 794 
L 1344 794 
L 1344 0 
L 684 0 
L 684 794 
z
" transform="scale(0.015625)"/>
       </defs>
       <use xlink:href="#DejaVuSans-2212"/>
       <use xlink:href="#DejaVuSans-30" x="83.789062"/>
       <use xlink:href="#DejaVuSans-2e" x="147.412109"/>
       <use xlink:href="#DejaVuSans-32" x="179.199219"/>
      </g>
     </g>
    </g>
    <g id="ytick_2">
     <g id="line2d_12">
      <g>
       <use xlink:href="#mc0f452c568" x="180" y="534.309763" style="stroke: #000000; stroke-width: 0.8"/>
      </g>
     </g>
     <g id="text_13">
      <!-- 0.0 -->
      <g transform="translate(157.096875 538.108982) scale(0.1 -0.1)">
       <use xlink:href="#DejaVuSans-30"/>
       <use xlink:href="#DejaVuSans-2e" x="63.623047"/>
       <use xlink:href="#DejaVuSans-30" x="95.410156"/>
      </g>
     </g>
    </g>
    <g id="ytick_3">
     <g id="line2d_13">
      <g>
       <use xlink:href="#mc0f452c568" x="180" y="445.660889" style="stroke: #000000; stroke-width: 0.8"/>
      </g>
     </g>
     <g id="text_14">
      <!-- 0.2 -->
      <g transform="translate(157.096875 449.460108) scale(0.1 -0.1)">
       <use xlink:href="#DejaVuSans-30"/>
       <use xlink:href="#DejaVuSans-2e" x="63.623047"/>
       <use xlink:href="#DejaVuSans-32" x="95.410156"/>
      </g>
     </g>
    </g>
    <g id="ytick_4">
     <g id="line2d_14">
      <g>
       <use xlink:href="#mc0f452c568" x="180" y="357.012016" style="stroke: #000000; stroke-width: 0.8"/>
      </g>
     </g>
     <g id="text_15">
      <!-- 0.4 -->
      <g transform="translate(157.096875 360.811234) scale(0.1 -0.1)">
       <use xlink:href="#DejaVuSans-30"/>
       <use xlink:href="#DejaVuSans-2e" x="63.623047"/>
       <use xlink:href="#DejaVuSans-34" x="95.410156"/>
      </g>
     </g>
    </g>
    <g id="ytick_5">
     <g id="line2d_15">
      <g>
       <use xlink:href="#mc0f452c568" x="180" y="268.363142" style="stroke: #000000; stroke-width: 0.8"/>
      </g>
     </g>
     <g id="text_16">
      <!-- 0.6 -->
      <g transform="translate(157.096875 272.162361) scale(0.1 -0.1)">
       <use xlink:href="#DejaVuSans-30"/>
       <use xlink:href="#DejaVuSans-2e" x="63.623047"/>
       <use xlink:href="#DejaVuSans-36" x="95.410156"/>
      </g>
     </g>
    </g>
    <g id="ytick_6">
     <g id="line2d_16">
      <g>
       <use xlink:href="#mc0f452c568" x="180" y="179.714268" style="stroke: #000000; stroke-width: 0.8"/>
      </g>
     </g>
     <g id="text_17">
      <!-- 0.8 -->
      <g transform="translate(157.096875 183.513487) scale(0.1 -0.1)">
       <use xlink:href="#DejaVuSans-30"/>
       <use xlink:href="#DejaVuSans-2e" x="63.623047"/>
       <use xlink:href="#DejaVuSans-38" x="95.410156"/>
      </g>
     </g>
    </g>
    <g id="ytick_7">
     <g id="line2d_17">
      <g>
       <use xlink:href="#mc0f452c568" x="180" y="91.065394" style="stroke: #000000; stroke-width: 0.8"/>
      </g>
     </g>
     <g id="text_18">
      <!-- 1.0 -->
      <g transform="translate(157.096875 94.864613) scale(0.1 -0.1)">
       <use xlink:href="#DejaVuSans-31"/>
       <use xlink:href="#DejaVuSans-2e" x="63.623047"/>
       <use xlink:href="#DejaVuSans-30" x="95.410156"/>
      </g>
     </g>
    </g>
    <g id="text_19">
     <!-- final cosine similarity -->
     <g transform="translate(142.6375 416.667187) rotate(-90) scale(0.1 -0.1)">
      <defs>
       <path id="DejaVuSans-66" d="M 2375 4863 
L 2375 4384 
L 1825 4384 
Q 1516 4384 1395 4259 
Q 1275 4134 1275 3809 
L 1275 3500 
L 2222 3500 
L 2222 3053 
L 1275 3053 
L 1275 0 
L 697 0 
L 697 3053 
L 147 3053 
L 147 3500 
L 697 3500 
L 697 3744 
Q 697 4328 969 4595 
Q 1241 4863 1831 4863 
L 2375 4863 
z
" transform="scale(0.015625)"/>
       <path id="DejaVuSans-6c" d="M 603 4863 
L 1178 4863 
L 1178 0 
L 603 0 
L 603 4863 
z
" transform="scale(0.015625)"/>
       <path id="DejaVuSans-20" transform="scale(0.015625)"/>
       <path id="DejaVuSans-63" d="M 3122 3366 
L 3122 2828 
Q 2878 2963 2633 3030 
Q 2388 3097 2138 3097 
Q 1578 3097 1268 2742 
Q 959 2388 959 1747 
Q 959 1106 1268 751 
Q 1578 397 2138 397 
Q 2388 397 2633 464 
Q 2878 531 3122 666 
L 3122 134 
Q 2881 22 2623 -34 
Q 2366 -91 2075 -91 
Q 1284 -91 818 406 
Q 353 903 353 1747 
Q 353 2603 823 3093 
Q 1294 3584 2113 3584 
Q 2378 3584 2631 3529 
Q 2884 3475 3122 3366 
z
" transform="scale(0.015625)"/>
       <path id="DejaVuSans-73" d="M 2834 3397 
L 2834 2853 
Q 2591 2978 2328 3040 
Q 2066 3103 1784 3103 
Q 1356 3103 1142 2972 
Q 928 2841 928 2578 
Q 928 2378 1081 2264 
Q 1234 2150 1697 2047 
L 1894 2003 
Q 2506 1872 2764 1633 
Q 3022 1394 3022 966 
Q 3022 478 2636 193 
Q 2250 -91 1575 -91 
Q 1294 -91 989 -36 
Q 684 19 347 128 
L 347 722 
Q 666 556 975 473 
Q 1284 391 1588 391 
Q 1994 391 2212 530 
Q 2431 669 2431 922 
Q 2431 1156 2273 1281 
Q 2116 1406 1581 1522 
L 1381 1569 
Q 847 1681 609 1914 
Q 372 2147 372 2553 
Q 372 3047 722 3315 
Q 1072 3584 1716 3584 
Q 2034 3584 2315 3537 
Q 2597 3491 2834 3397 
z
" transform="scale(0.015625)"/>
       <path id="DejaVuSans-6d" d="M 3328 2828 
Q 3544 3216 3844 3400 
Q 4144 3584 4550 3584 
Q 5097 3584 5394 3201 
Q 5691 2819 5691 2113 
L 5691 0 
L 5113 0 
L 5113 2094 
Q 5113 2597 4934 2840 
Q 4756 3084 4391 3084 
Q 3944 3084 3684 2787 
Q 3425 2491 3425 1978 
L 3425 0 
L 2847 0 
L 2847 2094 
Q 2847 2600 2669 2842 
Q 2491 3084 2119 3084 
Q 1678 3084 1418 2786 
Q 1159 2488 1159 1978 
L 1159 0 
L 581 0 
L 581 3500 
L 1159 3500 
L 1159 2956 
Q 1356 3278 1631 3431 
Q 1906 3584 2284 3584 
Q 2666 3584 2933 3390 
Q 3200 3197 3328 2828 
z
" transform="scale(0.015625)"/>
       <path id="DejaVuSans-79" d="M 2059 -325 
Q 1816 -950 1584 -1140 
Q 1353 -1331 966 -1331 
L 506 -1331 
L 506 -850 
L 844 -850 
Q 1081 -850 1212 -737 
Q 1344 -625 1503 -206 
L 1606 56 
L 191 3500 
L 800 3500 
L 1894 763 
L 2988 3500 
L 3597 3500 
L 2059 -325 
z
" transform="scale(0.015625)"/>
      </defs>
      <use xlink:href="#DejaVuSans-66"/>
      <use xlink:href="#DejaVuSans-69" x="35.205078"/>
      <use xlink:href="#DejaVuSans-6e" x="62.988281"/>
      <use xlink:href="#DejaVuSans-61" x="126.367188"/>
      <use xlink:href="#DejaVuSans-6c" x="187.646484"/>
      <use xlink:href="#DejaVuSans-20" x="215.429688"/>
      <use xlink:href="#DejaVuSans-63" x="247.216797"/>
      <use xlink:href="#DejaVuSans-6f" x="302.197266"/>
      <use xlink:href="#DejaVuSans-73" x="363.378906"/>
      <use xlink:href="#DejaVuSans-69" x="415.478516"/>
      <use xlink:href="#DejaVuSans-6e" x="443.261719"/>
      <use xlink:href="#DejaVuSans-65" x="506.640625"/>
      <use xlink:href="#DejaVuSans-20" x="568.164062"/>
      <use xlink:href="#DejaVuSans-73" x="599.951172"/>
      <use xlink:href="#DejaVuSans-69" x="652.050781"/>
      <use xlink:href="#DejaVuSans-6d" x="679.833984"/>
      <use xlink:href="#DejaVuSans-69" x="777.246094"/>
      <use xlink:href="#DejaVuSans-6c" x="805.029297"/>
      <use xlink:href="#DejaVuSans-61" x="832.8125"/>
      <use xlink:href="#DejaVuSans-72" x="894.091797"/>
      <use xlink:href="#DejaVuSans-69" x="935.205078"/>
      <use xlink:href="#DejaVuSans-74" x="962.988281"/>
      <use xlink:href="#DejaVuSans-79" x="1002.197266"/>
     </g>
    </g>
   </g>
   <g id="line2d_18">
    <path d="M 235.8 582.360304 
L 235.8 262.821789 
" clip-path="url(#p9304449c53)" style="fill: none; stroke: #3f3f3f; stroke-width: 1.875; stroke-linecap: square"/>
   </g>
   <g id="line2d_19">
    <path d="M 235.8 469.41776 
L 235.8 386.738702 
" clip-path="url(#p9304449c53)" style="fill: none; stroke: #3f3f3f; stroke-width: 5.625; stroke-linecap: square"/>
   </g>
   <g id="line2d_20">
    <path d="M 235.8 431.4659 
" clip-path="url(#p9304449c53)" style="fill: none; stroke: #3f3f3f; stroke-width: 1.5; stroke-linecap: square"/>
    <defs>
     <path id="m503e394dfe" d="M 2.34375 0 
L -2.34375 -0 
" style="stroke: #ffffff; stroke-width: 1.125"/>
    </defs>
    <g clip-path="url(#p9304449c53)">
     <use xlink:href="#m503e394dfe" x="235.8" y="431.4659" style="fill: #ffffff; stroke: #ffffff; stroke-width: 1.125"/>
    </g>
   </g>
   <g id="line2d_21">
    <path d="M 347.4 578.885965 
L 347.4 247.065959 
" clip-path="url(#p9304449c53)" style="fill: none; stroke: #3f3f3f; stroke-width: 1.875; stroke-linecap: square"/>
   </g>
   <g id="line2d_22">
    <path d="M 347.4 459.647227 
L 347.4 374.39061 
" clip-path="url(#p9304449c53)" style="fill: none; stroke: #3f3f3f; stroke-width: 5.625; stroke-linecap: square"/>
   </g>
   <g id="line2d_23">
    <path d="M 347.4 419.984491 
" clip-path="url(#p9304449c53)" style="fill: none; stroke: #3f3f3f; stroke-width: 1.5; stroke-linecap: square"/>
    <g clip-path="url(#p9304449c53)">
     <use xlink:href="#m503e394dfe" x="347.4" y="419.984491" style="fill: #ffffff; stroke: #ffffff; stroke-width: 1.125"/>
    </g>
   </g>
   <g id="line2d_24">
    <path d="M 459 577.480957 
L 459 240.153 
" clip-path="url(#p9304449c53)" style="fill: none; stroke: #3f3f3f; stroke-width: 1.875; stroke-linecap: square"/>
   </g>
   <g id="line2d_25">
    <path d="M 459 452.155933 
L 459 367.316232 
" clip-path="url(#p9304449c53)" style="fill: none; stroke: #3f3f3f; stroke-width: 5.625; stroke-linecap: square"/>
   </g>
   <g id="line2d_26">
    <path d="M 459 411.65199 
" clip-path="url(#p9304449c53)" style="fill: none; stroke: #3f3f3f; stroke-width: 1.5; stroke-linecap: square"/>
    <g clip-path="url(#p9304449c53)">
     <use xlink:href="#m503e394dfe" x="459" y="411.65199" style="fill: #ffffff; stroke: #ffffff; stroke-width: 1.125"/>
    </g>
   </g>
   <g id="line2d_27">
    <path d="M 570.6 573.819026 
L 570.6 233.482782 
" clip-path="url(#p9304449c53)" style="fill: none; stroke: #3f3f3f; stroke-width: 1.875; stroke-linecap: square"/>
   </g>
   <g id="line2d_28">
    <path d="M 570.6 446.591207 
L 570.6 361.219339 
" clip-path="url(#p9304449c53)" style="fill: none; stroke: #3f3f3f; stroke-width: 5.625; stroke-linecap: square"/>
   </g>
   <g id="line2d_29">
    <path d="M 570.6 406.062704 
" clip-path="url(#p9304449c53)" style="fill: none; stroke: #3f3f3f; stroke-width: 1.5; stroke-linecap: square"/>
    <g clip-path="url(#p9304449c53)">
     <use xlink:href="#m503e394dfe" x="570.6" y="406.062704" style="fill: #ffffff; stroke: #ffffff; stroke-width: 1.125"/>
    </g>
   </g>
   <g id="line2d_30">
    <path d="M 682.2 567.790259 
L 682.2 230.576672 
" clip-path="url(#p9304449c53)" style="fill: none; stroke: #3f3f3f; stroke-width: 1.875; stroke-linecap: square"/>
   </g>
   <g id="line2d_31">
    <path d="M 682.2 441.658104 
L 682.2 357.059971 
" clip-path="url(#p9304449c53)" style="fill: none; stroke: #3f3f3f; stroke-width: 5.625; stroke-linecap: square"/>
   </g>
   <g id="line2d_32">
    <path d="M 682.2 401.138401 
" clip-path="url(#p9304449c53)" style="fill: none; stroke: #3f3f3f; stroke-width: 1.5; stroke-linecap: square"/>
    <g clip-path="url(#p9304449c53)">
     <use xlink:href="#m503e394dfe" x="682.2" y="401.138401" style="fill: #ffffff; stroke: #ffffff; stroke-width: 1.125"/>
    </g>
   </g>
   <g id="line2d_33">
    <path d="M 793.8 560.831846 
L 793.8 233.999388 
" clip-path="url(#p9304449c53)" style="fill: none; stroke: #3f3f3f; stroke-width: 1.875; stroke-linecap: square"/>
   </g>
   <g id="line2d_34">
    <path d="M 793.8 439.119784 
L 793.8 357.07001 
" clip-path="url(#p9304449c53)" style="fill: none; stroke: #3f3f3f; stroke-width: 5.625; stroke-linecap: square"/>
   </g>
   <g id="line2d_35">
    <path d="M 793.8 399.385763 
" clip-path="url(#p9304449c53)" style="fill: none; stroke: #3f3f3f; stroke-width: 1.5; stroke-linecap: square"/>
    <g clip-path="url(#p9304449c53)">
     <use xlink:href="#m503e394dfe" x="793.8" y="399.385763" style="fill: #ffffff; stroke: #ffffff; stroke-width: 1.125"/>
    </g>
   </g>
   <g id="line2d_36">
    <path d="M 905.4 558.437168 
L 905.4 229.584596 
" clip-path="url(#p9304449c53)" style="fill: none; stroke: #3f3f3f; stroke-width: 1.875; stroke-linecap: square"/>
   </g>
   <g id="line2d_37">
    <path d="M 905.4 435.786891 
L 905.4 353.257866 
" clip-path="url(#p9304449c53)" style="fill: none; stroke: #3f3f3f; stroke-width: 5.625; stroke-linecap: square"/>
   </g>
   <g id="line2d_38">
    <path d="M 905.4 394.877063 
" clip-path="url(#p9304449c53)" style="fill: none; stroke: #3f3f3f; stroke-width: 1.5; stroke-linecap: square"/>
    <g clip-path="url(#p9304449c53)">
     <use xlink:href="#m503e394dfe" x="905.4" y="394.877063" style="fill: #ffffff; stroke: #ffffff; stroke-width: 1.125"/>
    </g>
   </g>
   <g id="line2d_39">
    <path d="M 1017 560.831846 
L 1017 227.239186 
" clip-path="url(#p9304449c53)" style="fill: none; stroke: #3f3f3f; stroke-width: 1.875; stroke-linecap: square"/>
   </g>
   <g id="line2d_40">
    <path d="M 1017 436.273558 
L 1017 352.489503 
" clip-path="url(#p9304449c53)" style="fill: none; stroke: #3f3f3f; stroke-width: 5.625; stroke-linecap: square"/>
   </g>
   <g id="line2d_41">
    <path d="M 1017 394.607968 
" clip-path="url(#p9304449c53)" style="fill: none; stroke: #3f3f3f; stroke-width: 1.5; stroke-linecap: square"/>
    <g clip-path="url(#p9304449c53)">
     <use xlink:href="#m503e394dfe" x="1017" y="394.607968" style="fill: #ffffff; stroke: #ffffff; stroke-width: 1.125"/>
    </g>
   </g>
   <g id="line2d_42">
    <path d="M 1128.6 565.211525 
L 1128.6 226.632464 
" clip-path="url(#p9304449c53)" style="fill: none; stroke: #3f3f3f; stroke-width: 1.875; stroke-linecap: square"/>
   </g>
   <g id="line2d_43">
    <path d="M 1128.6 439.07748 
L 1128.6 354.050158 
" clip-path="url(#p9304449c53)" style="fill: none; stroke: #3f3f3f; stroke-width: 5.625; stroke-linecap: square"/>
   </g>
   <g id="line2d_44">
    <path d="M 1128.6 396.85494 
" clip-path="url(#p9304449c53)" style="fill: none; stroke: #3f3f3f; stroke-width: 1.5; stroke-linecap: square"/>
    <g clip-path="url(#p9304449c53)">
     <use xlink:href="#m503e394dfe" x="1128.6" y="396.85494" style="fill: #ffffff; stroke: #ffffff; stroke-width: 1.125"/>
    </g>
   </g>
   <g id="line2d_45">
    <path d="M 1240.2 565.211525 
L 1240.2 223.419148 
" clip-path="url(#p9304449c53)" style="fill: none; stroke: #3f3f3f; stroke-width: 1.875; stroke-linecap: square"/>
   </g>
   <g id="line2d_46">
    <path d="M 1240.2 437.26377 
L 1240.2 351.692419 
" clip-path="url(#p9304449c53)" style="fill: none; stroke: #3f3f3f; stroke-width: 5.625; stroke-linecap: square"/>
   </g>
   <g id="line2d_47">
    <path d="M 1240.2 394.671851 
" clip-path="url(#p9304449c53)" style="fill: none; stroke: #3f3f3f; stroke-width: 1.5; stroke-linecap: square"/>
    <g clip-path="url(#p9304449c53)">
     <use xlink:href="#m503e394dfe" x="1240.2" y="394.671851" style="fill: #ffffff; stroke: #ffffff; stroke-width: 1.125"/>
    </g>
   </g>
   <g id="patch_3">
    <path d="M 180 640.8 
L 180 86.4 
" style="fill: none; stroke: #000000; stroke-width: 0.8; stroke-linejoin: miter; stroke-linecap: square"/>
   </g>
   <g id="patch_4">
    <path d="M 1296 640.8 
L 1296 86.4 
" style="fill: none; stroke: #000000; stroke-width: 0.8; stroke-linejoin: miter; stroke-linecap: square"/>
   </g>
   <g id="patch_5">
    <path d="M 180 640.8 
L 1296 640.8 
" style="fill: none; stroke: #000000; stroke-width: 0.8; stroke-linejoin: miter; stroke-linecap: square"/>
   </g>
   <g id="patch_6">
    <path d="M 180 86.4 
L 1296 86.4 
" style="fill: none; stroke: #000000; stroke-width: 0.8; stroke-linejoin: miter; stroke-linecap: square"/>
   </g>
   <g id="text_20">
    <!-- final cosine similarity of max_mem_5_fs_glit (betweenFinalsVariety), by iteration -->
    <g transform="translate(496.755938 80.4) scale(0.12 -0.12)">
     <defs>
      <path id="DejaVuSans-78" d="M 3513 3500 
L 2247 1797 
L 3578 0 
L 2900 0 
L 1881 1375 
L 863 0 
L 184 0 
L 1544 1831 
L 300 3500 
L 978 3500 
L 1906 2253 
L 2834 3500 
L 3513 3500 
z
" transform="scale(0.015625)"/>
      <path id="DejaVuSans-5f" d="M 3263 -1063 
L 3263 -1509 
L -63 -1509 
L -63 -1063 
L 3263 -1063 
z
" transform="scale(0.015625)"/>
      <path id="DejaVuSans-67" d="M 2906 1791 
Q 2906 2416 2648 2759 
Q 2391 3103 1925 3103 
Q 1463 3103 1205 2759 
Q 947 2416 947 1791 
Q 947 1169 1205 825 
Q 1463 481 1925 481 
Q 2391 481 2648 825 
Q 2906 1169 2906 1791 
z
M 3481 434 
Q 3481 -459 3084 -895 
Q 2688 -1331 1869 -1331 
Q 1566 -1331 1297 -1286 
Q 1028 -1241 775 -1147 
L 775 -588 
Q 1028 -725 1275 -790 
Q 1522 -856 1778 -856 
Q 2344 -856 2625 -561 
Q 2906 -266 2906 331 
L 2906 616 
Q 2728 306 2450 153 
Q 2172 0 1784 0 
Q 1141 0 747 490 
Q 353 981 353 1791 
Q 353 2603 747 3093 
Q 1141 3584 1784 3584 
Q 2172 3584 2450 3431 
Q 2728 3278 2906 2969 
L 2906 3500 
L 3481 3500 
L 3481 434 
z
" transform="scale(0.015625)"/>
      <path id="DejaVuSans-28" d="M 1984 4856 
Q 1566 4138 1362 3434 
Q 1159 2731 1159 2009 
Q 1159 1288 1364 580 
Q 1569 -128 1984 -844 
L 1484 -844 
Q 1016 -109 783 600 
Q 550 1309 550 2009 
Q 550 2706 781 3412 
Q 1013 4119 1484 4856 
L 1984 4856 
z
" transform="scale(0.015625)"/>
      <path id="DejaVuSans-62" d="M 3116 1747 
Q 3116 2381 2855 2742 
Q 2594 3103 2138 3103 
Q 1681 3103 1420 2742 
Q 1159 2381 1159 1747 
Q 1159 1113 1420 752 
Q 1681 391 2138 391 
Q 2594 391 2855 752 
Q 3116 1113 3116 1747 
z
M 1159 2969 
Q 1341 3281 1617 3432 
Q 1894 3584 2278 3584 
Q 2916 3584 3314 3078 
Q 3713 2572 3713 1747 
Q 3713 922 3314 415 
Q 2916 -91 2278 -91 
Q 1894 -91 1617 61 
Q 1341 213 1159 525 
L 1159 0 
L 581 0 
L 581 4863 
L 1159 4863 
L 1159 2969 
z
" transform="scale(0.015625)"/>
      <path id="DejaVuSans-77" d="M 269 3500 
L 844 3500 
L 1563 769 
L 2278 3500 
L 2956 3500 
L 3675 769 
L 4391 3500 
L 4966 3500 
L 4050 0 
L 3372 0 
L 2619 2869 
L 1863 0 
L 1184 0 
L 269 3500 
z
" transform="scale(0.015625)"/>
      <path id="DejaVuSans-46" d="M 628 4666 
L 3309 4666 
L 3309 4134 
L 1259 4134 
L 1259 2759 
L 3109 2759 
L 3109 2228 
L 1259 2228 
L 1259 0 
L 628 0 
L 628 4666 
z
" transform="scale(0.015625)"/>
      <path id="DejaVuSans-56" d="M 1831 0 
L 50 4666 
L 709 4666 
L 2188 738 
L 3669 4666 
L 4325 4666 
L 2547 0 
L 1831 0 
z
" transform="scale(0.015625)"/>
      <path id="DejaVuSans-29" d="M 513 4856 
L 1013 4856 
Q 1481 4119 1714 3412 
Q 1947 2706 1947 2009 
Q 1947 1309 1714 600 
Q 1481 -109 1013 -844 
L 513 -844 
Q 928 -128 1133 580 
Q 1338 1288 1338 2009 
Q 1338 2731 1133 3434 
Q 928 4138 513 4856 
z
" transform="scale(0.015625)"/>
      <path id="DejaVuSans-2c" d="M 750 794 
L 1409 794 
L 1409 256 
L 897 -744 
L 494 -744 
L 750 256 
L 750 794 
z
" transform="scale(0.015625)"/>
     </defs>
     <use xlink:href="#DejaVuSans-66"/>
     <use xlink:href="#DejaVuSans-69" x="35.205078"/>
     <use xlink:href="#DejaVuSans-6e" x="62.988281"/>
     <use xlink:href="#DejaVuSans-61" x="126.367188"/>
     <use xlink:href="#DejaVuSans-6c" x="187.646484"/>
     <use xlink:href="#DejaVuSans-20" x="215.429688"/>
     <use xlink:href="#DejaVuSans-63" x="247.216797"/>
     <use xlink:href="#DejaVuSans-6f" x="302.197266"/>
     <use xlink:href="#DejaVuSans-73" x="363.378906"/>
     <use xlink:href="#DejaVuSans-69" x="415.478516"/>
     <use xlink:href="#DejaVuSans-6e" x="443.261719"/>
     <use xlink:href="#DejaVuSans-65" x="506.640625"/>
     <use xlink:href="#DejaVuSans-20" x="568.164062"/>
     <use xlink:href="#DejaVuSans-73" x="599.951172"/>
     <use xlink:href="#DejaVuSans-69" x="652.050781"/>
     <use xlink:href="#DejaVuSans-6d" x="679.833984"/>
     <use xlink:href="#DejaVuSans-69" x="777.246094"/>
     <use xlink:href="#DejaVuSans-6c" x="805.029297"/>
     <use xlink:href="#DejaVuSans-61" x="832.8125"/>
     <use xlink:href="#DejaVuSans-72" x="894.091797"/>
     <use xlink:href="#DejaVuSans-69" x="935.205078"/>
     <use xlink:href="#DejaVuSans-74" x="962.988281"/>
     <use xlink:href="#DejaVuSans-79" x="1002.197266"/>
     <use xlink:href="#DejaVuSans-20" x="1061.376953"/>
     <use xlink:href="#DejaVuSans-6f" x="1093.164062"/>
     <use xlink:href="#DejaVuSans-66" x="1154.345703"/>
     <use xlink:href="#DejaVuSans-20" x="1189.550781"/>
     <use xlink:href="#DejaVuSans-6d" x="1221.337891"/>
     <use xlink:href="#DejaVuSans-61" x="1318.75"/>
     <use xlink:href="#DejaVuSans-78" x="1380.029297"/>
     <use xlink:href="#DejaVuSans-5f" x="1439.208984"/>
     <use xlink:href="#DejaVuSans-6d" x="1489.208984"/>
     <use xlink:href="#DejaVuSans-65" x="1586.621094"/>
     <use xlink:href="#DejaVuSans-6d" x="1648.144531"/>
     <use xlink:href="#DejaVuSans-5f" x="1745.556641"/>
     <use xlink:href="#DejaVuSans-35" x="1795.556641"/>
     <use xlink:href="#DejaVuSans-5f" x="1859.179688"/>
     <use xlink:href="#DejaVuSans-66" x="1909.179688"/>
     <use xlink:href="#DejaVuSans-73" x="1944.384766"/>
     <use xlink:href="#DejaVuSans-5f" x="1996.484375"/>
     <use xlink:href="#DejaVuSans-67" x="2046.484375"/>
     <use xlink:href="#DejaVuSans-6c" x="2109.960938"/>
     <use xlink:href="#DejaVuSans-69" x="2137.744141"/>
     <use xlink:href="#DejaVuSans-74" x="2165.527344"/>
     <use xlink:href="#DejaVuSans-20" x="2204.736328"/>
     <use xlink:href="#DejaVuSans-28" x="2236.523438"/>
     <use xlink:href="#DejaVuSans-62" x="2275.537109"/>
     <use xlink:href="#DejaVuSans-65" x="2339.013672"/>
     <use xlink:href="#DejaVuSans-74" x="2400.537109"/>
     <use xlink:href="#DejaVuSans-77" x="2439.746094"/>
     <use xlink:href="#DejaVuSans-65" x="2521.533203"/>
     <use xlink:href="#DejaVuSans-65" x="2583.056641"/>
     <use xlink:href="#DejaVuSans-6e" x="2644.580078"/>
     <use xlink:href="#DejaVuSans-46" x="2707.958984"/>
     <use xlink:href="#DejaVuSans-69" x="2758.228516"/>
     <use xlink:href="#DejaVuSans-6e" x="2786.011719"/>
     <use xlink:href="#DejaVuSans-61" x="2849.390625"/>
     <use xlink:href="#DejaVuSans-6c" x="2910.669922"/>
     <use xlink:href="#DejaVuSans-73" x="2938.453125"/>
     <use xlink:href="#DejaVuSans-56" x="2990.552734"/>
     <use xlink:href="#DejaVuSans-61" x="3051.210938"/>
     <use xlink:href="#DejaVuSans-72" x="3112.490234"/>
     <use xlink:href="#DejaVuSans-69" x="3153.603516"/>
     <use xlink:href="#DejaVuSans-65" x="3181.386719"/>
     <use xlink:href="#DejaVuSans-74" x="3242.910156"/>
     <use xlink:href="#DejaVuSans-79" x="3282.119141"/>
     <use xlink:href="#DejaVuSans-29" x="3341.298828"/>
     <use xlink:href="#DejaVuSans-2c" x="3380.3125"/>
     <use xlink:href="#DejaVuSans-20" x="3412.099609"/>
     <use xlink:href="#DejaVuSans-62" x="3443.886719"/>
     <use xlink:href="#DejaVuSans-79" x="3507.363281"/>
     <use xlink:href="#DejaVuSans-20" x="3566.542969"/>
     <use xlink:href="#DejaVuSans-69" x="3598.330078"/>
     <use xlink:href="#DejaVuSans-74" x="3626.113281"/>
     <use xlink:href="#DejaVuSans-65" x="3665.322266"/>
     <use xlink:href="#DejaVuSans-72" x="3726.845703"/>
     <use xlink:href="#DejaVuSans-61" x="3767.958984"/>
     <use xlink:href="#DejaVuSans-74" x="3829.238281"/>
     <use xlink:href="#DejaVuSans-69" x="3868.447266"/>
     <use xlink:href="#DejaVuSans-6f" x="3896.230469"/>
     <use xlink:href="#DejaVuSans-6e" x="3957.412109"/>
    </g>
   </g>
  </g>
 </g>
 <defs>
  <clipPath id="p9304449c53">
   <rect x="180" y="86.4" width="1116" height="554.4"/>
  </clipPath>
 </defs>
</svg>
