<?xml version="1.0" encoding="utf-8" standalone="no"?>
<!DOCTYPE svg PUBLIC "-//W3C//DTD SVG 1.1//EN"
  "http://www.w3.org/Graphics/SVG/1.1/DTD/svg11.dtd">
<svg xmlns:xlink="http://www.w3.org/1999/xlink" width="1440pt" height="720pt" viewBox="0 0 1440 720" xmlns="http://www.w3.org/2000/svg" version="1.1">
 <metadata>
  <rdf:RDF xmlns:dc="http://purl.org/dc/elements/1.1/" xmlns:cc="http://creativecommons.org/ns#" xmlns:rdf="http://www.w3.org/1999/02/22-rdf-syntax-ns#">
   <cc:Work>
    <dc:type rdf:resource="http://purl.org/dc/dcmitype/StillImage"/>
    <dc:date>2024-07-24T19:56:29.826139</dc:date>
    <dc:format>image/svg+xml</dc:format>
    <dc:creator>
     <cc:Agent>
      <dc:title>Matplotlib v3.8.0, https://matplotlib.org/</dc:title>
     </cc:Agent>
    </dc:creator>
   </cc:Work>
  </rdf:RDF>
 </metadata>
 <defs>
  <style type="text/css">*{stroke-linejoin: round; stroke-linecap: butt}</style>
 </defs>
 <g id="figure_1">
  <g id="patch_1">
   <path d="M 0 720 
L 1440 720 
L 1440 0 
L 0 0 
z
" style="fill: #ffffff"/>
  </g>
  <g id="axes_1">
   <g id="patch_2">
    <path d="M 180 640.8 
L 1296 640.8 
L 1296 86.4 
L 180 86.4 
z
" style="fill: #ffffff"/>
   </g>
   <g id="PathCollection_1">
    <defs>
     <path id="C0_0_adbb611959" d="M 0 3 
C 0.795609 3 1.55874 2.683901 2.12132 2.12132 
C 2.683901 1.55874 3 0.795609 3 -0 
C 3 -0.795609 2.683901 -1.55874 2.12132 -2.12132 
C 1.55874 -2.683901 0.795609 -3 0 -3 
C -0.795609 -3 -1.55874 -2.683901 -2.12132 -2.12132 
C -2.683901 -1.55874 -3 -0.795609 -3 0 
C -3 0.795609 -2.683901 1.55874 -2.12132 2.12132 
C -1.55874 2.683901 -0.795609 3 0 3 
z
"/>
    </defs>
    <g clip-path="url(#p40af605b52)">
     <use xlink:href="#C0_0_adbb611959" x="496.918704" y="254.275664" style="fill: #1f77b4; stroke: #ffffff; stroke-width: 0.48"/>
    </g>
    <g clip-path="url(#p40af605b52)">
     <use xlink:href="#C0_0_adbb611959" x="429.808063" y="254.743815" style="fill: #1f77b4; stroke: #ffffff; stroke-width: 0.48"/>
    </g>
    <g clip-path="url(#p40af605b52)">
     <use xlink:href="#C0_0_adbb611959" x="401.877915" y="485.665067" style="fill: #1f77b4; stroke: #ffffff; stroke-width: 0.48"/>
    </g>
    <g clip-path="url(#p40af605b52)">
     <use xlink:href="#C0_0_adbb611959" x="554.16269" y="422.571899" style="fill: #1f77b4; stroke: #ffffff; stroke-width: 0.48"/>
    </g>
    <g clip-path="url(#p40af605b52)">
     <use xlink:href="#C0_0_adbb611959" x="996.67216" y="455.37844" style="fill: #1f77b4; stroke: #ffffff; stroke-width: 0.48"/>
    </g>
    <g clip-path="url(#p40af605b52)">
     <use xlink:href="#C0_0_adbb611959" x="768.684629" y="287.087494" style="fill: #1f77b4; stroke: #ffffff; stroke-width: 0.48"/>
    </g>
    <g clip-path="url(#p40af605b52)">
     <use xlink:href="#C0_0_adbb611959" x="744.03554" y="336.855964" style="fill: #1f77b4; stroke: #ffffff; stroke-width: 0.48"/>
    </g>
    <g clip-path="url(#p40af605b52)">
     <use xlink:href="#C0_0_adbb611959" x="648.87899" y="234.670455" style="fill: #1f77b4; stroke: #ffffff; stroke-width: 0.48"/>
    </g>
    <g clip-path="url(#p40af605b52)">
     <use xlink:href="#C0_0_adbb611959" x="428.885438" y="551.096309" style="fill: #1f77b4; stroke: #ffffff; stroke-width: 0.48"/>
    </g>
    <g clip-path="url(#p40af605b52)">
     <use xlink:href="#C0_0_adbb611959" x="630.24417" y="341.694762" style="fill: #1f77b4; stroke: #ffffff; stroke-width: 0.48"/>
    </g>
    <g clip-path="url(#p40af605b52)">
     <use xlink:href="#C0_0_adbb611959" x="685.221829" y="314.406807" style="fill: #1f77b4; stroke: #ffffff; stroke-width: 0.48"/>
    </g>
    <g clip-path="url(#p40af605b52)">
     <use xlink:href="#C0_0_adbb611959" x="977.128506" y="147.745688" style="fill: #1f77b4; stroke: #ffffff; stroke-width: 0.48"/>
    </g>
    <g clip-path="url(#p40af605b52)">
     <use xlink:href="#C0_0_adbb611959" x="410.504236" y="201.849161" style="fill: #1f77b4; stroke: #ffffff; stroke-width: 0.48"/>
    </g>
    <g clip-path="url(#p40af605b52)">
     <use xlink:href="#C0_0_adbb611959" x="400.913233" y="463.823344" style="fill: #1f77b4; stroke: #ffffff; stroke-width: 0.48"/>
    </g>
    <g clip-path="url(#p40af605b52)">
     <use xlink:href="#C0_0_adbb611959" x="377.860928" y="416.892271" style="fill: #1f77b4; stroke: #ffffff; stroke-width: 0.48"/>
    </g>
    <g clip-path="url(#p40af605b52)">
     <use xlink:href="#C0_0_adbb611959" x="366.360648" y="235.643407" style="fill: #1f77b4; stroke: #ffffff; stroke-width: 0.48"/>
    </g>
    <g clip-path="url(#p40af605b52)">
     <use xlink:href="#C0_0_adbb611959" x="351.622557" y="282.006959" style="fill: #1f77b4; stroke: #ffffff; stroke-width: 0.48"/>
    </g>
    <g clip-path="url(#p40af605b52)">
     <use xlink:href="#C0_0_adbb611959" x="734.831487" y="259.211168" style="fill: #1f77b4; stroke: #ffffff; stroke-width: 0.48"/>
    </g>
    <g clip-path="url(#p40af605b52)">
     <use xlink:href="#C0_0_adbb611959" x="549.017386" y="201.906638" style="fill: #1f77b4; stroke: #ffffff; stroke-width: 0.48"/>
    </g>
    <g clip-path="url(#p40af605b52)">
     <use xlink:href="#C0_0_adbb611959" x="572.599863" y="512.179686" style="fill: #1f77b4; stroke: #ffffff; stroke-width: 0.48"/>
    </g>
    <g clip-path="url(#p40af605b52)">
     <use xlink:href="#C0_0_adbb611959" x="1093.874873" y="298.283174" style="fill: #1f77b4; stroke: #ffffff; stroke-width: 0.48"/>
    </g>
    <g clip-path="url(#p40af605b52)">
     <use xlink:href="#C0_0_adbb611959" x="549.247898" y="353.877397" style="fill: #1f77b4; stroke: #ffffff; stroke-width: 0.48"/>
    </g>
    <g clip-path="url(#p40af605b52)">
     <use xlink:href="#C0_0_adbb611959" x="679.610493" y="183.874036" style="fill: #1f77b4; stroke: #ffffff; stroke-width: 0.48"/>
    </g>
    <g clip-path="url(#p40af605b52)">
     <use xlink:href="#C0_0_adbb611959" x="779.704252" y="300.742548" style="fill: #1f77b4; stroke: #ffffff; stroke-width: 0.48"/>
    </g>
    <g clip-path="url(#p40af605b52)">
     <use xlink:href="#C0_0_adbb611959" x="418.028132" y="173.052447" style="fill: #1f77b4; stroke: #ffffff; stroke-width: 0.48"/>
    </g>
    <g clip-path="url(#p40af605b52)">
     <use xlink:href="#C0_0_adbb611959" x="230.727273" y="385.170104" style="fill: #1f77b4; stroke: #ffffff; stroke-width: 0.48"/>
    </g>
    <g clip-path="url(#p40af605b52)">
     <use xlink:href="#C0_0_adbb611959" x="891.903876" y="514.515932" style="fill: #1f77b4; stroke: #ffffff; stroke-width: 0.48"/>
    </g>
    <g clip-path="url(#p40af605b52)">
     <use xlink:href="#C0_0_adbb611959" x="516.461388" y="404.828543" style="fill: #1f77b4; stroke: #ffffff; stroke-width: 0.48"/>
    </g>
    <g clip-path="url(#p40af605b52)">
     <use xlink:href="#C0_0_adbb611959" x="407.167543" y="332.172429" style="fill: #1f77b4; stroke: #ffffff; stroke-width: 0.48"/>
    </g>
    <g clip-path="url(#p40af605b52)">
     <use xlink:href="#C0_0_adbb611959" x="447.494604" y="298.02932" style="fill: #1f77b4; stroke: #ffffff; stroke-width: 0.48"/>
    </g>
    <g clip-path="url(#p40af605b52)">
     <use xlink:href="#C0_0_adbb611959" x="733.878924" y="532.118292" style="fill: #1f77b4; stroke: #ffffff; stroke-width: 0.48"/>
    </g>
    <g clip-path="url(#p40af605b52)">
     <use xlink:href="#C0_0_adbb611959" x="750.593938" y="365.393618" style="fill: #1f77b4; stroke: #ffffff; stroke-width: 0.48"/>
    </g>
    <g clip-path="url(#p40af605b52)">
     <use xlink:href="#C0_0_adbb611959" x="877.256078" y="490.30947" style="fill: #1f77b4; stroke: #ffffff; stroke-width: 0.48"/>
    </g>
    <g clip-path="url(#p40af605b52)">
     <use xlink:href="#C0_0_adbb611959" x="379.557174" y="211.860684" style="fill: #1f77b4; stroke: #ffffff; stroke-width: 0.48"/>
    </g>
    <g clip-path="url(#p40af605b52)">
     <use xlink:href="#C0_0_adbb611959" x="570.493371" y="201.87584" style="fill: #1f77b4; stroke: #ffffff; stroke-width: 0.48"/>
    </g>
    <g clip-path="url(#p40af605b52)">
     <use xlink:href="#C0_0_adbb611959" x="610.614465" y="379.384285" style="fill: #1f77b4; stroke: #ffffff; stroke-width: 0.48"/>
    </g>
    <g clip-path="url(#p40af605b52)">
     <use xlink:href="#C0_0_adbb611959" x="1045.87469" y="450.790099" style="fill: #1f77b4; stroke: #ffffff; stroke-width: 0.48"/>
    </g>
    <g clip-path="url(#p40af605b52)">
     <use xlink:href="#C0_0_adbb611959" x="504.931193" y="289.246275" style="fill: #1f77b4; stroke: #ffffff; stroke-width: 0.48"/>
    </g>
    <g clip-path="url(#p40af605b52)">
     <use xlink:href="#C0_0_adbb611959" x="612.176986" y="371.896095" style="fill: #1f77b4; stroke: #ffffff; stroke-width: 0.48"/>
    </g>
    <g clip-path="url(#p40af605b52)">
     <use xlink:href="#C0_0_adbb611959" x="1101.84393" y="285.202073" style="fill: #1f77b4; stroke: #ffffff; stroke-width: 0.48"/>
    </g>
    <g clip-path="url(#p40af605b52)">
     <use xlink:href="#C0_0_adbb611959" x="524.471483" y="291.615312" style="fill: #1f77b4; stroke: #ffffff; stroke-width: 0.48"/>
    </g>
    <g clip-path="url(#p40af605b52)">
     <use xlink:href="#C0_0_adbb611959" x="666.086767" y="547.211037" style="fill: #1f77b4; stroke: #ffffff; stroke-width: 0.48"/>
    </g>
    <g clip-path="url(#p40af605b52)">
     <use xlink:href="#C0_0_adbb611959" x="665.313094" y="294.162206" style="fill: #1f77b4; stroke: #ffffff; stroke-width: 0.48"/>
    </g>
    <g clip-path="url(#p40af605b52)">
     <use xlink:href="#C0_0_adbb611959" x="776.502518" y="403.343388" style="fill: #1f77b4; stroke: #ffffff; stroke-width: 0.48"/>
    </g>
    <g clip-path="url(#p40af605b52)">
     <use xlink:href="#C0_0_adbb611959" x="607.311917" y="375.99423" style="fill: #1f77b4; stroke: #ffffff; stroke-width: 0.48"/>
    </g>
    <g clip-path="url(#p40af605b52)">
     <use xlink:href="#C0_0_adbb611959" x="609.271297" y="351.120212" style="fill: #1f77b4; stroke: #ffffff; stroke-width: 0.48"/>
    </g>
    <g clip-path="url(#p40af605b52)">
     <use xlink:href="#C0_0_adbb611959" x="557.996921" y="531.062222" style="fill: #1f77b4; stroke: #ffffff; stroke-width: 0.48"/>
    </g>
    <g clip-path="url(#p40af605b52)">
     <use xlink:href="#C0_0_adbb611959" x="407.051099" y="327.458245" style="fill: #1f77b4; stroke: #ffffff; stroke-width: 0.48"/>
    </g>
    <g clip-path="url(#p40af605b52)">
     <use xlink:href="#C0_0_adbb611959" x="932.682219" y="386.982853" style="fill: #1f77b4; stroke: #ffffff; stroke-width: 0.48"/>
    </g>
    <g clip-path="url(#p40af605b52)">
     <use xlink:href="#C0_0_adbb611959" x="484.045974" y="402.102763" style="fill: #1f77b4; stroke: #ffffff; stroke-width: 0.48"/>
    </g>
    <g clip-path="url(#p40af605b52)">
     <use xlink:href="#C0_0_adbb611959" x="609.758718" y="446.493076" style="fill: #1f77b4; stroke: #ffffff; stroke-width: 0.48"/>
    </g>
    <g clip-path="url(#p40af605b52)">
     <use xlink:href="#C0_0_adbb611959" x="554.101154" y="413.012031" style="fill: #1f77b4; stroke: #ffffff; stroke-width: 0.48"/>
    </g>
    <g clip-path="url(#p40af605b52)">
     <use xlink:href="#C0_0_adbb611959" x="1221.070418" y="538.252079" style="fill: #1f77b4; stroke: #ffffff; stroke-width: 0.48"/>
    </g>
    <g clip-path="url(#p40af605b52)">
     <use xlink:href="#C0_0_adbb611959" x="471.070018" y="144.672511" style="fill: #1f77b4; stroke: #ffffff; stroke-width: 0.48"/>
    </g>
    <g clip-path="url(#p40af605b52)">
     <use xlink:href="#C0_0_adbb611959" x="432.263312" y="449.312843" style="fill: #1f77b4; stroke: #ffffff; stroke-width: 0.48"/>
    </g>
    <g clip-path="url(#p40af605b52)">
     <use xlink:href="#C0_0_adbb611959" x="1105.414921" y="422.271523" style="fill: #1f77b4; stroke: #ffffff; stroke-width: 0.48"/>
    </g>
    <g clip-path="url(#p40af605b52)">
     <use xlink:href="#C0_0_adbb611959" x="317.479614" y="361.903699" style="fill: #1f77b4; stroke: #ffffff; stroke-width: 0.48"/>
    </g>
    <g clip-path="url(#p40af605b52)">
     <use xlink:href="#C0_0_adbb611959" x="343.802646" y="379.903181" style="fill: #1f77b4; stroke: #ffffff; stroke-width: 0.48"/>
    </g>
    <g clip-path="url(#p40af605b52)">
     <use xlink:href="#C0_0_adbb611959" x="537.548331" y="426.94083" style="fill: #1f77b4; stroke: #ffffff; stroke-width: 0.48"/>
    </g>
    <g clip-path="url(#p40af605b52)">
     <use xlink:href="#C0_0_adbb611959" x="932.564331" y="300.87903" style="fill: #1f77b4; stroke: #ffffff; stroke-width: 0.48"/>
    </g>
    <g clip-path="url(#p40af605b52)">
     <use xlink:href="#C0_0_adbb611959" x="535.145793" y="140.924091" style="fill: #1f77b4; stroke: #ffffff; stroke-width: 0.48"/>
    </g>
    <g clip-path="url(#p40af605b52)">
     <use xlink:href="#C0_0_adbb611959" x="484.494485" y="301.308525" style="fill: #1f77b4; stroke: #ffffff; stroke-width: 0.48"/>
    </g>
    <g clip-path="url(#p40af605b52)">
     <use xlink:href="#C0_0_adbb611959" x="481.338011" y="405.983991" style="fill: #1f77b4; stroke: #ffffff; stroke-width: 0.48"/>
    </g>
    <g clip-path="url(#p40af605b52)">
     <use xlink:href="#C0_0_adbb611959" x="586.872607" y="288.190149" style="fill: #1f77b4; stroke: #ffffff; stroke-width: 0.48"/>
    </g>
    <g clip-path="url(#p40af605b52)">
     <use xlink:href="#C0_0_adbb611959" x="615.411843" y="347.13808" style="fill: #1f77b4; stroke: #ffffff; stroke-width: 0.48"/>
    </g>
    <g clip-path="url(#p40af605b52)">
     <use xlink:href="#C0_0_adbb611959" x="1085.574272" y="402.49695" style="fill: #1f77b4; stroke: #ffffff; stroke-width: 0.48"/>
    </g>
    <g clip-path="url(#p40af605b52)">
     <use xlink:href="#C0_0_adbb611959" x="1245.272727" y="522.544982" style="fill: #1f77b4; stroke: #ffffff; stroke-width: 0.48"/>
    </g>
    <g clip-path="url(#p40af605b52)">
     <use xlink:href="#C0_0_adbb611959" x="587.507141" y="241.694188" style="fill: #1f77b4; stroke: #ffffff; stroke-width: 0.48"/>
    </g>
    <g clip-path="url(#p40af605b52)">
     <use xlink:href="#C0_0_adbb611959" x="972.468228" y="215.901654" style="fill: #1f77b4; stroke: #ffffff; stroke-width: 0.48"/>
    </g>
    <g clip-path="url(#p40af605b52)">
     <use xlink:href="#C0_0_adbb611959" x="645.550424" y="414.300254" style="fill: #1f77b4; stroke: #ffffff; stroke-width: 0.48"/>
    </g>
    <g clip-path="url(#p40af605b52)">
     <use xlink:href="#C0_0_adbb611959" x="511.050984" y="312.486568" style="fill: #1f77b4; stroke: #ffffff; stroke-width: 0.48"/>
    </g>
    <g clip-path="url(#p40af605b52)">
     <use xlink:href="#C0_0_adbb611959" x="955.805372" y="316.803851" style="fill: #1f77b4; stroke: #ffffff; stroke-width: 0.48"/>
    </g>
    <g clip-path="url(#p40af605b52)">
     <use xlink:href="#C0_0_adbb611959" x="516.705197" y="348.134424" style="fill: #1f77b4; stroke: #ffffff; stroke-width: 0.48"/>
    </g>
    <g clip-path="url(#p40af605b52)">
     <use xlink:href="#C0_0_adbb611959" x="654.482926" y="312.894093" style="fill: #1f77b4; stroke: #ffffff; stroke-width: 0.48"/>
    </g>
    <g clip-path="url(#p40af605b52)">
     <use xlink:href="#C0_0_adbb611959" x="537.14427" y="569.021411" style="fill: #1f77b4; stroke: #ffffff; stroke-width: 0.48"/>
    </g>
    <g clip-path="url(#p40af605b52)">
     <use xlink:href="#C0_0_adbb611959" x="538.604297" y="230.169668" style="fill: #1f77b4; stroke: #ffffff; stroke-width: 0.48"/>
    </g>
    <g clip-path="url(#p40af605b52)">
     <use xlink:href="#C0_0_adbb611959" x="979.336523" y="416.063808" style="fill: #1f77b4; stroke: #ffffff; stroke-width: 0.48"/>
    </g>
    <g clip-path="url(#p40af605b52)">
     <use xlink:href="#C0_0_adbb611959" x="884.474871" y="427.774383" style="fill: #1f77b4; stroke: #ffffff; stroke-width: 0.48"/>
    </g>
    <g clip-path="url(#p40af605b52)">
     <use xlink:href="#C0_0_adbb611959" x="460.443344" y="281.096284" style="fill: #1f77b4; stroke: #ffffff; stroke-width: 0.48"/>
    </g>
    <g clip-path="url(#p40af605b52)">
     <use xlink:href="#C0_0_adbb611959" x="541.656051" y="452.490619" style="fill: #1f77b4; stroke: #ffffff; stroke-width: 0.48"/>
    </g>
    <g clip-path="url(#p40af605b52)">
     <use xlink:href="#C0_0_adbb611959" x="411.712584" y="289.108289" style="fill: #1f77b4; stroke: #ffffff; stroke-width: 0.48"/>
    </g>
    <g clip-path="url(#p40af605b52)">
     <use xlink:href="#C0_0_adbb611959" x="578.204234" y="479.397245" style="fill: #1f77b4; stroke: #ffffff; stroke-width: 0.48"/>
    </g>
    <g clip-path="url(#p40af605b52)">
     <use xlink:href="#C0_0_adbb611959" x="553.158248" y="409.580169" style="fill: #1f77b4; stroke: #ffffff; stroke-width: 0.48"/>
    </g>
    <g clip-path="url(#p40af605b52)">
     <use xlink:href="#C0_0_adbb611959" x="456.414464" y="253.943491" style="fill: #1f77b4; stroke: #ffffff; stroke-width: 0.48"/>
    </g>
    <g clip-path="url(#p40af605b52)">
     <use xlink:href="#C0_0_adbb611959" x="530.929168" y="535.195859" style="fill: #1f77b4; stroke: #ffffff; stroke-width: 0.48"/>
    </g>
    <g clip-path="url(#p40af605b52)">
     <use xlink:href="#C0_0_adbb611959" x="604.204624" y="485.189091" style="fill: #1f77b4; stroke: #ffffff; stroke-width: 0.48"/>
    </g>
    <g clip-path="url(#p40af605b52)">
     <use xlink:href="#C0_0_adbb611959" x="627.662861" y="514.217704" style="fill: #1f77b4; stroke: #ffffff; stroke-width: 0.48"/>
    </g>
    <g clip-path="url(#p40af605b52)">
     <use xlink:href="#C0_0_adbb611959" x="914.787533" y="111.6" style="fill: #1f77b4; stroke: #ffffff; stroke-width: 0.48"/>
    </g>
    <g clip-path="url(#p40af605b52)">
     <use xlink:href="#C0_0_adbb611959" x="377.294601" y="270.545507" style="fill: #1f77b4; stroke: #ffffff; stroke-width: 0.48"/>
    </g>
    <g clip-path="url(#p40af605b52)">
     <use xlink:href="#C0_0_adbb611959" x="1171.289766" y="386.399215" style="fill: #1f77b4; stroke: #ffffff; stroke-width: 0.48"/>
    </g>
    <g clip-path="url(#p40af605b52)">
     <use xlink:href="#C0_0_adbb611959" x="984.721897" y="596.923278" style="fill: #1f77b4; stroke: #ffffff; stroke-width: 0.48"/>
    </g>
    <g clip-path="url(#p40af605b52)">
     <use xlink:href="#C0_0_adbb611959" x="1228.115762" y="525.96682" style="fill: #1f77b4; stroke: #ffffff; stroke-width: 0.48"/>
    </g>
    <g clip-path="url(#p40af605b52)">
     <use xlink:href="#C0_0_adbb611959" x="773.604308" y="305.694842" style="fill: #1f77b4; stroke: #ffffff; stroke-width: 0.48"/>
    </g>
    <g clip-path="url(#p40af605b52)">
     <use xlink:href="#C0_0_adbb611959" x="506.441656" y="296.497721" style="fill: #1f77b4; stroke: #ffffff; stroke-width: 0.48"/>
    </g>
    <g clip-path="url(#p40af605b52)">
     <use xlink:href="#C0_0_adbb611959" x="668.254894" y="479.737115" style="fill: #1f77b4; stroke: #ffffff; stroke-width: 0.48"/>
    </g>
    <g clip-path="url(#p40af605b52)">
     <use xlink:href="#C0_0_adbb611959" x="459.333548" y="541.13939" style="fill: #1f77b4; stroke: #ffffff; stroke-width: 0.48"/>
    </g>
    <g clip-path="url(#p40af605b52)">
     <use xlink:href="#C0_0_adbb611959" x="542.539044" y="332.826345" style="fill: #1f77b4; stroke: #ffffff; stroke-width: 0.48"/>
    </g>
    <g clip-path="url(#p40af605b52)">
     <use xlink:href="#C0_0_adbb611959" x="838.937278" y="615.6" style="fill: #1f77b4; stroke: #ffffff; stroke-width: 0.48"/>
    </g>
    <g clip-path="url(#p40af605b52)">
     <use xlink:href="#C0_0_adbb611959" x="532.020078" y="562.563723" style="fill: #1f77b4; stroke: #ffffff; stroke-width: 0.48"/>
    </g>
    <g clip-path="url(#p40af605b52)">
     <use xlink:href="#C0_0_adbb611959" x="1045.903895" y="346.870612" style="fill: #1f77b4; stroke: #ffffff; stroke-width: 0.48"/>
    </g>
   </g>
   <g id="matplotlib.axis_1">
    <g id="xtick_1">
     <g id="line2d_1">
      <defs>
       <path id="m063fca6b9b" d="M 0 0 
L 0 3.5 
" style="stroke: #000000; stroke-width: 0.8"/>
      </defs>
      <g>
       <use xlink:href="#m063fca6b9b" x="205.538875" y="640.8" style="stroke: #000000; stroke-width: 0.8"/>
      </g>
     </g>
     <g id="text_1">
      <!-- −0.1 -->
      <g transform="translate(193.397468 655.398438) scale(0.1 -0.1)">
       <defs>
        <path id="DejaVuSans-2212" d="M 678 2272 
L 4684 2272 
L 4684 1741 
L 678 1741 
L 678 2272 
z
" transform="scale(0.015625)"/>
        <path id="DejaVuSans-30" d="M 2034 4250 
Q 1547 4250 1301 3770 
Q 1056 3291 1056 2328 
Q 1056 1369 1301 889 
Q 1547 409 2034 409 
Q 2525 409 2770 889 
Q 3016 1369 3016 2328 
Q 3016 3291 2770 3770 
Q 2525 4250 2034 4250 
z
M 2034 4750 
Q 2819 4750 3233 4129 
Q 3647 3509 3647 2328 
Q 3647 1150 3233 529 
Q 2819 -91 2034 -91 
Q 1250 -91 836 529 
Q 422 1150 422 2328 
Q 422 3509 836 4129 
Q 1250 4750 2034 4750 
z
" transform="scale(0.015625)"/>
        <path id="DejaVuSans-2e" d="M 684 794 
L 1344 794 
L 1344 0 
L 684 0 
L 684 794 
z
" transform="scale(0.015625)"/>
        <path id="DejaVuSans-31" d="M 794 531 
L 1825 531 
L 1825 4091 
L 703 3866 
L 703 4441 
L 1819 4666 
L 2450 4666 
L 2450 531 
L 3481 531 
L 3481 0 
L 794 0 
L 794 531 
z
" transform="scale(0.015625)"/>
       </defs>
       <use xlink:href="#DejaVuSans-2212"/>
       <use xlink:href="#DejaVuSans-30" x="83.789062"/>
       <use xlink:href="#DejaVuSans-2e" x="147.412109"/>
       <use xlink:href="#DejaVuSans-31" x="179.199219"/>
      </g>
     </g>
    </g>
    <g id="xtick_2">
     <g id="line2d_2">
      <g>
       <use xlink:href="#m063fca6b9b" x="338.32392" y="640.8" style="stroke: #000000; stroke-width: 0.8"/>
      </g>
     </g>
     <g id="text_2">
      <!-- 0.0 -->
      <g transform="translate(330.372358 655.398438) scale(0.1 -0.1)">
       <use xlink:href="#DejaVuSans-30"/>
       <use xlink:href="#DejaVuSans-2e" x="63.623047"/>
       <use xlink:href="#DejaVuSans-30" x="95.410156"/>
      </g>
     </g>
    </g>
    <g id="xtick_3">
     <g id="line2d_3">
      <g>
       <use xlink:href="#m063fca6b9b" x="471.108965" y="640.8" style="stroke: #000000; stroke-width: 0.8"/>
      </g>
     </g>
     <g id="text_3">
      <!-- 0.1 -->
      <g transform="translate(463.157403 655.398438) scale(0.1 -0.1)">
       <use xlink:href="#DejaVuSans-30"/>
       <use xlink:href="#DejaVuSans-2e" x="63.623047"/>
       <use xlink:href="#DejaVuSans-31" x="95.410156"/>
      </g>
     </g>
    </g>
    <g id="xtick_4">
     <g id="line2d_4">
      <g>
       <use xlink:href="#m063fca6b9b" x="603.894011" y="640.8" style="stroke: #000000; stroke-width: 0.8"/>
      </g>
     </g>
     <g id="text_4">
      <!-- 0.2 -->
      <g transform="translate(595.942448 655.398438) scale(0.1 -0.1)">
       <defs>
        <path id="DejaVuSans-32" d="M 1228 531 
L 3431 531 
L 3431 0 
L 469 0 
L 469 531 
Q 828 903 1448 1529 
Q 2069 2156 2228 2338 
Q 2531 2678 2651 2914 
Q 2772 3150 2772 3378 
Q 2772 3750 2511 3984 
Q 2250 4219 1831 4219 
Q 1534 4219 1204 4116 
Q 875 4013 500 3803 
L 500 4441 
Q 881 4594 1212 4672 
Q 1544 4750 1819 4750 
Q 2544 4750 2975 4387 
Q 3406 4025 3406 3419 
Q 3406 3131 3298 2873 
Q 3191 2616 2906 2266 
Q 2828 2175 2409 1742 
Q 1991 1309 1228 531 
z
" transform="scale(0.015625)"/>
       </defs>
       <use xlink:href="#DejaVuSans-30"/>
       <use xlink:href="#DejaVuSans-2e" x="63.623047"/>
       <use xlink:href="#DejaVuSans-32" x="95.410156"/>
      </g>
     </g>
    </g>
    <g id="xtick_5">
     <g id="line2d_5">
      <g>
       <use xlink:href="#m063fca6b9b" x="736.679056" y="640.8" style="stroke: #000000; stroke-width: 0.8"/>
      </g>
     </g>
     <g id="text_5">
      <!-- 0.3 -->
      <g transform="translate(728.727494 655.398438) scale(0.1 -0.1)">
       <defs>
        <path id="DejaVuSans-33" d="M 2597 2516 
Q 3050 2419 3304 2112 
Q 3559 1806 3559 1356 
Q 3559 666 3084 287 
Q 2609 -91 1734 -91 
Q 1441 -91 1130 -33 
Q 819 25 488 141 
L 488 750 
Q 750 597 1062 519 
Q 1375 441 1716 441 
Q 2309 441 2620 675 
Q 2931 909 2931 1356 
Q 2931 1769 2642 2001 
Q 2353 2234 1838 2234 
L 1294 2234 
L 1294 2753 
L 1863 2753 
Q 2328 2753 2575 2939 
Q 2822 3125 2822 3475 
Q 2822 3834 2567 4026 
Q 2313 4219 1838 4219 
Q 1578 4219 1281 4162 
Q 984 4106 628 3988 
L 628 4550 
Q 988 4650 1302 4700 
Q 1616 4750 1894 4750 
Q 2613 4750 3031 4423 
Q 3450 4097 3450 3541 
Q 3450 3153 3228 2886 
Q 3006 2619 2597 2516 
z
" transform="scale(0.015625)"/>
       </defs>
       <use xlink:href="#DejaVuSans-30"/>
       <use xlink:href="#DejaVuSans-2e" x="63.623047"/>
       <use xlink:href="#DejaVuSans-33" x="95.410156"/>
      </g>
     </g>
    </g>
    <g id="xtick_6">
     <g id="line2d_6">
      <g>
       <use xlink:href="#m063fca6b9b" x="869.464102" y="640.8" style="stroke: #000000; stroke-width: 0.8"/>
      </g>
     </g>
     <g id="text_6">
      <!-- 0.4 -->
      <g transform="translate(861.512539 655.398438) scale(0.1 -0.1)">
       <defs>
        <path id="DejaVuSans-34" d="M 2419 4116 
L 825 1625 
L 2419 1625 
L 2419 4116 
z
M 2253 4666 
L 3047 4666 
L 3047 1625 
L 3713 1625 
L 3713 1100 
L 3047 1100 
L 3047 0 
L 2419 0 
L 2419 1100 
L 313 1100 
L 313 1709 
L 2253 4666 
z
" transform="scale(0.015625)"/>
       </defs>
       <use xlink:href="#DejaVuSans-30"/>
       <use xlink:href="#DejaVuSans-2e" x="63.623047"/>
       <use xlink:href="#DejaVuSans-34" x="95.410156"/>
      </g>
     </g>
    </g>
    <g id="xtick_7">
     <g id="line2d_7">
      <g>
       <use xlink:href="#m063fca6b9b" x="1002.249147" y="640.8" style="stroke: #000000; stroke-width: 0.8"/>
      </g>
     </g>
     <g id="text_7">
      <!-- 0.5 -->
      <g transform="translate(994.297585 655.398438) scale(0.1 -0.1)">
       <defs>
        <path id="DejaVuSans-35" d="M 691 4666 
L 3169 4666 
L 3169 4134 
L 1269 4134 
L 1269 2991 
Q 1406 3038 1543 3061 
Q 1681 3084 1819 3084 
Q 2600 3084 3056 2656 
Q 3513 2228 3513 1497 
Q 3513 744 3044 326 
Q 2575 -91 1722 -91 
Q 1428 -91 1123 -41 
Q 819 9 494 109 
L 494 744 
Q 775 591 1075 516 
Q 1375 441 1709 441 
Q 2250 441 2565 725 
Q 2881 1009 2881 1497 
Q 2881 1984 2565 2268 
Q 2250 2553 1709 2553 
Q 1456 2553 1204 2497 
Q 953 2441 691 2322 
L 691 4666 
z
" transform="scale(0.015625)"/>
       </defs>
       <use xlink:href="#DejaVuSans-30"/>
       <use xlink:href="#DejaVuSans-2e" x="63.623047"/>
       <use xlink:href="#DejaVuSans-35" x="95.410156"/>
      </g>
     </g>
    </g>
    <g id="xtick_8">
     <g id="line2d_8">
      <g>
       <use xlink:href="#m063fca6b9b" x="1135.034193" y="640.8" style="stroke: #000000; stroke-width: 0.8"/>
      </g>
     </g>
     <g id="text_8">
      <!-- 0.6 -->
      <g transform="translate(1127.08263 655.398438) scale(0.1 -0.1)">
       <defs>
        <path id="DejaVuSans-36" d="M 2113 2584 
Q 1688 2584 1439 2293 
Q 1191 2003 1191 1497 
Q 1191 994 1439 701 
Q 1688 409 2113 409 
Q 2538 409 2786 701 
Q 3034 994 3034 1497 
Q 3034 2003 2786 2293 
Q 2538 2584 2113 2584 
z
M 3366 4563 
L 3366 3988 
Q 3128 4100 2886 4159 
Q 2644 4219 2406 4219 
Q 1781 4219 1451 3797 
Q 1122 3375 1075 2522 
Q 1259 2794 1537 2939 
Q 1816 3084 2150 3084 
Q 2853 3084 3261 2657 
Q 3669 2231 3669 1497 
Q 3669 778 3244 343 
Q 2819 -91 2113 -91 
Q 1303 -91 875 529 
Q 447 1150 447 2328 
Q 447 3434 972 4092 
Q 1497 4750 2381 4750 
Q 2619 4750 2861 4703 
Q 3103 4656 3366 4563 
z
" transform="scale(0.015625)"/>
       </defs>
       <use xlink:href="#DejaVuSans-30"/>
       <use xlink:href="#DejaVuSans-2e" x="63.623047"/>
       <use xlink:href="#DejaVuSans-36" x="95.410156"/>
      </g>
     </g>
    </g>
    <g id="xtick_9">
     <g id="line2d_9">
      <g>
       <use xlink:href="#m063fca6b9b" x="1267.819238" y="640.8" style="stroke: #000000; stroke-width: 0.8"/>
      </g>
     </g>
     <g id="text_9">
      <!-- 0.7 -->
      <g transform="translate(1259.867675 655.398438) scale(0.1 -0.1)">
       <defs>
        <path id="DejaVuSans-37" d="M 525 4666 
L 3525 4666 
L 3525 4397 
L 1831 0 
L 1172 0 
L 2766 4134 
L 525 4134 
L 525 4666 
z
" transform="scale(0.015625)"/>
       </defs>
       <use xlink:href="#DejaVuSans-30"/>
       <use xlink:href="#DejaVuSans-2e" x="63.623047"/>
       <use xlink:href="#DejaVuSans-37" x="95.410156"/>
      </g>
     </g>
    </g>
    <g id="text_10">
     <!-- delta cosine similarity -->
     <g transform="translate(683.039844 669.076563) scale(0.1 -0.1)">
      <defs>
       <path id="DejaVuSans-64" d="M 2906 2969 
L 2906 4863 
L 3481 4863 
L 3481 0 
L 2906 0 
L 2906 525 
Q 2725 213 2448 61 
Q 2172 -91 1784 -91 
Q 1150 -91 751 415 
Q 353 922 353 1747 
Q 353 2572 751 3078 
Q 1150 3584 1784 3584 
Q 2172 3584 2448 3432 
Q 2725 3281 2906 2969 
z
M 947 1747 
Q 947 1113 1208 752 
Q 1469 391 1925 391 
Q 2381 391 2643 752 
Q 2906 1113 2906 1747 
Q 2906 2381 2643 2742 
Q 2381 3103 1925 3103 
Q 1469 3103 1208 2742 
Q 947 2381 947 1747 
z
" transform="scale(0.015625)"/>
       <path id="DejaVuSans-65" d="M 3597 1894 
L 3597 1613 
L 953 1613 
Q 991 1019 1311 708 
Q 1631 397 2203 397 
Q 2534 397 2845 478 
Q 3156 559 3463 722 
L 3463 178 
Q 3153 47 2828 -22 
Q 2503 -91 2169 -91 
Q 1331 -91 842 396 
Q 353 884 353 1716 
Q 353 2575 817 3079 
Q 1281 3584 2069 3584 
Q 2775 3584 3186 3129 
Q 3597 2675 3597 1894 
z
M 3022 2063 
Q 3016 2534 2758 2815 
Q 2500 3097 2075 3097 
Q 1594 3097 1305 2825 
Q 1016 2553 972 2059 
L 3022 2063 
z
" transform="scale(0.015625)"/>
       <path id="DejaVuSans-6c" d="M 603 4863 
L 1178 4863 
L 1178 0 
L 603 0 
L 603 4863 
z
" transform="scale(0.015625)"/>
       <path id="DejaVuSans-74" d="M 1172 4494 
L 1172 3500 
L 2356 3500 
L 2356 3053 
L 1172 3053 
L 1172 1153 
Q 1172 725 1289 603 
Q 1406 481 1766 481 
L 2356 481 
L 2356 0 
L 1766 0 
Q 1100 0 847 248 
Q 594 497 594 1153 
L 594 3053 
L 172 3053 
L 172 3500 
L 594 3500 
L 594 4494 
L 1172 4494 
z
" transform="scale(0.015625)"/>
       <path id="DejaVuSans-61" d="M 2194 1759 
Q 1497 1759 1228 1600 
Q 959 1441 959 1056 
Q 959 750 1161 570 
Q 1363 391 1709 391 
Q 2188 391 2477 730 
Q 2766 1069 2766 1631 
L 2766 1759 
L 2194 1759 
z
M 3341 1997 
L 3341 0 
L 2766 0 
L 2766 531 
Q 2569 213 2275 61 
Q 1981 -91 1556 -91 
Q 1019 -91 701 211 
Q 384 513 384 1019 
Q 384 1609 779 1909 
Q 1175 2209 1959 2209 
L 2766 2209 
L 2766 2266 
Q 2766 2663 2505 2880 
Q 2244 3097 1772 3097 
Q 1472 3097 1187 3025 
Q 903 2953 641 2809 
L 641 3341 
Q 956 3463 1253 3523 
Q 1550 3584 1831 3584 
Q 2591 3584 2966 3190 
Q 3341 2797 3341 1997 
z
" transform="scale(0.015625)"/>
       <path id="DejaVuSans-20" transform="scale(0.015625)"/>
       <path id="DejaVuSans-63" d="M 3122 3366 
L 3122 2828 
Q 2878 2963 2633 3030 
Q 2388 3097 2138 3097 
Q 1578 3097 1268 2742 
Q 959 2388 959 1747 
Q 959 1106 1268 751 
Q 1578 397 2138 397 
Q 2388 397 2633 464 
Q 2878 531 3122 666 
L 3122 134 
Q 2881 22 2623 -34 
Q 2366 -91 2075 -91 
Q 1284 -91 818 406 
Q 353 903 353 1747 
Q 353 2603 823 3093 
Q 1294 3584 2113 3584 
Q 2378 3584 2631 3529 
Q 2884 3475 3122 3366 
z
" transform="scale(0.015625)"/>
       <path id="DejaVuSans-6f" d="M 1959 3097 
Q 1497 3097 1228 2736 
Q 959 2375 959 1747 
Q 959 1119 1226 758 
Q 1494 397 1959 397 
Q 2419 397 2687 759 
Q 2956 1122 2956 1747 
Q 2956 2369 2687 2733 
Q 2419 3097 1959 3097 
z
M 1959 3584 
Q 2709 3584 3137 3096 
Q 3566 2609 3566 1747 
Q 3566 888 3137 398 
Q 2709 -91 1959 -91 
Q 1206 -91 779 398 
Q 353 888 353 1747 
Q 353 2609 779 3096 
Q 1206 3584 1959 3584 
z
" transform="scale(0.015625)"/>
       <path id="DejaVuSans-73" d="M 2834 3397 
L 2834 2853 
Q 2591 2978 2328 3040 
Q 2066 3103 1784 3103 
Q 1356 3103 1142 2972 
Q 928 2841 928 2578 
Q 928 2378 1081 2264 
Q 1234 2150 1697 2047 
L 1894 2003 
Q 2506 1872 2764 1633 
Q 3022 1394 3022 966 
Q 3022 478 2636 193 
Q 2250 -91 1575 -91 
Q 1294 -91 989 -36 
Q 684 19 347 128 
L 347 722 
Q 666 556 975 473 
Q 1284 391 1588 391 
Q 1994 391 2212 530 
Q 2431 669 2431 922 
Q 2431 1156 2273 1281 
Q 2116 1406 1581 1522 
L 1381 1569 
Q 847 1681 609 1914 
Q 372 2147 372 2553 
Q 372 3047 722 3315 
Q 1072 3584 1716 3584 
Q 2034 3584 2315 3537 
Q 2597 3491 2834 3397 
z
" transform="scale(0.015625)"/>
       <path id="DejaVuSans-69" d="M 603 3500 
L 1178 3500 
L 1178 0 
L 603 0 
L 603 3500 
z
M 603 4863 
L 1178 4863 
L 1178 4134 
L 603 4134 
L 603 4863 
z
" transform="scale(0.015625)"/>
       <path id="DejaVuSans-6e" d="M 3513 2113 
L 3513 0 
L 2938 0 
L 2938 2094 
Q 2938 2591 2744 2837 
Q 2550 3084 2163 3084 
Q 1697 3084 1428 2787 
Q 1159 2491 1159 1978 
L 1159 0 
L 581 0 
L 581 3500 
L 1159 3500 
L 1159 2956 
Q 1366 3272 1645 3428 
Q 1925 3584 2291 3584 
Q 2894 3584 3203 3211 
Q 3513 2838 3513 2113 
z
" transform="scale(0.015625)"/>
       <path id="DejaVuSans-6d" d="M 3328 2828 
Q 3544 3216 3844 3400 
Q 4144 3584 4550 3584 
Q 5097 3584 5394 3201 
Q 5691 2819 5691 2113 
L 5691 0 
L 5113 0 
L 5113 2094 
Q 5113 2597 4934 2840 
Q 4756 3084 4391 3084 
Q 3944 3084 3684 2787 
Q 3425 2491 3425 1978 
L 3425 0 
L 2847 0 
L 2847 2094 
Q 2847 2600 2669 2842 
Q 2491 3084 2119 3084 
Q 1678 3084 1418 2786 
Q 1159 2488 1159 1978 
L 1159 0 
L 581 0 
L 581 3500 
L 1159 3500 
L 1159 2956 
Q 1356 3278 1631 3431 
Q 1906 3584 2284 3584 
Q 2666 3584 2933 3390 
Q 3200 3197 3328 2828 
z
" transform="scale(0.015625)"/>
       <path id="DejaVuSans-72" d="M 2631 2963 
Q 2534 3019 2420 3045 
Q 2306 3072 2169 3072 
Q 1681 3072 1420 2755 
Q 1159 2438 1159 1844 
L 1159 0 
L 581 0 
L 581 3500 
L 1159 3500 
L 1159 2956 
Q 1341 3275 1631 3429 
Q 1922 3584 2338 3584 
Q 2397 3584 2469 3576 
Q 2541 3569 2628 3553 
L 2631 2963 
z
" transform="scale(0.015625)"/>
       <path id="DejaVuSans-79" d="M 2059 -325 
Q 1816 -950 1584 -1140 
Q 1353 -1331 966 -1331 
L 506 -1331 
L 506 -850 
L 844 -850 
Q 1081 -850 1212 -737 
Q 1344 -625 1503 -206 
L 1606 56 
L 191 3500 
L 800 3500 
L 1894 763 
L 2988 3500 
L 3597 3500 
L 2059 -325 
z
" transform="scale(0.015625)"/>
      </defs>
      <use xlink:href="#DejaVuSans-64"/>
      <use xlink:href="#DejaVuSans-65" x="63.476562"/>
      <use xlink:href="#DejaVuSans-6c" x="125"/>
      <use xlink:href="#DejaVuSans-74" x="152.783203"/>
      <use xlink:href="#DejaVuSans-61" x="191.992188"/>
      <use xlink:href="#DejaVuSans-20" x="253.271484"/>
      <use xlink:href="#DejaVuSans-63" x="285.058594"/>
      <use xlink:href="#DejaVuSans-6f" x="340.039062"/>
      <use xlink:href="#DejaVuSans-73" x="401.220703"/>
      <use xlink:href="#DejaVuSans-69" x="453.320312"/>
      <use xlink:href="#DejaVuSans-6e" x="481.103516"/>
      <use xlink:href="#DejaVuSans-65" x="544.482422"/>
      <use xlink:href="#DejaVuSans-20" x="606.005859"/>
      <use xlink:href="#DejaVuSans-73" x="637.792969"/>
      <use xlink:href="#DejaVuSans-69" x="689.892578"/>
      <use xlink:href="#DejaVuSans-6d" x="717.675781"/>
      <use xlink:href="#DejaVuSans-69" x="815.087891"/>
      <use xlink:href="#DejaVuSans-6c" x="842.871094"/>
      <use xlink:href="#DejaVuSans-61" x="870.654297"/>
      <use xlink:href="#DejaVuSans-72" x="931.933594"/>
      <use xlink:href="#DejaVuSans-69" x="973.046875"/>
      <use xlink:href="#DejaVuSans-74" x="1000.830078"/>
      <use xlink:href="#DejaVuSans-79" x="1040.039062"/>
     </g>
    </g>
   </g>
   <g id="matplotlib.axis_2">
    <g id="ytick_1">
     <g id="line2d_10">
      <defs>
       <path id="m974dc2b95e" d="M 0 0 
L -3.5 0 
" style="stroke: #000000; stroke-width: 0.8"/>
      </defs>
      <g>
       <use xlink:href="#m974dc2b95e" x="180" y="563.817339" style="stroke: #000000; stroke-width: 0.8"/>
      </g>
     </g>
     <g id="text_11">
      <!-- 0.2 -->
      <g transform="translate(157.096875 567.616558) scale(0.1 -0.1)">
       <use xlink:href="#DejaVuSans-30"/>
       <use xlink:href="#DejaVuSans-2e" x="63.623047"/>
       <use xlink:href="#DejaVuSans-32" x="95.410156"/>
      </g>
     </g>
    </g>
    <g id="ytick_2">
     <g id="line2d_11">
      <g>
       <use xlink:href="#m974dc2b95e" x="180" y="443.751831" style="stroke: #000000; stroke-width: 0.8"/>
      </g>
     </g>
     <g id="text_12">
      <!-- 0.3 -->
      <g transform="translate(157.096875 447.55105) scale(0.1 -0.1)">
       <use xlink:href="#DejaVuSans-30"/>
       <use xlink:href="#DejaVuSans-2e" x="63.623047"/>
       <use xlink:href="#DejaVuSans-33" x="95.410156"/>
      </g>
     </g>
    </g>
    <g id="ytick_3">
     <g id="line2d_12">
      <g>
       <use xlink:href="#m974dc2b95e" x="180" y="323.686322" style="stroke: #000000; stroke-width: 0.8"/>
      </g>
     </g>
     <g id="text_13">
      <!-- 0.4 -->
      <g transform="translate(157.096875 327.485541) scale(0.1 -0.1)">
       <use xlink:href="#DejaVuSans-30"/>
       <use xlink:href="#DejaVuSans-2e" x="63.623047"/>
       <use xlink:href="#DejaVuSans-34" x="95.410156"/>
      </g>
     </g>
    </g>
    <g id="ytick_4">
     <g id="line2d_13">
      <g>
       <use xlink:href="#m974dc2b95e" x="180" y="203.620814" style="stroke: #000000; stroke-width: 0.8"/>
      </g>
     </g>
     <g id="text_14">
      <!-- 0.5 -->
      <g transform="translate(157.096875 207.420032) scale(0.1 -0.1)">
       <use xlink:href="#DejaVuSans-30"/>
       <use xlink:href="#DejaVuSans-2e" x="63.623047"/>
       <use xlink:href="#DejaVuSans-35" x="95.410156"/>
      </g>
     </g>
    </g>
    <g id="text_15">
     <!-- delta score -->
     <g transform="translate(151.017188 391.285937) rotate(-90) scale(0.1 -0.1)">
      <use xlink:href="#DejaVuSans-64"/>
      <use xlink:href="#DejaVuSans-65" x="63.476562"/>
      <use xlink:href="#DejaVuSans-6c" x="125"/>
      <use xlink:href="#DejaVuSans-74" x="152.783203"/>
      <use xlink:href="#DejaVuSans-61" x="191.992188"/>
      <use xlink:href="#DejaVuSans-20" x="253.271484"/>
      <use xlink:href="#DejaVuSans-73" x="285.058594"/>
      <use xlink:href="#DejaVuSans-63" x="337.158203"/>
      <use xlink:href="#DejaVuSans-6f" x="392.138672"/>
      <use xlink:href="#DejaVuSans-72" x="453.320312"/>
      <use xlink:href="#DejaVuSans-65" x="492.183594"/>
     </g>
    </g>
   </g>
   <g id="line2d_14"/>
   <g id="patch_3">
    <path d="M 180 640.8 
L 180 86.4 
" style="fill: none; stroke: #000000; stroke-width: 0.8; stroke-linejoin: miter; stroke-linecap: square"/>
   </g>
   <g id="patch_4">
    <path d="M 1296 640.8 
L 1296 86.4 
" style="fill: none; stroke: #000000; stroke-width: 0.8; stroke-linejoin: miter; stroke-linecap: square"/>
   </g>
   <g id="patch_5">
    <path d="M 180 640.8 
L 1296 640.8 
" style="fill: none; stroke: #000000; stroke-width: 0.8; stroke-linejoin: miter; stroke-linecap: square"/>
   </g>
   <g id="patch_6">
    <path d="M 180 86.4 
L 1296 86.4 
" style="fill: none; stroke: #000000; stroke-width: 0.8; stroke-linejoin: miter; stroke-linecap: square"/>
   </g>
   <g id="text_16">
    <!-- Correlation between delta cosine similarity and delta score -->
    <g transform="translate(560.88 80.4) scale(0.12 -0.12)">
     <defs>
      <path id="DejaVuSans-43" d="M 4122 4306 
L 4122 3641 
Q 3803 3938 3442 4084 
Q 3081 4231 2675 4231 
Q 1875 4231 1450 3742 
Q 1025 3253 1025 2328 
Q 1025 1406 1450 917 
Q 1875 428 2675 428 
Q 3081 428 3442 575 
Q 3803 722 4122 1019 
L 4122 359 
Q 3791 134 3420 21 
Q 3050 -91 2638 -91 
Q 1578 -91 968 557 
Q 359 1206 359 2328 
Q 359 3453 968 4101 
Q 1578 4750 2638 4750 
Q 3056 4750 3426 4639 
Q 3797 4528 4122 4306 
z
" transform="scale(0.015625)"/>
      <path id="DejaVuSans-62" d="M 3116 1747 
Q 3116 2381 2855 2742 
Q 2594 3103 2138 3103 
Q 1681 3103 1420 2742 
Q 1159 2381 1159 1747 
Q 1159 1113 1420 752 
Q 1681 391 2138 391 
Q 2594 391 2855 752 
Q 3116 1113 3116 1747 
z
M 1159 2969 
Q 1341 3281 1617 3432 
Q 1894 3584 2278 3584 
Q 2916 3584 3314 3078 
Q 3713 2572 3713 1747 
Q 3713 922 3314 415 
Q 2916 -91 2278 -91 
Q 1894 -91 1617 61 
Q 1341 213 1159 525 
L 1159 0 
L 581 0 
L 581 4863 
L 1159 4863 
L 1159 2969 
z
" transform="scale(0.015625)"/>
      <path id="DejaVuSans-77" d="M 269 3500 
L 844 3500 
L 1563 769 
L 2278 3500 
L 2956 3500 
L 3675 769 
L 4391 3500 
L 4966 3500 
L 4050 0 
L 3372 0 
L 2619 2869 
L 1863 0 
L 1184 0 
L 269 3500 
z
" transform="scale(0.015625)"/>
     </defs>
     <use xlink:href="#DejaVuSans-43"/>
     <use xlink:href="#DejaVuSans-6f" x="69.824219"/>
     <use xlink:href="#DejaVuSans-72" x="131.005859"/>
     <use xlink:href="#DejaVuSans-72" x="170.369141"/>
     <use xlink:href="#DejaVuSans-65" x="209.232422"/>
     <use xlink:href="#DejaVuSans-6c" x="270.755859"/>
     <use xlink:href="#DejaVuSans-61" x="298.539062"/>
     <use xlink:href="#DejaVuSans-74" x="359.818359"/>
     <use xlink:href="#DejaVuSans-69" x="399.027344"/>
     <use xlink:href="#DejaVuSans-6f" x="426.810547"/>
     <use xlink:href="#DejaVuSans-6e" x="487.992188"/>
     <use xlink:href="#DejaVuSans-20" x="551.371094"/>
     <use xlink:href="#DejaVuSans-62" x="583.158203"/>
     <use xlink:href="#DejaVuSans-65" x="646.634766"/>
     <use xlink:href="#DejaVuSans-74" x="708.158203"/>
     <use xlink:href="#DejaVuSans-77" x="747.367188"/>
     <use xlink:href="#DejaVuSans-65" x="829.154297"/>
     <use xlink:href="#DejaVuSans-65" x="890.677734"/>
     <use xlink:href="#DejaVuSans-6e" x="952.201172"/>
     <use xlink:href="#DejaVuSans-20" x="1015.580078"/>
     <use xlink:href="#DejaVuSans-64" x="1047.367188"/>
     <use xlink:href="#DejaVuSans-65" x="1110.84375"/>
     <use xlink:href="#DejaVuSans-6c" x="1172.367188"/>
     <use xlink:href="#DejaVuSans-74" x="1200.150391"/>
     <use xlink:href="#DejaVuSans-61" x="1239.359375"/>
     <use xlink:href="#DejaVuSans-20" x="1300.638672"/>
     <use xlink:href="#DejaVuSans-63" x="1332.425781"/>
     <use xlink:href="#DejaVuSans-6f" x="1387.40625"/>
     <use xlink:href="#DejaVuSans-73" x="1448.587891"/>
     <use xlink:href="#DejaVuSans-69" x="1500.6875"/>
     <use xlink:href="#DejaVuSans-6e" x="1528.470703"/>
     <use xlink:href="#DejaVuSans-65" x="1591.849609"/>
     <use xlink:href="#DejaVuSans-20" x="1653.373047"/>
     <use xlink:href="#DejaVuSans-73" x="1685.160156"/>
     <use xlink:href="#DejaVuSans-69" x="1737.259766"/>
     <use xlink:href="#DejaVuSans-6d" x="1765.042969"/>
     <use xlink:href="#DejaVuSans-69" x="1862.455078"/>
     <use xlink:href="#DejaVuSans-6c" x="1890.238281"/>
     <use xlink:href="#DejaVuSans-61" x="1918.021484"/>
     <use xlink:href="#DejaVuSans-72" x="1979.300781"/>
     <use xlink:href="#DejaVuSans-69" x="2020.414062"/>
     <use xlink:href="#DejaVuSans-74" x="2048.197266"/>
     <use xlink:href="#DejaVuSans-79" x="2087.40625"/>
     <use xlink:href="#DejaVuSans-20" x="2146.585938"/>
     <use xlink:href="#DejaVuSans-61" x="2178.373047"/>
     <use xlink:href="#DejaVuSans-6e" x="2239.652344"/>
     <use xlink:href="#DejaVuSans-64" x="2303.03125"/>
     <use xlink:href="#DejaVuSans-20" x="2366.507812"/>
     <use xlink:href="#DejaVuSans-64" x="2398.294922"/>
     <use xlink:href="#DejaVuSans-65" x="2461.771484"/>
     <use xlink:href="#DejaVuSans-6c" x="2523.294922"/>
     <use xlink:href="#DejaVuSans-74" x="2551.078125"/>
     <use xlink:href="#DejaVuSans-61" x="2590.287109"/>
     <use xlink:href="#DejaVuSans-20" x="2651.566406"/>
     <use xlink:href="#DejaVuSans-73" x="2683.353516"/>
     <use xlink:href="#DejaVuSans-63" x="2735.453125"/>
     <use xlink:href="#DejaVuSans-6f" x="2790.433594"/>
     <use xlink:href="#DejaVuSans-72" x="2851.615234"/>
     <use xlink:href="#DejaVuSans-65" x="2890.478516"/>
    </g>
   </g>
   <g id="legend_1">
    <g id="patch_7">
     <path d="M 1221.482812 124.034375 
L 1289 124.034375 
Q 1291 124.034375 1291 122.034375 
L 1291 93.4 
Q 1291 91.4 1289 91.4 
L 1221.482812 91.4 
Q 1219.482812 91.4 1219.482812 93.4 
L 1219.482812 122.034375 
Q 1219.482812 124.034375 1221.482812 124.034375 
z
" style="fill: #ffffff; opacity: 0.8; stroke: #cccccc; stroke-linejoin: miter"/>
    </g>
    <g id="text_17">
     <!-- fileName -->
     <g transform="translate(1232.875 102.998437) scale(0.1 -0.1)">
      <defs>
       <path id="DejaVuSans-66" d="M 2375 4863 
L 2375 4384 
L 1825 4384 
Q 1516 4384 1395 4259 
Q 1275 4134 1275 3809 
L 1275 3500 
L 2222 3500 
L 2222 3053 
L 1275 3053 
L 1275 0 
L 697 0 
L 697 3053 
L 147 3053 
L 147 3500 
L 697 3500 
L 697 3744 
Q 697 4328 969 4595 
Q 1241 4863 1831 4863 
L 2375 4863 
z
" transform="scale(0.015625)"/>
       <path id="DejaVuSans-4e" d="M 628 4666 
L 1478 4666 
L 3547 763 
L 3547 4666 
L 4159 4666 
L 4159 0 
L 3309 0 
L 1241 3903 
L 1241 0 
L 628 0 
L 628 4666 
z
" transform="scale(0.015625)"/>
      </defs>
      <use xlink:href="#DejaVuSans-66"/>
      <use xlink:href="#DejaVuSans-69" x="35.205078"/>
      <use xlink:href="#DejaVuSans-6c" x="62.988281"/>
      <use xlink:href="#DejaVuSans-65" x="90.771484"/>
      <use xlink:href="#DejaVuSans-4e" x="152.294922"/>
      <use xlink:href="#DejaVuSans-61" x="227.099609"/>
      <use xlink:href="#DejaVuSans-6d" x="288.378906"/>
      <use xlink:href="#DejaVuSans-65" x="385.791016"/>
     </g>
    </g>
    <g id="line2d_15">
     <defs>
      <path id="m1fd9b5e35f" d="M 0 3 
C 0.795609 3 1.55874 2.683901 2.12132 2.12132 
C 2.683901 1.55874 3 0.795609 3 0 
C 3 -0.795609 2.683901 -1.55874 2.12132 -2.12132 
C 1.55874 -2.683901 0.795609 -3 0 -3 
C -0.795609 -3 -1.55874 -2.683901 -2.12132 -2.12132 
C -2.683901 -1.55874 -3 -0.795609 -3 0 
C -3 0.795609 -2.683901 1.55874 -2.12132 2.12132 
C -1.55874 2.683901 -0.795609 3 0 3 
z
" style="stroke: #ffffff; stroke-width: 0.48"/>
     </defs>
     <g>
      <use xlink:href="#m1fd9b5e35f" x="1233.482812" y="114.176562" style="fill: #1f77b4; stroke: #ffffff; stroke-width: 0.48"/>
     </g>
    </g>
    <g id="text_18">
     <!-- max_fs -->
     <g transform="translate(1251.482812 117.676562) scale(0.1 -0.1)">
      <defs>
       <path id="DejaVuSans-78" d="M 3513 3500 
L 2247 1797 
L 3578 0 
L 2900 0 
L 1881 1375 
L 863 0 
L 184 0 
L 1544 1831 
L 300 3500 
L 978 3500 
L 1906 2253 
L 2834 3500 
L 3513 3500 
z
" transform="scale(0.015625)"/>
       <path id="DejaVuSans-5f" d="M 3263 -1063 
L 3263 -1509 
L -63 -1509 
L -63 -1063 
L 3263 -1063 
z
" transform="scale(0.015625)"/>
      </defs>
      <use xlink:href="#DejaVuSans-6d"/>
      <use xlink:href="#DejaVuSans-61" x="97.412109"/>
      <use xlink:href="#DejaVuSans-78" x="158.691406"/>
      <use xlink:href="#DejaVuSans-5f" x="217.871094"/>
      <use xlink:href="#DejaVuSans-66" x="267.871094"/>
      <use xlink:href="#DejaVuSans-73" x="303.076172"/>
     </g>
    </g>
   </g>
  </g>
 </g>
 <defs>
  <clipPath id="p40af605b52">
   <rect x="180" y="86.4" width="1116" height="554.4"/>
  </clipPath>
 </defs>
</svg>
