<?xml version="1.0" encoding="utf-8" standalone="no"?>
<!DOCTYPE svg PUBLIC "-//W3C//DTD SVG 1.1//EN"
  "http://www.w3.org/Graphics/SVG/1.1/DTD/svg11.dtd">
<svg xmlns:xlink="http://www.w3.org/1999/xlink" width="1440pt" height="720pt" viewBox="0 0 1440 720" xmlns="http://www.w3.org/2000/svg" version="1.1">
 <metadata>
  <rdf:RDF xmlns:dc="http://purl.org/dc/elements/1.1/" xmlns:cc="http://creativecommons.org/ns#" xmlns:rdf="http://www.w3.org/1999/02/22-rdf-syntax-ns#">
   <cc:Work>
    <dc:type rdf:resource="http://purl.org/dc/dcmitype/StillImage"/>
    <dc:date>2024-07-07T14:29:35.461314</dc:date>
    <dc:format>image/svg+xml</dc:format>
    <dc:creator>
     <cc:Agent>
      <dc:title>Matplotlib v3.8.0, https://matplotlib.org/</dc:title>
     </cc:Agent>
    </dc:creator>
   </cc:Work>
  </rdf:RDF>
 </metadata>
 <defs>
  <style type="text/css">*{stroke-linejoin: round; stroke-linecap: butt}</style>
 </defs>
 <g id="figure_1">
  <g id="patch_1">
   <path d="M 0 720 
L 1440 720 
L 1440 0 
L 0 0 
z
" style="fill: #ffffff"/>
  </g>
  <g id="axes_1">
   <g id="patch_2">
    <path d="M 180 640.8 
L 1296 640.8 
L 1296 86.4 
L 180 86.4 
z
" style="fill: #ffffff"/>
   </g>
   <g id="PolyCollection_1">
    <defs>
     <path id="m296357aaf2" d="M 319.647206 -104.4 
L 319.352794 -104.4 
L 319.272824 -109.372278 
L 319.165807 -114.344557 
L 319.030596 -119.316835 
L 318.868958 -124.289113 
L 318.685236 -129.261392 
L 318.484799 -134.23367 
L 318.27148 -139.205948 
L 318.044745 -144.178227 
L 317.797707 -149.150505 
L 317.517022 -154.122783 
L 317.185067 -159.095062 
L 316.78389 -164.06734 
L 316.299574 -169.039618 
L 315.725402 -174.011897 
L 315.062755 -178.984175 
L 314.319716 -183.956453 
L 313.50844 -188.928732 
L 312.642752 -193.90101 
L 311.737059 -198.873288 
L 310.806521 -203.845567 
L 309.867445 -208.817845 
L 308.9364 -213.790123 
L 308.027155 -218.762402 
L 307.145634 -223.73468 
L 306.284272 -228.706958 
L 305.417533 -233.679237 
L 304.499924 -238.651515 
L 303.466769 -243.623794 
L 302.237164 -248.596072 
L 300.718345 -253.56835 
L 298.81139 -258.540629 
L 296.419114 -263.512907 
L 293.45741 -268.485185 
L 289.870368 -273.457464 
L 285.647469 -278.429742 
L 280.838686 -283.40202 
L 275.561822 -288.374299 
L 269.997015 -293.346577 
L 264.366165 -298.318855 
L 258.899488 -303.291134 
L 253.795859 -308.263412 
L 249.186437 -313.23569 
L 245.111216 -318.207969 
L 241.515474 -323.180247 
L 238.268235 -328.152525 
L 235.199286 -333.124804 
L 232.146369 -338.097082 
L 229.001309 -343.06936 
L 225.74382 -348.041639 
L 222.454609 -353.013917 
L 219.304484 -357.986195 
L 216.522029 -362.958474 
L 214.347439 -367.930752 
L 212.983103 -372.90303 
L 212.551838 -377.875309 
L 213.071548 -382.847587 
L 214.45123 -387.819865 
L 216.508694 -392.792144 
L 219.005845 -397.764422 
L 221.693935 -402.7367 
L 224.359133 -407.708979 
L 226.858794 -412.681257 
L 229.140879 -417.653535 
L 231.243037 -422.625814 
L 233.272942 -427.598092 
L 235.376368 -432.57037 
L 237.7024 -437.542649 
L 240.375011 -442.514927 
L 243.476861 -447.487205 
L 247.045833 -452.459484 
L 251.080073 -457.431762 
L 255.545139 -462.40404 
L 260.37835 -467.376319 
L 265.489406 -472.348597 
L 270.760377 -477.320875 
L 276.049907 -482.293154 
L 281.204817 -487.265432 
L 286.078394 -492.237711 
L 290.550664 -497.209989 
L 294.544217 -502.182267 
L 298.030574 -507.154546 
L 301.025751 -512.126824 
L 303.577715 -517.099102 
L 305.750817 -522.071381 
L 307.612239 -527.043659 
L 309.223332 -532.015937 
L 310.635989 -536.988216 
L 311.892185 -541.960494 
L 313.024431 -546.932772 
L 314.055801 -551.905051 
L 314.999614 -556.877329 
L 315.859729 -561.849607 
L 316.632408 -566.821886 
L 317.309837 -571.794164 
L 317.884484 -576.766442 
L 318.35295 -581.738721 
L 318.718174 -586.710999 
L 318.989553 -591.683277 
L 319.181314 -596.655556 
L 319.818686 -596.655556 
L 319.818686 -596.655556 
L 320.010447 -591.683277 
L 320.281826 -586.710999 
L 320.64705 -581.738721 
L 321.115516 -576.766442 
L 321.690163 -571.794164 
L 322.367592 -566.821886 
L 323.140271 -561.849607 
L 324.000386 -556.877329 
L 324.944199 -551.905051 
L 325.975569 -546.932772 
L 327.107815 -541.960494 
L 328.364011 -536.988216 
L 329.776668 -532.015937 
L 331.387761 -527.043659 
L 333.249183 -522.071381 
L 335.422285 -517.099102 
L 337.974249 -512.126824 
L 340.969426 -507.154546 
L 344.455783 -502.182267 
L 348.449336 -497.209989 
L 352.921606 -492.237711 
L 357.795183 -487.265432 
L 362.950093 -482.293154 
L 368.239623 -477.320875 
L 373.510594 -472.348597 
L 378.62165 -467.376319 
L 383.454861 -462.40404 
L 387.919927 -457.431762 
L 391.954167 -452.459484 
L 395.523139 -447.487205 
L 398.624989 -442.514927 
L 401.2976 -437.542649 
L 403.623632 -432.57037 
L 405.727058 -427.598092 
L 407.756963 -422.625814 
L 409.859121 -417.653535 
L 412.141206 -412.681257 
L 414.640867 -407.708979 
L 417.306065 -402.7367 
L 419.994155 -397.764422 
L 422.491306 -392.792144 
L 424.54877 -387.819865 
L 425.928452 -382.847587 
L 426.448162 -377.875309 
L 426.016897 -372.90303 
L 424.652561 -367.930752 
L 422.477971 -362.958474 
L 419.695516 -357.986195 
L 416.545391 -353.013917 
L 413.25618 -348.041639 
L 409.998691 -343.06936 
L 406.853631 -338.097082 
L 403.800714 -333.124804 
L 400.731765 -328.152525 
L 397.484526 -323.180247 
L 393.888784 -318.207969 
L 389.813563 -313.23569 
L 385.204141 -308.263412 
L 380.100512 -303.291134 
L 374.633835 -298.318855 
L 369.002985 -293.346577 
L 363.438178 -288.374299 
L 358.161314 -283.40202 
L 353.352531 -278.429742 
L 349.129632 -273.457464 
L 345.54259 -268.485185 
L 342.580886 -263.512907 
L 340.18861 -258.540629 
L 338.281655 -253.56835 
L 336.762836 -248.596072 
L 335.533231 -243.623794 
L 334.500076 -238.651515 
L 333.582467 -233.679237 
L 332.715728 -228.706958 
L 331.854366 -223.73468 
L 330.972845 -218.762402 
L 330.0636 -213.790123 
L 329.132555 -208.817845 
L 328.193479 -203.845567 
L 327.262941 -198.873288 
L 326.357248 -193.90101 
L 325.49156 -188.928732 
L 324.680284 -183.956453 
L 323.937245 -178.984175 
L 323.274598 -174.011897 
L 322.700426 -169.039618 
L 322.21611 -164.06734 
L 321.814933 -159.095062 
L 321.482978 -154.122783 
L 321.202293 -149.150505 
L 320.955255 -144.178227 
L 320.72852 -139.205948 
L 320.515201 -134.23367 
L 320.314764 -129.261392 
L 320.131042 -124.289113 
L 319.969404 -119.316835 
L 319.834193 -114.344557 
L 319.727176 -109.372278 
L 319.647206 -104.4 
z
" style="stroke: #3f3f3f; stroke-width: 1.25"/>
    </defs>
    <g clip-path="url(#p9662a844bb)">
     <use xlink:href="#m296357aaf2" x="0" y="720" style="fill: #3274a1; stroke: #3f3f3f; stroke-width: 1.25"/>
    </g>
   </g>
   <g id="PolyCollection_2">
    <defs>
     <path id="m719845f1ec" d="M 598.653183 -146.713665 
L 598.346817 -146.713665 
L 598.267949 -151.217931 
L 598.159714 -155.722198 
L 598.015831 -160.226464 
L 597.829743 -164.73073 
L 597.59437 -169.234996 
L 597.301514 -173.739263 
L 596.940996 -178.243529 
L 596.499751 -182.747795 
L 595.961189 -187.252061 
L 595.305172 -191.756327 
L 594.508836 -196.260594 
L 593.548306 -200.76486 
L 592.401104 -205.269126 
L 591.048884 -209.773392 
L 589.480013 -214.277658 
L 587.691499 -218.781925 
L 585.689898 -223.286191 
L 583.490932 -227.790457 
L 581.117825 -232.294723 
L 578.598592 -236.798989 
L 575.962746 -241.303256 
L 573.238014 -245.807522 
L 570.447523 -250.311788 
L 567.607682 -254.816054 
L 564.726609 -259.32032 
L 561.802838 -263.824587 
L 558.824198 -268.328853 
L 555.767326 -272.833119 
L 552.598865 -277.337385 
L 549.279655 -281.841652 
L 545.772762 -286.345918 
L 542.054924 -290.850184 
L 538.129325 -295.35445 
L 534.036242 -299.858716 
L 529.857778 -304.362983 
L 525.713982 -308.867249 
L 521.749932 -313.371515 
L 518.116104 -317.875781 
L 514.946432 -322.380047 
L 512.339143 -326.884314 
L 510.344428 -331.38858 
L 508.960738 -335.892846 
L 508.139055 -340.397112 
L 507.792672 -344.901378 
L 507.809527 -349.405645 
L 508.064739 -353.909911 
L 508.432144 -358.414177 
L 508.794525 -362.918443 
L 509.052557 -367.42271 
L 509.13224 -371.926976 
L 508.990244 -376.431242 
L 508.616524 -380.935508 
L 508.033954 -385.439774 
L 507.295403 -389.944041 
L 506.479191 -394.448307 
L 505.683944 -398.952573 
L 505.023478 -403.456839 
L 504.621623 -407.961105 
L 504.606282 -412.465372 
L 505.101755 -416.969638 
L 506.21865 -421.473904 
L 508.041518 -425.97817 
L 510.615479 -430.482436 
L 513.934311 -434.986703 
L 517.933234 -439.490969 
L 522.489567 -443.995235 
L 527.433242 -448.499501 
L 532.566869 -453.003767 
L 537.692209 -457.508034 
L 542.637511 -462.0123 
L 547.279154 -466.516566 
L 551.552155 -471.020832 
L 555.447134 -475.525099 
L 558.99541 -480.029365 
L 562.247497 -484.533631 
L 565.252012 -489.037897 
L 568.041314 -493.542163 
L 570.627278 -498.04643 
L 573.006777 -502.550696 
L 575.173144 -507.054962 
L 577.128318 -511.559228 
L 578.890875 -516.063494 
L 580.497292 -520.567761 
L 581.996512 -525.072027 
L 583.440126 -529.576293 
L 584.87157 -534.080559 
L 586.317537 -538.584825 
L 587.783677 -543.089092 
L 589.255161 -547.593358 
L 590.701378 -552.097624 
L 592.083176 -556.60189 
L 593.360775 -561.106156 
L 594.500701 -565.610423 
L 595.480562 -570.114689 
L 596.291169 -574.618955 
L 596.936119 -579.123221 
L 597.429415 -583.627488 
L 597.791993 -588.131754 
L 598.048018 -592.63602 
L 598.951982 -592.63602 
L 598.951982 -592.63602 
L 599.208007 -588.131754 
L 599.570585 -583.627488 
L 600.063881 -579.123221 
L 600.708831 -574.618955 
L 601.519438 -570.114689 
L 602.499299 -565.610423 
L 603.639225 -561.106156 
L 604.916824 -556.60189 
L 606.298622 -552.097624 
L 607.744839 -547.593358 
L 609.216323 -543.089092 
L 610.682463 -538.584825 
L 612.12843 -534.080559 
L 613.559874 -529.576293 
L 615.003488 -525.072027 
L 616.502708 -520.567761 
L 618.109125 -516.063494 
L 619.871682 -511.559228 
L 621.826856 -507.054962 
L 623.993223 -502.550696 
L 626.372722 -498.04643 
L 628.958686 -493.542163 
L 631.747988 -489.037897 
L 634.752503 -484.533631 
L 638.00459 -480.029365 
L 641.552866 -475.525099 
L 645.447845 -471.020832 
L 649.720846 -466.516566 
L 654.362489 -462.0123 
L 659.307791 -457.508034 
L 664.433131 -453.003767 
L 669.566758 -448.499501 
L 674.510433 -443.995235 
L 679.066766 -439.490969 
L 683.065689 -434.986703 
L 686.384521 -430.482436 
L 688.958482 -425.97817 
L 690.78135 -421.473904 
L 691.898245 -416.969638 
L 692.393718 -412.465372 
L 692.378377 -407.961105 
L 691.976522 -403.456839 
L 691.316056 -398.952573 
L 690.520809 -394.448307 
L 689.704597 -389.944041 
L 688.966046 -385.439774 
L 688.383476 -380.935508 
L 688.009756 -376.431242 
L 687.86776 -371.926976 
L 687.947443 -367.42271 
L 688.205475 -362.918443 
L 688.567856 -358.414177 
L 688.935261 -353.909911 
L 689.190473 -349.405645 
L 689.207328 -344.901378 
L 688.860945 -340.397112 
L 688.039262 -335.892846 
L 686.655572 -331.38858 
L 684.660857 -326.884314 
L 682.053568 -322.380047 
L 678.883896 -317.875781 
L 675.250068 -313.371515 
L 671.286018 -308.867249 
L 667.142222 -304.362983 
L 662.963758 -299.858716 
L 658.870675 -295.35445 
L 654.945076 -290.850184 
L 651.227238 -286.345918 
L 647.720345 -281.841652 
L 644.401135 -277.337385 
L 641.232674 -272.833119 
L 638.175802 -268.328853 
L 635.197162 -263.824587 
L 632.273391 -259.32032 
L 629.392318 -254.816054 
L 626.552477 -250.311788 
L 623.761986 -245.807522 
L 621.037254 -241.303256 
L 618.401408 -236.798989 
L 615.882175 -232.294723 
L 613.509068 -227.790457 
L 611.310102 -223.286191 
L 609.308501 -218.781925 
L 607.519987 -214.277658 
L 605.951116 -209.773392 
L 604.598896 -205.269126 
L 603.451694 -200.76486 
L 602.491164 -196.260594 
L 601.694828 -191.756327 
L 601.038811 -187.252061 
L 600.500249 -182.747795 
L 600.059004 -178.243529 
L 599.698486 -173.739263 
L 599.40563 -169.234996 
L 599.170257 -164.73073 
L 598.984169 -160.226464 
L 598.840286 -155.722198 
L 598.732051 -151.217931 
L 598.653183 -146.713665 
z
" style="stroke: #3f3f3f; stroke-width: 1.25"/>
    </defs>
    <g clip-path="url(#p9662a844bb)">
     <use xlink:href="#m719845f1ec" x="0" y="720" style="fill: #3274a1; stroke: #3f3f3f; stroke-width: 1.25"/>
    </g>
   </g>
   <g id="PolyCollection_3">
    <defs>
     <path id="meb846c2f50" d="M 877.852353 -136.681204 
L 877.147647 -136.681204 
L 876.956536 -141.446041 
L 876.68801 -146.210877 
L 876.323853 -150.975713 
L 875.846893 -155.74055 
L 875.243001 -160.505386 
L 874.502985 -165.270222 
L 873.62391 -170.035059 
L 872.609438 -174.799895 
L 871.468915 -179.564731 
L 870.21527 -184.329568 
L 868.86208 -189.094404 
L 867.420469 -193.85924 
L 865.896638 -198.624077 
L 864.290751 -203.388913 
L 862.597536 -208.153749 
L 860.808513 -212.918586 
L 858.915143 -217.683422 
L 856.911855 -222.448258 
L 854.797752 -227.213094 
L 852.576145 -231.977931 
L 850.251716 -236.742767 
L 847.825996 -241.507603 
L 845.292591 -246.27244 
L 842.633976 -251.037276 
L 839.821469 -255.802112 
L 836.819222 -260.566949 
L 833.591932 -265.331785 
L 830.114832 -270.096621 
L 826.383801 -274.861458 
L 822.423268 -279.626294 
L 818.290096 -284.39113 
L 814.072537 -289.155967 
L 809.884347 -293.920803 
L 805.854991 -298.685639 
L 802.117247 -303.450476 
L 798.793697 -308.215312 
L 795.983454 -312.980148 
L 793.750438 -317.744985 
L 792.114501 -322.509821 
L 791.046748 -327.274657 
L 790.470269 -332.039493 
L 790.267133 -336.80433 
L 790.291689 -341.569166 
L 790.389098 -346.334002 
L 790.416862 -351.098839 
L 790.266104 -355.863675 
L 789.878925 -360.628511 
L 789.258468 -365.393348 
L 788.46944 -370.158184 
L 787.628614 -374.92302 
L 786.886872 -379.687857 
L 786.406213 -384.452693 
L 786.336214 -389.217529 
L 786.794469 -393.982366 
L 787.854378 -398.747202 
L 789.541657 -403.512038 
L 791.838738 -408.276875 
L 794.694391 -413.041711 
L 798.035102 -417.806547 
L 801.775077 -422.571384 
L 805.82298 -427.33622 
L 810.085176 -432.101056 
L 814.466612 -436.865893 
L 818.871203 -441.630729 
L 823.20338 -446.395565 
L 827.371681 -451.160401 
L 831.294158 -455.925238 
L 834.904524 -460.690074 
L 838.157515 -465.45491 
L 841.032141 -470.219747 
L 843.532023 -474.984583 
L 845.682783 -479.749419 
L 847.527089 -484.514256 
L 849.118358 -489.279092 
L 850.514239 -494.043928 
L 851.770853 -498.808765 
L 852.938502 -503.573601 
L 854.059186 -508.338437 
L 855.165915 -513.103274 
L 856.283489 -517.86811 
L 857.430128 -522.632946 
L 858.61922 -527.397783 
L 859.860487 -532.162619 
L 861.160114 -536.927455 
L 862.519791 -541.692292 
L 863.935048 -546.457128 
L 865.393612 -551.221964 
L 866.874606 -555.9868 
L 868.349226 -560.751637 
L 869.783102 -565.516473 
L 871.140039 -570.281309 
L 872.386408 -575.046146 
L 873.495256 -579.810982 
L 874.449293 -584.575818 
L 875.242225 -589.340655 
L 875.878332 -594.105491 
L 876.370588 -598.870327 
L 876.737899 -603.635164 
L 877.002095 -608.4 
L 877.997905 -608.4 
L 877.997905 -608.4 
L 878.262101 -603.635164 
L 878.629412 -598.870327 
L 879.121668 -594.105491 
L 879.757775 -589.340655 
L 880.550707 -584.575818 
L 881.504744 -579.810982 
L 882.613592 -575.046146 
L 883.859961 -570.281309 
L 885.216898 -565.516473 
L 886.650774 -560.751637 
L 888.125394 -555.9868 
L 889.606388 -551.221964 
L 891.064952 -546.457128 
L 892.480209 -541.692292 
L 893.839886 -536.927455 
L 895.139513 -532.162619 
L 896.38078 -527.397783 
L 897.569872 -522.632946 
L 898.716511 -517.86811 
L 899.834085 -513.103274 
L 900.940814 -508.338437 
L 902.061498 -503.573601 
L 903.229147 -498.808765 
L 904.485761 -494.043928 
L 905.881642 -489.279092 
L 907.472911 -484.514256 
L 909.317217 -479.749419 
L 911.467977 -474.984583 
L 913.967859 -470.219747 
L 916.842485 -465.45491 
L 920.095476 -460.690074 
L 923.705842 -455.925238 
L 927.628319 -451.160401 
L 931.79662 -446.395565 
L 936.128797 -441.630729 
L 940.533388 -436.865893 
L 944.914824 -432.101056 
L 949.17702 -427.33622 
L 953.224923 -422.571384 
L 956.964898 -417.806547 
L 960.305609 -413.041711 
L 963.161262 -408.276875 
L 965.458343 -403.512038 
L 967.145622 -398.747202 
L 968.205531 -393.982366 
L 968.663786 -389.217529 
L 968.593787 -384.452693 
L 968.113128 -379.687857 
L 967.371386 -374.92302 
L 966.53056 -370.158184 
L 965.741532 -365.393348 
L 965.121075 -360.628511 
L 964.733896 -355.863675 
L 964.583138 -351.098839 
L 964.610902 -346.334002 
L 964.708311 -341.569166 
L 964.732867 -336.80433 
L 964.529731 -332.039493 
L 963.953252 -327.274657 
L 962.885499 -322.509821 
L 961.249562 -317.744985 
L 959.016546 -312.980148 
L 956.206303 -308.215312 
L 952.882753 -303.450476 
L 949.145009 -298.685639 
L 945.115653 -293.920803 
L 940.927463 -289.155967 
L 936.709904 -284.39113 
L 932.576732 -279.626294 
L 928.616199 -274.861458 
L 924.885168 -270.096621 
L 921.408068 -265.331785 
L 918.180778 -260.566949 
L 915.178531 -255.802112 
L 912.366024 -251.037276 
L 909.707409 -246.27244 
L 907.174004 -241.507603 
L 904.748284 -236.742767 
L 902.423855 -231.977931 
L 900.202248 -227.213094 
L 898.088145 -222.448258 
L 896.084857 -217.683422 
L 894.191487 -212.918586 
L 892.402464 -208.153749 
L 890.709249 -203.388913 
L 889.103362 -198.624077 
L 887.579531 -193.85924 
L 886.13792 -189.094404 
L 884.78473 -184.329568 
L 883.531085 -179.564731 
L 882.390562 -174.799895 
L 881.37609 -170.035059 
L 880.497015 -165.270222 
L 879.756999 -160.505386 
L 879.153107 -155.74055 
L 878.676147 -150.975713 
L 878.31199 -146.210877 
L 878.043464 -141.446041 
L 877.852353 -136.681204 
z
" style="stroke: #3f3f3f; stroke-width: 1.25"/>
    </defs>
    <g clip-path="url(#p9662a844bb)">
     <use xlink:href="#meb846c2f50" x="0" y="720" style="fill: #3274a1; stroke: #3f3f3f; stroke-width: 1.25"/>
    </g>
   </g>
   <g id="PolyCollection_4">
    <defs>
     <path id="mc3a85971c8" d="M 1156.778884 -133.324826 
L 1156.221116 -133.324826 
L 1156.070602 -138.017759 
L 1155.870781 -142.710692 
L 1155.622336 -147.403625 
L 1155.334314 -152.096558 
L 1155.024901 -156.789491 
L 1154.719601 -161.482424 
L 1154.446384 -166.175357 
L 1154.228337 -170.86829 
L 1154.075383 -175.561223 
L 1153.977333 -180.254156 
L 1153.900525 -184.947089 
L 1153.789597 -189.640022 
L 1153.574595 -194.332955 
L 1153.18219 -199.025888 
L 1152.548554 -203.718821 
L 1151.630864 -208.411754 
L 1150.414565 -213.104687 
L 1148.914517 -217.79762 
L 1147.169749 -222.490553 
L 1145.233372 -227.183486 
L 1143.160709 -231.876419 
L 1140.999212 -236.569352 
L 1138.782915 -241.262285 
L 1136.532282 -245.955218 
L 1134.258003 -250.648151 
L 1131.965719 -255.341084 
L 1129.658455 -260.034017 
L 1127.334982 -264.72695 
L 1124.984659 -269.419883 
L 1122.58153 -274.112816 
L 1120.081462 -278.805749 
L 1117.425408 -283.498682 
L 1114.549698 -288.191615 
L 1111.401365 -292.884548 
L 1107.954195 -297.577481 
L 1104.220369 -302.270414 
L 1100.25373 -306.963347 
L 1096.143426 -311.65628 
L 1091.999894 -316.349213 
L 1087.937404 -321.042146 
L 1084.057849 -325.735079 
L 1080.438923 -330.428012 
L 1077.127405 -335.120945 
L 1074.136198 -339.813878 
L 1071.443411 -344.506811 
L 1068.993037 -349.199744 
L 1066.698973 -353.892677 
L 1064.455374 -358.58561 
L 1062.155484 -363.278543 
L 1059.717889 -367.971476 
L 1057.114665 -372.664409 
L 1054.392624 -377.357342 
L 1051.67862 -382.050275 
L 1049.163819 -386.743208 
L 1047.068757 -391.436141 
L 1045.598293 -396.129074 
L 1044.9 -400.822007 
L 1045.038905 -405.51494 
L 1045.995858 -410.207873 
L 1047.688364 -414.900806 
L 1050.004941 -419.593739 
L 1052.840024 -424.286672 
L 1056.117578 -428.979605 
L 1059.797069 -433.672538 
L 1063.862862 -438.365471 
L 1068.3044 -443.058404 
L 1073.097207 -447.751337 
L 1078.193124 -452.44427 
L 1083.522991 -457.137203 
L 1089.008927 -461.830136 
L 1094.578996 -466.523069 
L 1100.176433 -471.216002 
L 1105.758835 -475.908935 
L 1111.28803 -480.601868 
L 1116.716036 -485.294801 
L 1121.974404 -489.987734 
L 1126.972496 -494.680667 
L 1131.606167 -499.3736 
L 1135.773919 -504.066533 
L 1139.395041 -508.759466 
L 1142.424188 -513.452399 
L 1144.858916 -518.145332 
L 1146.739319 -522.838265 
L 1148.141018 -527.531198 
L 1149.1637 -532.224131 
L 1149.917439 -536.917064 
L 1150.508813 -541.609997 
L 1151.028608 -546.30293 
L 1151.5428 -550.995863 
L 1152.088182 -555.688796 
L 1152.673249 -560.381729 
L 1153.283847 -565.074662 
L 1153.891991 -569.767595 
L 1154.46556 -574.460528 
L 1154.976605 -579.153461 
L 1155.406714 -583.846394 
L 1155.748891 -588.539327 
L 1156.006448 -593.23226 
L 1156.190033 -597.925193 
L 1156.809967 -597.925193 
L 1156.809967 -597.925193 
L 1156.993552 -593.23226 
L 1157.251109 -588.539327 
L 1157.593286 -583.846394 
L 1158.023395 -579.153461 
L 1158.53444 -574.460528 
L 1159.108009 -569.767595 
L 1159.716153 -565.074662 
L 1160.326751 -560.381729 
L 1160.911818 -555.688796 
L 1161.4572 -550.995863 
L 1161.971392 -546.30293 
L 1162.491187 -541.609997 
L 1163.082561 -536.917064 
L 1163.8363 -532.224131 
L 1164.858982 -527.531198 
L 1166.260681 -522.838265 
L 1168.141084 -518.145332 
L 1170.575812 -513.452399 
L 1173.604959 -508.759466 
L 1177.226081 -504.066533 
L 1181.393833 -499.3736 
L 1186.027504 -494.680667 
L 1191.025596 -489.987734 
L 1196.283964 -485.294801 
L 1201.71197 -480.601868 
L 1207.241165 -475.908935 
L 1212.823567 -471.216002 
L 1218.421004 -466.523069 
L 1223.991073 -461.830136 
L 1229.477009 -457.137203 
L 1234.806876 -452.44427 
L 1239.902793 -447.751337 
L 1244.6956 -443.058404 
L 1249.137138 -438.365471 
L 1253.202931 -433.672538 
L 1256.882422 -428.979605 
L 1260.159976 -424.286672 
L 1262.995059 -419.593739 
L 1265.311636 -414.900806 
L 1267.004142 -410.207873 
L 1267.961095 -405.51494 
L 1268.1 -400.822007 
L 1267.401707 -396.129074 
L 1265.931243 -391.436141 
L 1263.836181 -386.743208 
L 1261.32138 -382.050275 
L 1258.607376 -377.357342 
L 1255.885335 -372.664409 
L 1253.282111 -367.971476 
L 1250.844516 -363.278543 
L 1248.544626 -358.58561 
L 1246.301027 -353.892677 
L 1244.006963 -349.199744 
L 1241.556589 -344.506811 
L 1238.863802 -339.813878 
L 1235.872595 -335.120945 
L 1232.561077 -330.428012 
L 1228.942151 -325.735079 
L 1225.062596 -321.042146 
L 1221.000106 -316.349213 
L 1216.856574 -311.65628 
L 1212.74627 -306.963347 
L 1208.779631 -302.270414 
L 1205.045805 -297.577481 
L 1201.598635 -292.884548 
L 1198.450302 -288.191615 
L 1195.574592 -283.498682 
L 1192.918538 -278.805749 
L 1190.41847 -274.112816 
L 1188.015341 -269.419883 
L 1185.665018 -264.72695 
L 1183.341545 -260.034017 
L 1181.034281 -255.341084 
L 1178.741997 -250.648151 
L 1176.467718 -245.955218 
L 1174.217085 -241.262285 
L 1172.000788 -236.569352 
L 1169.839291 -231.876419 
L 1167.766628 -227.183486 
L 1165.830251 -222.490553 
L 1164.085483 -217.79762 
L 1162.585435 -213.104687 
L 1161.369136 -208.411754 
L 1160.451446 -203.718821 
L 1159.81781 -199.025888 
L 1159.425405 -194.332955 
L 1159.210403 -189.640022 
L 1159.099475 -184.947089 
L 1159.022667 -180.254156 
L 1158.924617 -175.561223 
L 1158.771663 -170.86829 
L 1158.553616 -166.175357 
L 1158.280399 -161.482424 
L 1157.975099 -156.789491 
L 1157.665686 -152.096558 
L 1157.377664 -147.403625 
L 1157.129219 -142.710692 
L 1156.929398 -138.017759 
L 1156.778884 -133.324826 
z
" style="stroke: #3f3f3f; stroke-width: 1.25"/>
    </defs>
    <g clip-path="url(#p9662a844bb)">
     <use xlink:href="#mc3a85971c8" x="0" y="720" style="fill: #3274a1; stroke: #3f3f3f; stroke-width: 1.25"/>
    </g>
   </g>
   <g id="matplotlib.axis_1">
    <g id="xtick_1">
     <g id="line2d_1">
      <defs>
       <path id="mea1216e891" d="M 0 0 
L 0 3.5 
" style="stroke: #000000; stroke-width: 0.8"/>
      </defs>
      <g>
       <use xlink:href="#mea1216e891" x="319.5" y="640.8" style="stroke: #000000; stroke-width: 0.8"/>
      </g>
     </g>
     <g id="text_1">
      <!-- max -->
      <g transform="translate(308.60625 655.398438) scale(0.1 -0.1)">
       <defs>
        <path id="DejaVuSans-6d" d="M 3328 2828 
Q 3544 3216 3844 3400 
Q 4144 3584 4550 3584 
Q 5097 3584 5394 3201 
Q 5691 2819 5691 2113 
L 5691 0 
L 5113 0 
L 5113 2094 
Q 5113 2597 4934 2840 
Q 4756 3084 4391 3084 
Q 3944 3084 3684 2787 
Q 3425 2491 3425 1978 
L 3425 0 
L 2847 0 
L 2847 2094 
Q 2847 2600 2669 2842 
Q 2491 3084 2119 3084 
Q 1678 3084 1418 2786 
Q 1159 2488 1159 1978 
L 1159 0 
L 581 0 
L 581 3500 
L 1159 3500 
L 1159 2956 
Q 1356 3278 1631 3431 
Q 1906 3584 2284 3584 
Q 2666 3584 2933 3390 
Q 3200 3197 3328 2828 
z
" transform="scale(0.015625)"/>
        <path id="DejaVuSans-61" d="M 2194 1759 
Q 1497 1759 1228 1600 
Q 959 1441 959 1056 
Q 959 750 1161 570 
Q 1363 391 1709 391 
Q 2188 391 2477 730 
Q 2766 1069 2766 1631 
L 2766 1759 
L 2194 1759 
z
M 3341 1997 
L 3341 0 
L 2766 0 
L 2766 531 
Q 2569 213 2275 61 
Q 1981 -91 1556 -91 
Q 1019 -91 701 211 
Q 384 513 384 1019 
Q 384 1609 779 1909 
Q 1175 2209 1959 2209 
L 2766 2209 
L 2766 2266 
Q 2766 2663 2505 2880 
Q 2244 3097 1772 3097 
Q 1472 3097 1187 3025 
Q 903 2953 641 2809 
L 641 3341 
Q 956 3463 1253 3523 
Q 1550 3584 1831 3584 
Q 2591 3584 2966 3190 
Q 3341 2797 3341 1997 
z
" transform="scale(0.015625)"/>
        <path id="DejaVuSans-78" d="M 3513 3500 
L 2247 1797 
L 3578 0 
L 2900 0 
L 1881 1375 
L 863 0 
L 184 0 
L 1544 1831 
L 300 3500 
L 978 3500 
L 1906 2253 
L 2834 3500 
L 3513 3500 
z
" transform="scale(0.015625)"/>
       </defs>
       <use xlink:href="#DejaVuSans-6d"/>
       <use xlink:href="#DejaVuSans-61" x="97.412109"/>
       <use xlink:href="#DejaVuSans-78" x="158.691406"/>
      </g>
     </g>
    </g>
    <g id="xtick_2">
     <g id="line2d_2">
      <g>
       <use xlink:href="#mea1216e891" x="598.5" y="640.8" style="stroke: #000000; stroke-width: 0.8"/>
      </g>
     </g>
     <g id="text_2">
      <!-- max_fs -->
      <g transform="translate(580.741406 655.398438) scale(0.1 -0.1)">
       <defs>
        <path id="DejaVuSans-5f" d="M 3263 -1063 
L 3263 -1509 
L -63 -1509 
L -63 -1063 
L 3263 -1063 
z
" transform="scale(0.015625)"/>
        <path id="DejaVuSans-66" d="M 2375 4863 
L 2375 4384 
L 1825 4384 
Q 1516 4384 1395 4259 
Q 1275 4134 1275 3809 
L 1275 3500 
L 2222 3500 
L 2222 3053 
L 1275 3053 
L 1275 0 
L 697 0 
L 697 3053 
L 147 3053 
L 147 3500 
L 697 3500 
L 697 3744 
Q 697 4328 969 4595 
Q 1241 4863 1831 4863 
L 2375 4863 
z
" transform="scale(0.015625)"/>
        <path id="DejaVuSans-73" d="M 2834 3397 
L 2834 2853 
Q 2591 2978 2328 3040 
Q 2066 3103 1784 3103 
Q 1356 3103 1142 2972 
Q 928 2841 928 2578 
Q 928 2378 1081 2264 
Q 1234 2150 1697 2047 
L 1894 2003 
Q 2506 1872 2764 1633 
Q 3022 1394 3022 966 
Q 3022 478 2636 193 
Q 2250 -91 1575 -91 
Q 1294 -91 989 -36 
Q 684 19 347 128 
L 347 722 
Q 666 556 975 473 
Q 1284 391 1588 391 
Q 1994 391 2212 530 
Q 2431 669 2431 922 
Q 2431 1156 2273 1281 
Q 2116 1406 1581 1522 
L 1381 1569 
Q 847 1681 609 1914 
Q 372 2147 372 2553 
Q 372 3047 722 3315 
Q 1072 3584 1716 3584 
Q 2034 3584 2315 3537 
Q 2597 3491 2834 3397 
z
" transform="scale(0.015625)"/>
       </defs>
       <use xlink:href="#DejaVuSans-6d"/>
       <use xlink:href="#DejaVuSans-61" x="97.412109"/>
       <use xlink:href="#DejaVuSans-78" x="158.691406"/>
       <use xlink:href="#DejaVuSans-5f" x="217.871094"/>
       <use xlink:href="#DejaVuSans-66" x="267.871094"/>
       <use xlink:href="#DejaVuSans-73" x="303.076172"/>
      </g>
     </g>
    </g>
    <g id="xtick_3">
     <g id="line2d_3">
      <g>
       <use xlink:href="#mea1216e891" x="877.5" y="640.8" style="stroke: #000000; stroke-width: 0.8"/>
      </g>
     </g>
     <g id="text_3">
      <!-- max_mem_5_fs_glit -->
      <g transform="translate(828.330469 655.398438) scale(0.1 -0.1)">
       <defs>
        <path id="DejaVuSans-65" d="M 3597 1894 
L 3597 1613 
L 953 1613 
Q 991 1019 1311 708 
Q 1631 397 2203 397 
Q 2534 397 2845 478 
Q 3156 559 3463 722 
L 3463 178 
Q 3153 47 2828 -22 
Q 2503 -91 2169 -91 
Q 1331 -91 842 396 
Q 353 884 353 1716 
Q 353 2575 817 3079 
Q 1281 3584 2069 3584 
Q 2775 3584 3186 3129 
Q 3597 2675 3597 1894 
z
M 3022 2063 
Q 3016 2534 2758 2815 
Q 2500 3097 2075 3097 
Q 1594 3097 1305 2825 
Q 1016 2553 972 2059 
L 3022 2063 
z
" transform="scale(0.015625)"/>
        <path id="DejaVuSans-35" d="M 691 4666 
L 3169 4666 
L 3169 4134 
L 1269 4134 
L 1269 2991 
Q 1406 3038 1543 3061 
Q 1681 3084 1819 3084 
Q 2600 3084 3056 2656 
Q 3513 2228 3513 1497 
Q 3513 744 3044 326 
Q 2575 -91 1722 -91 
Q 1428 -91 1123 -41 
Q 819 9 494 109 
L 494 744 
Q 775 591 1075 516 
Q 1375 441 1709 441 
Q 2250 441 2565 725 
Q 2881 1009 2881 1497 
Q 2881 1984 2565 2268 
Q 2250 2553 1709 2553 
Q 1456 2553 1204 2497 
Q 953 2441 691 2322 
L 691 4666 
z
" transform="scale(0.015625)"/>
        <path id="DejaVuSans-67" d="M 2906 1791 
Q 2906 2416 2648 2759 
Q 2391 3103 1925 3103 
Q 1463 3103 1205 2759 
Q 947 2416 947 1791 
Q 947 1169 1205 825 
Q 1463 481 1925 481 
Q 2391 481 2648 825 
Q 2906 1169 2906 1791 
z
M 3481 434 
Q 3481 -459 3084 -895 
Q 2688 -1331 1869 -1331 
Q 1566 -1331 1297 -1286 
Q 1028 -1241 775 -1147 
L 775 -588 
Q 1028 -725 1275 -790 
Q 1522 -856 1778 -856 
Q 2344 -856 2625 -561 
Q 2906 -266 2906 331 
L 2906 616 
Q 2728 306 2450 153 
Q 2172 0 1784 0 
Q 1141 0 747 490 
Q 353 981 353 1791 
Q 353 2603 747 3093 
Q 1141 3584 1784 3584 
Q 2172 3584 2450 3431 
Q 2728 3278 2906 2969 
L 2906 3500 
L 3481 3500 
L 3481 434 
z
" transform="scale(0.015625)"/>
        <path id="DejaVuSans-6c" d="M 603 4863 
L 1178 4863 
L 1178 0 
L 603 0 
L 603 4863 
z
" transform="scale(0.015625)"/>
        <path id="DejaVuSans-69" d="M 603 3500 
L 1178 3500 
L 1178 0 
L 603 0 
L 603 3500 
z
M 603 4863 
L 1178 4863 
L 1178 4134 
L 603 4134 
L 603 4863 
z
" transform="scale(0.015625)"/>
        <path id="DejaVuSans-74" d="M 1172 4494 
L 1172 3500 
L 2356 3500 
L 2356 3053 
L 1172 3053 
L 1172 1153 
Q 1172 725 1289 603 
Q 1406 481 1766 481 
L 2356 481 
L 2356 0 
L 1766 0 
Q 1100 0 847 248 
Q 594 497 594 1153 
L 594 3053 
L 172 3053 
L 172 3500 
L 594 3500 
L 594 4494 
L 1172 4494 
z
" transform="scale(0.015625)"/>
       </defs>
       <use xlink:href="#DejaVuSans-6d"/>
       <use xlink:href="#DejaVuSans-61" x="97.412109"/>
       <use xlink:href="#DejaVuSans-78" x="158.691406"/>
       <use xlink:href="#DejaVuSans-5f" x="217.871094"/>
       <use xlink:href="#DejaVuSans-6d" x="267.871094"/>
       <use xlink:href="#DejaVuSans-65" x="365.283203"/>
       <use xlink:href="#DejaVuSans-6d" x="426.806641"/>
       <use xlink:href="#DejaVuSans-5f" x="524.21875"/>
       <use xlink:href="#DejaVuSans-35" x="574.21875"/>
       <use xlink:href="#DejaVuSans-5f" x="637.841797"/>
       <use xlink:href="#DejaVuSans-66" x="687.841797"/>
       <use xlink:href="#DejaVuSans-73" x="723.046875"/>
       <use xlink:href="#DejaVuSans-5f" x="775.146484"/>
       <use xlink:href="#DejaVuSans-67" x="825.146484"/>
       <use xlink:href="#DejaVuSans-6c" x="888.623047"/>
       <use xlink:href="#DejaVuSans-69" x="916.40625"/>
       <use xlink:href="#DejaVuSans-74" x="944.189453"/>
      </g>
     </g>
    </g>
    <g id="xtick_4">
     <g id="line2d_4">
      <g>
       <use xlink:href="#mea1216e891" x="1156.5" y="640.8" style="stroke: #000000; stroke-width: 0.8"/>
      </g>
     </g>
     <g id="text_4">
      <!-- max_fs_glit -->
      <g transform="translate(1128.328906 655.398438) scale(0.1 -0.1)">
       <use xlink:href="#DejaVuSans-6d"/>
       <use xlink:href="#DejaVuSans-61" x="97.412109"/>
       <use xlink:href="#DejaVuSans-78" x="158.691406"/>
       <use xlink:href="#DejaVuSans-5f" x="217.871094"/>
       <use xlink:href="#DejaVuSans-66" x="267.871094"/>
       <use xlink:href="#DejaVuSans-73" x="303.076172"/>
       <use xlink:href="#DejaVuSans-5f" x="355.175781"/>
       <use xlink:href="#DejaVuSans-67" x="405.175781"/>
       <use xlink:href="#DejaVuSans-6c" x="468.652344"/>
       <use xlink:href="#DejaVuSans-69" x="496.435547"/>
       <use xlink:href="#DejaVuSans-74" x="524.21875"/>
      </g>
     </g>
    </g>
    <g id="text_5">
     <!-- file name -->
     <g transform="translate(714.616406 669.354687) scale(0.1 -0.1)">
      <defs>
       <path id="DejaVuSans-20" transform="scale(0.015625)"/>
       <path id="DejaVuSans-6e" d="M 3513 2113 
L 3513 0 
L 2938 0 
L 2938 2094 
Q 2938 2591 2744 2837 
Q 2550 3084 2163 3084 
Q 1697 3084 1428 2787 
Q 1159 2491 1159 1978 
L 1159 0 
L 581 0 
L 581 3500 
L 1159 3500 
L 1159 2956 
Q 1366 3272 1645 3428 
Q 1925 3584 2291 3584 
Q 2894 3584 3203 3211 
Q 3513 2838 3513 2113 
z
" transform="scale(0.015625)"/>
      </defs>
      <use xlink:href="#DejaVuSans-66"/>
      <use xlink:href="#DejaVuSans-69" x="35.205078"/>
      <use xlink:href="#DejaVuSans-6c" x="62.988281"/>
      <use xlink:href="#DejaVuSans-65" x="90.771484"/>
      <use xlink:href="#DejaVuSans-20" x="152.294922"/>
      <use xlink:href="#DejaVuSans-6e" x="184.082031"/>
      <use xlink:href="#DejaVuSans-61" x="247.460938"/>
      <use xlink:href="#DejaVuSans-6d" x="308.740234"/>
      <use xlink:href="#DejaVuSans-65" x="406.152344"/>
     </g>
    </g>
   </g>
   <g id="matplotlib.axis_2">
    <g id="ytick_1">
     <g id="line2d_5">
      <defs>
       <path id="m5eaab930e8" d="M 0 0 
L -3.5 0 
" style="stroke: #000000; stroke-width: 0.8"/>
      </defs>
      <g>
       <use xlink:href="#m5eaab930e8" x="180" y="615.391791" style="stroke: #000000; stroke-width: 0.8"/>
      </g>
     </g>
     <g id="text_6">
      <!-- −0.2 -->
      <g transform="translate(148.717187 619.19101) scale(0.1 -0.1)">
       <defs>
        <path id="DejaVuSans-2212" d="M 678 2272 
L 4684 2272 
L 4684 1741 
L 678 1741 
L 678 2272 
z
" transform="scale(0.015625)"/>
        <path id="DejaVuSans-30" d="M 2034 4250 
Q 1547 4250 1301 3770 
Q 1056 3291 1056 2328 
Q 1056 1369 1301 889 
Q 1547 409 2034 409 
Q 2525 409 2770 889 
Q 3016 1369 3016 2328 
Q 3016 3291 2770 3770 
Q 2525 4250 2034 4250 
z
M 2034 4750 
Q 2819 4750 3233 4129 
Q 3647 3509 3647 2328 
Q 3647 1150 3233 529 
Q 2819 -91 2034 -91 
Q 1250 -91 836 529 
Q 422 1150 422 2328 
Q 422 3509 836 4129 
Q 1250 4750 2034 4750 
z
" transform="scale(0.015625)"/>
        <path id="DejaVuSans-2e" d="M 684 794 
L 1344 794 
L 1344 0 
L 684 0 
L 684 794 
z
" transform="scale(0.015625)"/>
        <path id="DejaVuSans-32" d="M 1228 531 
L 3431 531 
L 3431 0 
L 469 0 
L 469 531 
Q 828 903 1448 1529 
Q 2069 2156 2228 2338 
Q 2531 2678 2651 2914 
Q 2772 3150 2772 3378 
Q 2772 3750 2511 3984 
Q 2250 4219 1831 4219 
Q 1534 4219 1204 4116 
Q 875 4013 500 3803 
L 500 4441 
Q 881 4594 1212 4672 
Q 1544 4750 1819 4750 
Q 2544 4750 2975 4387 
Q 3406 4025 3406 3419 
Q 3406 3131 3298 2873 
Q 3191 2616 2906 2266 
Q 2828 2175 2409 1742 
Q 1991 1309 1228 531 
z
" transform="scale(0.015625)"/>
       </defs>
       <use xlink:href="#DejaVuSans-2212"/>
       <use xlink:href="#DejaVuSans-30" x="83.789062"/>
       <use xlink:href="#DejaVuSans-2e" x="147.412109"/>
       <use xlink:href="#DejaVuSans-32" x="179.199219"/>
      </g>
     </g>
    </g>
    <g id="ytick_2">
     <g id="line2d_6">
      <g>
       <use xlink:href="#m5eaab930e8" x="180" y="538.531357" style="stroke: #000000; stroke-width: 0.8"/>
      </g>
     </g>
     <g id="text_7">
      <!-- 0.0 -->
      <g transform="translate(157.096875 542.330576) scale(0.1 -0.1)">
       <use xlink:href="#DejaVuSans-30"/>
       <use xlink:href="#DejaVuSans-2e" x="63.623047"/>
       <use xlink:href="#DejaVuSans-30" x="95.410156"/>
      </g>
     </g>
    </g>
    <g id="ytick_3">
     <g id="line2d_7">
      <g>
       <use xlink:href="#m5eaab930e8" x="180" y="461.670924" style="stroke: #000000; stroke-width: 0.8"/>
      </g>
     </g>
     <g id="text_8">
      <!-- 0.2 -->
      <g transform="translate(157.096875 465.470142) scale(0.1 -0.1)">
       <use xlink:href="#DejaVuSans-30"/>
       <use xlink:href="#DejaVuSans-2e" x="63.623047"/>
       <use xlink:href="#DejaVuSans-32" x="95.410156"/>
      </g>
     </g>
    </g>
    <g id="ytick_4">
     <g id="line2d_8">
      <g>
       <use xlink:href="#m5eaab930e8" x="180" y="384.81049" style="stroke: #000000; stroke-width: 0.8"/>
      </g>
     </g>
     <g id="text_9">
      <!-- 0.4 -->
      <g transform="translate(157.096875 388.609709) scale(0.1 -0.1)">
       <defs>
        <path id="DejaVuSans-34" d="M 2419 4116 
L 825 1625 
L 2419 1625 
L 2419 4116 
z
M 2253 4666 
L 3047 4666 
L 3047 1625 
L 3713 1625 
L 3713 1100 
L 3047 1100 
L 3047 0 
L 2419 0 
L 2419 1100 
L 313 1100 
L 313 1709 
L 2253 4666 
z
" transform="scale(0.015625)"/>
       </defs>
       <use xlink:href="#DejaVuSans-30"/>
       <use xlink:href="#DejaVuSans-2e" x="63.623047"/>
       <use xlink:href="#DejaVuSans-34" x="95.410156"/>
      </g>
     </g>
    </g>
    <g id="ytick_5">
     <g id="line2d_9">
      <g>
       <use xlink:href="#m5eaab930e8" x="180" y="307.950056" style="stroke: #000000; stroke-width: 0.8"/>
      </g>
     </g>
     <g id="text_10">
      <!-- 0.6 -->
      <g transform="translate(157.096875 311.749275) scale(0.1 -0.1)">
       <defs>
        <path id="DejaVuSans-36" d="M 2113 2584 
Q 1688 2584 1439 2293 
Q 1191 2003 1191 1497 
Q 1191 994 1439 701 
Q 1688 409 2113 409 
Q 2538 409 2786 701 
Q 3034 994 3034 1497 
Q 3034 2003 2786 2293 
Q 2538 2584 2113 2584 
z
M 3366 4563 
L 3366 3988 
Q 3128 4100 2886 4159 
Q 2644 4219 2406 4219 
Q 1781 4219 1451 3797 
Q 1122 3375 1075 2522 
Q 1259 2794 1537 2939 
Q 1816 3084 2150 3084 
Q 2853 3084 3261 2657 
Q 3669 2231 3669 1497 
Q 3669 778 3244 343 
Q 2819 -91 2113 -91 
Q 1303 -91 875 529 
Q 447 1150 447 2328 
Q 447 3434 972 4092 
Q 1497 4750 2381 4750 
Q 2619 4750 2861 4703 
Q 3103 4656 3366 4563 
z
" transform="scale(0.015625)"/>
       </defs>
       <use xlink:href="#DejaVuSans-30"/>
       <use xlink:href="#DejaVuSans-2e" x="63.623047"/>
       <use xlink:href="#DejaVuSans-36" x="95.410156"/>
      </g>
     </g>
    </g>
    <g id="ytick_6">
     <g id="line2d_10">
      <g>
       <use xlink:href="#m5eaab930e8" x="180" y="231.089623" style="stroke: #000000; stroke-width: 0.8"/>
      </g>
     </g>
     <g id="text_11">
      <!-- 0.8 -->
      <g transform="translate(157.096875 234.888841) scale(0.1 -0.1)">
       <defs>
        <path id="DejaVuSans-38" d="M 2034 2216 
Q 1584 2216 1326 1975 
Q 1069 1734 1069 1313 
Q 1069 891 1326 650 
Q 1584 409 2034 409 
Q 2484 409 2743 651 
Q 3003 894 3003 1313 
Q 3003 1734 2745 1975 
Q 2488 2216 2034 2216 
z
M 1403 2484 
Q 997 2584 770 2862 
Q 544 3141 544 3541 
Q 544 4100 942 4425 
Q 1341 4750 2034 4750 
Q 2731 4750 3128 4425 
Q 3525 4100 3525 3541 
Q 3525 3141 3298 2862 
Q 3072 2584 2669 2484 
Q 3125 2378 3379 2068 
Q 3634 1759 3634 1313 
Q 3634 634 3220 271 
Q 2806 -91 2034 -91 
Q 1263 -91 848 271 
Q 434 634 434 1313 
Q 434 1759 690 2068 
Q 947 2378 1403 2484 
z
M 1172 3481 
Q 1172 3119 1398 2916 
Q 1625 2713 2034 2713 
Q 2441 2713 2670 2916 
Q 2900 3119 2900 3481 
Q 2900 3844 2670 4047 
Q 2441 4250 2034 4250 
Q 1625 4250 1398 4047 
Q 1172 3844 1172 3481 
z
" transform="scale(0.015625)"/>
       </defs>
       <use xlink:href="#DejaVuSans-30"/>
       <use xlink:href="#DejaVuSans-2e" x="63.623047"/>
       <use xlink:href="#DejaVuSans-38" x="95.410156"/>
      </g>
     </g>
    </g>
    <g id="ytick_7">
     <g id="line2d_11">
      <g>
       <use xlink:href="#m5eaab930e8" x="180" y="154.229189" style="stroke: #000000; stroke-width: 0.8"/>
      </g>
     </g>
     <g id="text_12">
      <!-- 1.0 -->
      <g transform="translate(157.096875 158.028408) scale(0.1 -0.1)">
       <defs>
        <path id="DejaVuSans-31" d="M 794 531 
L 1825 531 
L 1825 4091 
L 703 3866 
L 703 4441 
L 1819 4666 
L 2450 4666 
L 2450 531 
L 3481 531 
L 3481 0 
L 794 0 
L 794 531 
z
" transform="scale(0.015625)"/>
       </defs>
       <use xlink:href="#DejaVuSans-31"/>
       <use xlink:href="#DejaVuSans-2e" x="63.623047"/>
       <use xlink:href="#DejaVuSans-30" x="95.410156"/>
      </g>
     </g>
    </g>
    <g id="text_13">
     <!-- cosine similarity -->
     <g transform="translate(142.6375 404.307031) rotate(-90) scale(0.1 -0.1)">
      <defs>
       <path id="DejaVuSans-63" d="M 3122 3366 
L 3122 2828 
Q 2878 2963 2633 3030 
Q 2388 3097 2138 3097 
Q 1578 3097 1268 2742 
Q 959 2388 959 1747 
Q 959 1106 1268 751 
Q 1578 397 2138 397 
Q 2388 397 2633 464 
Q 2878 531 3122 666 
L 3122 134 
Q 2881 22 2623 -34 
Q 2366 -91 2075 -91 
Q 1284 -91 818 406 
Q 353 903 353 1747 
Q 353 2603 823 3093 
Q 1294 3584 2113 3584 
Q 2378 3584 2631 3529 
Q 2884 3475 3122 3366 
z
" transform="scale(0.015625)"/>
       <path id="DejaVuSans-6f" d="M 1959 3097 
Q 1497 3097 1228 2736 
Q 959 2375 959 1747 
Q 959 1119 1226 758 
Q 1494 397 1959 397 
Q 2419 397 2687 759 
Q 2956 1122 2956 1747 
Q 2956 2369 2687 2733 
Q 2419 3097 1959 3097 
z
M 1959 3584 
Q 2709 3584 3137 3096 
Q 3566 2609 3566 1747 
Q 3566 888 3137 398 
Q 2709 -91 1959 -91 
Q 1206 -91 779 398 
Q 353 888 353 1747 
Q 353 2609 779 3096 
Q 1206 3584 1959 3584 
z
" transform="scale(0.015625)"/>
       <path id="DejaVuSans-72" d="M 2631 2963 
Q 2534 3019 2420 3045 
Q 2306 3072 2169 3072 
Q 1681 3072 1420 2755 
Q 1159 2438 1159 1844 
L 1159 0 
L 581 0 
L 581 3500 
L 1159 3500 
L 1159 2956 
Q 1341 3275 1631 3429 
Q 1922 3584 2338 3584 
Q 2397 3584 2469 3576 
Q 2541 3569 2628 3553 
L 2631 2963 
z
" transform="scale(0.015625)"/>
       <path id="DejaVuSans-79" d="M 2059 -325 
Q 1816 -950 1584 -1140 
Q 1353 -1331 966 -1331 
L 506 -1331 
L 506 -850 
L 844 -850 
Q 1081 -850 1212 -737 
Q 1344 -625 1503 -206 
L 1606 56 
L 191 3500 
L 800 3500 
L 1894 763 
L 2988 3500 
L 3597 3500 
L 2059 -325 
z
" transform="scale(0.015625)"/>
      </defs>
      <use xlink:href="#DejaVuSans-63"/>
      <use xlink:href="#DejaVuSans-6f" x="54.980469"/>
      <use xlink:href="#DejaVuSans-73" x="116.162109"/>
      <use xlink:href="#DejaVuSans-69" x="168.261719"/>
      <use xlink:href="#DejaVuSans-6e" x="196.044922"/>
      <use xlink:href="#DejaVuSans-65" x="259.423828"/>
      <use xlink:href="#DejaVuSans-20" x="320.947266"/>
      <use xlink:href="#DejaVuSans-73" x="352.734375"/>
      <use xlink:href="#DejaVuSans-69" x="404.833984"/>
      <use xlink:href="#DejaVuSans-6d" x="432.617188"/>
      <use xlink:href="#DejaVuSans-69" x="530.029297"/>
      <use xlink:href="#DejaVuSans-6c" x="557.8125"/>
      <use xlink:href="#DejaVuSans-61" x="585.595703"/>
      <use xlink:href="#DejaVuSans-72" x="646.875"/>
      <use xlink:href="#DejaVuSans-69" x="687.988281"/>
      <use xlink:href="#DejaVuSans-74" x="715.771484"/>
      <use xlink:href="#DejaVuSans-79" x="754.980469"/>
     </g>
    </g>
   </g>
   <g id="line2d_12">
    <path d="M 319.5 534.175145 
L 319.5 167.269754 
" clip-path="url(#p9662a844bb)" style="fill: none; stroke: #3f3f3f; stroke-width: 1.875; stroke-linecap: square"/>
   </g>
   <g id="line2d_13">
    <path d="M 319.5 388.285575 
L 319.5 289.198269 
" clip-path="url(#p9662a844bb)" style="fill: none; stroke: #3f3f3f; stroke-width: 5.625; stroke-linecap: square"/>
   </g>
   <g id="line2d_14">
    <path d="M 319.5 338.707248 
" clip-path="url(#p9662a844bb)" style="fill: none; stroke: #3f3f3f; stroke-width: 1.5; stroke-linecap: square"/>
    <defs>
     <path id="m439e75c267" d="M 2.34375 0 
L -2.34375 -0 
" style="stroke: #ffffff; stroke-width: 1.125"/>
    </defs>
    <g clip-path="url(#p9662a844bb)">
     <use xlink:href="#m439e75c267" x="319.5" y="338.707248" style="fill: #ffffff; stroke: #ffffff; stroke-width: 1.125"/>
    </g>
   </g>
   <g id="line2d_15">
    <path d="M 598.5 528.916304 
L 598.5 171.734011 
" clip-path="url(#p9662a844bb)" style="fill: none; stroke: #3f3f3f; stroke-width: 1.875; stroke-linecap: square"/>
   </g>
   <g id="line2d_16">
    <path d="M 598.5 395.100878 
L 598.5 291.327927 
" clip-path="url(#p9662a844bb)" style="fill: none; stroke: #3f3f3f; stroke-width: 5.625; stroke-linecap: square"/>
   </g>
   <g id="line2d_17">
    <path d="M 598.5 340.568422 
" clip-path="url(#p9662a844bb)" style="fill: none; stroke: #3f3f3f; stroke-width: 1.5; stroke-linecap: square"/>
    <g clip-path="url(#p9662a844bb)">
     <use xlink:href="#m439e75c267" x="598.5" y="340.568422" style="fill: #ffffff; stroke: #ffffff; stroke-width: 1.125"/>
    </g>
   </g>
   <g id="line2d_18">
    <path d="M 877.5 534.292594 
L 877.5 160.626202 
" clip-path="url(#p9662a844bb)" style="fill: none; stroke: #3f3f3f; stroke-width: 1.875; stroke-linecap: square"/>
   </g>
   <g id="line2d_19">
    <path d="M 877.5 405.886391 
L 877.5 300.248687 
" clip-path="url(#p9662a844bb)" style="fill: none; stroke: #3f3f3f; stroke-width: 5.625; stroke-linecap: square"/>
   </g>
   <g id="line2d_20">
    <path d="M 877.5 353.096816 
" clip-path="url(#p9662a844bb)" style="fill: none; stroke: #3f3f3f; stroke-width: 1.5; stroke-linecap: square"/>
    <g clip-path="url(#p9662a844bb)">
     <use xlink:href="#m439e75c267" x="877.5" y="353.096816" style="fill: #ffffff; stroke: #ffffff; stroke-width: 1.125"/>
    </g>
   </g>
   <g id="line2d_21">
    <path d="M 1156.5 491.730352 
L 1156.5 164.121046 
" clip-path="url(#p9662a844bb)" style="fill: none; stroke: #3f3f3f; stroke-width: 1.875; stroke-linecap: square"/>
   </g>
   <g id="line2d_22">
    <path d="M 1156.5 383.039515 
L 1156.5 288.495181 
" clip-path="url(#p9662a844bb)" style="fill: none; stroke: #3f3f3f; stroke-width: 5.625; stroke-linecap: square"/>
   </g>
   <g id="line2d_23">
    <path d="M 1156.5 328.517588 
" clip-path="url(#p9662a844bb)" style="fill: none; stroke: #3f3f3f; stroke-width: 1.5; stroke-linecap: square"/>
    <g clip-path="url(#p9662a844bb)">
     <use xlink:href="#m439e75c267" x="1156.5" y="328.517588" style="fill: #ffffff; stroke: #ffffff; stroke-width: 1.125"/>
    </g>
   </g>
   <g id="patch_3">
    <path d="M 180 640.8 
L 180 86.4 
" style="fill: none; stroke: #000000; stroke-width: 0.8; stroke-linejoin: miter; stroke-linecap: square"/>
   </g>
   <g id="patch_4">
    <path d="M 1296 640.8 
L 1296 86.4 
" style="fill: none; stroke: #000000; stroke-width: 0.8; stroke-linejoin: miter; stroke-linecap: square"/>
   </g>
   <g id="patch_5">
    <path d="M 180 640.8 
L 1296 640.8 
" style="fill: none; stroke: #000000; stroke-width: 0.8; stroke-linejoin: miter; stroke-linecap: square"/>
   </g>
   <g id="patch_6">
    <path d="M 180 86.4 
L 1296 86.4 
" style="fill: none; stroke: #000000; stroke-width: 0.8; stroke-linejoin: miter; stroke-linecap: square"/>
   </g>
   <g id="text_14">
    <!-- cosine similarity of General Progressive Similarity (progressive), by file name -->
    <g transform="translate(506.682187 80.4) scale(0.12 -0.12)">
     <defs>
      <path id="DejaVuSans-47" d="M 3809 666 
L 3809 1919 
L 2778 1919 
L 2778 2438 
L 4434 2438 
L 4434 434 
Q 4069 175 3628 42 
Q 3188 -91 2688 -91 
Q 1594 -91 976 548 
Q 359 1188 359 2328 
Q 359 3472 976 4111 
Q 1594 4750 2688 4750 
Q 3144 4750 3555 4637 
Q 3966 4525 4313 4306 
L 4313 3634 
Q 3963 3931 3569 4081 
Q 3175 4231 2741 4231 
Q 1884 4231 1454 3753 
Q 1025 3275 1025 2328 
Q 1025 1384 1454 906 
Q 1884 428 2741 428 
Q 3075 428 3337 486 
Q 3600 544 3809 666 
z
" transform="scale(0.015625)"/>
      <path id="DejaVuSans-50" d="M 1259 4147 
L 1259 2394 
L 2053 2394 
Q 2494 2394 2734 2622 
Q 2975 2850 2975 3272 
Q 2975 3691 2734 3919 
Q 2494 4147 2053 4147 
L 1259 4147 
z
M 628 4666 
L 2053 4666 
Q 2838 4666 3239 4311 
Q 3641 3956 3641 3272 
Q 3641 2581 3239 2228 
Q 2838 1875 2053 1875 
L 1259 1875 
L 1259 0 
L 628 0 
L 628 4666 
z
" transform="scale(0.015625)"/>
      <path id="DejaVuSans-76" d="M 191 3500 
L 800 3500 
L 1894 563 
L 2988 3500 
L 3597 3500 
L 2284 0 
L 1503 0 
L 191 3500 
z
" transform="scale(0.015625)"/>
      <path id="DejaVuSans-53" d="M 3425 4513 
L 3425 3897 
Q 3066 4069 2747 4153 
Q 2428 4238 2131 4238 
Q 1616 4238 1336 4038 
Q 1056 3838 1056 3469 
Q 1056 3159 1242 3001 
Q 1428 2844 1947 2747 
L 2328 2669 
Q 3034 2534 3370 2195 
Q 3706 1856 3706 1288 
Q 3706 609 3251 259 
Q 2797 -91 1919 -91 
Q 1588 -91 1214 -16 
Q 841 59 441 206 
L 441 856 
Q 825 641 1194 531 
Q 1563 422 1919 422 
Q 2459 422 2753 634 
Q 3047 847 3047 1241 
Q 3047 1584 2836 1778 
Q 2625 1972 2144 2069 
L 1759 2144 
Q 1053 2284 737 2584 
Q 422 2884 422 3419 
Q 422 4038 858 4394 
Q 1294 4750 2059 4750 
Q 2388 4750 2728 4690 
Q 3069 4631 3425 4513 
z
" transform="scale(0.015625)"/>
      <path id="DejaVuSans-28" d="M 1984 4856 
Q 1566 4138 1362 3434 
Q 1159 2731 1159 2009 
Q 1159 1288 1364 580 
Q 1569 -128 1984 -844 
L 1484 -844 
Q 1016 -109 783 600 
Q 550 1309 550 2009 
Q 550 2706 781 3412 
Q 1013 4119 1484 4856 
L 1984 4856 
z
" transform="scale(0.015625)"/>
      <path id="DejaVuSans-70" d="M 1159 525 
L 1159 -1331 
L 581 -1331 
L 581 3500 
L 1159 3500 
L 1159 2969 
Q 1341 3281 1617 3432 
Q 1894 3584 2278 3584 
Q 2916 3584 3314 3078 
Q 3713 2572 3713 1747 
Q 3713 922 3314 415 
Q 2916 -91 2278 -91 
Q 1894 -91 1617 61 
Q 1341 213 1159 525 
z
M 3116 1747 
Q 3116 2381 2855 2742 
Q 2594 3103 2138 3103 
Q 1681 3103 1420 2742 
Q 1159 2381 1159 1747 
Q 1159 1113 1420 752 
Q 1681 391 2138 391 
Q 2594 391 2855 752 
Q 3116 1113 3116 1747 
z
" transform="scale(0.015625)"/>
      <path id="DejaVuSans-29" d="M 513 4856 
L 1013 4856 
Q 1481 4119 1714 3412 
Q 1947 2706 1947 2009 
Q 1947 1309 1714 600 
Q 1481 -109 1013 -844 
L 513 -844 
Q 928 -128 1133 580 
Q 1338 1288 1338 2009 
Q 1338 2731 1133 3434 
Q 928 4138 513 4856 
z
" transform="scale(0.015625)"/>
      <path id="DejaVuSans-2c" d="M 750 794 
L 1409 794 
L 1409 256 
L 897 -744 
L 494 -744 
L 750 256 
L 750 794 
z
" transform="scale(0.015625)"/>
      <path id="DejaVuSans-62" d="M 3116 1747 
Q 3116 2381 2855 2742 
Q 2594 3103 2138 3103 
Q 1681 3103 1420 2742 
Q 1159 2381 1159 1747 
Q 1159 1113 1420 752 
Q 1681 391 2138 391 
Q 2594 391 2855 752 
Q 3116 1113 3116 1747 
z
M 1159 2969 
Q 1341 3281 1617 3432 
Q 1894 3584 2278 3584 
Q 2916 3584 3314 3078 
Q 3713 2572 3713 1747 
Q 3713 922 3314 415 
Q 2916 -91 2278 -91 
Q 1894 -91 1617 61 
Q 1341 213 1159 525 
L 1159 0 
L 581 0 
L 581 4863 
L 1159 4863 
L 1159 2969 
z
" transform="scale(0.015625)"/>
     </defs>
     <use xlink:href="#DejaVuSans-63"/>
     <use xlink:href="#DejaVuSans-6f" x="54.980469"/>
     <use xlink:href="#DejaVuSans-73" x="116.162109"/>
     <use xlink:href="#DejaVuSans-69" x="168.261719"/>
     <use xlink:href="#DejaVuSans-6e" x="196.044922"/>
     <use xlink:href="#DejaVuSans-65" x="259.423828"/>
     <use xlink:href="#DejaVuSans-20" x="320.947266"/>
     <use xlink:href="#DejaVuSans-73" x="352.734375"/>
     <use xlink:href="#DejaVuSans-69" x="404.833984"/>
     <use xlink:href="#DejaVuSans-6d" x="432.617188"/>
     <use xlink:href="#DejaVuSans-69" x="530.029297"/>
     <use xlink:href="#DejaVuSans-6c" x="557.8125"/>
     <use xlink:href="#DejaVuSans-61" x="585.595703"/>
     <use xlink:href="#DejaVuSans-72" x="646.875"/>
     <use xlink:href="#DejaVuSans-69" x="687.988281"/>
     <use xlink:href="#DejaVuSans-74" x="715.771484"/>
     <use xlink:href="#DejaVuSans-79" x="754.980469"/>
     <use xlink:href="#DejaVuSans-20" x="814.160156"/>
     <use xlink:href="#DejaVuSans-6f" x="845.947266"/>
     <use xlink:href="#DejaVuSans-66" x="907.128906"/>
     <use xlink:href="#DejaVuSans-20" x="942.333984"/>
     <use xlink:href="#DejaVuSans-47" x="974.121094"/>
     <use xlink:href="#DejaVuSans-65" x="1051.611328"/>
     <use xlink:href="#DejaVuSans-6e" x="1113.134766"/>
     <use xlink:href="#DejaVuSans-65" x="1176.513672"/>
     <use xlink:href="#DejaVuSans-72" x="1238.037109"/>
     <use xlink:href="#DejaVuSans-61" x="1279.150391"/>
     <use xlink:href="#DejaVuSans-6c" x="1340.429688"/>
     <use xlink:href="#DejaVuSans-20" x="1368.212891"/>
     <use xlink:href="#DejaVuSans-50" x="1400"/>
     <use xlink:href="#DejaVuSans-72" x="1458.552734"/>
     <use xlink:href="#DejaVuSans-6f" x="1497.416016"/>
     <use xlink:href="#DejaVuSans-67" x="1558.597656"/>
     <use xlink:href="#DejaVuSans-72" x="1622.074219"/>
     <use xlink:href="#DejaVuSans-65" x="1660.9375"/>
     <use xlink:href="#DejaVuSans-73" x="1722.460938"/>
     <use xlink:href="#DejaVuSans-73" x="1774.560547"/>
     <use xlink:href="#DejaVuSans-69" x="1826.660156"/>
     <use xlink:href="#DejaVuSans-76" x="1854.443359"/>
     <use xlink:href="#DejaVuSans-65" x="1913.623047"/>
     <use xlink:href="#DejaVuSans-20" x="1975.146484"/>
     <use xlink:href="#DejaVuSans-53" x="2006.933594"/>
     <use xlink:href="#DejaVuSans-69" x="2070.410156"/>
     <use xlink:href="#DejaVuSans-6d" x="2098.193359"/>
     <use xlink:href="#DejaVuSans-69" x="2195.605469"/>
     <use xlink:href="#DejaVuSans-6c" x="2223.388672"/>
     <use xlink:href="#DejaVuSans-61" x="2251.171875"/>
     <use xlink:href="#DejaVuSans-72" x="2312.451172"/>
     <use xlink:href="#DejaVuSans-69" x="2353.564453"/>
     <use xlink:href="#DejaVuSans-74" x="2381.347656"/>
     <use xlink:href="#DejaVuSans-79" x="2420.556641"/>
     <use xlink:href="#DejaVuSans-20" x="2479.736328"/>
     <use xlink:href="#DejaVuSans-28" x="2511.523438"/>
     <use xlink:href="#DejaVuSans-70" x="2550.537109"/>
     <use xlink:href="#DejaVuSans-72" x="2614.013672"/>
     <use xlink:href="#DejaVuSans-6f" x="2652.876953"/>
     <use xlink:href="#DejaVuSans-67" x="2714.058594"/>
     <use xlink:href="#DejaVuSans-72" x="2777.535156"/>
     <use xlink:href="#DejaVuSans-65" x="2816.398438"/>
     <use xlink:href="#DejaVuSans-73" x="2877.921875"/>
     <use xlink:href="#DejaVuSans-73" x="2930.021484"/>
     <use xlink:href="#DejaVuSans-69" x="2982.121094"/>
     <use xlink:href="#DejaVuSans-76" x="3009.904297"/>
     <use xlink:href="#DejaVuSans-65" x="3069.083984"/>
     <use xlink:href="#DejaVuSans-29" x="3130.607422"/>
     <use xlink:href="#DejaVuSans-2c" x="3169.621094"/>
     <use xlink:href="#DejaVuSans-20" x="3201.408203"/>
     <use xlink:href="#DejaVuSans-62" x="3233.195312"/>
     <use xlink:href="#DejaVuSans-79" x="3296.671875"/>
     <use xlink:href="#DejaVuSans-20" x="3355.851562"/>
     <use xlink:href="#DejaVuSans-66" x="3387.638672"/>
     <use xlink:href="#DejaVuSans-69" x="3422.84375"/>
     <use xlink:href="#DejaVuSans-6c" x="3450.626953"/>
     <use xlink:href="#DejaVuSans-65" x="3478.410156"/>
     <use xlink:href="#DejaVuSans-20" x="3539.933594"/>
     <use xlink:href="#DejaVuSans-6e" x="3571.720703"/>
     <use xlink:href="#DejaVuSans-61" x="3635.099609"/>
     <use xlink:href="#DejaVuSans-6d" x="3696.378906"/>
     <use xlink:href="#DejaVuSans-65" x="3793.791016"/>
    </g>
   </g>
  </g>
 </g>
 <defs>
  <clipPath id="p9662a844bb">
   <rect x="180" y="86.4" width="1116" height="554.4"/>
  </clipPath>
 </defs>
</svg>
