<?xml version="1.0" encoding="utf-8" standalone="no"?>
<!DOCTYPE svg PUBLIC "-//W3C//DTD SVG 1.1//EN"
  "http://www.w3.org/Graphics/SVG/1.1/DTD/svg11.dtd">
<svg xmlns:xlink="http://www.w3.org/1999/xlink" width="1440pt" height="720pt" viewBox="0 0 1440 720" xmlns="http://www.w3.org/2000/svg" version="1.1">
 <metadata>
  <rdf:RDF xmlns:dc="http://purl.org/dc/elements/1.1/" xmlns:cc="http://creativecommons.org/ns#" xmlns:rdf="http://www.w3.org/1999/02/22-rdf-syntax-ns#">
   <cc:Work>
    <dc:type rdf:resource="http://purl.org/dc/dcmitype/StillImage"/>
    <dc:date>2024-07-24T20:33:14.724168</dc:date>
    <dc:format>image/svg+xml</dc:format>
    <dc:creator>
     <cc:Agent>
      <dc:title>Matplotlib v3.8.0, https://matplotlib.org/</dc:title>
     </cc:Agent>
    </dc:creator>
   </cc:Work>
  </rdf:RDF>
 </metadata>
 <defs>
  <style type="text/css">*{stroke-linejoin: round; stroke-linecap: butt}</style>
 </defs>
 <g id="figure_1">
  <g id="patch_1">
   <path d="M 0 720 
L 1440 720 
L 1440 0 
L 0 0 
z
" style="fill: #ffffff"/>
  </g>
  <g id="axes_1">
   <g id="patch_2">
    <path d="M 180 640.8 
L 1296 640.8 
L 1296 86.4 
L 180 86.4 
z
" style="fill: #ffffff"/>
   </g>
   <g id="PolyCollection_1">
    <defs>
     <path id="mba86b37ad9" d="M 235.971726 -104.4 
L 235.628274 -104.4 
L 235.559866 -108.748002 
L 235.471316 -113.096004 
L 235.359524 -117.444006 
L 235.221885 -121.792008 
L 235.05663 -126.14001 
L 234.86316 -130.488012 
L 234.642304 -134.836014 
L 234.396467 -139.184016 
L 234.129618 -143.532018 
L 233.847097 -147.88002 
L 233.555228 -152.228022 
L 233.260798 -156.576024 
L 232.970418 -160.924026 
L 232.689866 -165.272028 
L 232.423488 -169.62003 
L 232.173707 -173.968032 
L 231.940737 -178.316034 
L 231.722496 -182.664036 
L 231.514765 -187.012038 
L 231.311564 -191.36004 
L 231.105715 -195.708042 
L 230.889565 -200.056045 
L 230.655768 -204.404047 
L 230.39808 -208.752049 
L 230.112042 -213.100051 
L 229.795455 -217.448053 
L 229.448549 -221.796055 
L 229.073771 -226.144057 
L 228.675172 -230.492059 
L 228.257435 -234.840061 
L 227.824667 -239.188063 
L 227.379116 -243.536065 
L 226.920054 -247.884067 
L 226.443003 -252.232069 
L 225.939498 -256.580071 
L 225.397463 -260.928073 
L 224.802181 -265.276075 
L 224.137771 -269.624077 
L 223.388967 -273.972079 
L 222.542989 -278.320081 
L 221.591266 -282.668083 
L 220.530829 -287.016085 
L 219.365242 -291.364087 
L 218.104997 -295.712089 
L 216.767396 -300.060091 
L 215.37595 -304.408093 
L 213.959383 -308.756095 
L 212.550315 -313.104097 
L 211.183705 -317.452099 
L 209.895133 -321.800101 
L 208.718984 -326.148103 
L 207.68663 -330.496105 
L 206.824711 -334.844107 
L 206.153658 -339.192109 
L 205.686561 -343.540111 
L 205.42854 -347.888113 
L 205.376687 -352.236115 
L 205.520603 -356.584117 
L 205.843506 -360.932119 
L 206.32378 -365.280121 
L 206.93679 -369.628123 
L 207.656784 -373.976125 
L 208.458652 -378.324127 
L 209.319392 -382.67213 
L 210.219161 -387.020132 
L 211.141864 -391.368134 
L 212.0753 -395.716136 
L 213.010947 -400.064138 
L 213.943489 -404.41214 
L 214.870221 -408.760142 
L 215.790441 -413.108144 
L 216.704902 -417.456146 
L 217.615368 -421.804148 
L 218.524277 -426.15215 
L 219.43445 -430.500152 
L 220.348815 -434.848154 
L 221.270084 -439.196156 
L 222.200369 -443.544158 
L 223.140733 -447.89216 
L 224.090741 -452.240162 
L 225.048062 -456.588164 
L 226.008222 -460.936166 
L 226.964555 -465.284168 
L 227.908415 -469.63217 
L 228.829628 -473.980172 
L 229.717158 -478.328174 
L 230.55991 -482.676176 
L 231.347562 -487.024178 
L 232.071344 -491.37218 
L 232.72466 -495.720182 
L 233.303488 -500.068184 
L 233.806539 -504.416186 
L 234.235165 -508.764188 
L 234.593057 -513.11219 
L 234.885785 -517.460192 
L 235.12024 -521.808194 
L 235.304067 -526.156196 
L 235.445122 -530.504198 
L 235.551021 -534.8522 
L 236.048979 -534.8522 
L 236.048979 -534.8522 
L 236.154878 -530.504198 
L 236.295933 -526.156196 
L 236.47976 -521.808194 
L 236.714215 -517.460192 
L 237.006943 -513.11219 
L 237.364835 -508.764188 
L 237.793461 -504.416186 
L 238.296512 -500.068184 
L 238.87534 -495.720182 
L 239.528656 -491.37218 
L 240.252438 -487.024178 
L 241.04009 -482.676176 
L 241.882842 -478.328174 
L 242.770372 -473.980172 
L 243.691585 -469.63217 
L 244.635445 -465.284168 
L 245.591778 -460.936166 
L 246.551938 -456.588164 
L 247.509259 -452.240162 
L 248.459267 -447.89216 
L 249.399631 -443.544158 
L 250.329916 -439.196156 
L 251.251185 -434.848154 
L 252.16555 -430.500152 
L 253.075723 -426.15215 
L 253.984632 -421.804148 
L 254.895098 -417.456146 
L 255.809559 -413.108144 
L 256.729779 -408.760142 
L 257.656511 -404.41214 
L 258.589053 -400.064138 
L 259.5247 -395.716136 
L 260.458136 -391.368134 
L 261.380839 -387.020132 
L 262.280608 -382.67213 
L 263.141348 -378.324127 
L 263.943216 -373.976125 
L 264.66321 -369.628123 
L 265.27622 -365.280121 
L 265.756494 -360.932119 
L 266.079397 -356.584117 
L 266.223313 -352.236115 
L 266.17146 -347.888113 
L 265.913439 -343.540111 
L 265.446342 -339.192109 
L 264.775289 -334.844107 
L 263.91337 -330.496105 
L 262.881016 -326.148103 
L 261.704867 -321.800101 
L 260.416295 -317.452099 
L 259.049685 -313.104097 
L 257.640617 -308.756095 
L 256.22405 -304.408093 
L 254.832604 -300.060091 
L 253.495003 -295.712089 
L 252.234758 -291.364087 
L 251.069171 -287.016085 
L 250.008734 -282.668083 
L 249.057011 -278.320081 
L 248.211033 -273.972079 
L 247.462229 -269.624077 
L 246.797819 -265.276075 
L 246.202537 -260.928073 
L 245.660502 -256.580071 
L 245.156997 -252.232069 
L 244.679946 -247.884067 
L 244.220884 -243.536065 
L 243.775333 -239.188063 
L 243.342565 -234.840061 
L 242.924828 -230.492059 
L 242.526229 -226.144057 
L 242.151451 -221.796055 
L 241.804545 -217.448053 
L 241.487958 -213.100051 
L 241.20192 -208.752049 
L 240.944232 -204.404047 
L 240.710435 -200.056045 
L 240.494285 -195.708042 
L 240.288436 -191.36004 
L 240.085235 -187.012038 
L 239.877504 -182.664036 
L 239.659263 -178.316034 
L 239.426293 -173.968032 
L 239.176512 -169.62003 
L 238.910134 -165.272028 
L 238.629582 -160.924026 
L 238.339202 -156.576024 
L 238.044772 -152.228022 
L 237.752903 -147.88002 
L 237.470382 -143.532018 
L 237.203533 -139.184016 
L 236.957696 -134.836014 
L 236.73684 -130.488012 
L 236.54337 -126.14001 
L 236.378115 -121.792008 
L 236.240476 -117.444006 
L 236.128684 -113.096004 
L 236.040134 -108.748002 
L 235.971726 -104.4 
z
" style="stroke: #3f3f3f; stroke-width: 1.25"/>
    </defs>
    <g clip-path="url(#p31782c1c8c)">
     <use xlink:href="#mba86b37ad9" x="0" y="720" style="fill: #3274a1; stroke: #3f3f3f; stroke-width: 1.25"/>
    </g>
   </g>
   <g id="PolyCollection_2">
    <defs>
     <path id="m9cd6f60499" d="M 347.699936 -152.715765 
L 347.100064 -152.715765 
L 347.008311 -156.408435 
L 346.896454 -160.101105 
L 346.762606 -163.793775 
L 346.605398 -167.486445 
L 346.424142 -171.179115 
L 346.218963 -174.871784 
L 345.990866 -178.564454 
L 345.741729 -182.257124 
L 345.474204 -185.949794 
L 345.191528 -189.642464 
L 344.897255 -193.335134 
L 344.594932 -197.027804 
L 344.287757 -200.720474 
L 343.97826 -204.413144 
L 343.668043 -208.105814 
L 343.357621 -211.798484 
L 343.046384 -215.491154 
L 342.732674 -219.183824 
L 342.413971 -222.876494 
L 342.087155 -226.569164 
L 341.748781 -230.261834 
L 341.395339 -233.954504 
L 341.023439 -237.647174 
L 340.629891 -241.339844 
L 340.211671 -245.032514 
L 339.765788 -248.725184 
L 339.289079 -252.417854 
L 338.778002 -256.110524 
L 338.228463 -259.803194 
L 337.635758 -263.495864 
L 336.994669 -267.188534 
L 336.299733 -270.881204 
L 335.545689 -274.573874 
L 334.728062 -278.266544 
L 333.843842 -281.959214 
L 332.892167 -285.651884 
L 331.874953 -289.344554 
L 330.797376 -293.037224 
L 329.66816 -296.729894 
L 328.499633 -300.422564 
L 327.307532 -304.115233 
L 326.110585 -307.807903 
L 324.929884 -311.500573 
L 323.788113 -315.193243 
L 322.70867 -318.885913 
L 321.71473 -322.578583 
L 320.828294 -326.271253 
L 320.069237 -329.963923 
L 319.454393 -333.656593 
L 318.996683 -337.349263 
L 318.704322 -341.041933 
L 318.580128 -344.734603 
L 318.620992 -348.427273 
L 318.817566 -352.119943 
L 319.154232 -355.812613 
L 319.60943 -359.505283 
L 320.156372 -363.197953 
L 320.764176 -366.890623 
L 321.399387 -370.583293 
L 322.027829 -374.275963 
L 322.616669 -377.968633 
L 323.136552 -381.661303 
L 323.563637 -385.353973 
L 323.881367 -389.046643 
L 324.081805 -392.739313 
L 324.166413 -396.431983 
L 324.14619 -400.124653 
L 324.041138 -403.817323 
L 323.879086 -407.509993 
L 323.69394 -411.202663 
L 323.523496 -414.895333 
L 323.406968 -418.588003 
L 323.382412 -422.280673 
L 323.484229 -425.973343 
L 323.74093 -429.666013 
L 324.173321 -433.358682 
L 324.793224 -437.051352 
L 325.602827 -440.744022 
L 326.594693 -444.436692 
L 327.752405 -448.129362 
L 329.051785 -451.822032 
L 330.462575 -455.514702 
L 331.950426 -459.207372 
L 333.479041 -462.900042 
L 335.012296 -466.592712 
L 336.516181 -470.285382 
L 337.960429 -473.978052 
L 339.31975 -477.670722 
L 340.574601 -481.363392 
L 341.711501 -485.056062 
L 342.722919 -488.748732 
L 343.606802 -492.441402 
L 344.365838 -496.134072 
L 345.006531 -499.826742 
L 345.538223 -503.519412 
L 345.972104 -507.212082 
L 346.320324 -510.904752 
L 346.595214 -514.597422 
L 346.808684 -518.290092 
L 347.991316 -518.290092 
L 347.991316 -518.290092 
L 348.204786 -514.597422 
L 348.479676 -510.904752 
L 348.827896 -507.212082 
L 349.261777 -503.519412 
L 349.793469 -499.826742 
L 350.434162 -496.134072 
L 351.193198 -492.441402 
L 352.077081 -488.748732 
L 353.088499 -485.056062 
L 354.225399 -481.363392 
L 355.48025 -477.670722 
L 356.839571 -473.978052 
L 358.283819 -470.285382 
L 359.787704 -466.592712 
L 361.320959 -462.900042 
L 362.849574 -459.207372 
L 364.337425 -455.514702 
L 365.748215 -451.822032 
L 367.047595 -448.129362 
L 368.205307 -444.436692 
L 369.197173 -440.744022 
L 370.006776 -437.051352 
L 370.626679 -433.358682 
L 371.05907 -429.666013 
L 371.315771 -425.973343 
L 371.417588 -422.280673 
L 371.393032 -418.588003 
L 371.276504 -414.895333 
L 371.10606 -411.202663 
L 370.920914 -407.509993 
L 370.758862 -403.817323 
L 370.65381 -400.124653 
L 370.633587 -396.431983 
L 370.718195 -392.739313 
L 370.918633 -389.046643 
L 371.236363 -385.353973 
L 371.663448 -381.661303 
L 372.183331 -377.968633 
L 372.772171 -374.275963 
L 373.400613 -370.583293 
L 374.035824 -366.890623 
L 374.643628 -363.197953 
L 375.19057 -359.505283 
L 375.645768 -355.812613 
L 375.982434 -352.119943 
L 376.179008 -348.427273 
L 376.219872 -344.734603 
L 376.095678 -341.041933 
L 375.803317 -337.349263 
L 375.345607 -333.656593 
L 374.730763 -329.963923 
L 373.971706 -326.271253 
L 373.08527 -322.578583 
L 372.09133 -318.885913 
L 371.011887 -315.193243 
L 369.870116 -311.500573 
L 368.689415 -307.807903 
L 367.492468 -304.115233 
L 366.300367 -300.422564 
L 365.13184 -296.729894 
L 364.002624 -293.037224 
L 362.925047 -289.344554 
L 361.907833 -285.651884 
L 360.956158 -281.959214 
L 360.071938 -278.266544 
L 359.254311 -274.573874 
L 358.500267 -270.881204 
L 357.805331 -267.188534 
L 357.164242 -263.495864 
L 356.571537 -259.803194 
L 356.021998 -256.110524 
L 355.510921 -252.417854 
L 355.034212 -248.725184 
L 354.588329 -245.032514 
L 354.170109 -241.339844 
L 353.776561 -237.647174 
L 353.404661 -233.954504 
L 353.051219 -230.261834 
L 352.712845 -226.569164 
L 352.386029 -222.876494 
L 352.067326 -219.183824 
L 351.753616 -215.491154 
L 351.442379 -211.798484 
L 351.131957 -208.105814 
L 350.82174 -204.413144 
L 350.512243 -200.720474 
L 350.205068 -197.027804 
L 349.902745 -193.335134 
L 349.608472 -189.642464 
L 349.325796 -185.949794 
L 349.058271 -182.257124 
L 348.809134 -178.564454 
L 348.581037 -174.871784 
L 348.375858 -171.179115 
L 348.194602 -167.486445 
L 348.037394 -163.793775 
L 347.903546 -160.101105 
L 347.791689 -156.408435 
L 347.699936 -152.715765 
z
" style="stroke: #3f3f3f; stroke-width: 1.25"/>
    </defs>
    <g clip-path="url(#p31782c1c8c)">
     <use xlink:href="#m9cd6f60499" x="0" y="720" style="fill: #3274a1; stroke: #3f3f3f; stroke-width: 1.25"/>
    </g>
   </g>
   <g id="PolyCollection_3">
    <defs>
     <path id="m48d8d57c97" d="M 459.311224 -174.219514 
L 458.688776 -174.219514 
L 458.589539 -178.096193 
L 458.46791 -181.972872 
L 458.321836 -185.849551 
L 458.149911 -189.726229 
L 457.951572 -193.602908 
L 457.727228 -197.479587 
L 457.478325 -201.356265 
L 457.207293 -205.232944 
L 456.91739 -209.109623 
L 456.612429 -212.986301 
L 456.296417 -216.86298 
L 455.973124 -220.739659 
L 455.645639 -224.616337 
L 455.315943 -228.493016 
L 454.984561 -232.369695 
L 454.65031 -236.246374 
L 454.310192 -240.123052 
L 453.959426 -243.999731 
L 453.591622 -247.87641 
L 453.19909 -251.753088 
L 452.773237 -255.629767 
L 452.305043 -259.506446 
L 451.785553 -263.383124 
L 451.206362 -267.259803 
L 450.560056 -271.136482 
L 449.840583 -275.01316 
L 449.043534 -278.889839 
L 448.166334 -282.766518 
L 447.208364 -286.643197 
L 446.171033 -290.519875 
L 445.057839 -294.396554 
L 443.874446 -298.273233 
L 442.628824 -302.149911 
L 441.331422 -306.02659 
L 439.995373 -309.903269 
L 438.636663 -313.779947 
L 437.274166 -317.656626 
L 435.929453 -321.533305 
L 434.626266 -325.409983 
L 433.389596 -329.286662 
L 432.244337 -333.163341 
L 431.21359 -337.04002 
L 430.316722 -340.916698 
L 429.567417 -344.793377 
L 428.971963 -348.670056 
L 428.528051 -352.546734 
L 428.224364 -356.423413 
L 428.041122 -360.300092 
L 427.95168 -364.17677 
L 427.925121 -368.053449 
L 427.929639 -371.930128 
L 427.936377 -375.806806 
L 427.92326 -379.683485 
L 427.878347 -383.560164 
L 427.802207 -387.436843 
L 427.708934 -391.313521 
L 427.62557 -395.1902 
L 427.589909 -399.066879 
L 427.646858 -402.943557 
L 427.843763 -406.820236 
L 428.225237 -410.696915 
L 428.82812 -414.573593 
L 429.677179 -418.450272 
L 430.782071 -422.326951 
L 432.135891 -426.203629 
L 433.715446 -430.080308 
L 435.483136 -433.956987 
L 437.390165 -437.833666 
L 439.380629 -441.710344 
L 441.395993 -445.587023 
L 443.379453 -449.463702 
L 445.279756 -453.34038 
L 447.05418 -457.217059 
L 448.670489 -461.093738 
L 450.107835 -464.970416 
L 451.356674 -468.847095 
L 452.417847 -472.723774 
L 453.301047 -476.600452 
L 454.022865 -480.477131 
L 454.604658 -484.35381 
L 455.070394 -488.230488 
L 455.444663 -492.107167 
L 455.750949 -495.983846 
L 456.010264 -499.860525 
L 456.240184 -503.737203 
L 456.454304 -507.613882 
L 456.662101 -511.490561 
L 456.869142 -515.367239 
L 457.077589 -519.243918 
L 457.28689 -523.120597 
L 457.494574 -526.997275 
L 457.697063 -530.873954 
L 457.8904 -534.750633 
L 458.070864 -538.627311 
L 458.235403 -542.50399 
L 458.381907 -546.380669 
L 458.509301 -550.257348 
L 458.617508 -554.134026 
L 458.707313 -558.010705 
L 459.292687 -558.010705 
L 459.292687 -558.010705 
L 459.382492 -554.134026 
L 459.490699 -550.257348 
L 459.618093 -546.380669 
L 459.764597 -542.50399 
L 459.929136 -538.627311 
L 460.1096 -534.750633 
L 460.302937 -530.873954 
L 460.505426 -526.997275 
L 460.71311 -523.120597 
L 460.922411 -519.243918 
L 461.130858 -515.367239 
L 461.337899 -511.490561 
L 461.545696 -507.613882 
L 461.759816 -503.737203 
L 461.989736 -499.860525 
L 462.249051 -495.983846 
L 462.555337 -492.107167 
L 462.929606 -488.230488 
L 463.395342 -484.35381 
L 463.977135 -480.477131 
L 464.698953 -476.600452 
L 465.582153 -472.723774 
L 466.643326 -468.847095 
L 467.892165 -464.970416 
L 469.329511 -461.093738 
L 470.94582 -457.217059 
L 472.720244 -453.34038 
L 474.620547 -449.463702 
L 476.604007 -445.587023 
L 478.619371 -441.710344 
L 480.609835 -437.833666 
L 482.516864 -433.956987 
L 484.284554 -430.080308 
L 485.864109 -426.203629 
L 487.217929 -422.326951 
L 488.322821 -418.450272 
L 489.17188 -414.573593 
L 489.774763 -410.696915 
L 490.156237 -406.820236 
L 490.353142 -402.943557 
L 490.410091 -399.066879 
L 490.37443 -395.1902 
L 490.291066 -391.313521 
L 490.197793 -387.436843 
L 490.121653 -383.560164 
L 490.07674 -379.683485 
L 490.063623 -375.806806 
L 490.070361 -371.930128 
L 490.074879 -368.053449 
L 490.04832 -364.17677 
L 489.958878 -360.300092 
L 489.775636 -356.423413 
L 489.471949 -352.546734 
L 489.028037 -348.670056 
L 488.432583 -344.793377 
L 487.683278 -340.916698 
L 486.78641 -337.04002 
L 485.755663 -333.163341 
L 484.610404 -329.286662 
L 483.373734 -325.409983 
L 482.070547 -321.533305 
L 480.725834 -317.656626 
L 479.363337 -313.779947 
L 478.004627 -309.903269 
L 476.668578 -306.02659 
L 475.371176 -302.149911 
L 474.125554 -298.273233 
L 472.942161 -294.396554 
L 471.828967 -290.519875 
L 470.791636 -286.643197 
L 469.833666 -282.766518 
L 468.956466 -278.889839 
L 468.159417 -275.01316 
L 467.439944 -271.136482 
L 466.793638 -267.259803 
L 466.214447 -263.383124 
L 465.694957 -259.506446 
L 465.226763 -255.629767 
L 464.80091 -251.753088 
L 464.408378 -247.87641 
L 464.040574 -243.999731 
L 463.689808 -240.123052 
L 463.34969 -236.246374 
L 463.015439 -232.369695 
L 462.684057 -228.493016 
L 462.354361 -224.616337 
L 462.026876 -220.739659 
L 461.703583 -216.86298 
L 461.387571 -212.986301 
L 461.08261 -209.109623 
L 460.792707 -205.232944 
L 460.521675 -201.356265 
L 460.272772 -197.479587 
L 460.048428 -193.602908 
L 459.850089 -189.726229 
L 459.678164 -185.849551 
L 459.53209 -181.972872 
L 459.410461 -178.096193 
L 459.311224 -174.219514 
z
" style="stroke: #3f3f3f; stroke-width: 1.25"/>
    </defs>
    <g clip-path="url(#p31782c1c8c)">
     <use xlink:href="#m48d8d57c97" x="0" y="720" style="fill: #3274a1; stroke: #3f3f3f; stroke-width: 1.25"/>
    </g>
   </g>
   <g id="PolyCollection_4">
    <defs>
     <path id="m7db02f56e2" d="M 570.861243 -116.022108 
L 570.338757 -116.022108 
L 570.26326 -120.684058 
L 570.173243 -125.346007 
L 570.068213 -130.007957 
L 569.948356 -134.669906 
L 569.814652 -139.331855 
L 569.668931 -143.993805 
L 569.513847 -148.655754 
L 569.352736 -153.317703 
L 569.189364 -157.979653 
L 569.027553 -162.641602 
L 568.870707 -167.303552 
L 568.721276 -171.965501 
L 568.580194 -176.62745 
L 568.446372 -181.2894 
L 568.316288 -185.951349 
L 568.183761 -190.613298 
L 568.039955 -195.275248 
L 567.873657 -199.937197 
L 567.671842 -204.599147 
L 567.42052 -209.261096 
L 567.105819 -213.923045 
L 566.715224 -218.584995 
L 566.238881 -223.246944 
L 565.670833 -227.908894 
L 565.010067 -232.570843 
L 564.261235 -237.232792 
L 563.434953 -241.894742 
L 562.547584 -246.556691 
L 561.620503 -251.21864 
L 560.678847 -255.88059 
L 559.749845 -260.542539 
L 558.860857 -265.204489 
L 558.037305 -269.866438 
L 557.300666 -274.528387 
L 556.666742 -279.190337 
L 556.144337 -283.852286 
L 555.734491 -288.514235 
L 555.430301 -293.176185 
L 555.217336 -297.838134 
L 555.074594 -302.500084 
L 554.975893 -307.162033 
L 554.891556 -311.823982 
L 554.790286 -316.485932 
L 554.64107 -321.147881 
L 554.415026 -325.80983 
L 554.0871 -330.47178 
L 553.637546 -335.133729 
L 553.053149 -339.795679 
L 552.328153 -344.457628 
L 551.464859 -349.119577 
L 550.473868 -353.781527 
L 549.37396 -358.443476 
L 548.191567 -363.105425 
L 546.959876 -367.767375 
L 545.717549 -372.429324 
L 544.50713 -377.091274 
L 543.373186 -381.753223 
L 542.360279 -386.415172 
L 541.510868 -391.077122 
L 540.863257 -395.739071 
L 540.449695 -400.40102 
L 540.294749 -405.06297 
L 540.414033 -409.724919 
L 540.813388 -414.386869 
L 541.488547 -419.048818 
L 542.425335 -423.710767 
L 543.600388 -428.372717 
L 544.982351 -433.034666 
L 546.533509 -437.696615 
L 548.211722 -442.358565 
L 549.972574 -447.020514 
L 551.771575 -451.682464 
L 553.56628 -456.344413 
L 555.318188 -461.006362 
L 556.994301 -465.668312 
L 558.568238 -470.330261 
L 560.020864 -474.99221 
L 561.3404 -479.65416 
L 562.522062 -484.316109 
L 563.567278 -488.978059 
L 564.48259 -493.640008 
L 565.278358 -498.301957 
L 565.967398 -502.963907 
L 566.563661 -507.625856 
L 567.08108 -512.287805 
L 567.532642 -516.949755 
L 567.929734 -521.611704 
L 568.281782 -526.273654 
L 568.596154 -530.935603 
L 568.878277 -535.597552 
L 569.131924 -540.259502 
L 569.359585 -544.921451 
L 569.562871 -549.5834 
L 569.742895 -554.24535 
L 569.900584 -558.907299 
L 570.03692 -563.569249 
L 570.153075 -568.231198 
L 570.250474 -572.893147 
L 570.330782 -577.555097 
L 570.869218 -577.555097 
L 570.869218 -577.555097 
L 570.949526 -572.893147 
L 571.046925 -568.231198 
L 571.16308 -563.569249 
L 571.299416 -558.907299 
L 571.457105 -554.24535 
L 571.637129 -549.5834 
L 571.840415 -544.921451 
L 572.068076 -540.259502 
L 572.321723 -535.597552 
L 572.603846 -530.935603 
L 572.918218 -526.273654 
L 573.270266 -521.611704 
L 573.667358 -516.949755 
L 574.11892 -512.287805 
L 574.636339 -507.625856 
L 575.232602 -502.963907 
L 575.921642 -498.301957 
L 576.71741 -493.640008 
L 577.632722 -488.978059 
L 578.677938 -484.316109 
L 579.8596 -479.65416 
L 581.179136 -474.99221 
L 582.631762 -470.330261 
L 584.205699 -465.668312 
L 585.881812 -461.006362 
L 587.63372 -456.344413 
L 589.428425 -451.682464 
L 591.227426 -447.020514 
L 592.988278 -442.358565 
L 594.666491 -437.696615 
L 596.217649 -433.034666 
L 597.599612 -428.372717 
L 598.774665 -423.710767 
L 599.711453 -419.048818 
L 600.386612 -414.386869 
L 600.785967 -409.724919 
L 600.905251 -405.06297 
L 600.750305 -400.40102 
L 600.336743 -395.739071 
L 599.689132 -391.077122 
L 598.839721 -386.415172 
L 597.826814 -381.753223 
L 596.69287 -377.091274 
L 595.482451 -372.429324 
L 594.240124 -367.767375 
L 593.008433 -363.105425 
L 591.82604 -358.443476 
L 590.726132 -353.781527 
L 589.735141 -349.119577 
L 588.871847 -344.457628 
L 588.146851 -339.795679 
L 587.562454 -335.133729 
L 587.1129 -330.47178 
L 586.784974 -325.80983 
L 586.55893 -321.147881 
L 586.409714 -316.485932 
L 586.308444 -311.823982 
L 586.224107 -307.162033 
L 586.125406 -302.500084 
L 585.982664 -297.838134 
L 585.769699 -293.176185 
L 585.465509 -288.514235 
L 585.055663 -283.852286 
L 584.533258 -279.190337 
L 583.899334 -274.528387 
L 583.162695 -269.866438 
L 582.339143 -265.204489 
L 581.450155 -260.542539 
L 580.521153 -255.88059 
L 579.579497 -251.21864 
L 578.652416 -246.556691 
L 577.765047 -241.894742 
L 576.938765 -237.232792 
L 576.189933 -232.570843 
L 575.529167 -227.908894 
L 574.961119 -223.246944 
L 574.484776 -218.584995 
L 574.094181 -213.923045 
L 573.77948 -209.261096 
L 573.528158 -204.599147 
L 573.326343 -199.937197 
L 573.160045 -195.275248 
L 573.016239 -190.613298 
L 572.883712 -185.951349 
L 572.753628 -181.2894 
L 572.619806 -176.62745 
L 572.478724 -171.965501 
L 572.329293 -167.303552 
L 572.172447 -162.641602 
L 572.010636 -157.979653 
L 571.847264 -153.317703 
L 571.686153 -148.655754 
L 571.531069 -143.993805 
L 571.385348 -139.331855 
L 571.251644 -134.669906 
L 571.131787 -130.007957 
L 571.026757 -125.346007 
L 570.93674 -120.684058 
L 570.861243 -116.022108 
z
" style="stroke: #3f3f3f; stroke-width: 1.25"/>
    </defs>
    <g clip-path="url(#p31782c1c8c)">
     <use xlink:href="#m7db02f56e2" x="0" y="720" style="fill: #3274a1; stroke: #3f3f3f; stroke-width: 1.25"/>
    </g>
   </g>
   <g id="PolyCollection_5">
    <defs>
     <path id="m740f25b5fd" d="M 682.589034 -200.198968 
L 681.810966 -200.198968 
L 681.706918 -203.566182 
L 681.583868 -206.933397 
L 681.4409 -210.300612 
L 681.277746 -213.667827 
L 681.09491 -217.035041 
L 680.893755 -220.402256 
L 680.676525 -223.769471 
L 680.446297 -227.136685 
L 680.206849 -230.5039 
L 679.962445 -233.871115 
L 679.717549 -237.238329 
L 679.476493 -240.605544 
L 679.243116 -243.972759 
L 679.020418 -247.339974 
L 678.810267 -250.707188 
L 678.613183 -254.074403 
L 678.428228 -257.441618 
L 678.253019 -260.808832 
L 678.08386 -264.176047 
L 677.915964 -267.543262 
L 677.743763 -270.910476 
L 677.561226 -274.277691 
L 677.362185 -277.644906 
L 677.140581 -281.012121 
L 676.890643 -284.379335 
L 676.606934 -287.74655 
L 676.284301 -291.113765 
L 675.917718 -294.480979 
L 675.502067 -297.848194 
L 675.031899 -301.215409 
L 674.501233 -304.582623 
L 673.903438 -307.949838 
L 673.231253 -311.317053 
L 672.476971 -314.684268 
L 671.632816 -318.051482 
L 670.691481 -321.418697 
L 669.646826 -324.785912 
L 668.494663 -328.153126 
L 667.233571 -331.520341 
L 665.86566 -334.887556 
L 664.3972 -338.25477 
L 662.839044 -341.621985 
L 661.206779 -344.9892 
L 659.520565 -348.356414 
L 657.804653 -351.723629 
L 656.086599 -355.090844 
L 654.396212 -358.458059 
L 652.764325 -361.825273 
L 651.221462 -365.192488 
L 649.796511 -368.559703 
L 648.515508 -371.926917 
L 647.400594 -375.294132 
L 646.469238 -378.661347 
L 645.733744 -382.028561 
L 645.201056 -385.395776 
L 644.872841 -388.762991 
L 644.745802 -392.130206 
L 644.812167 -395.49742 
L 645.060294 -398.864635 
L 645.475329 -402.23185 
L 646.039879 -405.599064 
L 646.734669 -408.966279 
L 647.539187 -412.333494 
L 648.432301 -415.700708 
L 649.392889 -419.067923 
L 650.400476 -422.435138 
L 651.435894 -425.802353 
L 652.481954 -429.169567 
L 653.524094 -432.536782 
L 654.55097 -435.903997 
L 655.554919 -439.271211 
L 656.532241 -442.638426 
L 657.483229 -446.005641 
L 658.411932 -449.372855 
L 659.325609 -452.74007 
L 660.233923 -456.107285 
L 661.147902 -459.4745 
L 662.078777 -462.841714 
L 663.03677 -466.208929 
L 664.029975 -469.576144 
L 665.063414 -472.943358 
L 666.138384 -476.310573 
L 667.252127 -479.677788 
L 668.397877 -483.045002 
L 669.565256 -486.412217 
L 670.740973 -489.779432 
L 671.909745 -493.146647 
L 673.055359 -496.513861 
L 674.161751 -499.881076 
L 675.214014 -503.248291 
L 676.199256 -506.615505 
L 677.107239 -509.98272 
L 677.930768 -513.349935 
L 678.665831 -516.717149 
L 679.311502 -520.084364 
L 679.869645 -523.451579 
L 680.344483 -526.818794 
L 680.742068 -530.186008 
L 681.069728 -533.553223 
L 683.330272 -533.553223 
L 683.330272 -533.553223 
L 683.657932 -530.186008 
L 684.055517 -526.818794 
L 684.530355 -523.451579 
L 685.088498 -520.084364 
L 685.734169 -516.717149 
L 686.469232 -513.349935 
L 687.292761 -509.98272 
L 688.200744 -506.615505 
L 689.185986 -503.248291 
L 690.238249 -499.881076 
L 691.344641 -496.513861 
L 692.490255 -493.146647 
L 693.659027 -489.779432 
L 694.834744 -486.412217 
L 696.002123 -483.045002 
L 697.147873 -479.677788 
L 698.261616 -476.310573 
L 699.336586 -472.943358 
L 700.370025 -469.576144 
L 701.36323 -466.208929 
L 702.321223 -462.841714 
L 703.252098 -459.4745 
L 704.166077 -456.107285 
L 705.074391 -452.74007 
L 705.988068 -449.372855 
L 706.916771 -446.005641 
L 707.867759 -442.638426 
L 708.845081 -439.271211 
L 709.84903 -435.903997 
L 710.875906 -432.536782 
L 711.918046 -429.169567 
L 712.964106 -425.802353 
L 713.999524 -422.435138 
L 715.007111 -419.067923 
L 715.967699 -415.700708 
L 716.860813 -412.333494 
L 717.665331 -408.966279 
L 718.360121 -405.599064 
L 718.924671 -402.23185 
L 719.339706 -398.864635 
L 719.587833 -395.49742 
L 719.654198 -392.130206 
L 719.527159 -388.762991 
L 719.198944 -385.395776 
L 718.666256 -382.028561 
L 717.930762 -378.661347 
L 716.999406 -375.294132 
L 715.884492 -371.926917 
L 714.603489 -368.559703 
L 713.178538 -365.192488 
L 711.635675 -361.825273 
L 710.003788 -358.458059 
L 708.313401 -355.090844 
L 706.595347 -351.723629 
L 704.879435 -348.356414 
L 703.193221 -344.9892 
L 701.560956 -341.621985 
L 700.0028 -338.25477 
L 698.53434 -334.887556 
L 697.166429 -331.520341 
L 695.905337 -328.153126 
L 694.753174 -324.785912 
L 693.708519 -321.418697 
L 692.767184 -318.051482 
L 691.923029 -314.684268 
L 691.168747 -311.317053 
L 690.496562 -307.949838 
L 689.898767 -304.582623 
L 689.368101 -301.215409 
L 688.897933 -297.848194 
L 688.482282 -294.480979 
L 688.115699 -291.113765 
L 687.793066 -287.74655 
L 687.509357 -284.379335 
L 687.259419 -281.012121 
L 687.037815 -277.644906 
L 686.838774 -274.277691 
L 686.656237 -270.910476 
L 686.484036 -267.543262 
L 686.31614 -264.176047 
L 686.146981 -260.808832 
L 685.971772 -257.441618 
L 685.786817 -254.074403 
L 685.589733 -250.707188 
L 685.379582 -247.339974 
L 685.156884 -243.972759 
L 684.923507 -240.605544 
L 684.682451 -237.238329 
L 684.437555 -233.871115 
L 684.193151 -230.5039 
L 683.953703 -227.136685 
L 683.723475 -223.769471 
L 683.506245 -220.402256 
L 683.30509 -217.035041 
L 683.122254 -213.667827 
L 682.9591 -210.300612 
L 682.816132 -206.933397 
L 682.693082 -203.566182 
L 682.589034 -200.198968 
z
" style="stroke: #3f3f3f; stroke-width: 1.25"/>
    </defs>
    <g clip-path="url(#p31782c1c8c)">
     <use xlink:href="#m740f25b5fd" x="0" y="720" style="fill: #3274a1; stroke: #3f3f3f; stroke-width: 1.25"/>
    </g>
   </g>
   <g id="PolyCollection_6">
    <defs>
     <path id="mbd1e565eaf" d="M 795.046814 -248.857778 
L 792.553186 -248.857778 
L 792.241198 -251.878832 
L 791.870002 -254.899886 
L 791.433338 -257.92094 
L 790.925462 -260.941994 
L 790.341436 -263.963048 
L 789.677451 -266.984102 
L 788.931122 -270.005156 
L 788.101771 -273.02621 
L 787.190654 -276.047264 
L 786.201129 -279.068318 
L 785.138734 -282.089373 
L 784.011171 -285.110427 
L 782.828192 -288.131481 
L 781.60137 -291.152535 
L 780.343784 -294.173589 
L 779.06962 -297.194643 
L 777.793704 -300.215697 
L 776.531007 -303.236751 
L 775.296132 -306.257805 
L 774.102837 -309.278859 
L 772.963584 -312.299913 
L 771.889175 -315.320967 
L 770.888469 -318.342022 
L 769.968188 -321.363076 
L 769.132828 -324.38413 
L 768.38466 -327.405184 
L 767.723814 -330.426238 
L 767.148423 -333.447292 
L 766.654822 -336.468346 
L 766.237777 -339.4894 
L 765.890732 -342.510454 
L 765.60606 -345.531508 
L 765.375314 -348.552562 
L 765.189485 -351.573616 
L 765.039249 -354.594671 
L 764.915232 -357.615725 
L 764.808286 -360.636779 
L 764.709783 -363.657833 
L 764.611932 -366.678887 
L 764.508115 -369.699941 
L 764.393224 -372.720995 
L 764.264 -375.742049 
L 764.119332 -378.763103 
L 763.960496 -381.784157 
L 763.79132 -384.805211 
L 763.618219 -387.826265 
L 763.450103 -390.84732 
L 763.298132 -393.868374 
L 763.175312 -396.889428 
L 763.095944 -399.910482 
L 763.074947 -402.931536 
L 763.127083 -405.95259 
L 763.266135 -408.973644 
L 763.50408 -411.994698 
L 763.850326 -415.015752 
L 764.311055 -418.036806 
L 764.888724 -421.05786 
L 765.581773 -424.078915 
L 766.384556 -427.099969 
L 767.287513 -430.121023 
L 768.277573 -433.142077 
L 769.33877 -436.163131 
L 770.453027 -439.184185 
L 771.601061 -442.205239 
L 772.763348 -445.226293 
L 773.921082 -448.247347 
L 775.057064 -451.268401 
L 776.156465 -454.289455 
L 777.207417 -457.310509 
L 778.201387 -460.331564 
L 779.133336 -463.352618 
L 780.001642 -466.373672 
L 780.807822 -469.394726 
L 781.556064 -472.41578 
L 782.252638 -475.436834 
L 782.905208 -478.457888 
L 783.522125 -481.478942 
L 784.11174 -484.499996 
L 784.681785 -487.52105 
L 785.238865 -490.542104 
L 785.788093 -493.563158 
L 786.332862 -496.584213 
L 786.874785 -499.605267 
L 787.413763 -502.626321 
L 787.94818 -505.647375 
L 788.475188 -508.668429 
L 788.991053 -511.689483 
L 789.491521 -514.710537 
L 789.972192 -517.731591 
L 790.428851 -520.752645 
L 790.857747 -523.773699 
L 791.255818 -526.794753 
L 791.620827 -529.815807 
L 791.951436 -532.836862 
L 792.24721 -535.857916 
L 792.508564 -538.87897 
L 792.736664 -541.900024 
L 792.933301 -544.921078 
L 793.100745 -547.942132 
L 794.499255 -547.942132 
L 794.499255 -547.942132 
L 794.666699 -544.921078 
L 794.863336 -541.900024 
L 795.091436 -538.87897 
L 795.35279 -535.857916 
L 795.648564 -532.836862 
L 795.979173 -529.815807 
L 796.344182 -526.794753 
L 796.742253 -523.773699 
L 797.171149 -520.752645 
L 797.627808 -517.731591 
L 798.108479 -514.710537 
L 798.608947 -511.689483 
L 799.124812 -508.668429 
L 799.65182 -505.647375 
L 800.186237 -502.626321 
L 800.725215 -499.605267 
L 801.267138 -496.584213 
L 801.811907 -493.563158 
L 802.361135 -490.542104 
L 802.918215 -487.52105 
L 803.48826 -484.499996 
L 804.077875 -481.478942 
L 804.694792 -478.457888 
L 805.347362 -475.436834 
L 806.043936 -472.41578 
L 806.792178 -469.394726 
L 807.598358 -466.373672 
L 808.466664 -463.352618 
L 809.398613 -460.331564 
L 810.392583 -457.310509 
L 811.443535 -454.289455 
L 812.542936 -451.268401 
L 813.678918 -448.247347 
L 814.836652 -445.226293 
L 815.998939 -442.205239 
L 817.146973 -439.184185 
L 818.26123 -436.163131 
L 819.322427 -433.142077 
L 820.312487 -430.121023 
L 821.215444 -427.099969 
L 822.018227 -424.078915 
L 822.711276 -421.05786 
L 823.288945 -418.036806 
L 823.749674 -415.015752 
L 824.09592 -411.994698 
L 824.333865 -408.973644 
L 824.472917 -405.95259 
L 824.525053 -402.931536 
L 824.504056 -399.910482 
L 824.424688 -396.889428 
L 824.301868 -393.868374 
L 824.149897 -390.84732 
L 823.981781 -387.826265 
L 823.80868 -384.805211 
L 823.639504 -381.784157 
L 823.480668 -378.763103 
L 823.336 -375.742049 
L 823.206776 -372.720995 
L 823.091885 -369.699941 
L 822.988068 -366.678887 
L 822.890217 -363.657833 
L 822.791714 -360.636779 
L 822.684768 -357.615725 
L 822.560751 -354.594671 
L 822.410515 -351.573616 
L 822.224686 -348.552562 
L 821.99394 -345.531508 
L 821.709268 -342.510454 
L 821.362223 -339.4894 
L 820.945178 -336.468346 
L 820.451577 -333.447292 
L 819.876186 -330.426238 
L 819.21534 -327.405184 
L 818.467172 -324.38413 
L 817.631812 -321.363076 
L 816.711531 -318.342022 
L 815.710825 -315.320967 
L 814.636416 -312.299913 
L 813.497163 -309.278859 
L 812.303868 -306.257805 
L 811.068993 -303.236751 
L 809.806296 -300.215697 
L 808.53038 -297.194643 
L 807.256216 -294.173589 
L 805.99863 -291.152535 
L 804.771808 -288.131481 
L 803.588829 -285.110427 
L 802.461266 -282.089373 
L 801.398871 -279.068318 
L 800.409346 -276.047264 
L 799.498229 -273.02621 
L 798.668878 -270.005156 
L 797.922549 -266.984102 
L 797.258564 -263.963048 
L 796.674538 -260.941994 
L 796.166662 -257.92094 
L 795.729998 -254.899886 
L 795.358802 -251.878832 
L 795.046814 -248.857778 
z
" style="stroke: #3f3f3f; stroke-width: 1.25"/>
    </defs>
    <g clip-path="url(#p31782c1c8c)">
     <use xlink:href="#mbd1e565eaf" x="0" y="720" style="fill: #3274a1; stroke: #3f3f3f; stroke-width: 1.25"/>
    </g>
   </g>
   <g id="PolyCollection_7">
    <defs>
     <path id="m8ad46c6493" d="M 906.183402 -246.22775 
L 904.616598 -246.22775 
L 904.437858 -248.78377 
L 904.228351 -251.33979 
L 903.985053 -253.89581 
L 903.705058 -256.45183 
L 903.385638 -259.007849 
L 903.024294 -261.563869 
L 902.618801 -264.119889 
L 902.167231 -266.675909 
L 901.667965 -269.231928 
L 901.119693 -271.787948 
L 900.521396 -274.343968 
L 899.872334 -276.899988 
L 899.172035 -279.456008 
L 898.42029 -282.012027 
L 897.617181 -284.568047 
L 896.763126 -287.124067 
L 895.858957 -289.680087 
L 894.906031 -292.236106 
L 893.906359 -294.792126 
L 892.86275 -297.348146 
L 891.778954 -299.904166 
L 890.659774 -302.460186 
L 889.511131 -305.016205 
L 888.340074 -307.572225 
L 887.154686 -310.128245 
L 885.963902 -312.684265 
L 884.777233 -315.240285 
L 883.604381 -317.796304 
L 882.454796 -320.352324 
L 881.337184 -322.908344 
L 880.259006 -325.464364 
L 879.226029 -328.020383 
L 878.241958 -330.576403 
L 877.308196 -333.132423 
L 876.423778 -335.688443 
L 875.585496 -338.244463 
L 874.788216 -340.800482 
L 874.025385 -343.356502 
L 873.289702 -345.912522 
L 872.573893 -348.468542 
L 871.871544 -351.024562 
L 871.17792 -353.580581 
L 870.490696 -356.136601 
L 869.810529 -358.692621 
L 869.141428 -361.248641 
L 868.49086 -363.80466 
L 867.869588 -366.36068 
L 867.291224 -368.9167 
L 866.771534 -371.47272 
L 866.327532 -374.02874 
L 865.976429 -376.584759 
L 865.734509 -379.140779 
L 865.616021 -381.696799 
L 865.632171 -384.252819 
L 865.790288 -386.808838 
L 866.093226 -389.364858 
L 866.539064 -391.920878 
L 867.121109 -394.476898 
L 867.82822 -397.032918 
L 868.645425 -399.588937 
L 869.55478 -402.144957 
L 870.53642 -404.700977 
L 871.569714 -407.256997 
L 872.634447 -409.813017 
L 873.711938 -412.369036 
L 874.786024 -414.925056 
L 875.843833 -417.481076 
L 876.876301 -420.037096 
L 877.878404 -422.593115 
L 878.849098 -425.149135 
L 879.790979 -427.705155 
L 880.709702 -430.261175 
L 881.613211 -432.817195 
L 882.510848 -435.373214 
L 883.412406 -437.929234 
L 884.327209 -440.485254 
L 885.263276 -443.041274 
L 886.226628 -445.597294 
L 887.220784 -448.153313 
L 888.24647 -450.709333 
L 889.301541 -453.265353 
L 890.381115 -455.821373 
L 891.477896 -458.377392 
L 892.582636 -460.933412 
L 893.684702 -463.489432 
L 894.7727 -466.045452 
L 895.835102 -468.601472 
L 896.860839 -471.157491 
L 897.839817 -473.713511 
L 898.763338 -476.269531 
L 899.6244 -478.825551 
L 900.417879 -481.381571 
L 901.140588 -483.93759 
L 901.791231 -486.49361 
L 902.370263 -489.04963 
L 902.879685 -491.60565 
L 903.322787 -494.161669 
L 903.703869 -496.717689 
L 904.027951 -499.273709 
L 906.772049 -499.273709 
L 906.772049 -499.273709 
L 907.096131 -496.717689 
L 907.477213 -494.161669 
L 907.920315 -491.60565 
L 908.429737 -489.04963 
L 909.008769 -486.49361 
L 909.659412 -483.93759 
L 910.382121 -481.381571 
L 911.1756 -478.825551 
L 912.036662 -476.269531 
L 912.960183 -473.713511 
L 913.939161 -471.157491 
L 914.964898 -468.601472 
L 916.0273 -466.045452 
L 917.115298 -463.489432 
L 918.217364 -460.933412 
L 919.322104 -458.377392 
L 920.418885 -455.821373 
L 921.498459 -453.265353 
L 922.55353 -450.709333 
L 923.579216 -448.153313 
L 924.573372 -445.597294 
L 925.536724 -443.041274 
L 926.472791 -440.485254 
L 927.387594 -437.929234 
L 928.289152 -435.373214 
L 929.186789 -432.817195 
L 930.090298 -430.261175 
L 931.009021 -427.705155 
L 931.950902 -425.149135 
L 932.921596 -422.593115 
L 933.923699 -420.037096 
L 934.956167 -417.481076 
L 936.013976 -414.925056 
L 937.088062 -412.369036 
L 938.165553 -409.813017 
L 939.230286 -407.256997 
L 940.26358 -404.700977 
L 941.24522 -402.144957 
L 942.154575 -399.588937 
L 942.97178 -397.032918 
L 943.678891 -394.476898 
L 944.260936 -391.920878 
L 944.706774 -389.364858 
L 945.009712 -386.808838 
L 945.167829 -384.252819 
L 945.183979 -381.696799 
L 945.065491 -379.140779 
L 944.823571 -376.584759 
L 944.472468 -374.02874 
L 944.028466 -371.47272 
L 943.508776 -368.9167 
L 942.930412 -366.36068 
L 942.30914 -363.80466 
L 941.658572 -361.248641 
L 940.989471 -358.692621 
L 940.309304 -356.136601 
L 939.62208 -353.580581 
L 938.928456 -351.024562 
L 938.226107 -348.468542 
L 937.510298 -345.912522 
L 936.774615 -343.356502 
L 936.011784 -340.800482 
L 935.214504 -338.244463 
L 934.376222 -335.688443 
L 933.491804 -333.132423 
L 932.558042 -330.576403 
L 931.573971 -328.020383 
L 930.540994 -325.464364 
L 929.462816 -322.908344 
L 928.345204 -320.352324 
L 927.195619 -317.796304 
L 926.022767 -315.240285 
L 924.836098 -312.684265 
L 923.645314 -310.128245 
L 922.459926 -307.572225 
L 921.288869 -305.016205 
L 920.140226 -302.460186 
L 919.021046 -299.904166 
L 917.93725 -297.348146 
L 916.893641 -294.792126 
L 915.893969 -292.236106 
L 914.941043 -289.680087 
L 914.036874 -287.124067 
L 913.182819 -284.568047 
L 912.37971 -282.012027 
L 911.627965 -279.456008 
L 910.927666 -276.899988 
L 910.278604 -274.343968 
L 909.680307 -271.787948 
L 909.132035 -269.231928 
L 908.632769 -266.675909 
L 908.181199 -264.119889 
L 907.775706 -261.563869 
L 907.414362 -259.007849 
L 907.094942 -256.45183 
L 906.814947 -253.89581 
L 906.571649 -251.33979 
L 906.362142 -248.78377 
L 906.183402 -246.22775 
z
" style="stroke: #3f3f3f; stroke-width: 1.25"/>
    </defs>
    <g clip-path="url(#p31782c1c8c)">
     <use xlink:href="#m8ad46c6493" x="0" y="720" style="fill: #3274a1; stroke: #3f3f3f; stroke-width: 1.25"/>
    </g>
   </g>
   <g id="PolyCollection_8">
    <defs>
     <path id="m3a4fc4450f" d="M 1017.478431 -146.820239 
L 1016.521569 -146.820239 
L 1016.40347 -150.493281 
L 1016.265742 -154.166322 
L 1016.107787 -157.839364 
L 1015.929731 -161.512405 
L 1015.732576 -165.185447 
L 1015.518309 -168.858488 
L 1015.28998 -172.531529 
L 1015.0517 -176.204571 
L 1014.808584 -179.877612 
L 1014.566594 -183.550654 
L 1014.332324 -187.223695 
L 1014.112693 -190.896737 
L 1013.914591 -194.569778 
L 1013.744486 -198.242819 
L 1013.608022 -201.915861 
L 1013.509624 -205.588902 
L 1013.452165 -209.261944 
L 1013.436692 -212.934985 
L 1013.462243 -216.608026 
L 1013.525771 -220.281068 
L 1013.622167 -223.954109 
L 1013.74439 -227.627151 
L 1013.883677 -231.300192 
L 1014.029829 -234.973234 
L 1014.171543 -238.646275 
L 1014.296779 -242.319316 
L 1014.393134 -245.992358 
L 1014.448214 -249.665399 
L 1014.449997 -253.338441 
L 1014.387173 -257.011482 
L 1014.249471 -260.684524 
L 1014.027957 -264.357565 
L 1013.715312 -268.030606 
L 1013.306084 -271.703648 
L 1012.796891 -275.376689 
L 1012.186587 -279.049731 
L 1011.476346 -282.722772 
L 1010.669663 -286.395813 
L 1009.772257 -290.068855 
L 1008.79185 -293.741896 
L 1007.737834 -297.414938 
L 1006.620828 -301.087979 
L 1005.452152 -304.761021 
L 1004.243251 -308.434062 
L 1003.00512 -312.107103 
L 1001.747773 -315.780145 
L 1000.479831 -319.453186 
L 999.208255 -323.126228 
L 997.93828 -326.799269 
L 996.673554 -330.472311 
L 995.41649 -334.145352 
L 994.168785 -337.818393 
L 992.932073 -341.491435 
L 991.708621 -345.164476 
L 990.502004 -348.837518 
L 989.317655 -352.510559 
L 988.163242 -356.183601 
L 987.048783 -359.856642 
L 985.986508 -363.529683 
L 984.990444 -367.202725 
L 984.075771 -370.875766 
L 983.258024 -374.548808 
L 982.55221 -378.221849 
L 981.971956 -381.89489 
L 981.528767 -385.567932 
L 981.231493 -389.240973 
L 981.086023 -392.914015 
L 981.095264 -396.587056 
L 981.259356 -400.260098 
L 981.576082 -403.933139 
L 982.041407 -407.60618 
L 982.650037 -411.279222 
L 983.395926 -414.952263 
L 984.272647 -418.625305 
L 985.273581 -422.298346 
L 986.3919 -425.971388 
L 987.620362 -429.644429 
L 988.950969 -433.31747 
L 990.37454 -436.990512 
L 991.880309 -440.663553 
L 993.455602 -444.336595 
L 995.085672 -448.009636 
L 996.753753 -451.682677 
L 998.441328 -455.355719 
L 1000.128624 -459.02876 
L 1001.795274 -462.701802 
L 1003.421105 -466.374843 
L 1004.98697 -470.047885 
L 1006.475542 -473.720926 
L 1007.872013 -477.393967 
L 1009.164625 -481.067009 
L 1010.345016 -484.74005 
L 1011.408339 -488.413092 
L 1012.353181 -492.086133 
L 1013.181299 -495.759175 
L 1013.897206 -499.432216 
L 1014.507657 -503.105257 
L 1015.021085 -506.778299 
L 1015.447027 -510.45134 
L 1018.552973 -510.45134 
L 1018.552973 -510.45134 
L 1018.978915 -506.778299 
L 1019.492343 -503.105257 
L 1020.102794 -499.432216 
L 1020.818701 -495.759175 
L 1021.646819 -492.086133 
L 1022.591661 -488.413092 
L 1023.654984 -484.74005 
L 1024.835375 -481.067009 
L 1026.127987 -477.393967 
L 1027.524458 -473.720926 
L 1029.01303 -470.047885 
L 1030.578895 -466.374843 
L 1032.204726 -462.701802 
L 1033.871376 -459.02876 
L 1035.558672 -455.355719 
L 1037.246247 -451.682677 
L 1038.914328 -448.009636 
L 1040.544398 -444.336595 
L 1042.119691 -440.663553 
L 1043.62546 -436.990512 
L 1045.049031 -433.31747 
L 1046.379638 -429.644429 
L 1047.6081 -425.971388 
L 1048.726419 -422.298346 
L 1049.727353 -418.625305 
L 1050.604074 -414.952263 
L 1051.349963 -411.279222 
L 1051.958593 -407.60618 
L 1052.423918 -403.933139 
L 1052.740644 -400.260098 
L 1052.904736 -396.587056 
L 1052.913977 -392.914015 
L 1052.768507 -389.240973 
L 1052.471233 -385.567932 
L 1052.028044 -381.89489 
L 1051.44779 -378.221849 
L 1050.741976 -374.548808 
L 1049.924229 -370.875766 
L 1049.009556 -367.202725 
L 1048.013492 -363.529683 
L 1046.951217 -359.856642 
L 1045.836758 -356.183601 
L 1044.682345 -352.510559 
L 1043.497996 -348.837518 
L 1042.291379 -345.164476 
L 1041.067927 -341.491435 
L 1039.831215 -337.818393 
L 1038.58351 -334.145352 
L 1037.326446 -330.472311 
L 1036.06172 -326.799269 
L 1034.791745 -323.126228 
L 1033.520169 -319.453186 
L 1032.252227 -315.780145 
L 1030.99488 -312.107103 
L 1029.756749 -308.434062 
L 1028.547848 -304.761021 
L 1027.379172 -301.087979 
L 1026.262166 -297.414938 
L 1025.20815 -293.741896 
L 1024.227743 -290.068855 
L 1023.330337 -286.395813 
L 1022.523654 -282.722772 
L 1021.813413 -279.049731 
L 1021.203109 -275.376689 
L 1020.693916 -271.703648 
L 1020.284688 -268.030606 
L 1019.972043 -264.357565 
L 1019.750529 -260.684524 
L 1019.612827 -257.011482 
L 1019.550003 -253.338441 
L 1019.551786 -249.665399 
L 1019.606866 -245.992358 
L 1019.703221 -242.319316 
L 1019.828457 -238.646275 
L 1019.970171 -234.973234 
L 1020.116323 -231.300192 
L 1020.25561 -227.627151 
L 1020.377833 -223.954109 
L 1020.474229 -220.281068 
L 1020.537757 -216.608026 
L 1020.563308 -212.934985 
L 1020.547835 -209.261944 
L 1020.490376 -205.588902 
L 1020.391978 -201.915861 
L 1020.255514 -198.242819 
L 1020.085409 -194.569778 
L 1019.887307 -190.896737 
L 1019.667676 -187.223695 
L 1019.433406 -183.550654 
L 1019.191416 -179.877612 
L 1018.9483 -176.204571 
L 1018.71002 -172.531529 
L 1018.481691 -168.858488 
L 1018.267424 -165.185447 
L 1018.070269 -161.512405 
L 1017.892213 -157.839364 
L 1017.734258 -154.166322 
L 1017.59653 -150.493281 
L 1017.478431 -146.820239 
z
" style="stroke: #3f3f3f; stroke-width: 1.25"/>
    </defs>
    <g clip-path="url(#p31782c1c8c)">
     <use xlink:href="#m3a4fc4450f" x="0" y="720" style="fill: #3274a1; stroke: #3f3f3f; stroke-width: 1.25"/>
    </g>
   </g>
   <g id="PolyCollection_9">
    <defs>
     <path id="m8d4ac1fa6a" d="M 1129.61416 -215.436212 
L 1127.58584 -215.436212 
L 1127.380617 -219.405544 
L 1127.14437 -223.374875 
L 1126.874722 -227.344206 
L 1126.569582 -231.313537 
L 1126.227235 -235.282868 
L 1125.846442 -239.2522 
L 1125.426527 -243.221531 
L 1124.967454 -247.190862 
L 1124.46989 -251.160193 
L 1123.935233 -255.129524 
L 1123.365629 -259.098856 
L 1122.763947 -263.068187 
L 1122.133722 -267.037518 
L 1121.479073 -271.006849 
L 1120.804582 -274.97618 
L 1120.115155 -278.945511 
L 1119.415858 -282.914843 
L 1118.711741 -286.884174 
L 1118.007669 -290.853505 
L 1117.308146 -294.822836 
L 1116.617175 -298.792167 
L 1115.938131 -302.761499 
L 1115.273683 -306.73083 
L 1114.625747 -310.700161 
L 1113.995497 -314.669492 
L 1113.383412 -318.638823 
L 1112.789375 -322.608155 
L 1112.212804 -326.577486 
L 1111.652811 -330.546817 
L 1111.108387 -334.516148 
L 1110.578581 -338.485479 
L 1110.062677 -342.45481 
L 1109.560351 -346.424142 
L 1109.071791 -350.393473 
L 1108.597783 -354.362804 
L 1108.139743 -358.332135 
L 1107.699707 -362.301466 
L 1107.280269 -366.270798 
L 1106.884475 -370.240129 
L 1106.515688 -374.20946 
L 1106.177423 -378.178791 
L 1105.873171 -382.148122 
L 1105.606226 -386.117454 
L 1105.379523 -390.086785 
L 1105.1955 -394.056116 
L 1105.055992 -398.025447 
L 1104.962169 -401.994778 
L 1104.91451 -405.964109 
L 1104.912822 -409.933441 
L 1104.956296 -413.902772 
L 1105.043602 -417.872103 
L 1105.172994 -421.841434 
L 1105.342444 -425.810765 
L 1105.549773 -429.780097 
L 1105.792778 -433.749428 
L 1106.069343 -437.718759 
L 1106.377532 -441.68809 
L 1106.715657 -445.657421 
L 1107.082311 -449.626753 
L 1107.476377 -453.596084 
L 1107.897009 -457.565415 
L 1108.343589 -461.534746 
L 1108.815662 -465.504077 
L 1109.312865 -469.473408 
L 1109.834842 -473.44274 
L 1110.381163 -477.412071 
L 1110.951246 -481.381402 
L 1111.544286 -485.350733 
L 1112.1592 -489.320064 
L 1112.794585 -493.289396 
L 1113.448689 -497.258727 
L 1114.119405 -501.228058 
L 1114.804272 -505.197389 
L 1115.5005 -509.16672 
L 1116.204997 -513.136052 
L 1116.914416 -517.105383 
L 1117.625208 -521.074714 
L 1118.333678 -525.044045 
L 1119.036058 -529.013376 
L 1119.728566 -532.982707 
L 1120.407485 -536.952039 
L 1121.069225 -540.92137 
L 1121.710398 -544.890701 
L 1122.327875 -548.860032 
L 1122.918848 -552.829363 
L 1123.480877 -556.798695 
L 1124.011931 -560.768026 
L 1124.510418 -564.737357 
L 1124.975205 -568.706688 
L 1125.405618 -572.676019 
L 1125.801444 -576.645351 
L 1126.162906 -580.614682 
L 1126.490637 -584.584013 
L 1126.785641 -588.553344 
L 1127.04925 -592.522675 
L 1127.283066 -596.492006 
L 1127.48891 -600.461338 
L 1127.668766 -604.430669 
L 1127.824724 -608.4 
L 1129.375276 -608.4 
L 1129.375276 -608.4 
L 1129.531234 -604.430669 
L 1129.71109 -600.461338 
L 1129.916934 -596.492006 
L 1130.15075 -592.522675 
L 1130.414359 -588.553344 
L 1130.709363 -584.584013 
L 1131.037094 -580.614682 
L 1131.398556 -576.645351 
L 1131.794382 -572.676019 
L 1132.224795 -568.706688 
L 1132.689582 -564.737357 
L 1133.188069 -560.768026 
L 1133.719123 -556.798695 
L 1134.281152 -552.829363 
L 1134.872125 -548.860032 
L 1135.489602 -544.890701 
L 1136.130775 -540.92137 
L 1136.792515 -536.952039 
L 1137.471434 -532.982707 
L 1138.163942 -529.013376 
L 1138.866322 -525.044045 
L 1139.574792 -521.074714 
L 1140.285584 -517.105383 
L 1140.995003 -513.136052 
L 1141.6995 -509.16672 
L 1142.395728 -505.197389 
L 1143.080595 -501.228058 
L 1143.751311 -497.258727 
L 1144.405415 -493.289396 
L 1145.0408 -489.320064 
L 1145.655714 -485.350733 
L 1146.248754 -481.381402 
L 1146.818837 -477.412071 
L 1147.365158 -473.44274 
L 1147.887135 -469.473408 
L 1148.384338 -465.504077 
L 1148.856411 -461.534746 
L 1149.302991 -457.565415 
L 1149.723623 -453.596084 
L 1150.117689 -449.626753 
L 1150.484343 -445.657421 
L 1150.822468 -441.68809 
L 1151.130657 -437.718759 
L 1151.407222 -433.749428 
L 1151.650227 -429.780097 
L 1151.857556 -425.810765 
L 1152.027006 -421.841434 
L 1152.156398 -417.872103 
L 1152.243704 -413.902772 
L 1152.287178 -409.933441 
L 1152.28549 -405.964109 
L 1152.237831 -401.994778 
L 1152.144008 -398.025447 
L 1152.0045 -394.056116 
L 1151.820477 -390.086785 
L 1151.593774 -386.117454 
L 1151.326829 -382.148122 
L 1151.022577 -378.178791 
L 1150.684312 -374.20946 
L 1150.315525 -370.240129 
L 1149.919731 -366.270798 
L 1149.500293 -362.301466 
L 1149.060257 -358.332135 
L 1148.602217 -354.362804 
L 1148.128209 -350.393473 
L 1147.639649 -346.424142 
L 1147.137323 -342.45481 
L 1146.621419 -338.485479 
L 1146.091613 -334.516148 
L 1145.547189 -330.546817 
L 1144.987196 -326.577486 
L 1144.410625 -322.608155 
L 1143.816588 -318.638823 
L 1143.204503 -314.669492 
L 1142.574253 -310.700161 
L 1141.926317 -306.73083 
L 1141.261869 -302.761499 
L 1140.582825 -298.792167 
L 1139.891854 -294.822836 
L 1139.192331 -290.853505 
L 1138.488259 -286.884174 
L 1137.784142 -282.914843 
L 1137.084845 -278.945511 
L 1136.395418 -274.97618 
L 1135.720927 -271.006849 
L 1135.066278 -267.037518 
L 1134.436053 -263.068187 
L 1133.834371 -259.098856 
L 1133.264767 -255.129524 
L 1132.73011 -251.160193 
L 1132.232546 -247.190862 
L 1131.773473 -243.221531 
L 1131.353558 -239.2522 
L 1130.972765 -235.282868 
L 1130.630418 -231.313537 
L 1130.325278 -227.344206 
L 1130.05563 -223.374875 
L 1129.819383 -219.405544 
L 1129.61416 -215.436212 
z
" style="stroke: #3f3f3f; stroke-width: 1.25"/>
    </defs>
    <g clip-path="url(#p31782c1c8c)">
     <use xlink:href="#m8d4ac1fa6a" x="0" y="720" style="fill: #3274a1; stroke: #3f3f3f; stroke-width: 1.25"/>
    </g>
   </g>
   <g id="PolyCollection_10">
    <defs>
     <path id="m9525ac9635" d="M 1241.792276 -289.903989 
L 1238.607724 -289.903989 
L 1238.284212 -292.438163 
L 1237.912037 -294.972336 
L 1237.487737 -297.50651 
L 1237.008417 -300.040684 
L 1236.471938 -302.574857 
L 1235.877096 -305.109031 
L 1235.2238 -307.643204 
L 1234.513217 -310.177378 
L 1233.747898 -312.711552 
L 1232.931846 -315.245725 
L 1232.070544 -317.779899 
L 1231.170904 -320.314072 
L 1230.241155 -322.848246 
L 1229.290652 -325.38242 
L 1228.329613 -327.916593 
L 1227.368781 -330.450767 
L 1226.419026 -332.984941 
L 1225.490903 -335.519114 
L 1224.594171 -338.053288 
L 1223.737313 -340.587461 
L 1222.927061 -343.121635 
L 1222.167973 -345.655809 
L 1221.462073 -348.189982 
L 1220.808583 -350.724156 
L 1220.203777 -353.258329 
L 1219.640963 -355.792503 
L 1219.110617 -358.326677 
L 1218.60066 -360.86085 
L 1218.096896 -363.395024 
L 1217.58358 -365.929198 
L 1217.044108 -368.463371 
L 1216.461801 -370.997545 
L 1215.820749 -373.531718 
L 1215.106677 -376.065892 
L 1214.307793 -378.600066 
L 1213.415573 -381.134239 
L 1212.425435 -383.668413 
L 1211.337283 -386.202586 
L 1210.155859 -388.73676 
L 1208.890906 -391.270934 
L 1207.557103 -393.805107 
L 1206.173776 -396.339281 
L 1204.764399 -398.873455 
L 1203.355873 -401.407628 
L 1201.977653 -403.941802 
L 1200.660711 -406.475975 
L 1199.436427 -409.010149 
L 1198.33542 -411.544323 
L 1197.386397 -414.078496 
L 1196.615065 -416.61267 
L 1196.043159 -419.146843 
L 1195.687622 -421.681017 
L 1195.56 -424.215191 
L 1195.666047 -426.749364 
L 1196.005586 -429.283538 
L 1196.572604 -431.817712 
L 1197.355599 -434.351885 
L 1198.338132 -436.886059 
L 1199.499568 -439.420232 
L 1200.815964 -441.954406 
L 1202.261053 -444.48858 
L 1203.807276 -447.022753 
L 1205.42681 -449.556927 
L 1207.092543 -452.0911 
L 1208.778954 -454.625274 
L 1210.46286 -457.159448 
L 1212.124 -459.693621 
L 1213.745438 -462.227795 
L 1215.313788 -464.761969 
L 1216.819249 -467.296142 
L 1218.255477 -469.830316 
L 1219.619307 -472.364489 
L 1220.910358 -474.898663 
L 1222.130554 -477.432837 
L 1223.28359 -479.96701 
L 1224.374383 -482.501184 
L 1225.408544 -485.035357 
L 1226.391882 -487.569531 
L 1227.329987 -490.103705 
L 1228.227885 -492.637878 
L 1229.089794 -495.172052 
L 1229.918962 -497.706226 
L 1230.717613 -500.240399 
L 1231.486957 -502.774573 
L 1232.227283 -505.308746 
L 1232.938103 -507.84292 
L 1233.618324 -510.377094 
L 1234.266456 -512.911267 
L 1234.880807 -515.445441 
L 1235.459682 -517.979614 
L 1236.001548 -520.513788 
L 1236.505183 -523.047962 
L 1236.969777 -525.582135 
L 1237.395003 -528.116309 
L 1237.781052 -530.650483 
L 1238.128631 -533.184656 
L 1238.438935 -535.71883 
L 1238.713596 -538.253003 
L 1238.954611 -540.787177 
L 1241.445389 -540.787177 
L 1241.445389 -540.787177 
L 1241.686404 -538.253003 
L 1241.961065 -535.71883 
L 1242.271369 -533.184656 
L 1242.618948 -530.650483 
L 1243.004997 -528.116309 
L 1243.430223 -525.582135 
L 1243.894817 -523.047962 
L 1244.398452 -520.513788 
L 1244.940318 -517.979614 
L 1245.519193 -515.445441 
L 1246.133544 -512.911267 
L 1246.781676 -510.377094 
L 1247.461897 -507.84292 
L 1248.172717 -505.308746 
L 1248.913043 -502.774573 
L 1249.682387 -500.240399 
L 1250.481038 -497.706226 
L 1251.310206 -495.172052 
L 1252.172115 -492.637878 
L 1253.070013 -490.103705 
L 1254.008118 -487.569531 
L 1254.991456 -485.035357 
L 1256.025617 -482.501184 
L 1257.11641 -479.96701 
L 1258.269446 -477.432837 
L 1259.489642 -474.898663 
L 1260.780693 -472.364489 
L 1262.144523 -469.830316 
L 1263.580751 -467.296142 
L 1265.086212 -464.761969 
L 1266.654562 -462.227795 
L 1268.276 -459.693621 
L 1269.93714 -457.159448 
L 1271.621046 -454.625274 
L 1273.307457 -452.0911 
L 1274.97319 -449.556927 
L 1276.592724 -447.022753 
L 1278.138947 -444.48858 
L 1279.584036 -441.954406 
L 1280.900432 -439.420232 
L 1282.061868 -436.886059 
L 1283.044401 -434.351885 
L 1283.827396 -431.817712 
L 1284.394414 -429.283538 
L 1284.733953 -426.749364 
L 1284.84 -424.215191 
L 1284.712378 -421.681017 
L 1284.356841 -419.146843 
L 1283.784935 -416.61267 
L 1283.013603 -414.078496 
L 1282.06458 -411.544323 
L 1280.963573 -409.010149 
L 1279.739289 -406.475975 
L 1278.422347 -403.941802 
L 1277.044127 -401.407628 
L 1275.635601 -398.873455 
L 1274.226224 -396.339281 
L 1272.842897 -393.805107 
L 1271.509094 -391.270934 
L 1270.244141 -388.73676 
L 1269.062717 -386.202586 
L 1267.974565 -383.668413 
L 1266.984427 -381.134239 
L 1266.092207 -378.600066 
L 1265.293323 -376.065892 
L 1264.579251 -373.531718 
L 1263.938199 -370.997545 
L 1263.355892 -368.463371 
L 1262.81642 -365.929198 
L 1262.303104 -363.395024 
L 1261.79934 -360.86085 
L 1261.289383 -358.326677 
L 1260.759037 -355.792503 
L 1260.196223 -353.258329 
L 1259.591417 -350.724156 
L 1258.937927 -348.189982 
L 1258.232027 -345.655809 
L 1257.472939 -343.121635 
L 1256.662687 -340.587461 
L 1255.805829 -338.053288 
L 1254.909097 -335.519114 
L 1253.980974 -332.984941 
L 1253.031219 -330.450767 
L 1252.070387 -327.916593 
L 1251.109348 -325.38242 
L 1250.158845 -322.848246 
L 1249.229096 -320.314072 
L 1248.329456 -317.779899 
L 1247.468154 -315.245725 
L 1246.652102 -312.711552 
L 1245.886783 -310.177378 
L 1245.1762 -307.643204 
L 1244.522904 -305.109031 
L 1243.928062 -302.574857 
L 1243.391583 -300.040684 
L 1242.912263 -297.50651 
L 1242.487963 -294.972336 
L 1242.115788 -292.438163 
L 1241.792276 -289.903989 
z
" style="stroke: #3f3f3f; stroke-width: 1.25"/>
    </defs>
    <g clip-path="url(#p31782c1c8c)">
     <use xlink:href="#m9525ac9635" x="0" y="720" style="fill: #3274a1; stroke: #3f3f3f; stroke-width: 1.25"/>
    </g>
   </g>
   <g id="matplotlib.axis_1">
    <g id="xtick_1">
     <g id="line2d_1">
      <defs>
       <path id="m40790d863e" d="M 0 0 
L 0 3.5 
" style="stroke: #000000; stroke-width: 0.8"/>
      </defs>
      <g>
       <use xlink:href="#m40790d863e" x="235.8" y="640.8" style="stroke: #000000; stroke-width: 0.8"/>
      </g>
     </g>
     <g id="text_1">
      <!-- 0 -->
      <g transform="translate(232.61875 655.398438) scale(0.1 -0.1)">
       <defs>
        <path id="DejaVuSans-30" d="M 2034 4250 
Q 1547 4250 1301 3770 
Q 1056 3291 1056 2328 
Q 1056 1369 1301 889 
Q 1547 409 2034 409 
Q 2525 409 2770 889 
Q 3016 1369 3016 2328 
Q 3016 3291 2770 3770 
Q 2525 4250 2034 4250 
z
M 2034 4750 
Q 2819 4750 3233 4129 
Q 3647 3509 3647 2328 
Q 3647 1150 3233 529 
Q 2819 -91 2034 -91 
Q 1250 -91 836 529 
Q 422 1150 422 2328 
Q 422 3509 836 4129 
Q 1250 4750 2034 4750 
z
" transform="scale(0.015625)"/>
       </defs>
       <use xlink:href="#DejaVuSans-30"/>
      </g>
     </g>
    </g>
    <g id="xtick_2">
     <g id="line2d_2">
      <g>
       <use xlink:href="#m40790d863e" x="347.4" y="640.8" style="stroke: #000000; stroke-width: 0.8"/>
      </g>
     </g>
     <g id="text_2">
      <!-- 1 -->
      <g transform="translate(344.21875 655.398438) scale(0.1 -0.1)">
       <defs>
        <path id="DejaVuSans-31" d="M 794 531 
L 1825 531 
L 1825 4091 
L 703 3866 
L 703 4441 
L 1819 4666 
L 2450 4666 
L 2450 531 
L 3481 531 
L 3481 0 
L 794 0 
L 794 531 
z
" transform="scale(0.015625)"/>
       </defs>
       <use xlink:href="#DejaVuSans-31"/>
      </g>
     </g>
    </g>
    <g id="xtick_3">
     <g id="line2d_3">
      <g>
       <use xlink:href="#m40790d863e" x="459" y="640.8" style="stroke: #000000; stroke-width: 0.8"/>
      </g>
     </g>
     <g id="text_3">
      <!-- 2 -->
      <g transform="translate(455.81875 655.398438) scale(0.1 -0.1)">
       <defs>
        <path id="DejaVuSans-32" d="M 1228 531 
L 3431 531 
L 3431 0 
L 469 0 
L 469 531 
Q 828 903 1448 1529 
Q 2069 2156 2228 2338 
Q 2531 2678 2651 2914 
Q 2772 3150 2772 3378 
Q 2772 3750 2511 3984 
Q 2250 4219 1831 4219 
Q 1534 4219 1204 4116 
Q 875 4013 500 3803 
L 500 4441 
Q 881 4594 1212 4672 
Q 1544 4750 1819 4750 
Q 2544 4750 2975 4387 
Q 3406 4025 3406 3419 
Q 3406 3131 3298 2873 
Q 3191 2616 2906 2266 
Q 2828 2175 2409 1742 
Q 1991 1309 1228 531 
z
" transform="scale(0.015625)"/>
       </defs>
       <use xlink:href="#DejaVuSans-32"/>
      </g>
     </g>
    </g>
    <g id="xtick_4">
     <g id="line2d_4">
      <g>
       <use xlink:href="#m40790d863e" x="570.6" y="640.8" style="stroke: #000000; stroke-width: 0.8"/>
      </g>
     </g>
     <g id="text_4">
      <!-- 3 -->
      <g transform="translate(567.41875 655.398438) scale(0.1 -0.1)">
       <defs>
        <path id="DejaVuSans-33" d="M 2597 2516 
Q 3050 2419 3304 2112 
Q 3559 1806 3559 1356 
Q 3559 666 3084 287 
Q 2609 -91 1734 -91 
Q 1441 -91 1130 -33 
Q 819 25 488 141 
L 488 750 
Q 750 597 1062 519 
Q 1375 441 1716 441 
Q 2309 441 2620 675 
Q 2931 909 2931 1356 
Q 2931 1769 2642 2001 
Q 2353 2234 1838 2234 
L 1294 2234 
L 1294 2753 
L 1863 2753 
Q 2328 2753 2575 2939 
Q 2822 3125 2822 3475 
Q 2822 3834 2567 4026 
Q 2313 4219 1838 4219 
Q 1578 4219 1281 4162 
Q 984 4106 628 3988 
L 628 4550 
Q 988 4650 1302 4700 
Q 1616 4750 1894 4750 
Q 2613 4750 3031 4423 
Q 3450 4097 3450 3541 
Q 3450 3153 3228 2886 
Q 3006 2619 2597 2516 
z
" transform="scale(0.015625)"/>
       </defs>
       <use xlink:href="#DejaVuSans-33"/>
      </g>
     </g>
    </g>
    <g id="xtick_5">
     <g id="line2d_5">
      <g>
       <use xlink:href="#m40790d863e" x="682.2" y="640.8" style="stroke: #000000; stroke-width: 0.8"/>
      </g>
     </g>
     <g id="text_5">
      <!-- 4 -->
      <g transform="translate(679.01875 655.398438) scale(0.1 -0.1)">
       <defs>
        <path id="DejaVuSans-34" d="M 2419 4116 
L 825 1625 
L 2419 1625 
L 2419 4116 
z
M 2253 4666 
L 3047 4666 
L 3047 1625 
L 3713 1625 
L 3713 1100 
L 3047 1100 
L 3047 0 
L 2419 0 
L 2419 1100 
L 313 1100 
L 313 1709 
L 2253 4666 
z
" transform="scale(0.015625)"/>
       </defs>
       <use xlink:href="#DejaVuSans-34"/>
      </g>
     </g>
    </g>
    <g id="xtick_6">
     <g id="line2d_6">
      <g>
       <use xlink:href="#m40790d863e" x="793.8" y="640.8" style="stroke: #000000; stroke-width: 0.8"/>
      </g>
     </g>
     <g id="text_6">
      <!-- 5 -->
      <g transform="translate(790.61875 655.398438) scale(0.1 -0.1)">
       <defs>
        <path id="DejaVuSans-35" d="M 691 4666 
L 3169 4666 
L 3169 4134 
L 1269 4134 
L 1269 2991 
Q 1406 3038 1543 3061 
Q 1681 3084 1819 3084 
Q 2600 3084 3056 2656 
Q 3513 2228 3513 1497 
Q 3513 744 3044 326 
Q 2575 -91 1722 -91 
Q 1428 -91 1123 -41 
Q 819 9 494 109 
L 494 744 
Q 775 591 1075 516 
Q 1375 441 1709 441 
Q 2250 441 2565 725 
Q 2881 1009 2881 1497 
Q 2881 1984 2565 2268 
Q 2250 2553 1709 2553 
Q 1456 2553 1204 2497 
Q 953 2441 691 2322 
L 691 4666 
z
" transform="scale(0.015625)"/>
       </defs>
       <use xlink:href="#DejaVuSans-35"/>
      </g>
     </g>
    </g>
    <g id="xtick_7">
     <g id="line2d_7">
      <g>
       <use xlink:href="#m40790d863e" x="905.4" y="640.8" style="stroke: #000000; stroke-width: 0.8"/>
      </g>
     </g>
     <g id="text_7">
      <!-- 6 -->
      <g transform="translate(902.21875 655.398438) scale(0.1 -0.1)">
       <defs>
        <path id="DejaVuSans-36" d="M 2113 2584 
Q 1688 2584 1439 2293 
Q 1191 2003 1191 1497 
Q 1191 994 1439 701 
Q 1688 409 2113 409 
Q 2538 409 2786 701 
Q 3034 994 3034 1497 
Q 3034 2003 2786 2293 
Q 2538 2584 2113 2584 
z
M 3366 4563 
L 3366 3988 
Q 3128 4100 2886 4159 
Q 2644 4219 2406 4219 
Q 1781 4219 1451 3797 
Q 1122 3375 1075 2522 
Q 1259 2794 1537 2939 
Q 1816 3084 2150 3084 
Q 2853 3084 3261 2657 
Q 3669 2231 3669 1497 
Q 3669 778 3244 343 
Q 2819 -91 2113 -91 
Q 1303 -91 875 529 
Q 447 1150 447 2328 
Q 447 3434 972 4092 
Q 1497 4750 2381 4750 
Q 2619 4750 2861 4703 
Q 3103 4656 3366 4563 
z
" transform="scale(0.015625)"/>
       </defs>
       <use xlink:href="#DejaVuSans-36"/>
      </g>
     </g>
    </g>
    <g id="xtick_8">
     <g id="line2d_8">
      <g>
       <use xlink:href="#m40790d863e" x="1017" y="640.8" style="stroke: #000000; stroke-width: 0.8"/>
      </g>
     </g>
     <g id="text_8">
      <!-- 7 -->
      <g transform="translate(1013.81875 655.398438) scale(0.1 -0.1)">
       <defs>
        <path id="DejaVuSans-37" d="M 525 4666 
L 3525 4666 
L 3525 4397 
L 1831 0 
L 1172 0 
L 2766 4134 
L 525 4134 
L 525 4666 
z
" transform="scale(0.015625)"/>
       </defs>
       <use xlink:href="#DejaVuSans-37"/>
      </g>
     </g>
    </g>
    <g id="xtick_9">
     <g id="line2d_9">
      <g>
       <use xlink:href="#m40790d863e" x="1128.6" y="640.8" style="stroke: #000000; stroke-width: 0.8"/>
      </g>
     </g>
     <g id="text_9">
      <!-- 8 -->
      <g transform="translate(1125.41875 655.398438) scale(0.1 -0.1)">
       <defs>
        <path id="DejaVuSans-38" d="M 2034 2216 
Q 1584 2216 1326 1975 
Q 1069 1734 1069 1313 
Q 1069 891 1326 650 
Q 1584 409 2034 409 
Q 2484 409 2743 651 
Q 3003 894 3003 1313 
Q 3003 1734 2745 1975 
Q 2488 2216 2034 2216 
z
M 1403 2484 
Q 997 2584 770 2862 
Q 544 3141 544 3541 
Q 544 4100 942 4425 
Q 1341 4750 2034 4750 
Q 2731 4750 3128 4425 
Q 3525 4100 3525 3541 
Q 3525 3141 3298 2862 
Q 3072 2584 2669 2484 
Q 3125 2378 3379 2068 
Q 3634 1759 3634 1313 
Q 3634 634 3220 271 
Q 2806 -91 2034 -91 
Q 1263 -91 848 271 
Q 434 634 434 1313 
Q 434 1759 690 2068 
Q 947 2378 1403 2484 
z
M 1172 3481 
Q 1172 3119 1398 2916 
Q 1625 2713 2034 2713 
Q 2441 2713 2670 2916 
Q 2900 3119 2900 3481 
Q 2900 3844 2670 4047 
Q 2441 4250 2034 4250 
Q 1625 4250 1398 4047 
Q 1172 3844 1172 3481 
z
" transform="scale(0.015625)"/>
       </defs>
       <use xlink:href="#DejaVuSans-38"/>
      </g>
     </g>
    </g>
    <g id="xtick_10">
     <g id="line2d_10">
      <g>
       <use xlink:href="#m40790d863e" x="1240.2" y="640.8" style="stroke: #000000; stroke-width: 0.8"/>
      </g>
     </g>
     <g id="text_10">
      <!-- 9 -->
      <g transform="translate(1237.01875 655.398438) scale(0.1 -0.1)">
       <defs>
        <path id="DejaVuSans-39" d="M 703 97 
L 703 672 
Q 941 559 1184 500 
Q 1428 441 1663 441 
Q 2288 441 2617 861 
Q 2947 1281 2994 2138 
Q 2813 1869 2534 1725 
Q 2256 1581 1919 1581 
Q 1219 1581 811 2004 
Q 403 2428 403 3163 
Q 403 3881 828 4315 
Q 1253 4750 1959 4750 
Q 2769 4750 3195 4129 
Q 3622 3509 3622 2328 
Q 3622 1225 3098 567 
Q 2575 -91 1691 -91 
Q 1453 -91 1209 -44 
Q 966 3 703 97 
z
M 1959 2075 
Q 2384 2075 2632 2365 
Q 2881 2656 2881 3163 
Q 2881 3666 2632 3958 
Q 2384 4250 1959 4250 
Q 1534 4250 1286 3958 
Q 1038 3666 1038 3163 
Q 1038 2656 1286 2365 
Q 1534 2075 1959 2075 
z
" transform="scale(0.015625)"/>
       </defs>
       <use xlink:href="#DejaVuSans-39"/>
      </g>
     </g>
    </g>
    <g id="text_11">
     <!-- iteration -->
     <g transform="translate(716.877344 669.076563) scale(0.1 -0.1)">
      <defs>
       <path id="DejaVuSans-69" d="M 603 3500 
L 1178 3500 
L 1178 0 
L 603 0 
L 603 3500 
z
M 603 4863 
L 1178 4863 
L 1178 4134 
L 603 4134 
L 603 4863 
z
" transform="scale(0.015625)"/>
       <path id="DejaVuSans-74" d="M 1172 4494 
L 1172 3500 
L 2356 3500 
L 2356 3053 
L 1172 3053 
L 1172 1153 
Q 1172 725 1289 603 
Q 1406 481 1766 481 
L 2356 481 
L 2356 0 
L 1766 0 
Q 1100 0 847 248 
Q 594 497 594 1153 
L 594 3053 
L 172 3053 
L 172 3500 
L 594 3500 
L 594 4494 
L 1172 4494 
z
" transform="scale(0.015625)"/>
       <path id="DejaVuSans-65" d="M 3597 1894 
L 3597 1613 
L 953 1613 
Q 991 1019 1311 708 
Q 1631 397 2203 397 
Q 2534 397 2845 478 
Q 3156 559 3463 722 
L 3463 178 
Q 3153 47 2828 -22 
Q 2503 -91 2169 -91 
Q 1331 -91 842 396 
Q 353 884 353 1716 
Q 353 2575 817 3079 
Q 1281 3584 2069 3584 
Q 2775 3584 3186 3129 
Q 3597 2675 3597 1894 
z
M 3022 2063 
Q 3016 2534 2758 2815 
Q 2500 3097 2075 3097 
Q 1594 3097 1305 2825 
Q 1016 2553 972 2059 
L 3022 2063 
z
" transform="scale(0.015625)"/>
       <path id="DejaVuSans-72" d="M 2631 2963 
Q 2534 3019 2420 3045 
Q 2306 3072 2169 3072 
Q 1681 3072 1420 2755 
Q 1159 2438 1159 1844 
L 1159 0 
L 581 0 
L 581 3500 
L 1159 3500 
L 1159 2956 
Q 1341 3275 1631 3429 
Q 1922 3584 2338 3584 
Q 2397 3584 2469 3576 
Q 2541 3569 2628 3553 
L 2631 2963 
z
" transform="scale(0.015625)"/>
       <path id="DejaVuSans-61" d="M 2194 1759 
Q 1497 1759 1228 1600 
Q 959 1441 959 1056 
Q 959 750 1161 570 
Q 1363 391 1709 391 
Q 2188 391 2477 730 
Q 2766 1069 2766 1631 
L 2766 1759 
L 2194 1759 
z
M 3341 1997 
L 3341 0 
L 2766 0 
L 2766 531 
Q 2569 213 2275 61 
Q 1981 -91 1556 -91 
Q 1019 -91 701 211 
Q 384 513 384 1019 
Q 384 1609 779 1909 
Q 1175 2209 1959 2209 
L 2766 2209 
L 2766 2266 
Q 2766 2663 2505 2880 
Q 2244 3097 1772 3097 
Q 1472 3097 1187 3025 
Q 903 2953 641 2809 
L 641 3341 
Q 956 3463 1253 3523 
Q 1550 3584 1831 3584 
Q 2591 3584 2966 3190 
Q 3341 2797 3341 1997 
z
" transform="scale(0.015625)"/>
       <path id="DejaVuSans-6f" d="M 1959 3097 
Q 1497 3097 1228 2736 
Q 959 2375 959 1747 
Q 959 1119 1226 758 
Q 1494 397 1959 397 
Q 2419 397 2687 759 
Q 2956 1122 2956 1747 
Q 2956 2369 2687 2733 
Q 2419 3097 1959 3097 
z
M 1959 3584 
Q 2709 3584 3137 3096 
Q 3566 2609 3566 1747 
Q 3566 888 3137 398 
Q 2709 -91 1959 -91 
Q 1206 -91 779 398 
Q 353 888 353 1747 
Q 353 2609 779 3096 
Q 1206 3584 1959 3584 
z
" transform="scale(0.015625)"/>
       <path id="DejaVuSans-6e" d="M 3513 2113 
L 3513 0 
L 2938 0 
L 2938 2094 
Q 2938 2591 2744 2837 
Q 2550 3084 2163 3084 
Q 1697 3084 1428 2787 
Q 1159 2491 1159 1978 
L 1159 0 
L 581 0 
L 581 3500 
L 1159 3500 
L 1159 2956 
Q 1366 3272 1645 3428 
Q 1925 3584 2291 3584 
Q 2894 3584 3203 3211 
Q 3513 2838 3513 2113 
z
" transform="scale(0.015625)"/>
      </defs>
      <use xlink:href="#DejaVuSans-69"/>
      <use xlink:href="#DejaVuSans-74" x="27.783203"/>
      <use xlink:href="#DejaVuSans-65" x="66.992188"/>
      <use xlink:href="#DejaVuSans-72" x="128.515625"/>
      <use xlink:href="#DejaVuSans-61" x="169.628906"/>
      <use xlink:href="#DejaVuSans-74" x="230.908203"/>
      <use xlink:href="#DejaVuSans-69" x="270.117188"/>
      <use xlink:href="#DejaVuSans-6f" x="297.900391"/>
      <use xlink:href="#DejaVuSans-6e" x="359.082031"/>
     </g>
    </g>
   </g>
   <g id="matplotlib.axis_2">
    <g id="ytick_1">
     <g id="line2d_11">
      <defs>
       <path id="m63894f78a0" d="M 0 0 
L -3.5 0 
" style="stroke: #000000; stroke-width: 0.8"/>
      </defs>
      <g>
       <use xlink:href="#m63894f78a0" x="180" y="606.957234" style="stroke: #000000; stroke-width: 0.8"/>
      </g>
     </g>
     <g id="text_12">
      <!-- 0.0 -->
      <g transform="translate(157.096875 610.756453) scale(0.1 -0.1)">
       <defs>
        <path id="DejaVuSans-2e" d="M 684 794 
L 1344 794 
L 1344 0 
L 684 0 
L 684 794 
z
" transform="scale(0.015625)"/>
       </defs>
       <use xlink:href="#DejaVuSans-30"/>
       <use xlink:href="#DejaVuSans-2e" x="63.623047"/>
       <use xlink:href="#DejaVuSans-30" x="95.410156"/>
      </g>
     </g>
    </g>
    <g id="ytick_2">
     <g id="line2d_12">
      <g>
       <use xlink:href="#m63894f78a0" x="180" y="505.157447" style="stroke: #000000; stroke-width: 0.8"/>
      </g>
     </g>
     <g id="text_13">
      <!-- 0.2 -->
      <g transform="translate(157.096875 508.956665) scale(0.1 -0.1)">
       <use xlink:href="#DejaVuSans-30"/>
       <use xlink:href="#DejaVuSans-2e" x="63.623047"/>
       <use xlink:href="#DejaVuSans-32" x="95.410156"/>
      </g>
     </g>
    </g>
    <g id="ytick_3">
     <g id="line2d_13">
      <g>
       <use xlink:href="#m63894f78a0" x="180" y="403.357659" style="stroke: #000000; stroke-width: 0.8"/>
      </g>
     </g>
     <g id="text_14">
      <!-- 0.4 -->
      <g transform="translate(157.096875 407.156878) scale(0.1 -0.1)">
       <use xlink:href="#DejaVuSans-30"/>
       <use xlink:href="#DejaVuSans-2e" x="63.623047"/>
       <use xlink:href="#DejaVuSans-34" x="95.410156"/>
      </g>
     </g>
    </g>
    <g id="ytick_4">
     <g id="line2d_14">
      <g>
       <use xlink:href="#m63894f78a0" x="180" y="301.557872" style="stroke: #000000; stroke-width: 0.8"/>
      </g>
     </g>
     <g id="text_15">
      <!-- 0.6 -->
      <g transform="translate(157.096875 305.35709) scale(0.1 -0.1)">
       <use xlink:href="#DejaVuSans-30"/>
       <use xlink:href="#DejaVuSans-2e" x="63.623047"/>
       <use xlink:href="#DejaVuSans-36" x="95.410156"/>
      </g>
     </g>
    </g>
    <g id="ytick_5">
     <g id="line2d_15">
      <g>
       <use xlink:href="#m63894f78a0" x="180" y="199.758084" style="stroke: #000000; stroke-width: 0.8"/>
      </g>
     </g>
     <g id="text_16">
      <!-- 0.8 -->
      <g transform="translate(157.096875 203.557303) scale(0.1 -0.1)">
       <use xlink:href="#DejaVuSans-30"/>
       <use xlink:href="#DejaVuSans-2e" x="63.623047"/>
       <use xlink:href="#DejaVuSans-38" x="95.410156"/>
      </g>
     </g>
    </g>
    <g id="ytick_6">
     <g id="line2d_16">
      <g>
       <use xlink:href="#m63894f78a0" x="180" y="97.958297" style="stroke: #000000; stroke-width: 0.8"/>
      </g>
     </g>
     <g id="text_17">
      <!-- 1.0 -->
      <g transform="translate(157.096875 101.757516) scale(0.1 -0.1)">
       <use xlink:href="#DejaVuSans-31"/>
       <use xlink:href="#DejaVuSans-2e" x="63.623047"/>
       <use xlink:href="#DejaVuSans-30" x="95.410156"/>
      </g>
     </g>
    </g>
    <g id="text_18">
     <!-- cosine similarity -->
     <g transform="translate(151.017188 404.307031) rotate(-90) scale(0.1 -0.1)">
      <defs>
       <path id="DejaVuSans-63" d="M 3122 3366 
L 3122 2828 
Q 2878 2963 2633 3030 
Q 2388 3097 2138 3097 
Q 1578 3097 1268 2742 
Q 959 2388 959 1747 
Q 959 1106 1268 751 
Q 1578 397 2138 397 
Q 2388 397 2633 464 
Q 2878 531 3122 666 
L 3122 134 
Q 2881 22 2623 -34 
Q 2366 -91 2075 -91 
Q 1284 -91 818 406 
Q 353 903 353 1747 
Q 353 2603 823 3093 
Q 1294 3584 2113 3584 
Q 2378 3584 2631 3529 
Q 2884 3475 3122 3366 
z
" transform="scale(0.015625)"/>
       <path id="DejaVuSans-73" d="M 2834 3397 
L 2834 2853 
Q 2591 2978 2328 3040 
Q 2066 3103 1784 3103 
Q 1356 3103 1142 2972 
Q 928 2841 928 2578 
Q 928 2378 1081 2264 
Q 1234 2150 1697 2047 
L 1894 2003 
Q 2506 1872 2764 1633 
Q 3022 1394 3022 966 
Q 3022 478 2636 193 
Q 2250 -91 1575 -91 
Q 1294 -91 989 -36 
Q 684 19 347 128 
L 347 722 
Q 666 556 975 473 
Q 1284 391 1588 391 
Q 1994 391 2212 530 
Q 2431 669 2431 922 
Q 2431 1156 2273 1281 
Q 2116 1406 1581 1522 
L 1381 1569 
Q 847 1681 609 1914 
Q 372 2147 372 2553 
Q 372 3047 722 3315 
Q 1072 3584 1716 3584 
Q 2034 3584 2315 3537 
Q 2597 3491 2834 3397 
z
" transform="scale(0.015625)"/>
       <path id="DejaVuSans-20" transform="scale(0.015625)"/>
       <path id="DejaVuSans-6d" d="M 3328 2828 
Q 3544 3216 3844 3400 
Q 4144 3584 4550 3584 
Q 5097 3584 5394 3201 
Q 5691 2819 5691 2113 
L 5691 0 
L 5113 0 
L 5113 2094 
Q 5113 2597 4934 2840 
Q 4756 3084 4391 3084 
Q 3944 3084 3684 2787 
Q 3425 2491 3425 1978 
L 3425 0 
L 2847 0 
L 2847 2094 
Q 2847 2600 2669 2842 
Q 2491 3084 2119 3084 
Q 1678 3084 1418 2786 
Q 1159 2488 1159 1978 
L 1159 0 
L 581 0 
L 581 3500 
L 1159 3500 
L 1159 2956 
Q 1356 3278 1631 3431 
Q 1906 3584 2284 3584 
Q 2666 3584 2933 3390 
Q 3200 3197 3328 2828 
z
" transform="scale(0.015625)"/>
       <path id="DejaVuSans-6c" d="M 603 4863 
L 1178 4863 
L 1178 0 
L 603 0 
L 603 4863 
z
" transform="scale(0.015625)"/>
       <path id="DejaVuSans-79" d="M 2059 -325 
Q 1816 -950 1584 -1140 
Q 1353 -1331 966 -1331 
L 506 -1331 
L 506 -850 
L 844 -850 
Q 1081 -850 1212 -737 
Q 1344 -625 1503 -206 
L 1606 56 
L 191 3500 
L 800 3500 
L 1894 763 
L 2988 3500 
L 3597 3500 
L 2059 -325 
z
" transform="scale(0.015625)"/>
      </defs>
      <use xlink:href="#DejaVuSans-63"/>
      <use xlink:href="#DejaVuSans-6f" x="54.980469"/>
      <use xlink:href="#DejaVuSans-73" x="116.162109"/>
      <use xlink:href="#DejaVuSans-69" x="168.261719"/>
      <use xlink:href="#DejaVuSans-6e" x="196.044922"/>
      <use xlink:href="#DejaVuSans-65" x="259.423828"/>
      <use xlink:href="#DejaVuSans-20" x="320.947266"/>
      <use xlink:href="#DejaVuSans-73" x="352.734375"/>
      <use xlink:href="#DejaVuSans-69" x="404.833984"/>
      <use xlink:href="#DejaVuSans-6d" x="432.617188"/>
      <use xlink:href="#DejaVuSans-69" x="530.029297"/>
      <use xlink:href="#DejaVuSans-6c" x="557.8125"/>
      <use xlink:href="#DejaVuSans-61" x="585.595703"/>
      <use xlink:href="#DejaVuSans-72" x="646.875"/>
      <use xlink:href="#DejaVuSans-69" x="687.988281"/>
      <use xlink:href="#DejaVuSans-74" x="715.771484"/>
      <use xlink:href="#DejaVuSans-79" x="754.980469"/>
     </g>
    </g>
   </g>
   <g id="line2d_17">
    <path d="M 235.8 522.411261 
L 235.8 241.121226 
" clip-path="url(#p31782c1c8c)" style="fill: none; stroke: #3f3f3f; stroke-width: 1.875; stroke-linecap: square"/>
   </g>
   <g id="line2d_18">
    <path d="M 235.8 408.484798 
L 235.8 324.759464 
" clip-path="url(#p31782c1c8c)" style="fill: none; stroke: #3f3f3f; stroke-width: 5.625; stroke-linecap: square"/>
   </g>
   <g id="line2d_19">
    <path d="M 235.8 371.075397 
" clip-path="url(#p31782c1c8c)" style="fill: none; stroke: #3f3f3f; stroke-width: 1.5; stroke-linecap: square"/>
    <defs>
     <path id="m423aa0f2af" d="M 2.34375 0 
L -2.34375 -0 
" style="stroke: #ffffff; stroke-width: 1.125"/>
    </defs>
    <g clip-path="url(#p31782c1c8c)">
     <use xlink:href="#m423aa0f2af" x="235.8" y="371.075397" style="fill: #ffffff; stroke: #ffffff; stroke-width: 1.125"/>
    </g>
   </g>
   <g id="line2d_20">
    <path d="M 347.4 510.387238 
L 347.4 258.606906 
" clip-path="url(#p31782c1c8c)" style="fill: none; stroke: #3f3f3f; stroke-width: 1.875; stroke-linecap: square"/>
   </g>
   <g id="line2d_21">
    <path d="M 347.4 397.498783 
L 347.4 301.734234 
" clip-path="url(#p31782c1c8c)" style="fill: none; stroke: #3f3f3f; stroke-width: 5.625; stroke-linecap: square"/>
   </g>
   <g id="line2d_22">
    <path d="M 347.4 359.382346 
" clip-path="url(#p31782c1c8c)" style="fill: none; stroke: #3f3f3f; stroke-width: 1.5; stroke-linecap: square"/>
    <g clip-path="url(#p31782c1c8c)">
     <use xlink:href="#m423aa0f2af" x="347.4" y="359.382346" style="fill: #ffffff; stroke: #ffffff; stroke-width: 1.125"/>
    </g>
   </g>
   <g id="line2d_23">
    <path d="M 459 489.499361 
L 459 218.27042 
" clip-path="url(#p31782c1c8c)" style="fill: none; stroke: #3f3f3f; stroke-width: 1.875; stroke-linecap: square"/>
   </g>
   <g id="line2d_24">
    <path d="M 459 379.792468 
L 459 303.858838 
" clip-path="url(#p31782c1c8c)" style="fill: none; stroke: #3f3f3f; stroke-width: 5.625; stroke-linecap: square"/>
   </g>
   <g id="line2d_25">
    <path d="M 459 348.439131 
" clip-path="url(#p31782c1c8c)" style="fill: none; stroke: #3f3f3f; stroke-width: 1.5; stroke-linecap: square"/>
    <g clip-path="url(#p31782c1c8c)">
     <use xlink:href="#m423aa0f2af" x="459" y="348.439131" style="fill: #ffffff; stroke: #ffffff; stroke-width: 1.125"/>
    </g>
   </g>
   <g id="line2d_26">
    <path d="M 570.6 532.782789 
L 570.6 213.640006 
" clip-path="url(#p31782c1c8c)" style="fill: none; stroke: #3f3f3f; stroke-width: 1.875; stroke-linecap: square"/>
   </g>
   <g id="line2d_27">
    <path d="M 570.6 396.779721 
L 570.6 300.540808 
" clip-path="url(#p31782c1c8c)" style="fill: none; stroke: #3f3f3f; stroke-width: 5.625; stroke-linecap: square"/>
   </g>
   <g id="line2d_28">
    <path d="M 570.6 333.662986 
" clip-path="url(#p31782c1c8c)" style="fill: none; stroke: #3f3f3f; stroke-width: 1.5; stroke-linecap: square"/>
    <g clip-path="url(#p31782c1c8c)">
     <use xlink:href="#m423aa0f2af" x="570.6" y="333.662986" style="fill: #ffffff; stroke: #ffffff; stroke-width: 1.125"/>
    </g>
   </g>
   <g id="line2d_29">
    <path d="M 682.2 417.668482 
L 682.2 242.026502 
" clip-path="url(#p31782c1c8c)" style="fill: none; stroke: #3f3f3f; stroke-width: 1.875; stroke-linecap: square"/>
   </g>
   <g id="line2d_30">
    <path d="M 682.2 349.00648 
L 682.2 294.994787 
" clip-path="url(#p31782c1c8c)" style="fill: none; stroke: #3f3f3f; stroke-width: 5.625; stroke-linecap: square"/>
   </g>
   <g id="line2d_31">
    <path d="M 682.2 324.18246 
" clip-path="url(#p31782c1c8c)" style="fill: none; stroke: #3f3f3f; stroke-width: 1.5; stroke-linecap: square"/>
    <g clip-path="url(#p31782c1c8c)">
     <use xlink:href="#m423aa0f2af" x="682.2" y="324.18246" style="fill: #ffffff; stroke: #ffffff; stroke-width: 1.125"/>
    </g>
   </g>
   <g id="line2d_32">
    <path d="M 793.8 412.910934 
L 793.8 230.289157 
" clip-path="url(#p31782c1c8c)" style="fill: none; stroke: #3f3f3f; stroke-width: 1.875; stroke-linecap: square"/>
   </g>
   <g id="line2d_33">
    <path d="M 793.8 382.9849 
L 793.8 297.219304 
" clip-path="url(#p31782c1c8c)" style="fill: none; stroke: #3f3f3f; stroke-width: 5.625; stroke-linecap: square"/>
   </g>
   <g id="line2d_34">
    <path d="M 793.8 333.628111 
" clip-path="url(#p31782c1c8c)" style="fill: none; stroke: #3f3f3f; stroke-width: 1.5; stroke-linecap: square"/>
    <g clip-path="url(#p31782c1c8c)">
     <use xlink:href="#m423aa0f2af" x="793.8" y="333.628111" style="fill: #ffffff; stroke: #ffffff; stroke-width: 1.125"/>
    </g>
   </g>
   <g id="line2d_35">
    <path d="M 905.4 422.594395 
L 905.4 271.904146 
" clip-path="url(#p31782c1c8c)" style="fill: none; stroke: #3f3f3f; stroke-width: 1.875; stroke-linecap: square"/>
   </g>
   <g id="line2d_36">
    <path d="M 905.4 379.147889 
L 905.4 320.347573 
" clip-path="url(#p31782c1c8c)" style="fill: none; stroke: #3f3f3f; stroke-width: 5.625; stroke-linecap: square"/>
   </g>
   <g id="line2d_37">
    <path d="M 905.4 338.414861 
" clip-path="url(#p31782c1c8c)" style="fill: none; stroke: #3f3f3f; stroke-width: 1.5; stroke-linecap: square"/>
    <g clip-path="url(#p31782c1c8c)">
     <use xlink:href="#m423aa0f2af" x="905.4" y="338.414861" style="fill: #ffffff; stroke: #ffffff; stroke-width: 1.125"/>
    </g>
   </g>
   <g id="line2d_38">
    <path d="M 1017 400.238079 
L 1017 274.255335 
" clip-path="url(#p31782c1c8c)" style="fill: none; stroke: #3f3f3f; stroke-width: 1.875; stroke-linecap: square"/>
   </g>
   <g id="line2d_39">
    <path d="M 1017 369.152713 
L 1017 297.466102 
" clip-path="url(#p31782c1c8c)" style="fill: none; stroke: #3f3f3f; stroke-width: 5.625; stroke-linecap: square"/>
   </g>
   <g id="line2d_40">
    <path d="M 1017 333.644145 
" clip-path="url(#p31782c1c8c)" style="fill: none; stroke: #3f3f3f; stroke-width: 1.5; stroke-linecap: square"/>
    <g clip-path="url(#p31782c1c8c)">
     <use xlink:href="#m423aa0f2af" x="1017" y="333.644145" style="fill: #ffffff; stroke: #ffffff; stroke-width: 1.125"/>
    </g>
   </g>
   <g id="line2d_41">
    <path d="M 1128.6 414.230303 
L 1128.6 201.933484 
" clip-path="url(#p31782c1c8c)" style="fill: none; stroke: #3f3f3f; stroke-width: 1.875; stroke-linecap: square"/>
   </g>
   <g id="line2d_42">
    <path d="M 1128.6 349.541306 
L 1128.6 257.968124 
" clip-path="url(#p31782c1c8c)" style="fill: none; stroke: #3f3f3f; stroke-width: 5.625; stroke-linecap: square"/>
   </g>
   <g id="line2d_43">
    <path d="M 1128.6 320.903818 
" clip-path="url(#p31782c1c8c)" style="fill: none; stroke: #3f3f3f; stroke-width: 1.5; stroke-linecap: square"/>
    <g clip-path="url(#p31782c1c8c)">
     <use xlink:href="#m423aa0f2af" x="1128.6" y="320.903818" style="fill: #ffffff; stroke: #ffffff; stroke-width: 1.125"/>
    </g>
   </g>
   <g id="line2d_44">
    <path d="M 1240.2 357.977801 
L 1240.2 280.230815 
" clip-path="url(#p31782c1c8c)" style="fill: none; stroke: #3f3f3f; stroke-width: 1.875; stroke-linecap: square"/>
   </g>
   <g id="line2d_45">
    <path d="M 1240.2 321.361113 
L 1240.2 288.446497 
" clip-path="url(#p31782c1c8c)" style="fill: none; stroke: #3f3f3f; stroke-width: 5.625; stroke-linecap: square"/>
   </g>
   <g id="line2d_46">
    <path d="M 1240.2 298.148123 
" clip-path="url(#p31782c1c8c)" style="fill: none; stroke: #3f3f3f; stroke-width: 1.5; stroke-linecap: square"/>
    <g clip-path="url(#p31782c1c8c)">
     <use xlink:href="#m423aa0f2af" x="1240.2" y="298.148123" style="fill: #ffffff; stroke: #ffffff; stroke-width: 1.125"/>
    </g>
   </g>
   <g id="patch_3">
    <path d="M 180 640.8 
L 180 86.4 
" style="fill: none; stroke: #000000; stroke-width: 0.8; stroke-linejoin: miter; stroke-linecap: square"/>
   </g>
   <g id="patch_4">
    <path d="M 1296 640.8 
L 1296 86.4 
" style="fill: none; stroke: #000000; stroke-width: 0.8; stroke-linejoin: miter; stroke-linecap: square"/>
   </g>
   <g id="patch_5">
    <path d="M 180 640.8 
L 1296 640.8 
" style="fill: none; stroke: #000000; stroke-width: 0.8; stroke-linejoin: miter; stroke-linecap: square"/>
   </g>
   <g id="patch_6">
    <path d="M 180 86.4 
L 1296 86.4 
" style="fill: none; stroke: #000000; stroke-width: 0.8; stroke-linejoin: miter; stroke-linecap: square"/>
   </g>
   <g id="text_19">
    <!-- cosine similarity of max_mem_5_fs_glit (progressive), by iteration -->
    <g transform="translate(540.728438 80.4) scale(0.12 -0.12)">
     <defs>
      <path id="DejaVuSans-66" d="M 2375 4863 
L 2375 4384 
L 1825 4384 
Q 1516 4384 1395 4259 
Q 1275 4134 1275 3809 
L 1275 3500 
L 2222 3500 
L 2222 3053 
L 1275 3053 
L 1275 0 
L 697 0 
L 697 3053 
L 147 3053 
L 147 3500 
L 697 3500 
L 697 3744 
Q 697 4328 969 4595 
Q 1241 4863 1831 4863 
L 2375 4863 
z
" transform="scale(0.015625)"/>
      <path id="DejaVuSans-78" d="M 3513 3500 
L 2247 1797 
L 3578 0 
L 2900 0 
L 1881 1375 
L 863 0 
L 184 0 
L 1544 1831 
L 300 3500 
L 978 3500 
L 1906 2253 
L 2834 3500 
L 3513 3500 
z
" transform="scale(0.015625)"/>
      <path id="DejaVuSans-5f" d="M 3263 -1063 
L 3263 -1509 
L -63 -1509 
L -63 -1063 
L 3263 -1063 
z
" transform="scale(0.015625)"/>
      <path id="DejaVuSans-67" d="M 2906 1791 
Q 2906 2416 2648 2759 
Q 2391 3103 1925 3103 
Q 1463 3103 1205 2759 
Q 947 2416 947 1791 
Q 947 1169 1205 825 
Q 1463 481 1925 481 
Q 2391 481 2648 825 
Q 2906 1169 2906 1791 
z
M 3481 434 
Q 3481 -459 3084 -895 
Q 2688 -1331 1869 -1331 
Q 1566 -1331 1297 -1286 
Q 1028 -1241 775 -1147 
L 775 -588 
Q 1028 -725 1275 -790 
Q 1522 -856 1778 -856 
Q 2344 -856 2625 -561 
Q 2906 -266 2906 331 
L 2906 616 
Q 2728 306 2450 153 
Q 2172 0 1784 0 
Q 1141 0 747 490 
Q 353 981 353 1791 
Q 353 2603 747 3093 
Q 1141 3584 1784 3584 
Q 2172 3584 2450 3431 
Q 2728 3278 2906 2969 
L 2906 3500 
L 3481 3500 
L 3481 434 
z
" transform="scale(0.015625)"/>
      <path id="DejaVuSans-28" d="M 1984 4856 
Q 1566 4138 1362 3434 
Q 1159 2731 1159 2009 
Q 1159 1288 1364 580 
Q 1569 -128 1984 -844 
L 1484 -844 
Q 1016 -109 783 600 
Q 550 1309 550 2009 
Q 550 2706 781 3412 
Q 1013 4119 1484 4856 
L 1984 4856 
z
" transform="scale(0.015625)"/>
      <path id="DejaVuSans-70" d="M 1159 525 
L 1159 -1331 
L 581 -1331 
L 581 3500 
L 1159 3500 
L 1159 2969 
Q 1341 3281 1617 3432 
Q 1894 3584 2278 3584 
Q 2916 3584 3314 3078 
Q 3713 2572 3713 1747 
Q 3713 922 3314 415 
Q 2916 -91 2278 -91 
Q 1894 -91 1617 61 
Q 1341 213 1159 525 
z
M 3116 1747 
Q 3116 2381 2855 2742 
Q 2594 3103 2138 3103 
Q 1681 3103 1420 2742 
Q 1159 2381 1159 1747 
Q 1159 1113 1420 752 
Q 1681 391 2138 391 
Q 2594 391 2855 752 
Q 3116 1113 3116 1747 
z
" transform="scale(0.015625)"/>
      <path id="DejaVuSans-76" d="M 191 3500 
L 800 3500 
L 1894 563 
L 2988 3500 
L 3597 3500 
L 2284 0 
L 1503 0 
L 191 3500 
z
" transform="scale(0.015625)"/>
      <path id="DejaVuSans-29" d="M 513 4856 
L 1013 4856 
Q 1481 4119 1714 3412 
Q 1947 2706 1947 2009 
Q 1947 1309 1714 600 
Q 1481 -109 1013 -844 
L 513 -844 
Q 928 -128 1133 580 
Q 1338 1288 1338 2009 
Q 1338 2731 1133 3434 
Q 928 4138 513 4856 
z
" transform="scale(0.015625)"/>
      <path id="DejaVuSans-2c" d="M 750 794 
L 1409 794 
L 1409 256 
L 897 -744 
L 494 -744 
L 750 256 
L 750 794 
z
" transform="scale(0.015625)"/>
      <path id="DejaVuSans-62" d="M 3116 1747 
Q 3116 2381 2855 2742 
Q 2594 3103 2138 3103 
Q 1681 3103 1420 2742 
Q 1159 2381 1159 1747 
Q 1159 1113 1420 752 
Q 1681 391 2138 391 
Q 2594 391 2855 752 
Q 3116 1113 3116 1747 
z
M 1159 2969 
Q 1341 3281 1617 3432 
Q 1894 3584 2278 3584 
Q 2916 3584 3314 3078 
Q 3713 2572 3713 1747 
Q 3713 922 3314 415 
Q 2916 -91 2278 -91 
Q 1894 -91 1617 61 
Q 1341 213 1159 525 
L 1159 0 
L 581 0 
L 581 4863 
L 1159 4863 
L 1159 2969 
z
" transform="scale(0.015625)"/>
     </defs>
     <use xlink:href="#DejaVuSans-63"/>
     <use xlink:href="#DejaVuSans-6f" x="54.980469"/>
     <use xlink:href="#DejaVuSans-73" x="116.162109"/>
     <use xlink:href="#DejaVuSans-69" x="168.261719"/>
     <use xlink:href="#DejaVuSans-6e" x="196.044922"/>
     <use xlink:href="#DejaVuSans-65" x="259.423828"/>
     <use xlink:href="#DejaVuSans-20" x="320.947266"/>
     <use xlink:href="#DejaVuSans-73" x="352.734375"/>
     <use xlink:href="#DejaVuSans-69" x="404.833984"/>
     <use xlink:href="#DejaVuSans-6d" x="432.617188"/>
     <use xlink:href="#DejaVuSans-69" x="530.029297"/>
     <use xlink:href="#DejaVuSans-6c" x="557.8125"/>
     <use xlink:href="#DejaVuSans-61" x="585.595703"/>
     <use xlink:href="#DejaVuSans-72" x="646.875"/>
     <use xlink:href="#DejaVuSans-69" x="687.988281"/>
     <use xlink:href="#DejaVuSans-74" x="715.771484"/>
     <use xlink:href="#DejaVuSans-79" x="754.980469"/>
     <use xlink:href="#DejaVuSans-20" x="814.160156"/>
     <use xlink:href="#DejaVuSans-6f" x="845.947266"/>
     <use xlink:href="#DejaVuSans-66" x="907.128906"/>
     <use xlink:href="#DejaVuSans-20" x="942.333984"/>
     <use xlink:href="#DejaVuSans-6d" x="974.121094"/>
     <use xlink:href="#DejaVuSans-61" x="1071.533203"/>
     <use xlink:href="#DejaVuSans-78" x="1132.8125"/>
     <use xlink:href="#DejaVuSans-5f" x="1191.992188"/>
     <use xlink:href="#DejaVuSans-6d" x="1241.992188"/>
     <use xlink:href="#DejaVuSans-65" x="1339.404297"/>
     <use xlink:href="#DejaVuSans-6d" x="1400.927734"/>
     <use xlink:href="#DejaVuSans-5f" x="1498.339844"/>
     <use xlink:href="#DejaVuSans-35" x="1548.339844"/>
     <use xlink:href="#DejaVuSans-5f" x="1611.962891"/>
     <use xlink:href="#DejaVuSans-66" x="1661.962891"/>
     <use xlink:href="#DejaVuSans-73" x="1697.167969"/>
     <use xlink:href="#DejaVuSans-5f" x="1749.267578"/>
     <use xlink:href="#DejaVuSans-67" x="1799.267578"/>
     <use xlink:href="#DejaVuSans-6c" x="1862.744141"/>
     <use xlink:href="#DejaVuSans-69" x="1890.527344"/>
     <use xlink:href="#DejaVuSans-74" x="1918.310547"/>
     <use xlink:href="#DejaVuSans-20" x="1957.519531"/>
     <use xlink:href="#DejaVuSans-28" x="1989.306641"/>
     <use xlink:href="#DejaVuSans-70" x="2028.320312"/>
     <use xlink:href="#DejaVuSans-72" x="2091.796875"/>
     <use xlink:href="#DejaVuSans-6f" x="2130.660156"/>
     <use xlink:href="#DejaVuSans-67" x="2191.841797"/>
     <use xlink:href="#DejaVuSans-72" x="2255.318359"/>
     <use xlink:href="#DejaVuSans-65" x="2294.181641"/>
     <use xlink:href="#DejaVuSans-73" x="2355.705078"/>
     <use xlink:href="#DejaVuSans-73" x="2407.804688"/>
     <use xlink:href="#DejaVuSans-69" x="2459.904297"/>
     <use xlink:href="#DejaVuSans-76" x="2487.6875"/>
     <use xlink:href="#DejaVuSans-65" x="2546.867188"/>
     <use xlink:href="#DejaVuSans-29" x="2608.390625"/>
     <use xlink:href="#DejaVuSans-2c" x="2647.404297"/>
     <use xlink:href="#DejaVuSans-20" x="2679.191406"/>
     <use xlink:href="#DejaVuSans-62" x="2710.978516"/>
     <use xlink:href="#DejaVuSans-79" x="2774.455078"/>
     <use xlink:href="#DejaVuSans-20" x="2833.634766"/>
     <use xlink:href="#DejaVuSans-69" x="2865.421875"/>
     <use xlink:href="#DejaVuSans-74" x="2893.205078"/>
     <use xlink:href="#DejaVuSans-65" x="2932.414062"/>
     <use xlink:href="#DejaVuSans-72" x="2993.9375"/>
     <use xlink:href="#DejaVuSans-61" x="3035.050781"/>
     <use xlink:href="#DejaVuSans-74" x="3096.330078"/>
     <use xlink:href="#DejaVuSans-69" x="3135.539062"/>
     <use xlink:href="#DejaVuSans-6f" x="3163.322266"/>
     <use xlink:href="#DejaVuSans-6e" x="3224.503906"/>
    </g>
   </g>
  </g>
 </g>
 <defs>
  <clipPath id="p31782c1c8c">
   <rect x="180" y="86.4" width="1116" height="554.4"/>
  </clipPath>
 </defs>
</svg>
