<?xml version="1.0" encoding="utf-8" standalone="no"?>
<!DOCTYPE svg PUBLIC "-//W3C//DTD SVG 1.1//EN"
  "http://www.w3.org/Graphics/SVG/1.1/DTD/svg11.dtd">
<svg xmlns:xlink="http://www.w3.org/1999/xlink" width="1440pt" height="720pt" viewBox="0 0 1440 720" xmlns="http://www.w3.org/2000/svg" version="1.1">
 <metadata>
  <rdf:RDF xmlns:dc="http://purl.org/dc/elements/1.1/" xmlns:cc="http://creativecommons.org/ns#" xmlns:rdf="http://www.w3.org/1999/02/22-rdf-syntax-ns#">
   <cc:Work>
    <dc:type rdf:resource="http://purl.org/dc/dcmitype/StillImage"/>
    <dc:date>2024-07-24T20:33:04.040784</dc:date>
    <dc:format>image/svg+xml</dc:format>
    <dc:creator>
     <cc:Agent>
      <dc:title>Matplotlib v3.8.0, https://matplotlib.org/</dc:title>
     </cc:Agent>
    </dc:creator>
   </cc:Work>
  </rdf:RDF>
 </metadata>
 <defs>
  <style type="text/css">*{stroke-linejoin: round; stroke-linecap: butt}</style>
 </defs>
 <g id="figure_1">
  <g id="patch_1">
   <path d="M 0 720 
L 1440 720 
L 1440 0 
L 0 0 
z
" style="fill: #ffffff"/>
  </g>
  <g id="axes_1">
   <g id="patch_2">
    <path d="M 180 640.8 
L 1296 640.8 
L 1296 86.4 
L 180 86.4 
z
" style="fill: #ffffff"/>
   </g>
   <g id="PolyCollection_1">
    <defs>
     <path id="mea1cc9badf" d="M 235.929745 -159.433268 
L 235.670255 -159.433268 
L 235.619165 -163.040032 
L 235.554123 -166.646795 
L 235.473641 -170.253558 
L 235.376772 -173.860322 
L 235.263228 -177.467085 
L 235.133411 -181.073848 
L 234.98832 -184.680612 
L 234.829344 -188.287375 
L 234.657963 -191.894139 
L 234.475416 -195.500902 
L 234.282399 -199.107665 
L 234.078859 -202.714429 
L 233.86393 -206.321192 
L 233.636 -209.927956 
L 233.392896 -213.534719 
L 233.132097 -217.141482 
L 232.850915 -220.748246 
L 232.546583 -224.355009 
L 232.216224 -227.961773 
L 231.856735 -231.568536 
L 231.464663 -235.175299 
L 231.036157 -238.782063 
L 230.56709 -242.388826 
L 230.05338 -245.995589 
L 229.491496 -249.602353 
L 228.879036 -253.209116 
L 228.21525 -256.81588 
L 227.501332 -260.422643 
L 226.740371 -264.029406 
L 225.936895 -267.63617 
L 225.096059 -271.242933 
L 224.222632 -274.849697 
L 223.320008 -278.45646 
L 222.389484 -282.063223 
L 221.430043 -285.669987 
L 220.438758 -289.27675 
L 219.411793 -292.883514 
L 218.345852 -296.490277 
L 217.23977 -300.09704 
L 216.095886 -303.703804 
L 214.92086 -307.310567 
L 213.725694 -310.917331 
L 212.524908 -314.524094 
L 211.334995 -318.130857 
L 210.172503 -321.737621 
L 209.052155 -325.344384 
L 207.985455 -328.951147 
L 206.980113 -332.557911 
L 206.04043 -336.164674 
L 205.168585 -339.771438 
L 204.366534 -343.378201 
L 203.638096 -346.984964 
L 202.990764 -350.591728 
L 202.436802 -354.198491 
L 201.993333 -357.805255 
L 201.681309 -361.412018 
L 201.523428 -365.018781 
L 201.541288 -368.625545 
L 201.752176 -372.232308 
L 202.165998 -375.839072 
L 202.782868 -379.445835 
L 203.591798 -383.052598 
L 204.570803 -386.659362 
L 205.688532 -390.266125 
L 206.907278 -393.872888 
L 208.186998 -397.479652 
L 209.48976 -401.086415 
L 210.783926 -404.693179 
L 212.047384 -408.299942 
L 213.269286 -411.906705 
L 214.449978 -415.513469 
L 215.59914 -419.120232 
L 216.732483 -422.726996 
L 217.8676 -426.333759 
L 219.019757 -429.940522 
L 220.198368 -433.547286 
L 221.404775 -437.154049 
L 222.631675 -440.760813 
L 223.864179 -444.367576 
L 225.082192 -447.974339 
L 226.263547 -451.581103 
L 227.387229 -455.187866 
L 228.436084 -458.79463 
L 229.398549 -462.401393 
L 230.269239 -466.008156 
L 231.048433 -469.61492 
L 231.740766 -473.221683 
L 232.353521 -476.828446 
L 232.894925 -480.43521 
L 233.372803 -484.041973 
L 233.793741 -487.648737 
L 234.162826 -491.2555 
L 234.483833 -494.862263 
L 234.759689 -498.469027 
L 234.993028 -502.07579 
L 235.186661 -505.682554 
L 235.343862 -509.289317 
L 235.46845 -512.89608 
L 235.564684 -516.502844 
L 236.035316 -516.502844 
L 236.035316 -516.502844 
L 236.13155 -512.89608 
L 236.256138 -509.289317 
L 236.413339 -505.682554 
L 236.606972 -502.07579 
L 236.840311 -498.469027 
L 237.116167 -494.862263 
L 237.437174 -491.2555 
L 237.806259 -487.648737 
L 238.227197 -484.041973 
L 238.705075 -480.43521 
L 239.246479 -476.828446 
L 239.859234 -473.221683 
L 240.551567 -469.61492 
L 241.330761 -466.008156 
L 242.201451 -462.401393 
L 243.163916 -458.79463 
L 244.212771 -455.187866 
L 245.336453 -451.581103 
L 246.517808 -447.974339 
L 247.735821 -444.367576 
L 248.968325 -440.760813 
L 250.195225 -437.154049 
L 251.401632 -433.547286 
L 252.580243 -429.940522 
L 253.7324 -426.333759 
L 254.867517 -422.726996 
L 256.00086 -419.120232 
L 257.150022 -415.513469 
L 258.330714 -411.906705 
L 259.552616 -408.299942 
L 260.816074 -404.693179 
L 262.11024 -401.086415 
L 263.413002 -397.479652 
L 264.692722 -393.872888 
L 265.911468 -390.266125 
L 267.029197 -386.659362 
L 268.008202 -383.052598 
L 268.817132 -379.445835 
L 269.434002 -375.839072 
L 269.847824 -372.232308 
L 270.058712 -368.625545 
L 270.076572 -365.018781 
L 269.918691 -361.412018 
L 269.606667 -357.805255 
L 269.163198 -354.198491 
L 268.609236 -350.591728 
L 267.961904 -346.984964 
L 267.233466 -343.378201 
L 266.431415 -339.771438 
L 265.55957 -336.164674 
L 264.619887 -332.557911 
L 263.614545 -328.951147 
L 262.547845 -325.344384 
L 261.427497 -321.737621 
L 260.265005 -318.130857 
L 259.075092 -314.524094 
L 257.874306 -310.917331 
L 256.67914 -307.310567 
L 255.504114 -303.703804 
L 254.36023 -300.09704 
L 253.254148 -296.490277 
L 252.188207 -292.883514 
L 251.161242 -289.27675 
L 250.169957 -285.669987 
L 249.210516 -282.063223 
L 248.279992 -278.45646 
L 247.377368 -274.849697 
L 246.503941 -271.242933 
L 245.663105 -267.63617 
L 244.859629 -264.029406 
L 244.098668 -260.422643 
L 243.38475 -256.81588 
L 242.720964 -253.209116 
L 242.108504 -249.602353 
L 241.54662 -245.995589 
L 241.03291 -242.388826 
L 240.563843 -238.782063 
L 240.135337 -235.175299 
L 239.743265 -231.568536 
L 239.383776 -227.961773 
L 239.053417 -224.355009 
L 238.749085 -220.748246 
L 238.467903 -217.141482 
L 238.207104 -213.534719 
L 237.964 -209.927956 
L 237.73607 -206.321192 
L 237.521141 -202.714429 
L 237.317601 -199.107665 
L 237.124584 -195.500902 
L 236.942037 -191.894139 
L 236.770656 -188.287375 
L 236.61168 -184.680612 
L 236.466589 -181.073848 
L 236.336772 -177.467085 
L 236.223228 -173.860322 
L 236.126359 -170.253558 
L 236.045877 -166.646795 
L 235.980835 -163.040032 
L 235.929745 -159.433268 
z
" style="stroke: #3f3f3f; stroke-width: 1.25"/>
    </defs>
    <g clip-path="url(#p89414a18ea)">
     <use xlink:href="#mea1cc9badf" x="0" y="720" style="fill: #3274a1; stroke: #3f3f3f; stroke-width: 1.25"/>
    </g>
   </g>
   <g id="PolyCollection_2">
    <defs>
     <path id="m588e39bcf6" d="M 347.598769 -151.505364 
L 347.201231 -151.505364 
L 347.135697 -155.156683 
L 347.054123 -158.808001 
L 346.954439 -162.45932 
L 346.834843 -166.110638 
L 346.693963 -169.761956 
L 346.531024 -173.413275 
L 346.345983 -177.064593 
L 346.13964 -180.715911 
L 345.913693 -184.36723 
L 345.670722 -188.018548 
L 345.41411 -191.669867 
L 345.147874 -195.321185 
L 344.876435 -198.972503 
L 344.60432 -202.623822 
L 344.335826 -206.27514 
L 344.07467 -209.926458 
L 343.823647 -213.577777 
L 343.584324 -217.229095 
L 343.356801 -220.880413 
L 343.139543 -224.531732 
L 342.929297 -228.18305 
L 342.721094 -231.834369 
L 342.508323 -235.485687 
L 342.282865 -239.137005 
L 342.035272 -242.788324 
L 341.754986 -246.439642 
L 341.430604 -250.09096 
L 341.050199 -253.742279 
L 340.601733 -257.393597 
L 340.073572 -261.044916 
L 339.455148 -264.696234 
L 338.737738 -268.347552 
L 337.91536 -271.998871 
L 336.985688 -275.650189 
L 335.950899 -279.301507 
L 334.818322 -282.952826 
L 333.600742 -286.604144 
L 332.316259 -290.255463 
L 330.987626 -293.906781 
L 329.641073 -297.558099 
L 328.304696 -301.209418 
L 327.006582 -304.860736 
L 325.77288 -308.512054 
L 324.626075 -312.163373 
L 323.583687 -315.814691 
L 322.657587 -319.466009 
L 321.853998 -323.117328 
L 321.174156 -326.768646 
L 320.615504 -330.419965 
L 320.173175 -334.071283 
L 319.841499 -337.722601 
L 319.615257 -341.37392 
L 319.490443 -345.025238 
L 319.46442 -348.676556 
L 319.535439 -352.327875 
L 319.701633 -355.979193 
L 319.9597 -359.630512 
L 320.303527 -363.28183 
L 320.72307 -366.933148 
L 321.203714 -370.584467 
L 321.726304 -374.235785 
L 322.267923 -377.887103 
L 322.803344 -381.538422 
L 323.307047 -385.18974 
L 323.755533 -388.841058 
L 324.129703 -392.492377 
L 324.41698 -396.143695 
L 324.612971 -399.795014 
L 324.722433 -403.446332 
L 324.759458 -407.09765 
L 324.746814 -410.748969 
L 324.714499 -414.400287 
L 324.69762 -418.051605 
L 324.733773 -421.702924 
L 324.860142 -425.354242 
L 325.110574 -429.005561 
L 325.512872 -432.656879 
L 326.086557 -436.308197 
L 326.841283 -439.959516 
L 327.776054 -443.610834 
L 328.879302 -447.262152 
L 330.129806 -450.913471 
L 331.498352 -454.564789 
L 332.949951 -458.216108 
L 334.446399 -461.867426 
L 335.948921 -465.518744 
L 337.42066 -469.170063 
L 338.828802 -472.821381 
L 340.146176 -476.472699 
L 341.352256 -480.124018 
L 342.433538 -483.775336 
L 343.383349 -487.426654 
L 344.201195 -491.077973 
L 344.891766 -494.729291 
L 345.463757 -498.38061 
L 345.928629 -502.031928 
L 346.29943 -505.683246 
L 346.589765 -509.334565 
L 346.812958 -512.985883 
L 347.987042 -512.985883 
L 347.987042 -512.985883 
L 348.210235 -509.334565 
L 348.50057 -505.683246 
L 348.871371 -502.031928 
L 349.336243 -498.38061 
L 349.908234 -494.729291 
L 350.598805 -491.077973 
L 351.416651 -487.426654 
L 352.366462 -483.775336 
L 353.447744 -480.124018 
L 354.653824 -476.472699 
L 355.971198 -472.821381 
L 357.37934 -469.170063 
L 358.851079 -465.518744 
L 360.353601 -461.867426 
L 361.850049 -458.216108 
L 363.301648 -454.564789 
L 364.670194 -450.913471 
L 365.920698 -447.262152 
L 367.023946 -443.610834 
L 367.958717 -439.959516 
L 368.713443 -436.308197 
L 369.287128 -432.656879 
L 369.689426 -429.005561 
L 369.939858 -425.354242 
L 370.066227 -421.702924 
L 370.10238 -418.051605 
L 370.085501 -414.400287 
L 370.053186 -410.748969 
L 370.040542 -407.09765 
L 370.077567 -403.446332 
L 370.187029 -399.795014 
L 370.38302 -396.143695 
L 370.670297 -392.492377 
L 371.044467 -388.841058 
L 371.492953 -385.18974 
L 371.996656 -381.538422 
L 372.532077 -377.887103 
L 373.073696 -374.235785 
L 373.596286 -370.584467 
L 374.07693 -366.933148 
L 374.496473 -363.28183 
L 374.8403 -359.630512 
L 375.098367 -355.979193 
L 375.264561 -352.327875 
L 375.33558 -348.676556 
L 375.309557 -345.025238 
L 375.184743 -341.37392 
L 374.958501 -337.722601 
L 374.626825 -334.071283 
L 374.184496 -330.419965 
L 373.625844 -326.768646 
L 372.946002 -323.117328 
L 372.142413 -319.466009 
L 371.216313 -315.814691 
L 370.173925 -312.163373 
L 369.02712 -308.512054 
L 367.793418 -304.860736 
L 366.495304 -301.209418 
L 365.158927 -297.558099 
L 363.812374 -293.906781 
L 362.483741 -290.255463 
L 361.199258 -286.604144 
L 359.981678 -282.952826 
L 358.849101 -279.301507 
L 357.814312 -275.650189 
L 356.88464 -271.998871 
L 356.062262 -268.347552 
L 355.344852 -264.696234 
L 354.726428 -261.044916 
L 354.198267 -257.393597 
L 353.749801 -253.742279 
L 353.369396 -250.09096 
L 353.045014 -246.439642 
L 352.764728 -242.788324 
L 352.517135 -239.137005 
L 352.291677 -235.485687 
L 352.078906 -231.834369 
L 351.870703 -228.18305 
L 351.660457 -224.531732 
L 351.443199 -220.880413 
L 351.215676 -217.229095 
L 350.976353 -213.577777 
L 350.72533 -209.926458 
L 350.464174 -206.27514 
L 350.19568 -202.623822 
L 349.923565 -198.972503 
L 349.652126 -195.321185 
L 349.38589 -191.669867 
L 349.129278 -188.018548 
L 348.886307 -184.36723 
L 348.66036 -180.715911 
L 348.454017 -177.064593 
L 348.268976 -173.413275 
L 348.106037 -169.761956 
L 347.965157 -166.110638 
L 347.845561 -162.45932 
L 347.745877 -158.808001 
L 347.664303 -155.156683 
L 347.598769 -151.505364 
z
" style="stroke: #3f3f3f; stroke-width: 1.25"/>
    </defs>
    <g clip-path="url(#p89414a18ea)">
     <use xlink:href="#m588e39bcf6" x="0" y="720" style="fill: #3274a1; stroke: #3f3f3f; stroke-width: 1.25"/>
    </g>
   </g>
   <g id="PolyCollection_3">
    <defs>
     <path id="m874fbad252" d="M 459.268179 -104.4 
L 458.731821 -104.4 
L 458.653123 -108.647988 
L 458.5584 -112.895976 
L 458.446574 -117.143964 
L 458.317111 -121.391952 
L 458.170153 -125.63994 
L 458.006626 -129.887928 
L 457.8283 -134.135916 
L 457.637781 -138.383904 
L 457.438449 -142.631892 
L 457.234329 -146.87988 
L 457.029906 -151.127868 
L 456.82991 -155.375856 
L 456.639079 -159.623844 
L 456.461942 -163.871832 
L 456.302614 -168.11982 
L 456.164643 -172.367808 
L 456.050893 -176.615796 
L 455.963472 -180.863784 
L 455.903677 -185.111772 
L 455.871952 -189.35976 
L 455.867824 -193.607748 
L 455.889822 -197.855735 
L 455.935346 -202.103723 
L 456.000513 -206.351711 
L 456.079981 -210.599699 
L 456.166779 -214.847687 
L 456.252175 -219.095675 
L 456.325624 -223.343663 
L 456.374812 -227.591651 
L 456.38585 -231.839639 
L 456.343617 -236.087627 
L 456.232271 -240.335615 
L 456.035929 -244.583603 
L 455.739482 -248.831591 
L 455.329523 -253.079579 
L 454.795333 -257.327567 
L 454.129848 -261.575555 
L 453.330541 -265.823543 
L 452.400113 -270.071531 
L 451.346917 -274.319519 
L 450.185017 -278.567507 
L 448.933839 -282.815495 
L 447.617364 -287.063483 
L 446.262907 -291.311471 
L 444.89951 -295.559459 
L 443.556102 -299.807447 
L 442.259548 -304.055435 
L 441.032795 -308.303423 
L 439.893296 -312.551411 
L 438.851894 -316.799399 
L 437.912294 -321.047387 
L 437.071215 -325.295375 
L 436.319205 -329.543363 
L 435.642062 -333.791351 
L 435.022698 -338.039339 
L 434.443263 -342.287327 
L 433.887292 -346.535315 
L 433.34165 -350.783303 
L 432.798085 -355.031291 
L 432.254239 -359.279279 
L 431.714045 -363.527267 
L 431.187508 -367.775255 
L 430.689943 -372.023243 
L 430.240767 -376.271231 
L 429.862018 -380.519218 
L 429.576738 -384.767206 
L 429.407374 -389.015194 
L 429.374317 -393.263182 
L 429.49466 -397.51117 
L 429.781227 -401.759158 
L 430.241897 -406.007146 
L 430.879219 -410.255134 
L 431.690309 -414.503122 
L 432.667001 -418.75111 
L 433.796224 -422.999098 
L 435.060594 -427.247086 
L 436.439162 -431.495074 
L 437.908301 -435.743062 
L 439.442673 -439.99105 
L 441.016232 -444.239038 
L 442.603189 -448.487026 
L 444.178919 -452.735014 
L 445.72073 -456.983002 
L 447.208477 -461.23099 
L 448.625009 -465.478978 
L 449.956432 -469.726966 
L 451.192205 -473.974954 
L 452.325096 -478.222942 
L 453.351019 -482.47093 
L 454.26877 -486.718918 
L 455.079715 -490.966906 
L 455.787417 -495.214894 
L 456.397254 -499.462882 
L 456.916017 -503.71087 
L 457.351515 -507.958858 
L 457.712201 -512.206846 
L 458.006814 -516.454834 
L 458.244064 -520.702822 
L 458.432364 -524.95081 
L 459.567636 -524.95081 
L 459.567636 -524.95081 
L 459.755936 -520.702822 
L 459.993186 -516.454834 
L 460.287799 -512.206846 
L 460.648485 -507.958858 
L 461.083983 -503.71087 
L 461.602746 -499.462882 
L 462.212583 -495.214894 
L 462.920285 -490.966906 
L 463.73123 -486.718918 
L 464.648981 -482.47093 
L 465.674904 -478.222942 
L 466.807795 -473.974954 
L 468.043568 -469.726966 
L 469.374991 -465.478978 
L 470.791523 -461.23099 
L 472.27927 -456.983002 
L 473.821081 -452.735014 
L 475.396811 -448.487026 
L 476.983768 -444.239038 
L 478.557327 -439.99105 
L 480.091699 -435.743062 
L 481.560838 -431.495074 
L 482.939406 -427.247086 
L 484.203776 -422.999098 
L 485.332999 -418.75111 
L 486.309691 -414.503122 
L 487.120781 -410.255134 
L 487.758103 -406.007146 
L 488.218773 -401.759158 
L 488.50534 -397.51117 
L 488.625683 -393.263182 
L 488.592626 -389.015194 
L 488.423262 -384.767206 
L 488.137982 -380.519218 
L 487.759233 -376.271231 
L 487.310057 -372.023243 
L 486.812492 -367.775255 
L 486.285955 -363.527267 
L 485.745761 -359.279279 
L 485.201915 -355.031291 
L 484.65835 -350.783303 
L 484.112708 -346.535315 
L 483.556737 -342.287327 
L 482.977302 -338.039339 
L 482.357938 -333.791351 
L 481.680795 -329.543363 
L 480.928785 -325.295375 
L 480.087706 -321.047387 
L 479.148106 -316.799399 
L 478.106704 -312.551411 
L 476.967205 -308.303423 
L 475.740452 -304.055435 
L 474.443898 -299.807447 
L 473.10049 -295.559459 
L 471.737093 -291.311471 
L 470.382636 -287.063483 
L 469.066161 -282.815495 
L 467.814983 -278.567507 
L 466.653083 -274.319519 
L 465.599887 -270.071531 
L 464.669459 -265.823543 
L 463.870152 -261.575555 
L 463.204667 -257.327567 
L 462.670477 -253.079579 
L 462.260518 -248.831591 
L 461.964071 -244.583603 
L 461.767729 -240.335615 
L 461.656383 -236.087627 
L 461.61415 -231.839639 
L 461.625188 -227.591651 
L 461.674376 -223.343663 
L 461.747825 -219.095675 
L 461.833221 -214.847687 
L 461.920019 -210.599699 
L 461.999487 -206.351711 
L 462.064654 -202.103723 
L 462.110178 -197.855735 
L 462.132176 -193.607748 
L 462.128048 -189.35976 
L 462.096323 -185.111772 
L 462.036528 -180.863784 
L 461.949107 -176.615796 
L 461.835357 -172.367808 
L 461.697386 -168.11982 
L 461.538058 -163.871832 
L 461.360921 -159.623844 
L 461.17009 -155.375856 
L 460.970094 -151.127868 
L 460.765671 -146.87988 
L 460.561551 -142.631892 
L 460.362219 -138.383904 
L 460.1717 -134.135916 
L 459.993374 -129.887928 
L 459.829847 -125.63994 
L 459.682889 -121.391952 
L 459.553426 -117.143964 
L 459.4416 -112.895976 
L 459.346877 -108.647988 
L 459.268179 -104.4 
z
" style="stroke: #3f3f3f; stroke-width: 1.25"/>
    </defs>
    <g clip-path="url(#p89414a18ea)">
     <use xlink:href="#m874fbad252" x="0" y="720" style="fill: #3274a1; stroke: #3f3f3f; stroke-width: 1.25"/>
    </g>
   </g>
   <g id="PolyCollection_4">
    <defs>
     <path id="m014504f549" d="M 570.908627 -178.52079 
L 570.291373 -178.52079 
L 570.211966 -182.434867 
L 570.117389 -186.348944 
L 570.006063 -190.263021 
L 569.876492 -194.177098 
L 569.727295 -198.091175 
L 569.55722 -202.005252 
L 569.365137 -205.919329 
L 569.150017 -209.833406 
L 568.910885 -213.747483 
L 568.646764 -217.66156 
L 568.356612 -221.575636 
L 568.039259 -225.489713 
L 567.693369 -229.40379 
L 567.317426 -233.317867 
L 566.909769 -237.231944 
L 566.468679 -241.146021 
L 565.992522 -245.060098 
L 565.479942 -248.974175 
L 564.930101 -252.888252 
L 564.342934 -256.802329 
L 563.719402 -260.716406 
L 563.061708 -264.630482 
L 562.373449 -268.544559 
L 561.659663 -272.458636 
L 560.926773 -276.372713 
L 560.182387 -280.28679 
L 559.434983 -284.200867 
L 558.693478 -288.114944 
L 557.96672 -292.029021 
L 557.26294 -295.943098 
L 556.589218 -299.857175 
L 555.951011 -303.771251 
L 555.351792 -307.685328 
L 554.792842 -311.599405 
L 554.273222 -315.513482 
L 553.789929 -319.427559 
L 553.338227 -323.341636 
L 552.91213 -327.255713 
L 552.504981 -331.16979 
L 552.110077 -335.083867 
L 551.721289 -338.997944 
L 551.3336 -342.912021 
L 550.943519 -346.826097 
L 550.549351 -350.740174 
L 550.151271 -354.654251 
L 549.751248 -358.568328 
L 549.352801 -362.482405 
L 548.960654 -366.396482 
L 548.580315 -370.310559 
L 548.217651 -374.224636 
L 547.878486 -378.138713 
L 547.568282 -382.05279 
L 547.29191 -385.966867 
L 547.053529 -389.880943 
L 546.856576 -393.79502 
L 546.703827 -397.709097 
L 546.597516 -401.623174 
L 546.539486 -405.537251 
L 546.531316 -409.451328 
L 546.574428 -413.365405 
L 546.670141 -417.279482 
L 546.819676 -421.193559 
L 547.024114 -425.107636 
L 547.284319 -429.021713 
L 547.600854 -432.935789 
L 547.973888 -436.849866 
L 548.403136 -440.763943 
L 548.887817 -444.67802 
L 549.426649 -448.592097 
L 550.017865 -452.506174 
L 550.659257 -456.420251 
L 551.348211 -460.334328 
L 552.081746 -464.248405 
L 552.856525 -468.162482 
L 553.668849 -472.076558 
L 554.51462 -475.990635 
L 555.38929 -479.904712 
L 556.287804 -483.818789 
L 557.204554 -487.732866 
L 558.133354 -491.646943 
L 559.067458 -495.56102 
L 559.999633 -499.475097 
L 560.922277 -503.389174 
L 561.827601 -507.303251 
L 562.707847 -511.217328 
L 563.555535 -515.131404 
L 564.363732 -519.045481 
L 565.126293 -522.959558 
L 565.838085 -526.873635 
L 566.49516 -530.787712 
L 567.094863 -534.701789 
L 567.635881 -538.615866 
L 568.118214 -542.529943 
L 568.543092 -546.44402 
L 568.912829 -550.358097 
L 569.230646 -554.272174 
L 569.500463 -558.18625 
L 569.726679 -562.100327 
L 569.913966 -566.014404 
L 571.286034 -566.014404 
L 571.286034 -566.014404 
L 571.473321 -562.100327 
L 571.699537 -558.18625 
L 571.969354 -554.272174 
L 572.287171 -550.358097 
L 572.656908 -546.44402 
L 573.081786 -542.529943 
L 573.564119 -538.615866 
L 574.105137 -534.701789 
L 574.70484 -530.787712 
L 575.361915 -526.873635 
L 576.073707 -522.959558 
L 576.836268 -519.045481 
L 577.644465 -515.131404 
L 578.492153 -511.217328 
L 579.372399 -507.303251 
L 580.277723 -503.389174 
L 581.200367 -499.475097 
L 582.132542 -495.56102 
L 583.066646 -491.646943 
L 583.995446 -487.732866 
L 584.912196 -483.818789 
L 585.81071 -479.904712 
L 586.68538 -475.990635 
L 587.531151 -472.076558 
L 588.343475 -468.162482 
L 589.118254 -464.248405 
L 589.851789 -460.334328 
L 590.540743 -456.420251 
L 591.182135 -452.506174 
L 591.773351 -448.592097 
L 592.312183 -444.67802 
L 592.796864 -440.763943 
L 593.226112 -436.849866 
L 593.599146 -432.935789 
L 593.915681 -429.021713 
L 594.175886 -425.107636 
L 594.380324 -421.193559 
L 594.529859 -417.279482 
L 594.625572 -413.365405 
L 594.668684 -409.451328 
L 594.660514 -405.537251 
L 594.602484 -401.623174 
L 594.496173 -397.709097 
L 594.343424 -393.79502 
L 594.146471 -389.880943 
L 593.90809 -385.966867 
L 593.631718 -382.05279 
L 593.321514 -378.138713 
L 592.982349 -374.224636 
L 592.619685 -370.310559 
L 592.239346 -366.396482 
L 591.847199 -362.482405 
L 591.448752 -358.568328 
L 591.048729 -354.654251 
L 590.650649 -350.740174 
L 590.256481 -346.826097 
L 589.8664 -342.912021 
L 589.478711 -338.997944 
L 589.089923 -335.083867 
L 588.695019 -331.16979 
L 588.28787 -327.255713 
L 587.861773 -323.341636 
L 587.410071 -319.427559 
L 586.926778 -315.513482 
L 586.407158 -311.599405 
L 585.848208 -307.685328 
L 585.248989 -303.771251 
L 584.610782 -299.857175 
L 583.93706 -295.943098 
L 583.23328 -292.029021 
L 582.506522 -288.114944 
L 581.765017 -284.200867 
L 581.017613 -280.28679 
L 580.273227 -276.372713 
L 579.540337 -272.458636 
L 578.826551 -268.544559 
L 578.138292 -264.630482 
L 577.480598 -260.716406 
L 576.857066 -256.802329 
L 576.269899 -252.888252 
L 575.720058 -248.974175 
L 575.207478 -245.060098 
L 574.731321 -241.146021 
L 574.290231 -237.231944 
L 573.882574 -233.317867 
L 573.506631 -229.40379 
L 573.160741 -225.489713 
L 572.843388 -221.575636 
L 572.553236 -217.66156 
L 572.289115 -213.747483 
L 572.049983 -209.833406 
L 571.834863 -205.919329 
L 571.64278 -202.005252 
L 571.472705 -198.091175 
L 571.323508 -194.177098 
L 571.193937 -190.263021 
L 571.082611 -186.348944 
L 570.988034 -182.434867 
L 570.908627 -178.52079 
z
" style="stroke: #3f3f3f; stroke-width: 1.25"/>
    </defs>
    <g clip-path="url(#p89414a18ea)">
     <use xlink:href="#m014504f549" x="0" y="720" style="fill: #3274a1; stroke: #3f3f3f; stroke-width: 1.25"/>
    </g>
   </g>
   <g id="PolyCollection_5">
    <defs>
     <path id="mb2d0d1fcbf" d="M 683.118577 -255.498276 
L 681.281423 -255.498276 
L 681.068091 -258.181439 
L 680.8166 -260.864603 
L 680.522842 -263.547767 
L 680.182825 -266.23093 
L 679.792795 -268.914094 
L 679.349355 -271.597257 
L 678.849597 -274.280421 
L 678.291217 -276.963584 
L 677.672634 -279.646748 
L 676.993085 -282.329911 
L 676.252715 -285.013075 
L 675.452642 -287.696238 
L 674.595009 -290.379402 
L 673.683016 -293.062565 
L 672.720942 -295.745729 
L 671.714142 -298.428892 
L 670.669045 -301.112056 
L 669.593125 -303.795219 
L 668.494869 -306.478383 
L 667.383718 -309.161546 
L 666.269989 -311.84471 
L 665.164766 -314.527874 
L 664.079752 -317.211037 
L 663.027069 -319.894201 
L 662.019016 -322.577364 
L 661.067757 -325.260528 
L 660.184968 -327.943691 
L 659.381422 -330.626855 
L 658.666548 -333.310018 
L 658.047975 -335.993182 
L 657.531088 -338.676345 
L 657.118617 -341.359509 
L 656.810319 -344.042672 
L 656.602751 -346.725836 
L 656.489191 -349.408999 
L 656.459711 -352.092163 
L 656.50143 -354.775326 
L 656.59893 -357.45849 
L 656.734846 -360.141654 
L 656.890578 -362.824817 
L 657.04712 -365.507981 
L 657.185923 -368.191144 
L 657.289777 -370.874308 
L 657.343629 -373.557471 
L 657.335289 -376.240635 
L 657.255996 -378.923798 
L 657.100786 -381.606962 
L 656.868643 -384.290125 
L 656.562449 -386.973289 
L 656.188708 -389.656452 
L 655.757099 -392.339616 
L 655.279879 -395.022779 
L 654.771185 -397.705943 
L 654.246304 -400.389106 
L 653.720935 -403.07227 
L 653.210523 -405.755433 
L 652.729686 -408.438597 
L 652.291776 -411.121761 
L 651.908586 -413.804924 
L 651.590204 -416.488088 
L 651.345004 -419.171251 
L 651.179757 -421.854415 
L 651.099818 -424.537578 
L 651.109357 -427.220742 
L 651.211601 -429.903905 
L 651.409046 -432.587069 
L 651.70361 -435.270232 
L 652.096709 -437.953396 
L 652.58925 -440.636559 
L 653.181537 -443.319723 
L 653.873114 -446.002886 
L 654.662551 -448.68605 
L 655.547215 -451.369213 
L 656.523051 -454.052377 
L 657.5844 -456.73554 
L 658.723891 -459.418704 
L 659.932408 -462.101868 
L 661.199168 -464.785031 
L 662.511901 -467.468195 
L 663.857115 -470.151358 
L 665.220458 -472.834522 
L 666.587134 -475.517685 
L 667.942351 -478.200849 
L 669.271783 -480.884012 
L 670.562006 -483.567176 
L 671.800892 -486.250339 
L 672.977931 -488.933503 
L 674.084477 -491.616666 
L 675.113893 -494.29983 
L 676.061618 -496.982993 
L 676.925128 -499.666157 
L 677.703831 -502.34932 
L 678.398887 -505.032484 
L 679.012982 -507.715647 
L 679.550066 -510.398811 
L 680.015074 -513.081975 
L 680.413653 -515.765138 
L 680.751891 -518.448302 
L 681.036078 -521.131465 
L 683.363922 -521.131465 
L 683.363922 -521.131465 
L 683.648109 -518.448302 
L 683.986347 -515.765138 
L 684.384926 -513.081975 
L 684.849934 -510.398811 
L 685.387018 -507.715647 
L 686.001113 -505.032484 
L 686.696169 -502.34932 
L 687.474872 -499.666157 
L 688.338382 -496.982993 
L 689.286107 -494.29983 
L 690.315523 -491.616666 
L 691.422069 -488.933503 
L 692.599108 -486.250339 
L 693.837994 -483.567176 
L 695.128217 -480.884012 
L 696.457649 -478.200849 
L 697.812866 -475.517685 
L 699.179542 -472.834522 
L 700.542885 -470.151358 
L 701.888099 -467.468195 
L 703.200832 -464.785031 
L 704.467592 -462.101868 
L 705.676109 -459.418704 
L 706.8156 -456.73554 
L 707.876949 -454.052377 
L 708.852785 -451.369213 
L 709.737449 -448.68605 
L 710.526886 -446.002886 
L 711.218463 -443.319723 
L 711.81075 -440.636559 
L 712.303291 -437.953396 
L 712.69639 -435.270232 
L 712.990954 -432.587069 
L 713.188399 -429.903905 
L 713.290643 -427.220742 
L 713.300182 -424.537578 
L 713.220243 -421.854415 
L 713.054996 -419.171251 
L 712.809796 -416.488088 
L 712.491414 -413.804924 
L 712.108224 -411.121761 
L 711.670314 -408.438597 
L 711.189477 -405.755433 
L 710.679065 -403.07227 
L 710.153696 -400.389106 
L 709.628815 -397.705943 
L 709.120121 -395.022779 
L 708.642901 -392.339616 
L 708.211292 -389.656452 
L 707.837551 -386.973289 
L 707.531357 -384.290125 
L 707.299214 -381.606962 
L 707.144004 -378.923798 
L 707.064711 -376.240635 
L 707.056371 -373.557471 
L 707.110223 -370.874308 
L 707.214077 -368.191144 
L 707.35288 -365.507981 
L 707.509422 -362.824817 
L 707.665154 -360.141654 
L 707.80107 -357.45849 
L 707.89857 -354.775326 
L 707.940289 -352.092163 
L 707.910809 -349.408999 
L 707.797249 -346.725836 
L 707.589681 -344.042672 
L 707.281383 -341.359509 
L 706.868912 -338.676345 
L 706.352025 -335.993182 
L 705.733452 -333.310018 
L 705.018578 -330.626855 
L 704.215032 -327.943691 
L 703.332243 -325.260528 
L 702.380984 -322.577364 
L 701.372931 -319.894201 
L 700.320248 -317.211037 
L 699.235234 -314.527874 
L 698.130011 -311.84471 
L 697.016282 -309.161546 
L 695.905131 -306.478383 
L 694.806875 -303.795219 
L 693.730955 -301.112056 
L 692.685858 -298.428892 
L 691.679058 -295.745729 
L 690.716984 -293.062565 
L 689.804991 -290.379402 
L 688.947358 -287.696238 
L 688.147285 -285.013075 
L 687.406915 -282.329911 
L 686.727366 -279.646748 
L 686.108783 -276.963584 
L 685.550403 -274.280421 
L 685.050645 -271.597257 
L 684.607205 -268.914094 
L 684.217175 -266.23093 
L 683.877158 -263.547767 
L 683.5834 -260.864603 
L 683.331909 -258.181439 
L 683.118577 -255.498276 
z
" style="stroke: #3f3f3f; stroke-width: 1.25"/>
    </defs>
    <g clip-path="url(#p89414a18ea)">
     <use xlink:href="#mb2d0d1fcbf" x="0" y="720" style="fill: #3274a1; stroke: #3f3f3f; stroke-width: 1.25"/>
    </g>
   </g>
   <g id="PolyCollection_6">
    <defs>
     <path id="mfb357ac8bb" d="M 794.219157 -251.945412 
L 793.380843 -251.945412 
L 793.24767 -255.168936 
L 793.083536 -258.392461 
L 792.884835 -261.615985 
L 792.648481 -264.839509 
L 792.372118 -268.063034 
L 792.054281 -271.286558 
L 791.694467 -274.510082 
L 791.293099 -277.733607 
L 790.85135 -280.957131 
L 790.370838 -284.180656 
L 789.853188 -287.40418 
L 789.299518 -290.627704 
L 788.709863 -293.851229 
L 788.082636 -297.074753 
L 787.41416 -300.298278 
L 786.698356 -303.521802 
L 785.926631 -306.745326 
L 785.088003 -309.968851 
L 784.169479 -313.192375 
L 783.156677 -316.415899 
L 782.034674 -319.639424 
L 780.789031 -322.862948 
L 779.406939 -326.086473 
L 777.878452 -329.309997 
L 776.197722 -332.533521 
L 774.364202 -335.757046 
L 772.383747 -338.98057 
L 770.269553 -342.204095 
L 768.042866 -345.427619 
L 765.733385 -348.651143 
L 763.379281 -351.874668 
L 761.026743 -355.098192 
L 758.728995 -358.321716 
L 756.544732 -361.545241 
L 754.535974 -364.768765 
L 752.765386 -367.99229 
L 751.293154 -371.215814 
L 750.173601 -374.439338 
L 749.451737 -377.662863 
L 749.16 -380.886387 
L 749.31547 -384.109912 
L 749.917799 -387.333436 
L 750.9481 -390.55696 
L 752.368974 -393.780485 
L 754.125747 -397.004009 
L 756.148948 -400.227533 
L 758.357905 -403.451058 
L 760.665272 -406.674582 
L 762.982189 -409.898107 
L 765.22372 -413.121631 
L 767.314155 -416.345155 
L 769.191749 -419.56868 
L 770.812509 -422.792204 
L 772.152675 -426.015729 
L 773.209669 -429.239253 
L 774.001396 -432.462777 
L 774.563921 -435.686302 
L 774.947728 -438.909826 
L 775.212885 -442.13335 
L 775.423556 -445.356875 
L 775.642372 -448.580399 
L 775.925193 -451.803924 
L 776.31674 -455.027448 
L 776.847469 -458.250972 
L 777.531943 -461.474497 
L 778.368756 -464.698021 
L 779.341924 -467.921546 
L 780.423502 -471.14507 
L 781.577055 -474.368594 
L 782.761581 -477.592119 
L 783.93546 -480.815643 
L 785.06004 -484.039168 
L 786.102565 -487.262692 
L 787.038248 -490.486216 
L 787.851397 -493.709741 
L 788.535623 -496.933265 
L 789.093221 -500.156789 
L 789.533908 -503.380314 
L 789.873095 -506.603838 
L 790.129933 -509.827363 
L 790.32531 -513.050887 
L 790.479987 -516.274411 
L 790.613008 -519.497936 
L 790.740484 -522.72146 
L 790.874793 -525.944985 
L 791.024222 -529.168509 
L 791.193006 -532.392033 
L 791.381711 -535.615558 
L 791.587875 -538.839082 
L 791.80681 -542.062606 
L 792.032463 -545.286131 
L 792.258247 -548.509655 
L 792.47777 -551.73318 
L 792.685403 -554.956704 
L 792.876669 -558.180228 
L 793.048441 -561.403753 
L 793.198978 -564.627277 
L 793.32782 -567.850802 
L 793.435587 -571.074326 
L 794.164413 -571.074326 
L 794.164413 -571.074326 
L 794.27218 -567.850802 
L 794.401022 -564.627277 
L 794.551559 -561.403753 
L 794.723331 -558.180228 
L 794.914597 -554.956704 
L 795.12223 -551.73318 
L 795.341753 -548.509655 
L 795.567537 -545.286131 
L 795.79319 -542.062606 
L 796.012125 -538.839082 
L 796.218289 -535.615558 
L 796.406994 -532.392033 
L 796.575778 -529.168509 
L 796.725207 -525.944985 
L 796.859516 -522.72146 
L 796.986992 -519.497936 
L 797.120013 -516.274411 
L 797.27469 -513.050887 
L 797.470067 -509.827363 
L 797.726905 -506.603838 
L 798.066092 -503.380314 
L 798.506779 -500.156789 
L 799.064377 -496.933265 
L 799.748603 -493.709741 
L 800.561752 -490.486216 
L 801.497435 -487.262692 
L 802.53996 -484.039168 
L 803.66454 -480.815643 
L 804.838419 -477.592119 
L 806.022945 -474.368594 
L 807.176498 -471.14507 
L 808.258076 -467.921546 
L 809.231244 -464.698021 
L 810.068057 -461.474497 
L 810.752531 -458.250972 
L 811.28326 -455.027448 
L 811.674807 -451.803924 
L 811.957628 -448.580399 
L 812.176444 -445.356875 
L 812.387115 -442.13335 
L 812.652272 -438.909826 
L 813.036079 -435.686302 
L 813.598604 -432.462777 
L 814.390331 -429.239253 
L 815.447325 -426.015729 
L 816.787491 -422.792204 
L 818.408251 -419.56868 
L 820.285845 -416.345155 
L 822.37628 -413.121631 
L 824.617811 -409.898107 
L 826.934728 -406.674582 
L 829.242095 -403.451058 
L 831.451052 -400.227533 
L 833.474253 -397.004009 
L 835.231026 -393.780485 
L 836.6519 -390.55696 
L 837.682201 -387.333436 
L 838.28453 -384.109912 
L 838.44 -380.886387 
L 838.148263 -377.662863 
L 837.426399 -374.439338 
L 836.306846 -371.215814 
L 834.834614 -367.99229 
L 833.064026 -364.768765 
L 831.055268 -361.545241 
L 828.871005 -358.321716 
L 826.573257 -355.098192 
L 824.220719 -351.874668 
L 821.866615 -348.651143 
L 819.557134 -345.427619 
L 817.330447 -342.204095 
L 815.216253 -338.98057 
L 813.235798 -335.757046 
L 811.402278 -332.533521 
L 809.721548 -329.309997 
L 808.193061 -326.086473 
L 806.810969 -322.862948 
L 805.565326 -319.639424 
L 804.443323 -316.415899 
L 803.430521 -313.192375 
L 802.511997 -309.968851 
L 801.673369 -306.745326 
L 800.901644 -303.521802 
L 800.18584 -300.298278 
L 799.517364 -297.074753 
L 798.890137 -293.851229 
L 798.300482 -290.627704 
L 797.746812 -287.40418 
L 797.229162 -284.180656 
L 796.74865 -280.957131 
L 796.306901 -277.733607 
L 795.905533 -274.510082 
L 795.545719 -271.286558 
L 795.227882 -268.063034 
L 794.951519 -264.839509 
L 794.715165 -261.615985 
L 794.516464 -258.392461 
L 794.35233 -255.168936 
L 794.219157 -251.945412 
z
" style="stroke: #3f3f3f; stroke-width: 1.25"/>
    </defs>
    <g clip-path="url(#p89414a18ea)">
     <use xlink:href="#mfb357ac8bb" x="0" y="720" style="fill: #3274a1; stroke: #3f3f3f; stroke-width: 1.25"/>
    </g>
   </g>
   <g id="PolyCollection_7">
    <defs>
     <path id="m26a0331482" d="M 905.762282 -149.397899 
L 905.037718 -149.397899 
L 904.952839 -153.758815 
L 904.854146 -158.119731 
L 904.740941 -162.480647 
L 904.612856 -166.841563 
L 904.469914 -171.202479 
L 904.312574 -175.563395 
L 904.141751 -179.924311 
L 903.958807 -184.285227 
L 903.765505 -188.646143 
L 903.563926 -193.007058 
L 903.356356 -197.367974 
L 903.145137 -201.72889 
L 902.93251 -206.089806 
L 902.720436 -210.450722 
L 902.510442 -214.811638 
L 902.303477 -219.172554 
L 902.099819 -223.53347 
L 901.899024 -227.894386 
L 901.699943 -232.255302 
L 901.500789 -236.616218 
L 901.299277 -240.977134 
L 901.092791 -245.33805 
L 900.878599 -249.698966 
L 900.654059 -254.059882 
L 900.416825 -258.420798 
L 900.165001 -262.781714 
L 899.89725 -267.14263 
L 899.61283 -271.503545 
L 899.311548 -275.864461 
L 898.993658 -280.225377 
L 898.659687 -284.586293 
L 898.310234 -288.947209 
L 897.945753 -293.308125 
L 897.566348 -297.669041 
L 897.171625 -302.029957 
L 896.760593 -306.390873 
L 896.331653 -310.751789 
L 895.882677 -315.112705 
L 895.411154 -319.473621 
L 894.914411 -323.834537 
L 894.389871 -328.195453 
L 893.83533 -332.556369 
L 893.249221 -336.917285 
L 892.630829 -341.278201 
L 891.980464 -345.639116 
L 891.29954 -350.000032 
L 890.590601 -354.360948 
L 889.857254 -358.721864 
L 889.104064 -363.08278 
L 888.336393 -367.443696 
L 887.560237 -371.804612 
L 886.782052 -376.165528 
L 886.008604 -380.526444 
L 885.246847 -384.88736 
L 884.503838 -389.248276 
L 883.786682 -393.609192 
L 883.102504 -397.970108 
L 882.45844 -402.331024 
L 881.861624 -406.69194 
L 881.319181 -411.052856 
L 880.83819 -415.413772 
L 880.425634 -419.774688 
L 880.088319 -424.135603 
L 879.832774 -428.496519 
L 879.665125 -432.857435 
L 879.590959 -437.218351 
L 879.615173 -441.579267 
L 879.741821 -445.940183 
L 879.973954 -450.301099 
L 880.313475 -454.662015 
L 880.760987 -459.022931 
L 881.31566 -463.383847 
L 881.975113 -467.744763 
L 882.735317 -472.105679 
L 883.590534 -476.466595 
L 884.533298 -480.827511 
L 885.554444 -485.188427 
L 886.64321 -489.549343 
L 887.787399 -493.910259 
L 888.973617 -498.271175 
L 890.187578 -502.63209 
L 891.41447 -506.993006 
L 892.63936 -511.353922 
L 893.847631 -515.714838 
L 895.025415 -520.075754 
L 896.159996 -524.43667 
L 897.240175 -528.797586 
L 898.25656 -533.158502 
L 899.201769 -537.519418 
L 900.070537 -541.880334 
L 900.859737 -546.24125 
L 901.568292 -550.602166 
L 902.197016 -554.963082 
L 902.748389 -559.323998 
L 903.226277 -563.684914 
L 903.635634 -568.04583 
L 903.98219 -572.406746 
L 904.27215 -576.767662 
L 904.511923 -581.128577 
L 906.288077 -581.128577 
L 906.288077 -581.128577 
L 906.52785 -576.767662 
L 906.81781 -572.406746 
L 907.164366 -568.04583 
L 907.573723 -563.684914 
L 908.051611 -559.323998 
L 908.602984 -554.963082 
L 909.231708 -550.602166 
L 909.940263 -546.24125 
L 910.729463 -541.880334 
L 911.598231 -537.519418 
L 912.54344 -533.158502 
L 913.559825 -528.797586 
L 914.640004 -524.43667 
L 915.774585 -520.075754 
L 916.952369 -515.714838 
L 918.16064 -511.353922 
L 919.38553 -506.993006 
L 920.612422 -502.63209 
L 921.826383 -498.271175 
L 923.012601 -493.910259 
L 924.15679 -489.549343 
L 925.245556 -485.188427 
L 926.266702 -480.827511 
L 927.209466 -476.466595 
L 928.064683 -472.105679 
L 928.824887 -467.744763 
L 929.48434 -463.383847 
L 930.039013 -459.022931 
L 930.486525 -454.662015 
L 930.826046 -450.301099 
L 931.058179 -445.940183 
L 931.184827 -441.579267 
L 931.209041 -437.218351 
L 931.134875 -432.857435 
L 930.967226 -428.496519 
L 930.711681 -424.135603 
L 930.374366 -419.774688 
L 929.96181 -415.413772 
L 929.480819 -411.052856 
L 928.938376 -406.69194 
L 928.34156 -402.331024 
L 927.697496 -397.970108 
L 927.013318 -393.609192 
L 926.296162 -389.248276 
L 925.553153 -384.88736 
L 924.791396 -380.526444 
L 924.017948 -376.165528 
L 923.239763 -371.804612 
L 922.463607 -367.443696 
L 921.695936 -363.08278 
L 920.942746 -358.721864 
L 920.209399 -354.360948 
L 919.50046 -350.000032 
L 918.819536 -345.639116 
L 918.169171 -341.278201 
L 917.550779 -336.917285 
L 916.96467 -332.556369 
L 916.410129 -328.195453 
L 915.885589 -323.834537 
L 915.388846 -319.473621 
L 914.917323 -315.112705 
L 914.468347 -310.751789 
L 914.039407 -306.390873 
L 913.628375 -302.029957 
L 913.233652 -297.669041 
L 912.854247 -293.308125 
L 912.489766 -288.947209 
L 912.140313 -284.586293 
L 911.806342 -280.225377 
L 911.488452 -275.864461 
L 911.18717 -271.503545 
L 910.90275 -267.14263 
L 910.634999 -262.781714 
L 910.383175 -258.420798 
L 910.145941 -254.059882 
L 909.921401 -249.698966 
L 909.707209 -245.33805 
L 909.500723 -240.977134 
L 909.299211 -236.616218 
L 909.100057 -232.255302 
L 908.900976 -227.894386 
L 908.700181 -223.53347 
L 908.496523 -219.172554 
L 908.289558 -214.811638 
L 908.079564 -210.450722 
L 907.86749 -206.089806 
L 907.654863 -201.72889 
L 907.443644 -197.367974 
L 907.236074 -193.007058 
L 907.034495 -188.646143 
L 906.841193 -184.285227 
L 906.658249 -179.924311 
L 906.487426 -175.563395 
L 906.330086 -171.202479 
L 906.187144 -166.841563 
L 906.059059 -162.480647 
L 905.945854 -158.119731 
L 905.847161 -153.758815 
L 905.762282 -149.397899 
z
" style="stroke: #3f3f3f; stroke-width: 1.25"/>
    </defs>
    <g clip-path="url(#p89414a18ea)">
     <use xlink:href="#m26a0331482" x="0" y="720" style="fill: #3274a1; stroke: #3f3f3f; stroke-width: 1.25"/>
    </g>
   </g>
   <g id="PolyCollection_8">
    <defs>
     <path id="mf693885ff4" d="M 1017.439558 -169.931007 
L 1016.560442 -169.931007 
L 1016.459464 -173.941294 
L 1016.34158 -177.951581 
L 1016.205462 -181.961868 
L 1016.049975 -185.972155 
L 1015.874235 -189.982442 
L 1015.677648 -193.992729 
L 1015.459939 -198.003016 
L 1015.22116 -202.013303 
L 1014.961676 -206.02359 
L 1014.682137 -210.033877 
L 1014.383423 -214.044163 
L 1014.06658 -218.05445 
L 1013.732736 -222.064737 
L 1013.383027 -226.075024 
L 1013.018517 -230.085311 
L 1012.640136 -234.095598 
L 1012.248643 -238.105885 
L 1011.844605 -242.116172 
L 1011.428415 -246.126459 
L 1011.000332 -250.136746 
L 1010.56055 -254.147033 
L 1010.10928 -258.157319 
L 1009.646844 -262.167606 
L 1009.17376 -266.177893 
L 1008.690817 -270.18818 
L 1008.199119 -274.198467 
L 1007.700094 -278.208754 
L 1007.195471 -282.219041 
L 1006.687206 -286.229328 
L 1006.177377 -290.239615 
L 1005.668053 -294.249902 
L 1005.161138 -298.260189 
L 1004.658221 -302.270476 
L 1004.16043 -306.280762 
L 1003.668312 -310.291049 
L 1003.181761 -314.301336 
L 1002.699981 -318.311623 
L 1002.221516 -322.32191 
L 1001.744328 -326.332197 
L 1001.265934 -330.342484 
L 1000.783589 -334.352771 
L 1000.294509 -338.363058 
L 999.796111 -342.373345 
L 999.286275 -346.383632 
L 998.763588 -350.393919 
L 998.22757 -354.404205 
L 997.678863 -358.414492 
L 997.119368 -362.424779 
L 996.552319 -366.435066 
L 995.982289 -370.445353 
L 995.415123 -374.45564 
L 994.857803 -378.465927 
L 994.318246 -382.476214 
L 993.805046 -386.486501 
L 993.327186 -390.496788 
L 992.893712 -394.507075 
L 992.513422 -398.517362 
L 992.194559 -402.527648 
L 991.944542 -406.537935 
L 991.769749 -410.548222 
L 991.675358 -414.558509 
L 991.665251 -418.568796 
L 991.74199 -422.579083 
L 991.906843 -426.58937 
L 992.159869 -430.599657 
L 992.500022 -434.609944 
L 992.925289 -438.620231 
L 993.432814 -442.630518 
L 994.019019 -446.640804 
L 994.679697 -450.651091 
L 995.410074 -454.661378 
L 996.204847 -458.671665 
L 997.058186 -462.681952 
L 997.963729 -466.692239 
L 998.914563 -470.702526 
L 999.903222 -474.712813 
L 1000.921696 -478.7231 
L 1001.96148 -482.733387 
L 1003.013652 -486.743674 
L 1004.069004 -490.753961 
L 1005.118204 -494.764247 
L 1006.15199 -498.774534 
L 1007.161393 -502.784821 
L 1008.137959 -506.795108 
L 1009.073976 -510.805395 
L 1009.96267 -514.815682 
L 1010.798376 -518.825969 
L 1011.576657 -522.836256 
L 1012.29438 -526.846543 
L 1012.94973 -530.85683 
L 1013.542181 -534.867117 
L 1014.072411 -538.877404 
L 1014.542178 -542.88769 
L 1014.954168 -546.897977 
L 1015.311816 -550.908264 
L 1015.619128 -554.918551 
L 1015.880487 -558.928838 
L 1016.100488 -562.939125 
L 1016.283774 -566.949412 
L 1017.716226 -566.949412 
L 1017.716226 -566.949412 
L 1017.899512 -562.939125 
L 1018.119513 -558.928838 
L 1018.380872 -554.918551 
L 1018.688184 -550.908264 
L 1019.045832 -546.897977 
L 1019.457822 -542.88769 
L 1019.927589 -538.877404 
L 1020.457819 -534.867117 
L 1021.05027 -530.85683 
L 1021.70562 -526.846543 
L 1022.423343 -522.836256 
L 1023.201624 -518.825969 
L 1024.03733 -514.815682 
L 1024.926024 -510.805395 
L 1025.862041 -506.795108 
L 1026.838607 -502.784821 
L 1027.84801 -498.774534 
L 1028.881796 -494.764247 
L 1029.930996 -490.753961 
L 1030.986348 -486.743674 
L 1032.03852 -482.733387 
L 1033.078304 -478.7231 
L 1034.096778 -474.712813 
L 1035.085437 -470.702526 
L 1036.036271 -466.692239 
L 1036.941814 -462.681952 
L 1037.795153 -458.671665 
L 1038.589926 -454.661378 
L 1039.320303 -450.651091 
L 1039.980981 -446.640804 
L 1040.567186 -442.630518 
L 1041.074711 -438.620231 
L 1041.499978 -434.609944 
L 1041.840131 -430.599657 
L 1042.093157 -426.58937 
L 1042.25801 -422.579083 
L 1042.334749 -418.568796 
L 1042.324642 -414.558509 
L 1042.230251 -410.548222 
L 1042.055458 -406.537935 
L 1041.805441 -402.527648 
L 1041.486578 -398.517362 
L 1041.106288 -394.507075 
L 1040.672814 -390.496788 
L 1040.194954 -386.486501 
L 1039.681754 -382.476214 
L 1039.142197 -378.465927 
L 1038.584877 -374.45564 
L 1038.017711 -370.445353 
L 1037.447681 -366.435066 
L 1036.880632 -362.424779 
L 1036.321137 -358.414492 
L 1035.77243 -354.404205 
L 1035.236412 -350.393919 
L 1034.713725 -346.383632 
L 1034.203889 -342.373345 
L 1033.705491 -338.363058 
L 1033.216411 -334.352771 
L 1032.734066 -330.342484 
L 1032.255672 -326.332197 
L 1031.778484 -322.32191 
L 1031.300019 -318.311623 
L 1030.818239 -314.301336 
L 1030.331688 -310.291049 
L 1029.83957 -306.280762 
L 1029.341779 -302.270476 
L 1028.838862 -298.260189 
L 1028.331947 -294.249902 
L 1027.822623 -290.239615 
L 1027.312794 -286.229328 
L 1026.804529 -282.219041 
L 1026.299906 -278.208754 
L 1025.800881 -274.198467 
L 1025.309183 -270.18818 
L 1024.82624 -266.177893 
L 1024.353156 -262.167606 
L 1023.89072 -258.157319 
L 1023.43945 -254.147033 
L 1022.999668 -250.136746 
L 1022.571585 -246.126459 
L 1022.155395 -242.116172 
L 1021.751357 -238.105885 
L 1021.359864 -234.095598 
L 1020.981483 -230.085311 
L 1020.616973 -226.075024 
L 1020.267264 -222.064737 
L 1019.93342 -218.05445 
L 1019.616577 -214.044163 
L 1019.317863 -210.033877 
L 1019.038324 -206.02359 
L 1018.77884 -202.013303 
L 1018.540061 -198.003016 
L 1018.322352 -193.992729 
L 1018.125765 -189.982442 
L 1017.950025 -185.972155 
L 1017.794538 -181.961868 
L 1017.65842 -177.951581 
L 1017.540536 -173.941294 
L 1017.439558 -169.931007 
z
" style="stroke: #3f3f3f; stroke-width: 1.25"/>
    </defs>
    <g clip-path="url(#p89414a18ea)">
     <use xlink:href="#mf693885ff4" x="0" y="720" style="fill: #3274a1; stroke: #3f3f3f; stroke-width: 1.25"/>
    </g>
   </g>
   <g id="PolyCollection_9">
    <defs>
     <path id="mc0f6f7036d" d="M 1129.133173 -211.698084 
L 1128.066827 -211.698084 
L 1127.943059 -215.521318 
L 1127.798256 -219.344552 
L 1127.630671 -223.167786 
L 1127.438768 -226.99102 
L 1127.22128 -230.814253 
L 1126.977248 -234.637487 
L 1126.706037 -238.460721 
L 1126.407336 -242.283955 
L 1126.08112 -246.107189 
L 1125.727594 -249.930422 
L 1125.347104 -253.753656 
L 1124.940036 -257.57689 
L 1124.506705 -261.400124 
L 1124.047244 -265.223358 
L 1123.561511 -269.046591 
L 1123.049027 -272.869825 
L 1122.508949 -276.693059 
L 1121.940096 -280.516293 
L 1121.341027 -284.339527 
L 1120.710171 -288.16276 
L 1120.045995 -291.985994 
L 1119.347212 -295.809228 
L 1118.612995 -299.632462 
L 1117.843182 -303.455696 
L 1117.038456 -307.278929 
L 1116.200469 -311.102163 
L 1115.331906 -314.925397 
L 1114.436473 -318.748631 
L 1113.518808 -322.571865 
L 1112.584328 -326.395098 
L 1111.63903 -330.218332 
L 1110.68926 -334.041566 
L 1109.741487 -337.8648 
L 1108.802105 -341.688034 
L 1107.877298 -345.511267 
L 1106.972966 -349.334501 
L 1106.094751 -353.157735 
L 1105.248128 -356.980969 
L 1104.43858 -360.804202 
L 1103.671808 -364.627436 
L 1102.953948 -368.45067 
L 1102.291764 -372.273904 
L 1101.692778 -376.097138 
L 1101.165287 -379.920371 
L 1100.718268 -383.743605 
L 1100.361136 -387.566839 
L 1100.103375 -391.390073 
L 1099.954047 -395.213307 
L 1099.921223 -399.03654 
L 1100.011374 -402.859774 
L 1100.228775 -406.683008 
L 1100.574978 -410.506242 
L 1101.048401 -414.329476 
L 1101.644075 -418.152709 
L 1102.35358 -421.975943 
L 1103.16519 -425.799177 
L 1104.064211 -429.622411 
L 1105.033516 -433.445645 
L 1106.054217 -437.268878 
L 1107.106463 -441.092112 
L 1108.170285 -444.915346 
L 1109.226456 -448.73858 
L 1110.257298 -452.561814 
L 1111.247396 -456.385047 
L 1112.184181 -460.208281 
L 1113.058341 -464.031515 
L 1113.864056 -467.854749 
L 1114.599036 -471.677983 
L 1115.264376 -475.501216 
L 1115.864241 -479.32445 
L 1116.405408 -483.147684 
L 1116.896687 -486.970918 
L 1117.348281 -490.794152 
L 1117.7711 -494.617385 
L 1118.176084 -498.440619 
L 1118.573575 -502.263853 
L 1118.972762 -506.087087 
L 1119.381239 -509.910321 
L 1119.804678 -513.733554 
L 1120.246652 -517.556788 
L 1120.708587 -521.380022 
L 1121.189849 -525.203256 
L 1121.687944 -529.02649 
L 1122.198813 -532.849723 
L 1122.717192 -536.672957 
L 1123.237013 -540.496191 
L 1123.751811 -544.319425 
L 1124.255115 -548.142659 
L 1124.7408 -551.965892 
L 1125.203377 -555.789126 
L 1125.638218 -559.61236 
L 1126.041707 -563.435594 
L 1126.411305 -567.258828 
L 1126.745564 -571.082061 
L 1127.044068 -574.905295 
L 1127.307328 -578.728529 
L 1127.53665 -582.551763 
L 1127.733977 -586.374997 
L 1127.901726 -590.19823 
L 1129.298274 -590.19823 
L 1129.298274 -590.19823 
L 1129.466023 -586.374997 
L 1129.66335 -582.551763 
L 1129.892672 -578.728529 
L 1130.155932 -574.905295 
L 1130.454436 -571.082061 
L 1130.788695 -567.258828 
L 1131.158293 -563.435594 
L 1131.561782 -559.61236 
L 1131.996623 -555.789126 
L 1132.4592 -551.965892 
L 1132.944885 -548.142659 
L 1133.448189 -544.319425 
L 1133.962987 -540.496191 
L 1134.482808 -536.672957 
L 1135.001187 -532.849723 
L 1135.512056 -529.02649 
L 1136.010151 -525.203256 
L 1136.491413 -521.380022 
L 1136.953348 -517.556788 
L 1137.395322 -513.733554 
L 1137.818761 -509.910321 
L 1138.227238 -506.087087 
L 1138.626425 -502.263853 
L 1139.023916 -498.440619 
L 1139.4289 -494.617385 
L 1139.851719 -490.794152 
L 1140.303313 -486.970918 
L 1140.794592 -483.147684 
L 1141.335759 -479.32445 
L 1141.935624 -475.501216 
L 1142.600964 -471.677983 
L 1143.335944 -467.854749 
L 1144.141659 -464.031515 
L 1145.015819 -460.208281 
L 1145.952604 -456.385047 
L 1146.942702 -452.561814 
L 1147.973544 -448.73858 
L 1149.029715 -444.915346 
L 1150.093537 -441.092112 
L 1151.145783 -437.268878 
L 1152.166484 -433.445645 
L 1153.135789 -429.622411 
L 1154.03481 -425.799177 
L 1154.84642 -421.975943 
L 1155.555925 -418.152709 
L 1156.151599 -414.329476 
L 1156.625022 -410.506242 
L 1156.971225 -406.683008 
L 1157.188626 -402.859774 
L 1157.278777 -399.03654 
L 1157.245953 -395.213307 
L 1157.096625 -391.390073 
L 1156.838864 -387.566839 
L 1156.481732 -383.743605 
L 1156.034713 -379.920371 
L 1155.507222 -376.097138 
L 1154.908236 -372.273904 
L 1154.246052 -368.45067 
L 1153.528192 -364.627436 
L 1152.76142 -360.804202 
L 1151.951872 -356.980969 
L 1151.105249 -353.157735 
L 1150.227034 -349.334501 
L 1149.322702 -345.511267 
L 1148.397895 -341.688034 
L 1147.458513 -337.8648 
L 1146.51074 -334.041566 
L 1145.56097 -330.218332 
L 1144.615672 -326.395098 
L 1143.681192 -322.571865 
L 1142.763527 -318.748631 
L 1141.868094 -314.925397 
L 1140.999531 -311.102163 
L 1140.161544 -307.278929 
L 1139.356818 -303.455696 
L 1138.587005 -299.632462 
L 1137.852788 -295.809228 
L 1137.154005 -291.985994 
L 1136.489829 -288.16276 
L 1135.858973 -284.339527 
L 1135.259904 -280.516293 
L 1134.691051 -276.693059 
L 1134.150973 -272.869825 
L 1133.638489 -269.046591 
L 1133.152756 -265.223358 
L 1132.693295 -261.400124 
L 1132.259964 -257.57689 
L 1131.852896 -253.753656 
L 1131.472406 -249.930422 
L 1131.11888 -246.107189 
L 1130.792664 -242.283955 
L 1130.493963 -238.460721 
L 1130.222752 -234.637487 
L 1129.97872 -230.814253 
L 1129.761232 -226.99102 
L 1129.569329 -223.167786 
L 1129.401744 -219.344552 
L 1129.256941 -215.521318 
L 1129.133173 -211.698084 
z
" style="stroke: #3f3f3f; stroke-width: 1.25"/>
    </defs>
    <g clip-path="url(#p89414a18ea)">
     <use xlink:href="#mc0f6f7036d" x="0" y="720" style="fill: #3274a1; stroke: #3f3f3f; stroke-width: 1.25"/>
    </g>
   </g>
   <g id="PolyCollection_10">
    <defs>
     <path id="m461be3e672" d="M 1240.841775 -160.929791 
L 1239.558225 -160.929791 
L 1239.394813 -165.449692 
L 1239.200874 -169.969593 
L 1238.973727 -174.489494 
L 1238.711196 -179.009395 
L 1238.411793 -183.529297 
L 1238.074875 -188.049198 
L 1237.700782 -192.569099 
L 1237.290907 -197.089 
L 1236.847711 -201.608901 
L 1236.374645 -206.128802 
L 1235.875978 -210.648703 
L 1235.356529 -215.168604 
L 1234.821308 -219.688505 
L 1234.275077 -224.208406 
L 1233.721869 -228.728308 
L 1233.164483 -233.248209 
L 1232.604016 -237.76811 
L 1232.039462 -242.288011 
L 1231.467437 -246.807912 
L 1230.882076 -251.327813 
L 1230.27512 -255.847714 
L 1229.636242 -260.367615 
L 1228.953589 -264.887516 
L 1228.214556 -269.407417 
L 1227.406735 -273.927319 
L 1226.519007 -278.44722 
L 1225.54269 -282.967121 
L 1224.472685 -287.487022 
L 1223.308502 -292.006923 
L 1222.05511 -296.526824 
L 1220.723505 -301.046725 
L 1219.330942 -305.566626 
L 1217.900778 -310.086527 
L 1216.461912 -314.606428 
L 1215.047821 -319.12633 
L 1213.695235 -323.646231 
L 1212.44253 -328.166132 
L 1211.327904 -332.686033 
L 1210.387481 -337.205934 
L 1209.653442 -341.725835 
L 1209.152322 -346.245736 
L 1208.90359 -350.765637 
L 1208.918595 -355.285538 
L 1209.199981 -359.805439 
L 1209.741578 -364.325341 
L 1210.528797 -368.845242 
L 1211.539486 -373.365143 
L 1212.745171 -377.885044 
L 1214.112597 -382.404945 
L 1215.605458 -386.924846 
L 1217.186165 -391.444747 
L 1218.81756 -395.964648 
L 1220.464446 -400.484549 
L 1222.094851 -405.00445 
L 1223.680969 -409.524352 
L 1225.199735 -414.044253 
L 1226.633067 -418.564154 
L 1227.967769 -423.084055 
L 1229.195185 -427.603956 
L 1230.310659 -432.123857 
L 1231.312872 -436.643758 
L 1232.203158 -441.163659 
L 1232.984834 -445.68356 
L 1233.662627 -450.203461 
L 1234.242214 -454.723363 
L 1234.729894 -459.243264 
L 1235.132392 -463.763165 
L 1235.456772 -468.283066 
L 1235.710434 -472.802967 
L 1235.90115 -477.322868 
L 1236.037107 -481.842769 
L 1236.12693 -486.36267 
L 1236.179641 -490.882571 
L 1236.204559 -495.402472 
L 1236.211124 -499.922374 
L 1236.208656 -504.442275 
L 1236.20607 -508.962176 
L 1236.211562 -513.482077 
L 1236.2323 -518.001978 
L 1236.274153 -522.521879 
L 1236.34147 -527.04178 
L 1236.436948 -531.561681 
L 1236.561585 -536.081582 
L 1236.714728 -540.601483 
L 1236.894223 -545.121385 
L 1237.096633 -549.641286 
L 1237.31752 -554.161187 
L 1237.551769 -558.681088 
L 1237.79392 -563.200989 
L 1238.038491 -567.72089 
L 1238.280266 -572.240791 
L 1238.51454 -576.760692 
L 1238.737301 -581.280593 
L 1238.945345 -585.800494 
L 1239.136333 -590.320396 
L 1239.308784 -594.840297 
L 1239.462021 -599.360198 
L 1239.596081 -603.880099 
L 1239.711596 -608.4 
L 1240.688404 -608.4 
L 1240.688404 -608.4 
L 1240.803919 -603.880099 
L 1240.937979 -599.360198 
L 1241.091216 -594.840297 
L 1241.263667 -590.320396 
L 1241.454655 -585.800494 
L 1241.662699 -581.280593 
L 1241.88546 -576.760692 
L 1242.119734 -572.240791 
L 1242.361509 -567.72089 
L 1242.60608 -563.200989 
L 1242.848231 -558.681088 
L 1243.08248 -554.161187 
L 1243.303367 -549.641286 
L 1243.505777 -545.121385 
L 1243.685272 -540.601483 
L 1243.838415 -536.081582 
L 1243.963052 -531.561681 
L 1244.05853 -527.04178 
L 1244.125847 -522.521879 
L 1244.1677 -518.001978 
L 1244.188438 -513.482077 
L 1244.19393 -508.962176 
L 1244.191344 -504.442275 
L 1244.188876 -499.922374 
L 1244.195441 -495.402472 
L 1244.220359 -490.882571 
L 1244.27307 -486.36267 
L 1244.362893 -481.842769 
L 1244.49885 -477.322868 
L 1244.689566 -472.802967 
L 1244.943228 -468.283066 
L 1245.267608 -463.763165 
L 1245.670106 -459.243264 
L 1246.157786 -454.723363 
L 1246.737373 -450.203461 
L 1247.415166 -445.68356 
L 1248.196842 -441.163659 
L 1249.087128 -436.643758 
L 1250.089341 -432.123857 
L 1251.204815 -427.603956 
L 1252.432231 -423.084055 
L 1253.766933 -418.564154 
L 1255.200265 -414.044253 
L 1256.719031 -409.524352 
L 1258.305149 -405.00445 
L 1259.935554 -400.484549 
L 1261.58244 -395.964648 
L 1263.213835 -391.444747 
L 1264.794542 -386.924846 
L 1266.287403 -382.404945 
L 1267.654829 -377.885044 
L 1268.860514 -373.365143 
L 1269.871203 -368.845242 
L 1270.658422 -364.325341 
L 1271.200019 -359.805439 
L 1271.481405 -355.285538 
L 1271.49641 -350.765637 
L 1271.247678 -346.245736 
L 1270.746558 -341.725835 
L 1270.012519 -337.205934 
L 1269.072096 -332.686033 
L 1267.95747 -328.166132 
L 1266.704765 -323.646231 
L 1265.352179 -319.12633 
L 1263.938088 -314.606428 
L 1262.499222 -310.086527 
L 1261.069058 -305.566626 
L 1259.676495 -301.046725 
L 1258.34489 -296.526824 
L 1257.091498 -292.006923 
L 1255.927315 -287.487022 
L 1254.85731 -282.967121 
L 1253.880993 -278.44722 
L 1252.993265 -273.927319 
L 1252.185444 -269.407417 
L 1251.446411 -264.887516 
L 1250.763758 -260.367615 
L 1250.12488 -255.847714 
L 1249.517924 -251.327813 
L 1248.932563 -246.807912 
L 1248.360538 -242.288011 
L 1247.795984 -237.76811 
L 1247.235517 -233.248209 
L 1246.678131 -228.728308 
L 1246.124923 -224.208406 
L 1245.578692 -219.688505 
L 1245.043471 -215.168604 
L 1244.524022 -210.648703 
L 1244.025355 -206.128802 
L 1243.552289 -201.608901 
L 1243.109093 -197.089 
L 1242.699218 -192.569099 
L 1242.325125 -188.049198 
L 1241.988207 -183.529297 
L 1241.688804 -179.009395 
L 1241.426273 -174.489494 
L 1241.199126 -169.969593 
L 1241.005187 -165.449692 
L 1240.841775 -160.929791 
z
" style="stroke: #3f3f3f; stroke-width: 1.25"/>
    </defs>
    <g clip-path="url(#p89414a18ea)">
     <use xlink:href="#m461be3e672" x="0" y="720" style="fill: #3274a1; stroke: #3f3f3f; stroke-width: 1.25"/>
    </g>
   </g>
   <g id="matplotlib.axis_1">
    <g id="xtick_1">
     <g id="line2d_1">
      <defs>
       <path id="me653ae265f" d="M 0 0 
L 0 3.5 
" style="stroke: #000000; stroke-width: 0.8"/>
      </defs>
      <g>
       <use xlink:href="#me653ae265f" x="235.8" y="640.8" style="stroke: #000000; stroke-width: 0.8"/>
      </g>
     </g>
     <g id="text_1">
      <!-- 0 -->
      <g transform="translate(232.61875 655.398438) scale(0.1 -0.1)">
       <defs>
        <path id="DejaVuSans-30" d="M 2034 4250 
Q 1547 4250 1301 3770 
Q 1056 3291 1056 2328 
Q 1056 1369 1301 889 
Q 1547 409 2034 409 
Q 2525 409 2770 889 
Q 3016 1369 3016 2328 
Q 3016 3291 2770 3770 
Q 2525 4250 2034 4250 
z
M 2034 4750 
Q 2819 4750 3233 4129 
Q 3647 3509 3647 2328 
Q 3647 1150 3233 529 
Q 2819 -91 2034 -91 
Q 1250 -91 836 529 
Q 422 1150 422 2328 
Q 422 3509 836 4129 
Q 1250 4750 2034 4750 
z
" transform="scale(0.015625)"/>
       </defs>
       <use xlink:href="#DejaVuSans-30"/>
      </g>
     </g>
    </g>
    <g id="xtick_2">
     <g id="line2d_2">
      <g>
       <use xlink:href="#me653ae265f" x="347.4" y="640.8" style="stroke: #000000; stroke-width: 0.8"/>
      </g>
     </g>
     <g id="text_2">
      <!-- 1 -->
      <g transform="translate(344.21875 655.398438) scale(0.1 -0.1)">
       <defs>
        <path id="DejaVuSans-31" d="M 794 531 
L 1825 531 
L 1825 4091 
L 703 3866 
L 703 4441 
L 1819 4666 
L 2450 4666 
L 2450 531 
L 3481 531 
L 3481 0 
L 794 0 
L 794 531 
z
" transform="scale(0.015625)"/>
       </defs>
       <use xlink:href="#DejaVuSans-31"/>
      </g>
     </g>
    </g>
    <g id="xtick_3">
     <g id="line2d_3">
      <g>
       <use xlink:href="#me653ae265f" x="459" y="640.8" style="stroke: #000000; stroke-width: 0.8"/>
      </g>
     </g>
     <g id="text_3">
      <!-- 2 -->
      <g transform="translate(455.81875 655.398438) scale(0.1 -0.1)">
       <defs>
        <path id="DejaVuSans-32" d="M 1228 531 
L 3431 531 
L 3431 0 
L 469 0 
L 469 531 
Q 828 903 1448 1529 
Q 2069 2156 2228 2338 
Q 2531 2678 2651 2914 
Q 2772 3150 2772 3378 
Q 2772 3750 2511 3984 
Q 2250 4219 1831 4219 
Q 1534 4219 1204 4116 
Q 875 4013 500 3803 
L 500 4441 
Q 881 4594 1212 4672 
Q 1544 4750 1819 4750 
Q 2544 4750 2975 4387 
Q 3406 4025 3406 3419 
Q 3406 3131 3298 2873 
Q 3191 2616 2906 2266 
Q 2828 2175 2409 1742 
Q 1991 1309 1228 531 
z
" transform="scale(0.015625)"/>
       </defs>
       <use xlink:href="#DejaVuSans-32"/>
      </g>
     </g>
    </g>
    <g id="xtick_4">
     <g id="line2d_4">
      <g>
       <use xlink:href="#me653ae265f" x="570.6" y="640.8" style="stroke: #000000; stroke-width: 0.8"/>
      </g>
     </g>
     <g id="text_4">
      <!-- 3 -->
      <g transform="translate(567.41875 655.398438) scale(0.1 -0.1)">
       <defs>
        <path id="DejaVuSans-33" d="M 2597 2516 
Q 3050 2419 3304 2112 
Q 3559 1806 3559 1356 
Q 3559 666 3084 287 
Q 2609 -91 1734 -91 
Q 1441 -91 1130 -33 
Q 819 25 488 141 
L 488 750 
Q 750 597 1062 519 
Q 1375 441 1716 441 
Q 2309 441 2620 675 
Q 2931 909 2931 1356 
Q 2931 1769 2642 2001 
Q 2353 2234 1838 2234 
L 1294 2234 
L 1294 2753 
L 1863 2753 
Q 2328 2753 2575 2939 
Q 2822 3125 2822 3475 
Q 2822 3834 2567 4026 
Q 2313 4219 1838 4219 
Q 1578 4219 1281 4162 
Q 984 4106 628 3988 
L 628 4550 
Q 988 4650 1302 4700 
Q 1616 4750 1894 4750 
Q 2613 4750 3031 4423 
Q 3450 4097 3450 3541 
Q 3450 3153 3228 2886 
Q 3006 2619 2597 2516 
z
" transform="scale(0.015625)"/>
       </defs>
       <use xlink:href="#DejaVuSans-33"/>
      </g>
     </g>
    </g>
    <g id="xtick_5">
     <g id="line2d_5">
      <g>
       <use xlink:href="#me653ae265f" x="682.2" y="640.8" style="stroke: #000000; stroke-width: 0.8"/>
      </g>
     </g>
     <g id="text_5">
      <!-- 4 -->
      <g transform="translate(679.01875 655.398438) scale(0.1 -0.1)">
       <defs>
        <path id="DejaVuSans-34" d="M 2419 4116 
L 825 1625 
L 2419 1625 
L 2419 4116 
z
M 2253 4666 
L 3047 4666 
L 3047 1625 
L 3713 1625 
L 3713 1100 
L 3047 1100 
L 3047 0 
L 2419 0 
L 2419 1100 
L 313 1100 
L 313 1709 
L 2253 4666 
z
" transform="scale(0.015625)"/>
       </defs>
       <use xlink:href="#DejaVuSans-34"/>
      </g>
     </g>
    </g>
    <g id="xtick_6">
     <g id="line2d_6">
      <g>
       <use xlink:href="#me653ae265f" x="793.8" y="640.8" style="stroke: #000000; stroke-width: 0.8"/>
      </g>
     </g>
     <g id="text_6">
      <!-- 5 -->
      <g transform="translate(790.61875 655.398438) scale(0.1 -0.1)">
       <defs>
        <path id="DejaVuSans-35" d="M 691 4666 
L 3169 4666 
L 3169 4134 
L 1269 4134 
L 1269 2991 
Q 1406 3038 1543 3061 
Q 1681 3084 1819 3084 
Q 2600 3084 3056 2656 
Q 3513 2228 3513 1497 
Q 3513 744 3044 326 
Q 2575 -91 1722 -91 
Q 1428 -91 1123 -41 
Q 819 9 494 109 
L 494 744 
Q 775 591 1075 516 
Q 1375 441 1709 441 
Q 2250 441 2565 725 
Q 2881 1009 2881 1497 
Q 2881 1984 2565 2268 
Q 2250 2553 1709 2553 
Q 1456 2553 1204 2497 
Q 953 2441 691 2322 
L 691 4666 
z
" transform="scale(0.015625)"/>
       </defs>
       <use xlink:href="#DejaVuSans-35"/>
      </g>
     </g>
    </g>
    <g id="xtick_7">
     <g id="line2d_7">
      <g>
       <use xlink:href="#me653ae265f" x="905.4" y="640.8" style="stroke: #000000; stroke-width: 0.8"/>
      </g>
     </g>
     <g id="text_7">
      <!-- 6 -->
      <g transform="translate(902.21875 655.398438) scale(0.1 -0.1)">
       <defs>
        <path id="DejaVuSans-36" d="M 2113 2584 
Q 1688 2584 1439 2293 
Q 1191 2003 1191 1497 
Q 1191 994 1439 701 
Q 1688 409 2113 409 
Q 2538 409 2786 701 
Q 3034 994 3034 1497 
Q 3034 2003 2786 2293 
Q 2538 2584 2113 2584 
z
M 3366 4563 
L 3366 3988 
Q 3128 4100 2886 4159 
Q 2644 4219 2406 4219 
Q 1781 4219 1451 3797 
Q 1122 3375 1075 2522 
Q 1259 2794 1537 2939 
Q 1816 3084 2150 3084 
Q 2853 3084 3261 2657 
Q 3669 2231 3669 1497 
Q 3669 778 3244 343 
Q 2819 -91 2113 -91 
Q 1303 -91 875 529 
Q 447 1150 447 2328 
Q 447 3434 972 4092 
Q 1497 4750 2381 4750 
Q 2619 4750 2861 4703 
Q 3103 4656 3366 4563 
z
" transform="scale(0.015625)"/>
       </defs>
       <use xlink:href="#DejaVuSans-36"/>
      </g>
     </g>
    </g>
    <g id="xtick_8">
     <g id="line2d_8">
      <g>
       <use xlink:href="#me653ae265f" x="1017" y="640.8" style="stroke: #000000; stroke-width: 0.8"/>
      </g>
     </g>
     <g id="text_8">
      <!-- 7 -->
      <g transform="translate(1013.81875 655.398438) scale(0.1 -0.1)">
       <defs>
        <path id="DejaVuSans-37" d="M 525 4666 
L 3525 4666 
L 3525 4397 
L 1831 0 
L 1172 0 
L 2766 4134 
L 525 4134 
L 525 4666 
z
" transform="scale(0.015625)"/>
       </defs>
       <use xlink:href="#DejaVuSans-37"/>
      </g>
     </g>
    </g>
    <g id="xtick_9">
     <g id="line2d_9">
      <g>
       <use xlink:href="#me653ae265f" x="1128.6" y="640.8" style="stroke: #000000; stroke-width: 0.8"/>
      </g>
     </g>
     <g id="text_9">
      <!-- 8 -->
      <g transform="translate(1125.41875 655.398438) scale(0.1 -0.1)">
       <defs>
        <path id="DejaVuSans-38" d="M 2034 2216 
Q 1584 2216 1326 1975 
Q 1069 1734 1069 1313 
Q 1069 891 1326 650 
Q 1584 409 2034 409 
Q 2484 409 2743 651 
Q 3003 894 3003 1313 
Q 3003 1734 2745 1975 
Q 2488 2216 2034 2216 
z
M 1403 2484 
Q 997 2584 770 2862 
Q 544 3141 544 3541 
Q 544 4100 942 4425 
Q 1341 4750 2034 4750 
Q 2731 4750 3128 4425 
Q 3525 4100 3525 3541 
Q 3525 3141 3298 2862 
Q 3072 2584 2669 2484 
Q 3125 2378 3379 2068 
Q 3634 1759 3634 1313 
Q 3634 634 3220 271 
Q 2806 -91 2034 -91 
Q 1263 -91 848 271 
Q 434 634 434 1313 
Q 434 1759 690 2068 
Q 947 2378 1403 2484 
z
M 1172 3481 
Q 1172 3119 1398 2916 
Q 1625 2713 2034 2713 
Q 2441 2713 2670 2916 
Q 2900 3119 2900 3481 
Q 2900 3844 2670 4047 
Q 2441 4250 2034 4250 
Q 1625 4250 1398 4047 
Q 1172 3844 1172 3481 
z
" transform="scale(0.015625)"/>
       </defs>
       <use xlink:href="#DejaVuSans-38"/>
      </g>
     </g>
    </g>
    <g id="xtick_10">
     <g id="line2d_10">
      <g>
       <use xlink:href="#me653ae265f" x="1240.2" y="640.8" style="stroke: #000000; stroke-width: 0.8"/>
      </g>
     </g>
     <g id="text_10">
      <!-- 9 -->
      <g transform="translate(1237.01875 655.398438) scale(0.1 -0.1)">
       <defs>
        <path id="DejaVuSans-39" d="M 703 97 
L 703 672 
Q 941 559 1184 500 
Q 1428 441 1663 441 
Q 2288 441 2617 861 
Q 2947 1281 2994 2138 
Q 2813 1869 2534 1725 
Q 2256 1581 1919 1581 
Q 1219 1581 811 2004 
Q 403 2428 403 3163 
Q 403 3881 828 4315 
Q 1253 4750 1959 4750 
Q 2769 4750 3195 4129 
Q 3622 3509 3622 2328 
Q 3622 1225 3098 567 
Q 2575 -91 1691 -91 
Q 1453 -91 1209 -44 
Q 966 3 703 97 
z
M 1959 2075 
Q 2384 2075 2632 2365 
Q 2881 2656 2881 3163 
Q 2881 3666 2632 3958 
Q 2384 4250 1959 4250 
Q 1534 4250 1286 3958 
Q 1038 3666 1038 3163 
Q 1038 2656 1286 2365 
Q 1534 2075 1959 2075 
z
" transform="scale(0.015625)"/>
       </defs>
       <use xlink:href="#DejaVuSans-39"/>
      </g>
     </g>
    </g>
    <g id="text_11">
     <!-- iteration -->
     <g transform="translate(716.877344 669.076563) scale(0.1 -0.1)">
      <defs>
       <path id="DejaVuSans-69" d="M 603 3500 
L 1178 3500 
L 1178 0 
L 603 0 
L 603 3500 
z
M 603 4863 
L 1178 4863 
L 1178 4134 
L 603 4134 
L 603 4863 
z
" transform="scale(0.015625)"/>
       <path id="DejaVuSans-74" d="M 1172 4494 
L 1172 3500 
L 2356 3500 
L 2356 3053 
L 1172 3053 
L 1172 1153 
Q 1172 725 1289 603 
Q 1406 481 1766 481 
L 2356 481 
L 2356 0 
L 1766 0 
Q 1100 0 847 248 
Q 594 497 594 1153 
L 594 3053 
L 172 3053 
L 172 3500 
L 594 3500 
L 594 4494 
L 1172 4494 
z
" transform="scale(0.015625)"/>
       <path id="DejaVuSans-65" d="M 3597 1894 
L 3597 1613 
L 953 1613 
Q 991 1019 1311 708 
Q 1631 397 2203 397 
Q 2534 397 2845 478 
Q 3156 559 3463 722 
L 3463 178 
Q 3153 47 2828 -22 
Q 2503 -91 2169 -91 
Q 1331 -91 842 396 
Q 353 884 353 1716 
Q 353 2575 817 3079 
Q 1281 3584 2069 3584 
Q 2775 3584 3186 3129 
Q 3597 2675 3597 1894 
z
M 3022 2063 
Q 3016 2534 2758 2815 
Q 2500 3097 2075 3097 
Q 1594 3097 1305 2825 
Q 1016 2553 972 2059 
L 3022 2063 
z
" transform="scale(0.015625)"/>
       <path id="DejaVuSans-72" d="M 2631 2963 
Q 2534 3019 2420 3045 
Q 2306 3072 2169 3072 
Q 1681 3072 1420 2755 
Q 1159 2438 1159 1844 
L 1159 0 
L 581 0 
L 581 3500 
L 1159 3500 
L 1159 2956 
Q 1341 3275 1631 3429 
Q 1922 3584 2338 3584 
Q 2397 3584 2469 3576 
Q 2541 3569 2628 3553 
L 2631 2963 
z
" transform="scale(0.015625)"/>
       <path id="DejaVuSans-61" d="M 2194 1759 
Q 1497 1759 1228 1600 
Q 959 1441 959 1056 
Q 959 750 1161 570 
Q 1363 391 1709 391 
Q 2188 391 2477 730 
Q 2766 1069 2766 1631 
L 2766 1759 
L 2194 1759 
z
M 3341 1997 
L 3341 0 
L 2766 0 
L 2766 531 
Q 2569 213 2275 61 
Q 1981 -91 1556 -91 
Q 1019 -91 701 211 
Q 384 513 384 1019 
Q 384 1609 779 1909 
Q 1175 2209 1959 2209 
L 2766 2209 
L 2766 2266 
Q 2766 2663 2505 2880 
Q 2244 3097 1772 3097 
Q 1472 3097 1187 3025 
Q 903 2953 641 2809 
L 641 3341 
Q 956 3463 1253 3523 
Q 1550 3584 1831 3584 
Q 2591 3584 2966 3190 
Q 3341 2797 3341 1997 
z
" transform="scale(0.015625)"/>
       <path id="DejaVuSans-6f" d="M 1959 3097 
Q 1497 3097 1228 2736 
Q 959 2375 959 1747 
Q 959 1119 1226 758 
Q 1494 397 1959 397 
Q 2419 397 2687 759 
Q 2956 1122 2956 1747 
Q 2956 2369 2687 2733 
Q 2419 3097 1959 3097 
z
M 1959 3584 
Q 2709 3584 3137 3096 
Q 3566 2609 3566 1747 
Q 3566 888 3137 398 
Q 2709 -91 1959 -91 
Q 1206 -91 779 398 
Q 353 888 353 1747 
Q 353 2609 779 3096 
Q 1206 3584 1959 3584 
z
" transform="scale(0.015625)"/>
       <path id="DejaVuSans-6e" d="M 3513 2113 
L 3513 0 
L 2938 0 
L 2938 2094 
Q 2938 2591 2744 2837 
Q 2550 3084 2163 3084 
Q 1697 3084 1428 2787 
Q 1159 2491 1159 1978 
L 1159 0 
L 581 0 
L 581 3500 
L 1159 3500 
L 1159 2956 
Q 1366 3272 1645 3428 
Q 1925 3584 2291 3584 
Q 2894 3584 3203 3211 
Q 3513 2838 3513 2113 
z
" transform="scale(0.015625)"/>
      </defs>
      <use xlink:href="#DejaVuSans-69"/>
      <use xlink:href="#DejaVuSans-74" x="27.783203"/>
      <use xlink:href="#DejaVuSans-65" x="66.992188"/>
      <use xlink:href="#DejaVuSans-72" x="128.515625"/>
      <use xlink:href="#DejaVuSans-61" x="169.628906"/>
      <use xlink:href="#DejaVuSans-74" x="230.908203"/>
      <use xlink:href="#DejaVuSans-69" x="270.117188"/>
      <use xlink:href="#DejaVuSans-6f" x="297.900391"/>
      <use xlink:href="#DejaVuSans-6e" x="359.082031"/>
     </g>
    </g>
   </g>
   <g id="matplotlib.axis_2">
    <g id="ytick_1">
     <g id="line2d_11">
      <defs>
       <path id="m80c0568a33" d="M 0 0 
L -3.5 0 
" style="stroke: #000000; stroke-width: 0.8"/>
      </defs>
      <g>
       <use xlink:href="#m80c0568a33" x="180" y="588.693438" style="stroke: #000000; stroke-width: 0.8"/>
      </g>
     </g>
     <g id="text_12">
      <!-- 0.2 -->
      <g transform="translate(148.717187 592.492657) scale(0.1 -0.1)">
       <defs>
        <path id="DejaVuSans-2212" d="M 678 2272 
L 4684 2272 
L 4684 1741 
L 678 1741 
L 678 2272 
z
" transform="scale(0.015625)"/>
        <path id="DejaVuSans-2e" d="M 684 794 
L 1344 794 
L 1344 0 
L 684 0 
L 684 794 
z
" transform="scale(0.015625)"/>
       </defs>
       <use xlink:href="#DejaVuSans-2212"/>
       <use xlink:href="#DejaVuSans-30" x="83.789062"/>
       <use xlink:href="#DejaVuSans-2e" x="147.412109"/>
       <use xlink:href="#DejaVuSans-32" x="179.199219"/>
      </g>
     </g>
    </g>
    <g id="ytick_2">
     <g id="line2d_12">
      <g>
       <use xlink:href="#m80c0568a33" x="180" y="521.087202" style="stroke: #000000; stroke-width: 0.8"/>
      </g>
     </g>
     <g id="text_13">
      <!-- 0.0 -->
      <g transform="translate(157.096875 524.88642) scale(0.1 -0.1)">
       <use xlink:href="#DejaVuSans-30"/>
       <use xlink:href="#DejaVuSans-2e" x="63.623047"/>
       <use xlink:href="#DejaVuSans-30" x="95.410156"/>
      </g>
     </g>
    </g>
    <g id="ytick_3">
     <g id="line2d_13">
      <g>
       <use xlink:href="#m80c0568a33" x="180" y="453.480965" style="stroke: #000000; stroke-width: 0.8"/>
      </g>
     </g>
     <g id="text_14">
      <!-- 0.2 -->
      <g transform="translate(157.096875 457.280184) scale(0.1 -0.1)">
       <use xlink:href="#DejaVuSans-30"/>
       <use xlink:href="#DejaVuSans-2e" x="63.623047"/>
       <use xlink:href="#DejaVuSans-32" x="95.410156"/>
      </g>
     </g>
    </g>
    <g id="ytick_4">
     <g id="line2d_14">
      <g>
       <use xlink:href="#m80c0568a33" x="180" y="385.874729" style="stroke: #000000; stroke-width: 0.8"/>
      </g>
     </g>
     <g id="text_15">
      <!-- 0.4 -->
      <g transform="translate(157.096875 389.673948) scale(0.1 -0.1)">
       <use xlink:href="#DejaVuSans-30"/>
       <use xlink:href="#DejaVuSans-2e" x="63.623047"/>
       <use xlink:href="#DejaVuSans-34" x="95.410156"/>
      </g>
     </g>
    </g>
    <g id="ytick_5">
     <g id="line2d_15">
      <g>
       <use xlink:href="#m80c0568a33" x="180" y="318.268493" style="stroke: #000000; stroke-width: 0.8"/>
      </g>
     </g>
     <g id="text_16">
      <!-- 0.6 -->
      <g transform="translate(157.096875 322.067711) scale(0.1 -0.1)">
       <use xlink:href="#DejaVuSans-30"/>
       <use xlink:href="#DejaVuSans-2e" x="63.623047"/>
       <use xlink:href="#DejaVuSans-36" x="95.410156"/>
      </g>
     </g>
    </g>
    <g id="ytick_6">
     <g id="line2d_16">
      <g>
       <use xlink:href="#m80c0568a33" x="180" y="250.662256" style="stroke: #000000; stroke-width: 0.8"/>
      </g>
     </g>
     <g id="text_17">
      <!-- 0.8 -->
      <g transform="translate(157.096875 254.461475) scale(0.1 -0.1)">
       <use xlink:href="#DejaVuSans-30"/>
       <use xlink:href="#DejaVuSans-2e" x="63.623047"/>
       <use xlink:href="#DejaVuSans-38" x="95.410156"/>
      </g>
     </g>
    </g>
    <g id="ytick_7">
     <g id="line2d_17">
      <g>
       <use xlink:href="#m80c0568a33" x="180" y="183.05602" style="stroke: #000000; stroke-width: 0.8"/>
      </g>
     </g>
     <g id="text_18">
      <!-- 1.0 -->
      <g transform="translate(157.096875 186.855239) scale(0.1 -0.1)">
       <use xlink:href="#DejaVuSans-31"/>
       <use xlink:href="#DejaVuSans-2e" x="63.623047"/>
       <use xlink:href="#DejaVuSans-30" x="95.410156"/>
      </g>
     </g>
    </g>
    <g id="ytick_8">
     <g id="line2d_18">
      <g>
       <use xlink:href="#m80c0568a33" x="180" y="115.449784" style="stroke: #000000; stroke-width: 0.8"/>
      </g>
     </g>
     <g id="text_19">
      <!-- 1.2 -->
      <g transform="translate(157.096875 119.249002) scale(0.1 -0.1)">
       <use xlink:href="#DejaVuSans-31"/>
       <use xlink:href="#DejaVuSans-2e" x="63.623047"/>
       <use xlink:href="#DejaVuSans-32" x="95.410156"/>
      </g>
     </g>
    </g>
    <g id="text_20">
     <!-- cosine similarity -->
     <g transform="translate(142.6375 404.307031) rotate(-90) scale(0.1 -0.1)">
      <defs>
       <path id="DejaVuSans-63" d="M 3122 3366 
L 3122 2828 
Q 2878 2963 2633 3030 
Q 2388 3097 2138 3097 
Q 1578 3097 1268 2742 
Q 959 2388 959 1747 
Q 959 1106 1268 751 
Q 1578 397 2138 397 
Q 2388 397 2633 464 
Q 2878 531 3122 666 
L 3122 134 
Q 2881 22 2623 -34 
Q 2366 -91 2075 -91 
Q 1284 -91 818 406 
Q 353 903 353 1747 
Q 353 2603 823 3093 
Q 1294 3584 2113 3584 
Q 2378 3584 2631 3529 
Q 2884 3475 3122 3366 
z
" transform="scale(0.015625)"/>
       <path id="DejaVuSans-73" d="M 2834 3397 
L 2834 2853 
Q 2591 2978 2328 3040 
Q 2066 3103 1784 3103 
Q 1356 3103 1142 2972 
Q 928 2841 928 2578 
Q 928 2378 1081 2264 
Q 1234 2150 1697 2047 
L 1894 2003 
Q 2506 1872 2764 1633 
Q 3022 1394 3022 966 
Q 3022 478 2636 193 
Q 2250 -91 1575 -91 
Q 1294 -91 989 -36 
Q 684 19 347 128 
L 347 722 
Q 666 556 975 473 
Q 1284 391 1588 391 
Q 1994 391 2212 530 
Q 2431 669 2431 922 
Q 2431 1156 2273 1281 
Q 2116 1406 1581 1522 
L 1381 1569 
Q 847 1681 609 1914 
Q 372 2147 372 2553 
Q 372 3047 722 3315 
Q 1072 3584 1716 3584 
Q 2034 3584 2315 3537 
Q 2597 3491 2834 3397 
z
" transform="scale(0.015625)"/>
       <path id="DejaVuSans-20" transform="scale(0.015625)"/>
       <path id="DejaVuSans-6d" d="M 3328 2828 
Q 3544 3216 3844 3400 
Q 4144 3584 4550 3584 
Q 5097 3584 5394 3201 
Q 5691 2819 5691 2113 
L 5691 0 
L 5113 0 
L 5113 2094 
Q 5113 2597 4934 2840 
Q 4756 3084 4391 3084 
Q 3944 3084 3684 2787 
Q 3425 2491 3425 1978 
L 3425 0 
L 2847 0 
L 2847 2094 
Q 2847 2600 2669 2842 
Q 2491 3084 2119 3084 
Q 1678 3084 1418 2786 
Q 1159 2488 1159 1978 
L 1159 0 
L 581 0 
L 581 3500 
L 1159 3500 
L 1159 2956 
Q 1356 3278 1631 3431 
Q 1906 3584 2284 3584 
Q 2666 3584 2933 3390 
Q 3200 3197 3328 2828 
z
" transform="scale(0.015625)"/>
       <path id="DejaVuSans-6c" d="M 603 4863 
L 1178 4863 
L 1178 0 
L 603 0 
L 603 4863 
z
" transform="scale(0.015625)"/>
       <path id="DejaVuSans-79" d="M 2059 -325 
Q 1816 -950 1584 -1140 
Q 1353 -1331 966 -1331 
L 506 -1331 
L 506 -850 
L 844 -850 
Q 1081 -850 1212 -737 
Q 1344 -625 1503 -206 
L 1606 56 
L 191 3500 
L 800 3500 
L 1894 763 
L 2988 3500 
L 3597 3500 
L 2059 -325 
z
" transform="scale(0.015625)"/>
      </defs>
      <use xlink:href="#DejaVuSans-63"/>
      <use xlink:href="#DejaVuSans-6f" x="54.980469"/>
      <use xlink:href="#DejaVuSans-73" x="116.162109"/>
      <use xlink:href="#DejaVuSans-69" x="168.261719"/>
      <use xlink:href="#DejaVuSans-6e" x="196.044922"/>
      <use xlink:href="#DejaVuSans-65" x="259.423828"/>
      <use xlink:href="#DejaVuSans-20" x="320.947266"/>
      <use xlink:href="#DejaVuSans-73" x="352.734375"/>
      <use xlink:href="#DejaVuSans-69" x="404.833984"/>
      <use xlink:href="#DejaVuSans-6d" x="432.617188"/>
      <use xlink:href="#DejaVuSans-69" x="530.029297"/>
      <use xlink:href="#DejaVuSans-6c" x="557.8125"/>
      <use xlink:href="#DejaVuSans-61" x="585.595703"/>
      <use xlink:href="#DejaVuSans-72" x="646.875"/>
      <use xlink:href="#DejaVuSans-69" x="687.988281"/>
      <use xlink:href="#DejaVuSans-74" x="715.771484"/>
      <use xlink:href="#DejaVuSans-79" x="754.980469"/>
     </g>
    </g>
   </g>
   <g id="line2d_19">
    <path d="M 235.8 491.965725 
L 235.8 246.8084 
" clip-path="url(#p89414a18ea)" style="fill: none; stroke: #3f3f3f; stroke-width: 1.875; stroke-linecap: square"/>
   </g>
   <g id="line2d_20">
    <path d="M 235.8 395.651756 
L 235.8 328.452084 
" clip-path="url(#p89414a18ea)" style="fill: none; stroke: #3f3f3f; stroke-width: 5.625; stroke-linecap: square"/>
   </g>
   <g id="line2d_21">
    <path d="M 235.8 361.529068 
" clip-path="url(#p89414a18ea)" style="fill: none; stroke: #3f3f3f; stroke-width: 1.5; stroke-linecap: square"/>
    <defs>
     <path id="m9dc369601d" d="M 2.34375 0 
L -2.34375 -0 
" style="stroke: #ffffff; stroke-width: 1.125"/>
    </defs>
    <g clip-path="url(#p89414a18ea)">
     <use xlink:href="#m9dc369601d" x="235.8" y="361.529068" style="fill: #ffffff; stroke: #ffffff; stroke-width: 1.125"/>
    </g>
   </g>
   <g id="line2d_22">
    <path d="M 347.4 514.697777 
L 347.4 260.810975 
" clip-path="url(#p89414a18ea)" style="fill: none; stroke: #3f3f3f; stroke-width: 1.875; stroke-linecap: square"/>
   </g>
   <g id="line2d_23">
    <path d="M 347.4 402.462819 
L 347.4 303.234531 
" clip-path="url(#p89414a18ea)" style="fill: none; stroke: #3f3f3f; stroke-width: 5.625; stroke-linecap: square"/>
   </g>
   <g id="line2d_24">
    <path d="M 347.4 359.695801 
" clip-path="url(#p89414a18ea)" style="fill: none; stroke: #3f3f3f; stroke-width: 1.5; stroke-linecap: square"/>
    <g clip-path="url(#p89414a18ea)">
     <use xlink:href="#m9dc369601d" x="347.4" y="359.695801" style="fill: #ffffff; stroke: #ffffff; stroke-width: 1.125"/>
    </g>
   </g>
   <g id="line2d_25">
    <path d="M 459 508.031701 
L 459 260.4092 
" clip-path="url(#p89414a18ea)" style="fill: none; stroke: #3f3f3f; stroke-width: 1.875; stroke-linecap: square"/>
   </g>
   <g id="line2d_26">
    <path d="M 459 394.878064 
L 459 304.927305 
" clip-path="url(#p89414a18ea)" style="fill: none; stroke: #3f3f3f; stroke-width: 5.625; stroke-linecap: square"/>
   </g>
   <g id="line2d_27">
    <path d="M 459 341.59425 
" clip-path="url(#p89414a18ea)" style="fill: none; stroke: #3f3f3f; stroke-width: 1.5; stroke-linecap: square"/>
    <g clip-path="url(#p89414a18ea)">
     <use xlink:href="#m9dc369601d" x="459" y="341.59425" style="fill: #ffffff; stroke: #ffffff; stroke-width: 1.125"/>
    </g>
   </g>
   <g id="line2d_28">
    <path d="M 570.6 471.834645 
L 570.6 223.63016 
" clip-path="url(#p89414a18ea)" style="fill: none; stroke: #3f3f3f; stroke-width: 1.875; stroke-linecap: square"/>
   </g>
   <g id="line2d_29">
    <path d="M 570.6 385.09838 
L 570.6 279.732293 
" clip-path="url(#p89414a18ea)" style="fill: none; stroke: #3f3f3f; stroke-width: 5.625; stroke-linecap: square"/>
   </g>
   <g id="line2d_30">
    <path d="M 570.6 333.486905 
" clip-path="url(#p89414a18ea)" style="fill: none; stroke: #3f3f3f; stroke-width: 1.5; stroke-linecap: square"/>
    <g clip-path="url(#p89414a18ea)">
     <use xlink:href="#m9dc369601d" x="570.6" y="333.486905" style="fill: #ffffff; stroke: #ffffff; stroke-width: 1.125"/>
    </g>
   </g>
   <g id="line2d_31">
    <path d="M 682.2 409.379741 
L 682.2 253.990518 
" clip-path="url(#p89414a18ea)" style="fill: none; stroke: #3f3f3f; stroke-width: 1.875; stroke-linecap: square"/>
   </g>
   <g id="line2d_32">
    <path d="M 682.2 367.97862 
L 682.2 284.3038 
" clip-path="url(#p89414a18ea)" style="fill: none; stroke: #3f3f3f; stroke-width: 5.625; stroke-linecap: square"/>
   </g>
   <g id="line2d_33">
    <path d="M 682.2 313.253157 
" clip-path="url(#p89414a18ea)" style="fill: none; stroke: #3f3f3f; stroke-width: 1.5; stroke-linecap: square"/>
    <g clip-path="url(#p89414a18ea)">
     <use xlink:href="#m9dc369601d" x="682.2" y="313.253157" style="fill: #ffffff; stroke: #ffffff; stroke-width: 1.125"/>
    </g>
   </g>
   <g id="line2d_34">
    <path d="M 793.8 400.060127 
L 793.8 255.509694 
" clip-path="url(#p89414a18ea)" style="fill: none; stroke: #3f3f3f; stroke-width: 1.875; stroke-linecap: square"/>
   </g>
   <g id="line2d_35">
    <path d="M 793.8 351.755107 
L 793.8 312.448054 
" clip-path="url(#p89414a18ea)" style="fill: none; stroke: #3f3f3f; stroke-width: 5.625; stroke-linecap: square"/>
   </g>
   <g id="line2d_36">
    <path d="M 793.8 331.076472 
" clip-path="url(#p89414a18ea)" style="fill: none; stroke: #3f3f3f; stroke-width: 1.5; stroke-linecap: square"/>
    <g clip-path="url(#p89414a18ea)">
     <use xlink:href="#m9dc369601d" x="793.8" y="331.076472" style="fill: #ffffff; stroke: #ffffff; stroke-width: 1.125"/>
    </g>
   </g>
   <g id="line2d_37">
    <path d="M 905.4 415.210548 
L 905.4 220.26734 
" clip-path="url(#p89414a18ea)" style="fill: none; stroke: #3f3f3f; stroke-width: 1.875; stroke-linecap: square"/>
   </g>
   <g id="line2d_38">
    <path d="M 905.4 345.047067 
L 905.4 264.407792 
" clip-path="url(#p89414a18ea)" style="fill: none; stroke: #3f3f3f; stroke-width: 5.625; stroke-linecap: square"/>
   </g>
   <g id="line2d_39">
    <path d="M 905.4 297.568356 
" clip-path="url(#p89414a18ea)" style="fill: none; stroke: #3f3f3f; stroke-width: 1.5; stroke-linecap: square"/>
    <g clip-path="url(#p89414a18ea)">
     <use xlink:href="#m9dc369601d" x="905.4" y="297.568356" style="fill: #ffffff; stroke: #ffffff; stroke-width: 1.125"/>
    </g>
   </g>
   <g id="line2d_40">
    <path d="M 1017 471.948181 
L 1017 231.1714 
" clip-path="url(#p89414a18ea)" style="fill: none; stroke: #3f3f3f; stroke-width: 1.875; stroke-linecap: square"/>
   </g>
   <g id="line2d_41">
    <path d="M 1017 373.876847 
L 1017 283.737176 
" clip-path="url(#p89414a18ea)" style="fill: none; stroke: #3f3f3f; stroke-width: 5.625; stroke-linecap: square"/>
   </g>
   <g id="line2d_42">
    <path d="M 1017 315.00149 
" clip-path="url(#p89414a18ea)" style="fill: none; stroke: #3f3f3f; stroke-width: 1.5; stroke-linecap: square"/>
    <g clip-path="url(#p89414a18ea)">
     <use xlink:href="#m9dc369601d" x="1017" y="315.00149" style="fill: #ffffff; stroke: #ffffff; stroke-width: 1.125"/>
    </g>
   </g>
   <g id="line2d_43">
    <path d="M 1128.6 434.330088 
L 1128.6 203.773597 
" clip-path="url(#p89414a18ea)" style="fill: none; stroke: #3f3f3f; stroke-width: 1.875; stroke-linecap: square"/>
   </g>
   <g id="line2d_44">
    <path d="M 1128.6 362.565405 
L 1128.6 296.816787 
" clip-path="url(#p89414a18ea)" style="fill: none; stroke: #3f3f3f; stroke-width: 5.625; stroke-linecap: square"/>
   </g>
   <g id="line2d_45">
    <path d="M 1128.6 317.326243 
" clip-path="url(#p89414a18ea)" style="fill: none; stroke: #3f3f3f; stroke-width: 1.5; stroke-linecap: square"/>
    <g clip-path="url(#p89414a18ea)">
     <use xlink:href="#m9dc369601d" x="1128.6" y="317.326243" style="fill: #ffffff; stroke: #ffffff; stroke-width: 1.125"/>
    </g>
   </g>
   <g id="line2d_46">
    <path d="M 1240.2 396.978526 
L 1240.2 345.247265 
" clip-path="url(#p89414a18ea)" style="fill: none; stroke: #3f3f3f; stroke-width: 1.875; stroke-linecap: square"/>
   </g>
   <g id="line2d_47">
    <path d="M 1240.2 388.145926 
L 1240.2 354.953855 
" clip-path="url(#p89414a18ea)" style="fill: none; stroke: #3f3f3f; stroke-width: 5.625; stroke-linecap: square"/>
   </g>
   <g id="line2d_48">
    <path d="M 1240.2 360.726887 
" clip-path="url(#p89414a18ea)" style="fill: none; stroke: #3f3f3f; stroke-width: 1.5; stroke-linecap: square"/>
    <g clip-path="url(#p89414a18ea)">
     <use xlink:href="#m9dc369601d" x="1240.2" y="360.726887" style="fill: #ffffff; stroke: #ffffff; stroke-width: 1.125"/>
    </g>
   </g>
   <g id="patch_3">
    <path d="M 180 640.8 
L 180 86.4 
" style="fill: none; stroke: #000000; stroke-width: 0.8; stroke-linejoin: miter; stroke-linecap: square"/>
   </g>
   <g id="patch_4">
    <path d="M 1296 640.8 
L 1296 86.4 
" style="fill: none; stroke: #000000; stroke-width: 0.8; stroke-linejoin: miter; stroke-linecap: square"/>
   </g>
   <g id="patch_5">
    <path d="M 180 640.8 
L 1296 640.8 
" style="fill: none; stroke: #000000; stroke-width: 0.8; stroke-linejoin: miter; stroke-linecap: square"/>
   </g>
   <g id="patch_6">
    <path d="M 180 86.4 
L 1296 86.4 
" style="fill: none; stroke: #000000; stroke-width: 0.8; stroke-linejoin: miter; stroke-linecap: square"/>
   </g>
   <g id="text_21">
    <!-- cosine similarity of max (progressive), by iteration -->
    <g transform="translate(586.659375 80.4) scale(0.12 -0.12)">
     <defs>
      <path id="DejaVuSans-66" d="M 2375 4863 
L 2375 4384 
L 1825 4384 
Q 1516 4384 1395 4259 
Q 1275 4134 1275 3809 
L 1275 3500 
L 2222 3500 
L 2222 3053 
L 1275 3053 
L 1275 0 
L 697 0 
L 697 3053 
L 147 3053 
L 147 3500 
L 697 3500 
L 697 3744 
Q 697 4328 969 4595 
Q 1241 4863 1831 4863 
L 2375 4863 
z
" transform="scale(0.015625)"/>
      <path id="DejaVuSans-78" d="M 3513 3500 
L 2247 1797 
L 3578 0 
L 2900 0 
L 1881 1375 
L 863 0 
L 184 0 
L 1544 1831 
L 300 3500 
L 978 3500 
L 1906 2253 
L 2834 3500 
L 3513 3500 
z
" transform="scale(0.015625)"/>
      <path id="DejaVuSans-28" d="M 1984 4856 
Q 1566 4138 1362 3434 
Q 1159 2731 1159 2009 
Q 1159 1288 1364 580 
Q 1569 -128 1984 -844 
L 1484 -844 
Q 1016 -109 783 600 
Q 550 1309 550 2009 
Q 550 2706 781 3412 
Q 1013 4119 1484 4856 
L 1984 4856 
z
" transform="scale(0.015625)"/>
      <path id="DejaVuSans-70" d="M 1159 525 
L 1159 -1331 
L 581 -1331 
L 581 3500 
L 1159 3500 
L 1159 2969 
Q 1341 3281 1617 3432 
Q 1894 3584 2278 3584 
Q 2916 3584 3314 3078 
Q 3713 2572 3713 1747 
Q 3713 922 3314 415 
Q 2916 -91 2278 -91 
Q 1894 -91 1617 61 
Q 1341 213 1159 525 
z
M 3116 1747 
Q 3116 2381 2855 2742 
Q 2594 3103 2138 3103 
Q 1681 3103 1420 2742 
Q 1159 2381 1159 1747 
Q 1159 1113 1420 752 
Q 1681 391 2138 391 
Q 2594 391 2855 752 
Q 3116 1113 3116 1747 
z
" transform="scale(0.015625)"/>
      <path id="DejaVuSans-67" d="M 2906 1791 
Q 2906 2416 2648 2759 
Q 2391 3103 1925 3103 
Q 1463 3103 1205 2759 
Q 947 2416 947 1791 
Q 947 1169 1205 825 
Q 1463 481 1925 481 
Q 2391 481 2648 825 
Q 2906 1169 2906 1791 
z
M 3481 434 
Q 3481 -459 3084 -895 
Q 2688 -1331 1869 -1331 
Q 1566 -1331 1297 -1286 
Q 1028 -1241 775 -1147 
L 775 -588 
Q 1028 -725 1275 -790 
Q 1522 -856 1778 -856 
Q 2344 -856 2625 -561 
Q 2906 -266 2906 331 
L 2906 616 
Q 2728 306 2450 153 
Q 2172 0 1784 0 
Q 1141 0 747 490 
Q 353 981 353 1791 
Q 353 2603 747 3093 
Q 1141 3584 1784 3584 
Q 2172 3584 2450 3431 
Q 2728 3278 2906 2969 
L 2906 3500 
L 3481 3500 
L 3481 434 
z
" transform="scale(0.015625)"/>
      <path id="DejaVuSans-76" d="M 191 3500 
L 800 3500 
L 1894 563 
L 2988 3500 
L 3597 3500 
L 2284 0 
L 1503 0 
L 191 3500 
z
" transform="scale(0.015625)"/>
      <path id="DejaVuSans-29" d="M 513 4856 
L 1013 4856 
Q 1481 4119 1714 3412 
Q 1947 2706 1947 2009 
Q 1947 1309 1714 600 
Q 1481 -109 1013 -844 
L 513 -844 
Q 928 -128 1133 580 
Q 1338 1288 1338 2009 
Q 1338 2731 1133 3434 
Q 928 4138 513 4856 
z
" transform="scale(0.015625)"/>
      <path id="DejaVuSans-2c" d="M 750 794 
L 1409 794 
L 1409 256 
L 897 -744 
L 494 -744 
L 750 256 
L 750 794 
z
" transform="scale(0.015625)"/>
      <path id="DejaVuSans-62" d="M 3116 1747 
Q 3116 2381 2855 2742 
Q 2594 3103 2138 3103 
Q 1681 3103 1420 2742 
Q 1159 2381 1159 1747 
Q 1159 1113 1420 752 
Q 1681 391 2138 391 
Q 2594 391 2855 752 
Q 3116 1113 3116 1747 
z
M 1159 2969 
Q 1341 3281 1617 3432 
Q 1894 3584 2278 3584 
Q 2916 3584 3314 3078 
Q 3713 2572 3713 1747 
Q 3713 922 3314 415 
Q 2916 -91 2278 -91 
Q 1894 -91 1617 61 
Q 1341 213 1159 525 
L 1159 0 
L 581 0 
L 581 4863 
L 1159 4863 
L 1159 2969 
z
" transform="scale(0.015625)"/>
     </defs>
     <use xlink:href="#DejaVuSans-63"/>
     <use xlink:href="#DejaVuSans-6f" x="54.980469"/>
     <use xlink:href="#DejaVuSans-73" x="116.162109"/>
     <use xlink:href="#DejaVuSans-69" x="168.261719"/>
     <use xlink:href="#DejaVuSans-6e" x="196.044922"/>
     <use xlink:href="#DejaVuSans-65" x="259.423828"/>
     <use xlink:href="#DejaVuSans-20" x="320.947266"/>
     <use xlink:href="#DejaVuSans-73" x="352.734375"/>
     <use xlink:href="#DejaVuSans-69" x="404.833984"/>
     <use xlink:href="#DejaVuSans-6d" x="432.617188"/>
     <use xlink:href="#DejaVuSans-69" x="530.029297"/>
     <use xlink:href="#DejaVuSans-6c" x="557.8125"/>
     <use xlink:href="#DejaVuSans-61" x="585.595703"/>
     <use xlink:href="#DejaVuSans-72" x="646.875"/>
     <use xlink:href="#DejaVuSans-69" x="687.988281"/>
     <use xlink:href="#DejaVuSans-74" x="715.771484"/>
     <use xlink:href="#DejaVuSans-79" x="754.980469"/>
     <use xlink:href="#DejaVuSans-20" x="814.160156"/>
     <use xlink:href="#DejaVuSans-6f" x="845.947266"/>
     <use xlink:href="#DejaVuSans-66" x="907.128906"/>
     <use xlink:href="#DejaVuSans-20" x="942.333984"/>
     <use xlink:href="#DejaVuSans-6d" x="974.121094"/>
     <use xlink:href="#DejaVuSans-61" x="1071.533203"/>
     <use xlink:href="#DejaVuSans-78" x="1132.8125"/>
     <use xlink:href="#DejaVuSans-20" x="1191.992188"/>
     <use xlink:href="#DejaVuSans-28" x="1223.779297"/>
     <use xlink:href="#DejaVuSans-70" x="1262.792969"/>
     <use xlink:href="#DejaVuSans-72" x="1326.269531"/>
     <use xlink:href="#DejaVuSans-6f" x="1365.132812"/>
     <use xlink:href="#DejaVuSans-67" x="1426.314453"/>
     <use xlink:href="#DejaVuSans-72" x="1489.791016"/>
     <use xlink:href="#DejaVuSans-65" x="1528.654297"/>
     <use xlink:href="#DejaVuSans-73" x="1590.177734"/>
     <use xlink:href="#DejaVuSans-73" x="1642.277344"/>
     <use xlink:href="#DejaVuSans-69" x="1694.376953"/>
     <use xlink:href="#DejaVuSans-76" x="1722.160156"/>
     <use xlink:href="#DejaVuSans-65" x="1781.339844"/>
     <use xlink:href="#DejaVuSans-29" x="1842.863281"/>
     <use xlink:href="#DejaVuSans-2c" x="1881.876953"/>
     <use xlink:href="#DejaVuSans-20" x="1913.664062"/>
     <use xlink:href="#DejaVuSans-62" x="1945.451172"/>
     <use xlink:href="#DejaVuSans-79" x="2008.927734"/>
     <use xlink:href="#DejaVuSans-20" x="2068.107422"/>
     <use xlink:href="#DejaVuSans-69" x="2099.894531"/>
     <use xlink:href="#DejaVuSans-74" x="2127.677734"/>
     <use xlink:href="#DejaVuSans-65" x="2166.886719"/>
     <use xlink:href="#DejaVuSans-72" x="2228.410156"/>
     <use xlink:href="#DejaVuSans-61" x="2269.523438"/>
     <use xlink:href="#DejaVuSans-74" x="2330.802734"/>
     <use xlink:href="#DejaVuSans-69" x="2370.011719"/>
     <use xlink:href="#DejaVuSans-6f" x="2397.794922"/>
     <use xlink:href="#DejaVuSans-6e" x="2458.976562"/>
    </g>
   </g>
  </g>
 </g>
 <defs>
  <clipPath id="p89414a18ea">
   <rect x="180" y="86.4" width="1116" height="554.4"/>
  </clipPath>
 </defs>
</svg>
