<?xml version="1.0" encoding="utf-8" standalone="no"?>
<!DOCTYPE svg PUBLIC "-//W3C//DTD SVG 1.1//EN"
  "http://www.w3.org/Graphics/SVG/1.1/DTD/svg11.dtd">
<svg xmlns:xlink="http://www.w3.org/1999/xlink" width="1440pt" height="720pt" viewBox="0 0 1440 720" xmlns="http://www.w3.org/2000/svg" version="1.1">
 <metadata>
  <rdf:RDF xmlns:dc="http://purl.org/dc/elements/1.1/" xmlns:cc="http://creativecommons.org/ns#" xmlns:rdf="http://www.w3.org/1999/02/22-rdf-syntax-ns#">
   <cc:Work>
    <dc:type rdf:resource="http://purl.org/dc/dcmitype/StillImage"/>
    <dc:date>2024-07-27T02:03:38.251660</dc:date>
    <dc:format>image/svg+xml</dc:format>
    <dc:creator>
     <cc:Agent>
      <dc:title>Matplotlib v3.8.0, https://matplotlib.org/</dc:title>
     </cc:Agent>
    </dc:creator>
   </cc:Work>
  </rdf:RDF>
 </metadata>
 <defs>
  <style type="text/css">*{stroke-linejoin: round; stroke-linecap: butt}</style>
 </defs>
 <g id="figure_1">
  <g id="patch_1">
   <path d="M 0 720 
L 1440 720 
L 1440 0 
L 0 0 
z
" style="fill: #ffffff"/>
  </g>
  <g id="axes_1">
   <g id="patch_2">
    <path d="M 180 640.8 
L 1296 640.8 
L 1296 86.4 
L 180 86.4 
z
" style="fill: #ffffff"/>
   </g>
   <g id="PolyCollection_1">
    <defs>
     <path id="m8769d5f0f7" d="M 235.94691 -133.064726 
L 235.65309 -133.064726 
L 235.588062 -137.83918 
L 235.503344 -142.613634 
L 235.396881 -147.388087 
L 235.267802 -152.162541 
L 235.11674 -156.936994 
L 234.94592 -161.711448 
L 234.758928 -166.485902 
L 234.560138 -171.260355 
L 234.353836 -176.034809 
L 234.143189 -180.809262 
L 233.929251 -185.583716 
L 233.710224 -190.35817 
L 233.481147 -195.132623 
L 233.234117 -199.907077 
L 232.959007 -204.681531 
L 232.644573 -209.455984 
L 232.27977 -214.230438 
L 231.855061 -219.004891 
L 231.363576 -223.779345 
L 230.801991 -228.553799 
L 230.17109 -233.328252 
L 229.475966 -238.102706 
L 228.725837 -242.877159 
L 227.933417 -247.651613 
L 227.113794 -252.426067 
L 226.282793 -257.20052 
L 225.454899 -261.974974 
L 224.64095 -266.749428 
L 223.845944 -271.523881 
L 223.067392 -276.298335 
L 222.294646 -281.072788 
L 221.509487 -285.847242 
L 220.688067 -290.621696 
L 219.80399 -295.396149 
L 218.832088 -300.170603 
L 217.752288 -304.945056 
L 216.552935 -309.71951 
L 215.23304 -314.493964 
L 213.803167 -319.268417 
L 212.28491 -324.042871 
L 210.709145 -328.817325 
L 209.113397 -333.591778 
L 207.538709 -338.366232 
L 206.026365 -343.140685 
L 204.614731 -347.915139 
L 203.336421 -352.689593 
L 202.21594 -357.464046 
L 201.267967 -362.2385 
L 200.496473 -367.012953 
L 199.894873 -371.787407 
L 199.447359 -376.561861 
L 199.131395 -381.336314 
L 198.921169 -386.110768 
L 198.791509 -390.885222 
L 198.721572 -395.659675 
L 198.697578 -400.434129 
L 198.71394 -405.208582 
L 198.7725 -409.983036 
L 198.880025 -414.75749 
L 199.044579 -419.531943 
L 199.271735 -424.306397 
L 199.561648 -429.080851 
L 199.907827 -433.855304 
L 200.29801 -438.629758 
L 200.71697 -443.404211 
L 201.150637 -448.178665 
L 201.590582 -452.953119 
L 202.037864 -457.727572 
L 202.505393 -462.502026 
L 203.018289 -467.276479 
L 203.612053 -472.050933 
L 204.328722 -476.825387 
L 205.211435 -481.59984 
L 206.298111 -486.374294 
L 207.615057 -491.148748 
L 209.171486 -495.923201 
L 210.955907 -500.697655 
L 212.935171 -505.472108 
L 215.056623 -510.246562 
L 217.253267 -515.021016 
L 219.451236 -519.795469 
L 221.578363 -524.569923 
L 223.572343 -529.344376 
L 225.387038 -534.11883 
L 226.995857 -538.893284 
L 228.391829 -543.667737 
L 229.584661 -548.442191 
L 230.595743 -553.216645 
L 231.452325 -557.991098 
L 232.182147 -562.765552 
L 232.80945 -567.540005 
L 233.352834 -572.314459 
L 233.82492 -577.088913 
L 234.233369 -581.863366 
L 234.582631 -586.63782 
L 234.875778 -591.412273 
L 235.115974 -596.186727 
L 235.307332 -600.961181 
L 235.455144 -605.735634 
L 236.144856 -605.735634 
L 236.144856 -605.735634 
L 236.292668 -600.961181 
L 236.484026 -596.186727 
L 236.724222 -591.412273 
L 237.017369 -586.63782 
L 237.366631 -581.863366 
L 237.77508 -577.088913 
L 238.247166 -572.314459 
L 238.79055 -567.540005 
L 239.417853 -562.765552 
L 240.147675 -557.991098 
L 241.004257 -553.216645 
L 242.015339 -548.442191 
L 243.208171 -543.667737 
L 244.604143 -538.893284 
L 246.212962 -534.11883 
L 248.027657 -529.344376 
L 250.021637 -524.569923 
L 252.148764 -519.795469 
L 254.346733 -515.021016 
L 256.543377 -510.246562 
L 258.664829 -505.472108 
L 260.644093 -500.697655 
L 262.428514 -495.923201 
L 263.984943 -491.148748 
L 265.301889 -486.374294 
L 266.388565 -481.59984 
L 267.271278 -476.825387 
L 267.987947 -472.050933 
L 268.581711 -467.276479 
L 269.094607 -462.502026 
L 269.562136 -457.727572 
L 270.009418 -452.953119 
L 270.449363 -448.178665 
L 270.88303 -443.404211 
L 271.30199 -438.629758 
L 271.692173 -433.855304 
L 272.038352 -429.080851 
L 272.328265 -424.306397 
L 272.555421 -419.531943 
L 272.719975 -414.75749 
L 272.8275 -409.983036 
L 272.88606 -405.208582 
L 272.902422 -400.434129 
L 272.878428 -395.659675 
L 272.808491 -390.885222 
L 272.678831 -386.110768 
L 272.468605 -381.336314 
L 272.152641 -376.561861 
L 271.705127 -371.787407 
L 271.103527 -367.012953 
L 270.332033 -362.2385 
L 269.38406 -357.464046 
L 268.263579 -352.689593 
L 266.985269 -347.915139 
L 265.573635 -343.140685 
L 264.061291 -338.366232 
L 262.486603 -333.591778 
L 260.890855 -328.817325 
L 259.31509 -324.042871 
L 257.796833 -319.268417 
L 256.36696 -314.493964 
L 255.047065 -309.71951 
L 253.847712 -304.945056 
L 252.767912 -300.170603 
L 251.79601 -295.396149 
L 250.911933 -290.621696 
L 250.090513 -285.847242 
L 249.305354 -281.072788 
L 248.532608 -276.298335 
L 247.754056 -271.523881 
L 246.95905 -266.749428 
L 246.145101 -261.974974 
L 245.317207 -257.20052 
L 244.486206 -252.426067 
L 243.666583 -247.651613 
L 242.874163 -242.877159 
L 242.124034 -238.102706 
L 241.42891 -233.328252 
L 240.798009 -228.553799 
L 240.236424 -223.779345 
L 239.744939 -219.004891 
L 239.32023 -214.230438 
L 238.955427 -209.455984 
L 238.640993 -204.681531 
L 238.365883 -199.907077 
L 238.118853 -195.132623 
L 237.889776 -190.35817 
L 237.670749 -185.583716 
L 237.456811 -180.809262 
L 237.246164 -176.034809 
L 237.039862 -171.260355 
L 236.841072 -166.485902 
L 236.65408 -161.711448 
L 236.48326 -156.936994 
L 236.332198 -152.162541 
L 236.203119 -147.388087 
L 236.096656 -142.613634 
L 236.011938 -137.83918 
L 235.94691 -133.064726 
z
" style="stroke: #3f3f3f; stroke-width: 1.25"/>
    </defs>
    <g clip-path="url(#pe533d7ad09)">
     <use xlink:href="#m8769d5f0f7" x="0" y="720" style="fill: #3274a1; stroke: #3f3f3f; stroke-width: 1.25"/>
    </g>
   </g>
   <g id="PolyCollection_2">
    <defs>
     <path id="m01fe4dbde9" d="M 347.535216 -115.484407 
L 347.264784 -115.484407 
L 347.197041 -120.463353 
L 347.102874 -125.442298 
L 346.97545 -130.421244 
L 346.807492 -135.400189 
L 346.591683 -140.379134 
L 346.321139 -145.35808 
L 345.989919 -150.337025 
L 345.59346 -155.31597 
L 345.128913 -160.294916 
L 344.595282 -165.273861 
L 343.993386 -170.252807 
L 343.325636 -175.231752 
L 342.595707 -180.210697 
L 341.808178 -185.189643 
L 340.968234 -190.168588 
L 340.081469 -195.147533 
L 339.153801 -200.126479 
L 338.191425 -205.105424 
L 337.200724 -210.08437 
L 336.188042 -215.063315 
L 335.15928 -220.04226 
L 334.119347 -225.021206 
L 333.071595 -230.000151 
L 332.017396 -234.979097 
L 330.956021 -239.958042 
L 329.884922 -244.936987 
L 328.800384 -249.915933 
L 327.698439 -254.894878 
L 326.575826 -259.873823 
L 325.430824 -264.852769 
L 324.263833 -269.831714 
L 323.077709 -274.81066 
L 321.877953 -279.789605 
L 320.672936 -284.76855 
L 319.474261 -289.747496 
L 318.297264 -294.726441 
L 317.161492 -299.705386 
L 316.090794 -304.684332 
L 315.11266 -309.663277 
L 314.256481 -314.642223 
L 313.550644 -319.621168 
L 313.018716 -324.600113 
L 312.675308 -329.579059 
L 312.522483 -334.558004 
L 312.547623 -339.536949 
L 312.723482 -344.515895 
L 313.010767 -349.49484 
L 313.362995 -354.473786 
L 313.732883 -359.452731 
L 314.079078 -364.431676 
L 314.371961 -369.410622 
L 314.597425 -374.389567 
L 314.758004 -379.368513 
L 314.871292 -384.347458 
L 314.966175 -389.326403 
L 315.077762 -394.305349 
L 315.242029 -399.284294 
L 315.491089 -404.263239 
L 315.849683 -409.242185 
L 316.333184 -414.22113 
L 316.947076 -419.200076 
L 317.6877 -424.179021 
L 318.543968 -429.157966 
L 319.499708 -434.136912 
L 320.536314 -439.115857 
L 321.635363 -444.094802 
L 322.780856 -449.073748 
L 323.960777 -454.052693 
L 325.167738 -459.031639 
L 326.398647 -464.010584 
L 327.653494 -468.989529 
L 328.933552 -473.968475 
L 330.239379 -478.94742 
L 331.56902 -483.926366 
L 332.916753 -488.905311 
L 334.272542 -493.884256 
L 335.62225 -498.863202 
L 336.948507 -503.842147 
L 338.232066 -508.821092 
L 339.453425 -513.800038 
L 340.594532 -518.778983 
L 341.640345 -523.757929 
L 342.580085 -528.736874 
L 343.408027 -533.715819 
L 344.123711 -538.694765 
L 344.731573 -543.67371 
L 345.240045 -548.652655 
L 345.660284 -553.631601 
L 346.004766 -558.610546 
L 346.285965 -563.589492 
L 346.515314 -568.568437 
L 346.70257 -573.547382 
L 346.855585 -578.526328 
L 346.980428 -583.505273 
L 347.081712 -588.484218 
L 347.163016 -593.463164 
L 347.227266 -598.442109 
L 347.277022 -603.421055 
L 347.314639 -608.4 
L 347.485361 -608.4 
L 347.485361 -608.4 
L 347.522978 -603.421055 
L 347.572734 -598.442109 
L 347.636984 -593.463164 
L 347.718288 -588.484218 
L 347.819572 -583.505273 
L 347.944415 -578.526328 
L 348.09743 -573.547382 
L 348.284686 -568.568437 
L 348.514035 -563.589492 
L 348.795234 -558.610546 
L 349.139716 -553.631601 
L 349.559955 -548.652655 
L 350.068427 -543.67371 
L 350.676289 -538.694765 
L 351.391973 -533.715819 
L 352.219915 -528.736874 
L 353.159655 -523.757929 
L 354.205468 -518.778983 
L 355.346575 -513.800038 
L 356.567934 -508.821092 
L 357.851493 -503.842147 
L 359.17775 -498.863202 
L 360.527458 -493.884256 
L 361.883247 -488.905311 
L 363.23098 -483.926366 
L 364.560621 -478.94742 
L 365.866448 -473.968475 
L 367.146506 -468.989529 
L 368.401353 -464.010584 
L 369.632262 -459.031639 
L 370.839223 -454.052693 
L 372.019144 -449.073748 
L 373.164637 -444.094802 
L 374.263686 -439.115857 
L 375.300292 -434.136912 
L 376.256032 -429.157966 
L 377.1123 -424.179021 
L 377.852924 -419.200076 
L 378.466816 -414.22113 
L 378.950317 -409.242185 
L 379.308911 -404.263239 
L 379.557971 -399.284294 
L 379.722238 -394.305349 
L 379.833825 -389.326403 
L 379.928708 -384.347458 
L 380.041996 -379.368513 
L 380.202575 -374.389567 
L 380.428039 -369.410622 
L 380.720922 -364.431676 
L 381.067117 -359.452731 
L 381.437005 -354.473786 
L 381.789233 -349.49484 
L 382.076518 -344.515895 
L 382.252377 -339.536949 
L 382.277517 -334.558004 
L 382.124692 -329.579059 
L 381.781284 -324.600113 
L 381.249356 -319.621168 
L 380.543519 -314.642223 
L 379.68734 -309.663277 
L 378.709206 -304.684332 
L 377.638508 -299.705386 
L 376.502736 -294.726441 
L 375.325739 -289.747496 
L 374.127064 -284.76855 
L 372.922047 -279.789605 
L 371.722291 -274.81066 
L 370.536167 -269.831714 
L 369.369176 -264.852769 
L 368.224174 -259.873823 
L 367.101561 -254.894878 
L 365.999616 -249.915933 
L 364.915078 -244.936987 
L 363.843979 -239.958042 
L 362.782604 -234.979097 
L 361.728405 -230.000151 
L 360.680653 -225.021206 
L 359.64072 -220.04226 
L 358.611958 -215.063315 
L 357.599276 -210.08437 
L 356.608575 -205.105424 
L 355.646199 -200.126479 
L 354.718531 -195.147533 
L 353.831766 -190.168588 
L 352.991822 -185.189643 
L 352.204293 -180.210697 
L 351.474364 -175.231752 
L 350.806614 -170.252807 
L 350.204718 -165.273861 
L 349.671087 -160.294916 
L 349.20654 -155.31597 
L 348.810081 -150.337025 
L 348.478861 -145.35808 
L 348.208317 -140.379134 
L 347.992508 -135.400189 
L 347.82455 -130.421244 
L 347.697126 -125.442298 
L 347.602959 -120.463353 
L 347.535216 -115.484407 
z
" style="stroke: #3f3f3f; stroke-width: 1.25"/>
    </defs>
    <g clip-path="url(#pe533d7ad09)">
     <use xlink:href="#m01fe4dbde9" x="0" y="720" style="fill: #3274a1; stroke: #3f3f3f; stroke-width: 1.25"/>
    </g>
   </g>
   <g id="PolyCollection_3">
    <defs>
     <path id="mb4fa50e8a2" d="M 459.324198 -126.796331 
L 458.675802 -126.796331 
L 458.524823 -131.281006 
L 458.319164 -135.765682 
L 458.046174 -140.250358 
L 457.693072 -144.735033 
L 457.248035 -149.219709 
L 456.701466 -153.704384 
L 456.047322 -158.18906 
L 455.284291 -162.673736 
L 454.416633 -167.158411 
L 453.454461 -171.643087 
L 452.413369 -176.127762 
L 451.313349 -180.612438 
L 450.177098 -185.097113 
L 449.027924 -189.581789 
L 447.887529 -194.066465 
L 446.773989 -198.55114 
L 445.700222 -203.035816 
L 444.673119 -207.520491 
L 443.693446 -212.005167 
L 442.756425 -216.489843 
L 441.852878 -220.974518 
L 440.970688 -225.459194 
L 440.09638 -229.943869 
L 439.216643 -234.428545 
L 438.319665 -238.913221 
L 437.396239 -243.397896 
L 436.44063 -247.882572 
L 435.451208 -252.367247 
L 434.430829 -256.851923 
L 433.386943 -261.336598 
L 432.331354 -265.821274 
L 431.27958 -270.30595 
L 430.249788 -274.790625 
L 429.26135 -279.275301 
L 428.33315 -283.759976 
L 427.481845 -288.244652 
L 426.720354 -292.729328 
L 426.056802 -297.214003 
L 425.494132 -301.698679 
L 425.030421 -306.183354 
L 424.659859 -310.66803 
L 424.374164 -315.152705 
L 424.164175 -319.637381 
L 424.021318 -324.122057 
L 423.938712 -328.606732 
L 423.911777 -333.091408 
L 423.938351 -337.576083 
L 424.018389 -342.060759 
L 424.153429 -346.545435 
L 424.345962 -351.03011 
L 424.598845 -355.514786 
L 424.914814 -359.999461 
L 425.296085 -364.484137 
L 425.744019 -368.968813 
L 426.258815 -373.453488 
L 426.839211 -377.938164 
L 427.482223 -382.422839 
L 428.183 -386.907515 
L 428.934834 -391.39219 
L 429.729407 -395.876866 
L 430.557265 -400.361542 
L 431.408489 -404.846217 
L 432.273472 -409.330893 
L 433.143692 -413.815568 
L 434.012365 -418.300244 
L 434.874887 -422.78492 
L 435.729011 -427.269595 
L 436.57475 -431.754271 
L 437.414037 -436.238946 
L 438.250205 -440.723622 
L 439.087362 -445.208297 
L 439.929746 -449.692973 
L 440.781144 -454.177649 
L 441.64443 -458.662324 
L 442.521288 -463.147 
L 443.412112 -467.631675 
L 444.316095 -472.116351 
L 445.231439 -476.601027 
L 446.155612 -481.085702 
L 447.085578 -485.570378 
L 448.01791 -490.055053 
L 448.948757 -494.539729 
L 449.873677 -499.024404 
L 450.787387 -503.50908 
L 451.683544 -507.993756 
L 452.55466 -512.478431 
L 453.392233 -516.963107 
L 454.187142 -521.447782 
L 454.930272 -525.932458 
L 455.613273 -530.417134 
L 456.229347 -534.901809 
L 456.773907 -539.386485 
L 457.245003 -543.87116 
L 457.643449 -548.355836 
L 457.972655 -552.840512 
L 458.238185 -557.325187 
L 458.447156 -561.809863 
L 458.607559 -566.294538 
L 458.727612 -570.779214 
L 459.272388 -570.779214 
L 459.272388 -570.779214 
L 459.392441 -566.294538 
L 459.552844 -561.809863 
L 459.761815 -557.325187 
L 460.027345 -552.840512 
L 460.356551 -548.355836 
L 460.754997 -543.87116 
L 461.226093 -539.386485 
L 461.770653 -534.901809 
L 462.386727 -530.417134 
L 463.069728 -525.932458 
L 463.812858 -521.447782 
L 464.607767 -516.963107 
L 465.44534 -512.478431 
L 466.316456 -507.993756 
L 467.212613 -503.50908 
L 468.126323 -499.024404 
L 469.051243 -494.539729 
L 469.98209 -490.055053 
L 470.914422 -485.570378 
L 471.844388 -481.085702 
L 472.768561 -476.601027 
L 473.683905 -472.116351 
L 474.587888 -467.631675 
L 475.478712 -463.147 
L 476.35557 -458.662324 
L 477.218856 -454.177649 
L 478.070254 -449.692973 
L 478.912638 -445.208297 
L 479.749795 -440.723622 
L 480.585963 -436.238946 
L 481.42525 -431.754271 
L 482.270989 -427.269595 
L 483.125113 -422.78492 
L 483.987635 -418.300244 
L 484.856308 -413.815568 
L 485.726528 -409.330893 
L 486.591511 -404.846217 
L 487.442735 -400.361542 
L 488.270593 -395.876866 
L 489.065166 -391.39219 
L 489.817 -386.907515 
L 490.517777 -382.422839 
L 491.160789 -377.938164 
L 491.741185 -373.453488 
L 492.255981 -368.968813 
L 492.703915 -364.484137 
L 493.085186 -359.999461 
L 493.401155 -355.514786 
L 493.654038 -351.03011 
L 493.846571 -346.545435 
L 493.981611 -342.060759 
L 494.061649 -337.576083 
L 494.088223 -333.091408 
L 494.061288 -328.606732 
L 493.978682 -324.122057 
L 493.835825 -319.637381 
L 493.625836 -315.152705 
L 493.340141 -310.66803 
L 492.969579 -306.183354 
L 492.505868 -301.698679 
L 491.943198 -297.214003 
L 491.279646 -292.729328 
L 490.518155 -288.244652 
L 489.66685 -283.759976 
L 488.73865 -279.275301 
L 487.750212 -274.790625 
L 486.72042 -270.30595 
L 485.668646 -265.821274 
L 484.613057 -261.336598 
L 483.569171 -256.851923 
L 482.548792 -252.367247 
L 481.55937 -247.882572 
L 480.603761 -243.397896 
L 479.680335 -238.913221 
L 478.783357 -234.428545 
L 477.90362 -229.943869 
L 477.029312 -225.459194 
L 476.147122 -220.974518 
L 475.243575 -216.489843 
L 474.306554 -212.005167 
L 473.326881 -207.520491 
L 472.299778 -203.035816 
L 471.226011 -198.55114 
L 470.112471 -194.066465 
L 468.972076 -189.581789 
L 467.822902 -185.097113 
L 466.686651 -180.612438 
L 465.586631 -176.127762 
L 464.545539 -171.643087 
L 463.583367 -167.158411 
L 462.715709 -162.673736 
L 461.952678 -158.18906 
L 461.298534 -153.704384 
L 460.751965 -149.219709 
L 460.306928 -144.735033 
L 459.953826 -140.250358 
L 459.680836 -135.765682 
L 459.475177 -131.281006 
L 459.324198 -126.796331 
z
" style="stroke: #3f3f3f; stroke-width: 1.25"/>
    </defs>
    <g clip-path="url(#pe533d7ad09)">
     <use xlink:href="#mb4fa50e8a2" x="0" y="720" style="fill: #3274a1; stroke: #3f3f3f; stroke-width: 1.25"/>
    </g>
   </g>
   <g id="PolyCollection_4">
    <defs>
     <path id="md370d5d68e" d="M 570.712631 -107.91808 
L 570.487369 -107.91808 
L 570.434444 -112.596013 
L 570.360982 -117.273947 
L 570.260738 -121.95188 
L 570.126146 -126.629814 
L 569.94822 -131.307747 
L 569.716542 -135.985681 
L 569.41937 -140.663614 
L 569.043926 -145.341548 
L 568.576884 -150.019481 
L 568.005103 -154.697415 
L 567.316546 -159.375348 
L 566.501355 -164.053282 
L 565.552939 -168.731215 
L 564.468962 -173.409149 
L 563.252074 -178.087082 
L 561.910269 -182.765016 
L 560.45679 -187.442949 
L 558.909568 -192.120883 
L 557.290224 -196.798816 
L 555.622736 -201.47675 
L 553.931881 -206.154683 
L 552.241583 -210.832617 
L 550.573334 -215.510551 
L 548.944816 -220.188484 
L 547.368888 -224.866418 
L 545.8531 -229.544351 
L 544.399836 -234.222285 
L 543.007197 -238.900218 
L 541.670569 -243.578152 
L 540.384785 -248.256085 
L 539.146592 -252.934019 
L 537.957063 -257.611952 
L 536.823534 -262.289886 
L 535.76063 -266.967819 
L 534.790102 -271.645753 
L 533.939325 -276.323686 
L 533.238593 -281.00162 
L 532.717542 -285.679553 
L 532.401245 -290.357487 
L 532.306581 -295.03542 
L 532.439481 -299.713354 
L 532.793484 -304.391287 
L 533.349797 -309.069221 
L 534.078818 -313.747154 
L 534.942817 -318.425088 
L 535.899338 -323.103022 
L 536.904816 -327.780955 
L 537.917965 -332.458889 
L 538.902597 -337.136822 
L 539.829703 -341.814756 
L 540.678735 -346.492689 
L 541.438158 -351.170623 
L 542.105362 -355.848556 
L 542.686051 -360.52649 
L 543.193183 -365.204423 
L 543.645515 -369.882357 
L 544.065812 -374.56029 
L 544.478762 -379.238224 
L 544.908714 -383.916157 
L 545.377382 -388.594091 
L 545.901742 -393.272024 
L 546.492366 -397.949958 
L 547.152443 -402.627891 
L 547.877691 -407.305825 
L 548.657216 -411.983758 
L 549.47526 -416.661692 
L 550.313589 -421.339625 
L 551.154133 -426.017559 
L 551.981437 -430.695492 
L 552.784499 -435.373426 
L 553.557703 -440.05136 
L 554.300729 -444.729293 
L 555.017596 -449.407227 
L 555.715108 -454.08516 
L 556.401141 -458.763094 
L 557.083147 -463.441027 
L 557.767171 -468.118961 
L 558.457469 -472.796894 
L 559.156657 -477.474828 
L 559.866148 -482.152761 
L 560.5866 -486.830695 
L 561.318141 -491.508628 
L 562.060239 -496.186562 
L 562.81127 -500.864495 
L 563.567919 -505.542429 
L 564.324668 -510.220362 
L 565.07359 -514.898296 
L 565.80459 -519.576229 
L 566.506129 -524.254163 
L 567.166298 -528.932096 
L 567.774078 -533.61003 
L 568.320519 -538.287963 
L 568.799636 -542.965897 
L 569.208891 -547.643831 
L 569.549202 -552.321764 
L 569.824533 -556.999698 
L 570.041192 -561.677631 
L 570.206973 -566.355565 
L 570.330302 -571.033498 
L 570.869698 -571.033498 
L 570.869698 -571.033498 
L 570.993027 -566.355565 
L 571.158808 -561.677631 
L 571.375467 -556.999698 
L 571.650798 -552.321764 
L 571.991109 -547.643831 
L 572.400364 -542.965897 
L 572.879481 -538.287963 
L 573.425922 -533.61003 
L 574.033702 -528.932096 
L 574.693871 -524.254163 
L 575.39541 -519.576229 
L 576.12641 -514.898296 
L 576.875332 -510.220362 
L 577.632081 -505.542429 
L 578.38873 -500.864495 
L 579.139761 -496.186562 
L 579.881859 -491.508628 
L 580.6134 -486.830695 
L 581.333852 -482.152761 
L 582.043343 -477.474828 
L 582.742531 -472.796894 
L 583.432829 -468.118961 
L 584.116853 -463.441027 
L 584.798859 -458.763094 
L 585.484892 -454.08516 
L 586.182404 -449.407227 
L 586.899271 -444.729293 
L 587.642297 -440.05136 
L 588.415501 -435.373426 
L 589.218563 -430.695492 
L 590.045867 -426.017559 
L 590.886411 -421.339625 
L 591.72474 -416.661692 
L 592.542784 -411.983758 
L 593.322309 -407.305825 
L 594.047557 -402.627891 
L 594.707634 -397.949958 
L 595.298258 -393.272024 
L 595.822618 -388.594091 
L 596.291286 -383.916157 
L 596.721238 -379.238224 
L 597.134188 -374.56029 
L 597.554485 -369.882357 
L 598.006817 -365.204423 
L 598.513949 -360.52649 
L 599.094638 -355.848556 
L 599.761842 -351.170623 
L 600.521265 -346.492689 
L 601.370297 -341.814756 
L 602.297403 -337.136822 
L 603.282035 -332.458889 
L 604.295184 -327.780955 
L 605.300662 -323.103022 
L 606.257183 -318.425088 
L 607.121182 -313.747154 
L 607.850203 -309.069221 
L 608.406516 -304.391287 
L 608.760519 -299.713354 
L 608.893419 -295.03542 
L 608.798755 -290.357487 
L 608.482458 -285.679553 
L 607.961407 -281.00162 
L 607.260675 -276.323686 
L 606.409898 -271.645753 
L 605.43937 -266.967819 
L 604.376466 -262.289886 
L 603.242937 -257.611952 
L 602.053408 -252.934019 
L 600.815215 -248.256085 
L 599.529431 -243.578152 
L 598.192803 -238.900218 
L 596.800164 -234.222285 
L 595.3469 -229.544351 
L 593.831112 -224.866418 
L 592.255184 -220.188484 
L 590.626666 -215.510551 
L 588.958417 -210.832617 
L 587.268119 -206.154683 
L 585.577264 -201.47675 
L 583.909776 -196.798816 
L 582.290432 -192.120883 
L 580.74321 -187.442949 
L 579.289731 -182.765016 
L 577.947926 -178.087082 
L 576.731038 -173.409149 
L 575.647061 -168.731215 
L 574.698645 -164.053282 
L 573.883454 -159.375348 
L 573.194897 -154.697415 
L 572.623116 -150.019481 
L 572.156074 -145.341548 
L 571.78063 -140.663614 
L 571.483458 -135.985681 
L 571.25178 -131.307747 
L 571.073854 -126.629814 
L 570.939262 -121.95188 
L 570.839018 -117.273947 
L 570.765556 -112.596013 
L 570.712631 -107.91808 
z
" style="stroke: #3f3f3f; stroke-width: 1.25"/>
    </defs>
    <g clip-path="url(#pe533d7ad09)">
     <use xlink:href="#md370d5d68e" x="0" y="720" style="fill: #3274a1; stroke: #3f3f3f; stroke-width: 1.25"/>
    </g>
   </g>
   <g id="PolyCollection_5">
    <defs>
     <path id="mc18ba89063" d="M 682.307312 -108.689625 
L 682.092688 -108.689625 
L 682.043022 -113.351972 
L 681.974628 -118.014318 
L 681.882026 -122.676665 
L 681.758548 -127.339012 
L 681.59615 -132.001359 
L 681.385209 -136.663705 
L 681.114348 -141.326052 
L 680.770312 -145.988399 
L 680.337981 -150.650746 
L 679.800561 -155.313092 
L 679.140041 -159.975439 
L 678.337948 -164.637786 
L 677.376444 -169.300133 
L 676.239732 -173.962479 
L 674.915733 -178.624826 
L 673.39791 -183.287173 
L 671.687077 -187.94952 
L 669.792975 -192.611866 
L 667.735367 -197.274213 
L 665.544384 -201.93656 
L 663.259896 -206.598907 
L 660.929784 -211.261253 
L 658.607122 -215.9236 
L 656.346475 -220.585947 
L 654.199696 -225.248294 
L 652.211788 -229.91064 
L 650.417427 -234.572987 
L 648.838717 -239.235334 
L 647.484571 -243.897681 
L 646.351834 -248.560027 
L 645.427931 -253.222374 
L 644.694545 -257.884721 
L 644.131618 -262.547068 
L 643.720917 -267.209414 
L 643.448536 -271.871761 
L 643.305961 -276.534108 
L 643.289677 -281.196454 
L 643.399595 -285.858801 
L 643.63685 -290.521148 
L 644.001552 -295.183495 
L 644.491019 -299.845841 
L 645.098788 -304.508188 
L 645.814444 -309.170535 
L 646.624091 -313.832882 
L 647.51115 -318.495228 
L 648.457201 -323.157575 
L 649.442674 -327.819922 
L 650.447368 -332.482269 
L 651.450933 -337.144615 
L 652.433466 -341.806962 
L 653.376408 -346.469309 
L 654.263754 -351.131656 
L 655.083472 -355.794002 
L 655.828911 -360.456349 
L 656.499879 -365.118696 
L 657.1031 -369.781043 
L 657.65186 -374.443389 
L 658.164741 -379.105736 
L 658.663555 -383.768083 
L 659.170679 -388.43043 
L 659.706171 -393.092776 
L 660.285089 -397.755123 
L 660.915468 -402.41747 
L 661.597326 -407.079817 
L 662.322959 -411.742163 
L 663.078512 -416.40451 
L 663.8466 -421.066857 
L 664.609478 -425.729204 
L 665.352167 -430.39155 
L 666.064878 -435.053897 
L 666.744281 -439.716244 
L 667.393392 -444.378591 
L 668.020218 -449.040937 
L 668.635559 -453.703284 
L 669.250543 -458.365631 
L 669.874482 -463.027978 
L 670.513496 -467.690324 
L 671.17008 -472.352671 
L 671.843533 -477.015018 
L 672.530937 -481.677365 
L 673.2283 -486.339711 
L 673.931458 -491.002058 
L 674.63653 -495.664405 
L 675.339862 -500.326752 
L 676.037585 -504.989098 
L 676.725044 -509.651445 
L 677.396355 -514.313792 
L 678.044286 -518.976139 
L 678.660574 -523.638485 
L 679.236601 -528.300832 
L 679.76431 -532.963179 
L 680.237134 -537.625526 
L 680.650757 -542.287872 
L 681.003553 -546.950219 
L 681.296654 -551.612566 
L 681.533662 -556.274913 
L 681.720097 -560.937259 
L 681.862707 -565.599606 
L 681.968757 -570.261953 
L 682.431243 -570.261953 
L 682.431243 -570.261953 
L 682.537293 -565.599606 
L 682.679903 -560.937259 
L 682.866338 -556.274913 
L 683.103346 -551.612566 
L 683.396447 -546.950219 
L 683.749243 -542.287872 
L 684.162866 -537.625526 
L 684.63569 -532.963179 
L 685.163399 -528.300832 
L 685.739426 -523.638485 
L 686.355714 -518.976139 
L 687.003645 -514.313792 
L 687.674956 -509.651445 
L 688.362415 -504.989098 
L 689.060138 -500.326752 
L 689.76347 -495.664405 
L 690.468542 -491.002058 
L 691.1717 -486.339711 
L 691.869063 -481.677365 
L 692.556467 -477.015018 
L 693.22992 -472.352671 
L 693.886504 -467.690324 
L 694.525518 -463.027978 
L 695.149457 -458.365631 
L 695.764441 -453.703284 
L 696.379782 -449.040937 
L 697.006608 -444.378591 
L 697.655719 -439.716244 
L 698.335122 -435.053897 
L 699.047833 -430.39155 
L 699.790522 -425.729204 
L 700.5534 -421.066857 
L 701.321488 -416.40451 
L 702.077041 -411.742163 
L 702.802674 -407.079817 
L 703.484532 -402.41747 
L 704.114911 -397.755123 
L 704.693829 -393.092776 
L 705.229321 -388.43043 
L 705.736445 -383.768083 
L 706.235259 -379.105736 
L 706.74814 -374.443389 
L 707.2969 -369.781043 
L 707.900121 -365.118696 
L 708.571089 -360.456349 
L 709.316528 -355.794002 
L 710.136246 -351.131656 
L 711.023592 -346.469309 
L 711.966534 -341.806962 
L 712.949067 -337.144615 
L 713.952632 -332.482269 
L 714.957326 -327.819922 
L 715.942799 -323.157575 
L 716.88885 -318.495228 
L 717.775909 -313.832882 
L 718.585556 -309.170535 
L 719.301212 -304.508188 
L 719.908981 -299.845841 
L 720.398448 -295.183495 
L 720.76315 -290.521148 
L 721.000405 -285.858801 
L 721.110323 -281.196454 
L 721.094039 -276.534108 
L 720.951464 -271.871761 
L 720.679083 -267.209414 
L 720.268382 -262.547068 
L 719.705455 -257.884721 
L 718.972069 -253.222374 
L 718.048166 -248.560027 
L 716.915429 -243.897681 
L 715.561283 -239.235334 
L 713.982573 -234.572987 
L 712.188212 -229.91064 
L 710.200304 -225.248294 
L 708.053525 -220.585947 
L 705.792878 -215.9236 
L 703.470216 -211.261253 
L 701.140104 -206.598907 
L 698.855616 -201.93656 
L 696.664633 -197.274213 
L 694.607025 -192.611866 
L 692.712923 -187.94952 
L 691.00209 -183.287173 
L 689.484267 -178.624826 
L 688.160268 -173.962479 
L 687.023556 -169.300133 
L 686.062052 -164.637786 
L 685.259959 -159.975439 
L 684.599439 -155.313092 
L 684.062019 -150.650746 
L 683.629688 -145.988399 
L 683.285652 -141.326052 
L 683.014791 -136.663705 
L 682.80385 -132.001359 
L 682.641452 -127.339012 
L 682.517974 -122.676665 
L 682.425372 -118.014318 
L 682.356978 -113.351972 
L 682.307312 -108.689625 
z
" style="stroke: #3f3f3f; stroke-width: 1.25"/>
    </defs>
    <g clip-path="url(#pe533d7ad09)">
     <use xlink:href="#mc18ba89063" x="0" y="720" style="fill: #3274a1; stroke: #3f3f3f; stroke-width: 1.25"/>
    </g>
   </g>
   <g id="PolyCollection_6">
    <defs>
     <path id="m8e5062c323" d="M 793.969004 -104.4 
L 793.630996 -104.4 
L 793.556599 -109.042649 
L 793.456731 -113.685298 
L 793.325409 -118.327948 
L 793.155964 -122.970597 
L 792.941015 -127.613246 
L 792.672393 -132.255895 
L 792.341001 -136.898545 
L 791.93663 -141.541194 
L 791.447778 -146.183843 
L 790.861526 -150.826492 
L 790.163575 -155.469142 
L 789.33851 -160.111791 
L 788.370372 -164.75444 
L 787.24357 -169.397089 
L 785.944131 -174.039739 
L 784.461241 -178.682388 
L 782.78897 -183.325037 
L 780.928042 -187.967686 
L 778.887469 -192.610336 
L 776.685823 -197.252985 
L 774.351917 -201.895634 
L 771.924671 -206.538283 
L 769.452009 -211.180933 
L 766.988707 -215.823582 
L 764.593305 -220.466231 
L 762.324313 -225.10888 
L 760.236136 -229.75153 
L 758.375228 -234.394179 
L 756.777008 -239.036828 
L 755.463971 -243.679477 
L 754.445283 -248.322127 
L 753.717843 -252.964776 
L 753.268605 -257.607425 
L 753.077681 -262.250074 
L 753.121648 -266.892724 
L 753.376479 -271.535373 
L 753.819604 -276.178022 
L 754.430845 -280.820671 
L 755.192195 -285.463321 
L 756.086658 -290.10597 
L 757.096556 -294.748619 
L 758.20179 -299.391268 
L 759.378521 -304.033918 
L 760.598633 -308.676567 
L 761.830187 -313.319216 
L 763.038854 -317.961865 
L 764.190179 -322.604515 
L 765.252362 -327.247164 
L 766.199176 -331.889813 
L 767.012594 -336.532462 
L 767.684756 -341.175112 
L 768.218948 -345.817761 
L 768.629402 -350.46041 
L 768.939907 -355.103059 
L 769.181349 -359.745709 
L 769.388502 -364.388358 
L 769.59649 -369.031007 
L 769.837383 -373.673656 
L 770.137356 -378.316306 
L 770.514712 -382.958955 
L 770.978918 -387.601604 
L 771.530643 -392.244253 
L 772.16264 -396.886903 
L 772.861272 -401.529552 
L 773.608458 -406.172201 
L 774.383853 -410.81485 
L 775.167082 -415.4575 
L 775.939889 -420.100149 
L 776.688003 -424.742798 
L 777.402551 -429.385447 
L 778.080795 -434.028097 
L 778.726061 -438.670746 
L 779.346819 -443.313395 
L 779.955024 -447.956044 
L 780.563982 -452.598694 
L 781.186131 -457.241343 
L 781.831112 -461.883992 
L 782.504489 -466.526641 
L 783.207264 -471.169291 
L 783.936197 -475.81194 
L 784.684738 -480.454589 
L 785.444273 -485.097238 
L 786.205366 -489.739888 
L 786.958747 -494.382537 
L 787.695901 -499.025186 
L 788.409265 -503.667835 
L 789.092151 -508.310485 
L 789.738537 -512.953134 
L 790.342926 -517.595783 
L 790.900342 -522.238432 
L 791.406518 -526.881082 
L 791.858218 -531.523731 
L 792.253586 -536.16638 
L 792.592429 -540.809029 
L 792.876338 -545.451679 
L 793.108602 -550.094328 
L 793.293934 -554.736977 
L 793.438053 -559.379626 
L 793.547198 -564.022276 
L 794.052802 -564.022276 
L 794.052802 -564.022276 
L 794.161947 -559.379626 
L 794.306066 -554.736977 
L 794.491398 -550.094328 
L 794.723662 -545.451679 
L 795.007571 -540.809029 
L 795.346414 -536.16638 
L 795.741782 -531.523731 
L 796.193482 -526.881082 
L 796.699658 -522.238432 
L 797.257074 -517.595783 
L 797.861463 -512.953134 
L 798.507849 -508.310485 
L 799.190735 -503.667835 
L 799.904099 -499.025186 
L 800.641253 -494.382537 
L 801.394634 -489.739888 
L 802.155727 -485.097238 
L 802.915262 -480.454589 
L 803.663803 -475.81194 
L 804.392736 -471.169291 
L 805.095511 -466.526641 
L 805.768888 -461.883992 
L 806.413869 -457.241343 
L 807.036018 -452.598694 
L 807.644976 -447.956044 
L 808.253181 -443.313395 
L 808.873939 -438.670746 
L 809.519205 -434.028097 
L 810.197449 -429.385447 
L 810.911997 -424.742798 
L 811.660111 -420.100149 
L 812.432918 -415.4575 
L 813.216147 -410.81485 
L 813.991542 -406.172201 
L 814.738728 -401.529552 
L 815.43736 -396.886903 
L 816.069357 -392.244253 
L 816.621082 -387.601604 
L 817.085288 -382.958955 
L 817.462644 -378.316306 
L 817.762617 -373.673656 
L 818.00351 -369.031007 
L 818.211498 -364.388358 
L 818.418651 -359.745709 
L 818.660093 -355.103059 
L 818.970598 -350.46041 
L 819.381052 -345.817761 
L 819.915244 -341.175112 
L 820.587406 -336.532462 
L 821.400824 -331.889813 
L 822.347638 -327.247164 
L 823.409821 -322.604515 
L 824.561146 -317.961865 
L 825.769813 -313.319216 
L 827.001367 -308.676567 
L 828.221479 -304.033918 
L 829.39821 -299.391268 
L 830.503444 -294.748619 
L 831.513342 -290.10597 
L 832.407805 -285.463321 
L 833.169155 -280.820671 
L 833.780396 -276.178022 
L 834.223521 -271.535373 
L 834.478352 -266.892724 
L 834.522319 -262.250074 
L 834.331395 -257.607425 
L 833.882157 -252.964776 
L 833.154717 -248.322127 
L 832.136029 -243.679477 
L 830.822992 -239.036828 
L 829.224772 -234.394179 
L 827.363864 -229.75153 
L 825.275687 -225.10888 
L 823.006695 -220.466231 
L 820.611293 -215.823582 
L 818.147991 -211.180933 
L 815.675329 -206.538283 
L 813.248083 -201.895634 
L 810.914177 -197.252985 
L 808.712531 -192.610336 
L 806.671958 -187.967686 
L 804.81103 -183.325037 
L 803.138759 -178.682388 
L 801.655869 -174.039739 
L 800.35643 -169.397089 
L 799.229628 -164.75444 
L 798.26149 -160.111791 
L 797.436425 -155.469142 
L 796.738474 -150.826492 
L 796.152222 -146.183843 
L 795.66337 -141.541194 
L 795.258999 -136.898545 
L 794.927607 -132.255895 
L 794.658985 -127.613246 
L 794.444036 -122.970597 
L 794.274591 -118.327948 
L 794.143269 -113.685298 
L 794.043401 -109.042649 
L 793.969004 -104.4 
z
" style="stroke: #3f3f3f; stroke-width: 1.25"/>
    </defs>
    <g clip-path="url(#pe533d7ad09)">
     <use xlink:href="#m8e5062c323" x="0" y="720" style="fill: #3274a1; stroke: #3f3f3f; stroke-width: 1.25"/>
    </g>
   </g>
   <g id="PolyCollection_7">
    <defs>
     <path id="ma79abd6d91" d="M 905.593874 -104.463029 
L 905.206126 -104.463029 
L 905.116754 -109.095007 
L 904.994472 -113.726986 
L 904.830556 -118.358964 
L 904.615076 -122.990943 
L 904.337022 -127.622922 
L 903.984502 -132.2549 
L 903.545026 -136.886879 
L 903.005887 -141.518857 
L 902.354629 -146.150836 
L 901.579598 -150.782815 
L 900.670539 -155.414793 
L 899.619195 -160.046772 
L 898.419837 -164.67875 
L 897.069662 -169.310729 
L 895.569026 -173.942708 
L 893.921514 -178.574686 
L 892.133915 -183.206665 
L 890.21622 -187.838643 
L 888.181773 -192.470622 
L 886.047685 -197.102601 
L 883.83553 -201.734579 
L 881.5722 -206.366558 
L 879.290671 -210.998536 
L 877.030318 -215.630515 
L 874.836405 -220.262494 
L 872.758462 -224.894472 
L 870.847476 -229.526451 
L 869.152102 -234.158429 
L 867.714384 -238.790408 
L 866.565703 -243.422387 
L 865.723708 -248.054365 
L 865.190884 -252.686344 
L 864.955082 -257.318323 
L 864.991941 -261.950301 
L 865.268704 -266.58228 
L 865.74862 -271.214258 
L 866.395019 -275.846237 
L 867.174272 -280.478216 
L 868.057169 -285.110194 
L 869.018699 -289.742173 
L 870.036619 -294.374151 
L 871.08951 -299.00613 
L 872.155079 -303.638109 
L 873.209368 -308.270087 
L 874.227183 -312.902066 
L 875.183741 -317.534044 
L 876.057153 -322.166023 
L 876.831185 -326.798002 
L 877.497649 -331.42998 
L 878.057905 -336.061959 
L 878.523138 -340.693937 
L 878.913336 -345.325916 
L 879.255132 -349.957895 
L 879.578845 -354.589873 
L 879.915157 -359.221852 
L 880.291882 -363.85383 
L 880.731225 -368.485809 
L 881.247838 -373.117788 
L 881.84783 -377.749766 
L 882.528754 -382.381745 
L 883.280466 -387.013723 
L 884.086671 -391.645702 
L 884.926904 -396.277681 
L 885.778723 -400.909659 
L 886.619912 -405.541638 
L 887.430536 -410.173616 
L 888.19474 -414.805595 
L 888.902174 -419.437574 
L 889.548929 -424.069552 
L 890.137886 -428.701531 
L 890.678345 -433.333509 
L 891.184929 -437.965488 
L 891.675807 -442.597467 
L 892.170447 -447.229445 
L 892.687179 -451.861424 
L 893.240963 -456.493403 
L 893.841689 -461.125381 
L 894.493264 -465.75736 
L 895.193586 -470.389338 
L 895.935313 -475.021317 
L 896.707213 -479.653296 
L 897.49577 -484.285274 
L 898.286747 -488.917253 
L 899.066465 -493.549231 
L 899.822658 -498.18121 
L 900.544913 -502.813189 
L 901.224768 -507.445167 
L 901.855616 -512.077146 
L 902.432545 -516.709124 
L 902.952206 -521.341103 
L 903.41276 -525.973082 
L 903.813864 -530.60506 
L 904.156686 -535.237039 
L 904.443844 -539.869017 
L 904.679274 -544.500996 
L 904.867982 -549.132975 
L 905.015712 -553.764953 
L 905.12857 -558.396932 
L 905.212645 -563.02891 
L 905.587355 -563.02891 
L 905.587355 -563.02891 
L 905.67143 -558.396932 
L 905.784288 -553.764953 
L 905.932018 -549.132975 
L 906.120726 -544.500996 
L 906.356156 -539.869017 
L 906.643314 -535.237039 
L 906.986136 -530.60506 
L 907.38724 -525.973082 
L 907.847794 -521.341103 
L 908.367455 -516.709124 
L 908.944384 -512.077146 
L 909.575232 -507.445167 
L 910.255087 -502.813189 
L 910.977342 -498.18121 
L 911.733535 -493.549231 
L 912.513253 -488.917253 
L 913.30423 -484.285274 
L 914.092787 -479.653296 
L 914.864687 -475.021317 
L 915.606414 -470.389338 
L 916.306736 -465.75736 
L 916.958311 -461.125381 
L 917.559037 -456.493403 
L 918.112821 -451.861424 
L 918.629553 -447.229445 
L 919.124193 -442.597467 
L 919.615071 -437.965488 
L 920.121655 -433.333509 
L 920.662114 -428.701531 
L 921.251071 -424.069552 
L 921.897826 -419.437574 
L 922.60526 -414.805595 
L 923.369464 -410.173616 
L 924.180088 -405.541638 
L 925.021277 -400.909659 
L 925.873096 -396.277681 
L 926.713329 -391.645702 
L 927.519534 -387.013723 
L 928.271246 -382.381745 
L 928.95217 -377.749766 
L 929.552162 -373.117788 
L 930.068775 -368.485809 
L 930.508118 -363.85383 
L 930.884843 -359.221852 
L 931.221155 -354.589873 
L 931.544868 -349.957895 
L 931.886664 -345.325916 
L 932.276862 -340.693937 
L 932.742095 -336.061959 
L 933.302351 -331.42998 
L 933.968815 -326.798002 
L 934.742847 -322.166023 
L 935.616259 -317.534044 
L 936.572817 -312.902066 
L 937.590632 -308.270087 
L 938.644921 -303.638109 
L 939.71049 -299.00613 
L 940.763381 -294.374151 
L 941.781301 -289.742173 
L 942.742831 -285.110194 
L 943.625728 -280.478216 
L 944.404981 -275.846237 
L 945.05138 -271.214258 
L 945.531296 -266.58228 
L 945.808059 -261.950301 
L 945.844918 -257.318323 
L 945.609116 -252.686344 
L 945.076292 -248.054365 
L 944.234297 -243.422387 
L 943.085616 -238.790408 
L 941.647898 -234.158429 
L 939.952524 -229.526451 
L 938.041538 -224.894472 
L 935.963595 -220.262494 
L 933.769682 -215.630515 
L 931.509329 -210.998536 
L 929.2278 -206.366558 
L 926.96447 -201.734579 
L 924.752315 -197.102601 
L 922.618227 -192.470622 
L 920.58378 -187.838643 
L 918.666085 -183.206665 
L 916.878486 -178.574686 
L 915.230974 -173.942708 
L 913.730338 -169.310729 
L 912.380163 -164.67875 
L 911.180805 -160.046772 
L 910.129461 -155.414793 
L 909.220402 -150.782815 
L 908.445371 -146.150836 
L 907.794113 -141.518857 
L 907.254974 -136.886879 
L 906.815498 -132.2549 
L 906.462978 -127.622922 
L 906.184924 -122.990943 
L 905.969444 -118.358964 
L 905.805528 -113.726986 
L 905.683246 -109.095007 
L 905.593874 -104.463029 
z
" style="stroke: #3f3f3f; stroke-width: 1.25"/>
    </defs>
    <g clip-path="url(#pe533d7ad09)">
     <use xlink:href="#ma79abd6d91" x="0" y="720" style="fill: #3274a1; stroke: #3f3f3f; stroke-width: 1.25"/>
    </g>
   </g>
   <g id="PolyCollection_8">
    <defs>
     <path id="m1e5f1bf6e2" d="M 1017.252037 -104.71589 
L 1016.747963 -104.71589 
L 1016.631266 -109.34276 
L 1016.472058 -113.96963 
L 1016.259721 -118.5965 
L 1015.982639 -123.223371 
L 1015.628564 -127.850241 
L 1015.185071 -132.477111 
L 1014.640066 -137.103982 
L 1013.982341 -141.730852 
L 1013.202107 -146.357722 
L 1012.291496 -150.984593 
L 1011.245 -155.611463 
L 1010.059805 -160.238333 
L 1008.736007 -164.865203 
L 1007.276694 -169.492074 
L 1005.687885 -174.118944 
L 1003.978365 -178.745814 
L 1002.159475 -183.372685 
L 1000.244944 -187.999555 
L 998.250879 -192.626425 
L 996.195982 -197.253296 
L 994.102019 -201.880166 
L 991.994468 -206.507036 
L 989.903158 -211.133907 
L 987.862589 -215.760777 
L 985.911627 -220.387647 
L 984.092257 -225.014517 
L 982.447256 -229.641388 
L 981.016865 -234.268258 
L 979.834842 -238.895128 
L 978.924484 -243.521999 
L 978.295418 -248.148869 
L 977.941869 -252.775739 
L 977.842965 -257.40261 
L 977.965188 -262.02948 
L 978.266685 -266.65635 
L 978.702672 -271.28322 
L 979.230926 -275.910091 
L 979.816315 -280.536961 
L 980.433547 -285.163831 
L 981.067742 -289.790702 
L 981.712938 -294.417572 
L 982.369109 -299.044442 
L 983.038573 -303.671313 
L 983.722696 -308.298183 
L 984.419661 -312.925053 
L 985.123693 -317.551923 
L 985.825757 -322.178794 
L 986.515387 -326.805664 
L 987.18307 -331.432534 
L 987.822584 -336.059405 
L 988.43273 -340.686275 
L 989.018142 -345.313145 
L 989.589055 -349.940016 
L 990.160127 -354.566886 
L 990.748573 -359.193756 
L 991.371941 -363.820626 
L 992.045849 -368.447497 
L 992.781996 -373.074367 
L 993.586639 -377.701237 
L 994.459666 -382.328108 
L 995.394327 -386.954978 
L 996.377592 -391.581848 
L 997.391106 -396.208719 
L 998.412652 -400.835589 
L 999.41804 -405.462459 
L 1000.383281 -410.089329 
L 1001.286895 -414.7162 
L 1002.112115 -419.34307 
L 1002.848741 -423.96994 
L 1003.49437 -428.596811 
L 1004.054757 -433.223681 
L 1004.543192 -437.850551 
L 1004.978911 -442.477422 
L 1005.384735 -447.104292 
L 1005.784294 -451.731162 
L 1006.199249 -456.358032 
L 1006.646967 -460.984903 
L 1007.138958 -465.611773 
L 1007.680247 -470.238643 
L 1008.269667 -474.865514 
L 1008.90087 -479.492384 
L 1009.563772 -484.119254 
L 1010.246103 -488.746125 
L 1010.93481 -493.372995 
L 1011.617135 -497.999865 
L 1012.28133 -502.626735 
L 1012.917042 -507.253606 
L 1013.515492 -511.880476 
L 1014.069536 -516.507346 
L 1014.573714 -521.134217 
L 1015.024302 -525.761087 
L 1015.419376 -530.387957 
L 1015.758832 -535.014828 
L 1016.044323 -539.641698 
L 1016.27909 -544.268568 
L 1016.467665 -548.895438 
L 1016.615496 -553.522309 
L 1016.728518 -558.149179 
L 1016.812735 -562.776049 
L 1017.187265 -562.776049 
L 1017.187265 -562.776049 
L 1017.271482 -558.149179 
L 1017.384504 -553.522309 
L 1017.532335 -548.895438 
L 1017.72091 -544.268568 
L 1017.955677 -539.641698 
L 1018.241168 -535.014828 
L 1018.580624 -530.387957 
L 1018.975698 -525.761087 
L 1019.426286 -521.134217 
L 1019.930464 -516.507346 
L 1020.484508 -511.880476 
L 1021.082958 -507.253606 
L 1021.71867 -502.626735 
L 1022.382865 -497.999865 
L 1023.06519 -493.372995 
L 1023.753897 -488.746125 
L 1024.436228 -484.119254 
L 1025.09913 -479.492384 
L 1025.730333 -474.865514 
L 1026.319753 -470.238643 
L 1026.861042 -465.611773 
L 1027.353033 -460.984903 
L 1027.800751 -456.358032 
L 1028.215706 -451.731162 
L 1028.615265 -447.104292 
L 1029.021089 -442.477422 
L 1029.456808 -437.850551 
L 1029.945243 -433.223681 
L 1030.50563 -428.596811 
L 1031.151259 -423.96994 
L 1031.887885 -419.34307 
L 1032.713105 -414.7162 
L 1033.616719 -410.089329 
L 1034.58196 -405.462459 
L 1035.587348 -400.835589 
L 1036.608894 -396.208719 
L 1037.622408 -391.581848 
L 1038.605673 -386.954978 
L 1039.540334 -382.328108 
L 1040.413361 -377.701237 
L 1041.218004 -373.074367 
L 1041.954151 -368.447497 
L 1042.628059 -363.820626 
L 1043.251427 -359.193756 
L 1043.839873 -354.566886 
L 1044.410945 -349.940016 
L 1044.981858 -345.313145 
L 1045.56727 -340.686275 
L 1046.177416 -336.059405 
L 1046.81693 -331.432534 
L 1047.484613 -326.805664 
L 1048.174243 -322.178794 
L 1048.876307 -317.551923 
L 1049.580339 -312.925053 
L 1050.277304 -308.298183 
L 1050.961427 -303.671313 
L 1051.630891 -299.044442 
L 1052.287062 -294.417572 
L 1052.932258 -289.790702 
L 1053.566453 -285.163831 
L 1054.183685 -280.536961 
L 1054.769074 -275.910091 
L 1055.297328 -271.28322 
L 1055.733315 -266.65635 
L 1056.034812 -262.02948 
L 1056.157035 -257.40261 
L 1056.058131 -252.775739 
L 1055.704582 -248.148869 
L 1055.075516 -243.521999 
L 1054.165158 -238.895128 
L 1052.983135 -234.268258 
L 1051.552744 -229.641388 
L 1049.907743 -225.014517 
L 1048.088373 -220.387647 
L 1046.137411 -215.760777 
L 1044.096842 -211.133907 
L 1042.005532 -206.507036 
L 1039.897981 -201.880166 
L 1037.804018 -197.253296 
L 1035.749121 -192.626425 
L 1033.755056 -187.999555 
L 1031.840525 -183.372685 
L 1030.021635 -178.745814 
L 1028.312115 -174.118944 
L 1026.723306 -169.492074 
L 1025.263993 -164.865203 
L 1023.940195 -160.238333 
L 1022.755 -155.611463 
L 1021.708504 -150.984593 
L 1020.797893 -146.357722 
L 1020.017659 -141.730852 
L 1019.359934 -137.103982 
L 1018.814929 -132.477111 
L 1018.371436 -127.850241 
L 1018.017361 -123.223371 
L 1017.740279 -118.5965 
L 1017.527942 -113.96963 
L 1017.368734 -109.34276 
L 1017.252037 -104.71589 
z
" style="stroke: #3f3f3f; stroke-width: 1.25"/>
    </defs>
    <g clip-path="url(#pe533d7ad09)">
     <use xlink:href="#m1e5f1bf6e2" x="0" y="720" style="fill: #3274a1; stroke: #3f3f3f; stroke-width: 1.25"/>
    </g>
   </g>
   <g id="PolyCollection_9">
    <defs>
     <path id="ma339b185e9" d="M 1128.84178 -107.111488 
L 1128.35822 -107.111488 
L 1128.243808 -111.689963 
L 1128.087306 -116.268437 
L 1127.87836 -120.846911 
L 1127.605784 -125.425386 
L 1127.257935 -130.00386 
L 1126.823134 -134.582334 
L 1126.290103 -139.160809 
L 1125.648373 -143.739283 
L 1124.888632 -148.317757 
L 1124.003003 -152.896232 
L 1122.985224 -157.474706 
L 1121.830738 -162.053181 
L 1120.536688 -166.631655 
L 1119.101847 -171.210129 
L 1117.526547 -175.788604 
L 1115.812688 -180.367078 
L 1113.96397 -184.945552 
L 1111.986471 -189.524027 
L 1109.889645 -194.102501 
L 1107.687747 -198.680976 
L 1105.401503 -203.25945 
L 1103.059718 -207.837924 
L 1100.700374 -212.416399 
L 1098.370726 -216.994873 
L 1096.125976 -221.573347 
L 1094.026289 -226.151822 
L 1092.132234 -230.730296 
L 1090.499082 -235.308771 
L 1089.170734 -239.887245 
L 1088.174285 -244.465719 
L 1087.516276 -249.044194 
L 1087.181497 -253.622668 
L 1087.134792 -258.201142 
L 1087.325757 -262.779617 
L 1087.695602 -267.358091 
L 1088.184999 -271.936565 
L 1088.741477 -276.51504 
L 1089.325037 -281.093514 
L 1089.911087 -285.671989 
L 1090.49038 -290.250463 
L 1091.066334 -294.828937 
L 1091.650606 -299.407412 
L 1092.258095 -303.985886 
L 1092.902474 -308.56436 
L 1093.593071 -313.142835 
L 1094.333475 -317.721309 
L 1095.121762 -322.299784 
L 1095.951919 -326.878258 
L 1096.815857 -331.456732 
L 1097.705416 -336.035207 
L 1098.613908 -340.613681 
L 1099.536965 -345.192155 
L 1100.472664 -349.77063 
L 1101.421056 -354.349104 
L 1102.383335 -358.927579 
L 1103.360894 -363.506053 
L 1104.354492 -368.084527 
L 1105.36368 -372.663002 
L 1106.386521 -377.241476 
L 1107.419583 -381.81995 
L 1108.458062 -386.398425 
L 1109.495907 -390.976899 
L 1110.525835 -395.555373 
L 1111.539224 -400.133848 
L 1112.525983 -404.712322 
L 1113.474592 -409.290797 
L 1114.37254 -413.869271 
L 1115.207311 -418.447745 
L 1115.967911 -423.02622 
L 1116.646732 -427.604694 
L 1117.241375 -432.183168 
L 1117.755942 -436.761643 
L 1118.201416 -441.340117 
L 1118.594869 -445.918592 
L 1118.957568 -450.497066 
L 1119.312268 -455.07554 
L 1119.680241 -459.654015 
L 1120.078585 -464.232489 
L 1120.518334 -468.810963 
L 1121.003649 -473.389438 
L 1121.532114 -477.967912 
L 1122.095946 -482.546387 
L 1122.683747 -487.124861 
L 1123.282375 -491.703335 
L 1123.878596 -496.28181 
L 1124.46029 -500.860284 
L 1125.01714 -505.438758 
L 1125.540878 -510.017233 
L 1126.025237 -514.595707 
L 1126.465763 -519.174181 
L 1126.859621 -523.752656 
L 1127.205458 -528.33113 
L 1127.503319 -532.909605 
L 1127.754591 -537.488079 
L 1127.961897 -542.066553 
L 1128.12893 -546.645028 
L 1128.260199 -551.223502 
L 1128.360707 -555.801976 
L 1128.435613 -560.380451 
L 1128.764387 -560.380451 
L 1128.764387 -560.380451 
L 1128.839293 -555.801976 
L 1128.939801 -551.223502 
L 1129.07107 -546.645028 
L 1129.238103 -542.066553 
L 1129.445409 -537.488079 
L 1129.696681 -532.909605 
L 1129.994542 -528.33113 
L 1130.340379 -523.752656 
L 1130.734237 -519.174181 
L 1131.174763 -514.595707 
L 1131.659122 -510.017233 
L 1132.18286 -505.438758 
L 1132.73971 -500.860284 
L 1133.321404 -496.28181 
L 1133.917625 -491.703335 
L 1134.516253 -487.124861 
L 1135.104054 -482.546387 
L 1135.667886 -477.967912 
L 1136.196351 -473.389438 
L 1136.681666 -468.810963 
L 1137.121415 -464.232489 
L 1137.519759 -459.654015 
L 1137.887732 -455.07554 
L 1138.242432 -450.497066 
L 1138.605131 -445.918592 
L 1138.998584 -441.340117 
L 1139.444058 -436.761643 
L 1139.958625 -432.183168 
L 1140.553268 -427.604694 
L 1141.232089 -423.02622 
L 1141.992689 -418.447745 
L 1142.82746 -413.869271 
L 1143.725408 -409.290797 
L 1144.674017 -404.712322 
L 1145.660776 -400.133848 
L 1146.674165 -395.555373 
L 1147.704093 -390.976899 
L 1148.741938 -386.398425 
L 1149.780417 -381.81995 
L 1150.813479 -377.241476 
L 1151.83632 -372.663002 
L 1152.845508 -368.084527 
L 1153.839106 -363.506053 
L 1154.816665 -358.927579 
L 1155.778944 -354.349104 
L 1156.727336 -349.77063 
L 1157.663035 -345.192155 
L 1158.586092 -340.613681 
L 1159.494584 -336.035207 
L 1160.384143 -331.456732 
L 1161.248081 -326.878258 
L 1162.078238 -322.299784 
L 1162.866525 -317.721309 
L 1163.606929 -313.142835 
L 1164.297526 -308.56436 
L 1164.941905 -303.985886 
L 1165.549394 -299.407412 
L 1166.133666 -294.828937 
L 1166.70962 -290.250463 
L 1167.288913 -285.671989 
L 1167.874963 -281.093514 
L 1168.458523 -276.51504 
L 1169.015001 -271.936565 
L 1169.504398 -267.358091 
L 1169.874243 -262.779617 
L 1170.065208 -258.201142 
L 1170.018503 -253.622668 
L 1169.683724 -249.044194 
L 1169.025715 -244.465719 
L 1168.029266 -239.887245 
L 1166.700918 -235.308771 
L 1165.067766 -230.730296 
L 1163.173711 -226.151822 
L 1161.074024 -221.573347 
L 1158.829274 -216.994873 
L 1156.499626 -212.416399 
L 1154.140282 -207.837924 
L 1151.798497 -203.25945 
L 1149.512253 -198.680976 
L 1147.310355 -194.102501 
L 1145.213529 -189.524027 
L 1143.23603 -184.945552 
L 1141.387312 -180.367078 
L 1139.673453 -175.788604 
L 1138.098153 -171.210129 
L 1136.663312 -166.631655 
L 1135.369262 -162.053181 
L 1134.214776 -157.474706 
L 1133.196997 -152.896232 
L 1132.311368 -148.317757 
L 1131.551627 -143.739283 
L 1130.909897 -139.160809 
L 1130.376866 -134.582334 
L 1129.942065 -130.00386 
L 1129.594216 -125.425386 
L 1129.32164 -120.846911 
L 1129.112694 -116.268437 
L 1128.956192 -111.689963 
L 1128.84178 -107.111488 
z
" style="stroke: #3f3f3f; stroke-width: 1.25"/>
    </defs>
    <g clip-path="url(#pe533d7ad09)">
     <use xlink:href="#ma339b185e9" x="0" y="720" style="fill: #3274a1; stroke: #3f3f3f; stroke-width: 1.25"/>
    </g>
   </g>
   <g id="PolyCollection_10">
    <defs>
     <path id="me4d594d64a" d="M 1240.433288 -108.181989 
L 1239.966712 -108.181989 
L 1239.860721 -112.572436 
L 1239.717462 -116.962883 
L 1239.528202 -121.35333 
L 1239.283466 -125.743776 
L 1238.973207 -130.134223 
L 1238.586939 -134.52467 
L 1238.113823 -138.915117 
L 1237.542697 -143.305563 
L 1236.862092 -147.69601 
L 1236.060275 -152.086457 
L 1235.125417 -156.476904 
L 1234.045916 -160.86735 
L 1232.810942 -165.257797 
L 1231.411163 -169.648244 
L 1229.839632 -174.038691 
L 1228.092738 -178.429137 
L 1226.171164 -182.819584 
L 1224.08078 -187.210031 
L 1221.83346 -191.600478 
L 1219.447815 -195.990924 
L 1216.949817 -200.381371 
L 1214.373277 -204.771818 
L 1211.760043 -209.162265 
L 1209.159726 -213.552711 
L 1206.628714 -217.943158 
L 1204.22827 -222.333605 
L 1202.021576 -226.724052 
L 1200.069796 -231.114498 
L 1198.427448 -235.504945 
L 1197.13758 -239.895392 
L 1196.227463 -244.285839 
L 1195.705502 -248.676285 
L 1195.56 -253.066732 
L 1195.760131 -257.457179 
L 1196.259093 -261.847626 
L 1196.999034 -266.238072 
L 1197.916988 -270.628519 
L 1198.950896 -275.018966 
L 1200.044806 -279.409413 
L 1201.152559 -283.799859 
L 1202.239644 -288.190306 
L 1203.283269 -292.580753 
L 1204.271031 -296.9712 
L 1205.198772 -301.361646 
L 1206.068198 -305.752093 
L 1206.884755 -310.14254 
L 1207.656013 -314.532987 
L 1208.390636 -318.923433 
L 1209.097817 -323.31388 
L 1209.787016 -327.704327 
L 1210.467798 -332.094774 
L 1211.149664 -336.48522 
L 1211.841801 -340.875667 
L 1212.552763 -345.266114 
L 1213.290095 -349.656561 
L 1214.059957 -354.047007 
L 1214.866754 -358.437454 
L 1215.712812 -362.827901 
L 1216.598128 -367.218348 
L 1217.52023 -371.608794 
L 1218.474175 -375.999241 
L 1219.452713 -380.389688 
L 1220.44659 -384.780135 
L 1221.444946 -389.170581 
L 1222.435748 -393.561028 
L 1223.406197 -397.951475 
L 1224.343126 -402.341922 
L 1225.233424 -406.732368 
L 1226.06461 -411.122815 
L 1226.825642 -415.513262 
L 1227.508 -419.903709 
L 1228.106964 -424.294156 
L 1228.622883 -428.684602 
L 1229.062128 -433.075049 
L 1229.437416 -437.465496 
L 1229.767259 -441.855943 
L 1230.07448 -446.246389 
L 1230.383911 -450.636836 
L 1230.719617 -455.027283 
L 1231.102092 -459.41773 
L 1231.545877 -463.808176 
L 1232.058002 -468.198623 
L 1232.637444 -472.58907 
L 1233.275633 -476.979517 
L 1233.957832 -481.369963 
L 1234.66511 -485.76041 
L 1235.376577 -490.150857 
L 1236.071542 -494.541304 
L 1236.731358 -498.93175 
L 1237.34078 -503.322197 
L 1237.888771 -507.712644 
L 1238.368772 -512.103091 
L 1238.778509 -516.493537 
L 1239.119448 -520.883984 
L 1239.396021 -525.274431 
L 1239.614753 -529.664878 
L 1239.783391 -534.055324 
L 1239.910121 -538.445771 
L 1240.002932 -542.836218 
L 1240.397068 -542.836218 
L 1240.397068 -542.836218 
L 1240.489879 -538.445771 
L 1240.616609 -534.055324 
L 1240.785247 -529.664878 
L 1241.003979 -525.274431 
L 1241.280552 -520.883984 
L 1241.621491 -516.493537 
L 1242.031228 -512.103091 
L 1242.511229 -507.712644 
L 1243.05922 -503.322197 
L 1243.668642 -498.93175 
L 1244.328458 -494.541304 
L 1245.023423 -490.150857 
L 1245.73489 -485.76041 
L 1246.442168 -481.369963 
L 1247.124367 -476.979517 
L 1247.762556 -472.58907 
L 1248.341998 -468.198623 
L 1248.854123 -463.808176 
L 1249.297908 -459.41773 
L 1249.680383 -455.027283 
L 1250.016089 -450.636836 
L 1250.32552 -446.246389 
L 1250.632741 -441.855943 
L 1250.962584 -437.465496 
L 1251.337872 -433.075049 
L 1251.777117 -428.684602 
L 1252.293036 -424.294156 
L 1252.892 -419.903709 
L 1253.574358 -415.513262 
L 1254.33539 -411.122815 
L 1255.166576 -406.732368 
L 1256.056874 -402.341922 
L 1256.993803 -397.951475 
L 1257.964252 -393.561028 
L 1258.955054 -389.170581 
L 1259.95341 -384.780135 
L 1260.947287 -380.389688 
L 1261.925825 -375.999241 
L 1262.87977 -371.608794 
L 1263.801872 -367.218348 
L 1264.687188 -362.827901 
L 1265.533246 -358.437454 
L 1266.340043 -354.047007 
L 1267.109905 -349.656561 
L 1267.847237 -345.266114 
L 1268.558199 -340.875667 
L 1269.250336 -336.48522 
L 1269.932202 -332.094774 
L 1270.612984 -327.704327 
L 1271.302183 -323.31388 
L 1272.009364 -318.923433 
L 1272.743987 -314.532987 
L 1273.515245 -310.14254 
L 1274.331802 -305.752093 
L 1275.201228 -301.361646 
L 1276.128969 -296.9712 
L 1277.116731 -292.580753 
L 1278.160356 -288.190306 
L 1279.247441 -283.799859 
L 1280.355194 -279.409413 
L 1281.449104 -275.018966 
L 1282.483012 -270.628519 
L 1283.400966 -266.238072 
L 1284.140907 -261.847626 
L 1284.639869 -257.457179 
L 1284.84 -253.066732 
L 1284.694498 -248.676285 
L 1284.172537 -244.285839 
L 1283.26242 -239.895392 
L 1281.972552 -235.504945 
L 1280.330204 -231.114498 
L 1278.378424 -226.724052 
L 1276.17173 -222.333605 
L 1273.771286 -217.943158 
L 1271.240274 -213.552711 
L 1268.639957 -209.162265 
L 1266.026723 -204.771818 
L 1263.450183 -200.381371 
L 1260.952185 -195.990924 
L 1258.56654 -191.600478 
L 1256.31922 -187.210031 
L 1254.228836 -182.819584 
L 1252.307262 -178.429137 
L 1250.560368 -174.038691 
L 1248.988837 -169.648244 
L 1247.589058 -165.257797 
L 1246.354084 -160.86735 
L 1245.274583 -156.476904 
L 1244.339725 -152.086457 
L 1243.537908 -147.69601 
L 1242.857303 -143.305563 
L 1242.286177 -138.915117 
L 1241.813061 -134.52467 
L 1241.426793 -130.134223 
L 1241.116534 -125.743776 
L 1240.871798 -121.35333 
L 1240.682538 -116.962883 
L 1240.539279 -112.572436 
L 1240.433288 -108.181989 
z
" style="stroke: #3f3f3f; stroke-width: 1.25"/>
    </defs>
    <g clip-path="url(#pe533d7ad09)">
     <use xlink:href="#me4d594d64a" x="0" y="720" style="fill: #3274a1; stroke: #3f3f3f; stroke-width: 1.25"/>
    </g>
   </g>
   <g id="matplotlib.axis_1">
    <g id="xtick_1">
     <g id="line2d_1">
      <defs>
       <path id="mfced476376" d="M 0 0 
L 0 3.5 
" style="stroke: #000000; stroke-width: 0.8"/>
      </defs>
      <g>
       <use xlink:href="#mfced476376" x="235.8" y="640.8" style="stroke: #000000; stroke-width: 0.8"/>
      </g>
     </g>
     <g id="text_1">
      <!-- 0 -->
      <g transform="translate(232.61875 655.398438) scale(0.1 -0.1)">
       <defs>
        <path id="DejaVuSans-30" d="M 2034 4250 
Q 1547 4250 1301 3770 
Q 1056 3291 1056 2328 
Q 1056 1369 1301 889 
Q 1547 409 2034 409 
Q 2525 409 2770 889 
Q 3016 1369 3016 2328 
Q 3016 3291 2770 3770 
Q 2525 4250 2034 4250 
z
M 2034 4750 
Q 2819 4750 3233 4129 
Q 3647 3509 3647 2328 
Q 3647 1150 3233 529 
Q 2819 -91 2034 -91 
Q 1250 -91 836 529 
Q 422 1150 422 2328 
Q 422 3509 836 4129 
Q 1250 4750 2034 4750 
z
" transform="scale(0.015625)"/>
       </defs>
       <use xlink:href="#DejaVuSans-30"/>
      </g>
     </g>
    </g>
    <g id="xtick_2">
     <g id="line2d_2">
      <g>
       <use xlink:href="#mfced476376" x="347.4" y="640.8" style="stroke: #000000; stroke-width: 0.8"/>
      </g>
     </g>
     <g id="text_2">
      <!-- 1 -->
      <g transform="translate(344.21875 655.398438) scale(0.1 -0.1)">
       <defs>
        <path id="DejaVuSans-31" d="M 794 531 
L 1825 531 
L 1825 4091 
L 703 3866 
L 703 4441 
L 1819 4666 
L 2450 4666 
L 2450 531 
L 3481 531 
L 3481 0 
L 794 0 
L 794 531 
z
" transform="scale(0.015625)"/>
       </defs>
       <use xlink:href="#DejaVuSans-31"/>
      </g>
     </g>
    </g>
    <g id="xtick_3">
     <g id="line2d_3">
      <g>
       <use xlink:href="#mfced476376" x="459" y="640.8" style="stroke: #000000; stroke-width: 0.8"/>
      </g>
     </g>
     <g id="text_3">
      <!-- 2 -->
      <g transform="translate(455.81875 655.398438) scale(0.1 -0.1)">
       <defs>
        <path id="DejaVuSans-32" d="M 1228 531 
L 3431 531 
L 3431 0 
L 469 0 
L 469 531 
Q 828 903 1448 1529 
Q 2069 2156 2228 2338 
Q 2531 2678 2651 2914 
Q 2772 3150 2772 3378 
Q 2772 3750 2511 3984 
Q 2250 4219 1831 4219 
Q 1534 4219 1204 4116 
Q 875 4013 500 3803 
L 500 4441 
Q 881 4594 1212 4672 
Q 1544 4750 1819 4750 
Q 2544 4750 2975 4387 
Q 3406 4025 3406 3419 
Q 3406 3131 3298 2873 
Q 3191 2616 2906 2266 
Q 2828 2175 2409 1742 
Q 1991 1309 1228 531 
z
" transform="scale(0.015625)"/>
       </defs>
       <use xlink:href="#DejaVuSans-32"/>
      </g>
     </g>
    </g>
    <g id="xtick_4">
     <g id="line2d_4">
      <g>
       <use xlink:href="#mfced476376" x="570.6" y="640.8" style="stroke: #000000; stroke-width: 0.8"/>
      </g>
     </g>
     <g id="text_4">
      <!-- 3 -->
      <g transform="translate(567.41875 655.398438) scale(0.1 -0.1)">
       <defs>
        <path id="DejaVuSans-33" d="M 2597 2516 
Q 3050 2419 3304 2112 
Q 3559 1806 3559 1356 
Q 3559 666 3084 287 
Q 2609 -91 1734 -91 
Q 1441 -91 1130 -33 
Q 819 25 488 141 
L 488 750 
Q 750 597 1062 519 
Q 1375 441 1716 441 
Q 2309 441 2620 675 
Q 2931 909 2931 1356 
Q 2931 1769 2642 2001 
Q 2353 2234 1838 2234 
L 1294 2234 
L 1294 2753 
L 1863 2753 
Q 2328 2753 2575 2939 
Q 2822 3125 2822 3475 
Q 2822 3834 2567 4026 
Q 2313 4219 1838 4219 
Q 1578 4219 1281 4162 
Q 984 4106 628 3988 
L 628 4550 
Q 988 4650 1302 4700 
Q 1616 4750 1894 4750 
Q 2613 4750 3031 4423 
Q 3450 4097 3450 3541 
Q 3450 3153 3228 2886 
Q 3006 2619 2597 2516 
z
" transform="scale(0.015625)"/>
       </defs>
       <use xlink:href="#DejaVuSans-33"/>
      </g>
     </g>
    </g>
    <g id="xtick_5">
     <g id="line2d_5">
      <g>
       <use xlink:href="#mfced476376" x="682.2" y="640.8" style="stroke: #000000; stroke-width: 0.8"/>
      </g>
     </g>
     <g id="text_5">
      <!-- 4 -->
      <g transform="translate(679.01875 655.398438) scale(0.1 -0.1)">
       <defs>
        <path id="DejaVuSans-34" d="M 2419 4116 
L 825 1625 
L 2419 1625 
L 2419 4116 
z
M 2253 4666 
L 3047 4666 
L 3047 1625 
L 3713 1625 
L 3713 1100 
L 3047 1100 
L 3047 0 
L 2419 0 
L 2419 1100 
L 313 1100 
L 313 1709 
L 2253 4666 
z
" transform="scale(0.015625)"/>
       </defs>
       <use xlink:href="#DejaVuSans-34"/>
      </g>
     </g>
    </g>
    <g id="xtick_6">
     <g id="line2d_6">
      <g>
       <use xlink:href="#mfced476376" x="793.8" y="640.8" style="stroke: #000000; stroke-width: 0.8"/>
      </g>
     </g>
     <g id="text_6">
      <!-- 5 -->
      <g transform="translate(790.61875 655.398438) scale(0.1 -0.1)">
       <defs>
        <path id="DejaVuSans-35" d="M 691 4666 
L 3169 4666 
L 3169 4134 
L 1269 4134 
L 1269 2991 
Q 1406 3038 1543 3061 
Q 1681 3084 1819 3084 
Q 2600 3084 3056 2656 
Q 3513 2228 3513 1497 
Q 3513 744 3044 326 
Q 2575 -91 1722 -91 
Q 1428 -91 1123 -41 
Q 819 9 494 109 
L 494 744 
Q 775 591 1075 516 
Q 1375 441 1709 441 
Q 2250 441 2565 725 
Q 2881 1009 2881 1497 
Q 2881 1984 2565 2268 
Q 2250 2553 1709 2553 
Q 1456 2553 1204 2497 
Q 953 2441 691 2322 
L 691 4666 
z
" transform="scale(0.015625)"/>
       </defs>
       <use xlink:href="#DejaVuSans-35"/>
      </g>
     </g>
    </g>
    <g id="xtick_7">
     <g id="line2d_7">
      <g>
       <use xlink:href="#mfced476376" x="905.4" y="640.8" style="stroke: #000000; stroke-width: 0.8"/>
      </g>
     </g>
     <g id="text_7">
      <!-- 6 -->
      <g transform="translate(902.21875 655.398438) scale(0.1 -0.1)">
       <defs>
        <path id="DejaVuSans-36" d="M 2113 2584 
Q 1688 2584 1439 2293 
Q 1191 2003 1191 1497 
Q 1191 994 1439 701 
Q 1688 409 2113 409 
Q 2538 409 2786 701 
Q 3034 994 3034 1497 
Q 3034 2003 2786 2293 
Q 2538 2584 2113 2584 
z
M 3366 4563 
L 3366 3988 
Q 3128 4100 2886 4159 
Q 2644 4219 2406 4219 
Q 1781 4219 1451 3797 
Q 1122 3375 1075 2522 
Q 1259 2794 1537 2939 
Q 1816 3084 2150 3084 
Q 2853 3084 3261 2657 
Q 3669 2231 3669 1497 
Q 3669 778 3244 343 
Q 2819 -91 2113 -91 
Q 1303 -91 875 529 
Q 447 1150 447 2328 
Q 447 3434 972 4092 
Q 1497 4750 2381 4750 
Q 2619 4750 2861 4703 
Q 3103 4656 3366 4563 
z
" transform="scale(0.015625)"/>
       </defs>
       <use xlink:href="#DejaVuSans-36"/>
      </g>
     </g>
    </g>
    <g id="xtick_8">
     <g id="line2d_8">
      <g>
       <use xlink:href="#mfced476376" x="1017" y="640.8" style="stroke: #000000; stroke-width: 0.8"/>
      </g>
     </g>
     <g id="text_8">
      <!-- 7 -->
      <g transform="translate(1013.81875 655.398438) scale(0.1 -0.1)">
       <defs>
        <path id="DejaVuSans-37" d="M 525 4666 
L 3525 4666 
L 3525 4397 
L 1831 0 
L 1172 0 
L 2766 4134 
L 525 4134 
L 525 4666 
z
" transform="scale(0.015625)"/>
       </defs>
       <use xlink:href="#DejaVuSans-37"/>
      </g>
     </g>
    </g>
    <g id="xtick_9">
     <g id="line2d_9">
      <g>
       <use xlink:href="#mfced476376" x="1128.6" y="640.8" style="stroke: #000000; stroke-width: 0.8"/>
      </g>
     </g>
     <g id="text_9">
      <!-- 8 -->
      <g transform="translate(1125.41875 655.398438) scale(0.1 -0.1)">
       <defs>
        <path id="DejaVuSans-38" d="M 2034 2216 
Q 1584 2216 1326 1975 
Q 1069 1734 1069 1313 
Q 1069 891 1326 650 
Q 1584 409 2034 409 
Q 2484 409 2743 651 
Q 3003 894 3003 1313 
Q 3003 1734 2745 1975 
Q 2488 2216 2034 2216 
z
M 1403 2484 
Q 997 2584 770 2862 
Q 544 3141 544 3541 
Q 544 4100 942 4425 
Q 1341 4750 2034 4750 
Q 2731 4750 3128 4425 
Q 3525 4100 3525 3541 
Q 3525 3141 3298 2862 
Q 3072 2584 2669 2484 
Q 3125 2378 3379 2068 
Q 3634 1759 3634 1313 
Q 3634 634 3220 271 
Q 2806 -91 2034 -91 
Q 1263 -91 848 271 
Q 434 634 434 1313 
Q 434 1759 690 2068 
Q 947 2378 1403 2484 
z
M 1172 3481 
Q 1172 3119 1398 2916 
Q 1625 2713 2034 2713 
Q 2441 2713 2670 2916 
Q 2900 3119 2900 3481 
Q 2900 3844 2670 4047 
Q 2441 4250 2034 4250 
Q 1625 4250 1398 4047 
Q 1172 3844 1172 3481 
z
" transform="scale(0.015625)"/>
       </defs>
       <use xlink:href="#DejaVuSans-38"/>
      </g>
     </g>
    </g>
    <g id="xtick_10">
     <g id="line2d_10">
      <g>
       <use xlink:href="#mfced476376" x="1240.2" y="640.8" style="stroke: #000000; stroke-width: 0.8"/>
      </g>
     </g>
     <g id="text_10">
      <!-- 9 -->
      <g transform="translate(1237.01875 655.398438) scale(0.1 -0.1)">
       <defs>
        <path id="DejaVuSans-39" d="M 703 97 
L 703 672 
Q 941 559 1184 500 
Q 1428 441 1663 441 
Q 2288 441 2617 861 
Q 2947 1281 2994 2138 
Q 2813 1869 2534 1725 
Q 2256 1581 1919 1581 
Q 1219 1581 811 2004 
Q 403 2428 403 3163 
Q 403 3881 828 4315 
Q 1253 4750 1959 4750 
Q 2769 4750 3195 4129 
Q 3622 3509 3622 2328 
Q 3622 1225 3098 567 
Q 2575 -91 1691 -91 
Q 1453 -91 1209 -44 
Q 966 3 703 97 
z
M 1959 2075 
Q 2384 2075 2632 2365 
Q 2881 2656 2881 3163 
Q 2881 3666 2632 3958 
Q 2384 4250 1959 4250 
Q 1534 4250 1286 3958 
Q 1038 3666 1038 3163 
Q 1038 2656 1286 2365 
Q 1534 2075 1959 2075 
z
" transform="scale(0.015625)"/>
       </defs>
       <use xlink:href="#DejaVuSans-39"/>
      </g>
     </g>
    </g>
    <g id="text_11">
     <!-- iteration -->
     <g transform="translate(716.877344 669.076563) scale(0.1 -0.1)">
      <defs>
       <path id="DejaVuSans-69" d="M 603 3500 
L 1178 3500 
L 1178 0 
L 603 0 
L 603 3500 
z
M 603 4863 
L 1178 4863 
L 1178 4134 
L 603 4134 
L 603 4863 
z
" transform="scale(0.015625)"/>
       <path id="DejaVuSans-74" d="M 1172 4494 
L 1172 3500 
L 2356 3500 
L 2356 3053 
L 1172 3053 
L 1172 1153 
Q 1172 725 1289 603 
Q 1406 481 1766 481 
L 2356 481 
L 2356 0 
L 1766 0 
Q 1100 0 847 248 
Q 594 497 594 1153 
L 594 3053 
L 172 3053 
L 172 3500 
L 594 3500 
L 594 4494 
L 1172 4494 
z
" transform="scale(0.015625)"/>
       <path id="DejaVuSans-65" d="M 3597 1894 
L 3597 1613 
L 953 1613 
Q 991 1019 1311 708 
Q 1631 397 2203 397 
Q 2534 397 2845 478 
Q 3156 559 3463 722 
L 3463 178 
Q 3153 47 2828 -22 
Q 2503 -91 2169 -91 
Q 1331 -91 842 396 
Q 353 884 353 1716 
Q 353 2575 817 3079 
Q 1281 3584 2069 3584 
Q 2775 3584 3186 3129 
Q 3597 2675 3597 1894 
z
M 3022 2063 
Q 3016 2534 2758 2815 
Q 2500 3097 2075 3097 
Q 1594 3097 1305 2825 
Q 1016 2553 972 2059 
L 3022 2063 
z
" transform="scale(0.015625)"/>
       <path id="DejaVuSans-72" d="M 2631 2963 
Q 2534 3019 2420 3045 
Q 2306 3072 2169 3072 
Q 1681 3072 1420 2755 
Q 1159 2438 1159 1844 
L 1159 0 
L 581 0 
L 581 3500 
L 1159 3500 
L 1159 2956 
Q 1341 3275 1631 3429 
Q 1922 3584 2338 3584 
Q 2397 3584 2469 3576 
Q 2541 3569 2628 3553 
L 2631 2963 
z
" transform="scale(0.015625)"/>
       <path id="DejaVuSans-61" d="M 2194 1759 
Q 1497 1759 1228 1600 
Q 959 1441 959 1056 
Q 959 750 1161 570 
Q 1363 391 1709 391 
Q 2188 391 2477 730 
Q 2766 1069 2766 1631 
L 2766 1759 
L 2194 1759 
z
M 3341 1997 
L 3341 0 
L 2766 0 
L 2766 531 
Q 2569 213 2275 61 
Q 1981 -91 1556 -91 
Q 1019 -91 701 211 
Q 384 513 384 1019 
Q 384 1609 779 1909 
Q 1175 2209 1959 2209 
L 2766 2209 
L 2766 2266 
Q 2766 2663 2505 2880 
Q 2244 3097 1772 3097 
Q 1472 3097 1187 3025 
Q 903 2953 641 2809 
L 641 3341 
Q 956 3463 1253 3523 
Q 1550 3584 1831 3584 
Q 2591 3584 2966 3190 
Q 3341 2797 3341 1997 
z
" transform="scale(0.015625)"/>
       <path id="DejaVuSans-6f" d="M 1959 3097 
Q 1497 3097 1228 2736 
Q 959 2375 959 1747 
Q 959 1119 1226 758 
Q 1494 397 1959 397 
Q 2419 397 2687 759 
Q 2956 1122 2956 1747 
Q 2956 2369 2687 2733 
Q 2419 3097 1959 3097 
z
M 1959 3584 
Q 2709 3584 3137 3096 
Q 3566 2609 3566 1747 
Q 3566 888 3137 398 
Q 2709 -91 1959 -91 
Q 1206 -91 779 398 
Q 353 888 353 1747 
Q 353 2609 779 3096 
Q 1206 3584 1959 3584 
z
" transform="scale(0.015625)"/>
       <path id="DejaVuSans-6e" d="M 3513 2113 
L 3513 0 
L 2938 0 
L 2938 2094 
Q 2938 2591 2744 2837 
Q 2550 3084 2163 3084 
Q 1697 3084 1428 2787 
Q 1159 2491 1159 1978 
L 1159 0 
L 581 0 
L 581 3500 
L 1159 3500 
L 1159 2956 
Q 1366 3272 1645 3428 
Q 1925 3584 2291 3584 
Q 2894 3584 3203 3211 
Q 3513 2838 3513 2113 
z
" transform="scale(0.015625)"/>
      </defs>
      <use xlink:href="#DejaVuSans-69"/>
      <use xlink:href="#DejaVuSans-74" x="27.783203"/>
      <use xlink:href="#DejaVuSans-65" x="66.992188"/>
      <use xlink:href="#DejaVuSans-72" x="128.515625"/>
      <use xlink:href="#DejaVuSans-61" x="169.628906"/>
      <use xlink:href="#DejaVuSans-74" x="230.908203"/>
      <use xlink:href="#DejaVuSans-69" x="270.117188"/>
      <use xlink:href="#DejaVuSans-6f" x="297.900391"/>
      <use xlink:href="#DejaVuSans-6e" x="359.082031"/>
     </g>
    </g>
   </g>
   <g id="matplotlib.axis_2">
    <g id="ytick_1">
     <g id="line2d_11">
      <defs>
       <path id="m9f476c5f89" d="M 0 0 
L -3.5 0 
" style="stroke: #000000; stroke-width: 0.8"/>
      </defs>
      <g>
       <use xlink:href="#m9f476c5f89" x="180" y="612.061947" style="stroke: #000000; stroke-width: 0.8"/>
      </g>
     </g>
     <g id="text_12">
      <!-- 0.2 -->
      <g transform="translate(148.717187 615.861165) scale(0.1 -0.1)">
       <defs>
        <path id="DejaVuSans-2212" d="M 678 2272 
L 4684 2272 
L 4684 1741 
L 678 1741 
L 678 2272 
z
" transform="scale(0.015625)"/>
        <path id="DejaVuSans-2e" d="M 684 794 
L 1344 794 
L 1344 0 
L 684 0 
L 684 794 
z
" transform="scale(0.015625)"/>
       </defs>
       <use xlink:href="#DejaVuSans-2212"/>
       <use xlink:href="#DejaVuSans-30" x="83.789062"/>
       <use xlink:href="#DejaVuSans-2e" x="147.412109"/>
       <use xlink:href="#DejaVuSans-32" x="179.199219"/>
      </g>
     </g>
    </g>
    <g id="ytick_2">
     <g id="line2d_12">
      <g>
       <use xlink:href="#m9f476c5f89" x="180" y="537.908967" style="stroke: #000000; stroke-width: 0.8"/>
      </g>
     </g>
     <g id="text_13">
      <!-- 0.0 -->
      <g transform="translate(157.096875 541.708186) scale(0.1 -0.1)">
       <use xlink:href="#DejaVuSans-30"/>
       <use xlink:href="#DejaVuSans-2e" x="63.623047"/>
       <use xlink:href="#DejaVuSans-30" x="95.410156"/>
      </g>
     </g>
    </g>
    <g id="ytick_3">
     <g id="line2d_13">
      <g>
       <use xlink:href="#m9f476c5f89" x="180" y="463.755987" style="stroke: #000000; stroke-width: 0.8"/>
      </g>
     </g>
     <g id="text_14">
      <!-- 0.2 -->
      <g transform="translate(157.096875 467.555206) scale(0.1 -0.1)">
       <use xlink:href="#DejaVuSans-30"/>
       <use xlink:href="#DejaVuSans-2e" x="63.623047"/>
       <use xlink:href="#DejaVuSans-32" x="95.410156"/>
      </g>
     </g>
    </g>
    <g id="ytick_4">
     <g id="line2d_14">
      <g>
       <use xlink:href="#m9f476c5f89" x="180" y="389.603007" style="stroke: #000000; stroke-width: 0.8"/>
      </g>
     </g>
     <g id="text_15">
      <!-- 0.4 -->
      <g transform="translate(157.096875 393.402226) scale(0.1 -0.1)">
       <use xlink:href="#DejaVuSans-30"/>
       <use xlink:href="#DejaVuSans-2e" x="63.623047"/>
       <use xlink:href="#DejaVuSans-34" x="95.410156"/>
      </g>
     </g>
    </g>
    <g id="ytick_5">
     <g id="line2d_15">
      <g>
       <use xlink:href="#m9f476c5f89" x="180" y="315.450027" style="stroke: #000000; stroke-width: 0.8"/>
      </g>
     </g>
     <g id="text_16">
      <!-- 0.6 -->
      <g transform="translate(157.096875 319.249246) scale(0.1 -0.1)">
       <use xlink:href="#DejaVuSans-30"/>
       <use xlink:href="#DejaVuSans-2e" x="63.623047"/>
       <use xlink:href="#DejaVuSans-36" x="95.410156"/>
      </g>
     </g>
    </g>
    <g id="ytick_6">
     <g id="line2d_16">
      <g>
       <use xlink:href="#m9f476c5f89" x="180" y="241.297047" style="stroke: #000000; stroke-width: 0.8"/>
      </g>
     </g>
     <g id="text_17">
      <!-- 0.8 -->
      <g transform="translate(157.096875 245.096266) scale(0.1 -0.1)">
       <use xlink:href="#DejaVuSans-30"/>
       <use xlink:href="#DejaVuSans-2e" x="63.623047"/>
       <use xlink:href="#DejaVuSans-38" x="95.410156"/>
      </g>
     </g>
    </g>
    <g id="ytick_7">
     <g id="line2d_17">
      <g>
       <use xlink:href="#m9f476c5f89" x="180" y="167.144067" style="stroke: #000000; stroke-width: 0.8"/>
      </g>
     </g>
     <g id="text_18">
      <!-- 1.0 -->
      <g transform="translate(157.096875 170.943286) scale(0.1 -0.1)">
       <use xlink:href="#DejaVuSans-31"/>
       <use xlink:href="#DejaVuSans-2e" x="63.623047"/>
       <use xlink:href="#DejaVuSans-30" x="95.410156"/>
      </g>
     </g>
    </g>
    <g id="ytick_8">
     <g id="line2d_18">
      <g>
       <use xlink:href="#m9f476c5f89" x="180" y="92.991088" style="stroke: #000000; stroke-width: 0.8"/>
      </g>
     </g>
     <g id="text_19">
      <!-- 1.2 -->
      <g transform="translate(157.096875 96.790306) scale(0.1 -0.1)">
       <use xlink:href="#DejaVuSans-31"/>
       <use xlink:href="#DejaVuSans-2e" x="63.623047"/>
       <use xlink:href="#DejaVuSans-32" x="95.410156"/>
      </g>
     </g>
    </g>
    <g id="text_20">
     <!-- cosine similarity -->
     <g transform="translate(142.6375 404.307031) rotate(-90) scale(0.1 -0.1)">
      <defs>
       <path id="DejaVuSans-63" d="M 3122 3366 
L 3122 2828 
Q 2878 2963 2633 3030 
Q 2388 3097 2138 3097 
Q 1578 3097 1268 2742 
Q 959 2388 959 1747 
Q 959 1106 1268 751 
Q 1578 397 2138 397 
Q 2388 397 2633 464 
Q 2878 531 3122 666 
L 3122 134 
Q 2881 22 2623 -34 
Q 2366 -91 2075 -91 
Q 1284 -91 818 406 
Q 353 903 353 1747 
Q 353 2603 823 3093 
Q 1294 3584 2113 3584 
Q 2378 3584 2631 3529 
Q 2884 3475 3122 3366 
z
" transform="scale(0.015625)"/>
       <path id="DejaVuSans-73" d="M 2834 3397 
L 2834 2853 
Q 2591 2978 2328 3040 
Q 2066 3103 1784 3103 
Q 1356 3103 1142 2972 
Q 928 2841 928 2578 
Q 928 2378 1081 2264 
Q 1234 2150 1697 2047 
L 1894 2003 
Q 2506 1872 2764 1633 
Q 3022 1394 3022 966 
Q 3022 478 2636 193 
Q 2250 -91 1575 -91 
Q 1294 -91 989 -36 
Q 684 19 347 128 
L 347 722 
Q 666 556 975 473 
Q 1284 391 1588 391 
Q 1994 391 2212 530 
Q 2431 669 2431 922 
Q 2431 1156 2273 1281 
Q 2116 1406 1581 1522 
L 1381 1569 
Q 847 1681 609 1914 
Q 372 2147 372 2553 
Q 372 3047 722 3315 
Q 1072 3584 1716 3584 
Q 2034 3584 2315 3537 
Q 2597 3491 2834 3397 
z
" transform="scale(0.015625)"/>
       <path id="DejaVuSans-20" transform="scale(0.015625)"/>
       <path id="DejaVuSans-6d" d="M 3328 2828 
Q 3544 3216 3844 3400 
Q 4144 3584 4550 3584 
Q 5097 3584 5394 3201 
Q 5691 2819 5691 2113 
L 5691 0 
L 5113 0 
L 5113 2094 
Q 5113 2597 4934 2840 
Q 4756 3084 4391 3084 
Q 3944 3084 3684 2787 
Q 3425 2491 3425 1978 
L 3425 0 
L 2847 0 
L 2847 2094 
Q 2847 2600 2669 2842 
Q 2491 3084 2119 3084 
Q 1678 3084 1418 2786 
Q 1159 2488 1159 1978 
L 1159 0 
L 581 0 
L 581 3500 
L 1159 3500 
L 1159 2956 
Q 1356 3278 1631 3431 
Q 1906 3584 2284 3584 
Q 2666 3584 2933 3390 
Q 3200 3197 3328 2828 
z
" transform="scale(0.015625)"/>
       <path id="DejaVuSans-6c" d="M 603 4863 
L 1178 4863 
L 1178 0 
L 603 0 
L 603 4863 
z
" transform="scale(0.015625)"/>
       <path id="DejaVuSans-79" d="M 2059 -325 
Q 1816 -950 1584 -1140 
Q 1353 -1331 966 -1331 
L 506 -1331 
L 506 -850 
L 844 -850 
Q 1081 -850 1212 -737 
Q 1344 -625 1503 -206 
L 1606 56 
L 191 3500 
L 800 3500 
L 1894 763 
L 2988 3500 
L 3597 3500 
L 2059 -325 
z
" transform="scale(0.015625)"/>
      </defs>
      <use xlink:href="#DejaVuSans-63"/>
      <use xlink:href="#DejaVuSans-6f" x="54.980469"/>
      <use xlink:href="#DejaVuSans-73" x="116.162109"/>
      <use xlink:href="#DejaVuSans-69" x="168.261719"/>
      <use xlink:href="#DejaVuSans-6e" x="196.044922"/>
      <use xlink:href="#DejaVuSans-65" x="259.423828"/>
      <use xlink:href="#DejaVuSans-20" x="320.947266"/>
      <use xlink:href="#DejaVuSans-73" x="352.734375"/>
      <use xlink:href="#DejaVuSans-69" x="404.833984"/>
      <use xlink:href="#DejaVuSans-6d" x="432.617188"/>
      <use xlink:href="#DejaVuSans-69" x="530.029297"/>
      <use xlink:href="#DejaVuSans-6c" x="557.8125"/>
      <use xlink:href="#DejaVuSans-61" x="585.595703"/>
      <use xlink:href="#DejaVuSans-72" x="646.875"/>
      <use xlink:href="#DejaVuSans-69" x="687.988281"/>
      <use xlink:href="#DejaVuSans-74" x="715.771484"/>
      <use xlink:href="#DejaVuSans-79" x="754.980469"/>
     </g>
    </g>
   </g>
   <g id="line2d_19">
    <path d="M 235.8 529.524861 
L 235.8 167.144023 
" clip-path="url(#pe533d7ad09)" style="fill: none; stroke: #3f3f3f; stroke-width: 1.875; stroke-linecap: square"/>
   </g>
   <g id="line2d_20">
    <path d="M 235.8 368.024413 
L 235.8 258.891558 
" clip-path="url(#pe533d7ad09)" style="fill: none; stroke: #3f3f3f; stroke-width: 5.625; stroke-linecap: square"/>
   </g>
   <g id="line2d_21">
    <path d="M 235.8 316.603901 
" clip-path="url(#pe533d7ad09)" style="fill: none; stroke: #3f3f3f; stroke-width: 1.5; stroke-linecap: square"/>
    <defs>
     <path id="m319e69a1f4" d="M 2.34375 0 
L -2.34375 -0 
" style="stroke: #ffffff; stroke-width: 1.125"/>
    </defs>
    <g clip-path="url(#pe533d7ad09)">
     <use xlink:href="#m319e69a1f4" x="235.8" y="316.603901" style="fill: #ffffff; stroke: #ffffff; stroke-width: 1.125"/>
    </g>
   </g>
   <g id="line2d_22">
    <path d="M 347.4 548.971569 
L 347.4 167.144023 
" clip-path="url(#pe533d7ad09)" style="fill: none; stroke: #3f3f3f; stroke-width: 1.875; stroke-linecap: square"/>
   </g>
   <g id="line2d_23">
    <path d="M 347.4 420.536442 
L 347.4 298.945618 
" clip-path="url(#pe533d7ad09)" style="fill: none; stroke: #3f3f3f; stroke-width: 5.625; stroke-linecap: square"/>
   </g>
   <g id="line2d_24">
    <path d="M 347.4 366.485773 
" clip-path="url(#pe533d7ad09)" style="fill: none; stroke: #3f3f3f; stroke-width: 1.5; stroke-linecap: square"/>
    <g clip-path="url(#pe533d7ad09)">
     <use xlink:href="#m319e69a1f4" x="347.4" y="366.485773" style="fill: #ffffff; stroke: #ffffff; stroke-width: 1.125"/>
    </g>
   </g>
   <g id="line2d_25">
    <path d="M 459 537.530435 
L 459 204.894021 
" clip-path="url(#pe533d7ad09)" style="fill: none; stroke: #3f3f3f; stroke-width: 1.875; stroke-linecap: square"/>
   </g>
   <g id="line2d_26">
    <path d="M 459 438.083629 
L 459 319.681981 
" clip-path="url(#pe533d7ad09)" style="fill: none; stroke: #3f3f3f; stroke-width: 5.625; stroke-linecap: square"/>
   </g>
   <g id="line2d_27">
    <path d="M 459 380.402637 
" clip-path="url(#pe533d7ad09)" style="fill: none; stroke: #3f3f3f; stroke-width: 1.5; stroke-linecap: square"/>
    <g clip-path="url(#pe533d7ad09)">
     <use xlink:href="#m319e69a1f4" x="459" y="380.402637" style="fill: #ffffff; stroke: #ffffff; stroke-width: 1.125"/>
    </g>
   </g>
   <g id="line2d_28">
    <path d="M 570.6 556.154402 
L 570.6 204.894021 
" clip-path="url(#pe533d7ad09)" style="fill: none; stroke: #3f3f3f; stroke-width: 1.875; stroke-linecap: square"/>
   </g>
   <g id="line2d_29">
    <path d="M 570.6 450.116963 
L 570.6 331.783574 
" clip-path="url(#pe533d7ad09)" style="fill: none; stroke: #3f3f3f; stroke-width: 5.625; stroke-linecap: square"/>
   </g>
   <g id="line2d_30">
    <path d="M 570.6 402.038579 
" clip-path="url(#pe533d7ad09)" style="fill: none; stroke: #3f3f3f; stroke-width: 1.5; stroke-linecap: square"/>
    <g clip-path="url(#pe533d7ad09)">
     <use xlink:href="#m319e69a1f4" x="570.6" y="402.038579" style="fill: #ffffff; stroke: #ffffff; stroke-width: 1.125"/>
    </g>
   </g>
   <g id="line2d_31">
    <path d="M 682.2 556.154402 
L 682.2 204.894021 
" clip-path="url(#pe533d7ad09)" style="fill: none; stroke: #3f3f3f; stroke-width: 1.875; stroke-linecap: square"/>
   </g>
   <g id="line2d_32">
    <path d="M 682.2 461.5466 
L 682.2 341.347841 
" clip-path="url(#pe533d7ad09)" style="fill: none; stroke: #3f3f3f; stroke-width: 5.625; stroke-linecap: square"/>
   </g>
   <g id="line2d_33">
    <path d="M 682.2 411.286754 
" clip-path="url(#pe533d7ad09)" style="fill: none; stroke: #3f3f3f; stroke-width: 1.5; stroke-linecap: square"/>
    <g clip-path="url(#pe533d7ad09)">
     <use xlink:href="#m319e69a1f4" x="682.2" y="411.286754" style="fill: #ffffff; stroke: #ffffff; stroke-width: 1.125"/>
    </g>
   </g>
   <g id="line2d_34">
    <path d="M 793.8 559.84494 
L 793.8 211.732785 
" clip-path="url(#pe533d7ad09)" style="fill: none; stroke: #3f3f3f; stroke-width: 1.875; stroke-linecap: square"/>
   </g>
   <g id="line2d_35">
    <path d="M 793.8 467.819089 
L 793.8 345.179497 
" clip-path="url(#pe533d7ad09)" style="fill: none; stroke: #3f3f3f; stroke-width: 5.625; stroke-linecap: square"/>
   </g>
   <g id="line2d_36">
    <path d="M 793.8 421.050992 
" clip-path="url(#pe533d7ad09)" style="fill: none; stroke: #3f3f3f; stroke-width: 1.5; stroke-linecap: square"/>
    <g clip-path="url(#pe533d7ad09)">
     <use xlink:href="#m319e69a1f4" x="793.8" y="421.050992" style="fill: #ffffff; stroke: #ffffff; stroke-width: 1.125"/>
    </g>
   </g>
   <g id="line2d_37">
    <path d="M 905.4 559.84494 
L 905.4 212.663122 
" clip-path="url(#pe533d7ad09)" style="fill: none; stroke: #3f3f3f; stroke-width: 1.875; stroke-linecap: square"/>
   </g>
   <g id="line2d_38">
    <path d="M 905.4 472.628635 
L 905.4 350.976444 
" clip-path="url(#pe533d7ad09)" style="fill: none; stroke: #3f3f3f; stroke-width: 5.625; stroke-linecap: square"/>
   </g>
   <g id="line2d_39">
    <path d="M 905.4 423.05699 
" clip-path="url(#pe533d7ad09)" style="fill: none; stroke: #3f3f3f; stroke-width: 1.5; stroke-linecap: square"/>
    <g clip-path="url(#pe533d7ad09)">
     <use xlink:href="#m319e69a1f4" x="905.4" y="423.05699" style="fill: #ffffff; stroke: #ffffff; stroke-width: 1.125"/>
    </g>
   </g>
   <g id="line2d_40">
    <path d="M 1017 559.84494 
L 1017 212.663122 
" clip-path="url(#pe533d7ad09)" style="fill: none; stroke: #3f3f3f; stroke-width: 1.875; stroke-linecap: square"/>
   </g>
   <g id="line2d_41">
    <path d="M 1017 472.899551 
L 1017 354.137618 
" clip-path="url(#pe533d7ad09)" style="fill: none; stroke: #3f3f3f; stroke-width: 5.625; stroke-linecap: square"/>
   </g>
   <g id="line2d_42">
    <path d="M 1017 422.511524 
" clip-path="url(#pe533d7ad09)" style="fill: none; stroke: #3f3f3f; stroke-width: 1.5; stroke-linecap: square"/>
    <g clip-path="url(#pe533d7ad09)">
     <use xlink:href="#m319e69a1f4" x="1017" y="422.511524" style="fill: #ffffff; stroke: #ffffff; stroke-width: 1.125"/>
    </g>
   </g>
   <g id="line2d_43">
    <path d="M 1128.6 559.84494 
L 1128.6 212.663122 
" clip-path="url(#pe533d7ad09)" style="fill: none; stroke: #3f3f3f; stroke-width: 1.875; stroke-linecap: square"/>
   </g>
   <g id="line2d_44">
    <path d="M 1128.6 473.451426 
L 1128.6 365.269258 
" clip-path="url(#pe533d7ad09)" style="fill: none; stroke: #3f3f3f; stroke-width: 5.625; stroke-linecap: square"/>
   </g>
   <g id="line2d_45">
    <path d="M 1128.6 424.652676 
" clip-path="url(#pe533d7ad09)" style="fill: none; stroke: #3f3f3f; stroke-width: 1.5; stroke-linecap: square"/>
    <g clip-path="url(#pe533d7ad09)">
     <use xlink:href="#m319e69a1f4" x="1128.6" y="424.652676" style="fill: #ffffff; stroke: #ffffff; stroke-width: 1.125"/>
    </g>
   </g>
   <g id="line2d_46">
    <path d="M 1240.2 559.84494 
L 1240.2 229.136853 
" clip-path="url(#pe533d7ad09)" style="fill: none; stroke: #3f3f3f; stroke-width: 1.875; stroke-linecap: square"/>
   </g>
   <g id="line2d_47">
    <path d="M 1240.2 476.294423 
L 1240.2 371.50299 
" clip-path="url(#pe533d7ad09)" style="fill: none; stroke: #3f3f3f; stroke-width: 5.625; stroke-linecap: square"/>
   </g>
   <g id="line2d_48">
    <path d="M 1240.2 430.936322 
" clip-path="url(#pe533d7ad09)" style="fill: none; stroke: #3f3f3f; stroke-width: 1.5; stroke-linecap: square"/>
    <g clip-path="url(#pe533d7ad09)">
     <use xlink:href="#m319e69a1f4" x="1240.2" y="430.936322" style="fill: #ffffff; stroke: #ffffff; stroke-width: 1.125"/>
    </g>
   </g>
   <g id="patch_3">
    <path d="M 180 640.8 
L 180 86.4 
" style="fill: none; stroke: #000000; stroke-width: 0.8; stroke-linejoin: miter; stroke-linecap: square"/>
   </g>
   <g id="patch_4">
    <path d="M 1296 640.8 
L 1296 86.4 
" style="fill: none; stroke: #000000; stroke-width: 0.8; stroke-linejoin: miter; stroke-linecap: square"/>
   </g>
   <g id="patch_5">
    <path d="M 180 640.8 
L 1296 640.8 
" style="fill: none; stroke: #000000; stroke-width: 0.8; stroke-linejoin: miter; stroke-linecap: square"/>
   </g>
   <g id="patch_6">
    <path d="M 180 86.4 
L 1296 86.4 
" style="fill: none; stroke: #000000; stroke-width: 0.8; stroke-linejoin: miter; stroke-linecap: square"/>
   </g>
   <g id="text_21">
    <!-- cosine similarity of max_fs (distanceFromInitialPrompt), by iteration -->
    <g transform="translate(534.816563 80.4) scale(0.12 -0.12)">
     <defs>
      <path id="DejaVuSans-66" d="M 2375 4863 
L 2375 4384 
L 1825 4384 
Q 1516 4384 1395 4259 
Q 1275 4134 1275 3809 
L 1275 3500 
L 2222 3500 
L 2222 3053 
L 1275 3053 
L 1275 0 
L 697 0 
L 697 3053 
L 147 3053 
L 147 3500 
L 697 3500 
L 697 3744 
Q 697 4328 969 4595 
Q 1241 4863 1831 4863 
L 2375 4863 
z
" transform="scale(0.015625)"/>
      <path id="DejaVuSans-78" d="M 3513 3500 
L 2247 1797 
L 3578 0 
L 2900 0 
L 1881 1375 
L 863 0 
L 184 0 
L 1544 1831 
L 300 3500 
L 978 3500 
L 1906 2253 
L 2834 3500 
L 3513 3500 
z
" transform="scale(0.015625)"/>
      <path id="DejaVuSans-5f" d="M 3263 -1063 
L 3263 -1509 
L -63 -1509 
L -63 -1063 
L 3263 -1063 
z
" transform="scale(0.015625)"/>
      <path id="DejaVuSans-28" d="M 1984 4856 
Q 1566 4138 1362 3434 
Q 1159 2731 1159 2009 
Q 1159 1288 1364 580 
Q 1569 -128 1984 -844 
L 1484 -844 
Q 1016 -109 783 600 
Q 550 1309 550 2009 
Q 550 2706 781 3412 
Q 1013 4119 1484 4856 
L 1984 4856 
z
" transform="scale(0.015625)"/>
      <path id="DejaVuSans-64" d="M 2906 2969 
L 2906 4863 
L 3481 4863 
L 3481 0 
L 2906 0 
L 2906 525 
Q 2725 213 2448 61 
Q 2172 -91 1784 -91 
Q 1150 -91 751 415 
Q 353 922 353 1747 
Q 353 2572 751 3078 
Q 1150 3584 1784 3584 
Q 2172 3584 2448 3432 
Q 2725 3281 2906 2969 
z
M 947 1747 
Q 947 1113 1208 752 
Q 1469 391 1925 391 
Q 2381 391 2643 752 
Q 2906 1113 2906 1747 
Q 2906 2381 2643 2742 
Q 2381 3103 1925 3103 
Q 1469 3103 1208 2742 
Q 947 2381 947 1747 
z
" transform="scale(0.015625)"/>
      <path id="DejaVuSans-46" d="M 628 4666 
L 3309 4666 
L 3309 4134 
L 1259 4134 
L 1259 2759 
L 3109 2759 
L 3109 2228 
L 1259 2228 
L 1259 0 
L 628 0 
L 628 4666 
z
" transform="scale(0.015625)"/>
      <path id="DejaVuSans-49" d="M 628 4666 
L 1259 4666 
L 1259 0 
L 628 0 
L 628 4666 
z
" transform="scale(0.015625)"/>
      <path id="DejaVuSans-50" d="M 1259 4147 
L 1259 2394 
L 2053 2394 
Q 2494 2394 2734 2622 
Q 2975 2850 2975 3272 
Q 2975 3691 2734 3919 
Q 2494 4147 2053 4147 
L 1259 4147 
z
M 628 4666 
L 2053 4666 
Q 2838 4666 3239 4311 
Q 3641 3956 3641 3272 
Q 3641 2581 3239 2228 
Q 2838 1875 2053 1875 
L 1259 1875 
L 1259 0 
L 628 0 
L 628 4666 
z
" transform="scale(0.015625)"/>
      <path id="DejaVuSans-70" d="M 1159 525 
L 1159 -1331 
L 581 -1331 
L 581 3500 
L 1159 3500 
L 1159 2969 
Q 1341 3281 1617 3432 
Q 1894 3584 2278 3584 
Q 2916 3584 3314 3078 
Q 3713 2572 3713 1747 
Q 3713 922 3314 415 
Q 2916 -91 2278 -91 
Q 1894 -91 1617 61 
Q 1341 213 1159 525 
z
M 3116 1747 
Q 3116 2381 2855 2742 
Q 2594 3103 2138 3103 
Q 1681 3103 1420 2742 
Q 1159 2381 1159 1747 
Q 1159 1113 1420 752 
Q 1681 391 2138 391 
Q 2594 391 2855 752 
Q 3116 1113 3116 1747 
z
" transform="scale(0.015625)"/>
      <path id="DejaVuSans-29" d="M 513 4856 
L 1013 4856 
Q 1481 4119 1714 3412 
Q 1947 2706 1947 2009 
Q 1947 1309 1714 600 
Q 1481 -109 1013 -844 
L 513 -844 
Q 928 -128 1133 580 
Q 1338 1288 1338 2009 
Q 1338 2731 1133 3434 
Q 928 4138 513 4856 
z
" transform="scale(0.015625)"/>
      <path id="DejaVuSans-2c" d="M 750 794 
L 1409 794 
L 1409 256 
L 897 -744 
L 494 -744 
L 750 256 
L 750 794 
z
" transform="scale(0.015625)"/>
      <path id="DejaVuSans-62" d="M 3116 1747 
Q 3116 2381 2855 2742 
Q 2594 3103 2138 3103 
Q 1681 3103 1420 2742 
Q 1159 2381 1159 1747 
Q 1159 1113 1420 752 
Q 1681 391 2138 391 
Q 2594 391 2855 752 
Q 3116 1113 3116 1747 
z
M 1159 2969 
Q 1341 3281 1617 3432 
Q 1894 3584 2278 3584 
Q 2916 3584 3314 3078 
Q 3713 2572 3713 1747 
Q 3713 922 3314 415 
Q 2916 -91 2278 -91 
Q 1894 -91 1617 61 
Q 1341 213 1159 525 
L 1159 0 
L 581 0 
L 581 4863 
L 1159 4863 
L 1159 2969 
z
" transform="scale(0.015625)"/>
     </defs>
     <use xlink:href="#DejaVuSans-63"/>
     <use xlink:href="#DejaVuSans-6f" x="54.980469"/>
     <use xlink:href="#DejaVuSans-73" x="116.162109"/>
     <use xlink:href="#DejaVuSans-69" x="168.261719"/>
     <use xlink:href="#DejaVuSans-6e" x="196.044922"/>
     <use xlink:href="#DejaVuSans-65" x="259.423828"/>
     <use xlink:href="#DejaVuSans-20" x="320.947266"/>
     <use xlink:href="#DejaVuSans-73" x="352.734375"/>
     <use xlink:href="#DejaVuSans-69" x="404.833984"/>
     <use xlink:href="#DejaVuSans-6d" x="432.617188"/>
     <use xlink:href="#DejaVuSans-69" x="530.029297"/>
     <use xlink:href="#DejaVuSans-6c" x="557.8125"/>
     <use xlink:href="#DejaVuSans-61" x="585.595703"/>
     <use xlink:href="#DejaVuSans-72" x="646.875"/>
     <use xlink:href="#DejaVuSans-69" x="687.988281"/>
     <use xlink:href="#DejaVuSans-74" x="715.771484"/>
     <use xlink:href="#DejaVuSans-79" x="754.980469"/>
     <use xlink:href="#DejaVuSans-20" x="814.160156"/>
     <use xlink:href="#DejaVuSans-6f" x="845.947266"/>
     <use xlink:href="#DejaVuSans-66" x="907.128906"/>
     <use xlink:href="#DejaVuSans-20" x="942.333984"/>
     <use xlink:href="#DejaVuSans-6d" x="974.121094"/>
     <use xlink:href="#DejaVuSans-61" x="1071.533203"/>
     <use xlink:href="#DejaVuSans-78" x="1132.8125"/>
     <use xlink:href="#DejaVuSans-5f" x="1191.992188"/>
     <use xlink:href="#DejaVuSans-66" x="1241.992188"/>
     <use xlink:href="#DejaVuSans-73" x="1277.197266"/>
     <use xlink:href="#DejaVuSans-20" x="1329.296875"/>
     <use xlink:href="#DejaVuSans-28" x="1361.083984"/>
     <use xlink:href="#DejaVuSans-64" x="1400.097656"/>
     <use xlink:href="#DejaVuSans-69" x="1463.574219"/>
     <use xlink:href="#DejaVuSans-73" x="1491.357422"/>
     <use xlink:href="#DejaVuSans-74" x="1543.457031"/>
     <use xlink:href="#DejaVuSans-61" x="1582.666016"/>
     <use xlink:href="#DejaVuSans-6e" x="1643.945312"/>
     <use xlink:href="#DejaVuSans-63" x="1707.324219"/>
     <use xlink:href="#DejaVuSans-65" x="1762.304688"/>
     <use xlink:href="#DejaVuSans-46" x="1823.828125"/>
     <use xlink:href="#DejaVuSans-72" x="1874.097656"/>
     <use xlink:href="#DejaVuSans-6f" x="1912.960938"/>
     <use xlink:href="#DejaVuSans-6d" x="1974.142578"/>
     <use xlink:href="#DejaVuSans-49" x="2071.554688"/>
     <use xlink:href="#DejaVuSans-6e" x="2101.046875"/>
     <use xlink:href="#DejaVuSans-69" x="2164.425781"/>
     <use xlink:href="#DejaVuSans-74" x="2192.208984"/>
     <use xlink:href="#DejaVuSans-69" x="2231.417969"/>
     <use xlink:href="#DejaVuSans-61" x="2259.201172"/>
     <use xlink:href="#DejaVuSans-6c" x="2320.480469"/>
     <use xlink:href="#DejaVuSans-50" x="2348.263672"/>
     <use xlink:href="#DejaVuSans-72" x="2406.816406"/>
     <use xlink:href="#DejaVuSans-6f" x="2445.679688"/>
     <use xlink:href="#DejaVuSans-6d" x="2506.861328"/>
     <use xlink:href="#DejaVuSans-70" x="2604.273438"/>
     <use xlink:href="#DejaVuSans-74" x="2667.75"/>
     <use xlink:href="#DejaVuSans-29" x="2706.958984"/>
     <use xlink:href="#DejaVuSans-2c" x="2745.972656"/>
     <use xlink:href="#DejaVuSans-20" x="2777.759766"/>
     <use xlink:href="#DejaVuSans-62" x="2809.546875"/>
     <use xlink:href="#DejaVuSans-79" x="2873.023438"/>
     <use xlink:href="#DejaVuSans-20" x="2932.203125"/>
     <use xlink:href="#DejaVuSans-69" x="2963.990234"/>
     <use xlink:href="#DejaVuSans-74" x="2991.773438"/>
     <use xlink:href="#DejaVuSans-65" x="3030.982422"/>
     <use xlink:href="#DejaVuSans-72" x="3092.505859"/>
     <use xlink:href="#DejaVuSans-61" x="3133.619141"/>
     <use xlink:href="#DejaVuSans-74" x="3194.898438"/>
     <use xlink:href="#DejaVuSans-69" x="3234.107422"/>
     <use xlink:href="#DejaVuSans-6f" x="3261.890625"/>
     <use xlink:href="#DejaVuSans-6e" x="3323.072266"/>
    </g>
   </g>
  </g>
 </g>
 <defs>
  <clipPath id="pe533d7ad09">
   <rect x="180" y="86.4" width="1116" height="554.4"/>
  </clipPath>
 </defs>
</svg>
