<?xml version="1.0" encoding="utf-8" standalone="no"?>
<!DOCTYPE svg PUBLIC "-//W3C//DTD SVG 1.1//EN"
  "http://www.w3.org/Graphics/SVG/1.1/DTD/svg11.dtd">
<svg xmlns:xlink="http://www.w3.org/1999/xlink" width="1440pt" height="720pt" viewBox="0 0 1440 720" xmlns="http://www.w3.org/2000/svg" version="1.1">
 <metadata>
  <rdf:RDF xmlns:dc="http://purl.org/dc/elements/1.1/" xmlns:cc="http://creativecommons.org/ns#" xmlns:rdf="http://www.w3.org/1999/02/22-rdf-syntax-ns#">
   <cc:Work>
    <dc:type rdf:resource="http://purl.org/dc/dcmitype/StillImage"/>
    <dc:date>2024-07-27T02:04:05.689287</dc:date>
    <dc:format>image/svg+xml</dc:format>
    <dc:creator>
     <cc:Agent>
      <dc:title>Matplotlib v3.8.0, https://matplotlib.org/</dc:title>
     </cc:Agent>
    </dc:creator>
   </cc:Work>
  </rdf:RDF>
 </metadata>
 <defs>
  <style type="text/css">*{stroke-linejoin: round; stroke-linecap: butt}</style>
 </defs>
 <g id="figure_1">
  <g id="patch_1">
   <path d="M 0 720 
L 1440 720 
L 1440 0 
L 0 0 
z
" style="fill: #ffffff"/>
  </g>
  <g id="axes_1">
   <g id="patch_2">
    <path d="M 180 640.8 
L 1296 640.8 
L 1296 86.4 
L 180 86.4 
z
" style="fill: #ffffff"/>
   </g>
   <g id="PolyCollection_1">
    <defs>
     <path id="m57e508fad6" d="M 235.893722 -132.788117 
L 235.706278 -132.788117 
L 235.656108 -137.580987 
L 235.587881 -142.373858 
L 235.499467 -147.166728 
L 235.390259 -151.959599 
L 235.26159 -156.752469 
L 235.11676 -161.54534 
L 234.960571 -166.33821 
L 234.79835 -171.131081 
L 234.634643 -175.923951 
L 234.471842 -180.716822 
L 234.309038 -185.509692 
L 234.141338 -190.302563 
L 233.959742 -195.095433 
L 233.751557 -199.888304 
L 233.501226 -204.681174 
L 233.191447 -209.474045 
L 232.80451 -214.266915 
L 232.32382 -219.059785 
L 231.735614 -223.852656 
L 231.030858 -228.645526 
L 230.207207 -233.438397 
L 229.270776 -238.231267 
L 228.237323 -243.024138 
L 227.132361 -247.817008 
L 225.989745 -252.609879 
L 224.848467 -257.402749 
L 223.747801 -262.19562 
L 222.721345 -266.98849 
L 221.790977 -271.781361 
L 220.96195 -276.574231 
L 220.220317 -281.367102 
L 219.533487 -286.159972 
L 218.854097 -290.952843 
L 218.12662 -295.745713 
L 217.295477 -300.538584 
L 216.313021 -305.331454 
L 215.14583 -310.124325 
L 213.778253 -314.917195 
L 212.21297 -319.710065 
L 210.469174 -324.502936 
L 208.579524 -329.295806 
L 206.587046 -334.088677 
L 204.542641 -338.881547 
L 202.503106 -343.674418 
L 200.528927 -348.467288 
L 198.680935 -353.260159 
L 197.015303 -358.053029 
L 195.577226 -362.8459 
L 194.394472 -367.63877 
L 193.472587 -372.431641 
L 192.793441 -377.224511 
L 192.318191 -382.017382 
L 191.994618 -386.810252 
L 191.767612 -391.603123 
L 191.590592 -396.395993 
L 191.435158 -401.188864 
L 191.296505 -405.981734 
L 191.193018 -410.774604 
L 191.16 -415.567475 
L 191.239145 -420.360345 
L 191.466757 -425.153216 
L 191.864166 -429.946086 
L 192.433147 -434.738957 
L 193.157492 -439.531827 
L 194.009801 -444.324698 
L 194.96085 -449.117568 
L 195.988229 -453.910439 
L 197.081574 -458.703309 
L 198.243269 -463.49618 
L 199.485292 -468.28905 
L 200.824156 -473.081921 
L 202.276091 -477.874791 
L 203.853876 -482.667662 
L 205.565453 -487.460532 
L 207.413377 -492.253403 
L 209.393764 -497.046273 
L 211.493912 -501.839144 
L 213.688876 -506.632014 
L 215.938422 -511.424884 
L 218.186375 -516.217755 
L 220.364069 -521.010625 
L 222.398379 -525.803496 
L 224.22316 -530.596366 
L 225.791404 -535.389237 
L 227.084716 -540.182107 
L 228.117146 -544.974978 
L 228.931883 -549.767848 
L 229.591418 -554.560719 
L 230.163742 -559.353589 
L 230.7083 -564.14646 
L 231.265327 -568.93933 
L 231.851021 -573.732201 
L 232.459062 -578.525071 
L 233.067139 -583.317942 
L 233.645942 -588.110812 
L 234.167819 -592.903683 
L 234.612986 -597.696553 
L 234.972346 -602.489423 
L 235.247121 -607.282294 
L 236.352879 -607.282294 
L 236.352879 -607.282294 
L 236.627654 -602.489423 
L 236.987014 -597.696553 
L 237.432181 -592.903683 
L 237.954058 -588.110812 
L 238.532861 -583.317942 
L 239.140938 -578.525071 
L 239.748979 -573.732201 
L 240.334673 -568.93933 
L 240.8917 -564.14646 
L 241.436258 -559.353589 
L 242.008582 -554.560719 
L 242.668117 -549.767848 
L 243.482854 -544.974978 
L 244.515284 -540.182107 
L 245.808596 -535.389237 
L 247.37684 -530.596366 
L 249.201621 -525.803496 
L 251.235931 -521.010625 
L 253.413625 -516.217755 
L 255.661578 -511.424884 
L 257.911124 -506.632014 
L 260.106088 -501.839144 
L 262.206236 -497.046273 
L 264.186623 -492.253403 
L 266.034547 -487.460532 
L 267.746124 -482.667662 
L 269.323909 -477.874791 
L 270.775844 -473.081921 
L 272.114708 -468.28905 
L 273.356731 -463.49618 
L 274.518426 -458.703309 
L 275.611771 -453.910439 
L 276.63915 -449.117568 
L 277.590199 -444.324698 
L 278.442508 -439.531827 
L 279.166853 -434.738957 
L 279.735834 -429.946086 
L 280.133243 -425.153216 
L 280.360855 -420.360345 
L 280.44 -415.567475 
L 280.406982 -410.774604 
L 280.303495 -405.981734 
L 280.164842 -401.188864 
L 280.009408 -396.395993 
L 279.832388 -391.603123 
L 279.605382 -386.810252 
L 279.281809 -382.017382 
L 278.806559 -377.224511 
L 278.127413 -372.431641 
L 277.205528 -367.63877 
L 276.022774 -362.8459 
L 274.584697 -358.053029 
L 272.919065 -353.260159 
L 271.071073 -348.467288 
L 269.096894 -343.674418 
L 267.057359 -338.881547 
L 265.012954 -334.088677 
L 263.020476 -329.295806 
L 261.130826 -324.502936 
L 259.38703 -319.710065 
L 257.821747 -314.917195 
L 256.45417 -310.124325 
L 255.286979 -305.331454 
L 254.304523 -300.538584 
L 253.47338 -295.745713 
L 252.745903 -290.952843 
L 252.066513 -286.159972 
L 251.379683 -281.367102 
L 250.63805 -276.574231 
L 249.809023 -271.781361 
L 248.878655 -266.98849 
L 247.852199 -262.19562 
L 246.751533 -257.402749 
L 245.610255 -252.609879 
L 244.467639 -247.817008 
L 243.362677 -243.024138 
L 242.329224 -238.231267 
L 241.392793 -233.438397 
L 240.569142 -228.645526 
L 239.864386 -223.852656 
L 239.27618 -219.059785 
L 238.79549 -214.266915 
L 238.408553 -209.474045 
L 238.098774 -204.681174 
L 237.848443 -199.888304 
L 237.640258 -195.095433 
L 237.458662 -190.302563 
L 237.290962 -185.509692 
L 237.128158 -180.716822 
L 236.965357 -175.923951 
L 236.80165 -171.131081 
L 236.639429 -166.33821 
L 236.48324 -161.54534 
L 236.33841 -156.752469 
L 236.209741 -151.959599 
L 236.100533 -147.166728 
L 236.012119 -142.373858 
L 235.943892 -137.580987 
L 235.893722 -132.788117 
z
" style="stroke: #3f3f3f; stroke-width: 1.25"/>
    </defs>
    <g clip-path="url(#p7b08b61c9a)">
     <use xlink:href="#m57e508fad6" x="0" y="720" style="fill: #3274a1; stroke: #3f3f3f; stroke-width: 1.25"/>
    </g>
   </g>
   <g id="PolyCollection_2">
    <defs>
     <path id="ma914860c0e" d="M 347.479054 -116.076701 
L 347.320946 -116.076701 
L 347.272737 -121.049664 
L 347.201882 -126.022626 
L 347.101301 -130.995589 
L 346.963191 -135.968551 
L 346.779487 -140.941514 
L 346.542483 -145.914477 
L 346.245555 -150.887439 
L 345.883915 -155.860402 
L 345.455265 -160.833365 
L 344.960228 -165.806327 
L 344.402389 -170.77929 
L 343.787899 -175.752252 
L 343.124624 -180.725215 
L 342.420961 -185.698178 
L 341.684521 -190.67114 
L 340.920874 -195.644103 
L 340.13259 -200.617065 
L 339.318693 -205.590028 
L 338.474646 -210.562991 
L 337.592925 -215.535953 
L 336.664195 -220.508916 
L 335.679067 -225.481879 
L 334.630275 -230.454841 
L 333.514985 -235.427804 
L 332.33683 -240.400766 
L 331.107149 -245.373729 
L 329.844967 -250.346692 
L 328.575368 -255.319654 
L 327.326224 -260.292617 
L 326.123589 -265.265579 
L 324.986522 -270.238542 
L 323.922439 -275.211505 
L 322.92429 -280.184467 
L 321.970677 -285.15743 
L 321.029491 -290.130393 
L 320.064704 -295.103355 
L 319.044918 -300.076318 
L 317.951459 -305.04928 
L 316.783624 -310.022243 
L 315.559294 -314.995206 
L 314.310498 -319.968168 
L 313.075147 -324.941131 
L 311.887487 -329.914093 
L 310.770278 -334.887056 
L 309.73117 -339.860019 
L 308.764313 -344.832981 
L 307.856513 -349.805944 
L 306.995816 -354.778907 
L 306.179693 -359.751869 
L 305.420228 -364.724832 
L 304.744705 -369.697794 
L 304.191426 -374.670757 
L 303.801997 -379.64372 
L 303.612286 -384.616682 
L 303.64454 -389.589645 
L 303.902646 -394.562607 
L 304.37155 -399.53557 
L 305.020632 -404.508533 
L 305.809893 -409.481495 
L 306.69734 -414.454458 
L 307.646038 -419.427421 
L 308.629705 -424.400383 
L 309.636266 -429.373346 
L 310.669159 -434.346308 
L 311.746423 -439.319271 
L 312.897674 -444.292234 
L 314.159205 -449.265196 
L 315.567674 -454.238159 
L 317.153147 -459.211122 
L 318.932583 -464.184084 
L 320.904912 -469.157047 
L 323.048736 -474.130009 
L 325.323246 -479.102972 
L 327.672292 -484.075935 
L 330.030887 -489.048897 
L 332.332874 -494.02186 
L 334.518222 -498.994822 
L 336.538594 -503.967785 
L 338.360324 -508.940748 
L 339.964718 -513.91371 
L 341.346271 -518.886673 
L 342.509847 -523.859636 
L 343.467875 -528.832598 
L 344.238217 -533.805561 
L 344.842837 -538.778523 
L 345.306891 -543.751486 
L 345.657682 -548.724449 
L 345.923078 -553.697411 
L 346.129382 -558.670374 
L 346.299045 -563.643336 
L 346.448836 -568.616299 
L 346.588994 -573.589262 
L 346.723614 -578.562224 
L 346.852087 -583.535187 
L 346.971133 -588.50815 
L 347.076822 -593.481112 
L 347.166129 -598.454075 
L 347.237747 -603.427037 
L 347.292207 -608.4 
L 347.507793 -608.4 
L 347.507793 -608.4 
L 347.562253 -603.427037 
L 347.633871 -598.454075 
L 347.723178 -593.481112 
L 347.828867 -588.50815 
L 347.947913 -583.535187 
L 348.076386 -578.562224 
L 348.211006 -573.589262 
L 348.351164 -568.616299 
L 348.500955 -563.643336 
L 348.670618 -558.670374 
L 348.876922 -553.697411 
L 349.142318 -548.724449 
L 349.493109 -543.751486 
L 349.957163 -538.778523 
L 350.561783 -533.805561 
L 351.332125 -528.832598 
L 352.290153 -523.859636 
L 353.453729 -518.886673 
L 354.835282 -513.91371 
L 356.439676 -508.940748 
L 358.261406 -503.967785 
L 360.281778 -498.994822 
L 362.467126 -494.02186 
L 364.769113 -489.048897 
L 367.127708 -484.075935 
L 369.476754 -479.102972 
L 371.751264 -474.130009 
L 373.895088 -469.157047 
L 375.867417 -464.184084 
L 377.646853 -459.211122 
L 379.232326 -454.238159 
L 380.640795 -449.265196 
L 381.902326 -444.292234 
L 383.053577 -439.319271 
L 384.130841 -434.346308 
L 385.163734 -429.373346 
L 386.170295 -424.400383 
L 387.153962 -419.427421 
L 388.10266 -414.454458 
L 388.990107 -409.481495 
L 389.779368 -404.508533 
L 390.42845 -399.53557 
L 390.897354 -394.562607 
L 391.15546 -389.589645 
L 391.187714 -384.616682 
L 390.998003 -379.64372 
L 390.608574 -374.670757 
L 390.055295 -369.697794 
L 389.379772 -364.724832 
L 388.620307 -359.751869 
L 387.804184 -354.778907 
L 386.943487 -349.805944 
L 386.035687 -344.832981 
L 385.06883 -339.860019 
L 384.029722 -334.887056 
L 382.912513 -329.914093 
L 381.724853 -324.941131 
L 380.489502 -319.968168 
L 379.240706 -314.995206 
L 378.016376 -310.022243 
L 376.848541 -305.04928 
L 375.755082 -300.076318 
L 374.735296 -295.103355 
L 373.770509 -290.130393 
L 372.829323 -285.15743 
L 371.87571 -280.184467 
L 370.877561 -275.211505 
L 369.813478 -270.238542 
L 368.676411 -265.265579 
L 367.473776 -260.292617 
L 366.224632 -255.319654 
L 364.955033 -250.346692 
L 363.692851 -245.373729 
L 362.46317 -240.400766 
L 361.285015 -235.427804 
L 360.169725 -230.454841 
L 359.120933 -225.481879 
L 358.135805 -220.508916 
L 357.207075 -215.535953 
L 356.325354 -210.562991 
L 355.481307 -205.590028 
L 354.66741 -200.617065 
L 353.879126 -195.644103 
L 353.115479 -190.67114 
L 352.379039 -185.698178 
L 351.675376 -180.725215 
L 351.012101 -175.752252 
L 350.397611 -170.77929 
L 349.839772 -165.806327 
L 349.344735 -160.833365 
L 348.916085 -155.860402 
L 348.554445 -150.887439 
L 348.257517 -145.914477 
L 348.020513 -140.941514 
L 347.836809 -135.968551 
L 347.698699 -130.995589 
L 347.598118 -126.022626 
L 347.527263 -121.049664 
L 347.479054 -116.076701 
z
" style="stroke: #3f3f3f; stroke-width: 1.25"/>
    </defs>
    <g clip-path="url(#p7b08b61c9a)">
     <use xlink:href="#ma914860c0e" x="0" y="720" style="fill: #3274a1; stroke: #3f3f3f; stroke-width: 1.25"/>
    </g>
   </g>
   <g id="PolyCollection_3">
    <defs>
     <path id="m2df5b23410" d="M 459.172325 -127.319833 
L 458.827675 -127.319833 
L 458.728449 -131.78784 
L 458.584552 -136.255848 
L 458.38267 -140.723855 
L 458.108641 -145.191863 
L 457.748717 -149.65987 
L 457.291182 -154.127878 
L 456.728103 -158.595885 
L 456.056936 -163.063893 
L 455.281626 -167.5319 
L 454.412907 -171.999908 
L 453.467601 -176.467915 
L 452.466897 -180.935923 
L 451.43382 -185.40393 
L 450.390244 -189.871938 
L 449.35394 -194.339945 
L 448.336166 -198.807953 
L 447.34021 -203.27596 
L 446.361168 -207.743968 
L 445.387011 -212.211975 
L 444.400824 -216.679983 
L 443.383873 -221.14799 
L 442.319028 -225.615997 
L 441.194009 -230.084005 
L 440.003905 -234.552012 
L 438.752571 -239.02002 
L 437.452709 -243.488027 
L 436.124657 -247.956035 
L 434.794204 -252.424042 
L 433.489823 -256.89205 
L 432.239805 -261.360057 
L 431.069642 -265.828065 
L 429.999839 -270.296072 
L 429.044191 -274.76408 
L 428.208456 -279.232087 
L 427.489438 -283.700095 
L 426.874596 -288.168102 
L 426.342462 -292.63611 
L 425.864196 -297.104117 
L 425.406456 -301.572125 
L 424.935458 -306.040132 
L 424.421713 -310.50814 
L 423.844595 -314.976147 
L 423.195795 -319.444154 
L 422.480887 -323.912162 
L 421.718656 -328.380169 
L 420.938371 -332.848177 
L 420.175663 -337.316184 
L 419.467891 -341.784192 
L 418.849904 -346.252199 
L 418.350826 -350.720207 
L 417.992169 -355.188214 
L 417.787211 -359.656222 
L 417.741388 -364.124229 
L 417.8533 -368.592237 
L 418.116012 -373.060244 
L 418.518352 -377.528252 
L 419.046027 -381.996259 
L 419.682478 -386.464267 
L 420.409452 -390.932274 
L 421.207391 -395.400282 
L 422.055808 -399.868289 
L 422.933904 -404.336297 
L 423.821628 -408.804304 
L 424.701298 -413.272311 
L 425.559699 -417.740319 
L 426.390331 -422.208326 
L 427.195311 -426.676334 
L 427.98637 -431.144341 
L 428.784486 -435.612349 
L 429.61794 -440.080356 
L 430.518926 -444.548364 
L 431.51915 -449.016371 
L 432.645116 -453.484379 
L 433.913862 -457.952386 
L 435.329863 -462.420394 
L 436.883623 -466.888401 
L 438.552189 -471.356409 
L 440.301519 -475.824416 
L 442.09031 -480.292424 
L 443.874656 -484.760431 
L 445.612767 -489.228439 
L 447.268998 -493.696446 
L 448.816557 -498.164454 
L 450.238585 -502.632461 
L 451.527623 -507.100469 
L 452.683825 -511.568476 
L 453.712484 -516.036483 
L 454.621519 -520.504491 
L 455.419448 -524.972498 
L 456.11416 -529.440506 
L 456.712533 -533.908513 
L 457.220708 -538.376521 
L 457.644703 -542.844528 
L 457.991046 -547.312536 
L 458.267169 -551.780543 
L 458.481472 -556.248551 
L 458.643044 -560.716558 
L 458.761189 -565.184566 
L 458.844872 -569.652573 
L 459.155128 -569.652573 
L 459.155128 -569.652573 
L 459.238811 -565.184566 
L 459.356956 -560.716558 
L 459.518528 -556.248551 
L 459.732831 -551.780543 
L 460.008954 -547.312536 
L 460.355297 -542.844528 
L 460.779292 -538.376521 
L 461.287467 -533.908513 
L 461.88584 -529.440506 
L 462.580552 -524.972498 
L 463.378481 -520.504491 
L 464.287516 -516.036483 
L 465.316175 -511.568476 
L 466.472377 -507.100469 
L 467.761415 -502.632461 
L 469.183443 -498.164454 
L 470.731002 -493.696446 
L 472.387233 -489.228439 
L 474.125344 -484.760431 
L 475.90969 -480.292424 
L 477.698481 -475.824416 
L 479.447811 -471.356409 
L 481.116377 -466.888401 
L 482.670137 -462.420394 
L 484.086138 -457.952386 
L 485.354884 -453.484379 
L 486.48085 -449.016371 
L 487.481074 -444.548364 
L 488.38206 -440.080356 
L 489.215514 -435.612349 
L 490.01363 -431.144341 
L 490.804689 -426.676334 
L 491.609669 -422.208326 
L 492.440301 -417.740319 
L 493.298702 -413.272311 
L 494.178372 -408.804304 
L 495.066096 -404.336297 
L 495.944192 -399.868289 
L 496.792609 -395.400282 
L 497.590548 -390.932274 
L 498.317522 -386.464267 
L 498.953973 -381.996259 
L 499.481648 -377.528252 
L 499.883988 -373.060244 
L 500.1467 -368.592237 
L 500.258612 -364.124229 
L 500.212789 -359.656222 
L 500.007831 -355.188214 
L 499.649174 -350.720207 
L 499.150096 -346.252199 
L 498.532109 -341.784192 
L 497.824337 -337.316184 
L 497.061629 -332.848177 
L 496.281344 -328.380169 
L 495.519113 -323.912162 
L 494.804205 -319.444154 
L 494.155405 -314.976147 
L 493.578287 -310.50814 
L 493.064542 -306.040132 
L 492.593544 -301.572125 
L 492.135804 -297.104117 
L 491.657538 -292.63611 
L 491.125404 -288.168102 
L 490.510562 -283.700095 
L 489.791544 -279.232087 
L 488.955809 -274.76408 
L 488.000161 -270.296072 
L 486.930358 -265.828065 
L 485.760195 -261.360057 
L 484.510177 -256.89205 
L 483.205796 -252.424042 
L 481.875343 -247.956035 
L 480.547291 -243.488027 
L 479.247429 -239.02002 
L 477.996095 -234.552012 
L 476.805991 -230.084005 
L 475.680972 -225.615997 
L 474.616127 -221.14799 
L 473.599176 -216.679983 
L 472.612989 -212.211975 
L 471.638832 -207.743968 
L 470.65979 -203.27596 
L 469.663834 -198.807953 
L 468.64606 -194.339945 
L 467.609756 -189.871938 
L 466.56618 -185.40393 
L 465.533103 -180.935923 
L 464.532399 -176.467915 
L 463.587093 -171.999908 
L 462.718374 -167.5319 
L 461.943064 -163.063893 
L 461.271897 -158.595885 
L 460.708818 -154.127878 
L 460.251283 -149.65987 
L 459.891359 -145.191863 
L 459.61733 -140.723855 
L 459.415448 -136.255848 
L 459.271551 -131.78784 
L 459.172325 -127.319833 
z
" style="stroke: #3f3f3f; stroke-width: 1.25"/>
    </defs>
    <g clip-path="url(#p7b08b61c9a)">
     <use xlink:href="#m2df5b23410" x="0" y="720" style="fill: #3274a1; stroke: #3f3f3f; stroke-width: 1.25"/>
    </g>
   </g>
   <g id="PolyCollection_4">
    <defs>
     <path id="m3c5b5d2498" d="M 570.662145 -108.065613 
L 570.537855 -108.065613 
L 570.505001 -112.725926 
L 570.458496 -117.386238 
L 570.394012 -122.046551 
L 570.306034 -126.706864 
L 570.187442 -131.367177 
L 570.029034 -136.02749 
L 569.819077 -140.687803 
L 569.54309 -145.348115 
L 569.184068 -150.008428 
L 568.72332 -154.668741 
L 568.14203 -159.329054 
L 567.423434 -163.989367 
L 566.555348 -168.64968 
L 565.532602 -173.309992 
L 564.358886 -177.970305 
L 563.047517 -182.630618 
L 561.620854 -187.290931 
L 560.108274 -191.951244 
L 558.542976 -196.611557 
L 556.958108 -201.271869 
L 555.382919 -205.932182 
L 553.839687 -210.592495 
L 552.342036 -215.252808 
L 550.894968 -219.913121 
L 549.496515 -224.573434 
L 548.140511 -229.233746 
L 546.819688 -233.894059 
L 545.528306 -238.554372 
L 544.263712 -243.214685 
L 543.026691 -247.874998 
L 541.820874 -252.535311 
L 540.651769 -257.195624 
L 539.525969 -261.855936 
L 538.450853 -266.516249 
L 537.434674 -271.176562 
L 536.486636 -275.836875 
L 535.616455 -280.497188 
L 534.833104 -285.157501 
L 534.142822 -289.817813 
L 533.546905 -294.478126 
L 533.040026 -299.138439 
L 532.609799 -303.798752 
L 532.237968 -308.459065 
L 531.903173 -313.119378 
L 531.584793 -317.77969 
L 531.267073 -322.440003 
L 530.942709 -327.100316 
L 530.615137 -331.760629 
L 530.299039 -336.420942 
L 530.018869 -341.081255 
L 529.805548 -345.741567 
L 529.691831 -350.40188 
L 529.707167 -355.062193 
L 529.873095 -359.722506 
L 530.200209 -364.382819 
L 530.687434 -369.043132 
L 531.323821 -373.703444 
L 532.092383 -378.363757 
L 532.974816 -383.02407 
L 533.955687 -387.684383 
L 535.024705 -392.344696 
L 536.17632 -397.005009 
L 537.406783 -401.665321 
L 538.70972 -406.325634 
L 540.071903 -410.985947 
L 541.47096 -415.64626 
L 542.876198 -420.306573 
L 544.252697 -424.966886 
L 545.567716 -429.627198 
L 546.797592 -434.287511 
L 547.933104 -438.947824 
L 548.981686 -443.608137 
L 549.965811 -448.26845 
L 550.917997 -452.928763 
L 551.87378 -457.589075 
L 552.864464 -462.249388 
L 553.911324 -466.909701 
L 555.022426 -471.570014 
L 556.192426 -476.230327 
L 557.404958 -480.89064 
L 558.636719 -485.550952 
L 559.862072 -490.211265 
L 561.057121 -494.871578 
L 562.202484 -499.531891 
L 563.284455 -504.192204 
L 564.294683 -508.852517 
L 565.228841 -513.512829 
L 566.08492 -518.173142 
L 566.861757 -522.833455 
L 567.55821 -527.493768 
L 568.173085 -532.154081 
L 568.70568 -536.814394 
L 569.156601 -541.474706 
L 569.528494 -546.135019 
L 569.826403 -550.795332 
L 570.057645 -555.455645 
L 570.23125 -560.115958 
L 570.357126 -564.776271 
L 570.445181 -569.436583 
L 570.754819 -569.436583 
L 570.754819 -569.436583 
L 570.842874 -564.776271 
L 570.96875 -560.115958 
L 571.142355 -555.455645 
L 571.373597 -550.795332 
L 571.671506 -546.135019 
L 572.043399 -541.474706 
L 572.49432 -536.814394 
L 573.026915 -532.154081 
L 573.64179 -527.493768 
L 574.338243 -522.833455 
L 575.11508 -518.173142 
L 575.971159 -513.512829 
L 576.905317 -508.852517 
L 577.915545 -504.192204 
L 578.997516 -499.531891 
L 580.142879 -494.871578 
L 581.337928 -490.211265 
L 582.563281 -485.550952 
L 583.795042 -480.89064 
L 585.007574 -476.230327 
L 586.177574 -471.570014 
L 587.288676 -466.909701 
L 588.335536 -462.249388 
L 589.32622 -457.589075 
L 590.282003 -452.928763 
L 591.234189 -448.26845 
L 592.218314 -443.608137 
L 593.266896 -438.947824 
L 594.402408 -434.287511 
L 595.632284 -429.627198 
L 596.947303 -424.966886 
L 598.323802 -420.306573 
L 599.72904 -415.64626 
L 601.128097 -410.985947 
L 602.49028 -406.325634 
L 603.793217 -401.665321 
L 605.02368 -397.005009 
L 606.175295 -392.344696 
L 607.244313 -387.684383 
L 608.225184 -383.02407 
L 609.107617 -378.363757 
L 609.876179 -373.703444 
L 610.512566 -369.043132 
L 610.999791 -364.382819 
L 611.326905 -359.722506 
L 611.492833 -355.062193 
L 611.508169 -350.40188 
L 611.394452 -345.741567 
L 611.181131 -341.081255 
L 610.900961 -336.420942 
L 610.584863 -331.760629 
L 610.257291 -327.100316 
L 609.932927 -322.440003 
L 609.615207 -317.77969 
L 609.296827 -313.119378 
L 608.962032 -308.459065 
L 608.590201 -303.798752 
L 608.159974 -299.138439 
L 607.653095 -294.478126 
L 607.057178 -289.817813 
L 606.366896 -285.157501 
L 605.583545 -280.497188 
L 604.713364 -275.836875 
L 603.765326 -271.176562 
L 602.749147 -266.516249 
L 601.674031 -261.855936 
L 600.548231 -257.195624 
L 599.379126 -252.535311 
L 598.173309 -247.874998 
L 596.936288 -243.214685 
L 595.671694 -238.554372 
L 594.380312 -233.894059 
L 593.059489 -229.233746 
L 591.703485 -224.573434 
L 590.305032 -219.913121 
L 588.857964 -215.252808 
L 587.360313 -210.592495 
L 585.817081 -205.932182 
L 584.241892 -201.271869 
L 582.657024 -196.611557 
L 581.091726 -191.951244 
L 579.579146 -187.290931 
L 578.152483 -182.630618 
L 576.841114 -177.970305 
L 575.667398 -173.309992 
L 574.644652 -168.64968 
L 573.776566 -163.989367 
L 573.05797 -159.329054 
L 572.47668 -154.668741 
L 572.015932 -150.008428 
L 571.65691 -145.348115 
L 571.380923 -140.687803 
L 571.170966 -136.02749 
L 571.012558 -131.367177 
L 570.893966 -126.706864 
L 570.805988 -122.046551 
L 570.741504 -117.386238 
L 570.694999 -112.725926 
L 570.662145 -108.065613 
z
" style="stroke: #3f3f3f; stroke-width: 1.25"/>
    </defs>
    <g clip-path="url(#p7b08b61c9a)">
     <use xlink:href="#m3c5b5d2498" x="0" y="720" style="fill: #3274a1; stroke: #3f3f3f; stroke-width: 1.25"/>
    </g>
   </g>
   <g id="PolyCollection_5">
    <defs>
     <path id="m2f14b4b7e2" d="M 682.288332 -107.838377 
L 682.111668 -107.838377 
L 682.065321 -112.50328 
L 682.000915 -117.168184 
L 681.914143 -121.833087 
L 681.800408 -126.497991 
L 681.654737 -131.162894 
L 681.47148 -135.827798 
L 681.24375 -140.492701 
L 680.962679 -145.157605 
L 680.616614 -149.822508 
L 680.190506 -154.487411 
L 679.665759 -159.152315 
L 679.020788 -163.817218 
L 678.232425 -168.482122 
L 677.278192 -173.147025 
L 676.139217 -177.811929 
L 674.803466 -182.476832 
L 673.268742 -187.141736 
L 671.544934 -191.806639 
L 669.654976 -196.471543 
L 667.634197 -201.136446 
L 665.528022 -205.801349 
L 663.388262 -210.466253 
L 661.268586 -215.131156 
L 659.219847 -219.79606 
L 657.285963 -224.460963 
L 655.500869 -229.125867 
L 653.886768 -233.79077 
L 652.45373 -238.455674 
L 651.200482 -243.120577 
L 650.116212 -247.785481 
L 649.183161 -252.450384 
L 648.379751 -257.115288 
L 647.683875 -261.780191 
L 647.075867 -266.445094 
L 646.540613 -271.109998 
L 646.068388 -275.774901 
L 645.654276 -280.439805 
L 645.296422 -285.104708 
L 644.993687 -289.769612 
L 644.743453 -294.434515 
L 644.540194 -299.099419 
L 644.375157 -303.764322 
L 644.237133 -308.429226 
L 644.114035 -313.094129 
L 643.994893 -317.759033 
L 643.871923 -322.423936 
L 643.742409 -327.088839 
L 643.610191 -331.753743 
L 643.486487 -336.418646 
L 643.38973 -341.08355 
L 643.34411 -345.748453 
L 643.376704 -350.413357 
L 643.513481 -355.07826 
L 643.774899 -359.743164 
L 644.172156 -364.408067 
L 644.705183 -369.072971 
L 645.363121 -373.737874 
L 646.127296 -378.402778 
L 646.97594 -383.067681 
L 647.889225 -387.732584 
L 648.853022 -392.397488 
L 649.860168 -397.062391 
L 650.908896 -401.727295 
L 651.999124 -406.392198 
L 653.128132 -411.057102 
L 654.28742 -415.722005 
L 655.462113 -420.386909 
L 656.63332 -425.051812 
L 657.782689 -429.716716 
L 658.897586 -434.381619 
L 659.975035 -439.046522 
L 661.023005 -443.711426 
L 662.058566 -448.376329 
L 663.103487 -453.041233 
L 664.178601 -457.706136 
L 665.29858 -462.37104 
L 666.468453 -467.035943 
L 667.682579 -471.700847 
L 668.92601 -476.36575 
L 670.177584 -481.030654 
L 671.413771 -485.695557 
L 672.612293 -490.360461 
L 673.754782 -495.025364 
L 674.828143 -499.690267 
L 675.824625 -504.355171 
L 676.74091 -509.020074 
L 677.576678 -513.684978 
L 678.333131 -518.349881 
L 679.011857 -523.014785 
L 679.614247 -527.679688 
L 680.141491 -532.344592 
L 680.594988 -537.009495 
L 680.976955 -541.674399 
L 681.290947 -546.339302 
L 681.542127 -551.004206 
L 681.737181 -555.669109 
L 681.883922 -560.334012 
L 681.990701 -564.998916 
L 682.065759 -569.663819 
L 682.334241 -569.663819 
L 682.334241 -569.663819 
L 682.409299 -564.998916 
L 682.516078 -560.334012 
L 682.662819 -555.669109 
L 682.857873 -551.004206 
L 683.109053 -546.339302 
L 683.423045 -541.674399 
L 683.805012 -537.009495 
L 684.258509 -532.344592 
L 684.785753 -527.679688 
L 685.388143 -523.014785 
L 686.066869 -518.349881 
L 686.823322 -513.684978 
L 687.65909 -509.020074 
L 688.575375 -504.355171 
L 689.571857 -499.690267 
L 690.645218 -495.025364 
L 691.787707 -490.360461 
L 692.986229 -485.695557 
L 694.222416 -481.030654 
L 695.47399 -476.36575 
L 696.717421 -471.700847 
L 697.931547 -467.035943 
L 699.10142 -462.37104 
L 700.221399 -457.706136 
L 701.296513 -453.041233 
L 702.341434 -448.376329 
L 703.376995 -443.711426 
L 704.424965 -439.046522 
L 705.502414 -434.381619 
L 706.617311 -429.716716 
L 707.76668 -425.051812 
L 708.937887 -420.386909 
L 710.11258 -415.722005 
L 711.271868 -411.057102 
L 712.400876 -406.392198 
L 713.491104 -401.727295 
L 714.539832 -397.062391 
L 715.546978 -392.397488 
L 716.510775 -387.732584 
L 717.42406 -383.067681 
L 718.272704 -378.402778 
L 719.036879 -373.737874 
L 719.694817 -369.072971 
L 720.227844 -364.408067 
L 720.625101 -359.743164 
L 720.886519 -355.07826 
L 721.023296 -350.413357 
L 721.05589 -345.748453 
L 721.01027 -341.08355 
L 720.913513 -336.418646 
L 720.789809 -331.753743 
L 720.657591 -327.088839 
L 720.528077 -322.423936 
L 720.405107 -317.759033 
L 720.285965 -313.094129 
L 720.162867 -308.429226 
L 720.024843 -303.764322 
L 719.859806 -299.099419 
L 719.656547 -294.434515 
L 719.406313 -289.769612 
L 719.103578 -285.104708 
L 718.745724 -280.439805 
L 718.331612 -275.774901 
L 717.859387 -271.109998 
L 717.324133 -266.445094 
L 716.716125 -261.780191 
L 716.020249 -257.115288 
L 715.216839 -252.450384 
L 714.283788 -247.785481 
L 713.199518 -243.120577 
L 711.94627 -238.455674 
L 710.513232 -233.79077 
L 708.899131 -229.125867 
L 707.114037 -224.460963 
L 705.180153 -219.79606 
L 703.131414 -215.131156 
L 701.011738 -210.466253 
L 698.871978 -205.801349 
L 696.765803 -201.136446 
L 694.745024 -196.471543 
L 692.855066 -191.806639 
L 691.131258 -187.141736 
L 689.596534 -182.476832 
L 688.260783 -177.811929 
L 687.121808 -173.147025 
L 686.167575 -168.482122 
L 685.379212 -163.817218 
L 684.734241 -159.152315 
L 684.209494 -154.487411 
L 683.783386 -149.822508 
L 683.437321 -145.157605 
L 683.15625 -140.492701 
L 682.92852 -135.827798 
L 682.745263 -131.162894 
L 682.599592 -126.497991 
L 682.485857 -121.833087 
L 682.399085 -117.168184 
L 682.334679 -112.50328 
L 682.288332 -107.838377 
z
" style="stroke: #3f3f3f; stroke-width: 1.25"/>
    </defs>
    <g clip-path="url(#p7b08b61c9a)">
     <use xlink:href="#m2f14b4b7e2" x="0" y="720" style="fill: #3274a1; stroke: #3f3f3f; stroke-width: 1.25"/>
    </g>
   </g>
   <g id="PolyCollection_6">
    <defs>
     <path id="mabf5f693c2" d="M 793.898957 -104.4 
L 793.701043 -104.4 
L 793.65052 -109.023176 
L 793.581284 -113.646353 
L 793.489424 -118.269529 
L 793.370985 -122.892705 
L 793.221859 -127.515882 
L 793.037392 -132.139058 
L 792.81169 -136.762235 
L 792.5367 -141.385411 
L 792.201247 -146.008587 
L 791.790292 -150.631764 
L 791.284677 -155.25494 
L 790.661573 -159.878116 
L 789.89571 -164.501293 
L 788.961337 -169.124469 
L 787.834736 -173.747645 
L 786.497058 -178.370822 
L 784.937201 -182.993998 
L 783.154463 -187.617175 
L 781.160641 -192.240351 
L 778.981242 -196.863527 
L 776.655435 -201.486704 
L 774.234482 -206.10988 
L 771.778587 -210.733056 
L 769.352421 -215.356233 
L 767.019909 -219.979409 
L 764.839062 -224.602585 
L 762.857659 -229.225762 
L 761.11034 -233.848938 
L 759.61734 -238.472114 
L 758.384736 -243.095291 
L 757.405861 -247.718467 
L 756.6635 -252.341644 
L 756.13256 -256.96482 
L 755.783016 -261.587996 
L 755.582967 -266.211173 
L 755.501577 -270.834349 
L 755.511586 -275.457525 
L 755.59099 -280.080702 
L 755.723612 -284.703878 
L 755.898426 -289.327054 
L 756.107819 -293.950231 
L 756.345195 -298.573407 
L 756.602495 -303.196584 
L 756.868239 -307.81976 
L 757.126587 -312.442936 
L 757.357768 -317.066113 
L 757.539965 -321.689289 
L 757.6525 -326.312465 
L 757.679857 -330.935642 
L 757.615796 -335.558818 
L 757.466673 -340.181994 
L 757.253009 -344.805171 
L 757.008652 -349.428347 
L 756.777309 -354.051524 
L 756.606924 -358.6747 
L 756.543008 -363.297876 
L 756.622438 -367.921053 
L 756.869256 -372.544229 
L 757.293485 -377.167405 
L 757.893076 -381.790582 
L 758.658123 -386.413758 
L 759.575712 -391.036934 
L 760.63361 -395.660111 
L 761.821494 -400.283287 
L 763.129451 -404.906464 
L 764.544577 -409.52964 
L 766.047392 -414.152816 
L 767.609867 -418.775993 
L 769.196342 -423.399169 
L 770.767476 -428.022345 
L 772.286263 -432.645522 
L 773.724305 -437.268698 
L 775.066454 -441.891874 
L 776.312436 -446.515051 
L 777.475047 -451.138227 
L 778.575579 -455.761404 
L 779.637843 -460.38458 
L 780.682426 -465.007756 
L 781.722561 -469.630933 
L 782.76234 -474.254109 
L 783.79731 -478.877285 
L 784.816845 -483.500462 
L 785.807369 -488.123638 
L 786.755474 -492.746814 
L 787.650189 -497.369991 
L 788.484077 -501.993167 
L 789.253182 -506.616343 
L 789.956191 -511.23952 
L 790.593278 -515.862696 
L 791.165117 -520.485873 
L 791.672325 -525.109049 
L 792.115449 -529.732225 
L 792.495352 -534.355402 
L 792.813772 -538.978578 
L 793.073795 -543.601754 
L 793.280058 -548.224931 
L 793.438605 -552.848107 
L 793.556472 -557.471283 
L 793.641088 -562.09446 
L 793.958912 -562.09446 
L 793.958912 -562.09446 
L 794.043528 -557.471283 
L 794.161395 -552.848107 
L 794.319942 -548.224931 
L 794.526205 -543.601754 
L 794.786228 -538.978578 
L 795.104648 -534.355402 
L 795.484551 -529.732225 
L 795.927675 -525.109049 
L 796.434883 -520.485873 
L 797.006722 -515.862696 
L 797.643809 -511.23952 
L 798.346818 -506.616343 
L 799.115923 -501.993167 
L 799.949811 -497.369991 
L 800.844526 -492.746814 
L 801.792631 -488.123638 
L 802.783155 -483.500462 
L 803.80269 -478.877285 
L 804.83766 -474.254109 
L 805.877439 -469.630933 
L 806.917574 -465.007756 
L 807.962157 -460.38458 
L 809.024421 -455.761404 
L 810.124953 -451.138227 
L 811.287564 -446.515051 
L 812.533546 -441.891874 
L 813.875695 -437.268698 
L 815.313737 -432.645522 
L 816.832524 -428.022345 
L 818.403658 -423.399169 
L 819.990133 -418.775993 
L 821.552608 -414.152816 
L 823.055423 -409.52964 
L 824.470549 -404.906464 
L 825.778506 -400.283287 
L 826.96639 -395.660111 
L 828.024288 -391.036934 
L 828.941877 -386.413758 
L 829.706924 -381.790582 
L 830.306515 -377.167405 
L 830.730744 -372.544229 
L 830.977562 -367.921053 
L 831.056992 -363.297876 
L 830.993076 -358.6747 
L 830.822691 -354.051524 
L 830.591348 -349.428347 
L 830.346991 -344.805171 
L 830.133327 -340.181994 
L 829.984204 -335.558818 
L 829.920143 -330.935642 
L 829.9475 -326.312465 
L 830.060035 -321.689289 
L 830.242232 -317.066113 
L 830.473413 -312.442936 
L 830.731761 -307.81976 
L 830.997505 -303.196584 
L 831.254805 -298.573407 
L 831.492181 -293.950231 
L 831.701574 -289.327054 
L 831.876388 -284.703878 
L 832.00901 -280.080702 
L 832.088414 -275.457525 
L 832.098423 -270.834349 
L 832.017033 -266.211173 
L 831.816984 -261.587996 
L 831.46744 -256.96482 
L 830.9365 -252.341644 
L 830.194139 -247.718467 
L 829.215264 -243.095291 
L 827.98266 -238.472114 
L 826.48966 -233.848938 
L 824.742341 -229.225762 
L 822.760938 -224.602585 
L 820.580091 -219.979409 
L 818.247579 -215.356233 
L 815.821413 -210.733056 
L 813.365518 -206.10988 
L 810.944565 -201.486704 
L 808.618758 -196.863527 
L 806.439359 -192.240351 
L 804.445537 -187.617175 
L 802.662799 -182.993998 
L 801.102942 -178.370822 
L 799.765264 -173.747645 
L 798.638663 -169.124469 
L 797.70429 -164.501293 
L 796.938427 -159.878116 
L 796.315323 -155.25494 
L 795.809708 -150.631764 
L 795.398753 -146.008587 
L 795.0633 -141.385411 
L 794.78831 -136.762235 
L 794.562608 -132.139058 
L 794.378141 -127.515882 
L 794.229015 -122.892705 
L 794.110576 -118.269529 
L 794.018716 -113.646353 
L 793.94948 -109.023176 
L 793.898957 -104.4 
z
" style="stroke: #3f3f3f; stroke-width: 1.25"/>
    </defs>
    <g clip-path="url(#p7b08b61c9a)">
     <use xlink:href="#mabf5f693c2" x="0" y="720" style="fill: #3274a1; stroke: #3f3f3f; stroke-width: 1.25"/>
    </g>
   </g>
   <g id="PolyCollection_7">
    <defs>
     <path id="m1a24ef0f31" d="M 905.507652 -104.735606 
L 905.292348 -104.735606 
L 905.234747 -109.342178 
L 905.153805 -113.94875 
L 905.043352 -118.555322 
L 904.896531 -123.161894 
L 904.705758 -127.768467 
L 904.462564 -132.375039 
L 904.157322 -136.981611 
L 903.778974 -141.588183 
L 903.314853 -146.194755 
L 902.7508 -150.801327 
L 902.071642 -155.407899 
L 901.262065 -160.014471 
L 900.307772 -164.621043 
L 899.196727 -169.227615 
L 897.920296 -173.834188 
L 896.474125 -178.44076 
L 894.858748 -183.047332 
L 893.079965 -187.653904 
L 891.149142 -192.260476 
L 889.083519 -196.867048 
L 886.906551 -201.47362 
L 884.648221 -206.080192 
L 882.345135 -210.686764 
L 880.040167 -215.293336 
L 877.781375 -219.899909 
L 875.619941 -224.506481 
L 873.606993 -229.113053 
L 871.789421 -233.719625 
L 870.205171 -238.326197 
L 868.878865 -242.932769 
L 867.818876 -247.539341 
L 867.016881 -252.145913 
L 866.450444 -256.752485 
L 866.088331 -261.359057 
L 865.897318 -265.96563 
L 865.8486 -270.572202 
L 865.921838 -275.178774 
L 866.105504 -279.785346 
L 866.393392 -284.391918 
L 866.778468 -288.99849 
L 867.246221 -293.605062 
L 867.769947 -298.211634 
L 868.309799 -302.818206 
L 868.816247 -307.424778 
L 869.237162 -312.031351 
L 869.526681 -316.637923 
L 869.653525 -321.244495 
L 869.606775 -325.851067 
L 869.397979 -330.457639 
L 869.059537 -335.064211 
L 868.640169 -339.670783 
L 868.198744 -344.277355 
L 867.797682 -348.883927 
L 867.496814 -353.490499 
L 867.348186 -358.097072 
L 867.39203 -362.703644 
L 867.654078 -367.310216 
L 868.144449 -371.916788 
L 868.858295 -376.52336 
L 869.778206 -381.129932 
L 870.87793 -385.736504 
L 872.12659 -390.343076 
L 873.492342 -394.949648 
L 874.944645 -399.55622 
L 876.454841 -404.162793 
L 877.995491 -408.769365 
L 879.539421 -413.375937 
L 881.059605 -417.982509 
L 882.530569 -422.589081 
L 883.931268 -427.195653 
L 885.248586 -431.802225 
L 886.480141 -436.408797 
L 887.635123 -441.015369 
L 888.732497 -445.621941 
L 889.796773 -450.228514 
L 890.852365 -454.835086 
L 891.918045 -459.441658 
L 893.002941 -464.04823 
L 894.10502 -468.654802 
L 895.212246 -473.261374 
L 896.305836 -477.867946 
L 897.364546 -482.474518 
L 898.368811 -487.08109 
L 899.303769 -491.687662 
L 900.160664 -496.294235 
L 900.936644 -500.900807 
L 901.633369 -505.507379 
L 902.255095 -510.113951 
L 902.806854 -514.720523 
L 903.293204 -519.327095 
L 903.717721 -523.933667 
L 904.083158 -528.540239 
L 904.392017 -533.146811 
L 904.647222 -537.753383 
L 904.852609 -542.359956 
L 905.013111 -546.966528 
L 905.134609 -551.5731 
L 905.223537 -556.179672 
L 905.286385 -560.786244 
L 905.513615 -560.786244 
L 905.513615 -560.786244 
L 905.576463 -556.179672 
L 905.665391 -551.5731 
L 905.786889 -546.966528 
L 905.947391 -542.359956 
L 906.152778 -537.753383 
L 906.407983 -533.146811 
L 906.716842 -528.540239 
L 907.082279 -523.933667 
L 907.506796 -519.327095 
L 907.993146 -514.720523 
L 908.544905 -510.113951 
L 909.166631 -505.507379 
L 909.863356 -500.900807 
L 910.639336 -496.294235 
L 911.496231 -491.687662 
L 912.431189 -487.08109 
L 913.435454 -482.474518 
L 914.494164 -477.867946 
L 915.587754 -473.261374 
L 916.69498 -468.654802 
L 917.797059 -464.04823 
L 918.881955 -459.441658 
L 919.947635 -454.835086 
L 921.003227 -450.228514 
L 922.067503 -445.621941 
L 923.164877 -441.015369 
L 924.319859 -436.408797 
L 925.551414 -431.802225 
L 926.868732 -427.195653 
L 928.269431 -422.589081 
L 929.740395 -417.982509 
L 931.260579 -413.375937 
L 932.804509 -408.769365 
L 934.345159 -404.162793 
L 935.855355 -399.55622 
L 937.307658 -394.949648 
L 938.67341 -390.343076 
L 939.92207 -385.736504 
L 941.021794 -381.129932 
L 941.941705 -376.52336 
L 942.655551 -371.916788 
L 943.145922 -367.310216 
L 943.40797 -362.703644 
L 943.451814 -358.097072 
L 943.303186 -353.490499 
L 943.002318 -348.883927 
L 942.601256 -344.277355 
L 942.159831 -339.670783 
L 941.740463 -335.064211 
L 941.402021 -330.457639 
L 941.193225 -325.851067 
L 941.146475 -321.244495 
L 941.273319 -316.637923 
L 941.562838 -312.031351 
L 941.983753 -307.424778 
L 942.490201 -302.818206 
L 943.030053 -298.211634 
L 943.553779 -293.605062 
L 944.021532 -288.99849 
L 944.406608 -284.391918 
L 944.694496 -279.785346 
L 944.878162 -275.178774 
L 944.9514 -270.572202 
L 944.902682 -265.96563 
L 944.711669 -261.359057 
L 944.349556 -256.752485 
L 943.783119 -252.145913 
L 942.981124 -247.539341 
L 941.921135 -242.932769 
L 940.594829 -238.326197 
L 939.010579 -233.719625 
L 937.193007 -229.113053 
L 935.180059 -224.506481 
L 933.018625 -219.899909 
L 930.759833 -215.293336 
L 928.454865 -210.686764 
L 926.151779 -206.080192 
L 923.893449 -201.47362 
L 921.716481 -196.867048 
L 919.650858 -192.260476 
L 917.720035 -187.653904 
L 915.941252 -183.047332 
L 914.325875 -178.44076 
L 912.879704 -173.834188 
L 911.603273 -169.227615 
L 910.492228 -164.621043 
L 909.537935 -160.014471 
L 908.728358 -155.407899 
L 908.0492 -150.801327 
L 907.485147 -146.194755 
L 907.021026 -141.588183 
L 906.642678 -136.981611 
L 906.337436 -132.375039 
L 906.094242 -127.768467 
L 905.903469 -123.161894 
L 905.756648 -118.555322 
L 905.646195 -113.94875 
L 905.565253 -109.342178 
L 905.507652 -104.735606 
z
" style="stroke: #3f3f3f; stroke-width: 1.25"/>
    </defs>
    <g clip-path="url(#p7b08b61c9a)">
     <use xlink:href="#m1a24ef0f31" x="0" y="720" style="fill: #3274a1; stroke: #3f3f3f; stroke-width: 1.25"/>
    </g>
   </g>
   <g id="PolyCollection_8">
    <defs>
     <path id="m57f2f0d0a2" d="M 1017.139361 -104.803701 
L 1016.860639 -104.803701 
L 1016.784575 -109.408897 
L 1016.677252 -114.014094 
L 1016.530648 -118.61929 
L 1016.336339 -123.224487 
L 1016.085787 -127.829683 
L 1015.770522 -132.43488 
L 1015.382149 -137.040076 
L 1014.91219 -141.645272 
L 1014.351849 -146.250469 
L 1013.691842 -150.855665 
L 1012.922436 -155.460862 
L 1012.033771 -160.066058 
L 1011.016471 -164.671255 
L 1009.862434 -169.276451 
L 1008.565666 -173.881648 
L 1007.123014 -178.486844 
L 1005.534755 -183.09204 
L 1003.805044 -187.697237 
L 1001.942286 -192.302433 
L 999.959531 -196.90763 
L 997.874925 -201.512826 
L 995.712238 -206.118023 
L 993.501405 -210.723219 
L 991.278937 -215.328416 
L 989.087918 -219.933612 
L 986.977208 -224.538809 
L 984.999403 -229.144005 
L 983.207231 -233.749201 
L 981.648431 -238.354398 
L 980.359753 -242.959594 
L 979.361246 -247.564791 
L 978.652372 -252.169987 
L 978.2113 -256.775184 
L 977.998026 -261.38038 
L 977.960906 -265.985577 
L 978.045095 -270.590773 
L 978.200763 -275.195969 
L 978.38901 -279.801166 
L 978.584185 -284.406362 
L 978.772507 -289.011559 
L 978.94808 -293.616755 
L 979.108086 -298.221952 
L 979.248998 -302.827148 
L 979.365003 -307.432345 
L 979.44888 -312.037541 
L 979.494577 -316.642737 
L 979.500222 -321.247934 
L 979.470247 -325.85313 
L 979.415805 -330.458327 
L 979.353392 -335.063523 
L 979.302268 -339.66872 
L 979.281643 -344.273916 
L 979.308556 -348.879113 
L 979.396982 -353.484309 
L 979.558222 -358.089506 
L 979.802164 -362.694702 
L 980.138842 -367.299898 
L 980.579728 -371.905095 
L 981.138383 -376.510291 
L 981.830247 -381.115488 
L 982.671473 -385.720684 
L 983.676762 -390.325881 
L 984.856291 -394.931077 
L 986.212039 -399.536274 
L 987.734188 -404.14147 
L 989.398583 -408.746666 
L 991.1663 -413.351863 
L 992.986099 -417.957059 
L 994.799849 -422.562256 
L 996.550135 -427.167452 
L 998.188491 -431.772649 
L 999.682356 -436.377845 
L 1001.019043 -440.983042 
L 1002.205778 -445.588238 
L 1003.265906 -450.193434 
L 1004.232344 -454.798631 
L 1005.139985 -459.403827 
L 1006.018877 -464.009024 
L 1006.889572 -468.61422 
L 1007.761332 -473.219417 
L 1008.633044 -477.824613 
L 1009.496067 -482.42981 
L 1010.337932 -487.035006 
L 1011.145803 -491.640202 
L 1011.908953 -496.245399 
L 1012.619935 -500.850595 
L 1013.274566 -505.455792 
L 1013.871137 -510.060988 
L 1014.409364 -514.666185 
L 1014.889537 -519.271381 
L 1015.312109 -523.876578 
L 1015.677738 -528.481774 
L 1015.987654 -533.086971 
L 1016.244082 -537.692167 
L 1016.450539 -542.297363 
L 1016.611853 -546.90256 
L 1016.733909 -551.507756 
L 1016.82319 -556.112953 
L 1016.886243 -560.718149 
L 1017.113757 -560.718149 
L 1017.113757 -560.718149 
L 1017.17681 -556.112953 
L 1017.266091 -551.507756 
L 1017.388147 -546.90256 
L 1017.549461 -542.297363 
L 1017.755918 -537.692167 
L 1018.012346 -533.086971 
L 1018.322262 -528.481774 
L 1018.687891 -523.876578 
L 1019.110463 -519.271381 
L 1019.590636 -514.666185 
L 1020.128863 -510.060988 
L 1020.725434 -505.455792 
L 1021.380065 -500.850595 
L 1022.091047 -496.245399 
L 1022.854197 -491.640202 
L 1023.662068 -487.035006 
L 1024.503933 -482.42981 
L 1025.366956 -477.824613 
L 1026.238668 -473.219417 
L 1027.110428 -468.61422 
L 1027.981123 -464.009024 
L 1028.860015 -459.403827 
L 1029.767656 -454.798631 
L 1030.734094 -450.193434 
L 1031.794222 -445.588238 
L 1032.980957 -440.983042 
L 1034.317644 -436.377845 
L 1035.811509 -431.772649 
L 1037.449865 -427.167452 
L 1039.200151 -422.562256 
L 1041.013901 -417.957059 
L 1042.8337 -413.351863 
L 1044.601417 -408.746666 
L 1046.265812 -404.14147 
L 1047.787961 -399.536274 
L 1049.143709 -394.931077 
L 1050.323238 -390.325881 
L 1051.328527 -385.720684 
L 1052.169753 -381.115488 
L 1052.861617 -376.510291 
L 1053.420272 -371.905095 
L 1053.861158 -367.299898 
L 1054.197836 -362.694702 
L 1054.441778 -358.089506 
L 1054.603018 -353.484309 
L 1054.691444 -348.879113 
L 1054.718357 -344.273916 
L 1054.697732 -339.66872 
L 1054.646608 -335.063523 
L 1054.584195 -330.458327 
L 1054.529753 -325.85313 
L 1054.499778 -321.247934 
L 1054.505423 -316.642737 
L 1054.55112 -312.037541 
L 1054.634997 -307.432345 
L 1054.751002 -302.827148 
L 1054.891914 -298.221952 
L 1055.05192 -293.616755 
L 1055.227493 -289.011559 
L 1055.415815 -284.406362 
L 1055.61099 -279.801166 
L 1055.799237 -275.195969 
L 1055.954905 -270.590773 
L 1056.039094 -265.985577 
L 1056.001974 -261.38038 
L 1055.7887 -256.775184 
L 1055.347628 -252.169987 
L 1054.638754 -247.564791 
L 1053.640247 -242.959594 
L 1052.351569 -238.354398 
L 1050.792769 -233.749201 
L 1049.000597 -229.144005 
L 1047.022792 -224.538809 
L 1044.912082 -219.933612 
L 1042.721063 -215.328416 
L 1040.498595 -210.723219 
L 1038.287762 -206.118023 
L 1036.125075 -201.512826 
L 1034.040469 -196.90763 
L 1032.057714 -192.302433 
L 1030.194956 -187.697237 
L 1028.465245 -183.09204 
L 1026.876986 -178.486844 
L 1025.434334 -173.881648 
L 1024.137566 -169.276451 
L 1022.983529 -164.671255 
L 1021.966229 -160.066058 
L 1021.077564 -155.460862 
L 1020.308158 -150.855665 
L 1019.648151 -146.250469 
L 1019.08781 -141.645272 
L 1018.617851 -137.040076 
L 1018.229478 -132.43488 
L 1017.914213 -127.829683 
L 1017.663661 -123.224487 
L 1017.469352 -118.61929 
L 1017.322748 -114.014094 
L 1017.215425 -109.408897 
L 1017.139361 -104.803701 
z
" style="stroke: #3f3f3f; stroke-width: 1.25"/>
    </defs>
    <g clip-path="url(#p7b08b61c9a)">
     <use xlink:href="#m57f2f0d0a2" x="0" y="720" style="fill: #3274a1; stroke: #3f3f3f; stroke-width: 1.25"/>
    </g>
   </g>
   <g id="PolyCollection_9">
    <defs>
     <path id="mf624b4b5d1" d="M 1128.735972 -106.015307 
L 1128.464028 -106.015307 
L 1128.389048 -110.596026 
L 1128.283334 -115.176746 
L 1128.139276 -119.757465 
L 1127.949025 -124.338185 
L 1127.704738 -128.918904 
L 1127.398639 -133.499624 
L 1127.022861 -138.080344 
L 1126.569122 -142.661063 
L 1126.028376 -147.241783 
L 1125.390613 -151.822502 
L 1124.644928 -156.403222 
L 1123.779873 -160.983941 
L 1122.783973 -165.564661 
L 1121.646271 -170.145381 
L 1120.356798 -174.7261 
L 1118.907042 -179.30682 
L 1117.290643 -183.887539 
L 1115.504553 -188.468259 
L 1113.550799 -193.048978 
L 1111.438654 -197.629698 
L 1109.186774 -202.210418 
L 1106.824698 -206.791137 
L 1104.393171 -211.371857 
L 1101.943051 -215.952576 
L 1099.532823 -220.533296 
L 1097.224976 -225.114015 
L 1095.081513 -229.694735 
L 1093.158847 -234.275454 
L 1091.502378 -238.856174 
L 1090.141299 -243.436894 
L 1089.084537 -248.017613 
L 1088.318995 -252.598333 
L 1087.81113 -257.179052 
L 1087.512208 -261.759772 
L 1087.366513 -266.340491 
L 1087.320734 -270.921211 
L 1087.332149 -275.501931 
L 1087.373492 -280.08265 
L 1087.433414 -284.66337 
L 1087.512877 -289.244089 
L 1087.6191 -293.824809 
L 1087.759314 -298.405528 
L 1087.936304 -302.986248 
L 1088.14687 -307.566967 
L 1088.38312 -312.147687 
L 1088.63561 -316.728407 
L 1088.896915 -321.309126 
L 1089.16439 -325.889846 
L 1089.441419 -330.470565 
L 1089.737078 -335.051285 
L 1090.064587 -339.632004 
L 1090.439079 -344.212724 
L 1090.875162 -348.793444 
L 1091.384586 -353.374163 
L 1091.974303 -357.954883 
L 1092.645222 -362.535602 
L 1093.392102 -367.116322 
L 1094.204964 -371.697041 
L 1095.072154 -376.277761 
L 1095.984597 -380.85848 
L 1096.940145 -385.4392 
L 1097.946472 -390.01992 
L 1099.021012 -394.600639 
L 1100.187176 -399.181359 
L 1101.467261 -403.762078 
L 1102.87378 -408.342798 
L 1104.401817 -412.923517 
L 1106.025048 -417.504237 
L 1107.697155 -422.084957 
L 1109.358769 -426.665676 
L 1110.948344 -431.246396 
L 1112.414098 -435.827115 
L 1113.723855 -440.407835 
L 1114.870211 -444.988554 
L 1115.869925 -449.569274 
L 1116.758011 -454.149993 
L 1117.578396 -458.730713 
L 1118.373696 -463.311433 
L 1119.176591 -467.892152 
L 1120.004565 -472.472872 
L 1120.858721 -477.053591 
L 1121.726299 -481.634311 
L 1122.585703 -486.21503 
L 1123.412468 -490.79575 
L 1124.18462 -495.37647 
L 1124.88635 -499.957189 
L 1125.509518 -504.537909 
L 1126.053148 -509.118628 
L 1126.521573 -513.699348 
L 1126.922033 -518.280067 
L 1127.262521 -522.860787 
L 1127.550332 -527.441506 
L 1127.791472 -532.022226 
L 1127.990762 -536.602946 
L 1128.152319 -541.183665 
L 1128.280094 -545.764385 
L 1128.378228 -550.345104 
L 1128.451147 -554.925824 
L 1128.503423 -559.506543 
L 1128.696577 -559.506543 
L 1128.696577 -559.506543 
L 1128.748853 -554.925824 
L 1128.821772 -550.345104 
L 1128.919906 -545.764385 
L 1129.047681 -541.183665 
L 1129.209238 -536.602946 
L 1129.408528 -532.022226 
L 1129.649668 -527.441506 
L 1129.937479 -522.860787 
L 1130.277967 -518.280067 
L 1130.678427 -513.699348 
L 1131.146852 -509.118628 
L 1131.690482 -504.537909 
L 1132.31365 -499.957189 
L 1133.01538 -495.37647 
L 1133.787532 -490.79575 
L 1134.614297 -486.21503 
L 1135.473701 -481.634311 
L 1136.341279 -477.053591 
L 1137.195435 -472.472872 
L 1138.023409 -467.892152 
L 1138.826304 -463.311433 
L 1139.621604 -458.730713 
L 1140.441989 -454.149993 
L 1141.330075 -449.569274 
L 1142.329789 -444.988554 
L 1143.476145 -440.407835 
L 1144.785902 -435.827115 
L 1146.251656 -431.246396 
L 1147.841231 -426.665676 
L 1149.502845 -422.084957 
L 1151.174952 -417.504237 
L 1152.798183 -412.923517 
L 1154.32622 -408.342798 
L 1155.732739 -403.762078 
L 1157.012824 -399.181359 
L 1158.178988 -394.600639 
L 1159.253528 -390.01992 
L 1160.259855 -385.4392 
L 1161.215403 -380.85848 
L 1162.127846 -376.277761 
L 1162.995036 -371.697041 
L 1163.807898 -367.116322 
L 1164.554778 -362.535602 
L 1165.225697 -357.954883 
L 1165.815414 -353.374163 
L 1166.324838 -348.793444 
L 1166.760921 -344.212724 
L 1167.135413 -339.632004 
L 1167.462922 -335.051285 
L 1167.758581 -330.470565 
L 1168.03561 -325.889846 
L 1168.303085 -321.309126 
L 1168.56439 -316.728407 
L 1168.81688 -312.147687 
L 1169.05313 -307.566967 
L 1169.263696 -302.986248 
L 1169.440686 -298.405528 
L 1169.5809 -293.824809 
L 1169.687123 -289.244089 
L 1169.766586 -284.66337 
L 1169.826508 -280.08265 
L 1169.867851 -275.501931 
L 1169.879266 -270.921211 
L 1169.833487 -266.340491 
L 1169.687792 -261.759772 
L 1169.38887 -257.179052 
L 1168.881005 -252.598333 
L 1168.115463 -248.017613 
L 1167.058701 -243.436894 
L 1165.697622 -238.856174 
L 1164.041153 -234.275454 
L 1162.118487 -229.694735 
L 1159.975024 -225.114015 
L 1157.667177 -220.533296 
L 1155.256949 -215.952576 
L 1152.806829 -211.371857 
L 1150.375302 -206.791137 
L 1148.013226 -202.210418 
L 1145.761346 -197.629698 
L 1143.649201 -193.048978 
L 1141.695447 -188.468259 
L 1139.909357 -183.887539 
L 1138.292958 -179.30682 
L 1136.843202 -174.7261 
L 1135.553729 -170.145381 
L 1134.416027 -165.564661 
L 1133.420127 -160.983941 
L 1132.555072 -156.403222 
L 1131.809387 -151.822502 
L 1131.171624 -147.241783 
L 1130.630878 -142.661063 
L 1130.177139 -138.080344 
L 1129.801361 -133.499624 
L 1129.495262 -128.918904 
L 1129.250975 -124.338185 
L 1129.060724 -119.757465 
L 1128.916666 -115.176746 
L 1128.810952 -110.596026 
L 1128.735972 -106.015307 
z
" style="stroke: #3f3f3f; stroke-width: 1.25"/>
    </defs>
    <g clip-path="url(#p7b08b61c9a)">
     <use xlink:href="#mf624b4b5d1" x="0" y="720" style="fill: #3274a1; stroke: #3f3f3f; stroke-width: 1.25"/>
    </g>
   </g>
   <g id="PolyCollection_10">
    <defs>
     <path id="m1cffa6dc51" d="M 1240.386919 -105.807026 
L 1240.013081 -105.807026 
L 1239.919944 -110.2177 
L 1239.793638 -114.628374 
L 1239.628152 -119.039048 
L 1239.41815 -123.449722 
L 1239.159155 -127.860395 
L 1238.847324 -132.271069 
L 1238.478765 -136.681743 
L 1238.048464 -141.092417 
L 1237.549097 -145.503091 
L 1236.970066 -149.913765 
L 1236.297167 -154.324438 
L 1235.513122 -158.735112 
L 1234.599009 -163.145786 
L 1233.536341 -167.55646 
L 1232.309356 -171.967134 
L 1230.90705 -176.377808 
L 1229.324577 -180.788481 
L 1227.563907 -185.199155 
L 1225.633831 -189.609829 
L 1223.54963 -194.020503 
L 1221.332692 -198.431177 
L 1219.0103 -202.84185 
L 1216.615613 -207.252524 
L 1214.187693 -211.663198 
L 1211.771287 -216.073872 
L 1209.416045 -220.484546 
L 1207.174873 -224.89522 
L 1205.101238 -229.305893 
L 1203.245446 -233.716567 
L 1201.650203 -238.127241 
L 1200.346069 -242.537915 
L 1199.347662 -246.948589 
L 1198.651541 -251.359263 
L 1198.236464 -255.769936 
L 1198.066229 -260.18061 
L 1198.094642 -264.591284 
L 1198.271569 -269.001958 
L 1198.548729 -273.412632 
L 1198.88403 -277.823305 
L 1199.243766 -282.233979 
L 1199.602762 -286.644653 
L 1199.943171 -291.055327 
L 1200.252936 -295.466001 
L 1200.52479 -299.876675 
L 1200.756168 -304.287348 
L 1200.949796 -308.698022 
L 1201.114278 -313.108696 
L 1201.263918 -317.51937 
L 1201.417306 -321.930044 
L 1201.59476 -326.340718 
L 1201.815209 -330.751391 
L 1202.093442 -335.162065 
L 1202.438539 -339.572739 
L 1202.853878 -343.983413 
L 1203.338557 -348.394087 
L 1203.889539 -352.804761 
L 1204.50364 -357.215434 
L 1205.178669 -361.626108 
L 1205.913447 -366.036782 
L 1206.707026 -370.447456 
L 1207.557764 -374.85813 
L 1208.462933 -379.268803 
L 1209.419234 -383.679477 
L 1210.424016 -388.090151 
L 1211.476571 -392.500825 
L 1212.578636 -396.911499 
L 1213.733491 -401.322173 
L 1214.943578 -405.732846 
L 1216.207227 -410.14352 
L 1217.515602 -414.554194 
L 1218.851092 -418.964868 
L 1220.188034 -423.375542 
L 1221.49599 -427.786216 
L 1222.744938 -432.196889 
L 1223.911134 -436.607563 
L 1224.982077 -441.018237 
L 1225.959224 -445.428911 
L 1226.857694 -449.839585 
L 1227.702984 -454.250259 
L 1228.525527 -458.660932 
L 1229.354387 -463.071606 
L 1230.211551 -467.48228 
L 1231.108004 -471.892954 
L 1232.04225 -476.303628 
L 1233.001323 -480.714301 
L 1233.963752 -485.124975 
L 1234.903638 -489.535649 
L 1235.794881 -493.946323 
L 1236.614781 -498.356997 
L 1237.346495 -502.767671 
L 1237.980189 -507.178344 
L 1238.513012 -511.589018 
L 1238.948166 -515.999692 
L 1239.293474 -520.410366 
L 1239.559754 -524.82104 
L 1239.759292 -529.231714 
L 1239.904558 -533.642387 
L 1240.007261 -538.053061 
L 1240.077738 -542.463735 
L 1240.322262 -542.463735 
L 1240.322262 -542.463735 
L 1240.392739 -538.053061 
L 1240.495442 -533.642387 
L 1240.640708 -529.231714 
L 1240.840246 -524.82104 
L 1241.106526 -520.410366 
L 1241.451834 -515.999692 
L 1241.886988 -511.589018 
L 1242.419811 -507.178344 
L 1243.053505 -502.767671 
L 1243.785219 -498.356997 
L 1244.605119 -493.946323 
L 1245.496362 -489.535649 
L 1246.436248 -485.124975 
L 1247.398677 -480.714301 
L 1248.35775 -476.303628 
L 1249.291996 -471.892954 
L 1250.188449 -467.48228 
L 1251.045613 -463.071606 
L 1251.874473 -458.660932 
L 1252.697016 -454.250259 
L 1253.542306 -449.839585 
L 1254.440776 -445.428911 
L 1255.417923 -441.018237 
L 1256.488866 -436.607563 
L 1257.655062 -432.196889 
L 1258.90401 -427.786216 
L 1260.211966 -423.375542 
L 1261.548908 -418.964868 
L 1262.884398 -414.554194 
L 1264.192773 -410.14352 
L 1265.456422 -405.732846 
L 1266.666509 -401.322173 
L 1267.821364 -396.911499 
L 1268.923429 -392.500825 
L 1269.975984 -388.090151 
L 1270.980766 -383.679477 
L 1271.937067 -379.268803 
L 1272.842236 -374.85813 
L 1273.692974 -370.447456 
L 1274.486553 -366.036782 
L 1275.221331 -361.626108 
L 1275.89636 -357.215434 
L 1276.510461 -352.804761 
L 1277.061443 -348.394087 
L 1277.546122 -343.983413 
L 1277.961461 -339.572739 
L 1278.306558 -335.162065 
L 1278.584791 -330.751391 
L 1278.80524 -326.340718 
L 1278.982694 -321.930044 
L 1279.136082 -317.51937 
L 1279.285722 -313.108696 
L 1279.450204 -308.698022 
L 1279.643832 -304.287348 
L 1279.87521 -299.876675 
L 1280.147064 -295.466001 
L 1280.456829 -291.055327 
L 1280.797238 -286.644653 
L 1281.156234 -282.233979 
L 1281.51597 -277.823305 
L 1281.851271 -273.412632 
L 1282.128431 -269.001958 
L 1282.305358 -264.591284 
L 1282.333771 -260.18061 
L 1282.163536 -255.769936 
L 1281.748459 -251.359263 
L 1281.052338 -246.948589 
L 1280.053931 -242.537915 
L 1278.749797 -238.127241 
L 1277.154554 -233.716567 
L 1275.298762 -229.305893 
L 1273.225127 -224.89522 
L 1270.983955 -220.484546 
L 1268.628713 -216.073872 
L 1266.212307 -211.663198 
L 1263.784387 -207.252524 
L 1261.3897 -202.84185 
L 1259.067308 -198.431177 
L 1256.85037 -194.020503 
L 1254.766169 -189.609829 
L 1252.836093 -185.199155 
L 1251.075423 -180.788481 
L 1249.49295 -176.377808 
L 1248.090644 -171.967134 
L 1246.863659 -167.55646 
L 1245.800991 -163.145786 
L 1244.886878 -158.735112 
L 1244.102833 -154.324438 
L 1243.429934 -149.913765 
L 1242.850903 -145.503091 
L 1242.351536 -141.092417 
L 1241.921235 -136.681743 
L 1241.552676 -132.271069 
L 1241.240845 -127.860395 
L 1240.98185 -123.449722 
L 1240.771848 -119.039048 
L 1240.606362 -114.628374 
L 1240.480056 -110.2177 
L 1240.386919 -105.807026 
z
" style="stroke: #3f3f3f; stroke-width: 1.25"/>
    </defs>
    <g clip-path="url(#p7b08b61c9a)">
     <use xlink:href="#m1cffa6dc51" x="0" y="720" style="fill: #3274a1; stroke: #3f3f3f; stroke-width: 1.25"/>
    </g>
   </g>
   <g id="matplotlib.axis_1">
    <g id="xtick_1">
     <g id="line2d_1">
      <defs>
       <path id="m9c32498bb9" d="M 0 0 
L 0 3.5 
" style="stroke: #000000; stroke-width: 0.8"/>
      </defs>
      <g>
       <use xlink:href="#m9c32498bb9" x="235.8" y="640.8" style="stroke: #000000; stroke-width: 0.8"/>
      </g>
     </g>
     <g id="text_1">
      <!-- 0 -->
      <g transform="translate(232.61875 655.398438) scale(0.1 -0.1)">
       <defs>
        <path id="DejaVuSans-30" d="M 2034 4250 
Q 1547 4250 1301 3770 
Q 1056 3291 1056 2328 
Q 1056 1369 1301 889 
Q 1547 409 2034 409 
Q 2525 409 2770 889 
Q 3016 1369 3016 2328 
Q 3016 3291 2770 3770 
Q 2525 4250 2034 4250 
z
M 2034 4750 
Q 2819 4750 3233 4129 
Q 3647 3509 3647 2328 
Q 3647 1150 3233 529 
Q 2819 -91 2034 -91 
Q 1250 -91 836 529 
Q 422 1150 422 2328 
Q 422 3509 836 4129 
Q 1250 4750 2034 4750 
z
" transform="scale(0.015625)"/>
       </defs>
       <use xlink:href="#DejaVuSans-30"/>
      </g>
     </g>
    </g>
    <g id="xtick_2">
     <g id="line2d_2">
      <g>
       <use xlink:href="#m9c32498bb9" x="347.4" y="640.8" style="stroke: #000000; stroke-width: 0.8"/>
      </g>
     </g>
     <g id="text_2">
      <!-- 1 -->
      <g transform="translate(344.21875 655.398438) scale(0.1 -0.1)">
       <defs>
        <path id="DejaVuSans-31" d="M 794 531 
L 1825 531 
L 1825 4091 
L 703 3866 
L 703 4441 
L 1819 4666 
L 2450 4666 
L 2450 531 
L 3481 531 
L 3481 0 
L 794 0 
L 794 531 
z
" transform="scale(0.015625)"/>
       </defs>
       <use xlink:href="#DejaVuSans-31"/>
      </g>
     </g>
    </g>
    <g id="xtick_3">
     <g id="line2d_3">
      <g>
       <use xlink:href="#m9c32498bb9" x="459" y="640.8" style="stroke: #000000; stroke-width: 0.8"/>
      </g>
     </g>
     <g id="text_3">
      <!-- 2 -->
      <g transform="translate(455.81875 655.398438) scale(0.1 -0.1)">
       <defs>
        <path id="DejaVuSans-32" d="M 1228 531 
L 3431 531 
L 3431 0 
L 469 0 
L 469 531 
Q 828 903 1448 1529 
Q 2069 2156 2228 2338 
Q 2531 2678 2651 2914 
Q 2772 3150 2772 3378 
Q 2772 3750 2511 3984 
Q 2250 4219 1831 4219 
Q 1534 4219 1204 4116 
Q 875 4013 500 3803 
L 500 4441 
Q 881 4594 1212 4672 
Q 1544 4750 1819 4750 
Q 2544 4750 2975 4387 
Q 3406 4025 3406 3419 
Q 3406 3131 3298 2873 
Q 3191 2616 2906 2266 
Q 2828 2175 2409 1742 
Q 1991 1309 1228 531 
z
" transform="scale(0.015625)"/>
       </defs>
       <use xlink:href="#DejaVuSans-32"/>
      </g>
     </g>
    </g>
    <g id="xtick_4">
     <g id="line2d_4">
      <g>
       <use xlink:href="#m9c32498bb9" x="570.6" y="640.8" style="stroke: #000000; stroke-width: 0.8"/>
      </g>
     </g>
     <g id="text_4">
      <!-- 3 -->
      <g transform="translate(567.41875 655.398438) scale(0.1 -0.1)">
       <defs>
        <path id="DejaVuSans-33" d="M 2597 2516 
Q 3050 2419 3304 2112 
Q 3559 1806 3559 1356 
Q 3559 666 3084 287 
Q 2609 -91 1734 -91 
Q 1441 -91 1130 -33 
Q 819 25 488 141 
L 488 750 
Q 750 597 1062 519 
Q 1375 441 1716 441 
Q 2309 441 2620 675 
Q 2931 909 2931 1356 
Q 2931 1769 2642 2001 
Q 2353 2234 1838 2234 
L 1294 2234 
L 1294 2753 
L 1863 2753 
Q 2328 2753 2575 2939 
Q 2822 3125 2822 3475 
Q 2822 3834 2567 4026 
Q 2313 4219 1838 4219 
Q 1578 4219 1281 4162 
Q 984 4106 628 3988 
L 628 4550 
Q 988 4650 1302 4700 
Q 1616 4750 1894 4750 
Q 2613 4750 3031 4423 
Q 3450 4097 3450 3541 
Q 3450 3153 3228 2886 
Q 3006 2619 2597 2516 
z
" transform="scale(0.015625)"/>
       </defs>
       <use xlink:href="#DejaVuSans-33"/>
      </g>
     </g>
    </g>
    <g id="xtick_5">
     <g id="line2d_5">
      <g>
       <use xlink:href="#m9c32498bb9" x="682.2" y="640.8" style="stroke: #000000; stroke-width: 0.8"/>
      </g>
     </g>
     <g id="text_5">
      <!-- 4 -->
      <g transform="translate(679.01875 655.398438) scale(0.1 -0.1)">
       <defs>
        <path id="DejaVuSans-34" d="M 2419 4116 
L 825 1625 
L 2419 1625 
L 2419 4116 
z
M 2253 4666 
L 3047 4666 
L 3047 1625 
L 3713 1625 
L 3713 1100 
L 3047 1100 
L 3047 0 
L 2419 0 
L 2419 1100 
L 313 1100 
L 313 1709 
L 2253 4666 
z
" transform="scale(0.015625)"/>
       </defs>
       <use xlink:href="#DejaVuSans-34"/>
      </g>
     </g>
    </g>
    <g id="xtick_6">
     <g id="line2d_6">
      <g>
       <use xlink:href="#m9c32498bb9" x="793.8" y="640.8" style="stroke: #000000; stroke-width: 0.8"/>
      </g>
     </g>
     <g id="text_6">
      <!-- 5 -->
      <g transform="translate(790.61875 655.398438) scale(0.1 -0.1)">
       <defs>
        <path id="DejaVuSans-35" d="M 691 4666 
L 3169 4666 
L 3169 4134 
L 1269 4134 
L 1269 2991 
Q 1406 3038 1543 3061 
Q 1681 3084 1819 3084 
Q 2600 3084 3056 2656 
Q 3513 2228 3513 1497 
Q 3513 744 3044 326 
Q 2575 -91 1722 -91 
Q 1428 -91 1123 -41 
Q 819 9 494 109 
L 494 744 
Q 775 591 1075 516 
Q 1375 441 1709 441 
Q 2250 441 2565 725 
Q 2881 1009 2881 1497 
Q 2881 1984 2565 2268 
Q 2250 2553 1709 2553 
Q 1456 2553 1204 2497 
Q 953 2441 691 2322 
L 691 4666 
z
" transform="scale(0.015625)"/>
       </defs>
       <use xlink:href="#DejaVuSans-35"/>
      </g>
     </g>
    </g>
    <g id="xtick_7">
     <g id="line2d_7">
      <g>
       <use xlink:href="#m9c32498bb9" x="905.4" y="640.8" style="stroke: #000000; stroke-width: 0.8"/>
      </g>
     </g>
     <g id="text_7">
      <!-- 6 -->
      <g transform="translate(902.21875 655.398438) scale(0.1 -0.1)">
       <defs>
        <path id="DejaVuSans-36" d="M 2113 2584 
Q 1688 2584 1439 2293 
Q 1191 2003 1191 1497 
Q 1191 994 1439 701 
Q 1688 409 2113 409 
Q 2538 409 2786 701 
Q 3034 994 3034 1497 
Q 3034 2003 2786 2293 
Q 2538 2584 2113 2584 
z
M 3366 4563 
L 3366 3988 
Q 3128 4100 2886 4159 
Q 2644 4219 2406 4219 
Q 1781 4219 1451 3797 
Q 1122 3375 1075 2522 
Q 1259 2794 1537 2939 
Q 1816 3084 2150 3084 
Q 2853 3084 3261 2657 
Q 3669 2231 3669 1497 
Q 3669 778 3244 343 
Q 2819 -91 2113 -91 
Q 1303 -91 875 529 
Q 447 1150 447 2328 
Q 447 3434 972 4092 
Q 1497 4750 2381 4750 
Q 2619 4750 2861 4703 
Q 3103 4656 3366 4563 
z
" transform="scale(0.015625)"/>
       </defs>
       <use xlink:href="#DejaVuSans-36"/>
      </g>
     </g>
    </g>
    <g id="xtick_8">
     <g id="line2d_8">
      <g>
       <use xlink:href="#m9c32498bb9" x="1017" y="640.8" style="stroke: #000000; stroke-width: 0.8"/>
      </g>
     </g>
     <g id="text_8">
      <!-- 7 -->
      <g transform="translate(1013.81875 655.398438) scale(0.1 -0.1)">
       <defs>
        <path id="DejaVuSans-37" d="M 525 4666 
L 3525 4666 
L 3525 4397 
L 1831 0 
L 1172 0 
L 2766 4134 
L 525 4134 
L 525 4666 
z
" transform="scale(0.015625)"/>
       </defs>
       <use xlink:href="#DejaVuSans-37"/>
      </g>
     </g>
    </g>
    <g id="xtick_9">
     <g id="line2d_9">
      <g>
       <use xlink:href="#m9c32498bb9" x="1128.6" y="640.8" style="stroke: #000000; stroke-width: 0.8"/>
      </g>
     </g>
     <g id="text_9">
      <!-- 8 -->
      <g transform="translate(1125.41875 655.398438) scale(0.1 -0.1)">
       <defs>
        <path id="DejaVuSans-38" d="M 2034 2216 
Q 1584 2216 1326 1975 
Q 1069 1734 1069 1313 
Q 1069 891 1326 650 
Q 1584 409 2034 409 
Q 2484 409 2743 651 
Q 3003 894 3003 1313 
Q 3003 1734 2745 1975 
Q 2488 2216 2034 2216 
z
M 1403 2484 
Q 997 2584 770 2862 
Q 544 3141 544 3541 
Q 544 4100 942 4425 
Q 1341 4750 2034 4750 
Q 2731 4750 3128 4425 
Q 3525 4100 3525 3541 
Q 3525 3141 3298 2862 
Q 3072 2584 2669 2484 
Q 3125 2378 3379 2068 
Q 3634 1759 3634 1313 
Q 3634 634 3220 271 
Q 2806 -91 2034 -91 
Q 1263 -91 848 271 
Q 434 634 434 1313 
Q 434 1759 690 2068 
Q 947 2378 1403 2484 
z
M 1172 3481 
Q 1172 3119 1398 2916 
Q 1625 2713 2034 2713 
Q 2441 2713 2670 2916 
Q 2900 3119 2900 3481 
Q 2900 3844 2670 4047 
Q 2441 4250 2034 4250 
Q 1625 4250 1398 4047 
Q 1172 3844 1172 3481 
z
" transform="scale(0.015625)"/>
       </defs>
       <use xlink:href="#DejaVuSans-38"/>
      </g>
     </g>
    </g>
    <g id="xtick_10">
     <g id="line2d_10">
      <g>
       <use xlink:href="#m9c32498bb9" x="1240.2" y="640.8" style="stroke: #000000; stroke-width: 0.8"/>
      </g>
     </g>
     <g id="text_10">
      <!-- 9 -->
      <g transform="translate(1237.01875 655.398438) scale(0.1 -0.1)">
       <defs>
        <path id="DejaVuSans-39" d="M 703 97 
L 703 672 
Q 941 559 1184 500 
Q 1428 441 1663 441 
Q 2288 441 2617 861 
Q 2947 1281 2994 2138 
Q 2813 1869 2534 1725 
Q 2256 1581 1919 1581 
Q 1219 1581 811 2004 
Q 403 2428 403 3163 
Q 403 3881 828 4315 
Q 1253 4750 1959 4750 
Q 2769 4750 3195 4129 
Q 3622 3509 3622 2328 
Q 3622 1225 3098 567 
Q 2575 -91 1691 -91 
Q 1453 -91 1209 -44 
Q 966 3 703 97 
z
M 1959 2075 
Q 2384 2075 2632 2365 
Q 2881 2656 2881 3163 
Q 2881 3666 2632 3958 
Q 2384 4250 1959 4250 
Q 1534 4250 1286 3958 
Q 1038 3666 1038 3163 
Q 1038 2656 1286 2365 
Q 1534 2075 1959 2075 
z
" transform="scale(0.015625)"/>
       </defs>
       <use xlink:href="#DejaVuSans-39"/>
      </g>
     </g>
    </g>
    <g id="text_11">
     <!-- iteration -->
     <g transform="translate(716.877344 669.076563) scale(0.1 -0.1)">
      <defs>
       <path id="DejaVuSans-69" d="M 603 3500 
L 1178 3500 
L 1178 0 
L 603 0 
L 603 3500 
z
M 603 4863 
L 1178 4863 
L 1178 4134 
L 603 4134 
L 603 4863 
z
" transform="scale(0.015625)"/>
       <path id="DejaVuSans-74" d="M 1172 4494 
L 1172 3500 
L 2356 3500 
L 2356 3053 
L 1172 3053 
L 1172 1153 
Q 1172 725 1289 603 
Q 1406 481 1766 481 
L 2356 481 
L 2356 0 
L 1766 0 
Q 1100 0 847 248 
Q 594 497 594 1153 
L 594 3053 
L 172 3053 
L 172 3500 
L 594 3500 
L 594 4494 
L 1172 4494 
z
" transform="scale(0.015625)"/>
       <path id="DejaVuSans-65" d="M 3597 1894 
L 3597 1613 
L 953 1613 
Q 991 1019 1311 708 
Q 1631 397 2203 397 
Q 2534 397 2845 478 
Q 3156 559 3463 722 
L 3463 178 
Q 3153 47 2828 -22 
Q 2503 -91 2169 -91 
Q 1331 -91 842 396 
Q 353 884 353 1716 
Q 353 2575 817 3079 
Q 1281 3584 2069 3584 
Q 2775 3584 3186 3129 
Q 3597 2675 3597 1894 
z
M 3022 2063 
Q 3016 2534 2758 2815 
Q 2500 3097 2075 3097 
Q 1594 3097 1305 2825 
Q 1016 2553 972 2059 
L 3022 2063 
z
" transform="scale(0.015625)"/>
       <path id="DejaVuSans-72" d="M 2631 2963 
Q 2534 3019 2420 3045 
Q 2306 3072 2169 3072 
Q 1681 3072 1420 2755 
Q 1159 2438 1159 1844 
L 1159 0 
L 581 0 
L 581 3500 
L 1159 3500 
L 1159 2956 
Q 1341 3275 1631 3429 
Q 1922 3584 2338 3584 
Q 2397 3584 2469 3576 
Q 2541 3569 2628 3553 
L 2631 2963 
z
" transform="scale(0.015625)"/>
       <path id="DejaVuSans-61" d="M 2194 1759 
Q 1497 1759 1228 1600 
Q 959 1441 959 1056 
Q 959 750 1161 570 
Q 1363 391 1709 391 
Q 2188 391 2477 730 
Q 2766 1069 2766 1631 
L 2766 1759 
L 2194 1759 
z
M 3341 1997 
L 3341 0 
L 2766 0 
L 2766 531 
Q 2569 213 2275 61 
Q 1981 -91 1556 -91 
Q 1019 -91 701 211 
Q 384 513 384 1019 
Q 384 1609 779 1909 
Q 1175 2209 1959 2209 
L 2766 2209 
L 2766 2266 
Q 2766 2663 2505 2880 
Q 2244 3097 1772 3097 
Q 1472 3097 1187 3025 
Q 903 2953 641 2809 
L 641 3341 
Q 956 3463 1253 3523 
Q 1550 3584 1831 3584 
Q 2591 3584 2966 3190 
Q 3341 2797 3341 1997 
z
" transform="scale(0.015625)"/>
       <path id="DejaVuSans-6f" d="M 1959 3097 
Q 1497 3097 1228 2736 
Q 959 2375 959 1747 
Q 959 1119 1226 758 
Q 1494 397 1959 397 
Q 2419 397 2687 759 
Q 2956 1122 2956 1747 
Q 2956 2369 2687 2733 
Q 2419 3097 1959 3097 
z
M 1959 3584 
Q 2709 3584 3137 3096 
Q 3566 2609 3566 1747 
Q 3566 888 3137 398 
Q 2709 -91 1959 -91 
Q 1206 -91 779 398 
Q 353 888 353 1747 
Q 353 2609 779 3096 
Q 1206 3584 1959 3584 
z
" transform="scale(0.015625)"/>
       <path id="DejaVuSans-6e" d="M 3513 2113 
L 3513 0 
L 2938 0 
L 2938 2094 
Q 2938 2591 2744 2837 
Q 2550 3084 2163 3084 
Q 1697 3084 1428 2787 
Q 1159 2491 1159 1978 
L 1159 0 
L 581 0 
L 581 3500 
L 1159 3500 
L 1159 2956 
Q 1366 3272 1645 3428 
Q 1925 3584 2291 3584 
Q 2894 3584 3203 3211 
Q 3513 2838 3513 2113 
z
" transform="scale(0.015625)"/>
      </defs>
      <use xlink:href="#DejaVuSans-69"/>
      <use xlink:href="#DejaVuSans-74" x="27.783203"/>
      <use xlink:href="#DejaVuSans-65" x="66.992188"/>
      <use xlink:href="#DejaVuSans-72" x="128.515625"/>
      <use xlink:href="#DejaVuSans-61" x="169.628906"/>
      <use xlink:href="#DejaVuSans-74" x="230.908203"/>
      <use xlink:href="#DejaVuSans-69" x="270.117188"/>
      <use xlink:href="#DejaVuSans-6f" x="297.900391"/>
      <use xlink:href="#DejaVuSans-6e" x="359.082031"/>
     </g>
    </g>
   </g>
   <g id="matplotlib.axis_2">
    <g id="ytick_1">
     <g id="line2d_11">
      <defs>
       <path id="mfaa9066869" d="M 0 0 
L -3.5 0 
" style="stroke: #000000; stroke-width: 0.8"/>
      </defs>
      <g>
       <use xlink:href="#mfaa9066869" x="180" y="623.307337" style="stroke: #000000; stroke-width: 0.8"/>
      </g>
     </g>
     <g id="text_12">
      <!-- 0.2 -->
      <g transform="translate(148.717187 627.106556) scale(0.1 -0.1)">
       <defs>
        <path id="DejaVuSans-2212" d="M 678 2272 
L 4684 2272 
L 4684 1741 
L 678 1741 
L 678 2272 
z
" transform="scale(0.015625)"/>
        <path id="DejaVuSans-2e" d="M 684 794 
L 1344 794 
L 1344 0 
L 684 0 
L 684 794 
z
" transform="scale(0.015625)"/>
       </defs>
       <use xlink:href="#DejaVuSans-2212"/>
       <use xlink:href="#DejaVuSans-30" x="83.789062"/>
       <use xlink:href="#DejaVuSans-2e" x="147.412109"/>
       <use xlink:href="#DejaVuSans-32" x="179.199219"/>
      </g>
     </g>
    </g>
    <g id="ytick_2">
     <g id="line2d_12">
      <g>
       <use xlink:href="#mfaa9066869" x="180" y="545.784966" style="stroke: #000000; stroke-width: 0.8"/>
      </g>
     </g>
     <g id="text_13">
      <!-- 0.0 -->
      <g transform="translate(157.096875 549.584185) scale(0.1 -0.1)">
       <use xlink:href="#DejaVuSans-30"/>
       <use xlink:href="#DejaVuSans-2e" x="63.623047"/>
       <use xlink:href="#DejaVuSans-30" x="95.410156"/>
      </g>
     </g>
    </g>
    <g id="ytick_3">
     <g id="line2d_13">
      <g>
       <use xlink:href="#mfaa9066869" x="180" y="468.262595" style="stroke: #000000; stroke-width: 0.8"/>
      </g>
     </g>
     <g id="text_14">
      <!-- 0.2 -->
      <g transform="translate(157.096875 472.061813) scale(0.1 -0.1)">
       <use xlink:href="#DejaVuSans-30"/>
       <use xlink:href="#DejaVuSans-2e" x="63.623047"/>
       <use xlink:href="#DejaVuSans-32" x="95.410156"/>
      </g>
     </g>
    </g>
    <g id="ytick_4">
     <g id="line2d_14">
      <g>
       <use xlink:href="#mfaa9066869" x="180" y="390.740224" style="stroke: #000000; stroke-width: 0.8"/>
      </g>
     </g>
     <g id="text_15">
      <!-- 0.4 -->
      <g transform="translate(157.096875 394.539442) scale(0.1 -0.1)">
       <use xlink:href="#DejaVuSans-30"/>
       <use xlink:href="#DejaVuSans-2e" x="63.623047"/>
       <use xlink:href="#DejaVuSans-34" x="95.410156"/>
      </g>
     </g>
    </g>
    <g id="ytick_5">
     <g id="line2d_15">
      <g>
       <use xlink:href="#mfaa9066869" x="180" y="313.217852" style="stroke: #000000; stroke-width: 0.8"/>
      </g>
     </g>
     <g id="text_16">
      <!-- 0.6 -->
      <g transform="translate(157.096875 317.017071) scale(0.1 -0.1)">
       <use xlink:href="#DejaVuSans-30"/>
       <use xlink:href="#DejaVuSans-2e" x="63.623047"/>
       <use xlink:href="#DejaVuSans-36" x="95.410156"/>
      </g>
     </g>
    </g>
    <g id="ytick_6">
     <g id="line2d_16">
      <g>
       <use xlink:href="#mfaa9066869" x="180" y="235.695481" style="stroke: #000000; stroke-width: 0.8"/>
      </g>
     </g>
     <g id="text_17">
      <!-- 0.8 -->
      <g transform="translate(157.096875 239.4947) scale(0.1 -0.1)">
       <use xlink:href="#DejaVuSans-30"/>
       <use xlink:href="#DejaVuSans-2e" x="63.623047"/>
       <use xlink:href="#DejaVuSans-38" x="95.410156"/>
      </g>
     </g>
    </g>
    <g id="ytick_7">
     <g id="line2d_17">
      <g>
       <use xlink:href="#mfaa9066869" x="180" y="158.17311" style="stroke: #000000; stroke-width: 0.8"/>
      </g>
     </g>
     <g id="text_18">
      <!-- 1.0 -->
      <g transform="translate(157.096875 161.972329) scale(0.1 -0.1)">
       <use xlink:href="#DejaVuSans-31"/>
       <use xlink:href="#DejaVuSans-2e" x="63.623047"/>
       <use xlink:href="#DejaVuSans-30" x="95.410156"/>
      </g>
     </g>
    </g>
    <g id="text_19">
     <!-- cosine similarity -->
     <g transform="translate(142.6375 404.307031) rotate(-90) scale(0.1 -0.1)">
      <defs>
       <path id="DejaVuSans-63" d="M 3122 3366 
L 3122 2828 
Q 2878 2963 2633 3030 
Q 2388 3097 2138 3097 
Q 1578 3097 1268 2742 
Q 959 2388 959 1747 
Q 959 1106 1268 751 
Q 1578 397 2138 397 
Q 2388 397 2633 464 
Q 2878 531 3122 666 
L 3122 134 
Q 2881 22 2623 -34 
Q 2366 -91 2075 -91 
Q 1284 -91 818 406 
Q 353 903 353 1747 
Q 353 2603 823 3093 
Q 1294 3584 2113 3584 
Q 2378 3584 2631 3529 
Q 2884 3475 3122 3366 
z
" transform="scale(0.015625)"/>
       <path id="DejaVuSans-73" d="M 2834 3397 
L 2834 2853 
Q 2591 2978 2328 3040 
Q 2066 3103 1784 3103 
Q 1356 3103 1142 2972 
Q 928 2841 928 2578 
Q 928 2378 1081 2264 
Q 1234 2150 1697 2047 
L 1894 2003 
Q 2506 1872 2764 1633 
Q 3022 1394 3022 966 
Q 3022 478 2636 193 
Q 2250 -91 1575 -91 
Q 1294 -91 989 -36 
Q 684 19 347 128 
L 347 722 
Q 666 556 975 473 
Q 1284 391 1588 391 
Q 1994 391 2212 530 
Q 2431 669 2431 922 
Q 2431 1156 2273 1281 
Q 2116 1406 1581 1522 
L 1381 1569 
Q 847 1681 609 1914 
Q 372 2147 372 2553 
Q 372 3047 722 3315 
Q 1072 3584 1716 3584 
Q 2034 3584 2315 3537 
Q 2597 3491 2834 3397 
z
" transform="scale(0.015625)"/>
       <path id="DejaVuSans-20" transform="scale(0.015625)"/>
       <path id="DejaVuSans-6d" d="M 3328 2828 
Q 3544 3216 3844 3400 
Q 4144 3584 4550 3584 
Q 5097 3584 5394 3201 
Q 5691 2819 5691 2113 
L 5691 0 
L 5113 0 
L 5113 2094 
Q 5113 2597 4934 2840 
Q 4756 3084 4391 3084 
Q 3944 3084 3684 2787 
Q 3425 2491 3425 1978 
L 3425 0 
L 2847 0 
L 2847 2094 
Q 2847 2600 2669 2842 
Q 2491 3084 2119 3084 
Q 1678 3084 1418 2786 
Q 1159 2488 1159 1978 
L 1159 0 
L 581 0 
L 581 3500 
L 1159 3500 
L 1159 2956 
Q 1356 3278 1631 3431 
Q 1906 3584 2284 3584 
Q 2666 3584 2933 3390 
Q 3200 3197 3328 2828 
z
" transform="scale(0.015625)"/>
       <path id="DejaVuSans-6c" d="M 603 4863 
L 1178 4863 
L 1178 0 
L 603 0 
L 603 4863 
z
" transform="scale(0.015625)"/>
       <path id="DejaVuSans-79" d="M 2059 -325 
Q 1816 -950 1584 -1140 
Q 1353 -1331 966 -1331 
L 506 -1331 
L 506 -850 
L 844 -850 
Q 1081 -850 1212 -737 
Q 1344 -625 1503 -206 
L 1606 56 
L 191 3500 
L 800 3500 
L 1894 763 
L 2988 3500 
L 3597 3500 
L 2059 -325 
z
" transform="scale(0.015625)"/>
      </defs>
      <use xlink:href="#DejaVuSans-63"/>
      <use xlink:href="#DejaVuSans-6f" x="54.980469"/>
      <use xlink:href="#DejaVuSans-73" x="116.162109"/>
      <use xlink:href="#DejaVuSans-69" x="168.261719"/>
      <use xlink:href="#DejaVuSans-6e" x="196.044922"/>
      <use xlink:href="#DejaVuSans-65" x="259.423828"/>
      <use xlink:href="#DejaVuSans-20" x="320.947266"/>
      <use xlink:href="#DejaVuSans-73" x="352.734375"/>
      <use xlink:href="#DejaVuSans-69" x="404.833984"/>
      <use xlink:href="#DejaVuSans-6d" x="432.617188"/>
      <use xlink:href="#DejaVuSans-69" x="530.029297"/>
      <use xlink:href="#DejaVuSans-6c" x="557.8125"/>
      <use xlink:href="#DejaVuSans-61" x="585.595703"/>
      <use xlink:href="#DejaVuSans-72" x="646.875"/>
      <use xlink:href="#DejaVuSans-69" x="687.988281"/>
      <use xlink:href="#DejaVuSans-74" x="715.771484"/>
      <use xlink:href="#DejaVuSans-79" x="754.980469"/>
     </g>
    </g>
   </g>
   <g id="line2d_18">
    <path d="M 235.8 514.107444 
L 235.8 158.173064 
" clip-path="url(#p7b08b61c9a)" style="fill: none; stroke: #3f3f3f; stroke-width: 1.875; stroke-linecap: square"/>
   </g>
   <g id="line2d_19">
    <path d="M 235.8 365.776925 
L 235.8 260.367825 
" clip-path="url(#p7b08b61c9a)" style="fill: none; stroke: #3f3f3f; stroke-width: 5.625; stroke-linecap: square"/>
   </g>
   <g id="line2d_20">
    <path d="M 235.8 315.363728 
" clip-path="url(#p7b08b61c9a)" style="fill: none; stroke: #3f3f3f; stroke-width: 1.5; stroke-linecap: square"/>
    <defs>
     <path id="md9667574e0" d="M 2.34375 0 
L -2.34375 -0 
" style="stroke: #ffffff; stroke-width: 1.125"/>
    </defs>
    <g clip-path="url(#p7b08b61c9a)">
     <use xlink:href="#md9667574e0" x="235.8" y="315.363728" style="fill: #ffffff; stroke: #ffffff; stroke-width: 1.125"/>
    </g>
   </g>
   <g id="line2d_21">
    <path d="M 347.4 557.350235 
L 347.4 158.173064 
" clip-path="url(#p7b08b61c9a)" style="fill: none; stroke: #3f3f3f; stroke-width: 1.875; stroke-linecap: square"/>
   </g>
   <g id="line2d_22">
    <path d="M 347.4 403.986334 
L 347.4 293.821772 
" clip-path="url(#p7b08b61c9a)" style="fill: none; stroke: #3f3f3f; stroke-width: 5.625; stroke-linecap: square"/>
   </g>
   <g id="line2d_23">
    <path d="M 347.4 345.300357 
" clip-path="url(#p7b08b61c9a)" style="fill: none; stroke: #3f3f3f; stroke-width: 1.5; stroke-linecap: square"/>
    <g clip-path="url(#p7b08b61c9a)">
     <use xlink:href="#md9667574e0" x="347.4" y="345.300357" style="fill: #ffffff; stroke: #ffffff; stroke-width: 1.125"/>
    </g>
   </g>
   <g id="line2d_24">
    <path d="M 459 545.389234 
L 459 197.63836 
" clip-path="url(#p7b08b61c9a)" style="fill: none; stroke: #3f3f3f; stroke-width: 1.875; stroke-linecap: square"/>
   </g>
   <g id="line2d_25">
    <path d="M 459 426.746521 
L 459 308.859137 
" clip-path="url(#p7b08b61c9a)" style="fill: none; stroke: #3f3f3f; stroke-width: 5.625; stroke-linecap: square"/>
   </g>
   <g id="line2d_26">
    <path d="M 459 364.526866 
" clip-path="url(#p7b08b61c9a)" style="fill: none; stroke: #3f3f3f; stroke-width: 1.5; stroke-linecap: square"/>
    <g clip-path="url(#p7b08b61c9a)">
     <use xlink:href="#md9667574e0" x="459" y="364.526866" style="fill: #ffffff; stroke: #ffffff; stroke-width: 1.125"/>
    </g>
   </g>
   <g id="line2d_27">
    <path d="M 570.6 564.859444 
L 570.6 197.63836 
" clip-path="url(#p7b08b61c9a)" style="fill: none; stroke: #3f3f3f; stroke-width: 1.875; stroke-linecap: square"/>
   </g>
   <g id="line2d_28">
    <path d="M 570.6 438.058094 
L 570.6 322.02649 
" clip-path="url(#p7b08b61c9a)" style="fill: none; stroke: #3f3f3f; stroke-width: 5.625; stroke-linecap: square"/>
   </g>
   <g id="line2d_29">
    <path d="M 570.6 380.313147 
" clip-path="url(#p7b08b61c9a)" style="fill: none; stroke: #3f3f3f; stroke-width: 1.5; stroke-linecap: square"/>
    <g clip-path="url(#p7b08b61c9a)">
     <use xlink:href="#md9667574e0" x="570.6" y="380.313147" style="fill: #ffffff; stroke: #ffffff; stroke-width: 1.125"/>
    </g>
   </g>
   <g id="line2d_30">
    <path d="M 682.2 564.859444 
L 682.2 197.63836 
" clip-path="url(#p7b08b61c9a)" style="fill: none; stroke: #3f3f3f; stroke-width: 1.875; stroke-linecap: square"/>
   </g>
   <g id="line2d_31">
    <path d="M 682.2 447.430145 
L 682.2 325.086452 
" clip-path="url(#p7b08b61c9a)" style="fill: none; stroke: #3f3f3f; stroke-width: 5.625; stroke-linecap: square"/>
   </g>
   <g id="line2d_32">
    <path d="M 682.2 387.688565 
" clip-path="url(#p7b08b61c9a)" style="fill: none; stroke: #3f3f3f; stroke-width: 1.5; stroke-linecap: square"/>
    <g clip-path="url(#p7b08b61c9a)">
     <use xlink:href="#md9667574e0" x="682.2" y="387.688565" style="fill: #ffffff; stroke: #ffffff; stroke-width: 1.125"/>
    </g>
   </g>
   <g id="line2d_33">
    <path d="M 793.8 568.717674 
L 793.8 204.787866 
" clip-path="url(#p7b08b61c9a)" style="fill: none; stroke: #3f3f3f; stroke-width: 1.875; stroke-linecap: square"/>
   </g>
   <g id="line2d_34">
    <path d="M 793.8 457.435744 
L 793.8 338.270948 
" clip-path="url(#p7b08b61c9a)" style="fill: none; stroke: #3f3f3f; stroke-width: 5.625; stroke-linecap: square"/>
   </g>
   <g id="line2d_35">
    <path d="M 793.8 395.735329 
" clip-path="url(#p7b08b61c9a)" style="fill: none; stroke: #3f3f3f; stroke-width: 1.5; stroke-linecap: square"/>
    <g clip-path="url(#p7b08b61c9a)">
     <use xlink:href="#md9667574e0" x="793.8" y="395.735329" style="fill: #ffffff; stroke: #ffffff; stroke-width: 1.125"/>
    </g>
   </g>
   <g id="line2d_36">
    <path d="M 905.4 568.717674 
L 905.4 205.760476 
" clip-path="url(#p7b08b61c9a)" style="fill: none; stroke: #3f3f3f; stroke-width: 1.875; stroke-linecap: square"/>
   </g>
   <g id="line2d_37">
    <path d="M 905.4 461.689397 
L 905.4 340.95776 
" clip-path="url(#p7b08b61c9a)" style="fill: none; stroke: #3f3f3f; stroke-width: 5.625; stroke-linecap: square"/>
   </g>
   <g id="line2d_38">
    <path d="M 905.4 398.841007 
" clip-path="url(#p7b08b61c9a)" style="fill: none; stroke: #3f3f3f; stroke-width: 1.5; stroke-linecap: square"/>
    <g clip-path="url(#p7b08b61c9a)">
     <use xlink:href="#md9667574e0" x="905.4" y="398.841007" style="fill: #ffffff; stroke: #ffffff; stroke-width: 1.125"/>
    </g>
   </g>
   <g id="line2d_39">
    <path d="M 1017 568.717674 
L 1017 205.760476 
" clip-path="url(#p7b08b61c9a)" style="fill: none; stroke: #3f3f3f; stroke-width: 1.875; stroke-linecap: square"/>
   </g>
   <g id="line2d_40">
    <path d="M 1017 463.254324 
L 1017 341.113593 
" clip-path="url(#p7b08b61c9a)" style="fill: none; stroke: #3f3f3f; stroke-width: 5.625; stroke-linecap: square"/>
   </g>
   <g id="line2d_41">
    <path d="M 1017 403.295321 
" clip-path="url(#p7b08b61c9a)" style="fill: none; stroke: #3f3f3f; stroke-width: 1.5; stroke-linecap: square"/>
    <g clip-path="url(#p7b08b61c9a)">
     <use xlink:href="#md9667574e0" x="1017" y="403.295321" style="fill: #ffffff; stroke: #ffffff; stroke-width: 1.125"/>
    </g>
   </g>
   <g id="line2d_42">
    <path d="M 1128.6 568.717674 
L 1128.6 205.760476 
" clip-path="url(#p7b08b61c9a)" style="fill: none; stroke: #3f3f3f; stroke-width: 1.875; stroke-linecap: square"/>
   </g>
   <g id="line2d_43">
    <path d="M 1128.6 463.470982 
L 1128.6 346.735816 
" clip-path="url(#p7b08b61c9a)" style="fill: none; stroke: #3f3f3f; stroke-width: 5.625; stroke-linecap: square"/>
   </g>
   <g id="line2d_44">
    <path d="M 1128.6 408.049772 
" clip-path="url(#p7b08b61c9a)" style="fill: none; stroke: #3f3f3f; stroke-width: 1.5; stroke-linecap: square"/>
    <g clip-path="url(#p7b08b61c9a)">
     <use xlink:href="#md9667574e0" x="1128.6" y="408.049772" style="fill: #ffffff; stroke: #ffffff; stroke-width: 1.125"/>
    </g>
   </g>
   <g id="line2d_45">
    <path d="M 1240.2 568.746491 
L 1240.2 222.982748 
" clip-path="url(#p7b08b61c9a)" style="fill: none; stroke: #3f3f3f; stroke-width: 1.875; stroke-linecap: square"/>
   </g>
   <g id="line2d_46">
    <path d="M 1240.2 467.609828 
L 1240.2 350.319759 
" clip-path="url(#p7b08b61c9a)" style="fill: none; stroke: #3f3f3f; stroke-width: 5.625; stroke-linecap: square"/>
   </g>
   <g id="line2d_47">
    <path d="M 1240.2 408.988812 
" clip-path="url(#p7b08b61c9a)" style="fill: none; stroke: #3f3f3f; stroke-width: 1.5; stroke-linecap: square"/>
    <g clip-path="url(#p7b08b61c9a)">
     <use xlink:href="#md9667574e0" x="1240.2" y="408.988812" style="fill: #ffffff; stroke: #ffffff; stroke-width: 1.125"/>
    </g>
   </g>
   <g id="patch_3">
    <path d="M 180 640.8 
L 180 86.4 
" style="fill: none; stroke: #000000; stroke-width: 0.8; stroke-linejoin: miter; stroke-linecap: square"/>
   </g>
   <g id="patch_4">
    <path d="M 1296 640.8 
L 1296 86.4 
" style="fill: none; stroke: #000000; stroke-width: 0.8; stroke-linejoin: miter; stroke-linecap: square"/>
   </g>
   <g id="patch_5">
    <path d="M 180 640.8 
L 1296 640.8 
" style="fill: none; stroke: #000000; stroke-width: 0.8; stroke-linejoin: miter; stroke-linecap: square"/>
   </g>
   <g id="patch_6">
    <path d="M 180 86.4 
L 1296 86.4 
" style="fill: none; stroke: #000000; stroke-width: 0.8; stroke-linejoin: miter; stroke-linecap: square"/>
   </g>
   <g id="text_20">
    <!-- cosine similarity of max_fs_glit (distanceFromInitialPrompt), by iteration -->
    <g transform="translate(522.321563 80.4) scale(0.12 -0.12)">
     <defs>
      <path id="DejaVuSans-66" d="M 2375 4863 
L 2375 4384 
L 1825 4384 
Q 1516 4384 1395 4259 
Q 1275 4134 1275 3809 
L 1275 3500 
L 2222 3500 
L 2222 3053 
L 1275 3053 
L 1275 0 
L 697 0 
L 697 3053 
L 147 3053 
L 147 3500 
L 697 3500 
L 697 3744 
Q 697 4328 969 4595 
Q 1241 4863 1831 4863 
L 2375 4863 
z
" transform="scale(0.015625)"/>
      <path id="DejaVuSans-78" d="M 3513 3500 
L 2247 1797 
L 3578 0 
L 2900 0 
L 1881 1375 
L 863 0 
L 184 0 
L 1544 1831 
L 300 3500 
L 978 3500 
L 1906 2253 
L 2834 3500 
L 3513 3500 
z
" transform="scale(0.015625)"/>
      <path id="DejaVuSans-5f" d="M 3263 -1063 
L 3263 -1509 
L -63 -1509 
L -63 -1063 
L 3263 -1063 
z
" transform="scale(0.015625)"/>
      <path id="DejaVuSans-67" d="M 2906 1791 
Q 2906 2416 2648 2759 
Q 2391 3103 1925 3103 
Q 1463 3103 1205 2759 
Q 947 2416 947 1791 
Q 947 1169 1205 825 
Q 1463 481 1925 481 
Q 2391 481 2648 825 
Q 2906 1169 2906 1791 
z
M 3481 434 
Q 3481 -459 3084 -895 
Q 2688 -1331 1869 -1331 
Q 1566 -1331 1297 -1286 
Q 1028 -1241 775 -1147 
L 775 -588 
Q 1028 -725 1275 -790 
Q 1522 -856 1778 -856 
Q 2344 -856 2625 -561 
Q 2906 -266 2906 331 
L 2906 616 
Q 2728 306 2450 153 
Q 2172 0 1784 0 
Q 1141 0 747 490 
Q 353 981 353 1791 
Q 353 2603 747 3093 
Q 1141 3584 1784 3584 
Q 2172 3584 2450 3431 
Q 2728 3278 2906 2969 
L 2906 3500 
L 3481 3500 
L 3481 434 
z
" transform="scale(0.015625)"/>
      <path id="DejaVuSans-28" d="M 1984 4856 
Q 1566 4138 1362 3434 
Q 1159 2731 1159 2009 
Q 1159 1288 1364 580 
Q 1569 -128 1984 -844 
L 1484 -844 
Q 1016 -109 783 600 
Q 550 1309 550 2009 
Q 550 2706 781 3412 
Q 1013 4119 1484 4856 
L 1984 4856 
z
" transform="scale(0.015625)"/>
      <path id="DejaVuSans-64" d="M 2906 2969 
L 2906 4863 
L 3481 4863 
L 3481 0 
L 2906 0 
L 2906 525 
Q 2725 213 2448 61 
Q 2172 -91 1784 -91 
Q 1150 -91 751 415 
Q 353 922 353 1747 
Q 353 2572 751 3078 
Q 1150 3584 1784 3584 
Q 2172 3584 2448 3432 
Q 2725 3281 2906 2969 
z
M 947 1747 
Q 947 1113 1208 752 
Q 1469 391 1925 391 
Q 2381 391 2643 752 
Q 2906 1113 2906 1747 
Q 2906 2381 2643 2742 
Q 2381 3103 1925 3103 
Q 1469 3103 1208 2742 
Q 947 2381 947 1747 
z
" transform="scale(0.015625)"/>
      <path id="DejaVuSans-46" d="M 628 4666 
L 3309 4666 
L 3309 4134 
L 1259 4134 
L 1259 2759 
L 3109 2759 
L 3109 2228 
L 1259 2228 
L 1259 0 
L 628 0 
L 628 4666 
z
" transform="scale(0.015625)"/>
      <path id="DejaVuSans-49" d="M 628 4666 
L 1259 4666 
L 1259 0 
L 628 0 
L 628 4666 
z
" transform="scale(0.015625)"/>
      <path id="DejaVuSans-50" d="M 1259 4147 
L 1259 2394 
L 2053 2394 
Q 2494 2394 2734 2622 
Q 2975 2850 2975 3272 
Q 2975 3691 2734 3919 
Q 2494 4147 2053 4147 
L 1259 4147 
z
M 628 4666 
L 2053 4666 
Q 2838 4666 3239 4311 
Q 3641 3956 3641 3272 
Q 3641 2581 3239 2228 
Q 2838 1875 2053 1875 
L 1259 1875 
L 1259 0 
L 628 0 
L 628 4666 
z
" transform="scale(0.015625)"/>
      <path id="DejaVuSans-70" d="M 1159 525 
L 1159 -1331 
L 581 -1331 
L 581 3500 
L 1159 3500 
L 1159 2969 
Q 1341 3281 1617 3432 
Q 1894 3584 2278 3584 
Q 2916 3584 3314 3078 
Q 3713 2572 3713 1747 
Q 3713 922 3314 415 
Q 2916 -91 2278 -91 
Q 1894 -91 1617 61 
Q 1341 213 1159 525 
z
M 3116 1747 
Q 3116 2381 2855 2742 
Q 2594 3103 2138 3103 
Q 1681 3103 1420 2742 
Q 1159 2381 1159 1747 
Q 1159 1113 1420 752 
Q 1681 391 2138 391 
Q 2594 391 2855 752 
Q 3116 1113 3116 1747 
z
" transform="scale(0.015625)"/>
      <path id="DejaVuSans-29" d="M 513 4856 
L 1013 4856 
Q 1481 4119 1714 3412 
Q 1947 2706 1947 2009 
Q 1947 1309 1714 600 
Q 1481 -109 1013 -844 
L 513 -844 
Q 928 -128 1133 580 
Q 1338 1288 1338 2009 
Q 1338 2731 1133 3434 
Q 928 4138 513 4856 
z
" transform="scale(0.015625)"/>
      <path id="DejaVuSans-2c" d="M 750 794 
L 1409 794 
L 1409 256 
L 897 -744 
L 494 -744 
L 750 256 
L 750 794 
z
" transform="scale(0.015625)"/>
      <path id="DejaVuSans-62" d="M 3116 1747 
Q 3116 2381 2855 2742 
Q 2594 3103 2138 3103 
Q 1681 3103 1420 2742 
Q 1159 2381 1159 1747 
Q 1159 1113 1420 752 
Q 1681 391 2138 391 
Q 2594 391 2855 752 
Q 3116 1113 3116 1747 
z
M 1159 2969 
Q 1341 3281 1617 3432 
Q 1894 3584 2278 3584 
Q 2916 3584 3314 3078 
Q 3713 2572 3713 1747 
Q 3713 922 3314 415 
Q 2916 -91 2278 -91 
Q 1894 -91 1617 61 
Q 1341 213 1159 525 
L 1159 0 
L 581 0 
L 581 4863 
L 1159 4863 
L 1159 2969 
z
" transform="scale(0.015625)"/>
     </defs>
     <use xlink:href="#DejaVuSans-63"/>
     <use xlink:href="#DejaVuSans-6f" x="54.980469"/>
     <use xlink:href="#DejaVuSans-73" x="116.162109"/>
     <use xlink:href="#DejaVuSans-69" x="168.261719"/>
     <use xlink:href="#DejaVuSans-6e" x="196.044922"/>
     <use xlink:href="#DejaVuSans-65" x="259.423828"/>
     <use xlink:href="#DejaVuSans-20" x="320.947266"/>
     <use xlink:href="#DejaVuSans-73" x="352.734375"/>
     <use xlink:href="#DejaVuSans-69" x="404.833984"/>
     <use xlink:href="#DejaVuSans-6d" x="432.617188"/>
     <use xlink:href="#DejaVuSans-69" x="530.029297"/>
     <use xlink:href="#DejaVuSans-6c" x="557.8125"/>
     <use xlink:href="#DejaVuSans-61" x="585.595703"/>
     <use xlink:href="#DejaVuSans-72" x="646.875"/>
     <use xlink:href="#DejaVuSans-69" x="687.988281"/>
     <use xlink:href="#DejaVuSans-74" x="715.771484"/>
     <use xlink:href="#DejaVuSans-79" x="754.980469"/>
     <use xlink:href="#DejaVuSans-20" x="814.160156"/>
     <use xlink:href="#DejaVuSans-6f" x="845.947266"/>
     <use xlink:href="#DejaVuSans-66" x="907.128906"/>
     <use xlink:href="#DejaVuSans-20" x="942.333984"/>
     <use xlink:href="#DejaVuSans-6d" x="974.121094"/>
     <use xlink:href="#DejaVuSans-61" x="1071.533203"/>
     <use xlink:href="#DejaVuSans-78" x="1132.8125"/>
     <use xlink:href="#DejaVuSans-5f" x="1191.992188"/>
     <use xlink:href="#DejaVuSans-66" x="1241.992188"/>
     <use xlink:href="#DejaVuSans-73" x="1277.197266"/>
     <use xlink:href="#DejaVuSans-5f" x="1329.296875"/>
     <use xlink:href="#DejaVuSans-67" x="1379.296875"/>
     <use xlink:href="#DejaVuSans-6c" x="1442.773438"/>
     <use xlink:href="#DejaVuSans-69" x="1470.556641"/>
     <use xlink:href="#DejaVuSans-74" x="1498.339844"/>
     <use xlink:href="#DejaVuSans-20" x="1537.548828"/>
     <use xlink:href="#DejaVuSans-28" x="1569.335938"/>
     <use xlink:href="#DejaVuSans-64" x="1608.349609"/>
     <use xlink:href="#DejaVuSans-69" x="1671.826172"/>
     <use xlink:href="#DejaVuSans-73" x="1699.609375"/>
     <use xlink:href="#DejaVuSans-74" x="1751.708984"/>
     <use xlink:href="#DejaVuSans-61" x="1790.917969"/>
     <use xlink:href="#DejaVuSans-6e" x="1852.197266"/>
     <use xlink:href="#DejaVuSans-63" x="1915.576172"/>
     <use xlink:href="#DejaVuSans-65" x="1970.556641"/>
     <use xlink:href="#DejaVuSans-46" x="2032.080078"/>
     <use xlink:href="#DejaVuSans-72" x="2082.349609"/>
     <use xlink:href="#DejaVuSans-6f" x="2121.212891"/>
     <use xlink:href="#DejaVuSans-6d" x="2182.394531"/>
     <use xlink:href="#DejaVuSans-49" x="2279.806641"/>
     <use xlink:href="#DejaVuSans-6e" x="2309.298828"/>
     <use xlink:href="#DejaVuSans-69" x="2372.677734"/>
     <use xlink:href="#DejaVuSans-74" x="2400.460938"/>
     <use xlink:href="#DejaVuSans-69" x="2439.669922"/>
     <use xlink:href="#DejaVuSans-61" x="2467.453125"/>
     <use xlink:href="#DejaVuSans-6c" x="2528.732422"/>
     <use xlink:href="#DejaVuSans-50" x="2556.515625"/>
     <use xlink:href="#DejaVuSans-72" x="2615.068359"/>
     <use xlink:href="#DejaVuSans-6f" x="2653.931641"/>
     <use xlink:href="#DejaVuSans-6d" x="2715.113281"/>
     <use xlink:href="#DejaVuSans-70" x="2812.525391"/>
     <use xlink:href="#DejaVuSans-74" x="2876.001953"/>
     <use xlink:href="#DejaVuSans-29" x="2915.210938"/>
     <use xlink:href="#DejaVuSans-2c" x="2954.224609"/>
     <use xlink:href="#DejaVuSans-20" x="2986.011719"/>
     <use xlink:href="#DejaVuSans-62" x="3017.798828"/>
     <use xlink:href="#DejaVuSans-79" x="3081.275391"/>
     <use xlink:href="#DejaVuSans-20" x="3140.455078"/>
     <use xlink:href="#DejaVuSans-69" x="3172.242188"/>
     <use xlink:href="#DejaVuSans-74" x="3200.025391"/>
     <use xlink:href="#DejaVuSans-65" x="3239.234375"/>
     <use xlink:href="#DejaVuSans-72" x="3300.757812"/>
     <use xlink:href="#DejaVuSans-61" x="3341.871094"/>
     <use xlink:href="#DejaVuSans-74" x="3403.150391"/>
     <use xlink:href="#DejaVuSans-69" x="3442.359375"/>
     <use xlink:href="#DejaVuSans-6f" x="3470.142578"/>
     <use xlink:href="#DejaVuSans-6e" x="3531.324219"/>
    </g>
   </g>
  </g>
 </g>
 <defs>
  <clipPath id="p7b08b61c9a">
   <rect x="180" y="86.4" width="1116" height="554.4"/>
  </clipPath>
 </defs>
</svg>
