<?xml version="1.0" encoding="utf-8" standalone="no"?>
<!DOCTYPE svg PUBLIC "-//W3C//DTD SVG 1.1//EN"
  "http://www.w3.org/Graphics/SVG/1.1/DTD/svg11.dtd">
<svg xmlns:xlink="http://www.w3.org/1999/xlink" width="1440pt" height="720pt" viewBox="0 0 1440 720" xmlns="http://www.w3.org/2000/svg" version="1.1">
 <metadata>
  <rdf:RDF xmlns:dc="http://purl.org/dc/elements/1.1/" xmlns:cc="http://creativecommons.org/ns#" xmlns:rdf="http://www.w3.org/1999/02/22-rdf-syntax-ns#">
   <cc:Work>
    <dc:type rdf:resource="http://purl.org/dc/dcmitype/StillImage"/>
    <dc:date>2024-07-06T17:07:07.833878</dc:date>
    <dc:format>image/svg+xml</dc:format>
    <dc:creator>
     <cc:Agent>
      <dc:title>Matplotlib v3.8.0, https://matplotlib.org/</dc:title>
     </cc:Agent>
    </dc:creator>
   </cc:Work>
  </rdf:RDF>
 </metadata>
 <defs>
  <style type="text/css">*{stroke-linejoin: round; stroke-linecap: butt}</style>
 </defs>
 <g id="figure_1">
  <g id="patch_1">
   <path d="M 0 720 
L 1440 720 
L 1440 0 
L 0 0 
z
" style="fill: #ffffff"/>
  </g>
  <g id="axes_1">
   <g id="patch_2">
    <path d="M 180 640.8 
L 1296 640.8 
L 1296 86.4 
L 180 86.4 
z
" style="fill: #ffffff"/>
   </g>
   <g id="PolyCollection_1">
    <defs>
     <path id="mca14ea1c09" d="M 235.933868 -128.536378 
L 235.666132 -128.536378 
L 235.614763 -132.813235 
L 235.548868 -137.090092 
L 235.466176 -141.366949 
L 235.364552 -145.643806 
L 235.242086 -149.920663 
L 235.097154 -154.19752 
L 234.92842 -158.474377 
L 234.734792 -162.751235 
L 234.515323 -167.028092 
L 234.269084 -171.304949 
L 233.995016 -175.581806 
L 233.691802 -179.858663 
L 233.357761 -184.13552 
L 232.990777 -188.412377 
L 232.588275 -192.689234 
L 232.147209 -196.966091 
L 231.664081 -201.242949 
L 231.134959 -205.519806 
L 230.555494 -209.796663 
L 229.920946 -214.07352 
L 229.226226 -218.350377 
L 228.465964 -222.627234 
L 227.63462 -226.904091 
L 226.726658 -231.180948 
L 225.736797 -235.457805 
L 224.66035 -239.734662 
L 223.493692 -244.01152 
L 222.234864 -248.288377 
L 220.884329 -252.565234 
L 219.445875 -256.842091 
L 217.927599 -261.118948 
L 216.342892 -265.395805 
L 214.711248 -269.672662 
L 213.058737 -273.949519 
L 211.417916 -278.226376 
L 209.827018 -282.503234 
L 208.328321 -286.780091 
L 206.96569 -291.056948 
L 205.781454 -295.333805 
L 204.81288 -299.610662 
L 204.088651 -303.887519 
L 203.625804 -308.164376 
L 203.427579 -312.441233 
L 203.482565 -316.71809 
L 203.765345 -320.994947 
L 204.238664 -325.271805 
L 204.856894 -329.548662 
L 205.570362 -333.825519 
L 206.329976 -338.102376 
L 207.091531 -342.379233 
L 207.819128 -346.65609 
L 208.487325 -350.932947 
L 209.081839 -355.209804 
L 209.598893 -359.486661 
L 210.043503 -363.763519 
L 210.427132 -368.040376 
L 210.765181 -372.317233 
L 211.074737 -376.59409 
L 211.372819 -380.870947 
L 211.675246 -385.147804 
L 211.996059 -389.424661 
L 212.34734 -393.701518 
L 212.739229 -397.978375 
L 213.179966 -402.255232 
L 213.675849 -406.53209 
L 214.231109 -410.808947 
L 214.847738 -415.085804 
L 215.525385 -419.362661 
L 216.261392 -423.639518 
L 217.051023 -427.916375 
L 217.887884 -432.193232 
L 218.764454 -436.470089 
L 219.672631 -440.746946 
L 220.604205 -445.023804 
L 221.551174 -449.300661 
L 222.505892 -453.577518 
L 223.461078 -457.854375 
L 224.409753 -462.131232 
L 225.34518 -466.408089 
L 226.260857 -470.684946 
L 227.150607 -474.961803 
L 228.008719 -479.23866 
L 228.830123 -483.515517 
L 229.610531 -487.792375 
L 230.346495 -492.069232 
L 231.035384 -496.346089 
L 231.67528 -500.622946 
L 232.264853 -504.899803 
L 232.803239 -509.17666 
L 233.289984 -513.453517 
L 233.725068 -517.730374 
L 234.108982 -522.007231 
L 234.442849 -526.284089 
L 234.728532 -530.560946 
L 234.968689 -534.837803 
L 235.166747 -539.11466 
L 235.326792 -543.391517 
L 235.453374 -547.668374 
L 235.551279 -551.945231 
L 236.048721 -551.945231 
L 236.048721 -551.945231 
L 236.146626 -547.668374 
L 236.273208 -543.391517 
L 236.433253 -539.11466 
L 236.631311 -534.837803 
L 236.871468 -530.560946 
L 237.157151 -526.284089 
L 237.491018 -522.007231 
L 237.874932 -517.730374 
L 238.310016 -513.453517 
L 238.796761 -509.17666 
L 239.335147 -504.899803 
L 239.92472 -500.622946 
L 240.564616 -496.346089 
L 241.253505 -492.069232 
L 241.989469 -487.792375 
L 242.769877 -483.515517 
L 243.591281 -479.23866 
L 244.449393 -474.961803 
L 245.339143 -470.684946 
L 246.25482 -466.408089 
L 247.190247 -462.131232 
L 248.138922 -457.854375 
L 249.094108 -453.577518 
L 250.048826 -449.300661 
L 250.995795 -445.023804 
L 251.927369 -440.746946 
L 252.835546 -436.470089 
L 253.712116 -432.193232 
L 254.548977 -427.916375 
L 255.338608 -423.639518 
L 256.074615 -419.362661 
L 256.752262 -415.085804 
L 257.368891 -410.808947 
L 257.924151 -406.53209 
L 258.420034 -402.255232 
L 258.860771 -397.978375 
L 259.25266 -393.701518 
L 259.603941 -389.424661 
L 259.924754 -385.147804 
L 260.227181 -380.870947 
L 260.525263 -376.59409 
L 260.834819 -372.317233 
L 261.172868 -368.040376 
L 261.556497 -363.763519 
L 262.001107 -359.486661 
L 262.518161 -355.209804 
L 263.112675 -350.932947 
L 263.780872 -346.65609 
L 264.508469 -342.379233 
L 265.270024 -338.102376 
L 266.029638 -333.825519 
L 266.743106 -329.548662 
L 267.361336 -325.271805 
L 267.834655 -320.994947 
L 268.117435 -316.71809 
L 268.172421 -312.441233 
L 267.974196 -308.164376 
L 267.511349 -303.887519 
L 266.78712 -299.610662 
L 265.818546 -295.333805 
L 264.63431 -291.056948 
L 263.271679 -286.780091 
L 261.772982 -282.503234 
L 260.182084 -278.226376 
L 258.541263 -273.949519 
L 256.888752 -269.672662 
L 255.257108 -265.395805 
L 253.672401 -261.118948 
L 252.154125 -256.842091 
L 250.715671 -252.565234 
L 249.365136 -248.288377 
L 248.106308 -244.01152 
L 246.93965 -239.734662 
L 245.863203 -235.457805 
L 244.873342 -231.180948 
L 243.96538 -226.904091 
L 243.134036 -222.627234 
L 242.373774 -218.350377 
L 241.679054 -214.07352 
L 241.044506 -209.796663 
L 240.465041 -205.519806 
L 239.935919 -201.242949 
L 239.452791 -196.966091 
L 239.011725 -192.689234 
L 238.609223 -188.412377 
L 238.242239 -184.13552 
L 237.908198 -179.858663 
L 237.604984 -175.581806 
L 237.330916 -171.304949 
L 237.084677 -167.028092 
L 236.865208 -162.751235 
L 236.67158 -158.474377 
L 236.502846 -154.19752 
L 236.357914 -149.920663 
L 236.235448 -145.643806 
L 236.133824 -141.366949 
L 236.051132 -137.090092 
L 235.985237 -132.813235 
L 235.933868 -128.536378 
z
" style="stroke: #3f3f3f; stroke-width: 1.25"/>
    </defs>
    <g clip-path="url(#p441597fd16)">
     <use xlink:href="#mca14ea1c09" x="0" y="720" style="fill: #3274a1; stroke: #3f3f3f; stroke-width: 1.25"/>
    </g>
   </g>
   <g id="PolyCollection_2">
    <defs>
     <path id="m141964382d" d="M 347.67564 -179.312976 
L 347.12436 -179.312976 
L 347.027509 -182.803115 
L 346.905142 -186.293254 
L 346.753497 -189.783394 
L 346.569124 -193.273533 
L 346.349136 -196.763673 
L 346.091446 -200.253812 
L 345.794958 -203.743952 
L 345.459677 -207.234091 
L 345.08672 -210.72423 
L 344.678194 -214.21437 
L 344.236942 -217.704509 
L 343.766176 -221.194649 
L 343.269021 -224.684788 
L 342.748013 -228.174927 
L 342.204633 -231.665067 
L 341.638916 -235.155206 
L 341.049232 -238.645346 
L 340.432264 -242.135485 
L 339.783242 -245.625625 
L 339.09642 -249.115764 
L 338.365769 -252.605903 
L 337.585834 -256.096043 
L 336.752636 -259.586182 
L 335.864523 -263.076322 
L 334.922844 -266.566461 
L 333.932339 -270.0566 
L 332.901179 -273.54674 
L 331.840616 -277.036879 
L 330.764296 -280.527019 
L 329.687292 -284.017158 
L 328.624984 -287.507298 
L 327.591924 -290.997437 
L 326.600814 -294.487576 
L 325.661695 -297.977716 
L 324.781413 -301.467855 
L 323.963366 -304.957995 
L 323.20752 -308.448134 
L 322.510621 -311.938274 
L 321.86657 -315.428413 
L 321.266895 -318.918552 
L 320.701294 -322.408692 
L 320.158244 -325.898831 
L 319.62567 -329.388971 
L 319.091669 -332.87911 
L 318.545276 -336.369249 
L 317.977232 -339.859389 
L 317.380707 -343.349528 
L 316.751905 -346.839668 
L 316.090506 -350.329807 
L 315.399904 -353.819947 
L 314.687234 -357.310086 
L 313.963198 -360.800225 
L 313.241745 -364.290365 
L 312.539621 -367.780504 
L 311.875857 -371.270644 
L 311.271181 -374.760783 
L 310.747378 -378.250922 
L 310.326567 -381.741062 
L 310.030405 -385.231201 
L 309.879188 -388.721341 
L 309.8909 -392.21148 
L 310.080254 -395.70162 
L 310.457792 -399.191759 
L 311.029146 -402.681898 
L 311.794527 -406.172038 
L 312.748507 -409.662177 
L 313.880142 -413.152317 
L 315.173402 -416.642456 
L 316.607896 -420.132596 
L 318.159832 -423.622735 
L 319.803116 -427.112874 
L 321.510539 -430.603014 
L 323.254944 -434.093153 
L 325.01033 -437.583293 
L 326.752806 -441.073432 
L 328.46135 -444.563571 
L 330.118338 -448.053711 
L 331.709812 -451.54385 
L 333.225484 -455.03399 
L 334.658496 -458.524129 
L 336.00498 -462.014269 
L 337.263472 -465.504408 
L 338.43427 -468.994547 
L 339.518799 -472.484687 
L 340.519067 -475.974826 
L 341.43726 -479.464966 
L 342.275507 -482.955105 
L 343.035803 -486.445244 
L 343.720078 -489.935384 
L 344.330367 -493.425523 
L 344.869011 -496.915663 
L 345.338856 -500.405802 
L 345.743388 -503.895942 
L 346.0868 -507.386081 
L 346.373951 -510.87622 
L 346.610256 -514.36636 
L 346.801498 -517.856499 
L 346.953615 -521.346639 
L 347.072478 -524.836778 
L 347.727522 -524.836778 
L 347.727522 -524.836778 
L 347.846385 -521.346639 
L 347.998502 -517.856499 
L 348.189744 -514.36636 
L 348.426049 -510.87622 
L 348.7132 -507.386081 
L 349.056612 -503.895942 
L 349.461144 -500.405802 
L 349.930989 -496.915663 
L 350.469633 -493.425523 
L 351.079922 -489.935384 
L 351.764197 -486.445244 
L 352.524493 -482.955105 
L 353.36274 -479.464966 
L 354.280933 -475.974826 
L 355.281201 -472.484687 
L 356.36573 -468.994547 
L 357.536528 -465.504408 
L 358.79502 -462.014269 
L 360.141504 -458.524129 
L 361.574516 -455.03399 
L 363.090188 -451.54385 
L 364.681662 -448.053711 
L 366.33865 -444.563571 
L 368.047194 -441.073432 
L 369.78967 -437.583293 
L 371.545056 -434.093153 
L 373.289461 -430.603014 
L 374.996884 -427.112874 
L 376.640168 -423.622735 
L 378.192104 -420.132596 
L 379.626598 -416.642456 
L 380.919858 -413.152317 
L 382.051493 -409.662177 
L 383.005473 -406.172038 
L 383.770854 -402.681898 
L 384.342208 -399.191759 
L 384.719746 -395.70162 
L 384.9091 -392.21148 
L 384.920812 -388.721341 
L 384.769595 -385.231201 
L 384.473433 -381.741062 
L 384.052622 -378.250922 
L 383.528819 -374.760783 
L 382.924143 -371.270644 
L 382.260379 -367.780504 
L 381.558255 -364.290365 
L 380.836802 -360.800225 
L 380.112766 -357.310086 
L 379.400096 -353.819947 
L 378.709494 -350.329807 
L 378.048095 -346.839668 
L 377.419293 -343.349528 
L 376.822768 -339.859389 
L 376.254724 -336.369249 
L 375.708331 -332.87911 
L 375.17433 -329.388971 
L 374.641756 -325.898831 
L 374.098706 -322.408692 
L 373.533105 -318.918552 
L 372.93343 -315.428413 
L 372.289379 -311.938274 
L 371.59248 -308.448134 
L 370.836634 -304.957995 
L 370.018587 -301.467855 
L 369.138305 -297.977716 
L 368.199186 -294.487576 
L 367.208076 -290.997437 
L 366.175016 -287.507298 
L 365.112708 -284.017158 
L 364.035704 -280.527019 
L 362.959384 -277.036879 
L 361.898821 -273.54674 
L 360.867661 -270.0566 
L 359.877156 -266.566461 
L 358.935477 -263.076322 
L 358.047364 -259.586182 
L 357.214166 -256.096043 
L 356.434231 -252.605903 
L 355.70358 -249.115764 
L 355.016758 -245.625625 
L 354.367736 -242.135485 
L 353.750768 -238.645346 
L 353.161084 -235.155206 
L 352.595367 -231.665067 
L 352.051987 -228.174927 
L 351.530979 -224.684788 
L 351.033824 -221.194649 
L 350.563058 -217.704509 
L 350.121806 -214.21437 
L 349.71328 -210.72423 
L 349.340323 -207.234091 
L 349.005042 -203.743952 
L 348.708554 -200.253812 
L 348.450864 -196.763673 
L 348.230876 -193.273533 
L 348.046503 -189.783394 
L 347.894858 -186.293254 
L 347.772491 -182.803115 
L 347.67564 -179.312976 
z
" style="stroke: #3f3f3f; stroke-width: 1.25"/>
    </defs>
    <g clip-path="url(#p441597fd16)">
     <use xlink:href="#m141964382d" x="0" y="720" style="fill: #3274a1; stroke: #3f3f3f; stroke-width: 1.25"/>
    </g>
   </g>
   <g id="PolyCollection_3">
    <defs>
     <path id="m53ce14878f" d="M 459.216592 -104.4 
L 458.783408 -104.4 
L 458.716387 -109.350028 
L 458.63449 -114.300057 
L 458.536172 -119.250085 
L 458.420138 -124.200113 
L 458.285387 -129.150142 
L 458.131229 -134.10017 
L 457.957246 -139.050199 
L 457.763203 -144.000227 
L 457.54891 -148.950255 
L 457.314062 -153.900284 
L 457.058077 -158.850312 
L 456.779956 -163.80034 
L 456.47822 -168.750369 
L 456.150924 -173.700397 
L 455.79578 -178.650425 
L 455.410387 -183.600454 
L 454.992528 -188.550482 
L 454.540519 -193.500511 
L 454.053547 -198.450539 
L 453.531937 -203.400567 
L 452.977318 -208.350596 
L 452.392638 -213.300624 
L 451.782015 -218.250652 
L 451.15045 -223.200681 
L 450.503418 -228.150709 
L 449.846393 -233.100738 
L 449.184355 -238.050766 
L 448.521346 -243.000794 
L 447.860101 -247.950823 
L 447.201806 -252.900851 
L 446.545977 -257.850879 
L 445.89049 -262.800908 
L 445.231738 -267.750936 
L 444.564915 -272.700964 
L 443.884429 -277.650993 
L 443.18442 -282.601021 
L 442.459367 -287.55105 
L 441.704781 -292.501078 
L 440.917909 -297.451106 
L 440.098426 -302.401135 
L 439.249009 -307.351163 
L 438.375727 -312.301191 
L 437.488154 -317.25122 
L 436.599149 -322.201248 
L 435.724264 -327.151276 
L 434.880816 -332.101305 
L 434.08669 -337.051333 
L 433.359002 -342.001362 
L 432.712801 -346.95139 
L 432.159968 -351.901418 
L 431.7085 -356.851447 
L 431.362279 -361.801475 
L 431.121383 -366.751503 
L 430.982895 -371.701532 
L 430.942092 -376.65156 
L 430.993825 -381.601588 
L 431.133858 -386.551617 
L 431.359941 -391.501645 
L 431.672421 -396.451674 
L 432.074282 -401.401702 
L 432.570565 -406.35173 
L 433.167267 -411.301759 
L 433.869864 -416.251787 
L 434.681685 -421.201815 
L 435.602395 -426.151844 
L 436.626817 -431.101872 
L 437.744298 -436.051901 
L 438.938709 -441.001929 
L 440.189127 -445.951957 
L 441.4711 -450.901986 
L 442.75836 -455.852014 
L 444.024769 -460.802042 
L 445.24627 -465.752071 
L 446.402608 -470.702099 
L 447.478653 -475.652127 
L 448.465164 -480.602156 
L 449.358971 -485.552184 
L 450.162561 -490.502213 
L 450.883172 -495.452241 
L 451.531515 -500.402269 
L 452.1203 -505.352298 
L 452.662739 -510.302326 
L 453.171182 -515.252354 
L 453.656033 -520.202383 
L 454.125008 -525.152411 
L 454.582797 -530.102439 
L 455.031103 -535.052468 
L 455.468995 -540.002496 
L 455.89351 -544.952525 
L 456.300376 -549.902553 
L 456.68478 -554.852581 
L 457.042061 -559.80261 
L 457.368281 -564.752638 
L 457.660628 -569.702666 
L 457.917623 -574.652695 
L 458.139158 -579.602723 
L 458.32639 -584.552751 
L 458.481523 -589.50278 
L 458.607535 -594.452808 
L 459.392465 -594.452808 
L 459.392465 -594.452808 
L 459.518477 -589.50278 
L 459.67361 -584.552751 
L 459.860842 -579.602723 
L 460.082377 -574.652695 
L 460.339372 -569.702666 
L 460.631719 -564.752638 
L 460.957939 -559.80261 
L 461.31522 -554.852581 
L 461.699624 -549.902553 
L 462.10649 -544.952525 
L 462.531005 -540.002496 
L 462.968897 -535.052468 
L 463.417203 -530.102439 
L 463.874992 -525.152411 
L 464.343967 -520.202383 
L 464.828818 -515.252354 
L 465.337261 -510.302326 
L 465.8797 -505.352298 
L 466.468485 -500.402269 
L 467.116828 -495.452241 
L 467.837439 -490.502213 
L 468.641029 -485.552184 
L 469.534836 -480.602156 
L 470.521347 -475.652127 
L 471.597392 -470.702099 
L 472.75373 -465.752071 
L 473.975231 -460.802042 
L 475.24164 -455.852014 
L 476.5289 -450.901986 
L 477.810873 -445.951957 
L 479.061291 -441.001929 
L 480.255702 -436.051901 
L 481.373183 -431.101872 
L 482.397605 -426.151844 
L 483.318315 -421.201815 
L 484.130136 -416.251787 
L 484.832733 -411.301759 
L 485.429435 -406.35173 
L 485.925718 -401.401702 
L 486.327579 -396.451674 
L 486.640059 -391.501645 
L 486.866142 -386.551617 
L 487.006175 -381.601588 
L 487.057908 -376.65156 
L 487.017105 -371.701532 
L 486.878617 -366.751503 
L 486.637721 -361.801475 
L 486.2915 -356.851447 
L 485.840032 -351.901418 
L 485.287199 -346.95139 
L 484.640998 -342.001362 
L 483.91331 -337.051333 
L 483.119184 -332.101305 
L 482.275736 -327.151276 
L 481.400851 -322.201248 
L 480.511846 -317.25122 
L 479.624273 -312.301191 
L 478.750991 -307.351163 
L 477.901574 -302.401135 
L 477.082091 -297.451106 
L 476.295219 -292.501078 
L 475.540633 -287.55105 
L 474.81558 -282.601021 
L 474.115571 -277.650993 
L 473.435085 -272.700964 
L 472.768262 -267.750936 
L 472.10951 -262.800908 
L 471.454023 -257.850879 
L 470.798194 -252.900851 
L 470.139899 -247.950823 
L 469.478654 -243.000794 
L 468.815645 -238.050766 
L 468.153607 -233.100738 
L 467.496582 -228.150709 
L 466.84955 -223.200681 
L 466.217985 -218.250652 
L 465.607362 -213.300624 
L 465.022682 -208.350596 
L 464.468063 -203.400567 
L 463.946453 -198.450539 
L 463.459481 -193.500511 
L 463.007472 -188.550482 
L 462.589613 -183.600454 
L 462.20422 -178.650425 
L 461.849076 -173.700397 
L 461.52178 -168.750369 
L 461.220044 -163.80034 
L 460.941923 -158.850312 
L 460.685938 -153.900284 
L 460.45109 -148.950255 
L 460.236797 -144.000227 
L 460.042754 -139.050199 
L 459.868771 -134.10017 
L 459.714613 -129.150142 
L 459.579862 -124.200113 
L 459.463828 -119.250085 
L 459.36551 -114.300057 
L 459.283613 -109.350028 
L 459.216592 -104.4 
z
" style="stroke: #3f3f3f; stroke-width: 1.25"/>
    </defs>
    <g clip-path="url(#p441597fd16)">
     <use xlink:href="#m53ce14878f" x="0" y="720" style="fill: #3274a1; stroke: #3f3f3f; stroke-width: 1.25"/>
    </g>
   </g>
   <g id="PolyCollection_4">
    <defs>
     <path id="m5a21f06a64" d="M 570.950754 -198.589948 
L 570.249246 -198.589948 
L 570.153632 -202.150426 
L 570.03821 -205.710903 
L 569.900489 -209.27138 
L 569.737976 -212.831858 
L 569.548207 -216.392335 
L 569.328766 -219.952812 
L 569.077283 -223.51329 
L 568.79142 -227.073767 
L 568.468831 -230.634244 
L 568.107119 -234.194722 
L 567.703787 -237.755199 
L 567.256209 -241.315676 
L 566.761619 -244.876153 
L 566.217154 -248.436631 
L 565.61994 -251.997108 
L 564.967251 -255.557585 
L 564.256716 -259.118063 
L 563.486591 -262.67854 
L 562.656051 -266.239017 
L 561.765497 -269.799495 
L 560.816833 -273.359972 
L 559.813694 -276.920449 
L 558.76157 -280.480927 
L 557.667836 -284.041404 
L 556.541645 -287.601881 
L 555.3937 -291.162359 
L 554.23592 -294.722836 
L 553.08102 -298.283313 
L 551.942049 -301.84379 
L 550.831919 -305.404268 
L 549.762982 -308.964745 
L 548.746669 -312.525222 
L 547.793231 -316.0857 
L 546.911572 -319.646177 
L 546.109185 -323.206654 
L 545.392147 -326.767132 
L 544.765147 -330.327609 
L 544.231511 -333.888086 
L 543.793171 -337.448564 
L 543.450567 -341.009041 
L 543.20246 -344.569518 
L 543.045661 -348.129995 
L 542.97472 -351.690473 
L 542.981614 -355.25095 
L 543.055506 -358.811427 
L 543.18264 -362.371905 
L 543.346456 -365.932382 
L 543.527958 -369.492859 
L 543.706381 -373.053337 
L 543.860154 -376.613814 
L 543.968105 -380.174291 
L 544.010853 -383.734769 
L 543.97227 -387.295246 
L 543.84089 -390.855723 
L 543.611127 -394.416201 
L 543.284174 -397.976678 
L 542.86848 -401.537155 
L 542.379711 -405.097632 
L 541.840193 -408.65811 
L 541.277823 -412.218587 
L 540.724545 -415.779064 
L 540.214481 -419.339542 
L 539.781886 -422.900019 
L 539.459069 -426.460496 
L 539.274468 -430.020974 
L 539.25103 -433.581451 
L 539.405008 -437.141928 
L 539.745279 -440.702406 
L 540.273193 -444.262883 
L 540.982952 -447.82336 
L 541.862429 -451.383838 
L 542.894354 -454.944315 
L 544.057699 -458.504792 
L 545.329149 -462.065269 
L 546.684513 -465.625747 
L 548.099965 -469.186224 
L 549.553033 -472.746701 
L 551.023289 -476.307179 
L 552.492741 -479.867656 
L 553.945945 -483.428133 
L 555.369902 -486.988611 
L 556.753797 -490.549088 
L 558.08867 -494.109565 
L 559.367071 -497.670043 
L 560.582765 -501.23052 
L 561.730517 -504.790997 
L 562.805978 -508.351474 
L 563.805649 -511.911952 
L 564.726929 -515.472429 
L 565.568197 -519.032906 
L 566.328905 -522.593384 
L 567.009649 -526.153861 
L 567.612192 -529.714338 
L 568.13944 -533.274816 
L 568.595337 -536.835293 
L 568.984718 -540.39577 
L 569.313114 -543.956248 
L 569.586522 -547.516725 
L 569.811176 -551.077202 
L 571.388824 -551.077202 
L 571.388824 -551.077202 
L 571.613478 -547.516725 
L 571.886886 -543.956248 
L 572.215282 -540.39577 
L 572.604663 -536.835293 
L 573.06056 -533.274816 
L 573.587808 -529.714338 
L 574.190351 -526.153861 
L 574.871095 -522.593384 
L 575.631803 -519.032906 
L 576.473071 -515.472429 
L 577.394351 -511.911952 
L 578.394022 -508.351474 
L 579.469483 -504.790997 
L 580.617235 -501.23052 
L 581.832929 -497.670043 
L 583.11133 -494.109565 
L 584.446203 -490.549088 
L 585.830098 -486.988611 
L 587.254055 -483.428133 
L 588.707259 -479.867656 
L 590.176711 -476.307179 
L 591.646967 -472.746701 
L 593.100035 -469.186224 
L 594.515487 -465.625747 
L 595.870851 -462.065269 
L 597.142301 -458.504792 
L 598.305646 -454.944315 
L 599.337571 -451.383838 
L 600.217048 -447.82336 
L 600.926807 -444.262883 
L 601.454721 -440.702406 
L 601.794992 -437.141928 
L 601.94897 -433.581451 
L 601.925532 -430.020974 
L 601.740931 -426.460496 
L 601.418114 -422.900019 
L 600.985519 -419.339542 
L 600.475455 -415.779064 
L 599.922177 -412.218587 
L 599.359807 -408.65811 
L 598.820289 -405.097632 
L 598.33152 -401.537155 
L 597.915826 -397.976678 
L 597.588873 -394.416201 
L 597.35911 -390.855723 
L 597.22773 -387.295246 
L 597.189147 -383.734769 
L 597.231895 -380.174291 
L 597.339846 -376.613814 
L 597.493619 -373.053337 
L 597.672042 -369.492859 
L 597.853544 -365.932382 
L 598.01736 -362.371905 
L 598.144494 -358.811427 
L 598.218386 -355.25095 
L 598.22528 -351.690473 
L 598.154339 -348.129995 
L 597.99754 -344.569518 
L 597.749433 -341.009041 
L 597.406829 -337.448564 
L 596.968489 -333.888086 
L 596.434853 -330.327609 
L 595.807853 -326.767132 
L 595.090815 -323.206654 
L 594.288428 -319.646177 
L 593.406769 -316.0857 
L 592.453331 -312.525222 
L 591.437018 -308.964745 
L 590.368081 -305.404268 
L 589.257951 -301.84379 
L 588.11898 -298.283313 
L 586.96408 -294.722836 
L 585.8063 -291.162359 
L 584.658355 -287.601881 
L 583.532164 -284.041404 
L 582.43843 -280.480927 
L 581.386306 -276.920449 
L 580.383167 -273.359972 
L 579.434503 -269.799495 
L 578.543949 -266.239017 
L 577.713409 -262.67854 
L 576.943284 -259.118063 
L 576.232749 -255.557585 
L 575.58006 -251.997108 
L 574.982846 -248.436631 
L 574.438381 -244.876153 
L 573.943791 -241.315676 
L 573.496213 -237.755199 
L 573.092881 -234.194722 
L 572.731169 -230.634244 
L 572.40858 -227.073767 
L 572.122717 -223.51329 
L 571.871234 -219.952812 
L 571.651793 -216.392335 
L 571.462024 -212.831858 
L 571.299511 -209.27138 
L 571.16179 -205.710903 
L 571.046368 -202.150426 
L 570.950754 -198.589948 
z
" style="stroke: #3f3f3f; stroke-width: 1.25"/>
    </defs>
    <g clip-path="url(#p441597fd16)">
     <use xlink:href="#m5a21f06a64" x="0" y="720" style="fill: #3274a1; stroke: #3f3f3f; stroke-width: 1.25"/>
    </g>
   </g>
   <g id="PolyCollection_5">
    <defs>
     <path id="m32c304372c" d="M 682.629208 -200.469518 
L 681.770792 -200.469518 
L 681.635104 -204.493045 
L 681.466666 -208.516573 
L 681.260773 -212.540101 
L 681.012896 -216.563628 
L 680.718912 -220.587156 
L 680.375333 -224.610684 
L 679.979516 -228.634211 
L 679.529825 -232.657739 
L 679.025731 -236.681267 
L 678.46781 -240.704794 
L 677.857652 -244.728322 
L 677.197642 -248.75185 
L 676.490659 -252.775378 
L 675.739677 -256.798905 
L 674.947334 -260.822433 
L 674.115495 -264.845961 
L 673.244864 -268.869488 
L 672.334713 -272.893016 
L 671.382762 -276.916544 
L 670.385258 -280.940071 
L 669.337272 -284.963599 
L 668.233216 -288.987127 
L 667.067557 -293.010654 
L 665.83567 -297.034182 
L 664.534772 -301.05771 
L 663.164857 -305.081237 
L 661.729524 -309.104765 
L 660.236634 -313.128293 
L 658.698701 -317.151821 
L 657.132975 -321.175348 
L 655.561171 -325.198876 
L 654.008841 -329.222404 
L 652.504426 -333.245931 
L 651.078018 -337.269459 
L 649.759924 -341.292987 
L 648.579128 -345.316514 
L 647.561759 -349.340042 
L 646.72968 -353.36357 
L 646.099323 -357.387097 
L 645.680847 -361.410625 
L 645.477717 -365.434153 
L 645.486715 -369.45768 
L 645.6984 -373.481208 
L 646.097956 -377.504736 
L 646.666344 -381.528263 
L 647.381651 -385.551791 
L 648.220481 -389.575319 
L 649.159292 -393.598847 
L 650.175528 -397.622374 
L 651.248497 -401.645902 
L 652.359944 -405.66943 
L 653.494317 -409.692957 
L 654.638781 -413.716485 
L 655.78303 -417.740013 
L 656.91899 -421.76354 
L 658.040475 -425.787068 
L 659.142856 -429.810596 
L 660.222779 -433.834123 
L 661.277934 -437.857651 
L 662.306879 -441.881179 
L 663.308872 -445.904706 
L 664.283708 -449.928234 
L 665.231538 -453.951762 
L 666.152654 -457.97529 
L 667.047273 -461.998817 
L 667.915326 -466.022345 
L 668.756299 -470.045873 
L 669.569142 -474.0694 
L 670.352284 -478.092928 
L 671.103744 -482.116456 
L 671.82135 -486.139983 
L 672.50302 -490.163511 
L 673.147073 -494.187039 
L 673.752532 -498.210566 
L 674.319368 -502.234094 
L 674.848641 -506.257622 
L 675.342531 -510.281149 
L 675.804238 -514.304677 
L 676.237753 -518.328205 
L 676.647553 -522.351733 
L 677.038222 -526.37526 
L 677.414062 -530.398788 
L 677.778736 -534.422316 
L 678.134978 -538.445843 
L 678.484401 -542.469371 
L 678.827432 -546.492899 
L 679.163354 -550.516426 
L 679.490472 -554.539954 
L 679.806361 -558.563482 
L 680.108164 -562.587009 
L 680.392918 -566.610537 
L 680.657858 -570.634065 
L 680.900675 -574.657592 
L 681.119708 -578.68112 
L 681.314054 -582.704648 
L 681.483603 -586.728175 
L 681.628993 -590.751703 
L 681.751513 -594.775231 
L 681.852961 -598.798759 
L 682.547039 -598.798759 
L 682.547039 -598.798759 
L 682.648487 -594.775231 
L 682.771007 -590.751703 
L 682.916397 -586.728175 
L 683.085946 -582.704648 
L 683.280292 -578.68112 
L 683.499325 -574.657592 
L 683.742142 -570.634065 
L 684.007082 -566.610537 
L 684.291836 -562.587009 
L 684.593639 -558.563482 
L 684.909528 -554.539954 
L 685.236646 -550.516426 
L 685.572568 -546.492899 
L 685.915599 -542.469371 
L 686.265022 -538.445843 
L 686.621264 -534.422316 
L 686.985938 -530.398788 
L 687.361778 -526.37526 
L 687.752447 -522.351733 
L 688.162247 -518.328205 
L 688.595762 -514.304677 
L 689.057469 -510.281149 
L 689.551359 -506.257622 
L 690.080632 -502.234094 
L 690.647468 -498.210566 
L 691.252927 -494.187039 
L 691.89698 -490.163511 
L 692.57865 -486.139983 
L 693.296256 -482.116456 
L 694.047716 -478.092928 
L 694.830858 -474.0694 
L 695.643701 -470.045873 
L 696.484674 -466.022345 
L 697.352727 -461.998817 
L 698.247346 -457.97529 
L 699.168462 -453.951762 
L 700.116292 -449.928234 
L 701.091128 -445.904706 
L 702.093121 -441.881179 
L 703.122066 -437.857651 
L 704.177221 -433.834123 
L 705.257144 -429.810596 
L 706.359525 -425.787068 
L 707.48101 -421.76354 
L 708.61697 -417.740013 
L 709.761219 -413.716485 
L 710.905683 -409.692957 
L 712.040056 -405.66943 
L 713.151503 -401.645902 
L 714.224472 -397.622374 
L 715.240708 -393.598847 
L 716.179519 -389.575319 
L 717.018349 -385.551791 
L 717.733656 -381.528263 
L 718.302044 -377.504736 
L 718.7016 -373.481208 
L 718.913285 -369.45768 
L 718.922283 -365.434153 
L 718.719153 -361.410625 
L 718.300677 -357.387097 
L 717.67032 -353.36357 
L 716.838241 -349.340042 
L 715.820872 -345.316514 
L 714.640076 -341.292987 
L 713.321982 -337.269459 
L 711.895574 -333.245931 
L 710.391159 -329.222404 
L 708.838829 -325.198876 
L 707.267025 -321.175348 
L 705.701299 -317.151821 
L 704.163366 -313.128293 
L 702.670476 -309.104765 
L 701.235143 -305.081237 
L 699.865228 -301.05771 
L 698.56433 -297.034182 
L 697.332443 -293.010654 
L 696.166784 -288.987127 
L 695.062728 -284.963599 
L 694.014742 -280.940071 
L 693.017238 -276.916544 
L 692.065287 -272.893016 
L 691.155136 -268.869488 
L 690.284505 -264.845961 
L 689.452666 -260.822433 
L 688.660323 -256.798905 
L 687.909341 -252.775378 
L 687.202358 -248.75185 
L 686.542348 -244.728322 
L 685.93219 -240.704794 
L 685.374269 -236.681267 
L 684.870175 -232.657739 
L 684.420484 -228.634211 
L 684.024667 -224.610684 
L 683.681088 -220.587156 
L 683.387104 -216.563628 
L 683.139227 -212.540101 
L 682.933334 -208.516573 
L 682.764896 -204.493045 
L 682.629208 -200.469518 
z
" style="stroke: #3f3f3f; stroke-width: 1.25"/>
    </defs>
    <g clip-path="url(#p441597fd16)">
     <use xlink:href="#m32c304372c" x="0" y="720" style="fill: #3274a1; stroke: #3f3f3f; stroke-width: 1.25"/>
    </g>
   </g>
   <g id="PolyCollection_6">
    <defs>
     <path id="m09c5bbf279" d="M 794.327331 -212.429496 
L 793.272669 -212.429496 
L 793.129124 -215.70999 
L 792.959567 -218.990483 
L 792.763263 -222.270977 
L 792.540664 -225.551471 
L 792.293649 -228.831964 
L 792.025691 -232.112458 
L 791.741925 -235.392951 
L 791.449088 -238.673445 
L 791.155294 -241.953939 
L 790.869669 -245.234432 
L 790.601817 -248.514926 
L 790.361179 -251.79542 
L 790.156297 -255.075913 
L 789.994054 -258.356407 
L 789.878941 -261.636901 
L 789.812416 -264.917394 
L 789.792396 -268.197888 
L 789.812948 -271.478382 
L 789.864171 -274.758875 
L 789.932316 -278.039369 
L 790.000109 -281.319863 
L 790.047269 -284.600356 
L 790.051203 -287.88085 
L 789.987826 -291.161344 
L 789.83249 -294.441837 
L 789.560976 -297.722331 
L 789.150524 -301.002825 
L 788.58086 -304.283318 
L 787.835183 -307.563812 
L 786.901067 -310.844305 
L 785.771235 -314.124799 
L 784.444141 -317.405293 
L 782.924333 -320.685786 
L 781.222532 -323.96628 
L 779.355425 -327.246774 
L 777.345162 -330.527267 
L 775.218579 -333.807761 
L 773.006201 -337.088255 
L 770.741096 -340.368748 
L 768.45766 -343.649242 
L 766.190413 -346.929736 
L 763.972886 -350.210229 
L 761.836649 -353.490723 
L 759.810513 -356.771217 
L 757.919914 -360.05171 
L 756.186469 -363.332204 
L 754.627676 -366.612698 
L 753.256748 -369.893191 
L 752.082556 -373.173685 
L 751.109688 -376.454179 
L 750.338621 -379.734672 
L 749.76604 -383.015166 
L 749.385302 -386.29566 
L 749.187058 -389.576153 
L 749.16 -392.856647 
L 749.291706 -396.13714 
L 749.569489 -399.417634 
L 749.98118 -402.698128 
L 750.515748 -405.978621 
L 751.163681 -409.259115 
L 751.91707 -412.539609 
L 752.769409 -415.820102 
L 753.715131 -419.100596 
L 754.748964 -422.38109 
L 755.865229 -425.661583 
L 757.057197 -428.942077 
L 758.316627 -432.222571 
L 759.633583 -435.503064 
L 760.996559 -438.783558 
L 762.392934 -442.064052 
L 763.809676 -445.344545 
L 765.234197 -448.625039 
L 766.655243 -451.905533 
L 768.063658 -455.186026 
L 769.452926 -458.46652 
L 770.819385 -461.747014 
L 772.162089 -465.027507 
L 773.482326 -468.308001 
L 774.78286 -471.588494 
L 776.067002 -474.868988 
L 777.337641 -478.149482 
L 778.596362 -481.429975 
L 779.842762 -484.710469 
L 781.074055 -487.990963 
L 782.285002 -491.271456 
L 783.468156 -494.55195 
L 784.614391 -497.832444 
L 785.713615 -501.112937 
L 786.755603 -504.393431 
L 787.730816 -507.673925 
L 788.631136 -510.954418 
L 789.450442 -514.234912 
L 790.184977 -517.515406 
L 790.833494 -520.795899 
L 791.397191 -524.076393 
L 791.879467 -527.356887 
L 792.285547 -530.63738 
L 792.622019 -533.917874 
L 792.896359 -537.198368 
L 794.703641 -537.198368 
L 794.703641 -537.198368 
L 794.977981 -533.917874 
L 795.314453 -530.63738 
L 795.720533 -527.356887 
L 796.202809 -524.076393 
L 796.766506 -520.795899 
L 797.415023 -517.515406 
L 798.149558 -514.234912 
L 798.968864 -510.954418 
L 799.869184 -507.673925 
L 800.844397 -504.393431 
L 801.886385 -501.112937 
L 802.985609 -497.832444 
L 804.131844 -494.55195 
L 805.314998 -491.271456 
L 806.525945 -487.990963 
L 807.757238 -484.710469 
L 809.003638 -481.429975 
L 810.262359 -478.149482 
L 811.532998 -474.868988 
L 812.81714 -471.588494 
L 814.117674 -468.308001 
L 815.437911 -465.027507 
L 816.780615 -461.747014 
L 818.147074 -458.46652 
L 819.536342 -455.186026 
L 820.944757 -451.905533 
L 822.365803 -448.625039 
L 823.790324 -445.344545 
L 825.207066 -442.064052 
L 826.603441 -438.783558 
L 827.966417 -435.503064 
L 829.283373 -432.222571 
L 830.542803 -428.942077 
L 831.734771 -425.661583 
L 832.851036 -422.38109 
L 833.884869 -419.100596 
L 834.830591 -415.820102 
L 835.68293 -412.539609 
L 836.436319 -409.259115 
L 837.084252 -405.978621 
L 837.61882 -402.698128 
L 838.030511 -399.417634 
L 838.308294 -396.13714 
L 838.44 -392.856647 
L 838.412942 -389.576153 
L 838.214698 -386.29566 
L 837.83396 -383.015166 
L 837.261379 -379.734672 
L 836.490312 -376.454179 
L 835.517444 -373.173685 
L 834.343252 -369.893191 
L 832.972324 -366.612698 
L 831.413531 -363.332204 
L 829.680086 -360.05171 
L 827.789487 -356.771217 
L 825.763351 -353.490723 
L 823.627114 -350.210229 
L 821.409587 -346.929736 
L 819.14234 -343.649242 
L 816.858904 -340.368748 
L 814.593799 -337.088255 
L 812.381421 -333.807761 
L 810.254838 -330.527267 
L 808.244575 -327.246774 
L 806.377468 -323.96628 
L 804.675667 -320.685786 
L 803.155859 -317.405293 
L 801.828765 -314.124799 
L 800.698933 -310.844305 
L 799.764817 -307.563812 
L 799.01914 -304.283318 
L 798.449476 -301.002825 
L 798.039024 -297.722331 
L 797.76751 -294.441837 
L 797.612174 -291.161344 
L 797.548797 -287.88085 
L 797.552731 -284.600356 
L 797.599891 -281.319863 
L 797.667684 -278.039369 
L 797.735829 -274.758875 
L 797.787052 -271.478382 
L 797.807604 -268.197888 
L 797.787584 -264.917394 
L 797.721059 -261.636901 
L 797.605946 -258.356407 
L 797.443703 -255.075913 
L 797.238821 -251.79542 
L 796.998183 -248.514926 
L 796.730331 -245.234432 
L 796.444706 -241.953939 
L 796.150912 -238.673445 
L 795.858075 -235.392951 
L 795.574309 -232.112458 
L 795.306351 -228.831964 
L 795.059336 -225.551471 
L 794.836737 -222.270977 
L 794.640433 -218.990483 
L 794.470876 -215.70999 
L 794.327331 -212.429496 
z
" style="stroke: #3f3f3f; stroke-width: 1.25"/>
    </defs>
    <g clip-path="url(#p441597fd16)">
     <use xlink:href="#m09c5bbf279" x="0" y="720" style="fill: #3274a1; stroke: #3f3f3f; stroke-width: 1.25"/>
    </g>
   </g>
   <g id="PolyCollection_7">
    <defs>
     <path id="mb027a7299c" d="M 905.980293 -187.668739 
L 904.819707 -187.668739 
L 904.660408 -191.805657 
L 904.469817 -195.942575 
L 904.245516 -200.079493 
L 903.985955 -204.216411 
L 903.690731 -208.353329 
L 903.360852 -212.490247 
L 902.998946 -216.627165 
L 902.609382 -220.764083 
L 902.198285 -224.901001 
L 901.773412 -229.03792 
L 901.343881 -233.174838 
L 900.919747 -237.311756 
L 900.511443 -241.448674 
L 900.12911 -245.585592 
L 899.781869 -249.72251 
L 899.477072 -253.859428 
L 899.21961 -257.996346 
L 899.01134 -262.133264 
L 898.850667 -266.270182 
L 898.732359 -270.4071 
L 898.647585 -274.544019 
L 898.584219 -278.680937 
L 898.527361 -282.817855 
L 898.460058 -286.954773 
L 898.364151 -291.091691 
L 898.221197 -295.228609 
L 898.013363 -299.365527 
L 897.724254 -303.502445 
L 897.339584 -307.639363 
L 896.847661 -311.776281 
L 896.239676 -315.913199 
L 895.509786 -320.050118 
L 894.655036 -324.187036 
L 893.67517 -328.323954 
L 892.572393 -332.460872 
L 891.351164 -336.59779 
L 890.018062 -340.734708 
L 888.581789 -344.871626 
L 887.053301 -349.008544 
L 885.446071 -353.145462 
L 883.776414 -357.28238 
L 882.063809 -361.419298 
L 880.331111 -365.556217 
L 878.604558 -369.693135 
L 876.913481 -373.830053 
L 875.289661 -377.966971 
L 873.766312 -382.103889 
L 872.376729 -386.240807 
L 871.152676 -390.377725 
L 870.122653 -394.514643 
L 869.310204 -398.651561 
L 868.732422 -402.788479 
L 868.398841 -406.925397 
L 868.31082 -411.062316 
L 868.461506 -415.199234 
L 868.836407 -419.336152 
L 869.414503 -423.47307 
L 870.169799 -427.609988 
L 871.073173 -431.746906 
L 872.094322 -435.883824 
L 873.20363 -440.020742 
L 874.373798 -444.15766 
L 875.581093 -448.294578 
L 876.806153 -452.431496 
L 878.034308 -456.568415 
L 879.255466 -460.705333 
L 880.46361 -464.842251 
L 881.656041 -468.979169 
L 882.832464 -473.116087 
L 883.994037 -477.253005 
L 885.142492 -481.389923 
L 886.279411 -485.526841 
L 887.405679 -489.663759 
L 888.521167 -493.800677 
L 889.624602 -497.937595 
L 890.713616 -502.074514 
L 891.784915 -506.211432 
L 892.834526 -510.34835 
L 893.858077 -514.485268 
L 894.851061 -518.622186 
L 895.809073 -522.759104 
L 896.727994 -526.896022 
L 897.604119 -531.03294 
L 898.434242 -535.169858 
L 899.215703 -539.306776 
L 899.946409 -543.443694 
L 900.624846 -547.580613 
L 901.25008 -551.717531 
L 901.821765 -555.854449 
L 902.340142 -559.991367 
L 902.806046 -564.128285 
L 903.220889 -568.265203 
L 903.586642 -572.402121 
L 903.905787 -576.539039 
L 904.181263 -580.675957 
L 904.416375 -584.812875 
L 904.614704 -588.949794 
L 904.779998 -593.086712 
L 904.91606 -597.22363 
L 905.88394 -597.22363 
L 905.88394 -597.22363 
L 906.020002 -593.086712 
L 906.185296 -588.949794 
L 906.383625 -584.812875 
L 906.618737 -580.675957 
L 906.894213 -576.539039 
L 907.213358 -572.402121 
L 907.579111 -568.265203 
L 907.993954 -564.128285 
L 908.459858 -559.991367 
L 908.978235 -555.854449 
L 909.54992 -551.717531 
L 910.175154 -547.580613 
L 910.853591 -543.443694 
L 911.584297 -539.306776 
L 912.365758 -535.169858 
L 913.195881 -531.03294 
L 914.072006 -526.896022 
L 914.990927 -522.759104 
L 915.948939 -518.622186 
L 916.941923 -514.485268 
L 917.965474 -510.34835 
L 919.015085 -506.211432 
L 920.086384 -502.074514 
L 921.175398 -497.937595 
L 922.278833 -493.800677 
L 923.394321 -489.663759 
L 924.520589 -485.526841 
L 925.657508 -481.389923 
L 926.805963 -477.253005 
L 927.967536 -473.116087 
L 929.143959 -468.979169 
L 930.33639 -464.842251 
L 931.544534 -460.705333 
L 932.765692 -456.568415 
L 933.993847 -452.431496 
L 935.218907 -448.294578 
L 936.426202 -444.15766 
L 937.59637 -440.020742 
L 938.705678 -435.883824 
L 939.726827 -431.746906 
L 940.630201 -427.609988 
L 941.385497 -423.47307 
L 941.963593 -419.336152 
L 942.338494 -415.199234 
L 942.48918 -411.062316 
L 942.401159 -406.925397 
L 942.067578 -402.788479 
L 941.489796 -398.651561 
L 940.677347 -394.514643 
L 939.647324 -390.377725 
L 938.423271 -386.240807 
L 937.033688 -382.103889 
L 935.510339 -377.966971 
L 933.886519 -373.830053 
L 932.195442 -369.693135 
L 930.468889 -365.556217 
L 928.736191 -361.419298 
L 927.023586 -357.28238 
L 925.353929 -353.145462 
L 923.746699 -349.008544 
L 922.218211 -344.871626 
L 920.781938 -340.734708 
L 919.448836 -336.59779 
L 918.227607 -332.460872 
L 917.12483 -328.323954 
L 916.144964 -324.187036 
L 915.290214 -320.050118 
L 914.560324 -315.913199 
L 913.952339 -311.776281 
L 913.460416 -307.639363 
L 913.075746 -303.502445 
L 912.786637 -299.365527 
L 912.578803 -295.228609 
L 912.435849 -291.091691 
L 912.339942 -286.954773 
L 912.272639 -282.817855 
L 912.215781 -278.680937 
L 912.152415 -274.544019 
L 912.067641 -270.4071 
L 911.949333 -266.270182 
L 911.78866 -262.133264 
L 911.58039 -257.996346 
L 911.322928 -253.859428 
L 911.018131 -249.72251 
L 910.67089 -245.585592 
L 910.288557 -241.448674 
L 909.880253 -237.311756 
L 909.456119 -233.174838 
L 909.026588 -229.03792 
L 908.601715 -224.901001 
L 908.190618 -220.764083 
L 907.801054 -216.627165 
L 907.439148 -212.490247 
L 907.109269 -208.353329 
L 906.814045 -204.216411 
L 906.554484 -200.079493 
L 906.330183 -195.942575 
L 906.139592 -191.805657 
L 905.980293 -187.668739 
z
" style="stroke: #3f3f3f; stroke-width: 1.25"/>
    </defs>
    <g clip-path="url(#p441597fd16)">
     <use xlink:href="#mb027a7299c" x="0" y="720" style="fill: #3274a1; stroke: #3f3f3f; stroke-width: 1.25"/>
    </g>
   </g>
   <g id="PolyCollection_8">
    <defs>
     <path id="m6853f49714" d="M 1017.537479 -117.413277 
L 1016.462521 -117.413277 
L 1016.341466 -122.190317 
L 1016.201731 -126.967356 
L 1016.042608 -131.744396 
L 1015.863896 -136.521435 
L 1015.665997 -141.298475 
L 1015.449986 -146.075514 
L 1015.217656 -150.852554 
L 1014.971517 -155.629594 
L 1014.714749 -160.406633 
L 1014.451097 -165.183673 
L 1014.184713 -169.960712 
L 1013.919946 -174.737752 
L 1013.661082 -179.514791 
L 1013.412061 -184.291831 
L 1013.176169 -189.06887 
L 1012.955746 -193.84591 
L 1012.751913 -198.622949 
L 1012.564358 -203.399989 
L 1012.391188 -208.177028 
L 1012.228874 -212.954068 
L 1012.072292 -217.731108 
L 1011.914875 -222.508147 
L 1011.748856 -227.285187 
L 1011.565612 -232.062226 
L 1011.356068 -236.839266 
L 1011.11115 -241.616305 
L 1010.822252 -246.393345 
L 1010.481686 -251.170384 
L 1010.083076 -255.947424 
L 1009.621686 -260.724463 
L 1009.094634 -265.501503 
L 1008.501001 -270.278542 
L 1007.841817 -275.055582 
L 1007.119929 -279.832621 
L 1006.339775 -284.609661 
L 1005.507066 -289.386701 
L 1004.62844 -294.16374 
L 1003.71108 -298.94078 
L 1002.762366 -303.717819 
L 1001.789571 -308.494859 
L 1000.799643 -313.271898 
L 999.799072 -318.048938 
L 998.793876 -322.825977 
L 997.78968 -327.603017 
L 996.791887 -332.380056 
L 995.805921 -337.157096 
L 994.837495 -341.934135 
L 993.892885 -346.711175 
L 992.979161 -351.488215 
L 992.104346 -356.265254 
L 991.277471 -361.042294 
L 990.508511 -365.819333 
L 989.808188 -370.596373 
L 989.187647 -375.373412 
L 988.658037 -380.150452 
L 988.230001 -384.927491 
L 987.913141 -389.704531 
L 987.715482 -394.48157 
L 987.642992 -399.25861 
L 987.699194 -404.035649 
L 987.884907 -408.812689 
L 988.198142 -413.589729 
L 988.634159 -418.366768 
L 989.18568 -423.143808 
L 989.843253 -427.920847 
L 990.595716 -432.697887 
L 991.430745 -437.474926 
L 992.335419 -442.251966 
L 993.296782 -447.029005 
L 994.302335 -451.806045 
L 995.340452 -456.583084 
L 996.400669 -461.360124 
L 997.473854 -466.137163 
L 998.55225 -470.914203 
L 999.629407 -475.691242 
L 1000.700018 -480.468282 
L 1001.759697 -485.245322 
L 1002.804719 -490.022361 
L 1003.831767 -494.799401 
L 1004.837698 -499.57644 
L 1005.819362 -504.35348 
L 1006.773486 -509.130519 
L 1007.696625 -513.907559 
L 1008.585189 -518.684598 
L 1009.435519 -523.461638 
L 1010.244022 -528.238677 
L 1011.007323 -533.015717 
L 1011.722434 -537.792756 
L 1012.386913 -542.569796 
L 1012.998995 -547.346836 
L 1013.557692 -552.123875 
L 1014.062846 -556.900915 
L 1014.515137 -561.677954 
L 1014.916044 -566.454994 
L 1015.267775 -571.232033 
L 1015.573154 -576.009073 
L 1015.835495 -580.786112 
L 1016.058461 -585.563152 
L 1016.245924 -590.340191 
L 1017.754076 -590.340191 
L 1017.754076 -590.340191 
L 1017.941539 -585.563152 
L 1018.164505 -580.786112 
L 1018.426846 -576.009073 
L 1018.732225 -571.232033 
L 1019.083956 -566.454994 
L 1019.484863 -561.677954 
L 1019.937154 -556.900915 
L 1020.442308 -552.123875 
L 1021.001005 -547.346836 
L 1021.613087 -542.569796 
L 1022.277566 -537.792756 
L 1022.992677 -533.015717 
L 1023.755978 -528.238677 
L 1024.564481 -523.461638 
L 1025.414811 -518.684598 
L 1026.303375 -513.907559 
L 1027.226514 -509.130519 
L 1028.180638 -504.35348 
L 1029.162302 -499.57644 
L 1030.168233 -494.799401 
L 1031.195281 -490.022361 
L 1032.240303 -485.245322 
L 1033.299982 -480.468282 
L 1034.370593 -475.691242 
L 1035.44775 -470.914203 
L 1036.526146 -466.137163 
L 1037.599331 -461.360124 
L 1038.659548 -456.583084 
L 1039.697665 -451.806045 
L 1040.703218 -447.029005 
L 1041.664581 -442.251966 
L 1042.569255 -437.474926 
L 1043.404284 -432.697887 
L 1044.156747 -427.920847 
L 1044.81432 -423.143808 
L 1045.365841 -418.366768 
L 1045.801858 -413.589729 
L 1046.115093 -408.812689 
L 1046.300806 -404.035649 
L 1046.357008 -399.25861 
L 1046.284518 -394.48157 
L 1046.086859 -389.704531 
L 1045.769999 -384.927491 
L 1045.341963 -380.150452 
L 1044.812353 -375.373412 
L 1044.191812 -370.596373 
L 1043.491489 -365.819333 
L 1042.722529 -361.042294 
L 1041.895654 -356.265254 
L 1041.020839 -351.488215 
L 1040.107115 -346.711175 
L 1039.162505 -341.934135 
L 1038.194079 -337.157096 
L 1037.208113 -332.380056 
L 1036.21032 -327.603017 
L 1035.206124 -322.825977 
L 1034.200928 -318.048938 
L 1033.200357 -313.271898 
L 1032.210429 -308.494859 
L 1031.237634 -303.717819 
L 1030.28892 -298.94078 
L 1029.37156 -294.16374 
L 1028.492934 -289.386701 
L 1027.660225 -284.609661 
L 1026.880071 -279.832621 
L 1026.158183 -275.055582 
L 1025.498999 -270.278542 
L 1024.905366 -265.501503 
L 1024.378314 -260.724463 
L 1023.916924 -255.947424 
L 1023.518314 -251.170384 
L 1023.177748 -246.393345 
L 1022.88885 -241.616305 
L 1022.643932 -236.839266 
L 1022.434388 -232.062226 
L 1022.251144 -227.285187 
L 1022.085125 -222.508147 
L 1021.927708 -217.731108 
L 1021.771126 -212.954068 
L 1021.608812 -208.177028 
L 1021.435642 -203.399989 
L 1021.248087 -198.622949 
L 1021.044254 -193.84591 
L 1020.823831 -189.06887 
L 1020.587939 -184.291831 
L 1020.338918 -179.514791 
L 1020.080054 -174.737752 
L 1019.815287 -169.960712 
L 1019.548903 -165.183673 
L 1019.285251 -160.406633 
L 1019.028483 -155.629594 
L 1018.782344 -150.852554 
L 1018.550014 -146.075514 
L 1018.334003 -141.298475 
L 1018.136104 -136.521435 
L 1017.957392 -131.744396 
L 1017.798269 -126.967356 
L 1017.658534 -122.190317 
L 1017.537479 -117.413277 
z
" style="stroke: #3f3f3f; stroke-width: 1.25"/>
    </defs>
    <g clip-path="url(#p441597fd16)">
     <use xlink:href="#m6853f49714" x="0" y="720" style="fill: #3274a1; stroke: #3f3f3f; stroke-width: 1.25"/>
    </g>
   </g>
   <g id="PolyCollection_9">
    <defs>
     <path id="m059acefcb2" d="M 1129.089007 -146.615248 
L 1128.110993 -146.615248 
L 1127.997761 -151.194431 
L 1127.865114 -155.773614 
L 1127.711359 -160.352797 
L 1127.534995 -164.931981 
L 1127.334773 -169.511164 
L 1127.109751 -174.090347 
L 1126.859339 -178.669531 
L 1126.583314 -183.248714 
L 1126.281822 -187.827897 
L 1125.955341 -192.407081 
L 1125.604625 -196.986264 
L 1125.230608 -201.565447 
L 1124.834292 -206.144631 
L 1124.416607 -210.723814 
L 1123.978264 -215.302997 
L 1123.519605 -219.88218 
L 1123.040474 -224.461364 
L 1122.5401 -229.040547 
L 1122.017028 -233.61973 
L 1121.469106 -238.198914 
L 1120.893526 -242.778097 
L 1120.286933 -247.35728 
L 1119.645615 -251.936464 
L 1118.965752 -256.515647 
L 1118.243729 -261.09483 
L 1117.476496 -265.674014 
L 1116.661962 -270.253197 
L 1115.799388 -274.83238 
L 1114.88977 -279.411563 
L 1113.93617 -283.990747 
L 1112.94398 -288.56993 
L 1111.921084 -293.149113 
L 1110.877895 -297.728297 
L 1109.827268 -302.30748 
L 1108.784247 -306.886663 
L 1107.765678 -311.465847 
L 1106.789674 -316.04503 
L 1105.87495 -320.624213 
L 1105.040073 -325.203397 
L 1104.302631 -329.78258 
L 1103.678397 -334.361763 
L 1103.180505 -338.940946 
L 1102.818707 -343.52013 
L 1102.598753 -348.099313 
L 1102.521933 -352.678496 
L 1102.584827 -357.25768 
L 1102.77929 -361.836863 
L 1103.092673 -366.416046 
L 1103.508298 -370.99523 
L 1104.006159 -375.574413 
L 1104.563818 -380.153596 
L 1105.157455 -384.73278 
L 1105.763014 -389.311963 
L 1106.35738 -393.891146 
L 1106.919509 -398.47033 
L 1107.431464 -403.049513 
L 1107.879271 -407.628696 
L 1108.253565 -412.207879 
L 1108.549965 -416.787063 
L 1108.769186 -421.366246 
L 1108.916854 -425.945429 
L 1109.003073 -430.524613 
L 1109.041739 -435.103796 
L 1109.049684 -439.682979 
L 1109.045687 -444.262163 
L 1109.049409 -448.841346 
L 1109.08034 -453.420529 
L 1109.1568 -457.999713 
L 1109.29505 -462.578896 
L 1109.508562 -467.158079 
L 1109.807482 -471.737262 
L 1110.198288 -476.316446 
L 1110.68366 -480.895629 
L 1111.262545 -485.474812 
L 1111.930404 -490.053996 
L 1112.679595 -494.633179 
L 1113.499881 -499.212362 
L 1114.379008 -503.791546 
L 1115.30332 -508.370729 
L 1116.25838 -512.949912 
L 1117.229564 -517.529096 
L 1118.202601 -522.108279 
L 1119.164044 -526.687462 
L 1120.10165 -531.266645 
L 1121.004676 -535.845829 
L 1121.864075 -540.425012 
L 1122.67261 -545.004195 
L 1123.424874 -549.583379 
L 1124.117254 -554.162562 
L 1124.747818 -558.741745 
L 1125.316165 -563.320929 
L 1125.823235 -567.900112 
L 1126.271103 -572.479295 
L 1126.662759 -577.058479 
L 1127.001887 -581.637662 
L 1127.292658 -586.216845 
L 1127.539536 -590.796028 
L 1127.747108 -595.375212 
L 1127.919935 -599.954395 
L 1129.280065 -599.954395 
L 1129.280065 -599.954395 
L 1129.452892 -595.375212 
L 1129.660464 -590.796028 
L 1129.907342 -586.216845 
L 1130.198113 -581.637662 
L 1130.537241 -577.058479 
L 1130.928897 -572.479295 
L 1131.376765 -567.900112 
L 1131.883835 -563.320929 
L 1132.452182 -558.741745 
L 1133.082746 -554.162562 
L 1133.775126 -549.583379 
L 1134.52739 -545.004195 
L 1135.335925 -540.425012 
L 1136.195324 -535.845829 
L 1137.09835 -531.266645 
L 1138.035956 -526.687462 
L 1138.997399 -522.108279 
L 1139.970436 -517.529096 
L 1140.94162 -512.949912 
L 1141.89668 -508.370729 
L 1142.820992 -503.791546 
L 1143.700119 -499.212362 
L 1144.520405 -494.633179 
L 1145.269596 -490.053996 
L 1145.937455 -485.474812 
L 1146.51634 -480.895629 
L 1147.001712 -476.316446 
L 1147.392518 -471.737262 
L 1147.691438 -467.158079 
L 1147.90495 -462.578896 
L 1148.0432 -457.999713 
L 1148.11966 -453.420529 
L 1148.150591 -448.841346 
L 1148.154313 -444.262163 
L 1148.150316 -439.682979 
L 1148.158261 -435.103796 
L 1148.196927 -430.524613 
L 1148.283146 -425.945429 
L 1148.430814 -421.366246 
L 1148.650035 -416.787063 
L 1148.946435 -412.207879 
L 1149.320729 -407.628696 
L 1149.768536 -403.049513 
L 1150.280491 -398.47033 
L 1150.84262 -393.891146 
L 1151.436986 -389.311963 
L 1152.042545 -384.73278 
L 1152.636182 -380.153596 
L 1153.193841 -375.574413 
L 1153.691702 -370.99523 
L 1154.107327 -366.416046 
L 1154.42071 -361.836863 
L 1154.615173 -357.25768 
L 1154.678067 -352.678496 
L 1154.601247 -348.099313 
L 1154.381293 -343.52013 
L 1154.019495 -338.940946 
L 1153.521603 -334.361763 
L 1152.897369 -329.78258 
L 1152.159927 -325.203397 
L 1151.32505 -320.624213 
L 1150.410326 -316.04503 
L 1149.434322 -311.465847 
L 1148.415753 -306.886663 
L 1147.372732 -302.30748 
L 1146.322105 -297.728297 
L 1145.278916 -293.149113 
L 1144.25602 -288.56993 
L 1143.26383 -283.990747 
L 1142.31023 -279.411563 
L 1141.400612 -274.83238 
L 1140.538038 -270.253197 
L 1139.723504 -265.674014 
L 1138.956271 -261.09483 
L 1138.234248 -256.515647 
L 1137.554385 -251.936464 
L 1136.913067 -247.35728 
L 1136.306474 -242.778097 
L 1135.730894 -238.198914 
L 1135.182972 -233.61973 
L 1134.6599 -229.040547 
L 1134.159526 -224.461364 
L 1133.680395 -219.88218 
L 1133.221736 -215.302997 
L 1132.783393 -210.723814 
L 1132.365708 -206.144631 
L 1131.969392 -201.565447 
L 1131.595375 -196.986264 
L 1131.244659 -192.407081 
L 1130.918178 -187.827897 
L 1130.616686 -183.248714 
L 1130.340661 -178.669531 
L 1130.090249 -174.090347 
L 1129.865227 -169.511164 
L 1129.665005 -164.931981 
L 1129.488641 -160.352797 
L 1129.334886 -155.773614 
L 1129.202239 -151.194431 
L 1129.089007 -146.615248 
z
" style="stroke: #3f3f3f; stroke-width: 1.25"/>
    </defs>
    <g clip-path="url(#p441597fd16)">
     <use xlink:href="#m059acefcb2" x="0" y="720" style="fill: #3274a1; stroke: #3f3f3f; stroke-width: 1.25"/>
    </g>
   </g>
   <g id="PolyCollection_10">
    <defs>
     <path id="m4ab6af6edb" d="M 1241.015142 -234.013715 
L 1239.384858 -234.013715 
L 1239.216299 -237.795395 
L 1239.023716 -241.577075 
L 1238.806233 -245.358754 
L 1238.563527 -249.140434 
L 1238.29593 -252.922114 
L 1238.004511 -256.703793 
L 1237.69113 -260.485473 
L 1237.358457 -264.267152 
L 1237.009946 -268.048832 
L 1236.649751 -271.830512 
L 1236.282591 -275.612191 
L 1235.913559 -279.393871 
L 1235.547869 -283.175551 
L 1235.190566 -286.95723 
L 1234.846193 -290.73891 
L 1234.518437 -294.52059 
L 1234.209779 -298.302269 
L 1233.92115 -302.083949 
L 1233.651642 -305.865629 
L 1233.398269 -309.647308 
L 1233.155823 -313.428988 
L 1232.91682 -317.210667 
L 1232.671571 -320.992347 
L 1232.408376 -324.774027 
L 1232.113841 -328.555706 
L 1231.773327 -332.337386 
L 1231.3715 -336.119066 
L 1230.892987 -339.900745 
L 1230.323094 -343.682425 
L 1229.648571 -347.464105 
L 1228.858374 -351.245784 
L 1227.944404 -355.027464 
L 1226.902171 -358.809144 
L 1225.73135 -362.590823 
L 1224.436193 -366.372503 
L 1223.025767 -370.154182 
L 1221.513993 -373.935862 
L 1219.91947 -377.717542 
L 1218.265076 -381.499221 
L 1216.577367 -385.280901 
L 1214.885763 -389.062581 
L 1213.221579 -392.84426 
L 1211.616921 -396.62594 
L 1210.103509 -400.40762 
L 1208.711467 -404.189299 
L 1207.468156 -407.970979 
L 1206.397099 -411.752659 
L 1205.517057 -415.534338 
L 1204.841308 -419.316018 
L 1204.377168 -423.097697 
L 1204.125781 -426.879377 
L 1204.082193 -430.661057 
L 1204.235706 -434.442736 
L 1204.570491 -438.224416 
L 1205.06643 -442.006096 
L 1205.700144 -445.787775 
L 1206.446136 -449.569455 
L 1207.278001 -453.351135 
L 1208.169635 -457.132814 
L 1209.096362 -460.914494 
L 1210.03595 -464.696174 
L 1210.969436 -468.477853 
L 1211.881739 -472.259533 
L 1212.762037 -476.041212 
L 1213.603884 -479.822892 
L 1214.4051 -483.604572 
L 1215.167417 -487.386251 
L 1215.895953 -491.167931 
L 1216.59852 -494.949611 
L 1217.284841 -498.73129 
L 1217.965711 -502.51297 
L 1218.652159 -506.29465 
L 1219.354663 -510.076329 
L 1220.082451 -513.858009 
L 1220.84293 -517.639689 
L 1221.641258 -521.421368 
L 1222.480087 -525.203048 
L 1223.359458 -528.984727 
L 1224.276864 -532.766407 
L 1225.227445 -536.548087 
L 1226.204304 -540.329766 
L 1227.198914 -544.111446 
L 1228.201584 -547.893126 
L 1229.201947 -551.674805 
L 1230.189453 -555.456485 
L 1231.153828 -559.238165 
L 1232.085483 -563.019844 
L 1232.975858 -566.801524 
L 1233.817675 -570.583204 
L 1234.605123 -574.364883 
L 1235.333945 -578.146563 
L 1236.001451 -581.928242 
L 1236.606461 -585.709922 
L 1237.149191 -589.491602 
L 1237.631089 -593.273281 
L 1238.054646 -597.054961 
L 1238.423188 -600.836641 
L 1238.740666 -604.61832 
L 1239.011445 -608.4 
L 1241.388555 -608.4 
L 1241.388555 -608.4 
L 1241.659334 -604.61832 
L 1241.976812 -600.836641 
L 1242.345354 -597.054961 
L 1242.768911 -593.273281 
L 1243.250809 -589.491602 
L 1243.793539 -585.709922 
L 1244.398549 -581.928242 
L 1245.066055 -578.146563 
L 1245.794877 -574.364883 
L 1246.582325 -570.583204 
L 1247.424142 -566.801524 
L 1248.314517 -563.019844 
L 1249.246172 -559.238165 
L 1250.210547 -555.456485 
L 1251.198053 -551.674805 
L 1252.198416 -547.893126 
L 1253.201086 -544.111446 
L 1254.195696 -540.329766 
L 1255.172555 -536.548087 
L 1256.123136 -532.766407 
L 1257.040542 -528.984727 
L 1257.919913 -525.203048 
L 1258.758742 -521.421368 
L 1259.55707 -517.639689 
L 1260.317549 -513.858009 
L 1261.045337 -510.076329 
L 1261.747841 -506.29465 
L 1262.434289 -502.51297 
L 1263.115159 -498.73129 
L 1263.80148 -494.949611 
L 1264.504047 -491.167931 
L 1265.232583 -487.386251 
L 1265.9949 -483.604572 
L 1266.796116 -479.822892 
L 1267.637963 -476.041212 
L 1268.518261 -472.259533 
L 1269.430564 -468.477853 
L 1270.36405 -464.696174 
L 1271.303638 -460.914494 
L 1272.230365 -457.132814 
L 1273.121999 -453.351135 
L 1273.953864 -449.569455 
L 1274.699856 -445.787775 
L 1275.33357 -442.006096 
L 1275.829509 -438.224416 
L 1276.164294 -434.442736 
L 1276.317807 -430.661057 
L 1276.274219 -426.879377 
L 1276.022832 -423.097697 
L 1275.558692 -419.316018 
L 1274.882943 -415.534338 
L 1274.002901 -411.752659 
L 1272.931844 -407.970979 
L 1271.688533 -404.189299 
L 1270.296491 -400.40762 
L 1268.783079 -396.62594 
L 1267.178421 -392.84426 
L 1265.514237 -389.062581 
L 1263.822633 -385.280901 
L 1262.134924 -381.499221 
L 1260.48053 -377.717542 
L 1258.886007 -373.935862 
L 1257.374233 -370.154182 
L 1255.963807 -366.372503 
L 1254.66865 -362.590823 
L 1253.497829 -358.809144 
L 1252.455596 -355.027464 
L 1251.541626 -351.245784 
L 1250.751429 -347.464105 
L 1250.076906 -343.682425 
L 1249.507013 -339.900745 
L 1249.0285 -336.119066 
L 1248.626673 -332.337386 
L 1248.286159 -328.555706 
L 1247.991624 -324.774027 
L 1247.728429 -320.992347 
L 1247.48318 -317.210667 
L 1247.244177 -313.428988 
L 1247.001731 -309.647308 
L 1246.748358 -305.865629 
L 1246.47885 -302.083949 
L 1246.190221 -298.302269 
L 1245.881563 -294.52059 
L 1245.553807 -290.73891 
L 1245.209434 -286.95723 
L 1244.852131 -283.175551 
L 1244.486441 -279.393871 
L 1244.117409 -275.612191 
L 1243.750249 -271.830512 
L 1243.390054 -268.048832 
L 1243.041543 -264.267152 
L 1242.70887 -260.485473 
L 1242.395489 -256.703793 
L 1242.10407 -252.922114 
L 1241.836473 -249.140434 
L 1241.593767 -245.358754 
L 1241.376284 -241.577075 
L 1241.183701 -237.795395 
L 1241.015142 -234.013715 
z
" style="stroke: #3f3f3f; stroke-width: 1.25"/>
    </defs>
    <g clip-path="url(#p441597fd16)">
     <use xlink:href="#m4ab6af6edb" x="0" y="720" style="fill: #3274a1; stroke: #3f3f3f; stroke-width: 1.25"/>
    </g>
   </g>
   <g id="matplotlib.axis_1">
    <g id="xtick_1">
     <g id="line2d_1">
      <defs>
       <path id="m1e50b40dc1" d="M 0 0 
L 0 3.5 
" style="stroke: #000000; stroke-width: 0.8"/>
      </defs>
      <g>
       <use xlink:href="#m1e50b40dc1" x="235.8" y="640.8" style="stroke: #000000; stroke-width: 0.8"/>
      </g>
     </g>
     <g id="text_1">
      <!-- 0 -->
      <g transform="translate(232.61875 655.398438) scale(0.1 -0.1)">
       <defs>
        <path id="DejaVuSans-30" d="M 2034 4250 
Q 1547 4250 1301 3770 
Q 1056 3291 1056 2328 
Q 1056 1369 1301 889 
Q 1547 409 2034 409 
Q 2525 409 2770 889 
Q 3016 1369 3016 2328 
Q 3016 3291 2770 3770 
Q 2525 4250 2034 4250 
z
M 2034 4750 
Q 2819 4750 3233 4129 
Q 3647 3509 3647 2328 
Q 3647 1150 3233 529 
Q 2819 -91 2034 -91 
Q 1250 -91 836 529 
Q 422 1150 422 2328 
Q 422 3509 836 4129 
Q 1250 4750 2034 4750 
z
" transform="scale(0.015625)"/>
       </defs>
       <use xlink:href="#DejaVuSans-30"/>
      </g>
     </g>
    </g>
    <g id="xtick_2">
     <g id="line2d_2">
      <g>
       <use xlink:href="#m1e50b40dc1" x="347.4" y="640.8" style="stroke: #000000; stroke-width: 0.8"/>
      </g>
     </g>
     <g id="text_2">
      <!-- 1 -->
      <g transform="translate(344.21875 655.398438) scale(0.1 -0.1)">
       <defs>
        <path id="DejaVuSans-31" d="M 794 531 
L 1825 531 
L 1825 4091 
L 703 3866 
L 703 4441 
L 1819 4666 
L 2450 4666 
L 2450 531 
L 3481 531 
L 3481 0 
L 794 0 
L 794 531 
z
" transform="scale(0.015625)"/>
       </defs>
       <use xlink:href="#DejaVuSans-31"/>
      </g>
     </g>
    </g>
    <g id="xtick_3">
     <g id="line2d_3">
      <g>
       <use xlink:href="#m1e50b40dc1" x="459" y="640.8" style="stroke: #000000; stroke-width: 0.8"/>
      </g>
     </g>
     <g id="text_3">
      <!-- 2 -->
      <g transform="translate(455.81875 655.398438) scale(0.1 -0.1)">
       <defs>
        <path id="DejaVuSans-32" d="M 1228 531 
L 3431 531 
L 3431 0 
L 469 0 
L 469 531 
Q 828 903 1448 1529 
Q 2069 2156 2228 2338 
Q 2531 2678 2651 2914 
Q 2772 3150 2772 3378 
Q 2772 3750 2511 3984 
Q 2250 4219 1831 4219 
Q 1534 4219 1204 4116 
Q 875 4013 500 3803 
L 500 4441 
Q 881 4594 1212 4672 
Q 1544 4750 1819 4750 
Q 2544 4750 2975 4387 
Q 3406 4025 3406 3419 
Q 3406 3131 3298 2873 
Q 3191 2616 2906 2266 
Q 2828 2175 2409 1742 
Q 1991 1309 1228 531 
z
" transform="scale(0.015625)"/>
       </defs>
       <use xlink:href="#DejaVuSans-32"/>
      </g>
     </g>
    </g>
    <g id="xtick_4">
     <g id="line2d_4">
      <g>
       <use xlink:href="#m1e50b40dc1" x="570.6" y="640.8" style="stroke: #000000; stroke-width: 0.8"/>
      </g>
     </g>
     <g id="text_4">
      <!-- 3 -->
      <g transform="translate(567.41875 655.398438) scale(0.1 -0.1)">
       <defs>
        <path id="DejaVuSans-33" d="M 2597 2516 
Q 3050 2419 3304 2112 
Q 3559 1806 3559 1356 
Q 3559 666 3084 287 
Q 2609 -91 1734 -91 
Q 1441 -91 1130 -33 
Q 819 25 488 141 
L 488 750 
Q 750 597 1062 519 
Q 1375 441 1716 441 
Q 2309 441 2620 675 
Q 2931 909 2931 1356 
Q 2931 1769 2642 2001 
Q 2353 2234 1838 2234 
L 1294 2234 
L 1294 2753 
L 1863 2753 
Q 2328 2753 2575 2939 
Q 2822 3125 2822 3475 
Q 2822 3834 2567 4026 
Q 2313 4219 1838 4219 
Q 1578 4219 1281 4162 
Q 984 4106 628 3988 
L 628 4550 
Q 988 4650 1302 4700 
Q 1616 4750 1894 4750 
Q 2613 4750 3031 4423 
Q 3450 4097 3450 3541 
Q 3450 3153 3228 2886 
Q 3006 2619 2597 2516 
z
" transform="scale(0.015625)"/>
       </defs>
       <use xlink:href="#DejaVuSans-33"/>
      </g>
     </g>
    </g>
    <g id="xtick_5">
     <g id="line2d_5">
      <g>
       <use xlink:href="#m1e50b40dc1" x="682.2" y="640.8" style="stroke: #000000; stroke-width: 0.8"/>
      </g>
     </g>
     <g id="text_5">
      <!-- 4 -->
      <g transform="translate(679.01875 655.398438) scale(0.1 -0.1)">
       <defs>
        <path id="DejaVuSans-34" d="M 2419 4116 
L 825 1625 
L 2419 1625 
L 2419 4116 
z
M 2253 4666 
L 3047 4666 
L 3047 1625 
L 3713 1625 
L 3713 1100 
L 3047 1100 
L 3047 0 
L 2419 0 
L 2419 1100 
L 313 1100 
L 313 1709 
L 2253 4666 
z
" transform="scale(0.015625)"/>
       </defs>
       <use xlink:href="#DejaVuSans-34"/>
      </g>
     </g>
    </g>
    <g id="xtick_6">
     <g id="line2d_6">
      <g>
       <use xlink:href="#m1e50b40dc1" x="793.8" y="640.8" style="stroke: #000000; stroke-width: 0.8"/>
      </g>
     </g>
     <g id="text_6">
      <!-- 5 -->
      <g transform="translate(790.61875 655.398438) scale(0.1 -0.1)">
       <defs>
        <path id="DejaVuSans-35" d="M 691 4666 
L 3169 4666 
L 3169 4134 
L 1269 4134 
L 1269 2991 
Q 1406 3038 1543 3061 
Q 1681 3084 1819 3084 
Q 2600 3084 3056 2656 
Q 3513 2228 3513 1497 
Q 3513 744 3044 326 
Q 2575 -91 1722 -91 
Q 1428 -91 1123 -41 
Q 819 9 494 109 
L 494 744 
Q 775 591 1075 516 
Q 1375 441 1709 441 
Q 2250 441 2565 725 
Q 2881 1009 2881 1497 
Q 2881 1984 2565 2268 
Q 2250 2553 1709 2553 
Q 1456 2553 1204 2497 
Q 953 2441 691 2322 
L 691 4666 
z
" transform="scale(0.015625)"/>
       </defs>
       <use xlink:href="#DejaVuSans-35"/>
      </g>
     </g>
    </g>
    <g id="xtick_7">
     <g id="line2d_7">
      <g>
       <use xlink:href="#m1e50b40dc1" x="905.4" y="640.8" style="stroke: #000000; stroke-width: 0.8"/>
      </g>
     </g>
     <g id="text_7">
      <!-- 6 -->
      <g transform="translate(902.21875 655.398438) scale(0.1 -0.1)">
       <defs>
        <path id="DejaVuSans-36" d="M 2113 2584 
Q 1688 2584 1439 2293 
Q 1191 2003 1191 1497 
Q 1191 994 1439 701 
Q 1688 409 2113 409 
Q 2538 409 2786 701 
Q 3034 994 3034 1497 
Q 3034 2003 2786 2293 
Q 2538 2584 2113 2584 
z
M 3366 4563 
L 3366 3988 
Q 3128 4100 2886 4159 
Q 2644 4219 2406 4219 
Q 1781 4219 1451 3797 
Q 1122 3375 1075 2522 
Q 1259 2794 1537 2939 
Q 1816 3084 2150 3084 
Q 2853 3084 3261 2657 
Q 3669 2231 3669 1497 
Q 3669 778 3244 343 
Q 2819 -91 2113 -91 
Q 1303 -91 875 529 
Q 447 1150 447 2328 
Q 447 3434 972 4092 
Q 1497 4750 2381 4750 
Q 2619 4750 2861 4703 
Q 3103 4656 3366 4563 
z
" transform="scale(0.015625)"/>
       </defs>
       <use xlink:href="#DejaVuSans-36"/>
      </g>
     </g>
    </g>
    <g id="xtick_8">
     <g id="line2d_8">
      <g>
       <use xlink:href="#m1e50b40dc1" x="1017" y="640.8" style="stroke: #000000; stroke-width: 0.8"/>
      </g>
     </g>
     <g id="text_8">
      <!-- 7 -->
      <g transform="translate(1013.81875 655.398438) scale(0.1 -0.1)">
       <defs>
        <path id="DejaVuSans-37" d="M 525 4666 
L 3525 4666 
L 3525 4397 
L 1831 0 
L 1172 0 
L 2766 4134 
L 525 4134 
L 525 4666 
z
" transform="scale(0.015625)"/>
       </defs>
       <use xlink:href="#DejaVuSans-37"/>
      </g>
     </g>
    </g>
    <g id="xtick_9">
     <g id="line2d_9">
      <g>
       <use xlink:href="#m1e50b40dc1" x="1128.6" y="640.8" style="stroke: #000000; stroke-width: 0.8"/>
      </g>
     </g>
     <g id="text_9">
      <!-- 8 -->
      <g transform="translate(1125.41875 655.398438) scale(0.1 -0.1)">
       <defs>
        <path id="DejaVuSans-38" d="M 2034 2216 
Q 1584 2216 1326 1975 
Q 1069 1734 1069 1313 
Q 1069 891 1326 650 
Q 1584 409 2034 409 
Q 2484 409 2743 651 
Q 3003 894 3003 1313 
Q 3003 1734 2745 1975 
Q 2488 2216 2034 2216 
z
M 1403 2484 
Q 997 2584 770 2862 
Q 544 3141 544 3541 
Q 544 4100 942 4425 
Q 1341 4750 2034 4750 
Q 2731 4750 3128 4425 
Q 3525 4100 3525 3541 
Q 3525 3141 3298 2862 
Q 3072 2584 2669 2484 
Q 3125 2378 3379 2068 
Q 3634 1759 3634 1313 
Q 3634 634 3220 271 
Q 2806 -91 2034 -91 
Q 1263 -91 848 271 
Q 434 634 434 1313 
Q 434 1759 690 2068 
Q 947 2378 1403 2484 
z
M 1172 3481 
Q 1172 3119 1398 2916 
Q 1625 2713 2034 2713 
Q 2441 2713 2670 2916 
Q 2900 3119 2900 3481 
Q 2900 3844 2670 4047 
Q 2441 4250 2034 4250 
Q 1625 4250 1398 4047 
Q 1172 3844 1172 3481 
z
" transform="scale(0.015625)"/>
       </defs>
       <use xlink:href="#DejaVuSans-38"/>
      </g>
     </g>
    </g>
    <g id="xtick_10">
     <g id="line2d_10">
      <g>
       <use xlink:href="#m1e50b40dc1" x="1240.2" y="640.8" style="stroke: #000000; stroke-width: 0.8"/>
      </g>
     </g>
     <g id="text_10">
      <!-- 9 -->
      <g transform="translate(1237.01875 655.398438) scale(0.1 -0.1)">
       <defs>
        <path id="DejaVuSans-39" d="M 703 97 
L 703 672 
Q 941 559 1184 500 
Q 1428 441 1663 441 
Q 2288 441 2617 861 
Q 2947 1281 2994 2138 
Q 2813 1869 2534 1725 
Q 2256 1581 1919 1581 
Q 1219 1581 811 2004 
Q 403 2428 403 3163 
Q 403 3881 828 4315 
Q 1253 4750 1959 4750 
Q 2769 4750 3195 4129 
Q 3622 3509 3622 2328 
Q 3622 1225 3098 567 
Q 2575 -91 1691 -91 
Q 1453 -91 1209 -44 
Q 966 3 703 97 
z
M 1959 2075 
Q 2384 2075 2632 2365 
Q 2881 2656 2881 3163 
Q 2881 3666 2632 3958 
Q 2384 4250 1959 4250 
Q 1534 4250 1286 3958 
Q 1038 3666 1038 3163 
Q 1038 2656 1286 2365 
Q 1534 2075 1959 2075 
z
" transform="scale(0.015625)"/>
       </defs>
       <use xlink:href="#DejaVuSans-39"/>
      </g>
     </g>
    </g>
    <g id="text_11">
     <!-- iteration -->
     <g transform="translate(716.877344 669.076563) scale(0.1 -0.1)">
      <defs>
       <path id="DejaVuSans-69" d="M 603 3500 
L 1178 3500 
L 1178 0 
L 603 0 
L 603 3500 
z
M 603 4863 
L 1178 4863 
L 1178 4134 
L 603 4134 
L 603 4863 
z
" transform="scale(0.015625)"/>
       <path id="DejaVuSans-74" d="M 1172 4494 
L 1172 3500 
L 2356 3500 
L 2356 3053 
L 1172 3053 
L 1172 1153 
Q 1172 725 1289 603 
Q 1406 481 1766 481 
L 2356 481 
L 2356 0 
L 1766 0 
Q 1100 0 847 248 
Q 594 497 594 1153 
L 594 3053 
L 172 3053 
L 172 3500 
L 594 3500 
L 594 4494 
L 1172 4494 
z
" transform="scale(0.015625)"/>
       <path id="DejaVuSans-65" d="M 3597 1894 
L 3597 1613 
L 953 1613 
Q 991 1019 1311 708 
Q 1631 397 2203 397 
Q 2534 397 2845 478 
Q 3156 559 3463 722 
L 3463 178 
Q 3153 47 2828 -22 
Q 2503 -91 2169 -91 
Q 1331 -91 842 396 
Q 353 884 353 1716 
Q 353 2575 817 3079 
Q 1281 3584 2069 3584 
Q 2775 3584 3186 3129 
Q 3597 2675 3597 1894 
z
M 3022 2063 
Q 3016 2534 2758 2815 
Q 2500 3097 2075 3097 
Q 1594 3097 1305 2825 
Q 1016 2553 972 2059 
L 3022 2063 
z
" transform="scale(0.015625)"/>
       <path id="DejaVuSans-72" d="M 2631 2963 
Q 2534 3019 2420 3045 
Q 2306 3072 2169 3072 
Q 1681 3072 1420 2755 
Q 1159 2438 1159 1844 
L 1159 0 
L 581 0 
L 581 3500 
L 1159 3500 
L 1159 2956 
Q 1341 3275 1631 3429 
Q 1922 3584 2338 3584 
Q 2397 3584 2469 3576 
Q 2541 3569 2628 3553 
L 2631 2963 
z
" transform="scale(0.015625)"/>
       <path id="DejaVuSans-61" d="M 2194 1759 
Q 1497 1759 1228 1600 
Q 959 1441 959 1056 
Q 959 750 1161 570 
Q 1363 391 1709 391 
Q 2188 391 2477 730 
Q 2766 1069 2766 1631 
L 2766 1759 
L 2194 1759 
z
M 3341 1997 
L 3341 0 
L 2766 0 
L 2766 531 
Q 2569 213 2275 61 
Q 1981 -91 1556 -91 
Q 1019 -91 701 211 
Q 384 513 384 1019 
Q 384 1609 779 1909 
Q 1175 2209 1959 2209 
L 2766 2209 
L 2766 2266 
Q 2766 2663 2505 2880 
Q 2244 3097 1772 3097 
Q 1472 3097 1187 3025 
Q 903 2953 641 2809 
L 641 3341 
Q 956 3463 1253 3523 
Q 1550 3584 1831 3584 
Q 2591 3584 2966 3190 
Q 3341 2797 3341 1997 
z
" transform="scale(0.015625)"/>
       <path id="DejaVuSans-6f" d="M 1959 3097 
Q 1497 3097 1228 2736 
Q 959 2375 959 1747 
Q 959 1119 1226 758 
Q 1494 397 1959 397 
Q 2419 397 2687 759 
Q 2956 1122 2956 1747 
Q 2956 2369 2687 2733 
Q 2419 3097 1959 3097 
z
M 1959 3584 
Q 2709 3584 3137 3096 
Q 3566 2609 3566 1747 
Q 3566 888 3137 398 
Q 2709 -91 1959 -91 
Q 1206 -91 779 398 
Q 353 888 353 1747 
Q 353 2609 779 3096 
Q 1206 3584 1959 3584 
z
" transform="scale(0.015625)"/>
       <path id="DejaVuSans-6e" d="M 3513 2113 
L 3513 0 
L 2938 0 
L 2938 2094 
Q 2938 2591 2744 2837 
Q 2550 3084 2163 3084 
Q 1697 3084 1428 2787 
Q 1159 2491 1159 1978 
L 1159 0 
L 581 0 
L 581 3500 
L 1159 3500 
L 1159 2956 
Q 1366 3272 1645 3428 
Q 1925 3584 2291 3584 
Q 2894 3584 3203 3211 
Q 3513 2838 3513 2113 
z
" transform="scale(0.015625)"/>
      </defs>
      <use xlink:href="#DejaVuSans-69"/>
      <use xlink:href="#DejaVuSans-74" x="27.783203"/>
      <use xlink:href="#DejaVuSans-65" x="66.992188"/>
      <use xlink:href="#DejaVuSans-72" x="128.515625"/>
      <use xlink:href="#DejaVuSans-61" x="169.628906"/>
      <use xlink:href="#DejaVuSans-74" x="230.908203"/>
      <use xlink:href="#DejaVuSans-69" x="270.117188"/>
      <use xlink:href="#DejaVuSans-6f" x="297.900391"/>
      <use xlink:href="#DejaVuSans-6e" x="359.082031"/>
     </g>
    </g>
   </g>
   <g id="matplotlib.axis_2">
    <g id="ytick_1">
     <g id="line2d_11">
      <defs>
       <path id="ma87fb2eaa8" d="M 0 0 
L -3.5 0 
" style="stroke: #000000; stroke-width: 0.8"/>
      </defs>
      <g>
       <use xlink:href="#ma87fb2eaa8" x="180" y="616.352785" style="stroke: #000000; stroke-width: 0.8"/>
      </g>
     </g>
     <g id="text_12">
      <!-- 0.2 -->
      <g transform="translate(148.717187 620.152004) scale(0.1 -0.1)">
       <defs>
        <path id="DejaVuSans-2212" d="M 678 2272 
L 4684 2272 
L 4684 1741 
L 678 1741 
L 678 2272 
z
" transform="scale(0.015625)"/>
        <path id="DejaVuSans-2e" d="M 684 794 
L 1344 794 
L 1344 0 
L 684 0 
L 684 794 
z
" transform="scale(0.015625)"/>
       </defs>
       <use xlink:href="#DejaVuSans-2212"/>
       <use xlink:href="#DejaVuSans-30" x="83.789062"/>
       <use xlink:href="#DejaVuSans-2e" x="147.412109"/>
       <use xlink:href="#DejaVuSans-32" x="179.199219"/>
      </g>
     </g>
    </g>
    <g id="ytick_2">
     <g id="line2d_12">
      <g>
       <use xlink:href="#ma87fb2eaa8" x="180" y="541.345119" style="stroke: #000000; stroke-width: 0.8"/>
      </g>
     </g>
     <g id="text_13">
      <!-- 0.0 -->
      <g transform="translate(157.096875 545.144338) scale(0.1 -0.1)">
       <use xlink:href="#DejaVuSans-30"/>
       <use xlink:href="#DejaVuSans-2e" x="63.623047"/>
       <use xlink:href="#DejaVuSans-30" x="95.410156"/>
      </g>
     </g>
    </g>
    <g id="ytick_3">
     <g id="line2d_13">
      <g>
       <use xlink:href="#ma87fb2eaa8" x="180" y="466.337454" style="stroke: #000000; stroke-width: 0.8"/>
      </g>
     </g>
     <g id="text_14">
      <!-- 0.2 -->
      <g transform="translate(157.096875 470.136673) scale(0.1 -0.1)">
       <use xlink:href="#DejaVuSans-30"/>
       <use xlink:href="#DejaVuSans-2e" x="63.623047"/>
       <use xlink:href="#DejaVuSans-32" x="95.410156"/>
      </g>
     </g>
    </g>
    <g id="ytick_4">
     <g id="line2d_14">
      <g>
       <use xlink:href="#ma87fb2eaa8" x="180" y="391.329788" style="stroke: #000000; stroke-width: 0.8"/>
      </g>
     </g>
     <g id="text_15">
      <!-- 0.4 -->
      <g transform="translate(157.096875 395.129007) scale(0.1 -0.1)">
       <use xlink:href="#DejaVuSans-30"/>
       <use xlink:href="#DejaVuSans-2e" x="63.623047"/>
       <use xlink:href="#DejaVuSans-34" x="95.410156"/>
      </g>
     </g>
    </g>
    <g id="ytick_5">
     <g id="line2d_15">
      <g>
       <use xlink:href="#ma87fb2eaa8" x="180" y="316.322123" style="stroke: #000000; stroke-width: 0.8"/>
      </g>
     </g>
     <g id="text_16">
      <!-- 0.6 -->
      <g transform="translate(157.096875 320.121341) scale(0.1 -0.1)">
       <use xlink:href="#DejaVuSans-30"/>
       <use xlink:href="#DejaVuSans-2e" x="63.623047"/>
       <use xlink:href="#DejaVuSans-36" x="95.410156"/>
      </g>
     </g>
    </g>
    <g id="ytick_6">
     <g id="line2d_16">
      <g>
       <use xlink:href="#ma87fb2eaa8" x="180" y="241.314457" style="stroke: #000000; stroke-width: 0.8"/>
      </g>
     </g>
     <g id="text_17">
      <!-- 0.8 -->
      <g transform="translate(157.096875 245.113676) scale(0.1 -0.1)">
       <use xlink:href="#DejaVuSans-30"/>
       <use xlink:href="#DejaVuSans-2e" x="63.623047"/>
       <use xlink:href="#DejaVuSans-38" x="95.410156"/>
      </g>
     </g>
    </g>
    <g id="ytick_7">
     <g id="line2d_17">
      <g>
       <use xlink:href="#ma87fb2eaa8" x="180" y="166.306791" style="stroke: #000000; stroke-width: 0.8"/>
      </g>
     </g>
     <g id="text_18">
      <!-- 1.0 -->
      <g transform="translate(157.096875 170.10601) scale(0.1 -0.1)">
       <use xlink:href="#DejaVuSans-31"/>
       <use xlink:href="#DejaVuSans-2e" x="63.623047"/>
       <use xlink:href="#DejaVuSans-30" x="95.410156"/>
      </g>
     </g>
    </g>
    <g id="ytick_8">
     <g id="line2d_18">
      <g>
       <use xlink:href="#ma87fb2eaa8" x="180" y="91.299126" style="stroke: #000000; stroke-width: 0.8"/>
      </g>
     </g>
     <g id="text_19">
      <!-- 1.2 -->
      <g transform="translate(157.096875 95.098344) scale(0.1 -0.1)">
       <use xlink:href="#DejaVuSans-31"/>
       <use xlink:href="#DejaVuSans-2e" x="63.623047"/>
       <use xlink:href="#DejaVuSans-32" x="95.410156"/>
      </g>
     </g>
    </g>
    <g id="text_20">
     <!-- cosine similarity -->
     <g transform="translate(142.6375 404.307031) rotate(-90) scale(0.1 -0.1)">
      <defs>
       <path id="DejaVuSans-63" d="M 3122 3366 
L 3122 2828 
Q 2878 2963 2633 3030 
Q 2388 3097 2138 3097 
Q 1578 3097 1268 2742 
Q 959 2388 959 1747 
Q 959 1106 1268 751 
Q 1578 397 2138 397 
Q 2388 397 2633 464 
Q 2878 531 3122 666 
L 3122 134 
Q 2881 22 2623 -34 
Q 2366 -91 2075 -91 
Q 1284 -91 818 406 
Q 353 903 353 1747 
Q 353 2603 823 3093 
Q 1294 3584 2113 3584 
Q 2378 3584 2631 3529 
Q 2884 3475 3122 3366 
z
" transform="scale(0.015625)"/>
       <path id="DejaVuSans-73" d="M 2834 3397 
L 2834 2853 
Q 2591 2978 2328 3040 
Q 2066 3103 1784 3103 
Q 1356 3103 1142 2972 
Q 928 2841 928 2578 
Q 928 2378 1081 2264 
Q 1234 2150 1697 2047 
L 1894 2003 
Q 2506 1872 2764 1633 
Q 3022 1394 3022 966 
Q 3022 478 2636 193 
Q 2250 -91 1575 -91 
Q 1294 -91 989 -36 
Q 684 19 347 128 
L 347 722 
Q 666 556 975 473 
Q 1284 391 1588 391 
Q 1994 391 2212 530 
Q 2431 669 2431 922 
Q 2431 1156 2273 1281 
Q 2116 1406 1581 1522 
L 1381 1569 
Q 847 1681 609 1914 
Q 372 2147 372 2553 
Q 372 3047 722 3315 
Q 1072 3584 1716 3584 
Q 2034 3584 2315 3537 
Q 2597 3491 2834 3397 
z
" transform="scale(0.015625)"/>
       <path id="DejaVuSans-20" transform="scale(0.015625)"/>
       <path id="DejaVuSans-6d" d="M 3328 2828 
Q 3544 3216 3844 3400 
Q 4144 3584 4550 3584 
Q 5097 3584 5394 3201 
Q 5691 2819 5691 2113 
L 5691 0 
L 5113 0 
L 5113 2094 
Q 5113 2597 4934 2840 
Q 4756 3084 4391 3084 
Q 3944 3084 3684 2787 
Q 3425 2491 3425 1978 
L 3425 0 
L 2847 0 
L 2847 2094 
Q 2847 2600 2669 2842 
Q 2491 3084 2119 3084 
Q 1678 3084 1418 2786 
Q 1159 2488 1159 1978 
L 1159 0 
L 581 0 
L 581 3500 
L 1159 3500 
L 1159 2956 
Q 1356 3278 1631 3431 
Q 1906 3584 2284 3584 
Q 2666 3584 2933 3390 
Q 3200 3197 3328 2828 
z
" transform="scale(0.015625)"/>
       <path id="DejaVuSans-6c" d="M 603 4863 
L 1178 4863 
L 1178 0 
L 603 0 
L 603 4863 
z
" transform="scale(0.015625)"/>
       <path id="DejaVuSans-79" d="M 2059 -325 
Q 1816 -950 1584 -1140 
Q 1353 -1331 966 -1331 
L 506 -1331 
L 506 -850 
L 844 -850 
Q 1081 -850 1212 -737 
Q 1344 -625 1503 -206 
L 1606 56 
L 191 3500 
L 800 3500 
L 1894 763 
L 2988 3500 
L 3597 3500 
L 2059 -325 
z
" transform="scale(0.015625)"/>
      </defs>
      <use xlink:href="#DejaVuSans-63"/>
      <use xlink:href="#DejaVuSans-6f" x="54.980469"/>
      <use xlink:href="#DejaVuSans-73" x="116.162109"/>
      <use xlink:href="#DejaVuSans-69" x="168.261719"/>
      <use xlink:href="#DejaVuSans-6e" x="196.044922"/>
      <use xlink:href="#DejaVuSans-65" x="259.423828"/>
      <use xlink:href="#DejaVuSans-20" x="320.947266"/>
      <use xlink:href="#DejaVuSans-73" x="352.734375"/>
      <use xlink:href="#DejaVuSans-69" x="404.833984"/>
      <use xlink:href="#DejaVuSans-6d" x="432.617188"/>
      <use xlink:href="#DejaVuSans-69" x="530.029297"/>
      <use xlink:href="#DejaVuSans-6c" x="557.8125"/>
      <use xlink:href="#DejaVuSans-61" x="585.595703"/>
      <use xlink:href="#DejaVuSans-72" x="646.875"/>
      <use xlink:href="#DejaVuSans-69" x="687.988281"/>
      <use xlink:href="#DejaVuSans-74" x="715.771484"/>
      <use xlink:href="#DejaVuSans-79" x="754.980469"/>
     </g>
    </g>
   </g>
   <g id="line2d_19">
    <path d="M 235.8 537.040335 
L 235.8 222.478056 
" clip-path="url(#p441597fd16)" style="fill: none; stroke: #3f3f3f; stroke-width: 1.875; stroke-linecap: square"/>
   </g>
   <g id="line2d_20">
    <path d="M 235.8 421.525839 
L 235.8 321.287278 
" clip-path="url(#p441597fd16)" style="fill: none; stroke: #3f3f3f; stroke-width: 5.625; stroke-linecap: square"/>
   </g>
   <g id="line2d_21">
    <path d="M 235.8 386.998805 
" clip-path="url(#p441597fd16)" style="fill: none; stroke: #3f3f3f; stroke-width: 1.5; stroke-linecap: square"/>
    <defs>
     <path id="mbac7046c11" d="M 2.34375 0 
L -2.34375 -0 
" style="stroke: #ffffff; stroke-width: 1.125"/>
    </defs>
    <g clip-path="url(#p441597fd16)">
     <use xlink:href="#mbac7046c11" x="235.8" y="386.998805" style="fill: #ffffff; stroke: #ffffff; stroke-width: 1.125"/>
    </g>
   </g>
   <g id="line2d_22">
    <path d="M 347.4 491.181259 
L 347.4 244.668987 
" clip-path="url(#p441597fd16)" style="fill: none; stroke: #3f3f3f; stroke-width: 1.875; stroke-linecap: square"/>
   </g>
   <g id="line2d_23">
    <path d="M 347.4 396.238495 
L 347.4 314.591599 
" clip-path="url(#p441597fd16)" style="fill: none; stroke: #3f3f3f; stroke-width: 5.625; stroke-linecap: square"/>
   </g>
   <g id="line2d_24">
    <path d="M 347.4 348.059555 
" clip-path="url(#p441597fd16)" style="fill: none; stroke: #3f3f3f; stroke-width: 1.5; stroke-linecap: square"/>
    <g clip-path="url(#p441597fd16)">
     <use xlink:href="#mbac7046c11" x="347.4" y="348.059555" style="fill: #ffffff; stroke: #ffffff; stroke-width: 1.125"/>
    </g>
   </g>
   <g id="line2d_25">
    <path d="M 459 541.913367 
L 459 199.233825 
" clip-path="url(#p441597fd16)" style="fill: none; stroke: #3f3f3f; stroke-width: 1.875; stroke-linecap: square"/>
   </g>
   <g id="line2d_26">
    <path d="M 459 409.209226 
L 459 299.80251 
" clip-path="url(#p441597fd16)" style="fill: none; stroke: #3f3f3f; stroke-width: 5.625; stroke-linecap: square"/>
   </g>
   <g id="line2d_27">
    <path d="M 459 353.298646 
" clip-path="url(#p441597fd16)" style="fill: none; stroke: #3f3f3f; stroke-width: 1.5; stroke-linecap: square"/>
    <g clip-path="url(#p441597fd16)">
     <use xlink:href="#mbac7046c11" x="459" y="353.298646" style="fill: #ffffff; stroke: #ffffff; stroke-width: 1.125"/>
    </g>
   </g>
   <g id="line2d_28">
    <path d="M 570.6 460.034484 
L 570.6 230.298366 
" clip-path="url(#p441597fd16)" style="fill: none; stroke: #3f3f3f; stroke-width: 1.875; stroke-linecap: square"/>
   </g>
   <g id="line2d_29">
    <path d="M 570.6 379.970967 
L 570.6 281.270732 
" clip-path="url(#p441597fd16)" style="fill: none; stroke: #3f3f3f; stroke-width: 5.625; stroke-linecap: square"/>
   </g>
   <g id="line2d_30">
    <path d="M 570.6 337.323542 
" clip-path="url(#p441597fd16)" style="fill: none; stroke: #3f3f3f; stroke-width: 1.5; stroke-linecap: square"/>
    <g clip-path="url(#p441597fd16)">
     <use xlink:href="#mbac7046c11" x="570.6" y="337.323542" style="fill: #ffffff; stroke: #ffffff; stroke-width: 1.125"/>
    </g>
   </g>
   <g id="line2d_31">
    <path d="M 682.2 456.610428 
L 682.2 219.924309 
" clip-path="url(#p441597fd16)" style="fill: none; stroke: #3f3f3f; stroke-width: 1.875; stroke-linecap: square"/>
   </g>
   <g id="line2d_32">
    <path d="M 682.2 378.457773 
L 682.2 303.58309 
" clip-path="url(#p441597fd16)" style="fill: none; stroke: #3f3f3f; stroke-width: 5.625; stroke-linecap: square"/>
   </g>
   <g id="line2d_33">
    <path d="M 682.2 346.211816 
" clip-path="url(#p441597fd16)" style="fill: none; stroke: #3f3f3f; stroke-width: 1.5; stroke-linecap: square"/>
    <g clip-path="url(#p441597fd16)">
     <use xlink:href="#mbac7046c11" x="682.2" y="346.211816" style="fill: #ffffff; stroke: #ffffff; stroke-width: 1.125"/>
    </g>
   </g>
   <g id="line2d_34">
    <path d="M 793.8 372.898109 
L 793.8 235.616657 
" clip-path="url(#p441597fd16)" style="fill: none; stroke: #3f3f3f; stroke-width: 1.875; stroke-linecap: square"/>
   </g>
   <g id="line2d_35">
    <path d="M 793.8 346.720717 
L 793.8 291.775593 
" clip-path="url(#p441597fd16)" style="fill: none; stroke: #3f3f3f; stroke-width: 5.625; stroke-linecap: square"/>
   </g>
   <g id="line2d_36">
    <path d="M 793.8 323.786615 
" clip-path="url(#p441597fd16)" style="fill: none; stroke: #3f3f3f; stroke-width: 1.5; stroke-linecap: square"/>
    <g clip-path="url(#p441597fd16)">
     <use xlink:href="#mbac7046c11" x="793.8" y="323.786615" style="fill: #ffffff; stroke: #ffffff; stroke-width: 1.125"/>
    </g>
   </g>
   <g id="line2d_37">
    <path d="M 905.4 378.903842 
L 905.4 193.147248 
" clip-path="url(#p441597fd16)" style="fill: none; stroke: #3f3f3f; stroke-width: 1.875; stroke-linecap: square"/>
   </g>
   <g id="line2d_38">
    <path d="M 905.4 332.149915 
L 905.4 267.896676 
" clip-path="url(#p441597fd16)" style="fill: none; stroke: #3f3f3f; stroke-width: 5.625; stroke-linecap: square"/>
   </g>
   <g id="line2d_39">
    <path d="M 905.4 308.961022 
" clip-path="url(#p441597fd16)" style="fill: none; stroke: #3f3f3f; stroke-width: 1.5; stroke-linecap: square"/>
    <g clip-path="url(#p441597fd16)">
     <use xlink:href="#mbac7046c11" x="905.4" y="308.961022" style="fill: #ffffff; stroke: #ffffff; stroke-width: 1.125"/>
    </g>
   </g>
   <g id="line2d_40">
    <path d="M 1017 409.487492 
L 1017 221.499285 
" clip-path="url(#p441597fd16)" style="fill: none; stroke: #3f3f3f; stroke-width: 1.875; stroke-linecap: square"/>
   </g>
   <g id="line2d_41">
    <path d="M 1017 366.39131 
L 1017 293.460941 
" clip-path="url(#p441597fd16)" style="fill: none; stroke: #3f3f3f; stroke-width: 5.625; stroke-linecap: square"/>
   </g>
   <g id="line2d_42">
    <path d="M 1017 318.42442 
" clip-path="url(#p441597fd16)" style="fill: none; stroke: #3f3f3f; stroke-width: 1.5; stroke-linecap: square"/>
    <g clip-path="url(#p441597fd16)">
     <use xlink:href="#mbac7046c11" x="1017" y="318.42442" style="fill: #ffffff; stroke: #ffffff; stroke-width: 1.125"/>
    </g>
   </g>
   <g id="line2d_43">
    <path d="M 1128.6 483.287812 
L 1128.6 210.142545 
" clip-path="url(#p441597fd16)" style="fill: none; stroke: #3f3f3f; stroke-width: 1.875; stroke-linecap: square"/>
   </g>
   <g id="line2d_44">
    <path d="M 1128.6 389.21251 
L 1128.6 267.333751 
" clip-path="url(#p441597fd16)" style="fill: none; stroke: #3f3f3f; stroke-width: 5.625; stroke-linecap: square"/>
   </g>
   <g id="line2d_45">
    <path d="M 1128.6 350.288744 
" clip-path="url(#p441597fd16)" style="fill: none; stroke: #3f3f3f; stroke-width: 1.5; stroke-linecap: square"/>
    <g clip-path="url(#p441597fd16)">
     <use xlink:href="#mbac7046c11" x="1128.6" y="350.288744" style="fill: #ffffff; stroke: #ffffff; stroke-width: 1.125"/>
    </g>
   </g>
   <g id="line2d_46">
    <path d="M 1240.2 407.319777 
L 1240.2 190.266507 
" clip-path="url(#p441597fd16)" style="fill: none; stroke: #3f3f3f; stroke-width: 1.875; stroke-linecap: square"/>
   </g>
   <g id="line2d_47">
    <path d="M 1240.2 309.521438 
L 1240.2 239.294531 
" clip-path="url(#p441597fd16)" style="fill: none; stroke: #3f3f3f; stroke-width: 5.625; stroke-linecap: square"/>
   </g>
   <g id="line2d_48">
    <path d="M 1240.2 288.107364 
" clip-path="url(#p441597fd16)" style="fill: none; stroke: #3f3f3f; stroke-width: 1.5; stroke-linecap: square"/>
    <g clip-path="url(#p441597fd16)">
     <use xlink:href="#mbac7046c11" x="1240.2" y="288.107364" style="fill: #ffffff; stroke: #ffffff; stroke-width: 1.125"/>
    </g>
   </g>
   <g id="patch_3">
    <path d="M 180 640.8 
L 180 86.4 
" style="fill: none; stroke: #000000; stroke-width: 0.8; stroke-linejoin: miter; stroke-linecap: square"/>
   </g>
   <g id="patch_4">
    <path d="M 1296 640.8 
L 1296 86.4 
" style="fill: none; stroke: #000000; stroke-width: 0.8; stroke-linejoin: miter; stroke-linecap: square"/>
   </g>
   <g id="patch_5">
    <path d="M 180 640.8 
L 1296 640.8 
" style="fill: none; stroke: #000000; stroke-width: 0.8; stroke-linejoin: miter; stroke-linecap: square"/>
   </g>
   <g id="patch_6">
    <path d="M 180 86.4 
L 1296 86.4 
" style="fill: none; stroke: #000000; stroke-width: 0.8; stroke-linejoin: miter; stroke-linecap: square"/>
   </g>
   <g id="text_21">
    <!-- cosine similarity of max_fs (progressive), by iteration -->
    <g transform="translate(578.421562 80.4) scale(0.12 -0.12)">
     <defs>
      <path id="DejaVuSans-66" d="M 2375 4863 
L 2375 4384 
L 1825 4384 
Q 1516 4384 1395 4259 
Q 1275 4134 1275 3809 
L 1275 3500 
L 2222 3500 
L 2222 3053 
L 1275 3053 
L 1275 0 
L 697 0 
L 697 3053 
L 147 3053 
L 147 3500 
L 697 3500 
L 697 3744 
Q 697 4328 969 4595 
Q 1241 4863 1831 4863 
L 2375 4863 
z
" transform="scale(0.015625)"/>
      <path id="DejaVuSans-78" d="M 3513 3500 
L 2247 1797 
L 3578 0 
L 2900 0 
L 1881 1375 
L 863 0 
L 184 0 
L 1544 1831 
L 300 3500 
L 978 3500 
L 1906 2253 
L 2834 3500 
L 3513 3500 
z
" transform="scale(0.015625)"/>
      <path id="DejaVuSans-5f" d="M 3263 -1063 
L 3263 -1509 
L -63 -1509 
L -63 -1063 
L 3263 -1063 
z
" transform="scale(0.015625)"/>
      <path id="DejaVuSans-28" d="M 1984 4856 
Q 1566 4138 1362 3434 
Q 1159 2731 1159 2009 
Q 1159 1288 1364 580 
Q 1569 -128 1984 -844 
L 1484 -844 
Q 1016 -109 783 600 
Q 550 1309 550 2009 
Q 550 2706 781 3412 
Q 1013 4119 1484 4856 
L 1984 4856 
z
" transform="scale(0.015625)"/>
      <path id="DejaVuSans-70" d="M 1159 525 
L 1159 -1331 
L 581 -1331 
L 581 3500 
L 1159 3500 
L 1159 2969 
Q 1341 3281 1617 3432 
Q 1894 3584 2278 3584 
Q 2916 3584 3314 3078 
Q 3713 2572 3713 1747 
Q 3713 922 3314 415 
Q 2916 -91 2278 -91 
Q 1894 -91 1617 61 
Q 1341 213 1159 525 
z
M 3116 1747 
Q 3116 2381 2855 2742 
Q 2594 3103 2138 3103 
Q 1681 3103 1420 2742 
Q 1159 2381 1159 1747 
Q 1159 1113 1420 752 
Q 1681 391 2138 391 
Q 2594 391 2855 752 
Q 3116 1113 3116 1747 
z
" transform="scale(0.015625)"/>
      <path id="DejaVuSans-67" d="M 2906 1791 
Q 2906 2416 2648 2759 
Q 2391 3103 1925 3103 
Q 1463 3103 1205 2759 
Q 947 2416 947 1791 
Q 947 1169 1205 825 
Q 1463 481 1925 481 
Q 2391 481 2648 825 
Q 2906 1169 2906 1791 
z
M 3481 434 
Q 3481 -459 3084 -895 
Q 2688 -1331 1869 -1331 
Q 1566 -1331 1297 -1286 
Q 1028 -1241 775 -1147 
L 775 -588 
Q 1028 -725 1275 -790 
Q 1522 -856 1778 -856 
Q 2344 -856 2625 -561 
Q 2906 -266 2906 331 
L 2906 616 
Q 2728 306 2450 153 
Q 2172 0 1784 0 
Q 1141 0 747 490 
Q 353 981 353 1791 
Q 353 2603 747 3093 
Q 1141 3584 1784 3584 
Q 2172 3584 2450 3431 
Q 2728 3278 2906 2969 
L 2906 3500 
L 3481 3500 
L 3481 434 
z
" transform="scale(0.015625)"/>
      <path id="DejaVuSans-76" d="M 191 3500 
L 800 3500 
L 1894 563 
L 2988 3500 
L 3597 3500 
L 2284 0 
L 1503 0 
L 191 3500 
z
" transform="scale(0.015625)"/>
      <path id="DejaVuSans-29" d="M 513 4856 
L 1013 4856 
Q 1481 4119 1714 3412 
Q 1947 2706 1947 2009 
Q 1947 1309 1714 600 
Q 1481 -109 1013 -844 
L 513 -844 
Q 928 -128 1133 580 
Q 1338 1288 1338 2009 
Q 1338 2731 1133 3434 
Q 928 4138 513 4856 
z
" transform="scale(0.015625)"/>
      <path id="DejaVuSans-2c" d="M 750 794 
L 1409 794 
L 1409 256 
L 897 -744 
L 494 -744 
L 750 256 
L 750 794 
z
" transform="scale(0.015625)"/>
      <path id="DejaVuSans-62" d="M 3116 1747 
Q 3116 2381 2855 2742 
Q 2594 3103 2138 3103 
Q 1681 3103 1420 2742 
Q 1159 2381 1159 1747 
Q 1159 1113 1420 752 
Q 1681 391 2138 391 
Q 2594 391 2855 752 
Q 3116 1113 3116 1747 
z
M 1159 2969 
Q 1341 3281 1617 3432 
Q 1894 3584 2278 3584 
Q 2916 3584 3314 3078 
Q 3713 2572 3713 1747 
Q 3713 922 3314 415 
Q 2916 -91 2278 -91 
Q 1894 -91 1617 61 
Q 1341 213 1159 525 
L 1159 0 
L 581 0 
L 581 4863 
L 1159 4863 
L 1159 2969 
z
" transform="scale(0.015625)"/>
     </defs>
     <use xlink:href="#DejaVuSans-63"/>
     <use xlink:href="#DejaVuSans-6f" x="54.980469"/>
     <use xlink:href="#DejaVuSans-73" x="116.162109"/>
     <use xlink:href="#DejaVuSans-69" x="168.261719"/>
     <use xlink:href="#DejaVuSans-6e" x="196.044922"/>
     <use xlink:href="#DejaVuSans-65" x="259.423828"/>
     <use xlink:href="#DejaVuSans-20" x="320.947266"/>
     <use xlink:href="#DejaVuSans-73" x="352.734375"/>
     <use xlink:href="#DejaVuSans-69" x="404.833984"/>
     <use xlink:href="#DejaVuSans-6d" x="432.617188"/>
     <use xlink:href="#DejaVuSans-69" x="530.029297"/>
     <use xlink:href="#DejaVuSans-6c" x="557.8125"/>
     <use xlink:href="#DejaVuSans-61" x="585.595703"/>
     <use xlink:href="#DejaVuSans-72" x="646.875"/>
     <use xlink:href="#DejaVuSans-69" x="687.988281"/>
     <use xlink:href="#DejaVuSans-74" x="715.771484"/>
     <use xlink:href="#DejaVuSans-79" x="754.980469"/>
     <use xlink:href="#DejaVuSans-20" x="814.160156"/>
     <use xlink:href="#DejaVuSans-6f" x="845.947266"/>
     <use xlink:href="#DejaVuSans-66" x="907.128906"/>
     <use xlink:href="#DejaVuSans-20" x="942.333984"/>
     <use xlink:href="#DejaVuSans-6d" x="974.121094"/>
     <use xlink:href="#DejaVuSans-61" x="1071.533203"/>
     <use xlink:href="#DejaVuSans-78" x="1132.8125"/>
     <use xlink:href="#DejaVuSans-5f" x="1191.992188"/>
     <use xlink:href="#DejaVuSans-66" x="1241.992188"/>
     <use xlink:href="#DejaVuSans-73" x="1277.197266"/>
     <use xlink:href="#DejaVuSans-20" x="1329.296875"/>
     <use xlink:href="#DejaVuSans-28" x="1361.083984"/>
     <use xlink:href="#DejaVuSans-70" x="1400.097656"/>
     <use xlink:href="#DejaVuSans-72" x="1463.574219"/>
     <use xlink:href="#DejaVuSans-6f" x="1502.4375"/>
     <use xlink:href="#DejaVuSans-67" x="1563.619141"/>
     <use xlink:href="#DejaVuSans-72" x="1627.095703"/>
     <use xlink:href="#DejaVuSans-65" x="1665.958984"/>
     <use xlink:href="#DejaVuSans-73" x="1727.482422"/>
     <use xlink:href="#DejaVuSans-73" x="1779.582031"/>
     <use xlink:href="#DejaVuSans-69" x="1831.681641"/>
     <use xlink:href="#DejaVuSans-76" x="1859.464844"/>
     <use xlink:href="#DejaVuSans-65" x="1918.644531"/>
     <use xlink:href="#DejaVuSans-29" x="1980.167969"/>
     <use xlink:href="#DejaVuSans-2c" x="2019.181641"/>
     <use xlink:href="#DejaVuSans-20" x="2050.96875"/>
     <use xlink:href="#DejaVuSans-62" x="2082.755859"/>
     <use xlink:href="#DejaVuSans-79" x="2146.232422"/>
     <use xlink:href="#DejaVuSans-20" x="2205.412109"/>
     <use xlink:href="#DejaVuSans-69" x="2237.199219"/>
     <use xlink:href="#DejaVuSans-74" x="2264.982422"/>
     <use xlink:href="#DejaVuSans-65" x="2304.191406"/>
     <use xlink:href="#DejaVuSans-72" x="2365.714844"/>
     <use xlink:href="#DejaVuSans-61" x="2406.828125"/>
     <use xlink:href="#DejaVuSans-74" x="2468.107422"/>
     <use xlink:href="#DejaVuSans-69" x="2507.316406"/>
     <use xlink:href="#DejaVuSans-6f" x="2535.099609"/>
     <use xlink:href="#DejaVuSans-6e" x="2596.28125"/>
    </g>
   </g>
  </g>
 </g>
 <defs>
  <clipPath id="p441597fd16">
   <rect x="180" y="86.4" width="1116" height="554.4"/>
  </clipPath>
 </defs>
</svg>
