<?xml version="1.0" encoding="utf-8" standalone="no"?>
<!DOCTYPE svg PUBLIC "-//W3C//DTD SVG 1.1//EN"
  "http://www.w3.org/Graphics/SVG/1.1/DTD/svg11.dtd">
<svg xmlns:xlink="http://www.w3.org/1999/xlink" width="1440pt" height="720pt" viewBox="0 0 1440 720" xmlns="http://www.w3.org/2000/svg" version="1.1">
 <metadata>
  <rdf:RDF xmlns:dc="http://purl.org/dc/elements/1.1/" xmlns:cc="http://creativecommons.org/ns#" xmlns:rdf="http://www.w3.org/1999/02/22-rdf-syntax-ns#">
   <cc:Work>
    <dc:type rdf:resource="http://purl.org/dc/dcmitype/StillImage"/>
    <dc:date>2024-07-27T11:36:43.296447</dc:date>
    <dc:format>image/svg+xml</dc:format>
    <dc:creator>
     <cc:Agent>
      <dc:title>Matplotlib v3.8.0, https://matplotlib.org/</dc:title>
     </cc:Agent>
    </dc:creator>
   </cc:Work>
  </rdf:RDF>
 </metadata>
 <defs>
  <style type="text/css">*{stroke-linejoin: round; stroke-linecap: butt}</style>
 </defs>
 <g id="figure_1">
  <g id="patch_1">
   <path d="M 0 720 
L 1440 720 
L 1440 0 
L 0 0 
z
" style="fill: #ffffff"/>
  </g>
  <g id="axes_1">
   <g id="patch_2">
    <path d="M 180 640.8 
L 1296 640.8 
L 1296 86.4 
L 180 86.4 
z
" style="fill: #ffffff"/>
   </g>
   <g id="PolyCollection_1">
    <defs>
     <path id="m87ae4f729a" d="M 235.933868 -128.536388 
L 235.666132 -128.536388 
L 235.614763 -132.813244 
L 235.548868 -137.090101 
L 235.466177 -141.366957 
L 235.364552 -145.643813 
L 235.242086 -149.920669 
L 235.097154 -154.197526 
L 234.92842 -158.474382 
L 234.734792 -162.751238 
L 234.515324 -167.028094 
L 234.269084 -171.304951 
L 233.995016 -175.581807 
L 233.691803 -179.858663 
L 233.357761 -184.135519 
L 232.990778 -188.412376 
L 232.588276 -192.689232 
L 232.14721 -196.966088 
L 231.664083 -201.242944 
L 231.134961 -205.519801 
L 230.555496 -209.796657 
L 229.920948 -214.073513 
L 229.226229 -218.350369 
L 228.465967 -222.627226 
L 227.634623 -226.904082 
L 226.726662 -231.180938 
L 225.736802 -235.457794 
L 224.660356 -239.734651 
L 223.493699 -244.011507 
L 222.234871 -248.288363 
L 220.884338 -252.565219 
L 219.445885 -256.842076 
L 217.92761 -261.118932 
L 216.342904 -265.395788 
L 214.71126 -269.672644 
L 213.05875 -273.949501 
L 211.417929 -278.226357 
L 209.827032 -282.503213 
L 208.328335 -286.780069 
L 206.965704 -291.056926 
L 205.781467 -295.333782 
L 204.812892 -299.610638 
L 204.088662 -303.887494 
L 203.625814 -308.164351 
L 203.427588 -312.441207 
L 203.482572 -316.718063 
L 203.76535 -320.994919 
L 204.238667 -325.271776 
L 204.856896 -329.548632 
L 205.570363 -333.825488 
L 206.329976 -338.102344 
L 207.09153 -342.379201 
L 207.819127 -346.656057 
L 208.487324 -350.932913 
L 209.081837 -355.209769 
L 209.598892 -359.486626 
L 210.043502 -363.763482 
L 210.42713 -368.040338 
L 210.765179 -372.317194 
L 211.074735 -376.594051 
L 211.372816 -380.870907 
L 211.675243 -385.147763 
L 211.996055 -389.424619 
L 212.347335 -393.701476 
L 212.739224 -397.978332 
L 213.17996 -402.255188 
L 213.675842 -406.532044 
L 214.231102 -410.808901 
L 214.847731 -415.085757 
L 215.525378 -419.362613 
L 216.261384 -423.639469 
L 217.051015 -427.916326 
L 217.887876 -432.193182 
L 218.764445 -436.470038 
L 219.672622 -440.746894 
L 220.604197 -445.023751 
L 221.551165 -449.300607 
L 222.505883 -453.577463 
L 223.461068 -457.854319 
L 224.409743 -462.131176 
L 225.345169 -466.408032 
L 226.260847 -470.684888 
L 227.150596 -474.961744 
L 228.008708 -479.238601 
L 228.830113 -483.515457 
L 229.610521 -487.792313 
L 230.346486 -492.069169 
L 231.035375 -496.346026 
L 231.675272 -500.622882 
L 232.264846 -504.899738 
L 232.803232 -509.176594 
L 233.289979 -513.453451 
L 233.725064 -517.730307 
L 234.108978 -522.007163 
L 234.442846 -526.284019 
L 234.728529 -530.560876 
L 234.968687 -534.837732 
L 235.166746 -539.114588 
L 235.326791 -543.391444 
L 235.453374 -547.668301 
L 235.551278 -551.945157 
L 236.048722 -551.945157 
L 236.048722 -551.945157 
L 236.146626 -547.668301 
L 236.273209 -543.391444 
L 236.433254 -539.114588 
L 236.631313 -534.837732 
L 236.871471 -530.560876 
L 237.157154 -526.284019 
L 237.491022 -522.007163 
L 237.874936 -517.730307 
L 238.310021 -513.453451 
L 238.796768 -509.176594 
L 239.335154 -504.899738 
L 239.924728 -500.622882 
L 240.564625 -496.346026 
L 241.253514 -492.069169 
L 241.989479 -487.792313 
L 242.769887 -483.515457 
L 243.591292 -479.238601 
L 244.449404 -474.961744 
L 245.339153 -470.684888 
L 246.254831 -466.408032 
L 247.190257 -462.131176 
L 248.138932 -457.854319 
L 249.094117 -453.577463 
L 250.048835 -449.300607 
L 250.995803 -445.023751 
L 251.927378 -440.746894 
L 252.835555 -436.470038 
L 253.712124 -432.193182 
L 254.548985 -427.916326 
L 255.338616 -423.639469 
L 256.074622 -419.362613 
L 256.752269 -415.085757 
L 257.368898 -410.808901 
L 257.924158 -406.532044 
L 258.42004 -402.255188 
L 258.860776 -397.978332 
L 259.252665 -393.701476 
L 259.603945 -389.424619 
L 259.924757 -385.147763 
L 260.227184 -380.870907 
L 260.525265 -376.594051 
L 260.834821 -372.317194 
L 261.17287 -368.040338 
L 261.556498 -363.763482 
L 262.001108 -359.486626 
L 262.518163 -355.209769 
L 263.112676 -350.932913 
L 263.780873 -346.656057 
L 264.50847 -342.379201 
L 265.270024 -338.102344 
L 266.029637 -333.825488 
L 266.743104 -329.548632 
L 267.361333 -325.271776 
L 267.83465 -320.994919 
L 268.117428 -316.718063 
L 268.172412 -312.441207 
L 267.974186 -308.164351 
L 267.511338 -303.887494 
L 266.787108 -299.610638 
L 265.818533 -295.333782 
L 264.634296 -291.056926 
L 263.271665 -286.780069 
L 261.772968 -282.503213 
L 260.182071 -278.226357 
L 258.54125 -273.949501 
L 256.88874 -269.672644 
L 255.257096 -265.395788 
L 253.67239 -261.118932 
L 252.154115 -256.842076 
L 250.715662 -252.565219 
L 249.365129 -248.288363 
L 248.106301 -244.011507 
L 246.939644 -239.734651 
L 245.863198 -235.457794 
L 244.873338 -231.180938 
L 243.965377 -226.904082 
L 243.134033 -222.627226 
L 242.373771 -218.350369 
L 241.679052 -214.073513 
L 241.044504 -209.796657 
L 240.465039 -205.519801 
L 239.935917 -201.242944 
L 239.45279 -196.966088 
L 239.011724 -192.689232 
L 238.609222 -188.412376 
L 238.242239 -184.135519 
L 237.908197 -179.858663 
L 237.604984 -175.581807 
L 237.330916 -171.304951 
L 237.084676 -167.028094 
L 236.865208 -162.751238 
L 236.67158 -158.474382 
L 236.502846 -154.197526 
L 236.357914 -149.920669 
L 236.235448 -145.643813 
L 236.133823 -141.366957 
L 236.051132 -137.090101 
L 235.985237 -132.813244 
L 235.933868 -128.536388 
z
" style="stroke: #3f3f3f; stroke-width: 1.25"/>
    </defs>
    <g clip-path="url(#p8e48e40fdc)">
     <use xlink:href="#m87ae4f729a" x="0" y="720" style="fill: #3274a1; stroke: #3f3f3f; stroke-width: 1.25"/>
    </g>
   </g>
   <g id="PolyCollection_2">
    <defs>
     <path id="m2be0e58347" d="M 347.67564 -179.312944 
L 347.12436 -179.312944 
L 347.02751 -182.803084 
L 346.905143 -186.293224 
L 346.753498 -189.783364 
L 346.569125 -193.273504 
L 346.349137 -196.763644 
L 346.091447 -200.253784 
L 345.794959 -203.743923 
L 345.459678 -207.234063 
L 345.086722 -210.724203 
L 344.678196 -214.214343 
L 344.236944 -217.704483 
L 343.766179 -221.194623 
L 343.269024 -224.684763 
L 342.748017 -228.174903 
L 342.204638 -231.665043 
L 341.638922 -235.155183 
L 341.049238 -238.645323 
L 340.432271 -242.135463 
L 339.78325 -245.625603 
L 339.096428 -249.115743 
L 338.365778 -252.605883 
L 337.585844 -256.096023 
L 336.752646 -259.586163 
L 335.864533 -263.076303 
L 334.922855 -266.566443 
L 333.93235 -270.056583 
L 332.901189 -273.546723 
L 331.840626 -277.036863 
L 330.764306 -280.527002 
L 329.687301 -284.017142 
L 328.624992 -287.507282 
L 327.591931 -290.997422 
L 326.60082 -294.487562 
L 325.6617 -297.977702 
L 324.781417 -301.467842 
L 323.96337 -304.957982 
L 323.207523 -308.448122 
L 322.510624 -311.938262 
L 321.866573 -315.428402 
L 321.266898 -318.918542 
L 320.701297 -322.408682 
L 320.158247 -325.898822 
L 319.625674 -329.388962 
L 319.091674 -332.879102 
L 318.545282 -336.369242 
L 317.97724 -339.859382 
L 317.380716 -343.349522 
L 316.751915 -346.839662 
L 316.090518 -350.329802 
L 315.399917 -353.819942 
L 314.687248 -357.310082 
L 313.963213 -360.800221 
L 313.241759 -364.290361 
L 312.539636 -367.780501 
L 311.875872 -371.270641 
L 311.271195 -374.760781 
L 310.74739 -378.250921 
L 310.326579 -381.741061 
L 310.030416 -385.231201 
L 309.879197 -388.721341 
L 309.890908 -392.211481 
L 310.080261 -395.701621 
L 310.457798 -399.191761 
L 311.029152 -402.681901 
L 311.794532 -406.172041 
L 312.748512 -409.662181 
L 313.880147 -413.152321 
L 315.173406 -416.642461 
L 316.6079 -420.132601 
L 318.159836 -423.622741 
L 319.80312 -427.112881 
L 321.510542 -430.603021 
L 323.254947 -434.093161 
L 325.010333 -437.5833 
L 326.752809 -441.07344 
L 328.461353 -444.56358 
L 330.118341 -448.05372 
L 331.709815 -451.54386 
L 333.225487 -455.034 
L 334.6585 -458.52414 
L 336.004984 -462.01428 
L 337.263477 -465.50442 
L 338.434275 -468.99456 
L 339.518803 -472.4847 
L 340.519071 -475.97484 
L 341.437264 -479.46498 
L 342.275511 -482.95512 
L 343.035806 -486.44526 
L 343.720081 -489.9354 
L 344.33037 -493.42554 
L 344.869014 -496.91568 
L 345.338858 -500.40582 
L 345.74339 -503.89596 
L 346.086801 -507.3861 
L 346.373952 -510.87624 
L 346.610257 -514.366379 
L 346.801498 -517.856519 
L 346.953616 -521.346659 
L 347.072478 -524.836799 
L 347.727522 -524.836799 
L 347.727522 -524.836799 
L 347.846384 -521.346659 
L 347.998502 -517.856519 
L 348.189743 -514.366379 
L 348.426048 -510.87624 
L 348.713199 -507.3861 
L 349.05661 -503.89596 
L 349.461142 -500.40582 
L 349.930986 -496.91568 
L 350.46963 -493.42554 
L 351.079919 -489.9354 
L 351.764194 -486.44526 
L 352.524489 -482.95512 
L 353.362736 -479.46498 
L 354.280929 -475.97484 
L 355.281197 -472.4847 
L 356.365725 -468.99456 
L 357.536523 -465.50442 
L 358.795016 -462.01428 
L 360.1415 -458.52414 
L 361.574513 -455.034 
L 363.090185 -451.54386 
L 364.681659 -448.05372 
L 366.338647 -444.56358 
L 368.047191 -441.07344 
L 369.789667 -437.5833 
L 371.545053 -434.093161 
L 373.289458 -430.603021 
L 374.99688 -427.112881 
L 376.640164 -423.622741 
L 378.1921 -420.132601 
L 379.626594 -416.642461 
L 380.919853 -413.152321 
L 382.051488 -409.662181 
L 383.005468 -406.172041 
L 383.770848 -402.681901 
L 384.342202 -399.191761 
L 384.719739 -395.701621 
L 384.909092 -392.211481 
L 384.920803 -388.721341 
L 384.769584 -385.231201 
L 384.473421 -381.741061 
L 384.05261 -378.250921 
L 383.528805 -374.760781 
L 382.924128 -371.270641 
L 382.260364 -367.780501 
L 381.558241 -364.290361 
L 380.836787 -360.800221 
L 380.112752 -357.310082 
L 379.400083 -353.819942 
L 378.709482 -350.329802 
L 378.048085 -346.839662 
L 377.419284 -343.349522 
L 376.82276 -339.859382 
L 376.254718 -336.369242 
L 375.708326 -332.879102 
L 375.174326 -329.388962 
L 374.641753 -325.898822 
L 374.098703 -322.408682 
L 373.533102 -318.918542 
L 372.933427 -315.428402 
L 372.289376 -311.938262 
L 371.592477 -308.448122 
L 370.83663 -304.957982 
L 370.018583 -301.467842 
L 369.1383 -297.977702 
L 368.19918 -294.487562 
L 367.208069 -290.997422 
L 366.175008 -287.507282 
L 365.112699 -284.017142 
L 364.035694 -280.527002 
L 362.959374 -277.036863 
L 361.898811 -273.546723 
L 360.86765 -270.056583 
L 359.877145 -266.566443 
L 358.935467 -263.076303 
L 358.047354 -259.586163 
L 357.214156 -256.096023 
L 356.434222 -252.605883 
L 355.703572 -249.115743 
L 355.01675 -245.625603 
L 354.367729 -242.135463 
L 353.750762 -238.645323 
L 353.161078 -235.155183 
L 352.595362 -231.665043 
L 352.051983 -228.174903 
L 351.530976 -224.684763 
L 351.033821 -221.194623 
L 350.563056 -217.704483 
L 350.121804 -214.214343 
L 349.713278 -210.724203 
L 349.340322 -207.234063 
L 349.005041 -203.743923 
L 348.708553 -200.253784 
L 348.450863 -196.763644 
L 348.230875 -193.273504 
L 348.046502 -189.783364 
L 347.894857 -186.293224 
L 347.77249 -182.803084 
L 347.67564 -179.312944 
z
" style="stroke: #3f3f3f; stroke-width: 1.25"/>
    </defs>
    <g clip-path="url(#p8e48e40fdc)">
     <use xlink:href="#m2be0e58347" x="0" y="720" style="fill: #3274a1; stroke: #3f3f3f; stroke-width: 1.25"/>
    </g>
   </g>
   <g id="PolyCollection_3">
    <defs>
     <path id="m8fc525af05" d="M 459.216592 -104.4 
L 458.783408 -104.4 
L 458.716387 -109.350028 
L 458.63449 -114.300056 
L 458.536173 -119.250084 
L 458.420138 -124.200112 
L 458.285387 -129.15014 
L 458.131229 -134.100167 
L 457.957247 -139.050195 
L 457.763203 -144.000223 
L 457.54891 -148.950251 
L 457.314063 -153.900279 
L 457.058077 -158.850307 
L 456.779957 -163.800335 
L 456.478221 -168.750363 
L 456.150925 -173.700391 
L 455.795782 -178.650419 
L 455.410388 -183.600446 
L 454.992529 -188.550474 
L 454.540521 -193.500502 
L 454.053548 -198.45053 
L 453.531938 -203.400558 
L 452.97732 -208.350586 
L 452.392639 -213.300614 
L 451.782015 -218.250642 
L 451.15045 -223.20067 
L 450.503418 -228.150698 
L 449.846393 -233.100725 
L 449.184355 -238.050753 
L 448.521345 -243.000781 
L 447.860101 -247.950809 
L 447.201805 -252.900837 
L 446.545976 -257.850865 
L 445.89049 -262.800893 
L 445.231738 -267.750921 
L 444.564915 -272.700949 
L 443.884431 -277.650977 
L 443.184423 -282.601004 
L 442.459371 -287.551032 
L 441.704786 -292.50106 
L 440.917915 -297.451088 
L 440.098434 -302.401116 
L 439.249018 -307.351144 
L 438.375738 -312.301172 
L 437.488166 -317.2512 
L 436.599162 -322.201228 
L 435.724277 -327.151256 
L 434.88083 -332.101283 
L 434.086703 -337.051311 
L 433.359015 -342.001339 
L 432.712814 -346.951367 
L 432.15998 -351.901395 
L 431.70851 -356.851423 
L 431.362288 -361.801451 
L 431.121391 -366.751479 
L 430.982902 -371.701507 
L 430.942099 -376.651535 
L 430.993831 -381.601562 
L 431.133863 -386.55159 
L 431.359945 -391.501618 
L 431.672425 -396.451646 
L 432.074286 -401.401674 
L 432.570568 -406.351702 
L 433.167269 -411.30173 
L 433.869865 -416.251758 
L 434.681686 -421.201786 
L 435.602394 -426.151814 
L 436.626816 -431.101841 
L 437.744295 -436.051869 
L 438.938705 -441.001897 
L 440.189123 -445.951925 
L 441.471095 -450.901953 
L 442.758353 -455.851981 
L 444.024762 -460.802009 
L 445.246262 -465.752037 
L 446.4026 -470.702065 
L 447.478645 -475.652093 
L 448.465156 -480.60212 
L 449.358963 -485.552148 
L 450.162553 -490.502176 
L 450.883164 -495.452204 
L 451.531508 -500.402232 
L 452.120293 -505.35226 
L 452.662733 -510.302288 
L 453.171177 -515.252316 
L 453.656028 -520.202344 
L 454.125003 -525.152372 
L 454.582793 -530.102399 
L 455.031099 -535.052427 
L 455.468992 -540.002455 
L 455.893507 -544.952483 
L 456.300374 -549.902511 
L 456.684778 -554.852539 
L 457.042059 -559.802567 
L 457.36828 -564.752595 
L 457.660627 -569.702623 
L 457.917622 -574.652651 
L 458.139157 -579.602678 
L 458.326389 -584.552706 
L 458.481522 -589.502734 
L 458.607535 -594.452762 
L 459.392465 -594.452762 
L 459.392465 -594.452762 
L 459.518478 -589.502734 
L 459.673611 -584.552706 
L 459.860843 -579.602678 
L 460.082378 -574.652651 
L 460.339373 -569.702623 
L 460.63172 -564.752595 
L 460.957941 -559.802567 
L 461.315222 -554.852539 
L 461.699626 -549.902511 
L 462.106493 -544.952483 
L 462.531008 -540.002455 
L 462.968901 -535.052427 
L 463.417207 -530.102399 
L 463.874997 -525.152372 
L 464.343972 -520.202344 
L 464.828823 -515.252316 
L 465.337267 -510.302288 
L 465.879707 -505.35226 
L 466.468492 -500.402232 
L 467.116836 -495.452204 
L 467.837447 -490.502176 
L 468.641037 -485.552148 
L 469.534844 -480.60212 
L 470.521355 -475.652093 
L 471.5974 -470.702065 
L 472.753738 -465.752037 
L 473.975238 -460.802009 
L 475.241647 -455.851981 
L 476.528905 -450.901953 
L 477.810877 -445.951925 
L 479.061295 -441.001897 
L 480.255705 -436.051869 
L 481.373184 -431.101841 
L 482.397606 -426.151814 
L 483.318314 -421.201786 
L 484.130135 -416.251758 
L 484.832731 -411.30173 
L 485.429432 -406.351702 
L 485.925714 -401.401674 
L 486.327575 -396.451646 
L 486.640055 -391.501618 
L 486.866137 -386.55159 
L 487.006169 -381.601562 
L 487.057901 -376.651535 
L 487.017098 -371.701507 
L 486.878609 -366.751479 
L 486.637712 -361.801451 
L 486.29149 -356.851423 
L 485.84002 -351.901395 
L 485.287186 -346.951367 
L 484.640985 -342.001339 
L 483.913297 -337.051311 
L 483.11917 -332.101283 
L 482.275723 -327.151256 
L 481.400838 -322.201228 
L 480.511834 -317.2512 
L 479.624262 -312.301172 
L 478.750982 -307.351144 
L 477.901566 -302.401116 
L 477.082085 -297.451088 
L 476.295214 -292.50106 
L 475.540629 -287.551032 
L 474.815577 -282.601004 
L 474.115569 -277.650977 
L 473.435085 -272.700949 
L 472.768262 -267.750921 
L 472.10951 -262.800893 
L 471.454024 -257.850865 
L 470.798195 -252.900837 
L 470.139899 -247.950809 
L 469.478655 -243.000781 
L 468.815645 -238.050753 
L 468.153607 -233.100725 
L 467.496582 -228.150698 
L 466.84955 -223.20067 
L 466.217985 -218.250642 
L 465.607361 -213.300614 
L 465.02268 -208.350586 
L 464.468062 -203.400558 
L 463.946452 -198.45053 
L 463.459479 -193.500502 
L 463.007471 -188.550474 
L 462.589612 -183.600446 
L 462.204218 -178.650419 
L 461.849075 -173.700391 
L 461.521779 -168.750363 
L 461.220043 -163.800335 
L 460.941923 -158.850307 
L 460.685937 -153.900279 
L 460.45109 -148.950251 
L 460.236797 -144.000223 
L 460.042753 -139.050195 
L 459.868771 -134.100167 
L 459.714613 -129.15014 
L 459.579862 -124.200112 
L 459.463827 -119.250084 
L 459.36551 -114.300056 
L 459.283613 -109.350028 
L 459.216592 -104.4 
z
" style="stroke: #3f3f3f; stroke-width: 1.25"/>
    </defs>
    <g clip-path="url(#p8e48e40fdc)">
     <use xlink:href="#m8fc525af05" x="0" y="720" style="fill: #3274a1; stroke: #3f3f3f; stroke-width: 1.25"/>
    </g>
   </g>
   <g id="PolyCollection_4">
    <defs>
     <path id="m1347db251a" d="M 570.950754 -198.589925 
L 570.249246 -198.589925 
L 570.153632 -202.150402 
L 570.03821 -205.710879 
L 569.900489 -209.271356 
L 569.737976 -212.831833 
L 569.548207 -216.39231 
L 569.328766 -219.952787 
L 569.077284 -223.513264 
L 568.791422 -227.073741 
L 568.468833 -230.634218 
L 568.107121 -234.194695 
L 567.70379 -237.755172 
L 567.256212 -241.315649 
L 566.761622 -244.876126 
L 566.217158 -248.436603 
L 565.619945 -251.997081 
L 564.967256 -255.557558 
L 564.256722 -259.118035 
L 563.486598 -262.678512 
L 562.656058 -266.238989 
L 561.765505 -269.799466 
L 560.816842 -273.359943 
L 559.813703 -276.92042 
L 558.76158 -280.480897 
L 557.667847 -284.041374 
L 556.541656 -287.601851 
L 555.393711 -291.162328 
L 554.235932 -294.722805 
L 553.081032 -298.283282 
L 551.94206 -301.843759 
L 550.83193 -305.404236 
L 549.762993 -308.964713 
L 548.746679 -312.525191 
L 547.79324 -316.085668 
L 546.91158 -319.646145 
L 546.109192 -323.206622 
L 545.392153 -326.767099 
L 544.765152 -330.327576 
L 544.231514 -333.888053 
L 543.793173 -337.44853 
L 543.450569 -341.009007 
L 543.20246 -344.569484 
L 543.04566 -348.129961 
L 542.974719 -351.690438 
L 542.981613 -355.250915 
L 543.055505 -358.811392 
L 543.18264 -362.371869 
L 543.346456 -365.932346 
L 543.527959 -369.492823 
L 543.706383 -373.053301 
L 543.860157 -376.613778 
L 543.968109 -380.174255 
L 544.010858 -383.734732 
L 543.972278 -387.295209 
L 543.840899 -390.855686 
L 543.611137 -394.416163 
L 543.284186 -397.97664 
L 542.868493 -401.537117 
L 542.379725 -405.097594 
L 541.840208 -408.658071 
L 541.277838 -412.218548 
L 540.72456 -415.779025 
L 540.214496 -419.339502 
L 539.7819 -422.899979 
L 539.459081 -426.460456 
L 539.274479 -430.020933 
L 539.251038 -433.58141 
L 539.405014 -437.141888 
L 539.745282 -440.702365 
L 540.273194 -444.262842 
L 540.98295 -447.823319 
L 541.862425 -451.383796 
L 542.894348 -454.944273 
L 544.057691 -458.50475 
L 545.329139 -462.065227 
L 546.684502 -465.625704 
L 548.099953 -469.186181 
L 549.55302 -472.746658 
L 551.023276 -476.307135 
L 552.492727 -479.867612 
L 553.945931 -483.428089 
L 555.369888 -486.988566 
L 556.753784 -490.549043 
L 558.088658 -494.10952 
L 559.367059 -497.669998 
L 560.582753 -501.230475 
L 561.730507 -504.790952 
L 562.805968 -508.351429 
L 563.80564 -511.911906 
L 564.726921 -515.472383 
L 565.56819 -519.03286 
L 566.328899 -522.593337 
L 567.009643 -526.153814 
L 567.612188 -529.714291 
L 568.139436 -533.274768 
L 568.595333 -536.835245 
L 568.984715 -540.395722 
L 569.313112 -543.956199 
L 569.58652 -547.516676 
L 569.811174 -551.077153 
L 571.388826 -551.077153 
L 571.388826 -551.077153 
L 571.61348 -547.516676 
L 571.886888 -543.956199 
L 572.215285 -540.395722 
L 572.604667 -536.835245 
L 573.060564 -533.274768 
L 573.587812 -529.714291 
L 574.190357 -526.153814 
L 574.871101 -522.593337 
L 575.63181 -519.03286 
L 576.473079 -515.472383 
L 577.39436 -511.911906 
L 578.394032 -508.351429 
L 579.469493 -504.790952 
L 580.617247 -501.230475 
L 581.832941 -497.669998 
L 583.111342 -494.10952 
L 584.446216 -490.549043 
L 585.830112 -486.988566 
L 587.254069 -483.428089 
L 588.707273 -479.867612 
L 590.176724 -476.307135 
L 591.64698 -472.746658 
L 593.100047 -469.186181 
L 594.515498 -465.625704 
L 595.870861 -462.065227 
L 597.142309 -458.50475 
L 598.305652 -454.944273 
L 599.337575 -451.383796 
L 600.21705 -447.823319 
L 600.926806 -444.262842 
L 601.454718 -440.702365 
L 601.794986 -437.141888 
L 601.948962 -433.58141 
L 601.925521 -430.020933 
L 601.740919 -426.460456 
L 601.4181 -422.899979 
L 600.985504 -419.339502 
L 600.47544 -415.779025 
L 599.922162 -412.218548 
L 599.359792 -408.658071 
L 598.820275 -405.097594 
L 598.331507 -401.537117 
L 597.915814 -397.97664 
L 597.588863 -394.416163 
L 597.359101 -390.855686 
L 597.227722 -387.295209 
L 597.189142 -383.734732 
L 597.231891 -380.174255 
L 597.339843 -376.613778 
L 597.493617 -373.053301 
L 597.672041 -369.492823 
L 597.853544 -365.932346 
L 598.01736 -362.371869 
L 598.144495 -358.811392 
L 598.218387 -355.250915 
L 598.225281 -351.690438 
L 598.15434 -348.129961 
L 597.99754 -344.569484 
L 597.749431 -341.009007 
L 597.406827 -337.44853 
L 596.968486 -333.888053 
L 596.434848 -330.327576 
L 595.807847 -326.767099 
L 595.090808 -323.206622 
L 594.28842 -319.646145 
L 593.40676 -316.085668 
L 592.453321 -312.525191 
L 591.437007 -308.964713 
L 590.36807 -305.404236 
L 589.25794 -301.843759 
L 588.118968 -298.283282 
L 586.964068 -294.722805 
L 585.806289 -291.162328 
L 584.658344 -287.601851 
L 583.532153 -284.041374 
L 582.43842 -280.480897 
L 581.386297 -276.92042 
L 580.383158 -273.359943 
L 579.434495 -269.799466 
L 578.543942 -266.238989 
L 577.713402 -262.678512 
L 576.943278 -259.118035 
L 576.232744 -255.557558 
L 575.580055 -251.997081 
L 574.982842 -248.436603 
L 574.438378 -244.876126 
L 573.943788 -241.315649 
L 573.49621 -237.755172 
L 573.092879 -234.194695 
L 572.731167 -230.634218 
L 572.408578 -227.073741 
L 572.122716 -223.513264 
L 571.871234 -219.952787 
L 571.651793 -216.39231 
L 571.462024 -212.831833 
L 571.299511 -209.271356 
L 571.16179 -205.710879 
L 571.046368 -202.150402 
L 570.950754 -198.589925 
z
" style="stroke: #3f3f3f; stroke-width: 1.25"/>
    </defs>
    <g clip-path="url(#p8e48e40fdc)">
     <use xlink:href="#m1347db251a" x="0" y="720" style="fill: #3274a1; stroke: #3f3f3f; stroke-width: 1.25"/>
    </g>
   </g>
   <g id="PolyCollection_5">
    <defs>
     <path id="m7eba52f278" d="M 682.629208 -200.469484 
L 681.770792 -200.469484 
L 681.635104 -204.493013 
L 681.466666 -208.516541 
L 681.260773 -212.540069 
L 681.012896 -216.563598 
L 680.718912 -220.587126 
L 680.375333 -224.610654 
L 679.979516 -228.634182 
L 679.529826 -232.657711 
L 679.025731 -236.681239 
L 678.467811 -240.704767 
L 677.857652 -244.728296 
L 677.197643 -248.751824 
L 676.490659 -252.775352 
L 675.739677 -256.798881 
L 674.947335 -260.822409 
L 674.115496 -264.845937 
L 673.244866 -268.869465 
L 672.334716 -272.892994 
L 671.382766 -276.916522 
L 670.385263 -280.94005 
L 669.337278 -284.963579 
L 668.233223 -288.987107 
L 667.067566 -293.010635 
L 665.835679 -297.034164 
L 664.534783 -301.057692 
L 663.164869 -305.08122 
L 661.729536 -309.104748 
L 660.236646 -313.128277 
L 658.698714 -317.151805 
L 657.132988 -321.175333 
L 655.561184 -325.198862 
L 654.008854 -329.22239 
L 652.504439 -333.245918 
L 651.078031 -337.269446 
L 649.759936 -341.292975 
L 648.57914 -345.316503 
L 647.561771 -349.340031 
L 646.729692 -353.36356 
L 646.099335 -357.387088 
L 645.68086 -361.410616 
L 645.477729 -365.434145 
L 645.486728 -369.457673 
L 645.698413 -373.481201 
L 646.097969 -377.504729 
L 646.666358 -381.528258 
L 647.381664 -385.551786 
L 648.220495 -389.575314 
L 649.159305 -393.598843 
L 650.17554 -397.622371 
L 651.248509 -401.645899 
L 652.359955 -405.669427 
L 653.494328 -409.692956 
L 654.63879 -413.716484 
L 655.783038 -417.740012 
L 656.918997 -421.763541 
L 658.040481 -425.787069 
L 659.142861 -429.810597 
L 660.222783 -433.834126 
L 661.277937 -437.857654 
L 662.306881 -441.881182 
L 663.308873 -445.90471 
L 664.283709 -449.928239 
L 665.231538 -453.951767 
L 666.152653 -457.975295 
L 667.047272 -461.998824 
L 667.915325 -466.022352 
L 668.756298 -470.04588 
L 669.569141 -474.069408 
L 670.352282 -478.092937 
L 671.103742 -482.116465 
L 671.821349 -486.139993 
L 672.503019 -490.163522 
L 673.147072 -494.18705 
L 673.752532 -498.210578 
L 674.319368 -502.234107 
L 674.848642 -506.257635 
L 675.342533 -510.281163 
L 675.80424 -514.304691 
L 676.237756 -518.32822 
L 676.647556 -522.351748 
L 677.038225 -526.375276 
L 677.414065 -530.398805 
L 677.778739 -534.422333 
L 678.134981 -538.445861 
L 678.484405 -542.469389 
L 678.827435 -546.492918 
L 679.163356 -550.516446 
L 679.490474 -554.539974 
L 679.806363 -558.563503 
L 680.108165 -562.587031 
L 680.39292 -566.610559 
L 680.657859 -570.634088 
L 680.900676 -574.657616 
L 681.119708 -578.681144 
L 681.314055 -582.704672 
L 681.483604 -586.728201 
L 681.628994 -590.751729 
L 681.751513 -594.775257 
L 681.852961 -598.798786 
L 682.547039 -598.798786 
L 682.547039 -598.798786 
L 682.648487 -594.775257 
L 682.771006 -590.751729 
L 682.916396 -586.728201 
L 683.085945 -582.704672 
L 683.280292 -578.681144 
L 683.499324 -574.657616 
L 683.742141 -570.634088 
L 684.00708 -566.610559 
L 684.291835 -562.587031 
L 684.593637 -558.563503 
L 684.909526 -554.539974 
L 685.236644 -550.516446 
L 685.572565 -546.492918 
L 685.915595 -542.469389 
L 686.265019 -538.445861 
L 686.621261 -534.422333 
L 686.985935 -530.398805 
L 687.361775 -526.375276 
L 687.752444 -522.351748 
L 688.162244 -518.32822 
L 688.59576 -514.304691 
L 689.057467 -510.281163 
L 689.551358 -506.257635 
L 690.080632 -502.234107 
L 690.647468 -498.210578 
L 691.252928 -494.18705 
L 691.896981 -490.163522 
L 692.578651 -486.139993 
L 693.296258 -482.116465 
L 694.047718 -478.092937 
L 694.830859 -474.069408 
L 695.643702 -470.04588 
L 696.484675 -466.022352 
L 697.352728 -461.998824 
L 698.247347 -457.975295 
L 699.168462 -453.951767 
L 700.116291 -449.928239 
L 701.091127 -445.90471 
L 702.093119 -441.881182 
L 703.122063 -437.857654 
L 704.177217 -433.834126 
L 705.257139 -429.810597 
L 706.359519 -425.787069 
L 707.481003 -421.763541 
L 708.616962 -417.740012 
L 709.76121 -413.716484 
L 710.905672 -409.692956 
L 712.040045 -405.669427 
L 713.151491 -401.645899 
L 714.22446 -397.622371 
L 715.240695 -393.598843 
L 716.179505 -389.575314 
L 717.018336 -385.551786 
L 717.733642 -381.528258 
L 718.302031 -377.504729 
L 718.701587 -373.481201 
L 718.913272 -369.457673 
L 718.922271 -365.434145 
L 718.71914 -361.410616 
L 718.300665 -357.387088 
L 717.670308 -353.36356 
L 716.838229 -349.340031 
L 715.82086 -345.316503 
L 714.640064 -341.292975 
L 713.321969 -337.269446 
L 711.895561 -333.245918 
L 710.391146 -329.22239 
L 708.838816 -325.198862 
L 707.267012 -321.175333 
L 705.701286 -317.151805 
L 704.163354 -313.128277 
L 702.670464 -309.104748 
L 701.235131 -305.08122 
L 699.865217 -301.057692 
L 698.564321 -297.034164 
L 697.332434 -293.010635 
L 696.166777 -288.987107 
L 695.062722 -284.963579 
L 694.014737 -280.94005 
L 693.017234 -276.916522 
L 692.065284 -272.892994 
L 691.155134 -268.869465 
L 690.284504 -264.845937 
L 689.452665 -260.822409 
L 688.660323 -256.798881 
L 687.909341 -252.775352 
L 687.202357 -248.751824 
L 686.542348 -244.728296 
L 685.932189 -240.704767 
L 685.374269 -236.681239 
L 684.870174 -232.657711 
L 684.420484 -228.634182 
L 684.024667 -224.610654 
L 683.681088 -220.587126 
L 683.387104 -216.563598 
L 683.139227 -212.540069 
L 682.933334 -208.516541 
L 682.764896 -204.493013 
L 682.629208 -200.469484 
z
" style="stroke: #3f3f3f; stroke-width: 1.25"/>
    </defs>
    <g clip-path="url(#p8e48e40fdc)">
     <use xlink:href="#m7eba52f278" x="0" y="720" style="fill: #3274a1; stroke: #3f3f3f; stroke-width: 1.25"/>
    </g>
   </g>
   <g id="PolyCollection_6">
    <defs>
     <path id="m73597f97e5" d="M 794.327331 -212.429482 
L 793.272669 -212.429482 
L 793.129124 -215.709976 
L 792.959567 -218.990469 
L 792.763263 -222.270962 
L 792.540665 -225.551456 
L 792.29365 -228.831949 
L 792.025691 -232.112442 
L 791.741926 -235.392935 
L 791.449089 -238.673429 
L 791.155295 -241.953922 
L 790.86967 -245.234415 
L 790.601818 -248.514909 
L 790.36118 -251.795402 
L 790.156298 -255.075895 
L 789.994055 -258.356389 
L 789.878942 -261.636882 
L 789.812417 -264.917375 
L 789.792397 -268.197869 
L 789.812949 -271.478362 
L 789.864172 -274.758855 
L 789.932317 -278.039348 
L 790.00011 -281.319842 
L 790.04727 -284.600335 
L 790.051205 -287.880828 
L 789.987829 -291.161322 
L 789.832493 -294.441815 
L 789.56098 -297.722308 
L 789.150529 -301.002802 
L 788.580866 -304.283295 
L 787.83519 -307.563788 
L 786.901076 -310.844282 
L 785.771245 -314.124775 
L 784.444152 -317.405268 
L 782.924345 -320.685761 
L 781.222545 -323.966255 
L 779.355438 -327.246748 
L 777.345176 -330.527241 
L 775.218592 -333.807735 
L 773.006214 -337.088228 
L 770.741108 -340.368721 
L 768.457671 -343.649215 
L 766.190422 -346.929708 
L 763.972893 -350.210201 
L 761.836654 -353.490695 
L 759.810516 -356.771188 
L 757.919915 -360.051681 
L 756.186469 -363.332174 
L 754.627674 -366.612668 
L 753.256745 -369.893161 
L 752.082552 -373.173654 
L 751.109683 -376.454148 
L 750.338616 -379.734641 
L 749.766036 -383.015134 
L 749.385299 -386.295628 
L 749.187056 -389.576121 
L 749.16 -392.856614 
L 749.291708 -396.137108 
L 749.569493 -399.417601 
L 749.981186 -402.698094 
L 750.515757 -405.978587 
L 751.163691 -409.259081 
L 751.917082 -412.539574 
L 752.769423 -415.820067 
L 753.715146 -419.100561 
L 754.74898 -422.381054 
L 755.865245 -425.661547 
L 757.057213 -428.942041 
L 758.316643 -432.222534 
L 759.633597 -435.503027 
L 760.996571 -438.783521 
L 762.392945 -442.064014 
L 763.809684 -445.344507 
L 765.234204 -448.625 
L 766.655247 -451.905494 
L 768.06366 -455.185987 
L 769.452925 -458.46648 
L 770.819381 -461.746974 
L 772.162083 -465.027467 
L 773.482318 -468.30796 
L 774.78285 -471.588454 
L 776.06699 -474.868947 
L 777.337628 -478.14944 
L 778.596348 -481.429934 
L 779.842747 -484.710427 
L 781.074039 -487.99092 
L 782.284986 -491.271413 
L 783.468141 -494.551907 
L 784.614376 -497.8324 
L 785.713601 -501.112893 
L 786.75559 -504.393387 
L 787.730804 -507.67388 
L 788.631125 -510.954373 
L 789.450432 -514.234867 
L 790.184968 -517.51536 
L 790.833486 -520.795853 
L 791.397184 -524.076347 
L 791.879462 -527.35684 
L 792.285542 -530.637333 
L 792.622016 -533.917826 
L 792.896357 -537.19832 
L 794.703643 -537.19832 
L 794.703643 -537.19832 
L 794.977984 -533.917826 
L 795.314458 -530.637333 
L 795.720538 -527.35684 
L 796.202816 -524.076347 
L 796.766514 -520.795853 
L 797.415032 -517.51536 
L 798.149568 -514.234867 
L 798.968875 -510.954373 
L 799.869196 -507.67388 
L 800.84441 -504.393387 
L 801.886399 -501.112893 
L 802.985624 -497.8324 
L 804.131859 -494.551907 
L 805.315014 -491.271413 
L 806.525961 -487.99092 
L 807.757253 -484.710427 
L 809.003652 -481.429934 
L 810.262372 -478.14944 
L 811.53301 -474.868947 
L 812.81715 -471.588454 
L 814.117682 -468.30796 
L 815.437917 -465.027467 
L 816.780619 -461.746974 
L 818.147075 -458.46648 
L 819.53634 -455.185987 
L 820.944753 -451.905494 
L 822.365796 -448.625 
L 823.790316 -445.344507 
L 825.207055 -442.064014 
L 826.603429 -438.783521 
L 827.966403 -435.503027 
L 829.283357 -432.222534 
L 830.542787 -428.942041 
L 831.734755 -425.661547 
L 832.85102 -422.381054 
L 833.884854 -419.100561 
L 834.830577 -415.820067 
L 835.682918 -412.539574 
L 836.436309 -409.259081 
L 837.084243 -405.978587 
L 837.618814 -402.698094 
L 838.030507 -399.417601 
L 838.308292 -396.137108 
L 838.44 -392.856614 
L 838.412944 -389.576121 
L 838.214701 -386.295628 
L 837.833964 -383.015134 
L 837.261384 -379.734641 
L 836.490317 -376.454148 
L 835.517448 -373.173654 
L 834.343255 -369.893161 
L 832.972326 -366.612668 
L 831.413531 -363.332174 
L 829.680085 -360.051681 
L 827.789484 -356.771188 
L 825.763346 -353.490695 
L 823.627107 -350.210201 
L 821.409578 -346.929708 
L 819.142329 -343.649215 
L 816.858892 -340.368721 
L 814.593786 -337.088228 
L 812.381408 -333.807735 
L 810.254824 -330.527241 
L 808.244562 -327.246748 
L 806.377455 -323.966255 
L 804.675655 -320.685761 
L 803.155848 -317.405268 
L 801.828755 -314.124775 
L 800.698924 -310.844282 
L 799.76481 -307.563788 
L 799.019134 -304.283295 
L 798.449471 -301.002802 
L 798.03902 -297.722308 
L 797.767507 -294.441815 
L 797.612171 -291.161322 
L 797.548795 -287.880828 
L 797.55273 -284.600335 
L 797.59989 -281.319842 
L 797.667683 -278.039348 
L 797.735828 -274.758855 
L 797.787051 -271.478362 
L 797.807603 -268.197869 
L 797.787583 -264.917375 
L 797.721058 -261.636882 
L 797.605945 -258.356389 
L 797.443702 -255.075895 
L 797.23882 -251.795402 
L 796.998182 -248.514909 
L 796.73033 -245.234415 
L 796.444705 -241.953922 
L 796.150911 -238.673429 
L 795.858074 -235.392935 
L 795.574309 -232.112442 
L 795.30635 -228.831949 
L 795.059335 -225.551456 
L 794.836737 -222.270962 
L 794.640433 -218.990469 
L 794.470876 -215.709976 
L 794.327331 -212.429482 
z
" style="stroke: #3f3f3f; stroke-width: 1.25"/>
    </defs>
    <g clip-path="url(#p8e48e40fdc)">
     <use xlink:href="#m73597f97e5" x="0" y="720" style="fill: #3274a1; stroke: #3f3f3f; stroke-width: 1.25"/>
    </g>
   </g>
   <g id="PolyCollection_7">
    <defs>
     <path id="mdb7296962d" d="M 905.980293 -187.668694 
L 904.819707 -187.668694 
L 904.660409 -191.805613 
L 904.469817 -195.942531 
L 904.245517 -200.079449 
L 903.985955 -204.216368 
L 903.690731 -208.353286 
L 903.360853 -212.490204 
L 902.998947 -216.627123 
L 902.609383 -220.764041 
L 902.198286 -224.900959 
L 901.773413 -229.037878 
L 901.343882 -233.174796 
L 900.919749 -237.311715 
L 900.511444 -241.448633 
L 900.129112 -245.585551 
L 899.781871 -249.72247 
L 899.477074 -253.859388 
L 899.219612 -257.996306 
L 899.011342 -262.133225 
L 898.85067 -266.270143 
L 898.732361 -270.407061 
L 898.647587 -274.54398 
L 898.584221 -278.680898 
L 898.527363 -282.817817 
L 898.46006 -286.954735 
L 898.364154 -291.091653 
L 898.221199 -295.228572 
L 898.013366 -299.36549 
L 897.724257 -303.502408 
L 897.339587 -307.639327 
L 896.847664 -311.776245 
L 896.239679 -315.913163 
L 895.50979 -320.050082 
L 894.655041 -324.187 
L 893.675174 -328.323919 
L 892.572398 -332.460837 
L 891.351169 -336.597755 
L 890.018068 -340.734674 
L 888.581796 -344.871592 
L 887.053308 -349.00851 
L 885.446078 -353.145429 
L 883.776422 -357.282347 
L 882.063818 -361.419265 
L 880.33112 -365.556184 
L 878.604568 -369.693102 
L 876.913492 -373.830021 
L 875.289672 -377.966939 
L 873.766324 -382.103857 
L 872.376741 -386.240776 
L 871.152688 -390.377694 
L 870.122665 -394.514612 
L 869.310216 -398.651531 
L 868.732435 -402.788449 
L 868.398854 -406.925367 
L 868.310832 -411.062286 
L 868.461518 -415.199204 
L 868.83642 -419.336123 
L 869.414515 -423.473041 
L 870.169811 -427.609959 
L 871.073185 -431.746878 
L 872.094333 -435.883796 
L 873.203641 -440.020714 
L 874.373808 -444.157633 
L 875.581103 -448.294551 
L 876.806161 -452.431469 
L 878.034316 -456.568388 
L 879.255473 -460.705306 
L 880.463616 -464.842225 
L 881.656046 -468.979143 
L 882.832468 -473.116061 
L 883.994039 -477.25298 
L 885.142493 -481.389898 
L 886.279411 -485.526816 
L 887.405678 -489.663735 
L 888.521165 -493.800653 
L 889.624599 -497.937572 
L 890.713612 -502.07449 
L 891.78491 -506.211408 
L 892.834521 -510.348327 
L 893.858072 -514.485245 
L 894.851056 -518.622163 
L 895.809068 -522.759082 
L 896.727989 -526.896 
L 897.604114 -531.032918 
L 898.434238 -535.169837 
L 899.215699 -539.306755 
L 899.946406 -543.443674 
L 900.624844 -547.580592 
L 901.250078 -551.71751 
L 901.821763 -555.854429 
L 902.340141 -559.991347 
L 902.806045 -564.128265 
L 903.220888 -568.265184 
L 903.586641 -572.402102 
L 903.905787 -576.53902 
L 904.181263 -580.675939 
L 904.416375 -584.812857 
L 904.614704 -588.949776 
L 904.779998 -593.086694 
L 904.91606 -597.223612 
L 905.88394 -597.223612 
L 905.88394 -597.223612 
L 906.020002 -593.086694 
L 906.185296 -588.949776 
L 906.383625 -584.812857 
L 906.618737 -580.675939 
L 906.894213 -576.53902 
L 907.213359 -572.402102 
L 907.579112 -568.265184 
L 907.993955 -564.128265 
L 908.459859 -559.991347 
L 908.978237 -555.854429 
L 909.549922 -551.71751 
L 910.175156 -547.580592 
L 910.853594 -543.443674 
L 911.584301 -539.306755 
L 912.365762 -535.169837 
L 913.195886 -531.032918 
L 914.072011 -526.896 
L 914.990932 -522.759082 
L 915.948944 -518.622163 
L 916.941928 -514.485245 
L 917.965479 -510.348327 
L 919.01509 -506.211408 
L 920.086388 -502.07449 
L 921.175401 -497.937572 
L 922.278835 -493.800653 
L 923.394322 -489.663735 
L 924.520589 -485.526816 
L 925.657507 -481.389898 
L 926.805961 -477.25298 
L 927.967532 -473.116061 
L 929.143954 -468.979143 
L 930.336384 -464.842225 
L 931.544527 -460.705306 
L 932.765684 -456.568388 
L 933.993839 -452.431469 
L 935.218897 -448.294551 
L 936.426192 -444.157633 
L 937.596359 -440.020714 
L 938.705667 -435.883796 
L 939.726815 -431.746878 
L 940.630189 -427.609959 
L 941.385485 -423.473041 
L 941.96358 -419.336123 
L 942.338482 -415.199204 
L 942.489168 -411.062286 
L 942.401146 -406.925367 
L 942.067565 -402.788449 
L 941.489784 -398.651531 
L 940.677335 -394.514612 
L 939.647312 -390.377694 
L 938.423259 -386.240776 
L 937.033676 -382.103857 
L 935.510328 -377.966939 
L 933.886508 -373.830021 
L 932.195432 -369.693102 
L 930.46888 -365.556184 
L 928.736182 -361.419265 
L 927.023578 -357.282347 
L 925.353922 -353.145429 
L 923.746692 -349.00851 
L 922.218204 -344.871592 
L 920.781932 -340.734674 
L 919.448831 -336.597755 
L 918.227602 -332.460837 
L 917.124826 -328.323919 
L 916.144959 -324.187 
L 915.29021 -320.050082 
L 914.560321 -315.913163 
L 913.952336 -311.776245 
L 913.460413 -307.639327 
L 913.075743 -303.502408 
L 912.786634 -299.36549 
L 912.578801 -295.228572 
L 912.435846 -291.091653 
L 912.33994 -286.954735 
L 912.272637 -282.817817 
L 912.215779 -278.680898 
L 912.152413 -274.54398 
L 912.067639 -270.407061 
L 911.94933 -266.270143 
L 911.788658 -262.133225 
L 911.580388 -257.996306 
L 911.322926 -253.859388 
L 911.018129 -249.72247 
L 910.670888 -245.585551 
L 910.288556 -241.448633 
L 909.880251 -237.311715 
L 909.456118 -233.174796 
L 909.026587 -229.037878 
L 908.601714 -224.900959 
L 908.190617 -220.764041 
L 907.801053 -216.627123 
L 907.439147 -212.490204 
L 907.109269 -208.353286 
L 906.814045 -204.216368 
L 906.554483 -200.079449 
L 906.330183 -195.942531 
L 906.139591 -191.805613 
L 905.980293 -187.668694 
z
" style="stroke: #3f3f3f; stroke-width: 1.25"/>
    </defs>
    <g clip-path="url(#p8e48e40fdc)">
     <use xlink:href="#mdb7296962d" x="0" y="720" style="fill: #3274a1; stroke: #3f3f3f; stroke-width: 1.25"/>
    </g>
   </g>
   <g id="PolyCollection_8">
    <defs>
     <path id="ma3acf6f338" d="M 1017.537479 -117.413289 
L 1016.462521 -117.413289 
L 1016.341466 -122.190329 
L 1016.201731 -126.967369 
L 1016.042608 -131.744409 
L 1015.863897 -136.521448 
L 1015.665997 -141.298488 
L 1015.449986 -146.075528 
L 1015.217656 -150.852568 
L 1014.971517 -155.629608 
L 1014.714749 -160.406647 
L 1014.451097 -165.183687 
L 1014.184713 -169.960727 
L 1013.919946 -174.737767 
L 1013.661082 -179.514806 
L 1013.412061 -184.291846 
L 1013.176169 -189.068886 
L 1012.955746 -193.845926 
L 1012.751913 -198.622966 
L 1012.564358 -203.400005 
L 1012.391188 -208.177045 
L 1012.228873 -212.954085 
L 1012.072292 -217.731125 
L 1011.914874 -222.508164 
L 1011.748855 -227.285204 
L 1011.565611 -232.062244 
L 1011.356066 -236.839284 
L 1011.111148 -241.616324 
L 1010.82225 -246.393363 
L 1010.481684 -251.170403 
L 1010.083075 -255.947443 
L 1009.621684 -260.724483 
L 1009.094632 -265.501522 
L 1008.500999 -270.278562 
L 1007.841814 -275.055602 
L 1007.119927 -279.832642 
L 1006.339773 -284.609682 
L 1005.507065 -289.386721 
L 1004.628439 -294.163761 
L 1003.711079 -298.940801 
L 1002.762365 -303.717841 
L 1001.789571 -308.49488 
L 1000.799643 -313.27192 
L 999.799073 -318.04896 
L 998.793878 -322.826 
L 997.789682 -327.60304 
L 996.79189 -332.380079 
L 995.805924 -337.157119 
L 994.837498 -341.934159 
L 993.892888 -346.711199 
L 992.979164 -351.488238 
L 992.104348 -356.265278 
L 991.277473 -361.042318 
L 990.508513 -365.819358 
L 989.808189 -370.596398 
L 989.187648 -375.373437 
L 988.658036 -380.150477 
L 988.23 -384.927517 
L 987.91314 -389.704557 
L 987.715481 -394.481596 
L 987.642991 -399.258636 
L 987.699193 -404.035676 
L 987.884906 -408.812716 
L 988.198142 -413.589756 
L 988.634158 -418.366795 
L 989.18568 -423.143835 
L 989.843254 -427.920875 
L 990.595719 -432.697915 
L 991.430749 -437.474954 
L 992.335425 -442.251994 
L 993.296788 -447.029034 
L 994.302343 -451.806074 
L 995.340461 -456.583114 
L 996.40068 -461.360153 
L 997.473866 -466.137193 
L 998.552263 -470.914233 
L 999.62942 -475.691273 
L 1000.700032 -480.468312 
L 1001.759711 -485.245352 
L 1002.804733 -490.022392 
L 1003.831782 -494.799432 
L 1004.837712 -499.576472 
L 1005.819376 -504.353511 
L 1006.773499 -509.130551 
L 1007.696637 -513.907591 
L 1008.5852 -518.684631 
L 1009.43553 -523.46167 
L 1010.244032 -528.23871 
L 1011.007331 -533.01575 
L 1011.722442 -537.79279 
L 1012.38692 -542.56983 
L 1012.999001 -547.346869 
L 1013.557698 -552.123909 
L 1014.062851 -556.900949 
L 1014.51514 -561.677989 
L 1014.916048 -566.455028 
L 1015.267778 -571.232068 
L 1015.573156 -576.009108 
L 1015.835497 -580.786148 
L 1016.058462 -585.563188 
L 1016.245925 -590.340227 
L 1017.754075 -590.340227 
L 1017.754075 -590.340227 
L 1017.941538 -585.563188 
L 1018.164503 -580.786148 
L 1018.426844 -576.009108 
L 1018.732222 -571.232068 
L 1019.083952 -566.455028 
L 1019.48486 -561.677989 
L 1019.937149 -556.900949 
L 1020.442302 -552.123909 
L 1021.000999 -547.346869 
L 1021.61308 -542.56983 
L 1022.277558 -537.79279 
L 1022.992669 -533.01575 
L 1023.755968 -528.23871 
L 1024.56447 -523.46167 
L 1025.4148 -518.684631 
L 1026.303363 -513.907591 
L 1027.226501 -509.130551 
L 1028.180624 -504.353511 
L 1029.162288 -499.576472 
L 1030.168218 -494.799432 
L 1031.195267 -490.022392 
L 1032.240289 -485.245352 
L 1033.299968 -480.468312 
L 1034.37058 -475.691273 
L 1035.447737 -470.914233 
L 1036.526134 -466.137193 
L 1037.59932 -461.360153 
L 1038.659539 -456.583114 
L 1039.697657 -451.806074 
L 1040.703212 -447.029034 
L 1041.664575 -442.251994 
L 1042.569251 -437.474954 
L 1043.404281 -432.697915 
L 1044.156746 -427.920875 
L 1044.81432 -423.143835 
L 1045.365842 -418.366795 
L 1045.801858 -413.589756 
L 1046.115094 -408.812716 
L 1046.300807 -404.035676 
L 1046.357009 -399.258636 
L 1046.284519 -394.481596 
L 1046.08686 -389.704557 
L 1045.77 -384.927517 
L 1045.341964 -380.150477 
L 1044.812352 -375.373437 
L 1044.191811 -370.596398 
L 1043.491487 -365.819358 
L 1042.722527 -361.042318 
L 1041.895652 -356.265278 
L 1041.020836 -351.488238 
L 1040.107112 -346.711199 
L 1039.162502 -341.934159 
L 1038.194076 -337.157119 
L 1037.20811 -332.380079 
L 1036.210318 -327.60304 
L 1035.206122 -322.826 
L 1034.200927 -318.04896 
L 1033.200357 -313.27192 
L 1032.210429 -308.49488 
L 1031.237635 -303.717841 
L 1030.288921 -298.940801 
L 1029.371561 -294.163761 
L 1028.492935 -289.386721 
L 1027.660227 -284.609682 
L 1026.880073 -279.832642 
L 1026.158186 -275.055602 
L 1025.499001 -270.278562 
L 1024.905368 -265.501522 
L 1024.378316 -260.724483 
L 1023.916925 -255.947443 
L 1023.518316 -251.170403 
L 1023.17775 -246.393363 
L 1022.888852 -241.616324 
L 1022.643934 -236.839284 
L 1022.434389 -232.062244 
L 1022.251145 -227.285204 
L 1022.085126 -222.508164 
L 1021.927708 -217.731125 
L 1021.771127 -212.954085 
L 1021.608812 -208.177045 
L 1021.435642 -203.400005 
L 1021.248087 -198.622966 
L 1021.044254 -193.845926 
L 1020.823831 -189.068886 
L 1020.587939 -184.291846 
L 1020.338918 -179.514806 
L 1020.080054 -174.737767 
L 1019.815287 -169.960727 
L 1019.548903 -165.183687 
L 1019.285251 -160.406647 
L 1019.028483 -155.629608 
L 1018.782344 -150.852568 
L 1018.550014 -146.075528 
L 1018.334003 -141.298488 
L 1018.136103 -136.521448 
L 1017.957392 -131.744409 
L 1017.798269 -126.967369 
L 1017.658534 -122.190329 
L 1017.537479 -117.413289 
z
" style="stroke: #3f3f3f; stroke-width: 1.25"/>
    </defs>
    <g clip-path="url(#p8e48e40fdc)">
     <use xlink:href="#ma3acf6f338" x="0" y="720" style="fill: #3274a1; stroke: #3f3f3f; stroke-width: 1.25"/>
    </g>
   </g>
   <g id="PolyCollection_9">
    <defs>
     <path id="m57be4a7f6c" d="M 1129.089007 -146.615206 
L 1128.110993 -146.615206 
L 1127.997761 -151.19439 
L 1127.865114 -155.773574 
L 1127.71136 -160.352757 
L 1127.534996 -164.931941 
L 1127.334774 -169.511125 
L 1127.109752 -174.090308 
L 1126.85934 -178.669492 
L 1126.583315 -183.248676 
L 1126.281823 -187.827859 
L 1125.955342 -192.407043 
L 1125.604626 -196.986227 
L 1125.23061 -201.565411 
L 1124.834294 -206.144594 
L 1124.416609 -210.723778 
L 1123.978266 -215.302962 
L 1123.519608 -219.882145 
L 1123.040478 -224.461329 
L 1122.540103 -229.040513 
L 1122.017032 -233.619696 
L 1121.469111 -238.19888 
L 1120.893531 -242.778064 
L 1120.286938 -247.357247 
L 1119.645621 -251.936431 
L 1118.965759 -256.515615 
L 1118.243736 -261.094799 
L 1117.476504 -265.673982 
L 1116.66197 -270.253166 
L 1115.799396 -274.83235 
L 1114.889778 -279.411533 
L 1113.936179 -283.990717 
L 1112.94399 -288.569901 
L 1111.921093 -293.149084 
L 1110.877905 -297.728268 
L 1109.827278 -302.307452 
L 1108.784257 -306.886635 
L 1107.765688 -311.465819 
L 1106.789684 -316.045003 
L 1105.87496 -320.624187 
L 1105.040082 -325.20337 
L 1104.30264 -329.782554 
L 1103.678406 -334.361738 
L 1103.180513 -338.940921 
L 1102.818715 -343.520105 
L 1102.59876 -348.099289 
L 1102.521939 -352.678472 
L 1102.584832 -357.257656 
L 1102.779294 -361.83684 
L 1103.092676 -366.416023 
L 1103.508301 -370.995207 
L 1104.006161 -375.574391 
L 1104.563819 -380.153575 
L 1105.157455 -384.732758 
L 1105.763014 -389.311942 
L 1106.357379 -393.891126 
L 1106.919508 -398.470309 
L 1107.431463 -403.049493 
L 1107.87927 -407.628677 
L 1108.253564 -412.20786 
L 1108.549964 -416.787044 
L 1108.769185 -421.366228 
L 1108.916854 -425.945411 
L 1109.003073 -430.524595 
L 1109.041739 -435.103779 
L 1109.049685 -439.682963 
L 1109.045688 -444.262146 
L 1109.04941 -448.84133 
L 1109.080342 -453.420514 
L 1109.156802 -457.999697 
L 1109.295052 -462.578881 
L 1109.508565 -467.158065 
L 1109.807485 -471.737248 
L 1110.198291 -476.316432 
L 1110.683663 -480.895616 
L 1111.262549 -485.474799 
L 1111.930407 -490.053983 
L 1112.679598 -494.633167 
L 1113.499885 -499.212351 
L 1114.379012 -503.791534 
L 1115.303323 -508.370718 
L 1116.258383 -512.949902 
L 1117.229567 -517.529085 
L 1118.202604 -522.108269 
L 1119.164047 -526.687453 
L 1120.101653 -531.266636 
L 1121.004678 -535.84582 
L 1121.864078 -540.425004 
L 1122.672611 -545.004187 
L 1123.424876 -549.583371 
L 1124.117256 -554.162555 
L 1124.74782 -558.741739 
L 1125.316166 -563.320922 
L 1125.823236 -567.900106 
L 1126.271104 -572.47929 
L 1126.66276 -577.058473 
L 1127.001888 -581.637657 
L 1127.292659 -586.216841 
L 1127.539537 -590.796024 
L 1127.747108 -595.375208 
L 1127.919935 -599.954392 
L 1129.280065 -599.954392 
L 1129.280065 -599.954392 
L 1129.452892 -595.375208 
L 1129.660463 -590.796024 
L 1129.907341 -586.216841 
L 1130.198112 -581.637657 
L 1130.53724 -577.058473 
L 1130.928896 -572.47929 
L 1131.376764 -567.900106 
L 1131.883834 -563.320922 
L 1132.45218 -558.741739 
L 1133.082744 -554.162555 
L 1133.775124 -549.583371 
L 1134.527389 -545.004187 
L 1135.335922 -540.425004 
L 1136.195322 -535.84582 
L 1137.098347 -531.266636 
L 1138.035953 -526.687453 
L 1138.997396 -522.108269 
L 1139.970433 -517.529085 
L 1140.941617 -512.949902 
L 1141.896677 -508.370718 
L 1142.820988 -503.791534 
L 1143.700115 -499.212351 
L 1144.520402 -494.633167 
L 1145.269593 -490.053983 
L 1145.937451 -485.474799 
L 1146.516337 -480.895616 
L 1147.001709 -476.316432 
L 1147.392515 -471.737248 
L 1147.691435 -467.158065 
L 1147.904948 -462.578881 
L 1148.043198 -457.999697 
L 1148.119658 -453.420514 
L 1148.15059 -448.84133 
L 1148.154312 -444.262146 
L 1148.150315 -439.682963 
L 1148.158261 -435.103779 
L 1148.196927 -430.524595 
L 1148.283146 -425.945411 
L 1148.430815 -421.366228 
L 1148.650036 -416.787044 
L 1148.946436 -412.20786 
L 1149.32073 -407.628677 
L 1149.768537 -403.049493 
L 1150.280492 -398.470309 
L 1150.842621 -393.891126 
L 1151.436986 -389.311942 
L 1152.042545 -384.732758 
L 1152.636181 -380.153575 
L 1153.193839 -375.574391 
L 1153.691699 -370.995207 
L 1154.107324 -366.416023 
L 1154.420706 -361.83684 
L 1154.615168 -357.257656 
L 1154.678061 -352.678472 
L 1154.60124 -348.099289 
L 1154.381285 -343.520105 
L 1154.019487 -338.940921 
L 1153.521594 -334.361738 
L 1152.89736 -329.782554 
L 1152.159918 -325.20337 
L 1151.32504 -320.624187 
L 1150.410316 -316.045003 
L 1149.434312 -311.465819 
L 1148.415743 -306.886635 
L 1147.372722 -302.307452 
L 1146.322095 -297.728268 
L 1145.278907 -293.149084 
L 1144.25601 -288.569901 
L 1143.263821 -283.990717 
L 1142.310222 -279.411533 
L 1141.400604 -274.83235 
L 1140.53803 -270.253166 
L 1139.723496 -265.673982 
L 1138.956264 -261.094799 
L 1138.234241 -256.515615 
L 1137.554379 -251.936431 
L 1136.913062 -247.357247 
L 1136.306469 -242.778064 
L 1135.730889 -238.19888 
L 1135.182968 -233.619696 
L 1134.659897 -229.040513 
L 1134.159522 -224.461329 
L 1133.680392 -219.882145 
L 1133.221734 -215.302962 
L 1132.783391 -210.723778 
L 1132.365706 -206.144594 
L 1131.96939 -201.565411 
L 1131.595374 -196.986227 
L 1131.244658 -192.407043 
L 1130.918177 -187.827859 
L 1130.616685 -183.248676 
L 1130.34066 -178.669492 
L 1130.090248 -174.090308 
L 1129.865226 -169.511125 
L 1129.665004 -164.931941 
L 1129.48864 -160.352757 
L 1129.334886 -155.773574 
L 1129.202239 -151.19439 
L 1129.089007 -146.615206 
z
" style="stroke: #3f3f3f; stroke-width: 1.25"/>
    </defs>
    <g clip-path="url(#p8e48e40fdc)">
     <use xlink:href="#m57be4a7f6c" x="0" y="720" style="fill: #3274a1; stroke: #3f3f3f; stroke-width: 1.25"/>
    </g>
   </g>
   <g id="PolyCollection_10">
    <defs>
     <path id="m651eb6acf7" d="M 1241.015142 -234.013709 
L 1239.384858 -234.013709 
L 1239.2163 -237.795388 
L 1239.023716 -241.577068 
L 1238.806233 -245.358748 
L 1238.563528 -249.140428 
L 1238.295931 -252.922107 
L 1238.004512 -256.703787 
L 1237.69113 -260.485467 
L 1237.358458 -264.267146 
L 1237.009947 -268.048826 
L 1236.649752 -271.830506 
L 1236.282593 -275.612185 
L 1235.91356 -279.393865 
L 1235.54787 -283.175545 
L 1235.190567 -286.957225 
L 1234.846194 -290.738904 
L 1234.518439 -294.520584 
L 1234.20978 -298.302264 
L 1233.921151 -302.083943 
L 1233.651643 -305.865623 
L 1233.398271 -309.647303 
L 1233.155825 -313.428983 
L 1232.916822 -317.210662 
L 1232.671573 -320.992342 
L 1232.408378 -324.774022 
L 1232.113844 -328.555701 
L 1231.773329 -332.337381 
L 1231.371503 -336.119061 
L 1230.89299 -339.900741 
L 1230.323098 -343.68242 
L 1229.648575 -347.4641 
L 1228.858378 -351.24578 
L 1227.944409 -355.027459 
L 1226.902176 -358.809139 
L 1225.731356 -362.590819 
L 1224.4362 -366.372499 
L 1223.025775 -370.154178 
L 1221.514002 -373.935858 
L 1219.919479 -377.717538 
L 1218.265086 -381.499217 
L 1216.577377 -385.280897 
L 1214.885774 -389.062577 
L 1213.22159 -392.844257 
L 1211.616933 -396.625936 
L 1210.103521 -400.407616 
L 1208.711479 -404.189296 
L 1207.468168 -407.970975 
L 1206.397111 -411.752655 
L 1205.517068 -415.534335 
L 1204.841318 -419.316014 
L 1204.377177 -423.097694 
L 1204.12579 -426.879374 
L 1204.082201 -430.661054 
L 1204.235713 -434.442733 
L 1204.570497 -438.224413 
L 1205.066436 -442.006093 
L 1205.700149 -445.787772 
L 1206.44614 -449.569452 
L 1207.278005 -453.351132 
L 1208.169638 -457.132812 
L 1209.096365 -460.914491 
L 1210.035953 -464.696171 
L 1210.969439 -468.477851 
L 1211.881742 -472.25953 
L 1212.76204 -476.04121 
L 1213.603887 -479.82289 
L 1214.405103 -483.60457 
L 1215.16742 -487.386249 
L 1215.895956 -491.167929 
L 1216.598523 -494.949609 
L 1217.284844 -498.731288 
L 1217.965714 -502.512968 
L 1218.652162 -506.294648 
L 1219.354665 -510.076328 
L 1220.082453 -513.858007 
L 1220.842931 -517.639687 
L 1221.641259 -521.421367 
L 1222.480087 -525.203046 
L 1223.359458 -528.984726 
L 1224.276864 -532.766406 
L 1225.227444 -536.548086 
L 1226.204303 -540.329765 
L 1227.198913 -544.111445 
L 1228.201583 -547.893125 
L 1229.201945 -551.674804 
L 1230.189451 -555.456484 
L 1231.153826 -559.238164 
L 1232.085481 -563.019843 
L 1232.975856 -566.801523 
L 1233.817673 -570.583203 
L 1234.605122 -574.364883 
L 1235.333944 -578.146562 
L 1236.001449 -581.928242 
L 1236.60646 -585.709922 
L 1237.14919 -589.491601 
L 1237.631088 -593.273281 
L 1238.054645 -597.054961 
L 1238.423188 -600.836641 
L 1238.740665 -604.61832 
L 1239.011444 -608.4 
L 1241.388556 -608.4 
L 1241.388556 -608.4 
L 1241.659335 -604.61832 
L 1241.976812 -600.836641 
L 1242.345355 -597.054961 
L 1242.768912 -593.273281 
L 1243.25081 -589.491601 
L 1243.79354 -585.709922 
L 1244.398551 -581.928242 
L 1245.066056 -578.146562 
L 1245.794878 -574.364883 
L 1246.582327 -570.583203 
L 1247.424144 -566.801523 
L 1248.314519 -563.019843 
L 1249.246174 -559.238164 
L 1250.210549 -555.456484 
L 1251.198055 -551.674804 
L 1252.198417 -547.893125 
L 1253.201087 -544.111445 
L 1254.195697 -540.329765 
L 1255.172556 -536.548086 
L 1256.123136 -532.766406 
L 1257.040542 -528.984726 
L 1257.919913 -525.203046 
L 1258.758741 -521.421367 
L 1259.557069 -517.639687 
L 1260.317547 -513.858007 
L 1261.045335 -510.076328 
L 1261.747838 -506.294648 
L 1262.434286 -502.512968 
L 1263.115156 -498.731288 
L 1263.801477 -494.949609 
L 1264.504044 -491.167929 
L 1265.23258 -487.386249 
L 1265.994897 -483.60457 
L 1266.796113 -479.82289 
L 1267.63796 -476.04121 
L 1268.518258 -472.25953 
L 1269.430561 -468.477851 
L 1270.364047 -464.696171 
L 1271.303635 -460.914491 
L 1272.230362 -457.132812 
L 1273.121995 -453.351132 
L 1273.95386 -449.569452 
L 1274.699851 -445.787772 
L 1275.333564 -442.006093 
L 1275.829503 -438.224413 
L 1276.164287 -434.442733 
L 1276.317799 -430.661054 
L 1276.27421 -426.879374 
L 1276.022823 -423.097694 
L 1275.558682 -419.316014 
L 1274.882932 -415.534335 
L 1274.002889 -411.752655 
L 1272.931832 -407.970975 
L 1271.688521 -404.189296 
L 1270.296479 -400.407616 
L 1268.783067 -396.625936 
L 1267.17841 -392.844257 
L 1265.514226 -389.062577 
L 1263.822623 -385.280897 
L 1262.134914 -381.499217 
L 1260.480521 -377.717538 
L 1258.885998 -373.935858 
L 1257.374225 -370.154178 
L 1255.9638 -366.372499 
L 1254.668644 -362.590819 
L 1253.497824 -358.809139 
L 1252.455591 -355.027459 
L 1251.541622 -351.24578 
L 1250.751425 -347.4641 
L 1250.076902 -343.68242 
L 1249.50701 -339.900741 
L 1249.028497 -336.119061 
L 1248.626671 -332.337381 
L 1248.286156 -328.555701 
L 1247.991622 -324.774022 
L 1247.728427 -320.992342 
L 1247.483178 -317.210662 
L 1247.244175 -313.428983 
L 1247.001729 -309.647303 
L 1246.748357 -305.865623 
L 1246.478849 -302.083943 
L 1246.19022 -298.302264 
L 1245.881561 -294.520584 
L 1245.553806 -290.738904 
L 1245.209433 -286.957225 
L 1244.85213 -283.175545 
L 1244.48644 -279.393865 
L 1244.117407 -275.612185 
L 1243.750248 -271.830506 
L 1243.390053 -268.048826 
L 1243.041542 -264.267146 
L 1242.70887 -260.485467 
L 1242.395488 -256.703787 
L 1242.104069 -252.922107 
L 1241.836472 -249.140428 
L 1241.593767 -245.358748 
L 1241.376284 -241.577068 
L 1241.1837 -237.795388 
L 1241.015142 -234.013709 
z
" style="stroke: #3f3f3f; stroke-width: 1.25"/>
    </defs>
    <g clip-path="url(#p8e48e40fdc)">
     <use xlink:href="#m651eb6acf7" x="0" y="720" style="fill: #3274a1; stroke: #3f3f3f; stroke-width: 1.25"/>
    </g>
   </g>
   <g id="matplotlib.axis_1">
    <g id="xtick_1">
     <g id="line2d_1">
      <defs>
       <path id="mcbab069fda" d="M 0 0 
L 0 3.5 
" style="stroke: #000000; stroke-width: 0.8"/>
      </defs>
      <g>
       <use xlink:href="#mcbab069fda" x="235.8" y="640.8" style="stroke: #000000; stroke-width: 0.8"/>
      </g>
     </g>
     <g id="text_1">
      <!-- 0 -->
      <g transform="translate(232.61875 655.398438) scale(0.1 -0.1)">
       <defs>
        <path id="DejaVuSans-30" d="M 2034 4250 
Q 1547 4250 1301 3770 
Q 1056 3291 1056 2328 
Q 1056 1369 1301 889 
Q 1547 409 2034 409 
Q 2525 409 2770 889 
Q 3016 1369 3016 2328 
Q 3016 3291 2770 3770 
Q 2525 4250 2034 4250 
z
M 2034 4750 
Q 2819 4750 3233 4129 
Q 3647 3509 3647 2328 
Q 3647 1150 3233 529 
Q 2819 -91 2034 -91 
Q 1250 -91 836 529 
Q 422 1150 422 2328 
Q 422 3509 836 4129 
Q 1250 4750 2034 4750 
z
" transform="scale(0.015625)"/>
       </defs>
       <use xlink:href="#DejaVuSans-30"/>
      </g>
     </g>
    </g>
    <g id="xtick_2">
     <g id="line2d_2">
      <g>
       <use xlink:href="#mcbab069fda" x="347.4" y="640.8" style="stroke: #000000; stroke-width: 0.8"/>
      </g>
     </g>
     <g id="text_2">
      <!-- 1 -->
      <g transform="translate(344.21875 655.398438) scale(0.1 -0.1)">
       <defs>
        <path id="DejaVuSans-31" d="M 794 531 
L 1825 531 
L 1825 4091 
L 703 3866 
L 703 4441 
L 1819 4666 
L 2450 4666 
L 2450 531 
L 3481 531 
L 3481 0 
L 794 0 
L 794 531 
z
" transform="scale(0.015625)"/>
       </defs>
       <use xlink:href="#DejaVuSans-31"/>
      </g>
     </g>
    </g>
    <g id="xtick_3">
     <g id="line2d_3">
      <g>
       <use xlink:href="#mcbab069fda" x="459" y="640.8" style="stroke: #000000; stroke-width: 0.8"/>
      </g>
     </g>
     <g id="text_3">
      <!-- 2 -->
      <g transform="translate(455.81875 655.398438) scale(0.1 -0.1)">
       <defs>
        <path id="DejaVuSans-32" d="M 1228 531 
L 3431 531 
L 3431 0 
L 469 0 
L 469 531 
Q 828 903 1448 1529 
Q 2069 2156 2228 2338 
Q 2531 2678 2651 2914 
Q 2772 3150 2772 3378 
Q 2772 3750 2511 3984 
Q 2250 4219 1831 4219 
Q 1534 4219 1204 4116 
Q 875 4013 500 3803 
L 500 4441 
Q 881 4594 1212 4672 
Q 1544 4750 1819 4750 
Q 2544 4750 2975 4387 
Q 3406 4025 3406 3419 
Q 3406 3131 3298 2873 
Q 3191 2616 2906 2266 
Q 2828 2175 2409 1742 
Q 1991 1309 1228 531 
z
" transform="scale(0.015625)"/>
       </defs>
       <use xlink:href="#DejaVuSans-32"/>
      </g>
     </g>
    </g>
    <g id="xtick_4">
     <g id="line2d_4">
      <g>
       <use xlink:href="#mcbab069fda" x="570.6" y="640.8" style="stroke: #000000; stroke-width: 0.8"/>
      </g>
     </g>
     <g id="text_4">
      <!-- 3 -->
      <g transform="translate(567.41875 655.398438) scale(0.1 -0.1)">
       <defs>
        <path id="DejaVuSans-33" d="M 2597 2516 
Q 3050 2419 3304 2112 
Q 3559 1806 3559 1356 
Q 3559 666 3084 287 
Q 2609 -91 1734 -91 
Q 1441 -91 1130 -33 
Q 819 25 488 141 
L 488 750 
Q 750 597 1062 519 
Q 1375 441 1716 441 
Q 2309 441 2620 675 
Q 2931 909 2931 1356 
Q 2931 1769 2642 2001 
Q 2353 2234 1838 2234 
L 1294 2234 
L 1294 2753 
L 1863 2753 
Q 2328 2753 2575 2939 
Q 2822 3125 2822 3475 
Q 2822 3834 2567 4026 
Q 2313 4219 1838 4219 
Q 1578 4219 1281 4162 
Q 984 4106 628 3988 
L 628 4550 
Q 988 4650 1302 4700 
Q 1616 4750 1894 4750 
Q 2613 4750 3031 4423 
Q 3450 4097 3450 3541 
Q 3450 3153 3228 2886 
Q 3006 2619 2597 2516 
z
" transform="scale(0.015625)"/>
       </defs>
       <use xlink:href="#DejaVuSans-33"/>
      </g>
     </g>
    </g>
    <g id="xtick_5">
     <g id="line2d_5">
      <g>
       <use xlink:href="#mcbab069fda" x="682.2" y="640.8" style="stroke: #000000; stroke-width: 0.8"/>
      </g>
     </g>
     <g id="text_5">
      <!-- 4 -->
      <g transform="translate(679.01875 655.398438) scale(0.1 -0.1)">
       <defs>
        <path id="DejaVuSans-34" d="M 2419 4116 
L 825 1625 
L 2419 1625 
L 2419 4116 
z
M 2253 4666 
L 3047 4666 
L 3047 1625 
L 3713 1625 
L 3713 1100 
L 3047 1100 
L 3047 0 
L 2419 0 
L 2419 1100 
L 313 1100 
L 313 1709 
L 2253 4666 
z
" transform="scale(0.015625)"/>
       </defs>
       <use xlink:href="#DejaVuSans-34"/>
      </g>
     </g>
    </g>
    <g id="xtick_6">
     <g id="line2d_6">
      <g>
       <use xlink:href="#mcbab069fda" x="793.8" y="640.8" style="stroke: #000000; stroke-width: 0.8"/>
      </g>
     </g>
     <g id="text_6">
      <!-- 5 -->
      <g transform="translate(790.61875 655.398438) scale(0.1 -0.1)">
       <defs>
        <path id="DejaVuSans-35" d="M 691 4666 
L 3169 4666 
L 3169 4134 
L 1269 4134 
L 1269 2991 
Q 1406 3038 1543 3061 
Q 1681 3084 1819 3084 
Q 2600 3084 3056 2656 
Q 3513 2228 3513 1497 
Q 3513 744 3044 326 
Q 2575 -91 1722 -91 
Q 1428 -91 1123 -41 
Q 819 9 494 109 
L 494 744 
Q 775 591 1075 516 
Q 1375 441 1709 441 
Q 2250 441 2565 725 
Q 2881 1009 2881 1497 
Q 2881 1984 2565 2268 
Q 2250 2553 1709 2553 
Q 1456 2553 1204 2497 
Q 953 2441 691 2322 
L 691 4666 
z
" transform="scale(0.015625)"/>
       </defs>
       <use xlink:href="#DejaVuSans-35"/>
      </g>
     </g>
    </g>
    <g id="xtick_7">
     <g id="line2d_7">
      <g>
       <use xlink:href="#mcbab069fda" x="905.4" y="640.8" style="stroke: #000000; stroke-width: 0.8"/>
      </g>
     </g>
     <g id="text_7">
      <!-- 6 -->
      <g transform="translate(902.21875 655.398438) scale(0.1 -0.1)">
       <defs>
        <path id="DejaVuSans-36" d="M 2113 2584 
Q 1688 2584 1439 2293 
Q 1191 2003 1191 1497 
Q 1191 994 1439 701 
Q 1688 409 2113 409 
Q 2538 409 2786 701 
Q 3034 994 3034 1497 
Q 3034 2003 2786 2293 
Q 2538 2584 2113 2584 
z
M 3366 4563 
L 3366 3988 
Q 3128 4100 2886 4159 
Q 2644 4219 2406 4219 
Q 1781 4219 1451 3797 
Q 1122 3375 1075 2522 
Q 1259 2794 1537 2939 
Q 1816 3084 2150 3084 
Q 2853 3084 3261 2657 
Q 3669 2231 3669 1497 
Q 3669 778 3244 343 
Q 2819 -91 2113 -91 
Q 1303 -91 875 529 
Q 447 1150 447 2328 
Q 447 3434 972 4092 
Q 1497 4750 2381 4750 
Q 2619 4750 2861 4703 
Q 3103 4656 3366 4563 
z
" transform="scale(0.015625)"/>
       </defs>
       <use xlink:href="#DejaVuSans-36"/>
      </g>
     </g>
    </g>
    <g id="xtick_8">
     <g id="line2d_8">
      <g>
       <use xlink:href="#mcbab069fda" x="1017" y="640.8" style="stroke: #000000; stroke-width: 0.8"/>
      </g>
     </g>
     <g id="text_8">
      <!-- 7 -->
      <g transform="translate(1013.81875 655.398438) scale(0.1 -0.1)">
       <defs>
        <path id="DejaVuSans-37" d="M 525 4666 
L 3525 4666 
L 3525 4397 
L 1831 0 
L 1172 0 
L 2766 4134 
L 525 4134 
L 525 4666 
z
" transform="scale(0.015625)"/>
       </defs>
       <use xlink:href="#DejaVuSans-37"/>
      </g>
     </g>
    </g>
    <g id="xtick_9">
     <g id="line2d_9">
      <g>
       <use xlink:href="#mcbab069fda" x="1128.6" y="640.8" style="stroke: #000000; stroke-width: 0.8"/>
      </g>
     </g>
     <g id="text_9">
      <!-- 8 -->
      <g transform="translate(1125.41875 655.398438) scale(0.1 -0.1)">
       <defs>
        <path id="DejaVuSans-38" d="M 2034 2216 
Q 1584 2216 1326 1975 
Q 1069 1734 1069 1313 
Q 1069 891 1326 650 
Q 1584 409 2034 409 
Q 2484 409 2743 651 
Q 3003 894 3003 1313 
Q 3003 1734 2745 1975 
Q 2488 2216 2034 2216 
z
M 1403 2484 
Q 997 2584 770 2862 
Q 544 3141 544 3541 
Q 544 4100 942 4425 
Q 1341 4750 2034 4750 
Q 2731 4750 3128 4425 
Q 3525 4100 3525 3541 
Q 3525 3141 3298 2862 
Q 3072 2584 2669 2484 
Q 3125 2378 3379 2068 
Q 3634 1759 3634 1313 
Q 3634 634 3220 271 
Q 2806 -91 2034 -91 
Q 1263 -91 848 271 
Q 434 634 434 1313 
Q 434 1759 690 2068 
Q 947 2378 1403 2484 
z
M 1172 3481 
Q 1172 3119 1398 2916 
Q 1625 2713 2034 2713 
Q 2441 2713 2670 2916 
Q 2900 3119 2900 3481 
Q 2900 3844 2670 4047 
Q 2441 4250 2034 4250 
Q 1625 4250 1398 4047 
Q 1172 3844 1172 3481 
z
" transform="scale(0.015625)"/>
       </defs>
       <use xlink:href="#DejaVuSans-38"/>
      </g>
     </g>
    </g>
    <g id="xtick_10">
     <g id="line2d_10">
      <g>
       <use xlink:href="#mcbab069fda" x="1240.2" y="640.8" style="stroke: #000000; stroke-width: 0.8"/>
      </g>
     </g>
     <g id="text_10">
      <!-- 9 -->
      <g transform="translate(1237.01875 655.398438) scale(0.1 -0.1)">
       <defs>
        <path id="DejaVuSans-39" d="M 703 97 
L 703 672 
Q 941 559 1184 500 
Q 1428 441 1663 441 
Q 2288 441 2617 861 
Q 2947 1281 2994 2138 
Q 2813 1869 2534 1725 
Q 2256 1581 1919 1581 
Q 1219 1581 811 2004 
Q 403 2428 403 3163 
Q 403 3881 828 4315 
Q 1253 4750 1959 4750 
Q 2769 4750 3195 4129 
Q 3622 3509 3622 2328 
Q 3622 1225 3098 567 
Q 2575 -91 1691 -91 
Q 1453 -91 1209 -44 
Q 966 3 703 97 
z
M 1959 2075 
Q 2384 2075 2632 2365 
Q 2881 2656 2881 3163 
Q 2881 3666 2632 3958 
Q 2384 4250 1959 4250 
Q 1534 4250 1286 3958 
Q 1038 3666 1038 3163 
Q 1038 2656 1286 2365 
Q 1534 2075 1959 2075 
z
" transform="scale(0.015625)"/>
       </defs>
       <use xlink:href="#DejaVuSans-39"/>
      </g>
     </g>
    </g>
    <g id="text_11">
     <!-- iteration -->
     <g transform="translate(716.877344 669.076563) scale(0.1 -0.1)">
      <defs>
       <path id="DejaVuSans-69" d="M 603 3500 
L 1178 3500 
L 1178 0 
L 603 0 
L 603 3500 
z
M 603 4863 
L 1178 4863 
L 1178 4134 
L 603 4134 
L 603 4863 
z
" transform="scale(0.015625)"/>
       <path id="DejaVuSans-74" d="M 1172 4494 
L 1172 3500 
L 2356 3500 
L 2356 3053 
L 1172 3053 
L 1172 1153 
Q 1172 725 1289 603 
Q 1406 481 1766 481 
L 2356 481 
L 2356 0 
L 1766 0 
Q 1100 0 847 248 
Q 594 497 594 1153 
L 594 3053 
L 172 3053 
L 172 3500 
L 594 3500 
L 594 4494 
L 1172 4494 
z
" transform="scale(0.015625)"/>
       <path id="DejaVuSans-65" d="M 3597 1894 
L 3597 1613 
L 953 1613 
Q 991 1019 1311 708 
Q 1631 397 2203 397 
Q 2534 397 2845 478 
Q 3156 559 3463 722 
L 3463 178 
Q 3153 47 2828 -22 
Q 2503 -91 2169 -91 
Q 1331 -91 842 396 
Q 353 884 353 1716 
Q 353 2575 817 3079 
Q 1281 3584 2069 3584 
Q 2775 3584 3186 3129 
Q 3597 2675 3597 1894 
z
M 3022 2063 
Q 3016 2534 2758 2815 
Q 2500 3097 2075 3097 
Q 1594 3097 1305 2825 
Q 1016 2553 972 2059 
L 3022 2063 
z
" transform="scale(0.015625)"/>
       <path id="DejaVuSans-72" d="M 2631 2963 
Q 2534 3019 2420 3045 
Q 2306 3072 2169 3072 
Q 1681 3072 1420 2755 
Q 1159 2438 1159 1844 
L 1159 0 
L 581 0 
L 581 3500 
L 1159 3500 
L 1159 2956 
Q 1341 3275 1631 3429 
Q 1922 3584 2338 3584 
Q 2397 3584 2469 3576 
Q 2541 3569 2628 3553 
L 2631 2963 
z
" transform="scale(0.015625)"/>
       <path id="DejaVuSans-61" d="M 2194 1759 
Q 1497 1759 1228 1600 
Q 959 1441 959 1056 
Q 959 750 1161 570 
Q 1363 391 1709 391 
Q 2188 391 2477 730 
Q 2766 1069 2766 1631 
L 2766 1759 
L 2194 1759 
z
M 3341 1997 
L 3341 0 
L 2766 0 
L 2766 531 
Q 2569 213 2275 61 
Q 1981 -91 1556 -91 
Q 1019 -91 701 211 
Q 384 513 384 1019 
Q 384 1609 779 1909 
Q 1175 2209 1959 2209 
L 2766 2209 
L 2766 2266 
Q 2766 2663 2505 2880 
Q 2244 3097 1772 3097 
Q 1472 3097 1187 3025 
Q 903 2953 641 2809 
L 641 3341 
Q 956 3463 1253 3523 
Q 1550 3584 1831 3584 
Q 2591 3584 2966 3190 
Q 3341 2797 3341 1997 
z
" transform="scale(0.015625)"/>
       <path id="DejaVuSans-6f" d="M 1959 3097 
Q 1497 3097 1228 2736 
Q 959 2375 959 1747 
Q 959 1119 1226 758 
Q 1494 397 1959 397 
Q 2419 397 2687 759 
Q 2956 1122 2956 1747 
Q 2956 2369 2687 2733 
Q 2419 3097 1959 3097 
z
M 1959 3584 
Q 2709 3584 3137 3096 
Q 3566 2609 3566 1747 
Q 3566 888 3137 398 
Q 2709 -91 1959 -91 
Q 1206 -91 779 398 
Q 353 888 353 1747 
Q 353 2609 779 3096 
Q 1206 3584 1959 3584 
z
" transform="scale(0.015625)"/>
       <path id="DejaVuSans-6e" d="M 3513 2113 
L 3513 0 
L 2938 0 
L 2938 2094 
Q 2938 2591 2744 2837 
Q 2550 3084 2163 3084 
Q 1697 3084 1428 2787 
Q 1159 2491 1159 1978 
L 1159 0 
L 581 0 
L 581 3500 
L 1159 3500 
L 1159 2956 
Q 1366 3272 1645 3428 
Q 1925 3584 2291 3584 
Q 2894 3584 3203 3211 
Q 3513 2838 3513 2113 
z
" transform="scale(0.015625)"/>
      </defs>
      <use xlink:href="#DejaVuSans-69"/>
      <use xlink:href="#DejaVuSans-74" x="27.783203"/>
      <use xlink:href="#DejaVuSans-65" x="66.992188"/>
      <use xlink:href="#DejaVuSans-72" x="128.515625"/>
      <use xlink:href="#DejaVuSans-61" x="169.628906"/>
      <use xlink:href="#DejaVuSans-74" x="230.908203"/>
      <use xlink:href="#DejaVuSans-69" x="270.117188"/>
      <use xlink:href="#DejaVuSans-6f" x="297.900391"/>
      <use xlink:href="#DejaVuSans-6e" x="359.082031"/>
     </g>
    </g>
   </g>
   <g id="matplotlib.axis_2">
    <g id="ytick_1">
     <g id="line2d_11">
      <defs>
       <path id="m05f9fde9c1" d="M 0 0 
L -3.5 0 
" style="stroke: #000000; stroke-width: 0.8"/>
      </defs>
      <g>
       <use xlink:href="#m05f9fde9c1" x="180" y="616.352785" style="stroke: #000000; stroke-width: 0.8"/>
      </g>
     </g>
     <g id="text_12">
      <!-- 0.2 -->
      <g transform="translate(148.717187 620.152003) scale(0.1 -0.1)">
       <defs>
        <path id="DejaVuSans-2212" d="M 678 2272 
L 4684 2272 
L 4684 1741 
L 678 1741 
L 678 2272 
z
" transform="scale(0.015625)"/>
        <path id="DejaVuSans-2e" d="M 684 794 
L 1344 794 
L 1344 0 
L 684 0 
L 684 794 
z
" transform="scale(0.015625)"/>
       </defs>
       <use xlink:href="#DejaVuSans-2212"/>
       <use xlink:href="#DejaVuSans-30" x="83.789062"/>
       <use xlink:href="#DejaVuSans-2e" x="147.412109"/>
       <use xlink:href="#DejaVuSans-32" x="179.199219"/>
      </g>
     </g>
    </g>
    <g id="ytick_2">
     <g id="line2d_12">
      <g>
       <use xlink:href="#m05f9fde9c1" x="180" y="541.34512" style="stroke: #000000; stroke-width: 0.8"/>
      </g>
     </g>
     <g id="text_13">
      <!-- 0.0 -->
      <g transform="translate(157.096875 545.144339) scale(0.1 -0.1)">
       <use xlink:href="#DejaVuSans-30"/>
       <use xlink:href="#DejaVuSans-2e" x="63.623047"/>
       <use xlink:href="#DejaVuSans-30" x="95.410156"/>
      </g>
     </g>
    </g>
    <g id="ytick_3">
     <g id="line2d_13">
      <g>
       <use xlink:href="#m05f9fde9c1" x="180" y="466.337455" style="stroke: #000000; stroke-width: 0.8"/>
      </g>
     </g>
     <g id="text_14">
      <!-- 0.2 -->
      <g transform="translate(157.096875 470.136674) scale(0.1 -0.1)">
       <use xlink:href="#DejaVuSans-30"/>
       <use xlink:href="#DejaVuSans-2e" x="63.623047"/>
       <use xlink:href="#DejaVuSans-32" x="95.410156"/>
      </g>
     </g>
    </g>
    <g id="ytick_4">
     <g id="line2d_14">
      <g>
       <use xlink:href="#m05f9fde9c1" x="180" y="391.32979" style="stroke: #000000; stroke-width: 0.8"/>
      </g>
     </g>
     <g id="text_15">
      <!-- 0.4 -->
      <g transform="translate(157.096875 395.129009) scale(0.1 -0.1)">
       <use xlink:href="#DejaVuSans-30"/>
       <use xlink:href="#DejaVuSans-2e" x="63.623047"/>
       <use xlink:href="#DejaVuSans-34" x="95.410156"/>
      </g>
     </g>
    </g>
    <g id="ytick_5">
     <g id="line2d_15">
      <g>
       <use xlink:href="#m05f9fde9c1" x="180" y="316.322126" style="stroke: #000000; stroke-width: 0.8"/>
      </g>
     </g>
     <g id="text_16">
      <!-- 0.6 -->
      <g transform="translate(157.096875 320.121344) scale(0.1 -0.1)">
       <use xlink:href="#DejaVuSans-30"/>
       <use xlink:href="#DejaVuSans-2e" x="63.623047"/>
       <use xlink:href="#DejaVuSans-36" x="95.410156"/>
      </g>
     </g>
    </g>
    <g id="ytick_6">
     <g id="line2d_16">
      <g>
       <use xlink:href="#m05f9fde9c1" x="180" y="241.314461" style="stroke: #000000; stroke-width: 0.8"/>
      </g>
     </g>
     <g id="text_17">
      <!-- 0.8 -->
      <g transform="translate(157.096875 245.11368) scale(0.1 -0.1)">
       <use xlink:href="#DejaVuSans-30"/>
       <use xlink:href="#DejaVuSans-2e" x="63.623047"/>
       <use xlink:href="#DejaVuSans-38" x="95.410156"/>
      </g>
     </g>
    </g>
    <g id="ytick_7">
     <g id="line2d_17">
      <g>
       <use xlink:href="#m05f9fde9c1" x="180" y="166.306796" style="stroke: #000000; stroke-width: 0.8"/>
      </g>
     </g>
     <g id="text_18">
      <!-- 1.0 -->
      <g transform="translate(157.096875 170.106015) scale(0.1 -0.1)">
       <use xlink:href="#DejaVuSans-31"/>
       <use xlink:href="#DejaVuSans-2e" x="63.623047"/>
       <use xlink:href="#DejaVuSans-30" x="95.410156"/>
      </g>
     </g>
    </g>
    <g id="ytick_8">
     <g id="line2d_18">
      <g>
       <use xlink:href="#m05f9fde9c1" x="180" y="91.299131" style="stroke: #000000; stroke-width: 0.8"/>
      </g>
     </g>
     <g id="text_19">
      <!-- 1.2 -->
      <g transform="translate(157.096875 95.09835) scale(0.1 -0.1)">
       <use xlink:href="#DejaVuSans-31"/>
       <use xlink:href="#DejaVuSans-2e" x="63.623047"/>
       <use xlink:href="#DejaVuSans-32" x="95.410156"/>
      </g>
     </g>
    </g>
    <g id="text_20">
     <!-- cosine similarity -->
     <g transform="translate(142.6375 404.307031) rotate(-90) scale(0.1 -0.1)">
      <defs>
       <path id="DejaVuSans-63" d="M 3122 3366 
L 3122 2828 
Q 2878 2963 2633 3030 
Q 2388 3097 2138 3097 
Q 1578 3097 1268 2742 
Q 959 2388 959 1747 
Q 959 1106 1268 751 
Q 1578 397 2138 397 
Q 2388 397 2633 464 
Q 2878 531 3122 666 
L 3122 134 
Q 2881 22 2623 -34 
Q 2366 -91 2075 -91 
Q 1284 -91 818 406 
Q 353 903 353 1747 
Q 353 2603 823 3093 
Q 1294 3584 2113 3584 
Q 2378 3584 2631 3529 
Q 2884 3475 3122 3366 
z
" transform="scale(0.015625)"/>
       <path id="DejaVuSans-73" d="M 2834 3397 
L 2834 2853 
Q 2591 2978 2328 3040 
Q 2066 3103 1784 3103 
Q 1356 3103 1142 2972 
Q 928 2841 928 2578 
Q 928 2378 1081 2264 
Q 1234 2150 1697 2047 
L 1894 2003 
Q 2506 1872 2764 1633 
Q 3022 1394 3022 966 
Q 3022 478 2636 193 
Q 2250 -91 1575 -91 
Q 1294 -91 989 -36 
Q 684 19 347 128 
L 347 722 
Q 666 556 975 473 
Q 1284 391 1588 391 
Q 1994 391 2212 530 
Q 2431 669 2431 922 
Q 2431 1156 2273 1281 
Q 2116 1406 1581 1522 
L 1381 1569 
Q 847 1681 609 1914 
Q 372 2147 372 2553 
Q 372 3047 722 3315 
Q 1072 3584 1716 3584 
Q 2034 3584 2315 3537 
Q 2597 3491 2834 3397 
z
" transform="scale(0.015625)"/>
       <path id="DejaVuSans-20" transform="scale(0.015625)"/>
       <path id="DejaVuSans-6d" d="M 3328 2828 
Q 3544 3216 3844 3400 
Q 4144 3584 4550 3584 
Q 5097 3584 5394 3201 
Q 5691 2819 5691 2113 
L 5691 0 
L 5113 0 
L 5113 2094 
Q 5113 2597 4934 2840 
Q 4756 3084 4391 3084 
Q 3944 3084 3684 2787 
Q 3425 2491 3425 1978 
L 3425 0 
L 2847 0 
L 2847 2094 
Q 2847 2600 2669 2842 
Q 2491 3084 2119 3084 
Q 1678 3084 1418 2786 
Q 1159 2488 1159 1978 
L 1159 0 
L 581 0 
L 581 3500 
L 1159 3500 
L 1159 2956 
Q 1356 3278 1631 3431 
Q 1906 3584 2284 3584 
Q 2666 3584 2933 3390 
Q 3200 3197 3328 2828 
z
" transform="scale(0.015625)"/>
       <path id="DejaVuSans-6c" d="M 603 4863 
L 1178 4863 
L 1178 0 
L 603 0 
L 603 4863 
z
" transform="scale(0.015625)"/>
       <path id="DejaVuSans-79" d="M 2059 -325 
Q 1816 -950 1584 -1140 
Q 1353 -1331 966 -1331 
L 506 -1331 
L 506 -850 
L 844 -850 
Q 1081 -850 1212 -737 
Q 1344 -625 1503 -206 
L 1606 56 
L 191 3500 
L 800 3500 
L 1894 763 
L 2988 3500 
L 3597 3500 
L 2059 -325 
z
" transform="scale(0.015625)"/>
      </defs>
      <use xlink:href="#DejaVuSans-63"/>
      <use xlink:href="#DejaVuSans-6f" x="54.980469"/>
      <use xlink:href="#DejaVuSans-73" x="116.162109"/>
      <use xlink:href="#DejaVuSans-69" x="168.261719"/>
      <use xlink:href="#DejaVuSans-6e" x="196.044922"/>
      <use xlink:href="#DejaVuSans-65" x="259.423828"/>
      <use xlink:href="#DejaVuSans-20" x="320.947266"/>
      <use xlink:href="#DejaVuSans-73" x="352.734375"/>
      <use xlink:href="#DejaVuSans-69" x="404.833984"/>
      <use xlink:href="#DejaVuSans-6d" x="432.617188"/>
      <use xlink:href="#DejaVuSans-69" x="530.029297"/>
      <use xlink:href="#DejaVuSans-6c" x="557.8125"/>
      <use xlink:href="#DejaVuSans-61" x="585.595703"/>
      <use xlink:href="#DejaVuSans-72" x="646.875"/>
      <use xlink:href="#DejaVuSans-69" x="687.988281"/>
      <use xlink:href="#DejaVuSans-74" x="715.771484"/>
      <use xlink:href="#DejaVuSans-79" x="754.980469"/>
     </g>
    </g>
   </g>
   <g id="line2d_19">
    <path d="M 235.8 537.040328 
L 235.8 222.478127 
" clip-path="url(#p8e48e40fdc)" style="fill: none; stroke: #3f3f3f; stroke-width: 1.875; stroke-linecap: square"/>
   </g>
   <g id="line2d_20">
    <path d="M 235.8 421.525852 
L 235.8 321.287292 
" clip-path="url(#p8e48e40fdc)" style="fill: none; stroke: #3f3f3f; stroke-width: 5.625; stroke-linecap: square"/>
   </g>
   <g id="line2d_21">
    <path d="M 235.8 386.998785 
" clip-path="url(#p8e48e40fdc)" style="fill: none; stroke: #3f3f3f; stroke-width: 1.5; stroke-linecap: square"/>
    <defs>
     <path id="m802661c90f" d="M 2.34375 0 
L -2.34375 -0 
" style="stroke: #ffffff; stroke-width: 1.125"/>
    </defs>
    <g clip-path="url(#p8e48e40fdc)">
     <use xlink:href="#m802661c90f" x="235.8" y="386.998785" style="fill: #ffffff; stroke: #ffffff; stroke-width: 1.125"/>
    </g>
   </g>
   <g id="line2d_22">
    <path d="M 347.4 491.181288 
L 347.4 244.668969 
" clip-path="url(#p8e48e40fdc)" style="fill: none; stroke: #3f3f3f; stroke-width: 1.875; stroke-linecap: square"/>
   </g>
   <g id="line2d_23">
    <path d="M 347.4 396.238498 
L 347.4 314.591602 
" clip-path="url(#p8e48e40fdc)" style="fill: none; stroke: #3f3f3f; stroke-width: 5.625; stroke-linecap: square"/>
   </g>
   <g id="line2d_24">
    <path d="M 347.4 348.059536 
" clip-path="url(#p8e48e40fdc)" style="fill: none; stroke: #3f3f3f; stroke-width: 1.5; stroke-linecap: square"/>
    <g clip-path="url(#p8e48e40fdc)">
     <use xlink:href="#m802661c90f" x="347.4" y="348.059536" style="fill: #ffffff; stroke: #ffffff; stroke-width: 1.125"/>
    </g>
   </g>
   <g id="line2d_25">
    <path d="M 459 541.913364 
L 459 199.233874 
" clip-path="url(#p8e48e40fdc)" style="fill: none; stroke: #3f3f3f; stroke-width: 1.875; stroke-linecap: square"/>
   </g>
   <g id="line2d_26">
    <path d="M 459 409.209259 
L 459 299.802503 
" clip-path="url(#p8e48e40fdc)" style="fill: none; stroke: #3f3f3f; stroke-width: 5.625; stroke-linecap: square"/>
   </g>
   <g id="line2d_27">
    <path d="M 459 353.298638 
" clip-path="url(#p8e48e40fdc)" style="fill: none; stroke: #3f3f3f; stroke-width: 1.5; stroke-linecap: square"/>
    <g clip-path="url(#p8e48e40fdc)">
     <use xlink:href="#m802661c90f" x="459" y="353.298638" style="fill: #ffffff; stroke: #ffffff; stroke-width: 1.125"/>
    </g>
   </g>
   <g id="line2d_28">
    <path d="M 570.6 460.034507 
L 570.6 230.298415 
" clip-path="url(#p8e48e40fdc)" style="fill: none; stroke: #3f3f3f; stroke-width: 1.875; stroke-linecap: square"/>
   </g>
   <g id="line2d_29">
    <path d="M 570.6 379.971003 
L 570.6 281.270825 
" clip-path="url(#p8e48e40fdc)" style="fill: none; stroke: #3f3f3f; stroke-width: 5.625; stroke-linecap: square"/>
   </g>
   <g id="line2d_30">
    <path d="M 570.6 337.323568 
" clip-path="url(#p8e48e40fdc)" style="fill: none; stroke: #3f3f3f; stroke-width: 1.5; stroke-linecap: square"/>
    <g clip-path="url(#p8e48e40fdc)">
     <use xlink:href="#m802661c90f" x="570.6" y="337.323568" style="fill: #ffffff; stroke: #ffffff; stroke-width: 1.125"/>
    </g>
   </g>
   <g id="line2d_31">
    <path d="M 682.2 456.610452 
L 682.2 219.924358 
" clip-path="url(#p8e48e40fdc)" style="fill: none; stroke: #3f3f3f; stroke-width: 1.875; stroke-linecap: square"/>
   </g>
   <g id="line2d_32">
    <path d="M 682.2 378.457748 
L 682.2 303.583049 
" clip-path="url(#p8e48e40fdc)" style="fill: none; stroke: #3f3f3f; stroke-width: 5.625; stroke-linecap: square"/>
   </g>
   <g id="line2d_33">
    <path d="M 682.2 346.211841 
" clip-path="url(#p8e48e40fdc)" style="fill: none; stroke: #3f3f3f; stroke-width: 1.5; stroke-linecap: square"/>
    <g clip-path="url(#p8e48e40fdc)">
     <use xlink:href="#m802661c90f" x="682.2" y="346.211841" style="fill: #ffffff; stroke: #ffffff; stroke-width: 1.125"/>
    </g>
   </g>
   <g id="line2d_34">
    <path d="M 793.8 372.898122 
L 793.8 235.616706 
" clip-path="url(#p8e48e40fdc)" style="fill: none; stroke: #3f3f3f; stroke-width: 1.875; stroke-linecap: square"/>
   </g>
   <g id="line2d_35">
    <path d="M 793.8 346.720731 
L 793.8 291.775619 
" clip-path="url(#p8e48e40fdc)" style="fill: none; stroke: #3f3f3f; stroke-width: 5.625; stroke-linecap: square"/>
   </g>
   <g id="line2d_36">
    <path d="M 793.8 323.786662 
" clip-path="url(#p8e48e40fdc)" style="fill: none; stroke: #3f3f3f; stroke-width: 1.5; stroke-linecap: square"/>
    <g clip-path="url(#p8e48e40fdc)">
     <use xlink:href="#m802661c90f" x="793.8" y="323.786662" style="fill: #ffffff; stroke: #ffffff; stroke-width: 1.125"/>
    </g>
   </g>
   <g id="line2d_37">
    <path d="M 905.4 378.903844 
L 905.4 193.147275 
" clip-path="url(#p8e48e40fdc)" style="fill: none; stroke: #3f3f3f; stroke-width: 1.875; stroke-linecap: square"/>
   </g>
   <g id="line2d_38">
    <path d="M 905.4 332.149957 
L 905.4 267.896691 
" clip-path="url(#p8e48e40fdc)" style="fill: none; stroke: #3f3f3f; stroke-width: 5.625; stroke-linecap: square"/>
   </g>
   <g id="line2d_39">
    <path d="M 905.4 308.961059 
" clip-path="url(#p8e48e40fdc)" style="fill: none; stroke: #3f3f3f; stroke-width: 1.5; stroke-linecap: square"/>
    <g clip-path="url(#p8e48e40fdc)">
     <use xlink:href="#m802661c90f" x="905.4" y="308.961059" style="fill: #ffffff; stroke: #ffffff; stroke-width: 1.125"/>
    </g>
   </g>
   <g id="line2d_40">
    <path d="M 1017 409.487505 
L 1017 221.499244 
" clip-path="url(#p8e48e40fdc)" style="fill: none; stroke: #3f3f3f; stroke-width: 1.875; stroke-linecap: square"/>
   </g>
   <g id="line2d_41">
    <path d="M 1017 366.39129 
L 1017 293.460967 
" clip-path="url(#p8e48e40fdc)" style="fill: none; stroke: #3f3f3f; stroke-width: 5.625; stroke-linecap: square"/>
   </g>
   <g id="line2d_42">
    <path d="M 1017 318.424379 
" clip-path="url(#p8e48e40fdc)" style="fill: none; stroke: #3f3f3f; stroke-width: 1.5; stroke-linecap: square"/>
    <g clip-path="url(#p8e48e40fdc)">
     <use xlink:href="#m802661c90f" x="1017" y="318.424379" style="fill: #ffffff; stroke: #ffffff; stroke-width: 1.125"/>
    </g>
   </g>
   <g id="line2d_43">
    <path d="M 1128.6 483.287853 
L 1128.6 210.142549 
" clip-path="url(#p8e48e40fdc)" style="fill: none; stroke: #3f3f3f; stroke-width: 1.875; stroke-linecap: square"/>
   </g>
   <g id="line2d_44">
    <path d="M 1128.6 389.212499 
L 1128.6 267.33376 
" clip-path="url(#p8e48e40fdc)" style="fill: none; stroke: #3f3f3f; stroke-width: 5.625; stroke-linecap: square"/>
   </g>
   <g id="line2d_45">
    <path d="M 1128.6 350.288724 
" clip-path="url(#p8e48e40fdc)" style="fill: none; stroke: #3f3f3f; stroke-width: 1.5; stroke-linecap: square"/>
    <g clip-path="url(#p8e48e40fdc)">
     <use xlink:href="#m802661c90f" x="1128.6" y="350.288724" style="fill: #ffffff; stroke: #ffffff; stroke-width: 1.125"/>
    </g>
   </g>
   <g id="line2d_46">
    <path d="M 1240.2 407.319779 
L 1240.2 190.266512 
" clip-path="url(#p8e48e40fdc)" style="fill: none; stroke: #3f3f3f; stroke-width: 1.875; stroke-linecap: square"/>
   </g>
   <g id="line2d_47">
    <path d="M 1240.2 309.521441 
L 1240.2 239.29453 
" clip-path="url(#p8e48e40fdc)" style="fill: none; stroke: #3f3f3f; stroke-width: 5.625; stroke-linecap: square"/>
   </g>
   <g id="line2d_48">
    <path d="M 1240.2 288.107368 
" clip-path="url(#p8e48e40fdc)" style="fill: none; stroke: #3f3f3f; stroke-width: 1.5; stroke-linecap: square"/>
    <g clip-path="url(#p8e48e40fdc)">
     <use xlink:href="#m802661c90f" x="1240.2" y="288.107368" style="fill: #ffffff; stroke: #ffffff; stroke-width: 1.125"/>
    </g>
   </g>
   <g id="patch_3">
    <path d="M 180 640.8 
L 180 86.4 
" style="fill: none; stroke: #000000; stroke-width: 0.8; stroke-linejoin: miter; stroke-linecap: square"/>
   </g>
   <g id="patch_4">
    <path d="M 1296 640.8 
L 1296 86.4 
" style="fill: none; stroke: #000000; stroke-width: 0.8; stroke-linejoin: miter; stroke-linecap: square"/>
   </g>
   <g id="patch_5">
    <path d="M 180 640.8 
L 1296 640.8 
" style="fill: none; stroke: #000000; stroke-width: 0.8; stroke-linejoin: miter; stroke-linecap: square"/>
   </g>
   <g id="patch_6">
    <path d="M 180 86.4 
L 1296 86.4 
" style="fill: none; stroke: #000000; stroke-width: 0.8; stroke-linejoin: miter; stroke-linecap: square"/>
   </g>
   <g id="text_21">
    <!-- cosine similarity of max_fs (progressive), by iteration -->
    <g transform="translate(578.421562 80.4) scale(0.12 -0.12)">
     <defs>
      <path id="DejaVuSans-66" d="M 2375 4863 
L 2375 4384 
L 1825 4384 
Q 1516 4384 1395 4259 
Q 1275 4134 1275 3809 
L 1275 3500 
L 2222 3500 
L 2222 3053 
L 1275 3053 
L 1275 0 
L 697 0 
L 697 3053 
L 147 3053 
L 147 3500 
L 697 3500 
L 697 3744 
Q 697 4328 969 4595 
Q 1241 4863 1831 4863 
L 2375 4863 
z
" transform="scale(0.015625)"/>
      <path id="DejaVuSans-78" d="M 3513 3500 
L 2247 1797 
L 3578 0 
L 2900 0 
L 1881 1375 
L 863 0 
L 184 0 
L 1544 1831 
L 300 3500 
L 978 3500 
L 1906 2253 
L 2834 3500 
L 3513 3500 
z
" transform="scale(0.015625)"/>
      <path id="DejaVuSans-5f" d="M 3263 -1063 
L 3263 -1509 
L -63 -1509 
L -63 -1063 
L 3263 -1063 
z
" transform="scale(0.015625)"/>
      <path id="DejaVuSans-28" d="M 1984 4856 
Q 1566 4138 1362 3434 
Q 1159 2731 1159 2009 
Q 1159 1288 1364 580 
Q 1569 -128 1984 -844 
L 1484 -844 
Q 1016 -109 783 600 
Q 550 1309 550 2009 
Q 550 2706 781 3412 
Q 1013 4119 1484 4856 
L 1984 4856 
z
" transform="scale(0.015625)"/>
      <path id="DejaVuSans-70" d="M 1159 525 
L 1159 -1331 
L 581 -1331 
L 581 3500 
L 1159 3500 
L 1159 2969 
Q 1341 3281 1617 3432 
Q 1894 3584 2278 3584 
Q 2916 3584 3314 3078 
Q 3713 2572 3713 1747 
Q 3713 922 3314 415 
Q 2916 -91 2278 -91 
Q 1894 -91 1617 61 
Q 1341 213 1159 525 
z
M 3116 1747 
Q 3116 2381 2855 2742 
Q 2594 3103 2138 3103 
Q 1681 3103 1420 2742 
Q 1159 2381 1159 1747 
Q 1159 1113 1420 752 
Q 1681 391 2138 391 
Q 2594 391 2855 752 
Q 3116 1113 3116 1747 
z
" transform="scale(0.015625)"/>
      <path id="DejaVuSans-67" d="M 2906 1791 
Q 2906 2416 2648 2759 
Q 2391 3103 1925 3103 
Q 1463 3103 1205 2759 
Q 947 2416 947 1791 
Q 947 1169 1205 825 
Q 1463 481 1925 481 
Q 2391 481 2648 825 
Q 2906 1169 2906 1791 
z
M 3481 434 
Q 3481 -459 3084 -895 
Q 2688 -1331 1869 -1331 
Q 1566 -1331 1297 -1286 
Q 1028 -1241 775 -1147 
L 775 -588 
Q 1028 -725 1275 -790 
Q 1522 -856 1778 -856 
Q 2344 -856 2625 -561 
Q 2906 -266 2906 331 
L 2906 616 
Q 2728 306 2450 153 
Q 2172 0 1784 0 
Q 1141 0 747 490 
Q 353 981 353 1791 
Q 353 2603 747 3093 
Q 1141 3584 1784 3584 
Q 2172 3584 2450 3431 
Q 2728 3278 2906 2969 
L 2906 3500 
L 3481 3500 
L 3481 434 
z
" transform="scale(0.015625)"/>
      <path id="DejaVuSans-76" d="M 191 3500 
L 800 3500 
L 1894 563 
L 2988 3500 
L 3597 3500 
L 2284 0 
L 1503 0 
L 191 3500 
z
" transform="scale(0.015625)"/>
      <path id="DejaVuSans-29" d="M 513 4856 
L 1013 4856 
Q 1481 4119 1714 3412 
Q 1947 2706 1947 2009 
Q 1947 1309 1714 600 
Q 1481 -109 1013 -844 
L 513 -844 
Q 928 -128 1133 580 
Q 1338 1288 1338 2009 
Q 1338 2731 1133 3434 
Q 928 4138 513 4856 
z
" transform="scale(0.015625)"/>
      <path id="DejaVuSans-2c" d="M 750 794 
L 1409 794 
L 1409 256 
L 897 -744 
L 494 -744 
L 750 256 
L 750 794 
z
" transform="scale(0.015625)"/>
      <path id="DejaVuSans-62" d="M 3116 1747 
Q 3116 2381 2855 2742 
Q 2594 3103 2138 3103 
Q 1681 3103 1420 2742 
Q 1159 2381 1159 1747 
Q 1159 1113 1420 752 
Q 1681 391 2138 391 
Q 2594 391 2855 752 
Q 3116 1113 3116 1747 
z
M 1159 2969 
Q 1341 3281 1617 3432 
Q 1894 3584 2278 3584 
Q 2916 3584 3314 3078 
Q 3713 2572 3713 1747 
Q 3713 922 3314 415 
Q 2916 -91 2278 -91 
Q 1894 -91 1617 61 
Q 1341 213 1159 525 
L 1159 0 
L 581 0 
L 581 4863 
L 1159 4863 
L 1159 2969 
z
" transform="scale(0.015625)"/>
     </defs>
     <use xlink:href="#DejaVuSans-63"/>
     <use xlink:href="#DejaVuSans-6f" x="54.980469"/>
     <use xlink:href="#DejaVuSans-73" x="116.162109"/>
     <use xlink:href="#DejaVuSans-69" x="168.261719"/>
     <use xlink:href="#DejaVuSans-6e" x="196.044922"/>
     <use xlink:href="#DejaVuSans-65" x="259.423828"/>
     <use xlink:href="#DejaVuSans-20" x="320.947266"/>
     <use xlink:href="#DejaVuSans-73" x="352.734375"/>
     <use xlink:href="#DejaVuSans-69" x="404.833984"/>
     <use xlink:href="#DejaVuSans-6d" x="432.617188"/>
     <use xlink:href="#DejaVuSans-69" x="530.029297"/>
     <use xlink:href="#DejaVuSans-6c" x="557.8125"/>
     <use xlink:href="#DejaVuSans-61" x="585.595703"/>
     <use xlink:href="#DejaVuSans-72" x="646.875"/>
     <use xlink:href="#DejaVuSans-69" x="687.988281"/>
     <use xlink:href="#DejaVuSans-74" x="715.771484"/>
     <use xlink:href="#DejaVuSans-79" x="754.980469"/>
     <use xlink:href="#DejaVuSans-20" x="814.160156"/>
     <use xlink:href="#DejaVuSans-6f" x="845.947266"/>
     <use xlink:href="#DejaVuSans-66" x="907.128906"/>
     <use xlink:href="#DejaVuSans-20" x="942.333984"/>
     <use xlink:href="#DejaVuSans-6d" x="974.121094"/>
     <use xlink:href="#DejaVuSans-61" x="1071.533203"/>
     <use xlink:href="#DejaVuSans-78" x="1132.8125"/>
     <use xlink:href="#DejaVuSans-5f" x="1191.992188"/>
     <use xlink:href="#DejaVuSans-66" x="1241.992188"/>
     <use xlink:href="#DejaVuSans-73" x="1277.197266"/>
     <use xlink:href="#DejaVuSans-20" x="1329.296875"/>
     <use xlink:href="#DejaVuSans-28" x="1361.083984"/>
     <use xlink:href="#DejaVuSans-70" x="1400.097656"/>
     <use xlink:href="#DejaVuSans-72" x="1463.574219"/>
     <use xlink:href="#DejaVuSans-6f" x="1502.4375"/>
     <use xlink:href="#DejaVuSans-67" x="1563.619141"/>
     <use xlink:href="#DejaVuSans-72" x="1627.095703"/>
     <use xlink:href="#DejaVuSans-65" x="1665.958984"/>
     <use xlink:href="#DejaVuSans-73" x="1727.482422"/>
     <use xlink:href="#DejaVuSans-73" x="1779.582031"/>
     <use xlink:href="#DejaVuSans-69" x="1831.681641"/>
     <use xlink:href="#DejaVuSans-76" x="1859.464844"/>
     <use xlink:href="#DejaVuSans-65" x="1918.644531"/>
     <use xlink:href="#DejaVuSans-29" x="1980.167969"/>
     <use xlink:href="#DejaVuSans-2c" x="2019.181641"/>
     <use xlink:href="#DejaVuSans-20" x="2050.96875"/>
     <use xlink:href="#DejaVuSans-62" x="2082.755859"/>
     <use xlink:href="#DejaVuSans-79" x="2146.232422"/>
     <use xlink:href="#DejaVuSans-20" x="2205.412109"/>
     <use xlink:href="#DejaVuSans-69" x="2237.199219"/>
     <use xlink:href="#DejaVuSans-74" x="2264.982422"/>
     <use xlink:href="#DejaVuSans-65" x="2304.191406"/>
     <use xlink:href="#DejaVuSans-72" x="2365.714844"/>
     <use xlink:href="#DejaVuSans-61" x="2406.828125"/>
     <use xlink:href="#DejaVuSans-74" x="2468.107422"/>
     <use xlink:href="#DejaVuSans-69" x="2507.316406"/>
     <use xlink:href="#DejaVuSans-6f" x="2535.099609"/>
     <use xlink:href="#DejaVuSans-6e" x="2596.28125"/>
    </g>
   </g>
  </g>
 </g>
 <defs>
  <clipPath id="p8e48e40fdc">
   <rect x="180" y="86.4" width="1116" height="554.4"/>
  </clipPath>
 </defs>
</svg>
