<?xml version="1.0" encoding="utf-8" standalone="no"?>
<!DOCTYPE svg PUBLIC "-//W3C//DTD SVG 1.1//EN"
  "http://www.w3.org/Graphics/SVG/1.1/DTD/svg11.dtd">
<svg xmlns:xlink="http://www.w3.org/1999/xlink" width="1440pt" height="720pt" viewBox="0 0 1440 720" xmlns="http://www.w3.org/2000/svg" version="1.1">
 <metadata>
  <rdf:RDF xmlns:dc="http://purl.org/dc/elements/1.1/" xmlns:cc="http://creativecommons.org/ns#" xmlns:rdf="http://www.w3.org/1999/02/22-rdf-syntax-ns#">
   <cc:Work>
    <dc:type rdf:resource="http://purl.org/dc/dcmitype/StillImage"/>
    <dc:date>2024-07-26T17:29:06.407875</dc:date>
    <dc:format>image/svg+xml</dc:format>
    <dc:creator>
     <cc:Agent>
      <dc:title>Matplotlib v3.8.0, https://matplotlib.org/</dc:title>
     </cc:Agent>
    </dc:creator>
   </cc:Work>
  </rdf:RDF>
 </metadata>
 <defs>
  <style type="text/css">*{stroke-linejoin: round; stroke-linecap: butt}</style>
 </defs>
 <g id="figure_1">
  <g id="patch_1">
   <path d="M 0 720 
L 1440 720 
L 1440 0 
L 0 0 
z
" style="fill: #ffffff"/>
  </g>
  <g id="axes_1">
   <g id="patch_2">
    <path d="M 180 640.8 
L 1296 640.8 
L 1296 86.4 
L 180 86.4 
z
" style="fill: #ffffff"/>
   </g>
   <g id="PolyCollection_1">
    <defs>
     <path id="mf3ddc41ebd" d="M 319.8703 -148.879195 
L 319.1297 -148.879195 
L 318.785642 -153.52082 
L 318.18733 -158.162444 
L 317.202309 -162.804068 
L 315.668222 -167.445692 
L 313.409602 -172.087317 
L 310.267607 -176.728941 
L 306.138563 -181.370565 
L 301.01112 -186.01219 
L 294.98816 -190.653814 
L 288.281604 -195.295438 
L 281.177037 -199.937063 
L 273.977688 -204.578687 
L 266.947284 -209.220311 
L 260.272116 -213.861935 
L 254.052487 -218.50356 
L 248.318006 -223.145184 
L 243.049814 -227.786808 
L 238.193999 -232.428433 
L 233.663762 -237.070057 
L 229.34377 -241.711681 
L 225.11593 -246.353305 
L 220.914822 -250.99493 
L 216.798467 -255.636554 
L 213.000277 -260.278178 
L 209.925268 -264.919803 
L 208.072717 -269.561427 
L 207.9 -274.203051 
L 209.671867 -278.844675 
L 213.350498 -283.4863 
L 218.568685 -288.127924 
L 224.697715 -292.769548 
L 230.987515 -297.411173 
L 236.733748 -302.052797 
L 241.422717 -306.694421 
L 244.818221 -311.336045 
L 246.976444 -315.97767 
L 248.195973 -320.619294 
L 248.923928 -325.260918 
L 249.644759 -329.902543 
L 250.777131 -334.544167 
L 252.598602 -339.185791 
L 255.209118 -343.827415 
L 258.534461 -348.46904 
L 262.362006 -353.110664 
L 266.396075 -357.752288 
L 270.319536 -362.393913 
L 273.851067 -367.035537 
L 276.790893 -371.677161 
L 279.049992 -376.318786 
L 280.658671 -380.96041 
L 281.751925 -385.602034 
L 282.532761 -390.243658 
L 283.220704 -394.885283 
L 283.998562 -399.526907 
L 284.972799 -404.168531 
L 286.159308 -408.810156 
L 287.497656 -413.45178 
L 288.88653 -418.093404 
L 290.225776 -422.735028 
L 291.449384 -427.376653 
L 292.539145 -432.018277 
L 293.517717 -436.659901 
L 294.428201 -441.301526 
L 295.311654 -445.94315 
L 296.192928 -450.584774 
L 297.079934 -455.226398 
L 297.974538 -459.868023 
L 298.887797 -464.509647 
L 299.850409 -469.151271 
L 300.911812 -473.792896 
L 302.127001 -478.43452 
L 303.536313 -483.076144 
L 305.146948 -487.717768 
L 306.924217 -492.359393 
L 308.796012 -497.001017 
L 310.668178 -501.642641 
L 312.44445 -506.284266 
L 314.043921 -510.92589 
L 315.411376 -515.567514 
L 316.51945 -520.209138 
L 317.364576 -524.850763 
L 317.960064 -529.492387 
L 318.329489 -534.134011 
L 318.502397 -538.775636 
L 318.512868 -543.41726 
L 318.400087 -548.058884 
L 318.209107 -552.700509 
L 317.989794 -557.342133 
L 317.792696 -561.983757 
L 317.662106 -566.625381 
L 317.628296 -571.267006 
L 317.701797 -575.90863 
L 317.872213 -580.550254 
L 318.112333 -585.191879 
L 318.386215 -589.833503 
L 318.658408 -594.475127 
L 318.901359 -599.116751 
L 319.099145 -603.758376 
L 319.247327 -608.4 
L 319.752673 -608.4 
L 319.752673 -608.4 
L 319.900855 -603.758376 
L 320.098641 -599.116751 
L 320.341592 -594.475127 
L 320.613785 -589.833503 
L 320.887667 -585.191879 
L 321.127787 -580.550254 
L 321.298203 -575.90863 
L 321.371704 -571.267006 
L 321.337894 -566.625381 
L 321.207304 -561.983757 
L 321.010206 -557.342133 
L 320.790893 -552.700509 
L 320.599913 -548.058884 
L 320.487132 -543.41726 
L 320.497603 -538.775636 
L 320.670511 -534.134011 
L 321.039936 -529.492387 
L 321.635424 -524.850763 
L 322.48055 -520.209138 
L 323.588624 -515.567514 
L 324.956079 -510.92589 
L 326.55555 -506.284266 
L 328.331822 -501.642641 
L 330.203988 -497.001017 
L 332.075783 -492.359393 
L 333.853052 -487.717768 
L 335.463687 -483.076144 
L 336.872999 -478.43452 
L 338.088188 -473.792896 
L 339.149591 -469.151271 
L 340.112203 -464.509647 
L 341.025462 -459.868023 
L 341.920066 -455.226398 
L 342.807072 -450.584774 
L 343.688346 -445.94315 
L 344.571799 -441.301526 
L 345.482283 -436.659901 
L 346.460855 -432.018277 
L 347.550616 -427.376653 
L 348.774224 -422.735028 
L 350.11347 -418.093404 
L 351.502344 -413.45178 
L 352.840692 -408.810156 
L 354.027201 -404.168531 
L 355.001438 -399.526907 
L 355.779296 -394.885283 
L 356.467239 -390.243658 
L 357.248075 -385.602034 
L 358.341329 -380.96041 
L 359.950008 -376.318786 
L 362.209107 -371.677161 
L 365.148933 -367.035537 
L 368.680464 -362.393913 
L 372.603925 -357.752288 
L 376.637994 -353.110664 
L 380.465539 -348.46904 
L 383.790882 -343.827415 
L 386.401398 -339.185791 
L 388.222869 -334.544167 
L 389.355241 -329.902543 
L 390.076072 -325.260918 
L 390.804027 -320.619294 
L 392.023556 -315.97767 
L 394.181779 -311.336045 
L 397.577283 -306.694421 
L 402.266252 -302.052797 
L 408.012485 -297.411173 
L 414.302285 -292.769548 
L 420.431315 -288.127924 
L 425.649502 -283.4863 
L 429.328133 -278.844675 
L 431.1 -274.203051 
L 430.927283 -269.561427 
L 429.074732 -264.919803 
L 425.999723 -260.278178 
L 422.201533 -255.636554 
L 418.085178 -250.99493 
L 413.88407 -246.353305 
L 409.65623 -241.711681 
L 405.336238 -237.070057 
L 400.806001 -232.428433 
L 395.950186 -227.786808 
L 390.681994 -223.145184 
L 384.947513 -218.50356 
L 378.727884 -213.861935 
L 372.052716 -209.220311 
L 365.022312 -204.578687 
L 357.822963 -199.937063 
L 350.718396 -195.295438 
L 344.01184 -190.653814 
L 337.98888 -186.01219 
L 332.861437 -181.370565 
L 328.732393 -176.728941 
L 325.590398 -172.087317 
L 323.331778 -167.445692 
L 321.797691 -162.804068 
L 320.81267 -158.162444 
L 320.214358 -153.52082 
L 319.8703 -148.879195 
z
" style="stroke: #3f3f3f; stroke-width: 1.25"/>
    </defs>
    <g clip-path="url(#p082544a831)">
     <use xlink:href="#mf3ddc41ebd" x="0" y="720" style="fill: #3274a1; stroke: #3f3f3f; stroke-width: 1.25"/>
    </g>
   </g>
   <g id="PolyCollection_2">
    <defs>
     <path id="mcce5e9cdc5" d="M 599.320045 -147.418995 
L 597.679955 -147.418995 
L 597.01624 -152.035406 
L 595.966073 -156.651817 
L 594.401005 -161.268228 
L 592.19472 -165.884638 
L 589.239629 -170.501049 
L 585.463148 -175.11746 
L 580.841513 -179.733871 
L 575.40847 -184.350281 
L 569.254425 -188.966692 
L 562.511457 -193.583103 
L 555.32499 -198.199514 
L 547.823673 -202.815924 
L 540.107588 -207.432335 
L 532.270299 -212.048746 
L 524.449179 -216.665157 
L 516.872597 -221.281568 
L 509.86301 -225.897978 
L 503.775149 -230.514389 
L 498.889636 -235.1308 
L 495.316813 -239.747211 
L 492.96665 -244.363621 
L 491.604504 -248.980032 
L 490.962365 -253.596443 
L 490.844521 -258.212854 
L 491.174517 -262.829264 
L 491.969069 -267.445675 
L 493.266869 -272.062086 
L 495.059953 -276.678497 
L 497.264545 -281.294907 
L 499.739154 -285.911318 
L 502.330899 -290.527729 
L 504.921103 -295.14414 
L 507.449466 -299.760551 
L 509.913133 -304.376961 
L 512.350509 -308.993372 
L 514.82285 -313.609783 
L 517.400878 -318.226194 
L 520.155453 -322.842604 
L 523.14709 -327.459015 
L 526.410583 -332.075426 
L 529.936142 -336.691837 
L 533.654273 -341.308247 
L 537.435197 -345.924658 
L 541.111665 -350.541069 
L 544.524393 -355.15748 
L 547.574884 -359.77389 
L 550.260474 -364.390301 
L 552.671003 -369.006712 
L 554.945896 -373.623123 
L 557.212664 -378.239534 
L 559.536952 -382.855944 
L 561.904956 -387.472355 
L 564.239955 -392.088766 
L 566.440088 -396.705177 
L 568.420958 -401.321587 
L 570.150199 -405.937998 
L 571.664775 -410.554409 
L 573.064344 -415.17082 
L 574.479404 -419.78723 
L 576.023024 -424.403641 
L 577.744931 -429.020052 
L 579.60863 -433.636463 
L 581.502938 -438.252873 
L 583.283638 -442.869284 
L 584.827718 -447.485695 
L 586.078177 -452.102106 
L 587.06235 -456.718517 
L 587.877785 -461.334927 
L 588.652339 -465.951338 
L 589.495028 -470.567749 
L 590.45735 -475.18416 
L 591.519721 -479.80057 
L 592.60623 -484.416981 
L 593.618811 -489.033392 
L 594.475102 -493.649803 
L 595.135162 -498.266213 
L 595.609108 -502.882624 
L 595.946196 -507.499035 
L 596.212401 -512.115446 
L 596.466241 -516.731856 
L 596.741619 -521.348267 
L 597.042482 -525.964678 
L 597.348928 -530.581089 
L 597.630126 -535.197499 
L 597.857844 -539.81391 
L 598.015737 -544.430321 
L 598.102622 -549.046732 
L 598.130649 -553.663143 
L 598.120527 -558.279553 
L 598.095764 -562.895964 
L 598.077278 -567.512375 
L 598.079285 -572.128786 
L 598.107234 -576.745196 
L 598.158191 -581.361607 
L 598.223428 -585.978018 
L 598.292151 -590.594429 
L 598.354985 -595.210839 
L 598.406086 -599.82725 
L 598.443549 -604.443661 
L 598.556451 -604.443661 
L 598.556451 -604.443661 
L 598.593914 -599.82725 
L 598.645015 -595.210839 
L 598.707849 -590.594429 
L 598.776572 -585.978018 
L 598.841809 -581.361607 
L 598.892766 -576.745196 
L 598.920715 -572.128786 
L 598.922722 -567.512375 
L 598.904236 -562.895964 
L 598.879473 -558.279553 
L 598.869351 -553.663143 
L 598.897378 -549.046732 
L 598.984263 -544.430321 
L 599.142156 -539.81391 
L 599.369874 -535.197499 
L 599.651072 -530.581089 
L 599.957518 -525.964678 
L 600.258381 -521.348267 
L 600.533759 -516.731856 
L 600.787599 -512.115446 
L 601.053804 -507.499035 
L 601.390892 -502.882624 
L 601.864838 -498.266213 
L 602.524898 -493.649803 
L 603.381189 -489.033392 
L 604.39377 -484.416981 
L 605.480279 -479.80057 
L 606.54265 -475.18416 
L 607.504972 -470.567749 
L 608.347661 -465.951338 
L 609.122215 -461.334927 
L 609.93765 -456.718517 
L 610.921823 -452.102106 
L 612.172282 -447.485695 
L 613.716362 -442.869284 
L 615.497062 -438.252873 
L 617.39137 -433.636463 
L 619.255069 -429.020052 
L 620.976976 -424.403641 
L 622.520596 -419.78723 
L 623.935656 -415.17082 
L 625.335225 -410.554409 
L 626.849801 -405.937998 
L 628.579042 -401.321587 
L 630.559912 -396.705177 
L 632.760045 -392.088766 
L 635.095044 -387.472355 
L 637.463048 -382.855944 
L 639.787336 -378.239534 
L 642.054104 -373.623123 
L 644.328997 -369.006712 
L 646.739526 -364.390301 
L 649.425116 -359.77389 
L 652.475607 -355.15748 
L 655.888335 -350.541069 
L 659.564803 -345.924658 
L 663.345727 -341.308247 
L 667.063858 -336.691837 
L 670.589417 -332.075426 
L 673.85291 -327.459015 
L 676.844547 -322.842604 
L 679.599122 -318.226194 
L 682.17715 -313.609783 
L 684.649491 -308.993372 
L 687.086867 -304.376961 
L 689.550534 -299.760551 
L 692.078897 -295.14414 
L 694.669101 -290.527729 
L 697.260846 -285.911318 
L 699.735455 -281.294907 
L 701.940047 -276.678497 
L 703.733131 -272.062086 
L 705.030931 -267.445675 
L 705.825483 -262.829264 
L 706.155479 -258.212854 
L 706.037635 -253.596443 
L 705.395496 -248.980032 
L 704.03335 -244.363621 
L 701.683187 -239.747211 
L 698.110364 -235.1308 
L 693.224851 -230.514389 
L 687.13699 -225.897978 
L 680.127403 -221.281568 
L 672.550821 -216.665157 
L 664.729701 -212.048746 
L 656.892412 -207.432335 
L 649.176327 -202.815924 
L 641.67501 -198.199514 
L 634.488543 -193.583103 
L 627.745575 -188.966692 
L 621.59153 -184.350281 
L 616.158487 -179.733871 
L 611.536852 -175.11746 
L 607.760371 -170.501049 
L 604.80528 -165.884638 
L 602.598995 -161.268228 
L 601.033927 -156.651817 
L 599.98376 -152.035406 
L 599.320045 -147.418995 
z
" style="stroke: #3f3f3f; stroke-width: 1.25"/>
    </defs>
    <g clip-path="url(#p082544a831)">
     <use xlink:href="#mcce5e9cdc5" x="0" y="720" style="fill: #3274a1; stroke: #3f3f3f; stroke-width: 1.25"/>
    </g>
   </g>
   <g id="PolyCollection_3">
    <defs>
     <path id="ma3802cea65" d="M 877.739894 -146.460703 
L 877.260106 -146.460703 
L 877.088316 -151.069489 
L 876.845899 -155.678275 
L 876.533633 -160.287061 
L 876.16242 -164.895847 
L 875.743729 -169.504633 
L 875.270684 -174.113419 
L 874.696499 -178.722205 
L 873.92238 -183.330991 
L 872.80602 -187.939777 
L 871.192709 -192.548563 
L 868.958274 -197.157349 
L 866.04487 -201.766135 
L 862.473591 -206.374921 
L 858.330531 -210.983707 
L 853.736495 -215.592493 
L 848.815524 -220.201279 
L 843.672162 -224.810065 
L 838.379059 -229.418851 
L 832.973436 -234.027637 
L 827.463322 -238.636423 
L 821.845014 -243.245209 
L 816.12725 -247.853995 
L 810.350582 -252.462781 
L 804.592936 -257.071567 
L 798.96539 -261.680353 
L 793.612895 -266.289139 
L 788.72825 -270.897925 
L 784.56616 -275.50671 
L 781.428131 -280.115496 
L 779.598099 -284.724282 
L 779.241684 -289.333068 
L 780.314389 -293.941854 
L 782.529728 -298.55064 
L 785.41052 -303.159426 
L 788.403677 -307.768212 
L 791.008373 -312.376998 
L 792.866938 -316.985784 
L 793.793733 -321.59457 
L 793.750941 -326.203356 
L 792.802149 -330.812142 
L 791.076148 -335.420928 
L 788.758541 -340.029714 
L 786.107768 -344.6385 
L 783.475035 -349.247286 
L 781.301347 -353.856072 
L 780.072114 -358.464858 
L 780.22834 -363.073644 
L 782.055522 -367.68243 
L 785.587479 -372.291216 
L 790.564785 -376.900002 
L 796.473798 -381.508788 
L 802.665124 -386.117574 
L 808.518363 -390.72636 
L 813.597215 -395.335146 
L 817.73938 -399.943932 
L 821.052725 -404.552717 
L 823.829902 -409.161503 
L 826.425149 -413.770289 
L 829.143081 -418.379075 
L 832.171587 -422.987861 
L 835.565184 -427.596647 
L 839.266807 -432.205433 
L 843.149851 -436.814219 
L 847.064006 -441.423005 
L 850.872691 -446.031791 
L 854.474781 -450.640577 
L 857.809083 -455.249363 
L 860.845554 -459.858149 
L 863.570666 -464.466935 
L 865.974695 -469.075721 
L 868.046738 -473.684507 
L 869.77953 -478.293293 
L 871.181145 -482.902079 
L 872.285944 -487.510865 
L 873.155921 -492.119651 
L 873.868297 -496.728437 
L 874.493836 -501.337223 
L 875.076905 -505.946009 
L 875.627695 -510.554795 
L 876.12948 -515.163581 
L 876.554995 -519.772367 
L 876.882046 -524.381153 
L 877.101213 -528.989939 
L 877.214798 -533.598724 
L 877.231345 -538.20751 
L 877.161385 -542.816296 
L 877.017694 -547.425082 
L 876.819426 -552.033868 
L 876.596317 -556.642654 
L 876.388392 -561.25144 
L 876.238828 -565.860226 
L 876.181866 -570.469012 
L 876.231287 -575.077798 
L 876.375532 -579.686584 
L 876.582302 -584.29537 
L 876.810366 -588.904156 
L 877.022798 -593.512942 
L 877.195945 -598.121728 
L 877.321612 -602.730514 
L 877.678388 -602.730514 
L 877.678388 -602.730514 
L 877.804055 -598.121728 
L 877.977202 -593.512942 
L 878.189634 -588.904156 
L 878.417698 -584.29537 
L 878.624468 -579.686584 
L 878.768713 -575.077798 
L 878.818134 -570.469012 
L 878.761172 -565.860226 
L 878.611608 -561.25144 
L 878.403683 -556.642654 
L 878.180574 -552.033868 
L 877.982306 -547.425082 
L 877.838615 -542.816296 
L 877.768655 -538.20751 
L 877.785202 -533.598724 
L 877.898787 -528.989939 
L 878.117954 -524.381153 
L 878.445005 -519.772367 
L 878.87052 -515.163581 
L 879.372305 -510.554795 
L 879.923095 -505.946009 
L 880.506164 -501.337223 
L 881.131703 -496.728437 
L 881.844079 -492.119651 
L 882.714056 -487.510865 
L 883.818855 -482.902079 
L 885.22047 -478.293293 
L 886.953262 -473.684507 
L 889.025305 -469.075721 
L 891.429334 -464.466935 
L 894.154446 -459.858149 
L 897.190917 -455.249363 
L 900.525219 -450.640577 
L 904.127309 -446.031791 
L 907.935994 -441.423005 
L 911.850149 -436.814219 
L 915.733193 -432.205433 
L 919.434816 -427.596647 
L 922.828413 -422.987861 
L 925.856919 -418.379075 
L 928.574851 -413.770289 
L 931.170098 -409.161503 
L 933.947275 -404.552717 
L 937.26062 -399.943932 
L 941.402785 -395.335146 
L 946.481637 -390.72636 
L 952.334876 -386.117574 
L 958.526202 -381.508788 
L 964.435215 -376.900002 
L 969.412521 -372.291216 
L 972.944478 -367.68243 
L 974.77166 -363.073644 
L 974.927886 -358.464858 
L 973.698653 -353.856072 
L 971.524965 -349.247286 
L 968.892232 -344.6385 
L 966.241459 -340.029714 
L 963.923852 -335.420928 
L 962.197851 -330.812142 
L 961.249059 -326.203356 
L 961.206267 -321.59457 
L 962.133062 -316.985784 
L 963.991627 -312.376998 
L 966.596323 -307.768212 
L 969.58948 -303.159426 
L 972.470272 -298.55064 
L 974.685611 -293.941854 
L 975.758316 -289.333068 
L 975.401901 -284.724282 
L 973.571869 -280.115496 
L 970.43384 -275.50671 
L 966.27175 -270.897925 
L 961.387105 -266.289139 
L 956.03461 -261.680353 
L 950.407064 -257.071567 
L 944.649418 -252.462781 
L 938.87275 -247.853995 
L 933.154986 -243.245209 
L 927.536678 -238.636423 
L 922.026564 -234.027637 
L 916.620941 -229.418851 
L 911.327838 -224.810065 
L 906.184476 -220.201279 
L 901.263505 -215.592493 
L 896.669469 -210.983707 
L 892.526409 -206.374921 
L 888.95513 -201.766135 
L 886.041726 -197.157349 
L 883.807291 -192.548563 
L 882.19398 -187.939777 
L 881.07762 -183.330991 
L 880.303501 -178.722205 
L 879.729316 -174.113419 
L 879.256271 -169.504633 
L 878.83758 -164.895847 
L 878.466367 -160.287061 
L 878.154101 -155.678275 
L 877.911684 -151.069489 
L 877.739894 -146.460703 
z
" style="stroke: #3f3f3f; stroke-width: 1.25"/>
    </defs>
    <g clip-path="url(#p082544a831)">
     <use xlink:href="#ma3802cea65" x="0" y="720" style="fill: #3274a1; stroke: #3f3f3f; stroke-width: 1.25"/>
    </g>
   </g>
   <g id="PolyCollection_4">
    <defs>
     <path id="m16b5fcb1a5" d="M 1156.639579 -104.4 
L 1156.360421 -104.4 
L 1156.241536 -109.462718 
L 1156.050115 -114.525436 
L 1155.760702 -119.588154 
L 1155.347773 -124.650871 
L 1154.788769 -129.713589 
L 1154.066256 -134.776307 
L 1153.167719 -139.839025 
L 1152.081715 -144.901743 
L 1150.790522 -149.964461 
L 1149.261411 -155.027178 
L 1147.440049 -160.089896 
L 1145.248864 -165.152614 
L 1142.591351 -170.215332 
L 1139.362928 -175.27805 
L 1135.470666 -180.340768 
L 1130.864013 -185.403485 
L 1125.571357 -190.466203 
L 1119.724442 -195.528921 
L 1113.545938 -200.591639 
L 1107.287646 -205.654357 
L 1101.137567 -210.717075 
L 1095.144605 -215.779792 
L 1089.214702 -220.84251 
L 1083.200289 -225.905228 
L 1077.050117 -230.967946 
L 1070.941574 -236.030664 
L 1065.313008 -241.093382 
L 1060.757567 -246.1561 
L 1057.811792 -251.218817 
L 1056.732076 -256.281535 
L 1057.365563 -261.344253 
L 1059.179758 -266.406971 
L 1061.439861 -271.469689 
L 1063.454841 -276.532407 
L 1064.786664 -281.595124 
L 1065.341593 -286.657842 
L 1065.321805 -291.72056 
L 1065.078852 -296.783278 
L 1064.948526 -301.845996 
L 1065.143888 -306.908714 
L 1065.744095 -311.971431 
L 1066.762965 -317.034149 
L 1068.241682 -322.096867 
L 1070.303937 -327.159585 
L 1073.139015 -332.222303 
L 1076.920591 -337.285021 
L 1081.702783 -342.347738 
L 1087.345246 -347.410456 
L 1093.504878 -352.473174 
L 1099.702575 -357.535892 
L 1105.442136 -362.59861 
L 1110.336418 -367.661328 
L 1114.192276 -372.724046 
L 1117.024113 -377.786763 
L 1118.999609 -382.849481 
L 1120.352682 -387.912199 
L 1121.308875 -392.974917 
L 1122.051279 -398.037635 
L 1122.724503 -403.100353 
L 1123.453086 -408.16307 
L 1124.351738 -413.225788 
L 1125.520548 -418.288506 
L 1127.031674 -423.351224 
L 1128.915711 -428.413942 
L 1131.151311 -433.47666 
L 1133.660541 -438.539377 
L 1136.315661 -443.602095 
L 1138.962825 -448.664813 
L 1141.459593 -453.727531 
L 1143.711755 -458.790249 
L 1145.691575 -463.852967 
L 1147.428643 -468.915684 
L 1148.979721 -473.978402 
L 1150.394425 -479.04112 
L 1151.693233 -484.103838 
L 1152.865121 -489.166556 
L 1153.881179 -494.229274 
L 1154.713965 -499.291992 
L 1155.352398 -504.354709 
L 1155.806744 -509.417427 
L 1156.104132 -514.480145 
L 1156.278834 -519.542863 
L 1156.362369 -524.605581 
L 1156.376999 -529.668299 
L 1156.334129 -534.731016 
L 1156.237455 -539.793734 
L 1156.089596 -544.856452 
L 1155.899854 -549.91917 
L 1155.689792 -554.981888 
L 1155.493276 -560.044606 
L 1155.349469 -565.107323 
L 1155.29082 -570.170041 
L 1155.33138 -575.232759 
L 1155.461416 -580.295477 
L 1155.65122 -585.358195 
L 1155.862128 -590.420913 
L 1156.059184 -595.48363 
L 1156.219866 -600.546348 
L 1156.336296 -605.609066 
L 1156.663704 -605.609066 
L 1156.663704 -605.609066 
L 1156.780134 -600.546348 
L 1156.940816 -595.48363 
L 1157.137872 -590.420913 
L 1157.34878 -585.358195 
L 1157.538584 -580.295477 
L 1157.66862 -575.232759 
L 1157.70918 -570.170041 
L 1157.650531 -565.107323 
L 1157.506724 -560.044606 
L 1157.310208 -554.981888 
L 1157.100146 -549.91917 
L 1156.910404 -544.856452 
L 1156.762545 -539.793734 
L 1156.665871 -534.731016 
L 1156.623001 -529.668299 
L 1156.637631 -524.605581 
L 1156.721166 -519.542863 
L 1156.895868 -514.480145 
L 1157.193256 -509.417427 
L 1157.647602 -504.354709 
L 1158.286035 -499.291992 
L 1159.118821 -494.229274 
L 1160.134879 -489.166556 
L 1161.306767 -484.103838 
L 1162.605575 -479.04112 
L 1164.020279 -473.978402 
L 1165.571357 -468.915684 
L 1167.308425 -463.852967 
L 1169.288245 -458.790249 
L 1171.540407 -453.727531 
L 1174.037175 -448.664813 
L 1176.684339 -443.602095 
L 1179.339459 -438.539377 
L 1181.848689 -433.47666 
L 1184.084289 -428.413942 
L 1185.968326 -423.351224 
L 1187.479452 -418.288506 
L 1188.648262 -413.225788 
L 1189.546914 -408.16307 
L 1190.275497 -403.100353 
L 1190.948721 -398.037635 
L 1191.691125 -392.974917 
L 1192.647318 -387.912199 
L 1194.000391 -382.849481 
L 1195.975887 -377.786763 
L 1198.807724 -372.724046 
L 1202.663582 -367.661328 
L 1207.557864 -362.59861 
L 1213.297425 -357.535892 
L 1219.495122 -352.473174 
L 1225.654754 -347.410456 
L 1231.297217 -342.347738 
L 1236.079409 -337.285021 
L 1239.860985 -332.222303 
L 1242.696063 -327.159585 
L 1244.758318 -322.096867 
L 1246.237035 -317.034149 
L 1247.255905 -311.971431 
L 1247.856112 -306.908714 
L 1248.051474 -301.845996 
L 1247.921148 -296.783278 
L 1247.678195 -291.72056 
L 1247.658407 -286.657842 
L 1248.213336 -281.595124 
L 1249.545159 -276.532407 
L 1251.560139 -271.469689 
L 1253.820242 -266.406971 
L 1255.634437 -261.344253 
L 1256.267924 -256.281535 
L 1255.188208 -251.218817 
L 1252.242433 -246.1561 
L 1247.686992 -241.093382 
L 1242.058426 -236.030664 
L 1235.949883 -230.967946 
L 1229.799711 -225.905228 
L 1223.785298 -220.84251 
L 1217.855395 -215.779792 
L 1211.862433 -210.717075 
L 1205.712354 -205.654357 
L 1199.454062 -200.591639 
L 1193.275558 -195.528921 
L 1187.428643 -190.466203 
L 1182.135987 -185.403485 
L 1177.529334 -180.340768 
L 1173.637072 -175.27805 
L 1170.408649 -170.215332 
L 1167.751136 -165.152614 
L 1165.559951 -160.089896 
L 1163.738589 -155.027178 
L 1162.209478 -149.964461 
L 1160.918285 -144.901743 
L 1159.832281 -139.839025 
L 1158.933744 -134.776307 
L 1158.211231 -129.713589 
L 1157.652227 -124.650871 
L 1157.239298 -119.588154 
L 1156.949885 -114.525436 
L 1156.758464 -109.462718 
L 1156.639579 -104.4 
z
" style="stroke: #3f3f3f; stroke-width: 1.25"/>
    </defs>
    <g clip-path="url(#p082544a831)">
     <use xlink:href="#m16b5fcb1a5" x="0" y="720" style="fill: #3274a1; stroke: #3f3f3f; stroke-width: 1.25"/>
    </g>
   </g>
   <g id="matplotlib.axis_1">
    <g id="xtick_1">
     <g id="line2d_1">
      <defs>
       <path id="m07c727718c" d="M 0 0 
L 0 3.5 
" style="stroke: #000000; stroke-width: 0.8"/>
      </defs>
      <g>
       <use xlink:href="#m07c727718c" x="319.5" y="640.8" style="stroke: #000000; stroke-width: 0.8"/>
      </g>
     </g>
     <g id="text_1">
      <!-- max -->
      <g transform="translate(308.60625 655.398438) scale(0.1 -0.1)">
       <defs>
        <path id="DejaVuSans-6d" d="M 3328 2828 
Q 3544 3216 3844 3400 
Q 4144 3584 4550 3584 
Q 5097 3584 5394 3201 
Q 5691 2819 5691 2113 
L 5691 0 
L 5113 0 
L 5113 2094 
Q 5113 2597 4934 2840 
Q 4756 3084 4391 3084 
Q 3944 3084 3684 2787 
Q 3425 2491 3425 1978 
L 3425 0 
L 2847 0 
L 2847 2094 
Q 2847 2600 2669 2842 
Q 2491 3084 2119 3084 
Q 1678 3084 1418 2786 
Q 1159 2488 1159 1978 
L 1159 0 
L 581 0 
L 581 3500 
L 1159 3500 
L 1159 2956 
Q 1356 3278 1631 3431 
Q 1906 3584 2284 3584 
Q 2666 3584 2933 3390 
Q 3200 3197 3328 2828 
z
" transform="scale(0.015625)"/>
        <path id="DejaVuSans-61" d="M 2194 1759 
Q 1497 1759 1228 1600 
Q 959 1441 959 1056 
Q 959 750 1161 570 
Q 1363 391 1709 391 
Q 2188 391 2477 730 
Q 2766 1069 2766 1631 
L 2766 1759 
L 2194 1759 
z
M 3341 1997 
L 3341 0 
L 2766 0 
L 2766 531 
Q 2569 213 2275 61 
Q 1981 -91 1556 -91 
Q 1019 -91 701 211 
Q 384 513 384 1019 
Q 384 1609 779 1909 
Q 1175 2209 1959 2209 
L 2766 2209 
L 2766 2266 
Q 2766 2663 2505 2880 
Q 2244 3097 1772 3097 
Q 1472 3097 1187 3025 
Q 903 2953 641 2809 
L 641 3341 
Q 956 3463 1253 3523 
Q 1550 3584 1831 3584 
Q 2591 3584 2966 3190 
Q 3341 2797 3341 1997 
z
" transform="scale(0.015625)"/>
        <path id="DejaVuSans-78" d="M 3513 3500 
L 2247 1797 
L 3578 0 
L 2900 0 
L 1881 1375 
L 863 0 
L 184 0 
L 1544 1831 
L 300 3500 
L 978 3500 
L 1906 2253 
L 2834 3500 
L 3513 3500 
z
" transform="scale(0.015625)"/>
       </defs>
       <use xlink:href="#DejaVuSans-6d"/>
       <use xlink:href="#DejaVuSans-61" x="97.412109"/>
       <use xlink:href="#DejaVuSans-78" x="158.691406"/>
      </g>
     </g>
    </g>
    <g id="xtick_2">
     <g id="line2d_2">
      <g>
       <use xlink:href="#m07c727718c" x="598.5" y="640.8" style="stroke: #000000; stroke-width: 0.8"/>
      </g>
     </g>
     <g id="text_2">
      <!-- max_fs -->
      <g transform="translate(580.741406 655.398438) scale(0.1 -0.1)">
       <defs>
        <path id="DejaVuSans-5f" d="M 3263 -1063 
L 3263 -1509 
L -63 -1509 
L -63 -1063 
L 3263 -1063 
z
" transform="scale(0.015625)"/>
        <path id="DejaVuSans-66" d="M 2375 4863 
L 2375 4384 
L 1825 4384 
Q 1516 4384 1395 4259 
Q 1275 4134 1275 3809 
L 1275 3500 
L 2222 3500 
L 2222 3053 
L 1275 3053 
L 1275 0 
L 697 0 
L 697 3053 
L 147 3053 
L 147 3500 
L 697 3500 
L 697 3744 
Q 697 4328 969 4595 
Q 1241 4863 1831 4863 
L 2375 4863 
z
" transform="scale(0.015625)"/>
        <path id="DejaVuSans-73" d="M 2834 3397 
L 2834 2853 
Q 2591 2978 2328 3040 
Q 2066 3103 1784 3103 
Q 1356 3103 1142 2972 
Q 928 2841 928 2578 
Q 928 2378 1081 2264 
Q 1234 2150 1697 2047 
L 1894 2003 
Q 2506 1872 2764 1633 
Q 3022 1394 3022 966 
Q 3022 478 2636 193 
Q 2250 -91 1575 -91 
Q 1294 -91 989 -36 
Q 684 19 347 128 
L 347 722 
Q 666 556 975 473 
Q 1284 391 1588 391 
Q 1994 391 2212 530 
Q 2431 669 2431 922 
Q 2431 1156 2273 1281 
Q 2116 1406 1581 1522 
L 1381 1569 
Q 847 1681 609 1914 
Q 372 2147 372 2553 
Q 372 3047 722 3315 
Q 1072 3584 1716 3584 
Q 2034 3584 2315 3537 
Q 2597 3491 2834 3397 
z
" transform="scale(0.015625)"/>
       </defs>
       <use xlink:href="#DejaVuSans-6d"/>
       <use xlink:href="#DejaVuSans-61" x="97.412109"/>
       <use xlink:href="#DejaVuSans-78" x="158.691406"/>
       <use xlink:href="#DejaVuSans-5f" x="217.871094"/>
       <use xlink:href="#DejaVuSans-66" x="267.871094"/>
       <use xlink:href="#DejaVuSans-73" x="303.076172"/>
      </g>
     </g>
    </g>
    <g id="xtick_3">
     <g id="line2d_3">
      <g>
       <use xlink:href="#m07c727718c" x="877.5" y="640.8" style="stroke: #000000; stroke-width: 0.8"/>
      </g>
     </g>
     <g id="text_3">
      <!-- max_mem_5_fs_glit -->
      <g transform="translate(828.330469 655.398438) scale(0.1 -0.1)">
       <defs>
        <path id="DejaVuSans-65" d="M 3597 1894 
L 3597 1613 
L 953 1613 
Q 991 1019 1311 708 
Q 1631 397 2203 397 
Q 2534 397 2845 478 
Q 3156 559 3463 722 
L 3463 178 
Q 3153 47 2828 -22 
Q 2503 -91 2169 -91 
Q 1331 -91 842 396 
Q 353 884 353 1716 
Q 353 2575 817 3079 
Q 1281 3584 2069 3584 
Q 2775 3584 3186 3129 
Q 3597 2675 3597 1894 
z
M 3022 2063 
Q 3016 2534 2758 2815 
Q 2500 3097 2075 3097 
Q 1594 3097 1305 2825 
Q 1016 2553 972 2059 
L 3022 2063 
z
" transform="scale(0.015625)"/>
        <path id="DejaVuSans-35" d="M 691 4666 
L 3169 4666 
L 3169 4134 
L 1269 4134 
L 1269 2991 
Q 1406 3038 1543 3061 
Q 1681 3084 1819 3084 
Q 2600 3084 3056 2656 
Q 3513 2228 3513 1497 
Q 3513 744 3044 326 
Q 2575 -91 1722 -91 
Q 1428 -91 1123 -41 
Q 819 9 494 109 
L 494 744 
Q 775 591 1075 516 
Q 1375 441 1709 441 
Q 2250 441 2565 725 
Q 2881 1009 2881 1497 
Q 2881 1984 2565 2268 
Q 2250 2553 1709 2553 
Q 1456 2553 1204 2497 
Q 953 2441 691 2322 
L 691 4666 
z
" transform="scale(0.015625)"/>
        <path id="DejaVuSans-67" d="M 2906 1791 
Q 2906 2416 2648 2759 
Q 2391 3103 1925 3103 
Q 1463 3103 1205 2759 
Q 947 2416 947 1791 
Q 947 1169 1205 825 
Q 1463 481 1925 481 
Q 2391 481 2648 825 
Q 2906 1169 2906 1791 
z
M 3481 434 
Q 3481 -459 3084 -895 
Q 2688 -1331 1869 -1331 
Q 1566 -1331 1297 -1286 
Q 1028 -1241 775 -1147 
L 775 -588 
Q 1028 -725 1275 -790 
Q 1522 -856 1778 -856 
Q 2344 -856 2625 -561 
Q 2906 -266 2906 331 
L 2906 616 
Q 2728 306 2450 153 
Q 2172 0 1784 0 
Q 1141 0 747 490 
Q 353 981 353 1791 
Q 353 2603 747 3093 
Q 1141 3584 1784 3584 
Q 2172 3584 2450 3431 
Q 2728 3278 2906 2969 
L 2906 3500 
L 3481 3500 
L 3481 434 
z
" transform="scale(0.015625)"/>
        <path id="DejaVuSans-6c" d="M 603 4863 
L 1178 4863 
L 1178 0 
L 603 0 
L 603 4863 
z
" transform="scale(0.015625)"/>
        <path id="DejaVuSans-69" d="M 603 3500 
L 1178 3500 
L 1178 0 
L 603 0 
L 603 3500 
z
M 603 4863 
L 1178 4863 
L 1178 4134 
L 603 4134 
L 603 4863 
z
" transform="scale(0.015625)"/>
        <path id="DejaVuSans-74" d="M 1172 4494 
L 1172 3500 
L 2356 3500 
L 2356 3053 
L 1172 3053 
L 1172 1153 
Q 1172 725 1289 603 
Q 1406 481 1766 481 
L 2356 481 
L 2356 0 
L 1766 0 
Q 1100 0 847 248 
Q 594 497 594 1153 
L 594 3053 
L 172 3053 
L 172 3500 
L 594 3500 
L 594 4494 
L 1172 4494 
z
" transform="scale(0.015625)"/>
       </defs>
       <use xlink:href="#DejaVuSans-6d"/>
       <use xlink:href="#DejaVuSans-61" x="97.412109"/>
       <use xlink:href="#DejaVuSans-78" x="158.691406"/>
       <use xlink:href="#DejaVuSans-5f" x="217.871094"/>
       <use xlink:href="#DejaVuSans-6d" x="267.871094"/>
       <use xlink:href="#DejaVuSans-65" x="365.283203"/>
       <use xlink:href="#DejaVuSans-6d" x="426.806641"/>
       <use xlink:href="#DejaVuSans-5f" x="524.21875"/>
       <use xlink:href="#DejaVuSans-35" x="574.21875"/>
       <use xlink:href="#DejaVuSans-5f" x="637.841797"/>
       <use xlink:href="#DejaVuSans-66" x="687.841797"/>
       <use xlink:href="#DejaVuSans-73" x="723.046875"/>
       <use xlink:href="#DejaVuSans-5f" x="775.146484"/>
       <use xlink:href="#DejaVuSans-67" x="825.146484"/>
       <use xlink:href="#DejaVuSans-6c" x="888.623047"/>
       <use xlink:href="#DejaVuSans-69" x="916.40625"/>
       <use xlink:href="#DejaVuSans-74" x="944.189453"/>
      </g>
     </g>
    </g>
    <g id="xtick_4">
     <g id="line2d_4">
      <g>
       <use xlink:href="#m07c727718c" x="1156.5" y="640.8" style="stroke: #000000; stroke-width: 0.8"/>
      </g>
     </g>
     <g id="text_4">
      <!-- max_fs_glit -->
      <g transform="translate(1128.328906 655.398438) scale(0.1 -0.1)">
       <use xlink:href="#DejaVuSans-6d"/>
       <use xlink:href="#DejaVuSans-61" x="97.412109"/>
       <use xlink:href="#DejaVuSans-78" x="158.691406"/>
       <use xlink:href="#DejaVuSans-5f" x="217.871094"/>
       <use xlink:href="#DejaVuSans-66" x="267.871094"/>
       <use xlink:href="#DejaVuSans-73" x="303.076172"/>
       <use xlink:href="#DejaVuSans-5f" x="355.175781"/>
       <use xlink:href="#DejaVuSans-67" x="405.175781"/>
       <use xlink:href="#DejaVuSans-6c" x="468.652344"/>
       <use xlink:href="#DejaVuSans-69" x="496.435547"/>
       <use xlink:href="#DejaVuSans-74" x="524.21875"/>
      </g>
     </g>
    </g>
    <g id="text_5">
     <!-- file name -->
     <g transform="translate(714.616406 669.354687) scale(0.1 -0.1)">
      <defs>
       <path id="DejaVuSans-20" transform="scale(0.015625)"/>
       <path id="DejaVuSans-6e" d="M 3513 2113 
L 3513 0 
L 2938 0 
L 2938 2094 
Q 2938 2591 2744 2837 
Q 2550 3084 2163 3084 
Q 1697 3084 1428 2787 
Q 1159 2491 1159 1978 
L 1159 0 
L 581 0 
L 581 3500 
L 1159 3500 
L 1159 2956 
Q 1366 3272 1645 3428 
Q 1925 3584 2291 3584 
Q 2894 3584 3203 3211 
Q 3513 2838 3513 2113 
z
" transform="scale(0.015625)"/>
      </defs>
      <use xlink:href="#DejaVuSans-66"/>
      <use xlink:href="#DejaVuSans-69" x="35.205078"/>
      <use xlink:href="#DejaVuSans-6c" x="62.988281"/>
      <use xlink:href="#DejaVuSans-65" x="90.771484"/>
      <use xlink:href="#DejaVuSans-20" x="152.294922"/>
      <use xlink:href="#DejaVuSans-6e" x="184.082031"/>
      <use xlink:href="#DejaVuSans-61" x="247.460938"/>
      <use xlink:href="#DejaVuSans-6d" x="308.740234"/>
      <use xlink:href="#DejaVuSans-65" x="406.152344"/>
     </g>
    </g>
   </g>
   <g id="matplotlib.axis_2">
    <g id="ytick_1">
     <g id="line2d_5">
      <defs>
       <path id="m038148c1f8" d="M 0 0 
L -3.5 0 
" style="stroke: #000000; stroke-width: 0.8"/>
      </defs>
      <g>
       <use xlink:href="#m038148c1f8" x="180" y="593.154025" style="stroke: #000000; stroke-width: 0.8"/>
      </g>
     </g>
     <g id="text_6">
      <!-- −0.2 -->
      <g transform="translate(148.717187 596.953244) scale(0.1 -0.1)">
       <defs>
        <path id="DejaVuSans-2212" d="M 678 2272 
L 4684 2272 
L 4684 1741 
L 678 1741 
L 678 2272 
z
" transform="scale(0.015625)"/>
        <path id="DejaVuSans-30" d="M 2034 4250 
Q 1547 4250 1301 3770 
Q 1056 3291 1056 2328 
Q 1056 1369 1301 889 
Q 1547 409 2034 409 
Q 2525 409 2770 889 
Q 3016 1369 3016 2328 
Q 3016 3291 2770 3770 
Q 2525 4250 2034 4250 
z
M 2034 4750 
Q 2819 4750 3233 4129 
Q 3647 3509 3647 2328 
Q 3647 1150 3233 529 
Q 2819 -91 2034 -91 
Q 1250 -91 836 529 
Q 422 1150 422 2328 
Q 422 3509 836 4129 
Q 1250 4750 2034 4750 
z
" transform="scale(0.015625)"/>
        <path id="DejaVuSans-2e" d="M 684 794 
L 1344 794 
L 1344 0 
L 684 0 
L 684 794 
z
" transform="scale(0.015625)"/>
        <path id="DejaVuSans-32" d="M 1228 531 
L 3431 531 
L 3431 0 
L 469 0 
L 469 531 
Q 828 903 1448 1529 
Q 2069 2156 2228 2338 
Q 2531 2678 2651 2914 
Q 2772 3150 2772 3378 
Q 2772 3750 2511 3984 
Q 2250 4219 1831 4219 
Q 1534 4219 1204 4116 
Q 875 4013 500 3803 
L 500 4441 
Q 881 4594 1212 4672 
Q 1544 4750 1819 4750 
Q 2544 4750 2975 4387 
Q 3406 4025 3406 3419 
Q 3406 3131 3298 2873 
Q 3191 2616 2906 2266 
Q 2828 2175 2409 1742 
Q 1991 1309 1228 531 
z
" transform="scale(0.015625)"/>
       </defs>
       <use xlink:href="#DejaVuSans-2212"/>
       <use xlink:href="#DejaVuSans-30" x="83.789062"/>
       <use xlink:href="#DejaVuSans-2e" x="147.412109"/>
       <use xlink:href="#DejaVuSans-32" x="179.199219"/>
      </g>
     </g>
    </g>
    <g id="ytick_2">
     <g id="line2d_6">
      <g>
       <use xlink:href="#m038148c1f8" x="180" y="519.188098" style="stroke: #000000; stroke-width: 0.8"/>
      </g>
     </g>
     <g id="text_7">
      <!-- 0.0 -->
      <g transform="translate(157.096875 522.987316) scale(0.1 -0.1)">
       <use xlink:href="#DejaVuSans-30"/>
       <use xlink:href="#DejaVuSans-2e" x="63.623047"/>
       <use xlink:href="#DejaVuSans-30" x="95.410156"/>
      </g>
     </g>
    </g>
    <g id="ytick_3">
     <g id="line2d_7">
      <g>
       <use xlink:href="#m038148c1f8" x="180" y="445.222171" style="stroke: #000000; stroke-width: 0.8"/>
      </g>
     </g>
     <g id="text_8">
      <!-- 0.2 -->
      <g transform="translate(157.096875 449.021389) scale(0.1 -0.1)">
       <use xlink:href="#DejaVuSans-30"/>
       <use xlink:href="#DejaVuSans-2e" x="63.623047"/>
       <use xlink:href="#DejaVuSans-32" x="95.410156"/>
      </g>
     </g>
    </g>
    <g id="ytick_4">
     <g id="line2d_8">
      <g>
       <use xlink:href="#m038148c1f8" x="180" y="371.256244" style="stroke: #000000; stroke-width: 0.8"/>
      </g>
     </g>
     <g id="text_9">
      <!-- 0.4 -->
      <g transform="translate(157.096875 375.055462) scale(0.1 -0.1)">
       <defs>
        <path id="DejaVuSans-34" d="M 2419 4116 
L 825 1625 
L 2419 1625 
L 2419 4116 
z
M 2253 4666 
L 3047 4666 
L 3047 1625 
L 3713 1625 
L 3713 1100 
L 3047 1100 
L 3047 0 
L 2419 0 
L 2419 1100 
L 313 1100 
L 313 1709 
L 2253 4666 
z
" transform="scale(0.015625)"/>
       </defs>
       <use xlink:href="#DejaVuSans-30"/>
       <use xlink:href="#DejaVuSans-2e" x="63.623047"/>
       <use xlink:href="#DejaVuSans-34" x="95.410156"/>
      </g>
     </g>
    </g>
    <g id="ytick_5">
     <g id="line2d_9">
      <g>
       <use xlink:href="#m038148c1f8" x="180" y="297.290317" style="stroke: #000000; stroke-width: 0.8"/>
      </g>
     </g>
     <g id="text_10">
      <!-- 0.6 -->
      <g transform="translate(157.096875 301.089535) scale(0.1 -0.1)">
       <defs>
        <path id="DejaVuSans-36" d="M 2113 2584 
Q 1688 2584 1439 2293 
Q 1191 2003 1191 1497 
Q 1191 994 1439 701 
Q 1688 409 2113 409 
Q 2538 409 2786 701 
Q 3034 994 3034 1497 
Q 3034 2003 2786 2293 
Q 2538 2584 2113 2584 
z
M 3366 4563 
L 3366 3988 
Q 3128 4100 2886 4159 
Q 2644 4219 2406 4219 
Q 1781 4219 1451 3797 
Q 1122 3375 1075 2522 
Q 1259 2794 1537 2939 
Q 1816 3084 2150 3084 
Q 2853 3084 3261 2657 
Q 3669 2231 3669 1497 
Q 3669 778 3244 343 
Q 2819 -91 2113 -91 
Q 1303 -91 875 529 
Q 447 1150 447 2328 
Q 447 3434 972 4092 
Q 1497 4750 2381 4750 
Q 2619 4750 2861 4703 
Q 3103 4656 3366 4563 
z
" transform="scale(0.015625)"/>
       </defs>
       <use xlink:href="#DejaVuSans-30"/>
       <use xlink:href="#DejaVuSans-2e" x="63.623047"/>
       <use xlink:href="#DejaVuSans-36" x="95.410156"/>
      </g>
     </g>
    </g>
    <g id="ytick_6">
     <g id="line2d_10">
      <g>
       <use xlink:href="#m038148c1f8" x="180" y="223.324389" style="stroke: #000000; stroke-width: 0.8"/>
      </g>
     </g>
     <g id="text_11">
      <!-- 0.8 -->
      <g transform="translate(157.096875 227.123608) scale(0.1 -0.1)">
       <defs>
        <path id="DejaVuSans-38" d="M 2034 2216 
Q 1584 2216 1326 1975 
Q 1069 1734 1069 1313 
Q 1069 891 1326 650 
Q 1584 409 2034 409 
Q 2484 409 2743 651 
Q 3003 894 3003 1313 
Q 3003 1734 2745 1975 
Q 2488 2216 2034 2216 
z
M 1403 2484 
Q 997 2584 770 2862 
Q 544 3141 544 3541 
Q 544 4100 942 4425 
Q 1341 4750 2034 4750 
Q 2731 4750 3128 4425 
Q 3525 4100 3525 3541 
Q 3525 3141 3298 2862 
Q 3072 2584 2669 2484 
Q 3125 2378 3379 2068 
Q 3634 1759 3634 1313 
Q 3634 634 3220 271 
Q 2806 -91 2034 -91 
Q 1263 -91 848 271 
Q 434 634 434 1313 
Q 434 1759 690 2068 
Q 947 2378 1403 2484 
z
M 1172 3481 
Q 1172 3119 1398 2916 
Q 1625 2713 2034 2713 
Q 2441 2713 2670 2916 
Q 2900 3119 2900 3481 
Q 2900 3844 2670 4047 
Q 2441 4250 2034 4250 
Q 1625 4250 1398 4047 
Q 1172 3844 1172 3481 
z
" transform="scale(0.015625)"/>
       </defs>
       <use xlink:href="#DejaVuSans-30"/>
       <use xlink:href="#DejaVuSans-2e" x="63.623047"/>
       <use xlink:href="#DejaVuSans-38" x="95.410156"/>
      </g>
     </g>
    </g>
    <g id="ytick_7">
     <g id="line2d_11">
      <g>
       <use xlink:href="#m038148c1f8" x="180" y="149.358462" style="stroke: #000000; stroke-width: 0.8"/>
      </g>
     </g>
     <g id="text_12">
      <!-- 1.0 -->
      <g transform="translate(157.096875 153.157681) scale(0.1 -0.1)">
       <defs>
        <path id="DejaVuSans-31" d="M 794 531 
L 1825 531 
L 1825 4091 
L 703 3866 
L 703 4441 
L 1819 4666 
L 2450 4666 
L 2450 531 
L 3481 531 
L 3481 0 
L 794 0 
L 794 531 
z
" transform="scale(0.015625)"/>
       </defs>
       <use xlink:href="#DejaVuSans-31"/>
       <use xlink:href="#DejaVuSans-2e" x="63.623047"/>
       <use xlink:href="#DejaVuSans-30" x="95.410156"/>
      </g>
     </g>
    </g>
    <g id="text_13">
     <!-- cosine similarity -->
     <g transform="translate(142.6375 404.307031) rotate(-90) scale(0.1 -0.1)">
      <defs>
       <path id="DejaVuSans-63" d="M 3122 3366 
L 3122 2828 
Q 2878 2963 2633 3030 
Q 2388 3097 2138 3097 
Q 1578 3097 1268 2742 
Q 959 2388 959 1747 
Q 959 1106 1268 751 
Q 1578 397 2138 397 
Q 2388 397 2633 464 
Q 2878 531 3122 666 
L 3122 134 
Q 2881 22 2623 -34 
Q 2366 -91 2075 -91 
Q 1284 -91 818 406 
Q 353 903 353 1747 
Q 353 2603 823 3093 
Q 1294 3584 2113 3584 
Q 2378 3584 2631 3529 
Q 2884 3475 3122 3366 
z
" transform="scale(0.015625)"/>
       <path id="DejaVuSans-6f" d="M 1959 3097 
Q 1497 3097 1228 2736 
Q 959 2375 959 1747 
Q 959 1119 1226 758 
Q 1494 397 1959 397 
Q 2419 397 2687 759 
Q 2956 1122 2956 1747 
Q 2956 2369 2687 2733 
Q 2419 3097 1959 3097 
z
M 1959 3584 
Q 2709 3584 3137 3096 
Q 3566 2609 3566 1747 
Q 3566 888 3137 398 
Q 2709 -91 1959 -91 
Q 1206 -91 779 398 
Q 353 888 353 1747 
Q 353 2609 779 3096 
Q 1206 3584 1959 3584 
z
" transform="scale(0.015625)"/>
       <path id="DejaVuSans-72" d="M 2631 2963 
Q 2534 3019 2420 3045 
Q 2306 3072 2169 3072 
Q 1681 3072 1420 2755 
Q 1159 2438 1159 1844 
L 1159 0 
L 581 0 
L 581 3500 
L 1159 3500 
L 1159 2956 
Q 1341 3275 1631 3429 
Q 1922 3584 2338 3584 
Q 2397 3584 2469 3576 
Q 2541 3569 2628 3553 
L 2631 2963 
z
" transform="scale(0.015625)"/>
       <path id="DejaVuSans-79" d="M 2059 -325 
Q 1816 -950 1584 -1140 
Q 1353 -1331 966 -1331 
L 506 -1331 
L 506 -850 
L 844 -850 
Q 1081 -850 1212 -737 
Q 1344 -625 1503 -206 
L 1606 56 
L 191 3500 
L 800 3500 
L 1894 763 
L 2988 3500 
L 3597 3500 
L 2059 -325 
z
" transform="scale(0.015625)"/>
      </defs>
      <use xlink:href="#DejaVuSans-63"/>
      <use xlink:href="#DejaVuSans-6f" x="54.980469"/>
      <use xlink:href="#DejaVuSans-73" x="116.162109"/>
      <use xlink:href="#DejaVuSans-69" x="168.261719"/>
      <use xlink:href="#DejaVuSans-6e" x="196.044922"/>
      <use xlink:href="#DejaVuSans-65" x="259.423828"/>
      <use xlink:href="#DejaVuSans-20" x="320.947266"/>
      <use xlink:href="#DejaVuSans-73" x="352.734375"/>
      <use xlink:href="#DejaVuSans-69" x="404.833984"/>
      <use xlink:href="#DejaVuSans-6d" x="432.617188"/>
      <use xlink:href="#DejaVuSans-69" x="530.029297"/>
      <use xlink:href="#DejaVuSans-6c" x="557.8125"/>
      <use xlink:href="#DejaVuSans-61" x="585.595703"/>
      <use xlink:href="#DejaVuSans-72" x="646.875"/>
      <use xlink:href="#DejaVuSans-69" x="687.988281"/>
      <use xlink:href="#DejaVuSans-74" x="715.771484"/>
      <use xlink:href="#DejaVuSans-79" x="754.980469"/>
     </g>
    </g>
   </g>
   <g id="line2d_12">
    <path d="M 319.5 533.362386 
L 319.5 221.465451 
" clip-path="url(#p082544a831)" style="fill: none; stroke: #3f3f3f; stroke-width: 1.875; stroke-linecap: square"/>
   </g>
   <g id="line2d_13">
    <path d="M 319.5 465.336885 
L 319.5 367.584136 
" clip-path="url(#p082544a831)" style="fill: none; stroke: #3f3f3f; stroke-width: 5.625; stroke-linecap: square"/>
   </g>
   <g id="line2d_14">
    <path d="M 319.5 432.78567 
" clip-path="url(#p082544a831)" style="fill: none; stroke: #3f3f3f; stroke-width: 1.5; stroke-linecap: square"/>
    <defs>
     <path id="mae82f84a9a" d="M 2.34375 0 
L -2.34375 -0 
" style="stroke: #ffffff; stroke-width: 1.125"/>
    </defs>
    <g clip-path="url(#p082544a831)">
     <use xlink:href="#mae82f84a9a" x="319.5" y="432.78567" style="fill: #ffffff; stroke: #ffffff; stroke-width: 1.125"/>
    </g>
   </g>
   <g id="line2d_15">
    <path d="M 598.5 538.778925 
L 598.5 243.845422 
" clip-path="url(#p082544a831)" style="fill: none; stroke: #3f3f3f; stroke-width: 1.875; stroke-linecap: square"/>
   </g>
   <g id="line2d_16">
    <path d="M 598.5 475.665271 
L 598.5 382.518045 
" clip-path="url(#p082544a831)" style="fill: none; stroke: #3f3f3f; stroke-width: 5.625; stroke-linecap: square"/>
   </g>
   <g id="line2d_17">
    <path d="M 598.5 435.236884 
" clip-path="url(#p082544a831)" style="fill: none; stroke: #3f3f3f; stroke-width: 1.5; stroke-linecap: square"/>
    <g clip-path="url(#p082544a831)">
     <use xlink:href="#mae82f84a9a" x="598.5" y="435.236884" style="fill: #ffffff; stroke: #ffffff; stroke-width: 1.125"/>
    </g>
   </g>
   <g id="line2d_18">
    <path d="M 877.5 541.450364 
L 877.5 221.885998 
" clip-path="url(#p082544a831)" style="fill: none; stroke: #3f3f3f; stroke-width: 1.875; stroke-linecap: square"/>
   </g>
   <g id="line2d_19">
    <path d="M 877.5 436.583589 
L 877.5 345.644621 
" clip-path="url(#p082544a831)" style="fill: none; stroke: #3f3f3f; stroke-width: 5.625; stroke-linecap: square"/>
   </g>
   <g id="line2d_20">
    <path d="M 877.5 389.265866 
" clip-path="url(#p082544a831)" style="fill: none; stroke: #3f3f3f; stroke-width: 1.5; stroke-linecap: square"/>
    <g clip-path="url(#p082544a831)">
     <use xlink:href="#mae82f84a9a" x="877.5" y="389.265866" style="fill: #ffffff; stroke: #ffffff; stroke-width: 1.125"/>
    </g>
   </g>
   <g id="line2d_21">
    <path d="M 1156.5 580.632471 
L 1156.5 244.085146 
" clip-path="url(#p082544a831)" style="fill: none; stroke: #3f3f3f; stroke-width: 1.875; stroke-linecap: square"/>
   </g>
   <g id="line2d_22">
    <path d="M 1156.5 471.458927 
L 1156.5 378.34867 
" clip-path="url(#p082544a831)" style="fill: none; stroke: #3f3f3f; stroke-width: 5.625; stroke-linecap: square"/>
   </g>
   <g id="line2d_23">
    <path d="M 1156.5 424.967347 
" clip-path="url(#p082544a831)" style="fill: none; stroke: #3f3f3f; stroke-width: 1.5; stroke-linecap: square"/>
    <g clip-path="url(#p082544a831)">
     <use xlink:href="#mae82f84a9a" x="1156.5" y="424.967347" style="fill: #ffffff; stroke: #ffffff; stroke-width: 1.125"/>
    </g>
   </g>
   <g id="patch_3">
    <path d="M 180 640.8 
L 180 86.4 
" style="fill: none; stroke: #000000; stroke-width: 0.8; stroke-linejoin: miter; stroke-linecap: square"/>
   </g>
   <g id="patch_4">
    <path d="M 1296 640.8 
L 1296 86.4 
" style="fill: none; stroke: #000000; stroke-width: 0.8; stroke-linejoin: miter; stroke-linecap: square"/>
   </g>
   <g id="patch_5">
    <path d="M 180 640.8 
L 1296 640.8 
" style="fill: none; stroke: #000000; stroke-width: 0.8; stroke-linejoin: miter; stroke-linecap: square"/>
   </g>
   <g id="patch_6">
    <path d="M 180 86.4 
L 1296 86.4 
" style="fill: none; stroke: #000000; stroke-width: 0.8; stroke-linejoin: miter; stroke-linecap: square"/>
   </g>
   <g id="text_14">
    <!-- cosine similarity of general (distanceFromInitialPrompt), by file name -->
    <g transform="translate(530.608125 80.4) scale(0.12 -0.12)">
     <defs>
      <path id="DejaVuSans-28" d="M 1984 4856 
Q 1566 4138 1362 3434 
Q 1159 2731 1159 2009 
Q 1159 1288 1364 580 
Q 1569 -128 1984 -844 
L 1484 -844 
Q 1016 -109 783 600 
Q 550 1309 550 2009 
Q 550 2706 781 3412 
Q 1013 4119 1484 4856 
L 1984 4856 
z
" transform="scale(0.015625)"/>
      <path id="DejaVuSans-64" d="M 2906 2969 
L 2906 4863 
L 3481 4863 
L 3481 0 
L 2906 0 
L 2906 525 
Q 2725 213 2448 61 
Q 2172 -91 1784 -91 
Q 1150 -91 751 415 
Q 353 922 353 1747 
Q 353 2572 751 3078 
Q 1150 3584 1784 3584 
Q 2172 3584 2448 3432 
Q 2725 3281 2906 2969 
z
M 947 1747 
Q 947 1113 1208 752 
Q 1469 391 1925 391 
Q 2381 391 2643 752 
Q 2906 1113 2906 1747 
Q 2906 2381 2643 2742 
Q 2381 3103 1925 3103 
Q 1469 3103 1208 2742 
Q 947 2381 947 1747 
z
" transform="scale(0.015625)"/>
      <path id="DejaVuSans-46" d="M 628 4666 
L 3309 4666 
L 3309 4134 
L 1259 4134 
L 1259 2759 
L 3109 2759 
L 3109 2228 
L 1259 2228 
L 1259 0 
L 628 0 
L 628 4666 
z
" transform="scale(0.015625)"/>
      <path id="DejaVuSans-49" d="M 628 4666 
L 1259 4666 
L 1259 0 
L 628 0 
L 628 4666 
z
" transform="scale(0.015625)"/>
      <path id="DejaVuSans-50" d="M 1259 4147 
L 1259 2394 
L 2053 2394 
Q 2494 2394 2734 2622 
Q 2975 2850 2975 3272 
Q 2975 3691 2734 3919 
Q 2494 4147 2053 4147 
L 1259 4147 
z
M 628 4666 
L 2053 4666 
Q 2838 4666 3239 4311 
Q 3641 3956 3641 3272 
Q 3641 2581 3239 2228 
Q 2838 1875 2053 1875 
L 1259 1875 
L 1259 0 
L 628 0 
L 628 4666 
z
" transform="scale(0.015625)"/>
      <path id="DejaVuSans-70" d="M 1159 525 
L 1159 -1331 
L 581 -1331 
L 581 3500 
L 1159 3500 
L 1159 2969 
Q 1341 3281 1617 3432 
Q 1894 3584 2278 3584 
Q 2916 3584 3314 3078 
Q 3713 2572 3713 1747 
Q 3713 922 3314 415 
Q 2916 -91 2278 -91 
Q 1894 -91 1617 61 
Q 1341 213 1159 525 
z
M 3116 1747 
Q 3116 2381 2855 2742 
Q 2594 3103 2138 3103 
Q 1681 3103 1420 2742 
Q 1159 2381 1159 1747 
Q 1159 1113 1420 752 
Q 1681 391 2138 391 
Q 2594 391 2855 752 
Q 3116 1113 3116 1747 
z
" transform="scale(0.015625)"/>
      <path id="DejaVuSans-29" d="M 513 4856 
L 1013 4856 
Q 1481 4119 1714 3412 
Q 1947 2706 1947 2009 
Q 1947 1309 1714 600 
Q 1481 -109 1013 -844 
L 513 -844 
Q 928 -128 1133 580 
Q 1338 1288 1338 2009 
Q 1338 2731 1133 3434 
Q 928 4138 513 4856 
z
" transform="scale(0.015625)"/>
      <path id="DejaVuSans-2c" d="M 750 794 
L 1409 794 
L 1409 256 
L 897 -744 
L 494 -744 
L 750 256 
L 750 794 
z
" transform="scale(0.015625)"/>
      <path id="DejaVuSans-62" d="M 3116 1747 
Q 3116 2381 2855 2742 
Q 2594 3103 2138 3103 
Q 1681 3103 1420 2742 
Q 1159 2381 1159 1747 
Q 1159 1113 1420 752 
Q 1681 391 2138 391 
Q 2594 391 2855 752 
Q 3116 1113 3116 1747 
z
M 1159 2969 
Q 1341 3281 1617 3432 
Q 1894 3584 2278 3584 
Q 2916 3584 3314 3078 
Q 3713 2572 3713 1747 
Q 3713 922 3314 415 
Q 2916 -91 2278 -91 
Q 1894 -91 1617 61 
Q 1341 213 1159 525 
L 1159 0 
L 581 0 
L 581 4863 
L 1159 4863 
L 1159 2969 
z
" transform="scale(0.015625)"/>
     </defs>
     <use xlink:href="#DejaVuSans-63"/>
     <use xlink:href="#DejaVuSans-6f" x="54.980469"/>
     <use xlink:href="#DejaVuSans-73" x="116.162109"/>
     <use xlink:href="#DejaVuSans-69" x="168.261719"/>
     <use xlink:href="#DejaVuSans-6e" x="196.044922"/>
     <use xlink:href="#DejaVuSans-65" x="259.423828"/>
     <use xlink:href="#DejaVuSans-20" x="320.947266"/>
     <use xlink:href="#DejaVuSans-73" x="352.734375"/>
     <use xlink:href="#DejaVuSans-69" x="404.833984"/>
     <use xlink:href="#DejaVuSans-6d" x="432.617188"/>
     <use xlink:href="#DejaVuSans-69" x="530.029297"/>
     <use xlink:href="#DejaVuSans-6c" x="557.8125"/>
     <use xlink:href="#DejaVuSans-61" x="585.595703"/>
     <use xlink:href="#DejaVuSans-72" x="646.875"/>
     <use xlink:href="#DejaVuSans-69" x="687.988281"/>
     <use xlink:href="#DejaVuSans-74" x="715.771484"/>
     <use xlink:href="#DejaVuSans-79" x="754.980469"/>
     <use xlink:href="#DejaVuSans-20" x="814.160156"/>
     <use xlink:href="#DejaVuSans-6f" x="845.947266"/>
     <use xlink:href="#DejaVuSans-66" x="907.128906"/>
     <use xlink:href="#DejaVuSans-20" x="942.333984"/>
     <use xlink:href="#DejaVuSans-67" x="974.121094"/>
     <use xlink:href="#DejaVuSans-65" x="1037.597656"/>
     <use xlink:href="#DejaVuSans-6e" x="1099.121094"/>
     <use xlink:href="#DejaVuSans-65" x="1162.5"/>
     <use xlink:href="#DejaVuSans-72" x="1224.023438"/>
     <use xlink:href="#DejaVuSans-61" x="1265.136719"/>
     <use xlink:href="#DejaVuSans-6c" x="1326.416016"/>
     <use xlink:href="#DejaVuSans-20" x="1354.199219"/>
     <use xlink:href="#DejaVuSans-28" x="1385.986328"/>
     <use xlink:href="#DejaVuSans-64" x="1425"/>
     <use xlink:href="#DejaVuSans-69" x="1488.476562"/>
     <use xlink:href="#DejaVuSans-73" x="1516.259766"/>
     <use xlink:href="#DejaVuSans-74" x="1568.359375"/>
     <use xlink:href="#DejaVuSans-61" x="1607.568359"/>
     <use xlink:href="#DejaVuSans-6e" x="1668.847656"/>
     <use xlink:href="#DejaVuSans-63" x="1732.226562"/>
     <use xlink:href="#DejaVuSans-65" x="1787.207031"/>
     <use xlink:href="#DejaVuSans-46" x="1848.730469"/>
     <use xlink:href="#DejaVuSans-72" x="1899"/>
     <use xlink:href="#DejaVuSans-6f" x="1937.863281"/>
     <use xlink:href="#DejaVuSans-6d" x="1999.044922"/>
     <use xlink:href="#DejaVuSans-49" x="2096.457031"/>
     <use xlink:href="#DejaVuSans-6e" x="2125.949219"/>
     <use xlink:href="#DejaVuSans-69" x="2189.328125"/>
     <use xlink:href="#DejaVuSans-74" x="2217.111328"/>
     <use xlink:href="#DejaVuSans-69" x="2256.320312"/>
     <use xlink:href="#DejaVuSans-61" x="2284.103516"/>
     <use xlink:href="#DejaVuSans-6c" x="2345.382812"/>
     <use xlink:href="#DejaVuSans-50" x="2373.166016"/>
     <use xlink:href="#DejaVuSans-72" x="2431.71875"/>
     <use xlink:href="#DejaVuSans-6f" x="2470.582031"/>
     <use xlink:href="#DejaVuSans-6d" x="2531.763672"/>
     <use xlink:href="#DejaVuSans-70" x="2629.175781"/>
     <use xlink:href="#DejaVuSans-74" x="2692.652344"/>
     <use xlink:href="#DejaVuSans-29" x="2731.861328"/>
     <use xlink:href="#DejaVuSans-2c" x="2770.875"/>
     <use xlink:href="#DejaVuSans-20" x="2802.662109"/>
     <use xlink:href="#DejaVuSans-62" x="2834.449219"/>
     <use xlink:href="#DejaVuSans-79" x="2897.925781"/>
     <use xlink:href="#DejaVuSans-20" x="2957.105469"/>
     <use xlink:href="#DejaVuSans-66" x="2988.892578"/>
     <use xlink:href="#DejaVuSans-69" x="3024.097656"/>
     <use xlink:href="#DejaVuSans-6c" x="3051.880859"/>
     <use xlink:href="#DejaVuSans-65" x="3079.664062"/>
     <use xlink:href="#DejaVuSans-20" x="3141.1875"/>
     <use xlink:href="#DejaVuSans-6e" x="3172.974609"/>
     <use xlink:href="#DejaVuSans-61" x="3236.353516"/>
     <use xlink:href="#DejaVuSans-6d" x="3297.632812"/>
     <use xlink:href="#DejaVuSans-65" x="3395.044922"/>
    </g>
   </g>
  </g>
 </g>
 <defs>
  <clipPath id="p082544a831">
   <rect x="180" y="86.4" width="1116" height="554.4"/>
  </clipPath>
 </defs>
</svg>
