<?xml version="1.0" encoding="utf-8" standalone="no"?>
<!DOCTYPE svg PUBLIC "-//W3C//DTD SVG 1.1//EN"
  "http://www.w3.org/Graphics/SVG/1.1/DTD/svg11.dtd">
<svg xmlns:xlink="http://www.w3.org/1999/xlink" width="1440pt" height="720pt" viewBox="0 0 1440 720" xmlns="http://www.w3.org/2000/svg" version="1.1">
 <metadata>
  <rdf:RDF xmlns:dc="http://purl.org/dc/elements/1.1/" xmlns:cc="http://creativecommons.org/ns#" xmlns:rdf="http://www.w3.org/1999/02/22-rdf-syntax-ns#">
   <cc:Work>
    <dc:type rdf:resource="http://purl.org/dc/dcmitype/StillImage"/>
    <dc:date>2024-07-26T17:28:52.498143</dc:date>
    <dc:format>image/svg+xml</dc:format>
    <dc:creator>
     <cc:Agent>
      <dc:title>Matplotlib v3.8.0, https://matplotlib.org/</dc:title>
     </cc:Agent>
    </dc:creator>
   </cc:Work>
  </rdf:RDF>
 </metadata>
 <defs>
  <style type="text/css">*{stroke-linejoin: round; stroke-linecap: butt}</style>
 </defs>
 <g id="figure_1">
  <g id="patch_1">
   <path d="M 0 720 
L 1440 720 
L 1440 0 
L 0 0 
z
" style="fill: #ffffff"/>
  </g>
  <g id="axes_1">
   <g id="patch_2">
    <path d="M 180 640.8 
L 1296 640.8 
L 1296 86.4 
L 180 86.4 
z
" style="fill: #ffffff"/>
   </g>
   <g id="PolyCollection_1">
    <defs>
     <path id="m5b8c41e05d" d="M 235.896524 -126.276487 
L 235.703476 -126.276487 
L 235.653505 -131.135823 
L 235.586139 -135.995158 
L 235.499191 -140.854494 
L 235.391431 -145.713829 
L 235.262572 -150.573164 
L 235.112839 -155.4325 
L 234.942131 -160.291835 
L 234.748956 -165.15117 
L 234.52951 -170.010506 
L 234.277278 -174.869841 
L 233.98345 -179.729176 
L 233.638171 -184.588512 
L 233.232296 -189.447847 
L 232.759106 -194.307182 
L 232.215387 -199.166518 
L 231.60152 -204.025853 
L 230.920595 -208.885188 
L 230.176979 -213.744524 
L 229.374952 -218.603859 
L 228.517922 -223.463194 
L 227.608409 -228.32253 
L 226.648501 -233.181865 
L 225.640214 -238.0412 
L 224.585191 -242.900536 
L 223.483497 -247.759871 
L 222.331884 -252.619206 
L 221.122358 -257.478542 
L 219.842178 -262.337877 
L 218.47609 -267.197212 
L 217.010924 -272.056548 
L 215.441729 -276.915883 
L 213.777783 -281.775218 
L 212.046478 -286.634554 
L 210.293446 -291.493889 
L 208.578264 -296.353224 
L 206.966407 -301.21256 
L 205.519328 -306.071895 
L 204.28516 -310.93123 
L 203.292371 -315.790566 
L 202.547782 -320.649901 
L 202.03896 -325.509236 
L 201.73973 -330.368572 
L 201.616681 -335.227907 
L 201.634576 -340.087242 
L 201.75933 -344.946578 
L 201.958432 -349.805913 
L 202.199951 -354.665248 
L 202.451881 -359.524584 
L 202.683457 -364.383919 
L 202.869102 -369.243255 
L 202.994333 -374.10259 
L 203.061848 -378.961925 
L 203.095498 -383.821261 
L 203.140338 -388.680596 
L 203.258006 -393.539931 
L 203.518071 -398.399267 
L 203.987099 -403.258602 
L 204.717719 -408.117937 
L 205.739873 -412.977273 
L 207.055844 -417.836608 
L 208.639805 -422.695943 
L 210.441724 -427.555279 
L 212.394704 -432.414614 
L 214.42427 -437.273949 
L 216.457834 -442.133285 
L 218.432696 -446.99262 
L 220.301356 -451.851955 
L 222.033618 -456.711291 
L 223.615722 -461.570626 
L 225.04731 -466.429961 
L 226.337285 -471.289297 
L 227.499544 -476.148632 
L 228.549247 -481.007967 
L 229.499877 -485.867303 
L 230.361127 -490.726638 
L 231.137546 -495.585973 
L 231.827926 -500.445309 
L 232.425576 -505.304644 
L 232.919652 -510.163979 
L 233.297643 -515.023315 
L 233.548885 -519.88265 
L 233.668646 -524.741985 
L 233.661997 -529.601321 
L 233.546472 -534.460656 
L 233.352577 -539.319991 
L 233.12152 -544.179327 
L 232.900202 -549.038662 
L 232.734252 -553.897997 
L 232.660596 -558.757333 
L 232.701312 -563.616668 
L 232.860362 -568.476003 
L 233.123995 -573.335339 
L 233.464644 -578.194674 
L 233.847183 -583.054009 
L 234.235841 -587.913345 
L 234.600125 -592.77268 
L 234.91858 -597.632016 
L 235.179992 -602.491351 
L 235.382396 -607.350686 
L 236.217604 -607.350686 
L 236.217604 -607.350686 
L 236.420008 -602.491351 
L 236.68142 -597.632016 
L 236.999875 -592.77268 
L 237.364159 -587.913345 
L 237.752817 -583.054009 
L 238.135356 -578.194674 
L 238.476005 -573.335339 
L 238.739638 -568.476003 
L 238.898688 -563.616668 
L 238.939404 -558.757333 
L 238.865748 -553.897997 
L 238.699798 -549.038662 
L 238.47848 -544.179327 
L 238.247423 -539.319991 
L 238.053528 -534.460656 
L 237.938003 -529.601321 
L 237.931354 -524.741985 
L 238.051115 -519.88265 
L 238.302357 -515.023315 
L 238.680348 -510.163979 
L 239.174424 -505.304644 
L 239.772074 -500.445309 
L 240.462454 -495.585973 
L 241.238873 -490.726638 
L 242.100123 -485.867303 
L 243.050753 -481.007967 
L 244.100456 -476.148632 
L 245.262715 -471.289297 
L 246.55269 -466.429961 
L 247.984278 -461.570626 
L 249.566382 -456.711291 
L 251.298644 -451.851955 
L 253.167304 -446.99262 
L 255.142166 -442.133285 
L 257.17573 -437.273949 
L 259.205296 -432.414614 
L 261.158276 -427.555279 
L 262.960195 -422.695943 
L 264.544156 -417.836608 
L 265.860127 -412.977273 
L 266.882281 -408.117937 
L 267.612901 -403.258602 
L 268.081929 -398.399267 
L 268.341994 -393.539931 
L 268.459662 -388.680596 
L 268.504502 -383.821261 
L 268.538152 -378.961925 
L 268.605667 -374.10259 
L 268.730898 -369.243255 
L 268.916543 -364.383919 
L 269.148119 -359.524584 
L 269.400049 -354.665248 
L 269.641568 -349.805913 
L 269.84067 -344.946578 
L 269.965424 -340.087242 
L 269.983319 -335.227907 
L 269.86027 -330.368572 
L 269.56104 -325.509236 
L 269.052218 -320.649901 
L 268.307629 -315.790566 
L 267.31484 -310.93123 
L 266.080672 -306.071895 
L 264.633593 -301.21256 
L 263.021736 -296.353224 
L 261.306554 -291.493889 
L 259.553522 -286.634554 
L 257.822217 -281.775218 
L 256.158271 -276.915883 
L 254.589076 -272.056548 
L 253.12391 -267.197212 
L 251.757822 -262.337877 
L 250.477642 -257.478542 
L 249.268116 -252.619206 
L 248.116503 -247.759871 
L 247.014809 -242.900536 
L 245.959786 -238.0412 
L 244.951499 -233.181865 
L 243.991591 -228.32253 
L 243.082078 -223.463194 
L 242.225048 -218.603859 
L 241.423021 -213.744524 
L 240.679405 -208.885188 
L 239.99848 -204.025853 
L 239.384613 -199.166518 
L 238.840894 -194.307182 
L 238.367704 -189.447847 
L 237.961829 -184.588512 
L 237.61655 -179.729176 
L 237.322722 -174.869841 
L 237.07049 -170.010506 
L 236.851044 -165.15117 
L 236.657869 -160.291835 
L 236.487161 -155.4325 
L 236.337428 -150.573164 
L 236.208569 -145.713829 
L 236.100809 -140.854494 
L 236.013861 -135.995158 
L 235.946495 -131.135823 
L 235.896524 -126.276487 
z
" style="stroke: #3f3f3f; stroke-width: 1.25"/>
    </defs>
    <g clip-path="url(#p17a80713ed)">
     <use xlink:href="#m5b8c41e05d" x="0" y="720" style="fill: #3274a1; stroke: #3f3f3f; stroke-width: 1.25"/>
    </g>
   </g>
   <g id="PolyCollection_2">
    <defs>
     <path id="me80e3d7cd5" d="M 347.555675 -111.364198 
L 347.244325 -111.364198 
L 347.14628 -116.384761 
L 347.000572 -121.405325 
L 346.791936 -126.425889 
L 346.503802 -131.446452 
L 346.119554 -136.467016 
L 345.624095 -141.48758 
L 345.005511 -146.508143 
L 344.256558 -151.528707 
L 343.375744 -156.549271 
L 342.367842 -161.569834 
L 341.243769 -166.590398 
L 340.019896 -171.610962 
L 338.716863 -176.631525 
L 337.358034 -181.652089 
L 335.967671 -186.672653 
L 334.568946 -191.693216 
L 333.182008 -196.71378 
L 331.822429 -201.734344 
L 330.50044 -206.754907 
L 329.221293 -211.775471 
L 327.986813 -216.796034 
L 326.79778 -221.816598 
L 325.656431 -226.837162 
L 324.568196 -231.857725 
L 323.541995 -236.878289 
L 322.588907 -241.898853 
L 321.719555 -246.919416 
L 320.940997 -251.93998 
L 320.25397 -256.960544 
L 319.65118 -261.981107 
L 319.116997 -267.001671 
L 318.628646 -272.022235 
L 318.158839 -277.042798 
L 317.679725 -282.063362 
L 317.167927 -287.083926 
L 316.610159 -292.104489 
L 316.008531 -297.125053 
L 315.384309 -302.145617 
L 314.778799 -307.16618 
L 314.250402 -312.186744 
L 313.867648 -317.207308 
L 313.699083 -322.227871 
L 313.801793 -327.248435 
L 314.210894 -332.268999 
L 314.932268 -337.289562 
L 315.940108 -342.310126 
L 317.179846 -347.33069 
L 318.575843 -352.351253 
L 320.042331 -357.371817 
L 321.495537 -362.392381 
L 322.864898 -367.412944 
L 324.101573 -372.433508 
L 325.183095 -377.454072 
L 326.113741 -382.474635 
L 326.920888 -387.495199 
L 327.648264 -392.515763 
L 328.347363 -397.536326 
L 329.068536 -402.55689 
L 329.85316 -407.577454 
L 330.728053 -412.598017 
L 331.702784 -417.618581 
L 332.769991 -422.639145 
L 333.90827 -427.659708 
L 335.086753 -432.680272 
L 336.270391 -437.700836 
L 337.424958 -442.721399 
L 338.521108 -447.741963 
L 339.537106 -452.762527 
L 340.460146 -457.78309 
L 341.286364 -462.803654 
L 342.019739 -467.824218 
L 342.670114 -472.844781 
L 343.250665 -477.865345 
L 343.775168 -482.885908 
L 344.255525 -487.906472 
L 344.699946 -492.927036 
L 345.112096 -497.947599 
L 345.491308 -502.968163 
L 345.8337 -507.988727 
L 346.133888 -513.00929 
L 346.38686 -518.029854 
L 346.589613 -523.050418 
L 346.742272 -528.070981 
L 346.848528 -533.091545 
L 346.915385 -538.112109 
L 346.952324 -543.132672 
L 346.970048 -548.153236 
L 346.97905 -553.1738 
L 346.988268 -558.194363 
L 347.004065 -563.214927 
L 347.029727 -568.235491 
L 347.065536 -573.256054 
L 347.109373 -578.276618 
L 347.157644 -583.297182 
L 347.206308 -588.317745 
L 347.25176 -593.338309 
L 347.291401 -598.358873 
L 347.323867 -603.379436 
L 347.348932 -608.4 
L 347.451068 -608.4 
L 347.451068 -608.4 
L 347.476133 -603.379436 
L 347.508599 -598.358873 
L 347.54824 -593.338309 
L 347.593692 -588.317745 
L 347.642356 -583.297182 
L 347.690627 -578.276618 
L 347.734464 -573.256054 
L 347.770273 -568.235491 
L 347.795935 -563.214927 
L 347.811732 -558.194363 
L 347.82095 -553.1738 
L 347.829952 -548.153236 
L 347.847676 -543.132672 
L 347.884615 -538.112109 
L 347.951472 -533.091545 
L 348.057728 -528.070981 
L 348.210387 -523.050418 
L 348.41314 -518.029854 
L 348.666112 -513.00929 
L 348.9663 -507.988727 
L 349.308692 -502.968163 
L 349.687904 -497.947599 
L 350.100054 -492.927036 
L 350.544475 -487.906472 
L 351.024832 -482.885908 
L 351.549335 -477.865345 
L 352.129886 -472.844781 
L 352.780261 -467.824218 
L 353.513636 -462.803654 
L 354.339854 -457.78309 
L 355.262894 -452.762527 
L 356.278892 -447.741963 
L 357.375042 -442.721399 
L 358.529609 -437.700836 
L 359.713247 -432.680272 
L 360.89173 -427.659708 
L 362.030009 -422.639145 
L 363.097216 -417.618581 
L 364.071947 -412.598017 
L 364.94684 -407.577454 
L 365.731464 -402.55689 
L 366.452637 -397.536326 
L 367.151736 -392.515763 
L 367.879112 -387.495199 
L 368.686259 -382.474635 
L 369.616905 -377.454072 
L 370.698427 -372.433508 
L 371.935102 -367.412944 
L 373.304463 -362.392381 
L 374.757669 -357.371817 
L 376.224157 -352.351253 
L 377.620154 -347.33069 
L 378.859892 -342.310126 
L 379.867732 -337.289562 
L 380.589106 -332.268999 
L 380.998207 -327.248435 
L 381.100917 -322.227871 
L 380.932352 -317.207308 
L 380.549598 -312.186744 
L 380.021201 -307.16618 
L 379.415691 -302.145617 
L 378.791469 -297.125053 
L 378.189841 -292.104489 
L 377.632073 -287.083926 
L 377.120275 -282.063362 
L 376.641161 -277.042798 
L 376.171354 -272.022235 
L 375.683003 -267.001671 
L 375.14882 -261.981107 
L 374.54603 -256.960544 
L 373.859003 -251.93998 
L 373.080445 -246.919416 
L 372.211093 -241.898853 
L 371.258005 -236.878289 
L 370.231804 -231.857725 
L 369.143569 -226.837162 
L 368.00222 -221.816598 
L 366.813187 -216.796034 
L 365.578707 -211.775471 
L 364.29956 -206.754907 
L 362.977571 -201.734344 
L 361.617992 -196.71378 
L 360.231054 -191.693216 
L 358.832329 -186.672653 
L 357.441966 -181.652089 
L 356.083137 -176.631525 
L 354.780104 -171.610962 
L 353.556231 -166.590398 
L 352.432158 -161.569834 
L 351.424256 -156.549271 
L 350.543442 -151.528707 
L 349.794489 -146.508143 
L 349.175905 -141.48758 
L 348.680446 -136.467016 
L 348.296198 -131.446452 
L 348.008064 -126.425889 
L 347.799428 -121.405325 
L 347.65372 -116.384761 
L 347.555675 -111.364198 
z
" style="stroke: #3f3f3f; stroke-width: 1.25"/>
    </defs>
    <g clip-path="url(#p17a80713ed)">
     <use xlink:href="#me80e3d7cd5" x="0" y="720" style="fill: #3274a1; stroke: #3f3f3f; stroke-width: 1.25"/>
    </g>
   </g>
   <g id="PolyCollection_3">
    <defs>
     <path id="mb34fb6f763" d="M 459.243314 -118.348038 
L 458.756686 -118.348038 
L 458.618485 -122.684304 
L 458.420015 -127.020571 
L 458.144641 -131.356838 
L 457.775325 -135.693104 
L 457.296223 -140.029371 
L 456.694448 -144.365638 
L 455.961631 -148.701904 
L 455.094889 -153.038171 
L 454.096916 -157.374438 
L 452.975067 -161.710704 
L 451.739631 -166.046971 
L 450.401734 -170.383238 
L 448.971442 -174.719505 
L 447.45666 -179.055771 
L 445.863134 -183.392038 
L 444.195602 -187.728305 
L 442.459745 -192.064571 
L 440.664441 -196.400838 
L 438.823784 -200.737105 
L 436.958457 -205.073371 
L 435.096263 -209.409638 
L 433.271759 -213.745905 
L 431.524971 -218.082171 
L 429.89918 -222.418438 
L 428.437739 -226.754705 
L 427.180023 -231.090972 
L 426.15687 -235.427238 
L 425.386206 -239.763505 
L 424.869761 -244.099772 
L 424.59182 -248.436038 
L 424.5206 -252.772305 
L 424.612291 -257.108572 
L 424.817099 -261.444838 
L 425.086123 -265.781105 
L 425.377642 -270.117372 
L 425.661627 -274.453638 
L 425.921736 -278.789905 
L 426.154776 -283.126172 
L 426.368177 -287.462438 
L 426.576358 -291.798705 
L 426.79694 -296.134972 
L 427.047508 -300.471239 
L 427.343286 -304.807505 
L 427.695784 -309.143772 
L 428.112269 -313.480039 
L 428.595856 -317.816305 
L 429.146055 -322.152572 
L 429.759643 -326.488839 
L 430.431717 -330.825105 
L 431.156776 -335.161372 
L 431.929613 -339.497639 
L 432.745841 -343.833905 
L 433.601964 -348.170172 
L 434.495024 -352.506439 
L 435.422015 -356.842705 
L 436.379274 -361.178972 
L 437.362075 -365.515239 
L 438.36454 -369.851506 
L 439.379884 -374.187772 
L 440.400886 -378.524039 
L 441.420463 -382.860306 
L 442.432169 -387.196572 
L 443.430516 -391.532839 
L 444.411038 -395.869106 
L 445.370093 -400.205372 
L 446.304471 -404.541639 
L 447.210927 -408.877906 
L 448.085784 -413.214172 
L 448.924756 -417.550439 
L 449.723086 -421.886706 
L 450.475985 -426.222972 
L 451.17929 -430.559239 
L 451.830157 -434.895506 
L 452.427613 -439.231773 
L 452.972813 -443.568039 
L 453.468936 -447.904306 
L 453.920776 -452.240573 
L 454.334132 -456.576839 
L 454.715157 -460.913106 
L 455.069792 -465.249373 
L 455.403358 -469.585639 
L 455.720322 -473.921906 
L 456.024188 -478.258173 
L 456.317446 -482.594439 
L 456.60156 -486.930706 
L 456.876946 -491.266973 
L 457.142987 -495.603239 
L 457.398108 -499.939506 
L 457.639968 -504.275773 
L 457.865746 -508.61204 
L 458.072541 -512.948306 
L 458.257789 -517.284573 
L 458.419652 -521.62084 
L 458.557288 -525.957106 
L 458.670974 -530.293373 
L 458.762052 -534.62964 
L 458.832736 -538.965906 
L 458.885826 -543.302173 
L 458.924386 -547.63844 
L 459.075614 -547.63844 
L 459.075614 -547.63844 
L 459.114174 -543.302173 
L 459.167264 -538.965906 
L 459.237948 -534.62964 
L 459.329026 -530.293373 
L 459.442712 -525.957106 
L 459.580348 -521.62084 
L 459.742211 -517.284573 
L 459.927459 -512.948306 
L 460.134254 -508.61204 
L 460.360032 -504.275773 
L 460.601892 -499.939506 
L 460.857013 -495.603239 
L 461.123054 -491.266973 
L 461.39844 -486.930706 
L 461.682554 -482.594439 
L 461.975812 -478.258173 
L 462.279678 -473.921906 
L 462.596642 -469.585639 
L 462.930208 -465.249373 
L 463.284843 -460.913106 
L 463.665868 -456.576839 
L 464.079224 -452.240573 
L 464.531064 -447.904306 
L 465.027187 -443.568039 
L 465.572387 -439.231773 
L 466.169843 -434.895506 
L 466.82071 -430.559239 
L 467.524015 -426.222972 
L 468.276914 -421.886706 
L 469.075244 -417.550439 
L 469.914216 -413.214172 
L 470.789073 -408.877906 
L 471.695529 -404.541639 
L 472.629907 -400.205372 
L 473.588962 -395.869106 
L 474.569484 -391.532839 
L 475.567831 -387.196572 
L 476.579537 -382.860306 
L 477.599114 -378.524039 
L 478.620116 -374.187772 
L 479.63546 -369.851506 
L 480.637925 -365.515239 
L 481.620726 -361.178972 
L 482.577985 -356.842705 
L 483.504976 -352.506439 
L 484.398036 -348.170172 
L 485.254159 -343.833905 
L 486.070387 -339.497639 
L 486.843224 -335.161372 
L 487.568283 -330.825105 
L 488.240357 -326.488839 
L 488.853945 -322.152572 
L 489.404144 -317.816305 
L 489.887731 -313.480039 
L 490.304216 -309.143772 
L 490.656714 -304.807505 
L 490.952492 -300.471239 
L 491.20306 -296.134972 
L 491.423642 -291.798705 
L 491.631823 -287.462438 
L 491.845224 -283.126172 
L 492.078264 -278.789905 
L 492.338373 -274.453638 
L 492.622358 -270.117372 
L 492.913877 -265.781105 
L 493.182901 -261.444838 
L 493.387709 -257.108572 
L 493.4794 -252.772305 
L 493.40818 -248.436038 
L 493.130239 -244.099772 
L 492.613794 -239.763505 
L 491.84313 -235.427238 
L 490.819977 -231.090972 
L 489.562261 -226.754705 
L 488.10082 -222.418438 
L 486.475029 -218.082171 
L 484.728241 -213.745905 
L 482.903737 -209.409638 
L 481.041543 -205.073371 
L 479.176216 -200.737105 
L 477.335559 -196.400838 
L 475.540255 -192.064571 
L 473.804398 -187.728305 
L 472.136866 -183.392038 
L 470.54334 -179.055771 
L 469.028558 -174.719505 
L 467.598266 -170.383238 
L 466.260369 -166.046971 
L 465.024933 -161.710704 
L 463.903084 -157.374438 
L 462.905111 -153.038171 
L 462.038369 -148.701904 
L 461.305552 -144.365638 
L 460.703777 -140.029371 
L 460.224675 -135.693104 
L 459.855359 -131.356838 
L 459.579985 -127.020571 
L 459.381515 -122.684304 
L 459.243314 -118.348038 
z
" style="stroke: #3f3f3f; stroke-width: 1.25"/>
    </defs>
    <g clip-path="url(#p17a80713ed)">
     <use xlink:href="#mb34fb6f763" x="0" y="720" style="fill: #3274a1; stroke: #3f3f3f; stroke-width: 1.25"/>
    </g>
   </g>
   <g id="PolyCollection_4">
    <defs>
     <path id="m7d32e56b7b" d="M 570.969423 -120.65606 
L 570.230577 -120.65606 
L 570.02997 -124.816048 
L 569.745969 -128.976037 
L 569.356988 -133.136025 
L 568.841407 -137.296014 
L 568.179786 -141.456003 
L 567.357322 -145.615991 
L 566.36612 -149.77598 
L 565.206814 -153.935968 
L 563.889125 -158.095957 
L 562.43116 -162.255945 
L 560.85751 -166.415934 
L 559.196505 -170.575923 
L 557.47718 -174.735911 
L 555.726532 -178.8959 
L 553.967536 -183.055888 
L 552.218101 -187.215877 
L 550.490939 -191.375865 
L 548.794103 -195.535854 
L 547.131957 -199.695843 
L 545.506452 -203.855831 
L 543.918713 -208.01582 
L 542.371002 -212.175808 
L 540.869037 -216.335797 
L 539.42441 -220.495785 
L 538.056557 -224.655774 
L 536.793575 -228.815763 
L 535.671244 -232.975751 
L 534.729933 -237.13574 
L 534.009625 -241.295728 
L 533.543837 -245.455717 
L 533.353616 -249.615706 
L 533.442902 -253.775694 
L 533.796257 -257.935683 
L 534.379516 -262.095671 
L 535.143216 -266.25566 
L 536.028156 -270.415648 
L 536.972076 -274.575637 
L 537.916308 -278.735626 
L 538.811451 -282.895614 
L 539.621353 -287.055603 
L 540.325105 -291.215591 
L 540.917034 -295.37558 
L 541.404997 -299.535568 
L 541.807461 -303.695557 
L 542.149906 -307.855546 
L 542.461142 -312.015534 
L 542.769998 -316.175523 
L 543.102711 -320.335511 
L 543.48115 -324.4955 
L 543.921814 -328.655489 
L 544.435446 -332.815477 
L 545.027039 -336.975466 
L 545.696112 -341.135454 
L 546.437205 -345.295443 
L 547.240661 -349.455431 
L 548.093788 -353.61542 
L 548.982406 -357.775409 
L 549.892657 -361.935397 
L 550.812775 -366.095386 
L 551.734466 -370.255374 
L 552.653534 -374.415363 
L 553.569593 -378.575351 
L 554.484913 -382.73534 
L 555.402698 -386.895329 
L 556.325226 -391.055317 
L 557.252283 -395.215306 
L 558.180247 -399.375294 
L 559.101934 -403.535283 
L 560.007196 -407.695271 
L 560.884057 -411.85526 
L 561.720121 -416.015249 
L 562.504006 -420.175237 
L 563.226576 -424.335226 
L 563.881825 -428.495214 
L 564.467357 -432.655203 
L 564.984437 -436.815192 
L 565.437669 -440.97518 
L 565.834377 -445.135169 
L 566.183789 -449.295157 
L 566.496147 -453.455146 
L 566.781813 -457.615134 
L 567.050471 -461.775123 
L 567.310461 -465.935112 
L 567.56826 -470.0951 
L 567.828145 -474.255089 
L 568.092031 -478.415077 
L 568.359514 -482.575066 
L 568.628104 -486.735054 
L 568.893664 -490.895043 
L 569.151 -495.055032 
L 569.394554 -499.21502 
L 569.61911 -503.375009 
L 569.820404 -507.534997 
L 569.995581 -511.694986 
L 570.143408 -515.854974 
L 570.264266 -520.014963 
L 570.359927 -524.174952 
L 570.433189 -528.33494 
L 570.487454 -532.494929 
L 570.712546 -532.494929 
L 570.712546 -532.494929 
L 570.766811 -528.33494 
L 570.840073 -524.174952 
L 570.935734 -520.014963 
L 571.056592 -515.854974 
L 571.204419 -511.694986 
L 571.379596 -507.534997 
L 571.58089 -503.375009 
L 571.805446 -499.21502 
L 572.049 -495.055032 
L 572.306336 -490.895043 
L 572.571896 -486.735054 
L 572.840486 -482.575066 
L 573.107969 -478.415077 
L 573.371855 -474.255089 
L 573.63174 -470.0951 
L 573.889539 -465.935112 
L 574.149529 -461.775123 
L 574.418187 -457.615134 
L 574.703853 -453.455146 
L 575.016211 -449.295157 
L 575.365623 -445.135169 
L 575.762331 -440.97518 
L 576.215563 -436.815192 
L 576.732643 -432.655203 
L 577.318175 -428.495214 
L 577.973424 -424.335226 
L 578.695994 -420.175237 
L 579.479879 -416.015249 
L 580.315943 -411.85526 
L 581.192804 -407.695271 
L 582.098066 -403.535283 
L 583.019753 -399.375294 
L 583.947717 -395.215306 
L 584.874774 -391.055317 
L 585.797302 -386.895329 
L 586.715087 -382.73534 
L 587.630407 -378.575351 
L 588.546466 -374.415363 
L 589.465534 -370.255374 
L 590.387225 -366.095386 
L 591.307343 -361.935397 
L 592.217594 -357.775409 
L 593.106212 -353.61542 
L 593.959339 -349.455431 
L 594.762795 -345.295443 
L 595.503888 -341.135454 
L 596.172961 -336.975466 
L 596.764554 -332.815477 
L 597.278186 -328.655489 
L 597.71885 -324.4955 
L 598.097289 -320.335511 
L 598.430002 -316.175523 
L 598.738858 -312.015534 
L 599.050094 -307.855546 
L 599.392539 -303.695557 
L 599.795003 -299.535568 
L 600.282966 -295.37558 
L 600.874895 -291.215591 
L 601.578647 -287.055603 
L 602.388549 -282.895614 
L 603.283692 -278.735626 
L 604.227924 -274.575637 
L 605.171844 -270.415648 
L 606.056784 -266.25566 
L 606.820484 -262.095671 
L 607.403743 -257.935683 
L 607.757098 -253.775694 
L 607.846384 -249.615706 
L 607.656163 -245.455717 
L 607.190375 -241.295728 
L 606.470067 -237.13574 
L 605.528756 -232.975751 
L 604.406425 -228.815763 
L 603.143443 -224.655774 
L 601.77559 -220.495785 
L 600.330963 -216.335797 
L 598.828998 -212.175808 
L 597.281287 -208.01582 
L 595.693548 -203.855831 
L 594.068043 -199.695843 
L 592.405897 -195.535854 
L 590.709061 -191.375865 
L 588.981899 -187.215877 
L 587.232464 -183.055888 
L 585.473468 -178.8959 
L 583.72282 -174.735911 
L 582.003495 -170.575923 
L 580.34249 -166.415934 
L 578.76884 -162.255945 
L 577.310875 -158.095957 
L 575.993186 -153.935968 
L 574.83388 -149.77598 
L 573.842678 -145.615991 
L 573.020214 -141.456003 
L 572.358593 -137.296014 
L 571.843012 -133.136025 
L 571.454031 -128.976037 
L 571.17003 -124.816048 
L 570.969423 -120.65606 
z
" style="stroke: #3f3f3f; stroke-width: 1.25"/>
    </defs>
    <g clip-path="url(#p17a80713ed)">
     <use xlink:href="#m7d32e56b7b" x="0" y="720" style="fill: #3274a1; stroke: #3f3f3f; stroke-width: 1.25"/>
    </g>
   </g>
   <g id="PolyCollection_5">
    <defs>
     <path id="mf1fddfa451" d="M 682.357177 -106.040808 
L 682.042823 -106.040808 
L 681.95324 -110.309816 
L 681.822567 -114.578825 
L 681.637007 -118.847833 
L 681.380278 -123.116842 
L 681.033996 -127.38585 
L 680.578398 -131.654859 
L 679.993455 -135.923868 
L 679.260326 -140.192876 
L 678.363004 -144.461885 
L 677.289963 -148.730893 
L 676.035528 -152.999902 
L 674.600755 -157.26891 
L 672.993702 -161.537919 
L 671.229145 -165.806927 
L 669.32793 -170.075936 
L 667.316235 -174.344945 
L 665.224887 -178.613953 
L 663.088703 -182.882962 
L 660.945582 -187.15197 
L 658.834975 -191.420979 
L 656.795493 -195.689987 
L 654.861797 -199.958996 
L 653.06136 -204.228004 
L 651.412086 -208.497013 
L 649.921767 -212.766022 
L 648.589935 -217.03503 
L 647.411937 -221.304039 
L 646.38422 -225.573047 
L 645.509254 -229.842056 
L 644.798462 -234.111064 
L 644.272022 -238.380073 
L 643.955317 -242.649081 
L 643.872773 -246.91809 
L 644.040629 -251.187099 
L 644.46045 -255.456107 
L 645.115038 -259.725116 
L 645.967771 -263.994124 
L 646.965619 -268.263133 
L 648.045271 -272.532141 
L 649.141207 -276.80115 
L 650.194182 -281.070158 
L 651.158572 -285.339167 
L 652.007283 -289.608176 
L 652.733441 -293.877184 
L 653.34874 -298.146193 
L 653.878985 -302.415201 
L 654.357949 -306.68421 
L 654.820918 -310.953218 
L 655.299277 -315.222227 
L 655.817041 -319.491235 
L 656.389695 -323.760244 
L 657.024997 -328.029253 
L 657.724962 -332.298261 
L 658.488045 -336.56727 
L 659.310732 -340.836278 
L 660.18813 -345.105287 
L 661.11369 -349.374295 
L 662.078531 -353.643304 
L 663.071001 -357.912312 
L 664.076979 -362.181321 
L 665.081052 -366.45033 
L 666.068366 -370.719338 
L 667.026633 -374.988347 
L 667.94771 -379.257355 
L 668.828299 -383.526364 
L 669.669575 -387.795372 
L 670.475891 -392.064381 
L 671.252911 -396.333389 
L 672.005679 -400.602398 
L 672.737056 -404.871407 
L 673.446856 -409.140415 
L 674.131799 -413.409424 
L 674.786191 -417.678432 
L 675.40315 -421.947441 
L 675.976039 -426.216449 
L 676.499853 -430.485458 
L 676.972268 -434.754466 
L 677.394221 -439.023475 
L 677.769942 -443.292484 
L 678.106476 -447.561492 
L 678.412792 -451.830501 
L 678.698626 -456.099509 
L 678.973246 -460.368518 
L 679.244304 -464.637526 
L 679.516958 -468.906535 
L 679.793376 -473.175543 
L 680.072692 -477.444552 
L 680.351405 -481.713561 
L 680.624131 -485.982569 
L 680.884572 -490.251578 
L 681.126514 -494.520586 
L 681.344704 -498.789595 
L 681.535473 -503.058603 
L 681.69704 -507.327612 
L 681.829513 -511.59662 
L 681.934622 -515.865629 
L 682.015297 -520.134638 
L 682.07518 -524.403646 
L 682.118153 -528.672655 
L 682.281847 -528.672655 
L 682.281847 -528.672655 
L 682.32482 -524.403646 
L 682.384703 -520.134638 
L 682.465378 -515.865629 
L 682.570487 -511.59662 
L 682.70296 -507.327612 
L 682.864527 -503.058603 
L 683.055296 -498.789595 
L 683.273486 -494.520586 
L 683.515428 -490.251578 
L 683.775869 -485.982569 
L 684.048595 -481.713561 
L 684.327308 -477.444552 
L 684.606624 -473.175543 
L 684.883042 -468.906535 
L 685.155696 -464.637526 
L 685.426754 -460.368518 
L 685.701374 -456.099509 
L 685.987208 -451.830501 
L 686.293524 -447.561492 
L 686.630058 -443.292484 
L 687.005779 -439.023475 
L 687.427732 -434.754466 
L 687.900147 -430.485458 
L 688.423961 -426.216449 
L 688.99685 -421.947441 
L 689.613809 -417.678432 
L 690.268201 -413.409424 
L 690.953144 -409.140415 
L 691.662944 -404.871407 
L 692.394321 -400.602398 
L 693.147089 -396.333389 
L 693.924109 -392.064381 
L 694.730425 -387.795372 
L 695.571701 -383.526364 
L 696.45229 -379.257355 
L 697.373367 -374.988347 
L 698.331634 -370.719338 
L 699.318948 -366.45033 
L 700.323021 -362.181321 
L 701.328999 -357.912312 
L 702.321469 -353.643304 
L 703.28631 -349.374295 
L 704.21187 -345.105287 
L 705.089268 -340.836278 
L 705.911955 -336.56727 
L 706.675038 -332.298261 
L 707.375003 -328.029253 
L 708.010305 -323.760244 
L 708.582959 -319.491235 
L 709.100723 -315.222227 
L 709.579082 -310.953218 
L 710.042051 -306.68421 
L 710.521015 -302.415201 
L 711.05126 -298.146193 
L 711.666559 -293.877184 
L 712.392717 -289.608176 
L 713.241428 -285.339167 
L 714.205818 -281.070158 
L 715.258793 -276.80115 
L 716.354729 -272.532141 
L 717.434381 -268.263133 
L 718.432229 -263.994124 
L 719.284962 -259.725116 
L 719.93955 -255.456107 
L 720.359371 -251.187099 
L 720.527227 -246.91809 
L 720.444683 -242.649081 
L 720.127978 -238.380073 
L 719.601538 -234.111064 
L 718.890746 -229.842056 
L 718.01578 -225.573047 
L 716.988063 -221.304039 
L 715.810065 -217.03503 
L 714.478233 -212.766022 
L 712.987914 -208.497013 
L 711.33864 -204.228004 
L 709.538203 -199.958996 
L 707.604507 -195.689987 
L 705.565025 -191.420979 
L 703.454418 -187.15197 
L 701.311297 -182.882962 
L 699.175113 -178.613953 
L 697.083765 -174.344945 
L 695.07207 -170.075936 
L 693.170855 -165.806927 
L 691.406298 -161.537919 
L 689.799245 -157.26891 
L 688.364472 -152.999902 
L 687.110037 -148.730893 
L 686.036996 -144.461885 
L 685.139674 -140.192876 
L 684.406545 -135.923868 
L 683.821602 -131.654859 
L 683.366004 -127.38585 
L 683.019722 -123.116842 
L 682.762993 -118.847833 
L 682.577433 -114.578825 
L 682.44676 -110.309816 
L 682.357177 -106.040808 
z
" style="stroke: #3f3f3f; stroke-width: 1.25"/>
    </defs>
    <g clip-path="url(#p17a80713ed)">
     <use xlink:href="#mf1fddfa451" x="0" y="720" style="fill: #3274a1; stroke: #3f3f3f; stroke-width: 1.25"/>
    </g>
   </g>
   <g id="PolyCollection_6">
    <defs>
     <path id="m422aa00cc5" d="M 793.974246 -104.508501 
L 793.625754 -104.508501 
L 793.532251 -108.617423 
L 793.399728 -112.726346 
L 793.217032 -116.835268 
L 792.97159 -120.94419 
L 792.649635 -125.053112 
L 792.236481 -129.162034 
L 791.716857 -133.270956 
L 791.07535 -137.379878 
L 790.297014 -141.4888 
L 789.368199 -145.597723 
L 788.277602 -149.706645 
L 787.017461 -153.815567 
L 785.584722 -157.924489 
L 783.981996 -162.033411 
L 782.218112 -166.142333 
L 780.308215 -170.251255 
L 778.273424 -174.360178 
L 776.14015 -178.4691 
L 773.939189 -182.578022 
L 771.704579 -186.686944 
L 769.472163 -190.795866 
L 767.277773 -194.904788 
L 765.155069 -199.01371 
L 763.133335 -203.122632 
L 761.235755 -207.231555 
L 759.478835 -211.340477 
L 757.87345 -215.449399 
L 756.42756 -219.558321 
L 755.150022 -223.667243 
L 754.05436 -227.776165 
L 753.161114 -231.885087 
L 752.497615 -235.99401 
L 752.094707 -240.102932 
L 751.980821 -244.211854 
L 752.174747 -248.320776 
L 752.678915 -252.429698 
L 753.475032 -256.53862 
L 754.523378 -260.647542 
L 755.766144 -264.756465 
L 757.134212 -268.865387 
L 758.555957 -272.974309 
L 759.966225 -277.083231 
L 761.313727 -281.192153 
L 762.56549 -285.301075 
L 763.707801 -289.409997 
L 764.743795 -293.518919 
L 765.68856 -297.627842 
L 766.56304 -301.736764 
L 767.388134 -305.845686 
L 768.180224 -309.954608 
L 768.948891 -314.06353 
L 769.697033 -318.172452 
L 770.422971 -322.281374 
L 771.123699 -326.390297 
L 771.798209 -330.499219 
L 772.449908 -334.608141 
L 773.087485 -338.717063 
L 773.724081 -342.825985 
L 774.375101 -346.934907 
L 775.05535 -351.043829 
L 775.776277 -355.152751 
L 776.544 -359.261674 
L 777.358448 -363.370596 
L 778.213668 -367.479518 
L 779.099017 -371.58844 
L 780.000864 -375.697362 
L 780.904401 -379.806284 
L 781.795242 -383.915206 
L 782.660645 -388.024129 
L 783.49025 -392.133051 
L 784.276351 -396.241973 
L 785.013749 -400.350895 
L 785.699319 -404.459817 
L 786.331455 -408.568739 
L 786.909576 -412.677661 
L 787.433878 -416.786583 
L 787.905385 -420.895506 
L 788.326283 -425.004428 
L 788.700391 -429.11335 
L 789.033535 -433.222272 
L 789.333632 -437.331194 
L 789.61034 -441.440116 
L 789.87425 -445.549038 
L 790.135723 -449.657961 
L 790.403583 -453.766883 
L 790.68391 -457.875805 
L 790.979189 -461.984727 
L 791.287981 -466.093649 
L 791.605219 -470.202571 
L 791.923056 -474.311493 
L 792.232123 -478.420415 
L 792.52295 -482.529338 
L 792.787288 -486.63826 
L 793.019109 -490.747182 
L 793.215143 -494.856104 
L 793.374929 -498.965026 
L 793.500439 -503.073948 
L 793.595437 -507.18287 
L 793.664717 -511.291793 
L 793.935283 -511.291793 
L 793.935283 -511.291793 
L 794.004563 -507.18287 
L 794.099561 -503.073948 
L 794.225071 -498.965026 
L 794.384857 -494.856104 
L 794.580891 -490.747182 
L 794.812712 -486.63826 
L 795.07705 -482.529338 
L 795.367877 -478.420415 
L 795.676944 -474.311493 
L 795.994781 -470.202571 
L 796.312019 -466.093649 
L 796.620811 -461.984727 
L 796.91609 -457.875805 
L 797.196417 -453.766883 
L 797.464277 -449.657961 
L 797.72575 -445.549038 
L 797.98966 -441.440116 
L 798.266368 -437.331194 
L 798.566465 -433.222272 
L 798.899609 -429.11335 
L 799.273717 -425.004428 
L 799.694615 -420.895506 
L 800.166122 -416.786583 
L 800.690424 -412.677661 
L 801.268545 -408.568739 
L 801.900681 -404.459817 
L 802.586251 -400.350895 
L 803.323649 -396.241973 
L 804.10975 -392.133051 
L 804.939355 -388.024129 
L 805.804758 -383.915206 
L 806.695599 -379.806284 
L 807.599136 -375.697362 
L 808.500983 -371.58844 
L 809.386332 -367.479518 
L 810.241552 -363.370596 
L 811.056 -359.261674 
L 811.823723 -355.152751 
L 812.54465 -351.043829 
L 813.224899 -346.934907 
L 813.875919 -342.825985 
L 814.512515 -338.717063 
L 815.150092 -334.608141 
L 815.801791 -330.499219 
L 816.476301 -326.390297 
L 817.177029 -322.281374 
L 817.902967 -318.172452 
L 818.651109 -314.06353 
L 819.419776 -309.954608 
L 820.211866 -305.845686 
L 821.03696 -301.736764 
L 821.91144 -297.627842 
L 822.856205 -293.518919 
L 823.892199 -289.409997 
L 825.03451 -285.301075 
L 826.286273 -281.192153 
L 827.633775 -277.083231 
L 829.044043 -272.974309 
L 830.465788 -268.865387 
L 831.833856 -264.756465 
L 833.076622 -260.647542 
L 834.124968 -256.53862 
L 834.921085 -252.429698 
L 835.425253 -248.320776 
L 835.619179 -244.211854 
L 835.505293 -240.102932 
L 835.102385 -235.99401 
L 834.438886 -231.885087 
L 833.54564 -227.776165 
L 832.449978 -223.667243 
L 831.17244 -219.558321 
L 829.72655 -215.449399 
L 828.121165 -211.340477 
L 826.364245 -207.231555 
L 824.466665 -203.122632 
L 822.444931 -199.01371 
L 820.322227 -194.904788 
L 818.127837 -190.795866 
L 815.895421 -186.686944 
L 813.660811 -182.578022 
L 811.45985 -178.4691 
L 809.326576 -174.360178 
L 807.291785 -170.251255 
L 805.381888 -166.142333 
L 803.618004 -162.033411 
L 802.015278 -157.924489 
L 800.582539 -153.815567 
L 799.322398 -149.706645 
L 798.231801 -145.597723 
L 797.302986 -141.4888 
L 796.52465 -137.379878 
L 795.883143 -133.270956 
L 795.363519 -129.162034 
L 794.950365 -125.053112 
L 794.62841 -120.94419 
L 794.382968 -116.835268 
L 794.200272 -112.726346 
L 794.067749 -108.617423 
L 793.974246 -104.508501 
z
" style="stroke: #3f3f3f; stroke-width: 1.25"/>
    </defs>
    <g clip-path="url(#p17a80713ed)">
     <use xlink:href="#m422aa00cc5" x="0" y="720" style="fill: #3274a1; stroke: #3f3f3f; stroke-width: 1.25"/>
    </g>
   </g>
   <g id="PolyCollection_7">
    <defs>
     <path id="mfb73eb33f6" d="M 905.588473 -104.4 
L 905.211527 -104.4 
L 905.110071 -108.511114 
L 904.965986 -112.622228 
L 904.766837 -116.733342 
L 904.498423 -120.844456 
L 904.144923 -124.95557 
L 903.68909 -129.066684 
L 903.112551 -133.177799 
L 902.396277 -137.288913 
L 901.52137 -141.400027 
L 900.470263 -145.511141 
L 899.228383 -149.622255 
L 897.786166 -153.733369 
L 896.141196 -157.844483 
L 894.30009 -161.955597 
L 892.279776 -166.066711 
L 890.107827 -170.177825 
L 887.821729 -174.288939 
L 885.467051 -178.400053 
L 883.094665 -182.511168 
L 880.757206 -186.622282 
L 878.505 -190.733396 
L 876.381791 -194.84451 
L 874.420736 -198.955624 
L 872.641327 -203.066738 
L 871.048026 -207.177852 
L 869.631334 -211.288966 
L 868.37164 -215.40008 
L 867.245546 -219.511194 
L 866.233614 -223.622308 
L 865.327838 -227.733422 
L 864.536918 -231.844536 
L 863.887735 -235.955651 
L 863.422226 -240.066765 
L 863.190037 -244.177879 
L 863.238413 -248.288993 
L 863.601584 -252.400107 
L 864.292047 -256.511221 
L 865.295724 -260.622335 
L 866.571994 -264.733449 
L 868.058447 -268.844563 
L 869.679183 -272.955677 
L 871.354767 -277.066791 
L 873.011832 -281.177905 
L 874.590639 -285.289019 
L 876.049568 -289.400134 
L 877.3663 -293.511248 
L 878.536129 -297.622362 
L 879.568308 -301.733476 
L 880.481502 -305.84459 
L 881.299327 -309.955704 
L 882.046677 -314.066818 
L 882.747183 -318.177932 
L 883.421793 -322.289046 
L 884.088202 -326.40016 
L 884.760751 -330.511274 
L 885.450417 -334.622388 
L 886.164704 -338.733503 
L 886.907389 -342.844617 
L 887.678299 -346.955731 
L 888.473334 -351.066845 
L 889.284953 -355.177959 
L 890.103166 -359.289073 
L 890.916946 -363.400187 
L 891.715758 -367.511301 
L 892.490926 -371.622415 
L 893.236527 -375.733529 
L 893.949677 -379.844643 
L 894.630229 -383.955757 
L 895.279996 -388.066871 
L 895.901746 -392.177986 
L 896.498163 -396.2891 
L 897.070982 -400.400214 
L 897.620422 -404.511328 
L 898.14503 -408.622442 
L 898.641941 -412.733556 
L 899.107551 -416.84467 
L 899.538481 -420.955784 
L 899.932654 -425.066898 
L 900.290245 -429.178012 
L 900.614286 -433.289126 
L 900.910726 -437.40024 
L 901.187907 -441.511354 
L 901.455503 -445.622469 
L 901.723116 -449.733583 
L 901.998793 -453.844697 
L 902.287749 -457.955811 
L 902.591539 -462.066925 
L 902.907836 -466.178039 
L 903.230845 -470.289153 
L 903.552267 -474.400267 
L 903.862608 -478.511381 
L 904.152589 -482.622495 
L 904.414396 -486.733609 
L 904.642572 -490.844723 
L 904.834437 -494.955838 
L 904.990042 -499.066952 
L 905.111736 -503.178066 
L 905.203505 -507.28918 
L 905.270229 -511.400294 
L 905.529771 -511.400294 
L 905.529771 -511.400294 
L 905.596495 -507.28918 
L 905.688264 -503.178066 
L 905.809958 -499.066952 
L 905.965563 -494.955838 
L 906.157428 -490.844723 
L 906.385604 -486.733609 
L 906.647411 -482.622495 
L 906.937392 -478.511381 
L 907.247733 -474.400267 
L 907.569155 -470.289153 
L 907.892164 -466.178039 
L 908.208461 -462.066925 
L 908.512251 -457.955811 
L 908.801207 -453.844697 
L 909.076884 -449.733583 
L 909.344497 -445.622469 
L 909.612093 -441.511354 
L 909.889274 -437.40024 
L 910.185714 -433.289126 
L 910.509755 -429.178012 
L 910.867346 -425.066898 
L 911.261519 -420.955784 
L 911.692449 -416.84467 
L 912.158059 -412.733556 
L 912.65497 -408.622442 
L 913.179578 -404.511328 
L 913.729018 -400.400214 
L 914.301837 -396.2891 
L 914.898254 -392.177986 
L 915.520004 -388.066871 
L 916.169771 -383.955757 
L 916.850323 -379.844643 
L 917.563473 -375.733529 
L 918.309074 -371.622415 
L 919.084242 -367.511301 
L 919.883054 -363.400187 
L 920.696834 -359.289073 
L 921.515047 -355.177959 
L 922.326666 -351.066845 
L 923.121701 -346.955731 
L 923.892611 -342.844617 
L 924.635296 -338.733503 
L 925.349583 -334.622388 
L 926.039249 -330.511274 
L 926.711798 -326.40016 
L 927.378207 -322.289046 
L 928.052817 -318.177932 
L 928.753323 -314.066818 
L 929.500673 -309.955704 
L 930.318498 -305.84459 
L 931.231692 -301.733476 
L 932.263871 -297.622362 
L 933.4337 -293.511248 
L 934.750432 -289.400134 
L 936.209361 -285.289019 
L 937.788168 -281.177905 
L 939.445233 -277.066791 
L 941.120817 -272.955677 
L 942.741553 -268.844563 
L 944.228006 -264.733449 
L 945.504276 -260.622335 
L 946.507953 -256.511221 
L 947.198416 -252.400107 
L 947.561587 -248.288993 
L 947.609963 -244.177879 
L 947.377774 -240.066765 
L 946.912265 -235.955651 
L 946.263082 -231.844536 
L 945.472162 -227.733422 
L 944.566386 -223.622308 
L 943.554454 -219.511194 
L 942.42836 -215.40008 
L 941.168666 -211.288966 
L 939.751974 -207.177852 
L 938.158673 -203.066738 
L 936.379264 -198.955624 
L 934.418209 -194.84451 
L 932.295 -190.733396 
L 930.042794 -186.622282 
L 927.705335 -182.511168 
L 925.332949 -178.400053 
L 922.978271 -174.288939 
L 920.692173 -170.177825 
L 918.520224 -166.066711 
L 916.49991 -161.955597 
L 914.658804 -157.844483 
L 913.013834 -153.733369 
L 911.571617 -149.622255 
L 910.329737 -145.511141 
L 909.27863 -141.400027 
L 908.403723 -137.288913 
L 907.687449 -133.177799 
L 907.11091 -129.066684 
L 906.655077 -124.95557 
L 906.301577 -120.844456 
L 906.033163 -116.733342 
L 905.834014 -112.622228 
L 905.689929 -108.511114 
L 905.588473 -104.4 
z
" style="stroke: #3f3f3f; stroke-width: 1.25"/>
    </defs>
    <g clip-path="url(#p17a80713ed)">
     <use xlink:href="#mfb73eb33f6" x="0" y="720" style="fill: #3274a1; stroke: #3f3f3f; stroke-width: 1.25"/>
    </g>
   </g>
   <g id="PolyCollection_8">
    <defs>
     <path id="m575a431970" d="M 1017.182206 -105.59576 
L 1016.817794 -105.59576 
L 1016.716836 -109.682718 
L 1016.572014 -113.769675 
L 1016.369839 -117.856632 
L 1016.094561 -121.94359 
L 1015.728194 -126.030547 
L 1015.250659 -130.117504 
L 1014.640136 -134.204462 
L 1013.873824 -138.291419 
L 1012.929302 -142.378376 
L 1011.786609 -146.465333 
L 1010.430986 -150.552291 
L 1008.85596 -154.639248 
L 1007.066185 -158.726205 
L 1005.07936 -162.813163 
L 1002.926583 -166.90012 
L 1000.650829 -170.987077 
L 998.303641 -175.074035 
L 995.940555 -179.160992 
L 993.616034 -183.247949 
L 991.378667 -187.334906 
L 989.267257 -191.421864 
L 987.308121 -195.508821 
L 985.513741 -199.595778 
L 983.882896 -203.682736 
L 982.402379 -207.769693 
L 981.050474 -211.85665 
L 979.802164 -215.943608 
L 978.635638 -220.030565 
L 977.539185 -224.117522 
L 976.517063 -228.204479 
L 975.59281 -232.291437 
L 974.808763 -236.378394 
L 974.221275 -240.465351 
L 973.892122 -244.552309 
L 973.877565 -248.639266 
L 974.217189 -252.726223 
L 974.924813 -256.813181 
L 975.983378 -260.900138 
L 977.344897 -264.987095 
L 978.935491 -269.074053 
L 980.664553 -273.16101 
L 982.436287 -277.247967 
L 984.161595 -281.334924 
L 985.768291 -285.421882 
L 987.208149 -289.508839 
L 988.459931 -293.595796 
L 989.528303 -297.682754 
L 990.439257 -301.769711 
L 991.233155 -305.856668 
L 991.956772 -309.943626 
L 992.655713 -314.030583 
L 993.368328 -318.11754 
L 994.121804 -322.204497 
L 994.930631 -326.291455 
L 995.797164 -330.378412 
L 996.713745 -334.465369 
L 997.665678 -338.552327 
L 998.63447 -342.639284 
L 999.600883 -346.726241 
L 1000.547539 -350.813199 
L 1001.460952 -354.900156 
L 1002.332888 -358.987113 
L 1003.160953 -363.074071 
L 1003.94833 -367.161028 
L 1004.702606 -371.247985 
L 1005.433832 -375.334942 
L 1006.152116 -379.4219 
L 1006.865217 -383.508857 
L 1007.576646 -387.595814 
L 1008.284693 -391.682772 
L 1008.982569 -395.769729 
L 1009.659563 -399.856686 
L 1010.302913 -403.943644 
L 1010.899933 -408.030601 
L 1011.439959 -412.117558 
L 1011.91581 -416.204515 
L 1012.3246 -420.291473 
L 1012.667931 -424.37843 
L 1012.951566 -428.465387 
L 1013.184769 -432.552345 
L 1013.379406 -436.639302 
L 1013.548927 -440.726259 
L 1013.707228 -444.813217 
L 1013.867439 -448.900174 
L 1014.040693 -452.987131 
L 1014.234978 -457.074088 
L 1014.454269 -461.161046 
L 1014.698109 -465.248003 
L 1014.961779 -469.33496 
L 1015.237101 -473.421918 
L 1015.513737 -477.508875 
L 1015.780768 -481.595832 
L 1016.028243 -485.68279 
L 1016.248419 -489.769747 
L 1016.436496 -493.856704 
L 1016.590785 -497.943662 
L 1016.712374 -502.030619 
L 1016.804445 -506.117576 
L 1016.871457 -510.204533 
L 1017.128543 -510.204533 
L 1017.128543 -510.204533 
L 1017.195555 -506.117576 
L 1017.287626 -502.030619 
L 1017.409215 -497.943662 
L 1017.563504 -493.856704 
L 1017.751581 -489.769747 
L 1017.971757 -485.68279 
L 1018.219232 -481.595832 
L 1018.486263 -477.508875 
L 1018.762899 -473.421918 
L 1019.038221 -469.33496 
L 1019.301891 -465.248003 
L 1019.545731 -461.161046 
L 1019.765022 -457.074088 
L 1019.959307 -452.987131 
L 1020.132561 -448.900174 
L 1020.292772 -444.813217 
L 1020.451073 -440.726259 
L 1020.620594 -436.639302 
L 1020.815231 -432.552345 
L 1021.048434 -428.465387 
L 1021.332069 -424.37843 
L 1021.6754 -420.291473 
L 1022.08419 -416.204515 
L 1022.560041 -412.117558 
L 1023.100067 -408.030601 
L 1023.697087 -403.943644 
L 1024.340437 -399.856686 
L 1025.017431 -395.769729 
L 1025.715307 -391.682772 
L 1026.423354 -387.595814 
L 1027.134783 -383.508857 
L 1027.847884 -379.4219 
L 1028.566168 -375.334942 
L 1029.297394 -371.247985 
L 1030.05167 -367.161028 
L 1030.839047 -363.074071 
L 1031.667112 -358.987113 
L 1032.539048 -354.900156 
L 1033.452461 -350.813199 
L 1034.399117 -346.726241 
L 1035.36553 -342.639284 
L 1036.334322 -338.552327 
L 1037.286255 -334.465369 
L 1038.202836 -330.378412 
L 1039.069369 -326.291455 
L 1039.878196 -322.204497 
L 1040.631672 -318.11754 
L 1041.344287 -314.030583 
L 1042.043228 -309.943626 
L 1042.766845 -305.856668 
L 1043.560743 -301.769711 
L 1044.471697 -297.682754 
L 1045.540069 -293.595796 
L 1046.791851 -289.508839 
L 1048.231709 -285.421882 
L 1049.838405 -281.334924 
L 1051.563713 -277.247967 
L 1053.335447 -273.16101 
L 1055.064509 -269.074053 
L 1056.655103 -264.987095 
L 1058.016622 -260.900138 
L 1059.075187 -256.813181 
L 1059.782811 -252.726223 
L 1060.122435 -248.639266 
L 1060.107878 -244.552309 
L 1059.778725 -240.465351 
L 1059.191237 -236.378394 
L 1058.40719 -232.291437 
L 1057.482937 -228.204479 
L 1056.460815 -224.117522 
L 1055.364362 -220.030565 
L 1054.197836 -215.943608 
L 1052.949526 -211.85665 
L 1051.597621 -207.769693 
L 1050.117104 -203.682736 
L 1048.486259 -199.595778 
L 1046.691879 -195.508821 
L 1044.732743 -191.421864 
L 1042.621333 -187.334906 
L 1040.383966 -183.247949 
L 1038.059445 -179.160992 
L 1035.696359 -175.074035 
L 1033.349171 -170.987077 
L 1031.073417 -166.90012 
L 1028.92064 -162.813163 
L 1026.933815 -158.726205 
L 1025.14404 -154.639248 
L 1023.569014 -150.552291 
L 1022.213391 -146.465333 
L 1021.070698 -142.378376 
L 1020.126176 -138.291419 
L 1019.359864 -134.204462 
L 1018.749341 -130.117504 
L 1018.271806 -126.030547 
L 1017.905439 -121.94359 
L 1017.630161 -117.856632 
L 1017.427986 -113.769675 
L 1017.283164 -109.682718 
L 1017.182206 -105.59576 
z
" style="stroke: #3f3f3f; stroke-width: 1.25"/>
    </defs>
    <g clip-path="url(#p17a80713ed)">
     <use xlink:href="#m575a431970" x="0" y="720" style="fill: #3274a1; stroke: #3f3f3f; stroke-width: 1.25"/>
    </g>
   </g>
   <g id="PolyCollection_9">
    <defs>
     <path id="mc1d05777c0" d="M 1128.791512 -105.8276 
L 1128.408488 -105.8276 
L 1128.300564 -109.909874 
L 1128.144991 -113.992148 
L 1127.927108 -118.074421 
L 1127.630128 -122.156695 
L 1127.235497 -126.238969 
L 1126.723444 -130.321242 
L 1126.073746 -134.403516 
L 1125.266789 -138.48579 
L 1124.284934 -142.568063 
L 1123.114204 -146.650337 
L 1121.746134 -150.732611 
L 1120.179545 -154.814884 
L 1118.421884 -158.897158 
L 1116.489806 -162.979432 
L 1114.408794 -167.061705 
L 1112.211862 -171.143979 
L 1109.937555 -175.226253 
L 1107.62762 -179.308526 
L 1105.324604 -183.3908 
L 1103.069517 -187.473074 
L 1100.899487 -191.555347 
L 1098.84533 -195.637621 
L 1096.929137 -199.719895 
L 1095.162302 -203.802168 
L 1093.544728 -207.884442 
L 1092.065995 -211.966716 
L 1090.708944 -216.048989 
L 1089.455497 -220.131263 
L 1088.293702 -224.213537 
L 1087.224409 -228.29581 
L 1086.265733 -232.378084 
L 1085.453835 -236.460358 
L 1084.839368 -240.542631 
L 1084.479978 -244.624905 
L 1084.430242 -248.707179 
L 1084.731091 -252.789452 
L 1085.400916 -256.871726 
L 1086.430179 -260.954 
L 1087.780617 -265.036273 
L 1089.389111 -269.118547 
L 1091.175412 -273.200821 
L 1093.052153 -277.283094 
L 1094.935293 -281.365368 
L 1096.753193 -285.447642 
L 1098.452953 -289.529915 
L 1100.003291 -293.612189 
L 1101.393971 -297.694463 
L 1102.632385 -301.776736 
L 1103.73833 -305.85901 
L 1104.738183 -309.941284 
L 1105.659535 -314.023557 
L 1106.527079 -318.105831 
L 1107.36011 -322.188105 
L 1108.17162 -326.270378 
L 1108.96869 -330.352652 
L 1109.753721 -334.434926 
L 1110.526089 -338.517199 
L 1111.28388 -342.599473 
L 1112.025473 -346.681747 
L 1112.75083 -350.76402 
L 1113.462342 -354.846294 
L 1114.165085 -358.928568 
L 1114.86636 -363.010841 
L 1115.57451 -367.093115 
L 1116.297149 -371.175389 
L 1117.039177 -375.257662 
L 1117.801062 -379.339936 
L 1118.577867 -383.42221 
L 1119.359345 -387.504483 
L 1120.131116 -391.586757 
L 1120.876662 -395.669031 
L 1121.579647 -399.751304 
L 1122.226048 -403.833578 
L 1122.805683 -407.915852 
L 1123.312961 -411.998125 
L 1123.746887 -416.080399 
L 1124.110562 -420.162673 
L 1124.410425 -424.244947 
L 1124.65547 -428.32722 
L 1124.856565 -432.409494 
L 1125.025852 -436.491768 
L 1125.176171 -440.574041 
L 1125.32038 -444.656315 
L 1125.470493 -448.738589 
L 1125.636675 -452.820862 
L 1125.826184 -456.903136 
L 1126.042495 -460.98541 
L 1126.284811 -465.067683 
L 1126.548164 -469.149957 
L 1126.82414 -473.232231 
L 1127.102151 -477.314504 
L 1127.371011 -481.396778 
L 1127.620506 -485.479052 
L 1127.842659 -489.561325 
L 1128.032498 -493.643599 
L 1128.188228 -497.725873 
L 1128.310902 -501.808146 
L 1128.403723 -505.89042 
L 1128.471202 -509.972694 
L 1128.728798 -509.972694 
L 1128.728798 -509.972694 
L 1128.796277 -505.89042 
L 1128.889098 -501.808146 
L 1129.011772 -497.725873 
L 1129.167502 -493.643599 
L 1129.357341 -489.561325 
L 1129.579494 -485.479052 
L 1129.828989 -481.396778 
L 1130.097849 -477.314504 
L 1130.37586 -473.232231 
L 1130.651836 -469.149957 
L 1130.915189 -465.067683 
L 1131.157505 -460.98541 
L 1131.373816 -456.903136 
L 1131.563325 -452.820862 
L 1131.729507 -448.738589 
L 1131.87962 -444.656315 
L 1132.023829 -440.574041 
L 1132.174148 -436.491768 
L 1132.343435 -432.409494 
L 1132.54453 -428.32722 
L 1132.789575 -424.244947 
L 1133.089438 -420.162673 
L 1133.453113 -416.080399 
L 1133.887039 -411.998125 
L 1134.394317 -407.915852 
L 1134.973952 -403.833578 
L 1135.620353 -399.751304 
L 1136.323338 -395.669031 
L 1137.068884 -391.586757 
L 1137.840655 -387.504483 
L 1138.622133 -383.42221 
L 1139.398938 -379.339936 
L 1140.160823 -375.257662 
L 1140.902851 -371.175389 
L 1141.62549 -367.093115 
L 1142.33364 -363.010841 
L 1143.034915 -358.928568 
L 1143.737658 -354.846294 
L 1144.44917 -350.76402 
L 1145.174527 -346.681747 
L 1145.91612 -342.599473 
L 1146.673911 -338.517199 
L 1147.446279 -334.434926 
L 1148.23131 -330.352652 
L 1149.02838 -326.270378 
L 1149.83989 -322.188105 
L 1150.672921 -318.105831 
L 1151.540465 -314.023557 
L 1152.461817 -309.941284 
L 1153.46167 -305.85901 
L 1154.567615 -301.776736 
L 1155.806029 -297.694463 
L 1157.196709 -293.612189 
L 1158.747047 -289.529915 
L 1160.446807 -285.447642 
L 1162.264707 -281.365368 
L 1164.147847 -277.283094 
L 1166.024588 -273.200821 
L 1167.810889 -269.118547 
L 1169.419383 -265.036273 
L 1170.769821 -260.954 
L 1171.799084 -256.871726 
L 1172.468909 -252.789452 
L 1172.769758 -248.707179 
L 1172.720022 -244.624905 
L 1172.360632 -240.542631 
L 1171.746165 -236.460358 
L 1170.934267 -232.378084 
L 1169.975591 -228.29581 
L 1168.906298 -224.213537 
L 1167.744503 -220.131263 
L 1166.491056 -216.048989 
L 1165.134005 -211.966716 
L 1163.655272 -207.884442 
L 1162.037698 -203.802168 
L 1160.270863 -199.719895 
L 1158.35467 -195.637621 
L 1156.300513 -191.555347 
L 1154.130483 -187.473074 
L 1151.875396 -183.3908 
L 1149.57238 -179.308526 
L 1147.262445 -175.226253 
L 1144.988138 -171.143979 
L 1142.791206 -167.061705 
L 1140.710194 -162.979432 
L 1138.778116 -158.897158 
L 1137.020455 -154.814884 
L 1135.453866 -150.732611 
L 1134.085796 -146.650337 
L 1132.915066 -142.568063 
L 1131.933211 -138.48579 
L 1131.126254 -134.403516 
L 1130.476556 -130.321242 
L 1129.964503 -126.238969 
L 1129.569872 -122.156695 
L 1129.272892 -118.074421 
L 1129.055009 -113.992148 
L 1128.899436 -109.909874 
L 1128.791512 -105.8276 
z
" style="stroke: #3f3f3f; stroke-width: 1.25"/>
    </defs>
    <g clip-path="url(#p17a80713ed)">
     <use xlink:href="#mc1d05777c0" x="0" y="720" style="fill: #3274a1; stroke: #3f3f3f; stroke-width: 1.25"/>
    </g>
   </g>
   <g id="PolyCollection_10">
    <defs>
     <path id="mba3e5ee424" d="M 1240.400954 -109.539117 
L 1239.999046 -109.539117 
L 1239.878138 -113.574842 
L 1239.698682 -117.610568 
L 1239.440011 -121.646293 
L 1239.077727 -125.682019 
L 1238.584532 -129.717744 
L 1237.931811 -133.75347 
L 1237.091999 -137.789195 
L 1236.041636 -141.824921 
L 1234.764746 -145.860646 
L 1233.25599 -149.896371 
L 1231.52287 -153.932097 
L 1229.586305 -157.967822 
L 1227.479187 -162.003548 
L 1225.24301 -166.039273 
L 1222.923254 -170.074999 
L 1220.564622 -174.110724 
L 1218.207345 -178.146449 
L 1215.885392 -182.182175 
L 1213.626741 -186.2179 
L 1211.455061 -190.253626 
L 1209.391626 -194.289351 
L 1207.456248 -198.325077 
L 1205.666527 -202.360802 
L 1204.035579 -206.396527 
L 1202.569236 -210.432253 
L 1201.264196 -214.467978 
L 1200.108435 -218.503704 
L 1199.084535 -222.539429 
L 1198.175557 -226.575155 
L 1197.372135 -230.61088 
L 1196.678834 -234.646606 
L 1196.117763 -238.682331 
L 1195.727951 -242.718056 
L 1195.56 -246.753782 
L 1195.666722 -250.789507 
L 1196.091633 -254.825233 
L 1196.857899 -258.860958 
L 1197.960446 -262.896684 
L 1199.363306 -266.932409 
L 1201.003075 -270.968134 
L 1202.797784 -275.00386 
L 1204.659192 -279.039585 
L 1206.505647 -283.075311 
L 1208.272673 -287.111036 
L 1209.919192 -291.146762 
L 1211.428572 -295.182487 
L 1212.805034 -299.218212 
L 1214.067031 -303.253938 
L 1215.239704 -307.289663 
L 1216.348332 -311.325389 
L 1217.414031 -315.361114 
L 1218.452058 -319.39684 
L 1219.472245 -323.432565 
L 1220.480616 -327.468291 
L 1221.481107 -331.504016 
L 1222.476659 -335.539741 
L 1223.469363 -339.575467 
L 1224.459844 -343.611192 
L 1225.446354 -347.646918 
L 1226.424109 -351.682643 
L 1227.385237 -355.718369 
L 1228.319473 -359.754094 
L 1229.215436 -363.789819 
L 1230.062195 -367.825545 
L 1230.850726 -371.86127 
L 1231.574989 -375.896996 
L 1232.232449 -379.932721 
L 1232.824002 -383.968447 
L 1233.353413 -388.004172 
L 1233.826413 -392.039897 
L 1234.249643 -396.075623 
L 1234.629642 -400.111348 
L 1234.972031 -404.147074 
L 1235.281031 -408.182799 
L 1235.559368 -412.218525 
L 1235.808573 -416.25425 
L 1236.029586 -420.289976 
L 1236.223543 -424.325701 
L 1236.392568 -428.361426 
L 1236.540412 -432.397152 
L 1236.672797 -436.432877 
L 1236.797355 -440.468603 
L 1236.92312 -444.504328 
L 1237.059596 -448.540054 
L 1237.215514 -452.575779 
L 1237.397473 -456.611504 
L 1237.608737 -460.64723 
L 1237.848472 -464.682955 
L 1238.11163 -468.718681 
L 1238.389552 -472.754406 
L 1238.671216 -476.790132 
L 1238.944852 -480.825857 
L 1239.199613 -484.861583 
L 1239.426943 -488.897308 
L 1239.621417 -492.933033 
L 1239.780968 -496.968759 
L 1239.90655 -501.004484 
L 1240.001409 -505.04021 
L 1240.070195 -509.075935 
L 1240.329805 -509.075935 
L 1240.329805 -509.075935 
L 1240.398591 -505.04021 
L 1240.49345 -501.004484 
L 1240.619032 -496.968759 
L 1240.778583 -492.933033 
L 1240.973057 -488.897308 
L 1241.200387 -484.861583 
L 1241.455148 -480.825857 
L 1241.728784 -476.790132 
L 1242.010448 -472.754406 
L 1242.28837 -468.718681 
L 1242.551528 -464.682955 
L 1242.791263 -460.64723 
L 1243.002527 -456.611504 
L 1243.184486 -452.575779 
L 1243.340404 -448.540054 
L 1243.47688 -444.504328 
L 1243.602645 -440.468603 
L 1243.727203 -436.432877 
L 1243.859588 -432.397152 
L 1244.007432 -428.361426 
L 1244.176457 -424.325701 
L 1244.370414 -420.289976 
L 1244.591427 -416.25425 
L 1244.840632 -412.218525 
L 1245.118969 -408.182799 
L 1245.427969 -404.147074 
L 1245.770358 -400.111348 
L 1246.150357 -396.075623 
L 1246.573587 -392.039897 
L 1247.046587 -388.004172 
L 1247.575998 -383.968447 
L 1248.167551 -379.932721 
L 1248.825011 -375.896996 
L 1249.549274 -371.86127 
L 1250.337805 -367.825545 
L 1251.184564 -363.789819 
L 1252.080527 -359.754094 
L 1253.014763 -355.718369 
L 1253.975891 -351.682643 
L 1254.953646 -347.646918 
L 1255.940156 -343.611192 
L 1256.930637 -339.575467 
L 1257.923341 -335.539741 
L 1258.918893 -331.504016 
L 1259.919384 -327.468291 
L 1260.927755 -323.432565 
L 1261.947942 -319.39684 
L 1262.985969 -315.361114 
L 1264.051668 -311.325389 
L 1265.160296 -307.289663 
L 1266.332969 -303.253938 
L 1267.594966 -299.218212 
L 1268.971428 -295.182487 
L 1270.480808 -291.146762 
L 1272.127327 -287.111036 
L 1273.894353 -283.075311 
L 1275.740808 -279.039585 
L 1277.602216 -275.00386 
L 1279.396925 -270.968134 
L 1281.036694 -266.932409 
L 1282.439554 -262.896684 
L 1283.542101 -258.860958 
L 1284.308367 -254.825233 
L 1284.733278 -250.789507 
L 1284.84 -246.753782 
L 1284.672049 -242.718056 
L 1284.282237 -238.682331 
L 1283.721166 -234.646606 
L 1283.027865 -230.61088 
L 1282.224443 -226.575155 
L 1281.315465 -222.539429 
L 1280.291565 -218.503704 
L 1279.135804 -214.467978 
L 1277.830764 -210.432253 
L 1276.364421 -206.396527 
L 1274.733473 -202.360802 
L 1272.943752 -198.325077 
L 1271.008374 -194.289351 
L 1268.944939 -190.253626 
L 1266.773259 -186.2179 
L 1264.514608 -182.182175 
L 1262.192655 -178.146449 
L 1259.835378 -174.110724 
L 1257.476746 -170.074999 
L 1255.15699 -166.039273 
L 1252.920813 -162.003548 
L 1250.813695 -157.967822 
L 1248.87713 -153.932097 
L 1247.14401 -149.896371 
L 1245.635254 -145.860646 
L 1244.358364 -141.824921 
L 1243.308001 -137.789195 
L 1242.468189 -133.75347 
L 1241.815468 -129.717744 
L 1241.322273 -125.682019 
L 1240.959989 -121.646293 
L 1240.701318 -117.610568 
L 1240.521862 -113.574842 
L 1240.400954 -109.539117 
z
" style="stroke: #3f3f3f; stroke-width: 1.25"/>
    </defs>
    <g clip-path="url(#p17a80713ed)">
     <use xlink:href="#mba3e5ee424" x="0" y="720" style="fill: #3274a1; stroke: #3f3f3f; stroke-width: 1.25"/>
    </g>
   </g>
   <g id="matplotlib.axis_1">
    <g id="xtick_1">
     <g id="line2d_1">
      <defs>
       <path id="me0bc7827a6" d="M 0 0 
L 0 3.5 
" style="stroke: #000000; stroke-width: 0.8"/>
      </defs>
      <g>
       <use xlink:href="#me0bc7827a6" x="235.8" y="640.8" style="stroke: #000000; stroke-width: 0.8"/>
      </g>
     </g>
     <g id="text_1">
      <!-- 0 -->
      <g transform="translate(232.61875 655.398438) scale(0.1 -0.1)">
       <defs>
        <path id="DejaVuSans-30" d="M 2034 4250 
Q 1547 4250 1301 3770 
Q 1056 3291 1056 2328 
Q 1056 1369 1301 889 
Q 1547 409 2034 409 
Q 2525 409 2770 889 
Q 3016 1369 3016 2328 
Q 3016 3291 2770 3770 
Q 2525 4250 2034 4250 
z
M 2034 4750 
Q 2819 4750 3233 4129 
Q 3647 3509 3647 2328 
Q 3647 1150 3233 529 
Q 2819 -91 2034 -91 
Q 1250 -91 836 529 
Q 422 1150 422 2328 
Q 422 3509 836 4129 
Q 1250 4750 2034 4750 
z
" transform="scale(0.015625)"/>
       </defs>
       <use xlink:href="#DejaVuSans-30"/>
      </g>
     </g>
    </g>
    <g id="xtick_2">
     <g id="line2d_2">
      <g>
       <use xlink:href="#me0bc7827a6" x="347.4" y="640.8" style="stroke: #000000; stroke-width: 0.8"/>
      </g>
     </g>
     <g id="text_2">
      <!-- 1 -->
      <g transform="translate(344.21875 655.398438) scale(0.1 -0.1)">
       <defs>
        <path id="DejaVuSans-31" d="M 794 531 
L 1825 531 
L 1825 4091 
L 703 3866 
L 703 4441 
L 1819 4666 
L 2450 4666 
L 2450 531 
L 3481 531 
L 3481 0 
L 794 0 
L 794 531 
z
" transform="scale(0.015625)"/>
       </defs>
       <use xlink:href="#DejaVuSans-31"/>
      </g>
     </g>
    </g>
    <g id="xtick_3">
     <g id="line2d_3">
      <g>
       <use xlink:href="#me0bc7827a6" x="459" y="640.8" style="stroke: #000000; stroke-width: 0.8"/>
      </g>
     </g>
     <g id="text_3">
      <!-- 2 -->
      <g transform="translate(455.81875 655.398438) scale(0.1 -0.1)">
       <defs>
        <path id="DejaVuSans-32" d="M 1228 531 
L 3431 531 
L 3431 0 
L 469 0 
L 469 531 
Q 828 903 1448 1529 
Q 2069 2156 2228 2338 
Q 2531 2678 2651 2914 
Q 2772 3150 2772 3378 
Q 2772 3750 2511 3984 
Q 2250 4219 1831 4219 
Q 1534 4219 1204 4116 
Q 875 4013 500 3803 
L 500 4441 
Q 881 4594 1212 4672 
Q 1544 4750 1819 4750 
Q 2544 4750 2975 4387 
Q 3406 4025 3406 3419 
Q 3406 3131 3298 2873 
Q 3191 2616 2906 2266 
Q 2828 2175 2409 1742 
Q 1991 1309 1228 531 
z
" transform="scale(0.015625)"/>
       </defs>
       <use xlink:href="#DejaVuSans-32"/>
      </g>
     </g>
    </g>
    <g id="xtick_4">
     <g id="line2d_4">
      <g>
       <use xlink:href="#me0bc7827a6" x="570.6" y="640.8" style="stroke: #000000; stroke-width: 0.8"/>
      </g>
     </g>
     <g id="text_4">
      <!-- 3 -->
      <g transform="translate(567.41875 655.398438) scale(0.1 -0.1)">
       <defs>
        <path id="DejaVuSans-33" d="M 2597 2516 
Q 3050 2419 3304 2112 
Q 3559 1806 3559 1356 
Q 3559 666 3084 287 
Q 2609 -91 1734 -91 
Q 1441 -91 1130 -33 
Q 819 25 488 141 
L 488 750 
Q 750 597 1062 519 
Q 1375 441 1716 441 
Q 2309 441 2620 675 
Q 2931 909 2931 1356 
Q 2931 1769 2642 2001 
Q 2353 2234 1838 2234 
L 1294 2234 
L 1294 2753 
L 1863 2753 
Q 2328 2753 2575 2939 
Q 2822 3125 2822 3475 
Q 2822 3834 2567 4026 
Q 2313 4219 1838 4219 
Q 1578 4219 1281 4162 
Q 984 4106 628 3988 
L 628 4550 
Q 988 4650 1302 4700 
Q 1616 4750 1894 4750 
Q 2613 4750 3031 4423 
Q 3450 4097 3450 3541 
Q 3450 3153 3228 2886 
Q 3006 2619 2597 2516 
z
" transform="scale(0.015625)"/>
       </defs>
       <use xlink:href="#DejaVuSans-33"/>
      </g>
     </g>
    </g>
    <g id="xtick_5">
     <g id="line2d_5">
      <g>
       <use xlink:href="#me0bc7827a6" x="682.2" y="640.8" style="stroke: #000000; stroke-width: 0.8"/>
      </g>
     </g>
     <g id="text_5">
      <!-- 4 -->
      <g transform="translate(679.01875 655.398438) scale(0.1 -0.1)">
       <defs>
        <path id="DejaVuSans-34" d="M 2419 4116 
L 825 1625 
L 2419 1625 
L 2419 4116 
z
M 2253 4666 
L 3047 4666 
L 3047 1625 
L 3713 1625 
L 3713 1100 
L 3047 1100 
L 3047 0 
L 2419 0 
L 2419 1100 
L 313 1100 
L 313 1709 
L 2253 4666 
z
" transform="scale(0.015625)"/>
       </defs>
       <use xlink:href="#DejaVuSans-34"/>
      </g>
     </g>
    </g>
    <g id="xtick_6">
     <g id="line2d_6">
      <g>
       <use xlink:href="#me0bc7827a6" x="793.8" y="640.8" style="stroke: #000000; stroke-width: 0.8"/>
      </g>
     </g>
     <g id="text_6">
      <!-- 5 -->
      <g transform="translate(790.61875 655.398438) scale(0.1 -0.1)">
       <defs>
        <path id="DejaVuSans-35" d="M 691 4666 
L 3169 4666 
L 3169 4134 
L 1269 4134 
L 1269 2991 
Q 1406 3038 1543 3061 
Q 1681 3084 1819 3084 
Q 2600 3084 3056 2656 
Q 3513 2228 3513 1497 
Q 3513 744 3044 326 
Q 2575 -91 1722 -91 
Q 1428 -91 1123 -41 
Q 819 9 494 109 
L 494 744 
Q 775 591 1075 516 
Q 1375 441 1709 441 
Q 2250 441 2565 725 
Q 2881 1009 2881 1497 
Q 2881 1984 2565 2268 
Q 2250 2553 1709 2553 
Q 1456 2553 1204 2497 
Q 953 2441 691 2322 
L 691 4666 
z
" transform="scale(0.015625)"/>
       </defs>
       <use xlink:href="#DejaVuSans-35"/>
      </g>
     </g>
    </g>
    <g id="xtick_7">
     <g id="line2d_7">
      <g>
       <use xlink:href="#me0bc7827a6" x="905.4" y="640.8" style="stroke: #000000; stroke-width: 0.8"/>
      </g>
     </g>
     <g id="text_7">
      <!-- 6 -->
      <g transform="translate(902.21875 655.398438) scale(0.1 -0.1)">
       <defs>
        <path id="DejaVuSans-36" d="M 2113 2584 
Q 1688 2584 1439 2293 
Q 1191 2003 1191 1497 
Q 1191 994 1439 701 
Q 1688 409 2113 409 
Q 2538 409 2786 701 
Q 3034 994 3034 1497 
Q 3034 2003 2786 2293 
Q 2538 2584 2113 2584 
z
M 3366 4563 
L 3366 3988 
Q 3128 4100 2886 4159 
Q 2644 4219 2406 4219 
Q 1781 4219 1451 3797 
Q 1122 3375 1075 2522 
Q 1259 2794 1537 2939 
Q 1816 3084 2150 3084 
Q 2853 3084 3261 2657 
Q 3669 2231 3669 1497 
Q 3669 778 3244 343 
Q 2819 -91 2113 -91 
Q 1303 -91 875 529 
Q 447 1150 447 2328 
Q 447 3434 972 4092 
Q 1497 4750 2381 4750 
Q 2619 4750 2861 4703 
Q 3103 4656 3366 4563 
z
" transform="scale(0.015625)"/>
       </defs>
       <use xlink:href="#DejaVuSans-36"/>
      </g>
     </g>
    </g>
    <g id="xtick_8">
     <g id="line2d_8">
      <g>
       <use xlink:href="#me0bc7827a6" x="1017" y="640.8" style="stroke: #000000; stroke-width: 0.8"/>
      </g>
     </g>
     <g id="text_8">
      <!-- 7 -->
      <g transform="translate(1013.81875 655.398438) scale(0.1 -0.1)">
       <defs>
        <path id="DejaVuSans-37" d="M 525 4666 
L 3525 4666 
L 3525 4397 
L 1831 0 
L 1172 0 
L 2766 4134 
L 525 4134 
L 525 4666 
z
" transform="scale(0.015625)"/>
       </defs>
       <use xlink:href="#DejaVuSans-37"/>
      </g>
     </g>
    </g>
    <g id="xtick_9">
     <g id="line2d_9">
      <g>
       <use xlink:href="#me0bc7827a6" x="1128.6" y="640.8" style="stroke: #000000; stroke-width: 0.8"/>
      </g>
     </g>
     <g id="text_9">
      <!-- 8 -->
      <g transform="translate(1125.41875 655.398438) scale(0.1 -0.1)">
       <defs>
        <path id="DejaVuSans-38" d="M 2034 2216 
Q 1584 2216 1326 1975 
Q 1069 1734 1069 1313 
Q 1069 891 1326 650 
Q 1584 409 2034 409 
Q 2484 409 2743 651 
Q 3003 894 3003 1313 
Q 3003 1734 2745 1975 
Q 2488 2216 2034 2216 
z
M 1403 2484 
Q 997 2584 770 2862 
Q 544 3141 544 3541 
Q 544 4100 942 4425 
Q 1341 4750 2034 4750 
Q 2731 4750 3128 4425 
Q 3525 4100 3525 3541 
Q 3525 3141 3298 2862 
Q 3072 2584 2669 2484 
Q 3125 2378 3379 2068 
Q 3634 1759 3634 1313 
Q 3634 634 3220 271 
Q 2806 -91 2034 -91 
Q 1263 -91 848 271 
Q 434 634 434 1313 
Q 434 1759 690 2068 
Q 947 2378 1403 2484 
z
M 1172 3481 
Q 1172 3119 1398 2916 
Q 1625 2713 2034 2713 
Q 2441 2713 2670 2916 
Q 2900 3119 2900 3481 
Q 2900 3844 2670 4047 
Q 2441 4250 2034 4250 
Q 1625 4250 1398 4047 
Q 1172 3844 1172 3481 
z
" transform="scale(0.015625)"/>
       </defs>
       <use xlink:href="#DejaVuSans-38"/>
      </g>
     </g>
    </g>
    <g id="xtick_10">
     <g id="line2d_10">
      <g>
       <use xlink:href="#me0bc7827a6" x="1240.2" y="640.8" style="stroke: #000000; stroke-width: 0.8"/>
      </g>
     </g>
     <g id="text_10">
      <!-- 9 -->
      <g transform="translate(1237.01875 655.398438) scale(0.1 -0.1)">
       <defs>
        <path id="DejaVuSans-39" d="M 703 97 
L 703 672 
Q 941 559 1184 500 
Q 1428 441 1663 441 
Q 2288 441 2617 861 
Q 2947 1281 2994 2138 
Q 2813 1869 2534 1725 
Q 2256 1581 1919 1581 
Q 1219 1581 811 2004 
Q 403 2428 403 3163 
Q 403 3881 828 4315 
Q 1253 4750 1959 4750 
Q 2769 4750 3195 4129 
Q 3622 3509 3622 2328 
Q 3622 1225 3098 567 
Q 2575 -91 1691 -91 
Q 1453 -91 1209 -44 
Q 966 3 703 97 
z
M 1959 2075 
Q 2384 2075 2632 2365 
Q 2881 2656 2881 3163 
Q 2881 3666 2632 3958 
Q 2384 4250 1959 4250 
Q 1534 4250 1286 3958 
Q 1038 3666 1038 3163 
Q 1038 2656 1286 2365 
Q 1534 2075 1959 2075 
z
" transform="scale(0.015625)"/>
       </defs>
       <use xlink:href="#DejaVuSans-39"/>
      </g>
     </g>
    </g>
    <g id="text_11">
     <!-- iteration -->
     <g transform="translate(716.877344 669.076563) scale(0.1 -0.1)">
      <defs>
       <path id="DejaVuSans-69" d="M 603 3500 
L 1178 3500 
L 1178 0 
L 603 0 
L 603 3500 
z
M 603 4863 
L 1178 4863 
L 1178 4134 
L 603 4134 
L 603 4863 
z
" transform="scale(0.015625)"/>
       <path id="DejaVuSans-74" d="M 1172 4494 
L 1172 3500 
L 2356 3500 
L 2356 3053 
L 1172 3053 
L 1172 1153 
Q 1172 725 1289 603 
Q 1406 481 1766 481 
L 2356 481 
L 2356 0 
L 1766 0 
Q 1100 0 847 248 
Q 594 497 594 1153 
L 594 3053 
L 172 3053 
L 172 3500 
L 594 3500 
L 594 4494 
L 1172 4494 
z
" transform="scale(0.015625)"/>
       <path id="DejaVuSans-65" d="M 3597 1894 
L 3597 1613 
L 953 1613 
Q 991 1019 1311 708 
Q 1631 397 2203 397 
Q 2534 397 2845 478 
Q 3156 559 3463 722 
L 3463 178 
Q 3153 47 2828 -22 
Q 2503 -91 2169 -91 
Q 1331 -91 842 396 
Q 353 884 353 1716 
Q 353 2575 817 3079 
Q 1281 3584 2069 3584 
Q 2775 3584 3186 3129 
Q 3597 2675 3597 1894 
z
M 3022 2063 
Q 3016 2534 2758 2815 
Q 2500 3097 2075 3097 
Q 1594 3097 1305 2825 
Q 1016 2553 972 2059 
L 3022 2063 
z
" transform="scale(0.015625)"/>
       <path id="DejaVuSans-72" d="M 2631 2963 
Q 2534 3019 2420 3045 
Q 2306 3072 2169 3072 
Q 1681 3072 1420 2755 
Q 1159 2438 1159 1844 
L 1159 0 
L 581 0 
L 581 3500 
L 1159 3500 
L 1159 2956 
Q 1341 3275 1631 3429 
Q 1922 3584 2338 3584 
Q 2397 3584 2469 3576 
Q 2541 3569 2628 3553 
L 2631 2963 
z
" transform="scale(0.015625)"/>
       <path id="DejaVuSans-61" d="M 2194 1759 
Q 1497 1759 1228 1600 
Q 959 1441 959 1056 
Q 959 750 1161 570 
Q 1363 391 1709 391 
Q 2188 391 2477 730 
Q 2766 1069 2766 1631 
L 2766 1759 
L 2194 1759 
z
M 3341 1997 
L 3341 0 
L 2766 0 
L 2766 531 
Q 2569 213 2275 61 
Q 1981 -91 1556 -91 
Q 1019 -91 701 211 
Q 384 513 384 1019 
Q 384 1609 779 1909 
Q 1175 2209 1959 2209 
L 2766 2209 
L 2766 2266 
Q 2766 2663 2505 2880 
Q 2244 3097 1772 3097 
Q 1472 3097 1187 3025 
Q 903 2953 641 2809 
L 641 3341 
Q 956 3463 1253 3523 
Q 1550 3584 1831 3584 
Q 2591 3584 2966 3190 
Q 3341 2797 3341 1997 
z
" transform="scale(0.015625)"/>
       <path id="DejaVuSans-6f" d="M 1959 3097 
Q 1497 3097 1228 2736 
Q 959 2375 959 1747 
Q 959 1119 1226 758 
Q 1494 397 1959 397 
Q 2419 397 2687 759 
Q 2956 1122 2956 1747 
Q 2956 2369 2687 2733 
Q 2419 3097 1959 3097 
z
M 1959 3584 
Q 2709 3584 3137 3096 
Q 3566 2609 3566 1747 
Q 3566 888 3137 398 
Q 2709 -91 1959 -91 
Q 1206 -91 779 398 
Q 353 888 353 1747 
Q 353 2609 779 3096 
Q 1206 3584 1959 3584 
z
" transform="scale(0.015625)"/>
       <path id="DejaVuSans-6e" d="M 3513 2113 
L 3513 0 
L 2938 0 
L 2938 2094 
Q 2938 2591 2744 2837 
Q 2550 3084 2163 3084 
Q 1697 3084 1428 2787 
Q 1159 2491 1159 1978 
L 1159 0 
L 581 0 
L 581 3500 
L 1159 3500 
L 1159 2956 
Q 1366 3272 1645 3428 
Q 1925 3584 2291 3584 
Q 2894 3584 3203 3211 
Q 3513 2838 3513 2113 
z
" transform="scale(0.015625)"/>
      </defs>
      <use xlink:href="#DejaVuSans-69"/>
      <use xlink:href="#DejaVuSans-74" x="27.783203"/>
      <use xlink:href="#DejaVuSans-65" x="66.992188"/>
      <use xlink:href="#DejaVuSans-72" x="128.515625"/>
      <use xlink:href="#DejaVuSans-61" x="169.628906"/>
      <use xlink:href="#DejaVuSans-74" x="230.908203"/>
      <use xlink:href="#DejaVuSans-69" x="270.117188"/>
      <use xlink:href="#DejaVuSans-6f" x="297.900391"/>
      <use xlink:href="#DejaVuSans-6e" x="359.082031"/>
     </g>
    </g>
   </g>
   <g id="matplotlib.axis_2">
    <g id="ytick_1">
     <g id="line2d_11">
      <defs>
       <path id="m6d862c57ce" d="M 0 0 
L -3.5 0 
" style="stroke: #000000; stroke-width: 0.8"/>
      </defs>
      <g>
       <use xlink:href="#m6d862c57ce" x="180" y="626.882453" style="stroke: #000000; stroke-width: 0.8"/>
      </g>
     </g>
     <g id="text_12">
      <!-- 0.2 -->
      <g transform="translate(148.717187 630.681671) scale(0.1 -0.1)">
       <defs>
        <path id="DejaVuSans-2212" d="M 678 2272 
L 4684 2272 
L 4684 1741 
L 678 1741 
L 678 2272 
z
" transform="scale(0.015625)"/>
        <path id="DejaVuSans-2e" d="M 684 794 
L 1344 794 
L 1344 0 
L 684 0 
L 684 794 
z
" transform="scale(0.015625)"/>
       </defs>
       <use xlink:href="#DejaVuSans-2212"/>
       <use xlink:href="#DejaVuSans-30" x="83.789062"/>
       <use xlink:href="#DejaVuSans-2e" x="147.412109"/>
       <use xlink:href="#DejaVuSans-32" x="179.199219"/>
      </g>
     </g>
    </g>
    <g id="ytick_2">
     <g id="line2d_12">
      <g>
       <use xlink:href="#m6d862c57ce" x="180" y="548.948343" style="stroke: #000000; stroke-width: 0.8"/>
      </g>
     </g>
     <g id="text_13">
      <!-- 0.0 -->
      <g transform="translate(157.096875 552.747561) scale(0.1 -0.1)">
       <use xlink:href="#DejaVuSans-30"/>
       <use xlink:href="#DejaVuSans-2e" x="63.623047"/>
       <use xlink:href="#DejaVuSans-30" x="95.410156"/>
      </g>
     </g>
    </g>
    <g id="ytick_3">
     <g id="line2d_13">
      <g>
       <use xlink:href="#m6d862c57ce" x="180" y="471.014232" style="stroke: #000000; stroke-width: 0.8"/>
      </g>
     </g>
     <g id="text_14">
      <!-- 0.2 -->
      <g transform="translate(157.096875 474.813451) scale(0.1 -0.1)">
       <use xlink:href="#DejaVuSans-30"/>
       <use xlink:href="#DejaVuSans-2e" x="63.623047"/>
       <use xlink:href="#DejaVuSans-32" x="95.410156"/>
      </g>
     </g>
    </g>
    <g id="ytick_4">
     <g id="line2d_14">
      <g>
       <use xlink:href="#m6d862c57ce" x="180" y="393.080122" style="stroke: #000000; stroke-width: 0.8"/>
      </g>
     </g>
     <g id="text_15">
      <!-- 0.4 -->
      <g transform="translate(157.096875 396.879341) scale(0.1 -0.1)">
       <use xlink:href="#DejaVuSans-30"/>
       <use xlink:href="#DejaVuSans-2e" x="63.623047"/>
       <use xlink:href="#DejaVuSans-34" x="95.410156"/>
      </g>
     </g>
    </g>
    <g id="ytick_5">
     <g id="line2d_15">
      <g>
       <use xlink:href="#m6d862c57ce" x="180" y="315.146012" style="stroke: #000000; stroke-width: 0.8"/>
      </g>
     </g>
     <g id="text_16">
      <!-- 0.6 -->
      <g transform="translate(157.096875 318.945231) scale(0.1 -0.1)">
       <use xlink:href="#DejaVuSans-30"/>
       <use xlink:href="#DejaVuSans-2e" x="63.623047"/>
       <use xlink:href="#DejaVuSans-36" x="95.410156"/>
      </g>
     </g>
    </g>
    <g id="ytick_6">
     <g id="line2d_16">
      <g>
       <use xlink:href="#m6d862c57ce" x="180" y="237.211902" style="stroke: #000000; stroke-width: 0.8"/>
      </g>
     </g>
     <g id="text_17">
      <!-- 0.8 -->
      <g transform="translate(157.096875 241.011121) scale(0.1 -0.1)">
       <use xlink:href="#DejaVuSans-30"/>
       <use xlink:href="#DejaVuSans-2e" x="63.623047"/>
       <use xlink:href="#DejaVuSans-38" x="95.410156"/>
      </g>
     </g>
    </g>
    <g id="ytick_7">
     <g id="line2d_17">
      <g>
       <use xlink:href="#m6d862c57ce" x="180" y="159.277792" style="stroke: #000000; stroke-width: 0.8"/>
      </g>
     </g>
     <g id="text_18">
      <!-- 1.0 -->
      <g transform="translate(157.096875 163.077011) scale(0.1 -0.1)">
       <use xlink:href="#DejaVuSans-31"/>
       <use xlink:href="#DejaVuSans-2e" x="63.623047"/>
       <use xlink:href="#DejaVuSans-30" x="95.410156"/>
      </g>
     </g>
    </g>
    <g id="text_19">
     <!-- cosine similarity -->
     <g transform="translate(142.6375 404.307031) rotate(-90) scale(0.1 -0.1)">
      <defs>
       <path id="DejaVuSans-63" d="M 3122 3366 
L 3122 2828 
Q 2878 2963 2633 3030 
Q 2388 3097 2138 3097 
Q 1578 3097 1268 2742 
Q 959 2388 959 1747 
Q 959 1106 1268 751 
Q 1578 397 2138 397 
Q 2388 397 2633 464 
Q 2878 531 3122 666 
L 3122 134 
Q 2881 22 2623 -34 
Q 2366 -91 2075 -91 
Q 1284 -91 818 406 
Q 353 903 353 1747 
Q 353 2603 823 3093 
Q 1294 3584 2113 3584 
Q 2378 3584 2631 3529 
Q 2884 3475 3122 3366 
z
" transform="scale(0.015625)"/>
       <path id="DejaVuSans-73" d="M 2834 3397 
L 2834 2853 
Q 2591 2978 2328 3040 
Q 2066 3103 1784 3103 
Q 1356 3103 1142 2972 
Q 928 2841 928 2578 
Q 928 2378 1081 2264 
Q 1234 2150 1697 2047 
L 1894 2003 
Q 2506 1872 2764 1633 
Q 3022 1394 3022 966 
Q 3022 478 2636 193 
Q 2250 -91 1575 -91 
Q 1294 -91 989 -36 
Q 684 19 347 128 
L 347 722 
Q 666 556 975 473 
Q 1284 391 1588 391 
Q 1994 391 2212 530 
Q 2431 669 2431 922 
Q 2431 1156 2273 1281 
Q 2116 1406 1581 1522 
L 1381 1569 
Q 847 1681 609 1914 
Q 372 2147 372 2553 
Q 372 3047 722 3315 
Q 1072 3584 1716 3584 
Q 2034 3584 2315 3537 
Q 2597 3491 2834 3397 
z
" transform="scale(0.015625)"/>
       <path id="DejaVuSans-20" transform="scale(0.015625)"/>
       <path id="DejaVuSans-6d" d="M 3328 2828 
Q 3544 3216 3844 3400 
Q 4144 3584 4550 3584 
Q 5097 3584 5394 3201 
Q 5691 2819 5691 2113 
L 5691 0 
L 5113 0 
L 5113 2094 
Q 5113 2597 4934 2840 
Q 4756 3084 4391 3084 
Q 3944 3084 3684 2787 
Q 3425 2491 3425 1978 
L 3425 0 
L 2847 0 
L 2847 2094 
Q 2847 2600 2669 2842 
Q 2491 3084 2119 3084 
Q 1678 3084 1418 2786 
Q 1159 2488 1159 1978 
L 1159 0 
L 581 0 
L 581 3500 
L 1159 3500 
L 1159 2956 
Q 1356 3278 1631 3431 
Q 1906 3584 2284 3584 
Q 2666 3584 2933 3390 
Q 3200 3197 3328 2828 
z
" transform="scale(0.015625)"/>
       <path id="DejaVuSans-6c" d="M 603 4863 
L 1178 4863 
L 1178 0 
L 603 0 
L 603 4863 
z
" transform="scale(0.015625)"/>
       <path id="DejaVuSans-79" d="M 2059 -325 
Q 1816 -950 1584 -1140 
Q 1353 -1331 966 -1331 
L 506 -1331 
L 506 -850 
L 844 -850 
Q 1081 -850 1212 -737 
Q 1344 -625 1503 -206 
L 1606 56 
L 191 3500 
L 800 3500 
L 1894 763 
L 2988 3500 
L 3597 3500 
L 2059 -325 
z
" transform="scale(0.015625)"/>
      </defs>
      <use xlink:href="#DejaVuSans-63"/>
      <use xlink:href="#DejaVuSans-6f" x="54.980469"/>
      <use xlink:href="#DejaVuSans-73" x="116.162109"/>
      <use xlink:href="#DejaVuSans-69" x="168.261719"/>
      <use xlink:href="#DejaVuSans-6e" x="196.044922"/>
      <use xlink:href="#DejaVuSans-65" x="259.423828"/>
      <use xlink:href="#DejaVuSans-20" x="320.947266"/>
      <use xlink:href="#DejaVuSans-73" x="352.734375"/>
      <use xlink:href="#DejaVuSans-69" x="404.833984"/>
      <use xlink:href="#DejaVuSans-6d" x="432.617188"/>
      <use xlink:href="#DejaVuSans-69" x="530.029297"/>
      <use xlink:href="#DejaVuSans-6c" x="557.8125"/>
      <use xlink:href="#DejaVuSans-61" x="585.595703"/>
      <use xlink:href="#DejaVuSans-72" x="646.875"/>
      <use xlink:href="#DejaVuSans-69" x="687.988281"/>
      <use xlink:href="#DejaVuSans-74" x="715.771484"/>
      <use xlink:href="#DejaVuSans-79" x="754.980469"/>
     </g>
    </g>
   </g>
   <g id="line2d_18">
    <path d="M 235.8 547.095081 
L 235.8 217.640663 
" clip-path="url(#p17a80713ed)" style="fill: none; stroke: #3f3f3f; stroke-width: 1.875; stroke-linecap: square"/>
   </g>
   <g id="line2d_19">
    <path d="M 235.8 409.914591 
L 235.8 310.823641 
" clip-path="url(#p17a80713ed)" style="fill: none; stroke: #3f3f3f; stroke-width: 5.625; stroke-linecap: square"/>
   </g>
   <g id="line2d_20">
    <path d="M 235.8 362.761467 
" clip-path="url(#p17a80713ed)" style="fill: none; stroke: #3f3f3f; stroke-width: 1.5; stroke-linecap: square"/>
    <defs>
     <path id="m0ddd6a7701" d="M 2.34375 0 
L -2.34375 -0 
" style="stroke: #ffffff; stroke-width: 1.125"/>
    </defs>
    <g clip-path="url(#p17a80713ed)">
     <use xlink:href="#m0ddd6a7701" x="235.8" y="362.761467" style="fill: #ffffff; stroke: #ffffff; stroke-width: 1.125"/>
    </g>
   </g>
   <g id="line2d_21">
    <path d="M 347.4 560.95801 
L 347.4 217.640663 
" clip-path="url(#p17a80713ed)" style="fill: none; stroke: #3f3f3f; stroke-width: 1.875; stroke-linecap: square"/>
   </g>
   <g id="line2d_22">
    <path d="M 347.4 464.768704 
L 347.4 355.943574 
" clip-path="url(#p17a80713ed)" style="fill: none; stroke: #3f3f3f; stroke-width: 5.625; stroke-linecap: square"/>
   </g>
   <g id="line2d_23">
    <path d="M 347.4 405.591364 
" clip-path="url(#p17a80713ed)" style="fill: none; stroke: #3f3f3f; stroke-width: 1.5; stroke-linecap: square"/>
    <g clip-path="url(#p17a80713ed)">
     <use xlink:href="#m0ddd6a7701" x="347.4" y="405.591364" style="fill: #ffffff; stroke: #ffffff; stroke-width: 1.125"/>
    </g>
   </g>
   <g id="line2d_24">
    <path d="M 459 556.372859 
L 459 217.640663 
" clip-path="url(#p17a80713ed)" style="fill: none; stroke: #3f3f3f; stroke-width: 1.875; stroke-linecap: square"/>
   </g>
   <g id="line2d_25">
    <path d="M 459 480.506078 
L 459 374.813686 
" clip-path="url(#p17a80713ed)" style="fill: none; stroke: #3f3f3f; stroke-width: 5.625; stroke-linecap: square"/>
   </g>
   <g id="line2d_26">
    <path d="M 459 430.668891 
" clip-path="url(#p17a80713ed)" style="fill: none; stroke: #3f3f3f; stroke-width: 1.5; stroke-linecap: square"/>
    <g clip-path="url(#p17a80713ed)">
     <use xlink:href="#m0ddd6a7701" x="459" y="430.668891" style="fill: #ffffff; stroke: #ffffff; stroke-width: 1.125"/>
    </g>
   </g>
   <g id="line2d_27">
    <path d="M 570.6 554.387494 
L 570.6 232.461518 
" clip-path="url(#p17a80713ed)" style="fill: none; stroke: #3f3f3f; stroke-width: 1.875; stroke-linecap: square"/>
   </g>
   <g id="line2d_28">
    <path d="M 570.6 481.738902 
L 570.6 380.799396 
" clip-path="url(#p17a80713ed)" style="fill: none; stroke: #3f3f3f; stroke-width: 5.625; stroke-linecap: square"/>
   </g>
   <g id="line2d_29">
    <path d="M 570.6 442.39203 
" clip-path="url(#p17a80713ed)" style="fill: none; stroke: #3f3f3f; stroke-width: 1.5; stroke-linecap: square"/>
    <g clip-path="url(#p17a80713ed)">
     <use xlink:href="#m0ddd6a7701" x="570.6" y="442.39203" style="fill: #ffffff; stroke: #ffffff; stroke-width: 1.125"/>
    </g>
   </g>
   <g id="line2d_30">
    <path d="M 682.2 569.590195 
L 682.2 251.776614 
" clip-path="url(#p17a80713ed)" style="fill: none; stroke: #3f3f3f; stroke-width: 1.875; stroke-linecap: square"/>
   </g>
   <g id="line2d_31">
    <path d="M 682.2 491.001814 
L 682.2 393.106429 
" clip-path="url(#p17a80713ed)" style="fill: none; stroke: #3f3f3f; stroke-width: 5.625; stroke-linecap: square"/>
   </g>
   <g id="line2d_32">
    <path d="M 682.2 451.474724 
" clip-path="url(#p17a80713ed)" style="fill: none; stroke: #3f3f3f; stroke-width: 1.5; stroke-linecap: square"/>
    <g clip-path="url(#p17a80713ed)">
     <use xlink:href="#m0ddd6a7701" x="682.2" y="451.474724" style="fill: #ffffff; stroke: #ffffff; stroke-width: 1.125"/>
    </g>
   </g>
   <g id="line2d_33">
    <path d="M 793.8 572.404953 
L 793.8 268.376523 
" clip-path="url(#p17a80713ed)" style="fill: none; stroke: #3f3f3f; stroke-width: 1.875; stroke-linecap: square"/>
   </g>
   <g id="line2d_34">
    <path d="M 793.8 496.338039 
L 793.8 402.660879 
" clip-path="url(#p17a80713ed)" style="fill: none; stroke: #3f3f3f; stroke-width: 5.625; stroke-linecap: square"/>
   </g>
   <g id="line2d_35">
    <path d="M 793.8 459.644978 
" clip-path="url(#p17a80713ed)" style="fill: none; stroke: #3f3f3f; stroke-width: 1.5; stroke-linecap: square"/>
    <g clip-path="url(#p17a80713ed)">
     <use xlink:href="#m0ddd6a7701" x="793.8" y="459.644978" style="fill: #ffffff; stroke: #ffffff; stroke-width: 1.125"/>
    </g>
   </g>
   <g id="line2d_36">
    <path d="M 905.4 572.404953 
L 905.4 268.376523 
" clip-path="url(#p17a80713ed)" style="fill: none; stroke: #3f3f3f; stroke-width: 1.875; stroke-linecap: square"/>
   </g>
   <g id="line2d_37">
    <path d="M 905.4 501.395382 
L 905.4 406.946376 
" clip-path="url(#p17a80713ed)" style="fill: none; stroke: #3f3f3f; stroke-width: 5.625; stroke-linecap: square"/>
   </g>
   <g id="line2d_38">
    <path d="M 905.4 461.914869 
" clip-path="url(#p17a80713ed)" style="fill: none; stroke: #3f3f3f; stroke-width: 1.5; stroke-linecap: square"/>
    <g clip-path="url(#p17a80713ed)">
     <use xlink:href="#m0ddd6a7701" x="905.4" y="461.914869" style="fill: #ffffff; stroke: #ffffff; stroke-width: 1.125"/>
    </g>
   </g>
   <g id="line2d_39">
    <path d="M 1017 572.404953 
L 1017 272.366757 
" clip-path="url(#p17a80713ed)" style="fill: none; stroke: #3f3f3f; stroke-width: 1.875; stroke-linecap: square"/>
   </g>
   <g id="line2d_40">
    <path d="M 1017 501.31111 
L 1017 408.177961 
" clip-path="url(#p17a80713ed)" style="fill: none; stroke: #3f3f3f; stroke-width: 5.625; stroke-linecap: square"/>
   </g>
   <g id="line2d_41">
    <path d="M 1017 462.162812 
" clip-path="url(#p17a80713ed)" style="fill: none; stroke: #3f3f3f; stroke-width: 1.5; stroke-linecap: square"/>
    <g clip-path="url(#p17a80713ed)">
     <use xlink:href="#m0ddd6a7701" x="1017" y="462.162812" style="fill: #ffffff; stroke: #ffffff; stroke-width: 1.125"/>
    </g>
   </g>
   <g id="line2d_42">
    <path d="M 1128.6 572.404953 
L 1128.6 288.377511 
" clip-path="url(#p17a80713ed)" style="fill: none; stroke: #3f3f3f; stroke-width: 1.875; stroke-linecap: square"/>
   </g>
   <g id="line2d_43">
    <path d="M 1128.6 501.513556 
L 1128.6 412.400329 
" clip-path="url(#p17a80713ed)" style="fill: none; stroke: #3f3f3f; stroke-width: 5.625; stroke-linecap: square"/>
   </g>
   <g id="line2d_44">
    <path d="M 1128.6 462.73372 
" clip-path="url(#p17a80713ed)" style="fill: none; stroke: #3f3f3f; stroke-width: 1.5; stroke-linecap: square"/>
    <g clip-path="url(#p17a80713ed)">
     <use xlink:href="#m0ddd6a7701" x="1128.6" y="462.73372" style="fill: #ffffff; stroke: #ffffff; stroke-width: 1.125"/>
    </g>
   </g>
   <g id="line2d_45">
    <path d="M 1240.2 569.590195 
L 1240.2 306.737431 
" clip-path="url(#p17a80713ed)" style="fill: none; stroke: #3f3f3f; stroke-width: 1.875; stroke-linecap: square"/>
   </g>
   <g id="line2d_46">
    <path d="M 1240.2 504.579644 
L 1240.2 419.131053 
" clip-path="url(#p17a80713ed)" style="fill: none; stroke: #3f3f3f; stroke-width: 5.625; stroke-linecap: square"/>
   </g>
   <g id="line2d_47">
    <path d="M 1240.2 463.609828 
" clip-path="url(#p17a80713ed)" style="fill: none; stroke: #3f3f3f; stroke-width: 1.5; stroke-linecap: square"/>
    <g clip-path="url(#p17a80713ed)">
     <use xlink:href="#m0ddd6a7701" x="1240.2" y="463.609828" style="fill: #ffffff; stroke: #ffffff; stroke-width: 1.125"/>
    </g>
   </g>
   <g id="patch_3">
    <path d="M 180 640.8 
L 180 86.4 
" style="fill: none; stroke: #000000; stroke-width: 0.8; stroke-linejoin: miter; stroke-linecap: square"/>
   </g>
   <g id="patch_4">
    <path d="M 1296 640.8 
L 1296 86.4 
" style="fill: none; stroke: #000000; stroke-width: 0.8; stroke-linejoin: miter; stroke-linecap: square"/>
   </g>
   <g id="patch_5">
    <path d="M 180 640.8 
L 1296 640.8 
" style="fill: none; stroke: #000000; stroke-width: 0.8; stroke-linejoin: miter; stroke-linecap: square"/>
   </g>
   <g id="patch_6">
    <path d="M 180 86.4 
L 1296 86.4 
" style="fill: none; stroke: #000000; stroke-width: 0.8; stroke-linejoin: miter; stroke-linecap: square"/>
   </g>
   <g id="text_20">
    <!-- cosine similarity of max_mem_5_fs_glit (distanceFromInitialPrompt), by iteration -->
    <g transform="translate(497.123438 80.4) scale(0.12 -0.12)">
     <defs>
      <path id="DejaVuSans-66" d="M 2375 4863 
L 2375 4384 
L 1825 4384 
Q 1516 4384 1395 4259 
Q 1275 4134 1275 3809 
L 1275 3500 
L 2222 3500 
L 2222 3053 
L 1275 3053 
L 1275 0 
L 697 0 
L 697 3053 
L 147 3053 
L 147 3500 
L 697 3500 
L 697 3744 
Q 697 4328 969 4595 
Q 1241 4863 1831 4863 
L 2375 4863 
z
" transform="scale(0.015625)"/>
      <path id="DejaVuSans-78" d="M 3513 3500 
L 2247 1797 
L 3578 0 
L 2900 0 
L 1881 1375 
L 863 0 
L 184 0 
L 1544 1831 
L 300 3500 
L 978 3500 
L 1906 2253 
L 2834 3500 
L 3513 3500 
z
" transform="scale(0.015625)"/>
      <path id="DejaVuSans-5f" d="M 3263 -1063 
L 3263 -1509 
L -63 -1509 
L -63 -1063 
L 3263 -1063 
z
" transform="scale(0.015625)"/>
      <path id="DejaVuSans-67" d="M 2906 1791 
Q 2906 2416 2648 2759 
Q 2391 3103 1925 3103 
Q 1463 3103 1205 2759 
Q 947 2416 947 1791 
Q 947 1169 1205 825 
Q 1463 481 1925 481 
Q 2391 481 2648 825 
Q 2906 1169 2906 1791 
z
M 3481 434 
Q 3481 -459 3084 -895 
Q 2688 -1331 1869 -1331 
Q 1566 -1331 1297 -1286 
Q 1028 -1241 775 -1147 
L 775 -588 
Q 1028 -725 1275 -790 
Q 1522 -856 1778 -856 
Q 2344 -856 2625 -561 
Q 2906 -266 2906 331 
L 2906 616 
Q 2728 306 2450 153 
Q 2172 0 1784 0 
Q 1141 0 747 490 
Q 353 981 353 1791 
Q 353 2603 747 3093 
Q 1141 3584 1784 3584 
Q 2172 3584 2450 3431 
Q 2728 3278 2906 2969 
L 2906 3500 
L 3481 3500 
L 3481 434 
z
" transform="scale(0.015625)"/>
      <path id="DejaVuSans-28" d="M 1984 4856 
Q 1566 4138 1362 3434 
Q 1159 2731 1159 2009 
Q 1159 1288 1364 580 
Q 1569 -128 1984 -844 
L 1484 -844 
Q 1016 -109 783 600 
Q 550 1309 550 2009 
Q 550 2706 781 3412 
Q 1013 4119 1484 4856 
L 1984 4856 
z
" transform="scale(0.015625)"/>
      <path id="DejaVuSans-64" d="M 2906 2969 
L 2906 4863 
L 3481 4863 
L 3481 0 
L 2906 0 
L 2906 525 
Q 2725 213 2448 61 
Q 2172 -91 1784 -91 
Q 1150 -91 751 415 
Q 353 922 353 1747 
Q 353 2572 751 3078 
Q 1150 3584 1784 3584 
Q 2172 3584 2448 3432 
Q 2725 3281 2906 2969 
z
M 947 1747 
Q 947 1113 1208 752 
Q 1469 391 1925 391 
Q 2381 391 2643 752 
Q 2906 1113 2906 1747 
Q 2906 2381 2643 2742 
Q 2381 3103 1925 3103 
Q 1469 3103 1208 2742 
Q 947 2381 947 1747 
z
" transform="scale(0.015625)"/>
      <path id="DejaVuSans-46" d="M 628 4666 
L 3309 4666 
L 3309 4134 
L 1259 4134 
L 1259 2759 
L 3109 2759 
L 3109 2228 
L 1259 2228 
L 1259 0 
L 628 0 
L 628 4666 
z
" transform="scale(0.015625)"/>
      <path id="DejaVuSans-49" d="M 628 4666 
L 1259 4666 
L 1259 0 
L 628 0 
L 628 4666 
z
" transform="scale(0.015625)"/>
      <path id="DejaVuSans-50" d="M 1259 4147 
L 1259 2394 
L 2053 2394 
Q 2494 2394 2734 2622 
Q 2975 2850 2975 3272 
Q 2975 3691 2734 3919 
Q 2494 4147 2053 4147 
L 1259 4147 
z
M 628 4666 
L 2053 4666 
Q 2838 4666 3239 4311 
Q 3641 3956 3641 3272 
Q 3641 2581 3239 2228 
Q 2838 1875 2053 1875 
L 1259 1875 
L 1259 0 
L 628 0 
L 628 4666 
z
" transform="scale(0.015625)"/>
      <path id="DejaVuSans-70" d="M 1159 525 
L 1159 -1331 
L 581 -1331 
L 581 3500 
L 1159 3500 
L 1159 2969 
Q 1341 3281 1617 3432 
Q 1894 3584 2278 3584 
Q 2916 3584 3314 3078 
Q 3713 2572 3713 1747 
Q 3713 922 3314 415 
Q 2916 -91 2278 -91 
Q 1894 -91 1617 61 
Q 1341 213 1159 525 
z
M 3116 1747 
Q 3116 2381 2855 2742 
Q 2594 3103 2138 3103 
Q 1681 3103 1420 2742 
Q 1159 2381 1159 1747 
Q 1159 1113 1420 752 
Q 1681 391 2138 391 
Q 2594 391 2855 752 
Q 3116 1113 3116 1747 
z
" transform="scale(0.015625)"/>
      <path id="DejaVuSans-29" d="M 513 4856 
L 1013 4856 
Q 1481 4119 1714 3412 
Q 1947 2706 1947 2009 
Q 1947 1309 1714 600 
Q 1481 -109 1013 -844 
L 513 -844 
Q 928 -128 1133 580 
Q 1338 1288 1338 2009 
Q 1338 2731 1133 3434 
Q 928 4138 513 4856 
z
" transform="scale(0.015625)"/>
      <path id="DejaVuSans-2c" d="M 750 794 
L 1409 794 
L 1409 256 
L 897 -744 
L 494 -744 
L 750 256 
L 750 794 
z
" transform="scale(0.015625)"/>
      <path id="DejaVuSans-62" d="M 3116 1747 
Q 3116 2381 2855 2742 
Q 2594 3103 2138 3103 
Q 1681 3103 1420 2742 
Q 1159 2381 1159 1747 
Q 1159 1113 1420 752 
Q 1681 391 2138 391 
Q 2594 391 2855 752 
Q 3116 1113 3116 1747 
z
M 1159 2969 
Q 1341 3281 1617 3432 
Q 1894 3584 2278 3584 
Q 2916 3584 3314 3078 
Q 3713 2572 3713 1747 
Q 3713 922 3314 415 
Q 2916 -91 2278 -91 
Q 1894 -91 1617 61 
Q 1341 213 1159 525 
L 1159 0 
L 581 0 
L 581 4863 
L 1159 4863 
L 1159 2969 
z
" transform="scale(0.015625)"/>
     </defs>
     <use xlink:href="#DejaVuSans-63"/>
     <use xlink:href="#DejaVuSans-6f" x="54.980469"/>
     <use xlink:href="#DejaVuSans-73" x="116.162109"/>
     <use xlink:href="#DejaVuSans-69" x="168.261719"/>
     <use xlink:href="#DejaVuSans-6e" x="196.044922"/>
     <use xlink:href="#DejaVuSans-65" x="259.423828"/>
     <use xlink:href="#DejaVuSans-20" x="320.947266"/>
     <use xlink:href="#DejaVuSans-73" x="352.734375"/>
     <use xlink:href="#DejaVuSans-69" x="404.833984"/>
     <use xlink:href="#DejaVuSans-6d" x="432.617188"/>
     <use xlink:href="#DejaVuSans-69" x="530.029297"/>
     <use xlink:href="#DejaVuSans-6c" x="557.8125"/>
     <use xlink:href="#DejaVuSans-61" x="585.595703"/>
     <use xlink:href="#DejaVuSans-72" x="646.875"/>
     <use xlink:href="#DejaVuSans-69" x="687.988281"/>
     <use xlink:href="#DejaVuSans-74" x="715.771484"/>
     <use xlink:href="#DejaVuSans-79" x="754.980469"/>
     <use xlink:href="#DejaVuSans-20" x="814.160156"/>
     <use xlink:href="#DejaVuSans-6f" x="845.947266"/>
     <use xlink:href="#DejaVuSans-66" x="907.128906"/>
     <use xlink:href="#DejaVuSans-20" x="942.333984"/>
     <use xlink:href="#DejaVuSans-6d" x="974.121094"/>
     <use xlink:href="#DejaVuSans-61" x="1071.533203"/>
     <use xlink:href="#DejaVuSans-78" x="1132.8125"/>
     <use xlink:href="#DejaVuSans-5f" x="1191.992188"/>
     <use xlink:href="#DejaVuSans-6d" x="1241.992188"/>
     <use xlink:href="#DejaVuSans-65" x="1339.404297"/>
     <use xlink:href="#DejaVuSans-6d" x="1400.927734"/>
     <use xlink:href="#DejaVuSans-5f" x="1498.339844"/>
     <use xlink:href="#DejaVuSans-35" x="1548.339844"/>
     <use xlink:href="#DejaVuSans-5f" x="1611.962891"/>
     <use xlink:href="#DejaVuSans-66" x="1661.962891"/>
     <use xlink:href="#DejaVuSans-73" x="1697.167969"/>
     <use xlink:href="#DejaVuSans-5f" x="1749.267578"/>
     <use xlink:href="#DejaVuSans-67" x="1799.267578"/>
     <use xlink:href="#DejaVuSans-6c" x="1862.744141"/>
     <use xlink:href="#DejaVuSans-69" x="1890.527344"/>
     <use xlink:href="#DejaVuSans-74" x="1918.310547"/>
     <use xlink:href="#DejaVuSans-20" x="1957.519531"/>
     <use xlink:href="#DejaVuSans-28" x="1989.306641"/>
     <use xlink:href="#DejaVuSans-64" x="2028.320312"/>
     <use xlink:href="#DejaVuSans-69" x="2091.796875"/>
     <use xlink:href="#DejaVuSans-73" x="2119.580078"/>
     <use xlink:href="#DejaVuSans-74" x="2171.679688"/>
     <use xlink:href="#DejaVuSans-61" x="2210.888672"/>
     <use xlink:href="#DejaVuSans-6e" x="2272.167969"/>
     <use xlink:href="#DejaVuSans-63" x="2335.546875"/>
     <use xlink:href="#DejaVuSans-65" x="2390.527344"/>
     <use xlink:href="#DejaVuSans-46" x="2452.050781"/>
     <use xlink:href="#DejaVuSans-72" x="2502.320312"/>
     <use xlink:href="#DejaVuSans-6f" x="2541.183594"/>
     <use xlink:href="#DejaVuSans-6d" x="2602.365234"/>
     <use xlink:href="#DejaVuSans-49" x="2699.777344"/>
     <use xlink:href="#DejaVuSans-6e" x="2729.269531"/>
     <use xlink:href="#DejaVuSans-69" x="2792.648438"/>
     <use xlink:href="#DejaVuSans-74" x="2820.431641"/>
     <use xlink:href="#DejaVuSans-69" x="2859.640625"/>
     <use xlink:href="#DejaVuSans-61" x="2887.423828"/>
     <use xlink:href="#DejaVuSans-6c" x="2948.703125"/>
     <use xlink:href="#DejaVuSans-50" x="2976.486328"/>
     <use xlink:href="#DejaVuSans-72" x="3035.039062"/>
     <use xlink:href="#DejaVuSans-6f" x="3073.902344"/>
     <use xlink:href="#DejaVuSans-6d" x="3135.083984"/>
     <use xlink:href="#DejaVuSans-70" x="3232.496094"/>
     <use xlink:href="#DejaVuSans-74" x="3295.972656"/>
     <use xlink:href="#DejaVuSans-29" x="3335.181641"/>
     <use xlink:href="#DejaVuSans-2c" x="3374.195312"/>
     <use xlink:href="#DejaVuSans-20" x="3405.982422"/>
     <use xlink:href="#DejaVuSans-62" x="3437.769531"/>
     <use xlink:href="#DejaVuSans-79" x="3501.246094"/>
     <use xlink:href="#DejaVuSans-20" x="3560.425781"/>
     <use xlink:href="#DejaVuSans-69" x="3592.212891"/>
     <use xlink:href="#DejaVuSans-74" x="3619.996094"/>
     <use xlink:href="#DejaVuSans-65" x="3659.205078"/>
     <use xlink:href="#DejaVuSans-72" x="3720.728516"/>
     <use xlink:href="#DejaVuSans-61" x="3761.841797"/>
     <use xlink:href="#DejaVuSans-74" x="3823.121094"/>
     <use xlink:href="#DejaVuSans-69" x="3862.330078"/>
     <use xlink:href="#DejaVuSans-6f" x="3890.113281"/>
     <use xlink:href="#DejaVuSans-6e" x="3951.294922"/>
    </g>
   </g>
  </g>
 </g>
 <defs>
  <clipPath id="p17a80713ed">
   <rect x="180" y="86.4" width="1116" height="554.4"/>
  </clipPath>
 </defs>
</svg>
