<?xml version="1.0" encoding="utf-8" standalone="no"?>
<!DOCTYPE svg PUBLIC "-//W3C//DTD SVG 1.1//EN"
  "http://www.w3.org/Graphics/SVG/1.1/DTD/svg11.dtd">
<svg xmlns:xlink="http://www.w3.org/1999/xlink" width="1440pt" height="720pt" viewBox="0 0 1440 720" xmlns="http://www.w3.org/2000/svg" version="1.1">
 <metadata>
  <rdf:RDF xmlns:dc="http://purl.org/dc/elements/1.1/" xmlns:cc="http://creativecommons.org/ns#" xmlns:rdf="http://www.w3.org/1999/02/22-rdf-syntax-ns#">
   <cc:Work>
    <dc:type rdf:resource="http://purl.org/dc/dcmitype/StillImage"/>
    <dc:date>2024-07-27T14:16:20.460808</dc:date>
    <dc:format>image/svg+xml</dc:format>
    <dc:creator>
     <cc:Agent>
      <dc:title>Matplotlib v3.8.0, https://matplotlib.org/</dc:title>
     </cc:Agent>
    </dc:creator>
   </cc:Work>
  </rdf:RDF>
 </metadata>
 <defs>
  <style type="text/css">*{stroke-linejoin: round; stroke-linecap: butt}</style>
 </defs>
 <g id="figure_1">
  <g id="patch_1">
   <path d="M 0 720 
L 1440 720 
L 1440 0 
L 0 0 
z
" style="fill: #ffffff"/>
  </g>
  <g id="axes_1">
   <g id="patch_2">
    <path d="M 180 640.8 
L 1296 640.8 
L 1296 86.4 
L 180 86.4 
z
" style="fill: #ffffff"/>
   </g>
   <g id="PolyCollection_1">
    <defs>
     <path id="m2101658be1" d="M 235.92169 -120.938228 
L 235.67831 -120.938228 
L 235.622167 -125.854759 
L 235.547974 -130.77129 
L 235.453209 -135.687821 
L 235.335997 -140.604352 
L 235.195227 -145.520883 
L 235.030453 -150.437414 
L 234.841556 -155.353945 
L 234.628206 -160.270476 
L 234.389253 -165.187006 
L 234.122205 -170.103537 
L 233.822991 -175.020068 
L 233.486118 -179.936599 
L 233.105225 -184.85313 
L 232.673931 -189.769661 
L 232.186726 -194.686192 
L 231.639661 -199.602723 
L 231.030604 -204.519254 
L 230.35896 -209.435785 
L 229.624902 -214.352316 
L 228.828291 -219.268847 
L 227.967569 -224.185378 
L 227.038902 -229.101909 
L 226.035845 -234.01844 
L 224.949674 -238.934971 
L 223.770483 -243.851502 
L 222.488998 -248.768032 
L 221.099006 -253.684563 
L 219.600157 -258.601094 
L 218.00082 -263.517625 
L 216.320523 -268.434156 
L 214.591484 -273.350687 
L 212.858685 -278.267218 
L 211.178124 -283.183749 
L 209.61308 -288.10028 
L 208.228599 -293.016811 
L 207.084791 -297.933342 
L 206.229832 -302.849873 
L 205.693736 -307.766404 
L 205.483942 -312.682935 
L 205.583492 -317.599466 
L 205.952184 -322.515997 
L 206.530569 -327.432528 
L 207.246219 -332.349059 
L 208.021318 -337.265589 
L 208.780509 -342.18212 
L 209.457953 -347.098651 
L 210.002811 -352.015182 
L 210.382691 -356.931713 
L 210.584971 -361.848244 
L 210.616209 -366.764775 
L 210.500051 -371.681306 
L 210.274104 -376.597837 
L 209.986215 -381.514368 
L 209.690478 -386.430899 
L 209.44318 -391.34743 
L 209.298813 -396.263961 
L 209.306242 -401.180492 
L 209.505162 -406.097023 
L 209.923059 -411.013554 
L 210.57299 -415.930085 
L 211.452508 -420.846615 
L 212.544028 -425.763146 
L 213.816752 -430.679677 
L 215.230003 -435.596208 
L 216.737543 -440.512739 
L 218.29226 -445.42927 
L 219.85049 -450.345801 
L 221.375349 -455.262332 
L 222.83868 -460.178863 
L 224.221474 -465.095394 
L 225.512959 -470.011925 
L 226.708699 -474.928456 
L 227.808206 -479.844987 
L 228.812526 -484.761518 
L 229.722232 -489.678049 
L 230.536136 -494.59458 
L 231.250923 -499.511111 
L 231.86176 -504.427641 
L 232.363769 -509.344172 
L 232.754089 -514.260703 
L 233.034106 -519.177234 
L 233.211307 -524.093765 
L 233.300265 -529.010296 
L 233.322364 -533.926827 
L 233.304131 -538.843358 
L 233.274361 -543.759889 
L 233.260539 -548.67642 
L 233.285239 -553.592951 
L 233.363263 -558.509482 
L 233.500092 -563.426013 
L 233.691941 -568.342544 
L 233.927342 -573.259075 
L 234.189818 -578.175606 
L 234.461037 -583.092137 
L 234.723767 -588.008668 
L 234.964133 -592.925198 
L 235.17286 -597.841729 
L 235.345509 -602.75826 
L 235.481888 -607.674791 
L 236.118112 -607.674791 
L 236.118112 -607.674791 
L 236.254491 -602.75826 
L 236.42714 -597.841729 
L 236.635867 -592.925198 
L 236.876233 -588.008668 
L 237.138963 -583.092137 
L 237.410182 -578.175606 
L 237.672658 -573.259075 
L 237.908059 -568.342544 
L 238.099908 -563.426013 
L 238.236737 -558.509482 
L 238.314761 -553.592951 
L 238.339461 -548.67642 
L 238.325639 -543.759889 
L 238.295869 -538.843358 
L 238.277636 -533.926827 
L 238.299735 -529.010296 
L 238.388693 -524.093765 
L 238.565894 -519.177234 
L 238.845911 -514.260703 
L 239.236231 -509.344172 
L 239.73824 -504.427641 
L 240.349077 -499.511111 
L 241.063864 -494.59458 
L 241.877768 -489.678049 
L 242.787474 -484.761518 
L 243.791794 -479.844987 
L 244.891301 -474.928456 
L 246.087041 -470.011925 
L 247.378526 -465.095394 
L 248.76132 -460.178863 
L 250.224651 -455.262332 
L 251.74951 -450.345801 
L 253.30774 -445.42927 
L 254.862457 -440.512739 
L 256.369997 -435.596208 
L 257.783248 -430.679677 
L 259.055972 -425.763146 
L 260.147492 -420.846615 
L 261.02701 -415.930085 
L 261.676941 -411.013554 
L 262.094838 -406.097023 
L 262.293758 -401.180492 
L 262.301187 -396.263961 
L 262.15682 -391.34743 
L 261.909522 -386.430899 
L 261.613785 -381.514368 
L 261.325896 -376.597837 
L 261.099949 -371.681306 
L 260.983791 -366.764775 
L 261.015029 -361.848244 
L 261.217309 -356.931713 
L 261.597189 -352.015182 
L 262.142047 -347.098651 
L 262.819491 -342.18212 
L 263.578682 -337.265589 
L 264.353781 -332.349059 
L 265.069431 -327.432528 
L 265.647816 -322.515997 
L 266.016508 -317.599466 
L 266.116058 -312.682935 
L 265.906264 -307.766404 
L 265.370168 -302.849873 
L 264.515209 -297.933342 
L 263.371401 -293.016811 
L 261.98692 -288.10028 
L 260.421876 -283.183749 
L 258.741315 -278.267218 
L 257.008516 -273.350687 
L 255.279477 -268.434156 
L 253.59918 -263.517625 
L 251.999843 -258.601094 
L 250.500994 -253.684563 
L 249.111002 -248.768032 
L 247.829517 -243.851502 
L 246.650326 -238.934971 
L 245.564155 -234.01844 
L 244.561098 -229.101909 
L 243.632431 -224.185378 
L 242.771709 -219.268847 
L 241.975098 -214.352316 
L 241.24104 -209.435785 
L 240.569396 -204.519254 
L 239.960339 -199.602723 
L 239.413274 -194.686192 
L 238.926069 -189.769661 
L 238.494775 -184.85313 
L 238.113882 -179.936599 
L 237.777009 -175.020068 
L 237.477795 -170.103537 
L 237.210747 -165.187006 
L 236.971794 -160.270476 
L 236.758444 -155.353945 
L 236.569547 -150.437414 
L 236.404773 -145.520883 
L 236.264003 -140.604352 
L 236.146791 -135.687821 
L 236.052026 -130.77129 
L 235.977833 -125.854759 
L 235.92169 -120.938228 
z
" style="stroke: #3f3f3f; stroke-width: 1.25"/>
    </defs>
    <g clip-path="url(#p5ab1e97471)">
     <use xlink:href="#m2101658be1" x="0" y="720" style="fill: #3274a1; stroke: #3f3f3f; stroke-width: 1.25"/>
    </g>
   </g>
   <g id="PolyCollection_2">
    <defs>
     <path id="mb4a82c6277" d="M 347.621091 -106.574049 
L 347.178909 -106.574049 
L 347.054633 -111.642998 
L 346.875815 -116.711947 
L 346.626469 -121.780896 
L 346.289342 -126.849845 
L 345.847117 -131.918794 
L 345.283947 -136.987743 
L 344.587154 -142.056692 
L 343.748874 -147.125641 
L 342.767375 -152.19459 
L 341.64785 -157.263539 
L 340.402512 -162.332488 
L 339.049974 -167.401437 
L 337.614 -172.470386 
L 336.121807 -177.539335 
L 334.602175 -182.608284 
L 333.083615 -187.677233 
L 331.592815 -192.746182 
L 330.153523 -197.815131 
L 328.785899 -202.88408 
L 327.506307 -207.953029 
L 326.327375 -213.021978 
L 325.258116 -218.090927 
L 324.30389 -223.159876 
L 323.466064 -228.228825 
L 322.741414 -233.297774 
L 322.121467 -238.366723 
L 321.592195 -243.435672 
L 321.134493 -248.504621 
L 320.725735 -253.57357 
L 320.342472 -258.642519 
L 319.963927 -263.711468 
L 319.575691 -268.780417 
L 319.172841 -273.849366 
L 318.761781 -278.918315 
L 318.360376 -283.987264 
L 317.996301 -289.056213 
L 317.703897 -294.125162 
L 317.520081 -299.194111 
L 317.479937 -304.26306 
L 317.612586 -309.332009 
L 317.937833 -314.400958 
L 318.463876 -319.469907 
L 319.186295 -324.538856 
L 320.088352 -329.607805 
L 321.142544 -334.676754 
L 322.313217 -339.745703 
L 323.5599 -344.814652 
L 324.840947 -349.883601 
L 326.117004 -354.95255 
L 327.353887 -360.021499 
L 328.524626 -365.090448 
L 329.610562 -370.159397 
L 330.601629 -375.228346 
L 331.495963 -380.297295 
L 332.299069 -385.366244 
L 333.022634 -390.435193 
L 333.683026 -395.504142 
L 334.29948 -400.573091 
L 334.89199 -405.64204 
L 335.479052 -410.710989 
L 336.075525 -415.779938 
L 336.690965 -420.848887 
L 337.328747 -425.917836 
L 337.986189 -430.986785 
L 338.655665 -436.055734 
L 339.326462 -441.124683 
L 339.986998 -446.193632 
L 340.626898 -451.262581 
L 341.238549 -456.33153 
L 341.81783 -461.400479 
L 342.363986 -466.469428 
L 342.878767 -471.538377 
L 343.365129 -476.607326 
L 343.825838 -481.676275 
L 344.262317 -486.745224 
L 344.673963 -491.814173 
L 345.058068 -496.883122 
L 345.410302 -501.952071 
L 345.725629 -507.02102 
L 345.999444 -512.089969 
L 346.228684 -517.158918 
L 346.412693 -522.227867 
L 346.553678 -527.296816 
L 346.656664 -532.365765 
L 346.72896 -537.434714 
L 346.779248 -542.503663 
L 346.816463 -547.572612 
L 346.848665 -552.641561 
L 346.882135 -557.71051 
L 346.920822 -562.779459 
L 346.966228 -567.848408 
L 347.017702 -572.917357 
L 347.073043 -577.986306 
L 347.129236 -583.055255 
L 347.183184 -588.124204 
L 347.232275 -593.193153 
L 347.274726 -598.262102 
L 347.309694 -603.331051 
L 347.337185 -608.4 
L 347.462815 -608.4 
L 347.462815 -608.4 
L 347.490306 -603.331051 
L 347.525274 -598.262102 
L 347.567725 -593.193153 
L 347.616816 -588.124204 
L 347.670764 -583.055255 
L 347.726957 -577.986306 
L 347.782298 -572.917357 
L 347.833772 -567.848408 
L 347.879178 -562.779459 
L 347.917865 -557.71051 
L 347.951335 -552.641561 
L 347.983537 -547.572612 
L 348.020752 -542.503663 
L 348.07104 -537.434714 
L 348.143336 -532.365765 
L 348.246322 -527.296816 
L 348.387307 -522.227867 
L 348.571316 -517.158918 
L 348.800556 -512.089969 
L 349.074371 -507.02102 
L 349.389698 -501.952071 
L 349.741932 -496.883122 
L 350.126037 -491.814173 
L 350.537683 -486.745224 
L 350.974162 -481.676275 
L 351.434871 -476.607326 
L 351.921233 -471.538377 
L 352.436014 -466.469428 
L 352.98217 -461.400479 
L 353.561451 -456.33153 
L 354.173102 -451.262581 
L 354.813002 -446.193632 
L 355.473538 -441.124683 
L 356.144335 -436.055734 
L 356.813811 -430.986785 
L 357.471253 -425.917836 
L 358.109035 -420.848887 
L 358.724475 -415.779938 
L 359.320948 -410.710989 
L 359.90801 -405.64204 
L 360.50052 -400.573091 
L 361.116974 -395.504142 
L 361.777366 -390.435193 
L 362.500931 -385.366244 
L 363.304037 -380.297295 
L 364.198371 -375.228346 
L 365.189438 -370.159397 
L 366.275374 -365.090448 
L 367.446113 -360.021499 
L 368.682996 -354.95255 
L 369.959053 -349.883601 
L 371.2401 -344.814652 
L 372.486783 -339.745703 
L 373.657456 -334.676754 
L 374.711648 -329.607805 
L 375.613705 -324.538856 
L 376.336124 -319.469907 
L 376.862167 -314.400958 
L 377.187414 -309.332009 
L 377.320063 -304.26306 
L 377.279919 -299.194111 
L 377.096103 -294.125162 
L 376.803699 -289.056213 
L 376.439624 -283.987264 
L 376.038219 -278.918315 
L 375.627159 -273.849366 
L 375.224309 -268.780417 
L 374.836073 -263.711468 
L 374.457528 -258.642519 
L 374.074265 -253.57357 
L 373.665507 -248.504621 
L 373.207805 -243.435672 
L 372.678533 -238.366723 
L 372.058586 -233.297774 
L 371.333936 -228.228825 
L 370.49611 -223.159876 
L 369.541884 -218.090927 
L 368.472625 -213.021978 
L 367.293693 -207.953029 
L 366.014101 -202.88408 
L 364.646477 -197.815131 
L 363.207185 -192.746182 
L 361.716385 -187.677233 
L 360.197825 -182.608284 
L 358.678193 -177.539335 
L 357.186 -172.470386 
L 355.750026 -167.401437 
L 354.397488 -162.332488 
L 353.15215 -157.263539 
L 352.032625 -152.19459 
L 351.051126 -147.125641 
L 350.212846 -142.056692 
L 349.516053 -136.987743 
L 348.952883 -131.918794 
L 348.510658 -126.849845 
L 348.173531 -121.780896 
L 347.924185 -116.711947 
L 347.745367 -111.642998 
L 347.621091 -106.574049 
z
" style="stroke: #3f3f3f; stroke-width: 1.25"/>
    </defs>
    <g clip-path="url(#p5ab1e97471)">
     <use xlink:href="#mb4a82c6277" x="0" y="720" style="fill: #3274a1; stroke: #3f3f3f; stroke-width: 1.25"/>
    </g>
   </g>
   <g id="PolyCollection_3">
    <defs>
     <path id="m5f57719261" d="M 459.339418 -114.70761 
L 458.660582 -114.70761 
L 458.487543 -119.077812 
L 458.246452 -123.448015 
L 457.920297 -127.818218 
L 457.491705 -132.188421 
L 456.94436 -136.558624 
L 456.264564 -140.928826 
L 455.442723 -145.299029 
L 454.474465 -149.669232 
L 453.36116 -154.039435 
L 452.10971 -158.409638 
L 450.731647 -162.77984 
L 449.241747 -167.150043 
L 447.6565 -171.520246 
L 445.992824 -175.890449 
L 444.26734 -180.260652 
L 442.496379 -184.630855 
L 440.696656 -189.001057 
L 438.886398 -193.37126 
L 437.086561 -197.741463 
L 435.321767 -202.111666 
L 433.620662 -206.481869 
L 432.015501 -210.852071 
L 430.540911 -215.222274 
L 429.231869 -219.592477 
L 428.121029 -223.96268 
L 427.235616 -228.332883 
L 426.594195 -232.703085 
L 426.203722 -237.073288 
L 426.057385 -241.443491 
L 426.133742 -245.813694 
L 426.397565 -250.183897 
L 426.802564 -254.5541 
L 427.295839 -258.924302 
L 427.823535 -263.294505 
L 428.336894 -267.664708 
L 428.797781 -272.034911 
L 429.182782 -276.405114 
L 429.485288 -280.775316 
L 429.715259 -285.145519 
L 429.896836 -289.515722 
L 430.064249 -293.885925 
L 430.256702 -298.256128 
L 430.51302 -302.626331 
L 430.866753 -306.996533 
L 431.342349 -311.366736 
L 431.952761 -315.736939 
L 432.69868 -320.107142 
L 433.569342 -324.477345 
L 434.544673 -328.847547 
L 435.598357 -333.21775 
L 436.701325 -337.587953 
L 437.825124 -341.958156 
L 438.944697 -346.328359 
L 440.040222 -350.698561 
L 441.097873 -355.068764 
L 442.109564 -359.438967 
L 443.071911 -363.80917 
L 443.984783 -368.179373 
L 444.84981 -372.549576 
L 445.669179 -376.919778 
L 446.44491 -381.289981 
L 447.178626 -385.660184 
L 447.871712 -390.030387 
L 448.525653 -394.40059 
L 449.142327 -398.770792 
L 449.724103 -403.140995 
L 450.273678 -407.511198 
L 450.793739 -411.881401 
L 451.28657 -416.251604 
L 451.753785 -420.621806 
L 452.196292 -424.992009 
L 452.61453 -429.362212 
L 453.008887 -433.732415 
L 453.380187 -438.102618 
L 453.730061 -442.472821 
L 454.061089 -446.843023 
L 454.376665 -451.213226 
L 454.680611 -455.583429 
L 454.976661 -459.953632 
L 455.267943 -464.323835 
L 455.556581 -468.694037 
L 455.843506 -473.06424 
L 456.128468 -477.434443 
L 456.410219 -481.804646 
L 456.686781 -486.174849 
L 456.955738 -490.545051 
L 457.214476 -494.915254 
L 457.460374 -499.285457 
L 457.690945 -503.65566 
L 457.903942 -508.025863 
L 458.097481 -512.396066 
L 458.270152 -516.766268 
L 458.421139 -521.136471 
L 458.550307 -525.506674 
L 458.658236 -529.876877 
L 458.746186 -534.24708 
L 458.81599 -538.617282 
L 458.86989 -542.987485 
L 458.910345 -547.357688 
L 459.089655 -547.357688 
L 459.089655 -547.357688 
L 459.13011 -542.987485 
L 459.18401 -538.617282 
L 459.253814 -534.24708 
L 459.341764 -529.876877 
L 459.449693 -525.506674 
L 459.578861 -521.136471 
L 459.729848 -516.766268 
L 459.902519 -512.396066 
L 460.096058 -508.025863 
L 460.309055 -503.65566 
L 460.539626 -499.285457 
L 460.785524 -494.915254 
L 461.044262 -490.545051 
L 461.313219 -486.174849 
L 461.589781 -481.804646 
L 461.871532 -477.434443 
L 462.156494 -473.06424 
L 462.443419 -468.694037 
L 462.732057 -464.323835 
L 463.023339 -459.953632 
L 463.319389 -455.583429 
L 463.623335 -451.213226 
L 463.938911 -446.843023 
L 464.269939 -442.472821 
L 464.619813 -438.102618 
L 464.991113 -433.732415 
L 465.38547 -429.362212 
L 465.803708 -424.992009 
L 466.246215 -420.621806 
L 466.71343 -416.251604 
L 467.206261 -411.881401 
L 467.726322 -407.511198 
L 468.275897 -403.140995 
L 468.857673 -398.770792 
L 469.474347 -394.40059 
L 470.128288 -390.030387 
L 470.821374 -385.660184 
L 471.55509 -381.289981 
L 472.330821 -376.919778 
L 473.15019 -372.549576 
L 474.015217 -368.179373 
L 474.928089 -363.80917 
L 475.890436 -359.438967 
L 476.902127 -355.068764 
L 477.959778 -350.698561 
L 479.055303 -346.328359 
L 480.174876 -341.958156 
L 481.298675 -337.587953 
L 482.401643 -333.21775 
L 483.455327 -328.847547 
L 484.430658 -324.477345 
L 485.30132 -320.107142 
L 486.047239 -315.736939 
L 486.657651 -311.366736 
L 487.133247 -306.996533 
L 487.48698 -302.626331 
L 487.743298 -298.256128 
L 487.935751 -293.885925 
L 488.103164 -289.515722 
L 488.284741 -285.145519 
L 488.514712 -280.775316 
L 488.817218 -276.405114 
L 489.202219 -272.034911 
L 489.663106 -267.664708 
L 490.176465 -263.294505 
L 490.704161 -258.924302 
L 491.197436 -254.5541 
L 491.602435 -250.183897 
L 491.866258 -245.813694 
L 491.942615 -241.443491 
L 491.796278 -237.073288 
L 491.405805 -232.703085 
L 490.764384 -228.332883 
L 489.878971 -223.96268 
L 488.768131 -219.592477 
L 487.459089 -215.222274 
L 485.984499 -210.852071 
L 484.379338 -206.481869 
L 482.678233 -202.111666 
L 480.913439 -197.741463 
L 479.113602 -193.37126 
L 477.303344 -189.001057 
L 475.503621 -184.630855 
L 473.73266 -180.260652 
L 472.007176 -175.890449 
L 470.3435 -171.520246 
L 468.758253 -167.150043 
L 467.268353 -162.77984 
L 465.89029 -158.409638 
L 464.63884 -154.039435 
L 463.525535 -149.669232 
L 462.557277 -145.299029 
L 461.735436 -140.928826 
L 461.05564 -136.558624 
L 460.508295 -132.188421 
L 460.079703 -127.818218 
L 459.753548 -123.448015 
L 459.512457 -119.077812 
L 459.339418 -114.70761 
z
" style="stroke: #3f3f3f; stroke-width: 1.25"/>
    </defs>
    <g clip-path="url(#p5ab1e97471)">
     <use xlink:href="#m5f57719261" x="0" y="720" style="fill: #3274a1; stroke: #3f3f3f; stroke-width: 1.25"/>
    </g>
   </g>
   <g id="PolyCollection_4">
    <defs>
     <path id="m01430cdede" d="M 571.099774 -118.098468 
L 570.100226 -118.098468 
L 569.852888 -122.272612 
L 569.511901 -126.446756 
L 569.055447 -130.620901 
L 568.462041 -134.795045 
L 567.712624 -138.969189 
L 566.792857 -143.143333 
L 565.695272 -147.317477 
L 564.420896 -151.491622 
L 562.980002 -155.665766 
L 561.391755 -159.83991 
L 559.682762 -164.014054 
L 557.884704 -168.188198 
L 556.031472 -172.362343 
L 554.156284 -176.536487 
L 552.289259 -180.710631 
L 550.455802 -184.884775 
L 548.675928 -189.058919 
L 546.964504 -193.233064 
L 545.332204 -197.407208 
L 543.786918 -201.581352 
L 542.335373 -205.755496 
L 540.984731 -209.92964 
L 539.743968 -214.103785 
L 538.624826 -218.277929 
L 537.642138 -222.452073 
L 536.813308 -226.626217 
L 536.156826 -230.800361 
L 535.689874 -234.974505 
L 535.425287 -239.14865 
L 535.36841 -243.322794 
L 535.514496 -247.496938 
L 535.847335 -251.671082 
L 536.339576 -255.845226 
L 536.954913 -260.019371 
L 537.651874 -264.193515 
L 538.388618 -268.367659 
L 539.127908 -272.541803 
L 539.841409 -276.715947 
L 540.512588 -280.890092 
L 541.137808 -285.064236 
L 541.7255 -289.23838 
L 542.293677 -293.412524 
L 542.866249 -297.586668 
L 543.468759 -301.760813 
L 544.124199 -305.934957 
L 544.849498 -310.109101 
L 545.653115 -314.283245 
L 546.534029 -318.457389 
L 547.482172 -322.631534 
L 548.480139 -326.805678 
L 549.505859 -330.979822 
L 550.53575 -335.153966 
L 551.547853 -339.32811 
L 552.524485 -343.502255 
L 553.45404 -347.676399 
L 554.331725 -351.850543 
L 555.159234 -356.024687 
L 555.943458 -360.198831 
L 556.694551 -364.372976 
L 557.423677 -368.54712 
L 558.140836 -372.721264 
L 558.853105 -376.895408 
L 559.563535 -381.069552 
L 560.270827 -385.243696 
L 560.96973 -389.417841 
L 561.652028 -393.591985 
L 562.307856 -397.766129 
L 562.927093 -401.940273 
L 563.500622 -406.114417 
L 564.021301 -410.288562 
L 564.484614 -414.462706 
L 564.888999 -418.63685 
L 565.235932 -422.810994 
L 565.529806 -426.985138 
L 565.777638 -431.159283 
L 565.988614 -435.333427 
L 566.173471 -439.507571 
L 566.343714 -443.681715 
L 566.510708 -447.855859 
L 566.684732 -452.030004 
L 566.874088 -456.204148 
L 567.084401 -460.378292 
L 567.318194 -464.552436 
L 567.574809 -468.72658 
L 567.850682 -472.900725 
L 568.139913 -477.074869 
L 568.435047 -481.249013 
L 568.727956 -485.423157 
L 569.010681 -489.597301 
L 569.276163 -493.771446 
L 569.518773 -497.94559 
L 569.734619 -502.119734 
L 569.921633 -506.293878 
L 570.079461 -510.468022 
L 570.209215 -514.642167 
L 570.31313 -518.816311 
L 570.394193 -522.990455 
L 570.455778 -527.164599 
L 570.501334 -531.338743 
L 570.698666 -531.338743 
L 570.698666 -531.338743 
L 570.744222 -527.164599 
L 570.805807 -522.990455 
L 570.88687 -518.816311 
L 570.990785 -514.642167 
L 571.120539 -510.468022 
L 571.278367 -506.293878 
L 571.465381 -502.119734 
L 571.681227 -497.94559 
L 571.923837 -493.771446 
L 572.189319 -489.597301 
L 572.472044 -485.423157 
L 572.764953 -481.249013 
L 573.060087 -477.074869 
L 573.349318 -472.900725 
L 573.625191 -468.72658 
L 573.881806 -464.552436 
L 574.115599 -460.378292 
L 574.325912 -456.204148 
L 574.515268 -452.030004 
L 574.689292 -447.855859 
L 574.856286 -443.681715 
L 575.026529 -439.507571 
L 575.211386 -435.333427 
L 575.422362 -431.159283 
L 575.670194 -426.985138 
L 575.964068 -422.810994 
L 576.311001 -418.63685 
L 576.715386 -414.462706 
L 577.178699 -410.288562 
L 577.699378 -406.114417 
L 578.272907 -401.940273 
L 578.892144 -397.766129 
L 579.547972 -393.591985 
L 580.23027 -389.417841 
L 580.929173 -385.243696 
L 581.636465 -381.069552 
L 582.346895 -376.895408 
L 583.059164 -372.721264 
L 583.776323 -368.54712 
L 584.505449 -364.372976 
L 585.256542 -360.198831 
L 586.040766 -356.024687 
L 586.868275 -351.850543 
L 587.74596 -347.676399 
L 588.675515 -343.502255 
L 589.652147 -339.32811 
L 590.66425 -335.153966 
L 591.694141 -330.979822 
L 592.719861 -326.805678 
L 593.717828 -322.631534 
L 594.665971 -318.457389 
L 595.546885 -314.283245 
L 596.350502 -310.109101 
L 597.075801 -305.934957 
L 597.731241 -301.760813 
L 598.333751 -297.586668 
L 598.906323 -293.412524 
L 599.4745 -289.23838 
L 600.062192 -285.064236 
L 600.687412 -280.890092 
L 601.358591 -276.715947 
L 602.072092 -272.541803 
L 602.811382 -268.367659 
L 603.548126 -264.193515 
L 604.245087 -260.019371 
L 604.860424 -255.845226 
L 605.352665 -251.671082 
L 605.685504 -247.496938 
L 605.83159 -243.322794 
L 605.774713 -239.14865 
L 605.510126 -234.974505 
L 605.043174 -230.800361 
L 604.386692 -226.626217 
L 603.557862 -222.452073 
L 602.575174 -218.277929 
L 601.456032 -214.103785 
L 600.215269 -209.92964 
L 598.864627 -205.755496 
L 597.413082 -201.581352 
L 595.867796 -197.407208 
L 594.235496 -193.233064 
L 592.524072 -189.058919 
L 590.744198 -184.884775 
L 588.910741 -180.710631 
L 587.043716 -176.536487 
L 585.168528 -172.362343 
L 583.315296 -168.188198 
L 581.517238 -164.014054 
L 579.808245 -159.83991 
L 578.219998 -155.665766 
L 576.779104 -151.491622 
L 575.504728 -147.317477 
L 574.407143 -143.143333 
L 573.487376 -138.969189 
L 572.737959 -134.795045 
L 572.144553 -130.620901 
L 571.688099 -126.446756 
L 571.347112 -122.272612 
L 571.099774 -118.098468 
z
" style="stroke: #3f3f3f; stroke-width: 1.25"/>
    </defs>
    <g clip-path="url(#p5ab1e97471)">
     <use xlink:href="#m01430cdede" x="0" y="720" style="fill: #3274a1; stroke: #3f3f3f; stroke-width: 1.25"/>
    </g>
   </g>
   <g id="PolyCollection_5">
    <defs>
     <path id="m24e40e73a6" d="M 682.420816 -104.4 
L 681.979184 -104.4 
L 681.866056 -108.50785 
L 681.706059 -112.6157 
L 681.485026 -116.723551 
L 681.186631 -120.831401 
L 680.79283 -124.939251 
L 680.284606 -129.047101 
L 679.643018 -133.154952 
L 678.850509 -137.262802 
L 677.892368 -141.370652 
L 676.758188 -145.478502 
L 675.443154 -149.586352 
L 673.94897 -153.694203 
L 672.28433 -157.802053 
L 670.464863 -161.909903 
L 668.512626 -166.017753 
L 666.455249 -170.125604 
L 664.324869 -174.233454 
L 662.156947 -178.341304 
L 659.988995 -182.449154 
L 657.859159 -186.557004 
L 655.804601 -190.664855 
L 653.859696 -194.772705 
L 652.054193 -198.880555 
L 650.411647 -202.988405 
L 648.94853 -207.096256 
L 647.674362 -211.204106 
L 646.593003 -215.311956 
L 645.704913 -219.419806 
L 645.009846 -223.527656 
L 644.5092 -227.635507 
L 644.207268 -231.743357 
L 644.110864 -235.851207 
L 644.227242 -239.959057 
L 644.560752 -244.066907 
L 645.109044 -248.174758 
L 645.859871 -252.282608 
L 646.78938 -256.390458 
L 647.862494 -260.498308 
L 649.035445 -264.606159 
L 650.260062 -268.714009 
L 651.48902 -272.821859 
L 652.681077 -276.929709 
L 653.805394 -281.037559 
L 654.84421 -285.14541 
L 655.793518 -289.25326 
L 656.661735 -293.36111 
L 657.466708 -297.46896 
L 658.231628 -301.576811 
L 658.980601 -305.684661 
L 659.734581 -309.792511 
L 660.5083 -313.900361 
L 661.308598 -318.008211 
L 662.134291 -322.116062 
L 662.977433 -326.223912 
L 663.825595 -330.331762 
L 664.664622 -334.439612 
L 665.481334 -338.547463 
L 666.265671 -342.655313 
L 667.012006 -346.763163 
L 667.71951 -350.871013 
L 668.391669 -354.978863 
L 669.035191 -359.086714 
L 669.658576 -363.194564 
L 670.270654 -367.302414 
L 670.879289 -371.410264 
L 671.490402 -375.518115 
L 672.10735 -379.625965 
L 672.730643 -383.733815 
L 673.357956 -387.841665 
L 673.984366 -391.949515 
L 674.602748 -396.057366 
L 675.204321 -400.165216 
L 675.779301 -404.273066 
L 676.317683 -408.380916 
L 676.810119 -412.488767 
L 677.248874 -416.596617 
L 677.628767 -420.704467 
L 677.948 -424.812317 
L 678.208726 -428.920167 
L 678.417221 -433.028018 
L 678.583566 -437.135868 
L 678.720806 -441.243718 
L 678.843645 -445.351568 
L 678.966839 -449.459418 
L 679.103503 -453.567269 
L 679.263598 -457.675119 
L 679.452838 -461.782969 
L 679.672204 -465.890819 
L 679.918113 -469.99867 
L 680.183214 -474.10652 
L 680.457641 -478.21437 
L 680.730498 -482.32222 
L 680.991314 -486.43007 
L 681.231248 -490.537921 
L 681.4439 -494.645771 
L 681.625646 -498.753621 
L 681.775557 -502.861471 
L 681.894974 -506.969322 
L 681.986895 -511.077172 
L 682.413105 -511.077172 
L 682.413105 -511.077172 
L 682.505026 -506.969322 
L 682.624443 -502.861471 
L 682.774354 -498.753621 
L 682.9561 -494.645771 
L 683.168752 -490.537921 
L 683.408686 -486.43007 
L 683.669502 -482.32222 
L 683.942359 -478.21437 
L 684.216786 -474.10652 
L 684.481887 -469.99867 
L 684.727796 -465.890819 
L 684.947162 -461.782969 
L 685.136402 -457.675119 
L 685.296497 -453.567269 
L 685.433161 -449.459418 
L 685.556355 -445.351568 
L 685.679194 -441.243718 
L 685.816434 -437.135868 
L 685.982779 -433.028018 
L 686.191274 -428.920167 
L 686.452 -424.812317 
L 686.771233 -420.704467 
L 687.151126 -416.596617 
L 687.589881 -412.488767 
L 688.082317 -408.380916 
L 688.620699 -404.273066 
L 689.195679 -400.165216 
L 689.797252 -396.057366 
L 690.415634 -391.949515 
L 691.042044 -387.841665 
L 691.669357 -383.733815 
L 692.29265 -379.625965 
L 692.909598 -375.518115 
L 693.520711 -371.410264 
L 694.129346 -367.302414 
L 694.741424 -363.194564 
L 695.364809 -359.086714 
L 696.008331 -354.978863 
L 696.68049 -350.871013 
L 697.387994 -346.763163 
L 698.134329 -342.655313 
L 698.918666 -338.547463 
L 699.735378 -334.439612 
L 700.574405 -330.331762 
L 701.422567 -326.223912 
L 702.265709 -322.116062 
L 703.091402 -318.008211 
L 703.8917 -313.900361 
L 704.665419 -309.792511 
L 705.419399 -305.684661 
L 706.168372 -301.576811 
L 706.933292 -297.46896 
L 707.738265 -293.36111 
L 708.606482 -289.25326 
L 709.55579 -285.14541 
L 710.594606 -281.037559 
L 711.718923 -276.929709 
L 712.91098 -272.821859 
L 714.139938 -268.714009 
L 715.364555 -264.606159 
L 716.537506 -260.498308 
L 717.61062 -256.390458 
L 718.540129 -252.282608 
L 719.290956 -248.174758 
L 719.839248 -244.066907 
L 720.172758 -239.959057 
L 720.289136 -235.851207 
L 720.192732 -231.743357 
L 719.8908 -227.635507 
L 719.390154 -223.527656 
L 718.695087 -219.419806 
L 717.806997 -215.311956 
L 716.725638 -211.204106 
L 715.45147 -207.096256 
L 713.988353 -202.988405 
L 712.345807 -198.880555 
L 710.540304 -194.772705 
L 708.595399 -190.664855 
L 706.540841 -186.557004 
L 704.411005 -182.449154 
L 702.243053 -178.341304 
L 700.075131 -174.233454 
L 697.944751 -170.125604 
L 695.887374 -166.017753 
L 693.935137 -161.909903 
L 692.11567 -157.802053 
L 690.45103 -153.694203 
L 688.956846 -149.586352 
L 687.641812 -145.478502 
L 686.507632 -141.370652 
L 685.549491 -137.262802 
L 684.756982 -133.154952 
L 684.115394 -129.047101 
L 683.60717 -124.939251 
L 683.213369 -120.831401 
L 682.914974 -116.723551 
L 682.693941 -112.6157 
L 682.533944 -108.50785 
L 682.420816 -104.4 
z
" style="stroke: #3f3f3f; stroke-width: 1.25"/>
    </defs>
    <g clip-path="url(#p5ab1e97471)">
     <use xlink:href="#m24e40e73a6" x="0" y="720" style="fill: #3274a1; stroke: #3f3f3f; stroke-width: 1.25"/>
    </g>
   </g>
   <g id="PolyCollection_6">
    <defs>
     <path id="m3627496cbf" d="M 794.024658 -106.006273 
L 793.575342 -106.006273 
L 793.458718 -110.081493 
L 793.293626 -114.156713 
L 793.065551 -118.231933 
L 792.757786 -122.307153 
L 792.351807 -126.382373 
L 791.827885 -130.457593 
L 791.165947 -134.532813 
L 790.346664 -138.608033 
L 789.352711 -142.683253 
L 788.170122 -146.758473 
L 786.789634 -150.833693 
L 785.207889 -154.908913 
L 783.428417 -158.984133 
L 781.462309 -163.059353 
L 779.328562 -167.134573 
L 777.054085 -171.209793 
L 774.673375 -175.285013 
L 772.227797 -179.360233 
L 769.764399 -183.435453 
L 767.334103 -187.510673 
L 764.98922 -191.585893 
L 762.780315 -195.661113 
L 760.752724 -199.736333 
L 758.943202 -203.811553 
L 757.377391 -207.886773 
L 756.068718 -211.961993 
L 755.019118 -216.037213 
L 754.221538 -220.112433 
L 753.663688 -224.187653 
L 753.332124 -228.262873 
L 753.215606 -232.338093 
L 753.30683 -236.413313 
L 753.602108 -240.488533 
L 754.099134 -244.563753 
L 754.793529 -248.638973 
L 755.675216 -252.714193 
L 756.725707 -256.789413 
L 757.91714 -260.864633 
L 759.213439 -264.939853 
L 760.573467 -269.015073 
L 761.955524 -273.090293 
L 763.322286 -277.165513 
L 764.645163 -281.240733 
L 765.907211 -285.315953 
L 767.104001 -289.391173 
L 768.242313 -293.466393 
L 769.336896 -297.541613 
L 770.405979 -301.616833 
L 771.466425 -305.692053 
L 772.529506 -309.767273 
L 773.598126 -313.842493 
L 774.666022 -317.917713 
L 775.719007 -321.992933 
L 776.737925 -326.068153 
L 777.702594 -330.143373 
L 778.595876 -334.218593 
L 779.407023 -338.293813 
L 780.13367 -342.369033 
L 780.782192 -346.444252 
L 781.366478 -350.519472 
L 781.905517 -354.594692 
L 782.42033 -358.669912 
L 782.930863 -362.745132 
L 783.45335 -366.820352 
L 783.998514 -370.895572 
L 784.570742 -374.970792 
L 785.168213 -379.046012 
L 785.78378 -383.121232 
L 786.406342 -387.196452 
L 787.022395 -391.271672 
L 787.617536 -395.346892 
L 788.17774 -399.422112 
L 788.69037 -403.497332 
L 789.144946 -407.572552 
L 789.533754 -411.647772 
L 789.852387 -415.722992 
L 790.100225 -419.798212 
L 790.280816 -423.873432 
L 790.402045 -427.948652 
L 790.475927 -432.023872 
L 790.517929 -436.099092 
L 790.545754 -440.174312 
L 790.577673 -444.249532 
L 790.630602 -448.324752 
L 790.718206 -452.399972 
L 790.84934 -456.475192 
L 791.027124 -460.550412 
L 791.248805 -464.625632 
L 791.50643 -468.700852 
L 791.788214 -472.776072 
L 792.080319 -476.851292 
L 792.368748 -480.926512 
L 792.641019 -485.001732 
L 792.887402 -489.076952 
L 793.101568 -493.152172 
L 793.280672 -497.227392 
L 793.424946 -501.302612 
L 793.536998 -505.377832 
L 793.620967 -509.453052 
L 793.979033 -509.453052 
L 793.979033 -509.453052 
L 794.063002 -505.377832 
L 794.175054 -501.302612 
L 794.319328 -497.227392 
L 794.498432 -493.152172 
L 794.712598 -489.076952 
L 794.958981 -485.001732 
L 795.231252 -480.926512 
L 795.519681 -476.851292 
L 795.811786 -472.776072 
L 796.09357 -468.700852 
L 796.351195 -464.625632 
L 796.572876 -460.550412 
L 796.75066 -456.475192 
L 796.881794 -452.399972 
L 796.969398 -448.324752 
L 797.022327 -444.249532 
L 797.054246 -440.174312 
L 797.082071 -436.099092 
L 797.124073 -432.023872 
L 797.197955 -427.948652 
L 797.319184 -423.873432 
L 797.499775 -419.798212 
L 797.747613 -415.722992 
L 798.066246 -411.647772 
L 798.455054 -407.572552 
L 798.90963 -403.497332 
L 799.42226 -399.422112 
L 799.982464 -395.346892 
L 800.577605 -391.271672 
L 801.193658 -387.196452 
L 801.81622 -383.121232 
L 802.431787 -379.046012 
L 803.029258 -374.970792 
L 803.601486 -370.895572 
L 804.14665 -366.820352 
L 804.669137 -362.745132 
L 805.17967 -358.669912 
L 805.694483 -354.594692 
L 806.233522 -350.519472 
L 806.817808 -346.444252 
L 807.46633 -342.369033 
L 808.192977 -338.293813 
L 809.004124 -334.218593 
L 809.897406 -330.143373 
L 810.862075 -326.068153 
L 811.880993 -321.992933 
L 812.933978 -317.917713 
L 814.001874 -313.842493 
L 815.070494 -309.767273 
L 816.133575 -305.692053 
L 817.194021 -301.616833 
L 818.263104 -297.541613 
L 819.357687 -293.466393 
L 820.495999 -289.391173 
L 821.692789 -285.315953 
L 822.954837 -281.240733 
L 824.277714 -277.165513 
L 825.644476 -273.090293 
L 827.026533 -269.015073 
L 828.386561 -264.939853 
L 829.68286 -260.864633 
L 830.874293 -256.789413 
L 831.924784 -252.714193 
L 832.806471 -248.638973 
L 833.500866 -244.563753 
L 833.997892 -240.488533 
L 834.29317 -236.413313 
L 834.384394 -232.338093 
L 834.267876 -228.262873 
L 833.936312 -224.187653 
L 833.378462 -220.112433 
L 832.580882 -216.037213 
L 831.531282 -211.961993 
L 830.222609 -207.886773 
L 828.656798 -203.811553 
L 826.847276 -199.736333 
L 824.819685 -195.661113 
L 822.61078 -191.585893 
L 820.265897 -187.510673 
L 817.835601 -183.435453 
L 815.372203 -179.360233 
L 812.926625 -175.285013 
L 810.545915 -171.209793 
L 808.271438 -167.134573 
L 806.137691 -163.059353 
L 804.171583 -158.984133 
L 802.392111 -154.908913 
L 800.810366 -150.833693 
L 799.429878 -146.758473 
L 798.247289 -142.683253 
L 797.253336 -138.608033 
L 796.434053 -134.532813 
L 795.772115 -130.457593 
L 795.248193 -126.382373 
L 794.842214 -122.307153 
L 794.534449 -118.231933 
L 794.306374 -114.156713 
L 794.141282 -110.081493 
L 794.024658 -106.006273 
z
" style="stroke: #3f3f3f; stroke-width: 1.25"/>
    </defs>
    <g clip-path="url(#p5ab1e97471)">
     <use xlink:href="#m3627496cbf" x="0" y="720" style="fill: #3274a1; stroke: #3f3f3f; stroke-width: 1.25"/>
    </g>
   </g>
   <g id="PolyCollection_7">
    <defs>
     <path id="me1c17e1b27" d="M 905.650134 -107.138498 
L 905.149866 -107.138498 
L 905.018087 -111.190845 
L 904.830956 -115.243192 
L 904.571755 -119.295538 
L 904.221168 -123.347885 
L 903.757638 -127.400232 
L 903.158002 -131.452579 
L 902.398417 -135.504926 
L 901.455617 -139.557272 
L 900.308487 -143.609619 
L 898.939906 -147.661966 
L 897.338743 -151.714313 
L 895.501869 -155.766659 
L 893.435961 -159.819006 
L 891.158908 -163.871353 
L 888.700617 -167.9237 
L 886.103044 -171.976046 
L 883.419299 -176.028393 
L 880.711681 -180.08074 
L 878.048535 -184.133087 
L 875.499879 -188.185433 
L 873.131995 -192.23778 
L 871.001419 -196.290127 
L 869.149179 -200.342474 
L 867.59638 -204.39482 
L 866.342335 -208.447167 
L 865.366123 -212.499514 
L 864.631845 -216.551861 
L 864.096926 -220.604207 
L 863.721918 -224.656554 
L 863.479692 -228.708901 
L 863.361785 -232.761248 
L 863.380264 -236.813594 
L 863.564486 -240.865941 
L 863.95338 -244.918288 
L 864.585034 -248.970635 
L 865.485991 -253.022981 
L 866.662709 -257.075328 
L 868.09705 -261.127675 
L 869.746651 -265.180022 
L 871.549913 -269.232368 
L 873.43436 -273.284715 
L 875.326526 -277.337062 
L 877.161407 -281.389409 
L 878.889804 -285.441755 
L 880.482455 -289.494102 
L 881.930575 -293.546449 
L 883.243112 -297.598796 
L 884.441567 -301.651142 
L 885.553564 -305.703489 
L 886.60644 -309.755836 
L 887.622 -313.808183 
L 888.613219 -317.86053 
L 889.583222 -321.912876 
L 890.526394 -325.965223 
L 891.431073 -330.01757 
L 892.283053 -334.069917 
L 893.069083 -338.122263 
L 893.779708 -342.17461 
L 894.411066 -346.226957 
L 894.965507 -350.279304 
L 895.451192 -354.33165 
L 895.880897 -358.383997 
L 896.270352 -362.436344 
L 896.636379 -366.488691 
L 896.995073 -370.541037 
L 897.360183 -374.593384 
L 897.741838 -378.645731 
L 898.14572 -382.698078 
L 898.572721 -386.750424 
L 899.019105 -390.802771 
L 899.477124 -394.855118 
L 899.935997 -398.907465 
L 900.383151 -402.959811 
L 900.805601 -407.012158 
L 901.191349 -411.064505 
L 901.530705 -415.116852 
L 901.817408 -419.169198 
L 902.049435 -423.221545 
L 902.229384 -427.273892 
L 902.364349 -431.326239 
L 902.465256 -435.378585 
L 902.545681 -439.430932 
L 902.620303 -443.483279 
L 902.703167 -447.535626 
L 902.806008 -451.587972 
L 902.936904 -455.640319 
L 903.099445 -459.692666 
L 903.292544 -463.745013 
L 903.510909 -467.797359 
L 903.746056 -471.849706 
L 903.987681 -475.902053 
L 904.225143 -479.9544 
L 904.448806 -484.006746 
L 904.651055 -488.059093 
L 904.82688 -492.11144 
L 904.973993 -496.163787 
L 905.092562 -500.216134 
L 905.184679 -504.26848 
L 905.253699 -508.320827 
L 905.546301 -508.320827 
L 905.546301 -508.320827 
L 905.615321 -504.26848 
L 905.707438 -500.216134 
L 905.826007 -496.163787 
L 905.97312 -492.11144 
L 906.148945 -488.059093 
L 906.351194 -484.006746 
L 906.574857 -479.9544 
L 906.812319 -475.902053 
L 907.053944 -471.849706 
L 907.289091 -467.797359 
L 907.507456 -463.745013 
L 907.700555 -459.692666 
L 907.863096 -455.640319 
L 907.993992 -451.587972 
L 908.096833 -447.535626 
L 908.179697 -443.483279 
L 908.254319 -439.430932 
L 908.334744 -435.378585 
L 908.435651 -431.326239 
L 908.570616 -427.273892 
L 908.750565 -423.221545 
L 908.982592 -419.169198 
L 909.269295 -415.116852 
L 909.608651 -411.064505 
L 909.994399 -407.012158 
L 910.416849 -402.959811 
L 910.864003 -398.907465 
L 911.322876 -394.855118 
L 911.780895 -390.802771 
L 912.227279 -386.750424 
L 912.65428 -382.698078 
L 913.058162 -378.645731 
L 913.439817 -374.593384 
L 913.804927 -370.541037 
L 914.163621 -366.488691 
L 914.529648 -362.436344 
L 914.919103 -358.383997 
L 915.348808 -354.33165 
L 915.834493 -350.279304 
L 916.388934 -346.226957 
L 917.020292 -342.17461 
L 917.730917 -338.122263 
L 918.516947 -334.069917 
L 919.368927 -330.01757 
L 920.273606 -325.965223 
L 921.216778 -321.912876 
L 922.186781 -317.86053 
L 923.178 -313.808183 
L 924.19356 -309.755836 
L 925.246436 -305.703489 
L 926.358433 -301.651142 
L 927.556888 -297.598796 
L 928.869425 -293.546449 
L 930.317545 -289.494102 
L 931.910196 -285.441755 
L 933.638593 -281.389409 
L 935.473474 -277.337062 
L 937.36564 -273.284715 
L 939.250087 -269.232368 
L 941.053349 -265.180022 
L 942.70295 -261.127675 
L 944.137291 -257.075328 
L 945.314009 -253.022981 
L 946.214966 -248.970635 
L 946.84662 -244.918288 
L 947.235514 -240.865941 
L 947.419736 -236.813594 
L 947.438215 -232.761248 
L 947.320308 -228.708901 
L 947.078082 -224.656554 
L 946.703074 -220.604207 
L 946.168155 -216.551861 
L 945.433877 -212.499514 
L 944.457665 -208.447167 
L 943.20362 -204.39482 
L 941.650821 -200.342474 
L 939.798581 -196.290127 
L 937.668005 -192.23778 
L 935.300121 -188.185433 
L 932.751465 -184.133087 
L 930.088319 -180.08074 
L 927.380701 -176.028393 
L 924.696956 -171.976046 
L 922.099383 -167.9237 
L 919.641092 -163.871353 
L 917.364039 -159.819006 
L 915.298131 -155.766659 
L 913.461257 -151.714313 
L 911.860094 -147.661966 
L 910.491513 -143.609619 
L 909.344383 -139.557272 
L 908.401583 -135.504926 
L 907.641998 -131.452579 
L 907.042362 -127.400232 
L 906.578832 -123.347885 
L 906.228245 -119.295538 
L 905.969044 -115.243192 
L 905.781913 -111.190845 
L 905.650134 -107.138498 
z
" style="stroke: #3f3f3f; stroke-width: 1.25"/>
    </defs>
    <g clip-path="url(#p5ab1e97471)">
     <use xlink:href="#me1c17e1b27" x="0" y="720" style="fill: #3274a1; stroke: #3f3f3f; stroke-width: 1.25"/>
    </g>
   </g>
   <g id="PolyCollection_8">
    <defs>
     <path id="mf0a2403ed3" d="M 1017.240664 -107.211529 
L 1016.759336 -107.211529 
L 1016.629903 -111.2624 
L 1016.444257 -115.313271 
L 1016.184384 -119.364143 
L 1015.829069 -123.415014 
L 1015.354267 -127.465886 
L 1014.733903 -131.516757 
L 1013.9412 -135.567628 
L 1012.950574 -139.6185 
L 1011.740067 -143.669371 
L 1010.294126 -147.720243 
L 1008.60643 -151.771114 
L 1006.682337 -155.821985 
L 1004.540463 -159.872857 
L 1002.212996 -163.923728 
L 999.744501 -167.9746 
L 997.189259 -172.025471 
L 994.607408 -176.076342 
L 992.060375 -180.127214 
L 989.606156 -184.178085 
L 987.294966 -188.228957 
L 985.165668 -192.279828 
L 983.243321 -196.330699 
L 981.538096 -200.381571 
L 980.045829 -204.432442 
L 978.750427 -208.483314 
L 977.628172 -212.534185 
L 976.653646 -216.585056 
L 975.80657 -220.635928 
L 975.078354 -224.686799 
L 974.476911 -228.73767 
L 974.028374 -232.788542 
L 973.774822 -236.839413 
L 973.767988 -240.890285 
L 974.059873 -244.941156 
L 974.692015 -248.992027 
L 975.685595 -253.042899 
L 977.03449 -257.09377 
L 978.702734 -261.144642 
L 980.626991 -265.195513 
L 982.723526 -269.246384 
L 984.898339 -273.297256 
L 987.058591 -277.348127 
L 989.123307 -281.398999 
L 991.031677 -285.44987 
L 992.747812 -289.500741 
L 994.261537 -293.551613 
L 995.585493 -297.602484 
L 996.749396 -301.653356 
L 997.792657 -305.704227 
L 998.756703 -309.755098 
L 999.678213 -313.80597 
L 1000.584197 -317.856841 
L 1001.4894 -321.907712 
L 1002.396091 -325.958584 
L 1003.295863 -330.009455 
L 1004.172833 -334.060327 
L 1005.007515 -338.111198 
L 1005.780694 -342.162069 
L 1006.476742 -346.212941 
L 1007.086064 -350.263812 
L 1007.606486 -354.314684 
L 1008.043551 -358.365555 
L 1008.409811 -362.416426 
L 1008.723235 -366.467298 
L 1009.004967 -370.518169 
L 1009.276695 -374.569041 
L 1009.558002 -378.619912 
L 1009.864037 -382.670783 
L 1010.203832 -386.721655 
L 1010.579498 -390.772526 
L 1010.986361 -394.823398 
L 1011.413977 -398.874269 
L 1011.847837 -402.92514 
L 1012.271465 -406.976012 
L 1012.668639 -411.026883 
L 1013.025455 -415.077755 
L 1013.331994 -419.128626 
L 1013.583453 -423.179497 
L 1013.780619 -427.230369 
L 1013.929666 -431.28124 
L 1014.041295 -435.332111 
L 1014.129343 -439.382983 
L 1014.209013 -443.433854 
L 1014.294972 -447.484726 
L 1014.39956 -451.535597 
L 1014.531369 -455.586468 
L 1014.694388 -459.63734 
L 1014.887804 -463.688211 
L 1015.106491 -467.739083 
L 1015.342043 -471.789954 
L 1015.58417 -475.840825 
L 1015.822203 -479.891697 
L 1016.046462 -483.942568 
L 1016.249284 -487.99344 
L 1016.42562 -492.044311 
L 1016.573157 -496.095182 
L 1016.692054 -500.146054 
L 1016.784406 -504.196925 
L 1016.853581 -508.247797 
L 1017.146419 -508.247797 
L 1017.146419 -508.247797 
L 1017.215594 -504.196925 
L 1017.307946 -500.146054 
L 1017.426843 -496.095182 
L 1017.57438 -492.044311 
L 1017.750716 -487.99344 
L 1017.953538 -483.942568 
L 1018.177797 -479.891697 
L 1018.41583 -475.840825 
L 1018.657957 -471.789954 
L 1018.893509 -467.739083 
L 1019.112196 -463.688211 
L 1019.305612 -459.63734 
L 1019.468631 -455.586468 
L 1019.60044 -451.535597 
L 1019.705028 -447.484726 
L 1019.790987 -443.433854 
L 1019.870657 -439.382983 
L 1019.958705 -435.332111 
L 1020.070334 -431.28124 
L 1020.219381 -427.230369 
L 1020.416547 -423.179497 
L 1020.668006 -419.128626 
L 1020.974545 -415.077755 
L 1021.331361 -411.026883 
L 1021.728535 -406.976012 
L 1022.152163 -402.92514 
L 1022.586023 -398.874269 
L 1023.013639 -394.823398 
L 1023.420502 -390.772526 
L 1023.796168 -386.721655 
L 1024.135963 -382.670783 
L 1024.441998 -378.619912 
L 1024.723305 -374.569041 
L 1024.995033 -370.518169 
L 1025.276765 -366.467298 
L 1025.590189 -362.416426 
L 1025.956449 -358.365555 
L 1026.393514 -354.314684 
L 1026.913936 -350.263812 
L 1027.523258 -346.212941 
L 1028.219306 -342.162069 
L 1028.992485 -338.111198 
L 1029.827167 -334.060327 
L 1030.704137 -330.009455 
L 1031.603909 -325.958584 
L 1032.5106 -321.907712 
L 1033.415803 -317.856841 
L 1034.321787 -313.80597 
L 1035.243297 -309.755098 
L 1036.207343 -305.704227 
L 1037.250604 -301.653356 
L 1038.414507 -297.602484 
L 1039.738463 -293.551613 
L 1041.252188 -289.500741 
L 1042.968323 -285.44987 
L 1044.876693 -281.398999 
L 1046.941409 -277.348127 
L 1049.101661 -273.297256 
L 1051.276474 -269.246384 
L 1053.373009 -265.195513 
L 1055.297266 -261.144642 
L 1056.96551 -257.09377 
L 1058.314405 -253.042899 
L 1059.307985 -248.992027 
L 1059.940127 -244.941156 
L 1060.232012 -240.890285 
L 1060.225178 -236.839413 
L 1059.971626 -232.788542 
L 1059.523089 -228.73767 
L 1058.921646 -224.686799 
L 1058.19343 -220.635928 
L 1057.346354 -216.585056 
L 1056.371828 -212.534185 
L 1055.249573 -208.483314 
L 1053.954171 -204.432442 
L 1052.461904 -200.381571 
L 1050.756679 -196.330699 
L 1048.834332 -192.279828 
L 1046.705034 -188.228957 
L 1044.393844 -184.178085 
L 1041.939625 -180.127214 
L 1039.392592 -176.076342 
L 1036.810741 -172.025471 
L 1034.255499 -167.9746 
L 1031.787004 -163.923728 
L 1029.459537 -159.872857 
L 1027.317663 -155.821985 
L 1025.39357 -151.771114 
L 1023.705874 -147.720243 
L 1022.259933 -143.669371 
L 1021.049426 -139.6185 
L 1020.0588 -135.567628 
L 1019.266097 -131.516757 
L 1018.645733 -127.465886 
L 1018.170931 -123.415014 
L 1017.815616 -119.364143 
L 1017.555743 -115.313271 
L 1017.370097 -111.2624 
L 1017.240664 -107.211529 
z
" style="stroke: #3f3f3f; stroke-width: 1.25"/>
    </defs>
    <g clip-path="url(#p5ab1e97471)">
     <use xlink:href="#mf0a2403ed3" x="0" y="720" style="fill: #3274a1; stroke: #3f3f3f; stroke-width: 1.25"/>
    </g>
   </g>
   <g id="PolyCollection_9">
    <defs>
     <path id="m0895ce123f" d="M 1128.859718 -107.912065 
L 1128.340282 -107.912065 
L 1128.197847 -111.948784 
L 1127.992939 -115.985503 
L 1127.705933 -120.022222 
L 1127.314288 -124.058941 
L 1126.793325 -128.09566 
L 1126.11749 -132.13238 
L 1125.262116 -136.169099 
L 1124.205602 -140.205818 
L 1122.931831 -144.242537 
L 1121.432556 -148.279256 
L 1119.709392 -152.315975 
L 1117.77506 -156.352695 
L 1115.653582 -160.389414 
L 1113.379307 -164.426133 
L 1110.994839 -168.462852 
L 1108.548161 -172.499571 
L 1106.089347 -176.53629 
L 1103.667271 -180.573009 
L 1101.326595 -184.609729 
L 1099.10517 -188.646448 
L 1097.031908 -192.683167 
L 1095.125159 -196.719886 
L 1093.391836 -200.756605 
L 1091.82767 -204.793324 
L 1090.41908 -208.830043 
L 1089.147001 -212.866763 
L 1087.992531 -216.903482 
L 1086.943694 -220.940201 
L 1086.001961 -224.97692 
L 1085.18685 -229.013639 
L 1084.53705 -233.050358 
L 1084.107141 -237.087078 
L 1083.96 -241.123797 
L 1084.156101 -245.160516 
L 1084.741768 -249.197235 
L 1085.738858 -253.233954 
L 1087.138069 -257.270673 
L 1088.897313 -261.307392 
L 1090.945458 -265.344112 
L 1093.190631 -269.380831 
L 1095.531409 -273.41755 
L 1097.868807 -277.454269 
L 1100.11702 -281.490988 
L 1102.211334 -285.527707 
L 1104.112295 -289.564426 
L 1105.80597 -293.601146 
L 1107.300763 -297.637865 
L 1108.621724 -301.674584 
L 1109.803528 -305.711303 
L 1110.883321 -309.748022 
L 1111.89451 -313.784741 
L 1112.862265 -317.82146 
L 1113.801153 -321.85818 
L 1114.714954 -325.894899 
L 1115.598349 -329.931618 
L 1116.439937 -333.968337 
L 1117.225898 -338.005056 
L 1117.943619 -342.041775 
L 1118.584675 -346.078495 
L 1119.146758 -350.115214 
L 1119.634353 -354.151933 
L 1120.058147 -358.188652 
L 1120.433407 -362.225371 
L 1120.77768 -366.26209 
L 1121.108263 -370.298809 
L 1121.439903 -374.335529 
L 1121.783099 -378.372248 
L 1122.14322 -382.408967 
L 1122.520468 -386.445686 
L 1122.910553 -390.482405 
L 1123.305803 -394.519124 
L 1123.69646 -398.555843 
L 1124.071931 -402.592563 
L 1124.421884 -406.629282 
L 1124.737191 -410.666001 
L 1125.010731 -414.70272 
L 1125.238122 -418.739439 
L 1125.418326 -422.776158 
L 1125.554059 -426.812878 
L 1125.651876 -430.849597 
L 1125.721791 -434.886316 
L 1125.776412 -438.923035 
L 1125.829608 -442.959754 
L 1125.894888 -446.996473 
L 1125.983732 -451.033192 
L 1126.104152 -455.069912 
L 1126.259722 -459.106631 
L 1126.449266 -463.14335 
L 1126.667231 -467.180069 
L 1126.904668 -471.216788 
L 1127.150633 -475.253507 
L 1127.39374 -479.290226 
L 1127.623603 -483.326946 
L 1127.831949 -487.363665 
L 1128.013268 -491.400384 
L 1128.164961 -495.437103 
L 1128.287076 -499.473822 
L 1128.381735 -503.510541 
L 1128.45243 -507.547261 
L 1128.74757 -507.547261 
L 1128.74757 -507.547261 
L 1128.818265 -503.510541 
L 1128.912924 -499.473822 
L 1129.035039 -495.437103 
L 1129.186732 -491.400384 
L 1129.368051 -487.363665 
L 1129.576397 -483.326946 
L 1129.80626 -479.290226 
L 1130.049367 -475.253507 
L 1130.295332 -471.216788 
L 1130.532769 -467.180069 
L 1130.750734 -463.14335 
L 1130.940278 -459.106631 
L 1131.095848 -455.069912 
L 1131.216268 -451.033192 
L 1131.305112 -446.996473 
L 1131.370392 -442.959754 
L 1131.423588 -438.923035 
L 1131.478209 -434.886316 
L 1131.548124 -430.849597 
L 1131.645941 -426.812878 
L 1131.781674 -422.776158 
L 1131.961878 -418.739439 
L 1132.189269 -414.70272 
L 1132.462809 -410.666001 
L 1132.778116 -406.629282 
L 1133.128069 -402.592563 
L 1133.50354 -398.555843 
L 1133.894197 -394.519124 
L 1134.289447 -390.482405 
L 1134.679532 -386.445686 
L 1135.05678 -382.408967 
L 1135.416901 -378.372248 
L 1135.760097 -374.335529 
L 1136.091737 -370.298809 
L 1136.42232 -366.26209 
L 1136.766593 -362.225371 
L 1137.141853 -358.188652 
L 1137.565647 -354.151933 
L 1138.053242 -350.115214 
L 1138.615325 -346.078495 
L 1139.256381 -342.041775 
L 1139.974102 -338.005056 
L 1140.760063 -333.968337 
L 1141.601651 -329.931618 
L 1142.485046 -325.894899 
L 1143.398847 -321.85818 
L 1144.337735 -317.82146 
L 1145.30549 -313.784741 
L 1146.316679 -309.748022 
L 1147.396472 -305.711303 
L 1148.578276 -301.674584 
L 1149.899237 -297.637865 
L 1151.39403 -293.601146 
L 1153.087705 -289.564426 
L 1154.988666 -285.527707 
L 1157.08298 -281.490988 
L 1159.331193 -277.454269 
L 1161.668591 -273.41755 
L 1164.009369 -269.380831 
L 1166.254542 -265.344112 
L 1168.302687 -261.307392 
L 1170.061931 -257.270673 
L 1171.461142 -253.233954 
L 1172.458232 -249.197235 
L 1173.043899 -245.160516 
L 1173.24 -241.123797 
L 1173.092859 -237.087078 
L 1172.66295 -233.050358 
L 1172.01315 -229.013639 
L 1171.198039 -224.97692 
L 1170.256306 -220.940201 
L 1169.207469 -216.903482 
L 1168.052999 -212.866763 
L 1166.78092 -208.830043 
L 1165.37233 -204.793324 
L 1163.808164 -200.756605 
L 1162.074841 -196.719886 
L 1160.168092 -192.683167 
L 1158.09483 -188.646448 
L 1155.873405 -184.609729 
L 1153.532729 -180.573009 
L 1151.110653 -176.53629 
L 1148.651839 -172.499571 
L 1146.205161 -168.462852 
L 1143.820693 -164.426133 
L 1141.546418 -160.389414 
L 1139.42494 -156.352695 
L 1137.490608 -152.315975 
L 1135.767444 -148.279256 
L 1134.268169 -144.242537 
L 1132.994398 -140.205818 
L 1131.937884 -136.169099 
L 1131.08251 -132.13238 
L 1130.406675 -128.09566 
L 1129.885712 -124.058941 
L 1129.494067 -120.022222 
L 1129.207061 -115.985503 
L 1129.002153 -111.948784 
L 1128.859718 -107.912065 
z
" style="stroke: #3f3f3f; stroke-width: 1.25"/>
    </defs>
    <g clip-path="url(#p5ab1e97471)">
     <use xlink:href="#m0895ce123f" x="0" y="720" style="fill: #3274a1; stroke: #3f3f3f; stroke-width: 1.25"/>
    </g>
   </g>
   <g id="PolyCollection_10">
    <defs>
     <path id="m5d0ebf130c" d="M 1240.484315 -108.452777 
L 1239.915685 -108.452777 
L 1239.754348 -112.478573 
L 1239.519439 -116.504368 
L 1239.186902 -120.530164 
L 1238.729134 -124.55596 
L 1238.116311 -128.581755 
L 1237.318522 -132.607551 
L 1236.308711 -136.633347 
L 1235.066193 -140.659142 
L 1233.580307 -144.684938 
L 1231.853563 -148.710734 
L 1229.903547 -152.736529 
L 1227.762938 -156.762325 
L 1225.477266 -160.788121 
L 1223.100559 -164.813916 
L 1220.689541 -168.839712 
L 1218.297516 -172.865508 
L 1215.969225 -176.891303 
L 1213.73776 -180.917099 
L 1211.624024 -184.942895 
L 1209.638501 -188.96869 
L 1207.784432 -192.994486 
L 1206.061185 -197.020282 
L 1204.466764 -201.046077 
L 1202.998949 -205.071873 
L 1201.655325 -209.097669 
L 1200.433019 -213.123464 
L 1199.329167 -217.14926 
L 1198.342785 -221.175056 
L 1197.478035 -225.200851 
L 1196.748014 -229.226647 
L 1196.177668 -233.252443 
L 1195.804286 -237.278238 
L 1195.674579 -241.304034 
L 1195.838255 -245.32983 
L 1196.33908 -249.355625 
L 1197.20532 -253.381421 
L 1198.441785 -257.407217 
L 1200.025487 -261.433012 
L 1201.906075 -265.458808 
L 1204.011089 -269.484604 
L 1206.254952 -273.510399 
L 1208.549788 -277.536195 
L 1210.81586 -281.561991 
L 1212.98967 -285.587786 
L 1215.028449 -289.613582 
L 1216.910675 -293.639378 
L 1218.633163 -297.665173 
L 1220.205886 -301.690969 
L 1221.645988 -305.716765 
L 1222.972348 -309.74256 
L 1224.201621 -313.768356 
L 1225.346191 -317.794152 
L 1226.41386 -321.819947 
L 1227.408783 -325.845743 
L 1228.332942 -329.871539 
L 1229.187564 -333.897334 
L 1229.974085 -337.92313 
L 1230.694541 -341.948926 
L 1231.351522 -345.974721 
L 1231.947934 -350.000517 
L 1232.486809 -354.026313 
L 1232.971317 -358.052108 
L 1233.404985 -362.077904 
L 1233.792037 -366.1037 
L 1234.137666 -370.129495 
L 1234.448125 -374.155291 
L 1234.730526 -378.181087 
L 1234.992344 -382.206882 
L 1235.240708 -386.232678 
L 1235.481571 -390.258474 
L 1235.718933 -394.284269 
L 1235.954249 -398.310065 
L 1236.186176 -402.335861 
L 1236.410759 -406.361656 
L 1236.622091 -410.387452 
L 1236.813412 -414.413248 
L 1236.978491 -418.439044 
L 1237.113075 -422.464839 
L 1237.216111 -426.490635 
L 1237.2905 -430.516431 
L 1237.343175 -434.542226 
L 1237.38446 -438.568022 
L 1237.426773 -442.593818 
L 1237.482895 -446.619613 
L 1237.564113 -450.645409 
L 1237.678551 -454.671205 
L 1237.830002 -458.697 
L 1238.017449 -462.722796 
L 1238.235331 -466.748592 
L 1238.474498 -470.774387 
L 1238.723625 -474.800183 
L 1238.970831 -478.825979 
L 1239.205208 -482.851774 
L 1239.418004 -486.87757 
L 1239.603339 -490.903366 
L 1239.758383 -494.929161 
L 1239.883091 -498.954957 
L 1239.979606 -502.980753 
L 1240.051519 -507.006548 
L 1240.348481 -507.006548 
L 1240.348481 -507.006548 
L 1240.420394 -502.980753 
L 1240.516909 -498.954957 
L 1240.641617 -494.929161 
L 1240.796661 -490.903366 
L 1240.981996 -486.87757 
L 1241.194792 -482.851774 
L 1241.429169 -478.825979 
L 1241.676375 -474.800183 
L 1241.925502 -470.774387 
L 1242.164669 -466.748592 
L 1242.382551 -462.722796 
L 1242.569998 -458.697 
L 1242.721449 -454.671205 
L 1242.835887 -450.645409 
L 1242.917105 -446.619613 
L 1242.973227 -442.593818 
L 1243.01554 -438.568022 
L 1243.056825 -434.542226 
L 1243.1095 -430.516431 
L 1243.183889 -426.490635 
L 1243.286925 -422.464839 
L 1243.421509 -418.439044 
L 1243.586588 -414.413248 
L 1243.777909 -410.387452 
L 1243.989241 -406.361656 
L 1244.213824 -402.335861 
L 1244.445751 -398.310065 
L 1244.681067 -394.284269 
L 1244.918429 -390.258474 
L 1245.159292 -386.232678 
L 1245.407656 -382.206882 
L 1245.669474 -378.181087 
L 1245.951875 -374.155291 
L 1246.262334 -370.129495 
L 1246.607963 -366.1037 
L 1246.995015 -362.077904 
L 1247.428683 -358.052108 
L 1247.913191 -354.026313 
L 1248.452066 -350.000517 
L 1249.048478 -345.974721 
L 1249.705459 -341.948926 
L 1250.425915 -337.92313 
L 1251.212436 -333.897334 
L 1252.067058 -329.871539 
L 1252.991217 -325.845743 
L 1253.98614 -321.819947 
L 1255.053809 -317.794152 
L 1256.198379 -313.768356 
L 1257.427652 -309.74256 
L 1258.754012 -305.716765 
L 1260.194114 -301.690969 
L 1261.766837 -297.665173 
L 1263.489325 -293.639378 
L 1265.371551 -289.613582 
L 1267.41033 -285.587786 
L 1269.58414 -281.561991 
L 1271.850212 -277.536195 
L 1274.145048 -273.510399 
L 1276.388911 -269.484604 
L 1278.493925 -265.458808 
L 1280.374513 -261.433012 
L 1281.958215 -257.407217 
L 1283.19468 -253.381421 
L 1284.06092 -249.355625 
L 1284.561745 -245.32983 
L 1284.725421 -241.304034 
L 1284.595714 -237.278238 
L 1284.222332 -233.252443 
L 1283.651986 -229.226647 
L 1282.921965 -225.200851 
L 1282.057215 -221.175056 
L 1281.070833 -217.14926 
L 1279.966981 -213.123464 
L 1278.744675 -209.097669 
L 1277.401051 -205.071873 
L 1275.933236 -201.046077 
L 1274.338815 -197.020282 
L 1272.615568 -192.994486 
L 1270.761499 -188.96869 
L 1268.775976 -184.942895 
L 1266.66224 -180.917099 
L 1264.430775 -176.891303 
L 1262.102484 -172.865508 
L 1259.710459 -168.839712 
L 1257.299441 -164.813916 
L 1254.922734 -160.788121 
L 1252.637062 -156.762325 
L 1250.496453 -152.736529 
L 1248.546437 -148.710734 
L 1246.819693 -144.684938 
L 1245.333807 -140.659142 
L 1244.091289 -136.633347 
L 1243.081478 -132.607551 
L 1242.283689 -128.581755 
L 1241.670866 -124.55596 
L 1241.213098 -120.530164 
L 1240.880561 -116.504368 
L 1240.645652 -112.478573 
L 1240.484315 -108.452777 
z
" style="stroke: #3f3f3f; stroke-width: 1.25"/>
    </defs>
    <g clip-path="url(#p5ab1e97471)">
     <use xlink:href="#m5d0ebf130c" x="0" y="720" style="fill: #3274a1; stroke: #3f3f3f; stroke-width: 1.25"/>
    </g>
   </g>
   <g id="matplotlib.axis_1">
    <g id="xtick_1">
     <g id="line2d_1">
      <defs>
       <path id="m8393b5d5a3" d="M 0 0 
L 0 3.5 
" style="stroke: #000000; stroke-width: 0.8"/>
      </defs>
      <g>
       <use xlink:href="#m8393b5d5a3" x="235.8" y="640.8" style="stroke: #000000; stroke-width: 0.8"/>
      </g>
     </g>
     <g id="text_1">
      <!-- 0 -->
      <g transform="translate(232.61875 655.398438) scale(0.1 -0.1)">
       <defs>
        <path id="DejaVuSans-30" d="M 2034 4250 
Q 1547 4250 1301 3770 
Q 1056 3291 1056 2328 
Q 1056 1369 1301 889 
Q 1547 409 2034 409 
Q 2525 409 2770 889 
Q 3016 1369 3016 2328 
Q 3016 3291 2770 3770 
Q 2525 4250 2034 4250 
z
M 2034 4750 
Q 2819 4750 3233 4129 
Q 3647 3509 3647 2328 
Q 3647 1150 3233 529 
Q 2819 -91 2034 -91 
Q 1250 -91 836 529 
Q 422 1150 422 2328 
Q 422 3509 836 4129 
Q 1250 4750 2034 4750 
z
" transform="scale(0.015625)"/>
       </defs>
       <use xlink:href="#DejaVuSans-30"/>
      </g>
     </g>
    </g>
    <g id="xtick_2">
     <g id="line2d_2">
      <g>
       <use xlink:href="#m8393b5d5a3" x="347.4" y="640.8" style="stroke: #000000; stroke-width: 0.8"/>
      </g>
     </g>
     <g id="text_2">
      <!-- 1 -->
      <g transform="translate(344.21875 655.398438) scale(0.1 -0.1)">
       <defs>
        <path id="DejaVuSans-31" d="M 794 531 
L 1825 531 
L 1825 4091 
L 703 3866 
L 703 4441 
L 1819 4666 
L 2450 4666 
L 2450 531 
L 3481 531 
L 3481 0 
L 794 0 
L 794 531 
z
" transform="scale(0.015625)"/>
       </defs>
       <use xlink:href="#DejaVuSans-31"/>
      </g>
     </g>
    </g>
    <g id="xtick_3">
     <g id="line2d_3">
      <g>
       <use xlink:href="#m8393b5d5a3" x="459" y="640.8" style="stroke: #000000; stroke-width: 0.8"/>
      </g>
     </g>
     <g id="text_3">
      <!-- 2 -->
      <g transform="translate(455.81875 655.398438) scale(0.1 -0.1)">
       <defs>
        <path id="DejaVuSans-32" d="M 1228 531 
L 3431 531 
L 3431 0 
L 469 0 
L 469 531 
Q 828 903 1448 1529 
Q 2069 2156 2228 2338 
Q 2531 2678 2651 2914 
Q 2772 3150 2772 3378 
Q 2772 3750 2511 3984 
Q 2250 4219 1831 4219 
Q 1534 4219 1204 4116 
Q 875 4013 500 3803 
L 500 4441 
Q 881 4594 1212 4672 
Q 1544 4750 1819 4750 
Q 2544 4750 2975 4387 
Q 3406 4025 3406 3419 
Q 3406 3131 3298 2873 
Q 3191 2616 2906 2266 
Q 2828 2175 2409 1742 
Q 1991 1309 1228 531 
z
" transform="scale(0.015625)"/>
       </defs>
       <use xlink:href="#DejaVuSans-32"/>
      </g>
     </g>
    </g>
    <g id="xtick_4">
     <g id="line2d_4">
      <g>
       <use xlink:href="#m8393b5d5a3" x="570.6" y="640.8" style="stroke: #000000; stroke-width: 0.8"/>
      </g>
     </g>
     <g id="text_4">
      <!-- 3 -->
      <g transform="translate(567.41875 655.398438) scale(0.1 -0.1)">
       <defs>
        <path id="DejaVuSans-33" d="M 2597 2516 
Q 3050 2419 3304 2112 
Q 3559 1806 3559 1356 
Q 3559 666 3084 287 
Q 2609 -91 1734 -91 
Q 1441 -91 1130 -33 
Q 819 25 488 141 
L 488 750 
Q 750 597 1062 519 
Q 1375 441 1716 441 
Q 2309 441 2620 675 
Q 2931 909 2931 1356 
Q 2931 1769 2642 2001 
Q 2353 2234 1838 2234 
L 1294 2234 
L 1294 2753 
L 1863 2753 
Q 2328 2753 2575 2939 
Q 2822 3125 2822 3475 
Q 2822 3834 2567 4026 
Q 2313 4219 1838 4219 
Q 1578 4219 1281 4162 
Q 984 4106 628 3988 
L 628 4550 
Q 988 4650 1302 4700 
Q 1616 4750 1894 4750 
Q 2613 4750 3031 4423 
Q 3450 4097 3450 3541 
Q 3450 3153 3228 2886 
Q 3006 2619 2597 2516 
z
" transform="scale(0.015625)"/>
       </defs>
       <use xlink:href="#DejaVuSans-33"/>
      </g>
     </g>
    </g>
    <g id="xtick_5">
     <g id="line2d_5">
      <g>
       <use xlink:href="#m8393b5d5a3" x="682.2" y="640.8" style="stroke: #000000; stroke-width: 0.8"/>
      </g>
     </g>
     <g id="text_5">
      <!-- 4 -->
      <g transform="translate(679.01875 655.398438) scale(0.1 -0.1)">
       <defs>
        <path id="DejaVuSans-34" d="M 2419 4116 
L 825 1625 
L 2419 1625 
L 2419 4116 
z
M 2253 4666 
L 3047 4666 
L 3047 1625 
L 3713 1625 
L 3713 1100 
L 3047 1100 
L 3047 0 
L 2419 0 
L 2419 1100 
L 313 1100 
L 313 1709 
L 2253 4666 
z
" transform="scale(0.015625)"/>
       </defs>
       <use xlink:href="#DejaVuSans-34"/>
      </g>
     </g>
    </g>
    <g id="xtick_6">
     <g id="line2d_6">
      <g>
       <use xlink:href="#m8393b5d5a3" x="793.8" y="640.8" style="stroke: #000000; stroke-width: 0.8"/>
      </g>
     </g>
     <g id="text_6">
      <!-- 5 -->
      <g transform="translate(790.61875 655.398438) scale(0.1 -0.1)">
       <defs>
        <path id="DejaVuSans-35" d="M 691 4666 
L 3169 4666 
L 3169 4134 
L 1269 4134 
L 1269 2991 
Q 1406 3038 1543 3061 
Q 1681 3084 1819 3084 
Q 2600 3084 3056 2656 
Q 3513 2228 3513 1497 
Q 3513 744 3044 326 
Q 2575 -91 1722 -91 
Q 1428 -91 1123 -41 
Q 819 9 494 109 
L 494 744 
Q 775 591 1075 516 
Q 1375 441 1709 441 
Q 2250 441 2565 725 
Q 2881 1009 2881 1497 
Q 2881 1984 2565 2268 
Q 2250 2553 1709 2553 
Q 1456 2553 1204 2497 
Q 953 2441 691 2322 
L 691 4666 
z
" transform="scale(0.015625)"/>
       </defs>
       <use xlink:href="#DejaVuSans-35"/>
      </g>
     </g>
    </g>
    <g id="xtick_7">
     <g id="line2d_7">
      <g>
       <use xlink:href="#m8393b5d5a3" x="905.4" y="640.8" style="stroke: #000000; stroke-width: 0.8"/>
      </g>
     </g>
     <g id="text_7">
      <!-- 6 -->
      <g transform="translate(902.21875 655.398438) scale(0.1 -0.1)">
       <defs>
        <path id="DejaVuSans-36" d="M 2113 2584 
Q 1688 2584 1439 2293 
Q 1191 2003 1191 1497 
Q 1191 994 1439 701 
Q 1688 409 2113 409 
Q 2538 409 2786 701 
Q 3034 994 3034 1497 
Q 3034 2003 2786 2293 
Q 2538 2584 2113 2584 
z
M 3366 4563 
L 3366 3988 
Q 3128 4100 2886 4159 
Q 2644 4219 2406 4219 
Q 1781 4219 1451 3797 
Q 1122 3375 1075 2522 
Q 1259 2794 1537 2939 
Q 1816 3084 2150 3084 
Q 2853 3084 3261 2657 
Q 3669 2231 3669 1497 
Q 3669 778 3244 343 
Q 2819 -91 2113 -91 
Q 1303 -91 875 529 
Q 447 1150 447 2328 
Q 447 3434 972 4092 
Q 1497 4750 2381 4750 
Q 2619 4750 2861 4703 
Q 3103 4656 3366 4563 
z
" transform="scale(0.015625)"/>
       </defs>
       <use xlink:href="#DejaVuSans-36"/>
      </g>
     </g>
    </g>
    <g id="xtick_8">
     <g id="line2d_8">
      <g>
       <use xlink:href="#m8393b5d5a3" x="1017" y="640.8" style="stroke: #000000; stroke-width: 0.8"/>
      </g>
     </g>
     <g id="text_8">
      <!-- 7 -->
      <g transform="translate(1013.81875 655.398438) scale(0.1 -0.1)">
       <defs>
        <path id="DejaVuSans-37" d="M 525 4666 
L 3525 4666 
L 3525 4397 
L 1831 0 
L 1172 0 
L 2766 4134 
L 525 4134 
L 525 4666 
z
" transform="scale(0.015625)"/>
       </defs>
       <use xlink:href="#DejaVuSans-37"/>
      </g>
     </g>
    </g>
    <g id="xtick_9">
     <g id="line2d_9">
      <g>
       <use xlink:href="#m8393b5d5a3" x="1128.6" y="640.8" style="stroke: #000000; stroke-width: 0.8"/>
      </g>
     </g>
     <g id="text_9">
      <!-- 8 -->
      <g transform="translate(1125.41875 655.398438) scale(0.1 -0.1)">
       <defs>
        <path id="DejaVuSans-38" d="M 2034 2216 
Q 1584 2216 1326 1975 
Q 1069 1734 1069 1313 
Q 1069 891 1326 650 
Q 1584 409 2034 409 
Q 2484 409 2743 651 
Q 3003 894 3003 1313 
Q 3003 1734 2745 1975 
Q 2488 2216 2034 2216 
z
M 1403 2484 
Q 997 2584 770 2862 
Q 544 3141 544 3541 
Q 544 4100 942 4425 
Q 1341 4750 2034 4750 
Q 2731 4750 3128 4425 
Q 3525 4100 3525 3541 
Q 3525 3141 3298 2862 
Q 3072 2584 2669 2484 
Q 3125 2378 3379 2068 
Q 3634 1759 3634 1313 
Q 3634 634 3220 271 
Q 2806 -91 2034 -91 
Q 1263 -91 848 271 
Q 434 634 434 1313 
Q 434 1759 690 2068 
Q 947 2378 1403 2484 
z
M 1172 3481 
Q 1172 3119 1398 2916 
Q 1625 2713 2034 2713 
Q 2441 2713 2670 2916 
Q 2900 3119 2900 3481 
Q 2900 3844 2670 4047 
Q 2441 4250 2034 4250 
Q 1625 4250 1398 4047 
Q 1172 3844 1172 3481 
z
" transform="scale(0.015625)"/>
       </defs>
       <use xlink:href="#DejaVuSans-38"/>
      </g>
     </g>
    </g>
    <g id="xtick_10">
     <g id="line2d_10">
      <g>
       <use xlink:href="#m8393b5d5a3" x="1240.2" y="640.8" style="stroke: #000000; stroke-width: 0.8"/>
      </g>
     </g>
     <g id="text_10">
      <!-- 9 -->
      <g transform="translate(1237.01875 655.398438) scale(0.1 -0.1)">
       <defs>
        <path id="DejaVuSans-39" d="M 703 97 
L 703 672 
Q 941 559 1184 500 
Q 1428 441 1663 441 
Q 2288 441 2617 861 
Q 2947 1281 2994 2138 
Q 2813 1869 2534 1725 
Q 2256 1581 1919 1581 
Q 1219 1581 811 2004 
Q 403 2428 403 3163 
Q 403 3881 828 4315 
Q 1253 4750 1959 4750 
Q 2769 4750 3195 4129 
Q 3622 3509 3622 2328 
Q 3622 1225 3098 567 
Q 2575 -91 1691 -91 
Q 1453 -91 1209 -44 
Q 966 3 703 97 
z
M 1959 2075 
Q 2384 2075 2632 2365 
Q 2881 2656 2881 3163 
Q 2881 3666 2632 3958 
Q 2384 4250 1959 4250 
Q 1534 4250 1286 3958 
Q 1038 3666 1038 3163 
Q 1038 2656 1286 2365 
Q 1534 2075 1959 2075 
z
" transform="scale(0.015625)"/>
       </defs>
       <use xlink:href="#DejaVuSans-39"/>
      </g>
     </g>
    </g>
    <g id="text_11">
     <!-- iteration -->
     <g transform="translate(716.877344 669.076563) scale(0.1 -0.1)">
      <defs>
       <path id="DejaVuSans-69" d="M 603 3500 
L 1178 3500 
L 1178 0 
L 603 0 
L 603 3500 
z
M 603 4863 
L 1178 4863 
L 1178 4134 
L 603 4134 
L 603 4863 
z
" transform="scale(0.015625)"/>
       <path id="DejaVuSans-74" d="M 1172 4494 
L 1172 3500 
L 2356 3500 
L 2356 3053 
L 1172 3053 
L 1172 1153 
Q 1172 725 1289 603 
Q 1406 481 1766 481 
L 2356 481 
L 2356 0 
L 1766 0 
Q 1100 0 847 248 
Q 594 497 594 1153 
L 594 3053 
L 172 3053 
L 172 3500 
L 594 3500 
L 594 4494 
L 1172 4494 
z
" transform="scale(0.015625)"/>
       <path id="DejaVuSans-65" d="M 3597 1894 
L 3597 1613 
L 953 1613 
Q 991 1019 1311 708 
Q 1631 397 2203 397 
Q 2534 397 2845 478 
Q 3156 559 3463 722 
L 3463 178 
Q 3153 47 2828 -22 
Q 2503 -91 2169 -91 
Q 1331 -91 842 396 
Q 353 884 353 1716 
Q 353 2575 817 3079 
Q 1281 3584 2069 3584 
Q 2775 3584 3186 3129 
Q 3597 2675 3597 1894 
z
M 3022 2063 
Q 3016 2534 2758 2815 
Q 2500 3097 2075 3097 
Q 1594 3097 1305 2825 
Q 1016 2553 972 2059 
L 3022 2063 
z
" transform="scale(0.015625)"/>
       <path id="DejaVuSans-72" d="M 2631 2963 
Q 2534 3019 2420 3045 
Q 2306 3072 2169 3072 
Q 1681 3072 1420 2755 
Q 1159 2438 1159 1844 
L 1159 0 
L 581 0 
L 581 3500 
L 1159 3500 
L 1159 2956 
Q 1341 3275 1631 3429 
Q 1922 3584 2338 3584 
Q 2397 3584 2469 3576 
Q 2541 3569 2628 3553 
L 2631 2963 
z
" transform="scale(0.015625)"/>
       <path id="DejaVuSans-61" d="M 2194 1759 
Q 1497 1759 1228 1600 
Q 959 1441 959 1056 
Q 959 750 1161 570 
Q 1363 391 1709 391 
Q 2188 391 2477 730 
Q 2766 1069 2766 1631 
L 2766 1759 
L 2194 1759 
z
M 3341 1997 
L 3341 0 
L 2766 0 
L 2766 531 
Q 2569 213 2275 61 
Q 1981 -91 1556 -91 
Q 1019 -91 701 211 
Q 384 513 384 1019 
Q 384 1609 779 1909 
Q 1175 2209 1959 2209 
L 2766 2209 
L 2766 2266 
Q 2766 2663 2505 2880 
Q 2244 3097 1772 3097 
Q 1472 3097 1187 3025 
Q 903 2953 641 2809 
L 641 3341 
Q 956 3463 1253 3523 
Q 1550 3584 1831 3584 
Q 2591 3584 2966 3190 
Q 3341 2797 3341 1997 
z
" transform="scale(0.015625)"/>
       <path id="DejaVuSans-6f" d="M 1959 3097 
Q 1497 3097 1228 2736 
Q 959 2375 959 1747 
Q 959 1119 1226 758 
Q 1494 397 1959 397 
Q 2419 397 2687 759 
Q 2956 1122 2956 1747 
Q 2956 2369 2687 2733 
Q 2419 3097 1959 3097 
z
M 1959 3584 
Q 2709 3584 3137 3096 
Q 3566 2609 3566 1747 
Q 3566 888 3137 398 
Q 2709 -91 1959 -91 
Q 1206 -91 779 398 
Q 353 888 353 1747 
Q 353 2609 779 3096 
Q 1206 3584 1959 3584 
z
" transform="scale(0.015625)"/>
       <path id="DejaVuSans-6e" d="M 3513 2113 
L 3513 0 
L 2938 0 
L 2938 2094 
Q 2938 2591 2744 2837 
Q 2550 3084 2163 3084 
Q 1697 3084 1428 2787 
Q 1159 2491 1159 1978 
L 1159 0 
L 581 0 
L 581 3500 
L 1159 3500 
L 1159 2956 
Q 1366 3272 1645 3428 
Q 1925 3584 2291 3584 
Q 2894 3584 3203 3211 
Q 3513 2838 3513 2113 
z
" transform="scale(0.015625)"/>
      </defs>
      <use xlink:href="#DejaVuSans-69"/>
      <use xlink:href="#DejaVuSans-74" x="27.783203"/>
      <use xlink:href="#DejaVuSans-65" x="66.992188"/>
      <use xlink:href="#DejaVuSans-72" x="128.515625"/>
      <use xlink:href="#DejaVuSans-61" x="169.628906"/>
      <use xlink:href="#DejaVuSans-74" x="230.908203"/>
      <use xlink:href="#DejaVuSans-69" x="270.117188"/>
      <use xlink:href="#DejaVuSans-6f" x="297.900391"/>
      <use xlink:href="#DejaVuSans-6e" x="359.082031"/>
     </g>
    </g>
   </g>
   <g id="matplotlib.axis_2">
    <g id="ytick_1">
     <g id="line2d_11">
      <defs>
       <path id="m999d168ebd" d="M 0 0 
L -3.5 0 
" style="stroke: #000000; stroke-width: 0.8"/>
      </defs>
      <g>
       <use xlink:href="#m999d168ebd" x="180" y="624.967003" style="stroke: #000000; stroke-width: 0.8"/>
      </g>
     </g>
     <g id="text_12">
      <!-- 0.2 -->
      <g transform="translate(148.717187 628.766221) scale(0.1 -0.1)">
       <defs>
        <path id="DejaVuSans-2212" d="M 678 2272 
L 4684 2272 
L 4684 1741 
L 678 1741 
L 678 2272 
z
" transform="scale(0.015625)"/>
        <path id="DejaVuSans-2e" d="M 684 794 
L 1344 794 
L 1344 0 
L 684 0 
L 684 794 
z
" transform="scale(0.015625)"/>
       </defs>
       <use xlink:href="#DejaVuSans-2212"/>
       <use xlink:href="#DejaVuSans-30" x="83.789062"/>
       <use xlink:href="#DejaVuSans-2e" x="147.412109"/>
       <use xlink:href="#DejaVuSans-32" x="179.199219"/>
      </g>
     </g>
    </g>
    <g id="ytick_2">
     <g id="line2d_12">
      <g>
       <use xlink:href="#m999d168ebd" x="180" y="548.292194" style="stroke: #000000; stroke-width: 0.8"/>
      </g>
     </g>
     <g id="text_13">
      <!-- 0.0 -->
      <g transform="translate(157.096875 552.091412) scale(0.1 -0.1)">
       <use xlink:href="#DejaVuSans-30"/>
       <use xlink:href="#DejaVuSans-2e" x="63.623047"/>
       <use xlink:href="#DejaVuSans-30" x="95.410156"/>
      </g>
     </g>
    </g>
    <g id="ytick_3">
     <g id="line2d_13">
      <g>
       <use xlink:href="#m999d168ebd" x="180" y="471.617385" style="stroke: #000000; stroke-width: 0.8"/>
      </g>
     </g>
     <g id="text_14">
      <!-- 0.2 -->
      <g transform="translate(157.096875 475.416603) scale(0.1 -0.1)">
       <use xlink:href="#DejaVuSans-30"/>
       <use xlink:href="#DejaVuSans-2e" x="63.623047"/>
       <use xlink:href="#DejaVuSans-32" x="95.410156"/>
      </g>
     </g>
    </g>
    <g id="ytick_4">
     <g id="line2d_14">
      <g>
       <use xlink:href="#m999d168ebd" x="180" y="394.942576" style="stroke: #000000; stroke-width: 0.8"/>
      </g>
     </g>
     <g id="text_15">
      <!-- 0.4 -->
      <g transform="translate(157.096875 398.741794) scale(0.1 -0.1)">
       <use xlink:href="#DejaVuSans-30"/>
       <use xlink:href="#DejaVuSans-2e" x="63.623047"/>
       <use xlink:href="#DejaVuSans-34" x="95.410156"/>
      </g>
     </g>
    </g>
    <g id="ytick_5">
     <g id="line2d_15">
      <g>
       <use xlink:href="#m999d168ebd" x="180" y="318.267767" style="stroke: #000000; stroke-width: 0.8"/>
      </g>
     </g>
     <g id="text_16">
      <!-- 0.6 -->
      <g transform="translate(157.096875 322.066985) scale(0.1 -0.1)">
       <use xlink:href="#DejaVuSans-30"/>
       <use xlink:href="#DejaVuSans-2e" x="63.623047"/>
       <use xlink:href="#DejaVuSans-36" x="95.410156"/>
      </g>
     </g>
    </g>
    <g id="ytick_6">
     <g id="line2d_16">
      <g>
       <use xlink:href="#m999d168ebd" x="180" y="241.592958" style="stroke: #000000; stroke-width: 0.8"/>
      </g>
     </g>
     <g id="text_17">
      <!-- 0.8 -->
      <g transform="translate(157.096875 245.392176) scale(0.1 -0.1)">
       <use xlink:href="#DejaVuSans-30"/>
       <use xlink:href="#DejaVuSans-2e" x="63.623047"/>
       <use xlink:href="#DejaVuSans-38" x="95.410156"/>
      </g>
     </g>
    </g>
    <g id="ytick_7">
     <g id="line2d_17">
      <g>
       <use xlink:href="#m999d168ebd" x="180" y="164.918149" style="stroke: #000000; stroke-width: 0.8"/>
      </g>
     </g>
     <g id="text_18">
      <!-- 1.0 -->
      <g transform="translate(157.096875 168.717367) scale(0.1 -0.1)">
       <use xlink:href="#DejaVuSans-31"/>
       <use xlink:href="#DejaVuSans-2e" x="63.623047"/>
       <use xlink:href="#DejaVuSans-30" x="95.410156"/>
      </g>
     </g>
    </g>
    <g id="ytick_8">
     <g id="line2d_18">
      <g>
       <use xlink:href="#m999d168ebd" x="180" y="88.24334" style="stroke: #000000; stroke-width: 0.8"/>
      </g>
     </g>
     <g id="text_19">
      <!-- 1.2 -->
      <g transform="translate(157.096875 92.042558) scale(0.1 -0.1)">
       <use xlink:href="#DejaVuSans-31"/>
       <use xlink:href="#DejaVuSans-2e" x="63.623047"/>
       <use xlink:href="#DejaVuSans-32" x="95.410156"/>
      </g>
     </g>
    </g>
    <g id="text_20">
     <!-- cosine similarity -->
     <g transform="translate(142.6375 404.307031) rotate(-90) scale(0.1 -0.1)">
      <defs>
       <path id="DejaVuSans-63" d="M 3122 3366 
L 3122 2828 
Q 2878 2963 2633 3030 
Q 2388 3097 2138 3097 
Q 1578 3097 1268 2742 
Q 959 2388 959 1747 
Q 959 1106 1268 751 
Q 1578 397 2138 397 
Q 2388 397 2633 464 
Q 2878 531 3122 666 
L 3122 134 
Q 2881 22 2623 -34 
Q 2366 -91 2075 -91 
Q 1284 -91 818 406 
Q 353 903 353 1747 
Q 353 2603 823 3093 
Q 1294 3584 2113 3584 
Q 2378 3584 2631 3529 
Q 2884 3475 3122 3366 
z
" transform="scale(0.015625)"/>
       <path id="DejaVuSans-73" d="M 2834 3397 
L 2834 2853 
Q 2591 2978 2328 3040 
Q 2066 3103 1784 3103 
Q 1356 3103 1142 2972 
Q 928 2841 928 2578 
Q 928 2378 1081 2264 
Q 1234 2150 1697 2047 
L 1894 2003 
Q 2506 1872 2764 1633 
Q 3022 1394 3022 966 
Q 3022 478 2636 193 
Q 2250 -91 1575 -91 
Q 1294 -91 989 -36 
Q 684 19 347 128 
L 347 722 
Q 666 556 975 473 
Q 1284 391 1588 391 
Q 1994 391 2212 530 
Q 2431 669 2431 922 
Q 2431 1156 2273 1281 
Q 2116 1406 1581 1522 
L 1381 1569 
Q 847 1681 609 1914 
Q 372 2147 372 2553 
Q 372 3047 722 3315 
Q 1072 3584 1716 3584 
Q 2034 3584 2315 3537 
Q 2597 3491 2834 3397 
z
" transform="scale(0.015625)"/>
       <path id="DejaVuSans-20" transform="scale(0.015625)"/>
       <path id="DejaVuSans-6d" d="M 3328 2828 
Q 3544 3216 3844 3400 
Q 4144 3584 4550 3584 
Q 5097 3584 5394 3201 
Q 5691 2819 5691 2113 
L 5691 0 
L 5113 0 
L 5113 2094 
Q 5113 2597 4934 2840 
Q 4756 3084 4391 3084 
Q 3944 3084 3684 2787 
Q 3425 2491 3425 1978 
L 3425 0 
L 2847 0 
L 2847 2094 
Q 2847 2600 2669 2842 
Q 2491 3084 2119 3084 
Q 1678 3084 1418 2786 
Q 1159 2488 1159 1978 
L 1159 0 
L 581 0 
L 581 3500 
L 1159 3500 
L 1159 2956 
Q 1356 3278 1631 3431 
Q 1906 3584 2284 3584 
Q 2666 3584 2933 3390 
Q 3200 3197 3328 2828 
z
" transform="scale(0.015625)"/>
       <path id="DejaVuSans-6c" d="M 603 4863 
L 1178 4863 
L 1178 0 
L 603 0 
L 603 4863 
z
" transform="scale(0.015625)"/>
       <path id="DejaVuSans-79" d="M 2059 -325 
Q 1816 -950 1584 -1140 
Q 1353 -1331 966 -1331 
L 506 -1331 
L 506 -850 
L 844 -850 
Q 1081 -850 1212 -737 
Q 1344 -625 1503 -206 
L 1606 56 
L 191 3500 
L 800 3500 
L 1894 763 
L 2988 3500 
L 3597 3500 
L 2059 -325 
z
" transform="scale(0.015625)"/>
      </defs>
      <use xlink:href="#DejaVuSans-63"/>
      <use xlink:href="#DejaVuSans-6f" x="54.980469"/>
      <use xlink:href="#DejaVuSans-73" x="116.162109"/>
      <use xlink:href="#DejaVuSans-69" x="168.261719"/>
      <use xlink:href="#DejaVuSans-6e" x="196.044922"/>
      <use xlink:href="#DejaVuSans-65" x="259.423828"/>
      <use xlink:href="#DejaVuSans-20" x="320.947266"/>
      <use xlink:href="#DejaVuSans-73" x="352.734375"/>
      <use xlink:href="#DejaVuSans-69" x="404.833984"/>
      <use xlink:href="#DejaVuSans-6d" x="432.617188"/>
      <use xlink:href="#DejaVuSans-69" x="530.029297"/>
      <use xlink:href="#DejaVuSans-6c" x="557.8125"/>
      <use xlink:href="#DejaVuSans-61" x="585.595703"/>
      <use xlink:href="#DejaVuSans-72" x="646.875"/>
      <use xlink:href="#DejaVuSans-69" x="687.988281"/>
      <use xlink:href="#DejaVuSans-74" x="715.771484"/>
      <use xlink:href="#DejaVuSans-79" x="754.980469"/>
     </g>
    </g>
   </g>
   <g id="line2d_19">
    <path d="M 235.8 546.468878 
L 235.8 164.918103 
" clip-path="url(#p5ab1e97471)" style="fill: none; stroke: #3f3f3f; stroke-width: 1.875; stroke-linecap: square"/>
   </g>
   <g id="line2d_20">
    <path d="M 235.8 418.671126 
L 235.8 310.200416 
" clip-path="url(#p5ab1e97471)" style="fill: none; stroke: #3f3f3f; stroke-width: 5.625; stroke-linecap: square"/>
   </g>
   <g id="line2d_21">
    <path d="M 235.8 369.515629 
" clip-path="url(#p5ab1e97471)" style="fill: none; stroke: #3f3f3f; stroke-width: 1.5; stroke-linecap: square"/>
    <defs>
     <path id="mb9cd77b5f7" d="M 2.34375 0 
L -2.34375 -0 
" style="stroke: #ffffff; stroke-width: 1.125"/>
    </defs>
    <g clip-path="url(#p5ab1e97471)">
     <use xlink:href="#mb9cd77b5f7" x="235.8" y="369.515629" style="fill: #ffffff; stroke: #ffffff; stroke-width: 1.125"/>
    </g>
   </g>
   <g id="line2d_22">
    <path d="M 347.4 560.107803 
L 347.4 222.337961 
" clip-path="url(#p5ab1e97471)" style="fill: none; stroke: #3f3f3f; stroke-width: 1.875; stroke-linecap: square"/>
   </g>
   <g id="line2d_23">
    <path d="M 347.4 476.888646 
L 347.4 371.406422 
" clip-path="url(#p5ab1e97471)" style="fill: none; stroke: #3f3f3f; stroke-width: 5.625; stroke-linecap: square"/>
   </g>
   <g id="line2d_24">
    <path d="M 347.4 420.981498 
" clip-path="url(#p5ab1e97471)" style="fill: none; stroke: #3f3f3f; stroke-width: 1.5; stroke-linecap: square"/>
    <g clip-path="url(#p5ab1e97471)">
     <use xlink:href="#mb9cd77b5f7" x="347.4" y="420.981498" style="fill: #ffffff; stroke: #ffffff; stroke-width: 1.125"/>
    </g>
   </g>
   <g id="line2d_25">
    <path d="M 459 555.596741 
L 459 255.922325 
" clip-path="url(#p5ab1e97471)" style="fill: none; stroke: #3f3f3f; stroke-width: 1.875; stroke-linecap: square"/>
   </g>
   <g id="line2d_26">
    <path d="M 459 487.134231 
L 459 392.043115 
" clip-path="url(#p5ab1e97471)" style="fill: none; stroke: #3f3f3f; stroke-width: 5.625; stroke-linecap: square"/>
   </g>
   <g id="line2d_27">
    <path d="M 459 440.010855 
" clip-path="url(#p5ab1e97471)" style="fill: none; stroke: #3f3f3f; stroke-width: 1.5; stroke-linecap: square"/>
    <g clip-path="url(#p5ab1e97471)">
     <use xlink:href="#mb9cd77b5f7" x="459" y="440.010855" style="fill: #ffffff; stroke: #ffffff; stroke-width: 1.125"/>
    </g>
   </g>
   <g id="line2d_28">
    <path d="M 570.6 553.643456 
L 570.6 272.254004 
" clip-path="url(#p5ab1e97471)" style="fill: none; stroke: #3f3f3f; stroke-width: 1.875; stroke-linecap: square"/>
   </g>
   <g id="line2d_29">
    <path d="M 570.6 495.081642 
L 570.6 401.859062 
" clip-path="url(#p5ab1e97471)" style="fill: none; stroke: #3f3f3f; stroke-width: 5.625; stroke-linecap: square"/>
   </g>
   <g id="line2d_30">
    <path d="M 570.6 455.209251 
" clip-path="url(#p5ab1e97471)" style="fill: none; stroke: #3f3f3f; stroke-width: 1.5; stroke-linecap: square"/>
    <g clip-path="url(#p5ab1e97471)">
     <use xlink:href="#mb9cd77b5f7" x="570.6" y="455.209251" style="fill: #ffffff; stroke: #ffffff; stroke-width: 1.125"/>
    </g>
   </g>
   <g id="line2d_31">
    <path d="M 682.2 568.600504 
L 682.2 272.254004 
" clip-path="url(#p5ab1e97471)" style="fill: none; stroke: #3f3f3f; stroke-width: 1.875; stroke-linecap: square"/>
   </g>
   <g id="line2d_32">
    <path d="M 682.2 505.008575 
L 682.2 408.598258 
" clip-path="url(#p5ab1e97471)" style="fill: none; stroke: #3f3f3f; stroke-width: 5.625; stroke-linecap: square"/>
   </g>
   <g id="line2d_33">
    <path d="M 682.2 465.405499 
" clip-path="url(#p5ab1e97471)" style="fill: none; stroke: #3f3f3f; stroke-width: 1.5; stroke-linecap: square"/>
    <g clip-path="url(#p5ab1e97471)">
     <use xlink:href="#mb9cd77b5f7" x="682.2" y="465.405499" style="fill: #ffffff; stroke: #ffffff; stroke-width: 1.125"/>
    </g>
   </g>
   <g id="line2d_34">
    <path d="M 793.8 568.600504 
L 793.8 292.735242 
" clip-path="url(#p5ab1e97471)" style="fill: none; stroke: #3f3f3f; stroke-width: 1.875; stroke-linecap: square"/>
   </g>
   <g id="line2d_35">
    <path d="M 793.8 505.666856 
L 793.8 419.585635 
" clip-path="url(#p5ab1e97471)" style="fill: none; stroke: #3f3f3f; stroke-width: 5.625; stroke-linecap: square"/>
   </g>
   <g id="line2d_36">
    <path d="M 793.8 467.8299 
" clip-path="url(#p5ab1e97471)" style="fill: none; stroke: #3f3f3f; stroke-width: 1.5; stroke-linecap: square"/>
    <g clip-path="url(#p5ab1e97471)">
     <use xlink:href="#mb9cd77b5f7" x="793.8" y="467.8299" style="fill: #ffffff; stroke: #ffffff; stroke-width: 1.125"/>
    </g>
   </g>
   <g id="line2d_37">
    <path d="M 905.4 568.600504 
L 905.4 316.605379 
" clip-path="url(#p5ab1e97471)" style="fill: none; stroke: #3f3f3f; stroke-width: 1.875; stroke-linecap: square"/>
   </g>
   <g id="line2d_38">
    <path d="M 905.4 510.040407 
L 905.4 431.726859 
" clip-path="url(#p5ab1e97471)" style="fill: none; stroke: #3f3f3f; stroke-width: 5.625; stroke-linecap: square"/>
   </g>
   <g id="line2d_39">
    <path d="M 905.4 473.35868 
" clip-path="url(#p5ab1e97471)" style="fill: none; stroke: #3f3f3f; stroke-width: 1.5; stroke-linecap: square"/>
    <g clip-path="url(#p5ab1e97471)">
     <use xlink:href="#mb9cd77b5f7" x="905.4" y="473.35868" style="fill: #ffffff; stroke: #ffffff; stroke-width: 1.125"/>
    </g>
   </g>
   <g id="line2d_40">
    <path d="M 1017 568.600504 
L 1017 327.341931 
" clip-path="url(#p5ab1e97471)" style="fill: none; stroke: #3f3f3f; stroke-width: 1.875; stroke-linecap: square"/>
   </g>
   <g id="line2d_41">
    <path d="M 1017 509.314339 
L 1017 434.69008 
" clip-path="url(#p5ab1e97471)" style="fill: none; stroke: #3f3f3f; stroke-width: 5.625; stroke-linecap: square"/>
   </g>
   <g id="line2d_42">
    <path d="M 1017 473.80626 
" clip-path="url(#p5ab1e97471)" style="fill: none; stroke: #3f3f3f; stroke-width: 1.5; stroke-linecap: square"/>
    <g clip-path="url(#p5ab1e97471)">
     <use xlink:href="#mb9cd77b5f7" x="1017" y="473.80626" style="fill: #ffffff; stroke: #ffffff; stroke-width: 1.125"/>
    </g>
   </g>
   <g id="line2d_43">
    <path d="M 1128.6 568.600504 
L 1128.6 337.439686 
" clip-path="url(#p5ab1e97471)" style="fill: none; stroke: #3f3f3f; stroke-width: 1.875; stroke-linecap: square"/>
   </g>
   <g id="line2d_44">
    <path d="M 1128.6 508.928921 
L 1128.6 436.527022 
" clip-path="url(#p5ab1e97471)" style="fill: none; stroke: #3f3f3f; stroke-width: 5.625; stroke-linecap: square"/>
   </g>
   <g id="line2d_45">
    <path d="M 1128.6 473.80626 
" clip-path="url(#p5ab1e97471)" style="fill: none; stroke: #3f3f3f; stroke-width: 1.5; stroke-linecap: square"/>
    <g clip-path="url(#p5ab1e97471)">
     <use xlink:href="#mb9cd77b5f7" x="1128.6" y="473.80626" style="fill: #ffffff; stroke: #ffffff; stroke-width: 1.125"/>
    </g>
   </g>
   <g id="line2d_46">
    <path d="M 1240.2 568.600504 
L 1240.2 337.439686 
" clip-path="url(#p5ab1e97471)" style="fill: none; stroke: #3f3f3f; stroke-width: 1.875; stroke-linecap: square"/>
   </g>
   <g id="line2d_47">
    <path d="M 1240.2 508.928921 
L 1240.2 439.281355 
" clip-path="url(#p5ab1e97471)" style="fill: none; stroke: #3f3f3f; stroke-width: 5.625; stroke-linecap: square"/>
   </g>
   <g id="line2d_48">
    <path d="M 1240.2 475.312841 
" clip-path="url(#p5ab1e97471)" style="fill: none; stroke: #3f3f3f; stroke-width: 1.5; stroke-linecap: square"/>
    <g clip-path="url(#p5ab1e97471)">
     <use xlink:href="#mb9cd77b5f7" x="1240.2" y="475.312841" style="fill: #ffffff; stroke: #ffffff; stroke-width: 1.125"/>
    </g>
   </g>
   <g id="patch_3">
    <path d="M 180 640.8 
L 180 86.4 
" style="fill: none; stroke: #000000; stroke-width: 0.8; stroke-linejoin: miter; stroke-linecap: square"/>
   </g>
   <g id="patch_4">
    <path d="M 1296 640.8 
L 1296 86.4 
" style="fill: none; stroke: #000000; stroke-width: 0.8; stroke-linejoin: miter; stroke-linecap: square"/>
   </g>
   <g id="patch_5">
    <path d="M 180 640.8 
L 1296 640.8 
" style="fill: none; stroke: #000000; stroke-width: 0.8; stroke-linejoin: miter; stroke-linecap: square"/>
   </g>
   <g id="patch_6">
    <path d="M 180 86.4 
L 1296 86.4 
" style="fill: none; stroke: #000000; stroke-width: 0.8; stroke-linejoin: miter; stroke-linecap: square"/>
   </g>
   <g id="text_21">
    <!-- cosine similarity of max_fs (distanceFromInitialPrompt), by iteration -->
    <g transform="translate(534.816563 80.4) scale(0.12 -0.12)">
     <defs>
      <path id="DejaVuSans-66" d="M 2375 4863 
L 2375 4384 
L 1825 4384 
Q 1516 4384 1395 4259 
Q 1275 4134 1275 3809 
L 1275 3500 
L 2222 3500 
L 2222 3053 
L 1275 3053 
L 1275 0 
L 697 0 
L 697 3053 
L 147 3053 
L 147 3500 
L 697 3500 
L 697 3744 
Q 697 4328 969 4595 
Q 1241 4863 1831 4863 
L 2375 4863 
z
" transform="scale(0.015625)"/>
      <path id="DejaVuSans-78" d="M 3513 3500 
L 2247 1797 
L 3578 0 
L 2900 0 
L 1881 1375 
L 863 0 
L 184 0 
L 1544 1831 
L 300 3500 
L 978 3500 
L 1906 2253 
L 2834 3500 
L 3513 3500 
z
" transform="scale(0.015625)"/>
      <path id="DejaVuSans-5f" d="M 3263 -1063 
L 3263 -1509 
L -63 -1509 
L -63 -1063 
L 3263 -1063 
z
" transform="scale(0.015625)"/>
      <path id="DejaVuSans-28" d="M 1984 4856 
Q 1566 4138 1362 3434 
Q 1159 2731 1159 2009 
Q 1159 1288 1364 580 
Q 1569 -128 1984 -844 
L 1484 -844 
Q 1016 -109 783 600 
Q 550 1309 550 2009 
Q 550 2706 781 3412 
Q 1013 4119 1484 4856 
L 1984 4856 
z
" transform="scale(0.015625)"/>
      <path id="DejaVuSans-64" d="M 2906 2969 
L 2906 4863 
L 3481 4863 
L 3481 0 
L 2906 0 
L 2906 525 
Q 2725 213 2448 61 
Q 2172 -91 1784 -91 
Q 1150 -91 751 415 
Q 353 922 353 1747 
Q 353 2572 751 3078 
Q 1150 3584 1784 3584 
Q 2172 3584 2448 3432 
Q 2725 3281 2906 2969 
z
M 947 1747 
Q 947 1113 1208 752 
Q 1469 391 1925 391 
Q 2381 391 2643 752 
Q 2906 1113 2906 1747 
Q 2906 2381 2643 2742 
Q 2381 3103 1925 3103 
Q 1469 3103 1208 2742 
Q 947 2381 947 1747 
z
" transform="scale(0.015625)"/>
      <path id="DejaVuSans-46" d="M 628 4666 
L 3309 4666 
L 3309 4134 
L 1259 4134 
L 1259 2759 
L 3109 2759 
L 3109 2228 
L 1259 2228 
L 1259 0 
L 628 0 
L 628 4666 
z
" transform="scale(0.015625)"/>
      <path id="DejaVuSans-49" d="M 628 4666 
L 1259 4666 
L 1259 0 
L 628 0 
L 628 4666 
z
" transform="scale(0.015625)"/>
      <path id="DejaVuSans-50" d="M 1259 4147 
L 1259 2394 
L 2053 2394 
Q 2494 2394 2734 2622 
Q 2975 2850 2975 3272 
Q 2975 3691 2734 3919 
Q 2494 4147 2053 4147 
L 1259 4147 
z
M 628 4666 
L 2053 4666 
Q 2838 4666 3239 4311 
Q 3641 3956 3641 3272 
Q 3641 2581 3239 2228 
Q 2838 1875 2053 1875 
L 1259 1875 
L 1259 0 
L 628 0 
L 628 4666 
z
" transform="scale(0.015625)"/>
      <path id="DejaVuSans-70" d="M 1159 525 
L 1159 -1331 
L 581 -1331 
L 581 3500 
L 1159 3500 
L 1159 2969 
Q 1341 3281 1617 3432 
Q 1894 3584 2278 3584 
Q 2916 3584 3314 3078 
Q 3713 2572 3713 1747 
Q 3713 922 3314 415 
Q 2916 -91 2278 -91 
Q 1894 -91 1617 61 
Q 1341 213 1159 525 
z
M 3116 1747 
Q 3116 2381 2855 2742 
Q 2594 3103 2138 3103 
Q 1681 3103 1420 2742 
Q 1159 2381 1159 1747 
Q 1159 1113 1420 752 
Q 1681 391 2138 391 
Q 2594 391 2855 752 
Q 3116 1113 3116 1747 
z
" transform="scale(0.015625)"/>
      <path id="DejaVuSans-29" d="M 513 4856 
L 1013 4856 
Q 1481 4119 1714 3412 
Q 1947 2706 1947 2009 
Q 1947 1309 1714 600 
Q 1481 -109 1013 -844 
L 513 -844 
Q 928 -128 1133 580 
Q 1338 1288 1338 2009 
Q 1338 2731 1133 3434 
Q 928 4138 513 4856 
z
" transform="scale(0.015625)"/>
      <path id="DejaVuSans-2c" d="M 750 794 
L 1409 794 
L 1409 256 
L 897 -744 
L 494 -744 
L 750 256 
L 750 794 
z
" transform="scale(0.015625)"/>
      <path id="DejaVuSans-62" d="M 3116 1747 
Q 3116 2381 2855 2742 
Q 2594 3103 2138 3103 
Q 1681 3103 1420 2742 
Q 1159 2381 1159 1747 
Q 1159 1113 1420 752 
Q 1681 391 2138 391 
Q 2594 391 2855 752 
Q 3116 1113 3116 1747 
z
M 1159 2969 
Q 1341 3281 1617 3432 
Q 1894 3584 2278 3584 
Q 2916 3584 3314 3078 
Q 3713 2572 3713 1747 
Q 3713 922 3314 415 
Q 2916 -91 2278 -91 
Q 1894 -91 1617 61 
Q 1341 213 1159 525 
L 1159 0 
L 581 0 
L 581 4863 
L 1159 4863 
L 1159 2969 
z
" transform="scale(0.015625)"/>
     </defs>
     <use xlink:href="#DejaVuSans-63"/>
     <use xlink:href="#DejaVuSans-6f" x="54.980469"/>
     <use xlink:href="#DejaVuSans-73" x="116.162109"/>
     <use xlink:href="#DejaVuSans-69" x="168.261719"/>
     <use xlink:href="#DejaVuSans-6e" x="196.044922"/>
     <use xlink:href="#DejaVuSans-65" x="259.423828"/>
     <use xlink:href="#DejaVuSans-20" x="320.947266"/>
     <use xlink:href="#DejaVuSans-73" x="352.734375"/>
     <use xlink:href="#DejaVuSans-69" x="404.833984"/>
     <use xlink:href="#DejaVuSans-6d" x="432.617188"/>
     <use xlink:href="#DejaVuSans-69" x="530.029297"/>
     <use xlink:href="#DejaVuSans-6c" x="557.8125"/>
     <use xlink:href="#DejaVuSans-61" x="585.595703"/>
     <use xlink:href="#DejaVuSans-72" x="646.875"/>
     <use xlink:href="#DejaVuSans-69" x="687.988281"/>
     <use xlink:href="#DejaVuSans-74" x="715.771484"/>
     <use xlink:href="#DejaVuSans-79" x="754.980469"/>
     <use xlink:href="#DejaVuSans-20" x="814.160156"/>
     <use xlink:href="#DejaVuSans-6f" x="845.947266"/>
     <use xlink:href="#DejaVuSans-66" x="907.128906"/>
     <use xlink:href="#DejaVuSans-20" x="942.333984"/>
     <use xlink:href="#DejaVuSans-6d" x="974.121094"/>
     <use xlink:href="#DejaVuSans-61" x="1071.533203"/>
     <use xlink:href="#DejaVuSans-78" x="1132.8125"/>
     <use xlink:href="#DejaVuSans-5f" x="1191.992188"/>
     <use xlink:href="#DejaVuSans-66" x="1241.992188"/>
     <use xlink:href="#DejaVuSans-73" x="1277.197266"/>
     <use xlink:href="#DejaVuSans-20" x="1329.296875"/>
     <use xlink:href="#DejaVuSans-28" x="1361.083984"/>
     <use xlink:href="#DejaVuSans-64" x="1400.097656"/>
     <use xlink:href="#DejaVuSans-69" x="1463.574219"/>
     <use xlink:href="#DejaVuSans-73" x="1491.357422"/>
     <use xlink:href="#DejaVuSans-74" x="1543.457031"/>
     <use xlink:href="#DejaVuSans-61" x="1582.666016"/>
     <use xlink:href="#DejaVuSans-6e" x="1643.945312"/>
     <use xlink:href="#DejaVuSans-63" x="1707.324219"/>
     <use xlink:href="#DejaVuSans-65" x="1762.304688"/>
     <use xlink:href="#DejaVuSans-46" x="1823.828125"/>
     <use xlink:href="#DejaVuSans-72" x="1874.097656"/>
     <use xlink:href="#DejaVuSans-6f" x="1912.960938"/>
     <use xlink:href="#DejaVuSans-6d" x="1974.142578"/>
     <use xlink:href="#DejaVuSans-49" x="2071.554688"/>
     <use xlink:href="#DejaVuSans-6e" x="2101.046875"/>
     <use xlink:href="#DejaVuSans-69" x="2164.425781"/>
     <use xlink:href="#DejaVuSans-74" x="2192.208984"/>
     <use xlink:href="#DejaVuSans-69" x="2231.417969"/>
     <use xlink:href="#DejaVuSans-61" x="2259.201172"/>
     <use xlink:href="#DejaVuSans-6c" x="2320.480469"/>
     <use xlink:href="#DejaVuSans-50" x="2348.263672"/>
     <use xlink:href="#DejaVuSans-72" x="2406.816406"/>
     <use xlink:href="#DejaVuSans-6f" x="2445.679688"/>
     <use xlink:href="#DejaVuSans-6d" x="2506.861328"/>
     <use xlink:href="#DejaVuSans-70" x="2604.273438"/>
     <use xlink:href="#DejaVuSans-74" x="2667.75"/>
     <use xlink:href="#DejaVuSans-29" x="2706.958984"/>
     <use xlink:href="#DejaVuSans-2c" x="2745.972656"/>
     <use xlink:href="#DejaVuSans-20" x="2777.759766"/>
     <use xlink:href="#DejaVuSans-62" x="2809.546875"/>
     <use xlink:href="#DejaVuSans-79" x="2873.023438"/>
     <use xlink:href="#DejaVuSans-20" x="2932.203125"/>
     <use xlink:href="#DejaVuSans-69" x="2963.990234"/>
     <use xlink:href="#DejaVuSans-74" x="2991.773438"/>
     <use xlink:href="#DejaVuSans-65" x="3030.982422"/>
     <use xlink:href="#DejaVuSans-72" x="3092.505859"/>
     <use xlink:href="#DejaVuSans-61" x="3133.619141"/>
     <use xlink:href="#DejaVuSans-74" x="3194.898438"/>
     <use xlink:href="#DejaVuSans-69" x="3234.107422"/>
     <use xlink:href="#DejaVuSans-6f" x="3261.890625"/>
     <use xlink:href="#DejaVuSans-6e" x="3323.072266"/>
    </g>
   </g>
  </g>
 </g>
 <defs>
  <clipPath id="p5ab1e97471">
   <rect x="180" y="86.4" width="1116" height="554.4"/>
  </clipPath>
 </defs>
</svg>
